<?xml version="1.0" encoding="UTF-8" standalone="no"?>
<!DOCTYPE svg PUBLIC "-//W3C//DTD SVG 1.1//EN"
 "http://www.w3.org/Graphics/SVG/1.1/DTD/svg11.dtd">
<!-- Generated by graphviz version 2.43.0 (0)
 -->
<!-- Title: alsa&#45;stream&#45;control.h Pages: 1 -->
<svg width="617pt" height="159pt"
 viewBox="0.00 0.00 617.45 159.00" xmlns="http://www.w3.org/2000/svg" xmlns:xlink="http://www.w3.org/1999/xlink">
<g id="graph0" class="graph" transform="scale(1 1) rotate(0) translate(4 155)">
<title>alsa&#45;stream&#45;control.h</title>
<!-- Node1 -->
<g id="Node000001" class="node">
<title>Node1</title>
<g id="a_Node000001"><a xlink:title=" ">
<polygon fill="#999999" stroke="#666666" points="336.95,-151 214.95,-151 214.95,-132 336.95,-132 336.95,-151"/>
<text text-anchor="middle" x="275.95" y="-139" font-family="Helvetica,sans-Serif" font-size="10.00">alsa&#45;stream&#45;control.h</text>
</a>
</g>
</g>
<!-- Node2 -->
<g id="Node000002" class="node">
<title>Node2</title>
<g id="a_Node000002"><a xlink:href="alsa-device_8c.html" target="_top" xlink:title=" ">
<polygon fill="white" stroke="#666666" points="100.45,-24.5 19.45,-24.5 19.45,-5.5 100.45,-5.5 100.45,-24.5"/>
<text text-anchor="middle" x="59.95" y="-12.5" font-family="Helvetica,sans-Serif" font-size="10.00">alsa&#45;device.c</text>
</a>
</g>
</g>
<!-- Node1&#45;&gt;Node2 -->
<g id="edge1_Node000001_Node000002" class="edge">
<title>Node1&#45;&gt;Node2</title>
<g id="a_edge1_Node000001_Node000002"><a xlink:title=" ">
<path fill="none" stroke="#63b8ff" d="M204.52,-138.82C133.29,-135.46 30.96,-125.47 5.95,-96 -14.54,-71.85 24.65,-39.76 46.58,-24.61"/>
<polygon fill="#63b8ff" stroke="#63b8ff" points="204.65,-142.33 214.8,-139.27 204.96,-135.34 204.65,-142.33"/>
</a>
</g>
</g>
<!-- Node3 -->
<g id="Node000003" class="node">
<title>Node3</title>
<g id="a_Node000003"><a xlink:href="alsa-stream-control_8c.html" target="_top" xlink:title=" ">
<polygon fill="white" stroke="#666666" points="508.45,-90.5 387.45,-90.5 387.45,-71.5 508.45,-71.5 508.45,-90.5"/>
<text text-anchor="middle" x="447.95" y="-78.5" font-family="Helvetica,sans-Serif" font-size="10.00">alsa&#45;stream&#45;control.c</text>
</a>
</g>
</g>
<!-- Node1&#45;&gt;Node3 -->
<g id="edge2_Node000001_Node000003" class="edge">
<title>Node1&#45;&gt;Node3</title>
<g id="a_edge2_Node000001_Node000003"><a xlink:title=" ">
<path fill="none" stroke="#63b8ff" d="M310.73,-128.67C343.99,-117.36 393.34,-100.57 422.91,-90.52"/>
<polygon fill="#63b8ff" stroke="#63b8ff" points="309.3,-125.46 300.96,-131.99 311.55,-132.09 309.3,-125.46"/>
</a>
</g>
</g>
<!-- Node4 -->
<g id="Node000004" class="node">
<title>Node4</title>
<g id="a_Node000004"><a xlink:href="alsa-stream-input-control_8c.html" target="_top" xlink:title=" ">
<polygon fill="white" stroke="#666666" points="267.45,-24.5 118.45,-24.5 118.45,-5.5 267.45,-5.5 267.45,-24.5"/>
<text text-anchor="middle" x="192.95" y="-12.5" font-family="Helvetica,sans-Serif" font-size="10.00">alsa&#45;stream&#45;input&#45;control.c</text>
</a>
</g>
</g>
<!-- Node1&#45;&gt;Node4 -->
<g id="edge3_Node000001_Node000004" class="edge">
<title>Node1&#45;&gt;Node4</title>
<g id="a_edge3_Node000001_Node000004"><a xlink:title=" ">
<path fill="none" stroke="#63b8ff" d="M247.88,-127.05C235.12,-119.59 220.9,-109.14 211.95,-96 196.67,-73.59 193.61,-40.38 193.04,-24.74"/>
<polygon fill="#63b8ff" stroke="#63b8ff" points="246.37,-130.22 256.82,-131.96 249.73,-124.08 246.37,-130.22"/>
</a>
</g>
</g>
<!-- Node5 -->
<g id="Node000005" class="node">
<title>Node5</title>
<g id="a_Node000005"><a xlink:href="alsa-stream-input-control_8h.html" target="_top" xlink:title=" ">
<polygon fill="white" stroke="#666666" points="164.95,-90.5 14.95,-90.5 14.95,-71.5 164.95,-71.5 164.95,-90.5"/>
<text text-anchor="middle" x="89.95" y="-78.5" font-family="Helvetica,sans-Serif" font-size="10.00">alsa&#45;stream&#45;input&#45;control.h</text>
</a>
</g>
</g>
<!-- Node1&#45;&gt;Node5 -->
<g id="edge4_Node000001_Node000005" class="edge">
<title>Node1&#45;&gt;Node5</title>
<g id="a_edge4_Node000001_Node000005"><a xlink:title=" ">
<path fill="none" stroke="#63b8ff" d="M239.27,-128.96C203.29,-117.65 149.27,-100.66 117.03,-90.52"/>
<polygon fill="#63b8ff" stroke="#63b8ff" points="238.31,-132.33 248.9,-131.99 240.41,-125.65 238.31,-132.33"/>
</a>
</g>
</g>
<!-- Node6 -->
<g id="Node000006" class="node">
<title>Node6</title>
<g id="a_Node000006"><a xlink:href="alsa-stream-output-control_8c.html" target="_top" xlink:title=" ">
<polygon fill="white" stroke="#666666" points="404.95,-30 294.95,-30 294.95,0 404.95,0 404.95,-30"/>
<text text-anchor="start" x="302.95" y="-18" font-family="Helvetica,sans-Serif" font-size="10.00">alsa&#45;stream&#45;output</text>
<text text-anchor="middle" x="349.95" y="-7" font-family="Helvetica,sans-Serif" font-size="10.00">&#45;control.c</text>
</a>
</g>
</g>
<!-- Node1&#45;&gt;Node6 -->
<g id="edge7_Node000001_Node000006" class="edge">
<title>Node1&#45;&gt;Node6</title>
<g id="a_edge7_Node000001_Node000006"><a xlink:title=" ">
<path fill="none" stroke="#63b8ff" d="M305.19,-127.16C317.95,-119.81 331.83,-109.42 339.95,-96 352.26,-75.64 352.63,-47.04 351.49,-30.13"/>
<polygon fill="#63b8ff" stroke="#63b8ff" points="303.35,-124.17 296.19,-131.98 306.66,-130.34 303.35,-124.17"/>
</a>
</g>
</g>
<!-- Node7 -->
<g id="Node000007" class="node">
<title>Node7</title>
<g id="a_Node000007"><a xlink:href="alsa-stream-output-control_8h.html" target="_top" xlink:title=" ">
<polygon fill="white" stroke="#666666" points="330.95,-96 220.95,-96 220.95,-66 330.95,-66 330.95,-96"/>
<text text-anchor="start" x="228.95" y="-84" font-family="Helvetica,sans-Serif" font-size="10.00">alsa&#45;stream&#45;output</text>
<text text-anchor="middle" x="275.95" y="-73" font-family="Helvetica,sans-Serif" font-size="10.00">&#45;control.h</text>
</a>
</g>
</g>
<!-- Node1&#45;&gt;Node7 -->
<g id="edge8_Node000001_Node000007" class="edge">
<title>Node1&#45;&gt;Node7</title>
<g id="a_edge8_Node000001_Node000007"><a xlink:title=" ">
<path fill="none" stroke="#63b8ff" d="M275.95,-121.65C275.95,-113.36 275.95,-103.78 275.95,-96.11"/>
<polygon fill="#63b8ff" stroke="#63b8ff" points="272.45,-121.87 275.95,-131.87 279.45,-121.87 272.45,-121.87"/>
</a>
</g>
</g>
<!-- Node8 -->
<g id="Node000008" class="node">
<title>Node8</title>
<g id="a_Node000008"><a xlink:href="alsa-stream_8c.html" target="_top" xlink:title=" ">
<polygon fill="white" stroke="#666666" points="609.45,-90.5 526.45,-90.5 526.45,-71.5 609.45,-71.5 609.45,-90.5"/>
<text text-anchor="middle" x="567.95" y="-78.5" font-family="Helvetica,sans-Serif" font-size="10.00">alsa&#45;stream.c</text>
</a>
</g>
</g>
<!-- Node1&#45;&gt;Node8 -->
<g id="edge11_Node000001_Node000008" class="edge">
<title>Node1&#45;&gt;Node8</title>
<g id="a_edge11_Node000001_Node000008"><a xlink:title=" ">
<path fill="none" stroke="#63b8ff" d="M340.67,-130.25C389.6,-122.1 458.31,-109.8 517.95,-96 524.89,-94.39 532.3,-92.45 539.24,-90.52"/>
<polygon fill="#63b8ff" stroke="#63b8ff" points="339.84,-126.84 330.54,-131.92 340.98,-133.74 339.84,-126.84"/>
</a>
</g>
</g>
<!-- Node5&#45;&gt;Node2 -->
<g id="edge5_Node000005_Node000002" class="edge">
<title>Node5&#45;&gt;Node2</title>
<g id="a_edge5_Node000005_Node000002"><a xlink:title=" ">
<path fill="none" stroke="#63b8ff" d="M81.6,-62.18C75.91,-50.05 68.62,-34.51 64.12,-24.91"/>
<polygon fill="#63b8ff" stroke="#63b8ff" points="78.49,-63.8 85.9,-71.37 84.83,-60.83 78.49,-63.8"/>
</a>
</g>
</g>
<!-- Node5&#45;&gt;Node4 -->
<g id="edge6_Node000005_Node000004" class="edge">
<title>Node5&#45;&gt;Node4</title>
<g id="a_edge6_Node000005_Node000004"><a xlink:title=" ">
<path fill="none" stroke="#63b8ff" d="M112.45,-66.02C132.71,-53.43 161.85,-35.32 178.95,-24.7"/>
<polygon fill="#63b8ff" stroke="#63b8ff" points="110.49,-63.12 103.84,-71.37 114.18,-69.06 110.49,-63.12"/>
</a>
</g>
</g>
<!-- Node7&#45;&gt;Node2 -->
<g id="edge9_Node000007_Node000002" class="edge">
<title>Node7&#45;&gt;Node2</title>
<g id="a_edge9_Node000007_Node000002"><a xlink:title=" ">
<path fill="none" stroke="#63b8ff" d="M218.74,-63.05C176.85,-50.64 121.75,-34.31 88.69,-24.52"/>
<polygon fill="#63b8ff" stroke="#63b8ff" points="217.96,-66.47 228.55,-65.95 219.95,-59.76 217.96,-66.47"/>
</a>
</g>
</g>
<!-- Node7&#45;&gt;Node6 -->
<g id="edge10_Node000007_Node000006" class="edge">
<title>Node7&#45;&gt;Node6</title>
<g id="a_edge10_Node000007_Node000006"><a xlink:title=" ">
<path fill="none" stroke="#63b8ff" d="M300,-59.2C310.98,-49.7 323.71,-38.69 333.57,-30.16"/>
<polygon fill="#63b8ff" stroke="#63b8ff" points="297.64,-56.61 292.37,-65.8 302.22,-61.9 297.64,-56.61"/>
</a>
</g>
</g>
</g>
</svg>
