<?xml version="1.0" encoding="UTF-8" standalone="no"?>
<!DOCTYPE svg PUBLIC "-//W3C//DTD SVG 1.1//EN"
 "http://www.w3.org/Graphics/SVG/1.1/DTD/svg11.dtd">
<!-- Generated by graphviz version 2.43.0 (0)
 -->
<!-- Title: private.h Pages: 1 -->
<!--zoomable 82 -->

<svg id="main" version="1.1" xmlns="http://www.w3.org/2000/svg" xmlns:xlink="http://www.w3.org/1999/xlink" xml:space="preserve" onload="init(evt)">
<style type="text/css"><![CDATA[
.node, .edge {opacity: 0.7;}
.node.selected, .edge.selected {opacity: 1;}
.edge:hover path { stroke: red; }
.edge:hover polygon { stroke: red; fill: red; }
]]></style>

<defs>
  <circle id="rim" cx="0" cy="0" r="7"/>
  <circle id="rim2" cx="0" cy="0" r="3.5"/>
  <g id="zoomPlus">
    <use xlink:href="#rim" fill="#404040"><set attributeName="fill" to="#808080" begin="zoomplus.mouseover" end="zoomplus.mouseout"/></use>
    <path d="M-4,0h8M0,-4v8" fill="none" stroke="white" stroke-width="1.5" pointer-events="none"/>
  </g>
  <g id="zoomMin">
    <use xlink:href="#rim" fill="#404040"><set attributeName="fill" to="#808080" begin="zoomminus.mouseover" end="zoomminus.mouseout"/></use>
    <path d="M-4,0h8" fill="none" stroke="white" stroke-width="1.5" pointer-events="none"/>
  </g>
  <g id="arrowUp" transform="translate(30 24)">
    <use xlink:href="#rim"/>
    <path pointer-events="none" fill="none" stroke="white" stroke-width="1.5" d="M0,-3.0v7 M-2.5,-0.5L0,-3.0L2.5,-0.5"/>
  </g>
  <g id="arrowRight" transform="rotate(90) translate(36 -43)">
    <use xlink:href="#rim"/>
    <path pointer-events="none" fill="none" stroke="white" stroke-width="1.5" d="M0,-3.0v7 M-2.5,-0.5L0,-3.0L2.5,-0.5"/>
  </g>
  <g id="arrowDown" transform="rotate(180) translate(-30 -48)">
    <use xlink:href="#rim"/>
    <path pointer-events="none" fill="none" stroke="white" stroke-width="1.5" d="M0,-3.0v7 M-2.5,-0.5L0,-3.0L2.5,-0.5"/>
  </g>
  <g id="arrowLeft" transform="rotate(270) translate(-36 17)">
    <use xlink:href="#rim"/>
    <path pointer-events="none" fill="none" stroke="white" stroke-width="1.5" d="M0,-3.0v7 M-2.5,-0.5L0,-3.0L2.5,-0.5"/>
  </g>
  <g id="resetDef">
    <use xlink:href="#rim2" fill="#404040"><set attributeName="fill" to="#808080" begin="reset.mouseover" end="reset.mouseout"/></use>
  </g>
</defs>
<script type="application/ecmascript">
var viewWidth = 949;
var viewHeight = 82;
var sectionId = 'dynsection-1';
</script>
<script type="application/ecmascript" xlink:href="svg.min.js"/>
<svg id="graph" class="graph">
<g id="viewport">
<title>private.h</title>
<!-- Node1 -->
<g id="Node000001" class="node">
<title>Node1</title>
<g id="a_Node000001"><a xlink:title=" ">
<polygon fill="#999999" stroke="#666666" points="510,-74 450,-74 450,-55 510,-55 510,-74"/>
<text text-anchor="middle" x="480" y="-62" font-family="Helvetica,sans-Serif" font-size="10.00">private.h</text>
</a>
</g>
</g>
<!-- Node2 -->
<g id="Node000002" class="node">
<title>Node2</title>
<g id="a_Node000002"><a xlink:href="dviread_8c.html" target="_top" xlink:title=" ">
<polygon fill="white" stroke="#666666" points="62,-19 0,-19 0,0 62,0 62,-19"/>
<text text-anchor="middle" x="31" y="-7" font-family="Helvetica,sans-Serif" font-size="10.00">dviread.c</text>
</a>
</g>
</g>
<!-- Node1&#45;&gt;Node2 -->
<g id="edge1_Node000001_Node000002" class="edge">
<title>Node1&#45;&gt;Node2</title>
<g id="a_edge1_Node000001_Node000002"><a xlink:title=" ">
<path fill="none" stroke="#63b8ff" d="M439.63,-60.47C366.04,-54.64 205.27,-40.51 71,-19 68.2,-18.55 65.29,-18.03 62.39,-17.48"/>
<polygon fill="#63b8ff" stroke="#63b8ff" points="439.6,-63.98 449.84,-61.27 440.15,-57 439.6,-63.98"/>
</a>
</g>
</g>
<!-- Node3 -->
<g id="Node000003" class="node">
<title>Node3</title>
<g id="a_Node000003"><a xlink:href="font_8c.html" target="_top" xlink:title=" ">
<polygon fill="white" stroke="#666666" points="124,-19 80,-19 80,0 124,0 124,-19"/>
<text text-anchor="middle" x="102" y="-7" font-family="Helvetica,sans-Serif" font-size="10.00">font.c</text>
</a>
</g>
</g>
<!-- Node1&#45;&gt;Node3 -->
<g id="edge2_Node000001_Node000003" class="edge">
<title>Node1&#45;&gt;Node3</title>
<g id="a_edge2_Node000001_Node000003"><a xlink:title=" ">
<path fill="none" stroke="#63b8ff" d="M439.36,-60.15C374.25,-54.36 242.73,-40.97 133,-19 130.15,-18.43 127.19,-17.74 124.26,-17.01"/>
<polygon fill="#63b8ff" stroke="#63b8ff" points="439.33,-63.66 449.6,-61.04 439.94,-56.69 439.33,-63.66"/>
</a>
</g>
</g>
<!-- Node4 -->
<g id="Node000004" class="node">
<title>Node4</title>
<g id="a_Node000004"><a xlink:href="fontmap_8c.html" target="_top" xlink:title=" ">
<polygon fill="white" stroke="#666666" points="208,-19 142,-19 142,0 208,0 208,-19"/>
<text text-anchor="middle" x="175" y="-7" font-family="Helvetica,sans-Serif" font-size="10.00">fontmap.c</text>
</a>
</g>
</g>
<!-- Node1&#45;&gt;Node4 -->
<g id="edge3_Node000001_Node000004" class="edge">
<title>Node1&#45;&gt;Node4</title>
<g id="a_edge3_Node000001_Node000004"><a xlink:title=" ">
<path fill="none" stroke="#63b8ff" d="M439.9,-57.12C388.26,-48.82 295.8,-33.64 217,-19 214.22,-18.48 211.34,-17.93 208.45,-17.37"/>
<polygon fill="#63b8ff" stroke="#63b8ff" points="439.54,-60.61 449.97,-58.74 440.65,-53.7 439.54,-60.61"/>
</a>
</g>
</g>
<!-- Node5 -->
<g id="Node000005" class="node">
<title>Node5</title>
<g id="a_Node000005"><a xlink:href="gf_8c.html" target="_top" xlink:title=" ">
<polygon fill="white" stroke="#666666" points="260,-19 226,-19 226,0 260,0 260,-19"/>
<text text-anchor="middle" x="243" y="-7" font-family="Helvetica,sans-Serif" font-size="10.00">gf.c</text>
</a>
</g>
</g>
<!-- Node1&#45;&gt;Node5 -->
<g id="edge4_Node000001_Node000005" class="edge">
<title>Node1&#45;&gt;Node5</title>
<g id="a_edge4_Node000001_Node000005"><a xlink:title=" ">
<path fill="none" stroke="#63b8ff" d="M439.71,-56.35C397.02,-48.45 327.8,-34.76 269,-19 266.16,-18.24 263.16,-17.35 260.26,-16.43"/>
<polygon fill="#63b8ff" stroke="#63b8ff" points="439.24,-59.82 449.71,-58.18 440.5,-52.93 439.24,-59.82"/>
</a>
</g>
</g>
<!-- Node6 -->
<g id="Node000006" class="node">
<title>Node6</title>
<g id="a_Node000006"><a xlink:href="pagesel_8c.html" target="_top" xlink:title=" ">
<polygon fill="white" stroke="#666666" points="341.5,-19 278.5,-19 278.5,0 341.5,0 341.5,-19"/>
<text text-anchor="middle" x="310" y="-7" font-family="Helvetica,sans-Serif" font-size="10.00">pagesel.c</text>
</a>
</g>
</g>
<!-- Node1&#45;&gt;Node6 -->
<g id="edge5_Node000001_Node000006" class="edge">
<title>Node1&#45;&gt;Node6</title>
<g id="a_edge5_Node000001_Node000006"><a xlink:title=" ">
<path fill="none" stroke="#63b8ff" d="M442.88,-51.93C411.13,-42.03 366.15,-28.01 337.53,-19.08"/>
<polygon fill="#63b8ff" stroke="#63b8ff" points="442.1,-55.35 452.69,-54.98 444.18,-48.67 442.1,-55.35"/>
</a>
</g>
</g>
<!-- Node7 -->
<g id="Node000007" class="node">
<title>Node7</title>
<g id="a_Node000007"><a xlink:href="paper_8c.html" target="_top" xlink:title=" ">
<polygon fill="white" stroke="#666666" points="412,-19 360,-19 360,0 412,0 412,-19"/>
<text text-anchor="middle" x="386" y="-7" font-family="Helvetica,sans-Serif" font-size="10.00">paper.c</text>
</a>
</g>
</g>
<!-- Node1&#45;&gt;Node7 -->
<g id="edge6_Node000001_Node000007" class="edge">
<title>Node1&#45;&gt;Node7</title>
<g id="a_edge6_Node000001_Node000007"><a xlink:title=" ">
<path fill="none" stroke="#63b8ff" d="M456,-49.97C438.81,-40.28 416.19,-27.52 401.38,-19.17"/>
<polygon fill="#63b8ff" stroke="#63b8ff" points="454.47,-53.12 464.9,-54.98 457.91,-47.02 454.47,-53.12"/>
</a>
</g>
</g>
<!-- Node8 -->
<g id="Node000008" class="node">
<title>Node8</title>
<g id="a_Node000008"><a xlink:href="pk_8c.html" target="_top" xlink:title=" ">
<polygon fill="white" stroke="#666666" points="467.5,-19 430.5,-19 430.5,0 467.5,0 467.5,-19"/>
<text text-anchor="middle" x="449" y="-7" font-family="Helvetica,sans-Serif" font-size="10.00">pk.c</text>
</a>
</g>
</g>
<!-- Node1&#45;&gt;Node8 -->
<g id="edge7_Node000001_Node000008" class="edge">
<title>Node1&#45;&gt;Node8</title>
<g id="a_edge7_Node000001_Node000008"><a xlink:title=" ">
<path fill="none" stroke="#63b8ff" d="M469.82,-46.1C464.53,-37.04 458.28,-26.37 454.02,-19.09"/>
<polygon fill="#63b8ff" stroke="#63b8ff" points="466.81,-47.88 474.88,-54.75 472.85,-44.35 466.81,-47.88"/>
</a>
</g>
</g>
<!-- Node9 -->
<g id="Node000009" class="node">
<title>Node9</title>
<g id="a_Node000009"><a xlink:href="setup_8c.html" target="_top" xlink:title=" ">
<polygon fill="white" stroke="#666666" points="538,-19 486,-19 486,0 538,0 538,-19"/>
<text text-anchor="middle" x="512" y="-7" font-family="Helvetica,sans-Serif" font-size="10.00">setup.c</text>
</a>
</g>
</g>
<!-- Node1&#45;&gt;Node9 -->
<g id="edge8_Node000001_Node000009" class="edge">
<title>Node1&#45;&gt;Node9</title>
<g id="a_edge8_Node000001_Node000009"><a xlink:title=" ">
<path fill="none" stroke="#63b8ff" d="M490.5,-46.1C495.97,-37.04 502.42,-26.37 506.81,-19.09"/>
<polygon fill="#63b8ff" stroke="#63b8ff" points="487.46,-44.38 485.28,-54.75 493.45,-48 487.46,-44.38"/>
</a>
</g>
</g>
<!-- Node10 -->
<g id="Node000010" class="node">
<title>Node10</title>
<g id="a_Node000010"><a xlink:href="sp-epsf_8c.html" target="_top" xlink:title=" ">
<polygon fill="white" stroke="#666666" points="616,-19 556,-19 556,0 616,0 616,-19"/>
<text text-anchor="middle" x="586" y="-7" font-family="Helvetica,sans-Serif" font-size="10.00">sp&#45;epsf.c</text>
</a>
</g>
</g>
<!-- Node1&#45;&gt;Node10 -->
<g id="edge9_Node000001_Node000010" class="edge">
<title>Node1&#45;&gt;Node10</title>
<g id="a_edge9_Node000001_Node000010"><a xlink:title=" ">
<path fill="none" stroke="#63b8ff" d="M506,-50.5C525.5,-40.75 551.65,-27.68 568.66,-19.17"/>
<polygon fill="#63b8ff" stroke="#63b8ff" points="504.41,-47.38 497.03,-54.98 507.54,-53.64 504.41,-47.38"/>
</a>
</g>
</g>
<!-- Node11 -->
<g id="Node000011" class="node">
<title>Node11</title>
<g id="a_Node000011"><a xlink:href="special_8c.html" target="_top" xlink:title=" ">
<polygon fill="white" stroke="#666666" points="693.5,-19 634.5,-19 634.5,0 693.5,0 693.5,-19"/>
<text text-anchor="middle" x="664" y="-7" font-family="Helvetica,sans-Serif" font-size="10.00">special.c</text>
</a>
</g>
</g>
<!-- Node1&#45;&gt;Node11 -->
<g id="edge10_Node000001_Node000011" class="edge">
<title>Node1&#45;&gt;Node11</title>
<g id="a_edge10_Node000001_Node000011"><a xlink:title=" ">
<path fill="none" stroke="#63b8ff" d="M519.29,-52.18C553.7,-42.27 602.96,-28.08 634.21,-19.08"/>
<polygon fill="#63b8ff" stroke="#63b8ff" points="518.2,-48.85 509.56,-54.98 520.14,-55.58 518.2,-48.85"/>
</a>
</g>
</g>
<!-- Node12 -->
<g id="Node000012" class="node">
<title>Node12</title>
<g id="a_Node000012"><a xlink:href="tfm_8c.html" target="_top" xlink:title=" ">
<polygon fill="white" stroke="#666666" points="754,-19 712,-19 712,0 754,0 754,-19"/>
<text text-anchor="middle" x="733" y="-7" font-family="Helvetica,sans-Serif" font-size="10.00">tfm.c</text>
</a>
</g>
</g>
<!-- Node1&#45;&gt;Node12 -->
<g id="edge11_Node000001_Node000012" class="edge">
<title>Node1&#45;&gt;Node12</title>
<g id="a_edge11_Node000001_Node000012"><a xlink:title=" ">
<path fill="none" stroke="#63b8ff" d="M520.01,-56.5C564.8,-48.44 639.44,-34.32 703,-19 705.84,-18.31 708.82,-17.54 711.75,-16.75"/>
<polygon fill="#63b8ff" stroke="#63b8ff" points="519.33,-53.07 510.1,-58.27 520.56,-59.96 519.33,-53.07"/>
</a>
</g>
</g>
<!-- Node13 -->
<g id="Node000013" class="node">
<title>Node13</title>
<g id="a_Node000013"><a xlink:href="tfmfile_8c.html" target="_top" xlink:title=" ">
<polygon fill="white" stroke="#666666" points="829.5,-19 772.5,-19 772.5,0 829.5,0 829.5,-19"/>
<text text-anchor="middle" x="801" y="-7" font-family="Helvetica,sans-Serif" font-size="10.00">tfmfile.c</text>
</a>
</g>
</g>
<!-- Node1&#45;&gt;Node13 -->
<g id="edge12_Node000001_Node000013" class="edge">
<title>Node1&#45;&gt;Node13</title>
<g id="a_edge12_Node000001_Node000013"><a xlink:title=" ">
<path fill="none" stroke="#63b8ff" d="M520.31,-57.99C575.32,-50.28 676.94,-35.37 763,-19 766.05,-18.42 769.24,-17.77 772.41,-17.1"/>
<polygon fill="#63b8ff" stroke="#63b8ff" points="519.69,-54.54 510.27,-59.39 520.65,-61.48 519.69,-54.54"/>
</a>
</g>
</g>
<!-- Node14 -->
<g id="Node000014" class="node">
<title>Node14</title>
<g id="a_Node000014"><a xlink:href="atril_2backend_2dvi_2mdvi-lib_2util_8c.html" target="_top" xlink:title=" ">
<polygon fill="white" stroke="#666666" points="888.5,-19 847.5,-19 847.5,0 888.5,0 888.5,-19"/>
<text text-anchor="middle" x="868" y="-7" font-family="Helvetica,sans-Serif" font-size="10.00">util.c</text>
</a>
</g>
</g>
<!-- Node1&#45;&gt;Node14 -->
<g id="edge13_Node000001_Node000014" class="edge">
<title>Node1&#45;&gt;Node14</title>
<g id="a_edge13_Node000001_Node000014"><a xlink:title=" ">
<path fill="none" stroke="#63b8ff" d="M520.14,-60.66C586.86,-55.45 724.58,-42.7 839,-19 841.67,-18.45 844.45,-17.77 847.19,-17.04"/>
<polygon fill="#63b8ff" stroke="#63b8ff" points="519.76,-57.17 510.05,-61.43 520.29,-64.15 519.76,-57.17"/>
</a>
</g>
</g>
<!-- Node15 -->
<g id="Node000015" class="node">
<title>Node15</title>
<g id="a_Node000015"><a xlink:href="vf_8c.html" target="_top" xlink:title=" ">
<polygon fill="white" stroke="#666666" points="941,-19 907,-19 907,0 941,0 941,-19"/>
<text text-anchor="middle" x="924" y="-7" font-family="Helvetica,sans-Serif" font-size="10.00">vf.c</text>
</a>
</g>
</g>
<!-- Node1&#45;&gt;Node15 -->
<g id="edge14_Node000001_Node000015" class="edge">
<title>Node1&#45;&gt;Node15</title>
<g id="a_edge14_Node000001_Node000015"><a xlink:title=" ">
<path fill="none" stroke="#63b8ff" d="M520.68,-62C595.93,-58.61 761.63,-48.21 898,-19 900.88,-18.38 903.89,-17.57 906.8,-16.68"/>
<polygon fill="#63b8ff" stroke="#63b8ff" points="520.09,-58.52 510.25,-62.45 520.39,-65.52 520.09,-58.52"/>
</a>
</g>
</g>
</g>
</svg>

<g id="navigator" transform="translate(0 0)" fill="#404254">
  <rect fill="#f2f5e9" fill-opacity="0.5" stroke="#606060" stroke-width=".5" x="0" y="0" width="60" height="60"/>
  <use id="zoomplus" xlink:href="#zoomPlus" x="17" y="9" onmousedown="handleZoom(evt,'in')"/>
  <use id="zoomminus" xlink:href="#zoomMin" x="42" y="9" onmousedown="handleZoom(evt,'out')"/>
  <use id="reset" xlink:href="#resetDef" x="30" y="36" onmousedown="handleReset()"/>
   <use id="arrowup" xlink:href="#arrowUp" x="0" y="0" onmousedown="handlePan(0,-1)"/>
  <use id="arrowright" xlink:href="#arrowRight" x="0" y="0" onmousedown="handlePan(1,0)"/>
  <use id="arrowdown" xlink:href="#arrowDown" x="0" y="0" onmousedown="handlePan(0,1)"/>
  <use id="arrowleft" xlink:href="#arrowLeft" x="0" y="0" onmousedown="handlePan(-1,0)"/>
</g>
<svg viewBox="0 0 15 15" width="100%" height="30px" preserveAspectRatio="xMaxYMin meet">
 <g id="arrow_out" transform="scale(0.3 0.3)">
  <a xlink:href="atril_2backend_2dvi_2mdvi-lib_2private_8h__dep__incl_org.svg" target="_base">
   <rect id="button" ry="5" rx="5" y="6" x="6" height="38" width="38"
        fill="#f2f5e9" fill-opacity="0.5" stroke="#606060" stroke-width="1.0"/>
   <path id="arrow"
     d="M 11.500037,31.436501 C 11.940474,20.09759 22.043105,11.32322 32.158766,21.979434 L 37.068811,17.246167 C 37.068811,17.246167 37.088388,32 37.088388,32 L 22.160133,31.978069 C 22.160133,31.978069 26.997745,27.140456 26.997745,27.140456 C 18.528582,18.264221 13.291696,25.230495 11.500037,31.436501 z"
     style="fill:#404040;"/>
  </a>
 </g>
</svg>

<style type='text/css'>
<![CDATA[
[data-mouse-over-selected='false'] { opacity: 0.7; }
[data-mouse-over-selected='true']  { opacity: 1.0; }
]]>
</style>
<script type="application/ecmascript"><![CDATA[
document.addEventListener('DOMContentLoaded', (event) => {
  highlightEdges();
  highlightAdjacentNodes();
});
]]></script>
</svg>
