<?xml version="1.0" encoding="UTF-8" standalone="no"?>
<!DOCTYPE svg PUBLIC "-//W3C//DTD SVG 1.1//EN"
 "http://www.w3.org/Graphics/SVG/1.1/DTD/svg11.dtd">
<!-- Generated by graphviz version 2.43.0 (0)
 -->
<!-- Title: baobab&#45;prefs.c Pages: 1 -->
<svg width="866pt" height="192pt"
 viewBox="0.00 0.00 865.50 192.00" xmlns="http://www.w3.org/2000/svg" xmlns:xlink="http://www.w3.org/1999/xlink">
<g id="graph0" class="graph" transform="scale(1 1) rotate(0) translate(4 188)">
<title>baobab&#45;prefs.c</title>
<!-- Node1 -->
<g id="Node000001" class="node">
<title>Node1</title>
<g id="a_Node000001"><a xlink:title=" ">
<polygon fill="#999999" stroke="#666666" points="422,-184 333,-184 333,-165 422,-165 422,-184"/>
<text text-anchor="middle" x="377.5" y="-172" font-family="Helvetica,sans-Serif" font-size="10.00">baobab&#45;prefs.c</text>
</a>
</g>
</g>
<!-- Node2 -->
<g id="Node000002" class="node">
<title>Node2</title>
<g id="a_Node000002"><a xlink:title=" ">
<polygon fill="#e0e0e0" stroke="#999999" points="53,-129 0,-129 0,-110 53,-110 53,-129"/>
<text text-anchor="middle" x="26.5" y="-117" font-family="Helvetica,sans-Serif" font-size="10.00">string.h</text>
</a>
</g>
</g>
<!-- Node1&#45;&gt;Node2 -->
<g id="edge1_Node000001_Node000002" class="edge">
<title>Node1&#45;&gt;Node2</title>
<g id="a_edge1_Node000001_Node000002"><a xlink:title=" ">
<path fill="none" stroke="#63b8ff" d="M332.95,-168.51C273.65,-161.58 165.34,-147.93 63.06,-128.94"/>
<polygon fill="#63b8ff" stroke="#63b8ff" points="63.65,-125.49 53.18,-127.09 62.36,-132.37 63.65,-125.49"/>
</a>
</g>
</g>
<!-- Node3 -->
<g id="Node000003" class="node">
<title>Node3</title>
<g id="a_Node000003"><a xlink:title=" ">
<polygon fill="#e0e0e0" stroke="#999999" points="135.5,-129 71.5,-129 71.5,-110 135.5,-110 135.5,-129"/>
<text text-anchor="middle" x="103.5" y="-117" font-family="Helvetica,sans-Serif" font-size="10.00">sys/stat.h</text>
</a>
</g>
</g>
<!-- Node1&#45;&gt;Node3 -->
<g id="edge2_Node000001_Node000003" class="edge">
<title>Node1&#45;&gt;Node3</title>
<g id="a_edge2_Node000001_Node000003"><a xlink:title=" ">
<path fill="none" stroke="#63b8ff" d="M333.48,-164.98C281.82,-154.99 196.77,-138.54 145.85,-128.69"/>
<polygon fill="#63b8ff" stroke="#63b8ff" points="146.31,-125.22 135.83,-126.75 144.99,-132.09 146.31,-125.22"/>
</a>
</g>
</g>
<!-- Node4 -->
<g id="Node000004" class="node">
<title>Node4</title>
<g id="a_Node000004"><a xlink:title=" ">
<polygon fill="#e0e0e0" stroke="#999999" points="316.5,-19 256.5,-19 256.5,0 316.5,0 316.5,-19"/>
<text text-anchor="middle" x="286.5" y="-7" font-family="Helvetica,sans-Serif" font-size="10.00">gtk/gtk.h</text>
</a>
</g>
</g>
<!-- Node1&#45;&gt;Node4 -->
<g id="edge3_Node000001_Node000004" class="edge">
<title>Node1&#45;&gt;Node4</title>
<g id="a_edge3_Node000001_Node000004"><a xlink:title=" ">
<path fill="none" stroke="#63b8ff" d="M332.95,-169.67C281.33,-164.2 200.96,-152.14 182.5,-129 150.98,-89.48 219.07,-45.3 259.45,-23.76"/>
<polygon fill="#63b8ff" stroke="#63b8ff" points="261.3,-26.74 268.56,-19.03 258.08,-20.53 261.3,-26.74"/>
</a>
</g>
</g>
<!-- Node5 -->
<g id="Node000005" class="node">
<title>Node5</title>
<g id="a_Node000005"><a xlink:title=" ">
<polygon fill="#e0e0e0" stroke="#999999" points="265.5,-129 191.5,-129 191.5,-110 265.5,-110 265.5,-129"/>
<text text-anchor="middle" x="228.5" y="-117" font-family="Helvetica,sans-Serif" font-size="10.00">glib/gi18n.h</text>
</a>
</g>
</g>
<!-- Node1&#45;&gt;Node5 -->
<g id="edge4_Node000001_Node000005" class="edge">
<title>Node1&#45;&gt;Node5</title>
<g id="a_edge4_Node000001_Node000005"><a xlink:title=" ">
<path fill="none" stroke="#63b8ff" d="M353.56,-164.98C328.94,-156.23 290.38,-142.51 262.58,-132.62"/>
<polygon fill="#63b8ff" stroke="#63b8ff" points="263.47,-129.22 252.88,-129.17 261.12,-135.82 263.47,-129.22"/>
</a>
</g>
</g>
<!-- Node6 -->
<g id="Node000006" class="node">
<title>Node6</title>
<g id="a_Node000006"><a xlink:title=" ">
<polygon fill="#e0e0e0" stroke="#999999" points="361,-129 284,-129 284,-110 361,-110 361,-129"/>
<text text-anchor="middle" x="322.5" y="-117" font-family="Helvetica,sans-Serif" font-size="10.00">glib/gstdio.h</text>
</a>
</g>
</g>
<!-- Node1&#45;&gt;Node6 -->
<g id="edge5_Node000001_Node000006" class="edge">
<title>Node1&#45;&gt;Node6</title>
<g id="a_edge5_Node000001_Node000006"><a xlink:title=" ">
<path fill="none" stroke="#63b8ff" d="M368.42,-164.75C360.41,-157.03 348.54,-145.6 338.88,-136.28"/>
<polygon fill="#63b8ff" stroke="#63b8ff" points="341.04,-133.51 331.41,-129.09 336.19,-138.55 341.04,-133.51"/>
</a>
</g>
</g>
<!-- Node7 -->
<g id="Node000007" class="node">
<title>Node7</title>
<g id="a_Node000007"><a xlink:title=" ">
<polygon fill="#e0e0e0" stroke="#999999" points="488,-129 379,-129 379,-110 488,-110 488,-129"/>
<text text-anchor="middle" x="433.5" y="-117" font-family="Helvetica,sans-Serif" font-size="10.00">glibtop/mountlist.h</text>
</a>
</g>
</g>
<!-- Node1&#45;&gt;Node7 -->
<g id="edge6_Node000001_Node000007" class="edge">
<title>Node1&#45;&gt;Node7</title>
<g id="a_edge6_Node000001_Node000007"><a xlink:title=" ">
<path fill="none" stroke="#63b8ff" d="M386.5,-164.98C394.69,-157.23 407.01,-145.58 416.97,-136.14"/>
<polygon fill="#63b8ff" stroke="#63b8ff" points="419.48,-138.59 424.34,-129.17 414.67,-133.5 419.48,-138.59"/>
</a>
</g>
</g>
<!-- Node8 -->
<g id="Node000008" class="node">
<title>Node8</title>
<g id="a_Node000008"><a xlink:title=" ">
<polygon fill="#e0e0e0" stroke="#999999" points="607,-129 506,-129 506,-110 607,-110 607,-129"/>
<text text-anchor="middle" x="556.5" y="-117" font-family="Helvetica,sans-Serif" font-size="10.00">glibtop/fsusage.h</text>
</a>
</g>
</g>
<!-- Node1&#45;&gt;Node8 -->
<g id="edge7_Node000001_Node000008" class="edge">
<title>Node1&#45;&gt;Node8</title>
<g id="a_edge7_Node000001_Node000008"><a xlink:title=" ">
<path fill="none" stroke="#63b8ff" d="M406.26,-164.98C436.44,-156.05 484.07,-141.94 517.6,-132.02"/>
<polygon fill="#63b8ff" stroke="#63b8ff" points="518.92,-135.28 527.52,-129.08 516.93,-128.57 518.92,-135.28"/>
</a>
</g>
</g>
<!-- Node9 -->
<g id="Node000009" class="node">
<title>Node9</title>
<g id="a_Node000009"><a xlink:href="baobab_8h.html" target="_top" xlink:title=" ">
<polygon fill="white" stroke="#666666" points="666.5,-74 604.5,-74 604.5,-55 666.5,-55 666.5,-74"/>
<text text-anchor="middle" x="635.5" y="-62" font-family="Helvetica,sans-Serif" font-size="10.00">baobab.h</text>
</a>
</g>
</g>
<!-- Node1&#45;&gt;Node9 -->
<g id="edge8_Node000001_Node000009" class="edge">
<title>Node1&#45;&gt;Node9</title>
<g id="a_edge8_Node000001_Node000009"><a xlink:title=" ">
<path fill="none" stroke="#63b8ff" d="M422.01,-170.58C482.79,-165.7 587.43,-153.89 615.5,-129 628.06,-117.87 632.8,-98.94 634.56,-84.64"/>
<polygon fill="#63b8ff" stroke="#63b8ff" points="638.07,-84.65 635.42,-74.4 631.1,-84.07 638.07,-84.65"/>
</a>
</g>
</g>
<!-- Node14 -->
<g id="Node000014" class="node">
<title>Node14</title>
<g id="a_Node000014"><a xlink:href="baobab-utils_8h.html" target="_top" xlink:title=" ">
<polygon fill="white" stroke="#666666" points="749.5,-129 663.5,-129 663.5,-110 749.5,-110 749.5,-129"/>
<text text-anchor="middle" x="706.5" y="-117" font-family="Helvetica,sans-Serif" font-size="10.00">baobab&#45;utils.h</text>
</a>
</g>
</g>
<!-- Node1&#45;&gt;Node14 -->
<g id="edge14_Node000001_Node000014" class="edge">
<title>Node1&#45;&gt;Node14</title>
<g id="a_edge14_Node000001_Node000014"><a xlink:title=" ">
<path fill="none" stroke="#63b8ff" d="M422.21,-166.3C482.42,-156.6 589.37,-139.37 653.54,-129.03"/>
<polygon fill="#63b8ff" stroke="#63b8ff" points="654.14,-132.48 663.45,-127.43 653.02,-125.57 654.14,-132.48"/>
</a>
</g>
</g>
<!-- Node15 -->
<g id="Node000015" class="node">
<title>Node15</title>
<g id="a_Node000015"><a xlink:href="baobab-prefs_8h.html" target="_top" xlink:title=" ">
<polygon fill="white" stroke="#666666" points="857.5,-129 767.5,-129 767.5,-110 857.5,-110 857.5,-129"/>
<text text-anchor="middle" x="812.5" y="-117" font-family="Helvetica,sans-Serif" font-size="10.00">baobab&#45;prefs.h</text>
</a>
</g>
</g>
<!-- Node1&#45;&gt;Node15 -->
<g id="edge16_Node000001_Node000015" class="edge">
<title>Node1&#45;&gt;Node15</title>
<g id="a_edge16_Node000001_Node000015"><a xlink:title=" ">
<path fill="none" stroke="#63b8ff" d="M422.15,-168.87C491.58,-161.54 629.85,-146.43 757.49,-129.09"/>
<polygon fill="#63b8ff" stroke="#63b8ff" points="758,-132.55 767.44,-127.73 757.06,-125.62 758,-132.55"/>
</a>
</g>
</g>
<!-- Node9&#45;&gt;Node4 -->
<g id="edge12_Node000009_Node000004" class="edge">
<title>Node9&#45;&gt;Node4</title>
<g id="a_edge12_Node000009_Node000004"><a xlink:title=" ">
<path fill="none" stroke="#63b8ff" d="M604.22,-58.75C540.88,-49.13 397.51,-27.36 327.08,-16.66"/>
<polygon fill="#63b8ff" stroke="#63b8ff" points="327.25,-13.15 316.84,-15.11 326.2,-20.07 327.25,-13.15"/>
</a>
</g>
</g>
<!-- Node10 -->
<g id="Node000010" class="node">
<title>Node10</title>
<g id="a_Node000010"><a xlink:title=" ">
<polygon fill="#e0e0e0" stroke="#999999" points="543.5,-19 495.5,-19 495.5,0 543.5,0 543.5,-19"/>
<text text-anchor="middle" x="519.5" y="-7" font-family="Helvetica,sans-Serif" font-size="10.00">time.h</text>
</a>
</g>
</g>
<!-- Node9&#45;&gt;Node10 -->
<g id="edge9_Node000009_Node000010" class="edge">
<title>Node9&#45;&gt;Node10</title>
<g id="a_edge9_Node000009_Node000010"><a xlink:title=" ">
<path fill="none" stroke="#63b8ff" d="M616.86,-54.98C598.2,-46.46 569.25,-33.23 547.76,-23.41"/>
<polygon fill="#63b8ff" stroke="#63b8ff" points="549.03,-20.14 538.48,-19.17 546.12,-26.51 549.03,-20.14"/>
</a>
</g>
</g>
<!-- Node11 -->
<g id="Node000011" class="node">
<title>Node11</title>
<g id="a_Node000011"><a xlink:title=" ">
<polygon fill="#e0e0e0" stroke="#999999" points="633.5,-19 561.5,-19 561.5,0 633.5,0 633.5,-19"/>
<text text-anchor="middle" x="597.5" y="-7" font-family="Helvetica,sans-Serif" font-size="10.00">sys/types.h</text>
</a>
</g>
</g>
<!-- Node9&#45;&gt;Node11 -->
<g id="edge10_Node000009_Node000011" class="edge">
<title>Node9&#45;&gt;Node11</title>
<g id="a_edge10_Node000009_Node000011"><a xlink:title=" ">
<path fill="none" stroke="#63b8ff" d="M629.23,-54.75C623.91,-47.34 616.14,-36.5 609.62,-27.41"/>
<polygon fill="#63b8ff" stroke="#63b8ff" points="612.33,-25.18 603.66,-19.09 606.64,-29.26 612.33,-25.18"/>
</a>
</g>
</g>
<!-- Node12 -->
<g id="Node000012" class="node">
<title>Node12</title>
<g id="a_Node000012"><a xlink:title=" ">
<polygon fill="#e0e0e0" stroke="#999999" points="695.5,-19 651.5,-19 651.5,0 695.5,0 695.5,-19"/>
<text text-anchor="middle" x="673.5" y="-7" font-family="Helvetica,sans-Serif" font-size="10.00">glib.h</text>
</a>
</g>
</g>
<!-- Node9&#45;&gt;Node12 -->
<g id="edge11_Node000009_Node000012" class="edge">
<title>Node9&#45;&gt;Node12</title>
<g id="a_edge11_Node000009_Node000012"><a xlink:title=" ">
<path fill="none" stroke="#63b8ff" d="M641.77,-54.75C647.09,-47.34 654.86,-36.5 661.38,-27.41"/>
<polygon fill="#63b8ff" stroke="#63b8ff" points="664.36,-29.26 667.34,-19.09 658.67,-25.18 664.36,-29.26"/>
</a>
</g>
</g>
<!-- Node13 -->
<g id="Node000013" class="node">
<title>Node13</title>
<g id="a_Node000013"><a xlink:title=" ">
<polygon fill="#e0e0e0" stroke="#999999" points="773,-19 714,-19 714,0 773,0 773,-19"/>
<text text-anchor="middle" x="743.5" y="-7" font-family="Helvetica,sans-Serif" font-size="10.00">gio/gio.h</text>
</a>
</g>
</g>
<!-- Node9&#45;&gt;Node13 -->
<g id="edge13_Node000009_Node000013" class="edge">
<title>Node9&#45;&gt;Node13</title>
<g id="a_edge13_Node000009_Node000013"><a xlink:title=" ">
<path fill="none" stroke="#63b8ff" d="M652.85,-54.98C670.07,-46.54 696.7,-33.47 716.65,-23.68"/>
<polygon fill="#63b8ff" stroke="#63b8ff" points="718.4,-26.72 725.83,-19.17 715.31,-20.43 718.4,-26.72"/>
</a>
</g>
</g>
<!-- Node14&#45;&gt;Node9 -->
<g id="edge15_Node000014_Node000009" class="edge">
<title>Node14&#45;&gt;Node9</title>
<g id="a_edge15_Node000014_Node000009"><a xlink:title=" ">
<path fill="none" stroke="#63b8ff" d="M695.09,-109.98C684.39,-102 668.16,-89.88 655.34,-80.31"/>
<polygon fill="#63b8ff" stroke="#63b8ff" points="657.22,-77.35 647.11,-74.17 653.03,-82.96 657.22,-77.35"/>
</a>
</g>
</g>
</g>
</svg>
