<?xml version="1.0" encoding="UTF-8" standalone="no"?>
<!DOCTYPE svg PUBLIC "-//W3C//DTD SVG 1.1//EN"
 "http://www.w3.org/Graphics/SVG/1.1/DTD/svg11.dtd">
<!-- Generated by graphviz version 2.43.0 (0)
 -->
<!-- Title: baobab.c Pages: 1 -->
<svg width="1013pt" height="203pt"
 viewBox="0.00 0.00 1012.75 203.00" xmlns="http://www.w3.org/2000/svg" xmlns:xlink="http://www.w3.org/1999/xlink">
<g id="graph0" class="graph" transform="scale(1 1) rotate(0) translate(4 199)">
<title>baobab.c</title>
<!-- Node1 -->
<g id="Node000001" class="node">
<title>Node1</title>
<g id="a_Node000001"><a xlink:title=" ">
<polygon fill="#999999" stroke="#666666" points="456.75,-195 395.75,-195 395.75,-176 456.75,-176 456.75,-195"/>
<text text-anchor="middle" x="426.25" y="-183" font-family="Helvetica,sans-Serif" font-size="10.00">baobab.c</text>
</a>
</g>
</g>
<!-- Node2 -->
<g id="Node000002" class="node">
<title>Node2</title>
<g id="a_Node000002"><a xlink:title=" ">
<polygon fill="#e0e0e0" stroke="#999999" points="657.25,-19 597.25,-19 597.25,0 657.25,0 657.25,-19"/>
<text text-anchor="middle" x="627.25" y="-7" font-family="Helvetica,sans-Serif" font-size="10.00">gtk/gtk.h</text>
</a>
</g>
</g>
<!-- Node1&#45;&gt;Node2 -->
<g id="edge1_Node000001_Node000002" class="edge">
<title>Node1&#45;&gt;Node2</title>
<g id="a_edge1_Node000001_Node000002"><a xlink:title=" ">
<path fill="none" stroke="#63b8ff" d="M457.09,-184.42C523.24,-183.53 675.33,-177.37 707.25,-140 739.39,-102.37 681.7,-50.5 648.41,-25.36"/>
<polygon fill="#63b8ff" stroke="#63b8ff" points="650.28,-22.39 640.15,-19.28 646.13,-28.03 650.28,-22.39"/>
</a>
</g>
</g>
<!-- Node3 -->
<g id="Node000003" class="node">
<title>Node3</title>
<g id="a_Node000003"><a xlink:title=" ">
<polygon fill="#e0e0e0" stroke="#999999" points="93.25,-140 19.25,-140 19.25,-121 93.25,-121 93.25,-140"/>
<text text-anchor="middle" x="56.25" y="-128" font-family="Helvetica,sans-Serif" font-size="10.00">glib/gi18n.h</text>
</a>
</g>
</g>
<!-- Node1&#45;&gt;Node3 -->
<g id="edge2_Node000001_Node000003" class="edge">
<title>Node1&#45;&gt;Node3</title>
<g id="a_edge2_Node000001_Node000003"><a xlink:title=" ">
<path fill="none" stroke="#63b8ff" d="M395.42,-180.48C338.44,-172.98 212.83,-156.16 107.25,-140 105.98,-139.81 104.69,-139.61 103.39,-139.4"/>
<polygon fill="#63b8ff" stroke="#63b8ff" points="103.71,-135.91 93.28,-137.79 102.6,-142.82 103.71,-135.91"/>
</a>
</g>
</g>
<!-- Node4 -->
<g id="Node000004" class="node">
<title>Node4</title>
<g id="a_Node000004"><a xlink:title=" ">
<polygon fill="#e0e0e0" stroke="#999999" points="150.75,-19 91.75,-19 91.75,0 150.75,0 150.75,-19"/>
<text text-anchor="middle" x="121.25" y="-7" font-family="Helvetica,sans-Serif" font-size="10.00">gio/gio.h</text>
</a>
</g>
</g>
<!-- Node1&#45;&gt;Node4 -->
<g id="edge3_Node000001_Node000004" class="edge">
<title>Node1&#45;&gt;Node4</title>
<g id="a_edge3_Node000001_Node000004"><a xlink:title=" ">
<path fill="none" stroke="#63b8ff" d="M395.57,-183.53C303.75,-180.33 35.95,-168.6 10.25,-140 -27.18,-98.35 51.27,-47.56 94.82,-23.87"/>
<polygon fill="#63b8ff" stroke="#63b8ff" points="96.59,-26.89 103.78,-19.1 93.31,-20.71 96.59,-26.89"/>
</a>
</g>
</g>
<!-- Node5 -->
<g id="Node000005" class="node">
<title>Node5</title>
<g id="a_Node000005"><a xlink:title=" ">
<polygon fill="#e0e0e0" stroke="#999999" points="208.75,-140 149.75,-140 149.75,-121 208.75,-121 208.75,-140"/>
<text text-anchor="middle" x="179.25" y="-128" font-family="Helvetica,sans-Serif" font-size="10.00">glibtop.h</text>
</a>
</g>
</g>
<!-- Node1&#45;&gt;Node5 -->
<g id="edge4_Node000001_Node000005" class="edge">
<title>Node1&#45;&gt;Node5</title>
<g id="a_edge4_Node000001_Node000005"><a xlink:title=" ">
<path fill="none" stroke="#63b8ff" d="M395.58,-177.98C356.9,-169.74 288.08,-155.06 219.22,-140.2"/>
<polygon fill="#63b8ff" stroke="#63b8ff" points="219.57,-136.7 209.06,-138.01 218.1,-143.54 219.57,-136.7"/>
</a>
</g>
</g>
<!-- Node6 -->
<g id="Node000006" class="node">
<title>Node6</title>
<g id="a_Node000006"><a xlink:href="mate-image-menu-item_8h.html" target="_top" xlink:title=" ">
<polygon fill="white" stroke="#666666" points="879.75,-85 754.75,-85 754.75,-55 879.75,-55 879.75,-85"/>
<text text-anchor="start" x="762.75" y="-73" font-family="Helvetica,sans-Serif" font-size="10.00">libmate&#45;desktop/mate</text>
<text text-anchor="middle" x="817.25" y="-62" font-family="Helvetica,sans-Serif" font-size="10.00">&#45;image&#45;menu&#45;item.h</text>
</a>
</g>
</g>
<!-- Node1&#45;&gt;Node6 -->
<g id="edge5_Node000001_Node000006" class="edge">
<title>Node1&#45;&gt;Node6</title>
<g id="a_edge5_Node000001_Node000006"><a xlink:title=" ">
<path fill="none" stroke="#63b8ff" d="M456.75,-183.63C550.03,-180.66 826.74,-169.41 853.25,-140 865.69,-126.2 854.38,-107.31 841.24,-92.79"/>
<polygon fill="#63b8ff" stroke="#63b8ff" points="843.37,-89.96 833.89,-85.22 838.35,-94.84 843.37,-89.96"/>
</a>
</g>
</g>
<!-- Node7 -->
<g id="Node000007" class="node">
<title>Node7</title>
<g id="a_Node000007"><a xlink:href="baobab_8h.html" target="_top" xlink:title=" ">
<polygon fill="white" stroke="#666666" points="336.25,-79.5 274.25,-79.5 274.25,-60.5 336.25,-60.5 336.25,-79.5"/>
<text text-anchor="middle" x="305.25" y="-67.5" font-family="Helvetica,sans-Serif" font-size="10.00">baobab.h</text>
</a>
</g>
</g>
<!-- Node1&#45;&gt;Node7 -->
<g id="edge7_Node000001_Node000007" class="edge">
<title>Node1&#45;&gt;Node7</title>
<g id="a_edge7_Node000001_Node000007"><a xlink:title=" ">
<path fill="none" stroke="#63b8ff" d="M410.89,-175.97C396.87,-167.78 375.99,-154.53 360.25,-140 343.26,-124.31 327.19,-103.14 316.86,-88.4"/>
<polygon fill="#63b8ff" stroke="#63b8ff" points="319.48,-86.04 310.94,-79.77 313.71,-89.99 319.48,-86.04"/>
</a>
</g>
</g>
<!-- Node11 -->
<g id="Node000011" class="node">
<title>Node11</title>
<g id="a_Node000011"><a xlink:href="baobab-scan_8h.html" target="_top" xlink:title=" ">
<polygon fill="white" stroke="#666666" points="165.25,-79.5 77.25,-79.5 77.25,-60.5 165.25,-60.5 165.25,-79.5"/>
<text text-anchor="middle" x="121.25" y="-67.5" font-family="Helvetica,sans-Serif" font-size="10.00">baobab&#45;scan.h</text>
</a>
</g>
</g>
<!-- Node1&#45;&gt;Node11 -->
<g id="edge13_Node000001_Node000011" class="edge">
<title>Node1&#45;&gt;Node11</title>
<g id="a_edge13_Node000001_Node000011"><a xlink:title=" ">
<path fill="none" stroke="#63b8ff" d="M395.58,-183.81C329.69,-181.71 177.57,-173.28 140.25,-140 126.22,-127.49 122.14,-105.67 121.15,-89.91"/>
<polygon fill="#63b8ff" stroke="#63b8ff" points="124.64,-89.63 120.87,-79.73 117.64,-89.82 124.64,-89.63"/>
</a>
</g>
</g>
<!-- Node12 -->
<g id="Node000012" class="node">
<title>Node12</title>
<g id="a_Node000012"><a xlink:href="baobab-treeview_8h.html" target="_top" xlink:title=" ">
<polygon fill="white" stroke="#666666" points="1004.75,-79.5 897.75,-79.5 897.75,-60.5 1004.75,-60.5 1004.75,-79.5"/>
<text text-anchor="middle" x="951.25" y="-67.5" font-family="Helvetica,sans-Serif" font-size="10.00">baobab&#45;treeview.h</text>
</a>
</g>
</g>
<!-- Node1&#45;&gt;Node12 -->
<g id="edge15_Node000001_Node000012" class="edge">
<title>Node1&#45;&gt;Node12</title>
<g id="a_edge15_Node000001_Node000012"><a xlink:title=" ">
<path fill="none" stroke="#63b8ff" d="M456.78,-183.77C544.28,-181.3 794.49,-171.59 869.25,-140 896.98,-128.28 922.41,-103.81 937.38,-87.39"/>
<polygon fill="#63b8ff" stroke="#63b8ff" points="940.22,-89.47 944.2,-79.65 934.97,-84.84 940.22,-89.47"/>
</a>
</g>
</g>
<!-- Node13 -->
<g id="Node000013" class="node">
<title>Node13</title>
<g id="a_Node000013"><a xlink:href="baobab-utils_8h.html" target="_top" xlink:title=" ">
<polygon fill="white" stroke="#666666" points="313.25,-140 227.25,-140 227.25,-121 313.25,-121 313.25,-140"/>
<text text-anchor="middle" x="270.25" y="-128" font-family="Helvetica,sans-Serif" font-size="10.00">baobab&#45;utils.h</text>
</a>
</g>
</g>
<!-- Node1&#45;&gt;Node13 -->
<g id="edge17_Node000001_Node000013" class="edge">
<title>Node1&#45;&gt;Node13</title>
<g id="a_edge17_Node000001_Node000013"><a xlink:title=" ">
<path fill="none" stroke="#63b8ff" d="M401.19,-175.98C375.22,-167.16 334.44,-153.31 305.29,-143.41"/>
<polygon fill="#63b8ff" stroke="#63b8ff" points="306.11,-139.99 295.51,-140.08 303.86,-146.61 306.11,-139.99"/>
</a>
</g>
</g>
<!-- Node14 -->
<g id="Node000014" class="node">
<title>Node14</title>
<g id="a_Node000014"><a xlink:href="mate-utils_2baobab_2src_2callbacks_8h.html" target="_top" xlink:title=" ">
<polygon fill="white" stroke="#666666" points="572.75,-140 501.75,-140 501.75,-121 572.75,-121 572.75,-140"/>
<text text-anchor="middle" x="537.25" y="-128" font-family="Helvetica,sans-Serif" font-size="10.00">callbacks.h</text>
</a>
</g>
</g>
<!-- Node1&#45;&gt;Node14 -->
<g id="edge19_Node000001_Node000014" class="edge">
<title>Node1&#45;&gt;Node14</title>
<g id="a_edge19_Node000001_Node000014"><a xlink:title=" ">
<path fill="none" stroke="#63b8ff" d="M444.09,-175.98C461.86,-167.5 489.4,-154.35 509.93,-144.54"/>
<polygon fill="#63b8ff" stroke="#63b8ff" points="511.58,-147.64 519.09,-140.17 508.56,-141.32 511.58,-147.64"/>
</a>
</g>
</g>
<!-- Node16 -->
<g id="Node000016" class="node">
<title>Node16</title>
<g id="a_Node000016"><a xlink:href="baobab-prefs_8h.html" target="_top" xlink:title=" ">
<polygon fill="white" stroke="#666666" points="844.25,-140 754.25,-140 754.25,-121 844.25,-121 844.25,-140"/>
<text text-anchor="middle" x="799.25" y="-128" font-family="Helvetica,sans-Serif" font-size="10.00">baobab&#45;prefs.h</text>
</a>
</g>
</g>
<!-- Node1&#45;&gt;Node16 -->
<g id="edge23_Node000001_Node000016" class="edge">
<title>Node1&#45;&gt;Node16</title>
<g id="a_edge23_Node000001_Node000016"><a xlink:title=" ">
<path fill="none" stroke="#63b8ff" d="M457.01,-180.17C513.24,-172.23 636.42,-154.84 740.25,-140 741.52,-139.82 742.8,-139.64 744.1,-139.45"/>
<polygon fill="#63b8ff" stroke="#63b8ff" points="744.75,-142.89 754.16,-138.01 743.76,-135.96 744.75,-142.89"/>
</a>
</g>
</g>
<!-- Node17 -->
<g id="Node000017" class="node">
<title>Node17</title>
<g id="a_Node000017"><a xlink:href="baobab-treemap_8h.html" target="_top" xlink:title=" ">
<polygon fill="white" stroke="#666666" points="697.75,-140 590.75,-140 590.75,-121 697.75,-121 697.75,-140"/>
<text text-anchor="middle" x="644.25" y="-128" font-family="Helvetica,sans-Serif" font-size="10.00">baobab&#45;treemap.h</text>
</a>
</g>
</g>
<!-- Node1&#45;&gt;Node17 -->
<g id="edge24_Node000001_Node000017" class="edge">
<title>Node1&#45;&gt;Node17</title>
<g id="a_edge24_Node000001_Node000017"><a xlink:title=" ">
<path fill="none" stroke="#63b8ff" d="M457.02,-177.02C494.08,-168.01 556.62,-152.81 599.13,-142.47"/>
<polygon fill="#63b8ff" stroke="#63b8ff" points="600.05,-145.85 608.94,-140.08 598.4,-139.05 600.05,-145.85"/>
</a>
</g>
</g>
<!-- Node18 -->
<g id="Node000018" class="node">
<title>Node18</title>
<g id="a_Node000018"><a xlink:href="baobab-ringschart_8h.html" target="_top" xlink:title=" ">
<polygon fill="white" stroke="#666666" points="483.25,-140 369.25,-140 369.25,-121 483.25,-121 483.25,-140"/>
<text text-anchor="middle" x="426.25" y="-128" font-family="Helvetica,sans-Serif" font-size="10.00">baobab&#45;ringschart.h</text>
</a>
</g>
</g>
<!-- Node1&#45;&gt;Node18 -->
<g id="edge27_Node000001_Node000018" class="edge">
<title>Node1&#45;&gt;Node18</title>
<g id="a_edge27_Node000001_Node000018"><a xlink:title=" ">
<path fill="none" stroke="#63b8ff" d="M426.25,-175.75C426.25,-168.8 426.25,-158.85 426.25,-150.13"/>
<polygon fill="#63b8ff" stroke="#63b8ff" points="429.75,-150.09 426.25,-140.09 422.75,-150.09 429.75,-150.09"/>
</a>
</g>
</g>
<!-- Node6&#45;&gt;Node2 -->
<g id="edge6_Node000006_Node000002" class="edge">
<title>Node6&#45;&gt;Node2</title>
<g id="a_edge6_Node000006_Node000002"><a xlink:title=" ">
<path fill="none" stroke="#63b8ff" d="M771.74,-54.99C739.09,-44.94 695.63,-31.55 664.92,-22.1"/>
<polygon fill="#63b8ff" stroke="#63b8ff" points="665.62,-18.65 655.03,-19.05 663.56,-25.34 665.62,-18.65"/>
</a>
</g>
</g>
<!-- Node7&#45;&gt;Node2 -->
<g id="edge11_Node000007_Node000002" class="edge">
<title>Node7&#45;&gt;Node2</title>
<g id="a_edge11_Node000007_Node000002"><a xlink:title=" ">
<path fill="none" stroke="#63b8ff" d="M336.42,-63.34C395.15,-52.67 522.12,-29.6 587.13,-17.79"/>
<polygon fill="#63b8ff" stroke="#63b8ff" points="587.8,-21.23 597.01,-15.99 586.54,-14.34 587.8,-21.23"/>
</a>
</g>
</g>
<!-- Node7&#45;&gt;Node4 -->
<g id="edge12_Node000007_Node000004" class="edge">
<title>Node7&#45;&gt;Node4</title>
<g id="a_edge12_Node000007_Node000004"><a xlink:title=" ">
<path fill="none" stroke="#63b8ff" d="M278.5,-60.49C246.61,-50.36 193.18,-33.37 157.58,-22.05"/>
<polygon fill="#63b8ff" stroke="#63b8ff" points="158.63,-18.71 148.04,-19.02 156.51,-25.38 158.63,-18.71"/>
</a>
</g>
</g>
<!-- Node8 -->
<g id="Node000008" class="node">
<title>Node8</title>
<g id="a_Node000008"><a xlink:title=" ">
<polygon fill="#e0e0e0" stroke="#999999" points="329.25,-19 281.25,-19 281.25,0 329.25,0 329.25,-19"/>
<text text-anchor="middle" x="305.25" y="-7" font-family="Helvetica,sans-Serif" font-size="10.00">time.h</text>
</a>
</g>
</g>
<!-- Node7&#45;&gt;Node8 -->
<g id="edge8_Node000007_Node000008" class="edge">
<title>Node7&#45;&gt;Node8</title>
<g id="a_edge8_Node000007_Node000008"><a xlink:title=" ">
<path fill="none" stroke="#63b8ff" d="M305.25,-60.37C305.25,-52.25 305.25,-39.81 305.25,-29.39"/>
<polygon fill="#63b8ff" stroke="#63b8ff" points="308.75,-29.17 305.25,-19.17 301.75,-29.17 308.75,-29.17"/>
</a>
</g>
</g>
<!-- Node9 -->
<g id="Node000009" class="node">
<title>Node9</title>
<g id="a_Node000009"><a xlink:title=" ">
<polygon fill="#e0e0e0" stroke="#999999" points="419.25,-19 347.25,-19 347.25,0 419.25,0 419.25,-19"/>
<text text-anchor="middle" x="383.25" y="-7" font-family="Helvetica,sans-Serif" font-size="10.00">sys/types.h</text>
</a>
</g>
</g>
<!-- Node7&#45;&gt;Node9 -->
<g id="edge9_Node000007_Node000009" class="edge">
<title>Node7&#45;&gt;Node9</title>
<g id="a_edge9_Node000007_Node000009"><a xlink:title=" ">
<path fill="none" stroke="#63b8ff" d="M316.76,-60.37C329.09,-51.12 348.87,-36.28 363.66,-25.19"/>
<polygon fill="#63b8ff" stroke="#63b8ff" points="365.8,-27.97 371.7,-19.17 361.6,-22.37 365.8,-27.97"/>
</a>
</g>
</g>
<!-- Node10 -->
<g id="Node000010" class="node">
<title>Node10</title>
<g id="a_Node000010"><a xlink:title=" ">
<polygon fill="#e0e0e0" stroke="#999999" points="263.25,-19 219.25,-19 219.25,0 263.25,0 263.25,-19"/>
<text text-anchor="middle" x="241.25" y="-7" font-family="Helvetica,sans-Serif" font-size="10.00">glib.h</text>
</a>
</g>
</g>
<!-- Node7&#45;&gt;Node10 -->
<g id="edge10_Node000007_Node000010" class="edge">
<title>Node7&#45;&gt;Node10</title>
<g id="a_edge10_Node000007_Node000010"><a xlink:title=" ">
<path fill="none" stroke="#63b8ff" d="M295.81,-60.37C285.98,-51.38 270.37,-37.11 258.36,-26.14"/>
<polygon fill="#63b8ff" stroke="#63b8ff" points="260.48,-23.33 250.73,-19.17 255.75,-28.5 260.48,-23.33"/>
</a>
</g>
</g>
<!-- Node11&#45;&gt;Node4 -->
<g id="edge14_Node000011_Node000004" class="edge">
<title>Node11&#45;&gt;Node4</title>
<g id="a_edge14_Node000011_Node000004"><a xlink:title=" ">
<path fill="none" stroke="#63b8ff" d="M121.25,-60.37C121.25,-52.25 121.25,-39.81 121.25,-29.39"/>
<polygon fill="#63b8ff" stroke="#63b8ff" points="124.75,-29.17 121.25,-19.17 117.75,-29.17 124.75,-29.17"/>
</a>
</g>
</g>
<!-- Node12&#45;&gt;Node2 -->
<g id="edge16_Node000012_Node000002" class="edge">
<title>Node12&#45;&gt;Node2</title>
<g id="a_edge16_Node000012_Node000002"><a xlink:title=" ">
<path fill="none" stroke="#63b8ff" d="M914.93,-60.45C906.52,-58.57 897.59,-56.65 889.25,-55 811.13,-39.56 719.24,-24.71 667.67,-16.67"/>
<polygon fill="#63b8ff" stroke="#63b8ff" points="668.02,-13.19 657.61,-15.11 666.95,-20.1 668.02,-13.19"/>
</a>
</g>
</g>
<!-- Node13&#45;&gt;Node7 -->
<g id="edge18_Node000013_Node000007" class="edge">
<title>Node13&#45;&gt;Node7</title>
<g id="a_edge18_Node000013_Node000007"><a xlink:title=" ">
<path fill="none" stroke="#63b8ff" d="M275.42,-120.87C280.48,-112.4 288.36,-99.24 294.74,-88.57"/>
<polygon fill="#63b8ff" stroke="#63b8ff" points="297.94,-90.05 300.07,-79.67 291.93,-86.45 297.94,-90.05"/>
</a>
</g>
</g>
<!-- Node14&#45;&gt;Node2 -->
<g id="edge20_Node000014_Node000002" class="edge">
<title>Node14&#45;&gt;Node2</title>
<g id="a_edge20_Node000014_Node000002"><a xlink:title=" ">
<path fill="none" stroke="#63b8ff" d="M550.05,-120.78C561.41,-112.56 577.93,-99.37 589.25,-85 602.83,-67.76 613.62,-44.92 620.18,-29.09"/>
<polygon fill="#63b8ff" stroke="#63b8ff" points="623.59,-29.99 624.03,-19.41 617.08,-27.41 623.59,-29.99"/>
</a>
</g>
</g>
<!-- Node15 -->
<g id="Node000015" class="node">
<title>Node15</title>
<g id="a_Node000015"><a xlink:href="baobab-chart_8h.html" target="_top" xlink:title=" ">
<polygon fill="white" stroke="#666666" points="580.25,-79.5 490.25,-79.5 490.25,-60.5 580.25,-60.5 580.25,-79.5"/>
<text text-anchor="middle" x="535.25" y="-67.5" font-family="Helvetica,sans-Serif" font-size="10.00">baobab&#45;chart.h</text>
</a>
</g>
</g>
<!-- Node14&#45;&gt;Node15 -->
<g id="edge21_Node000014_Node000015" class="edge">
<title>Node14&#45;&gt;Node15</title>
<g id="a_edge21_Node000014_Node000015"><a xlink:title=" ">
<path fill="none" stroke="#63b8ff" d="M536.96,-120.87C536.68,-112.75 536.25,-100.31 535.9,-89.89"/>
<polygon fill="#63b8ff" stroke="#63b8ff" points="539.39,-89.54 535.55,-79.67 532.39,-89.78 539.39,-89.54"/>
</a>
</g>
</g>
<!-- Node15&#45;&gt;Node2 -->
<g id="edge22_Node000015_Node000002" class="edge">
<title>Node15&#45;&gt;Node2</title>
<g id="a_edge22_Node000015_Node000002"><a xlink:title=" ">
<path fill="none" stroke="#63b8ff" d="M548.83,-60.37C563.64,-50.95 587.58,-35.73 605.12,-24.58"/>
<polygon fill="#63b8ff" stroke="#63b8ff" points="607.06,-27.49 613.62,-19.17 603.31,-21.58 607.06,-27.49"/>
</a>
</g>
</g>
<!-- Node17&#45;&gt;Node2 -->
<g id="edge25_Node000017_Node000002" class="edge">
<title>Node17&#45;&gt;Node2</title>
<g id="a_edge25_Node000017_Node000002"><a xlink:title=" ">
<path fill="none" stroke="#63b8ff" d="M643.03,-120.94C640.31,-101.91 633.71,-55.69 629.96,-29.47"/>
<polygon fill="#63b8ff" stroke="#63b8ff" points="633.39,-28.71 628.51,-19.3 626.46,-29.7 633.39,-28.71"/>
</a>
</g>
</g>
<!-- Node17&#45;&gt;Node15 -->
<g id="edge26_Node000017_Node000015" class="edge">
<title>Node17&#45;&gt;Node15</title>
<g id="a_edge26_Node000017_Node000015"><a xlink:title=" ">
<path fill="none" stroke="#63b8ff" d="M628.17,-120.87C610.3,-111.28 581.21,-95.67 560.34,-84.47"/>
<polygon fill="#63b8ff" stroke="#63b8ff" points="561.87,-81.31 551.4,-79.67 558.56,-87.48 561.87,-81.31"/>
</a>
</g>
</g>
<!-- Node18&#45;&gt;Node2 -->
<g id="edge28_Node000018_Node000002" class="edge">
<title>Node18&#45;&gt;Node2</title>
<g id="a_edge28_Node000018_Node000002"><a xlink:title=" ">
<path fill="none" stroke="#63b8ff" d="M430.36,-120.71C438.09,-105.13 456.31,-72.63 481.25,-55 512.84,-32.67 555.89,-21.33 587.04,-15.72"/>
<polygon fill="#63b8ff" stroke="#63b8ff" points="587.84,-19.13 597.12,-14.03 586.68,-12.23 587.84,-19.13"/>
</a>
</g>
</g>
<!-- Node18&#45;&gt;Node15 -->
<g id="edge29_Node000018_Node000015" class="edge">
<title>Node18&#45;&gt;Node15</title>
<g id="a_edge29_Node000018_Node000015"><a xlink:title=" ">
<path fill="none" stroke="#63b8ff" d="M442.34,-120.87C460.21,-111.28 489.29,-95.67 510.16,-84.47"/>
<polygon fill="#63b8ff" stroke="#63b8ff" points="511.95,-87.48 519.1,-79.67 508.64,-81.31 511.95,-87.48"/>
</a>
</g>
</g>
</g>
</svg>
