<?xml version="1.0" encoding="UTF-8" standalone="no"?>
<!DOCTYPE svg PUBLIC "-//W3C//DTD SVG 1.1//EN"
 "http://www.w3.org/Graphics/SVG/1.1/DTD/svg11.dtd">
<!-- Generated by graphviz version 2.43.0 (0)
 -->
<!-- Title: bus&#45;watch&#45;namespace.h Pages: 1 -->
<svg width="286pt" height="82pt"
 viewBox="0.00 0.00 285.50 82.00" xmlns="http://www.w3.org/2000/svg" xmlns:xlink="http://www.w3.org/1999/xlink">
<g id="graph0" class="graph" transform="scale(1 1) rotate(0) translate(4 78)">
<title>bus&#45;watch&#45;namespace.h</title>
<!-- Node1 -->
<g id="Node000001" class="node">
<title>Node1</title>
<g id="a_Node000001"><a xlink:title=" ">
<polygon fill="#999999" stroke="#666666" points="209.5,-74 73.5,-74 73.5,-55 209.5,-55 209.5,-74"/>
<text text-anchor="middle" x="141.5" y="-62" font-family="Helvetica,sans-Serif" font-size="10.00">bus&#45;watch&#45;namespace.h</text>
</a>
</g>
</g>
<!-- Node2 -->
<g id="Node000002" class="node">
<title>Node2</title>
<g id="a_Node000002"><a xlink:href="bus-watch-namespace_8c.html" target="_top" xlink:title=" ">
<polygon fill="white" stroke="#666666" points="135,-19 0,-19 0,0 135,0 135,-19"/>
<text text-anchor="middle" x="67.5" y="-7" font-family="Helvetica,sans-Serif" font-size="10.00">bus&#45;watch&#45;namespace.c</text>
</a>
</g>
</g>
<!-- Node1&#45;&gt;Node2 -->
<g id="edge1_Node000001_Node000002" class="edge">
<title>Node1&#45;&gt;Node2</title>
<g id="a_edge1_Node000001_Node000002"><a xlink:title=" ">
<path fill="none" stroke="#63b8ff" d="M121.47,-49.15C108.09,-39.57 90.94,-27.29 79.61,-19.17"/>
<polygon fill="#63b8ff" stroke="#63b8ff" points="119.44,-52.01 129.61,-54.98 123.52,-46.32 119.44,-52.01"/>
</a>
</g>
</g>
<!-- Node3 -->
<g id="Node000003" class="node">
<title>Node3</title>
<g id="a_Node000003"><a xlink:href="msd-mpris-manager_8c.html" target="_top" xlink:title=" ">
<polygon fill="white" stroke="#666666" points="277.5,-19 153.5,-19 153.5,0 277.5,0 277.5,-19"/>
<text text-anchor="middle" x="215.5" y="-7" font-family="Helvetica,sans-Serif" font-size="10.00">msd&#45;mpris&#45;manager.c</text>
</a>
</g>
</g>
<!-- Node1&#45;&gt;Node3 -->
<g id="edge2_Node000001_Node000003" class="edge">
<title>Node1&#45;&gt;Node3</title>
<g id="a_edge2_Node000001_Node000003"><a xlink:title=" ">
<path fill="none" stroke="#63b8ff" d="M161.53,-49.15C174.91,-39.57 192.06,-27.29 203.39,-19.17"/>
<polygon fill="#63b8ff" stroke="#63b8ff" points="159.48,-46.32 153.39,-54.98 163.56,-52.01 159.48,-46.32"/>
</a>
</g>
</g>
</g>
</svg>
