<?xml version="1.0" encoding="UTF-8" standalone="no"?>
<!DOCTYPE svg PUBLIC "-//W3C//DTD SVG 1.1//EN"
 "http://www.w3.org/Graphics/SVG/1.1/DTD/svg11.dtd">
<!-- Generated by graphviz version 2.43.0 (0)
 -->
<!-- Title: cact&#45;confirm&#45;logout.h Pages: 1 -->
<svg width="1000pt" height="599pt"
 viewBox="0.00 0.00 1000.00 599.00" xmlns="http://www.w3.org/2000/svg" xmlns:xlink="http://www.w3.org/1999/xlink">
<g id="graph0" class="graph" transform="scale(1 1) rotate(0) translate(4 595)">
<title>cact&#45;confirm&#45;logout.h</title>
<!-- Node1 -->
<g id="Node000001" class="node">
<title>Node1</title>
<g id="a_Node000001"><a xlink:title=" ">
<polygon fill="#999999" stroke="#666666" points="932.5,-591 811.5,-591 811.5,-572 932.5,-572 932.5,-591"/>
<text text-anchor="middle" x="872" y="-579" font-family="Helvetica,sans-Serif" font-size="10.00">cact&#45;confirm&#45;logout.h</text>
</a>
</g>
</g>
<!-- Node2 -->
<g id="Node000002" class="node">
<title>Node2</title>
<g id="a_Node000002"><a xlink:href="base-dialog_8h.html" target="_top" xlink:title=" ">
<polygon fill="white" stroke="#666666" points="990.5,-536 907.5,-536 907.5,-517 990.5,-517 990.5,-536"/>
<text text-anchor="middle" x="949" y="-524" font-family="Helvetica,sans-Serif" font-size="10.00">base&#45;dialog.h</text>
</a>
</g>
</g>
<!-- Node1&#45;&gt;Node2 -->
<g id="edge1_Node000001_Node000002" class="edge">
<title>Node1&#45;&gt;Node2</title>
<g id="a_edge1_Node000001_Node000002"><a xlink:title=" ">
<path fill="none" stroke="#63b8ff" d="M884.37,-571.98C896.09,-563.92 913.92,-551.65 927.89,-542.03"/>
<polygon fill="#63b8ff" stroke="#63b8ff" points="930.15,-544.72 936.4,-536.17 926.18,-538.96 930.15,-544.72"/>
</a>
</g>
</g>
<!-- Node7 -->
<g id="Node000007" class="node">
<title>Node7</title>
<g id="a_Node000007"><a xlink:href="cact-main-window_8h.html" target="_top" xlink:title=" ">
<polygon fill="white" stroke="#666666" points="871.5,-536 756.5,-536 756.5,-517 871.5,-517 871.5,-536"/>
<text text-anchor="middle" x="814" y="-524" font-family="Helvetica,sans-Serif" font-size="10.00">cact&#45;main&#45;window.h</text>
</a>
</g>
</g>
<!-- Node1&#45;&gt;Node7 -->
<g id="edge6_Node000001_Node000007" class="edge">
<title>Node1&#45;&gt;Node7</title>
<g id="a_edge6_Node000001_Node000007"><a xlink:title=" ">
<path fill="none" stroke="#63b8ff" d="M862.68,-571.98C854.19,-564.23 841.44,-552.58 831.12,-543.14"/>
<polygon fill="#63b8ff" stroke="#63b8ff" points="833.23,-540.33 823.49,-536.17 828.51,-545.5 833.23,-540.33"/>
</a>
</g>
</g>
<!-- Node3 -->
<g id="Node000003" class="node">
<title>Node3</title>
<g id="a_Node000003"><a xlink:href="base-window_8h.html" target="_top" xlink:title=" ">
<polygon fill="white" stroke="#666666" points="933.5,-426 844.5,-426 844.5,-407 933.5,-407 933.5,-426"/>
<text text-anchor="middle" x="889" y="-414" font-family="Helvetica,sans-Serif" font-size="10.00">base&#45;window.h</text>
</a>
</g>
</g>
<!-- Node2&#45;&gt;Node3 -->
<g id="edge2_Node000002_Node000003" class="edge">
<title>Node2&#45;&gt;Node3</title>
<g id="a_edge2_Node000002_Node000003"><a xlink:title=" ">
<path fill="none" stroke="#63b8ff" d="M951.17,-516.71C953.83,-503.9 956.99,-479.69 948,-462 941.33,-448.88 928.79,-438.58 916.97,-431.21"/>
<polygon fill="#63b8ff" stroke="#63b8ff" points="918.6,-428.11 908.19,-426.14 915.11,-434.17 918.6,-428.11"/>
</a>
</g>
</g>
<!-- Node4 -->
<g id="Node000004" class="node">
<title>Node4</title>
<g id="a_Node000004"><a xlink:title=" ">
<polygon fill="#e0e0e0" stroke="#999999" points="992,-371 932,-371 932,-352 992,-352 992,-371"/>
<text text-anchor="middle" x="962" y="-359" font-family="Helvetica,sans-Serif" font-size="10.00">gtk/gtk.h</text>
</a>
</g>
</g>
<!-- Node3&#45;&gt;Node4 -->
<g id="edge3_Node000003_Node000004" class="edge">
<title>Node3&#45;&gt;Node4</title>
<g id="a_edge3_Node000003_Node000004"><a xlink:title=" ">
<path fill="none" stroke="#63b8ff" d="M900.73,-406.98C911.73,-399 928.42,-386.88 941.6,-377.31"/>
<polygon fill="#63b8ff" stroke="#63b8ff" points="944.02,-379.88 950.06,-371.17 939.91,-374.21 944.02,-379.88"/>
</a>
</g>
</g>
<!-- Node5 -->
<g id="Node000005" class="node">
<title>Node5</title>
<g id="a_Node000005"><a xlink:href="base-application_8h.html" target="_top" xlink:title=" ">
<polygon fill="white" stroke="#666666" points="913.5,-371 806.5,-371 806.5,-352 913.5,-352 913.5,-371"/>
<text text-anchor="middle" x="860" y="-359" font-family="Helvetica,sans-Serif" font-size="10.00">base&#45;application.h</text>
</a>
</g>
</g>
<!-- Node3&#45;&gt;Node5 -->
<g id="edge4_Node000003_Node000005" class="edge">
<title>Node3&#45;&gt;Node5</title>
<g id="a_edge4_Node000003_Node000005"><a xlink:title=" ">
<path fill="none" stroke="#63b8ff" d="M884.21,-406.75C880.24,-399.49 874.47,-388.95 869.57,-379.98"/>
<polygon fill="#63b8ff" stroke="#63b8ff" points="872.57,-378.18 864.7,-371.09 866.43,-381.54 872.57,-378.18"/>
</a>
</g>
</g>
<!-- Node6 -->
<g id="Node000006" class="node">
<title>Node6</title>
<g id="a_Node000006"><a xlink:title=" ">
<polygon fill="#e0e0e0" stroke="#999999" points="535.5,-19 458.5,-19 458.5,0 535.5,0 535.5,-19"/>
<text text-anchor="middle" x="497" y="-7" font-family="Helvetica,sans-Serif" font-size="10.00">glib&#45;object.h</text>
</a>
</g>
</g>
<!-- Node5&#45;&gt;Node6 -->
<g id="edge5_Node000005_Node000006" class="edge">
<title>Node5&#45;&gt;Node6</title>
<g id="a_edge5_Node000005_Node000006"><a xlink:title=" ">
<path fill="none" stroke="#63b8ff" d="M857.03,-351.94C851.03,-333.83 838,-290.2 838,-252.5 838,-252.5 838,-252.5 838,-124 838,-77.38 801.12,-74.99 759,-55 689.89,-22.2 600.39,-13.22 545.91,-10.97"/>
<polygon fill="#63b8ff" stroke="#63b8ff" points="545.94,-7.46 535.82,-10.61 545.69,-14.46 545.94,-7.46"/>
</a>
</g>
</g>
<!-- Node8 -->
<g id="Node000008" class="node">
<title>Node8</title>
<g id="a_Node000008"><a xlink:href="cact-application_8h.html" target="_top" xlink:title=" ">
<polygon fill="white" stroke="#666666" points="712,-481 608,-481 608,-462 712,-462 712,-481"/>
<text text-anchor="middle" x="660" y="-469" font-family="Helvetica,sans-Serif" font-size="10.00">cact&#45;application.h</text>
</a>
</g>
</g>
<!-- Node7&#45;&gt;Node8 -->
<g id="edge7_Node000007_Node000008" class="edge">
<title>Node7&#45;&gt;Node8</title>
<g id="a_edge7_Node000007_Node000008"><a xlink:title=" ">
<path fill="none" stroke="#63b8ff" d="M789.26,-516.98C763.63,-508.16 723.37,-494.31 694.59,-484.41"/>
<polygon fill="#63b8ff" stroke="#63b8ff" points="695.53,-481.03 684.94,-481.08 693.25,-487.65 695.53,-481.03"/>
</a>
</g>
</g>
<!-- Node29 -->
<g id="Node000029" class="node">
<title>Node29</title>
<g id="a_Node000029"><a xlink:href="cact-clipboard_8h.html" target="_top" xlink:title=" ">
<polygon fill="white" stroke="#666666" points="938.5,-481 843.5,-481 843.5,-462 938.5,-462 938.5,-481"/>
<text text-anchor="middle" x="891" y="-469" font-family="Helvetica,sans-Serif" font-size="10.00">cact&#45;clipboard.h</text>
</a>
</g>
</g>
<!-- Node7&#45;&gt;Node29 -->
<g id="edge42_Node000007_Node000029" class="edge">
<title>Node7&#45;&gt;Node29</title>
<g id="a_edge42_Node000007_Node000029"><a xlink:title=" ">
<path fill="none" stroke="#63b8ff" d="M826.37,-516.98C838.09,-508.92 855.92,-496.65 869.89,-487.03"/>
<polygon fill="#63b8ff" stroke="#63b8ff" points="872.15,-489.72 878.4,-481.17 868.18,-483.96 872.15,-489.72"/>
</a>
</g>
</g>
<!-- Node30 -->
<g id="Node000030" class="node">
<title>Node30</title>
<g id="a_Node000030"><a xlink:href="cact-tree-view_8h.html" target="_top" xlink:title=" ">
<polygon fill="white" stroke="#666666" points="825.5,-481 730.5,-481 730.5,-462 825.5,-462 825.5,-481"/>
<text text-anchor="middle" x="778" y="-469" font-family="Helvetica,sans-Serif" font-size="10.00">cact&#45;tree&#45;view.h</text>
</a>
</g>
</g>
<!-- Node7&#45;&gt;Node30 -->
<g id="edge45_Node000007_Node000030" class="edge">
<title>Node7&#45;&gt;Node30</title>
<g id="a_edge45_Node000007_Node000030"><a xlink:title=" ">
<path fill="none" stroke="#63b8ff" d="M808.06,-516.75C803.02,-509.34 795.66,-498.5 789.49,-489.41"/>
<polygon fill="#63b8ff" stroke="#63b8ff" points="792.35,-487.39 783.83,-481.09 786.56,-491.33 792.35,-487.39"/>
</a>
</g>
</g>
<!-- Node8&#45;&gt;Node5 -->
<g id="edge41_Node000008_Node000005" class="edge">
<title>Node8&#45;&gt;Node5</title>
<g id="a_edge41_Node000008_Node000005"><a xlink:title=" ">
<path fill="none" stroke="#63b8ff" d="M676.03,-461.84C710.86,-443.04 793.64,-398.33 835.24,-375.87"/>
<polygon fill="#63b8ff" stroke="#63b8ff" points="837.04,-378.88 844.17,-371.05 833.71,-372.72 837.04,-378.88"/>
</a>
</g>
</g>
<!-- Node9 -->
<g id="Node000009" class="node">
<title>Node9</title>
<g id="a_Node000009"><a xlink:href="na-updater_8h.html" target="_top" xlink:title=" ">
<polygon fill="white" stroke="#666666" points="591,-426 489,-426 489,-407 591,-407 591,-426"/>
<text text-anchor="middle" x="540" y="-414" font-family="Helvetica,sans-Serif" font-size="10.00">core/na&#45;updater.h</text>
</a>
</g>
</g>
<!-- Node8&#45;&gt;Node9 -->
<g id="edge8_Node000008_Node000009" class="edge">
<title>Node8&#45;&gt;Node9</title>
<g id="a_edge8_Node000008_Node000009"><a xlink:title=" ">
<path fill="none" stroke="#63b8ff" d="M640.72,-461.98C621.33,-453.42 591.19,-440.11 568.93,-430.28"/>
<polygon fill="#63b8ff" stroke="#63b8ff" points="570.19,-427.01 559.63,-426.17 567.36,-433.41 570.19,-427.01"/>
</a>
</g>
</g>
<!-- Node10 -->
<g id="Node000010" class="node">
<title>Node10</title>
<g id="a_Node000010"><a xlink:href="na-pivot_8h.html" target="_top" xlink:title=" ">
<polygon fill="white" stroke="#666666" points="542,-371 476,-371 476,-352 542,-352 542,-371"/>
<text text-anchor="middle" x="509" y="-359" font-family="Helvetica,sans-Serif" font-size="10.00">na&#45;pivot.h</text>
</a>
</g>
</g>
<!-- Node9&#45;&gt;Node10 -->
<g id="edge9_Node000009_Node000010" class="edge">
<title>Node9&#45;&gt;Node10</title>
<g id="a_edge9_Node000009_Node000010"><a xlink:title=" ">
<path fill="none" stroke="#63b8ff" d="M534.88,-406.75C530.64,-399.49 524.47,-388.95 519.22,-379.98"/>
<polygon fill="#63b8ff" stroke="#63b8ff" points="522.09,-377.95 514.02,-371.09 516.05,-381.49 522.09,-377.95"/>
</a>
</g>
</g>
<!-- Node11 -->
<g id="Node000011" class="node">
<title>Node11</title>
<g id="a_Node000011"><a xlink:href="na-iio-provider_8h.html" target="_top" xlink:title=" ">
<polygon fill="white" stroke="#666666" points="678.5,-316 563.5,-316 563.5,-297 678.5,-297 678.5,-316"/>
<text text-anchor="middle" x="621" y="-304" font-family="Helvetica,sans-Serif" font-size="10.00">api/na&#45;iio&#45;provider.h</text>
</a>
</g>
</g>
<!-- Node10&#45;&gt;Node11 -->
<g id="edge10_Node000010_Node000011" class="edge">
<title>Node10&#45;&gt;Node11</title>
<g id="a_edge10_Node000010_Node000011"><a xlink:title=" ">
<path fill="none" stroke="#63b8ff" d="M526.99,-351.98C544.93,-343.5 572.72,-330.35 593.43,-320.54"/>
<polygon fill="#63b8ff" stroke="#63b8ff" points="595.14,-323.61 602.68,-316.17 592.14,-317.28 595.14,-323.61"/>
</a>
</g>
</g>
<!-- Node15 -->
<g id="Node000015" class="node">
<title>Node15</title>
<g id="a_Node000015"><a xlink:href="na-object-api_8h.html" target="_top" xlink:title=" ">
<polygon fill="white" stroke="#666666" points="503,-316 395,-316 395,-297 503,-297 503,-316"/>
<text text-anchor="middle" x="449" y="-304" font-family="Helvetica,sans-Serif" font-size="10.00">api/na&#45;object&#45;api.h</text>
</a>
</g>
</g>
<!-- Node10&#45;&gt;Node15 -->
<g id="edge15_Node000010_Node000015" class="edge">
<title>Node10&#45;&gt;Node15</title>
<g id="a_edge15_Node000010_Node000015"><a xlink:title=" ">
<path fill="none" stroke="#63b8ff" d="M499.36,-351.98C490.49,-344.15 477.13,-332.34 466.39,-322.86"/>
<polygon fill="#63b8ff" stroke="#63b8ff" points="468.63,-320.17 458.82,-316.17 463.99,-325.41 468.63,-320.17"/>
</a>
</g>
</g>
<!-- Node28 -->
<g id="Node000028" class="node">
<title>Node28</title>
<g id="a_Node000028"><a xlink:href="na-settings_8h.html" target="_top" xlink:title=" ">
<polygon fill="white" stroke="#666666" points="80,-74 0,-74 0,-55 80,-55 80,-74"/>
<text text-anchor="middle" x="40" y="-62" font-family="Helvetica,sans-Serif" font-size="10.00">na&#45;settings.h</text>
</a>
</g>
</g>
<!-- Node10&#45;&gt;Node28 -->
<g id="edge39_Node000010_Node000028" class="edge">
<title>Node10&#45;&gt;Node28</title>
<g id="a_edge39_Node000010_Node000028"><a xlink:title=" ">
<path fill="none" stroke="#63b8ff" d="M475.65,-359.96C368.5,-357.34 40,-342.01 40,-252.5 40,-252.5 40,-252.5 40,-190 40,-152.49 40,-108.63 40,-84.26"/>
<polygon fill="#63b8ff" stroke="#63b8ff" points="43.5,-84.25 40,-74.25 36.5,-84.25 43.5,-84.25"/>
</a>
</g>
</g>
<!-- Node12 -->
<g id="Node000012" class="node">
<title>Node12</title>
<g id="a_Node000012"><a xlink:href="na-object-item_8h.html" target="_top" xlink:title=" ">
<polygon fill="white" stroke="#666666" points="712,-200.5 614,-200.5 614,-181.5 712,-181.5 712,-200.5"/>
<text text-anchor="middle" x="663" y="-188.5" font-family="Helvetica,sans-Serif" font-size="10.00">na&#45;object&#45;item.h</text>
</a>
</g>
</g>
<!-- Node11&#45;&gt;Node12 -->
<g id="edge11_Node000011_Node000012" class="edge">
<title>Node11&#45;&gt;Node12</title>
<g id="a_edge11_Node000011_Node000012"><a xlink:title=" ">
<path fill="none" stroke="#63b8ff" d="M641.2,-296.91C655.47,-289.64 673.51,-277.71 682,-261 690.33,-244.62 682.69,-224.14 674.76,-209.76"/>
<polygon fill="#63b8ff" stroke="#63b8ff" points="677.58,-207.66 669.41,-200.91 671.59,-211.28 677.58,-207.66"/>
</a>
</g>
</g>
<!-- Node13 -->
<g id="Node000013" class="node">
<title>Node13</title>
<g id="a_Node000013"><a xlink:href="na-object-id_8h.html" target="_top" xlink:title=" ">
<polygon fill="white" stroke="#666666" points="609,-134.5 525,-134.5 525,-115.5 609,-115.5 609,-134.5"/>
<text text-anchor="middle" x="567" y="-122.5" font-family="Helvetica,sans-Serif" font-size="10.00">na&#45;object&#45;id.h</text>
</a>
</g>
</g>
<!-- Node12&#45;&gt;Node13 -->
<g id="edge12_Node000012_Node000013" class="edge">
<title>Node12&#45;&gt;Node13</title>
<g id="a_edge12_Node000012_Node000013"><a xlink:title=" ">
<path fill="none" stroke="#63b8ff" d="M650.05,-181.37C634.31,-170.87 607.5,-153 588.6,-140.4"/>
<polygon fill="#63b8ff" stroke="#63b8ff" points="590.31,-137.33 580.05,-134.7 586.43,-143.16 590.31,-137.33"/>
</a>
</g>
</g>
<!-- Node14 -->
<g id="Node000014" class="node">
<title>Node14</title>
<g id="a_Node000014"><a xlink:href="na-object_8h.html" target="_top" xlink:title=" ">
<polygon fill="white" stroke="#666666" points="599.5,-74 528.5,-74 528.5,-55 599.5,-55 599.5,-74"/>
<text text-anchor="middle" x="564" y="-62" font-family="Helvetica,sans-Serif" font-size="10.00">na&#45;object.h</text>
</a>
</g>
</g>
<!-- Node13&#45;&gt;Node14 -->
<g id="edge13_Node000013_Node000014" class="edge">
<title>Node13&#45;&gt;Node14</title>
<g id="a_edge13_Node000013_Node000014"><a xlink:title=" ">
<path fill="none" stroke="#63b8ff" d="M566.56,-115.37C566.14,-107.25 565.5,-94.81 564.97,-84.39"/>
<polygon fill="#63b8ff" stroke="#63b8ff" points="568.45,-83.97 564.44,-74.17 561.46,-84.33 568.45,-83.97"/>
</a>
</g>
</g>
<!-- Node14&#45;&gt;Node6 -->
<g id="edge14_Node000014_Node000006" class="edge">
<title>Node14&#45;&gt;Node6</title>
<g id="a_edge14_Node000014_Node000006"><a xlink:title=" ">
<path fill="none" stroke="#63b8ff" d="M553.24,-54.98C543.23,-47.07 528.11,-35.11 516.07,-25.58"/>
<polygon fill="#63b8ff" stroke="#63b8ff" points="517.97,-22.63 507.96,-19.17 513.63,-28.12 517.97,-22.63"/>
</a>
</g>
</g>
<!-- Node16 -->
<g id="Node000016" class="node">
<title>Node16</title>
<g id="a_Node000016"><a xlink:href="na-ifactory-object_8h.html" target="_top" xlink:title=" ">
<polygon fill="white" stroke="#666666" points="390.5,-261 277.5,-261 277.5,-242 390.5,-242 390.5,-261"/>
<text text-anchor="middle" x="334" y="-249" font-family="Helvetica,sans-Serif" font-size="10.00">na&#45;ifactory&#45;object.h</text>
</a>
</g>
</g>
<!-- Node15&#45;&gt;Node16 -->
<g id="edge16_Node000015_Node000016" class="edge">
<title>Node15&#45;&gt;Node16</title>
<g id="a_edge16_Node000015_Node000016"><a xlink:title=" ">
<path fill="none" stroke="#63b8ff" d="M430.52,-296.98C412.02,-288.46 383.32,-275.23 362.02,-265.41"/>
<polygon fill="#63b8ff" stroke="#63b8ff" points="363.36,-262.18 352.81,-261.17 360.43,-268.53 363.36,-262.18"/>
</a>
</g>
</g>
<!-- Node22 -->
<g id="Node000022" class="node">
<title>Node22</title>
<g id="a_Node000022"><a xlink:href="na-ifactory-object-data_8h.html" target="_top" xlink:title=" ">
<polygon fill="white" stroke="#666666" points="241,-140 137,-140 137,-110 241,-110 241,-140"/>
<text text-anchor="start" x="145" y="-128" font-family="Helvetica,sans-Serif" font-size="10.00">na&#45;ifactory&#45;object</text>
<text text-anchor="middle" x="189" y="-117" font-family="Helvetica,sans-Serif" font-size="10.00">&#45;data.h</text>
</a>
</g>
</g>
<!-- Node15&#45;&gt;Node22 -->
<g id="edge26_Node000015_Node000022" class="edge">
<title>Node15&#45;&gt;Node22</title>
<g id="a_edge26_Node000015_Node000022"><a xlink:title=" ">
<path fill="none" stroke="#63b8ff" d="M394.71,-298.23C357.66,-291.84 308.21,-280.43 268,-261 232.06,-243.63 216.34,-240.92 197,-206 187.63,-189.07 186.06,-167.02 186.59,-150.35"/>
<polygon fill="#63b8ff" stroke="#63b8ff" points="190.09,-150.48 187.18,-140.29 183.1,-150.07 190.09,-150.48"/>
</a>
</g>
</g>
<!-- Node23 -->
<g id="Node000023" class="node">
<title>Node23</title>
<g id="a_Node000023"><a xlink:href="na-iduplicable_8h.html" target="_top" xlink:title=" ">
<polygon fill="white" stroke="#666666" points="750.5,-74 655.5,-74 655.5,-55 750.5,-55 750.5,-74"/>
<text text-anchor="middle" x="703" y="-62" font-family="Helvetica,sans-Serif" font-size="10.00">na&#45;iduplicable.h</text>
</a>
</g>
</g>
<!-- Node15&#45;&gt;Node23 -->
<g id="edge28_Node000015_Node000023" class="edge">
<title>Node15&#45;&gt;Node23</title>
<g id="a_edge28_Node000015_Node000023"><a xlink:title=" ">
<path fill="none" stroke="#63b8ff" d="M503.15,-299.88C562.46,-292.91 653.03,-279.62 682,-261 707.21,-244.8 711.9,-234.55 721,-206 734.51,-163.59 719.92,-110.93 710.21,-83.7"/>
<polygon fill="#63b8ff" stroke="#63b8ff" points="713.47,-82.42 706.68,-74.29 706.92,-84.88 713.47,-82.42"/>
</a>
</g>
</g>
<!-- Node24 -->
<g id="Node000024" class="node">
<title>Node24</title>
<g id="a_Node000024"><a xlink:href="na-icontext_8h.html" target="_top" xlink:title=" ">
<polygon fill="white" stroke="#666666" points="149.5,-261 68.5,-261 68.5,-242 149.5,-242 149.5,-261"/>
<text text-anchor="middle" x="109" y="-249" font-family="Helvetica,sans-Serif" font-size="10.00">na&#45;icontext.h</text>
</a>
</g>
</g>
<!-- Node15&#45;&gt;Node24 -->
<g id="edge30_Node000015_Node000024" class="edge">
<title>Node15&#45;&gt;Node24</title>
<g id="a_edge30_Node000015_Node000024"><a xlink:title=" ">
<path fill="none" stroke="#63b8ff" d="M394.75,-297.04C330.11,-286.97 222.93,-270.26 159.83,-260.42"/>
<polygon fill="#63b8ff" stroke="#63b8ff" points="160.14,-256.93 149.72,-258.85 159.06,-263.85 160.14,-256.93"/>
</a>
</g>
</g>
<!-- Node25 -->
<g id="Node000025" class="node">
<title>Node25</title>
<g id="a_Node000025"><a xlink:href="na-object-action_8h.html" target="_top" xlink:title=" ">
<polygon fill="white" stroke="#666666" points="552.5,-261 447.5,-261 447.5,-242 552.5,-242 552.5,-261"/>
<text text-anchor="middle" x="500" y="-249" font-family="Helvetica,sans-Serif" font-size="10.00">na&#45;object&#45;action.h</text>
</a>
</g>
</g>
<!-- Node15&#45;&gt;Node25 -->
<g id="edge32_Node000015_Node000025" class="edge">
<title>Node15&#45;&gt;Node25</title>
<g id="a_edge32_Node000015_Node000025"><a xlink:title=" ">
<path fill="none" stroke="#63b8ff" d="M457.42,-296.75C464.77,-289.11 475.63,-277.82 484.54,-268.56"/>
<polygon fill="#63b8ff" stroke="#63b8ff" points="487.32,-270.72 491.74,-261.09 482.28,-265.87 487.32,-270.72"/>
</a>
</g>
</g>
<!-- Node26 -->
<g id="Node000026" class="node">
<title>Node26</title>
<g id="a_Node000026"><a xlink:href="na-object-profile_8h.html" target="_top" xlink:title=" ">
<polygon fill="white" stroke="#666666" points="596,-200.5 490,-200.5 490,-181.5 596,-181.5 596,-200.5"/>
<text text-anchor="middle" x="543" y="-188.5" font-family="Helvetica,sans-Serif" font-size="10.00">na&#45;object&#45;profile.h</text>
</a>
</g>
</g>
<!-- Node15&#45;&gt;Node26 -->
<g id="edge36_Node000015_Node000026" class="edge">
<title>Node15&#45;&gt;Node26</title>
<g id="a_edge36_Node000015_Node000026"><a xlink:title=" ">
<path fill="none" stroke="#63b8ff" d="M444.05,-296.97C437.27,-284.05 427.13,-259.22 438,-242 449.96,-223.06 471.27,-211.15 491.58,-203.73"/>
<polygon fill="#63b8ff" stroke="#63b8ff" points="492.75,-207.03 501.12,-200.53 490.52,-200.39 492.75,-207.03"/>
</a>
</g>
</g>
<!-- Node27 -->
<g id="Node000027" class="node">
<title>Node27</title>
<g id="a_Node000027"><a xlink:href="na-object-menu_8h.html" target="_top" xlink:title=" ">
<polygon fill="white" stroke="#666666" points="673.5,-261 570.5,-261 570.5,-242 673.5,-242 673.5,-261"/>
<text text-anchor="middle" x="622" y="-249" font-family="Helvetica,sans-Serif" font-size="10.00">na&#45;object&#45;menu.h</text>
</a>
</g>
</g>
<!-- Node15&#45;&gt;Node27 -->
<g id="edge37_Node000015_Node000027" class="edge">
<title>Node15&#45;&gt;Node27</title>
<g id="a_edge37_Node000015_Node000027"><a xlink:title=" ">
<path fill="none" stroke="#63b8ff" d="M476.8,-296.98C505.97,-288.05 552,-273.94 584.4,-264.02"/>
<polygon fill="#63b8ff" stroke="#63b8ff" points="585.45,-267.36 593.99,-261.08 583.4,-260.66 585.45,-267.36"/>
</a>
</g>
</g>
<!-- Node17 -->
<g id="Node000017" class="node">
<title>Node17</title>
<g id="a_Node000017"><a xlink:href="na-data-def_8h.html" target="_top" xlink:title=" ">
<polygon fill="white" stroke="#666666" points="379,-134.5 297,-134.5 297,-115.5 379,-115.5 379,-134.5"/>
<text text-anchor="middle" x="338" y="-122.5" font-family="Helvetica,sans-Serif" font-size="10.00">na&#45;data&#45;def.h</text>
</a>
</g>
</g>
<!-- Node16&#45;&gt;Node17 -->
<g id="edge17_Node000016_Node000017" class="edge">
<title>Node16&#45;&gt;Node17</title>
<g id="a_edge17_Node000016_Node000017"><a xlink:title=" ">
<path fill="none" stroke="#63b8ff" d="M334.27,-241.94C334.91,-222.04 336.51,-172.26 337.39,-144.85"/>
<polygon fill="#63b8ff" stroke="#63b8ff" points="340.9,-144.72 337.72,-134.62 333.9,-144.5 340.9,-144.72"/>
</a>
</g>
</g>
<!-- Node19 -->
<g id="Node000019" class="node">
<title>Node19</title>
<g id="a_Node000019"><a xlink:href="na-data-boxed_8h.html" target="_top" xlink:title=" ">
<polygon fill="white" stroke="#666666" points="472,-200.5 376,-200.5 376,-181.5 472,-181.5 472,-200.5"/>
<text text-anchor="middle" x="424" y="-188.5" font-family="Helvetica,sans-Serif" font-size="10.00">na&#45;data&#45;boxed.h</text>
</a>
</g>
</g>
<!-- Node16&#45;&gt;Node19 -->
<g id="edge19_Node000016_Node000019" class="edge">
<title>Node16&#45;&gt;Node19</title>
<g id="a_edge19_Node000016_Node000019"><a xlink:title=" ">
<path fill="none" stroke="#63b8ff" d="M347.28,-241.87C361.64,-232.54 384.76,-217.51 401.87,-206.38"/>
<polygon fill="#63b8ff" stroke="#63b8ff" points="404.19,-209.05 410.67,-200.67 400.37,-203.18 404.19,-209.05"/>
</a>
</g>
</g>
<!-- Node21 -->
<g id="Node000021" class="node">
<title>Node21</title>
<g id="a_Node000021"><a xlink:href="na-ifactory-provider-provider_8h.html" target="_top" xlink:title=" ">
<polygon fill="white" stroke="#666666" points="320,-206 206,-206 206,-176 320,-176 320,-206"/>
<text text-anchor="start" x="214" y="-194" font-family="Helvetica,sans-Serif" font-size="10.00">na&#45;ifactory&#45;provider</text>
<text text-anchor="middle" x="263" y="-183" font-family="Helvetica,sans-Serif" font-size="10.00">&#45;provider.h</text>
</a>
</g>
</g>
<!-- Node16&#45;&gt;Node21 -->
<g id="edge24_Node000016_Node000021" class="edge">
<title>Node16&#45;&gt;Node21</title>
<g id="a_edge24_Node000016_Node000021"><a xlink:title=" ">
<path fill="none" stroke="#63b8ff" d="M323.52,-241.87C314.25,-234.22 300.33,-222.76 288.18,-212.75"/>
<polygon fill="#63b8ff" stroke="#63b8ff" points="290.07,-209.77 280.13,-206.11 285.62,-215.17 290.07,-209.77"/>
</a>
</g>
</g>
<!-- Node18 -->
<g id="Node000018" class="node">
<title>Node18</title>
<g id="a_Node000018"><a xlink:title=" ">
<polygon fill="#e0e0e0" stroke="#999999" points="291,-74 247,-74 247,-55 291,-55 291,-74"/>
<text text-anchor="middle" x="269" y="-62" font-family="Helvetica,sans-Serif" font-size="10.00">glib.h</text>
</a>
</g>
</g>
<!-- Node17&#45;&gt;Node18 -->
<g id="edge18_Node000017_Node000018" class="edge">
<title>Node17&#45;&gt;Node18</title>
<g id="a_edge18_Node000017_Node000018"><a xlink:title=" ">
<path fill="none" stroke="#63b8ff" d="M327.82,-115.37C317.12,-106.3 300.06,-91.84 287.07,-80.82"/>
<polygon fill="#63b8ff" stroke="#63b8ff" points="289.11,-77.96 279.22,-74.17 284.59,-83.3 289.11,-77.96"/>
</a>
</g>
</g>
<!-- Node19&#45;&gt;Node6 -->
<g id="edge20_Node000019_Node000006" class="edge">
<title>Node19&#45;&gt;Node6</title>
<g id="a_edge20_Node000019_Node000006"><a xlink:title=" ">
<path fill="none" stroke="#63b8ff" d="M437.27,-181.41C449.69,-172.59 467.7,-157.69 477,-140 495.81,-104.21 498.14,-55.71 497.81,-29.39"/>
<polygon fill="#63b8ff" stroke="#63b8ff" points="501.31,-29.17 497.53,-19.27 494.31,-29.37 501.31,-29.17"/>
</a>
</g>
</g>
<!-- Node19&#45;&gt;Node17 -->
<g id="edge23_Node000019_Node000017" class="edge">
<title>Node19&#45;&gt;Node17</title>
<g id="a_edge23_Node000019_Node000017"><a xlink:title=" ">
<path fill="none" stroke="#63b8ff" d="M412.4,-181.37C398.42,-170.97 374.71,-153.32 357.82,-140.75"/>
<polygon fill="#63b8ff" stroke="#63b8ff" points="359.8,-137.86 349.69,-134.7 355.62,-143.48 359.8,-137.86"/>
</a>
</g>
</g>
<!-- Node20 -->
<g id="Node000020" class="node">
<title>Node20</title>
<g id="a_Node000020"><a xlink:href="na-boxed_8h.html" target="_top" xlink:title=" ">
<polygon fill="white" stroke="#666666" points="468.5,-134.5 397.5,-134.5 397.5,-115.5 468.5,-115.5 468.5,-134.5"/>
<text text-anchor="middle" x="433" y="-122.5" font-family="Helvetica,sans-Serif" font-size="10.00">na&#45;boxed.h</text>
</a>
</g>
</g>
<!-- Node19&#45;&gt;Node20 -->
<g id="edge21_Node000019_Node000020" class="edge">
<title>Node19&#45;&gt;Node20</title>
<g id="a_edge21_Node000019_Node000020"><a xlink:title=" ">
<path fill="none" stroke="#63b8ff" d="M425.21,-181.37C426.52,-172.07 428.64,-156.98 430.34,-144.9"/>
<polygon fill="#63b8ff" stroke="#63b8ff" points="433.82,-145.3 431.75,-134.91 426.89,-144.32 433.82,-145.3"/>
</a>
</g>
</g>
<!-- Node20&#45;&gt;Node6 -->
<g id="edge22_Node000020_Node000006" class="edge">
<title>Node20&#45;&gt;Node6</title>
<g id="a_edge22_Node000020_Node000006"><a xlink:title=" ">
<path fill="none" stroke="#63b8ff" d="M437.81,-115.47C448.23,-96.98 473.09,-52.9 487.05,-28.14"/>
<polygon fill="#63b8ff" stroke="#63b8ff" points="490.27,-29.56 492.13,-19.13 484.17,-26.12 490.27,-29.56"/>
</a>
</g>
</g>
<!-- Node21&#45;&gt;Node18 -->
<g id="edge25_Node000021_Node000018" class="edge">
<title>Node21&#45;&gt;Node18</title>
<g id="a_edge25_Node000021_Node000018"><a xlink:title=" ">
<path fill="none" stroke="#63b8ff" d="M263.69,-175.72C264.78,-153.12 266.9,-109.12 268.1,-84.09"/>
<polygon fill="#63b8ff" stroke="#63b8ff" points="271.6,-84.23 268.59,-74.07 264.61,-83.89 271.6,-84.23"/>
</a>
</g>
</g>
<!-- Node22&#45;&gt;Node18 -->
<g id="edge27_Node000022_Node000018" class="edge">
<title>Node22&#45;&gt;Node18</title>
<g id="a_edge27_Node000022_Node000018"><a xlink:title=" ">
<path fill="none" stroke="#63b8ff" d="M208.37,-109.84C220.57,-100.91 236.31,-89.41 248.69,-80.35"/>
<polygon fill="#63b8ff" stroke="#63b8ff" points="251.01,-82.99 257.01,-74.27 246.87,-77.34 251.01,-82.99"/>
</a>
</g>
</g>
<!-- Node23&#45;&gt;Node6 -->
<g id="edge29_Node000023_Node000006" class="edge">
<title>Node23&#45;&gt;Node6</title>
<g id="a_edge29_Node000023_Node000006"><a xlink:title=" ">
<path fill="none" stroke="#63b8ff" d="M669.9,-54.98C634.72,-45.93 578.93,-31.58 540.28,-21.64"/>
<polygon fill="#63b8ff" stroke="#63b8ff" points="540.91,-18.18 530.36,-19.08 539.17,-24.96 540.91,-18.18"/>
</a>
</g>
</g>
<!-- Node24&#45;&gt;Node6 -->
<g id="edge31_Node000024_Node000006" class="edge">
<title>Node24&#45;&gt;Node6</title>
<g id="a_edge31_Node000024_Node000006"><a xlink:title=" ">
<path fill="none" stroke="#63b8ff" d="M107.61,-241.93C104.29,-218.37 98.22,-151.65 128,-110 159.79,-65.54 186.06,-72.03 238,-55 309.12,-31.67 395.46,-19.97 448.3,-14.57"/>
<polygon fill="#63b8ff" stroke="#63b8ff" points="448.8,-18.04 458.41,-13.57 448.11,-11.07 448.8,-18.04"/>
</a>
</g>
</g>
<!-- Node25&#45;&gt;Node12 -->
<g id="edge33_Node000025_Node000012" class="edge">
<title>Node25&#45;&gt;Node12</title>
<g id="a_edge33_Node000025_Node000012"><a xlink:title=" ">
<path fill="none" stroke="#63b8ff" d="M523.7,-241.99C551.59,-231.99 598.07,-215.3 629.6,-203.99"/>
<polygon fill="#63b8ff" stroke="#63b8ff" points="631.04,-207.19 639.27,-200.52 628.68,-200.6 631.04,-207.19"/>
</a>
</g>
</g>
<!-- Node25&#45;&gt;Node26 -->
<g id="edge34_Node000025_Node000026" class="edge">
<title>Node25&#45;&gt;Node26</title>
<g id="a_edge34_Node000025_Node000026"><a xlink:title=" ">
<path fill="none" stroke="#63b8ff" d="M506.34,-241.87C512.7,-233.23 522.64,-219.7 530.57,-208.92"/>
<polygon fill="#63b8ff" stroke="#63b8ff" points="533.53,-210.8 536.63,-200.67 527.89,-206.65 533.53,-210.8"/>
</a>
</g>
</g>
<!-- Node26&#45;&gt;Node13 -->
<g id="edge35_Node000026_Node000013" class="edge">
<title>Node26&#45;&gt;Node13</title>
<g id="a_edge35_Node000026_Node000013"><a xlink:title=" ">
<path fill="none" stroke="#63b8ff" d="M546.24,-181.37C549.76,-171.97 555.5,-156.67 560.05,-144.53"/>
<polygon fill="#63b8ff" stroke="#63b8ff" points="563.43,-145.5 563.66,-134.91 556.87,-143.04 563.43,-145.5"/>
</a>
</g>
</g>
<!-- Node27&#45;&gt;Node12 -->
<g id="edge38_Node000027_Node000012" class="edge">
<title>Node27&#45;&gt;Node12</title>
<g id="a_edge38_Node000027_Node000012"><a xlink:title=" ">
<path fill="none" stroke="#63b8ff" d="M628.05,-241.87C634.11,-233.23 643.59,-219.7 651.14,-208.92"/>
<polygon fill="#63b8ff" stroke="#63b8ff" points="654.05,-210.87 656.93,-200.67 648.32,-206.85 654.05,-210.87"/>
</a>
</g>
</g>
<!-- Node28&#45;&gt;Node6 -->
<g id="edge40_Node000028_Node000006" class="edge">
<title>Node28&#45;&gt;Node6</title>
<g id="a_edge40_Node000028_Node000006"><a xlink:title=" ">
<path fill="none" stroke="#63b8ff" d="M80.22,-57.08C85.19,-56.35 90.21,-55.63 95,-55 222.15,-38.15 372.51,-22.69 448.23,-15.21"/>
<polygon fill="#63b8ff" stroke="#63b8ff" points="448.8,-18.68 458.41,-14.21 448.11,-11.71 448.8,-18.68"/>
</a>
</g>
</g>
<!-- Node29&#45;&gt;Node3 -->
<g id="edge44_Node000029_Node000003" class="edge">
<title>Node29&#45;&gt;Node3</title>
<g id="a_edge44_Node000029_Node000003"><a xlink:title=" ">
<path fill="none" stroke="#63b8ff" d="M890.67,-461.75C890.41,-454.8 890.03,-444.85 889.7,-436.13"/>
<polygon fill="#63b8ff" stroke="#63b8ff" points="893.2,-435.95 889.32,-426.09 886.2,-436.21 893.2,-435.95"/>
</a>
</g>
</g>
<!-- Node29&#45;&gt;Node4 -->
<g id="edge43_Node000029_Node000004" class="edge">
<title>Node29&#45;&gt;Node4</title>
<g id="a_edge43_Node000029_Node000004"><a xlink:title=" ">
<path fill="none" stroke="#63b8ff" d="M904.9,-461.93C916.66,-453.99 933.15,-441.14 943,-426 951.83,-412.44 956.69,-394.61 959.28,-381.3"/>
<polygon fill="#63b8ff" stroke="#63b8ff" points="962.74,-381.82 960.96,-371.38 955.84,-380.65 962.74,-381.82"/>
</a>
</g>
</g>
<!-- Node30&#45;&gt;Node3 -->
<g id="edge47_Node000030_Node000003" class="edge">
<title>Node30&#45;&gt;Node3</title>
<g id="a_edge47_Node000030_Node000003"><a xlink:title=" ">
<path fill="none" stroke="#63b8ff" d="M795.83,-461.98C813.61,-453.5 841.15,-440.35 861.68,-430.54"/>
<polygon fill="#63b8ff" stroke="#63b8ff" points="863.33,-433.64 870.84,-426.17 860.31,-427.32 863.33,-433.64"/>
</a>
</g>
</g>
<!-- Node30&#45;&gt;Node12 -->
<g id="edge46_Node000030_Node000012" class="edge">
<title>Node30&#45;&gt;Node12</title>
<g id="a_edge46_Node000030_Node000012"><a xlink:title=" ">
<path fill="none" stroke="#63b8ff" d="M778,-461.82C778,-443.48 778,-399.44 778,-362.5 778,-362.5 778,-362.5 778,-305.5 778,-257.3 726.18,-222.66 692.11,-205.1"/>
<polygon fill="#63b8ff" stroke="#63b8ff" points="693.55,-201.91 683.03,-200.61 690.44,-208.18 693.55,-201.91"/>
</a>
</g>
</g>
</g>
</svg>
