<?xml version="1.0" encoding="UTF-8" standalone="no"?>
<!DOCTYPE svg PUBLIC "-//W3C//DTD SVG 1.1//EN"
 "http://www.w3.org/Graphics/SVG/1.1/DTD/svg11.dtd">
<!-- Generated by graphviz version 2.43.0 (0)
 -->
<!-- Title: cact&#45;menubar&#45;tools.c Pages: 1 -->
<svg width="977pt" height="544pt"
 viewBox="0.00 0.00 977.03 544.00" xmlns="http://www.w3.org/2000/svg" xmlns:xlink="http://www.w3.org/1999/xlink">
<g id="graph0" class="graph" transform="scale(1 1) rotate(0) translate(4 540)">
<title>cact&#45;menubar&#45;tools.c</title>
<!-- Node1 -->
<g id="Node000001" class="node">
<title>Node1</title>
<g id="a_Node000001"><a xlink:title=" ">
<polygon fill="#999999" stroke="#666666" points="816.03,-536 696.03,-536 696.03,-517 816.03,-517 816.03,-536"/>
<text text-anchor="middle" x="756.03" y="-524" font-family="Helvetica,sans-Serif" font-size="10.00">cact&#45;menubar&#45;tools.c</text>
</a>
</g>
</g>
<!-- Node2 -->
<g id="Node000002" class="node">
<title>Node2</title>
<g id="a_Node000002"><a xlink:href="cact-assistant-export_8h.html" target="_top" xlink:title=" ">
<polygon fill="white" stroke="#666666" points="820.53,-481 691.53,-481 691.53,-462 820.53,-462 820.53,-481"/>
<text text-anchor="middle" x="756.03" y="-469" font-family="Helvetica,sans-Serif" font-size="10.00">cact&#45;assistant&#45;export.h</text>
</a>
</g>
</g>
<!-- Node1&#45;&gt;Node2 -->
<g id="edge1_Node000001_Node000002" class="edge">
<title>Node1&#45;&gt;Node2</title>
<g id="a_edge1_Node000001_Node000002"><a xlink:title=" ">
<path fill="none" stroke="#63b8ff" d="M756.03,-516.75C756.03,-509.8 756.03,-499.85 756.03,-491.13"/>
<polygon fill="#63b8ff" stroke="#63b8ff" points="759.53,-491.09 756.03,-481.09 752.53,-491.09 759.53,-491.09"/>
</a>
</g>
</g>
<!-- Node8 -->
<g id="Node000008" class="node">
<title>Node8</title>
<g id="a_Node000008"><a xlink:href="cact-assistant-import_8h.html" target="_top" xlink:title=" ">
<polygon fill="white" stroke="#666666" points="969.03,-481 839.03,-481 839.03,-462 969.03,-462 969.03,-481"/>
<text text-anchor="middle" x="904.03" y="-469" font-family="Helvetica,sans-Serif" font-size="10.00">cact&#45;assistant&#45;import.h</text>
</a>
</g>
</g>
<!-- Node1&#45;&gt;Node8 -->
<g id="edge7_Node000001_Node000008" class="edge">
<title>Node1&#45;&gt;Node8</title>
<g id="a_edge7_Node000001_Node000008"><a xlink:title=" ">
<path fill="none" stroke="#63b8ff" d="M779.81,-516.98C804.26,-508.23 842.57,-494.51 870.18,-484.62"/>
<polygon fill="#63b8ff" stroke="#63b8ff" points="871.59,-487.84 879.82,-481.17 869.23,-481.25 871.59,-487.84"/>
</a>
</g>
</g>
<!-- Node9 -->
<g id="Node000009" class="node">
<title>Node9</title>
<g id="a_Node000009"><a xlink:href="cact-menubar-priv_8h.html" target="_top" xlink:title=" ">
<polygon fill="white" stroke="#666666" points="673.53,-481 558.53,-481 558.53,-462 673.53,-462 673.53,-481"/>
<text text-anchor="middle" x="616.03" y="-469" font-family="Helvetica,sans-Serif" font-size="10.00">cact&#45;menubar&#45;priv.h</text>
</a>
</g>
</g>
<!-- Node1&#45;&gt;Node9 -->
<g id="edge9_Node000001_Node000009" class="edge">
<title>Node1&#45;&gt;Node9</title>
<g id="a_edge9_Node000001_Node000009"><a xlink:title=" ">
<path fill="none" stroke="#63b8ff" d="M733.54,-516.98C710.51,-508.27 674.49,-494.63 648.4,-484.75"/>
<polygon fill="#63b8ff" stroke="#63b8ff" points="649.53,-481.44 638.93,-481.17 647.05,-487.98 649.53,-481.44"/>
</a>
</g>
</g>
<!-- Node3 -->
<g id="Node000003" class="node">
<title>Node3</title>
<g id="a_Node000003"><a xlink:href="base-assistant_8h.html" target="_top" xlink:title=" ">
<polygon fill="white" stroke="#666666" points="896.53,-426 799.53,-426 799.53,-407 896.53,-407 896.53,-426"/>
<text text-anchor="middle" x="848.03" y="-414" font-family="Helvetica,sans-Serif" font-size="10.00">base&#45;assistant.h</text>
</a>
</g>
</g>
<!-- Node2&#45;&gt;Node3 -->
<g id="edge2_Node000002_Node000003" class="edge">
<title>Node2&#45;&gt;Node3</title>
<g id="a_edge2_Node000002_Node000003"><a xlink:title=" ">
<path fill="none" stroke="#63b8ff" d="M770.81,-461.98C785.21,-453.69 807.34,-440.94 824.22,-431.22"/>
<polygon fill="#63b8ff" stroke="#63b8ff" points="826.06,-434.19 832.98,-426.17 822.57,-428.13 826.06,-434.19"/>
</a>
</g>
</g>
<!-- Node4 -->
<g id="Node000004" class="node">
<title>Node4</title>
<g id="a_Node000004"><a xlink:href="base-window_8h.html" target="_top" xlink:title=" ">
<polygon fill="white" stroke="#666666" points="830.53,-371 741.53,-371 741.53,-352 830.53,-352 830.53,-371"/>
<text text-anchor="middle" x="786.03" y="-359" font-family="Helvetica,sans-Serif" font-size="10.00">base&#45;window.h</text>
</a>
</g>
</g>
<!-- Node3&#45;&gt;Node4 -->
<g id="edge3_Node000003_Node000004" class="edge">
<title>Node3&#45;&gt;Node4</title>
<g id="a_edge3_Node000003_Node000004"><a xlink:title=" ">
<path fill="none" stroke="#63b8ff" d="M838.07,-406.98C828.91,-399.15 815.09,-387.34 804,-377.86"/>
<polygon fill="#63b8ff" stroke="#63b8ff" points="806.05,-375.01 796.17,-371.17 801.5,-380.33 806.05,-375.01"/>
</a>
</g>
</g>
<!-- Node5 -->
<g id="Node000005" class="node">
<title>Node5</title>
<g id="a_Node000005"><a xlink:title=" ">
<polygon fill="#e0e0e0" stroke="#999999" points="874.03,-316 814.03,-316 814.03,-297 874.03,-297 874.03,-316"/>
<text text-anchor="middle" x="844.03" y="-304" font-family="Helvetica,sans-Serif" font-size="10.00">gtk/gtk.h</text>
</a>
</g>
</g>
<!-- Node4&#45;&gt;Node5 -->
<g id="edge4_Node000004_Node000005" class="edge">
<title>Node4&#45;&gt;Node5</title>
<g id="a_edge4_Node000004_Node000005"><a xlink:title=" ">
<path fill="none" stroke="#63b8ff" d="M795.35,-351.98C803.84,-344.23 816.59,-332.58 826.91,-323.14"/>
<polygon fill="#63b8ff" stroke="#63b8ff" points="829.52,-325.5 834.54,-316.17 824.8,-320.33 829.52,-325.5"/>
</a>
</g>
</g>
<!-- Node6 -->
<g id="Node000006" class="node">
<title>Node6</title>
<g id="a_Node000006"><a xlink:href="base-application_8h.html" target="_top" xlink:title=" ">
<polygon fill="white" stroke="#666666" points="835.53,-74 728.53,-74 728.53,-55 835.53,-55 835.53,-74"/>
<text text-anchor="middle" x="782.03" y="-62" font-family="Helvetica,sans-Serif" font-size="10.00">base&#45;application.h</text>
</a>
</g>
</g>
<!-- Node4&#45;&gt;Node6 -->
<g id="edge5_Node000004_Node000006" class="edge">
<title>Node4&#45;&gt;Node6</title>
<g id="a_edge5_Node000004_Node000006"><a xlink:title=" ">
<path fill="none" stroke="#63b8ff" d="M786.03,-351.82C786.03,-333.48 786.03,-289.44 786.03,-252.5 786.03,-252.5 786.03,-252.5 786.03,-190 786.03,-152.48 784.19,-108.62 783.01,-84.26"/>
<polygon fill="#63b8ff" stroke="#63b8ff" points="786.51,-84.06 782.51,-74.25 779.51,-84.41 786.51,-84.06"/>
</a>
</g>
</g>
<!-- Node7 -->
<g id="Node000007" class="node">
<title>Node7</title>
<g id="a_Node000007"><a xlink:title=" ">
<polygon fill="#e0e0e0" stroke="#999999" points="406.53,-19 329.53,-19 329.53,0 406.53,0 406.53,-19"/>
<text text-anchor="middle" x="368.03" y="-7" font-family="Helvetica,sans-Serif" font-size="10.00">glib&#45;object.h</text>
</a>
</g>
</g>
<!-- Node6&#45;&gt;Node7 -->
<g id="edge6_Node000006_Node000007" class="edge">
<title>Node6&#45;&gt;Node7</title>
<g id="a_edge6_Node000006_Node000007"><a xlink:title=" ">
<path fill="none" stroke="#63b8ff" d="M728.33,-56.63C647.2,-46.24 494.57,-26.7 416.58,-16.72"/>
<polygon fill="#63b8ff" stroke="#63b8ff" points="416.91,-13.23 406.55,-15.43 416.02,-20.17 416.91,-13.23"/>
</a>
</g>
</g>
<!-- Node8&#45;&gt;Node3 -->
<g id="edge8_Node000008_Node000003" class="edge">
<title>Node8&#45;&gt;Node3</title>
<g id="a_edge8_Node000008_Node000003"><a xlink:title=" ">
<path fill="none" stroke="#63b8ff" d="M895.03,-461.98C886.84,-454.23 874.53,-442.58 864.56,-433.14"/>
<polygon fill="#63b8ff" stroke="#63b8ff" points="866.86,-430.5 857.19,-426.17 862.05,-435.59 866.86,-430.5"/>
</a>
</g>
</g>
<!-- Node10 -->
<g id="Node000010" class="node">
<title>Node10</title>
<g id="a_Node000010"><a xlink:href="na-updater_8h.html" target="_top" xlink:title=" ">
<polygon fill="white" stroke="#666666" points="512.03,-426 410.03,-426 410.03,-407 512.03,-407 512.03,-426"/>
<text text-anchor="middle" x="461.03" y="-414" font-family="Helvetica,sans-Serif" font-size="10.00">core/na&#45;updater.h</text>
</a>
</g>
</g>
<!-- Node9&#45;&gt;Node10 -->
<g id="edge10_Node000009_Node000010" class="edge">
<title>Node9&#45;&gt;Node10</title>
<g id="a_edge10_Node000009_Node000010"><a xlink:title=" ">
<path fill="none" stroke="#63b8ff" d="M591.13,-461.98C565.33,-453.16 524.81,-439.31 495.85,-429.41"/>
<polygon fill="#63b8ff" stroke="#63b8ff" points="496.73,-426.01 486.13,-426.08 494.46,-432.63 496.73,-426.01"/>
</a>
</g>
</g>
<!-- Node30 -->
<g id="Node000030" class="node">
<title>Node30</title>
<g id="a_Node000030"><a xlink:href="cact-menubar_8h.html" target="_top" xlink:title=" ">
<polygon fill="white" stroke="#666666" points="781.03,-426 689.03,-426 689.03,-407 781.03,-407 781.03,-426"/>
<text text-anchor="middle" x="735.03" y="-414" font-family="Helvetica,sans-Serif" font-size="10.00">cact&#45;menubar.h</text>
</a>
</g>
</g>
<!-- Node9&#45;&gt;Node30 -->
<g id="edge43_Node000009_Node000030" class="edge">
<title>Node9&#45;&gt;Node30</title>
<g id="a_edge43_Node000009_Node000030"><a xlink:title=" ">
<path fill="none" stroke="#63b8ff" d="M635.15,-461.98C654.38,-453.42 684.27,-440.11 706.34,-430.28"/>
<polygon fill="#63b8ff" stroke="#63b8ff" points="707.85,-433.44 715.56,-426.17 705.01,-427.04 707.85,-433.44"/>
</a>
</g>
</g>
<!-- Node31 -->
<g id="Node000031" class="node">
<title>Node31</title>
<g id="a_Node000031"><a xlink:href="cact-sort-buttons_8h.html" target="_top" xlink:title=" ">
<polygon fill="white" stroke="#666666" points="670.53,-426 561.53,-426 561.53,-407 670.53,-407 670.53,-426"/>
<text text-anchor="middle" x="616.03" y="-414" font-family="Helvetica,sans-Serif" font-size="10.00">cact&#45;sort&#45;buttons.h</text>
</a>
</g>
</g>
<!-- Node9&#45;&gt;Node31 -->
<g id="edge45_Node000009_Node000031" class="edge">
<title>Node9&#45;&gt;Node31</title>
<g id="a_edge45_Node000009_Node000031"><a xlink:title=" ">
<path fill="none" stroke="#63b8ff" d="M616.03,-461.75C616.03,-454.8 616.03,-444.85 616.03,-436.13"/>
<polygon fill="#63b8ff" stroke="#63b8ff" points="619.53,-436.09 616.03,-426.09 612.53,-436.09 619.53,-436.09"/>
</a>
</g>
</g>
<!-- Node11 -->
<g id="Node000011" class="node">
<title>Node11</title>
<g id="a_Node000011"><a xlink:href="na-pivot_8h.html" target="_top" xlink:title=" ">
<polygon fill="white" stroke="#666666" points="443.03,-371 377.03,-371 377.03,-352 443.03,-352 443.03,-371"/>
<text text-anchor="middle" x="410.03" y="-359" font-family="Helvetica,sans-Serif" font-size="10.00">na&#45;pivot.h</text>
</a>
</g>
</g>
<!-- Node10&#45;&gt;Node11 -->
<g id="edge11_Node000010_Node000011" class="edge">
<title>Node10&#45;&gt;Node11</title>
<g id="a_edge11_Node000010_Node000011"><a xlink:title=" ">
<path fill="none" stroke="#63b8ff" d="M452.61,-406.75C445.26,-399.11 434.4,-387.82 425.49,-378.56"/>
<polygon fill="#63b8ff" stroke="#63b8ff" points="427.75,-375.87 418.3,-371.09 422.71,-380.72 427.75,-375.87"/>
</a>
</g>
</g>
<!-- Node12 -->
<g id="Node000012" class="node">
<title>Node12</title>
<g id="a_Node000012"><a xlink:href="na-iio-provider_8h.html" target="_top" xlink:title=" ">
<polygon fill="white" stroke="#666666" points="123.53,-316 8.53,-316 8.53,-297 123.53,-297 123.53,-316"/>
<text text-anchor="middle" x="66.03" y="-304" font-family="Helvetica,sans-Serif" font-size="10.00">api/na&#45;iio&#45;provider.h</text>
</a>
</g>
</g>
<!-- Node11&#45;&gt;Node12 -->
<g id="edge12_Node000011_Node000012" class="edge">
<title>Node11&#45;&gt;Node12</title>
<g id="a_edge12_Node000011_Node000012"><a xlink:title=" ">
<path fill="none" stroke="#63b8ff" d="M376.74,-355.37C320.21,-346.66 204.51,-328.83 131.35,-317.56"/>
<polygon fill="#63b8ff" stroke="#63b8ff" points="131.74,-314.08 121.32,-316.02 130.67,-321 131.74,-314.08"/>
</a>
</g>
</g>
<!-- Node16 -->
<g id="Node000016" class="node">
<title>Node16</title>
<g id="a_Node000016"><a xlink:href="na-object-api_8h.html" target="_top" xlink:title=" ">
<polygon fill="white" stroke="#666666" points="402.03,-316 294.03,-316 294.03,-297 402.03,-297 402.03,-316"/>
<text text-anchor="middle" x="348.03" y="-304" font-family="Helvetica,sans-Serif" font-size="10.00">api/na&#45;object&#45;api.h</text>
</a>
</g>
</g>
<!-- Node11&#45;&gt;Node16 -->
<g id="edge17_Node000011_Node000016" class="edge">
<title>Node11&#45;&gt;Node16</title>
<g id="a_edge17_Node000011_Node000016"><a xlink:title=" ">
<path fill="none" stroke="#63b8ff" d="M400.07,-351.98C390.91,-344.15 377.09,-332.34 366,-322.86"/>
<polygon fill="#63b8ff" stroke="#63b8ff" points="368.05,-320.01 358.17,-316.17 363.5,-325.33 368.05,-320.01"/>
</a>
</g>
</g>
<!-- Node29 -->
<g id="Node000029" class="node">
<title>Node29</title>
<g id="a_Node000029"><a xlink:href="na-settings_8h.html" target="_top" xlink:title=" ">
<polygon fill="white" stroke="#666666" points="758.03,-134.5 678.03,-134.5 678.03,-115.5 758.03,-115.5 758.03,-134.5"/>
<text text-anchor="middle" x="718.03" y="-122.5" font-family="Helvetica,sans-Serif" font-size="10.00">na&#45;settings.h</text>
</a>
</g>
</g>
<!-- Node11&#45;&gt;Node29 -->
<g id="edge41_Node000011_Node000029" class="edge">
<title>Node11&#45;&gt;Node29</title>
<g id="a_edge41_Node000011_Node000029"><a xlink:title=" ">
<path fill="none" stroke="#63b8ff" d="M443.16,-357.29C498.9,-350.12 611.55,-327.79 675.03,-261 706.01,-228.41 714.67,-173.52 717.09,-144.8"/>
<polygon fill="#63b8ff" stroke="#63b8ff" points="720.6,-144.76 717.78,-134.55 713.62,-144.29 720.6,-144.76"/>
</a>
</g>
</g>
<!-- Node13 -->
<g id="Node000013" class="node">
<title>Node13</title>
<g id="a_Node000013"><a xlink:href="na-object-item_8h.html" target="_top" xlink:title=" ">
<polygon fill="white" stroke="#666666" points="114.03,-200.5 16.03,-200.5 16.03,-181.5 114.03,-181.5 114.03,-200.5"/>
<text text-anchor="middle" x="65.03" y="-188.5" font-family="Helvetica,sans-Serif" font-size="10.00">na&#45;object&#45;item.h</text>
</a>
</g>
</g>
<!-- Node12&#45;&gt;Node13 -->
<g id="edge13_Node000012_Node000013" class="edge">
<title>Node12&#45;&gt;Node13</title>
<g id="a_edge13_Node000012_Node000013"><a xlink:title=" ">
<path fill="none" stroke="#63b8ff" d="M44.88,-296.93C30.2,-289.73 11.78,-277.88 3.03,-261 -8.37,-238.98 16.38,-218.48 37.92,-205.64"/>
<polygon fill="#63b8ff" stroke="#63b8ff" points="39.83,-208.58 46.83,-200.63 36.4,-202.48 39.83,-208.58"/>
</a>
</g>
</g>
<!-- Node14 -->
<g id="Node000014" class="node">
<title>Node14</title>
<g id="a_Node000014"><a xlink:href="na-object-id_8h.html" target="_top" xlink:title=" ">
<polygon fill="white" stroke="#666666" points="144.03,-134.5 60.03,-134.5 60.03,-115.5 144.03,-115.5 144.03,-134.5"/>
<text text-anchor="middle" x="102.03" y="-122.5" font-family="Helvetica,sans-Serif" font-size="10.00">na&#45;object&#45;id.h</text>
</a>
</g>
</g>
<!-- Node13&#45;&gt;Node14 -->
<g id="edge14_Node000013_Node000014" class="edge">
<title>Node13&#45;&gt;Node14</title>
<g id="a_edge14_Node000013_Node000014"><a xlink:title=" ">
<path fill="none" stroke="#63b8ff" d="M70.02,-181.37C75.56,-171.78 84.66,-156.05 91.74,-143.8"/>
<polygon fill="#63b8ff" stroke="#63b8ff" points="94.91,-145.31 96.88,-134.91 88.85,-141.81 94.91,-145.31"/>
</a>
</g>
</g>
<!-- Node15 -->
<g id="Node000015" class="node">
<title>Node15</title>
<g id="a_Node000015"><a xlink:href="na-object_8h.html" target="_top" xlink:title=" ">
<polygon fill="white" stroke="#666666" points="137.53,-74 66.53,-74 66.53,-55 137.53,-55 137.53,-74"/>
<text text-anchor="middle" x="102.03" y="-62" font-family="Helvetica,sans-Serif" font-size="10.00">na&#45;object.h</text>
</a>
</g>
</g>
<!-- Node14&#45;&gt;Node15 -->
<g id="edge15_Node000014_Node000015" class="edge">
<title>Node14&#45;&gt;Node15</title>
<g id="a_edge15_Node000014_Node000015"><a xlink:title=" ">
<path fill="none" stroke="#63b8ff" d="M102.03,-115.37C102.03,-107.25 102.03,-94.81 102.03,-84.39"/>
<polygon fill="#63b8ff" stroke="#63b8ff" points="105.53,-84.17 102.03,-74.17 98.53,-84.17 105.53,-84.17"/>
</a>
</g>
</g>
<!-- Node15&#45;&gt;Node7 -->
<g id="edge16_Node000015_Node000007" class="edge">
<title>Node15&#45;&gt;Node7</title>
<g id="a_edge16_Node000015_Node000007"><a xlink:title=" ">
<path fill="none" stroke="#63b8ff" d="M137.63,-56.41C184.35,-47.1 266.56,-30.72 319.1,-20.25"/>
<polygon fill="#63b8ff" stroke="#63b8ff" points="320.07,-23.63 329.19,-18.24 318.7,-16.76 320.07,-23.63"/>
</a>
</g>
</g>
<!-- Node17 -->
<g id="Node000017" class="node">
<title>Node17</title>
<g id="a_Node000017"><a xlink:href="na-ifactory-object_8h.html" target="_top" xlink:title=" ">
<polygon fill="white" stroke="#666666" points="460.53,-261 347.53,-261 347.53,-242 460.53,-242 460.53,-261"/>
<text text-anchor="middle" x="404.03" y="-249" font-family="Helvetica,sans-Serif" font-size="10.00">na&#45;ifactory&#45;object.h</text>
</a>
</g>
</g>
<!-- Node16&#45;&gt;Node17 -->
<g id="edge18_Node000016_Node000017" class="edge">
<title>Node16&#45;&gt;Node17</title>
<g id="a_edge18_Node000016_Node000017"><a xlink:title=" ">
<path fill="none" stroke="#63b8ff" d="M357.03,-296.98C365.23,-289.23 377.54,-277.58 387.5,-268.14"/>
<polygon fill="#63b8ff" stroke="#63b8ff" points="390.01,-270.59 394.87,-261.17 385.2,-265.5 390.01,-270.59"/>
</a>
</g>
</g>
<!-- Node23 -->
<g id="Node000023" class="node">
<title>Node23</title>
<g id="a_Node000023"><a xlink:href="na-ifactory-object-data_8h.html" target="_top" xlink:title=" ">
<polygon fill="white" stroke="#666666" points="614.03,-206 510.03,-206 510.03,-176 614.03,-176 614.03,-206"/>
<text text-anchor="start" x="518.03" y="-194" font-family="Helvetica,sans-Serif" font-size="10.00">na&#45;ifactory&#45;object</text>
<text text-anchor="middle" x="562.03" y="-183" font-family="Helvetica,sans-Serif" font-size="10.00">&#45;data.h</text>
</a>
</g>
</g>
<!-- Node16&#45;&gt;Node23 -->
<g id="edge28_Node000016_Node000023" class="edge">
<title>Node16&#45;&gt;Node23</title>
<g id="a_edge28_Node000016_Node000023"><a xlink:title=" ">
<path fill="none" stroke="#63b8ff" d="M378.4,-296.98C403.51,-289.33 439.69,-276.85 469.03,-261 494.19,-247.41 520.1,-227.62 538.16,-212.72"/>
<polygon fill="#63b8ff" stroke="#63b8ff" points="540.45,-215.36 545.87,-206.26 535.96,-210 540.45,-215.36"/>
</a>
</g>
</g>
<!-- Node24 -->
<g id="Node000024" class="node">
<title>Node24</title>
<g id="a_Node000024"><a xlink:href="na-iduplicable_8h.html" target="_top" xlink:title=" ">
<polygon fill="white" stroke="#666666" points="250.53,-74 155.53,-74 155.53,-55 250.53,-55 250.53,-74"/>
<text text-anchor="middle" x="203.03" y="-62" font-family="Helvetica,sans-Serif" font-size="10.00">na&#45;iduplicable.h</text>
</a>
</g>
</g>
<!-- Node16&#45;&gt;Node24 -->
<g id="edge30_Node000016_Node000024" class="edge">
<title>Node16&#45;&gt;Node24</title>
<g id="a_edge30_Node000016_Node000024"><a xlink:title=" ">
<path fill="none" stroke="#63b8ff" d="M342.36,-296.78C331.19,-279.56 305.64,-239.89 285.03,-206 258.36,-162.14 228.22,-109.72 212.99,-83.02"/>
<polygon fill="#63b8ff" stroke="#63b8ff" points="215.91,-81.07 207.92,-74.12 209.82,-84.54 215.91,-81.07"/>
</a>
</g>
</g>
<!-- Node25 -->
<g id="Node000025" class="node">
<title>Node25</title>
<g id="a_Node000025"><a xlink:href="na-icontext_8h.html" target="_top" xlink:title=" ">
<polygon fill="white" stroke="#666666" points="665.53,-261 584.53,-261 584.53,-242 665.53,-242 665.53,-261"/>
<text text-anchor="middle" x="625.03" y="-249" font-family="Helvetica,sans-Serif" font-size="10.00">na&#45;icontext.h</text>
</a>
</g>
</g>
<!-- Node16&#45;&gt;Node25 -->
<g id="edge32_Node000016_Node000025" class="edge">
<title>Node16&#45;&gt;Node25</title>
<g id="a_edge32_Node000016_Node000025"><a xlink:title=" ">
<path fill="none" stroke="#63b8ff" d="M392.54,-296.98C442.14,-287.49 522.21,-272.17 574.24,-262.22"/>
<polygon fill="#63b8ff" stroke="#63b8ff" points="575.08,-265.62 584.25,-260.3 573.77,-258.75 575.08,-265.62"/>
</a>
</g>
</g>
<!-- Node26 -->
<g id="Node000026" class="node">
<title>Node26</title>
<g id="a_Node000026"><a xlink:href="na-object-action_8h.html" target="_top" xlink:title=" ">
<polygon fill="white" stroke="#666666" points="238.53,-261 133.53,-261 133.53,-242 238.53,-242 238.53,-261"/>
<text text-anchor="middle" x="186.03" y="-249" font-family="Helvetica,sans-Serif" font-size="10.00">na&#45;object&#45;action.h</text>
</a>
</g>
</g>
<!-- Node16&#45;&gt;Node26 -->
<g id="edge34_Node000016_Node000026" class="edge">
<title>Node16&#45;&gt;Node26</title>
<g id="a_edge34_Node000016_Node000026"><a xlink:title=" ">
<path fill="none" stroke="#63b8ff" d="M322,-296.98C294.92,-288.13 252.32,-274.19 222.03,-264.28"/>
<polygon fill="#63b8ff" stroke="#63b8ff" points="222.86,-260.87 212.26,-261.08 220.68,-267.52 222.86,-260.87"/>
</a>
</g>
</g>
<!-- Node27 -->
<g id="Node000027" class="node">
<title>Node27</title>
<g id="a_Node000027"><a xlink:href="na-object-profile_8h.html" target="_top" xlink:title=" ">
<polygon fill="white" stroke="#666666" points="238.03,-200.5 132.03,-200.5 132.03,-181.5 238.03,-181.5 238.03,-200.5"/>
<text text-anchor="middle" x="185.03" y="-188.5" font-family="Helvetica,sans-Serif" font-size="10.00">na&#45;object&#45;profile.h</text>
</a>
</g>
</g>
<!-- Node16&#45;&gt;Node27 -->
<g id="edge38_Node000016_Node000027" class="edge">
<title>Node16&#45;&gt;Node27</title>
<g id="a_edge38_Node000016_Node000027"><a xlink:title=" ">
<path fill="none" stroke="#63b8ff" d="M335.78,-296.97C308.05,-277.66 240.22,-230.43 205.8,-206.46"/>
<polygon fill="#63b8ff" stroke="#63b8ff" points="207.63,-203.47 197.43,-200.63 203.63,-209.22 207.63,-203.47"/>
</a>
</g>
</g>
<!-- Node28 -->
<g id="Node000028" class="node">
<title>Node28</title>
<g id="a_Node000028"><a xlink:href="na-object-menu_8h.html" target="_top" xlink:title=" ">
<polygon fill="white" stroke="#666666" points="115.53,-261 12.53,-261 12.53,-242 115.53,-242 115.53,-261"/>
<text text-anchor="middle" x="64.03" y="-249" font-family="Helvetica,sans-Serif" font-size="10.00">na&#45;object&#45;menu.h</text>
</a>
</g>
</g>
<!-- Node16&#45;&gt;Node28 -->
<g id="edge39_Node000016_Node000028" class="edge">
<title>Node16&#45;&gt;Node28</title>
<g id="a_edge39_Node000016_Node000028"><a xlink:title=" ">
<path fill="none" stroke="#63b8ff" d="M302.4,-296.98C252.76,-287.72 173.37,-272.9 120,-262.94"/>
<polygon fill="#63b8ff" stroke="#63b8ff" points="120.49,-259.48 110.02,-261.08 119.21,-266.36 120.49,-259.48"/>
</a>
</g>
</g>
<!-- Node18 -->
<g id="Node000018" class="node">
<title>Node18</title>
<g id="a_Node000018"><a xlink:href="na-data-def_8h.html" target="_top" xlink:title=" ">
<polygon fill="white" stroke="#666666" points="452.03,-134.5 370.03,-134.5 370.03,-115.5 452.03,-115.5 452.03,-134.5"/>
<text text-anchor="middle" x="411.03" y="-122.5" font-family="Helvetica,sans-Serif" font-size="10.00">na&#45;data&#45;def.h</text>
</a>
</g>
</g>
<!-- Node17&#45;&gt;Node18 -->
<g id="edge19_Node000017_Node000018" class="edge">
<title>Node17&#45;&gt;Node18</title>
<g id="a_edge19_Node000017_Node000018"><a xlink:title=" ">
<path fill="none" stroke="#63b8ff" d="M404.51,-241.94C405.63,-222.04 408.43,-172.26 409.97,-144.85"/>
<polygon fill="#63b8ff" stroke="#63b8ff" points="413.48,-144.8 410.55,-134.62 406.49,-144.4 413.48,-144.8"/>
</a>
</g>
</g>
<!-- Node20 -->
<g id="Node000020" class="node">
<title>Node20</title>
<g id="a_Node000020"><a xlink:href="na-data-boxed_8h.html" target="_top" xlink:title=" ">
<polygon fill="white" stroke="#666666" points="390.03,-200.5 294.03,-200.5 294.03,-181.5 390.03,-181.5 390.03,-200.5"/>
<text text-anchor="middle" x="342.03" y="-188.5" font-family="Helvetica,sans-Serif" font-size="10.00">na&#45;data&#45;boxed.h</text>
</a>
</g>
</g>
<!-- Node17&#45;&gt;Node20 -->
<g id="edge21_Node000017_Node000020" class="edge">
<title>Node17&#45;&gt;Node20</title>
<g id="a_edge21_Node000017_Node000020"><a xlink:title=" ">
<path fill="none" stroke="#63b8ff" d="M394.88,-241.87C385.36,-232.88 370.24,-218.61 358.6,-207.64"/>
<polygon fill="#63b8ff" stroke="#63b8ff" points="360.89,-204.98 351.22,-200.67 356.09,-210.08 360.89,-204.98"/>
</a>
</g>
</g>
<!-- Node22 -->
<g id="Node000022" class="node">
<title>Node22</title>
<g id="a_Node000022"><a xlink:href="na-ifactory-provider-provider_8h.html" target="_top" xlink:title=" ">
<polygon fill="white" stroke="#666666" points="584.03,-140 470.03,-140 470.03,-110 584.03,-110 584.03,-140"/>
<text text-anchor="start" x="478.03" y="-128" font-family="Helvetica,sans-Serif" font-size="10.00">na&#45;ifactory&#45;provider</text>
<text text-anchor="middle" x="527.03" y="-117" font-family="Helvetica,sans-Serif" font-size="10.00">&#45;provider.h</text>
</a>
</g>
</g>
<!-- Node17&#45;&gt;Node22 -->
<g id="edge26_Node000017_Node000022" class="edge">
<title>Node17&#45;&gt;Node22</title>
<g id="a_edge26_Node000017_Node000022"><a xlink:title=" ">
<path fill="none" stroke="#63b8ff" d="M412.49,-241.94C431.54,-222.66 478.3,-175.33 505.83,-147.46"/>
<polygon fill="#63b8ff" stroke="#63b8ff" points="508.5,-149.73 513.04,-140.16 503.52,-144.81 508.5,-149.73"/>
</a>
</g>
</g>
<!-- Node19 -->
<g id="Node000019" class="node">
<title>Node19</title>
<g id="a_Node000019"><a xlink:title=" ">
<polygon fill="#e0e0e0" stroke="#999999" points="549.03,-74 505.03,-74 505.03,-55 549.03,-55 549.03,-74"/>
<text text-anchor="middle" x="527.03" y="-62" font-family="Helvetica,sans-Serif" font-size="10.00">glib.h</text>
</a>
</g>
</g>
<!-- Node18&#45;&gt;Node19 -->
<g id="edge20_Node000018_Node000019" class="edge">
<title>Node18&#45;&gt;Node19</title>
<g id="a_edge20_Node000018_Node000019"><a xlink:title=" ">
<path fill="none" stroke="#63b8ff" d="M428.15,-115.37C447.25,-105.73 478.4,-90.03 500.63,-78.81"/>
<polygon fill="#63b8ff" stroke="#63b8ff" points="502.49,-81.8 509.85,-74.17 499.34,-75.55 502.49,-81.8"/>
</a>
</g>
</g>
<!-- Node20&#45;&gt;Node7 -->
<g id="edge22_Node000020_Node000007" class="edge">
<title>Node20&#45;&gt;Node7</title>
<g id="a_edge22_Node000020_Node000007"><a xlink:title=" ">
<path fill="none" stroke="#63b8ff" d="M343.29,-181.34C347.28,-153.8 359.74,-67.76 365.3,-29.34"/>
<polygon fill="#63b8ff" stroke="#63b8ff" points="368.82,-29.47 366.79,-19.07 361.89,-28.47 368.82,-29.47"/>
</a>
</g>
</g>
<!-- Node20&#45;&gt;Node18 -->
<g id="edge25_Node000020_Node000018" class="edge">
<title>Node20&#45;&gt;Node18</title>
<g id="a_edge25_Node000020_Node000018"><a xlink:title=" ">
<path fill="none" stroke="#63b8ff" d="M351.34,-181.37C362.18,-171.31 380.33,-154.48 393.77,-142.01"/>
<polygon fill="#63b8ff" stroke="#63b8ff" points="396.48,-144.27 401.43,-134.91 391.72,-139.14 396.48,-144.27"/>
</a>
</g>
</g>
<!-- Node21 -->
<g id="Node000021" class="node">
<title>Node21</title>
<g id="a_Node000021"><a xlink:href="na-boxed_8h.html" target="_top" xlink:title=" ">
<polygon fill="white" stroke="#666666" points="339.53,-74 268.53,-74 268.53,-55 339.53,-55 339.53,-74"/>
<text text-anchor="middle" x="304.03" y="-62" font-family="Helvetica,sans-Serif" font-size="10.00">na&#45;boxed.h</text>
</a>
</g>
</g>
<!-- Node20&#45;&gt;Node21 -->
<g id="edge23_Node000020_Node000021" class="edge">
<title>Node20&#45;&gt;Node21</title>
<g id="a_edge23_Node000020_Node000021"><a xlink:title=" ">
<path fill="none" stroke="#63b8ff" d="M339.42,-181.44C333.32,-161.45 318.02,-111.32 309.67,-83.98"/>
<polygon fill="#63b8ff" stroke="#63b8ff" points="312.93,-82.66 306.66,-74.12 306.23,-84.7 312.93,-82.66"/>
</a>
</g>
</g>
<!-- Node21&#45;&gt;Node7 -->
<g id="edge24_Node000021_Node000007" class="edge">
<title>Node21&#45;&gt;Node7</title>
<g id="a_edge24_Node000021_Node000007"><a xlink:title=" ">
<path fill="none" stroke="#63b8ff" d="M314.31,-54.98C323.87,-47.07 338.31,-35.11 349.82,-25.58"/>
<polygon fill="#63b8ff" stroke="#63b8ff" points="352.09,-28.24 357.56,-19.17 347.63,-22.85 352.09,-28.24"/>
</a>
</g>
</g>
<!-- Node22&#45;&gt;Node19 -->
<g id="edge27_Node000022_Node000019" class="edge">
<title>Node22&#45;&gt;Node19</title>
<g id="a_edge27_Node000022_Node000019"><a xlink:title=" ">
<path fill="none" stroke="#63b8ff" d="M527.03,-109.84C527.03,-102.21 527.03,-92.7 527.03,-84.45"/>
<polygon fill="#63b8ff" stroke="#63b8ff" points="530.53,-84.27 527.03,-74.27 523.53,-84.27 530.53,-84.27"/>
</a>
</g>
</g>
<!-- Node23&#45;&gt;Node19 -->
<g id="edge29_Node000023_Node000019" class="edge">
<title>Node23&#45;&gt;Node19</title>
<g id="a_edge29_Node000023_Node000019"><a xlink:title=" ">
<path fill="none" stroke="#63b8ff" d="M574.67,-175.97C587.76,-159.64 604.78,-132.09 593.03,-110 585.55,-95.92 571.4,-85.5 558.12,-78.29"/>
<polygon fill="#63b8ff" stroke="#63b8ff" points="559.67,-75.15 549.16,-73.81 556.54,-81.41 559.67,-75.15"/>
</a>
</g>
</g>
<!-- Node24&#45;&gt;Node7 -->
<g id="edge31_Node000024_Node000007" class="edge">
<title>Node24&#45;&gt;Node7</title>
<g id="a_edge31_Node000024_Node000007"><a xlink:title=" ">
<path fill="none" stroke="#63b8ff" d="M229.54,-54.98C257.24,-46.09 300.89,-32.07 331.77,-22.15"/>
<polygon fill="#63b8ff" stroke="#63b8ff" points="332.86,-25.47 341.31,-19.08 330.72,-18.81 332.86,-25.47"/>
</a>
</g>
</g>
<!-- Node25&#45;&gt;Node7 -->
<g id="edge33_Node000025_Node000007" class="edge">
<title>Node25&#45;&gt;Node7</title>
<g id="a_edge33_Node000025_Node000007"><a xlink:title=" ">
<path fill="none" stroke="#63b8ff" d="M625.31,-241.75C625.64,-227.79 625.83,-199.64 623.03,-176 615.85,-115.38 610.81,-85.68 558.03,-55 514.38,-29.63 457.17,-18.71 416.97,-14.02"/>
<polygon fill="#63b8ff" stroke="#63b8ff" points="417.2,-10.53 406.88,-12.94 416.45,-17.49 417.2,-10.53"/>
</a>
</g>
</g>
<!-- Node26&#45;&gt;Node13 -->
<g id="edge35_Node000026_Node000013" class="edge">
<title>Node26&#45;&gt;Node13</title>
<g id="a_edge35_Node000026_Node000013"><a xlink:title=" ">
<path fill="none" stroke="#63b8ff" d="M168.44,-241.99C148.27,-232.25 115.01,-216.16 91.67,-204.88"/>
<polygon fill="#63b8ff" stroke="#63b8ff" points="93.17,-201.72 82.65,-200.52 90.13,-208.02 93.17,-201.72"/>
</a>
</g>
</g>
<!-- Node26&#45;&gt;Node27 -->
<g id="edge36_Node000026_Node000027" class="edge">
<title>Node26&#45;&gt;Node27</title>
<g id="a_edge36_Node000026_Node000027"><a xlink:title=" ">
<path fill="none" stroke="#63b8ff" d="M185.88,-241.87C185.75,-233.75 185.53,-221.31 185.35,-210.89"/>
<polygon fill="#63b8ff" stroke="#63b8ff" points="188.85,-210.61 185.18,-200.67 181.85,-210.73 188.85,-210.61"/>
</a>
</g>
</g>
<!-- Node27&#45;&gt;Node14 -->
<g id="edge37_Node000027_Node000014" class="edge">
<title>Node27&#45;&gt;Node14</title>
<g id="a_edge37_Node000027_Node000014"><a xlink:title=" ">
<path fill="none" stroke="#63b8ff" d="M173.84,-181.37C160.47,-171.06 137.88,-153.65 121.61,-141.09"/>
<polygon fill="#63b8ff" stroke="#63b8ff" points="123.37,-138.03 113.31,-134.7 119.1,-143.58 123.37,-138.03"/>
</a>
</g>
</g>
<!-- Node28&#45;&gt;Node13 -->
<g id="edge40_Node000028_Node000013" class="edge">
<title>Node28&#45;&gt;Node13</title>
<g id="a_edge40_Node000028_Node000013"><a xlink:title=" ">
<path fill="none" stroke="#63b8ff" d="M64.18,-241.87C64.32,-233.75 64.53,-221.31 64.71,-210.89"/>
<polygon fill="#63b8ff" stroke="#63b8ff" points="68.21,-210.73 64.88,-200.67 61.21,-210.61 68.21,-210.73"/>
</a>
</g>
</g>
<!-- Node29&#45;&gt;Node7 -->
<g id="edge42_Node000029_Node000007" class="edge">
<title>Node29&#45;&gt;Node7</title>
<g id="a_edge42_Node000029_Node000007"><a xlink:title=" ">
<path fill="none" stroke="#63b8ff" d="M713.86,-115.03C706.28,-99.87 688.74,-69.41 664.03,-55 623.06,-31.11 490.05,-18.66 417.06,-13.49"/>
<polygon fill="#63b8ff" stroke="#63b8ff" points="416.97,-9.97 406.75,-12.78 416.48,-16.96 416.97,-9.97"/>
</a>
</g>
</g>
<!-- Node30&#45;&gt;Node4 -->
<g id="edge44_Node000030_Node000004" class="edge">
<title>Node30&#45;&gt;Node4</title>
<g id="a_edge44_Node000030_Node000004"><a xlink:title=" ">
<path fill="none" stroke="#63b8ff" d="M743.45,-406.75C750.81,-399.11 761.66,-387.82 770.57,-378.56"/>
<polygon fill="#63b8ff" stroke="#63b8ff" points="773.36,-380.72 777.77,-371.09 768.31,-375.87 773.36,-380.72"/>
</a>
</g>
</g>
<!-- Node31&#45;&gt;Node4 -->
<g id="edge46_Node000031_Node000004" class="edge">
<title>Node31&#45;&gt;Node4</title>
<g id="a_edge46_Node000031_Node000004"><a xlink:title=" ">
<path fill="none" stroke="#63b8ff" d="M643.35,-406.98C671.89,-398.09 716.86,-384.07 748.67,-374.15"/>
<polygon fill="#63b8ff" stroke="#63b8ff" points="750,-377.4 758.5,-371.08 747.92,-370.72 750,-377.4"/>
</a>
</g>
</g>
</g>
</svg>
