<?xml version="1.0" encoding="UTF-8" standalone="no"?>
<!DOCTYPE svg PUBLIC "-//W3C//DTD SVG 1.1//EN"
 "http://www.w3.org/Graphics/SVG/1.1/DTD/svg11.dtd">
<!-- Generated by graphviz version 2.43.0 (0)
 -->
<!-- Title: cact&#45;tree&#45;ieditable.c Pages: 1 -->
<svg width="1158pt" height="588pt"
 viewBox="0.00 0.00 1157.50 588.00" xmlns="http://www.w3.org/2000/svg" xmlns:xlink="http://www.w3.org/1999/xlink">
<g id="graph0" class="graph" transform="scale(1 1) rotate(0) translate(4 584)">
<title>cact&#45;tree&#45;ieditable.c</title>
<!-- Node1 -->
<g id="Node000001" class="node">
<title>Node1</title>
<g id="a_Node000001"><a xlink:title=" ">
<polygon fill="#999999" stroke="#666666" points="705,-580 590,-580 590,-561 705,-561 705,-580"/>
<text text-anchor="middle" x="647.5" y="-568" font-family="Helvetica,sans-Serif" font-size="10.00">cact&#45;tree&#45;ieditable.c</text>
</a>
</g>
</g>
<!-- Node2 -->
<g id="Node000002" class="node">
<title>Node2</title>
<g id="a_Node000002"><a xlink:href="na-core-utils_8h.html" target="_top" xlink:title=" ">
<polygon fill="white" stroke="#666666" points="125,-415 20,-415 20,-396 125,-396 125,-415"/>
<text text-anchor="middle" x="72.5" y="-403" font-family="Helvetica,sans-Serif" font-size="10.00">api/na&#45;core&#45;utils.h</text>
</a>
</g>
</g>
<!-- Node1&#45;&gt;Node2 -->
<g id="edge1_Node000001_Node000002" class="edge">
<title>Node1&#45;&gt;Node2</title>
<g id="a_edge1_Node000001_Node000002"><a xlink:title=" ">
<path fill="none" stroke="#63b8ff" d="M589.69,-567.38C489.6,-563.07 288.5,-551.34 223.5,-525 165.81,-501.62 111.92,-449.28 86.99,-422.68"/>
<polygon fill="#63b8ff" stroke="#63b8ff" points="89.3,-420.01 79.95,-415.02 84.14,-424.75 89.3,-420.01"/>
</a>
</g>
</g>
<!-- Node4 -->
<g id="Node000004" class="node">
<title>Node4</title>
<g id="a_Node000004"><a xlink:href="na-object-api_8h.html" target="_top" xlink:title=" ">
<polygon fill="white" stroke="#666666" points="586.5,-305 478.5,-305 478.5,-286 586.5,-286 586.5,-305"/>
<text text-anchor="middle" x="532.5" y="-293" font-family="Helvetica,sans-Serif" font-size="10.00">api/na&#45;object&#45;api.h</text>
</a>
</g>
</g>
<!-- Node1&#45;&gt;Node4 -->
<g id="edge3_Node000001_Node000004" class="edge">
<title>Node1&#45;&gt;Node4</title>
<g id="a_edge3_Node000001_Node000004"><a xlink:title=" ">
<path fill="none" stroke="#63b8ff" d="M589.8,-566.9C521.38,-560.35 416.5,-537.87 416.5,-461.5 416.5,-461.5 416.5,-461.5 416.5,-404.5 416.5,-357.97 467.11,-325.79 501.48,-309.3"/>
<polygon fill="#63b8ff" stroke="#63b8ff" points="503.06,-312.43 510.68,-305.07 500.13,-306.07 503.06,-312.43"/>
</a>
</g>
</g>
<!-- Node20 -->
<g id="Node000020" class="node">
<title>Node20</title>
<g id="a_Node000020"><a xlink:href="na-factory-object_8h.html" target="_top" xlink:title=" ">
<polygon fill="white" stroke="#666666" points="366.5,-525 232.5,-525 232.5,-506 366.5,-506 366.5,-525"/>
<text text-anchor="middle" x="299.5" y="-513" font-family="Helvetica,sans-Serif" font-size="10.00">core/na&#45;factory&#45;object.h</text>
</a>
</g>
</g>
<!-- Node1&#45;&gt;Node20 -->
<g id="edge30_Node000001_Node000020" class="edge">
<title>Node1&#45;&gt;Node20</title>
<g id="a_edge30_Node000001_Node000020"><a xlink:title=" ">
<path fill="none" stroke="#63b8ff" d="M591.59,-560.98C530.04,-551.61 431.16,-536.55 365.76,-526.59"/>
<polygon fill="#63b8ff" stroke="#63b8ff" points="365.97,-523.08 355.56,-525.04 364.92,-530 365.97,-523.08"/>
</a>
</g>
</g>
<!-- Node22 -->
<g id="Node000022" class="node">
<title>Node22</title>
<g id="a_Node000022"><a xlink:href="na-updater_8h.html" target="_top" xlink:title=" ">
<polygon fill="white" stroke="#666666" points="747.5,-415 645.5,-415 645.5,-396 747.5,-396 747.5,-415"/>
<text text-anchor="middle" x="696.5" y="-403" font-family="Helvetica,sans-Serif" font-size="10.00">core/na&#45;updater.h</text>
</a>
</g>
</g>
<!-- Node1&#45;&gt;Node22 -->
<g id="edge35_Node000001_Node000022" class="edge">
<title>Node1&#45;&gt;Node22</title>
<g id="a_edge35_Node000001_Node000022"><a xlink:title=" ">
<path fill="none" stroke="#63b8ff" d="M643.87,-560.89C635.88,-540.53 618.9,-488.33 637.5,-451 644.07,-437.82 656.6,-427.52 668.43,-420.16"/>
<polygon fill="#63b8ff" stroke="#63b8ff" points="670.3,-423.12 677.23,-415.1 666.82,-417.05 670.3,-423.12"/>
</a>
</g>
</g>
<!-- Node26 -->
<g id="Node000026" class="node">
<title>Node26</title>
<g id="a_Node000026"><a xlink:href="base-keysyms_8h.html" target="_top" xlink:title=" ">
<polygon fill="white" stroke="#666666" points="584.5,-525 488.5,-525 488.5,-506 584.5,-506 584.5,-525"/>
<text text-anchor="middle" x="536.5" y="-513" font-family="Helvetica,sans-Serif" font-size="10.00">base&#45;keysyms.h</text>
</a>
</g>
</g>
<!-- Node1&#45;&gt;Node26 -->
<g id="edge42_Node000001_Node000026" class="edge">
<title>Node1&#45;&gt;Node26</title>
<g id="a_edge42_Node000001_Node000026"><a xlink:title=" ">
<path fill="none" stroke="#63b8ff" d="M629.67,-560.98C611.89,-552.5 584.35,-539.35 563.82,-529.54"/>
<polygon fill="#63b8ff" stroke="#63b8ff" points="565.19,-526.32 554.66,-525.17 562.17,-532.64 565.19,-526.32"/>
</a>
</g>
</g>
<!-- Node29 -->
<g id="Node000029" class="node">
<title>Node29</title>
<g id="a_Node000029"><a xlink:href="cact-application_8h.html" target="_top" xlink:title=" ">
<polygon fill="white" stroke="#666666" points="750.5,-470 646.5,-470 646.5,-451 750.5,-451 750.5,-470"/>
<text text-anchor="middle" x="698.5" y="-458" font-family="Helvetica,sans-Serif" font-size="10.00">cact&#45;application.h</text>
</a>
</g>
</g>
<!-- Node1&#45;&gt;Node29 -->
<g id="edge45_Node000001_Node000029" class="edge">
<title>Node1&#45;&gt;Node29</title>
<g id="a_edge45_Node000001_Node000029"><a xlink:title=" ">
<path fill="none" stroke="#63b8ff" d="M651.67,-560.66C660.05,-542.93 679.03,-502.73 690.09,-479.32"/>
<polygon fill="#63b8ff" stroke="#63b8ff" points="693.31,-480.7 694.41,-470.16 686.98,-477.71 693.31,-480.7"/>
</a>
</g>
</g>
<!-- Node31 -->
<g id="Node000031" class="node">
<title>Node31</title>
<g id="a_Node000031"><a xlink:href="cact-main-window_8h.html" target="_top" xlink:title=" ">
<polygon fill="white" stroke="#666666" points="813,-525 698,-525 698,-506 813,-506 813,-525"/>
<text text-anchor="middle" x="755.5" y="-513" font-family="Helvetica,sans-Serif" font-size="10.00">cact&#45;main&#45;window.h</text>
</a>
</g>
</g>
<!-- Node1&#45;&gt;Node31 -->
<g id="edge49_Node000001_Node000031" class="edge">
<title>Node1&#45;&gt;Node31</title>
<g id="a_edge49_Node000001_Node000031"><a xlink:title=" ">
<path fill="none" stroke="#63b8ff" d="M664.85,-560.98C682.07,-552.54 708.7,-539.47 728.65,-529.68"/>
<polygon fill="#63b8ff" stroke="#63b8ff" points="730.4,-532.72 737.83,-525.17 727.31,-526.43 730.4,-532.72"/>
</a>
</g>
</g>
<!-- Node34 -->
<g id="Node000034" class="node">
<title>Node34</title>
<g id="a_Node000034"><a xlink:href="cact-tree-view_8h.html" target="_top" xlink:title=" ">
<polygon fill="white" stroke="#666666" points="977,-470 882,-470 882,-451 977,-451 977,-470"/>
<text text-anchor="middle" x="929.5" y="-458" font-family="Helvetica,sans-Serif" font-size="10.00">cact&#45;tree&#45;view.h</text>
</a>
</g>
</g>
<!-- Node1&#45;&gt;Node34 -->
<g id="edge65_Node000001_Node000034" class="edge">
<title>Node1&#45;&gt;Node34</title>
<g id="a_edge65_Node000001_Node000034"><a xlink:title=" ">
<path fill="none" stroke="#63b8ff" d="M696.61,-560.93C732.37,-553.77 781.51,-541.96 822.5,-525 854.49,-511.76 888.37,-490.21 909.23,-475.94"/>
<polygon fill="#63b8ff" stroke="#63b8ff" points="911.37,-478.72 917.58,-470.14 907.37,-472.97 911.37,-478.72"/>
</a>
</g>
</g>
<!-- Node35 -->
<g id="Node000035" class="node">
<title>Node35</title>
<g id="a_Node000035"><a xlink:href="cact-tree-ieditable_8h.html" target="_top" xlink:title=" ">
<polygon fill="white" stroke="#666666" points="1149.5,-470 1033.5,-470 1033.5,-451 1149.5,-451 1149.5,-470"/>
<text text-anchor="middle" x="1091.5" y="-458" font-family="Helvetica,sans-Serif" font-size="10.00">cact&#45;tree&#45;ieditable.h</text>
</a>
</g>
</g>
<!-- Node1&#45;&gt;Node35 -->
<g id="edge59_Node000001_Node000035" class="edge">
<title>Node1&#45;&gt;Node35</title>
<g id="a_edge59_Node000001_Node000035"><a xlink:title=" ">
<path fill="none" stroke="#63b8ff" d="M705.1,-569.5C774.7,-567.83 894.44,-559.54 990.5,-525 1021.94,-513.7 1053.86,-491.43 1073.17,-476.5"/>
<polygon fill="#63b8ff" stroke="#63b8ff" points="1075.43,-479.17 1081.11,-470.22 1071.09,-473.68 1075.43,-479.17"/>
</a>
</g>
</g>
<!-- Node36 -->
<g id="Node000036" class="node">
<title>Node36</title>
<g id="a_Node000036"><a xlink:href="cact-tree-model_8h.html" target="_top" xlink:title=" ">
<polygon fill="white" stroke="#666666" points="981.5,-525 877.5,-525 877.5,-506 981.5,-506 981.5,-525"/>
<text text-anchor="middle" x="929.5" y="-513" font-family="Helvetica,sans-Serif" font-size="10.00">cact&#45;tree&#45;model.h</text>
</a>
</g>
</g>
<!-- Node1&#45;&gt;Node36 -->
<g id="edge62_Node000001_Node000036" class="edge">
<title>Node1&#45;&gt;Node36</title>
<g id="a_edge62_Node000001_Node000036"><a xlink:title=" ">
<path fill="none" stroke="#63b8ff" d="M692.81,-560.98C742.1,-551.72 820.93,-536.9 873.93,-526.94"/>
<polygon fill="#63b8ff" stroke="#63b8ff" points="874.66,-530.37 883.84,-525.08 873.36,-523.49 874.66,-530.37"/>
</a>
</g>
</g>
<!-- Node3 -->
<g id="Node000003" class="node">
<title>Node3</title>
<g id="a_Node000003"><a xlink:title=" ">
<polygon fill="#e0e0e0" stroke="#999999" points="267.5,-74 223.5,-74 223.5,-55 267.5,-55 267.5,-74"/>
<text text-anchor="middle" x="245.5" y="-62" font-family="Helvetica,sans-Serif" font-size="10.00">glib.h</text>
</a>
</g>
</g>
<!-- Node2&#45;&gt;Node3 -->
<g id="edge2_Node000002_Node000003" class="edge">
<title>Node2&#45;&gt;Node3</title>
<g id="a_edge2_Node000002_Node000003"><a xlink:title=" ">
<path fill="none" stroke="#63b8ff" d="M69.53,-395.94C63.53,-377.83 50.5,-334.2 50.5,-296.5 50.5,-296.5 50.5,-296.5 50.5,-239.5 50.5,-205.33 49.41,-192.64 69.5,-165 105.36,-115.66 173.63,-87.45 213.79,-74.43"/>
<polygon fill="#63b8ff" stroke="#63b8ff" points="214.85,-77.76 223.36,-71.44 212.77,-71.08 214.85,-77.76"/>
</a>
</g>
</g>
<!-- Node5 -->
<g id="Node000005" class="node">
<title>Node5</title>
<g id="a_Node000005"><a xlink:href="na-ifactory-object_8h.html" target="_top" xlink:title=" ">
<polygon fill="white" stroke="#666666" points="268,-250 155,-250 155,-231 268,-231 268,-250"/>
<text text-anchor="middle" x="211.5" y="-238" font-family="Helvetica,sans-Serif" font-size="10.00">na&#45;ifactory&#45;object.h</text>
</a>
</g>
</g>
<!-- Node4&#45;&gt;Node5 -->
<g id="edge4_Node000004_Node000005" class="edge">
<title>Node4&#45;&gt;Node5</title>
<g id="a_edge4_Node000004_Node000005"><a xlink:title=" ">
<path fill="none" stroke="#63b8ff" d="M480.93,-285.98C424.38,-276.65 333.69,-261.67 273.36,-251.71"/>
<polygon fill="#63b8ff" stroke="#63b8ff" points="273.65,-248.21 263.21,-250.04 272.51,-255.12 273.65,-248.21"/>
</a>
</g>
</g>
<!-- Node11 -->
<g id="Node000011" class="node">
<title>Node11</title>
<g id="a_Node000011"><a xlink:href="na-ifactory-object-data_8h.html" target="_top" xlink:title=" ">
<polygon fill="white" stroke="#666666" points="466.5,-195 362.5,-195 362.5,-165 466.5,-165 466.5,-195"/>
<text text-anchor="start" x="370.5" y="-183" font-family="Helvetica,sans-Serif" font-size="10.00">na&#45;ifactory&#45;object</text>
<text text-anchor="middle" x="414.5" y="-172" font-family="Helvetica,sans-Serif" font-size="10.00">&#45;data.h</text>
</a>
</g>
</g>
<!-- Node4&#45;&gt;Node11 -->
<g id="edge14_Node000004_Node000011" class="edge">
<title>Node4&#45;&gt;Node11</title>
<g id="a_edge14_Node000004_Node000011"><a xlink:title=" ">
<path fill="none" stroke="#63b8ff" d="M521.87,-285.93C511.17,-277.18 494.31,-263.07 480.5,-250 464.39,-234.76 447.1,-216.61 434.26,-202.75"/>
<polygon fill="#63b8ff" stroke="#63b8ff" points="436.6,-200.13 427.25,-195.14 431.45,-204.87 436.6,-200.13"/>
</a>
</g>
</g>
<!-- Node12 -->
<g id="Node000012" class="node">
<title>Node12</title>
<g id="a_Node000012"><a xlink:href="na-iduplicable_8h.html" target="_top" xlink:title=" ">
<polygon fill="white" stroke="#666666" points="504,-129 409,-129 409,-110 504,-110 504,-129"/>
<text text-anchor="middle" x="456.5" y="-117" font-family="Helvetica,sans-Serif" font-size="10.00">na&#45;iduplicable.h</text>
</a>
</g>
</g>
<!-- Node4&#45;&gt;Node12 -->
<g id="edge16_Node000004_Node000012" class="edge">
<title>Node4&#45;&gt;Node12</title>
<g id="a_edge16_Node000004_Node000012"><a xlink:title=" ">
<path fill="none" stroke="#63b8ff" d="M528.63,-285.63C516.73,-258.4 480.57,-175.61 464.43,-138.65"/>
<polygon fill="#63b8ff" stroke="#63b8ff" points="467.49,-136.91 460.28,-129.14 461.07,-139.71 467.49,-136.91"/>
</a>
</g>
</g>
<!-- Node13 -->
<g id="Node000013" class="node">
<title>Node13</title>
<g id="a_Node000013"><a xlink:href="na-icontext_8h.html" target="_top" xlink:title=" ">
<polygon fill="white" stroke="#666666" points="573,-74 492,-74 492,-55 573,-55 573,-74"/>
<text text-anchor="middle" x="532.5" y="-62" font-family="Helvetica,sans-Serif" font-size="10.00">na&#45;icontext.h</text>
</a>
</g>
</g>
<!-- Node4&#45;&gt;Node13 -->
<g id="edge18_Node000004_Node000013" class="edge">
<title>Node4&#45;&gt;Node13</title>
<g id="a_edge18_Node000004_Node000013"><a xlink:title=" ">
<path fill="none" stroke="#63b8ff" d="M532.5,-285.8C532.5,-252.36 532.5,-131.59 532.5,-84.49"/>
<polygon fill="#63b8ff" stroke="#63b8ff" points="536,-84.21 532.5,-74.21 529,-84.21 536,-84.21"/>
</a>
</g>
</g>
<!-- Node14 -->
<g id="Node000014" class="node">
<title>Node14</title>
<g id="a_Node000014"><a xlink:href="na-object-action_8h.html" target="_top" xlink:title=" ">
<polygon fill="white" stroke="#666666" points="704,-250 599,-250 599,-231 704,-231 704,-250"/>
<text text-anchor="middle" x="651.5" y="-238" font-family="Helvetica,sans-Serif" font-size="10.00">na&#45;object&#45;action.h</text>
</a>
</g>
</g>
<!-- Node4&#45;&gt;Node14 -->
<g id="edge20_Node000004_Node000014" class="edge">
<title>Node4&#45;&gt;Node14</title>
<g id="a_edge20_Node000004_Node000014"><a xlink:title=" ">
<path fill="none" stroke="#63b8ff" d="M551.62,-285.98C570.85,-277.42 600.73,-264.11 622.81,-254.28"/>
<polygon fill="#63b8ff" stroke="#63b8ff" points="624.32,-257.44 632.03,-250.17 621.47,-251.04 624.32,-257.44"/>
</a>
</g>
</g>
<!-- Node18 -->
<g id="Node000018" class="node">
<title>Node18</title>
<g id="a_Node000018"><a xlink:href="na-object-profile_8h.html" target="_top" xlink:title=" ">
<polygon fill="white" stroke="#666666" points="704.5,-189.5 598.5,-189.5 598.5,-170.5 704.5,-170.5 704.5,-189.5"/>
<text text-anchor="middle" x="651.5" y="-177.5" font-family="Helvetica,sans-Serif" font-size="10.00">na&#45;object&#45;profile.h</text>
</a>
</g>
</g>
<!-- Node4&#45;&gt;Node18 -->
<g id="edge27_Node000004_Node000018" class="edge">
<title>Node4&#45;&gt;Node18</title>
<g id="a_edge27_Node000004_Node000018"><a xlink:title=" ">
<path fill="none" stroke="#63b8ff" d="M539.64,-285.92C550.24,-273.37 570.99,-249.49 590.5,-231 603.62,-218.57 619.42,-205.67 631.65,-196.08"/>
<polygon fill="#63b8ff" stroke="#63b8ff" points="634.08,-198.63 639.84,-189.75 629.79,-193.1 634.08,-198.63"/>
</a>
</g>
</g>
<!-- Node19 -->
<g id="Node000019" class="node">
<title>Node19</title>
<g id="a_Node000019"><a xlink:href="na-object-menu_8h.html" target="_top" xlink:title=" ">
<polygon fill="white" stroke="#666666" points="825,-250 722,-250 722,-231 825,-231 825,-250"/>
<text text-anchor="middle" x="773.5" y="-238" font-family="Helvetica,sans-Serif" font-size="10.00">na&#45;object&#45;menu.h</text>
</a>
</g>
</g>
<!-- Node4&#45;&gt;Node19 -->
<g id="edge28_Node000004_Node000019" class="edge">
<title>Node4&#45;&gt;Node19</title>
<g id="a_edge28_Node000004_Node000019"><a xlink:title=" ">
<path fill="none" stroke="#63b8ff" d="M571.22,-285.98C612.91,-276.82 679.32,-262.21 724.59,-252.26"/>
<polygon fill="#63b8ff" stroke="#63b8ff" points="725.46,-255.65 734.48,-250.08 723.96,-248.81 725.46,-255.65"/>
</a>
</g>
</g>
<!-- Node6 -->
<g id="Node000006" class="node">
<title>Node6</title>
<g id="a_Node000006"><a xlink:href="na-data-def_8h.html" target="_top" xlink:title=" ">
<polygon fill="white" stroke="#666666" points="247.5,-129 165.5,-129 165.5,-110 247.5,-110 247.5,-129"/>
<text text-anchor="middle" x="206.5" y="-117" font-family="Helvetica,sans-Serif" font-size="10.00">na&#45;data&#45;def.h</text>
</a>
</g>
</g>
<!-- Node5&#45;&gt;Node6 -->
<g id="edge5_Node000005_Node000006" class="edge">
<title>Node5&#45;&gt;Node6</title>
<g id="a_edge5_Node000005_Node000006"><a xlink:title=" ">
<path fill="none" stroke="#63b8ff" d="M211.14,-230.94C210.34,-211.91 208.4,-165.69 207.3,-139.47"/>
<polygon fill="#63b8ff" stroke="#63b8ff" points="210.79,-139.15 206.87,-129.3 203.79,-139.44 210.79,-139.15"/>
</a>
</g>
</g>
<!-- Node7 -->
<g id="Node000007" class="node">
<title>Node7</title>
<g id="a_Node000007"><a xlink:href="na-data-boxed_8h.html" target="_top" xlink:title=" ">
<polygon fill="white" stroke="#666666" points="174.5,-189.5 78.5,-189.5 78.5,-170.5 174.5,-170.5 174.5,-189.5"/>
<text text-anchor="middle" x="126.5" y="-177.5" font-family="Helvetica,sans-Serif" font-size="10.00">na&#45;data&#45;boxed.h</text>
</a>
</g>
</g>
<!-- Node5&#45;&gt;Node7 -->
<g id="edge7_Node000005_Node000007" class="edge">
<title>Node5&#45;&gt;Node7</title>
<g id="a_edge7_Node000005_Node000007"><a xlink:title=" ">
<path fill="none" stroke="#63b8ff" d="M198.96,-230.87C185.4,-221.54 163.56,-206.51 147.4,-195.38"/>
<polygon fill="#63b8ff" stroke="#63b8ff" points="149.32,-192.45 139.09,-189.67 145.35,-198.22 149.32,-192.45"/>
</a>
</g>
</g>
<!-- Node10 -->
<g id="Node000010" class="node">
<title>Node10</title>
<g id="a_Node000010"><a xlink:href="na-ifactory-provider-provider_8h.html" target="_top" xlink:title=" ">
<polygon fill="white" stroke="#666666" points="344.5,-195 230.5,-195 230.5,-165 344.5,-165 344.5,-195"/>
<text text-anchor="start" x="238.5" y="-183" font-family="Helvetica,sans-Serif" font-size="10.00">na&#45;ifactory&#45;provider</text>
<text text-anchor="middle" x="287.5" y="-172" font-family="Helvetica,sans-Serif" font-size="10.00">&#45;provider.h</text>
</a>
</g>
</g>
<!-- Node5&#45;&gt;Node10 -->
<g id="edge12_Node000005_Node000010" class="edge">
<title>Node5&#45;&gt;Node10</title>
<g id="a_edge12_Node000005_Node000010"><a xlink:title=" ">
<path fill="none" stroke="#63b8ff" d="M222.71,-230.87C232.74,-223.15 247.83,-211.54 260.92,-201.46"/>
<polygon fill="#63b8ff" stroke="#63b8ff" points="263.37,-203.99 269.16,-195.11 259.1,-198.44 263.37,-203.99"/>
</a>
</g>
</g>
<!-- Node6&#45;&gt;Node3 -->
<g id="edge6_Node000006_Node000003" class="edge">
<title>Node6&#45;&gt;Node3</title>
<g id="a_edge6_Node000006_Node000003"><a xlink:title=" ">
<path fill="none" stroke="#63b8ff" d="M212.94,-109.75C218.39,-102.34 226.36,-91.5 233.06,-82.41"/>
<polygon fill="#63b8ff" stroke="#63b8ff" points="236.07,-84.22 239.18,-74.09 230.43,-80.07 236.07,-84.22"/>
</a>
</g>
</g>
<!-- Node7&#45;&gt;Node6 -->
<g id="edge11_Node000007_Node000006" class="edge">
<title>Node7&#45;&gt;Node6</title>
<g id="a_edge11_Node000007_Node000006"><a xlink:title=" ">
<path fill="none" stroke="#63b8ff" d="M138.3,-170.37C150.95,-161.12 171.24,-146.28 186.41,-135.19"/>
<polygon fill="#63b8ff" stroke="#63b8ff" points="188.64,-137.9 194.65,-129.17 184.51,-132.24 188.64,-137.9"/>
</a>
</g>
</g>
<!-- Node8 -->
<g id="Node000008" class="node">
<title>Node8</title>
<g id="a_Node000008"><a xlink:title=" ">
<polygon fill="#e0e0e0" stroke="#999999" points="571,-19 494,-19 494,0 571,0 571,-19"/>
<text text-anchor="middle" x="532.5" y="-7" font-family="Helvetica,sans-Serif" font-size="10.00">glib&#45;object.h</text>
</a>
</g>
</g>
<!-- Node7&#45;&gt;Node8 -->
<g id="edge8_Node000007_Node000008" class="edge">
<title>Node7&#45;&gt;Node8</title>
<g id="a_edge8_Node000007_Node000008"><a xlink:title=" ">
<path fill="none" stroke="#63b8ff" d="M129.01,-170.37C133.25,-156.72 142.71,-129.69 156.5,-110 176.88,-80.9 182.5,-70.42 214.5,-55 260.97,-32.61 406.41,-19.34 483.46,-13.7"/>
<polygon fill="#63b8ff" stroke="#63b8ff" points="484.14,-17.16 493.87,-12.96 483.64,-10.18 484.14,-17.16"/>
</a>
</g>
</g>
<!-- Node9 -->
<g id="Node000009" class="node">
<title>Node9</title>
<g id="a_Node000009"><a xlink:href="na-boxed_8h.html" target="_top" xlink:title=" ">
<polygon fill="white" stroke="#666666" points="71,-129 0,-129 0,-110 71,-110 71,-129"/>
<text text-anchor="middle" x="35.5" y="-117" font-family="Helvetica,sans-Serif" font-size="10.00">na&#45;boxed.h</text>
</a>
</g>
</g>
<!-- Node7&#45;&gt;Node9 -->
<g id="edge9_Node000007_Node000009" class="edge">
<title>Node7&#45;&gt;Node9</title>
<g id="a_edge9_Node000007_Node000009"><a xlink:title=" ">
<path fill="none" stroke="#63b8ff" d="M113.07,-170.37C98.42,-160.95 74.74,-145.73 57.4,-134.58"/>
<polygon fill="#63b8ff" stroke="#63b8ff" points="59.29,-131.63 48.98,-129.17 55.5,-137.52 59.29,-131.63"/>
</a>
</g>
</g>
<!-- Node9&#45;&gt;Node8 -->
<g id="edge10_Node000009_Node000008" class="edge">
<title>Node9&#45;&gt;Node8</title>
<g id="a_edge10_Node000009_Node000008"><a xlink:title=" ">
<path fill="none" stroke="#63b8ff" d="M39.54,-109.67C46.59,-95.38 62.61,-67.55 85.5,-55 153.03,-17.97 382.44,-11.59 483.74,-10.61"/>
<polygon fill="#63b8ff" stroke="#63b8ff" points="484.03,-14.11 494,-10.52 483.97,-7.11 484.03,-14.11"/>
</a>
</g>
</g>
<!-- Node10&#45;&gt;Node3 -->
<g id="edge13_Node000010_Node000003" class="edge">
<title>Node10&#45;&gt;Node3</title>
<g id="a_edge13_Node000010_Node000003"><a xlink:title=" ">
<path fill="none" stroke="#63b8ff" d="M282.18,-164.63C274.56,-144.03 260.53,-106.12 252.21,-83.63"/>
<polygon fill="#63b8ff" stroke="#63b8ff" points="255.48,-82.39 248.73,-74.23 248.92,-84.82 255.48,-82.39"/>
</a>
</g>
</g>
<!-- Node11&#45;&gt;Node3 -->
<g id="edge15_Node000011_Node000003" class="edge">
<title>Node11&#45;&gt;Node3</title>
<g id="a_edge15_Node000011_Node000003"><a xlink:title=" ">
<path fill="none" stroke="#63b8ff" d="M393.44,-164.85C361.09,-143.13 299.5,-101.77 266.93,-79.89"/>
<polygon fill="#63b8ff" stroke="#63b8ff" points="268.81,-76.94 258.56,-74.27 264.91,-82.75 268.81,-76.94"/>
</a>
</g>
</g>
<!-- Node12&#45;&gt;Node8 -->
<g id="edge17_Node000012_Node000008" class="edge">
<title>Node12&#45;&gt;Node8</title>
<g id="a_edge17_Node000012_Node000008"><a xlink:title=" ">
<path fill="none" stroke="#63b8ff" d="M458.92,-109.68C462.74,-96.83 471.01,-72.58 483.5,-55 491.43,-43.84 502.59,-33.43 512.25,-25.49"/>
<polygon fill="#63b8ff" stroke="#63b8ff" points="514.56,-28.13 520.24,-19.19 510.22,-22.64 514.56,-28.13"/>
</a>
</g>
</g>
<!-- Node13&#45;&gt;Node8 -->
<g id="edge19_Node000013_Node000008" class="edge">
<title>Node13&#45;&gt;Node8</title>
<g id="a_edge19_Node000013_Node000008"><a xlink:title=" ">
<path fill="none" stroke="#63b8ff" d="M532.5,-54.75C532.5,-47.8 532.5,-37.85 532.5,-29.13"/>
<polygon fill="#63b8ff" stroke="#63b8ff" points="536,-29.09 532.5,-19.09 529,-29.09 536,-29.09"/>
</a>
</g>
</g>
<!-- Node15 -->
<g id="Node000015" class="node">
<title>Node15</title>
<g id="a_Node000015"><a xlink:href="na-object-item_8h.html" target="_top" xlink:title=" ">
<polygon fill="white" stroke="#666666" points="843.5,-189.5 745.5,-189.5 745.5,-170.5 843.5,-170.5 843.5,-189.5"/>
<text text-anchor="middle" x="794.5" y="-177.5" font-family="Helvetica,sans-Serif" font-size="10.00">na&#45;object&#45;item.h</text>
</a>
</g>
</g>
<!-- Node14&#45;&gt;Node15 -->
<g id="edge21_Node000014_Node000015" class="edge">
<title>Node14&#45;&gt;Node15</title>
<g id="a_edge21_Node000014_Node000015"><a xlink:title=" ">
<path fill="none" stroke="#63b8ff" d="M672.29,-230.99C696.44,-221.12 736.48,-204.73 764.12,-193.43"/>
<polygon fill="#63b8ff" stroke="#63b8ff" points="765.75,-196.54 773.68,-189.52 763.1,-190.06 765.75,-196.54"/>
</a>
</g>
</g>
<!-- Node14&#45;&gt;Node18 -->
<g id="edge25_Node000014_Node000018" class="edge">
<title>Node14&#45;&gt;Node18</title>
<g id="a_edge25_Node000014_Node000018"><a xlink:title=" ">
<path fill="none" stroke="#63b8ff" d="M651.5,-230.87C651.5,-222.75 651.5,-210.31 651.5,-199.89"/>
<polygon fill="#63b8ff" stroke="#63b8ff" points="655,-199.67 651.5,-189.67 648,-199.67 655,-199.67"/>
</a>
</g>
</g>
<!-- Node16 -->
<g id="Node000016" class="node">
<title>Node16</title>
<g id="a_Node000016"><a xlink:href="na-object-id_8h.html" target="_top" xlink:title=" ">
<polygon fill="white" stroke="#666666" points="836.5,-129 752.5,-129 752.5,-110 836.5,-110 836.5,-129"/>
<text text-anchor="middle" x="794.5" y="-117" font-family="Helvetica,sans-Serif" font-size="10.00">na&#45;object&#45;id.h</text>
</a>
</g>
</g>
<!-- Node15&#45;&gt;Node16 -->
<g id="edge22_Node000015_Node000016" class="edge">
<title>Node15&#45;&gt;Node16</title>
<g id="a_edge22_Node000015_Node000016"><a xlink:title=" ">
<path fill="none" stroke="#63b8ff" d="M794.5,-170.37C794.5,-162.25 794.5,-149.81 794.5,-139.39"/>
<polygon fill="#63b8ff" stroke="#63b8ff" points="798,-139.17 794.5,-129.17 791,-139.17 798,-139.17"/>
</a>
</g>
</g>
<!-- Node17 -->
<g id="Node000017" class="node">
<title>Node17</title>
<g id="a_Node000017"><a xlink:href="na-object_8h.html" target="_top" xlink:title=" ">
<polygon fill="white" stroke="#666666" points="1035,-74 964,-74 964,-55 1035,-55 1035,-74"/>
<text text-anchor="middle" x="999.5" y="-62" font-family="Helvetica,sans-Serif" font-size="10.00">na&#45;object.h</text>
</a>
</g>
</g>
<!-- Node16&#45;&gt;Node17 -->
<g id="edge23_Node000016_Node000017" class="edge">
<title>Node16&#45;&gt;Node17</title>
<g id="a_edge23_Node000016_Node000017"><a xlink:title=" ">
<path fill="none" stroke="#63b8ff" d="M827.44,-109.98C862.45,-100.93 917.97,-86.58 956.43,-76.64"/>
<polygon fill="#63b8ff" stroke="#63b8ff" points="957.5,-79.97 966.31,-74.08 955.75,-73.2 957.5,-79.97"/>
</a>
</g>
</g>
<!-- Node17&#45;&gt;Node8 -->
<g id="edge24_Node000017_Node000008" class="edge">
<title>Node17&#45;&gt;Node8</title>
<g id="a_edge24_Node000017_Node000008"><a xlink:title=" ">
<path fill="none" stroke="#63b8ff" d="M963.98,-57.87C957.19,-56.87 950.13,-55.86 943.5,-55 812.99,-38.04 658.57,-22.54 581.45,-15.12"/>
<polygon fill="#63b8ff" stroke="#63b8ff" points="581.39,-11.59 571.1,-14.12 580.72,-18.56 581.39,-11.59"/>
</a>
</g>
</g>
<!-- Node18&#45;&gt;Node16 -->
<g id="edge26_Node000018_Node000016" class="edge">
<title>Node18&#45;&gt;Node16</title>
<g id="a_edge26_Node000018_Node000016"><a xlink:title=" ">
<path fill="none" stroke="#63b8ff" d="M672.29,-170.49C696.44,-160.62 736.48,-144.23 764.12,-132.93"/>
<polygon fill="#63b8ff" stroke="#63b8ff" points="765.75,-136.04 773.68,-129.02 763.1,-129.56 765.75,-136.04"/>
</a>
</g>
</g>
<!-- Node19&#45;&gt;Node15 -->
<g id="edge29_Node000019_Node000015" class="edge">
<title>Node19&#45;&gt;Node15</title>
<g id="a_edge29_Node000019_Node000015"><a xlink:title=" ">
<path fill="none" stroke="#63b8ff" d="M776.6,-230.87C779.58,-222.57 784.17,-209.78 787.96,-199.22"/>
<polygon fill="#63b8ff" stroke="#63b8ff" points="791.3,-200.26 791.39,-189.67 784.72,-197.9 791.3,-200.26"/>
</a>
</g>
</g>
<!-- Node21 -->
<g id="Node000021" class="node">
<title>Node21</title>
<g id="a_Node000021"><a xlink:href="na-ifactory-provider_8h.html" target="_top" xlink:title=" ">
<polygon fill="white" stroke="#666666" points="303.5,-305 163.5,-305 163.5,-286 303.5,-286 303.5,-305"/>
<text text-anchor="middle" x="233.5" y="-293" font-family="Helvetica,sans-Serif" font-size="10.00">api/na&#45;ifactory&#45;provider.h</text>
</a>
</g>
</g>
<!-- Node20&#45;&gt;Node21 -->
<g id="edge31_Node000020_Node000021" class="edge">
<title>Node20&#45;&gt;Node21</title>
<g id="a_edge31_Node000020_Node000021"><a xlink:title=" ">
<path fill="none" stroke="#63b8ff" d="M296.91,-505.95C287.18,-473.81 252.64,-359.72 239.05,-314.83"/>
<polygon fill="#63b8ff" stroke="#63b8ff" points="242.39,-313.78 236.14,-305.22 235.69,-315.81 242.39,-313.78"/>
</a>
</g>
</g>
<!-- Node21&#45;&gt;Node5 -->
<g id="edge33_Node000021_Node000005" class="edge">
<title>Node21&#45;&gt;Node5</title>
<g id="a_edge33_Node000021_Node000005"><a xlink:title=" ">
<path fill="none" stroke="#63b8ff" d="M229.87,-285.75C226.92,-278.65 222.67,-268.4 218.99,-259.56"/>
<polygon fill="#63b8ff" stroke="#63b8ff" points="222.13,-257.98 215.07,-250.09 215.67,-260.67 222.13,-257.98"/>
</a>
</g>
</g>
<!-- Node21&#45;&gt;Node7 -->
<g id="edge32_Node000021_Node000007" class="edge">
<title>Node21&#45;&gt;Node7</title>
<g id="a_edge32_Node000021_Node000007"><a xlink:title=" ">
<path fill="none" stroke="#63b8ff" d="M202.49,-285.91C183.46,-279.12 160.03,-267.76 145.5,-250 133.84,-235.75 129.31,-214.87 127.57,-199.81"/>
<polygon fill="#63b8ff" stroke="#63b8ff" points="131.04,-199.31 126.7,-189.64 124.06,-199.9 131.04,-199.31"/>
</a>
</g>
</g>
<!-- Node21&#45;&gt;Node10 -->
<g id="edge34_Node000021_Node000010" class="edge">
<title>Node21&#45;&gt;Node10</title>
<g id="a_edge34_Node000021_Node000010"><a xlink:title=" ">
<path fill="none" stroke="#63b8ff" d="M245.74,-285.75C256.01,-277.7 270.14,-264.78 277.5,-250 284.35,-236.23 286.87,-219.14 287.66,-205.41"/>
<polygon fill="#63b8ff" stroke="#63b8ff" points="291.16,-205.35 287.98,-195.25 284.17,-205.13 291.16,-205.35"/>
</a>
</g>
</g>
<!-- Node23 -->
<g id="Node000023" class="node">
<title>Node23</title>
<g id="a_Node000023"><a xlink:href="na-pivot_8h.html" target="_top" xlink:title=" ">
<polygon fill="white" stroke="#666666" points="732.5,-360 666.5,-360 666.5,-341 732.5,-341 732.5,-360"/>
<text text-anchor="middle" x="699.5" y="-348" font-family="Helvetica,sans-Serif" font-size="10.00">na&#45;pivot.h</text>
</a>
</g>
</g>
<!-- Node22&#45;&gt;Node23 -->
<g id="edge36_Node000022_Node000023" class="edge">
<title>Node22&#45;&gt;Node23</title>
<g id="a_edge36_Node000022_Node000023"><a xlink:title=" ">
<path fill="none" stroke="#63b8ff" d="M697,-395.75C697.39,-388.8 697.95,-378.85 698.45,-370.13"/>
<polygon fill="#63b8ff" stroke="#63b8ff" points="701.94,-370.27 699.01,-360.09 694.95,-369.88 701.94,-370.27"/>
</a>
</g>
</g>
<!-- Node23&#45;&gt;Node4 -->
<g id="edge39_Node000023_Node000004" class="edge">
<title>Node23&#45;&gt;Node4</title>
<g id="a_edge39_Node000023_Node000004"><a xlink:title=" ">
<path fill="none" stroke="#63b8ff" d="M672.67,-340.98C644.63,-332.09 600.45,-318.07 569.2,-308.15"/>
<polygon fill="#63b8ff" stroke="#63b8ff" points="570.13,-304.77 559.54,-305.08 568.01,-311.44 570.13,-304.77"/>
</a>
</g>
</g>
<!-- Node24 -->
<g id="Node000024" class="node">
<title>Node24</title>
<g id="a_Node000024"><a xlink:href="na-iio-provider_8h.html" target="_top" xlink:title=" ">
<polygon fill="white" stroke="#666666" points="808,-305 693,-305 693,-286 808,-286 808,-305"/>
<text text-anchor="middle" x="750.5" y="-293" font-family="Helvetica,sans-Serif" font-size="10.00">api/na&#45;iio&#45;provider.h</text>
</a>
</g>
</g>
<!-- Node23&#45;&gt;Node24 -->
<g id="edge37_Node000023_Node000024" class="edge">
<title>Node23&#45;&gt;Node24</title>
<g id="a_edge37_Node000023_Node000024"><a xlink:title=" ">
<path fill="none" stroke="#63b8ff" d="M707.92,-340.75C715.27,-333.11 726.13,-321.82 735.04,-312.56"/>
<polygon fill="#63b8ff" stroke="#63b8ff" points="737.82,-314.72 742.24,-305.09 732.78,-309.87 737.82,-314.72"/>
</a>
</g>
</g>
<!-- Node25 -->
<g id="Node000025" class="node">
<title>Node25</title>
<g id="a_Node000025"><a xlink:href="na-settings_8h.html" target="_top" xlink:title=" ">
<polygon fill="white" stroke="#666666" points="786.5,-74 706.5,-74 706.5,-55 786.5,-55 786.5,-74"/>
<text text-anchor="middle" x="746.5" y="-62" font-family="Helvetica,sans-Serif" font-size="10.00">na&#45;settings.h</text>
</a>
</g>
</g>
<!-- Node23&#45;&gt;Node25 -->
<g id="edge40_Node000023_Node000025" class="edge">
<title>Node23&#45;&gt;Node25</title>
<g id="a_edge40_Node000023_Node000025"><a xlink:title=" ">
<path fill="none" stroke="#63b8ff" d="M730.9,-340.94C755.49,-333.48 790,-321.29 817.5,-305 854.78,-282.91 891.5,-284.84 891.5,-241.5 891.5,-241.5 891.5,-241.5 891.5,-179 891.5,-125.17 828.77,-93.05 785.83,-77.37"/>
<polygon fill="#63b8ff" stroke="#63b8ff" points="786.79,-74 776.19,-74 784.48,-80.6 786.79,-74"/>
</a>
</g>
</g>
<!-- Node24&#45;&gt;Node15 -->
<g id="edge38_Node000024_Node000015" class="edge">
<title>Node24&#45;&gt;Node15</title>
<g id="a_edge38_Node000024_Node000015"><a xlink:title=" ">
<path fill="none" stroke="#63b8ff" d="M783.9,-285.98C802.28,-279.4 823.52,-268.24 834.5,-250 845.57,-231.61 828.57,-210.2 813.44,-196.16"/>
<polygon fill="#63b8ff" stroke="#63b8ff" points="815.69,-193.48 805.85,-189.55 811.09,-198.76 815.69,-193.48"/>
</a>
</g>
</g>
<!-- Node25&#45;&gt;Node8 -->
<g id="edge41_Node000025_Node000008" class="edge">
<title>Node25&#45;&gt;Node8</title>
<g id="a_edge41_Node000025_Node000008"><a xlink:title=" ">
<path fill="none" stroke="#63b8ff" d="M712.12,-54.98C675.41,-45.89 617.12,-31.46 576.95,-21.51"/>
<polygon fill="#63b8ff" stroke="#63b8ff" points="577.7,-18.09 567.15,-19.08 576.02,-24.88 577.7,-18.09"/>
</a>
</g>
</g>
<!-- Node27 -->
<g id="Node000027" class="node">
<title>Node27</title>
<g id="a_Node000027"><a xlink:title=" ">
<polygon fill="#e0e0e0" stroke="#999999" points="813.5,-360 753.5,-360 753.5,-341 813.5,-341 813.5,-360"/>
<text text-anchor="middle" x="783.5" y="-348" font-family="Helvetica,sans-Serif" font-size="10.00">gtk/gtk.h</text>
</a>
</g>
</g>
<!-- Node26&#45;&gt;Node27 -->
<g id="edge43_Node000026_Node000027" class="edge">
<title>Node26&#45;&gt;Node27</title>
<g id="a_edge43_Node000026_Node000027"><a xlink:title=" ">
<path fill="none" stroke="#63b8ff" d="M516.4,-505.88C492.51,-494.4 457.74,-472.95 473.5,-451 489.68,-428.46 663.41,-381.96 743.49,-361.52"/>
<polygon fill="#63b8ff" stroke="#63b8ff" points="744.4,-364.9 753.23,-359.04 742.68,-358.11 744.4,-364.9"/>
</a>
</g>
</g>
<!-- Node28 -->
<g id="Node000028" class="node">
<title>Node28</title>
<g id="a_Node000028"><a xlink:title=" ">
<polygon fill="#e0e0e0" stroke="#999999" points="590.5,-470 482.5,-470 482.5,-451 590.5,-451 590.5,-470"/>
<text text-anchor="middle" x="536.5" y="-458" font-family="Helvetica,sans-Serif" font-size="10.00">gdk/gdkkeysyms.h</text>
</a>
</g>
</g>
<!-- Node26&#45;&gt;Node28 -->
<g id="edge44_Node000026_Node000028" class="edge">
<title>Node26&#45;&gt;Node28</title>
<g id="a_edge44_Node000026_Node000028"><a xlink:title=" ">
<path fill="none" stroke="#63b8ff" d="M536.5,-505.75C536.5,-498.8 536.5,-488.85 536.5,-480.13"/>
<polygon fill="#63b8ff" stroke="#63b8ff" points="540,-480.09 536.5,-470.09 533,-480.09 540,-480.09"/>
</a>
</g>
</g>
<!-- Node29&#45;&gt;Node22 -->
<g id="edge46_Node000029_Node000022" class="edge">
<title>Node29&#45;&gt;Node22</title>
<g id="a_edge46_Node000029_Node000022"><a xlink:title=" ">
<path fill="none" stroke="#63b8ff" d="M698.17,-450.75C697.91,-443.8 697.53,-433.85 697.2,-425.13"/>
<polygon fill="#63b8ff" stroke="#63b8ff" points="700.7,-424.95 696.82,-415.09 693.7,-425.21 700.7,-424.95"/>
</a>
</g>
</g>
<!-- Node30 -->
<g id="Node000030" class="node">
<title>Node30</title>
<g id="a_Node000030"><a xlink:href="base-application_8h.html" target="_top" xlink:title=" ">
<polygon fill="white" stroke="#666666" points="939,-360 832,-360 832,-341 939,-341 939,-360"/>
<text text-anchor="middle" x="885.5" y="-348" font-family="Helvetica,sans-Serif" font-size="10.00">base&#45;application.h</text>
</a>
</g>
</g>
<!-- Node29&#45;&gt;Node30 -->
<g id="edge47_Node000029_Node000030" class="edge">
<title>Node29&#45;&gt;Node30</title>
<g id="a_edge47_Node000029_Node000030"><a xlink:title=" ">
<path fill="none" stroke="#63b8ff" d="M713.49,-450.84C745.85,-432.16 822.48,-387.9 861.61,-365.3"/>
<polygon fill="#63b8ff" stroke="#63b8ff" points="863.79,-368.08 870.7,-360.05 860.29,-362.02 863.79,-368.08"/>
</a>
</g>
</g>
<!-- Node30&#45;&gt;Node8 -->
<g id="edge48_Node000030_Node000008" class="edge">
<title>Node30&#45;&gt;Node8</title>
<g id="a_edge48_Node000030_Node000008"><a xlink:title=" ">
<path fill="none" stroke="#63b8ff" d="M891.8,-340.75C903.97,-322.98 929.5,-280.98 929.5,-241.5 929.5,-241.5 929.5,-241.5 929.5,-118.5 929.5,-47.13 687.57,-21.37 581.43,-13.51"/>
<polygon fill="#63b8ff" stroke="#63b8ff" points="581.51,-10 571.29,-12.78 581.01,-16.99 581.51,-10"/>
</a>
</g>
</g>
<!-- Node31&#45;&gt;Node29 -->
<g id="edge50_Node000031_Node000029" class="edge">
<title>Node31&#45;&gt;Node29</title>
<g id="a_edge50_Node000031_Node000029"><a xlink:title=" ">
<path fill="none" stroke="#63b8ff" d="M746.34,-505.98C738,-498.23 725.47,-486.58 715.32,-477.14"/>
<polygon fill="#63b8ff" stroke="#63b8ff" points="717.53,-474.42 707.82,-470.17 712.76,-479.54 717.53,-474.42"/>
</a>
</g>
</g>
<!-- Node32 -->
<g id="Node000032" class="node">
<title>Node32</title>
<g id="a_Node000032"><a xlink:href="cact-clipboard_8h.html" target="_top" xlink:title=" ">
<polygon fill="white" stroke="#666666" points="864,-470 769,-470 769,-451 864,-451 864,-470"/>
<text text-anchor="middle" x="816.5" y="-458" font-family="Helvetica,sans-Serif" font-size="10.00">cact&#45;clipboard.h</text>
</a>
</g>
</g>
<!-- Node31&#45;&gt;Node32 -->
<g id="edge51_Node000031_Node000032" class="edge">
<title>Node31&#45;&gt;Node32</title>
<g id="a_edge51_Node000031_Node000032"><a xlink:title=" ">
<path fill="none" stroke="#63b8ff" d="M765.3,-505.98C774.32,-498.15 787.91,-486.34 798.82,-476.86"/>
<polygon fill="#63b8ff" stroke="#63b8ff" points="801.27,-479.37 806.52,-470.17 796.68,-474.09 801.27,-479.37"/>
</a>
</g>
</g>
<!-- Node31&#45;&gt;Node34 -->
<g id="edge56_Node000031_Node000034" class="edge">
<title>Node31&#45;&gt;Node34</title>
<g id="a_edge56_Node000031_Node000034"><a xlink:title=" ">
<path fill="none" stroke="#63b8ff" d="M783.46,-505.98C812.8,-497.05 859.1,-482.94 891.69,-473.02"/>
<polygon fill="#63b8ff" stroke="#63b8ff" points="892.78,-476.34 901.32,-470.08 890.74,-469.65 892.78,-476.34"/>
</a>
</g>
</g>
<!-- Node32&#45;&gt;Node27 -->
<g id="edge52_Node000032_Node000027" class="edge">
<title>Node32&#45;&gt;Node27</title>
<g id="a_edge52_Node000032_Node000027"><a xlink:title=" ">
<path fill="none" stroke="#63b8ff" d="M813.8,-450.66C808.43,-433.09 796.32,-393.45 789.14,-369.95"/>
<polygon fill="#63b8ff" stroke="#63b8ff" points="792.42,-368.7 786.15,-360.16 785.72,-370.74 792.42,-368.7"/>
</a>
</g>
</g>
<!-- Node33 -->
<g id="Node000033" class="node">
<title>Node33</title>
<g id="a_Node000033"><a xlink:href="base-window_8h.html" target="_top" xlink:title=" ">
<polygon fill="white" stroke="#666666" points="931,-415 842,-415 842,-396 931,-396 931,-415"/>
<text text-anchor="middle" x="886.5" y="-403" font-family="Helvetica,sans-Serif" font-size="10.00">base&#45;window.h</text>
</a>
</g>
</g>
<!-- Node32&#45;&gt;Node33 -->
<g id="edge53_Node000032_Node000033" class="edge">
<title>Node32&#45;&gt;Node33</title>
<g id="a_edge53_Node000032_Node000033"><a xlink:title=" ">
<path fill="none" stroke="#63b8ff" d="M827.75,-450.98C838.3,-443 854.3,-430.88 866.94,-421.31"/>
<polygon fill="#63b8ff" stroke="#63b8ff" points="869.19,-424 875.05,-415.17 864.96,-418.42 869.19,-424"/>
</a>
</g>
</g>
<!-- Node33&#45;&gt;Node27 -->
<g id="edge54_Node000033_Node000027" class="edge">
<title>Node33&#45;&gt;Node27</title>
<g id="a_edge54_Node000033_Node000027"><a xlink:title=" ">
<path fill="none" stroke="#63b8ff" d="M869.95,-395.98C853.61,-387.57 828.37,-374.59 809.37,-364.81"/>
<polygon fill="#63b8ff" stroke="#63b8ff" points="810.84,-361.63 800.35,-360.17 807.64,-367.86 810.84,-361.63"/>
</a>
</g>
</g>
<!-- Node33&#45;&gt;Node30 -->
<g id="edge55_Node000033_Node000030" class="edge">
<title>Node33&#45;&gt;Node30</title>
<g id="a_edge55_Node000033_Node000030"><a xlink:title=" ">
<path fill="none" stroke="#63b8ff" d="M886.33,-395.75C886.2,-388.8 886.02,-378.85 885.85,-370.13"/>
<polygon fill="#63b8ff" stroke="#63b8ff" points="889.35,-370.02 885.66,-360.09 882.35,-370.15 889.35,-370.02"/>
</a>
</g>
</g>
<!-- Node34&#45;&gt;Node15 -->
<g id="edge57_Node000034_Node000015" class="edge">
<title>Node34&#45;&gt;Node15</title>
<g id="a_edge57_Node000034_Node000015"><a xlink:title=" ">
<path fill="none" stroke="#63b8ff" d="M934.78,-450.9C945.23,-433.07 967.5,-390.46 967.5,-351.5 967.5,-351.5 967.5,-351.5 967.5,-294.5 967.5,-236.41 898.46,-206.42 847.61,-192.21"/>
<polygon fill="#63b8ff" stroke="#63b8ff" points="848.27,-188.76 837.71,-189.57 846.47,-195.53 848.27,-188.76"/>
</a>
</g>
</g>
<!-- Node34&#45;&gt;Node33 -->
<g id="edge58_Node000034_Node000033" class="edge">
<title>Node34&#45;&gt;Node33</title>
<g id="a_edge58_Node000034_Node000033"><a xlink:title=" ">
<path fill="none" stroke="#63b8ff" d="M922.4,-450.75C916.33,-443.26 907.41,-432.28 899.99,-423.13"/>
<polygon fill="#63b8ff" stroke="#63b8ff" points="902.49,-420.65 893.47,-415.09 897.05,-425.06 902.49,-420.65"/>
</a>
</g>
</g>
<!-- Node35&#45;&gt;Node17 -->
<g id="edge60_Node000035_Node000017" class="edge">
<title>Node35&#45;&gt;Node17</title>
<g id="a_edge60_Node000035_Node000017"><a xlink:title=" ">
<path fill="none" stroke="#63b8ff" d="M1088.26,-450.96C1081.71,-432.9 1067.5,-389.34 1067.5,-351.5 1067.5,-351.5 1067.5,-351.5 1067.5,-179 1067.5,-139.46 1036.75,-101.77 1016.61,-81.33"/>
<polygon fill="#63b8ff" stroke="#63b8ff" points="1018.84,-78.62 1009.24,-74.13 1013.95,-83.62 1018.84,-78.62"/>
</a>
</g>
</g>
<!-- Node35&#45;&gt;Node33 -->
<g id="edge61_Node000035_Node000033" class="edge">
<title>Node35&#45;&gt;Node33</title>
<g id="a_edge61_Node000035_Node000033"><a xlink:title=" ">
<path fill="none" stroke="#63b8ff" d="M1058.56,-450.98C1023.55,-441.93 968.03,-427.58 929.57,-417.64"/>
<polygon fill="#63b8ff" stroke="#63b8ff" points="930.25,-414.2 919.69,-415.08 928.5,-420.97 930.25,-414.2"/>
</a>
</g>
</g>
<!-- Node36&#45;&gt;Node17 -->
<g id="edge63_Node000036_Node000017" class="edge">
<title>Node36&#45;&gt;Node17</title>
<g id="a_edge63_Node000036_Node000017"><a xlink:title=" ">
<path fill="none" stroke="#63b8ff" d="M945.26,-505.93C958.13,-498.15 975.88,-485.55 986.5,-470 1003.12,-445.68 1005.5,-435.96 1005.5,-406.5 1005.5,-406.5 1005.5,-406.5 1005.5,-179 1005.5,-145.56 1002.87,-106.66 1001.09,-84.18"/>
<polygon fill="#63b8ff" stroke="#63b8ff" points="1004.57,-83.71 1000.26,-74.03 997.59,-84.29 1004.57,-83.71"/>
</a>
</g>
</g>
<!-- Node36&#45;&gt;Node34 -->
<g id="edge64_Node000036_Node000034" class="edge">
<title>Node36&#45;&gt;Node34</title>
<g id="a_edge64_Node000036_Node000034"><a xlink:title=" ">
<path fill="none" stroke="#63b8ff" d="M929.5,-505.75C929.5,-498.8 929.5,-488.85 929.5,-480.13"/>
<polygon fill="#63b8ff" stroke="#63b8ff" points="933,-480.09 929.5,-470.09 926,-480.09 933,-480.09"/>
</a>
</g>
</g>
</g>
</svg>
