<?xml version="1.0" encoding="UTF-8" standalone="no"?>
<!DOCTYPE svg PUBLIC "-//W3C//DTD SVG 1.1//EN"
 "http://www.w3.org/Graphics/SVG/1.1/DTD/svg11.dtd">
<!-- Generated by graphviz version 2.43.0 (0)
 -->
<!-- Title: cact&#45;menubar&#45;maintainer.c Pages: 1 -->
<svg width="1099pt" height="599pt"
 viewBox="0.00 0.00 1098.50 599.00" xmlns="http://www.w3.org/2000/svg" xmlns:xlink="http://www.w3.org/1999/xlink">
<g id="graph0" class="graph" transform="scale(1 1) rotate(0) translate(4 595)">
<title>cact&#45;menubar&#45;maintainer.c</title>
<!-- Node1 -->
<g id="Node000001" class="node">
<title>Node1</title>
<g id="a_Node000001"><a xlink:title=" ">
<polygon fill="#999999" stroke="#666666" points="650.5,-591 501.5,-591 501.5,-572 650.5,-572 650.5,-591"/>
<text text-anchor="middle" x="576" y="-579" font-family="Helvetica,sans-Serif" font-size="10.00">cact&#45;menubar&#45;maintainer.c</text>
</a>
</g>
</g>
<!-- Node2 -->
<g id="Node000002" class="node">
<title>Node2</title>
<g id="a_Node000002"><a xlink:href="na-object-api_8h.html" target="_top" xlink:title=" ">
<polygon fill="white" stroke="#666666" points="824,-316 716,-316 716,-297 824,-297 824,-316"/>
<text text-anchor="middle" x="770" y="-304" font-family="Helvetica,sans-Serif" font-size="10.00">api/na&#45;object&#45;api.h</text>
</a>
</g>
</g>
<!-- Node1&#45;&gt;Node2 -->
<g id="edge1_Node000001_Node000002" class="edge">
<title>Node1&#45;&gt;Node2</title>
<g id="a_edge1_Node000001_Node000002"><a xlink:title=" ">
<path fill="none" stroke="#63b8ff" d="M639.25,-571.97C695.87,-560.36 770,-533.5 770,-472.5 770,-472.5 770,-472.5 770,-415.5 770,-384.19 770,-347.77 770,-326.23"/>
<polygon fill="#63b8ff" stroke="#63b8ff" points="773.5,-326.18 770,-316.18 766.5,-326.18 773.5,-326.18"/>
</a>
</g>
</g>
<!-- Node19 -->
<g id="Node000019" class="node">
<title>Node19</title>
<g id="a_Node000019"><a xlink:href="cact-clipboard_8h.html" target="_top" xlink:title=" ">
<polygon fill="white" stroke="#666666" points="741.5,-481 646.5,-481 646.5,-462 741.5,-462 741.5,-481"/>
<text text-anchor="middle" x="694" y="-469" font-family="Helvetica,sans-Serif" font-size="10.00">cact&#45;clipboard.h</text>
</a>
</g>
</g>
<!-- Node1&#45;&gt;Node19 -->
<g id="edge28_Node000001_Node000019" class="edge">
<title>Node1&#45;&gt;Node19</title>
<g id="a_edge28_Node000001_Node000019"><a xlink:title=" ">
<path fill="none" stroke="#63b8ff" d="M591.87,-571.84C606.1,-563.66 627.12,-550.5 643,-536 658.27,-522.05 672.74,-503.32 682.34,-489.82"/>
<polygon fill="#63b8ff" stroke="#63b8ff" points="685.33,-491.64 688.15,-481.43 679.58,-487.65 685.33,-491.64"/>
</a>
</g>
</g>
<!-- Node23 -->
<g id="Node000023" class="node">
<title>Node23</title>
<g id="a_Node000023"><a xlink:href="cact-menubar-priv_8h.html" target="_top" xlink:title=" ">
<polygon fill="white" stroke="#666666" points="433.5,-536 318.5,-536 318.5,-517 433.5,-517 433.5,-536"/>
<text text-anchor="middle" x="376" y="-524" font-family="Helvetica,sans-Serif" font-size="10.00">cact&#45;menubar&#45;priv.h</text>
</a>
</g>
</g>
<!-- Node1&#45;&gt;Node23 -->
<g id="edge34_Node000001_Node000023" class="edge">
<title>Node1&#45;&gt;Node23</title>
<g id="a_edge34_Node000001_Node000023"><a xlink:title=" ">
<path fill="none" stroke="#63b8ff" d="M543.87,-571.98C509.85,-562.97 456,-548.7 418.5,-538.76"/>
<polygon fill="#63b8ff" stroke="#63b8ff" points="418.95,-535.26 408.39,-536.08 417.16,-542.03 418.95,-535.26"/>
</a>
</g>
</g>
<!-- Node30 -->
<g id="Node000030" class="node">
<title>Node30</title>
<g id="a_Node000030"><a xlink:href="cact-main-window_8h.html" target="_top" xlink:title=" ">
<polygon fill="white" stroke="#666666" points="633.5,-536 518.5,-536 518.5,-517 633.5,-517 633.5,-536"/>
<text text-anchor="middle" x="576" y="-524" font-family="Helvetica,sans-Serif" font-size="10.00">cact&#45;main&#45;window.h</text>
</a>
</g>
</g>
<!-- Node1&#45;&gt;Node30 -->
<g id="edge46_Node000001_Node000030" class="edge">
<title>Node1&#45;&gt;Node30</title>
<g id="a_edge46_Node000001_Node000030"><a xlink:title=" ">
<path fill="none" stroke="#63b8ff" d="M576,-571.75C576,-564.8 576,-554.85 576,-546.13"/>
<polygon fill="#63b8ff" stroke="#63b8ff" points="579.5,-546.09 576,-536.09 572.5,-546.09 579.5,-546.09"/>
</a>
</g>
</g>
<!-- Node33 -->
<g id="Node000033" class="node">
<title>Node33</title>
<g id="a_Node000033"><a xlink:href="cact-tree-ieditable_8h.html" target="_top" xlink:title=" ">
<polygon fill="white" stroke="#666666" points="116,-481 0,-481 0,-462 116,-462 116,-481"/>
<text text-anchor="middle" x="58" y="-469" font-family="Helvetica,sans-Serif" font-size="10.00">cact&#45;tree&#45;ieditable.h</text>
</a>
</g>
</g>
<!-- Node1&#45;&gt;Node33 -->
<g id="edge54_Node000001_Node000033" class="edge">
<title>Node1&#45;&gt;Node33</title>
<g id="a_edge54_Node000001_Node000033"><a xlink:title=" ">
<path fill="none" stroke="#63b8ff" d="M516.58,-571.97C462.5,-563.87 380.58,-550.77 310,-536 234.6,-520.22 147.68,-497.24 98.15,-483.69"/>
<polygon fill="#63b8ff" stroke="#63b8ff" points="99.03,-480.3 88.46,-481.03 97.18,-487.05 99.03,-480.3"/>
</a>
</g>
</g>
<!-- Node3 -->
<g id="Node000003" class="node">
<title>Node3</title>
<g id="a_Node000003"><a xlink:href="na-ifactory-object_8h.html" target="_top" xlink:title=" ">
<polygon fill="white" stroke="#666666" points="882.5,-261 769.5,-261 769.5,-242 882.5,-242 882.5,-261"/>
<text text-anchor="middle" x="826" y="-249" font-family="Helvetica,sans-Serif" font-size="10.00">na&#45;ifactory&#45;object.h</text>
</a>
</g>
</g>
<!-- Node2&#45;&gt;Node3 -->
<g id="edge2_Node000002_Node000003" class="edge">
<title>Node2&#45;&gt;Node3</title>
<g id="a_edge2_Node000002_Node000003"><a xlink:title=" ">
<path fill="none" stroke="#63b8ff" d="M779,-296.98C787.19,-289.23 799.51,-277.58 809.47,-268.14"/>
<polygon fill="#63b8ff" stroke="#63b8ff" points="811.98,-270.59 816.84,-261.17 807.17,-265.5 811.98,-270.59"/>
</a>
</g>
</g>
<!-- Node10 -->
<g id="Node000010" class="node">
<title>Node10</title>
<g id="a_Node000010"><a xlink:href="na-ifactory-object-data_8h.html" target="_top" xlink:title=" ">
<polygon fill="white" stroke="#666666" points="953,-140 849,-140 849,-110 953,-110 953,-140"/>
<text text-anchor="start" x="857" y="-128" font-family="Helvetica,sans-Serif" font-size="10.00">na&#45;ifactory&#45;object</text>
<text text-anchor="middle" x="901" y="-117" font-family="Helvetica,sans-Serif" font-size="10.00">&#45;data.h</text>
</a>
</g>
</g>
<!-- Node2&#45;&gt;Node10 -->
<g id="edge12_Node000002_Node000010" class="edge">
<title>Node2&#45;&gt;Node10</title>
<g id="a_edge12_Node000002_Node000010"><a xlink:title=" ">
<path fill="none" stroke="#63b8ff" d="M814.99,-296.99C839.84,-290.47 870.04,-279.38 892,-261 922.96,-235.09 932.63,-215.43 924,-176 922,-166.88 918.18,-157.43 914.21,-149.24"/>
<polygon fill="#63b8ff" stroke="#63b8ff" points="917.29,-147.57 909.59,-140.29 911.07,-150.78 917.29,-147.57"/>
</a>
</g>
</g>
<!-- Node11 -->
<g id="Node000011" class="node">
<title>Node11</title>
<g id="a_Node000011"><a xlink:href="na-iduplicable_8h.html" target="_top" xlink:title=" ">
<polygon fill="white" stroke="#666666" points="981.5,-74 886.5,-74 886.5,-55 981.5,-55 981.5,-74"/>
<text text-anchor="middle" x="934" y="-62" font-family="Helvetica,sans-Serif" font-size="10.00">na&#45;iduplicable.h</text>
</a>
</g>
</g>
<!-- Node2&#45;&gt;Node11 -->
<g id="edge14_Node000002_Node000011" class="edge">
<title>Node2&#45;&gt;Node11</title>
<g id="a_edge14_Node000002_Node000011"><a xlink:title=" ">
<path fill="none" stroke="#63b8ff" d="M824.34,-299.95C854.17,-294.39 890.05,-283.27 915,-261 967.44,-214.2 981.48,-177.53 962,-110 959.13,-100.06 953.32,-90.2 947.72,-82.29"/>
<polygon fill="#63b8ff" stroke="#63b8ff" points="950.5,-80.16 941.67,-74.3 944.92,-84.39 950.5,-80.16"/>
</a>
</g>
</g>
<!-- Node12 -->
<g id="Node000012" class="node">
<title>Node12</title>
<g id="a_Node000012"><a xlink:href="na-icontext_8h.html" target="_top" xlink:title=" ">
<polygon fill="white" stroke="#666666" points="1090.5,-261 1009.5,-261 1009.5,-242 1090.5,-242 1090.5,-261"/>
<text text-anchor="middle" x="1050" y="-249" font-family="Helvetica,sans-Serif" font-size="10.00">na&#45;icontext.h</text>
</a>
</g>
</g>
<!-- Node2&#45;&gt;Node12 -->
<g id="edge16_Node000002_Node000012" class="edge">
<title>Node2&#45;&gt;Node12</title>
<g id="a_edge16_Node000002_Node000012"><a xlink:title=" ">
<path fill="none" stroke="#63b8ff" d="M814.99,-296.98C865.28,-287.47 946.54,-272.08 999.11,-262.13"/>
<polygon fill="#63b8ff" stroke="#63b8ff" points="1000.05,-265.52 1009.22,-260.22 998.75,-258.64 1000.05,-265.52"/>
</a>
</g>
</g>
<!-- Node13 -->
<g id="Node000013" class="node">
<title>Node13</title>
<g id="a_Node000013"><a xlink:href="na-object-action_8h.html" target="_top" xlink:title=" ">
<polygon fill="white" stroke="#666666" points="712.5,-261 607.5,-261 607.5,-242 712.5,-242 712.5,-261"/>
<text text-anchor="middle" x="660" y="-249" font-family="Helvetica,sans-Serif" font-size="10.00">na&#45;object&#45;action.h</text>
</a>
</g>
</g>
<!-- Node2&#45;&gt;Node13 -->
<g id="edge18_Node000002_Node000013" class="edge">
<title>Node2&#45;&gt;Node13</title>
<g id="a_edge18_Node000002_Node000013"><a xlink:title=" ">
<path fill="none" stroke="#63b8ff" d="M752.33,-296.98C734.71,-288.5 707.42,-275.35 687.07,-265.54"/>
<polygon fill="#63b8ff" stroke="#63b8ff" points="688.52,-262.36 677.99,-261.17 685.48,-268.66 688.52,-262.36"/>
</a>
</g>
</g>
<!-- Node17 -->
<g id="Node000017" class="node">
<title>Node17</title>
<g id="a_Node000017"><a xlink:href="na-object-profile_8h.html" target="_top" xlink:title=" ">
<polygon fill="white" stroke="#666666" points="631,-200.5 525,-200.5 525,-181.5 631,-181.5 631,-200.5"/>
<text text-anchor="middle" x="578" y="-188.5" font-family="Helvetica,sans-Serif" font-size="10.00">na&#45;object&#45;profile.h</text>
</a>
</g>
</g>
<!-- Node2&#45;&gt;Node17 -->
<g id="edge25_Node000002_Node000017" class="edge">
<title>Node2&#45;&gt;Node17</title>
<g id="a_edge25_Node000002_Node000017"><a xlink:title=" ">
<path fill="none" stroke="#63b8ff" d="M765.62,-296.81C758.36,-283.22 742.56,-256.96 722,-242 705.32,-229.87 655.58,-213.98 619.22,-203.4"/>
<polygon fill="#63b8ff" stroke="#63b8ff" points="619.93,-199.96 609.35,-200.57 618,-206.69 619.93,-199.96"/>
</a>
</g>
</g>
<!-- Node18 -->
<g id="Node000018" class="node">
<title>Node18</title>
<g id="a_Node000018"><a xlink:href="na-object-menu_8h.html" target="_top" xlink:title=" ">
<polygon fill="white" stroke="#666666" points="589.5,-261 486.5,-261 486.5,-242 589.5,-242 589.5,-261"/>
<text text-anchor="middle" x="538" y="-249" font-family="Helvetica,sans-Serif" font-size="10.00">na&#45;object&#45;menu.h</text>
</a>
</g>
</g>
<!-- Node2&#45;&gt;Node18 -->
<g id="edge26_Node000002_Node000018" class="edge">
<title>Node2&#45;&gt;Node18</title>
<g id="a_edge26_Node000002_Node000018"><a xlink:title=" ">
<path fill="none" stroke="#63b8ff" d="M732.73,-296.98C692.68,-287.84 628.93,-273.27 585.36,-263.32"/>
<polygon fill="#63b8ff" stroke="#63b8ff" points="586.1,-259.9 575.57,-261.08 584.54,-266.72 586.1,-259.9"/>
</a>
</g>
</g>
<!-- Node4 -->
<g id="Node000004" class="node">
<title>Node4</title>
<g id="a_Node000004"><a xlink:href="na-data-def_8h.html" target="_top" xlink:title=" ">
<polygon fill="white" stroke="#666666" points="793,-134.5 711,-134.5 711,-115.5 793,-115.5 793,-134.5"/>
<text text-anchor="middle" x="752" y="-122.5" font-family="Helvetica,sans-Serif" font-size="10.00">na&#45;data&#45;def.h</text>
</a>
</g>
</g>
<!-- Node3&#45;&gt;Node4 -->
<g id="edge3_Node000003_Node000004" class="edge">
<title>Node3&#45;&gt;Node4</title>
<g id="a_edge3_Node000003_Node000004"><a xlink:title=" ">
<path fill="none" stroke="#63b8ff" d="M818.72,-241.99C811.46,-233.28 800.24,-219.2 792,-206 779.32,-185.69 767.4,-160.81 759.93,-144.25"/>
<polygon fill="#63b8ff" stroke="#63b8ff" points="762.95,-142.42 755.7,-134.69 756.54,-145.25 762.95,-142.42"/>
</a>
</g>
</g>
<!-- Node6 -->
<g id="Node000006" class="node">
<title>Node6</title>
<g id="a_Node000006"><a xlink:href="na-data-boxed_8h.html" target="_top" xlink:title=" ">
<polygon fill="white" stroke="#666666" points="745,-200.5 649,-200.5 649,-181.5 745,-181.5 745,-200.5"/>
<text text-anchor="middle" x="697" y="-188.5" font-family="Helvetica,sans-Serif" font-size="10.00">na&#45;data&#45;boxed.h</text>
</a>
</g>
</g>
<!-- Node3&#45;&gt;Node6 -->
<g id="edge5_Node000003_Node000006" class="edge">
<title>Node3&#45;&gt;Node6</title>
<g id="a_edge5_Node000003_Node000006"><a xlink:title=" ">
<path fill="none" stroke="#63b8ff" d="M807.24,-241.99C785.65,-232.2 749.97,-216.02 725.07,-204.73"/>
<polygon fill="#63b8ff" stroke="#63b8ff" points="726.33,-201.46 715.78,-200.52 723.44,-207.83 726.33,-201.46"/>
</a>
</g>
</g>
<!-- Node9 -->
<g id="Node000009" class="node">
<title>Node9</title>
<g id="a_Node000009"><a xlink:href="na-ifactory-provider-provider_8h.html" target="_top" xlink:title=" ">
<polygon fill="white" stroke="#666666" points="915,-206 801,-206 801,-176 915,-176 915,-206"/>
<text text-anchor="start" x="809" y="-194" font-family="Helvetica,sans-Serif" font-size="10.00">na&#45;ifactory&#45;provider</text>
<text text-anchor="middle" x="858" y="-183" font-family="Helvetica,sans-Serif" font-size="10.00">&#45;provider.h</text>
</a>
</g>
</g>
<!-- Node3&#45;&gt;Node9 -->
<g id="edge10_Node000003_Node000009" class="edge">
<title>Node3&#45;&gt;Node9</title>
<g id="a_edge10_Node000003_Node000009"><a xlink:title=" ">
<path fill="none" stroke="#63b8ff" d="M830.72,-241.87C834.58,-234.81 840.22,-224.5 845.37,-215.08"/>
<polygon fill="#63b8ff" stroke="#63b8ff" points="848.55,-216.57 850.28,-206.11 842.41,-213.21 848.55,-216.57"/>
</a>
</g>
</g>
<!-- Node5 -->
<g id="Node000005" class="node">
<title>Node5</title>
<g id="a_Node000005"><a xlink:title=" ">
<polygon fill="#e0e0e0" stroke="#999999" points="843,-74 799,-74 799,-55 843,-55 843,-74"/>
<text text-anchor="middle" x="821" y="-62" font-family="Helvetica,sans-Serif" font-size="10.00">glib.h</text>
</a>
</g>
</g>
<!-- Node4&#45;&gt;Node5 -->
<g id="edge4_Node000004_Node000005" class="edge">
<title>Node4&#45;&gt;Node5</title>
<g id="a_edge4_Node000004_Node000005"><a xlink:title=" ">
<path fill="none" stroke="#63b8ff" d="M762.18,-115.37C772.88,-106.3 789.94,-91.84 802.93,-80.82"/>
<polygon fill="#63b8ff" stroke="#63b8ff" points="805.41,-83.3 810.78,-74.17 800.89,-77.96 805.41,-83.3"/>
</a>
</g>
</g>
<!-- Node6&#45;&gt;Node4 -->
<g id="edge9_Node000006_Node000004" class="edge">
<title>Node6&#45;&gt;Node4</title>
<g id="a_edge9_Node000006_Node000004"><a xlink:title=" ">
<path fill="none" stroke="#63b8ff" d="M704.42,-181.37C712.9,-171.5 726.98,-155.11 737.63,-142.72"/>
<polygon fill="#63b8ff" stroke="#63b8ff" points="740.48,-144.77 744.35,-134.91 735.17,-140.21 740.48,-144.77"/>
</a>
</g>
</g>
<!-- Node7 -->
<g id="Node000007" class="node">
<title>Node7</title>
<g id="a_Node000007"><a xlink:title=" ">
<polygon fill="#e0e0e0" stroke="#999999" points="657.5,-19 580.5,-19 580.5,0 657.5,0 657.5,-19"/>
<text text-anchor="middle" x="619" y="-7" font-family="Helvetica,sans-Serif" font-size="10.00">glib&#45;object.h</text>
</a>
</g>
</g>
<!-- Node6&#45;&gt;Node7 -->
<g id="edge6_Node000006_Node000007" class="edge">
<title>Node6&#45;&gt;Node7</title>
<g id="a_edge6_Node000006_Node000007"><a xlink:title=" ">
<path fill="none" stroke="#63b8ff" d="M693.43,-181.08C687.48,-166.26 675.09,-135.65 664,-110 651.57,-81.25 636.45,-48.17 627.28,-28.32"/>
<polygon fill="#63b8ff" stroke="#63b8ff" points="630.45,-26.84 623.07,-19.24 624.1,-29.79 630.45,-26.84"/>
</a>
</g>
</g>
<!-- Node8 -->
<g id="Node000008" class="node">
<title>Node8</title>
<g id="a_Node000008"><a xlink:href="na-boxed_8h.html" target="_top" xlink:title=" ">
<polygon fill="white" stroke="#666666" points="654.5,-134.5 583.5,-134.5 583.5,-115.5 654.5,-115.5 654.5,-134.5"/>
<text text-anchor="middle" x="619" y="-122.5" font-family="Helvetica,sans-Serif" font-size="10.00">na&#45;boxed.h</text>
</a>
</g>
</g>
<!-- Node6&#45;&gt;Node8 -->
<g id="edge7_Node000006_Node000008" class="edge">
<title>Node6&#45;&gt;Node8</title>
<g id="a_edge7_Node000006_Node000008"><a xlink:title=" ">
<path fill="none" stroke="#63b8ff" d="M686.48,-181.37C673.92,-171.06 652.69,-153.65 637.4,-141.09"/>
<polygon fill="#63b8ff" stroke="#63b8ff" points="639.55,-138.34 629.6,-134.7 635.11,-143.75 639.55,-138.34"/>
</a>
</g>
</g>
<!-- Node8&#45;&gt;Node7 -->
<g id="edge8_Node000008_Node000007" class="edge">
<title>Node8&#45;&gt;Node7</title>
<g id="a_edge8_Node000008_Node000007"><a xlink:title=" ">
<path fill="none" stroke="#63b8ff" d="M619,-115.47C619,-97.23 619,-54.07 619,-29.14"/>
<polygon fill="#63b8ff" stroke="#63b8ff" points="622.5,-29.13 619,-19.13 615.5,-29.13 622.5,-29.13"/>
</a>
</g>
</g>
<!-- Node9&#45;&gt;Node5 -->
<g id="edge11_Node000009_Node000005" class="edge">
<title>Node9&#45;&gt;Node5</title>
<g id="a_edge11_Node000009_Node000005"><a xlink:title=" ">
<path fill="none" stroke="#63b8ff" d="M852.43,-175.68C848.67,-165.75 843.73,-152.17 840,-140 834.26,-121.29 828.86,-99.57 825.3,-84.43"/>
<polygon fill="#63b8ff" stroke="#63b8ff" points="828.62,-83.25 822.95,-74.29 821.8,-84.82 828.62,-83.25"/>
</a>
</g>
</g>
<!-- Node10&#45;&gt;Node5 -->
<g id="edge13_Node000010_Node000005" class="edge">
<title>Node10&#45;&gt;Node5</title>
<g id="a_edge13_Node000010_Node000005"><a xlink:title=" ">
<path fill="none" stroke="#63b8ff" d="M881.63,-109.84C869.43,-100.91 853.69,-89.41 841.31,-80.35"/>
<polygon fill="#63b8ff" stroke="#63b8ff" points="843.13,-77.34 832.99,-74.27 838.99,-82.99 843.13,-77.34"/>
</a>
</g>
</g>
<!-- Node11&#45;&gt;Node7 -->
<g id="edge15_Node000011_Node000007" class="edge">
<title>Node11&#45;&gt;Node7</title>
<g id="a_edge15_Node000011_Node000007"><a xlink:title=" ">
<path fill="none" stroke="#63b8ff" d="M886.16,-55.45C827.1,-45.51 727.2,-28.71 667.73,-18.7"/>
<polygon fill="#63b8ff" stroke="#63b8ff" points="668.28,-15.24 657.83,-17.03 667.12,-22.14 668.28,-15.24"/>
</a>
</g>
</g>
<!-- Node12&#45;&gt;Node7 -->
<g id="edge17_Node000012_Node000007" class="edge">
<title>Node12&#45;&gt;Node7</title>
<g id="a_edge17_Node000012_Node000007"><a xlink:title=" ">
<path fill="none" stroke="#63b8ff" d="M1050.41,-241.71C1051.35,-210.54 1049.92,-104.47 991,-55 943.14,-14.82 757.56,-9.89 667.96,-9.93"/>
<polygon fill="#63b8ff" stroke="#63b8ff" points="667.77,-6.43 657.78,-9.95 667.79,-13.43 667.77,-6.43"/>
</a>
</g>
</g>
<!-- Node14 -->
<g id="Node000014" class="node">
<title>Node14</title>
<g id="a_Node000014"><a xlink:href="na-object-item_8h.html" target="_top" xlink:title=" ">
<polygon fill="white" stroke="#666666" points="507,-200.5 409,-200.5 409,-181.5 507,-181.5 507,-200.5"/>
<text text-anchor="middle" x="458" y="-188.5" font-family="Helvetica,sans-Serif" font-size="10.00">na&#45;object&#45;item.h</text>
</a>
</g>
</g>
<!-- Node13&#45;&gt;Node14 -->
<g id="edge19_Node000013_Node000014" class="edge">
<title>Node13&#45;&gt;Node14</title>
<g id="a_edge19_Node000013_Node000014"><a xlink:title=" ">
<path fill="none" stroke="#63b8ff" d="M630.63,-241.99C595.4,-231.79 536.21,-214.65 497.13,-203.33"/>
<polygon fill="#63b8ff" stroke="#63b8ff" points="497.99,-199.94 487.41,-200.52 496.04,-206.66 497.99,-199.94"/>
</a>
</g>
</g>
<!-- Node13&#45;&gt;Node17 -->
<g id="edge23_Node000013_Node000017" class="edge">
<title>Node13&#45;&gt;Node17</title>
<g id="a_edge23_Node000013_Node000017"><a xlink:title=" ">
<path fill="none" stroke="#63b8ff" d="M647.9,-241.87C634.94,-232.62 614.14,-217.78 598.6,-206.69"/>
<polygon fill="#63b8ff" stroke="#63b8ff" points="600.32,-203.63 590.15,-200.67 596.26,-209.32 600.32,-203.63"/>
</a>
</g>
</g>
<!-- Node15 -->
<g id="Node000015" class="node">
<title>Node15</title>
<g id="a_Node000015"><a xlink:href="na-object-id_8h.html" target="_top" xlink:title=" ">
<polygon fill="white" stroke="#666666" points="554,-134.5 470,-134.5 470,-115.5 554,-115.5 554,-134.5"/>
<text text-anchor="middle" x="512" y="-122.5" font-family="Helvetica,sans-Serif" font-size="10.00">na&#45;object&#45;id.h</text>
</a>
</g>
</g>
<!-- Node14&#45;&gt;Node15 -->
<g id="edge20_Node000014_Node000015" class="edge">
<title>Node14&#45;&gt;Node15</title>
<g id="a_edge20_Node000014_Node000015"><a xlink:title=" ">
<path fill="none" stroke="#63b8ff" d="M465.28,-181.37C473.61,-171.5 487.44,-155.11 497.89,-142.72"/>
<polygon fill="#63b8ff" stroke="#63b8ff" points="500.71,-144.81 504.49,-134.91 495.36,-140.29 500.71,-144.81"/>
</a>
</g>
</g>
<!-- Node16 -->
<g id="Node000016" class="node">
<title>Node16</title>
<g id="a_Node000016"><a xlink:href="na-object_8h.html" target="_top" xlink:title=" ">
<polygon fill="white" stroke="#666666" points="547.5,-74 476.5,-74 476.5,-55 547.5,-55 547.5,-74"/>
<text text-anchor="middle" x="512" y="-62" font-family="Helvetica,sans-Serif" font-size="10.00">na&#45;object.h</text>
</a>
</g>
</g>
<!-- Node15&#45;&gt;Node16 -->
<g id="edge21_Node000015_Node000016" class="edge">
<title>Node15&#45;&gt;Node16</title>
<g id="a_edge21_Node000015_Node000016"><a xlink:title=" ">
<path fill="none" stroke="#63b8ff" d="M512,-115.37C512,-107.25 512,-94.81 512,-84.39"/>
<polygon fill="#63b8ff" stroke="#63b8ff" points="515.5,-84.17 512,-74.17 508.5,-84.17 515.5,-84.17"/>
</a>
</g>
</g>
<!-- Node16&#45;&gt;Node7 -->
<g id="edge22_Node000016_Node000007" class="edge">
<title>Node16&#45;&gt;Node7</title>
<g id="a_edge22_Node000016_Node000007"><a xlink:title=" ">
<path fill="none" stroke="#63b8ff" d="M529.19,-54.98C546.25,-46.54 572.63,-33.47 592.4,-23.68"/>
<polygon fill="#63b8ff" stroke="#63b8ff" points="594.09,-26.75 601.5,-19.17 590.98,-20.47 594.09,-26.75"/>
</a>
</g>
</g>
<!-- Node17&#45;&gt;Node15 -->
<g id="edge24_Node000017_Node000015" class="edge">
<title>Node17&#45;&gt;Node15</title>
<g id="a_edge24_Node000017_Node000015"><a xlink:title=" ">
<path fill="none" stroke="#63b8ff" d="M569.1,-181.37C558.73,-171.31 541.37,-154.48 528.51,-142.01"/>
<polygon fill="#63b8ff" stroke="#63b8ff" points="530.8,-139.35 521.18,-134.91 525.93,-144.38 530.8,-139.35"/>
</a>
</g>
</g>
<!-- Node18&#45;&gt;Node14 -->
<g id="edge27_Node000018_Node000014" class="edge">
<title>Node18&#45;&gt;Node14</title>
<g id="a_edge27_Node000018_Node000014"><a xlink:title=" ">
<path fill="none" stroke="#63b8ff" d="M526.2,-241.87C513.55,-232.62 493.26,-217.78 478.09,-206.69"/>
<polygon fill="#63b8ff" stroke="#63b8ff" points="479.99,-203.74 469.85,-200.67 475.86,-209.4 479.99,-203.74"/>
</a>
</g>
</g>
<!-- Node20 -->
<g id="Node000020" class="node">
<title>Node20</title>
<g id="a_Node000020"><a xlink:title=" ">
<polygon fill="#e0e0e0" stroke="#999999" points="508,-371 448,-371 448,-352 508,-352 508,-371"/>
<text text-anchor="middle" x="478" y="-359" font-family="Helvetica,sans-Serif" font-size="10.00">gtk/gtk.h</text>
</a>
</g>
</g>
<!-- Node19&#45;&gt;Node20 -->
<g id="edge29_Node000019_Node000020" class="edge">
<title>Node19&#45;&gt;Node20</title>
<g id="a_edge29_Node000019_Node000020"><a xlink:title=" ">
<path fill="none" stroke="#63b8ff" d="M686.06,-461.86C673.21,-448.33 646.49,-422.16 619,-407 601.56,-397.38 553.45,-383.07 518.27,-373.29"/>
<polygon fill="#63b8ff" stroke="#63b8ff" points="518.84,-369.82 508.27,-370.54 516.98,-376.57 518.84,-369.82"/>
</a>
</g>
</g>
<!-- Node21 -->
<g id="Node000021" class="node">
<title>Node21</title>
<g id="a_Node000021"><a xlink:href="base-window_8h.html" target="_top" xlink:title=" ">
<polygon fill="white" stroke="#666666" points="382.5,-426 293.5,-426 293.5,-407 382.5,-407 382.5,-426"/>
<text text-anchor="middle" x="338" y="-414" font-family="Helvetica,sans-Serif" font-size="10.00">base&#45;window.h</text>
</a>
</g>
</g>
<!-- Node19&#45;&gt;Node21 -->
<g id="edge30_Node000019_Node000021" class="edge">
<title>Node19&#45;&gt;Node21</title>
<g id="a_edge30_Node000019_Node000021"><a xlink:title=" ">
<path fill="none" stroke="#63b8ff" d="M646.41,-463.4C643.23,-462.93 640.07,-462.46 637,-462 551.62,-449.28 452.52,-434.53 392.58,-425.62"/>
<polygon fill="#63b8ff" stroke="#63b8ff" points="392.98,-422.14 382.58,-424.13 391.95,-429.06 392.98,-422.14"/>
</a>
</g>
</g>
<!-- Node21&#45;&gt;Node20 -->
<g id="edge31_Node000021_Node000020" class="edge">
<title>Node21&#45;&gt;Node20</title>
<g id="a_edge31_Node000021_Node000020"><a xlink:title=" ">
<path fill="none" stroke="#63b8ff" d="M360.49,-406.98C383.52,-398.27 419.54,-384.63 445.63,-374.75"/>
<polygon fill="#63b8ff" stroke="#63b8ff" points="446.98,-377.98 455.1,-371.17 444.51,-371.44 446.98,-377.98"/>
</a>
</g>
</g>
<!-- Node22 -->
<g id="Node000022" class="node">
<title>Node22</title>
<g id="a_Node000022"><a xlink:href="base-application_8h.html" target="_top" xlink:title=" ">
<polygon fill="white" stroke="#666666" points="391.5,-371 284.5,-371 284.5,-352 391.5,-352 391.5,-371"/>
<text text-anchor="middle" x="338" y="-359" font-family="Helvetica,sans-Serif" font-size="10.00">base&#45;application.h</text>
</a>
</g>
</g>
<!-- Node21&#45;&gt;Node22 -->
<g id="edge32_Node000021_Node000022" class="edge">
<title>Node21&#45;&gt;Node22</title>
<g id="a_edge32_Node000021_Node000022"><a xlink:title=" ">
<path fill="none" stroke="#63b8ff" d="M338,-406.75C338,-399.8 338,-389.85 338,-381.13"/>
<polygon fill="#63b8ff" stroke="#63b8ff" points="341.5,-381.09 338,-371.09 334.5,-381.09 341.5,-381.09"/>
</a>
</g>
</g>
<!-- Node22&#45;&gt;Node7 -->
<g id="edge33_Node000022_Node000007" class="edge">
<title>Node22&#45;&gt;Node7</title>
<g id="a_edge33_Node000022_Node000007"><a xlink:title=" ">
<path fill="none" stroke="#63b8ff" d="M338.27,-351.82C338.82,-333.48 340,-289.44 340,-252.5 340,-252.5 340,-252.5 340,-124 340,-91.67 338.5,-76.08 363,-55 393.39,-28.85 504.99,-17.56 570.38,-13.1"/>
<polygon fill="#63b8ff" stroke="#63b8ff" points="570.7,-16.59 580.45,-12.44 570.25,-9.6 570.7,-16.59"/>
</a>
</g>
</g>
<!-- Node24 -->
<g id="Node000024" class="node">
<title>Node24</title>
<g id="a_Node000024"><a xlink:href="na-updater_8h.html" target="_top" xlink:title=" ">
<polygon fill="white" stroke="#666666" points="610,-426 508,-426 508,-407 610,-407 610,-426"/>
<text text-anchor="middle" x="559" y="-414" font-family="Helvetica,sans-Serif" font-size="10.00">core/na&#45;updater.h</text>
</a>
</g>
</g>
<!-- Node23&#45;&gt;Node24 -->
<g id="edge35_Node000023_Node000024" class="edge">
<title>Node23&#45;&gt;Node24</title>
<g id="a_edge35_Node000023_Node000024"><a xlink:title=" ">
<path fill="none" stroke="#63b8ff" d="M399.66,-516.97C420.65,-508.96 451.81,-496 477,-481 500.76,-466.86 525.52,-446.83 541.53,-433.07"/>
<polygon fill="#63b8ff" stroke="#63b8ff" points="544.23,-435.36 549.46,-426.15 539.63,-430.09 544.23,-435.36"/>
</a>
</g>
</g>
<!-- Node28 -->
<g id="Node000028" class="node">
<title>Node28</title>
<g id="a_Node000028"><a xlink:href="cact-menubar_8h.html" target="_top" xlink:title=" ">
<polygon fill="white" stroke="#666666" points="354,-481 262,-481 262,-462 354,-462 354,-481"/>
<text text-anchor="middle" x="308" y="-469" font-family="Helvetica,sans-Serif" font-size="10.00">cact&#45;menubar.h</text>
</a>
</g>
</g>
<!-- Node23&#45;&gt;Node28 -->
<g id="edge42_Node000023_Node000028" class="edge">
<title>Node23&#45;&gt;Node28</title>
<g id="a_edge42_Node000023_Node000028"><a xlink:title=" ">
<path fill="none" stroke="#63b8ff" d="M365.07,-516.98C354.92,-509.07 339.58,-497.11 327.35,-487.58"/>
<polygon fill="#63b8ff" stroke="#63b8ff" points="329.16,-484.56 319.12,-481.17 324.86,-490.08 329.16,-484.56"/>
</a>
</g>
</g>
<!-- Node29 -->
<g id="Node000029" class="node">
<title>Node29</title>
<g id="a_Node000029"><a xlink:href="cact-sort-buttons_8h.html" target="_top" xlink:title=" ">
<polygon fill="white" stroke="#666666" points="243.5,-481 134.5,-481 134.5,-462 243.5,-462 243.5,-481"/>
<text text-anchor="middle" x="189" y="-469" font-family="Helvetica,sans-Serif" font-size="10.00">cact&#45;sort&#45;buttons.h</text>
</a>
</g>
</g>
<!-- Node23&#45;&gt;Node29 -->
<g id="edge44_Node000023_Node000029" class="edge">
<title>Node23&#45;&gt;Node29</title>
<g id="a_edge44_Node000023_Node000029"><a xlink:title=" ">
<path fill="none" stroke="#63b8ff" d="M345.96,-516.98C314.29,-508.01 264.23,-493.82 229.19,-483.89"/>
<polygon fill="#63b8ff" stroke="#63b8ff" points="229.86,-480.44 219.28,-481.08 227.95,-487.18 229.86,-480.44"/>
</a>
</g>
</g>
<!-- Node25 -->
<g id="Node000025" class="node">
<title>Node25</title>
<g id="a_Node000025"><a xlink:href="na-pivot_8h.html" target="_top" xlink:title=" ">
<polygon fill="white" stroke="#666666" points="592,-371 526,-371 526,-352 592,-352 592,-371"/>
<text text-anchor="middle" x="559" y="-359" font-family="Helvetica,sans-Serif" font-size="10.00">na&#45;pivot.h</text>
</a>
</g>
</g>
<!-- Node24&#45;&gt;Node25 -->
<g id="edge36_Node000024_Node000025" class="edge">
<title>Node24&#45;&gt;Node25</title>
<g id="a_edge36_Node000024_Node000025"><a xlink:title=" ">
<path fill="none" stroke="#63b8ff" d="M559,-406.75C559,-399.8 559,-389.85 559,-381.13"/>
<polygon fill="#63b8ff" stroke="#63b8ff" points="562.5,-381.09 559,-371.09 555.5,-381.09 562.5,-381.09"/>
</a>
</g>
</g>
<!-- Node25&#45;&gt;Node2 -->
<g id="edge39_Node000025_Node000002" class="edge">
<title>Node25&#45;&gt;Node2</title>
<g id="a_edge39_Node000025_Node000002"><a xlink:title=" ">
<path fill="none" stroke="#63b8ff" d="M592.43,-352.1C628.64,-343.01 686.54,-328.46 726.33,-318.47"/>
<polygon fill="#63b8ff" stroke="#63b8ff" points="727.18,-321.87 736.02,-316.03 725.47,-315.08 727.18,-321.87"/>
</a>
</g>
</g>
<!-- Node26 -->
<g id="Node000026" class="node">
<title>Node26</title>
<g id="a_Node000026"><a xlink:href="na-iio-provider_8h.html" target="_top" xlink:title=" ">
<polygon fill="white" stroke="#666666" points="590.5,-316 475.5,-316 475.5,-297 590.5,-297 590.5,-316"/>
<text text-anchor="middle" x="533" y="-304" font-family="Helvetica,sans-Serif" font-size="10.00">api/na&#45;iio&#45;provider.h</text>
</a>
</g>
</g>
<!-- Node25&#45;&gt;Node26 -->
<g id="edge37_Node000025_Node000026" class="edge">
<title>Node25&#45;&gt;Node26</title>
<g id="a_edge37_Node000025_Node000026"><a xlink:title=" ">
<path fill="none" stroke="#63b8ff" d="M554.71,-351.75C551.19,-344.57 546.09,-334.18 541.72,-325.27"/>
<polygon fill="#63b8ff" stroke="#63b8ff" points="544.76,-323.53 537.21,-316.09 538.48,-326.61 544.76,-323.53"/>
</a>
</g>
</g>
<!-- Node27 -->
<g id="Node000027" class="node">
<title>Node27</title>
<g id="a_Node000027"><a xlink:href="na-settings_8h.html" target="_top" xlink:title=" ">
<polygon fill="white" stroke="#666666" points="452,-74 372,-74 372,-55 452,-55 452,-74"/>
<text text-anchor="middle" x="412" y="-62" font-family="Helvetica,sans-Serif" font-size="10.00">na&#45;settings.h</text>
</a>
</g>
</g>
<!-- Node25&#45;&gt;Node27 -->
<g id="edge40_Node000025_Node000027" class="edge">
<title>Node25&#45;&gt;Node27</title>
<g id="a_edge40_Node000025_Node000027"><a xlink:title=" ">
<path fill="none" stroke="#63b8ff" d="M535.73,-351.89C487.48,-333.32 381,-288.28 381,-252.5 381,-252.5 381,-252.5 381,-190 381,-151.17 395.37,-107.5 404.54,-83.58"/>
<polygon fill="#63b8ff" stroke="#63b8ff" points="407.88,-84.66 408.32,-74.07 401.38,-82.07 407.88,-84.66"/>
</a>
</g>
</g>
<!-- Node26&#45;&gt;Node14 -->
<g id="edge38_Node000026_Node000014" class="edge">
<title>Node26&#45;&gt;Node14</title>
<g id="a_edge38_Node000026_Node000014"><a xlink:title=" ">
<path fill="none" stroke="#63b8ff" d="M518.01,-296.98C505.55,-289.16 488.26,-276.45 478,-261 467.88,-245.77 462.79,-225.35 460.29,-210.68"/>
<polygon fill="#63b8ff" stroke="#63b8ff" points="463.75,-210.16 458.84,-200.77 456.83,-211.17 463.75,-210.16"/>
</a>
</g>
</g>
<!-- Node27&#45;&gt;Node7 -->
<g id="edge41_Node000027_Node000007" class="edge">
<title>Node27&#45;&gt;Node7</title>
<g id="a_edge41_Node000027_Node000007"><a xlink:title=" ">
<path fill="none" stroke="#63b8ff" d="M445.26,-54.98C480.61,-45.93 536.67,-31.58 575.51,-21.64"/>
<polygon fill="#63b8ff" stroke="#63b8ff" points="576.66,-24.95 585.48,-19.08 574.93,-18.17 576.66,-24.95"/>
</a>
</g>
</g>
<!-- Node28&#45;&gt;Node21 -->
<g id="edge43_Node000028_Node000021" class="edge">
<title>Node28&#45;&gt;Node21</title>
<g id="a_edge43_Node000028_Node000021"><a xlink:title=" ">
<path fill="none" stroke="#63b8ff" d="M312.95,-461.75C317.06,-454.49 323.03,-443.95 328.1,-434.98"/>
<polygon fill="#63b8ff" stroke="#63b8ff" points="331.26,-436.52 333.14,-426.09 325.17,-433.07 331.26,-436.52"/>
</a>
</g>
</g>
<!-- Node29&#45;&gt;Node21 -->
<g id="edge45_Node000029_Node000021" class="edge">
<title>Node29&#45;&gt;Node21</title>
<g id="a_edge45_Node000029_Node000021"><a xlink:title=" ">
<path fill="none" stroke="#63b8ff" d="M212.94,-461.98C237.56,-453.23 276.12,-439.51 303.92,-429.62"/>
<polygon fill="#63b8ff" stroke="#63b8ff" points="305.38,-432.82 313.62,-426.17 303.03,-426.22 305.38,-432.82"/>
</a>
</g>
</g>
<!-- Node30&#45;&gt;Node19 -->
<g id="edge50_Node000030_Node000019" class="edge">
<title>Node30&#45;&gt;Node19</title>
<g id="a_edge50_Node000030_Node000019"><a xlink:title=" ">
<path fill="none" stroke="#63b8ff" d="M594.96,-516.98C614.03,-508.42 643.66,-495.11 665.55,-485.28"/>
<polygon fill="#63b8ff" stroke="#63b8ff" points="667.01,-488.46 674.7,-481.17 664.14,-482.07 667.01,-488.46"/>
</a>
</g>
</g>
<!-- Node31 -->
<g id="Node000031" class="node">
<title>Node31</title>
<g id="a_Node000031"><a xlink:href="cact-application_8h.html" target="_top" xlink:title=" ">
<polygon fill="white" stroke="#666666" points="628,-481 524,-481 524,-462 628,-462 628,-481"/>
<text text-anchor="middle" x="576" y="-469" font-family="Helvetica,sans-Serif" font-size="10.00">cact&#45;application.h</text>
</a>
</g>
</g>
<!-- Node30&#45;&gt;Node31 -->
<g id="edge47_Node000030_Node000031" class="edge">
<title>Node30&#45;&gt;Node31</title>
<g id="a_edge47_Node000030_Node000031"><a xlink:title=" ">
<path fill="none" stroke="#63b8ff" d="M576,-516.75C576,-509.8 576,-499.85 576,-491.13"/>
<polygon fill="#63b8ff" stroke="#63b8ff" points="579.5,-491.09 576,-481.09 572.5,-491.09 579.5,-491.09"/>
</a>
</g>
</g>
<!-- Node32 -->
<g id="Node000032" class="node">
<title>Node32</title>
<g id="a_Node000032"><a xlink:href="cact-tree-view_8h.html" target="_top" xlink:title=" ">
<polygon fill="white" stroke="#666666" points="467.5,-481 372.5,-481 372.5,-462 467.5,-462 467.5,-481"/>
<text text-anchor="middle" x="420" y="-469" font-family="Helvetica,sans-Serif" font-size="10.00">cact&#45;tree&#45;view.h</text>
</a>
</g>
</g>
<!-- Node30&#45;&gt;Node32 -->
<g id="edge51_Node000030_Node000032" class="edge">
<title>Node30&#45;&gt;Node32</title>
<g id="a_edge51_Node000030_Node000032"><a xlink:title=" ">
<path fill="none" stroke="#63b8ff" d="M550.94,-516.98C524.97,-508.16 484.19,-494.31 455.04,-484.41"/>
<polygon fill="#63b8ff" stroke="#63b8ff" points="455.85,-480.99 445.26,-481.08 453.6,-487.61 455.85,-480.99"/>
</a>
</g>
</g>
<!-- Node31&#45;&gt;Node22 -->
<g id="edge49_Node000031_Node000022" class="edge">
<title>Node31&#45;&gt;Node22</title>
<g id="a_edge49_Node000031_Node000022"><a xlink:title=" ">
<path fill="none" stroke="#63b8ff" d="M556.93,-461.84C515.13,-442.88 415.3,-397.58 366.22,-375.31"/>
<polygon fill="#63b8ff" stroke="#63b8ff" points="367.39,-371.99 356.83,-371.05 364.49,-378.37 367.39,-371.99"/>
</a>
</g>
</g>
<!-- Node31&#45;&gt;Node24 -->
<g id="edge48_Node000031_Node000024" class="edge">
<title>Node31&#45;&gt;Node24</title>
<g id="a_edge48_Node000031_Node000024"><a xlink:title=" ">
<path fill="none" stroke="#63b8ff" d="M573.19,-461.75C570.94,-454.72 567.7,-444.62 564.88,-435.84"/>
<polygon fill="#63b8ff" stroke="#63b8ff" points="568.14,-434.54 561.75,-426.09 561.48,-436.68 568.14,-434.54"/>
</a>
</g>
</g>
<!-- Node32&#45;&gt;Node14 -->
<g id="edge52_Node000032_Node000014" class="edge">
<title>Node32&#45;&gt;Node14</title>
<g id="a_edge52_Node000032_Node000014"><a xlink:title=" ">
<path fill="none" stroke="#63b8ff" d="M420,-461.82C420,-443.48 420,-399.44 420,-362.5 420,-362.5 420,-362.5 420,-305.5 420,-269.98 436.94,-231.29 448.2,-209.5"/>
<polygon fill="#63b8ff" stroke="#63b8ff" points="451.39,-210.97 453.03,-200.5 445.22,-207.66 451.39,-210.97"/>
</a>
</g>
</g>
<!-- Node32&#45;&gt;Node21 -->
<g id="edge53_Node000032_Node000021" class="edge">
<title>Node32&#45;&gt;Node21</title>
<g id="a_edge53_Node000032_Node000021"><a xlink:title=" ">
<path fill="none" stroke="#63b8ff" d="M406.83,-461.98C394.23,-453.84 375,-441.41 360.06,-431.76"/>
<polygon fill="#63b8ff" stroke="#63b8ff" points="361.71,-428.66 351.41,-426.17 357.91,-434.54 361.71,-428.66"/>
</a>
</g>
</g>
<!-- Node33&#45;&gt;Node16 -->
<g id="edge55_Node000033_Node000016" class="edge">
<title>Node33&#45;&gt;Node16</title>
<g id="a_edge55_Node000033_Node000016"><a xlink:title=" ">
<path fill="none" stroke="#63b8ff" d="M75.24,-461.81C103.61,-446.15 157,-410.32 157,-362.5 157,-362.5 157,-362.5 157,-190 157,-157.55 370.99,-100.44 466.69,-76.52"/>
<polygon fill="#63b8ff" stroke="#63b8ff" points="467.8,-79.85 476.66,-74.04 466.11,-73.06 467.8,-79.85"/>
</a>
</g>
</g>
<!-- Node33&#45;&gt;Node21 -->
<g id="edge56_Node000033_Node000021" class="edge">
<title>Node33&#45;&gt;Node21</title>
<g id="a_edge56_Node000033_Node000021"><a xlink:title=" ">
<path fill="none" stroke="#63b8ff" d="M102.99,-461.98C152.07,-452.69 230.67,-437.82 283.29,-427.86"/>
<polygon fill="#63b8ff" stroke="#63b8ff" points="283.95,-431.29 293.12,-425.99 282.65,-424.42 283.95,-431.29"/>
</a>
</g>
</g>
</g>
</svg>
