<?xml version="1.0" encoding="UTF-8" standalone="no"?>
<!DOCTYPE svg PUBLIC "-//W3C//DTD SVG 1.1//EN"
 "http://www.w3.org/Graphics/SVG/1.1/DTD/svg11.dtd">
<!-- Generated by graphviz version 2.43.0 (0)
 -->
<!-- Title: caja&#45;mime&#45;actions.h Pages: 1 -->
<svg width="1364pt" height="93pt"
 viewBox="0.00 0.00 1364.00 93.00" xmlns="http://www.w3.org/2000/svg" xmlns:xlink="http://www.w3.org/1999/xlink">
<g id="graph0" class="graph" transform="scale(1 1) rotate(0) translate(4 89)">
<title>caja&#45;mime&#45;actions.h</title>
<!-- Node1 -->
<g id="Node000001" class="node">
<title>Node1</title>
<g id="a_Node000001"><a xlink:title=" ">
<polygon fill="#999999" stroke="#666666" points="794,-85 677,-85 677,-66 794,-66 794,-85"/>
<text text-anchor="middle" x="735.5" y="-73" font-family="Helvetica,sans-Serif" font-size="10.00">caja&#45;mime&#45;actions.h</text>
</a>
</g>
</g>
<!-- Node2 -->
<g id="Node000002" class="node">
<title>Node2</title>
<g id="a_Node000002"><a xlink:href="caja-information-panel_8c.html" target="_top" xlink:title=" ">
<polygon fill="white" stroke="#666666" points="137,-24.5 0,-24.5 0,-5.5 137,-5.5 137,-24.5"/>
<text text-anchor="middle" x="68.5" y="-12.5" font-family="Helvetica,sans-Serif" font-size="10.00">caja&#45;information&#45;panel.c</text>
</a>
</g>
</g>
<!-- Node1&#45;&gt;Node2 -->
<g id="edge1_Node000001_Node000002" class="edge">
<title>Node1&#45;&gt;Node2</title>
<g id="a_edge1_Node000001_Node000002"><a xlink:title=" ">
<path fill="none" stroke="#63b8ff" d="M666.47,-71.57C556.22,-66.39 333.74,-53.81 146.5,-30 135.17,-28.56 122.99,-26.58 111.7,-24.57"/>
<polygon fill="#63b8ff" stroke="#63b8ff" points="666.63,-75.09 676.78,-72.05 666.95,-68.09 666.63,-75.09"/>
</a>
</g>
</g>
<!-- Node3 -->
<g id="Node000003" class="node">
<title>Node3</title>
<g id="a_Node000003"><a xlink:href="caja-mime-actions_8c.html" target="_top" xlink:title=" ">
<polygon fill="white" stroke="#666666" points="271.5,-24.5 155.5,-24.5 155.5,-5.5 271.5,-5.5 271.5,-24.5"/>
<text text-anchor="middle" x="213.5" y="-12.5" font-family="Helvetica,sans-Serif" font-size="10.00">caja&#45;mime&#45;actions.c</text>
</a>
</g>
</g>
<!-- Node1&#45;&gt;Node3 -->
<g id="edge2_Node000001_Node000003" class="edge">
<title>Node1&#45;&gt;Node3</title>
<g id="a_edge2_Node000001_Node000003"><a xlink:title=" ">
<path fill="none" stroke="#63b8ff" d="M666.7,-70.11C577.34,-63.87 416.67,-50.82 280.5,-30 270.87,-28.53 260.53,-26.56 250.93,-24.57"/>
<polygon fill="#63b8ff" stroke="#63b8ff" points="666.49,-73.6 676.71,-70.8 666.97,-66.62 666.49,-73.6"/>
</a>
</g>
</g>
<!-- Node4 -->
<g id="Node000004" class="node">
<title>Node4</title>
<g id="a_Node000004"><a xlink:href="caja-navigation-window_8c.html" target="_top" xlink:title=" ">
<polygon fill="white" stroke="#666666" points="431,-24.5 290,-24.5 290,-5.5 431,-5.5 431,-24.5"/>
<text text-anchor="middle" x="360.5" y="-12.5" font-family="Helvetica,sans-Serif" font-size="10.00">caja&#45;navigation&#45;window.c</text>
</a>
</g>
</g>
<!-- Node1&#45;&gt;Node4 -->
<g id="edge3_Node000001_Node000004" class="edge">
<title>Node1&#45;&gt;Node4</title>
<g id="a_edge3_Node000001_Node000004"><a xlink:title=" ">
<path fill="none" stroke="#63b8ff" d="M666.62,-64.67C606.58,-55.97 517.19,-42.72 439.5,-30 429.19,-28.31 418.14,-26.41 407.67,-24.57"/>
<polygon fill="#63b8ff" stroke="#63b8ff" points="666.34,-68.16 676.74,-66.13 667.34,-61.23 666.34,-68.16"/>
</a>
</g>
</g>
<!-- Node5 -->
<g id="Node000005" class="node">
<title>Node5</title>
<g id="a_Node000005"><a xlink:href="caja-program-choosing_8c.html" target="_top" xlink:title=" ">
<polygon fill="white" stroke="#666666" points="586,-24.5 449,-24.5 449,-5.5 586,-5.5 586,-24.5"/>
<text text-anchor="middle" x="517.5" y="-12.5" font-family="Helvetica,sans-Serif" font-size="10.00">caja&#45;program&#45;choosing.c</text>
</a>
</g>
</g>
<!-- Node1&#45;&gt;Node5 -->
<g id="edge4_Node000001_Node000005" class="edge">
<title>Node1&#45;&gt;Node5</title>
<g id="a_edge4_Node000001_Node000005"><a xlink:title=" ">
<path fill="none" stroke="#63b8ff" d="M694.12,-63.4C651.97,-52.08 587.52,-34.79 549.24,-24.52"/>
<polygon fill="#63b8ff" stroke="#63b8ff" points="693.24,-66.78 703.8,-65.99 695.05,-60.02 693.24,-66.78"/>
</a>
</g>
</g>
<!-- Node6 -->
<g id="Node000006" class="node">
<title>Node6</title>
<g id="a_Node000006"><a xlink:href="caja-spatial-window_8c.html" target="_top" xlink:title=" ">
<polygon fill="white" stroke="#666666" points="726.5,-24.5 604.5,-24.5 604.5,-5.5 726.5,-5.5 726.5,-24.5"/>
<text text-anchor="middle" x="665.5" y="-12.5" font-family="Helvetica,sans-Serif" font-size="10.00">caja&#45;spatial&#45;window.c</text>
</a>
</g>
</g>
<!-- Node1&#45;&gt;Node6 -->
<g id="edge5_Node000001_Node000006" class="edge">
<title>Node1&#45;&gt;Node6</title>
<g id="a_edge5_Node000001_Node000006"><a xlink:title=" ">
<path fill="none" stroke="#63b8ff" d="M717.22,-59.22C704.05,-48.21 686.74,-33.75 675.87,-24.67"/>
<polygon fill="#63b8ff" stroke="#63b8ff" points="715.25,-62.14 725.17,-65.87 719.74,-56.77 715.25,-62.14"/>
</a>
</g>
</g>
<!-- Node7 -->
<g id="Node000007" class="node">
<title>Node7</title>
<g id="a_Node000007"><a xlink:href="caja-window-manage-views_8c.html" target="_top" xlink:title=" ">
<polygon fill="white" stroke="#666666" points="866.5,-30 744.5,-30 744.5,0 866.5,0 866.5,-30"/>
<text text-anchor="start" x="752.5" y="-18" font-family="Helvetica,sans-Serif" font-size="10.00">caja&#45;window&#45;manage</text>
<text text-anchor="middle" x="805.5" y="-7" font-family="Helvetica,sans-Serif" font-size="10.00">&#45;views.c</text>
</a>
</g>
</g>
<!-- Node1&#45;&gt;Node7 -->
<g id="edge6_Node000001_Node000007" class="edge">
<title>Node1&#45;&gt;Node7</title>
<g id="a_edge6_Node000001_Node000007"><a xlink:title=" ">
<path fill="none" stroke="#63b8ff" d="M753.77,-59.23C764.54,-50.23 778.08,-38.91 788.61,-30.11"/>
<polygon fill="#63b8ff" stroke="#63b8ff" points="751.26,-56.77 745.83,-65.87 755.75,-62.14 751.26,-56.77"/>
</a>
</g>
</g>
<!-- Node8 -->
<g id="Node000008" class="node">
<title>Node8</title>
<g id="a_Node000008"><a xlink:href="caja-window_8c.html" target="_top" xlink:title=" ">
<polygon fill="white" stroke="#666666" points="970.5,-24.5 884.5,-24.5 884.5,-5.5 970.5,-5.5 970.5,-24.5"/>
<text text-anchor="middle" x="927.5" y="-12.5" font-family="Helvetica,sans-Serif" font-size="10.00">caja&#45;window.c</text>
</a>
</g>
</g>
<!-- Node1&#45;&gt;Node8 -->
<g id="edge7_Node000001_Node000008" class="edge">
<title>Node1&#45;&gt;Node8</title>
<g id="a_edge7_Node000001_Node000008"><a xlink:title=" ">
<path fill="none" stroke="#63b8ff" d="M773.37,-62.96C810.5,-51.65 866.26,-34.66 899.55,-24.52"/>
<polygon fill="#63b8ff" stroke="#63b8ff" points="771.96,-59.73 763.42,-65.99 774,-66.43 771.96,-59.73"/>
</a>
</g>
</g>
<!-- Node9 -->
<g id="Node000009" class="node">
<title>Node9</title>
<g id="a_Node000009"><a xlink:href="fm-directory-view_8c.html" target="_top" xlink:title=" ">
<polygon fill="white" stroke="#666666" points="1100,-24.5 989,-24.5 989,-5.5 1100,-5.5 1100,-24.5"/>
<text text-anchor="middle" x="1044.5" y="-12.5" font-family="Helvetica,sans-Serif" font-size="10.00">fm&#45;directory&#45;view.c</text>
</a>
</g>
</g>
<!-- Node1&#45;&gt;Node9 -->
<g id="edge8_Node000001_Node000009" class="edge">
<title>Node1&#45;&gt;Node9</title>
<g id="a_edge8_Node000001_Node000009"><a xlink:title=" ">
<path fill="none" stroke="#63b8ff" d="M795.01,-64.19C844.48,-55.49 916.68,-42.49 979.5,-30 987.99,-28.31 997.09,-26.41 1005.7,-24.57"/>
<polygon fill="#63b8ff" stroke="#63b8ff" points="794.37,-60.75 785.12,-65.93 795.58,-67.64 794.37,-60.75"/>
</a>
</g>
</g>
<!-- Node10 -->
<g id="Node000010" class="node">
<title>Node10</title>
<g id="a_Node000010"><a xlink:href="fm-properties-window_8c.html" target="_top" xlink:title=" ">
<polygon fill="white" stroke="#666666" points="1250.5,-24.5 1118.5,-24.5 1118.5,-5.5 1250.5,-5.5 1250.5,-24.5"/>
<text text-anchor="middle" x="1184.5" y="-12.5" font-family="Helvetica,sans-Serif" font-size="10.00">fm&#45;properties&#45;window.c</text>
</a>
</g>
</g>
<!-- Node1&#45;&gt;Node10 -->
<g id="edge9_Node000001_Node000010" class="edge">
<title>Node1&#45;&gt;Node10</title>
<g id="a_edge9_Node000001_Node000010"><a xlink:title=" ">
<path fill="none" stroke="#63b8ff" d="M804.57,-67.66C879.76,-59.9 1003.47,-46.19 1109.5,-30 1119.84,-28.42 1130.95,-26.48 1141.35,-24.56"/>
<polygon fill="#63b8ff" stroke="#63b8ff" points="803.88,-64.22 794.29,-68.72 804.59,-71.18 803.88,-64.22"/>
</a>
</g>
</g>
<!-- Node11 -->
<g id="Node000011" class="node">
<title>Node11</title>
<g id="a_Node000011"><a xlink:href="fm-tree-view_8c.html" target="_top" xlink:title=" ">
<polygon fill="white" stroke="#666666" points="1356,-24.5 1269,-24.5 1269,-5.5 1356,-5.5 1356,-24.5"/>
<text text-anchor="middle" x="1312.5" y="-12.5" font-family="Helvetica,sans-Serif" font-size="10.00">fm&#45;tree&#45;view.c</text>
</a>
</g>
</g>
<!-- Node1&#45;&gt;Node11 -->
<g id="edge10_Node000001_Node000011" class="edge">
<title>Node1&#45;&gt;Node11</title>
<g id="a_edge10_Node000001_Node000011"><a xlink:title=" ">
<path fill="none" stroke="#63b8ff" d="M804.11,-72.47C904.67,-68.63 1097.73,-58.02 1259.5,-30 1267.47,-28.62 1275.99,-26.61 1283.82,-24.55"/>
<polygon fill="#63b8ff" stroke="#63b8ff" points="803.94,-68.97 794.08,-72.84 804.2,-75.97 803.94,-68.97"/>
</a>
</g>
</g>
</g>
</svg>
