<?xml version="1.0" encoding="UTF-8" standalone="no"?>
<!DOCTYPE svg PUBLIC "-//W3C//DTD SVG 1.1//EN"
 "http://www.w3.org/Graphics/SVG/1.1/DTD/svg11.dtd">
<!-- Generated by graphviz version 2.43.0 (0)
 -->
<!-- Title: caja&#45;connect&#45;server&#45;dialog.h Pages: 1 -->
<svg width="602pt" height="170pt"
 viewBox="0.00 0.00 602.00 170.00" xmlns="http://www.w3.org/2000/svg" xmlns:xlink="http://www.w3.org/1999/xlink">
<g id="graph0" class="graph" transform="scale(1 1) rotate(0) translate(4 166)">
<title>caja&#45;connect&#45;server&#45;dialog.h</title>
<!-- Node1 -->
<g id="Node000001" class="node">
<title>Node1</title>
<g id="a_Node000001"><a xlink:title=" ">
<polygon fill="#999999" stroke="#666666" points="371,-162 258,-162 258,-132 371,-132 371,-162"/>
<text text-anchor="start" x="266" y="-150" font-family="Helvetica,sans-Serif" font-size="10.00">caja&#45;connect&#45;server</text>
<text text-anchor="middle" x="314.5" y="-139" font-family="Helvetica,sans-Serif" font-size="10.00">&#45;dialog.h</text>
</a>
</g>
</g>
<!-- Node2 -->
<g id="Node000002" class="node">
<title>Node2</title>
<g id="a_Node000002"><a xlink:href="caja-connect-server-dialog-main_8c.html" target="_top" xlink:title=" ">
<polygon fill="white" stroke="#666666" points="113,-96 0,-96 0,-66 113,-66 113,-96"/>
<text text-anchor="start" x="8" y="-84" font-family="Helvetica,sans-Serif" font-size="10.00">caja&#45;connect&#45;server</text>
<text text-anchor="middle" x="56.5" y="-73" font-family="Helvetica,sans-Serif" font-size="10.00">&#45;dialog&#45;main.c</text>
</a>
</g>
</g>
<!-- Node1&#45;&gt;Node2 -->
<g id="edge1_Node000001_Node000002" class="edge">
<title>Node1&#45;&gt;Node2</title>
<g id="a_edge1_Node000001_Node000002"><a xlink:title=" ">
<path fill="none" stroke="#63b8ff" d="M248.05,-129.52C206.21,-119.14 152.78,-105.88 112.99,-96.01"/>
<polygon fill="#63b8ff" stroke="#63b8ff" points="247.33,-132.94 257.88,-131.95 249.02,-126.15 247.33,-132.94"/>
</a>
</g>
</g>
<!-- Node3 -->
<g id="Node000003" class="node">
<title>Node3</title>
<g id="a_Node000003"><a xlink:href="caja-connect-server-dialog-nonmain_8c.html" target="_top" xlink:title=" ">
<polygon fill="white" stroke="#666666" points="244,-96 131,-96 131,-66 244,-66 244,-96"/>
<text text-anchor="start" x="139" y="-84" font-family="Helvetica,sans-Serif" font-size="10.00">caja&#45;connect&#45;server</text>
<text text-anchor="middle" x="187.5" y="-73" font-family="Helvetica,sans-Serif" font-size="10.00">&#45;dialog&#45;nonmain.c</text>
</a>
</g>
</g>
<!-- Node1&#45;&gt;Node3 -->
<g id="edge2_Node000001_Node000003" class="edge">
<title>Node1&#45;&gt;Node3</title>
<g id="a_edge2_Node000001_Node000003"><a xlink:title=" ">
<path fill="none" stroke="#63b8ff" d="M277.55,-127.38C257.67,-117.36 233.57,-105.22 215.31,-96.01"/>
<polygon fill="#63b8ff" stroke="#63b8ff" points="276.12,-130.58 286.63,-131.95 279.27,-124.33 276.12,-130.58"/>
</a>
</g>
</g>
<!-- Node4 -->
<g id="Node000004" class="node">
<title>Node4</title>
<g id="a_Node000004"><a xlink:href="caja-connect-server-dialog_8c.html" target="_top" xlink:title=" ">
<polygon fill="white" stroke="#666666" points="348,-30 235,-30 235,0 348,0 348,-30"/>
<text text-anchor="start" x="243" y="-18" font-family="Helvetica,sans-Serif" font-size="10.00">caja&#45;connect&#45;server</text>
<text text-anchor="middle" x="291.5" y="-7" font-family="Helvetica,sans-Serif" font-size="10.00">&#45;dialog.c</text>
</a>
</g>
</g>
<!-- Node1&#45;&gt;Node4 -->
<g id="edge3_Node000001_Node000004" class="edge">
<title>Node1&#45;&gt;Node4</title>
<g id="a_edge3_Node000001_Node000004"><a xlink:title=" ">
<path fill="none" stroke="#63b8ff" d="M301.29,-122.76C297.32,-114.57 293.5,-105.12 291.5,-96 286.54,-73.34 288.05,-46.2 289.7,-30.07"/>
<polygon fill="#63b8ff" stroke="#63b8ff" points="298.21,-124.43 305.91,-131.71 304.43,-121.22 298.21,-124.43"/>
</a>
</g>
</g>
<!-- Node5 -->
<g id="Node000005" class="node">
<title>Node5</title>
<g id="a_Node000005"><a xlink:href="caja-connect-server-operation_8c.html" target="_top" xlink:title=" ">
<polygon fill="white" stroke="#666666" points="489,-30 376,-30 376,0 489,0 489,-30"/>
<text text-anchor="start" x="384" y="-18" font-family="Helvetica,sans-Serif" font-size="10.00">caja&#45;connect&#45;server</text>
<text text-anchor="middle" x="432.5" y="-7" font-family="Helvetica,sans-Serif" font-size="10.00">&#45;operation.c</text>
</a>
</g>
</g>
<!-- Node1&#45;&gt;Node5 -->
<g id="edge4_Node000001_Node000005" class="edge">
<title>Node1&#45;&gt;Node5</title>
<g id="a_edge4_Node000001_Node000005"><a xlink:title=" ">
<path fill="none" stroke="#63b8ff" d="M380.68,-128.46C397.07,-121.03 412.94,-110.59 423.5,-96 437.51,-76.64 436.82,-47.45 434.82,-30.2"/>
<polygon fill="#63b8ff" stroke="#63b8ff" points="378.89,-125.42 371.01,-132.49 381.59,-131.88 378.89,-125.42"/>
</a>
</g>
</g>
<!-- Node6 -->
<g id="Node000006" class="node">
<title>Node6</title>
<g id="a_Node000006"><a xlink:href="caja-connect-server-operation_8h.html" target="_top" xlink:title=" ">
<polygon fill="white" stroke="#666666" points="414,-96 301,-96 301,-66 414,-66 414,-96"/>
<text text-anchor="start" x="309" y="-84" font-family="Helvetica,sans-Serif" font-size="10.00">caja&#45;connect&#45;server</text>
<text text-anchor="middle" x="357.5" y="-73" font-family="Helvetica,sans-Serif" font-size="10.00">&#45;operation.h</text>
</a>
</g>
</g>
<!-- Node1&#45;&gt;Node6 -->
<g id="edge5_Node000001_Node000006" class="edge">
<title>Node1&#45;&gt;Node6</title>
<g id="a_edge5_Node000001_Node000006"><a xlink:title=" ">
<path fill="none" stroke="#63b8ff" d="M329.79,-123.24C335.86,-114.21 342.64,-104.11 347.98,-96.16"/>
<polygon fill="#63b8ff" stroke="#63b8ff" points="326.71,-121.54 324.04,-131.8 332.53,-125.45 326.71,-121.54"/>
</a>
</g>
</g>
<!-- Node7 -->
<g id="Node000007" class="node">
<title>Node7</title>
<g id="a_Node000007"><a xlink:href="caja-window-menus_8c.html" target="_top" xlink:title=" ">
<polygon fill="white" stroke="#666666" points="594,-90.5 471,-90.5 471,-71.5 594,-71.5 594,-90.5"/>
<text text-anchor="middle" x="532.5" y="-78.5" font-family="Helvetica,sans-Serif" font-size="10.00">caja&#45;window&#45;menus.c</text>
</a>
</g>
</g>
<!-- Node1&#45;&gt;Node7 -->
<g id="edge8_Node000001_Node000007" class="edge">
<title>Node1&#45;&gt;Node7</title>
<g id="a_edge8_Node000001_Node000007"><a xlink:title=" ">
<path fill="none" stroke="#63b8ff" d="M371.97,-129.13C414.28,-116.71 470.05,-100.33 503.49,-90.52"/>
<polygon fill="#63b8ff" stroke="#63b8ff" points="370.95,-125.78 362.34,-131.95 372.92,-132.5 370.95,-125.78"/>
</a>
</g>
</g>
<!-- Node6&#45;&gt;Node4 -->
<g id="edge6_Node000006_Node000004" class="edge">
<title>Node6&#45;&gt;Node4</title>
<g id="a_edge6_Node000006_Node000004"><a xlink:title=" ">
<path fill="none" stroke="#63b8ff" d="M335.48,-58.65C325.81,-49.27 314.73,-38.53 306.11,-30.16"/>
<polygon fill="#63b8ff" stroke="#63b8ff" points="333.24,-61.35 342.85,-65.8 338.11,-56.32 333.24,-61.35"/>
</a>
</g>
</g>
<!-- Node6&#45;&gt;Node5 -->
<g id="edge7_Node000006_Node000005" class="edge">
<title>Node6&#45;&gt;Node5</title>
<g id="a_edge7_Node000006_Node000005"><a xlink:title=" ">
<path fill="none" stroke="#63b8ff" d="M381.87,-59.2C393.01,-49.7 405.91,-38.69 415.9,-30.16"/>
<polygon fill="#63b8ff" stroke="#63b8ff" points="379.48,-56.64 374.14,-65.8 384.02,-61.97 379.48,-56.64"/>
</a>
</g>
</g>
</g>
</svg>
