<?xml version="1.0" encoding="UTF-8" standalone="no"?>
<!DOCTYPE svg PUBLIC "-//W3C//DTD SVG 1.1//EN"
 "http://www.w3.org/Graphics/SVG/1.1/DTD/svg11.dtd">
<!-- Generated by graphviz version 2.43.0 (0)
 -->
<!-- Title: caja&#45;bookmark.c Pages: 1 -->
<svg width="1115pt" height="203pt"
 viewBox="0.00 0.00 1115.00 203.00" xmlns="http://www.w3.org/2000/svg" xmlns:xlink="http://www.w3.org/1999/xlink">
<g id="graph0" class="graph" transform="scale(1 1) rotate(0) translate(4 199)">
<title>caja&#45;bookmark.c</title>
<!-- Node1 -->
<g id="Node000001" class="node">
<title>Node1</title>
<g id="a_Node000001"><a xlink:title=" ">
<polygon fill="#999999" stroke="#666666" points="624.5,-195 526.5,-195 526.5,-176 624.5,-176 624.5,-195"/>
<text text-anchor="middle" x="575.5" y="-183" font-family="Helvetica,sans-Serif" font-size="10.00">caja&#45;bookmark.c</text>
</a>
</g>
</g>
<!-- Node2 -->
<g id="Node000002" class="node">
<title>Node2</title>
<g id="a_Node000002"><a xlink:title=" ">
<polygon fill="#e0e0e0" stroke="#999999" points="303,-140 248,-140 248,-121 303,-121 303,-140"/>
<text text-anchor="middle" x="275.5" y="-128" font-family="Helvetica,sans-Serif" font-size="10.00">config.h</text>
</a>
</g>
</g>
<!-- Node1&#45;&gt;Node2 -->
<g id="edge1_Node000001_Node000002" class="edge">
<title>Node1&#45;&gt;Node2</title>
<g id="a_edge1_Node000001_Node000002"><a xlink:title=" ">
<path fill="none" stroke="#63b8ff" d="M526.44,-176.47C474.49,-167.87 390.1,-153.6 317.5,-140 316.04,-139.73 314.55,-139.44 313.04,-139.15"/>
<polygon fill="#63b8ff" stroke="#63b8ff" points="313.53,-135.68 303.04,-137.19 312.18,-142.55 313.53,-135.68"/>
</a>
</g>
</g>
<!-- Node3 -->
<g id="Node000003" class="node">
<title>Node3</title>
<g id="a_Node000003"><a xlink:title=" ">
<polygon fill="#e0e0e0" stroke="#999999" points="605.5,-19 545.5,-19 545.5,0 605.5,0 605.5,-19"/>
<text text-anchor="middle" x="575.5" y="-7" font-family="Helvetica,sans-Serif" font-size="10.00">gtk/gtk.h</text>
</a>
</g>
</g>
<!-- Node1&#45;&gt;Node3 -->
<g id="edge2_Node000001_Node000003" class="edge">
<title>Node1&#45;&gt;Node3</title>
<g id="a_edge2_Node000001_Node000003"><a xlink:title=" ">
<path fill="none" stroke="#63b8ff" d="M624.76,-182.27C721.99,-177.37 931.07,-164.11 952.5,-140 1049.36,-31.03 731.48,-13.71 615.88,-10.99"/>
<polygon fill="#63b8ff" stroke="#63b8ff" points="615.74,-7.49 605.66,-10.78 615.59,-14.49 615.74,-7.49"/>
</a>
</g>
</g>
<!-- Node4 -->
<g id="Node000004" class="node">
<title>Node4</title>
<g id="a_Node000004"><a xlink:title=" ">
<polygon fill="#e0e0e0" stroke="#999999" points="429,-19 370,-19 370,0 429,0 429,-19"/>
<text text-anchor="middle" x="399.5" y="-7" font-family="Helvetica,sans-Serif" font-size="10.00">gio/gio.h</text>
</a>
</g>
</g>
<!-- Node1&#45;&gt;Node4 -->
<g id="edge3_Node000001_Node000004" class="edge">
<title>Node1&#45;&gt;Node4</title>
<g id="a_edge3_Node000001_Node000004"><a xlink:title=" ">
<path fill="none" stroke="#63b8ff" d="M526.22,-182.53C491.8,-178.58 447.08,-167.91 418.5,-140 388.92,-111.11 391.79,-57.88 395.92,-29.49"/>
<polygon fill="#63b8ff" stroke="#63b8ff" points="399.43,-29.74 397.62,-19.3 392.53,-28.59 399.43,-29.74"/>
</a>
</g>
</g>
<!-- Node5 -->
<g id="Node000005" class="node">
<title>Node5</title>
<g id="a_Node000005"><a xlink:href="eel-gdk-pixbuf-extensions_8h.html" target="_top" xlink:title=" ">
<polygon fill="white" stroke="#666666" points="243.5,-85 137.5,-85 137.5,-55 243.5,-55 243.5,-85"/>
<text text-anchor="start" x="145.5" y="-73" font-family="Helvetica,sans-Serif" font-size="10.00">eel/eel&#45;gdk&#45;pixbuf</text>
<text text-anchor="middle" x="190.5" y="-62" font-family="Helvetica,sans-Serif" font-size="10.00">&#45;extensions.h</text>
</a>
</g>
</g>
<!-- Node1&#45;&gt;Node5 -->
<g id="edge4_Node000001_Node000005" class="edge">
<title>Node1&#45;&gt;Node5</title>
<g id="a_edge4_Node000001_Node000005"><a xlink:title=" ">
<path fill="none" stroke="#63b8ff" d="M526.27,-177.55C481.19,-170.48 412.95,-158 355.5,-140 335.17,-133.63 331.12,-129.29 311.5,-121 286.03,-110.24 257.45,-98.42 234.47,-88.97"/>
<polygon fill="#63b8ff" stroke="#63b8ff" points="235.56,-85.64 224.98,-85.08 232.91,-92.12 235.56,-85.64"/>
</a>
</g>
</g>
<!-- Node8 -->
<g id="Node000008" class="node">
<title>Node8</title>
<g id="a_Node000008"><a xlink:href="eel-gtk-extensions_8h.html" target="_top" xlink:title=" ">
<polygon fill="white" stroke="#666666" points="571,-140 436,-140 436,-121 571,-121 571,-140"/>
<text text-anchor="middle" x="503.5" y="-128" font-family="Helvetica,sans-Serif" font-size="10.00">eel/eel&#45;gtk&#45;extensions.h</text>
</a>
</g>
</g>
<!-- Node1&#45;&gt;Node8 -->
<g id="edge8_Node000001_Node000008" class="edge">
<title>Node1&#45;&gt;Node8</title>
<g id="a_edge8_Node000001_Node000008"><a xlink:title=" ">
<path fill="none" stroke="#63b8ff" d="M563.93,-175.98C553.08,-168 536.62,-155.88 523.62,-146.31"/>
<polygon fill="#63b8ff" stroke="#63b8ff" points="525.41,-143.28 515.28,-140.17 521.26,-148.92 525.41,-143.28"/>
</a>
</g>
</g>
<!-- Node10 -->
<g id="Node000010" class="node">
<title>Node10</title>
<g id="a_Node000010"><a xlink:href="eel-gtk-macros_8h.html" target="_top" xlink:title=" ">
<polygon fill="white" stroke="#666666" points="707.5,-140 589.5,-140 589.5,-121 707.5,-121 707.5,-140"/>
<text text-anchor="middle" x="648.5" y="-128" font-family="Helvetica,sans-Serif" font-size="10.00">eel/eel&#45;gtk&#45;macros.h</text>
</a>
</g>
</g>
<!-- Node1&#45;&gt;Node10 -->
<g id="edge12_Node000001_Node000010" class="edge">
<title>Node1&#45;&gt;Node10</title>
<g id="a_edge12_Node000001_Node000010"><a xlink:title=" ">
<path fill="none" stroke="#63b8ff" d="M587.23,-175.98C598.23,-168 614.92,-155.88 628.1,-146.31"/>
<polygon fill="#63b8ff" stroke="#63b8ff" points="630.52,-148.88 636.56,-140.17 626.41,-143.21 630.52,-148.88"/>
</a>
</g>
</g>
<!-- Node11 -->
<g id="Node000011" class="node">
<title>Node11</title>
<g id="a_Node000011"><a xlink:href="eel-vfs-extensions_8h.html" target="_top" xlink:title=" ">
<polygon fill="white" stroke="#666666" points="943.5,-140 809.5,-140 809.5,-121 943.5,-121 943.5,-140"/>
<text text-anchor="middle" x="876.5" y="-128" font-family="Helvetica,sans-Serif" font-size="10.00">eel/eel&#45;vfs&#45;extensions.h</text>
</a>
</g>
</g>
<!-- Node1&#45;&gt;Node11 -->
<g id="edge13_Node000001_Node000011" class="edge">
<title>Node1&#45;&gt;Node11</title>
<g id="a_edge13_Node000001_Node000011"><a xlink:title=" ">
<path fill="none" stroke="#63b8ff" d="M623.86,-175.98C676.69,-166.68 761.32,-151.78 817.89,-141.82"/>
<polygon fill="#63b8ff" stroke="#63b8ff" points="818.52,-145.26 827.76,-140.08 817.3,-138.37 818.52,-145.26"/>
</a>
</g>
</g>
<!-- Node13 -->
<g id="Node000013" class="node">
<title>Node13</title>
<g id="a_Node000013"><a xlink:href="caja-bookmark_8h.html" target="_top" xlink:title=" ">
<polygon fill="white" stroke="#666666" points="509,-79.5 410,-79.5 410,-60.5 509,-60.5 509,-79.5"/>
<text text-anchor="middle" x="459.5" y="-67.5" font-family="Helvetica,sans-Serif" font-size="10.00">caja&#45;bookmark.h</text>
</a>
</g>
</g>
<!-- Node1&#45;&gt;Node13 -->
<g id="edge15_Node000001_Node000013" class="edge">
<title>Node1&#45;&gt;Node13</title>
<g id="a_edge15_Node000001_Node000013"><a xlink:title=" ">
<path fill="none" stroke="#63b8ff" d="M526.4,-184.01C492.68,-180.78 450.07,-170.36 427.5,-140 415.27,-123.55 429.64,-101.67 442.85,-87.01"/>
<polygon fill="#63b8ff" stroke="#63b8ff" points="445.49,-89.31 449.89,-79.68 440.44,-84.46 445.49,-89.31"/>
</a>
</g>
</g>
<!-- Node14 -->
<g id="Node000014" class="node">
<title>Node14</title>
<g id="a_Node000014"><a xlink:href="caja-file_8h.html" target="_top" xlink:title=" ">
<polygon fill="white" stroke="#666666" points="791,-140 726,-140 726,-121 791,-121 791,-140"/>
<text text-anchor="middle" x="758.5" y="-128" font-family="Helvetica,sans-Serif" font-size="10.00">caja&#45;file.h</text>
</a>
</g>
</g>
<!-- Node1&#45;&gt;Node14 -->
<g id="edge18_Node000001_Node000014" class="edge">
<title>Node1&#45;&gt;Node14</title>
<g id="a_edge18_Node000001_Node000014"><a xlink:title=" ">
<path fill="none" stroke="#63b8ff" d="M604.9,-175.98C635.89,-167.01 684.88,-152.82 719.17,-142.89"/>
<polygon fill="#63b8ff" stroke="#63b8ff" points="720.24,-146.23 728.87,-140.08 718.29,-139.5 720.24,-146.23"/>
</a>
</g>
</g>
<!-- Node18 -->
<g id="Node000018" class="node">
<title>Node18</title>
<g id="a_Node000018"><a xlink:href="caja-icon-names_8h.html" target="_top" xlink:title=" ">
<polygon fill="white" stroke="#666666" points="1107,-140 1000,-140 1000,-121 1107,-121 1107,-140"/>
<text text-anchor="middle" x="1053.5" y="-128" font-family="Helvetica,sans-Serif" font-size="10.00">caja&#45;icon&#45;names.h</text>
</a>
</g>
</g>
<!-- Node1&#45;&gt;Node18 -->
<g id="edge28_Node000001_Node000018" class="edge">
<title>Node1&#45;&gt;Node18</title>
<g id="a_edge28_Node000001_Node000018"><a xlink:title=" ">
<path fill="none" stroke="#63b8ff" d="M624.76,-179.42C701.77,-171.41 855.36,-155.2 985.5,-140 986.8,-139.85 988.11,-139.69 989.43,-139.54"/>
<polygon fill="#63b8ff" stroke="#63b8ff" points="990.18,-142.97 999.69,-138.31 989.34,-136.02 990.18,-142.97"/>
</a>
</g>
</g>
<!-- Node5&#45;&gt;Node4 -->
<g id="edge7_Node000005_Node000004" class="edge">
<title>Node5&#45;&gt;Node4</title>
<g id="a_edge7_Node000005_Node000004"><a xlink:title=" ">
<path fill="none" stroke="#63b8ff" d="M240.56,-54.99C277.11,-44.76 326,-31.07 359.86,-21.6"/>
<polygon fill="#63b8ff" stroke="#63b8ff" points="361.17,-24.86 369.85,-18.8 359.28,-18.12 361.17,-24.86"/>
</a>
</g>
</g>
<!-- Node6 -->
<g id="Node000006" class="node">
<title>Node6</title>
<g id="a_Node000006"><a xlink:title=" ">
<polygon fill="#e0e0e0" stroke="#999999" points="257,-19 124,-19 124,0 257,0 257,-19"/>
<text text-anchor="middle" x="190.5" y="-7" font-family="Helvetica,sans-Serif" font-size="10.00">gdk&#45;pixbuf/gdk&#45;pixbuf.h</text>
</a>
</g>
</g>
<!-- Node5&#45;&gt;Node6 -->
<g id="edge5_Node000005_Node000006" class="edge">
<title>Node5&#45;&gt;Node6</title>
<g id="a_edge5_Node000005_Node000006"><a xlink:title=" ">
<path fill="none" stroke="#63b8ff" d="M190.5,-54.84C190.5,-47.21 190.5,-37.7 190.5,-29.45"/>
<polygon fill="#63b8ff" stroke="#63b8ff" points="194,-29.27 190.5,-19.27 187,-29.27 194,-29.27"/>
</a>
</g>
</g>
<!-- Node7 -->
<g id="Node000007" class="node">
<title>Node7</title>
<g id="a_Node000007"><a xlink:title=" ">
<polygon fill="#e0e0e0" stroke="#999999" points="106,-19 41,-19 41,0 106,0 106,-19"/>
<text text-anchor="middle" x="73.5" y="-7" font-family="Helvetica,sans-Serif" font-size="10.00">gdk/gdk.h</text>
</a>
</g>
</g>
<!-- Node5&#45;&gt;Node7 -->
<g id="edge6_Node000005_Node000007" class="edge">
<title>Node5&#45;&gt;Node7</title>
<g id="a_edge6_Node000005_Node000007"><a xlink:title=" ">
<path fill="none" stroke="#63b8ff" d="M162.48,-54.99C143.48,-45.49 118.53,-33.02 99.89,-23.69"/>
<polygon fill="#63b8ff" stroke="#63b8ff" points="101.29,-20.48 90.78,-19.14 98.16,-26.74 101.29,-20.48"/>
</a>
</g>
</g>
<!-- Node8&#45;&gt;Node3 -->
<g id="edge9_Node000008_Node000003" class="edge">
<title>Node8&#45;&gt;Node3</title>
<g id="a_edge9_Node000008_Node000003"><a xlink:title=" ">
<path fill="none" stroke="#63b8ff" d="M508.68,-120.94C520.4,-101.57 549.17,-54.02 564.86,-28.08"/>
<polygon fill="#63b8ff" stroke="#63b8ff" points="567.99,-29.67 570.17,-19.3 562,-26.05 567.99,-29.67"/>
</a>
</g>
</g>
<!-- Node9 -->
<g id="Node000009" class="node">
<title>Node9</title>
<g id="a_Node000009"><a xlink:href="eel-gdk-extensions_8h.html" target="_top" xlink:title=" ">
<polygon fill="white" stroke="#666666" points="119,-79.5 0,-79.5 0,-60.5 119,-60.5 119,-79.5"/>
<text text-anchor="middle" x="59.5" y="-67.5" font-family="Helvetica,sans-Serif" font-size="10.00">eel&#45;gdk&#45;extensions.h</text>
</a>
</g>
</g>
<!-- Node8&#45;&gt;Node9 -->
<g id="edge10_Node000008_Node000009" class="edge">
<title>Node8&#45;&gt;Node9</title>
<g id="a_edge10_Node000008_Node000009"><a xlink:title=" ">
<path fill="none" stroke="#63b8ff" d="M435.86,-123.16C360.6,-115.72 235.47,-102.17 128.5,-85 122.16,-83.98 115.52,-82.79 108.97,-81.55"/>
<polygon fill="#63b8ff" stroke="#63b8ff" points="109.29,-78.04 98.81,-79.56 107.95,-84.91 109.29,-78.04"/>
</a>
</g>
</g>
<!-- Node9&#45;&gt;Node7 -->
<g id="edge11_Node000009_Node000007" class="edge">
<title>Node9&#45;&gt;Node7</title>
<g id="a_edge11_Node000009_Node000007"><a xlink:title=" ">
<path fill="none" stroke="#63b8ff" d="M61.57,-60.37C63.53,-52.16 66.55,-39.54 69.06,-29.05"/>
<polygon fill="#63b8ff" stroke="#63b8ff" points="72.5,-29.71 71.43,-19.17 65.69,-28.08 72.5,-29.71"/>
</a>
</g>
</g>
<!-- Node12 -->
<g id="Node000012" class="node">
<title>Node12</title>
<g id="a_Node000012"><a xlink:title=" ">
<polygon fill="#e0e0e0" stroke="#999999" points="898.5,-79.5 854.5,-79.5 854.5,-60.5 898.5,-60.5 898.5,-79.5"/>
<text text-anchor="middle" x="876.5" y="-67.5" font-family="Helvetica,sans-Serif" font-size="10.00">glib.h</text>
</a>
</g>
</g>
<!-- Node11&#45;&gt;Node12 -->
<g id="edge14_Node000011_Node000012" class="edge">
<title>Node11&#45;&gt;Node12</title>
<g id="a_edge14_Node000011_Node000012"><a xlink:title=" ">
<path fill="none" stroke="#63b8ff" d="M876.5,-120.87C876.5,-112.75 876.5,-100.31 876.5,-89.89"/>
<polygon fill="#63b8ff" stroke="#63b8ff" points="880,-89.67 876.5,-79.67 873,-89.67 880,-89.67"/>
</a>
</g>
</g>
<!-- Node13&#45;&gt;Node3 -->
<g id="edge16_Node000013_Node000003" class="edge">
<title>Node13&#45;&gt;Node3</title>
<g id="a_edge16_Node000013_Node000003"><a xlink:title=" ">
<path fill="none" stroke="#63b8ff" d="M476.62,-60.37C495.72,-50.73 526.87,-35.03 549.1,-23.81"/>
<polygon fill="#63b8ff" stroke="#63b8ff" points="550.96,-26.8 558.31,-19.17 547.81,-20.55 550.96,-26.8"/>
</a>
</g>
</g>
<!-- Node13&#45;&gt;Node4 -->
<g id="edge17_Node000013_Node000004" class="edge">
<title>Node13&#45;&gt;Node4</title>
<g id="a_edge17_Node000013_Node000004"><a xlink:title=" ">
<path fill="none" stroke="#63b8ff" d="M450.65,-60.37C441.52,-51.47 427.08,-37.39 415.86,-26.45"/>
<polygon fill="#63b8ff" stroke="#63b8ff" points="417.99,-23.64 408.39,-19.17 413.11,-28.65 417.99,-23.64"/>
</a>
</g>
</g>
<!-- Node14&#45;&gt;Node3 -->
<g id="edge19_Node000014_Node000003" class="edge">
<title>Node14&#45;&gt;Node3</title>
<g id="a_edge19_Node000014_Node000003"><a xlink:title=" ">
<path fill="none" stroke="#63b8ff" d="M758.91,-120.8C759.14,-105.35 757.3,-73.07 739.5,-55 707.05,-22.05 652.84,-12.77 615.7,-10.52"/>
<polygon fill="#63b8ff" stroke="#63b8ff" points="615.85,-7.03 605.7,-10.06 615.53,-14.02 615.85,-7.03"/>
</a>
</g>
</g>
<!-- Node14&#45;&gt;Node4 -->
<g id="edge20_Node000014_Node000004" class="edge">
<title>Node14&#45;&gt;Node4</title>
<g id="a_edge20_Node000014_Node000004"><a xlink:title=" ">
<path fill="none" stroke="#63b8ff" d="M726.97,-120.96C695.91,-112.41 647.19,-98.59 605.5,-85 543.16,-64.69 471.37,-37.95 431.12,-22.65"/>
<polygon fill="#63b8ff" stroke="#63b8ff" points="432.18,-19.31 421.59,-19.02 429.69,-25.85 432.18,-19.31"/>
</a>
</g>
</g>
<!-- Node15 -->
<g id="Node000015" class="node">
<title>Node15</title>
<g id="a_Node000015"><a xlink:href="caja-file-attributes_8h.html" target="_top" xlink:title=" ">
<polygon fill="white" stroke="#666666" points="730.5,-79.5 614.5,-79.5 614.5,-60.5 730.5,-60.5 730.5,-79.5"/>
<text text-anchor="middle" x="672.5" y="-67.5" font-family="Helvetica,sans-Serif" font-size="10.00">caja&#45;file&#45;attributes.h</text>
</a>
</g>
</g>
<!-- Node14&#45;&gt;Node15 -->
<g id="edge21_Node000014_Node000015" class="edge">
<title>Node14&#45;&gt;Node15</title>
<g id="a_edge21_Node000014_Node000015"><a xlink:title=" ">
<path fill="none" stroke="#63b8ff" d="M745.81,-120.87C732.09,-111.54 710,-96.51 693.65,-85.38"/>
<polygon fill="#63b8ff" stroke="#63b8ff" points="695.48,-82.4 685.24,-79.67 691.54,-88.19 695.48,-82.4"/>
</a>
</g>
</g>
<!-- Node16 -->
<g id="Node000016" class="node">
<title>Node16</title>
<g id="a_Node000016"><a xlink:href="caja-icon-info_8h.html" target="_top" xlink:title=" ">
<polygon fill="white" stroke="#666666" points="353.5,-79.5 261.5,-79.5 261.5,-60.5 353.5,-60.5 353.5,-79.5"/>
<text text-anchor="middle" x="307.5" y="-67.5" font-family="Helvetica,sans-Serif" font-size="10.00">caja&#45;icon&#45;info.h</text>
</a>
</g>
</g>
<!-- Node14&#45;&gt;Node16 -->
<g id="edge22_Node000014_Node000016" class="edge">
<title>Node14&#45;&gt;Node16</title>
<g id="a_edge22_Node000014_Node000016"><a xlink:title=" ">
<path fill="none" stroke="#63b8ff" d="M725.99,-122.63C722.79,-122.04 719.59,-121.49 716.5,-121 577.32,-99 541.21,-103.38 401.5,-85 389.36,-83.4 376.36,-81.55 364.01,-79.74"/>
<polygon fill="#63b8ff" stroke="#63b8ff" points="364.24,-76.23 353.83,-78.22 363.21,-83.15 364.24,-76.23"/>
</a>
</g>
</g>
<!-- Node16&#45;&gt;Node3 -->
<g id="edge27_Node000016_Node000003" class="edge">
<title>Node16&#45;&gt;Node3</title>
<g id="a_edge27_Node000016_Node000003"><a xlink:title=" ">
<path fill="none" stroke="#63b8ff" d="M346.47,-60.49C396.86,-49.49 484.18,-30.43 535.21,-19.3"/>
<polygon fill="#63b8ff" stroke="#63b8ff" points="536.19,-22.66 545.21,-17.11 534.7,-15.82 536.19,-22.66"/>
</a>
</g>
</g>
<!-- Node16&#45;&gt;Node4 -->
<g id="edge26_Node000016_Node000004" class="edge">
<title>Node16&#45;&gt;Node4</title>
<g id="a_edge26_Node000016_Node000004"><a xlink:title=" ">
<path fill="none" stroke="#63b8ff" d="M321.07,-60.37C335.89,-50.95 359.83,-35.73 377.36,-24.58"/>
<polygon fill="#63b8ff" stroke="#63b8ff" points="379.31,-27.49 385.87,-19.17 375.55,-21.58 379.31,-27.49"/>
</a>
</g>
</g>
<!-- Node16&#45;&gt;Node6 -->
<g id="edge24_Node000016_Node000006" class="edge">
<title>Node16&#45;&gt;Node6</title>
<g id="a_edge24_Node000016_Node000006"><a xlink:title=" ">
<path fill="none" stroke="#63b8ff" d="M290.49,-60.49C271.08,-50.79 239.11,-34.81 216.56,-23.53"/>
<polygon fill="#63b8ff" stroke="#63b8ff" points="218.04,-20.36 207.53,-19.02 214.91,-26.62 218.04,-20.36"/>
</a>
</g>
</g>
<!-- Node16&#45;&gt;Node7 -->
<g id="edge25_Node000016_Node000007" class="edge">
<title>Node16&#45;&gt;Node7</title>
<g id="a_edge25_Node000016_Node000007"><a xlink:title=" ">
<path fill="none" stroke="#63b8ff" d="M274.06,-60.46C266.94,-58.65 259.48,-56.75 252.5,-55 205.81,-43.25 152.21,-29.95 115.93,-20.98"/>
<polygon fill="#63b8ff" stroke="#63b8ff" points="116.72,-17.57 106.18,-18.57 115.04,-24.36 116.72,-17.57"/>
</a>
</g>
</g>
<!-- Node17 -->
<g id="Node000017" class="node">
<title>Node17</title>
<g id="a_Node000017"><a xlink:title=" ">
<polygon fill="#e0e0e0" stroke="#999999" points="352,-19 275,-19 275,0 352,0 352,-19"/>
<text text-anchor="middle" x="313.5" y="-7" font-family="Helvetica,sans-Serif" font-size="10.00">glib&#45;object.h</text>
</a>
</g>
</g>
<!-- Node16&#45;&gt;Node17 -->
<g id="edge23_Node000016_Node000017" class="edge">
<title>Node16&#45;&gt;Node17</title>
<g id="a_edge23_Node000016_Node000017"><a xlink:title=" ">
<path fill="none" stroke="#63b8ff" d="M308.39,-60.37C309.22,-52.25 310.49,-39.81 311.56,-29.39"/>
<polygon fill="#63b8ff" stroke="#63b8ff" points="315.07,-29.47 312.61,-19.17 308.11,-28.76 315.07,-29.47"/>
</a>
</g>
</g>
</g>
</svg>
