<?xml version="1.0" encoding="UTF-8" standalone="no"?>
<!DOCTYPE svg PUBLIC "-//W3C//DTD SVG 1.1//EN"
 "http://www.w3.org/Graphics/SVG/1.1/DTD/svg11.dtd">
<!-- Generated by graphviz version 2.43.0 (0)
 -->
<!-- Title: caja&#45;column&#45;provider.h Pages: 1 -->
<svg width="1217pt" height="82pt"
 viewBox="0.00 0.00 1216.50 82.00" xmlns="http://www.w3.org/2000/svg" xmlns:xlink="http://www.w3.org/1999/xlink">
<g id="graph0" class="graph" transform="scale(1 1) rotate(0) translate(4 78)">
<title>caja&#45;column&#45;provider.h</title>
<!-- Node1 -->
<g id="Node000001" class="node">
<title>Node1</title>
<g id="a_Node000001"><a xlink:title=" ">
<polygon fill="#999999" stroke="#666666" points="666.5,-74 537.5,-74 537.5,-55 666.5,-55 666.5,-74"/>
<text text-anchor="middle" x="602" y="-62" font-family="Helvetica,sans-Serif" font-size="10.00">caja&#45;column&#45;provider.h</text>
</a>
</g>
</g>
<!-- Node2 -->
<g id="Node000002" class="node">
<title>Node2</title>
<g id="a_Node000002"><a xlink:href="caja-column-provider_8c.html" target="_top" xlink:title=" ">
<polygon fill="white" stroke="#666666" points="128,-19 0,-19 0,0 128,0 128,-19"/>
<text text-anchor="middle" x="64" y="-7" font-family="Helvetica,sans-Serif" font-size="10.00">caja&#45;column&#45;provider.c</text>
</a>
</g>
</g>
<!-- Node1&#45;&gt;Node2 -->
<g id="edge1_Node000001_Node000002" class="edge">
<title>Node1&#45;&gt;Node2</title>
<g id="a_edge1_Node000001_Node000002"><a xlink:title=" ">
<path fill="none" stroke="#63b8ff" d="M527.22,-56.82C435.31,-48.5 274.59,-33.59 137,-19 134.08,-18.69 131.1,-18.37 128.09,-18.04"/>
<polygon fill="#63b8ff" stroke="#63b8ff" points="526.99,-60.31 537.26,-57.73 527.62,-53.34 526.99,-60.31"/>
</a>
</g>
</g>
<!-- Node3 -->
<g id="Node000003" class="node">
<title>Node3</title>
<g id="a_Node000003"><a xlink:href="caja-column-utilities_8c.html" target="_top" xlink:title=" ">
<polygon fill="white" stroke="#666666" points="271.5,-19 146.5,-19 146.5,0 271.5,0 271.5,-19"/>
<text text-anchor="middle" x="209" y="-7" font-family="Helvetica,sans-Serif" font-size="10.00">caja&#45;column&#45;utilities.c</text>
</a>
</g>
</g>
<!-- Node1&#45;&gt;Node3 -->
<g id="edge2_Node000001_Node000003" class="edge">
<title>Node1&#45;&gt;Node3</title>
<g id="a_edge2_Node000001_Node000003"><a xlink:title=" ">
<path fill="none" stroke="#63b8ff" d="M528.68,-53.61C454.68,-43.63 341.61,-28.38 271.66,-18.95"/>
<polygon fill="#63b8ff" stroke="#63b8ff" points="528.48,-57.12 538.86,-54.98 529.42,-50.18 528.48,-57.12"/>
</a>
</g>
</g>
<!-- Node4 -->
<g id="Node000004" class="node">
<title>Node4</title>
<g id="a_Node000004"><a xlink:href="caja-python-object_8c.html" target="_top" xlink:title=" ">
<polygon fill="white" stroke="#666666" points="406,-19 290,-19 290,0 406,0 406,-19"/>
<text text-anchor="middle" x="348" y="-7" font-family="Helvetica,sans-Serif" font-size="10.00">caja&#45;python&#45;object.c</text>
</a>
</g>
</g>
<!-- Node1&#45;&gt;Node4 -->
<g id="edge3_Node000001_Node000004" class="edge">
<title>Node1&#45;&gt;Node4</title>
<g id="a_edge3_Node000001_Node000004"><a xlink:title=" ">
<path fill="none" stroke="#63b8ff" d="M551.39,-52.94C503.78,-43.01 433.38,-28.31 389.13,-19.08"/>
<polygon fill="#63b8ff" stroke="#63b8ff" points="550.69,-56.37 561.19,-54.98 552.12,-49.52 550.69,-56.37"/>
</a>
</g>
</g>
<!-- Node5 -->
<g id="Node000005" class="node">
<title>Node5</title>
<g id="a_Node000005"><a xlink:href="caja-sendto-module_8c.html" target="_top" xlink:title=" ">
<polygon fill="white" stroke="#666666" points="546,-19 424,-19 424,0 546,0 546,-19"/>
<text text-anchor="middle" x="485" y="-7" font-family="Helvetica,sans-Serif" font-size="10.00">caja&#45;sendto&#45;module.c</text>
</a>
</g>
</g>
<!-- Node1&#45;&gt;Node5 -->
<g id="edge4_Node000001_Node000005" class="edge">
<title>Node1&#45;&gt;Node5</title>
<g id="a_edge4_Node000001_Node000005"><a xlink:title=" ">
<path fill="none" stroke="#63b8ff" d="M573.89,-50.77C552.31,-40.99 523.09,-27.75 504.14,-19.17"/>
<polygon fill="#63b8ff" stroke="#63b8ff" points="572.65,-54.05 583.2,-54.98 575.54,-47.67 572.65,-54.05"/>
</a>
</g>
</g>
<!-- Node6 -->
<g id="Node000006" class="node">
<title>Node6</title>
<g id="a_Node000006"><a xlink:href="caja-share_8c.html" target="_top" xlink:title=" ">
<polygon fill="white" stroke="#666666" points="640,-19 564,-19 564,0 640,0 640,-19"/>
<text text-anchor="middle" x="602" y="-7" font-family="Helvetica,sans-Serif" font-size="10.00">caja&#45;share.c</text>
</a>
</g>
</g>
<!-- Node1&#45;&gt;Node6 -->
<g id="edge5_Node000001_Node000006" class="edge">
<title>Node1&#45;&gt;Node6</title>
<g id="a_edge5_Node000001_Node000006"><a xlink:title=" ">
<path fill="none" stroke="#63b8ff" d="M602,-44.66C602,-35.93 602,-25.99 602,-19.09"/>
<polygon fill="#63b8ff" stroke="#63b8ff" points="598.5,-44.75 602,-54.75 605.5,-44.75 598.5,-44.75"/>
</a>
</g>
</g>
<!-- Node7 -->
<g id="Node000007" class="node">
<title>Node7</title>
<g id="a_Node000007"><a xlink:href="caja-wallpaper-command_8c.html" target="_top" xlink:title=" ">
<polygon fill="white" stroke="#666666" points="807.5,-19 658.5,-19 658.5,0 807.5,0 807.5,-19"/>
<text text-anchor="middle" x="733" y="-7" font-family="Helvetica,sans-Serif" font-size="10.00">caja&#45;wallpaper&#45;command.c</text>
</a>
</g>
</g>
<!-- Node1&#45;&gt;Node7 -->
<g id="edge6_Node000001_Node000007" class="edge">
<title>Node1&#45;&gt;Node7</title>
<g id="a_edge6_Node000001_Node000007"><a xlink:title=" ">
<path fill="none" stroke="#63b8ff" d="M632.5,-51.16C656.75,-41.35 690.07,-27.87 711.57,-19.17"/>
<polygon fill="#63b8ff" stroke="#63b8ff" points="631,-47.99 623.05,-54.98 633.63,-54.48 631,-47.99"/>
</a>
</g>
</g>
<!-- Node8 -->
<g id="Node000008" class="node">
<title>Node8</title>
<g id="a_Node000008"><a xlink:href="caja-xattr-tags-extension_8c.html" target="_top" xlink:title=" ">
<polygon fill="white" stroke="#666666" points="974.5,-19 825.5,-19 825.5,0 974.5,0 974.5,-19"/>
<text text-anchor="middle" x="900" y="-7" font-family="Helvetica,sans-Serif" font-size="10.00">caja&#45;xattr&#45;tags&#45;extension.c</text>
</a>
</g>
</g>
<!-- Node1&#45;&gt;Node8 -->
<g id="edge7_Node000001_Node000008" class="edge">
<title>Node1&#45;&gt;Node8</title>
<g id="a_edge7_Node000001_Node000008"><a xlink:title=" ">
<path fill="none" stroke="#63b8ff" d="M659.98,-53.19C715.85,-43.25 799.4,-28.39 851.75,-19.08"/>
<polygon fill="#63b8ff" stroke="#63b8ff" points="659.11,-49.79 649.88,-54.98 660.34,-56.68 659.11,-49.79"/>
</a>
</g>
</g>
<!-- Node9 -->
<g id="Node000009" class="node">
<title>Node9</title>
<g id="a_Node000009"><a xlink:href="engrampa-module_8c.html" target="_top" xlink:title=" ">
<polygon fill="white" stroke="#666666" points="1107.5,-19 992.5,-19 992.5,0 1107.5,0 1107.5,-19"/>
<text text-anchor="middle" x="1050" y="-7" font-family="Helvetica,sans-Serif" font-size="10.00">engrampa&#45;module.c</text>
</a>
</g>
</g>
<!-- Node1&#45;&gt;Node9 -->
<g id="edge8_Node000001_Node000009" class="edge">
<title>Node1&#45;&gt;Node9</title>
<g id="a_edge8_Node000001_Node000009"><a xlink:title=" ">
<path fill="none" stroke="#63b8ff" d="M676.66,-55.07C753.69,-46.32 877.29,-32.09 984,-19 986.75,-18.66 989.57,-18.31 992.41,-17.96"/>
<polygon fill="#63b8ff" stroke="#63b8ff" points="676.12,-51.61 666.58,-56.22 676.91,-58.57 676.12,-51.61"/>
</a>
</g>
</g>
<!-- Node10 -->
<g id="Node000010" class="node">
<title>Node10</title>
<g id="a_Node000010"><a xlink:href="fm-list-view_8c.html" target="_top" xlink:title=" ">
<polygon fill="white" stroke="#666666" points="1208.5,-19 1125.5,-19 1125.5,0 1208.5,0 1208.5,-19"/>
<text text-anchor="middle" x="1167" y="-7" font-family="Helvetica,sans-Serif" font-size="10.00">fm&#45;list&#45;view.c</text>
</a>
</g>
</g>
<!-- Node1&#45;&gt;Node10 -->
<g id="edge9_Node000001_Node000010" class="edge">
<title>Node1&#45;&gt;Node10</title>
<g id="a_edge9_Node000001_Node000010"><a xlink:title=" ">
<path fill="none" stroke="#63b8ff" d="M676.86,-58.97C777.27,-52.45 961.01,-38.96 1117,-19 1119.71,-18.65 1122.49,-18.27 1125.3,-17.85"/>
<polygon fill="#63b8ff" stroke="#63b8ff" points="676.57,-55.48 666.82,-59.62 677.02,-62.46 676.57,-55.48"/>
</a>
</g>
</g>
</g>
</svg>
