<?xml version="1.0" encoding="UTF-8" standalone="no"?>
<!DOCTYPE svg PUBLIC "-//W3C//DTD SVG 1.1//EN"
 "http://www.w3.org/Graphics/SVG/1.1/DTD/svg11.dtd">
<!-- Generated by graphviz version 2.43.0 (0)
 -->
<!-- Title: main.c Pages: 1 -->
<svg width="780pt" height="544pt"
 viewBox="0.00 0.00 779.76 544.00" xmlns="http://www.w3.org/2000/svg" xmlns:xlink="http://www.w3.org/1999/xlink">
<g id="graph0" class="graph" transform="scale(1 1) rotate(0) translate(4 540)">
<title>main.c</title>
<!-- Node1 -->
<g id="Node000001" class="node">
<title>Node1</title>
<g id="a_Node000001"><a xlink:title=" ">
<polygon fill="#999999" stroke="#666666" points="602.26,-536 552.26,-536 552.26,-517 602.26,-517 602.26,-536"/>
<text text-anchor="middle" x="577.26" y="-524" font-family="Helvetica,sans-Serif" font-size="10.00">main.c</text>
</a>
</g>
</g>
<!-- Node2 -->
<g id="Node000002" class="node">
<title>Node2</title>
<g id="a_Node000002"><a xlink:href="cact-application_8h.html" target="_top" xlink:title=" ">
<polygon fill="white" stroke="#666666" points="629.26,-481 525.26,-481 525.26,-462 629.26,-462 629.26,-481"/>
<text text-anchor="middle" x="577.26" y="-469" font-family="Helvetica,sans-Serif" font-size="10.00">cact&#45;application.h</text>
</a>
</g>
</g>
<!-- Node1&#45;&gt;Node2 -->
<g id="edge1_Node000001_Node000002" class="edge">
<title>Node1&#45;&gt;Node2</title>
<g id="a_edge1_Node000001_Node000002"><a xlink:title=" ">
<path fill="none" stroke="#63b8ff" d="M577.26,-516.75C577.26,-509.8 577.26,-499.85 577.26,-491.13"/>
<polygon fill="#63b8ff" stroke="#63b8ff" points="580.76,-491.09 577.26,-481.09 573.76,-491.09 580.76,-491.09"/>
</a>
</g>
</g>
<!-- Node3 -->
<g id="Node000003" class="node">
<title>Node3</title>
<g id="a_Node000003"><a xlink:href="na-updater_8h.html" target="_top" xlink:title=" ">
<polygon fill="white" stroke="#666666" points="589.26,-426 487.26,-426 487.26,-407 589.26,-407 589.26,-426"/>
<text text-anchor="middle" x="538.26" y="-414" font-family="Helvetica,sans-Serif" font-size="10.00">core/na&#45;updater.h</text>
</a>
</g>
</g>
<!-- Node2&#45;&gt;Node3 -->
<g id="edge2_Node000002_Node000003" class="edge">
<title>Node2&#45;&gt;Node3</title>
<g id="a_edge2_Node000002_Node000003"><a xlink:title=" ">
<path fill="none" stroke="#63b8ff" d="M570.82,-461.75C565.37,-454.34 557.39,-443.5 550.7,-434.41"/>
<polygon fill="#63b8ff" stroke="#63b8ff" points="553.33,-432.07 544.58,-426.09 547.69,-436.22 553.33,-432.07"/>
</a>
</g>
</g>
<!-- Node24 -->
<g id="Node000024" class="node">
<title>Node24</title>
<g id="a_Node000024"><a xlink:href="base-application_8h.html" target="_top" xlink:title=" ">
<polygon fill="white" stroke="#666666" points="771.76,-371 664.76,-371 664.76,-352 771.76,-352 771.76,-371"/>
<text text-anchor="middle" x="718.26" y="-359" font-family="Helvetica,sans-Serif" font-size="10.00">base&#45;application.h</text>
</a>
</g>
</g>
<!-- Node2&#45;&gt;Node24 -->
<g id="edge35_Node000002_Node000024" class="edge">
<title>Node2&#45;&gt;Node24</title>
<g id="a_edge35_Node000002_Node000024"><a xlink:title=" ">
<path fill="none" stroke="#63b8ff" d="M588.8,-461.66C612.98,-443.14 669.2,-400.08 698.97,-377.28"/>
<polygon fill="#63b8ff" stroke="#63b8ff" points="701.14,-380.02 706.96,-371.16 696.89,-374.46 701.14,-380.02"/>
</a>
</g>
</g>
<!-- Node4 -->
<g id="Node000004" class="node">
<title>Node4</title>
<g id="a_Node000004"><a xlink:href="na-pivot_8h.html" target="_top" xlink:title=" ">
<polygon fill="white" stroke="#666666" points="558.26,-371 492.26,-371 492.26,-352 558.26,-352 558.26,-371"/>
<text text-anchor="middle" x="525.26" y="-359" font-family="Helvetica,sans-Serif" font-size="10.00">na&#45;pivot.h</text>
</a>
</g>
</g>
<!-- Node3&#45;&gt;Node4 -->
<g id="edge3_Node000003_Node000004" class="edge">
<title>Node3&#45;&gt;Node4</title>
<g id="a_edge3_Node000003_Node000004"><a xlink:title=" ">
<path fill="none" stroke="#63b8ff" d="M536.11,-406.75C534.39,-399.72 531.91,-389.62 529.76,-380.84"/>
<polygon fill="#63b8ff" stroke="#63b8ff" points="533.15,-379.97 527.37,-371.09 526.35,-381.63 533.15,-379.97"/>
</a>
</g>
</g>
<!-- Node5 -->
<g id="Node000005" class="node">
<title>Node5</title>
<g id="a_Node000005"><a xlink:href="na-iio-provider_8h.html" target="_top" xlink:title=" ">
<polygon fill="white" stroke="#666666" points="182.76,-316 67.76,-316 67.76,-297 182.76,-297 182.76,-316"/>
<text text-anchor="middle" x="125.26" y="-304" font-family="Helvetica,sans-Serif" font-size="10.00">api/na&#45;iio&#45;provider.h</text>
</a>
</g>
</g>
<!-- Node4&#45;&gt;Node5 -->
<g id="edge4_Node000004_Node000005" class="edge">
<title>Node4&#45;&gt;Node5</title>
<g id="a_edge4_Node000004_Node000005"><a xlink:title=" ">
<path fill="none" stroke="#63b8ff" d="M492.19,-356.12C426.74,-347.45 279.55,-327.94 192.8,-316.45"/>
<polygon fill="#63b8ff" stroke="#63b8ff" points="193.16,-312.97 182.78,-315.12 192.24,-319.91 193.16,-312.97"/>
</a>
</g>
</g>
<!-- Node10 -->
<g id="Node000010" class="node">
<title>Node10</title>
<g id="a_Node000010"><a xlink:href="na-object-api_8h.html" target="_top" xlink:title=" ">
<polygon fill="white" stroke="#666666" points="404.26,-316 296.26,-316 296.26,-297 404.26,-297 404.26,-316"/>
<text text-anchor="middle" x="350.26" y="-304" font-family="Helvetica,sans-Serif" font-size="10.00">api/na&#45;object&#45;api.h</text>
</a>
</g>
</g>
<!-- Node4&#45;&gt;Node10 -->
<g id="edge9_Node000004_Node000010" class="edge">
<title>Node4&#45;&gt;Node10</title>
<g id="a_edge9_Node000004_Node000010"><a xlink:title=" ">
<path fill="none" stroke="#63b8ff" d="M497.14,-351.98C467.63,-343.05 421.07,-328.94 388.29,-319.02"/>
<polygon fill="#63b8ff" stroke="#63b8ff" points="389.18,-315.63 378.6,-316.08 387.15,-322.33 389.18,-315.63"/>
</a>
</g>
</g>
<!-- Node23 -->
<g id="Node000023" class="node">
<title>Node23</title>
<g id="a_Node000023"><a xlink:href="na-settings_8h.html" target="_top" xlink:title=" ">
<polygon fill="white" stroke="#666666" points="735.26,-74 655.26,-74 655.26,-55 735.26,-55 735.26,-74"/>
<text text-anchor="middle" x="695.26" y="-62" font-family="Helvetica,sans-Serif" font-size="10.00">na&#45;settings.h</text>
</a>
</g>
</g>
<!-- Node4&#45;&gt;Node23 -->
<g id="edge33_Node000004_Node000023" class="edge">
<title>Node4&#45;&gt;Node23</title>
<g id="a_edge33_Node000004_Node000023"><a xlink:title=" ">
<path fill="none" stroke="#63b8ff" d="M558.64,-354.92C608.4,-344.48 696.26,-316.93 696.26,-252.5 696.26,-252.5 696.26,-252.5 696.26,-190 696.26,-152.49 695.8,-108.63 695.5,-84.26"/>
<polygon fill="#63b8ff" stroke="#63b8ff" points="699,-84.21 695.38,-74.25 692,-84.3 699,-84.21"/>
</a>
</g>
</g>
<!-- Node6 -->
<g id="Node000006" class="node">
<title>Node6</title>
<g id="a_Node000006"><a xlink:href="na-object-item_8h.html" target="_top" xlink:title=" ">
<polygon fill="white" stroke="#666666" points="115.26,-200.5 17.26,-200.5 17.26,-181.5 115.26,-181.5 115.26,-200.5"/>
<text text-anchor="middle" x="66.26" y="-188.5" font-family="Helvetica,sans-Serif" font-size="10.00">na&#45;object&#45;item.h</text>
</a>
</g>
</g>
<!-- Node5&#45;&gt;Node6 -->
<g id="edge5_Node000005_Node000006" class="edge">
<title>Node5&#45;&gt;Node6</title>
<g id="a_edge5_Node000005_Node000006"><a xlink:title=" ">
<path fill="none" stroke="#63b8ff" d="M67.72,-298.77C44,-292.84 18.73,-281.74 4.26,-261 -10.3,-240.13 16.74,-218.73 39.57,-205.41"/>
<polygon fill="#63b8ff" stroke="#63b8ff" points="41.28,-208.47 48.33,-200.56 37.89,-202.34 41.28,-208.47"/>
</a>
</g>
</g>
<!-- Node7 -->
<g id="Node000007" class="node">
<title>Node7</title>
<g id="a_Node000007"><a xlink:href="na-object-id_8h.html" target="_top" xlink:title=" ">
<polygon fill="white" stroke="#666666" points="157.26,-134.5 73.26,-134.5 73.26,-115.5 157.26,-115.5 157.26,-134.5"/>
<text text-anchor="middle" x="115.26" y="-122.5" font-family="Helvetica,sans-Serif" font-size="10.00">na&#45;object&#45;id.h</text>
</a>
</g>
</g>
<!-- Node6&#45;&gt;Node7 -->
<g id="edge6_Node000006_Node000007" class="edge">
<title>Node6&#45;&gt;Node7</title>
<g id="a_edge6_Node000006_Node000007"><a xlink:title=" ">
<path fill="none" stroke="#63b8ff" d="M72.87,-181.37C80.35,-171.59 92.73,-155.42 102.19,-143.08"/>
<polygon fill="#63b8ff" stroke="#63b8ff" points="105.14,-144.97 108.44,-134.91 99.58,-140.72 105.14,-144.97"/>
</a>
</g>
</g>
<!-- Node8 -->
<g id="Node000008" class="node">
<title>Node8</title>
<g id="a_Node000008"><a xlink:href="na-object_8h.html" target="_top" xlink:title=" ">
<polygon fill="white" stroke="#666666" points="153.76,-74 82.76,-74 82.76,-55 153.76,-55 153.76,-74"/>
<text text-anchor="middle" x="118.26" y="-62" font-family="Helvetica,sans-Serif" font-size="10.00">na&#45;object.h</text>
</a>
</g>
</g>
<!-- Node7&#45;&gt;Node8 -->
<g id="edge7_Node000007_Node000008" class="edge">
<title>Node7&#45;&gt;Node8</title>
<g id="a_edge7_Node000007_Node000008"><a xlink:title=" ">
<path fill="none" stroke="#63b8ff" d="M115.7,-115.37C116.12,-107.25 116.76,-94.81 117.29,-84.39"/>
<polygon fill="#63b8ff" stroke="#63b8ff" points="120.8,-84.33 117.81,-74.17 113.81,-83.97 120.8,-84.33"/>
</a>
</g>
</g>
<!-- Node9 -->
<g id="Node000009" class="node">
<title>Node9</title>
<g id="a_Node000009"><a xlink:title=" ">
<polygon fill="#e0e0e0" stroke="#999999" points="589.76,-19 512.76,-19 512.76,0 589.76,0 589.76,-19"/>
<text text-anchor="middle" x="551.26" y="-7" font-family="Helvetica,sans-Serif" font-size="10.00">glib&#45;object.h</text>
</a>
</g>
</g>
<!-- Node8&#45;&gt;Node9 -->
<g id="edge8_Node000008_Node000009" class="edge">
<title>Node8&#45;&gt;Node9</title>
<g id="a_edge8_Node000008_Node000009"><a xlink:title=" ">
<path fill="none" stroke="#63b8ff" d="M153.86,-57.58C159.67,-56.67 165.63,-55.78 171.26,-55 289.94,-38.54 430.03,-23.18 502.44,-15.55"/>
<polygon fill="#63b8ff" stroke="#63b8ff" points="503.04,-19 512.62,-14.48 502.31,-12.04 503.04,-19"/>
</a>
</g>
</g>
<!-- Node11 -->
<g id="Node000011" class="node">
<title>Node11</title>
<g id="a_Node000011"><a xlink:href="na-ifactory-object_8h.html" target="_top" xlink:title=" ">
<polygon fill="white" stroke="#666666" points="461.76,-261 348.76,-261 348.76,-242 461.76,-242 461.76,-261"/>
<text text-anchor="middle" x="405.26" y="-249" font-family="Helvetica,sans-Serif" font-size="10.00">na&#45;ifactory&#45;object.h</text>
</a>
</g>
</g>
<!-- Node10&#45;&gt;Node11 -->
<g id="edge10_Node000010_Node000011" class="edge">
<title>Node10&#45;&gt;Node11</title>
<g id="a_edge10_Node000010_Node000011"><a xlink:title=" ">
<path fill="none" stroke="#63b8ff" d="M359.34,-296.75C367.35,-289.03 379.22,-277.6 388.88,-268.28"/>
<polygon fill="#63b8ff" stroke="#63b8ff" points="391.57,-270.55 396.35,-261.09 386.72,-265.51 391.57,-270.55"/>
</a>
</g>
</g>
<!-- Node17 -->
<g id="Node000017" class="node">
<title>Node17</title>
<g id="a_Node000017"><a xlink:href="na-ifactory-object-data_8h.html" target="_top" xlink:title=" ">
<polygon fill="white" stroke="#666666" points="317.26,-140 213.26,-140 213.26,-110 317.26,-110 317.26,-140"/>
<text text-anchor="start" x="221.26" y="-128" font-family="Helvetica,sans-Serif" font-size="10.00">na&#45;ifactory&#45;object</text>
<text text-anchor="middle" x="265.26" y="-117" font-family="Helvetica,sans-Serif" font-size="10.00">&#45;data.h</text>
</a>
</g>
</g>
<!-- Node10&#45;&gt;Node17 -->
<g id="edge20_Node000010_Node000017" class="edge">
<title>Node10&#45;&gt;Node17</title>
<g id="a_edge20_Node000010_Node000017"><a xlink:title=" ">
<path fill="none" stroke="#63b8ff" d="M343.44,-296.98C330.49,-280.41 302.21,-242.29 286.26,-206 278.37,-188.06 272.92,-166.5 269.56,-150.29"/>
<polygon fill="#63b8ff" stroke="#63b8ff" points="272.91,-149.18 267.56,-140.03 266.04,-150.52 272.91,-149.18"/>
</a>
</g>
</g>
<!-- Node18 -->
<g id="Node000018" class="node">
<title>Node18</title>
<g id="a_Node000018"><a xlink:href="na-iduplicable_8h.html" target="_top" xlink:title=" ">
<polygon fill="white" stroke="#666666" points="598.76,-74 503.76,-74 503.76,-55 598.76,-55 598.76,-74"/>
<text text-anchor="middle" x="551.26" y="-62" font-family="Helvetica,sans-Serif" font-size="10.00">na&#45;iduplicable.h</text>
</a>
</g>
</g>
<!-- Node10&#45;&gt;Node18 -->
<g id="edge22_Node000010_Node000018" class="edge">
<title>Node10&#45;&gt;Node18</title>
<g id="a_edge22_Node000010_Node000018"><a xlink:title=" ">
<path fill="none" stroke="#63b8ff" d="M404.47,-298.56C457.75,-288.47 535.91,-264.09 570.26,-206 593.36,-166.94 573.33,-111.27 560.32,-83.17"/>
<polygon fill="#63b8ff" stroke="#63b8ff" points="563.45,-81.62 555.93,-74.15 557.15,-84.68 563.45,-81.62"/>
</a>
</g>
</g>
<!-- Node19 -->
<g id="Node000019" class="node">
<title>Node19</title>
<g id="a_Node000019"><a xlink:href="na-icontext_8h.html" target="_top" xlink:title=" ">
<polygon fill="white" stroke="#666666" points="667.76,-261 586.76,-261 586.76,-242 667.76,-242 667.76,-261"/>
<text text-anchor="middle" x="627.26" y="-249" font-family="Helvetica,sans-Serif" font-size="10.00">na&#45;icontext.h</text>
</a>
</g>
</g>
<!-- Node10&#45;&gt;Node19 -->
<g id="edge24_Node000010_Node000019" class="edge">
<title>Node10&#45;&gt;Node19</title>
<g id="a_edge24_Node000010_Node000019"><a xlink:title=" ">
<path fill="none" stroke="#63b8ff" d="M394.76,-296.98C444.37,-287.49 524.44,-272.17 576.46,-262.22"/>
<polygon fill="#63b8ff" stroke="#63b8ff" points="577.31,-265.62 586.48,-260.3 576,-258.75 577.31,-265.62"/>
</a>
</g>
</g>
<!-- Node20 -->
<g id="Node000020" class="node">
<title>Node20</title>
<g id="a_Node000020"><a xlink:href="na-object-action_8h.html" target="_top" xlink:title=" ">
<polygon fill="white" stroke="#666666" points="239.76,-261 134.76,-261 134.76,-242 239.76,-242 239.76,-261"/>
<text text-anchor="middle" x="187.26" y="-249" font-family="Helvetica,sans-Serif" font-size="10.00">na&#45;object&#45;action.h</text>
</a>
</g>
</g>
<!-- Node10&#45;&gt;Node20 -->
<g id="edge26_Node000010_Node000020" class="edge">
<title>Node10&#45;&gt;Node20</title>
<g id="a_edge26_Node000010_Node000020"><a xlink:title=" ">
<path fill="none" stroke="#63b8ff" d="M324.07,-296.98C296.82,-288.13 253.96,-274.19 223.48,-264.28"/>
<polygon fill="#63b8ff" stroke="#63b8ff" points="224.25,-260.85 213.65,-261.08 222.08,-267.5 224.25,-260.85"/>
</a>
</g>
</g>
<!-- Node21 -->
<g id="Node000021" class="node">
<title>Node21</title>
<g id="a_Node000021"><a xlink:href="na-object-profile_8h.html" target="_top" xlink:title=" ">
<polygon fill="white" stroke="#666666" points="239.26,-200.5 133.26,-200.5 133.26,-181.5 239.26,-181.5 239.26,-200.5"/>
<text text-anchor="middle" x="186.26" y="-188.5" font-family="Helvetica,sans-Serif" font-size="10.00">na&#45;object&#45;profile.h</text>
</a>
</g>
</g>
<!-- Node10&#45;&gt;Node21 -->
<g id="edge30_Node000010_Node000021" class="edge">
<title>Node10&#45;&gt;Node21</title>
<g id="a_edge30_Node000010_Node000021"><a xlink:title=" ">
<path fill="none" stroke="#63b8ff" d="M337.93,-296.97C310.03,-277.66 241.79,-230.43 207.16,-206.46"/>
<polygon fill="#63b8ff" stroke="#63b8ff" points="208.94,-203.44 198.73,-200.63 204.96,-209.2 208.94,-203.44"/>
</a>
</g>
</g>
<!-- Node22 -->
<g id="Node000022" class="node">
<title>Node22</title>
<g id="a_Node000022"><a xlink:href="na-object-menu_8h.html" target="_top" xlink:title=" ">
<polygon fill="white" stroke="#666666" points="116.76,-261 13.76,-261 13.76,-242 116.76,-242 116.76,-261"/>
<text text-anchor="middle" x="65.26" y="-249" font-family="Helvetica,sans-Serif" font-size="10.00">na&#45;object&#45;menu.h</text>
</a>
</g>
</g>
<!-- Node10&#45;&gt;Node22 -->
<g id="edge31_Node000010_Node000022" class="edge">
<title>Node10&#45;&gt;Node22</title>
<g id="a_edge31_Node000010_Node000022"><a xlink:title=" ">
<path fill="none" stroke="#63b8ff" d="M304.47,-296.98C254.65,-287.72 174.98,-272.9 121.42,-262.94"/>
<polygon fill="#63b8ff" stroke="#63b8ff" points="121.88,-259.47 111.41,-261.08 120.6,-266.35 121.88,-259.47"/>
</a>
</g>
</g>
<!-- Node12 -->
<g id="Node000012" class="node">
<title>Node12</title>
<g id="a_Node000012"><a xlink:href="na-data-def_8h.html" target="_top" xlink:title=" ">
<polygon fill="white" stroke="#666666" points="507.26,-134.5 425.26,-134.5 425.26,-115.5 507.26,-115.5 507.26,-134.5"/>
<text text-anchor="middle" x="466.26" y="-122.5" font-family="Helvetica,sans-Serif" font-size="10.00">na&#45;data&#45;def.h</text>
</a>
</g>
</g>
<!-- Node11&#45;&gt;Node12 -->
<g id="edge11_Node000011_Node000012" class="edge">
<title>Node11&#45;&gt;Node12</title>
<g id="a_edge11_Node000011_Node000012"><a xlink:title=" ">
<path fill="none" stroke="#63b8ff" d="M408.86,-241.66C414.66,-227.58 426.62,-199.28 438.26,-176 443.74,-165.04 450.43,-153.05 455.9,-143.55"/>
<polygon fill="#63b8ff" stroke="#63b8ff" points="459.04,-145.12 461.05,-134.72 452.99,-141.59 459.04,-145.12"/>
</a>
</g>
</g>
<!-- Node14 -->
<g id="Node000014" class="node">
<title>Node14</title>
<g id="a_Node000014"><a xlink:href="na-data-boxed_8h.html" target="_top" xlink:title=" ">
<polygon fill="white" stroke="#666666" points="391.26,-200.5 295.26,-200.5 295.26,-181.5 391.26,-181.5 391.26,-200.5"/>
<text text-anchor="middle" x="343.26" y="-188.5" font-family="Helvetica,sans-Serif" font-size="10.00">na&#45;data&#45;boxed.h</text>
</a>
</g>
</g>
<!-- Node11&#45;&gt;Node14 -->
<g id="edge13_Node000011_Node000014" class="edge">
<title>Node11&#45;&gt;Node14</title>
<g id="a_edge13_Node000011_Node000014"><a xlink:title=" ">
<path fill="none" stroke="#63b8ff" d="M396.11,-241.87C386.59,-232.88 371.46,-218.61 359.83,-207.64"/>
<polygon fill="#63b8ff" stroke="#63b8ff" points="362.12,-204.98 352.44,-200.67 357.32,-210.08 362.12,-204.98"/>
</a>
</g>
</g>
<!-- Node16 -->
<g id="Node000016" class="node">
<title>Node16</title>
<g id="a_Node000016"><a xlink:href="na-ifactory-provider-provider_8h.html" target="_top" xlink:title=" ">
<polygon fill="white" stroke="#666666" points="561.26,-206 447.26,-206 447.26,-176 561.26,-176 561.26,-206"/>
<text text-anchor="start" x="455.26" y="-194" font-family="Helvetica,sans-Serif" font-size="10.00">na&#45;ifactory&#45;provider</text>
<text text-anchor="middle" x="504.26" y="-183" font-family="Helvetica,sans-Serif" font-size="10.00">&#45;provider.h</text>
</a>
</g>
</g>
<!-- Node11&#45;&gt;Node16 -->
<g id="edge18_Node000011_Node000016" class="edge">
<title>Node11&#45;&gt;Node16</title>
<g id="a_edge18_Node000011_Node000016"><a xlink:title=" ">
<path fill="none" stroke="#63b8ff" d="M419.87,-241.87C433.42,-233.86 454.09,-221.65 471.57,-211.31"/>
<polygon fill="#63b8ff" stroke="#63b8ff" points="473.54,-214.22 480.37,-206.11 469.98,-208.19 473.54,-214.22"/>
</a>
</g>
</g>
<!-- Node13 -->
<g id="Node000013" class="node">
<title>Node13</title>
<g id="a_Node000013"><a xlink:title=" ">
<polygon fill="#e0e0e0" stroke="#999999" points="485.26,-74 441.26,-74 441.26,-55 485.26,-55 485.26,-74"/>
<text text-anchor="middle" x="463.26" y="-62" font-family="Helvetica,sans-Serif" font-size="10.00">glib.h</text>
</a>
</g>
</g>
<!-- Node12&#45;&gt;Node13 -->
<g id="edge12_Node000012_Node000013" class="edge">
<title>Node12&#45;&gt;Node13</title>
<g id="a_edge12_Node000012_Node000013"><a xlink:title=" ">
<path fill="none" stroke="#63b8ff" d="M465.82,-115.37C465.4,-107.25 464.76,-94.81 464.23,-84.39"/>
<polygon fill="#63b8ff" stroke="#63b8ff" points="467.71,-83.97 463.7,-74.17 460.72,-84.33 467.71,-83.97"/>
</a>
</g>
</g>
<!-- Node14&#45;&gt;Node9 -->
<g id="edge14_Node000014_Node000009" class="edge">
<title>Node14&#45;&gt;Node9</title>
<g id="a_edge14_Node000014_Node000009"><a xlink:title=" ">
<path fill="none" stroke="#63b8ff" d="M295.75,-181.48C245.18,-170.27 176.02,-147.47 204.26,-110 240.28,-62.2 415.68,-30.34 502.46,-17.24"/>
<polygon fill="#63b8ff" stroke="#63b8ff" points="503.2,-20.67 512.58,-15.74 502.18,-13.75 503.2,-20.67"/>
</a>
</g>
</g>
<!-- Node14&#45;&gt;Node12 -->
<g id="edge17_Node000014_Node000012" class="edge">
<title>Node14&#45;&gt;Node12</title>
<g id="a_edge17_Node000014_Node000012"><a xlink:title=" ">
<path fill="none" stroke="#63b8ff" d="M359.85,-181.37C380.57,-170.59 416.26,-152.02 440.54,-139.38"/>
<polygon fill="#63b8ff" stroke="#63b8ff" points="442.29,-142.42 449.54,-134.7 439.05,-136.21 442.29,-142.42"/>
</a>
</g>
</g>
<!-- Node15 -->
<g id="Node000015" class="node">
<title>Node15</title>
<g id="a_Node000015"><a xlink:href="na-boxed_8h.html" target="_top" xlink:title=" ">
<polygon fill="white" stroke="#666666" points="406.76,-134.5 335.76,-134.5 335.76,-115.5 406.76,-115.5 406.76,-134.5"/>
<text text-anchor="middle" x="371.26" y="-122.5" font-family="Helvetica,sans-Serif" font-size="10.00">na&#45;boxed.h</text>
</a>
</g>
</g>
<!-- Node14&#45;&gt;Node15 -->
<g id="edge15_Node000014_Node000015" class="edge">
<title>Node14&#45;&gt;Node15</title>
<g id="a_edge15_Node000014_Node000015"><a xlink:title=" ">
<path fill="none" stroke="#63b8ff" d="M347.04,-181.37C351.19,-171.88 357.98,-156.36 363.31,-144.16"/>
<polygon fill="#63b8ff" stroke="#63b8ff" points="366.56,-145.47 367.36,-134.91 360.15,-142.66 366.56,-145.47"/>
</a>
</g>
</g>
<!-- Node15&#45;&gt;Node9 -->
<g id="edge16_Node000015_Node000009" class="edge">
<title>Node15&#45;&gt;Node9</title>
<g id="a_edge16_Node000015_Node000009"><a xlink:title=" ">
<path fill="none" stroke="#63b8ff" d="M376.95,-115.12C386.66,-100.64 407.75,-71.85 432.26,-55 454.36,-39.8 482.33,-29 505.59,-21.85"/>
<polygon fill="#63b8ff" stroke="#63b8ff" points="506.64,-25.19 515.24,-19 504.66,-18.47 506.64,-25.19"/>
</a>
</g>
</g>
<!-- Node16&#45;&gt;Node13 -->
<g id="edge19_Node000016_Node000013" class="edge">
<title>Node16&#45;&gt;Node13</title>
<g id="a_edge19_Node000016_Node000013"><a xlink:title=" ">
<path fill="none" stroke="#63b8ff" d="M511.07,-175.72C517.94,-159.16 526.23,-131.39 516.26,-110 510.43,-97.49 499.16,-87.25 488.51,-79.76"/>
<polygon fill="#63b8ff" stroke="#63b8ff" points="490.14,-76.64 479.84,-74.13 486.32,-82.51 490.14,-76.64"/>
</a>
</g>
</g>
<!-- Node17&#45;&gt;Node13 -->
<g id="edge21_Node000017_Node000013" class="edge">
<title>Node17&#45;&gt;Node13</title>
<g id="a_edge21_Node000017_Node000013"><a xlink:title=" ">
<path fill="none" stroke="#63b8ff" d="M312.68,-109.99C349.44,-99.13 399.34,-84.38 431.43,-74.9"/>
<polygon fill="#63b8ff" stroke="#63b8ff" points="432.59,-78.21 441.18,-72.02 430.6,-71.5 432.59,-78.21"/>
</a>
</g>
</g>
<!-- Node18&#45;&gt;Node9 -->
<g id="edge23_Node000018_Node000009" class="edge">
<title>Node18&#45;&gt;Node9</title>
<g id="a_edge23_Node000018_Node000009"><a xlink:title=" ">
<path fill="none" stroke="#63b8ff" d="M551.26,-54.75C551.26,-47.8 551.26,-37.85 551.26,-29.13"/>
<polygon fill="#63b8ff" stroke="#63b8ff" points="554.76,-29.09 551.26,-19.09 547.76,-29.09 554.76,-29.09"/>
</a>
</g>
</g>
<!-- Node19&#45;&gt;Node9 -->
<g id="edge25_Node000019_Node000009" class="edge">
<title>Node19&#45;&gt;Node9</title>
<g id="a_edge25_Node000019_Node000009"><a xlink:title=" ">
<path fill="none" stroke="#63b8ff" d="M628.65,-241.61C632.73,-212.63 642.3,-119.05 607.26,-55 600.35,-42.36 588.2,-32.04 576.98,-24.53"/>
<polygon fill="#63b8ff" stroke="#63b8ff" points="578.64,-21.44 568.31,-19.12 574.94,-27.38 578.64,-21.44"/>
</a>
</g>
</g>
<!-- Node20&#45;&gt;Node6 -->
<g id="edge27_Node000020_Node000006" class="edge">
<title>Node20&#45;&gt;Node6</title>
<g id="a_edge27_Node000020_Node000006"><a xlink:title=" ">
<path fill="none" stroke="#63b8ff" d="M169.66,-241.99C149.5,-232.25 116.24,-216.16 92.9,-204.88"/>
<polygon fill="#63b8ff" stroke="#63b8ff" points="94.4,-201.72 83.87,-200.52 91.35,-208.02 94.4,-201.72"/>
</a>
</g>
</g>
<!-- Node20&#45;&gt;Node21 -->
<g id="edge28_Node000020_Node000021" class="edge">
<title>Node20&#45;&gt;Node21</title>
<g id="a_edge28_Node000020_Node000021"><a xlink:title=" ">
<path fill="none" stroke="#63b8ff" d="M187.11,-241.87C186.97,-233.75 186.76,-221.31 186.58,-210.89"/>
<polygon fill="#63b8ff" stroke="#63b8ff" points="190.08,-210.61 186.41,-200.67 183.08,-210.73 190.08,-210.61"/>
</a>
</g>
</g>
<!-- Node21&#45;&gt;Node7 -->
<g id="edge29_Node000021_Node000007" class="edge">
<title>Node21&#45;&gt;Node7</title>
<g id="a_edge29_Node000021_Node000007"><a xlink:title=" ">
<path fill="none" stroke="#63b8ff" d="M176.68,-181.37C165.42,-171.21 146.5,-154.16 132.63,-141.65"/>
<polygon fill="#63b8ff" stroke="#63b8ff" points="134.91,-139 125.14,-134.91 130.22,-144.2 134.91,-139"/>
</a>
</g>
</g>
<!-- Node22&#45;&gt;Node6 -->
<g id="edge32_Node000022_Node000006" class="edge">
<title>Node22&#45;&gt;Node6</title>
<g id="a_edge32_Node000022_Node000006"><a xlink:title=" ">
<path fill="none" stroke="#63b8ff" d="M65.41,-241.87C65.55,-233.75 65.76,-221.31 65.94,-210.89"/>
<polygon fill="#63b8ff" stroke="#63b8ff" points="69.44,-210.73 66.11,-200.67 62.44,-210.61 69.44,-210.73"/>
</a>
</g>
</g>
<!-- Node23&#45;&gt;Node9 -->
<g id="edge34_Node000023_Node000009" class="edge">
<title>Node23&#45;&gt;Node9</title>
<g id="a_edge34_Node000023_Node000009"><a xlink:title=" ">
<path fill="none" stroke="#63b8ff" d="M672.12,-54.98C648.44,-46.27 611.39,-32.63 584.55,-22.75"/>
<polygon fill="#63b8ff" stroke="#63b8ff" points="585.41,-19.34 574.82,-19.17 582.99,-25.91 585.41,-19.34"/>
</a>
</g>
</g>
<!-- Node24&#45;&gt;Node9 -->
<g id="edge36_Node000024_Node000009" class="edge">
<title>Node24&#45;&gt;Node9</title>
<g id="a_edge36_Node000024_Node000009"><a xlink:title=" ">
<path fill="none" stroke="#63b8ff" d="M724.71,-351.77C737.15,-334.04 763.26,-292.11 763.26,-252.5 763.26,-252.5 763.26,-252.5 763.26,-124 763.26,-92.19 767.22,-77.01 744.26,-55 723.88,-35.46 650.25,-22.68 600.06,-16.03"/>
<polygon fill="#63b8ff" stroke="#63b8ff" points="600.41,-12.54 590.05,-14.74 599.52,-19.49 600.41,-12.54"/>
</a>
</g>
</g>
</g>
</svg>
