<?xml version="1.0" encoding="UTF-8" standalone="no"?>
<!DOCTYPE svg PUBLIC "-//W3C//DTD SVG 1.1//EN"
 "http://www.w3.org/Graphics/SVG/1.1/DTD/svg11.dtd">
<!-- Generated by graphviz version 2.43.0 (0)
 -->
<!-- Title: caja&#45;mime&#45;actions.h Pages: 1 -->
<svg width="501pt" height="302pt"
 viewBox="0.00 0.00 500.50 302.00" xmlns="http://www.w3.org/2000/svg" xmlns:xlink="http://www.w3.org/1999/xlink">
<g id="graph0" class="graph" transform="scale(1 1) rotate(0) translate(4 298)">
<title>caja&#45;mime&#45;actions.h</title>
<!-- Node1 -->
<g id="Node000001" class="node">
<title>Node1</title>
<g id="a_Node000001"><a xlink:title=" ">
<polygon fill="#999999" stroke="#666666" points="355,-294 238,-294 238,-275 355,-275 355,-294"/>
<text text-anchor="middle" x="296.5" y="-282" font-family="Helvetica,sans-Serif" font-size="10.00">caja&#45;mime&#45;actions.h</text>
</a>
</g>
</g>
<!-- Node2 -->
<g id="Node000002" class="node">
<title>Node2</title>
<g id="a_Node000002"><a xlink:title=" ">
<polygon fill="#e0e0e0" stroke="#999999" points="59,-19 0,-19 0,0 59,0 59,-19"/>
<text text-anchor="middle" x="29.5" y="-7" font-family="Helvetica,sans-Serif" font-size="10.00">gio/gio.h</text>
</a>
</g>
</g>
<!-- Node1&#45;&gt;Node2 -->
<g id="edge1_Node000001_Node000002" class="edge">
<title>Node1&#45;&gt;Node2</title>
<g id="a_edge1_Node000001_Node000002"><a xlink:title=" ">
<path fill="none" stroke="#63b8ff" d="M242.42,-274.94C157.76,-259.99 3.5,-225.85 3.5,-175.5 3.5,-175.5 3.5,-175.5 3.5,-118.5 3.5,-86.15 14.67,-49.82 22.36,-28.62"/>
<polygon fill="#63b8ff" stroke="#63b8ff" points="25.73,-29.6 25.99,-19.01 19.18,-27.13 25.73,-29.6"/>
</a>
</g>
</g>
<!-- Node3 -->
<g id="Node000003" class="node">
<title>Node3</title>
<g id="a_Node000003"><a xlink:href="caja-file_8h.html" target="_top" xlink:title=" ">
<polygon fill="white" stroke="#666666" points="282,-129 217,-129 217,-110 282,-110 282,-129"/>
<text text-anchor="middle" x="249.5" y="-117" font-family="Helvetica,sans-Serif" font-size="10.00">caja&#45;file.h</text>
</a>
</g>
</g>
<!-- Node1&#45;&gt;Node3 -->
<g id="edge2_Node000001_Node000003" class="edge">
<title>Node1&#45;&gt;Node3</title>
<g id="a_edge2_Node000001_Node000003"><a xlink:title=" ">
<path fill="none" stroke="#63b8ff" d="M289.85,-274.81C283.6,-266.2 274.48,-252.38 269.5,-239 256.93,-205.22 252.22,-163.08 250.48,-139.23"/>
<polygon fill="#63b8ff" stroke="#63b8ff" points="253.97,-138.88 249.85,-129.12 246.98,-139.32 253.97,-138.88"/>
</a>
</g>
</g>
<!-- Node10 -->
<g id="Node000010" class="node">
<title>Node10</title>
<g id="a_Node000010"><a xlink:href="caja-window-info_8h.html" target="_top" xlink:title=" ">
<polygon fill="white" stroke="#666666" points="492.5,-184 382.5,-184 382.5,-165 492.5,-165 492.5,-184"/>
<text text-anchor="middle" x="437.5" y="-172" font-family="Helvetica,sans-Serif" font-size="10.00">caja&#45;window&#45;info.h</text>
</a>
</g>
</g>
<!-- Node1&#45;&gt;Node10 -->
<g id="edge12_Node000001_Node000010" class="edge">
<title>Node1&#45;&gt;Node10</title>
<g id="a_edge12_Node000001_Node000010"><a xlink:title=" ">
<path fill="none" stroke="#63b8ff" d="M350.89,-274.96C374.52,-268.67 400.79,-257.78 418.5,-239 429.96,-226.84 434.53,-208.05 436.34,-194.06"/>
<polygon fill="#63b8ff" stroke="#63b8ff" points="439.83,-194.37 437.28,-184.09 432.86,-193.71 439.83,-194.37"/>
</a>
</g>
</g>
<!-- Node12 -->
<g id="Node000012" class="node">
<title>Node12</title>
<g id="a_Node000012"><a xlink:href="caja-window-slot-info_8h.html" target="_top" xlink:title=" ">
<polygon fill="white" stroke="#666666" points="409,-239 278,-239 278,-220 409,-220 409,-239"/>
<text text-anchor="middle" x="343.5" y="-227" font-family="Helvetica,sans-Serif" font-size="10.00">caja&#45;window&#45;slot&#45;info.h</text>
</a>
</g>
</g>
<!-- Node1&#45;&gt;Node12 -->
<g id="edge19_Node000001_Node000012" class="edge">
<title>Node1&#45;&gt;Node12</title>
<g id="a_edge19_Node000001_Node000012"><a xlink:title=" ">
<path fill="none" stroke="#63b8ff" d="M304.26,-274.75C310.97,-267.18 320.84,-256.05 329.01,-246.84"/>
<polygon fill="#63b8ff" stroke="#63b8ff" points="331.87,-248.89 335.88,-239.09 326.63,-244.25 331.87,-248.89"/>
</a>
</g>
</g>
<!-- Node3&#45;&gt;Node2 -->
<g id="edge4_Node000003_Node000002" class="edge">
<title>Node3&#45;&gt;Node2</title>
<g id="a_edge4_Node000003_Node000002"><a xlink:title=" ">
<path fill="none" stroke="#63b8ff" d="M216.8,-118.97C175.95,-117.88 105.94,-110.29 60.5,-74 46.44,-62.77 38.32,-43.58 33.94,-29.22"/>
<polygon fill="#63b8ff" stroke="#63b8ff" points="37.28,-28.14 31.29,-19.4 30.52,-29.97 37.28,-28.14"/>
</a>
</g>
</g>
<!-- Node4 -->
<g id="Node000004" class="node">
<title>Node4</title>
<g id="a_Node000004"><a xlink:title=" ">
<polygon fill="#e0e0e0" stroke="#999999" points="371.5,-19 311.5,-19 311.5,0 371.5,0 371.5,-19"/>
<text text-anchor="middle" x="341.5" y="-7" font-family="Helvetica,sans-Serif" font-size="10.00">gtk/gtk.h</text>
</a>
</g>
</g>
<!-- Node3&#45;&gt;Node4 -->
<g id="edge3_Node000003_Node000004" class="edge">
<title>Node3&#45;&gt;Node4</title>
<g id="a_edge3_Node000003_Node000004"><a xlink:title=" ">
<path fill="none" stroke="#63b8ff" d="M262.87,-109.77C274.78,-101.54 292.18,-88.36 304.5,-74 316.42,-60.11 326.6,-41.85 333.24,-28.48"/>
<polygon fill="#63b8ff" stroke="#63b8ff" points="336.45,-29.89 337.61,-19.36 330.13,-26.87 336.45,-29.89"/>
</a>
</g>
</g>
<!-- Node5 -->
<g id="Node000005" class="node">
<title>Node5</title>
<g id="a_Node000005"><a xlink:href="caja-file-attributes_8h.html" target="_top" xlink:title=" ">
<polygon fill="white" stroke="#666666" points="185.5,-74 69.5,-74 69.5,-55 185.5,-55 185.5,-74"/>
<text text-anchor="middle" x="127.5" y="-62" font-family="Helvetica,sans-Serif" font-size="10.00">caja&#45;file&#45;attributes.h</text>
</a>
</g>
</g>
<!-- Node3&#45;&gt;Node5 -->
<g id="edge5_Node000003_Node000005" class="edge">
<title>Node3&#45;&gt;Node5</title>
<g id="a_edge5_Node000003_Node000005"><a xlink:title=" ">
<path fill="none" stroke="#63b8ff" d="M229.9,-109.98C210.18,-101.42 179.55,-88.11 156.92,-78.28"/>
<polygon fill="#63b8ff" stroke="#63b8ff" points="158.02,-74.94 147.46,-74.17 155.24,-81.37 158.02,-74.94"/>
</a>
</g>
</g>
<!-- Node6 -->
<g id="Node000006" class="node">
<title>Node6</title>
<g id="a_Node000006"><a xlink:href="caja-icon-info_8h.html" target="_top" xlink:title=" ">
<polygon fill="white" stroke="#666666" points="295.5,-74 203.5,-74 203.5,-55 295.5,-55 295.5,-74"/>
<text text-anchor="middle" x="249.5" y="-62" font-family="Helvetica,sans-Serif" font-size="10.00">caja&#45;icon&#45;info.h</text>
</a>
</g>
</g>
<!-- Node3&#45;&gt;Node6 -->
<g id="edge6_Node000003_Node000006" class="edge">
<title>Node3&#45;&gt;Node6</title>
<g id="a_edge6_Node000003_Node000006"><a xlink:title=" ">
<path fill="none" stroke="#63b8ff" d="M249.5,-109.75C249.5,-102.8 249.5,-92.85 249.5,-84.13"/>
<polygon fill="#63b8ff" stroke="#63b8ff" points="253,-84.09 249.5,-74.09 246,-84.09 253,-84.09"/>
</a>
</g>
</g>
<!-- Node6&#45;&gt;Node2 -->
<g id="edge10_Node000006_Node000002" class="edge">
<title>Node6&#45;&gt;Node2</title>
<g id="a_edge10_Node000006_Node000002"><a xlink:title=" ">
<path fill="none" stroke="#63b8ff" d="M214.15,-54.98C174.51,-45.44 110.39,-29.99 69.09,-20.04"/>
<polygon fill="#63b8ff" stroke="#63b8ff" points="69.66,-16.57 59.12,-17.63 68.02,-23.38 69.66,-16.57"/>
</a>
</g>
</g>
<!-- Node6&#45;&gt;Node4 -->
<g id="edge11_Node000006_Node000004" class="edge">
<title>Node6&#45;&gt;Node4</title>
<g id="a_edge11_Node000006_Node000004"><a xlink:title=" ">
<path fill="none" stroke="#63b8ff" d="M264.28,-54.98C278.68,-46.69 300.81,-33.94 317.69,-24.22"/>
<polygon fill="#63b8ff" stroke="#63b8ff" points="319.53,-27.19 326.45,-19.17 316.04,-21.13 319.53,-27.19"/>
</a>
</g>
</g>
<!-- Node7 -->
<g id="Node000007" class="node">
<title>Node7</title>
<g id="a_Node000007"><a xlink:title=" ">
<polygon fill="#e0e0e0" stroke="#999999" points="467,-19 390,-19 390,0 467,0 467,-19"/>
<text text-anchor="middle" x="428.5" y="-7" font-family="Helvetica,sans-Serif" font-size="10.00">glib&#45;object.h</text>
</a>
</g>
</g>
<!-- Node6&#45;&gt;Node7 -->
<g id="edge7_Node000006_Node000007" class="edge">
<title>Node6&#45;&gt;Node7</title>
<g id="a_edge7_Node000006_Node000007"><a xlink:title=" ">
<path fill="none" stroke="#63b8ff" d="M278.26,-54.98C308.44,-46.05 356.07,-31.94 389.6,-22.02"/>
<polygon fill="#63b8ff" stroke="#63b8ff" points="390.92,-25.28 399.52,-19.08 388.93,-18.57 390.92,-25.28"/>
</a>
</g>
</g>
<!-- Node8 -->
<g id="Node000008" class="node">
<title>Node8</title>
<g id="a_Node000008"><a xlink:title=" ">
<polygon fill="#e0e0e0" stroke="#999999" points="210,-19 77,-19 77,0 210,0 210,-19"/>
<text text-anchor="middle" x="143.5" y="-7" font-family="Helvetica,sans-Serif" font-size="10.00">gdk&#45;pixbuf/gdk&#45;pixbuf.h</text>
</a>
</g>
</g>
<!-- Node6&#45;&gt;Node8 -->
<g id="edge8_Node000006_Node000008" class="edge">
<title>Node6&#45;&gt;Node8</title>
<g id="a_edge8_Node000006_Node000008"><a xlink:title=" ">
<path fill="none" stroke="#63b8ff" d="M232.47,-54.98C215.57,-46.54 189.44,-33.47 169.86,-23.68"/>
<polygon fill="#63b8ff" stroke="#63b8ff" points="171.35,-20.51 160.84,-19.17 168.22,-26.77 171.35,-20.51"/>
</a>
</g>
</g>
<!-- Node9 -->
<g id="Node000009" class="node">
<title>Node9</title>
<g id="a_Node000009"><a xlink:title=" ">
<polygon fill="#e0e0e0" stroke="#999999" points="293,-19 228,-19 228,0 293,0 293,-19"/>
<text text-anchor="middle" x="260.5" y="-7" font-family="Helvetica,sans-Serif" font-size="10.00">gdk/gdk.h</text>
</a>
</g>
</g>
<!-- Node6&#45;&gt;Node9 -->
<g id="edge9_Node000006_Node000009" class="edge">
<title>Node6&#45;&gt;Node9</title>
<g id="a_edge9_Node000006_Node000009"><a xlink:title=" ">
<path fill="none" stroke="#63b8ff" d="M251.32,-54.75C252.76,-47.8 254.82,-37.85 256.63,-29.13"/>
<polygon fill="#63b8ff" stroke="#63b8ff" points="260.11,-29.59 258.72,-19.09 253.26,-28.17 260.11,-29.59"/>
</a>
</g>
</g>
<!-- Node10&#45;&gt;Node4 -->
<g id="edge14_Node000010_Node000004" class="edge">
<title>Node10&#45;&gt;Node4</title>
<g id="a_edge14_Node000010_Node000004"><a xlink:title=" ">
<path fill="none" stroke="#63b8ff" d="M433.62,-164.7C428.06,-152.27 417.28,-128.99 406.5,-110 389.51,-80.09 367.08,-46.93 353.51,-27.45"/>
<polygon fill="#63b8ff" stroke="#63b8ff" points="356.22,-25.23 347.61,-19.06 350.49,-29.25 356.22,-25.23"/>
</a>
</g>
</g>
<!-- Node10&#45;&gt;Node7 -->
<g id="edge13_Node000010_Node000007" class="edge">
<title>Node10&#45;&gt;Node7</title>
<g id="a_edge13_Node000010_Node000007"><a xlink:title=" ">
<path fill="none" stroke="#63b8ff" d="M441.1,-164.82C444.56,-155.99 449.53,-141.81 451.5,-129 456.49,-96.49 459.27,-86.96 451.5,-55 449.19,-45.51 444.48,-35.78 439.92,-27.85"/>
<polygon fill="#63b8ff" stroke="#63b8ff" points="442.82,-25.89 434.6,-19.2 436.86,-29.55 442.82,-25.89"/>
</a>
</g>
</g>
<!-- Node11 -->
<g id="Node000011" class="node">
<title>Node11</title>
<g id="a_Node000011"><a xlink:href="caja-view_8h.html" target="_top" xlink:title=" ">
<polygon fill="white" stroke="#666666" points="397,-129 326,-129 326,-110 397,-110 397,-129"/>
<text text-anchor="middle" x="361.5" y="-117" font-family="Helvetica,sans-Serif" font-size="10.00">caja&#45;view.h</text>
</a>
</g>
</g>
<!-- Node10&#45;&gt;Node11 -->
<g id="edge15_Node000010_Node000011" class="edge">
<title>Node10&#45;&gt;Node11</title>
<g id="a_edge15_Node000010_Node000011"><a xlink:title=" ">
<path fill="none" stroke="#63b8ff" d="M425.29,-164.98C413.72,-156.92 396.12,-144.65 382.34,-135.03"/>
<polygon fill="#63b8ff" stroke="#63b8ff" points="384.14,-132.02 373.93,-129.17 380.13,-137.76 384.14,-132.02"/>
</a>
</g>
</g>
<!-- Node11&#45;&gt;Node4 -->
<g id="edge17_Node000011_Node000004" class="edge">
<title>Node11&#45;&gt;Node4</title>
<g id="a_edge17_Node000011_Node000004"><a xlink:title=" ">
<path fill="none" stroke="#63b8ff" d="M359.86,-109.66C356.62,-92.17 349.33,-52.8 344.98,-29.27"/>
<polygon fill="#63b8ff" stroke="#63b8ff" points="348.37,-28.35 343.1,-19.16 341.48,-29.63 348.37,-28.35"/>
</a>
</g>
</g>
<!-- Node11&#45;&gt;Node6 -->
<g id="edge18_Node000011_Node000006" class="edge">
<title>Node11&#45;&gt;Node6</title>
<g id="a_edge18_Node000011_Node000006"><a xlink:title=" ">
<path fill="none" stroke="#63b8ff" d="M343.51,-109.98C325.57,-101.5 297.78,-88.35 277.07,-78.54"/>
<polygon fill="#63b8ff" stroke="#63b8ff" points="278.36,-75.28 267.82,-74.17 275.36,-81.61 278.36,-75.28"/>
</a>
</g>
</g>
<!-- Node11&#45;&gt;Node7 -->
<g id="edge16_Node000011_Node000007" class="edge">
<title>Node11&#45;&gt;Node7</title>
<g id="a_edge16_Node000011_Node000007"><a xlink:title=" ">
<path fill="none" stroke="#63b8ff" d="M366.98,-109.66C378.08,-91.77 403.37,-51 417.83,-27.69"/>
<polygon fill="#63b8ff" stroke="#63b8ff" points="420.83,-29.5 423.13,-19.16 414.88,-25.81 420.83,-29.5"/>
</a>
</g>
</g>
<!-- Node12&#45;&gt;Node10 -->
<g id="edge20_Node000012_Node000010" class="edge">
<title>Node12&#45;&gt;Node10</title>
<g id="a_edge20_Node000012_Node000010"><a xlink:title=" ">
<path fill="none" stroke="#63b8ff" d="M358.6,-219.98C373.32,-211.69 395.92,-198.94 413.17,-189.22"/>
<polygon fill="#63b8ff" stroke="#63b8ff" points="415.13,-192.13 422.12,-184.17 411.69,-186.03 415.13,-192.13"/>
</a>
</g>
</g>
<!-- Node12&#45;&gt;Node11 -->
<g id="edge21_Node000012_Node000011" class="edge">
<title>Node12&#45;&gt;Node11</title>
<g id="a_edge21_Node000012_Node000011"><a xlink:title=" ">
<path fill="none" stroke="#63b8ff" d="M344.97,-219.66C347.89,-202.17 354.45,-162.8 358.37,-139.27"/>
<polygon fill="#63b8ff" stroke="#63b8ff" points="361.87,-139.6 360.06,-129.16 354.96,-138.45 361.87,-139.6"/>
</a>
</g>
</g>
</g>
</svg>
