<?xml version="1.0" encoding="UTF-8" standalone="no"?>
<!DOCTYPE svg PUBLIC "-//W3C//DTD SVG 1.1//EN"
 "http://www.w3.org/Graphics/SVG/1.1/DTD/svg11.dtd">
<!-- Generated by graphviz version 2.43.0 (0)
 -->
<!-- Title: caja&#45;window&#45;pane.h Pages: 1 -->
<svg width="1191pt" height="335pt"
 viewBox="0.00 0.00 1191.00 335.00" xmlns="http://www.w3.org/2000/svg" xmlns:xlink="http://www.w3.org/1999/xlink">
<g id="graph0" class="graph" transform="scale(1 1) rotate(0) translate(4 331)">
<title>caja&#45;window&#45;pane.h</title>
<!-- Node1 -->
<g id="Node000001" class="node">
<title>Node1</title>
<g id="a_Node000001"><a xlink:title=" ">
<polygon fill="#999999" stroke="#666666" points="781,-327 666,-327 666,-308 781,-308 781,-327"/>
<text text-anchor="middle" x="723.5" y="-315" font-family="Helvetica,sans-Serif" font-size="10.00">caja&#45;window&#45;pane.h</text>
</a>
</g>
</g>
<!-- Node2 -->
<g id="Node000002" class="node">
<title>Node2</title>
<g id="a_Node000002"><a xlink:href="caja-window_8h.html" target="_top" xlink:title=" ">
<polygon fill="white" stroke="#666666" points="766.5,-272 680.5,-272 680.5,-253 766.5,-253 766.5,-272"/>
<text text-anchor="middle" x="723.5" y="-260" font-family="Helvetica,sans-Serif" font-size="10.00">caja&#45;window.h</text>
</a>
</g>
</g>
<!-- Node1&#45;&gt;Node2 -->
<g id="edge1_Node000001_Node000002" class="edge">
<title>Node1&#45;&gt;Node2</title>
<g id="a_edge1_Node000001_Node000002"><a xlink:title=" ">
<path fill="none" stroke="#63b8ff" d="M723.5,-307.75C723.5,-300.8 723.5,-290.85 723.5,-282.13"/>
<polygon fill="#63b8ff" stroke="#63b8ff" points="727,-282.09 723.5,-272.09 720,-282.09 727,-282.09"/>
</a>
</g>
</g>
<!-- Node3 -->
<g id="Node000003" class="node">
<title>Node3</title>
<g id="a_Node000003"><a xlink:title=" ">
<polygon fill="#e0e0e0" stroke="#999999" points="711.5,-19 651.5,-19 651.5,0 711.5,0 711.5,-19"/>
<text text-anchor="middle" x="681.5" y="-7" font-family="Helvetica,sans-Serif" font-size="10.00">gtk/gtk.h</text>
</a>
</g>
</g>
<!-- Node2&#45;&gt;Node3 -->
<g id="edge2_Node000002_Node000003" class="edge">
<title>Node2&#45;&gt;Node3</title>
<g id="a_edge2_Node000002_Node000003"><a xlink:title=" ">
<path fill="none" stroke="#63b8ff" d="M723.88,-252.62C724.87,-223.57 726.12,-128.95 704.5,-55 701.76,-45.62 697,-35.91 692.51,-27.96"/>
<polygon fill="#63b8ff" stroke="#63b8ff" points="695.46,-26.07 687.34,-19.27 689.45,-29.65 695.46,-26.07"/>
</a>
</g>
</g>
<!-- Node4 -->
<g id="Node000004" class="node">
<title>Node4</title>
<g id="a_Node000004"><a xlink:href="eel-glib-extensions_8h.html" target="_top" xlink:title=" ">
<polygon fill="white" stroke="#666666" points="695,-145.5 558,-145.5 558,-126.5 695,-126.5 695,-145.5"/>
<text text-anchor="middle" x="626.5" y="-133.5" font-family="Helvetica,sans-Serif" font-size="10.00">eel/eel&#45;glib&#45;extensions.h</text>
</a>
</g>
</g>
<!-- Node2&#45;&gt;Node4 -->
<g id="edge3_Node000002_Node000004" class="edge">
<title>Node2&#45;&gt;Node4</title>
<g id="a_edge3_Node000002_Node000004"><a xlink:title=" ">
<path fill="none" stroke="#63b8ff" d="M716.83,-252.94C700.91,-232.51 660.45,-180.57 639.5,-153.69"/>
<polygon fill="#63b8ff" stroke="#63b8ff" points="642.12,-151.35 633.21,-145.62 636.6,-155.66 642.12,-151.35"/>
</a>
</g>
</g>
<!-- Node7 -->
<g id="Node000007" class="node">
<title>Node7</title>
<g id="a_Node000007"><a xlink:href="caja-bookmark_8h.html" target="_top" xlink:title=" ">
<polygon fill="white" stroke="#666666" points="695.5,-85 585.5,-85 585.5,-55 695.5,-55 695.5,-85"/>
<text text-anchor="start" x="593.5" y="-73" font-family="Helvetica,sans-Serif" font-size="10.00">libcaja&#45;private/caja</text>
<text text-anchor="middle" x="640.5" y="-62" font-family="Helvetica,sans-Serif" font-size="10.00">&#45;bookmark.h</text>
</a>
</g>
</g>
<!-- Node2&#45;&gt;Node7 -->
<g id="edge6_Node000002_Node000007" class="edge">
<title>Node2&#45;&gt;Node7</title>
<g id="a_edge6_Node000002_Node000007"><a xlink:title=" ">
<path fill="none" stroke="#63b8ff" d="M694.3,-252.93C653.15,-239.08 579.64,-207.48 548.5,-151 542.06,-139.32 541.69,-132.46 548.5,-121 556.66,-107.29 570.03,-97.1 584.09,-89.63"/>
<polygon fill="#63b8ff" stroke="#63b8ff" points="585.93,-92.63 593.38,-85.11 582.86,-86.34 585.93,-92.63"/>
</a>
</g>
</g>
<!-- Node8 -->
<g id="Node000008" class="node">
<title>Node8</title>
<g id="a_Node000008"><a xlink:href="caja-entry_8h.html" target="_top" xlink:title=" ">
<polygon fill="white" stroke="#666666" points="989.5,-151 879.5,-151 879.5,-121 989.5,-121 989.5,-151"/>
<text text-anchor="start" x="887.5" y="-139" font-family="Helvetica,sans-Serif" font-size="10.00">libcaja&#45;private/caja</text>
<text text-anchor="middle" x="934.5" y="-128" font-family="Helvetica,sans-Serif" font-size="10.00">&#45;entry.h</text>
</a>
</g>
</g>
<!-- Node2&#45;&gt;Node8 -->
<g id="edge9_Node000002_Node000008" class="edge">
<title>Node2&#45;&gt;Node8</title>
<g id="a_edge9_Node000002_Node000008"><a xlink:title=" ">
<path fill="none" stroke="#63b8ff" d="M766.78,-260.56C805.12,-257.58 860.59,-247.71 897.5,-217 914.61,-202.76 924.22,-178.88 929.33,-160.91"/>
<polygon fill="#63b8ff" stroke="#63b8ff" points="932.75,-161.68 931.84,-151.12 925.97,-159.94 932.75,-161.68"/>
</a>
</g>
</g>
<!-- Node9 -->
<g id="Node000009" class="node">
<title>Node9</title>
<g id="a_Node000009"><a xlink:href="caja-window-info_8h.html" target="_top" xlink:title=" ">
<polygon fill="white" stroke="#666666" points="491.5,-217 381.5,-217 381.5,-187 491.5,-187 491.5,-217"/>
<text text-anchor="start" x="389.5" y="-205" font-family="Helvetica,sans-Serif" font-size="10.00">libcaja&#45;private/caja</text>
<text text-anchor="middle" x="436.5" y="-194" font-family="Helvetica,sans-Serif" font-size="10.00">&#45;window&#45;info.h</text>
</a>
</g>
</g>
<!-- Node2&#45;&gt;Node9 -->
<g id="edge11_Node000002_Node000009" class="edge">
<title>Node2&#45;&gt;Node9</title>
<g id="a_edge11_Node000002_Node000009"><a xlink:title=" ">
<path fill="none" stroke="#63b8ff" d="M681.77,-252.99C634.49,-243.36 556.86,-227.53 501.61,-216.27"/>
<polygon fill="#63b8ff" stroke="#63b8ff" points="502.06,-212.79 491.56,-214.22 500.66,-219.65 502.06,-212.79"/>
</a>
</g>
</g>
<!-- Node15 -->
<g id="Node000015" class="node">
<title>Node15</title>
<g id="a_Node000015"><a xlink:href="caja-search-directory_8h.html" target="_top" xlink:title=" ">
<polygon fill="white" stroke="#666666" points="259.5,-217 149.5,-217 149.5,-187 259.5,-187 259.5,-217"/>
<text text-anchor="start" x="157.5" y="-205" font-family="Helvetica,sans-Serif" font-size="10.00">libcaja&#45;private/caja</text>
<text text-anchor="middle" x="204.5" y="-194" font-family="Helvetica,sans-Serif" font-size="10.00">&#45;search&#45;directory.h</text>
</a>
</g>
</g>
<!-- Node2&#45;&gt;Node15 -->
<g id="edge23_Node000002_Node000015" class="edge">
<title>Node2&#45;&gt;Node15</title>
<g id="a_edge23_Node000002_Node000015"><a xlink:title=" ">
<path fill="none" stroke="#63b8ff" d="M680.14,-256.61C589.04,-246.34 377.3,-222.48 269.73,-210.35"/>
<polygon fill="#63b8ff" stroke="#63b8ff" points="269.98,-206.86 259.65,-209.22 269.2,-213.81 269.98,-206.86"/>
</a>
</g>
</g>
<!-- Node20 -->
<g id="Node000020" class="node">
<title>Node20</title>
<g id="a_Node000020"><a xlink:href="caja-application_8h.html" target="_top" xlink:title=" ">
<polygon fill="white" stroke="#666666" points="1123.5,-79.5 1019.5,-79.5 1019.5,-60.5 1123.5,-60.5 1123.5,-79.5"/>
<text text-anchor="middle" x="1071.5" y="-67.5" font-family="Helvetica,sans-Serif" font-size="10.00">caja&#45;application.h</text>
</a>
</g>
</g>
<!-- Node2&#45;&gt;Node20 -->
<g id="edge33_Node000002_Node000020" class="edge">
<title>Node2&#45;&gt;Node20</title>
<g id="a_edge33_Node000002_Node000020"><a xlink:title=" ">
<path fill="none" stroke="#63b8ff" d="M766.65,-261.9C846.63,-261.69 1013.32,-256.38 1052.5,-217 1086.22,-183.11 1080.81,-120.81 1075.45,-89.7"/>
<polygon fill="#63b8ff" stroke="#63b8ff" points="1078.86,-88.93 1073.55,-79.76 1071.99,-90.24 1078.86,-88.93"/>
</a>
</g>
</g>
<!-- Node23 -->
<g id="Node000023" class="node">
<title>Node23</title>
<g id="a_Node000023"><a xlink:href="caja-information-panel_8h.html" target="_top" xlink:title=" ">
<polygon fill="white" stroke="#666666" points="889,-211.5 752,-211.5 752,-192.5 889,-192.5 889,-211.5"/>
<text text-anchor="middle" x="820.5" y="-199.5" font-family="Helvetica,sans-Serif" font-size="10.00">caja&#45;information&#45;panel.h</text>
</a>
</g>
</g>
<!-- Node2&#45;&gt;Node23 -->
<g id="edge39_Node000002_Node000023" class="edge">
<title>Node2&#45;&gt;Node23</title>
<g id="a_edge39_Node000002_Node000023"><a xlink:title=" ">
<path fill="none" stroke="#63b8ff" d="M737.81,-252.87C753.5,-243.41 778.9,-228.09 797.41,-216.92"/>
<polygon fill="#63b8ff" stroke="#63b8ff" points="799.37,-219.83 806.13,-211.67 795.76,-213.83 799.37,-219.83"/>
</a>
</g>
</g>
<!-- Node25 -->
<g id="Node000025" class="node">
<title>Node25</title>
<g id="a_Node000025"><a xlink:href="caja-side-pane_8h.html" target="_top" xlink:title=" ">
<polygon fill="white" stroke="#666666" points="1043.5,-211.5 945.5,-211.5 945.5,-192.5 1043.5,-192.5 1043.5,-211.5"/>
<text text-anchor="middle" x="994.5" y="-199.5" font-family="Helvetica,sans-Serif" font-size="10.00">caja&#45;side&#45;pane.h</text>
</a>
</g>
</g>
<!-- Node2&#45;&gt;Node25 -->
<g id="edge43_Node000002_Node000025" class="edge">
<title>Node2&#45;&gt;Node25</title>
<g id="a_edge43_Node000002_Node000025"><a xlink:title=" ">
<path fill="none" stroke="#63b8ff" d="M763.78,-252.98C805.7,-244.09 873.23,-229.71 931.5,-217 936.24,-215.97 941.19,-214.88 946.13,-213.79"/>
<polygon fill="#63b8ff" stroke="#63b8ff" points="947.19,-217.14 956.2,-211.56 945.68,-210.31 947.19,-217.14"/>
</a>
</g>
</g>
<!-- Node5 -->
<g id="Node000005" class="node">
<title>Node5</title>
<g id="a_Node000005"><a xlink:title=" ">
<polygon fill="#e0e0e0" stroke="#999999" points="795.5,-79.5 751.5,-79.5 751.5,-60.5 795.5,-60.5 795.5,-79.5"/>
<text text-anchor="middle" x="773.5" y="-67.5" font-family="Helvetica,sans-Serif" font-size="10.00">glib.h</text>
</a>
</g>
</g>
<!-- Node4&#45;&gt;Node5 -->
<g id="edge4_Node000004_Node000005" class="edge">
<title>Node4&#45;&gt;Node5</title>
<g id="a_edge4_Node000004_Node000005"><a xlink:title=" ">
<path fill="none" stroke="#63b8ff" d="M646.33,-126.37C671.53,-115.39 715.26,-96.36 744.29,-83.72"/>
<polygon fill="#63b8ff" stroke="#63b8ff" points="745.75,-86.9 753.52,-79.7 742.95,-80.48 745.75,-86.9"/>
</a>
</g>
</g>
<!-- Node6 -->
<g id="Node000006" class="node">
<title>Node6</title>
<g id="a_Node000006"><a xlink:title=" ">
<polygon fill="#e0e0e0" stroke="#999999" points="587,-19 528,-19 528,0 587,0 587,-19"/>
<text text-anchor="middle" x="557.5" y="-7" font-family="Helvetica,sans-Serif" font-size="10.00">gio/gio.h</text>
</a>
</g>
</g>
<!-- Node4&#45;&gt;Node6 -->
<g id="edge5_Node000004_Node000006" class="edge">
<title>Node4&#45;&gt;Node6</title>
<g id="a_edge5_Node000004_Node000006"><a xlink:title=" ">
<path fill="none" stroke="#63b8ff" d="M614.78,-126.38C603.32,-117.33 586.22,-102.07 576.5,-85 566.62,-67.64 561.79,-45.11 559.49,-29.39"/>
<polygon fill="#63b8ff" stroke="#63b8ff" points="562.95,-28.81 558.23,-19.32 556,-29.68 562.95,-28.81"/>
</a>
</g>
</g>
<!-- Node7&#45;&gt;Node3 -->
<g id="edge7_Node000007_Node000003" class="edge">
<title>Node7&#45;&gt;Node3</title>
<g id="a_edge7_Node000007_Node000003"><a xlink:title=" ">
<path fill="none" stroke="#63b8ff" d="M650.42,-54.84C656.19,-46.61 663.5,-36.18 669.58,-27.51"/>
<polygon fill="#63b8ff" stroke="#63b8ff" points="672.48,-29.46 675.36,-19.27 666.75,-25.45 672.48,-29.46"/>
</a>
</g>
</g>
<!-- Node7&#45;&gt;Node6 -->
<g id="edge8_Node000007_Node000006" class="edge">
<title>Node7&#45;&gt;Node6</title>
<g id="a_edge8_Node000007_Node000006"><a xlink:title=" ">
<path fill="none" stroke="#63b8ff" d="M620.41,-54.84C607.62,-45.83 591.1,-34.18 578.2,-25.09"/>
<polygon fill="#63b8ff" stroke="#63b8ff" points="580.13,-22.17 569.94,-19.27 576.09,-27.89 580.13,-22.17"/>
</a>
</g>
</g>
<!-- Node8&#45;&gt;Node3 -->
<g id="edge10_Node000008_Node000003" class="edge">
<title>Node8&#45;&gt;Node3</title>
<g id="a_edge10_Node000008_Node000003"><a xlink:title=" ">
<path fill="none" stroke="#63b8ff" d="M918.29,-120.72C897.58,-103.11 860.04,-73.29 823.5,-55 790.74,-38.6 750.71,-26.72 721.52,-19.38"/>
<polygon fill="#63b8ff" stroke="#63b8ff" points="722.21,-15.95 711.67,-16.97 720.55,-22.75 722.21,-15.95"/>
</a>
</g>
</g>
<!-- Node9&#45;&gt;Node3 -->
<g id="edge13_Node000009_Node000003" class="edge">
<title>Node9&#45;&gt;Node3</title>
<g id="a_edge13_Node000009_Node000003"><a xlink:title=" ">
<path fill="none" stroke="#63b8ff" d="M446.96,-186.7C468.4,-158.24 520.12,-93.87 576.5,-55 596.9,-40.93 622.46,-29.98 643.25,-22.46"/>
<polygon fill="#63b8ff" stroke="#63b8ff" points="644.44,-25.76 652.73,-19.15 642.13,-19.15 644.44,-25.76"/>
</a>
</g>
</g>
<!-- Node10 -->
<g id="Node000010" class="node">
<title>Node10</title>
<g id="a_Node000010"><a xlink:title=" ">
<polygon fill="#e0e0e0" stroke="#999999" points="221,-19 144,-19 144,0 221,0 221,-19"/>
<text text-anchor="middle" x="182.5" y="-7" font-family="Helvetica,sans-Serif" font-size="10.00">glib&#45;object.h</text>
</a>
</g>
</g>
<!-- Node9&#45;&gt;Node10 -->
<g id="edge12_Node000009_Node000010" class="edge">
<title>Node9&#45;&gt;Node10</title>
<g id="a_edge12_Node000009_Node000010"><a xlink:title=" ">
<path fill="none" stroke="#63b8ff" d="M384.08,-186.87C332.62,-170.45 255.25,-138.52 208.5,-85 194.73,-69.24 188.14,-45.76 185.06,-29.39"/>
<polygon fill="#63b8ff" stroke="#63b8ff" points="188.49,-28.69 183.44,-19.37 181.58,-29.8 188.49,-28.69"/>
</a>
</g>
</g>
<!-- Node11 -->
<g id="Node000011" class="node">
<title>Node11</title>
<g id="a_Node000011"><a xlink:href="caja-view_8h.html" target="_top" xlink:title=" ">
<polygon fill="white" stroke="#666666" points="453,-145.5 382,-145.5 382,-126.5 453,-126.5 453,-145.5"/>
<text text-anchor="middle" x="417.5" y="-133.5" font-family="Helvetica,sans-Serif" font-size="10.00">caja&#45;view.h</text>
</a>
</g>
</g>
<!-- Node9&#45;&gt;Node11 -->
<g id="edge14_Node000009_Node000011" class="edge">
<title>Node9&#45;&gt;Node11</title>
<g id="a_edge14_Node000009_Node000011"><a xlink:title=" ">
<path fill="none" stroke="#63b8ff" d="M432.28,-186.8C429.55,-177.6 425.97,-165.53 423.02,-155.58"/>
<polygon fill="#63b8ff" stroke="#63b8ff" points="426.33,-154.43 420.13,-145.84 419.62,-156.43 426.33,-154.43"/>
</a>
</g>
</g>
<!-- Node11&#45;&gt;Node3 -->
<g id="edge16_Node000011_Node000003" class="edge">
<title>Node11&#45;&gt;Node3</title>
<g id="a_edge16_Node000011_Node000003"><a xlink:title=" ">
<path fill="none" stroke="#63b8ff" d="M424.49,-126.27C438.2,-109.75 470.39,-73.85 505.5,-55 548.65,-31.83 604.26,-20.4 641.31,-14.98"/>
<polygon fill="#63b8ff" stroke="#63b8ff" points="641.81,-18.45 651.24,-13.61 640.86,-11.51 641.81,-18.45"/>
</a>
</g>
</g>
<!-- Node11&#45;&gt;Node10 -->
<g id="edge15_Node000011_Node000010" class="edge">
<title>Node11&#45;&gt;Node10</title>
<g id="a_edge15_Node000011_Node000010"><a xlink:title=" ">
<path fill="none" stroke="#63b8ff" d="M381.99,-131.27C344.63,-125.95 285.42,-113.46 242.5,-85 220.52,-70.42 202.72,-45.26 192.37,-28.25"/>
<polygon fill="#63b8ff" stroke="#63b8ff" points="195.23,-26.2 187.16,-19.32 189.18,-29.73 195.23,-26.2"/>
</a>
</g>
</g>
<!-- Node12 -->
<g id="Node000012" class="node">
<title>Node12</title>
<g id="a_Node000012"><a xlink:href="caja-icon-info_8h.html" target="_top" xlink:title=" ">
<polygon fill="white" stroke="#666666" points="453.5,-79.5 361.5,-79.5 361.5,-60.5 453.5,-60.5 453.5,-79.5"/>
<text text-anchor="middle" x="407.5" y="-67.5" font-family="Helvetica,sans-Serif" font-size="10.00">caja&#45;icon&#45;info.h</text>
</a>
</g>
</g>
<!-- Node11&#45;&gt;Node12 -->
<g id="edge17_Node000011_Node000012" class="edge">
<title>Node11&#45;&gt;Node12</title>
<g id="a_edge17_Node000011_Node000012"><a xlink:title=" ">
<path fill="none" stroke="#63b8ff" d="M416.15,-126.37C414.7,-117.07 412.34,-101.98 410.45,-89.9"/>
<polygon fill="#63b8ff" stroke="#63b8ff" points="413.89,-89.25 408.89,-79.91 406.98,-90.33 413.89,-89.25"/>
</a>
</g>
</g>
<!-- Node12&#45;&gt;Node3 -->
<g id="edge22_Node000012_Node000003" class="edge">
<title>Node12&#45;&gt;Node3</title>
<g id="a_edge22_Node000012_Node000003"><a xlink:title=" ">
<path fill="none" stroke="#63b8ff" d="M443.32,-60.49C451.27,-58.65 459.67,-56.73 467.5,-55 528.05,-41.64 598.49,-27.21 641.52,-18.51"/>
<polygon fill="#63b8ff" stroke="#63b8ff" points="642.22,-21.94 651.33,-16.53 640.83,-15.08 642.22,-21.94"/>
</a>
</g>
</g>
<!-- Node12&#45;&gt;Node6 -->
<g id="edge21_Node000012_Node000006" class="edge">
<title>Node12&#45;&gt;Node6</title>
<g id="a_edge21_Node000012_Node000006"><a xlink:title=" ">
<path fill="none" stroke="#63b8ff" d="M429.31,-60.49C454.75,-50.57 497.01,-34.09 526.01,-22.78"/>
<polygon fill="#63b8ff" stroke="#63b8ff" points="527.62,-25.91 535.66,-19.02 525.07,-19.39 527.62,-25.91"/>
</a>
</g>
</g>
<!-- Node12&#45;&gt;Node10 -->
<g id="edge18_Node000012_Node000010" class="edge">
<title>Node12&#45;&gt;Node10</title>
<g id="a_edge18_Node000012_Node000010"><a xlink:title=" ">
<path fill="none" stroke="#63b8ff" d="M374.78,-60.49C335.21,-50.2 268.49,-32.86 224.98,-21.54"/>
<polygon fill="#63b8ff" stroke="#63b8ff" points="225.82,-18.15 215.26,-19.02 224.05,-24.92 225.82,-18.15"/>
</a>
</g>
</g>
<!-- Node13 -->
<g id="Node000013" class="node">
<title>Node13</title>
<g id="a_Node000013"><a xlink:title=" ">
<polygon fill="#e0e0e0" stroke="#999999" points="507,-19 374,-19 374,0 507,0 507,-19"/>
<text text-anchor="middle" x="440.5" y="-7" font-family="Helvetica,sans-Serif" font-size="10.00">gdk&#45;pixbuf/gdk&#45;pixbuf.h</text>
</a>
</g>
</g>
<!-- Node12&#45;&gt;Node13 -->
<g id="edge19_Node000012_Node000013" class="edge">
<title>Node12&#45;&gt;Node13</title>
<g id="a_edge19_Node000012_Node000013"><a xlink:title=" ">
<path fill="none" stroke="#63b8ff" d="M412.37,-60.37C417.15,-51.9 424.57,-38.74 430.59,-28.07"/>
<polygon fill="#63b8ff" stroke="#63b8ff" points="433.75,-29.6 435.61,-19.17 427.65,-26.16 433.75,-29.6"/>
</a>
</g>
</g>
<!-- Node14 -->
<g id="Node000014" class="node">
<title>Node14</title>
<g id="a_Node000014"><a xlink:title=" ">
<polygon fill="#e0e0e0" stroke="#999999" points="890,-19 825,-19 825,0 890,0 890,-19"/>
<text text-anchor="middle" x="857.5" y="-7" font-family="Helvetica,sans-Serif" font-size="10.00">gdk/gdk.h</text>
</a>
</g>
</g>
<!-- Node12&#45;&gt;Node14 -->
<g id="edge20_Node000012_Node000014" class="edge">
<title>Node12&#45;&gt;Node14</title>
<g id="a_edge20_Node000012_Node000014"><a xlink:title=" ">
<path fill="none" stroke="#63b8ff" d="M453.54,-63.01C540.95,-51.65 729.78,-27.1 814.65,-16.07"/>
<polygon fill="#63b8ff" stroke="#63b8ff" points="815.25,-19.52 824.71,-14.76 814.34,-12.58 815.25,-19.52"/>
</a>
</g>
</g>
<!-- Node16 -->
<g id="Node000016" class="node">
<title>Node16</title>
<g id="a_Node000016"><a xlink:href="caja-directory_8h.html" target="_top" xlink:title=" ">
<polygon fill="white" stroke="#666666" points="343.5,-79.5 251.5,-79.5 251.5,-60.5 343.5,-60.5 343.5,-79.5"/>
<text text-anchor="middle" x="297.5" y="-67.5" font-family="Helvetica,sans-Serif" font-size="10.00">caja&#45;directory.h</text>
</a>
</g>
</g>
<!-- Node15&#45;&gt;Node16 -->
<g id="edge24_Node000015_Node000016" class="edge">
<title>Node15&#45;&gt;Node16</title>
<g id="a_edge24_Node000015_Node000016"><a xlink:title=" ">
<path fill="none" stroke="#63b8ff" d="M214.63,-186.84C231.82,-162.81 266.64,-114.13 285.2,-88.19"/>
<polygon fill="#63b8ff" stroke="#63b8ff" points="288.27,-89.92 291.24,-79.75 282.58,-85.84 288.27,-89.92"/>
</a>
</g>
</g>
<!-- Node18 -->
<g id="Node000018" class="node">
<title>Node18</title>
<g id="a_Node000018"><a xlink:href="caja-query_8h.html" target="_top" xlink:title=" ">
<polygon fill="white" stroke="#666666" points="157.5,-79.5 81.5,-79.5 81.5,-60.5 157.5,-60.5 157.5,-79.5"/>
<text text-anchor="middle" x="119.5" y="-67.5" font-family="Helvetica,sans-Serif" font-size="10.00">caja&#45;query.h</text>
</a>
</g>
</g>
<!-- Node15&#45;&gt;Node18 -->
<g id="edge28_Node000015_Node000018" class="edge">
<title>Node15&#45;&gt;Node18</title>
<g id="a_edge28_Node000015_Node000018"><a xlink:title=" ">
<path fill="none" stroke="#63b8ff" d="M194.94,-186.58C188.34,-176.6 179.36,-163.01 171.5,-151 157.39,-129.45 141.24,-104.57 130.73,-88.35"/>
<polygon fill="#63b8ff" stroke="#63b8ff" points="133.62,-86.38 125.25,-79.89 127.75,-90.19 133.62,-86.38"/>
</a>
</g>
</g>
<!-- Node19 -->
<g id="Node000019" class="node">
<title>Node19</title>
<g id="a_Node000019"><a xlink:href="caja-search-engine_8h.html" target="_top" xlink:title=" ">
<polygon fill="white" stroke="#666666" points="119,-145.5 0,-145.5 0,-126.5 119,-126.5 119,-145.5"/>
<text text-anchor="middle" x="59.5" y="-133.5" font-family="Helvetica,sans-Serif" font-size="10.00">caja&#45;search&#45;engine.h</text>
</a>
</g>
</g>
<!-- Node15&#45;&gt;Node19 -->
<g id="edge30_Node000015_Node000019" class="edge">
<title>Node15&#45;&gt;Node19</title>
<g id="a_edge30_Node000015_Node000019"><a xlink:title=" ">
<path fill="none" stroke="#63b8ff" d="M172.68,-186.95C147.47,-175.83 112.57,-160.42 88.21,-149.67"/>
<polygon fill="#63b8ff" stroke="#63b8ff" points="89.36,-146.35 78.8,-145.52 86.53,-152.76 89.36,-146.35"/>
</a>
</g>
</g>
<!-- Node16&#45;&gt;Node3 -->
<g id="edge25_Node000016_Node000003" class="edge">
<title>Node16&#45;&gt;Node3</title>
<g id="a_edge25_Node000016_Node000003"><a xlink:title=" ">
<path fill="none" stroke="#63b8ff" d="M328.48,-60.45C336.28,-58.48 344.67,-56.52 352.5,-55 455.73,-34.95 578.92,-20.88 641.19,-14.44"/>
<polygon fill="#63b8ff" stroke="#63b8ff" points="641.78,-17.9 651.37,-13.4 641.07,-10.94 641.78,-17.9"/>
</a>
</g>
</g>
<!-- Node16&#45;&gt;Node6 -->
<g id="edge26_Node000016_Node000006" class="edge">
<title>Node16&#45;&gt;Node6</title>
<g id="a_edge26_Node000016_Node000006"><a xlink:title=" ">
<path fill="none" stroke="#63b8ff" d="M330.32,-60.44C337.61,-58.6 345.31,-56.7 352.5,-55 409.85,-41.48 476.59,-27.28 517.94,-18.65"/>
<polygon fill="#63b8ff" stroke="#63b8ff" points="518.81,-22.05 527.89,-16.58 517.39,-15.19 518.81,-22.05"/>
</a>
</g>
</g>
<!-- Node17 -->
<g id="Node000017" class="node">
<title>Node17</title>
<g id="a_Node000017"><a xlink:href="caja-file-attributes_8h.html" target="_top" xlink:title=" ">
<polygon fill="white" stroke="#666666" points="355.5,-19 239.5,-19 239.5,0 355.5,0 355.5,-19"/>
<text text-anchor="middle" x="297.5" y="-7" font-family="Helvetica,sans-Serif" font-size="10.00">caja&#45;file&#45;attributes.h</text>
</a>
</g>
</g>
<!-- Node16&#45;&gt;Node17 -->
<g id="edge27_Node000016_Node000017" class="edge">
<title>Node16&#45;&gt;Node17</title>
<g id="a_edge27_Node000016_Node000017"><a xlink:title=" ">
<path fill="none" stroke="#63b8ff" d="M297.5,-60.37C297.5,-52.25 297.5,-39.81 297.5,-29.39"/>
<polygon fill="#63b8ff" stroke="#63b8ff" points="301,-29.17 297.5,-19.17 294,-29.17 301,-29.17"/>
</a>
</g>
</g>
<!-- Node18&#45;&gt;Node10 -->
<g id="edge29_Node000018_Node000010" class="edge">
<title>Node18&#45;&gt;Node10</title>
<g id="a_edge29_Node000018_Node000010"><a xlink:title=" ">
<path fill="none" stroke="#63b8ff" d="M128.8,-60.37C138.47,-51.38 153.84,-37.11 165.66,-26.14"/>
<polygon fill="#63b8ff" stroke="#63b8ff" points="168.22,-28.54 173.17,-19.17 163.46,-23.41 168.22,-28.54"/>
</a>
</g>
</g>
<!-- Node19&#45;&gt;Node10 -->
<g id="edge31_Node000019_Node000010" class="edge">
<title>Node19&#45;&gt;Node10</title>
<g id="a_edge31_Node000019_Node000010"><a xlink:title=" ">
<path fill="none" stroke="#63b8ff" d="M58.37,-126.46C56.76,-110.56 55.64,-76.11 72.5,-55 87.6,-36.08 112.02,-25.16 134.01,-18.87"/>
<polygon fill="#63b8ff" stroke="#63b8ff" points="135.11,-22.2 143.9,-16.3 133.35,-15.43 135.11,-22.2"/>
</a>
</g>
</g>
<!-- Node19&#45;&gt;Node18 -->
<g id="edge32_Node000019_Node000018" class="edge">
<title>Node19&#45;&gt;Node18</title>
<g id="a_edge32_Node000019_Node000018"><a xlink:title=" ">
<path fill="none" stroke="#63b8ff" d="M67.59,-126.37C76.93,-116.4 92.51,-99.79 104.16,-87.36"/>
<polygon fill="#63b8ff" stroke="#63b8ff" points="106.87,-89.59 111.15,-79.91 101.76,-84.81 106.87,-89.59"/>
</a>
</g>
</g>
<!-- Node20&#45;&gt;Node3 -->
<g id="edge37_Node000020_Node000003" class="edge">
<title>Node20&#45;&gt;Node3</title>
<g id="a_edge37_Node000020_Node000003"><a xlink:title=" ">
<path fill="none" stroke="#63b8ff" d="M1033.55,-60.46C1024.39,-58.53 1014.62,-56.59 1005.5,-55 903.72,-37.24 782.92,-22.24 721.58,-15.06"/>
<polygon fill="#63b8ff" stroke="#63b8ff" points="721.88,-11.57 711.54,-13.89 721.07,-18.52 721.88,-11.57"/>
</a>
</g>
</g>
<!-- Node20&#45;&gt;Node6 -->
<g id="edge36_Node000020_Node000006" class="edge">
<title>Node20&#45;&gt;Node6</title>
<g id="a_edge36_Node000020_Node000006"><a xlink:title=" ">
<path fill="none" stroke="#63b8ff" d="M1019.39,-63.07C916.42,-51.35 688.93,-25.46 597.09,-15.01"/>
<polygon fill="#63b8ff" stroke="#63b8ff" points="597.43,-11.52 587.1,-13.87 596.64,-18.48 597.43,-11.52"/>
</a>
</g>
</g>
<!-- Node20&#45;&gt;Node14 -->
<g id="edge35_Node000020_Node000014" class="edge">
<title>Node20&#45;&gt;Node14</title>
<g id="a_edge35_Node000020_Node000014"><a xlink:title=" ">
<path fill="none" stroke="#63b8ff" d="M1040.38,-60.49C1002.9,-50.25 939.82,-33 898.43,-21.69"/>
<polygon fill="#63b8ff" stroke="#63b8ff" points="899.22,-18.28 888.65,-19.02 897.38,-25.03 899.22,-18.28"/>
</a>
</g>
</g>
<!-- Node21 -->
<g id="Node000021" class="node">
<title>Node21</title>
<g id="a_Node000021"><a xlink:title=" ">
<polygon fill="#e0e0e0" stroke="#999999" points="1046,-19 991,-19 991,0 1046,0 1046,-19"/>
<text text-anchor="middle" x="1018.5" y="-7" font-family="Helvetica,sans-Serif" font-size="10.00">config.h</text>
</a>
</g>
</g>
<!-- Node20&#45;&gt;Node21 -->
<g id="edge34_Node000020_Node000021" class="edge">
<title>Node20&#45;&gt;Node21</title>
<g id="a_edge34_Node000020_Node000021"><a xlink:title=" ">
<path fill="none" stroke="#63b8ff" d="M1063.68,-60.37C1055.69,-51.55 1043.11,-37.66 1033.24,-26.77"/>
<polygon fill="#63b8ff" stroke="#63b8ff" points="1035.66,-24.23 1026.35,-19.17 1030.47,-28.93 1035.66,-24.23"/>
</a>
</g>
</g>
<!-- Node22 -->
<g id="Node000022" class="node">
<title>Node22</title>
<g id="a_Node000022"><a xlink:title=" ">
<polygon fill="#e0e0e0" stroke="#999999" points="1183,-19 1064,-19 1064,0 1183,0 1183,-19"/>
<text text-anchor="middle" x="1123.5" y="-7" font-family="Helvetica,sans-Serif" font-size="10.00">libegg/eggsmclient.h</text>
</a>
</g>
</g>
<!-- Node20&#45;&gt;Node22 -->
<g id="edge38_Node000020_Node000022" class="edge">
<title>Node20&#45;&gt;Node22</title>
<g id="a_edge38_Node000020_Node000022"><a xlink:title=" ">
<path fill="none" stroke="#63b8ff" d="M1079.17,-60.37C1087.01,-51.55 1099.36,-37.66 1109.04,-26.77"/>
<polygon fill="#63b8ff" stroke="#63b8ff" points="1111.77,-28.97 1115.8,-19.17 1106.54,-24.32 1111.77,-28.97"/>
</a>
</g>
</g>
<!-- Node24 -->
<g id="Node000024" class="node">
<title>Node24</title>
<g id="a_Node000024"><a xlink:href="eel-background-box_8h.html" target="_top" xlink:title=" ">
<polygon fill="white" stroke="#666666" points="861.5,-151 751.5,-151 751.5,-121 861.5,-121 861.5,-151"/>
<text text-anchor="start" x="759.5" y="-139" font-family="Helvetica,sans-Serif" font-size="10.00">eel/eel&#45;background</text>
<text text-anchor="middle" x="806.5" y="-128" font-family="Helvetica,sans-Serif" font-size="10.00">&#45;box.h</text>
</a>
</g>
</g>
<!-- Node23&#45;&gt;Node24 -->
<g id="edge40_Node000023_Node000024" class="edge">
<title>Node23&#45;&gt;Node24</title>
<g id="a_edge40_Node000023_Node000024"><a xlink:title=" ">
<path fill="none" stroke="#63b8ff" d="M818.61,-192.37C816.87,-184.4 814.2,-172.2 811.81,-161.27"/>
<polygon fill="#63b8ff" stroke="#63b8ff" points="815.2,-160.38 809.64,-151.36 808.36,-161.88 815.2,-160.38"/>
</a>
</g>
</g>
<!-- Node24&#45;&gt;Node3 -->
<g id="edge42_Node000024_Node000003" class="edge">
<title>Node24&#45;&gt;Node3</title>
<g id="a_edge42_Node000024_Node000003"><a xlink:title=" ">
<path fill="none" stroke="#63b8ff" d="M810.58,-120.77C814.61,-103.49 818.39,-74.28 804.5,-55 785.64,-28.83 749.84,-18 721.7,-13.54"/>
<polygon fill="#63b8ff" stroke="#63b8ff" points="722.11,-10.07 711.73,-12.18 721.16,-17 722.11,-10.07"/>
</a>
</g>
</g>
<!-- Node24&#45;&gt;Node5 -->
<g id="edge41_Node000024_Node000005" class="edge">
<title>Node24&#45;&gt;Node5</title>
<g id="a_edge41_Node000024_Node000005"><a xlink:title=" ">
<path fill="none" stroke="#63b8ff" d="M799.18,-120.8C794.33,-111.41 787.95,-99.02 782.75,-88.95"/>
<polygon fill="#63b8ff" stroke="#63b8ff" points="785.75,-87.13 778.06,-79.84 779.53,-90.34 785.75,-87.13"/>
</a>
</g>
</g>
<!-- Node25&#45;&gt;Node3 -->
<g id="edge44_Node000025_Node000003" class="edge">
<title>Node25&#45;&gt;Node3</title>
<g id="a_edge44_Node000025_Node000003"><a xlink:title=" ">
<path fill="none" stroke="#63b8ff" d="M997.96,-192.25C1003.54,-176.6 1012.56,-143.37 998.5,-121 939.59,-27.23 793.51,-11.78 722.1,-10.05"/>
<polygon fill="#63b8ff" stroke="#63b8ff" points="721.77,-6.54 711.72,-9.88 721.66,-13.54 721.77,-6.54"/>
</a>
</g>
</g>
</g>
</svg>
