<?xml version="1.0" encoding="UTF-8" standalone="no"?>
<!DOCTYPE svg PUBLIC "-//W3C//DTD SVG 1.1//EN"
 "http://www.w3.org/Graphics/SVG/1.1/DTD/svg11.dtd">
<!-- Generated by graphviz version 2.43.0 (0)
 -->
<!-- Title: caja&#45;file&#45;dnd.c Pages: 1 -->
<svg width="834pt" height="412pt"
 viewBox="0.00 0.00 834.00 412.00" xmlns="http://www.w3.org/2000/svg" xmlns:xlink="http://www.w3.org/1999/xlink">
<g id="graph0" class="graph" transform="scale(1 1) rotate(0) translate(4 408)">
<title>caja&#45;file&#45;dnd.c</title>
<!-- Node1 -->
<g id="Node000001" class="node">
<title>Node1</title>
<g id="a_Node000001"><a xlink:title=" ">
<polygon fill="#999999" stroke="#666666" points="525.5,-404 439.5,-404 439.5,-385 525.5,-385 525.5,-404"/>
<text text-anchor="middle" x="482.5" y="-392" font-family="Helvetica,sans-Serif" font-size="10.00">caja&#45;file&#45;dnd.c</text>
</a>
</g>
</g>
<!-- Node2 -->
<g id="Node000002" class="node">
<title>Node2</title>
<g id="a_Node000002"><a xlink:title=" ">
<polygon fill="#e0e0e0" stroke="#999999" points="301,-349 246,-349 246,-330 301,-330 301,-349"/>
<text text-anchor="middle" x="273.5" y="-337" font-family="Helvetica,sans-Serif" font-size="10.00">config.h</text>
</a>
</g>
</g>
<!-- Node1&#45;&gt;Node2 -->
<g id="edge1_Node000001_Node000002" class="edge">
<title>Node1&#45;&gt;Node2</title>
<g id="a_edge1_Node000001_Node000002"><a xlink:title=" ">
<path fill="none" stroke="#63b8ff" d="M448.92,-384.98C411.24,-375.43 350.26,-359.97 311.03,-350.02"/>
<polygon fill="#63b8ff" stroke="#63b8ff" points="311.87,-346.62 301.31,-347.55 310.15,-353.4 311.87,-346.62"/>
</a>
</g>
</g>
<!-- Node3 -->
<g id="Node000003" class="node">
<title>Node3</title>
<g id="a_Node000003"><a xlink:href="caja-file-dnd_8h.html" target="_top" xlink:title=" ">
<polygon fill="white" stroke="#666666" points="443.5,-349 357.5,-349 357.5,-330 443.5,-330 443.5,-349"/>
<text text-anchor="middle" x="400.5" y="-337" font-family="Helvetica,sans-Serif" font-size="10.00">caja&#45;file&#45;dnd.h</text>
</a>
</g>
</g>
<!-- Node1&#45;&gt;Node3 -->
<g id="edge2_Node000001_Node000003" class="edge">
<title>Node1&#45;&gt;Node3</title>
<g id="a_edge2_Node000001_Node000003"><a xlink:title=" ">
<path fill="none" stroke="#63b8ff" d="M469.33,-384.98C456.73,-376.84 437.5,-364.41 422.56,-354.76"/>
<polygon fill="#63b8ff" stroke="#63b8ff" points="424.21,-351.66 413.91,-349.17 420.41,-357.54 424.21,-351.66"/>
</a>
</g>
</g>
<!-- Node4 -->
<g id="Node000004" class="node">
<title>Node4</title>
<g id="a_Node000004"><a xlink:href="caja-dnd_8h.html" target="_top" xlink:title=" ">
<polygon fill="white" stroke="#666666" points="352.5,-294 284.5,-294 284.5,-275 352.5,-275 352.5,-294"/>
<text text-anchor="middle" x="318.5" y="-282" font-family="Helvetica,sans-Serif" font-size="10.00">caja&#45;dnd.h</text>
</a>
</g>
</g>
<!-- Node1&#45;&gt;Node4 -->
<g id="edge29_Node000001_Node000004" class="edge">
<title>Node1&#45;&gt;Node4</title>
<g id="a_edge29_Node000001_Node000004"><a xlink:title=" ">
<path fill="none" stroke="#63b8ff" d="M439.47,-388.15C410.78,-382.61 373.82,-371.43 348.5,-349 335.12,-337.14 327.22,-318.04 322.92,-303.88"/>
<polygon fill="#63b8ff" stroke="#63b8ff" points="326.3,-302.95 320.3,-294.21 319.54,-304.78 326.3,-302.95"/>
</a>
</g>
</g>
<!-- Node16 -->
<g id="Node000016" class="node">
<title>Node16</title>
<g id="a_Node000016"><a xlink:href="caja-desktop-icon-file_8h.html" target="_top" xlink:title=" ">
<polygon fill="white" stroke="#666666" points="548,-239 417,-239 417,-220 548,-220 548,-239"/>
<text text-anchor="middle" x="482.5" y="-227" font-family="Helvetica,sans-Serif" font-size="10.00">caja&#45;desktop&#45;icon&#45;file.h</text>
</a>
</g>
</g>
<!-- Node1&#45;&gt;Node16 -->
<g id="edge24_Node000001_Node000016" class="edge">
<title>Node1&#45;&gt;Node16</title>
<g id="a_edge24_Node000001_Node000016"><a xlink:title=" ">
<path fill="none" stroke="#63b8ff" d="M482.5,-384.74C482.5,-359.31 482.5,-285.08 482.5,-249.69"/>
<polygon fill="#63b8ff" stroke="#63b8ff" points="486,-249.31 482.5,-239.31 479,-249.31 486,-249.31"/>
</a>
</g>
</g>
<!-- Node18 -->
<g id="Node000018" class="node">
<title>Node18</title>
<g id="a_Node000018"><a xlink:href="caja-directory_8h.html" target="_top" xlink:title=" ">
<polygon fill="white" stroke="#666666" points="615.5,-129 523.5,-129 523.5,-110 615.5,-110 615.5,-129"/>
<text text-anchor="middle" x="569.5" y="-117" font-family="Helvetica,sans-Serif" font-size="10.00">caja&#45;directory.h</text>
</a>
</g>
</g>
<!-- Node1&#45;&gt;Node18 -->
<g id="edge30_Node000001_Node000018" class="edge">
<title>Node1&#45;&gt;Node18</title>
<g id="a_edge30_Node000001_Node000018"><a xlink:title=" ">
<path fill="none" stroke="#63b8ff" d="M500.27,-384.95C529.49,-369.5 584.5,-333.99 584.5,-285.5 584.5,-285.5 584.5,-285.5 584.5,-228.5 584.5,-196.89 578.12,-160.56 573.68,-139.13"/>
<polygon fill="#63b8ff" stroke="#63b8ff" points="577.05,-138.16 571.52,-129.12 570.21,-139.64 577.05,-138.16"/>
</a>
</g>
</g>
<!-- Node19 -->
<g id="Node000019" class="node">
<title>Node19</title>
<g id="a_Node000019"><a xlink:href="caja-file-utilities_8h.html" target="_top" xlink:title=" ">
<polygon fill="white" stroke="#666666" points="738,-74 633,-74 633,-55 738,-55 738,-74"/>
<text text-anchor="middle" x="685.5" y="-62" font-family="Helvetica,sans-Serif" font-size="10.00">caja&#45;file&#45;utilities.h</text>
</a>
</g>
</g>
<!-- Node1&#45;&gt;Node19 -->
<g id="edge34_Node000001_Node000019" class="edge">
<title>Node1&#45;&gt;Node19</title>
<g id="a_edge34_Node000001_Node000019"><a xlink:title=" ">
<path fill="none" stroke="#63b8ff" d="M525.76,-394.31C600.18,-393.19 744.5,-378.98 744.5,-285.5 744.5,-285.5 744.5,-285.5 744.5,-173.5 744.5,-137.23 718.56,-101.58 701.08,-81.67"/>
<polygon fill="#63b8ff" stroke="#63b8ff" points="703.53,-79.17 694.21,-74.14 698.37,-83.89 703.53,-79.17"/>
</a>
</g>
</g>
<!-- Node20 -->
<g id="Node000020" class="node">
<title>Node20</title>
<g id="a_Node000020"><a xlink:title=" ">
<polygon fill="#e0e0e0" stroke="#999999" points="826,-349 773,-349 773,-330 826,-330 826,-349"/>
<text text-anchor="middle" x="799.5" y="-337" font-family="Helvetica,sans-Serif" font-size="10.00">string.h</text>
</a>
</g>
</g>
<!-- Node1&#45;&gt;Node20 -->
<g id="edge37_Node000001_Node000020" class="edge">
<title>Node1&#45;&gt;Node20</title>
<g id="a_edge37_Node000001_Node000020"><a xlink:title=" ">
<path fill="none" stroke="#63b8ff" d="M525.63,-387.15C580.03,-379.01 676.4,-364.12 758.5,-349 759.79,-348.76 761.1,-348.52 762.42,-348.27"/>
<polygon fill="#63b8ff" stroke="#63b8ff" points="763.49,-351.62 772.63,-346.25 762.14,-344.75 763.49,-351.62"/>
</a>
</g>
</g>
<!-- Node3&#45;&gt;Node4 -->
<g id="edge3_Node000003_Node000004" class="edge">
<title>Node3&#45;&gt;Node4</title>
<g id="a_edge3_Node000003_Node000004"><a xlink:title=" ">
<path fill="none" stroke="#63b8ff" d="M387.33,-329.98C374.73,-321.84 355.5,-309.41 340.56,-299.76"/>
<polygon fill="#63b8ff" stroke="#63b8ff" points="342.21,-296.66 331.91,-294.17 338.41,-302.54 342.21,-296.66"/>
</a>
</g>
</g>
<!-- Node14 -->
<g id="Node000014" class="node">
<title>Node14</title>
<g id="a_Node000014"><a xlink:href="caja-file_8h.html" target="_top" xlink:title=" ">
<polygon fill="white" stroke="#666666" points="427,-129 362,-129 362,-110 427,-110 427,-129"/>
<text text-anchor="middle" x="394.5" y="-117" font-family="Helvetica,sans-Serif" font-size="10.00">caja&#45;file.h</text>
</a>
</g>
</g>
<!-- Node3&#45;&gt;Node14 -->
<g id="edge19_Node000003_Node000014" class="edge">
<title>Node3&#45;&gt;Node14</title>
<g id="a_edge19_Node000003_Node000014"><a xlink:title=" ">
<path fill="none" stroke="#63b8ff" d="M400.26,-329.95C399.38,-297.95 396.27,-184.68 395.02,-139.4"/>
<polygon fill="#63b8ff" stroke="#63b8ff" points="398.51,-139.12 394.74,-129.22 391.52,-139.32 398.51,-139.12"/>
</a>
</g>
</g>
<!-- Node5 -->
<g id="Node000005" class="node">
<title>Node5</title>
<g id="a_Node000005"><a xlink:title=" ">
<polygon fill="#e0e0e0" stroke="#999999" points="389.5,-19 329.5,-19 329.5,0 389.5,0 389.5,-19"/>
<text text-anchor="middle" x="359.5" y="-7" font-family="Helvetica,sans-Serif" font-size="10.00">gtk/gtk.h</text>
</a>
</g>
</g>
<!-- Node4&#45;&gt;Node5 -->
<g id="edge4_Node000004_Node000005" class="edge">
<title>Node4&#45;&gt;Node5</title>
<g id="a_edge4_Node000004_Node000005"><a xlink:title=" ">
<path fill="none" stroke="#63b8ff" d="M318.5,-274.82C318.5,-256.48 318.5,-212.44 318.5,-175.5 318.5,-175.5 318.5,-175.5 318.5,-118.5 318.5,-84.57 336.41,-48.31 348.56,-27.62"/>
<polygon fill="#63b8ff" stroke="#63b8ff" points="351.57,-29.4 353.8,-19.04 345.6,-25.75 351.57,-29.4"/>
</a>
</g>
</g>
<!-- Node6 -->
<g id="Node000006" class="node">
<title>Node6</title>
<g id="a_Node000006"><a xlink:href="caja-window-slot-info_8h.html" target="_top" xlink:title=" ">
<polygon fill="white" stroke="#666666" points="290,-239 159,-239 159,-220 290,-220 290,-239"/>
<text text-anchor="middle" x="224.5" y="-227" font-family="Helvetica,sans-Serif" font-size="10.00">caja&#45;window&#45;slot&#45;info.h</text>
</a>
</g>
</g>
<!-- Node4&#45;&gt;Node6 -->
<g id="edge5_Node000004_Node000006" class="edge">
<title>Node4&#45;&gt;Node6</title>
<g id="a_edge5_Node000004_Node000006"><a xlink:title=" ">
<path fill="none" stroke="#63b8ff" d="M303.4,-274.98C288.68,-266.69 266.08,-253.94 248.83,-244.22"/>
<polygon fill="#63b8ff" stroke="#63b8ff" points="250.31,-241.03 239.88,-239.17 246.87,-247.13 250.31,-241.03"/>
</a>
</g>
</g>
<!-- Node7 -->
<g id="Node000007" class="node">
<title>Node7</title>
<g id="a_Node000007"><a xlink:href="caja-window-info_8h.html" target="_top" xlink:title=" ">
<polygon fill="white" stroke="#666666" points="210.5,-184 100.5,-184 100.5,-165 210.5,-165 210.5,-184"/>
<text text-anchor="middle" x="155.5" y="-172" font-family="Helvetica,sans-Serif" font-size="10.00">caja&#45;window&#45;info.h</text>
</a>
</g>
</g>
<!-- Node6&#45;&gt;Node7 -->
<g id="edge6_Node000006_Node000007" class="edge">
<title>Node6&#45;&gt;Node7</title>
<g id="a_edge6_Node000006_Node000007"><a xlink:title=" ">
<path fill="none" stroke="#63b8ff" d="M213.41,-219.98C203.01,-212 187.24,-199.88 174.78,-190.31"/>
<polygon fill="#63b8ff" stroke="#63b8ff" points="176.85,-187.49 166.79,-184.17 172.59,-193.04 176.85,-187.49"/>
</a>
</g>
</g>
<!-- Node9 -->
<g id="Node000009" class="node">
<title>Node9</title>
<g id="a_Node000009"><a xlink:href="caja-view_8h.html" target="_top" xlink:title=" ">
<polygon fill="white" stroke="#666666" points="204,-129 133,-129 133,-110 204,-110 204,-129"/>
<text text-anchor="middle" x="168.5" y="-117" font-family="Helvetica,sans-Serif" font-size="10.00">caja&#45;view.h</text>
</a>
</g>
</g>
<!-- Node6&#45;&gt;Node9 -->
<g id="edge18_Node000006_Node000009" class="edge">
<title>Node6&#45;&gt;Node9</title>
<g id="a_edge18_Node000006_Node000009"><a xlink:title=" ">
<path fill="none" stroke="#63b8ff" d="M225.8,-219.74C227.28,-206.95 228.44,-182.78 219.5,-165 213.4,-152.86 202.4,-142.61 192.18,-135.02"/>
<polygon fill="#63b8ff" stroke="#63b8ff" points="194.11,-132.1 183.9,-129.28 190.13,-137.85 194.11,-132.1"/>
</a>
</g>
</g>
<!-- Node7&#45;&gt;Node5 -->
<g id="edge8_Node000007_Node000005" class="edge">
<title>Node7&#45;&gt;Node5</title>
<g id="a_edge8_Node000007_Node000005"><a xlink:title=" ">
<path fill="none" stroke="#63b8ff" d="M166.9,-164.69C178.43,-155.75 196.76,-141.48 212.5,-129 237.02,-109.55 306.74,-53.19 340.59,-25.8"/>
<polygon fill="#63b8ff" stroke="#63b8ff" points="343.18,-28.21 348.75,-19.2 338.78,-22.77 343.18,-28.21"/>
</a>
</g>
</g>
<!-- Node8 -->
<g id="Node000008" class="node">
<title>Node8</title>
<g id="a_Node000008"><a xlink:title=" ">
<polygon fill="#e0e0e0" stroke="#999999" points="77,-19 0,-19 0,0 77,0 77,-19"/>
<text text-anchor="middle" x="38.5" y="-7" font-family="Helvetica,sans-Serif" font-size="10.00">glib&#45;object.h</text>
</a>
</g>
</g>
<!-- Node7&#45;&gt;Node8 -->
<g id="edge7_Node000007_Node000008" class="edge">
<title>Node7&#45;&gt;Node8</title>
<g id="a_edge7_Node000007_Node000008"><a xlink:title=" ">
<path fill="none" stroke="#63b8ff" d="M149.36,-164.97C142.92,-156.02 132.49,-141.52 123.5,-129 97.54,-92.85 67.15,-50.48 50.66,-27.47"/>
<polygon fill="#63b8ff" stroke="#63b8ff" points="53.35,-25.21 44.68,-19.13 47.66,-29.29 53.35,-25.21"/>
</a>
</g>
</g>
<!-- Node7&#45;&gt;Node9 -->
<g id="edge9_Node000007_Node000009" class="edge">
<title>Node7&#45;&gt;Node9</title>
<g id="a_edge9_Node000007_Node000009"><a xlink:title=" ">
<path fill="none" stroke="#63b8ff" d="M157.65,-164.75C159.37,-157.72 161.85,-147.62 164,-138.84"/>
<polygon fill="#63b8ff" stroke="#63b8ff" points="167.41,-139.63 166.39,-129.09 160.61,-137.97 167.41,-139.63"/>
</a>
</g>
</g>
<!-- Node9&#45;&gt;Node5 -->
<g id="edge11_Node000009_Node000005" class="edge">
<title>Node9&#45;&gt;Node5</title>
<g id="a_edge11_Node000009_Node000005"><a xlink:title=" ">
<path fill="none" stroke="#63b8ff" d="M180.56,-109.96C198.75,-97.25 234.49,-72.93 266.5,-55 287.38,-43.3 311.81,-31.69 330.4,-23.26"/>
<polygon fill="#63b8ff" stroke="#63b8ff" points="331.84,-26.45 339.53,-19.16 328.98,-20.06 331.84,-26.45"/>
</a>
</g>
</g>
<!-- Node9&#45;&gt;Node8 -->
<g id="edge10_Node000009_Node000008" class="edge">
<title>Node9&#45;&gt;Node8</title>
<g id="a_edge10_Node000009_Node000008"><a xlink:title=" ">
<path fill="none" stroke="#63b8ff" d="M157.48,-109.71C146.34,-100.78 128.64,-86.53 113.5,-74 93.76,-57.66 71.37,-38.64 56.23,-25.7"/>
<polygon fill="#63b8ff" stroke="#63b8ff" points="58.5,-23.04 48.63,-19.2 53.95,-28.36 58.5,-23.04"/>
</a>
</g>
</g>
<!-- Node10 -->
<g id="Node000010" class="node">
<title>Node10</title>
<g id="a_Node000010"><a xlink:href="caja-icon-info_8h.html" target="_top" xlink:title=" ">
<polygon fill="white" stroke="#666666" points="214.5,-74 122.5,-74 122.5,-55 214.5,-55 214.5,-74"/>
<text text-anchor="middle" x="168.5" y="-62" font-family="Helvetica,sans-Serif" font-size="10.00">caja&#45;icon&#45;info.h</text>
</a>
</g>
</g>
<!-- Node9&#45;&gt;Node10 -->
<g id="edge12_Node000009_Node000010" class="edge">
<title>Node9&#45;&gt;Node10</title>
<g id="a_edge12_Node000009_Node000010"><a xlink:title=" ">
<path fill="none" stroke="#63b8ff" d="M168.5,-109.75C168.5,-102.8 168.5,-92.85 168.5,-84.13"/>
<polygon fill="#63b8ff" stroke="#63b8ff" points="172,-84.09 168.5,-74.09 165,-84.09 172,-84.09"/>
</a>
</g>
</g>
<!-- Node10&#45;&gt;Node5 -->
<g id="edge17_Node000010_Node000005" class="edge">
<title>Node10&#45;&gt;Node5</title>
<g id="a_edge17_Node000010_Node000005"><a xlink:title=" ">
<path fill="none" stroke="#63b8ff" d="M199.19,-54.98C231.86,-45.92 283.71,-31.53 319.55,-21.59"/>
<polygon fill="#63b8ff" stroke="#63b8ff" points="320.5,-24.95 329.2,-18.91 318.63,-18.21 320.5,-24.95"/>
</a>
</g>
</g>
<!-- Node10&#45;&gt;Node8 -->
<g id="edge13_Node000010_Node000008" class="edge">
<title>Node10&#45;&gt;Node8</title>
<g id="a_edge13_Node000010_Node000008"><a xlink:title=" ">
<path fill="none" stroke="#63b8ff" d="M147.61,-54.98C126.42,-46.34 93.37,-32.87 69.2,-23.02"/>
<polygon fill="#63b8ff" stroke="#63b8ff" points="70.35,-19.7 59.77,-19.17 67.71,-26.19 70.35,-19.7"/>
</a>
</g>
</g>
<!-- Node11 -->
<g id="Node000011" class="node">
<title>Node11</title>
<g id="a_Node000011"><a xlink:title=" ">
<polygon fill="#e0e0e0" stroke="#999999" points="311,-19 178,-19 178,0 311,0 311,-19"/>
<text text-anchor="middle" x="244.5" y="-7" font-family="Helvetica,sans-Serif" font-size="10.00">gdk&#45;pixbuf/gdk&#45;pixbuf.h</text>
</a>
</g>
</g>
<!-- Node10&#45;&gt;Node11 -->
<g id="edge14_Node000010_Node000011" class="edge">
<title>Node10&#45;&gt;Node11</title>
<g id="a_edge14_Node000010_Node000011"><a xlink:title=" ">
<path fill="none" stroke="#63b8ff" d="M180.71,-54.98C192.28,-46.92 209.88,-34.65 223.66,-25.03"/>
<polygon fill="#63b8ff" stroke="#63b8ff" points="225.87,-27.76 232.07,-19.17 221.86,-22.02 225.87,-27.76"/>
</a>
</g>
</g>
<!-- Node12 -->
<g id="Node000012" class="node">
<title>Node12</title>
<g id="a_Node000012"><a xlink:title=" ">
<polygon fill="#e0e0e0" stroke="#999999" points="160,-19 95,-19 95,0 160,0 160,-19"/>
<text text-anchor="middle" x="127.5" y="-7" font-family="Helvetica,sans-Serif" font-size="10.00">gdk/gdk.h</text>
</a>
</g>
</g>
<!-- Node10&#45;&gt;Node12 -->
<g id="edge15_Node000010_Node000012" class="edge">
<title>Node10&#45;&gt;Node12</title>
<g id="a_edge15_Node000010_Node000012"><a xlink:title=" ">
<path fill="none" stroke="#63b8ff" d="M161.73,-54.75C155.94,-47.26 147.44,-36.28 140.36,-27.13"/>
<polygon fill="#63b8ff" stroke="#63b8ff" points="143.03,-24.86 134.14,-19.09 137.49,-29.14 143.03,-24.86"/>
</a>
</g>
</g>
<!-- Node13 -->
<g id="Node000013" class="node">
<title>Node13</title>
<g id="a_Node000013"><a xlink:title=" ">
<polygon fill="#e0e0e0" stroke="#999999" points="634,-19 575,-19 575,0 634,0 634,-19"/>
<text text-anchor="middle" x="604.5" y="-7" font-family="Helvetica,sans-Serif" font-size="10.00">gio/gio.h</text>
</a>
</g>
</g>
<!-- Node10&#45;&gt;Node13 -->
<g id="edge16_Node000010_Node000013" class="edge">
<title>Node10&#45;&gt;Node13</title>
<g id="a_edge16_Node000010_Node000013"><a xlink:title=" ">
<path fill="none" stroke="#63b8ff" d="M214.75,-57.88C300.74,-47.42 483.84,-25.17 564.7,-15.34"/>
<polygon fill="#63b8ff" stroke="#63b8ff" points="565.45,-18.77 574.96,-14.09 564.61,-11.82 565.45,-18.77"/>
</a>
</g>
</g>
<!-- Node14&#45;&gt;Node5 -->
<g id="edge20_Node000014_Node000005" class="edge">
<title>Node14&#45;&gt;Node5</title>
<g id="a_edge20_Node000014_Node000005"><a xlink:title=" ">
<path fill="none" stroke="#63b8ff" d="M391.64,-109.66C385.94,-92.09 373.09,-52.45 365.48,-28.95"/>
<polygon fill="#63b8ff" stroke="#63b8ff" points="368.72,-27.59 362.31,-19.16 362.06,-29.75 368.72,-27.59"/>
</a>
</g>
</g>
<!-- Node14&#45;&gt;Node10 -->
<g id="edge23_Node000014_Node000010" class="edge">
<title>Node14&#45;&gt;Node10</title>
<g id="a_edge23_Node000014_Node000010"><a xlink:title=" ">
<path fill="none" stroke="#63b8ff" d="M361.64,-110.79C322.91,-101.71 258.3,-86.56 214.58,-76.31"/>
<polygon fill="#63b8ff" stroke="#63b8ff" points="215.31,-72.88 204.77,-74.01 213.71,-79.7 215.31,-72.88"/>
</a>
</g>
</g>
<!-- Node14&#45;&gt;Node13 -->
<g id="edge21_Node000014_Node000013" class="edge">
<title>Node14&#45;&gt;Node13</title>
<g id="a_edge21_Node000014_Node000013"><a xlink:title=" ">
<path fill="none" stroke="#63b8ff" d="M394.5,-109.7C395.01,-95.96 398.07,-69.5 413.5,-55 435.04,-34.75 515.24,-21.5 564.61,-15.07"/>
<polygon fill="#63b8ff" stroke="#63b8ff" points="565.16,-18.52 574.64,-13.8 564.28,-11.58 565.16,-18.52"/>
</a>
</g>
</g>
<!-- Node15 -->
<g id="Node000015" class="node">
<title>Node15</title>
<g id="a_Node000015"><a xlink:href="caja-file-attributes_8h.html" target="_top" xlink:title=" ">
<polygon fill="white" stroke="#666666" points="538.5,-74 422.5,-74 422.5,-55 538.5,-55 538.5,-74"/>
<text text-anchor="middle" x="480.5" y="-62" font-family="Helvetica,sans-Serif" font-size="10.00">caja&#45;file&#45;attributes.h</text>
</a>
</g>
</g>
<!-- Node14&#45;&gt;Node15 -->
<g id="edge22_Node000014_Node000015" class="edge">
<title>Node14&#45;&gt;Node15</title>
<g id="a_edge22_Node000014_Node000015"><a xlink:title=" ">
<path fill="none" stroke="#63b8ff" d="M408.32,-109.98C421.65,-101.77 442.08,-89.18 457.81,-79.49"/>
<polygon fill="#63b8ff" stroke="#63b8ff" points="459.75,-82.4 466.43,-74.17 456.08,-76.44 459.75,-82.4"/>
</a>
</g>
</g>
<!-- Node16&#45;&gt;Node14 -->
<g id="edge25_Node000016_Node000014" class="edge">
<title>Node16&#45;&gt;Node14</title>
<g id="a_edge25_Node000016_Node000014"><a xlink:title=" ">
<path fill="none" stroke="#63b8ff" d="M472.64,-219.8C463.13,-211.18 448.59,-197.35 437.5,-184 425.18,-169.17 413.03,-150.79 404.81,-137.63"/>
<polygon fill="#63b8ff" stroke="#63b8ff" points="407.79,-135.78 399.57,-129.09 401.82,-139.45 407.79,-135.78"/>
</a>
</g>
</g>
<!-- Node17 -->
<g id="Node000017" class="node">
<title>Node17</title>
<g id="a_Node000017"><a xlink:href="caja-desktop-link_8h.html" target="_top" xlink:title=" ">
<polygon fill="white" stroke="#666666" points="556.5,-184 446.5,-184 446.5,-165 556.5,-165 556.5,-184"/>
<text text-anchor="middle" x="501.5" y="-172" font-family="Helvetica,sans-Serif" font-size="10.00">caja&#45;desktop&#45;link.h</text>
</a>
</g>
</g>
<!-- Node16&#45;&gt;Node17 -->
<g id="edge26_Node000016_Node000017" class="edge">
<title>Node16&#45;&gt;Node17</title>
<g id="a_edge26_Node000016_Node000017"><a xlink:title=" ">
<path fill="none" stroke="#63b8ff" d="M485.64,-219.75C488.18,-212.65 491.86,-202.4 495.03,-193.56"/>
<polygon fill="#63b8ff" stroke="#63b8ff" points="498.34,-194.68 498.42,-184.09 491.75,-192.32 498.34,-194.68"/>
</a>
</g>
</g>
<!-- Node17&#45;&gt;Node13 -->
<g id="edge27_Node000017_Node000013" class="edge">
<title>Node17&#45;&gt;Node13</title>
<g id="a_edge27_Node000017_Node000013"><a xlink:title=" ">
<path fill="none" stroke="#63b8ff" d="M556.71,-168.94C615.64,-160.75 706.09,-137.88 747.5,-74 773.7,-33.59 695.03,-18.7 644.17,-13.36"/>
<polygon fill="#63b8ff" stroke="#63b8ff" points="644.39,-9.86 634.1,-12.38 643.72,-16.83 644.39,-9.86"/>
</a>
</g>
</g>
<!-- Node17&#45;&gt;Node14 -->
<g id="edge28_Node000017_Node000014" class="edge">
<title>Node17&#45;&gt;Node14</title>
<g id="a_edge28_Node000017_Node000014"><a xlink:title=" ">
<path fill="none" stroke="#63b8ff" d="M484.31,-164.98C467.25,-156.54 440.87,-143.47 421.1,-133.68"/>
<polygon fill="#63b8ff" stroke="#63b8ff" points="422.52,-130.47 412,-129.17 419.41,-136.75 422.52,-130.47"/>
</a>
</g>
</g>
<!-- Node18&#45;&gt;Node5 -->
<g id="edge31_Node000018_Node000005" class="edge">
<title>Node18&#45;&gt;Node5</title>
<g id="a_edge31_Node000018_Node000005"><a xlink:title=" ">
<path fill="none" stroke="#63b8ff" d="M569.04,-109.67C567.82,-95.9 563.43,-69.39 547.5,-55 526.06,-35.62 448.27,-22.16 399.73,-15.44"/>
<polygon fill="#63b8ff" stroke="#63b8ff" points="399.93,-11.94 389.55,-14.07 398.99,-18.87 399.93,-11.94"/>
</a>
</g>
</g>
<!-- Node18&#45;&gt;Node13 -->
<g id="edge32_Node000018_Node000013" class="edge">
<title>Node18&#45;&gt;Node13</title>
<g id="a_edge32_Node000018_Node000013"><a xlink:title=" ">
<path fill="none" stroke="#63b8ff" d="M572.36,-109.66C578.06,-92.09 590.91,-52.45 598.52,-28.95"/>
<polygon fill="#63b8ff" stroke="#63b8ff" points="601.94,-29.75 601.69,-19.16 595.28,-27.59 601.94,-29.75"/>
</a>
</g>
</g>
<!-- Node18&#45;&gt;Node15 -->
<g id="edge33_Node000018_Node000015" class="edge">
<title>Node18&#45;&gt;Node15</title>
<g id="a_edge33_Node000018_Node000015"><a xlink:title=" ">
<path fill="none" stroke="#63b8ff" d="M555.2,-109.98C541.4,-101.77 520.26,-89.18 503.99,-79.49"/>
<polygon fill="#63b8ff" stroke="#63b8ff" points="505.44,-76.28 495.06,-74.17 501.86,-82.29 505.44,-76.28"/>
</a>
</g>
</g>
<!-- Node19&#45;&gt;Node5 -->
<g id="edge36_Node000019_Node000005" class="edge">
<title>Node19&#45;&gt;Node5</title>
<g id="a_edge36_Node000019_Node000005"><a xlink:title=" ">
<path fill="none" stroke="#63b8ff" d="M633.12,-54.98C568.09,-44.41 458.58,-26.61 399.76,-17.04"/>
<polygon fill="#63b8ff" stroke="#63b8ff" points="400.16,-13.56 389.73,-15.41 399.04,-20.47 400.16,-13.56"/>
</a>
</g>
</g>
<!-- Node19&#45;&gt;Node13 -->
<g id="edge35_Node000019_Node000013" class="edge">
<title>Node19&#45;&gt;Node13</title>
<g id="a_edge35_Node000019_Node000013"><a xlink:title=" ">
<path fill="none" stroke="#63b8ff" d="M672.49,-54.98C660.04,-46.84 641.04,-34.41 626.29,-24.76"/>
<polygon fill="#63b8ff" stroke="#63b8ff" points="628.04,-21.72 617.75,-19.17 624.2,-27.57 628.04,-21.72"/>
</a>
</g>
</g>
</g>
</svg>
