<?xml version="1.0" encoding="UTF-8" standalone="no"?>
<!DOCTYPE svg PUBLIC "-//W3C//DTD SVG 1.1//EN"
 "http://www.w3.org/Graphics/SVG/1.1/DTD/svg11.dtd">
<!-- Generated by graphviz version 2.43.0 (0)
 -->
<!-- Title: caja&#45;navigation&#45;action.h Pages: 1 -->
<svg width="294pt" height="93pt"
 viewBox="0.00 0.00 294.00 93.00" xmlns="http://www.w3.org/2000/svg" xmlns:xlink="http://www.w3.org/1999/xlink">
<g id="graph0" class="graph" transform="scale(1 1) rotate(0) translate(4 89)">
<title>caja&#45;navigation&#45;action.h</title>
<!-- Node1 -->
<g id="Node000001" class="node">
<title>Node1</title>
<g id="a_Node000001"><a xlink:title=" ">
<polygon fill="#999999" stroke="#666666" points="210.5,-85 75.5,-85 75.5,-66 210.5,-66 210.5,-85"/>
<text text-anchor="middle" x="143" y="-73" font-family="Helvetica,sans-Serif" font-size="10.00">caja&#45;navigation&#45;action.h</text>
</a>
</g>
</g>
<!-- Node2 -->
<g id="Node000002" class="node">
<title>Node2</title>
<g id="a_Node000002"><a xlink:href="caja-navigation-action_8c.html" target="_top" xlink:title=" ">
<polygon fill="white" stroke="#666666" points="134,-24.5 0,-24.5 0,-5.5 134,-5.5 134,-24.5"/>
<text text-anchor="middle" x="67" y="-12.5" font-family="Helvetica,sans-Serif" font-size="10.00">caja&#45;navigation&#45;action.c</text>
</a>
</g>
</g>
<!-- Node1&#45;&gt;Node2 -->
<g id="edge1_Node000001_Node000002" class="edge">
<title>Node1&#45;&gt;Node2</title>
<g id="a_edge1_Node000001_Node000002"><a xlink:title=" ">
<path fill="none" stroke="#63b8ff" d="M123.56,-59.54C109.21,-48.49 90.18,-33.84 78.26,-24.67"/>
<polygon fill="#63b8ff" stroke="#63b8ff" points="121.73,-62.54 131.79,-65.87 126,-56.99 121.73,-62.54"/>
</a>
</g>
</g>
<!-- Node3 -->
<g id="Node000003" class="node">
<title>Node3</title>
<g id="a_Node000003"><a xlink:href="caja-navigation-window-menus_8c.html" target="_top" xlink:title=" ">
<polygon fill="white" stroke="#666666" points="286,-30 152,-30 152,0 286,0 286,-30"/>
<text text-anchor="start" x="160" y="-18" font-family="Helvetica,sans-Serif" font-size="10.00">caja&#45;navigation&#45;window</text>
<text text-anchor="middle" x="219" y="-7" font-family="Helvetica,sans-Serif" font-size="10.00">&#45;menus.c</text>
</a>
</g>
</g>
<!-- Node1&#45;&gt;Node3 -->
<g id="edge2_Node000001_Node000003" class="edge">
<title>Node1&#45;&gt;Node3</title>
<g id="a_edge2_Node000001_Node000003"><a xlink:title=" ">
<path fill="none" stroke="#63b8ff" d="M162.14,-59.77C173.95,-50.68 189.01,-39.09 200.66,-30.11"/>
<polygon fill="#63b8ff" stroke="#63b8ff" points="160,-56.99 154.21,-65.87 164.27,-62.54 160,-56.99"/>
</a>
</g>
</g>
</g>
</svg>
