<?xml version="1.0" encoding="UTF-8" standalone="no"?>
<!DOCTYPE svg PUBLIC "-//W3C//DTD SVG 1.1//EN"
 "http://www.w3.org/Graphics/SVG/1.1/DTD/svg11.dtd">
<!-- Generated by graphviz version 2.43.0 (0)
 -->
<!-- Title: caja&#45;extensions.h Pages: 1 -->
<!--zoomable 93 -->

<svg id="main" version="1.1" xmlns="http://www.w3.org/2000/svg" xmlns:xlink="http://www.w3.org/1999/xlink" xml:space="preserve" onload="init(evt)">
<style type="text/css"><![CDATA[
.node, .edge {opacity: 0.7;}
.node.selected, .edge.selected {opacity: 1;}
.edge:hover path { stroke: red; }
.edge:hover polygon { stroke: red; fill: red; }
]]></style>

<defs>
  <circle id="rim" cx="0" cy="0" r="7"/>
  <circle id="rim2" cx="0" cy="0" r="3.5"/>
  <g id="zoomPlus">
    <use xlink:href="#rim" fill="#404040"><set attributeName="fill" to="#808080" begin="zoomplus.mouseover" end="zoomplus.mouseout"/></use>
    <path d="M-4,0h8M0,-4v8" fill="none" stroke="white" stroke-width="1.5" pointer-events="none"/>
  </g>
  <g id="zoomMin">
    <use xlink:href="#rim" fill="#404040"><set attributeName="fill" to="#808080" begin="zoomminus.mouseover" end="zoomminus.mouseout"/></use>
    <path d="M-4,0h8" fill="none" stroke="white" stroke-width="1.5" pointer-events="none"/>
  </g>
  <g id="arrowUp" transform="translate(30 24)">
    <use xlink:href="#rim"/>
    <path pointer-events="none" fill="none" stroke="white" stroke-width="1.5" d="M0,-3.0v7 M-2.5,-0.5L0,-3.0L2.5,-0.5"/>
  </g>
  <g id="arrowRight" transform="rotate(90) translate(36 -43)">
    <use xlink:href="#rim"/>
    <path pointer-events="none" fill="none" stroke="white" stroke-width="1.5" d="M0,-3.0v7 M-2.5,-0.5L0,-3.0L2.5,-0.5"/>
  </g>
  <g id="arrowDown" transform="rotate(180) translate(-30 -48)">
    <use xlink:href="#rim"/>
    <path pointer-events="none" fill="none" stroke="white" stroke-width="1.5" d="M0,-3.0v7 M-2.5,-0.5L0,-3.0L2.5,-0.5"/>
  </g>
  <g id="arrowLeft" transform="rotate(270) translate(-36 17)">
    <use xlink:href="#rim"/>
    <path pointer-events="none" fill="none" stroke="white" stroke-width="1.5" d="M0,-3.0v7 M-2.5,-0.5L0,-3.0L2.5,-0.5"/>
  </g>
  <g id="resetDef">
    <use xlink:href="#rim2" fill="#404040"><set attributeName="fill" to="#808080" begin="reset.mouseover" end="reset.mouseout"/></use>
  </g>
</defs>
<script type="application/ecmascript">
var viewWidth = 1534;
var viewHeight = 93;
var sectionId = 'dynsection-1';
</script>
<script type="application/ecmascript" xlink:href="svg.min.js"/>
<svg id="graph" class="graph">
<g id="viewport">
<title>caja&#45;extensions.h</title>
<!-- Node1 -->
<g id="Node000001" class="node">
<title>Node1</title>
<g id="a_Node000001"><a xlink:title=" ">
<polygon fill="#999999" stroke="#666666" points="766,-85 663,-85 663,-66 766,-66 766,-85"/>
<text text-anchor="middle" x="714.5" y="-73" font-family="Helvetica,sans-Serif" font-size="10.00">caja&#45;extensions.h</text>
</a>
</g>
</g>
<!-- Node2 -->
<g id="Node000002" class="node">
<title>Node2</title>
<g id="a_Node000002"><a xlink:href="caja-application_8c.html" target="_top" xlink:title=" ">
<polygon fill="white" stroke="#666666" points="103,-24.5 0,-24.5 0,-5.5 103,-5.5 103,-24.5"/>
<text text-anchor="middle" x="51.5" y="-12.5" font-family="Helvetica,sans-Serif" font-size="10.00">caja&#45;application.c</text>
</a>
</g>
</g>
<!-- Node1&#45;&gt;Node2 -->
<g id="edge1_Node000001_Node000002" class="edge">
<title>Node1&#45;&gt;Node2</title>
<g id="a_edge1_Node000001_Node000002"><a xlink:title=" ">
<path fill="none" stroke="#63b8ff" d="M652.77,-73.11C543.2,-69.94 307.78,-59.96 111.5,-30 102.51,-28.63 92.88,-26.62 84.02,-24.56"/>
<polygon fill="#63b8ff" stroke="#63b8ff" points="652.88,-76.61 662.97,-73.4 653.08,-69.62 652.88,-76.61"/>
</a>
</g>
</g>
<!-- Node3 -->
<g id="Node000003" class="node">
<title>Node3</title>
<g id="a_Node000003"><a xlink:href="caja-column-utilities_8c.html" target="_top" xlink:title=" ">
<polygon fill="white" stroke="#666666" points="246,-24.5 121,-24.5 121,-5.5 246,-5.5 246,-24.5"/>
<text text-anchor="middle" x="183.5" y="-12.5" font-family="Helvetica,sans-Serif" font-size="10.00">caja&#45;column&#45;utilities.c</text>
</a>
</g>
</g>
<!-- Node1&#45;&gt;Node3 -->
<g id="edge2_Node000001_Node000003" class="edge">
<title>Node1&#45;&gt;Node3</title>
<g id="a_edge2_Node000001_Node000003"><a xlink:title=" ">
<path fill="none" stroke="#63b8ff" d="M652.56,-70.38C564.16,-64.07 396.87,-50.55 255.5,-30 245.17,-28.5 234.07,-26.52 223.75,-24.53"/>
<polygon fill="#63b8ff" stroke="#63b8ff" points="652.46,-73.88 662.68,-71.09 652.95,-66.9 652.46,-73.88"/>
</a>
</g>
</g>
<!-- Node4 -->
<g id="Node000004" class="node">
<title>Node4</title>
<g id="a_Node000004"><a xlink:href="caja-extensions_8c.html" target="_top" xlink:title=" ">
<polygon fill="white" stroke="#666666" points="366.5,-24.5 264.5,-24.5 264.5,-5.5 366.5,-5.5 366.5,-24.5"/>
<text text-anchor="middle" x="315.5" y="-12.5" font-family="Helvetica,sans-Serif" font-size="10.00">caja&#45;extensions.c</text>
</a>
</g>
</g>
<!-- Node1&#45;&gt;Node4 -->
<g id="edge3_Node000001_Node000004" class="edge">
<title>Node1&#45;&gt;Node4</title>
<g id="a_edge3_Node000001_Node000004"><a xlink:title=" ">
<path fill="none" stroke="#63b8ff" d="M652.72,-68.24C584.55,-60.91 471.74,-47.5 375.5,-30 366.98,-28.45 357.84,-26.48 349.33,-24.51"/>
<polygon fill="#63b8ff" stroke="#63b8ff" points="652.54,-71.74 662.85,-69.32 653.28,-64.78 652.54,-71.74"/>
</a>
</g>
</g>
<!-- Node5 -->
<g id="Node000005" class="node">
<title>Node5</title>
<g id="a_Node000005"><a xlink:href="caja-file-management-properties_8c.html" target="_top" xlink:title=" ">
<polygon fill="white" stroke="#666666" points="510,-30 385,-30 385,0 510,0 510,-30"/>
<text text-anchor="start" x="393" y="-18" font-family="Helvetica,sans-Serif" font-size="10.00">caja&#45;file&#45;management</text>
<text text-anchor="middle" x="447.5" y="-7" font-family="Helvetica,sans-Serif" font-size="10.00">&#45;properties.c</text>
</a>
</g>
</g>
<!-- Node1&#45;&gt;Node5 -->
<g id="edge4_Node000001_Node000005" class="edge">
<title>Node1&#45;&gt;Node5</title>
<g id="a_edge4_Node000001_Node000005"><a xlink:title=" ">
<path fill="none" stroke="#63b8ff" d="M665.86,-63.84C622.14,-54.26 557.7,-40.15 510.15,-29.73"/>
<polygon fill="#63b8ff" stroke="#63b8ff" points="665.16,-67.27 675.68,-65.99 666.66,-60.43 665.16,-67.27"/>
</a>
</g>
</g>
<!-- Node6 -->
<g id="Node000006" class="node">
<title>Node6</title>
<g id="a_Node000006"><a xlink:href="caja-file_8c.html" target="_top" xlink:title=" ">
<polygon fill="white" stroke="#666666" points="592.5,-24.5 528.5,-24.5 528.5,-5.5 592.5,-5.5 592.5,-24.5"/>
<text text-anchor="middle" x="560.5" y="-12.5" font-family="Helvetica,sans-Serif" font-size="10.00">caja&#45;file.c</text>
</a>
</g>
</g>
<!-- Node1&#45;&gt;Node6 -->
<g id="edge5_Node000001_Node000006" class="edge">
<title>Node1&#45;&gt;Node6</title>
<g id="a_edge5_Node000001_Node000006"><a xlink:title=" ">
<path fill="none" stroke="#63b8ff" d="M682.59,-62.38C652.82,-51.07 609.16,-34.49 582.92,-24.52"/>
<polygon fill="#63b8ff" stroke="#63b8ff" points="681.52,-65.71 692.11,-65.99 684,-59.17 681.52,-65.71"/>
</a>
</g>
</g>
<!-- Node7 -->
<g id="Node000007" class="node">
<title>Node7</title>
<g id="a_Node000007"><a xlink:href="caja_2libcaja-private_2caja-module_8c.html" target="_top" xlink:title=" ">
<polygon fill="white" stroke="#666666" points="696.5,-24.5 610.5,-24.5 610.5,-5.5 696.5,-5.5 696.5,-24.5"/>
<text text-anchor="middle" x="653.5" y="-12.5" font-family="Helvetica,sans-Serif" font-size="10.00">caja&#45;module.c</text>
</a>
</g>
</g>
<!-- Node1&#45;&gt;Node7 -->
<g id="edge6_Node000001_Node000007" class="edge">
<title>Node1&#45;&gt;Node7</title>
<g id="a_edge6_Node000001_Node000007"><a xlink:title=" ">
<path fill="none" stroke="#63b8ff" d="M698.24,-58.91C686.8,-47.94 671.92,-33.67 662.54,-24.67"/>
<polygon fill="#63b8ff" stroke="#63b8ff" points="695.86,-61.47 705.5,-65.87 700.7,-56.42 695.86,-61.47"/>
</a>
</g>
</g>
<!-- Node8 -->
<g id="Node000008" class="node">
<title>Node8</title>
<g id="a_Node000008"><a xlink:href="caja-window-manage-views_8c.html" target="_top" xlink:title=" ">
<polygon fill="white" stroke="#666666" points="836.5,-30 714.5,-30 714.5,0 836.5,0 836.5,-30"/>
<text text-anchor="start" x="722.5" y="-18" font-family="Helvetica,sans-Serif" font-size="10.00">caja&#45;window&#45;manage</text>
<text text-anchor="middle" x="775.5" y="-7" font-family="Helvetica,sans-Serif" font-size="10.00">&#45;views.c</text>
</a>
</g>
</g>
<!-- Node1&#45;&gt;Node8 -->
<g id="edge7_Node000001_Node000008" class="edge">
<title>Node1&#45;&gt;Node8</title>
<g id="a_edge7_Node000001_Node000008"><a xlink:title=" ">
<path fill="none" stroke="#63b8ff" d="M730.98,-58.7C740.27,-49.78 751.79,-38.74 760.78,-30.11"/>
<polygon fill="#63b8ff" stroke="#63b8ff" points="728.3,-56.42 723.5,-65.87 733.14,-61.47 728.3,-56.42"/>
</a>
</g>
</g>
<!-- Node9 -->
<g id="Node000009" class="node">
<title>Node9</title>
<g id="a_Node000009"><a xlink:href="caja-window-menus_8c.html" target="_top" xlink:title=" ">
<polygon fill="white" stroke="#666666" points="978,-24.5 855,-24.5 855,-5.5 978,-5.5 978,-24.5"/>
<text text-anchor="middle" x="916.5" y="-12.5" font-family="Helvetica,sans-Serif" font-size="10.00">caja&#45;window&#45;menus.c</text>
</a>
</g>
</g>
<!-- Node1&#45;&gt;Node9 -->
<g id="edge8_Node000001_Node000009" class="edge">
<title>Node1&#45;&gt;Node9</title>
<g id="a_edge8_Node000001_Node000009"><a xlink:title=" ">
<path fill="none" stroke="#63b8ff" d="M753.84,-63.11C792.91,-51.79 851.92,-34.7 887.09,-24.52"/>
<polygon fill="#63b8ff" stroke="#63b8ff" points="752.5,-59.85 743.87,-65.99 754.45,-66.57 752.5,-59.85"/>
</a>
</g>
</g>
<!-- Node10 -->
<g id="Node000010" class="node">
<title>Node10</title>
<g id="a_Node000010"><a xlink:href="caja-window-toolbars_8c.html" target="_top" xlink:title=" ">
<polygon fill="white" stroke="#666666" points="1126.5,-24.5 996.5,-24.5 996.5,-5.5 1126.5,-5.5 1126.5,-24.5"/>
<text text-anchor="middle" x="1061.5" y="-12.5" font-family="Helvetica,sans-Serif" font-size="10.00">caja&#45;window&#45;toolbars.c</text>
</a>
</g>
</g>
<!-- Node1&#45;&gt;Node10 -->
<g id="edge9_Node000001_Node000010" class="edge">
<title>Node1&#45;&gt;Node10</title>
<g id="a_edge9_Node000001_Node000010"><a xlink:title=" ">
<path fill="none" stroke="#63b8ff" d="M776.15,-64.91C831.53,-56.18 915.04,-42.76 987.5,-30 997.16,-28.3 1007.51,-26.39 1017.32,-24.55"/>
<polygon fill="#63b8ff" stroke="#63b8ff" points="775.48,-61.47 766.14,-66.48 776.56,-68.39 775.48,-61.47"/>
</a>
</g>
</g>
<!-- Node11 -->
<g id="Node000011" class="node">
<title>Node11</title>
<g id="a_Node000011"><a xlink:href="fm-directory-view_8c.html" target="_top" xlink:title=" ">
<polygon fill="white" stroke="#666666" points="1256,-24.5 1145,-24.5 1145,-5.5 1256,-5.5 1256,-24.5"/>
<text text-anchor="middle" x="1200.5" y="-12.5" font-family="Helvetica,sans-Serif" font-size="10.00">fm&#45;directory&#45;view.c</text>
</a>
</g>
</g>
<!-- Node1&#45;&gt;Node11 -->
<g id="edge10_Node000001_Node000011" class="edge">
<title>Node1&#45;&gt;Node11</title>
<g id="a_edge10_Node000001_Node000011"><a xlink:title=" ">
<path fill="none" stroke="#63b8ff" d="M776.44,-70.04C858.78,-63.63 1008.66,-50.3 1135.5,-30 1144.85,-28.5 1154.87,-26.53 1164.19,-24.54"/>
<polygon fill="#63b8ff" stroke="#63b8ff" points="775.96,-66.56 766.26,-70.82 776.5,-73.54 775.96,-66.56"/>
</a>
</g>
</g>
<!-- Node12 -->
<g id="Node000012" class="node">
<title>Node12</title>
<g id="a_Node000012"><a xlink:href="fm-properties-window_8c.html" target="_top" xlink:title=" ">
<polygon fill="white" stroke="#666666" points="1406.5,-24.5 1274.5,-24.5 1274.5,-5.5 1406.5,-5.5 1406.5,-24.5"/>
<text text-anchor="middle" x="1340.5" y="-12.5" font-family="Helvetica,sans-Serif" font-size="10.00">fm&#45;properties&#45;window.c</text>
</a>
</g>
</g>
<!-- Node1&#45;&gt;Node12 -->
<g id="edge11_Node000001_Node000012" class="edge">
<title>Node1&#45;&gt;Node12</title>
<g id="a_edge11_Node000001_Node000012"><a xlink:title=" ">
<path fill="none" stroke="#63b8ff" d="M776.49,-71.6C878.72,-66.34 1088.92,-53.55 1265.5,-30 1276.4,-28.55 1288.11,-26.56 1298.97,-24.55"/>
<polygon fill="#63b8ff" stroke="#63b8ff" points="776.16,-68.11 766.35,-72.11 776.51,-75.1 776.16,-68.11"/>
</a>
</g>
</g>
<!-- Node13 -->
<g id="Node000013" class="node">
<title>Node13</title>
<g id="a_Node000013"><a xlink:href="fm-widget-view_8c.html" target="_top" xlink:title=" ">
<polygon fill="white" stroke="#666666" points="1526,-24.5 1425,-24.5 1425,-5.5 1526,-5.5 1526,-24.5"/>
<text text-anchor="middle" x="1475.5" y="-12.5" font-family="Helvetica,sans-Serif" font-size="10.00">fm&#45;widget&#45;view.c</text>
</a>
</g>
</g>
<!-- Node1&#45;&gt;Node13 -->
<g id="edge12_Node000001_Node000013" class="edge">
<title>Node1&#45;&gt;Node13</title>
<g id="a_edge12_Node000001_Node000013"><a xlink:title=" ">
<path fill="none" stroke="#63b8ff" d="M776.57,-74.01C899.29,-72.27 1181.34,-64.51 1415.5,-30 1424.6,-28.66 1434.36,-26.64 1443.3,-24.55"/>
<polygon fill="#63b8ff" stroke="#63b8ff" points="776.21,-70.51 766.26,-74.14 776.3,-77.51 776.21,-70.51"/>
</a>
</g>
</g>
</g>
</svg>

<g id="navigator" transform="translate(0 0)" fill="#404254">
  <rect fill="#f2f5e9" fill-opacity="0.5" stroke="#606060" stroke-width=".5" x="0" y="0" width="60" height="60"/>
  <use id="zoomplus" xlink:href="#zoomPlus" x="17" y="9" onmousedown="handleZoom(evt,'in')"/>
  <use id="zoomminus" xlink:href="#zoomMin" x="42" y="9" onmousedown="handleZoom(evt,'out')"/>
  <use id="reset" xlink:href="#resetDef" x="30" y="36" onmousedown="handleReset()"/>
   <use id="arrowup" xlink:href="#arrowUp" x="0" y="0" onmousedown="handlePan(0,-1)"/>
  <use id="arrowright" xlink:href="#arrowRight" x="0" y="0" onmousedown="handlePan(1,0)"/>
  <use id="arrowdown" xlink:href="#arrowDown" x="0" y="0" onmousedown="handlePan(0,1)"/>
  <use id="arrowleft" xlink:href="#arrowLeft" x="0" y="0" onmousedown="handlePan(-1,0)"/>
</g>
<svg viewBox="0 0 15 15" width="100%" height="30px" preserveAspectRatio="xMaxYMin meet">
 <g id="arrow_out" transform="scale(0.3 0.3)">
  <a xlink:href="caja-extensions_8h__dep__incl_org.svg" target="_base">
   <rect id="button" ry="5" rx="5" y="6" x="6" height="38" width="38"
        fill="#f2f5e9" fill-opacity="0.5" stroke="#606060" stroke-width="1.0"/>
   <path id="arrow"
     d="M 11.500037,31.436501 C 11.940474,20.09759 22.043105,11.32322 32.158766,21.979434 L 37.068811,17.246167 C 37.068811,17.246167 37.088388,32 37.088388,32 L 22.160133,31.978069 C 22.160133,31.978069 26.997745,27.140456 26.997745,27.140456 C 18.528582,18.264221 13.291696,25.230495 11.500037,31.436501 z"
     style="fill:#404040;"/>
  </a>
 </g>
</svg>

<style type='text/css'>
<![CDATA[
[data-mouse-over-selected='false'] { opacity: 0.7; }
[data-mouse-over-selected='true']  { opacity: 1.0; }
]]>
</style>
<script type="application/ecmascript"><![CDATA[
document.addEventListener('DOMContentLoaded', (event) => {
  highlightEdges();
  highlightAdjacentNodes();
});
]]></script>
</svg>
