<?xml version="1.0" encoding="UTF-8" standalone="no"?>
<!DOCTYPE svg PUBLIC "-//W3C//DTD SVG 1.1//EN"
 "http://www.w3.org/Graphics/SVG/1.1/DTD/svg11.dtd">
<!-- Generated by graphviz version 2.43.0 (0)
 -->
<!-- Title: cpufreq&#45;selector.h Pages: 1 -->
<!--zoomable 137 -->

<svg id="main" version="1.1" xmlns="http://www.w3.org/2000/svg" xmlns:xlink="http://www.w3.org/1999/xlink" xml:space="preserve" onload="init(evt)">
<style type="text/css"><![CDATA[
.node, .edge {opacity: 0.7;}
.node.selected, .edge.selected {opacity: 1;}
.edge:hover path { stroke: red; }
.edge:hover polygon { stroke: red; fill: red; }
]]></style>

<defs>
  <circle id="rim" cx="0" cy="0" r="7"/>
  <circle id="rim2" cx="0" cy="0" r="3.5"/>
  <g id="zoomPlus">
    <use xlink:href="#rim" fill="#404040"><set attributeName="fill" to="#808080" begin="zoomplus.mouseover" end="zoomplus.mouseout"/></use>
    <path d="M-4,0h8M0,-4v8" fill="none" stroke="white" stroke-width="1.5" pointer-events="none"/>
  </g>
  <g id="zoomMin">
    <use xlink:href="#rim" fill="#404040"><set attributeName="fill" to="#808080" begin="zoomminus.mouseover" end="zoomminus.mouseout"/></use>
    <path d="M-4,0h8" fill="none" stroke="white" stroke-width="1.5" pointer-events="none"/>
  </g>
  <g id="arrowUp" transform="translate(30 24)">
    <use xlink:href="#rim"/>
    <path pointer-events="none" fill="none" stroke="white" stroke-width="1.5" d="M0,-3.0v7 M-2.5,-0.5L0,-3.0L2.5,-0.5"/>
  </g>
  <g id="arrowRight" transform="rotate(90) translate(36 -43)">
    <use xlink:href="#rim"/>
    <path pointer-events="none" fill="none" stroke="white" stroke-width="1.5" d="M0,-3.0v7 M-2.5,-0.5L0,-3.0L2.5,-0.5"/>
  </g>
  <g id="arrowDown" transform="rotate(180) translate(-30 -48)">
    <use xlink:href="#rim"/>
    <path pointer-events="none" fill="none" stroke="white" stroke-width="1.5" d="M0,-3.0v7 M-2.5,-0.5L0,-3.0L2.5,-0.5"/>
  </g>
  <g id="arrowLeft" transform="rotate(270) translate(-36 17)">
    <use xlink:href="#rim"/>
    <path pointer-events="none" fill="none" stroke="white" stroke-width="1.5" d="M0,-3.0v7 M-2.5,-0.5L0,-3.0L2.5,-0.5"/>
  </g>
  <g id="resetDef">
    <use xlink:href="#rim2" fill="#404040"><set attributeName="fill" to="#808080" begin="reset.mouseover" end="reset.mouseout"/></use>
  </g>
</defs>
<script type="application/ecmascript">
var viewWidth = 716;
var viewHeight = 137;
var sectionId = 'dynsection-1';
</script>
<script type="application/ecmascript" xlink:href="svg.min.js"/>
<svg id="graph" class="graph">
<g id="viewport">
<title>cpufreq&#45;selector.h</title>
<!-- Node1 -->
<g id="Node000001" class="node">
<title>Node1</title>
<g id="a_Node000001"><a xlink:title=" ">
<polygon fill="#999999" stroke="#666666" points="394.5,-129 290.5,-129 290.5,-110 394.5,-110 394.5,-129"/>
<text text-anchor="middle" x="342.5" y="-117" font-family="Helvetica,sans-Serif" font-size="10.00">cpufreq&#45;selector.h</text>
</a>
</g>
</g>
<!-- Node2 -->
<g id="Node000002" class="node">
<title>Node2</title>
<g id="a_Node000002"><a xlink:href="cpufreq-selector-factory_8h.html" target="_top" xlink:title=" ">
<polygon fill="white" stroke="#666666" points="257.5,-74 115.5,-74 115.5,-55 257.5,-55 257.5,-74"/>
<text text-anchor="middle" x="186.5" y="-62" font-family="Helvetica,sans-Serif" font-size="10.00">cpufreq&#45;selector&#45;factory.h</text>
</a>
</g>
</g>
<!-- Node1&#45;&gt;Node2 -->
<g id="edge1_Node000001_Node000002" class="edge">
<title>Node1&#45;&gt;Node2</title>
<g id="a_edge1_Node000001_Node000002"><a xlink:title=" ">
<path fill="none" stroke="#63b8ff" d="M307.68,-106.67C278.59,-96.79 237.8,-82.93 211.76,-74.08"/>
<polygon fill="#63b8ff" stroke="#63b8ff" points="306.84,-110.08 317.44,-109.98 309.09,-103.45 306.84,-110.08"/>
</a>
</g>
</g>
<!-- Node4 -->
<g id="Node000004" class="node">
<title>Node4</title>
<g id="a_Node000004"><a xlink:href="cpufreq-selector-service_8c.html" target="_top" xlink:title=" ">
<polygon fill="white" stroke="#666666" points="143,-19 0,-19 0,0 143,0 143,-19"/>
<text text-anchor="middle" x="71.5" y="-7" font-family="Helvetica,sans-Serif" font-size="10.00">cpufreq&#45;selector&#45;service.c</text>
</a>
</g>
</g>
<!-- Node1&#45;&gt;Node4 -->
<g id="edge7_Node000001_Node000004" class="edge">
<title>Node1&#45;&gt;Node4</title>
<g id="a_edge7_Node000001_Node000004"><a xlink:title=" ">
<path fill="none" stroke="#63b8ff" d="M280.28,-112.79C219.96,-106.2 133.68,-93.68 106.5,-74 87.54,-60.27 77.65,-32.97 73.67,-19.07"/>
<polygon fill="#63b8ff" stroke="#63b8ff" points="280.16,-116.3 290.48,-113.87 280.9,-109.33 280.16,-116.3"/>
</a>
</g>
</g>
<!-- Node6 -->
<g id="Node000006" class="node">
<title>Node6</title>
<g id="a_Node000006"><a xlink:href="cpufreq-selector-libcpufreq_8h.html" target="_top" xlink:title=" ">
<polygon fill="white" stroke="#666666" points="585.5,-74 427.5,-74 427.5,-55 585.5,-55 585.5,-74"/>
<text text-anchor="middle" x="506.5" y="-62" font-family="Helvetica,sans-Serif" font-size="10.00">cpufreq&#45;selector&#45;libcpufreq.h</text>
</a>
</g>
</g>
<!-- Node1&#45;&gt;Node6 -->
<g id="edge5_Node000001_Node000006" class="edge">
<title>Node1&#45;&gt;Node6</title>
<g id="a_edge5_Node000001_Node000006"><a xlink:title=" ">
<path fill="none" stroke="#63b8ff" d="M378.71,-106.8C409.32,-96.91 452.45,-82.97 479.94,-74.08"/>
<polygon fill="#63b8ff" stroke="#63b8ff" points="377.29,-103.58 368.85,-109.98 379.44,-110.24 377.29,-103.58"/>
</a>
</g>
</g>
<!-- Node8 -->
<g id="Node000008" class="node">
<title>Node8</title>
<g id="a_Node000008"><a xlink:href="cpufreq-selector-sysfs_8h.html" target="_top" xlink:title=" ">
<polygon fill="white" stroke="#666666" points="409.5,-74 275.5,-74 275.5,-55 409.5,-55 409.5,-74"/>
<text text-anchor="middle" x="342.5" y="-62" font-family="Helvetica,sans-Serif" font-size="10.00">cpufreq&#45;selector&#45;sysfs.h</text>
</a>
</g>
</g>
<!-- Node1&#45;&gt;Node8 -->
<g id="edge8_Node000001_Node000008" class="edge">
<title>Node1&#45;&gt;Node8</title>
<g id="a_edge8_Node000001_Node000008"><a xlink:title=" ">
<path fill="none" stroke="#63b8ff" d="M342.5,-99.66C342.5,-90.93 342.5,-80.99 342.5,-74.09"/>
<polygon fill="#63b8ff" stroke="#63b8ff" points="339,-99.75 342.5,-109.75 346,-99.75 339,-99.75"/>
</a>
</g>
</g>
<!-- Node10 -->
<g id="Node000010" class="node">
<title>Node10</title>
<g id="a_Node000010"><a xlink:href="cpufreq-selector_2cpufreq-selector_8c.html" target="_top" xlink:title=" ">
<polygon fill="white" stroke="#666666" points="707.5,-74 603.5,-74 603.5,-55 707.5,-55 707.5,-74"/>
<text text-anchor="middle" x="655.5" y="-62" font-family="Helvetica,sans-Serif" font-size="10.00">cpufreq&#45;selector.c</text>
</a>
</g>
</g>
<!-- Node1&#45;&gt;Node10 -->
<g id="edge11_Node000001_Node000010" class="edge">
<title>Node1&#45;&gt;Node10</title>
<g id="a_edge11_Node000001_Node000010"><a xlink:title=" ">
<path fill="none" stroke="#63b8ff" d="M402.68,-108.31C461.46,-98.36 549.89,-83.38 605.08,-74.04"/>
<polygon fill="#63b8ff" stroke="#63b8ff" points="402.06,-104.86 392.79,-109.98 403.23,-111.77 402.06,-104.86"/>
</a>
</g>
</g>
<!-- Node3 -->
<g id="Node000003" class="node">
<title>Node3</title>
<g id="a_Node000003"><a xlink:href="cpufreq-selector-factory_8c.html" target="_top" xlink:title=" ">
<polygon fill="white" stroke="#666666" points="371,-19 230,-19 230,0 371,0 371,-19"/>
<text text-anchor="middle" x="300.5" y="-7" font-family="Helvetica,sans-Serif" font-size="10.00">cpufreq&#45;selector&#45;factory.c</text>
</a>
</g>
</g>
<!-- Node2&#45;&gt;Node3 -->
<g id="edge2_Node000002_Node000003" class="edge">
<title>Node2&#45;&gt;Node3</title>
<g id="a_edge2_Node000002_Node000003"><a xlink:title=" ">
<path fill="none" stroke="#63b8ff" d="M213.89,-50.77C234.92,-40.99 263.39,-27.75 281.85,-19.17"/>
<polygon fill="#63b8ff" stroke="#63b8ff" points="212.41,-47.6 204.82,-54.98 215.36,-53.94 212.41,-47.6"/>
</a>
</g>
</g>
<!-- Node2&#45;&gt;Node4 -->
<g id="edge3_Node000002_Node000004" class="edge">
<title>Node2&#45;&gt;Node4</title>
<g id="a_edge3_Node000002_Node000004"><a xlink:title=" ">
<path fill="none" stroke="#63b8ff" d="M158.87,-50.77C137.66,-40.99 108.94,-27.75 90.31,-19.17"/>
<polygon fill="#63b8ff" stroke="#63b8ff" points="157.48,-53.98 168.02,-54.98 160.41,-47.62 157.48,-53.98"/>
</a>
</g>
</g>
<!-- Node5 -->
<g id="Node000005" class="node">
<title>Node5</title>
<g id="a_Node000005"><a xlink:href="mate-applets_2cpufreq_2src_2cpufreq-selector_2main_8c.html" target="_top" xlink:title=" ">
<polygon fill="white" stroke="#666666" points="211.5,-19 161.5,-19 161.5,0 211.5,0 211.5,-19"/>
<text text-anchor="middle" x="186.5" y="-7" font-family="Helvetica,sans-Serif" font-size="10.00">main.c</text>
</a>
</g>
</g>
<!-- Node2&#45;&gt;Node5 -->
<g id="edge4_Node000002_Node000005" class="edge">
<title>Node2&#45;&gt;Node5</title>
<g id="a_edge4_Node000002_Node000005"><a xlink:title=" ">
<path fill="none" stroke="#63b8ff" d="M186.5,-44.66C186.5,-35.93 186.5,-25.99 186.5,-19.09"/>
<polygon fill="#63b8ff" stroke="#63b8ff" points="183,-44.75 186.5,-54.75 190,-44.75 183,-44.75"/>
</a>
</g>
</g>
<!-- Node7 -->
<g id="Node000007" class="node">
<title>Node7</title>
<g id="a_Node000007"><a xlink:href="cpufreq-selector-libcpufreq_8c.html" target="_top" xlink:title=" ">
<polygon fill="white" stroke="#666666" points="699,-19 542,-19 542,0 699,0 699,-19"/>
<text text-anchor="middle" x="620.5" y="-7" font-family="Helvetica,sans-Serif" font-size="10.00">cpufreq&#45;selector&#45;libcpufreq.c</text>
</a>
</g>
</g>
<!-- Node6&#45;&gt;Node7 -->
<g id="edge6_Node000006_Node000007" class="edge">
<title>Node6&#45;&gt;Node7</title>
<g id="a_edge6_Node000006_Node000007"><a xlink:title=" ">
<path fill="none" stroke="#63b8ff" d="M533.89,-50.77C554.92,-40.99 583.39,-27.75 601.85,-19.17"/>
<polygon fill="#63b8ff" stroke="#63b8ff" points="532.41,-47.6 524.82,-54.98 535.36,-53.94 532.41,-47.6"/>
</a>
</g>
</g>
<!-- Node8&#45;&gt;Node3 -->
<g id="edge9_Node000008_Node000003" class="edge">
<title>Node8&#45;&gt;Node3</title>
<g id="a_edge9_Node000008_Node000003"><a xlink:title=" ">
<path fill="none" stroke="#63b8ff" d="M329.17,-46.67C321.89,-37.5 313.2,-26.52 307.31,-19.09"/>
<polygon fill="#63b8ff" stroke="#63b8ff" points="326.61,-49.08 335.56,-54.75 332.1,-44.74 326.61,-49.08"/>
</a>
</g>
</g>
<!-- Node9 -->
<g id="Node000009" class="node">
<title>Node9</title>
<g id="a_Node000009"><a xlink:href="cpufreq-selector-sysfs_8c.html" target="_top" xlink:title=" ">
<polygon fill="white" stroke="#666666" points="523.5,-19 389.5,-19 389.5,0 523.5,0 523.5,-19"/>
<text text-anchor="middle" x="456.5" y="-7" font-family="Helvetica,sans-Serif" font-size="10.00">cpufreq&#45;selector&#45;sysfs.c</text>
</a>
</g>
</g>
<!-- Node8&#45;&gt;Node9 -->
<g id="edge10_Node000008_Node000009" class="edge">
<title>Node8&#45;&gt;Node9</title>
<g id="a_edge10_Node000008_Node000009"><a xlink:title=" ">
<path fill="none" stroke="#63b8ff" d="M369.89,-50.77C390.92,-40.99 419.39,-27.75 437.85,-19.17"/>
<polygon fill="#63b8ff" stroke="#63b8ff" points="368.41,-47.6 360.82,-54.98 371.36,-53.94 368.41,-47.6"/>
</a>
</g>
</g>
</g>
</svg>

<g id="navigator" transform="translate(0 0)" fill="#404254">
  <rect fill="#f2f5e9" fill-opacity="0.5" stroke="#606060" stroke-width=".5" x="0" y="0" width="60" height="60"/>
  <use id="zoomplus" xlink:href="#zoomPlus" x="17" y="9" onmousedown="handleZoom(evt,'in')"/>
  <use id="zoomminus" xlink:href="#zoomMin" x="42" y="9" onmousedown="handleZoom(evt,'out')"/>
  <use id="reset" xlink:href="#resetDef" x="30" y="36" onmousedown="handleReset()"/>
   <use id="arrowup" xlink:href="#arrowUp" x="0" y="0" onmousedown="handlePan(0,-1)"/>
  <use id="arrowright" xlink:href="#arrowRight" x="0" y="0" onmousedown="handlePan(1,0)"/>
  <use id="arrowdown" xlink:href="#arrowDown" x="0" y="0" onmousedown="handlePan(0,1)"/>
  <use id="arrowleft" xlink:href="#arrowLeft" x="0" y="0" onmousedown="handlePan(-1,0)"/>
</g>
<svg viewBox="0 0 15 15" width="100%" height="30px" preserveAspectRatio="xMaxYMin meet">
 <g id="arrow_out" transform="scale(0.3 0.3)">
  <a xlink:href="cpufreq-selector_2cpufreq-selector_8h__dep__incl_org.svg" target="_base">
   <rect id="button" ry="5" rx="5" y="6" x="6" height="38" width="38"
        fill="#f2f5e9" fill-opacity="0.5" stroke="#606060" stroke-width="1.0"/>
   <path id="arrow"
     d="M 11.500037,31.436501 C 11.940474,20.09759 22.043105,11.32322 32.158766,21.979434 L 37.068811,17.246167 C 37.068811,17.246167 37.088388,32 37.088388,32 L 22.160133,31.978069 C 22.160133,31.978069 26.997745,27.140456 26.997745,27.140456 C 18.528582,18.264221 13.291696,25.230495 11.500037,31.436501 z"
     style="fill:#404040;"/>
  </a>
 </g>
</svg>

<style type='text/css'>
<![CDATA[
[data-mouse-over-selected='false'] { opacity: 0.7; }
[data-mouse-over-selected='true']  { opacity: 1.0; }
]]>
</style>
<script type="application/ecmascript"><![CDATA[
document.addEventListener('DOMContentLoaded', (event) => {
  highlightEdges();
  highlightAdjacentNodes();
});
]]></script>
</svg>
