<?xml version="1.0" encoding="UTF-8" standalone="no"?>
<!DOCTYPE svg PUBLIC "-//W3C//DTD SVG 1.1//EN"
 "http://www.w3.org/Graphics/SVG/1.1/DTD/svg11.dtd">
<!-- Generated by graphviz version 2.43.0 (0)
 -->
<!-- Title: cpufreq&#45;monitor.h Pages: 1 -->
<svg width="967pt" height="137pt"
 viewBox="0.00 0.00 967.00 137.00" xmlns="http://www.w3.org/2000/svg" xmlns:xlink="http://www.w3.org/1999/xlink">
<g id="graph0" class="graph" transform="scale(1 1) rotate(0) translate(4 133)">
<title>cpufreq&#45;monitor.h</title>
<!-- Node1 -->
<g id="Node000001" class="node">
<title>Node1</title>
<g id="a_Node000001"><a xlink:title=" ">
<polygon fill="#999999" stroke="#666666" points="490.5,-129 386.5,-129 386.5,-110 490.5,-110 490.5,-129"/>
<text text-anchor="middle" x="438.5" y="-117" font-family="Helvetica,sans-Serif" font-size="10.00">cpufreq&#45;monitor.h</text>
</a>
</g>
</g>
<!-- Node2 -->
<g id="Node000002" class="node">
<title>Node2</title>
<g id="a_Node000002"><a xlink:href="cpufreq-applet_8c.html" target="_top" xlink:title=" ">
<polygon fill="white" stroke="#666666" points="209.5,-19 113.5,-19 113.5,0 209.5,0 209.5,-19"/>
<text text-anchor="middle" x="161.5" y="-7" font-family="Helvetica,sans-Serif" font-size="10.00">cpufreq&#45;applet.c</text>
</a>
</g>
</g>
<!-- Node1&#45;&gt;Node2 -->
<g id="edge1_Node000001_Node000002" class="edge">
<title>Node1&#45;&gt;Node2</title>
<g id="a_edge1_Node000001_Node000002"><a xlink:title=" ">
<path fill="none" stroke="#63b8ff" d="M376.52,-112.9C315.2,-106.33 226.57,-93.75 198.5,-74 179.09,-60.34 168.35,-33.01 163.93,-19.08"/>
<polygon fill="#63b8ff" stroke="#63b8ff" points="376.18,-116.38 386.49,-113.94 376.91,-109.42 376.18,-116.38"/>
</a>
</g>
</g>
<!-- Node3 -->
<g id="Node000003" class="node">
<title>Node3</title>
<g id="a_Node000003"><a xlink:href="cpufreq-monitor-cpuinfo_8h.html" target="_top" xlink:title=" ">
<polygon fill="white" stroke="#666666" points="510.5,-74 366.5,-74 366.5,-55 510.5,-55 510.5,-74"/>
<text text-anchor="middle" x="438.5" y="-62" font-family="Helvetica,sans-Serif" font-size="10.00">cpufreq&#45;monitor&#45;cpuinfo.h</text>
</a>
</g>
</g>
<!-- Node1&#45;&gt;Node3 -->
<g id="edge2_Node000001_Node000003" class="edge">
<title>Node1&#45;&gt;Node3</title>
<g id="a_edge2_Node000001_Node000003"><a xlink:title=" ">
<path fill="none" stroke="#63b8ff" d="M438.5,-99.66C438.5,-90.93 438.5,-80.99 438.5,-74.09"/>
<polygon fill="#63b8ff" stroke="#63b8ff" points="435,-99.75 438.5,-109.75 442,-99.75 435,-99.75"/>
</a>
</g>
</g>
<!-- Node6 -->
<g id="Node000006" class="node">
<title>Node6</title>
<g id="a_Node000006"><a xlink:href="cpufreq-monitor-factory_8h.html" target="_top" xlink:title=" ">
<polygon fill="white" stroke="#666666" points="348,-74 207,-74 207,-55 348,-55 348,-74"/>
<text text-anchor="middle" x="277.5" y="-62" font-family="Helvetica,sans-Serif" font-size="10.00">cpufreq&#45;monitor&#45;factory.h</text>
</a>
</g>
</g>
<!-- Node1&#45;&gt;Node6 -->
<g id="edge5_Node000001_Node000006" class="edge">
<title>Node1&#45;&gt;Node6</title>
<g id="a_edge5_Node000001_Node000006"><a xlink:title=" ">
<path fill="none" stroke="#63b8ff" d="M402.95,-106.8C372.91,-96.91 330.56,-82.97 303.57,-74.08"/>
<polygon fill="#63b8ff" stroke="#63b8ff" points="402.04,-110.18 412.63,-109.98 404.23,-103.53 402.04,-110.18"/>
</a>
</g>
</g>
<!-- Node7 -->
<g id="Node000007" class="node">
<title>Node7</title>
<g id="a_Node000007"><a xlink:href="cpufreq-monitor-libcpufreq_8h.html" target="_top" xlink:title=" ">
<polygon fill="white" stroke="#666666" points="838,-74 681,-74 681,-55 838,-55 838,-74"/>
<text text-anchor="middle" x="759.5" y="-62" font-family="Helvetica,sans-Serif" font-size="10.00">cpufreq&#45;monitor&#45;libcpufreq.h</text>
</a>
</g>
</g>
<!-- Node1&#45;&gt;Node7 -->
<g id="edge8_Node000001_Node000007" class="edge">
<title>Node1&#45;&gt;Node7</title>
<g id="a_edge8_Node000001_Node000007"><a xlink:title=" ">
<path fill="none" stroke="#63b8ff" d="M500.22,-108.31C560.5,-98.36 651.19,-83.38 707.79,-74.04"/>
<polygon fill="#63b8ff" stroke="#63b8ff" points="499.37,-104.9 490.07,-109.98 500.51,-111.81 499.37,-104.9"/>
</a>
</g>
</g>
<!-- Node9 -->
<g id="Node000009" class="node">
<title>Node9</title>
<g id="a_Node000009"><a xlink:href="cpufreq-monitor-sysfs_8h.html" target="_top" xlink:title=" ">
<polygon fill="white" stroke="#666666" points="662.5,-74 528.5,-74 528.5,-55 662.5,-55 662.5,-74"/>
<text text-anchor="middle" x="595.5" y="-62" font-family="Helvetica,sans-Serif" font-size="10.00">cpufreq&#45;monitor&#45;sysfs.h</text>
</a>
</g>
</g>
<!-- Node1&#45;&gt;Node9 -->
<g id="edge10_Node000001_Node000009" class="edge">
<title>Node1&#45;&gt;Node9</title>
<g id="a_edge10_Node000001_Node000009"><a xlink:title=" ">
<path fill="none" stroke="#63b8ff" d="M473.55,-106.67C502.82,-96.79 543.87,-82.93 570.08,-74.08"/>
<polygon fill="#63b8ff" stroke="#63b8ff" points="472.08,-103.47 463.72,-109.98 474.32,-110.1 472.08,-103.47"/>
</a>
</g>
</g>
<!-- Node11 -->
<g id="Node000011" class="node">
<title>Node11</title>
<g id="a_Node000011"><a xlink:href="cpufreq-monitor_8c.html" target="_top" xlink:title=" ">
<polygon fill="white" stroke="#666666" points="959,-74 856,-74 856,-55 959,-55 959,-74"/>
<text text-anchor="middle" x="907.5" y="-62" font-family="Helvetica,sans-Serif" font-size="10.00">cpufreq&#45;monitor.c</text>
</a>
</g>
</g>
<!-- Node1&#45;&gt;Node11 -->
<g id="edge13_Node000001_Node000011" class="edge">
<title>Node1&#45;&gt;Node11</title>
<g id="a_edge13_Node000001_Node000011"><a xlink:title=" ">
<path fill="none" stroke="#63b8ff" d="M500.96,-112.34C581.24,-104.27 724.9,-89.35 847.5,-74 850.21,-73.66 853,-73.3 855.8,-72.93"/>
<polygon fill="#63b8ff" stroke="#63b8ff" points="500.14,-108.9 490.54,-113.38 500.84,-115.87 500.14,-108.9"/>
</a>
</g>
</g>
<!-- Node12 -->
<g id="Node000012" class="node">
<title>Node12</title>
<g id="a_Node000012"><a xlink:href="cpufreq-popup_8h.html" target="_top" xlink:title=" ">
<polygon fill="white" stroke="#666666" points="150.5,-74 54.5,-74 54.5,-55 150.5,-55 150.5,-74"/>
<text text-anchor="middle" x="102.5" y="-62" font-family="Helvetica,sans-Serif" font-size="10.00">cpufreq&#45;popup.h</text>
</a>
</g>
</g>
<!-- Node1&#45;&gt;Node12 -->
<g id="edge14_Node000001_Node000012" class="edge">
<title>Node1&#45;&gt;Node12</title>
<g id="a_edge14_Node000001_Node000012"><a xlink:title=" ">
<path fill="none" stroke="#63b8ff" d="M376.22,-108.68C311.02,-98.39 210.03,-82.46 150.66,-73.1"/>
<polygon fill="#63b8ff" stroke="#63b8ff" points="375.95,-112.18 386.37,-110.28 377.04,-105.26 375.95,-112.18"/>
</a>
</g>
</g>
<!-- Node4 -->
<g id="Node000004" class="node">
<title>Node4</title>
<g id="a_Node000004"><a xlink:href="cpufreq-monitor-cpuinfo_8c.html" target="_top" xlink:title=" ">
<polygon fill="white" stroke="#666666" points="529,-19 386,-19 386,0 529,0 529,-19"/>
<text text-anchor="middle" x="457.5" y="-7" font-family="Helvetica,sans-Serif" font-size="10.00">cpufreq&#45;monitor&#45;cpuinfo.c</text>
</a>
</g>
</g>
<!-- Node3&#45;&gt;Node4 -->
<g id="edge3_Node000003_Node000004" class="edge">
<title>Node3&#45;&gt;Node4</title>
<g id="a_edge3_Node000003_Node000004"><a xlink:title=" ">
<path fill="none" stroke="#63b8ff" d="M445.05,-45.24C448.22,-36.37 451.89,-26.14 454.42,-19.09"/>
<polygon fill="#63b8ff" stroke="#63b8ff" points="441.72,-44.15 441.64,-54.75 448.31,-46.52 441.72,-44.15"/>
</a>
</g>
</g>
<!-- Node5 -->
<g id="Node000005" class="node">
<title>Node5</title>
<g id="a_Node000005"><a xlink:href="cpufreq-monitor-factory_8c.html" target="_top" xlink:title=" ">
<polygon fill="white" stroke="#666666" points="367.5,-19 227.5,-19 227.5,0 367.5,0 367.5,-19"/>
<text text-anchor="middle" x="297.5" y="-7" font-family="Helvetica,sans-Serif" font-size="10.00">cpufreq&#45;monitor&#45;factory.c</text>
</a>
</g>
</g>
<!-- Node3&#45;&gt;Node5 -->
<g id="edge4_Node000003_Node000005" class="edge">
<title>Node3&#45;&gt;Node5</title>
<g id="a_edge4_Node000003_Node000005"><a xlink:title=" ">
<path fill="none" stroke="#63b8ff" d="M406.36,-51.42C380.21,-41.59 343.91,-27.95 320.57,-19.17"/>
<polygon fill="#63b8ff" stroke="#63b8ff" points="405.25,-54.74 415.85,-54.98 407.72,-48.19 405.25,-54.74"/>
</a>
</g>
</g>
<!-- Node6&#45;&gt;Node2 -->
<g id="edge6_Node000006_Node000002" class="edge">
<title>Node6&#45;&gt;Node2</title>
<g id="a_edge6_Node000006_Node000002"><a xlink:title=" ">
<path fill="none" stroke="#63b8ff" d="M249.63,-50.77C228.23,-40.99 199.26,-27.75 180.48,-19.17"/>
<polygon fill="#63b8ff" stroke="#63b8ff" points="248.31,-54.01 258.86,-54.98 251.22,-47.65 248.31,-54.01"/>
</a>
</g>
</g>
<!-- Node6&#45;&gt;Node5 -->
<g id="edge7_Node000006_Node000005" class="edge">
<title>Node6&#45;&gt;Node5</title>
<g id="a_edge7_Node000006_Node000005"><a xlink:title=" ">
<path fill="none" stroke="#63b8ff" d="M284.39,-45.24C287.74,-36.37 291.6,-26.14 294.26,-19.09"/>
<polygon fill="#63b8ff" stroke="#63b8ff" points="281.06,-44.16 280.8,-54.75 287.61,-46.63 281.06,-44.16"/>
</a>
</g>
</g>
<!-- Node8 -->
<g id="Node000008" class="node">
<title>Node8</title>
<g id="a_Node000008"><a xlink:href="cpufreq-monitor-libcpufreq_8c.html" target="_top" xlink:title=" ">
<polygon fill="white" stroke="#666666" points="854.5,-19 698.5,-19 698.5,0 854.5,0 854.5,-19"/>
<text text-anchor="middle" x="776.5" y="-7" font-family="Helvetica,sans-Serif" font-size="10.00">cpufreq&#45;monitor&#45;libcpufreq.c</text>
</a>
</g>
</g>
<!-- Node7&#45;&gt;Node8 -->
<g id="edge9_Node000007_Node000008" class="edge">
<title>Node7&#45;&gt;Node8</title>
<g id="a_edge9_Node000007_Node000008"><a xlink:title=" ">
<path fill="none" stroke="#63b8ff" d="M765.45,-44.95C768.27,-36.15 771.51,-26.06 773.75,-19.09"/>
<polygon fill="#63b8ff" stroke="#63b8ff" points="762.03,-44.16 762.31,-54.75 768.69,-46.29 762.03,-44.16"/>
</a>
</g>
</g>
<!-- Node9&#45;&gt;Node5 -->
<g id="edge11_Node000009_Node000005" class="edge">
<title>Node9&#45;&gt;Node5</title>
<g id="a_edge11_Node000009_Node000005"><a xlink:title=" ">
<path fill="none" stroke="#63b8ff" d="M537.52,-53.19C481.65,-43.25 398.1,-28.39 345.75,-19.08"/>
<polygon fill="#63b8ff" stroke="#63b8ff" points="537.16,-56.68 547.62,-54.98 538.39,-49.79 537.16,-56.68"/>
</a>
</g>
</g>
<!-- Node10 -->
<g id="Node000010" class="node">
<title>Node10</title>
<g id="a_Node000010"><a xlink:href="cpufreq-monitor-sysfs_8c.html" target="_top" xlink:title=" ">
<polygon fill="white" stroke="#666666" points="680,-19 547,-19 547,0 680,0 680,-19"/>
<text text-anchor="middle" x="613.5" y="-7" font-family="Helvetica,sans-Serif" font-size="10.00">cpufreq&#45;monitor&#45;sysfs.c</text>
</a>
</g>
</g>
<!-- Node9&#45;&gt;Node10 -->
<g id="edge12_Node000009_Node000010" class="edge">
<title>Node9&#45;&gt;Node10</title>
<g id="a_edge12_Node000009_Node000010"><a xlink:title=" ">
<path fill="none" stroke="#63b8ff" d="M601.7,-45.24C604.71,-36.37 608.19,-26.14 610.58,-19.09"/>
<polygon fill="#63b8ff" stroke="#63b8ff" points="598.37,-44.15 598.47,-54.75 605,-46.4 598.37,-44.15"/>
</a>
</g>
</g>
<!-- Node12&#45;&gt;Node2 -->
<g id="edge15_Node000012_Node000002" class="edge">
<title>Node12&#45;&gt;Node2</title>
<g id="a_edge15_Node000012_Node000002"><a xlink:title=" ">
<path fill="none" stroke="#63b8ff" d="M119.7,-48.04C130.17,-38.64 143.15,-26.98 151.85,-19.17"/>
<polygon fill="#63b8ff" stroke="#63b8ff" points="117.08,-45.7 111.98,-54.98 121.76,-50.91 117.08,-45.7"/>
</a>
</g>
</g>
<!-- Node13 -->
<g id="Node000013" class="node">
<title>Node13</title>
<g id="a_Node000013"><a xlink:href="cpufreq-popup_8c.html" target="_top" xlink:title=" ">
<polygon fill="white" stroke="#666666" points="95,-19 0,-19 0,0 95,0 95,-19"/>
<text text-anchor="middle" x="47.5" y="-7" font-family="Helvetica,sans-Serif" font-size="10.00">cpufreq&#45;popup.c</text>
</a>
</g>
</g>
<!-- Node12&#45;&gt;Node13 -->
<g id="edge16_Node000012_Node000013" class="edge">
<title>Node12&#45;&gt;Node13</title>
<g id="a_edge16_Node000012_Node000013"><a xlink:title=" ">
<path fill="none" stroke="#63b8ff" d="M86.21,-47.8C76.46,-38.41 64.45,-26.83 56.41,-19.09"/>
<polygon fill="#63b8ff" stroke="#63b8ff" points="83.79,-50.33 93.42,-54.75 88.65,-45.29 83.79,-50.33"/>
</a>
</g>
</g>
</g>
</svg>
