<?xml version="1.0" encoding="UTF-8" standalone="no"?>
<!DOCTYPE svg PUBLIC "-//W3C//DTD SVG 1.1//EN"
 "http://www.w3.org/Graphics/SVG/1.1/DTD/svg11.dtd">
<!-- Generated by graphviz version 2.43.0 (0)
 -->
<!-- Title: cpufreq&#45;utils.c Pages: 1 -->
<svg width="737pt" height="137pt"
 viewBox="0.00 0.00 737.00 137.00" xmlns="http://www.w3.org/2000/svg" xmlns:xlink="http://www.w3.org/1999/xlink">
<g id="graph0" class="graph" transform="scale(1 1) rotate(0) translate(4 133)">
<title>cpufreq&#45;utils.c</title>
<!-- Node1 -->
<g id="Node000001" class="node">
<title>Node1</title>
<g id="a_Node000001"><a xlink:title=" ">
<polygon fill="#999999" stroke="#666666" points="391.5,-129 305.5,-129 305.5,-110 391.5,-110 391.5,-129"/>
<text text-anchor="middle" x="348.5" y="-117" font-family="Helvetica,sans-Serif" font-size="10.00">cpufreq&#45;utils.c</text>
</a>
</g>
</g>
<!-- Node2 -->
<g id="Node000002" class="node">
<title>Node2</title>
<g id="a_Node000002"><a xlink:title=" ">
<polygon fill="#e0e0e0" stroke="#999999" points="55,-74 0,-74 0,-55 55,-55 55,-74"/>
<text text-anchor="middle" x="27.5" y="-62" font-family="Helvetica,sans-Serif" font-size="10.00">config.h</text>
</a>
</g>
</g>
<!-- Node1&#45;&gt;Node2 -->
<g id="edge1_Node000001_Node000002" class="edge">
<title>Node1&#45;&gt;Node2</title>
<g id="a_edge1_Node000001_Node000002"><a xlink:title=" ">
<path fill="none" stroke="#63b8ff" d="M305.39,-112.19C250.49,-104.03 152.76,-89.06 69.5,-74 68.04,-73.74 66.54,-73.46 65.04,-73.18"/>
<polygon fill="#63b8ff" stroke="#63b8ff" points="65.51,-69.7 55.03,-71.24 64.18,-76.58 65.51,-69.7"/>
</a>
</g>
</g>
<!-- Node3 -->
<g id="Node000003" class="node">
<title>Node3</title>
<g id="a_Node000003"><a xlink:title=" ">
<polygon fill="#e0e0e0" stroke="#999999" points="406.5,-19 362.5,-19 362.5,0 406.5,0 406.5,-19"/>
<text text-anchor="middle" x="384.5" y="-7" font-family="Helvetica,sans-Serif" font-size="10.00">glib.h</text>
</a>
</g>
</g>
<!-- Node1&#45;&gt;Node3 -->
<g id="edge2_Node000001_Node000003" class="edge">
<title>Node1&#45;&gt;Node3</title>
<g id="a_edge2_Node000001_Node000003"><a xlink:title=" ">
<path fill="none" stroke="#63b8ff" d="M305.33,-117.11C241.79,-114.04 127.85,-104.35 102.5,-74 97.09,-67.52 97.01,-61.42 102.5,-55 134.3,-17.79 284.88,-11.51 352.04,-10.58"/>
<polygon fill="#63b8ff" stroke="#63b8ff" points="352.48,-14.08 362.44,-10.47 352.41,-7.08 352.48,-14.08"/>
</a>
</g>
</g>
<!-- Node4 -->
<g id="Node000004" class="node">
<title>Node4</title>
<g id="a_Node000004"><a xlink:title=" ">
<polygon fill="#e0e0e0" stroke="#999999" points="171.5,-74 111.5,-74 111.5,-55 171.5,-55 171.5,-74"/>
<text text-anchor="middle" x="141.5" y="-62" font-family="Helvetica,sans-Serif" font-size="10.00">gtk/gtk.h</text>
</a>
</g>
</g>
<!-- Node1&#45;&gt;Node4 -->
<g id="edge3_Node000001_Node000004" class="edge">
<title>Node1&#45;&gt;Node4</title>
<g id="a_edge3_Node000001_Node000004"><a xlink:title=" ">
<path fill="none" stroke="#63b8ff" d="M315.24,-109.98C278.84,-100.66 220.48,-85.72 181.58,-75.76"/>
<polygon fill="#63b8ff" stroke="#63b8ff" points="182.2,-72.31 171.65,-73.22 180.47,-79.09 182.2,-72.31"/>
</a>
</g>
</g>
<!-- Node5 -->
<g id="Node000005" class="node">
<title>Node5</title>
<g id="a_Node000005"><a xlink:title=" ">
<polygon fill="#e0e0e0" stroke="#999999" points="261.5,-74 189.5,-74 189.5,-55 261.5,-55 261.5,-74"/>
<text text-anchor="middle" x="225.5" y="-62" font-family="Helvetica,sans-Serif" font-size="10.00">sys/types.h</text>
</a>
</g>
</g>
<!-- Node1&#45;&gt;Node5 -->
<g id="edge4_Node000001_Node000005" class="edge">
<title>Node1&#45;&gt;Node5</title>
<g id="a_edge4_Node000001_Node000005"><a xlink:title=" ">
<path fill="none" stroke="#63b8ff" d="M328.74,-109.98C308.77,-101.38 277.7,-87.99 254.85,-78.15"/>
<polygon fill="#63b8ff" stroke="#63b8ff" points="256.19,-74.91 245.62,-74.17 253.42,-81.34 256.19,-74.91"/>
</a>
</g>
</g>
<!-- Node6 -->
<g id="Node000006" class="node">
<title>Node6</title>
<g id="a_Node000006"><a xlink:title=" ">
<polygon fill="#e0e0e0" stroke="#999999" points="343.5,-74 279.5,-74 279.5,-55 343.5,-55 343.5,-74"/>
<text text-anchor="middle" x="311.5" y="-62" font-family="Helvetica,sans-Serif" font-size="10.00">sys/stat.h</text>
</a>
</g>
</g>
<!-- Node1&#45;&gt;Node6 -->
<g id="edge5_Node000001_Node000006" class="edge">
<title>Node1&#45;&gt;Node6</title>
<g id="a_edge5_Node000001_Node000006"><a xlink:title=" ">
<path fill="none" stroke="#63b8ff" d="M342.39,-109.75C337.22,-102.34 329.65,-91.5 323.31,-82.41"/>
<polygon fill="#63b8ff" stroke="#63b8ff" points="326.09,-80.29 317.5,-74.09 320.35,-84.29 326.09,-80.29"/>
</a>
</g>
</g>
<!-- Node7 -->
<g id="Node000007" class="node">
<title>Node7</title>
<g id="a_Node000007"><a xlink:title=" ">
<polygon fill="#e0e0e0" stroke="#999999" points="409,-74 362,-74 362,-55 409,-55 409,-74"/>
<text text-anchor="middle" x="385.5" y="-62" font-family="Helvetica,sans-Serif" font-size="10.00">fcntl.h</text>
</a>
</g>
</g>
<!-- Node1&#45;&gt;Node7 -->
<g id="edge6_Node000001_Node000007" class="edge">
<title>Node1&#45;&gt;Node7</title>
<g id="a_edge6_Node000001_Node000007"><a xlink:title=" ">
<path fill="none" stroke="#63b8ff" d="M354.61,-109.75C359.78,-102.34 367.35,-91.5 373.69,-82.41"/>
<polygon fill="#63b8ff" stroke="#63b8ff" points="376.65,-84.29 379.5,-74.09 370.91,-80.29 376.65,-84.29"/>
</a>
</g>
</g>
<!-- Node8 -->
<g id="Node000008" class="node">
<title>Node8</title>
<g id="a_Node000008"><a xlink:title=" ">
<polygon fill="#e0e0e0" stroke="#999999" points="483.5,-74 427.5,-74 427.5,-55 483.5,-55 483.5,-74"/>
<text text-anchor="middle" x="455.5" y="-62" font-family="Helvetica,sans-Serif" font-size="10.00">unistd.h</text>
</a>
</g>
</g>
<!-- Node1&#45;&gt;Node8 -->
<g id="edge7_Node000001_Node000008" class="edge">
<title>Node1&#45;&gt;Node8</title>
<g id="a_edge7_Node000001_Node000008"><a xlink:title=" ">
<path fill="none" stroke="#63b8ff" d="M365.69,-109.98C382.75,-101.54 409.13,-88.47 428.9,-78.68"/>
<polygon fill="#63b8ff" stroke="#63b8ff" points="430.59,-81.75 438,-74.17 427.48,-75.47 430.59,-81.75"/>
</a>
</g>
</g>
<!-- Node9 -->
<g id="Node000009" class="node">
<title>Node9</title>
<g id="a_Node000009"><a xlink:title=" ">
<polygon fill="#e0e0e0" stroke="#999999" points="555,-74 502,-74 502,-55 555,-55 555,-74"/>
<text text-anchor="middle" x="528.5" y="-62" font-family="Helvetica,sans-Serif" font-size="10.00">string.h</text>
</a>
</g>
</g>
<!-- Node1&#45;&gt;Node9 -->
<g id="edge8_Node000001_Node000009" class="edge">
<title>Node1&#45;&gt;Node9</title>
<g id="a_edge8_Node000001_Node000009"><a xlink:title=" ">
<path fill="none" stroke="#63b8ff" d="M377.42,-109.98C408.58,-100.81 458.24,-86.19 492.05,-76.23"/>
<polygon fill="#63b8ff" stroke="#63b8ff" points="493.39,-79.49 502,-73.3 491.42,-72.77 493.39,-79.49"/>
</a>
</g>
</g>
<!-- Node10 -->
<g id="Node000010" class="node">
<title>Node10</title>
<g id="a_Node000010"><a xlink:title=" ">
<polygon fill="#e0e0e0" stroke="#999999" points="624,-74 573,-74 573,-55 624,-55 624,-74"/>
<text text-anchor="middle" x="598.5" y="-62" font-family="Helvetica,sans-Serif" font-size="10.00">errno.h</text>
</a>
</g>
</g>
<!-- Node1&#45;&gt;Node10 -->
<g id="edge9_Node000001_Node000010" class="edge">
<title>Node1&#45;&gt;Node10</title>
<g id="a_edge9_Node000001_Node000010"><a xlink:title=" ">
<path fill="none" stroke="#63b8ff" d="M391.65,-110.16C433.2,-102.01 498.05,-88.96 562.92,-74.29"/>
<polygon fill="#63b8ff" stroke="#63b8ff" points="563.93,-77.65 572.91,-72.02 562.38,-70.83 563.93,-77.65"/>
</a>
</g>
</g>
<!-- Node11 -->
<g id="Node000011" class="node">
<title>Node11</title>
<g id="a_Node000011"><a xlink:href="cpufreq-utils_8h.html" target="_top" xlink:title=" ">
<polygon fill="white" stroke="#666666" points="729,-74 642,-74 642,-55 729,-55 729,-74"/>
<text text-anchor="middle" x="685.5" y="-62" font-family="Helvetica,sans-Serif" font-size="10.00">cpufreq&#45;utils.h</text>
</a>
</g>
</g>
<!-- Node1&#45;&gt;Node11 -->
<g id="edge10_Node000001_Node000011" class="edge">
<title>Node1&#45;&gt;Node11</title>
<g id="a_edge10_Node000001_Node000011"><a xlink:title=" ">
<path fill="none" stroke="#63b8ff" d="M391.97,-111.81C445.91,-103.49 540.97,-88.75 631.89,-74.25"/>
<polygon fill="#63b8ff" stroke="#63b8ff" points="632.49,-77.7 641.81,-72.66 631.38,-70.79 632.49,-77.7"/>
</a>
</g>
</g>
<!-- Node11&#45;&gt;Node3 -->
<g id="edge11_Node000011_Node000003" class="edge">
<title>Node11&#45;&gt;Node3</title>
<g id="a_edge11_Node000011_Node000003"><a xlink:title=" ">
<path fill="none" stroke="#63b8ff" d="M641.73,-55.79C580.59,-45.03 471.02,-25.73 416.76,-16.18"/>
<polygon fill="#63b8ff" stroke="#63b8ff" points="417.13,-12.69 406.68,-14.41 415.92,-19.59 417.13,-12.69"/>
</a>
</g>
</g>
</g>
</svg>
