<?xml version="1.0" encoding="UTF-8" standalone="no"?>
<!DOCTYPE svg PUBLIC "-//W3C//DTD SVG 1.1//EN"
 "http://www.w3.org/Graphics/SVG/1.1/DTD/svg11.dtd">
<!-- Generated by graphviz version 2.43.0 (0)
 -->
<!-- Title: daemon.h Pages: 1 -->
<svg width="316pt" height="82pt"
 viewBox="0.00 0.00 315.50 82.00" xmlns="http://www.w3.org/2000/svg" xmlns:xlink="http://www.w3.org/1999/xlink">
<g id="graph0" class="graph" transform="scale(1 1) rotate(0) translate(4 78)">
<title>daemon.h</title>
<!-- Node1 -->
<g id="Node000001" class="node">
<title>Node1</title>
<g id="a_Node000001"><a xlink:title=" ">
<polygon fill="#999999" stroke="#666666" points="176.5,-74 111.5,-74 111.5,-55 176.5,-55 176.5,-74"/>
<text text-anchor="middle" x="144" y="-62" font-family="Helvetica,sans-Serif" font-size="10.00">daemon.h</text>
</a>
</g>
</g>
<!-- Node2 -->
<g id="Node000002" class="node">
<title>Node2</title>
<g id="a_Node000002"><a xlink:title=" ">
<polygon fill="#e0e0e0" stroke="#999999" points="44,-19 0,-19 0,0 44,0 44,-19"/>
<text text-anchor="middle" x="22" y="-7" font-family="Helvetica,sans-Serif" font-size="10.00">glib.h</text>
</a>
</g>
</g>
<!-- Node1&#45;&gt;Node2 -->
<g id="edge1_Node000001_Node000002" class="edge">
<title>Node1&#45;&gt;Node2</title>
<g id="a_edge1_Node000001_Node000002"><a xlink:title=" ">
<path fill="none" stroke="#63b8ff" d="M124.4,-54.98C104.68,-46.42 74.05,-33.11 51.42,-23.28"/>
<polygon fill="#63b8ff" stroke="#63b8ff" points="52.52,-19.94 41.96,-19.17 49.74,-26.37 52.52,-19.94"/>
</a>
</g>
</g>
<!-- Node3 -->
<g id="Node000003" class="node">
<title>Node3</title>
<g id="a_Node000003"><a xlink:title=" ">
<polygon fill="#e0e0e0" stroke="#999999" points="139.5,-19 62.5,-19 62.5,0 139.5,0 139.5,-19"/>
<text text-anchor="middle" x="101" y="-7" font-family="Helvetica,sans-Serif" font-size="10.00">glib&#45;object.h</text>
</a>
</g>
</g>
<!-- Node1&#45;&gt;Node3 -->
<g id="edge2_Node000001_Node000003" class="edge">
<title>Node1&#45;&gt;Node3</title>
<g id="a_edge2_Node000001_Node000003"><a xlink:title=" ">
<path fill="none" stroke="#63b8ff" d="M136.9,-54.75C130.83,-47.26 121.91,-36.28 114.49,-27.13"/>
<polygon fill="#63b8ff" stroke="#63b8ff" points="116.99,-24.65 107.97,-19.09 111.55,-29.06 116.99,-24.65"/>
</a>
</g>
</g>
<!-- Node4 -->
<g id="Node000004" class="node">
<title>Node4</title>
<g id="a_Node000004"><a xlink:title=" ">
<polygon fill="#e0e0e0" stroke="#999999" points="216.5,-19 157.5,-19 157.5,0 216.5,0 216.5,-19"/>
<text text-anchor="middle" x="187" y="-7" font-family="Helvetica,sans-Serif" font-size="10.00">gio/gio.h</text>
</a>
</g>
</g>
<!-- Node1&#45;&gt;Node4 -->
<g id="edge3_Node000001_Node000004" class="edge">
<title>Node1&#45;&gt;Node4</title>
<g id="a_edge3_Node000001_Node000004"><a xlink:title=" ">
<path fill="none" stroke="#63b8ff" d="M151.1,-54.75C157.17,-47.26 166.09,-36.28 173.51,-27.13"/>
<polygon fill="#63b8ff" stroke="#63b8ff" points="176.45,-29.06 180.03,-19.09 171.01,-24.65 176.45,-29.06"/>
</a>
</g>
</g>
<!-- Node5 -->
<g id="Node000005" class="node">
<title>Node5</title>
<g id="a_Node000005"><a xlink:href="constants_8h.html" target="_top" xlink:title=" ">
<polygon fill="white" stroke="#666666" points="307.5,-19 234.5,-19 234.5,0 307.5,0 307.5,-19"/>
<text text-anchor="middle" x="271" y="-7" font-family="Helvetica,sans-Serif" font-size="10.00">constants.h</text>
</a>
</g>
</g>
<!-- Node1&#45;&gt;Node5 -->
<g id="edge4_Node000001_Node000005" class="edge">
<title>Node1&#45;&gt;Node5</title>
<g id="a_edge4_Node000001_Node000005"><a xlink:title=" ">
<path fill="none" stroke="#63b8ff" d="M164.4,-54.98C185.02,-46.38 217.11,-32.99 240.69,-23.15"/>
<polygon fill="#63b8ff" stroke="#63b8ff" points="242.34,-26.25 250.22,-19.17 239.65,-19.79 242.34,-26.25"/>
</a>
</g>
</g>
</g>
</svg>
