<?xml version="1.0" encoding="UTF-8" standalone="no"?>
<!DOCTYPE svg PUBLIC "-//W3C//DTD SVG 1.1//EN"
 "http://www.w3.org/Graphics/SVG/1.1/DTD/svg11.dtd">
<!-- Generated by graphviz version 2.43.0 (0)
 -->
<!-- Title: atril Pages: 1 -->
<svg width="564pt" height="204pt"
 viewBox="0.00 0.00 564.00 204.00" xmlns="http://www.w3.org/2000/svg" xmlns:xlink="http://www.w3.org/1999/xlink">
<g id="graph0" class="graph" transform="scale(1 1) rotate(0) translate(4 200)">
<title>atril</title>
<g id="clust1" class="cluster">
<title>clusterdir_93284278fdeadbeb350f561deaf2cbee</title>
<g id="a_clust1"><a xlink:href="dir_93284278fdeadbeb350f561deaf2cbee.html" target="_top" xlink:title="mate&#45;src">
<polygon fill="#edf0f7" stroke="#404040" stroke-dasharray="5,2" points="8,-8 8,-188 548,-188 548,-8 8,-8"/>
<text text-anchor="middle" x="278" y="-176" font-family="Helvetica,sans-Serif" font-size="10.00">mate&#45;src</text>
</a>
</g>
</g>
<g id="clust2" class="cluster">
<title>clusterdir_0a47bd7784c8c8787a5d6f5b4f36c180</title>
<g id="a_clust2"><a xlink:href="dir_0a47bd7784c8c8787a5d6f5b4f36c180.html" target="_top">
<polygon fill="#edf0f7" stroke="#404040" stroke-width="2" points="16,-16 16,-161 444,-161 444,-16 16,-16"/>
</a>
</g>
</g>
<!-- dir_5000e5bb8bbaa43d122d4f220de37ccb -->
<g id="node1" class="node">
<title>dir_5000e5bb8bbaa43d122d4f220de37ccb</title>
<g id="a_node1"><a xlink:href="dir_5000e5bb8bbaa43d122d4f220de37ccb.html" target="_top" xlink:title="caja">
<polygon fill="#a2b4d6" stroke="red" points="489.5,-43 452.5,-43 452.5,-24 489.5,-24 489.5,-43"/>
<text text-anchor="middle" x="471" y="-31" font-family="Helvetica,sans-Serif" font-size="10.00">caja</text>
</a>
</g>
</g>
<!-- dir_30cc10f05752a69cba1471ea998c8591 -->
<g id="node2" class="node">
<title>dir_30cc10f05752a69cba1471ea998c8591</title>
<g id="a_node2"><a xlink:href="dir_30cc10f05752a69cba1471ea998c8591.html" target="_top" xlink:title="mate&#45;desktop">
<polygon fill="#a2b4d6" stroke="red" points="539.5,-98 454.5,-98 454.5,-79 539.5,-79 539.5,-98"/>
<text text-anchor="middle" x="497" y="-86" font-family="Helvetica,sans-Serif" font-size="10.00">mate&#45;desktop</text>
</a>
</g>
</g>
<!-- dir_0a47bd7784c8c8787a5d6f5b4f36c180 -->
<g id="node3" class="node">
<title>dir_0a47bd7784c8c8787a5d6f5b4f36c180</title>
<text text-anchor="middle" x="141" y="-141" font-family="Helvetica,sans-Serif" font-size="10.00">atril</text>
</g>
<!-- dir_71af72ee096986ed993ebd95c2dcc378 -->
<g id="node6" class="node">
<title>dir_71af72ee096986ed993ebd95c2dcc378</title>
<g id="a_node6"><a xlink:href="dir_71af72ee096986ed993ebd95c2dcc378.html" target="_top" xlink:title="libdocument">
<polygon fill="#a2b4d6" stroke="#404040" points="161.5,-43 84.5,-43 84.5,-24 161.5,-24 161.5,-43"/>
<text text-anchor="middle" x="123" y="-31" font-family="Helvetica,sans-Serif" font-size="10.00">libdocument</text>
</a>
</g>
</g>
<!-- dir_0a47bd7784c8c8787a5d6f5b4f36c180&#45;&gt;dir_71af72ee096986ed993ebd95c2dcc378 -->
<g id="edge2" class="edge">
<title>dir_0a47bd7784c8c8787a5d6f5b4f36c180&#45;&gt;dir_71af72ee096986ed993ebd95c2dcc378</title>
<g id="a_edge2"><a xlink:href="dir_000013_000097.html" target="_top">
<path fill="none" stroke="#63b8ff" d="M132.79,-133.8C125.46,-125.38 115.25,-111.9 111,-98 106.44,-83.08 110.38,-65.63 114.92,-52.8"/>
<polygon fill="#63b8ff" stroke="#63b8ff" points="118.27,-53.86 118.71,-43.27 111.76,-51.27 118.27,-53.86"/>
</a>
</g>
<g id="a_edge2&#45;headlabel"><a xlink:href="dir_000013_000097.html" target="_top" xlink:title="167">
<text text-anchor="middle" x="119.58" y="-55.75" font-family="Helvetica,sans-Serif" font-size="10.00" fill="#63b8ff">167</text>
</a>
</g>
</g>
<!-- dir_108bb3ae5b09fe9911310c66487aca8e -->
<g id="node8" class="node">
<title>dir_108bb3ae5b09fe9911310c66487aca8e</title>
<g id="a_node8"><a xlink:href="dir_108bb3ae5b09fe9911310c66487aca8e.html" target="_top" xlink:title="libview">
<polygon fill="#a2b4d6" stroke="#404040" points="172,-98 120,-98 120,-79 172,-79 172,-98"/>
<text text-anchor="middle" x="146" y="-86" font-family="Helvetica,sans-Serif" font-size="10.00">libview</text>
</a>
</g>
</g>
<!-- dir_0a47bd7784c8c8787a5d6f5b4f36c180&#45;&gt;dir_108bb3ae5b09fe9911310c66487aca8e -->
<g id="edge1" class="edge">
<title>dir_0a47bd7784c8c8787a5d6f5b4f36c180&#45;&gt;dir_108bb3ae5b09fe9911310c66487aca8e</title>
<g id="a_edge1"><a xlink:href="dir_000013_000116.html" target="_top">
<path fill="none" stroke="#63b8ff" d="M141.83,-133.75C142.48,-126.8 143.42,-116.85 144.24,-108.13"/>
<polygon fill="#63b8ff" stroke="#63b8ff" points="147.73,-108.37 145.19,-98.09 140.77,-107.72 147.73,-108.37"/>
</a>
</g>
<g id="a_edge1&#45;headlabel"><a xlink:href="dir_000013_000116.html" target="_top" xlink:title="31">
<text text-anchor="middle" x="150.22" y="-109.72" font-family="Helvetica,sans-Serif" font-size="10.00" fill="#63b8ff">31</text>
</a>
</g>
</g>
<!-- dir_3782669c4a6d306b875677b8e38d33d2 -->
<g id="node4" class="node">
<title>dir_3782669c4a6d306b875677b8e38d33d2</title>
<g id="a_node4"><a xlink:href="dir_3782669c4a6d306b875677b8e38d33d2.html" target="_top" xlink:title="backend">
<polygon fill="#a2b4d6" stroke="#404040" points="81.5,-98 24.5,-98 24.5,-79 81.5,-79 81.5,-98"/>
<text text-anchor="middle" x="53" y="-86" font-family="Helvetica,sans-Serif" font-size="10.00">backend</text>
</a>
</g>
</g>
<!-- dir_3782669c4a6d306b875677b8e38d33d2&#45;&gt;dir_71af72ee096986ed993ebd95c2dcc378 -->
<g id="edge3" class="edge">
<title>dir_3782669c4a6d306b875677b8e38d33d2&#45;&gt;dir_71af72ee096986ed993ebd95c2dcc378</title>
<g id="a_edge3"><a xlink:href="dir_000015_000097.html" target="_top">
<path fill="none" stroke="#63b8ff" d="M64.25,-78.98C74.8,-71 90.8,-58.88 103.44,-49.31"/>
<polygon fill="#63b8ff" stroke="#63b8ff" points="105.69,-52 111.55,-43.17 101.46,-46.42 105.69,-52"/>
</a>
</g>
<g id="a_edge3&#45;headlabel"><a xlink:href="dir_000015_000097.html" target="_top" xlink:title="48">
<text text-anchor="middle" x="104.54" y="-53.93" font-family="Helvetica,sans-Serif" font-size="10.00" fill="#63b8ff">48</text>
</a>
</g>
</g>
<!-- dir_2422d57c2733a046085bd228d8da51e5 -->
<g id="node5" class="node">
<title>dir_2422d57c2733a046085bd228d8da51e5</title>
<g id="a_node5"><a xlink:href="dir_2422d57c2733a046085bd228d8da51e5.html" target="_top" xlink:title="cut&#45;n&#45;paste">
<polygon fill="#a2b4d6" stroke="#404040" points="436,-98 364,-98 364,-79 436,-79 436,-98"/>
<text text-anchor="middle" x="400" y="-86" font-family="Helvetica,sans-Serif" font-size="10.00">cut&#45;n&#45;paste</text>
</a>
</g>
</g>
<!-- dir_a18d17c724385495b5734fd1ccd6f976 -->
<g id="node7" class="node">
<title>dir_a18d17c724385495b5734fd1ccd6f976</title>
<g id="a_node7"><a xlink:href="dir_a18d17c724385495b5734fd1ccd6f976.html" target="_top" xlink:title="libmisc">
<polygon fill="#a2b4d6" stroke="#404040" points="242,-98 190,-98 190,-79 242,-79 242,-98"/>
<text text-anchor="middle" x="216" y="-86" font-family="Helvetica,sans-Serif" font-size="10.00">libmisc</text>
</a>
</g>
</g>
<!-- dir_108bb3ae5b09fe9911310c66487aca8e&#45;&gt;dir_71af72ee096986ed993ebd95c2dcc378 -->
<g id="edge4" class="edge">
<title>dir_108bb3ae5b09fe9911310c66487aca8e&#45;&gt;dir_71af72ee096986ed993ebd95c2dcc378</title>
<g id="a_edge4"><a xlink:href="dir_000116_000097.html" target="_top">
<path fill="none" stroke="#63b8ff" d="M142.2,-78.75C139.09,-71.57 134.58,-61.18 130.71,-52.27"/>
<polygon fill="#63b8ff" stroke="#63b8ff" points="133.92,-50.87 126.73,-43.09 127.5,-53.66 133.92,-50.87"/>
</a>
</g>
<g id="a_edge4&#45;headlabel"><a xlink:href="dir_000116_000097.html" target="_top" xlink:title="43">
<text text-anchor="middle" x="137.95" y="-50.54" font-family="Helvetica,sans-Serif" font-size="10.00" fill="#63b8ff">43</text>
</a>
</g>
</g>
<!-- dir_0a1f4690fc876f5c0063e4ddd076a1d4 -->
<g id="node9" class="node">
<title>dir_0a1f4690fc876f5c0063e4ddd076a1d4</title>
<g id="a_node9"><a xlink:href="dir_0a1f4690fc876f5c0063e4ddd076a1d4.html" target="_top" xlink:title="previewer">
<polygon fill="#a2b4d6" stroke="#404040" points="248.5,-153 183.5,-153 183.5,-134 248.5,-134 248.5,-153"/>
<text text-anchor="middle" x="216" y="-141" font-family="Helvetica,sans-Serif" font-size="10.00">previewer</text>
</a>
</g>
</g>
<!-- dir_0a1f4690fc876f5c0063e4ddd076a1d4&#45;&gt;dir_a18d17c724385495b5734fd1ccd6f976 -->
<g id="edge5" class="edge">
<title>dir_0a1f4690fc876f5c0063e4ddd076a1d4&#45;&gt;dir_a18d17c724385495b5734fd1ccd6f976</title>
<g id="a_edge5"><a xlink:href="dir_000189_000112.html" target="_top">
<path fill="none" stroke="#63b8ff" d="M216,-133.75C216,-126.8 216,-116.85 216,-108.13"/>
<polygon fill="#63b8ff" stroke="#63b8ff" points="219.5,-108.09 216,-98.09 212.5,-108.09 219.5,-108.09"/>
</a>
</g>
<g id="a_edge5&#45;headlabel"><a xlink:href="dir_000189_000112.html" target="_top" xlink:title="1">
<text text-anchor="middle" x="222.34" y="-109.18" font-family="Helvetica,sans-Serif" font-size="10.00" fill="#63b8ff">1</text>
</a>
</g>
</g>
<!-- dir_167cba6665efaa58019f9b0d2381ef2d -->
<g id="node10" class="node">
<title>dir_167cba6665efaa58019f9b0d2381ef2d</title>
<g id="a_node10"><a xlink:href="dir_167cba6665efaa58019f9b0d2381ef2d.html" target="_top" xlink:title="properties">
<polygon fill="#a2b4d6" stroke="#404040" points="346,-98 280,-98 280,-79 346,-79 346,-98"/>
<text text-anchor="middle" x="313" y="-86" font-family="Helvetica,sans-Serif" font-size="10.00">properties</text>
</a>
</g>
</g>
<!-- dir_167cba6665efaa58019f9b0d2381ef2d&#45;&gt;dir_5000e5bb8bbaa43d122d4f220de37ccb -->
<g id="edge6" class="edge">
<title>dir_167cba6665efaa58019f9b0d2381ef2d&#45;&gt;dir_5000e5bb8bbaa43d122d4f220de37ccb</title>
<g id="a_edge6"><a xlink:href="dir_000190_000023.html" target="_top">
<path fill="none" stroke="#63b8ff" d="M339.73,-79C364.91,-70.92 403.9,-58.25 442.61,-44.84"/>
<polygon fill="#63b8ff" stroke="#63b8ff" points="444.15,-48.02 452.44,-41.42 441.85,-41.41 444.15,-48.02"/>
</a>
</g>
<g id="a_edge6&#45;headlabel"><a xlink:href="dir_000190_000023.html" target="_top" xlink:title="2">
<text text-anchor="middle" x="441.69" y="-49.38" font-family="Helvetica,sans-Serif" font-size="10.00" fill="#63b8ff">2</text>
</a>
</g>
</g>
<!-- dir_c6ff7b6c42f683709a15b59d47c1c992 -->
<g id="node11" class="node">
<title>dir_c6ff7b6c42f683709a15b59d47c1c992</title>
<g id="a_node11"><a xlink:href="dir_c6ff7b6c42f683709a15b59d47c1c992.html" target="_top" xlink:title="shell">
<polygon fill="#a2b4d6" stroke="#404040" points="320,-153 280,-153 280,-134 320,-134 320,-153"/>
<text text-anchor="middle" x="300" y="-141" font-family="Helvetica,sans-Serif" font-size="10.00">shell</text>
</a>
</g>
</g>
<!-- dir_c6ff7b6c42f683709a15b59d47c1c992&#45;&gt;dir_30cc10f05752a69cba1471ea998c8591 -->
<g id="edge10" class="edge">
<title>dir_c6ff7b6c42f683709a15b59d47c1c992&#45;&gt;dir_30cc10f05752a69cba1471ea998c8591</title>
<g id="a_edge10"><a xlink:href="dir_000202_000123.html" target="_top">
<path fill="none" stroke="#63b8ff" d="M320.34,-137.03C352.04,-128.5 413.87,-111.87 455.31,-100.72"/>
<polygon fill="#63b8ff" stroke="#63b8ff" points="456.37,-104.06 465.12,-98.08 454.55,-97.3 456.37,-104.06"/>
</a>
</g>
<g id="a_edge10&#45;headlabel"><a xlink:href="dir_000202_000123.html" target="_top" xlink:title="3">
<text text-anchor="middle" x="453.64" y="-105.23" font-family="Helvetica,sans-Serif" font-size="10.00" fill="#63b8ff">3</text>
</a>
</g>
</g>
<!-- dir_c6ff7b6c42f683709a15b59d47c1c992&#45;&gt;dir_2422d57c2733a046085bd228d8da51e5 -->
<g id="edge9" class="edge">
<title>dir_c6ff7b6c42f683709a15b59d47c1c992&#45;&gt;dir_2422d57c2733a046085bd228d8da51e5</title>
<g id="a_edge9"><a xlink:href="dir_000202_000046.html" target="_top">
<path fill="none" stroke="#63b8ff" d="M316.07,-133.98C331.86,-125.61 356.22,-112.7 374.63,-102.95"/>
<polygon fill="#63b8ff" stroke="#63b8ff" points="376.44,-105.95 383.64,-98.17 373.17,-99.76 376.44,-105.95"/>
</a>
</g>
<g id="a_edge9&#45;headlabel"><a xlink:href="dir_000202_000046.html" target="_top" xlink:title="2">
<text text-anchor="middle" x="374.6" y="-107.64" font-family="Helvetica,sans-Serif" font-size="10.00" fill="#63b8ff">2</text>
</a>
</g>
</g>
<!-- dir_c6ff7b6c42f683709a15b59d47c1c992&#45;&gt;dir_71af72ee096986ed993ebd95c2dcc378 -->
<g id="edge11" class="edge">
<title>dir_c6ff7b6c42f683709a15b59d47c1c992&#45;&gt;dir_71af72ee096986ed993ebd95c2dcc378</title>
<g id="a_edge11"><a xlink:href="dir_000202_000097.html" target="_top">
<path fill="none" stroke="#63b8ff" d="M294.05,-133.56C283.53,-117.96 261.74,-86.73 251,-79 236.79,-68.77 195.81,-55.38 164.01,-45.98"/>
<polygon fill="#63b8ff" stroke="#63b8ff" points="164.63,-42.51 154.05,-43.07 162.67,-49.23 164.63,-42.51"/>
</a>
</g>
<g id="a_edge11&#45;headlabel"><a xlink:href="dir_000202_000097.html" target="_top" xlink:title="42">
<text text-anchor="middle" x="168.88" y="-38.29" font-family="Helvetica,sans-Serif" font-size="10.00" fill="#63b8ff">42</text>
</a>
</g>
</g>
<!-- dir_c6ff7b6c42f683709a15b59d47c1c992&#45;&gt;dir_a18d17c724385495b5734fd1ccd6f976 -->
<g id="edge12" class="edge">
<title>dir_c6ff7b6c42f683709a15b59d47c1c992&#45;&gt;dir_a18d17c724385495b5734fd1ccd6f976</title>
<g id="a_edge12"><a xlink:href="dir_000202_000112.html" target="_top">
<path fill="none" stroke="#63b8ff" d="M286.5,-133.98C273.6,-125.84 253.9,-113.41 238.6,-103.76"/>
<polygon fill="#63b8ff" stroke="#63b8ff" points="240.07,-100.55 229.74,-98.17 236.33,-106.47 240.07,-100.55"/>
</a>
</g>
<g id="a_edge12&#45;headlabel"><a xlink:href="dir_000202_000112.html" target="_top" xlink:title="1">
<text text-anchor="middle" x="244.62" y="-97.56" font-family="Helvetica,sans-Serif" font-size="10.00" fill="#63b8ff">1</text>
</a>
</g>
</g>
<!-- dir_c6ff7b6c42f683709a15b59d47c1c992&#45;&gt;dir_108bb3ae5b09fe9911310c66487aca8e -->
<g id="edge7" class="edge">
<title>dir_c6ff7b6c42f683709a15b59d47c1c992&#45;&gt;dir_108bb3ae5b09fe9911310c66487aca8e</title>
<g id="a_edge7"><a xlink:href="dir_000202_000116.html" target="_top">
<path fill="none" stroke="#63b8ff" d="M279.87,-135.57C254.67,-126.9 211.11,-111.91 180.55,-101.39"/>
<polygon fill="#63b8ff" stroke="#63b8ff" points="181.32,-97.95 170.72,-98.01 179.04,-104.57 181.32,-97.95"/>
</a>
</g>
<g id="a_edge7&#45;headlabel"><a xlink:href="dir_000202_000116.html" target="_top" xlink:title="24">
<text text-anchor="middle" x="185.64" y="-93.94" font-family="Helvetica,sans-Serif" font-size="10.00" fill="#63b8ff">24</text>
</a>
</g>
</g>
<!-- dir_c6ff7b6c42f683709a15b59d47c1c992&#45;&gt;dir_167cba6665efaa58019f9b0d2381ef2d -->
<g id="edge8" class="edge">
<title>dir_c6ff7b6c42f683709a15b59d47c1c992&#45;&gt;dir_167cba6665efaa58019f9b0d2381ef2d</title>
<g id="a_edge8"><a xlink:href="dir_000202_000190.html" target="_top">
<path fill="none" stroke="#63b8ff" d="M302.15,-133.75C303.87,-126.72 306.35,-116.62 308.5,-107.84"/>
<polygon fill="#63b8ff" stroke="#63b8ff" points="311.91,-108.63 310.89,-98.09 305.11,-106.97 311.91,-108.63"/>
</a>
</g>
<g id="a_edge8&#45;headlabel"><a xlink:href="dir_000202_000190.html" target="_top" xlink:title="1">
<text text-anchor="middle" x="313.81" y="-110.3" font-family="Helvetica,sans-Serif" font-size="10.00" fill="#63b8ff">1</text>
</a>
</g>
</g>
<!-- dir_2a126e3273cad01c565fe6c6d51b600a -->
<g id="node12" class="node">
<title>dir_2a126e3273cad01c565fe6c6d51b600a</title>
<g id="a_node12"><a xlink:href="dir_2a126e3273cad01c565fe6c6d51b600a.html" target="_top" xlink:title="thumbnailer">
<polygon fill="#a2b4d6" stroke="#404040" points="103,-153 27,-153 27,-134 103,-134 103,-153"/>
<text text-anchor="middle" x="65" y="-141" font-family="Helvetica,sans-Serif" font-size="10.00">thumbnailer</text>
</a>
</g>
</g>
</g>
</svg>
