<?xml version="1.0" encoding="UTF-8" standalone="no"?>
<!DOCTYPE svg PUBLIC "-//W3C//DTD SVG 1.1//EN"
 "http://www.w3.org/Graphics/SVG/1.1/DTD/svg11.dtd">
<!-- Generated by graphviz version 2.43.0 (0)
 -->
<!-- Title: capplets Pages: 1 -->
<!--zoomable 182 -->

<svg id="main" version="1.1" xmlns="http://www.w3.org/2000/svg" xmlns:xlink="http://www.w3.org/1999/xlink" xml:space="preserve" onload="init(evt)">
<style type="text/css"><![CDATA[
.node, .edge {opacity: 0.7;}
.node.selected, .edge.selected {opacity: 1;}
.edge:hover path { stroke: red; }
.edge:hover polygon { stroke: red; fill: red; }
]]></style>

<defs>
  <circle id="rim" cx="0" cy="0" r="7"/>
  <circle id="rim2" cx="0" cy="0" r="3.5"/>
  <g id="zoomPlus">
    <use xlink:href="#rim" fill="#404040"><set attributeName="fill" to="#808080" begin="zoomplus.mouseover" end="zoomplus.mouseout"/></use>
    <path d="M-4,0h8M0,-4v8" fill="none" stroke="white" stroke-width="1.5" pointer-events="none"/>
  </g>
  <g id="zoomMin">
    <use xlink:href="#rim" fill="#404040"><set attributeName="fill" to="#808080" begin="zoomminus.mouseover" end="zoomminus.mouseout"/></use>
    <path d="M-4,0h8" fill="none" stroke="white" stroke-width="1.5" pointer-events="none"/>
  </g>
  <g id="arrowUp" transform="translate(30 24)">
    <use xlink:href="#rim"/>
    <path pointer-events="none" fill="none" stroke="white" stroke-width="1.5" d="M0,-3.0v7 M-2.5,-0.5L0,-3.0L2.5,-0.5"/>
  </g>
  <g id="arrowRight" transform="rotate(90) translate(36 -43)">
    <use xlink:href="#rim"/>
    <path pointer-events="none" fill="none" stroke="white" stroke-width="1.5" d="M0,-3.0v7 M-2.5,-0.5L0,-3.0L2.5,-0.5"/>
  </g>
  <g id="arrowDown" transform="rotate(180) translate(-30 -48)">
    <use xlink:href="#rim"/>
    <path pointer-events="none" fill="none" stroke="white" stroke-width="1.5" d="M0,-3.0v7 M-2.5,-0.5L0,-3.0L2.5,-0.5"/>
  </g>
  <g id="arrowLeft" transform="rotate(270) translate(-36 17)">
    <use xlink:href="#rim"/>
    <path pointer-events="none" fill="none" stroke="white" stroke-width="1.5" d="M0,-3.0v7 M-2.5,-0.5L0,-3.0L2.5,-0.5"/>
  </g>
  <g id="resetDef">
    <use xlink:href="#rim2" fill="#404040"><set attributeName="fill" to="#808080" begin="reset.mouseover" end="reset.mouseout"/></use>
  </g>
</defs>
<script type="application/ecmascript">
var viewWidth = 1252;
var viewHeight = 182;
var sectionId = 'dynsection-0';
</script>
<script type="application/ecmascript" xlink:href="svg.min.js"/>
<svg id="graph" class="graph">
<g id="viewport">
<title>capplets</title>
<g id="clust1" class="cluster">
<title>clusterdir_c29b8e82fd51b25ea499a90bfd1a0a10</title>
<g id="a_clust1"><a xlink:href="dir_c29b8e82fd51b25ea499a90bfd1a0a10.html" target="_top" xlink:title="mate&#45;control&#45;center">
<polygon fill="#edf0f7" stroke="#7f7f7f" stroke-dasharray="5,2" points="8,-41.06 8,-166.06 1147,-166.06 1147,-41.06 8,-41.06"/>
<text text-anchor="middle" x="577.5" y="-154.06" font-family="Helvetica,sans-Serif" font-size="10.00">mate&#45;control&#45;center</text>
</a>
</g>
</g>
<g id="clust2" class="cluster">
<title>clusterdir_ecc41eb6d06d99b40580fa495a925b61</title>
<g id="a_clust2"><a xlink:href="dir_ecc41eb6d06d99b40580fa495a925b61.html" target="_top">
<polygon fill="#edf0f7" stroke="#404040" stroke-width="2" points="16,-49.06 16,-139.06 1139,-139.06 1139,-49.06 16,-49.06"/>
</a>
</g>
</g>
<!-- dir_ecc41eb6d06d99b40580fa495a925b61 -->
<g id="node1" class="node">
<title>dir_ecc41eb6d06d99b40580fa495a925b61</title>
<text text-anchor="middle" x="1102" y="-119.06" font-family="Helvetica,sans-Serif" font-size="10.00">capplets</text>
</g>
<!-- dir_1c1ec561033ec54be0846005df77e972 -->
<g id="node2" class="node">
<title>dir_1c1ec561033ec54be0846005df77e972</title>
<g id="a_node2"><a xlink:href="dir_1c1ec561033ec54be0846005df77e972.html" target="_top" xlink:title="about&#45;me">
<polygon fill="#a2b4d6" stroke="#404040" points="721,-131.06 657,-131.06 657,-112.06 721,-112.06 721,-131.06"/>
<text text-anchor="middle" x="689" y="-119.06" font-family="Helvetica,sans-Serif" font-size="10.00">about&#45;me</text>
</a>
</g>
</g>
<!-- dir_463916d1a418c28af12bed77abbbc3bf -->
<g id="node5" class="node">
<title>dir_463916d1a418c28af12bed77abbbc3bf</title>
<g id="a_node5"><a xlink:href="dir_463916d1a418c28af12bed77abbbc3bf.html" target="_top" xlink:title="common">
<polygon fill="#a2b4d6" stroke="#404040" points="640.5,-76.06 581.5,-76.06 581.5,-57.06 640.5,-57.06 640.5,-76.06"/>
<text text-anchor="middle" x="611" y="-64.06" font-family="Helvetica,sans-Serif" font-size="10.00">common</text>
</a>
</g>
</g>
<!-- dir_1c1ec561033ec54be0846005df77e972&#45;&gt;dir_463916d1a418c28af12bed77abbbc3bf -->
<g id="edge2" class="edge">
<title>dir_1c1ec561033ec54be0846005df77e972&#45;&gt;dir_463916d1a418c28af12bed77abbbc3bf</title>
<g id="a_edge2"><a xlink:href="dir_000002_000038.html" target="_top">
<path fill="none" stroke="#63b8ff" d="M676.47,-112.05C664.6,-103.98 646.54,-91.71 632.39,-82.1"/>
<polygon fill="#63b8ff" stroke="#63b8ff" points="634,-78.96 623.76,-76.23 630.06,-84.75 634,-78.96"/>
</a>
</g>
<g id="a_edge2&#45;headlabel"><a xlink:href="dir_000002_000038.html" target="_top" xlink:title="3">
<text text-anchor="middle" x="638.57" y="-76.13" font-family="Helvetica,sans-Serif" font-size="10.00" fill="#63b8ff">3</text>
</a>
</g>
</g>
<!-- dir_30cc10f05752a69cba1471ea998c8591 -->
<g id="node15" class="node">
<title>dir_30cc10f05752a69cba1471ea998c8591</title>
<g id="a_node15"><a xlink:href="dir_30cc10f05752a69cba1471ea998c8591.html" target="_top" xlink:title="mate&#45;desktop">
<polygon fill="#edf0f7" stroke="red" stroke-dasharray="5,2" points="818.5,-21.06 733.5,-21.06 733.5,-2.06 818.5,-2.06 818.5,-21.06"/>
<text text-anchor="middle" x="776" y="-9.06" font-family="Helvetica,sans-Serif" font-size="10.00">mate&#45;desktop</text>
</a>
</g>
</g>
<!-- dir_1c1ec561033ec54be0846005df77e972&#45;&gt;dir_30cc10f05752a69cba1471ea998c8591 -->
<g id="edge1" class="edge">
<title>dir_1c1ec561033ec54be0846005df77e972&#45;&gt;dir_30cc10f05752a69cba1471ea998c8591</title>
<g id="a_edge1"><a xlink:href="dir_000002_000123.html" target="_top">
<path fill="none" stroke="#63b8ff" d="M696.12,-111.72C710.66,-93.68 743.96,-52.34 762.65,-29.14"/>
<polygon fill="#63b8ff" stroke="#63b8ff" points="765.48,-31.2 769.03,-21.22 760.03,-26.81 765.48,-31.2"/>
</a>
</g>
<g id="a_edge1&#45;headlabel"><a xlink:href="dir_000002_000123.html" target="_top" xlink:title="1">
<text text-anchor="middle" x="765.43" y="-33.28" font-family="Helvetica,sans-Serif" font-size="10.00" fill="#63b8ff">1</text>
</a>
</g>
</g>
<!-- dir_b7fa9a128ead41fa84b90d21edb8c33c -->
<g id="node3" class="node">
<title>dir_b7fa9a128ead41fa84b90d21edb8c33c</title>
<g id="a_node3"><a xlink:href="dir_b7fa9a128ead41fa84b90d21edb8c33c.html" target="_top" xlink:title="accessibility">
<polygon fill="#a2b4d6" stroke="#404040" points="395.5,-131.06 318.5,-131.06 318.5,-112.06 395.5,-112.06 395.5,-131.06"/>
<text text-anchor="middle" x="357" y="-119.06" font-family="Helvetica,sans-Serif" font-size="10.00">accessibility</text>
</a>
</g>
</g>
<!-- dir_b7fa9a128ead41fa84b90d21edb8c33c&#45;&gt;dir_463916d1a418c28af12bed77abbbc3bf -->
<g id="edge3" class="edge">
<title>dir_b7fa9a128ead41fa84b90d21edb8c33c&#45;&gt;dir_463916d1a418c28af12bed77abbbc3bf</title>
<g id="a_edge3"><a xlink:href="dir_000003_000038.html" target="_top">
<path fill="none" stroke="#63b8ff" d="M395.58,-112.51C443.03,-102.61 523.17,-85.89 571.18,-75.87"/>
<polygon fill="#63b8ff" stroke="#63b8ff" points="572.13,-79.25 581.21,-73.78 570.7,-72.4 572.13,-79.25"/>
</a>
</g>
<g id="a_edge3&#45;headlabel"><a xlink:href="dir_000003_000038.html" target="_top" xlink:title="2">
<text text-anchor="middle" x="569.19" y="-80.26" font-family="Helvetica,sans-Serif" font-size="10.00" fill="#63b8ff">2</text>
</a>
</g>
</g>
<!-- dir_7f9379fcfec8f8fdc57a4d05f4397d07 -->
<g id="node4" class="node">
<title>dir_7f9379fcfec8f8fdc57a4d05f4397d07</title>
<g id="a_node4"><a xlink:href="dir_7f9379fcfec8f8fdc57a4d05f4397d07.html" target="_top" xlink:title="appearance">
<polygon fill="#a2b4d6" stroke="#404040" points="813,-131.06 739,-131.06 739,-112.06 813,-112.06 813,-131.06"/>
<text text-anchor="middle" x="776" y="-119.06" font-family="Helvetica,sans-Serif" font-size="10.00">appearance</text>
</a>
</g>
</g>
<!-- dir_7f9379fcfec8f8fdc57a4d05f4397d07&#45;&gt;dir_463916d1a418c28af12bed77abbbc3bf -->
<g id="edge5" class="edge">
<title>dir_7f9379fcfec8f8fdc57a4d05f4397d07&#45;&gt;dir_463916d1a418c28af12bed77abbbc3bf</title>
<g id="a_edge5"><a xlink:href="dir_000009_000038.html" target="_top">
<path fill="none" stroke="#63b8ff" d="M749.49,-112.05C721.79,-103.15 678.14,-89.13 647.26,-79.21"/>
<polygon fill="#63b8ff" stroke="#63b8ff" points="648.31,-75.87 637.72,-76.14 646.17,-82.54 648.31,-75.87"/>
</a>
</g>
<g id="a_edge5&#45;headlabel"><a xlink:href="dir_000009_000038.html" target="_top" xlink:title="15">
<text text-anchor="middle" x="652.6" y="-71.77" font-family="Helvetica,sans-Serif" font-size="10.00" fill="#63b8ff">15</text>
</a>
</g>
</g>
<!-- dir_7f9379fcfec8f8fdc57a4d05f4397d07&#45;&gt;dir_30cc10f05752a69cba1471ea998c8591 -->
<g id="edge4" class="edge">
<title>dir_7f9379fcfec8f8fdc57a4d05f4397d07&#45;&gt;dir_30cc10f05752a69cba1471ea998c8591</title>
<g id="a_edge4"><a xlink:href="dir_000009_000123.html" target="_top">
<path fill="none" stroke="#63b8ff" d="M776,-111.72C776,-94.23 776,-54.87 776,-31.34"/>
<polygon fill="#63b8ff" stroke="#63b8ff" points="779.5,-31.22 776,-21.22 772.5,-31.22 779.5,-31.22"/>
</a>
</g>
<g id="a_edge4&#45;headlabel"><a xlink:href="dir_000009_000123.html" target="_top" xlink:title="10">
<text text-anchor="middle" x="782.34" y="-32.32" font-family="Helvetica,sans-Serif" font-size="10.00" fill="#63b8ff">10</text>
</a>
</g>
</g>
<!-- dir_463916d1a418c28af12bed77abbbc3bf&#45;&gt;dir_30cc10f05752a69cba1471ea998c8591 -->
<g id="edge6" class="edge">
<title>dir_463916d1a418c28af12bed77abbbc3bf&#45;&gt;dir_30cc10f05752a69cba1471ea998c8591</title>
<g id="a_edge6"><a xlink:href="dir_000038_000123.html" target="_top">
<path fill="none" stroke="#63b8ff" d="M637.51,-57.05C665.21,-48.15 708.86,-34.13 739.74,-24.21"/>
<polygon fill="#63b8ff" stroke="#63b8ff" points="740.83,-27.54 749.28,-21.14 738.69,-20.87 740.83,-27.54"/>
</a>
</g>
<g id="a_edge6&#45;headlabel"><a xlink:href="dir_000038_000123.html" target="_top" xlink:title="2">
<text text-anchor="middle" x="738.28" y="-28.84" font-family="Helvetica,sans-Serif" font-size="10.00" fill="#63b8ff">2</text>
</a>
</g>
</g>
<!-- dir_ddf1a4bfff20b58860c580670e0ae3b1 -->
<g id="node6" class="node">
<title>dir_ddf1a4bfff20b58860c580670e0ae3b1</title>
<g id="a_node6"><a xlink:href="dir_ddf1a4bfff20b58860c580670e0ae3b1.html" target="_top" xlink:title="default&#45;applications">
<polygon fill="#a2b4d6" stroke="#404040" points="300,-131.06 186,-131.06 186,-112.06 300,-112.06 300,-131.06"/>
<text text-anchor="middle" x="243" y="-119.06" font-family="Helvetica,sans-Serif" font-size="10.00">default&#45;applications</text>
</a>
</g>
</g>
<!-- dir_ddf1a4bfff20b58860c580670e0ae3b1&#45;&gt;dir_463916d1a418c28af12bed77abbbc3bf -->
<g id="edge7" class="edge">
<title>dir_ddf1a4bfff20b58860c580670e0ae3b1&#45;&gt;dir_463916d1a418c28af12bed77abbbc3bf</title>
<g id="a_edge7"><a xlink:href="dir_000050_000038.html" target="_top">
<path fill="none" stroke="#63b8ff" d="M300.1,-112.34C375.41,-101.49 506.02,-82.68 571.37,-73.27"/>
<polygon fill="#63b8ff" stroke="#63b8ff" points="571.88,-76.73 581.28,-71.84 570.88,-69.8 571.88,-76.73"/>
</a>
</g>
<g id="a_edge7&#45;headlabel"><a xlink:href="dir_000050_000038.html" target="_top" xlink:title="1">
<text text-anchor="middle" x="568.73" y="-77.56" font-family="Helvetica,sans-Serif" font-size="10.00" fill="#63b8ff">1</text>
</a>
</g>
</g>
<!-- dir_a4a09824a4ad484f243f1eb86f8a71bc -->
<g id="node7" class="node">
<title>dir_a4a09824a4ad484f243f1eb86f8a71bc</title>
<g id="a_node7"><a xlink:href="dir_a4a09824a4ad484f243f1eb86f8a71bc.html" target="_top" xlink:title="display">
<polygon fill="#a2b4d6" stroke="#404040" points="883,-131.06 831,-131.06 831,-112.06 883,-112.06 883,-131.06"/>
<text text-anchor="middle" x="857" y="-119.06" font-family="Helvetica,sans-Serif" font-size="10.00">display</text>
</a>
</g>
</g>
<!-- dir_a4a09824a4ad484f243f1eb86f8a71bc&#45;&gt;dir_463916d1a418c28af12bed77abbbc3bf -->
<g id="edge9" class="edge">
<title>dir_a4a09824a4ad484f243f1eb86f8a71bc&#45;&gt;dir_463916d1a418c28af12bed77abbbc3bf</title>
<g id="a_edge9"><a xlink:href="dir_000053_000038.html" target="_top">
<path fill="none" stroke="#63b8ff" d="M830.65,-114.07C827.73,-113.38 824.81,-112.7 822,-112.06 762.47,-98.56 693.17,-84.2 650.7,-75.56"/>
<polygon fill="#63b8ff" stroke="#63b8ff" points="651.26,-72.1 640.76,-73.54 649.87,-78.96 651.26,-72.1"/>
</a>
</g>
<g id="a_edge9&#45;headlabel"><a xlink:href="dir_000053_000038.html" target="_top" xlink:title="1">
<text text-anchor="middle" x="655.35" y="-67.54" font-family="Helvetica,sans-Serif" font-size="10.00" fill="#63b8ff">1</text>
</a>
</g>
</g>
<!-- dir_a4a09824a4ad484f243f1eb86f8a71bc&#45;&gt;dir_30cc10f05752a69cba1471ea998c8591 -->
<g id="edge8" class="edge">
<title>dir_a4a09824a4ad484f243f1eb86f8a71bc&#45;&gt;dir_30cc10f05752a69cba1471ea998c8591</title>
<g id="a_edge8"><a xlink:href="dir_000053_000123.html" target="_top">
<path fill="none" stroke="#63b8ff" d="M850.37,-111.72C836.9,-93.76 806.11,-52.7 788.66,-29.45"/>
<polygon fill="#63b8ff" stroke="#63b8ff" points="791.29,-27.12 782.49,-21.22 785.69,-31.32 791.29,-27.12"/>
</a>
</g>
<g id="a_edge8&#45;headlabel"><a xlink:href="dir_000053_000123.html" target="_top" xlink:title="4">
<text text-anchor="middle" x="795.72" y="-25.79" font-family="Helvetica,sans-Serif" font-size="10.00" fill="#63b8ff">4</text>
</a>
</g>
</g>
<!-- dir_9c8281e660c2f0098fbcd25a5081d89c -->
<g id="node8" class="node">
<title>dir_9c8281e660c2f0098fbcd25a5081d89c</title>
<g id="a_node8"><a xlink:href="dir_9c8281e660c2f0098fbcd25a5081d89c.html" target="_top" xlink:title="keybindings">
<polygon fill="#a2b4d6" stroke="#404040" points="167.5,-131.06 92.5,-131.06 92.5,-112.06 167.5,-112.06 167.5,-131.06"/>
<text text-anchor="middle" x="130" y="-119.06" font-family="Helvetica,sans-Serif" font-size="10.00">keybindings</text>
</a>
</g>
</g>
<!-- dir_9c8281e660c2f0098fbcd25a5081d89c&#45;&gt;dir_463916d1a418c28af12bed77abbbc3bf -->
<g id="edge10" class="edge">
<title>dir_9c8281e660c2f0098fbcd25a5081d89c&#45;&gt;dir_463916d1a418c28af12bed77abbbc3bf</title>
<g id="a_edge10"><a xlink:href="dir_000090_000038.html" target="_top">
<path fill="none" stroke="#63b8ff" d="M167.67,-113.49C170.82,-112.98 173.96,-112.49 177,-112.06 321.69,-91.59 494.78,-76.7 571.29,-70.61"/>
<polygon fill="#63b8ff" stroke="#63b8ff" points="571.74,-74.08 581.44,-69.81 571.19,-67.1 571.74,-74.08"/>
</a>
</g>
<g id="a_edge10&#45;headlabel"><a xlink:href="dir_000090_000038.html" target="_top" xlink:title="2">
<text text-anchor="middle" x="568.38" y="-74.7" font-family="Helvetica,sans-Serif" font-size="10.00" fill="#63b8ff">2</text>
</a>
</g>
</g>
<!-- dir_6b9b387f26d1b8d9a6d0c3421d30e42c -->
<g id="node9" class="node">
<title>dir_6b9b387f26d1b8d9a6d0c3421d30e42c</title>
<g id="a_node9"><a xlink:href="dir_6b9b387f26d1b8d9a6d0c3421d30e42c.html" target="_top" xlink:title="keyboard">
<polygon fill="#a2b4d6" stroke="#404040" points="963,-131.06 901,-131.06 901,-112.06 963,-112.06 963,-131.06"/>
<text text-anchor="middle" x="932" y="-119.06" font-family="Helvetica,sans-Serif" font-size="10.00">keyboard</text>
</a>
</g>
</g>
<!-- dir_6b9b387f26d1b8d9a6d0c3421d30e42c&#45;&gt;dir_463916d1a418c28af12bed77abbbc3bf -->
<g id="edge11" class="edge">
<title>dir_6b9b387f26d1b8d9a6d0c3421d30e42c&#45;&gt;dir_463916d1a418c28af12bed77abbbc3bf</title>
<g id="a_edge11"><a xlink:href="dir_000092_000038.html" target="_top">
<path fill="none" stroke="#63b8ff" d="M900.59,-113.73C897.69,-113.14 894.79,-112.58 892,-112.06 806.22,-96.17 705.05,-81.02 650.56,-73.16"/>
<polygon fill="#63b8ff" stroke="#63b8ff" points="651.02,-69.69 640.62,-71.73 650.02,-76.62 651.02,-69.69"/>
</a>
</g>
<g id="a_edge11&#45;headlabel"><a xlink:href="dir_000092_000038.html" target="_top" xlink:title="9">
<text text-anchor="middle" x="654.98" y="-64.89" font-family="Helvetica,sans-Serif" font-size="10.00" fill="#63b8ff">9</text>
</a>
</g>
</g>
<!-- dir_d0fd4bdef82780c18fad1c9d2c094b60 -->
<g id="node16" class="node">
<title>dir_d0fd4bdef82780c18fad1c9d2c094b60</title>
<g id="a_node16"><a xlink:href="dir_d0fd4bdef82780c18fad1c9d2c094b60.html" target="_top" xlink:title="libmatekbd">
<polygon fill="#edf0f7" stroke="red" stroke-dasharray="5,2" points="1227,-76.06 1155,-76.06 1155,-57.06 1227,-57.06 1227,-76.06"/>
<text text-anchor="middle" x="1191" y="-64.06" font-family="Helvetica,sans-Serif" font-size="10.00">libmatekbd</text>
</a>
</g>
</g>
<!-- dir_6b9b387f26d1b8d9a6d0c3421d30e42c&#45;&gt;dir_d0fd4bdef82780c18fad1c9d2c094b60 -->
<g id="edge12" class="edge">
<title>dir_6b9b387f26d1b8d9a6d0c3421d30e42c&#45;&gt;dir_d0fd4bdef82780c18fad1c9d2c094b60</title>
<g id="a_edge12"><a xlink:href="dir_000092_000102.html" target="_top">
<path fill="none" stroke="#63b8ff" d="M963,-113.95C966.04,-113.31 969.08,-112.67 972,-112.06 1031.73,-99.65 1100.72,-85.69 1145.05,-76.78"/>
<polygon fill="#63b8ff" stroke="#63b8ff" points="1145.83,-80.19 1154.94,-74.79 1144.45,-73.33 1145.83,-80.19"/>
</a>
</g>
<g id="a_edge12&#45;headlabel"><a xlink:href="dir_000092_000102.html" target="_top" xlink:title="7">
<text text-anchor="middle" x="1142.86" y="-81.18" font-family="Helvetica,sans-Serif" font-size="10.00" fill="#63b8ff">7</text>
</a>
</g>
</g>
<!-- dir_763603dc421bb56a934edb6e6f2005bd -->
<g id="node10" class="node">
<title>dir_763603dc421bb56a934edb6e6f2005bd</title>
<g id="a_node10"><a xlink:href="dir_763603dc421bb56a934edb6e6f2005bd.html" target="_top" xlink:title="mouse">
<polygon fill="#a2b4d6" stroke="#404040" points="74,-131.06 24,-131.06 24,-112.06 74,-112.06 74,-131.06"/>
<text text-anchor="middle" x="49" y="-119.06" font-family="Helvetica,sans-Serif" font-size="10.00">mouse</text>
</a>
</g>
</g>
<!-- dir_763603dc421bb56a934edb6e6f2005bd&#45;&gt;dir_463916d1a418c28af12bed77abbbc3bf -->
<g id="edge13" class="edge">
<title>dir_763603dc421bb56a934edb6e6f2005bd&#45;&gt;dir_463916d1a418c28af12bed77abbbc3bf</title>
<g id="a_edge13"><a xlink:href="dir_000158_000038.html" target="_top">
<path fill="none" stroke="#63b8ff" d="M74.14,-113.97C77.44,-113.25 80.79,-112.58 84,-112.06 264.49,-82.71 483.1,-72.09 571.28,-68.83"/>
<polygon fill="#63b8ff" stroke="#63b8ff" points="571.51,-72.32 581.38,-68.47 571.26,-65.33 571.51,-72.32"/>
</a>
</g>
<g id="a_edge13&#45;headlabel"><a xlink:href="dir_000158_000038.html" target="_top" xlink:title="2">
<text text-anchor="middle" x="568.02" y="-72.79" font-family="Helvetica,sans-Serif" font-size="10.00" fill="#63b8ff">2</text>
</a>
</g>
</g>
<!-- dir_cb48add58e970ca4fc79a19efe0dc34a -->
<g id="node11" class="node">
<title>dir_cb48add58e970ca4fc79a19efe0dc34a</title>
<g id="a_node11"><a xlink:href="dir_cb48add58e970ca4fc79a19efe0dc34a.html" target="_top" xlink:title="network">
<polygon fill="#a2b4d6" stroke="#404040" points="639,-131.06 583,-131.06 583,-112.06 639,-112.06 639,-131.06"/>
<text text-anchor="middle" x="611" y="-119.06" font-family="Helvetica,sans-Serif" font-size="10.00">network</text>
</a>
</g>
</g>
<!-- dir_cb48add58e970ca4fc79a19efe0dc34a&#45;&gt;dir_463916d1a418c28af12bed77abbbc3bf -->
<g id="edge14" class="edge">
<title>dir_cb48add58e970ca4fc79a19efe0dc34a&#45;&gt;dir_463916d1a418c28af12bed77abbbc3bf</title>
<g id="a_edge14"><a xlink:href="dir_000164_000038.html" target="_top">
<path fill="none" stroke="#63b8ff" d="M611,-111.81C611,-104.86 611,-94.91 611,-86.2"/>
<polygon fill="#63b8ff" stroke="#63b8ff" points="614.5,-86.15 611,-76.15 607.5,-86.15 614.5,-86.15"/>
</a>
</g>
<g id="a_edge14&#45;headlabel"><a xlink:href="dir_000164_000038.html" target="_top" xlink:title="1">
<text text-anchor="middle" x="617.34" y="-87.25" font-family="Helvetica,sans-Serif" font-size="10.00" fill="#63b8ff">1</text>
</a>
</g>
</g>
<!-- dir_e0c4671a4a50c65fa2c0eed89210cd80 -->
<g id="node12" class="node">
<title>dir_e0c4671a4a50c65fa2c0eed89210cd80</title>
<g id="a_node12"><a xlink:href="dir_e0c4671a4a50c65fa2c0eed89210cd80.html" target="_top" xlink:title="system&#45;info">
<polygon fill="#a2b4d6" stroke="#404040" points="565.5,-131.06 490.5,-131.06 490.5,-112.06 565.5,-112.06 565.5,-131.06"/>
<text text-anchor="middle" x="528" y="-119.06" font-family="Helvetica,sans-Serif" font-size="10.00">system&#45;info</text>
</a>
</g>
</g>
<!-- dir_e0c4671a4a50c65fa2c0eed89210cd80&#45;&gt;dir_463916d1a418c28af12bed77abbbc3bf -->
<g id="edge15" class="edge">
<title>dir_e0c4671a4a50c65fa2c0eed89210cd80&#45;&gt;dir_463916d1a418c28af12bed77abbbc3bf</title>
<g id="a_edge15"><a xlink:href="dir_000249_000038.html" target="_top">
<path fill="none" stroke="#63b8ff" d="M541.34,-112.05C554.09,-103.9 573.55,-91.47 588.67,-81.82"/>
<polygon fill="#63b8ff" stroke="#63b8ff" points="590.88,-84.56 597.42,-76.23 587.11,-78.66 590.88,-84.56"/>
</a>
</g>
<g id="a_edge15&#45;headlabel"><a xlink:href="dir_000249_000038.html" target="_top" xlink:title="1">
<text text-anchor="middle" x="589.38" y="-86.39" font-family="Helvetica,sans-Serif" font-size="10.00" fill="#63b8ff">1</text>
</a>
</g>
</g>
<!-- dir_238248000e1296645fa2e26af138aee5 -->
<g id="node13" class="node">
<title>dir_238248000e1296645fa2e26af138aee5</title>
<g id="a_node13"><a xlink:href="dir_238248000e1296645fa2e26af138aee5.html" target="_top" xlink:title="time&#45;admin">
<polygon fill="#a2b4d6" stroke="#404040" points="1055,-131.06 981,-131.06 981,-112.06 1055,-112.06 1055,-131.06"/>
<text text-anchor="middle" x="1018" y="-119.06" font-family="Helvetica,sans-Serif" font-size="10.00">time&#45;admin</text>
</a>
</g>
</g>
<!-- dir_238248000e1296645fa2e26af138aee5&#45;&gt;dir_463916d1a418c28af12bed77abbbc3bf -->
<g id="edge17" class="edge">
<title>dir_238248000e1296645fa2e26af138aee5&#45;&gt;dir_463916d1a418c28af12bed77abbbc3bf</title>
<g id="a_edge17"><a xlink:href="dir_000263_000038.html" target="_top">
<path fill="none" stroke="#63b8ff" d="M980.88,-113.5C977.88,-112.99 974.89,-112.51 972,-112.06 855.59,-94.15 717.17,-78.72 650.61,-71.66"/>
<polygon fill="#63b8ff" stroke="#63b8ff" points="650.88,-68.17 640.56,-70.6 650.14,-75.13 650.88,-68.17"/>
</a>
</g>
<g id="a_edge17&#45;headlabel"><a xlink:href="dir_000263_000038.html" target="_top" xlink:title="1">
<text text-anchor="middle" x="654.75" y="-63.22" font-family="Helvetica,sans-Serif" font-size="10.00" fill="#63b8ff">1</text>
</a>
</g>
</g>
<!-- dir_238248000e1296645fa2e26af138aee5&#45;&gt;dir_30cc10f05752a69cba1471ea998c8591 -->
<g id="edge16" class="edge">
<title>dir_238248000e1296645fa2e26af138aee5&#45;&gt;dir_30cc10f05752a69cba1471ea998c8591</title>
<g id="a_edge16"><a xlink:href="dir_000263_000123.html" target="_top">
<path fill="none" stroke="#63b8ff" d="M1055.37,-113.56C1116.91,-101.93 1233.13,-79.58 1236,-76.06 1245.84,-64.01 1246.65,-52.4 1236,-41.06 1208.63,-11.95 943.88,-10.92 828.88,-11.87"/>
<polygon fill="#63b8ff" stroke="#63b8ff" points="828.53,-8.37 818.56,-11.96 828.59,-15.37 828.53,-8.37"/>
</a>
</g>
<g id="a_edge16&#45;headlabel"><a xlink:href="dir_000263_000123.html" target="_top" xlink:title="1">
<text text-anchor="middle" x="832.09" y="-3" font-family="Helvetica,sans-Serif" font-size="10.00" fill="#63b8ff">1</text>
</a>
</g>
</g>
<!-- dir_eae14bbfdb7b2a6ddbeeb67b742cc0fa -->
<g id="node14" class="node">
<title>dir_eae14bbfdb7b2a6ddbeeb67b742cc0fa</title>
<g id="a_node14"><a xlink:href="dir_eae14bbfdb7b2a6ddbeeb67b742cc0fa.html" target="_top" xlink:title="windows">
<polygon fill="#a2b4d6" stroke="#404040" points="472.5,-131.06 413.5,-131.06 413.5,-112.06 472.5,-112.06 472.5,-131.06"/>
<text text-anchor="middle" x="443" y="-119.06" font-family="Helvetica,sans-Serif" font-size="10.00">windows</text>
</a>
</g>
</g>
<!-- dir_eae14bbfdb7b2a6ddbeeb67b742cc0fa&#45;&gt;dir_463916d1a418c28af12bed77abbbc3bf -->
<g id="edge18" class="edge">
<title>dir_eae14bbfdb7b2a6ddbeeb67b742cc0fa&#45;&gt;dir_463916d1a418c28af12bed77abbbc3bf</title>
<g id="a_edge18"><a xlink:href="dir_000285_000038.html" target="_top">
<path fill="none" stroke="#63b8ff" d="M469.99,-112.05C498.2,-103.15 542.64,-89.13 574.08,-79.21"/>
<polygon fill="#63b8ff" stroke="#63b8ff" points="575.31,-82.49 583.8,-76.14 573.21,-75.82 575.31,-82.49"/>
</a>
</g>
<g id="a_edge18&#45;headlabel"><a xlink:href="dir_000285_000038.html" target="_top" xlink:title="1">
<text text-anchor="middle" x="572.74" y="-83.78" font-family="Helvetica,sans-Serif" font-size="10.00" fill="#63b8ff">1</text>
</a>
</g>
</g>
</g>
</svg>

<g id="navigator" transform="translate(0 0)" fill="#404254">
  <rect fill="#f2f5e9" fill-opacity="0.5" stroke="#606060" stroke-width=".5" x="0" y="0" width="60" height="60"/>
  <use id="zoomplus" xlink:href="#zoomPlus" x="17" y="9" onmousedown="handleZoom(evt,'in')"/>
  <use id="zoomminus" xlink:href="#zoomMin" x="42" y="9" onmousedown="handleZoom(evt,'out')"/>
  <use id="reset" xlink:href="#resetDef" x="30" y="36" onmousedown="handleReset()"/>
   <use id="arrowup" xlink:href="#arrowUp" x="0" y="0" onmousedown="handlePan(0,-1)"/>
  <use id="arrowright" xlink:href="#arrowRight" x="0" y="0" onmousedown="handlePan(1,0)"/>
  <use id="arrowdown" xlink:href="#arrowDown" x="0" y="0" onmousedown="handlePan(0,1)"/>
  <use id="arrowleft" xlink:href="#arrowLeft" x="0" y="0" onmousedown="handlePan(-1,0)"/>
</g>
<svg viewBox="0 0 15 15" width="100%" height="30px" preserveAspectRatio="xMaxYMin meet">
 <g id="arrow_out" transform="scale(0.3 0.3)">
  <a xlink:href="dir_ecc41eb6d06d99b40580fa495a925b61_dep_org.svg" target="_base">
   <rect id="button" ry="5" rx="5" y="6" x="6" height="38" width="38"
        fill="#f2f5e9" fill-opacity="0.5" stroke="#606060" stroke-width="1.0"/>
   <path id="arrow"
     d="M 11.500037,31.436501 C 11.940474,20.09759 22.043105,11.32322 32.158766,21.979434 L 37.068811,17.246167 C 37.068811,17.246167 37.088388,32 37.088388,32 L 22.160133,31.978069 C 22.160133,31.978069 26.997745,27.140456 26.997745,27.140456 C 18.528582,18.264221 13.291696,25.230495 11.500037,31.436501 z"
     style="fill:#404040;"/>
  </a>
 </g>
</svg>

<style type='text/css'>
<![CDATA[
[data-mouse-over-selected='false'] { opacity: 0.7; }
[data-mouse-over-selected='true']  { opacity: 1.0; }
]]>
</style>
<script type="application/ecmascript"><![CDATA[
document.addEventListener('DOMContentLoaded', (event) => {
  highlightEdges();
  highlightAdjacentNodes();
});
]]></script>
</svg>
