<?xml version="1.0" encoding="UTF-8" standalone="no"?>
<!DOCTYPE svg PUBLIC "-//W3C//DTD SVG 1.1//EN"
 "http://www.w3.org/Graphics/SVG/1.1/DTD/svg11.dtd">
<!-- Generated by graphviz version 2.43.0 (0)
 -->
<!-- Title: applets Pages: 1 -->
<!--zoomable 141 -->

<svg id="main" version="1.1" xmlns="http://www.w3.org/2000/svg" xmlns:xlink="http://www.w3.org/1999/xlink" xml:space="preserve" onload="init(evt)">
<style type="text/css"><![CDATA[
.node, .edge {opacity: 0.7;}
.node.selected, .edge.selected {opacity: 1;}
.edge:hover path { stroke: red; }
.edge:hover polygon { stroke: red; fill: red; }
]]></style>

<defs>
  <circle id="rim" cx="0" cy="0" r="7"/>
  <circle id="rim2" cx="0" cy="0" r="3.5"/>
  <g id="zoomPlus">
    <use xlink:href="#rim" fill="#404040"><set attributeName="fill" to="#808080" begin="zoomplus.mouseover" end="zoomplus.mouseout"/></use>
    <path d="M-4,0h8M0,-4v8" fill="none" stroke="white" stroke-width="1.5" pointer-events="none"/>
  </g>
  <g id="zoomMin">
    <use xlink:href="#rim" fill="#404040"><set attributeName="fill" to="#808080" begin="zoomminus.mouseover" end="zoomminus.mouseout"/></use>
    <path d="M-4,0h8" fill="none" stroke="white" stroke-width="1.5" pointer-events="none"/>
  </g>
  <g id="arrowUp" transform="translate(30 24)">
    <use xlink:href="#rim"/>
    <path pointer-events="none" fill="none" stroke="white" stroke-width="1.5" d="M0,-3.0v7 M-2.5,-0.5L0,-3.0L2.5,-0.5"/>
  </g>
  <g id="arrowRight" transform="rotate(90) translate(36 -43)">
    <use xlink:href="#rim"/>
    <path pointer-events="none" fill="none" stroke="white" stroke-width="1.5" d="M0,-3.0v7 M-2.5,-0.5L0,-3.0L2.5,-0.5"/>
  </g>
  <g id="arrowDown" transform="rotate(180) translate(-30 -48)">
    <use xlink:href="#rim"/>
    <path pointer-events="none" fill="none" stroke="white" stroke-width="1.5" d="M0,-3.0v7 M-2.5,-0.5L0,-3.0L2.5,-0.5"/>
  </g>
  <g id="arrowLeft" transform="rotate(270) translate(-36 17)">
    <use xlink:href="#rim"/>
    <path pointer-events="none" fill="none" stroke="white" stroke-width="1.5" d="M0,-3.0v7 M-2.5,-0.5L0,-3.0L2.5,-0.5"/>
  </g>
  <g id="resetDef">
    <use xlink:href="#rim2" fill="#404040"><set attributeName="fill" to="#808080" begin="reset.mouseover" end="reset.mouseout"/></use>
  </g>
</defs>
<script type="application/ecmascript">
var viewWidth = 609;
var viewHeight = 141;
var sectionId = 'dynsection-0';
</script>
<script type="application/ecmascript" xlink:href="svg.min.js"/>
<svg id="graph" class="graph">
<g id="viewport">
<title>applets</title>
<g id="clust1" class="cluster">
<title>clusterdir_6309017872dbb5b832e48fc51dca7a56</title>
<g id="a_clust1"><a xlink:href="dir_6309017872dbb5b832e48fc51dca7a56.html" target="_top" xlink:title="mate&#45;panel">
<polygon fill="#edf0f7" stroke="#7f7f7f" stroke-dasharray="5,2" points="8,-8 8,-125 395,-125 395,-8 8,-8"/>
<text text-anchor="middle" x="201.5" y="-113" font-family="Helvetica,sans-Serif" font-size="10.00">mate&#45;panel</text>
</a>
</g>
</g>
<g id="clust2" class="cluster">
<title>clusterdir_a6a7a0f04864313726ccc3d458a35e2f</title>
<g id="a_clust2"><a xlink:href="dir_a6a7a0f04864313726ccc3d458a35e2f.html" target="_top">
<polygon fill="#edf0f7" stroke="#404040" stroke-width="2" points="16,-63 16,-98 387,-98 387,-63 16,-63"/>
</a>
</g>
</g>
<!-- dir_9bc97fdfd343c938517a87d6b7066bdd -->
<g id="node1" class="node">
<title>dir_9bc97fdfd343c938517a87d6b7066bdd</title>
<g id="a_node1"><a xlink:href="dir_9bc97fdfd343c938517a87d6b7066bdd.html" target="_top" xlink:title="libmate&#45;panel&#45;applet">
<polygon fill="#a2b4d6" stroke="#404040" points="200.5,-35 81.5,-35 81.5,-16 200.5,-16 200.5,-35"/>
<text text-anchor="middle" x="141" y="-23" font-family="Helvetica,sans-Serif" font-size="10.00">libmate&#45;panel&#45;applet</text>
</a>
</g>
</g>
<!-- dir_a6a7a0f04864313726ccc3d458a35e2f -->
<g id="node2" class="node">
<title>dir_a6a7a0f04864313726ccc3d458a35e2f</title>
<text text-anchor="middle" x="352" y="-78" font-family="Helvetica,sans-Serif" font-size="10.00">applets</text>
</g>
<!-- dir_1b504f987e5ae62a5d45a2a872917e62 -->
<g id="node3" class="node">
<title>dir_1b504f987e5ae62a5d45a2a872917e62</title>
<g id="a_node3"><a xlink:href="dir_1b504f987e5ae62a5d45a2a872917e62.html" target="_top" xlink:title="clock">
<polygon fill="#a2b4d6" stroke="#404040" points="118,-90 76,-90 76,-71 118,-71 118,-90"/>
<text text-anchor="middle" x="97" y="-78" font-family="Helvetica,sans-Serif" font-size="10.00">clock</text>
</a>
</g>
</g>
<!-- dir_1b504f987e5ae62a5d45a2a872917e62&#45;&gt;dir_9bc97fdfd343c938517a87d6b7066bdd -->
<g id="edge1" class="edge">
<title>dir_1b504f987e5ae62a5d45a2a872917e62&#45;&gt;dir_9bc97fdfd343c938517a87d6b7066bdd</title>
<g id="a_edge1"><a xlink:href="dir_000034_000100.html" target="_top">
<path fill="none" stroke="#63b8ff" d="M104.27,-70.75C110.54,-63.18 119.79,-52.05 127.43,-42.84"/>
<polygon fill="#63b8ff" stroke="#63b8ff" points="130.17,-45.02 133.87,-35.09 124.79,-40.55 130.17,-45.02"/>
</a>
</g>
<g id="a_edge1&#45;headlabel"><a xlink:href="dir_000034_000100.html" target="_top" xlink:title="2">
<text text-anchor="middle" x="130.06" y="-47.1" font-family="Helvetica,sans-Serif" font-size="10.00" fill="#63b8ff">2</text>
</a>
</g>
</g>
<!-- dir_eb0a6cf282af746cb2d7671f12a9ef61 -->
<g id="node7" class="node">
<title>dir_eb0a6cf282af746cb2d7671f12a9ef61</title>
<g id="a_node7"><a xlink:href="dir_eb0a6cf282af746cb2d7671f12a9ef61.html" target="_top" xlink:title="libmateweather">
<polygon fill="#edf0f7" stroke="red" stroke-dasharray="5,2" points="497,-35 403,-35 403,-16 497,-16 497,-35"/>
<text text-anchor="middle" x="450" y="-23" font-family="Helvetica,sans-Serif" font-size="10.00">libmateweather</text>
</a>
</g>
</g>
<!-- dir_1b504f987e5ae62a5d45a2a872917e62&#45;&gt;dir_eb0a6cf282af746cb2d7671f12a9ef61 -->
<g id="edge2" class="edge">
<title>dir_1b504f987e5ae62a5d45a2a872917e62&#45;&gt;dir_eb0a6cf282af746cb2d7671f12a9ef61</title>
<g id="a_edge2"><a xlink:href="dir_000034_000109.html" target="_top">
<path fill="none" stroke="#63b8ff" d="M109.93,-70.91C115.04,-67.91 121.1,-64.84 127,-63 239.83,-27.76 276.55,-49.93 392.79,-35.76"/>
<polygon fill="#63b8ff" stroke="#63b8ff" points="393.31,-39.22 402.78,-34.48 392.42,-32.28 393.31,-39.22"/>
</a>
</g>
<g id="a_edge2&#45;headlabel"><a xlink:href="dir_000034_000109.html" target="_top" xlink:title="4">
<text text-anchor="middle" x="390.1" y="-40" font-family="Helvetica,sans-Serif" font-size="10.00" fill="#63b8ff">4</text>
</a>
</g>
</g>
<!-- dir_17b28c731fab8bd999450e4e5a8a9d9d -->
<g id="node4" class="node">
<title>dir_17b28c731fab8bd999450e4e5a8a9d9d</title>
<g id="a_node4"><a xlink:href="dir_17b28c731fab8bd999450e4e5a8a9d9d.html" target="_top" xlink:title="fish">
<polygon fill="#a2b4d6" stroke="#404040" points="58,-90 24,-90 24,-71 58,-71 58,-90"/>
<text text-anchor="middle" x="41" y="-78" font-family="Helvetica,sans-Serif" font-size="10.00">fish</text>
</a>
</g>
</g>
<!-- dir_17b28c731fab8bd999450e4e5a8a9d9d&#45;&gt;dir_9bc97fdfd343c938517a87d6b7066bdd -->
<g id="edge3" class="edge">
<title>dir_17b28c731fab8bd999450e4e5a8a9d9d&#45;&gt;dir_9bc97fdfd343c938517a87d6b7066bdd</title>
<g id="a_edge3"><a xlink:href="dir_000068_000100.html" target="_top">
<path fill="none" stroke="#63b8ff" d="M53.79,-71C57.95,-68.34 62.62,-65.46 67,-63 81.92,-54.62 99.02,-46.11 113.03,-39.42"/>
<polygon fill="#63b8ff" stroke="#63b8ff" points="114.62,-42.54 122.16,-35.11 111.63,-36.22 114.62,-42.54"/>
</a>
</g>
<g id="a_edge3&#45;headlabel"><a xlink:href="dir_000068_000100.html" target="_top" xlink:title="2">
<text text-anchor="middle" x="112.58" y="-44.15" font-family="Helvetica,sans-Serif" font-size="10.00" fill="#63b8ff">2</text>
</a>
</g>
</g>
<!-- dir_9797143dfab234a185273884316a51da -->
<g id="node5" class="node">
<title>dir_9797143dfab234a185273884316a51da</title>
<g id="a_node5"><a xlink:href="dir_9797143dfab234a185273884316a51da.html" target="_top" xlink:title="notification_area">
<polygon fill="#a2b4d6" stroke="#404040" points="234,-90 136,-90 136,-71 234,-71 234,-90"/>
<text text-anchor="middle" x="185" y="-78" font-family="Helvetica,sans-Serif" font-size="10.00">notification_area</text>
</a>
</g>
</g>
<!-- dir_9797143dfab234a185273884316a51da&#45;&gt;dir_9bc97fdfd343c938517a87d6b7066bdd -->
<g id="edge4" class="edge">
<title>dir_9797143dfab234a185273884316a51da&#45;&gt;dir_9bc97fdfd343c938517a87d6b7066bdd</title>
<g id="a_edge4"><a xlink:href="dir_000166_000100.html" target="_top">
<path fill="none" stroke="#63b8ff" d="M177.73,-70.75C171.46,-63.18 162.21,-52.05 154.57,-42.84"/>
<polygon fill="#63b8ff" stroke="#63b8ff" points="157.21,-40.55 148.13,-35.09 151.83,-45.02 157.21,-40.55"/>
</a>
</g>
<g id="a_edge4&#45;headlabel"><a xlink:href="dir_000166_000100.html" target="_top" xlink:title="3">
<text text-anchor="middle" x="161.69" y="-39" font-family="Helvetica,sans-Serif" font-size="10.00" fill="#63b8ff">3</text>
</a>
</g>
</g>
<!-- dir_30cc10f05752a69cba1471ea998c8591 -->
<g id="node8" class="node">
<title>dir_30cc10f05752a69cba1471ea998c8591</title>
<g id="a_node8"><a xlink:href="dir_30cc10f05752a69cba1471ea998c8591.html" target="_top" xlink:title="mate&#45;desktop">
<polygon fill="#edf0f7" stroke="red" stroke-dasharray="5,2" points="600.5,-35 515.5,-35 515.5,-16 600.5,-16 600.5,-35"/>
<text text-anchor="middle" x="558" y="-23" font-family="Helvetica,sans-Serif" font-size="10.00">mate&#45;desktop</text>
</a>
</g>
</g>
<!-- dir_9797143dfab234a185273884316a51da&#45;&gt;dir_30cc10f05752a69cba1471ea998c8591 -->
<g id="edge5" class="edge">
<title>dir_9797143dfab234a185273884316a51da&#45;&gt;dir_30cc10f05752a69cba1471ea998c8591</title>
<g id="a_edge5"><a xlink:href="dir_000166_000123.html" target="_top">
<path fill="none" stroke="#63b8ff" d="M211.33,-70.98C221.18,-68.07 232.52,-65.03 243,-63 355.24,-41.23 387.74,-50.18 505.34,-34.99"/>
<polygon fill="#63b8ff" stroke="#63b8ff" points="506.01,-38.43 515.46,-33.65 505.09,-31.49 506.01,-38.43"/>
</a>
</g>
<g id="a_edge5&#45;headlabel"><a xlink:href="dir_000166_000123.html" target="_top" xlink:title="1">
<text text-anchor="middle" x="502.82" y="-39.22" font-family="Helvetica,sans-Serif" font-size="10.00" fill="#63b8ff">1</text>
</a>
</g>
</g>
<!-- dir_e1ff47e2fd5e5e58d52186cbb5e819d3 -->
<g id="node6" class="node">
<title>dir_e1ff47e2fd5e5e58d52186cbb5e819d3</title>
<g id="a_node6"><a xlink:href="dir_e1ff47e2fd5e5e58d52186cbb5e819d3.html" target="_top" xlink:title="wncklet">
<polygon fill="#a2b4d6" stroke="#404040" points="307.5,-90 252.5,-90 252.5,-71 307.5,-71 307.5,-90"/>
<text text-anchor="middle" x="280" y="-78" font-family="Helvetica,sans-Serif" font-size="10.00">wncklet</text>
</a>
</g>
</g>
<!-- dir_e1ff47e2fd5e5e58d52186cbb5e819d3&#45;&gt;dir_9bc97fdfd343c938517a87d6b7066bdd -->
<g id="edge7" class="edge">
<title>dir_e1ff47e2fd5e5e58d52186cbb5e819d3&#45;&gt;dir_9bc97fdfd343c938517a87d6b7066bdd</title>
<g id="a_edge7"><a xlink:href="dir_000287_000100.html" target="_top">
<path fill="none" stroke="#63b8ff" d="M261.67,-71C255.75,-68.34 249.14,-65.46 243,-63 221.05,-54.19 196.05,-45.23 176.3,-38.39"/>
<polygon fill="#63b8ff" stroke="#63b8ff" points="177.37,-35.06 166.77,-35.12 175.09,-41.68 177.37,-35.06"/>
</a>
</g>
<g id="a_edge7&#45;headlabel"><a xlink:href="dir_000287_000100.html" target="_top" xlink:title="11">
<text text-anchor="middle" x="181.69" y="-31.04" font-family="Helvetica,sans-Serif" font-size="10.00" fill="#63b8ff">11</text>
</a>
</g>
</g>
<!-- dir_e1ff47e2fd5e5e58d52186cbb5e819d3&#45;&gt;dir_30cc10f05752a69cba1471ea998c8591 -->
<g id="edge6" class="edge">
<title>dir_e1ff47e2fd5e5e58d52186cbb5e819d3&#45;&gt;dir_30cc10f05752a69cba1471ea998c8591</title>
<g id="a_edge6"><a xlink:href="dir_000287_000123.html" target="_top">
<path fill="none" stroke="#63b8ff" d="M296.58,-70.95C302.84,-68.03 310.11,-65.01 317,-63 395.51,-40.15 420.27,-47.46 505.33,-35.04"/>
<polygon fill="#63b8ff" stroke="#63b8ff" points="506.08,-38.46 515.44,-33.51 505.03,-31.54 506.08,-38.46"/>
</a>
</g>
<g id="a_edge6&#45;headlabel"><a xlink:href="dir_000287_000123.html" target="_top" xlink:title="2">
<text text-anchor="middle" x="502.95" y="-39.31" font-family="Helvetica,sans-Serif" font-size="10.00" fill="#63b8ff">2</text>
</a>
</g>
</g>
</g>
</svg>

<g id="navigator" transform="translate(0 0)" fill="#404254">
  <rect fill="#f2f5e9" fill-opacity="0.5" stroke="#606060" stroke-width=".5" x="0" y="0" width="60" height="60"/>
  <use id="zoomplus" xlink:href="#zoomPlus" x="17" y="9" onmousedown="handleZoom(evt,'in')"/>
  <use id="zoomminus" xlink:href="#zoomMin" x="42" y="9" onmousedown="handleZoom(evt,'out')"/>
  <use id="reset" xlink:href="#resetDef" x="30" y="36" onmousedown="handleReset()"/>
   <use id="arrowup" xlink:href="#arrowUp" x="0" y="0" onmousedown="handlePan(0,-1)"/>
  <use id="arrowright" xlink:href="#arrowRight" x="0" y="0" onmousedown="handlePan(1,0)"/>
  <use id="arrowdown" xlink:href="#arrowDown" x="0" y="0" onmousedown="handlePan(0,1)"/>
  <use id="arrowleft" xlink:href="#arrowLeft" x="0" y="0" onmousedown="handlePan(-1,0)"/>
</g>
<svg viewBox="0 0 15 15" width="100%" height="30px" preserveAspectRatio="xMaxYMin meet">
 <g id="arrow_out" transform="scale(0.3 0.3)">
  <a xlink:href="dir_a6a7a0f04864313726ccc3d458a35e2f_dep_org.svg" target="_base">
   <rect id="button" ry="5" rx="5" y="6" x="6" height="38" width="38"
        fill="#f2f5e9" fill-opacity="0.5" stroke="#606060" stroke-width="1.0"/>
   <path id="arrow"
     d="M 11.500037,31.436501 C 11.940474,20.09759 22.043105,11.32322 32.158766,21.979434 L 37.068811,17.246167 C 37.068811,17.246167 37.088388,32 37.088388,32 L 22.160133,31.978069 C 22.160133,31.978069 26.997745,27.140456 26.997745,27.140456 C 18.528582,18.264221 13.291696,25.230495 11.500037,31.436501 z"
     style="fill:#404040;"/>
  </a>
 </g>
</svg>

<style type='text/css'>
<![CDATA[
[data-mouse-over-selected='false'] { opacity: 0.7; }
[data-mouse-over-selected='true']  { opacity: 1.0; }
]]>
</style>
<script type="application/ecmascript"><![CDATA[
document.addEventListener('DOMContentLoaded', (event) => {
  highlightEdges();
  highlightAdjacentNodes();
});
]]></script>
</svg>
