<?xml version="1.0" encoding="UTF-8" standalone="no"?>
<!DOCTYPE svg PUBLIC "-//W3C//DTD SVG 1.1//EN"
 "http://www.w3.org/Graphics/SVG/1.1/DTD/svg11.dtd">
<!-- Generated by graphviz version 2.43.0 (0)
 -->
<!-- Title: mate&#45;settings&#45;daemon Pages: 1 -->
<svg width="334pt" height="196pt"
 viewBox="0.00 0.00 334.00 196.00" xmlns="http://www.w3.org/2000/svg" xmlns:xlink="http://www.w3.org/1999/xlink">
<g id="graph0" class="graph" transform="scale(1 1) rotate(0) translate(4 192)">
<title>mate&#45;settings&#45;daemon</title>
<g id="clust1" class="cluster">
<title>clusterdir_93284278fdeadbeb350f561deaf2cbee</title>
<g id="a_clust1"><a xlink:href="dir_93284278fdeadbeb350f561deaf2cbee.html" target="_top" xlink:title="mate&#45;src">
<polygon fill="#edf0f7" stroke="#404040" stroke-dasharray="5,2" points="8,-8 8,-180 318,-180 318,-8 8,-8"/>
<text text-anchor="middle" x="163" y="-168" font-family="Helvetica,sans-Serif" font-size="10.00">mate&#45;src</text>
</a>
</g>
</g>
<g id="clust2" class="cluster">
<title>clusterdir_74da3ba8185873fae77ff543f3bff557</title>
<g id="a_clust2"><a xlink:href="dir_74da3ba8185873fae77ff543f3bff557.html" target="_top">
<polygon fill="#edf0f7" stroke="#404040" stroke-width="2" points="16,-63 16,-153 230,-153 230,-63 16,-63"/>
</a>
</g>
</g>
<!-- dir_30cc10f05752a69cba1471ea998c8591 -->
<g id="node1" class="node">
<title>dir_30cc10f05752a69cba1471ea998c8591</title>
<g id="a_node1"><a xlink:href="dir_30cc10f05752a69cba1471ea998c8591.html" target="_top" xlink:title="mate&#45;desktop">
<polygon fill="#a2b4d6" stroke="red" points="171.5,-35 86.5,-35 86.5,-16 171.5,-16 171.5,-35"/>
<text text-anchor="middle" x="129" y="-23" font-family="Helvetica,sans-Serif" font-size="10.00">mate&#45;desktop</text>
</a>
</g>
</g>
<!-- dir_d0fd4bdef82780c18fad1c9d2c094b60 -->
<g id="node2" class="node">
<title>dir_d0fd4bdef82780c18fad1c9d2c094b60</title>
<g id="a_node2"><a xlink:href="dir_d0fd4bdef82780c18fad1c9d2c094b60.html" target="_top" xlink:title="libmatekbd">
<polygon fill="#a2b4d6" stroke="red" points="310,-90 238,-90 238,-71 310,-71 310,-90"/>
<text text-anchor="middle" x="274" y="-78" font-family="Helvetica,sans-Serif" font-size="10.00">libmatekbd</text>
</a>
</g>
</g>
<!-- dir_74da3ba8185873fae77ff543f3bff557 -->
<g id="node3" class="node">
<title>dir_74da3ba8185873fae77ff543f3bff557</title>
<text text-anchor="middle" x="158" y="-133" font-family="Helvetica,sans-Serif" font-size="10.00">mate&#45;settings&#45;daemon</text>
</g>
<!-- dir_45acd0f3163508b1934173989bf8251b -->
<g id="node4" class="node">
<title>dir_45acd0f3163508b1934173989bf8251b</title>
<g id="a_node4"><a xlink:href="dir_45acd0f3163508b1934173989bf8251b.html" target="_top" xlink:title="mate&#45;settings&#45;daemon">
<polygon fill="#a2b4d6" stroke="#404040" points="152,-90 24,-90 24,-71 152,-71 152,-90"/>
<text text-anchor="middle" x="88" y="-78" font-family="Helvetica,sans-Serif" font-size="10.00">mate&#45;settings&#45;daemon</text>
</a>
</g>
</g>
<!-- dir_45acd0f3163508b1934173989bf8251b&#45;&gt;dir_30cc10f05752a69cba1471ea998c8591 -->
<g id="edge1" class="edge">
<title>dir_45acd0f3163508b1934173989bf8251b&#45;&gt;dir_30cc10f05752a69cba1471ea998c8591</title>
<g id="a_edge1"><a xlink:href="dir_000142_000123.html" target="_top">
<path fill="none" stroke="#63b8ff" d="M94.77,-70.75C100.56,-63.26 109.06,-52.28 116.14,-43.13"/>
<polygon fill="#63b8ff" stroke="#63b8ff" points="119.01,-45.14 122.36,-35.09 113.47,-40.86 119.01,-45.14"/>
</a>
</g>
<g id="a_edge1&#45;headlabel"><a xlink:href="dir_000142_000123.html" target="_top" xlink:title="1">
<text text-anchor="middle" x="119.05" y="-47.22" font-family="Helvetica,sans-Serif" font-size="10.00" fill="#63b8ff">1</text>
</a>
</g>
</g>
<!-- dir_ba8525dcce09ddebfb3318d8610eb2d6 -->
<g id="node5" class="node">
<title>dir_ba8525dcce09ddebfb3318d8610eb2d6</title>
<g id="a_node5"><a xlink:href="dir_ba8525dcce09ddebfb3318d8610eb2d6.html" target="_top" xlink:title="plugins">
<polygon fill="#a2b4d6" stroke="#404040" points="76,-145 24,-145 24,-126 76,-126 76,-145"/>
<text text-anchor="middle" x="50" y="-133" font-family="Helvetica,sans-Serif" font-size="10.00">plugins</text>
</a>
</g>
</g>
<!-- dir_ba8525dcce09ddebfb3318d8610eb2d6&#45;&gt;dir_30cc10f05752a69cba1471ea998c8591 -->
<g id="edge2" class="edge">
<title>dir_ba8525dcce09ddebfb3318d8610eb2d6&#45;&gt;dir_30cc10f05752a69cba1471ea998c8591</title>
<g id="a_edge2"><a xlink:href="dir_000181_000123.html" target="_top">
<path fill="none" stroke="#63b8ff" d="M76.08,-127.68C105.68,-119.36 151.14,-104.57 161,-90 171.31,-74.76 158.76,-55.74 146.48,-42.51"/>
<polygon fill="#63b8ff" stroke="#63b8ff" points="148.62,-39.7 139.08,-35.1 143.67,-44.65 148.62,-39.7"/>
</a>
</g>
<g id="a_edge2&#45;headlabel"><a xlink:href="dir_000181_000123.html" target="_top" xlink:title="6">
<text text-anchor="middle" x="153.17" y="-37.73" font-family="Helvetica,sans-Serif" font-size="10.00" fill="#63b8ff">6</text>
</a>
</g>
</g>
<!-- dir_ba8525dcce09ddebfb3318d8610eb2d6&#45;&gt;dir_d0fd4bdef82780c18fad1c9d2c094b60 -->
<g id="edge4" class="edge">
<title>dir_ba8525dcce09ddebfb3318d8610eb2d6&#45;&gt;dir_d0fd4bdef82780c18fad1c9d2c094b60</title>
<g id="a_edge4"><a xlink:href="dir_000181_000102.html" target="_top">
<path fill="none" stroke="#63b8ff" d="M76.37,-128.08C79.28,-127.37 82.2,-126.67 85,-126 133.76,-114.34 189.64,-101.21 227.93,-92.25"/>
<polygon fill="#63b8ff" stroke="#63b8ff" points="228.81,-95.64 237.75,-89.96 227.22,-88.82 228.81,-95.64"/>
</a>
</g>
<g id="a_edge4&#45;headlabel"><a xlink:href="dir_000181_000102.html" target="_top" xlink:title="5">
<text text-anchor="middle" x="225.96" y="-96.72" font-family="Helvetica,sans-Serif" font-size="10.00" fill="#63b8ff">5</text>
</a>
</g>
</g>
<!-- dir_ba8525dcce09ddebfb3318d8610eb2d6&#45;&gt;dir_45acd0f3163508b1934173989bf8251b -->
<g id="edge3" class="edge">
<title>dir_ba8525dcce09ddebfb3318d8610eb2d6&#45;&gt;dir_45acd0f3163508b1934173989bf8251b</title>
<g id="a_edge3"><a xlink:href="dir_000181_000142.html" target="_top">
<path fill="none" stroke="#63b8ff" d="M56.27,-125.75C61.59,-118.34 69.36,-107.5 75.88,-98.41"/>
<polygon fill="#63b8ff" stroke="#63b8ff" points="78.86,-100.26 81.84,-90.09 73.17,-96.18 78.86,-100.26"/>
</a>
</g>
<g id="a_edge3&#45;headlabel"><a xlink:href="dir_000181_000142.html" target="_top" xlink:title="55">
<text text-anchor="middle" x="79.07" y="-102.33" font-family="Helvetica,sans-Serif" font-size="10.00" fill="#63b8ff">55</text>
</a>
</g>
</g>
</g>
</svg>
