<?xml version="1.0" encoding="UTF-8" standalone="no"?>
<!DOCTYPE svg PUBLIC "-//W3C//DTD SVG 1.1//EN"
 "http://www.w3.org/Graphics/SVG/1.1/DTD/svg11.dtd">
<!-- Generated by graphviz version 2.43.0 (0)
 -->
<!-- Title: caja&#45;extensions Pages: 1 -->
<!--zoomable 141 -->

<svg id="main" version="1.1" xmlns="http://www.w3.org/2000/svg" xmlns:xlink="http://www.w3.org/1999/xlink" xml:space="preserve" onload="init(evt)">
<style type="text/css"><![CDATA[
.node, .edge {opacity: 0.7;}
.node.selected, .edge.selected {opacity: 1;}
.edge:hover path { stroke: red; }
.edge:hover polygon { stroke: red; fill: red; }
]]></style>

<defs>
  <circle id="rim" cx="0" cy="0" r="7"/>
  <circle id="rim2" cx="0" cy="0" r="3.5"/>
  <g id="zoomPlus">
    <use xlink:href="#rim" fill="#404040"><set attributeName="fill" to="#808080" begin="zoomplus.mouseover" end="zoomplus.mouseout"/></use>
    <path d="M-4,0h8M0,-4v8" fill="none" stroke="white" stroke-width="1.5" pointer-events="none"/>
  </g>
  <g id="zoomMin">
    <use xlink:href="#rim" fill="#404040"><set attributeName="fill" to="#808080" begin="zoomminus.mouseover" end="zoomminus.mouseout"/></use>
    <path d="M-4,0h8" fill="none" stroke="white" stroke-width="1.5" pointer-events="none"/>
  </g>
  <g id="arrowUp" transform="translate(30 24)">
    <use xlink:href="#rim"/>
    <path pointer-events="none" fill="none" stroke="white" stroke-width="1.5" d="M0,-3.0v7 M-2.5,-0.5L0,-3.0L2.5,-0.5"/>
  </g>
  <g id="arrowRight" transform="rotate(90) translate(36 -43)">
    <use xlink:href="#rim"/>
    <path pointer-events="none" fill="none" stroke="white" stroke-width="1.5" d="M0,-3.0v7 M-2.5,-0.5L0,-3.0L2.5,-0.5"/>
  </g>
  <g id="arrowDown" transform="rotate(180) translate(-30 -48)">
    <use xlink:href="#rim"/>
    <path pointer-events="none" fill="none" stroke="white" stroke-width="1.5" d="M0,-3.0v7 M-2.5,-0.5L0,-3.0L2.5,-0.5"/>
  </g>
  <g id="arrowLeft" transform="rotate(270) translate(-36 17)">
    <use xlink:href="#rim"/>
    <path pointer-events="none" fill="none" stroke="white" stroke-width="1.5" d="M0,-3.0v7 M-2.5,-0.5L0,-3.0L2.5,-0.5"/>
  </g>
  <g id="resetDef">
    <use xlink:href="#rim2" fill="#404040"><set attributeName="fill" to="#808080" begin="reset.mouseover" end="reset.mouseout"/></use>
  </g>
</defs>
<script type="application/ecmascript">
var viewWidth = 871;
var viewHeight = 141;
var sectionId = 'dynsection-0';
</script>
<script type="application/ecmascript" xlink:href="svg.min.js"/>
<svg id="graph" class="graph">
<g id="viewport">
<title>caja&#45;extensions</title>
<g id="clust1" class="cluster">
<title>clusterdir_93284278fdeadbeb350f561deaf2cbee</title>
<g id="a_clust1"><a xlink:href="dir_93284278fdeadbeb350f561deaf2cbee.html" target="_top" xlink:title="mate&#45;src">
<polygon fill="#edf0f7" stroke="#404040" stroke-dasharray="5,2" points="8,-8 8,-125 855,-125 855,-8 8,-8"/>
<text text-anchor="middle" x="431.5" y="-113" font-family="Helvetica,sans-Serif" font-size="10.00">mate&#45;src</text>
</a>
</g>
</g>
<g id="clust2" class="cluster">
<title>clusterdir_8ffaa0264a331721d839721aa3e72b14</title>
<g id="a_clust2"><a xlink:href="dir_8ffaa0264a331721d839721aa3e72b14.html" target="_top">
<polygon fill="#edf0f7" stroke="#404040" stroke-width="2" points="16,-63 16,-98 847,-98 847,-63 16,-63"/>
</a>
</g>
</g>
<!-- dir_5000e5bb8bbaa43d122d4f220de37ccb -->
<g id="node1" class="node">
<title>dir_5000e5bb8bbaa43d122d4f220de37ccb</title>
<g id="a_node1"><a xlink:href="dir_5000e5bb8bbaa43d122d4f220de37ccb.html" target="_top" xlink:title="caja">
<polygon fill="#a2b4d6" stroke="red" points="348.5,-35 311.5,-35 311.5,-16 348.5,-16 348.5,-35"/>
<text text-anchor="middle" x="330" y="-23" font-family="Helvetica,sans-Serif" font-size="10.00">caja</text>
</a>
</g>
</g>
<!-- dir_30cc10f05752a69cba1471ea998c8591 -->
<g id="node2" class="node">
<title>dir_30cc10f05752a69cba1471ea998c8591</title>
<g id="a_node2"><a xlink:href="dir_30cc10f05752a69cba1471ea998c8591.html" target="_top" xlink:title="mate&#45;desktop">
<polygon fill="#a2b4d6" stroke="red" points="726.5,-35 641.5,-35 641.5,-16 726.5,-16 726.5,-35"/>
<text text-anchor="middle" x="684" y="-23" font-family="Helvetica,sans-Serif" font-size="10.00">mate&#45;desktop</text>
</a>
</g>
</g>
<!-- dir_8ffaa0264a331721d839721aa3e72b14 -->
<g id="node3" class="node">
<title>dir_8ffaa0264a331721d839721aa3e72b14</title>
<text text-anchor="middle" x="792" y="-78" font-family="Helvetica,sans-Serif" font-size="10.00">caja&#45;extensions</text>
</g>
<!-- dir_d10ce69fd6084d059314c8b80ca0c7aa -->
<g id="node4" class="node">
<title>dir_d10ce69fd6084d059314c8b80ca0c7aa</title>
<g id="a_node4"><a xlink:href="dir_d10ce69fd6084d059314c8b80ca0c7aa.html" target="_top" xlink:title="audio&#45;video&#45;properties">
<polygon fill="#a2b4d6" stroke="#404040" points="539.5,-90 412.5,-90 412.5,-71 539.5,-71 539.5,-90"/>
<text text-anchor="middle" x="476" y="-78" font-family="Helvetica,sans-Serif" font-size="10.00">audio&#45;video&#45;properties</text>
</a>
</g>
</g>
<!-- dir_d10ce69fd6084d059314c8b80ca0c7aa&#45;&gt;dir_5000e5bb8bbaa43d122d4f220de37ccb -->
<g id="edge1" class="edge">
<title>dir_d10ce69fd6084d059314c8b80ca0c7aa&#45;&gt;dir_5000e5bb8bbaa43d122d4f220de37ccb</title>
<g id="a_edge1"><a xlink:href="dir_000014_000023.html" target="_top">
<path fill="none" stroke="#63b8ff" d="M452.54,-70.98C426.84,-61.65 385.63,-46.69 358.19,-36.73"/>
<polygon fill="#63b8ff" stroke="#63b8ff" points="359.35,-33.43 348.76,-33.31 356.96,-40.01 359.35,-33.43"/>
</a>
</g>
<g id="a_edge1&#45;headlabel"><a xlink:href="dir_000014_000023.html" target="_top" xlink:title="3">
<text text-anchor="middle" x="363.7" y="-29.49" font-family="Helvetica,sans-Serif" font-size="10.00" fill="#63b8ff">3</text>
</a>
</g>
</g>
<!-- dir_136eea043fe2bd7f2fff6b4665d72f3e -->
<g id="node5" class="node">
<title>dir_136eea043fe2bd7f2fff6b4665d72f3e</title>
<g id="a_node5"><a xlink:href="dir_136eea043fe2bd7f2fff6b4665d72f3e.html" target="_top" xlink:title="gksu">
<polygon fill="#a2b4d6" stroke="#404040" points="394,-90 354,-90 354,-71 394,-71 394,-90"/>
<text text-anchor="middle" x="374" y="-78" font-family="Helvetica,sans-Serif" font-size="10.00">gksu</text>
</a>
</g>
</g>
<!-- dir_136eea043fe2bd7f2fff6b4665d72f3e&#45;&gt;dir_5000e5bb8bbaa43d122d4f220de37ccb -->
<g id="edge2" class="edge">
<title>dir_136eea043fe2bd7f2fff6b4665d72f3e&#45;&gt;dir_5000e5bb8bbaa43d122d4f220de37ccb</title>
<g id="a_edge2"><a xlink:href="dir_000073_000023.html" target="_top">
<path fill="none" stroke="#63b8ff" d="M366.73,-70.75C360.46,-63.18 351.21,-52.05 343.57,-42.84"/>
<polygon fill="#63b8ff" stroke="#63b8ff" points="346.21,-40.55 337.13,-35.09 340.83,-45.02 346.21,-40.55"/>
</a>
</g>
<g id="a_edge2&#45;headlabel"><a xlink:href="dir_000073_000023.html" target="_top" xlink:title="2">
<text text-anchor="middle" x="350.69" y="-39" font-family="Helvetica,sans-Serif" font-size="10.00" fill="#63b8ff">2</text>
</a>
</g>
</g>
<!-- dir_2d12da49510ac0125a159ea15a2df334 -->
<g id="node6" class="node">
<title>dir_2d12da49510ac0125a159ea15a2df334</title>
<g id="a_node6"><a xlink:href="dir_2d12da49510ac0125a159ea15a2df334.html" target="_top" xlink:title="image&#45;converter">
<polygon fill="#a2b4d6" stroke="#404040" points="336,-90 238,-90 238,-71 336,-71 336,-90"/>
<text text-anchor="middle" x="287" y="-78" font-family="Helvetica,sans-Serif" font-size="10.00">image&#45;converter</text>
</a>
</g>
</g>
<!-- dir_2d12da49510ac0125a159ea15a2df334&#45;&gt;dir_5000e5bb8bbaa43d122d4f220de37ccb -->
<g id="edge3" class="edge">
<title>dir_2d12da49510ac0125a159ea15a2df334&#45;&gt;dir_5000e5bb8bbaa43d122d4f220de37ccb</title>
<g id="a_edge3"><a xlink:href="dir_000083_000023.html" target="_top">
<path fill="none" stroke="#63b8ff" d="M294.1,-70.75C300.17,-63.26 309.09,-52.28 316.51,-43.13"/>
<polygon fill="#63b8ff" stroke="#63b8ff" points="319.45,-45.06 323.03,-35.09 314.01,-40.65 319.45,-45.06"/>
</a>
</g>
<g id="a_edge3&#45;headlabel"><a xlink:href="dir_000083_000023.html" target="_top" xlink:title="4">
<text text-anchor="middle" x="319.39" y="-47.14" font-family="Helvetica,sans-Serif" font-size="10.00" fill="#63b8ff">4</text>
</a>
</g>
</g>
<!-- dir_16d50ca5d8b143a1703c8091b26a86ac -->
<g id="node7" class="node">
<title>dir_16d50ca5d8b143a1703c8091b26a86ac</title>
<g id="a_node7"><a xlink:href="dir_16d50ca5d8b143a1703c8091b26a86ac.html" target="_top" xlink:title="open&#45;terminal">
<polygon fill="#a2b4d6" stroke="#404040" points="727,-90 641,-90 641,-71 727,-71 727,-90"/>
<text text-anchor="middle" x="684" y="-78" font-family="Helvetica,sans-Serif" font-size="10.00">open&#45;terminal</text>
</a>
</g>
</g>
<!-- dir_16d50ca5d8b143a1703c8091b26a86ac&#45;&gt;dir_5000e5bb8bbaa43d122d4f220de37ccb -->
<g id="edge5" class="edge">
<title>dir_16d50ca5d8b143a1703c8091b26a86ac&#45;&gt;dir_5000e5bb8bbaa43d122d4f220de37ccb</title>
<g id="a_edge5"><a xlink:href="dir_000170_000023.html" target="_top">
<path fill="none" stroke="#63b8ff" d="M660.44,-71C651.61,-68.09 641.44,-65.05 632,-63 533.02,-41.51 412.85,-31.73 358.79,-28.18"/>
<polygon fill="#63b8ff" stroke="#63b8ff" points="358.79,-24.67 348.58,-27.53 358.34,-31.66 358.79,-24.67"/>
</a>
</g>
<g id="a_edge5&#45;headlabel"><a xlink:href="dir_000170_000023.html" target="_top" xlink:title="3">
<text text-anchor="middle" x="362.55" y="-19.57" font-family="Helvetica,sans-Serif" font-size="10.00" fill="#63b8ff">3</text>
</a>
</g>
</g>
<!-- dir_16d50ca5d8b143a1703c8091b26a86ac&#45;&gt;dir_30cc10f05752a69cba1471ea998c8591 -->
<g id="edge4" class="edge">
<title>dir_16d50ca5d8b143a1703c8091b26a86ac&#45;&gt;dir_30cc10f05752a69cba1471ea998c8591</title>
<g id="a_edge4"><a xlink:href="dir_000170_000123.html" target="_top">
<path fill="none" stroke="#63b8ff" d="M684,-70.75C684,-63.8 684,-53.85 684,-45.13"/>
<polygon fill="#63b8ff" stroke="#63b8ff" points="687.5,-45.09 684,-35.09 680.5,-45.09 687.5,-45.09"/>
</a>
</g>
<g id="a_edge4&#45;headlabel"><a xlink:href="dir_000170_000123.html" target="_top" xlink:title="1">
<text text-anchor="middle" x="690.34" y="-46.18" font-family="Helvetica,sans-Serif" font-size="10.00" fill="#63b8ff">1</text>
</a>
</g>
</g>
<!-- dir_e5573c5dbdbebd0edcb8c8dcb222772b -->
<g id="node8" class="node">
<title>dir_e5573c5dbdbebd0edcb8c8dcb222772b</title>
<g id="a_node8"><a xlink:href="dir_e5573c5dbdbebd0edcb8c8dcb222772b.html" target="_top" xlink:title="sendto">
<polygon fill="#a2b4d6" stroke="#404040" points="136,-90 86,-90 86,-71 136,-71 136,-90"/>
<text text-anchor="middle" x="111" y="-78" font-family="Helvetica,sans-Serif" font-size="10.00">sendto</text>
</a>
</g>
</g>
<!-- dir_e5573c5dbdbebd0edcb8c8dcb222772b&#45;&gt;dir_5000e5bb8bbaa43d122d4f220de37ccb -->
<g id="edge6" class="edge">
<title>dir_e5573c5dbdbebd0edcb8c8dcb222772b&#45;&gt;dir_5000e5bb8bbaa43d122d4f220de37ccb</title>
<g id="a_edge6"><a xlink:href="dir_000199_000023.html" target="_top">
<path fill="none" stroke="#63b8ff" d="M127.04,-70.93C132.88,-68.08 139.62,-65.1 146,-63 199.49,-45.38 264.68,-34.91 301.35,-29.97"/>
<polygon fill="#63b8ff" stroke="#63b8ff" points="301.87,-33.43 311.34,-28.67 300.97,-26.49 301.87,-33.43"/>
</a>
</g>
<g id="a_edge6&#45;headlabel"><a xlink:href="dir_000199_000023.html" target="_top" xlink:title="5">
<text text-anchor="middle" x="298.67" y="-34.21" font-family="Helvetica,sans-Serif" font-size="10.00" fill="#63b8ff">5</text>
</a>
</g>
</g>
<!-- dir_32b4a8c26a70d311618a27bbd1447e6b -->
<g id="node9" class="node">
<title>dir_32b4a8c26a70d311618a27bbd1447e6b</title>
<g id="a_node9"><a xlink:href="dir_32b4a8c26a70d311618a27bbd1447e6b.html" target="_top" xlink:title="share">
<polygon fill="#a2b4d6" stroke="#404040" points="68,-90 24,-90 24,-71 68,-71 68,-90"/>
<text text-anchor="middle" x="46" y="-78" font-family="Helvetica,sans-Serif" font-size="10.00">share</text>
</a>
</g>
</g>
<!-- dir_32b4a8c26a70d311618a27bbd1447e6b&#45;&gt;dir_5000e5bb8bbaa43d122d4f220de37ccb -->
<g id="edge7" class="edge">
<title>dir_32b4a8c26a70d311618a27bbd1447e6b&#45;&gt;dir_5000e5bb8bbaa43d122d4f220de37ccb</title>
<g id="a_edge7"><a xlink:href="dir_000201_000023.html" target="_top">
<path fill="none" stroke="#63b8ff" d="M59.74,-70.87C64.97,-67.95 71.09,-64.93 77,-63 155.46,-37.33 253.47,-29.69 301.2,-27.44"/>
<polygon fill="#63b8ff" stroke="#63b8ff" points="301.56,-30.92 311.41,-27 301.27,-23.93 301.56,-30.92"/>
</a>
</g>
<g id="a_edge7&#45;headlabel"><a xlink:href="dir_000201_000023.html" target="_top" xlink:title="6">
<text text-anchor="middle" x="298.09" y="-31.41" font-family="Helvetica,sans-Serif" font-size="10.00" fill="#63b8ff">6</text>
</a>
</g>
</g>
<!-- dir_b3a464e9f1fbdff5042d329b1dbda271 -->
<g id="node10" class="node">
<title>dir_b3a464e9f1fbdff5042d329b1dbda271</title>
<g id="a_node10"><a xlink:href="dir_b3a464e9f1fbdff5042d329b1dbda271.html" target="_top" xlink:title="wallpaper">
<polygon fill="#a2b4d6" stroke="#404040" points="622.5,-90 557.5,-90 557.5,-71 622.5,-71 622.5,-90"/>
<text text-anchor="middle" x="590" y="-78" font-family="Helvetica,sans-Serif" font-size="10.00">wallpaper</text>
</a>
</g>
</g>
<!-- dir_b3a464e9f1fbdff5042d329b1dbda271&#45;&gt;dir_5000e5bb8bbaa43d122d4f220de37ccb -->
<g id="edge8" class="edge">
<title>dir_b3a464e9f1fbdff5042d329b1dbda271&#45;&gt;dir_5000e5bb8bbaa43d122d4f220de37ccb</title>
<g id="a_edge8"><a xlink:href="dir_000283_000023.html" target="_top">
<path fill="none" stroke="#63b8ff" d="M571.11,-70.9C564.26,-68.05 556.39,-65.08 549,-63 482.26,-44.25 401.21,-33.83 358.89,-29.29"/>
<polygon fill="#63b8ff" stroke="#63b8ff" points="359.07,-25.79 348.76,-28.24 358.34,-32.75 359.07,-25.79"/>
</a>
</g>
<g id="a_edge8&#45;headlabel"><a xlink:href="dir_000283_000023.html" target="_top" xlink:title="5">
<text text-anchor="middle" x="362.93" y="-20.84" font-family="Helvetica,sans-Serif" font-size="10.00" fill="#63b8ff">5</text>
</a>
</g>
</g>
<!-- dir_d9864a6f74b2c30c0c091dee557ecb86 -->
<g id="node11" class="node">
<title>dir_d9864a6f74b2c30c0c091dee557ecb86</title>
<g id="a_node11"><a xlink:href="dir_d9864a6f74b2c30c0c091dee557ecb86.html" target="_top" xlink:title="xattr&#45;tags">
<polygon fill="#a2b4d6" stroke="#404040" points="219.5,-90 154.5,-90 154.5,-71 219.5,-71 219.5,-90"/>
<text text-anchor="middle" x="187" y="-78" font-family="Helvetica,sans-Serif" font-size="10.00">xattr&#45;tags</text>
</a>
</g>
</g>
<!-- dir_d9864a6f74b2c30c0c091dee557ecb86&#45;&gt;dir_5000e5bb8bbaa43d122d4f220de37ccb -->
<g id="edge9" class="edge">
<title>dir_d9864a6f74b2c30c0c091dee557ecb86&#45;&gt;dir_5000e5bb8bbaa43d122d4f220de37ccb</title>
<g id="a_edge9"><a xlink:href="dir_000289_000023.html" target="_top">
<path fill="none" stroke="#63b8ff" d="M208.32,-70.99C214.93,-68.39 222.26,-65.54 229,-63 253.48,-53.77 281.46,-43.7 301.75,-36.47"/>
<polygon fill="#63b8ff" stroke="#63b8ff" points="303.08,-39.72 311.33,-33.07 300.73,-33.12 303.08,-39.72"/>
</a>
</g>
<g id="a_edge9&#45;headlabel"><a xlink:href="dir_000289_000023.html" target="_top" xlink:title="3">
<text text-anchor="middle" x="300.64" y="-41.1" font-family="Helvetica,sans-Serif" font-size="10.00" fill="#63b8ff">3</text>
</a>
</g>
</g>
</g>
</svg>

<g id="navigator" transform="translate(0 0)" fill="#404254">
  <rect fill="#f2f5e9" fill-opacity="0.5" stroke="#606060" stroke-width=".5" x="0" y="0" width="60" height="60"/>
  <use id="zoomplus" xlink:href="#zoomPlus" x="17" y="9" onmousedown="handleZoom(evt,'in')"/>
  <use id="zoomminus" xlink:href="#zoomMin" x="42" y="9" onmousedown="handleZoom(evt,'out')"/>
  <use id="reset" xlink:href="#resetDef" x="30" y="36" onmousedown="handleReset()"/>
   <use id="arrowup" xlink:href="#arrowUp" x="0" y="0" onmousedown="handlePan(0,-1)"/>
  <use id="arrowright" xlink:href="#arrowRight" x="0" y="0" onmousedown="handlePan(1,0)"/>
  <use id="arrowdown" xlink:href="#arrowDown" x="0" y="0" onmousedown="handlePan(0,1)"/>
  <use id="arrowleft" xlink:href="#arrowLeft" x="0" y="0" onmousedown="handlePan(-1,0)"/>
</g>
<svg viewBox="0 0 15 15" width="100%" height="30px" preserveAspectRatio="xMaxYMin meet">
 <g id="arrow_out" transform="scale(0.3 0.3)">
  <a xlink:href="dir_8ffaa0264a331721d839721aa3e72b14_dep_org.svg" target="_base">
   <rect id="button" ry="5" rx="5" y="6" x="6" height="38" width="38"
        fill="#f2f5e9" fill-opacity="0.5" stroke="#606060" stroke-width="1.0"/>
   <path id="arrow"
     d="M 11.500037,31.436501 C 11.940474,20.09759 22.043105,11.32322 32.158766,21.979434 L 37.068811,17.246167 C 37.068811,17.246167 37.088388,32 37.088388,32 L 22.160133,31.978069 C 22.160133,31.978069 26.997745,27.140456 26.997745,27.140456 C 18.528582,18.264221 13.291696,25.230495 11.500037,31.436501 z"
     style="fill:#404040;"/>
  </a>
 </g>
</svg>

<style type='text/css'>
<![CDATA[
[data-mouse-over-selected='false'] { opacity: 0.7; }
[data-mouse-over-selected='true']  { opacity: 1.0; }
]]>
</style>
<script type="application/ecmascript"><![CDATA[
document.addEventListener('DOMContentLoaded', (event) => {
  highlightEdges();
  highlightAdjacentNodes();
});
]]></script>
</svg>
