<?xml version="1.0" encoding="UTF-8" standalone="no"?>
<!DOCTYPE svg PUBLIC "-//W3C//DTD SVG 1.1//EN"
 "http://www.w3.org/Graphics/SVG/1.1/DTD/svg11.dtd">
<!-- Generated by graphviz version 2.43.0 (0)
 -->
<!-- Title: dlg&#45;package&#45;installer.c Pages: 1 -->
<svg width="780pt" height="467pt"
 viewBox="0.00 0.00 780.00 467.00" xmlns="http://www.w3.org/2000/svg" xmlns:xlink="http://www.w3.org/1999/xlink">
<g id="graph0" class="graph" transform="scale(1 1) rotate(0) translate(4 463)">
<title>dlg&#45;package&#45;installer.c</title>
<!-- Node1 -->
<g id="Node000001" class="node">
<title>Node1</title>
<g id="a_Node000001"><a xlink:title=" ">
<polygon fill="#999999" stroke="#666666" points="568,-459 441,-459 441,-440 568,-440 568,-459"/>
<text text-anchor="middle" x="504.5" y="-447" font-family="Helvetica,sans-Serif" font-size="10.00">dlg&#45;package&#45;installer.c</text>
</a>
</g>
</g>
<!-- Node2 -->
<g id="Node000002" class="node">
<title>Node2</title>
<g id="a_Node000002"><a xlink:title=" ">
<polygon fill="#e0e0e0" stroke="#999999" points="78,-129 23,-129 23,-110 78,-110 78,-129"/>
<text text-anchor="middle" x="50.5" y="-117" font-family="Helvetica,sans-Serif" font-size="10.00">config.h</text>
</a>
</g>
</g>
<!-- Node1&#45;&gt;Node2 -->
<g id="edge1_Node000001_Node000002" class="edge">
<title>Node1&#45;&gt;Node2</title>
<g id="a_edge1_Node000001_Node000002"><a xlink:title=" ">
<path fill="none" stroke="#63b8ff" d="M440.82,-446.68C314.97,-441.34 46.5,-420.56 46.5,-340.5 46.5,-340.5 46.5,-340.5 46.5,-228.5 46.5,-197.17 48.2,-160.76 49.39,-139.23"/>
<polygon fill="#63b8ff" stroke="#63b8ff" points="52.88,-139.36 49.96,-129.18 45.9,-138.96 52.88,-139.36"/>
</a>
</g>
</g>
<!-- Node3 -->
<g id="Node000003" class="node">
<title>Node3</title>
<g id="a_Node000003"><a xlink:title=" ">
<polygon fill="#e0e0e0" stroke="#999999" points="683,-404 630,-404 630,-385 683,-385 683,-404"/>
<text text-anchor="middle" x="656.5" y="-392" font-family="Helvetica,sans-Serif" font-size="10.00">string.h</text>
</a>
</g>
</g>
<!-- Node1&#45;&gt;Node3 -->
<g id="edge2_Node000001_Node000003" class="edge">
<title>Node1&#45;&gt;Node3</title>
<g id="a_edge2_Node000001_Node000003"><a xlink:title=" ">
<path fill="none" stroke="#63b8ff" d="M528.92,-439.98C554.22,-431.16 593.95,-417.31 622.36,-407.41"/>
<polygon fill="#63b8ff" stroke="#63b8ff" points="623.6,-410.68 631.89,-404.08 621.29,-404.07 623.6,-410.68"/>
</a>
</g>
</g>
<!-- Node4 -->
<g id="Node000004" class="node">
<title>Node4</title>
<g id="a_Node000004"><a xlink:title=" ">
<polygon fill="#e0e0e0" stroke="#999999" points="573.5,-349 499.5,-349 499.5,-330 573.5,-330 573.5,-349"/>
<text text-anchor="middle" x="536.5" y="-337" font-family="Helvetica,sans-Serif" font-size="10.00">glib/gi18n.h</text>
</a>
</g>
</g>
<!-- Node1&#45;&gt;Node4 -->
<g id="edge3_Node000001_Node000004" class="edge">
<title>Node1&#45;&gt;Node4</title>
<g id="a_edge3_Node000001_Node000004"><a xlink:title=" ">
<path fill="none" stroke="#63b8ff" d="M507.12,-439.66C512.32,-422.09 524.07,-382.45 531.03,-358.95"/>
<polygon fill="#63b8ff" stroke="#63b8ff" points="534.45,-359.74 533.93,-349.16 527.74,-357.75 534.45,-359.74"/>
</a>
</g>
</g>
<!-- Node5 -->
<g id="Node000005" class="node">
<title>Node5</title>
<g id="a_Node000005"><a xlink:title=" ">
<polygon fill="#e0e0e0" stroke="#999999" points="772,-404 701,-404 701,-385 772,-385 772,-404"/>
<text text-anchor="middle" x="736.5" y="-392" font-family="Helvetica,sans-Serif" font-size="10.00">gdk/gdkx.h</text>
</a>
</g>
</g>
<!-- Node1&#45;&gt;Node5 -->
<g id="edge4_Node000001_Node000005" class="edge">
<title>Node1&#45;&gt;Node5</title>
<g id="a_edge4_Node000001_Node000005"><a xlink:title=" ">
<path fill="none" stroke="#63b8ff" d="M541.77,-439.98C582.42,-430.7 647.47,-415.84 691.07,-405.88"/>
<polygon fill="#63b8ff" stroke="#63b8ff" points="691.87,-409.29 700.84,-403.65 690.31,-402.46 691.87,-409.29"/>
</a>
</g>
</g>
<!-- Node6 -->
<g id="Node000006" class="node">
<title>Node6</title>
<g id="a_Node000006"><a xlink:title=" ">
<polygon fill="#e0e0e0" stroke="#999999" points="463.5,-74 403.5,-74 403.5,-55 463.5,-55 463.5,-74"/>
<text text-anchor="middle" x="433.5" y="-62" font-family="Helvetica,sans-Serif" font-size="10.00">gtk/gtk.h</text>
</a>
</g>
</g>
<!-- Node1&#45;&gt;Node6 -->
<g id="edge5_Node000001_Node000006" class="edge">
<title>Node1&#45;&gt;Node6</title>
<g id="a_edge5_Node000001_Node000006"><a xlink:title=" ">
<path fill="none" stroke="#63b8ff" d="M520.95,-439.97C548.63,-424.3 601.5,-388.13 601.5,-340.5 601.5,-340.5 601.5,-340.5 601.5,-173.5 601.5,-112.84 523.04,-84.65 473.36,-72.88"/>
<polygon fill="#63b8ff" stroke="#63b8ff" points="474.06,-69.45 463.54,-70.68 472.53,-76.28 474.06,-69.45"/>
</a>
</g>
</g>
<!-- Node7 -->
<g id="Node000007" class="node">
<title>Node7</title>
<g id="a_Node000007"><a xlink:href="dlg-package-installer_8h.html" target="_top" xlink:title=" ">
<polygon fill="white" stroke="#666666" points="202.5,-349 74.5,-349 74.5,-330 202.5,-330 202.5,-349"/>
<text text-anchor="middle" x="138.5" y="-337" font-family="Helvetica,sans-Serif" font-size="10.00">dlg&#45;package&#45;installer.h</text>
</a>
</g>
</g>
<!-- Node1&#45;&gt;Node7 -->
<g id="edge6_Node000001_Node000007" class="edge">
<title>Node1&#45;&gt;Node7</title>
<g id="a_edge6_Node000001_Node000007"><a xlink:title=" ">
<path fill="none" stroke="#63b8ff" d="M454.89,-439.96C413.23,-432.25 352.37,-419.71 300.5,-404 252.55,-389.47 198.74,-367.12 166.78,-353.17"/>
<polygon fill="#63b8ff" stroke="#63b8ff" points="168.16,-349.96 157.6,-349.14 165.34,-356.37 168.16,-349.96"/>
</a>
</g>
</g>
<!-- Node19 -->
<g id="Node000019" class="node">
<title>Node19</title>
<g id="a_Node000019"><a xlink:href="gtk-utils_8h.html" target="_top" xlink:title=" ">
<polygon fill="white" stroke="#666666" points="505.5,-404 439.5,-404 439.5,-385 505.5,-385 505.5,-404"/>
<text text-anchor="middle" x="472.5" y="-392" font-family="Helvetica,sans-Serif" font-size="10.00">gtk&#45;utils.h</text>
</a>
</g>
</g>
<!-- Node1&#45;&gt;Node19 -->
<g id="edge28_Node000001_Node000019" class="edge">
<title>Node1&#45;&gt;Node19</title>
<g id="a_edge28_Node000001_Node000019"><a xlink:title=" ">
<path fill="none" stroke="#63b8ff" d="M499.22,-439.75C494.79,-432.42 488.34,-421.73 482.88,-412.7"/>
<polygon fill="#63b8ff" stroke="#63b8ff" points="485.85,-410.84 477.69,-404.09 479.86,-414.46 485.85,-410.84"/>
</a>
</g>
</g>
<!-- Node20 -->
<g id="Node000020" class="node">
<title>Node20</title>
<g id="a_Node000020"><a xlink:href="fr-init_8h.html" target="_top" xlink:title=" ">
<polygon fill="white" stroke="#666666" points="362,-404 309,-404 309,-385 362,-385 362,-404"/>
<text text-anchor="middle" x="335.5" y="-392" font-family="Helvetica,sans-Serif" font-size="10.00">fr&#45;init.h</text>
</a>
</g>
</g>
<!-- Node1&#45;&gt;Node20 -->
<g id="edge32_Node000001_Node000020" class="edge">
<title>Node1&#45;&gt;Node20</title>
<g id="a_edge32_Node000001_Node000020"><a xlink:title=" ">
<path fill="none" stroke="#63b8ff" d="M477.35,-439.98C448.72,-431.01 403.47,-416.82 371.8,-406.88"/>
<polygon fill="#63b8ff" stroke="#63b8ff" points="372.62,-403.47 362.03,-403.82 370.52,-410.15 372.62,-403.47"/>
</a>
</g>
</g>
<!-- Node8 -->
<g id="Node000008" class="node">
<title>Node8</title>
<g id="a_Node000008"><a xlink:href="fr-window_8h.html" target="_top" xlink:title=" ">
<polygon fill="white" stroke="#666666" points="337.5,-294 263.5,-294 263.5,-275 337.5,-275 337.5,-294"/>
<text text-anchor="middle" x="300.5" y="-282" font-family="Helvetica,sans-Serif" font-size="10.00">fr&#45;window.h</text>
</a>
</g>
</g>
<!-- Node7&#45;&gt;Node8 -->
<g id="edge7_Node000007_Node000008" class="edge">
<title>Node7&#45;&gt;Node8</title>
<g id="a_edge7_Node000007_Node000008"><a xlink:title=" ">
<path fill="none" stroke="#63b8ff" d="M164.53,-329.98C191.61,-321.13 234.21,-307.19 264.51,-297.28"/>
<polygon fill="#63b8ff" stroke="#63b8ff" points="265.85,-300.52 274.27,-294.08 263.68,-293.87 265.85,-300.52"/>
</a>
</g>
</g>
<!-- Node8&#45;&gt;Node6 -->
<g id="edge9_Node000008_Node000006" class="edge">
<title>Node8&#45;&gt;Node6</title>
<g id="a_edge9_Node000008_Node000006"><a xlink:title=" ">
<path fill="none" stroke="#63b8ff" d="M305.45,-274.83C312.48,-262.56 325.79,-239.46 337.5,-220 367.65,-169.9 404.41,-111.44 422.44,-82.93"/>
<polygon fill="#63b8ff" stroke="#63b8ff" points="425.61,-84.48 428,-74.16 419.69,-80.73 425.61,-84.48"/>
</a>
</g>
</g>
<!-- Node9 -->
<g id="Node000009" class="node">
<title>Node9</title>
<g id="a_Node000009"><a xlink:title=" ">
<polygon fill="#e0e0e0" stroke="#999999" points="405,-239 346,-239 346,-220 405,-220 405,-239"/>
<text text-anchor="middle" x="375.5" y="-227" font-family="Helvetica,sans-Serif" font-size="10.00">gio/gio.h</text>
</a>
</g>
</g>
<!-- Node8&#45;&gt;Node9 -->
<g id="edge8_Node000008_Node000009" class="edge">
<title>Node8&#45;&gt;Node9</title>
<g id="a_edge8_Node000008_Node000009"><a xlink:title=" ">
<path fill="none" stroke="#63b8ff" d="M312.55,-274.98C323.96,-266.92 341.33,-254.65 354.93,-245.03"/>
<polygon fill="#63b8ff" stroke="#63b8ff" points="357.08,-247.8 363.23,-239.17 353.04,-242.08 357.08,-247.8"/>
</a>
</g>
</g>
<!-- Node10 -->
<g id="Node000010" class="node">
<title>Node10</title>
<g id="a_Node000010"><a xlink:href="typedefs_8h.html" target="_top" xlink:title=" ">
<polygon fill="white" stroke="#666666" points="70.5,-74 2.5,-74 2.5,-55 70.5,-55 70.5,-74"/>
<text text-anchor="middle" x="36.5" y="-62" font-family="Helvetica,sans-Serif" font-size="10.00">typedefs.h</text>
</a>
</g>
</g>
<!-- Node8&#45;&gt;Node10 -->
<g id="edge10_Node000008_Node000010" class="edge">
<title>Node8&#45;&gt;Node10</title>
<g id="a_edge10_Node000008_Node000010"><a xlink:title=" ">
<path fill="none" stroke="#63b8ff" d="M280.48,-274.93C261.36,-266.51 231.91,-252.93 207.5,-239 169.39,-217.25 154.85,-216.63 125.5,-184 100.64,-156.36 109.42,-139.27 86.5,-110 77.86,-98.96 66.25,-88.44 56.4,-80.41"/>
<polygon fill="#63b8ff" stroke="#63b8ff" points="58.33,-77.47 48.31,-74.03 54,-82.97 58.33,-77.47"/>
</a>
</g>
</g>
<!-- Node13 -->
<g id="Node000013" class="node">
<title>Node13</title>
<g id="a_Node000013"><a xlink:href="fr-archive_8h.html" target="_top" xlink:title=" ">
<polygon fill="white" stroke="#666666" points="289,-239 216,-239 216,-220 289,-220 289,-239"/>
<text text-anchor="middle" x="252.5" y="-227" font-family="Helvetica,sans-Serif" font-size="10.00">fr&#45;archive.h</text>
</a>
</g>
</g>
<!-- Node8&#45;&gt;Node13 -->
<g id="edge13_Node000008_Node000013" class="edge">
<title>Node8&#45;&gt;Node13</title>
<g id="a_edge13_Node000008_Node000013"><a xlink:title=" ">
<path fill="none" stroke="#63b8ff" d="M292.57,-274.75C285.65,-267.11 275.43,-255.82 267.05,-246.56"/>
<polygon fill="#63b8ff" stroke="#63b8ff" points="269.59,-244.15 260.28,-239.09 264.4,-248.85 269.59,-244.15"/>
</a>
</g>
</g>
<!-- Node11 -->
<g id="Node000011" class="node">
<title>Node11</title>
<g id="a_Node000011"><a xlink:title=" ">
<polygon fill="#e0e0e0" stroke="#999999" points="205.5,-19 161.5,-19 161.5,0 205.5,0 205.5,-19"/>
<text text-anchor="middle" x="183.5" y="-7" font-family="Helvetica,sans-Serif" font-size="10.00">glib.h</text>
</a>
</g>
</g>
<!-- Node10&#45;&gt;Node11 -->
<g id="edge11_Node000010_Node000011" class="edge">
<title>Node10&#45;&gt;Node11</title>
<g id="a_edge11_Node000010_Node000011"><a xlink:title=" ">
<path fill="none" stroke="#63b8ff" d="M60.12,-54.98C84.98,-46.02 124.27,-31.86 151.81,-21.92"/>
<polygon fill="#63b8ff" stroke="#63b8ff" points="153.16,-25.16 161.38,-18.47 150.79,-18.57 153.16,-25.16"/>
</a>
</g>
</g>
<!-- Node12 -->
<g id="Node000012" class="node">
<title>Node12</title>
<g id="a_Node000012"><a xlink:title=" ">
<polygon fill="#e0e0e0" stroke="#999999" points="77,-19 0,-19 0,0 77,0 77,-19"/>
<text text-anchor="middle" x="38.5" y="-7" font-family="Helvetica,sans-Serif" font-size="10.00">glib&#45;object.h</text>
</a>
</g>
</g>
<!-- Node10&#45;&gt;Node12 -->
<g id="edge12_Node000010_Node000012" class="edge">
<title>Node10&#45;&gt;Node12</title>
<g id="a_edge12_Node000010_Node000012"><a xlink:title=" ">
<path fill="none" stroke="#63b8ff" d="M36.83,-54.75C37.09,-47.8 37.47,-37.85 37.8,-29.13"/>
<polygon fill="#63b8ff" stroke="#63b8ff" points="41.3,-29.21 38.18,-19.09 34.3,-28.95 41.3,-29.21"/>
</a>
</g>
</g>
<!-- Node13&#45;&gt;Node11 -->
<g id="edge14_Node000013_Node000011" class="edge">
<title>Node13&#45;&gt;Node11</title>
<g id="a_edge14_Node000013_Node000011"><a xlink:title=" ">
<path fill="none" stroke="#63b8ff" d="M262.23,-219.86C290.99,-193.28 371.08,-111.14 329.5,-55 303.42,-19.78 250.1,-11.5 215.62,-10.04"/>
<polygon fill="#63b8ff" stroke="#63b8ff" points="215.66,-6.54 205.58,-9.79 215.48,-13.54 215.66,-6.54"/>
</a>
</g>
</g>
<!-- Node14 -->
<g id="Node000014" class="node">
<title>Node14</title>
<g id="a_Node000014"><a xlink:href="fr-process_8h.html" target="_top" xlink:title=" ">
<polygon fill="white" stroke="#666666" points="285.5,-129 211.5,-129 211.5,-110 285.5,-110 285.5,-129"/>
<text text-anchor="middle" x="248.5" y="-117" font-family="Helvetica,sans-Serif" font-size="10.00">fr&#45;process.h</text>
</a>
</g>
</g>
<!-- Node13&#45;&gt;Node14 -->
<g id="edge15_Node000013_Node000014" class="edge">
<title>Node13&#45;&gt;Node14</title>
<g id="a_edge15_Node000013_Node000014"><a xlink:title=" ">
<path fill="none" stroke="#63b8ff" d="M255.56,-219.88C259.5,-207.66 265.52,-184.63 262.5,-165 261.15,-156.19 258.37,-146.74 255.65,-138.82"/>
<polygon fill="#63b8ff" stroke="#63b8ff" points="258.84,-137.35 252.1,-129.18 252.27,-139.77 258.84,-137.35"/>
</a>
</g>
</g>
<!-- Node16 -->
<g id="Node000016" class="node">
<title>Node16</title>
<g id="a_Node000016"><a xlink:href="fr-command_8h.html" target="_top" xlink:title=" ">
<polygon fill="white" stroke="#666666" points="220.5,-184 134.5,-184 134.5,-165 220.5,-165 220.5,-184"/>
<text text-anchor="middle" x="177.5" y="-172" font-family="Helvetica,sans-Serif" font-size="10.00">fr&#45;command.h</text>
</a>
</g>
</g>
<!-- Node13&#45;&gt;Node16 -->
<g id="edge20_Node000013_Node000016" class="edge">
<title>Node13&#45;&gt;Node16</title>
<g id="a_edge20_Node000013_Node000016"><a xlink:title=" ">
<path fill="none" stroke="#63b8ff" d="M240.45,-219.98C229.04,-211.92 211.67,-199.65 198.07,-190.03"/>
<polygon fill="#63b8ff" stroke="#63b8ff" points="199.96,-187.08 189.77,-184.17 195.92,-192.8 199.96,-187.08"/>
</a>
</g>
</g>
<!-- Node14&#45;&gt;Node6 -->
<g id="edge17_Node000014_Node000006" class="edge">
<title>Node14&#45;&gt;Node6</title>
<g id="a_edge17_Node000014_Node000006"><a xlink:title=" ">
<path fill="none" stroke="#63b8ff" d="M278.22,-109.98C309.55,-101.01 359.07,-86.82 393.74,-76.89"/>
<polygon fill="#63b8ff" stroke="#63b8ff" points="394.89,-80.2 403.54,-74.08 392.97,-73.47 394.89,-80.2"/>
</a>
</g>
</g>
<!-- Node14&#45;&gt;Node10 -->
<g id="edge19_Node000014_Node000010" class="edge">
<title>Node14&#45;&gt;Node10</title>
<g id="a_edge19_Node000014_Node000010"><a xlink:title=" ">
<path fill="none" stroke="#63b8ff" d="M214.44,-109.98C178.08,-100.89 120.33,-86.46 80.53,-76.51"/>
<polygon fill="#63b8ff" stroke="#63b8ff" points="81.38,-73.11 70.83,-74.08 79.68,-79.9 81.38,-73.11"/>
</a>
</g>
</g>
<!-- Node14&#45;&gt;Node11 -->
<g id="edge16_Node000014_Node000011" class="edge">
<title>Node14&#45;&gt;Node11</title>
<g id="a_edge16_Node000014_Node000011"><a xlink:title=" ">
<path fill="none" stroke="#63b8ff" d="M243.18,-109.66C232.46,-91.85 208.1,-51.37 194.04,-28.01"/>
<polygon fill="#63b8ff" stroke="#63b8ff" points="196.87,-25.92 188.71,-19.16 190.87,-29.53 196.87,-25.92"/>
</a>
</g>
</g>
<!-- Node15 -->
<g id="Node000015" class="node">
<title>Node15</title>
<g id="a_Node000015"><a xlink:title=" ">
<polygon fill="#e0e0e0" stroke="#999999" points="320.5,-74 248.5,-74 248.5,-55 320.5,-55 320.5,-74"/>
<text text-anchor="middle" x="284.5" y="-62" font-family="Helvetica,sans-Serif" font-size="10.00">sys/types.h</text>
</a>
</g>
</g>
<!-- Node14&#45;&gt;Node15 -->
<g id="edge18_Node000014_Node000015" class="edge">
<title>Node14&#45;&gt;Node15</title>
<g id="a_edge18_Node000014_Node000015"><a xlink:title=" ">
<path fill="none" stroke="#63b8ff" d="M254.44,-109.75C259.48,-102.34 266.84,-91.5 273.01,-82.41"/>
<polygon fill="#63b8ff" stroke="#63b8ff" points="275.94,-84.33 278.67,-74.09 270.15,-80.39 275.94,-84.33"/>
</a>
</g>
</g>
<!-- Node16&#45;&gt;Node2 -->
<g id="edge21_Node000016_Node000002" class="edge">
<title>Node16&#45;&gt;Node2</title>
<g id="a_edge21_Node000016_Node000002"><a xlink:title=" ">
<path fill="none" stroke="#63b8ff" d="M157.1,-164.98C136.48,-156.38 104.39,-142.99 80.81,-133.15"/>
<polygon fill="#63b8ff" stroke="#63b8ff" points="81.85,-129.79 71.28,-129.17 79.16,-136.25 81.85,-129.79"/>
</a>
</g>
</g>
<!-- Node16&#45;&gt;Node11 -->
<g id="edge22_Node000016_Node000011" class="edge">
<title>Node16&#45;&gt;Node11</title>
<g id="a_edge22_Node000016_Node000011"><a xlink:title=" ">
<path fill="none" stroke="#63b8ff" d="M177.82,-164.74C178.76,-139.31 181.49,-65.08 182.79,-29.69"/>
<polygon fill="#63b8ff" stroke="#63b8ff" points="186.31,-29.43 183.18,-19.31 179.31,-29.17 186.31,-29.43"/>
</a>
</g>
</g>
<!-- Node16&#45;&gt;Node14 -->
<g id="edge27_Node000016_Node000014" class="edge">
<title>Node16&#45;&gt;Node14</title>
<g id="a_edge27_Node000016_Node000014"><a xlink:title=" ">
<path fill="none" stroke="#63b8ff" d="M188.91,-164.98C199.61,-157 215.84,-144.88 228.66,-135.31"/>
<polygon fill="#63b8ff" stroke="#63b8ff" points="230.97,-137.96 236.89,-129.17 226.78,-132.35 230.97,-137.96"/>
</a>
</g>
</g>
<!-- Node17 -->
<g id="Node000017" class="node">
<title>Node17</title>
<g id="a_Node000017"><a xlink:href="file-data_8h.html" target="_top" xlink:title=" ">
<polygon fill="white" stroke="#666666" points="154.5,-74 88.5,-74 88.5,-55 154.5,-55 154.5,-74"/>
<text text-anchor="middle" x="121.5" y="-62" font-family="Helvetica,sans-Serif" font-size="10.00">file&#45;data.h</text>
</a>
</g>
</g>
<!-- Node16&#45;&gt;Node17 -->
<g id="edge23_Node000016_Node000017" class="edge">
<title>Node16&#45;&gt;Node17</title>
<g id="a_edge23_Node000016_Node000017"><a xlink:title=" ">
<path fill="none" stroke="#63b8ff" d="M172.92,-164.66C163.72,-146.93 142.88,-106.73 130.74,-83.32"/>
<polygon fill="#63b8ff" stroke="#63b8ff" points="133.7,-81.42 125.99,-74.16 127.49,-84.65 133.7,-81.42"/>
</a>
</g>
</g>
<!-- Node17&#45;&gt;Node11 -->
<g id="edge24_Node000017_Node000011" class="edge">
<title>Node17&#45;&gt;Node11</title>
<g id="a_edge24_Node000017_Node000011"><a xlink:title=" ">
<path fill="none" stroke="#63b8ff" d="M131.46,-54.98C140.63,-47.15 154.44,-35.34 165.53,-25.86"/>
<polygon fill="#63b8ff" stroke="#63b8ff" points="168.03,-28.33 173.36,-19.17 163.48,-23.01 168.03,-28.33"/>
</a>
</g>
</g>
<!-- Node17&#45;&gt;Node12 -->
<g id="edge25_Node000017_Node000012" class="edge">
<title>Node17&#45;&gt;Node12</title>
<g id="a_edge25_Node000017_Node000012"><a xlink:title=" ">
<path fill="none" stroke="#63b8ff" d="M108.16,-54.98C95.41,-46.84 75.95,-34.41 60.83,-24.76"/>
<polygon fill="#63b8ff" stroke="#63b8ff" points="62.39,-21.6 52.08,-19.17 58.62,-27.5 62.39,-21.6"/>
</a>
</g>
</g>
<!-- Node18 -->
<g id="Node000018" class="node">
<title>Node18</title>
<g id="a_Node000018"><a xlink:title=" ">
<polygon fill="#e0e0e0" stroke="#999999" points="143.5,-19 95.5,-19 95.5,0 143.5,0 143.5,-19"/>
<text text-anchor="middle" x="119.5" y="-7" font-family="Helvetica,sans-Serif" font-size="10.00">time.h</text>
</a>
</g>
</g>
<!-- Node17&#45;&gt;Node18 -->
<g id="edge26_Node000017_Node000018" class="edge">
<title>Node17&#45;&gt;Node18</title>
<g id="a_edge26_Node000017_Node000018"><a xlink:title=" ">
<path fill="none" stroke="#63b8ff" d="M121.17,-54.75C120.91,-47.8 120.53,-37.85 120.2,-29.13"/>
<polygon fill="#63b8ff" stroke="#63b8ff" points="123.7,-28.95 119.82,-19.09 116.7,-29.21 123.7,-28.95"/>
</a>
</g>
</g>
<!-- Node19&#45;&gt;Node4 -->
<g id="edge29_Node000019_Node000004" class="edge">
<title>Node19&#45;&gt;Node4</title>
<g id="a_edge29_Node000019_Node000004"><a xlink:title=" ">
<path fill="none" stroke="#63b8ff" d="M482.78,-384.98C492.34,-377.07 506.78,-365.11 518.28,-355.58"/>
<polygon fill="#63b8ff" stroke="#63b8ff" points="520.56,-358.24 526.03,-349.17 516.1,-352.85 520.56,-358.24"/>
</a>
</g>
</g>
<!-- Node19&#45;&gt;Node6 -->
<g id="edge31_Node000019_Node000006" class="edge">
<title>Node19&#45;&gt;Node6</title>
<g id="a_edge31_Node000019_Node000006"><a xlink:title=" ">
<path fill="none" stroke="#63b8ff" d="M472.37,-384.82C472.09,-366.48 471.5,-322.44 471.5,-285.5 471.5,-285.5 471.5,-285.5 471.5,-173.5 471.5,-140.02 455.05,-103.84 443.8,-83.01"/>
<polygon fill="#63b8ff" stroke="#63b8ff" points="446.74,-81.1 438.78,-74.1 440.63,-84.53 446.74,-81.1"/>
</a>
</g>
</g>
<!-- Node19&#45;&gt;Node9 -->
<g id="edge30_Node000019_Node000009" class="edge">
<title>Node19&#45;&gt;Node9</title>
<g id="a_edge30_Node000019_Node000009"><a xlink:title=" ">
<path fill="none" stroke="#63b8ff" d="M467.28,-384.74C451.96,-358.98 406.82,-283.13 386.11,-248.33"/>
<polygon fill="#63b8ff" stroke="#63b8ff" points="388.86,-246.11 380.74,-239.31 382.85,-249.69 388.86,-246.11"/>
</a>
</g>
</g>
<!-- Node20&#45;&gt;Node8 -->
<g id="edge38_Node000020_Node000008" class="edge">
<title>Node20&#45;&gt;Node8</title>
<g id="a_edge38_Node000020_Node000008"><a xlink:title=" ">
<path fill="none" stroke="#63b8ff" d="M341.13,-384.96C348.62,-372.45 359.97,-348.63 351.5,-330 345.88,-317.63 334.93,-307.36 324.61,-299.81"/>
<polygon fill="#63b8ff" stroke="#63b8ff" points="326.47,-296.84 316.23,-294.12 322.54,-302.63 326.47,-296.84"/>
</a>
</g>
</g>
<!-- Node20&#45;&gt;Node14 -->
<g id="edge37_Node000020_Node000014" class="edge">
<title>Node20&#45;&gt;Node14</title>
<g id="a_edge37_Node000020_Node000014"><a xlink:title=" ">
<path fill="none" stroke="#63b8ff" d="M308.94,-385.22C290.37,-378.22 266.17,-366.49 250.5,-349 215.47,-309.9 217.22,-290.58 207.5,-239 205.94,-230.7 205.21,-228.13 207.5,-220 212.58,-201.95 221.86,-201.12 229.5,-184 235.95,-169.53 240.96,-152.26 244.21,-139.39"/>
<polygon fill="#63b8ff" stroke="#63b8ff" points="247.68,-139.92 246.61,-129.38 240.87,-138.29 247.68,-139.92"/>
</a>
</g>
</g>
<!-- Node21 -->
<g id="Node000021" class="node">
<title>Node21</title>
<g id="a_Node000021"><a xlink:href="preferences_8h.html" target="_top" xlink:title=" ">
<polygon fill="white" stroke="#666666" points="342,-349 259,-349 259,-330 342,-330 342,-349"/>
<text text-anchor="middle" x="300.5" y="-337" font-family="Helvetica,sans-Serif" font-size="10.00">preferences.h</text>
</a>
</g>
</g>
<!-- Node20&#45;&gt;Node21 -->
<g id="edge33_Node000020_Node000021" class="edge">
<title>Node20&#45;&gt;Node21</title>
<g id="a_edge33_Node000020_Node000021"><a xlink:title=" ">
<path fill="none" stroke="#63b8ff" d="M329.72,-384.75C324.88,-377.42 317.82,-366.73 311.86,-357.7"/>
<polygon fill="#63b8ff" stroke="#63b8ff" points="314.6,-355.5 306.17,-349.09 308.76,-359.36 314.6,-355.5"/>
</a>
</g>
</g>
<!-- Node21&#45;&gt;Node6 -->
<g id="edge34_Node000021_Node000006" class="edge">
<title>Node21&#45;&gt;Node6</title>
<g id="a_edge34_Node000021_Node000006"><a xlink:title=" ">
<path fill="none" stroke="#63b8ff" d="M316.34,-329.97C341.95,-315.21 391.89,-282.31 414.5,-239 441.09,-188.06 438.71,-117.38 435.69,-84.16"/>
<polygon fill="#63b8ff" stroke="#63b8ff" points="439.16,-83.65 434.64,-74.07 432.2,-84.38 439.16,-83.65"/>
</a>
</g>
</g>
<!-- Node21&#45;&gt;Node8 -->
<g id="edge36_Node000021_Node000008" class="edge">
<title>Node21&#45;&gt;Node8</title>
<g id="a_edge36_Node000021_Node000008"><a xlink:title=" ">
<path fill="none" stroke="#63b8ff" d="M300.5,-329.75C300.5,-322.8 300.5,-312.85 300.5,-304.13"/>
<polygon fill="#63b8ff" stroke="#63b8ff" points="304,-304.09 300.5,-294.09 297,-304.09 304,-304.09"/>
</a>
</g>
</g>
<!-- Node21&#45;&gt;Node10 -->
<g id="edge35_Node000021_Node000010" class="edge">
<title>Node21&#45;&gt;Node10</title>
<g id="a_edge35_Node000021_Node000010"><a xlink:title=" ">
<path fill="none" stroke="#63b8ff" d="M276.84,-329.97C218.91,-307.61 70.51,-241.19 13.5,-129 5.82,-113.88 14.16,-95.58 22.87,-82.51"/>
<polygon fill="#63b8ff" stroke="#63b8ff" points="25.71,-84.56 28.76,-74.41 20.05,-80.44 25.71,-84.56"/>
</a>
</g>
</g>
</g>
</svg>
