<?xml version="1.0" encoding="UTF-8" standalone="no"?>
<!DOCTYPE svg PUBLIC "-//W3C//DTD SVG 1.1//EN"
 "http://www.w3.org/Graphics/SVG/1.1/DTD/svg11.dtd">
<!-- Generated by graphviz version 2.43.0 (0)
 -->
<!-- Title: eel&#45;canvas.h Pages: 1 -->
<svg width="2002pt" height="324pt"
 viewBox="0.00 0.00 2002.47 324.00" xmlns="http://www.w3.org/2000/svg" xmlns:xlink="http://www.w3.org/1999/xlink">
<g id="graph0" class="graph" transform="scale(1 1) rotate(0) translate(4 320)">
<title>eel&#45;canvas.h</title>
<!-- Node1 -->
<g id="Node000001" class="node">
<title>Node1</title>
<g id="a_Node000001"><a xlink:title=" ">
<polygon fill="#999999" stroke="#666666" points="1769.97,-316 1690.97,-316 1690.97,-297 1769.97,-297 1769.97,-316"/>
<text text-anchor="middle" x="1730.47" y="-304" font-family="Helvetica,sans-Serif" font-size="10.00">eel&#45;canvas.h</text>
</a>
</g>
</g>
<!-- Node2 -->
<g id="Node000002" class="node">
<title>Node2</title>
<g id="a_Node000002"><a xlink:href="caja-icon-canvas-item_8h.html" target="_top" xlink:title=" ">
<polygon fill="white" stroke="#666666" points="1670.47,-206 1536.47,-206 1536.47,-187 1670.47,-187 1670.47,-206"/>
<text text-anchor="middle" x="1603.47" y="-194" font-family="Helvetica,sans-Serif" font-size="10.00">caja&#45;icon&#45;canvas&#45;item.h</text>
</a>
</g>
</g>
<!-- Node1&#45;&gt;Node2 -->
<g id="edge1_Node000001_Node000002" class="edge">
<title>Node1&#45;&gt;Node2</title>
<g id="a_edge1_Node000001_Node000002"><a xlink:title=" ">
<path fill="none" stroke="#63b8ff" d="M1712.14,-289.91C1685,-266.83 1635.06,-224.37 1613.65,-206.16"/>
<polygon fill="#63b8ff" stroke="#63b8ff" points="1710.19,-292.85 1720.08,-296.66 1714.73,-287.52 1710.19,-292.85"/>
</a>
</g>
</g>
<!-- Node5 -->
<g id="Node000005" class="node">
<title>Node5</title>
<g id="a_Node000005"><a xlink:href="caja-icon-container_8c.html" target="_top" xlink:title=" ">
<polygon fill="white" stroke="#666666" points="1825.47,-85 1707.47,-85 1707.47,-66 1825.47,-66 1825.47,-85"/>
<text text-anchor="middle" x="1766.47" y="-73" font-family="Helvetica,sans-Serif" font-size="10.00">caja&#45;icon&#45;container.c</text>
</a>
</g>
</g>
<!-- Node1&#45;&gt;Node5 -->
<g id="edge10_Node000001_Node000005" class="edge">
<title>Node1&#45;&gt;Node5</title>
<g id="a_edge10_Node000001_Node000005"><a xlink:title=" ">
<path fill="none" stroke="#63b8ff" d="M1733.41,-286.82C1740.78,-239.94 1759.83,-118.73 1765.1,-85.21"/>
<polygon fill="#63b8ff" stroke="#63b8ff" points="1729.93,-286.38 1731.84,-296.8 1736.85,-287.47 1729.93,-286.38"/>
</a>
</g>
</g>
<!-- Node8 -->
<g id="Node000008" class="node">
<title>Node8</title>
<g id="a_Node000008"><a xlink:href="fm-icon-view_8c.html" target="_top" xlink:title=" ">
<polygon fill="white" stroke="#666666" points="1022.47,-24.5 934.47,-24.5 934.47,-5.5 1022.47,-5.5 1022.47,-24.5"/>
<text text-anchor="middle" x="978.47" y="-12.5" font-family="Helvetica,sans-Serif" font-size="10.00">fm&#45;icon&#45;view.c</text>
</a>
</g>
</g>
<!-- Node1&#45;&gt;Node8 -->
<g id="edge63_Node000001_Node000008" class="edge">
<title>Node1&#45;&gt;Node8</title>
<g id="a_edge63_Node000001_Node000008"><a xlink:title=" ">
<path fill="none" stroke="#63b8ff" d="M1680.73,-302.03C1481.06,-287.59 745.49,-229.36 680.47,-151 671.96,-140.74 671.69,-131.04 680.47,-121 759.59,-30.54 852.59,-157.45 948.47,-85 968.06,-70.19 975.06,-39.92 977.39,-24.89"/>
<polygon fill="#63b8ff" stroke="#63b8ff" points="1680.7,-305.53 1690.92,-302.76 1681.2,-298.55 1680.7,-305.53"/>
</a>
</g>
</g>
<!-- Node9 -->
<g id="Node000009" class="node">
<title>Node9</title>
<g id="a_Node000009"><a xlink:href="caja-icon-container_8h.html" target="_top" xlink:title=" ">
<polygon fill="white" stroke="#666666" points="1393.97,-261 1274.97,-261 1274.97,-242 1393.97,-242 1393.97,-261"/>
<text text-anchor="middle" x="1334.47" y="-249" font-family="Helvetica,sans-Serif" font-size="10.00">caja&#45;icon&#45;container.h</text>
</a>
</g>
</g>
<!-- Node1&#45;&gt;Node9 -->
<g id="edge11_Node000001_Node000009" class="edge">
<title>Node1&#45;&gt;Node9</title>
<g id="a_edge11_Node000001_Node000009"><a xlink:title=" ">
<path fill="none" stroke="#63b8ff" d="M1680.39,-298.8C1607.42,-289.03 1472.09,-270.92 1394.08,-260.48"/>
<polygon fill="#63b8ff" stroke="#63b8ff" points="1680.31,-302.32 1690.69,-300.18 1681.24,-295.38 1680.31,-302.32"/>
</a>
</g>
</g>
<!-- Node32 -->
<g id="Node000032" class="node">
<title>Node32</title>
<g id="a_Node000032"><a xlink:href="eel-background_8c.html" target="_top" xlink:title=" ">
<polygon fill="white" stroke="#666666" points="1859.97,-261 1758.97,-261 1758.97,-242 1859.97,-242 1859.97,-261"/>
<text text-anchor="middle" x="1809.47" y="-249" font-family="Helvetica,sans-Serif" font-size="10.00">eel&#45;background.c</text>
</a>
</g>
</g>
<!-- Node1&#45;&gt;Node32 -->
<g id="edge57_Node000001_Node000032" class="edge">
<title>Node1&#45;&gt;Node32</title>
<g id="a_edge57_Node000001_Node000032"><a xlink:title=" ">
<path fill="none" stroke="#63b8ff" d="M1751.86,-291.15C1766.14,-281.57 1784.45,-269.29 1796.55,-261.17"/>
<polygon fill="#63b8ff" stroke="#63b8ff" points="1749.52,-288.51 1743.16,-296.98 1753.42,-294.32 1749.52,-288.51"/>
</a>
</g>
</g>
<!-- Node33 -->
<g id="Node000033" class="node">
<title>Node33</title>
<g id="a_Node000033"><a xlink:href="eel-canvas-rect-ellipse_8h.html" target="_top" xlink:title=" ">
<polygon fill="white" stroke="#666666" points="1941.97,-145.5 1804.97,-145.5 1804.97,-126.5 1941.97,-126.5 1941.97,-145.5"/>
<text text-anchor="middle" x="1873.47" y="-133.5" font-family="Helvetica,sans-Serif" font-size="10.00">eel&#45;canvas&#45;rect&#45;ellipse.h</text>
</a>
</g>
</g>
<!-- Node1&#45;&gt;Node33 -->
<g id="edge58_Node000001_Node000033" class="edge">
<title>Node1&#45;&gt;Node33</title>
<g id="a_edge58_Node000001_Node000033"><a xlink:title=" ">
<path fill="none" stroke="#63b8ff" d="M1780.32,-303.39C1811.22,-299.22 1848.83,-288.35 1869.47,-261 1896.07,-225.76 1882.64,-167.44 1876.23,-145.61"/>
<polygon fill="#63b8ff" stroke="#63b8ff" points="1779.66,-299.94 1770.13,-304.56 1780.46,-306.9 1779.66,-299.94"/>
</a>
</g>
</g>
<!-- Node35 -->
<g id="Node000035" class="node">
<title>Node35</title>
<g id="a_Node000035"><a xlink:href="eel-canvas_8c.html" target="_top" xlink:title=" ">
<polygon fill="white" stroke="#666666" points="1994.47,-261 1916.47,-261 1916.47,-242 1994.47,-242 1994.47,-261"/>
<text text-anchor="middle" x="1955.47" y="-249" font-family="Helvetica,sans-Serif" font-size="10.00">eel&#45;canvas.c</text>
</a>
</g>
</g>
<!-- Node1&#45;&gt;Node35 -->
<g id="edge62_Node000001_Node000035" class="edge">
<title>Node1&#45;&gt;Node35</title>
<g id="a_edge62_Node000001_Node000035"><a xlink:title=" ">
<path fill="none" stroke="#63b8ff" d="M1776.36,-294.69C1818.52,-284.76 1880.17,-270.24 1919.04,-261.08"/>
<polygon fill="#63b8ff" stroke="#63b8ff" points="1775.55,-291.28 1766.62,-296.98 1777.16,-298.1 1775.55,-291.28"/>
</a>
</g>
</g>
<!-- Node3 -->
<g id="Node000003" class="node">
<title>Node3</title>
<g id="a_Node000003"><a xlink:href="caja-icon-canvas-item_8c.html" target="_top" xlink:title=" ">
<polygon fill="white" stroke="#666666" points="1651.47,-85 1517.47,-85 1517.47,-66 1651.47,-66 1651.47,-85"/>
<text text-anchor="middle" x="1584.47" y="-73" font-family="Helvetica,sans-Serif" font-size="10.00">caja&#45;icon&#45;canvas&#45;item.c</text>
</a>
</g>
</g>
<!-- Node2&#45;&gt;Node3 -->
<g id="edge2_Node000002_Node000003" class="edge">
<title>Node2&#45;&gt;Node3</title>
<g id="a_edge2_Node000002_Node000003"><a xlink:title=" ">
<path fill="none" stroke="#63b8ff" d="M1600.5,-176.86C1596.34,-150.81 1588.95,-104.56 1585.88,-85.3"/>
<polygon fill="#63b8ff" stroke="#63b8ff" points="1597.07,-177.62 1602.11,-186.94 1603.99,-176.52 1597.07,-177.62"/>
</a>
</g>
</g>
<!-- Node4 -->
<g id="Node000004" class="node">
<title>Node4</title>
<g id="a_Node000004"><a xlink:href="caja-icon-private_8h.html" target="_top" xlink:title=" ">
<polygon fill="white" stroke="#666666" points="1551.47,-145.5 1443.47,-145.5 1443.47,-126.5 1551.47,-126.5 1551.47,-145.5"/>
<text text-anchor="middle" x="1497.47" y="-133.5" font-family="Helvetica,sans-Serif" font-size="10.00">caja&#45;icon&#45;private.h</text>
</a>
</g>
</g>
<!-- Node2&#45;&gt;Node4 -->
<g id="edge3_Node000002_Node000004" class="edge">
<title>Node2&#45;&gt;Node4</title>
<g id="a_edge3_Node000002_Node000004"><a xlink:title=" ">
<path fill="none" stroke="#63b8ff" d="M1578.87,-181.92C1558.62,-170.74 1530.5,-155.23 1513.18,-145.67"/>
<polygon fill="#63b8ff" stroke="#63b8ff" points="1577.38,-185.1 1587.83,-186.87 1580.77,-178.97 1577.38,-185.1"/>
</a>
</g>
</g>
<!-- Node2&#45;&gt;Node8 -->
<g id="edge9_Node000002_Node000008" class="edge">
<title>Node2&#45;&gt;Node8</title>
<g id="a_edge9_Node000002_Node000008"><a xlink:title=" ">
<path fill="none" stroke="#63b8ff" d="M1620.27,-179.89C1646.68,-153.52 1691.83,-99.74 1660.47,-66 1649.57,-54.27 1172.09,-26.77 1022.68,-18.44"/>
<polygon fill="#63b8ff" stroke="#63b8ff" points="1617.83,-177.38 1613.09,-186.85 1622.7,-182.4 1617.83,-177.38"/>
</a>
</g>
</g>
<!-- Node4&#45;&gt;Node3 -->
<g id="edge4_Node000004_Node000003" class="edge">
<title>Node4&#45;&gt;Node3</title>
<g id="a_edge4_Node000004_Node000003"><a xlink:title=" ">
<path fill="none" stroke="#63b8ff" d="M1518.8,-120.66C1535.33,-109.55 1557.68,-94.51 1571.58,-85.17"/>
<polygon fill="#63b8ff" stroke="#63b8ff" points="1516.65,-117.88 1510.31,-126.37 1520.56,-123.69 1516.65,-117.88"/>
</a>
</g>
</g>
<!-- Node4&#45;&gt;Node5 -->
<g id="edge5_Node000004_Node000005" class="edge">
<title>Node4&#45;&gt;Node5</title>
<g id="a_edge5_Node000004_Node000005"><a xlink:title=" ">
<path fill="none" stroke="#63b8ff" d="M1546.57,-124.32C1598.53,-113.02 1679.48,-95.42 1727.31,-85.02"/>
<polygon fill="#63b8ff" stroke="#63b8ff" points="1545.61,-120.95 1536.59,-126.49 1547.1,-127.79 1545.61,-120.95"/>
</a>
</g>
</g>
<!-- Node6 -->
<g id="Node000006" class="node">
<title>Node6</title>
<g id="a_Node000006"><a xlink:href="caja-icon-dnd_8c.html" target="_top" xlink:title=" ">
<polygon fill="white" stroke="#666666" points="1422.97,-85 1331.97,-85 1331.97,-66 1422.97,-66 1422.97,-85"/>
<text text-anchor="middle" x="1377.47" y="-73" font-family="Helvetica,sans-Serif" font-size="10.00">caja&#45;icon&#45;dnd.c</text>
</a>
</g>
</g>
<!-- Node4&#45;&gt;Node6 -->
<g id="edge6_Node000004_Node000006" class="edge">
<title>Node4&#45;&gt;Node6</title>
<g id="a_edge6_Node000004_Node000006"><a xlink:title=" ">
<path fill="none" stroke="#63b8ff" d="M1470.77,-121.98C1447.64,-110.71 1414.86,-94.73 1394.94,-85.02"/>
<polygon fill="#63b8ff" stroke="#63b8ff" points="1469.5,-125.26 1480.02,-126.49 1472.57,-118.97 1469.5,-125.26"/>
</a>
</g>
</g>
<!-- Node7 -->
<g id="Node000007" class="node">
<title>Node7</title>
<g id="a_Node000007"><a xlink:href="fm-icon-container_8c.html" target="_top" xlink:title=" ">
<polygon fill="white" stroke="#666666" points="1348.97,-24.5 1237.97,-24.5 1237.97,-5.5 1348.97,-5.5 1348.97,-24.5"/>
<text text-anchor="middle" x="1293.47" y="-12.5" font-family="Helvetica,sans-Serif" font-size="10.00">fm&#45;icon&#45;container.c</text>
</a>
</g>
</g>
<!-- Node4&#45;&gt;Node7 -->
<g id="edge7_Node000004_Node000007" class="edge">
<title>Node4&#45;&gt;Node7</title>
<g id="a_edge7_Node000004_Node000007"><a xlink:title=" ">
<path fill="none" stroke="#63b8ff" d="M1493.4,-116.34C1489.04,-100.75 1480.62,-79.02 1465.47,-66 1433.04,-38.14 1385.83,-25.78 1349.07,-20.31"/>
<polygon fill="#63b8ff" stroke="#63b8ff" points="1490.09,-117.54 1495.88,-126.41 1496.88,-115.86 1490.09,-117.54"/>
</a>
</g>
</g>
<!-- Node4&#45;&gt;Node8 -->
<g id="edge8_Node000004_Node000008" class="edge">
<title>Node4&#45;&gt;Node8</title>
<g id="a_edge8_Node000004_Node000008"><a xlink:title=" ">
<path fill="none" stroke="#63b8ff" d="M1486.6,-117.76C1475.25,-101.41 1455.87,-77.66 1432.47,-66 1396.28,-47.96 1129.47,-26.92 1022.58,-19.12"/>
<polygon fill="#63b8ff" stroke="#63b8ff" points="1483.87,-119.99 1492.32,-126.39 1489.71,-116.12 1483.87,-119.99"/>
</a>
</g>
</g>
<!-- Node9&#45;&gt;Node4 -->
<g id="edge30_Node000009_Node000004" class="edge">
<title>Node9&#45;&gt;Node4</title>
<g id="a_edge30_Node000009_Node000004"><a xlink:title=" ">
<path fill="none" stroke="#63b8ff" d="M1368.19,-238.14C1387.1,-230.39 1410.6,-219.34 1429.47,-206 1455.02,-187.94 1479.34,-159.7 1490.73,-145.61"/>
<polygon fill="#63b8ff" stroke="#63b8ff" points="1366.77,-234.94 1358.77,-241.89 1369.36,-241.44 1366.77,-234.94"/>
</a>
</g>
</g>
<!-- Node9&#45;&gt;Node5 -->
<g id="edge19_Node000009_Node000005" class="edge">
<title>Node9&#45;&gt;Node5</title>
<g id="a_edge19_Node000009_Node000005"><a xlink:title=" ">
<path fill="none" stroke="#63b8ff" d="M1404.22,-248.47C1491.59,-244.76 1635.23,-234.4 1679.47,-206 1716.93,-181.95 1707.15,-157.62 1732.47,-121 1741.32,-108.2 1752.39,-94.02 1759.45,-85.18"/>
<polygon fill="#63b8ff" stroke="#63b8ff" points="1403.96,-244.98 1394.11,-248.88 1404.25,-251.97 1403.96,-244.98"/>
</a>
</g>
</g>
<!-- Node9&#45;&gt;Node8 -->
<g id="edge56_Node000009_Node000008" class="edge">
<title>Node9&#45;&gt;Node8</title>
<g id="a_edge56_Node000009_Node000008"><a xlink:title=" ">
<path fill="none" stroke="#63b8ff" d="M1340.11,-232.15C1347.08,-205.76 1355.84,-156.38 1336.47,-121 1314.68,-81.2 1292.68,-82.63 1250.47,-66 1173.86,-35.81 1077.83,-23.63 1022.77,-18.88"/>
<polygon fill="#63b8ff" stroke="#63b8ff" points="1336.69,-231.37 1337.31,-241.94 1343.42,-233.29 1336.69,-231.37"/>
</a>
</g>
</g>
<!-- Node10 -->
<g id="Node000010" class="node">
<title>Node10</title>
<g id="a_Node000010"><a xlink:href="caja-directory-background_8h.html" target="_top" xlink:title=" ">
<polygon fill="white" stroke="#666666" points="771.47,-85 617.47,-85 617.47,-66 771.47,-66 771.47,-85"/>
<text text-anchor="middle" x="694.47" y="-73" font-family="Helvetica,sans-Serif" font-size="10.00">caja&#45;directory&#45;background.h</text>
</a>
</g>
</g>
<!-- Node9&#45;&gt;Node10 -->
<g id="edge12_Node000009_Node000010" class="edge">
<title>Node9&#45;&gt;Node10</title>
<g id="a_edge12_Node000009_Node000010"><a xlink:title=" ">
<path fill="none" stroke="#63b8ff" d="M1264.37,-250.75C1127.21,-250.36 828.55,-244.89 734.47,-206 699.81,-191.67 686.12,-185.08 670.47,-151 659.93,-128.03 677.37,-99.11 687.7,-85.01"/>
<polygon fill="#63b8ff" stroke="#63b8ff" points="1264.75,-254.25 1274.76,-250.77 1264.76,-247.25 1264.75,-254.25"/>
</a>
</g>
</g>
<!-- Node16 -->
<g id="Node000016" class="node">
<title>Node16</title>
<g id="a_Node000016"><a xlink:href="caja-icon-dnd_8h.html" target="_top" xlink:title=" ">
<polygon fill="white" stroke="#666666" points="1242.47,-206 1150.47,-206 1150.47,-187 1242.47,-187 1242.47,-206"/>
<text text-anchor="middle" x="1196.47" y="-194" font-family="Helvetica,sans-Serif" font-size="10.00">caja&#45;icon&#45;dnd.h</text>
</a>
</g>
</g>
<!-- Node9&#45;&gt;Node16 -->
<g id="edge20_Node000009_Node000016" class="edge">
<title>Node9&#45;&gt;Node16</title>
<g id="a_edge20_Node000009_Node000016"><a xlink:title=" ">
<path fill="none" stroke="#63b8ff" d="M1302.68,-238.29C1277.1,-228.47 1241.8,-214.91 1219.05,-206.17"/>
<polygon fill="#63b8ff" stroke="#63b8ff" points="1301.71,-241.67 1312.3,-241.98 1304.22,-235.13 1301.71,-241.67"/>
</a>
</g>
</g>
<!-- Node22 -->
<g id="Node000022" class="node">
<title>Node22</title>
<g id="a_Node000022"><a xlink:href="fm-directory-view_8h.html" target="_top" xlink:title=" ">
<polygon fill="white" stroke="#666666" points="378.47,-206 266.47,-206 266.47,-187 378.47,-187 378.47,-206"/>
<text text-anchor="middle" x="322.47" y="-194" font-family="Helvetica,sans-Serif" font-size="10.00">fm&#45;directory&#45;view.h</text>
</a>
</g>
</g>
<!-- Node9&#45;&gt;Node22 -->
<g id="edge31_Node000009_Node000022" class="edge">
<title>Node9&#45;&gt;Node22</title>
<g id="a_edge31_Node000009_Node000022"><a xlink:title=" ">
<path fill="none" stroke="#63b8ff" d="M1264.81,-246.85C1074.95,-236.91 551.13,-209.48 378.48,-200.43"/>
<polygon fill="#63b8ff" stroke="#63b8ff" points="1264.78,-250.35 1274.94,-247.38 1265.14,-243.36 1264.78,-250.35"/>
</a>
</g>
</g>
<!-- Node28 -->
<g id="Node000028" class="node">
<title>Node28</title>
<g id="a_Node000028"><a xlink:href="fm-icon-container_8h.html" target="_top" xlink:title=" ">
<polygon fill="white" stroke="#666666" points="939.47,-85 827.47,-85 827.47,-66 939.47,-66 939.47,-85"/>
<text text-anchor="middle" x="883.47" y="-73" font-family="Helvetica,sans-Serif" font-size="10.00">fm&#45;icon&#45;container.h</text>
</a>
</g>
</g>
<!-- Node9&#45;&gt;Node28 -->
<g id="edge55_Node000009_Node000028" class="edge">
<title>Node9&#45;&gt;Node28</title>
<g id="a_edge55_Node000009_Node000028"><a xlink:title=" ">
<path fill="none" stroke="#63b8ff" d="M1264.53,-250.8C1111.62,-249.81 755.25,-238.01 680.47,-151 671.78,-140.89 672.11,-131.39 680.47,-121 689.79,-109.42 771.19,-94.32 828.03,-85.02"/>
<polygon fill="#63b8ff" stroke="#63b8ff" points="1264.72,-254.3 1274.74,-250.85 1264.76,-247.3 1264.72,-254.3"/>
</a>
</g>
</g>
<!-- Node10&#45;&gt;Node8 -->
<g id="edge17_Node000010_Node000008" class="edge">
<title>Node10&#45;&gt;Node8</title>
<g id="a_edge17_Node000010_Node000008"><a xlink:title=" ">
<path fill="none" stroke="#63b8ff" d="M754.21,-64.14C800.99,-55.76 867.6,-43.2 925.47,-30 932.62,-28.37 940.26,-26.45 947.45,-24.57"/>
<polygon fill="#63b8ff" stroke="#63b8ff" points="753.47,-60.72 744.24,-65.92 754.7,-67.61 753.47,-60.72"/>
</a>
</g>
</g>
<!-- Node11 -->
<g id="Node000011" class="node">
<title>Node11</title>
<g id="a_Node000011"><a xlink:href="caja-directory-background_8c.html" target="_top" xlink:title=" ">
<polygon fill="white" stroke="#666666" points="766.97,-24.5 613.97,-24.5 613.97,-5.5 766.97,-5.5 766.97,-24.5"/>
<text text-anchor="middle" x="690.47" y="-12.5" font-family="Helvetica,sans-Serif" font-size="10.00">caja&#45;directory&#45;background.c</text>
</a>
</g>
</g>
<!-- Node10&#45;&gt;Node11 -->
<g id="edge13_Node000010_Node000011" class="edge">
<title>Node10&#45;&gt;Node11</title>
<g id="a_edge13_Node000010_Node000011"><a xlink:title=" ">
<path fill="none" stroke="#63b8ff" d="M693.18,-55.66C692.47,-45.24 691.62,-32.8 691.06,-24.67"/>
<polygon fill="#63b8ff" stroke="#63b8ff" points="689.71,-56.13 693.88,-65.87 696.69,-55.65 689.71,-56.13"/>
</a>
</g>
</g>
<!-- Node12 -->
<g id="Node000012" class="node">
<title>Node12</title>
<g id="a_Node000012"><a xlink:href="fm-desktop-icon-view_8c.html" target="_top" xlink:title=" ">
<polygon fill="white" stroke="#666666" points="915.97,-24.5 784.97,-24.5 784.97,-5.5 915.97,-5.5 915.97,-24.5"/>
<text text-anchor="middle" x="850.47" y="-12.5" font-family="Helvetica,sans-Serif" font-size="10.00">fm&#45;desktop&#45;icon&#45;view.c</text>
</a>
</g>
</g>
<!-- Node10&#45;&gt;Node12 -->
<g id="edge14_Node000010_Node000012" class="edge">
<title>Node10&#45;&gt;Node12</title>
<g id="a_edge14_Node000010_Node000012"><a xlink:title=" ">
<path fill="none" stroke="#63b8ff" d="M726.8,-62.38C756.96,-51.07 801.18,-34.49 827.76,-24.52"/>
<polygon fill="#63b8ff" stroke="#63b8ff" points="725.29,-59.21 717.16,-65.99 727.75,-65.76 725.29,-59.21"/>
</a>
</g>
</g>
<!-- Node13 -->
<g id="Node000013" class="node">
<title>Node13</title>
<g id="a_Node000013"><a xlink:href="fm-desktop-wayland-bg-dialog_8c.html" target="_top" xlink:title=" ">
<polygon fill="white" stroke="#666666" points="595.47,-30 477.47,-30 477.47,0 595.47,0 595.47,-30"/>
<text text-anchor="start" x="485.47" y="-18" font-family="Helvetica,sans-Serif" font-size="10.00">fm&#45;desktop&#45;wayland</text>
<text text-anchor="middle" x="536.47" y="-7" font-family="Helvetica,sans-Serif" font-size="10.00">&#45;bg&#45;dialog.c</text>
</a>
</g>
</g>
<!-- Node10&#45;&gt;Node13 -->
<g id="edge15_Node000010_Node000013" class="edge">
<title>Node10&#45;&gt;Node13</title>
<g id="a_edge15_Node000010_Node000013"><a xlink:title=" ">
<path fill="none" stroke="#63b8ff" d="M661.95,-62.46C636.54,-53.05 601.17,-39.95 574.46,-30.06"/>
<polygon fill="#63b8ff" stroke="#63b8ff" points="660.9,-65.8 671.5,-65.99 663.33,-59.24 660.9,-65.8"/>
</a>
</g>
</g>
<!-- Node14 -->
<g id="Node000014" class="node">
<title>Node14</title>
<g id="a_Node000014"><a xlink:href="fm-directory-view_8c.html" target="_top" xlink:title=" ">
<polygon fill="white" stroke="#666666" points="458.97,-24.5 347.97,-24.5 347.97,-5.5 458.97,-5.5 458.97,-24.5"/>
<text text-anchor="middle" x="403.47" y="-12.5" font-family="Helvetica,sans-Serif" font-size="10.00">fm&#45;directory&#45;view.c</text>
</a>
</g>
</g>
<!-- Node10&#45;&gt;Node14 -->
<g id="edge16_Node000010_Node000014" class="edge">
<title>Node10&#45;&gt;Node14</title>
<g id="a_edge16_Node000010_Node000014"><a xlink:title=" ">
<path fill="none" stroke="#63b8ff" d="M639.81,-64.02C594.01,-55.17 526.91,-42.05 468.47,-30 460.11,-28.28 451.14,-26.38 442.63,-24.55"/>
<polygon fill="#63b8ff" stroke="#63b8ff" points="639.35,-67.49 649.83,-65.95 640.67,-60.62 639.35,-67.49"/>
</a>
</g>
</g>
<!-- Node15 -->
<g id="Node000015" class="node">
<title>Node15</title>
<g id="a_Node000015"><a xlink:href="fm-list-view_8c.html" target="_top" xlink:title=" ">
<polygon fill="white" stroke="#666666" points="329.97,-24.5 246.97,-24.5 246.97,-5.5 329.97,-5.5 329.97,-24.5"/>
<text text-anchor="middle" x="288.47" y="-12.5" font-family="Helvetica,sans-Serif" font-size="10.00">fm&#45;list&#45;view.c</text>
</a>
</g>
</g>
<!-- Node10&#45;&gt;Node15 -->
<g id="edge18_Node000010_Node000015" class="edge">
<title>Node10&#45;&gt;Node15</title>
<g id="a_edge18_Node000010_Node000015"><a xlink:title=" ">
<path fill="none" stroke="#63b8ff" d="M607.31,-65.11C518.91,-55.31 388.23,-40.02 338.47,-30 331.14,-28.52 323.3,-26.53 316.06,-24.52"/>
<polygon fill="#63b8ff" stroke="#63b8ff" points="607.02,-68.6 617.34,-66.22 607.78,-61.64 607.02,-68.6"/>
</a>
</g>
</g>
<!-- Node16&#45;&gt;Node4 -->
<g id="edge23_Node000016_Node000004" class="edge">
<title>Node16&#45;&gt;Node4</title>
<g id="a_edge23_Node000016_Node000004"><a xlink:title=" ">
<path fill="none" stroke="#63b8ff" d="M1250.33,-185.03C1308.42,-173.74 1399.79,-155.98 1453.65,-145.52"/>
<polygon fill="#63b8ff" stroke="#63b8ff" points="1249.39,-181.65 1240.24,-186.99 1250.72,-188.52 1249.39,-181.65"/>
</a>
</g>
</g>
<!-- Node16&#45;&gt;Node6 -->
<g id="edge22_Node000016_Node000006" class="edge">
<title>Node16&#45;&gt;Node6</title>
<g id="a_edge22_Node000016_Node000006"><a xlink:title=" ">
<path fill="none" stroke="#63b8ff" d="M1252.8,-192.51C1286.03,-187.89 1326.69,-176.85 1353.47,-151 1372.05,-133.07 1376.27,-100.72 1377.21,-85.23"/>
<polygon fill="#63b8ff" stroke="#63b8ff" points="1252.25,-189.05 1242.75,-193.75 1253.11,-196 1252.25,-189.05"/>
</a>
</g>
</g>
<!-- Node16&#45;&gt;Node8 -->
<g id="edge28_Node000016_Node000008" class="edge">
<title>Node16&#45;&gt;Node8</title>
<g id="a_edge28_Node000016_Node000008"><a xlink:title=" ">
<path fill="none" stroke="#63b8ff" d="M1252.56,-189.81C1277.66,-184.14 1305.02,-172.96 1320.47,-151 1328.14,-140.1 1328.4,-131.72 1320.47,-121 1284.66,-72.55 1106.72,-37.23 1022.63,-22.97"/>
<polygon fill="#63b8ff" stroke="#63b8ff" points="1251.83,-186.38 1242.72,-191.78 1253.21,-193.24 1251.83,-186.38"/>
</a>
</g>
</g>
<!-- Node16&#45;&gt;Node15 -->
<g id="edge29_Node000016_Node000015" class="edge">
<title>Node16&#45;&gt;Node15</title>
<g id="a_edge29_Node000016_Node000015"><a xlink:title=" ">
<path fill="none" stroke="#63b8ff" d="M1140.13,-194.37C1044.72,-191.63 845.61,-182.33 680.47,-151 579.34,-131.81 554.4,-122.33 458.47,-85 440.5,-78.01 437.16,-73.67 419.47,-66 382.84,-50.12 339.38,-34.07 312.88,-24.58"/>
<polygon fill="#63b8ff" stroke="#63b8ff" points="1140.05,-197.87 1150.14,-194.65 1140.24,-190.87 1140.05,-197.87"/>
</a>
</g>
</g>
<!-- Node17 -->
<g id="Node000017" class="node">
<title>Node17</title>
<g id="a_Node000017"><a xlink:href="caja-emblem-sidebar_8c.html" target="_top" xlink:title=" ">
<polygon fill="white" stroke="#666666" points="817.47,-145.5 689.47,-145.5 689.47,-126.5 817.47,-126.5 817.47,-145.5"/>
<text text-anchor="middle" x="753.47" y="-133.5" font-family="Helvetica,sans-Serif" font-size="10.00">caja&#45;emblem&#45;sidebar.c</text>
</a>
</g>
</g>
<!-- Node16&#45;&gt;Node17 -->
<g id="edge21_Node000016_Node000017" class="edge">
<title>Node16&#45;&gt;Node17</title>
<g id="a_edge21_Node000016_Node000017"><a xlink:title=" ">
<path fill="none" stroke="#63b8ff" d="M1140.04,-189.88C1067.51,-182.39 937.79,-168.07 827.47,-151 817.26,-149.42 806.31,-147.48 796.04,-145.56"/>
<polygon fill="#63b8ff" stroke="#63b8ff" points="1140.01,-193.4 1150.31,-190.94 1140.72,-186.43 1140.01,-193.4"/>
</a>
</g>
</g>
<!-- Node18 -->
<g id="Node000018" class="node">
<title>Node18</title>
<g id="a_Node000018"><a xlink:href="caja-location-bar_8c.html" target="_top" xlink:title=" ">
<polygon fill="white" stroke="#666666" points="942.97,-145.5 835.97,-145.5 835.97,-126.5 942.97,-126.5 942.97,-145.5"/>
<text text-anchor="middle" x="889.47" y="-133.5" font-family="Helvetica,sans-Serif" font-size="10.00">caja&#45;location&#45;bar.c</text>
</a>
</g>
</g>
<!-- Node16&#45;&gt;Node18 -->
<g id="edge24_Node000016_Node000018" class="edge">
<title>Node16&#45;&gt;Node18</title>
<g id="a_edge24_Node000016_Node000018"><a xlink:title=" ">
<path fill="none" stroke="#63b8ff" d="M1140.17,-185.86C1090.64,-177.23 1016.64,-163.98 952.47,-151 944.13,-149.31 935.18,-147.39 926.73,-145.53"/>
<polygon fill="#63b8ff" stroke="#63b8ff" points="1139.6,-189.31 1150.05,-187.58 1140.79,-182.42 1139.6,-189.31"/>
</a>
</g>
</g>
<!-- Node19 -->
<g id="Node000019" class="node">
<title>Node19</title>
<g id="a_Node000019"><a xlink:href="caja-location-entry_8c.html" target="_top" xlink:title=" ">
<polygon fill="white" stroke="#666666" points="1077.47,-145.5 961.47,-145.5 961.47,-126.5 1077.47,-126.5 1077.47,-145.5"/>
<text text-anchor="middle" x="1019.47" y="-133.5" font-family="Helvetica,sans-Serif" font-size="10.00">caja&#45;location&#45;entry.c</text>
</a>
</g>
</g>
<!-- Node16&#45;&gt;Node19 -->
<g id="edge25_Node000016_Node000019" class="edge">
<title>Node16&#45;&gt;Node19</title>
<g id="a_edge25_Node000016_Node000019"><a xlink:title=" ">
<path fill="none" stroke="#63b8ff" d="M1161.13,-183.82C1126.89,-172.5 1075.8,-155.62 1045.24,-145.52"/>
<polygon fill="#63b8ff" stroke="#63b8ff" points="1160.14,-187.18 1170.73,-186.99 1162.34,-180.53 1160.14,-187.18"/>
</a>
</g>
</g>
<!-- Node20 -->
<g id="Node000020" class="node">
<title>Node20</title>
<g id="a_Node000020"><a xlink:href="caja-pathbar_8c.html" target="_top" xlink:title=" ">
<polygon fill="white" stroke="#666666" points="1181.47,-145.5 1095.47,-145.5 1095.47,-126.5 1181.47,-126.5 1181.47,-145.5"/>
<text text-anchor="middle" x="1138.47" y="-133.5" font-family="Helvetica,sans-Serif" font-size="10.00">caja&#45;pathbar.c</text>
</a>
</g>
</g>
<!-- Node16&#45;&gt;Node20 -->
<g id="edge26_Node000016_Node000020" class="edge">
<title>Node16&#45;&gt;Node20</title>
<g id="a_edge26_Node000016_Node000020"><a xlink:title=" ">
<path fill="none" stroke="#63b8ff" d="M1180.7,-179.59C1169.87,-168.67 1155.9,-154.58 1147.07,-145.67"/>
<polygon fill="#63b8ff" stroke="#63b8ff" points="1178.39,-182.23 1187.91,-186.87 1183.36,-177.3 1178.39,-182.23"/>
</a>
</g>
</g>
<!-- Node21 -->
<g id="Node000021" class="node">
<title>Node21</title>
<g id="a_Node000021"><a xlink:href="caja-tree-view-drag-dest_8c.html" target="_top" xlink:title=" ">
<polygon fill="white" stroke="#666666" points="1311.47,-151 1199.47,-151 1199.47,-121 1311.47,-121 1311.47,-151"/>
<text text-anchor="start" x="1207.47" y="-139" font-family="Helvetica,sans-Serif" font-size="10.00">caja&#45;tree&#45;view&#45;drag</text>
<text text-anchor="middle" x="1255.47" y="-128" font-family="Helvetica,sans-Serif" font-size="10.00">&#45;dest.c</text>
</a>
</g>
</g>
<!-- Node16&#45;&gt;Node21 -->
<g id="edge27_Node000016_Node000021" class="edge">
<title>Node16&#45;&gt;Node21</title>
<g id="a_edge27_Node000016_Node000021"><a xlink:title=" ">
<path fill="none" stroke="#63b8ff" d="M1212.41,-179.7C1221.4,-170.78 1232.54,-159.74 1241.24,-151.11"/>
<polygon fill="#63b8ff" stroke="#63b8ff" points="1209.81,-177.34 1205.18,-186.87 1214.74,-182.31 1209.81,-177.34"/>
</a>
</g>
</g>
<!-- Node22&#45;&gt;Node14 -->
<g id="edge32_Node000022_Node000014" class="edge">
<title>Node22&#45;&gt;Node14</title>
<g id="a_edge32_Node000022_Node000014"><a xlink:title=" ">
<path fill="none" stroke="#63b8ff" d="M312.73,-177.67C299.74,-151.22 280.76,-100.98 302.47,-66 315.99,-44.22 342.12,-31.64 364.42,-24.55"/>
<polygon fill="#63b8ff" stroke="#63b8ff" points="309.78,-179.57 317.48,-186.85 315.99,-176.36 309.78,-179.57"/>
</a>
</g>
</g>
<!-- Node23 -->
<g id="Node000023" class="node">
<title>Node23</title>
<g id="a_Node000023"><a xlink:href="fm-empty-view_8h.html" target="_top" xlink:title=" ">
<polygon fill="white" stroke="#666666" points="411.47,-145.5 311.47,-145.5 311.47,-126.5 411.47,-126.5 411.47,-145.5"/>
<text text-anchor="middle" x="361.47" y="-133.5" font-family="Helvetica,sans-Serif" font-size="10.00">fm&#45;empty&#45;view.h</text>
</a>
</g>
</g>
<!-- Node22&#45;&gt;Node23 -->
<g id="edge33_Node000022_Node000023" class="edge">
<title>Node22&#45;&gt;Node23</title>
<g id="a_edge33_Node000022_Node000023"><a xlink:title=" ">
<path fill="none" stroke="#63b8ff" d="M333.94,-178.3C341.09,-167.58 349.98,-154.23 355.69,-145.67"/>
<polygon fill="#63b8ff" stroke="#63b8ff" points="330.86,-176.61 328.23,-186.87 336.69,-180.49 330.86,-176.61"/>
</a>
</g>
</g>
<!-- Node25 -->
<g id="Node000025" class="node">
<title>Node25</title>
<g id="a_Node000025"><a xlink:href="fm-icon-view_8h.html" target="_top" xlink:title=" ">
<polygon fill="white" stroke="#666666" points="518.97,-145.5 429.97,-145.5 429.97,-126.5 518.97,-126.5 518.97,-145.5"/>
<text text-anchor="middle" x="474.47" y="-133.5" font-family="Helvetica,sans-Serif" font-size="10.00">fm&#45;icon&#45;view.h</text>
</a>
</g>
</g>
<!-- Node22&#45;&gt;Node25 -->
<g id="edge35_Node000022_Node000025" class="edge">
<title>Node22&#45;&gt;Node25</title>
<g id="a_edge35_Node000022_Node000025"><a xlink:title=" ">
<path fill="none" stroke="#63b8ff" d="M353.97,-183.38C383.35,-172.07 426.44,-155.49 452.34,-145.52"/>
<polygon fill="#63b8ff" stroke="#63b8ff" points="352.65,-180.14 344.57,-186.99 355.16,-186.67 352.65,-180.14"/>
</a>
</g>
</g>
<!-- Node29 -->
<g id="Node000029" class="node">
<title>Node29</title>
<g id="a_Node000029"><a xlink:href="fm-list-view_8h.html" target="_top" xlink:title=" ">
<polygon fill="white" stroke="#666666" points="254.97,-85 171.97,-85 171.97,-66 254.97,-66 254.97,-85"/>
<text text-anchor="middle" x="213.47" y="-73" font-family="Helvetica,sans-Serif" font-size="10.00">fm&#45;list&#45;view.h</text>
</a>
</g>
</g>
<!-- Node22&#45;&gt;Node29 -->
<g id="edge48_Node000022_Node000029" class="edge">
<title>Node22&#45;&gt;Node29</title>
<g id="a_edge48_Node000022_Node000029"><a xlink:title=" ">
<path fill="none" stroke="#63b8ff" d="M302.76,-180.72C292.36,-172.5 279.67,-161.77 269.47,-151 248.77,-129.15 228.59,-99.72 219.1,-85.26"/>
<polygon fill="#63b8ff" stroke="#63b8ff" points="300.81,-183.63 310.86,-186.99 305.09,-178.1 300.81,-183.63"/>
</a>
</g>
</g>
<!-- Node30 -->
<g id="Node000030" class="node">
<title>Node30</title>
<g id="a_Node000030"><a xlink:href="fm-widget-view_8h.html" target="_top" xlink:title=" ">
<polygon fill="white" stroke="#666666" points="114.97,-145.5 13.97,-145.5 13.97,-126.5 114.97,-126.5 114.97,-145.5"/>
<text text-anchor="middle" x="64.47" y="-133.5" font-family="Helvetica,sans-Serif" font-size="10.00">fm&#45;widget&#45;view.h</text>
</a>
</g>
</g>
<!-- Node22&#45;&gt;Node30 -->
<g id="edge52_Node000022_Node000030" class="edge">
<title>Node22&#45;&gt;Node30</title>
<g id="a_edge52_Node000022_Node000030"><a xlink:title=" ">
<path fill="none" stroke="#63b8ff" d="M275.07,-184.75C225.23,-173.45 147.82,-155.9 102.03,-145.52"/>
<polygon fill="#63b8ff" stroke="#63b8ff" points="274.43,-188.2 284.96,-186.99 275.98,-181.37 274.43,-188.2"/>
</a>
</g>
</g>
<!-- Node24 -->
<g id="Node000024" class="node">
<title>Node24</title>
<g id="a_Node000024"><a xlink:href="fm-empty-view_8c.html" target="_top" xlink:title=" ">
<polygon fill="white" stroke="#666666" points="410.97,-85 311.97,-85 311.97,-66 410.97,-66 410.97,-85"/>
<text text-anchor="middle" x="361.47" y="-73" font-family="Helvetica,sans-Serif" font-size="10.00">fm&#45;empty&#45;view.c</text>
</a>
</g>
</g>
<!-- Node23&#45;&gt;Node24 -->
<g id="edge34_Node000023_Node000024" class="edge">
<title>Node23&#45;&gt;Node24</title>
<g id="a_edge34_Node000023_Node000024"><a xlink:title=" ">
<path fill="none" stroke="#63b8ff" d="M361.47,-116.16C361.47,-105.74 361.47,-93.3 361.47,-85.17"/>
<polygon fill="#63b8ff" stroke="#63b8ff" points="357.97,-116.37 361.47,-126.37 364.97,-116.37 357.97,-116.37"/>
</a>
</g>
</g>
<!-- Node25&#45;&gt;Node8 -->
<g id="edge47_Node000025_Node000008" class="edge">
<title>Node25&#45;&gt;Node8</title>
<g id="a_edge47_Node000025_Node000008"><a xlink:title=" ">
<path fill="none" stroke="#63b8ff" d="M529.23,-128.07C604.23,-118.23 734.8,-99.77 780.47,-85 798.44,-79.19 800.96,-73.06 818.47,-66 861.52,-48.64 913.04,-33.5 945.76,-24.56"/>
<polygon fill="#63b8ff" stroke="#63b8ff" points="528.5,-124.64 519.03,-129.4 529.4,-131.58 528.5,-124.64"/>
</a>
</g>
</g>
<!-- Node26 -->
<g id="Node000026" class="node">
<title>Node26</title>
<g id="a_Node000026"><a xlink:href="caja-application_8c.html" target="_top" xlink:title=" ">
<polygon fill="white" stroke="#666666" points="213.97,-24.5 110.97,-24.5 110.97,-5.5 213.97,-5.5 213.97,-24.5"/>
<text text-anchor="middle" x="162.47" y="-12.5" font-family="Helvetica,sans-Serif" font-size="10.00">caja&#45;application.c</text>
</a>
</g>
</g>
<!-- Node25&#45;&gt;Node26 -->
<g id="edge36_Node000025_Node000026" class="edge">
<title>Node25&#45;&gt;Node26</title>
<g id="a_edge36_Node000025_Node000026"><a xlink:title=" ">
<path fill="none" stroke="#63b8ff" d="M434.14,-124C429.55,-122.91 424.92,-121.88 420.47,-121 363.69,-109.72 200.47,-128.67 162.47,-85 147.85,-68.19 154.47,-39.38 159.19,-24.89"/>
<polygon fill="#63b8ff" stroke="#63b8ff" points="433.51,-127.45 444.06,-126.46 435.19,-120.66 433.51,-127.45"/>
</a>
</g>
</g>
<!-- Node27 -->
<g id="Node000027" class="node">
<title>Node27</title>
<g id="a_Node000027"><a xlink:href="fm-desktop-icon-view_8h.html" target="_top" xlink:title=" ">
<polygon fill="white" stroke="#666666" points="598.97,-85 467.97,-85 467.97,-66 598.97,-66 598.97,-85"/>
<text text-anchor="middle" x="533.47" y="-73" font-family="Helvetica,sans-Serif" font-size="10.00">fm&#45;desktop&#45;icon&#45;view.h</text>
</a>
</g>
</g>
<!-- Node25&#45;&gt;Node27 -->
<g id="edge37_Node000025_Node000027" class="edge">
<title>Node25&#45;&gt;Node27</title>
<g id="a_edge37_Node000025_Node000027"><a xlink:title=" ">
<path fill="none" stroke="#63b8ff" d="M490.52,-119.09C501.54,-108.17 515.74,-94.08 524.73,-85.17"/>
<polygon fill="#63b8ff" stroke="#63b8ff" points="487.81,-116.84 483.18,-126.37 492.74,-121.81 487.81,-116.84"/>
</a>
</g>
</g>
<!-- Node25&#45;&gt;Node28 -->
<g id="edge43_Node000025_Node000028" class="edge">
<title>Node25&#45;&gt;Node28</title>
<g id="a_edge43_Node000025_Node000028"><a xlink:title=" ">
<path fill="none" stroke="#63b8ff" d="M529.09,-127.19C606.83,-116.07 748.65,-95.78 827.26,-84.54"/>
<polygon fill="#63b8ff" stroke="#63b8ff" points="528.42,-123.75 519.02,-128.63 529.42,-130.68 528.42,-123.75"/>
</a>
</g>
</g>
<!-- Node27&#45;&gt;Node8 -->
<g id="edge42_Node000027_Node000008" class="edge">
<title>Node27&#45;&gt;Node8</title>
<g id="a_edge42_Node000027_Node000008"><a xlink:title=" ">
<path fill="none" stroke="#63b8ff" d="M609.37,-65.9C723.07,-53.02 924.51,-30.18 925.47,-30 933.24,-28.54 941.54,-26.56 949.21,-24.54"/>
<polygon fill="#63b8ff" stroke="#63b8ff" points="608.87,-62.44 599.32,-67.04 609.65,-69.39 608.87,-62.44"/>
</a>
</g>
</g>
<!-- Node27&#45;&gt;Node12 -->
<g id="edge39_Node000027_Node000012" class="edge">
<title>Node27&#45;&gt;Node12</title>
<g id="a_edge39_Node000027_Node000012"><a xlink:title=" ">
<path fill="none" stroke="#63b8ff" d="M590.42,-64.07C639.46,-55.08 712.14,-41.73 775.47,-30 784.98,-28.24 795.16,-26.34 804.86,-24.53"/>
<polygon fill="#63b8ff" stroke="#63b8ff" points="589.53,-60.68 580.32,-65.92 590.79,-67.56 589.53,-60.68"/>
</a>
</g>
</g>
<!-- Node27&#45;&gt;Node13 -->
<g id="edge40_Node000027_Node000013" class="edge">
<title>Node27&#45;&gt;Node13</title>
<g id="a_edge40_Node000027_Node000013"><a xlink:title=" ">
<path fill="none" stroke="#63b8ff" d="M534.44,-55.65C534.86,-47.36 535.36,-37.78 535.75,-30.11"/>
<polygon fill="#63b8ff" stroke="#63b8ff" points="530.93,-55.7 533.91,-65.87 537.92,-56.06 530.93,-55.7"/>
</a>
</g>
</g>
<!-- Node27&#45;&gt;Node14 -->
<g id="edge41_Node000027_Node000014" class="edge">
<title>Node27&#45;&gt;Node14</title>
<g id="a_edge41_Node000027_Node000014"><a xlink:title=" ">
<path fill="none" stroke="#63b8ff" d="M505.21,-61.78C480.13,-50.49 444.17,-34.31 422.4,-24.52"/>
<polygon fill="#63b8ff" stroke="#63b8ff" points="504.01,-65.08 514.57,-65.99 506.89,-58.7 504.01,-65.08"/>
</a>
</g>
</g>
<!-- Node27&#45;&gt;Node26 -->
<g id="edge38_Node000027_Node000026" class="edge">
<title>Node27&#45;&gt;Node26</title>
<g id="a_edge38_Node000027_Node000026"><a xlink:title=" ">
<path fill="none" stroke="#63b8ff" d="M462.3,-64.52C402.27,-55.93 314.13,-42.91 237.47,-30 227.55,-28.33 216.9,-26.41 206.84,-24.55"/>
<polygon fill="#63b8ff" stroke="#63b8ff" points="462.04,-68.02 472.43,-65.97 463.03,-61.09 462.04,-68.02"/>
</a>
</g>
</g>
<!-- Node28&#45;&gt;Node7 -->
<g id="edge45_Node000028_Node000007" class="edge">
<title>Node28&#45;&gt;Node7</title>
<g id="a_edge45_Node000028_Node000007"><a xlink:title=" ">
<path fill="none" stroke="#63b8ff" d="M949.58,-65.07C1029.52,-53.66 1162.66,-34.66 1237.67,-23.96"/>
<polygon fill="#63b8ff" stroke="#63b8ff" points="949.03,-61.61 939.62,-66.49 950.02,-68.54 949.03,-61.61"/>
</a>
</g>
</g>
<!-- Node28&#45;&gt;Node8 -->
<g id="edge46_Node000028_Node000008" class="edge">
<title>Node28&#45;&gt;Node8</title>
<g id="a_edge46_Node000028_Node000008"><a xlink:title=" ">
<path fill="none" stroke="#63b8ff" d="M906.26,-60.47C924.36,-49.32 949.08,-34.1 964.4,-24.67"/>
<polygon fill="#63b8ff" stroke="#63b8ff" points="904.17,-57.64 897.49,-65.87 907.84,-63.6 904.17,-57.64"/>
</a>
</g>
</g>
<!-- Node28&#45;&gt;Node12 -->
<g id="edge44_Node000028_Node000012" class="edge">
<title>Node28&#45;&gt;Node12</title>
<g id="a_edge44_Node000028_Node000012"><a xlink:title=" ">
<path fill="none" stroke="#63b8ff" d="M873.59,-56.98C867.57,-46.31 860.15,-33.15 855.36,-24.67"/>
<polygon fill="#63b8ff" stroke="#63b8ff" points="870.64,-58.88 878.6,-65.87 876.74,-55.44 870.64,-58.88"/>
</a>
</g>
</g>
<!-- Node29&#45;&gt;Node14 -->
<g id="edge50_Node000029_Node000014" class="edge">
<title>Node29&#45;&gt;Node14</title>
<g id="a_edge50_Node000029_Node000014"><a xlink:title=" ">
<path fill="none" stroke="#63b8ff" d="M250.94,-62.96C287.69,-51.65 342.87,-34.66 375.81,-24.52"/>
<polygon fill="#63b8ff" stroke="#63b8ff" points="249.63,-59.71 241.1,-65.99 251.69,-66.4 249.63,-59.71"/>
</a>
</g>
</g>
<!-- Node29&#45;&gt;Node15 -->
<g id="edge51_Node000029_Node000015" class="edge">
<title>Node29&#45;&gt;Node15</title>
<g id="a_edge51_Node000029_Node000015"><a xlink:title=" ">
<path fill="none" stroke="#63b8ff" d="M232.66,-59.54C246.82,-48.49 265.6,-33.84 277.36,-24.67"/>
<polygon fill="#63b8ff" stroke="#63b8ff" points="230.27,-56.96 224.54,-65.87 234.58,-62.48 230.27,-56.96"/>
</a>
</g>
</g>
<!-- Node29&#45;&gt;Node26 -->
<g id="edge49_Node000029_Node000026" class="edge">
<title>Node29&#45;&gt;Node26</title>
<g id="a_edge49_Node000029_Node000026"><a xlink:title=" ">
<path fill="none" stroke="#63b8ff" d="M199.32,-58.27C189.84,-47.39 177.72,-33.49 170.03,-24.67"/>
<polygon fill="#63b8ff" stroke="#63b8ff" points="196.74,-60.63 205.95,-65.87 202.01,-56.03 196.74,-60.63"/>
</a>
</g>
</g>
<!-- Node30&#45;&gt;Node26 -->
<g id="edge53_Node000030_Node000026" class="edge">
<title>Node30&#45;&gt;Node26</title>
<g id="a_edge53_Node000030_Node000026"><a xlink:title=" ">
<path fill="none" stroke="#63b8ff" d="M38.4,-121.36C16.05,-107.83 -10.37,-86.26 4.47,-66 28.61,-33.04 74.59,-21.26 110.74,-17.31"/>
<polygon fill="#63b8ff" stroke="#63b8ff" points="36.87,-124.51 47.28,-126.46 40.36,-118.44 36.87,-124.51"/>
</a>
</g>
</g>
<!-- Node31 -->
<g id="Node000031" class="node">
<title>Node31</title>
<g id="a_Node000031"><a xlink:href="fm-widget-view_8c.html" target="_top" xlink:title=" ">
<polygon fill="white" stroke="#666666" points="114.97,-85 13.97,-85 13.97,-66 114.97,-66 114.97,-85"/>
<text text-anchor="middle" x="64.47" y="-73" font-family="Helvetica,sans-Serif" font-size="10.00">fm&#45;widget&#45;view.c</text>
</a>
</g>
</g>
<!-- Node30&#45;&gt;Node31 -->
<g id="edge54_Node000030_Node000031" class="edge">
<title>Node30&#45;&gt;Node31</title>
<g id="a_edge54_Node000030_Node000031"><a xlink:title=" ">
<path fill="none" stroke="#63b8ff" d="M64.47,-116.16C64.47,-105.74 64.47,-93.3 64.47,-85.17"/>
<polygon fill="#63b8ff" stroke="#63b8ff" points="60.97,-116.37 64.47,-126.37 67.97,-116.37 60.97,-116.37"/>
</a>
</g>
</g>
<!-- Node33&#45;&gt;Node5 -->
<g id="edge59_Node000033_Node000005" class="edge">
<title>Node33&#45;&gt;Node5</title>
<g id="a_edge59_Node000033_Node000005"><a xlink:title=" ">
<path fill="none" stroke="#63b8ff" d="M1848.64,-121.42C1828.19,-110.24 1799.82,-94.73 1782.32,-85.17"/>
<polygon fill="#63b8ff" stroke="#63b8ff" points="1847.23,-124.64 1857.68,-126.37 1850.59,-118.5 1847.23,-124.64"/>
</a>
</g>
</g>
<!-- Node33&#45;&gt;Node6 -->
<g id="edge60_Node000033_Node000006" class="edge">
<title>Node33&#45;&gt;Node6</title>
<g id="a_edge60_Node000033_Node000006"><a xlink:title=" ">
<path fill="none" stroke="#63b8ff" d="M1794.55,-125.69C1689.6,-113.31 1507.57,-91.84 1423.04,-81.87"/>
<polygon fill="#63b8ff" stroke="#63b8ff" points="1794.42,-129.2 1804.77,-126.9 1795.24,-122.25 1794.42,-129.2"/>
</a>
</g>
</g>
<!-- Node34 -->
<g id="Node000034" class="node">
<title>Node34</title>
<g id="a_Node000034"><a xlink:href="eel-canvas-rect-ellipse_8c.html" target="_top" xlink:title=" ">
<polygon fill="white" stroke="#666666" points="1980.97,-85 1843.97,-85 1843.97,-66 1980.97,-66 1980.97,-85"/>
<text text-anchor="middle" x="1912.47" y="-73" font-family="Helvetica,sans-Serif" font-size="10.00">eel&#45;canvas&#45;rect&#45;ellipse.c</text>
</a>
</g>
</g>
<!-- Node33&#45;&gt;Node34 -->
<g id="edge61_Node000033_Node000034" class="edge">
<title>Node33&#45;&gt;Node34</title>
<g id="a_edge61_Node000033_Node000034"><a xlink:title=" ">
<path fill="none" stroke="#63b8ff" d="M1884.94,-117.8C1892.09,-107.08 1900.98,-93.73 1906.69,-85.17"/>
<polygon fill="#63b8ff" stroke="#63b8ff" points="1881.86,-116.11 1879.23,-126.37 1887.69,-119.99 1881.86,-116.11"/>
</a>
</g>
</g>
</g>
</svg>
