<?xml version="1.0" encoding="UTF-8" standalone="no"?>
<!DOCTYPE svg PUBLIC "-//W3C//DTD SVG 1.1//EN"
 "http://www.w3.org/Graphics/SVG/1.1/DTD/svg11.dtd">
<!-- Generated by graphviz version 2.43.0 (0)
 -->
<!-- Title: eggtreemultidnd.h Pages: 1 -->
<svg width="310pt" height="82pt"
 viewBox="0.00 0.00 309.50 82.00" xmlns="http://www.w3.org/2000/svg" xmlns:xlink="http://www.w3.org/1999/xlink">
<g id="graph0" class="graph" transform="scale(1 1) rotate(0) translate(4 78)">
<title>eggtreemultidnd.h</title>
<!-- Node1 -->
<g id="Node000001" class="node">
<title>Node1</title>
<g id="a_Node000001"><a xlink:title=" ">
<polygon fill="#999999" stroke="#666666" points="220.5,-74 113.5,-74 113.5,-55 220.5,-55 220.5,-74"/>
<text text-anchor="middle" x="167" y="-62" font-family="Helvetica,sans-Serif" font-size="10.00">eggtreemultidnd.h</text>
</a>
</g>
</g>
<!-- Node2 -->
<g id="Node000002" class="node">
<title>Node2</title>
<g id="a_Node000002"><a xlink:href="eggtreemultidnd_8c.html" target="_top" xlink:title=" ">
<polygon fill="white" stroke="#666666" points="106,-19 0,-19 0,0 106,0 106,-19"/>
<text text-anchor="middle" x="53" y="-7" font-family="Helvetica,sans-Serif" font-size="10.00">eggtreemultidnd.c</text>
</a>
</g>
</g>
<!-- Node1&#45;&gt;Node2 -->
<g id="edge1_Node000001_Node000002" class="edge">
<title>Node1&#45;&gt;Node2</title>
<g id="a_edge1_Node000001_Node000002"><a xlink:title=" ">
<path fill="none" stroke="#63b8ff" d="M139.61,-50.77C118.58,-40.99 90.11,-27.75 71.65,-19.17"/>
<polygon fill="#63b8ff" stroke="#63b8ff" points="138.14,-53.94 148.68,-54.98 141.09,-47.6 138.14,-53.94"/>
</a>
</g>
</g>
<!-- Node3 -->
<g id="Node000003" class="node">
<title>Node3</title>
<g id="a_Node000003"><a xlink:href="fr-list-model_8c.html" target="_top" xlink:title=" ">
<polygon fill="white" stroke="#666666" points="210,-19 124,-19 124,0 210,0 210,-19"/>
<text text-anchor="middle" x="167" y="-7" font-family="Helvetica,sans-Serif" font-size="10.00">fr&#45;list&#45;model.c</text>
</a>
</g>
</g>
<!-- Node1&#45;&gt;Node3 -->
<g id="edge2_Node000001_Node000003" class="edge">
<title>Node1&#45;&gt;Node3</title>
<g id="a_edge2_Node000001_Node000003"><a xlink:title=" ">
<path fill="none" stroke="#63b8ff" d="M167,-44.66C167,-35.93 167,-25.99 167,-19.09"/>
<polygon fill="#63b8ff" stroke="#63b8ff" points="163.5,-44.75 167,-54.75 170.5,-44.75 163.5,-44.75"/>
</a>
</g>
</g>
<!-- Node4 -->
<g id="Node000004" class="node">
<title>Node4</title>
<g id="a_Node000004"><a xlink:href="fr-window_8c.html" target="_top" xlink:title=" ">
<polygon fill="white" stroke="#666666" points="301.5,-19 228.5,-19 228.5,0 301.5,0 301.5,-19"/>
<text text-anchor="middle" x="265" y="-7" font-family="Helvetica,sans-Serif" font-size="10.00">fr&#45;window.c</text>
</a>
</g>
</g>
<!-- Node1&#45;&gt;Node4 -->
<g id="edge3_Node000001_Node000004" class="edge">
<title>Node1&#45;&gt;Node4</title>
<g id="a_edge3_Node000001_Node000004"><a xlink:title=" ">
<path fill="none" stroke="#63b8ff" d="M192.03,-49.97C209.94,-40.28 233.53,-27.52 248.97,-19.17"/>
<polygon fill="#63b8ff" stroke="#63b8ff" points="189.88,-47.15 182.75,-54.98 193.21,-53.31 189.88,-47.15"/>
</a>
</g>
</g>
</g>
</svg>
