<?xml version="1.0" encoding="UTF-8" standalone="no"?>
<!DOCTYPE svg PUBLIC "-//W3C//DTD SVG 1.1//EN"
 "http://www.w3.org/Graphics/SVG/1.1/DTD/svg11.dtd">
<!-- Generated by graphviz version 2.43.0 (0)
 -->
<!-- Title: eom&#45;save&#45;as&#45;dialog&#45;helper.h Pages: 1 -->
<svg width="949pt" height="313pt"
 viewBox="0.00 0.00 949.00 313.00" xmlns="http://www.w3.org/2000/svg" xmlns:xlink="http://www.w3.org/1999/xlink">
<g id="graph0" class="graph" transform="scale(1 1) rotate(0) translate(4 309)">
<title>eom&#45;save&#45;as&#45;dialog&#45;helper.h</title>
<!-- Node1 -->
<g id="Node000001" class="node">
<title>Node1</title>
<g id="a_Node000001"><a xlink:title=" ">
<polygon fill="#999999" stroke="#666666" points="187,-305 73,-305 73,-275 187,-275 187,-305"/>
<text text-anchor="start" x="81" y="-293" font-family="Helvetica,sans-Serif" font-size="10.00">eom&#45;save&#45;as&#45;dialog</text>
<text text-anchor="middle" x="130" y="-282" font-family="Helvetica,sans-Serif" font-size="10.00">&#45;helper.h</text>
</a>
</g>
</g>
<!-- Node2 -->
<g id="Node000002" class="node">
<title>Node2</title>
<g id="a_Node000002"><a xlink:title=" ">
<polygon fill="#e0e0e0" stroke="#999999" points="281,-19 221,-19 221,0 281,0 281,-19"/>
<text text-anchor="middle" x="251" y="-7" font-family="Helvetica,sans-Serif" font-size="10.00">gtk/gtk.h</text>
</a>
</g>
</g>
<!-- Node1&#45;&gt;Node2 -->
<g id="edge1_Node000001_Node000002" class="edge">
<title>Node1&#45;&gt;Node2</title>
<g id="a_edge1_Node000001_Node000002"><a xlink:title=" ">
<path fill="none" stroke="#63b8ff" d="M92.4,-274.91C54,-257.8 0,-224.94 0,-175.5 0,-175.5 0,-175.5 0,-118.5 0,-28.03 139.3,-12.42 210.35,-10.34"/>
<polygon fill="#63b8ff" stroke="#63b8ff" points="210.8,-13.83 220.72,-10.12 210.65,-6.83 210.8,-13.83"/>
</a>
</g>
</g>
<!-- Node3 -->
<g id="Node000003" class="node">
<title>Node3</title>
<g id="a_Node000003"><a xlink:title=" ">
<polygon fill="#e0e0e0" stroke="#999999" points="675.5,-19 616.5,-19 616.5,0 675.5,0 675.5,-19"/>
<text text-anchor="middle" x="646" y="-7" font-family="Helvetica,sans-Serif" font-size="10.00">gio/gio.h</text>
</a>
</g>
</g>
<!-- Node1&#45;&gt;Node3 -->
<g id="edge2_Node000001_Node000003" class="edge">
<title>Node1&#45;&gt;Node3</title>
<g id="a_edge2_Node000001_Node000003"><a xlink:title=" ">
<path fill="none" stroke="#63b8ff" d="M187.03,-287.03C371.63,-279.9 941,-251.74 941,-175.5 941,-175.5 941,-175.5 941,-118.5 941,-80.58 917.06,-73.58 884,-55 821.01,-19.6 735.31,-11.67 685.8,-10.29"/>
<polygon fill="#63b8ff" stroke="#63b8ff" points="685.57,-6.78 675.5,-10.08 685.43,-13.78 685.57,-6.78"/>
</a>
</g>
</g>
<!-- Node4 -->
<g id="Node000004" class="node">
<title>Node4</title>
<g id="a_Node000004"><a xlink:href="eom-uri-converter_8h.html" target="_top" xlink:title=" ">
<polygon fill="white" stroke="#666666" points="186.5,-239 73.5,-239 73.5,-220 186.5,-220 186.5,-239"/>
<text text-anchor="middle" x="130" y="-227" font-family="Helvetica,sans-Serif" font-size="10.00">eom&#45;uri&#45;converter.h</text>
</a>
</g>
</g>
<!-- Node1&#45;&gt;Node4 -->
<g id="edge3_Node000001_Node000004" class="edge">
<title>Node1&#45;&gt;Node4</title>
<g id="a_edge3_Node000001_Node000004"><a xlink:title=" ">
<path fill="none" stroke="#63b8ff" d="M130,-274.84C130,-267.21 130,-257.7 130,-249.45"/>
<polygon fill="#63b8ff" stroke="#63b8ff" points="133.5,-249.27 130,-239.27 126.5,-249.27 133.5,-249.27"/>
</a>
</g>
</g>
<!-- Node5 -->
<g id="Node000005" class="node">
<title>Node5</title>
<g id="a_Node000005"><a xlink:title=" ">
<polygon fill="#e0e0e0" stroke="#999999" points="420.5,-19 343.5,-19 343.5,0 420.5,0 420.5,-19"/>
<text text-anchor="middle" x="382" y="-7" font-family="Helvetica,sans-Serif" font-size="10.00">glib&#45;object.h</text>
</a>
</g>
</g>
<!-- Node4&#45;&gt;Node5 -->
<g id="edge4_Node000004_Node000005" class="edge">
<title>Node4&#45;&gt;Node5</title>
<g id="a_edge4_Node000004_Node000005"><a xlink:title=" ">
<path fill="none" stroke="#63b8ff" d="M131.69,-219.7C137.64,-191.2 160.34,-100.59 216,-55 249.09,-27.9 297.17,-17.19 333.08,-13.02"/>
<polygon fill="#63b8ff" stroke="#63b8ff" points="333.74,-16.47 343.33,-11.97 333.03,-9.51 333.74,-16.47"/>
</a>
</g>
</g>
<!-- Node6 -->
<g id="Node000006" class="node">
<title>Node6</title>
<g id="a_Node000006"><a xlink:title=" ">
<polygon fill="#e0e0e0" stroke="#999999" points="102,-184 28,-184 28,-165 102,-165 102,-184"/>
<text text-anchor="middle" x="65" y="-172" font-family="Helvetica,sans-Serif" font-size="10.00">glib/gi18n.h</text>
</a>
</g>
</g>
<!-- Node4&#45;&gt;Node6 -->
<g id="edge5_Node000004_Node000006" class="edge">
<title>Node4&#45;&gt;Node6</title>
<g id="a_edge5_Node000004_Node000006"><a xlink:title=" ">
<path fill="none" stroke="#63b8ff" d="M119.56,-219.98C109.85,-212.07 95.18,-200.11 83.5,-190.58"/>
<polygon fill="#63b8ff" stroke="#63b8ff" points="85.6,-187.78 75.63,-184.17 81.17,-193.2 85.6,-187.78"/>
</a>
</g>
</g>
<!-- Node7 -->
<g id="Node000007" class="node">
<title>Node7</title>
<g id="a_Node000007"><a xlink:href="eom-image_8h.html" target="_top" xlink:title=" ">
<polygon fill="white" stroke="#666666" points="488,-184 406,-184 406,-165 488,-165 488,-184"/>
<text text-anchor="middle" x="447" y="-172" font-family="Helvetica,sans-Serif" font-size="10.00">eom&#45;image.h</text>
</a>
</g>
</g>
<!-- Node4&#45;&gt;Node7 -->
<g id="edge6_Node000004_Node000007" class="edge">
<title>Node4&#45;&gt;Node7</title>
<g id="a_edge6_Node000004_Node000007"><a xlink:title=" ">
<path fill="none" stroke="#63b8ff" d="M180.93,-219.98C240,-210.11 336.79,-193.93 395.92,-184.04"/>
<polygon fill="#63b8ff" stroke="#63b8ff" points="396.5,-187.49 405.79,-182.39 395.35,-180.59 396.5,-187.49"/>
</a>
</g>
</g>
<!-- Node7&#45;&gt;Node5 -->
<g id="edge33_Node000007_Node000005" class="edge">
<title>Node7&#45;&gt;Node5</title>
<g id="a_edge33_Node000007_Node000005"><a xlink:title=" ">
<path fill="none" stroke="#63b8ff" d="M443.75,-164.84C436.36,-145.21 417.65,-95.87 401,-55 397.43,-46.25 393.33,-36.59 389.86,-28.52"/>
<polygon fill="#63b8ff" stroke="#63b8ff" points="393.06,-27.11 385.87,-19.33 386.64,-29.9 393.06,-27.11"/>
</a>
</g>
</g>
<!-- Node8 -->
<g id="Node000008" class="node">
<title>Node8</title>
<g id="a_Node000008"><a xlink:href="eom-jobs_8h.html" target="_top" xlink:title=" ">
<polygon fill="white" stroke="#666666" points="584.5,-129 513.5,-129 513.5,-110 584.5,-110 584.5,-129"/>
<text text-anchor="middle" x="549" y="-117" font-family="Helvetica,sans-Serif" font-size="10.00">eom&#45;jobs.h</text>
</a>
</g>
</g>
<!-- Node7&#45;&gt;Node8 -->
<g id="edge7_Node000007_Node000008" class="edge">
<title>Node7&#45;&gt;Node8</title>
<g id="a_edge7_Node000007_Node000008"><a xlink:title=" ">
<path fill="none" stroke="#63b8ff" d="M463.39,-164.98C479.57,-156.57 504.57,-143.59 523.38,-133.81"/>
<polygon fill="#63b8ff" stroke="#63b8ff" points="525.05,-136.89 532.31,-129.17 521.83,-130.68 525.05,-136.89"/>
</a>
</g>
</g>
<!-- Node10 -->
<g id="Node000010" class="node">
<title>Node10</title>
<g id="a_Node000010"><a xlink:href="eom-transform_8h.html" target="_top" xlink:title=" ">
<polygon fill="white" stroke="#666666" points="725.5,-74 626.5,-74 626.5,-55 725.5,-55 725.5,-74"/>
<text text-anchor="middle" x="676" y="-62" font-family="Helvetica,sans-Serif" font-size="10.00">eom&#45;transform.h</text>
</a>
</g>
</g>
<!-- Node7&#45;&gt;Node10 -->
<g id="edge26_Node000007_Node000010" class="edge">
<title>Node7&#45;&gt;Node10</title>
<g id="a_edge26_Node000007_Node000010"><a xlink:title=" ">
<path fill="none" stroke="#63b8ff" d="M488.15,-165.29C518.51,-158.24 560.23,-146.43 594,-129 618.84,-116.18 643.71,-95.56 659.44,-81.31"/>
<polygon fill="#63b8ff" stroke="#63b8ff" points="662.22,-83.5 667.18,-74.14 657.46,-78.37 662.22,-83.5"/>
</a>
</g>
</g>
<!-- Node11 -->
<g id="Node000011" class="node">
<title>Node11</title>
<g id="a_Node000011"><a xlink:title=" ">
<polygon fill="#e0e0e0" stroke="#999999" points="922.5,-19 789.5,-19 789.5,0 922.5,0 922.5,-19"/>
<text text-anchor="middle" x="856" y="-7" font-family="Helvetica,sans-Serif" font-size="10.00">gdk&#45;pixbuf/gdk&#45;pixbuf.h</text>
</a>
</g>
</g>
<!-- Node7&#45;&gt;Node11 -->
<g id="edge34_Node000007_Node000011" class="edge">
<title>Node7&#45;&gt;Node11</title>
<g id="a_edge34_Node000007_Node000011"><a xlink:title=" ">
<path fill="none" stroke="#63b8ff" d="M488.04,-170.9C589.7,-163.5 848.75,-138.57 900,-74 912.71,-57.99 894.68,-38.53 878.02,-25.41"/>
<polygon fill="#63b8ff" stroke="#63b8ff" points="879.72,-22.31 869.6,-19.17 875.55,-27.94 879.72,-22.31"/>
</a>
</g>
</g>
<!-- Node12 -->
<g id="Node000012" class="node">
<title>Node12</title>
<g id="a_Node000012"><a xlink:href="eom-enums_8h.html" target="_top" xlink:title=" ">
<polygon fill="white" stroke="#666666" points="532,-74 448,-74 448,-55 532,-55 532,-74"/>
<text text-anchor="middle" x="490" y="-62" font-family="Helvetica,sans-Serif" font-size="10.00">eom&#45;enums.h</text>
</a>
</g>
</g>
<!-- Node7&#45;&gt;Node12 -->
<g id="edge31_Node000007_Node000012" class="edge">
<title>Node7&#45;&gt;Node12</title>
<g id="a_edge31_Node000007_Node000012"><a xlink:title=" ">
<path fill="none" stroke="#63b8ff" d="M450.52,-164.66C457.55,-147.01 473.44,-107.09 482.78,-83.64"/>
<polygon fill="#63b8ff" stroke="#63b8ff" points="486.11,-84.74 486.55,-74.16 479.6,-82.15 486.11,-84.74"/>
</a>
</g>
</g>
<!-- Node13 -->
<g id="Node000013" class="node">
<title>Node13</title>
<g id="a_Node000013"><a xlink:title=" ">
<polygon fill="#e0e0e0" stroke="#999999" points="278,-74 234,-74 234,-55 278,-55 278,-74"/>
<text text-anchor="middle" x="256" y="-62" font-family="Helvetica,sans-Serif" font-size="10.00">glib.h</text>
</a>
</g>
</g>
<!-- Node7&#45;&gt;Node13 -->
<g id="edge32_Node000007_Node000013" class="edge">
<title>Node7&#45;&gt;Node13</title>
<g id="a_edge32_Node000007_Node000013"><a xlink:title=" ">
<path fill="none" stroke="#63b8ff" d="M431.69,-164.84C398.5,-146.08 319.7,-101.52 279.89,-79.01"/>
<polygon fill="#63b8ff" stroke="#63b8ff" points="281.54,-75.92 271.12,-74.05 278.1,-82.02 281.54,-75.92"/>
</a>
</g>
</g>
<!-- Node14 -->
<g id="Node000014" class="node">
<title>Node14</title>
<g id="a_Node000014"><a xlink:href="eom-window_8h.html" target="_top" xlink:title=" ">
<polygon fill="white" stroke="#666666" points="313,-129 225,-129 225,-110 313,-110 313,-129"/>
<text text-anchor="middle" x="269" y="-117" font-family="Helvetica,sans-Serif" font-size="10.00">eom&#45;window.h</text>
</a>
</g>
</g>
<!-- Node7&#45;&gt;Node14 -->
<g id="edge20_Node000007_Node000014" class="edge">
<title>Node7&#45;&gt;Node14</title>
<g id="a_edge20_Node000007_Node000014"><a xlink:title=" ">
<path fill="none" stroke="#63b8ff" d="M413.29,-164.98C381.44,-156.09 334.16,-142.07 302.41,-132.15"/>
<polygon fill="#63b8ff" stroke="#63b8ff" points="303.28,-128.75 292.69,-129.08 301.18,-135.43 303.28,-128.75"/>
</a>
</g>
</g>
<!-- Node15 -->
<g id="Node000015" class="node">
<title>Node15</title>
<g id="a_Node000015"><a xlink:href="eom-image-save-info_8h.html" target="_top" xlink:title=" ">
<polygon fill="white" stroke="#666666" points="874.5,-74 743.5,-74 743.5,-55 874.5,-55 874.5,-74"/>
<text text-anchor="middle" x="809" y="-62" font-family="Helvetica,sans-Serif" font-size="10.00">eom&#45;image&#45;save&#45;info.h</text>
</a>
</g>
</g>
<!-- Node7&#45;&gt;Node15 -->
<g id="edge27_Node000007_Node000015" class="edge">
<title>Node7&#45;&gt;Node15</title>
<g id="a_edge27_Node000007_Node000015"><a xlink:title=" ">
<path fill="none" stroke="#63b8ff" d="M484.1,-164.96C519.68,-156.56 574.81,-142.99 622,-129 676.54,-112.83 738.92,-90.95 776.08,-77.55"/>
<polygon fill="#63b8ff" stroke="#63b8ff" points="777.65,-80.71 785.87,-74.01 775.27,-74.12 777.65,-80.71"/>
</a>
</g>
</g>
<!-- Node8&#45;&gt;Node2 -->
<g id="edge18_Node000008_Node000002" class="edge">
<title>Node8&#45;&gt;Node2</title>
<g id="a_edge18_Node000008_Node000002"><a xlink:title=" ">
<path fill="none" stroke="#63b8ff" d="M550.84,-109.73C553.15,-96.04 555.26,-69.65 541,-55 532.36,-46.12 369.29,-25.03 291.56,-15.42"/>
<polygon fill="#63b8ff" stroke="#63b8ff" points="291.53,-11.89 281.18,-14.14 290.68,-18.84 291.53,-11.89"/>
</a>
</g>
</g>
<!-- Node8&#45;&gt;Node3 -->
<g id="edge17_Node000008_Node000003" class="edge">
<title>Node8&#45;&gt;Node3</title>
<g id="a_edge17_Node000008_Node000003"><a xlink:title=" ">
<path fill="none" stroke="#63b8ff" d="M556.94,-109.66C573.22,-91.54 610.6,-49.91 631.39,-26.77"/>
<polygon fill="#63b8ff" stroke="#63b8ff" points="634.15,-28.94 638.22,-19.16 628.94,-24.26 634.15,-28.94"/>
</a>
</g>
</g>
<!-- Node9 -->
<g id="Node000009" class="node">
<title>Node9</title>
<g id="a_Node000009"><a xlink:href="eom-list-store_8h.html" target="_top" xlink:title=" ">
<polygon fill="white" stroke="#666666" points="391.5,-74 296.5,-74 296.5,-55 391.5,-55 391.5,-74"/>
<text text-anchor="middle" x="344" y="-62" font-family="Helvetica,sans-Serif" font-size="10.00">eom&#45;list&#45;store.h</text>
</a>
</g>
</g>
<!-- Node8&#45;&gt;Node9 -->
<g id="edge8_Node000008_Node000009" class="edge">
<title>Node8&#45;&gt;Node9</title>
<g id="a_edge8_Node000008_Node000009"><a xlink:title=" ">
<path fill="none" stroke="#63b8ff" d="M516.06,-109.98C481.05,-100.93 425.53,-86.58 387.07,-76.64"/>
<polygon fill="#63b8ff" stroke="#63b8ff" points="387.75,-73.2 377.19,-74.08 386,-79.97 387.75,-73.2"/>
</a>
</g>
</g>
<!-- Node8&#45;&gt;Node10 -->
<g id="edge12_Node000008_Node000010" class="edge">
<title>Node8&#45;&gt;Node10</title>
<g id="a_edge12_Node000008_Node000010"><a xlink:title=" ">
<path fill="none" stroke="#63b8ff" d="M569.4,-109.98C590.02,-101.38 622.11,-87.99 645.69,-78.15"/>
<polygon fill="#63b8ff" stroke="#63b8ff" points="647.34,-81.25 655.22,-74.17 644.65,-74.79 647.34,-81.25"/>
</a>
</g>
</g>
<!-- Node8&#45;&gt;Node11 -->
<g id="edge19_Node000008_Node000011" class="edge">
<title>Node8&#45;&gt;Node11</title>
<g id="a_edge19_Node000008_Node000011"><a xlink:title=" ">
<path fill="none" stroke="#63b8ff" d="M584.52,-116.39C666.7,-111.15 864.45,-96.31 884,-74 895.97,-60.34 884.14,-40.75 872.38,-26.95"/>
<polygon fill="#63b8ff" stroke="#63b8ff" points="874.63,-24.22 865.29,-19.22 869.47,-28.95 874.63,-24.22"/>
</a>
</g>
</g>
<!-- Node8&#45;&gt;Node12 -->
<g id="edge15_Node000008_Node000012" class="edge">
<title>Node8&#45;&gt;Node12</title>
<g id="a_edge15_Node000008_Node000012"><a xlink:title=" ">
<path fill="none" stroke="#63b8ff" d="M539.52,-109.98C530.8,-102.15 517.66,-90.34 507.1,-80.86"/>
<polygon fill="#63b8ff" stroke="#63b8ff" points="509.43,-78.25 499.65,-74.17 504.75,-83.46 509.43,-78.25"/>
</a>
</g>
</g>
<!-- Node8&#45;&gt;Node13 -->
<g id="edge16_Node000008_Node000013" class="edge">
<title>Node8&#45;&gt;Node13</title>
<g id="a_edge16_Node000008_Node000013"><a xlink:title=" ">
<path fill="none" stroke="#63b8ff" d="M513.34,-113.47C464.77,-106.39 374.94,-92.48 288.31,-73.88"/>
<polygon fill="#63b8ff" stroke="#63b8ff" points="288.83,-70.41 278.32,-71.7 287.35,-77.25 288.83,-70.41"/>
</a>
</g>
</g>
<!-- Node9&#45;&gt;Node2 -->
<g id="edge9_Node000009_Node000002" class="edge">
<title>Node9&#45;&gt;Node2</title>
<g id="a_edge9_Node000009_Node000002"><a xlink:title=" ">
<path fill="none" stroke="#63b8ff" d="M329.06,-54.98C314.5,-46.69 292.13,-33.94 275.07,-24.22"/>
<polygon fill="#63b8ff" stroke="#63b8ff" points="276.64,-21.08 266.21,-19.17 273.17,-27.16 276.64,-21.08"/>
</a>
</g>
</g>
<!-- Node9&#45;&gt;Node3 -->
<g id="edge11_Node000009_Node000003" class="edge">
<title>Node9&#45;&gt;Node3</title>
<g id="a_edge11_Node000009_Node000003"><a xlink:title=" ">
<path fill="none" stroke="#63b8ff" d="M391.52,-55.16C450.66,-44.78 550.62,-27.24 606.02,-17.52"/>
<polygon fill="#63b8ff" stroke="#63b8ff" points="606.91,-20.91 616.15,-15.74 605.7,-14.02 606.91,-20.91"/>
</a>
</g>
</g>
<!-- Node9&#45;&gt;Node5 -->
<g id="edge10_Node000009_Node000005" class="edge">
<title>Node9&#45;&gt;Node5</title>
<g id="a_edge10_Node000009_Node000005"><a xlink:title=" ">
<path fill="none" stroke="#63b8ff" d="M350.27,-54.75C355.59,-47.34 363.36,-36.5 369.88,-27.41"/>
<polygon fill="#63b8ff" stroke="#63b8ff" points="372.86,-29.26 375.84,-19.09 367.17,-25.18 372.86,-29.26"/>
</a>
</g>
</g>
<!-- Node10&#45;&gt;Node5 -->
<g id="edge13_Node000010_Node000005" class="edge">
<title>Node10&#45;&gt;Node5</title>
<g id="a_edge13_Node000010_Node000005"><a xlink:title=" ">
<path fill="none" stroke="#63b8ff" d="M628.76,-54.98C574.36,-45.18 485.45,-29.15 430.52,-19.25"/>
<polygon fill="#63b8ff" stroke="#63b8ff" points="431.13,-15.8 420.67,-17.47 429.89,-22.69 431.13,-15.8"/>
</a>
</g>
</g>
<!-- Node10&#45;&gt;Node11 -->
<g id="edge14_Node000010_Node000011" class="edge">
<title>Node10&#45;&gt;Node11</title>
<g id="a_edge14_Node000010_Node000011"><a xlink:title=" ">
<path fill="none" stroke="#63b8ff" d="M704.92,-54.98C735.27,-46.05 783.17,-31.94 816.88,-22.02"/>
<polygon fill="#63b8ff" stroke="#63b8ff" points="818.25,-25.26 826.85,-19.08 816.27,-18.55 818.25,-25.26"/>
</a>
</g>
</g>
<!-- Node14&#45;&gt;Node2 -->
<g id="edge25_Node000014_Node000002" class="edge">
<title>Node14&#45;&gt;Node2</title>
<g id="a_edge25_Node000014_Node000002"><a xlink:title=" ">
<path fill="none" stroke="#63b8ff" d="M239.86,-109.87C222.65,-103.1 202.26,-91.79 192,-74 180.67,-54.36 203.12,-35.84 223.51,-23.92"/>
<polygon fill="#63b8ff" stroke="#63b8ff" points="225.23,-26.97 232.31,-19.09 221.86,-20.84 225.23,-26.97"/>
</a>
</g>
</g>
<!-- Node14&#45;&gt;Node5 -->
<g id="edge24_Node000014_Node000005" class="edge">
<title>Node14&#45;&gt;Node5</title>
<g id="a_edge24_Node000014_Node000005"><a xlink:title=" ">
<path fill="none" stroke="#63b8ff" d="M255.52,-109.92C237.8,-97.57 210.52,-74.15 225,-55 238.18,-37.57 292.49,-24.98 333.58,-17.74"/>
<polygon fill="#63b8ff" stroke="#63b8ff" points="334.17,-21.19 343.44,-16.05 332.99,-14.29 334.17,-21.19"/>
</a>
</g>
</g>
<!-- Node14&#45;&gt;Node7 -->
<g id="edge22_Node000014_Node000007" class="edge">
<title>Node14&#45;&gt;Node7</title>
<g id="a_edge22_Node000014_Node000007"><a xlink:title=" ">
<path fill="none" stroke="#63b8ff" d="M302.95,-129.08C334.88,-138.01 382.16,-152.03 413.82,-161.93"/>
<polygon fill="#63b8ff" stroke="#63b8ff" points="412.93,-165.31 423.52,-164.98 415.03,-158.64 412.93,-165.31"/>
</a>
</g>
</g>
<!-- Node14&#45;&gt;Node9 -->
<g id="edge21_Node000014_Node000009" class="edge">
<title>Node14&#45;&gt;Node9</title>
<g id="a_edge21_Node000014_Node000009"><a xlink:title=" ">
<path fill="none" stroke="#63b8ff" d="M281.05,-109.98C292.46,-101.92 309.83,-89.65 323.43,-80.03"/>
<polygon fill="#63b8ff" stroke="#63b8ff" points="325.58,-82.8 331.73,-74.17 321.54,-77.08 325.58,-82.8"/>
</a>
</g>
</g>
<!-- Node14&#45;&gt;Node13 -->
<g id="edge23_Node000014_Node000013" class="edge">
<title>Node14&#45;&gt;Node13</title>
<g id="a_edge23_Node000014_Node000013"><a xlink:title=" ">
<path fill="none" stroke="#63b8ff" d="M266.85,-109.75C265.13,-102.72 262.65,-92.62 260.5,-83.84"/>
<polygon fill="#63b8ff" stroke="#63b8ff" points="263.89,-82.97 258.11,-74.09 257.09,-84.63 263.89,-82.97"/>
</a>
</g>
</g>
<!-- Node15&#45;&gt;Node3 -->
<g id="edge29_Node000015_Node000003" class="edge">
<title>Node15&#45;&gt;Node3</title>
<g id="a_edge29_Node000015_Node000003"><a xlink:title=" ">
<path fill="none" stroke="#63b8ff" d="M782.81,-54.98C755.56,-46.13 712.7,-32.19 682.22,-22.28"/>
<polygon fill="#63b8ff" stroke="#63b8ff" points="682.99,-18.85 672.39,-19.08 680.82,-25.5 682.99,-18.85"/>
</a>
</g>
</g>
<!-- Node15&#45;&gt;Node5 -->
<g id="edge28_Node000015_Node000005" class="edge">
<title>Node15&#45;&gt;Node5</title>
<g id="a_edge28_Node000015_Node000005"><a xlink:title=" ">
<path fill="none" stroke="#63b8ff" d="M743.22,-55.33C657.08,-44.64 508.04,-26.14 431.1,-16.59"/>
<polygon fill="#63b8ff" stroke="#63b8ff" points="431.09,-13.07 420.74,-15.31 430.23,-20.01 431.09,-13.07"/>
</a>
</g>
</g>
<!-- Node15&#45;&gt;Node11 -->
<g id="edge30_Node000015_Node000011" class="edge">
<title>Node15&#45;&gt;Node11</title>
<g id="a_edge30_Node000015_Node000011"><a xlink:title=" ">
<path fill="none" stroke="#63b8ff" d="M816.76,-54.75C823.47,-47.18 833.34,-36.05 841.51,-26.84"/>
<polygon fill="#63b8ff" stroke="#63b8ff" points="844.37,-28.89 848.38,-19.09 839.13,-24.25 844.37,-28.89"/>
</a>
</g>
</g>
</g>
</svg>
