<?xml version="1.0" encoding="UTF-8" standalone="no"?>
<!DOCTYPE svg PUBLIC "-//W3C//DTD SVG 1.1//EN"
 "http://www.w3.org/Graphics/SVG/1.1/DTD/svg11.dtd">
<!-- Generated by graphviz version 2.43.0 (0)
 -->
<!-- Title: eom&#45;metadata&#45;sidebar.c Pages: 1 -->
<svg width="1141pt" height="357pt"
 viewBox="0.00 0.00 1141.16 357.00" xmlns="http://www.w3.org/2000/svg" xmlns:xlink="http://www.w3.org/1999/xlink">
<g id="graph0" class="graph" transform="scale(1 1) rotate(0) translate(4 353)">
<title>eom&#45;metadata&#45;sidebar.c</title>
<!-- Node1 -->
<g id="Node000001" class="node">
<title>Node1</title>
<g id="a_Node000001"><a xlink:title=" ">
<polygon fill="#999999" stroke="#666666" points="296.16,-349 159.16,-349 159.16,-330 296.16,-330 296.16,-349"/>
<text text-anchor="middle" x="227.66" y="-337" font-family="Helvetica,sans-Serif" font-size="10.00">eom&#45;metadata&#45;sidebar.c</text>
</a>
</g>
</g>
<!-- Node2 -->
<g id="Node000002" class="node">
<title>Node2</title>
<g id="a_Node000002"><a xlink:title=" ">
<polygon fill="#e0e0e0" stroke="#999999" points="411.66,-74 367.66,-74 367.66,-55 411.66,-55 411.66,-74"/>
<text text-anchor="middle" x="389.66" y="-62" font-family="Helvetica,sans-Serif" font-size="10.00">glib.h</text>
</a>
</g>
</g>
<!-- Node1&#45;&gt;Node2 -->
<g id="edge1_Node000001_Node000002" class="edge">
<title>Node1&#45;&gt;Node2</title>
<g id="a_edge1_Node000001_Node000002"><a xlink:title=" ">
<path fill="none" stroke="#63b8ff" d="M233.35,-329.89C248.66,-306.61 291.9,-240.42 325.66,-184 340.07,-159.92 343.3,-153.67 356.66,-129 364.97,-113.65 374.1,-96.03 380.64,-83.25"/>
<polygon fill="#63b8ff" stroke="#63b8ff" points="383.84,-84.67 385.27,-74.18 377.61,-81.49 383.84,-84.67"/>
</a>
</g>
</g>
<!-- Node3 -->
<g id="Node000003" class="node">
<title>Node3</title>
<g id="a_Node000003"><a xlink:title=" ">
<polygon fill="#e0e0e0" stroke="#999999" points="102.66,-294 28.66,-294 28.66,-275 102.66,-275 102.66,-294"/>
<text text-anchor="middle" x="65.66" y="-282" font-family="Helvetica,sans-Serif" font-size="10.00">glib/gi18n.h</text>
</a>
</g>
</g>
<!-- Node1&#45;&gt;Node3 -->
<g id="edge2_Node000001_Node000003" class="edge">
<title>Node1&#45;&gt;Node3</title>
<g id="a_edge2_Node000001_Node000003"><a xlink:title=" ">
<path fill="none" stroke="#63b8ff" d="M201.63,-329.98C174.55,-321.13 131.95,-307.19 101.66,-297.28"/>
<polygon fill="#63b8ff" stroke="#63b8ff" points="102.49,-293.87 91.89,-294.08 100.31,-300.52 102.49,-293.87"/>
</a>
</g>
</g>
<!-- Node4 -->
<g id="Node000004" class="node">
<title>Node4</title>
<g id="a_Node000004"><a xlink:title=" ">
<polygon fill="#e0e0e0" stroke="#999999" points="215.66,-19 155.66,-19 155.66,0 215.66,0 215.66,-19"/>
<text text-anchor="middle" x="185.66" y="-7" font-family="Helvetica,sans-Serif" font-size="10.00">gtk/gtk.h</text>
</a>
</g>
</g>
<!-- Node1&#45;&gt;Node4 -->
<g id="edge3_Node000001_Node000004" class="edge">
<title>Node1&#45;&gt;Node4</title>
<g id="a_edge3_Node000001_Node000004"><a xlink:title=" ">
<path fill="none" stroke="#63b8ff" d="M159.09,-331.39C106.57,-324.59 39.81,-312.6 19.66,-294 -1.98,-274.02 0.66,-259.96 0.66,-230.5 0.66,-230.5 0.66,-230.5 0.66,-118.5 0.66,-51.94 91.07,-25.66 145.49,-15.87"/>
<polygon fill="#63b8ff" stroke="#63b8ff" points="146.25,-19.29 155.53,-14.18 145.08,-12.39 146.25,-19.29"/>
</a>
</g>
</g>
<!-- Node5 -->
<g id="Node000005" class="node">
<title>Node5</title>
<g id="a_Node000005"><a xlink:href="eom-image_8h.html" target="_top" xlink:title=" ">
<polygon fill="white" stroke="#666666" points="721.66,-184 639.66,-184 639.66,-165 721.66,-165 721.66,-184"/>
<text text-anchor="middle" x="680.66" y="-172" font-family="Helvetica,sans-Serif" font-size="10.00">eom&#45;image.h</text>
</a>
</g>
</g>
<!-- Node1&#45;&gt;Node5 -->
<g id="edge4_Node000001_Node000005" class="edge">
<title>Node1&#45;&gt;Node5</title>
<g id="a_edge4_Node000001_Node000005"><a xlink:title=" ">
<path fill="none" stroke="#63b8ff" d="M296.43,-332.43C358.36,-326.01 451.54,-314 530.66,-294 599.91,-276.5 640.7,-297.51 681.66,-239 690.74,-226.03 689.32,-207.63 686.32,-193.97"/>
<polygon fill="#63b8ff" stroke="#63b8ff" points="689.69,-193 683.75,-184.23 682.92,-194.79 689.69,-193"/>
</a>
</g>
</g>
<!-- Node13 -->
<g id="Node000013" class="node">
<title>Node13</title>
<g id="a_Node000013"><a xlink:href="eom-window_8h.html" target="_top" xlink:title=" ">
<polygon fill="white" stroke="#666666" points="575.66,-129 487.66,-129 487.66,-110 575.66,-110 575.66,-129"/>
<text text-anchor="middle" x="531.66" y="-117" font-family="Helvetica,sans-Serif" font-size="10.00">eom&#45;window.h</text>
</a>
</g>
</g>
<!-- Node1&#45;&gt;Node13 -->
<g id="edge50_Node000001_Node000013" class="edge">
<title>Node1&#45;&gt;Node13</title>
<g id="a_edge50_Node000001_Node000013"><a xlink:title=" ">
<path fill="none" stroke="#63b8ff" d="M296.38,-335.9C366.76,-331.76 469.7,-321.13 497.66,-294 540.2,-252.73 537.91,-175 534.22,-139.3"/>
<polygon fill="#63b8ff" stroke="#63b8ff" points="537.68,-138.8 533.02,-129.28 530.73,-139.63 537.68,-138.8"/>
</a>
</g>
</g>
<!-- Node15 -->
<g id="Node000015" class="node">
<title>Node15</title>
<g id="a_Node000015"><a xlink:href="eom-metadata-sidebar_8h.html" target="_top" xlink:title=" ">
<polygon fill="white" stroke="#666666" points="317.16,-184 180.16,-184 180.16,-165 317.16,-165 317.16,-184"/>
<text text-anchor="middle" x="248.66" y="-172" font-family="Helvetica,sans-Serif" font-size="10.00">eom&#45;metadata&#45;sidebar.h</text>
</a>
</g>
</g>
<!-- Node1&#45;&gt;Node15 -->
<g id="edge33_Node000001_Node000015" class="edge">
<title>Node1&#45;&gt;Node15</title>
<g id="a_edge33_Node000001_Node000015"><a xlink:title=" ">
<path fill="none" stroke="#63b8ff" d="M217.13,-329.98C194.05,-310.23 142.88,-259.97 166.66,-220 175.58,-205.02 191.5,-194.76 206.95,-187.91"/>
<polygon fill="#63b8ff" stroke="#63b8ff" points="208.49,-191.07 216.45,-184.08 205.87,-184.58 208.49,-191.07"/>
</a>
</g>
</g>
<!-- Node16 -->
<g id="Node000016" class="node">
<title>Node16</title>
<g id="a_Node000016"><a xlink:href="eom-properties-dialog_8h.html" target="_top" xlink:title=" ">
<polygon fill="white" stroke="#666666" points="488.66,-294 354.66,-294 354.66,-275 488.66,-275 488.66,-294"/>
<text text-anchor="middle" x="421.66" y="-282" font-family="Helvetica,sans-Serif" font-size="10.00">eom&#45;properties&#45;dialog.h</text>
</a>
</g>
</g>
<!-- Node1&#45;&gt;Node16 -->
<g id="edge37_Node000001_Node000016" class="edge">
<title>Node1&#45;&gt;Node16</title>
<g id="a_edge37_Node000001_Node000016"><a xlink:title=" ">
<path fill="none" stroke="#63b8ff" d="M258.83,-329.98C291.82,-320.97 344.06,-306.7 380.44,-296.76"/>
<polygon fill="#63b8ff" stroke="#63b8ff" points="381.52,-300.09 390.25,-294.08 379.68,-293.34 381.52,-300.09"/>
</a>
</g>
</g>
<!-- Node18 -->
<g id="Node000018" class="node">
<title>Node18</title>
<g id="a_Node000018"><a xlink:href="eom-scroll-view_8h.html" target="_top" xlink:title=" ">
<polygon fill="white" stroke="#666666" points="279.16,-239 176.16,-239 176.16,-220 279.16,-220 279.16,-239"/>
<text text-anchor="middle" x="227.66" y="-227" font-family="Helvetica,sans-Serif" font-size="10.00">eom&#45;scroll&#45;view.h</text>
</a>
</g>
</g>
<!-- Node1&#45;&gt;Node18 -->
<g id="edge45_Node000001_Node000018" class="edge">
<title>Node1&#45;&gt;Node18</title>
<g id="a_edge45_Node000001_Node000018"><a xlink:title=" ">
<path fill="none" stroke="#63b8ff" d="M227.66,-329.66C227.66,-312.17 227.66,-272.8 227.66,-249.27"/>
<polygon fill="#63b8ff" stroke="#63b8ff" points="231.16,-249.16 227.66,-239.16 224.16,-249.16 231.16,-249.16"/>
</a>
</g>
</g>
<!-- Node19 -->
<g id="Node000019" class="node">
<title>Node19</title>
<g id="a_Node000019"><a xlink:href="eom-util_8h.html" target="_top" xlink:title=" ">
<polygon fill="white" stroke="#666666" points="114.16,-239 47.16,-239 47.16,-220 114.16,-220 114.16,-239"/>
<text text-anchor="middle" x="80.66" y="-227" font-family="Helvetica,sans-Serif" font-size="10.00">eom&#45;util.h</text>
</a>
</g>
</g>
<!-- Node1&#45;&gt;Node19 -->
<g id="edge48_Node000001_Node000019" class="edge">
<title>Node1&#45;&gt;Node19</title>
<g id="a_edge48_Node000001_Node000019"><a xlink:title=" ">
<path fill="none" stroke="#63b8ff" d="M212.1,-329.99C196.99,-321.5 173.63,-307.78 154.66,-294 134.05,-279.03 112.11,-259.72 97.51,-246.34"/>
<polygon fill="#63b8ff" stroke="#63b8ff" points="99.55,-243.46 89.84,-239.23 94.79,-248.59 99.55,-243.46"/>
</a>
</g>
</g>
<!-- Node5&#45;&gt;Node2 -->
<g id="edge30_Node000005_Node000002" class="edge">
<title>Node5&#45;&gt;Node2</title>
<g id="a_edge30_Node000005_Node000002"><a xlink:title=" ">
<path fill="none" stroke="#63b8ff" d="M639.29,-169.32C597.36,-163.96 531.33,-152.41 478.66,-129 451.48,-116.92 424.23,-95.84 407.18,-81.3"/>
<polygon fill="#63b8ff" stroke="#63b8ff" points="409.08,-78.32 399.25,-74.38 404.48,-83.59 409.08,-78.32"/>
</a>
</g>
</g>
<!-- Node6 -->
<g id="Node000006" class="node">
<title>Node6</title>
<g id="a_Node000006"><a xlink:href="eom-jobs_8h.html" target="_top" xlink:title=" ">
<polygon fill="white" stroke="#666666" points="767.16,-129 696.16,-129 696.16,-110 767.16,-110 767.16,-129"/>
<text text-anchor="middle" x="731.66" y="-117" font-family="Helvetica,sans-Serif" font-size="10.00">eom&#45;jobs.h</text>
</a>
</g>
</g>
<!-- Node5&#45;&gt;Node6 -->
<g id="edge5_Node000005_Node000006" class="edge">
<title>Node5&#45;&gt;Node6</title>
<g id="a_edge5_Node000005_Node000006"><a xlink:title=" ">
<path fill="none" stroke="#63b8ff" d="M689.08,-164.75C696.44,-157.11 707.29,-145.82 716.2,-136.56"/>
<polygon fill="#63b8ff" stroke="#63b8ff" points="718.98,-138.72 723.4,-129.09 713.94,-133.87 718.98,-138.72"/>
</a>
</g>
</g>
<!-- Node8 -->
<g id="Node000008" class="node">
<title>Node8</title>
<g id="a_Node000008"><a xlink:title=" ">
<polygon fill="#e0e0e0" stroke="#999999" points="630.16,-19 553.16,-19 553.16,0 630.16,0 630.16,-19"/>
<text text-anchor="middle" x="591.66" y="-7" font-family="Helvetica,sans-Serif" font-size="10.00">glib&#45;object.h</text>
</a>
</g>
</g>
<!-- Node5&#45;&gt;Node8 -->
<g id="edge31_Node000005_Node000008" class="edge">
<title>Node5&#45;&gt;Node8</title>
<g id="a_edge31_Node000005_Node000008"><a xlink:title=" ">
<path fill="none" stroke="#63b8ff" d="M680.06,-164.71C678.26,-143.95 671.5,-90.95 647.66,-55 639.54,-42.75 626.96,-32.31 615.78,-24.64"/>
<polygon fill="#63b8ff" stroke="#63b8ff" points="617.51,-21.59 607.22,-19.09 613.7,-27.46 617.51,-21.59"/>
</a>
</g>
</g>
<!-- Node10 -->
<g id="Node000010" class="node">
<title>Node10</title>
<g id="a_Node000010"><a xlink:href="eom-transform_8h.html" target="_top" xlink:title=" ">
<polygon fill="white" stroke="#666666" points="833.16,-74 734.16,-74 734.16,-55 833.16,-55 833.16,-74"/>
<text text-anchor="middle" x="783.66" y="-62" font-family="Helvetica,sans-Serif" font-size="10.00">eom&#45;transform.h</text>
</a>
</g>
</g>
<!-- Node5&#45;&gt;Node10 -->
<g id="edge24_Node000005_Node000010" class="edge">
<title>Node5&#45;&gt;Node10</title>
<g id="a_edge24_Node000005_Node000010"><a xlink:title=" ">
<path fill="none" stroke="#63b8ff" d="M720.31,-164.96C740.43,-158.51 763.37,-147.5 776.66,-129 785.87,-116.2 787.01,-98.03 786.2,-84.4"/>
<polygon fill="#63b8ff" stroke="#63b8ff" points="789.66,-83.85 785.2,-74.24 782.7,-84.54 789.66,-83.85"/>
</a>
</g>
</g>
<!-- Node11 -->
<g id="Node000011" class="node">
<title>Node11</title>
<g id="a_Node000011"><a xlink:title=" ">
<polygon fill="#e0e0e0" stroke="#999999" points="1133.16,-19 1000.16,-19 1000.16,0 1133.16,0 1133.16,-19"/>
<text text-anchor="middle" x="1066.66" y="-7" font-family="Helvetica,sans-Serif" font-size="10.00">gdk&#45;pixbuf/gdk&#45;pixbuf.h</text>
</a>
</g>
</g>
<!-- Node5&#45;&gt;Node11 -->
<g id="edge32_Node000005_Node000011" class="edge">
<title>Node5&#45;&gt;Node11</title>
<g id="a_edge32_Node000005_Node000011"><a xlink:title=" ">
<path fill="none" stroke="#63b8ff" d="M721.74,-170.33C819.64,-161.84 1062.2,-134.95 1110.66,-74 1123.38,-58 1105.36,-38.54 1088.69,-25.41"/>
<polygon fill="#63b8ff" stroke="#63b8ff" points="1090.38,-22.31 1080.26,-19.18 1086.22,-27.94 1090.38,-22.31"/>
</a>
</g>
</g>
<!-- Node12 -->
<g id="Node000012" class="node">
<title>Node12</title>
<g id="a_Node000012"><a xlink:href="eom-enums_8h.html" target="_top" xlink:title=" ">
<polygon fill="white" stroke="#666666" points="935.66,-74 851.66,-74 851.66,-55 935.66,-55 935.66,-74"/>
<text text-anchor="middle" x="893.66" y="-62" font-family="Helvetica,sans-Serif" font-size="10.00">eom&#45;enums.h</text>
</a>
</g>
</g>
<!-- Node5&#45;&gt;Node12 -->
<g id="edge29_Node000005_Node000012" class="edge">
<title>Node5&#45;&gt;Node12</title>
<g id="a_edge29_Node000005_Node000012"><a xlink:title=" ">
<path fill="none" stroke="#63b8ff" d="M706.4,-164.95C729.71,-156.83 764.72,-143.72 793.66,-129 822.59,-114.29 853.86,-93.58 873.59,-79.86"/>
<polygon fill="#63b8ff" stroke="#63b8ff" points="875.62,-82.71 881.79,-74.1 871.59,-76.98 875.62,-82.71"/>
</a>
</g>
</g>
<!-- Node5&#45;&gt;Node13 -->
<g id="edge18_Node000005_Node000013" class="edge">
<title>Node5&#45;&gt;Node13</title>
<g id="a_edge18_Node000005_Node000013"><a xlink:title=" ">
<path fill="none" stroke="#63b8ff" d="M651.61,-164.98C625.17,-156.27 586.62,-142.63 560.32,-132.75"/>
<polygon fill="#63b8ff" stroke="#63b8ff" points="561.48,-129.45 550.89,-129.17 558.99,-135.99 561.48,-129.45"/>
</a>
</g>
</g>
<!-- Node14 -->
<g id="Node000014" class="node">
<title>Node14</title>
<g id="a_Node000014"><a xlink:href="eom-image-save-info_8h.html" target="_top" xlink:title=" ">
<polygon fill="white" stroke="#666666" points="1085.16,-74 954.16,-74 954.16,-55 1085.16,-55 1085.16,-74"/>
<text text-anchor="middle" x="1019.66" y="-62" font-family="Helvetica,sans-Serif" font-size="10.00">eom&#45;image&#45;save&#45;info.h</text>
</a>
</g>
</g>
<!-- Node5&#45;&gt;Node14 -->
<g id="edge25_Node000005_Node000014" class="edge">
<title>Node5&#45;&gt;Node14</title>
<g id="a_edge25_Node000005_Node000014"><a xlink:title=" ">
<path fill="none" stroke="#63b8ff" d="M708.17,-164.95C736.79,-156.04 782.9,-141.64 822.66,-129 878.9,-111.13 944.04,-90.06 983.53,-77.24"/>
<polygon fill="#63b8ff" stroke="#63b8ff" points="984.81,-80.51 993.24,-74.09 982.64,-73.85 984.81,-80.51"/>
</a>
</g>
</g>
<!-- Node6&#45;&gt;Node2 -->
<g id="edge14_Node000006_Node000002" class="edge">
<title>Node6&#45;&gt;Node2</title>
<g id="a_edge14_Node000006_Node000002"><a xlink:title=" ">
<path fill="none" stroke="#63b8ff" d="M696.03,-112.98C629.1,-102.61 485.58,-80.36 421.59,-70.45"/>
<polygon fill="#63b8ff" stroke="#63b8ff" points="422.09,-66.98 411.67,-68.91 421.02,-73.9 422.09,-66.98"/>
</a>
</g>
</g>
<!-- Node6&#45;&gt;Node4 -->
<g id="edge16_Node000006_Node000004" class="edge">
<title>Node6&#45;&gt;Node4</title>
<g id="a_edge16_Node000006_Node000004"><a xlink:title=" ">
<path fill="none" stroke="#63b8ff" d="M696.05,-110.58C656.57,-101.77 591.02,-87.06 534.66,-74 499.06,-65.75 490.49,-62.21 454.66,-55 373.96,-38.76 278.76,-24.05 226.01,-16.28"/>
<polygon fill="#63b8ff" stroke="#63b8ff" points="226.44,-12.81 216.04,-14.82 225.43,-19.74 226.44,-12.81"/>
</a>
</g>
</g>
<!-- Node7 -->
<g id="Node000007" class="node">
<title>Node7</title>
<g id="a_Node000007"><a xlink:href="eom-list-store_8h.html" target="_top" xlink:title=" ">
<polygon fill="white" stroke="#666666" points="639.16,-74 544.16,-74 544.16,-55 639.16,-55 639.16,-74"/>
<text text-anchor="middle" x="591.66" y="-62" font-family="Helvetica,sans-Serif" font-size="10.00">eom&#45;list&#45;store.h</text>
</a>
</g>
</g>
<!-- Node6&#45;&gt;Node7 -->
<g id="edge6_Node000006_Node000007" class="edge">
<title>Node6&#45;&gt;Node7</title>
<g id="a_edge6_Node000006_Node000007"><a xlink:title=" ">
<path fill="none" stroke="#63b8ff" d="M709.17,-109.98C686.14,-101.27 650.12,-87.63 624.03,-77.75"/>
<polygon fill="#63b8ff" stroke="#63b8ff" points="625.16,-74.44 614.56,-74.17 622.68,-80.98 625.16,-74.44"/>
</a>
</g>
</g>
<!-- Node9 -->
<g id="Node000009" class="node">
<title>Node9</title>
<g id="a_Node000009"><a xlink:title=" ">
<polygon fill="#e0e0e0" stroke="#999999" points="735.16,-19 676.16,-19 676.16,0 735.16,0 735.16,-19"/>
<text text-anchor="middle" x="705.66" y="-7" font-family="Helvetica,sans-Serif" font-size="10.00">gio/gio.h</text>
</a>
</g>
</g>
<!-- Node6&#45;&gt;Node9 -->
<g id="edge15_Node000006_Node000009" class="edge">
<title>Node6&#45;&gt;Node9</title>
<g id="a_edge15_Node000006_Node000009"><a xlink:title=" ">
<path fill="none" stroke="#63b8ff" d="M729.53,-109.66C725.3,-92.09 715.76,-52.45 710.1,-28.95"/>
<polygon fill="#63b8ff" stroke="#63b8ff" points="713.49,-28.06 707.75,-19.16 706.68,-29.7 713.49,-28.06"/>
</a>
</g>
</g>
<!-- Node6&#45;&gt;Node10 -->
<g id="edge10_Node000006_Node000010" class="edge">
<title>Node6&#45;&gt;Node10</title>
<g id="a_edge10_Node000006_Node000010"><a xlink:title=" ">
<path fill="none" stroke="#63b8ff" d="M740.25,-109.75C747.82,-102.03 759.04,-90.6 768.18,-81.28"/>
<polygon fill="#63b8ff" stroke="#63b8ff" points="770.73,-83.68 775.23,-74.09 765.73,-78.78 770.73,-83.68"/>
</a>
</g>
</g>
<!-- Node6&#45;&gt;Node11 -->
<g id="edge17_Node000006_Node000011" class="edge">
<title>Node6&#45;&gt;Node11</title>
<g id="a_edge17_Node000006_Node000011"><a xlink:title=" ">
<path fill="none" stroke="#63b8ff" d="M767.21,-116.77C854.37,-112.18 1073.15,-98.31 1094.66,-74 1106.81,-60.27 1094.63,-40.43 1082.75,-26.6"/>
<polygon fill="#63b8ff" stroke="#63b8ff" points="1085.32,-24.22 1075.97,-19.23 1080.17,-28.96 1085.32,-24.22"/>
</a>
</g>
</g>
<!-- Node6&#45;&gt;Node12 -->
<g id="edge13_Node000006_Node000012" class="edge">
<title>Node6&#45;&gt;Node12</title>
<g id="a_edge13_Node000006_Node000012"><a xlink:title=" ">
<path fill="none" stroke="#63b8ff" d="M757.69,-109.98C784.77,-101.13 827.37,-87.19 857.67,-77.28"/>
<polygon fill="#63b8ff" stroke="#63b8ff" points="859.01,-80.52 867.43,-74.08 856.84,-73.87 859.01,-80.52"/>
</a>
</g>
</g>
<!-- Node7&#45;&gt;Node4 -->
<g id="edge7_Node000007_Node000004" class="edge">
<title>Node7&#45;&gt;Node4</title>
<g id="a_edge7_Node000007_Node000004"><a xlink:title=" ">
<path fill="none" stroke="#63b8ff" d="M543.89,-57.26C463.11,-46.72 300.99,-25.55 225.73,-15.73"/>
<polygon fill="#63b8ff" stroke="#63b8ff" points="226.08,-12.25 215.71,-14.42 225.17,-19.19 226.08,-12.25"/>
</a>
</g>
</g>
<!-- Node7&#45;&gt;Node8 -->
<g id="edge8_Node000007_Node000008" class="edge">
<title>Node7&#45;&gt;Node8</title>
<g id="a_edge8_Node000007_Node000008"><a xlink:title=" ">
<path fill="none" stroke="#63b8ff" d="M591.66,-54.75C591.66,-47.8 591.66,-37.85 591.66,-29.13"/>
<polygon fill="#63b8ff" stroke="#63b8ff" points="595.16,-29.09 591.66,-19.09 588.16,-29.09 595.16,-29.09"/>
</a>
</g>
</g>
<!-- Node7&#45;&gt;Node9 -->
<g id="edge9_Node000007_Node000009" class="edge">
<title>Node7&#45;&gt;Node9</title>
<g id="a_edge9_Node000007_Node000009"><a xlink:title=" ">
<path fill="none" stroke="#63b8ff" d="M609.98,-54.98C628.32,-46.46 656.77,-33.23 677.89,-23.41"/>
<polygon fill="#63b8ff" stroke="#63b8ff" points="679.42,-26.56 687.01,-19.17 676.47,-20.21 679.42,-26.56"/>
</a>
</g>
</g>
<!-- Node10&#45;&gt;Node8 -->
<g id="edge11_Node000010_Node000008" class="edge">
<title>Node10&#45;&gt;Node8</title>
<g id="a_edge11_Node000010_Node000008"><a xlink:title=" ">
<path fill="none" stroke="#63b8ff" d="M752.81,-54.98C720.16,-45.97 668.47,-31.7 632.46,-21.76"/>
<polygon fill="#63b8ff" stroke="#63b8ff" points="633.32,-18.37 622.75,-19.08 631.46,-25.12 633.32,-18.37"/>
</a>
</g>
</g>
<!-- Node10&#45;&gt;Node11 -->
<g id="edge12_Node000010_Node000011" class="edge">
<title>Node10&#45;&gt;Node11</title>
<g id="a_edge12_Node000010_Node000011"><a xlink:title=" ">
<path fill="none" stroke="#63b8ff" d="M829.13,-54.98C878.6,-45.72 957.71,-30.9 1010.89,-20.94"/>
<polygon fill="#63b8ff" stroke="#63b8ff" points="1011.65,-24.36 1020.84,-19.08 1010.36,-17.48 1011.65,-24.36"/>
</a>
</g>
</g>
<!-- Node13&#45;&gt;Node2 -->
<g id="edge21_Node000013_Node000002" class="edge">
<title>Node13&#45;&gt;Node2</title>
<g id="a_edge21_Node000013_Node000002"><a xlink:title=" ">
<path fill="none" stroke="#63b8ff" d="M508.85,-109.98C485.21,-101.16 448.09,-87.31 421.55,-77.4"/>
<polygon fill="#63b8ff" stroke="#63b8ff" points="422.54,-74.04 411.95,-73.82 420.1,-80.6 422.54,-74.04"/>
</a>
</g>
</g>
<!-- Node13&#45;&gt;Node4 -->
<g id="edge23_Node000013_Node000004" class="edge">
<title>Node13&#45;&gt;Node4</title>
<g id="a_edge23_Node000013_Node000004"><a xlink:title=" ">
<path fill="none" stroke="#63b8ff" d="M519.68,-109.84C500,-96.05 459.2,-69.21 420.66,-55 354.93,-30.75 273.75,-19.14 226.05,-14.03"/>
<polygon fill="#63b8ff" stroke="#63b8ff" points="226.12,-10.52 215.82,-12.99 225.41,-17.49 226.12,-10.52"/>
</a>
</g>
</g>
<!-- Node13&#45;&gt;Node5 -->
<g id="edge20_Node000013_Node000005" class="edge">
<title>Node13&#45;&gt;Node5</title>
<g id="a_edge20_Node000013_Node000005"><a xlink:title=" ">
<path fill="none" stroke="#63b8ff" d="M560.92,-129.08C587.49,-137.85 626.2,-151.54 652.44,-161.41"/>
<polygon fill="#63b8ff" stroke="#63b8ff" points="651.25,-164.7 661.84,-164.98 653.74,-158.16 651.25,-164.7"/>
</a>
</g>
</g>
<!-- Node13&#45;&gt;Node7 -->
<g id="edge19_Node000013_Node000007" class="edge">
<title>Node13&#45;&gt;Node7</title>
<g id="a_edge19_Node000013_Node000007"><a xlink:title=" ">
<path fill="none" stroke="#63b8ff" d="M541.3,-109.98C550.17,-102.15 563.54,-90.34 574.27,-80.86"/>
<polygon fill="#63b8ff" stroke="#63b8ff" points="576.67,-83.41 581.85,-74.17 572.03,-78.17 576.67,-83.41"/>
</a>
</g>
</g>
<!-- Node13&#45;&gt;Node8 -->
<g id="edge22_Node000013_Node000008" class="edge">
<title>Node13&#45;&gt;Node8</title>
<g id="a_edge22_Node000013_Node000008"><a xlink:title=" ">
<path fill="none" stroke="#63b8ff" d="M529.88,-109.7C527.76,-96.87 525.53,-72.64 534.66,-55 541.31,-42.16 553.52,-31.86 564.93,-24.42"/>
<polygon fill="#63b8ff" stroke="#63b8ff" points="567.05,-27.23 573.8,-19.07 563.43,-21.24 567.05,-27.23"/>
</a>
</g>
</g>
<!-- Node14&#45;&gt;Node8 -->
<g id="edge26_Node000014_Node000008" class="edge">
<title>Node14&#45;&gt;Node8</title>
<g id="a_edge26_Node000014_Node000008"><a xlink:title=" ">
<path fill="none" stroke="#63b8ff" d="M953.72,-55.33C867.28,-44.63 717.61,-26.1 640.58,-16.56"/>
<polygon fill="#63b8ff" stroke="#63b8ff" points="640.56,-13.03 630.21,-15.27 639.7,-19.98 640.56,-13.03"/>
</a>
</g>
</g>
<!-- Node14&#45;&gt;Node9 -->
<g id="edge27_Node000014_Node000009" class="edge">
<title>Node14&#45;&gt;Node9</title>
<g id="a_edge27_Node000014_Node000009"><a xlink:title=" ">
<path fill="none" stroke="#63b8ff" d="M969.21,-54.98C906.87,-44.46 802.08,-26.78 745.23,-17.18"/>
<polygon fill="#63b8ff" stroke="#63b8ff" points="745.64,-13.7 735.2,-15.49 744.48,-20.6 745.64,-13.7"/>
</a>
</g>
</g>
<!-- Node14&#45;&gt;Node11 -->
<g id="edge28_Node000014_Node000011" class="edge">
<title>Node14&#45;&gt;Node11</title>
<g id="a_edge28_Node000014_Node000011"><a xlink:title=" ">
<path fill="none" stroke="#63b8ff" d="M1027.42,-54.75C1034.13,-47.18 1044,-36.05 1052.17,-26.84"/>
<polygon fill="#63b8ff" stroke="#63b8ff" points="1055.03,-28.89 1059.04,-19.09 1049.79,-24.25 1055.03,-28.89"/>
</a>
</g>
</g>
<!-- Node15&#45;&gt;Node4 -->
<g id="edge35_Node000015_Node000004" class="edge">
<title>Node15&#45;&gt;Node4</title>
<g id="a_edge35_Node000015_Node000004"><a xlink:title=" ">
<path fill="none" stroke="#63b8ff" d="M245.27,-164.74C235.36,-139.09 206.26,-63.78 192.73,-28.78"/>
<polygon fill="#63b8ff" stroke="#63b8ff" points="195.94,-27.37 189.07,-19.31 189.41,-29.9 195.94,-27.37"/>
</a>
</g>
</g>
<!-- Node15&#45;&gt;Node8 -->
<g id="edge34_Node000015_Node000008" class="edge">
<title>Node15&#45;&gt;Node8</title>
<g id="a_edge34_Node000015_Node000008"><a xlink:title=" ">
<path fill="none" stroke="#63b8ff" d="M251.49,-164.88C259.29,-142.55 283.39,-82.7 325.66,-55 360.6,-32.1 476.09,-19.5 542.84,-13.97"/>
<polygon fill="#63b8ff" stroke="#63b8ff" points="543.43,-17.44 553.12,-13.14 542.87,-10.46 543.43,-17.44"/>
</a>
</g>
</g>
<!-- Node15&#45;&gt;Node13 -->
<g id="edge36_Node000015_Node000013" class="edge">
<title>Node15&#45;&gt;Node13</title>
<g id="a_edge36_Node000015_Node000013"><a xlink:title=" ">
<path fill="none" stroke="#63b8ff" d="M294.13,-164.98C344.04,-155.64 424.12,-140.64 477.31,-130.68"/>
<polygon fill="#63b8ff" stroke="#63b8ff" points="478.05,-134.1 487.24,-128.82 476.77,-127.22 478.05,-134.1"/>
</a>
</g>
</g>
<!-- Node16&#45;&gt;Node2 -->
<g id="edge42_Node000016_Node000002" class="edge">
<title>Node16&#45;&gt;Node2</title>
<g id="a_edge42_Node000016_Node000002"><a xlink:title=" ">
<path fill="none" stroke="#63b8ff" d="M420.59,-274.82C417.41,-249.41 407.69,-173.07 397.66,-110 396.3,-101.46 394.63,-92.04 393.17,-84.07"/>
<polygon fill="#63b8ff" stroke="#63b8ff" points="396.57,-83.2 391.3,-74.01 389.69,-84.49 396.57,-83.2"/>
</a>
</g>
</g>
<!-- Node16&#45;&gt;Node4 -->
<g id="edge44_Node000016_Node000004" class="edge">
<title>Node16&#45;&gt;Node4</title>
<g id="a_edge44_Node000016_Node000004"><a xlink:title=" ">
<path fill="none" stroke="#63b8ff" d="M405.49,-274.9C380.64,-261.9 331.34,-236.97 287.66,-220 236.95,-200.3 202.98,-227.76 170.66,-184 135.99,-137.06 162.13,-62.26 177.09,-28.31"/>
<polygon fill="#63b8ff" stroke="#63b8ff" points="180.3,-29.7 181.3,-19.16 173.94,-26.78 180.3,-29.7"/>
</a>
</g>
</g>
<!-- Node16&#45;&gt;Node5 -->
<g id="edge38_Node000016_Node000005" class="edge">
<title>Node16&#45;&gt;Node5</title>
<g id="a_edge38_Node000016_Node000005"><a xlink:title=" ">
<path fill="none" stroke="#63b8ff" d="M488.71,-278.82C550.63,-273.15 636.67,-261.44 661.66,-239 674.09,-227.84 678.53,-208.91 680.05,-194.62"/>
<polygon fill="#63b8ff" stroke="#63b8ff" points="683.56,-194.6 680.74,-184.39 676.58,-194.13 683.56,-194.6"/>
</a>
</g>
</g>
<!-- Node16&#45;&gt;Node8 -->
<g id="edge43_Node000016_Node000008" class="edge">
<title>Node16&#45;&gt;Node8</title>
<g id="a_edge43_Node000016_Node000008"><a xlink:title=" ">
<path fill="none" stroke="#63b8ff" d="M414.42,-274.85C387.8,-241.99 299.97,-123.39 358.66,-55 382.05,-27.75 481.72,-16.97 542.87,-12.87"/>
<polygon fill="#63b8ff" stroke="#63b8ff" points="543.32,-16.35 553.08,-12.23 542.88,-9.37 543.32,-16.35"/>
</a>
</g>
</g>
<!-- Node17 -->
<g id="Node000017" class="node">
<title>Node17</title>
<g id="a_Node000017"><a xlink:href="eom-thumb-view_8h.html" target="_top" xlink:title=" ">
<polygon fill="white" stroke="#666666" points="652.66,-239 544.66,-239 544.66,-220 652.66,-220 652.66,-239"/>
<text text-anchor="middle" x="598.66" y="-227" font-family="Helvetica,sans-Serif" font-size="10.00">eom&#45;thumb&#45;view.h</text>
</a>
</g>
</g>
<!-- Node16&#45;&gt;Node17 -->
<g id="edge39_Node000016_Node000017" class="edge">
<title>Node16&#45;&gt;Node17</title>
<g id="a_edge39_Node000016_Node000017"><a xlink:title=" ">
<path fill="none" stroke="#63b8ff" d="M450.1,-274.98C479.94,-266.05 527.04,-251.94 560.19,-242.02"/>
<polygon fill="#63b8ff" stroke="#63b8ff" points="561.42,-245.3 570,-239.08 559.42,-238.6 561.42,-245.3"/>
</a>
</g>
</g>
<!-- Node17&#45;&gt;Node5 -->
<g id="edge40_Node000017_Node000005" class="edge">
<title>Node17&#45;&gt;Node5</title>
<g id="a_edge40_Node000017_Node000005"><a xlink:title=" ">
<path fill="none" stroke="#63b8ff" d="M611.84,-219.98C624.43,-211.84 643.67,-199.41 658.6,-189.76"/>
<polygon fill="#63b8ff" stroke="#63b8ff" points="660.75,-192.54 667.25,-184.17 656.95,-186.66 660.75,-192.54"/>
</a>
</g>
</g>
<!-- Node17&#45;&gt;Node7 -->
<g id="edge41_Node000017_Node000007" class="edge">
<title>Node17&#45;&gt;Node7</title>
<g id="a_edge41_Node000017_Node000007"><a xlink:title=" ">
<path fill="none" stroke="#63b8ff" d="M598.29,-219.74C597.19,-194.31 594.01,-120.08 592.49,-84.69"/>
<polygon fill="#63b8ff" stroke="#63b8ff" points="595.97,-84.15 592.04,-74.31 588.97,-84.45 595.97,-84.15"/>
</a>
</g>
</g>
<!-- Node18&#45;&gt;Node4 -->
<g id="edge46_Node000018_Node000004" class="edge">
<title>Node18&#45;&gt;Node4</title>
<g id="a_edge46_Node000018_Node000004"><a xlink:title=" ">
<path fill="none" stroke="#63b8ff" d="M189.65,-219.85C170.54,-213.37 149.07,-202.36 137.66,-184 107.41,-135.3 114.72,-107.54 137.66,-55 142.94,-42.92 153.29,-32.65 163.03,-25.03"/>
<polygon fill="#63b8ff" stroke="#63b8ff" points="165.25,-27.74 171.3,-19.04 161.15,-22.07 165.25,-27.74"/>
</a>
</g>
</g>
<!-- Node18&#45;&gt;Node5 -->
<g id="edge47_Node000018_Node000005" class="edge">
<title>Node18&#45;&gt;Node5</title>
<g id="a_edge47_Node000018_Node000005"><a xlink:title=" ">
<path fill="none" stroke="#63b8ff" d="M279.19,-222.47C366.43,-212.26 542.22,-191.7 629.33,-181.51"/>
<polygon fill="#63b8ff" stroke="#63b8ff" points="629.98,-184.95 639.5,-180.32 629.16,-178 629.98,-184.95"/>
</a>
</g>
</g>
<!-- Node19&#45;&gt;Node4 -->
<g id="edge49_Node000019_Node000004" class="edge">
<title>Node19&#45;&gt;Node4</title>
<g id="a_edge49_Node000019_Node000004"><a xlink:title=" ">
<path fill="none" stroke="#63b8ff" d="M81,-219.74C82.45,-192.83 89.8,-109.83 126.66,-55 135.16,-42.36 148.47,-31.87 160.29,-24.26"/>
<polygon fill="#63b8ff" stroke="#63b8ff" points="162.21,-27.19 168.95,-19.01 158.58,-21.2 162.21,-27.19"/>
</a>
</g>
</g>
</g>
</svg>
