<?xml version="1.0" encoding="UTF-8" standalone="no"?>
<!DOCTYPE svg PUBLIC "-//W3C//DTD SVG 1.1//EN"
 "http://www.w3.org/Graphics/SVG/1.1/DTD/svg11.dtd">
<!-- Generated by graphviz version 2.43.0 (0)
 -->
<!-- Title: eom&#45;error&#45;message&#45;area.c Pages: 1 -->
<svg width="1037pt" height="247pt"
 viewBox="0.00 0.00 1037.08 247.00" xmlns="http://www.w3.org/2000/svg" xmlns:xlink="http://www.w3.org/1999/xlink">
<g id="graph0" class="graph" transform="scale(1 1) rotate(0) translate(4 243)">
<title>eom&#45;error&#45;message&#45;area.c</title>
<!-- Node1 -->
<g id="Node000001" class="node">
<title>Node1</title>
<g id="a_Node000001"><a xlink:title=" ">
<polygon fill="#999999" stroke="#666666" points="279.58,-239 132.58,-239 132.58,-220 279.58,-220 279.58,-239"/>
<text text-anchor="middle" x="206.08" y="-227" font-family="Helvetica,sans-Serif" font-size="10.00">eom&#45;error&#45;message&#45;area.c</text>
</a>
</g>
</g>
<!-- Node2 -->
<g id="Node000002" class="node">
<title>Node2</title>
<g id="a_Node000002"><a xlink:href="eom-error-message-area_8h.html" target="_top" xlink:title=" ">
<polygon fill="white" stroke="#666666" points="178.08,-129 30.08,-129 30.08,-110 178.08,-110 178.08,-129"/>
<text text-anchor="middle" x="104.08" y="-117" font-family="Helvetica,sans-Serif" font-size="10.00">eom&#45;error&#45;message&#45;area.h</text>
</a>
</g>
</g>
<!-- Node1&#45;&gt;Node2 -->
<g id="edge1_Node000001_Node000002" class="edge">
<title>Node1&#45;&gt;Node2</title>
<g id="a_edge1_Node000001_Node000002"><a xlink:title=" ">
<path fill="none" stroke="#63b8ff" d="M197.73,-219.66C180.54,-201.46 140.96,-159.55 119.16,-136.47"/>
<polygon fill="#63b8ff" stroke="#63b8ff" points="121.67,-134.03 112.26,-129.16 116.58,-138.83 121.67,-134.03"/>
</a>
</g>
</g>
<!-- Node3 -->
<g id="Node000003" class="node">
<title>Node3</title>
<g id="a_Node000003"><a xlink:title=" ">
<polygon fill="#e0e0e0" stroke="#999999" points="150.08,-74 106.08,-74 106.08,-55 150.08,-55 150.08,-74"/>
<text text-anchor="middle" x="128.08" y="-62" font-family="Helvetica,sans-Serif" font-size="10.00">glib.h</text>
</a>
</g>
</g>
<!-- Node1&#45;&gt;Node3 -->
<g id="edge36_Node000001_Node000003" class="edge">
<title>Node1&#45;&gt;Node3</title>
<g id="a_edge36_Node000001_Node000003"><a xlink:title=" ">
<path fill="none" stroke="#63b8ff" d="M206.8,-219.72C208.07,-198.99 208.78,-146.06 187.08,-110 179.33,-97.12 166.32,-86.71 154.49,-79.21"/>
<polygon fill="#63b8ff" stroke="#63b8ff" points="156.16,-76.13 145.77,-74.04 152.59,-82.15 156.16,-76.13"/>
</a>
</g>
</g>
<!-- Node4 -->
<g id="Node000004" class="node">
<title>Node4</title>
<g id="a_Node000004"><a xlink:title=" ">
<polygon fill="#e0e0e0" stroke="#999999" points="139.08,-19 79.08,-19 79.08,0 139.08,0 139.08,-19"/>
<text text-anchor="middle" x="109.08" y="-7" font-family="Helvetica,sans-Serif" font-size="10.00">gtk/gtk.h</text>
</a>
</g>
</g>
<!-- Node1&#45;&gt;Node4 -->
<g id="edge39_Node000001_Node000004" class="edge">
<title>Node1&#45;&gt;Node4</title>
<g id="a_edge39_Node000001_Node000004"><a xlink:title=" ">
<path fill="none" stroke="#63b8ff" d="M139.85,-219.96C94.56,-212.75 39.97,-200.87 24.08,-184 -15.37,-142.11 -1.86,-99.12 35.08,-55 46.45,-41.42 63.08,-30.9 77.7,-23.5"/>
<polygon fill="#63b8ff" stroke="#63b8ff" points="79.42,-26.56 86.94,-19.1 76.41,-20.24 79.42,-26.56"/>
</a>
</g>
</g>
<!-- Node6 -->
<g id="Node000006" class="node">
<title>Node6</title>
<g id="a_Node000006"><a xlink:href="eom-image_8h.html" target="_top" xlink:title=" ">
<polygon fill="white" stroke="#666666" points="487.08,-184 405.08,-184 405.08,-165 487.08,-165 487.08,-184"/>
<text text-anchor="middle" x="446.08" y="-172" font-family="Helvetica,sans-Serif" font-size="10.00">eom&#45;image.h</text>
</a>
</g>
</g>
<!-- Node1&#45;&gt;Node6 -->
<g id="edge5_Node000001_Node000006" class="edge">
<title>Node1&#45;&gt;Node6</title>
<g id="a_edge5_Node000001_Node000006"><a xlink:title=" ">
<path fill="none" stroke="#63b8ff" d="M244.64,-219.98C286.16,-210.82 352.29,-196.21 397.37,-186.26"/>
<polygon fill="#63b8ff" stroke="#63b8ff" points="398.21,-189.66 407.22,-184.08 396.7,-182.82 398.21,-189.66"/>
</a>
</g>
</g>
<!-- Node9 -->
<g id="Node000009" class="node">
<title>Node9</title>
<g id="a_Node000009"><a xlink:title=" ">
<polygon fill="#e0e0e0" stroke="#999999" points="631.58,-19 554.58,-19 554.58,0 631.58,0 631.58,-19"/>
<text text-anchor="middle" x="593.08" y="-7" font-family="Helvetica,sans-Serif" font-size="10.00">glib&#45;object.h</text>
</a>
</g>
</g>
<!-- Node1&#45;&gt;Node9 -->
<g id="edge38_Node000001_Node000009" class="edge">
<title>Node1&#45;&gt;Node9</title>
<g id="a_edge38_Node000001_Node000009"><a xlink:title=" ">
<path fill="none" stroke="#63b8ff" d="M279.62,-221.95C430.7,-206.75 767.29,-163.39 832.08,-74 837.04,-67.16 837.48,-61.49 832.08,-55 808.38,-26.48 704.61,-16.15 641.86,-12.47"/>
<polygon fill="#63b8ff" stroke="#63b8ff" points="641.96,-8.97 631.78,-11.92 641.58,-15.96 641.96,-8.97"/>
</a>
</g>
</g>
<!-- Node15 -->
<g id="Node000015" class="node">
<title>Node15</title>
<g id="a_Node000015"><a xlink:href="eom-util_8h.html" target="_top" xlink:title=" ">
<polygon fill="white" stroke="#666666" points="99.58,-184 32.58,-184 32.58,-165 99.58,-165 99.58,-184"/>
<text text-anchor="middle" x="66.08" y="-172" font-family="Helvetica,sans-Serif" font-size="10.00">eom&#45;util.h</text>
</a>
</g>
</g>
<!-- Node1&#45;&gt;Node15 -->
<g id="edge34_Node000001_Node000015" class="edge">
<title>Node1&#45;&gt;Node15</title>
<g id="a_edge34_Node000001_Node000015"><a xlink:title=" ">
<path fill="none" stroke="#63b8ff" d="M183.59,-219.98C160.56,-211.27 124.54,-197.63 98.45,-187.75"/>
<polygon fill="#63b8ff" stroke="#63b8ff" points="99.58,-184.44 88.98,-184.17 97.1,-190.98 99.58,-184.44"/>
</a>
</g>
</g>
<!-- Node16 -->
<g id="Node000016" class="node">
<title>Node16</title>
<g id="a_Node000016"><a xlink:title=" ">
<polygon fill="#e0e0e0" stroke="#999999" points="1029.08,-184 955.08,-184 955.08,-165 1029.08,-165 1029.08,-184"/>
<text text-anchor="middle" x="992.08" y="-172" font-family="Helvetica,sans-Serif" font-size="10.00">glib/gi18n.h</text>
</a>
</g>
</g>
<!-- Node1&#45;&gt;Node16 -->
<g id="edge37_Node000001_Node000016" class="edge">
<title>Node1&#45;&gt;Node16</title>
<g id="a_edge37_Node000001_Node000016"><a xlink:title=" ">
<path fill="none" stroke="#63b8ff" d="M279.59,-226.6C412.15,-222.6 699.89,-211.32 941.08,-184 942.34,-183.86 943.61,-183.71 944.89,-183.55"/>
<polygon fill="#63b8ff" stroke="#63b8ff" points="945.39,-187.01 954.82,-182.17 944.44,-180.07 945.39,-187.01"/>
</a>
</g>
</g>
<!-- Node2&#45;&gt;Node3 -->
<g id="edge2_Node000002_Node000003" class="edge">
<title>Node2&#45;&gt;Node3</title>
<g id="a_edge2_Node000002_Node000003"><a xlink:title=" ">
<path fill="none" stroke="#63b8ff" d="M108.04,-109.75C111.29,-102.57 116,-92.18 120.04,-83.27"/>
<polygon fill="#63b8ff" stroke="#63b8ff" points="123.26,-84.64 124.19,-74.09 116.88,-81.75 123.26,-84.64"/>
</a>
</g>
</g>
<!-- Node2&#45;&gt;Node4 -->
<g id="edge3_Node000002_Node000004" class="edge">
<title>Node2&#45;&gt;Node4</title>
<g id="a_edge3_Node000002_Node000004"><a xlink:title=" ">
<path fill="none" stroke="#63b8ff" d="M92.22,-109.97C77.47,-98.24 55.25,-76.16 64.08,-55 68.94,-43.36 78.5,-33.2 87.56,-25.55"/>
<polygon fill="#63b8ff" stroke="#63b8ff" points="89.88,-28.17 95.59,-19.25 85.56,-22.67 89.88,-28.17"/>
</a>
</g>
</g>
<!-- Node5 -->
<g id="Node000005" class="node">
<title>Node5</title>
<g id="a_Node000005"><a xlink:title=" ">
<polygon fill="#e0e0e0" stroke="#999999" points="359.58,-19 300.58,-19 300.58,0 359.58,0 359.58,-19"/>
<text text-anchor="middle" x="330.08" y="-7" font-family="Helvetica,sans-Serif" font-size="10.00">gio/gio.h</text>
</a>
</g>
</g>
<!-- Node2&#45;&gt;Node5 -->
<g id="edge4_Node000002_Node000005" class="edge">
<title>Node2&#45;&gt;Node5</title>
<g id="a_edge4_Node000002_Node000005"><a xlink:title=" ">
<path fill="none" stroke="#63b8ff" d="M99.65,-109.99C93.38,-96.65 84.07,-70.73 97.08,-55 121.1,-25.96 229.86,-15.7 289.92,-12.21"/>
<polygon fill="#63b8ff" stroke="#63b8ff" points="290.39,-15.69 300.18,-11.65 290.01,-8.7 290.39,-15.69"/>
</a>
</g>
</g>
<!-- Node6&#45;&gt;Node3 -->
<g id="edge31_Node000006_Node000003" class="edge">
<title>Node6&#45;&gt;Node3</title>
<g id="a_edge31_Node000006_Node000003"><a xlink:title=" ">
<path fill="none" stroke="#63b8ff" d="M405.06,-165.99C367.51,-158.53 310.72,-145.8 263.08,-129 252.18,-125.15 190.82,-95.78 154.68,-78.37"/>
<polygon fill="#63b8ff" stroke="#63b8ff" points="156.18,-75.2 145.66,-74.01 153.14,-81.51 156.18,-75.2"/>
</a>
</g>
</g>
<!-- Node7 -->
<g id="Node000007" class="node">
<title>Node7</title>
<g id="a_Node000007"><a xlink:href="eom-jobs_8h.html" target="_top" xlink:title=" ">
<polygon fill="white" stroke="#666666" points="449.58,-129 378.58,-129 378.58,-110 449.58,-110 449.58,-129"/>
<text text-anchor="middle" x="414.08" y="-117" font-family="Helvetica,sans-Serif" font-size="10.00">eom&#45;jobs.h</text>
</a>
</g>
</g>
<!-- Node6&#45;&gt;Node7 -->
<g id="edge6_Node000006_Node000007" class="edge">
<title>Node6&#45;&gt;Node7</title>
<g id="a_edge6_Node000006_Node000007"><a xlink:title=" ">
<path fill="none" stroke="#63b8ff" d="M440.8,-164.75C436.37,-157.42 429.92,-146.73 424.46,-137.7"/>
<polygon fill="#63b8ff" stroke="#63b8ff" points="427.43,-135.84 419.27,-129.09 421.44,-139.46 427.43,-135.84"/>
</a>
</g>
</g>
<!-- Node6&#45;&gt;Node9 -->
<g id="edge32_Node000006_Node000009" class="edge">
<title>Node6&#45;&gt;Node9</title>
<g id="a_edge32_Node000006_Node000009"><a xlink:title=" ">
<path fill="none" stroke="#63b8ff" d="M453.98,-164.74C477.51,-138.65 547.38,-61.17 578.2,-27"/>
<polygon fill="#63b8ff" stroke="#63b8ff" points="581.04,-29.08 585.14,-19.31 575.84,-24.39 581.04,-29.08"/>
</a>
</g>
</g>
<!-- Node10 -->
<g id="Node000010" class="node">
<title>Node10</title>
<g id="a_Node000010"><a xlink:href="eom-transform_8h.html" target="_top" xlink:title=" ">
<polygon fill="white" stroke="#666666" points="822.58,-74 723.58,-74 723.58,-55 822.58,-55 822.58,-74"/>
<text text-anchor="middle" x="773.08" y="-62" font-family="Helvetica,sans-Serif" font-size="10.00">eom&#45;transform.h</text>
</a>
</g>
</g>
<!-- Node6&#45;&gt;Node10 -->
<g id="edge25_Node000006_Node000010" class="edge">
<title>Node6&#45;&gt;Node10</title>
<g id="a_edge25_Node000006_Node000010"><a xlink:title=" ">
<path fill="none" stroke="#63b8ff" d="M473.7,-164.99C502.17,-156.17 547.82,-141.9 587.08,-129 640.27,-111.53 701.68,-90.37 738.93,-77.43"/>
<polygon fill="#63b8ff" stroke="#63b8ff" points="740.47,-80.59 748.77,-74 738.17,-73.98 740.47,-80.59"/>
</a>
</g>
</g>
<!-- Node11 -->
<g id="Node000011" class="node">
<title>Node11</title>
<g id="a_Node000011"><a xlink:title=" ">
<polygon fill="#e0e0e0" stroke="#999999" points="878.58,-19 745.58,-19 745.58,0 878.58,0 878.58,-19"/>
<text text-anchor="middle" x="812.08" y="-7" font-family="Helvetica,sans-Serif" font-size="10.00">gdk&#45;pixbuf/gdk&#45;pixbuf.h</text>
</a>
</g>
</g>
<!-- Node6&#45;&gt;Node11 -->
<g id="edge33_Node000006_Node000011" class="edge">
<title>Node6&#45;&gt;Node11</title>
<g id="a_edge33_Node000006_Node000011"><a xlink:title=" ">
<path fill="none" stroke="#63b8ff" d="M487.27,-169.62C580.61,-159.89 803.59,-131.05 848.08,-74 859.92,-58.82 845.04,-39.3 830.98,-25.94"/>
<polygon fill="#63b8ff" stroke="#63b8ff" points="833.22,-23.25 823.43,-19.21 828.57,-28.48 833.22,-23.25"/>
</a>
</g>
</g>
<!-- Node12 -->
<g id="Node000012" class="node">
<title>Node12</title>
<g id="a_Node000012"><a xlink:href="eom-enums_8h.html" target="_top" xlink:title=" ">
<polygon fill="white" stroke="#666666" points="518.08,-74 434.08,-74 434.08,-55 518.08,-55 518.08,-74"/>
<text text-anchor="middle" x="476.08" y="-62" font-family="Helvetica,sans-Serif" font-size="10.00">eom&#45;enums.h</text>
</a>
</g>
</g>
<!-- Node6&#45;&gt;Node12 -->
<g id="edge30_Node000006_Node000012" class="edge">
<title>Node6&#45;&gt;Node12</title>
<g id="a_edge30_Node000006_Node000012"><a xlink:title=" ">
<path fill="none" stroke="#63b8ff" d="M448.63,-164.99C451.29,-156.04 455.57,-141.56 459.08,-129 463.32,-113.87 467.91,-96.65 471.26,-83.96"/>
<polygon fill="#63b8ff" stroke="#63b8ff" points="474.68,-84.71 473.83,-74.14 467.91,-82.93 474.68,-84.71"/>
</a>
</g>
</g>
<!-- Node13 -->
<g id="Node000013" class="node">
<title>Node13</title>
<g id="a_Node000013"><a xlink:href="eom-window_8h.html" target="_top" xlink:title=" ">
<polygon fill="white" stroke="#666666" points="360.08,-129 272.08,-129 272.08,-110 360.08,-110 360.08,-129"/>
<text text-anchor="middle" x="316.08" y="-117" font-family="Helvetica,sans-Serif" font-size="10.00">eom&#45;window.h</text>
</a>
</g>
</g>
<!-- Node6&#45;&gt;Node13 -->
<g id="edge19_Node000006_Node000013" class="edge">
<title>Node6&#45;&gt;Node13</title>
<g id="a_edge19_Node000006_Node000013"><a xlink:title=" ">
<path fill="none" stroke="#63b8ff" d="M420.08,-164.98C397.18,-156.42 364.28,-143.11 341.56,-133.28"/>
<polygon fill="#63b8ff" stroke="#63b8ff" points="342.76,-129.99 332.2,-129.17 339.95,-136.4 342.76,-129.99"/>
</a>
</g>
</g>
<!-- Node14 -->
<g id="Node000014" class="node">
<title>Node14</title>
<g id="a_Node000014"><a xlink:href="eom-image-save-info_8h.html" target="_top" xlink:title=" ">
<polygon fill="white" stroke="#666666" points="705.58,-74 574.58,-74 574.58,-55 705.58,-55 705.58,-74"/>
<text text-anchor="middle" x="640.08" y="-62" font-family="Helvetica,sans-Serif" font-size="10.00">eom&#45;image&#45;save&#45;info.h</text>
</a>
</g>
</g>
<!-- Node6&#45;&gt;Node14 -->
<g id="edge26_Node000006_Node000014" class="edge">
<title>Node6&#45;&gt;Node14</title>
<g id="a_edge26_Node000006_Node000014"><a xlink:title=" ">
<path fill="none" stroke="#63b8ff" d="M474.79,-164.94C498.52,-157.26 532.63,-144.77 560.08,-129 583.69,-115.43 607.76,-95.29 623.25,-81.35"/>
<polygon fill="#63b8ff" stroke="#63b8ff" points="625.9,-83.66 630.91,-74.32 621.17,-78.5 625.9,-83.66"/>
</a>
</g>
</g>
<!-- Node7&#45;&gt;Node3 -->
<g id="edge15_Node000007_Node000003" class="edge">
<title>Node7&#45;&gt;Node3</title>
<g id="a_edge15_Node000007_Node000003"><a xlink:title=" ">
<path fill="none" stroke="#63b8ff" d="M378.22,-111.71C375.13,-111.13 372.05,-110.55 369.08,-110 294.39,-96.05 206.62,-79.91 160.37,-71.42"/>
<polygon fill="#63b8ff" stroke="#63b8ff" points="160.82,-67.94 150.35,-69.58 159.55,-74.83 160.82,-67.94"/>
</a>
</g>
</g>
<!-- Node7&#45;&gt;Node4 -->
<g id="edge17_Node000007_Node000004" class="edge">
<title>Node7&#45;&gt;Node4</title>
<g id="a_edge17_Node000007_Node000004"><a xlink:title=" ">
<path fill="none" stroke="#63b8ff" d="M378.58,-110.69C334.48,-100.8 261.89,-83.87 236.08,-74 219.18,-67.54 216.21,-63.2 200.08,-55 178.78,-44.18 154.47,-32.31 136.33,-23.55"/>
<polygon fill="#63b8ff" stroke="#63b8ff" points="137.48,-20.22 126.95,-19.04 134.44,-26.53 137.48,-20.22"/>
</a>
</g>
</g>
<!-- Node7&#45;&gt;Node5 -->
<g id="edge16_Node000007_Node000005" class="edge">
<title>Node7&#45;&gt;Node5</title>
<g id="a_edge16_Node000007_Node000005"><a xlink:title=" ">
<path fill="none" stroke="#63b8ff" d="M407.21,-109.66C393.17,-91.61 361.02,-50.28 342.97,-27.08"/>
<polygon fill="#63b8ff" stroke="#63b8ff" points="345.72,-24.9 336.82,-19.16 340.19,-29.2 345.72,-24.9"/>
</a>
</g>
</g>
<!-- Node8 -->
<g id="Node000008" class="node">
<title>Node8</title>
<g id="a_Node000008"><a xlink:href="eom-list-store_8h.html" target="_top" xlink:title=" ">
<polygon fill="white" stroke="#666666" points="339.58,-74 244.58,-74 244.58,-55 339.58,-55 339.58,-74"/>
<text text-anchor="middle" x="292.08" y="-62" font-family="Helvetica,sans-Serif" font-size="10.00">eom&#45;list&#45;store.h</text>
</a>
</g>
</g>
<!-- Node7&#45;&gt;Node8 -->
<g id="edge7_Node000007_Node000008" class="edge">
<title>Node7&#45;&gt;Node8</title>
<g id="a_edge7_Node000007_Node000008"><a xlink:title=" ">
<path fill="none" stroke="#63b8ff" d="M394.48,-109.98C374.77,-101.42 344.13,-88.11 321.5,-78.28"/>
<polygon fill="#63b8ff" stroke="#63b8ff" points="322.61,-74.94 312.04,-74.17 319.82,-81.37 322.61,-74.94"/>
</a>
</g>
</g>
<!-- Node7&#45;&gt;Node10 -->
<g id="edge11_Node000007_Node000010" class="edge">
<title>Node7&#45;&gt;Node10</title>
<g id="a_edge11_Node000007_Node000010"><a xlink:title=" ">
<path fill="none" stroke="#63b8ff" d="M449.82,-113.22C511.39,-104.13 638.09,-85.43 713.29,-74.33"/>
<polygon fill="#63b8ff" stroke="#63b8ff" points="714.16,-77.74 723.54,-72.81 713.14,-70.81 714.16,-77.74"/>
</a>
</g>
</g>
<!-- Node7&#45;&gt;Node11 -->
<g id="edge18_Node000007_Node000011" class="edge">
<title>Node7&#45;&gt;Node11</title>
<g id="a_edge18_Node000007_Node000011"><a xlink:title=" ">
<path fill="none" stroke="#63b8ff" d="M449.63,-117.38C546,-113.99 806.68,-102.25 832.08,-74 843.62,-61.17 834.9,-41.71 825.62,-27.71"/>
<polygon fill="#63b8ff" stroke="#63b8ff" points="828.34,-25.5 819.65,-19.43 822.66,-29.59 828.34,-25.5"/>
</a>
</g>
</g>
<!-- Node7&#45;&gt;Node12 -->
<g id="edge14_Node000007_Node000012" class="edge">
<title>Node7&#45;&gt;Node12</title>
<g id="a_edge14_Node000007_Node000012"><a xlink:title=" ">
<path fill="none" stroke="#63b8ff" d="M424.04,-109.98C433.21,-102.15 447.02,-90.34 458.11,-80.86"/>
<polygon fill="#63b8ff" stroke="#63b8ff" points="460.61,-83.33 465.94,-74.17 456.06,-78.01 460.61,-83.33"/>
</a>
</g>
</g>
<!-- Node8&#45;&gt;Node4 -->
<g id="edge8_Node000008_Node000004" class="edge">
<title>Node8&#45;&gt;Node4</title>
<g id="a_edge8_Node000008_Node000004"><a xlink:title=" ">
<path fill="none" stroke="#63b8ff" d="M262.68,-54.98C231.69,-46.01 182.71,-31.82 148.41,-21.89"/>
<polygon fill="#63b8ff" stroke="#63b8ff" points="149.29,-18.5 138.71,-19.08 147.35,-25.23 149.29,-18.5"/>
</a>
</g>
</g>
<!-- Node8&#45;&gt;Node5 -->
<g id="edge10_Node000008_Node000005" class="edge">
<title>Node8&#45;&gt;Node5</title>
<g id="a_edge10_Node000008_Node000005"><a xlink:title=" ">
<path fill="none" stroke="#63b8ff" d="M298.36,-54.75C303.67,-47.34 311.44,-36.5 317.96,-27.41"/>
<polygon fill="#63b8ff" stroke="#63b8ff" points="320.94,-29.26 323.92,-19.09 315.25,-25.18 320.94,-29.26"/>
</a>
</g>
</g>
<!-- Node8&#45;&gt;Node9 -->
<g id="edge9_Node000008_Node000009" class="edge">
<title>Node8&#45;&gt;Node9</title>
<g id="a_edge9_Node000008_Node000009"><a xlink:title=" ">
<path fill="none" stroke="#63b8ff" d="M339.78,-55.1C395.64,-45.26 487.72,-29.05 544.12,-19.12"/>
<polygon fill="#63b8ff" stroke="#63b8ff" points="544.98,-22.52 554.22,-17.34 543.77,-15.63 544.98,-22.52"/>
</a>
</g>
</g>
<!-- Node10&#45;&gt;Node9 -->
<g id="edge12_Node000010_Node000009" class="edge">
<title>Node10&#45;&gt;Node9</title>
<g id="a_edge12_Node000010_Node000009"><a xlink:title=" ">
<path fill="none" stroke="#63b8ff" d="M744.16,-54.98C713.81,-46.05 665.91,-31.94 632.2,-22.02"/>
<polygon fill="#63b8ff" stroke="#63b8ff" points="632.81,-18.55 622.23,-19.08 630.83,-25.26 632.81,-18.55"/>
</a>
</g>
</g>
<!-- Node10&#45;&gt;Node11 -->
<g id="edge13_Node000010_Node000011" class="edge">
<title>Node10&#45;&gt;Node11</title>
<g id="a_edge13_Node000010_Node000011"><a xlink:title=" ">
<path fill="none" stroke="#63b8ff" d="M779.52,-54.75C784.97,-47.34 792.95,-36.5 799.64,-27.41"/>
<polygon fill="#63b8ff" stroke="#63b8ff" points="802.65,-29.22 805.76,-19.09 797.02,-25.07 802.65,-29.22"/>
</a>
</g>
</g>
<!-- Node13&#45;&gt;Node3 -->
<g id="edge22_Node000013_Node000003" class="edge">
<title>Node13&#45;&gt;Node3</title>
<g id="a_edge22_Node000013_Node000003"><a xlink:title=" ">
<path fill="none" stroke="#63b8ff" d="M285.88,-109.98C251.39,-100.26 195.23,-84.43 160.03,-74.51"/>
<polygon fill="#63b8ff" stroke="#63b8ff" points="160.84,-71.1 150.27,-71.75 158.94,-77.84 160.84,-71.1"/>
</a>
</g>
</g>
<!-- Node13&#45;&gt;Node4 -->
<g id="edge24_Node000013_Node000004" class="edge">
<title>Node13&#45;&gt;Node4</title>
<g id="a_edge24_Node000013_Node000004"><a xlink:title=" ">
<path fill="none" stroke="#63b8ff" d="M289.07,-109.9C265.48,-101.94 230.64,-89.07 202.08,-74 175.04,-59.73 146.33,-39.19 128.08,-25.37"/>
<polygon fill="#63b8ff" stroke="#63b8ff" points="130.08,-22.5 120.01,-19.19 125.82,-28.05 130.08,-22.5"/>
</a>
</g>
</g>
<!-- Node13&#45;&gt;Node6 -->
<g id="edge21_Node000013_Node000006" class="edge">
<title>Node13&#45;&gt;Node6</title>
<g id="a_edge21_Node000013_Node000006"><a xlink:title=" ">
<path fill="none" stroke="#63b8ff" d="M342.5,-129.17C365.51,-137.79 398.41,-151.11 421.02,-160.9"/>
<polygon fill="#63b8ff" stroke="#63b8ff" points="419.75,-164.16 430.31,-164.98 422.56,-157.76 419.75,-164.16"/>
</a>
</g>
</g>
<!-- Node13&#45;&gt;Node8 -->
<g id="edge20_Node000013_Node000008" class="edge">
<title>Node13&#45;&gt;Node8</title>
<g id="a_edge20_Node000013_Node000008"><a xlink:title=" ">
<path fill="none" stroke="#63b8ff" d="M312.12,-109.75C308.87,-102.57 304.16,-92.18 300.13,-83.27"/>
<polygon fill="#63b8ff" stroke="#63b8ff" points="303.28,-81.75 295.97,-74.09 296.91,-84.64 303.28,-81.75"/>
</a>
</g>
</g>
<!-- Node13&#45;&gt;Node9 -->
<g id="edge23_Node000013_Node000009" class="edge">
<title>Node13&#45;&gt;Node9</title>
<g id="a_edge23_Node000013_Node000009"><a xlink:title=" ">
<path fill="none" stroke="#63b8ff" d="M328.26,-109.92C347.83,-96.49 387.86,-70.44 425.08,-55 463.85,-38.92 510.09,-27.17 544.24,-19.8"/>
<polygon fill="#63b8ff" stroke="#63b8ff" points="545.36,-23.14 554.43,-17.65 543.92,-16.29 545.36,-23.14"/>
</a>
</g>
</g>
<!-- Node14&#45;&gt;Node5 -->
<g id="edge28_Node000014_Node000005" class="edge">
<title>Node14&#45;&gt;Node5</title>
<g id="a_edge28_Node000014_Node000005"><a xlink:title=" ">
<path fill="none" stroke="#63b8ff" d="M590.27,-54.98C528.89,-44.49 425.82,-26.87 369.59,-17.25"/>
<polygon fill="#63b8ff" stroke="#63b8ff" points="370.11,-13.79 359.66,-15.56 368.93,-20.69 370.11,-13.79"/>
</a>
</g>
</g>
<!-- Node14&#45;&gt;Node9 -->
<g id="edge27_Node000014_Node000009" class="edge">
<title>Node14&#45;&gt;Node9</title>
<g id="a_edge27_Node000014_Node000009"><a xlink:title=" ">
<path fill="none" stroke="#63b8ff" d="M632.32,-54.75C625.61,-47.18 615.74,-36.05 607.58,-26.84"/>
<polygon fill="#63b8ff" stroke="#63b8ff" points="609.95,-24.25 600.7,-19.09 604.71,-28.89 609.95,-24.25"/>
</a>
</g>
</g>
<!-- Node14&#45;&gt;Node11 -->
<g id="edge29_Node000014_Node000011" class="edge">
<title>Node14&#45;&gt;Node11</title>
<g id="a_edge29_Node000014_Node000011"><a xlink:title=" ">
<path fill="none" stroke="#63b8ff" d="M667.72,-54.98C696.59,-46.09 742.09,-32.07 774.28,-22.15"/>
<polygon fill="#63b8ff" stroke="#63b8ff" points="775.7,-25.37 784.23,-19.08 773.64,-18.68 775.7,-25.37"/>
</a>
</g>
</g>
<!-- Node15&#45;&gt;Node4 -->
<g id="edge35_Node000015_Node000004" class="edge">
<title>Node15&#45;&gt;Node4</title>
<g id="a_edge35_Node000015_Node000004"><a xlink:title=" ">
<path fill="none" stroke="#63b8ff" d="M52.59,-164.75C41.79,-156.87 27.43,-144.21 21.08,-129 17.83,-121.21 18.67,-118.09 21.08,-110 32.02,-73.32 65.76,-42.38 88.14,-25.15"/>
<polygon fill="#63b8ff" stroke="#63b8ff" points="90.44,-27.81 96.38,-19.04 86.26,-22.19 90.44,-27.81"/>
</a>
</g>
</g>
</g>
</svg>
