<?xml version="1.0" encoding="UTF-8" standalone="no"?>
<!DOCTYPE svg PUBLIC "-//W3C//DTD SVG 1.1//EN"
 "http://www.w3.org/Graphics/SVG/1.1/DTD/svg11.dtd">
<!-- Generated by graphviz version 2.43.0 (0)
 -->
<!-- Title: eom&#45;job&#45;queue.c Pages: 1 -->
<svg width="558pt" height="247pt"
 viewBox="0.00 0.00 557.50 247.00" xmlns="http://www.w3.org/2000/svg" xmlns:xlink="http://www.w3.org/1999/xlink">
<g id="graph0" class="graph" transform="scale(1 1) rotate(0) translate(4 243)">
<title>eom&#45;job&#45;queue.c</title>
<!-- Node1 -->
<g id="Node000001" class="node">
<title>Node1</title>
<g id="a_Node000001"><a xlink:title=" ">
<polygon fill="#999999" stroke="#666666" points="189.5,-239 90.5,-239 90.5,-220 189.5,-220 189.5,-239"/>
<text text-anchor="middle" x="140" y="-227" font-family="Helvetica,sans-Serif" font-size="10.00">eom&#45;job&#45;queue.c</text>
</a>
</g>
</g>
<!-- Node2 -->
<g id="Node000002" class="node">
<title>Node2</title>
<g id="a_Node000002"><a xlink:href="eom-jobs_8h.html" target="_top" xlink:title=" ">
<polygon fill="white" stroke="#666666" points="214.5,-129 143.5,-129 143.5,-110 214.5,-110 214.5,-129"/>
<text text-anchor="middle" x="179" y="-117" font-family="Helvetica,sans-Serif" font-size="10.00">eom&#45;jobs.h</text>
</a>
</g>
</g>
<!-- Node1&#45;&gt;Node2 -->
<g id="edge1_Node000001_Node000002" class="edge">
<title>Node1&#45;&gt;Node2</title>
<g id="a_edge1_Node000001_Node000002"><a xlink:title=" ">
<path fill="none" stroke="#63b8ff" d="M144.33,-219.78C148.64,-210.91 155.27,-196.7 160,-184 165.53,-169.15 170.61,-151.91 174.12,-139.14"/>
<polygon fill="#63b8ff" stroke="#63b8ff" points="177.56,-139.81 176.77,-129.25 170.8,-138 177.56,-139.81"/>
</a>
</g>
</g>
<!-- Node11 -->
<g id="Node000011" class="node">
<title>Node11</title>
<g id="a_Node000011"><a xlink:href="eom-job-queue_8h.html" target="_top" xlink:title=" ">
<polygon fill="white" stroke="#666666" points="151,-184 51,-184 51,-165 151,-165 151,-184"/>
<text text-anchor="middle" x="101" y="-172" font-family="Helvetica,sans-Serif" font-size="10.00">eom&#45;job&#45;queue.h</text>
</a>
</g>
</g>
<!-- Node1&#45;&gt;Node11 -->
<g id="edge14_Node000001_Node000011" class="edge">
<title>Node1&#45;&gt;Node11</title>
<g id="a_edge14_Node000001_Node000011"><a xlink:title=" ">
<path fill="none" stroke="#63b8ff" d="M133.56,-219.75C128.11,-212.34 120.14,-201.5 113.44,-192.41"/>
<polygon fill="#63b8ff" stroke="#63b8ff" points="116.07,-190.07 107.32,-184.09 110.43,-194.22 116.07,-190.07"/>
</a>
</g>
</g>
<!-- Node3 -->
<g id="Node000003" class="node">
<title>Node3</title>
<g id="a_Node000003"><a xlink:href="eom-list-store_8h.html" target="_top" xlink:title=" ">
<polygon fill="white" stroke="#666666" points="355.5,-74 260.5,-74 260.5,-55 355.5,-55 355.5,-74"/>
<text text-anchor="middle" x="308" y="-62" font-family="Helvetica,sans-Serif" font-size="10.00">eom&#45;list&#45;store.h</text>
</a>
</g>
</g>
<!-- Node2&#45;&gt;Node3 -->
<g id="edge2_Node000002_Node000003" class="edge">
<title>Node2&#45;&gt;Node3</title>
<g id="a_edge2_Node000002_Node000003"><a xlink:title=" ">
<path fill="none" stroke="#63b8ff" d="M199.73,-109.98C220.76,-101.34 253.55,-87.87 277.54,-78.02"/>
<polygon fill="#63b8ff" stroke="#63b8ff" points="278.98,-81.21 286.9,-74.17 276.32,-74.73 278.98,-81.21"/>
</a>
</g>
</g>
<!-- Node4 -->
<g id="Node000004" class="node">
<title>Node4</title>
<g id="a_Node000004"><a xlink:title=" ">
<polygon fill="#e0e0e0" stroke="#999999" points="60,-19 0,-19 0,0 60,0 60,-19"/>
<text text-anchor="middle" x="30" y="-7" font-family="Helvetica,sans-Serif" font-size="10.00">gtk/gtk.h</text>
</a>
</g>
</g>
<!-- Node2&#45;&gt;Node4 -->
<g id="edge12_Node000002_Node000004" class="edge">
<title>Node2&#45;&gt;Node4</title>
<g id="a_edge12_Node000002_Node000004"><a xlink:title=" ">
<path fill="none" stroke="#63b8ff" d="M151.01,-109.99C130.04,-102.7 101.38,-90.7 80,-74 63.65,-61.23 49.5,-42.02 40.47,-28.08"/>
<polygon fill="#63b8ff" stroke="#63b8ff" points="43.33,-26.05 35.07,-19.41 37.39,-29.75 43.33,-26.05"/>
</a>
</g>
</g>
<!-- Node6 -->
<g id="Node000006" class="node">
<title>Node6</title>
<g id="a_Node000006"><a xlink:title=" ">
<polygon fill="#e0e0e0" stroke="#999999" points="211.5,-19 152.5,-19 152.5,0 211.5,0 211.5,-19"/>
<text text-anchor="middle" x="182" y="-7" font-family="Helvetica,sans-Serif" font-size="10.00">gio/gio.h</text>
</a>
</g>
</g>
<!-- Node2&#45;&gt;Node6 -->
<g id="edge11_Node000002_Node000006" class="edge">
<title>Node2&#45;&gt;Node6</title>
<g id="a_edge11_Node000002_Node000006"><a xlink:title=" ">
<path fill="none" stroke="#63b8ff" d="M144.38,-109.93C111.71,-100.03 70.08,-81.61 87,-55 99.26,-35.72 122.32,-24.65 142.65,-18.37"/>
<polygon fill="#63b8ff" stroke="#63b8ff" points="143.67,-21.72 152.36,-15.66 141.78,-14.98 143.67,-21.72"/>
</a>
</g>
</g>
<!-- Node7 -->
<g id="Node000007" class="node">
<title>Node7</title>
<g id="a_Node000007"><a xlink:href="eom-transform_8h.html" target="_top" xlink:title=" ">
<polygon fill="white" stroke="#666666" points="472.5,-74 373.5,-74 373.5,-55 472.5,-55 472.5,-74"/>
<text text-anchor="middle" x="423" y="-62" font-family="Helvetica,sans-Serif" font-size="10.00">eom&#45;transform.h</text>
</a>
</g>
</g>
<!-- Node2&#45;&gt;Node7 -->
<g id="edge6_Node000002_Node000007" class="edge">
<title>Node2&#45;&gt;Node7</title>
<g id="a_edge6_Node000002_Node000007"><a xlink:title=" ">
<path fill="none" stroke="#63b8ff" d="M214.74,-110.74C256.67,-101.63 326.43,-86.48 373.54,-76.24"/>
<polygon fill="#63b8ff" stroke="#63b8ff" points="374.49,-79.62 383.52,-74.08 373,-72.78 374.49,-79.62"/>
</a>
</g>
</g>
<!-- Node8 -->
<g id="Node000008" class="node">
<title>Node8</title>
<g id="a_Node000008"><a xlink:title=" ">
<polygon fill="#e0e0e0" stroke="#999999" points="549.5,-19 416.5,-19 416.5,0 549.5,0 549.5,-19"/>
<text text-anchor="middle" x="483" y="-7" font-family="Helvetica,sans-Serif" font-size="10.00">gdk&#45;pixbuf/gdk&#45;pixbuf.h</text>
</a>
</g>
</g>
<!-- Node2&#45;&gt;Node8 -->
<g id="edge13_Node000002_Node000008" class="edge">
<title>Node2&#45;&gt;Node8</title>
<g id="a_edge13_Node000002_Node000008"><a xlink:title=" ">
<path fill="none" stroke="#63b8ff" d="M214.63,-118.77C287.05,-118.48 447.5,-113.31 482,-74 492.56,-61.97 491.46,-43.16 488.54,-29.13"/>
<polygon fill="#63b8ff" stroke="#63b8ff" points="491.85,-27.95 485.98,-19.13 485.06,-29.68 491.85,-27.95"/>
</a>
</g>
</g>
<!-- Node9 -->
<g id="Node000009" class="node">
<title>Node9</title>
<g id="a_Node000009"><a xlink:href="eom-enums_8h.html" target="_top" xlink:title=" ">
<polygon fill="white" stroke="#666666" points="180,-74 96,-74 96,-55 180,-55 180,-74"/>
<text text-anchor="middle" x="138" y="-62" font-family="Helvetica,sans-Serif" font-size="10.00">eom&#45;enums.h</text>
</a>
</g>
</g>
<!-- Node2&#45;&gt;Node9 -->
<g id="edge9_Node000002_Node000009" class="edge">
<title>Node2&#45;&gt;Node9</title>
<g id="a_edge9_Node000002_Node000009"><a xlink:title=" ">
<path fill="none" stroke="#63b8ff" d="M172.23,-109.75C166.44,-102.26 157.94,-91.28 150.86,-82.13"/>
<polygon fill="#63b8ff" stroke="#63b8ff" points="153.53,-79.86 144.64,-74.09 147.99,-84.14 153.53,-79.86"/>
</a>
</g>
</g>
<!-- Node10 -->
<g id="Node000010" class="node">
<title>Node10</title>
<g id="a_Node000010"><a xlink:title=" ">
<polygon fill="#e0e0e0" stroke="#999999" points="242,-74 198,-74 198,-55 242,-55 242,-74"/>
<text text-anchor="middle" x="220" y="-62" font-family="Helvetica,sans-Serif" font-size="10.00">glib.h</text>
</a>
</g>
</g>
<!-- Node2&#45;&gt;Node10 -->
<g id="edge10_Node000002_Node000010" class="edge">
<title>Node2&#45;&gt;Node10</title>
<g id="a_edge10_Node000002_Node000010"><a xlink:title=" ">
<path fill="none" stroke="#63b8ff" d="M185.77,-109.75C191.56,-102.26 200.06,-91.28 207.14,-82.13"/>
<polygon fill="#63b8ff" stroke="#63b8ff" points="210.01,-84.14 213.36,-74.09 204.47,-79.86 210.01,-84.14"/>
</a>
</g>
</g>
<!-- Node3&#45;&gt;Node4 -->
<g id="edge3_Node000003_Node000004" class="edge">
<title>Node3&#45;&gt;Node4</title>
<g id="a_edge3_Node000003_Node000004"><a xlink:title=" ">
<path fill="none" stroke="#63b8ff" d="M263.33,-54.98C210.06,-44.83 121.79,-28 70.45,-18.21"/>
<polygon fill="#63b8ff" stroke="#63b8ff" points="70.86,-14.73 60.39,-16.29 69.55,-21.6 70.86,-14.73"/>
</a>
</g>
</g>
<!-- Node5 -->
<g id="Node000005" class="node">
<title>Node5</title>
<g id="a_Node000005"><a xlink:title=" ">
<polygon fill="#e0e0e0" stroke="#999999" points="363.5,-19 286.5,-19 286.5,0 363.5,0 363.5,-19"/>
<text text-anchor="middle" x="325" y="-7" font-family="Helvetica,sans-Serif" font-size="10.00">glib&#45;object.h</text>
</a>
</g>
</g>
<!-- Node3&#45;&gt;Node5 -->
<g id="edge4_Node000003_Node000005" class="edge">
<title>Node3&#45;&gt;Node5</title>
<g id="a_edge4_Node000003_Node000005"><a xlink:title=" ">
<path fill="none" stroke="#63b8ff" d="M310.81,-54.75C313.06,-47.72 316.3,-37.62 319.12,-28.84"/>
<polygon fill="#63b8ff" stroke="#63b8ff" points="322.52,-29.68 322.25,-19.09 315.86,-27.54 322.52,-29.68"/>
</a>
</g>
</g>
<!-- Node3&#45;&gt;Node6 -->
<g id="edge5_Node000003_Node000006" class="edge">
<title>Node3&#45;&gt;Node6</title>
<g id="a_edge5_Node000003_Node000006"><a xlink:title=" ">
<path fill="none" stroke="#63b8ff" d="M287.76,-54.98C267.3,-46.38 235.47,-32.99 212.07,-23.15"/>
<polygon fill="#63b8ff" stroke="#63b8ff" points="213.19,-19.82 202.61,-19.17 210.47,-26.27 213.19,-19.82"/>
</a>
</g>
</g>
<!-- Node7&#45;&gt;Node5 -->
<g id="edge7_Node000007_Node000005" class="edge">
<title>Node7&#45;&gt;Node5</title>
<g id="a_edge7_Node000007_Node000005"><a xlink:title=" ">
<path fill="none" stroke="#63b8ff" d="M407.25,-54.98C391.77,-46.61 367.91,-33.7 349.86,-23.95"/>
<polygon fill="#63b8ff" stroke="#63b8ff" points="351.49,-20.85 341.03,-19.17 348.16,-27.01 351.49,-20.85"/>
</a>
</g>
</g>
<!-- Node7&#45;&gt;Node8 -->
<g id="edge8_Node000007_Node000008" class="edge">
<title>Node7&#45;&gt;Node8</title>
<g id="a_edge8_Node000007_Node000008"><a xlink:title=" ">
<path fill="none" stroke="#63b8ff" d="M432.64,-54.98C441.51,-47.15 454.87,-35.34 465.61,-25.86"/>
<polygon fill="#63b8ff" stroke="#63b8ff" points="468.01,-28.41 473.18,-19.17 463.37,-23.17 468.01,-28.41"/>
</a>
</g>
</g>
<!-- Node11&#45;&gt;Node2 -->
<g id="edge15_Node000011_Node000002" class="edge">
<title>Node11&#45;&gt;Node2</title>
<g id="a_edge15_Node000011_Node000002"><a xlink:title=" ">
<path fill="none" stroke="#63b8ff" d="M113.53,-164.98C125.4,-156.92 143.46,-144.65 157.61,-135.03"/>
<polygon fill="#63b8ff" stroke="#63b8ff" points="159.94,-137.69 166.24,-129.17 156,-131.9 159.94,-137.69"/>
</a>
</g>
</g>
<!-- Node11&#45;&gt;Node4 -->
<g id="edge16_Node000011_Node000004" class="edge">
<title>Node11&#45;&gt;Node4</title>
<g id="a_edge16_Node000011_Node000004"><a xlink:title=" ">
<path fill="none" stroke="#63b8ff" d="M97.19,-165C89.51,-147.83 71.65,-107.79 57,-74 50.37,-58.72 42.98,-41.3 37.61,-28.58"/>
<polygon fill="#63b8ff" stroke="#63b8ff" points="40.74,-27 33.63,-19.14 34.29,-29.72 40.74,-27"/>
</a>
</g>
</g>
</g>
</svg>
