<?xml version="1.0" encoding="UTF-8" standalone="no"?>
<!DOCTYPE svg PUBLIC "-//W3C//DTD SVG 1.1//EN"
 "http://www.w3.org/Graphics/SVG/1.1/DTD/svg11.dtd">
<!-- Generated by graphviz version 2.43.0 (0)
 -->
<!-- Title: eom&#45;thumb&#45;view.h Pages: 1 -->
<svg width="752pt" height="247pt"
 viewBox="0.00 0.00 752.19 247.00" xmlns="http://www.w3.org/2000/svg" xmlns:xlink="http://www.w3.org/1999/xlink">
<g id="graph0" class="graph" transform="scale(1 1) rotate(0) translate(4 243)">
<title>eom&#45;thumb&#45;view.h</title>
<!-- Node1 -->
<g id="Node000001" class="node">
<title>Node1</title>
<g id="a_Node000001"><a xlink:title=" ">
<polygon fill="#999999" stroke="#666666" points="592.82,-239 484.82,-239 484.82,-220 592.82,-220 592.82,-239"/>
<text text-anchor="middle" x="538.82" y="-227" font-family="Helvetica,sans-Serif" font-size="10.00">eom&#45;thumb&#45;view.h</text>
</a>
</g>
</g>
<!-- Node2 -->
<g id="Node000002" class="node">
<title>Node2</title>
<g id="a_Node000002"><a xlink:href="eom-image_8h.html" target="_top" xlink:title=" ">
<polygon fill="white" stroke="#666666" points="475.82,-184 393.82,-184 393.82,-165 475.82,-165 475.82,-184"/>
<text text-anchor="middle" x="434.82" y="-172" font-family="Helvetica,sans-Serif" font-size="10.00">eom&#45;image.h</text>
</a>
</g>
</g>
<!-- Node1&#45;&gt;Node2 -->
<g id="edge1_Node000001_Node000002" class="edge">
<title>Node1&#45;&gt;Node2</title>
<g id="a_edge1_Node000001_Node000002"><a xlink:title=" ">
<path fill="none" stroke="#63b8ff" d="M522.11,-219.98C505.61,-211.57 480.12,-198.59 460.94,-188.81"/>
<polygon fill="#63b8ff" stroke="#63b8ff" points="462.33,-185.59 451.83,-184.17 459.15,-191.83 462.33,-185.59"/>
</a>
</g>
</g>
<!-- Node4 -->
<g id="Node000004" class="node">
<title>Node4</title>
<g id="a_Node000004"><a xlink:href="eom-list-store_8h.html" target="_top" xlink:title=" ">
<polygon fill="white" stroke="#666666" points="730.32,-74 635.32,-74 635.32,-55 730.32,-55 730.32,-74"/>
<text text-anchor="middle" x="682.82" y="-62" font-family="Helvetica,sans-Serif" font-size="10.00">eom&#45;list&#45;store.h</text>
</a>
</g>
</g>
<!-- Node1&#45;&gt;Node4 -->
<g id="edge30_Node000001_Node000004" class="edge">
<title>Node1&#45;&gt;Node4</title>
<g id="a_edge30_Node000001_Node000004"><a xlink:title=" ">
<path fill="none" stroke="#63b8ff" d="M553.47,-219.93C578.4,-204.66 629.26,-170.41 658.82,-129 668.45,-115.51 674.74,-97.68 678.46,-84.35"/>
<polygon fill="#63b8ff" stroke="#63b8ff" points="681.91,-84.96 680.99,-74.4 675.13,-83.23 681.91,-84.96"/>
</a>
</g>
</g>
<!-- Node3 -->
<g id="Node000003" class="node">
<title>Node3</title>
<g id="a_Node000003"><a xlink:href="eom-jobs_8h.html" target="_top" xlink:title=" ">
<polygon fill="white" stroke="#666666" points="502.32,-129 431.32,-129 431.32,-110 502.32,-110 502.32,-129"/>
<text text-anchor="middle" x="466.82" y="-117" font-family="Helvetica,sans-Serif" font-size="10.00">eom&#45;jobs.h</text>
</a>
</g>
</g>
<!-- Node2&#45;&gt;Node3 -->
<g id="edge2_Node000002_Node000003" class="edge">
<title>Node2&#45;&gt;Node3</title>
<g id="a_edge2_Node000002_Node000003"><a xlink:title=" ">
<path fill="none" stroke="#63b8ff" d="M440.1,-164.75C444.53,-157.42 450.98,-146.73 456.44,-137.7"/>
<polygon fill="#63b8ff" stroke="#63b8ff" points="459.46,-139.46 461.63,-129.09 453.47,-135.84 459.46,-139.46"/>
</a>
</g>
</g>
<!-- Node6 -->
<g id="Node000006" class="node">
<title>Node6</title>
<g id="a_Node000006"><a xlink:title=" ">
<polygon fill="#e0e0e0" stroke="#999999" points="311.32,-19 234.32,-19 234.32,0 311.32,0 311.32,-19"/>
<text text-anchor="middle" x="272.82" y="-7" font-family="Helvetica,sans-Serif" font-size="10.00">glib&#45;object.h</text>
</a>
</g>
</g>
<!-- Node2&#45;&gt;Node6 -->
<g id="edge28_Node000002_Node000006" class="edge">
<title>Node2&#45;&gt;Node6</title>
<g id="a_edge28_Node000002_Node000006"><a xlink:title=" ">
<path fill="none" stroke="#63b8ff" d="M393.53,-169.71C338.1,-162.16 241.55,-139.78 197.82,-74 183.52,-52.49 212.37,-34.21 238.33,-22.87"/>
<polygon fill="#63b8ff" stroke="#63b8ff" points="239.77,-26.06 247.68,-19.01 237.1,-19.59 239.77,-26.06"/>
</a>
</g>
</g>
<!-- Node8 -->
<g id="Node000008" class="node">
<title>Node8</title>
<g id="a_Node000008"><a xlink:href="eom-transform_8h.html" target="_top" xlink:title=" ">
<polygon fill="white" stroke="#666666" points="112.32,-74 13.32,-74 13.32,-55 112.32,-55 112.32,-74"/>
<text text-anchor="middle" x="62.82" y="-62" font-family="Helvetica,sans-Serif" font-size="10.00">eom&#45;transform.h</text>
</a>
</g>
</g>
<!-- Node2&#45;&gt;Node8 -->
<g id="edge21_Node000002_Node000008" class="edge">
<title>Node2&#45;&gt;Node8</title>
<g id="a_edge21_Node000002_Node000008"><a xlink:title=" ">
<path fill="none" stroke="#63b8ff" d="M393.69,-170.76C320.94,-165.39 172.88,-151.96 126.82,-129 105.24,-118.24 86.46,-97.44 74.92,-82.58"/>
<polygon fill="#63b8ff" stroke="#63b8ff" points="77.49,-80.17 68.71,-74.23 71.88,-84.35 77.49,-80.17"/>
</a>
</g>
</g>
<!-- Node9 -->
<g id="Node000009" class="node">
<title>Node9</title>
<g id="a_Node000009"><a xlink:title=" ">
<polygon fill="#e0e0e0" stroke="#999999" points="173.32,-19 40.32,-19 40.32,0 173.32,0 173.32,-19"/>
<text text-anchor="middle" x="106.82" y="-7" font-family="Helvetica,sans-Serif" font-size="10.00">gdk&#45;pixbuf/gdk&#45;pixbuf.h</text>
</a>
</g>
</g>
<!-- Node2&#45;&gt;Node9 -->
<g id="edge29_Node000002_Node000009" class="edge">
<title>Node2&#45;&gt;Node9</title>
<g id="a_edge29_Node000002_Node000009"><a xlink:title=" ">
<path fill="none" stroke="#63b8ff" d="M393.81,-173.35C328.98,-171.96 199.62,-164.5 96.82,-129 51.43,-113.33 27.61,-115.71 3.82,-74 -10.85,-48.29 21.84,-31.64 54.2,-21.87"/>
<polygon fill="#63b8ff" stroke="#63b8ff" points="55.5,-25.14 64.18,-19.06 53.6,-18.4 55.5,-25.14"/>
</a>
</g>
</g>
<!-- Node10 -->
<g id="Node000010" class="node">
<title>Node10</title>
<g id="a_Node000010"><a xlink:href="eom-enums_8h.html" target="_top" xlink:title=" ">
<polygon fill="white" stroke="#666666" points="440.82,-74 356.82,-74 356.82,-55 440.82,-55 440.82,-74"/>
<text text-anchor="middle" x="398.82" y="-62" font-family="Helvetica,sans-Serif" font-size="10.00">eom&#45;enums.h</text>
</a>
</g>
</g>
<!-- Node2&#45;&gt;Node10 -->
<g id="edge26_Node000002_Node000010" class="edge">
<title>Node2&#45;&gt;Node10</title>
<g id="a_edge26_Node000002_Node000010"><a xlink:title=" ">
<path fill="none" stroke="#63b8ff" d="M431.87,-164.66C426.02,-147.09 412.8,-107.45 404.97,-83.95"/>
<polygon fill="#63b8ff" stroke="#63b8ff" points="408.19,-82.54 401.71,-74.16 401.55,-84.75 408.19,-82.54"/>
</a>
</g>
</g>
<!-- Node11 -->
<g id="Node000011" class="node">
<title>Node11</title>
<g id="a_Node000011"><a xlink:title=" ">
<polygon fill="#e0e0e0" stroke="#999999" points="578.82,-74 534.82,-74 534.82,-55 578.82,-55 578.82,-74"/>
<text text-anchor="middle" x="556.82" y="-62" font-family="Helvetica,sans-Serif" font-size="10.00">glib.h</text>
</a>
</g>
</g>
<!-- Node2&#45;&gt;Node11 -->
<g id="edge27_Node000002_Node000011" class="edge">
<title>Node2&#45;&gt;Node11</title>
<g id="a_edge27_Node000002_Node000011"><a xlink:title=" ">
<path fill="none" stroke="#63b8ff" d="M454.69,-164.95C471.21,-157.2 494.7,-144.6 511.82,-129 526.44,-115.67 539.06,-96.81 547.19,-83.11"/>
<polygon fill="#63b8ff" stroke="#63b8ff" points="550.35,-84.62 552.27,-74.2 544.27,-81.15 550.35,-84.62"/>
</a>
</g>
</g>
<!-- Node12 -->
<g id="Node000012" class="node">
<title>Node12</title>
<g id="a_Node000012"><a xlink:href="eom-window_8h.html" target="_top" xlink:title=" ">
<polygon fill="white" stroke="#666666" points="649.82,-129 561.82,-129 561.82,-110 649.82,-110 649.82,-129"/>
<text text-anchor="middle" x="605.82" y="-117" font-family="Helvetica,sans-Serif" font-size="10.00">eom&#45;window.h</text>
</a>
</g>
</g>
<!-- Node2&#45;&gt;Node12 -->
<g id="edge15_Node000002_Node000012" class="edge">
<title>Node2&#45;&gt;Node12</title>
<g id="a_edge15_Node000002_Node000012"><a xlink:title=" ">
<path fill="none" stroke="#63b8ff" d="M457.18,-164.98C484.04,-156.05 529.36,-141.94 562.98,-132.02"/>
<polygon fill="#63b8ff" stroke="#63b8ff" points="564.39,-135.25 573,-129.08 562.42,-128.53 564.39,-135.25"/>
</a>
</g>
</g>
<!-- Node13 -->
<g id="Node000013" class="node">
<title>Node13</title>
<g id="a_Node000013"><a xlink:href="eom-image-save-info_8h.html" target="_top" xlink:title=" ">
<polygon fill="white" stroke="#666666" points="338.32,-74 207.32,-74 207.32,-55 338.32,-55 338.32,-74"/>
<text text-anchor="middle" x="272.82" y="-62" font-family="Helvetica,sans-Serif" font-size="10.00">eom&#45;image&#45;save&#45;info.h</text>
</a>
</g>
</g>
<!-- Node2&#45;&gt;Node13 -->
<g id="edge22_Node000002_Node000013" class="edge">
<title>Node2&#45;&gt;Node13</title>
<g id="a_edge22_Node000002_Node000013"><a xlink:title=" ">
<path fill="none" stroke="#63b8ff" d="M421.84,-164.84C393.99,-146.28 328.3,-102.49 294.2,-79.75"/>
<polygon fill="#63b8ff" stroke="#63b8ff" points="296.13,-76.83 285.87,-74.2 292.24,-82.66 296.13,-76.83"/>
</a>
</g>
</g>
<!-- Node3&#45;&gt;Node4 -->
<g id="edge3_Node000003_Node000004" class="edge">
<title>Node3&#45;&gt;Node4</title>
<g id="a_edge3_Node000003_Node000004"><a xlink:title=" ">
<path fill="none" stroke="#63b8ff" d="M501.52,-109.98C538.57,-100.89 597.41,-86.46 637.95,-76.51"/>
<polygon fill="#63b8ff" stroke="#63b8ff" points="638.97,-79.86 647.84,-74.08 637.3,-73.07 638.97,-79.86"/>
</a>
</g>
</g>
<!-- Node5 -->
<g id="Node000005" class="node">
<title>Node5</title>
<g id="a_Node000005"><a xlink:title=" ">
<polygon fill="#e0e0e0" stroke="#999999" points="712.82,-19 652.82,-19 652.82,0 712.82,0 712.82,-19"/>
<text text-anchor="middle" x="682.82" y="-7" font-family="Helvetica,sans-Serif" font-size="10.00">gtk/gtk.h</text>
</a>
</g>
</g>
<!-- Node3&#45;&gt;Node5 -->
<g id="edge13_Node000003_Node000005" class="edge">
<title>Node3&#45;&gt;Node5</title>
<g id="a_edge13_Node000003_Node000005"><a xlink:title=" ">
<path fill="none" stroke="#63b8ff" d="M472.59,-109.69C482.06,-95.93 502.2,-69.45 525.82,-55 561.8,-32.98 609.03,-21.52 642.26,-15.79"/>
<polygon fill="#63b8ff" stroke="#63b8ff" points="643.21,-19.18 652.52,-14.12 642.09,-12.27 643.21,-19.18"/>
</a>
</g>
</g>
<!-- Node7 -->
<g id="Node000007" class="node">
<title>Node7</title>
<g id="a_Node000007"><a xlink:title=" ">
<polygon fill="#e0e0e0" stroke="#999999" points="498.32,-19 439.32,-19 439.32,0 498.32,0 498.32,-19"/>
<text text-anchor="middle" x="468.82" y="-7" font-family="Helvetica,sans-Serif" font-size="10.00">gio/gio.h</text>
</a>
</g>
</g>
<!-- Node3&#45;&gt;Node7 -->
<g id="edge12_Node000003_Node000007" class="edge">
<title>Node3&#45;&gt;Node7</title>
<g id="a_edge12_Node000003_Node000007"><a xlink:title=" ">
<path fill="none" stroke="#63b8ff" d="M466.98,-109.66C467.31,-92.17 468.04,-52.8 468.47,-29.27"/>
<polygon fill="#63b8ff" stroke="#63b8ff" points="471.97,-29.22 468.66,-19.16 464.98,-29.09 471.97,-29.22"/>
</a>
</g>
</g>
<!-- Node3&#45;&gt;Node8 -->
<g id="edge7_Node000003_Node000008" class="edge">
<title>Node3&#45;&gt;Node8</title>
<g id="a_edge7_Node000003_Node000008"><a xlink:title=" ">
<path fill="none" stroke="#63b8ff" d="M430.97,-113.8C361.47,-104.68 207.79,-84.52 122.6,-73.34"/>
<polygon fill="#63b8ff" stroke="#63b8ff" points="122.94,-69.86 112.57,-72.03 122.03,-76.8 122.94,-69.86"/>
</a>
</g>
</g>
<!-- Node3&#45;&gt;Node9 -->
<g id="edge14_Node000003_Node000009" class="edge">
<title>Node3&#45;&gt;Node9</title>
<g id="a_edge14_Node000003_Node000009"><a xlink:title=" ">
<path fill="none" stroke="#63b8ff" d="M431.08,-117.58C378.23,-115.12 276.96,-106.21 197.82,-74 169.3,-62.39 140.92,-40.52 123.62,-25.73"/>
<polygon fill="#63b8ff" stroke="#63b8ff" points="125.9,-23.07 116.07,-19.12 121.28,-28.34 125.9,-23.07"/>
</a>
</g>
</g>
<!-- Node3&#45;&gt;Node10 -->
<g id="edge10_Node000003_Node000010" class="edge">
<title>Node3&#45;&gt;Node10</title>
<g id="a_edge10_Node000003_Node000010"><a xlink:title=" ">
<path fill="none" stroke="#63b8ff" d="M455.89,-109.98C445.74,-102.07 430.4,-90.11 418.17,-80.58"/>
<polygon fill="#63b8ff" stroke="#63b8ff" points="419.98,-77.56 409.94,-74.17 415.68,-83.08 419.98,-77.56"/>
</a>
</g>
</g>
<!-- Node3&#45;&gt;Node11 -->
<g id="edge11_Node000003_Node000011" class="edge">
<title>Node3&#45;&gt;Node11</title>
<g id="a_edge11_Node000003_Node000011"><a xlink:title=" ">
<path fill="none" stroke="#63b8ff" d="M481.28,-109.98C495.24,-101.77 516.61,-89.18 533.07,-79.49"/>
<polygon fill="#63b8ff" stroke="#63b8ff" points="535.26,-82.26 542.1,-74.17 531.7,-76.23 535.26,-82.26"/>
</a>
</g>
</g>
<!-- Node4&#45;&gt;Node5 -->
<g id="edge4_Node000004_Node000005" class="edge">
<title>Node4&#45;&gt;Node5</title>
<g id="a_edge4_Node000004_Node000005"><a xlink:title=" ">
<path fill="none" stroke="#63b8ff" d="M682.82,-54.75C682.82,-47.8 682.82,-37.85 682.82,-29.13"/>
<polygon fill="#63b8ff" stroke="#63b8ff" points="686.32,-29.09 682.82,-19.09 679.32,-29.09 686.32,-29.09"/>
</a>
</g>
</g>
<!-- Node4&#45;&gt;Node6 -->
<g id="edge5_Node000004_Node000006" class="edge">
<title>Node4&#45;&gt;Node6</title>
<g id="a_edge5_Node000004_Node000006"><a xlink:title=" ">
<path fill="none" stroke="#63b8ff" d="M635.1,-56.91C630.28,-56.26 625.45,-55.61 620.82,-55 514.21,-40.88 389.13,-25.07 321.76,-16.62"/>
<polygon fill="#63b8ff" stroke="#63b8ff" points="321.82,-13.1 311.46,-15.32 320.94,-20.04 321.82,-13.1"/>
</a>
</g>
</g>
<!-- Node4&#45;&gt;Node7 -->
<g id="edge6_Node000004_Node000007" class="edge">
<title>Node4&#45;&gt;Node7</title>
<g id="a_edge6_Node000004_Node000007"><a xlink:title=" ">
<path fill="none" stroke="#63b8ff" d="M648.44,-54.98C610.21,-45.52 548.56,-30.25 508.36,-20.29"/>
<polygon fill="#63b8ff" stroke="#63b8ff" points="509.18,-16.89 498.63,-17.88 507.5,-23.68 509.18,-16.89"/>
</a>
</g>
</g>
<!-- Node8&#45;&gt;Node6 -->
<g id="edge8_Node000008_Node000006" class="edge">
<title>Node8&#45;&gt;Node6</title>
<g id="a_edge8_Node000008_Node000006"><a xlink:title=" ">
<path fill="none" stroke="#63b8ff" d="M96.56,-54.98C132.5,-45.91 189.54,-31.52 228.95,-21.57"/>
<polygon fill="#63b8ff" stroke="#63b8ff" points="229.98,-24.92 238.82,-19.08 228.26,-18.14 229.98,-24.92"/>
</a>
</g>
</g>
<!-- Node8&#45;&gt;Node9 -->
<g id="edge9_Node000008_Node000009" class="edge">
<title>Node8&#45;&gt;Node9</title>
<g id="a_edge9_Node000008_Node000009"><a xlink:title=" ">
<path fill="none" stroke="#63b8ff" d="M70.09,-54.75C76.36,-47.18 85.61,-36.05 93.25,-26.84"/>
<polygon fill="#63b8ff" stroke="#63b8ff" points="95.99,-29.02 99.69,-19.09 90.61,-24.55 95.99,-29.02"/>
</a>
</g>
</g>
<!-- Node12&#45;&gt;Node2 -->
<g id="edge17_Node000012_Node000002" class="edge">
<title>Node12&#45;&gt;Node2</title>
<g id="a_edge17_Node000012_Node000002"><a xlink:title=" ">
<path fill="none" stroke="#63b8ff" d="M583.26,-129.08C556.31,-138.04 510.98,-152.15 477.41,-162.06"/>
<polygon fill="#63b8ff" stroke="#63b8ff" points="476.02,-158.82 467.41,-164.98 477.99,-165.53 476.02,-158.82"/>
</a>
</g>
</g>
<!-- Node12&#45;&gt;Node4 -->
<g id="edge16_Node000012_Node000004" class="edge">
<title>Node12&#45;&gt;Node4</title>
<g id="a_edge16_Node000012_Node000004"><a xlink:title=" ">
<path fill="none" stroke="#63b8ff" d="M618.19,-109.98C629.91,-101.92 647.74,-89.65 661.71,-80.03"/>
<polygon fill="#63b8ff" stroke="#63b8ff" points="663.97,-82.72 670.22,-74.17 660,-76.96 663.97,-82.72"/>
</a>
</g>
</g>
<!-- Node12&#45;&gt;Node5 -->
<g id="edge20_Node000012_Node000005" class="edge">
<title>Node12&#45;&gt;Node5</title>
<g id="a_edge20_Node000012_Node000005"><a xlink:title=" ">
<path fill="none" stroke="#63b8ff" d="M650.08,-116.64C680.72,-112.76 719.52,-102.13 739.82,-74 753.11,-55.58 730.04,-36.45 709.39,-24.06"/>
<polygon fill="#63b8ff" stroke="#63b8ff" points="710.94,-20.92 700.51,-19.03 707.49,-27.01 710.94,-20.92"/>
</a>
</g>
</g>
<!-- Node12&#45;&gt;Node6 -->
<g id="edge19_Node000012_Node000006" class="edge">
<title>Node12&#45;&gt;Node6</title>
<g id="a_edge19_Node000012_Node000006"><a xlink:title=" ">
<path fill="none" stroke="#63b8ff" d="M606.12,-110C606.1,-96.18 603.88,-69.01 587.82,-55 568.1,-37.79 404.82,-21.66 321.43,-14.46"/>
<polygon fill="#63b8ff" stroke="#63b8ff" points="321.69,-10.96 311.43,-13.6 321.1,-17.94 321.69,-10.96"/>
</a>
</g>
</g>
<!-- Node12&#45;&gt;Node11 -->
<g id="edge18_Node000012_Node000011" class="edge">
<title>Node12&#45;&gt;Node11</title>
<g id="a_edge18_Node000012_Node000011"><a xlink:title=" ">
<path fill="none" stroke="#63b8ff" d="M597.73,-109.75C590.66,-102.11 580.23,-90.82 571.67,-81.56"/>
<polygon fill="#63b8ff" stroke="#63b8ff" points="574.12,-79.06 564.76,-74.09 568.98,-83.81 574.12,-79.06"/>
</a>
</g>
</g>
<!-- Node13&#45;&gt;Node6 -->
<g id="edge23_Node000013_Node000006" class="edge">
<title>Node13&#45;&gt;Node6</title>
<g id="a_edge23_Node000013_Node000006"><a xlink:title=" ">
<path fill="none" stroke="#63b8ff" d="M272.82,-54.75C272.82,-47.8 272.82,-37.85 272.82,-29.13"/>
<polygon fill="#63b8ff" stroke="#63b8ff" points="276.32,-29.09 272.82,-19.09 269.32,-29.09 276.32,-29.09"/>
</a>
</g>
</g>
<!-- Node13&#45;&gt;Node7 -->
<g id="edge24_Node000013_Node000007" class="edge">
<title>Node13&#45;&gt;Node7</title>
<g id="a_edge24_Node000013_Node000007"><a xlink:title=" ">
<path fill="none" stroke="#63b8ff" d="M304.31,-54.98C338.24,-45.81 392.3,-31.19 429.12,-21.24"/>
<polygon fill="#63b8ff" stroke="#63b8ff" points="430.27,-24.55 439.01,-18.56 428.45,-17.79 430.27,-24.55"/>
</a>
</g>
</g>
<!-- Node13&#45;&gt;Node9 -->
<g id="edge25_Node000013_Node000009" class="edge">
<title>Node13&#45;&gt;Node9</title>
<g id="a_edge25_Node000013_Node000009"><a xlink:title=" ">
<path fill="none" stroke="#63b8ff" d="M246.15,-54.98C218.28,-46.09 174.37,-32.07 143.3,-22.15"/>
<polygon fill="#63b8ff" stroke="#63b8ff" points="144.29,-18.79 133.7,-19.08 142.16,-25.46 144.29,-18.79"/>
</a>
</g>
</g>
</g>
</svg>
