<?xml version="1.0" encoding="UTF-8" standalone="no"?>
<!DOCTYPE svg PUBLIC "-//W3C//DTD SVG 1.1//EN"
 "http://www.w3.org/Graphics/SVG/1.1/DTD/svg11.dtd">
<!-- Generated by graphviz version 2.43.0 (0)
 -->
<!-- Title: eom&#45;application.h Pages: 1 -->
<!--zoomable 313 -->

<svg id="main" version="1.1" xmlns="http://www.w3.org/2000/svg" xmlns:xlink="http://www.w3.org/1999/xlink" xml:space="preserve" onload="init(evt)">
<style type="text/css"><![CDATA[
.node, .edge {opacity: 0.7;}
.node.selected, .edge.selected {opacity: 1;}
.edge:hover path { stroke: red; }
.edge:hover polygon { stroke: red; fill: red; }
]]></style>

<defs>
  <circle id="rim" cx="0" cy="0" r="7"/>
  <circle id="rim2" cx="0" cy="0" r="3.5"/>
  <g id="zoomPlus">
    <use xlink:href="#rim" fill="#404040"><set attributeName="fill" to="#808080" begin="zoomplus.mouseover" end="zoomplus.mouseout"/></use>
    <path d="M-4,0h8M0,-4v8" fill="none" stroke="white" stroke-width="1.5" pointer-events="none"/>
  </g>
  <g id="zoomMin">
    <use xlink:href="#rim" fill="#404040"><set attributeName="fill" to="#808080" begin="zoomminus.mouseover" end="zoomminus.mouseout"/></use>
    <path d="M-4,0h8" fill="none" stroke="white" stroke-width="1.5" pointer-events="none"/>
  </g>
  <g id="arrowUp" transform="translate(30 24)">
    <use xlink:href="#rim"/>
    <path pointer-events="none" fill="none" stroke="white" stroke-width="1.5" d="M0,-3.0v7 M-2.5,-0.5L0,-3.0L2.5,-0.5"/>
  </g>
  <g id="arrowRight" transform="rotate(90) translate(36 -43)">
    <use xlink:href="#rim"/>
    <path pointer-events="none" fill="none" stroke="white" stroke-width="1.5" d="M0,-3.0v7 M-2.5,-0.5L0,-3.0L2.5,-0.5"/>
  </g>
  <g id="arrowDown" transform="rotate(180) translate(-30 -48)">
    <use xlink:href="#rim"/>
    <path pointer-events="none" fill="none" stroke="white" stroke-width="1.5" d="M0,-3.0v7 M-2.5,-0.5L0,-3.0L2.5,-0.5"/>
  </g>
  <g id="arrowLeft" transform="rotate(270) translate(-36 17)">
    <use xlink:href="#rim"/>
    <path pointer-events="none" fill="none" stroke="white" stroke-width="1.5" d="M0,-3.0v7 M-2.5,-0.5L0,-3.0L2.5,-0.5"/>
  </g>
  <g id="resetDef">
    <use xlink:href="#rim2" fill="#404040"><set attributeName="fill" to="#808080" begin="reset.mouseover" end="reset.mouseout"/></use>
  </g>
</defs>
<script type="application/ecmascript">
var viewWidth = 1015;
var viewHeight = 313;
var sectionId = 'dynsection-0';
</script>
<script type="application/ecmascript" xlink:href="svg.min.js"/>
<svg id="graph" class="graph">
<g id="viewport">
<title>eom&#45;application.h</title>
<!-- Node1 -->
<g id="Node000001" class="node">
<title>Node1</title>
<g id="a_Node000001"><a xlink:title=" ">
<polygon fill="#999999" stroke="#666666" points="335.5,-305 230.5,-305 230.5,-286 335.5,-286 335.5,-305"/>
<text text-anchor="middle" x="283" y="-293" font-family="Helvetica,sans-Serif" font-size="10.00">eom&#45;application.h</text>
</a>
</g>
</g>
<!-- Node2 -->
<g id="Node000002" class="node">
<title>Node2</title>
<g id="a_Node000002"><a xlink:title=" ">
<polygon fill="#e0e0e0" stroke="#999999" points="110,-74 66,-74 66,-55 110,-55 110,-74"/>
<text text-anchor="middle" x="88" y="-62" font-family="Helvetica,sans-Serif" font-size="10.00">glib.h</text>
</a>
</g>
</g>
<!-- Node1&#45;&gt;Node2 -->
<g id="edge1_Node000001_Node000002" class="edge">
<title>Node1&#45;&gt;Node2</title>
<g id="a_edge1_Node000001_Node000002"><a xlink:title=" ">
<path fill="none" stroke="#63b8ff" d="M271.42,-285.95C260.25,-277.44 243.13,-263.71 230,-250 175.78,-193.43 122.25,-116.73 99.45,-82.83"/>
<polygon fill="#63b8ff" stroke="#63b8ff" points="102.09,-80.48 93.63,-74.11 96.27,-84.37 102.09,-80.48"/>
</a>
</g>
</g>
<!-- Node3 -->
<g id="Node000003" class="node">
<title>Node3</title>
<g id="a_Node000003"><a xlink:title=" ">
<polygon fill="#e0e0e0" stroke="#999999" points="721.5,-19 644.5,-19 644.5,0 721.5,0 721.5,-19"/>
<text text-anchor="middle" x="683" y="-7" font-family="Helvetica,sans-Serif" font-size="10.00">glib&#45;object.h</text>
</a>
</g>
</g>
<!-- Node1&#45;&gt;Node3 -->
<g id="edge2_Node000001_Node000003" class="edge">
<title>Node1&#45;&gt;Node3</title>
<g id="a_edge2_Node000001_Node000003"><a xlink:title=" ">
<path fill="none" stroke="#63b8ff" d="M335.74,-294.53C476.25,-293.19 849,-279.8 849,-175.5 849,-175.5 849,-175.5 849,-118.5 849,-61.89 780.33,-33.42 731.32,-20.31"/>
<polygon fill="#63b8ff" stroke="#63b8ff" points="732.05,-16.89 721.5,-17.82 730.33,-23.67 732.05,-16.89"/>
</a>
</g>
</g>
<!-- Node4 -->
<g id="Node000004" class="node">
<title>Node4</title>
<g id="a_Node000004"><a xlink:title=" ">
<polygon fill="#e0e0e0" stroke="#999999" points="1007,-250 877,-250 877,-220 1007,-220 1007,-250"/>
<text text-anchor="start" x="885" y="-238" font-family="Helvetica,sans-Serif" font-size="10.00">libpeas/peas&#45;extension</text>
<text text-anchor="middle" x="942" y="-227" font-family="Helvetica,sans-Serif" font-size="10.00">&#45;set.h</text>
</a>
</g>
</g>
<!-- Node1&#45;&gt;Node4 -->
<g id="edge3_Node000001_Node000004" class="edge">
<title>Node1&#45;&gt;Node4</title>
<g id="a_edge3_Node000001_Node000004"><a xlink:title=" ">
<path fill="none" stroke="#63b8ff" d="M335.56,-292.21C437.57,-287.38 669.38,-274.52 863,-250 864.28,-249.84 865.58,-249.67 866.88,-249.49"/>
<polygon fill="#63b8ff" stroke="#63b8ff" points="867.58,-252.93 876.98,-248.05 866.59,-246 867.58,-252.93"/>
</a>
</g>
</g>
<!-- Node5 -->
<g id="Node000005" class="node">
<title>Node5</title>
<g id="a_Node000005"><a xlink:title=" ">
<polygon fill="#e0e0e0" stroke="#999999" points="118,-19 58,-19 58,0 118,0 118,-19"/>
<text text-anchor="middle" x="88" y="-7" font-family="Helvetica,sans-Serif" font-size="10.00">gtk/gtk.h</text>
</a>
</g>
</g>
<!-- Node1&#45;&gt;Node5 -->
<g id="edge4_Node000001_Node000005" class="edge">
<title>Node1&#45;&gt;Node5</title>
<g id="a_edge4_Node000001_Node000005"><a xlink:title=" ">
<path fill="none" stroke="#63b8ff" d="M230.43,-294.89C148.59,-292.44 0,-274.37 0,-175.5 0,-175.5 0,-175.5 0,-118.5 0,-77.39 38.79,-43.26 64.86,-24.97"/>
<polygon fill="#63b8ff" stroke="#63b8ff" points="67.13,-27.66 73.47,-19.17 63.22,-21.85 67.13,-27.66"/>
</a>
</g>
</g>
<!-- Node6 -->
<g id="Node000006" class="node">
<title>Node6</title>
<g id="a_Node000006"><a xlink:href="eom-window_8h.html" target="_top" xlink:title=" ">
<polygon fill="white" stroke="#666666" points="327,-244.5 239,-244.5 239,-225.5 327,-225.5 327,-244.5"/>
<text text-anchor="middle" x="283" y="-232.5" font-family="Helvetica,sans-Serif" font-size="10.00">eom&#45;window.h</text>
</a>
</g>
</g>
<!-- Node1&#45;&gt;Node6 -->
<g id="edge5_Node000001_Node000006" class="edge">
<title>Node1&#45;&gt;Node6</title>
<g id="a_edge5_Node000001_Node000006"><a xlink:title=" ">
<path fill="none" stroke="#63b8ff" d="M283,-285.87C283,-277.75 283,-265.31 283,-254.89"/>
<polygon fill="#63b8ff" stroke="#63b8ff" points="286.5,-254.67 283,-244.67 279.5,-254.67 286.5,-254.67"/>
</a>
</g>
</g>
<!-- Node6&#45;&gt;Node2 -->
<g id="edge31_Node000006_Node000002" class="edge">
<title>Node6&#45;&gt;Node2</title>
<g id="a_edge31_Node000006_Node000002"><a xlink:title=" ">
<path fill="none" stroke="#63b8ff" d="M273.06,-225.41C241.9,-198.49 145.84,-115.48 105.8,-80.88"/>
<polygon fill="#63b8ff" stroke="#63b8ff" points="108.01,-78.16 98.15,-74.27 103.43,-83.46 108.01,-78.16"/>
</a>
</g>
</g>
<!-- Node6&#45;&gt;Node3 -->
<g id="edge32_Node000006_Node000003" class="edge">
<title>Node6&#45;&gt;Node3</title>
<g id="a_edge32_Node000006_Node000003"><a xlink:title=" ">
<path fill="none" stroke="#63b8ff" d="M327.13,-227.08C438.46,-208.52 725.07,-153.65 770,-74 783.45,-50.15 753.04,-32.81 724.55,-22.33"/>
<polygon fill="#63b8ff" stroke="#63b8ff" points="725.63,-19 715.03,-19.04 723.34,-25.61 725.63,-19"/>
</a>
</g>
</g>
<!-- Node6&#45;&gt;Node5 -->
<g id="edge33_Node000006_Node000005" class="edge">
<title>Node6&#45;&gt;Node5</title>
<g id="a_edge33_Node000006_Node000005"><a xlink:title=" ">
<path fill="none" stroke="#63b8ff" d="M257.72,-225.38C208,-206.85 98.69,-157.96 57,-74 49.03,-57.96 60.24,-39.56 71.34,-26.71"/>
<polygon fill="#63b8ff" stroke="#63b8ff" points="74.14,-28.84 78.42,-19.15 69.03,-24.06 74.14,-28.84"/>
</a>
</g>
</g>
<!-- Node7 -->
<g id="Node000007" class="node">
<title>Node7</title>
<g id="a_Node000007"><a xlink:href="eom-list-store_8h.html" target="_top" xlink:title=" ">
<polygon fill="white" stroke="#666666" points="261.5,-74 166.5,-74 166.5,-55 261.5,-55 261.5,-74"/>
<text text-anchor="middle" x="214" y="-62" font-family="Helvetica,sans-Serif" font-size="10.00">eom&#45;list&#45;store.h</text>
</a>
</g>
</g>
<!-- Node6&#45;&gt;Node7 -->
<g id="edge6_Node000006_Node000007" class="edge">
<title>Node6&#45;&gt;Node7</title>
<g id="a_edge6_Node000006_Node000007"><a xlink:title=" ">
<path fill="none" stroke="#63b8ff" d="M279.48,-225.41C268.74,-199.17 236.16,-119.61 221.4,-83.58"/>
<polygon fill="#63b8ff" stroke="#63b8ff" points="224.62,-82.2 217.59,-74.27 218.14,-84.85 224.62,-82.2"/>
</a>
</g>
</g>
<!-- Node9 -->
<g id="Node000009" class="node">
<title>Node9</title>
<g id="a_Node000009"><a xlink:href="eom-image_8h.html" target="_top" xlink:title=" ">
<polygon fill="white" stroke="#666666" points="407,-184 325,-184 325,-165 407,-165 407,-184"/>
<text text-anchor="middle" x="366" y="-172" font-family="Helvetica,sans-Serif" font-size="10.00">eom&#45;image.h</text>
</a>
</g>
</g>
<!-- Node6&#45;&gt;Node9 -->
<g id="edge10_Node000006_Node000009" class="edge">
<title>Node6&#45;&gt;Node9</title>
<g id="a_edge10_Node000006_Node000009"><a xlink:title=" ">
<path fill="none" stroke="#63b8ff" d="M290.29,-225.37C301.62,-215.95 322.91,-200.73 340.16,-189.58"/>
<polygon fill="#63b8ff" stroke="#63b8ff" points="342.15,-192.46 348.74,-184.17 338.41,-186.54 342.15,-192.46"/>
</a>
</g>
</g>
<!-- Node7&#45;&gt;Node3 -->
<g id="edge8_Node000007_Node000003" class="edge">
<title>Node7&#45;&gt;Node3</title>
<g id="a_edge8_Node000007_Node000003"><a xlink:title=" ">
<path fill="none" stroke="#63b8ff" d="M261.55,-58.13C351.13,-48 544.01,-26.21 634.39,-15.99"/>
<polygon fill="#63b8ff" stroke="#63b8ff" points="634.83,-19.47 644.37,-14.86 634.04,-12.51 634.83,-19.47"/>
</a>
</g>
</g>
<!-- Node7&#45;&gt;Node5 -->
<g id="edge7_Node000007_Node000005" class="edge">
<title>Node7&#45;&gt;Node5</title>
<g id="a_edge7_Node000007_Node000005"><a xlink:title=" ">
<path fill="none" stroke="#63b8ff" d="M193.76,-54.98C173.3,-46.38 141.47,-32.99 118.07,-23.15"/>
<polygon fill="#63b8ff" stroke="#63b8ff" points="119.19,-19.82 108.61,-19.17 116.47,-26.27 119.19,-19.82"/>
</a>
</g>
</g>
<!-- Node8 -->
<g id="Node000008" class="node">
<title>Node8</title>
<g id="a_Node000008"><a xlink:title=" ">
<polygon fill="#e0e0e0" stroke="#999999" points="319.5,-19 260.5,-19 260.5,0 319.5,0 319.5,-19"/>
<text text-anchor="middle" x="290" y="-7" font-family="Helvetica,sans-Serif" font-size="10.00">gio/gio.h</text>
</a>
</g>
</g>
<!-- Node7&#45;&gt;Node8 -->
<g id="edge9_Node000007_Node000008" class="edge">
<title>Node7&#45;&gt;Node8</title>
<g id="a_edge9_Node000007_Node000008"><a xlink:title=" ">
<path fill="none" stroke="#63b8ff" d="M226.21,-54.98C237.78,-46.92 255.38,-34.65 269.16,-25.03"/>
<polygon fill="#63b8ff" stroke="#63b8ff" points="271.37,-27.76 277.57,-19.17 267.36,-22.02 271.37,-27.76"/>
</a>
</g>
</g>
<!-- Node9&#45;&gt;Node2 -->
<g id="edge28_Node000009_Node000002" class="edge">
<title>Node9&#45;&gt;Node2</title>
<g id="a_edge28_Node000009_Node000002"><a xlink:title=" ">
<path fill="none" stroke="#63b8ff" d="M343.72,-164.84C294.49,-145.72 176.34,-99.82 119.54,-77.75"/>
<polygon fill="#63b8ff" stroke="#63b8ff" points="120.59,-74.41 110,-74.05 118.05,-80.93 120.59,-74.41"/>
</a>
</g>
</g>
<!-- Node9&#45;&gt;Node3 -->
<g id="edge29_Node000009_Node000003" class="edge">
<title>Node9&#45;&gt;Node3</title>
<g id="a_edge29_Node000009_Node000003"><a xlink:title=" ">
<path fill="none" stroke="#63b8ff" d="M407.15,-169.26C498.12,-158.93 711.59,-129.22 754,-74 769.45,-53.88 740.89,-35.07 715.52,-23.23"/>
<polygon fill="#63b8ff" stroke="#63b8ff" points="716.61,-19.88 706.05,-19.04 713.78,-26.29 716.61,-19.88"/>
</a>
</g>
</g>
<!-- Node9&#45;&gt;Node6 -->
<g id="edge21_Node000009_Node000006" class="edge">
<title>Node9&#45;&gt;Node6</title>
<g id="a_edge21_Node000009_Node000006"><a xlink:title=" ">
<path fill="none" stroke="#63b8ff" d="M358.67,-184.17C347.31,-193.6 326.01,-208.82 308.77,-219.97"/>
<polygon fill="#63b8ff" stroke="#63b8ff" points="306.8,-217.08 300.2,-225.37 310.53,-223 306.8,-217.08"/>
</a>
</g>
</g>
<!-- Node10 -->
<g id="Node000010" class="node">
<title>Node10</title>
<g id="a_Node000010"><a xlink:href="eom-jobs_8h.html" target="_top" xlink:title=" ">
<polygon fill="white" stroke="#666666" points="337.5,-129 266.5,-129 266.5,-110 337.5,-110 337.5,-129"/>
<text text-anchor="middle" x="302" y="-117" font-family="Helvetica,sans-Serif" font-size="10.00">eom&#45;jobs.h</text>
</a>
</g>
</g>
<!-- Node9&#45;&gt;Node10 -->
<g id="edge11_Node000009_Node000010" class="edge">
<title>Node9&#45;&gt;Node10</title>
<g id="a_edge11_Node000009_Node000010"><a xlink:title=" ">
<path fill="none" stroke="#63b8ff" d="M355.72,-164.98C346.16,-157.07 331.72,-145.11 320.22,-135.58"/>
<polygon fill="#63b8ff" stroke="#63b8ff" points="322.4,-132.85 312.47,-129.17 317.94,-138.24 322.4,-132.85"/>
</a>
</g>
</g>
<!-- Node11 -->
<g id="Node000011" class="node">
<title>Node11</title>
<g id="a_Node000011"><a xlink:href="eom-transform_8h.html" target="_top" xlink:title=" ">
<polygon fill="white" stroke="#666666" points="642.5,-74 543.5,-74 543.5,-55 642.5,-55 642.5,-74"/>
<text text-anchor="middle" x="593" y="-62" font-family="Helvetica,sans-Serif" font-size="10.00">eom&#45;transform.h</text>
</a>
</g>
</g>
<!-- Node9&#45;&gt;Node11 -->
<g id="edge22_Node000009_Node000011" class="edge">
<title>Node9&#45;&gt;Node11</title>
<g id="a_edge22_Node000009_Node000011"><a xlink:title=" ">
<path fill="none" stroke="#63b8ff" d="M384.19,-164.84C423.97,-145.92 518.87,-100.77 565.79,-78.45"/>
<polygon fill="#63b8ff" stroke="#63b8ff" points="567.51,-81.5 575.04,-74.05 564.5,-75.18 567.51,-81.5"/>
</a>
</g>
</g>
<!-- Node12 -->
<g id="Node000012" class="node">
<title>Node12</title>
<g id="a_Node000012"><a xlink:title=" ">
<polygon fill="#e0e0e0" stroke="#999999" points="498.5,-19 365.5,-19 365.5,0 498.5,0 498.5,-19"/>
<text text-anchor="middle" x="432" y="-7" font-family="Helvetica,sans-Serif" font-size="10.00">gdk&#45;pixbuf/gdk&#45;pixbuf.h</text>
</a>
</g>
</g>
<!-- Node9&#45;&gt;Node12 -->
<g id="edge30_Node000009_Node000012" class="edge">
<title>Node9&#45;&gt;Node12</title>
<g id="a_edge30_Node000009_Node000012"><a xlink:title=" ">
<path fill="none" stroke="#63b8ff" d="M365.67,-164.88C365.26,-144.51 366.37,-92.29 386,-55 392.02,-43.56 402.08,-33.32 411.25,-25.56"/>
<polygon fill="#63b8ff" stroke="#63b8ff" points="413.64,-28.13 419.29,-19.17 409.28,-22.65 413.64,-28.13"/>
</a>
</g>
</g>
<!-- Node13 -->
<g id="Node000013" class="node">
<title>Node13</title>
<g id="a_Node000013"><a xlink:href="eom-enums_8h.html" target="_top" xlink:title=" ">
<polygon fill="white" stroke="#666666" points="745,-74 661,-74 661,-55 745,-55 745,-74"/>
<text text-anchor="middle" x="703" y="-62" font-family="Helvetica,sans-Serif" font-size="10.00">eom&#45;enums.h</text>
</a>
</g>
</g>
<!-- Node9&#45;&gt;Node13 -->
<g id="edge27_Node000009_Node000013" class="edge">
<title>Node9&#45;&gt;Node13</title>
<g id="a_edge27_Node000009_Node000013"><a xlink:title=" ">
<path fill="none" stroke="#63b8ff" d="M392.73,-164.94C452.7,-145.72 598.07,-99.13 666.38,-77.24"/>
<polygon fill="#63b8ff" stroke="#63b8ff" points="667.82,-80.45 676.27,-74.07 665.68,-73.78 667.82,-80.45"/>
</a>
</g>
</g>
<!-- Node14 -->
<g id="Node000014" class="node">
<title>Node14</title>
<g id="a_Node000014"><a xlink:href="eom-image-save-info_8h.html" target="_top" xlink:title=" ">
<polygon fill="white" stroke="#666666" points="525.5,-74 394.5,-74 394.5,-55 525.5,-55 525.5,-74"/>
<text text-anchor="middle" x="460" y="-62" font-family="Helvetica,sans-Serif" font-size="10.00">eom&#45;image&#45;save&#45;info.h</text>
</a>
</g>
</g>
<!-- Node9&#45;&gt;Node14 -->
<g id="edge23_Node000009_Node000014" class="edge">
<title>Node9&#45;&gt;Node14</title>
<g id="a_edge23_Node000009_Node000014"><a xlink:title=" ">
<path fill="none" stroke="#63b8ff" d="M373.69,-164.66C389.47,-146.54 425.7,-104.91 445.84,-81.77"/>
<polygon fill="#63b8ff" stroke="#63b8ff" points="448.54,-84 452.46,-74.16 443.26,-79.4 448.54,-84"/>
</a>
</g>
</g>
<!-- Node10&#45;&gt;Node2 -->
<g id="edge17_Node000010_Node000002" class="edge">
<title>Node10&#45;&gt;Node2</title>
<g id="a_edge17_Node000010_Node000002"><a xlink:title=" ">
<path fill="none" stroke="#63b8ff" d="M267.62,-109.98C226.95,-99.91 159.77,-83.27 120.11,-73.45"/>
<polygon fill="#63b8ff" stroke="#63b8ff" points="120.73,-70 110.18,-70.99 119.05,-76.8 120.73,-70"/>
</a>
</g>
</g>
<!-- Node10&#45;&gt;Node5 -->
<g id="edge19_Node000010_Node000005" class="edge">
<title>Node10&#45;&gt;Node5</title>
<g id="a_edge19_Node000010_Node000005"><a xlink:title=" ">
<path fill="none" stroke="#63b8ff" d="M266.24,-112.17C235.74,-105.71 191.49,-93.79 157,-74 135.28,-61.54 114.75,-41.13 101.82,-26.82"/>
<polygon fill="#63b8ff" stroke="#63b8ff" points="104.37,-24.41 95.14,-19.21 99.11,-29.03 104.37,-24.41"/>
</a>
</g>
</g>
<!-- Node10&#45;&gt;Node7 -->
<g id="edge12_Node000010_Node000007" class="edge">
<title>Node10&#45;&gt;Node7</title>
<g id="a_edge12_Node000010_Node000007"><a xlink:title=" ">
<path fill="none" stroke="#63b8ff" d="M287.86,-109.98C274.21,-101.77 253.31,-89.18 237.22,-79.49"/>
<polygon fill="#63b8ff" stroke="#63b8ff" points="238.77,-76.33 228.4,-74.17 235.16,-82.33 238.77,-76.33"/>
</a>
</g>
</g>
<!-- Node10&#45;&gt;Node8 -->
<g id="edge18_Node000010_Node000008" class="edge">
<title>Node10&#45;&gt;Node8</title>
<g id="a_edge18_Node000010_Node000008"><a xlink:title=" ">
<path fill="none" stroke="#63b8ff" d="M301.02,-109.66C299.07,-92.17 294.7,-52.8 292.09,-29.27"/>
<polygon fill="#63b8ff" stroke="#63b8ff" points="295.55,-28.71 290.96,-19.16 288.59,-29.48 295.55,-28.71"/>
</a>
</g>
</g>
<!-- Node10&#45;&gt;Node11 -->
<g id="edge13_Node000010_Node000011" class="edge">
<title>Node10&#45;&gt;Node11</title>
<g id="a_edge13_Node000010_Node000011"><a xlink:title=" ">
<path fill="none" stroke="#63b8ff" d="M337.68,-112C387.25,-102.97 477.47,-86.54 536.31,-75.82"/>
<polygon fill="#63b8ff" stroke="#63b8ff" points="536.98,-79.26 546.2,-74.02 535.73,-72.37 536.98,-79.26"/>
</a>
</g>
</g>
<!-- Node10&#45;&gt;Node12 -->
<g id="edge20_Node000010_Node000012" class="edge">
<title>Node10&#45;&gt;Node12</title>
<g id="a_edge20_Node000010_Node000012"><a xlink:title=" ">
<path fill="none" stroke="#63b8ff" d="M307.25,-109.8C315.49,-96.67 332.56,-71.56 352,-55 367.03,-42.2 386.31,-31.34 402.17,-23.56"/>
<polygon fill="#63b8ff" stroke="#63b8ff" points="404.01,-26.56 411.54,-19.12 401.01,-20.24 404.01,-26.56"/>
</a>
</g>
</g>
<!-- Node10&#45;&gt;Node13 -->
<g id="edge16_Node000010_Node000013" class="edge">
<title>Node10&#45;&gt;Node13</title>
<g id="a_edge16_Node000010_Node000013"><a xlink:title=" ">
<path fill="none" stroke="#63b8ff" d="M337.58,-114.44C399.18,-107.3 529.9,-91.72 650.82,-74.12"/>
<polygon fill="#63b8ff" stroke="#63b8ff" points="651.61,-77.54 661,-72.63 650.59,-70.62 651.61,-77.54"/>
</a>
</g>
</g>
<!-- Node11&#45;&gt;Node3 -->
<g id="edge14_Node000011_Node000003" class="edge">
<title>Node11&#45;&gt;Node3</title>
<g id="a_edge14_Node000011_Node000003"><a xlink:title=" ">
<path fill="none" stroke="#63b8ff" d="M607.46,-54.98C621.42,-46.77 642.79,-34.18 659.25,-24.49"/>
<polygon fill="#63b8ff" stroke="#63b8ff" points="661.44,-27.26 668.28,-19.17 657.88,-21.23 661.44,-27.26"/>
</a>
</g>
</g>
<!-- Node11&#45;&gt;Node12 -->
<g id="edge15_Node000011_Node000012" class="edge">
<title>Node11&#45;&gt;Node12</title>
<g id="a_edge15_Node000011_Node000012"><a xlink:title=" ">
<path fill="none" stroke="#63b8ff" d="M567.13,-54.98C540.22,-46.13 497.88,-32.19 467.77,-22.28"/>
<polygon fill="#63b8ff" stroke="#63b8ff" points="468.66,-18.88 458.07,-19.08 466.47,-25.53 468.66,-18.88"/>
</a>
</g>
</g>
<!-- Node14&#45;&gt;Node3 -->
<g id="edge24_Node000014_Node000003" class="edge">
<title>Node14&#45;&gt;Node3</title>
<g id="a_edge24_Node000014_Node000003"><a xlink:title=" ">
<path fill="none" stroke="#63b8ff" d="M495.83,-54.98C534.16,-45.87 595.08,-31.4 636.95,-21.45"/>
<polygon fill="#63b8ff" stroke="#63b8ff" points="637.97,-24.8 646.89,-19.08 636.35,-17.99 637.97,-24.8"/>
</a>
</g>
</g>
<!-- Node14&#45;&gt;Node8 -->
<g id="edge25_Node000014_Node000008" class="edge">
<title>Node14&#45;&gt;Node8</title>
<g id="a_edge25_Node000014_Node000008"><a xlink:title=" ">
<path fill="none" stroke="#63b8ff" d="M432.69,-54.98C404.15,-46.09 359.17,-32.07 327.36,-22.15"/>
<polygon fill="#63b8ff" stroke="#63b8ff" points="328.12,-18.72 317.53,-19.08 326.03,-25.4 328.12,-18.72"/>
</a>
</g>
</g>
<!-- Node14&#45;&gt;Node12 -->
<g id="edge26_Node000014_Node000012" class="edge">
<title>Node14&#45;&gt;Node12</title>
<g id="a_edge26_Node000014_Node000012"><a xlink:title=" ">
<path fill="none" stroke="#63b8ff" d="M455.38,-54.75C451.54,-47.49 445.98,-36.95 441.24,-27.98"/>
<polygon fill="#63b8ff" stroke="#63b8ff" points="444.3,-26.3 436.54,-19.09 438.11,-29.57 444.3,-26.3"/>
</a>
</g>
</g>
</g>
</svg>

<g id="navigator" transform="translate(0 0)" fill="#404254">
  <rect fill="#f2f5e9" fill-opacity="0.5" stroke="#606060" stroke-width=".5" x="0" y="0" width="60" height="60"/>
  <use id="zoomplus" xlink:href="#zoomPlus" x="17" y="9" onmousedown="handleZoom(evt,'in')"/>
  <use id="zoomminus" xlink:href="#zoomMin" x="42" y="9" onmousedown="handleZoom(evt,'out')"/>
  <use id="reset" xlink:href="#resetDef" x="30" y="36" onmousedown="handleReset()"/>
   <use id="arrowup" xlink:href="#arrowUp" x="0" y="0" onmousedown="handlePan(0,-1)"/>
  <use id="arrowright" xlink:href="#arrowRight" x="0" y="0" onmousedown="handlePan(1,0)"/>
  <use id="arrowdown" xlink:href="#arrowDown" x="0" y="0" onmousedown="handlePan(0,1)"/>
  <use id="arrowleft" xlink:href="#arrowLeft" x="0" y="0" onmousedown="handlePan(-1,0)"/>
</g>
<svg viewBox="0 0 15 15" width="100%" height="30px" preserveAspectRatio="xMaxYMin meet">
 <g id="arrow_out" transform="scale(0.3 0.3)">
  <a xlink:href="eom-application_8h__incl_org.svg" target="_base">
   <rect id="button" ry="5" rx="5" y="6" x="6" height="38" width="38"
        fill="#f2f5e9" fill-opacity="0.5" stroke="#606060" stroke-width="1.0"/>
   <path id="arrow"
     d="M 11.500037,31.436501 C 11.940474,20.09759 22.043105,11.32322 32.158766,21.979434 L 37.068811,17.246167 C 37.068811,17.246167 37.088388,32 37.088388,32 L 22.160133,31.978069 C 22.160133,31.978069 26.997745,27.140456 26.997745,27.140456 C 18.528582,18.264221 13.291696,25.230495 11.500037,31.436501 z"
     style="fill:#404040;"/>
  </a>
 </g>
</svg>

<style type='text/css'>
<![CDATA[
[data-mouse-over-selected='false'] { opacity: 0.7; }
[data-mouse-over-selected='true']  { opacity: 1.0; }
]]>
</style>
<script type="application/ecmascript"><![CDATA[
document.addEventListener('DOMContentLoaded', (event) => {
  highlightEdges();
  highlightAdjacentNodes();
});
]]></script>
</svg>
