<?xml version="1.0" encoding="UTF-8" standalone="no"?>
<!DOCTYPE svg PUBLIC "-//W3C//DTD SVG 1.1//EN"
 "http://www.w3.org/Graphics/SVG/1.1/DTD/svg11.dtd">
<!-- Generated by graphviz version 2.43.0 (0)
 -->
<!-- Title: eom&#45;print.c Pages: 1 -->
<svg width="940pt" height="302pt"
 viewBox="0.00 0.00 939.89 302.00" xmlns="http://www.w3.org/2000/svg" xmlns:xlink="http://www.w3.org/1999/xlink">
<g id="graph0" class="graph" transform="scale(1 1) rotate(0) translate(4 298)">
<title>eom&#45;print.c</title>
<!-- Node1 -->
<g id="Node000001" class="node">
<title>Node1</title>
<g id="a_Node000001"><a xlink:title=" ">
<polygon fill="#999999" stroke="#666666" points="693.89,-294 620.89,-294 620.89,-275 693.89,-275 693.89,-294"/>
<text text-anchor="middle" x="657.39" y="-282" font-family="Helvetica,sans-Serif" font-size="10.00">eom&#45;print.c</text>
</a>
</g>
</g>
<!-- Node2 -->
<g id="Node000002" class="node">
<title>Node2</title>
<g id="a_Node000002"><a xlink:title=" ">
<polygon fill="#e0e0e0" stroke="#999999" points="389.89,-239 334.89,-239 334.89,-220 389.89,-220 389.89,-239"/>
<text text-anchor="middle" x="362.39" y="-227" font-family="Helvetica,sans-Serif" font-size="10.00">config.h</text>
</a>
</g>
</g>
<!-- Node1&#45;&gt;Node2 -->
<g id="edge1_Node000001_Node000002" class="edge">
<title>Node1&#45;&gt;Node2</title>
<g id="a_edge1_Node000001_Node000002"><a xlink:title=" ">
<path fill="none" stroke="#63b8ff" d="M620.89,-277.38C571.67,-269.06 481.3,-253.54 404.39,-239 402.93,-238.72 401.44,-238.44 399.94,-238.15"/>
<polygon fill="#63b8ff" stroke="#63b8ff" points="400.43,-234.68 389.94,-236.18 399.07,-241.54 400.43,-234.68"/>
</a>
</g>
</g>
<!-- Node3 -->
<g id="Node000003" class="node">
<title>Node3</title>
<g id="a_Node000003"><a xlink:title=" ">
<polygon fill="#e0e0e0" stroke="#999999" points="809.39,-19 749.39,-19 749.39,0 809.39,0 809.39,-19"/>
<text text-anchor="middle" x="779.39" y="-7" font-family="Helvetica,sans-Serif" font-size="10.00">gtk/gtk.h</text>
</a>
</g>
</g>
<!-- Node1&#45;&gt;Node3 -->
<g id="edge2_Node000001_Node000003" class="edge">
<title>Node1&#45;&gt;Node3</title>
<g id="a_edge2_Node000001_Node000003"><a xlink:title=" ">
<path fill="none" stroke="#63b8ff" d="M694.12,-283.05C730.19,-280.61 784.46,-271.3 817.39,-239 838.43,-218.37 836.39,-204.96 836.39,-175.5 836.39,-175.5 836.39,-175.5 836.39,-118.5 836.39,-82.51 811.33,-46.76 794.45,-26.76"/>
<polygon fill="#63b8ff" stroke="#63b8ff" points="797.03,-24.4 787.81,-19.2 791.77,-29.02 797.03,-24.4"/>
</a>
</g>
</g>
<!-- Node4 -->
<g id="Node000004" class="node">
<title>Node4</title>
<g id="a_Node000004"><a xlink:title=" ">
<polygon fill="#e0e0e0" stroke="#999999" points="520.39,-239 446.39,-239 446.39,-220 520.39,-220 520.39,-239"/>
<text text-anchor="middle" x="483.39" y="-227" font-family="Helvetica,sans-Serif" font-size="10.00">glib/gi18n.h</text>
</a>
</g>
</g>
<!-- Node1&#45;&gt;Node4 -->
<g id="edge3_Node000001_Node000004" class="edge">
<title>Node1&#45;&gt;Node4</title>
<g id="a_edge3_Node000001_Node000004"><a xlink:title=" ">
<path fill="none" stroke="#63b8ff" d="M629.44,-274.98C600.1,-266.05 553.8,-251.94 521.21,-242.02"/>
<polygon fill="#63b8ff" stroke="#63b8ff" points="522.16,-238.65 511.57,-239.08 520.12,-245.34 522.16,-238.65"/>
</a>
</g>
</g>
<!-- Node5 -->
<g id="Node000005" class="node">
<title>Node5</title>
<g id="a_Node000005"><a xlink:href="eom-image_8h.html" target="_top" xlink:title=" ">
<polygon fill="white" stroke="#666666" points="570.39,-184 488.39,-184 488.39,-165 570.39,-165 570.39,-184"/>
<text text-anchor="middle" x="529.39" y="-172" font-family="Helvetica,sans-Serif" font-size="10.00">eom&#45;image.h</text>
</a>
</g>
</g>
<!-- Node1&#45;&gt;Node5 -->
<g id="edge4_Node000001_Node000005" class="edge">
<title>Node1&#45;&gt;Node5</title>
<g id="a_edge4_Node000001_Node000005"><a xlink:title=" ">
<path fill="none" stroke="#63b8ff" d="M620.82,-281.54C564.38,-277.66 460.15,-266.82 437.39,-239 418.8,-216.27 454.34,-198.22 486.51,-187.26"/>
<polygon fill="#63b8ff" stroke="#63b8ff" points="487.89,-190.5 496.33,-184.09 485.74,-183.84 487.89,-190.5"/>
</a>
</g>
</g>
<!-- Node16 -->
<g id="Node000016" class="node">
<title>Node16</title>
<g id="a_Node000016"><a xlink:href="eom-print_8h.html" target="_top" xlink:title=" ">
<polygon fill="white" stroke="#666666" points="808.39,-239 734.39,-239 734.39,-220 808.39,-220 808.39,-239"/>
<text text-anchor="middle" x="771.39" y="-227" font-family="Helvetica,sans-Serif" font-size="10.00">eom&#45;print.h</text>
</a>
</g>
</g>
<!-- Node1&#45;&gt;Node16 -->
<g id="edge33_Node000001_Node000016" class="edge">
<title>Node1&#45;&gt;Node16</title>
<g id="a_edge33_Node000001_Node000016"><a xlink:title=" ">
<path fill="none" stroke="#63b8ff" d="M675.71,-274.98C694.05,-266.46 722.5,-253.23 743.62,-243.41"/>
<polygon fill="#63b8ff" stroke="#63b8ff" points="745.15,-246.56 752.75,-239.17 742.2,-240.21 745.15,-246.56"/>
</a>
</g>
</g>
<!-- Node17 -->
<g id="Node000017" class="node">
<title>Node17</title>
<g id="a_Node000017"><a xlink:href="eom-print-image-setup_8h.html" target="_top" xlink:title=" ">
<polygon fill="white" stroke="#666666" points="677.89,-239 538.89,-239 538.89,-220 677.89,-220 677.89,-239"/>
<text text-anchor="middle" x="608.39" y="-227" font-family="Helvetica,sans-Serif" font-size="10.00">eom&#45;print&#45;image&#45;setup.h</text>
</a>
</g>
</g>
<!-- Node1&#45;&gt;Node17 -->
<g id="edge36_Node000001_Node000017" class="edge">
<title>Node1&#45;&gt;Node17</title>
<g id="a_edge36_Node000001_Node000017"><a xlink:title=" ">
<path fill="none" stroke="#63b8ff" d="M649.3,-274.75C642.24,-267.11 631.81,-255.82 623.25,-246.56"/>
<polygon fill="#63b8ff" stroke="#63b8ff" points="625.69,-244.06 616.34,-239.09 620.55,-248.81 625.69,-244.06"/>
</a>
</g>
</g>
<!-- Node18 -->
<g id="Node000018" class="node">
<title>Node18</title>
<g id="a_Node000018"><a xlink:href="eom-util_8h.html" target="_top" xlink:title=" ">
<polygon fill="white" stroke="#666666" points="931.89,-184 864.89,-184 864.89,-165 931.89,-165 931.89,-184"/>
<text text-anchor="middle" x="898.39" y="-172" font-family="Helvetica,sans-Serif" font-size="10.00">eom&#45;util.h</text>
</a>
</g>
</g>
<!-- Node1&#45;&gt;Node18 -->
<g id="edge38_Node000001_Node000018" class="edge">
<title>Node1&#45;&gt;Node18</title>
<g id="a_edge38_Node000001_Node000018"><a xlink:title=" ">
<path fill="none" stroke="#63b8ff" d="M694.05,-282.4C735.16,-279.6 802.35,-270.14 850.39,-239 867.92,-227.64 881.48,-207.56 889.65,-193.02"/>
<polygon fill="#63b8ff" stroke="#63b8ff" points="892.84,-194.49 894.43,-184.01 886.65,-191.21 892.84,-194.49"/>
</a>
</g>
</g>
<!-- Node19 -->
<g id="Node000019" class="node">
<title>Node19</title>
<g id="a_Node000019"><a xlink:href="eom-debug_8h.html" target="_top" xlink:title=" ">
<polygon fill="white" stroke="#666666" points="757.89,-184 676.89,-184 676.89,-165 757.89,-165 757.89,-184"/>
<text text-anchor="middle" x="717.39" y="-172" font-family="Helvetica,sans-Serif" font-size="10.00">eom&#45;debug.h</text>
</a>
</g>
</g>
<!-- Node1&#45;&gt;Node19 -->
<g id="edge40_Node000001_Node000019" class="edge">
<title>Node1&#45;&gt;Node19</title>
<g id="a_edge40_Node000001_Node000019"><a xlink:title=" ">
<path fill="none" stroke="#63b8ff" d="M663.5,-274.83C669.61,-266.01 679.12,-251.83 686.39,-239 694.89,-224.01 703.4,-206.36 709.34,-193.47"/>
<polygon fill="#63b8ff" stroke="#63b8ff" points="712.56,-194.85 713.51,-184.3 706.19,-191.96 712.56,-194.85"/>
</a>
</g>
</g>
<!-- Node6 -->
<g id="Node000006" class="node">
<title>Node6</title>
<g id="a_Node000006"><a xlink:href="eom-jobs_8h.html" target="_top" xlink:title=" ">
<polygon fill="white" stroke="#666666" points="499.89,-129 428.89,-129 428.89,-110 499.89,-110 499.89,-129"/>
<text text-anchor="middle" x="464.39" y="-117" font-family="Helvetica,sans-Serif" font-size="10.00">eom&#45;jobs.h</text>
</a>
</g>
</g>
<!-- Node5&#45;&gt;Node6 -->
<g id="edge5_Node000005_Node000006" class="edge">
<title>Node5&#45;&gt;Node6</title>
<g id="a_edge5_Node000005_Node000006"><a xlink:title=" ">
<path fill="none" stroke="#63b8ff" d="M518.95,-164.98C509.25,-157.07 494.58,-145.11 482.89,-135.58"/>
<polygon fill="#63b8ff" stroke="#63b8ff" points="484.99,-132.78 475.03,-129.17 480.57,-138.2 484.99,-132.78"/>
</a>
</g>
</g>
<!-- Node8 -->
<g id="Node000008" class="node">
<title>Node8</title>
<g id="a_Node000008"><a xlink:title=" ">
<polygon fill="#e0e0e0" stroke="#999999" points="546.89,-19 469.89,-19 469.89,0 546.89,0 546.89,-19"/>
<text text-anchor="middle" x="508.39" y="-7" font-family="Helvetica,sans-Serif" font-size="10.00">glib&#45;object.h</text>
</a>
</g>
</g>
<!-- Node5&#45;&gt;Node8 -->
<g id="edge31_Node000005_Node000008" class="edge">
<title>Node5&#45;&gt;Node8</title>
<g id="a_edge31_Node000005_Node000008"><a xlink:title=" ">
<path fill="none" stroke="#63b8ff" d="M536.14,-164.82C550.87,-144.74 583.14,-93.83 564.39,-55 558.18,-42.12 546.21,-31.82 534.94,-24.38"/>
<polygon fill="#63b8ff" stroke="#63b8ff" points="536.52,-21.25 526.16,-19.04 532.88,-27.23 536.52,-21.25"/>
</a>
</g>
</g>
<!-- Node10 -->
<g id="Node000010" class="node">
<title>Node10</title>
<g id="a_Node000010"><a xlink:href="eom-transform_8h.html" target="_top" xlink:title=" ">
<polygon fill="white" stroke="#666666" points="403.89,-74 304.89,-74 304.89,-55 403.89,-55 403.89,-74"/>
<text text-anchor="middle" x="354.39" y="-62" font-family="Helvetica,sans-Serif" font-size="10.00">eom&#45;transform.h</text>
</a>
</g>
</g>
<!-- Node5&#45;&gt;Node10 -->
<g id="edge24_Node000005_Node000010" class="edge">
<title>Node5&#45;&gt;Node10</title>
<g id="a_edge24_Node000005_Node000010"><a xlink:title=" ">
<path fill="none" stroke="#63b8ff" d="M499.39,-164.88C476.37,-157.45 444.4,-145.35 419.39,-129 399.49,-115.99 380.5,-96.29 368.24,-82.28"/>
<polygon fill="#63b8ff" stroke="#63b8ff" points="370.68,-79.75 361.52,-74.41 365.35,-84.29 370.68,-79.75"/>
</a>
</g>
</g>
<!-- Node11 -->
<g id="Node000011" class="node">
<title>Node11</title>
<g id="a_Node000011"><a xlink:title=" ">
<polygon fill="#e0e0e0" stroke="#999999" points="340.89,-19 207.89,-19 207.89,0 340.89,0 340.89,-19"/>
<text text-anchor="middle" x="274.39" y="-7" font-family="Helvetica,sans-Serif" font-size="10.00">gdk&#45;pixbuf/gdk&#45;pixbuf.h</text>
</a>
</g>
</g>
<!-- Node5&#45;&gt;Node11 -->
<g id="edge32_Node000005_Node000011" class="edge">
<title>Node5&#45;&gt;Node11</title>
<g id="a_edge32_Node000005_Node000011"><a xlink:title=" ">
<path fill="none" stroke="#63b8ff" d="M488.3,-167.72C406.35,-155.24 227.53,-122.88 193.39,-74 177.97,-51.92 208.79,-33.83 236.74,-22.68"/>
<polygon fill="#63b8ff" stroke="#63b8ff" points="238.31,-25.83 246.43,-19.03 235.84,-19.28 238.31,-25.83"/>
</a>
</g>
</g>
<!-- Node12 -->
<g id="Node000012" class="node">
<title>Node12</title>
<g id="a_Node000012"><a xlink:href="eom-enums_8h.html" target="_top" xlink:title=" ">
<polygon fill="white" stroke="#666666" points="286.39,-74 202.39,-74 202.39,-55 286.39,-55 286.39,-74"/>
<text text-anchor="middle" x="244.39" y="-62" font-family="Helvetica,sans-Serif" font-size="10.00">eom&#45;enums.h</text>
</a>
</g>
</g>
<!-- Node5&#45;&gt;Node12 -->
<g id="edge29_Node000005_Node000012" class="edge">
<title>Node5&#45;&gt;Node12</title>
<g id="a_edge29_Node000005_Node000012"><a xlink:title=" ">
<path fill="none" stroke="#63b8ff" d="M500.53,-164.96C472.62,-156.51 429.26,-142.86 392.39,-129 349.84,-113 301.63,-91.7 272.12,-78.3"/>
<polygon fill="#63b8ff" stroke="#63b8ff" points="273.41,-75.04 262.86,-74.07 270.51,-81.41 273.41,-75.04"/>
</a>
</g>
</g>
<!-- Node13 -->
<g id="Node000013" class="node">
<title>Node13</title>
<g id="a_Node000013"><a xlink:title=" ">
<polygon fill="#e0e0e0" stroke="#999999" points="694.39,-74 650.39,-74 650.39,-55 694.39,-55 694.39,-74"/>
<text text-anchor="middle" x="672.39" y="-62" font-family="Helvetica,sans-Serif" font-size="10.00">glib.h</text>
</a>
</g>
</g>
<!-- Node5&#45;&gt;Node13 -->
<g id="edge30_Node000005_Node000013" class="edge">
<title>Node5&#45;&gt;Node13</title>
<g id="a_edge30_Node000005_Node000013"><a xlink:title=" ">
<path fill="none" stroke="#63b8ff" d="M541.1,-164.66C565.62,-146.14 622.64,-103.08 652.83,-80.28"/>
<polygon fill="#63b8ff" stroke="#63b8ff" points="655.06,-82.98 660.93,-74.16 650.84,-77.39 655.06,-82.98"/>
</a>
</g>
</g>
<!-- Node14 -->
<g id="Node000014" class="node">
<title>Node14</title>
<g id="a_Node000014"><a xlink:href="eom-window_8h.html" target="_top" xlink:title=" ">
<polygon fill="white" stroke="#666666" points="716.39,-129 628.39,-129 628.39,-110 716.39,-110 716.39,-129"/>
<text text-anchor="middle" x="672.39" y="-117" font-family="Helvetica,sans-Serif" font-size="10.00">eom&#45;window.h</text>
</a>
</g>
</g>
<!-- Node5&#45;&gt;Node14 -->
<g id="edge18_Node000005_Node000014" class="edge">
<title>Node5&#45;&gt;Node14</title>
<g id="a_edge18_Node000005_Node000014"><a xlink:title=" ">
<path fill="none" stroke="#63b8ff" d="M547.26,-164.98C569.11,-156.16 606.28,-142.31 634.53,-132.41"/>
<polygon fill="#63b8ff" stroke="#63b8ff" points="635.81,-135.67 644.11,-129.08 633.51,-129.05 635.81,-135.67"/>
</a>
</g>
</g>
<!-- Node15 -->
<g id="Node000015" class="node">
<title>Node15</title>
<g id="a_Node000015"><a xlink:href="eom-image-save-info_8h.html" target="_top" xlink:title=" ">
<polygon fill="white" stroke="#666666" points="145.89,-74 14.89,-74 14.89,-55 145.89,-55 145.89,-74"/>
<text text-anchor="middle" x="80.39" y="-62" font-family="Helvetica,sans-Serif" font-size="10.00">eom&#45;image&#45;save&#45;info.h</text>
</a>
</g>
</g>
<!-- Node5&#45;&gt;Node15 -->
<g id="edge25_Node000005_Node000015" class="edge">
<title>Node5&#45;&gt;Node15</title>
<g id="a_edge25_Node000005_Node000015"><a xlink:title=" ">
<path fill="none" stroke="#63b8ff" d="M488.34,-171.36C405,-166.57 218.9,-153.42 160.39,-129 134.71,-118.28 110.45,-96.84 95.52,-81.85"/>
<polygon fill="#63b8ff" stroke="#63b8ff" points="97.7,-79.07 88.24,-74.3 92.66,-83.92 97.7,-79.07"/>
</a>
</g>
</g>
<!-- Node6&#45;&gt;Node3 -->
<g id="edge16_Node000006_Node000003" class="edge">
<title>Node6&#45;&gt;Node3</title>
<g id="a_edge16_Node000006_Node000003"><a xlink:title=" ">
<path fill="none" stroke="#63b8ff" d="M487.5,-109.94C521.22,-97.51 585.92,-73.89 641.39,-55 675.46,-43.4 714.51,-30.88 742.35,-22.08"/>
<polygon fill="#63b8ff" stroke="#63b8ff" points="743.59,-25.36 752.08,-19.02 741.49,-18.69 743.59,-25.36"/>
</a>
</g>
</g>
<!-- Node7 -->
<g id="Node000007" class="node">
<title>Node7</title>
<g id="a_Node000007"><a xlink:href="eom-list-store_8h.html" target="_top" xlink:title=" ">
<polygon fill="white" stroke="#666666" points="555.89,-74 460.89,-74 460.89,-55 555.89,-55 555.89,-74"/>
<text text-anchor="middle" x="508.39" y="-62" font-family="Helvetica,sans-Serif" font-size="10.00">eom&#45;list&#45;store.h</text>
</a>
</g>
</g>
<!-- Node6&#45;&gt;Node7 -->
<g id="edge6_Node000006_Node000007" class="edge">
<title>Node6&#45;&gt;Node7</title>
<g id="a_edge6_Node000006_Node000007"><a xlink:title=" ">
<path fill="none" stroke="#63b8ff" d="M471.66,-109.75C477.94,-102.18 487.18,-91.05 494.83,-81.84"/>
<polygon fill="#63b8ff" stroke="#63b8ff" points="497.57,-84.02 501.26,-74.09 492.18,-79.55 497.57,-84.02"/>
</a>
</g>
</g>
<!-- Node9 -->
<g id="Node000009" class="node">
<title>Node9</title>
<g id="a_Node000009"><a xlink:title=" ">
<polygon fill="#e0e0e0" stroke="#999999" points="109.89,-19 50.89,-19 50.89,0 109.89,0 109.89,-19"/>
<text text-anchor="middle" x="80.39" y="-7" font-family="Helvetica,sans-Serif" font-size="10.00">gio/gio.h</text>
</a>
</g>
</g>
<!-- Node6&#45;&gt;Node9 -->
<g id="edge15_Node000006_Node000009" class="edge">
<title>Node6&#45;&gt;Node9</title>
<g id="a_edge15_Node000006_Node000009"><a xlink:title=" ">
<path fill="none" stroke="#63b8ff" d="M428.73,-117.74C325.8,-115.18 33.71,-105.2 5.39,-74 -12.45,-54.34 19.13,-35.11 46.63,-23.06"/>
<polygon fill="#63b8ff" stroke="#63b8ff" points="48.22,-26.19 56.1,-19.11 45.52,-19.73 48.22,-26.19"/>
</a>
</g>
</g>
<!-- Node6&#45;&gt;Node10 -->
<g id="edge10_Node000006_Node000010" class="edge">
<title>Node6&#45;&gt;Node10</title>
<g id="a_edge10_Node000006_Node000010"><a xlink:title=" ">
<path fill="none" stroke="#63b8ff" d="M446.72,-109.98C429.11,-101.5 401.82,-88.35 381.47,-78.54"/>
<polygon fill="#63b8ff" stroke="#63b8ff" points="382.92,-75.36 372.39,-74.17 379.88,-81.66 382.92,-75.36"/>
</a>
</g>
</g>
<!-- Node6&#45;&gt;Node11 -->
<g id="edge17_Node000006_Node000011" class="edge">
<title>Node6&#45;&gt;Node11</title>
<g id="a_edge17_Node000006_Node000011"><a xlink:title=" ">
<path fill="none" stroke="#63b8ff" d="M459.51,-109.76C451.44,-96.11 434.06,-69.77 412.39,-55 388.69,-38.84 358.75,-28.26 332.82,-21.48"/>
<polygon fill="#63b8ff" stroke="#63b8ff" points="333.65,-18.08 323.1,-19.06 331.96,-24.87 333.65,-18.08"/>
</a>
</g>
</g>
<!-- Node6&#45;&gt;Node12 -->
<g id="edge13_Node000006_Node000012" class="edge">
<title>Node6&#45;&gt;Node12</title>
<g id="a_edge13_Node000006_Node000012"><a xlink:title=" ">
<path fill="none" stroke="#63b8ff" d="M429.05,-109.98C391.23,-100.87 331.13,-86.4 289.83,-76.45"/>
<polygon fill="#63b8ff" stroke="#63b8ff" points="290.56,-73.02 280.02,-74.08 288.92,-79.83 290.56,-73.02"/>
</a>
</g>
</g>
<!-- Node6&#45;&gt;Node13 -->
<g id="edge14_Node000006_Node000013" class="edge">
<title>Node6&#45;&gt;Node13</title>
<g id="a_edge14_Node000006_Node000013"><a xlink:title=" ">
<path fill="none" stroke="#63b8ff" d="M497.81,-109.98C536.97,-100.01 601.39,-83.59 640.07,-73.74"/>
<polygon fill="#63b8ff" stroke="#63b8ff" points="641.42,-77 650.25,-71.14 639.7,-70.22 641.42,-77"/>
</a>
</g>
</g>
<!-- Node7&#45;&gt;Node3 -->
<g id="edge7_Node000007_Node000003" class="edge">
<title>Node7&#45;&gt;Node3</title>
<g id="a_edge7_Node000007_Node000003"><a xlink:title=" ">
<path fill="none" stroke="#63b8ff" d="M551.94,-54.98C603.73,-44.86 689.46,-28.09 739.56,-18.29"/>
<polygon fill="#63b8ff" stroke="#63b8ff" points="740.24,-21.72 749.39,-16.37 738.9,-14.85 740.24,-21.72"/>
</a>
</g>
</g>
<!-- Node7&#45;&gt;Node8 -->
<g id="edge8_Node000007_Node000008" class="edge">
<title>Node7&#45;&gt;Node8</title>
<g id="a_edge8_Node000007_Node000008"><a xlink:title=" ">
<path fill="none" stroke="#63b8ff" d="M508.39,-54.75C508.39,-47.8 508.39,-37.85 508.39,-29.13"/>
<polygon fill="#63b8ff" stroke="#63b8ff" points="511.89,-29.09 508.39,-19.09 504.89,-29.09 511.89,-29.09"/>
</a>
</g>
</g>
<!-- Node7&#45;&gt;Node9 -->
<g id="edge9_Node000007_Node000009" class="edge">
<title>Node7&#45;&gt;Node9</title>
<g id="a_edge9_Node000007_Node000009"><a xlink:title=" ">
<path fill="none" stroke="#63b8ff" d="M460.54,-57.57C375.37,-47.03 199.01,-25.19 120.09,-15.41"/>
<polygon fill="#63b8ff" stroke="#63b8ff" points="120.42,-11.93 110.06,-14.17 119.56,-18.88 120.42,-11.93"/>
</a>
</g>
</g>
<!-- Node10&#45;&gt;Node8 -->
<g id="edge11_Node000010_Node000008" class="edge">
<title>Node10&#45;&gt;Node8</title>
<g id="a_edge11_Node000010_Node000008"><a xlink:title=" ">
<path fill="none" stroke="#63b8ff" d="M379.14,-54.98C404.77,-46.16 445.03,-32.31 473.8,-22.41"/>
<polygon fill="#63b8ff" stroke="#63b8ff" points="475.14,-25.65 483.46,-19.08 472.86,-19.03 475.14,-25.65"/>
</a>
</g>
</g>
<!-- Node10&#45;&gt;Node11 -->
<g id="edge12_Node000010_Node000011" class="edge">
<title>Node10&#45;&gt;Node11</title>
<g id="a_edge12_Node000010_Node000011"><a xlink:title=" ">
<path fill="none" stroke="#63b8ff" d="M341.54,-54.98C329.25,-46.84 310.49,-34.41 295.92,-24.76"/>
<polygon fill="#63b8ff" stroke="#63b8ff" points="297.75,-21.78 287.48,-19.17 293.89,-27.61 297.75,-21.78"/>
</a>
</g>
</g>
<!-- Node14&#45;&gt;Node3 -->
<g id="edge23_Node000014_Node000003" class="edge">
<title>Node14&#45;&gt;Node3</title>
<g id="a_edge23_Node000014_Node000003"><a xlink:title=" ">
<path fill="none" stroke="#63b8ff" d="M687.8,-110C701.56,-101.92 721.75,-88.83 736.39,-74 750.1,-60.13 762.19,-41.35 770.04,-27.81"/>
<polygon fill="#63b8ff" stroke="#63b8ff" points="773.13,-29.46 774.96,-19.03 767.02,-26.04 773.13,-29.46"/>
</a>
</g>
</g>
<!-- Node14&#45;&gt;Node5 -->
<g id="edge20_Node000014_Node000005" class="edge">
<title>Node14&#45;&gt;Node5</title>
<g id="a_edge20_Node000014_Node000005"><a xlink:title=" ">
<path fill="none" stroke="#63b8ff" d="M654.15,-129.17C632.18,-138.02 595.13,-151.83 567.02,-161.68"/>
<polygon fill="#63b8ff" stroke="#63b8ff" points="565.79,-158.4 557.48,-164.98 568.08,-165.02 565.79,-158.4"/>
</a>
</g>
</g>
<!-- Node14&#45;&gt;Node7 -->
<g id="edge19_Node000014_Node000007" class="edge">
<title>Node14&#45;&gt;Node7</title>
<g id="a_edge19_Node000014_Node000007"><a xlink:title=" ">
<path fill="none" stroke="#63b8ff" d="M646.05,-109.98C618.63,-101.13 575.5,-87.19 544.83,-77.28"/>
<polygon fill="#63b8ff" stroke="#63b8ff" points="545.54,-73.83 534.95,-74.08 543.39,-80.49 545.54,-73.83"/>
</a>
</g>
</g>
<!-- Node14&#45;&gt;Node8 -->
<g id="edge22_Node000014_Node000008" class="edge">
<title>Node14&#45;&gt;Node8</title>
<g id="a_edge22_Node000014_Node000008"><a xlink:title=" ">
<path fill="none" stroke="#63b8ff" d="M682.61,-109.6C696.24,-96.64 717.16,-72.26 703.39,-55 685.43,-32.48 608.83,-20.45 557.15,-14.78"/>
<polygon fill="#63b8ff" stroke="#63b8ff" points="557.48,-11.3 547.17,-13.73 556.75,-18.26 557.48,-11.3"/>
</a>
</g>
</g>
<!-- Node14&#45;&gt;Node13 -->
<g id="edge21_Node000014_Node000013" class="edge">
<title>Node14&#45;&gt;Node13</title>
<g id="a_edge21_Node000014_Node000013"><a xlink:title=" ">
<path fill="none" stroke="#63b8ff" d="M672.39,-109.75C672.39,-102.8 672.39,-92.85 672.39,-84.13"/>
<polygon fill="#63b8ff" stroke="#63b8ff" points="675.89,-84.09 672.39,-74.09 668.89,-84.09 675.89,-84.09"/>
</a>
</g>
</g>
<!-- Node15&#45;&gt;Node8 -->
<g id="edge26_Node000015_Node000008" class="edge">
<title>Node15&#45;&gt;Node8</title>
<g id="a_edge26_Node000015_Node000008"><a xlink:title=" ">
<path fill="none" stroke="#63b8ff" d="M146.33,-55.33C232.78,-44.63 382.45,-26.1 459.48,-16.56"/>
<polygon fill="#63b8ff" stroke="#63b8ff" points="460.36,-19.98 469.85,-15.27 459.5,-13.03 460.36,-19.98"/>
</a>
</g>
</g>
<!-- Node15&#45;&gt;Node9 -->
<g id="edge27_Node000015_Node000009" class="edge">
<title>Node15&#45;&gt;Node9</title>
<g id="a_edge27_Node000015_Node000009"><a xlink:title=" ">
<path fill="none" stroke="#63b8ff" d="M80.39,-54.75C80.39,-47.8 80.39,-37.85 80.39,-29.13"/>
<polygon fill="#63b8ff" stroke="#63b8ff" points="83.89,-29.09 80.39,-19.09 76.89,-29.09 83.89,-29.09"/>
</a>
</g>
</g>
<!-- Node15&#45;&gt;Node11 -->
<g id="edge28_Node000015_Node000011" class="edge">
<title>Node15&#45;&gt;Node11</title>
<g id="a_edge28_Node000015_Node000011"><a xlink:title=" ">
<path fill="none" stroke="#63b8ff" d="M111.56,-54.98C144.56,-45.97 196.79,-31.7 233.17,-21.76"/>
<polygon fill="#63b8ff" stroke="#63b8ff" points="234.26,-25.09 242.98,-19.08 232.41,-18.34 234.26,-25.09"/>
</a>
</g>
</g>
<!-- Node16&#45;&gt;Node3 -->
<g id="edge35_Node000016_Node000003" class="edge">
<title>Node16&#45;&gt;Node3</title>
<g id="a_edge35_Node000016_Node000003"><a xlink:title=" ">
<path fill="none" stroke="#63b8ff" d="M771.71,-219.95C772.88,-187.95 777.04,-74.68 778.7,-29.4"/>
<polygon fill="#63b8ff" stroke="#63b8ff" points="782.21,-29.35 779.07,-19.22 775.21,-29.09 782.21,-29.35"/>
</a>
</g>
</g>
<!-- Node16&#45;&gt;Node5 -->
<g id="edge34_Node000016_Node000005" class="edge">
<title>Node16&#45;&gt;Node5</title>
<g id="a_edge34_Node000016_Node000005"><a xlink:title=" ">
<path fill="none" stroke="#63b8ff" d="M734.38,-220.39C692.56,-211.23 624.34,-196.29 578.2,-186.19"/>
<polygon fill="#63b8ff" stroke="#63b8ff" points="578.93,-182.77 568.41,-184.05 577.43,-189.6 578.93,-182.77"/>
</a>
</g>
</g>
<!-- Node17&#45;&gt;Node5 -->
<g id="edge37_Node000017_Node000005" class="edge">
<title>Node17&#45;&gt;Node5</title>
<g id="a_edge37_Node000017_Node000005"><a xlink:title=" ">
<path fill="none" stroke="#63b8ff" d="M595.7,-219.98C583.57,-211.84 565.04,-199.41 550.65,-189.76"/>
<polygon fill="#63b8ff" stroke="#63b8ff" points="552.57,-186.84 542.32,-184.17 548.67,-192.65 552.57,-186.84"/>
</a>
</g>
</g>
<!-- Node18&#45;&gt;Node3 -->
<g id="edge39_Node000018_Node000003" class="edge">
<title>Node18&#45;&gt;Node3</title>
<g id="a_edge39_Node000018_Node000003"><a xlink:title=" ">
<path fill="none" stroke="#63b8ff" d="M896.8,-164.8C892.57,-143.81 879.35,-89.52 850.39,-55 839.31,-41.78 823.25,-31.25 809.21,-23.77"/>
<polygon fill="#63b8ff" stroke="#63b8ff" points="810.4,-20.45 799.9,-19.07 807.25,-26.7 810.4,-20.45"/>
</a>
</g>
</g>
<!-- Node19&#45;&gt;Node13 -->
<g id="edge41_Node000019_Node000013" class="edge">
<title>Node19&#45;&gt;Node13</title>
<g id="a_edge41_Node000019_Node000013"><a xlink:title=" ">
<path fill="none" stroke="#63b8ff" d="M721.33,-164.83C726.46,-152.16 733.84,-128.13 725.39,-110 719.57,-97.49 708.3,-87.25 697.65,-79.76"/>
<polygon fill="#63b8ff" stroke="#63b8ff" points="699.27,-76.64 688.98,-74.13 695.46,-82.51 699.27,-76.64"/>
</a>
</g>
</g>
</g>
</svg>
