<?xml version="1.0" encoding="UTF-8" standalone="no"?>
<!DOCTYPE svg PUBLIC "-//W3C//DTD SVG 1.1//EN"
 "http://www.w3.org/Graphics/SVG/1.1/DTD/svg11.dtd">
<!-- Generated by graphviz version 2.43.0 (0)
 -->
<!-- Title: eom&#45;print.h Pages: 1 -->
<!--zoomable 247 -->

<svg id="main" version="1.1" xmlns="http://www.w3.org/2000/svg" xmlns:xlink="http://www.w3.org/1999/xlink" xml:space="preserve" onload="init(evt)">
<style type="text/css"><![CDATA[
.node, .edge {opacity: 0.7;}
.node.selected, .edge.selected {opacity: 1;}
.edge:hover path { stroke: red; }
.edge:hover polygon { stroke: red; fill: red; }
]]></style>

<defs>
  <circle id="rim" cx="0" cy="0" r="7"/>
  <circle id="rim2" cx="0" cy="0" r="3.5"/>
  <g id="zoomPlus">
    <use xlink:href="#rim" fill="#404040"><set attributeName="fill" to="#808080" begin="zoomplus.mouseover" end="zoomplus.mouseout"/></use>
    <path d="M-4,0h8M0,-4v8" fill="none" stroke="white" stroke-width="1.5" pointer-events="none"/>
  </g>
  <g id="zoomMin">
    <use xlink:href="#rim" fill="#404040"><set attributeName="fill" to="#808080" begin="zoomminus.mouseover" end="zoomminus.mouseout"/></use>
    <path d="M-4,0h8" fill="none" stroke="white" stroke-width="1.5" pointer-events="none"/>
  </g>
  <g id="arrowUp" transform="translate(30 24)">
    <use xlink:href="#rim"/>
    <path pointer-events="none" fill="none" stroke="white" stroke-width="1.5" d="M0,-3.0v7 M-2.5,-0.5L0,-3.0L2.5,-0.5"/>
  </g>
  <g id="arrowRight" transform="rotate(90) translate(36 -43)">
    <use xlink:href="#rim"/>
    <path pointer-events="none" fill="none" stroke="white" stroke-width="1.5" d="M0,-3.0v7 M-2.5,-0.5L0,-3.0L2.5,-0.5"/>
  </g>
  <g id="arrowDown" transform="rotate(180) translate(-30 -48)">
    <use xlink:href="#rim"/>
    <path pointer-events="none" fill="none" stroke="white" stroke-width="1.5" d="M0,-3.0v7 M-2.5,-0.5L0,-3.0L2.5,-0.5"/>
  </g>
  <g id="arrowLeft" transform="rotate(270) translate(-36 17)">
    <use xlink:href="#rim"/>
    <path pointer-events="none" fill="none" stroke="white" stroke-width="1.5" d="M0,-3.0v7 M-2.5,-0.5L0,-3.0L2.5,-0.5"/>
  </g>
  <g id="resetDef">
    <use xlink:href="#rim2" fill="#404040"><set attributeName="fill" to="#808080" begin="reset.mouseover" end="reset.mouseout"/></use>
  </g>
</defs>
<script type="application/ecmascript">
var viewWidth = 736;
var viewHeight = 247;
var sectionId = 'dynsection-0';
</script>
<script type="application/ecmascript" xlink:href="svg.min.js"/>
<svg id="graph" class="graph">
<g id="viewport">
<title>eom&#45;print.h</title>
<!-- Node1 -->
<g id="Node000001" class="node">
<title>Node1</title>
<g id="a_Node000001"><a xlink:title=" ">
<polygon fill="#999999" stroke="#666666" points="601.61,-239 527.61,-239 527.61,-220 601.61,-220 601.61,-239"/>
<text text-anchor="middle" x="564.61" y="-227" font-family="Helvetica,sans-Serif" font-size="10.00">eom&#45;print.h</text>
</a>
</g>
</g>
<!-- Node2 -->
<g id="Node000002" class="node">
<title>Node2</title>
<g id="a_Node000002"><a xlink:href="eom-image_8h.html" target="_top" xlink:title=" ">
<polygon fill="white" stroke="#666666" points="422.61,-184 340.61,-184 340.61,-165 422.61,-165 422.61,-184"/>
<text text-anchor="middle" x="381.61" y="-172" font-family="Helvetica,sans-Serif" font-size="10.00">eom&#45;image.h</text>
</a>
</g>
</g>
<!-- Node1&#45;&gt;Node2 -->
<g id="edge1_Node000001_Node000002" class="edge">
<title>Node1&#45;&gt;Node2</title>
<g id="a_edge1_Node000001_Node000002"><a xlink:title=" ">
<path fill="none" stroke="#63b8ff" d="M535.21,-219.98C504.22,-211.01 455.24,-196.82 420.94,-186.89"/>
<polygon fill="#63b8ff" stroke="#63b8ff" points="421.82,-183.5 411.24,-184.08 419.88,-190.23 421.82,-183.5"/>
</a>
</g>
</g>
<!-- Node5 -->
<g id="Node000005" class="node">
<title>Node5</title>
<g id="a_Node000005"><a xlink:title=" ">
<polygon fill="#e0e0e0" stroke="#999999" points="708.61,-19 648.61,-19 648.61,0 708.61,0 708.61,-19"/>
<text text-anchor="middle" x="678.61" y="-7" font-family="Helvetica,sans-Serif" font-size="10.00">gtk/gtk.h</text>
</a>
</g>
</g>
<!-- Node1&#45;&gt;Node5 -->
<g id="edge30_Node000001_Node000005" class="edge">
<title>Node1&#45;&gt;Node5</title>
<g id="a_edge30_Node000001_Node000005"><a xlink:title=" ">
<path fill="none" stroke="#63b8ff" d="M579.74,-219.94C613.65,-199.75 695.15,-145.45 725.61,-74 733.51,-55.48 716.89,-37.32 701.28,-25.19"/>
<polygon fill="#63b8ff" stroke="#63b8ff" points="703.02,-22.14 692.87,-19.11 698.92,-27.81 703.02,-22.14"/>
</a>
</g>
</g>
<!-- Node3 -->
<g id="Node000003" class="node">
<title>Node3</title>
<g id="a_Node000003"><a xlink:href="eom-jobs_8h.html" target="_top" xlink:title=" ">
<polygon fill="white" stroke="#666666" points="449.11,-129 378.11,-129 378.11,-110 449.11,-110 449.11,-129"/>
<text text-anchor="middle" x="413.61" y="-117" font-family="Helvetica,sans-Serif" font-size="10.00">eom&#45;jobs.h</text>
</a>
</g>
</g>
<!-- Node2&#45;&gt;Node3 -->
<g id="edge2_Node000002_Node000003" class="edge">
<title>Node2&#45;&gt;Node3</title>
<g id="a_edge2_Node000002_Node000003"><a xlink:title=" ">
<path fill="none" stroke="#63b8ff" d="M386.9,-164.75C391.32,-157.42 397.78,-146.73 403.23,-137.7"/>
<polygon fill="#63b8ff" stroke="#63b8ff" points="406.25,-139.46 408.43,-129.09 400.26,-135.84 406.25,-139.46"/>
</a>
</g>
</g>
<!-- Node6 -->
<g id="Node000006" class="node">
<title>Node6</title>
<g id="a_Node000006"><a xlink:title=" ">
<polygon fill="#e0e0e0" stroke="#999999" points="243.11,-19 166.11,-19 166.11,0 243.11,0 243.11,-19"/>
<text text-anchor="middle" x="204.61" y="-7" font-family="Helvetica,sans-Serif" font-size="10.00">glib&#45;object.h</text>
</a>
</g>
</g>
<!-- Node2&#45;&gt;Node6 -->
<g id="edge28_Node000002_Node000006" class="edge">
<title>Node2&#45;&gt;Node6</title>
<g id="a_edge28_Node000002_Node000006"><a xlink:title=" ">
<path fill="none" stroke="#63b8ff" d="M340.46,-168.7C252.78,-157.52 52.3,-126.65 12.61,-74 7.53,-67.26 7.36,-61.61 12.61,-55 21.59,-43.71 102.05,-27.98 155.92,-18.57"/>
<polygon fill="#63b8ff" stroke="#63b8ff" points="156.73,-21.98 165.98,-16.83 155.53,-15.08 156.73,-21.98"/>
</a>
</g>
</g>
<!-- Node8 -->
<g id="Node000008" class="node">
<title>Node8</title>
<g id="a_Node000008"><a xlink:href="eom-transform_8h.html" target="_top" xlink:title=" ">
<polygon fill="white" stroke="#666666" points="121.11,-74 22.11,-74 22.11,-55 121.11,-55 121.11,-74"/>
<text text-anchor="middle" x="71.61" y="-62" font-family="Helvetica,sans-Serif" font-size="10.00">eom&#45;transform.h</text>
</a>
</g>
</g>
<!-- Node2&#45;&gt;Node8 -->
<g id="edge21_Node000002_Node000008" class="edge">
<title>Node2&#45;&gt;Node8</title>
<g id="a_edge21_Node000002_Node000008"><a xlink:title=" ">
<path fill="none" stroke="#63b8ff" d="M357.03,-164.94C301.97,-145.76 168.69,-99.32 105.68,-77.37"/>
<polygon fill="#63b8ff" stroke="#63b8ff" points="106.79,-74.05 96.2,-74.07 104.49,-80.66 106.79,-74.05"/>
</a>
</g>
</g>
<!-- Node9 -->
<g id="Node000009" class="node">
<title>Node9</title>
<g id="a_Node000009"><a xlink:title=" ">
<polygon fill="#e0e0e0" stroke="#999999" points="143.11,-19 10.11,-19 10.11,0 143.11,0 143.11,-19"/>
<text text-anchor="middle" x="76.61" y="-7" font-family="Helvetica,sans-Serif" font-size="10.00">gdk&#45;pixbuf/gdk&#45;pixbuf.h</text>
</a>
</g>
</g>
<!-- Node2&#45;&gt;Node9 -->
<g id="edge29_Node000002_Node000009" class="edge">
<title>Node2&#45;&gt;Node9</title>
<g id="a_edge29_Node000002_Node000009"><a xlink:title=" ">
<path fill="none" stroke="#63b8ff" d="M340.39,-170.62C266.64,-164.98 115.34,-151.07 67.61,-129 28.67,-110.99 -15.16,-92.54 5.61,-55 13.45,-40.83 27.9,-30.57 41.72,-23.5"/>
<polygon fill="#63b8ff" stroke="#63b8ff" points="43.54,-26.52 51.11,-19.1 40.57,-20.18 43.54,-26.52"/>
</a>
</g>
</g>
<!-- Node10 -->
<g id="Node000010" class="node">
<title>Node10</title>
<g id="a_Node000010"><a xlink:href="eom-enums_8h.html" target="_top" xlink:title=" ">
<polygon fill="white" stroke="#666666" points="372.61,-74 288.61,-74 288.61,-55 372.61,-55 372.61,-74"/>
<text text-anchor="middle" x="330.61" y="-62" font-family="Helvetica,sans-Serif" font-size="10.00">eom&#45;enums.h</text>
</a>
</g>
</g>
<!-- Node2&#45;&gt;Node10 -->
<g id="edge26_Node000002_Node000010" class="edge">
<title>Node2&#45;&gt;Node10</title>
<g id="a_edge26_Node000002_Node000010"><a xlink:title=" ">
<path fill="none" stroke="#63b8ff" d="M377.44,-164.66C369.07,-146.93 350.08,-106.73 339.03,-83.32"/>
<polygon fill="#63b8ff" stroke="#63b8ff" points="342.14,-81.71 334.7,-74.16 335.81,-84.7 342.14,-81.71"/>
</a>
</g>
</g>
<!-- Node11 -->
<g id="Node000011" class="node">
<title>Node11</title>
<g id="a_Node000011"><a xlink:title=" ">
<polygon fill="#e0e0e0" stroke="#999999" points="700.61,-74 656.61,-74 656.61,-55 700.61,-55 700.61,-74"/>
<text text-anchor="middle" x="678.61" y="-62" font-family="Helvetica,sans-Serif" font-size="10.00">glib.h</text>
</a>
</g>
</g>
<!-- Node2&#45;&gt;Node11 -->
<g id="edge27_Node000002_Node000011" class="edge">
<title>Node2&#45;&gt;Node11</title>
<g id="a_edge27_Node000002_Node000011"><a xlink:title=" ">
<path fill="none" stroke="#63b8ff" d="M422.86,-168.39C463.61,-162.38 527.13,-150.4 578.61,-129 609.08,-116.34 640.63,-94.61 659.95,-80.15"/>
<polygon fill="#63b8ff" stroke="#63b8ff" points="662.08,-82.92 667.91,-74.07 657.84,-77.35 662.08,-82.92"/>
</a>
</g>
</g>
<!-- Node12 -->
<g id="Node000012" class="node">
<title>Node12</title>
<g id="a_Node000012"><a xlink:href="eom-window_8h.html" target="_top" xlink:title=" ">
<polygon fill="white" stroke="#666666" points="569.61,-129 481.61,-129 481.61,-110 569.61,-110 569.61,-129"/>
<text text-anchor="middle" x="525.61" y="-117" font-family="Helvetica,sans-Serif" font-size="10.00">eom&#45;window.h</text>
</a>
</g>
</g>
<!-- Node2&#45;&gt;Node12 -->
<g id="edge15_Node000002_Node000012" class="edge">
<title>Node2&#45;&gt;Node12</title>
<g id="a_edge15_Node000002_Node000012"><a xlink:title=" ">
<path fill="none" stroke="#63b8ff" d="M399.63,-164.98C421.65,-156.16 459.09,-142.31 487.52,-132.41"/>
<polygon fill="#63b8ff" stroke="#63b8ff" points="488.85,-135.65 497.17,-129.08 486.57,-129.03 488.85,-135.65"/>
</a>
</g>
</g>
<!-- Node13 -->
<g id="Node000013" class="node">
<title>Node13</title>
<g id="a_Node000013"><a xlink:href="eom-image-save-info_8h.html" target="_top" xlink:title=" ">
<polygon fill="white" stroke="#666666" points="270.11,-74 139.11,-74 139.11,-55 270.11,-55 270.11,-74"/>
<text text-anchor="middle" x="204.61" y="-62" font-family="Helvetica,sans-Serif" font-size="10.00">eom&#45;image&#45;save&#45;info.h</text>
</a>
</g>
</g>
<!-- Node2&#45;&gt;Node13 -->
<g id="edge22_Node000002_Node000013" class="edge">
<title>Node2&#45;&gt;Node13</title>
<g id="a_edge22_Node000002_Node000013"><a xlink:title=" ">
<path fill="none" stroke="#63b8ff" d="M367.43,-164.84C336.87,-146.2 264.62,-102.11 227.5,-79.46"/>
<polygon fill="#63b8ff" stroke="#63b8ff" points="229.22,-76.42 218.86,-74.2 225.58,-82.39 229.22,-76.42"/>
</a>
</g>
</g>
<!-- Node4 -->
<g id="Node000004" class="node">
<title>Node4</title>
<g id="a_Node000004"><a xlink:href="eom-list-store_8h.html" target="_top" xlink:title=" ">
<polygon fill="white" stroke="#666666" points="600.11,-74 505.11,-74 505.11,-55 600.11,-55 600.11,-74"/>
<text text-anchor="middle" x="552.61" y="-62" font-family="Helvetica,sans-Serif" font-size="10.00">eom&#45;list&#45;store.h</text>
</a>
</g>
</g>
<!-- Node3&#45;&gt;Node4 -->
<g id="edge3_Node000003_Node000004" class="edge">
<title>Node3&#45;&gt;Node4</title>
<g id="a_edge3_Node000003_Node000004"><a xlink:title=" ">
<path fill="none" stroke="#63b8ff" d="M435.94,-109.98C458.81,-101.27 494.57,-87.63 520.47,-77.75"/>
<polygon fill="#63b8ff" stroke="#63b8ff" points="521.78,-81 529.87,-74.17 519.28,-74.46 521.78,-81"/>
</a>
</g>
</g>
<!-- Node3&#45;&gt;Node5 -->
<g id="edge13_Node000003_Node000005" class="edge">
<title>Node3&#45;&gt;Node5</title>
<g id="a_edge13_Node000003_Node000005"><a xlink:title=" ">
<path fill="none" stroke="#63b8ff" d="M449.45,-112.65C498.1,-104.31 582.12,-88.44 609.61,-74 631.78,-62.36 652.22,-41.78 665,-27.21"/>
<polygon fill="#63b8ff" stroke="#63b8ff" points="667.8,-29.33 671.6,-19.44 662.46,-24.8 667.8,-29.33"/>
</a>
</g>
</g>
<!-- Node7 -->
<g id="Node000007" class="node">
<title>Node7</title>
<g id="a_Node000007"><a xlink:title=" ">
<polygon fill="#e0e0e0" stroke="#999999" points="468.11,-19 409.11,-19 409.11,0 468.11,0 468.11,-19"/>
<text text-anchor="middle" x="438.61" y="-7" font-family="Helvetica,sans-Serif" font-size="10.00">gio/gio.h</text>
</a>
</g>
</g>
<!-- Node3&#45;&gt;Node7 -->
<g id="edge12_Node000003_Node000007" class="edge">
<title>Node3&#45;&gt;Node7</title>
<g id="a_edge12_Node000003_Node000007"><a xlink:title=" ">
<path fill="none" stroke="#63b8ff" d="M415.66,-109.66C419.72,-92.09 428.9,-52.45 434.34,-28.95"/>
<polygon fill="#63b8ff" stroke="#63b8ff" points="437.76,-29.69 436.61,-19.16 430.94,-28.11 437.76,-29.69"/>
</a>
</g>
</g>
<!-- Node3&#45;&gt;Node8 -->
<g id="edge7_Node000003_Node000008" class="edge">
<title>Node3&#45;&gt;Node8</title>
<g id="a_edge7_Node000003_Node000008"><a xlink:title=" ">
<path fill="none" stroke="#63b8ff" d="M377.98,-112.98C319.52,-103.92 202.64,-85.81 131.35,-74.76"/>
<polygon fill="#63b8ff" stroke="#63b8ff" points="131.59,-71.25 121.17,-73.18 130.52,-78.17 131.59,-71.25"/>
</a>
</g>
</g>
<!-- Node3&#45;&gt;Node9 -->
<g id="edge14_Node000003_Node000009" class="edge">
<title>Node3&#45;&gt;Node9</title>
<g id="a_edge14_Node000003_Node000009"><a xlink:title=" ">
<path fill="none" stroke="#63b8ff" d="M411.92,-109.86C408.69,-95.86 400.24,-68.42 381.61,-55 372.39,-48.35 240.89,-30.91 153.6,-19.94"/>
<polygon fill="#63b8ff" stroke="#63b8ff" points="153.8,-16.44 143.45,-18.67 152.93,-23.38 153.8,-16.44"/>
</a>
</g>
</g>
<!-- Node3&#45;&gt;Node10 -->
<g id="edge10_Node000003_Node000010" class="edge">
<title>Node3&#45;&gt;Node10</title>
<g id="a_edge10_Node000003_Node000010"><a xlink:title=" ">
<path fill="none" stroke="#63b8ff" d="M400.28,-109.98C387.53,-101.84 368.06,-89.41 352.94,-79.76"/>
<polygon fill="#63b8ff" stroke="#63b8ff" points="354.5,-76.6 344.19,-74.17 350.73,-82.5 354.5,-76.6"/>
</a>
</g>
</g>
<!-- Node3&#45;&gt;Node11 -->
<g id="edge11_Node000003_Node000011" class="edge">
<title>Node3&#45;&gt;Node11</title>
<g id="a_edge11_Node000003_Node000011"><a xlink:title=" ">
<path fill="none" stroke="#63b8ff" d="M449.4,-112C494.55,-103.7 574.51,-88.65 642.61,-74 643.88,-73.73 645.18,-73.44 646.49,-73.15"/>
<polygon fill="#63b8ff" stroke="#63b8ff" points="647.59,-76.49 656.56,-70.85 646.03,-69.67 647.59,-76.49"/>
</a>
</g>
</g>
<!-- Node4&#45;&gt;Node5 -->
<g id="edge4_Node000004_Node000005" class="edge">
<title>Node4&#45;&gt;Node5</title>
<g id="a_edge4_Node000004_Node000005"><a xlink:title=" ">
<path fill="none" stroke="#63b8ff" d="M572.86,-54.98C593.31,-46.38 625.14,-32.99 648.54,-23.15"/>
<polygon fill="#63b8ff" stroke="#63b8ff" points="650.14,-26.27 658,-19.17 647.42,-19.82 650.14,-26.27"/>
</a>
</g>
</g>
<!-- Node4&#45;&gt;Node6 -->
<g id="edge5_Node000004_Node000006" class="edge">
<title>Node4&#45;&gt;Node6</title>
<g id="a_edge5_Node000004_Node000006"><a xlink:title=" ">
<path fill="none" stroke="#63b8ff" d="M504.95,-56.24C438.87,-46.18 320.03,-28.08 253.37,-17.93"/>
<polygon fill="#63b8ff" stroke="#63b8ff" points="253.55,-14.41 243.13,-16.37 252.49,-21.33 253.55,-14.41"/>
</a>
</g>
</g>
<!-- Node4&#45;&gt;Node7 -->
<g id="edge6_Node000004_Node000007" class="edge">
<title>Node4&#45;&gt;Node7</title>
<g id="a_edge6_Node000004_Node000007"><a xlink:title=" ">
<path fill="none" stroke="#63b8ff" d="M534.3,-54.98C515.96,-46.46 487.5,-33.23 466.38,-23.41"/>
<polygon fill="#63b8ff" stroke="#63b8ff" points="467.8,-20.21 457.26,-19.17 464.85,-26.56 467.8,-20.21"/>
</a>
</g>
</g>
<!-- Node8&#45;&gt;Node6 -->
<g id="edge8_Node000008_Node000006" class="edge">
<title>Node8&#45;&gt;Node6</title>
<g id="a_edge8_Node000008_Node000006"><a xlink:title=" ">
<path fill="none" stroke="#63b8ff" d="M92.98,-54.98C114.76,-46.3 148.77,-32.75 173.53,-22.88"/>
<polygon fill="#63b8ff" stroke="#63b8ff" points="174.86,-26.12 182.85,-19.17 172.27,-19.62 174.86,-26.12"/>
</a>
</g>
</g>
<!-- Node8&#45;&gt;Node9 -->
<g id="edge9_Node000008_Node000009" class="edge">
<title>Node8&#45;&gt;Node9</title>
<g id="a_edge9_Node000008_Node000009"><a xlink:title=" ">
<path fill="none" stroke="#63b8ff" d="M72.44,-54.75C73.09,-47.8 74.03,-37.85 74.85,-29.13"/>
<polygon fill="#63b8ff" stroke="#63b8ff" points="78.35,-29.37 75.8,-19.09 71.38,-28.72 78.35,-29.37"/>
</a>
</g>
</g>
<!-- Node12&#45;&gt;Node2 -->
<g id="edge17_Node000012_Node000002" class="edge">
<title>Node12&#45;&gt;Node2</title>
<g id="a_edge17_Node000012_Node000002"><a xlink:title=" ">
<path fill="none" stroke="#63b8ff" d="M507.2,-129.17C485.07,-138.02 447.75,-151.83 419.46,-161.68"/>
<polygon fill="#63b8ff" stroke="#63b8ff" points="418.18,-158.42 409.86,-164.98 420.46,-165.04 418.18,-158.42"/>
</a>
</g>
</g>
<!-- Node12&#45;&gt;Node4 -->
<g id="edge16_Node000012_Node000004" class="edge">
<title>Node12&#45;&gt;Node4</title>
<g id="a_edge16_Node000012_Node000004"><a xlink:title=" ">
<path fill="none" stroke="#63b8ff" d="M530.07,-109.75C533.73,-102.57 539.02,-92.18 543.56,-83.27"/>
<polygon fill="#63b8ff" stroke="#63b8ff" points="546.82,-84.59 548.24,-74.09 540.58,-81.41 546.82,-84.59"/>
</a>
</g>
</g>
<!-- Node12&#45;&gt;Node5 -->
<g id="edge20_Node000012_Node000005" class="edge">
<title>Node12&#45;&gt;Node5</title>
<g id="a_edge20_Node000012_Node000005"><a xlink:title=" ">
<path fill="none" stroke="#63b8ff" d="M569.84,-114.03C618.63,-108.08 692.54,-95.69 709.61,-74 721.03,-59.49 708.31,-40.1 695.89,-26.58"/>
<polygon fill="#63b8ff" stroke="#63b8ff" points="698.31,-24.05 688.8,-19.38 693.32,-28.96 698.31,-24.05"/>
</a>
</g>
</g>
<!-- Node12&#45;&gt;Node6 -->
<g id="edge19_Node000012_Node000006" class="edge">
<title>Node12&#45;&gt;Node6</title>
<g id="a_edge19_Node000012_Node000006"><a xlink:title=" ">
<path fill="none" stroke="#63b8ff" d="M513.59,-109.93C493.87,-96.28 452.99,-69.63 414.61,-55 361.26,-34.66 296.55,-22.73 253.18,-16.42"/>
<polygon fill="#63b8ff" stroke="#63b8ff" points="253.57,-12.94 243.18,-15.01 252.6,-19.88 253.57,-12.94"/>
</a>
</g>
</g>
<!-- Node12&#45;&gt;Node11 -->
<g id="edge18_Node000012_Node000011" class="edge">
<title>Node12&#45;&gt;Node11</title>
<g id="a_edge18_Node000012_Node000011"><a xlink:title=" ">
<path fill="none" stroke="#63b8ff" d="M550.19,-109.98C576.49,-100.88 618.28,-86.4 647.01,-76.45"/>
<polygon fill="#63b8ff" stroke="#63b8ff" points="648.27,-79.71 656.57,-73.13 645.98,-73.1 648.27,-79.71"/>
</a>
</g>
</g>
<!-- Node13&#45;&gt;Node6 -->
<g id="edge23_Node000013_Node000006" class="edge">
<title>Node13&#45;&gt;Node6</title>
<g id="a_edge23_Node000013_Node000006"><a xlink:title=" ">
<path fill="none" stroke="#63b8ff" d="M204.61,-54.75C204.61,-47.8 204.61,-37.85 204.61,-29.13"/>
<polygon fill="#63b8ff" stroke="#63b8ff" points="208.11,-29.09 204.61,-19.09 201.11,-29.09 208.11,-29.09"/>
</a>
</g>
</g>
<!-- Node13&#45;&gt;Node7 -->
<g id="edge24_Node000013_Node000007" class="edge">
<title>Node13&#45;&gt;Node7</title>
<g id="a_edge24_Node000013_Node000007"><a xlink:title=" ">
<path fill="none" stroke="#63b8ff" d="M242.21,-54.98C285.15,-45.26 355.1,-29.42 398.9,-19.49"/>
<polygon fill="#63b8ff" stroke="#63b8ff" points="399.92,-22.85 408.9,-17.23 398.38,-16.02 399.92,-22.85"/>
</a>
</g>
</g>
<!-- Node13&#45;&gt;Node9 -->
<g id="edge25_Node000013_Node000009" class="edge">
<title>Node13&#45;&gt;Node9</title>
<g id="a_edge25_Node000013_Node000009"><a xlink:title=" ">
<path fill="none" stroke="#63b8ff" d="M184.05,-54.98C163.18,-46.34 130.64,-32.87 106.84,-23.02"/>
<polygon fill="#63b8ff" stroke="#63b8ff" points="108.13,-19.76 97.55,-19.17 105.45,-26.23 108.13,-19.76"/>
</a>
</g>
</g>
</g>
</svg>

<g id="navigator" transform="translate(0 0)" fill="#404254">
  <rect fill="#f2f5e9" fill-opacity="0.5" stroke="#606060" stroke-width=".5" x="0" y="0" width="60" height="60"/>
  <use id="zoomplus" xlink:href="#zoomPlus" x="17" y="9" onmousedown="handleZoom(evt,'in')"/>
  <use id="zoomminus" xlink:href="#zoomMin" x="42" y="9" onmousedown="handleZoom(evt,'out')"/>
  <use id="reset" xlink:href="#resetDef" x="30" y="36" onmousedown="handleReset()"/>
   <use id="arrowup" xlink:href="#arrowUp" x="0" y="0" onmousedown="handlePan(0,-1)"/>
  <use id="arrowright" xlink:href="#arrowRight" x="0" y="0" onmousedown="handlePan(1,0)"/>
  <use id="arrowdown" xlink:href="#arrowDown" x="0" y="0" onmousedown="handlePan(0,1)"/>
  <use id="arrowleft" xlink:href="#arrowLeft" x="0" y="0" onmousedown="handlePan(-1,0)"/>
</g>
<svg viewBox="0 0 15 15" width="100%" height="30px" preserveAspectRatio="xMaxYMin meet">
 <g id="arrow_out" transform="scale(0.3 0.3)">
  <a xlink:href="eom-print_8h__incl_org.svg" target="_base">
   <rect id="button" ry="5" rx="5" y="6" x="6" height="38" width="38"
        fill="#f2f5e9" fill-opacity="0.5" stroke="#606060" stroke-width="1.0"/>
   <path id="arrow"
     d="M 11.500037,31.436501 C 11.940474,20.09759 22.043105,11.32322 32.158766,21.979434 L 37.068811,17.246167 C 37.068811,17.246167 37.088388,32 37.088388,32 L 22.160133,31.978069 C 22.160133,31.978069 26.997745,27.140456 26.997745,27.140456 C 18.528582,18.264221 13.291696,25.230495 11.500037,31.436501 z"
     style="fill:#404040;"/>
  </a>
 </g>
</svg>

<style type='text/css'>
<![CDATA[
[data-mouse-over-selected='false'] { opacity: 0.7; }
[data-mouse-over-selected='true']  { opacity: 1.0; }
]]>
</style>
<script type="application/ecmascript"><![CDATA[
document.addEventListener('DOMContentLoaded', (event) => {
  highlightEdges();
  highlightAdjacentNodes();
});
]]></script>
</svg>
