<?xml version="1.0" encoding="UTF-8" standalone="no"?>
<!DOCTYPE svg PUBLIC "-//W3C//DTD SVG 1.1//EN"
 "http://www.w3.org/Graphics/SVG/1.1/DTD/svg11.dtd">
<!-- Generated by graphviz version 2.43.0 (0)
 -->
<!-- Title: ev&#45;debug.h Pages: 1 -->
<svg width="426pt" height="82pt"
 viewBox="0.00 0.00 425.50 82.00" xmlns="http://www.w3.org/2000/svg" xmlns:xlink="http://www.w3.org/1999/xlink">
<g id="graph0" class="graph" transform="scale(1 1) rotate(0) translate(4 78)">
<title>ev&#45;debug.h</title>
<!-- Node1 -->
<g id="Node000001" class="node">
<title>Node1</title>
<g id="a_Node000001"><a xlink:title=" ">
<polygon fill="#999999" stroke="#666666" points="252,-74 181,-74 181,-55 252,-55 252,-74"/>
<text text-anchor="middle" x="216.5" y="-62" font-family="Helvetica,sans-Serif" font-size="10.00">ev&#45;debug.h</text>
</a>
</g>
</g>
<!-- Node2 -->
<g id="Node000002" class="node">
<title>Node2</title>
<g id="a_Node000002"><a xlink:href="ev-debug_8c.html" target="_top" xlink:title=" ">
<polygon fill="white" stroke="#666666" points="71,-19 0,-19 0,0 71,0 71,-19"/>
<text text-anchor="middle" x="35.5" y="-7" font-family="Helvetica,sans-Serif" font-size="10.00">ev&#45;debug.c</text>
</a>
</g>
</g>
<!-- Node1&#45;&gt;Node2 -->
<g id="edge1_Node000001_Node000002" class="edge">
<title>Node1&#45;&gt;Node2</title>
<g id="a_edge1_Node000001_Node000002"><a xlink:title=" ">
<path fill="none" stroke="#63b8ff" d="M177.42,-52.06C143.59,-42.15 95.42,-28.04 64.81,-19.08"/>
<polygon fill="#63b8ff" stroke="#63b8ff" points="176.84,-55.53 187.42,-54.98 178.81,-48.82 176.84,-55.53"/>
</a>
</g>
</g>
<!-- Node3 -->
<g id="Node000003" class="node">
<title>Node3</title>
<g id="a_Node000003"><a xlink:href="ev-init_8c.html" target="_top" xlink:title=" ">
<polygon fill="white" stroke="#666666" points="145.5,-19 89.5,-19 89.5,0 145.5,0 145.5,-19"/>
<text text-anchor="middle" x="117.5" y="-7" font-family="Helvetica,sans-Serif" font-size="10.00">ev&#45;init.c</text>
</a>
</g>
</g>
<!-- Node1&#45;&gt;Node3 -->
<g id="edge2_Node000001_Node000003" class="edge">
<title>Node1&#45;&gt;Node3</title>
<g id="a_edge2_Node000001_Node000003"><a xlink:title=" ">
<path fill="none" stroke="#63b8ff" d="M191.72,-50.23C173.56,-40.51 149.44,-27.6 133.7,-19.17"/>
<polygon fill="#63b8ff" stroke="#63b8ff" points="190.13,-53.35 200.59,-54.98 193.43,-47.18 190.13,-53.35"/>
</a>
</g>
</g>
<!-- Node4 -->
<g id="Node000004" class="node">
<title>Node4</title>
<g id="a_Node000004"><a xlink:href="ev-job-scheduler_8c.html" target="_top" xlink:title=" ">
<polygon fill="white" stroke="#666666" points="269.5,-19 163.5,-19 163.5,0 269.5,0 269.5,-19"/>
<text text-anchor="middle" x="216.5" y="-7" font-family="Helvetica,sans-Serif" font-size="10.00">ev&#45;job&#45;scheduler.c</text>
</a>
</g>
</g>
<!-- Node1&#45;&gt;Node4 -->
<g id="edge3_Node000001_Node000004" class="edge">
<title>Node1&#45;&gt;Node4</title>
<g id="a_edge3_Node000001_Node000004"><a xlink:title=" ">
<path fill="none" stroke="#63b8ff" d="M216.5,-44.66C216.5,-35.93 216.5,-25.99 216.5,-19.09"/>
<polygon fill="#63b8ff" stroke="#63b8ff" points="213,-44.75 216.5,-54.75 220,-44.75 213,-44.75"/>
</a>
</g>
</g>
<!-- Node5 -->
<g id="Node000005" class="node">
<title>Node5</title>
<g id="a_Node000005"><a xlink:href="ev-jobs_8c.html" target="_top" xlink:title=" ">
<polygon fill="white" stroke="#666666" points="349,-19 288,-19 288,0 349,0 349,-19"/>
<text text-anchor="middle" x="318.5" y="-7" font-family="Helvetica,sans-Serif" font-size="10.00">ev&#45;jobs.c</text>
</a>
</g>
</g>
<!-- Node1&#45;&gt;Node5 -->
<g id="edge4_Node000001_Node000005" class="edge">
<title>Node1&#45;&gt;Node5</title>
<g id="a_edge4_Node000001_Node000005"><a xlink:title=" ">
<path fill="none" stroke="#63b8ff" d="M241.77,-50.37C260.51,-40.63 285.52,-27.64 301.81,-19.17"/>
<polygon fill="#63b8ff" stroke="#63b8ff" points="240.15,-47.27 232.89,-54.98 243.38,-53.48 240.15,-47.27"/>
</a>
</g>
</g>
<!-- Node6 -->
<g id="Node000006" class="node">
<title>Node6</title>
<g id="a_Node000006"><a xlink:href="atril_2shell_2main_8c.html" target="_top" xlink:title=" ">
<polygon fill="white" stroke="#666666" points="417.5,-19 367.5,-19 367.5,0 417.5,0 417.5,-19"/>
<text text-anchor="middle" x="392.5" y="-7" font-family="Helvetica,sans-Serif" font-size="10.00">main.c</text>
</a>
</g>
</g>
<!-- Node1&#45;&gt;Node6 -->
<g id="edge5_Node000001_Node000006" class="edge">
<title>Node1&#45;&gt;Node6</title>
<g id="a_edge5_Node000001_Node000006"><a xlink:title=" ">
<path fill="none" stroke="#63b8ff" d="M254.43,-52.08C288.62,-41.78 337.92,-26.94 367.43,-18.05"/>
<polygon fill="#63b8ff" stroke="#63b8ff" points="253.34,-48.75 244.78,-54.98 255.36,-55.45 253.34,-48.75"/>
</a>
</g>
</g>
</g>
</svg>
