<?xml version="1.0" encoding="UTF-8" standalone="no"?>
<!DOCTYPE svg PUBLIC "-//W3C//DTD SVG 1.1//EN"
 "http://www.w3.org/Graphics/SVG/1.1/DTD/svg11.dtd">
<!-- Generated by graphviz version 2.43.0 (0)
 -->
<!-- Title: ev&#45;document&#45;fonts.c Pages: 1 -->
<svg width="714pt" height="357pt"
 viewBox="0.00 0.00 714.34 357.00" xmlns="http://www.w3.org/2000/svg" xmlns:xlink="http://www.w3.org/1999/xlink">
<g id="graph0" class="graph" transform="scale(1 1) rotate(0) translate(4 353)">
<title>ev&#45;document&#45;fonts.c</title>
<!-- Node1 -->
<g id="Node000001" class="node">
<title>Node1</title>
<g id="a_Node000001"><a xlink:title=" ">
<polygon fill="#999999" stroke="#666666" points="190,-349 72,-349 72,-330 190,-330 190,-349"/>
<text text-anchor="middle" x="131" y="-337" font-family="Helvetica,sans-Serif" font-size="10.00">ev&#45;document&#45;fonts.c</text>
</a>
</g>
</g>
<!-- Node2 -->
<g id="Node000002" class="node">
<title>Node2</title>
<g id="a_Node000002"><a xlink:title=" ">
<polygon fill="#e0e0e0" stroke="#999999" points="106.5,-294 51.5,-294 51.5,-275 106.5,-275 106.5,-294"/>
<text text-anchor="middle" x="79" y="-282" font-family="Helvetica,sans-Serif" font-size="10.00">config.h</text>
</a>
</g>
</g>
<!-- Node1&#45;&gt;Node2 -->
<g id="edge1_Node000001_Node000002" class="edge">
<title>Node1&#45;&gt;Node2</title>
<g id="a_edge1_Node000001_Node000002"><a xlink:title=" ">
<path fill="none" stroke="#63b8ff" d="M122.41,-329.75C114.84,-322.03 103.62,-310.6 94.49,-301.28"/>
<polygon fill="#63b8ff" stroke="#63b8ff" points="96.93,-298.78 87.43,-294.09 91.93,-303.68 96.93,-298.78"/>
</a>
</g>
</g>
<!-- Node3 -->
<g id="Node000003" class="node">
<title>Node3</title>
<g id="a_Node000003"><a xlink:href="ev-document-fonts_8h.html" target="_top" xlink:title=" ">
<polygon fill="white" stroke="#666666" points="243.5,-294 124.5,-294 124.5,-275 243.5,-275 243.5,-294"/>
<text text-anchor="middle" x="184" y="-282" font-family="Helvetica,sans-Serif" font-size="10.00">ev&#45;document&#45;fonts.h</text>
</a>
</g>
</g>
<!-- Node1&#45;&gt;Node3 -->
<g id="edge2_Node000001_Node000003" class="edge">
<title>Node1&#45;&gt;Node3</title>
<g id="a_edge2_Node000001_Node000003"><a xlink:title=" ">
<path fill="none" stroke="#63b8ff" d="M139.75,-329.75C147.47,-322.03 158.9,-310.6 168.22,-301.28"/>
<polygon fill="#63b8ff" stroke="#63b8ff" points="170.81,-303.64 175.41,-294.09 165.86,-298.69 170.81,-303.64"/>
</a>
</g>
</g>
<!-- Node4 -->
<g id="Node000004" class="node">
<title>Node4</title>
<g id="a_Node000004"><a xlink:title=" ">
<polygon fill="#e0e0e0" stroke="#999999" points="435.5,-19 358.5,-19 358.5,0 435.5,0 435.5,-19"/>
<text text-anchor="middle" x="397" y="-7" font-family="Helvetica,sans-Serif" font-size="10.00">glib&#45;object.h</text>
</a>
</g>
</g>
<!-- Node3&#45;&gt;Node4 -->
<g id="edge3_Node000003_Node000004" class="edge">
<title>Node3&#45;&gt;Node4</title>
<g id="a_edge3_Node000003_Node000004"><a xlink:title=" ">
<path fill="none" stroke="#63b8ff" d="M128.29,-274.89C74.14,-262.98 0,-235.69 0,-175.5 0,-175.5 0,-175.5 0,-118.5 0,-83.91 15.33,-72.78 45,-55 95.08,-24.98 264.05,-15.02 348.34,-11.87"/>
<polygon fill="#63b8ff" stroke="#63b8ff" points="348.56,-15.36 358.43,-11.51 348.31,-8.37 348.56,-15.36"/>
</a>
</g>
</g>
<!-- Node5 -->
<g id="Node000005" class="node">
<title>Node5</title>
<g id="a_Node000005"><a xlink:title=" ">
<polygon fill="#e0e0e0" stroke="#999999" points="98,-74 54,-74 54,-55 98,-55 98,-74"/>
<text text-anchor="middle" x="76" y="-62" font-family="Helvetica,sans-Serif" font-size="10.00">glib.h</text>
</a>
</g>
</g>
<!-- Node3&#45;&gt;Node5 -->
<g id="edge4_Node000003_Node000005" class="edge">
<title>Node3&#45;&gt;Node5</title>
<g id="a_edge4_Node000003_Node000005"><a xlink:title=" ">
<path fill="none" stroke="#63b8ff" d="M175.27,-274.77C153.92,-252.72 99.39,-192.05 80,-129 75.58,-114.61 74.73,-97.55 74.9,-84.73"/>
<polygon fill="#63b8ff" stroke="#63b8ff" points="78.41,-84.48 75.28,-74.36 71.42,-84.23 78.41,-84.48"/>
</a>
</g>
</g>
<!-- Node6 -->
<g id="Node000006" class="node">
<title>Node6</title>
<g id="a_Node000006"><a xlink:title=" ">
<polygon fill="#e0e0e0" stroke="#999999" points="214,-239 154,-239 154,-220 214,-220 214,-239"/>
<text text-anchor="middle" x="184" y="-227" font-family="Helvetica,sans-Serif" font-size="10.00">gtk/gtk.h</text>
</a>
</g>
</g>
<!-- Node3&#45;&gt;Node6 -->
<g id="edge5_Node000003_Node000006" class="edge">
<title>Node3&#45;&gt;Node6</title>
<g id="a_edge5_Node000003_Node000006"><a xlink:title=" ">
<path fill="none" stroke="#63b8ff" d="M184,-274.75C184,-267.8 184,-257.85 184,-249.13"/>
<polygon fill="#63b8ff" stroke="#63b8ff" points="187.5,-249.09 184,-239.09 180.5,-249.09 187.5,-249.09"/>
</a>
</g>
</g>
<!-- Node7 -->
<g id="Node000007" class="node">
<title>Node7</title>
<g id="a_Node000007"><a xlink:href="ev-document_8h.html" target="_top" xlink:title=" ">
<polygon fill="white" stroke="#666666" points="376,-184 286,-184 286,-165 376,-165 376,-184"/>
<text text-anchor="middle" x="331" y="-172" font-family="Helvetica,sans-Serif" font-size="10.00">ev&#45;document.h</text>
</a>
</g>
</g>
<!-- Node3&#45;&gt;Node7 -->
<g id="edge6_Node000003_Node000007" class="edge">
<title>Node3&#45;&gt;Node7</title>
<g id="a_edge6_Node000003_Node000007"><a xlink:title=" ">
<path fill="none" stroke="#63b8ff" d="M195.78,-274.84C220.83,-256.44 279.64,-213.23 310.8,-190.34"/>
<polygon fill="#63b8ff" stroke="#63b8ff" points="313.18,-192.94 319.16,-184.2 309.03,-187.3 313.18,-192.94"/>
</a>
</g>
</g>
<!-- Node13 -->
<g id="Node000013" class="node">
<title>Node13</title>
<g id="a_Node000013"><a xlink:href="ev-link_8h.html" target="_top" xlink:title=" ">
<polygon fill="white" stroke="#666666" points="464.5,-239 405.5,-239 405.5,-220 464.5,-220 464.5,-239"/>
<text text-anchor="middle" x="435" y="-227" font-family="Helvetica,sans-Serif" font-size="10.00">ev&#45;link.h</text>
</a>
</g>
</g>
<!-- Node3&#45;&gt;Node13 -->
<g id="edge19_Node000003_Node000013" class="edge">
<title>Node3&#45;&gt;Node13</title>
<g id="a_edge19_Node000003_Node000013"><a xlink:title=" ">
<path fill="none" stroke="#63b8ff" d="M224.33,-274.98C271.35,-265.06 348.58,-248.75 395.33,-238.88"/>
<polygon fill="#63b8ff" stroke="#63b8ff" points="396.32,-242.24 405.38,-236.75 394.87,-235.4 396.32,-242.24"/>
</a>
</g>
</g>
<!-- Node7&#45;&gt;Node4 -->
<g id="edge7_Node000007_Node000004" class="edge">
<title>Node7&#45;&gt;Node4</title>
<g id="a_edge7_Node000007_Node000004"><a xlink:title=" ">
<path fill="none" stroke="#63b8ff" d="M353.08,-164.93C368.14,-157.79 386.93,-146.02 396,-129 412.94,-97.19 407.17,-53.43 401.83,-28.97"/>
<polygon fill="#63b8ff" stroke="#63b8ff" points="405.22,-28.11 399.49,-19.2 398.42,-29.74 405.22,-28.11"/>
</a>
</g>
</g>
<!-- Node7&#45;&gt;Node5 -->
<g id="edge8_Node000007_Node000005" class="edge">
<title>Node7&#45;&gt;Node5</title>
<g id="a_edge8_Node000007_Node000005"><a xlink:title=" ">
<path fill="none" stroke="#63b8ff" d="M285.79,-170.5C225.32,-165.58 122.49,-153.77 95,-129 82.59,-117.82 78.14,-98.9 76.62,-84.61"/>
<polygon fill="#63b8ff" stroke="#63b8ff" points="80.1,-84.12 75.93,-74.38 73.11,-84.59 80.1,-84.12"/>
</a>
</g>
</g>
<!-- Node8 -->
<g id="Node000008" class="node">
<title>Node8</title>
<g id="a_Node000008"><a xlink:title=" ">
<polygon fill="#e0e0e0" stroke="#999999" points="512,-129 444,-129 444,-110 512,-110 512,-129"/>
<text text-anchor="middle" x="478" y="-117" font-family="Helvetica,sans-Serif" font-size="10.00">gmodule.h</text>
</a>
</g>
</g>
<!-- Node7&#45;&gt;Node8 -->
<g id="edge9_Node000007_Node000008" class="edge">
<title>Node7&#45;&gt;Node8</title>
<g id="a_edge9_Node000007_Node000008"><a xlink:title=" ">
<path fill="none" stroke="#63b8ff" d="M354.62,-164.98C378.9,-156.23 416.95,-142.51 444.37,-132.62"/>
<polygon fill="#63b8ff" stroke="#63b8ff" points="445.73,-135.85 453.95,-129.17 443.36,-129.27 445.73,-135.85"/>
</a>
</g>
</g>
<!-- Node9 -->
<g id="Node000009" class="node">
<title>Node9</title>
<g id="a_Node000009"><a xlink:title=" ">
<polygon fill="#e0e0e0" stroke="#999999" points="580,-129 530,-129 530,-110 580,-110 580,-129"/>
<text text-anchor="middle" x="555" y="-117" font-family="Helvetica,sans-Serif" font-size="10.00">cairo.h</text>
</a>
</g>
</g>
<!-- Node7&#45;&gt;Node9 -->
<g id="edge10_Node000007_Node000009" class="edge">
<title>Node7&#45;&gt;Node9</title>
<g id="a_edge10_Node000007_Node000009"><a xlink:title=" ">
<path fill="none" stroke="#63b8ff" d="M368.17,-164.97C404.48,-156.59 461.57,-143.33 519.99,-129.22"/>
<polygon fill="#63b8ff" stroke="#63b8ff" points="520.86,-132.61 529.76,-126.85 519.22,-125.8 520.86,-132.61"/>
</a>
</g>
</g>
<!-- Node10 -->
<g id="Node000010" class="node">
<title>Node10</title>
<g id="a_Node000010"><a xlink:href="ev-document-info_8h.html" target="_top" xlink:title=" ">
<polygon fill="white" stroke="#666666" points="217.5,-129 104.5,-129 104.5,-110 217.5,-110 217.5,-129"/>
<text text-anchor="middle" x="161" y="-117" font-family="Helvetica,sans-Serif" font-size="10.00">ev&#45;document&#45;info.h</text>
</a>
</g>
</g>
<!-- Node7&#45;&gt;Node10 -->
<g id="edge11_Node000007_Node000010" class="edge">
<title>Node7&#45;&gt;Node10</title>
<g id="a_edge11_Node000007_Node000010"><a xlink:title=" ">
<path fill="none" stroke="#63b8ff" d="M303.69,-164.98C275.15,-156.09 230.17,-142.07 198.36,-132.15"/>
<polygon fill="#63b8ff" stroke="#63b8ff" points="199.12,-128.72 188.53,-129.08 197.03,-135.4 199.12,-128.72"/>
</a>
</g>
</g>
<!-- Node11 -->
<g id="Node000011" class="node">
<title>Node11</title>
<g id="a_Node000011"><a xlink:href="ev-page_8h.html" target="_top" xlink:title=" ">
<polygon fill="white" stroke="#666666" points="349.5,-74 284.5,-74 284.5,-55 349.5,-55 349.5,-74"/>
<text text-anchor="middle" x="317" y="-62" font-family="Helvetica,sans-Serif" font-size="10.00">ev&#45;page.h</text>
</a>
</g>
</g>
<!-- Node7&#45;&gt;Node11 -->
<g id="edge14_Node000007_Node000011" class="edge">
<title>Node7&#45;&gt;Node11</title>
<g id="a_edge14_Node000007_Node000011"><a xlink:title=" ">
<path fill="none" stroke="#63b8ff" d="M308.22,-164.89C292.97,-157.79 274.08,-146.08 265,-129 255,-110.19 274.42,-91.69 292.31,-79.55"/>
<polygon fill="#63b8ff" stroke="#63b8ff" points="294.27,-82.45 300.83,-74.13 290.51,-76.55 294.27,-82.45"/>
</a>
</g>
</g>
<!-- Node12 -->
<g id="Node000012" class="node">
<title>Node12</title>
<g id="a_Node000012"><a xlink:href="ev-render-context_8h.html" target="_top" xlink:title=" ">
<polygon fill="white" stroke="#666666" points="387.5,-129 274.5,-129 274.5,-110 387.5,-110 387.5,-129"/>
<text text-anchor="middle" x="331" y="-117" font-family="Helvetica,sans-Serif" font-size="10.00">ev&#45;render&#45;context.h</text>
</a>
</g>
</g>
<!-- Node7&#45;&gt;Node12 -->
<g id="edge16_Node000007_Node000012" class="edge">
<title>Node7&#45;&gt;Node12</title>
<g id="a_edge16_Node000007_Node000012"><a xlink:title=" ">
<path fill="none" stroke="#63b8ff" d="M331,-164.75C331,-157.8 331,-147.85 331,-139.13"/>
<polygon fill="#63b8ff" stroke="#63b8ff" points="334.5,-139.09 331,-129.09 327.5,-139.09 334.5,-139.09"/>
</a>
</g>
</g>
<!-- Node10&#45;&gt;Node4 -->
<g id="edge12_Node000010_Node000004" class="edge">
<title>Node10&#45;&gt;Node4</title>
<g id="a_edge12_Node000010_Node000004"><a xlink:title=" ">
<path fill="none" stroke="#63b8ff" d="M174.67,-109.95C195.7,-97.01 237.5,-72.15 275,-55 302.93,-42.22 335.68,-30.44 360.22,-22.22"/>
<polygon fill="#63b8ff" stroke="#63b8ff" points="361.46,-25.49 369.85,-19.03 359.26,-18.85 361.46,-25.49"/>
</a>
</g>
</g>
<!-- Node10&#45;&gt;Node5 -->
<g id="edge13_Node000010_Node000005" class="edge">
<title>Node10&#45;&gt;Node5</title>
<g id="a_edge13_Node000010_Node000005"><a xlink:title=" ">
<path fill="none" stroke="#63b8ff" d="M147.34,-109.98C134.16,-101.77 113.97,-89.18 98.43,-79.49"/>
<polygon fill="#63b8ff" stroke="#63b8ff" points="100.24,-76.49 89.91,-74.17 96.54,-82.43 100.24,-76.49"/>
</a>
</g>
</g>
<!-- Node11&#45;&gt;Node4 -->
<g id="edge15_Node000011_Node000004" class="edge">
<title>Node11&#45;&gt;Node4</title>
<g id="a_edge15_Node000011_Node000004"><a xlink:title=" ">
<path fill="none" stroke="#63b8ff" d="M329.85,-54.98C342.14,-46.84 360.91,-34.41 375.48,-24.76"/>
<polygon fill="#63b8ff" stroke="#63b8ff" points="377.51,-27.61 383.91,-19.17 373.64,-21.78 377.51,-27.61"/>
</a>
</g>
</g>
<!-- Node12&#45;&gt;Node4 -->
<g id="edge17_Node000012_Node000004" class="edge">
<title>Node12&#45;&gt;Node4</title>
<g id="a_edge17_Node000012_Node000004"><a xlink:title=" ">
<path fill="none" stroke="#63b8ff" d="M336.4,-109.66C347.33,-91.77 372.25,-51 386.49,-27.69"/>
<polygon fill="#63b8ff" stroke="#63b8ff" points="389.48,-29.52 391.71,-19.16 383.51,-25.87 389.48,-29.52"/>
</a>
</g>
</g>
<!-- Node12&#45;&gt;Node11 -->
<g id="edge18_Node000012_Node000011" class="edge">
<title>Node12&#45;&gt;Node11</title>
<g id="a_edge18_Node000012_Node000011"><a xlink:title=" ">
<path fill="none" stroke="#63b8ff" d="M328.69,-109.75C326.83,-102.72 324.16,-92.62 321.85,-83.84"/>
<polygon fill="#63b8ff" stroke="#63b8ff" points="325.21,-82.86 319.27,-74.09 318.44,-84.65 325.21,-82.86"/>
</a>
</g>
</g>
<!-- Node13&#45;&gt;Node4 -->
<g id="edge20_Node000013_Node000004" class="edge">
<title>Node13&#45;&gt;Node4</title>
<g id="a_edge20_Node000013_Node000004"><a xlink:title=" ">
<path fill="none" stroke="#63b8ff" d="M464.63,-227.58C542.43,-223.86 743.64,-205.04 700,-110 684.35,-75.92 669.82,-71.21 636,-55 574.71,-25.62 495.95,-15.59 445.95,-12.2"/>
<polygon fill="#63b8ff" stroke="#63b8ff" points="445.94,-8.69 435.74,-11.57 445.51,-15.68 445.94,-8.69"/>
</a>
</g>
</g>
<!-- Node13&#45;&gt;Node7 -->
<g id="edge21_Node000013_Node000007" class="edge">
<title>Node13&#45;&gt;Node7</title>
<g id="a_edge21_Node000013_Node000007"><a xlink:title=" ">
<path fill="none" stroke="#63b8ff" d="M418.29,-219.98C401.79,-211.57 376.3,-198.59 357.12,-188.81"/>
<polygon fill="#63b8ff" stroke="#63b8ff" points="358.51,-185.59 348.01,-184.17 355.33,-191.83 358.51,-185.59"/>
</a>
</g>
</g>
<!-- Node14 -->
<g id="Node000014" class="node">
<title>Node14</title>
<g id="a_Node000014"><a xlink:href="ev-link-action_8h.html" target="_top" xlink:title=" ">
<polygon fill="white" stroke="#666666" points="691.5,-129 598.5,-129 598.5,-110 691.5,-110 691.5,-129"/>
<text text-anchor="middle" x="645" y="-117" font-family="Helvetica,sans-Serif" font-size="10.00">ev&#45;link&#45;action.h</text>
</a>
</g>
</g>
<!-- Node13&#45;&gt;Node14 -->
<g id="edge22_Node000013_Node000014" class="edge">
<title>Node13&#45;&gt;Node14</title>
<g id="a_edge22_Node000013_Node000014"><a xlink:title=" ">
<path fill="none" stroke="#63b8ff" d="M451.83,-219.84C488.48,-201 575.69,-156.14 619.28,-133.73"/>
<polygon fill="#63b8ff" stroke="#63b8ff" points="621.09,-136.73 628.38,-129.05 617.89,-130.51 621.09,-136.73"/>
</a>
</g>
</g>
<!-- Node14&#45;&gt;Node4 -->
<g id="edge23_Node000014_Node000004" class="edge">
<title>Node14&#45;&gt;Node4</title>
<g id="a_edge23_Node000014_Node000004"><a xlink:title=" ">
<path fill="none" stroke="#63b8ff" d="M622.74,-109.98C600.23,-101.26 564.5,-87.17 534,-74 495.42,-57.34 451.43,-36.64 423.94,-23.5"/>
<polygon fill="#63b8ff" stroke="#63b8ff" points="425.13,-20.19 414.6,-19.02 422.1,-26.5 425.13,-20.19"/>
</a>
</g>
</g>
<!-- Node15 -->
<g id="Node000015" class="node">
<title>Node15</title>
<g id="a_Node000015"><a xlink:href="ev-link-dest_8h.html" target="_top" xlink:title=" ">
<polygon fill="white" stroke="#666666" points="627,-74 543,-74 543,-55 627,-55 627,-74"/>
<text text-anchor="middle" x="585" y="-62" font-family="Helvetica,sans-Serif" font-size="10.00">ev&#45;link&#45;dest.h</text>
</a>
</g>
</g>
<!-- Node14&#45;&gt;Node15 -->
<g id="edge24_Node000014_Node000015" class="edge">
<title>Node14&#45;&gt;Node15</title>
<g id="a_edge24_Node000014_Node000015"><a xlink:title=" ">
<path fill="none" stroke="#63b8ff" d="M635.36,-109.98C626.49,-102.15 613.13,-90.34 602.39,-80.86"/>
<polygon fill="#63b8ff" stroke="#63b8ff" points="604.63,-78.17 594.82,-74.17 599.99,-83.41 604.63,-78.17"/>
</a>
</g>
</g>
<!-- Node15&#45;&gt;Node4 -->
<g id="edge25_Node000015_Node000004" class="edge">
<title>Node15&#45;&gt;Node4</title>
<g id="a_edge25_Node000015_Node000004"><a xlink:title=" ">
<path fill="none" stroke="#63b8ff" d="M554.79,-54.98C522.96,-46.01 472.64,-31.82 437.4,-21.89"/>
<polygon fill="#63b8ff" stroke="#63b8ff" points="438.02,-18.43 427.44,-19.08 436.12,-25.16 438.02,-18.43"/>
</a>
</g>
</g>
</g>
</svg>
