<?xml version="1.0" encoding="UTF-8" standalone="no"?>
<!DOCTYPE svg PUBLIC "-//W3C//DTD SVG 1.1//EN"
 "http://www.w3.org/Graphics/SVG/1.1/DTD/svg11.dtd">
<!-- Generated by graphviz version 2.43.0 (0)
 -->
<!-- Title: ev&#45;document&#45;layers.c Pages: 1 -->
<svg width="607pt" height="247pt"
 viewBox="0.00 0.00 606.84 247.00" xmlns="http://www.w3.org/2000/svg" xmlns:xlink="http://www.w3.org/1999/xlink">
<g id="graph0" class="graph" transform="scale(1 1) rotate(0) translate(4 243)">
<title>ev&#45;document&#45;layers.c</title>
<!-- Node1 -->
<g id="Node000001" class="node">
<title>Node1</title>
<g id="a_Node000001"><a xlink:title=" ">
<polygon fill="#999999" stroke="#666666" points="242.34,-239 119.34,-239 119.34,-220 242.34,-220 242.34,-239"/>
<text text-anchor="middle" x="180.84" y="-227" font-family="Helvetica,sans-Serif" font-size="10.00">ev&#45;document&#45;layers.c</text>
</a>
</g>
</g>
<!-- Node2 -->
<g id="Node000002" class="node">
<title>Node2</title>
<g id="a_Node000002"><a xlink:title=" ">
<polygon fill="#e0e0e0" stroke="#999999" points="117.34,-184 62.34,-184 62.34,-165 117.34,-165 117.34,-184"/>
<text text-anchor="middle" x="89.84" y="-172" font-family="Helvetica,sans-Serif" font-size="10.00">config.h</text>
</a>
</g>
</g>
<!-- Node1&#45;&gt;Node2 -->
<g id="edge1_Node000001_Node000002" class="edge">
<title>Node1&#45;&gt;Node2</title>
<g id="a_edge1_Node000001_Node000002"><a xlink:title=" ">
<path fill="none" stroke="#63b8ff" d="M166.22,-219.98C151.98,-211.69 130.09,-198.94 113.39,-189.22"/>
<polygon fill="#63b8ff" stroke="#63b8ff" points="115.13,-186.18 104.73,-184.17 111.61,-192.23 115.13,-186.18"/>
</a>
</g>
</g>
<!-- Node3 -->
<g id="Node000003" class="node">
<title>Node3</title>
<g id="a_Node000003"><a xlink:href="ev-document-layers_8h.html" target="_top" xlink:title=" ">
<polygon fill="white" stroke="#666666" points="598.84,-129 474.84,-129 474.84,-110 598.84,-110 598.84,-129"/>
<text text-anchor="middle" x="536.84" y="-117" font-family="Helvetica,sans-Serif" font-size="10.00">ev&#45;document&#45;layers.h</text>
</a>
</g>
</g>
<!-- Node1&#45;&gt;Node3 -->
<g id="edge2_Node000001_Node000003" class="edge">
<title>Node1&#45;&gt;Node3</title>
<g id="a_edge2_Node000001_Node000003"><a xlink:title=" ">
<path fill="none" stroke="#63b8ff" d="M209.07,-219.94C272.56,-200.68 426.62,-153.94 498.6,-132.1"/>
<polygon fill="#63b8ff" stroke="#63b8ff" points="500.05,-135.32 508.6,-129.07 498.02,-128.62 500.05,-135.32"/>
</a>
</g>
</g>
<!-- Node8 -->
<g id="Node000008" class="node">
<title>Node8</title>
<g id="a_Node000008"><a xlink:href="ev-document_8h.html" target="_top" xlink:title=" ">
<polygon fill="white" stroke="#666666" points="225.84,-184 135.84,-184 135.84,-165 225.84,-165 225.84,-184"/>
<text text-anchor="middle" x="180.84" y="-172" font-family="Helvetica,sans-Serif" font-size="10.00">ev&#45;document.h</text>
</a>
</g>
</g>
<!-- Node1&#45;&gt;Node8 -->
<g id="edge8_Node000001_Node000008" class="edge">
<title>Node1&#45;&gt;Node8</title>
<g id="a_edge8_Node000001_Node000008"><a xlink:title=" ">
<path fill="none" stroke="#63b8ff" d="M180.84,-219.75C180.84,-212.8 180.84,-202.85 180.84,-194.13"/>
<polygon fill="#63b8ff" stroke="#63b8ff" points="184.34,-194.09 180.84,-184.09 177.34,-194.09 184.34,-194.09"/>
</a>
</g>
</g>
<!-- Node4 -->
<g id="Node000004" class="node">
<title>Node4</title>
<g id="a_Node000004"><a xlink:title=" ">
<polygon fill="#e0e0e0" stroke="#999999" points="352.34,-19 275.34,-19 275.34,0 352.34,0 352.34,-19"/>
<text text-anchor="middle" x="313.84" y="-7" font-family="Helvetica,sans-Serif" font-size="10.00">glib&#45;object.h</text>
</a>
</g>
</g>
<!-- Node3&#45;&gt;Node4 -->
<g id="edge3_Node000003_Node000004" class="edge">
<title>Node3&#45;&gt;Node4</title>
<g id="a_edge3_Node000003_Node000004"><a xlink:title=" ">
<path fill="none" stroke="#63b8ff" d="M549.57,-109.8C566.63,-97.1 593.09,-73.04 577.84,-55 550.83,-23.05 431.27,-14.03 362.68,-11.49"/>
<polygon fill="#63b8ff" stroke="#63b8ff" points="362.65,-7.99 352.53,-11.15 362.41,-14.98 362.65,-7.99"/>
</a>
</g>
</g>
<!-- Node5 -->
<g id="Node000005" class="node">
<title>Node5</title>
<g id="a_Node000005"><a xlink:title=" ">
<polygon fill="#e0e0e0" stroke="#999999" points="406.84,-74 362.84,-74 362.84,-55 406.84,-55 406.84,-74"/>
<text text-anchor="middle" x="384.84" y="-62" font-family="Helvetica,sans-Serif" font-size="10.00">glib.h</text>
</a>
</g>
</g>
<!-- Node3&#45;&gt;Node5 -->
<g id="edge4_Node000003_Node000005" class="edge">
<title>Node3&#45;&gt;Node5</title>
<g id="a_edge4_Node000003_Node000005"><a xlink:title=" ">
<path fill="none" stroke="#63b8ff" d="M512.42,-109.98C486.44,-100.93 445.25,-86.56 416.73,-76.62"/>
<polygon fill="#63b8ff" stroke="#63b8ff" points="417.81,-73.29 407.22,-73.3 415.51,-79.9 417.81,-73.29"/>
</a>
</g>
</g>
<!-- Node6 -->
<g id="Node000006" class="node">
<title>Node6</title>
<g id="a_Node000006"><a xlink:title=" ">
<polygon fill="#e0e0e0" stroke="#999999" points="484.84,-74 424.84,-74 424.84,-55 484.84,-55 484.84,-74"/>
<text text-anchor="middle" x="454.84" y="-62" font-family="Helvetica,sans-Serif" font-size="10.00">gtk/gtk.h</text>
</a>
</g>
</g>
<!-- Node3&#45;&gt;Node6 -->
<g id="edge5_Node000003_Node000006" class="edge">
<title>Node3&#45;&gt;Node6</title>
<g id="a_edge5_Node000003_Node000006"><a xlink:title=" ">
<path fill="none" stroke="#63b8ff" d="M523.67,-109.98C511.07,-101.84 491.84,-89.41 476.9,-79.76"/>
<polygon fill="#63b8ff" stroke="#63b8ff" points="478.55,-76.66 468.25,-74.17 474.75,-82.54 478.55,-76.66"/>
</a>
</g>
</g>
<!-- Node7 -->
<g id="Node000007" class="node">
<title>Node7</title>
<g id="a_Node000007"><a xlink:href="ev-layer_8h.html" target="_top" xlink:title=" ">
<polygon fill="white" stroke="#666666" points="568.34,-74 503.34,-74 503.34,-55 568.34,-55 568.34,-74"/>
<text text-anchor="middle" x="535.84" y="-62" font-family="Helvetica,sans-Serif" font-size="10.00">ev&#45;layer.h</text>
</a>
</g>
</g>
<!-- Node3&#45;&gt;Node7 -->
<g id="edge6_Node000003_Node000007" class="edge">
<title>Node3&#45;&gt;Node7</title>
<g id="a_edge6_Node000003_Node000007"><a xlink:title=" ">
<path fill="none" stroke="#63b8ff" d="M536.67,-109.75C536.54,-102.8 536.36,-92.85 536.19,-84.13"/>
<polygon fill="#63b8ff" stroke="#63b8ff" points="539.69,-84.02 536,-74.09 532.69,-84.15 539.69,-84.02"/>
</a>
</g>
</g>
<!-- Node7&#45;&gt;Node4 -->
<g id="edge7_Node000007_Node000004" class="edge">
<title>Node7&#45;&gt;Node4</title>
<g id="a_edge7_Node000007_Node000004"><a xlink:title=" ">
<path fill="none" stroke="#63b8ff" d="M503.08,-55.68C465.12,-46.62 402.31,-31.62 359.55,-21.41"/>
<polygon fill="#63b8ff" stroke="#63b8ff" points="360.22,-17.97 349.68,-19.06 358.59,-24.78 360.22,-17.97"/>
</a>
</g>
</g>
<!-- Node8&#45;&gt;Node4 -->
<g id="edge9_Node000008_Node000004" class="edge">
<title>Node8&#45;&gt;Node4</title>
<g id="a_edge9_Node000008_Node000004"><a xlink:title=" ">
<path fill="none" stroke="#63b8ff" d="M135.82,-165.15C86.13,-155.47 12.05,-139.53 3.84,-129 -1.35,-122.34 -1.14,-116.82 3.84,-110 64.15,-27.3 194.26,-11.81 265.24,-9.83"/>
<polygon fill="#63b8ff" stroke="#63b8ff" points="265.34,-13.33 275.27,-9.63 265.2,-6.33 265.34,-13.33"/>
</a>
</g>
</g>
<!-- Node8&#45;&gt;Node5 -->
<g id="edge10_Node000008_Node000005" class="edge">
<title>Node8&#45;&gt;Node5</title>
<g id="a_edge10_Node000008_Node000005"><a xlink:title=" ">
<path fill="none" stroke="#63b8ff" d="M226.04,-172.04C290.17,-168.92 402.62,-159.17 427.84,-129 440.93,-113.34 422.93,-93.67 406.38,-80.4"/>
<polygon fill="#63b8ff" stroke="#63b8ff" points="408.11,-77.33 398.02,-74.11 403.9,-82.92 408.11,-77.33"/>
</a>
</g>
</g>
<!-- Node9 -->
<g id="Node000009" class="node">
<title>Node9</title>
<g id="a_Node000009"><a xlink:title=" ">
<polygon fill="#e0e0e0" stroke="#999999" points="87.84,-129 19.84,-129 19.84,-110 87.84,-110 87.84,-129"/>
<text text-anchor="middle" x="53.84" y="-117" font-family="Helvetica,sans-Serif" font-size="10.00">gmodule.h</text>
</a>
</g>
</g>
<!-- Node8&#45;&gt;Node9 -->
<g id="edge11_Node000008_Node000009" class="edge">
<title>Node8&#45;&gt;Node9</title>
<g id="a_edge11_Node000008_Node000009"><a xlink:title=" ">
<path fill="none" stroke="#63b8ff" d="M160.44,-164.98C139.82,-156.38 107.73,-142.99 84.15,-133.15"/>
<polygon fill="#63b8ff" stroke="#63b8ff" points="85.19,-129.79 74.62,-129.17 82.5,-136.25 85.19,-129.79"/>
</a>
</g>
</g>
<!-- Node10 -->
<g id="Node000010" class="node">
<title>Node10</title>
<g id="a_Node000010"><a xlink:title=" ">
<polygon fill="#e0e0e0" stroke="#999999" points="155.84,-129 105.84,-129 105.84,-110 155.84,-110 155.84,-129"/>
<text text-anchor="middle" x="130.84" y="-117" font-family="Helvetica,sans-Serif" font-size="10.00">cairo.h</text>
</a>
</g>
</g>
<!-- Node8&#45;&gt;Node10 -->
<g id="edge12_Node000008_Node000010" class="edge">
<title>Node8&#45;&gt;Node10</title>
<g id="a_edge12_Node000008_Node000010"><a xlink:title=" ">
<path fill="none" stroke="#63b8ff" d="M172.58,-164.75C165.38,-157.11 154.73,-145.82 145.99,-136.56"/>
<polygon fill="#63b8ff" stroke="#63b8ff" points="148.35,-133.96 138.94,-129.09 143.26,-138.76 148.35,-133.96"/>
</a>
</g>
</g>
<!-- Node11 -->
<g id="Node000011" class="node">
<title>Node11</title>
<g id="a_Node000011"><a xlink:href="ev-document-info_8h.html" target="_top" xlink:title=" ">
<polygon fill="white" stroke="#666666" points="418.34,-129 305.34,-129 305.34,-110 418.34,-110 418.34,-129"/>
<text text-anchor="middle" x="361.84" y="-117" font-family="Helvetica,sans-Serif" font-size="10.00">ev&#45;document&#45;info.h</text>
</a>
</g>
</g>
<!-- Node8&#45;&gt;Node11 -->
<g id="edge13_Node000008_Node000011" class="edge">
<title>Node8&#45;&gt;Node11</title>
<g id="a_edge13_Node000008_Node000011"><a xlink:title=" ">
<path fill="none" stroke="#63b8ff" d="M209.92,-164.98C240.44,-156.05 288.6,-141.94 322.5,-132.02"/>
<polygon fill="#63b8ff" stroke="#63b8ff" points="323.92,-135.25 332.53,-129.08 321.95,-128.53 323.92,-135.25"/>
</a>
</g>
</g>
<!-- Node12 -->
<g id="Node000012" class="node">
<title>Node12</title>
<g id="a_Node000012"><a xlink:href="ev-page_8h.html" target="_top" xlink:title=" ">
<polygon fill="white" stroke="#666666" points="263.34,-74 198.34,-74 198.34,-55 263.34,-55 263.34,-74"/>
<text text-anchor="middle" x="230.84" y="-62" font-family="Helvetica,sans-Serif" font-size="10.00">ev&#45;page.h</text>
</a>
</g>
</g>
<!-- Node8&#45;&gt;Node12 -->
<g id="edge16_Node000008_Node000012" class="edge">
<title>Node8&#45;&gt;Node12</title>
<g id="a_edge16_Node000008_Node000012"><a xlink:title=" ">
<path fill="none" stroke="#63b8ff" d="M137.16,-164.94C89.44,-155.14 18.67,-139.14 10.84,-129 5.68,-122.32 5.49,-116.54 10.84,-110 32.79,-83.17 130.5,-72.14 188.06,-67.9"/>
<polygon fill="#63b8ff" stroke="#63b8ff" points="188.58,-71.38 198.31,-67.19 188.09,-64.39 188.58,-71.38"/>
</a>
</g>
</g>
<!-- Node13 -->
<g id="Node000013" class="node">
<title>Node13</title>
<g id="a_Node000013"><a xlink:href="ev-render-context_8h.html" target="_top" xlink:title=" ">
<polygon fill="white" stroke="#666666" points="287.34,-129 174.34,-129 174.34,-110 287.34,-110 287.34,-129"/>
<text text-anchor="middle" x="230.84" y="-117" font-family="Helvetica,sans-Serif" font-size="10.00">ev&#45;render&#45;context.h</text>
</a>
</g>
</g>
<!-- Node8&#45;&gt;Node13 -->
<g id="edge18_Node000008_Node000013" class="edge">
<title>Node8&#45;&gt;Node13</title>
<g id="a_edge18_Node000008_Node000013"><a xlink:title=" ">
<path fill="none" stroke="#63b8ff" d="M189.1,-164.75C196.3,-157.11 206.95,-145.82 215.69,-136.56"/>
<polygon fill="#63b8ff" stroke="#63b8ff" points="218.42,-138.76 222.74,-129.09 213.33,-133.96 218.42,-138.76"/>
</a>
</g>
</g>
<!-- Node11&#45;&gt;Node4 -->
<g id="edge14_Node000011_Node000004" class="edge">
<title>Node11&#45;&gt;Node4</title>
<g id="a_edge14_Node000011_Node000004"><a xlink:title=" ">
<path fill="none" stroke="#63b8ff" d="M357.91,-109.66C350.03,-91.93 332.16,-51.73 321.76,-28.32"/>
<polygon fill="#63b8ff" stroke="#63b8ff" points="324.95,-26.87 317.69,-19.16 318.55,-29.72 324.95,-26.87"/>
</a>
</g>
</g>
<!-- Node11&#45;&gt;Node5 -->
<g id="edge15_Node000011_Node000005" class="edge">
<title>Node11&#45;&gt;Node5</title>
<g id="a_edge15_Node000011_Node000005"><a xlink:title=" ">
<path fill="none" stroke="#63b8ff" d="M365.64,-109.75C368.75,-102.57 373.26,-92.18 377.13,-83.27"/>
<polygon fill="#63b8ff" stroke="#63b8ff" points="380.34,-84.66 381.11,-74.09 373.92,-81.87 380.34,-84.66"/>
</a>
</g>
</g>
<!-- Node12&#45;&gt;Node4 -->
<g id="edge17_Node000012_Node000004" class="edge">
<title>Node12&#45;&gt;Node4</title>
<g id="a_edge17_Node000012_Node000004"><a xlink:title=" ">
<path fill="none" stroke="#63b8ff" d="M244.18,-54.98C256.93,-46.84 276.39,-34.41 291.51,-24.76"/>
<polygon fill="#63b8ff" stroke="#63b8ff" points="293.72,-27.5 300.26,-19.17 289.95,-21.6 293.72,-27.5"/>
</a>
</g>
</g>
<!-- Node13&#45;&gt;Node4 -->
<g id="edge19_Node000013_Node000004" class="edge">
<title>Node13&#45;&gt;Node4</title>
<g id="a_edge19_Node000013_Node000004"><a xlink:title=" ">
<path fill="none" stroke="#63b8ff" d="M239.77,-109.67C248.39,-100.96 261.61,-87.07 271.84,-74 283.53,-59.07 295.31,-40.94 303.4,-27.88"/>
<polygon fill="#63b8ff" stroke="#63b8ff" points="306.59,-29.37 308.81,-19.01 300.61,-25.73 306.59,-29.37"/>
</a>
</g>
</g>
<!-- Node13&#45;&gt;Node12 -->
<g id="edge20_Node000013_Node000012" class="edge">
<title>Node13&#45;&gt;Node12</title>
<g id="a_edge20_Node000013_Node000012"><a xlink:title=" ">
<path fill="none" stroke="#63b8ff" d="M230.84,-109.75C230.84,-102.8 230.84,-92.85 230.84,-84.13"/>
<polygon fill="#63b8ff" stroke="#63b8ff" points="234.34,-84.09 230.84,-74.09 227.34,-84.09 234.34,-84.09"/>
</a>
</g>
</g>
</g>
</svg>
