<?xml version="1.0" encoding="UTF-8" standalone="no"?>
<!DOCTYPE svg PUBLIC "-//W3C//DTD SVG 1.1//EN"
 "http://www.w3.org/Graphics/SVG/1.1/DTD/svg11.dtd">
<!-- Generated by graphviz version 2.43.0 (0)
 -->
<!-- Title: ev&#45;form&#45;field.h Pages: 1 -->
<svg width="728pt" height="302pt"
 viewBox="0.00 0.00 728.00 302.00" xmlns="http://www.w3.org/2000/svg" xmlns:xlink="http://www.w3.org/1999/xlink">
<g id="graph0" class="graph" transform="scale(1 1) rotate(0) translate(4 298)">
<title>ev&#45;form&#45;field.h</title>
<!-- Node1 -->
<g id="Node000001" class="node">
<title>Node1</title>
<g id="a_Node000001"><a xlink:title=" ">
<polygon fill="#999999" stroke="#666666" points="309.5,-294 220.5,-294 220.5,-275 309.5,-275 309.5,-294"/>
<text text-anchor="middle" x="265" y="-282" font-family="Helvetica,sans-Serif" font-size="10.00">ev&#45;form&#45;field.h</text>
</a>
</g>
</g>
<!-- Node2 -->
<g id="Node000002" class="node">
<title>Node2</title>
<g id="a_Node000002"><a xlink:title=" ">
<polygon fill="#e0e0e0" stroke="#999999" points="492.5,-19 415.5,-19 415.5,0 492.5,0 492.5,-19"/>
<text text-anchor="middle" x="454" y="-7" font-family="Helvetica,sans-Serif" font-size="10.00">glib&#45;object.h</text>
</a>
</g>
</g>
<!-- Node1&#45;&gt;Node2 -->
<g id="edge1_Node000001_Node000002" class="edge">
<title>Node1&#45;&gt;Node2</title>
<g id="a_edge1_Node000001_Node000002"><a xlink:title=" ">
<path fill="none" stroke="#63b8ff" d="M220.64,-274.95C145.21,-259.13 0,-222.57 0,-175.5 0,-175.5 0,-175.5 0,-118.5 0,-35.92 287.86,-16.38 405.15,-11.84"/>
<polygon fill="#63b8ff" stroke="#63b8ff" points="405.43,-15.33 415.29,-11.47 405.17,-8.34 405.43,-15.33"/>
</a>
</g>
</g>
<!-- Node3 -->
<g id="Node000003" class="node">
<title>Node3</title>
<g id="a_Node000003"><a xlink:href="ev-document_8h.html" target="_top" xlink:title=" ">
<polygon fill="white" stroke="#666666" points="310,-184 220,-184 220,-165 310,-165 310,-184"/>
<text text-anchor="middle" x="265" y="-172" font-family="Helvetica,sans-Serif" font-size="10.00">ev&#45;document.h</text>
</a>
</g>
</g>
<!-- Node1&#45;&gt;Node3 -->
<g id="edge2_Node000001_Node000003" class="edge">
<title>Node1&#45;&gt;Node3</title>
<g id="a_edge2_Node000001_Node000003"><a xlink:title=" ">
<path fill="none" stroke="#63b8ff" d="M265,-274.66C265,-257.17 265,-217.8 265,-194.27"/>
<polygon fill="#63b8ff" stroke="#63b8ff" points="268.5,-194.16 265,-184.16 261.5,-194.16 268.5,-194.16"/>
</a>
</g>
</g>
<!-- Node10 -->
<g id="Node000010" class="node">
<title>Node10</title>
<g id="a_Node000010"><a xlink:href="ev-link_8h.html" target="_top" xlink:title=" ">
<polygon fill="white" stroke="#666666" points="500.5,-239 441.5,-239 441.5,-220 500.5,-220 500.5,-239"/>
<text text-anchor="middle" x="471" y="-227" font-family="Helvetica,sans-Serif" font-size="10.00">ev&#45;link.h</text>
</a>
</g>
</g>
<!-- Node1&#45;&gt;Node10 -->
<g id="edge15_Node000001_Node000010" class="edge">
<title>Node1&#45;&gt;Node10</title>
<g id="a_edge15_Node000001_Node000010"><a xlink:title=" ">
<path fill="none" stroke="#63b8ff" d="M298.1,-274.98C334.43,-265.64 392.73,-250.64 431.45,-240.68"/>
<polygon fill="#63b8ff" stroke="#63b8ff" points="432.52,-244.02 441.33,-238.13 430.77,-237.24 432.52,-244.02"/>
</a>
</g>
</g>
<!-- Node3&#45;&gt;Node2 -->
<g id="edge3_Node000003_Node000002" class="edge">
<title>Node3&#45;&gt;Node2</title>
<g id="a_edge3_Node000003_Node000002"><a xlink:title=" ">
<path fill="none" stroke="#63b8ff" d="M219.83,-173.84C158.02,-172.42 57.74,-162.29 86,-110 107.22,-70.74 128.36,-71.04 170,-55 248.7,-24.69 347.25,-15.01 405.15,-11.92"/>
<polygon fill="#63b8ff" stroke="#63b8ff" points="405.65,-15.4 415.47,-11.42 405.31,-8.41 405.65,-15.4"/>
</a>
</g>
</g>
<!-- Node4 -->
<g id="Node000004" class="node">
<title>Node4</title>
<g id="a_Node000004"><a xlink:title=" ">
<polygon fill="#e0e0e0" stroke="#999999" points="223,-74 179,-74 179,-55 223,-55 223,-74"/>
<text text-anchor="middle" x="201" y="-62" font-family="Helvetica,sans-Serif" font-size="10.00">glib.h</text>
</a>
</g>
</g>
<!-- Node3&#45;&gt;Node4 -->
<g id="edge4_Node000003_Node000004" class="edge">
<title>Node3&#45;&gt;Node4</title>
<g id="a_edge4_Node000003_Node000004"><a xlink:title=" ">
<path fill="none" stroke="#63b8ff" d="M219.59,-167.88C174.56,-161.26 110.15,-148.62 95,-129 72.08,-99.3 129.93,-80.55 168.9,-71.64"/>
<polygon fill="#63b8ff" stroke="#63b8ff" points="169.8,-75.03 178.83,-69.49 168.31,-68.19 169.8,-75.03"/>
</a>
</g>
</g>
<!-- Node5 -->
<g id="Node000005" class="node">
<title>Node5</title>
<g id="a_Node000005"><a xlink:title=" ">
<polygon fill="#e0e0e0" stroke="#999999" points="172,-129 104,-129 104,-110 172,-110 172,-129"/>
<text text-anchor="middle" x="138" y="-117" font-family="Helvetica,sans-Serif" font-size="10.00">gmodule.h</text>
</a>
</g>
</g>
<!-- Node3&#45;&gt;Node5 -->
<g id="edge5_Node000003_Node000005" class="edge">
<title>Node3&#45;&gt;Node5</title>
<g id="a_edge5_Node000003_Node000005"><a xlink:title=" ">
<path fill="none" stroke="#63b8ff" d="M244.6,-164.98C223.98,-156.38 191.89,-142.99 168.31,-133.15"/>
<polygon fill="#63b8ff" stroke="#63b8ff" points="169.35,-129.79 158.78,-129.17 166.66,-136.25 169.35,-129.79"/>
</a>
</g>
</g>
<!-- Node6 -->
<g id="Node000006" class="node">
<title>Node6</title>
<g id="a_Node000006"><a xlink:title=" ">
<polygon fill="#e0e0e0" stroke="#999999" points="240,-129 190,-129 190,-110 240,-110 240,-129"/>
<text text-anchor="middle" x="215" y="-117" font-family="Helvetica,sans-Serif" font-size="10.00">cairo.h</text>
</a>
</g>
</g>
<!-- Node3&#45;&gt;Node6 -->
<g id="edge6_Node000003_Node000006" class="edge">
<title>Node3&#45;&gt;Node6</title>
<g id="a_edge6_Node000003_Node000006"><a xlink:title=" ">
<path fill="none" stroke="#63b8ff" d="M256.74,-164.75C249.54,-157.11 238.89,-145.82 230.15,-136.56"/>
<polygon fill="#63b8ff" stroke="#63b8ff" points="232.51,-133.96 223.1,-129.09 227.42,-138.76 232.51,-133.96"/>
</a>
</g>
</g>
<!-- Node7 -->
<g id="Node000007" class="node">
<title>Node7</title>
<g id="a_Node000007"><a xlink:href="ev-document-info_8h.html" target="_top" xlink:title=" ">
<polygon fill="white" stroke="#666666" points="371.5,-129 258.5,-129 258.5,-110 371.5,-110 371.5,-129"/>
<text text-anchor="middle" x="315" y="-117" font-family="Helvetica,sans-Serif" font-size="10.00">ev&#45;document&#45;info.h</text>
</a>
</g>
</g>
<!-- Node3&#45;&gt;Node7 -->
<g id="edge7_Node000003_Node000007" class="edge">
<title>Node3&#45;&gt;Node7</title>
<g id="a_edge7_Node000003_Node000007"><a xlink:title=" ">
<path fill="none" stroke="#63b8ff" d="M273.26,-164.75C280.46,-157.11 291.11,-145.82 299.85,-136.56"/>
<polygon fill="#63b8ff" stroke="#63b8ff" points="302.58,-138.76 306.9,-129.09 297.49,-133.96 302.58,-138.76"/>
</a>
</g>
</g>
<!-- Node8 -->
<g id="Node000008" class="node">
<title>Node8</title>
<g id="a_Node000008"><a xlink:href="ev-page_8h.html" target="_top" xlink:title=" ">
<polygon fill="white" stroke="#666666" points="456.5,-74 391.5,-74 391.5,-55 456.5,-55 456.5,-74"/>
<text text-anchor="middle" x="424" y="-62" font-family="Helvetica,sans-Serif" font-size="10.00">ev&#45;page.h</text>
</a>
</g>
</g>
<!-- Node3&#45;&gt;Node8 -->
<g id="edge10_Node000003_Node000008" class="edge">
<title>Node3&#45;&gt;Node8</title>
<g id="a_edge10_Node000003_Node000008"><a xlink:title=" ">
<path fill="none" stroke="#63b8ff" d="M302.84,-164.98C326.78,-158.19 357.38,-146.81 380,-129 395.6,-116.71 407.88,-97.4 415.45,-83.29"/>
<polygon fill="#63b8ff" stroke="#63b8ff" points="418.7,-84.62 420.12,-74.12 412.46,-81.45 418.7,-84.62"/>
</a>
</g>
</g>
<!-- Node9 -->
<g id="Node000009" class="node">
<title>Node9</title>
<g id="a_Node000009"><a xlink:href="ev-render-context_8h.html" target="_top" xlink:title=" ">
<polygon fill="white" stroke="#666666" points="541.5,-129 428.5,-129 428.5,-110 541.5,-110 541.5,-129"/>
<text text-anchor="middle" x="485" y="-117" font-family="Helvetica,sans-Serif" font-size="10.00">ev&#45;render&#45;context.h</text>
</a>
</g>
</g>
<!-- Node3&#45;&gt;Node9 -->
<g id="edge12_Node000003_Node000009" class="edge">
<title>Node3&#45;&gt;Node9</title>
<g id="a_edge12_Node000003_Node000009"><a xlink:title=" ">
<path fill="none" stroke="#63b8ff" d="M300.35,-164.98C338.16,-155.87 398.26,-141.4 439.57,-131.45"/>
<polygon fill="#63b8ff" stroke="#63b8ff" points="440.47,-134.83 449.38,-129.08 438.83,-128.02 440.47,-134.83"/>
</a>
</g>
</g>
<!-- Node7&#45;&gt;Node2 -->
<g id="edge8_Node000007_Node000002" class="edge">
<title>Node7&#45;&gt;Node2</title>
<g id="a_edge8_Node000007_Node000002"><a xlink:title=" ">
<path fill="none" stroke="#63b8ff" d="M323.17,-109.69C335.3,-96.84 359.14,-72.6 382,-55 397,-43.46 415.13,-32.26 429.44,-23.99"/>
<polygon fill="#63b8ff" stroke="#63b8ff" points="431.26,-26.99 438.23,-19 427.8,-20.9 431.26,-26.99"/>
</a>
</g>
</g>
<!-- Node7&#45;&gt;Node4 -->
<g id="edge9_Node000007_Node000004" class="edge">
<title>Node7&#45;&gt;Node4</title>
<g id="a_edge9_Node000007_Node000004"><a xlink:title=" ">
<path fill="none" stroke="#63b8ff" d="M296.68,-109.98C278.34,-101.46 249.89,-88.23 228.77,-78.41"/>
<polygon fill="#63b8ff" stroke="#63b8ff" points="230.19,-75.21 219.65,-74.17 227.24,-81.56 230.19,-75.21"/>
</a>
</g>
</g>
<!-- Node8&#45;&gt;Node2 -->
<g id="edge11_Node000008_Node000002" class="edge">
<title>Node8&#45;&gt;Node2</title>
<g id="a_edge11_Node000008_Node000002"><a xlink:title=" ">
<path fill="none" stroke="#63b8ff" d="M428.95,-54.75C433.06,-47.49 439.03,-36.95 444.1,-27.98"/>
<polygon fill="#63b8ff" stroke="#63b8ff" points="447.26,-29.52 449.14,-19.09 441.17,-26.07 447.26,-29.52"/>
</a>
</g>
</g>
<!-- Node9&#45;&gt;Node2 -->
<g id="edge13_Node000009_Node000002" class="edge">
<title>Node9&#45;&gt;Node2</title>
<g id="a_edge13_Node000009_Node000002"><a xlink:title=" ">
<path fill="none" stroke="#63b8ff" d="M482.46,-109.66C477.42,-92.09 466.04,-52.45 459.3,-28.95"/>
<polygon fill="#63b8ff" stroke="#63b8ff" points="462.61,-27.8 456.49,-19.16 455.88,-29.74 462.61,-27.8"/>
</a>
</g>
</g>
<!-- Node9&#45;&gt;Node8 -->
<g id="edge14_Node000009_Node000008" class="edge">
<title>Node9&#45;&gt;Node8</title>
<g id="a_edge14_Node000009_Node000008"><a xlink:title=" ">
<path fill="none" stroke="#63b8ff" d="M475.2,-109.98C466.18,-102.15 452.59,-90.34 441.68,-80.86"/>
<polygon fill="#63b8ff" stroke="#63b8ff" points="443.82,-78.09 433.98,-74.17 439.23,-83.37 443.82,-78.09"/>
</a>
</g>
</g>
<!-- Node10&#45;&gt;Node2 -->
<g id="edge16_Node000010_Node000002" class="edge">
<title>Node10&#45;&gt;Node2</title>
<g id="a_edge16_Node000010_Node000002"><a xlink:title=" ">
<path fill="none" stroke="#63b8ff" d="M484.15,-220C511.05,-201.46 568.33,-155.4 550,-110 535.1,-73.09 499.22,-42.25 475.8,-25.1"/>
<polygon fill="#63b8ff" stroke="#63b8ff" points="477.68,-22.15 467.5,-19.22 473.63,-27.86 477.68,-22.15"/>
</a>
</g>
</g>
<!-- Node10&#45;&gt;Node3 -->
<g id="edge17_Node000010_Node000003" class="edge">
<title>Node10&#45;&gt;Node3</title>
<g id="a_edge17_Node000010_Node000003"><a xlink:title=" ">
<path fill="none" stroke="#63b8ff" d="M441.49,-220.91C406.51,-211.91 347.95,-196.84 307.96,-186.55"/>
<polygon fill="#63b8ff" stroke="#63b8ff" points="308.77,-183.15 298.21,-184.05 307.03,-189.93 308.77,-183.15"/>
</a>
</g>
</g>
<!-- Node11 -->
<g id="Node000011" class="node">
<title>Node11</title>
<g id="a_Node000011"><a xlink:href="ev-link-action_8h.html" target="_top" xlink:title=" ">
<polygon fill="white" stroke="#666666" points="691.5,-129 598.5,-129 598.5,-110 691.5,-110 691.5,-129"/>
<text text-anchor="middle" x="645" y="-117" font-family="Helvetica,sans-Serif" font-size="10.00">ev&#45;link&#45;action.h</text>
</a>
</g>
</g>
<!-- Node10&#45;&gt;Node11 -->
<g id="edge18_Node000010_Node000011" class="edge">
<title>Node10&#45;&gt;Node11</title>
<g id="a_edge18_Node000010_Node000011"><a xlink:title=" ">
<path fill="none" stroke="#63b8ff" d="M500.52,-220.7C524.36,-213.53 558.08,-201.37 584,-184 603.35,-171.03 621.28,-151.01 632.62,-136.92"/>
<polygon fill="#63b8ff" stroke="#63b8ff" points="635.38,-139.06 638.78,-129.03 629.87,-134.75 635.38,-139.06"/>
</a>
</g>
</g>
<!-- Node11&#45;&gt;Node2 -->
<g id="edge19_Node000011_Node000002" class="edge">
<title>Node11&#45;&gt;Node2</title>
<g id="a_edge19_Node000011_Node000002"><a xlink:title=" ">
<path fill="none" stroke="#63b8ff" d="M638.87,-109.85C628.85,-96.31 607.72,-70.12 584,-55 559.14,-39.15 527.98,-28.23 502.4,-21.18"/>
<polygon fill="#63b8ff" stroke="#63b8ff" points="503.1,-17.74 492.54,-18.57 501.31,-24.51 503.1,-17.74"/>
</a>
</g>
</g>
<!-- Node12 -->
<g id="Node000012" class="node">
<title>Node12</title>
<g id="a_Node000012"><a xlink:href="ev-link-dest_8h.html" target="_top" xlink:title=" ">
<polygon fill="white" stroke="#666666" points="720,-74 636,-74 636,-55 720,-55 720,-74"/>
<text text-anchor="middle" x="678" y="-62" font-family="Helvetica,sans-Serif" font-size="10.00">ev&#45;link&#45;dest.h</text>
</a>
</g>
</g>
<!-- Node11&#45;&gt;Node12 -->
<g id="edge20_Node000011_Node000012" class="edge">
<title>Node11&#45;&gt;Node12</title>
<g id="a_edge20_Node000011_Node000012"><a xlink:title=" ">
<path fill="none" stroke="#63b8ff" d="M650.45,-109.75C655.01,-102.42 661.67,-91.73 667.29,-82.7"/>
<polygon fill="#63b8ff" stroke="#63b8ff" points="670.34,-84.43 672.65,-74.09 664.4,-80.73 670.34,-84.43"/>
</a>
</g>
</g>
<!-- Node12&#45;&gt;Node2 -->
<g id="edge21_Node000012_Node000002" class="edge">
<title>Node12&#45;&gt;Node2</title>
<g id="a_edge21_Node000012_Node000002"><a xlink:title=" ">
<path fill="none" stroke="#63b8ff" d="M642.01,-54.98C603.51,-45.87 542.31,-31.4 500.26,-21.45"/>
<polygon fill="#63b8ff" stroke="#63b8ff" points="500.81,-17.98 490.27,-19.08 499.2,-24.79 500.81,-17.98"/>
</a>
</g>
</g>
</g>
</svg>
