<?xml version="1.0" encoding="UTF-8" standalone="no"?>
<!DOCTYPE svg PUBLIC "-//W3C//DTD SVG 1.1//EN"
 "http://www.w3.org/Graphics/SVG/1.1/DTD/svg11.dtd">
<!-- Generated by graphviz version 2.43.0 (0)
 -->
<!-- Title: ev&#45;metadata.h Pages: 1 -->
<svg width="651pt" height="192pt"
 viewBox="0.00 0.00 650.50 192.00" xmlns="http://www.w3.org/2000/svg" xmlns:xlink="http://www.w3.org/1999/xlink">
<g id="graph0" class="graph" transform="scale(1 1) rotate(0) translate(4 188)">
<title>ev&#45;metadata.h</title>
<!-- Node1 -->
<g id="Node000001" class="node">
<title>Node1</title>
<g id="a_Node000001"><a xlink:title=" ">
<polygon fill="#999999" stroke="#666666" points="539,-184 450,-184 450,-165 539,-165 539,-184"/>
<text text-anchor="middle" x="494.5" y="-172" font-family="Helvetica,sans-Serif" font-size="10.00">ev&#45;metadata.h</text>
</a>
</g>
</g>
<!-- Node2 -->
<g id="Node000002" class="node">
<title>Node2</title>
<g id="a_Node000002"><a xlink:href="ev-bookmarks_8h.html" target="_top" xlink:title=" ">
<polygon fill="white" stroke="#666666" points="314.5,-129 218.5,-129 218.5,-110 314.5,-110 314.5,-129"/>
<text text-anchor="middle" x="266.5" y="-117" font-family="Helvetica,sans-Serif" font-size="10.00">ev&#45;bookmarks.h</text>
</a>
</g>
</g>
<!-- Node1&#45;&gt;Node2 -->
<g id="edge1_Node000001_Node000002" class="edge">
<title>Node1&#45;&gt;Node2</title>
<g id="a_edge1_Node000001_Node000002"><a xlink:title=" ">
<path fill="none" stroke="#63b8ff" d="M448,-162.69C405.28,-152.76 342.8,-138.24 303.42,-129.08"/>
<polygon fill="#63b8ff" stroke="#63b8ff" points="447.34,-166.13 457.87,-164.98 448.92,-159.31 447.34,-166.13"/>
</a>
</g>
</g>
<!-- Node5 -->
<g id="Node000005" class="node">
<title>Node5</title>
<g id="a_Node000005"><a xlink:href="ev-window_8c.html" target="_top" xlink:title=" ">
<polygon fill="white" stroke="#666666" points="305,-19 228,-19 228,0 305,0 305,-19"/>
<text text-anchor="middle" x="266.5" y="-7" font-family="Helvetica,sans-Serif" font-size="10.00">ev&#45;window.c</text>
</a>
</g>
</g>
<!-- Node1&#45;&gt;Node5 -->
<g id="edge11_Node000001_Node000005" class="edge">
<title>Node1&#45;&gt;Node5</title>
<g id="a_edge11_Node000001_Node000005"><a xlink:title=" ">
<path fill="none" stroke="#63b8ff" d="M487.17,-155.54C474.2,-124.13 447.8,-61.91 439.5,-55 429.13,-46.37 352.94,-28.91 305.19,-18.62"/>
<polygon fill="#63b8ff" stroke="#63b8ff" points="483.97,-156.96 491,-164.88 490.44,-154.3 483.97,-156.96"/>
</a>
</g>
</g>
<!-- Node9 -->
<g id="Node000009" class="node">
<title>Node9</title>
<g id="a_Node000009"><a xlink:href="ev-metadata_8c.html" target="_top" xlink:title=" ">
<polygon fill="white" stroke="#666666" points="574.5,-129 486.5,-129 486.5,-110 574.5,-110 574.5,-129"/>
<text text-anchor="middle" x="530.5" y="-117" font-family="Helvetica,sans-Serif" font-size="10.00">ev&#45;metadata.c</text>
</a>
</g>
</g>
<!-- Node1&#45;&gt;Node9 -->
<g id="edge10_Node000001_Node000009" class="edge">
<title>Node1&#45;&gt;Node9</title>
<g id="a_edge10_Node000001_Node000009"><a xlink:title=" ">
<path fill="none" stroke="#63b8ff" d="M506.12,-156.39C512.32,-147.27 519.67,-136.45 524.67,-129.09"/>
<polygon fill="#63b8ff" stroke="#63b8ff" points="503.17,-154.51 500.44,-164.75 508.96,-158.44 503.17,-154.51"/>
</a>
</g>
</g>
<!-- Node10 -->
<g id="Node000010" class="node">
<title>Node10</title>
<g id="a_Node000010"><a xlink:href="atril_2shell_2main_8c.html" target="_top" xlink:title=" ">
<polygon fill="white" stroke="#666666" points="642.5,-129 592.5,-129 592.5,-110 642.5,-110 642.5,-129"/>
<text text-anchor="middle" x="617.5" y="-117" font-family="Helvetica,sans-Serif" font-size="10.00">main.c</text>
</a>
</g>
</g>
<!-- Node1&#45;&gt;Node10 -->
<g id="edge12_Node000001_Node000010" class="edge">
<title>Node1&#45;&gt;Node10</title>
<g id="a_edge12_Node000001_Node000010"><a xlink:title=" ">
<path fill="none" stroke="#63b8ff" d="M523.75,-160.9C546.47,-151.11 577.37,-137.79 597.38,-129.17"/>
<polygon fill="#63b8ff" stroke="#63b8ff" points="522.06,-157.81 514.26,-164.98 524.83,-164.24 522.06,-157.81"/>
</a>
</g>
</g>
<!-- Node3 -->
<g id="Node000003" class="node">
<title>Node3</title>
<g id="a_Node000003"><a xlink:href="ev-bookmark-action_8h.html" target="_top" xlink:title=" ">
<polygon fill="white" stroke="#666666" points="125,-74 0,-74 0,-55 125,-55 125,-74"/>
<text text-anchor="middle" x="62.5" y="-62" font-family="Helvetica,sans-Serif" font-size="10.00">ev&#45;bookmark&#45;action.h</text>
</a>
</g>
</g>
<!-- Node2&#45;&gt;Node3 -->
<g id="edge2_Node000002_Node000003" class="edge">
<title>Node2&#45;&gt;Node3</title>
<g id="a_edge2_Node000002_Node000003"><a xlink:title=" ">
<path fill="none" stroke="#63b8ff" d="M223.92,-107.44C185.73,-97.52 130.48,-83.16 95.53,-74.08"/>
<polygon fill="#63b8ff" stroke="#63b8ff" points="223.17,-110.86 233.72,-109.98 224.93,-104.08 223.17,-110.86"/>
</a>
</g>
</g>
<!-- Node2&#45;&gt;Node5 -->
<g id="edge9_Node000002_Node000005" class="edge">
<title>Node2&#45;&gt;Node5</title>
<g id="a_edge9_Node000002_Node000005"><a xlink:title=" ">
<path fill="none" stroke="#63b8ff" d="M266.5,-99.48C266.5,-75.84 266.5,-36.5 266.5,-19.16"/>
<polygon fill="#63b8ff" stroke="#63b8ff" points="263,-99.66 266.5,-109.66 270,-99.66 263,-99.66"/>
</a>
</g>
</g>
<!-- Node6 -->
<g id="Node000006" class="node">
<title>Node6</title>
<g id="a_Node000006"><a xlink:href="ev-bookmarks_8c.html" target="_top" xlink:title=" ">
<polygon fill="white" stroke="#666666" points="238,-74 143,-74 143,-55 238,-55 238,-74"/>
<text text-anchor="middle" x="190.5" y="-62" font-family="Helvetica,sans-Serif" font-size="10.00">ev&#45;bookmarks.c</text>
</a>
</g>
</g>
<!-- Node2&#45;&gt;Node6 -->
<g id="edge5_Node000002_Node000006" class="edge">
<title>Node2&#45;&gt;Node6</title>
<g id="a_edge5_Node000002_Node000006"><a xlink:title=" ">
<path fill="none" stroke="#63b8ff" d="M245.92,-104.15C232.19,-94.57 214.57,-82.29 202.93,-74.17"/>
<polygon fill="#63b8ff" stroke="#63b8ff" points="244.08,-107.14 254.29,-109.98 248.09,-101.39 244.08,-107.14"/>
</a>
</g>
</g>
<!-- Node7 -->
<g id="Node000007" class="node">
<title>Node7</title>
<g id="a_Node000007"><a xlink:href="ev-sidebar-bookmarks_8h.html" target="_top" xlink:title=" ">
<polygon fill="white" stroke="#666666" points="430.5,-74 294.5,-74 294.5,-55 430.5,-55 430.5,-74"/>
<text text-anchor="middle" x="362.5" y="-62" font-family="Helvetica,sans-Serif" font-size="10.00">ev&#45;sidebar&#45;bookmarks.h</text>
</a>
</g>
</g>
<!-- Node2&#45;&gt;Node7 -->
<g id="edge6_Node000002_Node000007" class="edge">
<title>Node2&#45;&gt;Node7</title>
<g id="a_edge6_Node000002_Node000007"><a xlink:title=" ">
<path fill="none" stroke="#63b8ff" d="M291.02,-104.97C308.56,-95.28 331.67,-82.52 346.8,-74.17"/>
<polygon fill="#63b8ff" stroke="#63b8ff" points="288.99,-102.09 281.92,-109.98 292.37,-108.22 288.99,-102.09"/>
</a>
</g>
</g>
<!-- Node4 -->
<g id="Node000004" class="node">
<title>Node4</title>
<g id="a_Node000004"><a xlink:href="ev-bookmark-action_8c.html" target="_top" xlink:title=" ">
<polygon fill="white" stroke="#666666" points="124.5,-19 0.5,-19 0.5,0 124.5,0 124.5,-19"/>
<text text-anchor="middle" x="62.5" y="-7" font-family="Helvetica,sans-Serif" font-size="10.00">ev&#45;bookmark&#45;action.c</text>
</a>
</g>
</g>
<!-- Node3&#45;&gt;Node4 -->
<g id="edge3_Node000003_Node000004" class="edge">
<title>Node3&#45;&gt;Node4</title>
<g id="a_edge3_Node000003_Node000004"><a xlink:title=" ">
<path fill="none" stroke="#63b8ff" d="M62.5,-44.66C62.5,-35.93 62.5,-25.99 62.5,-19.09"/>
<polygon fill="#63b8ff" stroke="#63b8ff" points="59,-44.75 62.5,-54.75 66,-44.75 59,-44.75"/>
</a>
</g>
</g>
<!-- Node3&#45;&gt;Node5 -->
<g id="edge4_Node000003_Node000005" class="edge">
<title>Node3&#45;&gt;Node5</title>
<g id="a_edge4_Node000003_Node000005"><a xlink:title=" ">
<path fill="none" stroke="#63b8ff" d="M105.08,-52.44C143.27,-42.52 198.52,-28.16 233.47,-19.08"/>
<polygon fill="#63b8ff" stroke="#63b8ff" points="104.07,-49.08 95.28,-54.98 105.83,-55.86 104.07,-49.08"/>
</a>
</g>
</g>
<!-- Node7&#45;&gt;Node5 -->
<g id="edge8_Node000007_Node000005" class="edge">
<title>Node7&#45;&gt;Node5</title>
<g id="a_edge8_Node000007_Node000005"><a xlink:title=" ">
<path fill="none" stroke="#63b8ff" d="M337.98,-49.97C320.44,-40.28 297.33,-27.52 282.2,-19.17"/>
<polygon fill="#63b8ff" stroke="#63b8ff" points="336.63,-53.22 347.08,-54.98 340.01,-47.09 336.63,-53.22"/>
</a>
</g>
</g>
<!-- Node8 -->
<g id="Node000008" class="node">
<title>Node8</title>
<g id="a_Node000008"><a xlink:href="ev-sidebar-bookmarks_8c.html" target="_top" xlink:title=" ">
<polygon fill="white" stroke="#666666" points="458,-19 323,-19 323,0 458,0 458,-19"/>
<text text-anchor="middle" x="390.5" y="-7" font-family="Helvetica,sans-Serif" font-size="10.00">ev&#45;sidebar&#45;bookmarks.c</text>
</a>
</g>
</g>
<!-- Node7&#45;&gt;Node8 -->
<g id="edge7_Node000007_Node000008" class="edge">
<title>Node7&#45;&gt;Node8</title>
<g id="a_edge7_Node000007_Node000008"><a xlink:title=" ">
<path fill="none" stroke="#63b8ff" d="M371.84,-45.82C376.59,-36.82 382.16,-26.29 385.96,-19.09"/>
<polygon fill="#63b8ff" stroke="#63b8ff" points="368.7,-44.27 367.12,-54.75 374.89,-47.54 368.7,-44.27"/>
</a>
</g>
</g>
</g>
</svg>
