<?xml version="1.0" encoding="UTF-8" standalone="no"?>
<!DOCTYPE svg PUBLIC "-//W3C//DTD SVG 1.1//EN"
 "http://www.w3.org/Graphics/SVG/1.1/DTD/svg11.dtd">
<!-- Generated by graphviz version 2.43.0 (0)
 -->
<!-- Title: ev&#45;pixbuf&#45;cache.h Pages: 1 -->
<svg width="902pt" height="137pt"
 viewBox="0.00 0.00 901.50 137.00" xmlns="http://www.w3.org/2000/svg" xmlns:xlink="http://www.w3.org/1999/xlink">
<g id="graph0" class="graph" transform="scale(1 1) rotate(0) translate(4 133)">
<title>ev&#45;pixbuf&#45;cache.h</title>
<!-- Node1 -->
<g id="Node000001" class="node">
<title>Node1</title>
<g id="a_Node000001"><a xlink:title=" ">
<polygon fill="#999999" stroke="#666666" points="535.5,-129 431.5,-129 431.5,-110 535.5,-110 535.5,-129"/>
<text text-anchor="middle" x="483.5" y="-117" font-family="Helvetica,sans-Serif" font-size="10.00">ev&#45;pixbuf&#45;cache.h</text>
</a>
</g>
</g>
<!-- Node2 -->
<g id="Node000002" class="node">
<title>Node2</title>
<g id="a_Node000002"><a xlink:href="ev-pixbuf-cache_8c.html" target="_top" xlink:title=" ">
<polygon fill="white" stroke="#666666" points="103,-19 0,-19 0,0 103,0 103,-19"/>
<text text-anchor="middle" x="51.5" y="-7" font-family="Helvetica,sans-Serif" font-size="10.00">ev&#45;pixbuf&#45;cache.c</text>
</a>
</g>
</g>
<!-- Node1&#45;&gt;Node2 -->
<g id="edge1_Node000001_Node000002" class="edge">
<title>Node1&#45;&gt;Node2</title>
<g id="a_edge1_Node000001_Node000002"><a xlink:title=" ">
<path fill="none" stroke="#63b8ff" d="M439.49,-107.5C353.22,-85.93 163.51,-38.5 85.76,-19.07"/>
<polygon fill="#63b8ff" stroke="#63b8ff" points="438.69,-110.91 449.24,-109.94 440.39,-104.11 438.69,-110.91"/>
</a>
</g>
</g>
<!-- Node3 -->
<g id="Node000003" class="node">
<title>Node3</title>
<g id="a_Node000003"><a xlink:href="ev-view-private_8h.html" target="_top" xlink:title=" ">
<polygon fill="white" stroke="#666666" points="534.5,-74 432.5,-74 432.5,-55 534.5,-55 534.5,-74"/>
<text text-anchor="middle" x="483.5" y="-62" font-family="Helvetica,sans-Serif" font-size="10.00">ev&#45;view&#45;private.h</text>
</a>
</g>
</g>
<!-- Node1&#45;&gt;Node3 -->
<g id="edge2_Node000001_Node000003" class="edge">
<title>Node1&#45;&gt;Node3</title>
<g id="a_edge2_Node000001_Node000003"><a xlink:title=" ">
<path fill="none" stroke="#63b8ff" d="M483.5,-99.66C483.5,-90.93 483.5,-80.99 483.5,-74.09"/>
<polygon fill="#63b8ff" stroke="#63b8ff" points="480,-99.75 483.5,-109.75 487,-99.75 480,-99.75"/>
</a>
</g>
</g>
<!-- Node9 -->
<g id="Node000009" class="node">
<title>Node9</title>
<g id="a_Node000009"><a xlink:href="ev-view_8c.html" target="_top" xlink:title=" ">
<polygon fill="white" stroke="#666666" points="893.5,-19 831.5,-19 831.5,0 893.5,0 893.5,-19"/>
<text text-anchor="middle" x="862.5" y="-7" font-family="Helvetica,sans-Serif" font-size="10.00">ev&#45;view.c</text>
</a>
</g>
</g>
<!-- Node1&#45;&gt;Node9 -->
<g id="edge10_Node000001_Node000009" class="edge">
<title>Node1&#45;&gt;Node9</title>
<g id="a_edge10_Node000001_Node000009"><a xlink:title=" ">
<path fill="none" stroke="#63b8ff" d="M523.27,-107.17C599.48,-85.45 764.58,-38.4 832.44,-19.07"/>
<polygon fill="#63b8ff" stroke="#63b8ff" points="522.21,-103.83 513.56,-109.94 524.13,-110.56 522.21,-103.83"/>
</a>
</g>
</g>
<!-- Node3&#45;&gt;Node2 -->
<g id="edge7_Node000003_Node000002" class="edge">
<title>Node3&#45;&gt;Node2</title>
<g id="a_edge7_Node000003_Node000002"><a xlink:title=" ">
<path fill="none" stroke="#63b8ff" d="M422.27,-56.59C348.5,-48.16 220.84,-33.28 111.5,-19 108.79,-18.65 106.01,-18.28 103.2,-17.9"/>
<polygon fill="#63b8ff" stroke="#63b8ff" points="421.98,-60.08 432.31,-57.73 422.77,-53.12 421.98,-60.08"/>
</a>
</g>
</g>
<!-- Node4 -->
<g id="Node000004" class="node">
<title>Node4</title>
<g id="a_Node000004"><a xlink:href="ev-form-field-accessible_8c.html" target="_top" xlink:title=" ">
<polygon fill="white" stroke="#666666" points="264,-19 121,-19 121,0 264,0 264,-19"/>
<text text-anchor="middle" x="192.5" y="-7" font-family="Helvetica,sans-Serif" font-size="10.00">ev&#45;form&#45;field&#45;accessible.c</text>
</a>
</g>
</g>
<!-- Node3&#45;&gt;Node4 -->
<g id="edge3_Node000003_Node000004" class="edge">
<title>Node3&#45;&gt;Node4</title>
<g id="a_edge3_Node000003_Node000004"><a xlink:title=" ">
<path fill="none" stroke="#63b8ff" d="M426.89,-53.19C372.33,-43.25 290.74,-28.39 239.62,-19.08"/>
<polygon fill="#63b8ff" stroke="#63b8ff" points="426.28,-56.64 436.75,-54.98 427.53,-49.75 426.28,-56.64"/>
</a>
</g>
</g>
<!-- Node5 -->
<g id="Node000005" class="node">
<title>Node5</title>
<g id="a_Node000005"><a xlink:href="ev-image-accessible_8c.html" target="_top" xlink:title=" ">
<polygon fill="white" stroke="#666666" points="408.5,-19 282.5,-19 282.5,0 408.5,0 408.5,-19"/>
<text text-anchor="middle" x="345.5" y="-7" font-family="Helvetica,sans-Serif" font-size="10.00">ev&#45;image&#45;accessible.c</text>
</a>
</g>
</g>
<!-- Node3&#45;&gt;Node5 -->
<g id="edge4_Node000003_Node000005" class="edge">
<title>Node3&#45;&gt;Node5</title>
<g id="a_edge4_Node000003_Node000005"><a xlink:title=" ">
<path fill="none" stroke="#63b8ff" d="M451.71,-51.29C426.13,-41.47 390.83,-27.91 368.08,-19.17"/>
<polygon fill="#63b8ff" stroke="#63b8ff" points="450.74,-54.67 461.33,-54.98 453.25,-48.13 450.74,-54.67"/>
</a>
</g>
</g>
<!-- Node6 -->
<g id="Node000006" class="node">
<title>Node6</title>
<g id="a_Node000006"><a xlink:href="ev-link-accessible_8c.html" target="_top" xlink:title=" ">
<polygon fill="white" stroke="#666666" points="540,-19 427,-19 427,0 540,0 540,-19"/>
<text text-anchor="middle" x="483.5" y="-7" font-family="Helvetica,sans-Serif" font-size="10.00">ev&#45;link&#45;accessible.c</text>
</a>
</g>
</g>
<!-- Node3&#45;&gt;Node6 -->
<g id="edge5_Node000003_Node000006" class="edge">
<title>Node3&#45;&gt;Node6</title>
<g id="a_edge5_Node000003_Node000006"><a xlink:title=" ">
<path fill="none" stroke="#63b8ff" d="M483.5,-44.66C483.5,-35.93 483.5,-25.99 483.5,-19.09"/>
<polygon fill="#63b8ff" stroke="#63b8ff" points="480,-44.75 483.5,-54.75 487,-44.75 480,-44.75"/>
</a>
</g>
</g>
<!-- Node7 -->
<g id="Node000007" class="node">
<title>Node7</title>
<g id="a_Node000007"><a xlink:href="ev-page-accessible_8c.html" target="_top" xlink:title=" ">
<polygon fill="white" stroke="#666666" points="677,-19 558,-19 558,0 677,0 677,-19"/>
<text text-anchor="middle" x="617.5" y="-7" font-family="Helvetica,sans-Serif" font-size="10.00">ev&#45;page&#45;accessible.c</text>
</a>
</g>
</g>
<!-- Node3&#45;&gt;Node7 -->
<g id="edge6_Node000003_Node000007" class="edge">
<title>Node3&#45;&gt;Node7</title>
<g id="a_edge6_Node000003_Node000007"><a xlink:title=" ">
<path fill="none" stroke="#63b8ff" d="M514.37,-51.29C539.2,-41.47 573.49,-27.91 595.58,-19.17"/>
<polygon fill="#63b8ff" stroke="#63b8ff" points="513.04,-48.05 505.03,-54.98 515.62,-54.56 513.04,-48.05"/>
</a>
</g>
</g>
<!-- Node8 -->
<g id="Node000008" class="node">
<title>Node8</title>
<g id="a_Node000008"><a xlink:href="ev-view-accessible_8c.html" target="_top" xlink:title=" ">
<polygon fill="white" stroke="#666666" points="813.5,-19 695.5,-19 695.5,0 813.5,0 813.5,-19"/>
<text text-anchor="middle" x="754.5" y="-7" font-family="Helvetica,sans-Serif" font-size="10.00">ev&#45;view&#45;accessible.c</text>
</a>
</g>
</g>
<!-- Node3&#45;&gt;Node8 -->
<g id="edge8_Node000003_Node000008" class="edge">
<title>Node3&#45;&gt;Node8</title>
<g id="a_edge8_Node000003_Node000008"><a xlink:title=" ">
<path fill="none" stroke="#63b8ff" d="M536.86,-53.07C587.66,-43.13 663.21,-28.35 710.62,-19.08"/>
<polygon fill="#63b8ff" stroke="#63b8ff" points="536.18,-49.63 527.04,-54.98 537.53,-56.5 536.18,-49.63"/>
</a>
</g>
</g>
<!-- Node3&#45;&gt;Node9 -->
<g id="edge9_Node000003_Node000009" class="edge">
<title>Node3&#45;&gt;Node9</title>
<g id="a_edge9_Node000003_Node000009"><a xlink:title=" ">
<path fill="none" stroke="#63b8ff" d="M544.63,-56.95C612.68,-49.31 725.81,-35.59 822.5,-19 825.3,-18.52 828.2,-17.98 831.1,-17.42"/>
<polygon fill="#63b8ff" stroke="#63b8ff" points="544.07,-53.49 534.52,-58.07 544.84,-60.44 544.07,-53.49"/>
</a>
</g>
</g>
</g>
</svg>
