<?xml version="1.0" encoding="UTF-8" standalone="no"?>
<!DOCTYPE svg PUBLIC "-//W3C//DTD SVG 1.1//EN"
 "http://www.w3.org/Graphics/SVG/1.1/DTD/svg11.dtd">
<!-- Generated by graphviz version 2.43.0 (0)
 -->
<!-- Title: ev&#45;spectre.c Pages: 1 -->
<svg width="957pt" height="302pt"
 viewBox="0.00 0.00 957.00 302.00" xmlns="http://www.w3.org/2000/svg" xmlns:xlink="http://www.w3.org/1999/xlink">
<g id="graph0" class="graph" transform="scale(1 1) rotate(0) translate(4 298)">
<title>ev&#45;spectre.c</title>
<!-- Node1 -->
<g id="Node000001" class="node">
<title>Node1</title>
<g id="a_Node000001"><a xlink:title=" ">
<polygon fill="#999999" stroke="#666666" points="402,-294 325,-294 325,-275 402,-275 402,-294"/>
<text text-anchor="middle" x="363.5" y="-282" font-family="Helvetica,sans-Serif" font-size="10.00">ev&#45;spectre.c</text>
</a>
</g>
</g>
<!-- Node2 -->
<g id="Node000002" class="node">
<title>Node2</title>
<g id="a_Node000002"><a xlink:title=" ">
<polygon fill="#e0e0e0" stroke="#999999" points="55,-239 0,-239 0,-220 55,-220 55,-239"/>
<text text-anchor="middle" x="27.5" y="-227" font-family="Helvetica,sans-Serif" font-size="10.00">config.h</text>
</a>
</g>
</g>
<!-- Node1&#45;&gt;Node2 -->
<g id="edge1_Node000001_Node000002" class="edge">
<title>Node1&#45;&gt;Node2</title>
<g id="a_edge1_Node000001_Node000002"><a xlink:title=" ">
<path fill="none" stroke="#63b8ff" d="M324.97,-278.84C269.54,-271.92 163.93,-257.85 65.2,-239.2"/>
<polygon fill="#63b8ff" stroke="#63b8ff" points="65.84,-235.76 55.36,-237.32 64.52,-242.64 65.84,-235.76"/>
</a>
</g>
</g>
<!-- Node3 -->
<g id="Node000003" class="node">
<title>Node3</title>
<g id="a_Node000003"><a xlink:title=" ">
<polygon fill="#e0e0e0" stroke="#999999" points="162,-239 73,-239 73,-220 162,-220 162,-239"/>
<text text-anchor="middle" x="117.5" y="-227" font-family="Helvetica,sans-Serif" font-size="10.00">glib/gi18n&#45;lib.h</text>
</a>
</g>
</g>
<!-- Node1&#45;&gt;Node3 -->
<g id="edge2_Node000001_Node000003" class="edge">
<title>Node1&#45;&gt;Node3</title>
<g id="a_edge2_Node000001_Node000003"><a xlink:title=" ">
<path fill="none" stroke="#63b8ff" d="M324.79,-275.16C282.18,-265.98 213.58,-251.2 167.07,-241.18"/>
<polygon fill="#63b8ff" stroke="#63b8ff" points="167.72,-237.74 157.2,-239.05 166.24,-244.58 167.72,-237.74"/>
</a>
</g>
</g>
<!-- Node4 -->
<g id="Node000004" class="node">
<title>Node4</title>
<g id="a_Node000004"><a xlink:title=" ">
<polygon fill="#e0e0e0" stroke="#999999" points="233,-239 180,-239 180,-220 233,-220 233,-239"/>
<text text-anchor="middle" x="206.5" y="-227" font-family="Helvetica,sans-Serif" font-size="10.00">stdlib.h</text>
</a>
</g>
</g>
<!-- Node1&#45;&gt;Node4 -->
<g id="edge3_Node000001_Node000004" class="edge">
<title>Node1&#45;&gt;Node4</title>
<g id="a_edge3_Node000001_Node000004"><a xlink:title=" ">
<path fill="none" stroke="#63b8ff" d="M338.28,-274.98C312.14,-266.16 271.1,-252.31 241.77,-242.41"/>
<polygon fill="#63b8ff" stroke="#63b8ff" points="242.52,-238.96 231.92,-239.08 240.28,-245.6 242.52,-238.96"/>
</a>
</g>
</g>
<!-- Node5 -->
<g id="Node000005" class="node">
<title>Node5</title>
<g id="a_Node000005"><a xlink:title=" ">
<polygon fill="#e0e0e0" stroke="#999999" points="364,-239 251,-239 251,-220 364,-220 364,-239"/>
<text text-anchor="middle" x="307.5" y="-227" font-family="Helvetica,sans-Serif" font-size="10.00">libspectre/spectre.h</text>
</a>
</g>
</g>
<!-- Node1&#45;&gt;Node5 -->
<g id="edge4_Node000001_Node000005" class="edge">
<title>Node1&#45;&gt;Node5</title>
<g id="a_edge4_Node000001_Node000005"><a xlink:title=" ">
<path fill="none" stroke="#63b8ff" d="M354.5,-274.98C346.31,-267.23 333.99,-255.58 324.03,-246.14"/>
<polygon fill="#63b8ff" stroke="#63b8ff" points="326.33,-243.5 316.66,-239.17 321.52,-248.59 326.33,-243.5"/>
</a>
</g>
</g>
<!-- Node6 -->
<g id="Node000006" class="node">
<title>Node6</title>
<g id="a_Node000006"><a xlink:href="ev-spectre_8h.html" target="_top" xlink:title=" ">
<polygon fill="white" stroke="#666666" points="459,-239 382,-239 382,-220 459,-220 459,-239"/>
<text text-anchor="middle" x="420.5" y="-227" font-family="Helvetica,sans-Serif" font-size="10.00">ev&#45;spectre.h</text>
</a>
</g>
</g>
<!-- Node1&#45;&gt;Node6 -->
<g id="edge5_Node000001_Node000006" class="edge">
<title>Node1&#45;&gt;Node6</title>
<g id="a_edge5_Node000001_Node000006"><a xlink:title=" ">
<path fill="none" stroke="#63b8ff" d="M372.66,-274.98C381,-267.23 393.53,-255.58 403.68,-246.14"/>
<polygon fill="#63b8ff" stroke="#63b8ff" points="406.24,-248.54 411.18,-239.17 401.47,-243.42 406.24,-248.54"/>
</a>
</g>
</g>
<!-- Node15 -->
<g id="Node000015" class="node">
<title>Node15</title>
<g id="a_Node000015"><a xlink:href="ev-file-exporter_8h.html" target="_top" xlink:title=" ">
<polygon fill="white" stroke="#666666" points="737,-184 636,-184 636,-165 737,-165 737,-184"/>
<text text-anchor="middle" x="686.5" y="-172" font-family="Helvetica,sans-Serif" font-size="10.00">ev&#45;file&#45;exporter.h</text>
</a>
</g>
</g>
<!-- Node1&#45;&gt;Node15 -->
<g id="edge19_Node000001_Node000015" class="edge">
<title>Node1&#45;&gt;Node15</title>
<g id="a_edge19_Node000001_Node000015"><a xlink:title=" ">
<path fill="none" stroke="#63b8ff" d="M402.23,-280.52C467.39,-274.94 595.64,-261.44 634.5,-239 653.33,-228.13 668.18,-207.66 677.11,-192.89"/>
<polygon fill="#63b8ff" stroke="#63b8ff" points="680.18,-194.59 682.11,-184.17 674.1,-191.11 680.18,-194.59"/>
</a>
</g>
</g>
<!-- Node16 -->
<g id="Node000016" class="node">
<title>Node16</title>
<g id="a_Node000016"><a xlink:href="ev-document-thumbnails_8h.html" target="_top" xlink:title=" ">
<polygon fill="white" stroke="#666666" points="626,-239 477,-239 477,-220 626,-220 626,-239"/>
<text text-anchor="middle" x="551.5" y="-227" font-family="Helvetica,sans-Serif" font-size="10.00">ev&#45;document&#45;thumbnails.h</text>
</a>
</g>
</g>
<!-- Node1&#45;&gt;Node16 -->
<g id="edge22_Node000001_Node000016" class="edge">
<title>Node1&#45;&gt;Node16</title>
<g id="a_edge22_Node000001_Node000016"><a xlink:title=" ">
<path fill="none" stroke="#63b8ff" d="M393.71,-274.98C425.54,-266.01 475.86,-251.82 511.1,-241.89"/>
<polygon fill="#63b8ff" stroke="#63b8ff" points="512.38,-245.16 521.06,-239.08 510.48,-238.43 512.38,-245.16"/>
</a>
</g>
</g>
<!-- Node18 -->
<g id="Node000018" class="node">
<title>Node18</title>
<g id="a_Node000018"><a xlink:href="ev-document-misc_8h.html" target="_top" xlink:title=" ">
<polygon fill="white" stroke="#666666" points="824,-239 707,-239 707,-220 824,-220 824,-239"/>
<text text-anchor="middle" x="765.5" y="-227" font-family="Helvetica,sans-Serif" font-size="10.00">ev&#45;document&#45;misc.h</text>
</a>
</g>
</g>
<!-- Node1&#45;&gt;Node18 -->
<g id="edge25_Node000001_Node000018" class="edge">
<title>Node1&#45;&gt;Node18</title>
<g id="a_edge25_Node000001_Node000018"><a xlink:title=" ">
<path fill="none" stroke="#63b8ff" d="M402.05,-278.42C469.93,-269.47 611.67,-250.78 696.7,-239.57"/>
<polygon fill="#63b8ff" stroke="#63b8ff" points="697.32,-243.02 706.78,-238.24 696.41,-236.08 697.32,-243.02"/>
</a>
</g>
</g>
<!-- Node7 -->
<g id="Node000007" class="node">
<title>Node7</title>
<g id="a_Node000007"><a xlink:href="ev-document_8h.html" target="_top" xlink:title=" ">
<polygon fill="white" stroke="#666666" points="428.5,-184 338.5,-184 338.5,-165 428.5,-165 428.5,-184"/>
<text text-anchor="middle" x="383.5" y="-172" font-family="Helvetica,sans-Serif" font-size="10.00">ev&#45;document.h</text>
</a>
</g>
</g>
<!-- Node6&#45;&gt;Node7 -->
<g id="edge6_Node000006_Node000007" class="edge">
<title>Node6&#45;&gt;Node7</title>
<g id="a_edge6_Node000006_Node000007"><a xlink:title=" ">
<path fill="none" stroke="#63b8ff" d="M414.39,-219.75C409.22,-212.34 401.65,-201.5 395.31,-192.41"/>
<polygon fill="#63b8ff" stroke="#63b8ff" points="398.09,-190.29 389.5,-184.09 392.35,-194.29 398.09,-190.29"/>
</a>
</g>
</g>
<!-- Node8 -->
<g id="Node000008" class="node">
<title>Node8</title>
<g id="a_Node000008"><a xlink:title=" ">
<polygon fill="#e0e0e0" stroke="#999999" points="521,-19 444,-19 444,0 521,0 521,-19"/>
<text text-anchor="middle" x="482.5" y="-7" font-family="Helvetica,sans-Serif" font-size="10.00">glib&#45;object.h</text>
</a>
</g>
</g>
<!-- Node7&#45;&gt;Node8 -->
<g id="edge7_Node000007_Node000008" class="edge">
<title>Node7&#45;&gt;Node8</title>
<g id="a_edge7_Node000007_Node000008"><a xlink:title=" ">
<path fill="none" stroke="#63b8ff" d="M386.55,-164.98C393.99,-144.81 414.37,-93 440.5,-55 447.62,-44.65 457.12,-34.37 465.28,-26.3"/>
<polygon fill="#63b8ff" stroke="#63b8ff" points="467.78,-28.76 472.58,-19.31 462.94,-23.7 467.78,-28.76"/>
</a>
</g>
</g>
<!-- Node9 -->
<g id="Node000009" class="node">
<title>Node9</title>
<g id="a_Node000009"><a xlink:title=" ">
<polygon fill="#e0e0e0" stroke="#999999" points="387.5,-74 343.5,-74 343.5,-55 387.5,-55 387.5,-74"/>
<text text-anchor="middle" x="365.5" y="-62" font-family="Helvetica,sans-Serif" font-size="10.00">glib.h</text>
</a>
</g>
</g>
<!-- Node7&#45;&gt;Node9 -->
<g id="edge8_Node000007_Node000009" class="edge">
<title>Node7&#45;&gt;Node9</title>
<g id="a_edge8_Node000007_Node000009"><a xlink:title=" ">
<path fill="none" stroke="#63b8ff" d="M382.03,-164.66C379.11,-147.17 372.55,-107.8 368.63,-84.27"/>
<polygon fill="#63b8ff" stroke="#63b8ff" points="372.04,-83.45 366.94,-74.16 365.13,-84.6 372.04,-83.45"/>
</a>
</g>
</g>
<!-- Node10 -->
<g id="Node000010" class="node">
<title>Node10</title>
<g id="a_Node000010"><a xlink:title=" ">
<polygon fill="#e0e0e0" stroke="#999999" points="223.5,-129 155.5,-129 155.5,-110 223.5,-110 223.5,-129"/>
<text text-anchor="middle" x="189.5" y="-117" font-family="Helvetica,sans-Serif" font-size="10.00">gmodule.h</text>
</a>
</g>
</g>
<!-- Node7&#45;&gt;Node10 -->
<g id="edge9_Node000007_Node000010" class="edge">
<title>Node7&#45;&gt;Node10</title>
<g id="a_edge9_Node000007_Node000010"><a xlink:title=" ">
<path fill="none" stroke="#63b8ff" d="M352.33,-164.98C319.34,-155.97 267.1,-141.7 230.73,-131.76"/>
<polygon fill="#63b8ff" stroke="#63b8ff" points="231.48,-128.34 220.91,-129.08 229.64,-135.09 231.48,-128.34"/>
</a>
</g>
</g>
<!-- Node11 -->
<g id="Node000011" class="node">
<title>Node11</title>
<g id="a_Node000011"><a xlink:title=" ">
<polygon fill="#e0e0e0" stroke="#999999" points="777.5,-129 727.5,-129 727.5,-110 777.5,-110 777.5,-129"/>
<text text-anchor="middle" x="752.5" y="-117" font-family="Helvetica,sans-Serif" font-size="10.00">cairo.h</text>
</a>
</g>
</g>
<!-- Node7&#45;&gt;Node11 -->
<g id="edge10_Node000007_Node000011" class="edge">
<title>Node7&#45;&gt;Node11</title>
<g id="a_edge10_Node000007_Node000011"><a xlink:title=" ">
<path fill="none" stroke="#63b8ff" d="M428.75,-167C503.1,-156.32 649.57,-135.28 717,-125.6"/>
<polygon fill="#63b8ff" stroke="#63b8ff" points="717.72,-129.03 727.12,-124.15 716.72,-122.1 717.72,-129.03"/>
</a>
</g>
</g>
<!-- Node12 -->
<g id="Node000012" class="node">
<title>Node12</title>
<g id="a_Node000012"><a xlink:href="ev-document-info_8h.html" target="_top" xlink:title=" ">
<polygon fill="white" stroke="#666666" points="355,-129 242,-129 242,-110 355,-110 355,-129"/>
<text text-anchor="middle" x="298.5" y="-117" font-family="Helvetica,sans-Serif" font-size="10.00">ev&#45;document&#45;info.h</text>
</a>
</g>
</g>
<!-- Node7&#45;&gt;Node12 -->
<g id="edge11_Node000007_Node000012" class="edge">
<title>Node7&#45;&gt;Node12</title>
<g id="a_edge11_Node000007_Node000012"><a xlink:title=" ">
<path fill="none" stroke="#63b8ff" d="M369.84,-164.98C356.66,-156.77 336.47,-144.18 320.93,-134.49"/>
<polygon fill="#63b8ff" stroke="#63b8ff" points="322.74,-131.49 312.41,-129.17 319.04,-137.43 322.74,-131.49"/>
</a>
</g>
</g>
<!-- Node13 -->
<g id="Node000013" class="node">
<title>Node13</title>
<g id="a_Node000013"><a xlink:href="ev-page_8h.html" target="_top" xlink:title=" ">
<polygon fill="white" stroke="#666666" points="515,-74 450,-74 450,-55 515,-55 515,-74"/>
<text text-anchor="middle" x="482.5" y="-62" font-family="Helvetica,sans-Serif" font-size="10.00">ev&#45;page.h</text>
</a>
</g>
</g>
<!-- Node7&#45;&gt;Node13 -->
<g id="edge14_Node000007_Node000013" class="edge">
<title>Node7&#45;&gt;Node13</title>
<g id="a_edge14_Node000007_Node000013"><a xlink:title=" ">
<path fill="none" stroke="#63b8ff" d="M394.9,-164.97C405.89,-156.47 422.7,-142.74 435.5,-129 449.04,-114.47 462.31,-96.05 471.27,-82.8"/>
<polygon fill="#63b8ff" stroke="#63b8ff" points="474.37,-84.46 476.98,-74.19 468.54,-80.59 474.37,-84.46"/>
</a>
</g>
</g>
<!-- Node14 -->
<g id="Node000014" class="node">
<title>Node14</title>
<g id="a_Node000014"><a xlink:href="ev-render-context_8h.html" target="_top" xlink:title=" ">
<polygon fill="white" stroke="#666666" points="601,-129 488,-129 488,-110 601,-110 601,-129"/>
<text text-anchor="middle" x="544.5" y="-117" font-family="Helvetica,sans-Serif" font-size="10.00">ev&#45;render&#45;context.h</text>
</a>
</g>
</g>
<!-- Node7&#45;&gt;Node14 -->
<g id="edge16_Node000007_Node000014" class="edge">
<title>Node7&#45;&gt;Node14</title>
<g id="a_edge16_Node000007_Node000014"><a xlink:title=" ">
<path fill="none" stroke="#63b8ff" d="M409.37,-164.98C436.28,-156.13 478.62,-142.19 508.73,-132.28"/>
<polygon fill="#63b8ff" stroke="#63b8ff" points="510.03,-135.53 518.43,-129.08 507.84,-128.88 510.03,-135.53"/>
</a>
</g>
</g>
<!-- Node12&#45;&gt;Node8 -->
<g id="edge12_Node000012_Node000008" class="edge">
<title>Node12&#45;&gt;Node8</title>
<g id="a_edge12_Node000012_Node000008"><a xlink:title=" ">
<path fill="none" stroke="#63b8ff" d="M301.12,-109.71C305.65,-95.99 316.27,-69.55 334.5,-55 362.86,-32.37 402.55,-21.23 433.69,-15.76"/>
<polygon fill="#63b8ff" stroke="#63b8ff" points="434.58,-19.16 443.89,-14.11 433.46,-12.25 434.58,-19.16"/>
</a>
</g>
</g>
<!-- Node12&#45;&gt;Node9 -->
<g id="edge13_Node000012_Node000009" class="edge">
<title>Node12&#45;&gt;Node9</title>
<g id="a_edge13_Node000012_Node000009"><a xlink:title=" ">
<path fill="none" stroke="#63b8ff" d="M309.26,-109.98C319.27,-102.07 334.39,-90.11 346.43,-80.58"/>
<polygon fill="#63b8ff" stroke="#63b8ff" points="348.87,-83.12 354.54,-74.17 344.53,-77.63 348.87,-83.12"/>
</a>
</g>
</g>
<!-- Node13&#45;&gt;Node8 -->
<g id="edge15_Node000013_Node000008" class="edge">
<title>Node13&#45;&gt;Node8</title>
<g id="a_edge15_Node000013_Node000008"><a xlink:title=" ">
<path fill="none" stroke="#63b8ff" d="M482.5,-54.75C482.5,-47.8 482.5,-37.85 482.5,-29.13"/>
<polygon fill="#63b8ff" stroke="#63b8ff" points="486,-29.09 482.5,-19.09 479,-29.09 486,-29.09"/>
</a>
</g>
</g>
<!-- Node14&#45;&gt;Node8 -->
<g id="edge17_Node000014_Node000008" class="edge">
<title>Node14&#45;&gt;Node8</title>
<g id="a_edge17_Node000014_Node000008"><a xlink:title=" ">
<path fill="none" stroke="#63b8ff" d="M542.85,-109.8C540.18,-97.09 534.1,-73.01 523.5,-55 517.27,-44.41 508.17,-34.2 500.12,-26.24"/>
<polygon fill="#63b8ff" stroke="#63b8ff" points="502.24,-23.43 492.58,-19.1 497.43,-28.52 502.24,-23.43"/>
</a>
</g>
</g>
<!-- Node14&#45;&gt;Node13 -->
<g id="edge18_Node000014_Node000013" class="edge">
<title>Node14&#45;&gt;Node13</title>
<g id="a_edge18_Node000014_Node000013"><a xlink:title=" ">
<path fill="none" stroke="#63b8ff" d="M534.54,-109.98C525.37,-102.15 511.56,-90.34 500.47,-80.86"/>
<polygon fill="#63b8ff" stroke="#63b8ff" points="502.52,-78.01 492.64,-74.17 497.97,-83.33 502.52,-78.01"/>
</a>
</g>
</g>
<!-- Node15&#45;&gt;Node8 -->
<g id="edge20_Node000015_Node000008" class="edge">
<title>Node15&#45;&gt;Node8</title>
<g id="a_edge20_Node000015_Node000008"><a xlink:title=" ">
<path fill="none" stroke="#63b8ff" d="M676.52,-164.99C653.31,-145.26 593.8,-95.04 542.5,-55 529.47,-44.83 514.53,-33.75 502.82,-25.19"/>
<polygon fill="#63b8ff" stroke="#63b8ff" points="504.73,-22.25 494.58,-19.19 500.61,-27.91 504.73,-22.25"/>
</a>
</g>
</g>
<!-- Node15&#45;&gt;Node14 -->
<g id="edge21_Node000015_Node000014" class="edge">
<title>Node15&#45;&gt;Node14</title>
<g id="a_edge21_Node000015_Node000014"><a xlink:title=" ">
<path fill="none" stroke="#63b8ff" d="M663.69,-164.98C640.33,-156.27 603.8,-142.63 577.33,-132.75"/>
<polygon fill="#63b8ff" stroke="#63b8ff" points="578.32,-129.39 567.73,-129.17 575.87,-135.95 578.32,-129.39"/>
</a>
</g>
</g>
<!-- Node16&#45;&gt;Node14 -->
<g id="edge24_Node000016_Node000014" class="edge">
<title>Node16&#45;&gt;Node14</title>
<g id="a_edge24_Node000016_Node000014"><a xlink:title=" ">
<path fill="none" stroke="#63b8ff" d="M523.11,-219.92C506.04,-213.13 485.69,-201.77 475.5,-184 463.35,-162.8 489.16,-144.64 512.6,-133.23"/>
<polygon fill="#63b8ff" stroke="#63b8ff" points="514.08,-136.4 521.71,-129.05 511.16,-130.04 514.08,-136.4"/>
</a>
</g>
</g>
<!-- Node17 -->
<g id="Node000017" class="node">
<title>Node17</title>
<g id="a_Node000017"><a xlink:title=" ">
<polygon fill="#e0e0e0" stroke="#999999" points="618,-184 485,-184 485,-165 618,-165 618,-184"/>
<text text-anchor="middle" x="551.5" y="-172" font-family="Helvetica,sans-Serif" font-size="10.00">gdk&#45;pixbuf/gdk&#45;pixbuf.h</text>
</a>
</g>
</g>
<!-- Node16&#45;&gt;Node17 -->
<g id="edge23_Node000016_Node000017" class="edge">
<title>Node16&#45;&gt;Node17</title>
<g id="a_edge23_Node000016_Node000017"><a xlink:title=" ">
<path fill="none" stroke="#63b8ff" d="M551.5,-219.75C551.5,-212.8 551.5,-202.85 551.5,-194.13"/>
<polygon fill="#63b8ff" stroke="#63b8ff" points="555,-194.09 551.5,-184.09 548,-194.09 555,-194.09"/>
</a>
</g>
</g>
<!-- Node18&#45;&gt;Node11 -->
<g id="edge26_Node000018_Node000011" class="edge">
<title>Node18&#45;&gt;Node11</title>
<g id="a_edge26_Node000018_Node000011"><a xlink:title=" ">
<path fill="none" stroke="#63b8ff" d="M764.44,-219.66C762.33,-202.17 757.59,-162.8 754.76,-139.27"/>
<polygon fill="#63b8ff" stroke="#63b8ff" points="758.21,-138.67 753.54,-129.16 751.26,-139.51 758.21,-138.67"/>
</a>
</g>
</g>
<!-- Node18&#45;&gt;Node17 -->
<g id="edge27_Node000018_Node000017" class="edge">
<title>Node18&#45;&gt;Node17</title>
<g id="a_edge27_Node000018_Node000017"><a xlink:title=" ">
<path fill="none" stroke="#63b8ff" d="M731.12,-219.98C694.41,-210.89 636.12,-196.46 595.95,-186.51"/>
<polygon fill="#63b8ff" stroke="#63b8ff" points="596.7,-183.09 586.15,-184.08 595.02,-189.88 596.7,-183.09"/>
</a>
</g>
</g>
<!-- Node19 -->
<g id="Node000019" class="node">
<title>Node19</title>
<g id="a_Node000019"><a xlink:title=" ">
<polygon fill="#e0e0e0" stroke="#999999" points="853.5,-184 793.5,-184 793.5,-165 853.5,-165 853.5,-184"/>
<text text-anchor="middle" x="823.5" y="-172" font-family="Helvetica,sans-Serif" font-size="10.00">gtk/gtk.h</text>
</a>
</g>
</g>
<!-- Node18&#45;&gt;Node19 -->
<g id="edge28_Node000018_Node000019" class="edge">
<title>Node18&#45;&gt;Node19</title>
<g id="a_edge28_Node000018_Node000019"><a xlink:title=" ">
<path fill="none" stroke="#63b8ff" d="M774.82,-219.98C783.31,-212.23 796.06,-200.58 806.38,-191.14"/>
<polygon fill="#63b8ff" stroke="#63b8ff" points="808.99,-193.5 814.01,-184.17 804.27,-188.33 808.99,-193.5"/>
</a>
</g>
</g>
<!-- Node20 -->
<g id="Node000020" class="node">
<title>Node20</title>
<g id="a_Node000020"><a xlink:href="ev-macros_8h.html" target="_top" xlink:title=" ">
<polygon fill="white" stroke="#666666" points="949,-184 872,-184 872,-165 949,-165 949,-184"/>
<text text-anchor="middle" x="910.5" y="-172" font-family="Helvetica,sans-Serif" font-size="10.00">ev&#45;macros.h</text>
</a>
</g>
</g>
<!-- Node18&#45;&gt;Node20 -->
<g id="edge29_Node000018_Node000020" class="edge">
<title>Node18&#45;&gt;Node20</title>
<g id="a_edge29_Node000018_Node000020"><a xlink:title=" ">
<path fill="none" stroke="#63b8ff" d="M788.8,-219.98C812.75,-211.23 850.28,-197.51 877.33,-187.62"/>
<polygon fill="#63b8ff" stroke="#63b8ff" points="878.59,-190.89 886.78,-184.17 876.19,-184.32 878.59,-190.89"/>
</a>
</g>
</g>
</g>
</svg>
