<?xml version="1.0" encoding="UTF-8" standalone="no"?>
<!DOCTYPE svg PUBLIC "-//W3C//DTD SVG 1.1//EN"
 "http://www.w3.org/Graphics/SVG/1.1/DTD/svg11.dtd">
<!-- Generated by graphviz version 2.43.0 (0)
 -->
<!-- Title: font&#45;view.c Pages: 1 -->
<svg width="1325pt" height="137pt"
 viewBox="0.00 0.00 1325.00 137.00" xmlns="http://www.w3.org/2000/svg" xmlns:xlink="http://www.w3.org/1999/xlink">
<g id="graph0" class="graph" transform="scale(1 1) rotate(0) translate(4 133)">
<title>font&#45;view.c</title>
<!-- Node1 -->
<g id="Node000001" class="node">
<title>Node1</title>
<g id="a_Node000001"><a xlink:title=" ">
<polygon fill="#999999" stroke="#666666" points="724,-129 654,-129 654,-110 724,-110 724,-129"/>
<text text-anchor="middle" x="689" y="-117" font-family="Helvetica,sans-Serif" font-size="10.00">font&#45;view.c</text>
</a>
</g>
</g>
<!-- Node2 -->
<g id="Node000002" class="node">
<title>Node2</title>
<g id="a_Node000002"><a xlink:title=" ">
<polygon fill="#e0e0e0" stroke="#999999" points="62,-74 0,-74 0,-55 62,-55 62,-74"/>
<text text-anchor="middle" x="31" y="-62" font-family="Helvetica,sans-Serif" font-size="10.00">ft2build.h</text>
</a>
</g>
</g>
<!-- Node1&#45;&gt;Node2 -->
<g id="edge1_Node000001_Node000002" class="edge">
<title>Node1&#45;&gt;Node2</title>
<g id="a_edge1_Node000001_Node000002"><a xlink:title=" ">
<path fill="none" stroke="#63b8ff" d="M653.98,-117.66C560.85,-115.08 299.28,-105.5 72.46,-74.01"/>
<polygon fill="#63b8ff" stroke="#63b8ff" points="72.76,-70.52 62.37,-72.59 71.79,-77.45 72.76,-70.52"/>
</a>
</g>
</g>
<!-- Node3 -->
<g id="Node000003" class="node">
<title>Node3</title>
<g id="a_Node000003"><a xlink:title=" ">
<polygon fill="#e0e0e0" stroke="#999999" points="175.5,-74 80.5,-74 80.5,-55 175.5,-55 175.5,-74"/>
<text text-anchor="middle" x="128" y="-62" font-family="Helvetica,sans-Serif" font-size="10.00">FT_FREETYPE_H</text>
</a>
</g>
</g>
<!-- Node1&#45;&gt;Node3 -->
<g id="edge2_Node000001_Node000003" class="edge">
<title>Node1&#45;&gt;Node3</title>
<g id="a_edge2_Node000001_Node000003"><a xlink:title=" ">
<path fill="none" stroke="#63b8ff" d="M653.72,-116.16C572.81,-110.62 367.47,-95.63 185.64,-74.13"/>
<polygon fill="#63b8ff" stroke="#63b8ff" points="185.98,-70.65 175.63,-72.94 185.15,-77.6 185.98,-70.65"/>
</a>
</g>
</g>
<!-- Node4 -->
<g id="Node000004" class="node">
<title>Node4</title>
<g id="a_Node000004"><a xlink:title=" ">
<polygon fill="#e0e0e0" stroke="#999999" points="310.5,-74 193.5,-74 193.5,-55 310.5,-55 310.5,-74"/>
<text text-anchor="middle" x="252" y="-62" font-family="Helvetica,sans-Serif" font-size="10.00">FT_TYPE1_TABLES_H</text>
</a>
</g>
</g>
<!-- Node1&#45;&gt;Node4 -->
<g id="edge3_Node000001_Node000004" class="edge">
<title>Node1&#45;&gt;Node4</title>
<g id="a_edge3_Node000001_Node000004"><a xlink:title=" ">
<path fill="none" stroke="#63b8ff" d="M653.89,-114.32C589.95,-106.69 449.99,-89.94 320.69,-74.08"/>
<polygon fill="#63b8ff" stroke="#63b8ff" points="320.96,-70.59 310.6,-72.84 320.1,-77.53 320.96,-70.59"/>
</a>
</g>
</g>
<!-- Node5 -->
<g id="Node000005" class="node">
<title>Node5</title>
<g id="a_Node000005"><a xlink:title=" ">
<polygon fill="#e0e0e0" stroke="#999999" points="441,-74 329,-74 329,-55 441,-55 441,-74"/>
<text text-anchor="middle" x="385" y="-62" font-family="Helvetica,sans-Serif" font-size="10.00">FT_SFNT_NAMES_H</text>
</a>
</g>
</g>
<!-- Node1&#45;&gt;Node5 -->
<g id="edge4_Node000001_Node000005" class="edge">
<title>Node1&#45;&gt;Node5</title>
<g id="a_edge4_Node000001_Node000005"><a xlink:title=" ">
<path fill="none" stroke="#63b8ff" d="M653.83,-112.37C602.46,-103.41 506.25,-86.64 443.94,-75.78"/>
<polygon fill="#63b8ff" stroke="#63b8ff" points="444.32,-72.29 433.87,-74.02 443.12,-79.18 444.32,-72.29"/>
</a>
</g>
</g>
<!-- Node6 -->
<g id="Node000006" class="node">
<title>Node6</title>
<g id="a_Node000006"><a xlink:title=" ">
<polygon fill="#e0e0e0" stroke="#999999" points="577,-74 459,-74 459,-55 577,-55 577,-74"/>
<text text-anchor="middle" x="518" y="-62" font-family="Helvetica,sans-Serif" font-size="10.00">FT_TRUETYPE_IDS_H</text>
</a>
</g>
</g>
<!-- Node1&#45;&gt;Node6 -->
<g id="edge5_Node000001_Node000006" class="edge">
<title>Node1&#45;&gt;Node6</title>
<g id="a_edge5_Node000001_Node000006"><a xlink:title=" ">
<path fill="none" stroke="#63b8ff" d="M661.53,-109.98C632.82,-101.09 587.58,-87.07 555.58,-77.15"/>
<polygon fill="#63b8ff" stroke="#63b8ff" points="556.28,-73.7 545.69,-74.08 554.2,-80.39 556.28,-73.7"/>
</a>
</g>
</g>
<!-- Node7 -->
<g id="Node000007" class="node">
<title>Node7</title>
<g id="a_Node000007"><a xlink:title=" ">
<polygon fill="#e0e0e0" stroke="#999999" points="693.5,-19 606.5,-19 606.5,0 693.5,0 693.5,-19"/>
<text text-anchor="middle" x="650" y="-7" font-family="Helvetica,sans-Serif" font-size="10.00">cairo/cairo&#45;ft.h</text>
</a>
</g>
</g>
<!-- Node1&#45;&gt;Node7 -->
<g id="edge6_Node000001_Node000007" class="edge">
<title>Node1&#45;&gt;Node7</title>
<g id="a_edge6_Node000001_Node000007"><a xlink:title=" ">
<path fill="none" stroke="#63b8ff" d="M666.88,-109.95C651.8,-102.82 632.99,-91.06 624,-74 615.96,-58.76 625.31,-40.47 634.96,-27.45"/>
<polygon fill="#63b8ff" stroke="#63b8ff" points="637.92,-29.35 641.48,-19.37 632.47,-24.95 637.92,-29.35"/>
</a>
</g>
</g>
<!-- Node8 -->
<g id="Node000008" class="node">
<title>Node8</title>
<g id="a_Node000008"><a xlink:title=" ">
<polygon fill="#e0e0e0" stroke="#999999" points="1147,-74 1021,-74 1021,-55 1147,-55 1147,-74"/>
<text text-anchor="middle" x="1084" y="-62" font-family="Helvetica,sans-Serif" font-size="10.00">fontconfig/fontconfig.h</text>
</a>
</g>
</g>
<!-- Node1&#45;&gt;Node8 -->
<g id="edge7_Node000001_Node000008" class="edge">
<title>Node1&#45;&gt;Node8</title>
<g id="a_edge7_Node000001_Node000008"><a xlink:title=" ">
<path fill="none" stroke="#63b8ff" d="M724.05,-113.8C788.1,-105.2 925.28,-86.8 1010.57,-75.35"/>
<polygon fill="#63b8ff" stroke="#63b8ff" points="1011.26,-78.79 1020.7,-73.99 1010.33,-71.85 1011.26,-78.79"/>
</a>
</g>
</g>
<!-- Node9 -->
<g id="Node000009" class="node">
<title>Node9</title>
<g id="a_Node000009"><a xlink:title=" ">
<polygon fill="#e0e0e0" stroke="#999999" points="1224.5,-74 1165.5,-74 1165.5,-55 1224.5,-55 1224.5,-74"/>
<text text-anchor="middle" x="1195" y="-62" font-family="Helvetica,sans-Serif" font-size="10.00">gio/gio.h</text>
</a>
</g>
</g>
<!-- Node1&#45;&gt;Node9 -->
<g id="edge8_Node000001_Node000009" class="edge">
<title>Node1&#45;&gt;Node9</title>
<g id="a_edge8_Node000001_Node000009"><a xlink:title=" ">
<path fill="none" stroke="#63b8ff" d="M724.04,-116.6C800.49,-112.14 988.14,-99.53 1155.29,-73.91"/>
<polygon fill="#63b8ff" stroke="#63b8ff" points="1155.91,-77.36 1165.26,-72.37 1154.84,-70.44 1155.91,-77.36"/>
</a>
</g>
</g>
<!-- Node10 -->
<g id="Node000010" class="node">
<title>Node10</title>
<g id="a_Node000010"><a xlink:title=" ">
<polygon fill="#e0e0e0" stroke="#999999" points="884,-19 824,-19 824,0 884,0 884,-19"/>
<text text-anchor="middle" x="854" y="-7" font-family="Helvetica,sans-Serif" font-size="10.00">gtk/gtk.h</text>
</a>
</g>
</g>
<!-- Node1&#45;&gt;Node10 -->
<g id="edge9_Node000001_Node000010" class="edge">
<title>Node1&#45;&gt;Node10</title>
<g id="a_edge9_Node000001_Node000010"><a xlink:title=" ">
<path fill="none" stroke="#63b8ff" d="M724.16,-118.45C793.13,-117.51 942.21,-111.14 974,-74 1000.09,-43.52 938.42,-25.49 894.16,-16.84"/>
<polygon fill="#63b8ff" stroke="#63b8ff" points="894.66,-13.37 884.19,-14.99 893.38,-20.26 894.66,-13.37"/>
</a>
</g>
</g>
<!-- Node11 -->
<g id="Node000011" class="node">
<title>Node11</title>
<g id="a_Node000011"><a xlink:title=" ">
<polygon fill="#e0e0e0" stroke="#999999" points="1317,-74 1243,-74 1243,-55 1317,-55 1317,-74"/>
<text text-anchor="middle" x="1280" y="-62" font-family="Helvetica,sans-Serif" font-size="10.00">glib/gi18n.h</text>
</a>
</g>
</g>
<!-- Node1&#45;&gt;Node11 -->
<g id="edge10_Node000001_Node000011" class="edge">
<title>Node1&#45;&gt;Node11</title>
<g id="a_edge10_Node000001_Node000011"><a xlink:title=" ">
<path fill="none" stroke="#63b8ff" d="M724.2,-116.86C809.62,-112.63 1034.85,-99.88 1232.89,-74.01"/>
<polygon fill="#63b8ff" stroke="#63b8ff" points="1233.44,-77.47 1242.89,-72.69 1232.52,-70.53 1233.44,-77.47"/>
</a>
</g>
</g>
<!-- Node12 -->
<g id="Node000012" class="node">
<title>Node12</title>
<g id="a_Node000012"><a xlink:href="font-model_8h.html" target="_top" xlink:title=" ">
<polygon fill="white" stroke="#666666" points="965,-74 885,-74 885,-55 965,-55 965,-74"/>
<text text-anchor="middle" x="925" y="-62" font-family="Helvetica,sans-Serif" font-size="10.00">font&#45;model.h</text>
</a>
</g>
</g>
<!-- Node1&#45;&gt;Node12 -->
<g id="edge11_Node000001_Node000012" class="edge">
<title>Node1&#45;&gt;Node12</title>
<g id="a_edge11_Node000001_Node000012"><a xlink:title=" ">
<path fill="none" stroke="#63b8ff" d="M724.08,-110.62C764.66,-101.51 831.72,-86.45 877.09,-76.26"/>
<polygon fill="#63b8ff" stroke="#63b8ff" points="878,-79.64 886.99,-74.04 876.47,-72.81 878,-79.64"/>
</a>
</g>
</g>
<!-- Node13 -->
<g id="Node000013" class="node">
<title>Node13</title>
<g id="a_Node000013"><a xlink:href="gd-main-toolbar_8h.html" target="_top" xlink:title=" ">
<polygon fill="white" stroke="#666666" points="867,-74 763,-74 763,-55 867,-55 867,-74"/>
<text text-anchor="middle" x="815" y="-62" font-family="Helvetica,sans-Serif" font-size="10.00">gd&#45;main&#45;toolbar.h</text>
</a>
</g>
</g>
<!-- Node1&#45;&gt;Node13 -->
<g id="edge13_Node000001_Node000013" class="edge">
<title>Node1&#45;&gt;Node13</title>
<g id="a_edge13_Node000001_Node000013"><a xlink:title=" ">
<path fill="none" stroke="#63b8ff" d="M709.24,-109.98C729.7,-101.38 761.53,-87.99 784.93,-78.15"/>
<polygon fill="#63b8ff" stroke="#63b8ff" points="786.53,-81.27 794.39,-74.17 783.81,-74.82 786.53,-81.27"/>
</a>
</g>
</g>
<!-- Node15 -->
<g id="Node000015" class="node">
<title>Node15</title>
<g id="a_Node000015"><a xlink:href="sushi-font-widget_8h.html" target="_top" xlink:title=" ">
<polygon fill="white" stroke="#666666" points="744.5,-74 633.5,-74 633.5,-55 744.5,-55 744.5,-74"/>
<text text-anchor="middle" x="689" y="-62" font-family="Helvetica,sans-Serif" font-size="10.00">sushi&#45;font&#45;widget.h</text>
</a>
</g>
</g>
<!-- Node1&#45;&gt;Node15 -->
<g id="edge16_Node000001_Node000015" class="edge">
<title>Node1&#45;&gt;Node15</title>
<g id="a_edge16_Node000001_Node000015"><a xlink:title=" ">
<path fill="none" stroke="#63b8ff" d="M689,-109.75C689,-102.8 689,-92.85 689,-84.13"/>
<polygon fill="#63b8ff" stroke="#63b8ff" points="692.5,-84.09 689,-74.09 685.5,-84.09 692.5,-84.09"/>
</a>
</g>
</g>
<!-- Node12&#45;&gt;Node10 -->
<g id="edge12_Node000012_Node000010" class="edge">
<title>Node12&#45;&gt;Node10</title>
<g id="a_edge12_Node000012_Node000010"><a xlink:title=" ">
<path fill="none" stroke="#63b8ff" d="M913.59,-54.98C902.89,-47 886.66,-34.88 873.84,-25.31"/>
<polygon fill="#63b8ff" stroke="#63b8ff" points="875.72,-22.35 865.61,-19.17 871.53,-27.96 875.72,-22.35"/>
</a>
</g>
</g>
<!-- Node13&#45;&gt;Node10 -->
<g id="edge15_Node000013_Node000010" class="edge">
<title>Node13&#45;&gt;Node10</title>
<g id="a_edge15_Node000013_Node000010"><a xlink:title=" ">
<path fill="none" stroke="#63b8ff" d="M821.44,-54.75C826.89,-47.34 834.86,-36.5 841.56,-27.41"/>
<polygon fill="#63b8ff" stroke="#63b8ff" points="844.57,-29.22 847.68,-19.09 838.93,-25.07 844.57,-29.22"/>
</a>
</g>
</g>
<!-- Node14 -->
<g id="Node000014" class="node">
<title>Node14</title>
<g id="a_Node000014"><a xlink:title=" ">
<polygon fill="#e0e0e0" stroke="#999999" points="799.5,-19 722.5,-19 722.5,0 799.5,0 799.5,-19"/>
<text text-anchor="middle" x="761" y="-7" font-family="Helvetica,sans-Serif" font-size="10.00">glib&#45;object.h</text>
</a>
</g>
</g>
<!-- Node13&#45;&gt;Node14 -->
<g id="edge14_Node000013_Node000014" class="edge">
<title>Node13&#45;&gt;Node14</title>
<g id="a_edge14_Node000013_Node000014"><a xlink:title=" ">
<path fill="none" stroke="#63b8ff" d="M806.08,-54.75C798.22,-47.03 786.57,-35.6 777.08,-26.28"/>
<polygon fill="#63b8ff" stroke="#63b8ff" points="779.34,-23.6 769.75,-19.09 774.44,-28.59 779.34,-23.6"/>
</a>
</g>
</g>
<!-- Node15&#45;&gt;Node7 -->
<g id="edge19_Node000015_Node000007" class="edge">
<title>Node15&#45;&gt;Node7</title>
<g id="a_edge19_Node000015_Node000007"><a xlink:title=" ">
<path fill="none" stroke="#63b8ff" d="M682.56,-54.75C677.11,-47.34 669.14,-36.5 662.44,-27.41"/>
<polygon fill="#63b8ff" stroke="#63b8ff" points="665.07,-25.07 656.32,-19.09 659.43,-29.22 665.07,-25.07"/>
</a>
</g>
</g>
<!-- Node15&#45;&gt;Node10 -->
<g id="edge18_Node000015_Node000010" class="edge">
<title>Node15&#45;&gt;Node10</title>
<g id="a_edge18_Node000015_Node000010"><a xlink:title=" ">
<path fill="none" stroke="#63b8ff" d="M715.51,-54.98C743.21,-46.09 786.86,-32.07 817.74,-22.15"/>
<polygon fill="#63b8ff" stroke="#63b8ff" points="818.83,-25.47 827.28,-19.08 816.69,-18.81 818.83,-25.47"/>
</a>
</g>
</g>
<!-- Node15&#45;&gt;Node14 -->
<g id="edge17_Node000015_Node000014" class="edge">
<title>Node15&#45;&gt;Node14</title>
<g id="a_edge17_Node000015_Node000014"><a xlink:title=" ">
<path fill="none" stroke="#63b8ff" d="M700.57,-54.98C711.42,-47 727.88,-34.88 740.88,-25.31"/>
<polygon fill="#63b8ff" stroke="#63b8ff" points="743.24,-27.92 749.22,-19.17 739.09,-22.28 743.24,-27.92"/>
</a>
</g>
</g>
</g>
</svg>
