<?xml version="1.0" encoding="UTF-8" standalone="no"?>
<!DOCTYPE svg PUBLIC "-//W3C//DTD SVG 1.1//EN"
 "http://www.w3.org/Graphics/SVG/1.1/DTD/svg11.dtd">
<!-- Generated by graphviz version 2.43.0 (0)
 -->
<!-- Title: fr&#45;command&#45;7z.h Pages: 1 -->
<svg width="178pt" height="82pt"
 viewBox="0.00 0.00 178.00 82.00" xmlns="http://www.w3.org/2000/svg" xmlns:xlink="http://www.w3.org/1999/xlink">
<g id="graph0" class="graph" transform="scale(1 1) rotate(0) translate(4 78)">
<title>fr&#45;command&#45;7z.h</title>
<!-- Node1 -->
<g id="Node000001" class="node">
<title>Node1</title>
<g id="a_Node000001"><a xlink:title=" ">
<polygon fill="#999999" stroke="#666666" points="147.5,-74 46.5,-74 46.5,-55 147.5,-55 147.5,-74"/>
<text text-anchor="middle" x="97" y="-62" font-family="Helvetica,sans-Serif" font-size="10.00">fr&#45;command&#45;7z.h</text>
</a>
</g>
</g>
<!-- Node2 -->
<g id="Node000002" class="node">
<title>Node2</title>
<g id="a_Node000002"><a xlink:href="fr-command-7z_8c.html" target="_top" xlink:title=" ">
<polygon fill="white" stroke="#666666" points="100,-19 0,-19 0,0 100,0 100,-19"/>
<text text-anchor="middle" x="50" y="-7" font-family="Helvetica,sans-Serif" font-size="10.00">fr&#45;command&#45;7z.c</text>
</a>
</g>
</g>
<!-- Node1&#45;&gt;Node2 -->
<g id="edge1_Node000001_Node000002" class="edge">
<title>Node1&#45;&gt;Node2</title>
<g id="a_edge1_Node000001_Node000002"><a xlink:title=" ">
<path fill="none" stroke="#63b8ff" d="M82.58,-47.24C74.34,-37.95 64.35,-26.68 57.62,-19.09"/>
<polygon fill="#63b8ff" stroke="#63b8ff" points="79.99,-49.59 89.24,-54.75 85.22,-44.94 79.99,-49.59"/>
</a>
</g>
</g>
<!-- Node3 -->
<g id="Node000003" class="node">
<title>Node3</title>
<g id="a_Node000003"><a xlink:href="fr-init_8c.html" target="_top" xlink:title=" ">
<polygon fill="white" stroke="#666666" points="170,-19 118,-19 118,0 170,0 170,-19"/>
<text text-anchor="middle" x="144" y="-7" font-family="Helvetica,sans-Serif" font-size="10.00">fr&#45;init.c</text>
</a>
</g>
</g>
<!-- Node1&#45;&gt;Node3 -->
<g id="edge2_Node000001_Node000003" class="edge">
<title>Node1&#45;&gt;Node3</title>
<g id="a_edge2_Node000001_Node000003"><a xlink:title=" ">
<path fill="none" stroke="#63b8ff" d="M111.42,-47.24C119.66,-37.95 129.65,-26.68 136.38,-19.09"/>
<polygon fill="#63b8ff" stroke="#63b8ff" points="108.78,-44.94 104.76,-54.75 114.01,-49.59 108.78,-44.94"/>
</a>
</g>
</g>
</g>
</svg>
