<?xml version="1.0" encoding="UTF-8" standalone="no"?>
<!DOCTYPE svg PUBLIC "-//W3C//DTD SVG 1.1//EN"
 "http://www.w3.org/Graphics/SVG/1.1/DTD/svg11.dtd">
<!-- Generated by graphviz version 2.43.0 (0)
 -->
<!-- Title: fr&#45;command&#45;zoo.c Pages: 1 -->
<svg width="680pt" height="302pt"
 viewBox="0.00 0.00 680.00 302.00" xmlns="http://www.w3.org/2000/svg" xmlns:xlink="http://www.w3.org/1999/xlink">
<g id="graph0" class="graph" transform="scale(1 1) rotate(0) translate(4 298)">
<title>fr&#45;command&#45;zoo.c</title>
<!-- Node1 -->
<g id="Node000001" class="node">
<title>Node1</title>
<g id="a_Node000001"><a xlink:title=" ">
<polygon fill="#999999" stroke="#666666" points="325,-294 219,-294 219,-275 325,-275 325,-294"/>
<text text-anchor="middle" x="272" y="-282" font-family="Helvetica,sans-Serif" font-size="10.00">fr&#45;command&#45;zoo.c</text>
</a>
</g>
</g>
<!-- Node2 -->
<g id="Node000002" class="node">
<title>Node2</title>
<g id="a_Node000002"><a xlink:title=" ">
<polygon fill="#e0e0e0" stroke="#999999" points="72.5,-239 19.5,-239 19.5,-220 72.5,-220 72.5,-239"/>
<text text-anchor="middle" x="46" y="-227" font-family="Helvetica,sans-Serif" font-size="10.00">stdlib.h</text>
</a>
</g>
</g>
<!-- Node1&#45;&gt;Node2 -->
<g id="edge1_Node000001_Node000002" class="edge">
<title>Node1&#45;&gt;Node2</title>
<g id="a_edge1_Node000001_Node000002"><a xlink:title=" ">
<path fill="none" stroke="#63b8ff" d="M235,-274.99C198.54,-266.57 140.97,-253.23 82.51,-239.35"/>
<polygon fill="#63b8ff" stroke="#63b8ff" points="83.29,-235.93 72.75,-237.02 81.67,-242.74 83.29,-235.93"/>
</a>
</g>
</g>
<!-- Node3 -->
<g id="Node000003" class="node">
<title>Node3</title>
<g id="a_Node000003"><a xlink:title=" ">
<polygon fill="#e0e0e0" stroke="#999999" points="143.5,-239 90.5,-239 90.5,-220 143.5,-220 143.5,-239"/>
<text text-anchor="middle" x="117" y="-227" font-family="Helvetica,sans-Serif" font-size="10.00">string.h</text>
</a>
</g>
</g>
<!-- Node1&#45;&gt;Node3 -->
<g id="edge2_Node000001_Node000003" class="edge">
<title>Node1&#45;&gt;Node3</title>
<g id="a_edge2_Node000001_Node000003"><a xlink:title=" ">
<path fill="none" stroke="#63b8ff" d="M247.1,-274.98C221.3,-266.16 180.78,-252.31 151.82,-242.41"/>
<polygon fill="#63b8ff" stroke="#63b8ff" points="152.69,-239.01 142.1,-239.08 150.43,-245.63 152.69,-239.01"/>
</a>
</g>
</g>
<!-- Node4 -->
<g id="Node000004" class="node">
<title>Node4</title>
<g id="a_Node000004"><a xlink:title=" ">
<polygon fill="#e0e0e0" stroke="#999999" points="200,-74 152,-74 152,-55 200,-55 200,-74"/>
<text text-anchor="middle" x="176" y="-62" font-family="Helvetica,sans-Serif" font-size="10.00">time.h</text>
</a>
</g>
</g>
<!-- Node1&#45;&gt;Node4 -->
<g id="edge3_Node000001_Node000004" class="edge">
<title>Node1&#45;&gt;Node4</title>
<g id="a_edge3_Node000001_Node000004"><a xlink:title=" ">
<path fill="none" stroke="#63b8ff" d="M268.24,-274.95C254.05,-242.74 203.63,-128.23 183.95,-83.55"/>
<polygon fill="#63b8ff" stroke="#63b8ff" points="187.08,-81.97 179.84,-74.22 180.67,-84.79 187.08,-81.97"/>
</a>
</g>
</g>
<!-- Node5 -->
<g id="Node000005" class="node">
<title>Node5</title>
<g id="a_Node000005"><a xlink:title=" ">
<polygon fill="#e0e0e0" stroke="#999999" points="553,-19 509,-19 509,0 553,0 553,-19"/>
<text text-anchor="middle" x="531" y="-7" font-family="Helvetica,sans-Serif" font-size="10.00">glib.h</text>
</a>
</g>
</g>
<!-- Node1&#45;&gt;Node5 -->
<g id="edge4_Node000001_Node000005" class="edge">
<title>Node1&#45;&gt;Node5</title>
<g id="a_edge4_Node000001_Node000005"><a xlink:title=" ">
<path fill="none" stroke="#63b8ff" d="M325.12,-280.29C433.92,-272.24 672,-246.53 672,-175.5 672,-175.5 672,-175.5 672,-118.5 672,-63.81 604.31,-33.06 562.73,-19.33"/>
<polygon fill="#63b8ff" stroke="#63b8ff" points="563.62,-15.94 553.03,-16.27 561.52,-22.62 563.62,-15.94"/>
</a>
</g>
</g>
<!-- Node6 -->
<g id="Node000006" class="node">
<title>Node6</title>
<g id="a_Node000006"><a xlink:href="file-data_8h.html" target="_top" xlink:title=" ">
<polygon fill="white" stroke="#666666" points="364,-129 298,-129 298,-110 364,-110 364,-129"/>
<text text-anchor="middle" x="331" y="-117" font-family="Helvetica,sans-Serif" font-size="10.00">file&#45;data.h</text>
</a>
</g>
</g>
<!-- Node1&#45;&gt;Node6 -->
<g id="edge5_Node000001_Node000006" class="edge">
<title>Node1&#45;&gt;Node6</title>
<g id="a_edge5_Node000001_Node000006"><a xlink:title=" ">
<path fill="none" stroke="#63b8ff" d="M276.28,-274.9C284.62,-257.89 303.26,-218.57 315,-184 320.03,-169.18 324.28,-151.93 327.13,-139.16"/>
<polygon fill="#63b8ff" stroke="#63b8ff" points="330.58,-139.77 329.26,-129.26 323.74,-138.3 330.58,-139.77"/>
</a>
</g>
</g>
<!-- Node8 -->
<g id="Node000008" class="node">
<title>Node8</title>
<g id="a_Node000008"><a xlink:href="file-utils_8h.html" target="_top" xlink:title=" ">
<polygon fill="white" stroke="#666666" points="181.5,-129 116.5,-129 116.5,-110 181.5,-110 181.5,-129"/>
<text text-anchor="middle" x="149" y="-117" font-family="Helvetica,sans-Serif" font-size="10.00">file&#45;utils.h</text>
</a>
</g>
</g>
<!-- Node1&#45;&gt;Node8 -->
<g id="edge9_Node000001_Node000008" class="edge">
<title>Node1&#45;&gt;Node8</title>
<g id="a_edge9_Node000001_Node000008"><a xlink:title=" ">
<path fill="none" stroke="#63b8ff" d="M249.32,-274.99C232.59,-267.7 210.34,-255.71 196,-239 170.62,-209.44 157.92,-164.5 152.46,-139.31"/>
<polygon fill="#63b8ff" stroke="#63b8ff" points="155.85,-138.37 150.45,-129.25 148.98,-139.74 155.85,-138.37"/>
</a>
</g>
</g>
<!-- Node12 -->
<g id="Node000012" class="node">
<title>Node12</title>
<g id="a_Node000012"><a xlink:href="glib-utils_8h.html" target="_top" xlink:title=" ">
<polygon fill="white" stroke="#666666" points="306,-184 238,-184 238,-165 306,-165 306,-184"/>
<text text-anchor="middle" x="272" y="-172" font-family="Helvetica,sans-Serif" font-size="10.00">glib&#45;utils.h</text>
</a>
</g>
</g>
<!-- Node1&#45;&gt;Node12 -->
<g id="edge14_Node000001_Node000012" class="edge">
<title>Node1&#45;&gt;Node12</title>
<g id="a_edge14_Node000001_Node000012"><a xlink:title=" ">
<path fill="none" stroke="#63b8ff" d="M272,-274.66C272,-257.17 272,-217.8 272,-194.27"/>
<polygon fill="#63b8ff" stroke="#63b8ff" points="275.5,-194.16 272,-184.16 268.5,-194.16 275.5,-194.16"/>
</a>
</g>
</g>
<!-- Node13 -->
<g id="Node000013" class="node">
<title>Node13</title>
<g id="a_Node000013"><a xlink:href="fr-command_8h.html" target="_top" xlink:title=" ">
<polygon fill="white" stroke="#666666" points="544,-184 458,-184 458,-165 544,-165 544,-184"/>
<text text-anchor="middle" x="501" y="-172" font-family="Helvetica,sans-Serif" font-size="10.00">fr&#45;command.h</text>
</a>
</g>
</g>
<!-- Node1&#45;&gt;Node13 -->
<g id="edge16_Node000001_Node000013" class="edge">
<title>Node1&#45;&gt;Node13</title>
<g id="a_edge16_Node000001_Node000013"><a xlink:title=" ">
<path fill="none" stroke="#63b8ff" d="M325.16,-278.41C379.66,-272.15 459.52,-259.71 482,-239 494.29,-227.68 498.75,-208.78 500.31,-194.53"/>
<polygon fill="#63b8ff" stroke="#63b8ff" points="503.82,-194.56 501.03,-184.34 496.83,-194.07 503.82,-194.56"/>
</a>
</g>
</g>
<!-- Node18 -->
<g id="Node000018" class="node">
<title>Node18</title>
<g id="a_Node000018"><a xlink:href="fr-command-zoo_8h.html" target="_top" xlink:title=" ">
<polygon fill="white" stroke="#666666" points="472.5,-239 365.5,-239 365.5,-220 472.5,-220 472.5,-239"/>
<text text-anchor="middle" x="419" y="-227" font-family="Helvetica,sans-Serif" font-size="10.00">fr&#45;command&#45;zoo.h</text>
</a>
</g>
</g>
<!-- Node1&#45;&gt;Node18 -->
<g id="edge27_Node000001_Node000018" class="edge">
<title>Node1&#45;&gt;Node18</title>
<g id="a_edge27_Node000001_Node000018"><a xlink:title=" ">
<path fill="none" stroke="#63b8ff" d="M295.62,-274.98C319.9,-266.23 357.95,-252.51 385.37,-242.62"/>
<polygon fill="#63b8ff" stroke="#63b8ff" points="386.73,-245.85 394.95,-239.17 384.36,-239.27 386.73,-245.85"/>
</a>
</g>
</g>
<!-- Node6&#45;&gt;Node4 -->
<g id="edge8_Node000006_Node000004" class="edge">
<title>Node6&#45;&gt;Node4</title>
<g id="a_edge8_Node000006_Node000004"><a xlink:title=" ">
<path fill="none" stroke="#63b8ff" d="M306.1,-109.98C279.99,-101.06 238.82,-86.98 209.79,-77.05"/>
<polygon fill="#63b8ff" stroke="#63b8ff" points="210.67,-73.66 200.08,-73.73 208.41,-80.28 210.67,-73.66"/>
</a>
</g>
</g>
<!-- Node6&#45;&gt;Node5 -->
<g id="edge6_Node000006_Node000005" class="edge">
<title>Node6&#45;&gt;Node5</title>
<g id="a_edge6_Node000006_Node000005"><a xlink:title=" ">
<path fill="none" stroke="#63b8ff" d="M334.72,-109.67C340.98,-95.89 354.93,-69.37 375,-55 412.19,-28.37 464.99,-17.62 498.61,-13.32"/>
<polygon fill="#63b8ff" stroke="#63b8ff" points="499.28,-16.76 508.81,-12.13 498.48,-9.81 499.28,-16.76"/>
</a>
</g>
</g>
<!-- Node7 -->
<g id="Node000007" class="node">
<title>Node7</title>
<g id="a_Node000007"><a xlink:title=" ">
<polygon fill="#e0e0e0" stroke="#999999" points="404.5,-19 327.5,-19 327.5,0 404.5,0 404.5,-19"/>
<text text-anchor="middle" x="366" y="-7" font-family="Helvetica,sans-Serif" font-size="10.00">glib&#45;object.h</text>
</a>
</g>
</g>
<!-- Node6&#45;&gt;Node7 -->
<g id="edge7_Node000006_Node000007" class="edge">
<title>Node6&#45;&gt;Node7</title>
<g id="a_edge7_Node000006_Node000007"><a xlink:title=" ">
<path fill="none" stroke="#63b8ff" d="M301.29,-109.91C270.65,-99.46 229.6,-80.09 247,-55 262.87,-32.12 292.03,-20.98 317.51,-15.57"/>
<polygon fill="#63b8ff" stroke="#63b8ff" points="318.24,-19 327.42,-13.71 316.94,-12.12 318.24,-19"/>
</a>
</g>
</g>
<!-- Node8&#45;&gt;Node4 -->
<g id="edge11_Node000008_Node000004" class="edge">
<title>Node8&#45;&gt;Node4</title>
<g id="a_edge11_Node000008_Node000004"><a xlink:title=" ">
<path fill="none" stroke="#63b8ff" d="M153.46,-109.75C157.12,-102.57 162.41,-92.18 166.95,-83.27"/>
<polygon fill="#63b8ff" stroke="#63b8ff" points="170.2,-84.59 171.62,-74.09 163.97,-81.41 170.2,-84.59"/>
</a>
</g>
</g>
<!-- Node9 -->
<g id="Node000009" class="node">
<title>Node9</title>
<g id="a_Node000009"><a xlink:title=" ">
<polygon fill="#e0e0e0" stroke="#999999" points="328,-74 256,-74 256,-55 328,-55 328,-74"/>
<text text-anchor="middle" x="292" y="-62" font-family="Helvetica,sans-Serif" font-size="10.00">sys/types.h</text>
</a>
</g>
</g>
<!-- Node8&#45;&gt;Node9 -->
<g id="edge10_Node000008_Node000009" class="edge">
<title>Node8&#45;&gt;Node9</title>
<g id="a_edge10_Node000008_Node000009"><a xlink:title=" ">
<path fill="none" stroke="#63b8ff" d="M171.98,-109.98C195.5,-101.27 232.29,-87.63 258.94,-77.75"/>
<polygon fill="#63b8ff" stroke="#63b8ff" points="260.45,-80.93 268.61,-74.17 258.01,-74.36 260.45,-80.93"/>
</a>
</g>
</g>
<!-- Node10 -->
<g id="Node000010" class="node">
<title>Node10</title>
<g id="a_Node000010"><a xlink:title=" ">
<polygon fill="#e0e0e0" stroke="#999999" points="56,-74 0,-74 0,-55 56,-55 56,-74"/>
<text text-anchor="middle" x="28" y="-62" font-family="Helvetica,sans-Serif" font-size="10.00">unistd.h</text>
</a>
</g>
</g>
<!-- Node8&#45;&gt;Node10 -->
<g id="edge12_Node000008_Node000010" class="edge">
<title>Node8&#45;&gt;Node10</title>
<g id="a_edge12_Node000008_Node000010"><a xlink:title=" ">
<path fill="none" stroke="#63b8ff" d="M129.56,-109.98C110.01,-101.42 79.62,-88.11 57.18,-78.28"/>
<polygon fill="#63b8ff" stroke="#63b8ff" points="58.36,-74.98 47.79,-74.17 55.55,-81.39 58.36,-74.98"/>
</a>
</g>
</g>
<!-- Node11 -->
<g id="Node000011" class="node">
<title>Node11</title>
<g id="a_Node000011"><a xlink:title=" ">
<polygon fill="#e0e0e0" stroke="#999999" points="133.5,-74 74.5,-74 74.5,-55 133.5,-55 133.5,-74"/>
<text text-anchor="middle" x="104" y="-62" font-family="Helvetica,sans-Serif" font-size="10.00">gio/gio.h</text>
</a>
</g>
</g>
<!-- Node8&#45;&gt;Node11 -->
<g id="edge13_Node000008_Node000011" class="edge">
<title>Node8&#45;&gt;Node11</title>
<g id="a_edge13_Node000008_Node000011"><a xlink:title=" ">
<path fill="none" stroke="#63b8ff" d="M141.57,-109.75C135.15,-102.18 125.69,-91.05 117.88,-81.84"/>
<polygon fill="#63b8ff" stroke="#63b8ff" points="120.43,-79.45 111.29,-74.09 115.1,-83.98 120.43,-79.45"/>
</a>
</g>
</g>
<!-- Node12&#45;&gt;Node4 -->
<g id="edge15_Node000012_Node000004" class="edge">
<title>Node12&#45;&gt;Node4</title>
<g id="a_edge15_Node000012_Node000004"><a xlink:title=" ">
<path fill="none" stroke="#63b8ff" d="M266.23,-164.91C257.64,-152.35 240.69,-128.45 224,-110 214.69,-99.7 203.33,-89.09 194,-80.82"/>
<polygon fill="#63b8ff" stroke="#63b8ff" points="196.26,-78.15 186.42,-74.22 191.66,-83.43 196.26,-78.15"/>
</a>
</g>
</g>
<!-- Node13&#45;&gt;Node5 -->
<g id="edge18_Node000013_Node000005" class="edge">
<title>Node13&#45;&gt;Node5</title>
<g id="a_edge18_Node000013_Node000005"><a xlink:title=" ">
<path fill="none" stroke="#63b8ff" d="M529.39,-164.92C546.46,-158.13 566.81,-146.77 577,-129 593.36,-100.47 589.84,-85.28 577,-55 572.02,-43.25 562.25,-33.09 552.99,-25.45"/>
<polygon fill="#63b8ff" stroke="#63b8ff" points="554.85,-22.47 544.78,-19.18 550.6,-28.03 554.85,-22.47"/>
</a>
</g>
</g>
<!-- Node13&#45;&gt;Node6 -->
<g id="edge19_Node000013_Node000006" class="edge">
<title>Node13&#45;&gt;Node6</title>
<g id="a_edge19_Node000013_Node000006"><a xlink:title=" ">
<path fill="none" stroke="#63b8ff" d="M473.69,-164.98C445.15,-156.09 400.17,-142.07 368.36,-132.15"/>
<polygon fill="#63b8ff" stroke="#63b8ff" points="369.12,-128.72 358.53,-129.08 367.03,-135.4 369.12,-128.72"/>
</a>
</g>
</g>
<!-- Node14 -->
<g id="Node000014" class="node">
<title>Node14</title>
<g id="a_Node000014"><a xlink:title=" ">
<polygon fill="#e0e0e0" stroke="#999999" points="567.5,-129 512.5,-129 512.5,-110 567.5,-110 567.5,-129"/>
<text text-anchor="middle" x="540" y="-117" font-family="Helvetica,sans-Serif" font-size="10.00">config.h</text>
</a>
</g>
</g>
<!-- Node13&#45;&gt;Node14 -->
<g id="edge17_Node000013_Node000014" class="edge">
<title>Node13&#45;&gt;Node14</title>
<g id="a_edge17_Node000013_Node000014"><a xlink:title=" ">
<path fill="none" stroke="#63b8ff" d="M507.44,-164.75C512.89,-157.34 520.86,-146.5 527.56,-137.41"/>
<polygon fill="#63b8ff" stroke="#63b8ff" points="530.57,-139.22 533.68,-129.09 524.93,-135.07 530.57,-139.22"/>
</a>
</g>
</g>
<!-- Node15 -->
<g id="Node000015" class="node">
<title>Node15</title>
<g id="a_Node000015"><a xlink:href="fr-process_8h.html" target="_top" xlink:title=" ">
<polygon fill="white" stroke="#666666" points="494,-129 420,-129 420,-110 494,-110 494,-129"/>
<text text-anchor="middle" x="457" y="-117" font-family="Helvetica,sans-Serif" font-size="10.00">fr&#45;process.h</text>
</a>
</g>
</g>
<!-- Node13&#45;&gt;Node15 -->
<g id="edge20_Node000013_Node000015" class="edge">
<title>Node13&#45;&gt;Node15</title>
<g id="a_edge20_Node000013_Node000015"><a xlink:title=" ">
<path fill="none" stroke="#63b8ff" d="M493.73,-164.75C487.46,-157.18 478.21,-146.05 470.57,-136.84"/>
<polygon fill="#63b8ff" stroke="#63b8ff" points="473.21,-134.55 464.13,-129.09 467.83,-139.02 473.21,-134.55"/>
</a>
</g>
</g>
<!-- Node15&#45;&gt;Node5 -->
<g id="edge21_Node000015_Node000005" class="edge">
<title>Node15&#45;&gt;Node5</title>
<g id="a_edge21_Node000015_Node000005"><a xlink:title=" ">
<path fill="none" stroke="#63b8ff" d="M462.6,-109.8C470.55,-97.5 485.64,-74.37 499,-55 505.35,-45.8 512.61,-35.67 518.61,-27.4"/>
<polygon fill="#63b8ff" stroke="#63b8ff" points="521.46,-29.44 524.52,-19.29 515.8,-25.31 521.46,-29.44"/>
</a>
</g>
</g>
<!-- Node15&#45;&gt;Node9 -->
<g id="edge23_Node000015_Node000009" class="edge">
<title>Node15&#45;&gt;Node9</title>
<g id="a_edge23_Node000015_Node000009"><a xlink:title=" ">
<path fill="none" stroke="#63b8ff" d="M430.49,-109.98C402.79,-101.09 359.14,-87.07 328.26,-77.15"/>
<polygon fill="#63b8ff" stroke="#63b8ff" points="329.31,-73.81 318.72,-74.08 327.17,-80.47 329.31,-73.81"/>
</a>
</g>
</g>
<!-- Node16 -->
<g id="Node000016" class="node">
<title>Node16</title>
<g id="a_Node000016"><a xlink:title=" ">
<polygon fill="#e0e0e0" stroke="#999999" points="568,-74 508,-74 508,-55 568,-55 568,-74"/>
<text text-anchor="middle" x="538" y="-62" font-family="Helvetica,sans-Serif" font-size="10.00">gtk/gtk.h</text>
</a>
</g>
</g>
<!-- Node15&#45;&gt;Node16 -->
<g id="edge22_Node000015_Node000016" class="edge">
<title>Node15&#45;&gt;Node16</title>
<g id="a_edge22_Node000015_Node000016"><a xlink:title=" ">
<path fill="none" stroke="#63b8ff" d="M470.01,-109.98C482.46,-101.84 501.46,-89.41 516.21,-79.76"/>
<polygon fill="#63b8ff" stroke="#63b8ff" points="518.3,-82.57 524.75,-74.17 514.46,-76.72 518.3,-82.57"/>
</a>
</g>
</g>
<!-- Node17 -->
<g id="Node000017" class="node">
<title>Node17</title>
<g id="a_Node000017"><a xlink:href="typedefs_8h.html" target="_top" xlink:title=" ">
<polygon fill="white" stroke="#666666" points="452,-74 384,-74 384,-55 452,-55 452,-74"/>
<text text-anchor="middle" x="418" y="-62" font-family="Helvetica,sans-Serif" font-size="10.00">typedefs.h</text>
</a>
</g>
</g>
<!-- Node15&#45;&gt;Node17 -->
<g id="edge24_Node000015_Node000017" class="edge">
<title>Node15&#45;&gt;Node17</title>
<g id="a_edge24_Node000015_Node000017"><a xlink:title=" ">
<path fill="none" stroke="#63b8ff" d="M450.56,-109.75C445.11,-102.34 437.14,-91.5 430.44,-82.41"/>
<polygon fill="#63b8ff" stroke="#63b8ff" points="433.07,-80.07 424.32,-74.09 427.43,-84.22 433.07,-80.07"/>
</a>
</g>
</g>
<!-- Node17&#45;&gt;Node5 -->
<g id="edge25_Node000017_Node000005" class="edge">
<title>Node17&#45;&gt;Node5</title>
<g id="a_edge25_Node000017_Node000005"><a xlink:title=" ">
<path fill="none" stroke="#63b8ff" d="M436.16,-54.98C454.25,-46.5 482.28,-33.35 503.19,-23.54"/>
<polygon fill="#63b8ff" stroke="#63b8ff" points="504.95,-26.59 512.51,-19.17 501.97,-20.25 504.95,-26.59"/>
</a>
</g>
</g>
<!-- Node17&#45;&gt;Node7 -->
<g id="edge26_Node000017_Node000007" class="edge">
<title>Node17&#45;&gt;Node7</title>
<g id="a_edge26_Node000017_Node000007"><a xlink:title=" ">
<path fill="none" stroke="#63b8ff" d="M409.41,-54.75C401.84,-47.03 390.62,-35.6 381.49,-26.28"/>
<polygon fill="#63b8ff" stroke="#63b8ff" points="383.93,-23.78 374.43,-19.09 378.93,-28.68 383.93,-23.78"/>
</a>
</g>
</g>
<!-- Node18&#45;&gt;Node5 -->
<g id="edge28_Node000018_Node000005" class="edge">
<title>Node18&#45;&gt;Node5</title>
<g id="a_edge28_Node000018_Node000005"><a xlink:title=" ">
<path fill="none" stroke="#63b8ff" d="M466.52,-219.99C493.69,-213.43 527.36,-202.29 553,-184 578.04,-166.14 585.15,-158.14 595,-129 599.64,-115.26 605.96,-77.59 594,-55 586.84,-41.48 573.52,-31.16 560.97,-23.88"/>
<polygon fill="#63b8ff" stroke="#63b8ff" points="562.53,-20.75 552.06,-19.12 559.22,-26.92 562.53,-20.75"/>
</a>
</g>
</g>
<!-- Node18&#45;&gt;Node13 -->
<g id="edge29_Node000018_Node000013" class="edge">
<title>Node18&#45;&gt;Node13</title>
<g id="a_edge29_Node000018_Node000013"><a xlink:title=" ">
<path fill="none" stroke="#63b8ff" d="M432.17,-219.98C444.77,-211.84 464,-199.41 478.94,-189.76"/>
<polygon fill="#63b8ff" stroke="#63b8ff" points="481.09,-192.54 487.59,-184.17 477.29,-186.66 481.09,-192.54"/>
</a>
</g>
</g>
<!-- Node18&#45;&gt;Node15 -->
<g id="edge30_Node000018_Node000015" class="edge">
<title>Node18&#45;&gt;Node15</title>
<g id="a_edge30_Node000018_Node000015"><a xlink:title=" ">
<path fill="none" stroke="#63b8ff" d="M422.11,-219.66C428.32,-202.01 442.37,-162.09 450.62,-138.64"/>
<polygon fill="#63b8ff" stroke="#63b8ff" points="453.94,-139.75 453.95,-129.16 447.33,-137.43 453.94,-139.75"/>
</a>
</g>
</g>
<!-- Node18&#45;&gt;Node17 -->
<g id="edge31_Node000018_Node000017" class="edge">
<title>Node18&#45;&gt;Node17</title>
<g id="a_edge31_Node000018_Node000017"><a xlink:title=" ">
<path fill="none" stroke="#63b8ff" d="M417.56,-219.87C414.48,-200.31 407.79,-151.11 411,-110 411.66,-101.52 413.03,-92.22 414.37,-84.32"/>
<polygon fill="#63b8ff" stroke="#63b8ff" points="417.85,-84.78 416.2,-74.32 410.96,-83.53 417.85,-84.78"/>
</a>
</g>
</g>
</g>
</svg>
