<?xml version="1.0" encoding="UTF-8" standalone="no"?>
<!DOCTYPE svg PUBLIC "-//W3C//DTD SVG 1.1//EN"
 "http://www.w3.org/Graphics/SVG/1.1/DTD/svg11.dtd">
<!-- Generated by graphviz version 2.43.0 (0)
 -->
<!-- Title: gdict&#45;context&#45;private.h Pages: 1 -->
<svg width="154pt" height="137pt"
 viewBox="0.00 0.00 154.00 137.00" xmlns="http://www.w3.org/2000/svg" xmlns:xlink="http://www.w3.org/1999/xlink">
<g id="graph0" class="graph" transform="scale(1 1) rotate(0) translate(4 133)">
<title>gdict&#45;context&#45;private.h</title>
<!-- Node1 -->
<g id="Node000001" class="node">
<title>Node1</title>
<g id="a_Node000001"><a xlink:title=" ">
<polygon fill="#999999" stroke="#666666" points="128,-129 0,-129 0,-110 128,-110 128,-129"/>
<text text-anchor="middle" x="64" y="-117" font-family="Helvetica,sans-Serif" font-size="10.00">gdict&#45;context&#45;private.h</text>
</a>
</g>
</g>
<!-- Node2 -->
<g id="Node000002" class="node">
<title>Node2</title>
<g id="a_Node000002"><a xlink:title=" ">
<polygon fill="#e0e0e0" stroke="#999999" points="102.5,-19 25.5,-19 25.5,0 102.5,0 102.5,-19"/>
<text text-anchor="middle" x="64" y="-7" font-family="Helvetica,sans-Serif" font-size="10.00">glib&#45;object.h</text>
</a>
</g>
</g>
<!-- Node1&#45;&gt;Node2 -->
<g id="edge1_Node000001_Node000002" class="edge">
<title>Node1&#45;&gt;Node2</title>
<g id="a_edge1_Node000001_Node000002"><a xlink:title=" ">
<path fill="none" stroke="#63b8ff" d="M59.63,-109.91C55.44,-101.14 49.4,-87.01 47,-74 44.12,-58.39 49.39,-41 54.8,-28.37"/>
<polygon fill="#63b8ff" stroke="#63b8ff" points="58.1,-29.57 59.2,-19.03 51.77,-26.58 58.1,-29.57"/>
</a>
</g>
</g>
<!-- Node3 -->
<g id="Node000003" class="node">
<title>Node3</title>
<g id="a_Node000003"><a xlink:href="gdict-context_8h.html" target="_top" xlink:title=" ">
<polygon fill="white" stroke="#666666" points="146,-74 56,-74 56,-55 146,-55 146,-74"/>
<text text-anchor="middle" x="101" y="-62" font-family="Helvetica,sans-Serif" font-size="10.00">gdict&#45;context.h</text>
</a>
</g>
</g>
<!-- Node1&#45;&gt;Node3 -->
<g id="edge2_Node000001_Node000003" class="edge">
<title>Node1&#45;&gt;Node3</title>
<g id="a_edge2_Node000001_Node000003"><a xlink:title=" ">
<path fill="none" stroke="#63b8ff" d="M70.11,-109.75C75.28,-102.34 82.85,-91.5 89.19,-82.41"/>
<polygon fill="#63b8ff" stroke="#63b8ff" points="92.15,-84.29 95,-74.09 86.41,-80.29 92.15,-84.29"/>
</a>
</g>
</g>
<!-- Node3&#45;&gt;Node2 -->
<g id="edge3_Node000003_Node000002" class="edge">
<title>Node3&#45;&gt;Node2</title>
<g id="a_edge3_Node000003_Node000002"><a xlink:title=" ">
<path fill="none" stroke="#63b8ff" d="M94.89,-54.75C89.72,-47.34 82.15,-36.5 75.81,-27.41"/>
<polygon fill="#63b8ff" stroke="#63b8ff" points="78.59,-25.29 70,-19.09 72.85,-29.29 78.59,-25.29"/>
</a>
</g>
</g>
</g>
</svg>
