<?xml version="1.0" encoding="UTF-8" standalone="no"?>
<!DOCTYPE svg PUBLIC "-//W3C//DTD SVG 1.1//EN"
 "http://www.w3.org/Graphics/SVG/1.1/DTD/svg11.dtd">
<!-- Generated by graphviz version 2.43.0 (0)
 -->
<!-- Title: gdict&#45;source.c Pages: 1 -->
<svg width="880pt" height="192pt"
 viewBox="0.00 0.00 880.00 192.00" xmlns="http://www.w3.org/2000/svg" xmlns:xlink="http://www.w3.org/1999/xlink">
<g id="graph0" class="graph" transform="scale(1 1) rotate(0) translate(4 188)">
<title>gdict&#45;source.c</title>
<!-- Node1 -->
<g id="Node000001" class="node">
<title>Node1</title>
<g id="a_Node000001"><a xlink:title=" ">
<polygon fill="#999999" stroke="#666666" points="403.5,-184 318.5,-184 318.5,-165 403.5,-165 403.5,-184"/>
<text text-anchor="middle" x="361" y="-172" font-family="Helvetica,sans-Serif" font-size="10.00">gdict&#45;source.c</text>
</a>
</g>
</g>
<!-- Node2 -->
<g id="Node000002" class="node">
<title>Node2</title>
<g id="a_Node000002"><a xlink:title=" ">
<polygon fill="#e0e0e0" stroke="#999999" points="50,-129 0,-129 0,-110 50,-110 50,-129"/>
<text text-anchor="middle" x="25" y="-117" font-family="Helvetica,sans-Serif" font-size="10.00">stdio.h</text>
</a>
</g>
</g>
<!-- Node1&#45;&gt;Node2 -->
<g id="edge1_Node000001_Node000002" class="edge">
<title>Node1&#45;&gt;Node2</title>
<g id="a_edge1_Node000001_Node000002"><a xlink:title=" ">
<path fill="none" stroke="#63b8ff" d="M318.26,-168.55C261.49,-161.68 157.92,-148.12 60.23,-129.07"/>
<polygon fill="#63b8ff" stroke="#63b8ff" points="60.68,-125.59 50.19,-127.09 59.32,-132.46 60.68,-125.59"/>
</a>
</g>
</g>
<!-- Node3 -->
<g id="Node000003" class="node">
<title>Node3</title>
<g id="a_Node000003"><a xlink:title=" ">
<polygon fill="#e0e0e0" stroke="#999999" points="121.5,-129 68.5,-129 68.5,-110 121.5,-110 121.5,-129"/>
<text text-anchor="middle" x="95" y="-117" font-family="Helvetica,sans-Serif" font-size="10.00">stdlib.h</text>
</a>
</g>
</g>
<!-- Node1&#45;&gt;Node3 -->
<g id="edge2_Node000001_Node000003" class="edge">
<title>Node1&#45;&gt;Node3</title>
<g id="a_edge2_Node000001_Node000003"><a xlink:title=" ">
<path fill="none" stroke="#63b8ff" d="M318.3,-165.91C273.93,-157.88 202.25,-144.51 131.67,-129.29"/>
<polygon fill="#63b8ff" stroke="#63b8ff" points="132.24,-125.83 121.72,-127.13 130.75,-132.67 132.24,-125.83"/>
</a>
</g>
</g>
<!-- Node4 -->
<g id="Node000004" class="node">
<title>Node4</title>
<g id="a_Node000004"><a xlink:title=" ">
<polygon fill="#e0e0e0" stroke="#999999" points="192.5,-129 139.5,-129 139.5,-110 192.5,-110 192.5,-129"/>
<text text-anchor="middle" x="166" y="-117" font-family="Helvetica,sans-Serif" font-size="10.00">string.h</text>
</a>
</g>
</g>
<!-- Node1&#45;&gt;Node4 -->
<g id="edge3_Node000001_Node000004" class="edge">
<title>Node1&#45;&gt;Node4</title>
<g id="a_edge3_Node000001_Node000004"><a xlink:title=" ">
<path fill="none" stroke="#63b8ff" d="M329.67,-164.98C294.93,-155.54 238.98,-140.33 202.34,-130.38"/>
<polygon fill="#63b8ff" stroke="#63b8ff" points="203.12,-126.96 192.55,-127.72 201.29,-133.72 203.12,-126.96"/>
</a>
</g>
</g>
<!-- Node5 -->
<g id="Node000005" class="node">
<title>Node5</title>
<g id="a_Node000005"><a xlink:title=" ">
<polygon fill="#e0e0e0" stroke="#999999" points="299.5,-129 210.5,-129 210.5,-110 299.5,-110 299.5,-129"/>
<text text-anchor="middle" x="255" y="-117" font-family="Helvetica,sans-Serif" font-size="10.00">glib/gi18n&#45;lib.h</text>
</a>
</g>
</g>
<!-- Node1&#45;&gt;Node5 -->
<g id="edge4_Node000001_Node000005" class="edge">
<title>Node1&#45;&gt;Node5</title>
<g id="a_edge4_Node000001_Node000005"><a xlink:title=" ">
<path fill="none" stroke="#63b8ff" d="M343.97,-164.98C327.07,-156.54 300.94,-143.47 281.36,-133.68"/>
<polygon fill="#63b8ff" stroke="#63b8ff" points="282.85,-130.51 272.34,-129.17 279.72,-136.77 282.85,-130.51"/>
</a>
</g>
</g>
<!-- Node6 -->
<g id="Node000006" class="node">
<title>Node6</title>
<g id="a_Node000006"><a xlink:href="gdict-source_8h.html" target="_top" xlink:title=" ">
<polygon fill="white" stroke="#666666" points="404,-129 318,-129 318,-110 404,-110 404,-129"/>
<text text-anchor="middle" x="361" y="-117" font-family="Helvetica,sans-Serif" font-size="10.00">gdict&#45;source.h</text>
</a>
</g>
</g>
<!-- Node1&#45;&gt;Node6 -->
<g id="edge5_Node000001_Node000006" class="edge">
<title>Node1&#45;&gt;Node6</title>
<g id="a_edge5_Node000001_Node000006"><a xlink:title=" ">
<path fill="none" stroke="#63b8ff" d="M361,-164.75C361,-157.8 361,-147.85 361,-139.13"/>
<polygon fill="#63b8ff" stroke="#63b8ff" points="364.5,-139.09 361,-129.09 357.5,-139.09 364.5,-139.09"/>
</a>
</g>
</g>
<!-- Node10 -->
<g id="Node000010" class="node">
<title>Node10</title>
<g id="a_Node000010"><a xlink:href="gdict-client-context_8h.html" target="_top" xlink:title=" ">
<polygon fill="white" stroke="#666666" points="543.5,-129 422.5,-129 422.5,-110 543.5,-110 543.5,-129"/>
<text text-anchor="middle" x="483" y="-117" font-family="Helvetica,sans-Serif" font-size="10.00">gdict&#45;client&#45;context.h</text>
</a>
</g>
</g>
<!-- Node1&#45;&gt;Node10 -->
<g id="edge10_Node000001_Node000010" class="edge">
<title>Node1&#45;&gt;Node10</title>
<g id="a_edge10_Node000001_Node000010"><a xlink:title=" ">
<path fill="none" stroke="#63b8ff" d="M380.6,-164.98C400.32,-156.42 430.95,-143.11 453.58,-133.28"/>
<polygon fill="#63b8ff" stroke="#63b8ff" points="455.26,-136.37 463.04,-129.17 452.48,-129.94 455.26,-136.37"/>
</a>
</g>
</g>
<!-- Node11 -->
<g id="Node000011" class="node">
<title>Node11</title>
<g id="a_Node000011"><a xlink:href="gdict-utils_8h.html" target="_top" xlink:title=" ">
<polygon fill="white" stroke="#666666" points="636,-129 562,-129 562,-110 636,-110 636,-129"/>
<text text-anchor="middle" x="599" y="-117" font-family="Helvetica,sans-Serif" font-size="10.00">gdict&#45;utils.h</text>
</a>
</g>
</g>
<!-- Node1&#45;&gt;Node11 -->
<g id="edge12_Node000001_Node000011" class="edge">
<title>Node1&#45;&gt;Node11</title>
<g id="a_edge12_Node000001_Node000011"><a xlink:title=" ">
<path fill="none" stroke="#63b8ff" d="M399.24,-164.98C440.69,-155.75 506.88,-141.01 551.6,-131.05"/>
<polygon fill="#63b8ff" stroke="#63b8ff" points="552.64,-134.41 561.64,-128.82 551.12,-127.58 552.64,-134.41"/>
</a>
</g>
</g>
<!-- Node13 -->
<g id="Node000013" class="node">
<title>Node13</title>
<g id="a_Node000013"><a xlink:title=" ">
<polygon fill="#e0e0e0" stroke="#999999" points="766,-129 654,-129 654,-110 766,-110 766,-129"/>
<text text-anchor="middle" x="710" y="-117" font-family="Helvetica,sans-Serif" font-size="10.00">gdict&#45;enum&#45;types.h</text>
</a>
</g>
</g>
<!-- Node1&#45;&gt;Node13 -->
<g id="edge15_Node000001_Node000013" class="edge">
<title>Node1&#45;&gt;Node13</title>
<g id="a_edge15_Node000001_Node000013"><a xlink:title=" ">
<path fill="none" stroke="#63b8ff" d="M403.79,-167C463.73,-157.9 573.24,-141.27 643.76,-130.56"/>
<polygon fill="#63b8ff" stroke="#63b8ff" points="644.51,-133.99 653.87,-129.02 643.45,-127.07 644.51,-133.99"/>
</a>
</g>
</g>
<!-- Node14 -->
<g id="Node000014" class="node">
<title>Node14</title>
<g id="a_Node000014"><a xlink:href="gdict-private_8h.html" target="_top" xlink:title=" ">
<polygon fill="white" stroke="#666666" points="872,-129 784,-129 784,-110 872,-110 872,-129"/>
<text text-anchor="middle" x="828" y="-117" font-family="Helvetica,sans-Serif" font-size="10.00">gdict&#45;private.h</text>
</a>
</g>
</g>
<!-- Node1&#45;&gt;Node14 -->
<g id="edge16_Node000001_Node000014" class="edge">
<title>Node1&#45;&gt;Node14</title>
<g id="a_edge16_Node000001_Node000014"><a xlink:title=" ">
<path fill="none" stroke="#63b8ff" d="M403.7,-169.65C477.13,-162.86 632.27,-147.83 773.63,-129.12"/>
<polygon fill="#63b8ff" stroke="#63b8ff" points="774.33,-132.56 783.78,-127.77 773.4,-125.62 774.33,-132.56"/>
</a>
</g>
</g>
<!-- Node7 -->
<g id="Node000007" class="node">
<title>Node7</title>
<g id="a_Node000007"><a xlink:title=" ">
<polygon fill="#e0e0e0" stroke="#999999" points="382,-74 326,-74 326,-55 382,-55 382,-74"/>
<text text-anchor="middle" x="354" y="-62" font-family="Helvetica,sans-Serif" font-size="10.00">stdarg.h</text>
</a>
</g>
</g>
<!-- Node6&#45;&gt;Node7 -->
<g id="edge6_Node000006_Node000007" class="edge">
<title>Node6&#45;&gt;Node7</title>
<g id="a_edge6_Node000006_Node000007"><a xlink:title=" ">
<path fill="none" stroke="#63b8ff" d="M359.84,-109.75C358.93,-102.8 357.61,-92.85 356.46,-84.13"/>
<polygon fill="#63b8ff" stroke="#63b8ff" points="359.91,-83.54 355.13,-74.09 352.97,-84.46 359.91,-83.54"/>
</a>
</g>
</g>
<!-- Node8 -->
<g id="Node000008" class="node">
<title>Node8</title>
<g id="a_Node000008"><a xlink:title=" ">
<polygon fill="#e0e0e0" stroke="#999999" points="521.5,-19 444.5,-19 444.5,0 521.5,0 521.5,-19"/>
<text text-anchor="middle" x="483" y="-7" font-family="Helvetica,sans-Serif" font-size="10.00">glib&#45;object.h</text>
</a>
</g>
</g>
<!-- Node6&#45;&gt;Node8 -->
<g id="edge7_Node000006_Node000008" class="edge">
<title>Node6&#45;&gt;Node8</title>
<g id="a_edge7_Node000006_Node000008"><a xlink:title=" ">
<path fill="none" stroke="#63b8ff" d="M370.07,-109.69C382.96,-97.26 407.39,-73.96 429,-55 440.41,-44.98 453.56,-34.14 464.02,-25.66"/>
<polygon fill="#63b8ff" stroke="#63b8ff" points="466.49,-28.17 472.08,-19.17 462.09,-22.72 466.49,-28.17"/>
</a>
</g>
</g>
<!-- Node9 -->
<g id="Node000009" class="node">
<title>Node9</title>
<g id="a_Node000009"><a xlink:href="gdict-context_8h.html" target="_top" xlink:title=" ">
<polygon fill="white" stroke="#666666" points="528,-74 438,-74 438,-55 528,-55 528,-74"/>
<text text-anchor="middle" x="483" y="-62" font-family="Helvetica,sans-Serif" font-size="10.00">gdict&#45;context.h</text>
</a>
</g>
</g>
<!-- Node6&#45;&gt;Node9 -->
<g id="edge8_Node000006_Node000009" class="edge">
<title>Node6&#45;&gt;Node9</title>
<g id="a_edge8_Node000006_Node000009"><a xlink:title=" ">
<path fill="none" stroke="#63b8ff" d="M380.6,-109.98C400.32,-101.42 430.95,-88.11 453.58,-78.28"/>
<polygon fill="#63b8ff" stroke="#63b8ff" points="455.26,-81.37 463.04,-74.17 452.48,-74.94 455.26,-81.37"/>
</a>
</g>
</g>
<!-- Node9&#45;&gt;Node8 -->
<g id="edge9_Node000009_Node000008" class="edge">
<title>Node9&#45;&gt;Node8</title>
<g id="a_edge9_Node000009_Node000008"><a xlink:title=" ">
<path fill="none" stroke="#63b8ff" d="M483,-54.75C483,-47.8 483,-37.85 483,-29.13"/>
<polygon fill="#63b8ff" stroke="#63b8ff" points="486.5,-29.09 483,-19.09 479.5,-29.09 486.5,-29.09"/>
</a>
</g>
</g>
<!-- Node10&#45;&gt;Node9 -->
<g id="edge11_Node000010_Node000009" class="edge">
<title>Node10&#45;&gt;Node9</title>
<g id="a_edge11_Node000010_Node000009"><a xlink:title=" ">
<path fill="none" stroke="#63b8ff" d="M483,-109.75C483,-102.8 483,-92.85 483,-84.13"/>
<polygon fill="#63b8ff" stroke="#63b8ff" points="486.5,-84.09 483,-74.09 479.5,-84.09 486.5,-84.09"/>
</a>
</g>
</g>
<!-- Node11&#45;&gt;Node8 -->
<g id="edge13_Node000011_Node000008" class="edge">
<title>Node11&#45;&gt;Node8</title>
<g id="a_edge13_Node000011_Node000008"><a xlink:title=" ">
<path fill="none" stroke="#63b8ff" d="M591.25,-110C579.78,-97.54 557.42,-73.77 537,-55 525.82,-44.72 512.68,-33.87 502.17,-25.46"/>
<polygon fill="#63b8ff" stroke="#63b8ff" points="504.06,-22.5 494.05,-19.03 499.72,-27.98 504.06,-22.5"/>
</a>
</g>
</g>
<!-- Node12 -->
<g id="Node000012" class="node">
<title>Node12</title>
<g id="a_Node000012"><a xlink:title=" ">
<polygon fill="#e0e0e0" stroke="#999999" points="717,-74 657,-74 657,-55 717,-55 717,-74"/>
<text text-anchor="middle" x="687" y="-62" font-family="Helvetica,sans-Serif" font-size="10.00">gtk/gtk.h</text>
</a>
</g>
</g>
<!-- Node11&#45;&gt;Node12 -->
<g id="edge14_Node000011_Node000012" class="edge">
<title>Node11&#45;&gt;Node12</title>
<g id="a_edge14_Node000011_Node000012"><a xlink:title=" ">
<path fill="none" stroke="#63b8ff" d="M613.14,-109.98C626.79,-101.77 647.69,-89.18 663.78,-79.49"/>
<polygon fill="#63b8ff" stroke="#63b8ff" points="665.84,-82.33 672.6,-74.17 662.23,-76.33 665.84,-82.33"/>
</a>
</g>
</g>
<!-- Node14&#45;&gt;Node12 -->
<g id="edge17_Node000014_Node000012" class="edge">
<title>Node14&#45;&gt;Node12</title>
<g id="a_edge17_Node000014_Node000012"><a xlink:title=" ">
<path fill="none" stroke="#63b8ff" d="M805.35,-109.98C782.15,-101.27 745.88,-87.63 719.6,-77.75"/>
<polygon fill="#63b8ff" stroke="#63b8ff" points="720.66,-74.41 710.07,-74.17 718.2,-80.97 720.66,-74.41"/>
</a>
</g>
</g>
<!-- Node15 -->
<g id="Node000015" class="node">
<title>Node15</title>
<g id="a_Node000015"><a xlink:href="gdict-debug_8h.html" target="_top" xlink:title=" ">
<polygon fill="white" stroke="#666666" points="869.5,-74 786.5,-74 786.5,-55 869.5,-55 869.5,-74"/>
<text text-anchor="middle" x="828" y="-62" font-family="Helvetica,sans-Serif" font-size="10.00">gdict&#45;debug.h</text>
</a>
</g>
</g>
<!-- Node14&#45;&gt;Node15 -->
<g id="edge18_Node000014_Node000015" class="edge">
<title>Node14&#45;&gt;Node15</title>
<g id="a_edge18_Node000014_Node000015"><a xlink:title=" ">
<path fill="none" stroke="#63b8ff" d="M828,-109.75C828,-102.8 828,-92.85 828,-84.13"/>
<polygon fill="#63b8ff" stroke="#63b8ff" points="831.5,-84.09 828,-74.09 824.5,-84.09 831.5,-84.09"/>
</a>
</g>
</g>
<!-- Node16 -->
<g id="Node000016" class="node">
<title>Node16</title>
<g id="a_Node000016"><a xlink:title=" ">
<polygon fill="#e0e0e0" stroke="#999999" points="850,-19 806,-19 806,0 850,0 850,-19"/>
<text text-anchor="middle" x="828" y="-7" font-family="Helvetica,sans-Serif" font-size="10.00">glib.h</text>
</a>
</g>
</g>
<!-- Node15&#45;&gt;Node16 -->
<g id="edge19_Node000015_Node000016" class="edge">
<title>Node15&#45;&gt;Node16</title>
<g id="a_edge19_Node000015_Node000016"><a xlink:title=" ">
<path fill="none" stroke="#63b8ff" d="M828,-54.75C828,-47.8 828,-37.85 828,-29.13"/>
<polygon fill="#63b8ff" stroke="#63b8ff" points="831.5,-29.09 828,-19.09 824.5,-29.09 831.5,-29.09"/>
</a>
</g>
</g>
</g>
</svg>
