<?xml version="1.0" encoding="UTF-8" standalone="no"?>
<!DOCTYPE svg PUBLIC "-//W3C//DTD SVG 1.1//EN"
 "http://www.w3.org/Graphics/SVG/1.1/DTD/svg11.dtd">
<!-- Generated by graphviz version 2.43.0 (0)
 -->
<!-- Title: gdict&#45;window.h Pages: 1 -->
<svg width="1406pt" height="357pt"
 viewBox="0.00 0.00 1405.50 357.00" xmlns="http://www.w3.org/2000/svg" xmlns:xlink="http://www.w3.org/1999/xlink">
<g id="graph0" class="graph" transform="scale(1 1) rotate(0) translate(4 353)">
<title>gdict&#45;window.h</title>
<!-- Node1 -->
<g id="Node000001" class="node">
<title>Node1</title>
<g id="a_Node000001"><a xlink:title=" ">
<polygon fill="#999999" stroke="#666666" points="235.5,-349 145.5,-349 145.5,-330 235.5,-330 235.5,-349"/>
<text text-anchor="middle" x="190.5" y="-337" font-family="Helvetica,sans-Serif" font-size="10.00">gdict&#45;window.h</text>
</a>
</g>
</g>
<!-- Node2 -->
<g id="Node000002" class="node">
<title>Node2</title>
<g id="a_Node000002"><a xlink:title=" ">
<polygon fill="#e0e0e0" stroke="#999999" points="59,-294 0,-294 0,-275 59,-275 59,-294"/>
<text text-anchor="middle" x="29.5" y="-282" font-family="Helvetica,sans-Serif" font-size="10.00">gio/gio.h</text>
</a>
</g>
</g>
<!-- Node1&#45;&gt;Node2 -->
<g id="edge1_Node000001_Node000002" class="edge">
<title>Node1&#45;&gt;Node2</title>
<g id="a_edge1_Node000001_Node000002"><a xlink:title=" ">
<path fill="none" stroke="#63b8ff" d="M164.63,-329.98C137.72,-321.13 95.38,-307.19 65.27,-297.28"/>
<polygon fill="#63b8ff" stroke="#63b8ff" points="66.16,-293.88 55.57,-294.08 63.97,-300.53 66.16,-293.88"/>
</a>
</g>
</g>
<!-- Node3 -->
<g id="Node000003" class="node">
<title>Node3</title>
<g id="a_Node000003"><a xlink:title=" ">
<polygon fill="#e0e0e0" stroke="#999999" points="210,-294 77,-294 77,-275 210,-275 210,-294"/>
<text text-anchor="middle" x="143.5" y="-282" font-family="Helvetica,sans-Serif" font-size="10.00">gdk&#45;pixbuf/gdk&#45;pixbuf.h</text>
</a>
</g>
</g>
<!-- Node1&#45;&gt;Node3 -->
<g id="edge2_Node000001_Node000003" class="edge">
<title>Node1&#45;&gt;Node3</title>
<g id="a_edge2_Node000001_Node000003"><a xlink:title=" ">
<path fill="none" stroke="#63b8ff" d="M182.74,-329.75C176.03,-322.18 166.16,-311.05 157.99,-301.84"/>
<polygon fill="#63b8ff" stroke="#63b8ff" points="160.37,-299.25 151.12,-294.09 155.13,-303.89 160.37,-299.25"/>
</a>
</g>
</g>
<!-- Node4 -->
<g id="Node000004" class="node">
<title>Node4</title>
<g id="a_Node000004"><a xlink:title=" ">
<polygon fill="#e0e0e0" stroke="#999999" points="799.5,-184 739.5,-184 739.5,-165 799.5,-165 799.5,-184"/>
<text text-anchor="middle" x="769.5" y="-172" font-family="Helvetica,sans-Serif" font-size="10.00">gtk/gtk.h</text>
</a>
</g>
</g>
<!-- Node1&#45;&gt;Node4 -->
<g id="edge3_Node000001_Node000004" class="edge">
<title>Node1&#45;&gt;Node4</title>
<g id="a_edge3_Node000001_Node000004"><a xlink:title=" ">
<path fill="none" stroke="#63b8ff" d="M197.45,-329.97C216.44,-307.35 271.94,-245.8 333.5,-220 404.45,-190.27 635.34,-179.74 729.23,-176.63"/>
<polygon fill="#63b8ff" stroke="#63b8ff" points="729.58,-180.12 739.46,-176.3 729.36,-173.12 729.58,-180.12"/>
</a>
</g>
</g>
<!-- Node5 -->
<g id="Node000005" class="node">
<title>Node5</title>
<g id="a_Node000005"><a xlink:href="gdict_8h.html" target="_top" xlink:title=" ">
<polygon fill="white" stroke="#666666" points="888,-294 799,-294 799,-275 888,-275 888,-294"/>
<text text-anchor="middle" x="843.5" y="-282" font-family="Helvetica,sans-Serif" font-size="10.00">libgdict/gdict.h</text>
</a>
</g>
</g>
<!-- Node1&#45;&gt;Node5 -->
<g id="edge4_Node000001_Node000005" class="edge">
<title>Node1&#45;&gt;Node5</title>
<g id="a_edge4_Node000001_Node000005"><a xlink:title=" ">
<path fill="none" stroke="#63b8ff" d="M235.64,-334.84C352.03,-325.39 662.03,-300.23 788.56,-289.96"/>
<polygon fill="#63b8ff" stroke="#63b8ff" points="789.1,-293.43 798.78,-289.13 788.53,-286.45 789.1,-293.43"/>
</a>
</g>
</g>
<!-- Node6 -->
<g id="Node000006" class="node">
<title>Node6</title>
<g id="a_Node000006"><a xlink:href="gdict-context_8h.html" target="_top" xlink:title=" ">
<polygon fill="white" stroke="#666666" points="818.5,-74 728.5,-74 728.5,-55 818.5,-55 818.5,-74"/>
<text text-anchor="middle" x="773.5" y="-62" font-family="Helvetica,sans-Serif" font-size="10.00">gdict&#45;context.h</text>
</a>
</g>
</g>
<!-- Node5&#45;&gt;Node6 -->
<g id="edge5_Node000005_Node000006" class="edge">
<title>Node5&#45;&gt;Node6</title>
<g id="a_edge5_Node000005_Node000006"><a xlink:title=" ">
<path fill="none" stroke="#63b8ff" d="M888.24,-282.16C942.5,-278.55 1023.98,-265.62 1000.5,-220 960.87,-142.98 863.15,-97.46 809.76,-77.53"/>
<polygon fill="#63b8ff" stroke="#63b8ff" points="810.92,-74.23 800.33,-74.1 808.53,-80.81 810.92,-74.23"/>
</a>
</g>
</g>
<!-- Node8 -->
<g id="Node000008" class="node">
<title>Node8</title>
<g id="a_Node000008"><a xlink:href="gdict-client-context_8h.html" target="_top" xlink:title=" ">
<polygon fill="white" stroke="#666666" points="1244,-129 1123,-129 1123,-110 1244,-110 1244,-129"/>
<text text-anchor="middle" x="1183.5" y="-117" font-family="Helvetica,sans-Serif" font-size="10.00">gdict&#45;client&#45;context.h</text>
</a>
</g>
</g>
<!-- Node5&#45;&gt;Node8 -->
<g id="edge7_Node000005_Node000008" class="edge">
<title>Node5&#45;&gt;Node8</title>
<g id="a_edge7_Node000005_Node000008"><a xlink:title=" ">
<path fill="none" stroke="#63b8ff" d="M888.19,-282.23C993.59,-278.77 1250.8,-267.47 1276.5,-239 1309.05,-202.94 1245.39,-156.82 1208.01,-134.22"/>
<polygon fill="#63b8ff" stroke="#63b8ff" points="1209.54,-131.06 1199.15,-129.01 1205.99,-137.1 1209.54,-131.06"/>
</a>
</g>
</g>
<!-- Node9 -->
<g id="Node000009" class="node">
<title>Node9</title>
<g id="a_Node000009"><a xlink:href="gdict-source_8h.html" target="_top" xlink:title=" ">
<polygon fill="white" stroke="#666666" points="464.5,-129 378.5,-129 378.5,-110 464.5,-110 464.5,-129"/>
<text text-anchor="middle" x="421.5" y="-117" font-family="Helvetica,sans-Serif" font-size="10.00">gdict&#45;source.h</text>
</a>
</g>
</g>
<!-- Node5&#45;&gt;Node9 -->
<g id="edge9_Node000005_Node000009" class="edge">
<title>Node5&#45;&gt;Node9</title>
<g id="a_edge9_Node000005_Node000009"><a xlink:title=" ">
<path fill="none" stroke="#63b8ff" d="M798.96,-283.05C679.05,-281.37 356.3,-273.64 324.5,-239 308.55,-221.62 324.92,-188.35 344.5,-165 356.17,-151.09 373.36,-140.57 388.55,-133.26"/>
<polygon fill="#63b8ff" stroke="#63b8ff" points="390.01,-136.44 397.67,-129.12 387.12,-130.06 390.01,-136.44"/>
</a>
</g>
</g>
<!-- Node11 -->
<g id="Node000011" class="node">
<title>Node11</title>
<g id="a_Node000011"><a xlink:href="gdict-source-loader_8h.html" target="_top" xlink:title=" ">
<polygon fill="white" stroke="#666666" points="473,-184 354,-184 354,-165 473,-165 473,-184"/>
<text text-anchor="middle" x="413.5" y="-172" font-family="Helvetica,sans-Serif" font-size="10.00">gdict&#45;source&#45;loader.h</text>
</a>
</g>
</g>
<!-- Node5&#45;&gt;Node11 -->
<g id="edge13_Node000005_Node000011" class="edge">
<title>Node5&#45;&gt;Node11</title>
<g id="a_edge13_Node000005_Node000011"><a xlink:title=" ">
<path fill="none" stroke="#63b8ff" d="M798.87,-282.97C680.37,-281.11 364.65,-272.99 333.5,-239 314.88,-218.68 348.36,-199.63 377.54,-187.79"/>
<polygon fill="#63b8ff" stroke="#63b8ff" points="379.12,-190.93 387.19,-184.06 376.6,-184.4 379.12,-190.93"/>
</a>
</g>
</g>
<!-- Node12 -->
<g id="Node000012" class="node">
<title>Node12</title>
<g id="a_Node000012"><a xlink:href="gdict-source-chooser_8h.html" target="_top" xlink:title=" ">
<polygon fill="white" stroke="#666666" points="470,-239 343,-239 343,-220 470,-220 470,-239"/>
<text text-anchor="middle" x="406.5" y="-227" font-family="Helvetica,sans-Serif" font-size="10.00">gdict&#45;source&#45;chooser.h</text>
</a>
</g>
</g>
<!-- Node5&#45;&gt;Node12 -->
<g id="edge16_Node000005_Node000012" class="edge">
<title>Node5&#45;&gt;Node12</title>
<g id="a_edge16_Node000005_Node000012"><a xlink:title=" ">
<path fill="none" stroke="#63b8ff" d="M798.79,-278.08C723.62,-268.96 571.23,-250.48 480.09,-239.43"/>
<polygon fill="#63b8ff" stroke="#63b8ff" points="480.46,-235.94 470.11,-238.21 479.61,-242.89 480.46,-235.94"/>
</a>
</g>
</g>
<!-- Node13 -->
<g id="Node000013" class="node">
<title>Node13</title>
<g id="a_Node000013"><a xlink:href="gdict-database-chooser_8h.html" target="_top" xlink:title=" ">
<polygon fill="white" stroke="#666666" points="781.5,-239 641.5,-239 641.5,-220 781.5,-220 781.5,-239"/>
<text text-anchor="middle" x="711.5" y="-227" font-family="Helvetica,sans-Serif" font-size="10.00">gdict&#45;database&#45;chooser.h</text>
</a>
</g>
</g>
<!-- Node5&#45;&gt;Node13 -->
<g id="edge19_Node000005_Node000013" class="edge">
<title>Node5&#45;&gt;Node13</title>
<g id="a_edge19_Node000005_Node000013"><a xlink:title=" ">
<path fill="none" stroke="#63b8ff" d="M822.29,-274.98C800.77,-266.34 767.22,-252.87 742.67,-243.02"/>
<polygon fill="#63b8ff" stroke="#63b8ff" points="743.68,-239.65 733.09,-239.17 741.07,-246.14 743.68,-239.65"/>
</a>
</g>
</g>
<!-- Node14 -->
<g id="Node000014" class="node">
<title>Node14</title>
<g id="a_Node000014"><a xlink:href="gdict-defbox_8h.html" target="_top" xlink:title=" ">
<polygon fill="white" stroke="#666666" points="887,-239 800,-239 800,-220 887,-220 887,-239"/>
<text text-anchor="middle" x="843.5" y="-227" font-family="Helvetica,sans-Serif" font-size="10.00">gdict&#45;defbox.h</text>
</a>
</g>
</g>
<!-- Node5&#45;&gt;Node14 -->
<g id="edge22_Node000005_Node000014" class="edge">
<title>Node5&#45;&gt;Node14</title>
<g id="a_edge22_Node000005_Node000014"><a xlink:title=" ">
<path fill="none" stroke="#63b8ff" d="M843.5,-274.75C843.5,-267.8 843.5,-257.85 843.5,-249.13"/>
<polygon fill="#63b8ff" stroke="#63b8ff" points="847,-249.09 843.5,-239.09 840,-249.09 847,-249.09"/>
</a>
</g>
</g>
<!-- Node15 -->
<g id="Node000015" class="node">
<title>Node15</title>
<g id="a_Node000015"><a xlink:href="gdict-speller_8h.html" target="_top" xlink:title=" ">
<polygon fill="white" stroke="#666666" points="991.5,-239 905.5,-239 905.5,-220 991.5,-220 991.5,-239"/>
<text text-anchor="middle" x="948.5" y="-227" font-family="Helvetica,sans-Serif" font-size="10.00">gdict&#45;speller.h</text>
</a>
</g>
</g>
<!-- Node5&#45;&gt;Node15 -->
<g id="edge25_Node000005_Node000015" class="edge">
<title>Node5&#45;&gt;Node15</title>
<g id="a_edge25_Node000005_Node000015"><a xlink:title=" ">
<path fill="none" stroke="#63b8ff" d="M860.37,-274.98C877.11,-266.54 903,-253.47 922.39,-243.68"/>
<polygon fill="#63b8ff" stroke="#63b8ff" points="923.97,-246.8 931.32,-239.17 920.82,-240.55 923.97,-246.8"/>
</a>
</g>
</g>
<!-- Node16 -->
<g id="Node000016" class="node">
<title>Node16</title>
<g id="a_Node000016"><a xlink:href="gdict-strategy-chooser_8h.html" target="_top" xlink:title=" ">
<polygon fill="white" stroke="#666666" points="623,-239 488,-239 488,-220 623,-220 623,-239"/>
<text text-anchor="middle" x="555.5" y="-227" font-family="Helvetica,sans-Serif" font-size="10.00">gdict&#45;strategy&#45;chooser.h</text>
</a>
</g>
</g>
<!-- Node5&#45;&gt;Node16 -->
<g id="edge28_Node000005_Node000016" class="edge">
<title>Node5&#45;&gt;Node16</title>
<g id="a_edge28_Node000005_Node000016"><a xlink:title=" ">
<path fill="none" stroke="#63b8ff" d="M798.82,-275.28C748.39,-266 666.3,-250.89 611.6,-240.82"/>
<polygon fill="#63b8ff" stroke="#63b8ff" points="612.19,-237.37 601.72,-239.01 610.92,-244.26 612.19,-237.37"/>
</a>
</g>
</g>
<!-- Node17 -->
<g id="Node000017" class="node">
<title>Node17</title>
<g id="a_Node000017"><a xlink:href="gdict-utils_8h.html" target="_top" xlink:title=" ">
<polygon fill="white" stroke="#666666" points="1397.5,-239 1323.5,-239 1323.5,-220 1397.5,-220 1397.5,-239"/>
<text text-anchor="middle" x="1360.5" y="-227" font-family="Helvetica,sans-Serif" font-size="10.00">gdict&#45;utils.h</text>
</a>
</g>
</g>
<!-- Node5&#45;&gt;Node17 -->
<g id="edge31_Node000005_Node000017" class="edge">
<title>Node5&#45;&gt;Node17</title>
<g id="a_edge31_Node000005_Node000017"><a xlink:title=" ">
<path fill="none" stroke="#63b8ff" d="M888.28,-280.27C971.46,-274.04 1155.38,-259.18 1309.5,-239 1310.78,-238.83 1312.07,-238.66 1313.38,-238.48"/>
<polygon fill="#63b8ff" stroke="#63b8ff" points="1314.12,-241.9 1323.5,-236.98 1313.09,-234.98 1314.12,-241.9"/>
</a>
</g>
</g>
<!-- Node18 -->
<g id="Node000018" class="node">
<title>Node18</title>
<g id="a_Node000018"><a xlink:title=" ">
<polygon fill="#e0e0e0" stroke="#999999" points="1159.5,-239 1047.5,-239 1047.5,-220 1159.5,-220 1159.5,-239"/>
<text text-anchor="middle" x="1103.5" y="-227" font-family="Helvetica,sans-Serif" font-size="10.00">gdict&#45;enum&#45;types.h</text>
</a>
</g>
</g>
<!-- Node5&#45;&gt;Node18 -->
<g id="edge34_Node000005_Node000018" class="edge">
<title>Node5&#45;&gt;Node18</title>
<g id="a_edge34_Node000005_Node000018"><a xlink:title=" ">
<path fill="none" stroke="#63b8ff" d="M885.27,-274.98C930.44,-265.78 1002.5,-251.09 1051.35,-241.13"/>
<polygon fill="#63b8ff" stroke="#63b8ff" points="1052.3,-244.51 1061.4,-239.08 1050.9,-237.65 1052.3,-244.51"/>
</a>
</g>
</g>
<!-- Node19 -->
<g id="Node000019" class="node">
<title>Node19</title>
<g id="a_Node000019"><a xlink:title=" ">
<polygon fill="#e0e0e0" stroke="#999999" points="1267,-239 1178,-239 1178,-220 1267,-220 1267,-239"/>
<text text-anchor="middle" x="1222.5" y="-227" font-family="Helvetica,sans-Serif" font-size="10.00">gdict&#45;version.h</text>
</a>
</g>
</g>
<!-- Node5&#45;&gt;Node19 -->
<g id="edge35_Node000005_Node000019" class="edge">
<title>Node5&#45;&gt;Node19</title>
<g id="a_edge35_Node000005_Node000019"><a xlink:title=" ">
<path fill="none" stroke="#63b8ff" d="M888.23,-277.66C949.03,-269.67 1061.42,-254.66 1167.78,-239.08"/>
<polygon fill="#63b8ff" stroke="#63b8ff" points="1168.34,-242.54 1177.72,-237.62 1167.32,-235.61 1168.34,-242.54"/>
</a>
</g>
</g>
<!-- Node7 -->
<g id="Node000007" class="node">
<title>Node7</title>
<g id="a_Node000007"><a xlink:title=" ">
<polygon fill="#e0e0e0" stroke="#999999" points="691,-19 614,-19 614,0 691,0 691,-19"/>
<text text-anchor="middle" x="652.5" y="-7" font-family="Helvetica,sans-Serif" font-size="10.00">glib&#45;object.h</text>
</a>
</g>
</g>
<!-- Node6&#45;&gt;Node7 -->
<g id="edge6_Node000006_Node000007" class="edge">
<title>Node6&#45;&gt;Node7</title>
<g id="a_edge6_Node000006_Node000007"><a xlink:title=" ">
<path fill="none" stroke="#63b8ff" d="M754.06,-54.98C734.51,-46.42 704.12,-33.11 681.68,-23.28"/>
<polygon fill="#63b8ff" stroke="#63b8ff" points="682.86,-19.98 672.29,-19.17 680.05,-26.39 682.86,-19.98"/>
</a>
</g>
</g>
<!-- Node8&#45;&gt;Node6 -->
<g id="edge8_Node000008_Node000006" class="edge">
<title>Node8&#45;&gt;Node6</title>
<g id="a_edge8_Node000008_Node000006"><a xlink:title=" ">
<path fill="none" stroke="#63b8ff" d="M1122.56,-110.62C1043.04,-100.34 905.03,-82.5 828.53,-72.61"/>
<polygon fill="#63b8ff" stroke="#63b8ff" points="828.98,-69.14 818.61,-71.33 828.08,-76.08 828.98,-69.14"/>
</a>
</g>
</g>
<!-- Node9&#45;&gt;Node6 -->
<g id="edge12_Node000009_Node000006" class="edge">
<title>Node9&#45;&gt;Node6</title>
<g id="a_edge12_Node000009_Node000006"><a xlink:title=" ">
<path fill="none" stroke="#63b8ff" d="M464.66,-112C528.53,-102.38 648.19,-84.37 718.34,-73.81"/>
<polygon fill="#63b8ff" stroke="#63b8ff" points="718.95,-77.25 728.31,-72.3 717.91,-70.33 718.95,-77.25"/>
</a>
</g>
</g>
<!-- Node9&#45;&gt;Node7 -->
<g id="edge11_Node000009_Node000007" class="edge">
<title>Node9&#45;&gt;Node7</title>
<g id="a_edge11_Node000009_Node000007"><a xlink:title=" ">
<path fill="none" stroke="#63b8ff" d="M421.46,-109.66C421.92,-95.87 424.91,-69.33 440.5,-55 463.84,-33.54 548.42,-21.04 603.43,-15.01"/>
<polygon fill="#63b8ff" stroke="#63b8ff" points="604.1,-18.46 613.68,-13.93 603.36,-11.5 604.1,-18.46"/>
</a>
</g>
</g>
<!-- Node10 -->
<g id="Node000010" class="node">
<title>Node10</title>
<g id="a_Node000010"><a xlink:title=" ">
<polygon fill="#e0e0e0" stroke="#999999" points="505.5,-74 449.5,-74 449.5,-55 505.5,-55 505.5,-74"/>
<text text-anchor="middle" x="477.5" y="-62" font-family="Helvetica,sans-Serif" font-size="10.00">stdarg.h</text>
</a>
</g>
</g>
<!-- Node9&#45;&gt;Node10 -->
<g id="edge10_Node000009_Node000010" class="edge">
<title>Node9&#45;&gt;Node10</title>
<g id="a_edge10_Node000009_Node000010"><a xlink:title=" ">
<path fill="none" stroke="#63b8ff" d="M430.5,-109.98C438.69,-102.23 451.01,-90.58 460.97,-81.14"/>
<polygon fill="#63b8ff" stroke="#63b8ff" points="463.48,-83.59 468.34,-74.17 458.67,-78.5 463.48,-83.59"/>
</a>
</g>
</g>
<!-- Node11&#45;&gt;Node7 -->
<g id="edge14_Node000011_Node000007" class="edge">
<title>Node11&#45;&gt;Node7</title>
<g id="a_edge14_Node000011_Node000007"><a xlink:title=" ">
<path fill="none" stroke="#63b8ff" d="M426.01,-164.97C464.72,-138.57 582.83,-58.02 631.35,-24.93"/>
<polygon fill="#63b8ff" stroke="#63b8ff" points="633.53,-27.67 639.82,-19.15 629.59,-21.89 633.53,-27.67"/>
</a>
</g>
</g>
<!-- Node11&#45;&gt;Node9 -->
<g id="edge15_Node000011_Node000009" class="edge">
<title>Node11&#45;&gt;Node9</title>
<g id="a_edge15_Node000011_Node000009"><a xlink:title=" ">
<path fill="none" stroke="#63b8ff" d="M414.82,-164.75C415.87,-157.8 417.37,-147.85 418.69,-139.13"/>
<polygon fill="#63b8ff" stroke="#63b8ff" points="422.17,-139.5 420.2,-129.09 415.25,-138.45 422.17,-139.5"/>
</a>
</g>
</g>
<!-- Node12&#45;&gt;Node4 -->
<g id="edge17_Node000012_Node000004" class="edge">
<title>Node12&#45;&gt;Node4</title>
<g id="a_edge17_Node000012_Node000004"><a xlink:title=" ">
<path fill="none" stroke="#63b8ff" d="M464.82,-219.98C538.86,-209.17 664.68,-190.8 729.01,-181.41"/>
<polygon fill="#63b8ff" stroke="#63b8ff" points="729.77,-184.84 739.16,-179.93 728.76,-177.91 729.77,-184.84"/>
</a>
</g>
</g>
<!-- Node12&#45;&gt;Node11 -->
<g id="edge18_Node000012_Node000011" class="edge">
<title>Node12&#45;&gt;Node11</title>
<g id="a_edge18_Node000012_Node000011"><a xlink:title=" ">
<path fill="none" stroke="#63b8ff" d="M407.66,-219.75C408.57,-212.8 409.89,-202.85 411.04,-194.13"/>
<polygon fill="#63b8ff" stroke="#63b8ff" points="414.53,-194.46 412.37,-184.09 407.59,-193.54 414.53,-194.46"/>
</a>
</g>
</g>
<!-- Node13&#45;&gt;Node4 -->
<g id="edge20_Node000013_Node000004" class="edge">
<title>Node13&#45;&gt;Node4</title>
<g id="a_edge20_Node000013_Node000004"><a xlink:title=" ">
<path fill="none" stroke="#63b8ff" d="M720.82,-219.98C729.31,-212.23 742.06,-200.58 752.38,-191.14"/>
<polygon fill="#63b8ff" stroke="#63b8ff" points="754.99,-193.5 760.01,-184.17 750.27,-188.33 754.99,-193.5"/>
</a>
</g>
</g>
<!-- Node13&#45;&gt;Node6 -->
<g id="edge21_Node000013_Node000006" class="edge">
<title>Node13&#45;&gt;Node6</title>
<g id="a_edge21_Node000013_Node000006"><a xlink:title=" ">
<path fill="none" stroke="#63b8ff" d="M713.76,-219.77C717.04,-207.43 723.49,-184.25 730.5,-165 741.09,-135.92 755.82,-103.15 765,-83.42"/>
<polygon fill="#63b8ff" stroke="#63b8ff" points="768.27,-84.68 769.35,-74.15 761.93,-81.71 768.27,-84.68"/>
</a>
</g>
</g>
<!-- Node14&#45;&gt;Node4 -->
<g id="edge23_Node000014_Node000004" class="edge">
<title>Node14&#45;&gt;Node4</title>
<g id="a_edge23_Node000014_Node000004"><a xlink:title=" ">
<path fill="none" stroke="#63b8ff" d="M831.61,-219.98C820.35,-211.92 803.21,-199.65 789.79,-190.03"/>
<polygon fill="#63b8ff" stroke="#63b8ff" points="791.77,-187.15 781.61,-184.17 787.7,-192.84 791.77,-187.15"/>
</a>
</g>
</g>
<!-- Node14&#45;&gt;Node6 -->
<g id="edge24_Node000014_Node000006" class="edge">
<title>Node14&#45;&gt;Node6</title>
<g id="a_edge24_Node000014_Node000006"><a xlink:title=" ">
<path fill="none" stroke="#63b8ff" d="M839.74,-219.74C828.72,-194.09 796.38,-118.78 781.35,-83.78"/>
<polygon fill="#63b8ff" stroke="#63b8ff" points="784.44,-82.11 777.28,-74.31 778.01,-84.88 784.44,-82.11"/>
</a>
</g>
</g>
<!-- Node15&#45;&gt;Node4 -->
<g id="edge26_Node000015_Node000004" class="edge">
<title>Node15&#45;&gt;Node4</title>
<g id="a_edge26_Node000015_Node000004"><a xlink:title=" ">
<path fill="none" stroke="#63b8ff" d="M919.74,-219.98C889.56,-211.05 841.93,-196.94 808.4,-187.02"/>
<polygon fill="#63b8ff" stroke="#63b8ff" points="809.07,-183.57 798.48,-184.08 807.08,-190.28 809.07,-183.57"/>
</a>
</g>
</g>
<!-- Node15&#45;&gt;Node6 -->
<g id="edge27_Node000015_Node000006" class="edge">
<title>Node15&#45;&gt;Node6</title>
<g id="a_edge27_Node000015_Node000006"><a xlink:title=" ">
<path fill="none" stroke="#63b8ff" d="M939.09,-219.74C910.84,-193.42 826.49,-114.85 790.3,-81.14"/>
<polygon fill="#63b8ff" stroke="#63b8ff" points="792.66,-78.56 782.96,-74.31 787.89,-83.68 792.66,-78.56"/>
</a>
</g>
</g>
<!-- Node16&#45;&gt;Node4 -->
<g id="edge29_Node000016_Node000004" class="edge">
<title>Node16&#45;&gt;Node4</title>
<g id="a_edge29_Node000016_Node000004"><a xlink:title=" ">
<path fill="none" stroke="#63b8ff" d="M589.88,-219.98C628,-210.54 689.41,-195.34 729.62,-185.38"/>
<polygon fill="#63b8ff" stroke="#63b8ff" points="730.49,-188.77 739.35,-182.97 728.8,-181.97 730.49,-188.77"/>
</a>
</g>
</g>
<!-- Node16&#45;&gt;Node6 -->
<g id="edge30_Node000016_Node000006" class="edge">
<title>Node16&#45;&gt;Node6</title>
<g id="a_edge30_Node000016_Node000006"><a xlink:title=" ">
<path fill="none" stroke="#63b8ff" d="M566.91,-219.97C602.07,-193.68 709.05,-113.69 753.65,-80.34"/>
<polygon fill="#63b8ff" stroke="#63b8ff" points="756.02,-82.94 761.94,-74.15 751.83,-77.33 756.02,-82.94"/>
</a>
</g>
</g>
<!-- Node17&#45;&gt;Node4 -->
<g id="edge33_Node000017_Node000004" class="edge">
<title>Node17&#45;&gt;Node4</title>
<g id="a_edge33_Node000017_Node000004"><a xlink:title=" ">
<path fill="none" stroke="#63b8ff" d="M1323.29,-224.63C1308.71,-223.14 1291.82,-221.45 1276.5,-220 1102.75,-203.59 895.31,-186.01 809.59,-178.84"/>
<polygon fill="#63b8ff" stroke="#63b8ff" points="809.77,-175.34 799.51,-177.99 809.19,-182.31 809.77,-175.34"/>
</a>
</g>
</g>
<!-- Node17&#45;&gt;Node7 -->
<g id="edge32_Node000017_Node000007" class="edge">
<title>Node17&#45;&gt;Node7</title>
<g id="a_edge32_Node000017_Node000007"><a xlink:title=" ">
<path fill="none" stroke="#63b8ff" d="M1355.58,-219.84C1342.36,-197.43 1303.6,-137.39 1253.5,-110 1157.93,-57.76 827.13,-25.18 701.46,-14.43"/>
<polygon fill="#63b8ff" stroke="#63b8ff" points="701.61,-10.93 691.35,-13.58 701.02,-17.91 701.61,-10.93"/>
</a>
</g>
</g>
</g>
</svg>
