<?xml version="1.0" encoding="UTF-8" standalone="no"?>
<!DOCTYPE svg PUBLIC "-//W3C//DTD SVG 1.1//EN"
 "http://www.w3.org/Graphics/SVG/1.1/DTD/svg11.dtd">
<!-- Generated by graphviz version 2.43.0 (0)
 -->
<!-- Title: gpm&#45;backlight.c Pages: 1 -->
<svg width="1699pt" height="192pt"
 viewBox="0.00 0.00 1698.50 192.00" xmlns="http://www.w3.org/2000/svg" xmlns:xlink="http://www.w3.org/1999/xlink">
<g id="graph0" class="graph" transform="scale(1 1) rotate(0) translate(4 188)">
<title>gpm&#45;backlight.c</title>
<!-- Node1 -->
<g id="Node000001" class="node">
<title>Node1</title>
<g id="a_Node000001"><a xlink:title=" ">
<polygon fill="#999999" stroke="#666666" points="885,-184 790,-184 790,-165 885,-165 885,-184"/>
<text text-anchor="middle" x="837.5" y="-172" font-family="Helvetica,sans-Serif" font-size="10.00">gpm&#45;backlight.c</text>
</a>
</g>
</g>
<!-- Node2 -->
<g id="Node000002" class="node">
<title>Node2</title>
<g id="a_Node000002"><a xlink:title=" ">
<polygon fill="#e0e0e0" stroke="#999999" points="53,-129 0,-129 0,-110 53,-110 53,-129"/>
<text text-anchor="middle" x="26.5" y="-117" font-family="Helvetica,sans-Serif" font-size="10.00">stdlib.h</text>
</a>
</g>
</g>
<!-- Node1&#45;&gt;Node2 -->
<g id="edge1_Node000001_Node000002" class="edge">
<title>Node1&#45;&gt;Node2</title>
<g id="a_edge1_Node000001_Node000002"><a xlink:title=" ">
<path fill="none" stroke="#63b8ff" d="M789.59,-173.64C669.02,-173.39 343.31,-168.87 63.09,-128.78"/>
<polygon fill="#63b8ff" stroke="#63b8ff" points="63.54,-125.31 53.14,-127.34 62.53,-132.23 63.54,-125.31"/>
</a>
</g>
</g>
<!-- Node3 -->
<g id="Node000003" class="node">
<title>Node3</title>
<g id="a_Node000003"><a xlink:title=" ">
<polygon fill="#e0e0e0" stroke="#999999" points="121.5,-129 71.5,-129 71.5,-110 121.5,-110 121.5,-129"/>
<text text-anchor="middle" x="96.5" y="-117" font-family="Helvetica,sans-Serif" font-size="10.00">stdio.h</text>
</a>
</g>
</g>
<!-- Node1&#45;&gt;Node3 -->
<g id="edge2_Node000001_Node000003" class="edge">
<title>Node1&#45;&gt;Node3</title>
<g id="a_edge2_Node000001_Node000003"><a xlink:title=" ">
<path fill="none" stroke="#63b8ff" d="M789.59,-173.48C676.51,-172.8 384.14,-167.28 131.74,-128.89"/>
<polygon fill="#63b8ff" stroke="#63b8ff" points="132.06,-125.39 121.65,-127.33 131,-132.31 132.06,-125.39"/>
</a>
</g>
</g>
<!-- Node4 -->
<g id="Node000004" class="node">
<title>Node4</title>
<g id="a_Node000004"><a xlink:title=" ">
<polygon fill="#e0e0e0" stroke="#999999" points="187.5,-129 139.5,-129 139.5,-110 187.5,-110 187.5,-129"/>
<text text-anchor="middle" x="163.5" y="-117" font-family="Helvetica,sans-Serif" font-size="10.00">time.h</text>
</a>
</g>
</g>
<!-- Node1&#45;&gt;Node4 -->
<g id="edge3_Node000001_Node000004" class="edge">
<title>Node1&#45;&gt;Node4</title>
<g id="a_edge3_Node000001_Node000004"><a xlink:title=" ">
<path fill="none" stroke="#63b8ff" d="M789.71,-173.16C684.32,-171.76 423.96,-164.82 197.61,-128.86"/>
<polygon fill="#63b8ff" stroke="#63b8ff" points="197.97,-125.37 187.54,-127.23 196.86,-132.28 197.97,-125.37"/>
</a>
</g>
</g>
<!-- Node5 -->
<g id="Node000005" class="node">
<title>Node5</title>
<g id="a_Node000005"><a xlink:title=" ">
<polygon fill="#e0e0e0" stroke="#999999" points="257,-129 206,-129 206,-110 257,-110 257,-129"/>
<text text-anchor="middle" x="231.5" y="-117" font-family="Helvetica,sans-Serif" font-size="10.00">errno.h</text>
</a>
</g>
</g>
<!-- Node1&#45;&gt;Node5 -->
<g id="edge4_Node000001_Node000005" class="edge">
<title>Node1&#45;&gt;Node5</title>
<g id="a_edge4_Node000001_Node000005"><a xlink:title=" ">
<path fill="none" stroke="#63b8ff" d="M789.72,-172.48C692.76,-169.83 465.89,-160.67 267.07,-128.99"/>
<polygon fill="#63b8ff" stroke="#63b8ff" points="267.45,-125.51 257.02,-127.37 266.34,-132.42 267.45,-125.51"/>
</a>
</g>
</g>
<!-- Node6 -->
<g id="Node000006" class="node">
<title>Node6</title>
<g id="a_Node000006"><a xlink:title=" ">
<polygon fill="#e0e0e0" stroke="#999999" points="328,-129 275,-129 275,-110 328,-110 328,-129"/>
<text text-anchor="middle" x="301.5" y="-117" font-family="Helvetica,sans-Serif" font-size="10.00">string.h</text>
</a>
</g>
</g>
<!-- Node1&#45;&gt;Node6 -->
<g id="edge5_Node000001_Node000006" class="edge">
<title>Node1&#45;&gt;Node6</title>
<g id="a_edge5_Node000001_Node000006"><a xlink:title=" ">
<path fill="none" stroke="#63b8ff" d="M790,-171.54C702.52,-167.44 509.98,-156.12 338.13,-128.85"/>
<polygon fill="#63b8ff" stroke="#63b8ff" points="338.58,-125.37 328.15,-127.24 337.47,-132.29 338.58,-125.37"/>
</a>
</g>
</g>
<!-- Node7 -->
<g id="Node000007" class="node">
<title>Node7</title>
<g id="a_Node000007"><a xlink:title=" ">
<polygon fill="#e0e0e0" stroke="#999999" points="414.5,-129 346.5,-129 346.5,-110 414.5,-110 414.5,-129"/>
<text text-anchor="middle" x="380.5" y="-117" font-family="Helvetica,sans-Serif" font-size="10.00">sys/time.h</text>
</a>
</g>
</g>
<!-- Node1&#45;&gt;Node7 -->
<g id="edge6_Node000001_Node000007" class="edge">
<title>Node1&#45;&gt;Node7</title>
<g id="a_edge6_Node000001_Node000007"><a xlink:title=" ">
<path fill="none" stroke="#63b8ff" d="M789.83,-169.75C714.42,-163.52 562.85,-149.77 424.65,-129.05"/>
<polygon fill="#63b8ff" stroke="#63b8ff" points="425.13,-125.58 414.72,-127.55 424.08,-132.51 425.13,-125.58"/>
</a>
</g>
</g>
<!-- Node8 -->
<g id="Node000008" class="node">
<title>Node8</title>
<g id="a_Node000008"><a xlink:title=" ">
<polygon fill="#e0e0e0" stroke="#999999" points="504.5,-129 432.5,-129 432.5,-110 504.5,-110 504.5,-129"/>
<text text-anchor="middle" x="468.5" y="-117" font-family="Helvetica,sans-Serif" font-size="10.00">sys/types.h</text>
</a>
</g>
</g>
<!-- Node1&#45;&gt;Node8 -->
<g id="edge7_Node000001_Node000008" class="edge">
<title>Node1&#45;&gt;Node8</title>
<g id="a_edge7_Node000001_Node000008"><a xlink:title=" ">
<path fill="none" stroke="#63b8ff" d="M789.78,-167.62C726.67,-159.68 612.02,-144.72 514.5,-129 514.4,-128.98 514.3,-128.97 514.2,-128.95"/>
<polygon fill="#63b8ff" stroke="#63b8ff" points="515.08,-125.55 504.63,-127.34 513.91,-132.45 515.08,-125.55"/>
</a>
</g>
</g>
<!-- Node9 -->
<g id="Node000009" class="node">
<title>Node9</title>
<g id="a_Node000009"><a xlink:title=" ">
<polygon fill="#e0e0e0" stroke="#999999" points="574,-129 523,-129 523,-110 574,-110 574,-129"/>
<text text-anchor="middle" x="548.5" y="-117" font-family="Helvetica,sans-Serif" font-size="10.00">math.h</text>
</a>
</g>
</g>
<!-- Node1&#45;&gt;Node9 -->
<g id="edge8_Node000001_Node000009" class="edge">
<title>Node1&#45;&gt;Node9</title>
<g id="a_edge8_Node000001_Node000009"><a xlink:title=" ">
<path fill="none" stroke="#63b8ff" d="M789.57,-166.05C740.47,-158.21 661.72,-145.05 584.03,-128.99"/>
<polygon fill="#63b8ff" stroke="#63b8ff" points="584.57,-125.53 574.07,-126.91 583.15,-132.38 584.57,-125.53"/>
</a>
</g>
</g>
<!-- Node10 -->
<g id="Node000010" class="node">
<title>Node10</title>
<g id="a_Node000010"><a xlink:title=" ">
<polygon fill="#e0e0e0" stroke="#999999" points="666.5,-129 592.5,-129 592.5,-110 666.5,-110 666.5,-129"/>
<text text-anchor="middle" x="629.5" y="-117" font-family="Helvetica,sans-Serif" font-size="10.00">glib/gi18n.h</text>
</a>
</g>
</g>
<!-- Node1&#45;&gt;Node10 -->
<g id="edge9_Node000001_Node000010" class="edge">
<title>Node1&#45;&gt;Node10</title>
<g id="a_edge9_Node000001_Node000010"><a xlink:title=" ">
<path fill="none" stroke="#63b8ff" d="M804.08,-164.98C768.56,-155.93 712.23,-141.58 673.2,-131.64"/>
<polygon fill="#63b8ff" stroke="#63b8ff" points="673.74,-128.16 663.18,-129.08 672.01,-134.94 673.74,-128.16"/>
</a>
</g>
</g>
<!-- Node11 -->
<g id="Node000011" class="node">
<title>Node11</title>
<g id="a_Node000011"><a xlink:title=" ">
<polygon fill="#e0e0e0" stroke="#999999" points="767.5,-19 707.5,-19 707.5,0 767.5,0 767.5,-19"/>
<text text-anchor="middle" x="737.5" y="-7" font-family="Helvetica,sans-Serif" font-size="10.00">gtk/gtk.h</text>
</a>
</g>
</g>
<!-- Node1&#45;&gt;Node11 -->
<g id="edge10_Node000001_Node000011" class="edge">
<title>Node1&#45;&gt;Node11</title>
<g id="a_edge10_Node000001_Node000011"><a xlink:title=" ">
<path fill="none" stroke="#63b8ff" d="M793.89,-164.91C749.03,-153.28 682.78,-127.49 661.5,-74 658.38,-66.15 657.3,-62.33 661.5,-55 669.86,-40.42 685.05,-30.16 699.67,-23.19"/>
<polygon fill="#63b8ff" stroke="#63b8ff" points="701.34,-26.28 709.11,-19.08 698.55,-19.86 701.34,-26.28"/>
</a>
</g>
</g>
<!-- Node12 -->
<g id="Node000012" class="node">
<title>Node12</title>
<g id="a_Node000012"><a xlink:title=" ">
<polygon fill="#e0e0e0" stroke="#999999" points="1358.5,-129 1224.5,-129 1224.5,-110 1358.5,-110 1358.5,-129"/>
<text text-anchor="middle" x="1291.5" y="-117" font-family="Helvetica,sans-Serif" font-size="10.00">libupower&#45;glib/upower.h</text>
</a>
</g>
</g>
<!-- Node1&#45;&gt;Node12 -->
<g id="edge11_Node000001_Node000012" class="edge">
<title>Node1&#45;&gt;Node12</title>
<g id="a_edge11_Node000001_Node000012"><a xlink:title=" ">
<path fill="none" stroke="#63b8ff" d="M885.23,-167.93C963.54,-158.79 1119.99,-140.52 1214.25,-129.52"/>
<polygon fill="#63b8ff" stroke="#63b8ff" points="1214.77,-132.98 1224.3,-128.35 1213.96,-126.03 1214.77,-132.98"/>
</a>
</g>
</g>
<!-- Node13 -->
<g id="Node000013" class="node">
<title>Node13</title>
<g id="a_Node000013"><a xlink:href="gpm-button_8h.html" target="_top" xlink:title=" ">
<polygon fill="white" stroke="#666666" points="1100,-74 1017,-74 1017,-55 1100,-55 1100,-74"/>
<text text-anchor="middle" x="1058.5" y="-62" font-family="Helvetica,sans-Serif" font-size="10.00">gpm&#45;button.h</text>
</a>
</g>
</g>
<!-- Node1&#45;&gt;Node13 -->
<g id="edge12_Node000001_Node000013" class="edge">
<title>Node1&#45;&gt;Node13</title>
<g id="a_edge12_Node000001_Node000013"><a xlink:title=" ">
<path fill="none" stroke="#63b8ff" d="M885.23,-164.98C915.81,-158.18 955.6,-146.81 987.5,-129 1009.71,-116.6 1030.86,-96.18 1044.21,-81.85"/>
<polygon fill="#63b8ff" stroke="#63b8ff" points="1047,-83.99 1051.12,-74.22 1041.81,-79.29 1047,-83.99"/>
</a>
</g>
</g>
<!-- Node15 -->
<g id="Node000015" class="node">
<title>Node15</title>
<g id="a_Node000015"><a xlink:href="gpm-backlight_8h.html" target="_top" xlink:title=" ">
<polygon fill="white" stroke="#666666" points="1214.5,-74 1118.5,-74 1118.5,-55 1214.5,-55 1214.5,-74"/>
<text text-anchor="middle" x="1166.5" y="-62" font-family="Helvetica,sans-Serif" font-size="10.00">gpm&#45;backlight.h</text>
</a>
</g>
</g>
<!-- Node1&#45;&gt;Node15 -->
<g id="edge14_Node000001_Node000015" class="edge">
<title>Node1&#45;&gt;Node15</title>
<g id="a_edge14_Node000001_Node000015"><a xlink:title=" ">
<path fill="none" stroke="#63b8ff" d="M878.17,-164.99C914.16,-157.04 967.88,-144.14 1013.5,-129 1058.38,-114.1 1108.72,-92.15 1139,-78.35"/>
<polygon fill="#63b8ff" stroke="#63b8ff" points="1140.83,-81.36 1148.46,-74 1137.91,-74.99 1140.83,-81.36"/>
</a>
</g>
</g>
<!-- Node16 -->
<g id="Node000016" class="node">
<title>Node16</title>
<g id="a_Node000016"><a xlink:href="gpm-brightness_8h.html" target="_top" xlink:title=" ">
<polygon fill="white" stroke="#666666" points="1334.5,-74 1232.5,-74 1232.5,-55 1334.5,-55 1334.5,-74"/>
<text text-anchor="middle" x="1283.5" y="-62" font-family="Helvetica,sans-Serif" font-size="10.00">gpm&#45;brightness.h</text>
</a>
</g>
</g>
<!-- Node1&#45;&gt;Node16 -->
<g id="edge16_Node000001_Node000016" class="edge">
<title>Node1&#45;&gt;Node16</title>
<g id="a_edge16_Node000001_Node000016"><a xlink:title=" ">
<path fill="none" stroke="#63b8ff" d="M885.34,-165.5C929.2,-157.72 995.76,-144.78 1052.5,-129 1077.01,-122.18 1082.14,-117.33 1106.5,-110 1149.58,-97.04 1199.32,-84.76 1235.08,-76.4"/>
<polygon fill="#63b8ff" stroke="#63b8ff" points="1236.29,-79.72 1245.24,-74.05 1234.71,-72.9 1236.29,-79.72"/>
</a>
</g>
</g>
<!-- Node17 -->
<g id="Node000017" class="node">
<title>Node17</title>
<g id="a_Node000017"><a xlink:href="gpm-control_8h.html" target="_top" xlink:title=" ">
<polygon fill="white" stroke="#666666" points="1438,-74 1353,-74 1353,-55 1438,-55 1438,-74"/>
<text text-anchor="middle" x="1395.5" y="-62" font-family="Helvetica,sans-Serif" font-size="10.00">gpm&#45;control.h</text>
</a>
</g>
</g>
<!-- Node1&#45;&gt;Node17 -->
<g id="edge18_Node000001_Node000017" class="edge">
<title>Node1&#45;&gt;Node17</title>
<g id="a_edge18_Node000001_Node000017"><a xlink:title=" ">
<path fill="none" stroke="#63b8ff" d="M885.26,-167.88C937.11,-161.16 1022.09,-148.33 1093.5,-129 1116.85,-122.68 1121.16,-116.36 1144.5,-110 1163.28,-104.88 1274.84,-85.77 1342.75,-74.33"/>
<polygon fill="#63b8ff" stroke="#63b8ff" points="1343.57,-77.74 1352.85,-72.63 1342.4,-70.84 1343.57,-77.74"/>
</a>
</g>
</g>
<!-- Node18 -->
<g id="Node000018" class="node">
<title>Node18</title>
<g id="a_Node000018"><a xlink:href="src_2gpm-common_8h.html" target="_top" xlink:title=" ">
<polygon fill="white" stroke="#666666" points="816.5,-129 722.5,-129 722.5,-110 816.5,-110 816.5,-129"/>
<text text-anchor="middle" x="769.5" y="-117" font-family="Helvetica,sans-Serif" font-size="10.00">gpm&#45;common.h</text>
</a>
</g>
</g>
<!-- Node1&#45;&gt;Node18 -->
<g id="edge20_Node000001_Node000018" class="edge">
<title>Node1&#45;&gt;Node18</title>
<g id="a_edge20_Node000001_Node000018"><a xlink:title=" ">
<path fill="none" stroke="#63b8ff" d="M826.57,-164.98C816.42,-157.07 801.08,-145.11 788.85,-135.58"/>
<polygon fill="#63b8ff" stroke="#63b8ff" points="790.66,-132.56 780.62,-129.17 786.36,-138.08 790.66,-132.56"/>
</a>
</g>
</g>
<!-- Node21 -->
<g id="Node000021" class="node">
<title>Node21</title>
<g id="a_Node000021"><a xlink:href="gsd-media-keys-window_8h.html" target="_top" xlink:title=" ">
<polygon fill="white" stroke="#666666" points="978.5,-129 834.5,-129 834.5,-110 978.5,-110 978.5,-129"/>
<text text-anchor="middle" x="906.5" y="-117" font-family="Helvetica,sans-Serif" font-size="10.00">gsd&#45;media&#45;keys&#45;window.h</text>
</a>
</g>
</g>
<!-- Node1&#45;&gt;Node21 -->
<g id="edge24_Node000001_Node000021" class="edge">
<title>Node1&#45;&gt;Node21</title>
<g id="a_edge24_Node000001_Node000021"><a xlink:title=" ">
<path fill="none" stroke="#63b8ff" d="M848.59,-164.98C858.99,-157 874.76,-144.88 887.22,-135.31"/>
<polygon fill="#63b8ff" stroke="#63b8ff" points="889.41,-138.04 895.21,-129.17 885.15,-132.49 889.41,-138.04"/>
</a>
</g>
</g>
<!-- Node23 -->
<g id="Node000023" class="node">
<title>Node23</title>
<g id="a_Node000023"><a xlink:href="gpm-dpms_8h.html" target="_top" xlink:title=" ">
<polygon fill="white" stroke="#666666" points="1454.5,-129 1376.5,-129 1376.5,-110 1454.5,-110 1454.5,-129"/>
<text text-anchor="middle" x="1415.5" y="-117" font-family="Helvetica,sans-Serif" font-size="10.00">gpm&#45;dpms.h</text>
</a>
</g>
</g>
<!-- Node1&#45;&gt;Node23 -->
<g id="edge30_Node000001_Node000023" class="edge">
<title>Node1&#45;&gt;Node23</title>
<g id="a_edge30_Node000001_Node000023"><a xlink:title=" ">
<path fill="none" stroke="#63b8ff" d="M885.16,-170.96C976.51,-165.79 1182.7,-152.57 1366.15,-129.06"/>
<polygon fill="#63b8ff" stroke="#63b8ff" points="1366.78,-132.51 1376.25,-127.75 1365.89,-125.56 1366.78,-132.51"/>
</a>
</g>
</g>
<!-- Node24 -->
<g id="Node000024" class="node">
<title>Node24</title>
<g id="a_Node000024"><a xlink:href="gpm-idle_8h.html" target="_top" xlink:title=" ">
<polygon fill="white" stroke="#666666" points="1525,-74 1456,-74 1456,-55 1525,-55 1525,-74"/>
<text text-anchor="middle" x="1490.5" y="-62" font-family="Helvetica,sans-Serif" font-size="10.00">gpm&#45;idle.h</text>
</a>
</g>
</g>
<!-- Node1&#45;&gt;Node24 -->
<g id="edge31_Node000001_Node000024" class="edge">
<title>Node1&#45;&gt;Node24</title>
<g id="a_edge31_Node000001_Node000024"><a xlink:title=" ">
<path fill="none" stroke="#63b8ff" d="M885.13,-169.47C943.98,-163.77 1046.83,-151.46 1132.5,-129 1155.5,-122.97 1159.46,-115.86 1182.5,-110 1294.54,-81.5 1328.41,-92.86 1445.71,-74.19"/>
<polygon fill="#63b8ff" stroke="#63b8ff" points="1446.49,-77.61 1455.8,-72.55 1445.37,-70.7 1446.49,-77.61"/>
</a>
</g>
</g>
<!-- Node25 -->
<g id="Node000025" class="node">
<title>Node25</title>
<g id="a_Node000025"><a xlink:title=" ">
<polygon fill="#e0e0e0" stroke="#999999" points="1564,-129 1473,-129 1473,-110 1564,-110 1564,-129"/>
<text text-anchor="middle" x="1518.5" y="-117" font-family="Helvetica,sans-Serif" font-size="10.00">gpm&#45;marshal.h</text>
</a>
</g>
</g>
<!-- Node1&#45;&gt;Node25 -->
<g id="edge33_Node000001_Node000025" class="edge">
<title>Node1&#45;&gt;Node25</title>
<g id="a_edge33_Node000001_Node000025"><a xlink:title=" ">
<path fill="none" stroke="#63b8ff" d="M885.13,-171.45C988.35,-166.73 1240.53,-153.64 1462.7,-128.98"/>
<polygon fill="#63b8ff" stroke="#63b8ff" points="1463.37,-132.43 1472.92,-127.84 1462.59,-125.47 1463.37,-132.43"/>
</a>
</g>
</g>
<!-- Node26 -->
<g id="Node000026" class="node">
<title>Node26</title>
<g id="a_Node000026"><a xlink:href="gpm-icon-names_8h.html" target="_top" xlink:title=" ">
<polygon fill="white" stroke="#666666" points="1690.5,-129 1582.5,-129 1582.5,-110 1690.5,-110 1690.5,-129"/>
<text text-anchor="middle" x="1636.5" y="-117" font-family="Helvetica,sans-Serif" font-size="10.00">gpm&#45;icon&#45;names.h</text>
</a>
</g>
</g>
<!-- Node1&#45;&gt;Node26 -->
<g id="edge34_Node000001_Node000026" class="edge">
<title>Node1&#45;&gt;Node26</title>
<g id="a_edge34_Node000001_Node000026"><a xlink:title=" ">
<path fill="none" stroke="#63b8ff" d="M885.39,-171.83C1001.35,-167.52 1306.66,-154.6 1572.02,-129.07"/>
<polygon fill="#63b8ff" stroke="#63b8ff" points="1572.62,-132.53 1582.23,-128.08 1571.94,-125.56 1572.62,-132.53"/>
</a>
</g>
</g>
<!-- Node27 -->
<g id="Node000027" class="node">
<title>Node27</title>
<g id="a_Node000027"><a xlink:href="egg-console-kit_8h.html" target="_top" xlink:title=" ">
<polygon fill="white" stroke="#666666" points="1644,-74 1543,-74 1543,-55 1644,-55 1644,-74"/>
<text text-anchor="middle" x="1593.5" y="-62" font-family="Helvetica,sans-Serif" font-size="10.00">egg&#45;console&#45;kit.h</text>
</a>
</g>
</g>
<!-- Node1&#45;&gt;Node27 -->
<g id="edge35_Node000001_Node000027" class="edge">
<title>Node1&#45;&gt;Node27</title>
<g id="a_edge35_Node000001_Node000027"><a xlink:title=" ">
<path fill="none" stroke="#63b8ff" d="M885.06,-171.28C950.59,-167.29 1071.85,-156.58 1171.5,-129 1192.03,-123.32 1194.92,-115.48 1215.5,-110 1350.29,-74.14 1391.16,-91.36 1533.04,-74.13"/>
<polygon fill="#63b8ff" stroke="#63b8ff" points="1533.5,-77.6 1542.98,-72.88 1532.63,-70.65 1533.5,-77.6"/>
</a>
</g>
</g>
<!-- Node14 -->
<g id="Node000014" class="node">
<title>Node14</title>
<g id="a_Node000014"><a xlink:title=" ">
<polygon fill="#e0e0e0" stroke="#999999" points="1263,-19 1186,-19 1186,0 1263,0 1263,-19"/>
<text text-anchor="middle" x="1224.5" y="-7" font-family="Helvetica,sans-Serif" font-size="10.00">glib&#45;object.h</text>
</a>
</g>
</g>
<!-- Node13&#45;&gt;Node14 -->
<g id="edge13_Node000013_Node000014" class="edge">
<title>Node13&#45;&gt;Node14</title>
<g id="a_edge13_Node000013_Node000014"><a xlink:title=" ">
<path fill="none" stroke="#63b8ff" d="M1085.17,-54.98C1113.04,-46.09 1156.95,-32.07 1188.02,-22.15"/>
<polygon fill="#63b8ff" stroke="#63b8ff" points="1189.16,-25.46 1197.62,-19.08 1187.03,-18.79 1189.16,-25.46"/>
</a>
</g>
</g>
<!-- Node15&#45;&gt;Node14 -->
<g id="edge15_Node000015_Node000014" class="edge">
<title>Node15&#45;&gt;Node14</title>
<g id="a_edge15_Node000015_Node000014"><a xlink:title=" ">
<path fill="none" stroke="#63b8ff" d="M1175.82,-54.98C1184.31,-47.23 1197.06,-35.58 1207.38,-26.14"/>
<polygon fill="#63b8ff" stroke="#63b8ff" points="1209.99,-28.5 1215.01,-19.17 1205.27,-23.33 1209.99,-28.5"/>
</a>
</g>
</g>
<!-- Node16&#45;&gt;Node14 -->
<g id="edge17_Node000016_Node000014" class="edge">
<title>Node16&#45;&gt;Node14</title>
<g id="a_edge17_Node000016_Node000014"><a xlink:title=" ">
<path fill="none" stroke="#63b8ff" d="M1274.02,-54.98C1265.3,-47.15 1252.16,-35.34 1241.6,-25.86"/>
<polygon fill="#63b8ff" stroke="#63b8ff" points="1243.93,-23.25 1234.15,-19.17 1239.25,-28.46 1243.93,-23.25"/>
</a>
</g>
</g>
<!-- Node17&#45;&gt;Node14 -->
<g id="edge19_Node000017_Node000014" class="edge">
<title>Node17&#45;&gt;Node14</title>
<g id="a_edge19_Node000017_Node000014"><a xlink:title=" ">
<path fill="none" stroke="#63b8ff" d="M1368.03,-54.98C1339.32,-46.09 1294.08,-32.07 1262.08,-22.15"/>
<polygon fill="#63b8ff" stroke="#63b8ff" points="1262.78,-18.7 1252.19,-19.08 1260.7,-25.39 1262.78,-18.7"/>
</a>
</g>
</g>
<!-- Node18&#45;&gt;Node11 -->
<g id="edge22_Node000018_Node000011" class="edge">
<title>Node18&#45;&gt;Node11</title>
<g id="a_edge22_Node000018_Node000011"><a xlink:title=" ">
<path fill="none" stroke="#63b8ff" d="M724.04,-109.96C703.73,-103.64 681.66,-92.72 669.5,-74 656.22,-53.55 682.25,-35.14 705.84,-23.47"/>
<polygon fill="#63b8ff" stroke="#63b8ff" points="707.43,-26.59 715.01,-19.19 704.47,-20.25 707.43,-26.59"/>
</a>
</g>
</g>
<!-- Node19 -->
<g id="Node000019" class="node">
<title>Node19</title>
<g id="a_Node000019"><a xlink:title=" ">
<polygon fill="#e0e0e0" stroke="#999999" points="722.5,-74 678.5,-74 678.5,-55 722.5,-55 722.5,-74"/>
<text text-anchor="middle" x="700.5" y="-62" font-family="Helvetica,sans-Serif" font-size="10.00">glib.h</text>
</a>
</g>
</g>
<!-- Node18&#45;&gt;Node19 -->
<g id="edge21_Node000018_Node000019" class="edge">
<title>Node18&#45;&gt;Node19</title>
<g id="a_edge21_Node000018_Node000019"><a xlink:title=" ">
<path fill="none" stroke="#63b8ff" d="M758.41,-109.98C748.01,-102 732.24,-89.88 719.78,-80.31"/>
<polygon fill="#63b8ff" stroke="#63b8ff" points="721.85,-77.49 711.79,-74.17 717.59,-83.04 721.85,-77.49"/>
</a>
</g>
</g>
<!-- Node20 -->
<g id="Node000020" class="node">
<title>Node20</title>
<g id="a_Node000020"><a xlink:title=" ">
<polygon fill="#e0e0e0" stroke="#999999" points="796.5,-74 740.5,-74 740.5,-55 796.5,-55 796.5,-74"/>
<text text-anchor="middle" x="768.5" y="-62" font-family="Helvetica,sans-Serif" font-size="10.00">unistd.h</text>
</a>
</g>
</g>
<!-- Node18&#45;&gt;Node20 -->
<g id="edge23_Node000018_Node000020" class="edge">
<title>Node18&#45;&gt;Node20</title>
<g id="a_edge23_Node000018_Node000020"><a xlink:title=" ">
<path fill="none" stroke="#63b8ff" d="M769.33,-109.75C769.2,-102.8 769.02,-92.85 768.85,-84.13"/>
<polygon fill="#63b8ff" stroke="#63b8ff" points="772.35,-84.02 768.66,-74.09 765.35,-84.15 772.35,-84.02"/>
</a>
</g>
</g>
<!-- Node21&#45;&gt;Node11 -->
<g id="edge26_Node000021_Node000011" class="edge">
<title>Node21&#45;&gt;Node11</title>
<g id="a_edge26_Node000021_Node000011"><a xlink:title=" ">
<path fill="none" stroke="#63b8ff" d="M892.96,-109.84C863.91,-91.28 795.38,-47.49 759.8,-24.75"/>
<polygon fill="#63b8ff" stroke="#63b8ff" points="761.42,-21.63 751.11,-19.2 757.65,-27.53 761.42,-21.63"/>
</a>
</g>
</g>
<!-- Node21&#45;&gt;Node14 -->
<g id="edge25_Node000021_Node000014" class="edge">
<title>Node21&#45;&gt;Node14</title>
<g id="a_edge25_Node000021_Node000014"><a xlink:title=" ">
<path fill="none" stroke="#63b8ff" d="M917.42,-109.86C935.35,-96.1 972.66,-69.31 1008.5,-55 1063.59,-33 1131.11,-21.33 1175.84,-15.54"/>
<polygon fill="#63b8ff" stroke="#63b8ff" points="1176.37,-19 1185.86,-14.3 1175.51,-12.06 1176.37,-19"/>
</a>
</g>
</g>
<!-- Node22 -->
<g id="Node000022" class="node">
<title>Node22</title>
<g id="a_Node000022"><a xlink:href="mate-power-manager_2src_2msd-osd-window_8h.html" target="_top" xlink:title=" ">
<polygon fill="white" stroke="#666666" points="960.5,-74 852.5,-74 852.5,-55 960.5,-55 960.5,-74"/>
<text text-anchor="middle" x="906.5" y="-62" font-family="Helvetica,sans-Serif" font-size="10.00">msd&#45;osd&#45;window.h</text>
</a>
</g>
</g>
<!-- Node21&#45;&gt;Node22 -->
<g id="edge27_Node000021_Node000022" class="edge">
<title>Node21&#45;&gt;Node22</title>
<g id="a_edge27_Node000021_Node000022"><a xlink:title=" ">
<path fill="none" stroke="#63b8ff" d="M906.5,-109.75C906.5,-102.8 906.5,-92.85 906.5,-84.13"/>
<polygon fill="#63b8ff" stroke="#63b8ff" points="910,-84.09 906.5,-74.09 903,-84.09 910,-84.09"/>
</a>
</g>
</g>
<!-- Node22&#45;&gt;Node11 -->
<g id="edge29_Node000022_Node000011" class="edge">
<title>Node22&#45;&gt;Node11</title>
<g id="a_edge29_Node000022_Node000011"><a xlink:title=" ">
<path fill="none" stroke="#63b8ff" d="M879.35,-54.98C850.97,-46.09 806.27,-32.07 774.64,-22.15"/>
<polygon fill="#63b8ff" stroke="#63b8ff" points="775.45,-18.73 764.87,-19.08 773.36,-25.41 775.45,-18.73"/>
</a>
</g>
</g>
<!-- Node22&#45;&gt;Node14 -->
<g id="edge28_Node000022_Node000014" class="edge">
<title>Node22&#45;&gt;Node14</title>
<g id="a_edge28_Node000022_Node000014"><a xlink:title=" ">
<path fill="none" stroke="#63b8ff" d="M957.59,-54.98C1017.55,-44.99 1116.26,-28.54 1175.36,-18.69"/>
<polygon fill="#63b8ff" stroke="#63b8ff" points="1176.27,-22.09 1185.56,-16.99 1175.12,-15.18 1176.27,-22.09"/>
</a>
</g>
</g>
<!-- Node24&#45;&gt;Node14 -->
<g id="edge32_Node000024_Node000014" class="edge">
<title>Node24&#45;&gt;Node14</title>
<g id="a_edge32_Node000024_Node000014"><a xlink:title=" ">
<path fill="none" stroke="#63b8ff" d="M1456,-56.63C1409.38,-47.34 1326.03,-30.73 1273.09,-20.18"/>
<polygon fill="#63b8ff" stroke="#63b8ff" points="1273.74,-16.74 1263.25,-18.22 1272.38,-23.61 1273.74,-16.74"/>
</a>
</g>
</g>
<!-- Node27&#45;&gt;Node14 -->
<g id="edge36_Node000027_Node000014" class="edge">
<title>Node27&#45;&gt;Node14</title>
<g id="a_edge36_Node000027_Node000014"><a xlink:title=" ">
<path fill="none" stroke="#63b8ff" d="M1542.97,-56.22C1540.1,-55.81 1537.27,-55.4 1534.5,-55 1442.16,-41.72 1334.35,-26.25 1273.28,-17.49"/>
<polygon fill="#63b8ff" stroke="#63b8ff" points="1273.56,-14 1263.16,-16.04 1272.57,-20.93 1273.56,-14"/>
</a>
</g>
</g>
</g>
</svg>
