<?xml version="1.0" encoding="UTF-8" standalone="no"?>
<!DOCTYPE svg PUBLIC "-//W3C//DTD SVG 1.1//EN"
 "http://www.w3.org/Graphics/SVG/1.1/DTD/svg11.dtd">
<!-- Generated by graphviz version 2.43.0 (0)
 -->
<!-- Title: gpm&#45;manager.c Pages: 1 -->
<svg width="3336pt" height="148pt"
 viewBox="0.00 0.00 3335.50 148.00" xmlns="http://www.w3.org/2000/svg" xmlns:xlink="http://www.w3.org/1999/xlink">
<g id="graph0" class="graph" transform="scale(1 1) rotate(0) translate(4 144)">
<title>gpm&#45;manager.c</title>
<!-- Node1 -->
<g id="Node000001" class="node">
<title>Node1</title>
<g id="a_Node000001"><a xlink:title=" ">
<polygon fill="#999999" stroke="#666666" points="1524,-140 1431,-140 1431,-121 1524,-121 1524,-140"/>
<text text-anchor="middle" x="1477.5" y="-128" font-family="Helvetica,sans-Serif" font-size="10.00">gpm&#45;manager.c</text>
</a>
</g>
</g>
<!-- Node2 -->
<g id="Node000002" class="node">
<title>Node2</title>
<g id="a_Node000002"><a xlink:title=" ">
<polygon fill="#e0e0e0" stroke="#999999" points="55,-79.5 0,-79.5 0,-60.5 55,-60.5 55,-79.5"/>
<text text-anchor="middle" x="27.5" y="-67.5" font-family="Helvetica,sans-Serif" font-size="10.00">config.h</text>
</a>
</g>
</g>
<!-- Node1&#45;&gt;Node2 -->
<g id="edge1_Node000001_Node000002" class="edge">
<title>Node1&#45;&gt;Node2</title>
<g id="a_edge1_Node000001_Node000002"><a xlink:title=" ">
<path fill="none" stroke="#63b8ff" d="M1430.93,-128.97C1201.8,-126.24 199.77,-112.79 63.5,-85 60.82,-84.45 58.08,-83.73 55.37,-82.89"/>
<polygon fill="#63b8ff" stroke="#63b8ff" points="56.42,-79.55 45.82,-79.5 54.08,-86.14 56.42,-79.55"/>
</a>
</g>
</g>
<!-- Node3 -->
<g id="Node000003" class="node">
<title>Node3</title>
<g id="a_Node000003"><a xlink:title=" ">
<polygon fill="#e0e0e0" stroke="#999999" points="126,-79.5 73,-79.5 73,-60.5 126,-60.5 126,-79.5"/>
<text text-anchor="middle" x="99.5" y="-67.5" font-family="Helvetica,sans-Serif" font-size="10.00">stdlib.h</text>
</a>
</g>
</g>
<!-- Node1&#45;&gt;Node3 -->
<g id="edge2_Node000001_Node000003" class="edge">
<title>Node1&#45;&gt;Node3</title>
<g id="a_edge2_Node000001_Node000003"><a xlink:title=" ">
<path fill="none" stroke="#63b8ff" d="M1430.74,-128.88C1208.5,-125.83 264.32,-111.38 135.5,-85 132.97,-84.48 130.39,-83.8 127.83,-83.02"/>
<polygon fill="#63b8ff" stroke="#63b8ff" points="128.79,-79.65 118.19,-79.64 126.47,-86.26 128.79,-79.65"/>
</a>
</g>
</g>
<!-- Node4 -->
<g id="Node000004" class="node">
<title>Node4</title>
<g id="a_Node000004"><a xlink:title=" ">
<polygon fill="#e0e0e0" stroke="#999999" points="194.5,-79.5 144.5,-79.5 144.5,-60.5 194.5,-60.5 194.5,-79.5"/>
<text text-anchor="middle" x="169.5" y="-67.5" font-family="Helvetica,sans-Serif" font-size="10.00">stdio.h</text>
</a>
</g>
</g>
<!-- Node1&#45;&gt;Node4 -->
<g id="edge3_Node000001_Node000004" class="edge">
<title>Node1&#45;&gt;Node4</title>
<g id="a_edge3_Node000001_Node000004"><a xlink:title=" ">
<path fill="none" stroke="#63b8ff" d="M1430.98,-128.85C1216.11,-125.73 325.12,-111.27 203.5,-85 201.27,-84.52 199,-83.9 196.74,-83.19"/>
<polygon fill="#63b8ff" stroke="#63b8ff" points="197.71,-79.81 187.12,-79.64 195.29,-86.38 197.71,-79.81"/>
</a>
</g>
</g>
<!-- Node5 -->
<g id="Node000005" class="node">
<title>Node5</title>
<g id="a_Node000005"><a xlink:title=" ">
<polygon fill="#e0e0e0" stroke="#999999" points="260.5,-79.5 212.5,-79.5 212.5,-60.5 260.5,-60.5 260.5,-79.5"/>
<text text-anchor="middle" x="236.5" y="-67.5" font-family="Helvetica,sans-Serif" font-size="10.00">time.h</text>
</a>
</g>
</g>
<!-- Node1&#45;&gt;Node5 -->
<g id="edge4_Node000001_Node000005" class="edge">
<title>Node1&#45;&gt;Node5</title>
<g id="a_edge4_Node000001_Node000005"><a xlink:title=" ">
<path fill="none" stroke="#63b8ff" d="M1430.97,-128.78C1223.05,-125.45 384.22,-110.54 269.5,-85 267.33,-84.52 265.12,-83.9 262.93,-83.18"/>
<polygon fill="#63b8ff" stroke="#63b8ff" points="264.17,-79.91 253.58,-79.64 261.68,-86.46 264.17,-79.91"/>
</a>
</g>
</g>
<!-- Node6 -->
<g id="Node000006" class="node">
<title>Node6</title>
<g id="a_Node000006"><a xlink:title=" ">
<polygon fill="#e0e0e0" stroke="#999999" points="330,-79.5 279,-79.5 279,-60.5 330,-60.5 330,-79.5"/>
<text text-anchor="middle" x="304.5" y="-67.5" font-family="Helvetica,sans-Serif" font-size="10.00">errno.h</text>
</a>
</g>
</g>
<!-- Node1&#45;&gt;Node6 -->
<g id="edge5_Node000001_Node000006" class="edge">
<title>Node1&#45;&gt;Node6</title>
<g id="a_edge5_Node000001_Node000006"><a xlink:title=" ">
<path fill="none" stroke="#63b8ff" d="M1430.8,-129.85C1244.2,-130.91 551.9,-131.56 338.5,-85 336.27,-84.51 334,-83.89 331.74,-83.18"/>
<polygon fill="#63b8ff" stroke="#63b8ff" points="332.71,-79.8 322.12,-79.63 330.29,-86.37 332.71,-79.8"/>
</a>
</g>
</g>
<!-- Node7 -->
<g id="Node000007" class="node">
<title>Node7</title>
<g id="a_Node000007"><a xlink:title=" ">
<polygon fill="#e0e0e0" stroke="#999999" points="401,-79.5 348,-79.5 348,-60.5 401,-60.5 401,-79.5"/>
<text text-anchor="middle" x="374.5" y="-67.5" font-family="Helvetica,sans-Serif" font-size="10.00">string.h</text>
</a>
</g>
</g>
<!-- Node1&#45;&gt;Node7 -->
<g id="edge6_Node000001_Node000007" class="edge">
<title>Node1&#45;&gt;Node7</title>
<g id="a_edge6_Node000001_Node000007"><a xlink:title=" ">
<path fill="none" stroke="#63b8ff" d="M1430.76,-129.59C1251.72,-129.6 609.67,-126.68 410.5,-85 407.97,-84.47 405.39,-83.78 402.83,-83"/>
<polygon fill="#63b8ff" stroke="#63b8ff" points="403.79,-79.63 393.2,-79.61 401.47,-86.23 403.79,-79.63"/>
</a>
</g>
</g>
<!-- Node8 -->
<g id="Node000008" class="node">
<title>Node8</title>
<g id="a_Node000008"><a xlink:title=" ">
<polygon fill="#e0e0e0" stroke="#999999" points="487.5,-79.5 419.5,-79.5 419.5,-60.5 487.5,-60.5 487.5,-79.5"/>
<text text-anchor="middle" x="453.5" y="-67.5" font-family="Helvetica,sans-Serif" font-size="10.00">sys/time.h</text>
</a>
</g>
</g>
<!-- Node1&#45;&gt;Node8 -->
<g id="edge7_Node000001_Node000008" class="edge">
<title>Node1&#45;&gt;Node8</title>
<g id="a_edge7_Node000001_Node000008"><a xlink:title=" ">
<path fill="none" stroke="#63b8ff" d="M1430.87,-129.05C1261.49,-127.14 679.22,-118.26 496.5,-85 493,-84.36 489.38,-83.51 485.81,-82.54"/>
<polygon fill="#63b8ff" stroke="#63b8ff" points="486.55,-79.11 475.97,-79.58 484.53,-85.81 486.55,-79.11"/>
</a>
</g>
</g>
<!-- Node9 -->
<g id="Node000009" class="node">
<title>Node9</title>
<g id="a_Node000009"><a xlink:title=" ">
<polygon fill="#e0e0e0" stroke="#999999" points="577.5,-79.5 505.5,-79.5 505.5,-60.5 577.5,-60.5 577.5,-79.5"/>
<text text-anchor="middle" x="541.5" y="-67.5" font-family="Helvetica,sans-Serif" font-size="10.00">sys/types.h</text>
</a>
</g>
</g>
<!-- Node1&#45;&gt;Node9 -->
<g id="edge8_Node000001_Node000009" class="edge">
<title>Node1&#45;&gt;Node9</title>
<g id="a_edge8_Node000001_Node000009"><a xlink:title=" ">
<path fill="none" stroke="#63b8ff" d="M1430.83,-128.72C1271.68,-125.81 751.1,-114.23 586.5,-85 582.62,-84.31 578.61,-83.39 574.66,-82.34"/>
<polygon fill="#63b8ff" stroke="#63b8ff" points="575.62,-78.98 565.04,-79.55 573.67,-85.7 575.62,-78.98"/>
</a>
</g>
</g>
<!-- Node10 -->
<g id="Node000010" class="node">
<title>Node10</title>
<g id="a_Node000010"><a xlink:title=" ">
<polygon fill="#e0e0e0" stroke="#999999" points="669.5,-79.5 595.5,-79.5 595.5,-60.5 669.5,-60.5 669.5,-79.5"/>
<text text-anchor="middle" x="632.5" y="-67.5" font-family="Helvetica,sans-Serif" font-size="10.00">glib/gi18n.h</text>
</a>
</g>
</g>
<!-- Node1&#45;&gt;Node10 -->
<g id="edge9_Node000001_Node000010" class="edge">
<title>Node1&#45;&gt;Node10</title>
<g id="a_edge9_Node000001_Node000010"><a xlink:title=" ">
<path fill="none" stroke="#63b8ff" d="M1430.82,-128.37C1282.71,-124.55 824.53,-110.9 678.5,-85 674.54,-84.3 670.45,-83.37 666.41,-82.31"/>
<polygon fill="#63b8ff" stroke="#63b8ff" points="667.16,-78.89 656.59,-79.52 665.24,-85.62 667.16,-78.89"/>
</a>
</g>
</g>
<!-- Node11 -->
<g id="Node000011" class="node">
<title>Node11</title>
<g id="a_Node000011"><a xlink:title=" ">
<polygon fill="#e0e0e0" stroke="#999999" points="783,-79.5 688,-79.5 688,-60.5 783,-60.5 783,-79.5"/>
<text text-anchor="middle" x="735.5" y="-67.5" font-family="Helvetica,sans-Serif" font-size="10.00">gio/gunixfdlist.h</text>
</a>
</g>
</g>
<!-- Node1&#45;&gt;Node11 -->
<g id="edge10_Node000001_Node000011" class="edge">
<title>Node1&#45;&gt;Node11</title>
<g id="a_edge10_Node000001_Node000011"><a xlink:title=" ">
<path fill="none" stroke="#63b8ff" d="M1430.66,-128.96C1319.95,-127.13 1033.73,-119.18 797.5,-85 791.48,-84.13 785.18,-82.98 779,-81.73"/>
<polygon fill="#63b8ff" stroke="#63b8ff" points="779.3,-78.21 768.78,-79.52 777.82,-85.05 779.3,-78.21"/>
</a>
</g>
</g>
<!-- Node12 -->
<g id="Node000012" class="node">
<title>Node12</title>
<g id="a_Node000012"><a xlink:title=" ">
<polygon fill="#e0e0e0" stroke="#999999" points="841.5,-19 781.5,-19 781.5,0 841.5,0 841.5,-19"/>
<text text-anchor="middle" x="811.5" y="-7" font-family="Helvetica,sans-Serif" font-size="10.00">gtk/gtk.h</text>
</a>
</g>
</g>
<!-- Node1&#45;&gt;Node12 -->
<g id="edge11_Node000001_Node000012" class="edge">
<title>Node1&#45;&gt;Node12</title>
<g id="a_edge11_Node000001_Node000012"><a xlink:title=" ">
<path fill="none" stroke="#63b8ff" d="M1430.79,-129.39C1289.96,-128.65 876.34,-123.21 830.5,-85 814.35,-71.54 810.88,-46.44 810.6,-29.12"/>
<polygon fill="#63b8ff" stroke="#63b8ff" points="814.1,-29.12 810.78,-19.06 807.1,-29 814.1,-29.12"/>
</a>
</g>
</g>
<!-- Node13 -->
<g id="Node000013" class="node">
<title>Node13</title>
<g id="a_Node000013"><a xlink:title=" ">
<polygon fill="#e0e0e0" stroke="#999999" points="1563,-19 1466,-19 1466,0 1563,0 1563,-19"/>
<text text-anchor="middle" x="1514.5" y="-7" font-family="Helvetica,sans-Serif" font-size="10.00">dbus/dbus&#45;glib.h</text>
</a>
</g>
</g>
<!-- Node1&#45;&gt;Node13 -->
<g id="edge12_Node000001_Node000013" class="edge">
<title>Node1&#45;&gt;Node13</title>
<g id="a_edge12_Node000001_Node000013"><a xlink:title=" ">
<path fill="none" stroke="#63b8ff" d="M1479.35,-120.67C1482.38,-106.61 1488.84,-78.34 1496.5,-55 1499.39,-46.19 1503.17,-36.63 1506.52,-28.64"/>
<polygon fill="#63b8ff" stroke="#63b8ff" points="1509.83,-29.8 1510.56,-19.24 1503.39,-27.04 1509.83,-29.8"/>
</a>
</g>
</g>
<!-- Node14 -->
<g id="Node000014" class="node">
<title>Node14</title>
<g id="a_Node000014"><a xlink:title=" ">
<polygon fill="#e0e0e0" stroke="#999999" points="1093.5,-79.5 951.5,-79.5 951.5,-60.5 1093.5,-60.5 1093.5,-79.5"/>
<text text-anchor="middle" x="1022.5" y="-67.5" font-family="Helvetica,sans-Serif" font-size="10.00">dbus/dbus&#45;glib&#45;lowlevel.h</text>
</a>
</g>
</g>
<!-- Node1&#45;&gt;Node14 -->
<g id="edge13_Node000001_Node000014" class="edge">
<title>Node1&#45;&gt;Node14</title>
<g id="a_edge13_Node000001_Node000014"><a xlink:title=" ">
<path fill="none" stroke="#63b8ff" d="M1430.91,-124.81C1359.9,-117.46 1220.39,-102.3 1102.5,-85 1094.75,-83.86 1086.6,-82.56 1078.58,-81.22"/>
<polygon fill="#63b8ff" stroke="#63b8ff" points="1078.99,-77.74 1068.54,-79.5 1077.81,-84.64 1078.99,-77.74"/>
</a>
</g>
</g>
<!-- Node15 -->
<g id="Node000015" class="node">
<title>Node15</title>
<g id="a_Node000015"><a xlink:title=" ">
<polygon fill="#e0e0e0" stroke="#999999" points="1199.5,-79.5 1111.5,-79.5 1111.5,-60.5 1199.5,-60.5 1199.5,-79.5"/>
<text text-anchor="middle" x="1155.5" y="-67.5" font-family="Helvetica,sans-Serif" font-size="10.00">canberra&#45;gtk.h</text>
</a>
</g>
</g>
<!-- Node1&#45;&gt;Node15 -->
<g id="edge14_Node000001_Node000015" class="edge">
<title>Node1&#45;&gt;Node15</title>
<g id="a_edge14_Node000001_Node000015"><a xlink:title=" ">
<path fill="none" stroke="#63b8ff" d="M1430.6,-123.11C1376.72,-115.45 1285.8,-101.56 1208.5,-85 1204.36,-84.11 1200.07,-83.11 1195.79,-82.07"/>
<polygon fill="#63b8ff" stroke="#63b8ff" points="1196.48,-78.63 1185.93,-79.56 1194.76,-85.42 1196.48,-78.63"/>
</a>
</g>
</g>
<!-- Node16 -->
<g id="Node000016" class="node">
<title>Node16</title>
<g id="a_Node000016"><a xlink:title=" ">
<polygon fill="#e0e0e0" stroke="#999999" points="2925.5,-19 2791.5,-19 2791.5,0 2925.5,0 2925.5,-19"/>
<text text-anchor="middle" x="2858.5" y="-7" font-family="Helvetica,sans-Serif" font-size="10.00">libupower&#45;glib/upower.h</text>
</a>
</g>
</g>
<!-- Node1&#45;&gt;Node16 -->
<g id="edge15_Node000001_Node000016" class="edge">
<title>Node1&#45;&gt;Node16</title>
<g id="a_edge15_Node000001_Node000016"><a xlink:title=" ">
<path fill="none" stroke="#63b8ff" d="M1524.29,-128.93C1768.43,-125.87 2885.81,-110.47 2910.5,-85 2928.54,-66.39 2901.99,-40.97 2880.66,-25.15"/>
<polygon fill="#63b8ff" stroke="#63b8ff" points="2882.45,-22.13 2872.27,-19.2 2878.4,-27.84 2882.45,-22.13"/>
</a>
</g>
</g>
<!-- Node17 -->
<g id="Node000017" class="node">
<title>Node17</title>
<g id="a_Node000017"><a xlink:title=" ">
<polygon fill="#e0e0e0" stroke="#999999" points="1449,-79.5 1354,-79.5 1354,-60.5 1449,-60.5 1449,-79.5"/>
<text text-anchor="middle" x="1401.5" y="-67.5" font-family="Helvetica,sans-Serif" font-size="10.00">libnotify/notify.h</text>
</a>
</g>
</g>
<!-- Node1&#45;&gt;Node17 -->
<g id="edge16_Node000001_Node000017" class="edge">
<title>Node1&#45;&gt;Node17</title>
<g id="a_edge16_Node000001_Node000017"><a xlink:title=" ">
<path fill="none" stroke="#63b8ff" d="M1466.29,-120.87C1454.39,-111.71 1435.36,-97.06 1420.99,-86.01"/>
<polygon fill="#63b8ff" stroke="#63b8ff" points="1422.82,-82.99 1412.76,-79.67 1418.55,-88.54 1422.82,-82.99"/>
</a>
</g>
</g>
<!-- Node18 -->
<g id="Node000018" class="node">
<title>Node18</title>
<g id="a_Node000018"><a xlink:href="egg-console-kit_8h.html" target="_top" xlink:title=" ">
<polygon fill="white" stroke="#666666" points="1719,-79.5 1618,-79.5 1618,-60.5 1719,-60.5 1719,-79.5"/>
<text text-anchor="middle" x="1668.5" y="-67.5" font-family="Helvetica,sans-Serif" font-size="10.00">egg&#45;console&#45;kit.h</text>
</a>
</g>
</g>
<!-- Node1&#45;&gt;Node18 -->
<g id="edge17_Node000001_Node000018" class="edge">
<title>Node1&#45;&gt;Node18</title>
<g id="a_edge17_Node000001_Node000018"><a xlink:title=" ">
<path fill="none" stroke="#63b8ff" d="M1505.27,-120.99C1538.37,-110.86 1593.84,-93.87 1630.79,-82.55"/>
<polygon fill="#63b8ff" stroke="#63b8ff" points="1632.16,-85.79 1640.69,-79.52 1630.11,-79.1 1632.16,-85.79"/>
</a>
</g>
</g>
<!-- Node20 -->
<g id="Node000020" class="node">
<title>Node20</title>
<g id="a_Node000020"><a xlink:href="gpm-button_8h.html" target="_top" xlink:title=" ">
<polygon fill="white" stroke="#666666" points="1820,-79.5 1737,-79.5 1737,-60.5 1820,-60.5 1820,-79.5"/>
<text text-anchor="middle" x="1778.5" y="-67.5" font-family="Helvetica,sans-Serif" font-size="10.00">gpm&#45;button.h</text>
</a>
</g>
</g>
<!-- Node1&#45;&gt;Node20 -->
<g id="edge19_Node000001_Node000020" class="edge">
<title>Node1&#45;&gt;Node20</title>
<g id="a_edge19_Node000001_Node000020"><a xlink:title=" ">
<path fill="none" stroke="#63b8ff" d="M1524.29,-122.49C1574.71,-114.62 1657.19,-100.87 1727.5,-85 1731.37,-84.13 1735.39,-83.15 1739.39,-82.13"/>
<polygon fill="#63b8ff" stroke="#63b8ff" points="1740.44,-85.47 1749.22,-79.53 1738.66,-78.7 1740.44,-85.47"/>
</a>
</g>
</g>
<!-- Node21 -->
<g id="Node000021" class="node">
<title>Node21</title>
<g id="a_Node000021"><a xlink:href="gpm-control_8h.html" target="_top" xlink:title=" ">
<polygon fill="white" stroke="#666666" points="2020,-79.5 1935,-79.5 1935,-60.5 2020,-60.5 2020,-79.5"/>
<text text-anchor="middle" x="1977.5" y="-67.5" font-family="Helvetica,sans-Serif" font-size="10.00">gpm&#45;control.h</text>
</a>
</g>
</g>
<!-- Node1&#45;&gt;Node21 -->
<g id="edge21_Node000001_Node000021" class="edge">
<title>Node1&#45;&gt;Node21</title>
<g id="a_edge21_Node000001_Node000021"><a xlink:title=" ">
<path fill="none" stroke="#63b8ff" d="M1524.29,-127.38C1606.18,-123.11 1780.57,-111.52 1925.5,-85 1929.97,-84.18 1934.61,-83.17 1939.2,-82.07"/>
<polygon fill="#63b8ff" stroke="#63b8ff" points="1940.26,-85.41 1949.08,-79.55 1938.53,-78.63 1940.26,-85.41"/>
</a>
</g>
</g>
<!-- Node22 -->
<g id="Node000022" class="node">
<title>Node22</title>
<g id="a_Node000022"><a xlink:href="src_2gpm-common_8h.html" target="_top" xlink:title=" ">
<polygon fill="white" stroke="#666666" points="933.5,-79.5 839.5,-79.5 839.5,-60.5 933.5,-60.5 933.5,-79.5"/>
<text text-anchor="middle" x="886.5" y="-67.5" font-family="Helvetica,sans-Serif" font-size="10.00">gpm&#45;common.h</text>
</a>
</g>
</g>
<!-- Node1&#45;&gt;Node22 -->
<g id="edge23_Node000001_Node000022" class="edge">
<title>Node1&#45;&gt;Node22</title>
<g id="a_edge23_Node000001_Node000022"><a xlink:title=" ">
<path fill="none" stroke="#63b8ff" d="M1430.67,-128.15C1337.26,-124.91 1121.35,-114.59 942.5,-85 937.38,-84.15 932.04,-83.07 926.77,-81.9"/>
<polygon fill="#63b8ff" stroke="#63b8ff" points="927.37,-78.44 916.83,-79.53 925.75,-85.25 927.37,-78.44"/>
</a>
</g>
</g>
<!-- Node25 -->
<g id="Node000025" class="node">
<title>Node25</title>
<g id="a_Node000025"><a xlink:href="gpm-dpms_8h.html" target="_top" xlink:title=" ">
<polygon fill="white" stroke="#666666" points="1916.5,-79.5 1838.5,-79.5 1838.5,-60.5 1916.5,-60.5 1916.5,-79.5"/>
<text text-anchor="middle" x="1877.5" y="-67.5" font-family="Helvetica,sans-Serif" font-size="10.00">gpm&#45;dpms.h</text>
</a>
</g>
</g>
<!-- Node1&#45;&gt;Node25 -->
<g id="edge27_Node000001_Node000025" class="edge">
<title>Node1&#45;&gt;Node25</title>
<g id="a_edge27_Node000001_Node000025"><a xlink:title=" ">
<path fill="none" stroke="#63b8ff" d="M1524.14,-125.86C1591.74,-120.08 1720.64,-107.11 1828.5,-85 1832.43,-84.19 1836.51,-83.23 1840.56,-82.2"/>
<polygon fill="#63b8ff" stroke="#63b8ff" points="1841.73,-85.51 1850.47,-79.52 1839.9,-78.75 1841.73,-85.51"/>
</a>
</g>
</g>
<!-- Node26 -->
<g id="Node000026" class="node">
<title>Node26</title>
<g id="a_Node000026"><a xlink:href="gpm-idle_8h.html" target="_top" xlink:title=" ">
<polygon fill="white" stroke="#666666" points="2107,-79.5 2038,-79.5 2038,-60.5 2107,-60.5 2107,-79.5"/>
<text text-anchor="middle" x="2072.5" y="-67.5" font-family="Helvetica,sans-Serif" font-size="10.00">gpm&#45;idle.h</text>
</a>
</g>
</g>
<!-- Node1&#45;&gt;Node26 -->
<g id="edge28_Node000001_Node000026" class="edge">
<title>Node1&#45;&gt;Node26</title>
<g id="a_edge28_Node000001_Node000026"><a xlink:title=" ">
<path fill="none" stroke="#63b8ff" d="M1524.06,-129.29C1619.57,-128.09 1844.17,-121.28 2028.5,-85 2031.99,-84.31 2035.59,-83.44 2039.16,-82.48"/>
<polygon fill="#63b8ff" stroke="#63b8ff" points="2040.41,-85.76 2049.01,-79.56 2038.43,-79.04 2040.41,-85.76"/>
</a>
</g>
</g>
<!-- Node27 -->
<g id="Node000027" class="node">
<title>Node27</title>
<g id="a_Node000027"><a xlink:href="gpm-manager_8h.html" target="_top" xlink:title=" ">
<polygon fill="white" stroke="#666666" points="1599.5,-79.5 1505.5,-79.5 1505.5,-60.5 1599.5,-60.5 1599.5,-79.5"/>
<text text-anchor="middle" x="1552.5" y="-67.5" font-family="Helvetica,sans-Serif" font-size="10.00">gpm&#45;manager.h</text>
</a>
</g>
</g>
<!-- Node1&#45;&gt;Node27 -->
<g id="edge30_Node000001_Node000027" class="edge">
<title>Node1&#45;&gt;Node27</title>
<g id="a_edge30_Node000001_Node000027"><a xlink:title=" ">
<path fill="none" stroke="#63b8ff" d="M1488.57,-120.87C1500.31,-111.71 1519.09,-97.06 1533.26,-86.01"/>
<polygon fill="#63b8ff" stroke="#63b8ff" points="1535.66,-88.58 1541.39,-79.67 1531.35,-83.06 1535.66,-88.58"/>
</a>
</g>
</g>
<!-- Node28 -->
<g id="Node000028" class="node">
<title>Node28</title>
<g id="a_Node000028"><a xlink:href="gpm-screensaver_8h.html" target="_top" xlink:title=" ">
<polygon fill="white" stroke="#666666" points="2235.5,-79.5 2125.5,-79.5 2125.5,-60.5 2235.5,-60.5 2235.5,-79.5"/>
<text text-anchor="middle" x="2180.5" y="-67.5" font-family="Helvetica,sans-Serif" font-size="10.00">gpm&#45;screensaver.h</text>
</a>
</g>
</g>
<!-- Node1&#45;&gt;Node28 -->
<g id="edge33_Node000001_Node000028" class="edge">
<title>Node1&#45;&gt;Node28</title>
<g id="a_edge33_Node000001_Node000028"><a xlink:title=" ">
<path fill="none" stroke="#63b8ff" d="M1524.17,-128.52C1629.9,-125.8 1895.63,-116.18 2115.5,-85 2121.88,-84.1 2128.56,-82.92 2135.11,-81.64"/>
<polygon fill="#63b8ff" stroke="#63b8ff" points="2136.15,-85 2145.24,-79.55 2134.74,-78.14 2136.15,-85"/>
</a>
</g>
</g>
<!-- Node29 -->
<g id="Node000029" class="node">
<title>Node29</title>
<g id="a_Node000029"><a xlink:href="gpm-backlight_8h.html" target="_top" xlink:title=" ">
<polygon fill="white" stroke="#666666" points="2349.5,-79.5 2253.5,-79.5 2253.5,-60.5 2349.5,-60.5 2349.5,-79.5"/>
<text text-anchor="middle" x="2301.5" y="-67.5" font-family="Helvetica,sans-Serif" font-size="10.00">gpm&#45;backlight.h</text>
</a>
</g>
</g>
<!-- Node1&#45;&gt;Node29 -->
<g id="edge35_Node000001_Node000029" class="edge">
<title>Node1&#45;&gt;Node29</title>
<g id="a_edge35_Node000001_Node000029"><a xlink:title=" ">
<path fill="none" stroke="#63b8ff" d="M1524.06,-129.75C1644.12,-129.76 1973.78,-125.75 2244.5,-85 2249.98,-84.18 2255.7,-83.07 2261.32,-81.84"/>
<polygon fill="#63b8ff" stroke="#63b8ff" points="2262.29,-85.21 2271.24,-79.52 2260.7,-78.39 2262.29,-85.21"/>
</a>
</g>
</g>
<!-- Node30 -->
<g id="Node000030" class="node">
<title>Node30</title>
<g id="a_Node000030"><a xlink:href="gpm-kbd-backlight_8h.html" target="_top" xlink:title=" ">
<polygon fill="white" stroke="#666666" points="1335.5,-79.5 1217.5,-79.5 1217.5,-60.5 1335.5,-60.5 1335.5,-79.5"/>
<text text-anchor="middle" x="1276.5" y="-67.5" font-family="Helvetica,sans-Serif" font-size="10.00">gpm&#45;kbd&#45;backlight.h</text>
</a>
</g>
</g>
<!-- Node1&#45;&gt;Node30 -->
<g id="edge37_Node000001_Node000030" class="edge">
<title>Node1&#45;&gt;Node30</title>
<g id="a_edge37_Node000001_Node000030"><a xlink:title=" ">
<path fill="none" stroke="#63b8ff" d="M1448.27,-120.99C1413.29,-110.81 1354.57,-93.72 1315.68,-82.4"/>
<polygon fill="#63b8ff" stroke="#63b8ff" points="1316.34,-78.95 1305.76,-79.52 1314.39,-85.67 1316.34,-78.95"/>
</a>
</g>
</g>
<!-- Node32 -->
<g id="Node000032" class="node">
<title>Node32</title>
<g id="a_Node000032"><a xlink:href="gpm-session_8h.html" target="_top" xlink:title=" ">
<polygon fill="white" stroke="#666666" points="2455.5,-79.5 2367.5,-79.5 2367.5,-60.5 2455.5,-60.5 2455.5,-79.5"/>
<text text-anchor="middle" x="2411.5" y="-67.5" font-family="Helvetica,sans-Serif" font-size="10.00">gpm&#45;session.h</text>
</a>
</g>
</g>
<!-- Node1&#45;&gt;Node32 -->
<g id="edge41_Node000001_Node000032" class="edge">
<title>Node1&#45;&gt;Node32</title>
<g id="a_edge41_Node000001_Node000032"><a xlink:title=" ">
<path fill="none" stroke="#63b8ff" d="M1524.16,-128.42C1682.02,-124.58 2195.35,-110.39 2358.5,-85 2363.54,-84.22 2368.8,-83.15 2373.96,-81.94"/>
<polygon fill="#63b8ff" stroke="#63b8ff" points="2374.82,-85.33 2383.67,-79.51 2373.12,-78.54 2374.82,-85.33"/>
</a>
</g>
</g>
<!-- Node33 -->
<g id="Node000033" class="node">
<title>Node33</title>
<g id="a_Node000033"><a xlink:href="gpm-icon-names_8h.html" target="_top" xlink:title=" ">
<polygon fill="white" stroke="#666666" points="2695.5,-79.5 2587.5,-79.5 2587.5,-60.5 2695.5,-60.5 2695.5,-79.5"/>
<text text-anchor="middle" x="2641.5" y="-67.5" font-family="Helvetica,sans-Serif" font-size="10.00">gpm&#45;icon&#45;names.h</text>
</a>
</g>
</g>
<!-- Node1&#45;&gt;Node33 -->
<g id="edge43_Node000001_Node000033" class="edge">
<title>Node1&#45;&gt;Node33</title>
<g id="a_edge43_Node000001_Node000033"><a xlink:title=" ">
<path fill="none" stroke="#63b8ff" d="M1524,-128.73C1705.94,-125.52 2369.71,-112.2 2578.5,-85 2584.92,-84.16 2591.64,-82.99 2598.22,-81.68"/>
<polygon fill="#63b8ff" stroke="#63b8ff" points="2599.29,-85.03 2608.35,-79.53 2597.84,-78.18 2599.29,-85.03"/>
</a>
</g>
</g>
<!-- Node34 -->
<g id="Node000034" class="node">
<title>Node34</title>
<g id="a_Node000034"><a xlink:href="gpm-tray-icon_8h.html" target="_top" xlink:title=" ">
<polygon fill="white" stroke="#666666" points="2569,-79.5 2474,-79.5 2474,-60.5 2569,-60.5 2569,-79.5"/>
<text text-anchor="middle" x="2521.5" y="-67.5" font-family="Helvetica,sans-Serif" font-size="10.00">gpm&#45;tray&#45;icon.h</text>
</a>
</g>
</g>
<!-- Node1&#45;&gt;Node34 -->
<g id="edge44_Node000001_Node000034" class="edge">
<title>Node1&#45;&gt;Node34</title>
<g id="a_edge44_Node000001_Node000034"><a xlink:title=" ">
<path fill="none" stroke="#63b8ff" d="M1524.05,-128.61C1693.83,-125.18 2279.44,-111.64 2464.5,-85 2470.05,-84.2 2475.84,-83.1 2481.52,-81.86"/>
<polygon fill="#63b8ff" stroke="#63b8ff" points="2482.6,-85.2 2491.54,-79.52 2481.01,-78.39 2482.6,-85.2"/>
</a>
</g>
</g>
<!-- Node35 -->
<g id="Node000035" class="node">
<title>Node35</title>
<g id="a_Node000035"><a xlink:href="gpm-engine_8h.html" target="_top" xlink:title=" ">
<polygon fill="white" stroke="#666666" points="2797.5,-79.5 2713.5,-79.5 2713.5,-60.5 2797.5,-60.5 2797.5,-79.5"/>
<text text-anchor="middle" x="2755.5" y="-67.5" font-family="Helvetica,sans-Serif" font-size="10.00">gpm&#45;engine.h</text>
</a>
</g>
</g>
<!-- Node1&#45;&gt;Node35 -->
<g id="edge46_Node000001_Node000035" class="edge">
<title>Node1&#45;&gt;Node35</title>
<g id="a_edge46_Node000001_Node000035"><a xlink:title=" ">
<path fill="none" stroke="#63b8ff" d="M1524.3,-129.25C1719.65,-127.99 2470.62,-120.85 2704.5,-85 2709.3,-84.26 2714.29,-83.24 2719.18,-82.07"/>
<polygon fill="#63b8ff" stroke="#63b8ff" points="2720.22,-85.42 2729.02,-79.52 2718.46,-78.64 2720.22,-85.42"/>
</a>
</g>
</g>
<!-- Node36 -->
<g id="Node000036" class="node">
<title>Node36</title>
<g id="a_Node000036"><a xlink:href="gpm-upower_8h.html" target="_top" xlink:title=" ">
<polygon fill="white" stroke="#666666" points="2901.5,-79.5 2815.5,-79.5 2815.5,-60.5 2901.5,-60.5 2901.5,-79.5"/>
<text text-anchor="middle" x="2858.5" y="-67.5" font-family="Helvetica,sans-Serif" font-size="10.00">gpm&#45;upower.h</text>
</a>
</g>
</g>
<!-- Node1&#45;&gt;Node36 -->
<g id="edge49_Node000001_Node000036" class="edge">
<title>Node1&#45;&gt;Node36</title>
<g id="a_edge49_Node000001_Node000036"><a xlink:title=" ">
<path fill="none" stroke="#63b8ff" d="M1524.33,-129.37C1729.66,-128.59 2551.49,-123.08 2806.5,-85 2811.39,-84.27 2816.47,-83.25 2821.46,-82.08"/>
<polygon fill="#63b8ff" stroke="#63b8ff" points="2822.66,-85.39 2831.49,-79.53 2820.94,-78.6 2822.66,-85.39"/>
</a>
</g>
</g>
<!-- Node37 -->
<g id="Node000037" class="node">
<title>Node37</title>
<g id="a_Node000037"><a xlink:title=" ">
<polygon fill="#e0e0e0" stroke="#999999" points="3151.5,-79.5 2957.5,-79.5 2957.5,-60.5 3151.5,-60.5 3151.5,-79.5"/>
<text text-anchor="middle" x="3054.5" y="-67.5" font-family="Helvetica,sans-Serif" font-size="10.00">org.mate.PowerManager.Backlight.h</text>
</a>
</g>
</g>
<!-- Node1&#45;&gt;Node37 -->
<g id="edge52_Node000001_Node000037" class="edge">
<title>Node1&#45;&gt;Node37</title>
<g id="a_edge52_Node000001_Node000037"><a xlink:title=" ">
<path fill="none" stroke="#63b8ff" d="M1524.11,-129.7C1706.07,-130.12 2385.96,-128.52 2943.5,-85 2957.06,-83.94 2971.5,-82.42 2985.33,-80.76"/>
<polygon fill="#63b8ff" stroke="#63b8ff" points="2985.78,-84.23 2995.27,-79.53 2984.92,-77.28 2985.78,-84.23"/>
</a>
</g>
</g>
<!-- Node38 -->
<g id="Node000038" class="node">
<title>Node38</title>
<g id="a_Node000038"><a xlink:title=" ">
<polygon fill="#e0e0e0" stroke="#999999" points="3327.5,-85 3169.5,-85 3169.5,-55 3327.5,-55 3327.5,-85"/>
<text text-anchor="start" x="3177.5" y="-73" font-family="Helvetica,sans-Serif" font-size="10.00">org.mate.PowerManager.Kbd</text>
<text text-anchor="middle" x="3248.5" y="-62" font-family="Helvetica,sans-Serif" font-size="10.00">Backlight.h</text>
</a>
</g>
</g>
<!-- Node1&#45;&gt;Node38 -->
<g id="edge53_Node000001_Node000038" class="edge">
<title>Node1&#45;&gt;Node38</title>
<g id="a_edge53_Node000001_Node000038"><a xlink:title=" ">
<path fill="none" stroke="#63b8ff" d="M1524.29,-129.09C1758.87,-126.94 2809.18,-115.75 3159.26,-85"/>
<polygon fill="#63b8ff" stroke="#63b8ff" points="3159.76,-88.47 3169.41,-84.09 3159.13,-81.5 3159.76,-88.47"/>
</a>
</g>
</g>
<!-- Node19 -->
<g id="Node000019" class="node">
<title>Node19</title>
<g id="a_Node000019"><a xlink:title=" ">
<polygon fill="#e0e0e0" stroke="#999999" points="2165,-19 2088,-19 2088,0 2165,0 2165,-19"/>
<text text-anchor="middle" x="2126.5" y="-7" font-family="Helvetica,sans-Serif" font-size="10.00">glib&#45;object.h</text>
</a>
</g>
</g>
<!-- Node18&#45;&gt;Node19 -->
<g id="edge18_Node000018_Node000019" class="edge">
<title>Node18&#45;&gt;Node19</title>
<g id="a_edge18_Node000018_Node000019"><a xlink:title=" ">
<path fill="none" stroke="#63b8ff" d="M1701.43,-60.44C1709.88,-58.45 1718.99,-56.48 1727.5,-55 1852.77,-33.24 2002.11,-19.89 2077.61,-14.02"/>
<polygon fill="#63b8ff" stroke="#63b8ff" points="2078.06,-17.5 2087.76,-13.24 2077.52,-10.52 2078.06,-17.5"/>
</a>
</g>
</g>
<!-- Node20&#45;&gt;Node19 -->
<g id="edge20_Node000020_Node000019" class="edge">
<title>Node20&#45;&gt;Node19</title>
<g id="a_edge20_Node000020_Node000019"><a xlink:title=" ">
<path fill="none" stroke="#63b8ff" d="M1807.21,-60.47C1814.45,-58.5 1822.22,-56.54 1829.5,-55 1916.12,-36.69 2018.5,-23.09 2077.62,-16.01"/>
<polygon fill="#63b8ff" stroke="#63b8ff" points="2078.27,-19.46 2087.79,-14.81 2077.45,-12.51 2078.27,-19.46"/>
</a>
</g>
</g>
<!-- Node21&#45;&gt;Node19 -->
<g id="edge22_Node000021_Node000019" class="edge">
<title>Node21&#45;&gt;Node19</title>
<g id="a_edge22_Node000021_Node000019"><a xlink:title=" ">
<path fill="none" stroke="#63b8ff" d="M1999.17,-60.49C2024.44,-50.57 2066.41,-34.09 2095.22,-22.78"/>
<polygon fill="#63b8ff" stroke="#63b8ff" points="2096.78,-25.93 2104.81,-19.02 2094.22,-19.41 2096.78,-25.93"/>
</a>
</g>
</g>
<!-- Node22&#45;&gt;Node12 -->
<g id="edge25_Node000022_Node000012" class="edge">
<title>Node22&#45;&gt;Node12</title>
<g id="a_edge25_Node000022_Node000012"><a xlink:title=" ">
<path fill="none" stroke="#63b8ff" d="M875.43,-60.37C863.69,-51.21 844.91,-36.56 830.74,-25.51"/>
<polygon fill="#63b8ff" stroke="#63b8ff" points="832.65,-22.56 822.61,-19.17 828.34,-28.08 832.65,-22.56"/>
</a>
</g>
</g>
<!-- Node23 -->
<g id="Node000023" class="node">
<title>Node23</title>
<g id="a_Node000023"><a xlink:title=" ">
<polygon fill="#e0e0e0" stroke="#999999" points="1103.5,-19 1059.5,-19 1059.5,0 1103.5,0 1103.5,-19"/>
<text text-anchor="middle" x="1081.5" y="-7" font-family="Helvetica,sans-Serif" font-size="10.00">glib.h</text>
</a>
</g>
</g>
<!-- Node22&#45;&gt;Node23 -->
<g id="edge24_Node000022_Node000023" class="edge">
<title>Node22&#45;&gt;Node23</title>
<g id="a_edge24_Node000022_Node000023"><a xlink:title=" ">
<path fill="none" stroke="#63b8ff" d="M914.85,-60.49C950.68,-49.75 1012.15,-31.3 1049.58,-20.08"/>
<polygon fill="#63b8ff" stroke="#63b8ff" points="1050.89,-23.34 1059.46,-17.11 1048.88,-16.63 1050.89,-23.34"/>
</a>
</g>
</g>
<!-- Node24 -->
<g id="Node000024" class="node">
<title>Node24</title>
<g id="a_Node000024"><a xlink:title=" ">
<polygon fill="#e0e0e0" stroke="#999999" points="915.5,-19 859.5,-19 859.5,0 915.5,0 915.5,-19"/>
<text text-anchor="middle" x="887.5" y="-7" font-family="Helvetica,sans-Serif" font-size="10.00">unistd.h</text>
</a>
</g>
</g>
<!-- Node22&#45;&gt;Node24 -->
<g id="edge26_Node000022_Node000024" class="edge">
<title>Node22&#45;&gt;Node24</title>
<g id="a_edge26_Node000022_Node000024"><a xlink:title=" ">
<path fill="none" stroke="#63b8ff" d="M886.65,-60.37C886.79,-52.25 887,-39.81 887.18,-29.39"/>
<polygon fill="#63b8ff" stroke="#63b8ff" points="890.68,-29.23 887.35,-19.17 883.68,-29.11 890.68,-29.23"/>
</a>
</g>
</g>
<!-- Node26&#45;&gt;Node19 -->
<g id="edge29_Node000026_Node000019" class="edge">
<title>Node26&#45;&gt;Node19</title>
<g id="a_edge29_Node000026_Node000019"><a xlink:title=" ">
<path fill="none" stroke="#63b8ff" d="M2080.47,-60.37C2088.6,-51.55 2101.43,-37.66 2111.48,-26.77"/>
<polygon fill="#63b8ff" stroke="#63b8ff" points="2114.29,-28.89 2118.5,-19.17 2109.14,-24.14 2114.29,-28.89"/>
</a>
</g>
</g>
<!-- Node27&#45;&gt;Node13 -->
<g id="edge32_Node000027_Node000013" class="edge">
<title>Node27&#45;&gt;Node13</title>
<g id="a_edge32_Node000027_Node000013"><a xlink:title=" ">
<path fill="none" stroke="#63b8ff" d="M1546.89,-60.37C1541.34,-51.81 1532.67,-38.47 1525.7,-27.74"/>
<polygon fill="#63b8ff" stroke="#63b8ff" points="1528.51,-25.65 1520.13,-19.17 1522.64,-29.46 1528.51,-25.65"/>
</a>
</g>
</g>
<!-- Node27&#45;&gt;Node19 -->
<g id="edge31_Node000027_Node000019" class="edge">
<title>Node27&#45;&gt;Node19</title>
<g id="a_edge31_Node000027_Node000019"><a xlink:title=" ">
<path fill="none" stroke="#63b8ff" d="M1582.83,-60.48C1591.1,-58.42 1600.1,-56.4 1608.5,-55 1779.53,-26.46 1985.55,-15.7 2077.75,-12.1"/>
<polygon fill="#63b8ff" stroke="#63b8ff" points="2078.04,-15.59 2087.9,-11.72 2077.77,-8.6 2078.04,-15.59"/>
</a>
</g>
</g>
<!-- Node28&#45;&gt;Node19 -->
<g id="edge34_Node000028_Node000019" class="edge">
<title>Node28&#45;&gt;Node19</title>
<g id="a_edge34_Node000028_Node000019"><a xlink:title=" ">
<path fill="none" stroke="#63b8ff" d="M2172.53,-60.37C2164.4,-51.55 2151.57,-37.66 2141.52,-26.77"/>
<polygon fill="#63b8ff" stroke="#63b8ff" points="2143.86,-24.14 2134.5,-19.17 2138.71,-28.89 2143.86,-24.14"/>
</a>
</g>
</g>
<!-- Node29&#45;&gt;Node19 -->
<g id="edge36_Node000029_Node000019" class="edge">
<title>Node29&#45;&gt;Node19</title>
<g id="a_edge36_Node000029_Node000019"><a xlink:title=" ">
<path fill="none" stroke="#63b8ff" d="M2276.05,-60.49C2245.86,-50.4 2195.34,-33.51 2161.48,-22.19"/>
<polygon fill="#63b8ff" stroke="#63b8ff" points="2162.57,-18.87 2151.98,-19.02 2160.35,-25.51 2162.57,-18.87"/>
</a>
</g>
</g>
<!-- Node30&#45;&gt;Node19 -->
<g id="edge40_Node000030_Node000019" class="edge">
<title>Node30&#45;&gt;Node19</title>
<g id="a_edge40_Node000030_Node000019"><a xlink:title=" ">
<path fill="none" stroke="#63b8ff" d="M1313.04,-60.46C1323.18,-58.36 1334.22,-56.34 1344.5,-55 1619.97,-19 1953.79,-12.12 2077.4,-10.81"/>
<polygon fill="#63b8ff" stroke="#63b8ff" points="2077.7,-14.3 2087.66,-10.71 2077.63,-7.3 2077.7,-14.3"/>
</a>
</g>
</g>
<!-- Node30&#45;&gt;Node23 -->
<g id="edge39_Node000030_Node000023" class="edge">
<title>Node30&#45;&gt;Node23</title>
<g id="a_edge39_Node000030_Node000023"><a xlink:title=" ">
<path fill="none" stroke="#63b8ff" d="M1248.15,-60.49C1212.32,-49.75 1150.85,-31.3 1113.42,-20.08"/>
<polygon fill="#63b8ff" stroke="#63b8ff" points="1114.12,-16.63 1103.54,-17.11 1112.11,-23.34 1114.12,-16.63"/>
</a>
</g>
</g>
<!-- Node31 -->
<g id="Node000031" class="node">
<title>Node31</title>
<g id="a_Node000031"><a xlink:title=" ">
<polygon fill="#e0e0e0" stroke="#999999" points="1306,-19 1247,-19 1247,0 1306,0 1306,-19"/>
<text text-anchor="middle" x="1276.5" y="-7" font-family="Helvetica,sans-Serif" font-size="10.00">gio/gio.h</text>
</a>
</g>
</g>
<!-- Node30&#45;&gt;Node31 -->
<g id="edge38_Node000030_Node000031" class="edge">
<title>Node30&#45;&gt;Node31</title>
<g id="a_edge38_Node000030_Node000031"><a xlink:title=" ">
<path fill="none" stroke="#63b8ff" d="M1276.5,-60.37C1276.5,-52.25 1276.5,-39.81 1276.5,-29.39"/>
<polygon fill="#63b8ff" stroke="#63b8ff" points="1280,-29.17 1276.5,-19.17 1273,-29.17 1280,-29.17"/>
</a>
</g>
</g>
<!-- Node32&#45;&gt;Node19 -->
<g id="edge42_Node000032_Node000019" class="edge">
<title>Node32&#45;&gt;Node19</title>
<g id="a_edge42_Node000032_Node000019"><a xlink:title=" ">
<path fill="none" stroke="#63b8ff" d="M2380.76,-60.5C2373.49,-58.59 2365.74,-56.65 2358.5,-55 2295.54,-40.66 2222.27,-27.13 2175.18,-18.83"/>
<polygon fill="#63b8ff" stroke="#63b8ff" points="2175.71,-15.37 2165.26,-17.09 2174.5,-22.27 2175.71,-15.37"/>
</a>
</g>
</g>
<!-- Node34&#45;&gt;Node19 -->
<g id="edge45_Node000034_Node000019" class="edge">
<title>Node34&#45;&gt;Node19</title>
<g id="a_edge45_Node000034_Node000019"><a xlink:title=" ">
<path fill="none" stroke="#63b8ff" d="M2489.38,-60.46C2481.3,-58.49 2472.61,-56.53 2464.5,-55 2362.35,-35.79 2241.3,-22 2175.34,-15.23"/>
<polygon fill="#63b8ff" stroke="#63b8ff" points="2175.55,-11.73 2165.24,-14.2 2174.84,-18.69 2175.55,-11.73"/>
</a>
</g>
</g>
<!-- Node35&#45;&gt;Node16 -->
<g id="edge48_Node000035_Node000016" class="edge">
<title>Node35&#45;&gt;Node16</title>
<g id="a_edge48_Node000035_Node000016"><a xlink:title=" ">
<path fill="none" stroke="#63b8ff" d="M2770.7,-60.37C2787.51,-50.82 2814.82,-35.31 2834.52,-24.12"/>
<polygon fill="#63b8ff" stroke="#63b8ff" points="2836.27,-27.15 2843.24,-19.17 2832.82,-21.06 2836.27,-27.15"/>
</a>
</g>
</g>
<!-- Node35&#45;&gt;Node19 -->
<g id="edge47_Node000035_Node000019" class="edge">
<title>Node35&#45;&gt;Node19</title>
<g id="a_edge47_Node000035_Node000019"><a xlink:title=" ">
<path fill="none" stroke="#63b8ff" d="M2728.19,-60.47C2720.59,-58.38 2712.28,-56.35 2704.5,-55 2510.34,-21.2 2275.02,-13.07 2175.12,-11.12"/>
<polygon fill="#63b8ff" stroke="#63b8ff" points="2175.09,-7.62 2165.03,-10.93 2174.96,-14.61 2175.09,-7.62"/>
</a>
</g>
</g>
<!-- Node36&#45;&gt;Node16 -->
<g id="edge51_Node000036_Node000016" class="edge">
<title>Node36&#45;&gt;Node16</title>
<g id="a_edge51_Node000036_Node000016"><a xlink:title=" ">
<path fill="none" stroke="#63b8ff" d="M2858.5,-60.37C2858.5,-52.25 2858.5,-39.81 2858.5,-29.39"/>
<polygon fill="#63b8ff" stroke="#63b8ff" points="2862,-29.17 2858.5,-19.17 2855,-29.17 2862,-29.17"/>
</a>
</g>
</g>
<!-- Node36&#45;&gt;Node19 -->
<g id="edge50_Node000036_Node000019" class="edge">
<title>Node36&#45;&gt;Node19</title>
<g id="a_edge50_Node000036_Node000019"><a xlink:title=" ">
<path fill="none" stroke="#63b8ff" d="M2830.93,-60.49C2823.1,-58.37 2814.52,-56.33 2806.5,-55 2572.45,-16.23 2287.83,-10.89 2175.47,-10.4"/>
<polygon fill="#63b8ff" stroke="#63b8ff" points="2175.16,-6.9 2165.15,-10.37 2175.14,-13.9 2175.16,-6.9"/>
</a>
</g>
</g>
</g>
</svg>
