<?xml version="1.0" encoding="UTF-8" standalone="no"?>
<!DOCTYPE svg PUBLIC "-//W3C//DTD SVG 1.1//EN"
 "http://www.w3.org/Graphics/SVG/1.1/DTD/svg11.dtd">
<!-- Generated by graphviz version 2.43.0 (0)
 -->
<!-- Title: gs&#45;idle&#45;monitor.h Pages: 1 -->
<svg width="220pt" height="82pt"
 viewBox="0.00 0.00 219.50 82.00" xmlns="http://www.w3.org/2000/svg" xmlns:xlink="http://www.w3.org/1999/xlink">
<g id="graph0" class="graph" transform="scale(1 1) rotate(0) translate(4 78)">
<title>gs&#45;idle&#45;monitor.h</title>
<!-- Node1 -->
<g id="Node000001" class="node">
<title>Node1</title>
<g id="a_Node000001"><a xlink:title=" ">
<polygon fill="#999999" stroke="#666666" points="156.5,-74 56.5,-74 56.5,-55 156.5,-55 156.5,-74"/>
<text text-anchor="middle" x="106.5" y="-62" font-family="Helvetica,sans-Serif" font-size="10.00">gs&#45;idle&#45;monitor.h</text>
</a>
</g>
</g>
<!-- Node2 -->
<g id="Node000002" class="node">
<title>Node2</title>
<g id="a_Node000002"><a xlink:href="gs-idle-monitor_8c.html" target="_top" xlink:title=" ">
<polygon fill="white" stroke="#666666" points="99,-19 0,-19 0,0 99,0 99,-19"/>
<text text-anchor="middle" x="49.5" y="-7" font-family="Helvetica,sans-Serif" font-size="10.00">gs&#45;idle&#45;monitor.c</text>
</a>
</g>
</g>
<!-- Node1&#45;&gt;Node2 -->
<g id="edge1_Node000001_Node000002" class="edge">
<title>Node1&#45;&gt;Node2</title>
<g id="a_edge1_Node000001_Node000002"><a xlink:title=" ">
<path fill="none" stroke="#63b8ff" d="M89.88,-48.04C79.77,-38.64 67.22,-26.98 58.82,-19.17"/>
<polygon fill="#63b8ff" stroke="#63b8ff" points="87.64,-50.74 97.34,-54.98 92.4,-45.61 87.64,-50.74"/>
</a>
</g>
</g>
<!-- Node3 -->
<g id="Node000003" class="node">
<title>Node3</title>
<g id="a_Node000003"><a xlink:href="gsm-presence_8c.html" target="_top" xlink:title=" ">
<polygon fill="white" stroke="#666666" points="211.5,-19 117.5,-19 117.5,0 211.5,0 211.5,-19"/>
<text text-anchor="middle" x="164.5" y="-7" font-family="Helvetica,sans-Serif" font-size="10.00">gsm&#45;presence.c</text>
</a>
</g>
</g>
<!-- Node1&#45;&gt;Node3 -->
<g id="edge2_Node000001_Node000003" class="edge">
<title>Node1&#45;&gt;Node3</title>
<g id="a_edge2_Node000001_Node000003"><a xlink:title=" ">
<path fill="none" stroke="#63b8ff" d="M123.41,-48.04C133.7,-38.64 146.47,-26.98 155.01,-19.17"/>
<polygon fill="#63b8ff" stroke="#63b8ff" points="120.84,-45.66 115.82,-54.98 125.56,-50.82 120.84,-45.66"/>
</a>
</g>
</g>
</g>
</svg>
