<?xml version="1.0" encoding="UTF-8" standalone="no"?>
<!DOCTYPE svg PUBLIC "-//W3C//DTD SVG 1.1//EN"
 "http://www.w3.org/Graphics/SVG/1.1/DTD/svg11.dtd">
<!-- Generated by graphviz version 2.43.0 (0)
 -->
<!-- Title: gs&#45;job.h Pages: 1 -->
<svg width="357pt" height="82pt"
 viewBox="0.00 0.00 357.00 82.00" xmlns="http://www.w3.org/2000/svg" xmlns:xlink="http://www.w3.org/1999/xlink">
<g id="graph0" class="graph" transform="scale(1 1) rotate(0) translate(4 78)">
<title>gs&#45;job.h</title>
<!-- Node1 -->
<g id="Node000001" class="node">
<title>Node1</title>
<g id="a_Node000001"><a xlink:title=" ">
<polygon fill="#999999" stroke="#666666" points="142.5,-74 86.5,-74 86.5,-55 142.5,-55 142.5,-74"/>
<text text-anchor="middle" x="114.5" y="-62" font-family="Helvetica,sans-Serif" font-size="10.00">gs&#45;job.h</text>
</a>
</g>
</g>
<!-- Node2 -->
<g id="Node000002" class="node">
<title>Node2</title>
<g id="a_Node000002"><a xlink:href="gs-job_8c.html" target="_top" xlink:title=" ">
<polygon fill="white" stroke="#666666" points="55,-19 0,-19 0,0 55,0 55,-19"/>
<text text-anchor="middle" x="27.5" y="-7" font-family="Helvetica,sans-Serif" font-size="10.00">gs&#45;job.c</text>
</a>
</g>
</g>
<!-- Node1&#45;&gt;Node2 -->
<g id="edge1_Node000001_Node000002" class="edge">
<title>Node1&#45;&gt;Node2</title>
<g id="a_edge1_Node000001_Node000002"><a xlink:title=" ">
<path fill="none" stroke="#63b8ff" d="M91.84,-49.7C75.99,-40.04 55.31,-27.44 41.73,-19.17"/>
<polygon fill="#63b8ff" stroke="#63b8ff" points="90.16,-52.77 100.52,-54.98 93.8,-46.79 90.16,-52.77"/>
</a>
</g>
</g>
<!-- Node3 -->
<g id="Node000003" class="node">
<title>Node3</title>
<g id="a_Node000003"><a xlink:href="gs-manager_8c.html" target="_top" xlink:title=" ">
<polygon fill="white" stroke="#666666" points="156,-19 73,-19 73,0 156,0 156,-19"/>
<text text-anchor="middle" x="114.5" y="-7" font-family="Helvetica,sans-Serif" font-size="10.00">gs&#45;manager.c</text>
</a>
</g>
</g>
<!-- Node1&#45;&gt;Node3 -->
<g id="edge2_Node000001_Node000003" class="edge">
<title>Node1&#45;&gt;Node3</title>
<g id="a_edge2_Node000001_Node000003"><a xlink:title=" ">
<path fill="none" stroke="#63b8ff" d="M114.5,-44.66C114.5,-35.93 114.5,-25.99 114.5,-19.09"/>
<polygon fill="#63b8ff" stroke="#63b8ff" points="111,-44.75 114.5,-54.75 118,-44.75 111,-44.75"/>
</a>
</g>
</g>
<!-- Node4 -->
<g id="Node000004" class="node">
<title>Node4</title>
<g id="a_Node000004"><a xlink:href="mate-screensaver-preferences_8c.html" target="_top" xlink:title=" ">
<polygon fill="white" stroke="#666666" points="349,-19 174,-19 174,0 349,0 349,-19"/>
<text text-anchor="middle" x="261.5" y="-7" font-family="Helvetica,sans-Serif" font-size="10.00">mate&#45;screensaver&#45;preferences.c</text>
</a>
</g>
</g>
<!-- Node1&#45;&gt;Node4 -->
<g id="edge3_Node000001_Node000004" class="edge">
<title>Node1&#45;&gt;Node4</title>
<g id="a_edge3_Node000001_Node000004"><a xlink:title=" ">
<path fill="none" stroke="#63b8ff" d="M147.64,-51.55C174.94,-41.71 213,-27.98 237.45,-19.17"/>
<polygon fill="#63b8ff" stroke="#63b8ff" points="146.34,-48.3 138.12,-54.98 148.71,-54.89 146.34,-48.3"/>
</a>
</g>
</g>
</g>
</svg>
