<?xml version="1.0" encoding="UTF-8" standalone="no"?>
<!DOCTYPE svg PUBLIC "-//W3C//DTD SVG 1.1//EN"
 "http://www.w3.org/Graphics/SVG/1.1/DTD/svg11.dtd">
<!-- Generated by graphviz version 2.43.0 (0)
 -->
<!-- Title: gsearchtool&#45;callbacks.h Pages: 1 -->
<svg width="380pt" height="82pt"
 viewBox="0.00 0.00 379.50 82.00" xmlns="http://www.w3.org/2000/svg" xmlns:xlink="http://www.w3.org/1999/xlink">
<g id="graph0" class="graph" transform="scale(1 1) rotate(0) translate(4 78)">
<title>gsearchtool&#45;callbacks.h</title>
<!-- Node1 -->
<g id="Node000001" class="node">
<title>Node1</title>
<g id="a_Node000001"><a xlink:title=" ">
<polygon fill="#999999" stroke="#666666" points="276.5,-74 144.5,-74 144.5,-55 276.5,-55 276.5,-74"/>
<text text-anchor="middle" x="210.5" y="-62" font-family="Helvetica,sans-Serif" font-size="10.00">gsearchtool&#45;callbacks.h</text>
</a>
</g>
</g>
<!-- Node2 -->
<g id="Node000002" class="node">
<title>Node2</title>
<g id="a_Node000002"><a xlink:href="gsearchtool-callbacks_8c.html" target="_top" xlink:title=" ">
<polygon fill="white" stroke="#666666" points="131,-19 0,-19 0,0 131,0 131,-19"/>
<text text-anchor="middle" x="65.5" y="-7" font-family="Helvetica,sans-Serif" font-size="10.00">gsearchtool&#45;callbacks.c</text>
</a>
</g>
</g>
<!-- Node1&#45;&gt;Node2 -->
<g id="edge1_Node000001_Node000002" class="edge">
<title>Node1&#45;&gt;Node2</title>
<g id="a_edge1_Node000001_Node000002"><a xlink:title=" ">
<path fill="none" stroke="#63b8ff" d="M177.81,-51.55C150.88,-41.71 113.34,-27.98 89.22,-19.17"/>
<polygon fill="#63b8ff" stroke="#63b8ff" points="176.61,-54.84 187.2,-54.98 179.01,-48.26 176.61,-54.84"/>
</a>
</g>
</g>
<!-- Node3 -->
<g id="Node000003" class="node">
<title>Node3</title>
<g id="a_Node000003"><a xlink:href="gsearchtool-support_8c.html" target="_top" xlink:title=" ">
<polygon fill="white" stroke="#666666" points="271.5,-19 149.5,-19 149.5,0 271.5,0 271.5,-19"/>
<text text-anchor="middle" x="210.5" y="-7" font-family="Helvetica,sans-Serif" font-size="10.00">gsearchtool&#45;support.c</text>
</a>
</g>
</g>
<!-- Node1&#45;&gt;Node3 -->
<g id="edge2_Node000001_Node000003" class="edge">
<title>Node1&#45;&gt;Node3</title>
<g id="a_edge2_Node000001_Node000003"><a xlink:title=" ">
<path fill="none" stroke="#63b8ff" d="M210.5,-44.66C210.5,-35.93 210.5,-25.99 210.5,-19.09"/>
<polygon fill="#63b8ff" stroke="#63b8ff" points="207,-44.75 210.5,-54.75 214,-44.75 207,-44.75"/>
</a>
</g>
</g>
<!-- Node4 -->
<g id="Node000004" class="node">
<title>Node4</title>
<g id="a_Node000004"><a xlink:href="gsearchtool_8c.html" target="_top" xlink:title=" ">
<polygon fill="white" stroke="#666666" points="371.5,-19 289.5,-19 289.5,0 371.5,0 371.5,-19"/>
<text text-anchor="middle" x="330.5" y="-7" font-family="Helvetica,sans-Serif" font-size="10.00">gsearchtool.c</text>
</a>
</g>
</g>
<!-- Node1&#45;&gt;Node4 -->
<g id="edge3_Node000001_Node000004" class="edge">
<title>Node1&#45;&gt;Node4</title>
<g id="a_edge3_Node000001_Node000004"><a xlink:title=" ">
<path fill="none" stroke="#63b8ff" d="M239.03,-50.9C261.2,-41.11 291.35,-27.79 310.87,-19.17"/>
<polygon fill="#63b8ff" stroke="#63b8ff" points="237.51,-47.74 229.78,-54.98 240.34,-54.15 237.51,-47.74"/>
</a>
</g>
</g>
</g>
</svg>
