<?xml version="1.0" encoding="UTF-8" standalone="no"?>
<!DOCTYPE svg PUBLIC "-//W3C//DTD SVG 1.1//EN"
 "http://www.w3.org/Graphics/SVG/1.1/DTD/svg11.dtd">
<!-- Generated by graphviz version 2.43.0 (0)
 -->
<!-- Title: gsm&#45;app&#45;dialog.h Pages: 1 -->
<svg width="343pt" height="82pt"
 viewBox="0.00 0.00 342.50 82.00" xmlns="http://www.w3.org/2000/svg" xmlns:xlink="http://www.w3.org/1999/xlink">
<g id="graph0" class="graph" transform="scale(1 1) rotate(0) translate(4 78)">
<title>gsm&#45;app&#45;dialog.h</title>
<!-- Node1 -->
<g id="Node000001" class="node">
<title>Node1</title>
<g id="a_Node000001"><a xlink:title=" ">
<polygon fill="#999999" stroke="#666666" points="236.5,-74 134.5,-74 134.5,-55 236.5,-55 236.5,-74"/>
<text text-anchor="middle" x="185.5" y="-62" font-family="Helvetica,sans-Serif" font-size="10.00">gsm&#45;app&#45;dialog.h</text>
</a>
</g>
</g>
<!-- Node2 -->
<g id="Node000002" class="node">
<title>Node2</title>
<g id="a_Node000002"><a xlink:href="gsm-app-dialog_8c.html" target="_top" xlink:title=" ">
<polygon fill="white" stroke="#666666" points="101,-19 0,-19 0,0 101,0 101,-19"/>
<text text-anchor="middle" x="50.5" y="-7" font-family="Helvetica,sans-Serif" font-size="10.00">gsm&#45;app&#45;dialog.c</text>
</a>
</g>
</g>
<!-- Node1&#45;&gt;Node2 -->
<g id="edge1_Node000001_Node000002" class="edge">
<title>Node1&#45;&gt;Node2</title>
<g id="a_edge1_Node000001_Node000002"><a xlink:title=" ">
<path fill="none" stroke="#63b8ff" d="M154.4,-51.29C129.38,-41.47 94.84,-27.91 72.58,-19.17"/>
<polygon fill="#63b8ff" stroke="#63b8ff" points="153.22,-54.59 163.81,-54.98 155.78,-48.07 153.22,-54.59"/>
</a>
</g>
</g>
<!-- Node3 -->
<g id="Node000003" class="node">
<title>Node3</title>
<g id="a_Node000003"><a xlink:href="gsm-properties-dialog_8c.html" target="_top" xlink:title=" ">
<polygon fill="white" stroke="#666666" points="252,-19 119,-19 119,0 252,0 252,-19"/>
<text text-anchor="middle" x="185.5" y="-7" font-family="Helvetica,sans-Serif" font-size="10.00">gsm&#45;properties&#45;dialog.c</text>
</a>
</g>
</g>
<!-- Node1&#45;&gt;Node3 -->
<g id="edge2_Node000001_Node000003" class="edge">
<title>Node1&#45;&gt;Node3</title>
<g id="a_edge2_Node000001_Node000003"><a xlink:title=" ">
<path fill="none" stroke="#63b8ff" d="M185.5,-44.66C185.5,-35.93 185.5,-25.99 185.5,-19.09"/>
<polygon fill="#63b8ff" stroke="#63b8ff" points="182,-44.75 185.5,-54.75 189,-44.75 182,-44.75"/>
</a>
</g>
</g>
<!-- Node4 -->
<g id="Node000004" class="node">
<title>Node4</title>
<g id="a_Node000004"><a xlink:href="gsp-app_8c.html" target="_top" xlink:title=" ">
<polygon fill="white" stroke="#666666" points="334.5,-19 270.5,-19 270.5,0 334.5,0 334.5,-19"/>
<text text-anchor="middle" x="302.5" y="-7" font-family="Helvetica,sans-Serif" font-size="10.00">gsp&#45;app.c</text>
</a>
</g>
</g>
<!-- Node1&#45;&gt;Node4 -->
<g id="edge3_Node000001_Node000004" class="edge">
<title>Node1&#45;&gt;Node4</title>
<g id="a_edge3_Node000001_Node000004"><a xlink:title=" ">
<path fill="none" stroke="#63b8ff" d="M213.61,-50.77C235.19,-40.99 264.41,-27.75 283.36,-19.17"/>
<polygon fill="#63b8ff" stroke="#63b8ff" points="211.96,-47.67 204.3,-54.98 214.85,-54.05 211.96,-47.67"/>
</a>
</g>
</g>
</g>
</svg>
