<?xml version="1.0" encoding="UTF-8" standalone="no"?>
<!DOCTYPE svg PUBLIC "-//W3C//DTD SVG 1.1//EN"
 "http://www.w3.org/Graphics/SVG/1.1/DTD/svg11.dtd">
<!-- Generated by graphviz version 2.43.0 (0)
 -->
<!-- Title: gsm_color_button.h Pages: 1 -->
<!--zoomable 137 -->

<svg id="main" version="1.1" xmlns="http://www.w3.org/2000/svg" xmlns:xlink="http://www.w3.org/1999/xlink" xml:space="preserve" onload="init(evt)">
<style type="text/css"><![CDATA[
.node, .edge {opacity: 0.7;}
.node.selected, .edge.selected {opacity: 1;}
.edge:hover path { stroke: red; }
.edge:hover polygon { stroke: red; fill: red; }
]]></style>

<defs>
  <circle id="rim" cx="0" cy="0" r="7"/>
  <circle id="rim2" cx="0" cy="0" r="3.5"/>
  <g id="zoomPlus">
    <use xlink:href="#rim" fill="#404040"><set attributeName="fill" to="#808080" begin="zoomplus.mouseover" end="zoomplus.mouseout"/></use>
    <path d="M-4,0h8M0,-4v8" fill="none" stroke="white" stroke-width="1.5" pointer-events="none"/>
  </g>
  <g id="zoomMin">
    <use xlink:href="#rim" fill="#404040"><set attributeName="fill" to="#808080" begin="zoomminus.mouseover" end="zoomminus.mouseout"/></use>
    <path d="M-4,0h8" fill="none" stroke="white" stroke-width="1.5" pointer-events="none"/>
  </g>
  <g id="arrowUp" transform="translate(30 24)">
    <use xlink:href="#rim"/>
    <path pointer-events="none" fill="none" stroke="white" stroke-width="1.5" d="M0,-3.0v7 M-2.5,-0.5L0,-3.0L2.5,-0.5"/>
  </g>
  <g id="arrowRight" transform="rotate(90) translate(36 -43)">
    <use xlink:href="#rim"/>
    <path pointer-events="none" fill="none" stroke="white" stroke-width="1.5" d="M0,-3.0v7 M-2.5,-0.5L0,-3.0L2.5,-0.5"/>
  </g>
  <g id="arrowDown" transform="rotate(180) translate(-30 -48)">
    <use xlink:href="#rim"/>
    <path pointer-events="none" fill="none" stroke="white" stroke-width="1.5" d="M0,-3.0v7 M-2.5,-0.5L0,-3.0L2.5,-0.5"/>
  </g>
  <g id="arrowLeft" transform="rotate(270) translate(-36 17)">
    <use xlink:href="#rim"/>
    <path pointer-events="none" fill="none" stroke="white" stroke-width="1.5" d="M0,-3.0v7 M-2.5,-0.5L0,-3.0L2.5,-0.5"/>
  </g>
  <g id="resetDef">
    <use xlink:href="#rim2" fill="#404040"><set attributeName="fill" to="#808080" begin="reset.mouseover" end="reset.mouseout"/></use>
  </g>
</defs>
<script type="application/ecmascript">
var viewWidth = 632;
var viewHeight = 137;
var sectionId = 'dynsection-1';
</script>
<script type="application/ecmascript" xlink:href="svg.min.js"/>
<svg id="graph" class="graph">
<g id="viewport">
<title>gsm_color_button.h</title>
<!-- Node1 -->
<g id="Node000001" class="node">
<title>Node1</title>
<g id="a_Node000001"><a xlink:title=" ">
<polygon fill="#999999" stroke="#666666" points="357.5,-129 244.5,-129 244.5,-110 357.5,-110 357.5,-129"/>
<text text-anchor="middle" x="301" y="-117" font-family="Helvetica,sans-Serif" font-size="10.00">gsm_color_button.h</text>
</a>
</g>
</g>
<!-- Node2 -->
<g id="Node000002" class="node">
<title>Node2</title>
<g id="a_Node000002"><a xlink:href="mate-system-monitor_2src_2callbacks_8h.html" target="_top" xlink:title=" ">
<polygon fill="white" stroke="#666666" points="281.5,-74 210.5,-74 210.5,-55 281.5,-55 281.5,-74"/>
<text text-anchor="middle" x="246" y="-62" font-family="Helvetica,sans-Serif" font-size="10.00">callbacks.h</text>
</a>
</g>
</g>
<!-- Node1&#45;&gt;Node2 -->
<g id="edge1_Node000001_Node000002" class="edge">
<title>Node1&#45;&gt;Node2</title>
<g id="a_edge1_Node000001_Node000002"><a xlink:title=" ">
<path fill="none" stroke="#63b8ff" d="M284.71,-102.8C274.96,-93.41 262.95,-81.83 254.91,-74.09"/>
<polygon fill="#63b8ff" stroke="#63b8ff" points="282.29,-105.33 291.92,-109.75 287.15,-100.29 282.29,-105.33"/>
</a>
</g>
</g>
<!-- Node4 -->
<g id="Node000004" class="node">
<title>Node4</title>
<g id="a_Node000004"><a xlink:href="interface_8cpp.html" target="_top" xlink:title=" ">
<polygon fill="white" stroke="#666666" points="80,-19 0,-19 0,0 80,0 80,-19"/>
<text text-anchor="middle" x="40" y="-7" font-family="Helvetica,sans-Serif" font-size="10.00">interface.cpp</text>
</a>
</g>
</g>
<!-- Node1&#45;&gt;Node4 -->
<g id="edge9_Node000001_Node000004" class="edge">
<title>Node1&#45;&gt;Node4</title>
<g id="a_edge9_Node000001_Node000004"><a xlink:title=" ">
<path fill="none" stroke="#63b8ff" d="M270.75,-105.98C217.08,-83.77 106.53,-38.03 60.65,-19.05"/>
<polygon fill="#63b8ff" stroke="#63b8ff" points="269.5,-109.25 280.08,-109.84 272.18,-102.79 269.5,-109.25"/>
</a>
</g>
</g>
<!-- Node9 -->
<g id="Node000009" class="node">
<title>Node9</title>
<g id="a_Node000009"><a xlink:href="gsm__color__button_8c.html" target="_top" xlink:title=" ">
<polygon fill="white" stroke="#666666" points="412,-74 300,-74 300,-55 412,-55 412,-74"/>
<text text-anchor="middle" x="356" y="-62" font-family="Helvetica,sans-Serif" font-size="10.00">gsm_color_button.c</text>
</a>
</g>
</g>
<!-- Node1&#45;&gt;Node9 -->
<g id="edge8_Node000001_Node000009" class="edge">
<title>Node1&#45;&gt;Node9</title>
<g id="a_edge8_Node000001_Node000009"><a xlink:title=" ">
<path fill="none" stroke="#63b8ff" d="M317.29,-102.8C327.04,-93.41 339.05,-81.83 347.09,-74.09"/>
<polygon fill="#63b8ff" stroke="#63b8ff" points="314.85,-100.29 310.08,-109.75 319.71,-105.33 314.85,-100.29"/>
</a>
</g>
</g>
<!-- Node10 -->
<g id="Node000010" class="node">
<title>Node10</title>
<g id="a_Node000010"><a xlink:href="load-graph_8cpp.html" target="_top" xlink:title=" ">
<polygon fill="white" stroke="#666666" points="519.5,-74 430.5,-74 430.5,-55 519.5,-55 519.5,-74"/>
<text text-anchor="middle" x="475" y="-62" font-family="Helvetica,sans-Serif" font-size="10.00">load&#45;graph.cpp</text>
</a>
</g>
</g>
<!-- Node1&#45;&gt;Node10 -->
<g id="edge10_Node000001_Node000010" class="edge">
<title>Node1&#45;&gt;Node10</title>
<g id="a_edge10_Node000001_Node000010"><a xlink:title=" ">
<path fill="none" stroke="#63b8ff" d="M338.57,-107.06C371.09,-97.15 417.4,-83.04 446.82,-74.08"/>
<polygon fill="#63b8ff" stroke="#63b8ff" points="337.5,-103.72 328.96,-109.98 339.54,-110.42 337.5,-103.72"/>
</a>
</g>
</g>
<!-- Node3 -->
<g id="Node000003" class="node">
<title>Node3</title>
<g id="a_Node000003"><a xlink:href="callbacks_8cpp.html" target="_top" xlink:title=" ">
<polygon fill="white" stroke="#666666" points="181.5,-19 98.5,-19 98.5,0 181.5,0 181.5,-19"/>
<text text-anchor="middle" x="140" y="-7" font-family="Helvetica,sans-Serif" font-size="10.00">callbacks.cpp</text>
</a>
</g>
</g>
<!-- Node2&#45;&gt;Node3 -->
<g id="edge2_Node000002_Node000003" class="edge">
<title>Node2&#45;&gt;Node3</title>
<g id="a_edge2_Node000002_Node000003"><a xlink:title=" ">
<path fill="none" stroke="#63b8ff" d="M220,-50.5C200.5,-40.75 174.35,-27.68 157.34,-19.17"/>
<polygon fill="#63b8ff" stroke="#63b8ff" points="218.46,-53.64 228.97,-54.98 221.59,-47.38 218.46,-53.64"/>
</a>
</g>
</g>
<!-- Node2&#45;&gt;Node4 -->
<g id="edge3_Node000002_Node000004" class="edge">
<title>Node2&#45;&gt;Node4</title>
<g id="a_edge3_Node000002_Node000004"><a xlink:title=" ">
<path fill="none" stroke="#63b8ff" d="M203,-52.44C164.44,-42.52 108.64,-28.16 73.36,-19.08"/>
<polygon fill="#63b8ff" stroke="#63b8ff" points="202.35,-55.88 212.9,-54.98 204.09,-49.1 202.35,-55.88"/>
</a>
</g>
</g>
<!-- Node5 -->
<g id="Node000005" class="node">
<title>Node5</title>
<g id="a_Node000005"><a xlink:href="procactions_8cpp.html" target="_top" xlink:title=" ">
<polygon fill="white" stroke="#666666" points="292.5,-19 199.5,-19 199.5,0 292.5,0 292.5,-19"/>
<text text-anchor="middle" x="246" y="-7" font-family="Helvetica,sans-Serif" font-size="10.00">procactions.cpp</text>
</a>
</g>
</g>
<!-- Node2&#45;&gt;Node5 -->
<g id="edge4_Node000002_Node000005" class="edge">
<title>Node2&#45;&gt;Node5</title>
<g id="a_edge4_Node000002_Node000005"><a xlink:title=" ">
<path fill="none" stroke="#63b8ff" d="M246,-44.66C246,-35.93 246,-25.99 246,-19.09"/>
<polygon fill="#63b8ff" stroke="#63b8ff" points="242.5,-44.75 246,-54.75 249.5,-44.75 242.5,-44.75"/>
</a>
</g>
</g>
<!-- Node6 -->
<g id="Node000006" class="node">
<title>Node6</title>
<g id="a_Node000006"><a xlink:href="procdialogs_8cpp.html" target="_top" xlink:title=" ">
<polygon fill="white" stroke="#666666" points="403.5,-19 310.5,-19 310.5,0 403.5,0 403.5,-19"/>
<text text-anchor="middle" x="357" y="-7" font-family="Helvetica,sans-Serif" font-size="10.00">procdialogs.cpp</text>
</a>
</g>
</g>
<!-- Node2&#45;&gt;Node6 -->
<g id="edge5_Node000002_Node000006" class="edge">
<title>Node2&#45;&gt;Node6</title>
<g id="a_edge5_Node000002_Node000006"><a xlink:title=" ">
<path fill="none" stroke="#63b8ff" d="M272.95,-50.63C293.39,-40.87 320.95,-27.71 338.84,-19.17"/>
<polygon fill="#63b8ff" stroke="#63b8ff" points="271.35,-47.52 263.83,-54.98 274.37,-53.83 271.35,-47.52"/>
</a>
</g>
</g>
<!-- Node7 -->
<g id="Node000007" class="node">
<title>Node7</title>
<g id="a_Node000007"><a xlink:href="procman-app_8cpp.html" target="_top" xlink:title=" ">
<polygon fill="white" stroke="#666666" points="522.5,-19 421.5,-19 421.5,0 522.5,0 522.5,-19"/>
<text text-anchor="middle" x="472" y="-7" font-family="Helvetica,sans-Serif" font-size="10.00">procman&#45;app.cpp</text>
</a>
</g>
</g>
<!-- Node2&#45;&gt;Node7 -->
<g id="edge6_Node000002_Node000007" class="edge">
<title>Node2&#45;&gt;Node7</title>
<g id="a_edge6_Node000002_Node000007"><a xlink:title=" ">
<path fill="none" stroke="#63b8ff" d="M291.35,-52.87C333.75,-42.92 396.26,-28.26 435.52,-19.05"/>
<polygon fill="#63b8ff" stroke="#63b8ff" points="290.5,-49.47 281.56,-55.16 292.1,-56.28 290.5,-49.47"/>
</a>
</g>
</g>
<!-- Node8 -->
<g id="Node000008" class="node">
<title>Node8</title>
<g id="a_Node000008"><a xlink:href="proctable_8cpp.html" target="_top" xlink:title=" ">
<polygon fill="white" stroke="#666666" points="623.5,-19 540.5,-19 540.5,0 623.5,0 623.5,-19"/>
<text text-anchor="middle" x="582" y="-7" font-family="Helvetica,sans-Serif" font-size="10.00">proctable.cpp</text>
</a>
</g>
</g>
<!-- Node2&#45;&gt;Node8 -->
<g id="edge7_Node000002_Node000008" class="edge">
<title>Node2&#45;&gt;Node8</title>
<g id="a_edge7_Node000002_Node000008"><a xlink:title=" ">
<path fill="none" stroke="#63b8ff" d="M291.81,-54.92C399.45,-36.88 428.19,-35.58 532,-19 534.7,-18.57 537.47,-18.12 540.27,-17.66"/>
<polygon fill="#63b8ff" stroke="#63b8ff" points="291.12,-51.49 281.84,-56.6 292.28,-58.39 291.12,-51.49"/>
</a>
</g>
</g>
</g>
</svg>

<g id="navigator" transform="translate(0 0)" fill="#404254">
  <rect fill="#f2f5e9" fill-opacity="0.5" stroke="#606060" stroke-width=".5" x="0" y="0" width="60" height="60"/>
  <use id="zoomplus" xlink:href="#zoomPlus" x="17" y="9" onmousedown="handleZoom(evt,'in')"/>
  <use id="zoomminus" xlink:href="#zoomMin" x="42" y="9" onmousedown="handleZoom(evt,'out')"/>
  <use id="reset" xlink:href="#resetDef" x="30" y="36" onmousedown="handleReset()"/>
   <use id="arrowup" xlink:href="#arrowUp" x="0" y="0" onmousedown="handlePan(0,-1)"/>
  <use id="arrowright" xlink:href="#arrowRight" x="0" y="0" onmousedown="handlePan(1,0)"/>
  <use id="arrowdown" xlink:href="#arrowDown" x="0" y="0" onmousedown="handlePan(0,1)"/>
  <use id="arrowleft" xlink:href="#arrowLeft" x="0" y="0" onmousedown="handlePan(-1,0)"/>
</g>
<svg viewBox="0 0 15 15" width="100%" height="30px" preserveAspectRatio="xMaxYMin meet">
 <g id="arrow_out" transform="scale(0.3 0.3)">
  <a xlink:href="gsm__color__button_8h__dep__incl_org.svg" target="_base">
   <rect id="button" ry="5" rx="5" y="6" x="6" height="38" width="38"
        fill="#f2f5e9" fill-opacity="0.5" stroke="#606060" stroke-width="1.0"/>
   <path id="arrow"
     d="M 11.500037,31.436501 C 11.940474,20.09759 22.043105,11.32322 32.158766,21.979434 L 37.068811,17.246167 C 37.068811,17.246167 37.088388,32 37.088388,32 L 22.160133,31.978069 C 22.160133,31.978069 26.997745,27.140456 26.997745,27.140456 C 18.528582,18.264221 13.291696,25.230495 11.500037,31.436501 z"
     style="fill:#404040;"/>
  </a>
 </g>
</svg>

<style type='text/css'>
<![CDATA[
[data-mouse-over-selected='false'] { opacity: 0.7; }
[data-mouse-over-selected='true']  { opacity: 1.0; }
]]>
</style>
<script type="application/ecmascript"><![CDATA[
document.addEventListener('DOMContentLoaded', (event) => {
  highlightEdges();
  highlightAdjacentNodes();
});
]]></script>
</svg>
