<?xml version="1.0" encoding="UTF-8" standalone="no"?>
<!DOCTYPE svg PUBLIC "-//W3C//DTD SVG 1.1//EN"
 "http://www.w3.org/Graphics/SVG/1.1/DTD/svg11.dtd">
<!-- Generated by graphviz version 2.43.0 (0)
 -->
<!-- Title: gsp&#45;app&#45;manager.c Pages: 1 -->
<svg width="313pt" height="192pt"
 viewBox="0.00 0.00 313.00 192.00" xmlns="http://www.w3.org/2000/svg" xmlns:xlink="http://www.w3.org/1999/xlink">
<g id="graph0" class="graph" transform="scale(1 1) rotate(0) translate(4 188)">
<title>gsp&#45;app&#45;manager.c</title>
<!-- Node1 -->
<g id="Node000001" class="node">
<title>Node1</title>
<g id="a_Node000001"><a xlink:title=" ">
<polygon fill="#999999" stroke="#666666" points="189.5,-184 79.5,-184 79.5,-165 189.5,-165 189.5,-184"/>
<text text-anchor="middle" x="134.5" y="-172" font-family="Helvetica,sans-Serif" font-size="10.00">gsp&#45;app&#45;manager.c</text>
</a>
</g>
</g>
<!-- Node2 -->
<g id="Node000002" class="node">
<title>Node2</title>
<g id="a_Node000002"><a xlink:title=" ">
<polygon fill="#e0e0e0" stroke="#999999" points="53,-129 0,-129 0,-110 53,-110 53,-129"/>
<text text-anchor="middle" x="26.5" y="-117" font-family="Helvetica,sans-Serif" font-size="10.00">string.h</text>
</a>
</g>
</g>
<!-- Node1&#45;&gt;Node2 -->
<g id="edge1_Node000001_Node000002" class="edge">
<title>Node1&#45;&gt;Node2</title>
<g id="a_edge1_Node000001_Node000002"><a xlink:title=" ">
<path fill="none" stroke="#63b8ff" d="M117.15,-164.98C99.93,-156.54 73.3,-143.47 53.35,-133.68"/>
<polygon fill="#63b8ff" stroke="#63b8ff" points="54.69,-130.43 44.17,-129.17 51.6,-136.72 54.69,-130.43"/>
</a>
</g>
</g>
<!-- Node3 -->
<g id="Node000003" class="node">
<title>Node3</title>
<g id="a_Node000003"><a xlink:href="gsm-util_8h.html" target="_top" xlink:title=" ">
<polygon fill="white" stroke="#666666" points="137.5,-129 71.5,-129 71.5,-110 137.5,-110 137.5,-129"/>
<text text-anchor="middle" x="104.5" y="-117" font-family="Helvetica,sans-Serif" font-size="10.00">gsm&#45;util.h</text>
</a>
</g>
</g>
<!-- Node1&#45;&gt;Node3 -->
<g id="edge2_Node000001_Node000003" class="edge">
<title>Node1&#45;&gt;Node3</title>
<g id="a_edge2_Node000001_Node000003"><a xlink:title=" ">
<path fill="none" stroke="#63b8ff" d="M129.55,-164.75C125.44,-157.49 119.47,-146.95 114.4,-137.98"/>
<polygon fill="#63b8ff" stroke="#63b8ff" points="117.33,-136.07 109.36,-129.09 111.24,-139.52 117.33,-136.07"/>
</a>
</g>
</g>
<!-- Node6 -->
<g id="Node000006" class="node">
<title>Node6</title>
<g id="a_Node000006"><a xlink:href="gsp-app_8h.html" target="_top" xlink:title=" ">
<polygon fill="white" stroke="#666666" points="220,-74 155,-74 155,-55 220,-55 220,-74"/>
<text text-anchor="middle" x="187.5" y="-62" font-family="Helvetica,sans-Serif" font-size="10.00">gsp&#45;app.h</text>
</a>
</g>
</g>
<!-- Node1&#45;&gt;Node6 -->
<g id="edge5_Node000001_Node000006" class="edge">
<title>Node1&#45;&gt;Node6</title>
<g id="a_edge5_Node000001_Node000006"><a xlink:title=" ">
<path fill="none" stroke="#63b8ff" d="M138.84,-164.66C147.54,-146.93 167.27,-106.73 178.76,-83.32"/>
<polygon fill="#63b8ff" stroke="#63b8ff" points="181.99,-84.68 183.25,-74.16 175.7,-81.59 181.99,-84.68"/>
</a>
</g>
</g>
<!-- Node9 -->
<g id="Node000009" class="node">
<title>Node9</title>
<g id="a_Node000009"><a xlink:href="gsp-app-manager_8h.html" target="_top" xlink:title=" ">
<polygon fill="white" stroke="#666666" points="305,-129 194,-129 194,-110 305,-110 305,-129"/>
<text text-anchor="middle" x="249.5" y="-117" font-family="Helvetica,sans-Serif" font-size="10.00">gsp&#45;app&#45;manager.h</text>
</a>
</g>
</g>
<!-- Node1&#45;&gt;Node9 -->
<g id="edge8_Node000001_Node000009" class="edge">
<title>Node1&#45;&gt;Node9</title>
<g id="a_edge8_Node000001_Node000009"><a xlink:title=" ">
<path fill="none" stroke="#63b8ff" d="M152.98,-164.98C171.48,-156.46 200.18,-143.23 221.48,-133.41"/>
<polygon fill="#63b8ff" stroke="#63b8ff" points="223.07,-136.53 230.69,-129.17 220.14,-130.18 223.07,-136.53"/>
</a>
</g>
</g>
<!-- Node4 -->
<g id="Node000004" class="node">
<title>Node4</title>
<g id="a_Node000004"><a xlink:title=" ">
<polygon fill="#e0e0e0" stroke="#999999" points="57.5,-74 13.5,-74 13.5,-55 57.5,-55 57.5,-74"/>
<text text-anchor="middle" x="35.5" y="-62" font-family="Helvetica,sans-Serif" font-size="10.00">glib.h</text>
</a>
</g>
</g>
<!-- Node3&#45;&gt;Node4 -->
<g id="edge3_Node000003_Node000004" class="edge">
<title>Node3&#45;&gt;Node4</title>
<g id="a_edge3_Node000003_Node000004"><a xlink:title=" ">
<path fill="none" stroke="#63b8ff" d="M93.41,-109.98C83.01,-102 67.24,-89.88 54.78,-80.31"/>
<polygon fill="#63b8ff" stroke="#63b8ff" points="56.85,-77.49 46.79,-74.17 52.59,-83.04 56.85,-77.49"/>
</a>
</g>
</g>
<!-- Node5 -->
<g id="Node000005" class="node">
<title>Node5</title>
<g id="a_Node000005"><a xlink:title=" ">
<polygon fill="#e0e0e0" stroke="#999999" points="135.5,-74 75.5,-74 75.5,-55 135.5,-55 135.5,-74"/>
<text text-anchor="middle" x="105.5" y="-62" font-family="Helvetica,sans-Serif" font-size="10.00">gtk/gtk.h</text>
</a>
</g>
</g>
<!-- Node3&#45;&gt;Node5 -->
<g id="edge4_Node000003_Node000005" class="edge">
<title>Node3&#45;&gt;Node5</title>
<g id="a_edge4_Node000003_Node000005"><a xlink:title=" ">
<path fill="none" stroke="#63b8ff" d="M104.67,-109.75C104.8,-102.8 104.98,-92.85 105.15,-84.13"/>
<polygon fill="#63b8ff" stroke="#63b8ff" points="108.65,-84.15 105.34,-74.09 101.65,-84.02 108.65,-84.15"/>
</a>
</g>
</g>
<!-- Node7 -->
<g id="Node000007" class="node">
<title>Node7</title>
<g id="a_Node000007"><a xlink:title=" ">
<polygon fill="#e0e0e0" stroke="#999999" points="288,-19 211,-19 211,0 288,0 288,-19"/>
<text text-anchor="middle" x="249.5" y="-7" font-family="Helvetica,sans-Serif" font-size="10.00">glib&#45;object.h</text>
</a>
</g>
</g>
<!-- Node6&#45;&gt;Node7 -->
<g id="edge6_Node000006_Node000007" class="edge">
<title>Node6&#45;&gt;Node7</title>
<g id="a_edge6_Node000006_Node000007"><a xlink:title=" ">
<path fill="none" stroke="#63b8ff" d="M197.46,-54.98C206.63,-47.15 220.44,-35.34 231.53,-25.86"/>
<polygon fill="#63b8ff" stroke="#63b8ff" points="234.03,-28.33 239.36,-19.17 229.48,-23.01 234.03,-28.33"/>
</a>
</g>
</g>
<!-- Node8 -->
<g id="Node000008" class="node">
<title>Node8</title>
<g id="a_Node000008"><a xlink:title=" ">
<polygon fill="#e0e0e0" stroke="#999999" points="193,-19 134,-19 134,0 193,0 193,-19"/>
<text text-anchor="middle" x="163.5" y="-7" font-family="Helvetica,sans-Serif" font-size="10.00">gio/gio.h</text>
</a>
</g>
</g>
<!-- Node6&#45;&gt;Node8 -->
<g id="edge7_Node000006_Node000008" class="edge">
<title>Node6&#45;&gt;Node8</title>
<g id="a_edge7_Node000006_Node000008"><a xlink:title=" ">
<path fill="none" stroke="#63b8ff" d="M183.54,-54.75C180.29,-47.57 175.58,-37.18 171.55,-28.27"/>
<polygon fill="#63b8ff" stroke="#63b8ff" points="174.7,-26.75 167.39,-19.09 168.33,-29.64 174.7,-26.75"/>
</a>
</g>
</g>
<!-- Node9&#45;&gt;Node6 -->
<g id="edge10_Node000009_Node000006" class="edge">
<title>Node9&#45;&gt;Node6</title>
<g id="a_edge10_Node000009_Node000006"><a xlink:title=" ">
<path fill="none" stroke="#63b8ff" d="M239.54,-109.98C230.37,-102.15 216.56,-90.34 205.47,-80.86"/>
<polygon fill="#63b8ff" stroke="#63b8ff" points="207.52,-78.01 197.64,-74.17 202.97,-83.33 207.52,-78.01"/>
</a>
</g>
</g>
<!-- Node9&#45;&gt;Node7 -->
<g id="edge9_Node000009_Node000007" class="edge">
<title>Node9&#45;&gt;Node7</title>
<g id="a_edge9_Node000009_Node000007"><a xlink:title=" ">
<path fill="none" stroke="#63b8ff" d="M249.5,-109.66C249.5,-92.17 249.5,-52.8 249.5,-29.27"/>
<polygon fill="#63b8ff" stroke="#63b8ff" points="253,-29.16 249.5,-19.16 246,-29.16 253,-29.16"/>
</a>
</g>
</g>
</g>
</svg>
