<?xml version="1.0" encoding="UTF-8" standalone="no"?>
<!DOCTYPE svg PUBLIC "-//W3C//DTD SVG 1.1//EN"
 "http://www.w3.org/Graphics/SVG/1.1/DTD/svg11.dtd">
<!-- Generated by graphviz version 2.43.0 (0)
 -->
<!-- Title: gvc&#45;sound&#45;theme&#45;chooser.c Pages: 1 -->
<svg width="1359pt" height="137pt"
 viewBox="0.00 0.00 1358.50 137.00" xmlns="http://www.w3.org/2000/svg" xmlns:xlink="http://www.w3.org/1999/xlink">
<g id="graph0" class="graph" transform="scale(1 1) rotate(0) translate(4 133)">
<title>gvc&#45;sound&#45;theme&#45;chooser.c</title>
<!-- Node1 -->
<g id="Node000001" class="node">
<title>Node1</title>
<g id="a_Node000001"><a xlink:title=" ">
<polygon fill="#999999" stroke="#666666" points="668.5,-129 516.5,-129 516.5,-110 668.5,-110 668.5,-129"/>
<text text-anchor="middle" x="592.5" y="-117" font-family="Helvetica,sans-Serif" font-size="10.00">gvc&#45;sound&#45;theme&#45;chooser.c</text>
</a>
</g>
</g>
<!-- Node2 -->
<g id="Node000002" class="node">
<title>Node2</title>
<g id="a_Node000002"><a xlink:title=" ">
<polygon fill="#e0e0e0" stroke="#999999" points="55,-74 0,-74 0,-55 55,-55 55,-74"/>
<text text-anchor="middle" x="27.5" y="-62" font-family="Helvetica,sans-Serif" font-size="10.00">config.h</text>
</a>
</g>
</g>
<!-- Node1&#45;&gt;Node2 -->
<g id="edge1_Node000001_Node000002" class="edge">
<title>Node1&#45;&gt;Node2</title>
<g id="a_edge1_Node000001_Node000002"><a xlink:title=" ">
<path fill="none" stroke="#63b8ff" d="M516.3,-115.63C415.23,-111.04 231.21,-99.94 65.7,-74.14"/>
<polygon fill="#63b8ff" stroke="#63b8ff" points="65.75,-70.6 55.33,-72.5 64.66,-77.52 65.75,-70.6"/>
</a>
</g>
</g>
<!-- Node3 -->
<g id="Node000003" class="node">
<title>Node3</title>
<g id="a_Node000003"><a xlink:title=" ">
<polygon fill="#e0e0e0" stroke="#999999" points="126,-74 73,-74 73,-55 126,-55 126,-74"/>
<text text-anchor="middle" x="99.5" y="-62" font-family="Helvetica,sans-Serif" font-size="10.00">stdlib.h</text>
</a>
</g>
</g>
<!-- Node1&#45;&gt;Node3 -->
<g id="edge2_Node000001_Node000003" class="edge">
<title>Node1&#45;&gt;Node3</title>
<g id="a_edge2_Node000001_Node000003"><a xlink:title=" ">
<path fill="none" stroke="#63b8ff" d="M516.48,-114.24C427.59,-108.56 275.91,-96.66 136.19,-73.88"/>
<polygon fill="#63b8ff" stroke="#63b8ff" points="136.59,-70.39 126.16,-72.22 135.45,-77.3 136.59,-70.39"/>
</a>
</g>
</g>
<!-- Node4 -->
<g id="Node000004" class="node">
<title>Node4</title>
<g id="a_Node000004"><a xlink:title=" ">
<polygon fill="#e0e0e0" stroke="#999999" points="194.5,-74 144.5,-74 144.5,-55 194.5,-55 194.5,-74"/>
<text text-anchor="middle" x="169.5" y="-62" font-family="Helvetica,sans-Serif" font-size="10.00">stdio.h</text>
</a>
</g>
</g>
<!-- Node1&#45;&gt;Node4 -->
<g id="edge3_Node000001_Node000004" class="edge">
<title>Node1&#45;&gt;Node4</title>
<g id="a_edge3_Node000001_Node000004"><a xlink:title=" ">
<path fill="none" stroke="#63b8ff" d="M516.4,-112.76C439.9,-106.32 318.47,-94.27 204.61,-73.98"/>
<polygon fill="#63b8ff" stroke="#63b8ff" points="205.13,-70.52 194.67,-72.18 203.89,-77.41 205.13,-70.52"/>
</a>
</g>
</g>
<!-- Node5 -->
<g id="Node000005" class="node">
<title>Node5</title>
<g id="a_Node000005"><a xlink:title=" ">
<polygon fill="#e0e0e0" stroke="#999999" points="268.5,-74 212.5,-74 212.5,-55 268.5,-55 268.5,-74"/>
<text text-anchor="middle" x="240.5" y="-62" font-family="Helvetica,sans-Serif" font-size="10.00">unistd.h</text>
</a>
</g>
</g>
<!-- Node1&#45;&gt;Node5 -->
<g id="edge4_Node000001_Node000005" class="edge">
<title>Node1&#45;&gt;Node5</title>
<g id="a_edge4_Node000001_Node000005"><a xlink:title=" ">
<path fill="none" stroke="#63b8ff" d="M519.33,-109.96C457.62,-102.35 366.76,-90.18 278.63,-74.07"/>
<polygon fill="#63b8ff" stroke="#63b8ff" points="279.2,-70.62 268.73,-72.25 277.93,-77.5 279.2,-70.62"/>
</a>
</g>
</g>
<!-- Node6 -->
<g id="Node000006" class="node">
<title>Node6</title>
<g id="a_Node000006"><a xlink:title=" ">
<polygon fill="#e0e0e0" stroke="#999999" points="340.5,-74 286.5,-74 286.5,-55 340.5,-55 340.5,-74"/>
<text text-anchor="middle" x="313.5" y="-62" font-family="Helvetica,sans-Serif" font-size="10.00">utime.h</text>
</a>
</g>
</g>
<!-- Node1&#45;&gt;Node6 -->
<g id="edge5_Node000001_Node000006" class="edge">
<title>Node1&#45;&gt;Node6</title>
<g id="a_edge5_Node000001_Node000006"><a xlink:title=" ">
<path fill="none" stroke="#63b8ff" d="M541.62,-109.96C494.57,-101.88 422.45,-89.07 350.71,-74.17"/>
<polygon fill="#63b8ff" stroke="#63b8ff" points="351.1,-70.67 340.59,-72.05 349.67,-77.53 351.1,-70.67"/>
</a>
</g>
</g>
<!-- Node7 -->
<g id="Node000007" class="node">
<title>Node7</title>
<g id="a_Node000007"><a xlink:title=" ">
<polygon fill="#e0e0e0" stroke="#999999" points="410,-74 359,-74 359,-55 410,-55 410,-74"/>
<text text-anchor="middle" x="384.5" y="-62" font-family="Helvetica,sans-Serif" font-size="10.00">errno.h</text>
</a>
</g>
</g>
<!-- Node1&#45;&gt;Node7 -->
<g id="edge6_Node000001_Node000007" class="edge">
<title>Node1&#45;&gt;Node7</title>
<g id="a_edge6_Node000001_Node000007"><a xlink:title=" ">
<path fill="none" stroke="#63b8ff" d="M559.08,-109.98C521.03,-100.29 459.1,-84.51 420.14,-74.58"/>
<polygon fill="#63b8ff" stroke="#63b8ff" points="420.84,-71.15 410.28,-72.07 419.11,-77.93 420.84,-71.15"/>
</a>
</g>
</g>
<!-- Node8 -->
<g id="Node000008" class="node">
<title>Node8</title>
<g id="a_Node000008"><a xlink:title=" ">
<polygon fill="#e0e0e0" stroke="#999999" points="472.5,-74 428.5,-74 428.5,-55 472.5,-55 472.5,-74"/>
<text text-anchor="middle" x="450.5" y="-62" font-family="Helvetica,sans-Serif" font-size="10.00">glib.h</text>
</a>
</g>
</g>
<!-- Node1&#45;&gt;Node8 -->
<g id="edge7_Node000001_Node000008" class="edge">
<title>Node1&#45;&gt;Node8</title>
<g id="a_edge7_Node000001_Node000008"><a xlink:title=" ">
<path fill="none" stroke="#63b8ff" d="M569.69,-109.98C546.05,-101.16 508.92,-87.31 482.39,-77.4"/>
<polygon fill="#63b8ff" stroke="#63b8ff" points="483.38,-74.04 472.79,-73.82 480.93,-80.6 483.38,-74.04"/>
</a>
</g>
</g>
<!-- Node9 -->
<g id="Node000009" class="node">
<title>Node9</title>
<g id="a_Node000009"><a xlink:title=" ">
<polygon fill="#e0e0e0" stroke="#999999" points="564.5,-74 490.5,-74 490.5,-55 564.5,-55 564.5,-74"/>
<text text-anchor="middle" x="527.5" y="-62" font-family="Helvetica,sans-Serif" font-size="10.00">glib/gi18n.h</text>
</a>
</g>
</g>
<!-- Node1&#45;&gt;Node9 -->
<g id="edge8_Node000001_Node000009" class="edge">
<title>Node1&#45;&gt;Node9</title>
<g id="a_edge8_Node000001_Node000009"><a xlink:title=" ">
<path fill="none" stroke="#63b8ff" d="M582.06,-109.98C572.35,-102.07 557.68,-90.11 546,-80.58"/>
<polygon fill="#63b8ff" stroke="#63b8ff" points="548.1,-77.78 538.13,-74.17 543.67,-83.2 548.1,-77.78"/>
</a>
</g>
</g>
<!-- Node10 -->
<g id="Node000010" class="node">
<title>Node10</title>
<g id="a_Node000010"><a xlink:title=" ">
<polygon fill="#e0e0e0" stroke="#999999" points="749,-19 672,-19 672,0 749,0 749,-19"/>
<text text-anchor="middle" x="710.5" y="-7" font-family="Helvetica,sans-Serif" font-size="10.00">glib&#45;object.h</text>
</a>
</g>
</g>
<!-- Node1&#45;&gt;Node10 -->
<g id="edge9_Node000001_Node000010" class="edge">
<title>Node1&#45;&gt;Node10</title>
<g id="a_edge9_Node000001_Node000010"><a xlink:title=" ">
<path fill="none" stroke="#63b8ff" d="M668.62,-114.62C696.73,-109.04 725.99,-97.42 743.5,-74 754.7,-59.03 741.33,-39.72 728.41,-26.34"/>
<polygon fill="#63b8ff" stroke="#63b8ff" points="730.67,-23.66 721.04,-19.23 725.8,-28.69 730.67,-23.66"/>
</a>
</g>
</g>
<!-- Node11 -->
<g id="Node000011" class="node">
<title>Node11</title>
<g id="a_Node000011"><a xlink:title=" ">
<polygon fill="#e0e0e0" stroke="#999999" points="1265,-19 1206,-19 1206,0 1265,0 1265,-19"/>
<text text-anchor="middle" x="1235.5" y="-7" font-family="Helvetica,sans-Serif" font-size="10.00">gio/gio.h</text>
</a>
</g>
</g>
<!-- Node1&#45;&gt;Node11 -->
<g id="edge10_Node000001_Node000011" class="edge">
<title>Node1&#45;&gt;Node11</title>
<g id="a_edge10_Node000001_Node000011"><a xlink:title=" ">
<path fill="none" stroke="#63b8ff" d="M668.64,-118.87C804.14,-118.49 1081.07,-112.82 1168.5,-74 1191.27,-63.89 1211.1,-42.64 1223.16,-27.5"/>
<polygon fill="#63b8ff" stroke="#63b8ff" points="1226.03,-29.51 1229.32,-19.43 1220.47,-25.26 1226.03,-29.51"/>
</a>
</g>
</g>
<!-- Node12 -->
<g id="Node000012" class="node">
<title>Node12</title>
<g id="a_Node000012"><a xlink:title=" ">
<polygon fill="#e0e0e0" stroke="#999999" points="850.5,-74 790.5,-74 790.5,-55 850.5,-55 850.5,-74"/>
<text text-anchor="middle" x="820.5" y="-62" font-family="Helvetica,sans-Serif" font-size="10.00">gtk/gtk.h</text>
</a>
</g>
</g>
<!-- Node1&#45;&gt;Node12 -->
<g id="edge11_Node000001_Node000012" class="edge">
<title>Node1&#45;&gt;Node12</title>
<g id="a_edge11_Node000001_Node000012"><a xlink:title=" ">
<path fill="none" stroke="#63b8ff" d="M629.13,-109.98C670.5,-100.37 737.61,-84.77 780.37,-74.83"/>
<polygon fill="#63b8ff" stroke="#63b8ff" points="781.21,-78.23 790.16,-72.55 779.63,-71.41 781.21,-78.23"/>
</a>
</g>
</g>
<!-- Node13 -->
<g id="Node000013" class="node">
<title>Node13</title>
<g id="a_Node000013"><a xlink:title=" ">
<polygon fill="#e0e0e0" stroke="#999999" points="956.5,-74 868.5,-74 868.5,-55 956.5,-55 956.5,-74"/>
<text text-anchor="middle" x="912.5" y="-62" font-family="Helvetica,sans-Serif" font-size="10.00">canberra&#45;gtk.h</text>
</a>
</g>
</g>
<!-- Node1&#45;&gt;Node13 -->
<g id="edge12_Node000001_Node000013" class="edge">
<title>Node1&#45;&gt;Node13</title>
<g id="a_edge12_Node000001_Node000013"><a xlink:title=" ">
<path fill="none" stroke="#63b8ff" d="M643.91,-109.98C702.7,-100.25 798.52,-84.38 858.41,-74.46"/>
<polygon fill="#63b8ff" stroke="#63b8ff" points="859.13,-77.89 868.43,-72.8 857.99,-70.98 859.13,-77.89"/>
</a>
</g>
</g>
<!-- Node14 -->
<g id="Node000014" class="node">
<title>Node14</title>
<g id="a_Node000014"><a xlink:title=" ">
<polygon fill="#e0e0e0" stroke="#999999" points="1053,-74 974,-74 974,-55 1053,-55 1053,-74"/>
<text text-anchor="middle" x="1013.5" y="-62" font-family="Helvetica,sans-Serif" font-size="10.00">libxml/tree.h</text>
</a>
</g>
</g>
<!-- Node1&#45;&gt;Node14 -->
<g id="edge13_Node000001_Node000014" class="edge">
<title>Node1&#45;&gt;Node14</title>
<g id="a_edge13_Node000001_Node000014"><a xlink:title=" ">
<path fill="none" stroke="#63b8ff" d="M668.75,-110.68C741.97,-102.88 855.93,-89.98 963.88,-74.17"/>
<polygon fill="#63b8ff" stroke="#63b8ff" points="964.59,-77.6 973.98,-72.68 963.57,-70.68 964.59,-77.6"/>
</a>
</g>
</g>
<!-- Node15 -->
<g id="Node000015" class="node">
<title>Node15</title>
<g id="a_Node000015"><a xlink:title=" ">
<polygon fill="#e0e0e0" stroke="#999999" points="1160,-74 1071,-74 1071,-55 1160,-55 1160,-74"/>
<text text-anchor="middle" x="1115.5" y="-62" font-family="Helvetica,sans-Serif" font-size="10.00">libxml/parser.h</text>
</a>
</g>
</g>
<!-- Node1&#45;&gt;Node15 -->
<g id="edge14_Node000001_Node000015" class="edge">
<title>Node1&#45;&gt;Node15</title>
<g id="a_edge14_Node000001_Node000015"><a xlink:title=" ">
<path fill="none" stroke="#63b8ff" d="M668.61,-112.73C759.43,-105.51 916.11,-92.03 1060.79,-74.01"/>
<polygon fill="#63b8ff" stroke="#63b8ff" points="1061.25,-77.48 1070.74,-72.76 1060.38,-70.54 1061.25,-77.48"/>
</a>
</g>
</g>
<!-- Node16 -->
<g id="Node000016" class="node">
<title>Node16</title>
<g id="a_Node000016"><a xlink:href="gvc-sound-theme-chooser_8h.html" target="_top" xlink:title=" ">
<polygon fill="white" stroke="#666666" points="734.5,-74 582.5,-74 582.5,-55 734.5,-55 734.5,-74"/>
<text text-anchor="middle" x="658.5" y="-62" font-family="Helvetica,sans-Serif" font-size="10.00">gvc&#45;sound&#45;theme&#45;chooser.h</text>
</a>
</g>
</g>
<!-- Node1&#45;&gt;Node16 -->
<g id="edge15_Node000001_Node000016" class="edge">
<title>Node1&#45;&gt;Node16</title>
<g id="a_edge15_Node000001_Node000016"><a xlink:title=" ">
<path fill="none" stroke="#63b8ff" d="M603.1,-109.98C612.96,-102.07 627.85,-90.11 639.72,-80.58"/>
<polygon fill="#63b8ff" stroke="#63b8ff" points="642.1,-83.16 647.7,-74.17 637.71,-77.7 642.1,-83.16"/>
</a>
</g>
</g>
<!-- Node17 -->
<g id="Node000017" class="node">
<title>Node17</title>
<g id="a_Node000017"><a xlink:href="sound-theme-file-utils_8h.html" target="_top" xlink:title=" ">
<polygon fill="white" stroke="#666666" points="1350.5,-74 1216.5,-74 1216.5,-55 1350.5,-55 1350.5,-74"/>
<text text-anchor="middle" x="1283.5" y="-62" font-family="Helvetica,sans-Serif" font-size="10.00">sound&#45;theme&#45;file&#45;utils.h</text>
</a>
</g>
</g>
<!-- Node1&#45;&gt;Node17 -->
<g id="edge17_Node000001_Node000017" class="edge">
<title>Node1&#45;&gt;Node17</title>
<g id="a_edge17_Node000001_Node000017"><a xlink:title=" ">
<path fill="none" stroke="#63b8ff" d="M668.64,-113.72C784.15,-106.3 1010.53,-91.07 1202.5,-74 1203.77,-73.89 1205.05,-73.77 1206.33,-73.65"/>
<polygon fill="#63b8ff" stroke="#63b8ff" points="1206.7,-77.14 1216.33,-72.71 1206.05,-70.17 1206.7,-77.14"/>
</a>
</g>
</g>
<!-- Node16&#45;&gt;Node10 -->
<g id="edge16_Node000016_Node000010" class="edge">
<title>Node16&#45;&gt;Node10</title>
<g id="a_edge16_Node000016_Node000010"><a xlink:title=" ">
<path fill="none" stroke="#63b8ff" d="M667.09,-54.75C674.66,-47.03 685.88,-35.6 695.01,-26.28"/>
<polygon fill="#63b8ff" stroke="#63b8ff" points="697.57,-28.68 702.07,-19.09 692.57,-23.78 697.57,-28.68"/>
</a>
</g>
</g>
<!-- Node17&#45;&gt;Node11 -->
<g id="edge18_Node000017_Node000011" class="edge">
<title>Node17&#45;&gt;Node11</title>
<g id="a_edge18_Node000017_Node000011"><a xlink:title=" ">
<path fill="none" stroke="#63b8ff" d="M1275.57,-54.75C1268.65,-47.11 1258.43,-35.82 1250.05,-26.56"/>
<polygon fill="#63b8ff" stroke="#63b8ff" points="1252.59,-24.15 1243.28,-19.09 1247.4,-28.85 1252.59,-24.15"/>
</a>
</g>
</g>
</g>
</svg>
