<?xml version="1.0" encoding="UTF-8" standalone="no"?>
<!DOCTYPE svg PUBLIC "-//W3C//DTD SVG 1.1//EN"
 "http://www.w3.org/Graphics/SVG/1.1/DTD/svg11.dtd">
<!-- Generated by graphviz version 2.43.0 (0)
 -->
<!-- Title: parser.c Pages: 1 -->
<svg width="819pt" height="258pt"
 viewBox="0.00 0.00 819.27 258.00" xmlns="http://www.w3.org/2000/svg" xmlns:xlink="http://www.w3.org/1999/xlink">
<g id="graph0" class="graph" transform="scale(1 1) rotate(0) translate(4 254)">
<title>parser.c</title>
<!-- Node1 -->
<g id="Node000001" class="node">
<title>Node1</title>
<g id="a_Node000001"><a xlink:title=" ">
<polygon fill="#999999" stroke="#666666" points="284.27,-250 229.27,-250 229.27,-231 284.27,-231 284.27,-250"/>
<text text-anchor="middle" x="256.77" y="-238" font-family="Helvetica,sans-Serif" font-size="10.00">parser.c</text>
</a>
</g>
</g>
<!-- Node2 -->
<g id="Node000002" class="node">
<title>Node2</title>
<g id="a_Node000002"><a xlink:href="weather-priv_8h.html" target="_top" xlink:title=" ">
<polygon fill="white" stroke="#666666" points="300.27,-195 213.27,-195 213.27,-176 300.27,-176 300.27,-195"/>
<text text-anchor="middle" x="256.77" y="-183" font-family="Helvetica,sans-Serif" font-size="10.00">weather&#45;priv.h</text>
</a>
</g>
</g>
<!-- Node1&#45;&gt;Node2 -->
<g id="edge1_Node000001_Node000002" class="edge">
<title>Node1&#45;&gt;Node2</title>
<g id="a_edge1_Node000001_Node000002"><a xlink:title=" ">
<path fill="none" stroke="#63b8ff" d="M256.77,-230.75C256.77,-223.8 256.77,-213.85 256.77,-205.13"/>
<polygon fill="#63b8ff" stroke="#63b8ff" points="260.27,-205.09 256.77,-195.09 253.27,-205.09 260.27,-205.09"/>
</a>
</g>
</g>
<!-- Node4 -->
<g id="Node000004" class="node">
<title>Node4</title>
<g id="a_Node000004"><a xlink:title=" ">
<polygon fill="#e0e0e0" stroke="#999999" points="68.27,-140 15.27,-140 15.27,-121 68.27,-121 68.27,-140"/>
<text text-anchor="middle" x="41.77" y="-128" font-family="Helvetica,sans-Serif" font-size="10.00">string.h</text>
</a>
</g>
</g>
<!-- Node1&#45;&gt;Node4 -->
<g id="edge18_Node000001_Node000004" class="edge">
<title>Node1&#45;&gt;Node4</title>
<g id="a_edge18_Node000001_Node000004"><a xlink:title=" ">
<path fill="none" stroke="#63b8ff" d="M239.54,-230.84C201.94,-211.96 112.35,-166.96 67.82,-144.59"/>
<polygon fill="#63b8ff" stroke="#63b8ff" points="69.29,-141.41 58.78,-140.05 66.15,-147.66 69.29,-141.41"/>
</a>
</g>
</g>
<!-- Node12 -->
<g id="Node000012" class="node">
<title>Node12</title>
<g id="a_Node000012"><a xlink:title=" ">
<polygon fill="#e0e0e0" stroke="#999999" points="179.77,-79.5 135.77,-79.5 135.77,-60.5 179.77,-60.5 179.77,-79.5"/>
<text text-anchor="middle" x="157.77" y="-67.5" font-family="Helvetica,sans-Serif" font-size="10.00">glib.h</text>
</a>
</g>
</g>
<!-- Node1&#45;&gt;Node12 -->
<g id="edge19_Node000001_Node000012" class="edge">
<title>Node1&#45;&gt;Node12</title>
<g id="a_edge19_Node000001_Node000012"><a xlink:title=" ">
<path fill="none" stroke="#63b8ff" d="M228.94,-238.23C174.7,-234.05 55.81,-216.21 5.77,-140 -24.22,-94.33 72.38,-78.51 125.4,-73.34"/>
<polygon fill="#63b8ff" stroke="#63b8ff" points="126.03,-76.79 135.68,-72.41 125.4,-69.82 126.03,-76.79"/>
</a>
</g>
</g>
<!-- Node15 -->
<g id="Node000015" class="node">
<title>Node15</title>
<g id="a_Node000015"><a xlink:href="libmateweather_2libmateweather_2parser_8h.html" target="_top" xlink:title=" ">
<polygon fill="white" stroke="#666666" points="701.77,-195 645.77,-195 645.77,-176 701.77,-176 701.77,-195"/>
<text text-anchor="middle" x="673.77" y="-183" font-family="Helvetica,sans-Serif" font-size="10.00">parser.h</text>
</a>
</g>
</g>
<!-- Node1&#45;&gt;Node15 -->
<g id="edge15_Node000001_Node000015" class="edge">
<title>Node1&#45;&gt;Node15</title>
<g id="a_edge15_Node000001_Node000015"><a xlink:title=" ">
<path fill="none" stroke="#63b8ff" d="M284.45,-235.98C356.93,-226.77 552.39,-201.93 635.52,-191.36"/>
<polygon fill="#63b8ff" stroke="#63b8ff" points="636.07,-194.82 645.55,-190.09 635.19,-187.88 636.07,-194.82"/>
</a>
</g>
</g>
<!-- Node16 -->
<g id="Node000016" class="node">
<title>Node16</title>
<g id="a_Node000016"><a xlink:title=" ">
<polygon fill="#e0e0e0" stroke="#999999" points="811.27,-140 702.27,-140 702.27,-121 811.27,-121 811.27,-140"/>
<text text-anchor="middle" x="756.77" y="-128" font-family="Helvetica,sans-Serif" font-size="10.00">libxml/xmlreader.h</text>
</a>
</g>
</g>
<!-- Node1&#45;&gt;Node16 -->
<g id="edge20_Node000001_Node000016" class="edge">
<title>Node1&#45;&gt;Node16</title>
<g id="a_edge20_Node000001_Node000016"><a xlink:title=" ">
<path fill="none" stroke="#63b8ff" d="M284.39,-239.71C371.27,-239.91 637.52,-237.02 710.77,-195 728.61,-184.76 741.42,-164.48 748.92,-149.59"/>
<polygon fill="#63b8ff" stroke="#63b8ff" points="752.19,-150.86 753.26,-140.32 745.85,-147.89 752.19,-150.86"/>
</a>
</g>
</g>
<!-- Node3 -->
<g id="Node000003" class="node">
<title>Node3</title>
<g id="a_Node000003"><a xlink:title=" ">
<polygon fill="#e0e0e0" stroke="#999999" points="180.27,-140 125.27,-140 125.27,-121 180.27,-121 180.27,-140"/>
<text text-anchor="middle" x="152.77" y="-128" font-family="Helvetica,sans-Serif" font-size="10.00">config.h</text>
</a>
</g>
</g>
<!-- Node2&#45;&gt;Node3 -->
<g id="edge2_Node000002_Node000003" class="edge">
<title>Node2&#45;&gt;Node3</title>
<g id="a_edge2_Node000002_Node000003"><a xlink:title=" ">
<path fill="none" stroke="#63b8ff" d="M240.06,-175.98C223.56,-167.57 198.07,-154.59 178.89,-144.81"/>
<polygon fill="#63b8ff" stroke="#63b8ff" points="180.28,-141.59 169.78,-140.17 177.1,-147.83 180.28,-141.59"/>
</a>
</g>
</g>
<!-- Node2&#45;&gt;Node4 -->
<g id="edge3_Node000002_Node000004" class="edge">
<title>Node2&#45;&gt;Node4</title>
<g id="a_edge3_Node000002_Node000004"><a xlink:title=" ">
<path fill="none" stroke="#63b8ff" d="M222.23,-175.98C182.81,-166.27 118.6,-150.44 78.35,-140.52"/>
<polygon fill="#63b8ff" stroke="#63b8ff" points="78.96,-137.06 68.42,-138.07 77.29,-143.86 78.96,-137.06"/>
</a>
</g>
</g>
<!-- Node5 -->
<g id="Node000005" class="node">
<title>Node5</title>
<g id="a_Node000005"><a xlink:title=" ">
<polygon fill="#e0e0e0" stroke="#999999" points="246.77,-140 198.77,-140 198.77,-121 246.77,-121 246.77,-140"/>
<text text-anchor="middle" x="222.77" y="-128" font-family="Helvetica,sans-Serif" font-size="10.00">time.h</text>
</a>
</g>
</g>
<!-- Node2&#45;&gt;Node5 -->
<g id="edge4_Node000002_Node000005" class="edge">
<title>Node2&#45;&gt;Node5</title>
<g id="a_edge4_Node000002_Node000005"><a xlink:title=" ">
<path fill="none" stroke="#63b8ff" d="M251.15,-175.75C246.45,-168.42 239.6,-157.73 233.8,-148.7"/>
<polygon fill="#63b8ff" stroke="#63b8ff" points="236.62,-146.62 228.28,-140.09 230.73,-150.4 236.62,-146.62"/>
</a>
</g>
</g>
<!-- Node6 -->
<g id="Node000006" class="node">
<title>Node6</title>
<g id="a_Node000006"><a xlink:title=" ">
<polygon fill="#e0e0e0" stroke="#999999" points="318.27,-140 265.27,-140 265.27,-121 318.27,-121 318.27,-140"/>
<text text-anchor="middle" x="291.77" y="-128" font-family="Helvetica,sans-Serif" font-size="10.00">libintl.h</text>
</a>
</g>
</g>
<!-- Node2&#45;&gt;Node6 -->
<g id="edge5_Node000002_Node000006" class="edge">
<title>Node2&#45;&gt;Node6</title>
<g id="a_edge5_Node000002_Node000006"><a xlink:title=" ">
<path fill="none" stroke="#63b8ff" d="M262.55,-175.75C267.39,-168.42 274.45,-157.73 280.41,-148.7"/>
<polygon fill="#63b8ff" stroke="#63b8ff" points="283.51,-150.36 286.1,-140.09 277.67,-146.5 283.51,-150.36"/>
</a>
</g>
</g>
<!-- Node7 -->
<g id="Node000007" class="node">
<title>Node7</title>
<g id="a_Node000007"><a xlink:title=" ">
<polygon fill="#e0e0e0" stroke="#999999" points="387.27,-140 336.27,-140 336.27,-121 387.27,-121 387.27,-140"/>
<text text-anchor="middle" x="361.77" y="-128" font-family="Helvetica,sans-Serif" font-size="10.00">math.h</text>
</a>
</g>
</g>
<!-- Node2&#45;&gt;Node7 -->
<g id="edge6_Node000002_Node000007" class="edge">
<title>Node2&#45;&gt;Node7</title>
<g id="a_edge6_Node000002_Node000007"><a xlink:title=" ">
<path fill="none" stroke="#63b8ff" d="M273.64,-175.98C290.38,-167.54 316.27,-154.47 335.66,-144.68"/>
<polygon fill="#63b8ff" stroke="#63b8ff" points="337.24,-147.8 344.59,-140.17 334.09,-141.55 337.24,-147.8"/>
</a>
</g>
</g>
<!-- Node8 -->
<g id="Node000008" class="node">
<title>Node8</title>
<g id="a_Node000008"><a xlink:title=" ">
<polygon fill="#e0e0e0" stroke="#999999" points="645.27,-140 558.27,-140 558.27,-121 645.27,-121 645.27,-140"/>
<text text-anchor="middle" x="601.77" y="-128" font-family="Helvetica,sans-Serif" font-size="10.00">libsoup/soup.h</text>
</a>
</g>
</g>
<!-- Node2&#45;&gt;Node8 -->
<g id="edge7_Node000002_Node000008" class="edge">
<title>Node2&#45;&gt;Node8</title>
<g id="a_edge7_Node000002_Node000008"><a xlink:title=" ">
<path fill="none" stroke="#63b8ff" d="M300.32,-177.97C355.45,-169.68 453.61,-154.84 548.09,-140.1"/>
<polygon fill="#63b8ff" stroke="#63b8ff" points="548.76,-143.53 558.1,-138.53 547.68,-136.62 548.76,-143.53"/>
</a>
</g>
</g>
<!-- Node9 -->
<g id="Node000009" class="node">
<title>Node9</title>
<g id="a_Node000009"><a xlink:href="weather_8h.html" target="_top" xlink:title=" ">
<polygon fill="white" stroke="#666666" points="403.27,-79.5 338.27,-79.5 338.27,-60.5 403.27,-60.5 403.27,-79.5"/>
<text text-anchor="middle" x="370.77" y="-67.5" font-family="Helvetica,sans-Serif" font-size="10.00">weather.h</text>
</a>
</g>
</g>
<!-- Node2&#45;&gt;Node9 -->
<g id="edge8_Node000002_Node000009" class="edge">
<title>Node2&#45;&gt;Node9</title>
<g id="a_edge8_Node000002_Node000009"><a xlink:title=" ">
<path fill="none" stroke="#63b8ff" d="M213.05,-180.17C161.46,-173.35 86.17,-156.97 115.77,-121 142.16,-88.93 262.53,-77.12 328.02,-73.03"/>
<polygon fill="#63b8ff" stroke="#63b8ff" points="328.26,-76.52 338.04,-72.43 327.85,-69.53 328.26,-76.52"/>
</a>
</g>
</g>
<!-- Node11 -->
<g id="Node000011" class="node">
<title>Node11</title>
<g id="a_Node000011"><a xlink:href="mateweather-location_8h.html" target="_top" xlink:title=" ">
<polygon fill="white" stroke="#666666" points="539.77,-140 405.77,-140 405.77,-121 539.77,-121 539.77,-140"/>
<text text-anchor="middle" x="472.77" y="-128" font-family="Helvetica,sans-Serif" font-size="10.00">mateweather&#45;location.h</text>
</a>
</g>
</g>
<!-- Node2&#45;&gt;Node11 -->
<g id="edge10_Node000002_Node000011" class="edge">
<title>Node2&#45;&gt;Node11</title>
<g id="a_edge10_Node000002_Node000011"><a xlink:title=" ">
<path fill="none" stroke="#63b8ff" d="M291.47,-175.98C328.52,-166.89 387.36,-152.46 427.9,-142.51"/>
<polygon fill="#63b8ff" stroke="#63b8ff" points="428.92,-145.86 437.79,-140.08 427.25,-139.07 428.92,-145.86"/>
</a>
</g>
</g>
<!-- Node10 -->
<g id="Node000010" class="node">
<title>Node10</title>
<g id="a_Node000010"><a xlink:title=" ">
<polygon fill="#e0e0e0" stroke="#999999" points="437.27,-19 304.27,-19 304.27,0 437.27,0 437.27,-19"/>
<text text-anchor="middle" x="370.77" y="-7" font-family="Helvetica,sans-Serif" font-size="10.00">gdk&#45;pixbuf/gdk&#45;pixbuf.h</text>
</a>
</g>
</g>
<!-- Node9&#45;&gt;Node10 -->
<g id="edge9_Node000009_Node000010" class="edge">
<title>Node9&#45;&gt;Node10</title>
<g id="a_edge9_Node000009_Node000010"><a xlink:title=" ">
<path fill="none" stroke="#63b8ff" d="M370.77,-60.37C370.77,-52.25 370.77,-39.81 370.77,-29.39"/>
<polygon fill="#63b8ff" stroke="#63b8ff" points="374.27,-29.17 370.77,-19.17 367.27,-29.17 374.27,-29.17"/>
</a>
</g>
</g>
<!-- Node11&#45;&gt;Node9 -->
<g id="edge14_Node000011_Node000009" class="edge">
<title>Node11&#45;&gt;Node9</title>
<g id="a_edge14_Node000011_Node000009"><a xlink:title=" ">
<path fill="none" stroke="#63b8ff" d="M457.72,-120.87C441.15,-111.36 414.27,-95.95 394.78,-84.77"/>
<polygon fill="#63b8ff" stroke="#63b8ff" points="396.3,-81.61 385.88,-79.67 392.81,-87.68 396.3,-81.61"/>
</a>
</g>
</g>
<!-- Node11&#45;&gt;Node12 -->
<g id="edge11_Node000011_Node000012" class="edge">
<title>Node11&#45;&gt;Node12</title>
<g id="a_edge11_Node000011_Node000012"><a xlink:title=" ">
<path fill="none" stroke="#63b8ff" d="M426.97,-120.99C362.36,-109 246.11,-87.41 189.91,-76.97"/>
<polygon fill="#63b8ff" stroke="#63b8ff" points="190.3,-73.48 179.83,-75.1 189.02,-80.36 190.3,-73.48"/>
</a>
</g>
</g>
<!-- Node13 -->
<g id="Node000013" class="node">
<title>Node13</title>
<g id="a_Node000013"><a xlink:href="mateweather-timezone_8h.html" target="_top" xlink:title=" ">
<polygon fill="white" stroke="#666666" points="653.77,-85 491.77,-85 491.77,-55 653.77,-55 653.77,-85"/>
<text text-anchor="start" x="499.77" y="-73" font-family="Helvetica,sans-Serif" font-size="10.00">libmateweather/mateweather</text>
<text text-anchor="middle" x="572.77" y="-62" font-family="Helvetica,sans-Serif" font-size="10.00">&#45;timezone.h</text>
</a>
</g>
</g>
<!-- Node11&#45;&gt;Node13 -->
<g id="edge12_Node000011_Node000013" class="edge">
<title>Node11&#45;&gt;Node13</title>
<g id="a_edge12_Node000011_Node000013"><a xlink:title=" ">
<path fill="none" stroke="#63b8ff" d="M487.52,-120.87C501.22,-112.86 522.09,-100.65 539.75,-90.31"/>
<polygon fill="#63b8ff" stroke="#63b8ff" points="541.78,-93.19 548.64,-85.11 538.24,-87.14 541.78,-93.19"/>
</a>
</g>
</g>
<!-- Node14 -->
<g id="Node000014" class="node">
<title>Node14</title>
<g id="a_Node000014"><a xlink:title=" ">
<polygon fill="#e0e0e0" stroke="#999999" points="611.27,-19 534.27,-19 534.27,0 611.27,0 611.27,-19"/>
<text text-anchor="middle" x="572.77" y="-7" font-family="Helvetica,sans-Serif" font-size="10.00">glib&#45;object.h</text>
</a>
</g>
</g>
<!-- Node13&#45;&gt;Node14 -->
<g id="edge13_Node000013_Node000014" class="edge">
<title>Node13&#45;&gt;Node14</title>
<g id="a_edge13_Node000013_Node000014"><a xlink:title=" ">
<path fill="none" stroke="#63b8ff" d="M572.77,-54.84C572.77,-47.21 572.77,-37.7 572.77,-29.45"/>
<polygon fill="#63b8ff" stroke="#63b8ff" points="576.27,-29.27 572.77,-19.27 569.27,-29.27 576.27,-29.27"/>
</a>
</g>
</g>
<!-- Node15&#45;&gt;Node13 -->
<g id="edge17_Node000015_Node000013" class="edge">
<title>Node15&#45;&gt;Node13</title>
<g id="a_edge17_Node000015_Node000013"><a xlink:title=" ">
<path fill="none" stroke="#63b8ff" d="M672.96,-175.81C671.35,-162.69 666.69,-137.6 653.77,-121 643.78,-108.16 629.49,-97.81 615.69,-89.92"/>
<polygon fill="#63b8ff" stroke="#63b8ff" points="617.21,-86.76 606.75,-85.09 613.89,-92.92 617.21,-86.76"/>
</a>
</g>
</g>
<!-- Node15&#45;&gt;Node16 -->
<g id="edge16_Node000015_Node000016" class="edge">
<title>Node15&#45;&gt;Node16</title>
<g id="a_edge16_Node000015_Node000016"><a xlink:title=" ">
<path fill="none" stroke="#63b8ff" d="M687.1,-175.98C699.86,-167.84 719.32,-155.41 734.44,-145.76"/>
<polygon fill="#63b8ff" stroke="#63b8ff" points="736.65,-148.5 743.19,-140.17 732.88,-142.6 736.65,-148.5"/>
</a>
</g>
</g>
</g>
</svg>
