<?xml version="1.0" encoding="UTF-8" standalone="no"?>
<!DOCTYPE svg PUBLIC "-//W3C//DTD SVG 1.1//EN"
 "http://www.w3.org/Graphics/SVG/1.1/DTD/svg11.dtd">
<!-- Generated by graphviz version 2.43.0 (0)
 -->
<!-- Title: logview&#45;loglist.c Pages: 1 -->
<svg width="440pt" height="192pt"
 viewBox="0.00 0.00 440.00 192.00" xmlns="http://www.w3.org/2000/svg" xmlns:xlink="http://www.w3.org/1999/xlink">
<g id="graph0" class="graph" transform="scale(1 1) rotate(0) translate(4 188)">
<title>logview&#45;loglist.c</title>
<!-- Node1 -->
<g id="Node000001" class="node">
<title>Node1</title>
<g id="a_Node000001"><a xlink:title=" ">
<polygon fill="#999999" stroke="#666666" points="262.5,-184 165.5,-184 165.5,-165 262.5,-165 262.5,-184"/>
<text text-anchor="middle" x="214" y="-172" font-family="Helvetica,sans-Serif" font-size="10.00">logview&#45;loglist.c</text>
</a>
</g>
</g>
<!-- Node2 -->
<g id="Node000002" class="node">
<title>Node2</title>
<g id="a_Node000002"><a xlink:title=" ">
<polygon fill="#e0e0e0" stroke="#999999" points="229,-74 169,-74 169,-55 229,-55 229,-74"/>
<text text-anchor="middle" x="199" y="-62" font-family="Helvetica,sans-Serif" font-size="10.00">gtk/gtk.h</text>
</a>
</g>
</g>
<!-- Node1&#45;&gt;Node2 -->
<g id="edge1_Node000001_Node000002" class="edge">
<title>Node1&#45;&gt;Node2</title>
<g id="a_edge1_Node000001_Node000002"><a xlink:title=" ">
<path fill="none" stroke="#63b8ff" d="M209.12,-164.98C204.44,-156.26 197.69,-142.17 195,-129 191.95,-114.1 193.34,-96.86 195.27,-84.11"/>
<polygon fill="#63b8ff" stroke="#63b8ff" points="198.73,-84.68 197.01,-74.23 191.83,-83.47 198.73,-84.68"/>
</a>
</g>
</g>
<!-- Node3 -->
<g id="Node000003" class="node">
<title>Node3</title>
<g id="a_Node000003"><a xlink:title=" ">
<polygon fill="#e0e0e0" stroke="#999999" points="432,-129 358,-129 358,-110 432,-110 432,-129"/>
<text text-anchor="middle" x="395" y="-117" font-family="Helvetica,sans-Serif" font-size="10.00">glib/gi18n.h</text>
</a>
</g>
</g>
<!-- Node1&#45;&gt;Node3 -->
<g id="edge2_Node000001_Node000003" class="edge">
<title>Node1&#45;&gt;Node3</title>
<g id="a_edge2_Node000001_Node000003"><a xlink:title=" ">
<path fill="none" stroke="#63b8ff" d="M243.08,-164.98C273.6,-156.05 321.76,-141.94 355.66,-132.02"/>
<polygon fill="#63b8ff" stroke="#63b8ff" points="357.08,-135.25 365.69,-129.08 355.11,-128.53 357.08,-135.25"/>
</a>
</g>
</g>
<!-- Node4 -->
<g id="Node000004" class="node">
<title>Node4</title>
<g id="a_Node000004"><a xlink:href="logview-manager_8h.html" target="_top" xlink:title=" ">
<polygon fill="white" stroke="#666666" points="110,-129 0,-129 0,-110 110,-110 110,-129"/>
<text text-anchor="middle" x="55" y="-117" font-family="Helvetica,sans-Serif" font-size="10.00">logview&#45;manager.h</text>
</a>
</g>
</g>
<!-- Node1&#45;&gt;Node4 -->
<g id="edge3_Node000001_Node000004" class="edge">
<title>Node1&#45;&gt;Node4</title>
<g id="a_edge3_Node000001_Node000004"><a xlink:title=" ">
<path fill="none" stroke="#63b8ff" d="M188.45,-164.98C161.88,-156.13 120.06,-142.19 90.33,-132.28"/>
<polygon fill="#63b8ff" stroke="#63b8ff" points="91.34,-128.92 80.75,-129.08 89.13,-135.56 91.34,-128.92"/>
</a>
</g>
</g>
<!-- Node6 -->
<g id="Node000006" class="node">
<title>Node6</title>
<g id="a_Node000006"><a xlink:href="logview-log_8h.html" target="_top" xlink:title=" ">
<polygon fill="white" stroke="#666666" points="150.5,-74 67.5,-74 67.5,-55 150.5,-55 150.5,-74"/>
<text text-anchor="middle" x="109" y="-62" font-family="Helvetica,sans-Serif" font-size="10.00">logview&#45;log.h</text>
</a>
</g>
</g>
<!-- Node1&#45;&gt;Node6 -->
<g id="edge8_Node000001_Node000006" class="edge">
<title>Node1&#45;&gt;Node6</title>
<g id="a_edge8_Node000001_Node000006"><a xlink:title=" ">
<path fill="none" stroke="#63b8ff" d="M205.41,-164.66C187.71,-146.46 146.96,-104.55 124.52,-81.47"/>
<polygon fill="#63b8ff" stroke="#63b8ff" points="126.9,-78.89 117.42,-74.16 121.88,-83.77 126.9,-78.89"/>
</a>
</g>
</g>
<!-- Node8 -->
<g id="Node000008" class="node">
<title>Node8</title>
<g id="a_Node000008"><a xlink:href="logview-utils_8h.html" target="_top" xlink:title=" ">
<polygon fill="white" stroke="#666666" points="374.5,-74 285.5,-74 285.5,-55 374.5,-55 374.5,-74"/>
<text text-anchor="middle" x="330" y="-62" font-family="Helvetica,sans-Serif" font-size="10.00">logview&#45;utils.h</text>
</a>
</g>
</g>
<!-- Node1&#45;&gt;Node8 -->
<g id="edge9_Node000001_Node000008" class="edge">
<title>Node1&#45;&gt;Node8</title>
<g id="a_edge9_Node000001_Node000008"><a xlink:title=" ">
<path fill="none" stroke="#63b8ff" d="M249.88,-164.98C270.43,-158.37 295.2,-147.18 311,-129 321.74,-116.65 326.41,-98.43 328.44,-84.67"/>
<polygon fill="#63b8ff" stroke="#63b8ff" points="331.96,-84.72 329.6,-74.39 325,-83.93 331.96,-84.72"/>
</a>
</g>
</g>
<!-- Node10 -->
<g id="Node000010" class="node">
<title>Node10</title>
<g id="a_Node000010"><a xlink:href="logview-loglist_8h.html" target="_top" xlink:title=" ">
<polygon fill="white" stroke="#666666" points="302,-129 204,-129 204,-110 302,-110 302,-129"/>
<text text-anchor="middle" x="253" y="-117" font-family="Helvetica,sans-Serif" font-size="10.00">logview&#45;loglist.h</text>
</a>
</g>
</g>
<!-- Node1&#45;&gt;Node10 -->
<g id="edge11_Node000001_Node000010" class="edge">
<title>Node1&#45;&gt;Node10</title>
<g id="a_edge11_Node000001_Node000010"><a xlink:title=" ">
<path fill="none" stroke="#63b8ff" d="M220.44,-164.75C225.89,-157.34 233.86,-146.5 240.56,-137.41"/>
<polygon fill="#63b8ff" stroke="#63b8ff" points="243.57,-139.22 246.68,-129.09 237.93,-135.07 243.57,-139.22"/>
</a>
</g>
</g>
<!-- Node5 -->
<g id="Node000005" class="node">
<title>Node5</title>
<g id="a_Node000005"><a xlink:title=" ">
<polygon fill="#e0e0e0" stroke="#999999" points="112.5,-19 35.5,-19 35.5,0 112.5,0 112.5,-19"/>
<text text-anchor="middle" x="74" y="-7" font-family="Helvetica,sans-Serif" font-size="10.00">glib&#45;object.h</text>
</a>
</g>
</g>
<!-- Node4&#45;&gt;Node5 -->
<g id="edge4_Node000004_Node000005" class="edge">
<title>Node4&#45;&gt;Node5</title>
<g id="a_edge4_Node000004_Node000005"><a xlink:title=" ">
<path fill="none" stroke="#63b8ff" d="M54.6,-109.77C54.22,-97.44 54.17,-74.27 58,-55 59.78,-46.04 63.03,-36.47 66.15,-28.5"/>
<polygon fill="#63b8ff" stroke="#63b8ff" points="69.43,-29.72 70.02,-19.14 62.96,-27.05 69.43,-29.72"/>
</a>
</g>
</g>
<!-- Node4&#45;&gt;Node6 -->
<g id="edge5_Node000004_Node000006" class="edge">
<title>Node4&#45;&gt;Node6</title>
<g id="a_edge5_Node000004_Node000006"><a xlink:title=" ">
<path fill="none" stroke="#63b8ff" d="M63.92,-109.75C71.78,-102.03 83.43,-90.6 92.92,-81.28"/>
<polygon fill="#63b8ff" stroke="#63b8ff" points="95.56,-83.59 100.25,-74.09 90.66,-78.6 95.56,-83.59"/>
</a>
</g>
</g>
<!-- Node6&#45;&gt;Node5 -->
<g id="edge6_Node000006_Node000005" class="edge">
<title>Node6&#45;&gt;Node5</title>
<g id="a_edge6_Node000006_Node000005"><a xlink:title=" ">
<path fill="none" stroke="#63b8ff" d="M103.22,-54.75C98.38,-47.42 91.32,-36.73 85.36,-27.7"/>
<polygon fill="#63b8ff" stroke="#63b8ff" points="88.1,-25.5 79.67,-19.09 82.26,-29.36 88.1,-25.5"/>
</a>
</g>
</g>
<!-- Node7 -->
<g id="Node000007" class="node">
<title>Node7</title>
<g id="a_Node000007"><a xlink:title=" ">
<polygon fill="#e0e0e0" stroke="#999999" points="189.5,-19 130.5,-19 130.5,0 189.5,0 189.5,-19"/>
<text text-anchor="middle" x="160" y="-7" font-family="Helvetica,sans-Serif" font-size="10.00">gio/gio.h</text>
</a>
</g>
</g>
<!-- Node6&#45;&gt;Node7 -->
<g id="edge7_Node000006_Node000007" class="edge">
<title>Node6&#45;&gt;Node7</title>
<g id="a_edge7_Node000006_Node000007"><a xlink:title=" ">
<path fill="none" stroke="#63b8ff" d="M117.42,-54.75C124.77,-47.11 135.63,-35.82 144.54,-26.56"/>
<polygon fill="#63b8ff" stroke="#63b8ff" points="147.32,-28.72 151.74,-19.09 142.28,-23.87 147.32,-28.72"/>
</a>
</g>
</g>
<!-- Node9 -->
<g id="Node000009" class="node">
<title>Node9</title>
<g id="a_Node000009"><a xlink:title=" ">
<polygon fill="#e0e0e0" stroke="#999999" points="352,-19 308,-19 308,0 352,0 352,-19"/>
<text text-anchor="middle" x="330" y="-7" font-family="Helvetica,sans-Serif" font-size="10.00">glib.h</text>
</a>
</g>
</g>
<!-- Node8&#45;&gt;Node9 -->
<g id="edge10_Node000008_Node000009" class="edge">
<title>Node8&#45;&gt;Node9</title>
<g id="a_edge10_Node000008_Node000009"><a xlink:title=" ">
<path fill="none" stroke="#63b8ff" d="M330,-54.75C330,-47.8 330,-37.85 330,-29.13"/>
<polygon fill="#63b8ff" stroke="#63b8ff" points="333.5,-29.09 330,-19.09 326.5,-29.09 333.5,-29.09"/>
</a>
</g>
</g>
<!-- Node10&#45;&gt;Node2 -->
<g id="edge12_Node000010_Node000002" class="edge">
<title>Node10&#45;&gt;Node2</title>
<g id="a_edge12_Node000010_Node000002"><a xlink:title=" ">
<path fill="none" stroke="#63b8ff" d="M244.08,-109.75C236.22,-102.03 224.57,-90.6 215.08,-81.28"/>
<polygon fill="#63b8ff" stroke="#63b8ff" points="217.34,-78.6 207.75,-74.09 212.44,-83.59 217.34,-78.6"/>
</a>
</g>
</g>
<!-- Node10&#45;&gt;Node5 -->
<g id="edge13_Node000010_Node000005" class="edge">
<title>Node10&#45;&gt;Node5</title>
<g id="a_edge13_Node000010_Node000005"><a xlink:title=" ">
<path fill="none" stroke="#63b8ff" d="M253.55,-109.81C253.9,-96.23 252.49,-69.98 238,-55 229.8,-46.52 167.86,-31.27 122.51,-21.02"/>
<polygon fill="#63b8ff" stroke="#63b8ff" points="123.06,-17.56 112.53,-18.78 121.53,-24.39 123.06,-17.56"/>
</a>
</g>
</g>
<!-- Node10&#45;&gt;Node6 -->
<g id="edge14_Node000010_Node000006" class="edge">
<title>Node10&#45;&gt;Node6</title>
<g id="a_edge14_Node000010_Node000006"><a xlink:title=" ">
<path fill="none" stroke="#63b8ff" d="M229.86,-109.98C206.18,-101.27 169.13,-87.63 142.29,-77.75"/>
<polygon fill="#63b8ff" stroke="#63b8ff" points="143.15,-74.34 132.56,-74.17 140.73,-80.91 143.15,-74.34"/>
</a>
</g>
</g>
<!-- Node10&#45;&gt;Node8 -->
<g id="edge15_Node000010_Node000008" class="edge">
<title>Node10&#45;&gt;Node8</title>
<g id="a_edge15_Node000010_Node000008"><a xlink:title=" ">
<path fill="none" stroke="#63b8ff" d="M265.37,-109.98C277.09,-101.92 294.92,-89.65 308.89,-80.03"/>
<polygon fill="#63b8ff" stroke="#63b8ff" points="311.15,-82.72 317.4,-74.17 307.18,-76.96 311.15,-82.72"/>
</a>
</g>
</g>
</g>
</svg>
