<?xml version="1.0" encoding="UTF-8" standalone="no"?>
<!DOCTYPE svg PUBLIC "-//W3C//DTD SVG 1.1//EN"
 "http://www.w3.org/Graphics/SVG/1.1/DTD/svg11.dtd">
<!-- Generated by graphviz version 2.43.0 (0)
 -->
<!-- Title: ui.h Pages: 1 -->
<svg width="730pt" height="247pt"
 viewBox="0.00 0.00 729.50 247.00" xmlns="http://www.w3.org/2000/svg" xmlns:xlink="http://www.w3.org/1999/xlink">
<g id="graph0" class="graph" transform="scale(1 1) rotate(0) translate(4 243)">
<title>ui.h</title>
<!-- Node1 -->
<g id="Node000001" class="node">
<title>Node1</title>
<g id="a_Node000001"><a xlink:title=" ">
<polygon fill="#999999" stroke="#666666" points="393.5,-239 358.5,-239 358.5,-220 393.5,-220 393.5,-239"/>
<text text-anchor="middle" x="376" y="-227" font-family="Helvetica,sans-Serif" font-size="10.00">ui.h</text>
</a>
</g>
</g>
<!-- Node2 -->
<g id="Node000002" class="node">
<title>Node2</title>
<g id="a_Node000002"><a xlink:href="marco_2src_2include_2common_8h.html" target="_top" xlink:title=" ">
<polygon fill="white" stroke="#666666" points="129,-74 61,-74 61,-55 129,-55 129,-74"/>
<text text-anchor="middle" x="95" y="-62" font-family="Helvetica,sans-Serif" font-size="10.00">common.h</text>
</a>
</g>
</g>
<!-- Node1&#45;&gt;Node2 -->
<g id="edge1_Node000001_Node000002" class="edge">
<title>Node1&#45;&gt;Node2</title>
<g id="a_edge1_Node000001_Node000002"><a xlink:title=" ">
<path fill="none" stroke="#63b8ff" d="M358.41,-229.33C318.9,-230.32 221.64,-227.79 158,-184 123.4,-160.19 106.29,-111.16 99.2,-84.23"/>
<polygon fill="#63b8ff" stroke="#63b8ff" points="102.51,-83.07 96.75,-74.18 95.71,-84.73 102.51,-83.07"/>
</a>
</g>
</g>
<!-- Node3 -->
<g id="Node000003" class="node">
<title>Node3</title>
<g id="a_Node000003"><a xlink:title=" ">
<polygon fill="#e0e0e0" stroke="#999999" points="66,-19 0,-19 0,0 66,0 66,-19"/>
<text text-anchor="middle" x="33" y="-7" font-family="Helvetica,sans-Serif" font-size="10.00">X11/Xlib.h</text>
</a>
</g>
</g>
<!-- Node1&#45;&gt;Node3 -->
<g id="edge6_Node000001_Node000003" class="edge">
<title>Node1&#45;&gt;Node3</title>
<g id="a_edge6_Node000001_Node000003"><a xlink:title=" ">
<path fill="none" stroke="#63b8ff" d="M358.2,-228.86C316.62,-228.95 211,-224.82 136,-184 78.75,-152.84 63.78,-134.29 39,-74 33.14,-59.74 31.88,-42.21 31.95,-29.18"/>
<polygon fill="#63b8ff" stroke="#63b8ff" points="35.45,-29.2 32.27,-19.09 28.45,-28.98 35.45,-29.2"/>
</a>
</g>
</g>
<!-- Node4 -->
<g id="Node000004" class="node">
<title>Node4</title>
<g id="a_Node000004"><a xlink:title=" ">
<polygon fill="#e0e0e0" stroke="#999999" points="235,-19 191,-19 191,0 235,0 235,-19"/>
<text text-anchor="middle" x="213" y="-7" font-family="Helvetica,sans-Serif" font-size="10.00">glib.h</text>
</a>
</g>
</g>
<!-- Node1&#45;&gt;Node4 -->
<g id="edge8_Node000001_Node000004" class="edge">
<title>Node1&#45;&gt;Node4</title>
<g id="a_edge8_Node000001_Node000004"><a xlink:title=" ">
<path fill="none" stroke="#63b8ff" d="M393.82,-222.51C437.93,-206.72 546.09,-161.6 509,-110 447.38,-24.28 308.23,-11.39 245.16,-10.14"/>
<polygon fill="#63b8ff" stroke="#63b8ff" points="245.04,-6.64 235,-10.03 244.96,-13.64 245.04,-6.64"/>
</a>
</g>
</g>
<!-- Node6 -->
<g id="Node000006" class="node">
<title>Node6</title>
<g id="a_Node000006"><a xlink:href="types_8h.html" target="_top" xlink:title=" ">
<polygon fill="white" stroke="#666666" points="348.5,-129 295.5,-129 295.5,-110 348.5,-110 348.5,-129"/>
<text text-anchor="middle" x="322" y="-117" font-family="Helvetica,sans-Serif" font-size="10.00">types.h</text>
</a>
</g>
</g>
<!-- Node1&#45;&gt;Node6 -->
<g id="edge5_Node000001_Node000006" class="edge">
<title>Node1&#45;&gt;Node6</title>
<g id="a_edge5_Node000001_Node000006"><a xlink:title=" ">
<path fill="none" stroke="#63b8ff" d="M374.49,-219.89C372.06,-207.31 366.54,-183.39 357,-165 351.69,-154.77 343.9,-144.57 337.02,-136.53"/>
<polygon fill="#63b8ff" stroke="#63b8ff" points="339.58,-134.14 330.32,-129.01 334.36,-138.8 339.58,-134.14"/>
</a>
</g>
</g>
<!-- Node7 -->
<g id="Node000007" class="node">
<title>Node7</title>
<g id="a_Node000007"><a xlink:title=" ">
<polygon fill="#e0e0e0" stroke="#999999" points="626,-184 556,-184 556,-165 626,-165 626,-184"/>
<text text-anchor="middle" x="591" y="-172" font-family="Helvetica,sans-Serif" font-size="10.00">X11/Xutil.h</text>
</a>
</g>
</g>
<!-- Node1&#45;&gt;Node7 -->
<g id="edge7_Node000001_Node000007" class="edge">
<title>Node1&#45;&gt;Node7</title>
<g id="a_edge7_Node000001_Node000007"><a xlink:title=" ">
<path fill="none" stroke="#63b8ff" d="M393.59,-224.16C426.67,-216.01 499.04,-198.17 546.36,-186.5"/>
<polygon fill="#63b8ff" stroke="#63b8ff" points="547.48,-189.83 556.35,-184.04 545.8,-183.04 547.48,-189.83"/>
</a>
</g>
</g>
<!-- Node8 -->
<g id="Node000008" class="node">
<title>Node8</title>
<g id="a_Node000008"><a xlink:title=" ">
<polygon fill="#e0e0e0" stroke="#999999" points="499.5,-129 366.5,-129 366.5,-110 499.5,-110 499.5,-129"/>
<text text-anchor="middle" x="433" y="-117" font-family="Helvetica,sans-Serif" font-size="10.00">gdk&#45;pixbuf/gdk&#45;pixbuf.h</text>
</a>
</g>
</g>
<!-- Node1&#45;&gt;Node8 -->
<g id="edge9_Node000001_Node000008" class="edge">
<title>Node1&#45;&gt;Node8</title>
<g id="a_edge9_Node000001_Node000008"><a xlink:title=" ">
<path fill="none" stroke="#63b8ff" d="M380.66,-219.66C390.06,-201.85 411.43,-161.37 423.76,-138.01"/>
<polygon fill="#63b8ff" stroke="#63b8ff" points="426.86,-139.64 428.43,-129.16 420.67,-136.37 426.86,-139.64"/>
</a>
</g>
</g>
<!-- Node9 -->
<g id="Node000009" class="node">
<title>Node9</title>
<g id="a_Node000009"><a xlink:title=" ">
<polygon fill="#e0e0e0" stroke="#999999" points="721.5,-184 644.5,-184 644.5,-165 721.5,-165 721.5,-184"/>
<text text-anchor="middle" x="683" y="-172" font-family="Helvetica,sans-Serif" font-size="10.00">cairo/cairo.h</text>
</a>
</g>
</g>
<!-- Node1&#45;&gt;Node9 -->
<g id="edge10_Node000001_Node000009" class="edge">
<title>Node1&#45;&gt;Node9</title>
<g id="a_edge10_Node000001_Node000009"><a xlink:title=" ">
<path fill="none" stroke="#63b8ff" d="M393.59,-225.51C434.05,-218.62 537.06,-201.06 634.48,-184.08"/>
<polygon fill="#63b8ff" stroke="#63b8ff" points="635.24,-187.5 644.49,-182.34 634.04,-180.61 635.24,-187.5"/>
</a>
</g>
</g>
<!-- Node10 -->
<g id="Node000010" class="node">
<title>Node10</title>
<g id="a_Node000010"><a xlink:href="tabpopup_8h.html" target="_top" xlink:title=" ">
<polygon fill="white" stroke="#666666" points="238.5,-184 167.5,-184 167.5,-165 238.5,-165 238.5,-184"/>
<text text-anchor="middle" x="203" y="-172" font-family="Helvetica,sans-Serif" font-size="10.00">tabpopup.h</text>
</a>
</g>
</g>
<!-- Node1&#45;&gt;Node10 -->
<g id="edge11_Node000001_Node000010" class="edge">
<title>Node1&#45;&gt;Node10</title>
<g id="a_edge11_Node000001_Node000010"><a xlink:title=" ">
<path fill="none" stroke="#63b8ff" d="M358.46,-223.13C330.98,-214.71 277.14,-198.21 240.62,-187.02"/>
<polygon fill="#63b8ff" stroke="#63b8ff" points="241.4,-183.6 230.81,-184.02 239.35,-190.3 241.4,-183.6"/>
</a>
</g>
</g>
<!-- Node12 -->
<g id="Node000012" class="node">
<title>Node12</title>
<g id="a_Node000012"><a xlink:href="tile-preview_8h.html" target="_top" xlink:title=" ">
<polygon fill="white" stroke="#666666" points="347.5,-184 264.5,-184 264.5,-165 347.5,-165 347.5,-184"/>
<text text-anchor="middle" x="306" y="-172" font-family="Helvetica,sans-Serif" font-size="10.00">tile&#45;preview.h</text>
</a>
</g>
</g>
<!-- Node1&#45;&gt;Node12 -->
<g id="edge21_Node000001_Node000012" class="edge">
<title>Node1&#45;&gt;Node12</title>
<g id="a_edge21_Node000001_Node000012"><a xlink:title=" ">
<path fill="none" stroke="#63b8ff" d="M364.75,-219.98C354.2,-212 338.2,-199.88 325.56,-190.31"/>
<polygon fill="#63b8ff" stroke="#63b8ff" points="327.54,-187.42 317.45,-184.17 323.31,-193 327.54,-187.42"/>
</a>
</g>
</g>
<!-- Node2&#45;&gt;Node3 -->
<g id="edge2_Node000002_Node000003" class="edge">
<title>Node2&#45;&gt;Node3</title>
<g id="a_edge2_Node000002_Node000003"><a xlink:title=" ">
<path fill="none" stroke="#63b8ff" d="M85.04,-54.98C75.87,-47.15 62.06,-35.34 50.97,-25.86"/>
<polygon fill="#63b8ff" stroke="#63b8ff" points="53.02,-23.01 43.14,-19.17 48.47,-28.33 53.02,-23.01"/>
</a>
</g>
</g>
<!-- Node2&#45;&gt;Node4 -->
<g id="edge3_Node000002_Node000004" class="edge">
<title>Node2&#45;&gt;Node4</title>
<g id="a_edge3_Node000002_Node000004"><a xlink:title=" ">
<path fill="none" stroke="#63b8ff" d="M113.96,-54.98C133.03,-46.42 162.66,-33.11 184.55,-23.28"/>
<polygon fill="#63b8ff" stroke="#63b8ff" points="186.01,-26.46 193.7,-19.17 183.14,-20.07 186.01,-26.46"/>
</a>
</g>
</g>
<!-- Node5 -->
<g id="Node000005" class="node">
<title>Node5</title>
<g id="a_Node000005"><a xlink:title=" ">
<polygon fill="#e0e0e0" stroke="#999999" points="168,-19 108,-19 108,0 168,0 168,-19"/>
<text text-anchor="middle" x="138" y="-7" font-family="Helvetica,sans-Serif" font-size="10.00">gtk/gtk.h</text>
</a>
</g>
</g>
<!-- Node2&#45;&gt;Node5 -->
<g id="edge4_Node000002_Node000005" class="edge">
<title>Node2&#45;&gt;Node5</title>
<g id="a_edge4_Node000002_Node000005"><a xlink:title=" ">
<path fill="none" stroke="#63b8ff" d="M102.1,-54.75C108.17,-47.26 117.09,-36.28 124.51,-27.13"/>
<polygon fill="#63b8ff" stroke="#63b8ff" points="127.45,-29.06 131.03,-19.09 122.01,-24.65 127.45,-29.06"/>
</a>
</g>
</g>
<!-- Node10&#45;&gt;Node2 -->
<g id="edge12_Node000010_Node000002" class="edge">
<title>Node10&#45;&gt;Node2</title>
<g id="a_edge12_Node000010_Node000002"><a xlink:title=" ">
<path fill="none" stroke="#63b8ff" d="M189.27,-164.95C176.51,-156.65 157.37,-143.24 143,-129 128.78,-114.91 115.29,-96.44 106.25,-83.05"/>
<polygon fill="#63b8ff" stroke="#63b8ff" points="108.93,-80.76 100.51,-74.34 103.09,-84.61 108.93,-80.76"/>
</a>
</g>
</g>
<!-- Node10&#45;&gt;Node3 -->
<g id="edge17_Node000010_Node000003" class="edge">
<title>Node10&#45;&gt;Node3</title>
<g id="a_edge17_Node000010_Node000003"><a xlink:title=" ">
<path fill="none" stroke="#63b8ff" d="M179.99,-164.95C146.32,-151.2 84.14,-120.86 52,-74 42.74,-60.51 37.91,-42.41 35.44,-28.99"/>
<polygon fill="#63b8ff" stroke="#63b8ff" points="38.88,-28.36 33.88,-19.02 31.97,-29.44 38.88,-28.36"/>
</a>
</g>
</g>
<!-- Node10&#45;&gt;Node4 -->
<g id="edge18_Node000010_Node000004" class="edge">
<title>Node10&#45;&gt;Node4</title>
<g id="a_edge18_Node000010_Node000004"><a xlink:title=" ">
<path fill="none" stroke="#63b8ff" d="M203.54,-164.74C205.1,-139.31 209.65,-65.08 211.82,-29.69"/>
<polygon fill="#63b8ff" stroke="#63b8ff" points="215.34,-29.5 212.46,-19.31 208.35,-29.07 215.34,-29.5"/>
</a>
</g>
</g>
<!-- Node10&#45;&gt;Node5 -->
<g id="edge20_Node000010_Node000005" class="edge">
<title>Node10&#45;&gt;Node5</title>
<g id="a_edge20_Node000010_Node000005"><a xlink:title=" ">
<path fill="none" stroke="#63b8ff" d="M199.51,-164.74C189.28,-139.09 159.25,-63.78 145.29,-28.78"/>
<polygon fill="#63b8ff" stroke="#63b8ff" points="148.47,-27.3 141.51,-19.31 141.97,-29.89 148.47,-27.3"/>
</a>
</g>
</g>
<!-- Node10&#45;&gt;Node6 -->
<g id="edge16_Node000010_Node000006" class="edge">
<title>Node10&#45;&gt;Node6</title>
<g id="a_edge16_Node000010_Node000006"><a xlink:title=" ">
<path fill="none" stroke="#63b8ff" d="M222.12,-164.98C241.35,-156.42 271.23,-143.11 293.31,-133.28"/>
<polygon fill="#63b8ff" stroke="#63b8ff" points="294.82,-136.44 302.53,-129.17 291.97,-130.04 294.82,-136.44"/>
</a>
</g>
</g>
<!-- Node10&#45;&gt;Node8 -->
<g id="edge19_Node000010_Node000008" class="edge">
<title>Node10&#45;&gt;Node8</title>
<g id="a_edge19_Node000010_Node000008"><a xlink:title=" ">
<path fill="none" stroke="#63b8ff" d="M238.69,-165.28C278.37,-156.13 342.62,-141.33 386.28,-131.27"/>
<polygon fill="#63b8ff" stroke="#63b8ff" points="387.13,-134.66 396.09,-129.01 385.56,-127.84 387.13,-134.66"/>
</a>
</g>
</g>
<!-- Node11 -->
<g id="Node000011" class="node">
<title>Node11</title>
<g id="a_Node000011"><a xlink:href="boxes_8h.html" target="_top" xlink:title=" ">
<polygon fill="white" stroke="#666666" points="277,-129 223,-129 223,-110 277,-110 277,-129"/>
<text text-anchor="middle" x="250" y="-117" font-family="Helvetica,sans-Serif" font-size="10.00">boxes.h</text>
</a>
</g>
</g>
<!-- Node10&#45;&gt;Node11 -->
<g id="edge13_Node000010_Node000011" class="edge">
<title>Node10&#45;&gt;Node11</title>
<g id="a_edge13_Node000010_Node000011"><a xlink:title=" ">
<path fill="none" stroke="#63b8ff" d="M210.76,-164.75C217.47,-157.18 227.34,-146.05 235.51,-136.84"/>
<polygon fill="#63b8ff" stroke="#63b8ff" points="238.37,-138.89 242.38,-129.09 233.13,-134.25 238.37,-138.89"/>
</a>
</g>
</g>
<!-- Node11&#45;&gt;Node2 -->
<g id="edge15_Node000011_Node000002" class="edge">
<title>Node11&#45;&gt;Node2</title>
<g id="a_edge15_Node000011_Node000002"><a xlink:title=" ">
<path fill="none" stroke="#63b8ff" d="M225.1,-109.98C199.3,-101.16 158.78,-87.31 129.82,-77.41"/>
<polygon fill="#63b8ff" stroke="#63b8ff" points="130.69,-74.01 120.1,-74.08 128.43,-80.63 130.69,-74.01"/>
</a>
</g>
</g>
<!-- Node11&#45;&gt;Node4 -->
<g id="edge14_Node000011_Node000004" class="edge">
<title>Node11&#45;&gt;Node4</title>
<g id="a_edge14_Node000011_Node000004"><a xlink:title=" ">
<path fill="none" stroke="#63b8ff" d="M246.97,-109.66C240.93,-92.01 227.25,-52.09 219.21,-28.64"/>
<polygon fill="#63b8ff" stroke="#63b8ff" points="222.52,-27.48 215.97,-19.16 215.9,-29.75 222.52,-27.48"/>
</a>
</g>
</g>
<!-- Node12&#45;&gt;Node6 -->
<g id="edge23_Node000012_Node000006" class="edge">
<title>Node12&#45;&gt;Node6</title>
<g id="a_edge23_Node000012_Node000006"><a xlink:title=" ">
<path fill="none" stroke="#63b8ff" d="M308.64,-164.75C310.76,-157.72 313.81,-147.62 316.46,-138.84"/>
<polygon fill="#63b8ff" stroke="#63b8ff" points="319.87,-139.67 319.41,-129.09 313.17,-137.65 319.87,-139.67"/>
</a>
</g>
</g>
<!-- Node12&#45;&gt;Node11 -->
<g id="edge22_Node000012_Node000011" class="edge">
<title>Node12&#45;&gt;Node11</title>
<g id="a_edge22_Node000012_Node000011"><a xlink:title=" ">
<path fill="none" stroke="#63b8ff" d="M297,-164.98C288.81,-157.23 276.49,-145.58 266.53,-136.14"/>
<polygon fill="#63b8ff" stroke="#63b8ff" points="268.83,-133.5 259.16,-129.17 264.02,-138.59 268.83,-133.5"/>
</a>
</g>
</g>
</g>
</svg>
