<?xml version="1.0" encoding="UTF-8" standalone="no"?>
<!DOCTYPE svg PUBLIC "-//W3C//DTD SVG 1.1//EN"
 "http://www.w3.org/Graphics/SVG/1.1/DTD/svg11.dtd">
<!-- Generated by graphviz version 2.43.0 (0)
 -->
<!-- Title: mateweather&#45;xml.h Pages: 1 -->
<svg width="232pt" height="137pt"
 viewBox="0.00 0.00 231.50 137.00" xmlns="http://www.w3.org/2000/svg" xmlns:xlink="http://www.w3.org/1999/xlink">
<g id="graph0" class="graph" transform="scale(1 1) rotate(0) translate(4 133)">
<title>mateweather&#45;xml.h</title>
<!-- Node1 -->
<g id="Node000001" class="node">
<title>Node1</title>
<g id="a_Node000001"><a xlink:title=" ">
<polygon fill="#999999" stroke="#666666" points="146.5,-129 33.5,-129 33.5,-110 146.5,-110 146.5,-129"/>
<text text-anchor="middle" x="90" y="-117" font-family="Helvetica,sans-Serif" font-size="10.00">mateweather&#45;xml.h</text>
</a>
</g>
</g>
<!-- Node2 -->
<g id="Node000002" class="node">
<title>Node2</title>
<g id="a_Node000002"><a xlink:title=" ">
<polygon fill="#e0e0e0" stroke="#999999" points="60,-74 0,-74 0,-55 60,-55 60,-74"/>
<text text-anchor="middle" x="30" y="-62" font-family="Helvetica,sans-Serif" font-size="10.00">gtk/gtk.h</text>
</a>
</g>
</g>
<!-- Node1&#45;&gt;Node2 -->
<g id="edge1_Node000001_Node000002" class="edge">
<title>Node1&#45;&gt;Node2</title>
<g id="a_edge1_Node000001_Node000002"><a xlink:title=" ">
<path fill="none" stroke="#63b8ff" d="M80.36,-109.98C71.49,-102.15 58.13,-90.34 47.39,-80.86"/>
<polygon fill="#63b8ff" stroke="#63b8ff" points="49.63,-78.17 39.82,-74.17 44.99,-83.41 49.63,-78.17"/>
</a>
</g>
</g>
<!-- Node3 -->
<g id="Node000003" class="node">
<title>Node3</title>
<g id="a_Node000003"><a xlink:href="weather_8h.html" target="_top" xlink:title=" ">
<polygon fill="white" stroke="#666666" points="223.5,-74 78.5,-74 78.5,-55 223.5,-55 223.5,-74"/>
<text text-anchor="middle" x="151" y="-62" font-family="Helvetica,sans-Serif" font-size="10.00">libmateweather/weather.h</text>
</a>
</g>
</g>
<!-- Node1&#45;&gt;Node3 -->
<g id="edge2_Node000001_Node000003" class="edge">
<title>Node1&#45;&gt;Node3</title>
<g id="a_edge2_Node000001_Node000003"><a xlink:title=" ">
<path fill="none" stroke="#63b8ff" d="M99.8,-109.98C108.82,-102.15 122.41,-90.34 133.32,-80.86"/>
<polygon fill="#63b8ff" stroke="#63b8ff" points="135.77,-83.37 141.02,-74.17 131.18,-78.09 135.77,-83.37"/>
</a>
</g>
</g>
<!-- Node4 -->
<g id="Node000004" class="node">
<title>Node4</title>
<g id="a_Node000004"><a xlink:title=" ">
<polygon fill="#e0e0e0" stroke="#999999" points="217.5,-19 84.5,-19 84.5,0 217.5,0 217.5,-19"/>
<text text-anchor="middle" x="151" y="-7" font-family="Helvetica,sans-Serif" font-size="10.00">gdk&#45;pixbuf/gdk&#45;pixbuf.h</text>
</a>
</g>
</g>
<!-- Node3&#45;&gt;Node4 -->
<g id="edge3_Node000003_Node000004" class="edge">
<title>Node3&#45;&gt;Node4</title>
<g id="a_edge3_Node000003_Node000004"><a xlink:title=" ">
<path fill="none" stroke="#63b8ff" d="M151,-54.75C151,-47.8 151,-37.85 151,-29.13"/>
<polygon fill="#63b8ff" stroke="#63b8ff" points="154.5,-29.09 151,-19.09 147.5,-29.09 154.5,-29.09"/>
</a>
</g>
</g>
</g>
</svg>
