<?xml version="1.0" encoding="UTF-8" standalone="no"?>
<!DOCTYPE svg PUBLIC "-//W3C//DTD SVG 1.1//EN"
 "http://www.w3.org/Graphics/SVG/1.1/DTD/svg11.dtd">
<!-- Generated by graphviz version 2.43.0 (0)
 -->
<!-- Title: matemixer&#45;backend&#45;module.c Pages: 1 -->
<svg width="342pt" height="137pt"
 viewBox="0.00 0.00 342.00 137.00" xmlns="http://www.w3.org/2000/svg" xmlns:xlink="http://www.w3.org/1999/xlink">
<g id="graph0" class="graph" transform="scale(1 1) rotate(0) translate(4 133)">
<title>matemixer&#45;backend&#45;module.c</title>
<!-- Node1 -->
<g id="Node000001" class="node">
<title>Node1</title>
<g id="a_Node000001"><a xlink:title=" ">
<polygon fill="#999999" stroke="#666666" points="264.5,-129 101.5,-129 101.5,-110 264.5,-110 264.5,-129"/>
<text text-anchor="middle" x="183" y="-117" font-family="Helvetica,sans-Serif" font-size="10.00">matemixer&#45;backend&#45;module.c</text>
</a>
</g>
</g>
<!-- Node2 -->
<g id="Node000002" class="node">
<title>Node2</title>
<g id="a_Node000002"><a xlink:title=" ">
<polygon fill="#e0e0e0" stroke="#999999" points="44,-19 0,-19 0,0 44,0 44,-19"/>
<text text-anchor="middle" x="22" y="-7" font-family="Helvetica,sans-Serif" font-size="10.00">glib.h</text>
</a>
</g>
</g>
<!-- Node1&#45;&gt;Node2 -->
<g id="edge1_Node000001_Node000002" class="edge">
<title>Node1&#45;&gt;Node2</title>
<g id="a_edge1_Node000001_Node000002"><a xlink:title=" ">
<path fill="none" stroke="#63b8ff" d="M103.97,-109.92C79.55,-103.56 54.49,-92.65 37,-74 25.75,-62.01 22.43,-43.19 21.67,-29.15"/>
<polygon fill="#63b8ff" stroke="#63b8ff" points="25.17,-29.08 21.51,-19.14 18.17,-29.19 25.17,-29.08"/>
</a>
</g>
</g>
<!-- Node3 -->
<g id="Node000003" class="node">
<title>Node3</title>
<g id="a_Node000003"><a xlink:title=" ">
<polygon fill="#e0e0e0" stroke="#999999" points="276.5,-19 199.5,-19 199.5,0 276.5,0 276.5,-19"/>
<text text-anchor="middle" x="238" y="-7" font-family="Helvetica,sans-Serif" font-size="10.00">glib&#45;object.h</text>
</a>
</g>
</g>
<!-- Node1&#45;&gt;Node3 -->
<g id="edge2_Node000001_Node000003" class="edge">
<title>Node1&#45;&gt;Node3</title>
<g id="a_edge2_Node000001_Node000003"><a xlink:title=" ">
<path fill="none" stroke="#63b8ff" d="M191.88,-109.71C199.98,-101.24 211.77,-87.71 219,-74 226.48,-59.83 231.44,-42.29 234.41,-29.24"/>
<polygon fill="#63b8ff" stroke="#63b8ff" points="237.91,-29.63 236.53,-19.12 231.06,-28.2 237.91,-29.63"/>
</a>
</g>
</g>
<!-- Node4 -->
<g id="Node000004" class="node">
<title>Node4</title>
<g id="a_Node000004"><a xlink:title=" ">
<polygon fill="#e0e0e0" stroke="#999999" points="334,-74 266,-74 266,-55 334,-55 334,-74"/>
<text text-anchor="middle" x="300" y="-62" font-family="Helvetica,sans-Serif" font-size="10.00">gmodule.h</text>
</a>
</g>
</g>
<!-- Node1&#45;&gt;Node4 -->
<g id="edge3_Node000001_Node000004" class="edge">
<title>Node1&#45;&gt;Node4</title>
<g id="a_edge3_Node000001_Node000004"><a xlink:title=" ">
<path fill="none" stroke="#63b8ff" d="M201.8,-109.98C220.62,-101.46 249.82,-88.23 271.5,-78.41"/>
<polygon fill="#63b8ff" stroke="#63b8ff" points="273.2,-81.48 280.86,-74.17 270.31,-75.11 273.2,-81.48"/>
</a>
</g>
</g>
<!-- Node5 -->
<g id="Node000005" class="node">
<title>Node5</title>
<g id="a_Node000005"><a xlink:href="matemixer-backend-module_8h.html" target="_top" xlink:title=" ">
<polygon fill="white" stroke="#666666" points="210,-74 46,-74 46,-55 210,-55 210,-74"/>
<text text-anchor="middle" x="128" y="-62" font-family="Helvetica,sans-Serif" font-size="10.00">matemixer&#45;backend&#45;module.h</text>
</a>
</g>
</g>
<!-- Node1&#45;&gt;Node5 -->
<g id="edge4_Node000001_Node000005" class="edge">
<title>Node1&#45;&gt;Node5</title>
<g id="a_edge4_Node000001_Node000005"><a xlink:title=" ">
<path fill="none" stroke="#63b8ff" d="M173.92,-109.75C165.91,-102.03 154.04,-90.6 144.38,-81.28"/>
<polygon fill="#63b8ff" stroke="#63b8ff" points="146.54,-78.51 136.91,-74.09 141.69,-83.55 146.54,-78.51"/>
</a>
</g>
</g>
<!-- Node5&#45;&gt;Node2 -->
<g id="edge5_Node000005_Node000002" class="edge">
<title>Node5&#45;&gt;Node2</title>
<g id="a_edge5_Node000005_Node000002"><a xlink:title=" ">
<path fill="none" stroke="#63b8ff" d="M110.97,-54.98C94.07,-46.54 67.94,-33.47 48.36,-23.68"/>
<polygon fill="#63b8ff" stroke="#63b8ff" points="49.85,-20.51 39.34,-19.17 46.72,-26.77 49.85,-20.51"/>
</a>
</g>
</g>
<!-- Node5&#45;&gt;Node3 -->
<g id="edge6_Node000005_Node000003" class="edge">
<title>Node5&#45;&gt;Node3</title>
<g id="a_edge6_Node000005_Node000003"><a xlink:title=" ">
<path fill="none" stroke="#63b8ff" d="M145.67,-54.98C163.29,-46.5 190.58,-33.35 210.93,-23.54"/>
<polygon fill="#63b8ff" stroke="#63b8ff" points="212.52,-26.66 220.01,-19.17 209.48,-20.36 212.52,-26.66"/>
</a>
</g>
</g>
<!-- Node6 -->
<g id="Node000006" class="node">
<title>Node6</title>
<g id="a_Node000006"><a xlink:href="matemixer-enums_8h.html" target="_top" xlink:title=" ">
<polygon fill="white" stroke="#666666" points="181,-19 65,-19 65,0 181,0 181,-19"/>
<text text-anchor="middle" x="123" y="-7" font-family="Helvetica,sans-Serif" font-size="10.00">matemixer&#45;enums.h</text>
</a>
</g>
</g>
<!-- Node5&#45;&gt;Node6 -->
<g id="edge7_Node000005_Node000006" class="edge">
<title>Node5&#45;&gt;Node6</title>
<g id="a_edge7_Node000005_Node000006"><a xlink:title=" ">
<path fill="none" stroke="#63b8ff" d="M127.17,-54.75C126.52,-47.8 125.58,-37.85 124.76,-29.13"/>
<polygon fill="#63b8ff" stroke="#63b8ff" points="128.23,-28.72 123.81,-19.09 121.27,-29.37 128.23,-28.72"/>
</a>
</g>
</g>
</g>
</svg>
