<?xml version="1.0" encoding="UTF-8" standalone="no"?>
<!DOCTYPE svg PUBLIC "-//W3C//DTD SVG 1.1//EN"
 "http://www.w3.org/Graphics/SVG/1.1/DTD/svg11.dtd">
<!-- Generated by graphviz version 2.43.0 (0)
 -->
<!-- Title: mateweather&#45;timezone.c Pages: 1 -->
<svg width="817pt" height="247pt"
 viewBox="0.00 0.00 816.83 247.00" xmlns="http://www.w3.org/2000/svg" xmlns:xlink="http://www.w3.org/1999/xlink">
<g id="graph0" class="graph" transform="scale(1 1) rotate(0) translate(4 243)">
<title>mateweather&#45;timezone.c</title>
<!-- Node1 -->
<g id="Node000001" class="node">
<title>Node1</title>
<g id="a_Node000001"><a xlink:title=" ">
<polygon fill="#999999" stroke="#666666" points="248.33,-239 108.33,-239 108.33,-220 248.33,-220 248.33,-239"/>
<text text-anchor="middle" x="178.33" y="-227" font-family="Helvetica,sans-Serif" font-size="10.00">mateweather&#45;timezone.c</text>
</a>
</g>
</g>
<!-- Node2 -->
<g id="Node000002" class="node">
<title>Node2</title>
<g id="a_Node000002"><a xlink:title=" ">
<polygon fill="#e0e0e0" stroke="#999999" points="232.83,-129 179.83,-129 179.83,-110 232.83,-110 232.83,-129"/>
<text text-anchor="middle" x="206.33" y="-117" font-family="Helvetica,sans-Serif" font-size="10.00">string.h</text>
</a>
</g>
</g>
<!-- Node1&#45;&gt;Node2 -->
<g id="edge1_Node000001_Node000002" class="edge">
<title>Node1&#45;&gt;Node2</title>
<g id="a_edge1_Node000001_Node000002"><a xlink:title=" ">
<path fill="none" stroke="#63b8ff" d="M180.62,-219.66C185.17,-202.09 195.45,-162.45 201.54,-138.95"/>
<polygon fill="#63b8ff" stroke="#63b8ff" points="204.96,-139.72 204.08,-129.16 198.18,-137.96 204.96,-139.72"/>
</a>
</g>
</g>
<!-- Node3 -->
<g id="Node000003" class="node">
<title>Node3</title>
<g id="a_Node000003"><a xlink:href="mateweather-timezone_8h.html" target="_top" xlink:title=" ">
<polygon fill="white" stroke="#666666" points="221.33,-74 81.33,-74 81.33,-55 221.33,-55 221.33,-74"/>
<text text-anchor="middle" x="151.33" y="-62" font-family="Helvetica,sans-Serif" font-size="10.00">mateweather&#45;timezone.h</text>
</a>
</g>
</g>
<!-- Node1&#45;&gt;Node3 -->
<g id="edge2_Node000001_Node000003" class="edge">
<title>Node1&#45;&gt;Node3</title>
<g id="a_edge2_Node000001_Node000003"><a xlink:title=" ">
<path fill="none" stroke="#63b8ff" d="M176.87,-219.74C172.64,-194.2 160.26,-119.43 154.43,-84.23"/>
<polygon fill="#63b8ff" stroke="#63b8ff" points="157.87,-83.6 152.79,-74.31 150.97,-84.74 157.87,-83.6"/>
</a>
</g>
</g>
<!-- Node5 -->
<g id="Node000005" class="node">
<title>Node5</title>
<g id="a_Node000005"><a xlink:href="libmateweather_2libmateweather_2parser_8h.html" target="_top" xlink:title=" ">
<polygon fill="white" stroke="#666666" points="96.33,-184 40.33,-184 40.33,-165 96.33,-165 96.33,-184"/>
<text text-anchor="middle" x="68.33" y="-172" font-family="Helvetica,sans-Serif" font-size="10.00">parser.h</text>
</a>
</g>
</g>
<!-- Node1&#45;&gt;Node5 -->
<g id="edge4_Node000001_Node000005" class="edge">
<title>Node1&#45;&gt;Node5</title>
<g id="a_edge4_Node000001_Node000005"><a xlink:title=" ">
<path fill="none" stroke="#63b8ff" d="M160.65,-219.98C143.04,-211.5 115.75,-198.35 95.4,-188.54"/>
<polygon fill="#63b8ff" stroke="#63b8ff" points="96.85,-185.36 86.32,-184.17 93.81,-191.66 96.85,-185.36"/>
</a>
</g>
</g>
<!-- Node7 -->
<g id="Node000007" class="node">
<title>Node7</title>
<g id="a_Node000007"><a xlink:href="weather-priv_8h.html" target="_top" xlink:title=" ">
<polygon fill="white" stroke="#666666" points="561.83,-184 474.83,-184 474.83,-165 561.83,-165 561.83,-184"/>
<text text-anchor="middle" x="518.33" y="-172" font-family="Helvetica,sans-Serif" font-size="10.00">weather&#45;priv.h</text>
</a>
</g>
</g>
<!-- Node1&#45;&gt;Node7 -->
<g id="edge7_Node000001_Node000007" class="edge">
<title>Node1&#45;&gt;Node7</title>
<g id="a_edge7_Node000001_Node000007"><a xlink:title=" ">
<path fill="none" stroke="#63b8ff" d="M232.95,-219.98C296.61,-210.06 401.14,-193.77 464.46,-183.9"/>
<polygon fill="#63b8ff" stroke="#63b8ff" points="465.3,-187.31 474.64,-182.31 464.22,-180.39 465.3,-187.31"/>
</a>
</g>
</g>
<!-- Node4 -->
<g id="Node000004" class="node">
<title>Node4</title>
<g id="a_Node000004"><a xlink:title=" ">
<polygon fill="#e0e0e0" stroke="#999999" points="189.83,-19 112.83,-19 112.83,0 189.83,0 189.83,-19"/>
<text text-anchor="middle" x="151.33" y="-7" font-family="Helvetica,sans-Serif" font-size="10.00">glib&#45;object.h</text>
</a>
</g>
</g>
<!-- Node3&#45;&gt;Node4 -->
<g id="edge3_Node000003_Node000004" class="edge">
<title>Node3&#45;&gt;Node4</title>
<g id="a_edge3_Node000003_Node000004"><a xlink:title=" ">
<path fill="none" stroke="#63b8ff" d="M151.33,-54.75C151.33,-47.8 151.33,-37.85 151.33,-29.13"/>
<polygon fill="#63b8ff" stroke="#63b8ff" points="154.83,-29.09 151.33,-19.09 147.83,-29.09 154.83,-29.09"/>
</a>
</g>
</g>
<!-- Node5&#45;&gt;Node3 -->
<g id="edge6_Node000005_Node000003" class="edge">
<title>Node5&#45;&gt;Node3</title>
<g id="a_edge6_Node000005_Node000003"><a xlink:title=" ">
<path fill="none" stroke="#63b8ff" d="M47.84,-164.86C23.5,-153.35 -11.9,-131.87 4.33,-110 20.04,-88.83 45.54,-77.37 70.93,-71.29"/>
<polygon fill="#63b8ff" stroke="#63b8ff" points="71.96,-74.64 81.01,-69.14 70.5,-67.8 71.96,-74.64"/>
</a>
</g>
</g>
<!-- Node6 -->
<g id="Node000006" class="node">
<title>Node6</title>
<g id="a_Node000006"><a xlink:title=" ">
<polygon fill="#e0e0e0" stroke="#999999" points="122.83,-129 13.83,-129 13.83,-110 122.83,-110 122.83,-129"/>
<text text-anchor="middle" x="68.33" y="-117" font-family="Helvetica,sans-Serif" font-size="10.00">libxml/xmlreader.h</text>
</a>
</g>
</g>
<!-- Node5&#45;&gt;Node6 -->
<g id="edge5_Node000005_Node000006" class="edge">
<title>Node5&#45;&gt;Node6</title>
<g id="a_edge5_Node000005_Node000006"><a xlink:title=" ">
<path fill="none" stroke="#63b8ff" d="M68.33,-164.75C68.33,-157.8 68.33,-147.85 68.33,-139.13"/>
<polygon fill="#63b8ff" stroke="#63b8ff" points="71.83,-139.09 68.33,-129.09 64.83,-139.09 71.83,-139.09"/>
</a>
</g>
</g>
<!-- Node7&#45;&gt;Node2 -->
<g id="edge9_Node000007_Node000002" class="edge">
<title>Node7&#45;&gt;Node2</title>
<g id="a_edge9_Node000007_Node000002"><a xlink:title=" ">
<path fill="none" stroke="#63b8ff" d="M474.65,-167.45C422.06,-159.95 330.87,-146.24 242.89,-128.98"/>
<polygon fill="#63b8ff" stroke="#63b8ff" points="243.51,-125.54 233.02,-127.03 242.15,-132.4 243.51,-125.54"/>
</a>
</g>
</g>
<!-- Node8 -->
<g id="Node000008" class="node">
<title>Node8</title>
<g id="a_Node000008"><a xlink:title=" ">
<polygon fill="#e0e0e0" stroke="#999999" points="601.83,-129 546.83,-129 546.83,-110 601.83,-110 601.83,-129"/>
<text text-anchor="middle" x="574.33" y="-117" font-family="Helvetica,sans-Serif" font-size="10.00">config.h</text>
</a>
</g>
</g>
<!-- Node7&#45;&gt;Node8 -->
<g id="edge8_Node000007_Node000008" class="edge">
<title>Node7&#45;&gt;Node8</title>
<g id="a_edge8_Node000007_Node000008"><a xlink:title=" ">
<path fill="none" stroke="#63b8ff" d="M527.32,-164.98C535.52,-157.23 547.83,-145.58 557.8,-136.14"/>
<polygon fill="#63b8ff" stroke="#63b8ff" points="560.31,-138.59 565.17,-129.17 555.5,-133.5 560.31,-138.59"/>
</a>
</g>
</g>
<!-- Node9 -->
<g id="Node000009" class="node">
<title>Node9</title>
<g id="a_Node000009"><a xlink:title=" ">
<polygon fill="#e0e0e0" stroke="#999999" points="668.33,-129 620.33,-129 620.33,-110 668.33,-110 668.33,-129"/>
<text text-anchor="middle" x="644.33" y="-117" font-family="Helvetica,sans-Serif" font-size="10.00">time.h</text>
</a>
</g>
</g>
<!-- Node7&#45;&gt;Node9 -->
<g id="edge10_Node000007_Node000009" class="edge">
<title>Node7&#45;&gt;Node9</title>
<g id="a_edge10_Node000007_Node000009"><a xlink:title=" ">
<path fill="none" stroke="#63b8ff" d="M538.57,-164.98C559.02,-156.38 590.86,-142.99 614.26,-133.15"/>
<polygon fill="#63b8ff" stroke="#63b8ff" points="615.85,-136.27 623.71,-129.17 613.14,-129.82 615.85,-136.27"/>
</a>
</g>
</g>
<!-- Node10 -->
<g id="Node000010" class="node">
<title>Node10</title>
<g id="a_Node000010"><a xlink:title=" ">
<polygon fill="#e0e0e0" stroke="#999999" points="739.83,-129 686.83,-129 686.83,-110 739.83,-110 739.83,-129"/>
<text text-anchor="middle" x="713.33" y="-117" font-family="Helvetica,sans-Serif" font-size="10.00">libintl.h</text>
</a>
</g>
</g>
<!-- Node7&#45;&gt;Node10 -->
<g id="edge11_Node000007_Node000010" class="edge">
<title>Node7&#45;&gt;Node10</title>
<g id="a_edge11_Node000007_Node000010"><a xlink:title=" ">
<path fill="none" stroke="#63b8ff" d="M549.66,-164.98C584.39,-155.54 640.35,-140.33 676.99,-130.38"/>
<polygon fill="#63b8ff" stroke="#63b8ff" points="678.04,-133.72 686.77,-127.72 676.2,-126.96 678.04,-133.72"/>
</a>
</g>
</g>
<!-- Node11 -->
<g id="Node000011" class="node">
<title>Node11</title>
<g id="a_Node000011"><a xlink:title=" ">
<polygon fill="#e0e0e0" stroke="#999999" points="808.83,-129 757.83,-129 757.83,-110 808.83,-110 808.83,-129"/>
<text text-anchor="middle" x="783.33" y="-117" font-family="Helvetica,sans-Serif" font-size="10.00">math.h</text>
</a>
</g>
</g>
<!-- Node7&#45;&gt;Node11 -->
<g id="edge12_Node000007_Node000011" class="edge">
<title>Node7&#45;&gt;Node11</title>
<g id="a_edge12_Node000007_Node000011"><a xlink:title=" ">
<path fill="none" stroke="#63b8ff" d="M561.9,-165.84C606.36,-157.86 677.57,-144.63 747.84,-129.24"/>
<polygon fill="#63b8ff" stroke="#63b8ff" points="748.73,-132.63 757.74,-127.06 747.22,-125.79 748.73,-132.63"/>
</a>
</g>
</g>
<!-- Node12 -->
<g id="Node000012" class="node">
<title>Node12</title>
<g id="a_Node000012"><a xlink:title=" ">
<polygon fill="#e0e0e0" stroke="#999999" points="337.83,-129 250.83,-129 250.83,-110 337.83,-110 337.83,-129"/>
<text text-anchor="middle" x="294.33" y="-117" font-family="Helvetica,sans-Serif" font-size="10.00">libsoup/soup.h</text>
</a>
</g>
</g>
<!-- Node7&#45;&gt;Node12 -->
<g id="edge13_Node000007_Node000012" class="edge">
<title>Node7&#45;&gt;Node12</title>
<g id="a_edge13_Node000007_Node000012"><a xlink:title=" ">
<path fill="none" stroke="#63b8ff" d="M482.34,-164.98C443.83,-155.87 382.64,-141.4 340.59,-131.45"/>
<polygon fill="#63b8ff" stroke="#63b8ff" points="341.14,-127.98 330.6,-129.08 339.52,-134.79 341.14,-127.98"/>
</a>
</g>
</g>
<!-- Node13 -->
<g id="Node000013" class="node">
<title>Node13</title>
<g id="a_Node000013"><a xlink:href="weather_8h.html" target="_top" xlink:title=" ">
<polygon fill="white" stroke="#666666" points="539.83,-74 474.83,-74 474.83,-55 539.83,-55 539.83,-74"/>
<text text-anchor="middle" x="507.33" y="-62" font-family="Helvetica,sans-Serif" font-size="10.00">weather.h</text>
</a>
</g>
</g>
<!-- Node7&#45;&gt;Node13 -->
<g id="edge14_Node000007_Node000013" class="edge">
<title>Node7&#45;&gt;Node13</title>
<g id="a_edge14_Node000007_Node000013"><a xlink:title=" ">
<path fill="none" stroke="#63b8ff" d="M517.43,-164.66C515.64,-147.17 511.64,-107.8 509.24,-84.27"/>
<polygon fill="#63b8ff" stroke="#63b8ff" points="512.7,-83.75 508.21,-74.16 505.74,-84.46 512.7,-83.75"/>
</a>
</g>
</g>
<!-- Node15 -->
<g id="Node000015" class="node">
<title>Node15</title>
<g id="a_Node000015"><a xlink:href="mateweather-location_8h.html" target="_top" xlink:title=" ">
<polygon fill="white" stroke="#666666" points="490.33,-129 356.33,-129 356.33,-110 490.33,-110 490.33,-129"/>
<text text-anchor="middle" x="423.33" y="-117" font-family="Helvetica,sans-Serif" font-size="10.00">mateweather&#45;location.h</text>
</a>
</g>
</g>
<!-- Node7&#45;&gt;Node15 -->
<g id="edge16_Node000007_Node000015" class="edge">
<title>Node7&#45;&gt;Node15</title>
<g id="a_edge16_Node000007_Node000015"><a xlink:title=" ">
<path fill="none" stroke="#63b8ff" d="M503.06,-164.98C488.19,-156.69 465.34,-143.94 447.91,-134.22"/>
<polygon fill="#63b8ff" stroke="#63b8ff" points="449.31,-130.99 438.87,-129.17 445.9,-137.1 449.31,-130.99"/>
</a>
</g>
</g>
<!-- Node14 -->
<g id="Node000014" class="node">
<title>Node14</title>
<g id="a_Node000014"><a xlink:title=" ">
<polygon fill="#e0e0e0" stroke="#999999" points="573.83,-19 440.83,-19 440.83,0 573.83,0 573.83,-19"/>
<text text-anchor="middle" x="507.33" y="-7" font-family="Helvetica,sans-Serif" font-size="10.00">gdk&#45;pixbuf/gdk&#45;pixbuf.h</text>
</a>
</g>
</g>
<!-- Node13&#45;&gt;Node14 -->
<g id="edge15_Node000013_Node000014" class="edge">
<title>Node13&#45;&gt;Node14</title>
<g id="a_edge15_Node000013_Node000014"><a xlink:title=" ">
<path fill="none" stroke="#63b8ff" d="M507.33,-54.75C507.33,-47.8 507.33,-37.85 507.33,-29.13"/>
<polygon fill="#63b8ff" stroke="#63b8ff" points="510.83,-29.09 507.33,-19.09 503.83,-29.09 510.83,-29.09"/>
</a>
</g>
</g>
<!-- Node15&#45;&gt;Node3 -->
<g id="edge18_Node000015_Node000003" class="edge">
<title>Node15&#45;&gt;Node3</title>
<g id="a_edge18_Node000015_Node000003"><a xlink:title=" ">
<path fill="none" stroke="#63b8ff" d="M379.62,-109.98C332.18,-100.74 256.36,-85.97 205.25,-76.01"/>
<polygon fill="#63b8ff" stroke="#63b8ff" points="205.86,-72.56 195.37,-74.08 204.52,-79.43 205.86,-72.56"/>
</a>
</g>
</g>
<!-- Node15&#45;&gt;Node13 -->
<g id="edge19_Node000015_Node000013" class="edge">
<title>Node15&#45;&gt;Node13</title>
<g id="a_edge19_Node000015_Node000013"><a xlink:title=" ">
<path fill="none" stroke="#63b8ff" d="M436.82,-109.98C449.73,-101.84 469.43,-89.41 484.73,-79.76"/>
<polygon fill="#63b8ff" stroke="#63b8ff" points="487,-82.47 493.58,-74.17 483.26,-76.55 487,-82.47"/>
</a>
</g>
</g>
<!-- Node16 -->
<g id="Node000016" class="node">
<title>Node16</title>
<g id="a_Node000016"><a xlink:title=" ">
<polygon fill="#e0e0e0" stroke="#999999" points="445.33,-74 401.33,-74 401.33,-55 445.33,-55 445.33,-74"/>
<text text-anchor="middle" x="423.33" y="-62" font-family="Helvetica,sans-Serif" font-size="10.00">glib.h</text>
</a>
</g>
</g>
<!-- Node15&#45;&gt;Node16 -->
<g id="edge17_Node000015_Node000016" class="edge">
<title>Node15&#45;&gt;Node16</title>
<g id="a_edge17_Node000015_Node000016"><a xlink:title=" ">
<path fill="none" stroke="#63b8ff" d="M423.33,-109.75C423.33,-102.8 423.33,-92.85 423.33,-84.13"/>
<polygon fill="#63b8ff" stroke="#63b8ff" points="426.83,-84.09 423.33,-74.09 419.83,-84.09 426.83,-84.09"/>
</a>
</g>
</g>
</g>
</svg>
