<?xml version="1.0" encoding="UTF-8" standalone="no"?>
<!DOCTYPE svg PUBLIC "-//W3C//DTD SVG 1.1//EN"
 "http://www.w3.org/Graphics/SVG/1.1/DTD/svg11.dtd">
<!-- Generated by graphviz version 2.43.0 (0)
 -->
<!-- Title: mate&#45;theme&#45;info.h Pages: 1 -->
<svg width="1703pt" height="137pt"
 viewBox="0.00 0.00 1703.00 137.00" xmlns="http://www.w3.org/2000/svg" xmlns:xlink="http://www.w3.org/1999/xlink">
<g id="graph0" class="graph" transform="scale(1 1) rotate(0) translate(4 133)">
<title>mate&#45;theme&#45;info.h</title>
<!-- Node1 -->
<g id="Node000001" class="node">
<title>Node1</title>
<g id="a_Node000001"><a xlink:title=" ">
<polygon fill="#999999" stroke="#666666" points="920,-129 811,-129 811,-110 920,-110 920,-129"/>
<text text-anchor="middle" x="865.5" y="-117" font-family="Helvetica,sans-Serif" font-size="10.00">mate&#45;theme&#45;info.h</text>
</a>
</g>
</g>
<!-- Node2 -->
<g id="Node000002" class="node">
<title>Node2</title>
<g id="a_Node000002"><a xlink:href="appearance_8h.html" target="_top" xlink:title=" ">
<polygon fill="white" stroke="#666666" points="907,-74 824,-74 824,-55 907,-55 907,-74"/>
<text text-anchor="middle" x="865.5" y="-62" font-family="Helvetica,sans-Serif" font-size="10.00">appearance.h</text>
</a>
</g>
</g>
<!-- Node1&#45;&gt;Node2 -->
<g id="edge1_Node000001_Node000002" class="edge">
<title>Node1&#45;&gt;Node2</title>
<g id="a_edge1_Node000001_Node000002"><a xlink:title=" ">
<path fill="none" stroke="#63b8ff" d="M865.5,-99.66C865.5,-90.93 865.5,-80.99 865.5,-74.09"/>
<polygon fill="#63b8ff" stroke="#63b8ff" points="862,-99.75 865.5,-109.75 869,-99.75 862,-99.75"/>
</a>
</g>
</g>
<!-- Node15 -->
<g id="Node000015" class="node">
<title>Node15</title>
<g id="a_Node000015"><a xlink:href="mate-theme-apply_8h.html" target="_top" xlink:title=" ">
<polygon fill="white" stroke="#666666" points="380.5,-74 264.5,-74 264.5,-55 380.5,-55 380.5,-74"/>
<text text-anchor="middle" x="322.5" y="-62" font-family="Helvetica,sans-Serif" font-size="10.00">mate&#45;theme&#45;apply.h</text>
</a>
</g>
</g>
<!-- Node1&#45;&gt;Node15 -->
<g id="edge14_Node000001_Node000015" class="edge">
<title>Node1&#45;&gt;Node15</title>
<g id="a_edge14_Node000001_Node000015"><a xlink:title=" ">
<path fill="none" stroke="#63b8ff" d="M800.65,-112.96C709.46,-105.04 538.19,-89.7 392.5,-74 388.61,-73.58 384.59,-73.13 380.55,-72.67"/>
<polygon fill="#63b8ff" stroke="#63b8ff" points="800.56,-116.46 810.83,-113.84 801.17,-109.49 800.56,-116.46"/>
</a>
</g>
</g>
<!-- Node17 -->
<g id="Node000017" class="node">
<title>Node17</title>
<g id="a_Node000017"><a xlink:href="mate-theme-info_8c.html" target="_top" xlink:title=" ">
<polygon fill="white" stroke="#666666" points="1033.5,-74 925.5,-74 925.5,-55 1033.5,-55 1033.5,-74"/>
<text text-anchor="middle" x="979.5" y="-62" font-family="Helvetica,sans-Serif" font-size="10.00">mate&#45;theme&#45;info.c</text>
</a>
</g>
</g>
<!-- Node1&#45;&gt;Node17 -->
<g id="edge17_Node000001_Node000017" class="edge">
<title>Node1&#45;&gt;Node17</title>
<g id="a_edge17_Node000001_Node000017"><a xlink:title=" ">
<path fill="none" stroke="#63b8ff" d="M892.89,-105.77C913.92,-95.99 942.39,-82.75 960.85,-74.17"/>
<polygon fill="#63b8ff" stroke="#63b8ff" points="891.41,-102.6 883.82,-109.98 894.36,-108.94 891.41,-102.6"/>
</a>
</g>
</g>
<!-- Node18 -->
<g id="Node000018" class="node">
<title>Node18</title>
<g id="a_Node000018"><a xlink:href="mate-theme-test_8c.html" target="_top" xlink:title=" ">
<polygon fill="white" stroke="#666666" points="1159.5,-74 1051.5,-74 1051.5,-55 1159.5,-55 1159.5,-74"/>
<text text-anchor="middle" x="1105.5" y="-62" font-family="Helvetica,sans-Serif" font-size="10.00">mate&#45;theme&#45;test.c</text>
</a>
</g>
</g>
<!-- Node1&#45;&gt;Node18 -->
<g id="edge18_Node000001_Node000018" class="edge">
<title>Node1&#45;&gt;Node18</title>
<g id="a_edge18_Node000001_Node000018"><a xlink:title=" ">
<path fill="none" stroke="#63b8ff" d="M913.88,-107.82C958.86,-97.88 1025,-83.28 1066.64,-74.08"/>
<polygon fill="#63b8ff" stroke="#63b8ff" points="913.07,-104.41 904.06,-109.98 914.58,-111.25 913.07,-104.41"/>
</a>
</g>
</g>
<!-- Node19 -->
<g id="Node000019" class="node">
<title>Node19</title>
<g id="a_Node000019"><a xlink:href="theme-thumbnail_8h.html" target="_top" xlink:title=" ">
<polygon fill="white" stroke="#666666" points="511.5,-74 401.5,-74 401.5,-55 511.5,-55 511.5,-74"/>
<text text-anchor="middle" x="456.5" y="-62" font-family="Helvetica,sans-Serif" font-size="10.00">theme&#45;thumbnail.h</text>
</a>
</g>
</g>
<!-- Node1&#45;&gt;Node19 -->
<g id="edge19_Node000001_Node000019" class="edge">
<title>Node1&#45;&gt;Node19</title>
<g id="a_edge19_Node000001_Node000019"><a xlink:title=" ">
<path fill="none" stroke="#63b8ff" d="M800.83,-110.12C721.02,-99.78 586.68,-82.37 511.56,-72.64"/>
<polygon fill="#63b8ff" stroke="#63b8ff" points="800.4,-113.59 810.76,-111.41 801.3,-106.65 800.4,-113.59"/>
</a>
</g>
</g>
<!-- Node3 -->
<g id="Node000003" class="node">
<title>Node3</title>
<g id="a_Node000003"><a xlink:href="appearance-desktop_8c.html" target="_top" xlink:title=" ">
<polygon fill="white" stroke="#666666" points="1096,-19 971,-19 971,0 1096,0 1096,-19"/>
<text text-anchor="middle" x="1033.5" y="-7" font-family="Helvetica,sans-Serif" font-size="10.00">appearance&#45;desktop.c</text>
</a>
</g>
</g>
<!-- Node2&#45;&gt;Node3 -->
<g id="edge2_Node000002_Node000003" class="edge">
<title>Node2&#45;&gt;Node3</title>
<g id="a_edge2_Node000002_Node000003"><a xlink:title=" ">
<path fill="none" stroke="#63b8ff" d="M902.18,-51.93C933.56,-42.03 978.01,-28.01 1006.3,-19.08"/>
<polygon fill="#63b8ff" stroke="#63b8ff" points="900.98,-48.64 892.49,-54.98 903.08,-55.31 900.98,-48.64"/>
</a>
</g>
</g>
<!-- Node4 -->
<g id="Node000004" class="node">
<title>Node4</title>
<g id="a_Node000004"><a xlink:href="appearance-font_8c.html" target="_top" xlink:title=" ">
<polygon fill="white" stroke="#666666" points="1219,-19 1114,-19 1114,0 1219,0 1219,-19"/>
<text text-anchor="middle" x="1166.5" y="-7" font-family="Helvetica,sans-Serif" font-size="10.00">appearance&#45;font.c</text>
</a>
</g>
</g>
<!-- Node2&#45;&gt;Node4 -->
<g id="edge3_Node000002_Node000004" class="edge">
<title>Node2&#45;&gt;Node4</title>
<g id="a_edge3_Node000002_Node000004"><a xlink:title=" ">
<path fill="none" stroke="#63b8ff" d="M917.16,-54.4C973.56,-44.47 1063.14,-28.7 1118.18,-19.01"/>
<polygon fill="#63b8ff" stroke="#63b8ff" points="916.28,-51.01 907.04,-56.19 917.49,-57.9 916.28,-51.01"/>
</a>
</g>
</g>
<!-- Node5 -->
<g id="Node000005" class="node">
<title>Node5</title>
<g id="a_Node000005"><a xlink:href="appearance-main_8c.html" target="_top" xlink:title=" ">
<polygon fill="white" stroke="#666666" points="511.5,-19 401.5,-19 401.5,0 511.5,0 511.5,-19"/>
<text text-anchor="middle" x="456.5" y="-7" font-family="Helvetica,sans-Serif" font-size="10.00">appearance&#45;main.c</text>
</a>
</g>
</g>
<!-- Node2&#45;&gt;Node5 -->
<g id="edge4_Node000002_Node000005" class="edge">
<title>Node2&#45;&gt;Node5</title>
<g id="a_edge4_Node000002_Node000005"><a xlink:title=" ">
<path fill="none" stroke="#63b8ff" d="M813.85,-56.9C746.39,-48.26 624.59,-32.63 520.5,-19 517.61,-18.62 514.65,-18.23 511.66,-17.84"/>
<polygon fill="#63b8ff" stroke="#63b8ff" points="813.44,-60.38 823.81,-58.17 814.33,-53.43 813.44,-60.38"/>
</a>
</g>
</g>
<!-- Node6 -->
<g id="Node000006" class="node">
<title>Node6</title>
<g id="a_Node000006"><a xlink:href="appearance-style_8c.html" target="_top" xlink:title=" ">
<polygon fill="white" stroke="#666666" points="639.5,-19 529.5,-19 529.5,0 639.5,0 639.5,-19"/>
<text text-anchor="middle" x="584.5" y="-7" font-family="Helvetica,sans-Serif" font-size="10.00">appearance&#45;style.c</text>
</a>
</g>
</g>
<!-- Node2&#45;&gt;Node6 -->
<g id="edge5_Node000002_Node000006" class="edge">
<title>Node2&#45;&gt;Node6</title>
<g id="a_edge5_Node000002_Node000006"><a xlink:title=" ">
<path fill="none" stroke="#63b8ff" d="M813.91,-53.77C761.17,-43.82 680.07,-28.53 629.76,-19.04"/>
<polygon fill="#63b8ff" stroke="#63b8ff" points="813.26,-57.21 823.73,-55.62 814.56,-50.33 813.26,-57.21"/>
</a>
</g>
</g>
<!-- Node7 -->
<g id="Node000007" class="node">
<title>Node7</title>
<g id="a_Node000007"><a xlink:href="appearance-support_8c.html" target="_top" xlink:title=" ">
<polygon fill="white" stroke="#666666" points="1359.5,-19 1237.5,-19 1237.5,0 1359.5,0 1359.5,-19"/>
<text text-anchor="middle" x="1298.5" y="-7" font-family="Helvetica,sans-Serif" font-size="10.00">appearance&#45;support.c</text>
</a>
</g>
</g>
<!-- Node2&#45;&gt;Node7 -->
<g id="edge6_Node000002_Node000007" class="edge">
<title>Node2&#45;&gt;Node7</title>
<g id="a_edge6_Node000002_Node000007"><a xlink:title=" ">
<path fill="none" stroke="#63b8ff" d="M917.41,-54.94C1056.43,-35.51 1093.13,-35.03 1228.5,-19 1231.42,-18.65 1234.4,-18.3 1237.42,-17.94"/>
<polygon fill="#63b8ff" stroke="#63b8ff" points="916.64,-51.51 907.22,-56.37 917.61,-58.44 916.64,-51.51"/>
</a>
</g>
</g>
<!-- Node8 -->
<g id="Node000008" class="node">
<title>Node8</title>
<g id="a_Node000008"><a xlink:href="appearance-themes_8c.html" target="_top" xlink:title=" ">
<polygon fill="white" stroke="#666666" points="383.5,-19 261.5,-19 261.5,0 383.5,0 383.5,-19"/>
<text text-anchor="middle" x="322.5" y="-7" font-family="Helvetica,sans-Serif" font-size="10.00">appearance&#45;themes.c</text>
</a>
</g>
</g>
<!-- Node2&#45;&gt;Node8 -->
<g id="edge7_Node000002_Node000008" class="edge">
<title>Node2&#45;&gt;Node8</title>
<g id="a_edge7_Node000002_Node000008"><a xlink:title=" ">
<path fill="none" stroke="#63b8ff" d="M813.55,-59.08C726.43,-51.55 545.38,-35.47 392.5,-19 389.58,-18.69 386.59,-18.35 383.57,-18.01"/>
<polygon fill="#63b8ff" stroke="#63b8ff" points="813.44,-62.58 823.7,-59.95 814.04,-55.6 813.44,-62.58"/>
</a>
</g>
</g>
<!-- Node9 -->
<g id="Node000009" class="node">
<title>Node9</title>
<g id="a_Node000009"><a xlink:href="appearance-ui_8c.html" target="_top" xlink:title=" ">
<polygon fill="white" stroke="#666666" points="1473,-19 1378,-19 1378,0 1473,0 1473,-19"/>
<text text-anchor="middle" x="1425.5" y="-7" font-family="Helvetica,sans-Serif" font-size="10.00">appearance&#45;ui.c</text>
</a>
</g>
</g>
<!-- Node2&#45;&gt;Node9 -->
<g id="edge8_Node000002_Node000009" class="edge">
<title>Node2&#45;&gt;Node9</title>
<g id="a_edge8_Node000002_Node000009"><a xlink:title=" ">
<path fill="none" stroke="#63b8ff" d="M917.2,-55.03C1118.23,-30.77 1171.5,-41.51 1368.5,-19 1371.58,-18.65 1374.75,-18.26 1377.95,-17.84"/>
<polygon fill="#63b8ff" stroke="#63b8ff" points="916.71,-51.56 907.21,-56.25 917.56,-58.51 916.71,-51.56"/>
</a>
</g>
</g>
<!-- Node10 -->
<g id="Node000010" class="node">
<title>Node10</title>
<g id="a_Node000010"><a xlink:href="mate-wp-item_8c.html" target="_top" xlink:title=" ">
<polygon fill="white" stroke="#666666" points="1586,-19 1491,-19 1491,0 1586,0 1586,-19"/>
<text text-anchor="middle" x="1538.5" y="-7" font-family="Helvetica,sans-Serif" font-size="10.00">mate&#45;wp&#45;item.c</text>
</a>
</g>
</g>
<!-- Node2&#45;&gt;Node10 -->
<g id="edge9_Node000002_Node000010" class="edge">
<title>Node2&#45;&gt;Node10</title>
<g id="a_edge9_Node000002_Node000010"><a xlink:title=" ">
<path fill="none" stroke="#63b8ff" d="M917.37,-55.04C1168.66,-26.75 1235.18,-45.58 1482.5,-19 1485.24,-18.71 1488.05,-18.37 1490.88,-18.02"/>
<polygon fill="#63b8ff" stroke="#63b8ff" points="916.74,-51.59 907.2,-56.2 917.53,-58.54 916.74,-51.59"/>
</a>
</g>
</g>
<!-- Node11 -->
<g id="Node000011" class="node">
<title>Node11</title>
<g id="a_Node000011"><a xlink:href="mate-wp-xml_8c.html" target="_top" xlink:title=" ">
<polygon fill="white" stroke="#666666" points="1695,-19 1604,-19 1604,0 1695,0 1695,-19"/>
<text text-anchor="middle" x="1649.5" y="-7" font-family="Helvetica,sans-Serif" font-size="10.00">mate&#45;wp&#45;xml.c</text>
</a>
</g>
</g>
<!-- Node2&#45;&gt;Node11 -->
<g id="edge10_Node000002_Node000011" class="edge">
<title>Node2&#45;&gt;Node11</title>
<g id="a_edge10_Node000002_Node000011"><a xlink:title=" ">
<path fill="none" stroke="#63b8ff" d="M917.54,-55.04C1218.69,-22.74 1298.32,-50.18 1595.5,-19 1598.24,-18.71 1601.05,-18.38 1603.88,-18.02"/>
<polygon fill="#63b8ff" stroke="#63b8ff" points="916.76,-51.6 907.2,-56.16 917.52,-58.56 916.76,-51.6"/>
</a>
</g>
</g>
<!-- Node12 -->
<g id="Node000012" class="node">
<title>Node12</title>
<g id="a_Node000012"><a xlink:href="theme-installer_8c.html" target="_top" xlink:title=" ">
<polygon fill="white" stroke="#666666" points="757,-19 658,-19 658,0 757,0 757,-19"/>
<text text-anchor="middle" x="707.5" y="-7" font-family="Helvetica,sans-Serif" font-size="10.00">theme&#45;installer.c</text>
</a>
</g>
</g>
<!-- Node2&#45;&gt;Node12 -->
<g id="edge11_Node000002_Node000012" class="edge">
<title>Node2&#45;&gt;Node12</title>
<g id="a_edge11_Node000002_Node000012"><a xlink:title=" ">
<path fill="none" stroke="#63b8ff" d="M830.62,-51.8C801.13,-41.91 759.57,-27.97 733.08,-19.08"/>
<polygon fill="#63b8ff" stroke="#63b8ff" points="829.52,-55.12 840.11,-54.98 831.75,-48.49 829.52,-55.12"/>
</a>
</g>
</g>
<!-- Node13 -->
<g id="Node000013" class="node">
<title>Node13</title>
<g id="a_Node000013"><a xlink:href="theme-save_8c.html" target="_top" xlink:title=" ">
<polygon fill="white" stroke="#666666" points="858,-19 775,-19 775,0 858,0 858,-19"/>
<text text-anchor="middle" x="816.5" y="-7" font-family="Helvetica,sans-Serif" font-size="10.00">theme&#45;save.c</text>
</a>
</g>
</g>
<!-- Node2&#45;&gt;Node13 -->
<g id="edge12_Node000002_Node000013" class="edge">
<title>Node2&#45;&gt;Node13</title>
<g id="a_edge12_Node000002_Node000013"><a xlink:title=" ">
<path fill="none" stroke="#63b8ff" d="M850.47,-47.24C841.88,-37.95 831.46,-26.68 824.44,-19.09"/>
<polygon fill="#63b8ff" stroke="#63b8ff" points="848.05,-49.78 857.41,-54.75 853.19,-45.03 848.05,-49.78"/>
</a>
</g>
</g>
<!-- Node14 -->
<g id="Node000014" class="node">
<title>Node14</title>
<g id="a_Node000014"><a xlink:href="theme-util_8c.html" target="_top" xlink:title=" ">
<polygon fill="white" stroke="#666666" points="952.5,-19 876.5,-19 876.5,0 952.5,0 952.5,-19"/>
<text text-anchor="middle" x="914.5" y="-7" font-family="Helvetica,sans-Serif" font-size="10.00">theme&#45;util.c</text>
</a>
</g>
</g>
<!-- Node2&#45;&gt;Node14 -->
<g id="edge13_Node000002_Node000014" class="edge">
<title>Node2&#45;&gt;Node14</title>
<g id="a_edge13_Node000002_Node000014"><a xlink:title=" ">
<path fill="none" stroke="#63b8ff" d="M880.53,-47.24C889.12,-37.95 899.54,-26.68 906.56,-19.09"/>
<polygon fill="#63b8ff" stroke="#63b8ff" points="877.81,-45.03 873.59,-54.75 882.95,-49.78 877.81,-45.03"/>
</a>
</g>
</g>
<!-- Node15&#45;&gt;Node8 -->
<g id="edge15_Node000015_Node000008" class="edge">
<title>Node15&#45;&gt;Node8</title>
<g id="a_edge15_Node000015_Node000008"><a xlink:title=" ">
<path fill="none" stroke="#63b8ff" d="M322.5,-44.66C322.5,-35.93 322.5,-25.99 322.5,-19.09"/>
<polygon fill="#63b8ff" stroke="#63b8ff" points="319,-44.75 322.5,-54.75 326,-44.75 319,-44.75"/>
</a>
</g>
</g>
<!-- Node16 -->
<g id="Node000016" class="node">
<title>Node16</title>
<g id="a_Node000016"><a xlink:href="mate-theme-apply_8c.html" target="_top" xlink:title=" ">
<polygon fill="white" stroke="#666666" points="115,-19 0,-19 0,0 115,0 115,-19"/>
<text text-anchor="middle" x="57.5" y="-7" font-family="Helvetica,sans-Serif" font-size="10.00">mate&#45;theme&#45;apply.c</text>
</a>
</g>
</g>
<!-- Node15&#45;&gt;Node16 -->
<g id="edge16_Node000015_Node000016" class="edge">
<title>Node15&#45;&gt;Node16</title>
<g id="a_edge16_Node000015_Node000016"><a xlink:title=" ">
<path fill="none" stroke="#63b8ff" d="M270.01,-53C220.34,-43.07 146.67,-28.33 100.41,-19.08"/>
<polygon fill="#63b8ff" stroke="#63b8ff" points="269.43,-56.46 279.92,-54.98 270.8,-49.59 269.43,-56.46"/>
</a>
</g>
</g>
<!-- Node19&#45;&gt;Node5 -->
<g id="edge20_Node000019_Node000005" class="edge">
<title>Node19&#45;&gt;Node5</title>
<g id="a_edge20_Node000019_Node000005"><a xlink:title=" ">
<path fill="none" stroke="#63b8ff" d="M456.5,-44.66C456.5,-35.93 456.5,-25.99 456.5,-19.09"/>
<polygon fill="#63b8ff" stroke="#63b8ff" points="453,-44.75 456.5,-54.75 460,-44.75 453,-44.75"/>
</a>
</g>
</g>
<!-- Node19&#45;&gt;Node6 -->
<g id="edge21_Node000019_Node000006" class="edge">
<title>Node19&#45;&gt;Node6</title>
<g id="a_edge21_Node000019_Node000006"><a xlink:title=" ">
<path fill="none" stroke="#63b8ff" d="M486.62,-51.03C510.29,-41.23 542.65,-27.83 563.56,-19.17"/>
<polygon fill="#63b8ff" stroke="#63b8ff" points="484.97,-47.93 477.07,-54.98 487.64,-54.39 484.97,-47.93"/>
</a>
</g>
</g>
<!-- Node19&#45;&gt;Node8 -->
<g id="edge22_Node000019_Node000008" class="edge">
<title>Node19&#45;&gt;Node8</title>
<g id="a_edge22_Node000019_Node000008"><a xlink:title=" ">
<path fill="none" stroke="#63b8ff" d="M425.63,-51.29C400.8,-41.47 366.51,-27.91 344.42,-19.17"/>
<polygon fill="#63b8ff" stroke="#63b8ff" points="424.38,-54.56 434.97,-54.98 426.96,-48.05 424.38,-54.56"/>
</a>
</g>
</g>
<!-- Node20 -->
<g id="Node000020" class="node">
<title>Node20</title>
<g id="a_Node000020"><a xlink:href="theme-thumbnail_8c.html" target="_top" xlink:title=" ">
<polygon fill="white" stroke="#666666" points="243.5,-19 133.5,-19 133.5,0 243.5,0 243.5,-19"/>
<text text-anchor="middle" x="188.5" y="-7" font-family="Helvetica,sans-Serif" font-size="10.00">theme&#45;thumbnail.c</text>
</a>
</g>
</g>
<!-- Node19&#45;&gt;Node20 -->
<g id="edge23_Node000019_Node000020" class="edge">
<title>Node19&#45;&gt;Node20</title>
<g id="a_edge23_Node000019_Node000020"><a xlink:title=" ">
<path fill="none" stroke="#63b8ff" d="M403.42,-53C353.18,-43.07 278.68,-28.33 231.9,-19.08"/>
<polygon fill="#63b8ff" stroke="#63b8ff" points="402.95,-56.48 413.44,-54.98 404.31,-49.61 402.95,-56.48"/>
</a>
</g>
</g>
</g>
</svg>
