<?xml version="1.0" encoding="UTF-8" standalone="no"?>
<!DOCTYPE svg PUBLIC "-//W3C//DTD SVG 1.1//EN"
 "http://www.w3.org/Graphics/SVG/1.1/DTD/svg11.dtd">
<!-- Generated by graphviz version 2.43.0 (0)
 -->
<!-- Title: mate&#45;mdi&#45;child.h Pages: 1 -->
<svg width="423pt" height="214pt"
 viewBox="0.00 0.00 422.50 214.00" xmlns="http://www.w3.org/2000/svg" xmlns:xlink="http://www.w3.org/1999/xlink">

<svg id="main" version="1.1" xmlns="http://www.w3.org/2000/svg" xmlns:xlink="http://www.w3.org/1999/xlink" xml:space="preserve" onload="init(evt)">
<style type="text/css"><![CDATA[
.node, .edge {opacity: 0.7;}
.node.selected, .edge.selected {opacity: 1;}
.edge:hover path { stroke: red; }
.edge:hover polygon { stroke: red; fill: red; }
]]></style>
<script type="application/ecmascript" xlink:href="svg.min.js"/>
<svg id="graph" class="graph">
<g id="graph0" class="graph" transform="scale(1 1) rotate(0) translate(4 210)">
<title>mate&#45;mdi&#45;child.h</title>
<!-- Node1 -->
<g id="Node000001" class="node">
<title>Node1</title>
<g id="a_Node000001"><a xlink:title=" ">
<polygon fill="#999999" stroke="#666666" points="282.5,-206 181.5,-206 181.5,-187 282.5,-187 282.5,-206"/>
<text text-anchor="middle" x="232" y="-194" font-family="Helvetica,sans-Serif" font-size="10.00">mate&#45;mdi&#45;child.h</text>
</a>
</g>
</g>
<!-- Node2 -->
<g id="Node000002" class="node">
<title>Node2</title>
<g id="a_Node000002"><a xlink:title=" ">
<polygon fill="#e0e0e0" stroke="#999999" points="258,-24.5 198,-24.5 198,-5.5 258,-5.5 258,-24.5"/>
<text text-anchor="middle" x="228" y="-12.5" font-family="Helvetica,sans-Serif" font-size="10.00">gtk/gtk.h</text>
</a>
</g>
</g>
<!-- Node1&#45;&gt;Node2 -->
<g id="edge1_Node000001_Node000002" class="edge">
<title>Node1&#45;&gt;Node2</title>
<g id="a_edge1_Node000001_Node000002"><a xlink:title=" ">
<path fill="none" stroke="#63b8ff" d="M225.9,-186.8C220.25,-178.17 212.25,-164.35 209,-151 199.02,-109.95 212.19,-60.51 221.09,-34.34"/>
<polygon fill="#63b8ff" stroke="#63b8ff" points="224.48,-35.23 224.55,-24.64 217.89,-32.88 224.48,-35.23"/>
</a>
</g>
</g>
<!-- Node3 -->
<g id="Node000003" class="node">
<title>Node3</title>
<g id="a_Node000003"><a xlink:title=" ">
<polygon fill="#e0e0e0" stroke="#999999" points="414.5,-145.5 349.5,-145.5 349.5,-126.5 414.5,-126.5 414.5,-145.5"/>
<text text-anchor="middle" x="382" y="-133.5" font-family="Helvetica,sans-Serif" font-size="10.00">gdk/gdk.h</text>
</a>
</g>
</g>
<!-- Node1&#45;&gt;Node3 -->
<g id="edge2_Node000001_Node000003" class="edge">
<title>Node1&#45;&gt;Node3</title>
<g id="a_edge2_Node000001_Node000003"><a xlink:title=" ">
<path fill="none" stroke="#63b8ff" d="M253.81,-186.99C279.25,-177.07 321.51,-160.59 350.51,-149.28"/>
<polygon fill="#63b8ff" stroke="#63b8ff" points="352.12,-152.41 360.16,-145.52 349.57,-145.89 352.12,-152.41"/>
</a>
</g>
</g>
<!-- Node4 -->
<g id="Node000004" class="node">
<title>Node4</title>
<g id="a_Node000004"><a xlink:href="mate-app_8h.html" target="_top" xlink:title=" ">
<polygon fill="white" stroke="#666666" points="162,-85 40,-85 40,-66 162,-66 162,-85"/>
<text text-anchor="middle" x="101" y="-73" font-family="Helvetica,sans-Serif" font-size="10.00">libmateui/mate&#45;app.h</text>
</a>
</g>
</g>
<!-- Node1&#45;&gt;Node4 -->
<g id="edge3_Node000001_Node000004" class="edge">
<title>Node1&#45;&gt;Node4</title>
<g id="a_edge3_Node000001_Node000004"><a xlink:title=" ">
<path fill="none" stroke="#63b8ff" d="M220.55,-186.99C209.01,-178.28 190.85,-164.2 176,-151 154.47,-131.86 131.16,-108.19 116.33,-92.74"/>
<polygon fill="#63b8ff" stroke="#63b8ff" points="118.47,-89.9 109.03,-85.08 113.4,-94.73 118.47,-89.9"/>
</a>
</g>
</g>
<!-- Node6 -->
<g id="Node000006" class="node">
<title>Node6</title>
<g id="a_Node000006"><a xlink:href="mate-app-helper_8h.html" target="_top" xlink:title=" ">
<polygon fill="white" stroke="#666666" points="331.5,-151 218.5,-151 218.5,-121 331.5,-121 331.5,-151"/>
<text text-anchor="start" x="226.5" y="-139" font-family="Helvetica,sans-Serif" font-size="10.00">libmateui/mate&#45;app</text>
<text text-anchor="middle" x="275" y="-128" font-family="Helvetica,sans-Serif" font-size="10.00">&#45;helper.h</text>
</a>
</g>
</g>
<!-- Node1&#45;&gt;Node6 -->
<g id="edge6_Node000001_Node000006" class="edge">
<title>Node1&#45;&gt;Node6</title>
<g id="a_edge6_Node000001_Node000006"><a xlink:title=" ">
<path fill="none" stroke="#63b8ff" d="M238.34,-186.87C243.69,-179.59 251.59,-168.85 258.68,-159.2"/>
<polygon fill="#63b8ff" stroke="#63b8ff" points="261.52,-161.25 264.63,-151.11 255.88,-157.1 261.52,-161.25"/>
</a>
</g>
</g>
<!-- Node4&#45;&gt;Node2 -->
<g id="edge4_Node000004_Node000002" class="edge">
<title>Node4&#45;&gt;Node2</title>
<g id="a_edge4_Node000004_Node000002"><a xlink:title=" ">
<path fill="none" stroke="#63b8ff" d="M119.47,-65.99C140.72,-56.2 175.85,-40.02 200.37,-28.73"/>
<polygon fill="#63b8ff" stroke="#63b8ff" points="201.89,-31.88 209.51,-24.52 198.96,-25.52 201.89,-31.88"/>
</a>
</g>
</g>
<!-- Node5 -->
<g id="Node000005" class="node">
<title>Node5</title>
<g id="a_Node000005"><a xlink:title=" ">
<polygon fill="#e0e0e0" stroke="#999999" points="180,-30 0,-30 0,0 180,0 180,-30"/>
<text text-anchor="start" x="8" y="-18" font-family="Helvetica,sans-Serif" font-size="10.00">matecomponent/matecomponent</text>
<text text-anchor="middle" x="90" y="-7" font-family="Helvetica,sans-Serif" font-size="10.00">&#45;dock.h</text>
</a>
</g>
</g>
<!-- Node4&#45;&gt;Node5 -->
<g id="edge5_Node000004_Node000005" class="edge">
<title>Node4&#45;&gt;Node5</title>
<g id="a_edge5_Node000004_Node000005"><a xlink:title=" ">
<path fill="none" stroke="#63b8ff" d="M99.38,-65.87C98.09,-59.03 96.23,-49.14 94.51,-39.97"/>
<polygon fill="#63b8ff" stroke="#63b8ff" points="97.94,-39.3 92.65,-30.11 91.06,-40.59 97.94,-39.3"/>
</a>
</g>
</g>
<!-- Node6&#45;&gt;Node2 -->
<g id="edge7_Node000006_Node000002" class="edge">
<title>Node6&#45;&gt;Node2</title>
<g id="a_edge7_Node000006_Node000002"><a xlink:title=" ">
<path fill="none" stroke="#63b8ff" d="M266.37,-120.95C260.6,-111.14 253.16,-97.6 248,-85 241.21,-68.42 235.75,-48.73 232.26,-34.64"/>
<polygon fill="#63b8ff" stroke="#63b8ff" points="235.61,-33.62 229.89,-24.7 228.8,-35.24 235.61,-33.62"/>
</a>
</g>
</g>
<!-- Node6&#45;&gt;Node4 -->
<g id="edge11_Node000006_Node000004" class="edge">
<title>Node6&#45;&gt;Node4</title>
<g id="a_edge11_Node000006_Node000004"><a xlink:title=" ">
<path fill="none" stroke="#63b8ff" d="M233.32,-120.99C203.68,-111.02 164.31,-97.78 136.23,-88.35"/>
<polygon fill="#63b8ff" stroke="#63b8ff" points="137.04,-84.92 126.44,-85.05 134.8,-91.56 137.04,-84.92"/>
</a>
</g>
</g>
<!-- Node7 -->
<g id="Node000007" class="node">
<title>Node7</title>
<g id="a_Node000007"><a xlink:href="mate-appbar_8h.html" target="_top" xlink:title=" ">
<polygon fill="white" stroke="#666666" points="393.5,-85 256.5,-85 256.5,-66 393.5,-66 393.5,-85"/>
<text text-anchor="middle" x="325" y="-73" font-family="Helvetica,sans-Serif" font-size="10.00">libmateui/mate&#45;appbar.h</text>
</a>
</g>
</g>
<!-- Node6&#45;&gt;Node7 -->
<g id="edge8_Node000006_Node000007" class="edge">
<title>Node6&#45;&gt;Node7</title>
<g id="a_edge8_Node000006_Node000007"><a xlink:title=" ">
<path fill="none" stroke="#63b8ff" d="M287.1,-120.84C294.29,-112.43 303.43,-101.74 310.93,-92.96"/>
<polygon fill="#63b8ff" stroke="#63b8ff" points="313.67,-95.14 317.51,-85.27 308.35,-90.59 313.67,-95.14"/>
</a>
</g>
</g>
<!-- Node7&#45;&gt;Node2 -->
<g id="edge9_Node000007_Node000002" class="edge">
<title>Node7&#45;&gt;Node2</title>
<g id="a_edge9_Node000007_Node000002"><a xlink:title=" ">
<path fill="none" stroke="#63b8ff" d="M310.69,-65.87C295,-56.41 269.6,-41.09 251.09,-29.92"/>
<polygon fill="#63b8ff" stroke="#63b8ff" points="252.74,-26.83 242.37,-24.67 249.13,-32.83 252.74,-26.83"/>
</a>
</g>
</g>
<!-- Node8 -->
<g id="Node000008" class="node">
<title>Node8</title>
<g id="a_Node000008"><a xlink:href="mate-types_8h.html" target="_top" xlink:title=" ">
<polygon fill="white" stroke="#666666" points="366,-24.5 284,-24.5 284,-5.5 366,-5.5 366,-24.5"/>
<text text-anchor="middle" x="325" y="-12.5" font-family="Helvetica,sans-Serif" font-size="10.00">mate&#45;types.h</text>
</a>
</g>
</g>
<!-- Node7&#45;&gt;Node8 -->
<g id="edge10_Node000007_Node000008" class="edge">
<title>Node7&#45;&gt;Node8</title>
<g id="a_edge10_Node000007_Node000008"><a xlink:title=" ">
<path fill="none" stroke="#63b8ff" d="M325,-65.87C325,-57.75 325,-45.31 325,-34.89"/>
<polygon fill="#63b8ff" stroke="#63b8ff" points="328.5,-34.67 325,-24.67 321.5,-34.67 328.5,-34.67"/>
</a>
</g>
</g>
</g>
</svg>
</svg>

<style type='text/css'>
<![CDATA[
[data-mouse-over-selected='false'] { opacity: 0.7; }
[data-mouse-over-selected='true']  { opacity: 1.0; }
]]>
</style>
<script type="application/ecmascript"><![CDATA[
document.addEventListener('DOMContentLoaded', (event) => {
  highlightEdges();
  highlightAdjacentNodes();
});
]]></script>
</svg>
