<?xml version="1.0" encoding="UTF-8" standalone="no"?>
<!DOCTYPE svg PUBLIC "-//W3C//DTD SVG 1.1//EN"
 "http://www.w3.org/Graphics/SVG/1.1/DTD/svg11.dtd">
<!-- Generated by graphviz version 2.43.0 (0)
 -->
<!-- Title: mateweather&#45;xml.c Pages: 1 -->
<svg width="854pt" height="258pt"
 viewBox="0.00 0.00 854.00 258.00" xmlns="http://www.w3.org/2000/svg" xmlns:xlink="http://www.w3.org/1999/xlink">
<g id="graph0" class="graph" transform="scale(1 1) rotate(0) translate(4 254)">
<title>mateweather&#45;xml.c</title>
<!-- Node1 -->
<g id="Node000001" class="node">
<title>Node1</title>
<g id="a_Node000001"><a xlink:title=" ">
<polygon fill="#999999" stroke="#666666" points="607,-250 494,-250 494,-231 607,-231 607,-250"/>
<text text-anchor="middle" x="550.5" y="-238" font-family="Helvetica,sans-Serif" font-size="10.00">mateweather&#45;xml.c</text>
</a>
</g>
</g>
<!-- Node2 -->
<g id="Node000002" class="node">
<title>Node2</title>
<g id="a_Node000002"><a xlink:title=" ">
<polygon fill="#e0e0e0" stroke="#999999" points="53,-140 0,-140 0,-121 53,-121 53,-140"/>
<text text-anchor="middle" x="26.5" y="-128" font-family="Helvetica,sans-Serif" font-size="10.00">string.h</text>
</a>
</g>
</g>
<!-- Node1&#45;&gt;Node2 -->
<g id="edge1_Node000001_Node000002" class="edge">
<title>Node1&#45;&gt;Node2</title>
<g id="a_edge1_Node000001_Node000002"><a xlink:title=" ">
<path fill="none" stroke="#63b8ff" d="M493.75,-234.5C429.2,-228.15 320.91,-215.48 229.5,-195 168.21,-181.27 98.75,-157.75 59.04,-143.51"/>
<polygon fill="#63b8ff" stroke="#63b8ff" points="60.2,-140.21 49.6,-140.11 57.82,-146.8 60.2,-140.21"/>
</a>
</g>
</g>
<!-- Node3 -->
<g id="Node000003" class="node">
<title>Node3</title>
<g id="a_Node000003"><a xlink:title=" ">
<polygon fill="#e0e0e0" stroke="#999999" points="122,-140 71,-140 71,-121 122,-121 122,-140"/>
<text text-anchor="middle" x="96.5" y="-128" font-family="Helvetica,sans-Serif" font-size="10.00">math.h</text>
</a>
</g>
</g>
<!-- Node1&#45;&gt;Node3 -->
<g id="edge2_Node000001_Node000003" class="edge">
<title>Node1&#45;&gt;Node3</title>
<g id="a_edge2_Node000001_Node000003"><a xlink:title=" ">
<path fill="none" stroke="#63b8ff" d="M493.95,-231.36C443.42,-223.61 367.54,-210.8 302.5,-195 241.15,-180.1 171.2,-157.26 130.62,-143.42"/>
<polygon fill="#63b8ff" stroke="#63b8ff" points="131.56,-140.04 120.96,-140.1 129.29,-146.66 131.56,-140.04"/>
</a>
</g>
</g>
<!-- Node4 -->
<g id="Node000004" class="node">
<title>Node4</title>
<g id="a_Node000004"><a xlink:title=" ">
<polygon fill="#e0e0e0" stroke="#999999" points="719,-195 664,-195 664,-176 719,-176 719,-195"/>
<text text-anchor="middle" x="691.5" y="-183" font-family="Helvetica,sans-Serif" font-size="10.00">locale.h</text>
</a>
</g>
</g>
<!-- Node1&#45;&gt;Node4 -->
<g id="edge3_Node000001_Node000004" class="edge">
<title>Node1&#45;&gt;Node4</title>
<g id="a_edge3_Node000001_Node000004"><a xlink:title=" ">
<path fill="none" stroke="#63b8ff" d="M573.15,-230.98C596.35,-222.27 632.62,-208.63 658.9,-198.75"/>
<polygon fill="#63b8ff" stroke="#63b8ff" points="660.3,-201.97 668.43,-195.17 657.84,-195.41 660.3,-201.97"/>
</a>
</g>
</g>
<!-- Node5 -->
<g id="Node000005" class="node">
<title>Node5</title>
<g id="a_Node000005"><a xlink:title=" ">
<polygon fill="#e0e0e0" stroke="#999999" points="744.5,-140 684.5,-140 684.5,-121 744.5,-121 744.5,-140"/>
<text text-anchor="middle" x="714.5" y="-128" font-family="Helvetica,sans-Serif" font-size="10.00">gtk/gtk.h</text>
</a>
</g>
</g>
<!-- Node1&#45;&gt;Node5 -->
<g id="edge4_Node000001_Node000005" class="edge">
<title>Node1&#45;&gt;Node5</title>
<g id="a_edge4_Node000001_Node000005"><a xlink:title=" ">
<path fill="none" stroke="#63b8ff" d="M563.64,-230.84C591.83,-212.28 658.33,-168.49 692.86,-145.75"/>
<polygon fill="#63b8ff" stroke="#63b8ff" points="694.87,-148.62 701.29,-140.2 691.02,-142.77 694.87,-148.62"/>
</a>
</g>
</g>
<!-- Node6 -->
<g id="Node000006" class="node">
<title>Node6</title>
<g id="a_Node000006"><a xlink:title=" ">
<polygon fill="#e0e0e0" stroke="#999999" points="846,-195 737,-195 737,-176 846,-176 846,-195"/>
<text text-anchor="middle" x="791.5" y="-183" font-family="Helvetica,sans-Serif" font-size="10.00">libxml/xmlreader.h</text>
</a>
</g>
</g>
<!-- Node1&#45;&gt;Node6 -->
<g id="edge5_Node000001_Node000006" class="edge">
<title>Node1&#45;&gt;Node6</title>
<g id="a_edge5_Node000001_Node000006"><a xlink:title=" ">
<path fill="none" stroke="#63b8ff" d="M589.22,-230.98C630.91,-221.82 697.32,-207.21 742.59,-197.26"/>
<polygon fill="#63b8ff" stroke="#63b8ff" points="743.46,-200.65 752.48,-195.08 741.96,-193.81 743.46,-200.65"/>
</a>
</g>
</g>
<!-- Node7 -->
<g id="Node000007" class="node">
<title>Node7</title>
<g id="a_Node000007"><a xlink:href="mateweather-xml_8h.html" target="_top" xlink:title=" ">
<polygon fill="white" stroke="#666666" points="607,-195 494,-195 494,-176 607,-176 607,-195"/>
<text text-anchor="middle" x="550.5" y="-183" font-family="Helvetica,sans-Serif" font-size="10.00">mateweather&#45;xml.h</text>
</a>
</g>
</g>
<!-- Node1&#45;&gt;Node7 -->
<g id="edge6_Node000001_Node000007" class="edge">
<title>Node1&#45;&gt;Node7</title>
<g id="a_edge6_Node000001_Node000007"><a xlink:title=" ">
<path fill="none" stroke="#63b8ff" d="M550.5,-230.75C550.5,-223.8 550.5,-213.85 550.5,-205.13"/>
<polygon fill="#63b8ff" stroke="#63b8ff" points="554,-205.09 550.5,-195.09 547,-205.09 554,-205.09"/>
</a>
</g>
</g>
<!-- Node10 -->
<g id="Node000010" class="node">
<title>Node10</title>
<g id="a_Node000010"><a xlink:href="weather-priv_8h.html" target="_top" xlink:title=" ">
<polygon fill="white" stroke="#666666" points="398,-195 311,-195 311,-176 398,-176 398,-195"/>
<text text-anchor="middle" x="354.5" y="-183" font-family="Helvetica,sans-Serif" font-size="10.00">weather&#45;priv.h</text>
</a>
</g>
</g>
<!-- Node1&#45;&gt;Node10 -->
<g id="edge10_Node000001_Node000010" class="edge">
<title>Node1&#45;&gt;Node10</title>
<g id="a_edge10_Node000001_Node000010"><a xlink:title=" ">
<path fill="none" stroke="#63b8ff" d="M519.01,-230.98C485.68,-221.97 432.9,-207.7 396.15,-197.76"/>
<polygon fill="#63b8ff" stroke="#63b8ff" points="396.8,-194.31 386.24,-195.08 394.98,-201.07 396.8,-194.31"/>
</a>
</g>
</g>
<!-- Node7&#45;&gt;Node5 -->
<g id="edge7_Node000007_Node000005" class="edge">
<title>Node7&#45;&gt;Node5</title>
<g id="a_edge7_Node000007_Node000005"><a xlink:title=" ">
<path fill="none" stroke="#63b8ff" d="M576.85,-175.98C604.26,-167.13 647.39,-153.19 678.06,-143.28"/>
<polygon fill="#63b8ff" stroke="#63b8ff" points="679.5,-146.49 687.94,-140.08 677.35,-139.83 679.5,-146.49"/>
</a>
</g>
</g>
<!-- Node8 -->
<g id="Node000008" class="node">
<title>Node8</title>
<g id="a_Node000008"><a xlink:href="weather_8h.html" target="_top" xlink:title=" ">
<polygon fill="white" stroke="#666666" points="393,-79.5 248,-79.5 248,-60.5 393,-60.5 393,-79.5"/>
<text text-anchor="middle" x="320.5" y="-67.5" font-family="Helvetica,sans-Serif" font-size="10.00">libmateweather/weather.h</text>
</a>
</g>
</g>
<!-- Node7&#45;&gt;Node8 -->
<g id="edge8_Node000007_Node000008" class="edge">
<title>Node7&#45;&gt;Node8</title>
<g id="a_edge8_Node000007_Node000008"><a xlink:title=" ">
<path fill="none" stroke="#63b8ff" d="M580.35,-176C613.01,-165.24 658.15,-145.17 637.5,-121 607.89,-86.35 486.66,-75.57 403.01,-72.3"/>
<polygon fill="#63b8ff" stroke="#63b8ff" points="403.12,-68.8 393,-71.94 402.87,-75.8 403.12,-68.8"/>
</a>
</g>
</g>
<!-- Node9 -->
<g id="Node000009" class="node">
<title>Node9</title>
<g id="a_Node000009"><a xlink:title=" ">
<polygon fill="#e0e0e0" stroke="#999999" points="387,-19 254,-19 254,0 387,0 387,-19"/>
<text text-anchor="middle" x="320.5" y="-7" font-family="Helvetica,sans-Serif" font-size="10.00">gdk&#45;pixbuf/gdk&#45;pixbuf.h</text>
</a>
</g>
</g>
<!-- Node8&#45;&gt;Node9 -->
<g id="edge9_Node000008_Node000009" class="edge">
<title>Node8&#45;&gt;Node9</title>
<g id="a_edge9_Node000008_Node000009"><a xlink:title=" ">
<path fill="none" stroke="#63b8ff" d="M320.5,-60.37C320.5,-52.25 320.5,-39.81 320.5,-29.39"/>
<polygon fill="#63b8ff" stroke="#63b8ff" points="324,-29.17 320.5,-19.17 317,-29.17 324,-29.17"/>
</a>
</g>
</g>
<!-- Node10&#45;&gt;Node2 -->
<g id="edge12_Node000010_Node000002" class="edge">
<title>Node10&#45;&gt;Node2</title>
<g id="a_edge12_Node000010_Node000002"><a xlink:title=" ">
<path fill="none" stroke="#63b8ff" d="M310.61,-179.05C255.09,-171.9 156.38,-158.27 63.08,-140.18"/>
<polygon fill="#63b8ff" stroke="#63b8ff" points="63.69,-136.73 53.2,-138.24 62.34,-143.6 63.69,-136.73"/>
</a>
</g>
</g>
<!-- Node10&#45;&gt;Node3 -->
<g id="edge15_Node000010_Node000003" class="edge">
<title>Node10&#45;&gt;Node3</title>
<g id="a_edge15_Node000010_Node000003"><a xlink:title=" ">
<path fill="none" stroke="#63b8ff" d="M310.8,-176.33C267.87,-168.19 200.27,-155.03 132.14,-140.06"/>
<polygon fill="#63b8ff" stroke="#63b8ff" points="132.61,-136.58 122.09,-137.84 131.1,-143.42 132.61,-136.58"/>
</a>
</g>
</g>
<!-- Node10&#45;&gt;Node8 -->
<g id="edge17_Node000010_Node000008" class="edge">
<title>Node10&#45;&gt;Node8</title>
<g id="a_edge17_Node000010_Node000008"><a xlink:title=" ">
<path fill="none" stroke="#63b8ff" d="M345.53,-175.94C337.51,-167.63 326.31,-154.21 321.5,-140 315.99,-123.7 316.34,-103.98 317.72,-89.8"/>
<polygon fill="#63b8ff" stroke="#63b8ff" points="321.2,-90.14 318.95,-79.79 314.26,-89.28 321.2,-90.14"/>
</a>
</g>
</g>
<!-- Node11 -->
<g id="Node000011" class="node">
<title>Node11</title>
<g id="a_Node000011"><a xlink:title=" ">
<polygon fill="#e0e0e0" stroke="#999999" points="628,-140 573,-140 573,-121 628,-121 628,-140"/>
<text text-anchor="middle" x="600.5" y="-128" font-family="Helvetica,sans-Serif" font-size="10.00">config.h</text>
</a>
</g>
</g>
<!-- Node10&#45;&gt;Node11 -->
<g id="edge11_Node000010_Node000011" class="edge">
<title>Node10&#45;&gt;Node11</title>
<g id="a_edge11_Node000010_Node000011"><a xlink:title=" ">
<path fill="none" stroke="#63b8ff" d="M396,-176C436.34,-167.67 499.58,-154.44 563.2,-140.25"/>
<polygon fill="#63b8ff" stroke="#63b8ff" points="564,-143.66 573,-138.06 562.47,-136.83 564,-143.66"/>
</a>
</g>
</g>
<!-- Node12 -->
<g id="Node000012" class="node">
<title>Node12</title>
<g id="a_Node000012"><a xlink:title=" ">
<polygon fill="#e0e0e0" stroke="#999999" points="378.5,-140 330.5,-140 330.5,-121 378.5,-121 378.5,-140"/>
<text text-anchor="middle" x="354.5" y="-128" font-family="Helvetica,sans-Serif" font-size="10.00">time.h</text>
</a>
</g>
</g>
<!-- Node10&#45;&gt;Node12 -->
<g id="edge13_Node000010_Node000012" class="edge">
<title>Node10&#45;&gt;Node12</title>
<g id="a_edge13_Node000010_Node000012"><a xlink:title=" ">
<path fill="none" stroke="#63b8ff" d="M354.5,-175.75C354.5,-168.8 354.5,-158.85 354.5,-150.13"/>
<polygon fill="#63b8ff" stroke="#63b8ff" points="358,-150.09 354.5,-140.09 351,-150.09 358,-150.09"/>
</a>
</g>
</g>
<!-- Node13 -->
<g id="Node000013" class="node">
<title>Node13</title>
<g id="a_Node000013"><a xlink:title=" ">
<polygon fill="#e0e0e0" stroke="#999999" points="450,-140 397,-140 397,-121 450,-121 450,-140"/>
<text text-anchor="middle" x="423.5" y="-128" font-family="Helvetica,sans-Serif" font-size="10.00">libintl.h</text>
</a>
</g>
</g>
<!-- Node10&#45;&gt;Node13 -->
<g id="edge14_Node000010_Node000013" class="edge">
<title>Node10&#45;&gt;Node13</title>
<g id="a_edge14_Node000010_Node000013"><a xlink:title=" ">
<path fill="none" stroke="#63b8ff" d="M365.59,-175.98C375.99,-168 391.76,-155.88 404.22,-146.31"/>
<polygon fill="#63b8ff" stroke="#63b8ff" points="406.41,-149.04 412.21,-140.17 402.15,-143.49 406.41,-149.04"/>
</a>
</g>
</g>
<!-- Node14 -->
<g id="Node000014" class="node">
<title>Node14</title>
<g id="a_Node000014"><a xlink:title=" ">
<polygon fill="#e0e0e0" stroke="#999999" points="555,-140 468,-140 468,-121 555,-121 555,-140"/>
<text text-anchor="middle" x="511.5" y="-128" font-family="Helvetica,sans-Serif" font-size="10.00">libsoup/soup.h</text>
</a>
</g>
</g>
<!-- Node10&#45;&gt;Node14 -->
<g id="edge16_Node000010_Node000014" class="edge">
<title>Node10&#45;&gt;Node14</title>
<g id="a_edge16_Node000010_Node000014"><a xlink:title=" ">
<path fill="none" stroke="#63b8ff" d="M379.72,-175.98C405.86,-167.16 446.9,-153.31 476.23,-143.41"/>
<polygon fill="#63b8ff" stroke="#63b8ff" points="477.72,-146.6 486.08,-140.08 475.48,-139.96 477.72,-146.6"/>
</a>
</g>
</g>
<!-- Node15 -->
<g id="Node000015" class="node">
<title>Node15</title>
<g id="a_Node000015"><a xlink:href="mateweather-location_8h.html" target="_top" xlink:title=" ">
<polygon fill="white" stroke="#666666" points="274.5,-140 140.5,-140 140.5,-121 274.5,-121 274.5,-140"/>
<text text-anchor="middle" x="207.5" y="-128" font-family="Helvetica,sans-Serif" font-size="10.00">mateweather&#45;location.h</text>
</a>
</g>
</g>
<!-- Node10&#45;&gt;Node15 -->
<g id="edge18_Node000010_Node000015" class="edge">
<title>Node10&#45;&gt;Node15</title>
<g id="a_edge18_Node000010_Node000015"><a xlink:title=" ">
<path fill="none" stroke="#63b8ff" d="M330.88,-175.98C306.6,-167.23 268.55,-153.51 241.13,-143.62"/>
<polygon fill="#63b8ff" stroke="#63b8ff" points="242.14,-140.27 231.55,-140.17 239.77,-146.85 242.14,-140.27"/>
</a>
</g>
</g>
<!-- Node15&#45;&gt;Node8 -->
<g id="edge22_Node000015_Node000008" class="edge">
<title>Node15&#45;&gt;Node8</title>
<g id="a_edge22_Node000015_Node000008"><a xlink:title=" ">
<path fill="none" stroke="#63b8ff" d="M224.17,-120.87C242.78,-111.23 273.12,-95.53 294.78,-84.31"/>
<polygon fill="#63b8ff" stroke="#63b8ff" points="296.49,-87.37 303.76,-79.67 293.27,-81.16 296.49,-87.37"/>
</a>
</g>
</g>
<!-- Node16 -->
<g id="Node000016" class="node">
<title>Node16</title>
<g id="a_Node000016"><a xlink:title=" ">
<polygon fill="#e0e0e0" stroke="#999999" points="229.5,-79.5 185.5,-79.5 185.5,-60.5 229.5,-60.5 229.5,-79.5"/>
<text text-anchor="middle" x="207.5" y="-67.5" font-family="Helvetica,sans-Serif" font-size="10.00">glib.h</text>
</a>
</g>
</g>
<!-- Node15&#45;&gt;Node16 -->
<g id="edge19_Node000015_Node000016" class="edge">
<title>Node15&#45;&gt;Node16</title>
<g id="a_edge19_Node000015_Node000016"><a xlink:title=" ">
<path fill="none" stroke="#63b8ff" d="M207.5,-120.87C207.5,-112.75 207.5,-100.31 207.5,-89.89"/>
<polygon fill="#63b8ff" stroke="#63b8ff" points="211,-89.67 207.5,-79.67 204,-89.67 211,-89.67"/>
</a>
</g>
</g>
<!-- Node17 -->
<g id="Node000017" class="node">
<title>Node17</title>
<g id="a_Node000017"><a xlink:href="mateweather-timezone_8h.html" target="_top" xlink:title=" ">
<polygon fill="white" stroke="#666666" points="167.5,-85 5.5,-85 5.5,-55 167.5,-55 167.5,-85"/>
<text text-anchor="start" x="13.5" y="-73" font-family="Helvetica,sans-Serif" font-size="10.00">libmateweather/mateweather</text>
<text text-anchor="middle" x="86.5" y="-62" font-family="Helvetica,sans-Serif" font-size="10.00">&#45;timezone.h</text>
</a>
</g>
</g>
<!-- Node15&#45;&gt;Node17 -->
<g id="edge20_Node000015_Node000017" class="edge">
<title>Node15&#45;&gt;Node17</title>
<g id="a_edge20_Node000015_Node000017"><a xlink:title=" ">
<path fill="none" stroke="#63b8ff" d="M189.91,-120.99C172.93,-112.79 146.67,-100.09 124.86,-89.55"/>
<polygon fill="#63b8ff" stroke="#63b8ff" points="126.35,-86.38 115.82,-85.18 123.3,-92.68 126.35,-86.38"/>
</a>
</g>
</g>
<!-- Node18 -->
<g id="Node000018" class="node">
<title>Node18</title>
<g id="a_Node000018"><a xlink:title=" ">
<polygon fill="#e0e0e0" stroke="#999999" points="125,-19 48,-19 48,0 125,0 125,-19"/>
<text text-anchor="middle" x="86.5" y="-7" font-family="Helvetica,sans-Serif" font-size="10.00">glib&#45;object.h</text>
</a>
</g>
</g>
<!-- Node17&#45;&gt;Node18 -->
<g id="edge21_Node000017_Node000018" class="edge">
<title>Node17&#45;&gt;Node18</title>
<g id="a_edge21_Node000017_Node000018"><a xlink:title=" ">
<path fill="none" stroke="#63b8ff" d="M86.5,-54.84C86.5,-47.21 86.5,-37.7 86.5,-29.45"/>
<polygon fill="#63b8ff" stroke="#63b8ff" points="90,-29.27 86.5,-19.27 83,-29.27 90,-29.27"/>
</a>
</g>
</g>
</g>
</svg>
