<?xml version="1.0" encoding="UTF-8" standalone="no"?>
<!DOCTYPE svg PUBLIC "-//W3C//DTD SVG 1.1//EN"
 "http://www.w3.org/Graphics/SVG/1.1/DTD/svg11.dtd">
<!-- Generated by graphviz version 2.43.0 (0)
 -->
<!-- Title: mate&#45;scores.c Pages: 1 -->
<svg width="960pt" height="137pt"
 viewBox="0.00 0.00 959.79 137.00" xmlns="http://www.w3.org/2000/svg" xmlns:xlink="http://www.w3.org/1999/xlink">
<g id="graph0" class="graph" transform="scale(1 1) rotate(0) translate(4 133)">
<title>mate&#45;scores.c</title>
<!-- Node1 -->
<g id="Node000001" class="node">
<title>Node1</title>
<g id="a_Node000001"><a xlink:title=" ">
<polygon fill="#999999" stroke="#666666" points="439.5,-129 353.5,-129 353.5,-110 439.5,-110 439.5,-129"/>
<text text-anchor="middle" x="396.5" y="-117" font-family="Helvetica,sans-Serif" font-size="10.00">mate&#45;scores.c</text>
</a>
</g>
</g>
<!-- Node2 -->
<g id="Node000002" class="node">
<title>Node2</title>
<g id="a_Node000002"><a xlink:title=" ">
<polygon fill="#e0e0e0" stroke="#999999" points="55,-74 0,-74 0,-55 55,-55 55,-74"/>
<text text-anchor="middle" x="27.5" y="-62" font-family="Helvetica,sans-Serif" font-size="10.00">config.h</text>
</a>
</g>
</g>
<!-- Node1&#45;&gt;Node2 -->
<g id="edge1_Node000001_Node000002" class="edge">
<title>Node1&#45;&gt;Node2</title>
<g id="a_edge1_Node000001_Node000002"><a xlink:title=" ">
<path fill="none" stroke="#63b8ff" d="M353.44,-114.12C291.7,-107.55 174.28,-93.92 65.51,-74.23"/>
<polygon fill="#63b8ff" stroke="#63b8ff" points="65.82,-70.72 55.35,-72.36 64.56,-77.61 65.82,-70.72"/>
</a>
</g>
</g>
<!-- Node3 -->
<g id="Node000003" class="node">
<title>Node3</title>
<g id="a_Node000003"><a xlink:title=" ">
<polygon fill="#e0e0e0" stroke="#999999" points="126,-74 73,-74 73,-55 126,-55 126,-74"/>
<text text-anchor="middle" x="99.5" y="-62" font-family="Helvetica,sans-Serif" font-size="10.00">string.h</text>
</a>
</g>
</g>
<!-- Node1&#45;&gt;Node3 -->
<g id="edge2_Node000001_Node000003" class="edge">
<title>Node1&#45;&gt;Node3</title>
<g id="a_edge2_Node000001_Node000003"><a xlink:title=" ">
<path fill="none" stroke="#63b8ff" d="M353.39,-111.44C302.45,-103 215.17,-88.23 140.5,-74 139.21,-73.76 137.91,-73.5 136.59,-73.24"/>
<polygon fill="#63b8ff" stroke="#63b8ff" points="136.87,-69.73 126.38,-71.2 135.5,-76.6 136.87,-69.73"/>
</a>
</g>
</g>
<!-- Node4 -->
<g id="Node000004" class="node">
<title>Node4</title>
<g id="a_Node000004"><a xlink:title=" ">
<polygon fill="#e0e0e0" stroke="#999999" points="294.5,-19 246.5,-19 246.5,0 294.5,0 294.5,-19"/>
<text text-anchor="middle" x="270.5" y="-7" font-family="Helvetica,sans-Serif" font-size="10.00">time.h</text>
</a>
</g>
</g>
<!-- Node1&#45;&gt;Node4 -->
<g id="edge3_Node000001_Node000004" class="edge">
<title>Node1&#45;&gt;Node4</title>
<g id="a_edge3_Node000001_Node000004"><a xlink:title=" ">
<path fill="none" stroke="#63b8ff" d="M353.21,-116.19C294.89,-112.07 195.78,-101.17 173.5,-74 152.03,-47.83 200.64,-28.63 236.51,-18.55"/>
<polygon fill="#63b8ff" stroke="#63b8ff" points="237.47,-21.92 246.22,-15.95 235.66,-15.15 237.47,-21.92"/>
</a>
</g>
</g>
<!-- Node5 -->
<g id="Node000005" class="node">
<title>Node5</title>
<g id="a_Node000005"><a xlink:title=" ">
<polygon fill="#e0e0e0" stroke="#999999" points="272,-74 183,-74 183,-55 272,-55 272,-74"/>
<text text-anchor="middle" x="227.5" y="-62" font-family="Helvetica,sans-Serif" font-size="10.00">glib/gi18n&#45;lib.h</text>
</a>
</g>
</g>
<!-- Node1&#45;&gt;Node5 -->
<g id="edge4_Node000001_Node000005" class="edge">
<title>Node1&#45;&gt;Node5</title>
<g id="a_edge4_Node000001_Node000005"><a xlink:title=" ">
<path fill="none" stroke="#63b8ff" d="M369.35,-109.98C340.97,-101.09 296.27,-87.07 264.64,-77.15"/>
<polygon fill="#63b8ff" stroke="#63b8ff" points="265.45,-73.73 254.87,-74.08 263.36,-80.41 265.45,-73.73"/>
</a>
</g>
</g>
<!-- Node6 -->
<g id="Node000006" class="node">
<title>Node6</title>
<g id="a_Node000006"><a xlink:title=" ">
<polygon fill="#e0e0e0" stroke="#999999" points="425.5,-19 365.5,-19 365.5,0 425.5,0 425.5,-19"/>
<text text-anchor="middle" x="395.5" y="-7" font-family="Helvetica,sans-Serif" font-size="10.00">gtk/gtk.h</text>
</a>
</g>
</g>
<!-- Node1&#45;&gt;Node6 -->
<g id="edge5_Node000001_Node000006" class="edge">
<title>Node1&#45;&gt;Node6</title>
<g id="a_edge5_Node000001_Node000006"><a xlink:title=" ">
<path fill="none" stroke="#63b8ff" d="M439.73,-118.3C563.62,-117.27 913.3,-111.08 947.5,-74 953.23,-67.79 953.23,-61.21 947.5,-55 912.97,-17.57 557.55,-11.62 436,-10.67"/>
<polygon fill="#63b8ff" stroke="#63b8ff" points="435.67,-7.17 425.65,-10.6 435.62,-14.17 435.67,-7.17"/>
</a>
</g>
</g>
<!-- Node7 -->
<g id="Node000007" class="node">
<title>Node7</title>
<g id="a_Node000007"><a xlink:title=" ">
<polygon fill="#e0e0e0" stroke="#999999" points="526,-74 395,-74 395,-55 526,-55 526,-74"/>
<text text-anchor="middle" x="460.5" y="-62" font-family="Helvetica,sans-Serif" font-size="10.00">libmate/mate&#45;macros.h</text>
</a>
</g>
</g>
<!-- Node1&#45;&gt;Node7 -->
<g id="edge6_Node000001_Node000007" class="edge">
<title>Node1&#45;&gt;Node7</title>
<g id="a_edge6_Node000001_Node000007"><a xlink:title=" ">
<path fill="none" stroke="#63b8ff" d="M406.78,-109.98C416.34,-102.07 430.78,-90.11 442.28,-80.58"/>
<polygon fill="#63b8ff" stroke="#63b8ff" points="444.56,-83.24 450.03,-74.17 440.1,-77.85 444.56,-83.24"/>
</a>
</g>
</g>
<!-- Node8 -->
<g id="Node000008" class="node">
<title>Node8</title>
<g id="a_Node000008"><a xlink:title=" ">
<polygon fill="#e0e0e0" stroke="#999999" points="655,-74 544,-74 544,-55 655,-55 655,-74"/>
<text text-anchor="middle" x="599.5" y="-62" font-family="Helvetica,sans-Serif" font-size="10.00">libmate/mate&#45;util.h</text>
</a>
</g>
</g>
<!-- Node1&#45;&gt;Node8 -->
<g id="edge7_Node000001_Node000008" class="edge">
<title>Node1&#45;&gt;Node8</title>
<g id="a_edge7_Node000001_Node000008"><a xlink:title=" ">
<path fill="none" stroke="#63b8ff" d="M429.12,-109.98C463.79,-100.93 518.76,-86.58 556.85,-76.64"/>
<polygon fill="#63b8ff" stroke="#63b8ff" points="557.84,-79.99 566.63,-74.08 556.07,-73.22 557.84,-79.99"/>
</a>
</g>
</g>
<!-- Node9 -->
<g id="Node000009" class="node">
<title>Node9</title>
<g id="a_Node000009"><a xlink:title=" ">
<polygon fill="#e0e0e0" stroke="#999999" points="798,-74 673,-74 673,-55 798,-55 798,-74"/>
<text text-anchor="middle" x="735.5" y="-62" font-family="Helvetica,sans-Serif" font-size="10.00">libmate/mate&#45;config.h</text>
</a>
</g>
</g>
<!-- Node1&#45;&gt;Node9 -->
<g id="edge8_Node000001_Node000009" class="edge">
<title>Node1&#45;&gt;Node9</title>
<g id="a_edge8_Node000001_Node000009"><a xlink:title=" ">
<path fill="none" stroke="#63b8ff" d="M439.78,-111.73C498.27,-102.59 603.02,-86.21 670.86,-75.61"/>
<polygon fill="#63b8ff" stroke="#63b8ff" points="671.66,-79.02 681,-74.02 670.58,-72.11 671.66,-79.02"/>
</a>
</g>
</g>
<!-- Node10 -->
<g id="Node000010" class="node">
<title>Node10</title>
<g id="a_Node000010"><a xlink:title=" ">
<polygon fill="#e0e0e0" stroke="#999999" points="938.5,-74 816.5,-74 816.5,-55 938.5,-55 938.5,-74"/>
<text text-anchor="middle" x="877.5" y="-62" font-family="Helvetica,sans-Serif" font-size="10.00">libmate/mate&#45;score.h</text>
</a>
</g>
</g>
<!-- Node1&#45;&gt;Node10 -->
<g id="edge9_Node000001_Node000010" class="edge">
<title>Node1&#45;&gt;Node10</title>
<g id="a_edge9_Node000001_Node000010"><a xlink:title=" ">
<path fill="none" stroke="#63b8ff" d="M439.72,-114.01C512.88,-106.36 666.05,-90.18 806.34,-74.12"/>
<polygon fill="#63b8ff" stroke="#63b8ff" points="806.89,-77.58 816.42,-72.96 806.09,-70.63 806.89,-77.58"/>
</a>
</g>
</g>
<!-- Node11 -->
<g id="Node000011" class="node">
<title>Node11</title>
<g id="a_Node000011"><a xlink:href="mate-scores_8h.html" target="_top" xlink:title=" ">
<polygon fill="white" stroke="#666666" points="376.5,-74 290.5,-74 290.5,-55 376.5,-55 376.5,-74"/>
<text text-anchor="middle" x="333.5" y="-62" font-family="Helvetica,sans-Serif" font-size="10.00">mate&#45;scores.h</text>
</a>
</g>
</g>
<!-- Node1&#45;&gt;Node11 -->
<g id="edge10_Node000001_Node000011" class="edge">
<title>Node1&#45;&gt;Node11</title>
<g id="a_edge10_Node000001_Node000011"><a xlink:title=" ">
<path fill="none" stroke="#63b8ff" d="M386.38,-109.98C377.06,-102.15 363.03,-90.34 351.76,-80.86"/>
<polygon fill="#63b8ff" stroke="#63b8ff" points="353.71,-77.93 343.81,-74.17 349.21,-83.29 353.71,-77.93"/>
</a>
</g>
</g>
<!-- Node11&#45;&gt;Node4 -->
<g id="edge11_Node000011_Node000004" class="edge">
<title>Node11&#45;&gt;Node4</title>
<g id="a_edge11_Node000011_Node000004"><a xlink:title=" ">
<path fill="none" stroke="#63b8ff" d="M323.38,-54.98C314.06,-47.15 300.03,-35.34 288.76,-25.86"/>
<polygon fill="#63b8ff" stroke="#63b8ff" points="290.71,-22.93 280.81,-19.17 286.21,-28.29 290.71,-22.93"/>
</a>
</g>
</g>
<!-- Node11&#45;&gt;Node6 -->
<g id="edge12_Node000011_Node000006" class="edge">
<title>Node11&#45;&gt;Node6</title>
<g id="a_edge12_Node000011_Node000006"><a xlink:title=" ">
<path fill="none" stroke="#63b8ff" d="M343.46,-54.98C352.63,-47.15 366.44,-35.34 377.53,-25.86"/>
<polygon fill="#63b8ff" stroke="#63b8ff" points="380.03,-28.33 385.36,-19.17 375.48,-23.01 380.03,-28.33"/>
</a>
</g>
</g>
</g>
</svg>
