<?xml version="1.0" encoding="UTF-8" standalone="no"?>
<!DOCTYPE svg PUBLIC "-//W3C//DTD SVG 1.1//EN"
 "http://www.w3.org/Graphics/SVG/1.1/DTD/svg11.dtd">
<!-- Generated by graphviz version 2.43.0 (0)
 -->
<!-- Title: mate&#45;notification&#45;applet&#45;history.h Pages: 1 -->
<svg width="512pt" height="159pt"
 viewBox="0.00 0.00 512.04 159.00" xmlns="http://www.w3.org/2000/svg" xmlns:xlink="http://www.w3.org/1999/xlink">
<g id="graph0" class="graph" transform="scale(1 1) rotate(0) translate(4 155)">
<title>mate&#45;notification&#45;applet&#45;history.h</title>
<!-- Node1 -->
<g id="Node000001" class="node">
<title>Node1</title>
<g id="a_Node000001"><a xlink:title=" ">
<polygon fill="#999999" stroke="#666666" points="197.04,-151 62.04,-151 62.04,-121 197.04,-121 197.04,-151"/>
<text text-anchor="start" x="70.04" y="-139" font-family="Helvetica,sans-Serif" font-size="10.00">mate&#45;notification&#45;applet</text>
<text text-anchor="middle" x="129.54" y="-128" font-family="Helvetica,sans-Serif" font-size="10.00">&#45;history.h</text>
</a>
</g>
</g>
<!-- Node2 -->
<g id="Node000002" class="node">
<title>Node2</title>
<g id="a_Node000002"><a xlink:title=" ">
<polygon fill="#e0e0e0" stroke="#999999" points="183.54,-19 123.54,-19 123.54,0 183.54,0 183.54,-19"/>
<text text-anchor="middle" x="153.54" y="-7" font-family="Helvetica,sans-Serif" font-size="10.00">gtk/gtk.h</text>
</a>
</g>
</g>
<!-- Node1&#45;&gt;Node2 -->
<g id="edge1_Node000001_Node000002" class="edge">
<title>Node1&#45;&gt;Node2</title>
<g id="a_edge1_Node000001_Node000002"><a xlink:title=" ">
<path fill="none" stroke="#63b8ff" d="M139.98,-120.97C146.44,-111.39 154.12,-98.09 157.54,-85 162.34,-66.62 160.33,-44.86 157.73,-29.61"/>
<polygon fill="#63b8ff" stroke="#63b8ff" points="161.09,-28.54 155.74,-19.39 154.22,-29.88 161.09,-28.54"/>
</a>
</g>
</g>
<!-- Node3 -->
<g id="Node000003" class="node">
<title>Node3</title>
<g id="a_Node000003"><a xlink:title=" ">
<polygon fill="#e0e0e0" stroke="#999999" points="72.04,-19 13.04,-19 13.04,0 72.04,0 72.04,-19"/>
<text text-anchor="middle" x="42.54" y="-7" font-family="Helvetica,sans-Serif" font-size="10.00">gio/gio.h</text>
</a>
</g>
</g>
<!-- Node1&#45;&gt;Node3 -->
<g id="edge2_Node000001_Node000003" class="edge">
<title>Node1&#45;&gt;Node3</title>
<g id="a_edge2_Node000001_Node000003"><a xlink:title=" ">
<path fill="none" stroke="#63b8ff" d="M61.79,-123.6C39.8,-116.34 17.71,-104.45 4.54,-85 -8.35,-65.96 9.25,-41.96 24.56,-26.43"/>
<polygon fill="#63b8ff" stroke="#63b8ff" points="27.36,-28.59 32.17,-19.15 22.53,-23.53 27.36,-28.59"/>
</a>
</g>
</g>
<!-- Node4 -->
<g id="Node000004" class="node">
<title>Node4</title>
<g id="a_Node000004"><a xlink:href="mate-panel-applet_8h.html" target="_top" xlink:title=" ">
<polygon fill="white" stroke="#666666" points="349.54,-79.5 233.54,-79.5 233.54,-60.5 349.54,-60.5 349.54,-79.5"/>
<text text-anchor="middle" x="291.54" y="-67.5" font-family="Helvetica,sans-Serif" font-size="10.00">mate&#45;panel&#45;applet.h</text>
</a>
</g>
</g>
<!-- Node1&#45;&gt;Node4 -->
<g id="edge3_Node000001_Node000004" class="edge">
<title>Node1&#45;&gt;Node4</title>
<g id="a_edge3_Node000001_Node000004"><a xlink:title=" ">
<path fill="none" stroke="#63b8ff" d="M165.09,-120.95C193.63,-109.68 233.29,-94.01 260.54,-83.25"/>
<polygon fill="#63b8ff" stroke="#63b8ff" points="261.97,-86.45 269.98,-79.52 259.39,-79.94 261.97,-86.45"/>
</a>
</g>
</g>
<!-- Node9 -->
<g id="Node000009" class="node">
<title>Node9</title>
<g id="a_Node000009"><a xlink:href="mate-notification-applet-dbus_8h.html" target="_top" xlink:title=" ">
<polygon fill="white" stroke="#666666" points="149.04,-85 14.04,-85 14.04,-55 149.04,-55 149.04,-85"/>
<text text-anchor="start" x="22.04" y="-73" font-family="Helvetica,sans-Serif" font-size="10.00">mate&#45;notification&#45;applet</text>
<text text-anchor="middle" x="81.54" y="-62" font-family="Helvetica,sans-Serif" font-size="10.00">&#45;dbus.h</text>
</a>
</g>
</g>
<!-- Node1&#45;&gt;Node9 -->
<g id="edge9_Node000001_Node000009" class="edge">
<title>Node1&#45;&gt;Node9</title>
<g id="a_edge9_Node000001_Node000009"><a xlink:title=" ">
<path fill="none" stroke="#63b8ff" d="M118.89,-120.8C112.86,-112.76 105.18,-102.53 98.36,-93.43"/>
<polygon fill="#63b8ff" stroke="#63b8ff" points="100.96,-91.06 92.16,-85.16 95.36,-95.26 100.96,-91.06"/>
</a>
</g>
</g>
<!-- Node4&#45;&gt;Node2 -->
<g id="edge5_Node000004_Node000002" class="edge">
<title>Node4&#45;&gt;Node2</title>
<g id="a_edge5_Node000004_Node000002"><a xlink:title=" ">
<path fill="none" stroke="#63b8ff" d="M271.47,-60.49C248.17,-50.62 209.53,-34.23 182.86,-22.93"/>
<polygon fill="#63b8ff" stroke="#63b8ff" points="184.2,-19.7 173.63,-19.02 181.47,-26.14 184.2,-19.7"/>
</a>
</g>
</g>
<!-- Node5 -->
<g id="Node000005" class="node">
<title>Node5</title>
<g id="a_Node000005"><a xlink:title=" ">
<polygon fill="#e0e0e0" stroke="#999999" points="420.54,-19 376.54,-19 376.54,0 420.54,0 420.54,-19"/>
<text text-anchor="middle" x="398.54" y="-7" font-family="Helvetica,sans-Serif" font-size="10.00">glib.h</text>
</a>
</g>
</g>
<!-- Node4&#45;&gt;Node5 -->
<g id="edge4_Node000004_Node000005" class="edge">
<title>Node4&#45;&gt;Node5</title>
<g id="a_edge4_Node000004_Node000005"><a xlink:title=" ">
<path fill="none" stroke="#63b8ff" d="M307.33,-60.37C324.87,-50.78 353.42,-35.17 373.91,-23.97"/>
<polygon fill="#63b8ff" stroke="#63b8ff" points="375.59,-27.04 382.69,-19.17 372.23,-20.89 375.59,-27.04"/>
</a>
</g>
</g>
<!-- Node6 -->
<g id="Node000006" class="node">
<title>Node6</title>
<g id="a_Node000006"><a xlink:title=" ">
<polygon fill="#e0e0e0" stroke="#999999" points="504.04,-19 439.04,-19 439.04,0 504.04,0 504.04,-19"/>
<text text-anchor="middle" x="471.54" y="-7" font-family="Helvetica,sans-Serif" font-size="10.00">gdk/gdk.h</text>
</a>
</g>
</g>
<!-- Node4&#45;&gt;Node6 -->
<g id="edge6_Node000004_Node000006" class="edge">
<title>Node4&#45;&gt;Node6</title>
<g id="a_edge6_Node000004_Node000006"><a xlink:title=" ">
<path fill="none" stroke="#63b8ff" d="M317.71,-60.49C348.77,-50.4 400.73,-33.51 435.56,-22.19"/>
<polygon fill="#63b8ff" stroke="#63b8ff" points="436.91,-25.44 445.34,-19.02 434.74,-18.78 436.91,-25.44"/>
</a>
</g>
</g>
<!-- Node7 -->
<g id="Node000007" class="node">
<title>Node7</title>
<g id="a_Node000007"><a xlink:title=" ">
<polygon fill="#e0e0e0" stroke="#999999" points="251.54,-19 201.54,-19 201.54,0 251.54,0 251.54,-19"/>
<text text-anchor="middle" x="226.54" y="-7" font-family="Helvetica,sans-Serif" font-size="10.00">cairo.h</text>
</a>
</g>
</g>
<!-- Node4&#45;&gt;Node7 -->
<g id="edge7_Node000004_Node000007" class="edge">
<title>Node4&#45;&gt;Node7</title>
<g id="a_edge7_Node000004_Node000007"><a xlink:title=" ">
<path fill="none" stroke="#63b8ff" d="M281.95,-60.37C271.96,-51.38 256.11,-37.11 243.91,-26.14"/>
<polygon fill="#63b8ff" stroke="#63b8ff" points="245.94,-23.26 236.17,-19.17 241.26,-28.46 245.94,-23.26"/>
</a>
</g>
</g>
<!-- Node8 -->
<g id="Node000008" class="node">
<title>Node8</title>
<g id="a_Node000008"><a xlink:title=" ">
<polygon fill="#e0e0e0" stroke="#999999" points="359.04,-19 270.04,-19 270.04,0 359.04,0 359.04,-19"/>
<text text-anchor="middle" x="314.54" y="-7" font-family="Helvetica,sans-Serif" font-size="10.00">cairo&#45;gobject.h</text>
</a>
</g>
</g>
<!-- Node4&#45;&gt;Node8 -->
<g id="edge8_Node000004_Node000008" class="edge">
<title>Node4&#45;&gt;Node8</title>
<g id="a_edge8_Node000004_Node000008"><a xlink:title=" ">
<path fill="none" stroke="#63b8ff" d="M294.93,-60.37C298.2,-52.07 303.23,-39.28 307.38,-28.72"/>
<polygon fill="#63b8ff" stroke="#63b8ff" points="310.73,-29.75 311.13,-19.17 304.22,-27.19 310.73,-29.75"/>
</a>
</g>
</g>
<!-- Node9&#45;&gt;Node3 -->
<g id="edge10_Node000009_Node000003" class="edge">
<title>Node9&#45;&gt;Node3</title>
<g id="a_edge10_Node000009_Node000003"><a xlink:title=" ">
<path fill="none" stroke="#63b8ff" d="M72.1,-54.84C66.67,-46.69 59.81,-36.4 54.06,-27.78"/>
<polygon fill="#63b8ff" stroke="#63b8ff" points="56.84,-25.65 48.38,-19.27 51.02,-29.53 56.84,-25.65"/>
</a>
</g>
</g>
</g>
</svg>
