<?xml version="1.0" encoding="UTF-8" standalone="no"?>
<!DOCTYPE svg PUBLIC "-//W3C//DTD SVG 1.1//EN"
 "http://www.w3.org/Graphics/SVG/1.1/DTD/svg11.dtd">
<!-- Generated by graphviz version 2.43.0 (0)
 -->
<!-- Title: mateweather&#45;prefs.c Pages: 1 -->
<!--zoomable 258 -->

<svg id="main" version="1.1" xmlns="http://www.w3.org/2000/svg" xmlns:xlink="http://www.w3.org/1999/xlink" xml:space="preserve" onload="init(evt)">
<style type="text/css"><![CDATA[
.node, .edge {opacity: 0.7;}
.node.selected, .edge.selected {opacity: 1;}
.edge:hover path { stroke: red; }
.edge:hover polygon { stroke: red; fill: red; }
]]></style>

<defs>
  <circle id="rim" cx="0" cy="0" r="7"/>
  <circle id="rim2" cx="0" cy="0" r="3.5"/>
  <g id="zoomPlus">
    <use xlink:href="#rim" fill="#404040"><set attributeName="fill" to="#808080" begin="zoomplus.mouseover" end="zoomplus.mouseout"/></use>
    <path d="M-4,0h8M0,-4v8" fill="none" stroke="white" stroke-width="1.5" pointer-events="none"/>
  </g>
  <g id="zoomMin">
    <use xlink:href="#rim" fill="#404040"><set attributeName="fill" to="#808080" begin="zoomminus.mouseover" end="zoomminus.mouseout"/></use>
    <path d="M-4,0h8" fill="none" stroke="white" stroke-width="1.5" pointer-events="none"/>
  </g>
  <g id="arrowUp" transform="translate(30 24)">
    <use xlink:href="#rim"/>
    <path pointer-events="none" fill="none" stroke="white" stroke-width="1.5" d="M0,-3.0v7 M-2.5,-0.5L0,-3.0L2.5,-0.5"/>
  </g>
  <g id="arrowRight" transform="rotate(90) translate(36 -43)">
    <use xlink:href="#rim"/>
    <path pointer-events="none" fill="none" stroke="white" stroke-width="1.5" d="M0,-3.0v7 M-2.5,-0.5L0,-3.0L2.5,-0.5"/>
  </g>
  <g id="arrowDown" transform="rotate(180) translate(-30 -48)">
    <use xlink:href="#rim"/>
    <path pointer-events="none" fill="none" stroke="white" stroke-width="1.5" d="M0,-3.0v7 M-2.5,-0.5L0,-3.0L2.5,-0.5"/>
  </g>
  <g id="arrowLeft" transform="rotate(270) translate(-36 17)">
    <use xlink:href="#rim"/>
    <path pointer-events="none" fill="none" stroke="white" stroke-width="1.5" d="M0,-3.0v7 M-2.5,-0.5L0,-3.0L2.5,-0.5"/>
  </g>
  <g id="resetDef">
    <use xlink:href="#rim2" fill="#404040"><set attributeName="fill" to="#808080" begin="reset.mouseover" end="reset.mouseout"/></use>
  </g>
</defs>
<script type="application/ecmascript">
var viewWidth = 819;
var viewHeight = 258;
var sectionId = 'dynsection-0';
</script>
<script type="application/ecmascript" xlink:href="svg.min.js"/>
<svg id="graph" class="graph">
<g id="viewport">
<title>mateweather&#45;prefs.c</title>
<!-- Node1 -->
<g id="Node000001" class="node">
<title>Node1</title>
<g id="a_Node000001"><a xlink:title=" ">
<polygon fill="#999999" stroke="#666666" points="246,-250 127,-250 127,-231 246,-231 246,-250"/>
<text text-anchor="middle" x="186.5" y="-238" font-family="Helvetica,sans-Serif" font-size="10.00">mateweather&#45;prefs.c</text>
</a>
</g>
</g>
<!-- Node2 -->
<g id="Node000002" class="node">
<title>Node2</title>
<g id="a_Node000002"><a xlink:href="mateweather-prefs_8h.html" target="_top" xlink:title=" ">
<polygon fill="white" stroke="#666666" points="119,-195 0,-195 0,-176 119,-176 119,-195"/>
<text text-anchor="middle" x="59.5" y="-183" font-family="Helvetica,sans-Serif" font-size="10.00">mateweather&#45;prefs.h</text>
</a>
</g>
</g>
<!-- Node1&#45;&gt;Node2 -->
<g id="edge1_Node000001_Node000002" class="edge">
<title>Node1&#45;&gt;Node2</title>
<g id="a_edge1_Node000001_Node000002"><a xlink:title=" ">
<path fill="none" stroke="#63b8ff" d="M166.1,-230.98C145.48,-222.38 113.39,-208.99 89.81,-199.15"/>
<polygon fill="#63b8ff" stroke="#63b8ff" points="90.85,-195.79 80.28,-195.17 88.16,-202.25 90.85,-195.79"/>
</a>
</g>
</g>
<!-- Node6 -->
<g id="Node000006" class="node">
<title>Node6</title>
<g id="a_Node000006"><a xlink:href="weather-priv_8h.html" target="_top" xlink:title=" ">
<polygon fill="white" stroke="#666666" points="358,-195 271,-195 271,-176 358,-176 358,-195"/>
<text text-anchor="middle" x="314.5" y="-183" font-family="Helvetica,sans-Serif" font-size="10.00">weather&#45;priv.h</text>
</a>
</g>
</g>
<!-- Node1&#45;&gt;Node6 -->
<g id="edge5_Node000001_Node000006" class="edge">
<title>Node1&#45;&gt;Node6</title>
<g id="a_edge5_Node000001_Node000006"><a xlink:title=" ">
<path fill="none" stroke="#63b8ff" d="M207.07,-230.98C227.93,-222.34 260.47,-208.87 284.27,-199.02"/>
<polygon fill="#63b8ff" stroke="#63b8ff" points="285.66,-202.23 293.56,-195.17 282.98,-195.76 285.66,-202.23"/>
</a>
</g>
</g>
<!-- Node3 -->
<g id="Node000003" class="node">
<title>Node3</title>
<g id="a_Node000003"><a xlink:href="weather_8h.html" target="_top" xlink:title=" ">
<polygon fill="white" stroke="#666666" points="190,-79.5 45,-79.5 45,-60.5 190,-60.5 190,-79.5"/>
<text text-anchor="middle" x="117.5" y="-67.5" font-family="Helvetica,sans-Serif" font-size="10.00">libmateweather/weather.h</text>
</a>
</g>
</g>
<!-- Node2&#45;&gt;Node3 -->
<g id="edge2_Node000002_Node000003" class="edge">
<title>Node2&#45;&gt;Node3</title>
<g id="a_edge2_Node000002_Node000003"><a xlink:title=" ">
<path fill="none" stroke="#63b8ff" d="M47.51,-175.88C32.05,-163.68 8.51,-140.66 20.5,-121 31.72,-102.59 52.13,-90.67 71.34,-83.11"/>
<polygon fill="#63b8ff" stroke="#63b8ff" points="72.71,-86.33 80.92,-79.64 70.33,-79.75 72.71,-86.33"/>
</a>
</g>
</g>
<!-- Node5 -->
<g id="Node000005" class="node">
<title>Node5</title>
<g id="a_Node000005"><a xlink:title=" ">
<polygon fill="#e0e0e0" stroke="#999999" points="89,-140 30,-140 30,-121 89,-121 89,-140"/>
<text text-anchor="middle" x="59.5" y="-128" font-family="Helvetica,sans-Serif" font-size="10.00">gio/gio.h</text>
</a>
</g>
</g>
<!-- Node2&#45;&gt;Node5 -->
<g id="edge4_Node000002_Node000005" class="edge">
<title>Node2&#45;&gt;Node5</title>
<g id="a_edge4_Node000002_Node000005"><a xlink:title=" ">
<path fill="none" stroke="#63b8ff" d="M59.5,-175.75C59.5,-168.8 59.5,-158.85 59.5,-150.13"/>
<polygon fill="#63b8ff" stroke="#63b8ff" points="63,-150.09 59.5,-140.09 56,-150.09 63,-150.09"/>
</a>
</g>
</g>
<!-- Node4 -->
<g id="Node000004" class="node">
<title>Node4</title>
<g id="a_Node000004"><a xlink:title=" ">
<polygon fill="#e0e0e0" stroke="#999999" points="184,-19 51,-19 51,0 184,0 184,-19"/>
<text text-anchor="middle" x="117.5" y="-7" font-family="Helvetica,sans-Serif" font-size="10.00">gdk&#45;pixbuf/gdk&#45;pixbuf.h</text>
</a>
</g>
</g>
<!-- Node3&#45;&gt;Node4 -->
<g id="edge3_Node000003_Node000004" class="edge">
<title>Node3&#45;&gt;Node4</title>
<g id="a_edge3_Node000003_Node000004"><a xlink:title=" ">
<path fill="none" stroke="#63b8ff" d="M117.5,-60.37C117.5,-52.25 117.5,-39.81 117.5,-29.39"/>
<polygon fill="#63b8ff" stroke="#63b8ff" points="121,-29.17 117.5,-19.17 114,-29.17 121,-29.17"/>
</a>
</g>
</g>
<!-- Node6&#45;&gt;Node3 -->
<g id="edge12_Node000006_Node000003" class="edge">
<title>Node6&#45;&gt;Node3</title>
<g id="a_edge12_Node000006_Node000003"><a xlink:title=" ">
<path fill="none" stroke="#63b8ff" d="M270.98,-178.72C224.64,-171.7 155.42,-158.47 136.5,-140 123.05,-126.87 118.86,-105.16 117.69,-89.6"/>
<polygon fill="#63b8ff" stroke="#63b8ff" points="121.18,-89.41 117.27,-79.56 114.19,-89.7 121.18,-89.41"/>
</a>
</g>
</g>
<!-- Node7 -->
<g id="Node000007" class="node">
<title>Node7</title>
<g id="a_Node000007"><a xlink:title=" ">
<polygon fill="#e0e0e0" stroke="#999999" points="201,-140 146,-140 146,-121 201,-121 201,-140"/>
<text text-anchor="middle" x="173.5" y="-128" font-family="Helvetica,sans-Serif" font-size="10.00">config.h</text>
</a>
</g>
</g>
<!-- Node6&#45;&gt;Node7 -->
<g id="edge6_Node000006_Node000007" class="edge">
<title>Node6&#45;&gt;Node7</title>
<g id="a_edge6_Node000006_Node000007"><a xlink:title=" ">
<path fill="none" stroke="#63b8ff" d="M291.85,-175.98C268.65,-167.27 232.38,-153.63 206.1,-143.75"/>
<polygon fill="#63b8ff" stroke="#63b8ff" points="207.16,-140.41 196.57,-140.17 204.7,-146.97 207.16,-140.41"/>
</a>
</g>
</g>
<!-- Node8 -->
<g id="Node000008" class="node">
<title>Node8</title>
<g id="a_Node000008"><a xlink:title=" ">
<polygon fill="#e0e0e0" stroke="#999999" points="272,-140 219,-140 219,-121 272,-121 272,-140"/>
<text text-anchor="middle" x="245.5" y="-128" font-family="Helvetica,sans-Serif" font-size="10.00">string.h</text>
</a>
</g>
</g>
<!-- Node6&#45;&gt;Node8 -->
<g id="edge7_Node000006_Node000008" class="edge">
<title>Node6&#45;&gt;Node8</title>
<g id="a_edge7_Node000006_Node000008"><a xlink:title=" ">
<path fill="none" stroke="#63b8ff" d="M303.41,-175.98C293.01,-168 277.24,-155.88 264.78,-146.31"/>
<polygon fill="#63b8ff" stroke="#63b8ff" points="266.85,-143.49 256.79,-140.17 262.59,-149.04 266.85,-143.49"/>
</a>
</g>
</g>
<!-- Node9 -->
<g id="Node000009" class="node">
<title>Node9</title>
<g id="a_Node000009"><a xlink:title=" ">
<polygon fill="#e0e0e0" stroke="#999999" points="338.5,-140 290.5,-140 290.5,-121 338.5,-121 338.5,-140"/>
<text text-anchor="middle" x="314.5" y="-128" font-family="Helvetica,sans-Serif" font-size="10.00">time.h</text>
</a>
</g>
</g>
<!-- Node6&#45;&gt;Node9 -->
<g id="edge8_Node000006_Node000009" class="edge">
<title>Node6&#45;&gt;Node9</title>
<g id="a_edge8_Node000006_Node000009"><a xlink:title=" ">
<path fill="none" stroke="#63b8ff" d="M314.5,-175.75C314.5,-168.8 314.5,-158.85 314.5,-150.13"/>
<polygon fill="#63b8ff" stroke="#63b8ff" points="318,-150.09 314.5,-140.09 311,-150.09 318,-150.09"/>
</a>
</g>
</g>
<!-- Node10 -->
<g id="Node000010" class="node">
<title>Node10</title>
<g id="a_Node000010"><a xlink:title=" ">
<polygon fill="#e0e0e0" stroke="#999999" points="410,-140 357,-140 357,-121 410,-121 410,-140"/>
<text text-anchor="middle" x="383.5" y="-128" font-family="Helvetica,sans-Serif" font-size="10.00">libintl.h</text>
</a>
</g>
</g>
<!-- Node6&#45;&gt;Node10 -->
<g id="edge9_Node000006_Node000010" class="edge">
<title>Node6&#45;&gt;Node10</title>
<g id="a_edge9_Node000006_Node000010"><a xlink:title=" ">
<path fill="none" stroke="#63b8ff" d="M325.59,-175.98C335.99,-168 351.76,-155.88 364.22,-146.31"/>
<polygon fill="#63b8ff" stroke="#63b8ff" points="366.41,-149.04 372.21,-140.17 362.15,-143.49 366.41,-149.04"/>
</a>
</g>
</g>
<!-- Node11 -->
<g id="Node000011" class="node">
<title>Node11</title>
<g id="a_Node000011"><a xlink:title=" ">
<polygon fill="#e0e0e0" stroke="#999999" points="479,-140 428,-140 428,-121 479,-121 479,-140"/>
<text text-anchor="middle" x="453.5" y="-128" font-family="Helvetica,sans-Serif" font-size="10.00">math.h</text>
</a>
</g>
</g>
<!-- Node6&#45;&gt;Node11 -->
<g id="edge10_Node000006_Node000011" class="edge">
<title>Node6&#45;&gt;Node11</title>
<g id="a_edge10_Node000006_Node000011"><a xlink:title=" ">
<path fill="none" stroke="#63b8ff" d="M336.83,-175.98C359.7,-167.27 395.46,-153.63 421.36,-143.75"/>
<polygon fill="#63b8ff" stroke="#63b8ff" points="422.66,-147 430.76,-140.17 420.17,-140.46 422.66,-147"/>
</a>
</g>
</g>
<!-- Node12 -->
<g id="Node000012" class="node">
<title>Node12</title>
<g id="a_Node000012"><a xlink:title=" ">
<polygon fill="#e0e0e0" stroke="#999999" points="584,-140 497,-140 497,-121 584,-121 584,-140"/>
<text text-anchor="middle" x="540.5" y="-128" font-family="Helvetica,sans-Serif" font-size="10.00">libsoup/soup.h</text>
</a>
</g>
</g>
<!-- Node6&#45;&gt;Node12 -->
<g id="edge11_Node000006_Node000012" class="edge">
<title>Node6&#45;&gt;Node12</title>
<g id="a_edge11_Node000006_Node000012"><a xlink:title=" ">
<path fill="none" stroke="#63b8ff" d="M350.81,-175.98C389.74,-166.86 451.66,-152.33 494.1,-142.38"/>
<polygon fill="#63b8ff" stroke="#63b8ff" points="494.97,-145.77 503.9,-140.08 493.37,-138.96 494.97,-145.77"/>
</a>
</g>
</g>
<!-- Node13 -->
<g id="Node000013" class="node">
<title>Node13</title>
<g id="a_Node000013"><a xlink:href="mateweather-location_8h.html" target="_top" xlink:title=" ">
<polygon fill="white" stroke="#666666" points="736.5,-140 602.5,-140 602.5,-121 736.5,-121 736.5,-140"/>
<text text-anchor="middle" x="669.5" y="-128" font-family="Helvetica,sans-Serif" font-size="10.00">mateweather&#45;location.h</text>
</a>
</g>
</g>
<!-- Node6&#45;&gt;Node13 -->
<g id="edge13_Node000006_Node000013" class="edge">
<title>Node6&#45;&gt;Node13</title>
<g id="a_edge13_Node000006_Node000013"><a xlink:title=" ">
<path fill="none" stroke="#63b8ff" d="M358.03,-178C419,-168.9 530.39,-152.27 602.12,-141.56"/>
<polygon fill="#63b8ff" stroke="#63b8ff" points="603.03,-144.96 612.4,-140.02 601.99,-138.04 603.03,-144.96"/>
</a>
</g>
</g>
<!-- Node13&#45;&gt;Node3 -->
<g id="edge17_Node000013_Node000003" class="edge">
<title>Node13&#45;&gt;Node3</title>
<g id="a_edge17_Node000013_Node000003"><a xlink:title=" ">
<path fill="none" stroke="#63b8ff" d="M602.31,-122.06C598.99,-121.7 595.71,-121.35 592.5,-121 455.09,-106.18 295.25,-89.47 200.44,-79.6"/>
<polygon fill="#63b8ff" stroke="#63b8ff" points="200.65,-76.11 190.34,-78.55 199.93,-83.07 200.65,-76.11"/>
</a>
</g>
</g>
<!-- Node14 -->
<g id="Node000014" class="node">
<title>Node14</title>
<g id="a_Node000014"><a xlink:title=" ">
<polygon fill="#e0e0e0" stroke="#999999" points="630.5,-79.5 586.5,-79.5 586.5,-60.5 630.5,-60.5 630.5,-79.5"/>
<text text-anchor="middle" x="608.5" y="-67.5" font-family="Helvetica,sans-Serif" font-size="10.00">glib.h</text>
</a>
</g>
</g>
<!-- Node13&#45;&gt;Node14 -->
<g id="edge14_Node000013_Node000014" class="edge">
<title>Node13&#45;&gt;Node14</title>
<g id="a_edge14_Node000013_Node000014"><a xlink:title=" ">
<path fill="none" stroke="#63b8ff" d="M660.5,-120.87C651.13,-111.88 636.25,-97.61 624.8,-86.64"/>
<polygon fill="#63b8ff" stroke="#63b8ff" points="627.18,-84.06 617.54,-79.67 622.33,-89.12 627.18,-84.06"/>
</a>
</g>
</g>
<!-- Node15 -->
<g id="Node000015" class="node">
<title>Node15</title>
<g id="a_Node000015"><a xlink:href="mateweather-timezone_8h.html" target="_top" xlink:title=" ">
<polygon fill="white" stroke="#666666" points="810.5,-85 648.5,-85 648.5,-55 810.5,-55 810.5,-85"/>
<text text-anchor="start" x="656.5" y="-73" font-family="Helvetica,sans-Serif" font-size="10.00">libmateweather/mateweather</text>
<text text-anchor="middle" x="729.5" y="-62" font-family="Helvetica,sans-Serif" font-size="10.00">&#45;timezone.h</text>
</a>
</g>
</g>
<!-- Node13&#45;&gt;Node15 -->
<g id="edge15_Node000013_Node000015" class="edge">
<title>Node13&#45;&gt;Node15</title>
<g id="a_edge15_Node000013_Node000015"><a xlink:title=" ">
<path fill="none" stroke="#63b8ff" d="M678.35,-120.87C686.04,-113.37 697.5,-102.2 707.63,-92.33"/>
<polygon fill="#63b8ff" stroke="#63b8ff" points="710.31,-94.6 715.02,-85.11 705.42,-89.59 710.31,-94.6"/>
</a>
</g>
</g>
<!-- Node16 -->
<g id="Node000016" class="node">
<title>Node16</title>
<g id="a_Node000016"><a xlink:title=" ">
<polygon fill="#e0e0e0" stroke="#999999" points="768,-19 691,-19 691,0 768,0 768,-19"/>
<text text-anchor="middle" x="729.5" y="-7" font-family="Helvetica,sans-Serif" font-size="10.00">glib&#45;object.h</text>
</a>
</g>
</g>
<!-- Node15&#45;&gt;Node16 -->
<g id="edge16_Node000015_Node000016" class="edge">
<title>Node15&#45;&gt;Node16</title>
<g id="a_edge16_Node000015_Node000016"><a xlink:title=" ">
<path fill="none" stroke="#63b8ff" d="M729.5,-54.84C729.5,-47.21 729.5,-37.7 729.5,-29.45"/>
<polygon fill="#63b8ff" stroke="#63b8ff" points="733,-29.27 729.5,-19.27 726,-29.27 733,-29.27"/>
</a>
</g>
</g>
</g>
</svg>

<g id="navigator" transform="translate(0 0)" fill="#404254">
  <rect fill="#f2f5e9" fill-opacity="0.5" stroke="#606060" stroke-width=".5" x="0" y="0" width="60" height="60"/>
  <use id="zoomplus" xlink:href="#zoomPlus" x="17" y="9" onmousedown="handleZoom(evt,'in')"/>
  <use id="zoomminus" xlink:href="#zoomMin" x="42" y="9" onmousedown="handleZoom(evt,'out')"/>
  <use id="reset" xlink:href="#resetDef" x="30" y="36" onmousedown="handleReset()"/>
   <use id="arrowup" xlink:href="#arrowUp" x="0" y="0" onmousedown="handlePan(0,-1)"/>
  <use id="arrowright" xlink:href="#arrowRight" x="0" y="0" onmousedown="handlePan(1,0)"/>
  <use id="arrowdown" xlink:href="#arrowDown" x="0" y="0" onmousedown="handlePan(0,1)"/>
  <use id="arrowleft" xlink:href="#arrowLeft" x="0" y="0" onmousedown="handlePan(-1,0)"/>
</g>
<svg viewBox="0 0 15 15" width="100%" height="30px" preserveAspectRatio="xMaxYMin meet">
 <g id="arrow_out" transform="scale(0.3 0.3)">
  <a xlink:href="mateweather-prefs_8c__incl_org.svg" target="_base">
   <rect id="button" ry="5" rx="5" y="6" x="6" height="38" width="38"
        fill="#f2f5e9" fill-opacity="0.5" stroke="#606060" stroke-width="1.0"/>
   <path id="arrow"
     d="M 11.500037,31.436501 C 11.940474,20.09759 22.043105,11.32322 32.158766,21.979434 L 37.068811,17.246167 C 37.068811,17.246167 37.088388,32 37.088388,32 L 22.160133,31.978069 C 22.160133,31.978069 26.997745,27.140456 26.997745,27.140456 C 18.528582,18.264221 13.291696,25.230495 11.500037,31.436501 z"
     style="fill:#404040;"/>
  </a>
 </g>
</svg>

<style type='text/css'>
<![CDATA[
[data-mouse-over-selected='false'] { opacity: 0.7; }
[data-mouse-over-selected='true']  { opacity: 1.0; }
]]>
</style>
<script type="application/ecmascript"><![CDATA[
document.addEventListener('DOMContentLoaded', (event) => {
  highlightEdges();
  highlightAdjacentNodes();
});
]]></script>
</svg>
