<?xml version="1.0" encoding="UTF-8" standalone="no"?>
<!DOCTYPE svg PUBLIC "-//W3C//DTD SVG 1.1//EN"
 "http://www.w3.org/Graphics/SVG/1.1/DTD/svg11.dtd">
<!-- Generated by graphviz version 2.43.0 (0)
 -->
<!-- Title: mate&#45;ui&#45;init.c Pages: 1 -->
<svg width="1902pt" height="203pt"
 viewBox="0.00 0.00 1902.00 203.00" xmlns="http://www.w3.org/2000/svg" xmlns:xlink="http://www.w3.org/1999/xlink">
<g id="graph0" class="graph" transform="scale(1 1) rotate(0) translate(4 199)">
<title>mate&#45;ui&#45;init.c</title>
<!-- Node1 -->
<g id="Node000001" class="node">
<title>Node1</title>
<g id="a_Node000001"><a xlink:title=" ">
<polygon fill="#999999" stroke="#666666" points="791,-195 708,-195 708,-176 791,-176 791,-195"/>
<text text-anchor="middle" x="749.5" y="-183" font-family="Helvetica,sans-Serif" font-size="10.00">mate&#45;ui&#45;init.c</text>
</a>
</g>
</g>
<!-- Node2 -->
<g id="Node000002" class="node">
<title>Node2</title>
<g id="a_Node000002"><a xlink:title=" ">
<polygon fill="#e0e0e0" stroke="#999999" points="55,-134.5 0,-134.5 0,-115.5 55,-115.5 55,-134.5"/>
<text text-anchor="middle" x="27.5" y="-122.5" font-family="Helvetica,sans-Serif" font-size="10.00">config.h</text>
</a>
</g>
</g>
<!-- Node1&#45;&gt;Node2 -->
<g id="edge1_Node000001_Node000002" class="edge">
<title>Node1&#45;&gt;Node2</title>
<g id="a_edge1_Node000001_Node000002"><a xlink:title=" ">
<path fill="none" stroke="#63b8ff" d="M707.99,-183.47C579.17,-180 187.46,-167.44 63.5,-140 60.98,-139.44 58.4,-138.74 55.84,-137.94"/>
<polygon fill="#63b8ff" stroke="#63b8ff" points="56.81,-134.57 46.22,-134.53 54.48,-141.17 56.81,-134.57"/>
</a>
</g>
</g>
<!-- Node3 -->
<g id="Node000003" class="node">
<title>Node3</title>
<g id="a_Node000003"><a xlink:title=" ">
<polygon fill="#e0e0e0" stroke="#999999" points="124,-134.5 73,-134.5 73,-115.5 124,-115.5 124,-134.5"/>
<text text-anchor="middle" x="98.5" y="-122.5" font-family="Helvetica,sans-Serif" font-size="10.00">errno.h</text>
</a>
</g>
</g>
<!-- Node1&#45;&gt;Node3 -->
<g id="edge2_Node000001_Node000003" class="edge">
<title>Node1&#45;&gt;Node3</title>
<g id="a_edge2_Node000001_Node000003"><a xlink:title=" ">
<path fill="none" stroke="#63b8ff" d="M707.61,-183.15C587.44,-179.02 243.21,-165.26 133.5,-140 131.13,-139.45 128.72,-138.77 126.31,-138.01"/>
<polygon fill="#63b8ff" stroke="#63b8ff" points="127.28,-134.63 116.69,-134.5 124.89,-141.21 127.28,-134.63"/>
</a>
</g>
</g>
<!-- Node4 -->
<g id="Node000004" class="node">
<title>Node4</title>
<g id="a_Node000004"><a xlink:title=" ">
<polygon fill="#e0e0e0" stroke="#999999" points="198.5,-134.5 142.5,-134.5 142.5,-115.5 198.5,-115.5 198.5,-134.5"/>
<text text-anchor="middle" x="170.5" y="-122.5" font-family="Helvetica,sans-Serif" font-size="10.00">stdarg.h</text>
</a>
</g>
</g>
<!-- Node1&#45;&gt;Node4 -->
<g id="edge3_Node000001_Node000004" class="edge">
<title>Node1&#45;&gt;Node4</title>
<g id="a_edge3_Node000001_Node000004"><a xlink:title=" ">
<path fill="none" stroke="#63b8ff" d="M707.77,-185.01C616.06,-185.29 390.55,-181.28 207.5,-140 204.98,-139.43 202.4,-138.73 199.83,-137.94"/>
<polygon fill="#63b8ff" stroke="#63b8ff" points="200.75,-134.55 190.16,-134.6 198.47,-141.17 200.75,-134.55"/>
</a>
</g>
</g>
<!-- Node5 -->
<g id="Node000005" class="node">
<title>Node5</title>
<g id="a_Node000005"><a xlink:title=" ">
<polygon fill="#e0e0e0" stroke="#999999" points="270,-134.5 217,-134.5 217,-115.5 270,-115.5 270,-134.5"/>
<text text-anchor="middle" x="243.5" y="-122.5" font-family="Helvetica,sans-Serif" font-size="10.00">string.h</text>
</a>
</g>
</g>
<!-- Node1&#45;&gt;Node5 -->
<g id="edge4_Node000001_Node000005" class="edge">
<title>Node1&#45;&gt;Node5</title>
<g id="a_edge4_Node000001_Node000005"><a xlink:title=" ">
<path fill="none" stroke="#63b8ff" d="M707.9,-184.53C624.99,-183.74 433.77,-177.56 278.5,-140 276.19,-139.44 273.84,-138.76 271.49,-138"/>
<polygon fill="#63b8ff" stroke="#63b8ff" points="272.66,-134.7 262.07,-134.57 270.27,-141.28 272.66,-134.7"/>
</a>
</g>
</g>
<!-- Node6 -->
<g id="Node000006" class="node">
<title>Node6</title>
<g id="a_Node000006"><a xlink:title=" ">
<polygon fill="#e0e0e0" stroke="#999999" points="341,-134.5 288,-134.5 288,-115.5 341,-115.5 341,-134.5"/>
<text text-anchor="middle" x="314.5" y="-122.5" font-family="Helvetica,sans-Serif" font-size="10.00">stdlib.h</text>
</a>
</g>
</g>
<!-- Node1&#45;&gt;Node6 -->
<g id="edge5_Node000001_Node000006" class="edge">
<title>Node1&#45;&gt;Node6</title>
<g id="a_edge5_Node000001_Node000006"><a xlink:title=" ">
<path fill="none" stroke="#63b8ff" d="M707.89,-182.76C635.48,-179.08 481.94,-168.38 355.5,-140 352.51,-139.33 349.44,-138.52 346.39,-137.63"/>
<polygon fill="#63b8ff" stroke="#63b8ff" points="347.4,-134.28 336.81,-134.59 345.28,-140.95 347.4,-134.28"/>
</a>
</g>
</g>
<!-- Node7 -->
<g id="Node000007" class="node">
<title>Node7</title>
<g id="a_Node000007"><a xlink:title=" ">
<polygon fill="#e0e0e0" stroke="#999999" points="357.5,-74 301.5,-74 301.5,-55 357.5,-55 357.5,-74"/>
<text text-anchor="middle" x="329.5" y="-62" font-family="Helvetica,sans-Serif" font-size="10.00">unistd.h</text>
</a>
</g>
</g>
<!-- Node1&#45;&gt;Node7 -->
<g id="edge6_Node000001_Node000007" class="edge">
<title>Node1&#45;&gt;Node7</title>
<g id="a_edge6_Node000001_Node000007"><a xlink:title=" ">
<path fill="none" stroke="#63b8ff" d="M707.78,-182.26C628.8,-177.51 460.69,-164.76 408.5,-140 380.65,-126.79 356.15,-100.06 342.08,-82.48"/>
<polygon fill="#63b8ff" stroke="#63b8ff" points="344.6,-80.01 335.71,-74.23 339.06,-84.29 344.6,-80.01"/>
</a>
</g>
</g>
<!-- Node8 -->
<g id="Node000008" class="node">
<title>Node8</title>
<g id="a_Node000008"><a xlink:title=" ">
<polygon fill="#e0e0e0" stroke="#999999" points="1005,-134.5 950,-134.5 950,-115.5 1005,-115.5 1005,-134.5"/>
<text text-anchor="middle" x="977.5" y="-122.5" font-family="Helvetica,sans-Serif" font-size="10.00">signal.h</text>
</a>
</g>
</g>
<!-- Node1&#45;&gt;Node8 -->
<g id="edge7_Node000001_Node000008" class="edge">
<title>Node1&#45;&gt;Node8</title>
<g id="a_edge7_Node000001_Node000008"><a xlink:title=" ">
<path fill="none" stroke="#63b8ff" d="M789.67,-175.95C827.52,-167.64 885.7,-154.23 935.5,-140 938.11,-139.25 940.8,-138.45 943.5,-137.61"/>
<polygon fill="#63b8ff" stroke="#63b8ff" points="944.73,-140.89 953.18,-134.5 942.59,-134.23 944.73,-140.89"/>
</a>
</g>
</g>
<!-- Node9 -->
<g id="Node000009" class="node">
<title>Node9</title>
<g id="a_Node000009"><a xlink:title=" ">
<polygon fill="#e0e0e0" stroke="#999999" points="447.5,-74 375.5,-74 375.5,-55 447.5,-55 447.5,-74"/>
<text text-anchor="middle" x="411.5" y="-62" font-family="Helvetica,sans-Serif" font-size="10.00">sys/types.h</text>
</a>
</g>
</g>
<!-- Node1&#45;&gt;Node9 -->
<g id="edge8_Node000001_Node000009" class="edge">
<title>Node1&#45;&gt;Node9</title>
<g id="a_edge8_Node000001_Node000009"><a xlink:title=" ">
<path fill="none" stroke="#63b8ff" d="M707.98,-184.54C630.1,-183.72 466.35,-177.46 426.5,-140 411.58,-125.98 409.24,-101.58 409.71,-84.54"/>
<polygon fill="#63b8ff" stroke="#63b8ff" points="413.23,-84.33 410.36,-74.13 406.24,-83.89 413.23,-84.33"/>
</a>
</g>
</g>
<!-- Node10 -->
<g id="Node000010" class="node">
<title>Node10</title>
<g id="a_Node000010"><a xlink:title=" ">
<polygon fill="#e0e0e0" stroke="#999999" points="727.5,-74 683.5,-74 683.5,-55 727.5,-55 727.5,-74"/>
<text text-anchor="middle" x="705.5" y="-62" font-family="Helvetica,sans-Serif" font-size="10.00">glib.h</text>
</a>
</g>
</g>
<!-- Node1&#45;&gt;Node10 -->
<g id="edge9_Node000001_Node000010" class="edge">
<title>Node1&#45;&gt;Node10</title>
<g id="a_edge9_Node000001_Node000010"><a xlink:title=" ">
<path fill="none" stroke="#63b8ff" d="M748,-175.55C745.45,-161.31 739.63,-132.8 730.5,-110 726.75,-100.64 721.4,-90.81 716.61,-82.78"/>
<polygon fill="#63b8ff" stroke="#63b8ff" points="719.43,-80.69 711.19,-74.03 713.48,-84.37 719.43,-80.69"/>
</a>
</g>
</g>
<!-- Node11 -->
<g id="Node000011" class="node">
<title>Node11</title>
<g id="a_Node000011"><a xlink:title=" ">
<polygon fill="#e0e0e0" stroke="#999999" points="1089.5,-134.5 1023.5,-134.5 1023.5,-115.5 1089.5,-115.5 1089.5,-134.5"/>
<text text-anchor="middle" x="1056.5" y="-122.5" font-family="Helvetica,sans-Serif" font-size="10.00">sys/wait.h</text>
</a>
</g>
</g>
<!-- Node1&#45;&gt;Node11 -->
<g id="edge10_Node000001_Node000011" class="edge">
<title>Node1&#45;&gt;Node11</title>
<g id="a_edge10_Node000001_Node000011"><a xlink:title=" ">
<path fill="none" stroke="#63b8ff" d="M791.04,-179.43C843.38,-172.6 935.86,-159.07 1013.5,-140 1016.45,-139.27 1019.5,-138.45 1022.54,-137.57"/>
<polygon fill="#63b8ff" stroke="#63b8ff" points="1023.59,-140.91 1032.12,-134.63 1021.54,-134.21 1023.59,-140.91"/>
</a>
</g>
</g>
<!-- Node12 -->
<g id="Node000012" class="node">
<title>Node12</title>
<g id="a_Node000012"><a xlink:title=" ">
<polygon fill="#e0e0e0" stroke="#999999" points="1197,-134.5 1108,-134.5 1108,-115.5 1197,-115.5 1197,-134.5"/>
<text text-anchor="middle" x="1152.5" y="-122.5" font-family="Helvetica,sans-Serif" font-size="10.00">glib/gi18n&#45;lib.h</text>
</a>
</g>
</g>
<!-- Node1&#45;&gt;Node12 -->
<g id="edge11_Node000001_Node000012" class="edge">
<title>Node1&#45;&gt;Node12</title>
<g id="a_edge11_Node000001_Node000012"><a xlink:title=" ">
<path fill="none" stroke="#63b8ff" d="M791.14,-180.91C856.85,-174.87 988.44,-161.2 1098.5,-140 1103.01,-139.13 1107.7,-138.11 1112.35,-137.01"/>
<polygon fill="#63b8ff" stroke="#63b8ff" points="1113.51,-140.33 1122.38,-134.53 1111.83,-133.53 1113.51,-140.33"/>
</a>
</g>
</g>
<!-- Node13 -->
<g id="Node000013" class="node">
<title>Node13</title>
<g id="a_Node000013"><a xlink:title=" ">
<polygon fill="#e0e0e0" stroke="#999999" points="1288,-134.5 1215,-134.5 1215,-115.5 1288,-115.5 1288,-134.5"/>
<text text-anchor="middle" x="1251.5" y="-122.5" font-family="Helvetica,sans-Serif" font-size="10.00">gdkconfig.h</text>
</a>
</g>
</g>
<!-- Node1&#45;&gt;Node13 -->
<g id="edge12_Node000001_Node000013" class="edge">
<title>Node1&#45;&gt;Node13</title>
<g id="a_edge12_Node000001_Node000013"><a xlink:title=" ">
<path fill="none" stroke="#63b8ff" d="M791.09,-183.2C871.74,-180.06 1054.74,-169.99 1205.5,-140 1209.15,-139.27 1212.93,-138.37 1216.68,-137.39"/>
<polygon fill="#63b8ff" stroke="#63b8ff" points="1217.76,-140.72 1226.42,-134.61 1215.85,-133.98 1217.76,-140.72"/>
</a>
</g>
</g>
<!-- Node14 -->
<g id="Node000014" class="node">
<title>Node14</title>
<g id="a_Node000014"><a xlink:title=" ">
<polygon fill="#e0e0e0" stroke="#999999" points="1108.5,-74 1004.5,-74 1004.5,-55 1108.5,-55 1108.5,-74"/>
<text text-anchor="middle" x="1056.5" y="-62" font-family="Helvetica,sans-Serif" font-size="10.00">libmate/libmate.h</text>
</a>
</g>
</g>
<!-- Node1&#45;&gt;Node14 -->
<g id="edge13_Node000001_Node000014" class="edge">
<title>Node1&#45;&gt;Node14</title>
<g id="a_edge13_Node000001_Node000014"><a xlink:title=" ">
<path fill="none" stroke="#63b8ff" d="M791.06,-176.7C822.52,-169.78 866.2,-157.94 901.5,-140 920.99,-130.09 921.43,-120.69 940.5,-110 964.92,-96.31 994.4,-85.06 1017.52,-77.3"/>
<polygon fill="#63b8ff" stroke="#63b8ff" points="1018.92,-80.52 1027.34,-74.09 1016.74,-73.87 1018.92,-80.52"/>
</a>
</g>
</g>
<!-- Node15 -->
<g id="Node000015" class="node">
<title>Node15</title>
<g id="a_Node000015"><a xlink:title=" ">
<polygon fill="#e0e0e0" stroke="#999999" points="1486.5,-140 1306.5,-140 1306.5,-110 1486.5,-110 1486.5,-140"/>
<text text-anchor="start" x="1314.5" y="-128" font-family="Helvetica,sans-Serif" font-size="10.00">matecomponent/matecomponent</text>
<text text-anchor="middle" x="1396.5" y="-117" font-family="Helvetica,sans-Serif" font-size="10.00">&#45;ui&#45;main.h</text>
</a>
</g>
</g>
<!-- Node1&#45;&gt;Node15 -->
<g id="edge14_Node000001_Node000015" class="edge">
<title>Node1&#45;&gt;Node15</title>
<g id="a_edge14_Node000001_Node000015"><a xlink:title=" ">
<path fill="none" stroke="#63b8ff" d="M791.09,-181.94C881.05,-176.23 1100.61,-161.33 1296.14,-139.99"/>
<polygon fill="#63b8ff" stroke="#63b8ff" points="1296.76,-143.44 1306.31,-138.87 1295.99,-136.49 1296.76,-143.44"/>
</a>
</g>
</g>
<!-- Node16 -->
<g id="Node000016" class="node">
<title>Node16</title>
<g id="a_Node000016"><a xlink:title=" ">
<polygon fill="#e0e0e0" stroke="#999999" points="1656.5,-134.5 1504.5,-134.5 1504.5,-115.5 1656.5,-115.5 1656.5,-134.5"/>
<text text-anchor="middle" x="1580.5" y="-122.5" font-family="Helvetica,sans-Serif" font-size="10.00">mateconf/mateconf&#45;client.h</text>
</a>
</g>
</g>
<!-- Node1&#45;&gt;Node16 -->
<g id="edge15_Node000001_Node000016" class="edge">
<title>Node1&#45;&gt;Node16</title>
<g id="a_edge15_Node000001_Node000016"><a xlink:title=" ">
<path fill="none" stroke="#63b8ff" d="M791.28,-183.53C904.79,-180.55 1228.27,-169.9 1495.5,-140 1504.88,-138.95 1514.79,-137.57 1524.42,-136.08"/>
<polygon fill="#63b8ff" stroke="#63b8ff" points="1524.98,-139.54 1534.3,-134.5 1523.87,-132.62 1524.98,-139.54"/>
</a>
</g>
</g>
<!-- Node17 -->
<g id="Node000017" class="node">
<title>Node17</title>
<g id="a_Node000017"><a xlink:href="mate-client_8h.html" target="_top" xlink:title=" ">
<polygon fill="white" stroke="#666666" points="517.5,-134.5 435.5,-134.5 435.5,-115.5 517.5,-115.5 517.5,-134.5"/>
<text text-anchor="middle" x="476.5" y="-122.5" font-family="Helvetica,sans-Serif" font-size="10.00">mate&#45;client.h</text>
</a>
</g>
</g>
<!-- Node1&#45;&gt;Node17 -->
<g id="edge16_Node000001_Node000017" class="edge">
<title>Node1&#45;&gt;Node17</title>
<g id="a_edge16_Node000001_Node000017"><a xlink:title=" ">
<path fill="none" stroke="#63b8ff" d="M707.99,-176.64C664.03,-168.17 592.68,-154.02 531.5,-140 527.39,-139.06 523.13,-138.04 518.86,-137"/>
<polygon fill="#63b8ff" stroke="#63b8ff" points="519.56,-133.57 509.01,-134.55 517.87,-140.36 519.56,-133.57"/>
</a>
</g>
</g>
<!-- Node18 -->
<g id="Node000018" class="node">
<title>Node18</title>
<g id="a_Node000018"><a xlink:title=" ">
<polygon fill="#e0e0e0" stroke="#999999" points="665.5,-74 605.5,-74 605.5,-55 665.5,-55 665.5,-74"/>
<text text-anchor="middle" x="635.5" y="-62" font-family="Helvetica,sans-Serif" font-size="10.00">gtk/gtk.h</text>
</a>
</g>
</g>
<!-- Node1&#45;&gt;Node18 -->
<g id="edge39_Node000001_Node000018" class="edge">
<title>Node1&#45;&gt;Node18</title>
<g id="a_edge39_Node000001_Node000018"><a xlink:title=" ">
<path fill="none" stroke="#63b8ff" d="M707.71,-184.5C673.33,-182.01 626.49,-172.33 602.5,-140 589.15,-122.01 604.95,-97.76 618.94,-81.89"/>
<polygon fill="#63b8ff" stroke="#63b8ff" points="621.65,-84.12 625.93,-74.43 616.54,-79.33 621.65,-84.12"/>
</a>
</g>
</g>
<!-- Node20 -->
<g id="Node000020" class="node">
<title>Node20</title>
<g id="a_Node000020"><a xlink:href="mate-mateconf-ui_8h.html" target="_top" xlink:title=" ">
<polygon fill="white" stroke="#666666" points="859,-74 746,-74 746,-55 859,-55 859,-74"/>
<text text-anchor="middle" x="802.5" y="-62" font-family="Helvetica,sans-Serif" font-size="10.00">mate&#45;mateconf&#45;ui.h</text>
</a>
</g>
</g>
<!-- Node1&#45;&gt;Node20 -->
<g id="edge21_Node000001_Node000020" class="edge">
<title>Node1&#45;&gt;Node20</title>
<g id="a_edge21_Node000001_Node000020"><a xlink:title=" ">
<path fill="none" stroke="#63b8ff" d="M753.31,-175.94C761.86,-156.74 782.74,-109.86 794.36,-83.77"/>
<polygon fill="#63b8ff" stroke="#63b8ff" points="797.71,-84.86 798.58,-74.3 791.31,-82.01 797.71,-84.86"/>
</a>
</g>
</g>
<!-- Node22 -->
<g id="Node000022" class="node">
<title>Node22</title>
<g id="a_Node000022"><a xlink:href="mate-ui-init_8h.html" target="_top" xlink:title=" ">
<polygon fill="white" stroke="#666666" points="587,-74 504,-74 504,-55 587,-55 587,-74"/>
<text text-anchor="middle" x="545.5" y="-62" font-family="Helvetica,sans-Serif" font-size="10.00">mate&#45;ui&#45;init.h</text>
</a>
</g>
</g>
<!-- Node1&#45;&gt;Node22 -->
<g id="edge24_Node000001_Node000022" class="edge">
<title>Node1&#45;&gt;Node22</title>
<g id="a_edge24_Node000001_Node000022"><a xlink:title=" ">
<path fill="none" stroke="#63b8ff" d="M707.85,-180.73C674.2,-175.9 627.09,-164.91 593.5,-140 574.06,-125.58 560.38,-100.74 552.73,-83.74"/>
<polygon fill="#63b8ff" stroke="#63b8ff" points="555.87,-82.17 548.74,-74.33 549.42,-84.9 555.87,-82.17"/>
</a>
</g>
</g>
<!-- Node23 -->
<g id="Node000023" class="node">
<title>Node23</title>
<g id="a_Node000023"><a xlink:href="mate-stock-icons_8h.html" target="_top" xlink:title=" ">
<polygon fill="white" stroke="#666666" points="721.5,-134.5 611.5,-134.5 611.5,-115.5 721.5,-115.5 721.5,-134.5"/>
<text text-anchor="middle" x="666.5" y="-122.5" font-family="Helvetica,sans-Serif" font-size="10.00">mate&#45;stock&#45;icons.h</text>
</a>
</g>
</g>
<!-- Node1&#45;&gt;Node23 -->
<g id="edge26_Node000001_Node000023" class="edge">
<title>Node1&#45;&gt;Node23</title>
<g id="a_edge26_Node000001_Node000023"><a xlink:title=" ">
<path fill="none" stroke="#63b8ff" d="M737.25,-175.87C724.14,-166.62 703.08,-151.78 687.35,-140.69"/>
<polygon fill="#63b8ff" stroke="#63b8ff" points="688.99,-137.57 678.8,-134.67 684.95,-143.29 688.99,-137.57"/>
</a>
</g>
</g>
<!-- Node24 -->
<g id="Node000024" class="node">
<title>Node24</title>
<g id="a_Node000024"><a xlink:href="mate-url_8h.html" target="_top" xlink:title=" ">
<polygon fill="white" stroke="#666666" points="1742.5,-134.5 1674.5,-134.5 1674.5,-115.5 1742.5,-115.5 1742.5,-134.5"/>
<text text-anchor="middle" x="1708.5" y="-122.5" font-family="Helvetica,sans-Serif" font-size="10.00">mate&#45;url.h</text>
</a>
</g>
</g>
<!-- Node1&#45;&gt;Node24 -->
<g id="edge29_Node000001_Node000024" class="edge">
<title>Node1&#45;&gt;Node24</title>
<g id="a_edge29_Node000001_Node000024"><a xlink:title=" ">
<path fill="none" stroke="#63b8ff" d="M791.16,-183.95C946.83,-181.65 1494.22,-171.46 1665.5,-140 1669,-139.36 1672.62,-138.5 1676.19,-137.53"/>
<polygon fill="#63b8ff" stroke="#63b8ff" points="1677.47,-140.8 1686.03,-134.56 1675.44,-134.1 1677.47,-140.8"/>
</a>
</g>
</g>
<!-- Node27 -->
<g id="Node000027" class="node">
<title>Node27</title>
<g id="a_Node000027"><a xlink:title=" ">
<polygon fill="#e0e0e0" stroke="#999999" points="1894,-134.5 1761,-134.5 1761,-115.5 1894,-115.5 1894,-134.5"/>
<text text-anchor="middle" x="1827.5" y="-122.5" font-family="Helvetica,sans-Serif" font-size="10.00">gdk&#45;pixbuf/gdk&#45;pixbuf.h</text>
</a>
</g>
</g>
<!-- Node1&#45;&gt;Node27 -->
<g id="edge32_Node000001_Node000027" class="edge">
<title>Node1&#45;&gt;Node27</title>
<g id="a_edge32_Node000001_Node000027"><a xlink:title=" ">
<path fill="none" stroke="#63b8ff" d="M791.18,-184.7C928.77,-184.92 1380.82,-182.17 1751.5,-140 1759.84,-139.05 1768.63,-137.73 1777.17,-136.28"/>
<polygon fill="#63b8ff" stroke="#63b8ff" points="1777.8,-139.72 1787.03,-134.52 1776.57,-132.83 1777.8,-139.72"/>
</a>
</g>
</g>
<!-- Node28 -->
<g id="Node000028" class="node">
<title>Node28</title>
<g id="a_Node000028"><a xlink:href="libmateuiP_8h.html" target="_top" xlink:title=" ">
<polygon fill="white" stroke="#666666" points="893,-134.5 816,-134.5 816,-115.5 893,-115.5 893,-134.5"/>
<text text-anchor="middle" x="854.5" y="-122.5" font-family="Helvetica,sans-Serif" font-size="10.00">libmateuiP.h</text>
</a>
</g>
</g>
<!-- Node1&#45;&gt;Node28 -->
<g id="edge33_Node000001_Node000028" class="edge">
<title>Node1&#45;&gt;Node28</title>
<g id="a_edge33_Node000001_Node000028"><a xlink:title=" ">
<path fill="none" stroke="#63b8ff" d="M764.99,-175.87C782.13,-166.32 809.97,-150.81 830.06,-139.62"/>
<polygon fill="#63b8ff" stroke="#63b8ff" points="831.91,-142.59 838.94,-134.67 828.5,-136.48 831.91,-142.59"/>
</a>
</g>
</g>
<!-- Node17&#45;&gt;Node7 -->
<g id="edge17_Node000017_Node000007" class="edge">
<title>Node17&#45;&gt;Node7</title>
<g id="a_edge17_Node000017_Node000007"><a xlink:title=" ">
<path fill="none" stroke="#63b8ff" d="M455.12,-115.49C430.19,-105.57 388.78,-89.09 360.36,-77.78"/>
<polygon fill="#63b8ff" stroke="#63b8ff" points="361.49,-74.46 350.9,-74.02 358.9,-80.97 361.49,-74.46"/>
</a>
</g>
</g>
<!-- Node17&#45;&gt;Node9 -->
<g id="edge18_Node000017_Node000009" class="edge">
<title>Node17&#45;&gt;Node9</title>
<g id="a_edge18_Node000017_Node000009"><a xlink:title=" ">
<path fill="none" stroke="#63b8ff" d="M466.91,-115.37C456.92,-106.38 441.07,-92.11 428.87,-81.14"/>
<polygon fill="#63b8ff" stroke="#63b8ff" points="430.9,-78.26 421.13,-74.17 426.22,-83.46 430.9,-78.26"/>
</a>
</g>
</g>
<!-- Node17&#45;&gt;Node18 -->
<g id="edge19_Node000017_Node000018" class="edge">
<title>Node17&#45;&gt;Node18</title>
<g id="a_edge19_Node000017_Node000018"><a xlink:title=" ">
<path fill="none" stroke="#63b8ff" d="M499.62,-115.49C526.82,-105.49 572.17,-88.8 602.92,-77.49"/>
<polygon fill="#63b8ff" stroke="#63b8ff" points="604.18,-80.75 612.35,-74.02 601.76,-74.18 604.18,-80.75"/>
</a>
</g>
</g>
<!-- Node19 -->
<g id="Node000019" class="node">
<title>Node19</title>
<g id="a_Node000019"><a xlink:title=" ">
<polygon fill="#e0e0e0" stroke="#999999" points="614,-19 477,-19 477,0 614,0 614,-19"/>
<text text-anchor="middle" x="545.5" y="-7" font-family="Helvetica,sans-Serif" font-size="10.00">libmate/mate&#45;program.h</text>
</a>
</g>
</g>
<!-- Node17&#45;&gt;Node19 -->
<g id="edge20_Node000017_Node000019" class="edge">
<title>Node17&#45;&gt;Node19</title>
<g id="a_edge20_Node000017_Node000019"><a xlink:title=" ">
<path fill="none" stroke="#63b8ff" d="M477.13,-115.29C478.46,-101.54 482.51,-74.37 494.5,-55 501.84,-43.13 513.35,-32.7 523.57,-24.93"/>
<polygon fill="#63b8ff" stroke="#63b8ff" points="525.67,-27.73 531.74,-19.05 521.58,-22.05 525.67,-27.73"/>
</a>
</g>
</g>
<!-- Node20&#45;&gt;Node19 -->
<g id="edge22_Node000020_Node000019" class="edge">
<title>Node20&#45;&gt;Node19</title>
<g id="a_edge22_Node000020_Node000019"><a xlink:title=" ">
<path fill="none" stroke="#63b8ff" d="M761.21,-54.98C716.57,-45.78 645.34,-31.09 597.05,-21.13"/>
<polygon fill="#63b8ff" stroke="#63b8ff" points="597.62,-17.67 587.12,-19.08 596.2,-24.53 597.62,-17.67"/>
</a>
</g>
</g>
<!-- Node21 -->
<g id="Node000021" class="node">
<title>Node21</title>
<g id="a_Node000021"><a xlink:title=" ">
<polygon fill="#e0e0e0" stroke="#999999" points="873,-19 732,-19 732,0 873,0 873,-19"/>
<text text-anchor="middle" x="802.5" y="-7" font-family="Helvetica,sans-Serif" font-size="10.00">libmate/mate&#45;mateconf.h</text>
</a>
</g>
</g>
<!-- Node20&#45;&gt;Node21 -->
<g id="edge23_Node000020_Node000021" class="edge">
<title>Node20&#45;&gt;Node21</title>
<g id="a_edge23_Node000020_Node000021"><a xlink:title=" ">
<path fill="none" stroke="#63b8ff" d="M802.5,-54.75C802.5,-47.8 802.5,-37.85 802.5,-29.13"/>
<polygon fill="#63b8ff" stroke="#63b8ff" points="806,-29.09 802.5,-19.09 799,-29.09 806,-29.09"/>
</a>
</g>
</g>
<!-- Node22&#45;&gt;Node19 -->
<g id="edge25_Node000022_Node000019" class="edge">
<title>Node22&#45;&gt;Node19</title>
<g id="a_edge25_Node000022_Node000019"><a xlink:title=" ">
<path fill="none" stroke="#63b8ff" d="M545.5,-54.75C545.5,-47.8 545.5,-37.85 545.5,-29.13"/>
<polygon fill="#63b8ff" stroke="#63b8ff" points="549,-29.09 545.5,-19.09 542,-29.09 549,-29.09"/>
</a>
</g>
</g>
<!-- Node23&#45;&gt;Node10 -->
<g id="edge27_Node000023_Node000010" class="edge">
<title>Node23&#45;&gt;Node10</title>
<g id="a_edge27_Node000023_Node000010"><a xlink:title=" ">
<path fill="none" stroke="#63b8ff" d="M672.25,-115.37C677.96,-106.81 686.85,-93.47 694.01,-82.74"/>
<polygon fill="#63b8ff" stroke="#63b8ff" points="697.09,-84.43 699.72,-74.17 691.26,-80.55 697.09,-84.43"/>
</a>
</g>
</g>
<!-- Node23&#45;&gt;Node18 -->
<g id="edge28_Node000023_Node000018" class="edge">
<title>Node23&#45;&gt;Node18</title>
<g id="a_edge28_Node000023_Node000018"><a xlink:title=" ">
<path fill="none" stroke="#63b8ff" d="M661.93,-115.37C657.44,-106.9 650.47,-93.74 644.81,-83.07"/>
<polygon fill="#63b8ff" stroke="#63b8ff" points="647.87,-81.36 640.09,-74.17 641.68,-84.64 647.87,-81.36"/>
</a>
</g>
</g>
<!-- Node25 -->
<g id="Node000025" class="node">
<title>Node25</title>
<g id="a_Node000025"><a xlink:title=" ">
<polygon fill="#e0e0e0" stroke="#999999" points="1793,-74 1728,-74 1728,-55 1793,-55 1793,-74"/>
<text text-anchor="middle" x="1760.5" y="-62" font-family="Helvetica,sans-Serif" font-size="10.00">gdk/gdk.h</text>
</a>
</g>
</g>
<!-- Node24&#45;&gt;Node25 -->
<g id="edge30_Node000024_Node000025" class="edge">
<title>Node24&#45;&gt;Node25</title>
<g id="a_edge30_Node000024_Node000025"><a xlink:title=" ">
<path fill="none" stroke="#63b8ff" d="M1716.17,-115.37C1724.01,-106.55 1736.36,-92.66 1746.04,-81.77"/>
<polygon fill="#63b8ff" stroke="#63b8ff" points="1748.77,-83.97 1752.8,-74.17 1743.54,-79.32 1748.77,-83.97"/>
</a>
</g>
</g>
<!-- Node26 -->
<g id="Node000026" class="node">
<title>Node26</title>
<g id="a_Node000026"><a xlink:title=" ">
<polygon fill="#e0e0e0" stroke="#999999" points="1709.5,-74 1601.5,-74 1601.5,-55 1709.5,-55 1709.5,-74"/>
<text text-anchor="middle" x="1655.5" y="-62" font-family="Helvetica,sans-Serif" font-size="10.00">libmate/mate&#45;url.h</text>
</a>
</g>
</g>
<!-- Node24&#45;&gt;Node26 -->
<g id="edge31_Node000024_Node000026" class="edge">
<title>Node24&#45;&gt;Node26</title>
<g id="a_edge31_Node000024_Node000026"><a xlink:title=" ">
<path fill="none" stroke="#63b8ff" d="M1700.68,-115.37C1692.69,-106.55 1680.11,-92.66 1670.24,-81.77"/>
<polygon fill="#63b8ff" stroke="#63b8ff" points="1672.66,-79.23 1663.35,-74.17 1667.47,-83.93 1672.66,-79.23"/>
</a>
</g>
</g>
<!-- Node28&#45;&gt;Node10 -->
<g id="edge34_Node000028_Node000010" class="edge">
<title>Node28&#45;&gt;Node10</title>
<g id="a_edge34_Node000028_Node000010"><a xlink:title=" ">
<path fill="none" stroke="#63b8ff" d="M832.83,-115.49C807.56,-105.57 765.59,-89.09 736.78,-77.78"/>
<polygon fill="#63b8ff" stroke="#63b8ff" points="737.78,-74.41 727.19,-74.02 735.22,-80.93 737.78,-74.41"/>
</a>
</g>
</g>
<!-- Node28&#45;&gt;Node14 -->
<g id="edge35_Node000028_Node000014" class="edge">
<title>Node28&#45;&gt;Node14</title>
<g id="a_edge35_Node000028_Node000014"><a xlink:title=" ">
<path fill="none" stroke="#63b8ff" d="M883.87,-115.49C919.1,-105.29 978.29,-88.15 1017.37,-76.83"/>
<polygon fill="#63b8ff" stroke="#63b8ff" points="1018.46,-80.16 1027.09,-74.02 1016.51,-73.44 1018.46,-80.16"/>
</a>
</g>
</g>
<!-- Node28&#45;&gt;Node20 -->
<g id="edge38_Node000028_Node000020" class="edge">
<title>Node28&#45;&gt;Node20</title>
<g id="a_edge38_Node000028_Node000020"><a xlink:title=" ">
<path fill="none" stroke="#63b8ff" d="M846.83,-115.37C838.99,-106.55 826.64,-92.66 816.96,-81.77"/>
<polygon fill="#63b8ff" stroke="#63b8ff" points="819.46,-79.32 810.2,-74.17 814.23,-83.97 819.46,-79.32"/>
</a>
</g>
</g>
<!-- Node29 -->
<g id="Node000029" class="node">
<title>Node29</title>
<g id="a_Node000029"><a xlink:href="matetypebuiltins_8h.html" target="_top" xlink:title=" ">
<polygon fill="white" stroke="#666666" points="986,-74 877,-74 877,-55 986,-55 986,-74"/>
<text text-anchor="middle" x="931.5" y="-62" font-family="Helvetica,sans-Serif" font-size="10.00">matetypebuiltins.h</text>
</a>
</g>
</g>
<!-- Node28&#45;&gt;Node29 -->
<g id="edge36_Node000028_Node000029" class="edge">
<title>Node28&#45;&gt;Node29</title>
<g id="a_edge36_Node000028_Node000029"><a xlink:title=" ">
<path fill="none" stroke="#63b8ff" d="M865.86,-115.37C877.92,-106.21 897.2,-91.56 911.75,-80.51"/>
<polygon fill="#63b8ff" stroke="#63b8ff" points="914.25,-83 920.09,-74.17 910.01,-77.43 914.25,-83"/>
</a>
</g>
</g>
<!-- Node30 -->
<g id="Node000030" class="node">
<title>Node30</title>
<g id="a_Node000030"><a xlink:title=" ">
<polygon fill="#e0e0e0" stroke="#999999" points="970,-19 893,-19 893,0 970,0 970,-19"/>
<text text-anchor="middle" x="931.5" y="-7" font-family="Helvetica,sans-Serif" font-size="10.00">glib&#45;object.h</text>
</a>
</g>
</g>
<!-- Node29&#45;&gt;Node30 -->
<g id="edge37_Node000029_Node000030" class="edge">
<title>Node29&#45;&gt;Node30</title>
<g id="a_edge37_Node000029_Node000030"><a xlink:title=" ">
<path fill="none" stroke="#63b8ff" d="M931.5,-54.75C931.5,-47.8 931.5,-37.85 931.5,-29.13"/>
<polygon fill="#63b8ff" stroke="#63b8ff" points="935,-29.09 931.5,-19.09 928,-29.09 935,-29.09"/>
</a>
</g>
</g>
</g>
</svg>
