<?xml version="1.0" encoding="UTF-8" standalone="no"?>
<!DOCTYPE svg PUBLIC "-//W3C//DTD SVG 1.1//EN"
 "http://www.w3.org/Graphics/SVG/1.1/DTD/svg11.dtd">
<!-- Generated by graphviz version 2.43.0 (0)
 -->
<!-- Title: mate&#45;window.c Pages: 1 -->
<svg width="486pt" height="137pt"
 viewBox="0.00 0.00 485.50 137.00" xmlns="http://www.w3.org/2000/svg" xmlns:xlink="http://www.w3.org/1999/xlink">
<g id="graph0" class="graph" transform="scale(1 1) rotate(0) translate(4 133)">
<title>mate&#45;window.c</title>
<!-- Node1 -->
<g id="Node000001" class="node">
<title>Node1</title>
<g id="a_Node000001"><a xlink:title=" ">
<polygon fill="#999999" stroke="#666666" points="263,-129 172,-129 172,-110 263,-110 263,-129"/>
<text text-anchor="middle" x="217.5" y="-117" font-family="Helvetica,sans-Serif" font-size="10.00">mate&#45;window.c</text>
</a>
</g>
</g>
<!-- Node2 -->
<g id="Node000002" class="node">
<title>Node2</title>
<g id="a_Node000002"><a xlink:title=" ">
<polygon fill="#e0e0e0" stroke="#999999" points="55,-74 0,-74 0,-55 55,-55 55,-74"/>
<text text-anchor="middle" x="27.5" y="-62" font-family="Helvetica,sans-Serif" font-size="10.00">config.h</text>
</a>
</g>
</g>
<!-- Node1&#45;&gt;Node2 -->
<g id="edge1_Node000001_Node000002" class="edge">
<title>Node1&#45;&gt;Node2</title>
<g id="a_edge1_Node000001_Node000002"><a xlink:title=" ">
<path fill="none" stroke="#63b8ff" d="M186.97,-109.98C153.84,-100.74 100.91,-85.98 65.2,-76.02"/>
<polygon fill="#63b8ff" stroke="#63b8ff" points="65.74,-72.53 55.17,-73.22 63.86,-79.28 65.74,-72.53"/>
</a>
</g>
</g>
<!-- Node3 -->
<g id="Node000003" class="node">
<title>Node3</title>
<g id="a_Node000003"><a xlink:title=" ">
<polygon fill="#e0e0e0" stroke="#999999" points="117.5,-74 73.5,-74 73.5,-55 117.5,-55 117.5,-74"/>
<text text-anchor="middle" x="95.5" y="-62" font-family="Helvetica,sans-Serif" font-size="10.00">glib.h</text>
</a>
</g>
</g>
<!-- Node1&#45;&gt;Node3 -->
<g id="edge2_Node000001_Node000003" class="edge">
<title>Node1&#45;&gt;Node3</title>
<g id="a_edge2_Node000001_Node000003"><a xlink:title=" ">
<path fill="none" stroke="#63b8ff" d="M197.9,-109.98C178.18,-101.42 147.55,-88.11 124.92,-78.28"/>
<polygon fill="#63b8ff" stroke="#63b8ff" points="126.02,-74.94 115.46,-74.17 123.24,-81.37 126.02,-74.94"/>
</a>
</g>
</g>
<!-- Node4 -->
<g id="Node000004" class="node">
<title>Node4</title>
<g id="a_Node000004"><a xlink:title=" ">
<polygon fill="#e0e0e0" stroke="#999999" points="189,-74 136,-74 136,-55 189,-55 189,-74"/>
<text text-anchor="middle" x="162.5" y="-62" font-family="Helvetica,sans-Serif" font-size="10.00">string.h</text>
</a>
</g>
</g>
<!-- Node1&#45;&gt;Node4 -->
<g id="edge3_Node000001_Node000004" class="edge">
<title>Node1&#45;&gt;Node4</title>
<g id="a_edge3_Node000001_Node000004"><a xlink:title=" ">
<path fill="none" stroke="#63b8ff" d="M208.42,-109.75C200.41,-102.03 188.54,-90.6 178.88,-81.28"/>
<polygon fill="#63b8ff" stroke="#63b8ff" points="181.04,-78.51 171.41,-74.09 176.19,-83.55 181.04,-78.51"/>
</a>
</g>
</g>
<!-- Node5 -->
<g id="Node000005" class="node">
<title>Node5</title>
<g id="a_Node000005"><a xlink:title=" ">
<polygon fill="#e0e0e0" stroke="#999999" points="327,-19 190,-19 190,0 327,0 327,-19"/>
<text text-anchor="middle" x="258.5" y="-7" font-family="Helvetica,sans-Serif" font-size="10.00">libmate/mate&#45;program.h</text>
</a>
</g>
</g>
<!-- Node1&#45;&gt;Node5 -->
<g id="edge4_Node000001_Node000005" class="edge">
<title>Node1&#45;&gt;Node5</title>
<g id="a_edge4_Node000001_Node000005"><a xlink:title=" ">
<path fill="none" stroke="#63b8ff" d="M219.63,-109.72C222.74,-97.31 229,-74.06 236.5,-55 240.05,-45.98 244.73,-36.29 248.86,-28.27"/>
<polygon fill="#63b8ff" stroke="#63b8ff" points="252.09,-29.64 253.67,-19.17 245.9,-26.37 252.09,-29.64"/>
</a>
</g>
</g>
<!-- Node6 -->
<g id="Node000006" class="node">
<title>Node6</title>
<g id="a_Node000006"><a xlink:title=" ">
<polygon fill="#e0e0e0" stroke="#999999" points="416.5,-19 356.5,-19 356.5,0 416.5,0 416.5,-19"/>
<text text-anchor="middle" x="386.5" y="-7" font-family="Helvetica,sans-Serif" font-size="10.00">gtk/gtk.h</text>
</a>
</g>
</g>
<!-- Node1&#45;&gt;Node6 -->
<g id="edge5_Node000001_Node000006" class="edge">
<title>Node1&#45;&gt;Node6</title>
<g id="a_edge5_Node000001_Node000006"><a xlink:title=" ">
<path fill="none" stroke="#63b8ff" d="M256.39,-109.99C281.29,-103.18 313.34,-91.78 337.5,-74 354.27,-61.66 368.16,-42.08 376.82,-27.92"/>
<polygon fill="#63b8ff" stroke="#63b8ff" points="379.93,-29.54 381.95,-19.14 373.88,-26.01 379.93,-29.54"/>
</a>
</g>
</g>
<!-- Node7 -->
<g id="Node000007" class="node">
<title>Node7</title>
<g id="a_Node000007"><a xlink:href="mate-window_8h.html" target="_top" xlink:title=" ">
<polygon fill="white" stroke="#666666" points="477.5,-74 385.5,-74 385.5,-55 477.5,-55 477.5,-74"/>
<text text-anchor="middle" x="431.5" y="-62" font-family="Helvetica,sans-Serif" font-size="10.00">mate&#45;window.h</text>
</a>
</g>
</g>
<!-- Node1&#45;&gt;Node7 -->
<g id="edge6_Node000001_Node000007" class="edge">
<title>Node1&#45;&gt;Node7</title>
<g id="a_edge6_Node000001_Node000007"><a xlink:title=" ">
<path fill="none" stroke="#63b8ff" d="M251.88,-109.98C288.59,-100.89 346.88,-86.46 387.05,-76.51"/>
<polygon fill="#63b8ff" stroke="#63b8ff" points="387.98,-79.88 396.85,-74.08 386.3,-73.09 387.98,-79.88"/>
</a>
</g>
</g>
<!-- Node8 -->
<g id="Node000008" class="node">
<title>Node8</title>
<g id="a_Node000008"><a xlink:href="mate-ui-init_8h.html" target="_top" xlink:title=" ">
<polygon fill="white" stroke="#666666" points="329,-74 246,-74 246,-55 329,-55 329,-74"/>
<text text-anchor="middle" x="287.5" y="-62" font-family="Helvetica,sans-Serif" font-size="10.00">mate&#45;ui&#45;init.h</text>
</a>
</g>
</g>
<!-- Node1&#45;&gt;Node8 -->
<g id="edge8_Node000001_Node000008" class="edge">
<title>Node1&#45;&gt;Node8</title>
<g id="a_edge8_Node000001_Node000008"><a xlink:title=" ">
<path fill="none" stroke="#63b8ff" d="M228.75,-109.98C239.3,-102 255.3,-89.88 267.94,-80.31"/>
<polygon fill="#63b8ff" stroke="#63b8ff" points="270.19,-83 276.05,-74.17 265.96,-77.42 270.19,-83"/>
</a>
</g>
</g>
<!-- Node7&#45;&gt;Node6 -->
<g id="edge7_Node000007_Node000006" class="edge">
<title>Node7&#45;&gt;Node6</title>
<g id="a_edge7_Node000007_Node000006"><a xlink:title=" ">
<path fill="none" stroke="#63b8ff" d="M424.07,-54.75C417.65,-47.18 408.19,-36.05 400.38,-26.84"/>
<polygon fill="#63b8ff" stroke="#63b8ff" points="402.93,-24.45 393.79,-19.09 397.6,-28.98 402.93,-24.45"/>
</a>
</g>
</g>
<!-- Node8&#45;&gt;Node5 -->
<g id="edge9_Node000008_Node000005" class="edge">
<title>Node8&#45;&gt;Node5</title>
<g id="a_edge9_Node000008_Node000005"><a xlink:title=" ">
<path fill="none" stroke="#63b8ff" d="M282.71,-54.75C278.74,-47.49 272.97,-36.95 268.07,-27.98"/>
<polygon fill="#63b8ff" stroke="#63b8ff" points="271.07,-26.18 263.2,-19.09 264.93,-29.54 271.07,-26.18"/>
</a>
</g>
</g>
</g>
</svg>
