<?xml version="1.0" encoding="UTF-8" standalone="no"?>
<!DOCTYPE svg PUBLIC "-//W3C//DTD SVG 1.1//EN"
 "http://www.w3.org/Graphics/SVG/1.1/DTD/svg11.dtd">
<!-- Generated by graphviz version 2.43.0 (0)
 -->
<!-- Title: mate&#45;rr&#45;config.h Pages: 1 -->
<svg width="216pt" height="137pt"
 viewBox="0.00 0.00 215.50 137.00" xmlns="http://www.w3.org/2000/svg" xmlns:xlink="http://www.w3.org/1999/xlink">
<g id="graph0" class="graph" transform="scale(1 1) rotate(0) translate(4 133)">
<title>mate&#45;rr&#45;config.h</title>
<!-- Node1 -->
<g id="Node000001" class="node">
<title>Node1</title>
<g id="a_Node000001"><a xlink:title=" ">
<polygon fill="#999999" stroke="#666666" points="128.5,-129 33.5,-129 33.5,-110 128.5,-110 128.5,-129"/>
<text text-anchor="middle" x="81" y="-117" font-family="Helvetica,sans-Serif" font-size="10.00">mate&#45;rr&#45;config.h</text>
</a>
</g>
</g>
<!-- Node2 -->
<g id="Node000002" class="node">
<title>Node2</title>
<g id="a_Node000002"><a xlink:href="mate-rr_8h.html" target="_top" xlink:title=" ">
<polygon fill="white" stroke="#666666" points="112,-74 50,-74 50,-55 112,-55 112,-74"/>
<text text-anchor="middle" x="81" y="-62" font-family="Helvetica,sans-Serif" font-size="10.00">mate&#45;rr.h</text>
</a>
</g>
</g>
<!-- Node1&#45;&gt;Node2 -->
<g id="edge1_Node000001_Node000002" class="edge">
<title>Node1&#45;&gt;Node2</title>
<g id="a_edge1_Node000001_Node000002"><a xlink:title=" ">
<path fill="none" stroke="#63b8ff" d="M81,-109.75C81,-102.8 81,-92.85 81,-84.13"/>
<polygon fill="#63b8ff" stroke="#63b8ff" points="84.5,-84.09 81,-74.09 77.5,-84.09 84.5,-84.09"/>
</a>
</g>
</g>
<!-- Node3 -->
<g id="Node000003" class="node">
<title>Node3</title>
<g id="a_Node000003"><a xlink:title=" ">
<polygon fill="#e0e0e0" stroke="#999999" points="44,-19 0,-19 0,0 44,0 44,-19"/>
<text text-anchor="middle" x="22" y="-7" font-family="Helvetica,sans-Serif" font-size="10.00">glib.h</text>
</a>
</g>
</g>
<!-- Node1&#45;&gt;Node3 -->
<g id="edge4_Node000001_Node000003" class="edge">
<title>Node1&#45;&gt;Node3</title>
<g id="a_edge4_Node000001_Node000003"><a xlink:title=" ">
<path fill="none" stroke="#63b8ff" d="M71.09,-109.9C62.05,-101.56 48.93,-88.13 41,-74 33.16,-60.03 28.23,-42.47 25.36,-29.37"/>
<polygon fill="#63b8ff" stroke="#63b8ff" points="28.72,-28.32 23.35,-19.19 21.85,-29.68 28.72,-28.32"/>
</a>
</g>
</g>
<!-- Node5 -->
<g id="Node000005" class="node">
<title>Node5</title>
<g id="a_Node000005"><a xlink:title=" ">
<polygon fill="#e0e0e0" stroke="#999999" points="207.5,-74 130.5,-74 130.5,-55 207.5,-55 207.5,-74"/>
<text text-anchor="middle" x="169" y="-62" font-family="Helvetica,sans-Serif" font-size="10.00">glib&#45;object.h</text>
</a>
</g>
</g>
<!-- Node1&#45;&gt;Node5 -->
<g id="edge5_Node000001_Node000005" class="edge">
<title>Node1&#45;&gt;Node5</title>
<g id="a_edge5_Node000001_Node000005"><a xlink:title=" ">
<path fill="none" stroke="#63b8ff" d="M95.14,-109.98C108.79,-101.77 129.69,-89.18 145.78,-79.49"/>
<polygon fill="#63b8ff" stroke="#63b8ff" points="147.84,-82.33 154.6,-74.17 144.23,-76.33 147.84,-82.33"/>
</a>
</g>
</g>
<!-- Node2&#45;&gt;Node3 -->
<g id="edge2_Node000002_Node000003" class="edge">
<title>Node2&#45;&gt;Node3</title>
<g id="a_edge2_Node000002_Node000003"><a xlink:title=" ">
<path fill="none" stroke="#63b8ff" d="M71.52,-54.98C62.8,-47.15 49.66,-35.34 39.1,-25.86"/>
<polygon fill="#63b8ff" stroke="#63b8ff" points="41.43,-23.25 31.65,-19.17 36.75,-28.46 41.43,-23.25"/>
</a>
</g>
</g>
<!-- Node4 -->
<g id="Node000004" class="node">
<title>Node4</title>
<g id="a_Node000004"><a xlink:title=" ">
<polygon fill="#e0e0e0" stroke="#999999" points="127.5,-19 62.5,-19 62.5,0 127.5,0 127.5,-19"/>
<text text-anchor="middle" x="95" y="-7" font-family="Helvetica,sans-Serif" font-size="10.00">gdk/gdk.h</text>
</a>
</g>
</g>
<!-- Node2&#45;&gt;Node4 -->
<g id="edge3_Node000002_Node000004" class="edge">
<title>Node2&#45;&gt;Node4</title>
<g id="a_edge3_Node000002_Node000004"><a xlink:title=" ">
<path fill="none" stroke="#63b8ff" d="M83.31,-54.75C85.17,-47.72 87.84,-37.62 90.15,-28.84"/>
<polygon fill="#63b8ff" stroke="#63b8ff" points="93.56,-29.65 92.73,-19.09 86.79,-27.86 93.56,-29.65"/>
</a>
</g>
</g>
</g>
</svg>
