<?xml version="1.0" encoding="UTF-8" standalone="no"?>
<!DOCTYPE svg PUBLIC "-//W3C//DTD SVG 1.1//EN"
 "http://www.w3.org/Graphics/SVG/1.1/DTD/svg11.dtd">
<!-- Generated by graphviz version 2.43.0 (0)
 -->
<!-- Title: mate&#45;settings&#45;plugin.c Pages: 1 -->
<svg width="225pt" height="137pt"
 viewBox="0.00 0.00 224.50 137.00" xmlns="http://www.w3.org/2000/svg" xmlns:xlink="http://www.w3.org/1999/xlink">
<g id="graph0" class="graph" transform="scale(1 1) rotate(0) translate(4 133)">
<title>mate&#45;settings&#45;plugin.c</title>
<!-- Node1 -->
<g id="Node000001" class="node">
<title>Node1</title>
<g id="a_Node000001"><a xlink:title=" ">
<polygon fill="#999999" stroke="#666666" points="146,-129 19,-129 19,-110 146,-110 146,-129"/>
<text text-anchor="middle" x="82.5" y="-117" font-family="Helvetica,sans-Serif" font-size="10.00">mate&#45;settings&#45;plugin.c</text>
</a>
</g>
</g>
<!-- Node2 -->
<g id="Node000002" class="node">
<title>Node2</title>
<g id="a_Node000002"><a xlink:title=" ">
<polygon fill="#e0e0e0" stroke="#999999" points="55,-74 0,-74 0,-55 55,-55 55,-74"/>
<text text-anchor="middle" x="27.5" y="-62" font-family="Helvetica,sans-Serif" font-size="10.00">config.h</text>
</a>
</g>
</g>
<!-- Node1&#45;&gt;Node2 -->
<g id="edge1_Node000001_Node000002" class="edge">
<title>Node1&#45;&gt;Node2</title>
<g id="a_edge1_Node000001_Node000002"><a xlink:title=" ">
<path fill="none" stroke="#63b8ff" d="M73.42,-109.75C65.41,-102.03 53.54,-90.6 43.88,-81.28"/>
<polygon fill="#63b8ff" stroke="#63b8ff" points="46.04,-78.51 36.41,-74.09 41.19,-83.55 46.04,-78.51"/>
</a>
</g>
</g>
<!-- Node3 -->
<g id="Node000003" class="node">
<title>Node3</title>
<g id="a_Node000003"><a xlink:href="mate-settings-plugin_8h.html" target="_top" xlink:title=" ">
<polygon fill="white" stroke="#666666" points="201.5,-74 73.5,-74 73.5,-55 201.5,-55 201.5,-74"/>
<text text-anchor="middle" x="137.5" y="-62" font-family="Helvetica,sans-Serif" font-size="10.00">mate&#45;settings&#45;plugin.h</text>
</a>
</g>
</g>
<!-- Node1&#45;&gt;Node3 -->
<g id="edge2_Node000001_Node000003" class="edge">
<title>Node1&#45;&gt;Node3</title>
<g id="a_edge2_Node000001_Node000003"><a xlink:title=" ">
<path fill="none" stroke="#63b8ff" d="M91.58,-109.75C99.59,-102.03 111.46,-90.6 121.12,-81.28"/>
<polygon fill="#63b8ff" stroke="#63b8ff" points="123.81,-83.55 128.59,-74.09 118.96,-78.51 123.81,-83.55"/>
</a>
</g>
</g>
<!-- Node4 -->
<g id="Node000004" class="node">
<title>Node4</title>
<g id="a_Node000004"><a xlink:title=" ">
<polygon fill="#e0e0e0" stroke="#999999" points="130,-19 53,-19 53,0 130,0 130,-19"/>
<text text-anchor="middle" x="91.5" y="-7" font-family="Helvetica,sans-Serif" font-size="10.00">glib&#45;object.h</text>
</a>
</g>
</g>
<!-- Node3&#45;&gt;Node4 -->
<g id="edge3_Node000003_Node000004" class="edge">
<title>Node3&#45;&gt;Node4</title>
<g id="a_edge3_Node000003_Node000004"><a xlink:title=" ">
<path fill="none" stroke="#63b8ff" d="M129.9,-54.75C123.34,-47.18 113.68,-36.05 105.69,-26.84"/>
<polygon fill="#63b8ff" stroke="#63b8ff" points="108.15,-24.35 98.95,-19.09 102.87,-28.94 108.15,-24.35"/>
</a>
</g>
</g>
<!-- Node5 -->
<g id="Node000005" class="node">
<title>Node5</title>
<g id="a_Node000005"><a xlink:title=" ">
<polygon fill="#e0e0e0" stroke="#999999" points="216.5,-19 148.5,-19 148.5,0 216.5,0 216.5,-19"/>
<text text-anchor="middle" x="182.5" y="-7" font-family="Helvetica,sans-Serif" font-size="10.00">gmodule.h</text>
</a>
</g>
</g>
<!-- Node3&#45;&gt;Node5 -->
<g id="edge4_Node000003_Node000005" class="edge">
<title>Node3&#45;&gt;Node5</title>
<g id="a_edge4_Node000003_Node000005"><a xlink:title=" ">
<path fill="none" stroke="#63b8ff" d="M144.93,-54.75C151.35,-47.18 160.81,-36.05 168.62,-26.84"/>
<polygon fill="#63b8ff" stroke="#63b8ff" points="171.4,-28.98 175.21,-19.09 166.07,-24.45 171.4,-28.98"/>
</a>
</g>
</g>
</g>
</svg>
