<?xml version="1.0" encoding="UTF-8" standalone="no"?>
<!DOCTYPE svg PUBLIC "-//W3C//DTD SVG 1.1//EN"
 "http://www.w3.org/Graphics/SVG/1.1/DTD/svg11.dtd">
<!-- Generated by graphviz version 2.43.0 (0)
 -->
<!-- Title: mate&#45;wp&#45;item.c Pages: 1 -->
<svg width="1068pt" height="258pt"
 viewBox="0.00 0.00 1067.83 258.00" xmlns="http://www.w3.org/2000/svg" xmlns:xlink="http://www.w3.org/1999/xlink">
<g id="graph0" class="graph" transform="scale(1 1) rotate(0) translate(4 254)">
<title>mate&#45;wp&#45;item.c</title>
<!-- Node1 -->
<g id="Node000001" class="node">
<title>Node1</title>
<g id="a_Node000001"><a xlink:title=" ">
<polygon fill="#999999" stroke="#666666" points="339.83,-250 244.83,-250 244.83,-231 339.83,-231 339.83,-250"/>
<text text-anchor="middle" x="292.33" y="-238" font-family="Helvetica,sans-Serif" font-size="10.00">mate&#45;wp&#45;item.c</text>
</a>
</g>
</g>
<!-- Node2 -->
<g id="Node000002" class="node">
<title>Node2</title>
<g id="a_Node000002"><a xlink:title=" ">
<polygon fill="#e0e0e0" stroke="#999999" points="78.83,-79.5 23.83,-79.5 23.83,-60.5 78.83,-60.5 78.83,-79.5"/>
<text text-anchor="middle" x="51.33" y="-67.5" font-family="Helvetica,sans-Serif" font-size="10.00">config.h</text>
</a>
</g>
</g>
<!-- Node1&#45;&gt;Node2 -->
<g id="edge1_Node000001_Node000002" class="edge">
<title>Node1&#45;&gt;Node2</title>
<g id="a_edge1_Node000001_Node000002"><a xlink:title=" ">
<path fill="none" stroke="#63b8ff" d="M280.05,-230.91C241.21,-203.76 120.76,-119.54 72.07,-85.5"/>
<polygon fill="#63b8ff" stroke="#63b8ff" points="73.79,-82.43 63.59,-79.57 69.78,-88.17 73.79,-82.43"/>
</a>
</g>
</g>
<!-- Node3 -->
<g id="Node000003" class="node">
<title>Node3</title>
<g id="a_Node000003"><a xlink:title=" ">
<polygon fill="#e0e0e0" stroke="#999999" points="569.33,-195 495.33,-195 495.33,-176 569.33,-176 569.33,-195"/>
<text text-anchor="middle" x="532.33" y="-183" font-family="Helvetica,sans-Serif" font-size="10.00">glib/gi18n.h</text>
</a>
</g>
</g>
<!-- Node1&#45;&gt;Node3 -->
<g id="edge2_Node000001_Node000003" class="edge">
<title>Node1&#45;&gt;Node3</title>
<g id="a_edge2_Node000001_Node000003"><a xlink:title=" ">
<path fill="none" stroke="#63b8ff" d="M330.89,-230.98C372.9,-221.71 440.11,-206.86 485.22,-196.9"/>
<polygon fill="#63b8ff" stroke="#63b8ff" points="486.04,-200.31 495.05,-194.73 484.53,-193.47 486.04,-200.31"/>
</a>
</g>
</g>
<!-- Node4 -->
<g id="Node000004" class="node">
<title>Node4</title>
<g id="a_Node000004"><a xlink:title=" ">
<polygon fill="#e0e0e0" stroke="#999999" points="136.83,-19 77.83,-19 77.83,0 136.83,0 136.83,-19"/>
<text text-anchor="middle" x="107.33" y="-7" font-family="Helvetica,sans-Serif" font-size="10.00">gio/gio.h</text>
</a>
</g>
</g>
<!-- Node1&#45;&gt;Node4 -->
<g id="edge3_Node000001_Node000004" class="edge">
<title>Node1&#45;&gt;Node4</title>
<g id="a_edge3_Node000001_Node000004"><a xlink:title=" ">
<path fill="none" stroke="#63b8ff" d="M249.16,-231C182.74,-215.31 57.67,-174.85 5.33,-85 -1.38,-73.48 -1.97,-66.15 5.33,-55 19.1,-33.97 45.21,-22.83 67.56,-16.95"/>
<polygon fill="#63b8ff" stroke="#63b8ff" points="68.58,-20.3 77.51,-14.6 66.98,-13.49 68.58,-20.3"/>
</a>
</g>
</g>
<!-- Node5 -->
<g id="Node000005" class="node">
<title>Node5</title>
<g id="a_Node000005"><a xlink:title=" ">
<polygon fill="#e0e0e0" stroke="#999999" points="640.83,-195 587.83,-195 587.83,-176 640.83,-176 640.83,-195"/>
<text text-anchor="middle" x="614.33" y="-183" font-family="Helvetica,sans-Serif" font-size="10.00">string.h</text>
</a>
</g>
</g>
<!-- Node1&#45;&gt;Node5 -->
<g id="edge4_Node000001_Node000005" class="edge">
<title>Node1&#45;&gt;Node5</title>
<g id="a_edge4_Node000001_Node000005"><a xlink:title=" ">
<path fill="none" stroke="#63b8ff" d="M339.84,-233.26C394.69,-225.79 487.83,-212.34 577.57,-195.01"/>
<polygon fill="#63b8ff" stroke="#63b8ff" points="578.5,-198.39 587.64,-193.04 577.16,-191.52 578.5,-198.39"/>
</a>
</g>
</g>
<!-- Node6 -->
<g id="Node000006" class="node">
<title>Node6</title>
<g id="a_Node000006"><a xlink:href="appearance_8h.html" target="_top" xlink:title=" ">
<polygon fill="white" stroke="#666666" points="281.83,-140 198.83,-140 198.83,-121 281.83,-121 281.83,-140"/>
<text text-anchor="middle" x="240.33" y="-128" font-family="Helvetica,sans-Serif" font-size="10.00">appearance.h</text>
</a>
</g>
</g>
<!-- Node1&#45;&gt;Node6 -->
<g id="edge5_Node000001_Node000006" class="edge">
<title>Node1&#45;&gt;Node6</title>
<g id="a_edge5_Node000001_Node000006"><a xlink:title=" ">
<path fill="none" stroke="#63b8ff" d="M288.07,-230.66C279.54,-212.93 260.18,-172.73 248.91,-149.32"/>
<polygon fill="#63b8ff" stroke="#63b8ff" points="251.99,-147.65 244.5,-140.16 245.68,-150.69 251.99,-147.65"/>
</a>
</g>
</g>
<!-- Node16 -->
<g id="Node000016" class="node">
<title>Node16</title>
<g id="a_Node000016"><a xlink:href="mate-wp-item_8h.html" target="_top" xlink:title=" ">
<polygon fill="white" stroke="#666666" points="476.83,-195 381.83,-195 381.83,-176 476.83,-176 476.83,-195"/>
<text text-anchor="middle" x="429.33" y="-183" font-family="Helvetica,sans-Serif" font-size="10.00">mate&#45;wp&#45;item.h</text>
</a>
</g>
</g>
<!-- Node1&#45;&gt;Node16 -->
<g id="edge23_Node000001_Node000016" class="edge">
<title>Node1&#45;&gt;Node16</title>
<g id="a_edge23_Node000001_Node000016"><a xlink:title=" ">
<path fill="none" stroke="#63b8ff" d="M314.34,-230.98C336.78,-222.3 371.81,-208.75 397.32,-198.88"/>
<polygon fill="#63b8ff" stroke="#63b8ff" points="398.85,-202.04 406.92,-195.17 396.33,-195.51 398.85,-202.04"/>
</a>
</g>
</g>
<!-- Node6&#45;&gt;Node2 -->
<g id="edge6_Node000006_Node000002" class="edge">
<title>Node6&#45;&gt;Node2</title>
<g id="a_edge6_Node000006_Node000002"><a xlink:title=" ">
<path fill="none" stroke="#63b8ff" d="M211.25,-120.96C181.54,-112.17 134.11,-97.97 93.33,-85 91.04,-84.27 88.69,-83.51 86.32,-82.74"/>
<polygon fill="#63b8ff" stroke="#63b8ff" points="87.2,-79.35 76.61,-79.55 85.02,-86 87.2,-79.35"/>
</a>
</g>
</g>
<!-- Node6&#45;&gt;Node4 -->
<g id="edge9_Node000006_Node000004" class="edge">
<title>Node6&#45;&gt;Node4</title>
<g id="a_edge9_Node000006_Node000004"><a xlink:title=" ">
<path fill="none" stroke="#63b8ff" d="M216.68,-121C198.4,-113.57 173.28,-101.4 155.33,-85 137.65,-68.84 123.72,-44.78 115.52,-28.41"/>
<polygon fill="#63b8ff" stroke="#63b8ff" points="118.65,-26.85 111.17,-19.35 112.34,-29.88 118.65,-26.85"/>
</a>
</g>
</g>
<!-- Node7 -->
<g id="Node000007" class="node">
<title>Node7</title>
<g id="a_Node000007"><a xlink:title=" ">
<polygon fill="#e0e0e0" stroke="#999999" points="746.33,-19 702.33,-19 702.33,0 746.33,0 746.33,-19"/>
<text text-anchor="middle" x="724.33" y="-7" font-family="Helvetica,sans-Serif" font-size="10.00">glib.h</text>
</a>
</g>
</g>
<!-- Node6&#45;&gt;Node7 -->
<g id="edge7_Node000006_Node000007" class="edge">
<title>Node6&#45;&gt;Node7</title>
<g id="a_edge7_Node000006_Node000007"><a xlink:title=" ">
<path fill="none" stroke="#63b8ff" d="M282.08,-127.6C386.56,-122.53 653.36,-107.52 686.33,-85 705.21,-72.1 715.24,-46.87 720.17,-29.37"/>
<polygon fill="#63b8ff" stroke="#63b8ff" points="723.68,-29.74 722.71,-19.19 716.89,-28.05 723.68,-29.74"/>
</a>
</g>
</g>
<!-- Node8 -->
<g id="Node000008" class="node">
<title>Node8</title>
<g id="a_Node000008"><a xlink:title=" ">
<polygon fill="#e0e0e0" stroke="#999999" points="357.33,-19 297.33,-19 297.33,0 357.33,0 357.33,-19"/>
<text text-anchor="middle" x="327.33" y="-7" font-family="Helvetica,sans-Serif" font-size="10.00">gtk/gtk.h</text>
</a>
</g>
</g>
<!-- Node6&#45;&gt;Node8 -->
<g id="edge8_Node000006_Node000008" class="edge">
<title>Node6&#45;&gt;Node8</title>
<g id="a_edge8_Node000006_Node000008"><a xlink:title=" ">
<path fill="none" stroke="#63b8ff" d="M211.94,-120.92C194.87,-114.13 174.52,-102.77 164.33,-85 157.7,-73.43 156.24,-65.6 164.33,-55 179.16,-35.57 243.75,-22.58 287.04,-15.88"/>
<polygon fill="#63b8ff" stroke="#63b8ff" points="287.63,-19.33 297,-14.39 286.59,-12.41 287.63,-19.33"/>
</a>
</g>
</g>
<!-- Node9 -->
<g id="Node000009" class="node">
<title>Node9</title>
<g id="a_Node000009"><a xlink:href="mate-desktop-thumbnail_8h.html" target="_top" xlink:title=" ">
<polygon fill="white" stroke="#666666" points="972.83,-85 847.83,-85 847.83,-55 972.83,-55 972.83,-85"/>
<text text-anchor="start" x="855.83" y="-73" font-family="Helvetica,sans-Serif" font-size="10.00">libmate&#45;desktop/mate</text>
<text text-anchor="middle" x="910.33" y="-62" font-family="Helvetica,sans-Serif" font-size="10.00">&#45;desktop&#45;thumbnail.h</text>
</a>
</g>
</g>
<!-- Node6&#45;&gt;Node9 -->
<g id="edge10_Node000006_Node000009" class="edge">
<title>Node6&#45;&gt;Node9</title>
<g id="a_edge10_Node000006_Node000009"><a xlink:title=" ">
<path fill="none" stroke="#63b8ff" d="M281.99,-125.86C393,-116.17 697.01,-89.63 837.44,-77.36"/>
<polygon fill="#63b8ff" stroke="#63b8ff" points="838.02,-80.83 847.67,-76.47 837.41,-73.85 838.02,-80.83"/>
</a>
</g>
</g>
<!-- Node13 -->
<g id="Node000013" class="node">
<title>Node13</title>
<g id="a_Node000013"><a xlink:href="mate-image-menu-item_8h.html" target="_top" xlink:title=" ">
<polygon fill="white" stroke="#666666" points="298.83,-85 173.83,-85 173.83,-55 298.83,-55 298.83,-85"/>
<text text-anchor="start" x="181.83" y="-73" font-family="Helvetica,sans-Serif" font-size="10.00">libmate&#45;desktop/mate</text>
<text text-anchor="middle" x="236.33" y="-62" font-family="Helvetica,sans-Serif" font-size="10.00">&#45;image&#45;menu&#45;item.h</text>
</a>
</g>
</g>
<!-- Node6&#45;&gt;Node13 -->
<g id="edge15_Node000006_Node000013" class="edge">
<title>Node6&#45;&gt;Node13</title>
<g id="a_edge15_Node000006_Node000013"><a xlink:title=" ">
<path fill="none" stroke="#63b8ff" d="M239.74,-120.87C239.28,-114.11 238.61,-104.35 237.99,-95.26"/>
<polygon fill="#63b8ff" stroke="#63b8ff" points="241.47,-94.85 237.29,-85.11 234.49,-95.33 241.47,-94.85"/>
</a>
</g>
</g>
<!-- Node14 -->
<g id="Node000014" class="node">
<title>Node14</title>
<g id="a_Node000014"><a xlink:href="mate-theme-info_8h.html" target="_top" xlink:title=" ">
<polygon fill="white" stroke="#666666" points="502.83,-79.5 393.83,-79.5 393.83,-60.5 502.83,-60.5 502.83,-79.5"/>
<text text-anchor="middle" x="448.33" y="-67.5" font-family="Helvetica,sans-Serif" font-size="10.00">mate&#45;theme&#45;info.h</text>
</a>
</g>
</g>
<!-- Node6&#45;&gt;Node14 -->
<g id="edge17_Node000006_Node000014" class="edge">
<title>Node6&#45;&gt;Node14</title>
<g id="a_edge17_Node000006_Node000014"><a xlink:title=" ">
<path fill="none" stroke="#63b8ff" d="M270.57,-120.99C306.93,-110.77 368.06,-93.58 408.3,-82.26"/>
<polygon fill="#63b8ff" stroke="#63b8ff" points="409.37,-85.59 418.05,-79.52 407.47,-78.85 409.37,-85.59"/>
</a>
</g>
</g>
<!-- Node9&#45;&gt;Node7 -->
<g id="edge11_Node000009_Node000007" class="edge">
<title>Node9&#45;&gt;Node7</title>
<g id="a_edge11_Node000009_Node000007"><a xlink:title=" ">
<path fill="none" stroke="#63b8ff" d="M865.78,-54.99C831.98,-44.36 786.34,-30 756.16,-20.51"/>
<polygon fill="#63b8ff" stroke="#63b8ff" points="757.14,-17.15 746.55,-17.49 755.04,-23.83 757.14,-17.15"/>
</a>
</g>
</g>
<!-- Node10 -->
<g id="Node000010" class="node">
<title>Node10</title>
<g id="a_Node000010"><a xlink:title=" ">
<polygon fill="#e0e0e0" stroke="#999999" points="1059.83,-19 982.83,-19 982.83,0 1059.83,0 1059.83,-19"/>
<text text-anchor="middle" x="1021.33" y="-7" font-family="Helvetica,sans-Serif" font-size="10.00">glib&#45;object.h</text>
</a>
</g>
</g>
<!-- Node9&#45;&gt;Node10 -->
<g id="edge12_Node000009_Node000010" class="edge">
<title>Node9&#45;&gt;Node10</title>
<g id="a_edge12_Node000009_Node000010"><a xlink:title=" ">
<path fill="none" stroke="#63b8ff" d="M936.92,-54.99C954.78,-45.58 978.17,-33.24 995.81,-23.95"/>
<polygon fill="#63b8ff" stroke="#63b8ff" points="997.72,-26.9 1004.94,-19.14 994.46,-20.71 997.72,-26.9"/>
</a>
</g>
</g>
<!-- Node11 -->
<g id="Node000011" class="node">
<title>Node11</title>
<g id="a_Node000011"><a xlink:title=" ">
<polygon fill="#e0e0e0" stroke="#999999" points="964.33,-19 916.33,-19 916.33,0 964.33,0 964.33,-19"/>
<text text-anchor="middle" x="940.33" y="-7" font-family="Helvetica,sans-Serif" font-size="10.00">time.h</text>
</a>
</g>
</g>
<!-- Node9&#45;&gt;Node11 -->
<g id="edge13_Node000009_Node000011" class="edge">
<title>Node9&#45;&gt;Node11</title>
<g id="a_edge13_Node000009_Node000011"><a xlink:title=" ">
<path fill="none" stroke="#63b8ff" d="M917.59,-54.84C921.68,-46.87 926.82,-36.84 931.19,-28.33"/>
<polygon fill="#63b8ff" stroke="#63b8ff" points="934.39,-29.76 935.83,-19.27 928.16,-26.57 934.39,-29.76"/>
</a>
</g>
</g>
<!-- Node12 -->
<g id="Node000012" class="node">
<title>Node12</title>
<g id="a_Node000012"><a xlink:title=" ">
<polygon fill="#e0e0e0" stroke="#999999" points="897.83,-19 764.83,-19 764.83,0 897.83,0 897.83,-19"/>
<text text-anchor="middle" x="831.33" y="-7" font-family="Helvetica,sans-Serif" font-size="10.00">gdk&#45;pixbuf/gdk&#45;pixbuf.h</text>
</a>
</g>
</g>
<!-- Node9&#45;&gt;Node12 -->
<g id="edge14_Node000009_Node000012" class="edge">
<title>Node9&#45;&gt;Node12</title>
<g id="a_edge14_Node000009_Node000012"><a xlink:title=" ">
<path fill="none" stroke="#63b8ff" d="M891.21,-54.84C879.15,-45.91 863.62,-34.41 851.39,-25.35"/>
<polygon fill="#63b8ff" stroke="#63b8ff" points="853.29,-22.4 843.17,-19.27 849.12,-28.03 853.29,-22.4"/>
</a>
</g>
</g>
<!-- Node13&#45;&gt;Node8 -->
<g id="edge16_Node000013_Node000008" class="edge">
<title>Node13&#45;&gt;Node8</title>
<g id="a_edge16_Node000013_Node000008"><a xlink:title=" ">
<path fill="none" stroke="#63b8ff" d="M258.36,-54.84C272.6,-45.68 291.06,-33.82 305.3,-24.66"/>
<polygon fill="#63b8ff" stroke="#63b8ff" points="307.44,-27.45 313.96,-19.09 303.66,-21.56 307.44,-27.45"/>
</a>
</g>
</g>
<!-- Node14&#45;&gt;Node4 -->
<g id="edge19_Node000014_Node000004" class="edge">
<title>Node14&#45;&gt;Node4</title>
<g id="a_edge19_Node000014_Node000004"><a xlink:title=" ">
<path fill="none" stroke="#63b8ff" d="M407.52,-60.45C398.26,-58.59 388.47,-56.67 379.33,-55 297.04,-39.93 200.27,-24.68 147.19,-16.54"/>
<polygon fill="#63b8ff" stroke="#63b8ff" points="147.59,-13.06 137.18,-15 146.53,-19.98 147.59,-13.06"/>
</a>
</g>
</g>
<!-- Node14&#45;&gt;Node7 -->
<g id="edge18_Node000014_Node000007" class="edge">
<title>Node14&#45;&gt;Node7</title>
<g id="a_edge18_Node000014_Node000007"><a xlink:title=" ">
<path fill="none" stroke="#63b8ff" d="M488.46,-60.49C543.6,-48.81 641.67,-28.02 692.23,-17.3"/>
<polygon fill="#63b8ff" stroke="#63b8ff" points="693.2,-20.68 702.26,-15.18 691.75,-13.83 693.2,-20.68"/>
</a>
</g>
</g>
<!-- Node14&#45;&gt;Node8 -->
<g id="edge20_Node000014_Node000008" class="edge">
<title>Node14&#45;&gt;Node8</title>
<g id="a_edge20_Node000014_Node000008"><a xlink:title=" ">
<path fill="none" stroke="#63b8ff" d="M430.74,-60.49C410.57,-50.75 377.31,-34.66 353.97,-23.38"/>
<polygon fill="#63b8ff" stroke="#63b8ff" points="355.47,-20.22 344.95,-19.02 352.42,-26.52 355.47,-20.22"/>
</a>
</g>
</g>
<!-- Node14&#45;&gt;Node12 -->
<g id="edge21_Node000014_Node000012" class="edge">
<title>Node14&#45;&gt;Node12</title>
<g id="a_edge21_Node000014_Node000012"><a xlink:title=" ">
<path fill="none" stroke="#63b8ff" d="M503.2,-60.62C572.45,-50.04 691.41,-31.87 765.48,-20.56"/>
<polygon fill="#63b8ff" stroke="#63b8ff" points="766.27,-23.98 775.62,-19.01 765.21,-17.06 766.27,-23.98"/>
</a>
</g>
</g>
<!-- Node15 -->
<g id="Node000015" class="node">
<title>Node15</title>
<g id="a_Node000015"><a xlink:title=" ">
<polygon fill="#e0e0e0" stroke="#999999" points="563.83,-19 498.83,-19 498.83,0 563.83,0 563.83,-19"/>
<text text-anchor="middle" x="531.33" y="-7" font-family="Helvetica,sans-Serif" font-size="10.00">gdk/gdk.h</text>
</a>
</g>
</g>
<!-- Node14&#45;&gt;Node15 -->
<g id="edge22_Node000014_Node000015" class="edge">
<title>Node14&#45;&gt;Node15</title>
<g id="a_edge22_Node000014_Node000015"><a xlink:title=" ">
<path fill="none" stroke="#63b8ff" d="M460.58,-60.37C473.69,-51.12 494.75,-36.28 510.48,-25.19"/>
<polygon fill="#63b8ff" stroke="#63b8ff" points="512.88,-27.79 519.03,-19.17 508.84,-22.07 512.88,-27.79"/>
</a>
</g>
</g>
<!-- Node16&#45;&gt;Node4 -->
<g id="edge25_Node000016_Node000004" class="edge">
<title>Node16&#45;&gt;Node4</title>
<g id="a_edge25_Node000016_Node000004"><a xlink:title=" ">
<path fill="none" stroke="#63b8ff" d="M381.76,-180.6C282.25,-171.32 57.73,-144.13 14.33,-85 6.44,-74.25 7.22,-66.28 14.33,-55 26.08,-36.34 48.06,-25.34 67.7,-18.94"/>
<polygon fill="#63b8ff" stroke="#63b8ff" points="68.79,-22.27 77.39,-16.08 66.81,-15.55 68.79,-22.27"/>
</a>
</g>
</g>
<!-- Node16&#45;&gt;Node7 -->
<g id="edge24_Node000016_Node000007" class="edge">
<title>Node16&#45;&gt;Node7</title>
<g id="a_edge24_Node000016_Node000007"><a xlink:title=" ">
<path fill="none" stroke="#63b8ff" d="M476.84,-176.34C538.95,-165.5 641.83,-146.92 658.33,-140 698.12,-123.31 718.24,-123.19 738.33,-85 747.68,-67.23 740.91,-44.18 733.92,-28.45"/>
<polygon fill="#63b8ff" stroke="#63b8ff" points="736.98,-26.76 729.45,-19.31 730.69,-29.83 736.98,-26.76"/>
</a>
</g>
</g>
<!-- Node16&#45;&gt;Node8 -->
<g id="edge27_Node000016_Node000008" class="edge">
<title>Node16&#45;&gt;Node8</title>
<g id="a_edge27_Node000016_Node000008"><a xlink:title=" ">
<path fill="none" stroke="#63b8ff" d="M424.13,-175.63C408.1,-148.29 359.22,-64.9 337.69,-28.18"/>
<polygon fill="#63b8ff" stroke="#63b8ff" points="340.47,-26 332.4,-19.14 334.43,-29.54 340.47,-26"/>
</a>
</g>
</g>
<!-- Node16&#45;&gt;Node9 -->
<g id="edge28_Node000016_Node000009" class="edge">
<title>Node16&#45;&gt;Node9</title>
<g id="a_edge28_Node000016_Node000009"><a xlink:title=" ">
<path fill="none" stroke="#63b8ff" d="M476.89,-177.19C480.08,-176.76 483.25,-176.36 486.33,-176 532.19,-170.59 866.76,-171.7 900.33,-140 912.16,-128.83 914.32,-110.38 913.71,-95.36"/>
<polygon fill="#63b8ff" stroke="#63b8ff" points="917.18,-94.87 912.87,-85.19 910.21,-95.44 917.18,-94.87"/>
</a>
</g>
</g>
<!-- Node16&#45;&gt;Node12 -->
<g id="edge26_Node000016_Node000012" class="edge">
<title>Node16&#45;&gt;Node12</title>
<g id="a_edge26_Node000016_Node000012"><a xlink:title=" ">
<path fill="none" stroke="#63b8ff" d="M476.88,-177.17C480.08,-176.75 483.25,-176.36 486.33,-176 582.24,-164.87 830.41,-177.63 919.33,-140 962.63,-121.67 1010.49,-92.66 982.33,-55 971.3,-40.25 930,-28.69 893.38,-21.05"/>
<polygon fill="#63b8ff" stroke="#63b8ff" points="893.7,-17.55 883.21,-19.01 892.32,-24.41 893.7,-17.55"/>
</a>
</g>
</g>
<!-- Node17 -->
<g id="Node000017" class="node">
<title>Node17</title>
<g id="a_Node000017"><a xlink:href="mate-bg_8h.html" target="_top" xlink:title=" ">
<polygon fill="white" stroke="#666666" points="649.33,-140 499.33,-140 499.33,-121 649.33,-121 649.33,-140"/>
<text text-anchor="middle" x="574.33" y="-128" font-family="Helvetica,sans-Serif" font-size="10.00">libmate&#45;desktop/mate&#45;bg.h</text>
</a>
</g>
</g>
<!-- Node16&#45;&gt;Node17 -->
<g id="edge29_Node000016_Node000017" class="edge">
<title>Node16&#45;&gt;Node17</title>
<g id="a_edge29_Node000016_Node000017"><a xlink:title=" ">
<path fill="none" stroke="#63b8ff" d="M452.63,-175.98C476.58,-167.23 514.11,-153.51 541.16,-143.62"/>
<polygon fill="#63b8ff" stroke="#63b8ff" points="542.42,-146.89 550.61,-140.17 540.02,-140.32 542.42,-146.89"/>
</a>
</g>
</g>
<!-- Node19 -->
<g id="Node000019" class="node">
<title>Node19</title>
<g id="a_Node000019"><a xlink:href="mate-wp-info_8h.html" target="_top" xlink:title=" ">
<polygon fill="white" stroke="#666666" points="891.33,-140 799.33,-140 799.33,-121 891.33,-121 891.33,-140"/>
<text text-anchor="middle" x="845.33" y="-128" font-family="Helvetica,sans-Serif" font-size="10.00">mate&#45;wp&#45;info.h</text>
</a>
</g>
</g>
<!-- Node16&#45;&gt;Node19 -->
<g id="edge38_Node000016_Node000019" class="edge">
<title>Node16&#45;&gt;Node19</title>
<g id="a_edge38_Node000016_Node000019"><a xlink:title=" ">
<path fill="none" stroke="#63b8ff" d="M476.9,-177.3C480.09,-176.85 483.26,-176.41 486.33,-176 618.98,-158.13 652.62,-157.39 785.33,-140 786.59,-139.83 787.87,-139.67 789.15,-139.49"/>
<polygon fill="#63b8ff" stroke="#63b8ff" points="789.72,-142.95 799.16,-138.14 788.78,-136.01 789.72,-142.95"/>
</a>
</g>
</g>
<!-- Node17&#45;&gt;Node4 -->
<g id="edge32_Node000017_Node000004" class="edge">
<title>Node17&#45;&gt;Node4</title>
<g id="a_edge32_Node000017_Node000004"><a xlink:title=" ">
<path fill="none" stroke="#63b8ff" d="M530.09,-120.99C491.27,-113.08 433.51,-100.26 384.33,-85 349.25,-74.12 342.47,-65.69 307.33,-55 252.54,-38.34 187.57,-25.03 146.89,-17.45"/>
<polygon fill="#63b8ff" stroke="#63b8ff" points="147.31,-13.97 136.84,-15.61 146.04,-20.86 147.31,-13.97"/>
</a>
</g>
</g>
<!-- Node17&#45;&gt;Node7 -->
<g id="edge30_Node000017_Node000007" class="edge">
<title>Node17&#45;&gt;Node7</title>
<g id="a_edge30_Node000017_Node000007"><a xlink:title=" ">
<path fill="none" stroke="#63b8ff" d="M649.37,-123.68C675.46,-117.72 702.4,-106.36 719.33,-85 731.63,-69.48 731.03,-45.96 728.55,-29.51"/>
<polygon fill="#63b8ff" stroke="#63b8ff" points="731.94,-28.62 726.66,-19.43 725.06,-29.91 731.94,-28.62"/>
</a>
</g>
</g>
<!-- Node17&#45;&gt;Node9 -->
<g id="edge33_Node000017_Node000009" class="edge">
<title>Node17&#45;&gt;Node9</title>
<g id="a_edge33_Node000017_Node000009"><a xlink:title=" ">
<path fill="none" stroke="#63b8ff" d="M623.19,-120.99C679.51,-111.19 772.64,-94.97 837.51,-83.68"/>
<polygon fill="#63b8ff" stroke="#63b8ff" points="838.42,-87.07 847.67,-81.91 837.22,-80.18 838.42,-87.07"/>
</a>
</g>
</g>
<!-- Node17&#45;&gt;Node15 -->
<g id="edge31_Node000017_Node000015" class="edge">
<title>Node17&#45;&gt;Node15</title>
<g id="a_edge31_Node000017_Node000015"><a xlink:title=" ">
<path fill="none" stroke="#63b8ff" d="M568.89,-120.94C563.53,-112.19 555.44,-98.08 550.33,-85 543.21,-66.77 538.02,-44.98 534.87,-29.69"/>
<polygon fill="#63b8ff" stroke="#63b8ff" points="538.22,-28.58 532.87,-19.44 531.35,-29.92 538.22,-28.58"/>
</a>
</g>
</g>
<!-- Node18 -->
<g id="Node000018" class="node">
<title>Node18</title>
<g id="a_Node000018"><a xlink:href="mate-bg-crossfade_8h.html" target="_top" xlink:title=" ">
<polygon fill="white" stroke="#666666" points="677.33,-79.5 559.33,-79.5 559.33,-60.5 677.33,-60.5 677.33,-79.5"/>
<text text-anchor="middle" x="618.33" y="-67.5" font-family="Helvetica,sans-Serif" font-size="10.00">mate&#45;bg&#45;crossfade.h</text>
</a>
</g>
</g>
<!-- Node17&#45;&gt;Node18 -->
<g id="edge34_Node000017_Node000018" class="edge">
<title>Node17&#45;&gt;Node18</title>
<g id="a_edge34_Node000017_Node000018"><a xlink:title=" ">
<path fill="none" stroke="#63b8ff" d="M580.82,-120.87C587.32,-112.23 597.49,-98.7 605.61,-87.92"/>
<polygon fill="#63b8ff" stroke="#63b8ff" points="608.6,-89.76 611.81,-79.67 603,-85.56 608.6,-89.76"/>
</a>
</g>
</g>
<!-- Node18&#45;&gt;Node7 -->
<g id="edge35_Node000018_Node000007" class="edge">
<title>Node18&#45;&gt;Node7</title>
<g id="a_edge35_Node000018_Node000007"><a xlink:title=" ">
<path fill="none" stroke="#63b8ff" d="M633.97,-60.37C651.27,-50.82 679.38,-35.31 699.65,-24.12"/>
<polygon fill="#63b8ff" stroke="#63b8ff" points="701.56,-27.06 708.62,-19.17 698.18,-20.93 701.56,-27.06"/>
</a>
</g>
</g>
<!-- Node18&#45;&gt;Node8 -->
<g id="edge37_Node000018_Node000008" class="edge">
<title>Node18&#45;&gt;Node8</title>
<g id="a_edge37_Node000018_Node000008"><a xlink:title=" ">
<path fill="none" stroke="#63b8ff" d="M576.02,-60.49C520.19,-49.27 422.6,-29.65 367.74,-18.62"/>
<polygon fill="#63b8ff" stroke="#63b8ff" points="368.18,-15.14 357.69,-16.6 366.8,-22 368.18,-15.14"/>
</a>
</g>
</g>
<!-- Node18&#45;&gt;Node15 -->
<g id="edge36_Node000018_Node000015" class="edge">
<title>Node18&#45;&gt;Node15</title>
<g id="a_edge36_Node000018_Node000015"><a xlink:title=" ">
<path fill="none" stroke="#63b8ff" d="M605.49,-60.37C591.61,-51.04 569.26,-36.01 552.72,-24.88"/>
<polygon fill="#63b8ff" stroke="#63b8ff" points="554.47,-21.84 544.22,-19.17 550.57,-27.65 554.47,-21.84"/>
</a>
</g>
</g>
<!-- Node19&#45;&gt;Node7 -->
<g id="edge39_Node000019_Node000007" class="edge">
<title>Node19&#45;&gt;Node7</title>
<g id="a_edge39_Node000019_Node000007"><a xlink:title=" ">
<path fill="none" stroke="#63b8ff" d="M841.07,-120.84C833.47,-106.01 816.36,-75.38 795.33,-55 782.51,-42.58 765.67,-31.84 751.61,-24.03"/>
<polygon fill="#63b8ff" stroke="#63b8ff" points="752.87,-20.73 742.4,-19.1 749.57,-26.91 752.87,-20.73"/>
</a>
</g>
</g>
<!-- Node19&#45;&gt;Node9 -->
<g id="edge40_Node000019_Node000009" class="edge">
<title>Node19&#45;&gt;Node9</title>
<g id="a_edge40_Node000019_Node000009"><a xlink:title=" ">
<path fill="none" stroke="#63b8ff" d="M854.92,-120.87C863.33,-113.3 875.91,-101.98 886.96,-92.04"/>
<polygon fill="#63b8ff" stroke="#63b8ff" points="889.56,-94.41 894.65,-85.11 884.87,-89.2 889.56,-94.41"/>
</a>
</g>
</g>
</g>
</svg>
