<?xml version="1.0" encoding="UTF-8" standalone="no"?>
<!DOCTYPE svg PUBLIC "-//W3C//DTD SVG 1.1//EN"
 "http://www.w3.org/Graphics/SVG/1.1/DTD/svg11.dtd">
<!-- Generated by graphviz version 2.43.0 (0)
 -->
<!-- Title: mateweather&#45;prefs.h Pages: 1 -->
<!--zoomable 192 -->

<svg id="main" version="1.1" xmlns="http://www.w3.org/2000/svg" xmlns:xlink="http://www.w3.org/1999/xlink" xml:space="preserve" onload="init(evt)">
<style type="text/css"><![CDATA[
.node, .edge {opacity: 0.7;}
.node.selected, .edge.selected {opacity: 1;}
.edge:hover path { stroke: red; }
.edge:hover polygon { stroke: red; fill: red; }
]]></style>

<defs>
  <circle id="rim" cx="0" cy="0" r="7"/>
  <circle id="rim2" cx="0" cy="0" r="3.5"/>
  <g id="zoomPlus">
    <use xlink:href="#rim" fill="#404040"><set attributeName="fill" to="#808080" begin="zoomplus.mouseover" end="zoomplus.mouseout"/></use>
    <path d="M-4,0h8M0,-4v8" fill="none" stroke="white" stroke-width="1.5" pointer-events="none"/>
  </g>
  <g id="zoomMin">
    <use xlink:href="#rim" fill="#404040"><set attributeName="fill" to="#808080" begin="zoomminus.mouseover" end="zoomminus.mouseout"/></use>
    <path d="M-4,0h8" fill="none" stroke="white" stroke-width="1.5" pointer-events="none"/>
  </g>
  <g id="arrowUp" transform="translate(30 24)">
    <use xlink:href="#rim"/>
    <path pointer-events="none" fill="none" stroke="white" stroke-width="1.5" d="M0,-3.0v7 M-2.5,-0.5L0,-3.0L2.5,-0.5"/>
  </g>
  <g id="arrowRight" transform="rotate(90) translate(36 -43)">
    <use xlink:href="#rim"/>
    <path pointer-events="none" fill="none" stroke="white" stroke-width="1.5" d="M0,-3.0v7 M-2.5,-0.5L0,-3.0L2.5,-0.5"/>
  </g>
  <g id="arrowDown" transform="rotate(180) translate(-30 -48)">
    <use xlink:href="#rim"/>
    <path pointer-events="none" fill="none" stroke="white" stroke-width="1.5" d="M0,-3.0v7 M-2.5,-0.5L0,-3.0L2.5,-0.5"/>
  </g>
  <g id="arrowLeft" transform="rotate(270) translate(-36 17)">
    <use xlink:href="#rim"/>
    <path pointer-events="none" fill="none" stroke="white" stroke-width="1.5" d="M0,-3.0v7 M-2.5,-0.5L0,-3.0L2.5,-0.5"/>
  </g>
  <g id="resetDef">
    <use xlink:href="#rim2" fill="#404040"><set attributeName="fill" to="#808080" begin="reset.mouseover" end="reset.mouseout"/></use>
  </g>
</defs>
<script type="application/ecmascript">
var viewWidth = 799;
var viewHeight = 192;
var sectionId = 'dynsection-1';
</script>
<script type="application/ecmascript" xlink:href="svg.min.js"/>
<svg id="graph" class="graph">
<g id="viewport">
<title>mateweather&#45;prefs.h</title>
<!-- Node1 -->
<g id="Node000001" class="node">
<title>Node1</title>
<g id="a_Node000001"><a xlink:title=" ">
<polygon fill="#999999" stroke="#666666" points="264.5,-184 145.5,-184 145.5,-165 264.5,-165 264.5,-184"/>
<text text-anchor="middle" x="205" y="-172" font-family="Helvetica,sans-Serif" font-size="10.00">mateweather&#45;prefs.h</text>
</a>
</g>
</g>
<!-- Node2 -->
<g id="Node000002" class="node">
<title>Node2</title>
<g id="a_Node000002"><a xlink:href="clock_8c.html" target="_top" xlink:title=" ">
<polygon fill="white" stroke="#666666" points="50,-129 0,-129 0,-110 50,-110 50,-129"/>
<text text-anchor="middle" x="25" y="-117" font-family="Helvetica,sans-Serif" font-size="10.00">clock.c</text>
</a>
</g>
</g>
<!-- Node1&#45;&gt;Node2 -->
<g id="edge1_Node000001_Node000002" class="edge">
<title>Node1&#45;&gt;Node2</title>
<g id="a_edge1_Node000001_Node000002"><a xlink:title=" ">
<path fill="none" stroke="#63b8ff" d="M166.15,-162.06C130.97,-151.7 80.17,-136.74 50.07,-127.88"/>
<polygon fill="#63b8ff" stroke="#63b8ff" points="165.5,-165.52 176.08,-164.98 167.48,-158.8 165.5,-165.52"/>
</a>
</g>
</g>
<!-- Node3 -->
<g id="Node000003" class="node">
<title>Node3</title>
<g id="a_Node000003"><a xlink:href="mate-applets_2mateweather_2src_2main_8c.html" target="_top" xlink:title=" ">
<polygon fill="white" stroke="#666666" points="342,-19 292,-19 292,0 342,0 342,-19"/>
<text text-anchor="middle" x="317" y="-7" font-family="Helvetica,sans-Serif" font-size="10.00">main.c</text>
</a>
</g>
</g>
<!-- Node1&#45;&gt;Node3 -->
<g id="edge2_Node000001_Node000003" class="edge">
<title>Node1&#45;&gt;Node3</title>
<g id="a_edge2_Node000001_Node000003"><a xlink:title=" ">
<path fill="none" stroke="#63b8ff" d="M190.38,-157.31C170.28,-133.04 139.18,-86.68 163,-55 178.51,-34.37 252.4,-20.27 291.92,-14.07"/>
<polygon fill="#63b8ff" stroke="#63b8ff" points="187.75,-159.62 196.92,-164.92 193.05,-155.06 187.75,-159.62"/>
</a>
</g>
</g>
<!-- Node4 -->
<g id="Node000004" class="node">
<title>Node4</title>
<g id="a_Node000004"><a xlink:href="mateweather-prefs_8c.html" target="_top" xlink:title=" ">
<polygon fill="white" stroke="#666666" points="514.5,-129 395.5,-129 395.5,-110 514.5,-110 514.5,-129"/>
<text text-anchor="middle" x="455" y="-117" font-family="Helvetica,sans-Serif" font-size="10.00">mateweather&#45;prefs.c</text>
</a>
</g>
</g>
<!-- Node1&#45;&gt;Node4 -->
<g id="edge3_Node000001_Node000004" class="edge">
<title>Node1&#45;&gt;Node4</title>
<g id="a_edge3_Node000001_Node000004"><a xlink:title=" ">
<path fill="none" stroke="#63b8ff" d="M255.1,-162.88C301.96,-152.94 371.06,-138.3 414.52,-129.08"/>
<polygon fill="#63b8ff" stroke="#63b8ff" points="254.22,-159.49 245.17,-164.98 255.68,-166.33 254.22,-159.49"/>
</a>
</g>
</g>
<!-- Node5 -->
<g id="Node000005" class="node">
<title>Node5</title>
<g id="a_Node000005"><a xlink:href="mateweather_8h.html" target="_top" xlink:title=" ">
<polygon fill="white" stroke="#666666" points="377,-129 287,-129 287,-110 377,-110 377,-129"/>
<text text-anchor="middle" x="332" y="-117" font-family="Helvetica,sans-Serif" font-size="10.00">mateweather.h</text>
</a>
</g>
</g>
<!-- Node1&#45;&gt;Node5 -->
<g id="edge4_Node000001_Node000005" class="edge">
<title>Node1&#45;&gt;Node5</title>
<g id="a_edge4_Node000001_Node000005"><a xlink:title=" ">
<path fill="none" stroke="#63b8ff" d="M234.88,-161.03C258.37,-151.23 290.47,-137.83 311.22,-129.17"/>
<polygon fill="#63b8ff" stroke="#63b8ff" points="233.29,-157.9 225.4,-164.98 235.98,-164.36 233.29,-157.9"/>
</a>
</g>
</g>
<!-- Node5&#45;&gt;Node3 -->
<g id="edge5_Node000005_Node000003" class="edge">
<title>Node5&#45;&gt;Node3</title>
<g id="a_edge5_Node000005_Node000003"><a xlink:title=" ">
<path fill="none" stroke="#63b8ff" d="M276.65,-110.23C235.98,-102.9 185.7,-90.74 173,-74 140.64,-31.33 242.24,-16.78 291.64,-12.3"/>
<polygon fill="#63b8ff" stroke="#63b8ff" points="276.3,-113.73 286.75,-111.99 277.5,-106.83 276.3,-113.73"/>
</a>
</g>
</g>
<!-- Node6 -->
<g id="Node000006" class="node">
<title>Node6</title>
<g id="a_Node000006"><a xlink:href="mateweather-about_8c.html" target="_top" xlink:title=" ">
<polygon fill="white" stroke="#666666" points="226,-19 104,-19 104,0 226,0 226,-19"/>
<text text-anchor="middle" x="165" y="-7" font-family="Helvetica,sans-Serif" font-size="10.00">mateweather&#45;about.c</text>
</a>
</g>
</g>
<!-- Node5&#45;&gt;Node6 -->
<g id="edge6_Node000005_Node000006" class="edge">
<title>Node5&#45;&gt;Node6</title>
<g id="a_edge6_Node000005_Node000006"><a xlink:title=" ">
<path fill="none" stroke="#63b8ff" d="M276.88,-111.31C233.09,-104.33 176.96,-92.11 163,-74 150.75,-58.1 156.93,-32.71 161.52,-19.36"/>
<polygon fill="#63b8ff" stroke="#63b8ff" points="276.44,-114.78 286.86,-112.84 277.51,-107.86 276.44,-114.78"/>
</a>
</g>
</g>
<!-- Node7 -->
<g id="Node000007" class="node">
<title>Node7</title>
<g id="a_Node000007"><a xlink:href="mateweather-about_8h.html" target="_top" xlink:title=" ">
<polygon fill="white" stroke="#666666" points="304,-74 182,-74 182,-55 304,-55 304,-74"/>
<text text-anchor="middle" x="243" y="-62" font-family="Helvetica,sans-Serif" font-size="10.00">mateweather&#45;about.h</text>
</a>
</g>
</g>
<!-- Node5&#45;&gt;Node7 -->
<g id="edge7_Node000005_Node000007" class="edge">
<title>Node5&#45;&gt;Node7</title>
<g id="a_edge7_Node000005_Node000007"><a xlink:title=" ">
<path fill="none" stroke="#63b8ff" d="M308.82,-104.7C292.61,-95.04 271.45,-82.44 257.56,-74.17"/>
<polygon fill="#63b8ff" stroke="#63b8ff" points="307.32,-107.88 317.7,-109.98 310.9,-101.86 307.32,-107.88"/>
</a>
</g>
</g>
<!-- Node8 -->
<g id="Node000008" class="node">
<title>Node8</title>
<g id="a_Node000008"><a xlink:href="mateweather-applet_8c.html" target="_top" xlink:title=" ">
<polygon fill="white" stroke="#666666" points="485.5,-19 360.5,-19 360.5,0 485.5,0 485.5,-19"/>
<text text-anchor="middle" x="423" y="-7" font-family="Helvetica,sans-Serif" font-size="10.00">mateweather&#45;applet.c</text>
</a>
</g>
</g>
<!-- Node5&#45;&gt;Node8 -->
<g id="edge10_Node000005_Node000008" class="edge">
<title>Node5&#45;&gt;Node8</title>
<g id="a_edge10_Node000005_Node000008"><a xlink:title=" ">
<path fill="none" stroke="#63b8ff" d="M334.02,-99.71C336.29,-86.14 341.05,-67.99 351,-55 363.78,-38.32 384.75,-26.39 400.77,-19.11"/>
<polygon fill="#63b8ff" stroke="#63b8ff" points="330.53,-99.44 332.65,-109.82 337.47,-100.38 330.53,-99.44"/>
</a>
</g>
</g>
<!-- Node9 -->
<g id="Node000009" class="node">
<title>Node9</title>
<g id="a_Node000009"><a xlink:href="mateweather-applet_8h.html" target="_top" xlink:title=" ">
<polygon fill="white" stroke="#666666" points="485.5,-74 360.5,-74 360.5,-55 485.5,-55 485.5,-74"/>
<text text-anchor="middle" x="423" y="-62" font-family="Helvetica,sans-Serif" font-size="10.00">mateweather&#45;applet.h</text>
</a>
</g>
</g>
<!-- Node5&#45;&gt;Node9 -->
<g id="edge11_Node000005_Node000009" class="edge">
<title>Node5&#45;&gt;Node9</title>
<g id="a_edge11_Node000005_Node000009"><a xlink:title=" ">
<path fill="none" stroke="#63b8ff" d="M355.7,-104.7C372.28,-95.04 393.91,-82.44 408.11,-74.17"/>
<polygon fill="#63b8ff" stroke="#63b8ff" points="353.5,-101.93 346.62,-109.98 357.02,-107.98 353.5,-101.93"/>
</a>
</g>
</g>
<!-- Node10 -->
<g id="Node000010" class="node">
<title>Node10</title>
<g id="a_Node000010"><a xlink:href="mateweather-dialog_8c.html" target="_top" xlink:title=" ">
<polygon fill="white" stroke="#666666" points="628,-19 504,-19 504,0 628,0 628,-19"/>
<text text-anchor="middle" x="566" y="-7" font-family="Helvetica,sans-Serif" font-size="10.00">mateweather&#45;dialog.c</text>
</a>
</g>
</g>
<!-- Node5&#45;&gt;Node10 -->
<g id="edge16_Node000005_Node000010" class="edge">
<title>Node5&#45;&gt;Node10</title>
<g id="a_edge16_Node000005_Node000010"><a xlink:title=" ">
<path fill="none" stroke="#63b8ff" d="M387.27,-110.22C460.51,-104.68 741.74,-103.94 769,-74 774.68,-67.76 774.29,-61.58 769,-55 759.68,-43.42 678.28,-28.32 621.44,-19.02"/>
<polygon fill="#63b8ff" stroke="#63b8ff" points="386.67,-106.76 377.05,-111.19 387.34,-113.73 386.67,-106.76"/>
</a>
</g>
</g>
<!-- Node11 -->
<g id="Node000011" class="node">
<title>Node11</title>
<g id="a_Node000011"><a xlink:href="mateweather-pref_8c.html" target="_top" xlink:title=" ">
<polygon fill="white" stroke="#666666" points="759.5,-19 646.5,-19 646.5,0 759.5,0 759.5,-19"/>
<text text-anchor="middle" x="703" y="-7" font-family="Helvetica,sans-Serif" font-size="10.00">mateweather&#45;pref.c</text>
</a>
</g>
</g>
<!-- Node5&#45;&gt;Node11 -->
<g id="edge22_Node000005_Node000011" class="edge">
<title>Node5&#45;&gt;Node11</title>
<g id="a_edge22_Node000005_Node000011"><a xlink:title=" ">
<path fill="none" stroke="#63b8ff" d="M387.17,-110.23C462.4,-104.68 756.5,-105.19 785,-74 805.95,-51.07 761.44,-30.21 730.17,-19.04"/>
<polygon fill="#63b8ff" stroke="#63b8ff" points="386.68,-106.76 377.05,-111.18 387.33,-113.73 386.68,-106.76"/>
</a>
</g>
</g>
<!-- Node12 -->
<g id="Node000012" class="node">
<title>Node12</title>
<g id="a_Node000012"><a xlink:href="mateweather-dialog_8h.html" target="_top" xlink:title=" ">
<polygon fill="white" stroke="#666666" points="628.5,-74 503.5,-74 503.5,-55 628.5,-55 628.5,-74"/>
<text text-anchor="middle" x="566" y="-62" font-family="Helvetica,sans-Serif" font-size="10.00">mateweather&#45;dialog.h</text>
</a>
</g>
</g>
<!-- Node5&#45;&gt;Node12 -->
<g id="edge17_Node000005_Node000012" class="edge">
<title>Node5&#45;&gt;Node12</title>
<g id="a_edge17_Node000005_Node000012"><a xlink:title=" ">
<path fill="none" stroke="#63b8ff" d="M379.45,-107.75C423.3,-97.82 487.6,-83.26 528.11,-74.08"/>
<polygon fill="#63b8ff" stroke="#63b8ff" points="378.58,-104.36 369.6,-109.98 380.12,-111.19 378.58,-104.36"/>
</a>
</g>
</g>
<!-- Node13 -->
<g id="Node000013" class="node">
<title>Node13</title>
<g id="a_Node000013"><a xlink:href="mateweather-pref_8h.html" target="_top" xlink:title=" ">
<polygon fill="white" stroke="#666666" points="759.5,-74 646.5,-74 646.5,-55 759.5,-55 759.5,-74"/>
<text text-anchor="middle" x="703" y="-62" font-family="Helvetica,sans-Serif" font-size="10.00">mateweather&#45;pref.h</text>
</a>
</g>
</g>
<!-- Node5&#45;&gt;Node13 -->
<g id="edge23_Node000005_Node000013" class="edge">
<title>Node5&#45;&gt;Node13</title>
<g id="a_edge23_Node000005_Node000013"><a xlink:title=" ">
<path fill="none" stroke="#63b8ff" d="M387.04,-109.87C483.95,-95.49 584.92,-81.54 646.27,-73.17"/>
<polygon fill="#63b8ff" stroke="#63b8ff" points="386.45,-106.41 377.07,-111.35 387.48,-113.34 386.45,-106.41"/>
</a>
</g>
</g>
<!-- Node7&#45;&gt;Node6 -->
<g id="edge8_Node000007_Node000006" class="edge">
<title>Node7&#45;&gt;Node6</title>
<g id="a_edge8_Node000007_Node000006"><a xlink:title=" ">
<path fill="none" stroke="#63b8ff" d="M221.88,-49.15C207.79,-39.57 189.71,-27.29 177.76,-19.17"/>
<polygon fill="#63b8ff" stroke="#63b8ff" points="220.23,-52.26 230.47,-54.98 224.16,-46.47 220.23,-52.26"/>
</a>
</g>
</g>
<!-- Node7&#45;&gt;Node8 -->
<g id="edge9_Node000007_Node000008" class="edge">
<title>Node7&#45;&gt;Node8</title>
<g id="a_edge9_Node000007_Node000008"><a xlink:title=" ">
<path fill="none" stroke="#63b8ff" d="M281.87,-52.06C315.51,-42.15 363.42,-28.04 393.85,-19.08"/>
<polygon fill="#63b8ff" stroke="#63b8ff" points="280.52,-48.8 271.92,-54.98 282.5,-55.52 280.52,-48.8"/>
</a>
</g>
</g>
<!-- Node9&#45;&gt;Node3 -->
<g id="edge12_Node000009_Node000003" class="edge">
<title>Node9&#45;&gt;Node3</title>
<g id="a_edge12_Node000009_Node000003"><a xlink:title=" ">
<path fill="none" stroke="#63b8ff" d="M397,-50.5C377.5,-40.75 351.35,-27.68 334.34,-19.17"/>
<polygon fill="#63b8ff" stroke="#63b8ff" points="395.46,-53.64 405.97,-54.98 398.59,-47.38 395.46,-53.64"/>
</a>
</g>
</g>
<!-- Node9&#45;&gt;Node8 -->
<g id="edge13_Node000009_Node000008" class="edge">
<title>Node9&#45;&gt;Node8</title>
<g id="a_edge13_Node000009_Node000008"><a xlink:title=" ">
<path fill="none" stroke="#63b8ff" d="M423,-44.66C423,-35.93 423,-25.99 423,-19.09"/>
<polygon fill="#63b8ff" stroke="#63b8ff" points="419.5,-44.75 423,-54.75 426.5,-44.75 419.5,-44.75"/>
</a>
</g>
</g>
<!-- Node9&#45;&gt;Node10 -->
<g id="edge14_Node000009_Node000010" class="edge">
<title>Node9&#45;&gt;Node10</title>
<g id="a_edge14_Node000009_Node000010"><a xlink:title=" ">
<path fill="none" stroke="#63b8ff" d="M455.59,-51.42C482.12,-41.59 518.93,-27.95 542.61,-19.17"/>
<polygon fill="#63b8ff" stroke="#63b8ff" points="454.14,-48.23 445.98,-54.98 456.57,-54.79 454.14,-48.23"/>
</a>
</g>
</g>
<!-- Node9&#45;&gt;Node11 -->
<g id="edge15_Node000009_Node000011" class="edge">
<title>Node9&#45;&gt;Node11</title>
<g id="a_edge15_Node000009_Node000011"><a xlink:title=" ">
<path fill="none" stroke="#63b8ff" d="M478.13,-53.07C530.62,-43.13 608.68,-28.35 657.66,-19.08"/>
<polygon fill="#63b8ff" stroke="#63b8ff" points="477.16,-49.69 467.99,-54.98 478.46,-56.56 477.16,-49.69"/>
</a>
</g>
</g>
<!-- Node12&#45;&gt;Node3 -->
<g id="edge18_Node000012_Node000003" class="edge">
<title>Node12&#45;&gt;Node3</title>
<g id="a_edge18_Node000012_Node000003"><a xlink:title=" ">
<path fill="none" stroke="#63b8ff" d="M512.42,-53.04C468.84,-44.39 405.82,-31.52 351,-19 348.15,-18.35 345.18,-17.64 342.22,-16.93"/>
<polygon fill="#63b8ff" stroke="#63b8ff" points="511.75,-56.48 522.24,-54.99 513.11,-49.61 511.75,-56.48"/>
</a>
</g>
</g>
<!-- Node12&#45;&gt;Node8 -->
<g id="edge19_Node000012_Node000008" class="edge">
<title>Node12&#45;&gt;Node8</title>
<g id="a_edge19_Node000012_Node000008"><a xlink:title=" ">
<path fill="none" stroke="#63b8ff" d="M533.41,-51.42C506.88,-41.59 470.07,-27.95 446.39,-19.17"/>
<polygon fill="#63b8ff" stroke="#63b8ff" points="532.43,-54.79 543.02,-54.98 534.86,-48.23 532.43,-54.79"/>
</a>
</g>
</g>
<!-- Node12&#45;&gt;Node10 -->
<g id="edge20_Node000012_Node000010" class="edge">
<title>Node12&#45;&gt;Node10</title>
<g id="a_edge20_Node000012_Node000010"><a xlink:title=" ">
<path fill="none" stroke="#63b8ff" d="M566,-44.66C566,-35.93 566,-25.99 566,-19.09"/>
<polygon fill="#63b8ff" stroke="#63b8ff" points="562.5,-44.75 566,-54.75 569.5,-44.75 562.5,-44.75"/>
</a>
</g>
</g>
<!-- Node12&#45;&gt;Node11 -->
<g id="edge21_Node000012_Node000011" class="edge">
<title>Node12&#45;&gt;Node11</title>
<g id="a_edge21_Node000012_Node000011"><a xlink:title=" ">
<path fill="none" stroke="#63b8ff" d="M597.56,-51.29C622.95,-41.47 658,-27.91 680.59,-19.17"/>
<polygon fill="#63b8ff" stroke="#63b8ff" points="596.08,-48.11 588.01,-54.98 598.6,-54.64 596.08,-48.11"/>
</a>
</g>
</g>
<!-- Node13&#45;&gt;Node3 -->
<g id="edge24_Node000013_Node000003" class="edge">
<title>Node13&#45;&gt;Node3</title>
<g id="a_edge24_Node000013_Node000003"><a xlink:title=" ">
<path fill="none" stroke="#63b8ff" d="M636.13,-54.78C508.74,-38.85 474.16,-42.03 351,-19 348.13,-18.46 345.14,-17.83 342.18,-17.15"/>
<polygon fill="#63b8ff" stroke="#63b8ff" points="635.92,-58.28 646.28,-56.07 636.8,-51.34 635.92,-58.28"/>
</a>
</g>
</g>
<!-- Node13&#45;&gt;Node8 -->
<g id="edge25_Node000013_Node000008" class="edge">
<title>Node13&#45;&gt;Node8</title>
<g id="a_edge25_Node000013_Node000008"><a xlink:title=" ">
<path fill="none" stroke="#63b8ff" d="M647.87,-53.07C595.38,-43.13 517.32,-28.35 468.34,-19.08"/>
<polygon fill="#63b8ff" stroke="#63b8ff" points="647.54,-56.56 658.01,-54.98 648.84,-49.69 647.54,-56.56"/>
</a>
</g>
</g>
<!-- Node13&#45;&gt;Node10 -->
<g id="edge26_Node000013_Node000010" class="edge">
<title>Node13&#45;&gt;Node10</title>
<g id="a_edge26_Node000013_Node000010"><a xlink:title=" ">
<path fill="none" stroke="#63b8ff" d="M671.44,-51.29C646.05,-41.47 611,-27.91 588.41,-19.17"/>
<polygon fill="#63b8ff" stroke="#63b8ff" points="670.4,-54.64 680.99,-54.98 672.92,-48.11 670.4,-54.64"/>
</a>
</g>
</g>
<!-- Node13&#45;&gt;Node11 -->
<g id="edge27_Node000013_Node000011" class="edge">
<title>Node13&#45;&gt;Node11</title>
<g id="a_edge27_Node000013_Node000011"><a xlink:title=" ">
<path fill="none" stroke="#63b8ff" d="M703,-44.66C703,-35.93 703,-25.99 703,-19.09"/>
<polygon fill="#63b8ff" stroke="#63b8ff" points="699.5,-44.75 703,-54.75 706.5,-44.75 699.5,-44.75"/>
</a>
</g>
</g>
</g>
</svg>

<g id="navigator" transform="translate(0 0)" fill="#404254">
  <rect fill="#f2f5e9" fill-opacity="0.5" stroke="#606060" stroke-width=".5" x="0" y="0" width="60" height="60"/>
  <use id="zoomplus" xlink:href="#zoomPlus" x="17" y="9" onmousedown="handleZoom(evt,'in')"/>
  <use id="zoomminus" xlink:href="#zoomMin" x="42" y="9" onmousedown="handleZoom(evt,'out')"/>
  <use id="reset" xlink:href="#resetDef" x="30" y="36" onmousedown="handleReset()"/>
   <use id="arrowup" xlink:href="#arrowUp" x="0" y="0" onmousedown="handlePan(0,-1)"/>
  <use id="arrowright" xlink:href="#arrowRight" x="0" y="0" onmousedown="handlePan(1,0)"/>
  <use id="arrowdown" xlink:href="#arrowDown" x="0" y="0" onmousedown="handlePan(0,1)"/>
  <use id="arrowleft" xlink:href="#arrowLeft" x="0" y="0" onmousedown="handlePan(-1,0)"/>
</g>
<svg viewBox="0 0 15 15" width="100%" height="30px" preserveAspectRatio="xMaxYMin meet">
 <g id="arrow_out" transform="scale(0.3 0.3)">
  <a xlink:href="mateweather-prefs_8h__dep__incl_org.svg" target="_base">
   <rect id="button" ry="5" rx="5" y="6" x="6" height="38" width="38"
        fill="#f2f5e9" fill-opacity="0.5" stroke="#606060" stroke-width="1.0"/>
   <path id="arrow"
     d="M 11.500037,31.436501 C 11.940474,20.09759 22.043105,11.32322 32.158766,21.979434 L 37.068811,17.246167 C 37.068811,17.246167 37.088388,32 37.088388,32 L 22.160133,31.978069 C 22.160133,31.978069 26.997745,27.140456 26.997745,27.140456 C 18.528582,18.264221 13.291696,25.230495 11.500037,31.436501 z"
     style="fill:#404040;"/>
  </a>
 </g>
</svg>

<style type='text/css'>
<![CDATA[
[data-mouse-over-selected='false'] { opacity: 0.7; }
[data-mouse-over-selected='true']  { opacity: 1.0; }
]]>
</style>
<script type="application/ecmascript"><![CDATA[
document.addEventListener('DOMContentLoaded', (event) => {
  highlightEdges();
  highlightAdjacentNodes();
});
]]></script>
</svg>
