<?xml version="1.0" encoding="UTF-8" standalone="no"?>
<!DOCTYPE svg PUBLIC "-//W3C//DTD SVG 1.1//EN"
 "http://www.w3.org/Graphics/SVG/1.1/DTD/svg11.dtd">
<!-- Generated by graphviz version 2.43.0 (0)
 -->
<!-- Title: mate&#45;url.h Pages: 1 -->
<!--zoomable 192 -->

<svg id="main" version="1.1" xmlns="http://www.w3.org/2000/svg" xmlns:xlink="http://www.w3.org/1999/xlink" xml:space="preserve" onload="init(evt)">
<style type="text/css"><![CDATA[
.node, .edge {opacity: 0.7;}
.node.selected, .edge.selected {opacity: 1;}
.edge:hover path { stroke: red; }
.edge:hover polygon { stroke: red; fill: red; }
]]></style>

<defs>
  <circle id="rim" cx="0" cy="0" r="7"/>
  <circle id="rim2" cx="0" cy="0" r="3.5"/>
  <g id="zoomPlus">
    <use xlink:href="#rim" fill="#404040"><set attributeName="fill" to="#808080" begin="zoomplus.mouseover" end="zoomplus.mouseout"/></use>
    <path d="M-4,0h8M0,-4v8" fill="none" stroke="white" stroke-width="1.5" pointer-events="none"/>
  </g>
  <g id="zoomMin">
    <use xlink:href="#rim" fill="#404040"><set attributeName="fill" to="#808080" begin="zoomminus.mouseover" end="zoomminus.mouseout"/></use>
    <path d="M-4,0h8" fill="none" stroke="white" stroke-width="1.5" pointer-events="none"/>
  </g>
  <g id="arrowUp" transform="translate(30 24)">
    <use xlink:href="#rim"/>
    <path pointer-events="none" fill="none" stroke="white" stroke-width="1.5" d="M0,-3.0v7 M-2.5,-0.5L0,-3.0L2.5,-0.5"/>
  </g>
  <g id="arrowRight" transform="rotate(90) translate(36 -43)">
    <use xlink:href="#rim"/>
    <path pointer-events="none" fill="none" stroke="white" stroke-width="1.5" d="M0,-3.0v7 M-2.5,-0.5L0,-3.0L2.5,-0.5"/>
  </g>
  <g id="arrowDown" transform="rotate(180) translate(-30 -48)">
    <use xlink:href="#rim"/>
    <path pointer-events="none" fill="none" stroke="white" stroke-width="1.5" d="M0,-3.0v7 M-2.5,-0.5L0,-3.0L2.5,-0.5"/>
  </g>
  <g id="arrowLeft" transform="rotate(270) translate(-36 17)">
    <use xlink:href="#rim"/>
    <path pointer-events="none" fill="none" stroke="white" stroke-width="1.5" d="M0,-3.0v7 M-2.5,-0.5L0,-3.0L2.5,-0.5"/>
  </g>
  <g id="resetDef">
    <use xlink:href="#rim2" fill="#404040"><set attributeName="fill" to="#808080" begin="reset.mouseover" end="reset.mouseout"/></use>
  </g>
</defs>
<script type="application/ecmascript">
var viewWidth = 883;
var viewHeight = 192;
var sectionId = 'dynsection-1';
</script>
<script type="application/ecmascript" xlink:href="svg.min.js"/>
<svg id="graph" class="graph">
<g id="viewport">
<title>mate&#45;url.h</title>
<!-- Node1 -->
<g id="Node000001" class="node">
<title>Node1</title>
<g id="a_Node000001"><a xlink:title=" ">
<polygon fill="#999999" stroke="#666666" points="634.5,-184 566.5,-184 566.5,-165 634.5,-165 634.5,-184"/>
<text text-anchor="middle" x="600.5" y="-172" font-family="Helvetica,sans-Serif" font-size="10.00">mate&#45;url.h</text>
</a>
</g>
</g>
<!-- Node2 -->
<g id="Node000002" class="node">
<title>Node2</title>
<g id="a_Node000002"><a xlink:href="libmateui_8h.html" target="_top" xlink:title=" ">
<polygon fill="white" stroke="#666666" points="490.5,-129 418.5,-129 418.5,-110 490.5,-110 490.5,-129"/>
<text text-anchor="middle" x="454.5" y="-117" font-family="Helvetica,sans-Serif" font-size="10.00">libmateui.h</text>
</a>
</g>
</g>
<!-- Node1&#45;&gt;Node2 -->
<g id="edge1_Node000001_Node000002" class="edge">
<title>Node1&#45;&gt;Node2</title>
<g id="a_edge1_Node000001_Node000002"><a xlink:title=" ">
<path fill="none" stroke="#63b8ff" d="M567.58,-161.55C540.47,-151.71 502.67,-137.98 478.38,-129.17"/>
<polygon fill="#63b8ff" stroke="#63b8ff" points="566.45,-164.86 577.04,-164.98 568.84,-158.28 566.45,-164.86"/>
</a>
</g>
</g>
<!-- Node13 -->
<g id="Node000013" class="node">
<title>Node13</title>
<g id="a_Node000013"><a xlink:href="mate-href_8c.html" target="_top" xlink:title=" ">
<polygon fill="white" stroke="#666666" points="582,-129 509,-129 509,-110 582,-110 582,-129"/>
<text text-anchor="middle" x="545.5" y="-117" font-family="Helvetica,sans-Serif" font-size="10.00">mate&#45;href.c</text>
</a>
</g>
</g>
<!-- Node1&#45;&gt;Node13 -->
<g id="edge12_Node000001_Node000013" class="edge">
<title>Node1&#45;&gt;Node13</title>
<g id="a_edge12_Node000001_Node000013"><a xlink:title=" ">
<path fill="none" stroke="#63b8ff" d="M584.21,-157.8C574.46,-148.41 562.45,-136.83 554.41,-129.09"/>
<polygon fill="#63b8ff" stroke="#63b8ff" points="581.79,-160.33 591.42,-164.75 586.65,-155.29 581.79,-160.33"/>
</a>
</g>
</g>
<!-- Node14 -->
<g id="Node000014" class="node">
<title>Node14</title>
<g id="a_Node000014"><a xlink:href="mate-multiscreen_8c.html" target="_top" xlink:title=" ">
<polygon fill="white" stroke="#666666" points="712.5,-129 600.5,-129 600.5,-110 712.5,-110 712.5,-129"/>
<text text-anchor="middle" x="656.5" y="-117" font-family="Helvetica,sans-Serif" font-size="10.00">mate&#45;multiscreen.c</text>
</a>
</g>
</g>
<!-- Node1&#45;&gt;Node14 -->
<g id="edge13_Node000001_Node000014" class="edge">
<title>Node1&#45;&gt;Node14</title>
<g id="a_edge13_Node000001_Node000014"><a xlink:title=" ">
<path fill="none" stroke="#63b8ff" d="M616.83,-158.04C626.76,-148.64 639.09,-136.98 647.34,-129.17"/>
<polygon fill="#63b8ff" stroke="#63b8ff" points="614.35,-155.57 609.5,-164.98 619.17,-160.65 614.35,-155.57"/>
</a>
</g>
</g>
<!-- Node15 -->
<g id="Node000015" class="node">
<title>Node15</title>
<g id="a_Node000015"><a xlink:href="mate-ui-init_8c.html" target="_top" xlink:title=" ">
<polygon fill="white" stroke="#666666" points="814,-129 731,-129 731,-110 814,-110 814,-129"/>
<text text-anchor="middle" x="772.5" y="-117" font-family="Helvetica,sans-Serif" font-size="10.00">mate&#45;ui&#45;init.c</text>
</a>
</g>
</g>
<!-- Node1&#45;&gt;Node15 -->
<g id="edge14_Node000001_Node000015" class="edge">
<title>Node1&#45;&gt;Node15</title>
<g id="a_edge14_Node000001_Node000015"><a xlink:title=" ">
<path fill="none" stroke="#63b8ff" d="M638.06,-161.93C670.18,-152.03 715.69,-138.01 744.65,-129.08"/>
<polygon fill="#63b8ff" stroke="#63b8ff" points="636.66,-158.69 628.13,-164.98 638.72,-165.38 636.66,-158.69"/>
</a>
</g>
</g>
<!-- Node3 -->
<g id="Node000003" class="node">
<title>Node3</title>
<g id="a_Node000003"><a xlink:href="glade-mate_8c.html" target="_top" xlink:title=" ">
<polygon fill="white" stroke="#666666" points="81,-74 0,-74 0,-55 81,-55 81,-74"/>
<text text-anchor="middle" x="40.5" y="-62" font-family="Helvetica,sans-Serif" font-size="10.00">glade&#45;mate.c</text>
</a>
</g>
</g>
<!-- Node2&#45;&gt;Node3 -->
<g id="edge2_Node000002_Node000003" class="edge">
<title>Node2&#45;&gt;Node3</title>
<g id="a_edge2_Node000002_Node000003"><a xlink:title=" ">
<path fill="none" stroke="#63b8ff" d="M408.12,-113.53C338.86,-105.96 204.35,-90.63 90.5,-74 87.45,-73.55 84.3,-73.07 81.13,-72.57"/>
<polygon fill="#63b8ff" stroke="#63b8ff" points="407.94,-117.03 418.26,-114.64 408.7,-110.07 407.94,-117.03"/>
</a>
</g>
</g>
<!-- Node4 -->
<g id="Node000004" class="node">
<title>Node4</title>
<g id="a_Node000004"><a xlink:href="mate_8h.html" target="_top" xlink:title=" ">
<polygon fill="white" stroke="#666666" points="150,-74 99,-74 99,-55 150,-55 150,-74"/>
<text text-anchor="middle" x="124.5" y="-62" font-family="Helvetica,sans-Serif" font-size="10.00">mate.h</text>
</a>
</g>
</g>
<!-- Node2&#45;&gt;Node4 -->
<g id="edge3_Node000002_Node000004" class="edge">
<title>Node2&#45;&gt;Node4</title>
<g id="a_edge3_Node000002_Node000004"><a xlink:title=" ">
<path fill="none" stroke="#63b8ff" d="M408.46,-112.84C350.23,-105.38 247,-91.19 159.5,-74 156.43,-73.4 153.23,-72.71 150.06,-71.98"/>
<polygon fill="#63b8ff" stroke="#63b8ff" points="408.09,-116.32 418.45,-114.11 408.97,-109.38 408.09,-116.32"/>
</a>
</g>
</g>
<!-- Node6 -->
<g id="Node000006" class="node">
<title>Node6</title>
<g id="a_Node000006"><a xlink:href="matetypebuiltins_8c.html" target="_top" xlink:title=" ">
<polygon fill="white" stroke="#666666" points="276.5,-74 168.5,-74 168.5,-55 276.5,-55 276.5,-74"/>
<text text-anchor="middle" x="222.5" y="-62" font-family="Helvetica,sans-Serif" font-size="10.00">matetypebuiltins.c</text>
</a>
</g>
</g>
<!-- Node2&#45;&gt;Node6 -->
<g id="edge5_Node000002_Node000006" class="edge">
<title>Node2&#45;&gt;Node6</title>
<g id="a_edge5_Node000002_Node000006"><a xlink:title=" ">
<path fill="none" stroke="#63b8ff" d="M408.49,-107.99C364.98,-98.05 300.51,-83.32 260.03,-74.07"/>
<polygon fill="#63b8ff" stroke="#63b8ff" points="407.72,-111.4 418.25,-110.22 409.28,-104.58 407.72,-111.4"/>
</a>
</g>
</g>
<!-- Node7 -->
<g id="Node000007" class="node">
<title>Node7</title>
<g id="a_Node000007"><a xlink:href="matetypes_8c.html" target="_top" xlink:title=" ">
<polygon fill="white" stroke="#666666" points="372,-74 295,-74 295,-55 372,-55 372,-74"/>
<text text-anchor="middle" x="333.5" y="-62" font-family="Helvetica,sans-Serif" font-size="10.00">matetypes.c</text>
</a>
</g>
</g>
<!-- Node2&#45;&gt;Node7 -->
<g id="edge6_Node000002_Node000007" class="edge">
<title>Node2&#45;&gt;Node7</title>
<g id="a_edge6_Node000002_Node000007"><a xlink:title=" ">
<path fill="none" stroke="#63b8ff" d="M425.73,-105.9C403.38,-96.11 372.98,-82.79 353.29,-74.17"/>
<polygon fill="#63b8ff" stroke="#63b8ff" points="424.5,-109.18 435.06,-109.98 427.3,-102.77 424.5,-109.18"/>
</a>
</g>
</g>
<!-- Node8 -->
<g id="Node000008" class="node">
<title>Node8</title>
<g id="a_Node000008"><a xlink:href="test-password-dialog_8c.html" target="_top" xlink:title=" ">
<polygon fill="white" stroke="#666666" points="518.5,-74 390.5,-74 390.5,-55 518.5,-55 518.5,-74"/>
<text text-anchor="middle" x="454.5" y="-62" font-family="Helvetica,sans-Serif" font-size="10.00">test&#45;password&#45;dialog.c</text>
</a>
</g>
</g>
<!-- Node2&#45;&gt;Node8 -->
<g id="edge7_Node000002_Node000008" class="edge">
<title>Node2&#45;&gt;Node8</title>
<g id="a_edge7_Node000002_Node000008"><a xlink:title=" ">
<path fill="none" stroke="#63b8ff" d="M454.5,-99.66C454.5,-90.93 454.5,-80.99 454.5,-74.09"/>
<polygon fill="#63b8ff" stroke="#63b8ff" points="451,-99.75 454.5,-109.75 458,-99.75 451,-99.75"/>
</a>
</g>
</g>
<!-- Node9 -->
<g id="Node000009" class="node">
<title>Node9</title>
<g id="a_Node000009"><a xlink:href="testdruid_8c.html" target="_top" xlink:title=" ">
<polygon fill="white" stroke="#666666" points="604.5,-74 536.5,-74 536.5,-55 604.5,-55 604.5,-74"/>
<text text-anchor="middle" x="570.5" y="-62" font-family="Helvetica,sans-Serif" font-size="10.00">testdruid.c</text>
</a>
</g>
</g>
<!-- Node2&#45;&gt;Node9 -->
<g id="edge8_Node000002_Node000009" class="edge">
<title>Node2&#45;&gt;Node9</title>
<g id="a_edge8_Node000002_Node000009"><a xlink:title=" ">
<path fill="none" stroke="#63b8ff" d="M482.37,-105.77C503.77,-95.99 532.74,-82.75 551.52,-74.17"/>
<polygon fill="#63b8ff" stroke="#63b8ff" points="480.78,-102.65 473.14,-109.98 483.69,-109.01 480.78,-102.65"/>
</a>
</g>
</g>
<!-- Node10 -->
<g id="Node000010" class="node">
<title>Node10</title>
<g id="a_Node000010"><a xlink:href="testentry_8c.html" target="_top" xlink:title=" ">
<polygon fill="white" stroke="#666666" points="690.5,-74 622.5,-74 622.5,-55 690.5,-55 690.5,-74"/>
<text text-anchor="middle" x="656.5" y="-62" font-family="Helvetica,sans-Serif" font-size="10.00">testentry.c</text>
</a>
</g>
</g>
<!-- Node2&#45;&gt;Node10 -->
<g id="edge9_Node000002_Node000010" class="edge">
<title>Node2&#45;&gt;Node10</title>
<g id="a_edge9_Node000002_Node000010"><a xlink:title=" ">
<path fill="none" stroke="#63b8ff" d="M496.66,-107.44C534.48,-97.52 589.19,-83.16 623.79,-74.08"/>
<polygon fill="#63b8ff" stroke="#63b8ff" points="495.74,-104.06 486.95,-109.98 497.52,-110.83 495.74,-104.06"/>
</a>
</g>
</g>
<!-- Node11 -->
<g id="Node000011" class="node">
<title>Node11</title>
<g id="a_Node000011"><a xlink:href="testiconlist_8c.html" target="_top" xlink:title=" ">
<polygon fill="white" stroke="#666666" points="788,-74 709,-74 709,-55 788,-55 788,-74"/>
<text text-anchor="middle" x="748.5" y="-62" font-family="Helvetica,sans-Serif" font-size="10.00">testiconlist.c</text>
</a>
</g>
</g>
<!-- Node2&#45;&gt;Node11 -->
<g id="edge10_Node000002_Node000011" class="edge">
<title>Node2&#45;&gt;Node11</title>
<g id="a_edge10_Node000002_Node000011"><a xlink:title=" ">
<path fill="none" stroke="#63b8ff" d="M500.2,-110.05C500.3,-110.04 500.4,-110.02 500.5,-110 574.09,-96.6 660.02,-81.25 708.97,-72.53"/>
<polygon fill="#63b8ff" stroke="#63b8ff" points="499.86,-106.56 490.66,-111.8 501.12,-113.44 499.86,-106.56"/>
</a>
</g>
</g>
<!-- Node12 -->
<g id="Node000012" class="node">
<title>Node12</title>
<g id="a_Node000012"><a xlink:href="testmate_8c.html" target="_top" xlink:title=" ">
<polygon fill="white" stroke="#666666" points="875,-74 806,-74 806,-55 875,-55 875,-74"/>
<text text-anchor="middle" x="840.5" y="-62" font-family="Helvetica,sans-Serif" font-size="10.00">testmate.c</text>
</a>
</g>
</g>
<!-- Node2&#45;&gt;Node12 -->
<g id="edge11_Node000002_Node000012" class="edge">
<title>Node2&#45;&gt;Node12</title>
<g id="a_edge11_Node000002_Node000012"><a xlink:title=" ">
<path fill="none" stroke="#63b8ff" d="M500.2,-110.05C500.3,-110.03 500.4,-110.02 500.5,-110 631.94,-89.91 666.19,-94.91 797.5,-74 800.21,-73.57 803,-73.09 805.81,-72.59"/>
<polygon fill="#63b8ff" stroke="#63b8ff" points="499.93,-106.54 490.62,-111.61 501.06,-113.45 499.93,-106.54"/>
</a>
</g>
</g>
<!-- Node5 -->
<g id="Node000005" class="node">
<title>Node5</title>
<g id="a_Node000005"><a xlink:href="animator__demo_8c.html" target="_top" xlink:title=" ">
<polygon fill="white" stroke="#666666" points="175.5,-19 73.5,-19 73.5,0 175.5,0 175.5,-19"/>
<text text-anchor="middle" x="124.5" y="-7" font-family="Helvetica,sans-Serif" font-size="10.00">animator_demo.c</text>
</a>
</g>
</g>
<!-- Node4&#45;&gt;Node5 -->
<g id="edge4_Node000004_Node000005" class="edge">
<title>Node4&#45;&gt;Node5</title>
<g id="a_edge4_Node000004_Node000005"><a xlink:title=" ">
<path fill="none" stroke="#63b8ff" d="M124.5,-44.66C124.5,-35.93 124.5,-25.99 124.5,-19.09"/>
<polygon fill="#63b8ff" stroke="#63b8ff" points="121,-44.75 124.5,-54.75 128,-44.75 121,-44.75"/>
</a>
</g>
</g>
</g>
</svg>

<g id="navigator" transform="translate(0 0)" fill="#404254">
  <rect fill="#f2f5e9" fill-opacity="0.5" stroke="#606060" stroke-width=".5" x="0" y="0" width="60" height="60"/>
  <use id="zoomplus" xlink:href="#zoomPlus" x="17" y="9" onmousedown="handleZoom(evt,'in')"/>
  <use id="zoomminus" xlink:href="#zoomMin" x="42" y="9" onmousedown="handleZoom(evt,'out')"/>
  <use id="reset" xlink:href="#resetDef" x="30" y="36" onmousedown="handleReset()"/>
   <use id="arrowup" xlink:href="#arrowUp" x="0" y="0" onmousedown="handlePan(0,-1)"/>
  <use id="arrowright" xlink:href="#arrowRight" x="0" y="0" onmousedown="handlePan(1,0)"/>
  <use id="arrowdown" xlink:href="#arrowDown" x="0" y="0" onmousedown="handlePan(0,1)"/>
  <use id="arrowleft" xlink:href="#arrowLeft" x="0" y="0" onmousedown="handlePan(-1,0)"/>
</g>
<svg viewBox="0 0 15 15" width="100%" height="30px" preserveAspectRatio="xMaxYMin meet">
 <g id="arrow_out" transform="scale(0.3 0.3)">
  <a xlink:href="mate-url_8h__dep__incl_org.svg" target="_base">
   <rect id="button" ry="5" rx="5" y="6" x="6" height="38" width="38"
        fill="#f2f5e9" fill-opacity="0.5" stroke="#606060" stroke-width="1.0"/>
   <path id="arrow"
     d="M 11.500037,31.436501 C 11.940474,20.09759 22.043105,11.32322 32.158766,21.979434 L 37.068811,17.246167 C 37.068811,17.246167 37.088388,32 37.088388,32 L 22.160133,31.978069 C 22.160133,31.978069 26.997745,27.140456 26.997745,27.140456 C 18.528582,18.264221 13.291696,25.230495 11.500037,31.436501 z"
     style="fill:#404040;"/>
  </a>
 </g>
</svg>

<style type='text/css'>
<![CDATA[
[data-mouse-over-selected='false'] { opacity: 0.7; }
[data-mouse-over-selected='true']  { opacity: 1.0; }
]]>
</style>
<script type="application/ecmascript"><![CDATA[
document.addEventListener('DOMContentLoaded', (event) => {
  highlightEdges();
  highlightAdjacentNodes();
});
]]></script>
</svg>
