<?xml version="1.0" encoding="UTF-8" standalone="no"?>
<!DOCTYPE svg PUBLIC "-//W3C//DTD SVG 1.1//EN"
 "http://www.w3.org/Graphics/SVG/1.1/DTD/svg11.dtd">
<!-- Generated by graphviz version 2.43.0 (0)
 -->
<!-- Title: math&#45;buttons.h Pages: 1 -->
<svg width="273pt" height="137pt"
 viewBox="0.00 0.00 273.00 137.00" xmlns="http://www.w3.org/2000/svg" xmlns:xlink="http://www.w3.org/1999/xlink">

<svg id="main" version="1.1" xmlns="http://www.w3.org/2000/svg" xmlns:xlink="http://www.w3.org/1999/xlink" xml:space="preserve" onload="init(evt)">
<style type="text/css"><![CDATA[
.node, .edge {opacity: 0.7;}
.node.selected, .edge.selected {opacity: 1;}
.edge:hover path { stroke: red; }
.edge:hover polygon { stroke: red; fill: red; }
]]></style>
<script type="application/ecmascript" xlink:href="svg.min.js"/>
<svg id="graph" class="graph">
<g id="graph0" class="graph" transform="scale(1 1) rotate(0) translate(4 133)">
<title>math&#45;buttons.h</title>
<!-- Node1 -->
<g id="Node000001" class="node">
<title>Node1</title>
<g id="a_Node000001"><a xlink:title=" ">
<polygon fill="#999999" stroke="#666666" points="146.5,-129 54.5,-129 54.5,-110 146.5,-110 146.5,-129"/>
<text text-anchor="middle" x="100.5" y="-117" font-family="Helvetica,sans-Serif" font-size="10.00">math&#45;buttons.h</text>
</a>
</g>
</g>
<!-- Node2 -->
<g id="Node000002" class="node">
<title>Node2</title>
<g id="a_Node000002"><a xlink:href="math-buttons_8c.html" target="_top" xlink:title=" ">
<polygon fill="white" stroke="#666666" points="91,-74 0,-74 0,-55 91,-55 91,-74"/>
<text text-anchor="middle" x="45.5" y="-62" font-family="Helvetica,sans-Serif" font-size="10.00">math&#45;buttons.c</text>
</a>
</g>
</g>
<!-- Node1&#45;&gt;Node2 -->
<g id="edge1_Node000001_Node000002" class="edge">
<title>Node1&#45;&gt;Node2</title>
<g id="a_edge1_Node000001_Node000002"><a xlink:title=" ">
<path fill="none" stroke="#63b8ff" d="M84.21,-102.8C74.46,-93.41 62.45,-81.83 54.41,-74.09"/>
<polygon fill="#63b8ff" stroke="#63b8ff" points="81.79,-105.33 91.42,-109.75 86.65,-100.29 81.79,-105.33"/>
</a>
</g>
</g>
<!-- Node3 -->
<g id="Node000003" class="node">
<title>Node3</title>
<g id="a_Node000003"><a xlink:href="math-window_8h.html" target="_top" xlink:title=" ">
<polygon fill="white" stroke="#666666" points="201.5,-74 109.5,-74 109.5,-55 201.5,-55 201.5,-74"/>
<text text-anchor="middle" x="155.5" y="-62" font-family="Helvetica,sans-Serif" font-size="10.00">math&#45;window.h</text>
</a>
</g>
</g>
<!-- Node1&#45;&gt;Node3 -->
<g id="edge2_Node000001_Node000003" class="edge">
<title>Node1&#45;&gt;Node3</title>
<g id="a_edge2_Node000001_Node000003"><a xlink:title=" ">
<path fill="none" stroke="#63b8ff" d="M116.79,-102.8C126.54,-93.41 138.55,-81.83 146.59,-74.09"/>
<polygon fill="#63b8ff" stroke="#63b8ff" points="114.35,-100.29 109.58,-109.75 119.21,-105.33 114.35,-100.29"/>
</a>
</g>
</g>
<!-- Node4 -->
<g id="Node000004" class="node">
<title>Node4</title>
<g id="a_Node000004"><a xlink:href="mate-calc-application_8c.html" target="_top" xlink:title=" ">
<polygon fill="white" stroke="#666666" points="156,-19 25,-19 25,0 156,0 156,-19"/>
<text text-anchor="middle" x="90.5" y="-7" font-family="Helvetica,sans-Serif" font-size="10.00">mate&#45;calc&#45;application.c</text>
</a>
</g>
</g>
<!-- Node3&#45;&gt;Node4 -->
<g id="edge3_Node000003_Node000004" class="edge">
<title>Node3&#45;&gt;Node4</title>
<g id="a_edge3_Node000003_Node000004"><a xlink:title=" ">
<path fill="none" stroke="#63b8ff" d="M137.23,-48.6C125.58,-39.11 110.9,-27.13 101.13,-19.17"/>
<polygon fill="#63b8ff" stroke="#63b8ff" points="135.09,-51.38 145.06,-54.98 139.52,-45.95 135.09,-51.38"/>
</a>
</g>
</g>
<!-- Node5 -->
<g id="Node000005" class="node">
<title>Node5</title>
<g id="a_Node000005"><a xlink:href="math-window_8c.html" target="_top" xlink:title=" ">
<polygon fill="white" stroke="#666666" points="265,-19 174,-19 174,0 265,0 265,-19"/>
<text text-anchor="middle" x="219.5" y="-7" font-family="Helvetica,sans-Serif" font-size="10.00">math&#45;window.c</text>
</a>
</g>
</g>
<!-- Node3&#45;&gt;Node5 -->
<g id="edge4_Node000003_Node000005" class="edge">
<title>Node3&#45;&gt;Node5</title>
<g id="a_edge4_Node000003_Node000005"><a xlink:title=" ">
<path fill="none" stroke="#63b8ff" d="M173.49,-48.6C184.96,-39.11 199.41,-27.13 209.03,-19.17"/>
<polygon fill="#63b8ff" stroke="#63b8ff" points="171.25,-45.91 165.78,-54.98 175.72,-51.3 171.25,-45.91"/>
</a>
</g>
</g>
</g>
</svg>
</svg>

<style type='text/css'>
<![CDATA[
[data-mouse-over-selected='false'] { opacity: 0.7; }
[data-mouse-over-selected='true']  { opacity: 1.0; }
]]>
</style>
<script type="application/ecmascript"><![CDATA[
document.addEventListener('DOMContentLoaded', (event) => {
  highlightEdges();
  highlightAdjacentNodes();
});
]]></script>
</svg>
