<?xml version="1.0" encoding="UTF-8" standalone="no"?>
<!DOCTYPE svg PUBLIC "-//W3C//DTD SVG 1.1//EN"
 "http://www.w3.org/Graphics/SVG/1.1/DTD/svg11.dtd">
<!-- Generated by graphviz version 2.43.0 (0)
 -->
<!-- Title: math&#45;converter.h Pages: 1 -->
<svg width="520pt" height="247pt"
 viewBox="0.00 0.00 520.00 247.00" xmlns="http://www.w3.org/2000/svg" xmlns:xlink="http://www.w3.org/1999/xlink">
<g id="graph0" class="graph" transform="scale(1 1) rotate(0) translate(4 243)">
<title>math&#45;converter.h</title>
<!-- Node1 -->
<g id="Node000001" class="node">
<title>Node1</title>
<g id="a_Node000001"><a xlink:title=" ">
<polygon fill="#999999" stroke="#666666" points="250.5,-239 149.5,-239 149.5,-220 250.5,-220 250.5,-239"/>
<text text-anchor="middle" x="200" y="-227" font-family="Helvetica,sans-Serif" font-size="10.00">math&#45;converter.h</text>
</a>
</g>
</g>
<!-- Node2 -->
<g id="Node000002" class="node">
<title>Node2</title>
<g id="a_Node000002"><a xlink:title=" ">
<polygon fill="#e0e0e0" stroke="#999999" points="199.5,-74 122.5,-74 122.5,-55 199.5,-55 199.5,-74"/>
<text text-anchor="middle" x="161" y="-62" font-family="Helvetica,sans-Serif" font-size="10.00">glib&#45;object.h</text>
</a>
</g>
</g>
<!-- Node1&#45;&gt;Node2 -->
<g id="edge1_Node000001_Node000002" class="edge">
<title>Node1&#45;&gt;Node2</title>
<g id="a_edge1_Node000001_Node000002"><a xlink:title=" ">
<path fill="none" stroke="#63b8ff" d="M181.42,-219.78C153.3,-205.42 101.01,-173.85 80,-129 68.96,-105.44 96.69,-88.13 122.65,-77.59"/>
<polygon fill="#63b8ff" stroke="#63b8ff" points="123.96,-80.84 132.06,-74.02 121.47,-74.3 123.96,-80.84"/>
</a>
</g>
</g>
<!-- Node3 -->
<g id="Node000003" class="node">
<title>Node3</title>
<g id="a_Node000003"><a xlink:title=" ">
<polygon fill="#e0e0e0" stroke="#999999" points="512,-129 452,-129 452,-110 512,-110 512,-129"/>
<text text-anchor="middle" x="482" y="-117" font-family="Helvetica,sans-Serif" font-size="10.00">gtk/gtk.h</text>
</a>
</g>
</g>
<!-- Node1&#45;&gt;Node3 -->
<g id="edge2_Node000001_Node000003" class="edge">
<title>Node1&#45;&gt;Node3</title>
<g id="a_edge2_Node000001_Node000003"><a xlink:title=" ">
<path fill="none" stroke="#63b8ff" d="M229.38,-219.99C257.53,-211.61 301.06,-198.06 338,-184 379.35,-168.27 425.99,-147.03 454.7,-133.55"/>
<polygon fill="#63b8ff" stroke="#63b8ff" points="456.52,-136.56 464.06,-129.13 453.53,-130.23 456.52,-136.56"/>
</a>
</g>
</g>
<!-- Node4 -->
<g id="Node000004" class="node">
<title>Node4</title>
<g id="a_Node000004"><a xlink:href="math-equation_8h.html" target="_top" xlink:title=" ">
<polygon fill="white" stroke="#666666" points="329,-184 231,-184 231,-165 329,-165 329,-184"/>
<text text-anchor="middle" x="280" y="-172" font-family="Helvetica,sans-Serif" font-size="10.00">math&#45;equation.h</text>
</a>
</g>
</g>
<!-- Node1&#45;&gt;Node4 -->
<g id="edge3_Node000001_Node000004" class="edge">
<title>Node1&#45;&gt;Node4</title>
<g id="a_edge3_Node000001_Node000004"><a xlink:title=" ">
<path fill="none" stroke="#63b8ff" d="M212.85,-219.98C225.14,-211.84 243.91,-199.41 258.48,-189.76"/>
<polygon fill="#63b8ff" stroke="#63b8ff" points="260.51,-192.61 266.91,-184.17 256.64,-186.78 260.51,-192.61"/>
</a>
</g>
</g>
<!-- Node14 -->
<g id="Node000014" class="node">
<title>Node14</title>
<g id="a_Node000014"><a xlink:href="unit_8h.html" target="_top" xlink:title=" ">
<polygon fill="white" stroke="#666666" points="133,-129 89,-129 89,-110 133,-110 133,-129"/>
<text text-anchor="middle" x="111" y="-117" font-family="Helvetica,sans-Serif" font-size="10.00">unit.h</text>
</a>
</g>
</g>
<!-- Node1&#45;&gt;Node14 -->
<g id="edge20_Node000001_Node000014" class="edge">
<title>Node1&#45;&gt;Node14</title>
<g id="a_edge20_Node000001_Node000014"><a xlink:title=" ">
<path fill="none" stroke="#63b8ff" d="M192.72,-219.66C177.84,-201.61 143.78,-160.28 124.66,-137.08"/>
<polygon fill="#63b8ff" stroke="#63b8ff" points="127.2,-134.65 118.14,-129.16 121.79,-139.1 127.2,-134.65"/>
</a>
</g>
</g>
<!-- Node4&#45;&gt;Node2 -->
<g id="edge4_Node000004_Node000002" class="edge">
<title>Node4&#45;&gt;Node2</title>
<g id="a_edge4_Node000004_Node000002"><a xlink:title=" ">
<path fill="none" stroke="#63b8ff" d="M243.01,-164.92C222.16,-158.32 197.15,-147.17 181,-129 170.08,-116.72 165.12,-98.49 162.87,-84.71"/>
<polygon fill="#63b8ff" stroke="#63b8ff" points="166.29,-83.88 161.54,-74.41 159.35,-84.77 166.29,-83.88"/>
</a>
</g>
</g>
<!-- Node4&#45;&gt;Node3 -->
<g id="edge5_Node000004_Node000003" class="edge">
<title>Node4&#45;&gt;Node3</title>
<g id="a_edge5_Node000004_Node000003"><a xlink:title=" ">
<path fill="none" stroke="#63b8ff" d="M312.45,-164.98C347.77,-155.72 404.27,-140.89 442.23,-130.93"/>
<polygon fill="#63b8ff" stroke="#63b8ff" points="443.15,-134.31 451.93,-128.39 441.37,-127.54 443.15,-134.31"/>
</a>
</g>
</g>
<!-- Node5 -->
<g id="Node000005" class="node">
<title>Node5</title>
<g id="a_Node000005"><a xlink:href="mp_8h.html" target="_top" xlink:title=" ">
<polygon fill="white" stroke="#666666" points="259.5,-74 218.5,-74 218.5,-55 259.5,-55 259.5,-74"/>
<text text-anchor="middle" x="239" y="-62" font-family="Helvetica,sans-Serif" font-size="10.00">mp.h</text>
</a>
</g>
</g>
<!-- Node4&#45;&gt;Node5 -->
<g id="edge6_Node000004_Node000005" class="edge">
<title>Node4&#45;&gt;Node5</title>
<g id="a_edge6_Node000004_Node000005"><a xlink:title=" ">
<path fill="none" stroke="#63b8ff" d="M329.14,-166.52C373.61,-158.09 428.78,-141 405,-110 388.64,-88.68 313.1,-75.33 269.78,-69.29"/>
<polygon fill="#63b8ff" stroke="#63b8ff" points="270.14,-65.81 259.77,-67.94 269.21,-72.75 270.14,-65.81"/>
</a>
</g>
</g>
<!-- Node12 -->
<g id="Node000012" class="node">
<title>Node12</title>
<g id="a_Node000012"><a xlink:href="math-variables_8h.html" target="_top" xlink:title=" ">
<polygon fill="white" stroke="#666666" points="288.5,-129 189.5,-129 189.5,-110 288.5,-110 288.5,-129"/>
<text text-anchor="middle" x="239" y="-117" font-family="Helvetica,sans-Serif" font-size="10.00">math&#45;variables.h</text>
</a>
</g>
</g>
<!-- Node4&#45;&gt;Node12 -->
<g id="edge13_Node000004_Node000012" class="edge">
<title>Node4&#45;&gt;Node12</title>
<g id="a_edge13_Node000004_Node000012"><a xlink:title=" ">
<path fill="none" stroke="#63b8ff" d="M273.23,-164.75C267.44,-157.26 258.94,-146.28 251.86,-137.13"/>
<polygon fill="#63b8ff" stroke="#63b8ff" points="254.53,-134.86 245.64,-129.09 248.99,-139.14 254.53,-134.86"/>
</a>
</g>
</g>
<!-- Node13 -->
<g id="Node000013" class="node">
<title>Node13</title>
<g id="a_Node000013"><a xlink:href="mp-serializer_8h.html" target="_top" xlink:title=" ">
<polygon fill="white" stroke="#666666" points="395.5,-129 306.5,-129 306.5,-110 395.5,-110 395.5,-129"/>
<text text-anchor="middle" x="351" y="-117" font-family="Helvetica,sans-Serif" font-size="10.00">mp&#45;serializer.h</text>
</a>
</g>
</g>
<!-- Node4&#45;&gt;Node13 -->
<g id="edge16_Node000004_Node000013" class="edge">
<title>Node4&#45;&gt;Node13</title>
<g id="a_edge16_Node000004_Node000013"><a xlink:title=" ">
<path fill="none" stroke="#63b8ff" d="M291.41,-164.98C302.11,-157 318.34,-144.88 331.16,-135.31"/>
<polygon fill="#63b8ff" stroke="#63b8ff" points="333.47,-137.96 339.39,-129.17 329.28,-132.35 333.47,-137.96"/>
</a>
</g>
</g>
<!-- Node6 -->
<g id="Node000006" class="node">
<title>Node6</title>
<g id="a_Node000006"><a xlink:title=" ">
<polygon fill="#e0e0e0" stroke="#999999" points="194,-19 132,-19 132,0 194,0 194,-19"/>
<text text-anchor="middle" x="163" y="-7" font-family="Helvetica,sans-Serif" font-size="10.00">stdbool.h</text>
</a>
</g>
</g>
<!-- Node5&#45;&gt;Node6 -->
<g id="edge7_Node000005_Node000006" class="edge">
<title>Node5&#45;&gt;Node6</title>
<g id="a_edge7_Node000005_Node000006"><a xlink:title=" ">
<path fill="none" stroke="#63b8ff" d="M226.79,-54.98C215.22,-46.92 197.62,-34.65 183.84,-25.03"/>
<polygon fill="#63b8ff" stroke="#63b8ff" points="185.64,-22.02 175.43,-19.17 181.63,-27.76 185.64,-22.02"/>
</a>
</g>
</g>
<!-- Node7 -->
<g id="Node000007" class="node">
<title>Node7</title>
<g id="a_Node000007"><a xlink:title=" ">
<polygon fill="#e0e0e0" stroke="#999999" points="265.5,-19 212.5,-19 212.5,0 265.5,0 265.5,-19"/>
<text text-anchor="middle" x="239" y="-7" font-family="Helvetica,sans-Serif" font-size="10.00">stdint.h</text>
</a>
</g>
</g>
<!-- Node5&#45;&gt;Node7 -->
<g id="edge8_Node000005_Node000007" class="edge">
<title>Node5&#45;&gt;Node7</title>
<g id="a_edge8_Node000005_Node000007"><a xlink:title=" ">
<path fill="none" stroke="#63b8ff" d="M239,-54.75C239,-47.8 239,-37.85 239,-29.13"/>
<polygon fill="#63b8ff" stroke="#63b8ff" points="242.5,-29.09 239,-19.09 235.5,-29.09 242.5,-29.09"/>
</a>
</g>
</g>
<!-- Node8 -->
<g id="Node000008" class="node">
<title>Node8</title>
<g id="a_Node000008"><a xlink:title=" ">
<polygon fill="#e0e0e0" stroke="#999999" points="420,-19 376,-19 376,0 420,0 420,-19"/>
<text text-anchor="middle" x="398" y="-7" font-family="Helvetica,sans-Serif" font-size="10.00">glib.h</text>
</a>
</g>
</g>
<!-- Node5&#45;&gt;Node8 -->
<g id="edge9_Node000005_Node000008" class="edge">
<title>Node5&#45;&gt;Node8</title>
<g id="a_edge9_Node000005_Node000008"><a xlink:title=" ">
<path fill="none" stroke="#63b8ff" d="M259.79,-56.57C286.9,-47.53 334.61,-31.63 366.26,-21.08"/>
<polygon fill="#63b8ff" stroke="#63b8ff" points="367.55,-24.34 375.93,-17.86 365.34,-17.7 367.55,-24.34"/>
</a>
</g>
</g>
<!-- Node9 -->
<g id="Node000009" class="node">
<title>Node9</title>
<g id="a_Node000009"><a xlink:title=" ">
<polygon fill="#e0e0e0" stroke="#999999" points="358,-19 284,-19 284,0 358,0 358,-19"/>
<text text-anchor="middle" x="321" y="-7" font-family="Helvetica,sans-Serif" font-size="10.00">glib/gi18n.h</text>
</a>
</g>
</g>
<!-- Node5&#45;&gt;Node9 -->
<g id="edge10_Node000005_Node000009" class="edge">
<title>Node5&#45;&gt;Node9</title>
<g id="a_edge10_Node000005_Node000009"><a xlink:title=" ">
<path fill="none" stroke="#63b8ff" d="M252.17,-54.98C264.77,-46.84 284,-34.41 298.94,-24.76"/>
<polygon fill="#63b8ff" stroke="#63b8ff" points="301.09,-27.54 307.59,-19.17 297.29,-21.66 301.09,-27.54"/>
</a>
</g>
</g>
<!-- Node10 -->
<g id="Node000010" class="node">
<title>Node10</title>
<g id="a_Node000010"><a xlink:title=" ">
<polygon fill="#e0e0e0" stroke="#999999" points="48,-19 0,-19 0,0 48,0 48,-19"/>
<text text-anchor="middle" x="24" y="-7" font-family="Helvetica,sans-Serif" font-size="10.00">mpfr.h</text>
</a>
</g>
</g>
<!-- Node5&#45;&gt;Node10 -->
<g id="edge11_Node000005_Node000010" class="edge">
<title>Node5&#45;&gt;Node10</title>
<g id="a_edge11_Node000005_Node000010"><a xlink:title=" ">
<path fill="none" stroke="#63b8ff" d="M218.38,-57.53C215.24,-56.66 212.04,-55.79 209,-55 144.83,-38.32 126.06,-35.86 58.07,-19.22"/>
<polygon fill="#63b8ff" stroke="#63b8ff" points="58.68,-15.77 48.14,-16.78 57.01,-22.56 58.68,-15.77"/>
</a>
</g>
</g>
<!-- Node11 -->
<g id="Node000011" class="node">
<title>Node11</title>
<g id="a_Node000011"><a xlink:title=" ">
<polygon fill="#e0e0e0" stroke="#999999" points="113.5,-19 66.5,-19 66.5,0 113.5,0 113.5,-19"/>
<text text-anchor="middle" x="90" y="-7" font-family="Helvetica,sans-Serif" font-size="10.00">mpc.h</text>
</a>
</g>
</g>
<!-- Node5&#45;&gt;Node11 -->
<g id="edge12_Node000005_Node000011" class="edge">
<title>Node5&#45;&gt;Node11</title>
<g id="a_edge12_Node000005_Node000011"><a xlink:title=" ">
<path fill="none" stroke="#63b8ff" d="M218.28,-56.13C193.75,-47.4 152.55,-32.75 123.47,-22.41"/>
<polygon fill="#63b8ff" stroke="#63b8ff" points="124.33,-19 113.74,-18.94 121.99,-25.59 124.33,-19"/>
</a>
</g>
</g>
<!-- Node12&#45;&gt;Node2 -->
<g id="edge14_Node000012_Node000002" class="edge">
<title>Node12&#45;&gt;Node2</title>
<g id="a_edge14_Node000012_Node000002"><a xlink:title=" ">
<path fill="none" stroke="#63b8ff" d="M226.47,-109.98C214.6,-101.92 196.54,-89.65 182.39,-80.03"/>
<polygon fill="#63b8ff" stroke="#63b8ff" points="184,-76.9 173.76,-74.17 180.06,-82.69 184,-76.9"/>
</a>
</g>
</g>
<!-- Node12&#45;&gt;Node5 -->
<g id="edge15_Node000012_Node000005" class="edge">
<title>Node12&#45;&gt;Node5</title>
<g id="a_edge15_Node000012_Node000005"><a xlink:title=" ">
<path fill="none" stroke="#63b8ff" d="M239,-109.75C239,-102.8 239,-92.85 239,-84.13"/>
<polygon fill="#63b8ff" stroke="#63b8ff" points="242.5,-84.09 239,-74.09 235.5,-84.09 242.5,-84.09"/>
</a>
</g>
</g>
<!-- Node13&#45;&gt;Node2 -->
<g id="edge18_Node000013_Node000002" class="edge">
<title>Node13&#45;&gt;Node2</title>
<g id="a_edge18_Node000013_Node000002"><a xlink:title=" ">
<path fill="none" stroke="#63b8ff" d="M320.47,-109.98C288.3,-101.01 237.44,-86.82 201.83,-76.89"/>
<polygon fill="#63b8ff" stroke="#63b8ff" points="202.34,-73.4 191.77,-74.08 200.46,-80.14 202.34,-73.4"/>
</a>
</g>
</g>
<!-- Node13&#45;&gt;Node5 -->
<g id="edge19_Node000013_Node000005" class="edge">
<title>Node13&#45;&gt;Node5</title>
<g id="a_edge19_Node000013_Node000005"><a xlink:title=" ">
<path fill="none" stroke="#63b8ff" d="M333.01,-109.98C315.07,-101.5 287.28,-88.35 266.57,-78.54"/>
<polygon fill="#63b8ff" stroke="#63b8ff" points="267.86,-75.28 257.32,-74.17 264.86,-81.61 267.86,-75.28"/>
</a>
</g>
</g>
<!-- Node13&#45;&gt;Node8 -->
<g id="edge17_Node000013_Node000008" class="edge">
<title>Node13&#45;&gt;Node8</title>
<g id="a_edge17_Node000013_Node000008"><a xlink:title=" ">
<path fill="none" stroke="#63b8ff" d="M354.85,-109.66C362.53,-92.01 379.9,-52.09 390.11,-28.64"/>
<polygon fill="#63b8ff" stroke="#63b8ff" points="393.45,-29.72 394.23,-19.16 387.03,-26.93 393.45,-29.72"/>
</a>
</g>
</g>
<!-- Node14&#45;&gt;Node2 -->
<g id="edge21_Node000014_Node000002" class="edge">
<title>Node14&#45;&gt;Node2</title>
<g id="a_edge21_Node000014_Node000002"><a xlink:title=" ">
<path fill="none" stroke="#63b8ff" d="M119.26,-109.75C126.46,-102.11 137.11,-90.82 145.85,-81.56"/>
<polygon fill="#63b8ff" stroke="#63b8ff" points="148.58,-83.76 152.9,-74.09 143.49,-78.96 148.58,-83.76"/>
</a>
</g>
</g>
<!-- Node14&#45;&gt;Node5 -->
<g id="edge22_Node000014_Node000005" class="edge">
<title>Node14&#45;&gt;Node5</title>
<g id="a_edge22_Node000014_Node000005"><a xlink:title=" ">
<path fill="none" stroke="#63b8ff" d="M131.57,-109.98C152.56,-101.29 185.36,-87.71 209.2,-77.84"/>
<polygon fill="#63b8ff" stroke="#63b8ff" points="210.59,-81.05 218.49,-73.99 207.91,-74.59 210.59,-81.05"/>
</a>
</g>
</g>
</g>
</svg>
