<?xml version="1.0" encoding="UTF-8" standalone="no"?>
<!DOCTYPE svg PUBLIC "-//W3C//DTD SVG 1.1//EN"
 "http://www.w3.org/Graphics/SVG/1.1/DTD/svg11.dtd">
<!-- Generated by graphviz version 2.43.0 (0)
 -->
<!-- Title: msd&#45;media&#45;keys&#45;manager.c Pages: 1 -->
<svg width="1322pt" height="192pt"
 viewBox="0.00 0.00 1321.50 192.00" xmlns="http://www.w3.org/2000/svg" xmlns:xlink="http://www.w3.org/1999/xlink">
<g id="graph0" class="graph" transform="scale(1 1) rotate(0) translate(4 188)">
<title>msd&#45;media&#45;keys&#45;manager.c</title>
<!-- Node1 -->
<g id="Node000001" class="node">
<title>Node1</title>
<g id="a_Node000001"><a xlink:title=" ">
<polygon fill="#999999" stroke="#666666" points="712.5,-184 559.5,-184 559.5,-165 712.5,-165 712.5,-184"/>
<text text-anchor="middle" x="636" y="-172" font-family="Helvetica,sans-Serif" font-size="10.00">msd&#45;media&#45;keys&#45;manager.c</text>
</a>
</g>
</g>
<!-- Node2 -->
<g id="Node000002" class="node">
<title>Node2</title>
<g id="a_Node000002"><a xlink:title=" ">
<polygon fill="#e0e0e0" stroke="#999999" points="89.5,-129 34.5,-129 34.5,-110 89.5,-110 89.5,-129"/>
<text text-anchor="middle" x="62" y="-117" font-family="Helvetica,sans-Serif" font-size="10.00">config.h</text>
</a>
</g>
</g>
<!-- Node1&#45;&gt;Node2 -->
<g id="edge1_Node000001_Node000002" class="edge">
<title>Node1&#45;&gt;Node2</title>
<g id="a_edge1_Node000001_Node000002"><a xlink:title=" ">
<path fill="none" stroke="#63b8ff" d="M559.48,-169.9C455.84,-164.38 265.26,-151.98 104,-129 102.72,-128.82 101.41,-128.62 100.1,-128.41"/>
<polygon fill="#63b8ff" stroke="#63b8ff" points="100.39,-124.91 89.94,-126.62 99.18,-131.8 100.39,-124.91"/>
</a>
</g>
</g>
<!-- Node3 -->
<g id="Node000003" class="node">
<title>Node3</title>
<g id="a_Node000003"><a xlink:title=" ">
<polygon fill="#e0e0e0" stroke="#999999" points="190,-19 146,-19 146,0 190,0 190,-19"/>
<text text-anchor="middle" x="168" y="-7" font-family="Helvetica,sans-Serif" font-size="10.00">glib.h</text>
</a>
</g>
</g>
<!-- Node1&#45;&gt;Node3 -->
<g id="edge2_Node000001_Node000003" class="edge">
<title>Node1&#45;&gt;Node3</title>
<g id="a_edge2_Node000001_Node000003"><a xlink:title=" ">
<path fill="none" stroke="#63b8ff" d="M559.27,-171.44C435.04,-167.34 201.08,-156.07 175,-129 149.35,-102.38 156.21,-54.88 162.61,-28.84"/>
<polygon fill="#63b8ff" stroke="#63b8ff" points="166.01,-29.68 165.23,-19.11 159.25,-27.86 166.01,-29.68"/>
</a>
</g>
</g>
<!-- Node4 -->
<g id="Node000004" class="node">
<title>Node4</title>
<g id="a_Node000004"><a xlink:title=" ">
<polygon fill="#e0e0e0" stroke="#999999" points="706,-129 632,-129 632,-110 706,-110 706,-129"/>
<text text-anchor="middle" x="669" y="-117" font-family="Helvetica,sans-Serif" font-size="10.00">glib/gi18n.h</text>
</a>
</g>
</g>
<!-- Node1&#45;&gt;Node4 -->
<g id="edge3_Node000001_Node000004" class="edge">
<title>Node1&#45;&gt;Node4</title>
<g id="a_edge3_Node000001_Node000004"><a xlink:title=" ">
<path fill="none" stroke="#63b8ff" d="M641.45,-164.75C646.01,-157.42 652.67,-146.73 658.29,-137.7"/>
<polygon fill="#63b8ff" stroke="#63b8ff" points="661.34,-139.43 663.65,-129.09 655.4,-135.73 661.34,-139.43"/>
</a>
</g>
</g>
<!-- Node5 -->
<g id="Node000005" class="node">
<title>Node5</title>
<g id="a_Node000005"><a xlink:title=" ">
<polygon fill="#e0e0e0" stroke="#999999" points="789.5,-129 724.5,-129 724.5,-110 789.5,-110 789.5,-129"/>
<text text-anchor="middle" x="757" y="-117" font-family="Helvetica,sans-Serif" font-size="10.00">gdk/gdk.h</text>
</a>
</g>
</g>
<!-- Node1&#45;&gt;Node5 -->
<g id="edge4_Node000001_Node000005" class="edge">
<title>Node1&#45;&gt;Node5</title>
<g id="a_edge4_Node000001_Node000005"><a xlink:title=" ">
<path fill="none" stroke="#63b8ff" d="M655.44,-164.98C674.99,-156.42 705.38,-143.11 727.82,-133.28"/>
<polygon fill="#63b8ff" stroke="#63b8ff" points="729.45,-136.39 737.21,-129.17 726.64,-129.98 729.45,-136.39"/>
</a>
</g>
</g>
<!-- Node6 -->
<g id="Node000006" class="node">
<title>Node6</title>
<g id="a_Node000006"><a xlink:title=" ">
<polygon fill="#e0e0e0" stroke="#999999" points="878.5,-129 807.5,-129 807.5,-110 878.5,-110 878.5,-129"/>
<text text-anchor="middle" x="843" y="-117" font-family="Helvetica,sans-Serif" font-size="10.00">gdk/gdkx.h</text>
</a>
</g>
</g>
<!-- Node1&#45;&gt;Node6 -->
<g id="edge5_Node000001_Node000006" class="edge">
<title>Node1&#45;&gt;Node6</title>
<g id="a_edge5_Node000001_Node000006"><a xlink:title=" ">
<path fill="none" stroke="#63b8ff" d="M669.26,-164.98C704.61,-155.93 760.67,-141.58 799.51,-131.64"/>
<polygon fill="#63b8ff" stroke="#63b8ff" points="800.66,-134.95 809.48,-129.08 798.93,-128.17 800.66,-134.95"/>
</a>
</g>
</g>
<!-- Node7 -->
<g id="Node000007" class="node">
<title>Node7</title>
<g id="a_Node000007"><a xlink:title=" ">
<polygon fill="#e0e0e0" stroke="#999999" points="634,-74 574,-74 574,-55 634,-55 634,-74"/>
<text text-anchor="middle" x="604" y="-62" font-family="Helvetica,sans-Serif" font-size="10.00">gtk/gtk.h</text>
</a>
</g>
</g>
<!-- Node1&#45;&gt;Node7 -->
<g id="edge6_Node000001_Node000007" class="edge">
<title>Node1&#45;&gt;Node7</title>
<g id="a_edge6_Node000001_Node000007"><a xlink:title=" ">
<path fill="none" stroke="#63b8ff" d="M633.38,-164.66C628.18,-147.09 616.43,-107.45 609.47,-83.95"/>
<polygon fill="#63b8ff" stroke="#63b8ff" points="612.76,-82.75 606.57,-74.16 606.05,-84.74 612.76,-82.75"/>
</a>
</g>
</g>
<!-- Node8 -->
<g id="Node000008" class="node">
<title>Node8</title>
<g id="a_Node000008"><a xlink:title=" ">
<polygon fill="#e0e0e0" stroke="#999999" points="955.5,-129 896.5,-129 896.5,-110 955.5,-110 955.5,-129"/>
<text text-anchor="middle" x="926" y="-117" font-family="Helvetica,sans-Serif" font-size="10.00">gio/gio.h</text>
</a>
</g>
</g>
<!-- Node1&#45;&gt;Node8 -->
<g id="edge7_Node000001_Node000008" class="edge">
<title>Node1&#45;&gt;Node8</title>
<g id="a_edge7_Node000001_Node000008"><a xlink:title=" ">
<path fill="none" stroke="#63b8ff" d="M688.25,-164.98C737.12,-156.86 812.36,-143.94 886.22,-129.29"/>
<polygon fill="#63b8ff" stroke="#63b8ff" points="887.03,-132.7 896.16,-127.31 885.66,-125.83 887.03,-132.7"/>
</a>
</g>
</g>
<!-- Node9 -->
<g id="Node000009" class="node">
<title>Node9</title>
<g id="a_Node000009"><a xlink:href="mate-settings-profile_8h.html" target="_top" xlink:title=" ">
<polygon fill="white" stroke="#666666" points="128,-74 0,-74 0,-55 128,-55 128,-74"/>
<text text-anchor="middle" x="64" y="-62" font-family="Helvetica,sans-Serif" font-size="10.00">mate&#45;settings&#45;profile.h</text>
</a>
</g>
</g>
<!-- Node1&#45;&gt;Node9 -->
<g id="edge8_Node000001_Node000009" class="edge">
<title>Node1&#45;&gt;Node9</title>
<g id="a_edge8_Node000001_Node000009"><a xlink:title=" ">
<path fill="none" stroke="#63b8ff" d="M559.14,-172.03C439.69,-168.84 215.58,-158.95 142,-129 116.62,-118.67 93.04,-97.14 78.6,-82.03"/>
<polygon fill="#63b8ff" stroke="#63b8ff" points="80.91,-79.37 71.56,-74.4 75.77,-84.12 80.91,-79.37"/>
</a>
</g>
</g>
<!-- Node10 -->
<g id="Node000010" class="node">
<title>Node10</title>
<g id="a_Node000010"><a xlink:title=" ">
<polygon fill="#e0e0e0" stroke="#999999" points="1064,-129 974,-129 974,-110 1064,-110 1064,-129"/>
<text text-anchor="middle" x="1019" y="-117" font-family="Helvetica,sans-Serif" font-size="10.00">msd&#45;marshal.h</text>
</a>
</g>
</g>
<!-- Node1&#45;&gt;Node10 -->
<g id="edge10_Node000001_Node000010" class="edge">
<title>Node1&#45;&gt;Node10</title>
<g id="a_edge10_Node000001_Node000010"><a xlink:title=" ">
<path fill="none" stroke="#63b8ff" d="M702.23,-164.97C766.5,-156.6 867.08,-143.23 963.96,-129.13"/>
<polygon fill="#63b8ff" stroke="#63b8ff" points="964.54,-132.58 973.93,-127.67 963.53,-125.65 964.54,-132.58"/>
</a>
</g>
</g>
<!-- Node11 -->
<g id="Node000011" class="node">
<title>Node11</title>
<g id="a_Node000011"><a xlink:href="msd-media-keys-manager_8h.html" target="_top" xlink:title=" ">
<polygon fill="white" stroke="#666666" points="338,-129 184,-129 184,-110 338,-110 338,-129"/>
<text text-anchor="middle" x="261" y="-117" font-family="Helvetica,sans-Serif" font-size="10.00">msd&#45;media&#45;keys&#45;manager.h</text>
</a>
</g>
</g>
<!-- Node1&#45;&gt;Node11 -->
<g id="edge11_Node000001_Node000011" class="edge">
<title>Node1&#45;&gt;Node11</title>
<g id="a_edge11_Node000001_Node000011"><a xlink:title=" ">
<path fill="none" stroke="#63b8ff" d="M575.75,-164.98C509.15,-155.57 401.99,-140.43 331.53,-130.47"/>
<polygon fill="#63b8ff" stroke="#63b8ff" points="331.8,-126.97 321.41,-129.04 330.82,-133.9 331.8,-126.97"/>
</a>
</g>
</g>
<!-- Node13 -->
<g id="Node000013" class="node">
<title>Node13</title>
<g id="a_Node000013"><a xlink:title=" ">
<polygon fill="#e0e0e0" stroke="#999999" points="1186,-129 1082,-129 1082,-110 1186,-110 1186,-129"/>
<text text-anchor="middle" x="1134" y="-117" font-family="Helvetica,sans-Serif" font-size="10.00">eggaccelerators.h</text>
</a>
</g>
</g>
<!-- Node1&#45;&gt;Node13 -->
<g id="edge14_Node000001_Node000013" class="edge">
<title>Node1&#45;&gt;Node13</title>
<g id="a_edge14_Node000001_Node000013"><a xlink:title=" ">
<path fill="none" stroke="#63b8ff" d="M712.67,-166.56C797.78,-158.66 939.52,-144.92 1071.48,-129.14"/>
<polygon fill="#63b8ff" stroke="#63b8ff" points="1072.26,-132.57 1081.77,-127.91 1071.43,-125.62 1072.26,-132.57"/>
</a>
</g>
</g>
<!-- Node14 -->
<g id="Node000014" class="node">
<title>Node14</title>
<g id="a_Node000014"><a xlink:href="acme_8h.html" target="_top" xlink:title=" ">
<polygon fill="white" stroke="#666666" points="409.5,-129 356.5,-129 356.5,-110 409.5,-110 409.5,-129"/>
<text text-anchor="middle" x="383" y="-117" font-family="Helvetica,sans-Serif" font-size="10.00">acme.h</text>
</a>
</g>
</g>
<!-- Node1&#45;&gt;Node14 -->
<g id="edge15_Node000001_Node000014" class="edge">
<title>Node1&#45;&gt;Node14</title>
<g id="a_edge15_Node000001_Node000014"><a xlink:title=" ">
<path fill="none" stroke="#63b8ff" d="M592.28,-164.93C550.54,-156.66 485.63,-143.57 419.85,-129.13"/>
<polygon fill="#63b8ff" stroke="#63b8ff" points="420.24,-125.63 409.72,-126.9 418.73,-132.47 420.24,-125.63"/>
</a>
</g>
</g>
<!-- Node17 -->
<g id="Node000017" class="node">
<title>Node17</title>
<g id="a_Node000017"><a xlink:href="msd-media-keys-window_8h.html" target="_top" xlink:title=" ">
<polygon fill="white" stroke="#666666" points="576,-129 428,-129 428,-110 576,-110 576,-129"/>
<text text-anchor="middle" x="502" y="-117" font-family="Helvetica,sans-Serif" font-size="10.00">msd&#45;media&#45;keys&#45;window.h</text>
</a>
</g>
</g>
<!-- Node1&#45;&gt;Node17 -->
<g id="edge19_Node000001_Node000017" class="edge">
<title>Node1&#45;&gt;Node17</title>
<g id="a_edge19_Node000001_Node000017"><a xlink:title=" ">
<path fill="none" stroke="#63b8ff" d="M614.47,-164.98C592.53,-156.3 558.26,-142.75 533.31,-132.88"/>
<polygon fill="#63b8ff" stroke="#63b8ff" points="534.51,-129.59 523.92,-129.17 531.93,-136.1 534.51,-129.59"/>
</a>
</g>
</g>
<!-- Node19 -->
<g id="Node000019" class="node">
<title>Node19</title>
<g id="a_Node000019"><a xlink:title=" ">
<polygon fill="#e0e0e0" stroke="#999999" points="1313.5,-129 1204.5,-129 1204.5,-110 1313.5,-110 1313.5,-129"/>
<text text-anchor="middle" x="1259" y="-117" font-family="Helvetica,sans-Serif" font-size="10.00">msd&#45;input&#45;helper.h</text>
</a>
</g>
</g>
<!-- Node1&#45;&gt;Node19 -->
<g id="edge23_Node000001_Node000019" class="edge">
<title>Node1&#45;&gt;Node19</title>
<g id="a_edge23_Node000001_Node000019"><a xlink:title=" ">
<path fill="none" stroke="#63b8ff" d="M712.52,-168.69C818.31,-161.75 1015.43,-147.79 1194.1,-129.04"/>
<polygon fill="#63b8ff" stroke="#63b8ff" points="1194.63,-132.5 1204.21,-127.97 1193.9,-125.54 1194.63,-132.5"/>
</a>
</g>
</g>
<!-- Node9&#45;&gt;Node3 -->
<g id="edge9_Node000009_Node000003" class="edge">
<title>Node9&#45;&gt;Node3</title>
<g id="a_edge9_Node000009_Node000003"><a xlink:title=" ">
<path fill="none" stroke="#63b8ff" d="M80.71,-54.98C97.21,-46.57 122.7,-33.59 141.88,-23.81"/>
<polygon fill="#63b8ff" stroke="#63b8ff" points="143.67,-26.83 150.99,-19.17 140.49,-20.59 143.67,-26.83"/>
</a>
</g>
</g>
<!-- Node11&#45;&gt;Node3 -->
<g id="edge12_Node000011_Node000003" class="edge">
<title>Node11&#45;&gt;Node3</title>
<g id="a_edge12_Node000011_Node000003"><a xlink:title=" ">
<path fill="none" stroke="#63b8ff" d="M253.39,-109.66C237.78,-91.54 201.94,-49.91 182.01,-26.77"/>
<polygon fill="#63b8ff" stroke="#63b8ff" points="184.63,-24.45 175.46,-19.16 179.33,-29.02 184.63,-24.45"/>
</a>
</g>
</g>
<!-- Node12 -->
<g id="Node000012" class="node">
<title>Node12</title>
<g id="a_Node000012"><a xlink:title=" ">
<polygon fill="#e0e0e0" stroke="#999999" points="312.5,-74 235.5,-74 235.5,-55 312.5,-55 312.5,-74"/>
<text text-anchor="middle" x="274" y="-62" font-family="Helvetica,sans-Serif" font-size="10.00">glib&#45;object.h</text>
</a>
</g>
</g>
<!-- Node11&#45;&gt;Node12 -->
<g id="edge13_Node000011_Node000012" class="edge">
<title>Node11&#45;&gt;Node12</title>
<g id="a_edge13_Node000011_Node000012"><a xlink:title=" ">
<path fill="none" stroke="#63b8ff" d="M263.15,-109.75C264.87,-102.72 267.35,-92.62 269.5,-83.84"/>
<polygon fill="#63b8ff" stroke="#63b8ff" points="272.91,-84.63 271.89,-74.09 266.11,-82.97 272.91,-84.63"/>
</a>
</g>
</g>
<!-- Node15 -->
<g id="Node000015" class="node">
<title>Node15</title>
<g id="a_Node000015"><a xlink:href="msd-keygrab_8h.html" target="_top" xlink:title=" ">
<polygon fill="white" stroke="#666666" points="424.5,-74 335.5,-74 335.5,-55 424.5,-55 424.5,-74"/>
<text text-anchor="middle" x="380" y="-62" font-family="Helvetica,sans-Serif" font-size="10.00">msd&#45;keygrab.h</text>
</a>
</g>
</g>
<!-- Node14&#45;&gt;Node15 -->
<g id="edge16_Node000014_Node000015" class="edge">
<title>Node14&#45;&gt;Node15</title>
<g id="a_edge16_Node000014_Node000015"><a xlink:title=" ">
<path fill="none" stroke="#63b8ff" d="M382.5,-109.75C382.11,-102.8 381.55,-92.85 381.05,-84.13"/>
<polygon fill="#63b8ff" stroke="#63b8ff" points="384.55,-83.88 380.49,-74.09 377.56,-84.27 384.55,-83.88"/>
</a>
</g>
</g>
<!-- Node15&#45;&gt;Node3 -->
<g id="edge17_Node000015_Node000003" class="edge">
<title>Node15&#45;&gt;Node3</title>
<g id="a_edge17_Node000015_Node000003"><a xlink:title=" ">
<path fill="none" stroke="#63b8ff" d="M345.94,-54.98C305.75,-44.94 239.45,-28.36 200.13,-18.53"/>
<polygon fill="#63b8ff" stroke="#63b8ff" points="200.82,-15.1 190.27,-16.07 199.12,-21.89 200.82,-15.1"/>
</a>
</g>
</g>
<!-- Node16 -->
<g id="Node000016" class="node">
<title>Node16</title>
<g id="a_Node000016"><a xlink:title=" ">
<polygon fill="#e0e0e0" stroke="#999999" points="423,-19 337,-19 337,0 423,0 423,-19"/>
<text text-anchor="middle" x="380" y="-7" font-family="Helvetica,sans-Serif" font-size="10.00">X11/keysym.h</text>
</a>
</g>
</g>
<!-- Node15&#45;&gt;Node16 -->
<g id="edge18_Node000015_Node000016" class="edge">
<title>Node15&#45;&gt;Node16</title>
<g id="a_edge18_Node000015_Node000016"><a xlink:title=" ">
<path fill="none" stroke="#63b8ff" d="M380,-54.75C380,-47.8 380,-37.85 380,-29.13"/>
<polygon fill="#63b8ff" stroke="#63b8ff" points="383.5,-29.09 380,-19.09 376.5,-29.09 383.5,-29.09"/>
</a>
</g>
</g>
<!-- Node17&#45;&gt;Node7 -->
<g id="edge21_Node000017_Node000007" class="edge">
<title>Node17&#45;&gt;Node7</title>
<g id="a_edge21_Node000017_Node000007"><a xlink:title=" ">
<path fill="none" stroke="#63b8ff" d="M518.39,-109.98C534.57,-101.57 559.57,-88.59 578.38,-78.81"/>
<polygon fill="#63b8ff" stroke="#63b8ff" points="580.05,-81.89 587.31,-74.17 576.83,-75.68 580.05,-81.89"/>
</a>
</g>
</g>
<!-- Node17&#45;&gt;Node12 -->
<g id="edge20_Node000017_Node000012" class="edge">
<title>Node17&#45;&gt;Node12</title>
<g id="a_edge20_Node000017_Node000012"><a xlink:title=" ">
<path fill="none" stroke="#63b8ff" d="M465.37,-109.98C426.09,-100.86 363.63,-86.33 320.81,-76.38"/>
<polygon fill="#63b8ff" stroke="#63b8ff" points="321.45,-72.94 310.92,-74.08 319.87,-79.76 321.45,-72.94"/>
</a>
</g>
</g>
<!-- Node18 -->
<g id="Node000018" class="node">
<title>Node18</title>
<g id="a_Node000018"><a xlink:title=" ">
<polygon fill="#e0e0e0" stroke="#999999" points="556,-74 448,-74 448,-55 556,-55 556,-74"/>
<text text-anchor="middle" x="502" y="-62" font-family="Helvetica,sans-Serif" font-size="10.00">msd&#45;osd&#45;window.h</text>
</a>
</g>
</g>
<!-- Node17&#45;&gt;Node18 -->
<g id="edge22_Node000017_Node000018" class="edge">
<title>Node17&#45;&gt;Node18</title>
<g id="a_edge22_Node000017_Node000018"><a xlink:title=" ">
<path fill="none" stroke="#63b8ff" d="M502,-109.75C502,-102.8 502,-92.85 502,-84.13"/>
<polygon fill="#63b8ff" stroke="#63b8ff" points="505.5,-84.09 502,-74.09 498.5,-84.09 505.5,-84.09"/>
</a>
</g>
</g>
</g>
</svg>
