<?xml version="1.0" encoding="UTF-8" standalone="no"?>
<!DOCTYPE svg PUBLIC "-//W3C//DTD SVG 1.1//EN"
 "http://www.w3.org/Graphics/SVG/1.1/DTD/svg11.dtd">
<!-- Generated by graphviz version 2.43.0 (0)
 -->
<!-- Title: na&#45;iprefs.h Pages: 1 -->
<!--zoomable 82 -->

<svg id="main" version="1.1" xmlns="http://www.w3.org/2000/svg" xmlns:xlink="http://www.w3.org/1999/xlink" xml:space="preserve" onload="init(evt)">
<style type="text/css"><![CDATA[
.node, .edge {opacity: 0.7;}
.node.selected, .edge.selected {opacity: 1;}
.edge:hover path { stroke: red; }
.edge:hover polygon { stroke: red; fill: red; }
]]></style>

<defs>
  <circle id="rim" cx="0" cy="0" r="7"/>
  <circle id="rim2" cx="0" cy="0" r="3.5"/>
  <g id="zoomPlus">
    <use xlink:href="#rim" fill="#404040"><set attributeName="fill" to="#808080" begin="zoomplus.mouseover" end="zoomplus.mouseout"/></use>
    <path d="M-4,0h8M0,-4v8" fill="none" stroke="white" stroke-width="1.5" pointer-events="none"/>
  </g>
  <g id="zoomMin">
    <use xlink:href="#rim" fill="#404040"><set attributeName="fill" to="#808080" begin="zoomminus.mouseover" end="zoomminus.mouseout"/></use>
    <path d="M-4,0h8" fill="none" stroke="white" stroke-width="1.5" pointer-events="none"/>
  </g>
  <g id="arrowUp" transform="translate(30 24)">
    <use xlink:href="#rim"/>
    <path pointer-events="none" fill="none" stroke="white" stroke-width="1.5" d="M0,-3.0v7 M-2.5,-0.5L0,-3.0L2.5,-0.5"/>
  </g>
  <g id="arrowRight" transform="rotate(90) translate(36 -43)">
    <use xlink:href="#rim"/>
    <path pointer-events="none" fill="none" stroke="white" stroke-width="1.5" d="M0,-3.0v7 M-2.5,-0.5L0,-3.0L2.5,-0.5"/>
  </g>
  <g id="arrowDown" transform="rotate(180) translate(-30 -48)">
    <use xlink:href="#rim"/>
    <path pointer-events="none" fill="none" stroke="white" stroke-width="1.5" d="M0,-3.0v7 M-2.5,-0.5L0,-3.0L2.5,-0.5"/>
  </g>
  <g id="arrowLeft" transform="rotate(270) translate(-36 17)">
    <use xlink:href="#rim"/>
    <path pointer-events="none" fill="none" stroke="white" stroke-width="1.5" d="M0,-3.0v7 M-2.5,-0.5L0,-3.0L2.5,-0.5"/>
  </g>
  <g id="resetDef">
    <use xlink:href="#rim2" fill="#404040"><set attributeName="fill" to="#808080" begin="reset.mouseover" end="reset.mouseout"/></use>
  </g>
</defs>
<script type="application/ecmascript">
var viewWidth = 963;
var viewHeight = 82;
var sectionId = 'dynsection-1';
</script>
<script type="application/ecmascript" xlink:href="svg.min.js"/>
<svg id="graph" class="graph">
<g id="viewport">
<title>na&#45;iprefs.h</title>
<!-- Node1 -->
<g id="Node000001" class="node">
<title>Node1</title>
<g id="a_Node000001"><a xlink:title=" ">
<polygon fill="#999999" stroke="#666666" points="545.5,-74 476.5,-74 476.5,-55 545.5,-55 545.5,-74"/>
<text text-anchor="middle" x="511" y="-62" font-family="Helvetica,sans-Serif" font-size="10.00">na&#45;iprefs.h</text>
</a>
</g>
</g>
<!-- Node2 -->
<g id="Node000002" class="node">
<title>Node2</title>
<g id="a_Node000002"><a xlink:href="cact-main-window_8c.html" target="_top" xlink:title=" ">
<polygon fill="white" stroke="#666666" points="114,-19 0,-19 0,0 114,0 114,-19"/>
<text text-anchor="middle" x="57" y="-7" font-family="Helvetica,sans-Serif" font-size="10.00">cact&#45;main&#45;window.c</text>
</a>
</g>
</g>
<!-- Node1&#45;&gt;Node2 -->
<g id="edge1_Node000001_Node000002" class="edge">
<title>Node1&#45;&gt;Node2</title>
<g id="a_edge1_Node000001_Node000002"><a xlink:title=" ">
<path fill="none" stroke="#63b8ff" d="M466.36,-58.58C394.17,-50.59 247.29,-34.13 123,-19 120.13,-18.65 117.2,-18.29 114.23,-17.92"/>
<polygon fill="#63b8ff" stroke="#63b8ff" points="466.14,-62.08 476.46,-59.7 466.91,-55.12 466.14,-62.08"/>
</a>
</g>
</g>
<!-- Node3 -->
<g id="Node000003" class="node">
<title>Node3</title>
<g id="a_Node000003"><a xlink:href="cact-menubar-file_8c.html" target="_top" xlink:title=" ">
<polygon fill="white" stroke="#666666" points="243.5,-19 132.5,-19 132.5,0 243.5,0 243.5,-19"/>
<text text-anchor="middle" x="188" y="-7" font-family="Helvetica,sans-Serif" font-size="10.00">cact&#45;menubar&#45;file.c</text>
</a>
</g>
</g>
<!-- Node1&#45;&gt;Node3 -->
<g id="edge2_Node000001_Node000003" class="edge">
<title>Node1&#45;&gt;Node3</title>
<g id="a_edge2_Node000001_Node000003"><a xlink:title=" ">
<path fill="none" stroke="#63b8ff" d="M466.26,-56.16C406.94,-46.43 302.49,-29.29 239.82,-19"/>
<polygon fill="#63b8ff" stroke="#63b8ff" points="466,-59.66 476.43,-57.83 467.13,-52.75 466,-59.66"/>
</a>
</g>
</g>
<!-- Node4 -->
<g id="Node000004" class="node">
<title>Node4</title>
<g id="a_Node000004"><a xlink:href="cact-menubar_8c.html" target="_top" xlink:title=" ">
<polygon fill="white" stroke="#666666" points="354,-19 262,-19 262,0 354,0 354,-19"/>
<text text-anchor="middle" x="308" y="-7" font-family="Helvetica,sans-Serif" font-size="10.00">cact&#45;menubar.c</text>
</a>
</g>
</g>
<!-- Node1&#45;&gt;Node4 -->
<g id="edge3_Node000001_Node000004" class="edge">
<title>Node1&#45;&gt;Node4</title>
<g id="a_edge3_Node000001_Node000004"><a xlink:title=" ">
<path fill="none" stroke="#63b8ff" d="M468.63,-52.44C430.63,-42.52 375.64,-28.16 340.87,-19.08"/>
<polygon fill="#63b8ff" stroke="#63b8ff" points="467.82,-55.84 478.38,-54.98 469.59,-49.07 467.82,-55.84"/>
</a>
</g>
</g>
<!-- Node5 -->
<g id="Node000005" class="node">
<title>Node5</title>
<g id="a_Node000005"><a xlink:href="cact-preferences-editor_8c.html" target="_top" xlink:title=" ">
<polygon fill="white" stroke="#666666" points="510,-19 372,-19 372,0 510,0 510,-19"/>
<text text-anchor="middle" x="441" y="-7" font-family="Helvetica,sans-Serif" font-size="10.00">cact&#45;preferences&#45;editor.c</text>
</a>
</g>
</g>
<!-- Node1&#45;&gt;Node5 -->
<g id="edge4_Node000001_Node000005" class="edge">
<title>Node1&#45;&gt;Node5</title>
<g id="a_edge4_Node000001_Node000005"><a xlink:title=" ">
<path fill="none" stroke="#63b8ff" d="M491.69,-48.88C479.09,-39.34 463.07,-27.21 452.45,-19.17"/>
<polygon fill="#63b8ff" stroke="#63b8ff" points="489.67,-51.74 499.75,-54.98 493.89,-46.16 489.67,-51.74"/>
</a>
</g>
</g>
<!-- Node6 -->
<g id="Node000006" class="node">
<title>Node6</title>
<g id="a_Node000006"><a xlink:href="cact-sort-buttons_8c.html" target="_top" xlink:title=" ">
<polygon fill="white" stroke="#666666" points="636,-19 528,-19 528,0 636,0 636,-19"/>
<text text-anchor="middle" x="582" y="-7" font-family="Helvetica,sans-Serif" font-size="10.00">cact&#45;sort&#45;buttons.c</text>
</a>
</g>
</g>
<!-- Node1&#45;&gt;Node6 -->
<g id="edge5_Node000001_Node000006" class="edge">
<title>Node1&#45;&gt;Node6</title>
<g id="a_edge5_Node000001_Node000006"><a xlink:title=" ">
<path fill="none" stroke="#63b8ff" d="M530.59,-48.88C543.37,-39.34 559.61,-27.21 570.39,-19.17"/>
<polygon fill="#63b8ff" stroke="#63b8ff" points="528.33,-46.2 522.41,-54.98 532.51,-51.81 528.33,-46.2"/>
</a>
</g>
</g>
<!-- Node7 -->
<g id="Node000007" class="node">
<title>Node7</title>
<g id="a_Node000007"><a xlink:href="cact-tree-model_8c.html" target="_top" xlink:title=" ">
<polygon fill="white" stroke="#666666" points="757.5,-19 654.5,-19 654.5,0 757.5,0 757.5,-19"/>
<text text-anchor="middle" x="706" y="-7" font-family="Helvetica,sans-Serif" font-size="10.00">cact&#45;tree&#45;model.c</text>
</a>
</g>
</g>
<!-- Node1&#45;&gt;Node7 -->
<g id="edge6_Node000001_Node000007" class="edge">
<title>Node1&#45;&gt;Node7</title>
<g id="a_edge6_Node000001_Node000007"><a xlink:title=" ">
<path fill="none" stroke="#63b8ff" d="M552.17,-52.31C588.66,-42.39 641.17,-28.12 674.42,-19.08"/>
<polygon fill="#63b8ff" stroke="#63b8ff" points="551.06,-48.98 542.33,-54.98 552.9,-55.74 551.06,-48.98"/>
</a>
</g>
</g>
<!-- Node8 -->
<g id="Node000008" class="node">
<title>Node8</title>
<g id="a_Node000008"><a xlink:href="na-io-provider_8c.html" target="_top" xlink:title=" ">
<polygon fill="white" stroke="#666666" points="868.5,-19 775.5,-19 775.5,0 868.5,0 868.5,-19"/>
<text text-anchor="middle" x="822" y="-7" font-family="Helvetica,sans-Serif" font-size="10.00">na&#45;io&#45;provider.c</text>
</a>
</g>
</g>
<!-- Node1&#45;&gt;Node8 -->
<g id="edge7_Node000001_Node000008" class="edge">
<title>Node1&#45;&gt;Node8</title>
<g id="a_edge7_Node000001_Node000008"><a xlink:title=" ">
<path fill="none" stroke="#63b8ff" d="M555.81,-55.86C614.25,-45.9 716.01,-28.56 775.35,-18.45"/>
<polygon fill="#63b8ff" stroke="#63b8ff" points="555.04,-52.44 545.77,-57.57 556.22,-59.34 555.04,-52.44"/>
</a>
</g>
</g>
<!-- Node9 -->
<g id="Node000009" class="node">
<title>Node9</title>
<g id="a_Node000009"><a xlink:href="na-iprefs_8c.html" target="_top" xlink:title=" ">
<polygon fill="white" stroke="#666666" points="955,-19 887,-19 887,0 955,0 955,-19"/>
<text text-anchor="middle" x="921" y="-7" font-family="Helvetica,sans-Serif" font-size="10.00">na&#45;iprefs.c</text>
</a>
</g>
</g>
<!-- Node1&#45;&gt;Node9 -->
<g id="edge8_Node000001_Node000009" class="edge">
<title>Node1&#45;&gt;Node9</title>
<g id="a_edge8_Node000001_Node000009"><a xlink:title=" ">
<path fill="none" stroke="#63b8ff" d="M555.64,-59.17C624.88,-52.21 762.25,-37.43 878,-19 880.86,-18.55 883.81,-18.04 886.77,-17.5"/>
<polygon fill="#63b8ff" stroke="#63b8ff" points="555.13,-55.7 545.53,-60.18 555.82,-62.67 555.13,-55.7"/>
</a>
</g>
</g>
</g>
</svg>

<g id="navigator" transform="translate(0 0)" fill="#404254">
  <rect fill="#f2f5e9" fill-opacity="0.5" stroke="#606060" stroke-width=".5" x="0" y="0" width="60" height="60"/>
  <use id="zoomplus" xlink:href="#zoomPlus" x="17" y="9" onmousedown="handleZoom(evt,'in')"/>
  <use id="zoomminus" xlink:href="#zoomMin" x="42" y="9" onmousedown="handleZoom(evt,'out')"/>
  <use id="reset" xlink:href="#resetDef" x="30" y="36" onmousedown="handleReset()"/>
   <use id="arrowup" xlink:href="#arrowUp" x="0" y="0" onmousedown="handlePan(0,-1)"/>
  <use id="arrowright" xlink:href="#arrowRight" x="0" y="0" onmousedown="handlePan(1,0)"/>
  <use id="arrowdown" xlink:href="#arrowDown" x="0" y="0" onmousedown="handlePan(0,1)"/>
  <use id="arrowleft" xlink:href="#arrowLeft" x="0" y="0" onmousedown="handlePan(-1,0)"/>
</g>
<svg viewBox="0 0 15 15" width="100%" height="30px" preserveAspectRatio="xMaxYMin meet">
 <g id="arrow_out" transform="scale(0.3 0.3)">
  <a xlink:href="na-iprefs_8h__dep__incl_org.svg" target="_base">
   <rect id="button" ry="5" rx="5" y="6" x="6" height="38" width="38"
        fill="#f2f5e9" fill-opacity="0.5" stroke="#606060" stroke-width="1.0"/>
   <path id="arrow"
     d="M 11.500037,31.436501 C 11.940474,20.09759 22.043105,11.32322 32.158766,21.979434 L 37.068811,17.246167 C 37.068811,17.246167 37.088388,32 37.088388,32 L 22.160133,31.978069 C 22.160133,31.978069 26.997745,27.140456 26.997745,27.140456 C 18.528582,18.264221 13.291696,25.230495 11.500037,31.436501 z"
     style="fill:#404040;"/>
  </a>
 </g>
</svg>

<style type='text/css'>
<![CDATA[
[data-mouse-over-selected='false'] { opacity: 0.7; }
[data-mouse-over-selected='true']  { opacity: 1.0; }
]]>
</style>
<script type="application/ecmascript"><![CDATA[
document.addEventListener('DOMContentLoaded', (event) => {
  highlightEdges();
  highlightAdjacentNodes();
});
]]></script>
</svg>
