<?xml version="1.0" encoding="UTF-8" standalone="no"?>
<!DOCTYPE svg PUBLIC "-//W3C//DTD SVG 1.1//EN"
 "http://www.w3.org/Graphics/SVG/1.1/DTD/svg11.dtd">
<!-- Generated by graphviz version 2.43.0 (0)
 -->
<!-- Title: na&#45;importer.h Pages: 1 -->
<!--zoomable 82 -->

<svg id="main" version="1.1" xmlns="http://www.w3.org/2000/svg" xmlns:xlink="http://www.w3.org/1999/xlink" xml:space="preserve" onload="init(evt)">
<style type="text/css"><![CDATA[
.node, .edge {opacity: 0.7;}
.node.selected, .edge.selected {opacity: 1;}
.edge:hover path { stroke: red; }
.edge:hover polygon { stroke: red; fill: red; }
]]></style>

<defs>
  <circle id="rim" cx="0" cy="0" r="7"/>
  <circle id="rim2" cx="0" cy="0" r="3.5"/>
  <g id="zoomPlus">
    <use xlink:href="#rim" fill="#404040"><set attributeName="fill" to="#808080" begin="zoomplus.mouseover" end="zoomplus.mouseout"/></use>
    <path d="M-4,0h8M0,-4v8" fill="none" stroke="white" stroke-width="1.5" pointer-events="none"/>
  </g>
  <g id="zoomMin">
    <use xlink:href="#rim" fill="#404040"><set attributeName="fill" to="#808080" begin="zoomminus.mouseover" end="zoomminus.mouseout"/></use>
    <path d="M-4,0h8" fill="none" stroke="white" stroke-width="1.5" pointer-events="none"/>
  </g>
  <g id="arrowUp" transform="translate(30 24)">
    <use xlink:href="#rim"/>
    <path pointer-events="none" fill="none" stroke="white" stroke-width="1.5" d="M0,-3.0v7 M-2.5,-0.5L0,-3.0L2.5,-0.5"/>
  </g>
  <g id="arrowRight" transform="rotate(90) translate(36 -43)">
    <use xlink:href="#rim"/>
    <path pointer-events="none" fill="none" stroke="white" stroke-width="1.5" d="M0,-3.0v7 M-2.5,-0.5L0,-3.0L2.5,-0.5"/>
  </g>
  <g id="arrowDown" transform="rotate(180) translate(-30 -48)">
    <use xlink:href="#rim"/>
    <path pointer-events="none" fill="none" stroke="white" stroke-width="1.5" d="M0,-3.0v7 M-2.5,-0.5L0,-3.0L2.5,-0.5"/>
  </g>
  <g id="arrowLeft" transform="rotate(270) translate(-36 17)">
    <use xlink:href="#rim"/>
    <path pointer-events="none" fill="none" stroke="white" stroke-width="1.5" d="M0,-3.0v7 M-2.5,-0.5L0,-3.0L2.5,-0.5"/>
  </g>
  <g id="resetDef">
    <use xlink:href="#rim2" fill="#404040"><set attributeName="fill" to="#808080" begin="reset.mouseover" end="reset.mouseout"/></use>
  </g>
</defs>
<script type="application/ecmascript">
var viewWidth = 842;
var viewHeight = 82;
var sectionId = 'dynsection-1';
</script>
<script type="application/ecmascript" xlink:href="svg.min.js"/>
<svg id="graph" class="graph">
<g id="viewport">
<title>na&#45;importer.h</title>
<!-- Node1 -->
<g id="Node000001" class="node">
<title>Node1</title>
<g id="a_Node000001"><a xlink:title=" ">
<polygon fill="#999999" stroke="#666666" points="541,-74 458,-74 458,-55 541,-55 541,-74"/>
<text text-anchor="middle" x="499.5" y="-62" font-family="Helvetica,sans-Serif" font-size="10.00">na&#45;importer.h</text>
</a>
</g>
</g>
<!-- Node2 -->
<g id="Node000002" class="node">
<title>Node2</title>
<g id="a_Node000002"><a xlink:href="cact-assistant-import_8c.html" target="_top" xlink:title=" ">
<polygon fill="white" stroke="#666666" points="129,-19 0,-19 0,0 129,0 129,-19"/>
<text text-anchor="middle" x="64.5" y="-7" font-family="Helvetica,sans-Serif" font-size="10.00">cact&#45;assistant&#45;import.c</text>
</a>
</g>
</g>
<!-- Node1&#45;&gt;Node2 -->
<g id="edge1_Node000001_Node000002" class="edge">
<title>Node1&#45;&gt;Node2</title>
<g id="a_edge1_Node000001_Node000002"><a xlink:title=" ">
<path fill="none" stroke="#63b8ff" d="M447.51,-57.17C367.88,-47.46 215.82,-28.94 129.18,-18.38"/>
<polygon fill="#63b8ff" stroke="#63b8ff" points="447.44,-60.68 457.79,-58.42 448.29,-53.73 447.44,-60.68"/>
</a>
</g>
</g>
<!-- Node3 -->
<g id="Node000003" class="node">
<title>Node3</title>
<g id="a_Node000003"><a xlink:href="cact-preferences-editor_8c.html" target="_top" xlink:title=" ">
<polygon fill="white" stroke="#666666" points="285.5,-19 147.5,-19 147.5,0 285.5,0 285.5,-19"/>
<text text-anchor="middle" x="216.5" y="-7" font-family="Helvetica,sans-Serif" font-size="10.00">cact&#45;preferences&#45;editor.c</text>
</a>
</g>
</g>
<!-- Node1&#45;&gt;Node3 -->
<g id="edge2_Node000001_Node000003" class="edge">
<title>Node1&#45;&gt;Node3</title>
<g id="a_edge2_Node000001_Node000003"><a xlink:title=" ">
<path fill="none" stroke="#63b8ff" d="M447.86,-53.83C394.79,-43.89 312.96,-28.57 262.18,-19.06"/>
<polygon fill="#63b8ff" stroke="#63b8ff" points="447.27,-57.28 457.74,-55.68 448.56,-50.4 447.27,-57.28"/>
</a>
</g>
</g>
<!-- Node4 -->
<g id="Node000004" class="node">
<title>Node4</title>
<g id="a_Node000004"><a xlink:href="cact-tree-model-dnd_8c.html" target="_top" xlink:title=" ">
<polygon fill="white" stroke="#666666" points="429,-19 304,-19 304,0 429,0 429,-19"/>
<text text-anchor="middle" x="366.5" y="-7" font-family="Helvetica,sans-Serif" font-size="10.00">cact&#45;tree&#45;model&#45;dnd.c</text>
</a>
</g>
</g>
<!-- Node1&#45;&gt;Node4 -->
<g id="edge3_Node000001_Node000004" class="edge">
<title>Node1&#45;&gt;Node4</title>
<g id="a_edge3_Node000001_Node000004"><a xlink:title=" ">
<path fill="none" stroke="#63b8ff" d="M468.53,-51.16C443.91,-41.35 410.09,-27.87 388.26,-19.17"/>
<polygon fill="#63b8ff" stroke="#63b8ff" points="467.55,-54.53 478.13,-54.98 470.14,-48.03 467.55,-54.53"/>
</a>
</g>
</g>
<!-- Node5 -->
<g id="Node000005" class="node">
<title>Node5</title>
<g id="a_Node000005"><a xlink:href="na-importer-ask_8c.html" target="_top" xlink:title=" ">
<polygon fill="white" stroke="#666666" points="551.5,-19 447.5,-19 447.5,0 551.5,0 551.5,-19"/>
<text text-anchor="middle" x="499.5" y="-7" font-family="Helvetica,sans-Serif" font-size="10.00">na&#45;importer&#45;ask.c</text>
</a>
</g>
</g>
<!-- Node1&#45;&gt;Node5 -->
<g id="edge4_Node000001_Node000005" class="edge">
<title>Node1&#45;&gt;Node5</title>
<g id="a_edge4_Node000001_Node000005"><a xlink:title=" ">
<path fill="none" stroke="#63b8ff" d="M499.5,-44.66C499.5,-35.93 499.5,-25.99 499.5,-19.09"/>
<polygon fill="#63b8ff" stroke="#63b8ff" points="496,-44.75 499.5,-54.75 503,-44.75 496,-44.75"/>
</a>
</g>
</g>
<!-- Node6 -->
<g id="Node000006" class="node">
<title>Node6</title>
<g id="a_Node000006"><a xlink:href="na-importer_8c.html" target="_top" xlink:title=" ">
<polygon fill="white" stroke="#666666" points="651.5,-19 569.5,-19 569.5,0 651.5,0 651.5,-19"/>
<text text-anchor="middle" x="610.5" y="-7" font-family="Helvetica,sans-Serif" font-size="10.00">na&#45;importer.c</text>
</a>
</g>
</g>
<!-- Node1&#45;&gt;Node6 -->
<g id="edge5_Node000001_Node000006" class="edge">
<title>Node1&#45;&gt;Node6</title>
<g id="a_edge5_Node000001_Node000006"><a xlink:title=" ">
<path fill="none" stroke="#63b8ff" d="M526.45,-50.63C546.89,-40.87 574.45,-27.71 592.34,-19.17"/>
<polygon fill="#63b8ff" stroke="#63b8ff" points="524.85,-47.52 517.33,-54.98 527.87,-53.83 524.85,-47.52"/>
</a>
</g>
</g>
<!-- Node7 -->
<g id="Node000007" class="node">
<title>Node7</title>
<g id="a_Node000007"><a xlink:href="na-iprefs_8c.html" target="_top" xlink:title=" ">
<polygon fill="white" stroke="#666666" points="737.5,-19 669.5,-19 669.5,0 737.5,0 737.5,-19"/>
<text text-anchor="middle" x="703.5" y="-7" font-family="Helvetica,sans-Serif" font-size="10.00">na&#45;iprefs.c</text>
</a>
</g>
</g>
<!-- Node1&#45;&gt;Node7 -->
<g id="edge6_Node000001_Node000007" class="edge">
<title>Node1&#45;&gt;Node7</title>
<g id="a_edge6_Node000001_Node000007"><a xlink:title=" ">
<path fill="none" stroke="#63b8ff" d="M542.08,-52.44C580.27,-42.52 635.52,-28.16 670.47,-19.08"/>
<polygon fill="#63b8ff" stroke="#63b8ff" points="541.07,-49.08 532.28,-54.98 542.83,-55.86 541.07,-49.08"/>
</a>
</g>
</g>
<!-- Node8 -->
<g id="Node000008" class="node">
<title>Node8</title>
<g id="a_Node000008"><a xlink:href="caja-actions_2src_2test_2test-reader_8c.html" target="_top" xlink:title=" ">
<polygon fill="white" stroke="#666666" points="833.5,-19 755.5,-19 755.5,0 833.5,0 833.5,-19"/>
<text text-anchor="middle" x="794.5" y="-7" font-family="Helvetica,sans-Serif" font-size="10.00">test&#45;reader.c</text>
</a>
</g>
</g>
<!-- Node1&#45;&gt;Node8 -->
<g id="edge7_Node000001_Node000008" class="edge">
<title>Node1&#45;&gt;Node8</title>
<g id="a_edge7_Node000001_Node000008"><a xlink:title=" ">
<path fill="none" stroke="#63b8ff" d="M551.24,-54.2C609.52,-43.73 702.93,-26.95 755.42,-17.52"/>
<polygon fill="#63b8ff" stroke="#63b8ff" points="550.36,-50.81 541.14,-56.02 551.6,-57.7 550.36,-50.81"/>
</a>
</g>
</g>
</g>
</svg>

<g id="navigator" transform="translate(0 0)" fill="#404254">
  <rect fill="#f2f5e9" fill-opacity="0.5" stroke="#606060" stroke-width=".5" x="0" y="0" width="60" height="60"/>
  <use id="zoomplus" xlink:href="#zoomPlus" x="17" y="9" onmousedown="handleZoom(evt,'in')"/>
  <use id="zoomminus" xlink:href="#zoomMin" x="42" y="9" onmousedown="handleZoom(evt,'out')"/>
  <use id="reset" xlink:href="#resetDef" x="30" y="36" onmousedown="handleReset()"/>
   <use id="arrowup" xlink:href="#arrowUp" x="0" y="0" onmousedown="handlePan(0,-1)"/>
  <use id="arrowright" xlink:href="#arrowRight" x="0" y="0" onmousedown="handlePan(1,0)"/>
  <use id="arrowdown" xlink:href="#arrowDown" x="0" y="0" onmousedown="handlePan(0,1)"/>
  <use id="arrowleft" xlink:href="#arrowLeft" x="0" y="0" onmousedown="handlePan(-1,0)"/>
</g>
<svg viewBox="0 0 15 15" width="100%" height="30px" preserveAspectRatio="xMaxYMin meet">
 <g id="arrow_out" transform="scale(0.3 0.3)">
  <a xlink:href="na-importer_8h__dep__incl_org.svg" target="_base">
   <rect id="button" ry="5" rx="5" y="6" x="6" height="38" width="38"
        fill="#f2f5e9" fill-opacity="0.5" stroke="#606060" stroke-width="1.0"/>
   <path id="arrow"
     d="M 11.500037,31.436501 C 11.940474,20.09759 22.043105,11.32322 32.158766,21.979434 L 37.068811,17.246167 C 37.068811,17.246167 37.088388,32 37.088388,32 L 22.160133,31.978069 C 22.160133,31.978069 26.997745,27.140456 26.997745,27.140456 C 18.528582,18.264221 13.291696,25.230495 11.500037,31.436501 z"
     style="fill:#404040;"/>
  </a>
 </g>
</svg>

<style type='text/css'>
<![CDATA[
[data-mouse-over-selected='false'] { opacity: 0.7; }
[data-mouse-over-selected='true']  { opacity: 1.0; }
]]>
</style>
<script type="application/ecmascript"><![CDATA[
document.addEventListener('DOMContentLoaded', (event) => {
  highlightEdges();
  highlightAdjacentNodes();
});
]]></script>
</svg>
