<?xml version="1.0" encoding="UTF-8" standalone="no"?>
<!DOCTYPE svg PUBLIC "-//W3C//DTD SVG 1.1//EN"
 "http://www.w3.org/Graphics/SVG/1.1/DTD/svg11.dtd">
<!-- Generated by graphviz version 2.43.0 (0)
 -->
<!-- Title: nameplate&#45;tile.h Pages: 1 -->
<svg width="137pt" height="137pt"
 viewBox="0.00 0.00 137.00 137.00" xmlns="http://www.w3.org/2000/svg" xmlns:xlink="http://www.w3.org/1999/xlink">
<g id="graph0" class="graph" transform="scale(1 1) rotate(0) translate(4 133)">
<title>nameplate&#45;tile.h</title>
<!-- Node1 -->
<g id="Node000001" class="node">
<title>Node1</title>
<g id="a_Node000001"><a xlink:title=" ">
<polygon fill="#999999" stroke="#666666" points="106,-129 8,-129 8,-110 106,-110 106,-129"/>
<text text-anchor="middle" x="57" y="-117" font-family="Helvetica,sans-Serif" font-size="10.00">nameplate&#45;tile.h</text>
</a>
</g>
</g>
<!-- Node2 -->
<g id="Node000002" class="node">
<title>Node2</title>
<g id="a_Node000002"><a xlink:href="tile_8h.html" target="_top" xlink:title=" ">
<polygon fill="white" stroke="#666666" points="77.5,-74 36.5,-74 36.5,-55 77.5,-55 77.5,-74"/>
<text text-anchor="middle" x="57" y="-62" font-family="Helvetica,sans-Serif" font-size="10.00">tile.h</text>
</a>
</g>
</g>
<!-- Node1&#45;&gt;Node2 -->
<g id="edge1_Node000001_Node000002" class="edge">
<title>Node1&#45;&gt;Node2</title>
<g id="a_edge1_Node000001_Node000002"><a xlink:title=" ">
<path fill="none" stroke="#63b8ff" d="M57,-109.75C57,-102.8 57,-92.85 57,-84.13"/>
<polygon fill="#63b8ff" stroke="#63b8ff" points="60.5,-84.09 57,-74.09 53.5,-84.09 60.5,-84.09"/>
</a>
</g>
</g>
<!-- Node3 -->
<g id="Node000003" class="node">
<title>Node3</title>
<g id="a_Node000003"><a xlink:title=" ">
<polygon fill="#e0e0e0" stroke="#999999" points="44,-19 0,-19 0,0 44,0 44,-19"/>
<text text-anchor="middle" x="22" y="-7" font-family="Helvetica,sans-Serif" font-size="10.00">glib.h</text>
</a>
</g>
</g>
<!-- Node1&#45;&gt;Node3 -->
<g id="edge4_Node000001_Node000003" class="edge">
<title>Node1&#45;&gt;Node3</title>
<g id="a_edge4_Node000001_Node000003"><a xlink:title=" ">
<path fill="none" stroke="#63b8ff" d="M49.04,-109.72C41.88,-101.25 31.79,-87.72 27,-74 21.98,-59.63 20.92,-42.35 21,-29.45"/>
<polygon fill="#63b8ff" stroke="#63b8ff" points="24.5,-29.52 21.3,-19.42 17.5,-29.31 24.5,-29.52"/>
</a>
</g>
</g>
<!-- Node4 -->
<g id="Node000004" class="node">
<title>Node4</title>
<g id="a_Node000004"><a xlink:title=" ">
<polygon fill="#e0e0e0" stroke="#999999" points="129,-19 69,-19 69,0 129,0 129,-19"/>
<text text-anchor="middle" x="99" y="-7" font-family="Helvetica,sans-Serif" font-size="10.00">gtk/gtk.h</text>
</a>
</g>
</g>
<!-- Node1&#45;&gt;Node4 -->
<g id="edge5_Node000001_Node000004" class="edge">
<title>Node1&#45;&gt;Node4</title>
<g id="a_edge5_Node000001_Node000004"><a xlink:title=" ">
<path fill="none" stroke="#63b8ff" d="M64.36,-109.92C71.29,-101.38 81.4,-87.62 87,-74 92.94,-59.55 95.97,-42.04 97.49,-29.07"/>
<polygon fill="#63b8ff" stroke="#63b8ff" points="100.99,-29.32 98.49,-19.03 94.02,-28.64 100.99,-29.32"/>
</a>
</g>
</g>
<!-- Node2&#45;&gt;Node3 -->
<g id="edge2_Node000002_Node000003" class="edge">
<title>Node2&#45;&gt;Node3</title>
<g id="a_edge2_Node000002_Node000003"><a xlink:title=" ">
<path fill="none" stroke="#63b8ff" d="M51.22,-54.75C46.38,-47.42 39.32,-36.73 33.36,-27.7"/>
<polygon fill="#63b8ff" stroke="#63b8ff" points="36.1,-25.5 27.67,-19.09 30.26,-29.36 36.1,-25.5"/>
</a>
</g>
</g>
<!-- Node2&#45;&gt;Node4 -->
<g id="edge3_Node000002_Node000004" class="edge">
<title>Node2&#45;&gt;Node4</title>
<g id="a_edge3_Node000002_Node000004"><a xlink:title=" ">
<path fill="none" stroke="#63b8ff" d="M63.94,-54.75C69.87,-47.26 78.57,-36.28 85.82,-27.13"/>
<polygon fill="#63b8ff" stroke="#63b8ff" points="88.73,-29.1 92.19,-19.09 83.24,-24.75 88.73,-29.1"/>
</a>
</g>
</g>
</g>
</svg>
