<?xml version="1.0" encoding="UTF-8" standalone="no"?>
<!DOCTYPE svg PUBLIC "-//W3C//DTD SVG 1.1//EN"
 "http://www.w3.org/Graphics/SVG/1.1/DTD/svg11.dtd">
<!-- Generated by graphviz version 2.43.0 (0)
 -->
<!-- Title: nameplate&#45;tile.h Pages: 1 -->
<svg width="358pt" height="192pt"
 viewBox="0.00 0.00 357.50 192.00" xmlns="http://www.w3.org/2000/svg" xmlns:xlink="http://www.w3.org/1999/xlink">
<g id="graph0" class="graph" transform="scale(1 1) rotate(0) translate(4 188)">
<title>nameplate&#45;tile.h</title>
<!-- Node1 -->
<g id="Node000001" class="node">
<title>Node1</title>
<g id="a_Node000001"><a xlink:title=" ">
<polygon fill="#999999" stroke="#666666" points="273,-184 175,-184 175,-165 273,-165 273,-184"/>
<text text-anchor="middle" x="224" y="-172" font-family="Helvetica,sans-Serif" font-size="10.00">nameplate&#45;tile.h</text>
</a>
</g>
</g>
<!-- Node2 -->
<g id="Node000002" class="node">
<title>Node2</title>
<g id="a_Node000002"><a xlink:href="application-tile_8h.html" target="_top" xlink:title=" ">
<polygon fill="white" stroke="#666666" points="192.5,-129 93.5,-129 93.5,-110 192.5,-110 192.5,-129"/>
<text text-anchor="middle" x="143" y="-117" font-family="Helvetica,sans-Serif" font-size="10.00">application&#45;tile.h</text>
</a>
</g>
</g>
<!-- Node1&#45;&gt;Node2 -->
<g id="edge1_Node000001_Node000002" class="edge">
<title>Node1&#45;&gt;Node2</title>
<g id="a_edge1_Node000001_Node000002"><a xlink:title=" ">
<path fill="none" stroke="#63b8ff" d="M202.49,-159.42C187.79,-149.81 168.78,-137.37 156.25,-129.17"/>
<polygon fill="#63b8ff" stroke="#63b8ff" points="200.7,-162.44 210.99,-164.98 204.53,-156.58 200.7,-162.44"/>
</a>
</g>
</g>
<!-- Node5 -->
<g id="Node000005" class="node">
<title>Node5</title>
<g id="a_Node000005"><a xlink:href="slab_8h.html" target="_top" xlink:title=" ">
<polygon fill="white" stroke="#666666" points="250,-74 204,-74 204,-55 250,-55 250,-74"/>
<text text-anchor="middle" x="227" y="-62" font-family="Helvetica,sans-Serif" font-size="10.00">slab.h</text>
</a>
</g>
</g>
<!-- Node1&#45;&gt;Node5 -->
<g id="edge7_Node000001_Node000005" class="edge">
<title>Node1&#45;&gt;Node5</title>
<g id="a_edge7_Node000001_Node000005"><a xlink:title=" ">
<path fill="none" stroke="#63b8ff" d="M224.53,-154.48C225.18,-130.84 226.28,-91.5 226.76,-74.16"/>
<polygon fill="#63b8ff" stroke="#63b8ff" points="221.02,-154.57 224.25,-164.66 228.02,-154.76 221.02,-154.57"/>
</a>
</g>
</g>
<!-- Node7 -->
<g id="Node000007" class="node">
<title>Node7</title>
<g id="a_Node000007"><a xlink:href="nameplate-tile_8c.html" target="_top" xlink:title=" ">
<polygon fill="white" stroke="#666666" points="349.5,-129 252.5,-129 252.5,-110 349.5,-110 349.5,-129"/>
<text text-anchor="middle" x="301" y="-117" font-family="Helvetica,sans-Serif" font-size="10.00">nameplate&#45;tile.c</text>
</a>
</g>
</g>
<!-- Node1&#45;&gt;Node7 -->
<g id="edge6_Node000001_Node000007" class="edge">
<title>Node1&#45;&gt;Node7</title>
<g id="a_edge6_Node000001_Node000007"><a xlink:title=" ">
<path fill="none" stroke="#63b8ff" d="M244.85,-159.15C258.76,-149.57 276.61,-137.29 288.4,-129.17"/>
<polygon fill="#63b8ff" stroke="#63b8ff" points="242.62,-156.43 236.37,-164.98 246.59,-162.2 242.62,-156.43"/>
</a>
</g>
</g>
<!-- Node3 -->
<g id="Node000003" class="node">
<title>Node3</title>
<g id="a_Node000003"><a xlink:href="app-shell_8c.html" target="_top" xlink:title=" ">
<polygon fill="white" stroke="#666666" points="70,-74 0,-74 0,-55 70,-55 70,-74"/>
<text text-anchor="middle" x="35" y="-62" font-family="Helvetica,sans-Serif" font-size="10.00">app&#45;shell.c</text>
</a>
</g>
</g>
<!-- Node2&#45;&gt;Node3 -->
<g id="edge2_Node000002_Node000003" class="edge">
<title>Node2&#45;&gt;Node3</title>
<g id="a_edge2_Node000002_Node000003"><a xlink:title=" ">
<path fill="none" stroke="#63b8ff" d="M116.51,-105.5C96.64,-95.75 70,-82.68 52.67,-74.17"/>
<polygon fill="#63b8ff" stroke="#63b8ff" points="115.13,-108.72 125.65,-109.98 118.21,-102.44 115.13,-108.72"/>
</a>
</g>
</g>
<!-- Node4 -->
<g id="Node000004" class="node">
<title>Node4</title>
<g id="a_Node000004"><a xlink:href="application-tile_8c.html" target="_top" xlink:title=" ">
<polygon fill="white" stroke="#666666" points="186,-74 88,-74 88,-55 186,-55 186,-74"/>
<text text-anchor="middle" x="137" y="-62" font-family="Helvetica,sans-Serif" font-size="10.00">application&#45;tile.c</text>
</a>
</g>
</g>
<!-- Node2&#45;&gt;Node4 -->
<g id="edge3_Node000002_Node000004" class="edge">
<title>Node2&#45;&gt;Node4</title>
<g id="a_edge3_Node000002_Node000004"><a xlink:title=" ">
<path fill="none" stroke="#63b8ff" d="M140.87,-99.66C139.88,-90.93 138.75,-80.99 137.97,-74.09"/>
<polygon fill="#63b8ff" stroke="#63b8ff" points="137.41,-100.21 142.01,-109.75 144.36,-99.42 137.41,-100.21"/>
</a>
</g>
</g>
<!-- Node2&#45;&gt;Node5 -->
<g id="edge4_Node000002_Node000005" class="edge">
<title>Node2&#45;&gt;Node5</title>
<g id="a_edge4_Node000002_Node000005"><a xlink:title=" ">
<path fill="none" stroke="#63b8ff" d="M165.31,-104.42C180.55,-94.81 200.27,-82.37 213.26,-74.17"/>
<polygon fill="#63b8ff" stroke="#63b8ff" points="163.09,-101.69 156.5,-109.98 166.82,-107.61 163.09,-101.69"/>
</a>
</g>
</g>
<!-- Node6 -->
<g id="Node000006" class="node">
<title>Node6</title>
<g id="a_Node000006"><a xlink:href="control-center_8c.html" target="_top" xlink:title=" ">
<polygon fill="white" stroke="#666666" points="273,-19 181,-19 181,0 273,0 273,-19"/>
<text text-anchor="middle" x="227" y="-7" font-family="Helvetica,sans-Serif" font-size="10.00">control&#45;center.c</text>
</a>
</g>
</g>
<!-- Node5&#45;&gt;Node6 -->
<g id="edge5_Node000005_Node000006" class="edge">
<title>Node5&#45;&gt;Node6</title>
<g id="a_edge5_Node000005_Node000006"><a xlink:title=" ">
<path fill="none" stroke="#63b8ff" d="M227,-44.66C227,-35.93 227,-25.99 227,-19.09"/>
<polygon fill="#63b8ff" stroke="#63b8ff" points="223.5,-44.75 227,-54.75 230.5,-44.75 223.5,-44.75"/>
</a>
</g>
</g>
</g>
</svg>
