<?xml version="1.0" encoding="UTF-8" standalone="no"?>
<!DOCTYPE svg PUBLIC "-//W3C//DTD SVG 1.1//EN"
 "http://www.w3.org/Graphics/SVG/1.1/DTD/svg11.dtd">
<!-- Generated by graphviz version 2.43.0 (0)
 -->
<!-- Title: panel.h Pages: 1 -->
<!--zoomable 148 -->

<svg id="main" version="1.1" xmlns="http://www.w3.org/2000/svg" xmlns:xlink="http://www.w3.org/1999/xlink" xml:space="preserve" onload="init(evt)">
<style type="text/css"><![CDATA[
.node, .edge {opacity: 0.7;}
.node.selected, .edge.selected {opacity: 1;}
.edge:hover path { stroke: red; }
.edge:hover polygon { stroke: red; fill: red; }
]]></style>

<defs>
  <circle id="rim" cx="0" cy="0" r="7"/>
  <circle id="rim2" cx="0" cy="0" r="3.5"/>
  <g id="zoomPlus">
    <use xlink:href="#rim" fill="#404040"><set attributeName="fill" to="#808080" begin="zoomplus.mouseover" end="zoomplus.mouseout"/></use>
    <path d="M-4,0h8M0,-4v8" fill="none" stroke="white" stroke-width="1.5" pointer-events="none"/>
  </g>
  <g id="zoomMin">
    <use xlink:href="#rim" fill="#404040"><set attributeName="fill" to="#808080" begin="zoomminus.mouseover" end="zoomminus.mouseout"/></use>
    <path d="M-4,0h8" fill="none" stroke="white" stroke-width="1.5" pointer-events="none"/>
  </g>
  <g id="arrowUp" transform="translate(30 24)">
    <use xlink:href="#rim"/>
    <path pointer-events="none" fill="none" stroke="white" stroke-width="1.5" d="M0,-3.0v7 M-2.5,-0.5L0,-3.0L2.5,-0.5"/>
  </g>
  <g id="arrowRight" transform="rotate(90) translate(36 -43)">
    <use xlink:href="#rim"/>
    <path pointer-events="none" fill="none" stroke="white" stroke-width="1.5" d="M0,-3.0v7 M-2.5,-0.5L0,-3.0L2.5,-0.5"/>
  </g>
  <g id="arrowDown" transform="rotate(180) translate(-30 -48)">
    <use xlink:href="#rim"/>
    <path pointer-events="none" fill="none" stroke="white" stroke-width="1.5" d="M0,-3.0v7 M-2.5,-0.5L0,-3.0L2.5,-0.5"/>
  </g>
  <g id="arrowLeft" transform="rotate(270) translate(-36 17)">
    <use xlink:href="#rim"/>
    <path pointer-events="none" fill="none" stroke="white" stroke-width="1.5" d="M0,-3.0v7 M-2.5,-0.5L0,-3.0L2.5,-0.5"/>
  </g>
  <g id="resetDef">
    <use xlink:href="#rim2" fill="#404040"><set attributeName="fill" to="#808080" begin="reset.mouseover" end="reset.mouseout"/></use>
  </g>
</defs>
<script type="application/ecmascript">
var viewWidth = 1013;
var viewHeight = 148;
var sectionId = 'dynsection-1';
</script>
<script type="application/ecmascript" xlink:href="svg.min.js"/>
<svg id="graph" class="graph">
<g id="viewport">
<title>panel.h</title>
<!-- Node1 -->
<g id="Node000001" class="node">
<title>Node1</title>
<g id="a_Node000001"><a xlink:title=" ">
<polygon fill="#999999" stroke="#666666" points="472,-140 419,-140 419,-121 472,-121 472,-140"/>
<text text-anchor="middle" x="445.5" y="-128" font-family="Helvetica,sans-Serif" font-size="10.00">panel.h</text>
</a>
</g>
</g>
<!-- Node2 -->
<g id="Node000002" class="node">
<title>Node2</title>
<g id="a_Node000002"><a xlink:href="drawer_8h.html" target="_top" xlink:title=" ">
<polygon fill="white" stroke="#666666" points="219,-85 160,-85 160,-66 219,-66 219,-85"/>
<text text-anchor="middle" x="189.5" y="-73" font-family="Helvetica,sans-Serif" font-size="10.00">drawer.h</text>
</a>
</g>
</g>
<!-- Node1&#45;&gt;Node2 -->
<g id="edge1_Node000001_Node000002" class="edge">
<title>Node1&#45;&gt;Node2</title>
<g id="a_edge1_Node000001_Node000002"><a xlink:title=" ">
<path fill="none" stroke="#63b8ff" d="M408.63,-121.87C357.52,-111.29 266.16,-92.37 219.19,-82.65"/>
<polygon fill="#63b8ff" stroke="#63b8ff" points="408.09,-125.33 418.59,-123.93 409.5,-118.47 408.09,-125.33"/>
</a>
</g>
</g>
<!-- Node5 -->
<g id="Node000005" class="node">
<title>Node5</title>
<g id="a_Node000005"><a xlink:href="mate-panel_2mate-panel_2menu_8c.html" target="_top" xlink:title=" ">
<polygon fill="white" stroke="#666666" points="53,-24.5 0,-24.5 0,-5.5 53,-5.5 53,-24.5"/>
<text text-anchor="middle" x="26.5" y="-12.5" font-family="Helvetica,sans-Serif" font-size="10.00">menu.c</text>
</a>
</g>
</g>
<!-- Node1&#45;&gt;Node5 -->
<g id="edge7_Node000001_Node000005" class="edge">
<title>Node1&#45;&gt;Node5</title>
<g id="a_edge7_Node000001_Node000005"><a xlink:title=" ">
<path fill="none" stroke="#63b8ff" d="M408.4,-128.14C351.49,-125.11 239.84,-115.48 150.5,-85 106.43,-69.97 59.85,-39.52 38.48,-24.62"/>
<polygon fill="#63b8ff" stroke="#63b8ff" points="408.55,-131.65 418.71,-128.64 408.89,-124.66 408.55,-131.65"/>
</a>
</g>
</g>
<!-- Node6 -->
<g id="Node000006" class="node">
<title>Node6</title>
<g id="a_Node000006"><a xlink:href="panel-addto_8c.html" target="_top" xlink:title=" ">
<polygon fill="white" stroke="#666666" points="305,-24.5 222,-24.5 222,-5.5 305,-5.5 305,-24.5"/>
<text text-anchor="middle" x="263.5" y="-12.5" font-family="Helvetica,sans-Serif" font-size="10.00">panel&#45;addto.c</text>
</a>
</g>
</g>
<!-- Node1&#45;&gt;Node6 -->
<g id="edge8_Node000001_Node000006" class="edge">
<title>Node1&#45;&gt;Node6</title>
<g id="a_edge8_Node000001_Node000006"><a xlink:title=" ">
<path fill="none" stroke="#63b8ff" d="M415.54,-116.63C397.41,-108.41 374.09,-97.06 354.5,-85 323.26,-65.77 289.65,-38.3 273.41,-24.54"/>
<polygon fill="#63b8ff" stroke="#63b8ff" points="414.46,-119.98 425.02,-120.86 417.32,-113.59 414.46,-119.98"/>
</a>
</g>
</g>
<!-- Node7 -->
<g id="Node000007" class="node">
<title>Node7</title>
<g id="a_Node000007"><a xlink:href="panel_8c.html" target="_top" xlink:title=" ">
<polygon fill="white" stroke="#666666" points="375.5,-24.5 323.5,-24.5 323.5,-5.5 375.5,-5.5 375.5,-24.5"/>
<text text-anchor="middle" x="349.5" y="-12.5" font-family="Helvetica,sans-Serif" font-size="10.00">panel.c</text>
</a>
</g>
</g>
<!-- Node1&#45;&gt;Node7 -->
<g id="edge17_Node000001_Node000007" class="edge">
<title>Node1&#45;&gt;Node7</title>
<g id="a_edge17_Node000001_Node000007"><a xlink:title=" ">
<path fill="none" stroke="#63b8ff" d="M411.4,-116.84C396.27,-109.63 379.44,-99.17 368.5,-85 354.37,-66.71 350.74,-38.57 349.82,-24.55"/>
<polygon fill="#63b8ff" stroke="#63b8ff" points="409.98,-120.03 420.54,-120.91 412.83,-113.64 409.98,-120.03"/>
</a>
</g>
</g>
<!-- Node8 -->
<g id="Node000008" class="node">
<title>Node8</title>
<g id="a_Node000008"><a xlink:href="panel-applet-container_8h.html" target="_top" xlink:title=" ">
<polygon fill="white" stroke="#666666" points="513.5,-85 377.5,-85 377.5,-66 513.5,-66 513.5,-85"/>
<text text-anchor="middle" x="445.5" y="-73" font-family="Helvetica,sans-Serif" font-size="10.00">panel&#45;applet&#45;container.h</text>
</a>
</g>
</g>
<!-- Node1&#45;&gt;Node8 -->
<g id="edge9_Node000001_Node000008" class="edge">
<title>Node1&#45;&gt;Node8</title>
<g id="a_edge9_Node000001_Node000008"><a xlink:title=" ">
<path fill="none" stroke="#63b8ff" d="M445.5,-110.66C445.5,-101.93 445.5,-91.99 445.5,-85.09"/>
<polygon fill="#63b8ff" stroke="#63b8ff" points="442,-110.75 445.5,-120.75 449,-110.75 442,-110.75"/>
</a>
</g>
</g>
<!-- Node12 -->
<g id="Node000012" class="node">
<title>Node12</title>
<g id="a_Node000012"><a xlink:href="panel-applet-frame_8c.html" target="_top" xlink:title=" ">
<polygon fill="white" stroke="#666666" points="651,-85 532,-85 532,-66 651,-66 651,-85"/>
<text text-anchor="middle" x="591.5" y="-73" font-family="Helvetica,sans-Serif" font-size="10.00">panel&#45;applet&#45;frame.c</text>
</a>
</g>
</g>
<!-- Node1&#45;&gt;Node12 -->
<g id="edge13_Node000001_Node000012" class="edge">
<title>Node1&#45;&gt;Node12</title>
<g id="a_edge13_Node000001_Node000012"><a xlink:title=" ">
<path fill="none" stroke="#63b8ff" d="M478.42,-117.55C505.53,-107.71 543.33,-93.98 567.62,-85.17"/>
<polygon fill="#63b8ff" stroke="#63b8ff" points="477.16,-114.28 468.96,-120.98 479.55,-120.86 477.16,-114.28"/>
</a>
</g>
</g>
<!-- Node13 -->
<g id="Node000013" class="node">
<title>Node13</title>
<g id="a_Node000013"><a xlink:href="panel-context-menu_8c.html" target="_top" xlink:title=" ">
<polygon fill="white" stroke="#666666" points="793.5,-85 669.5,-85 669.5,-66 793.5,-66 793.5,-85"/>
<text text-anchor="middle" x="731.5" y="-73" font-family="Helvetica,sans-Serif" font-size="10.00">panel&#45;context&#45;menu.c</text>
</a>
</g>
</g>
<!-- Node1&#45;&gt;Node13 -->
<g id="edge14_Node000001_Node000013" class="edge">
<title>Node1&#45;&gt;Node13</title>
<g id="a_edge14_Node000001_Node000013"><a xlink:title=" ">
<path fill="none" stroke="#63b8ff" d="M482.24,-122.69C534.12,-113.08 628.84,-95.52 685.39,-85.04"/>
<polygon fill="#63b8ff" stroke="#63b8ff" points="481.34,-119.3 472.15,-124.56 482.62,-126.18 481.34,-119.3"/>
</a>
</g>
</g>
<!-- Node14 -->
<g id="Node000014" class="node">
<title>Node14</title>
<g id="a_Node000014"><a xlink:href="panel-profile_8c.html" target="_top" xlink:title=" ">
<polygon fill="white" stroke="#666666" points="897.5,-85 811.5,-85 811.5,-66 897.5,-66 897.5,-85"/>
<text text-anchor="middle" x="854.5" y="-73" font-family="Helvetica,sans-Serif" font-size="10.00">panel&#45;profile.c</text>
</a>
</g>
</g>
<!-- Node1&#45;&gt;Node14 -->
<g id="edge15_Node000001_Node000014" class="edge">
<title>Node1&#45;&gt;Node14</title>
<g id="a_edge15_Node000001_Node000014"><a xlink:title=" ">
<path fill="none" stroke="#63b8ff" d="M482.56,-125.35C547.48,-117.98 685.96,-101.78 802.5,-85 805.4,-84.58 808.38,-84.14 811.39,-83.68"/>
<polygon fill="#63b8ff" stroke="#63b8ff" points="481.96,-121.9 472.42,-126.5 482.75,-128.85 481.96,-121.9"/>
</a>
</g>
</g>
<!-- Node15 -->
<g id="Node000015" class="node">
<title>Node15</title>
<g id="a_Node000015"><a xlink:href="panel-widget_8c.html" target="_top" xlink:title=" ">
<polygon fill="white" stroke="#666666" points="1005,-85 916,-85 916,-66 1005,-66 1005,-85"/>
<text text-anchor="middle" x="960.5" y="-73" font-family="Helvetica,sans-Serif" font-size="10.00">panel&#45;widget.c</text>
</a>
</g>
</g>
<!-- Node1&#45;&gt;Node15 -->
<g id="edge16_Node000001_Node000015" class="edge">
<title>Node1&#45;&gt;Node15</title>
<g id="a_edge16_Node000001_Node000015"><a xlink:title=" ">
<path fill="none" stroke="#63b8ff" d="M482.37,-126.7C560.65,-120.58 749.18,-104.96 906.5,-85 909.51,-84.62 912.62,-84.2 915.74,-83.76"/>
<polygon fill="#63b8ff" stroke="#63b8ff" points="481.77,-123.23 472.07,-127.5 482.31,-130.21 481.77,-123.23"/>
</a>
</g>
</g>
<!-- Node3 -->
<g id="Node000003" class="node">
<title>Node3</title>
<g id="a_Node000003"><a xlink:href="mate-panel_2mate-panel_2applet_8c.html" target="_top" xlink:title=" ">
<polygon fill="white" stroke="#666666" points="127.5,-24.5 71.5,-24.5 71.5,-5.5 127.5,-5.5 127.5,-24.5"/>
<text text-anchor="middle" x="99.5" y="-12.5" font-family="Helvetica,sans-Serif" font-size="10.00">applet.c</text>
</a>
</g>
</g>
<!-- Node2&#45;&gt;Node3 -->
<g id="edge2_Node000002_Node000003" class="edge">
<title>Node2&#45;&gt;Node3</title>
<g id="a_edge2_Node000002_Node000003"><a xlink:title=" ">
<path fill="none" stroke="#63b8ff" d="M167.44,-60.16C150.34,-49.05 127.21,-34.01 112.83,-24.67"/>
<polygon fill="#63b8ff" stroke="#63b8ff" points="165.93,-63.35 176.22,-65.87 169.74,-57.48 165.93,-63.35"/>
</a>
</g>
</g>
<!-- Node4 -->
<g id="Node000004" class="node">
<title>Node4</title>
<g id="a_Node000004"><a xlink:href="drawer_8c.html" target="_top" xlink:title=" ">
<polygon fill="white" stroke="#666666" points="203.5,-24.5 145.5,-24.5 145.5,-5.5 203.5,-5.5 203.5,-24.5"/>
<text text-anchor="middle" x="174.5" y="-12.5" font-family="Helvetica,sans-Serif" font-size="10.00">drawer.c</text>
</a>
</g>
</g>
<!-- Node2&#45;&gt;Node4 -->
<g id="edge3_Node000002_Node000004" class="edge">
<title>Node2&#45;&gt;Node4</title>
<g id="a_edge3_Node000002_Node000004"><a xlink:title=" ">
<path fill="none" stroke="#63b8ff" d="M184.75,-55.99C182.07,-45.51 178.83,-32.89 176.72,-24.67"/>
<polygon fill="#63b8ff" stroke="#63b8ff" points="181.41,-57.05 187.29,-65.87 188.19,-55.31 181.41,-57.05"/>
</a>
</g>
</g>
<!-- Node2&#45;&gt;Node5 -->
<g id="edge4_Node000002_Node000005" class="edge">
<title>Node2&#45;&gt;Node5</title>
<g id="a_edge4_Node000002_Node000005"><a xlink:title=" ">
<path fill="none" stroke="#63b8ff" d="M154.48,-62.59C128.91,-53.8 93.45,-41.44 62.5,-30 57.85,-28.28 52.87,-26.38 48.16,-24.56"/>
<polygon fill="#63b8ff" stroke="#63b8ff" points="153.51,-65.95 164.11,-65.89 155.78,-59.33 153.51,-65.95"/>
</a>
</g>
</g>
<!-- Node2&#45;&gt;Node6 -->
<g id="edge5_Node000002_Node000006" class="edge">
<title>Node2&#45;&gt;Node6</title>
<g id="a_edge5_Node000002_Node000006"><a xlink:title=" ">
<path fill="none" stroke="#63b8ff" d="M208.43,-59.54C222.4,-48.49 240.93,-33.84 252.54,-24.67"/>
<polygon fill="#63b8ff" stroke="#63b8ff" points="206.09,-56.92 200.42,-65.87 210.43,-62.41 206.09,-56.92"/>
</a>
</g>
</g>
<!-- Node2&#45;&gt;Node7 -->
<g id="edge6_Node000002_Node000007" class="edge">
<title>Node2&#45;&gt;Node7</title>
<g id="a_edge6_Node000002_Node000007"><a xlink:title=" ">
<path fill="none" stroke="#63b8ff" d="M223.53,-62.56C248.5,-53.73 283.18,-41.33 313.5,-30 318.15,-28.26 323.12,-26.36 327.83,-24.53"/>
<polygon fill="#63b8ff" stroke="#63b8ff" points="222.07,-59.36 213.8,-65.99 224.4,-65.96 222.07,-59.36"/>
</a>
</g>
</g>
<!-- Node9 -->
<g id="Node000009" class="node">
<title>Node9</title>
<g id="a_Node000009"><a xlink:href="panel-applet-container_8c.html" target="_top" xlink:title=" ">
<polygon fill="white" stroke="#666666" points="529,-24.5 394,-24.5 394,-5.5 529,-5.5 529,-24.5"/>
<text text-anchor="middle" x="461.5" y="-12.5" font-family="Helvetica,sans-Serif" font-size="10.00">panel&#45;applet&#45;container.c</text>
</a>
</g>
</g>
<!-- Node8&#45;&gt;Node9 -->
<g id="edge10_Node000008_Node000009" class="edge">
<title>Node8&#45;&gt;Node9</title>
<g id="a_edge10_Node000008_Node000009"><a xlink:title=" ">
<path fill="none" stroke="#63b8ff" d="M450.56,-55.99C453.43,-45.51 456.88,-32.89 459.13,-24.67"/>
<polygon fill="#63b8ff" stroke="#63b8ff" points="447.12,-55.3 447.86,-65.87 453.88,-57.15 447.12,-55.3"/>
</a>
</g>
</g>
<!-- Node10 -->
<g id="Node000010" class="node">
<title>Node10</title>
<g id="a_Node000010"><a xlink:href="panel-applet-frame-dbus_8c.html" target="_top" xlink:title=" ">
<polygon fill="white" stroke="#666666" points="658,-30 547,-30 547,0 658,0 658,-30"/>
<text text-anchor="start" x="555" y="-18" font-family="Helvetica,sans-Serif" font-size="10.00">panel&#45;applet&#45;frame</text>
<text text-anchor="middle" x="602.5" y="-7" font-family="Helvetica,sans-Serif" font-size="10.00">&#45;dbus.c</text>
</a>
</g>
</g>
<!-- Node8&#45;&gt;Node10 -->
<g id="edge11_Node000008_Node000010" class="edge">
<title>Node8&#45;&gt;Node10</title>
<g id="a_edge11_Node000008_Node000010"><a xlink:title=" ">
<path fill="none" stroke="#63b8ff" d="M477.82,-62.46C503.07,-53.05 538.21,-39.95 564.75,-30.06"/>
<polygon fill="#63b8ff" stroke="#63b8ff" points="476.48,-59.22 468.33,-65.99 478.92,-65.78 476.48,-59.22"/>
</a>
</g>
</g>
<!-- Node11 -->
<g id="Node000011" class="node">
<title>Node11</title>
<g id="a_Node000011"><a xlink:href="panel-test-applets_8c.html" target="_top" xlink:title=" ">
<polygon fill="white" stroke="#666666" points="790.5,-24.5 676.5,-24.5 676.5,-5.5 790.5,-5.5 790.5,-24.5"/>
<text text-anchor="middle" x="733.5" y="-12.5" font-family="Helvetica,sans-Serif" font-size="10.00">panel&#45;test&#45;applets.c</text>
</a>
</g>
</g>
<!-- Node8&#45;&gt;Node11 -->
<g id="edge12_Node000008_Node000011" class="edge">
<title>Node8&#45;&gt;Node11</title>
<g id="a_edge12_Node000008_Node000011"><a xlink:title=" ">
<path fill="none" stroke="#63b8ff" d="M498.75,-64C543.74,-55.09 609.88,-41.89 667.5,-30 675.99,-28.25 685.09,-26.34 693.73,-24.51"/>
<polygon fill="#63b8ff" stroke="#63b8ff" points="498.05,-60.57 488.92,-65.95 499.41,-67.44 498.05,-60.57"/>
</a>
</g>
</g>
</g>
</svg>

<g id="navigator" transform="translate(0 0)" fill="#404254">
  <rect fill="#f2f5e9" fill-opacity="0.5" stroke="#606060" stroke-width=".5" x="0" y="0" width="60" height="60"/>
  <use id="zoomplus" xlink:href="#zoomPlus" x="17" y="9" onmousedown="handleZoom(evt,'in')"/>
  <use id="zoomminus" xlink:href="#zoomMin" x="42" y="9" onmousedown="handleZoom(evt,'out')"/>
  <use id="reset" xlink:href="#resetDef" x="30" y="36" onmousedown="handleReset()"/>
   <use id="arrowup" xlink:href="#arrowUp" x="0" y="0" onmousedown="handlePan(0,-1)"/>
  <use id="arrowright" xlink:href="#arrowRight" x="0" y="0" onmousedown="handlePan(1,0)"/>
  <use id="arrowdown" xlink:href="#arrowDown" x="0" y="0" onmousedown="handlePan(0,1)"/>
  <use id="arrowleft" xlink:href="#arrowLeft" x="0" y="0" onmousedown="handlePan(-1,0)"/>
</g>
<svg viewBox="0 0 15 15" width="100%" height="30px" preserveAspectRatio="xMaxYMin meet">
 <g id="arrow_out" transform="scale(0.3 0.3)">
  <a xlink:href="panel_8h__dep__incl_org.svg" target="_base">
   <rect id="button" ry="5" rx="5" y="6" x="6" height="38" width="38"
        fill="#f2f5e9" fill-opacity="0.5" stroke="#606060" stroke-width="1.0"/>
   <path id="arrow"
     d="M 11.500037,31.436501 C 11.940474,20.09759 22.043105,11.32322 32.158766,21.979434 L 37.068811,17.246167 C 37.068811,17.246167 37.088388,32 37.088388,32 L 22.160133,31.978069 C 22.160133,31.978069 26.997745,27.140456 26.997745,27.140456 C 18.528582,18.264221 13.291696,25.230495 11.500037,31.436501 z"
     style="fill:#404040;"/>
  </a>
 </g>
</svg>

<style type='text/css'>
<![CDATA[
[data-mouse-over-selected='false'] { opacity: 0.7; }
[data-mouse-over-selected='true']  { opacity: 1.0; }
]]>
</style>
<script type="application/ecmascript"><![CDATA[
document.addEventListener('DOMContentLoaded', (event) => {
  highlightEdges();
  highlightAdjacentNodes();
});
]]></script>
</svg>
