<?xml version="1.0" encoding="UTF-8" standalone="no"?>
<!DOCTYPE svg PUBLIC "-//W3C//DTD SVG 1.1//EN"
 "http://www.w3.org/Graphics/SVG/1.1/DTD/svg11.dtd">
<!-- Generated by graphviz version 2.43.0 (0)
 -->
<!-- Title: panel&#45;applet&#45;frame&#45;dbus.c Pages: 1 -->
<svg width="806pt" height="544pt"
 viewBox="0.00 0.00 806.39 544.00" xmlns="http://www.w3.org/2000/svg" xmlns:xlink="http://www.w3.org/1999/xlink">
<g id="graph0" class="graph" transform="scale(1 1) rotate(0) translate(4 540)">
<title>panel&#45;applet&#45;frame&#45;dbus.c</title>
<!-- Node1 -->
<g id="Node000001" class="node">
<title>Node1</title>
<g id="a_Node000001"><a xlink:title=" ">
<polygon fill="#999999" stroke="#666666" points="303.89,-536 192.89,-536 192.89,-506 303.89,-506 303.89,-536"/>
<text text-anchor="start" x="200.89" y="-524" font-family="Helvetica,sans-Serif" font-size="10.00">panel&#45;applet&#45;frame</text>
<text text-anchor="middle" x="248.39" y="-513" font-family="Helvetica,sans-Serif" font-size="10.00">&#45;dbus.c</text>
</a>
</g>
</g>
<!-- Node2 -->
<g id="Node000002" class="node">
<title>Node2</title>
<g id="a_Node000002"><a xlink:title=" ">
<polygon fill="#e0e0e0" stroke="#999999" points="203.89,-129 148.89,-129 148.89,-110 203.89,-110 203.89,-129"/>
<text text-anchor="middle" x="176.39" y="-117" font-family="Helvetica,sans-Serif" font-size="10.00">config.h</text>
</a>
</g>
</g>
<!-- Node1&#45;&gt;Node2 -->
<g id="edge1_Node000001_Node000002" class="edge">
<title>Node1&#45;&gt;Node2</title>
<g id="a_edge1_Node000001_Node000002"><a xlink:title=" ">
<path fill="none" stroke="#63b8ff" d="M192.63,-514.47C133.26,-507.46 44.57,-493.38 20.39,-470 -4.18,-446.25 1.39,-429.67 1.39,-395.5 1.39,-395.5 1.39,-395.5 1.39,-338.5 1.39,-242.72 105.39,-165.06 153.04,-134.51"/>
<polygon fill="#63b8ff" stroke="#63b8ff" points="155.16,-137.31 161.77,-129.03 151.44,-131.38 155.16,-137.31"/>
</a>
</g>
</g>
<!-- Node3 -->
<g id="Node000003" class="node">
<title>Node3</title>
<g id="a_Node000003"><a xlink:title=" ">
<polygon fill="#e0e0e0" stroke="#999999" points="82.89,-464.5 29.89,-464.5 29.89,-445.5 82.89,-445.5 82.89,-464.5"/>
<text text-anchor="middle" x="56.39" y="-452.5" font-family="Helvetica,sans-Serif" font-size="10.00">string.h</text>
</a>
</g>
</g>
<!-- Node1&#45;&gt;Node3 -->
<g id="edge2_Node000001_Node000003" class="edge">
<title>Node1&#45;&gt;Node3</title>
<g id="a_edge2_Node000001_Node000003"><a xlink:title=" ">
<path fill="none" stroke="#63b8ff" d="M201.38,-506C170.03,-496.43 128.01,-483.14 91.39,-470 89.78,-469.42 88.14,-468.82 86.48,-468.2"/>
<polygon fill="#63b8ff" stroke="#63b8ff" points="87.61,-464.88 77.03,-464.54 85.09,-471.41 87.61,-464.88"/>
</a>
</g>
</g>
<!-- Node4 -->
<g id="Node000004" class="node">
<title>Node4</title>
<g id="a_Node000004"><a xlink:href="panel-applet-frame_8h.html" target="_top" xlink:title=" ">
<polygon fill="white" stroke="#666666" points="502.39,-404 382.39,-404 382.39,-385 502.39,-385 502.39,-404"/>
<text text-anchor="middle" x="442.39" y="-392" font-family="Helvetica,sans-Serif" font-size="10.00">panel&#45;applet&#45;frame.h</text>
</a>
</g>
</g>
<!-- Node1&#45;&gt;Node4 -->
<g id="edge3_Node000001_Node000004" class="edge">
<title>Node1&#45;&gt;Node4</title>
<g id="a_edge3_Node000001_Node000004"><a xlink:title=" ">
<path fill="none" stroke="#63b8ff" d="M304.02,-512.72C336.06,-506.12 375.39,-493.6 403.39,-470 420.79,-455.34 431.46,-430.91 437.14,-414.05"/>
<polygon fill="#63b8ff" stroke="#63b8ff" points="440.57,-414.83 440.18,-404.24 433.88,-412.76 440.57,-414.83"/>
</a>
</g>
</g>
<!-- Node18 -->
<g id="Node000018" class="node">
<title>Node18</title>
<g id="a_Node000018"><a xlink:href="panel-applets-manager_8h.html" target="_top" xlink:title=" ">
<polygon fill="white" stroke="#666666" points="239.89,-464.5 100.89,-464.5 100.89,-445.5 239.89,-445.5 239.89,-464.5"/>
<text text-anchor="middle" x="170.39" y="-452.5" font-family="Helvetica,sans-Serif" font-size="10.00">panel&#45;applets&#45;manager.h</text>
</a>
</g>
</g>
<!-- Node1&#45;&gt;Node18 -->
<g id="edge31_Node000001_Node000018" class="edge">
<title>Node1&#45;&gt;Node18</title>
<g id="a_edge31_Node000001_Node000018"><a xlink:title=" ">
<path fill="none" stroke="#63b8ff" d="M231.08,-505.8C218.68,-495.62 202,-481.93 189.26,-471.48"/>
<polygon fill="#63b8ff" stroke="#63b8ff" points="191.12,-468.48 181.17,-464.84 186.68,-473.89 191.12,-468.48"/>
</a>
</g>
</g>
<!-- Node21 -->
<g id="Node000021" class="node">
<title>Node21</title>
<g id="a_Node000021"><a xlink:href="panel-applet-container_8h.html" target="_top" xlink:title=" ">
<polygon fill="white" stroke="#666666" points="394.39,-464.5 258.39,-464.5 258.39,-445.5 394.39,-445.5 394.39,-464.5"/>
<text text-anchor="middle" x="326.39" y="-452.5" font-family="Helvetica,sans-Serif" font-size="10.00">panel&#45;applet&#45;container.h</text>
</a>
</g>
</g>
<!-- Node1&#45;&gt;Node21 -->
<g id="edge36_Node000001_Node000021" class="edge">
<title>Node1&#45;&gt;Node21</title>
<g id="a_edge36_Node000001_Node000021"><a xlink:title=" ">
<path fill="none" stroke="#63b8ff" d="M265.7,-505.8C278.1,-495.62 294.79,-481.93 307.53,-471.48"/>
<polygon fill="#63b8ff" stroke="#63b8ff" points="310.1,-473.89 315.61,-464.84 305.66,-468.48 310.1,-473.89"/>
</a>
</g>
</g>
<!-- Node23 -->
<g id="Node000023" class="node">
<title>Node23</title>
<g id="a_Node000023"><a xlink:href="panel-applet-frame-dbus_8h.html" target="_top" xlink:title=" ">
<polygon fill="white" stroke="#666666" points="561.89,-470 450.89,-470 450.89,-440 561.89,-440 561.89,-470"/>
<text text-anchor="start" x="458.89" y="-458" font-family="Helvetica,sans-Serif" font-size="10.00">panel&#45;applet&#45;frame</text>
<text text-anchor="middle" x="506.39" y="-447" font-family="Helvetica,sans-Serif" font-size="10.00">&#45;dbus.h</text>
</a>
</g>
</g>
<!-- Node1&#45;&gt;Node23 -->
<g id="edge44_Node000001_Node000023" class="edge">
<title>Node1&#45;&gt;Node23</title>
<g id="a_edge44_Node000001_Node000023"><a xlink:title=" ">
<path fill="none" stroke="#63b8ff" d="M304.06,-506.19C344.24,-496.22 398.64,-482.73 440.91,-472.24"/>
<polygon fill="#63b8ff" stroke="#63b8ff" points="441.96,-475.59 450.83,-469.78 440.28,-468.79 441.96,-475.59"/>
</a>
</g>
</g>
<!-- Node5 -->
<g id="Node000005" class="node">
<title>Node5</title>
<g id="a_Node000005"><a xlink:title=" ">
<polygon fill="#e0e0e0" stroke="#999999" points="372.39,-129 312.39,-129 312.39,-110 372.39,-110 372.39,-129"/>
<text text-anchor="middle" x="342.39" y="-117" font-family="Helvetica,sans-Serif" font-size="10.00">gtk/gtk.h</text>
</a>
</g>
</g>
<!-- Node4&#45;&gt;Node5 -->
<g id="edge4_Node000004_Node000005" class="edge">
<title>Node4&#45;&gt;Node5</title>
<g id="a_edge4_Node000004_Node000005"><a xlink:title=" ">
<path fill="none" stroke="#63b8ff" d="M435.39,-384.7C417.72,-362.01 371,-299.08 347.39,-239 335.23,-208.05 334.17,-198.18 336.39,-165 336.96,-156.54 338.13,-147.24 339.28,-139.34"/>
<polygon fill="#63b8ff" stroke="#63b8ff" points="342.76,-139.75 340.85,-129.33 335.85,-138.67 342.76,-139.75"/>
</a>
</g>
</g>
<!-- Node6 -->
<g id="Node000006" class="node">
<title>Node6</title>
<g id="a_Node000006"><a xlink:href="panel-widget_8h.html" target="_top" xlink:title=" ">
<polygon fill="white" stroke="#666666" points="515.89,-294 426.89,-294 426.89,-275 515.89,-275 515.89,-294"/>
<text text-anchor="middle" x="471.39" y="-282" font-family="Helvetica,sans-Serif" font-size="10.00">panel&#45;widget.h</text>
</a>
</g>
</g>
<!-- Node4&#45;&gt;Node6 -->
<g id="edge5_Node000004_Node000006" class="edge">
<title>Node4&#45;&gt;Node6</title>
<g id="a_edge5_Node000004_Node000006"><a xlink:title=" ">
<path fill="none" stroke="#63b8ff" d="M444.77,-384.66C449.48,-367.09 460.13,-327.45 466.44,-303.95"/>
<polygon fill="#63b8ff" stroke="#63b8ff" points="469.85,-304.72 469.07,-294.16 463.09,-302.91 469.85,-304.72"/>
</a>
</g>
</g>
<!-- Node15 -->
<g id="Node000015" class="node">
<title>Node15</title>
<g id="a_Node000015"><a xlink:href="mate-panel_2mate-panel_2applet_8h.html" target="_top" xlink:title=" ">
<polygon fill="white" stroke="#666666" points="594.39,-349 538.39,-349 538.39,-330 594.39,-330 594.39,-349"/>
<text text-anchor="middle" x="566.39" y="-337" font-family="Helvetica,sans-Serif" font-size="10.00">applet.h</text>
</a>
</g>
</g>
<!-- Node4&#45;&gt;Node15 -->
<g id="edge25_Node000004_Node000015" class="edge">
<title>Node4&#45;&gt;Node15</title>
<g id="a_edge25_Node000004_Node000015"><a xlink:title=" ">
<path fill="none" stroke="#63b8ff" d="M462.31,-384.98C482.44,-376.38 513.77,-362.99 536.8,-353.15"/>
<polygon fill="#63b8ff" stroke="#63b8ff" points="538.29,-356.32 546.11,-349.17 535.54,-349.88 538.29,-356.32"/>
</a>
</g>
</g>
<!-- Node6&#45;&gt;Node5 -->
<g id="edge6_Node000006_Node000005" class="edge">
<title>Node6&#45;&gt;Node5</title>
<g id="a_edge6_Node000006_Node000005"><a xlink:title=" ">
<path fill="none" stroke="#63b8ff" d="M426.79,-276.22C403.83,-270.13 377.37,-259.06 361.39,-239 338.43,-210.17 338.13,-164.6 340.14,-139.19"/>
<polygon fill="#63b8ff" stroke="#63b8ff" points="343.64,-139.37 341.15,-129.07 336.67,-138.67 343.64,-139.37"/>
</a>
</g>
</g>
<!-- Node7 -->
<g id="Node000007" class="node">
<title>Node7</title>
<g id="a_Node000007"><a xlink:title=" ">
<polygon fill="#e0e0e0" stroke="#999999" points="655.89,-239 522.89,-239 522.89,-220 655.89,-220 655.89,-239"/>
<text text-anchor="middle" x="589.39" y="-227" font-family="Helvetica,sans-Serif" font-size="10.00">gdk&#45;pixbuf/gdk&#45;pixbuf.h</text>
</a>
</g>
</g>
<!-- Node6&#45;&gt;Node7 -->
<g id="edge7_Node000006_Node000007" class="edge">
<title>Node6&#45;&gt;Node7</title>
<g id="a_edge7_Node000006_Node000007"><a xlink:title=" ">
<path fill="none" stroke="#63b8ff" d="M490.35,-274.98C509.42,-266.42 539.05,-253.11 560.94,-243.28"/>
<polygon fill="#63b8ff" stroke="#63b8ff" points="562.4,-246.46 570.09,-239.17 559.53,-240.07 562.4,-246.46"/>
</a>
</g>
</g>
<!-- Node8 -->
<g id="Node000008" class="node">
<title>Node8</title>
<g id="a_Node000008"><a xlink:href="button-widget_8h.html" target="_top" xlink:title=" ">
<polygon fill="white" stroke="#666666" points="634.39,-184 540.39,-184 540.39,-165 634.39,-165 634.39,-184"/>
<text text-anchor="middle" x="587.39" y="-172" font-family="Helvetica,sans-Serif" font-size="10.00">button&#45;widget.h</text>
</a>
</g>
</g>
<!-- Node6&#45;&gt;Node8 -->
<g id="edge8_Node000006_Node000008" class="edge">
<title>Node6&#45;&gt;Node8</title>
<g id="a_edge8_Node000006_Node000008"><a xlink:title=" ">
<path fill="none" stroke="#63b8ff" d="M515.94,-276.27C570.26,-267 656.05,-250.72 665.39,-239 682.08,-218.05 650.76,-199.4 622.97,-187.82"/>
<polygon fill="#63b8ff" stroke="#63b8ff" points="623.96,-184.45 613.38,-184.03 621.39,-190.96 623.96,-184.45"/>
</a>
</g>
</g>
<!-- Node12 -->
<g id="Node000012" class="node">
<title>Node12</title>
<g id="a_Node000012"><a xlink:href="panel-types_8h.html" target="_top" xlink:title=" ">
<polygon fill="white" stroke="#666666" points="581.89,-129 498.89,-129 498.89,-110 581.89,-110 581.89,-129"/>
<text text-anchor="middle" x="540.39" y="-117" font-family="Helvetica,sans-Serif" font-size="10.00">panel&#45;types.h</text>
</a>
</g>
</g>
<!-- Node6&#45;&gt;Node12 -->
<g id="edge14_Node000006_Node000012" class="edge">
<title>Node6&#45;&gt;Node12</title>
<g id="a_edge14_Node000006_Node000012"><a xlink:title=" ">
<path fill="none" stroke="#63b8ff" d="M516.04,-275.51C576.12,-264.55 676.16,-245.46 681.39,-239 718.44,-193.28 629.34,-152.05 576.33,-132.49"/>
<polygon fill="#63b8ff" stroke="#63b8ff" points="577.48,-129.18 566.89,-129.09 575.11,-135.77 577.48,-129.18"/>
</a>
</g>
</g>
<!-- Node13 -->
<g id="Node000013" class="node">
<title>Node13</title>
<g id="a_Node000013"><a xlink:href="panel-background_8h.html" target="_top" xlink:title=" ">
<polygon fill="white" stroke="#666666" points="521.89,-184 408.89,-184 408.89,-165 521.89,-165 521.89,-184"/>
<text text-anchor="middle" x="465.39" y="-172" font-family="Helvetica,sans-Serif" font-size="10.00">panel&#45;background.h</text>
</a>
</g>
</g>
<!-- Node6&#45;&gt;Node13 -->
<g id="edge15_Node000006_Node000013" class="edge">
<title>Node6&#45;&gt;Node13</title>
<g id="a_edge15_Node000006_Node000013"><a xlink:title=" ">
<path fill="none" stroke="#63b8ff" d="M472.88,-274.85C474.78,-262.61 477.56,-239.54 475.39,-220 474.43,-211.34 472.45,-201.91 470.5,-193.97"/>
<polygon fill="#63b8ff" stroke="#63b8ff" points="473.88,-193.06 467.97,-184.27 467.11,-194.83 473.88,-193.06"/>
</a>
</g>
</g>
<!-- Node14 -->
<g id="Node000014" class="node">
<title>Node14</title>
<g id="a_Node000014"><a xlink:href="panel-toplevel_8h.html" target="_top" xlink:title=" ">
<polygon fill="white" stroke="#666666" points="466.39,-239 370.39,-239 370.39,-220 466.39,-220 466.39,-239"/>
<text text-anchor="middle" x="418.39" y="-227" font-family="Helvetica,sans-Serif" font-size="10.00">panel&#45;toplevel.h</text>
</a>
</g>
</g>
<!-- Node6&#45;&gt;Node14 -->
<g id="edge21_Node000006_Node000014" class="edge">
<title>Node6&#45;&gt;Node14</title>
<g id="a_edge21_Node000006_Node000014"><a xlink:title=" ">
<path fill="none" stroke="#63b8ff" d="M462.64,-274.75C454.92,-267.03 443.49,-255.6 434.18,-246.28"/>
<polygon fill="#63b8ff" stroke="#63b8ff" points="436.53,-243.69 426.98,-239.09 431.58,-248.64 436.53,-243.69"/>
</a>
</g>
</g>
<!-- Node8&#45;&gt;Node5 -->
<g id="edge9_Node000008_Node000005" class="edge">
<title>Node8&#45;&gt;Node5</title>
<g id="a_edge9_Node000008_Node000005"><a xlink:title=" ">
<path fill="none" stroke="#63b8ff" d="M548.03,-164.98C502.63,-155.16 428.39,-139.1 382.63,-129.2"/>
<polygon fill="#63b8ff" stroke="#63b8ff" points="383.27,-125.76 372.76,-127.07 381.79,-132.6 383.27,-125.76"/>
</a>
</g>
</g>
<!-- Node9 -->
<g id="Node000009" class="node">
<title>Node9</title>
<g id="a_Node000009"><a xlink:href="panel-enums_8h.html" target="_top" xlink:title=" ">
<polygon fill="white" stroke="#666666" points="698.89,-129 609.89,-129 609.89,-110 698.89,-110 698.89,-129"/>
<text text-anchor="middle" x="654.39" y="-117" font-family="Helvetica,sans-Serif" font-size="10.00">panel&#45;enums.h</text>
</a>
</g>
</g>
<!-- Node8&#45;&gt;Node9 -->
<g id="edge10_Node000008_Node000009" class="edge">
<title>Node8&#45;&gt;Node9</title>
<g id="a_edge10_Node000008_Node000009"><a xlink:title=" ">
<path fill="none" stroke="#63b8ff" d="M598.16,-164.98C608.16,-157.07 623.28,-145.11 635.32,-135.58"/>
<polygon fill="#63b8ff" stroke="#63b8ff" points="637.76,-138.12 643.43,-129.17 633.42,-132.63 637.76,-138.12"/>
</a>
</g>
</g>
<!-- Node10 -->
<g id="Node000010" class="node">
<title>Node10</title>
<g id="a_Node000010"><a xlink:title=" ">
<polygon fill="#e0e0e0" stroke="#999999" points="584.39,-19 540.39,-19 540.39,0 584.39,0 584.39,-19"/>
<text text-anchor="middle" x="562.39" y="-7" font-family="Helvetica,sans-Serif" font-size="10.00">glib.h</text>
</a>
</g>
</g>
<!-- Node9&#45;&gt;Node10 -->
<g id="edge11_Node000009_Node000010" class="edge">
<title>Node9&#45;&gt;Node10</title>
<g id="a_edge11_Node000009_Node000010"><a xlink:title=" ">
<path fill="none" stroke="#63b8ff" d="M654.61,-109.8C654.51,-96.66 652.57,-71.55 640.39,-55 628.99,-39.51 610.45,-28.61 594.32,-21.48"/>
<polygon fill="#63b8ff" stroke="#63b8ff" points="595.24,-18.08 584.66,-17.52 592.58,-24.55 595.24,-18.08"/>
</a>
</g>
</g>
<!-- Node11 -->
<g id="Node000011" class="node">
<title>Node11</title>
<g id="a_Node000011"><a xlink:href="panel-enums-gsettings_8h.html" target="_top" xlink:title=" ">
<polygon fill="white" stroke="#666666" points="631.39,-74 493.39,-74 493.39,-55 631.39,-55 631.39,-74"/>
<text text-anchor="middle" x="562.39" y="-62" font-family="Helvetica,sans-Serif" font-size="10.00">panel&#45;enums&#45;gsettings.h</text>
</a>
</g>
</g>
<!-- Node9&#45;&gt;Node11 -->
<g id="edge12_Node000009_Node000011" class="edge">
<title>Node9&#45;&gt;Node11</title>
<g id="a_edge12_Node000009_Node000011"><a xlink:title=" ">
<path fill="none" stroke="#63b8ff" d="M639.61,-109.98C625.21,-101.69 603.08,-88.94 586.2,-79.22"/>
<polygon fill="#63b8ff" stroke="#63b8ff" points="587.85,-76.13 577.44,-74.17 584.36,-82.19 587.85,-76.13"/>
</a>
</g>
</g>
<!-- Node11&#45;&gt;Node10 -->
<g id="edge13_Node000011_Node000010" class="edge">
<title>Node11&#45;&gt;Node10</title>
<g id="a_edge13_Node000011_Node000010"><a xlink:title=" ">
<path fill="none" stroke="#63b8ff" d="M562.39,-54.75C562.39,-47.8 562.39,-37.85 562.39,-29.13"/>
<polygon fill="#63b8ff" stroke="#63b8ff" points="565.89,-29.09 562.39,-19.09 558.89,-29.09 565.89,-29.09"/>
</a>
</g>
</g>
<!-- Node13&#45;&gt;Node2 -->
<g id="edge16_Node000013_Node000002" class="edge">
<title>Node13&#45;&gt;Node2</title>
<g id="a_edge16_Node000013_Node000002"><a xlink:title=" ">
<path fill="none" stroke="#63b8ff" d="M418.96,-164.98C361.97,-154.53 266.44,-137.01 213.88,-127.37"/>
<polygon fill="#63b8ff" stroke="#63b8ff" points="214.43,-123.92 203.97,-125.56 213.17,-130.8 214.43,-123.92"/>
</a>
</g>
</g>
<!-- Node13&#45;&gt;Node5 -->
<g id="edge18_Node000013_Node000005" class="edge">
<title>Node13&#45;&gt;Node5</title>
<g id="a_edge18_Node000013_Node000005"><a xlink:title=" ">
<path fill="none" stroke="#63b8ff" d="M445.63,-164.98C425.66,-156.38 394.59,-142.99 371.74,-133.15"/>
<polygon fill="#63b8ff" stroke="#63b8ff" points="373.08,-129.91 362.51,-129.17 370.31,-136.34 373.08,-129.91"/>
</a>
</g>
</g>
<!-- Node13&#45;&gt;Node9 -->
<g id="edge19_Node000013_Node000009" class="edge">
<title>Node13&#45;&gt;Node9</title>
<g id="a_edge19_Node000013_Node000009"><a xlink:title=" ">
<path fill="none" stroke="#63b8ff" d="M495.76,-164.98C527.76,-156.01 578.35,-141.82 613.77,-131.89"/>
<polygon fill="#63b8ff" stroke="#63b8ff" points="615.1,-135.15 623.79,-129.08 613.21,-128.41 615.1,-135.15"/>
</a>
</g>
</g>
<!-- Node13&#45;&gt;Node10 -->
<g id="edge17_Node000013_Node000010" class="edge">
<title>Node13&#45;&gt;Node10</title>
<g id="a_edge17_Node000013_Node000010"><a xlink:title=" ">
<path fill="none" stroke="#63b8ff" d="M464.4,-164.84C462.47,-143.91 460.31,-89.77 484.39,-55 495.52,-38.93 514.46,-27.92 530.89,-20.88"/>
<polygon fill="#63b8ff" stroke="#63b8ff" points="532.2,-24.13 540.2,-17.18 529.61,-17.62 532.2,-24.13"/>
</a>
</g>
</g>
<!-- Node13&#45;&gt;Node12 -->
<g id="edge20_Node000013_Node000012" class="edge">
<title>Node13&#45;&gt;Node12</title>
<g id="a_edge20_Node000013_Node000012"><a xlink:title=" ">
<path fill="none" stroke="#63b8ff" d="M477.44,-164.98C488.85,-156.92 506.22,-144.65 519.83,-135.03"/>
<polygon fill="#63b8ff" stroke="#63b8ff" points="521.98,-137.8 528.12,-129.17 517.94,-132.08 521.98,-137.8"/>
</a>
</g>
</g>
<!-- Node14&#45;&gt;Node5 -->
<g id="edge22_Node000014_Node000005" class="edge">
<title>Node14&#45;&gt;Node5</title>
<g id="a_edge22_Node000014_Node000005"><a xlink:title=" ">
<path fill="none" stroke="#63b8ff" d="M412.17,-219.66C399.53,-201.69 370.64,-160.64 354.27,-137.38"/>
<polygon fill="#63b8ff" stroke="#63b8ff" points="357.1,-135.32 348.48,-129.16 351.38,-139.35 357.1,-135.32"/>
</a>
</g>
</g>
<!-- Node14&#45;&gt;Node9 -->
<g id="edge24_Node000014_Node000009" class="edge">
<title>Node14&#45;&gt;Node9</title>
<g id="a_edge24_Node000014_Node000009"><a xlink:title=" ">
<path fill="none" stroke="#63b8ff" d="M466.46,-221.93C528.81,-212.96 631.12,-196.57 643.39,-184 654.74,-172.38 656.76,-153.51 656.37,-139.36"/>
<polygon fill="#63b8ff" stroke="#63b8ff" points="659.86,-138.99 655.68,-129.25 652.87,-139.46 659.86,-138.99"/>
</a>
</g>
</g>
<!-- Node14&#45;&gt;Node13 -->
<g id="edge23_Node000014_Node000013" class="edge">
<title>Node14&#45;&gt;Node13</title>
<g id="a_edge23_Node000014_Node000013"><a xlink:title=" ">
<path fill="none" stroke="#63b8ff" d="M426.15,-219.75C432.86,-212.18 442.73,-201.05 450.9,-191.84"/>
<polygon fill="#63b8ff" stroke="#63b8ff" points="453.76,-193.89 457.78,-184.09 448.52,-189.25 453.76,-193.89"/>
</a>
</g>
</g>
<!-- Node15&#45;&gt;Node6 -->
<g id="edge29_Node000015_Node000006" class="edge">
<title>Node15&#45;&gt;Node6</title>
<g id="a_edge29_Node000015_Node000006"><a xlink:title=" ">
<path fill="none" stroke="#63b8ff" d="M551.13,-329.98C536.26,-321.69 513.41,-308.94 495.98,-299.22"/>
<polygon fill="#63b8ff" stroke="#63b8ff" points="497.37,-295.99 486.93,-294.17 493.96,-302.1 497.37,-295.99"/>
</a>
</g>
</g>
<!-- Node15&#45;&gt;Node9 -->
<g id="edge30_Node000015_Node000009" class="edge">
<title>Node15&#45;&gt;Node9</title>
<g id="a_edge30_Node000015_Node000009"><a xlink:title=" ">
<path fill="none" stroke="#63b8ff" d="M594.61,-335.42C621.74,-330.95 661.98,-320.11 685.39,-294 725.18,-249.63 686.48,-172.34 665.69,-137.91"/>
<polygon fill="#63b8ff" stroke="#63b8ff" points="668.42,-135.67 660.15,-129.04 662.48,-139.38 668.42,-135.67"/>
</a>
</g>
</g>
<!-- Node15&#45;&gt;Node10 -->
<g id="edge26_Node000015_Node000010" class="edge">
<title>Node15&#45;&gt;Node10</title>
<g id="a_edge26_Node000015_Node000010"><a xlink:title=" ">
<path fill="none" stroke="#63b8ff" d="M594.84,-338.01C656.79,-335.29 798.39,-319.36 798.39,-230.5 798.39,-230.5 798.39,-230.5 798.39,-118.5 798.39,-29.93 659.26,-13.7 594.66,-10.94"/>
<polygon fill="#63b8ff" stroke="#63b8ff" points="594.71,-7.44 584.59,-10.59 594.47,-14.43 594.71,-7.44"/>
</a>
</g>
</g>
<!-- Node16 -->
<g id="Node000016" class="node">
<title>Node16</title>
<g id="a_Node000016"><a xlink:title=" ">
<polygon fill="#e0e0e0" stroke="#999999" points="598.89,-294 533.89,-294 533.89,-275 598.89,-275 598.89,-294"/>
<text text-anchor="middle" x="566.39" y="-282" font-family="Helvetica,sans-Serif" font-size="10.00">gdk/gdk.h</text>
</a>
</g>
</g>
<!-- Node15&#45;&gt;Node16 -->
<g id="edge27_Node000015_Node000016" class="edge">
<title>Node15&#45;&gt;Node16</title>
<g id="a_edge27_Node000015_Node000016"><a xlink:title=" ">
<path fill="none" stroke="#63b8ff" d="M566.39,-329.75C566.39,-322.8 566.39,-312.85 566.39,-304.13"/>
<polygon fill="#63b8ff" stroke="#63b8ff" points="569.89,-304.09 566.39,-294.09 562.89,-304.09 569.89,-304.09"/>
</a>
</g>
</g>
<!-- Node17 -->
<g id="Node000017" class="node">
<title>Node17</title>
<g id="a_Node000017"><a xlink:title=" ">
<polygon fill="#e0e0e0" stroke="#999999" points="675.89,-294 616.89,-294 616.89,-275 675.89,-275 675.89,-294"/>
<text text-anchor="middle" x="646.39" y="-282" font-family="Helvetica,sans-Serif" font-size="10.00">gio/gio.h</text>
</a>
</g>
</g>
<!-- Node15&#45;&gt;Node17 -->
<g id="edge28_Node000015_Node000017" class="edge">
<title>Node15&#45;&gt;Node17</title>
<g id="a_edge28_Node000015_Node000017"><a xlink:title=" ">
<path fill="none" stroke="#63b8ff" d="M579.25,-329.98C591.54,-321.84 610.3,-309.41 624.87,-299.76"/>
<polygon fill="#63b8ff" stroke="#63b8ff" points="626.9,-302.61 633.3,-294.17 623.04,-296.78 626.9,-302.61"/>
</a>
</g>
</g>
<!-- Node18&#45;&gt;Node4 -->
<g id="edge33_Node000018_Node000004" class="edge">
<title>Node18&#45;&gt;Node4</title>
<g id="a_edge33_Node000018_Node000004"><a xlink:title=" ">
<path fill="none" stroke="#63b8ff" d="M209.94,-445.49C258.29,-435.1 340.14,-417.49 392.69,-406.19"/>
<polygon fill="#63b8ff" stroke="#63b8ff" points="393.75,-409.54 402.79,-404.02 392.28,-402.7 393.75,-409.54"/>
</a>
</g>
</g>
<!-- Node19 -->
<g id="Node000019" class="node">
<title>Node19</title>
<g id="a_Node000019"><a xlink:title=" ">
<polygon fill="#e0e0e0" stroke="#999999" points="199.89,-404 122.89,-404 122.89,-385 199.89,-385 199.89,-404"/>
<text text-anchor="middle" x="161.39" y="-392" font-family="Helvetica,sans-Serif" font-size="10.00">glib&#45;object.h</text>
</a>
</g>
</g>
<!-- Node18&#45;&gt;Node19 -->
<g id="edge32_Node000018_Node000019" class="edge">
<title>Node18&#45;&gt;Node19</title>
<g id="a_edge32_Node000018_Node000019"><a xlink:title=" ">
<path fill="none" stroke="#63b8ff" d="M169.06,-445.37C167.8,-437.16 165.86,-424.54 164.25,-414.05"/>
<polygon fill="#63b8ff" stroke="#63b8ff" points="167.71,-413.52 162.73,-404.17 160.79,-414.58 167.71,-413.52"/>
</a>
</g>
</g>
<!-- Node20 -->
<g id="Node000020" class="node">
<title>Node20</title>
<g id="a_Node000020"><a xlink:href="panel-applet-info_8h.html" target="_top" xlink:title=" ">
<polygon fill="white" stroke="#666666" points="144.39,-349 34.39,-349 34.39,-330 144.39,-330 144.39,-349"/>
<text text-anchor="middle" x="89.39" y="-337" font-family="Helvetica,sans-Serif" font-size="10.00">panel&#45;applet&#45;info.h</text>
</a>
</g>
</g>
<!-- Node18&#45;&gt;Node20 -->
<g id="edge34_Node000018_Node000020" class="edge">
<title>Node18&#45;&gt;Node20</title>
<g id="a_edge34_Node000018_Node000020"><a xlink:title=" ">
<path fill="none" stroke="#63b8ff" d="M157.42,-445.48C144.66,-436.51 125.39,-421.31 113.39,-404 103.95,-390.38 97.64,-372.56 93.87,-359.27"/>
<polygon fill="#63b8ff" stroke="#63b8ff" points="97.2,-358.15 91.29,-349.36 90.42,-359.92 97.2,-358.15"/>
</a>
</g>
</g>
<!-- Node20&#45;&gt;Node10 -->
<g id="edge35_Node000020_Node000010" class="edge">
<title>Node20&#45;&gt;Node10</title>
<g id="a_edge35_Node000020_Node000010"><a xlink:title=" ">
<path fill="none" stroke="#63b8ff" d="M82.23,-329.89C68.4,-312.36 39.39,-270.79 39.39,-230.5 39.39,-230.5 39.39,-230.5 39.39,-118.5 39.39,-17.79 416.02,-10.23 530.06,-10.25"/>
<polygon fill="#63b8ff" stroke="#63b8ff" points="530.25,-13.75 540.25,-10.27 530.26,-6.75 530.25,-13.75"/>
</a>
</g>
</g>
<!-- Node21&#45;&gt;Node5 -->
<g id="edge38_Node000021_Node000005" class="edge">
<title>Node21&#45;&gt;Node5</title>
<g id="a_edge38_Node000021_Node000005"><a xlink:title=" ">
<path fill="none" stroke="#63b8ff" d="M310.65,-445.38C282.94,-428.93 228.39,-390.22 228.39,-340.5 228.39,-340.5 228.39,-340.5 228.39,-228.5 228.39,-182.47 277.98,-150.18 311.74,-133.53"/>
<polygon fill="#63b8ff" stroke="#63b8ff" points="313.67,-136.49 321.22,-129.05 310.68,-130.16 313.67,-136.49"/>
</a>
</g>
</g>
<!-- Node21&#45;&gt;Node19 -->
<g id="edge37_Node000021_Node000019" class="edge">
<title>Node21&#45;&gt;Node19</title>
<g id="a_edge37_Node000021_Node000019"><a xlink:title=" ">
<path fill="none" stroke="#63b8ff" d="M302.4,-445.49C274.17,-435.49 227.12,-418.8 195.2,-407.49"/>
<polygon fill="#63b8ff" stroke="#63b8ff" points="196.01,-404.06 185.41,-404.02 193.67,-410.66 196.01,-404.06"/>
</a>
</g>
</g>
<!-- Node22 -->
<g id="Node000022" class="node">
<title>Node22</title>
<g id="a_Node000022"><a xlink:href="panel_8h.html" target="_top" xlink:title=" ">
<polygon fill="white" stroke="#666666" points="352.89,-404 299.89,-404 299.89,-385 352.89,-385 352.89,-404"/>
<text text-anchor="middle" x="326.39" y="-392" font-family="Helvetica,sans-Serif" font-size="10.00">panel.h</text>
</a>
</g>
</g>
<!-- Node21&#45;&gt;Node22 -->
<g id="edge39_Node000021_Node000022" class="edge">
<title>Node21&#45;&gt;Node22</title>
<g id="a_edge39_Node000021_Node000022"><a xlink:title=" ">
<path fill="none" stroke="#63b8ff" d="M326.39,-445.37C326.39,-437.25 326.39,-424.81 326.39,-414.39"/>
<polygon fill="#63b8ff" stroke="#63b8ff" points="329.89,-414.17 326.39,-404.17 322.89,-414.17 329.89,-414.17"/>
</a>
</g>
</g>
<!-- Node22&#45;&gt;Node5 -->
<g id="edge40_Node000022_Node000005" class="edge">
<title>Node22&#45;&gt;Node5</title>
<g id="a_edge40_Node000022_Node000005"><a xlink:title=" ">
<path fill="none" stroke="#63b8ff" d="M317.54,-384.89C300.85,-367.68 266.39,-327.11 266.39,-285.5 266.39,-285.5 266.39,-285.5 266.39,-228.5 266.39,-198.33 273.05,-189.69 290.39,-165 298.5,-153.45 310.28,-143.04 320.57,-135.2"/>
<polygon fill="#63b8ff" stroke="#63b8ff" points="322.73,-137.96 328.76,-129.25 318.61,-132.3 322.73,-137.96"/>
</a>
</g>
</g>
<!-- Node22&#45;&gt;Node6 -->
<g id="edge42_Node000022_Node000006" class="edge">
<title>Node22&#45;&gt;Node6</title>
<g id="a_edge42_Node000022_Node000006"><a xlink:title=" ">
<path fill="none" stroke="#63b8ff" d="M338.26,-384.66C363.13,-366.14 420.94,-323.08 451.55,-300.28"/>
<polygon fill="#63b8ff" stroke="#63b8ff" points="453.84,-302.94 459.77,-294.16 449.66,-297.32 453.84,-302.94"/>
</a>
</g>
</g>
<!-- Node22&#45;&gt;Node14 -->
<g id="edge41_Node000022_Node000014" class="edge">
<title>Node22&#45;&gt;Node14</title>
<g id="a_edge41_Node000022_Node000014"><a xlink:title=" ">
<path fill="none" stroke="#63b8ff" d="M331.34,-384.74C345.88,-358.98 388.69,-283.13 408.33,-248.33"/>
<polygon fill="#63b8ff" stroke="#63b8ff" points="411.55,-249.74 413.42,-239.31 405.46,-246.3 411.55,-249.74"/>
</a>
</g>
</g>
<!-- Node22&#45;&gt;Node15 -->
<g id="edge43_Node000022_Node000015" class="edge">
<title>Node22&#45;&gt;Node15</title>
<g id="a_edge43_Node000022_Node000015"><a xlink:title=" ">
<path fill="none" stroke="#63b8ff" d="M352.99,-387.63C395.61,-378.22 479.34,-359.72 528.3,-348.91"/>
<polygon fill="#63b8ff" stroke="#63b8ff" points="529.18,-352.3 538.19,-346.73 527.67,-345.47 529.18,-352.3"/>
</a>
</g>
</g>
<!-- Node23&#45;&gt;Node4 -->
<g id="edge45_Node000023_Node000004" class="edge">
<title>Node23&#45;&gt;Node4</title>
<g id="a_edge45_Node000023_Node000004"><a xlink:title=" ">
<path fill="none" stroke="#63b8ff" d="M490.9,-439.84C481.42,-431.17 469.28,-420.08 459.51,-411.15"/>
<polygon fill="#63b8ff" stroke="#63b8ff" points="461.72,-408.43 451.98,-404.27 457,-413.6 461.72,-408.43"/>
</a>
</g>
</g>
</g>
</svg>
