<?xml version="1.0" encoding="UTF-8" standalone="no"?>
<!DOCTYPE svg PUBLIC "-//W3C//DTD SVG 1.1//EN"
 "http://www.w3.org/Graphics/SVG/1.1/DTD/svg11.dtd">
<!-- Generated by graphviz version 2.43.0 (0)
 -->
<!-- Title: panel&#45;properties&#45;dialog.h Pages: 1 -->
<svg width="364pt" height="82pt"
 viewBox="0.00 0.00 363.50 82.00" xmlns="http://www.w3.org/2000/svg" xmlns:xlink="http://www.w3.org/1999/xlink">
<g id="graph0" class="graph" transform="scale(1 1) rotate(0) translate(4 78)">
<title>panel&#45;properties&#45;dialog.h</title>
<!-- Node1 -->
<g id="Node000001" class="node">
<title>Node1</title>
<g id="a_Node000001"><a xlink:title=" ">
<polygon fill="#999999" stroke="#666666" points="206,-74 66,-74 66,-55 206,-55 206,-74"/>
<text text-anchor="middle" x="136" y="-62" font-family="Helvetica,sans-Serif" font-size="10.00">panel&#45;properties&#45;dialog.h</text>
</a>
</g>
</g>
<!-- Node2 -->
<g id="Node000002" class="node">
<title>Node2</title>
<g id="a_Node000002"><a xlink:href="mate-panel_2mate-panel_2applet_8c.html" target="_top" xlink:title=" ">
<polygon fill="white" stroke="#666666" points="56,-19 0,-19 0,0 56,0 56,-19"/>
<text text-anchor="middle" x="28" y="-7" font-family="Helvetica,sans-Serif" font-size="10.00">applet.c</text>
</a>
</g>
</g>
<!-- Node1&#45;&gt;Node2 -->
<g id="edge1_Node000001_Node000002" class="edge">
<title>Node1&#45;&gt;Node2</title>
<g id="a_edge1_Node000001_Node000002"><a xlink:title=" ">
<path fill="none" stroke="#63b8ff" d="M109.51,-50.5C89.64,-40.75 63,-27.68 45.67,-19.17"/>
<polygon fill="#63b8ff" stroke="#63b8ff" points="108.13,-53.72 118.65,-54.98 111.21,-47.44 108.13,-53.72"/>
</a>
</g>
</g>
<!-- Node3 -->
<g id="Node000003" class="node">
<title>Node3</title>
<g id="a_Node000003"><a xlink:href="panel-context-menu_8c.html" target="_top" xlink:title=" ">
<polygon fill="white" stroke="#666666" points="198,-19 74,-19 74,0 198,0 198,-19"/>
<text text-anchor="middle" x="136" y="-7" font-family="Helvetica,sans-Serif" font-size="10.00">panel&#45;context&#45;menu.c</text>
</a>
</g>
</g>
<!-- Node1&#45;&gt;Node3 -->
<g id="edge2_Node000001_Node000003" class="edge">
<title>Node1&#45;&gt;Node3</title>
<g id="a_edge2_Node000001_Node000003"><a xlink:title=" ">
<path fill="none" stroke="#63b8ff" d="M136,-44.66C136,-35.93 136,-25.99 136,-19.09"/>
<polygon fill="#63b8ff" stroke="#63b8ff" points="132.5,-44.75 136,-54.75 139.5,-44.75 132.5,-44.75"/>
</a>
</g>
</g>
<!-- Node4 -->
<g id="Node000004" class="node">
<title>Node4</title>
<g id="a_Node000004"><a xlink:href="panel-properties-dialog_8c.html" target="_top" xlink:title=" ">
<polygon fill="white" stroke="#666666" points="355.5,-19 216.5,-19 216.5,0 355.5,0 355.5,-19"/>
<text text-anchor="middle" x="286" y="-7" font-family="Helvetica,sans-Serif" font-size="10.00">panel&#45;properties&#45;dialog.c</text>
</a>
</g>
</g>
<!-- Node1&#45;&gt;Node4 -->
<g id="edge3_Node000001_Node000004" class="edge">
<title>Node1&#45;&gt;Node4</title>
<g id="a_edge3_Node000001_Node000004"><a xlink:title=" ">
<path fill="none" stroke="#63b8ff" d="M169.82,-51.55C197.68,-41.71 236.51,-27.98 261.46,-19.17"/>
<polygon fill="#63b8ff" stroke="#63b8ff" points="168.36,-48.35 160.1,-54.98 170.69,-54.95 168.36,-48.35"/>
</a>
</g>
</g>
</g>
</svg>
