<?xml version="1.0" encoding="UTF-8" standalone="no"?>
<!DOCTYPE svg PUBLIC "-//W3C//DTD SVG 1.1//EN"
 "http://www.w3.org/Graphics/SVG/1.1/DTD/svg11.dtd">
<!-- Generated by graphviz version 2.43.0 (0)
 -->
<!-- Title: panel&#45;ditem&#45;editor.h Pages: 1 -->
<svg width="368pt" height="82pt"
 viewBox="0.00 0.00 368.00 82.00" xmlns="http://www.w3.org/2000/svg" xmlns:xlink="http://www.w3.org/1999/xlink">
<g id="graph0" class="graph" transform="scale(1 1) rotate(0) translate(4 78)">
<title>panel&#45;ditem&#45;editor.h</title>
<!-- Node1 -->
<g id="Node000001" class="node">
<title>Node1</title>
<g id="a_Node000001"><a xlink:title=" ">
<polygon fill="#999999" stroke="#666666" points="213,-74 97,-74 97,-55 213,-55 213,-74"/>
<text text-anchor="middle" x="155" y="-62" font-family="Helvetica,sans-Serif" font-size="10.00">panel&#45;ditem&#45;editor.h</text>
</a>
</g>
</g>
<!-- Node2 -->
<g id="Node000002" class="node">
<title>Node2</title>
<g id="a_Node000002"><a xlink:href="launcher_8c.html" target="_top" xlink:title=" ">
<polygon fill="white" stroke="#666666" points="66,-19 0,-19 0,0 66,0 66,-19"/>
<text text-anchor="middle" x="33" y="-7" font-family="Helvetica,sans-Serif" font-size="10.00">launcher.c</text>
</a>
</g>
</g>
<!-- Node1&#45;&gt;Node2 -->
<g id="edge1_Node000001_Node000002" class="edge">
<title>Node1&#45;&gt;Node2</title>
<g id="a_edge1_Node000001_Node000002"><a xlink:title=" ">
<path fill="none" stroke="#63b8ff" d="M125.99,-50.9C103.46,-41.11 72.8,-27.79 52.96,-19.17"/>
<polygon fill="#63b8ff" stroke="#63b8ff" points="124.83,-54.21 135.4,-54.98 127.62,-47.79 124.83,-54.21"/>
</a>
</g>
</g>
<!-- Node3 -->
<g id="Node000003" class="node">
<title>Node3</title>
<g id="a_Node000003"><a xlink:href="mate-desktop-item-edit_8c.html" target="_top" xlink:title=" ">
<polygon fill="white" stroke="#666666" points="226,-19 84,-19 84,0 226,0 226,-19"/>
<text text-anchor="middle" x="155" y="-7" font-family="Helvetica,sans-Serif" font-size="10.00">mate&#45;desktop&#45;item&#45;edit.c</text>
</a>
</g>
</g>
<!-- Node1&#45;&gt;Node3 -->
<g id="edge2_Node000001_Node000003" class="edge">
<title>Node1&#45;&gt;Node3</title>
<g id="a_edge2_Node000001_Node000003"><a xlink:title=" ">
<path fill="none" stroke="#63b8ff" d="M155,-44.66C155,-35.93 155,-25.99 155,-19.09"/>
<polygon fill="#63b8ff" stroke="#63b8ff" points="151.5,-44.75 155,-54.75 158.5,-44.75 151.5,-44.75"/>
</a>
</g>
</g>
<!-- Node4 -->
<g id="Node000004" class="node">
<title>Node4</title>
<g id="a_Node000004"><a xlink:href="panel-ditem-editor_8c.html" target="_top" xlink:title=" ">
<polygon fill="white" stroke="#666666" points="360,-19 244,-19 244,0 360,0 360,-19"/>
<text text-anchor="middle" x="302" y="-7" font-family="Helvetica,sans-Serif" font-size="10.00">panel&#45;ditem&#45;editor.c</text>
</a>
</g>
</g>
<!-- Node1&#45;&gt;Node4 -->
<g id="edge3_Node000001_Node000004" class="edge">
<title>Node1&#45;&gt;Node4</title>
<g id="a_edge3_Node000001_Node000004"><a xlink:title=" ">
<path fill="none" stroke="#63b8ff" d="M188.14,-51.55C215.44,-41.71 253.5,-27.98 277.95,-19.17"/>
<polygon fill="#63b8ff" stroke="#63b8ff" points="186.84,-48.3 178.62,-54.98 189.21,-54.89 186.84,-48.3"/>
</a>
</g>
</g>
</g>
</svg>
