<?xml version="1.0" encoding="UTF-8" standalone="no"?>
<!DOCTYPE svg PUBLIC "-//W3C//DTD SVG 1.1//EN"
 "http://www.w3.org/Graphics/SVG/1.1/DTD/svg11.dtd">
<!-- Generated by graphviz version 2.43.0 (0)
 -->
<!-- Title: pluma&#45;view&#45;activatable.h Pages: 1 -->
<svg width="538pt" height="93pt"
 viewBox="0.00 0.00 538.00 93.00" xmlns="http://www.w3.org/2000/svg" xmlns:xlink="http://www.w3.org/1999/xlink">
<g id="graph0" class="graph" transform="scale(1 1) rotate(0) translate(4 89)">
<title>pluma&#45;view&#45;activatable.h</title>
<!-- Node1 -->
<g id="Node000001" class="node">
<title>Node1</title>
<g id="a_Node000001"><a xlink:title=" ">
<polygon fill="#999999" stroke="#666666" points="342.5,-85 201.5,-85 201.5,-66 342.5,-66 342.5,-85"/>
<text text-anchor="middle" x="272" y="-73" font-family="Helvetica,sans-Serif" font-size="10.00">pluma&#45;view&#45;activatable.h</text>
</a>
</g>
</g>
<!-- Node2 -->
<g id="Node000002" class="node">
<title>Node2</title>
<g id="a_Node000002"><a xlink:href="pluma-quickhighlight-plugin_8c.html" target="_top" xlink:title=" ">
<polygon fill="white" stroke="#666666" points="120,-30 0,-30 0,0 120,0 120,-30"/>
<text text-anchor="start" x="8" y="-18" font-family="Helvetica,sans-Serif" font-size="10.00">pluma&#45;quickhighlight</text>
<text text-anchor="middle" x="60" y="-7" font-family="Helvetica,sans-Serif" font-size="10.00">&#45;plugin.c</text>
</a>
</g>
</g>
<!-- Node1&#45;&gt;Node2 -->
<g id="edge1_Node000001_Node000002" class="edge">
<title>Node1&#45;&gt;Node2</title>
<g id="a_edge1_Node000001_Node000002"><a xlink:title=" ">
<path fill="none" stroke="#63b8ff" d="M231.49,-63.32C197.21,-53.86 147.92,-40.26 110.97,-30.06"/>
<polygon fill="#63b8ff" stroke="#63b8ff" points="230.6,-66.71 241.17,-65.99 232.46,-59.96 230.6,-66.71"/>
</a>
</g>
</g>
<!-- Node3 -->
<g id="Node000003" class="node">
<title>Node3</title>
<g id="a_Node000003"><a xlink:href="pluma-view-activatable_8c.html" target="_top" xlink:title=" ">
<polygon fill="white" stroke="#666666" points="278,-24.5 138,-24.5 138,-5.5 278,-5.5 278,-24.5"/>
<text text-anchor="middle" x="208" y="-12.5" font-family="Helvetica,sans-Serif" font-size="10.00">pluma&#45;view&#45;activatable.c</text>
</a>
</g>
</g>
<!-- Node1&#45;&gt;Node3 -->
<g id="edge2_Node000001_Node000003" class="edge">
<title>Node1&#45;&gt;Node3</title>
<g id="a_edge2_Node000001_Node000003"><a xlink:title=" ">
<path fill="none" stroke="#63b8ff" d="M254.94,-58.91C242.94,-47.94 227.33,-33.67 217.48,-24.67"/>
<polygon fill="#63b8ff" stroke="#63b8ff" points="252.81,-61.7 262.56,-65.87 257.54,-56.54 252.81,-61.7"/>
</a>
</g>
</g>
<!-- Node4 -->
<g id="Node000004" class="node">
<title>Node4</title>
<g id="a_Node000004"><a xlink:href="pluma-view_8c.html" target="_top" xlink:title=" ">
<polygon fill="white" stroke="#666666" points="377.5,-24.5 296.5,-24.5 296.5,-5.5 377.5,-5.5 377.5,-24.5"/>
<text text-anchor="middle" x="337" y="-12.5" font-family="Helvetica,sans-Serif" font-size="10.00">pluma&#45;view.c</text>
</a>
</g>
</g>
<!-- Node1&#45;&gt;Node4 -->
<g id="edge3_Node000001_Node000004" class="edge">
<title>Node1&#45;&gt;Node4</title>
<g id="a_edge3_Node000001_Node000004"><a xlink:title=" ">
<path fill="none" stroke="#63b8ff" d="M289.32,-58.91C301.51,-47.94 317.37,-33.67 327.37,-24.67"/>
<polygon fill="#63b8ff" stroke="#63b8ff" points="286.68,-56.58 281.59,-65.87 291.37,-61.78 286.68,-56.58"/>
</a>
</g>
</g>
<!-- Node5 -->
<g id="Node000005" class="node">
<title>Node5</title>
<g id="a_Node000005"><a xlink:href="pluma-word-completion-plugin_8c.html" target="_top" xlink:title=" ">
<polygon fill="white" stroke="#666666" points="530,-30 396,-30 396,0 530,0 530,-30"/>
<text text-anchor="start" x="404" y="-18" font-family="Helvetica,sans-Serif" font-size="10.00">pluma&#45;word&#45;completion</text>
<text text-anchor="middle" x="463" y="-7" font-family="Helvetica,sans-Serif" font-size="10.00">&#45;plugin.c</text>
</a>
</g>
</g>
<!-- Node1&#45;&gt;Node5 -->
<g id="edge4_Node000001_Node000005" class="edge">
<title>Node1&#45;&gt;Node5</title>
<g id="a_edge4_Node000001_Node000005"><a xlink:title=" ">
<path fill="none" stroke="#63b8ff" d="M309.7,-62.95C340.52,-53.51 384.22,-40.13 417.08,-30.06"/>
<polygon fill="#63b8ff" stroke="#63b8ff" points="308.31,-59.72 299.77,-65.99 310.36,-66.41 308.31,-59.72"/>
</a>
</g>
</g>
</g>
</svg>
