<?xml version="1.0" encoding="UTF-8" standalone="no"?>
<!DOCTYPE svg PUBLIC "-//W3C//DTD SVG 1.1//EN"
 "http://www.w3.org/Graphics/SVG/1.1/DTD/svg11.dtd">
<!-- Generated by graphviz version 2.43.0 (0)
 -->
<!-- Title: pluma&#45;debug.h Pages: 1 -->
<!--zoomable 93 -->

<svg id="main" version="1.1" xmlns="http://www.w3.org/2000/svg" xmlns:xlink="http://www.w3.org/1999/xlink" xml:space="preserve" onload="init(evt)">
<style type="text/css"><![CDATA[
.node, .edge {opacity: 0.7;}
.node.selected, .edge.selected {opacity: 1;}
.edge:hover path { stroke: red; }
.edge:hover polygon { stroke: red; fill: red; }
]]></style>

<defs>
  <circle id="rim" cx="0" cy="0" r="7"/>
  <circle id="rim2" cx="0" cy="0" r="3.5"/>
  <g id="zoomPlus">
    <use xlink:href="#rim" fill="#404040"><set attributeName="fill" to="#808080" begin="zoomplus.mouseover" end="zoomplus.mouseout"/></use>
    <path d="M-4,0h8M0,-4v8" fill="none" stroke="white" stroke-width="1.5" pointer-events="none"/>
  </g>
  <g id="zoomMin">
    <use xlink:href="#rim" fill="#404040"><set attributeName="fill" to="#808080" begin="zoomminus.mouseover" end="zoomminus.mouseout"/></use>
    <path d="M-4,0h8" fill="none" stroke="white" stroke-width="1.5" pointer-events="none"/>
  </g>
  <g id="arrowUp" transform="translate(30 24)">
    <use xlink:href="#rim"/>
    <path pointer-events="none" fill="none" stroke="white" stroke-width="1.5" d="M0,-3.0v7 M-2.5,-0.5L0,-3.0L2.5,-0.5"/>
  </g>
  <g id="arrowRight" transform="rotate(90) translate(36 -43)">
    <use xlink:href="#rim"/>
    <path pointer-events="none" fill="none" stroke="white" stroke-width="1.5" d="M0,-3.0v7 M-2.5,-0.5L0,-3.0L2.5,-0.5"/>
  </g>
  <g id="arrowDown" transform="rotate(180) translate(-30 -48)">
    <use xlink:href="#rim"/>
    <path pointer-events="none" fill="none" stroke="white" stroke-width="1.5" d="M0,-3.0v7 M-2.5,-0.5L0,-3.0L2.5,-0.5"/>
  </g>
  <g id="arrowLeft" transform="rotate(270) translate(-36 17)">
    <use xlink:href="#rim"/>
    <path pointer-events="none" fill="none" stroke="white" stroke-width="1.5" d="M0,-3.0v7 M-2.5,-0.5L0,-3.0L2.5,-0.5"/>
  </g>
  <g id="resetDef">
    <use xlink:href="#rim2" fill="#404040"><set attributeName="fill" to="#808080" begin="reset.mouseover" end="reset.mouseout"/></use>
  </g>
</defs>
<script type="application/ecmascript">
var viewWidth = 6117;
var viewHeight = 93;
var sectionId = 'dynsection-1';
</script>
<script type="application/ecmascript" xlink:href="svg.min.js"/>
<svg id="graph" class="graph">
<g id="viewport">
<title>pluma&#45;debug.h</title>
<!-- Node1 -->
<g id="Node000001" class="node">
<title>Node1</title>
<g id="a_Node000001"><a xlink:title=" ">
<polygon fill="#999999" stroke="#666666" points="3329,-85 3239,-85 3239,-66 3329,-66 3329,-85"/>
<text text-anchor="middle" x="3284" y="-73" font-family="Helvetica,sans-Serif" font-size="10.00">pluma&#45;debug.h</text>
</a>
</g>
</g>
<!-- Node2 -->
<g id="Node000002" class="node">
<title>Node2</title>
<g id="a_Node000002"><a xlink:href="modeline-parser_8c.html" target="_top" xlink:title=" ">
<polygon fill="white" stroke="#666666" points="104,-24.5 0,-24.5 0,-5.5 104,-5.5 104,-24.5"/>
<text text-anchor="middle" x="52" y="-12.5" font-family="Helvetica,sans-Serif" font-size="10.00">modeline&#45;parser.c</text>
</a>
</g>
</g>
<!-- Node1&#45;&gt;Node2 -->
<g id="edge1_Node000001_Node000002" class="edge">
<title>Node1&#45;&gt;Node2</title>
<g id="a_edge1_Node000001_Node000002"><a xlink:title=" ">
<path fill="none" stroke="#63b8ff" d="M3228.93,-74.43C2833.55,-73.83 433.86,-68.63 113,-30 103.29,-28.83 92.87,-26.75 83.44,-24.55"/>
<polygon fill="#63b8ff" stroke="#63b8ff" points="3228.97,-77.93 3238.97,-74.44 3228.98,-70.93 3228.97,-77.93"/>
</a>
</g>
</g>
<!-- Node3 -->
<g id="Node000003" class="node">
<title>Node3</title>
<g id="a_Node000003"><a xlink:href="pluma-app_8c.html" target="_top" xlink:title=" ">
<polygon fill="white" stroke="#666666" points="199.5,-24.5 122.5,-24.5 122.5,-5.5 199.5,-5.5 199.5,-24.5"/>
<text text-anchor="middle" x="161" y="-12.5" font-family="Helvetica,sans-Serif" font-size="10.00">pluma&#45;app.c</text>
</a>
</g>
</g>
<!-- Node1&#45;&gt;Node3 -->
<g id="edge2_Node000001_Node000003" class="edge">
<title>Node1&#45;&gt;Node3</title>
<g id="a_edge2_Node000001_Node000003"><a xlink:title=" ">
<path fill="none" stroke="#63b8ff" d="M3228.73,-74.61C2839.54,-75.3 517.4,-77.39 208,-30 200.43,-28.84 192.37,-26.77 185.1,-24.56"/>
<polygon fill="#63b8ff" stroke="#63b8ff" points="3228.9,-78.11 3238.89,-74.6 3228.89,-71.11 3228.9,-78.11"/>
</a>
</g>
</g>
<!-- Node4 -->
<g id="Node000004" class="node">
<title>Node4</title>
<g id="a_Node000004"><a xlink:href="pluma-application_8c.html" target="_top" xlink:title=" ">
<polygon fill="white" stroke="#666666" points="330.5,-24.5 217.5,-24.5 217.5,-5.5 330.5,-5.5 330.5,-24.5"/>
<text text-anchor="middle" x="274" y="-12.5" font-family="Helvetica,sans-Serif" font-size="10.00">pluma&#45;application.c</text>
</a>
</g>
</g>
<!-- Node1&#45;&gt;Node4 -->
<g id="edge3_Node000001_Node000004" class="edge">
<title>Node1&#45;&gt;Node4</title>
<g id="a_edge3_Node000001_Node000004"><a xlink:title=" ">
<path fill="none" stroke="#63b8ff" d="M3228.78,-74.31C2849.58,-72.92 637.07,-63.43 340,-30 329.52,-28.82 318.26,-26.74 308.05,-24.54"/>
<polygon fill="#63b8ff" stroke="#63b8ff" points="3228.93,-77.81 3238.94,-74.35 3228.96,-70.81 3228.93,-77.81"/>
</a>
</g>
</g>
<!-- Node5 -->
<g id="Node000005" class="node">
<title>Node5</title>
<g id="a_Node000005"><a xlink:href="pluma-bookmarks-plugin_8c.html" target="_top" xlink:title=" ">
<polygon fill="white" stroke="#666666" points="497,-24.5 349,-24.5 349,-5.5 497,-5.5 497,-24.5"/>
<text text-anchor="middle" x="423" y="-12.5" font-family="Helvetica,sans-Serif" font-size="10.00">pluma&#45;bookmarks&#45;plugin.c</text>
</a>
</g>
</g>
<!-- Node1&#45;&gt;Node5 -->
<g id="edge4_Node000001_Node000005" class="edge">
<title>Node1&#45;&gt;Node5</title>
<g id="a_edge4_Node000001_Node000005"><a xlink:title=" ">
<path fill="none" stroke="#63b8ff" d="M3228.75,-74.12C2862.11,-71.51 786.1,-55.72 506,-30 492.9,-28.8 478.76,-26.71 465.92,-24.51"/>
<polygon fill="#63b8ff" stroke="#63b8ff" points="3228.83,-77.62 3238.85,-74.19 3228.88,-70.62 3228.83,-77.62"/>
</a>
</g>
</g>
<!-- Node6 -->
<g id="Node000006" class="node">
<title>Node6</title>
<g id="a_Node000006"><a xlink:href="pluma-commands-documents_8c.html" target="_top" xlink:title=" ">
<polygon fill="white" stroke="#666666" points="686.5,-24.5 515.5,-24.5 515.5,-5.5 686.5,-5.5 686.5,-24.5"/>
<text text-anchor="middle" x="601" y="-12.5" font-family="Helvetica,sans-Serif" font-size="10.00">pluma&#45;commands&#45;documents.c</text>
</a>
</g>
</g>
<!-- Node1&#45;&gt;Node6 -->
<g id="edge5_Node000001_Node000006" class="edge">
<title>Node1&#45;&gt;Node6</title>
<g id="a_edge5_Node000001_Node000006"><a xlink:title=" ">
<path fill="none" stroke="#63b8ff" d="M3228.49,-74.52C2900.5,-74.51 1212.72,-72.34 696,-30 681.21,-28.79 665.22,-26.73 650.66,-24.55"/>
<polygon fill="#63b8ff" stroke="#63b8ff" points="3228.69,-78.02 3238.69,-74.52 3228.69,-71.02 3228.69,-78.02"/>
</a>
</g>
</g>
<!-- Node7 -->
<g id="Node000007" class="node">
<title>Node7</title>
<g id="a_Node000007"><a xlink:href="pluma-commands-edit_8c.html" target="_top" xlink:title=" ">
<polygon fill="white" stroke="#666666" points="841,-24.5 705,-24.5 705,-5.5 841,-5.5 841,-24.5"/>
<text text-anchor="middle" x="773" y="-12.5" font-family="Helvetica,sans-Serif" font-size="10.00">pluma&#45;commands&#45;edit.c</text>
</a>
</g>
</g>
<!-- Node1&#45;&gt;Node7 -->
<g id="edge6_Node000001_Node000007" class="edge">
<title>Node1&#45;&gt;Node7</title>
<g id="a_edge6_Node000001_Node000007"><a xlink:title=" ">
<path fill="none" stroke="#63b8ff" d="M3228.29,-74.71C2911.42,-75.69 1333.42,-78.05 850,-30 837.97,-28.8 824.99,-26.75 813.19,-24.57"/>
<polygon fill="#63b8ff" stroke="#63b8ff" points="3228.6,-78.2 3238.59,-74.67 3228.58,-71.2 3228.6,-78.2"/>
</a>
</g>
</g>
<!-- Node8 -->
<g id="Node000008" class="node">
<title>Node8</title>
<g id="a_Node000008"><a xlink:href="pluma-commands-file-print_8c.html" target="_top" xlink:title=" ">
<polygon fill="white" stroke="#666666" points="983,-30 859,-30 859,0 983,0 983,-30"/>
<text text-anchor="start" x="867" y="-18" font-family="Helvetica,sans-Serif" font-size="10.00">pluma&#45;commands&#45;file</text>
<text text-anchor="middle" x="921" y="-7" font-family="Helvetica,sans-Serif" font-size="10.00">&#45;print.c</text>
</a>
</g>
</g>
<!-- Node1&#45;&gt;Node8 -->
<g id="edge7_Node000001_Node000008" class="edge">
<title>Node1&#45;&gt;Node8</title>
<g id="a_edge7_Node000001_Node000008"><a xlink:title=" ">
<path fill="none" stroke="#63b8ff" d="M3228.64,-74.74C2923.64,-75.87 1445.4,-78.72 992,-30 989.13,-29.69 986.2,-29.32 983.24,-28.91"/>
<polygon fill="#63b8ff" stroke="#63b8ff" points="3229.01,-78.24 3238.99,-74.7 3228.98,-71.24 3229.01,-78.24"/>
</a>
</g>
</g>
<!-- Node9 -->
<g id="Node000009" class="node">
<title>Node9</title>
<g id="a_Node000009"><a xlink:href="pluma-commands-file_8c.html" target="_top" xlink:title=" ">
<polygon fill="white" stroke="#666666" points="1133,-24.5 1001,-24.5 1001,-5.5 1133,-5.5 1133,-24.5"/>
<text text-anchor="middle" x="1067" y="-12.5" font-family="Helvetica,sans-Serif" font-size="10.00">pluma&#45;commands&#45;file.c</text>
</a>
</g>
</g>
<!-- Node1&#45;&gt;Node9 -->
<g id="edge8_Node000001_Node000009" class="edge">
<title>Node1&#45;&gt;Node9</title>
<g id="a_edge8_Node000001_Node000009"><a xlink:title=" ">
<path fill="none" stroke="#63b8ff" d="M3228.57,-74.58C2935.5,-74.81 1564.13,-73.49 1142,-30 1130.27,-28.79 1117.64,-26.73 1106.14,-24.56"/>
<polygon fill="#63b8ff" stroke="#63b8ff" points="3228.94,-78.08 3238.93,-74.57 3228.93,-71.08 3228.94,-78.08"/>
</a>
</g>
</g>
<!-- Node10 -->
<g id="Node000010" class="node">
<title>Node10</title>
<g id="a_Node000010"><a xlink:href="pluma-commands-help_8c.html" target="_top" xlink:title=" ">
<polygon fill="white" stroke="#666666" points="1289,-24.5 1151,-24.5 1151,-5.5 1289,-5.5 1289,-24.5"/>
<text text-anchor="middle" x="1220" y="-12.5" font-family="Helvetica,sans-Serif" font-size="10.00">pluma&#45;commands&#45;help.c</text>
</a>
</g>
</g>
<!-- Node1&#45;&gt;Node10 -->
<g id="edge9_Node000001_Node000010" class="edge">
<title>Node1&#45;&gt;Node10</title>
<g id="a_edge9_Node000001_Node000010"><a xlink:title=" ">
<path fill="none" stroke="#63b8ff" d="M3228.61,-74.42C2948.66,-73.85 1687.62,-69.09 1298,-30 1285.82,-28.78 1272.68,-26.71 1260.72,-24.54"/>
<polygon fill="#63b8ff" stroke="#63b8ff" points="3228.91,-77.92 3238.92,-74.44 3228.92,-70.92 3228.91,-77.92"/>
</a>
</g>
</g>
<!-- Node11 -->
<g id="Node000011" class="node">
<title>Node11</title>
<g id="a_Node000011"><a xlink:href="pluma-commands-search_8c.html" target="_top" xlink:title=" ">
<polygon fill="white" stroke="#666666" points="1456.5,-24.5 1307.5,-24.5 1307.5,-5.5 1456.5,-5.5 1456.5,-24.5"/>
<text text-anchor="middle" x="1382" y="-12.5" font-family="Helvetica,sans-Serif" font-size="10.00">pluma&#45;commands&#45;search.c</text>
</a>
</g>
</g>
<!-- Node1&#45;&gt;Node11 -->
<g id="edge10_Node000001_Node000011" class="edge">
<title>Node1&#45;&gt;Node11</title>
<g id="a_edge10_Node000001_Node000011"><a xlink:title=" ">
<path fill="none" stroke="#63b8ff" d="M3228.62,-74.21C2963.24,-72.66 1819.91,-64.1 1465,-30 1452.05,-28.76 1438.08,-26.69 1425.35,-24.51"/>
<polygon fill="#63b8ff" stroke="#63b8ff" points="3228.76,-77.71 3238.78,-74.27 3228.8,-70.71 3228.76,-77.71"/>
</a>
</g>
</g>
<!-- Node12 -->
<g id="Node000012" class="node">
<title>Node12</title>
<g id="a_Node000012"><a xlink:href="pluma-commands-view_8c.html" target="_top" xlink:title=" ">
<polygon fill="white" stroke="#666666" points="1613.5,-24.5 1474.5,-24.5 1474.5,-5.5 1613.5,-5.5 1613.5,-24.5"/>
<text text-anchor="middle" x="1544" y="-12.5" font-family="Helvetica,sans-Serif" font-size="10.00">pluma&#45;commands&#45;view.c</text>
</a>
</g>
</g>
<!-- Node1&#45;&gt;Node12 -->
<g id="edge11_Node000001_Node000012" class="edge">
<title>Node1&#45;&gt;Node12</title>
<g id="a_edge11_Node000001_Node000012"><a xlink:title=" ">
<path fill="none" stroke="#63b8ff" d="M3228.6,-74.14C2977.43,-72.34 1944,-63.02 1622,-30 1609.82,-28.75 1596.68,-26.68 1584.72,-24.51"/>
<polygon fill="#63b8ff" stroke="#63b8ff" points="3228.91,-77.64 3238.93,-74.21 3228.96,-70.64 3228.91,-77.64"/>
</a>
</g>
</g>
<!-- Node13 -->
<g id="Node000013" class="node">
<title>Node13</title>
<g id="a_Node000013"><a xlink:href="pluma-debug_8c.html" target="_top" xlink:title=" ">
<polygon fill="white" stroke="#666666" points="1720.5,-24.5 1631.5,-24.5 1631.5,-5.5 1720.5,-5.5 1720.5,-24.5"/>
<text text-anchor="middle" x="1676" y="-12.5" font-family="Helvetica,sans-Serif" font-size="10.00">pluma&#45;debug.c</text>
</a>
</g>
</g>
<!-- Node1&#45;&gt;Node13 -->
<g id="edge12_Node000001_Node000013" class="edge">
<title>Node1&#45;&gt;Node13</title>
<g id="a_edge12_Node000001_Node000013"><a xlink:title=" ">
<path fill="none" stroke="#63b8ff" d="M3228.59,-74.62C2987.35,-74.87 2027.29,-73.08 1729,-30 1720.62,-28.79 1711.66,-26.73 1703.53,-24.55"/>
<polygon fill="#63b8ff" stroke="#63b8ff" points="3228.88,-78.12 3238.87,-74.61 3228.87,-71.12 3228.88,-78.12"/>
</a>
</g>
</g>
<!-- Node14 -->
<g id="Node000014" class="node">
<title>Node14</title>
<g id="a_Node000014"><a xlink:href="pluma-docinfo-plugin_8c.html" target="_top" xlink:title=" ">
<polygon fill="white" stroke="#666666" points="1867.5,-24.5 1738.5,-24.5 1738.5,-5.5 1867.5,-5.5 1867.5,-24.5"/>
<text text-anchor="middle" x="1803" y="-12.5" font-family="Helvetica,sans-Serif" font-size="10.00">pluma&#45;docinfo&#45;plugin.c</text>
</a>
</g>
</g>
<!-- Node1&#45;&gt;Node14 -->
<g id="edge13_Node000001_Node000014" class="edge">
<title>Node1&#45;&gt;Node14</title>
<g id="a_edge13_Node000001_Node000014"><a xlink:title=" ">
<path fill="none" stroke="#63b8ff" d="M3228.46,-73.9C3001.77,-71.26 2145.88,-59.51 1877,-30 1865.56,-28.74 1853.24,-26.7 1842,-24.55"/>
<polygon fill="#63b8ff" stroke="#63b8ff" points="3228.74,-77.4 3238.78,-74.02 3228.82,-70.4 3228.74,-77.4"/>
</a>
</g>
</g>
<!-- Node15 -->
<g id="Node000015" class="node">
<title>Node15</title>
<g id="a_Node000015"><a xlink:href="pluma-document-loader_8c.html" target="_top" xlink:title=" ">
<polygon fill="white" stroke="#666666" points="2028,-24.5 1886,-24.5 1886,-5.5 2028,-5.5 2028,-24.5"/>
<text text-anchor="middle" x="1957" y="-12.5" font-family="Helvetica,sans-Serif" font-size="10.00">pluma&#45;document&#45;loader.c</text>
</a>
</g>
</g>
<!-- Node1&#45;&gt;Node15 -->
<g id="edge14_Node000001_Node000015" class="edge">
<title>Node1&#45;&gt;Node15</title>
<g id="a_edge14_Node000001_Node000015"><a xlink:title=" ">
<path fill="none" stroke="#63b8ff" d="M3228.67,-73.54C3018.97,-69.74 2273.11,-54.75 2037,-30 2024.66,-28.71 2011.35,-26.65 1999.2,-24.5"/>
<polygon fill="#63b8ff" stroke="#63b8ff" points="3228.77,-77.04 3238.83,-73.72 3228.89,-70.04 3228.77,-77.04"/>
</a>
</g>
</g>
<!-- Node16 -->
<g id="Node000016" class="node">
<title>Node16</title>
<g id="a_Node000016"><a xlink:href="pluma-document-saver_8c.html" target="_top" xlink:title=" ">
<polygon fill="white" stroke="#666666" points="2184,-24.5 2046,-24.5 2046,-5.5 2184,-5.5 2184,-24.5"/>
<text text-anchor="middle" x="2115" y="-12.5" font-family="Helvetica,sans-Serif" font-size="10.00">pluma&#45;document&#45;saver.c</text>
</a>
</g>
</g>
<!-- Node1&#45;&gt;Node16 -->
<g id="edge15_Node000001_Node000016" class="edge">
<title>Node1&#45;&gt;Node16</title>
<g id="a_edge15_Node000001_Node000016"><a xlink:title=" ">
<path fill="none" stroke="#63b8ff" d="M3228.78,-74.91C3068.3,-75.53 2588.29,-73.33 2193,-30 2181.1,-28.7 2168.28,-26.66 2156.54,-24.54"/>
<polygon fill="#63b8ff" stroke="#63b8ff" points="3228.9,-78.41 3238.89,-74.87 3228.87,-71.41 3228.9,-78.41"/>
</a>
</g>
</g>
<!-- Node17 -->
<g id="Node000017" class="node">
<title>Node17</title>
<g id="a_Node000017"><a xlink:href="pluma-document_8c.html" target="_top" xlink:title=" ">
<polygon fill="white" stroke="#666666" points="2310,-24.5 2202,-24.5 2202,-5.5 2310,-5.5 2310,-24.5"/>
<text text-anchor="middle" x="2256" y="-12.5" font-family="Helvetica,sans-Serif" font-size="10.00">pluma&#45;document.c</text>
</a>
</g>
</g>
<!-- Node1&#45;&gt;Node17 -->
<g id="edge16_Node000001_Node000017" class="edge">
<title>Node1&#45;&gt;Node17</title>
<g id="a_edge16_Node000001_Node000017"><a xlink:title=" ">
<path fill="none" stroke="#63b8ff" d="M3228.63,-73.2C3051,-68.85 2496.77,-53.67 2319,-30 2309.34,-28.71 2298.97,-26.68 2289.48,-24.57"/>
<polygon fill="#63b8ff" stroke="#63b8ff" points="3228.71,-76.71 3238.79,-73.45 3228.88,-69.71 3228.71,-76.71"/>
</a>
</g>
</g>
<!-- Node18 -->
<g id="Node000018" class="node">
<title>Node18</title>
<g id="a_Node000018"><a xlink:href="pluma-encodings-dialog_8c.html" target="_top" xlink:title=" ">
<polygon fill="white" stroke="#666666" points="2471.5,-24.5 2328.5,-24.5 2328.5,-5.5 2471.5,-5.5 2471.5,-24.5"/>
<text text-anchor="middle" x="2400" y="-12.5" font-family="Helvetica,sans-Serif" font-size="10.00">pluma&#45;encodings&#45;dialog.c</text>
</a>
</g>
</g>
<!-- Node1&#45;&gt;Node18 -->
<g id="edge17_Node000001_Node000018" class="edge">
<title>Node1&#45;&gt;Node18</title>
<g id="a_edge17_Node000001_Node000018"><a xlink:title=" ">
<path fill="none" stroke="#63b8ff" d="M3228.8,-73.69C3098.22,-71.27 2760.25,-62.16 2480,-30 2468.09,-28.63 2455.27,-26.63 2443.46,-24.57"/>
<polygon fill="#63b8ff" stroke="#63b8ff" points="3228.89,-77.19 3238.95,-73.87 3229.02,-70.19 3228.89,-77.19"/>
</a>
</g>
</g>
<!-- Node19 -->
<g id="Node000019" class="node">
<title>Node19</title>
<g id="a_Node000019"><a xlink:href="pluma-file-browser-plugin_8c.html" target="_top" xlink:title=" ">
<polygon fill="white" stroke="#666666" points="2598.5,-30 2489.5,-30 2489.5,0 2598.5,0 2598.5,-30"/>
<text text-anchor="start" x="2497.5" y="-18" font-family="Helvetica,sans-Serif" font-size="10.00">pluma&#45;file&#45;browser</text>
<text text-anchor="middle" x="2544" y="-7" font-family="Helvetica,sans-Serif" font-size="10.00">&#45;plugin.c</text>
</a>
</g>
</g>
<!-- Node1&#45;&gt;Node19 -->
<g id="edge18_Node000001_Node000019" class="edge">
<title>Node1&#45;&gt;Node19</title>
<g id="a_edge18_Node000001_Node000019"><a xlink:title=" ">
<path fill="none" stroke="#63b8ff" d="M3228.63,-73.65C3112.84,-71.27 2836.91,-62.39 2608,-30 2604.96,-29.57 2601.85,-29.07 2598.72,-28.53"/>
<polygon fill="#63b8ff" stroke="#63b8ff" points="3228.6,-77.15 3238.67,-73.85 3228.74,-70.16 3228.6,-77.15"/>
</a>
</g>
</g>
<!-- Node20 -->
<g id="Node000020" class="node">
<title>Node20</title>
<g id="a_Node000020"><a xlink:href="pluma-file-chooser-dialog_8c.html" target="_top" xlink:title=" ">
<polygon fill="white" stroke="#666666" points="2725,-30 2617,-30 2617,0 2725,0 2725,-30"/>
<text text-anchor="start" x="2625" y="-18" font-family="Helvetica,sans-Serif" font-size="10.00">pluma&#45;file&#45;chooser</text>
<text text-anchor="middle" x="2671" y="-7" font-family="Helvetica,sans-Serif" font-size="10.00">&#45;dialog.c</text>
</a>
</g>
</g>
<!-- Node1&#45;&gt;Node20 -->
<g id="edge19_Node000001_Node000020" class="edge">
<title>Node1&#45;&gt;Node20</title>
<g id="a_edge19_Node000001_Node000020"><a xlink:title=" ">
<path fill="none" stroke="#63b8ff" d="M3228.73,-72.55C3129.27,-68.48 2913.78,-57.12 2734,-30 2731.12,-29.57 2728.17,-29.07 2725.21,-28.54"/>
<polygon fill="#63b8ff" stroke="#63b8ff" points="3228.71,-76.05 3238.84,-72.96 3228.99,-69.06 3228.71,-76.05"/>
</a>
</g>
</g>
<!-- Node21 -->
<g id="Node000021" class="node">
<title>Node21</title>
<g id="a_Node000021"><a xlink:href="pluma-language-manager_8c.html" target="_top" xlink:title=" ">
<polygon fill="white" stroke="#666666" points="2894.5,-24.5 2743.5,-24.5 2743.5,-5.5 2894.5,-5.5 2894.5,-24.5"/>
<text text-anchor="middle" x="2819" y="-12.5" font-family="Helvetica,sans-Serif" font-size="10.00">pluma&#45;language&#45;manager.c</text>
</a>
</g>
</g>
<!-- Node1&#45;&gt;Node21 -->
<g id="edge20_Node000001_Node000021" class="edge">
<title>Node1&#45;&gt;Node21</title>
<g id="a_edge20_Node000001_Node000021"><a xlink:title=" ">
<path fill="none" stroke="#63b8ff" d="M3228.69,-68.9C3154.46,-61.18 3018.56,-46.37 2903,-30 2891.58,-28.38 2879.32,-26.45 2867.8,-24.55"/>
<polygon fill="#63b8ff" stroke="#63b8ff" points="3228.44,-72.39 3238.75,-69.94 3229.16,-65.43 3228.44,-72.39"/>
</a>
</g>
</g>
<!-- Node22 -->
<g id="Node000022" class="node">
<title>Node22</title>
<g id="a_Node000022"><a xlink:href="pluma-metadata-manager_8c.html" target="_top" xlink:title=" ">
<polygon fill="white" stroke="#666666" points="3065.5,-24.5 2912.5,-24.5 2912.5,-5.5 3065.5,-5.5 3065.5,-24.5"/>
<text text-anchor="middle" x="2989" y="-12.5" font-family="Helvetica,sans-Serif" font-size="10.00">pluma&#45;metadata&#45;manager.c</text>
</a>
</g>
</g>
<!-- Node1&#45;&gt;Node22 -->
<g id="edge21_Node000001_Node000022" class="edge">
<title>Node1&#45;&gt;Node22</title>
<g id="a_edge21_Node000001_Node000022"><a xlink:title=" ">
<path fill="none" stroke="#63b8ff" d="M3231.22,-64.03C3174.29,-52.74 3084.73,-34.98 3031.95,-24.52"/>
<polygon fill="#63b8ff" stroke="#63b8ff" points="3230.61,-67.48 3241.1,-65.99 3231.98,-60.62 3230.61,-67.48"/>
</a>
</g>
</g>
<!-- Node23 -->
<g id="Node000023" class="node">
<title>Node23</title>
<g id="a_Node000023"><a xlink:href="pluma-modeline-plugin_8c.html" target="_top" xlink:title=" ">
<polygon fill="white" stroke="#666666" points="3222.5,-24.5 3083.5,-24.5 3083.5,-5.5 3222.5,-5.5 3222.5,-24.5"/>
<text text-anchor="middle" x="3153" y="-12.5" font-family="Helvetica,sans-Serif" font-size="10.00">pluma&#45;modeline&#45;plugin.c</text>
</a>
</g>
</g>
<!-- Node1&#45;&gt;Node23 -->
<g id="edge22_Node000001_Node000023" class="edge">
<title>Node1&#45;&gt;Node23</title>
<g id="a_edge22_Node000001_Node000023"><a xlink:title=" ">
<path fill="none" stroke="#63b8ff" d="M3255.52,-61.78C3230.24,-50.49 3194.01,-34.31 3172.07,-24.52"/>
<polygon fill="#63b8ff" stroke="#63b8ff" points="3254.39,-65.11 3264.95,-65.99 3257.25,-58.72 3254.39,-65.11"/>
</a>
</g>
</g>
<!-- Node24 -->
<g id="Node000024" class="node">
<title>Node24</title>
<g id="a_Node000024"><a xlink:href="pluma-panel_8c.html" target="_top" xlink:title=" ">
<polygon fill="white" stroke="#666666" points="3327,-24.5 3241,-24.5 3241,-5.5 3327,-5.5 3327,-24.5"/>
<text text-anchor="middle" x="3284" y="-12.5" font-family="Helvetica,sans-Serif" font-size="10.00">pluma&#45;panel.c</text>
</a>
</g>
</g>
<!-- Node1&#45;&gt;Node24 -->
<g id="edge23_Node000001_Node000024" class="edge">
<title>Node1&#45;&gt;Node24</title>
<g id="a_edge23_Node000001_Node000024"><a xlink:title=" ">
<path fill="none" stroke="#63b8ff" d="M3284,-55.66C3284,-45.24 3284,-32.8 3284,-24.67"/>
<polygon fill="#63b8ff" stroke="#63b8ff" points="3280.5,-55.87 3284,-65.87 3287.5,-55.87 3280.5,-55.87"/>
</a>
</g>
</g>
<!-- Node25 -->
<g id="Node000025" class="node">
<title>Node25</title>
<g id="a_Node000025"><a xlink:href="pluma-plugin_8c.html" target="_top" xlink:title=" ">
<polygon fill="white" stroke="#666666" points="3434.5,-24.5 3345.5,-24.5 3345.5,-5.5 3434.5,-5.5 3434.5,-24.5"/>
<text text-anchor="middle" x="3390" y="-12.5" font-family="Helvetica,sans-Serif" font-size="10.00">pluma&#45;plugin.c</text>
</a>
</g>
</g>
<!-- Node1&#45;&gt;Node25 -->
<g id="edge24_Node000001_Node000025" class="edge">
<title>Node1&#45;&gt;Node25</title>
<g id="a_edge24_Node000001_Node000025"><a xlink:title=" ">
<path fill="none" stroke="#63b8ff" d="M3308.6,-60.92C3328.86,-49.74 3356.97,-34.23 3374.3,-24.67"/>
<polygon fill="#63b8ff" stroke="#63b8ff" points="3306.7,-57.97 3299.64,-65.87 3310.09,-64.1 3306.7,-57.97"/>
</a>
</g>
</g>
<!-- Node26 -->
<g id="Node000026" class="node">
<title>Node26</title>
<g id="a_Node000026"><a xlink:href="pluma-plugins-engine_8c.html" target="_top" xlink:title=" ">
<polygon fill="white" stroke="#666666" points="3583.5,-24.5 3452.5,-24.5 3452.5,-5.5 3583.5,-5.5 3583.5,-24.5"/>
<text text-anchor="middle" x="3518" y="-12.5" font-family="Helvetica,sans-Serif" font-size="10.00">pluma&#45;plugins&#45;engine.c</text>
</a>
</g>
</g>
<!-- Node1&#45;&gt;Node26 -->
<g id="edge25_Node000001_Node000026" class="edge">
<title>Node1&#45;&gt;Node26</title>
<g id="a_edge25_Node000001_Node000026"><a xlink:title=" ">
<path fill="none" stroke="#63b8ff" d="M3327.85,-63.54C3373.08,-52.23 3442.67,-34.83 3483.93,-24.52"/>
<polygon fill="#63b8ff" stroke="#63b8ff" points="3326.88,-60.17 3318.03,-65.99 3328.58,-66.96 3326.88,-60.17"/>
</a>
</g>
</g>
<!-- Node27 -->
<g id="Node000027" class="node">
<title>Node27</title>
<g id="a_Node000027"><a xlink:href="pluma-preferences-dialog_8c.html" target="_top" xlink:title=" ">
<polygon fill="white" stroke="#666666" points="3752.5,-24.5 3601.5,-24.5 3601.5,-5.5 3752.5,-5.5 3752.5,-24.5"/>
<text text-anchor="middle" x="3677" y="-12.5" font-family="Helvetica,sans-Serif" font-size="10.00">pluma&#45;preferences&#45;dialog.c</text>
</a>
</g>
</g>
<!-- Node1&#45;&gt;Node27 -->
<g id="edge26_Node000001_Node000027" class="edge">
<title>Node1&#45;&gt;Node27</title>
<g id="a_edge26_Node000001_Node000027"><a xlink:title=" ">
<path fill="none" stroke="#63b8ff" d="M3339.01,-66.95C3400.85,-58.38 3504.22,-43.79 3593,-30 3603.96,-28.3 3615.7,-26.39 3626.84,-24.55"/>
<polygon fill="#63b8ff" stroke="#63b8ff" points="3338.51,-63.49 3329.08,-68.33 3339.46,-70.42 3338.51,-63.49"/>
</a>
</g>
</g>
<!-- Node28 -->
<g id="Node000028" class="node">
<title>Node28</title>
<g id="a_Node000028"><a xlink:href="pluma-print-job_8c.html" target="_top" xlink:title=" ">
<polygon fill="white" stroke="#666666" points="3871.5,-24.5 3770.5,-24.5 3770.5,-5.5 3871.5,-5.5 3871.5,-24.5"/>
<text text-anchor="middle" x="3821" y="-12.5" font-family="Helvetica,sans-Serif" font-size="10.00">pluma&#45;print&#45;job.c</text>
</a>
</g>
</g>
<!-- Node1&#45;&gt;Node28 -->
<g id="edge27_Node000001_Node000028" class="edge">
<title>Node1&#45;&gt;Node28</title>
<g id="a_edge27_Node000001_Node000028"><a xlink:title=" ">
<path fill="none" stroke="#63b8ff" d="M3339.25,-71.88C3428.59,-67.07 3610.11,-54.96 3762,-30 3770.73,-28.57 3780.08,-26.57 3788.71,-24.52"/>
<polygon fill="#63b8ff" stroke="#63b8ff" points="3338.88,-68.39 3329.08,-72.41 3339.25,-75.38 3338.88,-68.39"/>
</a>
</g>
</g>
<!-- Node29 -->
<g id="Node000029" class="node">
<title>Node29</title>
<g id="a_Node000029"><a xlink:href="pluma-quickhighlight-plugin_8c.html" target="_top" xlink:title=" ">
<polygon fill="white" stroke="#666666" points="4010,-30 3890,-30 3890,0 4010,0 4010,-30"/>
<text text-anchor="start" x="3898" y="-18" font-family="Helvetica,sans-Serif" font-size="10.00">pluma&#45;quickhighlight</text>
<text text-anchor="middle" x="3950" y="-7" font-family="Helvetica,sans-Serif" font-size="10.00">&#45;plugin.c</text>
</a>
</g>
</g>
<!-- Node1&#45;&gt;Node29 -->
<g id="edge28_Node000001_Node000029" class="edge">
<title>Node1&#45;&gt;Node29</title>
<g id="a_edge28_Node000001_Node000029"><a xlink:title=" ">
<path fill="none" stroke="#63b8ff" d="M3339.25,-72.7C3444.9,-68.76 3682.72,-57.39 3881,-30 3883.91,-29.6 3886.87,-29.15 3889.87,-28.66"/>
<polygon fill="#63b8ff" stroke="#63b8ff" points="3339,-69.21 3329.14,-73.07 3339.26,-76.21 3339,-69.21"/>
</a>
</g>
</g>
<!-- Node30 -->
<g id="Node000030" class="node">
<title>Node30</title>
<g id="a_Node000030"><a xlink:href="pluma-session_8c.html" target="_top" xlink:title=" ">
<polygon fill="white" stroke="#666666" points="4124,-24.5 4028,-24.5 4028,-5.5 4124,-5.5 4124,-24.5"/>
<text text-anchor="middle" x="4076" y="-12.5" font-family="Helvetica,sans-Serif" font-size="10.00">pluma&#45;session.c</text>
</a>
</g>
</g>
<!-- Node1&#45;&gt;Node30 -->
<g id="edge29_Node000001_Node000030" class="edge">
<title>Node1&#45;&gt;Node30</title>
<g id="a_edge29_Node000001_Node000030"><a xlink:title=" ">
<path fill="none" stroke="#63b8ff" d="M3339.32,-74.54C3462.27,-73.9 3767.24,-68.22 4019,-30 4027.76,-28.67 4037.16,-26.63 4045.73,-24.51"/>
<polygon fill="#63b8ff" stroke="#63b8ff" points="3339.03,-71.05 3329.04,-74.59 3339.05,-78.05 3339.03,-71.05"/>
</a>
</g>
</g>
<!-- Node31 -->
<g id="Node000031" class="node">
<title>Node31</title>
<g id="a_Node000031"><a xlink:href="pluma-settings_8c.html" target="_top" xlink:title=" ">
<polygon fill="white" stroke="#666666" points="4240,-24.5 4142,-24.5 4142,-5.5 4240,-5.5 4240,-24.5"/>
<text text-anchor="middle" x="4191" y="-12.5" font-family="Helvetica,sans-Serif" font-size="10.00">pluma&#45;settings.c</text>
</a>
</g>
</g>
<!-- Node1&#45;&gt;Node31 -->
<g id="edge30_Node000001_Node000031" class="edge">
<title>Node1&#45;&gt;Node31</title>
<g id="a_edge30_Node000001_Node000031"><a xlink:title=" ">
<path fill="none" stroke="#63b8ff" d="M3339.56,-75.12C3475.65,-75.87 3836.2,-73.22 4133,-30 4141.92,-28.7 4151.47,-26.67 4160.2,-24.55"/>
<polygon fill="#63b8ff" stroke="#63b8ff" points="3339.41,-71.62 3329.39,-75.05 3339.37,-78.62 3339.41,-71.62"/>
</a>
</g>
</g>
<!-- Node32 -->
<g id="Node000032" class="node">
<title>Node32</title>
<g id="a_Node000032"><a xlink:href="pluma-smart-charset-converter_8c.html" target="_top" xlink:title=" ">
<polygon fill="white" stroke="#666666" points="4377.5,-30 4258.5,-30 4258.5,0 4377.5,0 4377.5,-30"/>
<text text-anchor="start" x="4266.5" y="-18" font-family="Helvetica,sans-Serif" font-size="10.00">pluma&#45;smart&#45;charset</text>
<text text-anchor="middle" x="4318" y="-7" font-family="Helvetica,sans-Serif" font-size="10.00">&#45;converter.c</text>
</a>
</g>
</g>
<!-- Node1&#45;&gt;Node32 -->
<g id="edge31_Node000001_Node000032" class="edge">
<title>Node1&#45;&gt;Node32</title>
<g id="a_edge31_Node000001_Node000032"><a xlink:title=" ">
<path fill="none" stroke="#63b8ff" d="M3339.64,-74.92C3488.01,-75.41 3905.22,-72.54 4249,-30 4252.03,-29.62 4255.13,-29.19 4258.25,-28.71"/>
<polygon fill="#63b8ff" stroke="#63b8ff" points="3339.44,-71.42 3329.43,-74.88 3339.41,-78.42 3339.44,-71.42"/>
</a>
</g>
</g>
<!-- Node33 -->
<g id="Node000033" class="node">
<title>Node33</title>
<g id="a_Node000033"><a xlink:href="pluma-sort-plugin_8c.html" target="_top" xlink:title=" ">
<polygon fill="white" stroke="#666666" points="4508,-24.5 4396,-24.5 4396,-5.5 4508,-5.5 4508,-24.5"/>
<text text-anchor="middle" x="4452" y="-12.5" font-family="Helvetica,sans-Serif" font-size="10.00">pluma&#45;sort&#45;plugin.c</text>
</a>
</g>
</g>
<!-- Node1&#45;&gt;Node33 -->
<g id="edge32_Node000001_Node000033" class="edge">
<title>Node1&#45;&gt;Node33</title>
<g id="a_edge32_Node000001_Node000033"><a xlink:title=" ">
<path fill="none" stroke="#63b8ff" d="M3339.27,-73.53C3533.04,-69.92 4180.94,-56.15 4387,-30 4397.08,-28.72 4407.91,-26.67 4417.78,-24.52"/>
<polygon fill="#63b8ff" stroke="#63b8ff" points="3338.98,-70.03 3329.04,-73.72 3339.11,-77.03 3338.98,-70.03"/>
</a>
</g>
</g>
<!-- Node34 -->
<g id="Node000034" class="node">
<title>Node34</title>
<g id="a_Node000034"><a xlink:href="pluma-spell-checker-language_8c.html" target="_top" xlink:title=" ">
<polygon fill="white" stroke="#666666" points="4642,-30 4526,-30 4526,0 4642,0 4642,-30"/>
<text text-anchor="start" x="4534" y="-18" font-family="Helvetica,sans-Serif" font-size="10.00">pluma&#45;spell&#45;checker</text>
<text text-anchor="middle" x="4584" y="-7" font-family="Helvetica,sans-Serif" font-size="10.00">&#45;language.c</text>
</a>
</g>
</g>
<!-- Node1&#45;&gt;Node34 -->
<g id="edge33_Node000001_Node000034" class="edge">
<title>Node1&#45;&gt;Node34</title>
<g id="a_edge33_Node000001_Node000034"><a xlink:title=" ">
<path fill="none" stroke="#63b8ff" d="M3339.08,-73.76C3547,-70.76 4284.11,-58.33 4517,-30 4519.95,-29.64 4522.96,-29.22 4526,-28.75"/>
<polygon fill="#63b8ff" stroke="#63b8ff" points="3338.96,-70.26 3329.01,-73.9 3339.06,-77.26 3338.96,-70.26"/>
</a>
</g>
</g>
<!-- Node35 -->
<g id="Node000035" class="node">
<title>Node35</title>
<g id="a_Node000035"><a xlink:href="pluma-spell-plugin_8c.html" target="_top" xlink:title=" ">
<polygon fill="white" stroke="#666666" points="4776,-24.5 4660,-24.5 4660,-5.5 4776,-5.5 4776,-24.5"/>
<text text-anchor="middle" x="4718" y="-12.5" font-family="Helvetica,sans-Serif" font-size="10.00">pluma&#45;spell&#45;plugin.c</text>
</a>
</g>
</g>
<!-- Node1&#45;&gt;Node35 -->
<g id="edge34_Node000001_Node000035" class="edge">
<title>Node1&#45;&gt;Node35</title>
<g id="a_edge34_Node000001_Node000035"><a xlink:title=" ">
<path fill="none" stroke="#63b8ff" d="M3339.46,-73.98C3561.98,-71.69 4390.63,-61.2 4651,-30 4661.38,-28.76 4672.54,-26.71 4682.72,-24.57"/>
<polygon fill="#63b8ff" stroke="#63b8ff" points="3339.29,-70.48 3329.32,-74.08 3339.36,-77.48 3339.29,-70.48"/>
</a>
</g>
</g>
<!-- Node36 -->
<g id="Node000036" class="node">
<title>Node36</title>
<g id="a_Node000036"><a xlink:href="pluma-tab_8c.html" target="_top" xlink:title=" ">
<polygon fill="white" stroke="#666666" points="4869.5,-24.5 4794.5,-24.5 4794.5,-5.5 4869.5,-5.5 4869.5,-24.5"/>
<text text-anchor="middle" x="4832" y="-12.5" font-family="Helvetica,sans-Serif" font-size="10.00">pluma&#45;tab.c</text>
</a>
</g>
</g>
<!-- Node1&#45;&gt;Node36 -->
<g id="edge35_Node000001_Node000036" class="edge">
<title>Node1&#45;&gt;Node36</title>
<g id="a_edge35_Node000001_Node000036"><a xlink:title=" ">
<path fill="none" stroke="#63b8ff" d="M3339.07,-74.78C3574.62,-75.68 4498.41,-76.12 4785,-30 4792.4,-28.81 4800.26,-26.78 4807.4,-24.64"/>
<polygon fill="#63b8ff" stroke="#63b8ff" points="3339.04,-71.28 3329.03,-74.74 3339.01,-78.28 3339.04,-71.28"/>
</a>
</g>
</g>
<!-- Node37 -->
<g id="Node000037" class="node">
<title>Node37</title>
<g id="a_Node000037"><a xlink:href="pluma-taglist-plugin-panel_8c.html" target="_top" xlink:title=" ">
<polygon fill="white" stroke="#666666" points="5003,-30 4887,-30 4887,0 5003,0 5003,-30"/>
<text text-anchor="start" x="4895" y="-18" font-family="Helvetica,sans-Serif" font-size="10.00">pluma&#45;taglist&#45;plugin</text>
<text text-anchor="middle" x="4945" y="-7" font-family="Helvetica,sans-Serif" font-size="10.00">&#45;panel.c</text>
</a>
</g>
</g>
<!-- Node1&#45;&gt;Node37 -->
<g id="edge36_Node000001_Node000037" class="edge">
<title>Node1&#45;&gt;Node37</title>
<g id="a_edge36_Node000001_Node000037"><a xlink:title=" ">
<path fill="none" stroke="#63b8ff" d="M3339.2,-74.3C3583.79,-73.22 4571.38,-66.61 4879,-30 4881.56,-29.7 4884.17,-29.34 4886.79,-28.94"/>
<polygon fill="#63b8ff" stroke="#63b8ff" points="3339.11,-70.8 3329.12,-74.35 3339.14,-77.8 3339.11,-70.8"/>
</a>
</g>
</g>
<!-- Node38 -->
<g id="Node000038" class="node">
<title>Node38</title>
<g id="a_Node000038"><a xlink:href="pluma-taglist-plugin-parser_8c.html" target="_top" xlink:title=" ">
<polygon fill="white" stroke="#666666" points="5137,-30 5021,-30 5021,0 5137,0 5137,-30"/>
<text text-anchor="start" x="5029" y="-18" font-family="Helvetica,sans-Serif" font-size="10.00">pluma&#45;taglist&#45;plugin</text>
<text text-anchor="middle" x="5079" y="-7" font-family="Helvetica,sans-Serif" font-size="10.00">&#45;parser.c</text>
</a>
</g>
</g>
<!-- Node1&#45;&gt;Node38 -->
<g id="edge37_Node000001_Node000038" class="edge">
<title>Node1&#45;&gt;Node38</title>
<g id="a_edge37_Node000001_Node000038"><a xlink:title=" ">
<path fill="none" stroke="#63b8ff" d="M3339.53,-74.42C3597.07,-73.82 4676.83,-69.01 5012,-30 5014.83,-29.67 5017.72,-29.28 5020.64,-28.84"/>
<polygon fill="#63b8ff" stroke="#63b8ff" points="3339.29,-70.92 3329.3,-74.44 3339.31,-77.92 3339.29,-70.92"/>
</a>
</g>
</g>
<!-- Node39 -->
<g id="Node000039" class="node">
<title>Node39</title>
<g id="a_Node000039"><a xlink:href="pluma-taglist-plugin_8c.html" target="_top" xlink:title=" ">
<polygon fill="white" stroke="#666666" points="5279,-24.5 5155,-24.5 5155,-5.5 5279,-5.5 5279,-24.5"/>
<text text-anchor="middle" x="5217" y="-12.5" font-family="Helvetica,sans-Serif" font-size="10.00">pluma&#45;taglist&#45;plugin.c</text>
</a>
</g>
</g>
<!-- Node1&#45;&gt;Node39 -->
<g id="edge38_Node000001_Node000039" class="edge">
<title>Node1&#45;&gt;Node39</title>
<g id="a_edge38_Node000001_Node000039"><a xlink:title=" ">
<path fill="none" stroke="#63b8ff" d="M3339.38,-74.45C3608.62,-74.03 4782.62,-69.87 5146,-30 5157.12,-28.78 5169.08,-26.72 5179.97,-24.54"/>
<polygon fill="#63b8ff" stroke="#63b8ff" points="3339.07,-70.95 3329.08,-74.47 3339.08,-77.95 3339.07,-70.95"/>
</a>
</g>
</g>
<!-- Node40 -->
<g id="Node000040" class="node">
<title>Node40</title>
<g id="a_Node000040"><a xlink:href="pluma-time-plugin_8c.html" target="_top" xlink:title=" ">
<polygon fill="white" stroke="#666666" points="5413,-24.5 5297,-24.5 5297,-5.5 5413,-5.5 5413,-24.5"/>
<text text-anchor="middle" x="5355" y="-12.5" font-family="Helvetica,sans-Serif" font-size="10.00">pluma&#45;time&#45;plugin.c</text>
</a>
</g>
</g>
<!-- Node1&#45;&gt;Node40 -->
<g id="edge39_Node000001_Node000040" class="edge">
<title>Node1&#45;&gt;Node40</title>
<g id="a_edge39_Node000001_Node000040"><a xlink:title=" ">
<path fill="none" stroke="#63b8ff" d="M3339.46,-74.65C3621.13,-75.18 4895.23,-75.01 5288,-30 5298.51,-28.8 5309.81,-26.74 5320.08,-24.56"/>
<polygon fill="#63b8ff" stroke="#63b8ff" points="3339.09,-71.15 3329.09,-74.63 3339.08,-78.15 3339.09,-71.15"/>
</a>
</g>
</g>
<!-- Node41 -->
<g id="Node000041" class="node">
<title>Node41</title>
<g id="a_Node000041"><a xlink:href="pluma-trail-save-plugin_8c.html" target="_top" xlink:title=" ">
<polygon fill="white" stroke="#666666" points="5571,-24.5 5431,-24.5 5431,-5.5 5571,-5.5 5571,-24.5"/>
<text text-anchor="middle" x="5501" y="-12.5" font-family="Helvetica,sans-Serif" font-size="10.00">pluma&#45;trail&#45;save&#45;plugin.c</text>
</a>
</g>
</g>
<!-- Node1&#45;&gt;Node41 -->
<g id="edge40_Node000001_Node000041" class="edge">
<title>Node1&#45;&gt;Node41</title>
<g id="a_edge40_Node000001_Node000041"><a xlink:title=" ">
<path fill="none" stroke="#63b8ff" d="M3339.8,-74.51C3633.29,-74.37 5000.69,-71.46 5422,-30 5434.34,-28.79 5447.64,-26.72 5459.76,-24.55"/>
<polygon fill="#63b8ff" stroke="#63b8ff" points="3339.41,-71.01 3329.41,-74.51 3339.42,-78.01 3339.41,-71.01"/>
</a>
</g>
</g>
<!-- Node42 -->
<g id="Node000042" class="node">
<title>Node42</title>
<g id="a_Node000042"><a xlink:href="pluma-utils_8c.html" target="_top" xlink:title=" ">
<polygon fill="white" stroke="#666666" points="5669,-24.5 5589,-24.5 5589,-5.5 5669,-5.5 5669,-24.5"/>
<text text-anchor="middle" x="5629" y="-12.5" font-family="Helvetica,sans-Serif" font-size="10.00">pluma&#45;utils.c</text>
</a>
</g>
</g>
<!-- Node1&#45;&gt;Node42 -->
<g id="edge41_Node000001_Node000042" class="edge">
<title>Node1&#45;&gt;Node42</title>
<g id="a_edge41_Node000001_Node000042"><a xlink:title=" ">
<path fill="none" stroke="#63b8ff" d="M3339.46,-74.28C3668,-72.89 5352.43,-64.12 5580,-30 5587.87,-28.82 5596.27,-26.74 5603.84,-24.54"/>
<polygon fill="#63b8ff" stroke="#63b8ff" points="3339.23,-70.79 3329.24,-74.33 3339.26,-77.78 3339.23,-70.79"/>
</a>
</g>
</g>
<!-- Node43 -->
<g id="Node000043" class="node">
<title>Node43</title>
<g id="a_Node000043"><a xlink:href="pluma-view_8c.html" target="_top" xlink:title=" ">
<polygon fill="white" stroke="#666666" points="5768.5,-24.5 5687.5,-24.5 5687.5,-5.5 5768.5,-5.5 5768.5,-24.5"/>
<text text-anchor="middle" x="5728" y="-12.5" font-family="Helvetica,sans-Serif" font-size="10.00">pluma&#45;view.c</text>
</a>
</g>
</g>
<!-- Node1&#45;&gt;Node43 -->
<g id="edge42_Node000001_Node000043" class="edge">
<title>Node1&#45;&gt;Node43</title>
<g id="a_edge42_Node000001_Node000043"><a xlink:title=" ">
<path fill="none" stroke="#63b8ff" d="M3339.64,-74.31C3676.83,-73.07 5440.11,-64.93 5678,-30 5686.03,-28.82 5694.59,-26.74 5702.32,-24.54"/>
<polygon fill="#63b8ff" stroke="#63b8ff" points="3339.15,-70.82 3329.17,-74.35 3339.18,-77.82 3339.15,-70.82"/>
</a>
</g>
</g>
<!-- Node44 -->
<g id="Node000044" class="node">
<title>Node44</title>
<g id="a_Node000044"><a xlink:href="pluma-window_8c.html" target="_top" xlink:title=" ">
<polygon fill="white" stroke="#666666" points="5883,-24.5 5787,-24.5 5787,-5.5 5883,-5.5 5883,-24.5"/>
<text text-anchor="middle" x="5835" y="-12.5" font-family="Helvetica,sans-Serif" font-size="10.00">pluma&#45;window.c</text>
</a>
</g>
</g>
<!-- Node1&#45;&gt;Node44 -->
<g id="edge43_Node000001_Node000044" class="edge">
<title>Node1&#45;&gt;Node44</title>
<g id="a_edge43_Node000001_Node000044"><a xlink:title=" ">
<path fill="none" stroke="#63b8ff" d="M3339.48,-74.25C3684.44,-72.61 5529.02,-62.38 5778,-30 5787.09,-28.82 5796.84,-26.74 5805.65,-24.53"/>
<polygon fill="#63b8ff" stroke="#63b8ff" points="3339.23,-70.75 3329.25,-74.3 3339.27,-77.75 3339.23,-70.75"/>
</a>
</g>
</g>
<!-- Node45 -->
<g id="Node000045" class="node">
<title>Node45</title>
<g id="a_Node000045"><a xlink:href="pluma-word-completion-plugin_8c.html" target="_top" xlink:title=" ">
<polygon fill="white" stroke="#666666" points="6035,-30 5901,-30 5901,0 6035,0 6035,-30"/>
<text text-anchor="start" x="5909" y="-18" font-family="Helvetica,sans-Serif" font-size="10.00">pluma&#45;word&#45;completion</text>
<text text-anchor="middle" x="5968" y="-7" font-family="Helvetica,sans-Serif" font-size="10.00">&#45;plugin.c</text>
</a>
</g>
</g>
<!-- Node1&#45;&gt;Node45 -->
<g id="edge44_Node000001_Node000045" class="edge">
<title>Node1&#45;&gt;Node45</title>
<g id="a_edge44_Node000001_Node000045"><a xlink:title=" ">
<path fill="none" stroke="#63b8ff" d="M3339.45,-74.1C3693.38,-71.51 5630.13,-56.17 5892,-30 5894.94,-29.71 5897.93,-29.36 5900.95,-28.97"/>
<polygon fill="#63b8ff" stroke="#63b8ff" points="3339.17,-70.61 3329.2,-74.18 3339.23,-77.61 3339.17,-70.61"/>
</a>
</g>
</g>
<!-- Node46 -->
<g id="Node000046" class="node">
<title>Node46</title>
<g id="a_Node000046"><a xlink:href="pluma_8c.html" target="_top" xlink:title=" ">
<polygon fill="white" stroke="#666666" points="6109,-24.5 6053,-24.5 6053,-5.5 6109,-5.5 6109,-24.5"/>
<text text-anchor="middle" x="6081" y="-12.5" font-family="Helvetica,sans-Serif" font-size="10.00">pluma.c</text>
</a>
</g>
</g>
<!-- Node1&#45;&gt;Node46 -->
<g id="edge45_Node000001_Node000046" class="edge">
<title>Node1&#45;&gt;Node46</title>
<g id="a_edge45_Node000001_Node000046"><a xlink:title=" ">
<path fill="none" stroke="#63b8ff" d="M3339.21,-74.15C3716.72,-71.69 5906.39,-56.31 6044,-30 6050.07,-28.84 6056.45,-26.76 6062.16,-24.56"/>
<polygon fill="#63b8ff" stroke="#63b8ff" points="3339.06,-70.65 3329.09,-74.22 3339.11,-77.65 3339.06,-70.65"/>
</a>
</g>
</g>
</g>
</svg>

<g id="navigator" transform="translate(0 0)" fill="#404254">
  <rect fill="#f2f5e9" fill-opacity="0.5" stroke="#606060" stroke-width=".5" x="0" y="0" width="60" height="60"/>
  <use id="zoomplus" xlink:href="#zoomPlus" x="17" y="9" onmousedown="handleZoom(evt,'in')"/>
  <use id="zoomminus" xlink:href="#zoomMin" x="42" y="9" onmousedown="handleZoom(evt,'out')"/>
  <use id="reset" xlink:href="#resetDef" x="30" y="36" onmousedown="handleReset()"/>
   <use id="arrowup" xlink:href="#arrowUp" x="0" y="0" onmousedown="handlePan(0,-1)"/>
  <use id="arrowright" xlink:href="#arrowRight" x="0" y="0" onmousedown="handlePan(1,0)"/>
  <use id="arrowdown" xlink:href="#arrowDown" x="0" y="0" onmousedown="handlePan(0,1)"/>
  <use id="arrowleft" xlink:href="#arrowLeft" x="0" y="0" onmousedown="handlePan(-1,0)"/>
</g>
<svg viewBox="0 0 15 15" width="100%" height="30px" preserveAspectRatio="xMaxYMin meet">
 <g id="arrow_out" transform="scale(0.3 0.3)">
  <a xlink:href="pluma-debug_8h__dep__incl_org.svg" target="_base">
   <rect id="button" ry="5" rx="5" y="6" x="6" height="38" width="38"
        fill="#f2f5e9" fill-opacity="0.5" stroke="#606060" stroke-width="1.0"/>
   <path id="arrow"
     d="M 11.500037,31.436501 C 11.940474,20.09759 22.043105,11.32322 32.158766,21.979434 L 37.068811,17.246167 C 37.068811,17.246167 37.088388,32 37.088388,32 L 22.160133,31.978069 C 22.160133,31.978069 26.997745,27.140456 26.997745,27.140456 C 18.528582,18.264221 13.291696,25.230495 11.500037,31.436501 z"
     style="fill:#404040;"/>
  </a>
 </g>
</svg>

<style type='text/css'>
<![CDATA[
[data-mouse-over-selected='false'] { opacity: 0.7; }
[data-mouse-over-selected='true']  { opacity: 1.0; }
]]>
</style>
<script type="application/ecmascript"><![CDATA[
document.addEventListener('DOMContentLoaded', (event) => {
  highlightEdges();
  highlightAdjacentNodes();
});
]]></script>
</svg>
