<?xml version="1.0" encoding="UTF-8" standalone="no"?>
<!DOCTYPE svg PUBLIC "-//W3C//DTD SVG 1.1//EN"
 "http://www.w3.org/Graphics/SVG/1.1/DTD/svg11.dtd">
<!-- Generated by graphviz version 2.43.0 (0)
 -->
<!-- Title: pluma&#45;file&#45;browser&#45;plugin.c Pages: 1 -->
<svg width="1822pt" height="489pt"
 viewBox="0.00 0.00 1821.50 489.00" xmlns="http://www.w3.org/2000/svg" xmlns:xlink="http://www.w3.org/1999/xlink">
<g id="graph0" class="graph" transform="scale(1 1) rotate(0) translate(4 485)">
<title>pluma&#45;file&#45;browser&#45;plugin.c</title>
<!-- Node1 -->
<g id="Node000001" class="node">
<title>Node1</title>
<g id="a_Node000001"><a xlink:title=" ">
<polygon fill="#999999" stroke="#666666" points="838,-481 729,-481 729,-451 838,-451 838,-481"/>
<text text-anchor="start" x="737" y="-469" font-family="Helvetica,sans-Serif" font-size="10.00">pluma&#45;file&#45;browser</text>
<text text-anchor="middle" x="783.5" y="-458" font-family="Helvetica,sans-Serif" font-size="10.00">&#45;plugin.c</text>
</a>
</g>
</g>
<!-- Node2 -->
<g id="Node000002" class="node">
<title>Node2</title>
<g id="a_Node000002"><a xlink:title=" ">
<polygon fill="#e0e0e0" stroke="#999999" points="89,-409.5 0,-409.5 0,-390.5 89,-390.5 89,-409.5"/>
<text text-anchor="middle" x="44.5" y="-397.5" font-family="Helvetica,sans-Serif" font-size="10.00">glib/gi18n&#45;lib.h</text>
</a>
</g>
</g>
<!-- Node1&#45;&gt;Node2 -->
<g id="edge1_Node000001_Node000002" class="edge">
<title>Node1&#45;&gt;Node2</title>
<g id="a_edge1_Node000001_Node000002"><a xlink:title=" ">
<path fill="none" stroke="#63b8ff" d="M728.96,-463.94C613.12,-461.04 334.26,-450.63 103.5,-415 97.97,-414.15 92.2,-413.04 86.52,-411.83"/>
<polygon fill="#63b8ff" stroke="#63b8ff" points="86.99,-408.35 76.47,-409.57 85.45,-415.18 86.99,-408.35"/>
</a>
</g>
</g>
<!-- Node3 -->
<g id="Node000003" class="node">
<title>Node3</title>
<g id="a_Node000003"><a xlink:title=" ">
<polygon fill="#e0e0e0" stroke="#999999" points="243,-90.5 184,-90.5 184,-71.5 243,-71.5 243,-90.5"/>
<text text-anchor="middle" x="213.5" y="-78.5" font-family="Helvetica,sans-Serif" font-size="10.00">gio/gio.h</text>
</a>
</g>
</g>
<!-- Node1&#45;&gt;Node3 -->
<g id="edge2_Node000001_Node000003" class="edge">
<title>Node1&#45;&gt;Node3</title>
<g id="a_edge2_Node000001_Node000003"><a xlink:title=" ">
<path fill="none" stroke="#63b8ff" d="M729,-465.88C569.94,-467.01 117.5,-459.29 117.5,-335 117.5,-335 117.5,-335 117.5,-272.5 117.5,-201.41 171.47,-129.83 198.48,-98.46"/>
<polygon fill="#63b8ff" stroke="#63b8ff" points="201.32,-100.52 205.32,-90.71 196.07,-95.89 201.32,-100.52"/>
</a>
</g>
</g>
<!-- Node4 -->
<g id="Node000004" class="node">
<title>Node4</title>
<g id="a_Node000004"><a xlink:title=" ">
<polygon fill="#e0e0e0" stroke="#999999" points="278,-409.5 225,-409.5 225,-390.5 278,-390.5 278,-409.5"/>
<text text-anchor="middle" x="251.5" y="-397.5" font-family="Helvetica,sans-Serif" font-size="10.00">string.h</text>
</a>
</g>
</g>
<!-- Node1&#45;&gt;Node4 -->
<g id="edge3_Node000001_Node000004" class="edge">
<title>Node1&#45;&gt;Node4</title>
<g id="a_edge3_Node000001_Node000004"><a xlink:title=" ">
<path fill="none" stroke="#63b8ff" d="M728.75,-464.29C636.48,-462.03 444.66,-452.74 287.5,-415 285.13,-414.43 282.72,-413.74 280.31,-412.98"/>
<polygon fill="#63b8ff" stroke="#63b8ff" points="281.22,-409.59 270.62,-409.54 278.87,-416.19 281.22,-409.59"/>
</a>
</g>
</g>
<!-- Node5 -->
<g id="Node000005" class="node">
<title>Node5</title>
<g id="a_Node000005"><a xlink:title=" ">
<polygon fill="#e0e0e0" stroke="#999999" points="442.5,-409.5 296.5,-409.5 296.5,-390.5 442.5,-390.5 442.5,-409.5"/>
<text text-anchor="middle" x="369.5" y="-397.5" font-family="Helvetica,sans-Serif" font-size="10.00">libpeas/peas&#45;activatable.h</text>
</a>
</g>
</g>
<!-- Node1&#45;&gt;Node5 -->
<g id="edge4_Node000001_Node000005" class="edge">
<title>Node1&#45;&gt;Node5</title>
<g id="a_edge4_Node000001_Node000005"><a xlink:title=" ">
<path fill="none" stroke="#63b8ff" d="M728.8,-456.77C663.85,-446.97 552.24,-430.02 456.5,-415 448.55,-413.75 440.19,-412.43 431.93,-411.11"/>
<polygon fill="#63b8ff" stroke="#63b8ff" points="432.36,-407.63 421.94,-409.51 431.26,-414.54 432.36,-407.63"/>
</a>
</g>
</g>
<!-- Node6 -->
<g id="Node000006" class="node">
<title>Node6</title>
<g id="a_Node000006"><a xlink:href="pluma-app_8h.html" target="_top" xlink:title=" ">
<polygon fill="white" stroke="#666666" points="904.5,-409.5 792.5,-409.5 792.5,-390.5 904.5,-390.5 904.5,-409.5"/>
<text text-anchor="middle" x="848.5" y="-397.5" font-family="Helvetica,sans-Serif" font-size="10.00">pluma/pluma&#45;app.h</text>
</a>
</g>
</g>
<!-- Node1&#45;&gt;Node6 -->
<g id="edge5_Node000001_Node000006" class="edge">
<title>Node1&#45;&gt;Node6</title>
<g id="a_edge5_Node000001_Node000006"><a xlink:title=" ">
<path fill="none" stroke="#63b8ff" d="M797.93,-450.8C808.06,-440.82 821.63,-427.46 832.16,-417.09"/>
<polygon fill="#63b8ff" stroke="#63b8ff" points="834.85,-419.35 839.52,-409.84 829.94,-414.37 834.85,-419.35"/>
</a>
</g>
</g>
<!-- Node8 -->
<g id="Node000008" class="node">
<title>Node8</title>
<g id="a_Node000008"><a xlink:href="pluma-window_8h.html" target="_top" xlink:title=" ">
<polygon fill="white" stroke="#666666" points="744,-343.5 613,-343.5 613,-324.5 744,-324.5 744,-343.5"/>
<text text-anchor="middle" x="678.5" y="-331.5" font-family="Helvetica,sans-Serif" font-size="10.00">pluma/pluma&#45;window.h</text>
</a>
</g>
</g>
<!-- Node1&#45;&gt;Node8 -->
<g id="edge39_Node000001_Node000008" class="edge">
<title>Node1&#45;&gt;Node8</title>
<g id="a_edge39_Node000001_Node000008"><a xlink:title=" ">
<path fill="none" stroke="#63b8ff" d="M728.91,-457.88C702.38,-451.37 672.77,-438.89 656.5,-415 643.5,-395.91 655.41,-369.36 666.13,-352.18"/>
<polygon fill="#63b8ff" stroke="#63b8ff" points="669.15,-353.96 671.8,-343.7 663.33,-350.07 669.15,-353.96"/>
</a>
</g>
</g>
<!-- Node21 -->
<g id="Node000021" class="node">
<title>Node21</title>
<g id="a_Node000021"><a xlink:href="pluma-commands_8h.html" target="_top" xlink:title=" ">
<polygon fill="white" stroke="#666666" points="1070.5,-409.5 922.5,-409.5 922.5,-390.5 1070.5,-390.5 1070.5,-409.5"/>
<text text-anchor="middle" x="996.5" y="-397.5" font-family="Helvetica,sans-Serif" font-size="10.00">pluma/pluma&#45;commands.h</text>
</a>
</g>
</g>
<!-- Node1&#45;&gt;Node21 -->
<g id="edge34_Node000001_Node000021" class="edge">
<title>Node1&#45;&gt;Node21</title>
<g id="a_edge34_Node000001_Node000021"><a xlink:title=" ">
<path fill="none" stroke="#63b8ff" d="M830.24,-450.95C868.75,-439.38 922.67,-423.18 958.54,-412.41"/>
<polygon fill="#63b8ff" stroke="#63b8ff" points="959.58,-415.75 968.15,-409.52 957.57,-409.04 959.58,-415.75"/>
</a>
</g>
</g>
<!-- Node22 -->
<g id="Node000022" class="node">
<title>Node22</title>
<g id="a_Node000022"><a xlink:href="pluma-debug_8h.html" target="_top" xlink:title=" ">
<polygon fill="white" stroke="#666666" points="1594.5,-343.5 1470.5,-343.5 1470.5,-324.5 1594.5,-324.5 1594.5,-343.5"/>
<text text-anchor="middle" x="1532.5" y="-331.5" font-family="Helvetica,sans-Serif" font-size="10.00">pluma/pluma&#45;debug.h</text>
</a>
</g>
</g>
<!-- Node1&#45;&gt;Node22 -->
<g id="edge37_Node000001_Node000022" class="edge">
<title>Node1&#45;&gt;Node22</title>
<g id="a_edge37_Node000001_Node000022"><a xlink:title=" ">
<path fill="none" stroke="#63b8ff" d="M838.21,-464.93C999.06,-464.2 1462.35,-458.35 1513.5,-415 1531,-400.17 1534.02,-372.45 1533.84,-353.85"/>
<polygon fill="#63b8ff" stroke="#63b8ff" points="1537.33,-353.5 1533.41,-343.65 1530.33,-353.79 1537.33,-353.5"/>
</a>
</g>
</g>
<!-- Node23 -->
<g id="Node000023" class="node">
<title>Node23</title>
<g id="a_Node000023"><a xlink:href="pluma-window-activatable_8h.html" target="_top" xlink:title=" ">
<polygon fill="white" stroke="#666666" points="267.5,-349 145.5,-349 145.5,-319 267.5,-319 267.5,-349"/>
<text text-anchor="start" x="153.5" y="-337" font-family="Helvetica,sans-Serif" font-size="10.00">pluma/pluma&#45;window</text>
<text text-anchor="middle" x="206.5" y="-326" font-family="Helvetica,sans-Serif" font-size="10.00">&#45;activatable.h</text>
</a>
</g>
</g>
<!-- Node1&#45;&gt;Node23 -->
<g id="edge40_Node000001_Node000023" class="edge">
<title>Node1&#45;&gt;Node23</title>
<g id="a_edge40_Node000001_Node000023"><a xlink:title=" ">
<path fill="none" stroke="#63b8ff" d="M728.87,-463.5C668.28,-460.1 568.74,-449.23 490.5,-415 470.46,-406.24 471.39,-394.09 451.5,-385 443.49,-381.34 347.2,-362.23 277.76,-348.73"/>
<polygon fill="#63b8ff" stroke="#63b8ff" points="278.21,-345.25 267.72,-346.78 276.87,-352.12 278.21,-345.25"/>
</a>
</g>
</g>
<!-- Node24 -->
<g id="Node000024" class="node">
<title>Node24</title>
<g id="a_Node000024"><a xlink:href="pluma-utils_8h.html" target="_top" xlink:title=" ">
<polygon fill="white" stroke="#666666" points="1511,-156.5 1396,-156.5 1396,-137.5 1511,-137.5 1511,-156.5"/>
<text text-anchor="middle" x="1453.5" y="-144.5" font-family="Helvetica,sans-Serif" font-size="10.00">pluma/pluma&#45;utils.h</text>
</a>
</g>
</g>
<!-- Node1&#45;&gt;Node24 -->
<g id="edge42_Node000001_Node000024" class="edge">
<title>Node1&#45;&gt;Node24</title>
<g id="a_edge42_Node000001_Node000024"><a xlink:title=" ">
<path fill="none" stroke="#63b8ff" d="M838.09,-464.36C983.02,-461.2 1366.5,-442.65 1366.5,-335 1366.5,-335 1366.5,-335 1366.5,-272.5 1366.5,-225.83 1408.09,-184.18 1433.75,-162.92"/>
<polygon fill="#63b8ff" stroke="#63b8ff" points="1436.14,-165.49 1441.77,-156.51 1431.77,-160.02 1436.14,-165.49"/>
</a>
</g>
</g>
<!-- Node26 -->
<g id="Node000026" class="node">
<title>Node26</title>
<g id="a_Node000026"><a xlink:title=" ">
<polygon fill="#e0e0e0" stroke="#999999" points="1198,-415 1089,-415 1089,-385 1198,-385 1198,-415"/>
<text text-anchor="start" x="1097" y="-403" font-family="Helvetica,sans-Serif" font-size="10.00">pluma&#45;file&#45;browser</text>
<text text-anchor="middle" x="1143.5" y="-392" font-family="Helvetica,sans-Serif" font-size="10.00">&#45;enum&#45;types.h</text>
</a>
</g>
</g>
<!-- Node1&#45;&gt;Node26 -->
<g id="edge48_Node000001_Node000026" class="edge">
<title>Node1&#45;&gt;Node26</title>
<g id="a_edge48_Node000001_Node000026"><a xlink:title=" ">
<path fill="none" stroke="#63b8ff" d="M838.2,-456.57C895.62,-447.53 988.75,-432.37 1078.88,-415.06"/>
<polygon fill="#63b8ff" stroke="#63b8ff" points="1079.57,-418.5 1088.72,-413.16 1078.24,-411.62 1079.57,-418.5"/>
</a>
</g>
</g>
<!-- Node27 -->
<g id="Node000027" class="node">
<title>Node27</title>
<g id="a_Node000027"><a xlink:href="pluma-file-browser-plugin_8h.html" target="_top" xlink:title=" ">
<polygon fill="white" stroke="#666666" points="1677,-96 1568,-96 1568,-66 1677,-66 1677,-96"/>
<text text-anchor="start" x="1576" y="-84" font-family="Helvetica,sans-Serif" font-size="10.00">pluma&#45;file&#45;browser</text>
<text text-anchor="middle" x="1622.5" y="-73" font-family="Helvetica,sans-Serif" font-size="10.00">&#45;plugin.h</text>
</a>
</g>
</g>
<!-- Node1&#45;&gt;Node27 -->
<g id="edge49_Node000001_Node000027" class="edge">
<title>Node1&#45;&gt;Node27</title>
<g id="a_edge49_Node000001_Node000027"><a xlink:title=" ">
<path fill="none" stroke="#63b8ff" d="M838,-463.46C1000.11,-458.6 1471.91,-442.26 1535.5,-415 1583.78,-394.3 1622.5,-387.53 1622.5,-335 1622.5,-335 1622.5,-335 1622.5,-212 1622.5,-175.07 1622.5,-132.24 1622.5,-106.14"/>
<polygon fill="#63b8ff" stroke="#63b8ff" points="1626,-106.04 1622.5,-96.04 1619,-106.04 1626,-106.04"/>
</a>
</g>
</g>
<!-- Node30 -->
<g id="Node000030" class="node">
<title>Node30</title>
<g id="a_Node000030"><a xlink:href="pluma-file-browser-utils_8h.html" target="_top" xlink:title=" ">
<polygon fill="white" stroke="#666666" points="608,-415 499,-415 499,-385 608,-385 608,-415"/>
<text text-anchor="start" x="507" y="-403" font-family="Helvetica,sans-Serif" font-size="10.00">pluma&#45;file&#45;browser</text>
<text text-anchor="middle" x="553.5" y="-392" font-family="Helvetica,sans-Serif" font-size="10.00">&#45;utils.h</text>
</a>
</g>
</g>
<!-- Node1&#45;&gt;Node30 -->
<g id="edge54_Node000001_Node000030" class="edge">
<title>Node1&#45;&gt;Node30</title>
<g id="a_edge54_Node000001_Node000030"><a xlink:title=" ">
<path fill="none" stroke="#63b8ff" d="M733.03,-450.95C697.82,-441.16 650.69,-428.05 613.56,-417.71"/>
<polygon fill="#63b8ff" stroke="#63b8ff" points="614.43,-414.32 603.86,-415.01 612.55,-421.07 614.43,-414.32"/>
</a>
</g>
</g>
<!-- Node31 -->
<g id="Node000031" class="node">
<title>Node31</title>
<g id="a_Node000031"><a xlink:href="pluma-file-browser-error_8h.html" target="_top" xlink:title=" ">
<polygon fill="white" stroke="#666666" points="1504,-415 1395,-415 1395,-385 1504,-385 1504,-415"/>
<text text-anchor="start" x="1403" y="-403" font-family="Helvetica,sans-Serif" font-size="10.00">pluma&#45;file&#45;browser</text>
<text text-anchor="middle" x="1449.5" y="-392" font-family="Helvetica,sans-Serif" font-size="10.00">&#45;error.h</text>
</a>
</g>
</g>
<!-- Node1&#45;&gt;Node31 -->
<g id="edge57_Node000001_Node000031" class="edge">
<title>Node1&#45;&gt;Node31</title>
<g id="a_edge57_Node000001_Node000031"><a xlink:title=" ">
<path fill="none" stroke="#63b8ff" d="M838.07,-462.56C943.37,-457.39 1181.78,-443.38 1380.5,-415 1381.97,-414.79 1383.47,-414.57 1384.97,-414.33"/>
<polygon fill="#63b8ff" stroke="#63b8ff" points="1385.7,-417.76 1394.99,-412.67 1384.55,-410.86 1385.7,-417.76"/>
</a>
</g>
</g>
<!-- Node32 -->
<g id="Node000032" class="node">
<title>Node32</title>
<g id="a_Node000032"><a xlink:href="pluma-file-browser-widget_8h.html" target="_top" xlink:title=" ">
<polygon fill="white" stroke="#666666" points="1233,-228 1124,-228 1124,-198 1233,-198 1233,-228"/>
<text text-anchor="start" x="1132" y="-216" font-family="Helvetica,sans-Serif" font-size="10.00">pluma&#45;file&#45;browser</text>
<text text-anchor="middle" x="1178.5" y="-205" font-family="Helvetica,sans-Serif" font-size="10.00">&#45;widget.h</text>
</a>
</g>
</g>
<!-- Node1&#45;&gt;Node32 -->
<g id="edge58_Node000001_Node000032" class="edge">
<title>Node1&#45;&gt;Node32</title>
<g id="a_edge58_Node000001_Node000032"><a xlink:title=" ">
<path fill="none" stroke="#63b8ff" d="M838.06,-462.54C947.05,-457.07 1183.34,-442.18 1207.5,-415 1252.07,-364.87 1214.38,-278.24 1192.08,-237.05"/>
<polygon fill="#63b8ff" stroke="#63b8ff" points="1194.99,-235.08 1187.06,-228.06 1188.88,-238.5 1194.99,-235.08"/>
</a>
</g>
</g>
<!-- Node36 -->
<g id="Node000036" class="node">
<title>Node36</title>
<g id="a_Node000036"><a xlink:href="pluma-file-browser-messages_8h.html" target="_top" xlink:title=" ">
<polygon fill="white" stroke="#666666" points="774,-415 665,-415 665,-385 774,-385 774,-415"/>
<text text-anchor="start" x="673" y="-403" font-family="Helvetica,sans-Serif" font-size="10.00">pluma&#45;file&#45;browser</text>
<text text-anchor="middle" x="719.5" y="-392" font-family="Helvetica,sans-Serif" font-size="10.00">&#45;messages.h</text>
</a>
</g>
</g>
<!-- Node1&#45;&gt;Node36 -->
<g id="edge66_Node000001_Node000036" class="edge">
<title>Node1&#45;&gt;Node36</title>
<g id="a_edge66_Node000001_Node000036"><a xlink:title=" ">
<path fill="none" stroke="#63b8ff" d="M769.3,-450.8C760.93,-442.43 750.18,-431.68 740.81,-422.31"/>
<polygon fill="#63b8ff" stroke="#63b8ff" points="743.21,-419.76 733.66,-415.16 738.26,-424.71 743.21,-419.76"/>
</a>
</g>
</g>
<!-- Node7 -->
<g id="Node000007" class="node">
<title>Node7</title>
<g id="a_Node000007"><a xlink:title=" ">
<polygon fill="#e0e0e0" stroke="#999999" points="965.5,-90.5 905.5,-90.5 905.5,-71.5 965.5,-71.5 965.5,-90.5"/>
<text text-anchor="middle" x="935.5" y="-78.5" font-family="Helvetica,sans-Serif" font-size="10.00">gtk/gtk.h</text>
</a>
</g>
</g>
<!-- Node6&#45;&gt;Node7 -->
<g id="edge6_Node000006_Node000007" class="edge">
<title>Node6&#45;&gt;Node7</title>
<g id="a_edge6_Node000006_Node000007"><a xlink:title=" ">
<path fill="none" stroke="#63b8ff" d="M854.02,-390.33C866.03,-370.6 893.5,-320.47 893.5,-274.5 893.5,-274.5 893.5,-274.5 893.5,-212 893.5,-170.08 913.52,-124.07 925.92,-99.61"/>
<polygon fill="#63b8ff" stroke="#63b8ff" points="929.14,-101 930.68,-90.52 922.94,-97.75 929.14,-101"/>
</a>
</g>
</g>
<!-- Node6&#45;&gt;Node8 -->
<g id="edge7_Node000006_Node000008" class="edge">
<title>Node6&#45;&gt;Node8</title>
<g id="a_edge7_Node000006_Node000008"><a xlink:title=" ">
<path fill="none" stroke="#63b8ff" d="M825.57,-390.37C795.96,-379.22 744.25,-359.75 710.7,-347.12"/>
<polygon fill="#63b8ff" stroke="#63b8ff" points="711.93,-343.84 701.33,-343.6 709.46,-350.4 711.93,-343.84"/>
</a>
</g>
</g>
<!-- Node8&#45;&gt;Node3 -->
<g id="edge8_Node000008_Node000003" class="edge">
<title>Node8&#45;&gt;Node3</title>
<g id="a_edge8_Node000008_Node000003"><a xlink:title=" ">
<path fill="none" stroke="#63b8ff" d="M615.16,-324.45C543.03,-312.35 424.01,-285.01 337.5,-228 335.75,-226.85 259.69,-136.77 227.58,-98.7"/>
<polygon fill="#63b8ff" stroke="#63b8ff" points="229.88,-96 220.76,-90.61 224.53,-100.51 229.88,-96"/>
</a>
</g>
</g>
<!-- Node8&#45;&gt;Node7 -->
<g id="edge9_Node000008_Node000007" class="edge">
<title>Node8&#45;&gt;Node7</title>
<g id="a_edge9_Node000008_Node000007"><a xlink:title=" ">
<path fill="none" stroke="#63b8ff" d="M744.13,-326.71C775.92,-320.4 812.34,-307.87 836.5,-283 885.12,-232.95 842.45,-191.13 879.5,-132 888.21,-118.09 901.9,-105.77 913.56,-96.84"/>
<polygon fill="#63b8ff" stroke="#63b8ff" points="915.96,-99.42 921.97,-90.7 911.83,-93.77 915.96,-99.42"/>
</a>
</g>
</g>
<!-- Node9 -->
<g id="Node000009" class="node">
<title>Node9</title>
<g id="a_Node000009"><a xlink:href="pluma-tab_8h.html" target="_top" xlink:title=" ">
<polygon fill="white" stroke="#666666" points="687.5,-283 577.5,-283 577.5,-264 687.5,-264 687.5,-283"/>
<text text-anchor="middle" x="632.5" y="-271" font-family="Helvetica,sans-Serif" font-size="10.00">pluma/pluma&#45;tab.h</text>
</a>
</g>
</g>
<!-- Node8&#45;&gt;Node9 -->
<g id="edge10_Node000008_Node000009" class="edge">
<title>Node8&#45;&gt;Node9</title>
<g id="a_edge10_Node000008_Node000009"><a xlink:title=" ">
<path fill="none" stroke="#63b8ff" d="M671.71,-324.37C664.85,-315.64 654.07,-301.93 645.55,-291.09"/>
<polygon fill="#63b8ff" stroke="#63b8ff" points="648.25,-288.86 639.32,-283.17 642.75,-293.19 648.25,-288.86"/>
</a>
</g>
</g>
<!-- Node16 -->
<g id="Node000016" class="node">
<title>Node16</title>
<g id="a_Node000016"><a xlink:href="pluma-panel_8h.html" target="_top" xlink:title=" ">
<polygon fill="white" stroke="#666666" points="827,-283 706,-283 706,-264 827,-264 827,-283"/>
<text text-anchor="middle" x="766.5" y="-271" font-family="Helvetica,sans-Serif" font-size="10.00">pluma/pluma&#45;panel.h</text>
</a>
</g>
</g>
<!-- Node8&#45;&gt;Node16 -->
<g id="edge23_Node000008_Node000016" class="edge">
<title>Node8&#45;&gt;Node16</title>
<g id="a_edge23_Node000008_Node000016"><a xlink:title=" ">
<path fill="none" stroke="#63b8ff" d="M691.48,-324.37C705.52,-315.04 728.13,-300.01 744.86,-288.88"/>
<polygon fill="#63b8ff" stroke="#63b8ff" points="747.07,-291.62 753.46,-283.17 743.2,-285.79 747.07,-291.62"/>
</a>
</g>
</g>
<!-- Node17 -->
<g id="Node000017" class="node">
<title>Node17</title>
<g id="a_Node000017"><a xlink:href="pluma-message-bus_8h.html" target="_top" xlink:title=" ">
<polygon fill="white" stroke="#666666" points="475,-228 346,-228 346,-198 475,-198 475,-228"/>
<text text-anchor="start" x="354" y="-216" font-family="Helvetica,sans-Serif" font-size="10.00">pluma/pluma&#45;message</text>
<text text-anchor="middle" x="410.5" y="-205" font-family="Helvetica,sans-Serif" font-size="10.00">&#45;bus.h</text>
</a>
</g>
</g>
<!-- Node8&#45;&gt;Node17 -->
<g id="edge25_Node000008_Node000017" class="edge">
<title>Node8&#45;&gt;Node17</title>
<g id="a_edge25_Node000008_Node000017"><a xlink:title=" ">
<path fill="none" stroke="#63b8ff" d="M659.23,-324.44C615.91,-305.21 510.07,-258.21 451.38,-232.15"/>
<polygon fill="#63b8ff" stroke="#63b8ff" points="452.6,-228.86 442.04,-228 449.75,-235.26 452.6,-228.86"/>
</a>
</g>
</g>
<!-- Node9&#45;&gt;Node7 -->
<g id="edge11_Node000009_Node000007" class="edge">
<title>Node9&#45;&gt;Node7</title>
<g id="a_edge11_Node000009_Node000007"><a xlink:title=" ">
<path fill="none" stroke="#63b8ff" d="M641.78,-263.94C667.65,-240.41 743.4,-173.74 815.5,-132 842.62,-116.3 875.63,-102.92 900.16,-93.96"/>
<polygon fill="#63b8ff" stroke="#63b8ff" points="901.54,-97.18 909.78,-90.52 899.18,-90.59 901.54,-97.18"/>
</a>
</g>
</g>
<!-- Node10 -->
<g id="Node000010" class="node">
<title>Node10</title>
<g id="a_Node000010"><a xlink:href="pluma-view_8h.html" target="_top" xlink:title=" ">
<polygon fill="white" stroke="#666666" points="640.5,-222.5 524.5,-222.5 524.5,-203.5 640.5,-203.5 640.5,-222.5"/>
<text text-anchor="middle" x="582.5" y="-210.5" font-family="Helvetica,sans-Serif" font-size="10.00">pluma/pluma&#45;view.h</text>
</a>
</g>
</g>
<!-- Node9&#45;&gt;Node10 -->
<g id="edge12_Node000009_Node000010" class="edge">
<title>Node9&#45;&gt;Node10</title>
<g id="a_edge12_Node000009_Node000010"><a xlink:title=" ">
<path fill="none" stroke="#63b8ff" d="M625.12,-263.87C617.59,-255.05 605.71,-241.16 596.41,-230.27"/>
<polygon fill="#63b8ff" stroke="#63b8ff" points="599.07,-228 589.91,-222.67 593.74,-232.54 599.07,-228"/>
</a>
</g>
</g>
<!-- Node11 -->
<g id="Node000011" class="node">
<title>Node11</title>
<g id="a_Node000011"><a xlink:href="pluma-document_8h.html" target="_top" xlink:title=" ">
<polygon fill="white" stroke="#666666" points="751,-156.5 608,-156.5 608,-137.5 751,-137.5 751,-156.5"/>
<text text-anchor="middle" x="679.5" y="-144.5" font-family="Helvetica,sans-Serif" font-size="10.00">pluma/pluma&#45;document.h</text>
</a>
</g>
</g>
<!-- Node9&#45;&gt;Node11 -->
<g id="edge22_Node000009_Node000011" class="edge">
<title>Node9&#45;&gt;Node11</title>
<g id="a_edge22_Node000009_Node000011"><a xlink:title=" ">
<path fill="none" stroke="#63b8ff" d="M635.77,-263.97C639.21,-255.02 644.76,-240.53 649.5,-228 657.51,-206.83 666.63,-182.48 672.69,-166.26"/>
<polygon fill="#63b8ff" stroke="#63b8ff" points="675.97,-167.48 676.19,-156.89 669.41,-165.03 675.97,-167.48"/>
</a>
</g>
</g>
<!-- Node10&#45;&gt;Node7 -->
<g id="edge13_Node000010_Node000007" class="edge">
<title>Node10&#45;&gt;Node7</title>
<g id="a_edge13_Node000010_Node000007"><a xlink:title=" ">
<path fill="none" stroke="#63b8ff" d="M581.45,-203.26C580.01,-186.71 579.53,-150.77 599.5,-132 620.82,-111.96 811.04,-92.94 895.45,-85.4"/>
<polygon fill="#63b8ff" stroke="#63b8ff" points="895.79,-88.89 905.44,-84.52 895.17,-81.91 895.79,-88.89"/>
</a>
</g>
</g>
<!-- Node10&#45;&gt;Node11 -->
<g id="edge14_Node000010_Node000011" class="edge">
<title>Node10&#45;&gt;Node11</title>
<g id="a_edge14_Node000010_Node000011"><a xlink:title=" ">
<path fill="none" stroke="#63b8ff" d="M595.58,-203.37C611.56,-192.82 638.83,-174.84 657.93,-162.23"/>
<polygon fill="#63b8ff" stroke="#63b8ff" points="659.9,-165.13 666.32,-156.7 656.04,-159.28 659.9,-165.13"/>
</a>
</g>
</g>
<!-- Node12 -->
<g id="Node000012" class="node">
<title>Node12</title>
<g id="a_Node000012"><a xlink:title=" ">
<polygon fill="#e0e0e0" stroke="#999999" points="753.5,-90.5 605.5,-90.5 605.5,-71.5 753.5,-71.5 753.5,-90.5"/>
<text text-anchor="middle" x="679.5" y="-78.5" font-family="Helvetica,sans-Serif" font-size="10.00">gtksourceview/gtksource.h</text>
</a>
</g>
</g>
<!-- Node10&#45;&gt;Node12 -->
<g id="edge21_Node000010_Node000012" class="edge">
<title>Node10&#45;&gt;Node12</title>
<g id="a_edge21_Node000010_Node000012"><a xlink:title=" ">
<path fill="none" stroke="#63b8ff" d="M576.75,-203.29C567.26,-187.71 550.74,-154.58 565.5,-132 578.06,-112.78 599.82,-100.9 620.99,-93.58"/>
<polygon fill="#63b8ff" stroke="#63b8ff" points="622.16,-96.88 630.64,-90.53 620.05,-90.21 622.16,-96.88"/>
</a>
</g>
</g>
<!-- Node11&#45;&gt;Node3 -->
<g id="edge15_Node000011_Node000003" class="edge">
<title>Node11&#45;&gt;Node3</title>
<g id="a_edge15_Node000011_Node000003"><a xlink:title=" ">
<path fill="none" stroke="#63b8ff" d="M607.96,-139.62C504.49,-130.04 318.26,-111.44 252.5,-96 249.83,-95.37 247.1,-94.62 244.37,-93.8"/>
<polygon fill="#63b8ff" stroke="#63b8ff" points="245.29,-90.42 234.69,-90.6 243.08,-97.06 245.29,-90.42"/>
</a>
</g>
</g>
<!-- Node11&#45;&gt;Node7 -->
<g id="edge16_Node000011_Node000007" class="edge">
<title>Node11&#45;&gt;Node7</title>
<g id="a_edge16_Node000011_Node000007"><a xlink:title=" ">
<path fill="none" stroke="#63b8ff" d="M713.76,-137.44C760.92,-125.64 845.67,-104.46 895.62,-91.97"/>
<polygon fill="#63b8ff" stroke="#63b8ff" points="896.57,-95.34 905.43,-89.52 894.87,-88.55 896.57,-95.34"/>
</a>
</g>
</g>
<!-- Node11&#45;&gt;Node12 -->
<g id="edge17_Node000011_Node000012" class="edge">
<title>Node11&#45;&gt;Node12</title>
<g id="a_edge17_Node000011_Node000012"><a xlink:title=" ">
<path fill="none" stroke="#63b8ff" d="M679.5,-137.37C679.5,-128.16 679.5,-113.29 679.5,-101.27"/>
<polygon fill="#63b8ff" stroke="#63b8ff" points="683,-100.91 679.5,-90.91 676,-100.91 683,-100.91"/>
</a>
</g>
</g>
<!-- Node13 -->
<g id="Node000013" class="node">
<title>Node13</title>
<g id="a_Node000013"><a xlink:href="pluma-encodings_8h.html" target="_top" xlink:title=" ">
<polygon fill="white" stroke="#666666" points="1282,-90.5 1139,-90.5 1139,-71.5 1282,-71.5 1282,-90.5"/>
<text text-anchor="middle" x="1210.5" y="-78.5" font-family="Helvetica,sans-Serif" font-size="10.00">pluma/pluma&#45;encodings.h</text>
</a>
</g>
</g>
<!-- Node11&#45;&gt;Node13 -->
<g id="edge18_Node000011_Node000013" class="edge">
<title>Node11&#45;&gt;Node13</title>
<g id="a_edge18_Node000011_Node000013"><a xlink:title=" ">
<path fill="none" stroke="#63b8ff" d="M750.29,-137.47C848.66,-125.61 1026.25,-104.21 1129.7,-91.74"/>
<polygon fill="#63b8ff" stroke="#63b8ff" points="1130.27,-95.2 1139.78,-90.52 1129.43,-88.25 1130.27,-95.2"/>
</a>
</g>
</g>
<!-- Node14 -->
<g id="Node000014" class="node">
<title>Node14</title>
<g id="a_Node000014"><a xlink:title=" ">
<polygon fill="#e0e0e0" stroke="#999999" points="1527.5,-24.5 1483.5,-24.5 1483.5,-5.5 1527.5,-5.5 1527.5,-24.5"/>
<text text-anchor="middle" x="1505.5" y="-12.5" font-family="Helvetica,sans-Serif" font-size="10.00">glib.h</text>
</a>
</g>
</g>
<!-- Node13&#45;&gt;Node14 -->
<g id="edge19_Node000013_Node000014" class="edge">
<title>Node13&#45;&gt;Node14</title>
<g id="a_edge19_Node000013_Node000014"><a xlink:title=" ">
<path fill="none" stroke="#63b8ff" d="M1249.98,-71.44C1308.98,-58.64 1419.02,-34.76 1473.39,-22.97"/>
<polygon fill="#63b8ff" stroke="#63b8ff" points="1474.15,-26.38 1483.18,-20.84 1472.67,-19.54 1474.15,-26.38"/>
</a>
</g>
</g>
<!-- Node15 -->
<g id="Node000015" class="node">
<title>Node15</title>
<g id="a_Node000015"><a xlink:title=" ">
<polygon fill="#e0e0e0" stroke="#999999" points="523,-24.5 446,-24.5 446,-5.5 523,-5.5 523,-24.5"/>
<text text-anchor="middle" x="484.5" y="-12.5" font-family="Helvetica,sans-Serif" font-size="10.00">glib&#45;object.h</text>
</a>
</g>
</g>
<!-- Node13&#45;&gt;Node15 -->
<g id="edge20_Node000013_Node000015" class="edge">
<title>Node13&#45;&gt;Node15</title>
<g id="a_edge20_Node000013_Node000015"><a xlink:title=" ">
<path fill="none" stroke="#63b8ff" d="M1138.9,-73.69C991.72,-60.71 658.51,-31.34 533.29,-20.3"/>
<polygon fill="#63b8ff" stroke="#63b8ff" points="533.5,-16.81 523.23,-19.41 532.88,-23.78 533.5,-16.81"/>
</a>
</g>
</g>
<!-- Node16&#45;&gt;Node7 -->
<g id="edge24_Node000016_Node000007" class="edge">
<title>Node16&#45;&gt;Node7</title>
<g id="a_edge24_Node000016_Node000007"><a xlink:title=" ">
<path fill="none" stroke="#63b8ff" d="M772.09,-263.76C777.71,-254.88 786.51,-240.66 793.5,-228 816.56,-186.24 808.2,-166.15 841.5,-132 857.95,-115.13 881.32,-102.66 900.65,-94.4"/>
<polygon fill="#63b8ff" stroke="#63b8ff" points="902.1,-97.59 910.04,-90.57 899.46,-91.1 902.1,-97.59"/>
</a>
</g>
</g>
<!-- Node17&#45;&gt;Node15 -->
<g id="edge26_Node000017_Node000015" class="edge">
<title>Node17&#45;&gt;Node15</title>
<g id="a_edge26_Node000017_Node000015"><a xlink:title=" ">
<path fill="none" stroke="#63b8ff" d="M444.73,-197.95C459.8,-189.84 475.99,-178.02 484.5,-162 506.33,-120.9 496.85,-63.64 489.74,-34.55"/>
<polygon fill="#63b8ff" stroke="#63b8ff" points="493.04,-33.34 487.11,-24.56 486.27,-35.12 493.04,-33.34"/>
</a>
</g>
</g>
<!-- Node18 -->
<g id="Node000018" class="node">
<title>Node18</title>
<g id="a_Node000018"><a xlink:href="pluma-message_8h.html" target="_top" xlink:title=" ">
<polygon fill="white" stroke="#666666" points="399.5,-90.5 261.5,-90.5 261.5,-71.5 399.5,-71.5 399.5,-90.5"/>
<text text-anchor="middle" x="330.5" y="-78.5" font-family="Helvetica,sans-Serif" font-size="10.00">pluma/pluma&#45;message.h</text>
</a>
</g>
</g>
<!-- Node17&#45;&gt;Node18 -->
<g id="edge27_Node000017_Node000018" class="edge">
<title>Node17&#45;&gt;Node18</title>
<g id="a_edge27_Node000017_Node000018"><a xlink:title=" ">
<path fill="none" stroke="#63b8ff" d="M378.08,-197.93C363.14,-189.7 346.72,-177.78 337.5,-162 326.64,-143.42 326.33,-118.15 327.8,-101.03"/>
<polygon fill="#63b8ff" stroke="#63b8ff" points="331.33,-100.98 328.99,-90.65 324.37,-100.19 331.33,-100.98"/>
</a>
</g>
</g>
<!-- Node20 -->
<g id="Node000020" class="node">
<title>Node20</title>
<g id="a_Node000020"><a xlink:href="pluma-message-type_8h.html" target="_top" xlink:title=" ">
<polygon fill="white" stroke="#666666" points="475,-162 346,-162 346,-132 475,-132 475,-162"/>
<text text-anchor="start" x="354" y="-150" font-family="Helvetica,sans-Serif" font-size="10.00">pluma/pluma&#45;message</text>
<text text-anchor="middle" x="410.5" y="-139" font-family="Helvetica,sans-Serif" font-size="10.00">&#45;type.h</text>
</a>
</g>
</g>
<!-- Node17&#45;&gt;Node20 -->
<g id="edge30_Node000017_Node000020" class="edge">
<title>Node17&#45;&gt;Node20</title>
<g id="a_edge30_Node000017_Node000020"><a xlink:title=" ">
<path fill="none" stroke="#63b8ff" d="M410.5,-197.8C410.5,-190.34 410.5,-180.99 410.5,-172.41"/>
<polygon fill="#63b8ff" stroke="#63b8ff" points="414,-172.16 410.5,-162.16 407,-172.16 414,-172.16"/>
</a>
</g>
</g>
<!-- Node18&#45;&gt;Node15 -->
<g id="edge28_Node000018_Node000015" class="edge">
<title>Node18&#45;&gt;Node15</title>
<g id="a_edge28_Node000018_Node000015"><a xlink:title=" ">
<path fill="none" stroke="#63b8ff" d="M351.27,-71.37C377.79,-60.35 423.88,-41.19 454.29,-28.55"/>
<polygon fill="#63b8ff" stroke="#63b8ff" points="455.68,-31.77 463.57,-24.7 452.99,-25.3 455.68,-31.77"/>
</a>
</g>
</g>
<!-- Node19 -->
<g id="Node000019" class="node">
<title>Node19</title>
<g id="a_Node000019"><a xlink:title=" ">
<polygon fill="#e0e0e0" stroke="#999999" points="383.5,-24.5 327.5,-24.5 327.5,-5.5 383.5,-5.5 383.5,-24.5"/>
<text text-anchor="middle" x="355.5" y="-12.5" font-family="Helvetica,sans-Serif" font-size="10.00">stdarg.h</text>
</a>
</g>
</g>
<!-- Node18&#45;&gt;Node19 -->
<g id="edge29_Node000018_Node000019" class="edge">
<title>Node18&#45;&gt;Node19</title>
<g id="a_edge29_Node000018_Node000019"><a xlink:title=" ">
<path fill="none" stroke="#63b8ff" d="M333.87,-71.37C337.54,-61.97 343.52,-46.67 348.26,-34.53"/>
<polygon fill="#63b8ff" stroke="#63b8ff" points="351.64,-35.49 352.02,-24.91 345.12,-32.95 351.64,-35.49"/>
</a>
</g>
</g>
<!-- Node20&#45;&gt;Node15 -->
<g id="edge31_Node000020_Node000015" class="edge">
<title>Node20&#45;&gt;Node15</title>
<g id="a_edge31_Node000020_Node000015"><a xlink:title=" ">
<path fill="none" stroke="#63b8ff" d="M418.56,-131.84C432.18,-107.92 459.7,-59.56 474.52,-33.53"/>
<polygon fill="#63b8ff" stroke="#63b8ff" points="477.61,-35.17 479.52,-24.75 471.53,-31.71 477.61,-35.17"/>
</a>
</g>
</g>
<!-- Node20&#45;&gt;Node18 -->
<g id="edge33_Node000020_Node000018" class="edge">
<title>Node20&#45;&gt;Node18</title>
<g id="a_edge33_Node000020_Node000018"><a xlink:title=" ">
<path fill="none" stroke="#63b8ff" d="M392.75,-131.8C379.91,-121.53 362.58,-107.67 349.47,-97.18"/>
<polygon fill="#63b8ff" stroke="#63b8ff" points="351.55,-94.36 341.56,-90.84 347.18,-99.82 351.55,-94.36"/>
</a>
</g>
</g>
<!-- Node20&#45;&gt;Node19 -->
<g id="edge32_Node000020_Node000019" class="edge">
<title>Node20&#45;&gt;Node19</title>
<g id="a_edge32_Node000020_Node000019"><a xlink:title=" ">
<path fill="none" stroke="#63b8ff" d="M413.28,-131.99C415.88,-115.44 418.07,-87.44 408.5,-66 402.09,-51.64 389.41,-39.44 378.06,-30.68"/>
<polygon fill="#63b8ff" stroke="#63b8ff" points="379.92,-27.7 369.76,-24.68 375.81,-33.38 379.92,-27.7"/>
</a>
</g>
</g>
<!-- Node21&#45;&gt;Node7 -->
<g id="edge35_Node000021_Node000007" class="edge">
<title>Node21&#45;&gt;Node7</title>
<g id="a_edge35_Node000021_Node000007"><a xlink:title=" ">
<path fill="none" stroke="#63b8ff" d="M1025.25,-390.46C1123.36,-359.98 1433.13,-251.96 1327.5,-132 1315.92,-118.85 1073.15,-94.84 975.58,-85.68"/>
<polygon fill="#63b8ff" stroke="#63b8ff" points="975.79,-82.19 965.51,-84.74 975.14,-89.16 975.79,-82.19"/>
</a>
</g>
</g>
<!-- Node21&#45;&gt;Node8 -->
<g id="edge36_Node000021_Node000008" class="edge">
<title>Node21&#45;&gt;Node8</title>
<g id="a_edge36_Node000021_Node000008"><a xlink:title=" ">
<path fill="none" stroke="#63b8ff" d="M953.94,-390.44C896.23,-378.82 793.2,-358.09 730.83,-345.53"/>
<polygon fill="#63b8ff" stroke="#63b8ff" points="731.3,-342.06 720.8,-343.51 729.92,-348.92 731.3,-342.06"/>
</a>
</g>
</g>
<!-- Node22&#45;&gt;Node14 -->
<g id="edge38_Node000022_Node000014" class="edge">
<title>Node22&#45;&gt;Node14</title>
<g id="a_edge38_Node000022_Node000014"><a xlink:title=" ">
<path fill="none" stroke="#63b8ff" d="M1533.36,-324.35C1535.23,-304.74 1539.5,-255.39 1539.5,-214 1539.5,-214 1539.5,-214 1539.5,-146 1539.5,-104.95 1523.44,-58.91 1513.39,-34.14"/>
<polygon fill="#63b8ff" stroke="#63b8ff" points="1516.5,-32.49 1509.4,-24.62 1510.04,-35.2 1516.5,-32.49"/>
</a>
</g>
</g>
<!-- Node23&#45;&gt;Node15 -->
<g id="edge41_Node000023_Node000015" class="edge">
<title>Node23&#45;&gt;Node15</title>
<g id="a_edge41_Node000023_Node000015"><a xlink:title=" ">
<path fill="none" stroke="#63b8ff" d="M195.93,-318.82C180.99,-297.33 155.5,-254.68 155.5,-214 155.5,-214 155.5,-214 155.5,-146 155.5,-109.46 147.73,-90.88 174.5,-66 176.89,-63.78 349.11,-36.91 435.79,-23.51"/>
<polygon fill="#63b8ff" stroke="#63b8ff" points="436.57,-26.93 445.92,-21.94 435.5,-20.01 436.57,-26.93"/>
</a>
</g>
</g>
<!-- Node24&#45;&gt;Node7 -->
<g id="edge44_Node000024_Node000007" class="edge">
<title>Node24&#45;&gt;Node7</title>
<g id="a_edge44_Node000024_Node000007"><a xlink:title=" ">
<path fill="none" stroke="#63b8ff" d="M1412.48,-137.43C1402.38,-135.49 1391.57,-133.54 1381.5,-132 1232.73,-109.23 1054.54,-92.36 976.03,-85.44"/>
<polygon fill="#63b8ff" stroke="#63b8ff" points="975.89,-81.92 965.63,-84.53 975.28,-88.89 975.89,-81.92"/>
</a>
</g>
</g>
<!-- Node24&#45;&gt;Node12 -->
<g id="edge47_Node000024_Node000012" class="edge">
<title>Node24&#45;&gt;Node12</title>
<g id="a_edge47_Node000024_Node000012"><a xlink:title=" ">
<path fill="none" stroke="#63b8ff" d="M1395.77,-140.1C1369.73,-137.51 1338.58,-134.49 1310.5,-132 1115.06,-114.69 885.3,-97.2 764.16,-88.21"/>
<polygon fill="#63b8ff" stroke="#63b8ff" points="764.08,-84.69 753.85,-87.44 763.56,-91.67 764.08,-84.69"/>
</a>
</g>
</g>
<!-- Node24&#45;&gt;Node13 -->
<g id="edge46_Node000024_Node000013" class="edge">
<title>Node24&#45;&gt;Node13</title>
<g id="a_edge46_Node000024_Node000013"><a xlink:title=" ">
<path fill="none" stroke="#63b8ff" d="M1420.98,-137.44C1377.51,-125.99 1300.42,-105.68 1252.57,-93.08"/>
<polygon fill="#63b8ff" stroke="#63b8ff" points="1253.39,-89.68 1242.83,-90.51 1251.61,-96.45 1253.39,-89.68"/>
</a>
</g>
</g>
<!-- Node24&#45;&gt;Node14 -->
<g id="edge43_Node000024_Node000014" class="edge">
<title>Node24&#45;&gt;Node14</title>
<g id="a_edge43_Node000024_Node000014"><a xlink:title=" ">
<path fill="none" stroke="#63b8ff" d="M1459.31,-137.49C1465.72,-127.8 1475.97,-111.33 1482.5,-96 1491.15,-75.69 1497.67,-51.14 1501.52,-34.63"/>
<polygon fill="#63b8ff" stroke="#63b8ff" points="1504.98,-35.17 1503.75,-24.64 1498.15,-33.64 1504.98,-35.17"/>
</a>
</g>
</g>
<!-- Node25 -->
<g id="Node000025" class="node">
<title>Node25</title>
<g id="a_Node000025"><a xlink:title=" ">
<polygon fill="#e0e0e0" stroke="#999999" points="1473.5,-90.5 1413.5,-90.5 1413.5,-71.5 1473.5,-71.5 1473.5,-90.5"/>
<text text-anchor="middle" x="1443.5" y="-78.5" font-family="Helvetica,sans-Serif" font-size="10.00">atk/atk.h</text>
</a>
</g>
</g>
<!-- Node24&#45;&gt;Node25 -->
<g id="edge45_Node000024_Node000025" class="edge">
<title>Node24&#45;&gt;Node25</title>
<g id="a_edge45_Node000024_Node000025"><a xlink:title=" ">
<path fill="none" stroke="#63b8ff" d="M1452.15,-137.37C1450.7,-128.07 1448.34,-112.98 1446.45,-100.9"/>
<polygon fill="#63b8ff" stroke="#63b8ff" points="1449.89,-100.25 1444.89,-90.91 1442.98,-101.33 1449.89,-100.25"/>
</a>
</g>
</g>
<!-- Node27&#45;&gt;Node14 -->
<g id="edge50_Node000027_Node000014" class="edge">
<title>Node27&#45;&gt;Node14</title>
<g id="a_edge50_Node000027_Node000014"><a xlink:title=" ">
<path fill="none" stroke="#63b8ff" d="M1596.82,-65.95C1576.94,-55.08 1549.57,-40.11 1529.99,-29.4"/>
<polygon fill="#63b8ff" stroke="#63b8ff" points="1531.52,-26.25 1521.07,-24.52 1528.16,-32.39 1531.52,-26.25"/>
</a>
</g>
</g>
<!-- Node27&#45;&gt;Node15 -->
<g id="edge51_Node000027_Node000015" class="edge">
<title>Node27&#45;&gt;Node15</title>
<g id="a_edge51_Node000027_Node000015"><a xlink:title=" ">
<path fill="none" stroke="#63b8ff" d="M1567.7,-73.88C1541.88,-71.17 1510.63,-68.11 1482.5,-66 1118.37,-38.69 678.36,-22.49 533.4,-17.59"/>
<polygon fill="#63b8ff" stroke="#63b8ff" points="533.19,-14.08 523.07,-17.24 532.95,-21.08 533.19,-14.08"/>
</a>
</g>
</g>
<!-- Node28 -->
<g id="Node000028" class="node">
<title>Node28</title>
<g id="a_Node000028"><a xlink:title=" ">
<polygon fill="#e0e0e0" stroke="#999999" points="1683.5,-30 1553.5,-30 1553.5,0 1683.5,0 1683.5,-30"/>
<text text-anchor="start" x="1561.5" y="-18" font-family="Helvetica,sans-Serif" font-size="10.00">libpeas/peas&#45;extension</text>
<text text-anchor="middle" x="1618.5" y="-7" font-family="Helvetica,sans-Serif" font-size="10.00">&#45;base.h</text>
</a>
</g>
</g>
<!-- Node27&#45;&gt;Node28 -->
<g id="edge52_Node000027_Node000028" class="edge">
<title>Node27&#45;&gt;Node28</title>
<g id="a_edge52_Node000027_Node000028"><a xlink:title=" ">
<path fill="none" stroke="#63b8ff" d="M1621.61,-65.8C1621.15,-58.34 1620.56,-48.99 1620.03,-40.41"/>
<polygon fill="#63b8ff" stroke="#63b8ff" points="1623.5,-39.93 1619.39,-30.16 1616.52,-40.36 1623.5,-39.93"/>
</a>
</g>
</g>
<!-- Node29 -->
<g id="Node000029" class="node">
<title>Node29</title>
<g id="a_Node000029"><a xlink:title=" ">
<polygon fill="#e0e0e0" stroke="#999999" points="1813.5,-30 1701.5,-30 1701.5,0 1813.5,0 1813.5,-30"/>
<text text-anchor="start" x="1709.5" y="-18" font-family="Helvetica,sans-Serif" font-size="10.00">libpeas/peas&#45;object</text>
<text text-anchor="middle" x="1757.5" y="-7" font-family="Helvetica,sans-Serif" font-size="10.00">&#45;module.h</text>
</a>
</g>
</g>
<!-- Node27&#45;&gt;Node29 -->
<g id="edge53_Node000027_Node000029" class="edge">
<title>Node27&#45;&gt;Node29</title>
<g id="a_edge53_Node000027_Node000029"><a xlink:title=" ">
<path fill="none" stroke="#63b8ff" d="M1652.13,-65.95C1671.73,-56.66 1697.64,-44.38 1718.87,-34.32"/>
<polygon fill="#63b8ff" stroke="#63b8ff" points="1720.41,-37.46 1727.94,-30.01 1717.41,-31.13 1720.41,-37.46"/>
</a>
</g>
</g>
<!-- Node30&#45;&gt;Node3 -->
<g id="edge56_Node000030_Node000003" class="edge">
<title>Node30&#45;&gt;Node3</title>
<g id="a_edge56_Node000030_Node000003"><a xlink:title=" ">
<path fill="none" stroke="#63b8ff" d="M528.5,-384.82C482.16,-357.87 381.06,-295.84 308.5,-228 281.02,-202.31 276.12,-193.47 255.5,-162 242.12,-141.57 229.48,-116.4 221.63,-99.81"/>
<polygon fill="#63b8ff" stroke="#63b8ff" points="224.79,-98.3 217.39,-90.71 218.44,-101.26 224.79,-98.3"/>
</a>
</g>
</g>
<!-- Node30&#45;&gt;Node8 -->
<g id="edge55_Node000030_Node000008" class="edge">
<title>Node30&#45;&gt;Node8</title>
<g id="a_edge55_Node000030_Node000008"><a xlink:title=" ">
<path fill="none" stroke="#63b8ff" d="M580.93,-384.95C602.37,-373.98 631.95,-358.83 652.9,-348.11"/>
<polygon fill="#63b8ff" stroke="#63b8ff" points="654.56,-351.19 661.86,-343.52 651.37,-344.96 654.56,-351.19"/>
</a>
</g>
</g>
<!-- Node32&#45;&gt;Node7 -->
<g id="edge59_Node000032_Node000007" class="edge">
<title>Node32&#45;&gt;Node7</title>
<g id="a_edge59_Node000032_Node000007"><a xlink:title=" ">
<path fill="none" stroke="#63b8ff" d="M1233.08,-200.05C1280.85,-187.15 1338.57,-164.06 1310.5,-132 1288.65,-107.05 1067.87,-90.35 975.65,-84.41"/>
<polygon fill="#63b8ff" stroke="#63b8ff" points="975.78,-80.91 965.58,-83.77 975.33,-87.89 975.78,-80.91"/>
</a>
</g>
</g>
<!-- Node33 -->
<g id="Node000033" class="node">
<title>Node33</title>
<g id="a_Node000033"><a xlink:href="pluma-file-browser-store_8h.html" target="_top" xlink:title=" ">
<polygon fill="white" stroke="#666666" points="1031,-162 922,-162 922,-132 1031,-132 1031,-162"/>
<text text-anchor="start" x="930" y="-150" font-family="Helvetica,sans-Serif" font-size="10.00">pluma&#45;file&#45;browser</text>
<text text-anchor="middle" x="976.5" y="-139" font-family="Helvetica,sans-Serif" font-size="10.00">&#45;store.h</text>
</a>
</g>
</g>
<!-- Node32&#45;&gt;Node33 -->
<g id="edge60_Node000032_Node000033" class="edge">
<title>Node32&#45;&gt;Node33</title>
<g id="a_edge60_Node000032_Node000033"><a xlink:title=" ">
<path fill="none" stroke="#63b8ff" d="M1134.17,-197.95C1103.65,-188.28 1062.92,-175.38 1030.5,-165.11"/>
<polygon fill="#63b8ff" stroke="#63b8ff" points="1031.32,-161.7 1020.73,-162.01 1029.2,-168.37 1031.32,-161.7"/>
</a>
</g>
</g>
<!-- Node34 -->
<g id="Node000034" class="node">
<title>Node34</title>
<g id="a_Node000034"><a xlink:href="pluma-file-bookmarks-store_8h.html" target="_top" xlink:title=" ">
<polygon fill="white" stroke="#666666" points="1174,-162 1049,-162 1049,-132 1174,-132 1174,-162"/>
<text text-anchor="start" x="1057" y="-150" font-family="Helvetica,sans-Serif" font-size="10.00">pluma&#45;file&#45;bookmarks</text>
<text text-anchor="middle" x="1111.5" y="-139" font-family="Helvetica,sans-Serif" font-size="10.00">&#45;store.h</text>
</a>
</g>
</g>
<!-- Node32&#45;&gt;Node34 -->
<g id="edge62_Node000032_Node000034" class="edge">
<title>Node32&#45;&gt;Node34</title>
<g id="a_edge62_Node000032_Node000034"><a xlink:title=" ">
<path fill="none" stroke="#63b8ff" d="M1163.63,-197.8C1154.87,-189.43 1143.62,-178.68 1133.81,-169.31"/>
<polygon fill="#63b8ff" stroke="#63b8ff" points="1135.98,-166.54 1126.33,-162.16 1131.14,-171.6 1135.98,-166.54"/>
</a>
</g>
</g>
<!-- Node35 -->
<g id="Node000035" class="node">
<title>Node35</title>
<g id="a_Node000035"><a xlink:href="pluma-file-browser-view_8h.html" target="_top" xlink:title=" ">
<polygon fill="white" stroke="#666666" points="1301,-162 1192,-162 1192,-132 1301,-132 1301,-162"/>
<text text-anchor="start" x="1200" y="-150" font-family="Helvetica,sans-Serif" font-size="10.00">pluma&#45;file&#45;browser</text>
<text text-anchor="middle" x="1246.5" y="-139" font-family="Helvetica,sans-Serif" font-size="10.00">&#45;view.h</text>
</a>
</g>
</g>
<!-- Node32&#45;&gt;Node35 -->
<g id="edge64_Node000032_Node000035" class="edge">
<title>Node32&#45;&gt;Node35</title>
<g id="a_edge64_Node000032_Node000035"><a xlink:title=" ">
<path fill="none" stroke="#63b8ff" d="M1193.59,-197.8C1202.57,-189.34 1214.13,-178.46 1224.15,-169.03"/>
<polygon fill="#63b8ff" stroke="#63b8ff" points="1226.57,-171.57 1231.45,-162.16 1221.77,-166.47 1226.57,-171.57"/>
</a>
</g>
</g>
<!-- Node33&#45;&gt;Node7 -->
<g id="edge61_Node000033_Node000007" class="edge">
<title>Node33&#45;&gt;Node7</title>
<g id="a_edge61_Node000033_Node000007"><a xlink:title=" ">
<path fill="none" stroke="#63b8ff" d="M967.4,-131.8C961.26,-122.21 953.12,-109.5 946.6,-99.32"/>
<polygon fill="#63b8ff" stroke="#63b8ff" points="949.51,-97.38 941.17,-90.84 943.61,-101.15 949.51,-97.38"/>
</a>
</g>
</g>
<!-- Node34&#45;&gt;Node7 -->
<g id="edge63_Node000034_Node000007" class="edge">
<title>Node34&#45;&gt;Node7</title>
<g id="a_edge63_Node000034_Node000007"><a xlink:title=" ">
<path fill="none" stroke="#63b8ff" d="M1072.88,-131.95C1041.6,-120.58 998.03,-104.74 968.4,-93.96"/>
<polygon fill="#63b8ff" stroke="#63b8ff" points="969.52,-90.65 958.92,-90.52 967.12,-97.22 969.52,-90.65"/>
</a>
</g>
</g>
<!-- Node35&#45;&gt;Node7 -->
<g id="edge65_Node000035_Node000007" class="edge">
<title>Node35&#45;&gt;Node7</title>
<g id="a_edge65_Node000035_Node000007"><a xlink:title=" ">
<path fill="none" stroke="#63b8ff" d="M1191.88,-133.79C1189.05,-133.18 1186.24,-132.58 1183.5,-132 1110.29,-116.49 1024.68,-99.48 975.6,-89.83"/>
<polygon fill="#63b8ff" stroke="#63b8ff" points="976.19,-86.38 965.7,-87.89 974.84,-93.25 976.19,-86.38"/>
</a>
</g>
</g>
<!-- Node36&#45;&gt;Node8 -->
<g id="edge67_Node000036_Node000008" class="edge">
<title>Node36&#45;&gt;Node8</title>
<g id="a_edge67_Node000036_Node000008"><a xlink:title=" ">
<path fill="none" stroke="#63b8ff" d="M710.4,-384.8C704.26,-375.21 696.12,-362.5 689.6,-352.32"/>
<polygon fill="#63b8ff" stroke="#63b8ff" points="692.51,-350.38 684.17,-343.84 686.61,-354.15 692.51,-350.38"/>
</a>
</g>
</g>
<!-- Node36&#45;&gt;Node17 -->
<g id="edge68_Node000036_Node000017" class="edge">
<title>Node36&#45;&gt;Node17</title>
<g id="a_edge68_Node000036_Node000017"><a xlink:title=" ">
<path fill="none" stroke="#63b8ff" d="M682.1,-384.92C659.16,-375.76 629.5,-362.95 604.5,-349 540.98,-313.55 472.4,-262.45 436.23,-234.39"/>
<polygon fill="#63b8ff" stroke="#63b8ff" points="438.21,-231.49 428.17,-228.1 433.9,-237.01 438.21,-231.49"/>
</a>
</g>
</g>
<!-- Node36&#45;&gt;Node32 -->
<g id="edge69_Node000036_Node000032" class="edge">
<title>Node36&#45;&gt;Node32</title>
<g id="a_edge69_Node000036_Node000032"><a xlink:title=" ">
<path fill="none" stroke="#63b8ff" d="M754.38,-384.94C836.73,-351.75 1043.17,-268.55 1134.2,-231.86"/>
<polygon fill="#63b8ff" stroke="#63b8ff" points="1135.71,-235.02 1143.68,-228.04 1133.09,-228.53 1135.71,-235.02"/>
</a>
</g>
</g>
</g>
</svg>
