<?xml version="1.0" encoding="UTF-8" standalone="no"?>
<!DOCTYPE svg PUBLIC "-//W3C//DTD SVG 1.1//EN"
 "http://www.w3.org/Graphics/SVG/1.1/DTD/svg11.dtd">
<!-- Generated by graphviz version 2.43.0 (0)
 -->
<!-- Title: pluma&#45;preferences&#45;dialog.h Pages: 1 -->
<svg width="314pt" height="82pt"
 viewBox="0.00 0.00 313.50 82.00" xmlns="http://www.w3.org/2000/svg" xmlns:xlink="http://www.w3.org/1999/xlink">
<g id="graph0" class="graph" transform="scale(1 1) rotate(0) translate(4 78)">
<title>pluma&#45;preferences&#45;dialog.h</title>
<!-- Node1 -->
<g id="Node000001" class="node">
<title>Node1</title>
<g id="a_Node000001"><a xlink:title=" ">
<polygon fill="#999999" stroke="#666666" points="225,-74 73,-74 73,-55 225,-55 225,-74"/>
<text text-anchor="middle" x="149" y="-62" font-family="Helvetica,sans-Serif" font-size="10.00">pluma&#45;preferences&#45;dialog.h</text>
</a>
</g>
</g>
<!-- Node2 -->
<g id="Node000002" class="node">
<title>Node2</title>
<g id="a_Node000002"><a xlink:href="pluma-commands-edit_8c.html" target="_top" xlink:title=" ">
<polygon fill="white" stroke="#666666" points="136,-19 0,-19 0,0 136,0 136,-19"/>
<text text-anchor="middle" x="68" y="-7" font-family="Helvetica,sans-Serif" font-size="10.00">pluma&#45;commands&#45;edit.c</text>
</a>
</g>
</g>
<!-- Node1&#45;&gt;Node2 -->
<g id="edge1_Node000001_Node000002" class="edge">
<title>Node1&#45;&gt;Node2</title>
<g id="a_edge1_Node000001_Node000002"><a xlink:title=" ">
<path fill="none" stroke="#63b8ff" d="M127.49,-49.42C112.79,-39.81 93.78,-27.37 81.25,-19.17"/>
<polygon fill="#63b8ff" stroke="#63b8ff" points="125.7,-52.44 135.99,-54.98 129.53,-46.58 125.7,-52.44"/>
</a>
</g>
</g>
<!-- Node3 -->
<g id="Node000003" class="node">
<title>Node3</title>
<g id="a_Node000003"><a xlink:href="pluma-preferences-dialog_8c.html" target="_top" xlink:title=" ">
<polygon fill="white" stroke="#666666" points="305.5,-19 154.5,-19 154.5,0 305.5,0 305.5,-19"/>
<text text-anchor="middle" x="230" y="-7" font-family="Helvetica,sans-Serif" font-size="10.00">pluma&#45;preferences&#45;dialog.c</text>
</a>
</g>
</g>
<!-- Node1&#45;&gt;Node3 -->
<g id="edge2_Node000001_Node000003" class="edge">
<title>Node1&#45;&gt;Node3</title>
<g id="a_edge2_Node000001_Node000003"><a xlink:title=" ">
<path fill="none" stroke="#63b8ff" d="M170.51,-49.42C185.21,-39.81 204.22,-27.37 216.75,-19.17"/>
<polygon fill="#63b8ff" stroke="#63b8ff" points="168.47,-46.58 162.01,-54.98 172.3,-52.44 168.47,-46.58"/>
</a>
</g>
</g>
</g>
</svg>
