<?xml version="1.0" encoding="UTF-8" standalone="no"?>
<!DOCTYPE svg PUBLIC "-//W3C//DTD SVG 1.1//EN"
 "http://www.w3.org/Graphics/SVG/1.1/DTD/svg11.dtd">
<!-- Generated by graphviz version 2.43.0 (0)
 -->
<!-- Title: pluma&#45;tab&#45;label.c Pages: 1 -->
<svg width="728pt" height="357pt"
 viewBox="0.00 0.00 727.50 357.00" xmlns="http://www.w3.org/2000/svg" xmlns:xlink="http://www.w3.org/1999/xlink">
<g id="graph0" class="graph" transform="scale(1 1) rotate(0) translate(4 353)">
<title>pluma&#45;tab&#45;label.c</title>
<!-- Node1 -->
<g id="Node000001" class="node">
<title>Node1</title>
<g id="a_Node000001"><a xlink:title=" ">
<polygon fill="#999999" stroke="#666666" points="197.5,-349 94.5,-349 94.5,-330 197.5,-330 197.5,-349"/>
<text text-anchor="middle" x="146" y="-337" font-family="Helvetica,sans-Serif" font-size="10.00">pluma&#45;tab&#45;label.c</text>
</a>
</g>
</g>
<!-- Node2 -->
<g id="Node000002" class="node">
<title>Node2</title>
<g id="a_Node000002"><a xlink:title=" ">
<polygon fill="#e0e0e0" stroke="#999999" points="74,-294 0,-294 0,-275 74,-275 74,-294"/>
<text text-anchor="middle" x="37" y="-282" font-family="Helvetica,sans-Serif" font-size="10.00">glib/gi18n.h</text>
</a>
</g>
</g>
<!-- Node1&#45;&gt;Node2 -->
<g id="edge1_Node000001_Node000002" class="edge">
<title>Node1&#45;&gt;Node2</title>
<g id="a_edge1_Node000001_Node000002"><a xlink:title=" ">
<path fill="none" stroke="#63b8ff" d="M128.49,-329.98C111.03,-321.5 83.99,-308.35 63.83,-298.54"/>
<polygon fill="#63b8ff" stroke="#63b8ff" points="65.36,-295.4 54.83,-294.17 62.29,-301.69 65.36,-295.4"/>
</a>
</g>
</g>
<!-- Node3 -->
<g id="Node000003" class="node">
<title>Node3</title>
<g id="a_Node000003"><a xlink:title=" ">
<polygon fill="#e0e0e0" stroke="#999999" points="309,-74 249,-74 249,-55 309,-55 309,-74"/>
<text text-anchor="middle" x="279" y="-62" font-family="Helvetica,sans-Serif" font-size="10.00">gtk/gtk.h</text>
</a>
</g>
</g>
<!-- Node1&#45;&gt;Node3 -->
<g id="edge2_Node000001_Node000003" class="edge">
<title>Node1&#45;&gt;Node3</title>
<g id="a_edge2_Node000001_Node000003"><a xlink:title=" ">
<path fill="none" stroke="#63b8ff" d="M139.7,-329.75C127.53,-311.98 102,-269.98 102,-230.5 102,-230.5 102,-230.5 102,-173.5 102,-109.72 186.79,-82.49 239,-71.77"/>
<polygon fill="#63b8ff" stroke="#63b8ff" points="239.82,-75.18 248.97,-69.84 238.49,-68.3 239.82,-75.18"/>
</a>
</g>
</g>
<!-- Node4 -->
<g id="Node000004" class="node">
<title>Node4</title>
<g id="a_Node000004"><a xlink:href="pluma-tab-label_8h.html" target="_top" xlink:title=" ">
<polygon fill="white" stroke="#666666" points="332,-294 228,-294 228,-275 332,-275 332,-294"/>
<text text-anchor="middle" x="280" y="-282" font-family="Helvetica,sans-Serif" font-size="10.00">pluma&#45;tab&#45;label.h</text>
</a>
</g>
</g>
<!-- Node1&#45;&gt;Node4 -->
<g id="edge3_Node000001_Node000004" class="edge">
<title>Node1&#45;&gt;Node4</title>
<g id="a_edge3_Node000001_Node000004"><a xlink:title=" ">
<path fill="none" stroke="#63b8ff" d="M167.53,-329.98C189.47,-321.3 223.74,-307.75 248.69,-297.88"/>
<polygon fill="#63b8ff" stroke="#63b8ff" points="250.07,-301.1 258.08,-294.17 247.49,-294.59 250.07,-301.1"/>
</a>
</g>
</g>
<!-- Node13 -->
<g id="Node000013" class="node">
<title>Node13</title>
<g id="a_Node000013"><a xlink:href="pluma-close-button_8h.html" target="_top" xlink:title=" ">
<polygon fill="white" stroke="#666666" points="251.5,-239 130.5,-239 130.5,-220 251.5,-220 251.5,-239"/>
<text text-anchor="middle" x="191" y="-227" font-family="Helvetica,sans-Serif" font-size="10.00">pluma&#45;close&#45;button.h</text>
</a>
</g>
</g>
<!-- Node1&#45;&gt;Node13 -->
<g id="edge18_Node000001_Node000013" class="edge">
<title>Node1&#45;&gt;Node13</title>
<g id="a_edge18_Node000001_Node000013"><a xlink:title=" ">
<path fill="none" stroke="#63b8ff" d="M149.68,-329.66C157.04,-312.01 173.67,-272.09 183.44,-248.64"/>
<polygon fill="#63b8ff" stroke="#63b8ff" points="186.78,-249.74 187.39,-239.16 180.32,-247.04 186.78,-249.74"/>
</a>
</g>
</g>
<!-- Node4&#45;&gt;Node3 -->
<g id="edge4_Node000004_Node000003" class="edge">
<title>Node4&#45;&gt;Node3</title>
<g id="a_edge4_Node000004_Node000003"><a xlink:title=" ">
<path fill="none" stroke="#63b8ff" d="M279.96,-274.95C279.81,-242.95 279.29,-129.68 279.09,-84.4"/>
<polygon fill="#63b8ff" stroke="#63b8ff" points="282.59,-84.21 279.04,-74.22 275.59,-84.24 282.59,-84.21"/>
</a>
</g>
</g>
<!-- Node5 -->
<g id="Node000005" class="node">
<title>Node5</title>
<g id="a_Node000005"><a xlink:href="pluma-tab_8h.html" target="_top" xlink:title=" ">
<polygon fill="white" stroke="#666666" points="439,-239 329,-239 329,-220 439,-220 439,-239"/>
<text text-anchor="middle" x="384" y="-227" font-family="Helvetica,sans-Serif" font-size="10.00">pluma/pluma&#45;tab.h</text>
</a>
</g>
</g>
<!-- Node4&#45;&gt;Node5 -->
<g id="edge5_Node000004_Node000005" class="edge">
<title>Node4&#45;&gt;Node5</title>
<g id="a_edge5_Node000004_Node000005"><a xlink:title=" ">
<path fill="none" stroke="#63b8ff" d="M296.71,-274.98C313.21,-266.57 338.7,-253.59 357.88,-243.81"/>
<polygon fill="#63b8ff" stroke="#63b8ff" points="359.67,-246.83 366.99,-239.17 356.49,-240.59 359.67,-246.83"/>
</a>
</g>
</g>
<!-- Node5&#45;&gt;Node3 -->
<g id="edge6_Node000005_Node000003" class="edge">
<title>Node5&#45;&gt;Node3</title>
<g id="a_edge6_Node000005_Node000003"><a xlink:title=" ">
<path fill="none" stroke="#63b8ff" d="M372.84,-219.9C362.56,-211.56 347.38,-198.12 337,-184 313.23,-151.67 294.84,-108.1 285.59,-83.81"/>
<polygon fill="#63b8ff" stroke="#63b8ff" points="288.75,-82.28 282,-74.12 282.19,-84.71 288.75,-82.28"/>
</a>
</g>
</g>
<!-- Node6 -->
<g id="Node000006" class="node">
<title>Node6</title>
<g id="a_Node000006"><a xlink:href="pluma-view_8h.html" target="_top" xlink:title=" ">
<polygon fill="white" stroke="#666666" points="462,-184 346,-184 346,-165 462,-165 462,-184"/>
<text text-anchor="middle" x="404" y="-172" font-family="Helvetica,sans-Serif" font-size="10.00">pluma/pluma&#45;view.h</text>
</a>
</g>
</g>
<!-- Node5&#45;&gt;Node6 -->
<g id="edge7_Node000005_Node000006" class="edge">
<title>Node5&#45;&gt;Node6</title>
<g id="a_edge7_Node000005_Node000006"><a xlink:title=" ">
<path fill="none" stroke="#63b8ff" d="M387.3,-219.75C389.98,-212.65 393.85,-202.4 397.19,-193.56"/>
<polygon fill="#63b8ff" stroke="#63b8ff" points="400.5,-194.68 400.76,-184.09 393.95,-192.21 400.5,-194.68"/>
</a>
</g>
</g>
<!-- Node7 -->
<g id="Node000007" class="node">
<title>Node7</title>
<g id="a_Node000007"><a xlink:href="pluma-document_8h.html" target="_top" xlink:title=" ">
<polygon fill="white" stroke="#666666" points="571.5,-129 428.5,-129 428.5,-110 571.5,-110 571.5,-129"/>
<text text-anchor="middle" x="500" y="-117" font-family="Helvetica,sans-Serif" font-size="10.00">pluma/pluma&#45;document.h</text>
</a>
</g>
</g>
<!-- Node5&#45;&gt;Node7 -->
<g id="edge17_Node000005_Node000007" class="edge">
<title>Node5&#45;&gt;Node7</title>
<g id="a_edge17_Node000005_Node000007"><a xlink:title=" ">
<path fill="none" stroke="#63b8ff" d="M411.29,-219.94C430.1,-212.86 454.58,-201.16 471,-184 483.03,-171.42 490.69,-152.97 495.1,-139.2"/>
<polygon fill="#63b8ff" stroke="#63b8ff" points="498.53,-139.93 497.95,-129.35 491.8,-137.98 498.53,-139.93"/>
</a>
</g>
</g>
<!-- Node6&#45;&gt;Node3 -->
<g id="edge8_Node000006_Node000003" class="edge">
<title>Node6&#45;&gt;Node3</title>
<g id="a_edge8_Node000006_Node000003"><a xlink:title=" ">
<path fill="none" stroke="#63b8ff" d="M394.28,-164.8C380.51,-152.49 354.49,-129.35 332,-110 320.62,-100.2 307.71,-89.36 297.49,-80.84"/>
<polygon fill="#63b8ff" stroke="#63b8ff" points="299.55,-78 289.62,-74.29 295.07,-83.38 299.55,-78"/>
</a>
</g>
</g>
<!-- Node6&#45;&gt;Node7 -->
<g id="edge9_Node000006_Node000007" class="edge">
<title>Node6&#45;&gt;Node7</title>
<g id="a_edge9_Node000006_Node000007"><a xlink:title=" ">
<path fill="none" stroke="#63b8ff" d="M419.42,-164.98C434.45,-156.69 457.54,-143.94 475.16,-134.22"/>
<polygon fill="#63b8ff" stroke="#63b8ff" points="477.23,-137.07 484.3,-129.17 473.85,-130.94 477.23,-137.07"/>
</a>
</g>
</g>
<!-- Node9 -->
<g id="Node000009" class="node">
<title>Node9</title>
<g id="a_Node000009"><a xlink:title=" ">
<polygon fill="#e0e0e0" stroke="#999999" points="475,-74 327,-74 327,-55 475,-55 475,-74"/>
<text text-anchor="middle" x="401" y="-62" font-family="Helvetica,sans-Serif" font-size="10.00">gtksourceview/gtksource.h</text>
</a>
</g>
</g>
<!-- Node6&#45;&gt;Node9 -->
<g id="edge16_Node000006_Node000009" class="edge">
<title>Node6&#45;&gt;Node9</title>
<g id="a_edge16_Node000006_Node000009"><a xlink:title=" ">
<path fill="none" stroke="#63b8ff" d="M403.75,-164.66C403.27,-147.17 402.18,-107.8 401.52,-84.27"/>
<polygon fill="#63b8ff" stroke="#63b8ff" points="405.02,-84.06 401.24,-74.16 398.02,-84.25 405.02,-84.06"/>
</a>
</g>
</g>
<!-- Node7&#45;&gt;Node3 -->
<g id="edge11_Node000007_Node000003" class="edge">
<title>Node7&#45;&gt;Node3</title>
<g id="a_edge11_Node000007_Node000003"><a xlink:title=" ">
<path fill="none" stroke="#63b8ff" d="M464.49,-109.98C424.7,-100.44 360.35,-85.01 318.86,-75.06"/>
<polygon fill="#63b8ff" stroke="#63b8ff" points="319.63,-71.65 309.09,-72.72 318,-78.45 319.63,-71.65"/>
</a>
</g>
</g>
<!-- Node8 -->
<g id="Node000008" class="node">
<title>Node8</title>
<g id="a_Node000008"><a xlink:title=" ">
<polygon fill="#e0e0e0" stroke="#999999" points="552.5,-74 493.5,-74 493.5,-55 552.5,-55 552.5,-74"/>
<text text-anchor="middle" x="523" y="-62" font-family="Helvetica,sans-Serif" font-size="10.00">gio/gio.h</text>
</a>
</g>
</g>
<!-- Node7&#45;&gt;Node8 -->
<g id="edge10_Node000007_Node000008" class="edge">
<title>Node7&#45;&gt;Node8</title>
<g id="a_edge10_Node000007_Node000008"><a xlink:title=" ">
<path fill="none" stroke="#63b8ff" d="M503.8,-109.75C506.91,-102.57 511.42,-92.18 515.29,-83.27"/>
<polygon fill="#63b8ff" stroke="#63b8ff" points="518.5,-84.66 519.27,-74.09 512.08,-81.87 518.5,-84.66"/>
</a>
</g>
</g>
<!-- Node7&#45;&gt;Node9 -->
<g id="edge12_Node000007_Node000009" class="edge">
<title>Node7&#45;&gt;Node9</title>
<g id="a_edge12_Node000007_Node000009"><a xlink:title=" ">
<path fill="none" stroke="#63b8ff" d="M484.09,-109.98C468.45,-101.61 444.34,-88.7 426.12,-78.95"/>
<polygon fill="#63b8ff" stroke="#63b8ff" points="427.66,-75.8 417.2,-74.17 424.36,-81.98 427.66,-75.8"/>
</a>
</g>
</g>
<!-- Node10 -->
<g id="Node000010" class="node">
<title>Node10</title>
<g id="a_Node000010"><a xlink:href="pluma-encodings_8h.html" target="_top" xlink:title=" ">
<polygon fill="white" stroke="#666666" points="713.5,-74 570.5,-74 570.5,-55 713.5,-55 713.5,-74"/>
<text text-anchor="middle" x="642" y="-62" font-family="Helvetica,sans-Serif" font-size="10.00">pluma/pluma&#45;encodings.h</text>
</a>
</g>
</g>
<!-- Node7&#45;&gt;Node10 -->
<g id="edge13_Node000007_Node000010" class="edge">
<title>Node7&#45;&gt;Node10</title>
<g id="a_edge13_Node000007_Node000010"><a xlink:title=" ">
<path fill="none" stroke="#63b8ff" d="M522.81,-109.98C546.17,-101.27 582.7,-87.63 609.17,-77.75"/>
<polygon fill="#63b8ff" stroke="#63b8ff" points="610.63,-80.95 618.77,-74.17 608.18,-74.39 610.63,-80.95"/>
</a>
</g>
</g>
<!-- Node11 -->
<g id="Node000011" class="node">
<title>Node11</title>
<g id="a_Node000011"><a xlink:title=" ">
<polygon fill="#e0e0e0" stroke="#999999" points="624,-19 580,-19 580,0 624,0 624,-19"/>
<text text-anchor="middle" x="602" y="-7" font-family="Helvetica,sans-Serif" font-size="10.00">glib.h</text>
</a>
</g>
</g>
<!-- Node10&#45;&gt;Node11 -->
<g id="edge14_Node000010_Node000011" class="edge">
<title>Node10&#45;&gt;Node11</title>
<g id="a_edge14_Node000010_Node000011"><a xlink:title=" ">
<path fill="none" stroke="#63b8ff" d="M635.39,-54.75C629.74,-47.26 621.46,-36.28 614.55,-27.13"/>
<polygon fill="#63b8ff" stroke="#63b8ff" points="617.3,-24.96 608.48,-19.09 611.71,-29.18 617.3,-24.96"/>
</a>
</g>
</g>
<!-- Node12 -->
<g id="Node000012" class="node">
<title>Node12</title>
<g id="a_Node000012"><a xlink:title=" ">
<polygon fill="#e0e0e0" stroke="#999999" points="719.5,-19 642.5,-19 642.5,0 719.5,0 719.5,-19"/>
<text text-anchor="middle" x="681" y="-7" font-family="Helvetica,sans-Serif" font-size="10.00">glib&#45;object.h</text>
</a>
</g>
</g>
<!-- Node10&#45;&gt;Node12 -->
<g id="edge15_Node000010_Node000012" class="edge">
<title>Node10&#45;&gt;Node12</title>
<g id="a_edge15_Node000010_Node000012"><a xlink:title=" ">
<path fill="none" stroke="#63b8ff" d="M648.44,-54.75C653.89,-47.34 661.86,-36.5 668.56,-27.41"/>
<polygon fill="#63b8ff" stroke="#63b8ff" points="671.57,-29.22 674.68,-19.09 665.93,-25.07 671.57,-29.22"/>
</a>
</g>
</g>
<!-- Node13&#45;&gt;Node3 -->
<g id="edge19_Node000013_Node000003" class="edge">
<title>Node13&#45;&gt;Node3</title>
<g id="a_edge19_Node000013_Node000003"><a xlink:title=" ">
<path fill="none" stroke="#63b8ff" d="M195.73,-219.74C209.64,-193.98 250.58,-118.13 269.38,-83.33"/>
<polygon fill="#63b8ff" stroke="#63b8ff" points="272.57,-84.77 274.25,-74.31 266.41,-81.44 272.57,-84.77"/>
</a>
</g>
</g>
</g>
</svg>
