<?xml version="1.0" encoding="UTF-8" standalone="no"?>
<!DOCTYPE svg PUBLIC "-//W3C//DTD SVG 1.1//EN"
 "http://www.w3.org/Graphics/SVG/1.1/DTD/svg11.dtd">
<!-- Generated by graphviz version 2.43.0 (0)
 -->
<!-- Title: pluma&#45;time&#45;plugin.c Pages: 1 -->
<svg width="1358pt" height="412pt"
 viewBox="0.00 0.00 1357.50 412.00" xmlns="http://www.w3.org/2000/svg" xmlns:xlink="http://www.w3.org/1999/xlink">
<g id="graph0" class="graph" transform="scale(1 1) rotate(0) translate(4 408)">
<title>pluma&#45;time&#45;plugin.c</title>
<!-- Node1 -->
<g id="Node000001" class="node">
<title>Node1</title>
<g id="a_Node000001"><a xlink:title=" ">
<polygon fill="#999999" stroke="#666666" points="744,-404 628,-404 628,-385 744,-385 744,-404"/>
<text text-anchor="middle" x="686" y="-392" font-family="Helvetica,sans-Serif" font-size="10.00">pluma&#45;time&#45;plugin.c</text>
</a>
</g>
</g>
<!-- Node2 -->
<g id="Node000002" class="node">
<title>Node2</title>
<g id="a_Node000002"><a xlink:title=" ">
<polygon fill="#e0e0e0" stroke="#999999" points="136.5,-343.5 83.5,-343.5 83.5,-324.5 136.5,-324.5 136.5,-343.5"/>
<text text-anchor="middle" x="110" y="-331.5" font-family="Helvetica,sans-Serif" font-size="10.00">string.h</text>
</a>
</g>
</g>
<!-- Node1&#45;&gt;Node2 -->
<g id="edge1_Node000001_Node000002" class="edge">
<title>Node1&#45;&gt;Node2</title>
<g id="a_edge1_Node000001_Node000002"><a xlink:title=" ">
<path fill="none" stroke="#63b8ff" d="M627.93,-393.32C528.99,-391.98 321.83,-384.7 151,-349 147.93,-348.36 144.78,-347.56 141.65,-346.66"/>
<polygon fill="#63b8ff" stroke="#63b8ff" points="142.44,-343.24 131.85,-343.57 140.34,-349.92 142.44,-343.24"/>
</a>
</g>
</g>
<!-- Node3 -->
<g id="Node000003" class="node">
<title>Node3</title>
<g id="a_Node000003"><a xlink:href="pluma-time-plugin_8h.html" target="_top" xlink:title=" ">
<polygon fill="white" stroke="#666666" points="248,-85 132,-85 132,-66 248,-66 248,-85"/>
<text text-anchor="middle" x="190" y="-73" font-family="Helvetica,sans-Serif" font-size="10.00">pluma&#45;time&#45;plugin.h</text>
</a>
</g>
</g>
<!-- Node1&#45;&gt;Node3 -->
<g id="edge2_Node000001_Node000003" class="edge">
<title>Node1&#45;&gt;Node3</title>
<g id="a_edge2_Node000001_Node000003"><a xlink:title=" ">
<path fill="none" stroke="#63b8ff" d="M627.75,-391.82C491.8,-386.31 165,-363.28 165,-269 165,-269 165,-269 165,-201 165,-162.57 176.59,-118.76 183.99,-94.7"/>
<polygon fill="#63b8ff" stroke="#63b8ff" points="187.34,-95.73 187.03,-85.13 180.67,-93.6 187.34,-95.73"/>
</a>
</g>
</g>
<!-- Node4 -->
<g id="Node000004" class="node">
<title>Node4</title>
<g id="a_Node000004"><a xlink:title=" ">
<polygon fill="#e0e0e0" stroke="#999999" points="336,-24.5 292,-24.5 292,-5.5 336,-5.5 336,-24.5"/>
<text text-anchor="middle" x="314" y="-12.5" font-family="Helvetica,sans-Serif" font-size="10.00">glib.h</text>
</a>
</g>
</g>
<!-- Node1&#45;&gt;Node4 -->
<g id="edge10_Node000001_Node000004" class="edge">
<title>Node1&#45;&gt;Node4</title>
<g id="a_edge10_Node000001_Node000004"><a xlink:title=" ">
<path fill="none" stroke="#63b8ff" d="M627.62,-386.18C590.48,-379.89 542.18,-368.61 503,-349 461.78,-328.36 452.45,-318.46 423,-283 380.17,-231.43 375.05,-213.19 350,-151 333.9,-111.02 322.8,-61.49 317.52,-34.94"/>
<polygon fill="#63b8ff" stroke="#63b8ff" points="320.89,-33.92 315.56,-24.77 314.02,-35.25 320.89,-33.92"/>
</a>
</g>
</g>
<!-- Node8 -->
<g id="Node000008" class="node">
<title>Node8</title>
<g id="a_Node000008"><a xlink:href="pluma-help_8h.html" target="_top" xlink:title=" ">
<polygon fill="white" stroke="#666666" points="526.5,-211.5 411.5,-211.5 411.5,-192.5 526.5,-192.5 526.5,-211.5"/>
<text text-anchor="middle" x="469" y="-199.5" font-family="Helvetica,sans-Serif" font-size="10.00">pluma/pluma&#45;help.h</text>
</a>
</g>
</g>
<!-- Node1&#45;&gt;Node8 -->
<g id="edge7_Node000001_Node000008" class="edge">
<title>Node1&#45;&gt;Node8</title>
<g id="a_edge7_Node000001_Node000008"><a xlink:title=" ">
<path fill="none" stroke="#63b8ff" d="M676.11,-384.82C642.15,-355.01 529.97,-256.53 486.46,-218.33"/>
<polygon fill="#63b8ff" stroke="#63b8ff" points="488.77,-215.7 478.95,-211.73 484.15,-220.96 488.77,-215.7"/>
</a>
</g>
</g>
<!-- Node10 -->
<g id="Node000010" class="node">
<title>Node10</title>
<g id="a_Node000010"><a xlink:title=" ">
<polygon fill="#e0e0e0" stroke="#999999" points="1127.5,-343.5 1038.5,-343.5 1038.5,-324.5 1127.5,-324.5 1127.5,-343.5"/>
<text text-anchor="middle" x="1083" y="-331.5" font-family="Helvetica,sans-Serif" font-size="10.00">glib/gi18n&#45;lib.h</text>
</a>
</g>
</g>
<!-- Node1&#45;&gt;Node10 -->
<g id="edge9_Node000001_Node000010" class="edge">
<title>Node1&#45;&gt;Node10</title>
<g id="a_edge9_Node000001_Node000010"><a xlink:title=" ">
<path fill="none" stroke="#63b8ff" d="M744.3,-387.65C811.89,-380.45 926.5,-366.94 1024,-349 1029.11,-348.06 1034.44,-346.96 1039.72,-345.8"/>
<polygon fill="#63b8ff" stroke="#63b8ff" points="1040.77,-349.15 1049.74,-343.52 1039.21,-342.33 1040.77,-349.15"/>
</a>
</g>
</g>
<!-- Node11 -->
<g id="Node000011" class="node">
<title>Node11</title>
<g id="a_Node000011"><a xlink:title=" ">
<polygon fill="#e0e0e0" stroke="#999999" points="1214,-343.5 1146,-343.5 1146,-324.5 1214,-324.5 1214,-343.5"/>
<text text-anchor="middle" x="1180" y="-331.5" font-family="Helvetica,sans-Serif" font-size="10.00">gmodule.h</text>
</a>
</g>
</g>
<!-- Node1&#45;&gt;Node11 -->
<g id="edge11_Node000001_Node000011" class="edge">
<title>Node1&#45;&gt;Node11</title>
<g id="a_edge11_Node000001_Node000011"><a xlink:title=" ">
<path fill="none" stroke="#63b8ff" d="M744.28,-391.77C830.81,-388.3 998,-378.13 1137,-349 1140.23,-348.32 1143.55,-347.49 1146.86,-346.58"/>
<polygon fill="#63b8ff" stroke="#63b8ff" points="1148.03,-349.88 1156.59,-343.64 1146.01,-343.18 1148.03,-349.88"/>
</a>
</g>
</g>
<!-- Node12 -->
<g id="Node000012" class="node">
<title>Node12</title>
<g id="a_Node000012"><a xlink:title=" ">
<polygon fill="#e0e0e0" stroke="#999999" points="972.5,-85 913.5,-85 913.5,-66 972.5,-66 972.5,-85"/>
<text text-anchor="middle" x="943" y="-73" font-family="Helvetica,sans-Serif" font-size="10.00">gio/gio.h</text>
</a>
</g>
</g>
<!-- Node1&#45;&gt;Node12 -->
<g id="edge12_Node000001_Node000012" class="edge">
<title>Node1&#45;&gt;Node12</title>
<g id="a_edge12_Node000001_Node000012"><a xlink:title=" ">
<path fill="none" stroke="#63b8ff" d="M744.17,-389.83C804.86,-384.74 894.43,-373.27 918,-349 986.47,-278.49 960.6,-143.98 948.15,-94.96"/>
<polygon fill="#63b8ff" stroke="#63b8ff" points="951.49,-93.89 945.54,-85.13 944.73,-95.69 951.49,-93.89"/>
</a>
</g>
</g>
<!-- Node13 -->
<g id="Node000013" class="node">
<title>Node13</title>
<g id="a_Node000013"><a xlink:title=" ">
<polygon fill="#e0e0e0" stroke="#999999" points="1349.5,-349 1232.5,-349 1232.5,-319 1349.5,-319 1349.5,-349"/>
<text text-anchor="start" x="1240.5" y="-337" font-family="Helvetica,sans-Serif" font-size="10.00">libpeas&#45;gtk/peas&#45;gtk</text>
<text text-anchor="middle" x="1291" y="-326" font-family="Helvetica,sans-Serif" font-size="10.00">&#45;configurable.h</text>
</a>
</g>
</g>
<!-- Node1&#45;&gt;Node13 -->
<g id="edge13_Node000001_Node000013" class="edge">
<title>Node1&#45;&gt;Node13</title>
<g id="a_edge13_Node000001_Node000013"><a xlink:title=" ">
<path fill="none" stroke="#63b8ff" d="M744.27,-390.97C841.34,-386.26 1042.41,-374.35 1222.55,-348.93"/>
<polygon fill="#63b8ff" stroke="#63b8ff" points="1223.07,-352.39 1232.47,-347.52 1222.08,-345.46 1223.07,-352.39"/>
</a>
</g>
</g>
<!-- Node14 -->
<g id="Node000014" class="node">
<title>Node14</title>
<g id="a_Node000014"><a xlink:href="pluma-window-activatable_8h.html" target="_top" xlink:title=" ">
<polygon fill="white" stroke="#666666" points="1273,-283 1151,-283 1151,-253 1273,-253 1273,-283"/>
<text text-anchor="start" x="1159" y="-271" font-family="Helvetica,sans-Serif" font-size="10.00">pluma/pluma&#45;window</text>
<text text-anchor="middle" x="1212" y="-260" font-family="Helvetica,sans-Serif" font-size="10.00">&#45;activatable.h</text>
</a>
</g>
</g>
<!-- Node1&#45;&gt;Node14 -->
<g id="edge14_Node000001_Node000014" class="edge">
<title>Node1&#45;&gt;Node14</title>
<g id="a_edge14_Node000001_Node000014"><a xlink:title=" ">
<path fill="none" stroke="#63b8ff" d="M744.08,-392.54C806,-389.78 905.95,-380.31 986,-349 1008.04,-340.38 1008.52,-328.94 1030,-319 1065.05,-302.79 1106.41,-290.9 1140.83,-282.8"/>
<polygon fill="#63b8ff" stroke="#63b8ff" points="1141.85,-286.16 1150.81,-280.51 1140.28,-279.34 1141.85,-286.16"/>
</a>
</g>
</g>
<!-- Node15 -->
<g id="Node000015" class="node">
<title>Node15</title>
<g id="a_Node000015"><a xlink:href="pluma-window_8h.html" target="_top" xlink:title=" ">
<polygon fill="white" stroke="#666666" points="908.5,-343.5 777.5,-343.5 777.5,-324.5 908.5,-324.5 908.5,-343.5"/>
<text text-anchor="middle" x="843" y="-331.5" font-family="Helvetica,sans-Serif" font-size="10.00">pluma/pluma&#45;window.h</text>
</a>
</g>
</g>
<!-- Node1&#45;&gt;Node15 -->
<g id="edge16_Node000001_Node000015" class="edge">
<title>Node1&#45;&gt;Node15</title>
<g id="a_edge16_Node000001_Node000015"><a xlink:title=" ">
<path fill="none" stroke="#63b8ff" d="M708.83,-384.99C735.57,-375.03 780.08,-358.45 810.44,-347.13"/>
<polygon fill="#63b8ff" stroke="#63b8ff" points="811.99,-350.29 820.14,-343.52 809.55,-343.73 811.99,-350.29"/>
</a>
</g>
</g>
<!-- Node26 -->
<g id="Node000026" class="node">
<title>Node26</title>
<g id="a_Node000026"><a xlink:href="pluma-debug_8h.html" target="_top" xlink:title=" ">
<polygon fill="white" stroke="#666666" points="317,-277.5 193,-277.5 193,-258.5 317,-258.5 317,-277.5"/>
<text text-anchor="middle" x="255" y="-265.5" font-family="Helvetica,sans-Serif" font-size="10.00">pluma/pluma&#45;debug.h</text>
</a>
</g>
</g>
<!-- Node1&#45;&gt;Node26 -->
<g id="edge43_Node000001_Node000026" class="edge">
<title>Node1&#45;&gt;Node26</title>
<g id="a_edge43_Node000001_Node000026"><a xlink:title=" ">
<path fill="none" stroke="#63b8ff" d="M627.88,-390.94C540.9,-386.33 381.66,-374.6 331,-349 302.48,-334.59 278.86,-304.99 265.86,-286.12"/>
<polygon fill="#63b8ff" stroke="#63b8ff" points="268.65,-283.99 260.21,-277.59 262.82,-287.86 268.65,-283.99"/>
</a>
</g>
</g>
<!-- Node27 -->
<g id="Node000027" class="node">
<title>Node27</title>
<g id="a_Node000027"><a xlink:href="pluma-utils_8h.html" target="_top" xlink:title=" ">
<polygon fill="white" stroke="#666666" points="473.5,-145.5 358.5,-145.5 358.5,-126.5 473.5,-126.5 473.5,-145.5"/>
<text text-anchor="middle" x="416" y="-133.5" font-family="Helvetica,sans-Serif" font-size="10.00">pluma/pluma&#45;utils.h</text>
</a>
</g>
</g>
<!-- Node1&#45;&gt;Node27 -->
<g id="edge45_Node000001_Node000027" class="edge">
<title>Node1&#45;&gt;Node27</title>
<g id="a_edge45_Node000001_Node000027"><a xlink:title=" ">
<path fill="none" stroke="#63b8ff" d="M653.57,-384.88C591.2,-366.33 456.01,-316.04 403,-217 392.55,-197.48 399.86,-171.73 407.04,-154.79"/>
<polygon fill="#63b8ff" stroke="#63b8ff" points="410.31,-156.06 411.34,-145.51 403.96,-153.11 410.31,-156.06"/>
</a>
</g>
</g>
<!-- Node3&#45;&gt;Node4 -->
<g id="edge3_Node000003_Node000004" class="edge">
<title>Node3&#45;&gt;Node4</title>
<g id="a_edge3_Node000003_Node000004"><a xlink:title=" ">
<path fill="none" stroke="#63b8ff" d="M208.03,-65.99C228.69,-56.25 262.78,-40.16 286.7,-28.88"/>
<polygon fill="#63b8ff" stroke="#63b8ff" points="288.4,-31.95 295.95,-24.52 285.41,-25.62 288.4,-31.95"/>
</a>
</g>
</g>
<!-- Node5 -->
<g id="Node000005" class="node">
<title>Node5</title>
<g id="a_Node000005"><a xlink:title=" ">
<polygon fill="#e0e0e0" stroke="#999999" points="1076.5,-24.5 999.5,-24.5 999.5,-5.5 1076.5,-5.5 1076.5,-24.5"/>
<text text-anchor="middle" x="1038" y="-12.5" font-family="Helvetica,sans-Serif" font-size="10.00">glib&#45;object.h</text>
</a>
</g>
</g>
<!-- Node3&#45;&gt;Node5 -->
<g id="edge4_Node000003_Node000005" class="edge">
<title>Node3&#45;&gt;Node5</title>
<g id="a_edge4_Node000003_Node000005"><a xlink:title=" ">
<path fill="none" stroke="#63b8ff" d="M248.29,-70.48C406.7,-59.55 843.04,-29.45 989.41,-19.35"/>
<polygon fill="#63b8ff" stroke="#63b8ff" points="989.7,-22.84 999.44,-18.66 989.22,-15.86 989.7,-22.84"/>
</a>
</g>
</g>
<!-- Node6 -->
<g id="Node000006" class="node">
<title>Node6</title>
<g id="a_Node000006"><a xlink:title=" ">
<polygon fill="#e0e0e0" stroke="#999999" points="130,-30 0,-30 0,0 130,0 130,-30"/>
<text text-anchor="start" x="8" y="-18" font-family="Helvetica,sans-Serif" font-size="10.00">libpeas/peas&#45;extension</text>
<text text-anchor="middle" x="65" y="-7" font-family="Helvetica,sans-Serif" font-size="10.00">&#45;base.h</text>
</a>
</g>
</g>
<!-- Node3&#45;&gt;Node6 -->
<g id="edge5_Node000003_Node000006" class="edge">
<title>Node3&#45;&gt;Node6</title>
<g id="a_edge5_Node000003_Node000006"><a xlink:title=" ">
<path fill="none" stroke="#63b8ff" d="M171.82,-65.99C154.29,-57.79 127.16,-45.09 104.63,-34.55"/>
<polygon fill="#63b8ff" stroke="#63b8ff" points="105.83,-31.25 95.29,-30.18 102.87,-37.59 105.83,-31.25"/>
</a>
</g>
</g>
<!-- Node7 -->
<g id="Node000007" class="node">
<title>Node7</title>
<g id="a_Node000007"><a xlink:title=" ">
<polygon fill="#e0e0e0" stroke="#999999" points="260,-30 148,-30 148,0 260,0 260,-30"/>
<text text-anchor="start" x="156" y="-18" font-family="Helvetica,sans-Serif" font-size="10.00">libpeas/peas&#45;object</text>
<text text-anchor="middle" x="204" y="-7" font-family="Helvetica,sans-Serif" font-size="10.00">&#45;module.h</text>
</a>
</g>
</g>
<!-- Node3&#45;&gt;Node7 -->
<g id="edge6_Node000003_Node000007" class="edge">
<title>Node3&#45;&gt;Node7</title>
<g id="a_edge6_Node000003_Node000007"><a xlink:title=" ">
<path fill="none" stroke="#63b8ff" d="M192.07,-65.87C193.7,-59.03 196.07,-49.14 198.26,-39.97"/>
<polygon fill="#63b8ff" stroke="#63b8ff" points="201.7,-40.65 200.62,-30.11 194.89,-39.03 201.7,-40.65"/>
</a>
</g>
</g>
<!-- Node9 -->
<g id="Node000009" class="node">
<title>Node9</title>
<g id="a_Node000009"><a xlink:title=" ">
<polygon fill="#e0e0e0" stroke="#999999" points="846,-85 786,-85 786,-66 846,-66 846,-85"/>
<text text-anchor="middle" x="816" y="-73" font-family="Helvetica,sans-Serif" font-size="10.00">gtk/gtk.h</text>
</a>
</g>
</g>
<!-- Node8&#45;&gt;Node9 -->
<g id="edge8_Node000008_Node000009" class="edge">
<title>Node8&#45;&gt;Node9</title>
<g id="a_edge8_Node000008_Node000009"><a xlink:title=" ">
<path fill="none" stroke="#63b8ff" d="M479.18,-192.46C499.46,-175.94 546.9,-139.58 593,-121 667.34,-91.04 693.41,-101.02 775.73,-85.16"/>
<polygon fill="#63b8ff" stroke="#63b8ff" points="776.66,-88.55 785.78,-83.15 775.29,-81.68 776.66,-88.55"/>
</a>
</g>
</g>
<!-- Node14&#45;&gt;Node5 -->
<g id="edge15_Node000014_Node000005" class="edge">
<title>Node14&#45;&gt;Node5</title>
<g id="a_edge15_Node000014_Node000005"><a xlink:title=" ">
<path fill="none" stroke="#63b8ff" d="M1219.49,-252.87C1237.33,-217.05 1277.57,-121.6 1232,-66 1213.8,-43.79 1138.36,-29.43 1087.1,-22.03"/>
<polygon fill="#63b8ff" stroke="#63b8ff" points="1087.27,-18.52 1076.88,-20.6 1086.3,-25.45 1087.27,-18.52"/>
</a>
</g>
</g>
<!-- Node15&#45;&gt;Node9 -->
<g id="edge18_Node000015_Node000009" class="edge">
<title>Node15&#45;&gt;Node9</title>
<g id="a_edge18_Node000015_Node000009"><a xlink:title=" ">
<path fill="none" stroke="#63b8ff" d="M849.02,-324.45C864.08,-301.96 901.17,-239.28 886,-187 875.2,-149.79 847.7,-113.09 830.56,-92.76"/>
<polygon fill="#63b8ff" stroke="#63b8ff" points="833.12,-90.36 823.93,-85.09 827.82,-94.94 833.12,-90.36"/>
</a>
</g>
</g>
<!-- Node15&#45;&gt;Node12 -->
<g id="edge17_Node000015_Node000012" class="edge">
<title>Node15&#45;&gt;Node12</title>
<g id="a_edge17_Node000015_Node000012"><a xlink:title=" ">
<path fill="none" stroke="#63b8ff" d="M854.25,-324.28C865.25,-315.16 881.67,-299.84 891,-283 925.9,-219.99 937.8,-133.27 941.49,-95.44"/>
<polygon fill="#63b8ff" stroke="#63b8ff" points="944.99,-95.61 942.39,-85.34 938.02,-94.99 944.99,-95.61"/>
</a>
</g>
</g>
<!-- Node16 -->
<g id="Node000016" class="node">
<title>Node16</title>
<g id="a_Node000016"><a xlink:href="pluma-tab_8h.html" target="_top" xlink:title=" ">
<polygon fill="white" stroke="#666666" points="763,-277.5 653,-277.5 653,-258.5 763,-258.5 763,-277.5"/>
<text text-anchor="middle" x="708" y="-265.5" font-family="Helvetica,sans-Serif" font-size="10.00">pluma/pluma&#45;tab.h</text>
</a>
</g>
</g>
<!-- Node15&#45;&gt;Node16 -->
<g id="edge19_Node000015_Node000016" class="edge">
<title>Node15&#45;&gt;Node16</title>
<g id="a_edge19_Node000015_Node000016"><a xlink:title=" ">
<path fill="none" stroke="#63b8ff" d="M824.79,-324.37C801.85,-313.49 762.19,-294.69 735.53,-282.05"/>
<polygon fill="#63b8ff" stroke="#63b8ff" points="736.88,-278.82 726.35,-277.7 733.89,-285.15 736.88,-278.82"/>
</a>
</g>
</g>
<!-- Node21 -->
<g id="Node000021" class="node">
<title>Node21</title>
<g id="a_Node000021"><a xlink:href="pluma-panel_8h.html" target="_top" xlink:title=" ">
<polygon fill="white" stroke="#666666" points="876.5,-211.5 755.5,-211.5 755.5,-192.5 876.5,-192.5 876.5,-211.5"/>
<text text-anchor="middle" x="816" y="-199.5" font-family="Helvetica,sans-Serif" font-size="10.00">pluma/pluma&#45;panel.h</text>
</a>
</g>
</g>
<!-- Node15&#45;&gt;Node21 -->
<g id="edge32_Node000015_Node000021" class="edge">
<title>Node15&#45;&gt;Node21</title>
<g id="a_edge32_Node000015_Node000021"><a xlink:title=" ">
<path fill="none" stroke="#63b8ff" d="M841.23,-324.47C836.92,-303.73 825.81,-250.24 819.88,-221.66"/>
<polygon fill="#63b8ff" stroke="#63b8ff" points="823.27,-220.81 817.81,-211.73 816.42,-222.23 823.27,-220.81"/>
</a>
</g>
</g>
<!-- Node22 -->
<g id="Node000022" class="node">
<title>Node22</title>
<g id="a_Node000022"><a xlink:href="pluma-message-bus_8h.html" target="_top" xlink:title=" ">
<polygon fill="white" stroke="#666666" points="1138.5,-217 1009.5,-217 1009.5,-187 1138.5,-187 1138.5,-217"/>
<text text-anchor="start" x="1017.5" y="-205" font-family="Helvetica,sans-Serif" font-size="10.00">pluma/pluma&#45;message</text>
<text text-anchor="middle" x="1074" y="-194" font-family="Helvetica,sans-Serif" font-size="10.00">&#45;bus.h</text>
</a>
</g>
</g>
<!-- Node15&#45;&gt;Node22 -->
<g id="edge34_Node000015_Node000022" class="edge">
<title>Node15&#45;&gt;Node22</title>
<g id="a_edge34_Node000015_Node000022"><a xlink:title=" ">
<path fill="none" stroke="#63b8ff" d="M865.88,-324.43C889.33,-315.3 926.57,-299.88 957,-283 989.44,-265 1024.24,-240.46 1047.38,-223.32"/>
<polygon fill="#63b8ff" stroke="#63b8ff" points="1049.73,-225.94 1055.64,-217.15 1045.54,-220.33 1049.73,-225.94"/>
</a>
</g>
</g>
<!-- Node16&#45;&gt;Node9 -->
<g id="edge20_Node000016_Node000009" class="edge">
<title>Node16&#45;&gt;Node9</title>
<g id="a_edge20_Node000016_Node000009"><a xlink:title=" ">
<path fill="none" stroke="#63b8ff" d="M711.79,-258.43C718.42,-243.6 732.79,-212.34 747,-187 756.29,-170.44 759.9,-167.08 770,-151 782.2,-131.57 796.01,-109.15 805.28,-94.03"/>
<polygon fill="#63b8ff" stroke="#63b8ff" points="808.42,-95.6 810.66,-85.24 802.45,-91.94 808.42,-95.6"/>
</a>
</g>
</g>
<!-- Node17 -->
<g id="Node000017" class="node">
<title>Node17</title>
<g id="a_Node000017"><a xlink:href="pluma-view_8h.html" target="_top" xlink:title=" ">
<polygon fill="white" stroke="#666666" points="661,-211.5 545,-211.5 545,-192.5 661,-192.5 661,-211.5"/>
<text text-anchor="middle" x="603" y="-199.5" font-family="Helvetica,sans-Serif" font-size="10.00">pluma/pluma&#45;view.h</text>
</a>
</g>
</g>
<!-- Node16&#45;&gt;Node17 -->
<g id="edge21_Node000016_Node000017" class="edge">
<title>Node16&#45;&gt;Node17</title>
<g id="a_edge21_Node000016_Node000017"><a xlink:title=" ">
<path fill="none" stroke="#63b8ff" d="M693.84,-258.37C676.46,-247.78 646.76,-229.67 626.07,-217.06"/>
<polygon fill="#63b8ff" stroke="#63b8ff" points="627.63,-213.92 617.27,-211.7 623.99,-219.89 627.63,-213.92"/>
</a>
</g>
</g>
<!-- Node18 -->
<g id="Node000018" class="node">
<title>Node18</title>
<g id="a_Node000018"><a xlink:href="pluma-document_8h.html" target="_top" xlink:title=" ">
<polygon fill="white" stroke="#666666" points="760.5,-145.5 617.5,-145.5 617.5,-126.5 760.5,-126.5 760.5,-145.5"/>
<text text-anchor="middle" x="689" y="-133.5" font-family="Helvetica,sans-Serif" font-size="10.00">pluma/pluma&#45;document.h</text>
</a>
</g>
</g>
<!-- Node16&#45;&gt;Node18 -->
<g id="edge31_Node000016_Node000018" class="edge">
<title>Node16&#45;&gt;Node18</title>
<g id="a_edge31_Node000016_Node000018"><a xlink:title=" ">
<path fill="none" stroke="#63b8ff" d="M706.75,-258.47C703.72,-237.73 695.9,-184.24 691.73,-155.66"/>
<polygon fill="#63b8ff" stroke="#63b8ff" points="695.19,-155.12 690.28,-145.73 688.26,-156.13 695.19,-155.12"/>
</a>
</g>
</g>
<!-- Node17&#45;&gt;Node9 -->
<g id="edge22_Node000017_Node000009" class="edge">
<title>Node17&#45;&gt;Node9</title>
<g id="a_edge22_Node000017_Node000009"><a xlink:title=" ">
<path fill="none" stroke="#63b8ff" d="M600.64,-192.28C596.84,-176.08 591.42,-141.15 609,-121 657.14,-65.81 698.81,-98.2 775.71,-85.05"/>
<polygon fill="#63b8ff" stroke="#63b8ff" points="776.62,-88.44 785.77,-83.1 775.29,-81.56 776.62,-88.44"/>
</a>
</g>
</g>
<!-- Node17&#45;&gt;Node18 -->
<g id="edge23_Node000017_Node000018" class="edge">
<title>Node17&#45;&gt;Node18</title>
<g id="a_edge23_Node000017_Node000018"><a xlink:title=" ">
<path fill="none" stroke="#63b8ff" d="M614.6,-192.37C628.58,-181.97 652.29,-164.32 669.18,-151.75"/>
<polygon fill="#63b8ff" stroke="#63b8ff" points="671.38,-154.48 677.31,-145.7 667.2,-148.86 671.38,-154.48"/>
</a>
</g>
</g>
<!-- Node19 -->
<g id="Node000019" class="node">
<title>Node19</title>
<g id="a_Node000019"><a xlink:title=" ">
<polygon fill="#e0e0e0" stroke="#999999" points="768,-85 620,-85 620,-66 768,-66 768,-85"/>
<text text-anchor="middle" x="694" y="-73" font-family="Helvetica,sans-Serif" font-size="10.00">gtksourceview/gtksource.h</text>
</a>
</g>
</g>
<!-- Node17&#45;&gt;Node19 -->
<g id="edge30_Node000017_Node000019" class="edge">
<title>Node17&#45;&gt;Node19</title>
<g id="a_edge30_Node000017_Node000019"><a xlink:title=" ">
<path fill="none" stroke="#63b8ff" d="M595.2,-192.37C582.21,-176.91 559.06,-143.97 575,-121 586.13,-104.95 603.81,-94.68 622.16,-88.11"/>
<polygon fill="#63b8ff" stroke="#63b8ff" points="623.35,-91.4 631.79,-85 621.2,-84.74 623.35,-91.4"/>
</a>
</g>
</g>
<!-- Node18&#45;&gt;Node9 -->
<g id="edge25_Node000018_Node000009" class="edge">
<title>Node18&#45;&gt;Node9</title>
<g id="a_edge25_Node000018_Node000009"><a xlink:title=" ">
<path fill="none" stroke="#63b8ff" d="M707.47,-126.49C728.72,-116.7 763.85,-100.52 788.37,-89.23"/>
<polygon fill="#63b8ff" stroke="#63b8ff" points="789.89,-92.38 797.51,-85.02 786.96,-86.02 789.89,-92.38"/>
</a>
</g>
</g>
<!-- Node18&#45;&gt;Node12 -->
<g id="edge24_Node000018_Node000012" class="edge">
<title>Node18&#45;&gt;Node12</title>
<g id="a_edge24_Node000018_Node000012"><a xlink:title=" ">
<path fill="none" stroke="#63b8ff" d="M725.93,-126.49C773.2,-115.61 854.77,-96.82 903.33,-85.64"/>
<polygon fill="#63b8ff" stroke="#63b8ff" points="904.2,-89.03 913.16,-83.37 902.63,-82.21 904.2,-89.03"/>
</a>
</g>
</g>
<!-- Node18&#45;&gt;Node19 -->
<g id="edge26_Node000018_Node000019" class="edge">
<title>Node18&#45;&gt;Node19</title>
<g id="a_edge26_Node000018_Node000019"><a xlink:title=" ">
<path fill="none" stroke="#63b8ff" d="M689.74,-126.37C690.43,-118.25 691.5,-105.81 692.39,-95.39"/>
<polygon fill="#63b8ff" stroke="#63b8ff" points="695.89,-95.43 693.26,-85.17 688.92,-94.83 695.89,-95.43"/>
</a>
</g>
</g>
<!-- Node20 -->
<g id="Node000020" class="node">
<title>Node20</title>
<g id="a_Node000020"><a xlink:href="pluma-encodings_8h.html" target="_top" xlink:title=" ">
<polygon fill="white" stroke="#666666" points="601.5,-85 458.5,-85 458.5,-66 601.5,-66 601.5,-85"/>
<text text-anchor="middle" x="530" y="-73" font-family="Helvetica,sans-Serif" font-size="10.00">pluma/pluma&#45;encodings.h</text>
</a>
</g>
</g>
<!-- Node18&#45;&gt;Node20 -->
<g id="edge27_Node000018_Node000020" class="edge">
<title>Node18&#45;&gt;Node20</title>
<g id="a_edge27_Node000018_Node000020"><a xlink:title=" ">
<path fill="none" stroke="#63b8ff" d="M665.88,-126.49C638.68,-116.49 593.33,-99.8 562.58,-88.49"/>
<polygon fill="#63b8ff" stroke="#63b8ff" points="563.74,-85.18 553.15,-85.02 561.32,-91.75 563.74,-85.18"/>
</a>
</g>
</g>
<!-- Node20&#45;&gt;Node4 -->
<g id="edge28_Node000020_Node000004" class="edge">
<title>Node20&#45;&gt;Node4</title>
<g id="a_edge28_Node000020_Node000004"><a xlink:title=" ">
<path fill="none" stroke="#63b8ff" d="M498.59,-65.99C457.82,-54.95 387.04,-35.78 345.99,-24.66"/>
<polygon fill="#63b8ff" stroke="#63b8ff" points="346.79,-21.26 336.22,-22.02 344.96,-28.01 346.79,-21.26"/>
</a>
</g>
</g>
<!-- Node20&#45;&gt;Node5 -->
<g id="edge29_Node000020_Node000005" class="edge">
<title>Node20&#45;&gt;Node5</title>
<g id="a_edge29_Node000020_Node000005"><a xlink:title=" ">
<path fill="none" stroke="#63b8ff" d="M601.71,-66.24C706.54,-54.17 898.95,-32.01 989.04,-21.64"/>
<polygon fill="#63b8ff" stroke="#63b8ff" points="989.72,-25.08 999.25,-20.46 988.92,-18.13 989.72,-25.08"/>
</a>
</g>
</g>
<!-- Node21&#45;&gt;Node9 -->
<g id="edge33_Node000021_Node000009" class="edge">
<title>Node21&#45;&gt;Node9</title>
<g id="a_edge33_Node000021_Node000009"><a xlink:title=" ">
<path fill="none" stroke="#63b8ff" d="M816,-192.44C816,-172.54 816,-122.76 816,-95.35"/>
<polygon fill="#63b8ff" stroke="#63b8ff" points="819.5,-95.12 816,-85.12 812.5,-95.12 819.5,-95.12"/>
</a>
</g>
</g>
<!-- Node22&#45;&gt;Node5 -->
<g id="edge35_Node000022_Node000005" class="edge">
<title>Node22&#45;&gt;Node5</title>
<g id="a_edge35_Node000022_Node000005"><a xlink:title=" ">
<path fill="none" stroke="#63b8ff" d="M1071.23,-186.79C1064.79,-153.67 1048.77,-71.34 1041.59,-34.42"/>
<polygon fill="#63b8ff" stroke="#63b8ff" points="1045.01,-33.68 1039.66,-24.53 1038.13,-35.01 1045.01,-33.68"/>
</a>
</g>
</g>
<!-- Node23 -->
<g id="Node000023" class="node">
<title>Node23</title>
<g id="a_Node000023"><a xlink:href="pluma-message_8h.html" target="_top" xlink:title=" ">
<polygon fill="white" stroke="#666666" points="1223,-85 1085,-85 1085,-66 1223,-66 1223,-85"/>
<text text-anchor="middle" x="1154" y="-73" font-family="Helvetica,sans-Serif" font-size="10.00">pluma/pluma&#45;message.h</text>
</a>
</g>
</g>
<!-- Node22&#45;&gt;Node23 -->
<g id="edge36_Node000022_Node000023" class="edge">
<title>Node22&#45;&gt;Node23</title>
<g id="a_edge36_Node000022_Node000023"><a xlink:title=" ">
<path fill="none" stroke="#63b8ff" d="M1073.26,-186.79C1073.06,-169.79 1074.96,-141.11 1088,-121 1096.71,-107.57 1111.06,-97.18 1124.16,-89.83"/>
<polygon fill="#63b8ff" stroke="#63b8ff" points="1126.13,-92.74 1133.37,-85.01 1122.89,-86.54 1126.13,-92.74"/>
</a>
</g>
</g>
<!-- Node25 -->
<g id="Node000025" class="node">
<title>Node25</title>
<g id="a_Node000025"><a xlink:href="pluma-message-type_8h.html" target="_top" xlink:title=" ">
<polygon fill="white" stroke="#666666" points="1225.5,-151 1096.5,-151 1096.5,-121 1225.5,-121 1225.5,-151"/>
<text text-anchor="start" x="1104.5" y="-139" font-family="Helvetica,sans-Serif" font-size="10.00">pluma/pluma&#45;message</text>
<text text-anchor="middle" x="1161" y="-128" font-family="Helvetica,sans-Serif" font-size="10.00">&#45;type.h</text>
</a>
</g>
</g>
<!-- Node22&#45;&gt;Node25 -->
<g id="edge39_Node000022_Node000025" class="edge">
<title>Node22&#45;&gt;Node25</title>
<g id="a_edge39_Node000022_Node000025"><a xlink:title=" ">
<path fill="none" stroke="#63b8ff" d="M1093.31,-186.8C1105.13,-178.1 1120.46,-166.82 1133.54,-157.2"/>
<polygon fill="#63b8ff" stroke="#63b8ff" points="1135.76,-159.91 1141.75,-151.16 1131.62,-154.27 1135.76,-159.91"/>
</a>
</g>
</g>
<!-- Node23&#45;&gt;Node5 -->
<g id="edge37_Node000023_Node000005" class="edge">
<title>Node23&#45;&gt;Node5</title>
<g id="a_edge37_Node000023_Node000005"><a xlink:title=" ">
<path fill="none" stroke="#63b8ff" d="M1136.88,-65.87C1117.78,-56.23 1086.63,-40.53 1064.4,-29.31"/>
<polygon fill="#63b8ff" stroke="#63b8ff" points="1065.69,-26.05 1055.19,-24.67 1062.54,-32.3 1065.69,-26.05"/>
</a>
</g>
</g>
<!-- Node24 -->
<g id="Node000024" class="node">
<title>Node24</title>
<g id="a_Node000024"><a xlink:title=" ">
<polygon fill="#e0e0e0" stroke="#999999" points="1230,-24.5 1174,-24.5 1174,-5.5 1230,-5.5 1230,-24.5"/>
<text text-anchor="middle" x="1202" y="-12.5" font-family="Helvetica,sans-Serif" font-size="10.00">stdarg.h</text>
</a>
</g>
</g>
<!-- Node23&#45;&gt;Node24 -->
<g id="edge38_Node000023_Node000024" class="edge">
<title>Node23&#45;&gt;Node24</title>
<g id="a_edge38_Node000023_Node000024"><a xlink:title=" ">
<path fill="none" stroke="#63b8ff" d="M1161.08,-65.87C1168.24,-57.14 1179.49,-43.43 1188.39,-32.59"/>
<polygon fill="#63b8ff" stroke="#63b8ff" points="1191.25,-34.62 1194.89,-24.67 1185.84,-30.18 1191.25,-34.62"/>
</a>
</g>
</g>
<!-- Node25&#45;&gt;Node5 -->
<g id="edge40_Node000025_Node000005" class="edge">
<title>Node25&#45;&gt;Node5</title>
<g id="a_edge40_Node000025_Node000005"><a xlink:title=" ">
<path fill="none" stroke="#63b8ff" d="M1128.31,-120.97C1111.2,-112.43 1090.8,-100.22 1076,-85 1061.73,-70.32 1051.16,-49.22 1044.84,-34.23"/>
<polygon fill="#63b8ff" stroke="#63b8ff" points="1047.94,-32.56 1040.99,-24.56 1041.44,-35.15 1047.94,-32.56"/>
</a>
</g>
</g>
<!-- Node25&#45;&gt;Node23 -->
<g id="edge42_Node000025_Node000023" class="edge">
<title>Node25&#45;&gt;Node23</title>
<g id="a_edge42_Node000025_Node000023"><a xlink:title=" ">
<path fill="none" stroke="#63b8ff" d="M1159.31,-120.84C1158.39,-113.21 1157.26,-103.7 1156.27,-95.45"/>
<polygon fill="#63b8ff" stroke="#63b8ff" points="1159.71,-94.78 1155.05,-85.27 1152.76,-95.61 1159.71,-94.78"/>
</a>
</g>
</g>
<!-- Node25&#45;&gt;Node24 -->
<g id="edge41_Node000025_Node000024" class="edge">
<title>Node25&#45;&gt;Node24</title>
<g id="a_edge41_Node000025_Node000024"><a xlink:title=" ">
<path fill="none" stroke="#63b8ff" d="M1193.51,-120.84C1208.08,-112.65 1223.81,-100.79 1232,-85 1241.07,-67.52 1229.06,-46.71 1217.65,-32.54"/>
<polygon fill="#63b8ff" stroke="#63b8ff" points="1220.01,-29.93 1210.82,-24.67 1214.73,-34.52 1220.01,-29.93"/>
</a>
</g>
</g>
<!-- Node26&#45;&gt;Node4 -->
<g id="edge44_Node000026_Node000004" class="edge">
<title>Node26&#45;&gt;Node4</title>
<g id="a_edge44_Node000026_Node000004"><a xlink:title=" ">
<path fill="none" stroke="#63b8ff" d="M256.81,-258.14C262.6,-229.96 281.4,-139.86 300,-66 302.63,-55.57 305.85,-44 308.53,-34.62"/>
<polygon fill="#63b8ff" stroke="#63b8ff" points="311.95,-35.39 311.38,-24.81 305.23,-33.44 311.95,-35.39"/>
</a>
</g>
</g>
<!-- Node27&#45;&gt;Node4 -->
<g id="edge46_Node000027_Node000004" class="edge">
<title>Node27&#45;&gt;Node4</title>
<g id="a_edge46_Node000027_Node000004"><a xlink:title=" ">
<path fill="none" stroke="#63b8ff" d="M407.92,-126.25C398.82,-116.35 383.66,-99.68 371,-85 355.71,-67.27 338.66,-46.5 327.23,-32.41"/>
<polygon fill="#63b8ff" stroke="#63b8ff" points="329.92,-30.17 320.91,-24.59 324.48,-34.57 329.92,-30.17"/>
</a>
</g>
</g>
<!-- Node27&#45;&gt;Node9 -->
<g id="edge47_Node000027_Node000009" class="edge">
<title>Node27&#45;&gt;Node9</title>
<g id="a_edge47_Node000027_Node000009"><a xlink:title=" ">
<path fill="none" stroke="#63b8ff" d="M473.74,-128.39C543.1,-120.15 663.18,-104.88 775.65,-85.12"/>
<polygon fill="#63b8ff" stroke="#63b8ff" points="776.58,-88.51 785.81,-83.32 775.35,-81.62 776.58,-88.51"/>
</a>
</g>
</g>
<!-- Node27&#45;&gt;Node19 -->
<g id="edge50_Node000027_Node000019" class="edge">
<title>Node27&#45;&gt;Node19</title>
<g id="a_edge50_Node000027_Node000019"><a xlink:title=" ">
<path fill="none" stroke="#63b8ff" d="M456.42,-126.49C505.94,-116.07 589.84,-98.42 643.54,-87.12"/>
<polygon fill="#63b8ff" stroke="#63b8ff" points="644.46,-90.5 653.53,-85.02 643.02,-83.65 644.46,-90.5"/>
</a>
</g>
</g>
<!-- Node27&#45;&gt;Node20 -->
<g id="edge49_Node000027_Node000020" class="edge">
<title>Node27&#45;&gt;Node20</title>
<g id="a_edge49_Node000027_Node000020"><a xlink:title=" ">
<path fill="none" stroke="#63b8ff" d="M432.82,-126.37C451.6,-116.73 482.2,-101.03 504.05,-89.81"/>
<polygon fill="#63b8ff" stroke="#63b8ff" points="505.81,-92.85 513.11,-85.17 502.61,-86.62 505.81,-92.85"/>
</a>
</g>
</g>
<!-- Node28 -->
<g id="Node000028" class="node">
<title>Node28</title>
<g id="a_Node000028"><a xlink:title=" ">
<polygon fill="#e0e0e0" stroke="#999999" points="440,-85 380,-85 380,-66 440,-66 440,-85"/>
<text text-anchor="middle" x="410" y="-73" font-family="Helvetica,sans-Serif" font-size="10.00">atk/atk.h</text>
</a>
</g>
</g>
<!-- Node27&#45;&gt;Node28 -->
<g id="edge48_Node000027_Node000028" class="edge">
<title>Node27&#45;&gt;Node28</title>
<g id="a_edge48_Node000027_Node000028"><a xlink:title=" ">
<path fill="none" stroke="#63b8ff" d="M415.11,-126.37C414.28,-118.25 413.01,-105.81 411.94,-95.39"/>
<polygon fill="#63b8ff" stroke="#63b8ff" points="415.39,-94.76 410.89,-85.17 408.43,-95.47 415.39,-94.76"/>
</a>
</g>
</g>
</g>
</svg>
