<?xml version="1.0" encoding="UTF-8" standalone="no"?>
<!DOCTYPE svg PUBLIC "-//W3C//DTD SVG 1.1//EN"
 "http://www.w3.org/Graphics/SVG/1.1/DTD/svg11.dtd">
<!-- Generated by graphviz version 2.43.0 (0)
 -->
<!-- Title: pluma&#45;commands.h Pages: 1 -->
<svg width="1774pt" height="148pt"
 viewBox="0.00 0.00 1773.50 148.00" xmlns="http://www.w3.org/2000/svg" xmlns:xlink="http://www.w3.org/1999/xlink">
<g id="graph0" class="graph" transform="scale(1 1) rotate(0) translate(4 144)">
<title>pluma&#45;commands.h</title>
<!-- Node1 -->
<g id="Node000001" class="node">
<title>Node1</title>
<g id="a_Node000001"><a xlink:title=" ">
<polygon fill="#999999" stroke="#666666" points="1068.5,-140 954.5,-140 954.5,-121 1068.5,-121 1068.5,-140"/>
<text text-anchor="middle" x="1011.5" y="-128" font-family="Helvetica,sans-Serif" font-size="10.00">pluma&#45;commands.h</text>
</a>
</g>
</g>
<!-- Node2 -->
<g id="Node000002" class="node">
<title>Node2</title>
<g id="a_Node000002"><a xlink:href="pluma-app_8c.html" target="_top" xlink:title=" ">
<polygon fill="white" stroke="#666666" points="77,-79.5 0,-79.5 0,-60.5 77,-60.5 77,-79.5"/>
<text text-anchor="middle" x="38.5" y="-67.5" font-family="Helvetica,sans-Serif" font-size="10.00">pluma&#45;app.c</text>
</a>
</g>
</g>
<!-- Node1&#45;&gt;Node2 -->
<g id="edge1_Node000001_Node000002" class="edge">
<title>Node1&#45;&gt;Node2</title>
<g id="a_edge1_Node000001_Node000002"><a xlink:title=" ">
<path fill="none" stroke="#63b8ff" d="M944.36,-128.32C760.51,-124.77 251.66,-112.66 86.5,-85 78.97,-83.74 70.94,-81.69 63.65,-79.54"/>
<polygon fill="#63b8ff" stroke="#63b8ff" points="944.37,-131.82 954.43,-128.51 944.5,-124.82 944.37,-131.82"/>
</a>
</g>
</g>
<!-- Node3 -->
<g id="Node000003" class="node">
<title>Node3</title>
<g id="a_Node000003"><a xlink:href="pluma-application_8c.html" target="_top" xlink:title=" ">
<polygon fill="white" stroke="#666666" points="208,-79.5 95,-79.5 95,-60.5 208,-60.5 208,-79.5"/>
<text text-anchor="middle" x="151.5" y="-67.5" font-family="Helvetica,sans-Serif" font-size="10.00">pluma&#45;application.c</text>
</a>
</g>
</g>
<!-- Node1&#45;&gt;Node3 -->
<g id="edge2_Node000001_Node000003" class="edge">
<title>Node1&#45;&gt;Node3</title>
<g id="a_edge2_Node000001_Node000003"><a xlink:title=" ">
<path fill="none" stroke="#63b8ff" d="M944.06,-129.19C806.72,-127.8 484.92,-120.64 217.5,-85 207.51,-83.67 196.79,-81.65 186.95,-79.56"/>
<polygon fill="#63b8ff" stroke="#63b8ff" points="944.38,-132.69 954.41,-129.29 944.45,-125.7 944.38,-132.69"/>
</a>
</g>
</g>
<!-- Node4 -->
<g id="Node000004" class="node">
<title>Node4</title>
<g id="a_Node000004"><a xlink:href="pluma-commands-documents_8c.html" target="_top" xlink:title=" ">
<polygon fill="white" stroke="#666666" points="397,-79.5 226,-79.5 226,-60.5 397,-60.5 397,-79.5"/>
<text text-anchor="middle" x="311.5" y="-67.5" font-family="Helvetica,sans-Serif" font-size="10.00">pluma&#45;commands&#45;documents.c</text>
</a>
</g>
</g>
<!-- Node1&#45;&gt;Node4 -->
<g id="edge3_Node000001_Node000004" class="edge">
<title>Node1&#45;&gt;Node4</title>
<g id="a_edge3_Node000001_Node000004"><a xlink:title=" ">
<path fill="none" stroke="#63b8ff" d="M944.11,-126.15C832.22,-120.23 601.15,-106.47 406.5,-85 392.91,-83.5 378.28,-81.53 364.67,-79.53"/>
<polygon fill="#63b8ff" stroke="#63b8ff" points="944.07,-129.65 954.23,-126.68 944.43,-122.66 944.07,-129.65"/>
</a>
</g>
</g>
<!-- Node5 -->
<g id="Node000005" class="node">
<title>Node5</title>
<g id="a_Node000005"><a xlink:href="pluma-commands-edit_8c.html" target="_top" xlink:title=" ">
<polygon fill="white" stroke="#666666" points="551.5,-79.5 415.5,-79.5 415.5,-60.5 551.5,-60.5 551.5,-79.5"/>
<text text-anchor="middle" x="483.5" y="-67.5" font-family="Helvetica,sans-Serif" font-size="10.00">pluma&#45;commands&#45;edit.c</text>
</a>
</g>
</g>
<!-- Node1&#45;&gt;Node5 -->
<g id="edge4_Node000001_Node000005" class="edge">
<title>Node1&#45;&gt;Node5</title>
<g id="a_edge4_Node000001_Node000005"><a xlink:title=" ">
<path fill="none" stroke="#63b8ff" d="M944.22,-124.58C855.9,-117.73 696.16,-103.99 560.5,-85 549.6,-83.47 537.89,-81.51 526.97,-79.54"/>
<polygon fill="#63b8ff" stroke="#63b8ff" points="944.13,-128.09 954.37,-125.36 944.67,-121.11 944.13,-128.09"/>
</a>
</g>
</g>
<!-- Node6 -->
<g id="Node000006" class="node">
<title>Node6</title>
<g id="a_Node000006"><a xlink:href="pluma-commands-file-print_8c.html" target="_top" xlink:title=" ">
<polygon fill="white" stroke="#666666" points="693.5,-85 569.5,-85 569.5,-55 693.5,-55 693.5,-85"/>
<text text-anchor="start" x="577.5" y="-73" font-family="Helvetica,sans-Serif" font-size="10.00">pluma&#45;commands&#45;file</text>
<text text-anchor="middle" x="631.5" y="-62" font-family="Helvetica,sans-Serif" font-size="10.00">&#45;print.c</text>
</a>
</g>
</g>
<!-- Node1&#45;&gt;Node6 -->
<g id="edge5_Node000001_Node000006" class="edge">
<title>Node1&#45;&gt;Node6</title>
<g id="a_edge5_Node000001_Node000006"><a xlink:title=" ">
<path fill="none" stroke="#63b8ff" d="M944.26,-120.83C881.56,-112.51 785.5,-99.15 702.5,-85 699.65,-84.51 696.74,-84 693.8,-83.47"/>
<polygon fill="#63b8ff" stroke="#63b8ff" points="944.04,-124.34 954.41,-122.18 944.96,-117.4 944.04,-124.34"/>
</a>
</g>
</g>
<!-- Node7 -->
<g id="Node000007" class="node">
<title>Node7</title>
<g id="a_Node000007"><a xlink:href="pluma-commands-file_8c.html" target="_top" xlink:title=" ">
<polygon fill="white" stroke="#666666" points="843.5,-79.5 711.5,-79.5 711.5,-60.5 843.5,-60.5 843.5,-79.5"/>
<text text-anchor="middle" x="777.5" y="-67.5" font-family="Helvetica,sans-Serif" font-size="10.00">pluma&#45;commands&#45;file.c</text>
</a>
</g>
</g>
<!-- Node1&#45;&gt;Node7 -->
<g id="edge6_Node000001_Node000007" class="edge">
<title>Node1&#45;&gt;Node7</title>
<g id="a_edge6_Node000001_Node000007"><a xlink:title=" ">
<path fill="none" stroke="#63b8ff" d="M967.65,-118.54C922.42,-107.23 852.83,-89.83 811.57,-79.52"/>
<polygon fill="#63b8ff" stroke="#63b8ff" points="966.92,-121.96 977.47,-120.99 968.62,-115.17 966.92,-121.96"/>
</a>
</g>
</g>
<!-- Node8 -->
<g id="Node000008" class="node">
<title>Node8</title>
<g id="a_Node000008"><a xlink:href="pluma-commands-help_8c.html" target="_top" xlink:title=" ">
<polygon fill="white" stroke="#666666" points="999.5,-79.5 861.5,-79.5 861.5,-60.5 999.5,-60.5 999.5,-79.5"/>
<text text-anchor="middle" x="930.5" y="-67.5" font-family="Helvetica,sans-Serif" font-size="10.00">pluma&#45;commands&#45;help.c</text>
</a>
</g>
</g>
<!-- Node1&#45;&gt;Node8 -->
<g id="edge7_Node000001_Node000008" class="edge">
<title>Node1&#45;&gt;Node8</title>
<g id="a_edge7_Node000001_Node000008"><a xlink:title=" ">
<path fill="none" stroke="#63b8ff" d="M991.21,-114.85C975.87,-103.77 955.32,-88.93 942.5,-79.67"/>
<polygon fill="#63b8ff" stroke="#63b8ff" points="989.39,-117.85 999.55,-120.87 993.49,-112.18 989.39,-117.85"/>
</a>
</g>
</g>
<!-- Node9 -->
<g id="Node000009" class="node">
<title>Node9</title>
<g id="a_Node000009"><a xlink:href="pluma-commands-search_8c.html" target="_top" xlink:title=" ">
<polygon fill="white" stroke="#666666" points="1167,-79.5 1018,-79.5 1018,-60.5 1167,-60.5 1167,-79.5"/>
<text text-anchor="middle" x="1092.5" y="-67.5" font-family="Helvetica,sans-Serif" font-size="10.00">pluma&#45;commands&#45;search.c</text>
</a>
</g>
</g>
<!-- Node1&#45;&gt;Node9 -->
<g id="edge8_Node000001_Node000009" class="edge">
<title>Node1&#45;&gt;Node9</title>
<g id="a_edge8_Node000001_Node000009"><a xlink:title=" ">
<path fill="none" stroke="#63b8ff" d="M1031.79,-114.85C1047.13,-103.77 1067.68,-88.93 1080.5,-79.67"/>
<polygon fill="#63b8ff" stroke="#63b8ff" points="1029.51,-112.18 1023.45,-120.87 1033.61,-117.85 1029.51,-112.18"/>
</a>
</g>
</g>
<!-- Node10 -->
<g id="Node000010" class="node">
<title>Node10</title>
<g id="a_Node000010"><a xlink:href="pluma-commands-view_8c.html" target="_top" xlink:title=" ">
<polygon fill="white" stroke="#666666" points="1324,-79.5 1185,-79.5 1185,-60.5 1324,-60.5 1324,-79.5"/>
<text text-anchor="middle" x="1254.5" y="-67.5" font-family="Helvetica,sans-Serif" font-size="10.00">pluma&#45;commands&#45;view.c</text>
</a>
</g>
</g>
<!-- Node1&#45;&gt;Node10 -->
<g id="edge9_Node000001_Node000010" class="edge">
<title>Node1&#45;&gt;Node10</title>
<g id="a_edge9_Node000001_Node000010"><a xlink:title=" ">
<path fill="none" stroke="#63b8ff" d="M1056.74,-118.61C1103.7,-107.3 1176.18,-89.85 1219.12,-79.52"/>
<polygon fill="#63b8ff" stroke="#63b8ff" points="1055.74,-115.25 1046.83,-120.99 1057.38,-122.06 1055.74,-115.25"/>
</a>
</g>
</g>
<!-- Node11 -->
<g id="Node000011" class="node">
<title>Node11</title>
<g id="a_Node000011"><a xlink:href="pluma-file-browser-plugin_8c.html" target="_top" xlink:title=" ">
<polygon fill="white" stroke="#666666" points="1451,-85 1342,-85 1342,-55 1451,-55 1451,-85"/>
<text text-anchor="start" x="1350" y="-73" font-family="Helvetica,sans-Serif" font-size="10.00">pluma&#45;file&#45;browser</text>
<text text-anchor="middle" x="1396.5" y="-62" font-family="Helvetica,sans-Serif" font-size="10.00">&#45;plugin.c</text>
</a>
</g>
</g>
<!-- Node1&#45;&gt;Node11 -->
<g id="edge10_Node000001_Node000011" class="edge">
<title>Node1&#45;&gt;Node11</title>
<g id="a_edge10_Node000001_Node000011"><a xlink:title=" ">
<path fill="none" stroke="#63b8ff" d="M1078.89,-121.81C1144.21,-113.97 1245.98,-100.74 1333.5,-85 1336.26,-84.5 1339.08,-83.97 1341.92,-83.41"/>
<polygon fill="#63b8ff" stroke="#63b8ff" points="1078.24,-118.36 1068.72,-123.02 1079.07,-125.31 1078.24,-118.36"/>
</a>
</g>
</g>
<!-- Node12 -->
<g id="Node000012" class="node">
<title>Node12</title>
<g id="a_Node000012"><a xlink:href="pluma-session_8c.html" target="_top" xlink:title=" ">
<polygon fill="white" stroke="#666666" points="1565.5,-79.5 1469.5,-79.5 1469.5,-60.5 1565.5,-60.5 1565.5,-79.5"/>
<text text-anchor="middle" x="1517.5" y="-67.5" font-family="Helvetica,sans-Serif" font-size="10.00">pluma&#45;session.c</text>
</a>
</g>
</g>
<!-- Node1&#45;&gt;Node12 -->
<g id="edge11_Node000001_Node000012" class="edge">
<title>Node1&#45;&gt;Node12</title>
<g id="a_edge11_Node000001_Node000012"><a xlink:title=" ">
<path fill="none" stroke="#63b8ff" d="M1078.68,-125.83C1166.82,-120.33 1326.08,-108.05 1460.5,-85 1468.94,-83.55 1477.97,-81.55 1486.31,-79.51"/>
<polygon fill="#63b8ff" stroke="#63b8ff" points="1078.32,-122.34 1068.55,-126.45 1078.75,-129.33 1078.32,-122.34"/>
</a>
</g>
</g>
<!-- Node13 -->
<g id="Node000013" class="node">
<title>Node13</title>
<g id="a_Node000013"><a xlink:href="pluma-ui_8h.html" target="_top" xlink:title=" ">
<polygon fill="white" stroke="#666666" points="1653,-79.5 1584,-79.5 1584,-60.5 1653,-60.5 1653,-79.5"/>
<text text-anchor="middle" x="1618.5" y="-67.5" font-family="Helvetica,sans-Serif" font-size="10.00">pluma&#45;ui.h</text>
</a>
</g>
</g>
<!-- Node1&#45;&gt;Node13 -->
<g id="edge12_Node000001_Node000013" class="edge">
<title>Node1&#45;&gt;Node13</title>
<g id="a_edge12_Node000001_Node000013"><a xlink:title=" ">
<path fill="none" stroke="#63b8ff" d="M1079.09,-129.13C1185.47,-127.45 1398.04,-119.57 1574.5,-85 1581.27,-83.67 1588.45,-81.66 1595.01,-79.57"/>
<polygon fill="#63b8ff" stroke="#63b8ff" points="1078.77,-125.64 1068.82,-129.28 1078.87,-132.64 1078.77,-125.64"/>
</a>
</g>
</g>
<!-- Node14 -->
<g id="Node000014" class="node">
<title>Node14</title>
<g id="a_Node000014"><a xlink:href="pluma-window_8c.html" target="_top" xlink:title=" ">
<polygon fill="white" stroke="#666666" points="1697.5,-19 1601.5,-19 1601.5,0 1697.5,0 1697.5,-19"/>
<text text-anchor="middle" x="1649.5" y="-7" font-family="Helvetica,sans-Serif" font-size="10.00">pluma&#45;window.c</text>
</a>
</g>
</g>
<!-- Node1&#45;&gt;Node14 -->
<g id="edge14_Node000001_Node000014" class="edge">
<title>Node1&#45;&gt;Node14</title>
<g id="a_edge14_Node000001_Node000014"><a xlink:title=" ">
<path fill="none" stroke="#63b8ff" d="M1078.8,-129.97C1237.21,-130.38 1623.27,-127 1662.5,-85 1679.53,-66.77 1664.12,-34.56 1655.04,-19.17"/>
<polygon fill="#63b8ff" stroke="#63b8ff" points="1078.71,-126.47 1068.7,-129.94 1078.69,-133.47 1078.71,-126.47"/>
</a>
</g>
</g>
<!-- Node15 -->
<g id="Node000015" class="node">
<title>Node15</title>
<g id="a_Node000015"><a xlink:href="pluma_8c.html" target="_top" xlink:title=" ">
<polygon fill="white" stroke="#666666" points="1765.5,-79.5 1709.5,-79.5 1709.5,-60.5 1765.5,-60.5 1765.5,-79.5"/>
<text text-anchor="middle" x="1737.5" y="-67.5" font-family="Helvetica,sans-Serif" font-size="10.00">pluma.c</text>
</a>
</g>
</g>
<!-- Node1&#45;&gt;Node15 -->
<g id="edge15_Node000001_Node000015" class="edge">
<title>Node1&#45;&gt;Node15</title>
<g id="a_edge15_Node000001_Node000015"><a xlink:title=" ">
<path fill="none" stroke="#63b8ff" d="M1078.99,-127.31C1227.53,-122.14 1578.82,-107.85 1695.5,-85 1701.99,-83.73 1708.86,-81.73 1715.12,-79.64"/>
<polygon fill="#63b8ff" stroke="#63b8ff" points="1078.52,-123.83 1068.65,-127.67 1078.76,-130.82 1078.52,-123.83"/>
</a>
</g>
</g>
<!-- Node13&#45;&gt;Node14 -->
<g id="edge13_Node000013_Node000014" class="edge">
<title>Node13&#45;&gt;Node14</title>
<g id="a_edge13_Node000013_Node000014"><a xlink:title=" ">
<path fill="none" stroke="#63b8ff" d="M1627.78,-51.48C1633.44,-40.81 1640.41,-27.65 1644.91,-19.17"/>
<polygon fill="#63b8ff" stroke="#63b8ff" points="1624.66,-49.89 1623.07,-60.37 1630.85,-53.17 1624.66,-49.89"/>
</a>
</g>
</g>
</g>
</svg>
