<?xml version="1.0" encoding="UTF-8" standalone="no"?>
<!DOCTYPE svg PUBLIC "-//W3C//DTD SVG 1.1//EN"
 "http://www.w3.org/Graphics/SVG/1.1/DTD/svg11.dtd">
<!-- Generated by graphviz version 2.43.0 (0)
 -->
<!-- Title: pluma&#45;file&#45;bookmarks&#45;store.c Pages: 1 -->
<svg width="1044pt" height="467pt"
 viewBox="0.00 0.00 1043.73 467.00" xmlns="http://www.w3.org/2000/svg" xmlns:xlink="http://www.w3.org/1999/xlink">
<g id="graph0" class="graph" transform="scale(1 1) rotate(0) translate(4 463)">
<title>pluma&#45;file&#45;bookmarks&#45;store.c</title>
<!-- Node1 -->
<g id="Node000001" class="node">
<title>Node1</title>
<g id="a_Node000001"><a xlink:title=" ">
<polygon fill="#999999" stroke="#666666" points="277,-459 152,-459 152,-429 277,-429 277,-459"/>
<text text-anchor="start" x="160" y="-447" font-family="Helvetica,sans-Serif" font-size="10.00">pluma&#45;file&#45;bookmarks</text>
<text text-anchor="middle" x="214.5" y="-436" font-family="Helvetica,sans-Serif" font-size="10.00">&#45;store.c</text>
</a>
</g>
</g>
<!-- Node2 -->
<g id="Node000002" class="node">
<title>Node2</title>
<g id="a_Node000002"><a xlink:title=" ">
<polygon fill="#e0e0e0" stroke="#999999" points="53,-387.5 0,-387.5 0,-368.5 53,-368.5 53,-387.5"/>
<text text-anchor="middle" x="26.5" y="-375.5" font-family="Helvetica,sans-Serif" font-size="10.00">string.h</text>
</a>
</g>
</g>
<!-- Node1&#45;&gt;Node2 -->
<g id="edge1_Node000001_Node000002" class="edge">
<title>Node1&#45;&gt;Node2</title>
<g id="a_edge1_Node000001_Node000002"><a xlink:title=" ">
<path fill="none" stroke="#63b8ff" d="M169.73,-428.96C139.34,-419.26 98.32,-405.85 62.5,-393 60.89,-392.42 59.25,-391.82 57.6,-391.21"/>
<polygon fill="#63b8ff" stroke="#63b8ff" points="58.72,-387.9 48.13,-387.63 56.24,-394.44 58.72,-387.9"/>
</a>
</g>
</g>
<!-- Node3 -->
<g id="Node000003" class="node">
<title>Node3</title>
<g id="a_Node000003"><a xlink:title=" ">
<polygon fill="#e0e0e0" stroke="#999999" points="145.5,-387.5 71.5,-387.5 71.5,-368.5 145.5,-368.5 145.5,-387.5"/>
<text text-anchor="middle" x="108.5" y="-375.5" font-family="Helvetica,sans-Serif" font-size="10.00">glib/gi18n.h</text>
</a>
</g>
</g>
<!-- Node1&#45;&gt;Node3 -->
<g id="edge2_Node000001_Node000003" class="edge">
<title>Node1&#45;&gt;Node3</title>
<g id="a_edge2_Node000001_Node000003"><a xlink:title=" ">
<path fill="none" stroke="#63b8ff" d="M191.24,-428.95C173.39,-418.18 148.88,-403.38 131.17,-392.69"/>
<polygon fill="#63b8ff" stroke="#63b8ff" points="132.98,-389.69 122.61,-387.52 129.36,-395.68 132.98,-389.69"/>
</a>
</g>
</g>
<!-- Node4 -->
<g id="Node000004" class="node">
<title>Node4</title>
<g id="a_Node000004"><a xlink:title=" ">
<polygon fill="#e0e0e0" stroke="#999999" points="213,-74 154,-74 154,-55 213,-55 213,-74"/>
<text text-anchor="middle" x="183.5" y="-62" font-family="Helvetica,sans-Serif" font-size="10.00">gio/gio.h</text>
</a>
</g>
</g>
<!-- Node1&#45;&gt;Node4 -->
<g id="edge3_Node000001_Node000004" class="edge">
<title>Node1&#45;&gt;Node4</title>
<g id="a_edge3_Node000001_Node000004"><a xlink:title=" ">
<path fill="none" stroke="#63b8ff" d="M206.79,-428.65C194.91,-405.17 173.5,-356.78 173.5,-313 173.5,-313 173.5,-313 173.5,-190 173.5,-152.37 178.09,-108.56 181.05,-84.23"/>
<polygon fill="#63b8ff" stroke="#63b8ff" points="184.54,-84.59 182.31,-74.24 177.59,-83.72 184.54,-84.59"/>
</a>
</g>
</g>
<!-- Node5 -->
<g id="Node000005" class="node">
<title>Node5</title>
<g id="a_Node000005"><a xlink:href="pluma-utils_8h.html" target="_top" xlink:title=" ">
<polygon fill="white" stroke="#666666" points="1007,-134.5 892,-134.5 892,-115.5 1007,-115.5 1007,-134.5"/>
<text text-anchor="middle" x="949.5" y="-122.5" font-family="Helvetica,sans-Serif" font-size="10.00">pluma/pluma&#45;utils.h</text>
</a>
</g>
</g>
<!-- Node1&#45;&gt;Node5 -->
<g id="edge4_Node000001_Node000005" class="edge">
<title>Node1&#45;&gt;Node5</title>
<g id="a_edge4_Node000001_Node000005"><a xlink:title=" ">
<path fill="none" stroke="#63b8ff" d="M277.28,-438.12C451.04,-423.78 925.5,-378.6 925.5,-313 925.5,-313 925.5,-313 925.5,-250.5 925.5,-212.13 936.63,-168.29 943.73,-144.22"/>
<polygon fill="#63b8ff" stroke="#63b8ff" points="947.08,-145.23 946.65,-134.64 940.38,-143.19 947.08,-145.23"/>
</a>
</g>
</g>
<!-- Node12 -->
<g id="Node000012" class="node">
<title>Node12</title>
<g id="a_Node000012"><a xlink:href="pluma-file-bookmarks-store_8h.html" target="_top" xlink:title=" ">
<polygon fill="white" stroke="#666666" points="751,-327 626,-327 626,-297 751,-297 751,-327"/>
<text text-anchor="start" x="634" y="-315" font-family="Helvetica,sans-Serif" font-size="10.00">pluma&#45;file&#45;bookmarks</text>
<text text-anchor="middle" x="688.5" y="-304" font-family="Helvetica,sans-Serif" font-size="10.00">&#45;store.h</text>
</a>
</g>
</g>
<!-- Node1&#45;&gt;Node12 -->
<g id="edge12_Node000001_Node000012" class="edge">
<title>Node1&#45;&gt;Node12</title>
<g id="a_edge12_Node000001_Node000012"><a xlink:title=" ">
<path fill="none" stroke="#63b8ff" d="M265.68,-428.96C353.65,-404.84 533.17,-355.6 627.49,-329.73"/>
<polygon fill="#63b8ff" stroke="#63b8ff" points="628.46,-333.1 637.18,-327.08 626.61,-326.35 628.46,-333.1"/>
</a>
</g>
</g>
<!-- Node13 -->
<g id="Node000013" class="node">
<title>Node13</title>
<g id="a_Node000013"><a xlink:href="pluma-file-browser-utils_8h.html" target="_top" xlink:title=" ">
<polygon fill="white" stroke="#666666" points="311,-393 202,-393 202,-363 311,-363 311,-393"/>
<text text-anchor="start" x="210" y="-381" font-family="Helvetica,sans-Serif" font-size="10.00">pluma&#45;file&#45;browser</text>
<text text-anchor="middle" x="256.5" y="-370" font-family="Helvetica,sans-Serif" font-size="10.00">&#45;utils.h</text>
</a>
</g>
</g>
<!-- Node1&#45;&gt;Node13 -->
<g id="edge14_Node000001_Node000013" class="edge">
<title>Node1&#45;&gt;Node13</title>
<g id="a_edge14_Node000001_Node000013"><a xlink:title=" ">
<path fill="none" stroke="#63b8ff" d="M223.82,-428.8C229.04,-420.84 235.67,-410.74 241.6,-401.71"/>
<polygon fill="#63b8ff" stroke="#63b8ff" points="244.64,-403.44 247.2,-393.16 238.79,-399.6 244.64,-403.44"/>
</a>
</g>
</g>
<!-- Node6 -->
<g id="Node000006" class="node">
<title>Node6</title>
<g id="a_Node000006"><a xlink:title=" ">
<polygon fill="#e0e0e0" stroke="#999999" points="984.5,-19 940.5,-19 940.5,0 984.5,0 984.5,-19"/>
<text text-anchor="middle" x="962.5" y="-7" font-family="Helvetica,sans-Serif" font-size="10.00">glib.h</text>
</a>
</g>
</g>
<!-- Node5&#45;&gt;Node6 -->
<g id="edge5_Node000005_Node000006" class="edge">
<title>Node5&#45;&gt;Node6</title>
<g id="a_edge5_Node000005_Node000006"><a xlink:title=" ">
<path fill="none" stroke="#63b8ff" d="M977.23,-115.46C996.5,-107.91 1020.75,-94.8 1032.5,-74 1044.76,-52.31 1017.85,-34.01 993.92,-22.71"/>
<polygon fill="#63b8ff" stroke="#63b8ff" points="995.21,-19.45 984.65,-18.59 992.36,-25.85 995.21,-19.45"/>
</a>
</g>
</g>
<!-- Node7 -->
<g id="Node000007" class="node">
<title>Node7</title>
<g id="a_Node000007"><a xlink:title=" ">
<polygon fill="#e0e0e0" stroke="#999999" points="617.5,-74 557.5,-74 557.5,-55 617.5,-55 617.5,-74"/>
<text text-anchor="middle" x="587.5" y="-62" font-family="Helvetica,sans-Serif" font-size="10.00">gtk/gtk.h</text>
</a>
</g>
</g>
<!-- Node5&#45;&gt;Node7 -->
<g id="edge6_Node000005_Node000007" class="edge">
<title>Node5&#45;&gt;Node7</title>
<g id="a_edge6_Node000005_Node000007"><a xlink:title=" ">
<path fill="none" stroke="#63b8ff" d="M907.3,-115.43C897.53,-113.55 887.17,-111.63 877.5,-110 769.52,-91.77 739.11,-93.87 627.65,-74.09"/>
<polygon fill="#63b8ff" stroke="#63b8ff" points="628.15,-70.63 617.69,-72.31 626.92,-77.52 628.15,-70.63"/>
</a>
</g>
</g>
<!-- Node8 -->
<g id="Node000008" class="node">
<title>Node8</title>
<g id="a_Node000008"><a xlink:title=" ">
<polygon fill="#e0e0e0" stroke="#999999" points="1023.5,-74 963.5,-74 963.5,-55 1023.5,-55 1023.5,-74"/>
<text text-anchor="middle" x="993.5" y="-62" font-family="Helvetica,sans-Serif" font-size="10.00">atk/atk.h</text>
</a>
</g>
</g>
<!-- Node5&#45;&gt;Node8 -->
<g id="edge7_Node000005_Node000008" class="edge">
<title>Node5&#45;&gt;Node8</title>
<g id="a_edge7_Node000005_Node000008"><a xlink:title=" ">
<path fill="none" stroke="#63b8ff" d="M955.99,-115.37C962.49,-106.73 972.66,-93.2 980.78,-82.42"/>
<polygon fill="#63b8ff" stroke="#63b8ff" points="983.77,-84.26 986.98,-74.17 978.17,-80.06 983.77,-84.26"/>
</a>
</g>
</g>
<!-- Node9 -->
<g id="Node000009" class="node">
<title>Node9</title>
<g id="a_Node000009"><a xlink:href="pluma-encodings_8h.html" target="_top" xlink:title=" ">
<polygon fill="white" stroke="#666666" points="945,-74 802,-74 802,-55 945,-55 945,-74"/>
<text text-anchor="middle" x="873.5" y="-62" font-family="Helvetica,sans-Serif" font-size="10.00">pluma/pluma&#45;encodings.h</text>
</a>
</g>
</g>
<!-- Node5&#45;&gt;Node9 -->
<g id="edge8_Node000005_Node000009" class="edge">
<title>Node5&#45;&gt;Node9</title>
<g id="a_edge8_Node000005_Node000009"><a xlink:title=" ">
<path fill="none" stroke="#63b8ff" d="M938.29,-115.37C926.39,-106.21 907.36,-91.56 892.99,-80.51"/>
<polygon fill="#63b8ff" stroke="#63b8ff" points="894.82,-77.49 884.76,-74.17 890.55,-83.04 894.82,-77.49"/>
</a>
</g>
</g>
<!-- Node11 -->
<g id="Node000011" class="node">
<title>Node11</title>
<g id="a_Node000011"><a xlink:title=" ">
<polygon fill="#e0e0e0" stroke="#999999" points="783.5,-74 635.5,-74 635.5,-55 783.5,-55 783.5,-74"/>
<text text-anchor="middle" x="709.5" y="-62" font-family="Helvetica,sans-Serif" font-size="10.00">gtksourceview/gtksource.h</text>
</a>
</g>
</g>
<!-- Node5&#45;&gt;Node11 -->
<g id="edge11_Node000005_Node000011" class="edge">
<title>Node5&#45;&gt;Node11</title>
<g id="a_edge11_Node000005_Node000011"><a xlink:title=" ">
<path fill="none" stroke="#63b8ff" d="M914.6,-115.49C872.21,-105.16 800.63,-87.71 754.23,-76.4"/>
<polygon fill="#63b8ff" stroke="#63b8ff" points="754.98,-72.98 744.44,-74.02 753.33,-79.79 754.98,-72.98"/>
</a>
</g>
</g>
<!-- Node9&#45;&gt;Node6 -->
<g id="edge9_Node000009_Node000006" class="edge">
<title>Node9&#45;&gt;Node6</title>
<g id="a_edge9_Node000009_Node000006"><a xlink:title=" ">
<path fill="none" stroke="#63b8ff" d="M887.8,-54.98C901.6,-46.77 922.74,-34.18 939.01,-24.49"/>
<polygon fill="#63b8ff" stroke="#63b8ff" points="941.14,-27.29 947.94,-19.17 937.56,-21.28 941.14,-27.29"/>
</a>
</g>
</g>
<!-- Node10 -->
<g id="Node000010" class="node">
<title>Node10</title>
<g id="a_Node000010"><a xlink:title=" ">
<polygon fill="#e0e0e0" stroke="#999999" points="493,-19 416,-19 416,0 493,0 493,-19"/>
<text text-anchor="middle" x="454.5" y="-7" font-family="Helvetica,sans-Serif" font-size="10.00">glib&#45;object.h</text>
</a>
</g>
</g>
<!-- Node9&#45;&gt;Node10 -->
<g id="edge10_Node000009_Node000010" class="edge">
<title>Node9&#45;&gt;Node10</title>
<g id="a_edge10_Node000009_Node000010"><a xlink:title=" ">
<path fill="none" stroke="#63b8ff" d="M806.18,-54.98C721.45,-44.27 577.97,-26.12 503.16,-16.66"/>
<polygon fill="#63b8ff" stroke="#63b8ff" points="503.43,-13.16 493.07,-15.38 502.55,-20.11 503.43,-13.16"/>
</a>
</g>
</g>
<!-- Node12&#45;&gt;Node7 -->
<g id="edge13_Node000012_Node000007" class="edge">
<title>Node12&#45;&gt;Node7</title>
<g id="a_edge13_Node000012_Node000007"><a xlink:title=" ">
<path fill="none" stroke="#63b8ff" d="M714.53,-296.78C772.37,-263.43 902.08,-177.87 844.5,-110 814.47,-74.61 689.5,-82.21 627.75,-73.86"/>
<polygon fill="#63b8ff" stroke="#63b8ff" points="628.13,-70.38 617.7,-72.24 627.02,-77.29 628.13,-70.38"/>
</a>
</g>
</g>
<!-- Node13&#45;&gt;Node4 -->
<g id="edge40_Node000013_Node000004" class="edge">
<title>Node13&#45;&gt;Node4</title>
<g id="a_edge40_Node000013_Node000004"><a xlink:title=" ">
<path fill="none" stroke="#63b8ff" d="M247.61,-362.66C234.5,-340.11 211.5,-294.56 211.5,-252.5 211.5,-252.5 211.5,-252.5 211.5,-190 211.5,-151.38 198.52,-107.64 190.23,-83.65"/>
<polygon fill="#63b8ff" stroke="#63b8ff" points="193.49,-82.34 186.82,-74.1 186.89,-84.7 193.49,-82.34"/>
</a>
</g>
</g>
<!-- Node14 -->
<g id="Node000014" class="node">
<title>Node14</title>
<g id="a_Node000014"><a xlink:href="pluma-window_8h.html" target="_top" xlink:title=" ">
<polygon fill="white" stroke="#666666" points="481,-321.5 350,-321.5 350,-302.5 481,-302.5 481,-321.5"/>
<text text-anchor="middle" x="415.5" y="-309.5" font-family="Helvetica,sans-Serif" font-size="10.00">pluma/pluma&#45;window.h</text>
</a>
</g>
</g>
<!-- Node13&#45;&gt;Node14 -->
<g id="edge15_Node000013_Node000014" class="edge">
<title>Node13&#45;&gt;Node14</title>
<g id="a_edge15_Node000013_Node000014"><a xlink:title=" ">
<path fill="none" stroke="#63b8ff" d="M291.39,-362.95C319.28,-351.73 357.99,-336.15 384.73,-325.39"/>
<polygon fill="#63b8ff" stroke="#63b8ff" points="386.37,-328.5 394.34,-321.52 383.76,-322 386.37,-328.5"/>
</a>
</g>
</g>
<!-- Node14&#45;&gt;Node4 -->
<g id="edge16_Node000014_Node000004" class="edge">
<title>Node14&#45;&gt;Node4</title>
<g id="a_edge16_Node000014_Node000004"><a xlink:title=" ">
<path fill="none" stroke="#63b8ff" d="M404.93,-302.24C384.17,-284.83 337.01,-244.26 301.5,-206 264.48,-166.11 261.1,-151.16 225.5,-110 217.07,-100.26 207.21,-89.76 199.16,-81.41"/>
<polygon fill="#63b8ff" stroke="#63b8ff" points="201.58,-78.88 192.1,-74.16 196.56,-83.76 201.58,-78.88"/>
</a>
</g>
</g>
<!-- Node14&#45;&gt;Node7 -->
<g id="edge17_Node000014_Node000007" class="edge">
<title>Node14&#45;&gt;Node7</title>
<g id="a_edge17_Node000014_Node000007"><a xlink:title=" ">
<path fill="none" stroke="#63b8ff" d="M455.72,-302.47C480.23,-295.3 510.41,-282.63 529.5,-261 553.15,-234.19 575.58,-128.02 584,-84.38"/>
<polygon fill="#63b8ff" stroke="#63b8ff" points="587.49,-84.75 585.91,-74.28 580.61,-83.45 587.49,-84.75"/>
</a>
</g>
</g>
<!-- Node15 -->
<g id="Node000015" class="node">
<title>Node15</title>
<g id="a_Node000015"><a xlink:href="pluma-tab_8h.html" target="_top" xlink:title=" ">
<polygon fill="white" stroke="#666666" points="708.5,-261 598.5,-261 598.5,-242 708.5,-242 708.5,-261"/>
<text text-anchor="middle" x="653.5" y="-249" font-family="Helvetica,sans-Serif" font-size="10.00">pluma/pluma&#45;tab.h</text>
</a>
</g>
</g>
<!-- Node14&#45;&gt;Node15 -->
<g id="edge18_Node000014_Node000015" class="edge">
<title>Node14&#45;&gt;Node15</title>
<g id="a_edge18_Node000014_Node000015"><a xlink:title=" ">
<path fill="none" stroke="#63b8ff" d="M450.11,-302.49C492.06,-292.18 562.84,-274.78 608.86,-263.47"/>
<polygon fill="#63b8ff" stroke="#63b8ff" points="609.98,-266.8 618.85,-261.02 608.3,-260 609.98,-266.8"/>
</a>
</g>
</g>
<!-- Node18 -->
<g id="Node000018" class="node">
<title>Node18</title>
<g id="a_Node000018"><a xlink:href="pluma-panel_8h.html" target="_top" xlink:title=" ">
<polygon fill="white" stroke="#666666" points="521,-261 400,-261 400,-242 521,-242 521,-261"/>
<text text-anchor="middle" x="460.5" y="-249" font-family="Helvetica,sans-Serif" font-size="10.00">pluma/pluma&#45;panel.h</text>
</a>
</g>
</g>
<!-- Node14&#45;&gt;Node18 -->
<g id="edge29_Node000014_Node000018" class="edge">
<title>Node14&#45;&gt;Node18</title>
<g id="a_edge29_Node000014_Node000018"><a xlink:title=" ">
<path fill="none" stroke="#63b8ff" d="M422.14,-302.37C428.79,-293.73 439.19,-280.2 447.49,-269.42"/>
<polygon fill="#63b8ff" stroke="#63b8ff" points="450.51,-271.23 453.83,-261.17 444.96,-266.96 450.51,-271.23"/>
</a>
</g>
</g>
<!-- Node19 -->
<g id="Node000019" class="node">
<title>Node19</title>
<g id="a_Node000019"><a xlink:href="pluma-message-bus_8h.html" target="_top" xlink:title=" ">
<polygon fill="white" stroke="#666666" points="440,-206 311,-206 311,-176 440,-176 440,-206"/>
<text text-anchor="start" x="319" y="-194" font-family="Helvetica,sans-Serif" font-size="10.00">pluma/pluma&#45;message</text>
<text text-anchor="middle" x="375.5" y="-183" font-family="Helvetica,sans-Serif" font-size="10.00">&#45;bus.h</text>
</a>
</g>
</g>
<!-- Node14&#45;&gt;Node19 -->
<g id="edge31_Node000014_Node000019" class="edge">
<title>Node14&#45;&gt;Node19</title>
<g id="a_edge31_Node000014_Node000019"><a xlink:title=" ">
<path fill="none" stroke="#63b8ff" d="M410.39,-302.44C404.78,-292.71 395.86,-276.19 390.5,-261 385.36,-246.4 381.64,-229.42 379.19,-215.96"/>
<polygon fill="#63b8ff" stroke="#63b8ff" points="382.63,-215.3 377.5,-206.03 375.73,-216.47 382.63,-215.3"/>
</a>
</g>
</g>
<!-- Node15&#45;&gt;Node7 -->
<g id="edge19_Node000015_Node000007" class="edge">
<title>Node15&#45;&gt;Node7</title>
<g id="a_edge19_Node000015_Node000007"><a xlink:title=" ">
<path fill="none" stroke="#63b8ff" d="M640.39,-241.96C629.4,-234.04 614.29,-221.2 606.5,-206 586.18,-166.34 585.1,-112.5 586.21,-84.38"/>
<polygon fill="#63b8ff" stroke="#63b8ff" points="589.7,-84.49 586.74,-74.32 582.71,-84.12 589.7,-84.49"/>
</a>
</g>
</g>
<!-- Node16 -->
<g id="Node000016" class="node">
<title>Node16</title>
<g id="a_Node000016"><a xlink:href="pluma-view_8h.html" target="_top" xlink:title=" ">
<polygon fill="white" stroke="#666666" points="731.5,-200.5 615.5,-200.5 615.5,-181.5 731.5,-181.5 731.5,-200.5"/>
<text text-anchor="middle" x="673.5" y="-188.5" font-family="Helvetica,sans-Serif" font-size="10.00">pluma/pluma&#45;view.h</text>
</a>
</g>
</g>
<!-- Node15&#45;&gt;Node16 -->
<g id="edge20_Node000015_Node000016" class="edge">
<title>Node15&#45;&gt;Node16</title>
<g id="a_edge20_Node000015_Node000016"><a xlink:title=" ">
<path fill="none" stroke="#63b8ff" d="M656.45,-241.87C659.29,-233.57 663.66,-220.78 667.27,-210.22"/>
<polygon fill="#63b8ff" stroke="#63b8ff" points="670.61,-211.26 670.54,-200.67 663.99,-209 670.61,-211.26"/>
</a>
</g>
</g>
<!-- Node17 -->
<g id="Node000017" class="node">
<title>Node17</title>
<g id="a_Node000017"><a xlink:href="pluma-document_8h.html" target="_top" xlink:title=" ">
<polygon fill="white" stroke="#666666" points="835,-134.5 692,-134.5 692,-115.5 835,-115.5 835,-134.5"/>
<text text-anchor="middle" x="763.5" y="-122.5" font-family="Helvetica,sans-Serif" font-size="10.00">pluma/pluma&#45;document.h</text>
</a>
</g>
</g>
<!-- Node15&#45;&gt;Node17 -->
<g id="edge28_Node000015_Node000017" class="edge">
<title>Node15&#45;&gt;Node17</title>
<g id="a_edge28_Node000015_Node000017"><a xlink:title=" ">
<path fill="none" stroke="#63b8ff" d="M683.68,-241.92C702.54,-235.09 725.94,-223.68 740.5,-206 754.89,-188.52 760.28,-162.47 762.3,-144.89"/>
<polygon fill="#63b8ff" stroke="#63b8ff" points="765.8,-145 763.2,-134.73 758.83,-144.39 765.8,-145"/>
</a>
</g>
</g>
<!-- Node16&#45;&gt;Node7 -->
<g id="edge21_Node000016_Node000007" class="edge">
<title>Node16&#45;&gt;Node7</title>
<g id="a_edge21_Node000016_Node000007"><a xlink:title=" ">
<path fill="none" stroke="#63b8ff" d="M667.59,-181.44C653.54,-161.1 617.91,-109.53 599.27,-82.54"/>
<polygon fill="#63b8ff" stroke="#63b8ff" points="602.02,-80.36 593.45,-74.12 596.26,-84.33 602.02,-80.36"/>
</a>
</g>
</g>
<!-- Node16&#45;&gt;Node11 -->
<g id="edge27_Node000016_Node000011" class="edge">
<title>Node16&#45;&gt;Node11</title>
<g id="a_edge27_Node000016_Node000011"><a xlink:title=" ">
<path fill="none" stroke="#63b8ff" d="M673.46,-181.34C673.62,-166.39 675.06,-134.92 683.5,-110 686.76,-100.38 692.24,-90.53 697.34,-82.56"/>
<polygon fill="#63b8ff" stroke="#63b8ff" points="700.3,-84.43 702.98,-74.18 694.49,-80.52 700.3,-84.43"/>
</a>
</g>
</g>
<!-- Node16&#45;&gt;Node17 -->
<g id="edge22_Node000016_Node000017" class="edge">
<title>Node16&#45;&gt;Node17</title>
<g id="a_edge22_Node000016_Node000017"><a xlink:title=" ">
<path fill="none" stroke="#63b8ff" d="M685.64,-181.37C700.27,-170.97 725.08,-153.32 742.76,-140.75"/>
<polygon fill="#63b8ff" stroke="#63b8ff" points="745.15,-143.35 751.27,-134.7 741.09,-137.64 745.15,-143.35"/>
</a>
</g>
</g>
<!-- Node17&#45;&gt;Node4 -->
<g id="edge23_Node000017_Node000004" class="edge">
<title>Node17&#45;&gt;Node4</title>
<g id="a_edge23_Node000017_Node000004"><a xlink:title=" ">
<path fill="none" stroke="#63b8ff" d="M691.84,-117.12C594.25,-107.7 414.11,-90.11 260.5,-74 248.4,-72.73 235.23,-71.3 223.26,-69.97"/>
<polygon fill="#63b8ff" stroke="#63b8ff" points="223.43,-66.47 213.11,-68.84 222.66,-73.43 223.43,-66.47"/>
</a>
</g>
</g>
<!-- Node17&#45;&gt;Node7 -->
<g id="edge24_Node000017_Node000007" class="edge">
<title>Node17&#45;&gt;Node7</title>
<g id="a_edge24_Node000017_Node000007"><a xlink:title=" ">
<path fill="none" stroke="#63b8ff" d="M737.91,-115.49C707.54,-105.4 656.74,-88.51 622.68,-77.19"/>
<polygon fill="#63b8ff" stroke="#63b8ff" points="623.72,-73.85 613.12,-74.02 621.51,-80.49 623.72,-73.85"/>
</a>
</g>
</g>
<!-- Node17&#45;&gt;Node9 -->
<g id="edge26_Node000017_Node000009" class="edge">
<title>Node17&#45;&gt;Node9</title>
<g id="a_edge26_Node000017_Node000009"><a xlink:title=" ">
<path fill="none" stroke="#63b8ff" d="M779.73,-115.37C797.77,-105.78 827.12,-90.17 848.18,-78.97"/>
<polygon fill="#63b8ff" stroke="#63b8ff" points="850.02,-81.95 857.2,-74.17 846.73,-75.77 850.02,-81.95"/>
</a>
</g>
</g>
<!-- Node17&#45;&gt;Node11 -->
<g id="edge25_Node000017_Node000011" class="edge">
<title>Node17&#45;&gt;Node11</title>
<g id="a_edge25_Node000017_Node000011"><a xlink:title=" ">
<path fill="none" stroke="#63b8ff" d="M755.53,-115.37C747.4,-106.55 734.57,-92.66 724.52,-81.77"/>
<polygon fill="#63b8ff" stroke="#63b8ff" points="726.86,-79.14 717.5,-74.17 721.71,-83.89 726.86,-79.14"/>
</a>
</g>
</g>
<!-- Node18&#45;&gt;Node7 -->
<g id="edge30_Node000018_Node000007" class="edge">
<title>Node18&#45;&gt;Node7</title>
<g id="a_edge30_Node000018_Node000007"><a xlink:title=" ">
<path fill="none" stroke="#63b8ff" d="M463.75,-241.93C472.74,-218.95 499.66,-154.63 535.5,-110 544.45,-98.85 556.47,-88.36 566.71,-80.36"/>
<polygon fill="#63b8ff" stroke="#63b8ff" points="568.9,-83.09 574.77,-74.27 564.68,-77.5 568.9,-83.09"/>
</a>
</g>
</g>
<!-- Node19&#45;&gt;Node10 -->
<g id="edge32_Node000019_Node000010" class="edge">
<title>Node19&#45;&gt;Node10</title>
<g id="a_edge32_Node000019_Node000010"><a xlink:title=" ">
<path fill="none" stroke="#63b8ff" d="M412.29,-175.94C427.92,-167.93 444.56,-156.2 453.5,-140 472.98,-104.69 465.66,-55.28 459.52,-28.87"/>
<polygon fill="#63b8ff" stroke="#63b8ff" points="462.89,-27.91 457.05,-19.07 456.1,-29.62 462.89,-27.91"/>
</a>
</g>
</g>
<!-- Node20 -->
<g id="Node000020" class="node">
<title>Node20</title>
<g id="a_Node000020"><a xlink:href="pluma-message_8h.html" target="_top" xlink:title=" ">
<polygon fill="white" stroke="#666666" points="407.5,-74 269.5,-74 269.5,-55 407.5,-55 407.5,-74"/>
<text text-anchor="middle" x="338.5" y="-62" font-family="Helvetica,sans-Serif" font-size="10.00">pluma/pluma&#45;message.h</text>
</a>
</g>
</g>
<!-- Node19&#45;&gt;Node20 -->
<g id="edge33_Node000019_Node000020" class="edge">
<title>Node19&#45;&gt;Node20</title>
<g id="a_edge33_Node000019_Node000020"><a xlink:title=" ">
<path fill="none" stroke="#63b8ff" d="M344.24,-175.84C329.97,-167.59 314.5,-155.68 306.5,-140 296.57,-120.53 310.45,-97.28 322.92,-81.99"/>
<polygon fill="#63b8ff" stroke="#63b8ff" points="325.61,-84.23 329.54,-74.39 320.33,-79.63 325.61,-84.23"/>
</a>
</g>
</g>
<!-- Node22 -->
<g id="Node000022" class="node">
<title>Node22</title>
<g id="a_Node000022"><a xlink:href="pluma-message-type_8h.html" target="_top" xlink:title=" ">
<polygon fill="white" stroke="#666666" points="445,-140 316,-140 316,-110 445,-110 445,-140"/>
<text text-anchor="start" x="324" y="-128" font-family="Helvetica,sans-Serif" font-size="10.00">pluma/pluma&#45;message</text>
<text text-anchor="middle" x="380.5" y="-117" font-family="Helvetica,sans-Serif" font-size="10.00">&#45;type.h</text>
</a>
</g>
</g>
<!-- Node19&#45;&gt;Node22 -->
<g id="edge36_Node000019_Node000022" class="edge">
<title>Node19&#45;&gt;Node22</title>
<g id="a_edge36_Node000019_Node000022"><a xlink:title=" ">
<path fill="none" stroke="#63b8ff" d="M376.61,-175.8C377.19,-168.34 377.92,-158.99 378.59,-150.41"/>
<polygon fill="#63b8ff" stroke="#63b8ff" points="382.1,-150.41 379.39,-140.16 375.13,-149.86 382.1,-150.41"/>
</a>
</g>
</g>
<!-- Node20&#45;&gt;Node10 -->
<g id="edge34_Node000020_Node000010" class="edge">
<title>Node20&#45;&gt;Node10</title>
<g id="a_edge34_Node000020_Node000010"><a xlink:title=" ">
<path fill="none" stroke="#63b8ff" d="M357.14,-54.98C375.8,-46.46 404.75,-33.23 426.24,-23.41"/>
<polygon fill="#63b8ff" stroke="#63b8ff" points="427.88,-26.51 435.52,-19.17 424.97,-20.14 427.88,-26.51"/>
</a>
</g>
</g>
<!-- Node21 -->
<g id="Node000021" class="node">
<title>Node21</title>
<g id="a_Node000021"><a xlink:title=" ">
<polygon fill="#e0e0e0" stroke="#999999" points="318.5,-19 262.5,-19 262.5,0 318.5,0 318.5,-19"/>
<text text-anchor="middle" x="290.5" y="-7" font-family="Helvetica,sans-Serif" font-size="10.00">stdarg.h</text>
</a>
</g>
</g>
<!-- Node20&#45;&gt;Node21 -->
<g id="edge35_Node000020_Node000021" class="edge">
<title>Node20&#45;&gt;Node21</title>
<g id="a_edge35_Node000020_Node000021"><a xlink:title=" ">
<path fill="none" stroke="#63b8ff" d="M330.57,-54.75C323.65,-47.11 313.43,-35.82 305.05,-26.56"/>
<polygon fill="#63b8ff" stroke="#63b8ff" points="307.59,-24.15 298.28,-19.09 302.4,-28.85 307.59,-24.15"/>
</a>
</g>
</g>
<!-- Node22&#45;&gt;Node10 -->
<g id="edge37_Node000022_Node000010" class="edge">
<title>Node22&#45;&gt;Node10</title>
<g id="a_edge37_Node000022_Node000010"><a xlink:title=" ">
<path fill="none" stroke="#63b8ff" d="M391.23,-109.79C398.56,-99.9 408.39,-86.33 416.5,-74 426.51,-58.77 437.1,-40.93 444.54,-28.04"/>
<polygon fill="#63b8ff" stroke="#63b8ff" points="447.63,-29.69 449.57,-19.27 441.56,-26.21 447.63,-29.69"/>
</a>
</g>
</g>
<!-- Node22&#45;&gt;Node20 -->
<g id="edge39_Node000022_Node000020" class="edge">
<title>Node22&#45;&gt;Node20</title>
<g id="a_edge39_Node000022_Node000020"><a xlink:title=" ">
<path fill="none" stroke="#63b8ff" d="M370.33,-109.84C364.42,-101.61 356.94,-91.18 350.71,-82.51"/>
<polygon fill="#63b8ff" stroke="#63b8ff" points="353.47,-80.35 344.79,-74.27 347.78,-84.43 353.47,-80.35"/>
</a>
</g>
</g>
<!-- Node22&#45;&gt;Node21 -->
<g id="edge38_Node000022_Node000021" class="edge">
<title>Node22&#45;&gt;Node21</title>
<g id="a_edge38_Node000022_Node000021"><a xlink:title=" ">
<path fill="none" stroke="#63b8ff" d="M315.7,-112.07C294.49,-104.75 273.14,-92.97 260.5,-74 250.42,-58.88 262.25,-39.84 273.89,-26.57"/>
<polygon fill="#63b8ff" stroke="#63b8ff" points="276.59,-28.81 280.92,-19.14 271.5,-24 276.59,-28.81"/>
</a>
</g>
</g>
</g>
</svg>
