<?xml version="1.0" encoding="UTF-8" standalone="no"?>
<!DOCTYPE svg PUBLIC "-//W3C//DTD SVG 1.1//EN"
 "http://www.w3.org/Graphics/SVG/1.1/DTD/svg11.dtd">
<!-- Generated by graphviz version 2.43.0 (0)
 -->
<!-- Title: pluma&#45;view.h Pages: 1 -->
<svg width="473pt" height="192pt"
 viewBox="0.00 0.00 473.00 192.00" xmlns="http://www.w3.org/2000/svg" xmlns:xlink="http://www.w3.org/1999/xlink">
<g id="graph0" class="graph" transform="scale(1 1) rotate(0) translate(4 188)">
<title>pluma&#45;view.h</title>
<!-- Node1 -->
<g id="Node000001" class="node">
<title>Node1</title>
<g id="a_Node000001"><a xlink:title=" ">
<polygon fill="#999999" stroke="#666666" points="243,-184 161,-184 161,-165 243,-165 243,-184"/>
<text text-anchor="middle" x="202" y="-172" font-family="Helvetica,sans-Serif" font-size="10.00">pluma&#45;view.h</text>
</a>
</g>
</g>
<!-- Node2 -->
<g id="Node000002" class="node">
<title>Node2</title>
<g id="a_Node000002"><a xlink:title=" ">
<polygon fill="#e0e0e0" stroke="#999999" points="60,-74 0,-74 0,-55 60,-55 60,-74"/>
<text text-anchor="middle" x="30" y="-62" font-family="Helvetica,sans-Serif" font-size="10.00">gtk/gtk.h</text>
</a>
</g>
</g>
<!-- Node1&#45;&gt;Node2 -->
<g id="edge1_Node000001_Node000002" class="edge">
<title>Node1&#45;&gt;Node2</title>
<g id="a_edge1_Node000001_Node000002"><a xlink:title=" ">
<path fill="none" stroke="#63b8ff" d="M185.26,-164.97C168.67,-156.37 142.67,-142.46 121,-129 95.69,-113.28 67.74,-93.37 49.58,-80.08"/>
<polygon fill="#63b8ff" stroke="#63b8ff" points="51.64,-77.24 41.51,-74.13 47.48,-82.88 51.64,-77.24"/>
</a>
</g>
</g>
<!-- Node3 -->
<g id="Node000003" class="node">
<title>Node3</title>
<g id="a_Node000003"><a xlink:href="pluma-document_8h.html" target="_top" xlink:title=" ">
<polygon fill="white" stroke="#666666" points="273.5,-129 130.5,-129 130.5,-110 273.5,-110 273.5,-129"/>
<text text-anchor="middle" x="202" y="-117" font-family="Helvetica,sans-Serif" font-size="10.00">pluma/pluma&#45;document.h</text>
</a>
</g>
</g>
<!-- Node1&#45;&gt;Node3 -->
<g id="edge2_Node000001_Node000003" class="edge">
<title>Node1&#45;&gt;Node3</title>
<g id="a_edge2_Node000001_Node000003"><a xlink:title=" ">
<path fill="none" stroke="#63b8ff" d="M202,-164.75C202,-157.8 202,-147.85 202,-139.13"/>
<polygon fill="#63b8ff" stroke="#63b8ff" points="205.5,-139.09 202,-129.09 198.5,-139.09 205.5,-139.09"/>
</a>
</g>
</g>
<!-- Node5 -->
<g id="Node000005" class="node">
<title>Node5</title>
<g id="a_Node000005"><a xlink:title=" ">
<polygon fill="#e0e0e0" stroke="#999999" points="465,-74 317,-74 317,-55 465,-55 465,-74"/>
<text text-anchor="middle" x="391" y="-62" font-family="Helvetica,sans-Serif" font-size="10.00">gtksourceview/gtksource.h</text>
</a>
</g>
</g>
<!-- Node1&#45;&gt;Node5 -->
<g id="edge9_Node000001_Node000005" class="edge">
<title>Node1&#45;&gt;Node5</title>
<g id="a_edge9_Node000001_Node000005"><a xlink:title=" ">
<path fill="none" stroke="#63b8ff" d="M217.91,-164.94C234.3,-156.08 260.54,-141.77 283,-129 312.48,-112.24 346.12,-92.34 367.91,-79.34"/>
<polygon fill="#63b8ff" stroke="#63b8ff" points="369.96,-82.19 376.75,-74.06 366.37,-76.18 369.96,-82.19"/>
</a>
</g>
</g>
<!-- Node3&#45;&gt;Node2 -->
<g id="edge4_Node000003_Node000002" class="edge">
<title>Node3&#45;&gt;Node2</title>
<g id="a_edge4_Node000003_Node000002"><a xlink:title=" ">
<path fill="none" stroke="#63b8ff" d="M174.37,-109.98C145.49,-101.09 99.99,-87.07 67.8,-77.15"/>
<polygon fill="#63b8ff" stroke="#63b8ff" points="68.44,-73.68 57.85,-74.08 66.38,-80.37 68.44,-73.68"/>
</a>
</g>
</g>
<!-- Node4 -->
<g id="Node000004" class="node">
<title>Node4</title>
<g id="a_Node000004"><a xlink:title=" ">
<polygon fill="#e0e0e0" stroke="#999999" points="137.5,-74 78.5,-74 78.5,-55 137.5,-55 137.5,-74"/>
<text text-anchor="middle" x="108" y="-62" font-family="Helvetica,sans-Serif" font-size="10.00">gio/gio.h</text>
</a>
</g>
</g>
<!-- Node3&#45;&gt;Node4 -->
<g id="edge3_Node000003_Node000004" class="edge">
<title>Node3&#45;&gt;Node4</title>
<g id="a_edge3_Node000003_Node000004"><a xlink:title=" ">
<path fill="none" stroke="#63b8ff" d="M186.9,-109.98C172.18,-101.69 149.58,-88.94 132.33,-79.22"/>
<polygon fill="#63b8ff" stroke="#63b8ff" points="133.81,-76.03 123.38,-74.17 130.37,-82.13 133.81,-76.03"/>
</a>
</g>
</g>
<!-- Node3&#45;&gt;Node5 -->
<g id="edge5_Node000003_Node000005" class="edge">
<title>Node3&#45;&gt;Node5</title>
<g id="a_edge5_Node000003_Node000005"><a xlink:title=" ">
<path fill="none" stroke="#63b8ff" d="M232.37,-109.98C264.37,-101.01 314.96,-86.82 350.38,-76.89"/>
<polygon fill="#63b8ff" stroke="#63b8ff" points="351.71,-80.15 360.4,-74.08 349.82,-73.41 351.71,-80.15"/>
</a>
</g>
</g>
<!-- Node6 -->
<g id="Node000006" class="node">
<title>Node6</title>
<g id="a_Node000006"><a xlink:href="pluma-encodings_8h.html" target="_top" xlink:title=" ">
<polygon fill="white" stroke="#666666" points="298.5,-74 155.5,-74 155.5,-55 298.5,-55 298.5,-74"/>
<text text-anchor="middle" x="227" y="-62" font-family="Helvetica,sans-Serif" font-size="10.00">pluma/pluma&#45;encodings.h</text>
</a>
</g>
</g>
<!-- Node3&#45;&gt;Node6 -->
<g id="edge6_Node000003_Node000006" class="edge">
<title>Node3&#45;&gt;Node6</title>
<g id="a_edge6_Node000003_Node000006"><a xlink:title=" ">
<path fill="none" stroke="#63b8ff" d="M206.13,-109.75C209.51,-102.57 214.42,-92.18 218.62,-83.27"/>
<polygon fill="#63b8ff" stroke="#63b8ff" points="221.85,-84.63 222.95,-74.09 215.52,-81.64 221.85,-84.63"/>
</a>
</g>
</g>
<!-- Node7 -->
<g id="Node000007" class="node">
<title>Node7</title>
<g id="a_Node000007"><a xlink:title=" ">
<polygon fill="#e0e0e0" stroke="#999999" points="209,-19 165,-19 165,0 209,0 209,-19"/>
<text text-anchor="middle" x="187" y="-7" font-family="Helvetica,sans-Serif" font-size="10.00">glib.h</text>
</a>
</g>
</g>
<!-- Node6&#45;&gt;Node7 -->
<g id="edge7_Node000006_Node000007" class="edge">
<title>Node6&#45;&gt;Node7</title>
<g id="a_edge7_Node000006_Node000007"><a xlink:title=" ">
<path fill="none" stroke="#63b8ff" d="M220.39,-54.75C214.74,-47.26 206.46,-36.28 199.55,-27.13"/>
<polygon fill="#63b8ff" stroke="#63b8ff" points="202.3,-24.96 193.48,-19.09 196.71,-29.18 202.3,-24.96"/>
</a>
</g>
</g>
<!-- Node8 -->
<g id="Node000008" class="node">
<title>Node8</title>
<g id="a_Node000008"><a xlink:title=" ">
<polygon fill="#e0e0e0" stroke="#999999" points="304.5,-19 227.5,-19 227.5,0 304.5,0 304.5,-19"/>
<text text-anchor="middle" x="266" y="-7" font-family="Helvetica,sans-Serif" font-size="10.00">glib&#45;object.h</text>
</a>
</g>
</g>
<!-- Node6&#45;&gt;Node8 -->
<g id="edge8_Node000006_Node000008" class="edge">
<title>Node6&#45;&gt;Node8</title>
<g id="a_edge8_Node000006_Node000008"><a xlink:title=" ">
<path fill="none" stroke="#63b8ff" d="M233.44,-54.75C238.89,-47.34 246.86,-36.5 253.56,-27.41"/>
<polygon fill="#63b8ff" stroke="#63b8ff" points="256.57,-29.22 259.68,-19.09 250.93,-25.07 256.57,-29.22"/>
</a>
</g>
</g>
</g>
</svg>
