<?xml version="1.0" encoding="UTF-8" standalone="no"?>
<!DOCTYPE svg PUBLIC "-//W3C//DTD SVG 1.1//EN"
 "http://www.w3.org/Graphics/SVG/1.1/DTD/svg11.dtd">
<!-- Generated by graphviz version 2.43.0 (0)
 -->
<!-- Title: pluma&#45;window&#45;activatable.h Pages: 1 -->
<svg width="1832pt" height="93pt"
 viewBox="0.00 0.00 1832.00 93.00" xmlns="http://www.w3.org/2000/svg" xmlns:xlink="http://www.w3.org/1999/xlink">
<g id="graph0" class="graph" transform="scale(1 1) rotate(0) translate(4 89)">
<title>pluma&#45;window&#45;activatable.h</title>
<!-- Node1 -->
<g id="Node000001" class="node">
<title>Node1</title>
<g id="a_Node000001"><a xlink:title=" ">
<polygon fill="#999999" stroke="#666666" points="970,-85 814,-85 814,-66 970,-66 970,-85"/>
<text text-anchor="middle" x="892" y="-73" font-family="Helvetica,sans-Serif" font-size="10.00">pluma&#45;window&#45;activatable.h</text>
</a>
</g>
</g>
<!-- Node2 -->
<g id="Node000002" class="node">
<title>Node2</title>
<g id="a_Node000002"><a xlink:href="pluma-bookmarks-plugin_8c.html" target="_top" xlink:title=" ">
<polygon fill="white" stroke="#666666" points="148,-24.5 0,-24.5 0,-5.5 148,-5.5 148,-24.5"/>
<text text-anchor="middle" x="74" y="-12.5" font-family="Helvetica,sans-Serif" font-size="10.00">pluma&#45;bookmarks&#45;plugin.c</text>
</a>
</g>
</g>
<!-- Node1&#45;&gt;Node2 -->
<g id="edge1_Node000001_Node000002" class="edge">
<title>Node1&#45;&gt;Node2</title>
<g id="a_edge1_Node000001_Node000002"><a xlink:title=" ">
<path fill="none" stroke="#63b8ff" d="M803.86,-72.2C665.65,-67.91 389.64,-56.59 157,-30 144.66,-28.59 131.36,-26.57 119.11,-24.51"/>
<polygon fill="#63b8ff" stroke="#63b8ff" points="803.88,-75.7 813.98,-72.51 804.09,-68.7 803.88,-75.7"/>
</a>
</g>
</g>
<!-- Node3 -->
<g id="Node000003" class="node">
<title>Node3</title>
<g id="a_Node000003"><a xlink:href="pluma-docinfo-plugin_8c.html" target="_top" xlink:title=" ">
<polygon fill="white" stroke="#666666" points="295.5,-24.5 166.5,-24.5 166.5,-5.5 295.5,-5.5 295.5,-24.5"/>
<text text-anchor="middle" x="231" y="-12.5" font-family="Helvetica,sans-Serif" font-size="10.00">pluma&#45;docinfo&#45;plugin.c</text>
</a>
</g>
</g>
<!-- Node1&#45;&gt;Node3 -->
<g id="edge2_Node000001_Node000003" class="edge">
<title>Node1&#45;&gt;Node3</title>
<g id="a_edge2_Node000001_Node000003"><a xlink:title=" ">
<path fill="none" stroke="#63b8ff" d="M803.52,-70.95C688.17,-65.6 480.32,-53.5 304,-30 293.26,-28.57 281.7,-26.57 271.03,-24.53"/>
<polygon fill="#63b8ff" stroke="#63b8ff" points="803.56,-74.45 813.71,-71.42 803.88,-67.46 803.56,-74.45"/>
</a>
</g>
</g>
<!-- Node4 -->
<g id="Node000004" class="node">
<title>Node4</title>
<g id="a_Node000004"><a xlink:href="pluma-file-browser-plugin_8c.html" target="_top" xlink:title=" ">
<polygon fill="white" stroke="#666666" points="422.5,-30 313.5,-30 313.5,0 422.5,0 422.5,-30"/>
<text text-anchor="start" x="321.5" y="-18" font-family="Helvetica,sans-Serif" font-size="10.00">pluma&#45;file&#45;browser</text>
<text text-anchor="middle" x="368" y="-7" font-family="Helvetica,sans-Serif" font-size="10.00">&#45;plugin.c</text>
</a>
</g>
</g>
<!-- Node1&#45;&gt;Node4 -->
<g id="edge3_Node000001_Node000004" class="edge">
<title>Node1&#45;&gt;Node4</title>
<g id="a_edge3_Node000001_Node000004"><a xlink:title=" ">
<path fill="none" stroke="#63b8ff" d="M803.51,-69.19C710.4,-62.85 559.78,-50.45 431,-30 428.23,-29.56 425.41,-29.07 422.56,-28.55"/>
<polygon fill="#63b8ff" stroke="#63b8ff" points="803.52,-72.7 813.73,-69.88 803.99,-65.71 803.52,-72.7"/>
</a>
</g>
</g>
<!-- Node5 -->
<g id="Node000005" class="node">
<title>Node5</title>
<g id="a_Node000005"><a xlink:href="pluma-modeline-plugin_8c.html" target="_top" xlink:title=" ">
<polygon fill="white" stroke="#666666" points="579.5,-24.5 440.5,-24.5 440.5,-5.5 579.5,-5.5 579.5,-24.5"/>
<text text-anchor="middle" x="510" y="-12.5" font-family="Helvetica,sans-Serif" font-size="10.00">pluma&#45;modeline&#45;plugin.c</text>
</a>
</g>
</g>
<!-- Node1&#45;&gt;Node5 -->
<g id="edge4_Node000001_Node000005" class="edge">
<title>Node1&#45;&gt;Node5</title>
<g id="a_edge4_Node000001_Node000005"><a xlink:title=" ">
<path fill="none" stroke="#63b8ff" d="M819.59,-64.57C757.94,-55.96 667.04,-42.88 588,-30 577.68,-28.32 566.61,-26.4 556.15,-24.54"/>
<polygon fill="#63b8ff" stroke="#63b8ff" points="819.22,-68.05 829.61,-65.97 820.19,-61.12 819.22,-68.05"/>
</a>
</g>
</g>
<!-- Node6 -->
<g id="Node000006" class="node">
<title>Node6</title>
<g id="a_Node000006"><a xlink:href="pluma-plugin_8c.html" target="_top" xlink:title=" ">
<polygon fill="white" stroke="#666666" points="686.5,-24.5 597.5,-24.5 597.5,-5.5 686.5,-5.5 686.5,-24.5"/>
<text text-anchor="middle" x="642" y="-12.5" font-family="Helvetica,sans-Serif" font-size="10.00">pluma&#45;plugin.c</text>
</a>
</g>
</g>
<!-- Node1&#45;&gt;Node6 -->
<g id="edge5_Node000001_Node000006" class="edge">
<title>Node1&#45;&gt;Node6</title>
<g id="a_edge5_Node000001_Node000006"><a xlink:title=" ">
<path fill="none" stroke="#63b8ff" d="M842.28,-63.79C802.37,-55.07 744.97,-42.24 695,-30 688.07,-28.3 680.65,-26.4 673.62,-24.55"/>
<polygon fill="#63b8ff" stroke="#63b8ff" points="841.77,-67.26 852.28,-65.97 843.26,-60.42 841.77,-67.26"/>
</a>
</g>
</g>
<!-- Node7 -->
<g id="Node000007" class="node">
<title>Node7</title>
<g id="a_Node000007"><a xlink:href="pluma-sort-plugin_8c.html" target="_top" xlink:title=" ">
<polygon fill="white" stroke="#666666" points="816,-24.5 704,-24.5 704,-5.5 816,-5.5 816,-24.5"/>
<text text-anchor="middle" x="760" y="-12.5" font-family="Helvetica,sans-Serif" font-size="10.00">pluma&#45;sort&#45;plugin.c</text>
</a>
</g>
</g>
<!-- Node1&#45;&gt;Node7 -->
<g id="edge6_Node000001_Node000007" class="edge">
<title>Node1&#45;&gt;Node7</title>
<g id="a_edge6_Node000001_Node000007"><a xlink:title=" ">
<path fill="none" stroke="#63b8ff" d="M863.64,-61.93C838.16,-50.64 801.42,-34.36 779.22,-24.52"/>
<polygon fill="#63b8ff" stroke="#63b8ff" points="862.25,-65.14 872.81,-65.99 865.08,-58.74 862.25,-65.14"/>
</a>
</g>
</g>
<!-- Node8 -->
<g id="Node000008" class="node">
<title>Node8</title>
<g id="a_Node000008"><a xlink:href="pluma-spell-plugin_8c.html" target="_top" xlink:title=" ">
<polygon fill="white" stroke="#666666" points="950,-24.5 834,-24.5 834,-5.5 950,-5.5 950,-24.5"/>
<text text-anchor="middle" x="892" y="-12.5" font-family="Helvetica,sans-Serif" font-size="10.00">pluma&#45;spell&#45;plugin.c</text>
</a>
</g>
</g>
<!-- Node1&#45;&gt;Node8 -->
<g id="edge7_Node000001_Node000008" class="edge">
<title>Node1&#45;&gt;Node8</title>
<g id="a_edge7_Node000001_Node000008"><a xlink:title=" ">
<path fill="none" stroke="#63b8ff" d="M892,-55.66C892,-45.24 892,-32.8 892,-24.67"/>
<polygon fill="#63b8ff" stroke="#63b8ff" points="888.5,-55.87 892,-65.87 895.5,-55.87 888.5,-55.87"/>
</a>
</g>
</g>
<!-- Node9 -->
<g id="Node000009" class="node">
<title>Node9</title>
<g id="a_Node000009"><a xlink:href="pluma-taglist-plugin_8c.html" target="_top" xlink:title=" ">
<polygon fill="white" stroke="#666666" points="1092,-24.5 968,-24.5 968,-5.5 1092,-5.5 1092,-24.5"/>
<text text-anchor="middle" x="1030" y="-12.5" font-family="Helvetica,sans-Serif" font-size="10.00">pluma&#45;taglist&#45;plugin.c</text>
</a>
</g>
</g>
<!-- Node1&#45;&gt;Node9 -->
<g id="edge8_Node000001_Node000009" class="edge">
<title>Node1&#45;&gt;Node9</title>
<g id="a_edge8_Node000001_Node000009"><a xlink:title=" ">
<path fill="none" stroke="#63b8ff" d="M921.29,-62.08C947.95,-50.78 986.6,-34.4 1009.91,-24.52"/>
<polygon fill="#63b8ff" stroke="#63b8ff" points="919.91,-58.87 912.07,-65.99 922.64,-65.31 919.91,-58.87"/>
</a>
</g>
</g>
<!-- Node10 -->
<g id="Node000010" class="node">
<title>Node10</title>
<g id="a_Node000010"><a xlink:href="pluma-time-plugin_8c.html" target="_top" xlink:title=" ">
<polygon fill="white" stroke="#666666" points="1226,-24.5 1110,-24.5 1110,-5.5 1226,-5.5 1226,-24.5"/>
<text text-anchor="middle" x="1168" y="-12.5" font-family="Helvetica,sans-Serif" font-size="10.00">pluma&#45;time&#45;plugin.c</text>
</a>
</g>
</g>
<!-- Node1&#45;&gt;Node10 -->
<g id="edge9_Node000001_Node000010" class="edge">
<title>Node1&#45;&gt;Node10</title>
<g id="a_edge9_Node000001_Node000010"><a xlink:title=" ">
<path fill="none" stroke="#63b8ff" d="M942.05,-63.89C995.34,-52.6 1078.64,-34.94 1127.82,-24.52"/>
<polygon fill="#63b8ff" stroke="#63b8ff" points="941.19,-60.5 932.13,-65.99 942.64,-67.34 941.19,-60.5"/>
</a>
</g>
</g>
<!-- Node11 -->
<g id="Node000011" class="node">
<title>Node11</title>
<g id="a_Node000011"><a xlink:href="pluma-trail-save-plugin_8c.html" target="_top" xlink:title=" ">
<polygon fill="white" stroke="#666666" points="1384,-24.5 1244,-24.5 1244,-5.5 1384,-5.5 1384,-24.5"/>
<text text-anchor="middle" x="1314" y="-12.5" font-family="Helvetica,sans-Serif" font-size="10.00">pluma&#45;trail&#45;save&#45;plugin.c</text>
</a>
</g>
</g>
<!-- Node1&#45;&gt;Node11 -->
<g id="edge10_Node000001_Node000011" class="edge">
<title>Node1&#45;&gt;Node11</title>
<g id="a_edge10_Node000001_Node000011"><a xlink:title=" ">
<path fill="none" stroke="#63b8ff" d="M975.43,-64.77C1044.98,-56.4 1146.61,-43.56 1235,-30 1245.74,-28.35 1257.27,-26.41 1268.11,-24.5"/>
<polygon fill="#63b8ff" stroke="#63b8ff" points="974.92,-61.31 965.41,-65.98 975.75,-68.26 974.92,-61.31"/>
</a>
</g>
</g>
<!-- Node12 -->
<g id="Node000012" class="node">
<title>Node12</title>
<g id="a_Node000012"><a xlink:href="pluma-window-activatable_8c.html" target="_top" xlink:title=" ">
<polygon fill="white" stroke="#666666" points="1557.5,-24.5 1402.5,-24.5 1402.5,-5.5 1557.5,-5.5 1557.5,-24.5"/>
<text text-anchor="middle" x="1480" y="-12.5" font-family="Helvetica,sans-Serif" font-size="10.00">pluma&#45;window&#45;activatable.c</text>
</a>
</g>
</g>
<!-- Node1&#45;&gt;Node12 -->
<g id="edge11_Node000001_Node000012" class="edge">
<title>Node1&#45;&gt;Node12</title>
<g id="a_edge11_Node000001_Node000012"><a xlink:title=" ">
<path fill="none" stroke="#63b8ff" d="M980.37,-68.56C1080.62,-61.37 1248.91,-47.97 1393,-30 1405.3,-28.47 1418.52,-26.5 1430.86,-24.53"/>
<polygon fill="#63b8ff" stroke="#63b8ff" points="980.01,-65.07 970.28,-69.27 980.51,-72.05 980.01,-65.07"/>
</a>
</g>
</g>
<!-- Node13 -->
<g id="Node000013" class="node">
<title>Node13</title>
<g id="a_Node000013"><a xlink:href="pluma-window_8c.html" target="_top" xlink:title=" ">
<polygon fill="white" stroke="#666666" points="1672,-24.5 1576,-24.5 1576,-5.5 1672,-5.5 1672,-24.5"/>
<text text-anchor="middle" x="1624" y="-12.5" font-family="Helvetica,sans-Serif" font-size="10.00">pluma&#45;window.c</text>
</a>
</g>
</g>
<!-- Node1&#45;&gt;Node13 -->
<g id="edge12_Node000001_Node000013" class="edge">
<title>Node1&#45;&gt;Node13</title>
<g id="a_edge12_Node000001_Node000013"><a xlink:title=" ">
<path fill="none" stroke="#63b8ff" d="M980.44,-73.59C1109.92,-71.15 1358.37,-62.24 1567,-30 1575.66,-28.66 1584.93,-26.64 1593.43,-24.55"/>
<polygon fill="#63b8ff" stroke="#63b8ff" points="980.12,-70.1 970.18,-73.77 980.24,-77.09 980.12,-70.1"/>
</a>
</g>
</g>
<!-- Node14 -->
<g id="Node000014" class="node">
<title>Node14</title>
<g id="a_Node000014"><a xlink:href="pluma-word-completion-plugin_8c.html" target="_top" xlink:title=" ">
<polygon fill="white" stroke="#666666" points="1824,-30 1690,-30 1690,0 1824,0 1824,-30"/>
<text text-anchor="start" x="1698" y="-18" font-family="Helvetica,sans-Serif" font-size="10.00">pluma&#45;word&#45;completion</text>
<text text-anchor="middle" x="1757" y="-7" font-family="Helvetica,sans-Serif" font-size="10.00">&#45;plugin.c</text>
</a>
</g>
</g>
<!-- Node1&#45;&gt;Node14 -->
<g id="edge13_Node000001_Node000014" class="edge">
<title>Node1&#45;&gt;Node14</title>
<g id="a_edge13_Node000001_Node000014"><a xlink:title=" ">
<path fill="none" stroke="#63b8ff" d="M980.37,-73.14C1126.61,-70.07 1427.91,-60.33 1681,-30 1683.93,-29.65 1686.92,-29.25 1689.93,-28.83"/>
<polygon fill="#63b8ff" stroke="#63b8ff" points="980.04,-69.64 970.12,-73.35 980.19,-76.64 980.04,-69.64"/>
</a>
</g>
</g>
</g>
</svg>
