<?xml version="1.0" encoding="UTF-8" standalone="no"?>
<!DOCTYPE svg PUBLIC "-//W3C//DTD SVG 1.1//EN"
 "http://www.w3.org/Graphics/SVG/1.1/DTD/svg11.dtd">
<!-- Generated by graphviz version 2.43.0 (0)
 -->
<!-- Title: pulse&#45;connection.h Pages: 1 -->
<svg width="2219pt" height="82pt"
 viewBox="0.00 0.00 2219.00 82.00" xmlns="http://www.w3.org/2000/svg" xmlns:xlink="http://www.w3.org/1999/xlink">
<g id="graph0" class="graph" transform="scale(1 1) rotate(0) translate(4 78)">
<title>pulse&#45;connection.h</title>
<!-- Node1 -->
<g id="Node000001" class="node">
<title>Node1</title>
<g id="a_Node000001"><a xlink:title=" ">
<polygon fill="#999999" stroke="#666666" points="1147,-74 1038,-74 1038,-55 1147,-55 1147,-74"/>
<text text-anchor="middle" x="1092.5" y="-62" font-family="Helvetica,sans-Serif" font-size="10.00">pulse&#45;connection.h</text>
</a>
</g>
</g>
<!-- Node2 -->
<g id="Node000002" class="node">
<title>Node2</title>
<g id="a_Node000002"><a xlink:href="pulse-backend_8c.html" target="_top" xlink:title=" ">
<polygon fill="white" stroke="#666666" points="95,-19 0,-19 0,0 95,0 95,-19"/>
<text text-anchor="middle" x="47.5" y="-7" font-family="Helvetica,sans-Serif" font-size="10.00">pulse&#45;backend.c</text>
</a>
</g>
</g>
<!-- Node1&#45;&gt;Node2 -->
<g id="edge1_Node000001_Node000002" class="edge">
<title>Node1&#45;&gt;Node2</title>
<g id="a_edge1_Node000001_Node000002"><a xlink:title=" ">
<path fill="none" stroke="#63b8ff" d="M1027.7,-62.89C869.58,-60.89 451.5,-52.6 104.5,-19 101.41,-18.7 98.24,-18.35 95.04,-17.96"/>
<polygon fill="#63b8ff" stroke="#63b8ff" points="1027.69,-66.39 1037.74,-63.01 1027.78,-59.39 1027.69,-66.39"/>
</a>
</g>
</g>
<!-- Node3 -->
<g id="Node000003" class="node">
<title>Node3</title>
<g id="a_Node000003"><a xlink:href="pulse-connection_8c.html" target="_top" xlink:title=" ">
<polygon fill="white" stroke="#666666" points="221.5,-19 113.5,-19 113.5,0 221.5,0 221.5,-19"/>
<text text-anchor="middle" x="167.5" y="-7" font-family="Helvetica,sans-Serif" font-size="10.00">pulse&#45;connection.c</text>
</a>
</g>
</g>
<!-- Node1&#45;&gt;Node3 -->
<g id="edge2_Node000001_Node000003" class="edge">
<title>Node1&#45;&gt;Node3</title>
<g id="a_edge2_Node000001_Node000003"><a xlink:title=" ">
<path fill="none" stroke="#63b8ff" d="M1027.53,-61.98C883.67,-58.2 527.45,-46.65 230.5,-19 227.64,-18.73 224.72,-18.43 221.76,-18.11"/>
<polygon fill="#63b8ff" stroke="#63b8ff" points="1027.84,-65.49 1037.93,-62.25 1028.02,-58.49 1027.84,-65.49"/>
</a>
</g>
</g>
<!-- Node4 -->
<g id="Node000004" class="node">
<title>Node4</title>
<g id="a_Node000004"><a xlink:href="pulse-device-profile_8c.html" target="_top" xlink:title=" ">
<polygon fill="white" stroke="#666666" points="361.5,-19 239.5,-19 239.5,0 361.5,0 361.5,-19"/>
<text text-anchor="middle" x="300.5" y="-7" font-family="Helvetica,sans-Serif" font-size="10.00">pulse&#45;device&#45;profile.c</text>
</a>
</g>
</g>
<!-- Node1&#45;&gt;Node4 -->
<g id="edge3_Node000001_Node000004" class="edge">
<title>Node1&#45;&gt;Node4</title>
<g id="a_edge3_Node000001_Node000004"><a xlink:title=" ">
<path fill="none" stroke="#63b8ff" d="M1027.32,-60.78C900.61,-55.2 612.27,-41.11 370.5,-19 367.57,-18.73 364.58,-18.44 361.56,-18.13"/>
<polygon fill="#63b8ff" stroke="#63b8ff" points="1027.47,-64.29 1037.62,-61.23 1027.78,-57.3 1027.47,-64.29"/>
</a>
</g>
</g>
<!-- Node5 -->
<g id="Node000005" class="node">
<title>Node5</title>
<g id="a_Node000005"><a xlink:href="pulse-device-switch_8c.html" target="_top" xlink:title=" ">
<polygon fill="white" stroke="#666666" points="501.5,-19 379.5,-19 379.5,0 501.5,0 501.5,-19"/>
<text text-anchor="middle" x="440.5" y="-7" font-family="Helvetica,sans-Serif" font-size="10.00">pulse&#45;device&#45;switch.c</text>
</a>
</g>
</g>
<!-- Node1&#45;&gt;Node5 -->
<g id="edge4_Node000001_Node000005" class="edge">
<title>Node1&#45;&gt;Node5</title>
<g id="a_edge4_Node000001_Node000005"><a xlink:title=" ">
<path fill="none" stroke="#63b8ff" d="M1027.83,-59.5C920.31,-52.64 698.07,-37.55 510.5,-19 507.58,-18.71 504.59,-18.4 501.57,-18.08"/>
<polygon fill="#63b8ff" stroke="#63b8ff" points="1027.66,-63 1037.87,-60.14 1028.11,-56.01 1027.66,-63"/>
</a>
</g>
</g>
<!-- Node6 -->
<g id="Node000006" class="node">
<title>Node6</title>
<g id="a_Node000006"><a xlink:href="pulse-device_8c.html" target="_top" xlink:title=" ">
<polygon fill="white" stroke="#666666" points="607,-19 520,-19 520,0 607,0 607,-19"/>
<text text-anchor="middle" x="563.5" y="-7" font-family="Helvetica,sans-Serif" font-size="10.00">pulse&#45;device.c</text>
</a>
</g>
</g>
<!-- Node1&#45;&gt;Node6 -->
<g id="edge5_Node000001_Node000006" class="edge">
<title>Node1&#45;&gt;Node6</title>
<g id="a_edge5_Node000001_Node000006"><a xlink:title=" ">
<path fill="none" stroke="#63b8ff" d="M1028.02,-58.9C936.21,-52.04 762.6,-37.86 615.5,-19 612.78,-18.65 609.98,-18.27 607.16,-17.86"/>
<polygon fill="#63b8ff" stroke="#63b8ff" points="1027.77,-62.39 1038,-59.65 1028.28,-55.41 1027.77,-62.39"/>
</a>
</g>
</g>
<!-- Node7 -->
<g id="Node000007" class="node">
<title>Node7</title>
<g id="a_Node000007"><a xlink:href="pulse-ext-stream_8c.html" target="_top" xlink:title=" ">
<polygon fill="white" stroke="#666666" points="734,-19 625,-19 625,0 734,0 734,-19"/>
<text text-anchor="middle" x="679.5" y="-7" font-family="Helvetica,sans-Serif" font-size="10.00">pulse&#45;ext&#45;stream.c</text>
</a>
</g>
</g>
<!-- Node1&#45;&gt;Node7 -->
<g id="edge6_Node000001_Node000007" class="edge">
<title>Node1&#45;&gt;Node7</title>
<g id="a_edge6_Node000001_Node000007"><a xlink:title=" ">
<path fill="none" stroke="#63b8ff" d="M1027.78,-55.35C957.7,-46.5 842.65,-31.91 743.5,-19 740.5,-18.61 737.42,-18.21 734.31,-17.8"/>
<polygon fill="#63b8ff" stroke="#63b8ff" points="1027.42,-58.83 1037.78,-56.61 1028.3,-51.89 1027.42,-58.83"/>
</a>
</g>
</g>
<!-- Node8 -->
<g id="Node000008" class="node">
<title>Node8</title>
<g id="a_Node000008"><a xlink:href="pulse-port-switch_8c.html" target="_top" xlink:title=" ">
<polygon fill="white" stroke="#666666" points="862.5,-19 752.5,-19 752.5,0 862.5,0 862.5,-19"/>
<text text-anchor="middle" x="807.5" y="-7" font-family="Helvetica,sans-Serif" font-size="10.00">pulse&#45;port&#45;switch.c</text>
</a>
</g>
</g>
<!-- Node1&#45;&gt;Node8 -->
<g id="edge7_Node000001_Node000008" class="edge">
<title>Node1&#45;&gt;Node8</title>
<g id="a_edge7_Node000001_Node000008"><a xlink:title=" ">
<path fill="none" stroke="#63b8ff" d="M1036.72,-53.13C983.29,-43.19 903.61,-28.37 853.65,-19.08"/>
<polygon fill="#63b8ff" stroke="#63b8ff" points="1036.24,-56.6 1046.71,-54.98 1037.52,-49.72 1036.24,-56.6"/>
</a>
</g>
</g>
<!-- Node9 -->
<g id="Node000009" class="node">
<title>Node9</title>
<g id="a_Node000009"><a xlink:href="pulse-port_8c.html" target="_top" xlink:title=" ">
<polygon fill="white" stroke="#666666" points="954.5,-19 880.5,-19 880.5,0 954.5,0 954.5,-19"/>
<text text-anchor="middle" x="917.5" y="-7" font-family="Helvetica,sans-Serif" font-size="10.00">pulse&#45;port.c</text>
</a>
</g>
</g>
<!-- Node1&#45;&gt;Node9 -->
<g id="edge8_Node000001_Node000009" class="edge">
<title>Node1&#45;&gt;Node9</title>
<g id="a_edge8_Node000001_Node000009"><a xlink:title=" ">
<path fill="none" stroke="#63b8ff" d="M1054.71,-52.06C1022,-42.15 975.43,-28.04 945.84,-19.08"/>
<polygon fill="#63b8ff" stroke="#63b8ff" points="1053.8,-55.44 1064.38,-54.98 1055.83,-48.74 1053.8,-55.44"/>
</a>
</g>
</g>
<!-- Node10 -->
<g id="Node000010" class="node">
<title>Node10</title>
<g id="a_Node000010"><a xlink:href="pulse-sink-control_8c.html" target="_top" xlink:title=" ">
<polygon fill="white" stroke="#666666" points="1086,-19 973,-19 973,0 1086,0 1086,-19"/>
<text text-anchor="middle" x="1029.5" y="-7" font-family="Helvetica,sans-Serif" font-size="10.00">pulse&#45;sink&#45;control.c</text>
</a>
</g>
</g>
<!-- Node1&#45;&gt;Node10 -->
<g id="edge9_Node000001_Node000010" class="edge">
<title>Node1&#45;&gt;Node10</title>
<g id="a_edge9_Node000001_Node000010"><a xlink:title=" ">
<path fill="none" stroke="#63b8ff" d="M1074.46,-48.32C1063.23,-38.87 1049.18,-27.06 1039.81,-19.17"/>
<polygon fill="#63b8ff" stroke="#63b8ff" points="1072.47,-51.23 1082.38,-54.98 1076.98,-45.87 1072.47,-51.23"/>
</a>
</g>
</g>
<!-- Node11 -->
<g id="Node000011" class="node">
<title>Node11</title>
<g id="a_Node000011"><a xlink:href="pulse-sink-input_8c.html" target="_top" xlink:title=" ">
<polygon fill="white" stroke="#666666" points="1208.5,-19 1104.5,-19 1104.5,0 1208.5,0 1208.5,-19"/>
<text text-anchor="middle" x="1156.5" y="-7" font-family="Helvetica,sans-Serif" font-size="10.00">pulse&#45;sink&#45;input.c</text>
</a>
</g>
</g>
<!-- Node1&#45;&gt;Node11 -->
<g id="edge10_Node000001_Node000011" class="edge">
<title>Node1&#45;&gt;Node11</title>
<g id="a_edge10_Node000001_Node000011"><a xlink:title=" ">
<path fill="none" stroke="#63b8ff" d="M1110.49,-48.6C1121.96,-39.11 1136.41,-27.13 1146.03,-19.17"/>
<polygon fill="#63b8ff" stroke="#63b8ff" points="1108.25,-45.91 1102.78,-54.98 1112.72,-51.3 1108.25,-45.91"/>
</a>
</g>
</g>
<!-- Node12 -->
<g id="Node000012" class="node">
<title>Node12</title>
<g id="a_Node000012"><a xlink:href="pulse-sink-switch_8c.html" target="_top" xlink:title=" ">
<polygon fill="white" stroke="#666666" points="1336.5,-19 1226.5,-19 1226.5,0 1336.5,0 1336.5,-19"/>
<text text-anchor="middle" x="1281.5" y="-7" font-family="Helvetica,sans-Serif" font-size="10.00">pulse&#45;sink&#45;switch.c</text>
</a>
</g>
</g>
<!-- Node1&#45;&gt;Node12 -->
<g id="edge11_Node000001_Node000012" class="edge">
<title>Node1&#45;&gt;Node12</title>
<g id="a_edge11_Node000001_Node000012"><a xlink:title=" ">
<path fill="none" stroke="#63b8ff" d="M1132.85,-52.18C1168.2,-42.27 1218.8,-28.08 1250.9,-19.08"/>
<polygon fill="#63b8ff" stroke="#63b8ff" points="1131.55,-48.91 1122.87,-54.98 1133.44,-55.65 1131.55,-48.91"/>
</a>
</g>
</g>
<!-- Node13 -->
<g id="Node000013" class="node">
<title>Node13</title>
<g id="a_Node000013"><a xlink:href="pulse-sink_8c.html" target="_top" xlink:title=" ">
<polygon fill="white" stroke="#666666" points="1430,-19 1355,-19 1355,0 1430,0 1430,-19"/>
<text text-anchor="middle" x="1392.5" y="-7" font-family="Helvetica,sans-Serif" font-size="10.00">pulse&#45;sink.c</text>
</a>
</g>
</g>
<!-- Node1&#45;&gt;Node13 -->
<g id="edge12_Node000001_Node000013" class="edge">
<title>Node1&#45;&gt;Node13</title>
<g id="a_edge12_Node000001_Node000013"><a xlink:title=" ">
<path fill="none" stroke="#63b8ff" d="M1151.4,-53.22C1202.68,-44.25 1279.03,-30.86 1345.5,-19 1348.52,-18.46 1351.65,-17.9 1354.79,-17.34"/>
<polygon fill="#63b8ff" stroke="#63b8ff" points="1150.73,-49.79 1141.49,-54.96 1151.94,-56.68 1150.73,-49.79"/>
</a>
</g>
</g>
<!-- Node14 -->
<g id="Node000014" class="node">
<title>Node14</title>
<g id="a_Node000014"><a xlink:href="pulse-source-control_8c.html" target="_top" xlink:title=" ">
<polygon fill="white" stroke="#666666" points="1573,-19 1448,-19 1448,0 1573,0 1573,-19"/>
<text text-anchor="middle" x="1510.5" y="-7" font-family="Helvetica,sans-Serif" font-size="10.00">pulse&#45;source&#45;control.c</text>
</a>
</g>
</g>
<!-- Node1&#45;&gt;Node14 -->
<g id="edge13_Node000001_Node000014" class="edge">
<title>Node1&#45;&gt;Node14</title>
<g id="a_edge13_Node000001_Node000014"><a xlink:title=" ">
<path fill="none" stroke="#63b8ff" d="M1157.47,-55.26C1236.64,-45.22 1369.47,-28.38 1447.65,-18.47"/>
<polygon fill="#63b8ff" stroke="#63b8ff" points="1156.63,-51.84 1147.15,-56.57 1157.51,-58.79 1156.63,-51.84"/>
</a>
</g>
</g>
<!-- Node15 -->
<g id="Node000015" class="node">
<title>Node15</title>
<g id="a_Node000015"><a xlink:href="pulse-source-output_8c.html" target="_top" xlink:title=" ">
<polygon fill="white" stroke="#666666" points="1713.5,-19 1591.5,-19 1591.5,0 1713.5,0 1713.5,-19"/>
<text text-anchor="middle" x="1652.5" y="-7" font-family="Helvetica,sans-Serif" font-size="10.00">pulse&#45;source&#45;output.c</text>
</a>
</g>
</g>
<!-- Node1&#45;&gt;Node15 -->
<g id="edge14_Node000001_Node000015" class="edge">
<title>Node1&#45;&gt;Node15</title>
<g id="a_edge14_Node000001_Node000015"><a xlink:title=" ">
<path fill="none" stroke="#63b8ff" d="M1157.5,-58.23C1251.39,-50.47 1430.42,-35.14 1582.5,-19 1585.42,-18.69 1588.41,-18.36 1591.43,-18.03"/>
<polygon fill="#63b8ff" stroke="#63b8ff" points="1156.98,-54.76 1147.3,-59.07 1157.55,-61.73 1156.98,-54.76"/>
</a>
</g>
</g>
<!-- Node16 -->
<g id="Node000016" class="node">
<title>Node16</title>
<g id="a_Node000016"><a xlink:href="pulse-source-switch_8c.html" target="_top" xlink:title=" ">
<polygon fill="white" stroke="#666666" points="1853.5,-19 1731.5,-19 1731.5,0 1853.5,0 1853.5,-19"/>
<text text-anchor="middle" x="1792.5" y="-7" font-family="Helvetica,sans-Serif" font-size="10.00">pulse&#45;source&#45;switch.c</text>
</a>
</g>
</g>
<!-- Node1&#45;&gt;Node16 -->
<g id="edge15_Node000001_Node000016" class="edge">
<title>Node1&#45;&gt;Node16</title>
<g id="a_edge15_Node000001_Node000016"><a xlink:title=" ">
<path fill="none" stroke="#63b8ff" d="M1157.34,-60C1271.65,-53.59 1516.43,-38.78 1722.5,-19 1725.42,-18.72 1728.42,-18.42 1731.44,-18.1"/>
<polygon fill="#63b8ff" stroke="#63b8ff" points="1157.14,-56.5 1147.35,-60.56 1157.53,-63.49 1157.14,-56.5"/>
</a>
</g>
</g>
<!-- Node17 -->
<g id="Node000017" class="node">
<title>Node17</title>
<g id="a_Node000017"><a xlink:href="pulse-source_8c.html" target="_top" xlink:title=" ">
<polygon fill="white" stroke="#666666" points="1959,-19 1872,-19 1872,0 1959,0 1959,-19"/>
<text text-anchor="middle" x="1915.5" y="-7" font-family="Helvetica,sans-Serif" font-size="10.00">pulse&#45;source.c</text>
</a>
</g>
</g>
<!-- Node1&#45;&gt;Node17 -->
<g id="edge16_Node000001_Node000017" class="edge">
<title>Node1&#45;&gt;Node17</title>
<g id="a_edge16_Node000001_Node000017"><a xlink:title=" ">
<path fill="none" stroke="#63b8ff" d="M1157.27,-61.97C1289.95,-58.35 1602.05,-47.34 1862.5,-19 1865.56,-18.67 1868.71,-18.28 1871.87,-17.86"/>
<polygon fill="#63b8ff" stroke="#63b8ff" points="1157.18,-58.47 1147.27,-62.24 1157.36,-65.47 1157.18,-58.47"/>
</a>
</g>
</g>
<!-- Node18 -->
<g id="Node000018" class="node">
<title>Node18</title>
<g id="a_Node000018"><a xlink:href="pulse-stream-control_8c.html" target="_top" xlink:title=" ">
<polygon fill="white" stroke="#666666" points="2104,-19 1977,-19 1977,0 2104,0 2104,-19"/>
<text text-anchor="middle" x="2040.5" y="-7" font-family="Helvetica,sans-Serif" font-size="10.00">pulse&#45;stream&#45;control.c</text>
</a>
</g>
</g>
<!-- Node1&#45;&gt;Node18 -->
<g id="edge17_Node000001_Node000018" class="edge">
<title>Node1&#45;&gt;Node18</title>
<g id="a_edge17_Node000001_Node000018"><a xlink:title=" ">
<path fill="none" stroke="#63b8ff" d="M1157.25,-61.69C1302.57,-57.3 1665.65,-44.54 1968.5,-19 1971.26,-18.77 1974.08,-18.51 1976.92,-18.24"/>
<polygon fill="#63b8ff" stroke="#63b8ff" points="1157.06,-58.19 1147.17,-61.99 1157.27,-65.19 1157.06,-58.19"/>
</a>
</g>
</g>
<!-- Node19 -->
<g id="Node000019" class="node">
<title>Node19</title>
<g id="a_Node000019"><a xlink:href="pulse-stream_8c.html" target="_top" xlink:title=" ">
<polygon fill="white" stroke="#666666" points="2211,-19 2122,-19 2122,0 2211,0 2211,-19"/>
<text text-anchor="middle" x="2166.5" y="-7" font-family="Helvetica,sans-Serif" font-size="10.00">pulse&#45;stream.c</text>
</a>
</g>
</g>
<!-- Node1&#45;&gt;Node19 -->
<g id="edge18_Node000001_Node000019" class="edge">
<title>Node1&#45;&gt;Node19</title>
<g id="a_edge18_Node000001_Node000019"><a xlink:title=" ">
<path fill="none" stroke="#63b8ff" d="M1157.44,-63.27C1319.3,-62.12 1753.59,-55.58 2113.5,-19 2116.19,-18.73 2118.95,-18.41 2121.73,-18.05"/>
<polygon fill="#63b8ff" stroke="#63b8ff" points="1157.15,-59.77 1147.17,-63.33 1157.19,-66.77 1157.15,-59.77"/>
</a>
</g>
</g>
</g>
</svg>
