<?xml version="1.0" encoding="UTF-8" standalone="no"?>
<!DOCTYPE svg PUBLIC "-//W3C//DTD SVG 1.1//EN"
 "http://www.w3.org/Graphics/SVG/1.1/DTD/svg11.dtd">
<!-- Generated by graphviz version 2.43.0 (0)
 -->
<!-- Title: screenshot&#45;save.h Pages: 1 -->
<svg width="369pt" height="82pt"
 viewBox="0.00 0.00 369.00 82.00" xmlns="http://www.w3.org/2000/svg" xmlns:xlink="http://www.w3.org/1999/xlink">
<g id="graph0" class="graph" transform="scale(1 1) rotate(0) translate(4 78)">
<title>screenshot&#45;save.h</title>
<!-- Node1 -->
<g id="Node000001" class="node">
<title>Node1</title>
<g id="a_Node000001"><a xlink:title=" ">
<polygon fill="#999999" stroke="#666666" points="234.5,-74 128.5,-74 128.5,-55 234.5,-55 234.5,-74"/>
<text text-anchor="middle" x="181.5" y="-62" font-family="Helvetica,sans-Serif" font-size="10.00">screenshot&#45;save.h</text>
</a>
</g>
</g>
<!-- Node2 -->
<g id="Node000002" class="node">
<title>Node2</title>
<g id="a_Node000002"><a xlink:href="mate-screenshot_8c.html" target="_top" xlink:title=" ">
<polygon fill="white" stroke="#666666" points="107,-19 0,-19 0,0 107,0 107,-19"/>
<text text-anchor="middle" x="53.5" y="-7" font-family="Helvetica,sans-Serif" font-size="10.00">mate&#45;screenshot.c</text>
</a>
</g>
</g>
<!-- Node1&#45;&gt;Node2 -->
<g id="edge1_Node000001_Node000002" class="edge">
<title>Node1&#45;&gt;Node2</title>
<g id="a_edge1_Node000001_Node000002"><a xlink:title=" ">
<path fill="none" stroke="#63b8ff" d="M151.38,-51.03C127.71,-41.23 95.35,-27.83 74.44,-19.17"/>
<polygon fill="#63b8ff" stroke="#63b8ff" points="150.36,-54.39 160.93,-54.98 153.03,-47.93 150.36,-54.39"/>
</a>
</g>
</g>
<!-- Node3 -->
<g id="Node000003" class="node">
<title>Node3</title>
<g id="a_Node000003"><a xlink:href="screenshot-dialog_8c.html" target="_top" xlink:title=" ">
<polygon fill="white" stroke="#666666" points="237.5,-19 125.5,-19 125.5,0 237.5,0 237.5,-19"/>
<text text-anchor="middle" x="181.5" y="-7" font-family="Helvetica,sans-Serif" font-size="10.00">screenshot&#45;dialog.c</text>
</a>
</g>
</g>
<!-- Node1&#45;&gt;Node3 -->
<g id="edge2_Node000001_Node000003" class="edge">
<title>Node1&#45;&gt;Node3</title>
<g id="a_edge2_Node000001_Node000003"><a xlink:title=" ">
<path fill="none" stroke="#63b8ff" d="M181.5,-44.66C181.5,-35.93 181.5,-25.99 181.5,-19.09"/>
<polygon fill="#63b8ff" stroke="#63b8ff" points="178,-44.75 181.5,-54.75 185,-44.75 178,-44.75"/>
</a>
</g>
</g>
<!-- Node4 -->
<g id="Node000004" class="node">
<title>Node4</title>
<g id="a_Node000004"><a xlink:href="screenshot-save_8c.html" target="_top" xlink:title=" ">
<polygon fill="white" stroke="#666666" points="361,-19 256,-19 256,0 361,0 361,-19"/>
<text text-anchor="middle" x="308.5" y="-7" font-family="Helvetica,sans-Serif" font-size="10.00">screenshot&#45;save.c</text>
</a>
</g>
</g>
<!-- Node1&#45;&gt;Node4 -->
<g id="edge3_Node000001_Node000004" class="edge">
<title>Node1&#45;&gt;Node4</title>
<g id="a_edge3_Node000001_Node000004"><a xlink:title=" ">
<path fill="none" stroke="#63b8ff" d="M211.38,-51.03C234.87,-41.23 266.97,-27.83 287.72,-19.17"/>
<polygon fill="#63b8ff" stroke="#63b8ff" points="209.79,-47.9 201.9,-54.98 212.48,-54.36 209.79,-47.9"/>
</a>
</g>
</g>
</g>
</svg>
