<?xml version="1.0" encoding="UTF-8" standalone="no"?>
<!DOCTYPE svg PUBLIC "-//W3C//DTD SVG 1.1//EN"
 "http://www.w3.org/Graphics/SVG/1.1/DTD/svg11.dtd">
<!-- Generated by graphviz version 2.43.0 (0)
 -->
<!-- Title: server.c Pages: 1 -->
<svg width="611pt" height="467pt"
 viewBox="0.00 0.00 610.59 467.00" xmlns="http://www.w3.org/2000/svg" xmlns:xlink="http://www.w3.org/1999/xlink">
<g id="graph0" class="graph" transform="scale(1 1) rotate(0) translate(4 463)">
<title>server.c</title>
<!-- Node1 -->
<g id="Node000001" class="node">
<title>Node1</title>
<g id="a_Node000001"><a xlink:title=" ">
<polygon fill="#999999" stroke="#666666" points="230.09,-459 175.09,-459 175.09,-440 230.09,-440 230.09,-459"/>
<text text-anchor="middle" x="202.59" y="-447" font-family="Helvetica,sans-Serif" font-size="10.00">server.c</text>
</a>
</g>
</g>
<!-- Node2 -->
<g id="Node000002" class="node">
<title>Node2</title>
<g id="a_Node000002"><a xlink:title=" ">
<polygon fill="#e0e0e0" stroke="#999999" points="246.09,-129 191.09,-129 191.09,-110 246.09,-110 246.09,-129"/>
<text text-anchor="middle" x="218.59" y="-117" font-family="Helvetica,sans-Serif" font-size="10.00">config.h</text>
</a>
</g>
</g>
<!-- Node1&#45;&gt;Node2 -->
<g id="edge1_Node000001_Node000002" class="edge">
<title>Node1&#45;&gt;Node2</title>
<g id="a_edge1_Node000001_Node000002"><a xlink:title=" ">
<path fill="none" stroke="#63b8ff" d="M214.47,-439.88C235.84,-423.26 278.59,-384.52 278.59,-340.5 278.59,-340.5 278.59,-340.5 278.59,-283.5 278.59,-227.42 246.93,-166.8 229.6,-137.83"/>
<polygon fill="#63b8ff" stroke="#63b8ff" points="232.56,-135.96 224.34,-129.27 226.6,-139.62 232.56,-135.96"/>
</a>
</g>
</g>
<!-- Node3 -->
<g id="Node000003" class="node">
<title>Node3</title>
<g id="a_Node000003"><a xlink:title=" ">
<polygon fill="#e0e0e0" stroke="#999999" points="82.09,-404 29.09,-404 29.09,-385 82.09,-385 82.09,-404"/>
<text text-anchor="middle" x="55.59" y="-392" font-family="Helvetica,sans-Serif" font-size="10.00">stdlib.h</text>
</a>
</g>
</g>
<!-- Node1&#45;&gt;Node3 -->
<g id="edge2_Node000001_Node000003" class="edge">
<title>Node1&#45;&gt;Node3</title>
<g id="a_edge2_Node000001_Node000003"><a xlink:title=" ">
<path fill="none" stroke="#63b8ff" d="M178.97,-439.98C154.69,-431.23 116.64,-417.51 89.22,-407.62"/>
<polygon fill="#63b8ff" stroke="#63b8ff" points="90.23,-404.27 79.64,-404.17 87.86,-410.85 90.23,-404.27"/>
</a>
</g>
</g>
<!-- Node4 -->
<g id="Node000004" class="node">
<title>Node4</title>
<g id="a_Node000004"><a xlink:title=" ">
<polygon fill="#e0e0e0" stroke="#999999" points="174.59,-404 100.59,-404 100.59,-385 174.59,-385 174.59,-404"/>
<text text-anchor="middle" x="137.59" y="-392" font-family="Helvetica,sans-Serif" font-size="10.00">glib/gi18n.h</text>
</a>
</g>
</g>
<!-- Node1&#45;&gt;Node4 -->
<g id="edge3_Node000001_Node000004" class="edge">
<title>Node1&#45;&gt;Node4</title>
<g id="a_edge3_Node000001_Node000004"><a xlink:title=" ">
<path fill="none" stroke="#63b8ff" d="M192.15,-439.98C182.45,-432.07 167.78,-420.11 156.09,-410.58"/>
<polygon fill="#63b8ff" stroke="#63b8ff" points="158.19,-407.78 148.23,-404.17 153.76,-413.2 158.19,-407.78"/>
</a>
</g>
</g>
<!-- Node5 -->
<g id="Node000005" class="node">
<title>Node5</title>
<g id="a_Node000005"><a xlink:title=" ">
<polygon fill="#e0e0e0" stroke="#999999" points="346.59,-19 302.59,-19 302.59,0 346.59,0 346.59,-19"/>
<text text-anchor="middle" x="324.59" y="-7" font-family="Helvetica,sans-Serif" font-size="10.00">glib.h</text>
</a>
</g>
</g>
<!-- Node1&#45;&gt;Node5 -->
<g id="edge4_Node000001_Node000005" class="edge">
<title>Node1&#45;&gt;Node5</title>
<g id="a_edge4_Node000001_Node000005"><a xlink:title=" ">
<path fill="none" stroke="#63b8ff" d="M175.07,-445.18C129.66,-439.16 41.82,-425.1 19.59,-404 -1.78,-383.72 0.59,-369.96 0.59,-340.5 0.59,-340.5 0.59,-340.5 0.59,-118.5 0.59,-87.47 4.82,-73.68 29.59,-55 70.52,-24.14 224.48,-14.4 292.24,-11.57"/>
<polygon fill="#63b8ff" stroke="#63b8ff" points="292.49,-15.06 302.35,-11.17 292.22,-8.07 292.49,-15.06"/>
</a>
</g>
</g>
<!-- Node6 -->
<g id="Node000006" class="node">
<title>Node6</title>
<g id="a_Node000006"><a xlink:title=" ">
<polygon fill="#e0e0e0" stroke="#999999" points="250.09,-239 191.09,-239 191.09,-220 250.09,-220 250.09,-239"/>
<text text-anchor="middle" x="220.59" y="-227" font-family="Helvetica,sans-Serif" font-size="10.00">gio/gio.h</text>
</a>
</g>
</g>
<!-- Node1&#45;&gt;Node6 -->
<g id="edge5_Node000001_Node000006" class="edge">
<title>Node1&#45;&gt;Node6</title>
<g id="a_edge5_Node000001_Node000006"><a xlink:title=" ">
<path fill="none" stroke="#63b8ff" d="M203.3,-439.95C205.94,-407.95 215.29,-294.68 219.03,-249.4"/>
<polygon fill="#63b8ff" stroke="#63b8ff" points="222.54,-249.48 219.87,-239.22 215.56,-248.9 222.54,-249.48"/>
</a>
</g>
</g>
<!-- Node7 -->
<g id="Node000007" class="node">
<title>Node7</title>
<g id="a_Node000007"><a xlink:href="file-utils_8h.html" target="_top" xlink:title=" ">
<polygon fill="white" stroke="#666666" points="195.09,-294 130.09,-294 130.09,-275 195.09,-275 195.09,-294"/>
<text text-anchor="middle" x="162.59" y="-282" font-family="Helvetica,sans-Serif" font-size="10.00">file&#45;utils.h</text>
</a>
</g>
</g>
<!-- Node1&#45;&gt;Node7 -->
<g id="edge6_Node000001_Node000007" class="edge">
<title>Node1&#45;&gt;Node7</title>
<g id="a_edge6_Node000001_Node000007"><a xlink:title=" ">
<path fill="none" stroke="#63b8ff" d="M200.44,-439.74C194.17,-414.2 175.83,-339.43 167.19,-304.23"/>
<polygon fill="#63b8ff" stroke="#63b8ff" points="170.54,-303.18 164.75,-294.31 163.74,-304.85 170.54,-303.18"/>
</a>
</g>
</g>
<!-- Node11 -->
<g id="Node000011" class="node">
<title>Node11</title>
<g id="a_Node000011"><a xlink:href="fr-init_8h.html" target="_top" xlink:title=" ">
<polygon fill="white" stroke="#666666" points="485.09,-404 432.09,-404 432.09,-385 485.09,-385 485.09,-404"/>
<text text-anchor="middle" x="458.59" y="-392" font-family="Helvetica,sans-Serif" font-size="10.00">fr&#45;init.h</text>
</a>
</g>
</g>
<!-- Node1&#45;&gt;Node11 -->
<g id="edge11_Node000001_Node000011" class="edge">
<title>Node1&#45;&gt;Node11</title>
<g id="a_edge11_Node000001_Node000011"><a xlink:title=" ">
<path fill="none" stroke="#63b8ff" d="M230.48,-442.73C276.91,-433.11 370.07,-413.83 421.82,-403.11"/>
<polygon fill="#63b8ff" stroke="#63b8ff" points="422.82,-406.48 431.9,-401.03 421.4,-399.63 422.82,-406.48"/>
</a>
</g>
</g>
<!-- Node7&#45;&gt;Node6 -->
<g id="edge10_Node000007_Node000006" class="edge">
<title>Node7&#45;&gt;Node6</title>
<g id="a_edge10_Node000007_Node000006"><a xlink:title=" ">
<path fill="none" stroke="#63b8ff" d="M171.91,-274.98C180.4,-267.23 193.15,-255.58 203.47,-246.14"/>
<polygon fill="#63b8ff" stroke="#63b8ff" points="206.08,-248.5 211.1,-239.17 201.36,-243.33 206.08,-248.5"/>
</a>
</g>
</g>
<!-- Node8 -->
<g id="Node000008" class="node">
<title>Node8</title>
<g id="a_Node000008"><a xlink:title=" ">
<polygon fill="#e0e0e0" stroke="#999999" points="253.59,-74 181.59,-74 181.59,-55 253.59,-55 253.59,-74"/>
<text text-anchor="middle" x="217.59" y="-62" font-family="Helvetica,sans-Serif" font-size="10.00">sys/types.h</text>
</a>
</g>
</g>
<!-- Node7&#45;&gt;Node8 -->
<g id="edge7_Node000007_Node000008" class="edge">
<title>Node7&#45;&gt;Node8</title>
<g id="a_edge7_Node000007_Node000008"><a xlink:title=" ">
<path fill="none" stroke="#63b8ff" d="M161.87,-274.77C160.04,-248.61 157.01,-169.02 181.59,-110 186.02,-99.38 193.8,-89.26 201,-81.37"/>
<polygon fill="#63b8ff" stroke="#63b8ff" points="203.68,-83.63 208.13,-74.01 198.66,-78.76 203.68,-83.63"/>
</a>
</g>
</g>
<!-- Node9 -->
<g id="Node000009" class="node">
<title>Node9</title>
<g id="a_Node000009"><a xlink:title=" ">
<polygon fill="#e0e0e0" stroke="#999999" points="86.59,-74 38.59,-74 38.59,-55 86.59,-55 86.59,-74"/>
<text text-anchor="middle" x="62.59" y="-62" font-family="Helvetica,sans-Serif" font-size="10.00">time.h</text>
</a>
</g>
</g>
<!-- Node7&#45;&gt;Node9 -->
<g id="edge8_Node000007_Node000009" class="edge">
<title>Node7&#45;&gt;Node9</title>
<g id="a_edge8_Node000007_Node000009"><a xlink:title=" ">
<path fill="none" stroke="#63b8ff" d="M129.73,-276.87C108.77,-270.78 83.08,-259.48 69.59,-239 37.86,-190.82 49.66,-117.72 57.64,-83.88"/>
<polygon fill="#63b8ff" stroke="#63b8ff" points="61.08,-84.55 60.13,-74 54.29,-82.84 61.08,-84.55"/>
</a>
</g>
</g>
<!-- Node10 -->
<g id="Node000010" class="node">
<title>Node10</title>
<g id="a_Node000010"><a xlink:title=" ">
<polygon fill="#e0e0e0" stroke="#999999" points="134.59,-239 78.59,-239 78.59,-220 134.59,-220 134.59,-239"/>
<text text-anchor="middle" x="106.59" y="-227" font-family="Helvetica,sans-Serif" font-size="10.00">unistd.h</text>
</a>
</g>
</g>
<!-- Node7&#45;&gt;Node10 -->
<g id="edge9_Node000007_Node000010" class="edge">
<title>Node7&#45;&gt;Node10</title>
<g id="a_edge9_Node000007_Node000010"><a xlink:title=" ">
<path fill="none" stroke="#63b8ff" d="M153.59,-274.98C145.4,-267.23 133.09,-255.58 123.12,-246.14"/>
<polygon fill="#63b8ff" stroke="#63b8ff" points="125.42,-243.5 115.75,-239.17 120.61,-248.59 125.42,-243.5"/>
</a>
</g>
</g>
<!-- Node12 -->
<g id="Node000012" class="node">
<title>Node12</title>
<g id="a_Node000012"><a xlink:href="preferences_8h.html" target="_top" xlink:title=" ">
<polygon fill="white" stroke="#666666" points="600.09,-349 517.09,-349 517.09,-330 600.09,-330 600.09,-349"/>
<text text-anchor="middle" x="558.59" y="-337" font-family="Helvetica,sans-Serif" font-size="10.00">preferences.h</text>
</a>
</g>
</g>
<!-- Node11&#45;&gt;Node12 -->
<g id="edge12_Node000011_Node000012" class="edge">
<title>Node11&#45;&gt;Node12</title>
<g id="a_edge12_Node000011_Node000012"><a xlink:title=" ">
<path fill="none" stroke="#63b8ff" d="M474.66,-384.98C490.46,-376.61 514.81,-363.7 533.22,-353.95"/>
<polygon fill="#63b8ff" stroke="#63b8ff" points="535.04,-356.95 542.23,-349.17 531.76,-350.76 535.04,-356.95"/>
</a>
</g>
</g>
<!-- Node16 -->
<g id="Node000016" class="node">
<title>Node16</title>
<g id="a_Node000016"><a xlink:href="fr-window_8h.html" target="_top" xlink:title=" ">
<polygon fill="white" stroke="#666666" points="536.59,-294 462.59,-294 462.59,-275 536.59,-275 536.59,-294"/>
<text text-anchor="middle" x="499.59" y="-282" font-family="Helvetica,sans-Serif" font-size="10.00">fr&#45;window.h</text>
</a>
</g>
</g>
<!-- Node11&#45;&gt;Node16 -->
<g id="edge37_Node000011_Node000016" class="edge">
<title>Node11&#45;&gt;Node16</title>
<g id="a_edge37_Node000011_Node000016"><a xlink:title=" ">
<path fill="none" stroke="#63b8ff" d="M461.95,-384.66C468.65,-367.01 483.8,-327.09 492.71,-303.64"/>
<polygon fill="#63b8ff" stroke="#63b8ff" points="496.03,-304.75 496.3,-294.16 489.48,-302.27 496.03,-304.75"/>
</a>
</g>
</g>
<!-- Node18 -->
<g id="Node000018" class="node">
<title>Node18</title>
<g id="a_Node000018"><a xlink:href="fr-process_8h.html" target="_top" xlink:title=" ">
<polygon fill="white" stroke="#666666" points="460.59,-129 386.59,-129 386.59,-110 460.59,-110 460.59,-129"/>
<text text-anchor="middle" x="423.59" y="-117" font-family="Helvetica,sans-Serif" font-size="10.00">fr&#45;process.h</text>
</a>
</g>
</g>
<!-- Node11&#45;&gt;Node18 -->
<g id="edge36_Node000011_Node000018" class="edge">
<title>Node11&#45;&gt;Node18</title>
<g id="a_edge36_Node000011_Node000018"><a xlink:title=" ">
<path fill="none" stroke="#63b8ff" d="M455.35,-384.96C448.8,-366.9 434.59,-323.34 434.59,-285.5 434.59,-285.5 434.59,-285.5 434.59,-228.5 434.59,-197.03 429.91,-160.66 426.66,-139.18"/>
<polygon fill="#63b8ff" stroke="#63b8ff" points="430.09,-138.48 425.08,-129.15 423.18,-139.57 430.09,-138.48"/>
</a>
</g>
</g>
<!-- Node13 -->
<g id="Node000013" class="node">
<title>Node13</title>
<g id="a_Node000013"><a xlink:title=" ">
<polygon fill="#e0e0e0" stroke="#999999" points="597.59,-74 537.59,-74 537.59,-55 597.59,-55 597.59,-74"/>
<text text-anchor="middle" x="567.59" y="-62" font-family="Helvetica,sans-Serif" font-size="10.00">gtk/gtk.h</text>
</a>
</g>
</g>
<!-- Node12&#45;&gt;Node13 -->
<g id="edge13_Node000012_Node000013" class="edge">
<title>Node12&#45;&gt;Node13</title>
<g id="a_edge13_Node000012_Node000013"><a xlink:title=" ">
<path fill="none" stroke="#63b8ff" d="M564.9,-329.75C577.06,-311.98 602.59,-269.98 602.59,-230.5 602.59,-230.5 602.59,-230.5 602.59,-173.5 602.59,-140.3 587.44,-104.03 577.07,-83.11"/>
<polygon fill="#63b8ff" stroke="#63b8ff" points="580.15,-81.44 572.46,-74.15 573.93,-84.64 580.15,-81.44"/>
</a>
</g>
</g>
<!-- Node14 -->
<g id="Node000014" class="node">
<title>Node14</title>
<g id="a_Node000014"><a xlink:href="typedefs_8h.html" target="_top" xlink:title=" ">
<polygon fill="white" stroke="#666666" points="519.59,-74 451.59,-74 451.59,-55 519.59,-55 519.59,-74"/>
<text text-anchor="middle" x="485.59" y="-62" font-family="Helvetica,sans-Serif" font-size="10.00">typedefs.h</text>
</a>
</g>
</g>
<!-- Node12&#45;&gt;Node14 -->
<g id="edge14_Node000012_Node000014" class="edge">
<title>Node12&#45;&gt;Node14</title>
<g id="a_edge14_Node000012_Node000014"><a xlink:title=" ">
<path fill="none" stroke="#63b8ff" d="M556.97,-329.84C554.64,-317.59 550.13,-294.51 545.59,-275 528.43,-201.19 525.7,-182.17 502.59,-110 499.79,-101.24 496.21,-91.69 493.06,-83.69"/>
<polygon fill="#63b8ff" stroke="#63b8ff" points="496.25,-82.23 489.27,-74.26 489.75,-84.85 496.25,-82.23"/>
</a>
</g>
</g>
<!-- Node12&#45;&gt;Node16 -->
<g id="edge17_Node000012_Node000016" class="edge">
<title>Node12&#45;&gt;Node16</title>
<g id="a_edge17_Node000012_Node000016"><a xlink:title=" ">
<path fill="none" stroke="#63b8ff" d="M549.11,-329.98C540.39,-322.15 527.25,-310.34 516.69,-300.86"/>
<polygon fill="#63b8ff" stroke="#63b8ff" points="519.02,-298.25 509.24,-294.17 514.34,-303.46 519.02,-298.25"/>
</a>
</g>
</g>
<!-- Node14&#45;&gt;Node5 -->
<g id="edge15_Node000014_Node000005" class="edge">
<title>Node14&#45;&gt;Node5</title>
<g id="a_edge15_Node000014_Node000005"><a xlink:title=" ">
<path fill="none" stroke="#63b8ff" d="M459.72,-54.98C431.61,-45.73 386.67,-30.94 356.42,-20.98"/>
<polygon fill="#63b8ff" stroke="#63b8ff" points="357.36,-17.6 346.77,-17.8 355.17,-24.25 357.36,-17.6"/>
</a>
</g>
</g>
<!-- Node15 -->
<g id="Node000015" class="node">
<title>Node15</title>
<g id="a_Node000015"><a xlink:title=" ">
<polygon fill="#e0e0e0" stroke="#999999" points="446.09,-19 369.09,-19 369.09,0 446.09,0 446.09,-19"/>
<text text-anchor="middle" x="407.59" y="-7" font-family="Helvetica,sans-Serif" font-size="10.00">glib&#45;object.h</text>
</a>
</g>
</g>
<!-- Node14&#45;&gt;Node15 -->
<g id="edge16_Node000014_Node000015" class="edge">
<title>Node14&#45;&gt;Node15</title>
<g id="a_edge16_Node000014_Node000015"><a xlink:title=" ">
<path fill="none" stroke="#63b8ff" d="M473.06,-54.98C461.19,-46.92 443.13,-34.65 428.98,-25.03"/>
<polygon fill="#63b8ff" stroke="#63b8ff" points="430.59,-21.9 420.35,-19.17 426.66,-27.69 430.59,-21.9"/>
</a>
</g>
</g>
<!-- Node16&#45;&gt;Node6 -->
<g id="edge18_Node000016_Node000006" class="edge">
<title>Node16&#45;&gt;Node6</title>
<g id="a_edge18_Node000016_Node000006"><a xlink:title=" ">
<path fill="none" stroke="#63b8ff" d="M462.54,-276.46C409.9,-266.46 313.89,-248.22 259.99,-237.99"/>
<polygon fill="#63b8ff" stroke="#63b8ff" points="260.6,-234.54 250.12,-236.11 259.29,-241.41 260.6,-234.54"/>
</a>
</g>
</g>
<!-- Node16&#45;&gt;Node13 -->
<g id="edge19_Node000016_Node000013" class="edge">
<title>Node16&#45;&gt;Node13</title>
<g id="a_edge19_Node000016_Node000013"><a xlink:title=" ">
<path fill="none" stroke="#63b8ff" d="M502.26,-274.95C512.28,-242.81 547.87,-128.72 561.87,-83.83"/>
<polygon fill="#63b8ff" stroke="#63b8ff" points="565.23,-84.81 564.87,-74.22 558.55,-82.73 565.23,-84.81"/>
</a>
</g>
</g>
<!-- Node16&#45;&gt;Node14 -->
<g id="edge20_Node000016_Node000014" class="edge">
<title>Node16&#45;&gt;Node14</title>
<g id="a_edge20_Node000016_Node000014"><a xlink:title=" ">
<path fill="none" stroke="#63b8ff" d="M499.04,-274.95C496.99,-242.95 489.71,-129.68 486.81,-84.4"/>
<polygon fill="#63b8ff" stroke="#63b8ff" points="490.29,-83.98 486.15,-74.22 483.3,-84.43 490.29,-83.98"/>
</a>
</g>
</g>
<!-- Node17 -->
<g id="Node000017" class="node">
<title>Node17</title>
<g id="a_Node000017"><a xlink:href="fr-archive_8h.html" target="_top" xlink:title=" ">
<polygon fill="white" stroke="#666666" points="393.09,-239 320.09,-239 320.09,-220 393.09,-220 393.09,-239"/>
<text text-anchor="middle" x="356.59" y="-227" font-family="Helvetica,sans-Serif" font-size="10.00">fr&#45;archive.h</text>
</a>
</g>
</g>
<!-- Node16&#45;&gt;Node17 -->
<g id="edge21_Node000016_Node000017" class="edge">
<title>Node16&#45;&gt;Node17</title>
<g id="a_edge21_Node000016_Node000017"><a xlink:title=" ">
<path fill="none" stroke="#63b8ff" d="M476.62,-274.98C453.09,-266.27 416.3,-252.63 389.65,-242.75"/>
<polygon fill="#63b8ff" stroke="#63b8ff" points="390.58,-239.36 379.99,-239.17 388.15,-245.93 390.58,-239.36"/>
</a>
</g>
</g>
<!-- Node17&#45;&gt;Node5 -->
<g id="edge22_Node000017_Node000005" class="edge">
<title>Node17&#45;&gt;Node5</title>
<g id="a_edge22_Node000017_Node000005"><a xlink:title=" ">
<path fill="none" stroke="#63b8ff" d="M324.75,-219.89C284.34,-207.18 215.78,-179.29 181.59,-129 167.67,-108.52 174.6,-98.69 172.59,-74 171.91,-65.58 167.53,-61.76 172.59,-55 186.96,-35.82 252.24,-22.13 292.44,-15.34"/>
<polygon fill="#63b8ff" stroke="#63b8ff" points="293.01,-18.79 302.31,-13.73 291.88,-11.89 293.01,-18.79"/>
</a>
</g>
</g>
<!-- Node17&#45;&gt;Node18 -->
<g id="edge23_Node000017_Node000018" class="edge">
<title>Node17&#45;&gt;Node18</title>
<g id="a_edge23_Node000017_Node000018"><a xlink:title=" ">
<path fill="none" stroke="#63b8ff" d="M362.07,-219.66C373.17,-201.77 398.46,-161 412.93,-137.69"/>
<polygon fill="#63b8ff" stroke="#63b8ff" points="415.92,-139.5 418.22,-129.16 409.97,-135.81 415.92,-139.5"/>
</a>
</g>
</g>
<!-- Node19 -->
<g id="Node000019" class="node">
<title>Node19</title>
<g id="a_Node000019"><a xlink:href="fr-command_8h.html" target="_top" xlink:title=" ">
<polygon fill="white" stroke="#666666" points="368.59,-184 282.59,-184 282.59,-165 368.59,-165 368.59,-184"/>
<text text-anchor="middle" x="325.59" y="-172" font-family="Helvetica,sans-Serif" font-size="10.00">fr&#45;command.h</text>
</a>
</g>
</g>
<!-- Node17&#45;&gt;Node19 -->
<g id="edge28_Node000017_Node000019" class="edge">
<title>Node17&#45;&gt;Node19</title>
<g id="a_edge28_Node000017_Node000019"><a xlink:title=" ">
<path fill="none" stroke="#63b8ff" d="M351.47,-219.75C347.23,-212.49 341.06,-201.95 335.82,-192.98"/>
<polygon fill="#63b8ff" stroke="#63b8ff" points="338.69,-190.95 330.62,-184.09 332.64,-194.49 338.69,-190.95"/>
</a>
</g>
</g>
<!-- Node18&#45;&gt;Node5 -->
<g id="edge24_Node000018_Node000005" class="edge">
<title>Node18&#45;&gt;Node5</title>
<g id="a_edge24_Node000018_Node000005"><a xlink:title=" ">
<path fill="none" stroke="#63b8ff" d="M415.49,-109.66C398.87,-91.54 360.72,-49.91 339.51,-26.77"/>
<polygon fill="#63b8ff" stroke="#63b8ff" points="341.87,-24.16 332.53,-19.16 336.71,-28.89 341.87,-24.16"/>
</a>
</g>
</g>
<!-- Node18&#45;&gt;Node8 -->
<g id="edge26_Node000018_Node000008" class="edge">
<title>Node18&#45;&gt;Node8</title>
<g id="a_edge26_Node000018_Node000008"><a xlink:title=" ">
<path fill="none" stroke="#63b8ff" d="M390.49,-109.98C355.31,-100.93 299.52,-86.58 260.87,-76.64"/>
<polygon fill="#63b8ff" stroke="#63b8ff" points="261.51,-73.18 250.95,-74.08 259.76,-79.96 261.51,-73.18"/>
</a>
</g>
</g>
<!-- Node18&#45;&gt;Node13 -->
<g id="edge25_Node000018_Node000013" class="edge">
<title>Node18&#45;&gt;Node13</title>
<g id="a_edge25_Node000018_Node000013"><a xlink:title=" ">
<path fill="none" stroke="#63b8ff" d="M446.73,-109.98C470.41,-101.27 507.46,-87.63 534.3,-77.75"/>
<polygon fill="#63b8ff" stroke="#63b8ff" points="535.86,-80.91 544.03,-74.17 533.44,-74.34 535.86,-80.91"/>
</a>
</g>
</g>
<!-- Node18&#45;&gt;Node14 -->
<g id="edge27_Node000018_Node000014" class="edge">
<title>Node18&#45;&gt;Node14</title>
<g id="a_edge27_Node000018_Node000014"><a xlink:title=" ">
<path fill="none" stroke="#63b8ff" d="M433.55,-109.98C442.72,-102.15 456.53,-90.34 467.62,-80.86"/>
<polygon fill="#63b8ff" stroke="#63b8ff" points="470.12,-83.33 475.45,-74.17 465.57,-78.01 470.12,-83.33"/>
</a>
</g>
</g>
<!-- Node19&#45;&gt;Node2 -->
<g id="edge29_Node000019_Node000002" class="edge">
<title>Node19&#45;&gt;Node2</title>
<g id="a_edge29_Node000019_Node000002"><a xlink:title=" ">
<path fill="none" stroke="#63b8ff" d="M308.4,-164.98C291.34,-156.54 264.96,-143.47 245.2,-133.68"/>
<polygon fill="#63b8ff" stroke="#63b8ff" points="246.61,-130.47 236.1,-129.17 243.5,-136.75 246.61,-130.47"/>
</a>
</g>
</g>
<!-- Node19&#45;&gt;Node5 -->
<g id="edge30_Node000019_Node000005" class="edge">
<title>Node19&#45;&gt;Node5</title>
<g id="a_edge30_Node000019_Node000005"><a xlink:title=" ">
<path fill="none" stroke="#63b8ff" d="M329.19,-164.82C332.65,-155.99 337.62,-141.81 339.59,-129 345,-93.77 336.39,-52.43 330.14,-29.07"/>
<polygon fill="#63b8ff" stroke="#63b8ff" points="333.42,-27.82 327.33,-19.15 326.69,-29.72 333.42,-27.82"/>
</a>
</g>
</g>
<!-- Node19&#45;&gt;Node18 -->
<g id="edge35_Node000019_Node000018" class="edge">
<title>Node19&#45;&gt;Node18</title>
<g id="a_edge35_Node000019_Node000018"><a xlink:title=" ">
<path fill="none" stroke="#63b8ff" d="M341.34,-164.98C356.82,-156.61 380.68,-143.7 398.73,-133.95"/>
<polygon fill="#63b8ff" stroke="#63b8ff" points="400.43,-137.01 407.56,-129.17 397.1,-130.85 400.43,-137.01"/>
</a>
</g>
</g>
<!-- Node20 -->
<g id="Node000020" class="node">
<title>Node20</title>
<g id="a_Node000020"><a xlink:href="file-data_8h.html" target="_top" xlink:title=" ">
<polygon fill="white" stroke="#666666" points="330.59,-129 264.59,-129 264.59,-110 330.59,-110 330.59,-129"/>
<text text-anchor="middle" x="297.59" y="-117" font-family="Helvetica,sans-Serif" font-size="10.00">file&#45;data.h</text>
</a>
</g>
</g>
<!-- Node19&#45;&gt;Node20 -->
<g id="edge31_Node000019_Node000020" class="edge">
<title>Node19&#45;&gt;Node20</title>
<g id="a_edge31_Node000019_Node000020"><a xlink:title=" ">
<path fill="none" stroke="#63b8ff" d="M320.97,-164.75C317.14,-157.49 311.57,-146.95 306.83,-137.98"/>
<polygon fill="#63b8ff" stroke="#63b8ff" points="309.9,-136.3 302.13,-129.09 303.71,-139.57 309.9,-136.3"/>
</a>
</g>
</g>
<!-- Node20&#45;&gt;Node5 -->
<g id="edge32_Node000020_Node000005" class="edge">
<title>Node20&#45;&gt;Node5</title>
<g id="a_edge32_Node000020_Node000005"><a xlink:title=" ">
<path fill="none" stroke="#63b8ff" d="M299.8,-109.66C304.19,-92.09 314.11,-52.45 319.98,-28.95"/>
<polygon fill="#63b8ff" stroke="#63b8ff" points="323.4,-29.71 322.43,-19.16 316.61,-28.01 323.4,-29.71"/>
</a>
</g>
</g>
<!-- Node20&#45;&gt;Node9 -->
<g id="edge34_Node000020_Node000009" class="edge">
<title>Node20&#45;&gt;Node9</title>
<g id="a_edge34_Node000020_Node000009"><a xlink:title=" ">
<path fill="none" stroke="#63b8ff" d="M264.42,-111.02C219.93,-100.99 141.36,-83.27 96.5,-73.15"/>
<polygon fill="#63b8ff" stroke="#63b8ff" points="97.19,-69.72 86.67,-70.93 95.65,-76.54 97.19,-69.72"/>
</a>
</g>
</g>
<!-- Node20&#45;&gt;Node15 -->
<g id="edge33_Node000020_Node000015" class="edge">
<title>Node20&#45;&gt;Node15</title>
<g id="a_edge33_Node000020_Node000015"><a xlink:title=" ">
<path fill="none" stroke="#63b8ff" d="M306.59,-109.66C325.22,-91.38 368.19,-49.18 391.64,-26.17"/>
<polygon fill="#63b8ff" stroke="#63b8ff" points="394.09,-28.66 398.77,-19.16 389.19,-23.67 394.09,-28.66"/>
</a>
</g>
</g>
</g>
</svg>
