<?xml version="1.0" encoding="UTF-8" standalone="no"?>
<!DOCTYPE svg PUBLIC "-//W3C//DTD SVG 1.1//EN"
 "http://www.w3.org/Graphics/SVG/1.1/DTD/svg11.dtd">
<!-- Generated by graphviz version 2.43.0 (0)
 -->
<!-- Title: _PlumaFileBrowserWidget Pages: 1 -->
<svg width="953pt" height="279pt"
 viewBox="0.00 0.00 953.00 279.37" xmlns="http://www.w3.org/2000/svg" xmlns:xlink="http://www.w3.org/1999/xlink">
<g id="graph0" class="graph" transform="scale(1 1) rotate(0) translate(4 275.37)">
<title>_PlumaFileBrowserWidget</title>
<!-- Node1 -->
<g id="Node000001" class="node">
<title>Node1</title>
<g id="a_Node000001"><a xlink:title=" ">
<polygon fill="#999999" stroke="#666666" points="932,-229.87 788,-229.87 788,-210.87 932,-210.87 932,-229.87"/>
<text text-anchor="middle" x="860" y="-217.87" font-family="Helvetica,sans-Serif" font-size="10.00">_PlumaFileBrowserWidget</text>
</a>
</g>
</g>
<!-- Node2 -->
<g id="Node000002" class="node">
<title>Node2</title>
<g id="a_Node000002"><a xlink:title=" ">
<polygon fill="white" stroke="#666666" points="680,-229.87 501,-229.87 501,-210.87 680,-210.87 680,-229.87"/>
<text text-anchor="middle" x="590.5" y="-217.87" font-family="Helvetica,sans-Serif" font-size="10.00">_PlumaFileBrowserWidgetPrivate</text>
</a>
</g>
</g>
<!-- Node2&#45;&gt;Node1 -->
<g id="edge1_Node000001_Node000002" class="edge">
<title>Node2&#45;&gt;Node1</title>
<g id="a_edge1_Node000001_Node000002"><a xlink:title=" ">
<path fill="none" stroke="#9a32cd" stroke-dasharray="5,2" d="M690.57,-220.37C722.86,-220.37 758.04,-220.37 787.86,-220.37"/>
<polygon fill="#9a32cd" stroke="#9a32cd" points="690.2,-216.87 680.2,-220.37 690.2,-223.87 690.2,-216.87"/>
</a>
</g>
<text text-anchor="middle" x="727.5" y="-223.37" font-family="Helvetica,sans-Serif" font-size="10.00" fill="grey"> priv</text>
</g>
<!-- Node3 -->
<g id="Node000003" class="node">
<title>Node3</title>
<g id="a_Node000003"><a xlink:href="struct__PlumaFileBrowserView.html" target="_top" xlink:title=" ">
<polygon fill="white" stroke="#666666" points="368.5,-268.87 234.5,-268.87 234.5,-249.87 368.5,-249.87 368.5,-268.87"/>
<text text-anchor="middle" x="301.5" y="-256.87" font-family="Helvetica,sans-Serif" font-size="10.00">_PlumaFileBrowserView</text>
</a>
</g>
</g>
<!-- Node3&#45;&gt;Node2 -->
<g id="edge2_Node000002_Node000003" class="edge">
<title>Node3&#45;&gt;Node2</title>
<g id="a_edge2_Node000002_Node000003"><a xlink:title=" ">
<path fill="none" stroke="#9a32cd" stroke-dasharray="5,2" d="M378.7,-249.01C422.36,-243.08 476.77,-235.69 519.37,-229.9"/>
<polygon fill="#9a32cd" stroke="#9a32cd" points="378.14,-245.56 368.7,-250.37 379.08,-252.49 378.14,-245.56"/>
</a>
</g>
<text text-anchor="middle" x="439" y="-249.37" font-family="Helvetica,sans-Serif" font-size="10.00" fill="grey"> treeview</text>
</g>
<!-- Node4 -->
<g id="Node000004" class="node">
<title>Node4</title>
<g id="a_Node000004"><a xlink:title=" ">
<polygon fill="white" stroke="#666666" points="168,-270.87 0,-270.87 0,-251.87 168,-251.87 168,-270.87"/>
<text text-anchor="middle" x="84" y="-258.87" font-family="Helvetica,sans-Serif" font-size="10.00">_PlumaFileBrowserViewPrivate</text>
</a>
</g>
</g>
<!-- Node4&#45;&gt;Node3 -->
<g id="edge3_Node000003_Node000004" class="edge">
<title>Node4&#45;&gt;Node3</title>
<g id="a_edge3_Node000003_Node000004"><a xlink:title=" ">
<path fill="none" stroke="#9a32cd" stroke-dasharray="5,2" d="M178.12,-260.51C197.01,-260.33 216.51,-260.15 234.24,-259.98"/>
<polygon fill="#9a32cd" stroke="#9a32cd" points="177.98,-257.01 168.01,-260.6 178.04,-264.01 177.98,-257.01"/>
</a>
</g>
<text text-anchor="middle" x="197" y="-263.37" font-family="Helvetica,sans-Serif" font-size="10.00" fill="grey"> priv</text>
</g>
<!-- Node5 -->
<g id="Node000005" class="node">
<title>Node5</title>
<g id="a_Node000005"><a xlink:href="struct__PlumaFileBrowserStore.html" target="_top" xlink:title=" ">
<polygon fill="white" stroke="#666666" points="369,-145.87 234,-145.87 234,-126.87 369,-126.87 369,-145.87"/>
<text text-anchor="middle" x="301.5" y="-133.87" font-family="Helvetica,sans-Serif" font-size="10.00">_PlumaFileBrowserStore</text>
</a>
</g>
</g>
<!-- Node5&#45;&gt;Node2 -->
<g id="edge4_Node000002_Node000005" class="edge">
<title>Node5&#45;&gt;Node2</title>
<g id="a_edge4_Node000002_Node000005"><a xlink:title=" ">
<path fill="none" stroke="#9a32cd" stroke-dasharray="5,2" d="M343.37,-148.87C359.45,-153.75 378.08,-159.37 395,-164.37 451.28,-180.99 516.9,-199.76 555.73,-210.8"/>
<polygon fill="#9a32cd" stroke="#9a32cd" points="344.31,-145.5 333.72,-145.94 342.27,-152.2 344.31,-145.5"/>
</a>
</g>
<text text-anchor="middle" x="439" y="-192.37" font-family="Helvetica,sans-Serif" font-size="10.00" fill="grey"> file_store</text>
</g>
<!-- Node6 -->
<g id="Node000006" class="node">
<title>Node6</title>
<g id="a_Node000006"><a xlink:title=" ">
<polygon fill="white" stroke="#666666" points="945,-98.87 775,-98.87 775,-79.87 945,-79.87 945,-98.87"/>
<text text-anchor="middle" x="860" y="-86.87" font-family="Helvetica,sans-Serif" font-size="10.00">_PlumaFileBrowserStorePrivate</text>
</a>
</g>
</g>
<!-- Node5&#45;&gt;Node6 -->
<g id="edge8_Node000006_Node000005" class="edge">
<title>Node5&#45;&gt;Node6</title>
<g id="a_edge8_Node000006_Node000005"><a xlink:title=" ">
<path fill="none" stroke="#9a32cd" stroke-dasharray="5,2" d="M321,-119.99C354.22,-91.82 427.39,-35.18 501,-14.37 577.55,7.28 602,1.31 680,-14.37 743.09,-27.05 811.68,-62.56 842.44,-79.77"/>
<polygon fill="#9a32cd" stroke="#9a32cd" points="318.37,-117.64 313.08,-126.82 322.94,-122.94 318.37,-117.64"/>
</a>
</g>
<text text-anchor="middle" x="590.5" y="-17.37" font-family="Helvetica,sans-Serif" font-size="10.00" fill="grey"> filter_func</text>
</g>
<!-- Node8 -->
<g id="Node000008" class="node">
<title>Node8</title>
<g id="a_Node000008"><a xlink:title=" ">
<polygon fill="white" stroke="#666666" points="623.5,-167.87 557.5,-167.87 557.5,-148.87 623.5,-148.87 623.5,-167.87"/>
<text text-anchor="middle" x="590.5" y="-155.87" font-family="Helvetica,sans-Serif" font-size="10.00">MountInfo</text>
</a>
</g>
</g>
<!-- Node5&#45;&gt;Node8 -->
<g id="edge10_Node000008_Node000005" class="edge">
<title>Node5&#45;&gt;Node8</title>
<g id="a_edge10_Node000008_Node000005"><a xlink:title=" ">
<path fill="none" stroke="#9a32cd" stroke-dasharray="5,2" d="M379.34,-142.26C437.56,-146.72 514.6,-152.63 557.38,-155.91"/>
<polygon fill="#9a32cd" stroke="#9a32cd" points="379.3,-138.75 369.06,-141.47 378.77,-145.73 379.3,-138.75"/>
</a>
</g>
<text text-anchor="middle" x="439" y="-153.37" font-family="Helvetica,sans-Serif" font-size="10.00" fill="grey"> model</text>
</g>
<!-- Node6&#45;&gt;Node5 -->
<g id="edge5_Node000005_Node000006" class="edge">
<title>Node6&#45;&gt;Node5</title>
<g id="a_edge5_Node000005_Node000006"><a xlink:title=" ">
<path fill="none" stroke="#9a32cd" stroke-dasharray="5,2" d="M793.92,-100.45C781.68,-102.28 768.97,-104.03 757,-105.37 619.65,-120.8 458.04,-129.61 369.28,-133.65"/>
<polygon fill="#9a32cd" stroke="#9a32cd" points="794.71,-103.87 804.07,-98.89 793.65,-96.95 794.71,-103.87"/>
</a>
</g>
<text text-anchor="middle" x="590.5" y="-130.37" font-family="Helvetica,sans-Serif" font-size="10.00" fill="grey"> priv</text>
</g>
<!-- Node7 -->
<g id="Node000007" class="node">
<title>Node7</title>
<g id="a_Node000007"><a xlink:title=" ">
<polygon fill="white" stroke="#666666" points="642.5,-53.87 538.5,-53.87 538.5,-34.87 642.5,-34.87 642.5,-53.87"/>
<text text-anchor="middle" x="590.5" y="-41.87" font-family="Helvetica,sans-Serif" font-size="10.00">_FileBrowserNode</text>
</a>
</g>
</g>
<!-- Node7&#45;&gt;Node6 -->
<g id="edge6_Node000006_Node000007" class="edge">
<title>Node7&#45;&gt;Node6</title>
<g id="a_edge6_Node000006_Node000007"><a xlink:title=" ">
<path fill="none" stroke="#9a32cd" stroke-dasharray="5,2" d="M652.69,-54.66C697.71,-62.24 758.45,-72.46 802.36,-79.84"/>
<polygon fill="#9a32cd" stroke="#9a32cd" points="653.2,-51.2 642.76,-52.99 652.04,-58.1 653.2,-51.2"/>
</a>
</g>
<text text-anchor="middle" x="727.5" y="-96.37" font-family="Helvetica,sans-Serif" font-size="10.00" fill="grey"> root</text>
<text text-anchor="middle" x="727.5" y="-85.37" font-family="Helvetica,sans-Serif" font-size="10.00" fill="grey">sort_func</text>
<text text-anchor="middle" x="727.5" y="-74.37" font-family="Helvetica,sans-Serif" font-size="10.00" fill="grey">virtual_root</text>
</g>
<!-- Node7&#45;&gt;Node7 -->
<g id="edge7_Node000007_Node000007" class="edge">
<title>Node7&#45;&gt;Node7</title>
<g id="a_edge7_Node000007_Node000007"><a xlink:title=" ">
<path fill="none" stroke="#9a32cd" stroke-dasharray="5,2" d="M565.2,-63.06C566.58,-68.07 575.01,-71.87 590.5,-71.87 614.67,-71.87 621.66,-62.6 611.46,-53.95"/>
<polygon fill="#9a32cd" stroke="#9a32cd" points="568.4,-64.49 569.54,-53.95 562.08,-61.48 568.4,-64.49"/>
</a>
</g>
<text text-anchor="middle" x="590.5" y="-74.87" font-family="Helvetica,sans-Serif" font-size="10.00" fill="grey"> parent</text>
</g>
<!-- Node8&#45;&gt;Node6 -->
<g id="edge9_Node000006_Node000008" class="edge">
<title>Node8&#45;&gt;Node6</title>
<g id="a_edge9_Node000006_Node000008"><a xlink:title=" ">
<path fill="none" stroke="#9a32cd" stroke-dasharray="5,2" d="M633.75,-155.01C667.58,-151.6 715.98,-145.1 757,-133.37 787.41,-124.67 820.72,-109.06 840.73,-98.96"/>
<polygon fill="#9a32cd" stroke="#9a32cd" points="633.37,-151.53 623.75,-155.97 634.04,-158.5 633.37,-151.53"/>
</a>
</g>
<text text-anchor="middle" x="727.5" y="-149.37" font-family="Helvetica,sans-Serif" font-size="10.00" fill="grey"> mount_info</text>
</g>
<!-- Node9 -->
<g id="Node000009" class="node">
<title>Node9</title>
<g id="a_Node000009"><a xlink:href="struct__PlumaFileBookmarksStore.html" target="_top" xlink:title=" ">
<polygon fill="white" stroke="#666666" points="377,-228.87 226,-228.87 226,-209.87 377,-209.87 377,-228.87"/>
<text text-anchor="middle" x="301.5" y="-216.87" font-family="Helvetica,sans-Serif" font-size="10.00">_PlumaFileBookmarksStore</text>
</a>
</g>
</g>
<!-- Node9&#45;&gt;Node2 -->
<g id="edge11_Node000002_Node000009" class="edge">
<title>Node9&#45;&gt;Node2</title>
<g id="a_edge11_Node000002_Node000009"><a xlink:title=" ">
<path fill="none" stroke="#9a32cd" stroke-dasharray="5,2" d="M387.56,-219.67C423.28,-219.79 464.84,-219.94 500.93,-220.06"/>
<polygon fill="#9a32cd" stroke="#9a32cd" points="387.17,-216.16 377.16,-219.63 387.14,-223.16 387.17,-216.16"/>
</a>
</g>
<text text-anchor="middle" x="439" y="-222.37" font-family="Helvetica,sans-Serif" font-size="10.00" fill="grey"> bookmarks_store</text>
</g>
<!-- Node10 -->
<g id="Node000010" class="node">
<title>Node10</title>
<g id="a_Node000010"><a xlink:title=" ">
<polygon fill="white" stroke="#666666" points="159.5,-233.37 8.5,-233.37 8.5,-203.37 159.5,-203.37 159.5,-233.37"/>
<text text-anchor="start" x="16.5" y="-221.37" font-family="Helvetica,sans-Serif" font-size="10.00">_PlumaFileBookmarksStore</text>
<text text-anchor="middle" x="84" y="-210.37" font-family="Helvetica,sans-Serif" font-size="10.00">Private</text>
</a>
</g>
</g>
<!-- Node10&#45;&gt;Node9 -->
<g id="edge12_Node000009_Node000010" class="edge">
<title>Node10&#45;&gt;Node9</title>
<g id="a_edge12_Node000009_Node000010"><a xlink:title=" ">
<path fill="none" stroke="#9a32cd" stroke-dasharray="5,2" d="M169.92,-218.76C188.4,-218.85 207.82,-218.94 225.87,-219.02"/>
<polygon fill="#9a32cd" stroke="#9a32cd" points="169.78,-215.26 159.77,-218.72 169.75,-222.26 169.78,-215.26"/>
</a>
</g>
<text text-anchor="middle" x="197" y="-221.37" font-family="Helvetica,sans-Serif" font-size="10.00" fill="grey"> priv</text>
</g>
</g>
</svg>
