<?xml version="1.0" encoding="UTF-8" standalone="no"?>
<!DOCTYPE svg PUBLIC "-//W3C//DTD SVG 1.1//EN"
 "http://www.w3.org/Graphics/SVG/1.1/DTD/svg11.dtd">
<!-- Generated by graphviz version 2.43.0 (0)
 -->
<!-- Title: _FrCommandCpio Pages: 1 -->
<svg width="282pt" height="302pt"
 viewBox="0.00 0.00 282.00 302.00" xmlns="http://www.w3.org/2000/svg" xmlns:xlink="http://www.w3.org/1999/xlink">
<g id="graph0" class="graph" transform="scale(1 1) rotate(0) translate(4 298)">
<title>_FrCommandCpio</title>
<!-- Node1 -->
<g id="Node000001" class="node">
<title>Node1</title>
<g id="a_Node000001"><a xlink:title=" ">
<polygon fill="#999999" stroke="#666666" points="177,-19 74,-19 74,0 177,0 177,-19"/>
<text text-anchor="middle" x="125.5" y="-7" font-family="Helvetica,sans-Serif" font-size="10.00">_FrCommandCpio</text>
</a>
</g>
</g>
<!-- Node2 -->
<g id="Node000002" class="node">
<title>Node2</title>
<g id="a_Node000002"><a xlink:href="struct__FrCommand.html" target="_top" xlink:title=" ">
<polygon fill="white" stroke="#666666" points="166,-85 85,-85 85,-66 166,-66 166,-85"/>
<text text-anchor="middle" x="125.5" y="-73" font-family="Helvetica,sans-Serif" font-size="10.00">_FrCommand</text>
</a>
</g>
</g>
<!-- Node2&#45;&gt;Node1 -->
<g id="edge1_Node000001_Node000002" class="edge">
<title>Node2&#45;&gt;Node1</title>
<g id="a_edge1_Node000001_Node000002"><a xlink:title=" ">
<path fill="none" stroke="#9a32cd" stroke-dasharray="5,2" d="M125.5,-55.58C125.5,-43.63 125.5,-28.72 125.5,-19.41"/>
<polygon fill="#9a32cd" stroke="#9a32cd" points="122,-55.87 125.5,-65.87 129,-55.87 122,-55.87"/>
</a>
</g>
<text text-anchor="middle" x="148.5" y="-40" font-family="Helvetica,sans-Serif" font-size="10.00" fill="grey"> __parent</text>
</g>
<!-- Node3 -->
<g id="Node000003" class="node">
<title>Node3</title>
<g id="a_Node000003"><a xlink:href="struct__FrProcess.html" target="_top" xlink:title=" ">
<polygon fill="white" stroke="#666666" points="159.5,-151 91.5,-151 91.5,-132 159.5,-132 159.5,-151"/>
<text text-anchor="middle" x="125.5" y="-139" font-family="Helvetica,sans-Serif" font-size="10.00">_FrProcess</text>
</a>
</g>
</g>
<!-- Node3&#45;&gt;Node2 -->
<g id="edge2_Node000002_Node000003" class="edge">
<title>Node3&#45;&gt;Node2</title>
<g id="a_edge2_Node000002_Node000003"><a xlink:title=" ">
<path fill="none" stroke="#9a32cd" stroke-dasharray="5,2" d="M125.5,-121.58C125.5,-109.63 125.5,-94.72 125.5,-85.41"/>
<polygon fill="#9a32cd" stroke="#9a32cd" points="122,-121.87 125.5,-131.87 129,-121.87 122,-121.87"/>
</a>
</g>
<text text-anchor="middle" x="146" y="-106" font-family="Helvetica,sans-Serif" font-size="10.00" fill="grey"> process</text>
</g>
<!-- Node4 -->
<g id="Node000004" class="node">
<title>Node4</title>
<g id="a_Node000004"><a xlink:href="structFrChannelData.html" target="_top" xlink:title=" ">
<polygon fill="white" stroke="#666666" points="89,-228 0,-228 0,-209 89,-209 89,-228"/>
<text text-anchor="middle" x="44.5" y="-216" font-family="Helvetica,sans-Serif" font-size="10.00">FrChannelData</text>
</a>
</g>
</g>
<!-- Node4&#45;&gt;Node3 -->
<g id="edge3_Node000003_Node000004" class="edge">
<title>Node4&#45;&gt;Node3</title>
<g id="a_edge3_Node000003_Node000004"><a xlink:title=" ">
<path fill="none" stroke="#9a32cd" stroke-dasharray="5,2" d="M60.54,-201.44C70.23,-191.87 82.9,-179.56 94.5,-169 101.2,-162.9 108.95,-156.27 115.03,-151.17"/>
<polygon fill="#9a32cd" stroke="#9a32cd" points="57.82,-199.21 53.19,-208.74 62.75,-204.18 57.82,-199.21"/>
</a>
</g>
<text text-anchor="middle" x="103" y="-183" font-family="Helvetica,sans-Serif" font-size="10.00" fill="grey"> err</text>
<text text-anchor="middle" x="103" y="-172" font-family="Helvetica,sans-Serif" font-size="10.00" fill="grey">out</text>
</g>
<!-- Node5 -->
<g id="Node000005" class="node">
<title>Node5</title>
<g id="a_Node000005"><a xlink:href="structFrProcError.html" target="_top" xlink:title=" ">
<polygon fill="white" stroke="#666666" points="176.5,-294 106.5,-294 106.5,-275 176.5,-275 176.5,-294"/>
<text text-anchor="middle" x="141.5" y="-282" font-family="Helvetica,sans-Serif" font-size="10.00">FrProcError</text>
</a>
</g>
</g>
<!-- Node5&#45;&gt;Node3 -->
<g id="edge4_Node000003_Node000005" class="edge">
<title>Node5&#45;&gt;Node3</title>
<g id="a_edge4_Node000003_Node000005"><a xlink:title=" ">
<path fill="none" stroke="#9a32cd" stroke-dasharray="5,2" d="M139.06,-264.92C137.67,-254.15 135.92,-240.32 134.5,-228 131.24,-199.83 127.86,-166.38 126.34,-151"/>
<polygon fill="#9a32cd" stroke="#9a32cd" points="135.59,-265.39 140.35,-274.85 142.53,-264.49 135.59,-265.39"/>
</a>
</g>
<text text-anchor="middle" x="148" y="-216" font-family="Helvetica,sans-Serif" font-size="10.00" fill="grey"> error</text>
</g>
<!-- Node6 -->
<g id="Node000006" class="node">
<title>Node6</title>
<g id="a_Node000006"><a xlink:title=" ">
<polygon fill="white" stroke="#666666" points="274,-228 171,-228 171,-209 274,-209 274,-228"/>
<text text-anchor="middle" x="222.5" y="-216" font-family="Helvetica,sans-Serif" font-size="10.00">_FrProcessPrivate</text>
</a>
</g>
</g>
<!-- Node5&#45;&gt;Node6 -->
<g id="edge6_Node000006_Node000005" class="edge">
<title>Node5&#45;&gt;Node6</title>
<g id="a_edge6_Node000006_Node000005"><a xlink:title=" ">
<path fill="none" stroke="#9a32cd" stroke-dasharray="5,2" d="M160.5,-268.49C176.36,-255.96 198.41,-238.54 211.49,-228.2"/>
<polygon fill="#9a32cd" stroke="#9a32cd" points="158.1,-265.92 152.42,-274.87 162.44,-271.42 158.1,-265.92"/>
</a>
</g>
<text text-anchor="middle" x="213" y="-249" font-family="Helvetica,sans-Serif" font-size="10.00" fill="grey"> first_error</text>
</g>
<!-- Node6&#45;&gt;Node3 -->
<g id="edge5_Node000003_Node000006" class="edge">
<title>Node6&#45;&gt;Node3</title>
<g id="a_edge5_Node000003_Node000006"><a xlink:title=" ">
<path fill="none" stroke="#9a32cd" stroke-dasharray="5,2" d="M203.28,-202.64C183.3,-187.19 152.72,-163.55 136.5,-151"/>
<polygon fill="#9a32cd" stroke="#9a32cd" points="201.32,-205.55 211.37,-208.9 205.6,-200.01 201.32,-205.55"/>
</a>
</g>
<text text-anchor="middle" x="197.5" y="-177.5" font-family="Helvetica,sans-Serif" font-size="10.00" fill="grey"> priv</text>
</g>
</g>
</svg>
