<?xml version="1.0" encoding="UTF-8" standalone="no"?>
<!DOCTYPE svg PUBLIC "-//W3C//DTD SVG 1.1//EN"
 "http://www.w3.org/Graphics/SVG/1.1/DTD/svg11.dtd">
<!-- Generated by graphviz version 2.43.0 (0)
 -->
<!-- Title: MathButtons Pages: 1 -->
<svg width="296pt" height="621pt"
 viewBox="0.00 0.00 295.50 621.00" xmlns="http://www.w3.org/2000/svg" xmlns:xlink="http://www.w3.org/1999/xlink">
<g id="graph0" class="graph" transform="scale(1 1) rotate(0) translate(4 617)">
<title>MathButtons</title>
<!-- Node1 -->
<g id="Node000001" class="node">
<title>Node1</title>
<g id="a_Node000001"><a xlink:title=" ">
<polygon fill="#999999" stroke="#666666" points="177.5,-19 98.5,-19 98.5,0 177.5,0 177.5,-19"/>
<text text-anchor="middle" x="138" y="-7" font-family="Helvetica,sans-Serif" font-size="10.00">MathButtons</text>
</a>
</g>
</g>
<!-- Node2 -->
<g id="Node000002" class="node">
<title>Node2</title>
<g id="a_Node000002"><a xlink:title=" ">
<polygon fill="white" stroke="#666666" points="194.5,-85 81.5,-85 81.5,-66 194.5,-66 194.5,-85"/>
<text text-anchor="middle" x="138" y="-73" font-family="Helvetica,sans-Serif" font-size="10.00">MathButtonsPrivate</text>
</a>
</g>
</g>
<!-- Node2&#45;&gt;Node1 -->
<g id="edge1_Node000001_Node000002" class="edge">
<title>Node2&#45;&gt;Node1</title>
<g id="a_edge1_Node000001_Node000002"><a xlink:title=" ">
<path fill="none" stroke="#9a32cd" stroke-dasharray="5,2" d="M138,-55.58C138,-43.63 138,-28.72 138,-19.41"/>
<polygon fill="#9a32cd" stroke="#9a32cd" points="134.5,-55.87 138,-65.87 141.5,-55.87 134.5,-55.87"/>
</a>
</g>
<text text-anchor="middle" x="149" y="-40" font-family="Helvetica,sans-Serif" font-size="10.00" fill="grey"> priv</text>
</g>
<!-- Node3 -->
<g id="Node000003" class="node">
<title>Node3</title>
<g id="a_Node000003"><a xlink:href="structMathEquation.html" target="_top" xlink:title=" ">
<polygon fill="white" stroke="#666666" points="180,-283 96,-283 96,-264 180,-264 180,-283"/>
<text text-anchor="middle" x="138" y="-271" font-family="Helvetica,sans-Serif" font-size="10.00">MathEquation</text>
</a>
</g>
</g>
<!-- Node3&#45;&gt;Node2 -->
<g id="edge2_Node000002_Node000003" class="edge">
<title>Node3&#45;&gt;Node2</title>
<g id="a_edge2_Node000002_Node000003"><a xlink:title=" ">
<path fill="none" stroke="#9a32cd" stroke-dasharray="5,2" d="M138,-253.76C138,-212.38 138,-114.58 138,-85.07"/>
<polygon fill="#9a32cd" stroke="#9a32cd" points="134.5,-253.83 138,-263.83 141.5,-253.83 134.5,-253.83"/>
</a>
</g>
<text text-anchor="middle" x="161" y="-172" font-family="Helvetica,sans-Serif" font-size="10.00" fill="grey"> equation</text>
</g>
<!-- Node12 -->
<g id="Node000012" class="node">
<title>Node12</title>
<g id="a_Node000012"><a xlink:title=" ">
<polygon fill="white" stroke="#666666" points="274,-217 150,-217 150,-198 274,-198 274,-217"/>
<text text-anchor="middle" x="212" y="-205" font-family="Helvetica,sans-Serif" font-size="10.00">MathConverterPrivate</text>
</a>
</g>
</g>
<!-- Node3&#45;&gt;Node12 -->
<g id="edge13_Node000012_Node000003" class="edge">
<title>Node3&#45;&gt;Node12</title>
<g id="a_edge13_Node000012_Node000003"><a xlink:title=" ">
<path fill="none" stroke="#9a32cd" stroke-dasharray="5,2" d="M155.71,-257.18C170.08,-244.76 189.82,-227.68 201.7,-217.41"/>
<polygon fill="#9a32cd" stroke="#9a32cd" points="153.25,-254.68 147.98,-263.87 157.83,-259.97 153.25,-254.68"/>
</a>
</g>
<text text-anchor="middle" x="202" y="-238" font-family="Helvetica,sans-Serif" font-size="10.00" fill="grey"> equation</text>
</g>
<!-- Node4 -->
<g id="Node000004" class="node">
<title>Node4</title>
<g id="a_Node000004"><a xlink:title=" ">
<polygon fill="white" stroke="#666666" points="197.5,-349 78.5,-349 78.5,-330 197.5,-330 197.5,-349"/>
<text text-anchor="middle" x="138" y="-337" font-family="Helvetica,sans-Serif" font-size="10.00">MathEquationPrivate</text>
</a>
</g>
</g>
<!-- Node4&#45;&gt;Node3 -->
<g id="edge3_Node000003_Node000004" class="edge">
<title>Node4&#45;&gt;Node3</title>
<g id="a_edge3_Node000003_Node000004"><a xlink:title=" ">
<path fill="none" stroke="#9a32cd" stroke-dasharray="5,2" d="M138,-319.58C138,-307.63 138,-292.72 138,-283.41"/>
<polygon fill="#9a32cd" stroke="#9a32cd" points="134.5,-319.87 138,-329.87 141.5,-319.87 134.5,-319.87"/>
</a>
</g>
<text text-anchor="middle" x="149" y="-304" font-family="Helvetica,sans-Serif" font-size="10.00" fill="grey"> priv</text>
</g>
<!-- Node5 -->
<g id="Node000005" class="node">
<title>Node5</title>
<g id="a_Node000005"><a xlink:title=" ">
<polygon fill="white" stroke="#666666" points="110,-415 0,-415 0,-396 110,-396 110,-415"/>
<text text-anchor="middle" x="55" y="-403" font-family="Helvetica,sans-Serif" font-size="10.00">MathEquationState</text>
</a>
</g>
</g>
<!-- Node5&#45;&gt;Node4 -->
<g id="edge4_Node000004_Node000005" class="edge">
<title>Node5&#45;&gt;Node4</title>
<g id="a_edge4_Node000004_Node000005"><a xlink:title=" ">
<path fill="none" stroke="#9a32cd" stroke-dasharray="5,2" d="M70.67,-388.95C78.08,-381.92 87.21,-373.7 96,-367 104.5,-360.51 114.62,-354.09 122.79,-349.2"/>
<polygon fill="#9a32cd" stroke="#9a32cd" points="68.15,-386.51 63.4,-395.98 73.02,-391.54 68.15,-386.51"/>
</a>
</g>
<text text-anchor="middle" x="110" y="-370" font-family="Helvetica,sans-Serif" font-size="10.00" fill="grey"> state</text>
</g>
<!-- Node6 -->
<g id="Node000006" class="node">
<title>Node6</title>
<g id="a_Node000006"><a xlink:href="structMPNumber.html" target="_top" xlink:title=" ">
<polygon fill="white" stroke="#666666" points="90.5,-481 19.5,-481 19.5,-462 90.5,-462 90.5,-481"/>
<text text-anchor="middle" x="55" y="-469" font-family="Helvetica,sans-Serif" font-size="10.00">MPNumber</text>
</a>
</g>
</g>
<!-- Node6&#45;&gt;Node5 -->
<g id="edge5_Node000005_Node000006" class="edge">
<title>Node6&#45;&gt;Node5</title>
<g id="a_edge5_Node000005_Node000006"><a xlink:title=" ">
<path fill="none" stroke="#9a32cd" stroke-dasharray="5,2" d="M55,-451.58C55,-439.63 55,-424.72 55,-415.41"/>
<polygon fill="#9a32cd" stroke="#9a32cd" points="51.5,-451.87 55,-461.87 58.5,-451.87 51.5,-451.87"/>
</a>
</g>
<text text-anchor="middle" x="65.5" y="-436" font-family="Helvetica,sans-Serif" font-size="10.00" fill="grey"> ans</text>
</g>
<!-- Node7 -->
<g id="Node000007" class="node">
<title>Node7</title>
<g id="a_Node000007"><a xlink:href="structMathVariables.html" target="_top" xlink:title=" ">
<polygon fill="white" stroke="#666666" points="257,-415 171,-415 171,-396 257,-396 257,-415"/>
<text text-anchor="middle" x="214" y="-403" font-family="Helvetica,sans-Serif" font-size="10.00">MathVariables</text>
</a>
</g>
</g>
<!-- Node7&#45;&gt;Node4 -->
<g id="edge6_Node000004_Node000007" class="edge">
<title>Node7&#45;&gt;Node4</title>
<g id="a_edge6_Node000004_Node000007"><a xlink:title=" ">
<path fill="none" stroke="#9a32cd" stroke-dasharray="5,2" d="M195.81,-389.18C181.06,-376.76 160.78,-359.68 148.57,-349.41"/>
<polygon fill="#9a32cd" stroke="#9a32cd" points="193.85,-392.1 203.75,-395.87 198.36,-386.75 193.85,-392.1"/>
</a>
</g>
<text text-anchor="middle" x="204.5" y="-370" font-family="Helvetica,sans-Serif" font-size="10.00" fill="grey"> variables</text>
</g>
<!-- Node8 -->
<g id="Node000008" class="node">
<title>Node8</title>
<g id="a_Node000008"><a xlink:title=" ">
<polygon fill="white" stroke="#666666" points="287.5,-481 166.5,-481 166.5,-462 287.5,-462 287.5,-481"/>
<text text-anchor="middle" x="227" y="-469" font-family="Helvetica,sans-Serif" font-size="10.00">MathVariablesPrivate</text>
</a>
</g>
</g>
<!-- Node8&#45;&gt;Node7 -->
<g id="edge7_Node000007_Node000008" class="edge">
<title>Node8&#45;&gt;Node7</title>
<g id="a_edge7_Node000007_Node000008"><a xlink:title=" ">
<path fill="none" stroke="#9a32cd" stroke-dasharray="5,2" d="M223.23,-451.95C220.79,-439.93 217.72,-424.82 215.81,-415.41"/>
<polygon fill="#9a32cd" stroke="#9a32cd" points="219.83,-452.77 225.25,-461.87 226.69,-451.37 219.83,-452.77"/>
</a>
</g>
<text text-anchor="middle" x="232" y="-436" font-family="Helvetica,sans-Serif" font-size="10.00" fill="grey"> priv</text>
</g>
<!-- Node9 -->
<g id="Node000009" class="node">
<title>Node9</title>
<g id="a_Node000009"><a xlink:href="structMpSerializer.html" target="_top" xlink:title=" ">
<polygon fill="white" stroke="#666666" points="192.5,-547 115.5,-547 115.5,-528 192.5,-528 192.5,-547"/>
<text text-anchor="middle" x="154" y="-535" font-family="Helvetica,sans-Serif" font-size="10.00">MpSerializer</text>
</a>
</g>
</g>
<!-- Node9&#45;&gt;Node4 -->
<g id="edge10_Node000004_Node000009" class="edge">
<title>Node9&#45;&gt;Node4</title>
<g id="a_edge10_Node000004_Node000009"><a xlink:title=" ">
<path fill="none" stroke="#9a32cd" stroke-dasharray="5,2" d="M152.47,-517.76C149.09,-476.38 141.11,-378.58 138.7,-349.07"/>
<polygon fill="#9a32cd" stroke="#9a32cd" points="148.99,-518.14 153.29,-527.83 155.97,-517.57 148.99,-518.14"/>
</a>
</g>
<text text-anchor="middle" x="170.5" y="-436" font-family="Helvetica,sans-Serif" font-size="10.00" fill="grey"> serializer</text>
</g>
<!-- Node9&#45;&gt;Node8 -->
<g id="edge8_Node000008_Node000009" class="edge">
<title>Node9&#45;&gt;Node8</title>
<g id="a_edge8_Node000008_Node000009"><a xlink:title=" ">
<path fill="none" stroke="#9a32cd" stroke-dasharray="5,2" d="M171.48,-521.18C185.64,-508.76 205.12,-491.68 216.84,-481.41"/>
<polygon fill="#9a32cd" stroke="#9a32cd" points="169.06,-518.64 163.85,-527.87 173.67,-523.91 169.06,-518.64"/>
</a>
</g>
<text text-anchor="middle" x="218.5" y="-502" font-family="Helvetica,sans-Serif" font-size="10.00" fill="grey"> serializer</text>
</g>
<!-- Node10 -->
<g id="Node000010" class="node">
<title>Node10</title>
<g id="a_Node000010"><a xlink:title=" ">
<polygon fill="white" stroke="#666666" points="210,-613 98,-613 98,-594 210,-594 210,-613"/>
<text text-anchor="middle" x="154" y="-601" font-family="Helvetica,sans-Serif" font-size="10.00">MpSerializerPrivate</text>
</a>
</g>
</g>
<!-- Node10&#45;&gt;Node9 -->
<g id="edge9_Node000009_Node000010" class="edge">
<title>Node10&#45;&gt;Node9</title>
<g id="a_edge9_Node000009_Node000010"><a xlink:title=" ">
<path fill="none" stroke="#9a32cd" stroke-dasharray="5,2" d="M154,-583.58C154,-571.63 154,-556.72 154,-547.41"/>
<polygon fill="#9a32cd" stroke="#9a32cd" points="150.5,-583.87 154,-593.87 157.5,-583.87 150.5,-583.87"/>
</a>
</g>
<text text-anchor="middle" x="165" y="-568" font-family="Helvetica,sans-Serif" font-size="10.00" fill="grey"> priv</text>
</g>
<!-- Node11 -->
<g id="Node000011" class="node">
<title>Node11</title>
<g id="a_Node000011"><a xlink:href="structMathConverter.html" target="_top" xlink:title=" ">
<polygon fill="white" stroke="#666666" points="247.5,-151 158.5,-151 158.5,-132 247.5,-132 247.5,-151"/>
<text text-anchor="middle" x="203" y="-139" font-family="Helvetica,sans-Serif" font-size="10.00">MathConverter</text>
</a>
</g>
</g>
<!-- Node11&#45;&gt;Node2 -->
<g id="edge11_Node000002_Node000011" class="edge">
<title>Node11&#45;&gt;Node2</title>
<g id="a_edge11_Node000002_Node000011"><a xlink:title=" ">
<path fill="none" stroke="#9a32cd" stroke-dasharray="5,2" d="M187.08,-124.83C174.5,-112.44 157.38,-95.59 147.04,-85.41"/>
<polygon fill="#9a32cd" stroke="#9a32cd" points="184.65,-127.35 194.23,-131.87 189.56,-122.36 184.65,-127.35"/>
</a>
</g>
<text text-anchor="middle" x="199" y="-106" font-family="Helvetica,sans-Serif" font-size="10.00" fill="grey"> converter</text>
</g>
<!-- Node12&#45;&gt;Node11 -->
<g id="edge12_Node000011_Node000012" class="edge">
<title>Node12&#45;&gt;Node11</title>
<g id="a_edge12_Node000011_Node000012"><a xlink:title=" ">
<path fill="none" stroke="#9a32cd" stroke-dasharray="5,2" d="M209.39,-187.95C207.7,-175.93 205.58,-160.82 204.25,-151.41"/>
<polygon fill="#9a32cd" stroke="#9a32cd" points="205.93,-188.45 210.79,-197.87 212.86,-187.48 205.93,-188.45"/>
</a>
</g>
<text text-anchor="middle" x="219" y="-172" font-family="Helvetica,sans-Serif" font-size="10.00" fill="grey"> priv</text>
</g>
</g>
</svg>
