<?xml version="1.0" encoding="UTF-8" standalone="no"?>
<!DOCTYPE svg PUBLIC "-//W3C//DTD SVG 1.1//EN"
 "http://www.w3.org/Graphics/SVG/1.1/DTD/svg11.dtd">
<!-- Generated by graphviz version 2.43.0 (0)
 -->
<!-- Title: _AlsaBackend Pages: 1 -->
<svg width="594pt" height="236pt"
 viewBox="0.00 0.00 593.50 236.00" xmlns="http://www.w3.org/2000/svg" xmlns:xlink="http://www.w3.org/1999/xlink">
<g id="graph0" class="graph" transform="scale(1 1) rotate(0) translate(4 232)">
<title>_AlsaBackend</title>
<!-- Node1 -->
<g id="Node000001" class="node">
<title>Node1</title>
<g id="a_Node000001"><a xlink:title=" ">
<polygon fill="#999999" stroke="#666666" points="186.5,-19 102.5,-19 102.5,0 186.5,0 186.5,-19"/>
<text text-anchor="middle" x="144.5" y="-7" font-family="Helvetica,sans-Serif" font-size="10.00">_AlsaBackend</text>
</a>
</g>
</g>
<!-- Node2 -->
<g id="Node000002" class="node">
<title>Node2</title>
<g id="a_Node000002"><a xlink:href="struct__MateMixerBackend.html" target="_top" xlink:title=" ">
<polygon fill="white" stroke="#666666" points="115,-85 0,-85 0,-66 115,-66 115,-85"/>
<text text-anchor="middle" x="57.5" y="-73" font-family="Helvetica,sans-Serif" font-size="10.00">_MateMixerBackend</text>
</a>
</g>
</g>
<!-- Node2&#45;&gt;Node1 -->
<g id="edge1_Node000001_Node000002" class="edge">
<title>Node2&#45;&gt;Node1</title>
<g id="a_edge1_Node000001_Node000002"><a xlink:title=" ">
<path fill="none" stroke="#9a32cd" stroke-dasharray="5,2" d="M77.44,-59.83C94.5,-47.28 118.49,-29.63 132.67,-19.2"/>
<polygon fill="#9a32cd" stroke="#9a32cd" points="75.21,-57.12 69.23,-65.87 79.36,-62.76 75.21,-57.12"/>
</a>
</g>
<text text-anchor="middle" x="124" y="-40" font-family="Helvetica,sans-Serif" font-size="10.00" fill="grey"> parent</text>
</g>
<!-- Node3 -->
<g id="Node000003" class="node">
<title>Node3</title>
<g id="a_Node000003"><a xlink:title=" ">
<polygon fill="white" stroke="#666666" points="178,-151 29,-151 29,-132 178,-132 178,-151"/>
<text text-anchor="middle" x="103.5" y="-139" font-family="Helvetica,sans-Serif" font-size="10.00">_MateMixerBackendPrivate</text>
</a>
</g>
</g>
<!-- Node3&#45;&gt;Node2 -->
<g id="edge2_Node000002_Node000003" class="edge">
<title>Node3&#45;&gt;Node2</title>
<g id="a_edge2_Node000002_Node000003"><a xlink:title=" ">
<path fill="none" stroke="#9a32cd" stroke-dasharray="5,2" d="M91.22,-123.41C82.42,-111.18 70.94,-95.2 63.9,-85.41"/>
<polygon fill="#9a32cd" stroke="#9a32cd" points="88.62,-125.79 97.3,-131.87 94.3,-121.71 88.62,-125.79"/>
</a>
</g>
<text text-anchor="middle" x="94.5" y="-106" font-family="Helvetica,sans-Serif" font-size="10.00" fill="grey"> priv</text>
</g>
<!-- Node4 -->
<g id="Node000004" class="node">
<title>Node4</title>
<g id="a_Node000004"><a xlink:href="struct__MateMixerStream.html" target="_top" xlink:title=" ">
<polygon fill="white" stroke="#666666" points="513,-228 404,-228 404,-209 513,-209 513,-228"/>
<text text-anchor="middle" x="458.5" y="-216" font-family="Helvetica,sans-Serif" font-size="10.00">_MateMixerStream</text>
</a>
</g>
</g>
<!-- Node4&#45;&gt;Node3 -->
<g id="edge3_Node000003_Node000004" class="edge">
<title>Node4&#45;&gt;Node3</title>
<g id="a_edge3_Node000003_Node000004"><a xlink:title=" ">
<path fill="none" stroke="#9a32cd" stroke-dasharray="5,2" d="M408.07,-206.85C337.04,-191.84 208.94,-164.78 143.84,-151.02"/>
<polygon fill="#9a32cd" stroke="#9a32cd" points="407.62,-210.33 418.12,-208.97 409.06,-203.48 407.62,-210.33"/>
</a>
</g>
<text text-anchor="middle" x="358.5" y="-183" font-family="Helvetica,sans-Serif" font-size="10.00" fill="grey"> default_input</text>
<text text-anchor="middle" x="358.5" y="-172" font-family="Helvetica,sans-Serif" font-size="10.00" fill="grey">default_output</text>
</g>
<!-- Node9 -->
<g id="Node000009" class="node">
<title>Node9</title>
<g id="a_Node000009"><a xlink:title=" ">
<polygon fill="white" stroke="#666666" points="548,-151 369,-151 369,-132 548,-132 548,-151"/>
<text text-anchor="middle" x="458.5" y="-139" font-family="Helvetica,sans-Serif" font-size="10.00">_MateMixerStreamControlPrivate</text>
</a>
</g>
</g>
<!-- Node4&#45;&gt;Node9 -->
<g id="edge9_Node000009_Node000004" class="edge">
<title>Node4&#45;&gt;Node9</title>
<g id="a_edge9_Node000009_Node000004"><a xlink:title=" ">
<path fill="none" stroke="#9a32cd" stroke-dasharray="5,2" d="M458.5,-198.52C458.5,-183.24 458.5,-162.48 458.5,-151"/>
<polygon fill="#9a32cd" stroke="#9a32cd" points="455,-198.9 458.5,-208.9 462,-198.9 455,-198.9"/>
</a>
</g>
<text text-anchor="middle" x="477.5" y="-177.5" font-family="Helvetica,sans-Serif" font-size="10.00" fill="grey"> stream</text>
</g>
<!-- Node5 -->
<g id="Node000005" class="node">
<title>Node5</title>
<g id="a_Node000005"><a xlink:title=" ">
<polygon fill="white" stroke="#666666" points="539,-19 396,-19 396,0 539,0 539,-19"/>
<text text-anchor="middle" x="467.5" y="-7" font-family="Helvetica,sans-Serif" font-size="10.00">_MateMixerStreamPrivate</text>
</a>
</g>
</g>
<!-- Node5&#45;&gt;Node4 -->
<g id="edge4_Node000004_Node000005" class="edge">
<title>Node5&#45;&gt;Node4</title>
<g id="a_edge4_Node000004_Node000005"><a xlink:title=" ">
<path fill="none" stroke="#9a32cd" stroke-dasharray="5,2" d="M498.46,-23.62C516.16,-32.8 537.05,-46.87 548.5,-66 568.25,-98.98 566.88,-132.96 557.5,-151 542.22,-180.39 507.37,-199.02 483.38,-208.86"/>
<polygon fill="#9a32cd" stroke="#9a32cd" points="499.56,-20.26 489.04,-19.01 496.49,-26.55 499.56,-20.26"/>
</a>
</g>
<text text-anchor="middle" x="574.5" y="-106" font-family="Helvetica,sans-Serif" font-size="10.00" fill="grey"> priv</text>
</g>
<!-- Node6 -->
<g id="Node000006" class="node">
<title>Node6</title>
<g id="a_Node000006"><a xlink:href="struct__MateMixerDevice.html" target="_top" xlink:title=" ">
<polygon fill="white" stroke="#666666" points="377,-85 270,-85 270,-66 377,-66 377,-85"/>
<text text-anchor="middle" x="323.5" y="-73" font-family="Helvetica,sans-Serif" font-size="10.00">_MateMixerDevice</text>
</a>
</g>
</g>
<!-- Node6&#45;&gt;Node5 -->
<g id="edge5_Node000005_Node000006" class="edge">
<title>Node6&#45;&gt;Node5</title>
<g id="a_edge5_Node000005_Node000006"><a xlink:title=" ">
<path fill="none" stroke="#9a32cd" stroke-dasharray="5,2" d="M352.31,-61.69C380.69,-49.08 423.27,-30.16 447.93,-19.2"/>
<polygon fill="#9a32cd" stroke="#9a32cd" points="350.64,-58.61 342.92,-65.87 353.48,-65.01 350.64,-58.61"/>
</a>
</g>
<text text-anchor="middle" x="421.5" y="-40" font-family="Helvetica,sans-Serif" font-size="10.00" fill="grey"> device</text>
</g>
<!-- Node7 -->
<g id="Node000007" class="node">
<title>Node7</title>
<g id="a_Node000007"><a xlink:title=" ">
<polygon fill="white" stroke="#666666" points="350.5,-151 208.5,-151 208.5,-132 350.5,-132 350.5,-151"/>
<text text-anchor="middle" x="279.5" y="-139" font-family="Helvetica,sans-Serif" font-size="10.00">_MateMixerDevicePrivate</text>
</a>
</g>
</g>
<!-- Node7&#45;&gt;Node6 -->
<g id="edge6_Node000006_Node000007" class="edge">
<title>Node7&#45;&gt;Node6</title>
<g id="a_edge6_Node000006_Node000007"><a xlink:title=" ">
<path fill="none" stroke="#9a32cd" stroke-dasharray="5,2" d="M291.25,-123.41C299.66,-111.18 310.64,-95.2 317.38,-85.41"/>
<polygon fill="#9a32cd" stroke="#9a32cd" points="288.22,-121.65 285.43,-131.87 293.98,-125.61 288.22,-121.65"/>
</a>
</g>
<text text-anchor="middle" x="314.5" y="-106" font-family="Helvetica,sans-Serif" font-size="10.00" fill="grey"> priv</text>
</g>
<!-- Node8 -->
<g id="Node000008" class="node">
<title>Node8</title>
<g id="a_Node000008"><a xlink:href="struct__MateMixerStreamControl.html" target="_top" xlink:title=" ">
<polygon fill="white" stroke="#666666" points="539.5,-85 395.5,-85 395.5,-66 539.5,-66 539.5,-85"/>
<text text-anchor="middle" x="467.5" y="-73" font-family="Helvetica,sans-Serif" font-size="10.00">_MateMixerStreamControl</text>
</a>
</g>
</g>
<!-- Node8&#45;&gt;Node5 -->
<g id="edge7_Node000005_Node000008" class="edge">
<title>Node8&#45;&gt;Node5</title>
<g id="a_edge7_Node000005_Node000008"><a xlink:title=" ">
<path fill="none" stroke="#9a32cd" stroke-dasharray="5,2" d="M467.5,-55.58C467.5,-43.63 467.5,-28.72 467.5,-19.41"/>
<polygon fill="#9a32cd" stroke="#9a32cd" points="464,-55.87 467.5,-65.87 471,-55.87 464,-55.87"/>
</a>
</g>
<text text-anchor="middle" x="486" y="-40" font-family="Helvetica,sans-Serif" font-size="10.00" fill="grey"> control</text>
</g>
<!-- Node9&#45;&gt;Node8 -->
<g id="edge8_Node000008_Node000009" class="edge">
<title>Node9&#45;&gt;Node8</title>
<g id="a_edge8_Node000008_Node000009"><a xlink:title=" ">
<path fill="none" stroke="#9a32cd" stroke-dasharray="5,2" d="M461.11,-121.95C462.8,-109.93 464.92,-94.82 466.25,-85.41"/>
<polygon fill="#9a32cd" stroke="#9a32cd" points="457.64,-121.48 459.71,-131.87 464.57,-122.45 457.64,-121.48"/>
</a>
</g>
<text text-anchor="middle" x="474.5" y="-106" font-family="Helvetica,sans-Serif" font-size="10.00" fill="grey"> priv</text>
</g>
<!-- Node10 -->
<g id="Node000010" class="node">
<title>Node10</title>
<g id="a_Node000010"><a xlink:title=" ">
<polygon fill="white" stroke="#666666" points="252,-85 133,-85 133,-66 252,-66 252,-85"/>
<text text-anchor="middle" x="192.5" y="-73" font-family="Helvetica,sans-Serif" font-size="10.00">_AlsaBackendPrivate</text>
</a>
</g>
</g>
<!-- Node10&#45;&gt;Node1 -->
<g id="edge10_Node000001_Node000010" class="edge">
<title>Node10&#45;&gt;Node1</title>
<g id="a_edge10_Node000001_Node000010"><a xlink:title=" ">
<path fill="none" stroke="#9a32cd" stroke-dasharray="5,2" d="M179.95,-57.77C170.74,-45.49 158.6,-29.3 151.18,-19.41"/>
<polygon fill="#9a32cd" stroke="#9a32cd" points="177.23,-59.97 186.03,-65.87 182.83,-55.77 177.23,-59.97"/>
</a>
</g>
<text text-anchor="middle" x="181.5" y="-40" font-family="Helvetica,sans-Serif" font-size="10.00" fill="grey"> priv</text>
</g>
</g>
</svg>
