<?xml version="1.0" encoding="UTF-8" standalone="no"?>
<!DOCTYPE svg PUBLIC "-//W3C//DTD SVG 1.1//EN"
 "http://www.w3.org/Graphics/SVG/1.1/DTD/svg11.dtd">
<!-- Generated by graphviz version 2.43.0 (0)
 -->
<!-- Title: _CajaFileConflictDialog Pages: 1 -->
<!--zoomable 937 -->

<svg id="main" version="1.1" xmlns="http://www.w3.org/2000/svg" xmlns:xlink="http://www.w3.org/1999/xlink" xml:space="preserve" onload="init(evt)">
<style type="text/css"><![CDATA[
.node, .edge {opacity: 0.7;}
.node.selected, .edge.selected {opacity: 1;}
.edge:hover path { stroke: red; }
.edge:hover polygon { stroke: red; fill: red; }
]]></style>

<defs>
  <circle id="rim" cx="0" cy="0" r="7"/>
  <circle id="rim2" cx="0" cy="0" r="3.5"/>
  <g id="zoomPlus">
    <use xlink:href="#rim" fill="#404040"><set attributeName="fill" to="#808080" begin="zoomplus.mouseover" end="zoomplus.mouseout"/></use>
    <path d="M-4,0h8M0,-4v8" fill="none" stroke="white" stroke-width="1.5" pointer-events="none"/>
  </g>
  <g id="zoomMin">
    <use xlink:href="#rim" fill="#404040"><set attributeName="fill" to="#808080" begin="zoomminus.mouseover" end="zoomminus.mouseout"/></use>
    <path d="M-4,0h8" fill="none" stroke="white" stroke-width="1.5" pointer-events="none"/>
  </g>
  <g id="arrowUp" transform="translate(30 24)">
    <use xlink:href="#rim"/>
    <path pointer-events="none" fill="none" stroke="white" stroke-width="1.5" d="M0,-3.0v7 M-2.5,-0.5L0,-3.0L2.5,-0.5"/>
  </g>
  <g id="arrowRight" transform="rotate(90) translate(36 -43)">
    <use xlink:href="#rim"/>
    <path pointer-events="none" fill="none" stroke="white" stroke-width="1.5" d="M0,-3.0v7 M-2.5,-0.5L0,-3.0L2.5,-0.5"/>
  </g>
  <g id="arrowDown" transform="rotate(180) translate(-30 -48)">
    <use xlink:href="#rim"/>
    <path pointer-events="none" fill="none" stroke="white" stroke-width="1.5" d="M0,-3.0v7 M-2.5,-0.5L0,-3.0L2.5,-0.5"/>
  </g>
  <g id="arrowLeft" transform="rotate(270) translate(-36 17)">
    <use xlink:href="#rim"/>
    <path pointer-events="none" fill="none" stroke="white" stroke-width="1.5" d="M0,-3.0v7 M-2.5,-0.5L0,-3.0L2.5,-0.5"/>
  </g>
  <g id="resetDef">
    <use xlink:href="#rim2" fill="#404040"><set attributeName="fill" to="#808080" begin="reset.mouseover" end="reset.mouseout"/></use>
  </g>
</defs>
<script type="application/ecmascript">
var viewWidth = 981;
var viewHeight = 937;
var sectionId = 'dynsection-0';
</script>
<script type="application/ecmascript" xlink:href="svg.min.js"/>
<svg id="graph" class="graph">
<g id="viewport">
<title>_CajaFileConflictDialog</title>
<!-- Node1 -->
<g id="Node000001" class="node">
<title>Node1</title>
<g id="a_Node000001"><a xlink:title=" ">
<polygon fill="#999999" stroke="#666666" points="657.5,-793.87 528.5,-793.87 528.5,-774.87 657.5,-774.87 657.5,-793.87"/>
<text text-anchor="middle" x="593" y="-781.87" font-family="Helvetica,sans-Serif" font-size="10.00">_CajaFileConflictDialog</text>
</a>
</g>
</g>
<!-- Node2 -->
<g id="Node000002" class="node">
<title>Node2</title>
<g id="a_Node000002"><a xlink:title=" ">
<polygon fill="white" stroke="#666666" points="384,-778.87 220,-778.87 220,-759.87 384,-759.87 384,-778.87"/>
<text text-anchor="middle" x="302" y="-766.87" font-family="Helvetica,sans-Serif" font-size="10.00">_CajaFileConflictDialogPrivate</text>
</a>
</g>
</g>
<!-- Node2&#45;&gt;Node1 -->
<g id="edge1_Node000001_Node000002" class="edge">
<title>Node2&#45;&gt;Node1</title>
<g id="a_edge1_Node000001_Node000002"><a xlink:title=" ">
<path fill="none" stroke="#9a32cd" stroke-dasharray="5,2" d="M394.31,-774.1C437.88,-776.37 488.94,-779.02 528.26,-781.06"/>
<polygon fill="#9a32cd" stroke="#9a32cd" points="394.44,-770.61 384.27,-773.58 394.08,-777.6 394.44,-770.61"/>
</a>
</g>
<text text-anchor="middle" x="449" y="-781.37" font-family="Helvetica,sans-Serif" font-size="10.00" fill="grey"> details</text>
</g>
<!-- Node3 -->
<g id="Node000003" class="node">
<title>Node3</title>
<g id="a_Node000003"><a xlink:href="structCajaFile.html" target="_top" xlink:title=" ">
<polygon fill="white" stroke="#666666" points="71.5,-632.87 15.5,-632.87 15.5,-613.87 71.5,-613.87 71.5,-632.87"/>
<text text-anchor="middle" x="43.5" y="-620.87" font-family="Helvetica,sans-Serif" font-size="10.00">CajaFile</text>
</a>
</g>
</g>
<!-- Node3&#45;&gt;Node2 -->
<g id="edge2_Node000002_Node000003" class="edge">
<title>Node3&#45;&gt;Node2</title>
<g id="a_edge2_Node000002_Node000003"><a xlink:title=" ">
<path fill="none" stroke="#9a32cd" stroke-dasharray="5,2" d="M52.31,-642.12C61.8,-662.62 79.73,-694.99 105,-713.37 139.21,-738.23 184.19,-752.09 222.43,-759.79"/>
<polygon fill="#9a32cd" stroke="#9a32cd" points="55.47,-640.6 48.23,-632.87 49.06,-643.43 55.47,-640.6"/>
</a>
</g>
<text text-anchor="middle" x="153.5" y="-779.37" font-family="Helvetica,sans-Serif" font-size="10.00" fill="grey"> dest_dir</text>
<text text-anchor="middle" x="153.5" y="-768.37" font-family="Helvetica,sans-Serif" font-size="10.00" fill="grey">destination</text>
<text text-anchor="middle" x="153.5" y="-757.37" font-family="Helvetica,sans-Serif" font-size="10.00" fill="grey">source</text>
</g>
<!-- Node6 -->
<g id="Node000006" class="node">
<title>Node6</title>
<g id="a_Node000006"><a xlink:href="struct__CajaDirectoryPrivate.html" target="_top" xlink:title=" ">
<polygon fill="white" stroke="#666666" points="363.5,-340.87 240.5,-340.87 240.5,-321.87 363.5,-321.87 363.5,-340.87"/>
<text text-anchor="middle" x="302" y="-328.87" font-family="Helvetica,sans-Serif" font-size="10.00">_CajaDirectoryPrivate</text>
</a>
</g>
</g>
<!-- Node3&#45;&gt;Node6 -->
<g id="edge6_Node000006_Node000003" class="edge">
<title>Node3&#45;&gt;Node6</title>
<g id="a_edge6_Node000006_Node000003"><a xlink:title=" ">
<path fill="none" stroke="#9a32cd" stroke-dasharray="5,2" d="M51.9,-604.08C61.77,-579.81 80.83,-537.53 105,-506.37 162.03,-432.83 252.63,-365.36 287.08,-340.99"/>
<polygon fill="#9a32cd" stroke="#9a32cd" points="48.57,-602.99 48.14,-613.58 55.07,-605.57 48.57,-602.99"/>
</a>
</g>
<text text-anchor="middle" x="153.5" y="-542.37" font-family="Helvetica,sans-Serif" font-size="10.00" fill="grey"> as_file</text>
<text text-anchor="middle" x="153.5" y="-531.37" font-family="Helvetica,sans-Serif" font-size="10.00" fill="grey">deep_count_file</text>
<text text-anchor="middle" x="153.5" y="-520.37" font-family="Helvetica,sans-Serif" font-size="10.00" fill="grey">extension_info_file</text>
<text text-anchor="middle" x="153.5" y="-509.37" font-family="Helvetica,sans-Serif" font-size="10.00" fill="grey">get_info_file</text>
</g>
<!-- Node9 -->
<g id="Node000009" class="node">
<title>Node9</title>
<g id="a_Node000009"><a xlink:title=" ">
<polygon fill="white" stroke="#666666" points="967,-683.87 857,-683.87 857,-664.87 967,-664.87 967,-683.87"/>
<text text-anchor="middle" x="912" y="-671.87" font-family="Helvetica,sans-Serif" font-size="10.00">DirectoryLoadState</text>
</a>
</g>
</g>
<!-- Node3&#45;&gt;Node9 -->
<g id="edge11_Node000009_Node000003" class="edge">
<title>Node3&#45;&gt;Node9</title>
<g id="a_edge11_Node000009_Node000003"><a xlink:title=" ">
<path fill="none" stroke="#9a32cd" stroke-dasharray="5,2" d="M67.52,-638.52C78.42,-644.9 91.9,-651.69 105,-655.37 154.3,-669.2 168.87,-659.56 220,-662.37 428.82,-673.83 480.92,-680.25 690,-685.37 753.54,-686.92 769.6,-689.81 833,-685.37 840.78,-684.82 848.96,-683.97 856.98,-682.98"/>
<polygon fill="#9a32cd" stroke="#9a32cd" points="69.03,-635.34 58.68,-633.11 65.38,-641.31 69.03,-635.34"/>
</a>
</g>
<text text-anchor="middle" x="449" y="-680.37" font-family="Helvetica,sans-Serif" font-size="10.00" fill="grey"> load_directory_file</text>
</g>
<!-- Node10 -->
<g id="Node000010" class="node">
<title>Node10</title>
<g id="a_Node000010"><a xlink:title=" ">
<polygon fill="white" stroke="#666666" points="970,-161.87 854,-161.87 854,-142.87 970,-142.87 970,-161.87"/>
<text text-anchor="middle" x="912" y="-149.87" font-family="Helvetica,sans-Serif" font-size="10.00">DirectoryCountState</text>
</a>
</g>
</g>
<!-- Node3&#45;&gt;Node10 -->
<g id="edge14_Node000010_Node000003" class="edge">
<title>Node3&#45;&gt;Node10</title>
<g id="a_edge14_Node000010_Node000003"><a xlink:title=" ">
<path fill="none" stroke="#9a32cd" stroke-dasharray="5,2" d="M46.33,-603.87C52.23,-544.22 72.32,-365.44 105,-318.37 139.25,-269.02 164.93,-271.36 220,-247.37 415.7,-162.08 476.8,-159.24 690,-148.37 745.57,-145.53 809.09,-147.19 853.73,-149.16"/>
<polygon fill="#9a32cd" stroke="#9a32cd" points="42.84,-603.56 45.36,-613.85 49.81,-604.23 42.84,-603.56"/>
</a>
</g>
<text text-anchor="middle" x="449" y="-183.37" font-family="Helvetica,sans-Serif" font-size="10.00" fill="grey"> count_file</text>
</g>
<!-- Node12 -->
<g id="Node000012" class="node">
<title>Node12</title>
<g id="a_Node000012"><a xlink:title=" ">
<polygon fill="white" stroke="#666666" points="955.5,-371.87 868.5,-371.87 868.5,-352.87 955.5,-352.87 955.5,-371.87"/>
<text text-anchor="middle" x="912" y="-359.87" font-family="Helvetica,sans-Serif" font-size="10.00">MimeListState</text>
</a>
</g>
</g>
<!-- Node3&#45;&gt;Node12 -->
<g id="edge19_Node000012_Node000003" class="edge">
<title>Node3&#45;&gt;Node12</title>
<g id="a_edge19_Node000012_Node000003"><a xlink:title=" ">
<path fill="none" stroke="#9a32cd" stroke-dasharray="5,2" d="M81.55,-613.1C160.59,-591.41 351.78,-540.08 514,-505.37 583.74,-490.44 607.82,-508.45 672,-477.37 681.63,-472.7 680.76,-466.76 690,-461.37 748.02,-427.5 776.48,-448.69 833,-412.37 842.79,-406.08 841.7,-400.36 851,-393.37 862.43,-384.77 876.6,-377.33 888.29,-371.89"/>
<polygon fill="#9a32cd" stroke="#9a32cd" points="80.31,-609.81 71.6,-615.84 82.17,-616.56 80.31,-609.81"/>
</a>
</g>
<text text-anchor="middle" x="449" y="-532.37" font-family="Helvetica,sans-Serif" font-size="10.00" fill="grey"> mime_list_file</text>
</g>
<!-- Node14 -->
<g id="Node000014" class="node">
<title>Node14</title>
<g id="a_Node000014"><a xlink:title=" ">
<polygon fill="white" stroke="#666666" points="959,-245.87 865,-245.87 865,-226.87 959,-226.87 959,-245.87"/>
<text text-anchor="middle" x="912" y="-233.87" font-family="Helvetica,sans-Serif" font-size="10.00">ThumbnailState</text>
</a>
</g>
</g>
<!-- Node3&#45;&gt;Node14 -->
<g id="edge24_Node000014_Node000003" class="edge">
<title>Node3&#45;&gt;Node14</title>
<g id="a_edge24_Node000014_Node000003"><a xlink:title=" ">
<path fill="none" stroke="#9a32cd" stroke-dasharray="5,2" d="M45.87,-603.6C49.5,-563.04 62.26,-468.84 105,-404.37 141.02,-350.04 162.77,-344.55 220,-313.37 436.76,-195.26 748.16,-216.71 864.67,-230.12"/>
<polygon fill="#9a32cd" stroke="#9a32cd" points="42.36,-603.5 45.05,-613.75 49.34,-604.06 42.36,-603.5"/>
</a>
</g>
<text text-anchor="middle" x="449" y="-249.37" font-family="Helvetica,sans-Serif" font-size="10.00" fill="grey"> file</text>
</g>
<!-- Node15 -->
<g id="Node000015" class="node">
<title>Node15</title>
<g id="a_Node000015"><a xlink:title=" ">
<polygon fill="white" stroke="#666666" points="948.5,-77.87 875.5,-77.87 875.5,-58.87 948.5,-58.87 948.5,-77.87"/>
<text text-anchor="middle" x="912" y="-65.87" font-family="Helvetica,sans-Serif" font-size="10.00">MountState</text>
</a>
</g>
</g>
<!-- Node3&#45;&gt;Node15 -->
<g id="edge27_Node000015_Node000003" class="edge">
<title>Node3&#45;&gt;Node15</title>
<g id="a_edge27_Node000015_Node000003"><a xlink:title=" ">
<path fill="none" stroke="#9a32cd" stroke-dasharray="5,2" d="M45.25,-603.41C48.91,-510.49 66.43,-123.28 105,-87.37 217.94,17.79 734.28,-44.11 875.32,-63.29"/>
<polygon fill="#9a32cd" stroke="#9a32cd" points="41.75,-603.32 44.86,-613.45 48.74,-603.59 41.75,-603.32"/>
</a>
</g>
<text text-anchor="middle" x="449" y="-32.37" font-family="Helvetica,sans-Serif" font-size="10.00" fill="grey"> file</text>
</g>
<!-- Node16 -->
<g id="Node000016" class="node">
<title>Node16</title>
<g id="a_Node000016"><a xlink:title=" ">
<polygon fill="white" stroke="#666666" points="969,-515.87 855,-515.87 855,-496.87 969,-496.87 969,-515.87"/>
<text text-anchor="middle" x="912" y="-503.87" font-family="Helvetica,sans-Serif" font-size="10.00">FilesystemInfoState</text>
</a>
</g>
</g>
<!-- Node3&#45;&gt;Node16 -->
<g id="edge30_Node000016_Node000003" class="edge">
<title>Node3&#45;&gt;Node16</title>
<g id="a_edge30_Node000016_Node000003"><a xlink:title=" ">
<path fill="none" stroke="#9a32cd" stroke-dasharray="5,2" d="M81.86,-621.15C208.73,-613.42 618.22,-586.83 672,-562.37 682.02,-557.81 680.17,-550.31 690,-545.37 718.2,-531.19 799.21,-519.34 854.9,-512.55"/>
<polygon fill="#9a32cd" stroke="#9a32cd" points="81.61,-617.66 71.84,-621.75 82.03,-624.64 81.61,-617.66"/>
</a>
</g>
<text text-anchor="middle" x="449" y="-600.37" font-family="Helvetica,sans-Serif" font-size="10.00" fill="grey"> file</text>
</g>
<!-- Node17 -->
<g id="Node000017" class="node">
<title>Node17</title>
<g id="a_Node000017"><a xlink:title=" ">
<polygon fill="white" stroke="#666666" points="973,-599.87 851,-599.87 851,-580.87 973,-580.87 973,-599.87"/>
<text text-anchor="middle" x="912" y="-587.87" font-family="Helvetica,sans-Serif" font-size="10.00">TopLeftTextReadState</text>
</a>
</g>
</g>
<!-- Node3&#45;&gt;Node17 -->
<g id="edge33_Node000017_Node000003" class="edge">
<title>Node3&#45;&gt;Node17</title>
<g id="a_edge33_Node000017_Node000003"><a xlink:title=" ">
<path fill="none" stroke="#9a32cd" stroke-dasharray="5,2" d="M81.52,-633.18C89.23,-634.87 97.34,-636.4 105,-637.37 285.39,-660.2 332.18,-645.14 514,-647.37 584.22,-648.22 607.12,-674.24 672,-647.37 682.45,-643.04 679.96,-634.59 690,-629.37 717.34,-615.13 795.33,-603.59 850.9,-596.85"/>
<polygon fill="#9a32cd" stroke="#9a32cd" points="82.23,-629.75 71.69,-630.9 80.64,-636.57 82.23,-629.75"/>
</a>
</g>
<text text-anchor="middle" x="449" y="-650.37" font-family="Helvetica,sans-Serif" font-size="10.00" fill="grey"> file</text>
</g>
<!-- Node18 -->
<g id="Node000018" class="node">
<title>Node18</title>
<g id="a_Node000018"><a xlink:title=" ">
<polygon fill="white" stroke="#666666" points="965,-767.87 859,-767.87 859,-748.87 965,-748.87 965,-767.87"/>
<text text-anchor="middle" x="912" y="-755.87" font-family="Helvetica,sans-Serif" font-size="10.00">LinkInfoReadState</text>
</a>
</g>
</g>
<!-- Node3&#45;&gt;Node18 -->
<g id="edge36_Node000018_Node000003" class="edge">
<title>Node3&#45;&gt;Node18</title>
<g id="a_edge36_Node000018_Node000003"><a xlink:title=" ">
<path fill="none" stroke="#9a32cd" stroke-dasharray="5,2" d="M44.94,-643.47C46.95,-679.96 56.99,-756.56 105,-791.37 207.04,-865.33 546.52,-815.08 672,-803.37 743.47,-796.7 825.41,-779.04 872.4,-767.93"/>
<polygon fill="#9a32cd" stroke="#9a32cd" points="48.42,-642.98 44.53,-633.13 41.43,-643.26 48.42,-642.98"/>
</a>
</g>
<text text-anchor="middle" x="449" y="-830.37" font-family="Helvetica,sans-Serif" font-size="10.00" fill="grey"> file</text>
</g>
<!-- Node4 -->
<g id="Node000004" class="node">
<title>Node4</title>
<g id="a_Node000004"><a xlink:href="struct__CajaFilePrivate.html" target="_top" xlink:title=" ">
<polygon fill="white" stroke="#666666" points="959.5,-890.87 864.5,-890.87 864.5,-871.87 959.5,-871.87 959.5,-890.87"/>
<text text-anchor="middle" x="912" y="-878.87" font-family="Helvetica,sans-Serif" font-size="10.00">_CajaFilePrivate</text>
</a>
</g>
</g>
<!-- Node4&#45;&gt;Node3 -->
<g id="edge3_Node000003_Node000004" class="edge">
<title>Node4&#45;&gt;Node3</title>
<g id="a_edge3_Node000003_Node000004"><a xlink:title=" ">
<path fill="none" stroke="#9a32cd" stroke-dasharray="5,2" d="M853.84,-885.68C688.63,-896.87 215.24,-919.51 105,-821.37 47.28,-769.98 43.84,-665.25 44.22,-633.02"/>
<polygon fill="#9a32cd" stroke="#9a32cd" points="854.53,-889.14 864.27,-884.96 854.05,-882.16 854.53,-889.14"/>
</a>
</g>
<text text-anchor="middle" x="449" y="-898.37" font-family="Helvetica,sans-Serif" font-size="10.00" fill="grey"> details</text>
</g>
<!-- Node5 -->
<g id="Node000005" class="node">
<title>Node5</title>
<g id="a_Node000005"><a xlink:href="structCajaDirectory.html" target="_top" xlink:title=" ">
<polygon fill="white" stroke="#666666" points="634.5,-368.87 551.5,-368.87 551.5,-349.87 634.5,-349.87 634.5,-368.87"/>
<text text-anchor="middle" x="593" y="-356.87" font-family="Helvetica,sans-Serif" font-size="10.00">CajaDirectory</text>
</a>
</g>
</g>
<!-- Node5&#45;&gt;Node4 -->
<g id="edge4_Node000004_Node000005" class="edge">
<title>Node5&#45;&gt;Node4</title>
<g id="a_edge4_Node000004_Node000005"><a xlink:title=" ">
<path fill="none" stroke="#9a32cd" stroke-dasharray="5,2" d="M644.5,-365.27C655.11,-368.88 665.14,-374.55 672,-383.37 696.79,-415.24 669.38,-711.65 690,-746.37 731.9,-816.91 826.38,-855.48 877.17,-871.82"/>
<polygon fill="#9a32cd" stroke="#9a32cd" points="645.26,-361.84 634.68,-362.49 643.35,-368.58 645.26,-361.84"/>
</a>
</g>
<text text-anchor="middle" x="761.5" y="-856.37" font-family="Helvetica,sans-Serif" font-size="10.00" fill="grey"> directory</text>
</g>
<!-- Node5&#45;&gt;Node9 -->
<g id="edge10_Node000009_Node000005" class="edge">
<title>Node5&#45;&gt;Node9</title>
<g id="a_edge10_Node000009_Node000005"><a xlink:title=" ">
<path fill="none" stroke="#9a32cd" stroke-dasharray="5,2" d="M644.55,-365.58C655.05,-369.2 665.02,-374.78 672,-383.37 699.44,-417.14 664.48,-543.11 690,-578.37 702.2,-595.22 828.98,-643.88 884.83,-664.71"/>
<polygon fill="#9a32cd" stroke="#9a32cd" points="645.41,-362.19 634.83,-362.79 643.47,-368.92 645.41,-362.19"/>
</a>
</g>
<text text-anchor="middle" x="761.5" y="-647.37" font-family="Helvetica,sans-Serif" font-size="10.00" fill="grey"> directory</text>
</g>
<!-- Node5&#45;&gt;Node10 -->
<g id="edge13_Node000010_Node000005" class="edge">
<title>Node5&#45;&gt;Node10</title>
<g id="a_edge13_Node000010_Node000005"><a xlink:title=" ">
<path fill="none" stroke="#9a32cd" stroke-dasharray="5,2" d="M634.1,-345.78C647.64,-339.53 661.88,-330.88 672,-319.37 687.6,-301.63 674.19,-286.91 690,-269.37 737.24,-216.94 771.09,-234.24 833,-200.37 855.6,-188 880.83,-172.06 896.31,-162.03"/>
<polygon fill="#9a32cd" stroke="#9a32cd" points="632.7,-342.57 624.89,-349.73 635.46,-349 632.7,-342.57"/>
</a>
</g>
<text text-anchor="middle" x="761.5" y="-272.37" font-family="Helvetica,sans-Serif" font-size="10.00" fill="grey"> directory</text>
</g>
<!-- Node11 -->
<g id="Node000011" class="node">
<title>Node11</title>
<g id="a_Node000011"><a xlink:title=" ">
<polygon fill="white" stroke="#666666" points="960,-26.87 864,-26.87 864,-7.87 960,-7.87 960,-26.87"/>
<text text-anchor="middle" x="912" y="-14.87" font-family="Helvetica,sans-Serif" font-size="10.00">DeepCountState</text>
</a>
</g>
</g>
<!-- Node5&#45;&gt;Node11 -->
<g id="edge16_Node000011_Node000005" class="edge">
<title>Node5&#45;&gt;Node11</title>
<g id="a_edge16_Node000011_Node000005"><a xlink:title=" ">
<path fill="none" stroke="#9a32cd" stroke-dasharray="5,2" d="M638.88,-345.74C651.59,-339.69 664.1,-331.17 672,-319.37 699.03,-278.97 660.78,-140.21 690,-101.37 731.09,-46.75 812.21,-27.65 863.92,-20.96"/>
<polygon fill="#9a32cd" stroke="#9a32cd" points="637.45,-342.55 629.66,-349.73 640.23,-348.97 637.45,-342.55"/>
</a>
</g>
<text text-anchor="middle" x="761.5" y="-104.37" font-family="Helvetica,sans-Serif" font-size="10.00" fill="grey"> directory</text>
</g>
<!-- Node5&#45;&gt;Node12 -->
<g id="edge18_Node000012_Node000005" class="edge">
<title>Node5&#45;&gt;Node12</title>
<g id="a_edge18_Node000012_Node000005"><a xlink:title=" ">
<path fill="none" stroke="#9a32cd" stroke-dasharray="5,2" d="M645.12,-359.85C707.1,-360.44 810.44,-361.41 868.34,-361.96"/>
<polygon fill="#9a32cd" stroke="#9a32cd" points="644.83,-356.35 634.79,-359.75 644.76,-363.35 644.83,-356.35"/>
</a>
</g>
<text text-anchor="middle" x="761.5" y="-364.37" font-family="Helvetica,sans-Serif" font-size="10.00" fill="grey"> directory</text>
</g>
<!-- Node13 -->
<g id="Node000013" class="node">
<title>Node13</title>
<g id="a_Node000013"><a xlink:title=" ">
<polygon fill="white" stroke="#666666" points="951,-420.87 873,-420.87 873,-401.87 951,-401.87 951,-420.87"/>
<text text-anchor="middle" x="912" y="-408.87" font-family="Helvetica,sans-Serif" font-size="10.00">GetInfoState</text>
</a>
</g>
</g>
<!-- Node5&#45;&gt;Node13 -->
<g id="edge21_Node000013_Node000005" class="edge">
<title>Node5&#45;&gt;Node13</title>
<g id="a_edge21_Node000013_Node000005"><a xlink:title=" ">
<path fill="none" stroke="#9a32cd" stroke-dasharray="5,2" d="M644.71,-367.31C703.78,-376.58 797.76,-391.4 833,-397.37 846.02,-399.57 860.25,-402.09 872.94,-404.38"/>
<polygon fill="#9a32cd" stroke="#9a32cd" points="645.25,-363.85 634.83,-365.76 644.16,-370.76 645.25,-363.85"/>
</a>
</g>
<text text-anchor="middle" x="761.5" y="-400.37" font-family="Helvetica,sans-Serif" font-size="10.00" fill="grey"> directory</text>
</g>
<!-- Node5&#45;&gt;Node14 -->
<g id="edge23_Node000014_Node000005" class="edge">
<title>Node5&#45;&gt;Node14</title>
<g id="a_edge23_Node000014_Node000005"><a xlink:title=" ">
<path fill="none" stroke="#9a32cd" stroke-dasharray="5,2" d="M644.67,-347.37C693.99,-334.79 770.44,-312.9 833,-284.37 857.02,-273.41 882.68,-256.48 897.76,-245.93"/>
<polygon fill="#9a32cd" stroke="#9a32cd" points="643.72,-344 634.88,-349.83 645.43,-350.79 643.72,-344"/>
</a>
</g>
<text text-anchor="middle" x="761.5" y="-336.37" font-family="Helvetica,sans-Serif" font-size="10.00" fill="grey"> directory</text>
</g>
<!-- Node5&#45;&gt;Node15 -->
<g id="edge26_Node000015_Node000005" class="edge">
<title>Node5&#45;&gt;Node15</title>
<g id="a_edge26_Node000015_Node000005"><a xlink:title=" ">
<path fill="none" stroke="#9a32cd" stroke-dasharray="5,2" d="M637.87,-345.8C650.78,-339.72 663.66,-331.17 672,-319.37 706.68,-270.29 654.73,-234.01 690,-185.37 731.42,-128.24 771.09,-150.24 833,-116.37 855.6,-104 880.83,-88.06 896.31,-78.03"/>
<polygon fill="#9a32cd" stroke="#9a32cd" points="636.34,-342.65 628.53,-349.81 639.1,-349.08 636.34,-342.65"/>
</a>
</g>
<text text-anchor="middle" x="761.5" y="-188.37" font-family="Helvetica,sans-Serif" font-size="10.00" fill="grey"> directory</text>
</g>
<!-- Node5&#45;&gt;Node16 -->
<g id="edge29_Node000016_Node000005" class="edge">
<title>Node5&#45;&gt;Node16</title>
<g id="a_edge29_Node000016_Node000005"><a xlink:title=" ">
<path fill="none" stroke="#9a32cd" stroke-dasharray="5,2" d="M644.44,-369.08C654.22,-372.51 663.92,-377.14 672,-383.37 684.01,-392.63 678.48,-402.49 690,-412.37 720.55,-438.55 830.65,-478.68 882.98,-496.85"/>
<polygon fill="#9a32cd" stroke="#9a32cd" points="645.29,-365.68 634.7,-366.04 643.2,-372.36 645.29,-365.68"/>
</a>
</g>
<text text-anchor="middle" x="761.5" y="-479.37" font-family="Helvetica,sans-Serif" font-size="10.00" fill="grey"> directory</text>
</g>
<!-- Node5&#45;&gt;Node17 -->
<g id="edge32_Node000017_Node000005" class="edge">
<title>Node5&#45;&gt;Node17</title>
<g id="a_edge32_Node000017_Node000005"><a xlink:title=" ">
<path fill="none" stroke="#9a32cd" stroke-dasharray="5,2" d="M644.41,-366.07C654.81,-369.67 664.79,-375.12 672,-383.37 704.04,-419.99 660.26,-452.85 690,-491.37 714.6,-523.23 826.06,-562.82 880.67,-580.75"/>
<polygon fill="#9a32cd" stroke="#9a32cd" points="645.37,-362.71 634.79,-363.26 643.41,-369.42 645.37,-362.71"/>
</a>
</g>
<text text-anchor="middle" x="761.5" y="-566.37" font-family="Helvetica,sans-Serif" font-size="10.00" fill="grey"> directory</text>
</g>
<!-- Node5&#45;&gt;Node18 -->
<g id="edge35_Node000018_Node000005" class="edge">
<title>Node5&#45;&gt;Node18</title>
<g id="a_edge35_Node000018_Node000005"><a xlink:title=" ">
<path fill="none" stroke="#9a32cd" stroke-dasharray="5,2" d="M644.41,-365.34C655.01,-368.96 665.07,-374.6 672,-383.37 710.11,-431.59 654.92,-608.9 690,-659.37 712.91,-692.33 824.66,-731.22 879.92,-748.84"/>
<polygon fill="#9a32cd" stroke="#9a32cd" points="645.16,-361.92 634.59,-362.57 643.26,-368.66 645.16,-361.92"/>
</a>
</g>
<text text-anchor="middle" x="761.5" y="-734.37" font-family="Helvetica,sans-Serif" font-size="10.00" fill="grey"> directory</text>
</g>
<!-- Node6&#45;&gt;Node5 -->
<g id="edge5_Node000005_Node000006" class="edge">
<title>Node6&#45;&gt;Node5</title>
<g id="a_edge5_Node000005_Node000006"><a xlink:title=" ">
<path fill="none" stroke="#9a32cd" stroke-dasharray="5,2" d="M373.76,-338.22C429.59,-343.63 505.47,-350.98 551.47,-355.44"/>
<polygon fill="#9a32cd" stroke="#9a32cd" points="373.87,-334.72 363.58,-337.24 373.2,-341.68 373.87,-334.72"/>
</a>
</g>
<text text-anchor="middle" x="449" y="-352.37" font-family="Helvetica,sans-Serif" font-size="10.00" fill="grey"> details</text>
</g>
<!-- Node7 -->
<g id="Node000007" class="node">
<title>Node7</title>
<g id="a_Node000007"><a xlink:title=" ">
<polygon fill="white" stroke="#666666" points="87,-119.87 0,-119.87 0,-100.87 87,-100.87 87,-119.87"/>
<text text-anchor="middle" x="43.5" y="-107.87" font-family="Helvetica,sans-Serif" font-size="10.00">CajaFileQueue</text>
</a>
</g>
</g>
<!-- Node7&#45;&gt;Node6 -->
<g id="edge7_Node000006_Node000007" class="edge">
<title>Node7&#45;&gt;Node6</title>
<g id="a_edge7_Node000006_Node000007"><a xlink:title=" ">
<path fill="none" stroke="#9a32cd" stroke-dasharray="5,2" d="M63.43,-126.68C113.76,-170.04 249.76,-287.22 289.78,-321.7"/>
<polygon fill="#9a32cd" stroke="#9a32cd" points="65.71,-124.02 55.85,-120.15 61.14,-129.33 65.71,-124.02"/>
</a>
</g>
<text text-anchor="middle" x="153.5" y="-265.37" font-family="Helvetica,sans-Serif" font-size="10.00" fill="grey"> extension_queue</text>
<text text-anchor="middle" x="153.5" y="-254.37" font-family="Helvetica,sans-Serif" font-size="10.00" fill="grey">high_priority_queue</text>
<text text-anchor="middle" x="153.5" y="-243.37" font-family="Helvetica,sans-Serif" font-size="10.00" fill="grey">low_priority_queue</text>
</g>
<!-- Node8 -->
<g id="Node000008" class="node">
<title>Node8</title>
<g id="a_Node000008"><a xlink:title=" ">
<polygon fill="white" stroke="#666666" points="81.5,-82.87 5.5,-82.87 5.5,-63.87 81.5,-63.87 81.5,-82.87"/>
<text text-anchor="middle" x="43.5" y="-70.87" font-family="Helvetica,sans-Serif" font-size="10.00">CajaMonitor</text>
</a>
</g>
</g>
<!-- Node8&#45;&gt;Node6 -->
<g id="edge8_Node000006_Node000008" class="edge">
<title>Node8&#45;&gt;Node6</title>
<g id="a_edge8_Node000006_Node000008"><a xlink:title=" ">
<path fill="none" stroke="#9a32cd" stroke-dasharray="5,2" d="M89.33,-86.15C123.57,-97.79 170.15,-117.85 202,-148.37 257.29,-201.35 288.9,-292.08 298.13,-321.7"/>
<polygon fill="#9a32cd" stroke="#9a32cd" points="90.17,-82.74 79.57,-82.95 87.98,-89.4 90.17,-82.74"/>
</a>
</g>
<text text-anchor="middle" x="153.5" y="-151.37" font-family="Helvetica,sans-Serif" font-size="10.00" fill="grey"> monitor</text>
</g>
<!-- Node9&#45;&gt;Node6 -->
<g id="edge9_Node000006_Node000009" class="edge">
<title>Node9&#45;&gt;Node6</title>
<g id="a_edge9_Node000006_Node000009"><a xlink:title=" ">
<path fill="none" stroke="#9a32cd" stroke-dasharray="5,2" d="M846.76,-679.37C759.28,-682.43 603.38,-673.93 514,-586.37 499.78,-572.44 508.29,-561.02 496,-545.37 463.51,-503.97 438.37,-511.4 402,-473.37 359.63,-429.05 321.92,-365.19 308.35,-341.08"/>
<polygon fill="#9a32cd" stroke="#9a32cd" points="846.97,-682.86 856.82,-678.95 846.69,-675.87 846.97,-682.86"/>
</a>
</g>
<text text-anchor="middle" x="593" y="-666.37" font-family="Helvetica,sans-Serif" font-size="10.00" fill="grey"> directory_load_in_progress</text>
</g>
<!-- Node10&#45;&gt;Node6 -->
<g id="edge12_Node000006_Node000010" class="edge">
<title>Node10&#45;&gt;Node6</title>
<g id="a_edge12_Node000006_Node000010"><a xlink:title=" ">
<path fill="none" stroke="#9a32cd" stroke-dasharray="5,2" d="M843.68,-152.14C799.6,-153.09 740.94,-156.44 690,-166.37 623.78,-179.27 462.29,-232.1 402,-262.37 367.92,-279.47 332.26,-307.13 314.49,-321.69"/>
<polygon fill="#9a32cd" stroke="#9a32cd" points="843.77,-155.64 853.71,-151.96 843.65,-148.64 843.77,-155.64"/>
</a>
</g>
<text text-anchor="middle" x="593" y="-220.37" font-family="Helvetica,sans-Serif" font-size="10.00" fill="grey"> count_in_progress</text>
</g>
<!-- Node11&#45;&gt;Node6 -->
<g id="edge15_Node000006_Node000011" class="edge">
<title>Node11&#45;&gt;Node6</title>
<g id="a_edge15_Node000006_Node000011"><a xlink:title=" ">
<path fill="none" stroke="#9a32cd" stroke-dasharray="5,2" d="M853.95,-7.25C768.92,4.32 608.83,12.1 514,-71.37 490.85,-91.74 517.51,-116.27 496,-138.37 465.6,-169.6 436.44,-139.64 402,-166.37 346.58,-209.37 315.46,-292.85 306.07,-321.46"/>
<polygon fill="#9a32cd" stroke="#9a32cd" points="853.54,-10.73 863.93,-8.68 854.53,-3.8 853.54,-10.73"/>
</a>
</g>
<text text-anchor="middle" x="593" y="-74.37" font-family="Helvetica,sans-Serif" font-size="10.00" fill="grey"> deep_count_in_progress</text>
</g>
<!-- Node12&#45;&gt;Node6 -->
<g id="edge17_Node000006_Node000012" class="edge">
<title>Node12&#45;&gt;Node6</title>
<g id="a_edge17_Node000006_Node000012"><a xlink:title=" ">
<path fill="none" stroke="#9a32cd" stroke-dasharray="5,2" d="M893.17,-345.6C878.35,-332.89 856.02,-316.45 833,-309.37 654.31,-254.4 425.75,-300.44 338.77,-321.86"/>
<polygon fill="#9a32cd" stroke="#9a32cd" points="891.18,-348.52 900.98,-352.56 895.84,-343.29 891.18,-348.52"/>
</a>
</g>
<text text-anchor="middle" x="593" y="-292.37" font-family="Helvetica,sans-Serif" font-size="10.00" fill="grey"> mime_list_in_progress</text>
</g>
<!-- Node13&#45;&gt;Node6 -->
<g id="edge20_Node000006_Node000013" class="edge">
<title>Node13&#45;&gt;Node6</title>
<g id="a_edge20_Node000006_Node000013"><a xlink:title=" ">
<path fill="none" stroke="#9a32cd" stroke-dasharray="5,2" d="M862.97,-412.62C818.14,-413.34 749.42,-413.28 690,-408.37 560.96,-397.68 527.88,-394.73 402,-364.37 376.29,-358.16 347.7,-348.3 327.88,-340.97"/>
<polygon fill="#9a32cd" stroke="#9a32cd" points="863.06,-416.12 872.99,-412.44 862.93,-409.12 863.06,-416.12"/>
</a>
</g>
<text text-anchor="middle" x="593" y="-409.37" font-family="Helvetica,sans-Serif" font-size="10.00" fill="grey"> get_info_in_progress</text>
</g>
<!-- Node14&#45;&gt;Node6 -->
<g id="edge22_Node000006_Node000014" class="edge">
<title>Node14&#45;&gt;Node6</title>
<g id="a_edge22_Node000006_Node000014"><a xlink:title=" ">
<path fill="none" stroke="#9a32cd" stroke-dasharray="5,2" d="M854.65,-235.37C759.31,-235.19 561.04,-241.34 402,-289.37 373.4,-298 341.88,-312.25 322.26,-321.72"/>
<polygon fill="#9a32cd" stroke="#9a32cd" points="854.91,-238.87 864.93,-235.42 854.94,-231.87 854.91,-238.87"/>
</a>
</g>
<text text-anchor="middle" x="593" y="-265.37" font-family="Helvetica,sans-Serif" font-size="10.00" fill="grey"> thumbnail_state</text>
</g>
<!-- Node15&#45;&gt;Node6 -->
<g id="edge25_Node000006_Node000015" class="edge">
<title>Node15&#45;&gt;Node6</title>
<g id="a_edge25_Node000006_Node000015"><a xlink:title=" ">
<path fill="none" stroke="#9a32cd" stroke-dasharray="5,2" d="M865.2,-66.91C820.06,-66.49 749.41,-68.57 690,-82.37 607.51,-101.52 574.23,-95.84 514,-155.37 499.56,-169.64 511.16,-183.86 496,-197.37 463.45,-226.36 439.06,-202.41 402,-225.37 359.4,-251.75 323.21,-301.17 309.2,-321.86"/>
<polygon fill="#9a32cd" stroke="#9a32cd" points="865.22,-70.41 875.27,-67.05 865.32,-63.41 865.22,-70.41"/>
</a>
</g>
<text text-anchor="middle" x="593" y="-158.37" font-family="Helvetica,sans-Serif" font-size="10.00" fill="grey"> mount_state</text>
</g>
<!-- Node16&#45;&gt;Node6 -->
<g id="edge28_Node000006_Node000016" class="edge">
<title>Node16&#45;&gt;Node6</title>
<g id="a_edge28_Node000006_Node000016"><a xlink:title=" ">
<path fill="none" stroke="#9a32cd" stroke-dasharray="5,2" d="M844.51,-506.6C800.3,-505.61 741.17,-502.04 690,-491.37 556.92,-463.61 525.4,-445.4 402,-388.37 370.85,-373.97 336.59,-353 317.65,-340.92"/>
<polygon fill="#9a32cd" stroke="#9a32cd" points="844.5,-510.11 854.56,-506.79 844.63,-503.11 844.5,-510.11"/>
</a>
</g>
<text text-anchor="middle" x="593" y="-489.37" font-family="Helvetica,sans-Serif" font-size="10.00" fill="grey"> filesystem_info_state</text>
</g>
<!-- Node17&#45;&gt;Node6 -->
<g id="edge31_Node000006_Node000017" class="edge">
<title>Node17&#45;&gt;Node6</title>
<g id="a_edge31_Node000006_Node000017"><a xlink:title=" ">
<path fill="none" stroke="#9a32cd" stroke-dasharray="5,2" d="M840.36,-591.94C796.52,-591.44 739.35,-588.08 690,-576.37 548.98,-542.89 514.83,-514.34 402,-423.37 367.29,-395.38 329.57,-358.26 312.43,-340.98"/>
<polygon fill="#9a32cd" stroke="#9a32cd" points="840.61,-595.44 850.63,-592.01 840.65,-588.44 840.61,-595.44"/>
</a>
</g>
<text text-anchor="middle" x="593" y="-574.37" font-family="Helvetica,sans-Serif" font-size="10.00" fill="grey"> top_left_read_state</text>
</g>
<!-- Node18&#45;&gt;Node6 -->
<g id="edge34_Node000006_Node000018" class="edge">
<title>Node18&#45;&gt;Node6</title>
<g id="a_edge34_Node000006_Node000018"><a xlink:title=" ">
<path fill="none" stroke="#9a32cd" stroke-dasharray="5,2" d="M848.5,-759.29C803.87,-758.77 742.66,-755.65 690,-744.37 608.31,-726.87 569.42,-740.88 514,-678.37 491.55,-653.04 519.32,-628.9 496,-604.37 465.97,-572.77 434.25,-605.7 402,-576.37 327.68,-508.76 308.07,-377.53 303.95,-341"/>
<polygon fill="#9a32cd" stroke="#9a32cd" points="848.58,-762.79 858.61,-759.37 848.64,-755.79 848.58,-762.79"/>
</a>
</g>
<text text-anchor="middle" x="593" y="-743.37" font-family="Helvetica,sans-Serif" font-size="10.00" fill="grey"> link_info_read_state</text>
</g>
<!-- Node19 -->
<g id="Node000019" class="node">
<title>Node19</title>
<g id="a_Node000019"><a xlink:href="structCajaFileSortByEmblemCache.html" target="_top" xlink:title=" ">
<polygon fill="white" stroke="#666666" points="672,-928.87 514,-928.87 514,-909.87 672,-909.87 672,-928.87"/>
<text text-anchor="middle" x="593" y="-916.87" font-family="Helvetica,sans-Serif" font-size="10.00">CajaFileSortByEmblemCache</text>
</a>
</g>
</g>
<!-- Node19&#45;&gt;Node4 -->
<g id="edge37_Node000004_Node000019" class="edge">
<title>Node19&#45;&gt;Node4</title>
<g id="a_edge37_Node000004_Node000019"><a xlink:title=" ">
<path fill="none" stroke="#9a32cd" stroke-dasharray="5,2" d="M682.28,-912.15C727.46,-908.03 783.28,-902.31 833,-895.37 843.22,-893.94 854.15,-892.14 864.49,-890.32"/>
<polygon fill="#9a32cd" stroke="#9a32cd" points="681.87,-908.67 672.22,-913.05 682.49,-915.64 681.87,-908.67"/>
</a>
</g>
<text text-anchor="middle" x="761.5" y="-913.37" font-family="Helvetica,sans-Serif" font-size="10.00" fill="grey"> compare_by_emblem_cache</text>
</g>
</g>
</svg>

<g id="navigator" transform="translate(0 0)" fill="#404254">
  <rect fill="#f2f5e9" fill-opacity="0.5" stroke="#606060" stroke-width=".5" x="0" y="0" width="60" height="60"/>
  <use id="zoomplus" xlink:href="#zoomPlus" x="17" y="9" onmousedown="handleZoom(evt,'in')"/>
  <use id="zoomminus" xlink:href="#zoomMin" x="42" y="9" onmousedown="handleZoom(evt,'out')"/>
  <use id="reset" xlink:href="#resetDef" x="30" y="36" onmousedown="handleReset()"/>
   <use id="arrowup" xlink:href="#arrowUp" x="0" y="0" onmousedown="handlePan(0,-1)"/>
  <use id="arrowright" xlink:href="#arrowRight" x="0" y="0" onmousedown="handlePan(1,0)"/>
  <use id="arrowdown" xlink:href="#arrowDown" x="0" y="0" onmousedown="handlePan(0,1)"/>
  <use id="arrowleft" xlink:href="#arrowLeft" x="0" y="0" onmousedown="handlePan(-1,0)"/>
</g>
<svg viewBox="0 0 15 15" width="100%" height="30px" preserveAspectRatio="xMaxYMin meet">
 <g id="arrow_out" transform="scale(0.3 0.3)">
  <a xlink:href="struct__CajaFileConflictDialog__coll__graph_org.svg" target="_base">
   <rect id="button" ry="5" rx="5" y="6" x="6" height="38" width="38"
        fill="#f2f5e9" fill-opacity="0.5" stroke="#606060" stroke-width="1.0"/>
   <path id="arrow"
     d="M 11.500037,31.436501 C 11.940474,20.09759 22.043105,11.32322 32.158766,21.979434 L 37.068811,17.246167 C 37.068811,17.246167 37.088388,32 37.088388,32 L 22.160133,31.978069 C 22.160133,31.978069 26.997745,27.140456 26.997745,27.140456 C 18.528582,18.264221 13.291696,25.230495 11.500037,31.436501 z"
     style="fill:#404040;"/>
  </a>
 </g>
</svg>

<style type='text/css'>
<![CDATA[
[data-mouse-over-selected='false'] { opacity: 0.7; }
[data-mouse-over-selected='true']  { opacity: 1.0; }
]]>
</style>
<script type="application/ecmascript"><![CDATA[
document.addEventListener('DOMContentLoaded', (event) => {
  highlightEdges();
  highlightAdjacentNodes();
});
]]></script>
</svg>
