<?xml version="1.0" encoding="UTF-8" standalone="no"?>
<!DOCTYPE svg PUBLIC "-//W3C//DTD SVG 1.1//EN"
 "http://www.w3.org/Graphics/SVG/1.1/DTD/svg11.dtd">
<!-- Generated by graphviz version 2.43.0 (0)
 -->
<!-- Title: _PulseExtStream Pages: 1 -->
<svg width="1052pt" height="230pt"
 viewBox="0.00 0.00 1052.00 229.50" xmlns="http://www.w3.org/2000/svg" xmlns:xlink="http://www.w3.org/1999/xlink">
<g id="graph0" class="graph" transform="scale(1 1) rotate(0) translate(4 225.5)">
<title>_PulseExtStream</title>
<!-- Node1 -->
<g id="Node000001" class="node">
<title>Node1</title>
<g id="a_Node000001"><a xlink:title=" ">
<polygon fill="#999999" stroke="#666666" points="786,-164 687,-164 687,-145 786,-145 786,-164"/>
<text text-anchor="middle" x="736.5" y="-152" font-family="Helvetica,sans-Serif" font-size="10.00">_PulseExtStream</text>
</a>
</g>
</g>
<!-- Node2 -->
<g id="Node000002" class="node">
<title>Node2</title>
<g id="a_Node000002"><a xlink:href="struct__MateMixerStoredControl.html" target="_top" xlink:title=" ">
<polygon fill="white" stroke="#666666" points="609.5,-146 469.5,-146 469.5,-127 609.5,-127 609.5,-146"/>
<text text-anchor="middle" x="539.5" y="-134" font-family="Helvetica,sans-Serif" font-size="10.00">_MateMixerStoredControl</text>
</a>
</g>
</g>
<!-- Node2&#45;&gt;Node1 -->
<g id="edge1_Node000001_Node000002" class="edge">
<title>Node2&#45;&gt;Node1</title>
<g id="a_edge1_Node000001_Node000002"><a xlink:title=" ">
<path fill="none" stroke="#9a32cd" stroke-dasharray="5,2" d="M619.69,-136.28C634.45,-136.85 649.72,-137.84 664,-139.5 674.58,-140.73 685.92,-142.77 696.37,-144.95"/>
<polygon fill="#9a32cd" stroke="#9a32cd" points="619.68,-132.78 609.57,-135.96 619.45,-139.78 619.68,-132.78"/>
</a>
</g>
<text text-anchor="middle" x="646.5" y="-142.5" font-family="Helvetica,sans-Serif" font-size="10.00" fill="grey"> parent</text>
</g>
<!-- Node3 -->
<g id="Node000003" class="node">
<title>Node3</title>
<g id="a_Node000003"><a xlink:href="struct__MateMixerStreamControl.html" target="_top" xlink:title=" ">
<polygon fill="white" stroke="#666666" points="359.5,-79 215.5,-79 215.5,-60 359.5,-60 359.5,-79"/>
<text text-anchor="middle" x="287.5" y="-67" font-family="Helvetica,sans-Serif" font-size="10.00">_MateMixerStreamControl</text>
</a>
</g>
</g>
<!-- Node3&#45;&gt;Node2 -->
<g id="edge2_Node000002_Node000003" class="edge">
<title>Node3&#45;&gt;Node2</title>
<g id="a_edge2_Node000002_Node000003"><a xlink:title=" ">
<path fill="none" stroke="#9a32cd" stroke-dasharray="5,2" d="M333.96,-81.68C382.44,-94.68 458.23,-114.99 502.66,-126.9"/>
<polygon fill="#9a32cd" stroke="#9a32cd" points="334.62,-78.24 324.05,-79.03 332.81,-85 334.62,-78.24"/>
</a>
</g>
<text text-anchor="middle" x="421.5" y="-114.5" font-family="Helvetica,sans-Serif" font-size="10.00" fill="grey"> object</text>
</g>
<!-- Node6 -->
<g id="Node000006" class="node">
<title>Node6</title>
<g id="a_Node000006"><a xlink:title=" ">
<polygon fill="white" stroke="#666666" points="611,-41 468,-41 468,-22 611,-22 611,-41"/>
<text text-anchor="middle" x="539.5" y="-29" font-family="Helvetica,sans-Serif" font-size="10.00">_MateMixerStreamPrivate</text>
</a>
</g>
</g>
<!-- Node3&#45;&gt;Node6 -->
<g id="edge8_Node000006_Node000003" class="edge">
<title>Node3&#45;&gt;Node6</title>
<g id="a_edge8_Node000006_Node000003"><a xlink:title=" ">
<path fill="none" stroke="#9a32cd" stroke-dasharray="5,2" d="M332.96,-57.35C351.41,-52.71 373.12,-47.75 393,-44.5 417.28,-40.53 444.05,-37.71 467.93,-35.72"/>
<polygon fill="#9a32cd" stroke="#9a32cd" points="331.89,-54.01 323.08,-59.89 333.63,-60.79 331.89,-54.01"/>
</a>
</g>
<text text-anchor="middle" x="421.5" y="-47.5" font-family="Helvetica,sans-Serif" font-size="10.00" fill="grey"> control</text>
</g>
<!-- Node4 -->
<g id="Node000004" class="node">
<title>Node4</title>
<g id="a_Node000004"><a xlink:title=" ">
<polygon fill="white" stroke="#666666" points="1044,-60 865,-60 865,-41 1044,-41 1044,-60"/>
<text text-anchor="middle" x="954.5" y="-48" font-family="Helvetica,sans-Serif" font-size="10.00">_MateMixerStreamControlPrivate</text>
</a>
</g>
</g>
<!-- Node4&#45;&gt;Node3 -->
<g id="edge3_Node000003_Node000004" class="edge">
<title>Node4&#45;&gt;Node3</title>
<g id="a_edge3_Node000003_Node000004"><a xlink:title=" ">
<path fill="none" stroke="#9a32cd" stroke-dasharray="5,2" d="M854.74,-55.21C852.13,-55.31 849.55,-55.41 847,-55.5 672.04,-61.8 466.15,-66.18 359.93,-68.21"/>
<polygon fill="#9a32cd" stroke="#9a32cd" points="855.03,-58.7 864.88,-54.81 854.75,-51.71 855.03,-58.7"/>
</a>
</g>
<text text-anchor="middle" x="646.5" y="-65.5" font-family="Helvetica,sans-Serif" font-size="10.00" fill="grey"> priv</text>
</g>
<!-- Node5 -->
<g id="Node000005" class="node">
<title>Node5</title>
<g id="a_Node000005"><a xlink:href="struct__MateMixerStream.html" target="_top" xlink:title=" ">
<polygon fill="white" stroke="#666666" points="791,-41 682,-41 682,-22 791,-22 791,-41"/>
<text text-anchor="middle" x="736.5" y="-29" font-family="Helvetica,sans-Serif" font-size="10.00">_MateMixerStream</text>
</a>
</g>
</g>
<!-- Node5&#45;&gt;Node4 -->
<g id="edge4_Node000004_Node000005" class="edge">
<title>Node5&#45;&gt;Node4</title>
<g id="a_edge4_Node000004_Node000005"><a xlink:title=" ">
<path fill="none" stroke="#9a32cd" stroke-dasharray="5,2" d="M801.33,-37.11C821.22,-38.86 843.51,-40.83 864.78,-42.7"/>
<polygon fill="#9a32cd" stroke="#9a32cd" points="801.44,-33.61 791.17,-36.22 800.83,-40.58 801.44,-33.61"/>
</a>
</g>
<text text-anchor="middle" x="828" y="-44.5" font-family="Helvetica,sans-Serif" font-size="10.00" fill="grey"> stream</text>
</g>
<!-- Node6&#45;&gt;Node5 -->
<g id="edge5_Node000005_Node000006" class="edge">
<title>Node6&#45;&gt;Node5</title>
<g id="a_edge5_Node000005_Node000006"><a xlink:title=" ">
<path fill="none" stroke="#9a32cd" stroke-dasharray="5,2" d="M621.41,-31.5C641.81,-31.5 663.2,-31.5 681.88,-31.5"/>
<polygon fill="#9a32cd" stroke="#9a32cd" points="621.18,-28 611.18,-31.5 621.18,-35 621.18,-28"/>
</a>
</g>
<text text-anchor="middle" x="646.5" y="-34.5" font-family="Helvetica,sans-Serif" font-size="10.00" fill="grey"> priv</text>
</g>
<!-- Node7 -->
<g id="Node000007" class="node">
<title>Node7</title>
<g id="a_Node000007"><a xlink:href="struct__MateMixerDevice.html" target="_top" xlink:title=" ">
<polygon fill="white" stroke="#666666" points="341,-19 234,-19 234,0 341,0 341,-19"/>
<text text-anchor="middle" x="287.5" y="-7" font-family="Helvetica,sans-Serif" font-size="10.00">_MateMixerDevice</text>
</a>
</g>
</g>
<!-- Node7&#45;&gt;Node6 -->
<g id="edge6_Node000006_Node000007" class="edge">
<title>Node7&#45;&gt;Node6</title>
<g id="a_edge6_Node000006_Node000007"><a xlink:title=" ">
<path fill="none" stroke="#9a32cd" stroke-dasharray="5,2" d="M351.38,-6.59C381.34,-6.05 417.63,-6.61 450,-10.5 468.81,-12.76 489.44,-17.52 506.04,-21.93"/>
<polygon fill="#9a32cd" stroke="#9a32cd" points="350.97,-3.1 341.06,-6.83 351.13,-10.1 350.97,-3.1"/>
</a>
</g>
<text text-anchor="middle" x="421.5" y="-13.5" font-family="Helvetica,sans-Serif" font-size="10.00" fill="grey"> device</text>
</g>
<!-- Node8 -->
<g id="Node000008" class="node">
<title>Node8</title>
<g id="a_Node000008"><a xlink:title=" ">
<polygon fill="white" stroke="#666666" points="142,-19 0,-19 0,0 142,0 142,-19"/>
<text text-anchor="middle" x="71" y="-7" font-family="Helvetica,sans-Serif" font-size="10.00">_MateMixerDevicePrivate</text>
</a>
</g>
</g>
<!-- Node8&#45;&gt;Node7 -->
<g id="edge7_Node000007_Node000008" class="edge">
<title>Node8&#45;&gt;Node7</title>
<g id="a_edge7_Node000007_Node000008"><a xlink:title=" ">
<path fill="none" stroke="#9a32cd" stroke-dasharray="5,2" d="M152.52,-9.5C179.7,-9.5 209.34,-9.5 233.8,-9.5"/>
<polygon fill="#9a32cd" stroke="#9a32cd" points="152.24,-6 142.24,-9.5 152.24,-13 152.24,-6"/>
</a>
</g>
<text text-anchor="middle" x="171" y="-12.5" font-family="Helvetica,sans-Serif" font-size="10.00" fill="grey"> priv</text>
</g>
<!-- Node9 -->
<g id="Node000009" class="node">
<title>Node9</title>
<g id="a_Node000009"><a xlink:title=" ">
<polygon fill="white" stroke="#666666" points="375,-146 200,-146 200,-127 375,-127 375,-146"/>
<text text-anchor="middle" x="287.5" y="-134" font-family="Helvetica,sans-Serif" font-size="10.00">_MateMixerStoredControlPrivate</text>
</a>
</g>
</g>
<!-- Node9&#45;&gt;Node2 -->
<g id="edge9_Node000002_Node000009" class="edge">
<title>Node9&#45;&gt;Node2</title>
<g id="a_edge9_Node000002_Node000009"><a xlink:title=" ">
<path fill="none" stroke="#9a32cd" stroke-dasharray="5,2" d="M385.44,-136.5C413.39,-136.5 443.32,-136.5 469.24,-136.5"/>
<polygon fill="#9a32cd" stroke="#9a32cd" points="385.24,-133 375.24,-136.5 385.24,-140 385.24,-133"/>
</a>
</g>
<text text-anchor="middle" x="421.5" y="-139.5" font-family="Helvetica,sans-Serif" font-size="10.00" fill="grey"> priv</text>
</g>
<!-- Node10 -->
<g id="Node000010" class="node">
<title>Node10</title>
<g id="a_Node000010"><a xlink:title=" ">
<polygon fill="white" stroke="#666666" points="606.5,-183 472.5,-183 472.5,-164 606.5,-164 606.5,-183"/>
<text text-anchor="middle" x="539.5" y="-171" font-family="Helvetica,sans-Serif" font-size="10.00">_PulseExtStreamPrivate</text>
</a>
</g>
</g>
<!-- Node10&#45;&gt;Node1 -->
<g id="edge10_Node000001_Node000010" class="edge">
<title>Node10&#45;&gt;Node1</title>
<g id="a_edge10_Node000001_Node000010"><a xlink:title=" ">
<path fill="none" stroke="#9a32cd" stroke-dasharray="5,2" d="M616.52,-166.09C640.16,-163.79 665.57,-161.31 686.81,-159.24"/>
<polygon fill="#9a32cd" stroke="#9a32cd" points="616.13,-162.61 606.52,-167.07 616.81,-169.58 616.13,-162.61"/>
</a>
</g>
<text text-anchor="middle" x="646.5" y="-168.5" font-family="Helvetica,sans-Serif" font-size="10.00" fill="grey"> priv</text>
</g>
<!-- Node11 -->
<g id="Node000011" class="node">
<title>Node11</title>
<g id="a_Node000011"><a xlink:href="struct__MateMixerAppInfo.html" target="_top" xlink:title=" ">
<polygon fill="white" stroke="#666666" points="343,-183 232,-183 232,-164 343,-164 343,-183"/>
<text text-anchor="middle" x="287.5" y="-171" font-family="Helvetica,sans-Serif" font-size="10.00">_MateMixerAppInfo</text>
</a>
</g>
</g>
<!-- Node11&#45;&gt;Node10 -->
<g id="edge11_Node000010_Node000011" class="edge">
<title>Node11&#45;&gt;Node10</title>
<g id="a_edge11_Node000010_Node000011"><a xlink:title=" ">
<path fill="none" stroke="#9a32cd" stroke-dasharray="5,2" d="M353.1,-173.5C389.63,-173.5 435.22,-173.5 472.05,-173.5"/>
<polygon fill="#9a32cd" stroke="#9a32cd" points="353.05,-170 343.05,-173.5 353.05,-177 353.05,-170"/>
</a>
</g>
<text text-anchor="middle" x="421.5" y="-176.5" font-family="Helvetica,sans-Serif" font-size="10.00" fill="grey"> app_info</text>
</g>
<!-- Node12 -->
<g id="Node000012" class="node">
<title>Node12</title>
<g id="a_Node000012"><a xlink:href="struct__PulseConnection.html" target="_top" xlink:title=" ">
<polygon fill="white" stroke="#666666" points="339,-220 236,-220 236,-201 339,-201 339,-220"/>
<text text-anchor="middle" x="287.5" y="-208" font-family="Helvetica,sans-Serif" font-size="10.00">_PulseConnection</text>
</a>
</g>
</g>
<!-- Node12&#45;&gt;Node10 -->
<g id="edge12_Node000010_Node000012" class="edge">
<title>Node12&#45;&gt;Node10</title>
<g id="a_edge12_Node000010_Node000012"><a xlink:title=" ">
<path fill="none" stroke="#9a32cd" stroke-dasharray="5,2" d="M349.09,-202.1C379.41,-197.83 416.66,-192.51 450,-187.5 459.38,-186.09 469.32,-184.56 479.01,-183.04"/>
<polygon fill="#9a32cd" stroke="#9a32cd" points="348.5,-198.64 339.08,-203.5 349.47,-205.58 348.5,-198.64"/>
</a>
</g>
<text text-anchor="middle" x="421.5" y="-198.5" font-family="Helvetica,sans-Serif" font-size="10.00" fill="grey"> connection</text>
</g>
<!-- Node13 -->
<g id="Node000013" class="node">
<title>Node13</title>
<g id="a_Node000013"><a xlink:title=" ">
<polygon fill="white" stroke="#666666" points="139.5,-220 2.5,-220 2.5,-201 139.5,-201 139.5,-220"/>
<text text-anchor="middle" x="71" y="-208" font-family="Helvetica,sans-Serif" font-size="10.00">_PulseConnectionPrivate</text>
</a>
</g>
</g>
<!-- Node13&#45;&gt;Node12 -->
<g id="edge13_Node000012_Node000013" class="edge">
<title>Node13&#45;&gt;Node12</title>
<g id="a_edge13_Node000012_Node000013"><a xlink:title=" ">
<path fill="none" stroke="#9a32cd" stroke-dasharray="5,2" d="M149.6,-210.5C178.36,-210.5 210.2,-210.5 235.94,-210.5"/>
<polygon fill="#9a32cd" stroke="#9a32cd" points="149.57,-207 139.57,-210.5 149.57,-214 149.57,-207"/>
</a>
</g>
<text text-anchor="middle" x="171" y="-213.5" font-family="Helvetica,sans-Serif" font-size="10.00" fill="grey"> priv</text>
</g>
</g>
</svg>
