<?xml version="1.0" encoding="UTF-8" standalone="no"?>
<!DOCTYPE svg PUBLIC "-//W3C//DTD SVG 1.1//EN"
 "http://www.w3.org/Graphics/SVG/1.1/DTD/svg11.dtd">
<!-- Generated by graphviz version 2.43.0 (0)
 -->
<!-- Title: ProcData Pages: 1 -->
<svg width="484pt" height="266pt"
 viewBox="0.00 0.00 483.50 266.00" xmlns="http://www.w3.org/2000/svg" xmlns:xlink="http://www.w3.org/1999/xlink">

<svg id="main" version="1.1" xmlns="http://www.w3.org/2000/svg" xmlns:xlink="http://www.w3.org/1999/xlink" xml:space="preserve" onload="init(evt)">
<style type="text/css"><![CDATA[
.node, .edge {opacity: 0.7;}
.node.selected, .edge.selected {opacity: 1;}
.edge:hover path { stroke: red; }
.edge:hover polygon { stroke: red; fill: red; }
]]></style>
<script type="application/ecmascript" xlink:href="svg.min.js"/>
<svg id="graph" class="graph">
<g id="graph0" class="graph" transform="scale(1 1) rotate(0) translate(4 262)">
<title>ProcData</title>
<!-- Node1 -->
<g id="Node000001" class="node">
<title>Node1</title>
<g id="a_Node000001"><a xlink:title=" ">
<polygon fill="#999999" stroke="#666666" points="233.5,-19 172.5,-19 172.5,0 233.5,0 233.5,-19"/>
<text text-anchor="middle" x="203" y="-7" font-family="Helvetica,sans-Serif" font-size="10.00">ProcData</text>
</a>
</g>
</g>
<!-- Node2 -->
<g id="Node000002" class="node">
<title>Node2</title>
<g id="a_Node000002"><a xlink:href="structProcConfig.html" target="_top" xlink:title=" ">
<polygon fill="white" stroke="#666666" points="68,-107 0,-107 0,-88 68,-88 68,-107"/>
<text text-anchor="middle" x="34" y="-95" font-family="Helvetica,sans-Serif" font-size="10.00">ProcConfig</text>
</a>
</g>
</g>
<!-- Node2&#45;&gt;Node1 -->
<g id="edge1_Node000001_Node000002" class="edge">
<title>Node2&#45;&gt;Node1</title>
<g id="a_edge1_Node000001_Node000002"><a xlink:title=" ">
<path fill="none" stroke="#9a32cd" stroke-dasharray="5,2" d="M44.95,-79.19C54.44,-65.65 69.39,-47.41 87,-37 113.23,-21.5 147.74,-15.06 172.29,-12.39"/>
<polygon fill="#9a32cd" stroke="#9a32cd" points="41.94,-77.41 39.29,-87.67 47.76,-81.3 41.94,-77.41"/>
</a>
</g>
<text text-anchor="middle" x="103.5" y="-51" font-family="Helvetica,sans-Serif" font-size="10.00" fill="grey"> config</text>
</g>
<!-- Node3 -->
<g id="Node000003" class="node">
<title>Node3</title>
<g id="a_Node000003"><a xlink:href="structLoadGraph.html" target="_top" xlink:title=" ">
<polygon fill="white" stroke="#666666" points="155.5,-107 86.5,-107 86.5,-88 155.5,-88 155.5,-107"/>
<text text-anchor="middle" x="121" y="-95" font-family="Helvetica,sans-Serif" font-size="10.00">LoadGraph</text>
</a>
</g>
</g>
<!-- Node3&#45;&gt;Node1 -->
<g id="edge2_Node000001_Node000003" class="edge">
<title>Node3&#45;&gt;Node1</title>
<g id="a_edge2_Node000001_Node000003"><a xlink:title=" ">
<path fill="none" stroke="#9a32cd" stroke-dasharray="5,2" d="M122.52,-77.6C124.47,-64.76 128.91,-48.14 139,-37 147.72,-27.37 160.47,-21.15 172.3,-17.18"/>
<polygon fill="#9a32cd" stroke="#9a32cd" points="119.03,-77.36 121.37,-87.69 125.98,-78.15 119.03,-77.36"/>
</a>
</g>
<text text-anchor="middle" x="168.5" y="-62" font-family="Helvetica,sans-Serif" font-size="10.00" fill="grey"> cpu_graph</text>
<text text-anchor="middle" x="168.5" y="-51" font-family="Helvetica,sans-Serif" font-size="10.00" fill="grey">mem_graph</text>
<text text-anchor="middle" x="168.5" y="-40" font-family="Helvetica,sans-Serif" font-size="10.00" fill="grey">net_graph</text>
</g>
<!-- Node4 -->
<g id="Node000004" class="node">
<title>Node4</title>
<g id="a_Node000004"><a xlink:href="structLoadGraphLabels.html" target="_top" xlink:title=" ">
<polygon fill="white" stroke="#666666" points="163.5,-181 62.5,-181 62.5,-162 163.5,-162 163.5,-181"/>
<text text-anchor="middle" x="113" y="-169" font-family="Helvetica,sans-Serif" font-size="10.00">LoadGraphLabels</text>
</a>
</g>
</g>
<!-- Node4&#45;&gt;Node3 -->
<g id="edge3_Node000003_Node000004" class="edge">
<title>Node4&#45;&gt;Node3</title>
<g id="a_edge3_Node000003_Node000004"><a xlink:title=" ">
<path fill="none" stroke="#9a32cd" stroke-dasharray="5,2" d="M115.09,-151.66C116.7,-137.21 118.84,-117.96 120.05,-107.03"/>
<polygon fill="#9a32cd" stroke="#9a32cd" points="111.57,-151.63 113.95,-161.96 118.53,-152.41 111.57,-151.63"/>
</a>
</g>
<text text-anchor="middle" x="134.5" y="-132" font-family="Helvetica,sans-Serif" font-size="10.00" fill="grey"> labels</text>
</g>
<!-- Node5 -->
<g id="Node000005" class="node">
<title>Node5</title>
<g id="a_Node000005"><a xlink:href="classProcInfo.html" target="_top" xlink:title=" ">
<polygon fill="white" stroke="#666666" points="238,-107 182,-107 182,-88 238,-88 238,-107"/>
<text text-anchor="middle" x="210" y="-95" font-family="Helvetica,sans-Serif" font-size="10.00">ProcInfo</text>
</a>
</g>
</g>
<!-- Node5&#45;&gt;Node1 -->
<g id="edge4_Node000001_Node000005" class="edge">
<title>Node5&#45;&gt;Node1</title>
<g id="a_edge4_Node000001_Node000005"><a xlink:title=" ">
<path fill="none" stroke="#9a32cd" stroke-dasharray="5,2" d="M205.26,-77.76C204.75,-75.17 204.3,-72.53 204,-70 201.83,-51.95 202.17,-30.59 202.6,-19.01"/>
<polygon fill="#9a32cd" stroke="#9a32cd" points="201.9,-78.78 207.54,-87.75 208.72,-77.22 201.9,-78.78"/>
</a>
</g>
<text text-anchor="middle" x="248" y="-51" font-family="Helvetica,sans-Serif" font-size="10.00" fill="grey"> selected_process</text>
</g>
<!-- Node6 -->
<g id="Node000006" class="node">
<title>Node6</title>
<g id="a_Node000006"><a xlink:href="structMutableProcInfo.html" target="_top" xlink:title=" ">
<polygon fill="white" stroke="#666666" points="278,-181 182,-181 182,-162 278,-162 278,-181"/>
<text text-anchor="middle" x="230" y="-169" font-family="Helvetica,sans-Serif" font-size="10.00">MutableProcInfo</text>
</a>
</g>
</g>
<!-- Node6&#45;&gt;Node5 -->
<g id="edge5_Node000005_Node000006" class="edge">
<title>Node6&#45;&gt;Node5</title>
<g id="a_edge5_Node000005_Node000006"><a xlink:title=" ">
<path fill="none" stroke="#63b8ff" d="M224.88,-152.08C220.86,-137.59 215.44,-118.07 212.37,-107.03"/>
<polygon fill="#63b8ff" stroke="#63b8ff" points="221.58,-153.26 227.63,-161.96 228.32,-151.39 221.58,-153.26"/>
</a>
</g>
</g>
<!-- Node7 -->
<g id="Node000007" class="node">
<title>Node7</title>
<g id="a_Node000007"><a xlink:title=" ">
<polygon fill="white" stroke="#666666" points="290,-258 246,-258 246,-239 290,-239 290,-258"/>
<text text-anchor="middle" x="268" y="-246" font-family="Helvetica,sans-Serif" font-size="10.00">string</text>
</a>
</g>
</g>
<!-- Node7&#45;&gt;Node6 -->
<g id="edge6_Node000006_Node000007" class="edge">
<title>Node7&#45;&gt;Node6</title>
<g id="a_edge6_Node000006_Node000007"><a xlink:title=" ">
<path fill="none" stroke="#9a32cd" stroke-dasharray="5,2" d="M255.85,-230.72C253.78,-227.56 251.74,-224.23 250,-221 242.83,-207.69 236.55,-191.25 233.02,-181.33"/>
<polygon fill="#9a32cd" stroke="#9a32cd" points="252.97,-232.71 261.53,-238.95 258.73,-228.73 252.97,-232.71"/>
</a>
</g>
<text text-anchor="middle" x="267" y="-213" font-family="Helvetica,sans-Serif" font-size="10.00" fill="grey"> owner</text>
<text text-anchor="middle" x="267" y="-202" font-family="Helvetica,sans-Serif" font-size="10.00" fill="grey">user</text>
</g>
<!-- Node9 -->
<g id="Node000009" class="node">
<title>Node9</title>
<g id="a_Node000009"><a xlink:href="classSmoothRefresh.html" target="_top" xlink:title=" ">
<polygon fill="white" stroke="#666666" points="352,-144 260,-144 260,-125 352,-125 352,-144"/>
<text text-anchor="middle" x="306" y="-132" font-family="Helvetica,sans-Serif" font-size="10.00">SmoothRefresh</text>
</a>
</g>
</g>
<!-- Node7&#45;&gt;Node9 -->
<g id="edge9_Node000009_Node000007" class="edge">
<title>Node7&#45;&gt;Node9</title>
<g id="a_edge9_Node000009_Node000007"><a xlink:title=" ">
<path fill="none" stroke="#9a32cd" stroke-dasharray="5,2" d="M279.57,-229.92C281.21,-227.01 282.75,-223.98 284,-221 295.33,-194.01 302,-159.7 304.66,-144.02"/>
<polygon fill="#9a32cd" stroke="#9a32cd" points="276.54,-228.17 274.32,-238.53 282.52,-231.82 276.54,-228.17"/>
</a>
</g>
<text text-anchor="middle" x="302" y="-207.5" font-family="Helvetica,sans-Serif" font-size="10.00" fill="grey"> KEY</text>
</g>
<!-- Node8 -->
<g id="Node000008" class="node">
<title>Node8</title>
<g id="a_Node000008"><a xlink:href="classPrettyTable.html" target="_top" xlink:title=" ">
<polygon fill="white" stroke="#666666" points="475.5,-107 404.5,-107 404.5,-88 475.5,-88 475.5,-107"/>
<text text-anchor="middle" x="440" y="-95" font-family="Helvetica,sans-Serif" font-size="10.00">PrettyTable</text>
</a>
</g>
</g>
<!-- Node8&#45;&gt;Node1 -->
<g id="edge7_Node000001_Node000008" class="edge">
<title>Node8&#45;&gt;Node1</title>
<g id="a_edge7_Node000001_Node000008"><a xlink:title=" ">
<path fill="none" stroke="#9a32cd" stroke-dasharray="5,2" d="M416.41,-82.7C392.73,-69.36 354.86,-49.39 320,-37 291.54,-26.89 257.79,-19.73 233.87,-15.42"/>
<polygon fill="#9a32cd" stroke="#9a32cd" points="414.93,-85.88 425.35,-87.8 418.4,-79.8 414.93,-85.88"/>
</a>
</g>
<text text-anchor="middle" x="423.5" y="-51" font-family="Helvetica,sans-Serif" font-size="10.00" fill="grey"> pretty_table</text>
</g>
<!-- Node9&#45;&gt;Node1 -->
<g id="edge8_Node000001_Node000009" class="edge">
<title>Node9&#45;&gt;Node1</title>
<g id="a_edge8_Node000001_Node000009"><a xlink:title=" ">
<path fill="none" stroke="#9a32cd" stroke-dasharray="5,2" d="M308.77,-114.7C310.81,-93.28 310.58,-58.5 292,-37 277.66,-20.41 253.44,-13.97 233.88,-11.57"/>
<polygon fill="#9a32cd" stroke="#9a32cd" points="305.28,-114.44 307.54,-124.79 312.23,-115.29 305.28,-114.44"/>
</a>
</g>
<text text-anchor="middle" x="349" y="-95" font-family="Helvetica,sans-Serif" font-size="10.00" fill="grey"> smooth_refresh</text>
</g>
</g>
</svg>
</svg>

<style type='text/css'>
<![CDATA[
[data-mouse-over-selected='false'] { opacity: 0.7; }
[data-mouse-over-selected='true']  { opacity: 1.0; }
]]>
</style>
<script type="application/ecmascript"><![CDATA[
document.addEventListener('DOMContentLoaded', (event) => {
  highlightEdges();
  highlightAdjacentNodes();
});
]]></script>
</svg>
