<?xml version="1.0" encoding="UTF-8" standalone="no"?>
<!DOCTYPE svg PUBLIC "-//W3C//DTD SVG 1.1//EN"
 "http://www.w3.org/Graphics/SVG/1.1/DTD/svg11.dtd">
<!-- Generated by graphviz version 2.43.0 (0)
 -->
<!-- Title: _WeatherInfo Pages: 1 -->
<svg width="244pt" height="93pt"
 viewBox="0.00 0.00 244.00 93.00" xmlns="http://www.w3.org/2000/svg" xmlns:xlink="http://www.w3.org/1999/xlink">
<g id="graph0" class="graph" transform="scale(1 1) rotate(0) translate(4 89)">
<title>_WeatherInfo</title>
<!-- Node1 -->
<g id="Node000001" class="node">
<title>Node1</title>
<g id="a_Node000001"><a xlink:title=" ">
<polygon fill="#999999" stroke="#666666" points="155.5,-19 74.5,-19 74.5,0 155.5,0 155.5,-19"/>
<text text-anchor="middle" x="115" y="-7" font-family="Helvetica,sans-Serif" font-size="10.00">_WeatherInfo</text>
</a>
</g>
</g>
<!-- Node1&#45;&gt;Node1 -->
<g id="edge3_Node000001_Node000001" class="edge">
<title>Node1&#45;&gt;Node1</title>
<g id="a_edge3_Node000001_Node000001"><a xlink:title=" ">
<path fill="none" stroke="#9a32cd" stroke-dasharray="5,2" d="M165.82,-14.29C170.53,-13.31 173.5,-11.71 173.5,-9.5 173.5,-5.97 165.9,-4 155.73,-3.58"/>
<polygon fill="#9a32cd" stroke="#9a32cd" points="165.29,-10.83 155.73,-15.42 166.06,-17.79 165.29,-10.83"/>
</a>
</g>
<text text-anchor="middle" x="196.5" y="-7" font-family="Helvetica,sans-Serif" font-size="10.00" fill="grey"> finish_cb</text>
</g>
<!-- Node2 -->
<g id="Node000002" class="node">
<title>Node2</title>
<g id="a_Node000002"><a xlink:href="struct__WeatherLocation.html" target="_top" xlink:title=" ">
<polygon fill="white" stroke="#666666" points="104,-85 0,-85 0,-66 104,-66 104,-85"/>
<text text-anchor="middle" x="52" y="-73" font-family="Helvetica,sans-Serif" font-size="10.00">_WeatherLocation</text>
</a>
</g>
</g>
<!-- Node2&#45;&gt;Node1 -->
<g id="edge1_Node000001_Node000002" class="edge">
<title>Node2&#45;&gt;Node1</title>
<g id="a_edge1_Node000001_Node000002"><a xlink:title=" ">
<path fill="none" stroke="#9a32cd" stroke-dasharray="5,2" d="M67.77,-58.48C79.94,-46.12 96.31,-29.49 106.23,-19.41"/>
<polygon fill="#9a32cd" stroke="#9a32cd" points="65.02,-56.29 60.5,-65.87 70.01,-61.2 65.02,-56.29"/>
</a>
</g>
<text text-anchor="middle" x="109.5" y="-40" font-family="Helvetica,sans-Serif" font-size="10.00" fill="grey"> location</text>
</g>
<!-- Node3 -->
<g id="Node000003" class="node">
<title>Node3</title>
<g id="a_Node000003"><a xlink:href="struct__WeatherConditions.html" target="_top" xlink:title=" ">
<polygon fill="white" stroke="#666666" points="236,-85 122,-85 122,-66 236,-66 236,-85"/>
<text text-anchor="middle" x="179" y="-73" font-family="Helvetica,sans-Serif" font-size="10.00">_WeatherConditions</text>
</a>
</g>
</g>
<!-- Node3&#45;&gt;Node1 -->
<g id="edge2_Node000001_Node000003" class="edge">
<title>Node3&#45;&gt;Node1</title>
<g id="a_edge2_Node000001_Node000003"><a xlink:title=" ">
<path fill="none" stroke="#9a32cd" stroke-dasharray="5,2" d="M162.98,-58.48C150.62,-46.12 133.99,-29.49 123.91,-19.41"/>
<polygon fill="#9a32cd" stroke="#9a32cd" points="160.82,-61.27 170.37,-65.87 165.77,-56.32 160.82,-61.27"/>
</a>
</g>
<text text-anchor="middle" x="163.5" y="-40" font-family="Helvetica,sans-Serif" font-size="10.00" fill="grey"> cond</text>
</g>
</g>
</svg>
