<?xml version="1.0" encoding="UTF-8" standalone="no"?>
<!DOCTYPE svg PUBLIC "-//W3C//DTD SVG 1.1//EN"
 "http://www.w3.org/Graphics/SVG/1.1/DTD/svg11.dtd">
<!-- Generated by graphviz version 2.43.0 (0)
 -->
<!-- Title: _PulseBackend Pages: 1 -->
<!--zoomable 236 -->

<svg id="main" version="1.1" xmlns="http://www.w3.org/2000/svg" xmlns:xlink="http://www.w3.org/1999/xlink" xml:space="preserve" onload="init(evt)">
<style type="text/css"><![CDATA[
.node, .edge {opacity: 0.7;}
.node.selected, .edge.selected {opacity: 1;}
.edge:hover path { stroke: red; }
.edge:hover polygon { stroke: red; fill: red; }
]]></style>

<defs>
  <circle id="rim" cx="0" cy="0" r="7"/>
  <circle id="rim2" cx="0" cy="0" r="3.5"/>
  <g id="zoomPlus">
    <use xlink:href="#rim" fill="#404040"><set attributeName="fill" to="#808080" begin="zoomplus.mouseover" end="zoomplus.mouseout"/></use>
    <path d="M-4,0h8M0,-4v8" fill="none" stroke="white" stroke-width="1.5" pointer-events="none"/>
  </g>
  <g id="zoomMin">
    <use xlink:href="#rim" fill="#404040"><set attributeName="fill" to="#808080" begin="zoomminus.mouseover" end="zoomminus.mouseout"/></use>
    <path d="M-4,0h8" fill="none" stroke="white" stroke-width="1.5" pointer-events="none"/>
  </g>
  <g id="arrowUp" transform="translate(30 24)">
    <use xlink:href="#rim"/>
    <path pointer-events="none" fill="none" stroke="white" stroke-width="1.5" d="M0,-3.0v7 M-2.5,-0.5L0,-3.0L2.5,-0.5"/>
  </g>
  <g id="arrowRight" transform="rotate(90) translate(36 -43)">
    <use xlink:href="#rim"/>
    <path pointer-events="none" fill="none" stroke="white" stroke-width="1.5" d="M0,-3.0v7 M-2.5,-0.5L0,-3.0L2.5,-0.5"/>
  </g>
  <g id="arrowDown" transform="rotate(180) translate(-30 -48)">
    <use xlink:href="#rim"/>
    <path pointer-events="none" fill="none" stroke="white" stroke-width="1.5" d="M0,-3.0v7 M-2.5,-0.5L0,-3.0L2.5,-0.5"/>
  </g>
  <g id="arrowLeft" transform="rotate(270) translate(-36 17)">
    <use xlink:href="#rim"/>
    <path pointer-events="none" fill="none" stroke="white" stroke-width="1.5" d="M0,-3.0v7 M-2.5,-0.5L0,-3.0L2.5,-0.5"/>
  </g>
  <g id="resetDef">
    <use xlink:href="#rim2" fill="#404040"><set attributeName="fill" to="#808080" begin="reset.mouseover" end="reset.mouseout"/></use>
  </g>
</defs>
<script type="application/ecmascript">
var viewWidth = 819;
var viewHeight = 236;
var sectionId = 'dynsection-0';
</script>
<script type="application/ecmascript" xlink:href="svg.min.js"/>
<svg id="graph" class="graph">
<g id="viewport">
<title>_PulseBackend</title>
<!-- Node1 -->
<g id="Node000001" class="node">
<title>Node1</title>
<g id="a_Node000001"><a xlink:title=" ">
<polygon fill="#999999" stroke="#666666" points="592,-19 503,-19 503,0 592,0 592,-19"/>
<text text-anchor="middle" x="547.5" y="-7" font-family="Helvetica,sans-Serif" font-size="10.00">_PulseBackend</text>
</a>
</g>
</g>
<!-- Node2 -->
<g id="Node000002" class="node">
<title>Node2</title>
<g id="a_Node000002"><a xlink:href="struct__MateMixerBackend.html" target="_top" xlink:title=" ">
<polygon fill="white" stroke="#666666" points="534,-85 419,-85 419,-66 534,-66 534,-85"/>
<text text-anchor="middle" x="476.5" y="-73" font-family="Helvetica,sans-Serif" font-size="10.00">_MateMixerBackend</text>
</a>
</g>
</g>
<!-- Node2&#45;&gt;Node1 -->
<g id="edge1_Node000001_Node000002" class="edge">
<title>Node2&#45;&gt;Node1</title>
<g id="a_edge1_Node000001_Node000002"><a xlink:title=" ">
<path fill="none" stroke="#9a32cd" stroke-dasharray="5,2" d="M493.88,-58.83C507.63,-46.44 526.33,-29.59 537.62,-19.41"/>
<polygon fill="#9a32cd" stroke="#9a32cd" points="491.16,-56.57 486.08,-65.87 495.85,-61.77 491.16,-56.57"/>
</a>
</g>
<text text-anchor="middle" x="534" y="-40" font-family="Helvetica,sans-Serif" font-size="10.00" fill="grey"> parent</text>
</g>
<!-- Node3 -->
<g id="Node000003" class="node">
<title>Node3</title>
<g id="a_Node000003"><a xlink:title=" ">
<polygon fill="white" stroke="#666666" points="544,-151 395,-151 395,-132 544,-132 544,-151"/>
<text text-anchor="middle" x="469.5" y="-139" font-family="Helvetica,sans-Serif" font-size="10.00">_MateMixerBackendPrivate</text>
</a>
</g>
</g>
<!-- Node3&#45;&gt;Node2 -->
<g id="edge2_Node000002_Node000003" class="edge">
<title>Node3&#45;&gt;Node2</title>
<g id="a_edge2_Node000002_Node000003"><a xlink:title=" ">
<path fill="none" stroke="#9a32cd" stroke-dasharray="5,2" d="M471.57,-121.58C472.88,-109.63 474.51,-94.72 475.53,-85.41"/>
<polygon fill="#9a32cd" stroke="#9a32cd" points="468.05,-121.55 470.44,-131.87 475.01,-122.31 468.05,-121.55"/>
</a>
</g>
<text text-anchor="middle" x="484.5" y="-106" font-family="Helvetica,sans-Serif" font-size="10.00" fill="grey"> priv</text>
</g>
<!-- Node4 -->
<g id="Node000004" class="node">
<title>Node4</title>
<g id="a_Node000004"><a xlink:href="struct__MateMixerStream.html" target="_top" xlink:title=" ">
<polygon fill="white" stroke="#666666" points="422,-228 313,-228 313,-209 422,-209 422,-228"/>
<text text-anchor="middle" x="367.5" y="-216" font-family="Helvetica,sans-Serif" font-size="10.00">_MateMixerStream</text>
</a>
</g>
</g>
<!-- Node4&#45;&gt;Node3 -->
<g id="edge3_Node000003_Node000004" class="edge">
<title>Node4&#45;&gt;Node3</title>
<g id="a_edge3_Node000003_Node000004"><a xlink:title=" ">
<path fill="none" stroke="#9a32cd" stroke-dasharray="5,2" d="M387.43,-202.85C408.43,-187.4 440.8,-163.6 457.94,-151"/>
<polygon fill="#9a32cd" stroke="#9a32cd" points="385.18,-200.15 379.2,-208.9 389.33,-205.79 385.18,-200.15"/>
</a>
</g>
<text text-anchor="middle" x="467.5" y="-183" font-family="Helvetica,sans-Serif" font-size="10.00" fill="grey"> default_input</text>
<text text-anchor="middle" x="467.5" y="-172" font-family="Helvetica,sans-Serif" font-size="10.00" fill="grey">default_output</text>
</g>
<!-- Node9 -->
<g id="Node000009" class="node">
<title>Node9</title>
<g id="a_Node000009"><a xlink:title=" ">
<polygon fill="white" stroke="#666666" points="179,-151 0,-151 0,-132 179,-132 179,-151"/>
<text text-anchor="middle" x="89.5" y="-139" font-family="Helvetica,sans-Serif" font-size="10.00">_MateMixerStreamControlPrivate</text>
</a>
</g>
</g>
<!-- Node4&#45;&gt;Node9 -->
<g id="edge9_Node000009_Node000004" class="edge">
<title>Node4&#45;&gt;Node9</title>
<g id="a_edge9_Node000009_Node000004"><a xlink:title=" ">
<path fill="none" stroke="#9a32cd" stroke-dasharray="5,2" d="M325.94,-206.29C269.93,-191.18 171.44,-164.61 121.09,-151.02"/>
<polygon fill="#9a32cd" stroke="#9a32cd" points="325.31,-209.74 335.88,-208.97 327.14,-202.99 325.31,-209.74"/>
</a>
</g>
<text text-anchor="middle" x="281.5" y="-177.5" font-family="Helvetica,sans-Serif" font-size="10.00" fill="grey"> stream</text>
</g>
<!-- Node5 -->
<g id="Node000005" class="node">
<title>Node5</title>
<g id="a_Node000005"><a xlink:title=" ">
<polygon fill="white" stroke="#666666" points="340,-19 197,-19 197,0 340,0 340,-19"/>
<text text-anchor="middle" x="268.5" y="-7" font-family="Helvetica,sans-Serif" font-size="10.00">_MateMixerStreamPrivate</text>
</a>
</g>
</g>
<!-- Node5&#45;&gt;Node4 -->
<g id="edge4_Node000004_Node000005" class="edge">
<title>Node5&#45;&gt;Node4</title>
<g id="a_edge4_Node000004_Node000005"><a xlink:title=" ">
<path fill="none" stroke="#9a32cd" stroke-dasharray="5,2" d="M292.99,-24.83C298.36,-28.48 303.83,-32.62 308.5,-37 320.3,-48.07 323.35,-51.49 330.5,-66 355.38,-116.52 364.26,-184.96 366.71,-208.85"/>
<polygon fill="#9a32cd" stroke="#9a32cd" points="294.51,-21.65 284.2,-19.2 290.73,-27.54 294.51,-21.65"/>
</a>
</g>
<text text-anchor="middle" x="360.5" y="-106" font-family="Helvetica,sans-Serif" font-size="10.00" fill="grey"> priv</text>
</g>
<!-- Node6 -->
<g id="Node000006" class="node">
<title>Node6</title>
<g id="a_Node000006"><a xlink:href="struct__MateMixerDevice.html" target="_top" xlink:title=" ">
<polygon fill="white" stroke="#666666" points="322,-85 215,-85 215,-66 322,-66 322,-85"/>
<text text-anchor="middle" x="268.5" y="-73" font-family="Helvetica,sans-Serif" font-size="10.00">_MateMixerDevice</text>
</a>
</g>
</g>
<!-- Node6&#45;&gt;Node5 -->
<g id="edge5_Node000005_Node000006" class="edge">
<title>Node6&#45;&gt;Node5</title>
<g id="a_edge5_Node000005_Node000006"><a xlink:title=" ">
<path fill="none" stroke="#9a32cd" stroke-dasharray="5,2" d="M268.5,-55.58C268.5,-43.63 268.5,-28.72 268.5,-19.41"/>
<polygon fill="#9a32cd" stroke="#9a32cd" points="265,-55.87 268.5,-65.87 272,-55.87 265,-55.87"/>
</a>
</g>
<text text-anchor="middle" x="286.5" y="-40" font-family="Helvetica,sans-Serif" font-size="10.00" fill="grey"> device</text>
</g>
<!-- Node7 -->
<g id="Node000007" class="node">
<title>Node7</title>
<g id="a_Node000007"><a xlink:title=" ">
<polygon fill="white" stroke="#666666" points="339.5,-151 197.5,-151 197.5,-132 339.5,-132 339.5,-151"/>
<text text-anchor="middle" x="268.5" y="-139" font-family="Helvetica,sans-Serif" font-size="10.00">_MateMixerDevicePrivate</text>
</a>
</g>
</g>
<!-- Node7&#45;&gt;Node6 -->
<g id="edge6_Node000006_Node000007" class="edge">
<title>Node7&#45;&gt;Node6</title>
<g id="a_edge6_Node000006_Node000007"><a xlink:title=" ">
<path fill="none" stroke="#9a32cd" stroke-dasharray="5,2" d="M268.5,-121.58C268.5,-109.63 268.5,-94.72 268.5,-85.41"/>
<polygon fill="#9a32cd" stroke="#9a32cd" points="265,-121.87 268.5,-131.87 272,-121.87 265,-121.87"/>
</a>
</g>
<text text-anchor="middle" x="279.5" y="-106" font-family="Helvetica,sans-Serif" font-size="10.00" fill="grey"> priv</text>
</g>
<!-- Node8 -->
<g id="Node000008" class="node">
<title>Node8</title>
<g id="a_Node000008"><a xlink:href="struct__MateMixerStreamControl.html" target="_top" xlink:title=" ">
<polygon fill="white" stroke="#666666" points="187.5,-85 43.5,-85 43.5,-66 187.5,-66 187.5,-85"/>
<text text-anchor="middle" x="115.5" y="-73" font-family="Helvetica,sans-Serif" font-size="10.00">_MateMixerStreamControl</text>
</a>
</g>
</g>
<!-- Node8&#45;&gt;Node5 -->
<g id="edge7_Node000005_Node000008" class="edge">
<title>Node8&#45;&gt;Node5</title>
<g id="a_edge7_Node000005_Node000008"><a xlink:title=" ">
<path fill="none" stroke="#9a32cd" stroke-dasharray="5,2" d="M145.72,-61.86C175.87,-49.25 221.39,-30.21 247.7,-19.2"/>
<polygon fill="#9a32cd" stroke="#9a32cd" points="144.01,-58.78 136.13,-65.87 146.71,-65.24 144.01,-58.78"/>
</a>
</g>
<text text-anchor="middle" x="220" y="-40" font-family="Helvetica,sans-Serif" font-size="10.00" fill="grey"> control</text>
</g>
<!-- Node9&#45;&gt;Node8 -->
<g id="edge8_Node000008_Node000009" class="edge">
<title>Node9&#45;&gt;Node8</title>
<g id="a_edge8_Node000008_Node000009"><a xlink:title=" ">
<path fill="none" stroke="#9a32cd" stroke-dasharray="5,2" d="M96.89,-122.32C101.79,-110.24 108.02,-94.91 111.88,-85.41"/>
<polygon fill="#9a32cd" stroke="#9a32cd" points="93.53,-121.29 93.01,-131.87 100.01,-123.92 93.53,-121.29"/>
</a>
</g>
<text text-anchor="middle" x="115.5" y="-106" font-family="Helvetica,sans-Serif" font-size="10.00" fill="grey"> priv</text>
</g>
<!-- Node10 -->
<g id="Node000010" class="node">
<title>Node10</title>
<g id="a_Node000010"><a xlink:title=" ">
<polygon fill="white" stroke="#666666" points="679.5,-85 555.5,-85 555.5,-66 679.5,-66 679.5,-85"/>
<text text-anchor="middle" x="617.5" y="-73" font-family="Helvetica,sans-Serif" font-size="10.00">_PulseBackendPrivate</text>
</a>
</g>
</g>
<!-- Node10&#45;&gt;Node1 -->
<g id="edge10_Node000001_Node000010" class="edge">
<title>Node10&#45;&gt;Node1</title>
<g id="a_edge10_Node000001_Node000010"><a xlink:title=" ">
<path fill="none" stroke="#9a32cd" stroke-dasharray="5,2" d="M600.36,-58.83C586.81,-46.44 568.37,-29.59 557.24,-19.41"/>
<polygon fill="#9a32cd" stroke="#9a32cd" points="598.32,-61.7 608.06,-65.87 603.04,-56.54 598.32,-61.7"/>
</a>
</g>
<text text-anchor="middle" x="598.5" y="-40" font-family="Helvetica,sans-Serif" font-size="10.00" fill="grey"> priv</text>
</g>
<!-- Node11 -->
<g id="Node000011" class="node">
<title>Node11</title>
<g id="a_Node000011"><a xlink:href="struct__MateMixerAppInfo.html" target="_top" xlink:title=" ">
<polygon fill="white" stroke="#666666" points="673,-151 562,-151 562,-132 673,-132 673,-151"/>
<text text-anchor="middle" x="617.5" y="-139" font-family="Helvetica,sans-Serif" font-size="10.00">_MateMixerAppInfo</text>
</a>
</g>
</g>
<!-- Node11&#45;&gt;Node10 -->
<g id="edge11_Node000010_Node000011" class="edge">
<title>Node11&#45;&gt;Node10</title>
<g id="a_edge11_Node000010_Node000011"><a xlink:title=" ">
<path fill="none" stroke="#9a32cd" stroke-dasharray="5,2" d="M617.5,-121.58C617.5,-109.63 617.5,-94.72 617.5,-85.41"/>
<polygon fill="#9a32cd" stroke="#9a32cd" points="614,-121.87 617.5,-131.87 621,-121.87 614,-121.87"/>
</a>
</g>
<text text-anchor="middle" x="640.5" y="-106" font-family="Helvetica,sans-Serif" font-size="10.00" fill="grey"> app_info</text>
</g>
<!-- Node12 -->
<g id="Node000012" class="node">
<title>Node12</title>
<g id="a_Node000012"><a xlink:href="struct__PulseConnection.html" target="_top" xlink:title=" ">
<polygon fill="white" stroke="#666666" points="794,-151 691,-151 691,-132 794,-132 794,-151"/>
<text text-anchor="middle" x="742.5" y="-139" font-family="Helvetica,sans-Serif" font-size="10.00">_PulseConnection</text>
</a>
</g>
</g>
<!-- Node12&#45;&gt;Node10 -->
<g id="edge12_Node000010_Node000012" class="edge">
<title>Node12&#45;&gt;Node10</title>
<g id="a_edge12_Node000010_Node000012"><a xlink:title=" ">
<path fill="none" stroke="#9a32cd" stroke-dasharray="5,2" d="M716.51,-127.19C691.89,-114.59 655.61,-96.01 634.49,-85.2"/>
<polygon fill="#9a32cd" stroke="#9a32cd" points="715.15,-130.43 725.64,-131.87 718.34,-124.2 715.15,-130.43"/>
</a>
</g>
<text text-anchor="middle" x="716" y="-106" font-family="Helvetica,sans-Serif" font-size="10.00" fill="grey"> connection</text>
</g>
<!-- Node13 -->
<g id="Node000013" class="node">
<title>Node13</title>
<g id="a_Node000013"><a xlink:title=" ">
<polygon fill="white" stroke="#666666" points="811,-228 674,-228 674,-209 811,-209 811,-228"/>
<text text-anchor="middle" x="742.5" y="-216" font-family="Helvetica,sans-Serif" font-size="10.00">_PulseConnectionPrivate</text>
</a>
</g>
</g>
<!-- Node13&#45;&gt;Node12 -->
<g id="edge13_Node000012_Node000013" class="edge">
<title>Node13&#45;&gt;Node12</title>
<g id="a_edge13_Node000012_Node000013"><a xlink:title=" ">
<path fill="none" stroke="#9a32cd" stroke-dasharray="5,2" d="M742.5,-198.52C742.5,-183.24 742.5,-162.48 742.5,-151"/>
<polygon fill="#9a32cd" stroke="#9a32cd" points="739,-198.9 742.5,-208.9 746,-198.9 739,-198.9"/>
</a>
</g>
<text text-anchor="middle" x="753.5" y="-177.5" font-family="Helvetica,sans-Serif" font-size="10.00" fill="grey"> priv</text>
</g>
</g>
</svg>

<g id="navigator" transform="translate(0 0)" fill="#404254">
  <rect fill="#f2f5e9" fill-opacity="0.5" stroke="#606060" stroke-width=".5" x="0" y="0" width="60" height="60"/>
  <use id="zoomplus" xlink:href="#zoomPlus" x="17" y="9" onmousedown="handleZoom(evt,'in')"/>
  <use id="zoomminus" xlink:href="#zoomMin" x="42" y="9" onmousedown="handleZoom(evt,'out')"/>
  <use id="reset" xlink:href="#resetDef" x="30" y="36" onmousedown="handleReset()"/>
   <use id="arrowup" xlink:href="#arrowUp" x="0" y="0" onmousedown="handlePan(0,-1)"/>
  <use id="arrowright" xlink:href="#arrowRight" x="0" y="0" onmousedown="handlePan(1,0)"/>
  <use id="arrowdown" xlink:href="#arrowDown" x="0" y="0" onmousedown="handlePan(0,1)"/>
  <use id="arrowleft" xlink:href="#arrowLeft" x="0" y="0" onmousedown="handlePan(-1,0)"/>
</g>
<svg viewBox="0 0 15 15" width="100%" height="30px" preserveAspectRatio="xMaxYMin meet">
 <g id="arrow_out" transform="scale(0.3 0.3)">
  <a xlink:href="struct__PulseBackend__coll__graph_org.svg" target="_base">
   <rect id="button" ry="5" rx="5" y="6" x="6" height="38" width="38"
        fill="#f2f5e9" fill-opacity="0.5" stroke="#606060" stroke-width="1.0"/>
   <path id="arrow"
     d="M 11.500037,31.436501 C 11.940474,20.09759 22.043105,11.32322 32.158766,21.979434 L 37.068811,17.246167 C 37.068811,17.246167 37.088388,32 37.088388,32 L 22.160133,31.978069 C 22.160133,31.978069 26.997745,27.140456 26.997745,27.140456 C 18.528582,18.264221 13.291696,25.230495 11.500037,31.436501 z"
     style="fill:#404040;"/>
  </a>
 </g>
</svg>

<style type='text/css'>
<![CDATA[
[data-mouse-over-selected='false'] { opacity: 0.7; }
[data-mouse-over-selected='true']  { opacity: 1.0; }
]]>
</style>
<script type="application/ecmascript"><![CDATA[
document.addEventListener('DOMContentLoaded', (event) => {
  highlightEdges();
  highlightAdjacentNodes();
});
]]></script>
</svg>
