<?xml version="1.0" encoding="UTF-8" standalone="no"?>
<!DOCTYPE svg PUBLIC "-//W3C//DTD SVG 1.1//EN"
 "http://www.w3.org/Graphics/SVG/1.1/DTD/svg11.dtd">
<!-- Generated by graphviz version 2.43.0 (0)
 -->
<!-- Title: _EvLinkAccessible Pages: 1 -->
<!--zoomable 621 -->

<svg id="main" version="1.1" xmlns="http://www.w3.org/2000/svg" xmlns:xlink="http://www.w3.org/1999/xlink" xml:space="preserve" onload="init(evt)">
<style type="text/css"><![CDATA[
.node, .edge {opacity: 0.7;}
.node.selected, .edge.selected {opacity: 1;}
.edge:hover path { stroke: red; }
.edge:hover polygon { stroke: red; fill: red; }
]]></style>

<defs>
  <circle id="rim" cx="0" cy="0" r="7"/>
  <circle id="rim2" cx="0" cy="0" r="3.5"/>
  <g id="zoomPlus">
    <use xlink:href="#rim" fill="#404040"><set attributeName="fill" to="#808080" begin="zoomplus.mouseover" end="zoomplus.mouseout"/></use>
    <path d="M-4,0h8M0,-4v8" fill="none" stroke="white" stroke-width="1.5" pointer-events="none"/>
  </g>
  <g id="zoomMin">
    <use xlink:href="#rim" fill="#404040"><set attributeName="fill" to="#808080" begin="zoomminus.mouseover" end="zoomminus.mouseout"/></use>
    <path d="M-4,0h8" fill="none" stroke="white" stroke-width="1.5" pointer-events="none"/>
  </g>
  <g id="arrowUp" transform="translate(30 24)">
    <use xlink:href="#rim"/>
    <path pointer-events="none" fill="none" stroke="white" stroke-width="1.5" d="M0,-3.0v7 M-2.5,-0.5L0,-3.0L2.5,-0.5"/>
  </g>
  <g id="arrowRight" transform="rotate(90) translate(36 -43)">
    <use xlink:href="#rim"/>
    <path pointer-events="none" fill="none" stroke="white" stroke-width="1.5" d="M0,-3.0v7 M-2.5,-0.5L0,-3.0L2.5,-0.5"/>
  </g>
  <g id="arrowDown" transform="rotate(180) translate(-30 -48)">
    <use xlink:href="#rim"/>
    <path pointer-events="none" fill="none" stroke="white" stroke-width="1.5" d="M0,-3.0v7 M-2.5,-0.5L0,-3.0L2.5,-0.5"/>
  </g>
  <g id="arrowLeft" transform="rotate(270) translate(-36 17)">
    <use xlink:href="#rim"/>
    <path pointer-events="none" fill="none" stroke="white" stroke-width="1.5" d="M0,-3.0v7 M-2.5,-0.5L0,-3.0L2.5,-0.5"/>
  </g>
  <g id="resetDef">
    <use xlink:href="#rim2" fill="#404040"><set attributeName="fill" to="#808080" begin="reset.mouseover" end="reset.mouseout"/></use>
  </g>
</defs>
<script type="application/ecmascript">
var viewWidth = 452;
var viewHeight = 621;
var sectionId = 'dynsection-0';
</script>
<script type="application/ecmascript" xlink:href="svg.min.js"/>
<svg id="graph" class="graph">
<g id="viewport">
<title>_EvLinkAccessible</title>
<!-- Node1 -->
<g id="Node000001" class="node">
<title>Node1</title>
<g id="a_Node000001"><a xlink:title=" ">
<polygon fill="#999999" stroke="#666666" points="106,-151 0,-151 0,-132 106,-132 106,-151"/>
<text text-anchor="middle" x="53" y="-139" font-family="Helvetica,sans-Serif" font-size="10.00">_EvLinkAccessible</text>
</a>
</g>
</g>
<!-- Node20 -->
<g id="Node000020" class="node">
<title>Node20</title>
<g id="a_Node000020"><a xlink:title=" ">
<polygon fill="white" stroke="#666666" points="83.5,-85 2.5,-85 2.5,-66 83.5,-66 83.5,-85"/>
<text text-anchor="middle" x="43" y="-73" font-family="Helvetica,sans-Serif" font-size="10.00">_EvHyperlink</text>
</a>
</g>
</g>
<!-- Node1&#45;&gt;Node20 -->
<g id="edge20_Node000020_Node000001" class="edge">
<title>Node1&#45;&gt;Node20</title>
<g id="a_edge20_Node000020_Node000001"><a xlink:title=" ">
<path fill="none" stroke="#9a32cd" stroke-dasharray="5,2" d="M50.1,-121.95C48.22,-109.93 45.86,-94.82 44.39,-85.41"/>
<polygon fill="#9a32cd" stroke="#9a32cd" points="46.65,-122.53 51.65,-131.87 53.57,-121.45 46.65,-122.53"/>
</a>
</g>
<text text-anchor="middle" x="73.5" y="-106" font-family="Helvetica,sans-Serif" font-size="10.00" fill="grey"> link_impl</text>
</g>
<!-- Node2 -->
<g id="Node000002" class="node">
<title>Node2</title>
<g id="a_Node000002"><a xlink:title=" ">
<polygon fill="white" stroke="#666666" points="285,-19 145,-19 145,0 285,0 285,-19"/>
<text text-anchor="middle" x="215" y="-7" font-family="Helvetica,sans-Serif" font-size="10.00">_EvLinkAccessiblePrivate</text>
</a>
</g>
</g>
<!-- Node2&#45;&gt;Node1 -->
<g id="edge1_Node000001_Node000002" class="edge">
<title>Node2&#45;&gt;Node1</title>
<g id="a_edge1_Node000001_Node000002"><a xlink:title=" ">
<path fill="none" stroke="#9a32cd" stroke-dasharray="5,2" d="M187.38,-23.81C169.18,-33.6 145.7,-48.26 129,-66 112.23,-83.82 119.45,-96.84 102,-114 94.28,-121.6 83.93,-127.62 74.74,-131.99"/>
<polygon fill="#9a32cd" stroke="#9a32cd" points="189.1,-26.87 196.36,-19.15 185.87,-20.65 189.1,-26.87"/>
</a>
</g>
<text text-anchor="middle" x="140" y="-73" font-family="Helvetica,sans-Serif" font-size="10.00" fill="grey"> priv</text>
</g>
<!-- Node3 -->
<g id="Node000003" class="node">
<title>Node3</title>
<g id="a_Node000003"><a xlink:href="struct__EvPageAccessible.html" target="_top" xlink:title=" ">
<polygon fill="white" stroke="#666666" points="269.5,-85 160.5,-85 160.5,-66 269.5,-66 269.5,-85"/>
<text text-anchor="middle" x="215" y="-73" font-family="Helvetica,sans-Serif" font-size="10.00">_EvPageAccessible</text>
</a>
</g>
</g>
<!-- Node3&#45;&gt;Node2 -->
<g id="edge2_Node000002_Node000003" class="edge">
<title>Node3&#45;&gt;Node2</title>
<g id="a_edge2_Node000002_Node000003"><a xlink:title=" ">
<path fill="none" stroke="#9a32cd" stroke-dasharray="5,2" d="M215,-55.58C215,-43.63 215,-28.72 215,-19.41"/>
<polygon fill="#9a32cd" stroke="#9a32cd" points="211.5,-55.87 215,-65.87 218.5,-55.87 211.5,-55.87"/>
</a>
</g>
<text text-anchor="middle" x="229" y="-40" font-family="Helvetica,sans-Serif" font-size="10.00" fill="grey"> page</text>
</g>
<!-- Node4 -->
<g id="Node000004" class="node">
<title>Node4</title>
<g id="a_Node000004"><a xlink:title=" ">
<polygon fill="white" stroke="#666666" points="272.5,-151 129.5,-151 129.5,-132 272.5,-132 272.5,-151"/>
<text text-anchor="middle" x="201" y="-139" font-family="Helvetica,sans-Serif" font-size="10.00">_EvPageAccessiblePrivate</text>
</a>
</g>
</g>
<!-- Node4&#45;&gt;Node3 -->
<g id="edge3_Node000003_Node000004" class="edge">
<title>Node4&#45;&gt;Node3</title>
<g id="a_edge3_Node000003_Node000004"><a xlink:title=" ">
<path fill="none" stroke="#9a32cd" stroke-dasharray="5,2" d="M205.06,-121.95C207.69,-109.93 210.99,-94.82 213.05,-85.41"/>
<polygon fill="#9a32cd" stroke="#9a32cd" points="201.61,-121.35 202.89,-131.87 208.44,-122.85 201.61,-121.35"/>
</a>
</g>
<text text-anchor="middle" x="219" y="-106" font-family="Helvetica,sans-Serif" font-size="10.00" fill="grey"> priv</text>
</g>
<!-- Node5 -->
<g id="Node000005" class="node">
<title>Node5</title>
<g id="a_Node000005"><a xlink:href="struct__EvViewAccessible.html" target="_top" xlink:title=" ">
<polygon fill="white" stroke="#666666" points="255,-217 145,-217 145,-198 255,-198 255,-217"/>
<text text-anchor="middle" x="200" y="-205" font-family="Helvetica,sans-Serif" font-size="10.00">_EvViewAccessible</text>
</a>
</g>
</g>
<!-- Node5&#45;&gt;Node4 -->
<g id="edge4_Node000004_Node000005" class="edge">
<title>Node5&#45;&gt;Node4</title>
<g id="a_edge4_Node000004_Node000005"><a xlink:title=" ">
<path fill="none" stroke="#9a32cd" stroke-dasharray="5,2" d="M200.3,-187.58C200.48,-175.63 200.72,-160.72 200.86,-151.41"/>
<polygon fill="#9a32cd" stroke="#9a32cd" points="196.79,-187.82 200.13,-197.87 203.79,-187.92 196.79,-187.82"/>
</a>
</g>
<text text-anchor="middle" x="242.5" y="-172" font-family="Helvetica,sans-Serif" font-size="10.00" fill="grey"> view_accessible</text>
</g>
<!-- Node6 -->
<g id="Node000006" class="node">
<title>Node6</title>
<g id="a_Node000006"><a xlink:title=" ">
<polygon fill="white" stroke="#666666" points="266,-283 122,-283 122,-264 266,-264 266,-283"/>
<text text-anchor="middle" x="194" y="-271" font-family="Helvetica,sans-Serif" font-size="10.00">_EvViewAccessiblePrivate</text>
</a>
</g>
</g>
<!-- Node6&#45;&gt;Node5 -->
<g id="edge5_Node000005_Node000006" class="edge">
<title>Node6&#45;&gt;Node5</title>
<g id="a_edge5_Node000005_Node000006"><a xlink:title=" ">
<path fill="none" stroke="#9a32cd" stroke-dasharray="5,2" d="M195.77,-253.58C196.89,-241.63 198.29,-226.72 199.17,-217.41"/>
<polygon fill="#9a32cd" stroke="#9a32cd" points="192.26,-253.59 194.81,-263.87 199.23,-254.24 192.26,-253.59"/>
</a>
</g>
<text text-anchor="middle" x="209" y="-238" font-family="Helvetica,sans-Serif" font-size="10.00" fill="grey"> priv</text>
</g>
<!-- Node7 -->
<g id="Node000007" class="node">
<title>Node7</title>
<g id="a_Node000007"><a xlink:title=" ">
<polygon fill="white" stroke="#666666" points="251,-349 137,-349 137,-330 251,-330 251,-349"/>
<text text-anchor="middle" x="194" y="-337" font-family="Helvetica,sans-Serif" font-size="10.00">_EvDocumentModel</text>
</a>
</g>
</g>
<!-- Node7&#45;&gt;Node6 -->
<g id="edge6_Node000006_Node000007" class="edge">
<title>Node7&#45;&gt;Node6</title>
<g id="a_edge6_Node000006_Node000007"><a xlink:title=" ">
<path fill="none" stroke="#9a32cd" stroke-dasharray="5,2" d="M194,-319.58C194,-307.63 194,-292.72 194,-283.41"/>
<polygon fill="#9a32cd" stroke="#9a32cd" points="190.5,-319.87 194,-329.87 197.5,-319.87 190.5,-319.87"/>
</a>
</g>
<text text-anchor="middle" x="211" y="-304" font-family="Helvetica,sans-Serif" font-size="10.00" fill="grey"> model</text>
</g>
<!-- Node8 -->
<g id="Node000008" class="node">
<title>Node8</title>
<g id="a_Node000008"><a xlink:href="struct__EvDocument.html" target="_top" xlink:title=" ">
<polygon fill="white" stroke="#666666" points="236,-415 152,-415 152,-396 236,-396 236,-415"/>
<text text-anchor="middle" x="194" y="-403" font-family="Helvetica,sans-Serif" font-size="10.00">_EvDocument</text>
</a>
</g>
</g>
<!-- Node8&#45;&gt;Node7 -->
<g id="edge7_Node000007_Node000008" class="edge">
<title>Node8&#45;&gt;Node7</title>
<g id="a_edge7_Node000007_Node000008"><a xlink:title=" ">
<path fill="none" stroke="#9a32cd" stroke-dasharray="5,2" d="M194,-385.58C194,-373.63 194,-358.72 194,-349.41"/>
<polygon fill="#9a32cd" stroke="#9a32cd" points="190.5,-385.87 194,-395.87 197.5,-385.87 190.5,-385.87"/>
</a>
</g>
<text text-anchor="middle" x="220" y="-370" font-family="Helvetica,sans-Serif" font-size="10.00" fill="grey"> document</text>
</g>
<!-- Node9 -->
<g id="Node000009" class="node">
<title>Node9</title>
<g id="a_Node000009"><a xlink:title=" ">
<polygon fill="white" stroke="#666666" points="253.5,-481 134.5,-481 134.5,-462 253.5,-462 253.5,-481"/>
<text text-anchor="middle" x="194" y="-469" font-family="Helvetica,sans-Serif" font-size="10.00">_EvDocumentPrivate</text>
</a>
</g>
</g>
<!-- Node9&#45;&gt;Node8 -->
<g id="edge8_Node000008_Node000009" class="edge">
<title>Node9&#45;&gt;Node8</title>
<g id="a_edge8_Node000008_Node000009"><a xlink:title=" ">
<path fill="none" stroke="#9a32cd" stroke-dasharray="5,2" d="M194,-451.58C194,-439.63 194,-424.72 194,-415.41"/>
<polygon fill="#9a32cd" stroke="#9a32cd" points="190.5,-451.87 194,-461.87 197.5,-451.87 190.5,-451.87"/>
</a>
</g>
<text text-anchor="middle" x="205" y="-436" font-family="Helvetica,sans-Serif" font-size="10.00" fill="grey"> priv</text>
</g>
<!-- Node10 -->
<g id="Node000010" class="node">
<title>Node10</title>
<g id="a_Node000010"><a xlink:title=" ">
<polygon fill="white" stroke="#666666" points="192.5,-547 115.5,-547 115.5,-528 192.5,-528 192.5,-547"/>
<text text-anchor="middle" x="154" y="-535" font-family="Helvetica,sans-Serif" font-size="10.00">_EvPageSize</text>
</a>
</g>
</g>
<!-- Node10&#45;&gt;Node9 -->
<g id="edge9_Node000009_Node000010" class="edge">
<title>Node10&#45;&gt;Node9</title>
<g id="a_edge9_Node000009_Node000010"><a xlink:title=" ">
<path fill="none" stroke="#9a32cd" stroke-dasharray="5,2" d="M159.11,-518.22C161.32,-511.86 164.27,-504.86 168,-499 172.22,-492.37 178.32,-486.04 183.56,-481.23"/>
<polygon fill="#9a32cd" stroke="#9a32cd" points="155.7,-517.4 156.08,-527.99 162.38,-519.48 155.7,-517.4"/>
</a>
</g>
<text text-anchor="middle" x="197" y="-502" font-family="Helvetica,sans-Serif" font-size="10.00" fill="grey"> page_sizes</text>
</g>
<!-- Node11 -->
<g id="Node000011" class="node">
<title>Node11</title>
<g id="a_Node000011"><a xlink:href="struct__EvDocumentInfo.html" target="_top" xlink:title=" ">
<polygon fill="white" stroke="#666666" points="313.5,-547 210.5,-547 210.5,-528 313.5,-528 313.5,-547"/>
<text text-anchor="middle" x="262" y="-535" font-family="Helvetica,sans-Serif" font-size="10.00">_EvDocumentInfo</text>
</a>
</g>
</g>
<!-- Node11&#45;&gt;Node9 -->
<g id="edge10_Node000009_Node000011" class="edge">
<title>Node11&#45;&gt;Node9</title>
<g id="a_edge10_Node000009_Node000011"><a xlink:title=" ">
<path fill="none" stroke="#9a32cd" stroke-dasharray="5,2" d="M247.44,-520.54C241.04,-513.73 233.32,-505.8 226,-499 219.24,-492.72 211.24,-486.09 204.93,-481.04"/>
<polygon fill="#9a32cd" stroke="#9a32cd" points="244.89,-522.94 254.26,-527.89 250.02,-518.18 244.89,-522.94"/>
</a>
</g>
<text text-anchor="middle" x="248" y="-502" font-family="Helvetica,sans-Serif" font-size="10.00" fill="grey"> info</text>
</g>
<!-- Node12 -->
<g id="Node000012" class="node">
<title>Node12</title>
<g id="a_Node000012"><a xlink:href="struct__EvDocumentLicense.html" target="_top" xlink:title=" ">
<polygon fill="white" stroke="#666666" points="322.5,-613 201.5,-613 201.5,-594 322.5,-594 322.5,-613"/>
<text text-anchor="middle" x="262" y="-601" font-family="Helvetica,sans-Serif" font-size="10.00">_EvDocumentLicense</text>
</a>
</g>
</g>
<!-- Node12&#45;&gt;Node11 -->
<g id="edge11_Node000011_Node000012" class="edge">
<title>Node12&#45;&gt;Node11</title>
<g id="a_edge11_Node000011_Node000012"><a xlink:title=" ">
<path fill="none" stroke="#9a32cd" stroke-dasharray="5,2" d="M262,-583.58C262,-571.63 262,-556.72 262,-547.41"/>
<polygon fill="#9a32cd" stroke="#9a32cd" points="258.5,-583.87 262,-593.87 265.5,-583.87 258.5,-583.87"/>
</a>
</g>
<text text-anchor="middle" x="281" y="-568" font-family="Helvetica,sans-Serif" font-size="10.00" fill="grey"> license</text>
</g>
<!-- Node13 -->
<g id="Node000013" class="node">
<title>Node13</title>
<g id="a_Node000013"><a xlink:title=" ">
<polygon fill="white" stroke="#666666" points="342,-85 288,-85 288,-66 342,-66 342,-85"/>
<text text-anchor="middle" x="315" y="-73" font-family="Helvetica,sans-Serif" font-size="10.00">_EvLink</text>
</a>
</g>
</g>
<!-- Node13&#45;&gt;Node2 -->
<g id="edge12_Node000002_Node000013" class="edge">
<title>Node13&#45;&gt;Node2</title>
<g id="a_edge12_Node000002_Node000013"><a xlink:title=" ">
<path fill="none" stroke="#9a32cd" stroke-dasharray="5,2" d="M292.89,-60.35C273.23,-47.77 245.12,-29.78 228.59,-19.2"/>
<polygon fill="#9a32cd" stroke="#9a32cd" points="291.2,-63.43 301.51,-65.87 294.98,-57.53 291.2,-63.43"/>
</a>
</g>
<text text-anchor="middle" x="281" y="-40" font-family="Helvetica,sans-Serif" font-size="10.00" fill="grey"> link</text>
</g>
<!-- Node14 -->
<g id="Node000014" class="node">
<title>Node14</title>
<g id="a_Node000014"><a xlink:title=" ">
<polygon fill="white" stroke="#666666" points="387.5,-151 298.5,-151 298.5,-132 387.5,-132 387.5,-151"/>
<text text-anchor="middle" x="343" y="-139" font-family="Helvetica,sans-Serif" font-size="10.00">_EvLinkPrivate</text>
</a>
</g>
</g>
<!-- Node14&#45;&gt;Node13 -->
<g id="edge13_Node000013_Node000014" class="edge">
<title>Node14&#45;&gt;Node13</title>
<g id="a_edge13_Node000013_Node000014"><a xlink:title=" ">
<path fill="none" stroke="#9a32cd" stroke-dasharray="5,2" d="M335.21,-122.68C329.9,-110.55 323.1,-95.01 318.9,-85.41"/>
<polygon fill="#9a32cd" stroke="#9a32cd" points="332.01,-124.11 339.22,-131.87 338.42,-121.3 332.01,-124.11"/>
</a>
</g>
<text text-anchor="middle" x="341" y="-106" font-family="Helvetica,sans-Serif" font-size="10.00" fill="grey"> priv</text>
</g>
<!-- Node15 -->
<g id="Node000015" class="node">
<title>Node15</title>
<g id="a_Node000015"><a xlink:title=" ">
<polygon fill="white" stroke="#666666" points="385.5,-217 300.5,-217 300.5,-198 385.5,-198 385.5,-217"/>
<text text-anchor="middle" x="343" y="-205" font-family="Helvetica,sans-Serif" font-size="10.00">_EvLinkAction</text>
</a>
</g>
</g>
<!-- Node15&#45;&gt;Node14 -->
<g id="edge14_Node000014_Node000015" class="edge">
<title>Node15&#45;&gt;Node14</title>
<g id="a_edge14_Node000014_Node000015"><a xlink:title=" ">
<path fill="none" stroke="#9a32cd" stroke-dasharray="5,2" d="M343,-187.58C343,-175.63 343,-160.72 343,-151.41"/>
<polygon fill="#9a32cd" stroke="#9a32cd" points="339.5,-187.87 343,-197.87 346.5,-187.87 339.5,-187.87"/>
</a>
</g>
<text text-anchor="middle" x="360" y="-172" font-family="Helvetica,sans-Serif" font-size="10.00" fill="grey"> action</text>
</g>
<!-- Node16 -->
<g id="Node000016" class="node">
<title>Node16</title>
<g id="a_Node000016"><a xlink:title=" ">
<polygon fill="white" stroke="#666666" points="403.5,-283 284.5,-283 284.5,-264 403.5,-264 403.5,-283"/>
<text text-anchor="middle" x="344" y="-271" font-family="Helvetica,sans-Serif" font-size="10.00">_EvLinkActionPrivate</text>
</a>
</g>
</g>
<!-- Node16&#45;&gt;Node15 -->
<g id="edge15_Node000015_Node000016" class="edge">
<title>Node16&#45;&gt;Node15</title>
<g id="a_edge15_Node000015_Node000016"><a xlink:title=" ">
<path fill="none" stroke="#9a32cd" stroke-dasharray="5,2" d="M343.7,-253.58C343.52,-241.63 343.28,-226.72 343.14,-217.41"/>
<polygon fill="#9a32cd" stroke="#9a32cd" points="340.21,-253.92 343.87,-263.87 347.21,-253.82 340.21,-253.92"/>
</a>
</g>
<text text-anchor="middle" x="354" y="-238" font-family="Helvetica,sans-Serif" font-size="10.00" fill="grey"> priv</text>
</g>
<!-- Node17 -->
<g id="Node000017" class="node">
<title>Node17</title>
<g id="a_Node000017"><a xlink:title=" ">
<polygon fill="white" stroke="#666666" points="382.5,-349 305.5,-349 305.5,-330 382.5,-330 382.5,-349"/>
<text text-anchor="middle" x="344" y="-337" font-family="Helvetica,sans-Serif" font-size="10.00">_EvLinkDest</text>
</a>
</g>
</g>
<!-- Node17&#45;&gt;Node16 -->
<g id="edge16_Node000016_Node000017" class="edge">
<title>Node17&#45;&gt;Node16</title>
<g id="a_edge16_Node000016_Node000017"><a xlink:title=" ">
<path fill="none" stroke="#9a32cd" stroke-dasharray="5,2" d="M344,-319.58C344,-307.63 344,-292.72 344,-283.41"/>
<polygon fill="#9a32cd" stroke="#9a32cd" points="340.5,-319.87 344,-329.87 347.5,-319.87 340.5,-319.87"/>
</a>
</g>
<text text-anchor="middle" x="356.5" y="-304" font-family="Helvetica,sans-Serif" font-size="10.00" fill="grey"> dest</text>
</g>
<!-- Node18 -->
<g id="Node000018" class="node">
<title>Node18</title>
<g id="a_Node000018"><a xlink:title=" ">
<polygon fill="white" stroke="#666666" points="399.5,-415 288.5,-415 288.5,-396 399.5,-396 399.5,-415"/>
<text text-anchor="middle" x="344" y="-403" font-family="Helvetica,sans-Serif" font-size="10.00">_EvLinkDestPrivate</text>
</a>
</g>
</g>
<!-- Node18&#45;&gt;Node17 -->
<g id="edge17_Node000017_Node000018" class="edge">
<title>Node18&#45;&gt;Node17</title>
<g id="a_edge17_Node000017_Node000018"><a xlink:title=" ">
<path fill="none" stroke="#9a32cd" stroke-dasharray="5,2" d="M344,-385.58C344,-373.63 344,-358.72 344,-349.41"/>
<polygon fill="#9a32cd" stroke="#9a32cd" points="340.5,-385.87 344,-395.87 347.5,-385.87 340.5,-385.87"/>
</a>
</g>
<text text-anchor="middle" x="355" y="-370" font-family="Helvetica,sans-Serif" font-size="10.00" fill="grey"> priv</text>
</g>
<!-- Node19 -->
<g id="Node000019" class="node">
<title>Node19</title>
<g id="a_Node000019"><a xlink:href="struct__EvRectangle.html" target="_top" xlink:title=" ">
<polygon fill="white" stroke="#666666" points="443.5,-85 360.5,-85 360.5,-66 443.5,-66 443.5,-85"/>
<text text-anchor="middle" x="402" y="-73" font-family="Helvetica,sans-Serif" font-size="10.00">_EvRectangle</text>
</a>
</g>
</g>
<!-- Node19&#45;&gt;Node2 -->
<g id="edge18_Node000002_Node000019" class="edge">
<title>Node19&#45;&gt;Node2</title>
<g id="a_edge18_Node000002_Node000019"><a xlink:title=" ">
<path fill="none" stroke="#9a32cd" stroke-dasharray="5,2" d="M368.82,-62.53C347.96,-55.06 320.46,-45.33 296,-37 277.93,-30.85 257.5,-24.17 241.68,-19.05"/>
<polygon fill="#9a32cd" stroke="#9a32cd" points="367.89,-65.92 378.48,-66 370.25,-59.33 367.89,-65.92"/>
</a>
</g>
<text text-anchor="middle" x="337.5" y="-40" font-family="Helvetica,sans-Serif" font-size="10.00" fill="grey"> area</text>
</g>
<!-- Node20&#45;&gt;Node2 -->
<g id="edge19_Node000002_Node000020" class="edge">
<title>Node20&#45;&gt;Node2</title>
<g id="a_edge19_Node000002_Node000020"><a xlink:title=" ">
<path fill="none" stroke="#9a32cd" stroke-dasharray="5,2" d="M45.92,-55.85C47.92,-48.97 51.3,-41.7 57,-37 70.52,-25.85 109,-19.25 144.6,-15.43"/>
<polygon fill="#9a32cd" stroke="#9a32cd" points="42.43,-55.43 43.76,-65.94 49.27,-56.89 42.43,-55.43"/>
</a>
</g>
<text text-anchor="middle" x="81.5" y="-40" font-family="Helvetica,sans-Serif" font-size="10.00" fill="grey"> hyperlink</text>
</g>
</g>
</svg>

<g id="navigator" transform="translate(0 0)" fill="#404254">
  <rect fill="#f2f5e9" fill-opacity="0.5" stroke="#606060" stroke-width=".5" x="0" y="0" width="60" height="60"/>
  <use id="zoomplus" xlink:href="#zoomPlus" x="17" y="9" onmousedown="handleZoom(evt,'in')"/>
  <use id="zoomminus" xlink:href="#zoomMin" x="42" y="9" onmousedown="handleZoom(evt,'out')"/>
  <use id="reset" xlink:href="#resetDef" x="30" y="36" onmousedown="handleReset()"/>
   <use id="arrowup" xlink:href="#arrowUp" x="0" y="0" onmousedown="handlePan(0,-1)"/>
  <use id="arrowright" xlink:href="#arrowRight" x="0" y="0" onmousedown="handlePan(1,0)"/>
  <use id="arrowdown" xlink:href="#arrowDown" x="0" y="0" onmousedown="handlePan(0,1)"/>
  <use id="arrowleft" xlink:href="#arrowLeft" x="0" y="0" onmousedown="handlePan(-1,0)"/>
</g>
<svg viewBox="0 0 15 15" width="100%" height="30px" preserveAspectRatio="xMaxYMin meet">
 <g id="arrow_out" transform="scale(0.3 0.3)">
  <a xlink:href="struct__EvLinkAccessible__coll__graph_org.svg" target="_base">
   <rect id="button" ry="5" rx="5" y="6" x="6" height="38" width="38"
        fill="#f2f5e9" fill-opacity="0.5" stroke="#606060" stroke-width="1.0"/>
   <path id="arrow"
     d="M 11.500037,31.436501 C 11.940474,20.09759 22.043105,11.32322 32.158766,21.979434 L 37.068811,17.246167 C 37.068811,17.246167 37.088388,32 37.088388,32 L 22.160133,31.978069 C 22.160133,31.978069 26.997745,27.140456 26.997745,27.140456 C 18.528582,18.264221 13.291696,25.230495 11.500037,31.436501 z"
     style="fill:#404040;"/>
  </a>
 </g>
</svg>

<style type='text/css'>
<![CDATA[
[data-mouse-over-selected='false'] { opacity: 0.7; }
[data-mouse-over-selected='true']  { opacity: 1.0; }
]]>
</style>
<script type="application/ecmascript"><![CDATA[
document.addEventListener('DOMContentLoaded', (event) => {
  highlightEdges();
  highlightAdjacentNodes();
});
]]></script>
</svg>
