<?xml version="1.0" encoding="UTF-8" standalone="no"?>
<!DOCTYPE svg PUBLIC "-//W3C//DTD SVG 1.1//EN"
 "http://www.w3.org/Graphics/SVG/1.1/DTD/svg11.dtd">
<!-- Generated by graphviz version 2.43.0 (0)
 -->
<!-- Title: _MetaFrameStyleSet Pages: 1 -->
<!--zoomable 477 -->

<svg id="main" version="1.1" xmlns="http://www.w3.org/2000/svg" xmlns:xlink="http://www.w3.org/1999/xlink" xml:space="preserve" onload="init(evt)">
<style type="text/css"><![CDATA[
.node, .edge {opacity: 0.7;}
.node.selected, .edge.selected {opacity: 1;}
.edge:hover path { stroke: red; }
.edge:hover polygon { stroke: red; fill: red; }
]]></style>

<defs>
  <circle id="rim" cx="0" cy="0" r="7"/>
  <circle id="rim2" cx="0" cy="0" r="3.5"/>
  <g id="zoomPlus">
    <use xlink:href="#rim" fill="#404040"><set attributeName="fill" to="#808080" begin="zoomplus.mouseover" end="zoomplus.mouseout"/></use>
    <path d="M-4,0h8M0,-4v8" fill="none" stroke="white" stroke-width="1.5" pointer-events="none"/>
  </g>
  <g id="zoomMin">
    <use xlink:href="#rim" fill="#404040"><set attributeName="fill" to="#808080" begin="zoomminus.mouseover" end="zoomminus.mouseout"/></use>
    <path d="M-4,0h8" fill="none" stroke="white" stroke-width="1.5" pointer-events="none"/>
  </g>
  <g id="arrowUp" transform="translate(30 24)">
    <use xlink:href="#rim"/>
    <path pointer-events="none" fill="none" stroke="white" stroke-width="1.5" d="M0,-3.0v7 M-2.5,-0.5L0,-3.0L2.5,-0.5"/>
  </g>
  <g id="arrowRight" transform="rotate(90) translate(36 -43)">
    <use xlink:href="#rim"/>
    <path pointer-events="none" fill="none" stroke="white" stroke-width="1.5" d="M0,-3.0v7 M-2.5,-0.5L0,-3.0L2.5,-0.5"/>
  </g>
  <g id="arrowDown" transform="rotate(180) translate(-30 -48)">
    <use xlink:href="#rim"/>
    <path pointer-events="none" fill="none" stroke="white" stroke-width="1.5" d="M0,-3.0v7 M-2.5,-0.5L0,-3.0L2.5,-0.5"/>
  </g>
  <g id="arrowLeft" transform="rotate(270) translate(-36 17)">
    <use xlink:href="#rim"/>
    <path pointer-events="none" fill="none" stroke="white" stroke-width="1.5" d="M0,-3.0v7 M-2.5,-0.5L0,-3.0L2.5,-0.5"/>
  </g>
  <g id="resetDef">
    <use xlink:href="#rim2" fill="#404040"><set attributeName="fill" to="#808080" begin="reset.mouseover" end="reset.mouseout"/></use>
  </g>
</defs>
<script type="application/ecmascript">
var viewWidth = 834;
var viewHeight = 477;
var sectionId = 'dynsection-0';
</script>
<script type="application/ecmascript" xlink:href="svg.min.js"/>
<svg id="graph" class="graph">
<g id="viewport">
<title>_MetaFrameStyleSet</title>
<!-- Node1 -->
<g id="Node000001" class="node">
<title>Node1</title>
<g id="a_Node000001"><a xlink:title=" ">
<polygon fill="#999999" stroke="#666666" points="218,-26.29 100,-26.29 100,-7.29 218,-7.29 218,-26.29"/>
<text text-anchor="middle" x="159" y="-14.29" font-family="Helvetica,sans-Serif" font-size="10.00">_MetaFrameStyleSet</text>
</a>
</g>
</g>
<!-- Node1&#45;&gt;Node1 -->
<g id="edge1_Node000001_Node000001" class="edge">
<title>Node1&#45;&gt;Node1</title>
<g id="a_edge1_Node000001_Node000001"><a xlink:title=" ">
<path fill="none" stroke="#9a32cd" stroke-dasharray="5,2" d="M184.13,-29.87C208.82,-37.15 236,-32.79 236,-16.79 236,1.35 201.13,4.53 174.5,-7.22"/>
<polygon fill="#9a32cd" stroke="#9a32cd" points="185.09,-26.49 174.5,-26.35 182.69,-33.07 185.09,-26.49"/>
</a>
</g>
<text text-anchor="middle" x="253.5" y="-14.29" font-family="Helvetica,sans-Serif" font-size="10.00" fill="grey"> parent</text>
</g>
<!-- Node2 -->
<g id="Node000002" class="node">
<title>Node2</title>
<g id="a_Node000002"><a xlink:href="struct__MetaFrameStyle.html" target="_top" xlink:title=" ">
<polygon fill="white" stroke="#666666" points="210,-202.29 108,-202.29 108,-183.29 210,-183.29 210,-202.29"/>
<text text-anchor="middle" x="159" y="-190.29" font-family="Helvetica,sans-Serif" font-size="10.00">_MetaFrameStyle</text>
</a>
</g>
</g>
<!-- Node2&#45;&gt;Node1 -->
<g id="edge2_Node000001_Node000002" class="edge">
<title>Node2&#45;&gt;Node1</title>
<g id="a_edge2_Node000001_Node000002"><a xlink:title=" ">
<path fill="none" stroke="#9a32cd" stroke-dasharray="5,2" d="M159,-172.85C159,-135.41 159,-53.24 159,-26.43"/>
<polygon fill="#9a32cd" stroke="#9a32cd" points="155.5,-172.92 159,-182.92 162.5,-172.92 155.5,-172.92"/>
</a>
</g>
<text text-anchor="start" x="159" y="-157.29" font-family="Helvetica,sans-Serif" font-size="10.00" fill="grey"> maximized_and_shaded</text>
<text text-anchor="middle" x="220" y="-146.29" font-family="Helvetica,sans-Serif" font-size="10.00" fill="grey">_styles</text>
<text text-anchor="middle" x="220" y="-135.29" font-family="Helvetica,sans-Serif" font-size="10.00" fill="grey">maximized_styles</text>
<text text-anchor="middle" x="220" y="-124.29" font-family="Helvetica,sans-Serif" font-size="10.00" fill="grey">normal_styles</text>
<text text-anchor="middle" x="220" y="-113.29" font-family="Helvetica,sans-Serif" font-size="10.00" fill="grey">shaded_styles</text>
<text text-anchor="start" x="159" y="-102.29" font-family="Helvetica,sans-Serif" font-size="10.00" fill="grey">tiled_left_and_shaded</text>
<text text-anchor="middle" x="220" y="-91.29" font-family="Helvetica,sans-Serif" font-size="10.00" fill="grey">_styles</text>
<text text-anchor="middle" x="220" y="-80.29" font-family="Helvetica,sans-Serif" font-size="10.00" fill="grey">tiled_left_styles</text>
<text text-anchor="start" x="159" y="-69.29" font-family="Helvetica,sans-Serif" font-size="10.00" fill="grey">tiled_right_and_shaded</text>
<text text-anchor="middle" x="220" y="-58.29" font-family="Helvetica,sans-Serif" font-size="10.00" fill="grey">_styles</text>
<text text-anchor="middle" x="220" y="-47.29" font-family="Helvetica,sans-Serif" font-size="10.00" fill="grey">tiled_right_styles</text>
</g>
<!-- Node2&#45;&gt;Node2 -->
<g id="edge3_Node000002_Node000002" class="edge">
<title>Node2&#45;&gt;Node2</title>
<g id="a_edge3_Node000002_Node000002"><a xlink:title=" ">
<path fill="none" stroke="#9a32cd" stroke-dasharray="5,2" d="M182.4,-206.15C204.29,-213.04 228,-208.58 228,-192.79 228,-174.65 196.75,-171.47 172.89,-183.22"/>
<polygon fill="#9a32cd" stroke="#9a32cd" points="183.47,-202.81 172.89,-202.35 180.87,-209.31 183.47,-202.81"/>
</a>
</g>
<text text-anchor="middle" x="245.5" y="-190.29" font-family="Helvetica,sans-Serif" font-size="10.00" fill="grey"> parent</text>
</g>
<!-- Node3 -->
<g id="Node000003" class="node">
<title>Node3</title>
<g id="a_Node000003"><a xlink:href="struct__MetaDrawOpList.html" target="_top" xlink:title=" ">
<polygon fill="white" stroke="#666666" points="825.5,-390.79 722.5,-390.79 722.5,-371.79 825.5,-371.79 825.5,-390.79"/>
<text text-anchor="middle" x="774" y="-378.79" font-family="Helvetica,sans-Serif" font-size="10.00">_MetaDrawOpList</text>
</a>
</g>
</g>
<!-- Node3&#45;&gt;Node2 -->
<g id="edge4_Node000002_Node000003" class="edge">
<title>Node3&#45;&gt;Node2</title>
<g id="a_edge4_Node000002_Node000003"><a xlink:title=" ">
<path fill="none" stroke="#9a32cd" stroke-dasharray="5,2" d="M739.52,-368.31C713.37,-358.92 681.21,-346.58 677,-341.29 643.1,-298.69 698.42,-256.75 658,-220.29 641.57,-205.47 334.46,-197.44 210.37,-194.79"/>
<polygon fill="#9a32cd" stroke="#9a32cd" points="738.58,-371.69 749.18,-371.74 740.93,-365.1 738.58,-371.69"/>
</a>
</g>
<text text-anchor="middle" x="697" y="-283.79" font-family="Helvetica,sans-Serif" font-size="10.00" fill="grey"> buttons</text>
<text text-anchor="middle" x="697" y="-272.79" font-family="Helvetica,sans-Serif" font-size="10.00" fill="grey">pieces</text>
</g>
<!-- Node4 -->
<g id="Node000004" class="node">
<title>Node4</title>
<g id="a_Node000004"><a xlink:href="struct__MetaDrawOp.html" target="_top" xlink:title=" ">
<polygon fill="white" stroke="#666666" points="587,-202.29 501,-202.29 501,-183.29 587,-183.29 587,-202.29"/>
<text text-anchor="middle" x="544" y="-190.29" font-family="Helvetica,sans-Serif" font-size="10.00">_MetaDrawOp</text>
</a>
</g>
</g>
<!-- Node3&#45;&gt;Node4 -->
<g id="edge12_Node000004_Node000003" class="edge">
<title>Node3&#45;&gt;Node4</title>
<g id="a_edge12_Node000004_Node000003"><a xlink:title=" ">
<path fill="none" stroke="#9a32cd" stroke-dasharray="5,2" d="M756.46,-364.33C750.31,-357.79 743.95,-349.76 740,-341.29 716.99,-291.95 759.63,-258.64 721,-220.29 702.64,-202.06 633.29,-196.33 587.04,-194.56"/>
<polygon fill="#9a32cd" stroke="#9a32cd" points="754.38,-367.2 763.95,-371.75 759.31,-362.23 754.38,-367.2"/>
</a>
</g>
<text text-anchor="middle" x="758" y="-278.29" font-family="Helvetica,sans-Serif" font-size="10.00" fill="grey"> op_list</text>
</g>
<!-- Node4&#45;&gt;Node3 -->
<g id="edge5_Node000003_Node000004" class="edge">
<title>Node4&#45;&gt;Node3</title>
<g id="a_edge5_Node000003_Node000004"><a xlink:title=" ">
<path fill="none" stroke="#9a32cd" stroke-dasharray="5,2" d="M597.24,-196.08C663.1,-199.46 768.03,-206.9 780,-220.29 819.28,-264.22 789.39,-345.12 777.95,-371.63"/>
<polygon fill="#9a32cd" stroke="#9a32cd" points="597.19,-192.57 587.03,-195.57 596.84,-199.56 597.19,-192.57"/>
</a>
</g>
<text text-anchor="middle" x="809.5" y="-278.29" font-family="Helvetica,sans-Serif" font-size="10.00" fill="grey"> ops</text>
</g>
<!-- Node5 -->
<g id="Node000005" class="node">
<title>Node5</title>
<g id="a_Node000005"><a xlink:href="struct__MetaColorSpec.html" target="_top" xlink:title=" ">
<polygon fill="white" stroke="#666666" points="223.5,-390.79 128.5,-390.79 128.5,-371.79 223.5,-371.79 223.5,-390.79"/>
<text text-anchor="middle" x="176" y="-378.79" font-family="Helvetica,sans-Serif" font-size="10.00">_MetaColorSpec</text>
</a>
</g>
</g>
<!-- Node5&#45;&gt;Node2 -->
<g id="edge14_Node000002_Node000005" class="edge">
<title>Node5&#45;&gt;Node2</title>
<g id="a_edge14_Node000002_Node000005"><a xlink:title=" ">
<path fill="none" stroke="#9a32cd" stroke-dasharray="5,2" d="M167,-362.44C164.18,-355.95 161.44,-348.44 160,-341.29 149.62,-289.57 155.3,-225.57 157.91,-202.55"/>
<polygon fill="#9a32cd" stroke="#9a32cd" points="163.89,-364.04 171.31,-371.61 170.22,-361.07 163.89,-364.04"/>
</a>
</g>
<text text-anchor="middle" x="226.5" y="-278.29" font-family="Helvetica,sans-Serif" font-size="10.00" fill="grey"> window_background_color</text>
</g>
<!-- Node5&#45;&gt;Node4 -->
<g id="edge6_Node000004_Node000005" class="edge">
<title>Node5&#45;&gt;Node4</title>
<g id="a_edge6_Node000004_Node000005"><a xlink:title=" ">
<path fill="none" stroke="#9a32cd" stroke-dasharray="5,2" d="M233.4,-373.88C255.1,-368.55 278.13,-358.86 293,-341.29 328.17,-299.74 272.71,-257.96 312,-220.29 325.35,-207.49 437.57,-199.47 500.91,-195.92"/>
<polygon fill="#9a32cd" stroke="#9a32cd" points="232.58,-370.48 223.56,-376.04 234.08,-377.32 232.58,-370.48"/>
</a>
</g>
<text text-anchor="middle" x="345.5" y="-283.79" font-family="Helvetica,sans-Serif" font-size="10.00" fill="grey"> color_spec</text>
<text text-anchor="middle" x="345.5" y="-272.79" font-family="Helvetica,sans-Serif" font-size="10.00" fill="grey">colorize_spec</text>
</g>
<!-- Node5&#45;&gt;Node5 -->
<g id="edge7_Node000005_Node000005" class="edge">
<title>Node5&#45;&gt;Node5</title>
<g id="a_edge7_Node000005_Node000005"><a xlink:title=" ">
<path fill="none" stroke="#9a32cd" stroke-dasharray="5,2" d="M233.86,-387.62C238.58,-386.24 241.5,-384.13 241.5,-381.29 241.5,-376.73 234.01,-374.06 223.69,-373.28"/>
<polygon fill="#9a32cd" stroke="#9a32cd" points="232.99,-384.21 223.69,-389.29 234.13,-391.12 232.99,-384.21"/>
</a>
</g>
<text text-anchor="middle" x="272" y="-395.29" font-family="Helvetica,sans-Serif" font-size="10.00" fill="grey"> background</text>
<text text-anchor="middle" x="272" y="-384.29" font-family="Helvetica,sans-Serif" font-size="10.00" fill="grey">base</text>
<text text-anchor="middle" x="272" y="-373.29" font-family="Helvetica,sans-Serif" font-size="10.00" fill="grey">fallback</text>
<text text-anchor="middle" x="272" y="-362.29" font-family="Helvetica,sans-Serif" font-size="10.00" fill="grey">foreground</text>
</g>
<!-- Node6 -->
<g id="Node000006" class="node">
<title>Node6</title>
<g id="a_Node000006"><a xlink:href="struct__MetaDrawSpec.html" target="_top" xlink:title=" ">
<polygon fill="white" stroke="#666666" points="415.5,-390.79 320.5,-390.79 320.5,-371.79 415.5,-371.79 415.5,-390.79"/>
<text text-anchor="middle" x="368" y="-378.79" font-family="Helvetica,sans-Serif" font-size="10.00">_MetaDrawSpec</text>
</a>
</g>
</g>
<!-- Node6&#45;&gt;Node4 -->
<g id="edge8_Node000004_Node000006" class="edge">
<title>Node6&#45;&gt;Node4</title>
<g id="a_edge8_Node000004_Node000006"><a xlink:title=" ">
<path fill="none" stroke="#9a32cd" stroke-dasharray="5,2" d="M375.5,-362.43C378.1,-355.86 380.88,-348.31 383,-341.29 398.93,-288.54 370.57,-258.77 410,-220.29 422.77,-207.82 466.84,-200.86 500.99,-197.23"/>
<polygon fill="#9a32cd" stroke="#9a32cd" points="372.24,-361.16 371.71,-371.74 378.73,-363.8 372.24,-361.16"/>
</a>
</g>
<text text-anchor="middle" x="448" y="-333.29" font-family="Helvetica,sans-Serif" font-size="10.00" fill="grey"> ellipsize_width</text>
<text text-anchor="middle" x="448" y="-322.29" font-family="Helvetica,sans-Serif" font-size="10.00" fill="grey">height</text>
<text text-anchor="middle" x="448" y="-311.29" font-family="Helvetica,sans-Serif" font-size="10.00" fill="grey">tile_height</text>
<text text-anchor="middle" x="448" y="-300.29" font-family="Helvetica,sans-Serif" font-size="10.00" fill="grey">tile_width</text>
<text text-anchor="middle" x="448" y="-289.29" font-family="Helvetica,sans-Serif" font-size="10.00" fill="grey">tile_xoffset</text>
<text text-anchor="middle" x="448" y="-278.29" font-family="Helvetica,sans-Serif" font-size="10.00" fill="grey">tile_yoffset</text>
<text text-anchor="middle" x="448" y="-267.29" font-family="Helvetica,sans-Serif" font-size="10.00" fill="grey">width</text>
<text text-anchor="middle" x="448" y="-256.29" font-family="Helvetica,sans-Serif" font-size="10.00" fill="grey">x</text>
<text text-anchor="middle" x="448" y="-245.29" font-family="Helvetica,sans-Serif" font-size="10.00" fill="grey">x1</text>
<text text-anchor="middle" x="448" y="-234.29" font-family="Helvetica,sans-Serif" font-size="10.00" fill="grey">x2</text>
<text text-anchor="middle" x="448" y="-223.29" font-family="Helvetica,sans-Serif" font-size="10.00" fill="grey">...</text>
</g>
<!-- Node7 -->
<g id="Node000007" class="node">
<title>Node7</title>
<g id="a_Node000007"><a xlink:href="structPosToken.html" target="_top" xlink:title=" ">
<polygon fill="white" stroke="#666666" points="399,-469.29 337,-469.29 337,-450.29 399,-450.29 399,-469.29"/>
<text text-anchor="middle" x="368" y="-457.29" font-family="Helvetica,sans-Serif" font-size="10.00">PosToken</text>
</a>
</g>
</g>
<!-- Node7&#45;&gt;Node6 -->
<g id="edge9_Node000006_Node000007" class="edge">
<title>Node7&#45;&gt;Node6</title>
<g id="a_edge9_Node000006_Node000007"><a xlink:title=" ">
<path fill="none" stroke="#9a32cd" stroke-dasharray="5,2" d="M368,-439.89C368,-424.26 368,-402.78 368,-390.96"/>
<polygon fill="#9a32cd" stroke="#9a32cd" points="364.5,-440.01 368,-450.01 371.5,-440.01 364.5,-440.01"/>
</a>
</g>
<text text-anchor="middle" x="386" y="-424.29" font-family="Helvetica,sans-Serif" font-size="10.00" fill="grey"> tokens</text>
</g>
<!-- Node8 -->
<g id="Node000008" class="node">
<title>Node8</title>
<g id="a_Node000008"><a xlink:href="struct__MetaAlphaGradientSpec.html" target="_top" xlink:title=" ">
<polygon fill="white" stroke="#666666" points="574,-390.79 434,-390.79 434,-371.79 574,-371.79 574,-390.79"/>
<text text-anchor="middle" x="504" y="-378.79" font-family="Helvetica,sans-Serif" font-size="10.00">_MetaAlphaGradientSpec</text>
</a>
</g>
</g>
<!-- Node8&#45;&gt;Node4 -->
<g id="edge10_Node000004_Node000008" class="edge">
<title>Node8&#45;&gt;Node4</title>
<g id="a_edge10_Node000004_Node000008"><a xlink:title=" ">
<path fill="none" stroke="#9a32cd" stroke-dasharray="5,2" d="M498.85,-361.69C491.29,-330.39 480.54,-266.13 505,-220.29 509.16,-212.49 516.75,-206.55 524.14,-202.3"/>
<polygon fill="#9a32cd" stroke="#9a32cd" points="495.53,-362.83 501.43,-371.63 502.31,-361.07 495.53,-362.83"/>
</a>
</g>
<text text-anchor="middle" x="534" y="-278.29" font-family="Helvetica,sans-Serif" font-size="10.00" fill="grey"> alpha_spec</text>
</g>
<!-- Node9 -->
<g id="Node000009" class="node">
<title>Node9</title>
<g id="a_Node000009"><a xlink:href="struct__MetaGradientSpec.html" target="_top" xlink:title=" ">
<polygon fill="white" stroke="#666666" points="704,-390.79 592,-390.79 592,-371.79 704,-371.79 704,-390.79"/>
<text text-anchor="middle" x="648" y="-378.79" font-family="Helvetica,sans-Serif" font-size="10.00">_MetaGradientSpec</text>
</a>
</g>
</g>
<!-- Node9&#45;&gt;Node4 -->
<g id="edge11_Node000004_Node000009" class="edge">
<title>Node9&#45;&gt;Node4</title>
<g id="a_edge11_Node000004_Node000009"><a xlink:title=" ">
<path fill="none" stroke="#9a32cd" stroke-dasharray="5,2" d="M616.49,-367.05C605.24,-360.81 593.5,-352.28 586,-341.29 555.16,-296.06 584.57,-270.6 563,-220.29 560.23,-213.84 555.69,-207.42 551.74,-202.51"/>
<polygon fill="#9a32cd" stroke="#9a32cd" points="615.22,-370.33 625.72,-371.75 618.4,-364.09 615.22,-370.33"/>
</a>
</g>
<text text-anchor="middle" x="622" y="-278.29" font-family="Helvetica,sans-Serif" font-size="10.00" fill="grey"> gradient_spec</text>
</g>
<!-- Node10 -->
<g id="Node000010" class="node">
<title>Node10</title>
<g id="a_Node000010"><a xlink:href="struct__MetaFrameLayout.html" target="_top" xlink:title=" ">
<polygon fill="white" stroke="#666666" points="110,-390.79 0,-390.79 0,-371.79 110,-371.79 110,-390.79"/>
<text text-anchor="middle" x="55" y="-378.79" font-family="Helvetica,sans-Serif" font-size="10.00">_MetaFrameLayout</text>
</a>
</g>
</g>
<!-- Node10&#45;&gt;Node2 -->
<g id="edge13_Node000002_Node000010" class="edge">
<title>Node10&#45;&gt;Node2</title>
<g id="a_edge13_Node000002_Node000010"><a xlink:title=" ">
<path fill="none" stroke="#9a32cd" stroke-dasharray="5,2" d="M58.09,-361.49C64.19,-329.39 80.38,-263.32 116,-220.29 122.26,-212.72 131.28,-206.7 139.43,-202.33"/>
<polygon fill="#9a32cd" stroke="#9a32cd" points="54.58,-361.22 56.28,-371.67 61.48,-362.44 54.58,-361.22"/>
</a>
</g>
<text text-anchor="middle" x="133" y="-278.29" font-family="Helvetica,sans-Serif" font-size="10.00" fill="grey"> layout</text>
</g>
</g>
</svg>

<g id="navigator" transform="translate(0 0)" fill="#404254">
  <rect fill="#f2f5e9" fill-opacity="0.5" stroke="#606060" stroke-width=".5" x="0" y="0" width="60" height="60"/>
  <use id="zoomplus" xlink:href="#zoomPlus" x="17" y="9" onmousedown="handleZoom(evt,'in')"/>
  <use id="zoomminus" xlink:href="#zoomMin" x="42" y="9" onmousedown="handleZoom(evt,'out')"/>
  <use id="reset" xlink:href="#resetDef" x="30" y="36" onmousedown="handleReset()"/>
   <use id="arrowup" xlink:href="#arrowUp" x="0" y="0" onmousedown="handlePan(0,-1)"/>
  <use id="arrowright" xlink:href="#arrowRight" x="0" y="0" onmousedown="handlePan(1,0)"/>
  <use id="arrowdown" xlink:href="#arrowDown" x="0" y="0" onmousedown="handlePan(0,1)"/>
  <use id="arrowleft" xlink:href="#arrowLeft" x="0" y="0" onmousedown="handlePan(-1,0)"/>
</g>
<svg viewBox="0 0 15 15" width="100%" height="30px" preserveAspectRatio="xMaxYMin meet">
 <g id="arrow_out" transform="scale(0.3 0.3)">
  <a xlink:href="struct__MetaFrameStyleSet__coll__graph_org.svg" target="_base">
   <rect id="button" ry="5" rx="5" y="6" x="6" height="38" width="38"
        fill="#f2f5e9" fill-opacity="0.5" stroke="#606060" stroke-width="1.0"/>
   <path id="arrow"
     d="M 11.500037,31.436501 C 11.940474,20.09759 22.043105,11.32322 32.158766,21.979434 L 37.068811,17.246167 C 37.068811,17.246167 37.088388,32 37.088388,32 L 22.160133,31.978069 C 22.160133,31.978069 26.997745,27.140456 26.997745,27.140456 C 18.528582,18.264221 13.291696,25.230495 11.500037,31.436501 z"
     style="fill:#404040;"/>
  </a>
 </g>
</svg>

<style type='text/css'>
<![CDATA[
[data-mouse-over-selected='false'] { opacity: 0.7; }
[data-mouse-over-selected='true']  { opacity: 1.0; }
]]>
</style>
<script type="application/ecmascript"><![CDATA[
document.addEventListener('DOMContentLoaded', (event) => {
  highlightEdges();
  highlightAdjacentNodes();
});
]]></script>
</svg>
