<?xml version="1.0" encoding="UTF-8" standalone="no"?>
<!DOCTYPE svg PUBLIC "-//W3C//DTD SVG 1.1//EN"
 "http://www.w3.org/Graphics/SVG/1.1/DTD/svg11.dtd">
<!-- Generated by graphviz version 2.43.0 (0)
 -->
<!-- Title: _PlumaFileBrowserPlugin Pages: 1 -->
<!--zoomable 687 -->

<svg id="main" version="1.1" xmlns="http://www.w3.org/2000/svg" xmlns:xlink="http://www.w3.org/1999/xlink" xml:space="preserve" onload="init(evt)">
<style type="text/css"><![CDATA[
.node, .edge {opacity: 0.7;}
.node.selected, .edge.selected {opacity: 1;}
.edge:hover path { stroke: red; }
.edge:hover polygon { stroke: red; fill: red; }
]]></style>

<defs>
  <circle id="rim" cx="0" cy="0" r="7"/>
  <circle id="rim2" cx="0" cy="0" r="3.5"/>
  <g id="zoomPlus">
    <use xlink:href="#rim" fill="#404040"><set attributeName="fill" to="#808080" begin="zoomplus.mouseover" end="zoomplus.mouseout"/></use>
    <path d="M-4,0h8M0,-4v8" fill="none" stroke="white" stroke-width="1.5" pointer-events="none"/>
  </g>
  <g id="zoomMin">
    <use xlink:href="#rim" fill="#404040"><set attributeName="fill" to="#808080" begin="zoomminus.mouseover" end="zoomminus.mouseout"/></use>
    <path d="M-4,0h8" fill="none" stroke="white" stroke-width="1.5" pointer-events="none"/>
  </g>
  <g id="arrowUp" transform="translate(30 24)">
    <use xlink:href="#rim"/>
    <path pointer-events="none" fill="none" stroke="white" stroke-width="1.5" d="M0,-3.0v7 M-2.5,-0.5L0,-3.0L2.5,-0.5"/>
  </g>
  <g id="arrowRight" transform="rotate(90) translate(36 -43)">
    <use xlink:href="#rim"/>
    <path pointer-events="none" fill="none" stroke="white" stroke-width="1.5" d="M0,-3.0v7 M-2.5,-0.5L0,-3.0L2.5,-0.5"/>
  </g>
  <g id="arrowDown" transform="rotate(180) translate(-30 -48)">
    <use xlink:href="#rim"/>
    <path pointer-events="none" fill="none" stroke="white" stroke-width="1.5" d="M0,-3.0v7 M-2.5,-0.5L0,-3.0L2.5,-0.5"/>
  </g>
  <g id="arrowLeft" transform="rotate(270) translate(-36 17)">
    <use xlink:href="#rim"/>
    <path pointer-events="none" fill="none" stroke="white" stroke-width="1.5" d="M0,-3.0v7 M-2.5,-0.5L0,-3.0L2.5,-0.5"/>
  </g>
  <g id="resetDef">
    <use xlink:href="#rim2" fill="#404040"><set attributeName="fill" to="#808080" begin="reset.mouseover" end="reset.mouseout"/></use>
  </g>
</defs>
<script type="application/ecmascript">
var viewWidth = 1091;
var viewHeight = 687;
var sectionId = 'dynsection-0';
</script>
<script type="application/ecmascript" xlink:href="svg.min.js"/>
<svg id="graph" class="graph">
<g id="viewport">
<title>_PlumaFileBrowserPlugin</title>
<!-- Node1 -->
<g id="Node000001" class="node">
<title>Node1</title>
<g id="a_Node000001"><a xlink:title=" ">
<polygon fill="#999999" stroke="#666666" points="576.5,-19 436.5,-19 436.5,0 576.5,0 576.5,-19"/>
<text text-anchor="middle" x="506.5" y="-7" font-family="Helvetica,sans-Serif" font-size="10.00">_PlumaFileBrowserPlugin</text>
</a>
</g>
</g>
<!-- Node2 -->
<g id="Node000002" class="node">
<title>Node2</title>
<g id="a_Node000002"><a xlink:title=" ">
<polygon fill="white" stroke="#666666" points="593.5,-85 419.5,-85 419.5,-66 593.5,-66 593.5,-85"/>
<text text-anchor="middle" x="506.5" y="-73" font-family="Helvetica,sans-Serif" font-size="10.00">_PlumaFileBrowserPluginPrivate</text>
</a>
</g>
</g>
<!-- Node2&#45;&gt;Node1 -->
<g id="edge1_Node000001_Node000002" class="edge">
<title>Node2&#45;&gt;Node1</title>
<g id="a_edge1_Node000001_Node000002"><a xlink:title=" ">
<path fill="none" stroke="#9a32cd" stroke-dasharray="5,2" d="M506.5,-55.58C506.5,-43.63 506.5,-28.72 506.5,-19.41"/>
<polygon fill="#9a32cd" stroke="#9a32cd" points="503,-55.87 506.5,-65.87 510,-55.87 503,-55.87"/>
</a>
</g>
<text text-anchor="middle" x="517.5" y="-40" font-family="Helvetica,sans-Serif" font-size="10.00" fill="grey"> priv</text>
</g>
<!-- Node3 -->
<g id="Node000003" class="node">
<title>Node3</title>
<g id="a_Node000003"><a xlink:href="struct__PlumaWindow.html" target="_top" xlink:title=" ">
<polygon fill="white" stroke="#666666" points="484.5,-151 392.5,-151 392.5,-132 484.5,-132 484.5,-151"/>
<text text-anchor="middle" x="438.5" y="-139" font-family="Helvetica,sans-Serif" font-size="10.00">_PlumaWindow</text>
</a>
</g>
</g>
<!-- Node3&#45;&gt;Node2 -->
<g id="edge2_Node000002_Node000003" class="edge">
<title>Node3&#45;&gt;Node2</title>
<g id="a_edge2_Node000002_Node000003"><a xlink:title=" ">
<path fill="none" stroke="#9a32cd" stroke-dasharray="5,2" d="M455.15,-124.83C468.31,-112.44 486.22,-95.59 497.04,-85.41"/>
<polygon fill="#9a32cd" stroke="#9a32cd" points="452.55,-122.47 447.67,-131.87 457.35,-127.56 452.55,-122.47"/>
</a>
</g>
<text text-anchor="middle" x="498" y="-106" font-family="Helvetica,sans-Serif" font-size="10.00" fill="grey"> window</text>
</g>
<!-- Node4 -->
<g id="Node000004" class="node">
<title>Node4</title>
<g id="a_Node000004"><a xlink:href="struct__PlumaWindowPrivate.html" target="_top" xlink:title=" ">
<polygon fill="white" stroke="#666666" points="371.5,-239 245.5,-239 245.5,-220 371.5,-220 371.5,-239"/>
<text text-anchor="middle" x="308.5" y="-227" font-family="Helvetica,sans-Serif" font-size="10.00">_PlumaWindowPrivate</text>
</a>
</g>
</g>
<!-- Node4&#45;&gt;Node3 -->
<g id="edge3_Node000003_Node000004" class="edge">
<title>Node4&#45;&gt;Node3</title>
<g id="a_edge3_Node000003_Node000004"><a xlink:title=" ">
<path fill="none" stroke="#9a32cd" stroke-dasharray="5,2" d="M329.88,-214.35C357.1,-196.35 403.26,-165.81 425.61,-151.03"/>
<polygon fill="#9a32cd" stroke="#9a32cd" points="327.85,-211.5 321.44,-219.94 331.71,-217.34 327.85,-211.5"/>
</a>
</g>
<text text-anchor="middle" x="407.5" y="-183" font-family="Helvetica,sans-Serif" font-size="10.00" fill="grey"> priv</text>
</g>
<!-- Node5 -->
<g id="Node000005" class="node">
<title>Node5</title>
<g id="a_Node000005"><a xlink:href="struct__PlumaMessageBus.html" target="_top" xlink:title=" ">
<polygon fill="white" stroke="#666666" points="233.5,-305 119.5,-305 119.5,-286 233.5,-286 233.5,-305"/>
<text text-anchor="middle" x="176.5" y="-293" font-family="Helvetica,sans-Serif" font-size="10.00">_PlumaMessageBus</text>
</a>
</g>
</g>
<!-- Node5&#45;&gt;Node4 -->
<g id="edge4_Node000004_Node000005" class="edge">
<title>Node5&#45;&gt;Node4</title>
<g id="a_edge4_Node000004_Node000005"><a xlink:title=" ">
<path fill="none" stroke="#9a32cd" stroke-dasharray="5,2" d="M196.38,-280.02C207.27,-272.51 221.23,-263.56 234.5,-257 248.94,-249.87 265.79,-243.68 279.76,-239.08"/>
<polygon fill="#9a32cd" stroke="#9a32cd" points="194.18,-277.29 188.02,-285.91 198.21,-283.01 194.18,-277.29"/>
</a>
</g>
<text text-anchor="middle" x="269.5" y="-260" font-family="Helvetica,sans-Serif" font-size="10.00" fill="grey"> message_bus</text>
</g>
<!-- Node6 -->
<g id="Node000006" class="node">
<title>Node6</title>
<g id="a_Node000006"><a xlink:title=" ">
<polygon fill="white" stroke="#666666" points="238,-376.5 89,-376.5 89,-357.5 238,-357.5 238,-376.5"/>
<text text-anchor="middle" x="163.5" y="-364.5" font-family="Helvetica,sans-Serif" font-size="10.00">_PlumaMessageBusPrivate</text>
</a>
</g>
</g>
<!-- Node6&#45;&gt;Node5 -->
<g id="edge5_Node000005_Node000006" class="edge">
<title>Node6&#45;&gt;Node5</title>
<g id="a_edge5_Node000005_Node000006"><a xlink:title=" ">
<path fill="none" stroke="#9a32cd" stroke-dasharray="5,2" d="M166.94,-347.62C169.51,-333.86 172.92,-315.65 174.89,-305.09"/>
<polygon fill="#9a32cd" stroke="#9a32cd" points="163.49,-347 165.09,-357.48 170.37,-348.29 163.49,-347"/>
</a>
</g>
<text text-anchor="middle" x="182.5" y="-326" font-family="Helvetica,sans-Serif" font-size="10.00" fill="grey"> priv</text>
</g>
<!-- Node7 -->
<g id="Node000007" class="node">
<title>Node7</title>
<g id="a_Node000007"><a xlink:href="struct__PlumaTab.html" target="_top" xlink:title=" ">
<polygon fill="white" stroke="#666666" points="343,-305 274,-305 274,-286 343,-286 343,-305"/>
<text text-anchor="middle" x="308.5" y="-293" font-family="Helvetica,sans-Serif" font-size="10.00">_PlumaTab</text>
</a>
</g>
</g>
<!-- Node7&#45;&gt;Node4 -->
<g id="edge6_Node000004_Node000007" class="edge">
<title>Node7&#45;&gt;Node4</title>
<g id="a_edge6_Node000004_Node000007"><a xlink:title=" ">
<path fill="none" stroke="#9a32cd" stroke-dasharray="5,2" d="M308.5,-275.58C308.5,-263.63 308.5,-248.72 308.5,-239.41"/>
<polygon fill="#9a32cd" stroke="#9a32cd" points="305,-275.87 308.5,-285.87 312,-275.87 305,-275.87"/>
</a>
</g>
<text text-anchor="middle" x="336" y="-260" font-family="Helvetica,sans-Serif" font-size="10.00" fill="grey"> active_tab</text>
</g>
<!-- Node8 -->
<g id="Node000008" class="node">
<title>Node8</title>
<g id="a_Node000008"><a xlink:title=" ">
<polygon fill="white" stroke="#666666" points="360.5,-376.5 256.5,-376.5 256.5,-357.5 360.5,-357.5 360.5,-376.5"/>
<text text-anchor="middle" x="308.5" y="-364.5" font-family="Helvetica,sans-Serif" font-size="10.00">_PlumaTabPrivate</text>
</a>
</g>
</g>
<!-- Node8&#45;&gt;Node7 -->
<g id="edge7_Node000007_Node000008" class="edge">
<title>Node8&#45;&gt;Node7</title>
<g id="a_edge7_Node000007_Node000008"><a xlink:title=" ">
<path fill="none" stroke="#9a32cd" stroke-dasharray="5,2" d="M308.5,-347.21C308.5,-333.5 308.5,-315.55 308.5,-305.09"/>
<polygon fill="#9a32cd" stroke="#9a32cd" points="305,-347.48 308.5,-357.48 312,-347.48 305,-347.48"/>
</a>
</g>
<text text-anchor="middle" x="319.5" y="-326" font-family="Helvetica,sans-Serif" font-size="10.00" fill="grey"> priv</text>
</g>
<!-- Node9 -->
<g id="Node000009" class="node">
<title>Node9</title>
<g id="a_Node000009"><a xlink:href="struct__PlumaPrintJob.html" target="_top" xlink:title=" ">
<polygon fill="white" stroke="#666666" points="120.5,-448 30.5,-448 30.5,-429 120.5,-429 120.5,-448"/>
<text text-anchor="middle" x="75.5" y="-436" font-family="Helvetica,sans-Serif" font-size="10.00">_PlumaPrintJob</text>
</a>
</g>
</g>
<!-- Node9&#45;&gt;Node8 -->
<g id="edge8_Node000008_Node000009" class="edge">
<title>Node9&#45;&gt;Node8</title>
<g id="a_edge8_Node000008_Node000009"><a xlink:title=" ">
<path fill="none" stroke="#9a32cd" stroke-dasharray="5,2" d="M80.16,-419.1C82.89,-412.03 87.1,-404.57 93.5,-400 121.36,-380.1 212.76,-387.78 246.5,-382 255.31,-380.49 264.75,-378.54 273.54,-376.57"/>
<polygon fill="#9a32cd" stroke="#9a32cd" points="76.78,-418.21 77.15,-428.8 83.46,-420.29 76.78,-418.21"/>
</a>
</g>
<text text-anchor="middle" x="116.5" y="-403" font-family="Helvetica,sans-Serif" font-size="10.00" fill="grey"> print_job</text>
</g>
<!-- Node10 -->
<g id="Node000010" class="node">
<title>Node10</title>
<g id="a_Node000010"><a xlink:title=" ">
<polygon fill="white" stroke="#666666" points="125,-525 0,-525 0,-506 125,-506 125,-525"/>
<text text-anchor="middle" x="62.5" y="-513" font-family="Helvetica,sans-Serif" font-size="10.00">_PlumaPrintJobPrivate</text>
</a>
</g>
</g>
<!-- Node10&#45;&gt;Node9 -->
<g id="edge9_Node000009_Node000010" class="edge">
<title>Node10&#45;&gt;Node9</title>
<g id="a_edge9_Node000009_Node000010"><a xlink:title=" ">
<path fill="none" stroke="#9a32cd" stroke-dasharray="5,2" d="M65.71,-495.97C68.37,-480.65 72.02,-459.59 74.03,-448"/>
<polygon fill="#9a32cd" stroke="#9a32cd" points="62.25,-495.45 63.99,-505.9 69.15,-496.64 62.25,-495.45"/>
</a>
</g>
<text text-anchor="middle" x="82.5" y="-474.5" font-family="Helvetica,sans-Serif" font-size="10.00" fill="grey"> priv</text>
</g>
<!-- Node11 -->
<g id="Node000011" class="node">
<title>Node11</title>
<g id="a_Node000011"><a xlink:href="struct__PlumaView.html" target="_top" xlink:title=" ">
<polygon fill="white" stroke="#666666" points="101,-602 24,-602 24,-583 101,-583 101,-602"/>
<text text-anchor="middle" x="62.5" y="-590" font-family="Helvetica,sans-Serif" font-size="10.00">_PlumaView</text>
</a>
</g>
</g>
<!-- Node11&#45;&gt;Node10 -->
<g id="edge10_Node000010_Node000011" class="edge">
<title>Node11&#45;&gt;Node10</title>
<g id="a_edge10_Node000010_Node000011"><a xlink:title=" ">
<path fill="none" stroke="#9a32cd" stroke-dasharray="5,2" d="M62.5,-572.52C62.5,-557.24 62.5,-536.48 62.5,-525"/>
<polygon fill="#9a32cd" stroke="#9a32cd" points="59,-572.9 62.5,-582.9 66,-572.9 59,-572.9"/>
</a>
</g>
<text text-anchor="middle" x="76" y="-551.5" font-family="Helvetica,sans-Serif" font-size="10.00" fill="grey"> view</text>
</g>
<!-- Node12 -->
<g id="Node000012" class="node">
<title>Node12</title>
<g id="a_Node000012"><a xlink:title=" ">
<polygon fill="white" stroke="#666666" points="118,-673.5 7,-673.5 7,-654.5 118,-654.5 118,-673.5"/>
<text text-anchor="middle" x="62.5" y="-661.5" font-family="Helvetica,sans-Serif" font-size="10.00">_PlumaViewPrivate</text>
</a>
</g>
</g>
<!-- Node12&#45;&gt;Node11 -->
<g id="edge11_Node000011_Node000012" class="edge">
<title>Node12&#45;&gt;Node11</title>
<g id="a_edge11_Node000011_Node000012"><a xlink:title=" ">
<path fill="none" stroke="#9a32cd" stroke-dasharray="5,2" d="M62.5,-644.21C62.5,-630.5 62.5,-612.55 62.5,-602.09"/>
<polygon fill="#9a32cd" stroke="#9a32cd" points="59,-644.48 62.5,-654.48 66,-644.48 59,-644.48"/>
</a>
</g>
<text text-anchor="middle" x="73.5" y="-623" font-family="Helvetica,sans-Serif" font-size="10.00" fill="grey"> priv</text>
</g>
<!-- Node13 -->
<g id="Node000013" class="node">
<title>Node13</title>
<g id="a_Node000013"><a xlink:href="struct__PlumaDocument.html" target="_top" xlink:title=" ">
<polygon fill="white" stroke="#666666" points="355,-602 252,-602 252,-583 355,-583 355,-602"/>
<text text-anchor="middle" x="303.5" y="-590" font-family="Helvetica,sans-Serif" font-size="10.00">_PlumaDocument</text>
</a>
</g>
</g>
<!-- Node13&#45;&gt;Node10 -->
<g id="edge12_Node000010_Node000013" class="edge">
<title>Node13&#45;&gt;Node10</title>
<g id="a_edge12_Node000010_Node000013"><a xlink:title=" ">
<path fill="none" stroke="#9a32cd" stroke-dasharray="5,2" d="M241.61,-591.43C204.43,-589.29 157.01,-582.76 118.5,-565 105.06,-558.8 104.68,-552.7 93.5,-543 86.55,-536.97 78.66,-530.23 72.58,-525.06"/>
<polygon fill="#9a32cd" stroke="#9a32cd" points="241.66,-594.94 251.81,-591.92 242,-587.94 241.66,-594.94"/>
</a>
</g>
<text text-anchor="middle" x="129" y="-551.5" font-family="Helvetica,sans-Serif" font-size="10.00" fill="grey"> doc</text>
</g>
<!-- Node14 -->
<g id="Node000014" class="node">
<title>Node14</title>
<g id="a_Node000014"><a xlink:title=" ">
<polygon fill="white" stroke="#666666" points="516,-376.5 379,-376.5 379,-357.5 516,-357.5 516,-376.5"/>
<text text-anchor="middle" x="447.5" y="-364.5" font-family="Helvetica,sans-Serif" font-size="10.00">_PlumaDocumentPrivate</text>
</a>
</g>
</g>
<!-- Node13&#45;&gt;Node14 -->
<g id="edge26_Node000014_Node000013" class="edge">
<title>Node13&#45;&gt;Node14</title>
<g id="a_edge26_Node000014_Node000013"><a xlink:title=" ">
<path fill="none" stroke="#9a32cd" stroke-dasharray="5,2" d="M277.06,-578.15C236.77,-555.99 167.68,-509.72 197.5,-466 222.65,-429.12 350.07,-392.58 412.68,-376.51"/>
<polygon fill="#9a32cd" stroke="#9a32cd" points="275.42,-581.24 285.89,-582.88 278.72,-575.07 275.42,-581.24"/>
</a>
</g>
<text text-anchor="middle" x="261" y="-474.5" font-family="Helvetica,sans-Serif" font-size="10.00" fill="grey"> mount_operation_factory</text>
</g>
<!-- Node17 -->
<g id="Node000017" class="node">
<title>Node17</title>
<g id="a_Node000017"><a xlink:title=" ">
<polygon fill="white" stroke="#666666" points="847.5,-525 677.5,-525 677.5,-506 847.5,-506 847.5,-525"/>
<text text-anchor="middle" x="762.5" y="-513" font-family="Helvetica,sans-Serif" font-size="10.00">_PlumaDocumentLoaderPrivate</text>
</a>
</g>
</g>
<!-- Node13&#45;&gt;Node17 -->
<g id="edge17_Node000017_Node000013" class="edge">
<title>Node13&#45;&gt;Node17</title>
<g id="a_edge17_Node000017_Node000013"><a xlink:title=" ">
<path fill="none" stroke="#9a32cd" stroke-dasharray="5,2" d="M365.16,-581.42C456.18,-566.55 624.92,-538.98 710.22,-525.04"/>
<polygon fill="#9a32cd" stroke="#9a32cd" points="364.57,-577.98 355.26,-583.04 365.69,-584.88 364.57,-577.98"/>
</a>
</g>
<text text-anchor="middle" x="614.5" y="-551.5" font-family="Helvetica,sans-Serif" font-size="10.00" fill="grey"> document</text>
</g>
<!-- Node21 -->
<g id="Node000021" class="node">
<title>Node21</title>
<g id="a_Node000021"><a xlink:title=" ">
<polygon fill="white" stroke="#666666" points="497,-525 332,-525 332,-506 497,-506 497,-525"/>
<text text-anchor="middle" x="414.5" y="-513" font-family="Helvetica,sans-Serif" font-size="10.00">_PlumaDocumentSaverPrivate</text>
</a>
</g>
</g>
<!-- Node13&#45;&gt;Node21 -->
<g id="edge23_Node000021_Node000013" class="edge">
<title>Node13&#45;&gt;Node21</title>
<g id="a_edge23_Node000021_Node000013"><a xlink:title=" ">
<path fill="none" stroke="#9a32cd" stroke-dasharray="5,2" d="M312.29,-573.74C318.17,-563.49 326.79,-551.06 337.5,-543 348.34,-534.84 361.88,-529.07 374.57,-525.05"/>
<polygon fill="#9a32cd" stroke="#9a32cd" points="309.14,-572.23 307.52,-582.7 315.31,-575.52 309.14,-572.23"/>
</a>
</g>
<text text-anchor="middle" x="363.5" y="-551.5" font-family="Helvetica,sans-Serif" font-size="10.00" fill="grey"> document</text>
</g>
<!-- Node14&#45;&gt;Node13 -->
<g id="edge13_Node000013_Node000014" class="edge">
<title>Node14&#45;&gt;Node13</title>
<g id="a_edge13_Node000013_Node000014"><a xlink:title=" ">
<path fill="none" stroke="#9a32cd" stroke-dasharray="5,2" d="M421.59,-381.49C402.76,-392.32 377.66,-408.99 360.5,-429 319.43,-476.89 307.34,-556.23 304.36,-582.64"/>
<polygon fill="#9a32cd" stroke="#9a32cd" points="423.5,-384.43 430.54,-376.51 420.1,-378.32 423.5,-384.43"/>
</a>
</g>
<text text-anchor="middle" x="347.5" y="-474.5" font-family="Helvetica,sans-Serif" font-size="10.00" fill="grey"> priv</text>
</g>
<!-- Node15 -->
<g id="Node000015" class="node">
<title>Node15</title>
<g id="a_Node000015"><a xlink:title=" ">
<polygon fill="white" stroke="#666666" points="641,-602 544,-602 544,-583 641,-583 641,-602"/>
<text text-anchor="middle" x="592.5" y="-590" font-family="Helvetica,sans-Serif" font-size="10.00">_PlumaEncoding</text>
</a>
</g>
</g>
<!-- Node15&#45;&gt;Node8 -->
<g id="edge27_Node000008_Node000015" class="edge">
<title>Node15&#45;&gt;Node8</title>
<g id="a_edge27_Node000008_Node000015"><a xlink:title=" ">
<path fill="none" stroke="#9a32cd" stroke-dasharray="5,2" d="M579.97,-574.82C557.91,-546.84 509.13,-491.07 453.5,-466 415.12,-448.7 395.42,-471.52 360.5,-448 333.85,-430.05 317.73,-393.36 311.48,-376.64"/>
<polygon fill="#9a32cd" stroke="#9a32cd" points="577.29,-577.07 586.17,-582.85 582.83,-572.79 577.29,-577.07"/>
</a>
</g>
<text text-anchor="middle" x="528" y="-474.5" font-family="Helvetica,sans-Serif" font-size="10.00" fill="grey"> tmp_encoding</text>
</g>
<!-- Node15&#45;&gt;Node14 -->
<g id="edge14_Node000014_Node000015" class="edge">
<title>Node15&#45;&gt;Node14</title>
<g id="a_edge14_Node000014_Node000015"><a xlink:title=" ">
<path fill="none" stroke="#9a32cd" stroke-dasharray="5,2" d="M603.58,-574.08C621.2,-544.07 651.94,-480.86 634.5,-429 629.34,-413.67 626.24,-408.55 612.5,-400 609.94,-398.41 541.73,-385.5 493.82,-376.57"/>
<polygon fill="#9a32cd" stroke="#9a32cd" points="600.41,-572.56 598.19,-582.92 606.38,-576.2 600.41,-572.56"/>
</a>
</g>
<text text-anchor="middle" x="690" y="-480" font-family="Helvetica,sans-Serif" font-size="10.00" fill="grey"> encoding</text>
<text text-anchor="middle" x="690" y="-469" font-family="Helvetica,sans-Serif" font-size="10.00" fill="grey">requested_encoding</text>
</g>
<!-- Node15&#45;&gt;Node17 -->
<g id="edge18_Node000017_Node000015" class="edge">
<title>Node15&#45;&gt;Node17</title>
<g id="a_edge18_Node000017_Node000015"><a xlink:title=" ">
<path fill="none" stroke="#9a32cd" stroke-dasharray="5,2" d="M630.58,-579.14C639.52,-575.34 648.7,-570.64 656.5,-565 666.97,-557.44 664.67,-550.05 675.5,-543 688.07,-534.82 703.29,-529.06 717.47,-525.05"/>
<polygon fill="#9a32cd" stroke="#9a32cd" points="629.07,-575.98 621.06,-582.91 631.65,-582.48 629.07,-575.98"/>
</a>
</g>
<text text-anchor="middle" x="737" y="-557" font-family="Helvetica,sans-Serif" font-size="10.00" fill="grey"> auto_detected_encoding</text>
<text text-anchor="middle" x="737" y="-546" font-family="Helvetica,sans-Serif" font-size="10.00" fill="grey">encoding</text>
</g>
<!-- Node15&#45;&gt;Node21 -->
<g id="edge24_Node000021_Node000015" class="edge">
<title>Node15&#45;&gt;Node21</title>
<g id="a_edge24_Node000021_Node000015"><a xlink:title=" ">
<path fill="none" stroke="#9a32cd" stroke-dasharray="5,2" d="M533.57,-590.86C487.23,-588.96 428,-582.95 412.5,-565 403.03,-554.03 407.19,-535.91 410.94,-525.2"/>
<polygon fill="#9a32cd" stroke="#9a32cd" points="533.72,-594.37 543.84,-591.22 533.97,-587.37 533.72,-594.37"/>
</a>
</g>
<text text-anchor="middle" x="436.5" y="-551.5" font-family="Helvetica,sans-Serif" font-size="10.00" fill="grey"> encoding</text>
</g>
<!-- Node16 -->
<g id="Node000016" class="node">
<title>Node16</title>
<g id="a_Node000016"><a xlink:href="struct__PlumaDocumentLoader.html" target="_top" xlink:title=" ">
<polygon fill="white" stroke="#666666" points="826.5,-448 690.5,-448 690.5,-429 826.5,-429 826.5,-448"/>
<text text-anchor="middle" x="758.5" y="-436" font-family="Helvetica,sans-Serif" font-size="10.00">_PlumaDocumentLoader</text>
</a>
</g>
</g>
<!-- Node16&#45;&gt;Node14 -->
<g id="edge15_Node000014_Node000016" class="edge">
<title>Node16&#45;&gt;Node14</title>
<g id="a_edge15_Node000014_Node000016"><a xlink:title=" ">
<path fill="none" stroke="#9a32cd" stroke-dasharray="5,2" d="M732.64,-424.53C715,-416.24 690.86,-405.95 668.5,-400 606.6,-383.53 588.82,-391.66 525.5,-382 514.89,-380.38 503.51,-378.45 492.8,-376.55"/>
<polygon fill="#9a32cd" stroke="#9a32cd" points="731.2,-427.72 741.73,-428.9 734.23,-421.41 731.2,-427.72"/>
</a>
</g>
<text text-anchor="middle" x="716.5" y="-403" font-family="Helvetica,sans-Serif" font-size="10.00" fill="grey"> loader</text>
</g>
<!-- Node17&#45;&gt;Node16 -->
<g id="edge16_Node000016_Node000017" class="edge">
<title>Node17&#45;&gt;Node16</title>
<g id="a_edge16_Node000016_Node000017"><a xlink:title=" ">
<path fill="none" stroke="#9a32cd" stroke-dasharray="5,2" d="M761.49,-495.52C760.67,-480.24 759.57,-459.48 758.95,-448"/>
<polygon fill="#9a32cd" stroke="#9a32cd" points="758.01,-496.1 762.04,-505.9 765,-495.72 758.01,-496.1"/>
</a>
</g>
<text text-anchor="middle" x="772.5" y="-474.5" font-family="Helvetica,sans-Serif" font-size="10.00" fill="grey"> priv</text>
</g>
<!-- Node18 -->
<g id="Node000018" class="node">
<title>Node18</title>
<g id="a_Node000018"><a xlink:href="struct__PlumaSmartCharsetConverter.html" target="_top" xlink:title=" ">
<polygon fill="white" stroke="#666666" points="908,-602 741,-602 741,-583 908,-583 908,-602"/>
<text text-anchor="middle" x="824.5" y="-590" font-family="Helvetica,sans-Serif" font-size="10.00">_PlumaSmartCharsetConverter</text>
</a>
</g>
</g>
<!-- Node18&#45;&gt;Node17 -->
<g id="edge19_Node000017_Node000018" class="edge">
<title>Node18&#45;&gt;Node17</title>
<g id="a_edge19_Node000017_Node000018"><a xlink:title=" ">
<path fill="none" stroke="#9a32cd" stroke-dasharray="5,2" d="M818.99,-573.27C815.4,-563.54 809.99,-551.79 802.5,-543 796.23,-535.65 787.43,-529.51 779.68,-525.01"/>
<polygon fill="#9a32cd" stroke="#9a32cd" points="815.69,-574.43 822.17,-582.81 822.33,-572.21 815.69,-574.43"/>
</a>
</g>
<text text-anchor="middle" x="839.5" y="-551.5" font-family="Helvetica,sans-Serif" font-size="10.00" fill="grey"> converter</text>
</g>
<!-- Node19 -->
<g id="Node000019" class="node">
<title>Node19</title>
<g id="a_Node000019"><a xlink:title=" ">
<polygon fill="white" stroke="#666666" points="908,-679 741,-679 741,-649 908,-649 908,-679"/>
<text text-anchor="start" x="749" y="-667" font-family="Helvetica,sans-Serif" font-size="10.00">_PlumaSmartCharsetConverter</text>
<text text-anchor="middle" x="824.5" y="-656" font-family="Helvetica,sans-Serif" font-size="10.00">Private</text>
</a>
</g>
</g>
<!-- Node19&#45;&gt;Node18 -->
<g id="edge20_Node000018_Node000019" class="edge">
<title>Node19&#45;&gt;Node18</title>
<g id="a_edge20_Node000018_Node000019"><a xlink:title=" ">
<path fill="none" stroke="#9a32cd" stroke-dasharray="5,2" d="M824.5,-638.56C824.5,-625.95 824.5,-611.35 824.5,-602.27"/>
<polygon fill="#9a32cd" stroke="#9a32cd" points="821,-638.94 824.5,-648.94 828,-638.94 821,-638.94"/>
</a>
</g>
<text text-anchor="middle" x="835.5" y="-623" font-family="Helvetica,sans-Serif" font-size="10.00" fill="grey"> priv</text>
</g>
<!-- Node20 -->
<g id="Node000020" class="node">
<title>Node20</title>
<g id="a_Node000020"><a xlink:href="struct__PlumaDocumentSaver.html" target="_top" xlink:title=" ">
<polygon fill="white" stroke="#666666" points="501,-448 370,-448 370,-429 501,-429 501,-448"/>
<text text-anchor="middle" x="435.5" y="-436" font-family="Helvetica,sans-Serif" font-size="10.00">_PlumaDocumentSaver</text>
</a>
</g>
</g>
<!-- Node20&#45;&gt;Node14 -->
<g id="edge21_Node000014_Node000020" class="edge">
<title>Node20&#45;&gt;Node14</title>
<g id="a_edge21_Node000014_Node000020"><a xlink:title=" ">
<path fill="none" stroke="#9a32cd" stroke-dasharray="5,2" d="M438.67,-419.12C441.05,-405.36 444.19,-387.15 446.02,-376.59"/>
<polygon fill="#9a32cd" stroke="#9a32cd" points="435.22,-418.53 436.97,-428.98 442.12,-419.72 435.22,-418.53"/>
</a>
</g>
<text text-anchor="middle" x="458" y="-403" font-family="Helvetica,sans-Serif" font-size="10.00" fill="grey"> saver</text>
</g>
<!-- Node21&#45;&gt;Node20 -->
<g id="edge22_Node000020_Node000021" class="edge">
<title>Node21&#45;&gt;Node20</title>
<g id="a_edge22_Node000020_Node000021"><a xlink:title=" ">
<path fill="none" stroke="#9a32cd" stroke-dasharray="5,2" d="M419.69,-495.97C423.98,-480.65 429.87,-459.59 433.12,-448"/>
<polygon fill="#9a32cd" stroke="#9a32cd" points="416.23,-495.32 416.91,-505.9 422.98,-497.21 416.23,-495.32"/>
</a>
</g>
<text text-anchor="middle" x="438.5" y="-474.5" font-family="Helvetica,sans-Serif" font-size="10.00" fill="grey"> priv</text>
</g>
<!-- Node22 -->
<g id="Node000022" class="node">
<title>Node22</title>
<g id="a_Node000022"><a xlink:title=" ">
<polygon fill="white" stroke="#666666" points="626,-448 519,-448 519,-429 626,-429 626,-448"/>
<text text-anchor="middle" x="572.5" y="-436" font-family="Helvetica,sans-Serif" font-size="10.00">_PlumaTextRegion</text>
</a>
</g>
</g>
<!-- Node22&#45;&gt;Node14 -->
<g id="edge25_Node000014_Node000022" class="edge">
<title>Node22&#45;&gt;Node14</title>
<g id="a_edge25_Node000014_Node000022"><a xlink:title=" ">
<path fill="none" stroke="#9a32cd" stroke-dasharray="5,2" d="M548.23,-424.01C523.01,-409.98 484.29,-388.46 462.95,-376.59"/>
<polygon fill="#9a32cd" stroke="#9a32cd" points="546.73,-427.18 557.17,-428.98 550.13,-421.06 546.73,-427.18"/>
</a>
</g>
<text text-anchor="middle" x="565" y="-403" font-family="Helvetica,sans-Serif" font-size="10.00" fill="grey"> to_search_region</text>
</g>
<!-- Node23 -->
<g id="Node000023" class="node">
<title>Node23</title>
<g id="a_Node000023"><a xlink:href="struct__PlumaFileBrowserWidget.html" target="_top" xlink:title=" ">
<polygon fill="white" stroke="#666666" points="668.5,-151 524.5,-151 524.5,-132 668.5,-132 668.5,-151"/>
<text text-anchor="middle" x="596.5" y="-139" font-family="Helvetica,sans-Serif" font-size="10.00">_PlumaFileBrowserWidget</text>
</a>
</g>
</g>
<!-- Node23&#45;&gt;Node2 -->
<g id="edge28_Node000002_Node000023" class="edge">
<title>Node23&#45;&gt;Node2</title>
<g id="a_edge28_Node000002_Node000023"><a xlink:title=" ">
<path fill="none" stroke="#9a32cd" stroke-dasharray="5,2" d="M575.88,-125.83C558.22,-113.28 533.4,-95.63 518.73,-85.2"/>
<polygon fill="#9a32cd" stroke="#9a32cd" points="574.18,-128.93 584.36,-131.87 578.24,-123.22 574.18,-128.93"/>
</a>
</g>
<text text-anchor="middle" x="588" y="-106" font-family="Helvetica,sans-Serif" font-size="10.00" fill="grey"> tree_widget</text>
</g>
<!-- Node24 -->
<g id="Node000024" class="node">
<title>Node24</title>
<g id="a_Node000024"><a xlink:title=" ">
<polygon fill="white" stroke="#666666" points="708,-239 529,-239 529,-220 708,-220 708,-239"/>
<text text-anchor="middle" x="618.5" y="-227" font-family="Helvetica,sans-Serif" font-size="10.00">_PlumaFileBrowserWidgetPrivate</text>
</a>
</g>
</g>
<!-- Node24&#45;&gt;Node23 -->
<g id="edge29_Node000023_Node000024" class="edge">
<title>Node24&#45;&gt;Node23</title>
<g id="a_edge29_Node000023_Node000024"><a xlink:title=" ">
<path fill="none" stroke="#9a32cd" stroke-dasharray="5,2" d="M613.81,-210.17C609.14,-191.92 602.18,-164.72 598.68,-151.03"/>
<polygon fill="#9a32cd" stroke="#9a32cd" points="610.44,-211.12 616.31,-219.94 617.22,-209.38 610.44,-211.12"/>
</a>
</g>
<text text-anchor="middle" x="622.5" y="-183" font-family="Helvetica,sans-Serif" font-size="10.00" fill="grey"> priv</text>
</g>
<!-- Node25 -->
<g id="Node000025" class="node">
<title>Node25</title>
<g id="a_Node000025"><a xlink:href="struct__PlumaFileBrowserView.html" target="_top" xlink:title=" ">
<polygon fill="white" stroke="#666666" points="685.5,-305 551.5,-305 551.5,-286 685.5,-286 685.5,-305"/>
<text text-anchor="middle" x="618.5" y="-293" font-family="Helvetica,sans-Serif" font-size="10.00">_PlumaFileBrowserView</text>
</a>
</g>
</g>
<!-- Node25&#45;&gt;Node24 -->
<g id="edge30_Node000024_Node000025" class="edge">
<title>Node25&#45;&gt;Node24</title>
<g id="a_edge30_Node000024_Node000025"><a xlink:title=" ">
<path fill="none" stroke="#9a32cd" stroke-dasharray="5,2" d="M618.5,-275.58C618.5,-263.63 618.5,-248.72 618.5,-239.41"/>
<polygon fill="#9a32cd" stroke="#9a32cd" points="615,-275.87 618.5,-285.87 622,-275.87 615,-275.87"/>
</a>
</g>
<text text-anchor="middle" x="641.5" y="-260" font-family="Helvetica,sans-Serif" font-size="10.00" fill="grey"> treeview</text>
</g>
<!-- Node26 -->
<g id="Node000026" class="node">
<title>Node26</title>
<g id="a_Node000026"><a xlink:title=" ">
<polygon fill="white" stroke="#666666" points="702.5,-376.5 534.5,-376.5 534.5,-357.5 702.5,-357.5 702.5,-376.5"/>
<text text-anchor="middle" x="618.5" y="-364.5" font-family="Helvetica,sans-Serif" font-size="10.00">_PlumaFileBrowserViewPrivate</text>
</a>
</g>
</g>
<!-- Node26&#45;&gt;Node25 -->
<g id="edge31_Node000025_Node000026" class="edge">
<title>Node26&#45;&gt;Node25</title>
<g id="a_edge31_Node000025_Node000026"><a xlink:title=" ">
<path fill="none" stroke="#9a32cd" stroke-dasharray="5,2" d="M618.5,-347.21C618.5,-333.5 618.5,-315.55 618.5,-305.09"/>
<polygon fill="#9a32cd" stroke="#9a32cd" points="615,-347.48 618.5,-357.48 622,-347.48 615,-347.48"/>
</a>
</g>
<text text-anchor="middle" x="629.5" y="-326" font-family="Helvetica,sans-Serif" font-size="10.00" fill="grey"> priv</text>
</g>
<!-- Node27 -->
<g id="Node000027" class="node">
<title>Node27</title>
<g id="a_Node000027"><a xlink:href="struct__PlumaFileBrowserStore.html" target="_top" xlink:title=" ">
<polygon fill="white" stroke="#666666" points="1040,-305 905,-305 905,-286 1040,-286 1040,-305"/>
<text text-anchor="middle" x="972.5" y="-293" font-family="Helvetica,sans-Serif" font-size="10.00">_PlumaFileBrowserStore</text>
</a>
</g>
</g>
<!-- Node27&#45;&gt;Node24 -->
<g id="edge32_Node000024_Node000027" class="edge">
<title>Node27&#45;&gt;Node24</title>
<g id="a_edge32_Node000024_Node000027"><a xlink:title=" ">
<path fill="none" stroke="#9a32cd" stroke-dasharray="5,2" d="M928.76,-283.59C895.41,-275.52 848.25,-264.64 806.5,-257 767.76,-249.91 724.22,-243.66 688.8,-239.02"/>
<polygon fill="#9a32cd" stroke="#9a32cd" points="928.11,-287.03 938.65,-286 929.76,-280.23 928.11,-287.03"/>
</a>
</g>
<text text-anchor="middle" x="881" y="-260" font-family="Helvetica,sans-Serif" font-size="10.00" fill="grey"> file_store</text>
</g>
<!-- Node28 -->
<g id="Node000028" class="node">
<title>Node28</title>
<g id="a_Node000028"><a xlink:title=" ">
<polygon fill="white" stroke="#666666" points="1051.5,-151 881.5,-151 881.5,-132 1051.5,-132 1051.5,-151"/>
<text text-anchor="middle" x="966.5" y="-139" font-family="Helvetica,sans-Serif" font-size="10.00">_PlumaFileBrowserStorePrivate</text>
</a>
</g>
</g>
<!-- Node27&#45;&gt;Node28 -->
<g id="edge36_Node000028_Node000027" class="edge">
<title>Node27&#45;&gt;Node28</title>
<g id="a_edge36_Node000028_Node000027"><a xlink:title=" ">
<path fill="none" stroke="#9a32cd" stroke-dasharray="5,2" d="M985.51,-277.23C987.15,-274.28 988.58,-271.15 989.5,-268 1001.88,-225.78 1004.89,-210.22 989.5,-169 986.94,-162.15 981.73,-155.9 976.91,-151.19"/>
<polygon fill="#9a32cd" stroke="#9a32cd" points="982.43,-275.53 979.88,-285.82 988.29,-279.37 982.43,-275.53"/>
</a>
</g>
<text text-anchor="middle" x="1025.5" y="-227" font-family="Helvetica,sans-Serif" font-size="10.00" fill="grey"> filter_func</text>
</g>
<!-- Node30 -->
<g id="Node000030" class="node">
<title>Node30</title>
<g id="a_Node000030"><a xlink:title=" ">
<polygon fill="white" stroke="#666666" points="967.5,-239 901.5,-239 901.5,-220 967.5,-220 967.5,-239"/>
<text text-anchor="middle" x="934.5" y="-227" font-family="Helvetica,sans-Serif" font-size="10.00">MountInfo</text>
</a>
</g>
</g>
<!-- Node27&#45;&gt;Node30 -->
<g id="edge38_Node000030_Node000027" class="edge">
<title>Node27&#45;&gt;Node30</title>
<g id="a_edge38_Node000030_Node000027"><a xlink:title=" ">
<path fill="none" stroke="#9a32cd" stroke-dasharray="5,2" d="M961.19,-277.2C959.26,-274.16 957.3,-271 955.5,-268 949.66,-258.27 943.36,-246.88 939.19,-239.22"/>
<polygon fill="#9a32cd" stroke="#9a32cd" points="958.34,-279.24 966.7,-285.75 964.23,-275.45 958.34,-279.24"/>
</a>
</g>
<text text-anchor="middle" x="972.5" y="-260" font-family="Helvetica,sans-Serif" font-size="10.00" fill="grey"> model</text>
</g>
<!-- Node28&#45;&gt;Node27 -->
<g id="edge33_Node000027_Node000028" class="edge">
<title>Node28&#45;&gt;Node27</title>
<g id="a_edge33_Node000027_Node000028"><a xlink:title=" ">
<path fill="none" stroke="#9a32cd" stroke-dasharray="5,2" d="M996.94,-155.77C1004.03,-159.53 1011.32,-163.99 1017.5,-169 1040.32,-187.48 1049.58,-192.36 1059.5,-220 1071.02,-252.1 1028.06,-274.63 998.44,-286"/>
<polygon fill="#9a32cd" stroke="#9a32cd" points="998.02,-152.39 987.5,-151.07 994.9,-158.66 998.02,-152.39"/>
</a>
</g>
<text text-anchor="middle" x="1071.5" y="-227" font-family="Helvetica,sans-Serif" font-size="10.00" fill="grey"> priv</text>
</g>
<!-- Node29 -->
<g id="Node000029" class="node">
<title>Node29</title>
<g id="a_Node000029"><a xlink:title=" ">
<polygon fill="white" stroke="#666666" points="830.5,-239 726.5,-239 726.5,-220 830.5,-220 830.5,-239"/>
<text text-anchor="middle" x="778.5" y="-227" font-family="Helvetica,sans-Serif" font-size="10.00">_FileBrowserNode</text>
</a>
</g>
</g>
<!-- Node29&#45;&gt;Node28 -->
<g id="edge34_Node000028_Node000029" class="edge">
<title>Node29&#45;&gt;Node28</title>
<g id="a_edge34_Node000028_Node000029"><a xlink:title=" ">
<path fill="none" stroke="#9a32cd" stroke-dasharray="5,2" d="M796.16,-213.49C812.79,-200.06 838.92,-180.72 864.5,-169 881.8,-161.07 901.88,-155.21 919.62,-151.05"/>
<polygon fill="#9a32cd" stroke="#9a32cd" points="793.86,-210.85 788.37,-219.91 798.32,-216.25 793.86,-210.85"/>
</a>
</g>
<text text-anchor="middle" x="893" y="-194" font-family="Helvetica,sans-Serif" font-size="10.00" fill="grey"> root</text>
<text text-anchor="middle" x="893" y="-183" font-family="Helvetica,sans-Serif" font-size="10.00" fill="grey">sort_func</text>
<text text-anchor="middle" x="893" y="-172" font-family="Helvetica,sans-Serif" font-size="10.00" fill="grey">virtual_root</text>
</g>
<!-- Node29&#45;&gt;Node29 -->
<g id="edge35_Node000029_Node000029" class="edge">
<title>Node29&#45;&gt;Node29</title>
<g id="a_edge35_Node000029_Node000029"><a xlink:title=" ">
<path fill="none" stroke="#9a32cd" stroke-dasharray="5,2" d="M840.9,-233.99C845.61,-232.99 848.5,-231.49 848.5,-229.5 848.5,-226.31 841.09,-224.4 830.7,-223.75"/>
<polygon fill="#9a32cd" stroke="#9a32cd" points="840.2,-230.55 830.7,-235.25 841.06,-237.5 840.2,-230.55"/>
</a>
</g>
<text text-anchor="middle" x="866" y="-227" font-family="Helvetica,sans-Serif" font-size="10.00" fill="grey"> parent</text>
</g>
<!-- Node30&#45;&gt;Node28 -->
<g id="edge37_Node000028_Node000030" class="edge">
<title>Node30&#45;&gt;Node28</title>
<g id="a_edge37_Node000028_Node000030"><a xlink:title=" ">
<path fill="none" stroke="#9a32cd" stroke-dasharray="5,2" d="M928.52,-209.89C925.68,-197.64 924.13,-181.59 930.5,-169 934.35,-161.38 941.54,-155.42 948.49,-151.09"/>
<polygon fill="#9a32cd" stroke="#9a32cd" points="925.24,-211.18 931.3,-219.88 931.99,-209.3 925.24,-211.18"/>
</a>
</g>
<text text-anchor="middle" x="960" y="-183" font-family="Helvetica,sans-Serif" font-size="10.00" fill="grey"> mount_info</text>
</g>
<!-- Node31 -->
<g id="Node000031" class="node">
<title>Node31</title>
<g id="a_Node000031"><a xlink:href="struct__PlumaFileBookmarksStore.html" target="_top" xlink:title=" ">
<polygon fill="white" stroke="#666666" points="864,-305 713,-305 713,-286 864,-286 864,-305"/>
<text text-anchor="middle" x="788.5" y="-293" font-family="Helvetica,sans-Serif" font-size="10.00">_PlumaFileBookmarksStore</text>
</a>
</g>
</g>
<!-- Node31&#45;&gt;Node24 -->
<g id="edge39_Node000024_Node000031" class="edge">
<title>Node31&#45;&gt;Node24</title>
<g id="a_edge39_Node000024_Node000031"><a xlink:title=" ">
<path fill="none" stroke="#9a32cd" stroke-dasharray="5,2" d="M756.2,-282.34C722.61,-269.7 670.9,-250.23 641.33,-239.1"/>
<polygon fill="#9a32cd" stroke="#9a32cd" points="754.98,-285.62 765.57,-285.87 757.45,-279.07 754.98,-285.62"/>
</a>
</g>
<text text-anchor="middle" x="758.5" y="-260" font-family="Helvetica,sans-Serif" font-size="10.00" fill="grey"> bookmarks_store</text>
</g>
<!-- Node32 -->
<g id="Node000032" class="node">
<title>Node32</title>
<g id="a_Node000032"><a xlink:title=" ">
<polygon fill="white" stroke="#666666" points="872,-382 721,-382 721,-352 872,-352 872,-382"/>
<text text-anchor="start" x="729" y="-370" font-family="Helvetica,sans-Serif" font-size="10.00">_PlumaFileBookmarksStore</text>
<text text-anchor="middle" x="796.5" y="-359" font-family="Helvetica,sans-Serif" font-size="10.00">Private</text>
</a>
</g>
</g>
<!-- Node32&#45;&gt;Node31 -->
<g id="edge40_Node000031_Node000032" class="edge">
<title>Node32&#45;&gt;Node31</title>
<g id="a_edge40_Node000031_Node000032"><a xlink:title=" ">
<path fill="none" stroke="#9a32cd" stroke-dasharray="5,2" d="M793.73,-341.94C792.27,-329.24 790.56,-314.44 789.51,-305.27"/>
<polygon fill="#9a32cd" stroke="#9a32cd" points="790.26,-342.4 794.88,-351.94 797.21,-341.6 790.26,-342.4"/>
</a>
</g>
<text text-anchor="middle" x="804.5" y="-326" font-family="Helvetica,sans-Serif" font-size="10.00" fill="grey"> priv</text>
</g>
</g>
</svg>

<g id="navigator" transform="translate(0 0)" fill="#404254">
  <rect fill="#f2f5e9" fill-opacity="0.5" stroke="#606060" stroke-width=".5" x="0" y="0" width="60" height="60"/>
  <use id="zoomplus" xlink:href="#zoomPlus" x="17" y="9" onmousedown="handleZoom(evt,'in')"/>
  <use id="zoomminus" xlink:href="#zoomMin" x="42" y="9" onmousedown="handleZoom(evt,'out')"/>
  <use id="reset" xlink:href="#resetDef" x="30" y="36" onmousedown="handleReset()"/>
   <use id="arrowup" xlink:href="#arrowUp" x="0" y="0" onmousedown="handlePan(0,-1)"/>
  <use id="arrowright" xlink:href="#arrowRight" x="0" y="0" onmousedown="handlePan(1,0)"/>
  <use id="arrowdown" xlink:href="#arrowDown" x="0" y="0" onmousedown="handlePan(0,1)"/>
  <use id="arrowleft" xlink:href="#arrowLeft" x="0" y="0" onmousedown="handlePan(-1,0)"/>
</g>
<svg viewBox="0 0 15 15" width="100%" height="30px" preserveAspectRatio="xMaxYMin meet">
 <g id="arrow_out" transform="scale(0.3 0.3)">
  <a xlink:href="struct__PlumaFileBrowserPlugin__coll__graph_org.svg" target="_base">
   <rect id="button" ry="5" rx="5" y="6" x="6" height="38" width="38"
        fill="#f2f5e9" fill-opacity="0.5" stroke="#606060" stroke-width="1.0"/>
   <path id="arrow"
     d="M 11.500037,31.436501 C 11.940474,20.09759 22.043105,11.32322 32.158766,21.979434 L 37.068811,17.246167 C 37.068811,17.246167 37.088388,32 37.088388,32 L 22.160133,31.978069 C 22.160133,31.978069 26.997745,27.140456 26.997745,27.140456 C 18.528582,18.264221 13.291696,25.230495 11.500037,31.436501 z"
     style="fill:#404040;"/>
  </a>
 </g>
</svg>

<style type='text/css'>
<![CDATA[
[data-mouse-over-selected='false'] { opacity: 0.7; }
[data-mouse-over-selected='true']  { opacity: 1.0; }
]]>
</style>
<script type="application/ecmascript"><![CDATA[
document.addEventListener('DOMContentLoaded', (event) => {
  highlightEdges();
  highlightAdjacentNodes();
});
]]></script>
</svg>
