<?xml version="1.0" encoding="UTF-8" standalone="no"?>
<!DOCTYPE svg PUBLIC "-//W3C//DTD SVG 1.1//EN"
 "http://www.w3.org/Graphics/SVG/1.1/DTD/svg11.dtd">
<!-- Generated by graphviz version 2.43.0 (0)
 -->
<!-- Title: _CajaTreeViewDragDestClass Pages: 1 -->
<svg width="977pt" height="947pt"
 viewBox="0.00 0.00 977.00 946.50" xmlns="http://www.w3.org/2000/svg" xmlns:xlink="http://www.w3.org/1999/xlink">
<g id="graph0" class="graph" transform="scale(1 1) rotate(0) translate(4 942.5)">
<title>_CajaTreeViewDragDestClass</title>
<!-- Node1 -->
<g id="Node000001" class="node">
<title>Node1</title>
<g id="a_Node000001"><a xlink:title=" ">
<polygon fill="#999999" stroke="#666666" points="380,-731 220,-731 220,-712 380,-712 380,-731"/>
<text text-anchor="middle" x="300" y="-719" font-family="Helvetica,sans-Serif" font-size="10.00">_CajaTreeViewDragDestClass</text>
</a>
</g>
</g>
<!-- Node2 -->
<g id="Node000002" class="node">
<title>Node2</title>
<g id="a_Node000002"><a xlink:href="structCajaFile.html" target="_top" xlink:title=" ">
<polygon fill="white" stroke="#666666" points="71.5,-505 15.5,-505 15.5,-486 71.5,-486 71.5,-505"/>
<text text-anchor="middle" x="43.5" y="-493" font-family="Helvetica,sans-Serif" font-size="10.00">CajaFile</text>
</a>
</g>
</g>
<!-- Node2&#45;&gt;Node1 -->
<g id="edge1_Node000001_Node000002" class="edge">
<title>Node2&#45;&gt;Node1</title>
<g id="a_edge1_Node000001_Node000002"><a xlink:title=" ">
<path fill="none" stroke="#9a32cd" stroke-dasharray="5,2" d="M43.88,-515.05C43.75,-556.01 49.79,-650.86 105,-697.5 136.24,-723.89 181.05,-730.75 219.74,-730.63"/>
<polygon fill="#9a32cd" stroke="#9a32cd" points="47.38,-515.07 44.05,-505.02 40.38,-514.96 47.38,-515.07"/>
</a>
</g>
<text text-anchor="middle" x="153.5" y="-732.5" font-family="Helvetica,sans-Serif" font-size="10.00" fill="grey"> get_file_for_path</text>
</g>
<!-- Node5 -->
<g id="Node000005" class="node">
<title>Node5</title>
<g id="a_Node000005"><a xlink:href="struct__CajaDirectoryPrivate.html" target="_top" xlink:title=" ">
<polygon fill="white" stroke="#666666" points="361.5,-400 238.5,-400 238.5,-381 361.5,-381 361.5,-400"/>
<text text-anchor="middle" x="300" y="-388" font-family="Helvetica,sans-Serif" font-size="10.00">_CajaDirectoryPrivate</text>
</a>
</g>
</g>
<!-- Node2&#45;&gt;Node5 -->
<g id="edge5_Node000005_Node000002" class="edge">
<title>Node2&#45;&gt;Node5</title>
<g id="a_edge5_Node000005_Node000002"><a xlink:title=" ">
<path fill="none" stroke="#9a32cd" stroke-dasharray="5,2" d="M50.46,-476.36C58.69,-453.56 75.9,-416.45 105,-399.5 149.29,-373.71 209.37,-375.37 250.89,-380.98"/>
<polygon fill="#9a32cd" stroke="#9a32cd" points="47.1,-475.38 47.22,-485.97 53.73,-477.62 47.1,-475.38"/>
</a>
</g>
<text text-anchor="middle" x="153.5" y="-435.5" font-family="Helvetica,sans-Serif" font-size="10.00" fill="grey"> as_file</text>
<text text-anchor="middle" x="153.5" y="-424.5" font-family="Helvetica,sans-Serif" font-size="10.00" fill="grey">deep_count_file</text>
<text text-anchor="middle" x="153.5" y="-413.5" font-family="Helvetica,sans-Serif" font-size="10.00" fill="grey">extension_info_file</text>
<text text-anchor="middle" x="153.5" y="-402.5" font-family="Helvetica,sans-Serif" font-size="10.00" fill="grey">get_info_file</text>
</g>
<!-- Node8 -->
<g id="Node000008" class="node">
<title>Node8</title>
<g id="a_Node000008"><a xlink:title=" ">
<polygon fill="white" stroke="#666666" points="963,-859 853,-859 853,-840 963,-840 963,-859"/>
<text text-anchor="middle" x="908" y="-847" font-family="Helvetica,sans-Serif" font-size="10.00">DirectoryLoadState</text>
</a>
</g>
</g>
<!-- Node2&#45;&gt;Node8 -->
<g id="edge10_Node000008_Node000002" class="edge">
<title>Node2&#45;&gt;Node8</title>
<g id="a_edge10_Node000008_Node000002"><a xlink:title=" ">
<path fill="none" stroke="#9a32cd" stroke-dasharray="5,2" d="M46.03,-515.4C50.82,-572.32 67.54,-733.92 105,-768.5 213.8,-868.95 690.78,-858.67 852.87,-852.1"/>
<polygon fill="#9a32cd" stroke="#9a32cd" points="49.5,-514.89 45.2,-505.2 42.52,-515.45 49.5,-514.89"/>
</a>
</g>
<text text-anchor="middle" x="445" y="-854.5" font-family="Helvetica,sans-Serif" font-size="10.00" fill="grey"> load_directory_file</text>
</g>
<!-- Node9 -->
<g id="Node000009" class="node">
<title>Node9</title>
<g id="a_Node000009"><a xlink:title=" ">
<polygon fill="white" stroke="#666666" points="966,-772 850,-772 850,-753 966,-753 966,-772"/>
<text text-anchor="middle" x="908" y="-760" font-family="Helvetica,sans-Serif" font-size="10.00">DirectoryCountState</text>
</a>
</g>
</g>
<!-- Node2&#45;&gt;Node9 -->
<g id="edge13_Node000009_Node000002" class="edge">
<title>Node2&#45;&gt;Node9</title>
<g id="a_edge13_Node000009_Node000002"><a xlink:title=" ">
<path fill="none" stroke="#9a32cd" stroke-dasharray="5,2" d="M46.26,-515.25C51.5,-568.93 68.91,-715.47 105,-744.5 162.58,-790.82 675.98,-772.71 849.78,-765.16"/>
<polygon fill="#9a32cd" stroke="#9a32cd" points="49.72,-514.64 45.3,-505.01 42.75,-515.3 49.72,-514.64"/>
</a>
</g>
<text text-anchor="middle" x="445" y="-777.5" font-family="Helvetica,sans-Serif" font-size="10.00" fill="grey"> count_file</text>
</g>
<!-- Node11 -->
<g id="Node000011" class="node">
<title>Node11</title>
<g id="a_Node000011"><a xlink:title=" ">
<polygon fill="white" stroke="#666666" points="951.5,-688 864.5,-688 864.5,-669 951.5,-669 951.5,-688"/>
<text text-anchor="middle" x="908" y="-676" font-family="Helvetica,sans-Serif" font-size="10.00">MimeListState</text>
</a>
</g>
</g>
<!-- Node2&#45;&gt;Node11 -->
<g id="edge18_Node000011_Node000002" class="edge">
<title>Node2&#45;&gt;Node11</title>
<g id="a_edge18_Node000011_Node000002"><a xlink:title=" ">
<path fill="none" stroke="#9a32cd" stroke-dasharray="5,2" d="M65.92,-511.3C77.25,-519.32 91.56,-528.94 105,-536.5 273.98,-631.52 317.59,-674.81 510,-698.5 638.25,-714.29 791.29,-696.28 864.23,-685.47"/>
<polygon fill="#9a32cd" stroke="#9a32cd" points="67.71,-508.28 57.55,-505.28 63.62,-513.96 67.71,-508.28"/>
</a>
</g>
<text text-anchor="middle" x="445" y="-698.5" font-family="Helvetica,sans-Serif" font-size="10.00" fill="grey"> mime_list_file</text>
</g>
<!-- Node13 -->
<g id="Node000013" class="node">
<title>Node13</title>
<g id="a_Node000013"><a xlink:title=" ">
<polygon fill="white" stroke="#666666" points="955,-604 861,-604 861,-585 955,-585 955,-604"/>
<text text-anchor="middle" x="908" y="-592" font-family="Helvetica,sans-Serif" font-size="10.00">ThumbnailState</text>
</a>
</g>
</g>
<!-- Node2&#45;&gt;Node13 -->
<g id="edge23_Node000013_Node000002" class="edge">
<title>Node2&#45;&gt;Node13</title>
<g id="a_edge23_Node000013_Node000002"><a xlink:title=" ">
<path fill="none" stroke="#9a32cd" stroke-dasharray="5,2" d="M81.5,-504.75C89.26,-506.67 97.39,-508.66 105,-510.5 284.73,-553.86 326.34,-584.25 510,-605.5 650.84,-621.8 687.57,-615.42 829,-605.5 839.37,-604.77 850.45,-603.51 860.92,-602.09"/>
<polygon fill="#9a32cd" stroke="#9a32cd" points="82.14,-501.3 71.59,-502.29 80.45,-508.1 82.14,-501.3"/>
</a>
</g>
<text text-anchor="middle" x="445" y="-605.5" font-family="Helvetica,sans-Serif" font-size="10.00" fill="grey"> file</text>
</g>
<!-- Node14 -->
<g id="Node000014" class="node">
<title>Node14</title>
<g id="a_Node000014"><a xlink:title=" ">
<polygon fill="white" stroke="#666666" points="944.5,-520 871.5,-520 871.5,-501 944.5,-501 944.5,-520"/>
<text text-anchor="middle" x="908" y="-508" font-family="Helvetica,sans-Serif" font-size="10.00">MountState</text>
</a>
</g>
</g>
<!-- Node2&#45;&gt;Node14 -->
<g id="edge26_Node000014_Node000002" class="edge">
<title>Node2&#45;&gt;Node14</title>
<g id="a_edge26_Node000014_Node000002"><a xlink:title=" ">
<path fill="none" stroke="#9a32cd" stroke-dasharray="5,2" d="M82.13,-496.15C224.8,-498.64 731.27,-507.44 871.04,-509.87"/>
<polygon fill="#9a32cd" stroke="#9a32cd" points="81.8,-492.65 71.74,-495.97 81.68,-499.65 81.8,-492.65"/>
</a>
</g>
<text text-anchor="middle" x="445" y="-505.5" font-family="Helvetica,sans-Serif" font-size="10.00" fill="grey"> file</text>
</g>
<!-- Node15 -->
<g id="Node000015" class="node">
<title>Node15</title>
<g id="a_Node000015"><a xlink:title=" ">
<polygon fill="white" stroke="#666666" points="965,-436 851,-436 851,-417 965,-417 965,-436"/>
<text text-anchor="middle" x="908" y="-424" font-family="Helvetica,sans-Serif" font-size="10.00">FilesystemInfoState</text>
</a>
</g>
</g>
<!-- Node2&#45;&gt;Node15 -->
<g id="edge29_Node000015_Node000002" class="edge">
<title>Node2&#45;&gt;Node15</title>
<g id="a_edge29_Node000015_Node000002"><a xlink:title=" ">
<path fill="none" stroke="#9a32cd" stroke-dasharray="5,2" d="M81.79,-492.93C194.52,-485.08 541.66,-460.4 829,-434.5 836.05,-433.86 843.45,-433.16 850.78,-432.43"/>
<polygon fill="#9a32cd" stroke="#9a32cd" points="81.35,-489.45 71.62,-493.63 81.84,-496.43 81.35,-489.45"/>
</a>
</g>
<text text-anchor="middle" x="445" y="-472.5" font-family="Helvetica,sans-Serif" font-size="10.00" fill="grey"> file</text>
</g>
<!-- Node16 -->
<g id="Node000016" class="node">
<title>Node16</title>
<g id="a_Node000016"><a xlink:title=" ">
<polygon fill="white" stroke="#666666" points="969,-284 847,-284 847,-265 969,-265 969,-284"/>
<text text-anchor="middle" x="908" y="-272" font-family="Helvetica,sans-Serif" font-size="10.00">TopLeftTextReadState</text>
</a>
</g>
</g>
<!-- Node2&#45;&gt;Node16 -->
<g id="edge32_Node000016_Node000002" class="edge">
<title>Node2&#45;&gt;Node16</title>
<g id="a_edge32_Node000016_Node000002"><a xlink:title=" ">
<path fill="none" stroke="#9a32cd" stroke-dasharray="5,2" d="M52.45,-476.71C61.64,-454.49 76.8,-416.28 87,-382.5 97.28,-348.44 77.8,-327.43 105,-304.5 216.26,-210.71 679.87,-250 846.79,-267.64"/>
<polygon fill="#9a32cd" stroke="#9a32cd" points="49.2,-475.4 48.58,-485.97 55.66,-478.1 49.2,-475.4"/>
</a>
</g>
<text text-anchor="middle" x="445" y="-248.5" font-family="Helvetica,sans-Serif" font-size="10.00" fill="grey"> file</text>
</g>
<!-- Node17 -->
<g id="Node000017" class="node">
<title>Node17</title>
<g id="a_Node000017"><a xlink:title=" ">
<polygon fill="white" stroke="#666666" points="961,-200 855,-200 855,-181 961,-181 961,-200"/>
<text text-anchor="middle" x="908" y="-188" font-family="Helvetica,sans-Serif" font-size="10.00">LinkInfoReadState</text>
</a>
</g>
</g>
<!-- Node2&#45;&gt;Node17 -->
<g id="edge35_Node000017_Node000002" class="edge">
<title>Node2&#45;&gt;Node17</title>
<g id="a_edge35_Node000017_Node000002"><a xlink:title=" ">
<path fill="none" stroke="#9a32cd" stroke-dasharray="5,2" d="M53.07,-476.5C62.72,-454.36 78.19,-416.48 87,-382.5 100.65,-329.87 69.1,-302.33 105,-261.5 272.01,-71.55 415.07,-177.71 668,-178.5 739.56,-178.72 757.63,-174.27 829,-179.5 837.32,-180.11 846.1,-181.05 854.66,-182.14"/>
<polygon fill="#9a32cd" stroke="#9a32cd" points="49.82,-475.19 48.98,-485.75 56.22,-478.02 49.82,-475.19"/>
</a>
</g>
<text text-anchor="middle" x="445" y="-166.5" font-family="Helvetica,sans-Serif" font-size="10.00" fill="grey"> file</text>
</g>
<!-- Node3 -->
<g id="Node000003" class="node">
<title>Node3</title>
<g id="a_Node000003"><a xlink:href="struct__CajaFilePrivate.html" target="_top" xlink:title=" ">
<polygon fill="white" stroke="#666666" points="955.5,-57 860.5,-57 860.5,-38 955.5,-38 955.5,-57"/>
<text text-anchor="middle" x="908" y="-45" font-family="Helvetica,sans-Serif" font-size="10.00">_CajaFilePrivate</text>
</a>
</g>
</g>
<!-- Node3&#45;&gt;Node2 -->
<g id="edge2_Node000002_Node000003" class="edge">
<title>Node3&#45;&gt;Node2</title>
<g id="a_edge2_Node000002_Node000003"><a xlink:title=" ">
<path fill="none" stroke="#9a32cd" stroke-dasharray="5,2" d="M850.3,-47.54C683.33,-49 199.28,-63.25 105,-178.5 76.18,-213.72 97.1,-338.13 87,-382.5 77.97,-422.15 58.22,-466.6 49.18,-485.8"/>
<polygon fill="#9a32cd" stroke="#9a32cd" points="850.39,-51.04 860.36,-47.46 850.33,-44.04 850.39,-51.04"/>
</a>
</g>
<text text-anchor="middle" x="445" y="-80.5" font-family="Helvetica,sans-Serif" font-size="10.00" fill="grey"> details</text>
</g>
<!-- Node4 -->
<g id="Node000004" class="node">
<title>Node4</title>
<g id="a_Node000004"><a xlink:href="structCajaDirectory.html" target="_top" xlink:title=" ">
<polygon fill="white" stroke="#666666" points="630.5,-382 547.5,-382 547.5,-363 630.5,-363 630.5,-382"/>
<text text-anchor="middle" x="589" y="-370" font-family="Helvetica,sans-Serif" font-size="10.00">CajaDirectory</text>
</a>
</g>
</g>
<!-- Node4&#45;&gt;Node3 -->
<g id="edge3_Node000003_Node000004" class="edge">
<title>Node4&#45;&gt;Node3</title>
<g id="a_edge3_Node000003_Node000004"><a xlink:title=" ">
<path fill="none" stroke="#9a32cd" stroke-dasharray="5,2" d="M640.34,-366.47C650.95,-362.86 661.02,-357.23 668,-348.5 700.84,-307.41 652.91,-153.38 686,-112.5 707.89,-85.45 802.12,-65.15 860.24,-54.91"/>
<polygon fill="#9a32cd" stroke="#9a32cd" points="639.19,-363.15 630.52,-369.25 641.09,-369.89 639.19,-363.15"/>
</a>
</g>
<text text-anchor="middle" x="757.5" y="-115.5" font-family="Helvetica,sans-Serif" font-size="10.00" fill="grey"> directory</text>
</g>
<!-- Node4&#45;&gt;Node8 -->
<g id="edge9_Node000008_Node000004" class="edge">
<title>Node4&#45;&gt;Node8</title>
<g id="a_edge9_Node000008_Node000004"><a xlink:title=" ">
<path fill="none" stroke="#9a32cd" stroke-dasharray="5,2" d="M640.5,-378.41C651.1,-382.02 661.14,-387.68 668,-396.5 716.39,-458.65 641.51,-685.5 686,-750.5 708.62,-783.55 819.95,-822.23 875.44,-839.86"/>
<polygon fill="#9a32cd" stroke="#9a32cd" points="641.25,-374.98 630.67,-375.63 639.34,-381.72 641.25,-374.98"/>
</a>
</g>
<text text-anchor="middle" x="757.5" y="-825.5" font-family="Helvetica,sans-Serif" font-size="10.00" fill="grey"> directory</text>
</g>
<!-- Node4&#45;&gt;Node9 -->
<g id="edge12_Node000009_Node000004" class="edge">
<title>Node4&#45;&gt;Node9</title>
<g id="a_edge12_Node000009_Node000004"><a xlink:title=" ">
<path fill="none" stroke="#9a32cd" stroke-dasharray="5,2" d="M640.39,-378.49C651,-382.1 661.06,-387.74 668,-396.5 704.79,-442.94 652.22,-613.83 686,-662.5 708.99,-695.63 821.25,-735.15 876.36,-752.96"/>
<polygon fill="#9a32cd" stroke="#9a32cd" points="641.15,-375.07 630.57,-375.71 639.24,-381.8 641.15,-375.07"/>
</a>
</g>
<text text-anchor="middle" x="757.5" y="-738.5" font-family="Helvetica,sans-Serif" font-size="10.00" fill="grey"> directory</text>
</g>
<!-- Node10 -->
<g id="Node000010" class="node">
<title>Node10</title>
<g id="a_Node000010"><a xlink:title=" ">
<polygon fill="white" stroke="#666666" points="956,-359 860,-359 860,-340 956,-340 956,-359"/>
<text text-anchor="middle" x="908" y="-347" font-family="Helvetica,sans-Serif" font-size="10.00">DeepCountState</text>
</a>
</g>
</g>
<!-- Node4&#45;&gt;Node10 -->
<g id="edge15_Node000010_Node000004" class="edge">
<title>Node4&#45;&gt;Node10</title>
<g id="a_edge15_Node000010_Node000004"><a xlink:title=" ">
<path fill="none" stroke="#9a32cd" stroke-dasharray="5,2" d="M640.86,-368.81C701.27,-364.43 801.22,-357.17 859.92,-352.92"/>
<polygon fill="#9a32cd" stroke="#9a32cd" points="640.51,-365.33 630.79,-369.54 641.02,-372.31 640.51,-365.33"/>
</a>
</g>
<text text-anchor="middle" x="757.5" y="-368.5" font-family="Helvetica,sans-Serif" font-size="10.00" fill="grey"> directory</text>
</g>
<!-- Node4&#45;&gt;Node11 -->
<g id="edge17_Node000011_Node000004" class="edge">
<title>Node4&#45;&gt;Node11</title>
<g id="a_edge17_Node000011_Node000004"><a xlink:title=" ">
<path fill="none" stroke="#9a32cd" stroke-dasharray="5,2" d="M640.52,-378.74C651.02,-382.35 661,-387.93 668,-396.5 694.12,-428.5 661.76,-548.05 686,-581.5 698.26,-598.42 825.63,-647.88 881.25,-668.88"/>
<polygon fill="#9a32cd" stroke="#9a32cd" points="641.38,-375.35 630.8,-375.95 639.44,-382.08 641.38,-375.35"/>
</a>
</g>
<text text-anchor="middle" x="757.5" y="-650.5" font-family="Helvetica,sans-Serif" font-size="10.00" fill="grey"> directory</text>
</g>
<!-- Node12 -->
<g id="Node000012" class="node">
<title>Node12</title>
<g id="a_Node000012"><a xlink:title=" ">
<polygon fill="white" stroke="#666666" points="947,-133 869,-133 869,-114 947,-114 947,-133"/>
<text text-anchor="middle" x="908" y="-121" font-family="Helvetica,sans-Serif" font-size="10.00">GetInfoState</text>
</a>
</g>
</g>
<!-- Node4&#45;&gt;Node12 -->
<g id="edge20_Node000012_Node000004" class="edge">
<title>Node4&#45;&gt;Node12</title>
<g id="a_edge20_Node000012_Node000004"><a xlink:title=" ">
<path fill="none" stroke="#9a32cd" stroke-dasharray="5,2" d="M640.41,-366.17C650.92,-362.57 660.93,-357.01 668,-348.5 713.14,-294.12 640.74,-244.79 686,-190.5 731.18,-136.3 818.7,-124.96 868.98,-123.16"/>
<polygon fill="#9a32cd" stroke="#9a32cd" points="639.34,-362.84 630.7,-368.97 641.28,-369.57 639.34,-362.84"/>
</a>
</g>
<text text-anchor="middle" x="757.5" y="-193.5" font-family="Helvetica,sans-Serif" font-size="10.00" fill="grey"> directory</text>
</g>
<!-- Node4&#45;&gt;Node13 -->
<g id="edge22_Node000013_Node000004" class="edge">
<title>Node4&#45;&gt;Node13</title>
<g id="a_edge22_Node000013_Node000004"><a xlink:title=" ">
<path fill="none" stroke="#9a32cd" stroke-dasharray="5,2" d="M640.31,-379.29C650.72,-382.88 660.72,-388.31 668,-396.5 697.43,-429.59 658.72,-459.62 686,-494.5 710.97,-526.43 823.35,-566.88 877.56,-584.99"/>
<polygon fill="#9a32cd" stroke="#9a32cd" points="641.28,-375.93 630.7,-376.48 639.31,-382.65 641.28,-375.93"/>
</a>
</g>
<text text-anchor="middle" x="757.5" y="-569.5" font-family="Helvetica,sans-Serif" font-size="10.00" fill="grey"> directory</text>
</g>
<!-- Node4&#45;&gt;Node14 -->
<g id="edge25_Node000014_Node000004" class="edge">
<title>Node4&#45;&gt;Node14</title>
<g id="a_edge25_Node000014_Node000004"><a xlink:title=" ">
<path fill="none" stroke="#9a32cd" stroke-dasharray="5,2" d="M640.25,-383.57C649.88,-386.89 659.58,-391.12 668,-396.5 678.08,-402.94 676.27,-409.55 686,-416.5 719,-440.06 829.43,-482.08 880.58,-500.91"/>
<polygon fill="#9a32cd" stroke="#9a32cd" points="641.28,-380.23 630.69,-380.56 639.17,-386.9 641.28,-380.23"/>
</a>
</g>
<text text-anchor="middle" x="757.5" y="-482.5" font-family="Helvetica,sans-Serif" font-size="10.00" fill="grey"> directory</text>
</g>
<!-- Node4&#45;&gt;Node15 -->
<g id="edge28_Node000015_Node000004" class="edge">
<title>Node4&#45;&gt;Node15</title>
<g id="a_edge28_Node000015_Node000004"><a xlink:title=" ">
<path fill="none" stroke="#9a32cd" stroke-dasharray="5,2" d="M640.84,-375.86C689.55,-379.74 764.9,-387.47 829,-401.5 846.78,-405.39 866.28,-411.64 881.34,-416.92"/>
<polygon fill="#9a32cd" stroke="#9a32cd" points="640.8,-372.35 630.56,-375.07 640.27,-379.33 640.8,-372.35"/>
</a>
</g>
<text text-anchor="middle" x="757.5" y="-404.5" font-family="Helvetica,sans-Serif" font-size="10.00" fill="grey"> directory</text>
</g>
<!-- Node4&#45;&gt;Node16 -->
<g id="edge31_Node000016_Node000004" class="edge">
<title>Node4&#45;&gt;Node16</title>
<g id="a_edge31_Node000016_Node000004"><a xlink:title=" ">
<path fill="none" stroke="#9a32cd" stroke-dasharray="5,2" d="M632.66,-359.99C644.18,-356.44 656.61,-352.46 668,-348.5 676.11,-345.68 677.89,-344.3 686,-341.5 751.37,-318.92 828.99,-296.35 872.67,-284.03"/>
<polygon fill="#9a32cd" stroke="#9a32cd" points="631.36,-356.72 622.81,-362.98 633.39,-363.42 631.36,-356.72"/>
</a>
</g>
<text text-anchor="middle" x="757.5" y="-344.5" font-family="Helvetica,sans-Serif" font-size="10.00" fill="grey"> directory</text>
</g>
<!-- Node4&#45;&gt;Node17 -->
<g id="edge34_Node000017_Node000004" class="edge">
<title>Node4&#45;&gt;Node17</title>
<g id="a_edge34_Node000017_Node000004"><a xlink:title=" ">
<path fill="none" stroke="#9a32cd" stroke-dasharray="5,2" d="M640.44,-365.03C650.65,-361.46 660.53,-356.21 668,-348.5 689.15,-326.66 665.92,-305.33 686,-282.5 729.64,-232.88 804.32,-209.41 854.65,-198.74"/>
<polygon fill="#9a32cd" stroke="#9a32cd" points="639.19,-361.75 630.61,-367.96 641.2,-368.46 639.19,-361.75"/>
</a>
</g>
<text text-anchor="middle" x="757.5" y="-285.5" font-family="Helvetica,sans-Serif" font-size="10.00" fill="grey"> directory</text>
</g>
<!-- Node5&#45;&gt;Node4 -->
<g id="edge4_Node000004_Node000005" class="edge">
<title>Node5&#45;&gt;Node4</title>
<g id="a_edge4_Node000004_Node000005"><a xlink:title=" ">
<path fill="none" stroke="#9a32cd" stroke-dasharray="5,2" d="M371.6,-386.07C426.87,-382.61 501.8,-377.91 547.42,-375.04"/>
<polygon fill="#9a32cd" stroke="#9a32cd" points="371.28,-382.59 361.51,-386.7 371.71,-389.57 371.28,-382.59"/>
</a>
</g>
<text text-anchor="middle" x="445" y="-387.5" font-family="Helvetica,sans-Serif" font-size="10.00" fill="grey"> details</text>
</g>
<!-- Node6 -->
<g id="Node000006" class="node">
<title>Node6</title>
<g id="a_Node000006"><a xlink:title=" ">
<polygon fill="white" stroke="#666666" points="87,-318 0,-318 0,-299 87,-299 87,-318"/>
<text text-anchor="middle" x="43.5" y="-306" font-family="Helvetica,sans-Serif" font-size="10.00">CajaFileQueue</text>
</a>
</g>
</g>
<!-- Node6&#45;&gt;Node5 -->
<g id="edge6_Node000005_Node000006" class="edge">
<title>Node6&#45;&gt;Node5</title>
<g id="a_edge6_Node000005_Node000006"><a xlink:title=" ">
<path fill="none" stroke="#9a32cd" stroke-dasharray="5,2" d="M97.46,-307.44C128.72,-308.37 168.59,-312.33 202,-324.5 237.21,-337.33 271.92,-365.81 288.65,-380.82"/>
<polygon fill="#9a32cd" stroke="#9a32cd" points="97.28,-303.93 87.21,-307.23 97.13,-310.93 97.28,-303.93"/>
</a>
</g>
<text text-anchor="middle" x="153.5" y="-349.5" font-family="Helvetica,sans-Serif" font-size="10.00" fill="grey"> extension_queue</text>
<text text-anchor="middle" x="153.5" y="-338.5" font-family="Helvetica,sans-Serif" font-size="10.00" fill="grey">high_priority_queue</text>
<text text-anchor="middle" x="153.5" y="-327.5" font-family="Helvetica,sans-Serif" font-size="10.00" fill="grey">low_priority_queue</text>
</g>
<!-- Node7 -->
<g id="Node000007" class="node">
<title>Node7</title>
<g id="a_Node000007"><a xlink:title=" ">
<polygon fill="white" stroke="#666666" points="81.5,-374 5.5,-374 5.5,-355 81.5,-355 81.5,-374"/>
<text text-anchor="middle" x="43.5" y="-362" font-family="Helvetica,sans-Serif" font-size="10.00">CajaMonitor</text>
</a>
</g>
</g>
<!-- Node7&#45;&gt;Node5 -->
<g id="edge7_Node000005_Node000007" class="edge">
<title>Node7&#45;&gt;Node5</title>
<g id="a_edge7_Node000005_Node000007"><a xlink:title=" ">
<path fill="none" stroke="#9a32cd" stroke-dasharray="5,2" d="M91.8,-361.78C123.18,-360.72 165.21,-360.72 202,-365.5 225.11,-368.5 250.6,-375.21 269.65,-380.93"/>
<polygon fill="#9a32cd" stroke="#9a32cd" points="91.45,-358.3 81.59,-362.18 91.72,-365.29 91.45,-358.3"/>
</a>
</g>
<text text-anchor="middle" x="153.5" y="-368.5" font-family="Helvetica,sans-Serif" font-size="10.00" fill="grey"> monitor</text>
</g>
<!-- Node8&#45;&gt;Node5 -->
<g id="edge8_Node000005_Node000008" class="edge">
<title>Node8&#45;&gt;Node5</title>
<g id="a_edge8_Node000005_Node000008"><a xlink:title=" ">
<path fill="none" stroke="#9a32cd" stroke-dasharray="5,2" d="M876.29,-863.06C788.86,-899.37 536,-987.93 398,-864.5 371.17,-840.5 386.42,-738.92 380,-703.5 358.01,-582.18 315.47,-438.22 303.94,-400.13"/>
<polygon fill="#9a32cd" stroke="#9a32cd" points="877.8,-866.23 885.65,-859.11 875.08,-859.78 877.8,-866.23"/>
</a>
</g>
<text text-anchor="middle" x="589" y="-930.5" font-family="Helvetica,sans-Serif" font-size="10.00" fill="grey"> directory_load_in_progress</text>
</g>
<!-- Node9&#45;&gt;Node5 -->
<g id="edge11_Node000005_Node000009" class="edge">
<title>Node9&#45;&gt;Node5</title>
<g id="a_edge11_Node000005_Node000009"><a xlink:title=" ">
<path fill="none" stroke="#9a32cd" stroke-dasharray="5,2" d="M851.87,-773.65C844.22,-774.83 836.43,-775.84 829,-776.5 733.6,-784.99 473.36,-833.61 398,-774.5 398,-774.5 318.68,-460.48 303.5,-400.38"/>
<polygon fill="#9a32cd" stroke="#9a32cd" points="852.51,-777.09 861.81,-772.01 851.38,-770.18 852.51,-777.09"/>
</a>
</g>
<text text-anchor="middle" x="589" y="-805.5" font-family="Helvetica,sans-Serif" font-size="10.00" fill="grey"> count_in_progress</text>
</g>
<!-- Node10&#45;&gt;Node5 -->
<g id="edge14_Node000005_Node000010" class="edge">
<title>Node10&#45;&gt;Node5</title>
<g id="a_edge14_Node000005_Node000010"><a xlink:title=" ">
<path fill="none" stroke="#9a32cd" stroke-dasharray="5,2" d="M849.73,-343.83C772.37,-337.23 630.29,-328.86 510,-342.5 446,-349.75 373.06,-369.12 332.48,-380.92"/>
<polygon fill="#9a32cd" stroke="#9a32cd" points="849.49,-347.32 859.75,-344.71 850.1,-340.35 849.49,-347.32"/>
</a>
</g>
<text text-anchor="middle" x="589" y="-345.5" font-family="Helvetica,sans-Serif" font-size="10.00" fill="grey"> deep_count_in_progress</text>
</g>
<!-- Node11&#45;&gt;Node5 -->
<g id="edge16_Node000005_Node000011" class="edge">
<title>Node11&#45;&gt;Node5</title>
<g id="a_edge16_Node000005_Node000011"><a xlink:title=" ">
<path fill="none" stroke="#9a32cd" stroke-dasharray="5,2" d="M854.33,-681.67C739.07,-687.55 469.12,-695.12 398,-642.5 314.9,-581.02 302.99,-438.49 301.28,-400.15"/>
<polygon fill="#9a32cd" stroke="#9a32cd" points="854.53,-685.17 864.33,-681.15 854.16,-678.18 854.53,-685.17"/>
</a>
</g>
<text text-anchor="middle" x="589" y="-688.5" font-family="Helvetica,sans-Serif" font-size="10.00" fill="grey"> mime_list_in_progress</text>
</g>
<!-- Node12&#45;&gt;Node5 -->
<g id="edge19_Node000005_Node000012" class="edge">
<title>Node12&#45;&gt;Node5</title>
<g id="a_edge19_Node000005_Node000012"><a xlink:title=" ">
<path fill="none" stroke="#9a32cd" stroke-dasharray="5,2" d="M858.61,-117.74C746.03,-105.37 470.6,-81.42 398,-133.5 312.36,-194.94 302.29,-341.83 301.14,-380.85"/>
<polygon fill="#9a32cd" stroke="#9a32cd" points="858.34,-121.23 868.66,-118.86 859.11,-114.27 858.34,-121.23"/>
</a>
</g>
<text text-anchor="middle" x="589" y="-107.5" font-family="Helvetica,sans-Serif" font-size="10.00" fill="grey"> get_info_in_progress</text>
</g>
<!-- Node13&#45;&gt;Node5 -->
<g id="edge21_Node000005_Node000013" class="edge">
<title>Node13&#45;&gt;Node5</title>
<g id="a_edge21_Node000005_Node000013"><a xlink:title=" ">
<path fill="none" stroke="#9a32cd" stroke-dasharray="5,2" d="M850.74,-595.33C733.93,-596.01 469.94,-591.75 398,-541.5 344.61,-504.21 313.74,-427.16 304.21,-400.13"/>
<polygon fill="#9a32cd" stroke="#9a32cd" points="850.94,-598.83 860.91,-595.26 850.88,-591.83 850.94,-598.83"/>
</a>
</g>
<text text-anchor="middle" x="589" y="-593.5" font-family="Helvetica,sans-Serif" font-size="10.00" fill="grey"> thumbnail_state</text>
</g>
<!-- Node14&#45;&gt;Node5 -->
<g id="edge24_Node000005_Node000014" class="edge">
<title>Node14&#45;&gt;Node5</title>
<g id="a_edge24_Node000005_Node000014"><a xlink:title=" ">
<path fill="none" stroke="#9a32cd" stroke-dasharray="5,2" d="M861.45,-518.02C850.83,-519.46 839.54,-520.76 829,-521.5 637.85,-534.91 569.31,-596.35 398,-510.5 349.14,-486.01 316.56,-424.35 305.33,-400.31"/>
<polygon fill="#9a32cd" stroke="#9a32cd" points="861.98,-521.48 871.39,-516.59 860.99,-514.55 861.98,-521.48"/>
</a>
</g>
<text text-anchor="middle" x="589" y="-557.5" font-family="Helvetica,sans-Serif" font-size="10.00" fill="grey"> mount_state</text>
</g>
<!-- Node15&#45;&gt;Node5 -->
<g id="edge27_Node000005_Node000015" class="edge">
<title>Node15&#45;&gt;Node5</title>
<g id="a_edge27_Node000005_Node000015"><a xlink:title=" ">
<path fill="none" stroke="#9a32cd" stroke-dasharray="5,2" d="M840.58,-423.82C743.35,-419.69 556.6,-411.06 398,-399.5 386.19,-398.64 373.59,-397.58 361.51,-396.49"/>
<polygon fill="#9a32cd" stroke="#9a32cd" points="840.7,-427.32 850.84,-424.25 841,-420.33 840.7,-427.32"/>
</a>
</g>
<text text-anchor="middle" x="589" y="-419.5" font-family="Helvetica,sans-Serif" font-size="10.00" fill="grey"> filesystem_info_state</text>
</g>
<!-- Node16&#45;&gt;Node5 -->
<g id="edge30_Node000005_Node000016" class="edge">
<title>Node16&#45;&gt;Node5</title>
<g id="a_edge30_Node000005_Node000016"><a xlink:title=" ">
<path fill="none" stroke="#9a32cd" stroke-dasharray="5,2" d="M836.62,-275.17C736.57,-278.03 548.64,-290.48 398,-341.5 367.8,-351.73 335.2,-369.81 316.53,-380.91"/>
<polygon fill="#9a32cd" stroke="#9a32cd" points="837,-278.67 846.91,-274.91 836.82,-271.67 837,-278.67"/>
</a>
</g>
<text text-anchor="middle" x="589" y="-314.5" font-family="Helvetica,sans-Serif" font-size="10.00" fill="grey"> top_left_read_state</text>
</g>
<!-- Node17&#45;&gt;Node5 -->
<g id="edge33_Node000005_Node000017" class="edge">
<title>Node17&#45;&gt;Node5</title>
<g id="a_edge33_Node000005_Node000017"><a xlink:title=" ">
<path fill="none" stroke="#9a32cd" stroke-dasharray="5,2" d="M844.9,-186.67C725.87,-180.48 470.94,-173.16 398,-218.5 335.98,-257.05 310.02,-350.52 303.04,-380.83"/>
<polygon fill="#9a32cd" stroke="#9a32cd" points="844.78,-190.16 854.95,-187.2 845.15,-183.17 844.78,-190.16"/>
</a>
</g>
<text text-anchor="middle" x="589" y="-192.5" font-family="Helvetica,sans-Serif" font-size="10.00" fill="grey"> link_info_read_state</text>
</g>
<!-- Node18 -->
<g id="Node000018" class="node">
<title>Node18</title>
<g id="a_Node000018"><a xlink:href="structCajaFileSortByEmblemCache.html" target="_top" xlink:title=" ">
<polygon fill="white" stroke="#666666" points="668,-19 510,-19 510,0 668,0 668,-19"/>
<text text-anchor="middle" x="589" y="-7" font-family="Helvetica,sans-Serif" font-size="10.00">CajaFileSortByEmblemCache</text>
</a>
</g>
</g>
<!-- Node18&#45;&gt;Node3 -->
<g id="edge36_Node000003_Node000018" class="edge">
<title>Node18&#45;&gt;Node3</title>
<g id="a_edge36_Node000003_Node000018"><a xlink:title=" ">
<path fill="none" stroke="#9a32cd" stroke-dasharray="5,2" d="M678.2,-8.93C723.58,-9.99 779.61,-13.4 829,-22.5 847.46,-25.9 867.62,-32.44 882.82,-37.98"/>
<polygon fill="#9a32cd" stroke="#9a32cd" points="678.16,-5.43 668.09,-8.73 678.02,-12.43 678.16,-5.43"/>
</a>
</g>
<text text-anchor="middle" x="757.5" y="-25.5" font-family="Helvetica,sans-Serif" font-size="10.00" fill="grey"> compare_by_emblem_cache</text>
</g>
</g>
</svg>
