<?xml version="1.0" encoding="UTF-8" standalone="no"?>
<!DOCTYPE svg PUBLIC "-//W3C//DTD SVG 1.1//EN"
 "http://www.w3.org/Graphics/SVG/1.1/DTD/svg11.dtd">
<!-- Generated by graphviz version 2.43.0 (0)
 -->
<!-- Title: CajaSearchDirectoryFile Pages: 1 -->
<svg width="951pt" height="947pt"
 viewBox="0.00 0.00 951.00 946.50" xmlns="http://www.w3.org/2000/svg" xmlns:xlink="http://www.w3.org/1999/xlink">
<g id="graph0" class="graph" transform="scale(1 1) rotate(0) translate(4 942.5)">
<title>CajaSearchDirectoryFile</title>
<!-- Node1 -->
<g id="Node000001" class="node">
<title>Node1</title>
<g id="a_Node000001"><a xlink:title=" ">
<polygon fill="#999999" stroke="#666666" points="354,-731 220,-731 220,-712 354,-712 354,-731"/>
<text text-anchor="middle" x="287" y="-719" font-family="Helvetica,sans-Serif" font-size="10.00">CajaSearchDirectoryFile</text>
</a>
</g>
</g>
<!-- Node2 -->
<g id="Node000002" class="node">
<title>Node2</title>
<g id="a_Node000002"><a xlink:href="structCajaFile.html" target="_top" xlink:title=" ">
<polygon fill="white" stroke="#666666" points="71.5,-505 15.5,-505 15.5,-486 71.5,-486 71.5,-505"/>
<text text-anchor="middle" x="43.5" y="-493" font-family="Helvetica,sans-Serif" font-size="10.00">CajaFile</text>
</a>
</g>
</g>
<!-- Node2&#45;&gt;Node1 -->
<g id="edge1_Node000001_Node000002" class="edge">
<title>Node2&#45;&gt;Node1</title>
<g id="a_edge1_Node000001_Node000002"><a xlink:title=" ">
<path fill="none" stroke="#9a32cd" stroke-dasharray="5,2" d="M43.91,-515.59C43.9,-556.77 50.24,-650.83 105,-697.5 136.24,-724.13 182.19,-729.96 219.98,-729.22"/>
<polygon fill="#9a32cd" stroke="#9a32cd" points="47.41,-515.5 44.05,-505.46 40.41,-515.41 47.41,-515.5"/>
</a>
</g>
<text text-anchor="middle" x="153.5" y="-731.5" font-family="Helvetica,sans-Serif" font-size="10.00" fill="grey"> parent_slot</text>
</g>
<!-- Node5 -->
<g id="Node000005" class="node">
<title>Node5</title>
<g id="a_Node000005"><a xlink:href="struct__CajaDirectoryPrivate.html" target="_top" xlink:title=" ">
<polygon fill="white" stroke="#666666" points="348.5,-400 225.5,-400 225.5,-381 348.5,-381 348.5,-400"/>
<text text-anchor="middle" x="287" y="-388" font-family="Helvetica,sans-Serif" font-size="10.00">_CajaDirectoryPrivate</text>
</a>
</g>
</g>
<!-- Node2&#45;&gt;Node5 -->
<g id="edge5_Node000005_Node000002" class="edge">
<title>Node2&#45;&gt;Node5</title>
<g id="a_edge5_Node000005_Node000002"><a xlink:title=" ">
<path fill="none" stroke="#9a32cd" stroke-dasharray="5,2" d="M50.47,-476.37C58.71,-453.59 75.93,-416.5 105,-399.5 143.98,-376.71 196.13,-376.64 234.44,-380.98"/>
<polygon fill="#9a32cd" stroke="#9a32cd" points="47.11,-475.39 47.22,-485.98 53.74,-477.63 47.11,-475.39"/>
</a>
</g>
<text text-anchor="middle" x="153.5" y="-435.5" font-family="Helvetica,sans-Serif" font-size="10.00" fill="grey"> as_file</text>
<text text-anchor="middle" x="153.5" y="-424.5" font-family="Helvetica,sans-Serif" font-size="10.00" fill="grey">deep_count_file</text>
<text text-anchor="middle" x="153.5" y="-413.5" font-family="Helvetica,sans-Serif" font-size="10.00" fill="grey">extension_info_file</text>
<text text-anchor="middle" x="153.5" y="-402.5" font-family="Helvetica,sans-Serif" font-size="10.00" fill="grey">get_info_file</text>
</g>
<!-- Node8 -->
<g id="Node000008" class="node">
<title>Node8</title>
<g id="a_Node000008"><a xlink:title=" ">
<polygon fill="white" stroke="#666666" points="937,-859 827,-859 827,-840 937,-840 937,-859"/>
<text text-anchor="middle" x="882" y="-847" font-family="Helvetica,sans-Serif" font-size="10.00">DirectoryLoadState</text>
</a>
</g>
</g>
<!-- Node2&#45;&gt;Node8 -->
<g id="edge10_Node000008_Node000002" class="edge">
<title>Node2&#45;&gt;Node8</title>
<g id="a_edge10_Node000008_Node000002"><a xlink:title=" ">
<path fill="none" stroke="#9a32cd" stroke-dasharray="5,2" d="M46.04,-515.33C50.87,-572.04 67.66,-733.05 105,-767.5 209.99,-864.35 668.55,-857.28 826.95,-851.78"/>
<polygon fill="#9a32cd" stroke="#9a32cd" points="49.51,-514.85 45.21,-505.17 42.54,-515.42 49.51,-514.85"/>
</a>
</g>
<text text-anchor="middle" x="419" y="-851.5" font-family="Helvetica,sans-Serif" font-size="10.00" fill="grey"> load_directory_file</text>
</g>
<!-- Node9 -->
<g id="Node000009" class="node">
<title>Node9</title>
<g id="a_Node000009"><a xlink:title=" ">
<polygon fill="white" stroke="#666666" points="940,-772 824,-772 824,-753 940,-753 940,-772"/>
<text text-anchor="middle" x="882" y="-760" font-family="Helvetica,sans-Serif" font-size="10.00">DirectoryCountState</text>
</a>
</g>
</g>
<!-- Node2&#45;&gt;Node9 -->
<g id="edge13_Node000009_Node000002" class="edge">
<title>Node2&#45;&gt;Node9</title>
<g id="a_edge13_Node000009_Node000002"><a xlink:title=" ">
<path fill="none" stroke="#9a32cd" stroke-dasharray="5,2" d="M46.32,-515.53C51.64,-569.28 69.15,-714.62 105,-743.5 160.5,-788.19 653.96,-772.01 823.84,-765.03"/>
<polygon fill="#9a32cd" stroke="#9a32cd" points="49.77,-514.88 45.34,-505.26 42.8,-515.54 49.77,-514.88"/>
</a>
</g>
<text text-anchor="middle" x="419" y="-776.5" font-family="Helvetica,sans-Serif" font-size="10.00" fill="grey"> count_file</text>
</g>
<!-- Node11 -->
<g id="Node000011" class="node">
<title>Node11</title>
<g id="a_Node000011"><a xlink:title=" ">
<polygon fill="white" stroke="#666666" points="925.5,-688 838.5,-688 838.5,-669 925.5,-669 925.5,-688"/>
<text text-anchor="middle" x="882" y="-676" font-family="Helvetica,sans-Serif" font-size="10.00">MimeListState</text>
</a>
</g>
</g>
<!-- Node2&#45;&gt;Node11 -->
<g id="edge18_Node000011_Node000002" class="edge">
<title>Node2&#45;&gt;Node11</title>
<g id="a_edge18_Node000011_Node000002"><a xlink:title=" ">
<path fill="none" stroke="#9a32cd" stroke-dasharray="5,2" d="M66.05,-511.08C77.41,-519.05 91.71,-528.68 105,-536.5 219.6,-603.94 247.2,-625.61 372,-671.5 535.41,-731.58 748.74,-703.34 838.39,-687.13"/>
<polygon fill="#9a32cd" stroke="#9a32cd" points="67.82,-508.05 57.64,-505.12 63.77,-513.76 67.82,-508.05"/>
</a>
</g>
<text text-anchor="middle" x="419" y="-698.5" font-family="Helvetica,sans-Serif" font-size="10.00" fill="grey"> mime_list_file</text>
</g>
<!-- Node13 -->
<g id="Node000013" class="node">
<title>Node13</title>
<g id="a_Node000013"><a xlink:title=" ">
<polygon fill="white" stroke="#666666" points="929,-604 835,-604 835,-585 929,-585 929,-604"/>
<text text-anchor="middle" x="882" y="-592" font-family="Helvetica,sans-Serif" font-size="10.00">ThumbnailState</text>
</a>
</g>
</g>
<!-- Node2&#45;&gt;Node13 -->
<g id="edge23_Node000013_Node000002" class="edge">
<title>Node2&#45;&gt;Node13</title>
<g id="a_edge23_Node000013_Node000002"><a xlink:title=" ">
<path fill="none" stroke="#9a32cd" stroke-dasharray="5,2" d="M81.51,-504.71C89.27,-506.63 97.4,-508.64 105,-510.5 273.34,-551.8 312.07,-580.44 484,-602.5 561.6,-612.45 581.77,-604.83 660,-605.5 723.55,-606.04 739.6,-609.95 803,-605.5 813.37,-604.77 824.45,-603.51 834.92,-602.09"/>
<polygon fill="#9a32cd" stroke="#9a32cd" points="82.15,-501.26 71.6,-502.25 80.46,-508.05 82.15,-501.26"/>
</a>
</g>
<text text-anchor="middle" x="419" y="-602.5" font-family="Helvetica,sans-Serif" font-size="10.00" fill="grey"> file</text>
</g>
<!-- Node14 -->
<g id="Node000014" class="node">
<title>Node14</title>
<g id="a_Node000014"><a xlink:title=" ">
<polygon fill="white" stroke="#666666" points="918.5,-520 845.5,-520 845.5,-501 918.5,-501 918.5,-520"/>
<text text-anchor="middle" x="882" y="-508" font-family="Helvetica,sans-Serif" font-size="10.00">MountState</text>
</a>
</g>
</g>
<!-- Node2&#45;&gt;Node14 -->
<g id="edge26_Node000014_Node000002" class="edge">
<title>Node2&#45;&gt;Node14</title>
<g id="a_edge26_Node000014_Node000002"><a xlink:title=" ">
<path fill="none" stroke="#9a32cd" stroke-dasharray="5,2" d="M82.04,-496.17C221.53,-498.67 708.98,-507.42 845.32,-509.86"/>
<polygon fill="#9a32cd" stroke="#9a32cd" points="81.92,-492.67 71.86,-495.99 81.79,-499.67 81.92,-492.67"/>
</a>
</g>
<text text-anchor="middle" x="419" y="-505.5" font-family="Helvetica,sans-Serif" font-size="10.00" fill="grey"> file</text>
</g>
<!-- Node15 -->
<g id="Node000015" class="node">
<title>Node15</title>
<g id="a_Node000015"><a xlink:title=" ">
<polygon fill="white" stroke="#666666" points="939,-436 825,-436 825,-417 939,-417 939,-436"/>
<text text-anchor="middle" x="882" y="-424" font-family="Helvetica,sans-Serif" font-size="10.00">FilesystemInfoState</text>
</a>
</g>
</g>
<!-- Node2&#45;&gt;Node15 -->
<g id="edge29_Node000015_Node000002" class="edge">
<title>Node2&#45;&gt;Node15</title>
<g id="a_edge29_Node000015_Node000002"><a xlink:title=" ">
<path fill="none" stroke="#9a32cd" stroke-dasharray="5,2" d="M82.03,-493.01C192.58,-485.58 526.57,-462.37 803,-435.5 810.06,-434.81 817.46,-434.04 824.79,-433.23"/>
<polygon fill="#9a32cd" stroke="#9a32cd" points="81.49,-489.54 71.74,-493.7 81.95,-496.52 81.49,-489.54"/>
</a>
</g>
<text text-anchor="middle" x="419" y="-474.5" font-family="Helvetica,sans-Serif" font-size="10.00" fill="grey"> file</text>
</g>
<!-- Node16 -->
<g id="Node000016" class="node">
<title>Node16</title>
<g id="a_Node000016"><a xlink:title=" ">
<polygon fill="white" stroke="#666666" points="943,-284 821,-284 821,-265 943,-265 943,-284"/>
<text text-anchor="middle" x="882" y="-272" font-family="Helvetica,sans-Serif" font-size="10.00">TopLeftTextReadState</text>
</a>
</g>
</g>
<!-- Node2&#45;&gt;Node16 -->
<g id="edge32_Node000016_Node000002" class="edge">
<title>Node2&#45;&gt;Node16</title>
<g id="a_edge32_Node000016_Node000002"><a xlink:title=" ">
<path fill="none" stroke="#9a32cd" stroke-dasharray="5,2" d="M52.47,-476.71C61.67,-454.5 76.85,-416.29 87,-382.5 97.36,-348.01 77.54,-326.8 105,-303.5 211.97,-212.73 657.91,-250.38 820.96,-267.64"/>
<polygon fill="#9a32cd" stroke="#9a32cd" points="49.22,-475.4 48.59,-485.98 55.68,-478.1 49.22,-475.4"/>
</a>
</g>
<text text-anchor="middle" x="419" y="-249.5" font-family="Helvetica,sans-Serif" font-size="10.00" fill="grey"> file</text>
</g>
<!-- Node17 -->
<g id="Node000017" class="node">
<title>Node17</title>
<g id="a_Node000017"><a xlink:title=" ">
<polygon fill="white" stroke="#666666" points="935,-200 829,-200 829,-181 935,-181 935,-200"/>
<text text-anchor="middle" x="882" y="-188" font-family="Helvetica,sans-Serif" font-size="10.00">LinkInfoReadState</text>
</a>
</g>
</g>
<!-- Node2&#45;&gt;Node17 -->
<g id="edge35_Node000017_Node000002" class="edge">
<title>Node2&#45;&gt;Node17</title>
<g id="a_edge35_Node000017_Node000002"><a xlink:title=" ">
<path fill="none" stroke="#9a32cd" stroke-dasharray="5,2" d="M53.07,-476.5C62.72,-454.36 78.19,-416.48 87,-382.5 100.65,-329.87 69.69,-302.84 105,-261.5 261.88,-77.81 400.44,-176 642,-177.5 713.56,-177.94 731.65,-174.05 803,-179.5 811.32,-180.14 820.1,-181.09 828.65,-182.18"/>
<polygon fill="#9a32cd" stroke="#9a32cd" points="49.82,-475.19 48.98,-485.75 56.22,-478.02 49.82,-475.19"/>
</a>
</g>
<text text-anchor="middle" x="419" y="-165.5" font-family="Helvetica,sans-Serif" font-size="10.00" fill="grey"> file</text>
</g>
<!-- Node3 -->
<g id="Node000003" class="node">
<title>Node3</title>
<g id="a_Node000003"><a xlink:href="struct__CajaFilePrivate.html" target="_top" xlink:title=" ">
<polygon fill="white" stroke="#666666" points="929.5,-57 834.5,-57 834.5,-38 929.5,-38 929.5,-57"/>
<text text-anchor="middle" x="882" y="-45" font-family="Helvetica,sans-Serif" font-size="10.00">_CajaFilePrivate</text>
</a>
</g>
</g>
<!-- Node3&#45;&gt;Node2 -->
<g id="edge2_Node000002_Node000003" class="edge">
<title>Node3&#45;&gt;Node2</title>
<g id="a_edge2_Node000002_Node000003"><a xlink:title=" ">
<path fill="none" stroke="#9a32cd" stroke-dasharray="5,2" d="M824.12,-47.65C660.52,-49.42 194.71,-64.4 105,-176.5 76.29,-212.38 97.18,-337.69 87,-382.5 77.99,-422.15 58.23,-466.6 49.19,-485.8"/>
<polygon fill="#9a32cd" stroke="#9a32cd" points="824.49,-51.14 834.45,-47.55 824.42,-44.14 824.49,-51.14"/>
</a>
</g>
<text text-anchor="middle" x="419" y="-82.5" font-family="Helvetica,sans-Serif" font-size="10.00" fill="grey"> details</text>
</g>
<!-- Node4 -->
<g id="Node000004" class="node">
<title>Node4</title>
<g id="a_Node000004"><a xlink:href="structCajaDirectory.html" target="_top" xlink:title=" ">
<polygon fill="white" stroke="#666666" points="604.5,-382 521.5,-382 521.5,-363 604.5,-363 604.5,-382"/>
<text text-anchor="middle" x="563" y="-370" font-family="Helvetica,sans-Serif" font-size="10.00">CajaDirectory</text>
</a>
</g>
</g>
<!-- Node4&#45;&gt;Node3 -->
<g id="edge3_Node000003_Node000004" class="edge">
<title>Node4&#45;&gt;Node3</title>
<g id="a_edge3_Node000003_Node000004"><a xlink:title=" ">
<path fill="none" stroke="#9a32cd" stroke-dasharray="5,2" d="M614.34,-366.47C624.95,-362.86 635.02,-357.23 642,-348.5 674.84,-307.41 626.91,-153.38 660,-112.5 681.89,-85.45 776.12,-65.15 834.24,-54.91"/>
<polygon fill="#9a32cd" stroke="#9a32cd" points="613.19,-363.15 604.52,-369.25 615.09,-369.89 613.19,-363.15"/>
</a>
</g>
<text text-anchor="middle" x="731.5" y="-115.5" font-family="Helvetica,sans-Serif" font-size="10.00" fill="grey"> directory</text>
</g>
<!-- Node4&#45;&gt;Node8 -->
<g id="edge9_Node000008_Node000004" class="edge">
<title>Node4&#45;&gt;Node8</title>
<g id="a_edge9_Node000008_Node000004"><a xlink:title=" ">
<path fill="none" stroke="#9a32cd" stroke-dasharray="5,2" d="M614.5,-378.41C625.1,-382.02 635.14,-387.68 642,-396.5 690.39,-458.65 615.51,-685.5 660,-750.5 682.62,-783.55 793.95,-822.23 849.44,-839.86"/>
<polygon fill="#9a32cd" stroke="#9a32cd" points="615.25,-374.98 604.67,-375.63 613.34,-381.72 615.25,-374.98"/>
</a>
</g>
<text text-anchor="middle" x="731.5" y="-825.5" font-family="Helvetica,sans-Serif" font-size="10.00" fill="grey"> directory</text>
</g>
<!-- Node4&#45;&gt;Node9 -->
<g id="edge12_Node000009_Node000004" class="edge">
<title>Node4&#45;&gt;Node9</title>
<g id="a_edge12_Node000009_Node000004"><a xlink:title=" ">
<path fill="none" stroke="#9a32cd" stroke-dasharray="5,2" d="M614.39,-378.49C625,-382.1 635.06,-387.74 642,-396.5 678.79,-442.94 626.22,-613.83 660,-662.5 682.99,-695.63 795.25,-735.15 850.36,-752.96"/>
<polygon fill="#9a32cd" stroke="#9a32cd" points="615.15,-375.07 604.57,-375.71 613.24,-381.8 615.15,-375.07"/>
</a>
</g>
<text text-anchor="middle" x="731.5" y="-738.5" font-family="Helvetica,sans-Serif" font-size="10.00" fill="grey"> directory</text>
</g>
<!-- Node10 -->
<g id="Node000010" class="node">
<title>Node10</title>
<g id="a_Node000010"><a xlink:title=" ">
<polygon fill="white" stroke="#666666" points="930,-359 834,-359 834,-340 930,-340 930,-359"/>
<text text-anchor="middle" x="882" y="-347" font-family="Helvetica,sans-Serif" font-size="10.00">DeepCountState</text>
</a>
</g>
</g>
<!-- Node4&#45;&gt;Node10 -->
<g id="edge15_Node000010_Node000004" class="edge">
<title>Node4&#45;&gt;Node10</title>
<g id="a_edge15_Node000010_Node000004"><a xlink:title=" ">
<path fill="none" stroke="#9a32cd" stroke-dasharray="5,2" d="M614.86,-368.81C675.27,-364.43 775.22,-357.17 833.92,-352.92"/>
<polygon fill="#9a32cd" stroke="#9a32cd" points="614.51,-365.33 604.79,-369.54 615.02,-372.31 614.51,-365.33"/>
</a>
</g>
<text text-anchor="middle" x="731.5" y="-368.5" font-family="Helvetica,sans-Serif" font-size="10.00" fill="grey"> directory</text>
</g>
<!-- Node4&#45;&gt;Node11 -->
<g id="edge17_Node000011_Node000004" class="edge">
<title>Node4&#45;&gt;Node11</title>
<g id="a_edge17_Node000011_Node000004"><a xlink:title=" ">
<path fill="none" stroke="#9a32cd" stroke-dasharray="5,2" d="M614.52,-378.74C625.02,-382.35 635,-387.93 642,-396.5 668.12,-428.5 635.76,-548.05 660,-581.5 672.26,-598.42 799.63,-647.88 855.25,-668.88"/>
<polygon fill="#9a32cd" stroke="#9a32cd" points="615.38,-375.35 604.8,-375.95 613.44,-382.08 615.38,-375.35"/>
</a>
</g>
<text text-anchor="middle" x="731.5" y="-650.5" font-family="Helvetica,sans-Serif" font-size="10.00" fill="grey"> directory</text>
</g>
<!-- Node12 -->
<g id="Node000012" class="node">
<title>Node12</title>
<g id="a_Node000012"><a xlink:title=" ">
<polygon fill="white" stroke="#666666" points="921,-133 843,-133 843,-114 921,-114 921,-133"/>
<text text-anchor="middle" x="882" y="-121" font-family="Helvetica,sans-Serif" font-size="10.00">GetInfoState</text>
</a>
</g>
</g>
<!-- Node4&#45;&gt;Node12 -->
<g id="edge20_Node000012_Node000004" class="edge">
<title>Node4&#45;&gt;Node12</title>
<g id="a_edge20_Node000012_Node000004"><a xlink:title=" ">
<path fill="none" stroke="#9a32cd" stroke-dasharray="5,2" d="M614.41,-366.17C624.92,-362.57 634.93,-357.01 642,-348.5 687.14,-294.12 614.74,-244.79 660,-190.5 705.18,-136.3 792.7,-124.96 842.98,-123.16"/>
<polygon fill="#9a32cd" stroke="#9a32cd" points="613.34,-362.84 604.7,-368.97 615.28,-369.57 613.34,-362.84"/>
</a>
</g>
<text text-anchor="middle" x="731.5" y="-193.5" font-family="Helvetica,sans-Serif" font-size="10.00" fill="grey"> directory</text>
</g>
<!-- Node4&#45;&gt;Node13 -->
<g id="edge22_Node000013_Node000004" class="edge">
<title>Node4&#45;&gt;Node13</title>
<g id="a_edge22_Node000013_Node000004"><a xlink:title=" ">
<path fill="none" stroke="#9a32cd" stroke-dasharray="5,2" d="M614.31,-379.29C624.72,-382.88 634.72,-388.31 642,-396.5 671.43,-429.59 632.72,-459.62 660,-494.5 684.97,-526.43 797.35,-566.88 851.56,-584.99"/>
<polygon fill="#9a32cd" stroke="#9a32cd" points="615.28,-375.93 604.7,-376.48 613.31,-382.65 615.28,-375.93"/>
</a>
</g>
<text text-anchor="middle" x="731.5" y="-569.5" font-family="Helvetica,sans-Serif" font-size="10.00" fill="grey"> directory</text>
</g>
<!-- Node4&#45;&gt;Node14 -->
<g id="edge25_Node000014_Node000004" class="edge">
<title>Node4&#45;&gt;Node14</title>
<g id="a_edge25_Node000014_Node000004"><a xlink:title=" ">
<path fill="none" stroke="#9a32cd" stroke-dasharray="5,2" d="M614.25,-383.57C623.88,-386.89 633.58,-391.12 642,-396.5 652.08,-402.94 650.27,-409.55 660,-416.5 693,-440.06 803.43,-482.08 854.58,-500.91"/>
<polygon fill="#9a32cd" stroke="#9a32cd" points="615.28,-380.23 604.69,-380.56 613.17,-386.9 615.28,-380.23"/>
</a>
</g>
<text text-anchor="middle" x="731.5" y="-482.5" font-family="Helvetica,sans-Serif" font-size="10.00" fill="grey"> directory</text>
</g>
<!-- Node4&#45;&gt;Node15 -->
<g id="edge28_Node000015_Node000004" class="edge">
<title>Node4&#45;&gt;Node15</title>
<g id="a_edge28_Node000015_Node000004"><a xlink:title=" ">
<path fill="none" stroke="#9a32cd" stroke-dasharray="5,2" d="M614.84,-375.86C663.55,-379.74 738.9,-387.47 803,-401.5 820.78,-405.39 840.28,-411.64 855.34,-416.92"/>
<polygon fill="#9a32cd" stroke="#9a32cd" points="614.8,-372.35 604.56,-375.07 614.27,-379.33 614.8,-372.35"/>
</a>
</g>
<text text-anchor="middle" x="731.5" y="-404.5" font-family="Helvetica,sans-Serif" font-size="10.00" fill="grey"> directory</text>
</g>
<!-- Node4&#45;&gt;Node16 -->
<g id="edge31_Node000016_Node000004" class="edge">
<title>Node4&#45;&gt;Node16</title>
<g id="a_edge31_Node000016_Node000004"><a xlink:title=" ">
<path fill="none" stroke="#9a32cd" stroke-dasharray="5,2" d="M606.66,-359.99C618.18,-356.44 630.61,-352.46 642,-348.5 650.11,-345.68 651.89,-344.3 660,-341.5 725.37,-318.92 802.99,-296.35 846.67,-284.03"/>
<polygon fill="#9a32cd" stroke="#9a32cd" points="605.36,-356.72 596.81,-362.98 607.39,-363.42 605.36,-356.72"/>
</a>
</g>
<text text-anchor="middle" x="731.5" y="-344.5" font-family="Helvetica,sans-Serif" font-size="10.00" fill="grey"> directory</text>
</g>
<!-- Node4&#45;&gt;Node17 -->
<g id="edge34_Node000017_Node000004" class="edge">
<title>Node4&#45;&gt;Node17</title>
<g id="a_edge34_Node000017_Node000004"><a xlink:title=" ">
<path fill="none" stroke="#9a32cd" stroke-dasharray="5,2" d="M614.44,-365.03C624.65,-361.46 634.53,-356.21 642,-348.5 663.15,-326.66 639.92,-305.33 660,-282.5 703.64,-232.88 778.32,-209.41 828.65,-198.74"/>
<polygon fill="#9a32cd" stroke="#9a32cd" points="613.19,-361.75 604.61,-367.96 615.2,-368.46 613.19,-361.75"/>
</a>
</g>
<text text-anchor="middle" x="731.5" y="-285.5" font-family="Helvetica,sans-Serif" font-size="10.00" fill="grey"> directory</text>
</g>
<!-- Node5&#45;&gt;Node4 -->
<g id="edge4_Node000004_Node000005" class="edge">
<title>Node5&#45;&gt;Node4</title>
<g id="a_edge4_Node000004_Node000005"><a xlink:title=" ">
<path fill="none" stroke="#9a32cd" stroke-dasharray="5,2" d="M358.9,-385.84C410.5,-382.45 478.55,-377.98 521.3,-375.17"/>
<polygon fill="#9a32cd" stroke="#9a32cd" points="358.56,-382.36 348.81,-386.51 359.02,-389.34 358.56,-382.36"/>
</a>
</g>
<text text-anchor="middle" x="419" y="-388.5" font-family="Helvetica,sans-Serif" font-size="10.00" fill="grey"> details</text>
</g>
<!-- Node6 -->
<g id="Node000006" class="node">
<title>Node6</title>
<g id="a_Node000006"><a xlink:title=" ">
<polygon fill="white" stroke="#666666" points="87,-318 0,-318 0,-299 87,-299 87,-318"/>
<text text-anchor="middle" x="43.5" y="-306" font-family="Helvetica,sans-Serif" font-size="10.00">CajaFileQueue</text>
</a>
</g>
</g>
<!-- Node6&#45;&gt;Node5 -->
<g id="edge6_Node000005_Node000006" class="edge">
<title>Node6&#45;&gt;Node5</title>
<g id="a_edge6_Node000005_Node000006"><a xlink:title=" ">
<path fill="none" stroke="#9a32cd" stroke-dasharray="5,2" d="M97.45,-306.6C128.88,-307.22 168.91,-311.15 202,-324.5 233.65,-337.27 263.19,-365.78 277.31,-380.81"/>
<polygon fill="#9a32cd" stroke="#9a32cd" points="97.18,-303.09 87.15,-306.5 97.12,-310.09 97.18,-303.09"/>
</a>
</g>
<text text-anchor="middle" x="153.5" y="-349.5" font-family="Helvetica,sans-Serif" font-size="10.00" fill="grey"> extension_queue</text>
<text text-anchor="middle" x="153.5" y="-338.5" font-family="Helvetica,sans-Serif" font-size="10.00" fill="grey">high_priority_queue</text>
<text text-anchor="middle" x="153.5" y="-327.5" font-family="Helvetica,sans-Serif" font-size="10.00" fill="grey">low_priority_queue</text>
</g>
<!-- Node7 -->
<g id="Node000007" class="node">
<title>Node7</title>
<g id="a_Node000007"><a xlink:title=" ">
<polygon fill="white" stroke="#666666" points="81.5,-374 5.5,-374 5.5,-355 81.5,-355 81.5,-374"/>
<text text-anchor="middle" x="43.5" y="-362" font-family="Helvetica,sans-Serif" font-size="10.00">CajaMonitor</text>
</a>
</g>
</g>
<!-- Node7&#45;&gt;Node5 -->
<g id="edge7_Node000005_Node000007" class="edge">
<title>Node7&#45;&gt;Node5</title>
<g id="a_edge7_Node000005_Node000007"><a xlink:title=" ">
<path fill="none" stroke="#9a32cd" stroke-dasharray="5,2" d="M91.86,-361.33C123.27,-360.08 165.31,-360.04 202,-365.5 222.17,-368.5 244.24,-375.21 260.69,-380.92"/>
<polygon fill="#9a32cd" stroke="#9a32cd" points="91.47,-357.85 81.64,-361.8 91.79,-364.84 91.47,-357.85"/>
</a>
</g>
<text text-anchor="middle" x="153.5" y="-368.5" font-family="Helvetica,sans-Serif" font-size="10.00" fill="grey"> monitor</text>
</g>
<!-- Node8&#45;&gt;Node5 -->
<g id="edge8_Node000005_Node000008" class="edge">
<title>Node8&#45;&gt;Node5</title>
<g id="a_edge8_Node000005_Node000008"><a xlink:title=" ">
<path fill="none" stroke="#9a32cd" stroke-dasharray="5,2" d="M850.29,-863.06C762.86,-899.37 510,-987.93 372,-864.5 345.17,-840.5 359.72,-739.04 354,-703.5 334.59,-582.87 299.8,-438.42 290.4,-400.17"/>
<polygon fill="#9a32cd" stroke="#9a32cd" points="851.8,-866.23 859.65,-859.11 849.08,-859.78 851.8,-866.23"/>
</a>
</g>
<text text-anchor="middle" x="563" y="-930.5" font-family="Helvetica,sans-Serif" font-size="10.00" fill="grey"> directory_load_in_progress</text>
</g>
<!-- Node9&#45;&gt;Node5 -->
<g id="edge11_Node000005_Node000009" class="edge">
<title>Node9&#45;&gt;Node5</title>
<g id="a_edge11_Node000005_Node000009"><a xlink:title=" ">
<path fill="none" stroke="#9a32cd" stroke-dasharray="5,2" d="M825.87,-773.65C818.22,-774.83 810.43,-775.84 803,-776.5 707.6,-784.99 446.4,-834.81 372,-774.5 368.16,-771.39 302.57,-459.89 290.06,-400.29"/>
<polygon fill="#9a32cd" stroke="#9a32cd" points="826.51,-777.09 835.81,-772.01 825.38,-770.18 826.51,-777.09"/>
</a>
</g>
<text text-anchor="middle" x="563" y="-806.5" font-family="Helvetica,sans-Serif" font-size="10.00" fill="grey"> count_in_progress</text>
</g>
<!-- Node10&#45;&gt;Node5 -->
<g id="edge14_Node000005_Node000010" class="edge">
<title>Node10&#45;&gt;Node5</title>
<g id="a_edge14_Node000005_Node000010"><a xlink:title=" ">
<path fill="none" stroke="#9a32cd" stroke-dasharray="5,2" d="M823.7,-343.57C746.3,-336.69 604.19,-328 484,-342.5 423.83,-349.76 355.47,-369.13 317.47,-380.92"/>
<polygon fill="#9a32cd" stroke="#9a32cd" points="823.45,-347.06 833.73,-344.49 824.09,-340.09 823.45,-347.06"/>
</a>
</g>
<text text-anchor="middle" x="563" y="-345.5" font-family="Helvetica,sans-Serif" font-size="10.00" fill="grey"> deep_count_in_progress</text>
</g>
<!-- Node11&#45;&gt;Node5 -->
<g id="edge16_Node000005_Node000011" class="edge">
<title>Node11&#45;&gt;Node5</title>
<g id="a_edge16_Node000005_Node000011"><a xlink:title=" ">
<path fill="none" stroke="#9a32cd" stroke-dasharray="5,2" d="M828.15,-681.91C712.54,-688.25 441.9,-696.73 372,-642.5 291.66,-580.17 287.4,-438.26 287.76,-400.1"/>
<polygon fill="#9a32cd" stroke="#9a32cd" points="828.4,-685.4 838.19,-681.34 828.01,-678.41 828.4,-685.4"/>
</a>
</g>
<text text-anchor="middle" x="563" y="-688.5" font-family="Helvetica,sans-Serif" font-size="10.00" fill="grey"> mime_list_in_progress</text>
</g>
<!-- Node12&#45;&gt;Node5 -->
<g id="edge19_Node000005_Node000012" class="edge">
<title>Node12&#45;&gt;Node5</title>
<g id="a_edge19_Node000005_Node000012"><a xlink:title=" ">
<path fill="none" stroke="#9a32cd" stroke-dasharray="5,2" d="M832.86,-117.57C720.19,-104.74 443.5,-79.73 372,-133.5 289.09,-195.85 286.73,-342.08 287.63,-380.9"/>
<polygon fill="#9a32cd" stroke="#9a32cd" points="832.58,-121.06 842.92,-118.73 833.38,-114.1 832.58,-121.06"/>
</a>
</g>
<text text-anchor="middle" x="563" y="-107.5" font-family="Helvetica,sans-Serif" font-size="10.00" fill="grey"> get_info_in_progress</text>
</g>
<!-- Node13&#45;&gt;Node5 -->
<g id="edge21_Node000005_Node000013" class="edge">
<title>Node13&#45;&gt;Node5</title>
<g id="a_edge21_Node000005_Node000013"><a xlink:title=" ">
<path fill="none" stroke="#9a32cd" stroke-dasharray="5,2" d="M824.83,-594.44C708.18,-593.3 444.5,-585.14 372,-535.5 322.07,-501.31 297.82,-426.96 290.49,-400.28"/>
<polygon fill="#9a32cd" stroke="#9a32cd" points="824.95,-597.94 834.98,-594.53 825.01,-590.94 824.95,-597.94"/>
</a>
</g>
<text text-anchor="middle" x="563" y="-590.5" font-family="Helvetica,sans-Serif" font-size="10.00" fill="grey"> thumbnail_state</text>
</g>
<!-- Node14&#45;&gt;Node5 -->
<g id="edge24_Node000005_Node000014" class="edge">
<title>Node14&#45;&gt;Node5</title>
<g id="a_edge24_Node000005_Node000014"><a xlink:title=" ">
<path fill="none" stroke="#9a32cd" stroke-dasharray="5,2" d="M835.45,-518.02C824.83,-519.46 813.54,-520.76 803,-521.5 707.43,-528.21 456.12,-556.36 372,-510.5 326.45,-485.67 300.15,-424.21 291.35,-400.27"/>
<polygon fill="#9a32cd" stroke="#9a32cd" points="835.98,-521.48 845.39,-516.59 834.99,-514.55 835.98,-521.48"/>
</a>
</g>
<text text-anchor="middle" x="563" y="-538.5" font-family="Helvetica,sans-Serif" font-size="10.00" fill="grey"> mount_state</text>
</g>
<!-- Node15&#45;&gt;Node5 -->
<g id="edge27_Node000005_Node000015" class="edge">
<title>Node15&#45;&gt;Node5</title>
<g id="a_edge27_Node000005_Node000015"><a xlink:title=" ">
<path fill="none" stroke="#9a32cd" stroke-dasharray="5,2" d="M814.53,-424.54C717.25,-421.34 530.44,-413.96 372,-400.5 364.39,-399.85 356.41,-399.06 348.51,-398.2"/>
<polygon fill="#9a32cd" stroke="#9a32cd" points="814.7,-428.04 824.8,-424.87 814.92,-421.05 814.7,-428.04"/>
</a>
</g>
<text text-anchor="middle" x="563" y="-421.5" font-family="Helvetica,sans-Serif" font-size="10.00" fill="grey"> filesystem_info_state</text>
</g>
<!-- Node16&#45;&gt;Node5 -->
<g id="edge30_Node000005_Node000016" class="edge">
<title>Node16&#45;&gt;Node5</title>
<g id="a_edge30_Node000005_Node000016"><a xlink:title=" ">
<path fill="none" stroke="#9a32cd" stroke-dasharray="5,2" d="M810.89,-273.92C710.49,-275.25 521.38,-285.83 372,-341.5 345.26,-351.46 317.22,-369.63 301.25,-380.82"/>
<polygon fill="#9a32cd" stroke="#9a32cd" points="810.95,-277.42 820.92,-273.82 810.88,-270.42 810.95,-277.42"/>
</a>
</g>
<text text-anchor="middle" x="563" y="-310.5" font-family="Helvetica,sans-Serif" font-size="10.00" fill="grey"> top_left_read_state</text>
</g>
<!-- Node17&#45;&gt;Node5 -->
<g id="edge33_Node000005_Node000017" class="edge">
<title>Node17&#45;&gt;Node5</title>
<g id="a_edge33_Node000005_Node000017"><a xlink:title=" ">
<path fill="none" stroke="#9a32cd" stroke-dasharray="5,2" d="M818.66,-186.29C699.2,-179.44 443.57,-171.02 372,-218.5 313.01,-257.63 294.03,-350.72 289.32,-380.88"/>
<polygon fill="#9a32cd" stroke="#9a32cd" points="818.56,-189.79 828.74,-186.88 818.97,-182.8 818.56,-189.79"/>
</a>
</g>
<text text-anchor="middle" x="563" y="-191.5" font-family="Helvetica,sans-Serif" font-size="10.00" fill="grey"> link_info_read_state</text>
</g>
<!-- Node18 -->
<g id="Node000018" class="node">
<title>Node18</title>
<g id="a_Node000018"><a xlink:href="structCajaFileSortByEmblemCache.html" target="_top" xlink:title=" ">
<polygon fill="white" stroke="#666666" points="642,-19 484,-19 484,0 642,0 642,-19"/>
<text text-anchor="middle" x="563" y="-7" font-family="Helvetica,sans-Serif" font-size="10.00">CajaFileSortByEmblemCache</text>
</a>
</g>
</g>
<!-- Node18&#45;&gt;Node3 -->
<g id="edge36_Node000003_Node000018" class="edge">
<title>Node18&#45;&gt;Node3</title>
<g id="a_edge36_Node000003_Node000018"><a xlink:title=" ">
<path fill="none" stroke="#9a32cd" stroke-dasharray="5,2" d="M652.2,-8.93C697.58,-9.99 753.61,-13.4 803,-22.5 821.46,-25.9 841.62,-32.44 856.82,-37.98"/>
<polygon fill="#9a32cd" stroke="#9a32cd" points="652.16,-5.43 642.09,-8.73 652.02,-12.43 652.16,-5.43"/>
</a>
</g>
<text text-anchor="middle" x="731.5" y="-25.5" font-family="Helvetica,sans-Serif" font-size="10.00" fill="grey"> compare_by_emblem_cache</text>
</g>
</g>
</svg>
