<?xml version="1.0" encoding="UTF-8" standalone="no"?>
<!DOCTYPE svg PUBLIC "-//W3C//DTD SVG 1.1//EN"
 "http://www.w3.org/Graphics/SVG/1.1/DTD/svg11.dtd">
<!-- Generated by graphviz version 2.43.0 (0)
 -->
<!-- Title: NAObjectProfile Pages: 1 -->
<svg width="299pt" height="225pt"
 viewBox="0.00 0.00 298.50 225.00" xmlns="http://www.w3.org/2000/svg" xmlns:xlink="http://www.w3.org/1999/xlink">
<g id="graph0" class="graph" transform="scale(1 1) rotate(0) translate(4 221)">
<title>NAObjectProfile</title>
<!-- Node1 -->
<g id="Node000001" class="node">
<title>Node1</title>
<g id="a_Node000001"><a xlink:title=" ">
<polygon fill="#999999" stroke="#666666" points="210.5,-19 117.5,-19 117.5,0 210.5,0 210.5,-19"/>
<text text-anchor="middle" x="164" y="-7" font-family="Helvetica,sans-Serif" font-size="10.00">NAObjectProfile</text>
</a>
</g>
</g>
<!-- Node2 -->
<g id="Node000002" class="node">
<title>Node2</title>
<g id="a_Node000002"><a xlink:href="structNAObjectId.html" target="_top" xlink:title=" ">
<polygon fill="white" stroke="#666666" points="139.5,-85 68.5,-85 68.5,-66 139.5,-66 139.5,-85"/>
<text text-anchor="middle" x="104" y="-73" font-family="Helvetica,sans-Serif" font-size="10.00">NAObjectId</text>
</a>
</g>
</g>
<!-- Node2&#45;&gt;Node1 -->
<g id="edge1_Node000001_Node000002" class="edge">
<title>Node2&#45;&gt;Node1</title>
<g id="a_edge1_Node000001_Node000002"><a xlink:title=" ">
<path fill="none" stroke="#9a32cd" stroke-dasharray="5,2" d="M119.02,-58.48C130.6,-46.12 146.2,-29.49 155.65,-19.41"/>
<polygon fill="#9a32cd" stroke="#9a32cd" points="116.38,-56.18 112.09,-65.87 121.48,-60.97 116.38,-56.18"/>
</a>
</g>
<text text-anchor="middle" x="155.5" y="-40" font-family="Helvetica,sans-Serif" font-size="10.00" fill="grey"> parent</text>
</g>
<!-- Node3 -->
<g id="Node000003" class="node">
<title>Node3</title>
<g id="a_Node000003"><a xlink:href="structNAObject.html" target="_top" xlink:title=" ">
<polygon fill="white" stroke="#666666" points="82,-151 20,-151 20,-132 82,-132 82,-151"/>
<text text-anchor="middle" x="51" y="-139" font-family="Helvetica,sans-Serif" font-size="10.00">NAObject</text>
</a>
</g>
</g>
<!-- Node3&#45;&gt;Node2 -->
<g id="edge2_Node000002_Node000003" class="edge">
<title>Node3&#45;&gt;Node2</title>
<g id="a_edge2_Node000002_Node000003"><a xlink:title=" ">
<path fill="none" stroke="#9a32cd" stroke-dasharray="5,2" d="M64.56,-124.12C74.76,-111.81 88.35,-95.39 96.63,-85.41"/>
<polygon fill="#9a32cd" stroke="#9a32cd" points="61.83,-121.93 58.15,-131.87 67.22,-126.4 61.83,-121.93"/>
</a>
</g>
<text text-anchor="middle" x="98.5" y="-106" font-family="Helvetica,sans-Serif" font-size="10.00" fill="grey"> parent</text>
</g>
<!-- Node4 -->
<g id="Node000004" class="node">
<title>Node4</title>
<g id="a_Node000004"><a xlink:title=" ">
<polygon fill="white" stroke="#666666" points="102,-217 0,-217 0,-198 102,-198 102,-217"/>
<text text-anchor="middle" x="51" y="-205" font-family="Helvetica,sans-Serif" font-size="10.00">_NAObjectPrivate</text>
</a>
</g>
</g>
<!-- Node4&#45;&gt;Node3 -->
<g id="edge3_Node000003_Node000004" class="edge">
<title>Node4&#45;&gt;Node3</title>
<g id="a_edge3_Node000003_Node000004"><a xlink:title=" ">
<path fill="none" stroke="#9a32cd" stroke-dasharray="5,2" d="M51,-187.58C51,-175.63 51,-160.72 51,-151.41"/>
<polygon fill="#9a32cd" stroke="#9a32cd" points="47.5,-187.87 51,-197.87 54.5,-187.87 47.5,-187.87"/>
</a>
</g>
<text text-anchor="middle" x="70" y="-172" font-family="Helvetica,sans-Serif" font-size="10.00" fill="grey"> private</text>
</g>
<!-- Node5 -->
<g id="Node000005" class="node">
<title>Node5</title>
<g id="a_Node000005"><a xlink:title=" ">
<polygon fill="white" stroke="#666666" points="211.5,-151 100.5,-151 100.5,-132 211.5,-132 211.5,-151"/>
<text text-anchor="middle" x="156" y="-139" font-family="Helvetica,sans-Serif" font-size="10.00">_NAObjectIdPrivate</text>
</a>
</g>
</g>
<!-- Node5&#45;&gt;Node2 -->
<g id="edge4_Node000002_Node000005" class="edge">
<title>Node5&#45;&gt;Node2</title>
<g id="a_edge4_Node000002_Node000005"><a xlink:title=" ">
<path fill="none" stroke="#9a32cd" stroke-dasharray="5,2" d="M142.4,-123.77C132.43,-111.49 119.27,-95.3 111.24,-85.41"/>
<polygon fill="#9a32cd" stroke="#9a32cd" points="139.96,-126.31 148.99,-131.87 145.4,-121.9 139.96,-126.31"/>
</a>
</g>
<text text-anchor="middle" x="153" y="-106" font-family="Helvetica,sans-Serif" font-size="10.00" fill="grey"> private</text>
</g>
<!-- Node6 -->
<g id="Node000006" class="node">
<title>Node6</title>
<g id="a_Node000006"><a xlink:title=" ">
<polygon fill="white" stroke="#666666" points="290.5,-85 157.5,-85 157.5,-66 290.5,-66 290.5,-85"/>
<text text-anchor="middle" x="224" y="-73" font-family="Helvetica,sans-Serif" font-size="10.00">_NAObjectProfilePrivate</text>
</a>
</g>
</g>
<!-- Node6&#45;&gt;Node1 -->
<g id="edge5_Node000001_Node000006" class="edge">
<title>Node6&#45;&gt;Node1</title>
<g id="a_edge5_Node000001_Node000006"><a xlink:title=" ">
<path fill="none" stroke="#9a32cd" stroke-dasharray="5,2" d="M208.98,-58.48C197.4,-46.12 181.8,-29.49 172.35,-19.41"/>
<polygon fill="#9a32cd" stroke="#9a32cd" points="206.52,-60.97 215.91,-65.87 211.62,-56.18 206.52,-60.97"/>
</a>
</g>
<text text-anchor="middle" x="216" y="-40" font-family="Helvetica,sans-Serif" font-size="10.00" fill="grey"> private</text>
</g>
</g>
</svg>
