<?xml version="1.0" encoding="UTF-8" standalone="no"?>
<!DOCTYPE svg PUBLIC "-//W3C//DTD SVG 1.1//EN"
 "http://www.w3.org/Graphics/SVG/1.1/DTD/svg11.dtd">
<!-- Generated by graphviz version 2.43.0 (0)
 -->
<!-- Title: _PlumaDocInfoPlugin Pages: 1 -->
<!--zoomable 654 -->

<svg id="main" version="1.1" xmlns="http://www.w3.org/2000/svg" xmlns:xlink="http://www.w3.org/1999/xlink" xml:space="preserve" onload="init(evt)">
<style type="text/css"><![CDATA[
.node, .edge {opacity: 0.7;}
.node.selected, .edge.selected {opacity: 1;}
.edge:hover path { stroke: red; }
.edge:hover polygon { stroke: red; fill: red; }
]]></style>

<defs>
  <circle id="rim" cx="0" cy="0" r="7"/>
  <circle id="rim2" cx="0" cy="0" r="3.5"/>
  <g id="zoomPlus">
    <use xlink:href="#rim" fill="#404040"><set attributeName="fill" to="#808080" begin="zoomplus.mouseover" end="zoomplus.mouseout"/></use>
    <path d="M-4,0h8M0,-4v8" fill="none" stroke="white" stroke-width="1.5" pointer-events="none"/>
  </g>
  <g id="zoomMin">
    <use xlink:href="#rim" fill="#404040"><set attributeName="fill" to="#808080" begin="zoomminus.mouseover" end="zoomminus.mouseout"/></use>
    <path d="M-4,0h8" fill="none" stroke="white" stroke-width="1.5" pointer-events="none"/>
  </g>
  <g id="arrowUp" transform="translate(30 24)">
    <use xlink:href="#rim"/>
    <path pointer-events="none" fill="none" stroke="white" stroke-width="1.5" d="M0,-3.0v7 M-2.5,-0.5L0,-3.0L2.5,-0.5"/>
  </g>
  <g id="arrowRight" transform="rotate(90) translate(36 -43)">
    <use xlink:href="#rim"/>
    <path pointer-events="none" fill="none" stroke="white" stroke-width="1.5" d="M0,-3.0v7 M-2.5,-0.5L0,-3.0L2.5,-0.5"/>
  </g>
  <g id="arrowDown" transform="rotate(180) translate(-30 -48)">
    <use xlink:href="#rim"/>
    <path pointer-events="none" fill="none" stroke="white" stroke-width="1.5" d="M0,-3.0v7 M-2.5,-0.5L0,-3.0L2.5,-0.5"/>
  </g>
  <g id="arrowLeft" transform="rotate(270) translate(-36 17)">
    <use xlink:href="#rim"/>
    <path pointer-events="none" fill="none" stroke="white" stroke-width="1.5" d="M0,-3.0v7 M-2.5,-0.5L0,-3.0L2.5,-0.5"/>
  </g>
  <g id="resetDef">
    <use xlink:href="#rim2" fill="#404040"><set attributeName="fill" to="#808080" begin="reset.mouseover" end="reset.mouseout"/></use>
  </g>
</defs>
<script type="application/ecmascript">
var viewWidth = 937;
var viewHeight = 654;
var sectionId = 'dynsection-0';
</script>
<script type="application/ecmascript" xlink:href="svg.min.js"/>
<svg id="graph" class="graph">
<g id="viewport">
<title>_PlumaDocInfoPlugin</title>
<!-- Node1 -->
<g id="Node000001" class="node">
<title>Node1</title>
<g id="a_Node000001"><a xlink:title=" ">
<polygon fill="#999999" stroke="#666666" points="259.5,-19 139.5,-19 139.5,0 259.5,0 259.5,-19"/>
<text text-anchor="middle" x="199.5" y="-7" font-family="Helvetica,sans-Serif" font-size="10.00">_PlumaDocInfoPlugin</text>
</a>
</g>
</g>
<!-- Node2 -->
<g id="Node000002" class="node">
<title>Node2</title>
<g id="a_Node000002"><a xlink:title=" ">
<polygon fill="white" stroke="#666666" points="277,-85 122,-85 122,-66 277,-66 277,-85"/>
<text text-anchor="middle" x="199.5" y="-73" font-family="Helvetica,sans-Serif" font-size="10.00">_PlumaDocInfoPluginPrivate</text>
</a>
</g>
</g>
<!-- Node2&#45;&gt;Node1 -->
<g id="edge1_Node000001_Node000002" class="edge">
<title>Node2&#45;&gt;Node1</title>
<g id="a_edge1_Node000001_Node000002"><a xlink:title=" ">
<path fill="none" stroke="#9a32cd" stroke-dasharray="5,2" d="M199.5,-55.58C199.5,-43.63 199.5,-28.72 199.5,-19.41"/>
<polygon fill="#9a32cd" stroke="#9a32cd" points="196,-55.87 199.5,-65.87 203,-55.87 196,-55.87"/>
</a>
</g>
<text text-anchor="middle" x="210.5" y="-40" font-family="Helvetica,sans-Serif" font-size="10.00" fill="grey"> priv</text>
</g>
<!-- Node3 -->
<g id="Node000003" class="node">
<title>Node3</title>
<g id="a_Node000003"><a xlink:href="struct__PlumaWindow.html" target="_top" xlink:title=" ">
<polygon fill="white" stroke="#666666" points="191.5,-151 99.5,-151 99.5,-132 191.5,-132 191.5,-151"/>
<text text-anchor="middle" x="145.5" y="-139" font-family="Helvetica,sans-Serif" font-size="10.00">_PlumaWindow</text>
</a>
</g>
</g>
<!-- Node3&#45;&gt;Node2 -->
<g id="edge2_Node000002_Node000003" class="edge">
<title>Node3&#45;&gt;Node2</title>
<g id="a_edge2_Node000002_Node000003"><a xlink:title=" ">
<path fill="none" stroke="#9a32cd" stroke-dasharray="5,2" d="M159.32,-124.12C169.71,-111.81 183.56,-95.39 191.99,-85.41"/>
<polygon fill="#9a32cd" stroke="#9a32cd" points="156.56,-121.97 152.78,-131.87 161.91,-126.48 156.56,-121.97"/>
</a>
</g>
<text text-anchor="middle" x="197" y="-106" font-family="Helvetica,sans-Serif" font-size="10.00" fill="grey"> window</text>
</g>
<!-- Node4 -->
<g id="Node000004" class="node">
<title>Node4</title>
<g id="a_Node000004"><a xlink:href="struct__PlumaWindowPrivate.html" target="_top" xlink:title=" ">
<polygon fill="white" stroke="#666666" points="208.5,-217 82.5,-217 82.5,-198 208.5,-198 208.5,-217"/>
<text text-anchor="middle" x="145.5" y="-205" font-family="Helvetica,sans-Serif" font-size="10.00">_PlumaWindowPrivate</text>
</a>
</g>
</g>
<!-- Node4&#45;&gt;Node3 -->
<g id="edge3_Node000003_Node000004" class="edge">
<title>Node4&#45;&gt;Node3</title>
<g id="a_edge3_Node000003_Node000004"><a xlink:title=" ">
<path fill="none" stroke="#9a32cd" stroke-dasharray="5,2" d="M145.5,-187.58C145.5,-175.63 145.5,-160.72 145.5,-151.41"/>
<polygon fill="#9a32cd" stroke="#9a32cd" points="142,-187.87 145.5,-197.87 149,-187.87 142,-187.87"/>
</a>
</g>
<text text-anchor="middle" x="156.5" y="-172" font-family="Helvetica,sans-Serif" font-size="10.00" fill="grey"> priv</text>
</g>
<!-- Node5 -->
<g id="Node000005" class="node">
<title>Node5</title>
<g id="a_Node000005"><a xlink:href="struct__PlumaMessageBus.html" target="_top" xlink:title=" ">
<polygon fill="white" stroke="#666666" points="148.5,-283 34.5,-283 34.5,-264 148.5,-264 148.5,-283"/>
<text text-anchor="middle" x="91.5" y="-271" font-family="Helvetica,sans-Serif" font-size="10.00">_PlumaMessageBus</text>
</a>
</g>
</g>
<!-- Node5&#45;&gt;Node4 -->
<g id="edge4_Node000004_Node000005" class="edge">
<title>Node5&#45;&gt;Node4</title>
<g id="a_edge4_Node000004_Node000005"><a xlink:title=" ">
<path fill="none" stroke="#9a32cd" stroke-dasharray="5,2" d="M98.07,-254.35C100.96,-247.83 104.78,-240.69 109.5,-235 115.34,-227.95 123.45,-221.77 130.49,-217.15"/>
<polygon fill="#9a32cd" stroke="#9a32cd" points="94.76,-253.19 94.3,-263.78 101.26,-255.79 94.76,-253.19"/>
</a>
</g>
<text text-anchor="middle" x="144.5" y="-238" font-family="Helvetica,sans-Serif" font-size="10.00" fill="grey"> message_bus</text>
</g>
<!-- Node6 -->
<g id="Node000006" class="node">
<title>Node6</title>
<g id="a_Node000006"><a xlink:title=" ">
<polygon fill="white" stroke="#666666" points="149,-349 0,-349 0,-330 149,-330 149,-349"/>
<text text-anchor="middle" x="74.5" y="-337" font-family="Helvetica,sans-Serif" font-size="10.00">_PlumaMessageBusPrivate</text>
</a>
</g>
</g>
<!-- Node6&#45;&gt;Node5 -->
<g id="edge5_Node000005_Node000006" class="edge">
<title>Node6&#45;&gt;Node5</title>
<g id="a_edge5_Node000005_Node000006"><a xlink:title=" ">
<path fill="none" stroke="#9a32cd" stroke-dasharray="5,2" d="M79.43,-319.95C82.62,-307.93 86.63,-292.82 89.13,-283.41"/>
<polygon fill="#9a32cd" stroke="#9a32cd" points="75.98,-319.31 76.79,-329.87 82.74,-321.1 75.98,-319.31"/>
</a>
</g>
<text text-anchor="middle" x="95.5" y="-304" font-family="Helvetica,sans-Serif" font-size="10.00" fill="grey"> priv</text>
</g>
<!-- Node7 -->
<g id="Node000007" class="node">
<title>Node7</title>
<g id="a_Node000007"><a xlink:href="struct__PlumaTab.html" target="_top" xlink:title=" ">
<polygon fill="white" stroke="#666666" points="245,-283 176,-283 176,-264 245,-264 245,-283"/>
<text text-anchor="middle" x="210.5" y="-271" font-family="Helvetica,sans-Serif" font-size="10.00">_PlumaTab</text>
</a>
</g>
</g>
<!-- Node7&#45;&gt;Node4 -->
<g id="edge6_Node000004_Node000007" class="edge">
<title>Node7&#45;&gt;Node4</title>
<g id="a_edge6_Node000004_Node000007"><a xlink:title=" ">
<path fill="none" stroke="#9a32cd" stroke-dasharray="5,2" d="M197.64,-255.37C192.33,-248.72 185.91,-241.23 179.5,-235 172.84,-228.53 164.66,-222.11 157.99,-217.21"/>
<polygon fill="#9a32cd" stroke="#9a32cd" points="195.21,-257.94 204.1,-263.7 200.74,-253.65 195.21,-257.94"/>
</a>
</g>
<text text-anchor="middle" x="217" y="-238" font-family="Helvetica,sans-Serif" font-size="10.00" fill="grey"> active_tab</text>
</g>
<!-- Node8 -->
<g id="Node000008" class="node">
<title>Node8</title>
<g id="a_Node000008"><a xlink:title=" ">
<polygon fill="white" stroke="#666666" points="271.5,-349 167.5,-349 167.5,-330 271.5,-330 271.5,-349"/>
<text text-anchor="middle" x="219.5" y="-337" font-family="Helvetica,sans-Serif" font-size="10.00">_PlumaTabPrivate</text>
</a>
</g>
</g>
<!-- Node8&#45;&gt;Node7 -->
<g id="edge7_Node000007_Node000008" class="edge">
<title>Node8&#45;&gt;Node7</title>
<g id="a_edge7_Node000007_Node000008"><a xlink:title=" ">
<path fill="none" stroke="#9a32cd" stroke-dasharray="5,2" d="M216.89,-319.95C215.2,-307.93 213.08,-292.82 211.75,-283.41"/>
<polygon fill="#9a32cd" stroke="#9a32cd" points="213.43,-320.45 218.29,-329.87 220.36,-319.48 213.43,-320.45"/>
</a>
</g>
<text text-anchor="middle" x="226.5" y="-304" font-family="Helvetica,sans-Serif" font-size="10.00" fill="grey"> priv</text>
</g>
<!-- Node9 -->
<g id="Node000009" class="node">
<title>Node9</title>
<g id="a_Node000009"><a xlink:href="struct__PlumaPrintJob.html" target="_top" xlink:title=" ">
<polygon fill="white" stroke="#666666" points="142.5,-415 52.5,-415 52.5,-396 142.5,-396 142.5,-415"/>
<text text-anchor="middle" x="97.5" y="-403" font-family="Helvetica,sans-Serif" font-size="10.00">_PlumaPrintJob</text>
</a>
</g>
</g>
<!-- Node9&#45;&gt;Node8 -->
<g id="edge8_Node000008_Node000009" class="edge">
<title>Node9&#45;&gt;Node8</title>
<g id="a_edge8_Node000008_Node000009"><a xlink:title=" ">
<path fill="none" stroke="#9a32cd" stroke-dasharray="5,2" d="M102.26,-385.77C104.85,-378.99 108.74,-371.81 114.5,-367 123.05,-359.86 146.18,-353.65 168.56,-349.04"/>
<polygon fill="#9a32cd" stroke="#9a32cd" points="98.79,-385.14 99.18,-395.73 105.48,-387.21 98.79,-385.14"/>
</a>
</g>
<text text-anchor="middle" x="137.5" y="-370" font-family="Helvetica,sans-Serif" font-size="10.00" fill="grey"> print_job</text>
</g>
<!-- Node10 -->
<g id="Node000010" class="node">
<title>Node10</title>
<g id="a_Node000010"><a xlink:title=" ">
<polygon fill="white" stroke="#666666" points="146,-492 21,-492 21,-473 146,-473 146,-492"/>
<text text-anchor="middle" x="83.5" y="-480" font-family="Helvetica,sans-Serif" font-size="10.00">_PlumaPrintJobPrivate</text>
</a>
</g>
</g>
<!-- Node10&#45;&gt;Node9 -->
<g id="edge9_Node000009_Node000010" class="edge">
<title>Node10&#45;&gt;Node9</title>
<g id="a_edge9_Node000009_Node000010"><a xlink:title=" ">
<path fill="none" stroke="#9a32cd" stroke-dasharray="5,2" d="M86.96,-462.97C89.82,-447.65 93.75,-426.59 95.91,-415"/>
<polygon fill="#9a32cd" stroke="#9a32cd" points="83.5,-462.42 85.11,-472.9 90.38,-463.71 83.5,-462.42"/>
</a>
</g>
<text text-anchor="middle" x="103.5" y="-441.5" font-family="Helvetica,sans-Serif" font-size="10.00" fill="grey"> priv</text>
</g>
<!-- Node11 -->
<g id="Node000011" class="node">
<title>Node11</title>
<g id="a_Node000011"><a xlink:href="struct__PlumaView.html" target="_top" xlink:title=" ">
<polygon fill="white" stroke="#666666" points="122,-569 45,-569 45,-550 122,-550 122,-569"/>
<text text-anchor="middle" x="83.5" y="-557" font-family="Helvetica,sans-Serif" font-size="10.00">_PlumaView</text>
</a>
</g>
</g>
<!-- Node11&#45;&gt;Node10 -->
<g id="edge10_Node000010_Node000011" class="edge">
<title>Node11&#45;&gt;Node10</title>
<g id="a_edge10_Node000010_Node000011"><a xlink:title=" ">
<path fill="none" stroke="#9a32cd" stroke-dasharray="5,2" d="M83.5,-539.52C83.5,-524.24 83.5,-503.48 83.5,-492"/>
<polygon fill="#9a32cd" stroke="#9a32cd" points="80,-539.9 83.5,-549.9 87,-539.9 80,-539.9"/>
</a>
</g>
<text text-anchor="middle" x="97" y="-518.5" font-family="Helvetica,sans-Serif" font-size="10.00" fill="grey"> view</text>
</g>
<!-- Node12 -->
<g id="Node000012" class="node">
<title>Node12</title>
<g id="a_Node000012"><a xlink:title=" ">
<polygon fill="white" stroke="#666666" points="139,-640.5 28,-640.5 28,-621.5 139,-621.5 139,-640.5"/>
<text text-anchor="middle" x="83.5" y="-628.5" font-family="Helvetica,sans-Serif" font-size="10.00">_PlumaViewPrivate</text>
</a>
</g>
</g>
<!-- Node12&#45;&gt;Node11 -->
<g id="edge11_Node000011_Node000012" class="edge">
<title>Node12&#45;&gt;Node11</title>
<g id="a_edge11_Node000011_Node000012"><a xlink:title=" ">
<path fill="none" stroke="#9a32cd" stroke-dasharray="5,2" d="M83.5,-611.21C83.5,-597.5 83.5,-579.55 83.5,-569.09"/>
<polygon fill="#9a32cd" stroke="#9a32cd" points="80,-611.48 83.5,-621.48 87,-611.48 80,-611.48"/>
</a>
</g>
<text text-anchor="middle" x="94.5" y="-590" font-family="Helvetica,sans-Serif" font-size="10.00" fill="grey"> priv</text>
</g>
<!-- Node13 -->
<g id="Node000013" class="node">
<title>Node13</title>
<g id="a_Node000013"><a xlink:href="struct__PlumaDocument.html" target="_top" xlink:title=" ">
<polygon fill="white" stroke="#666666" points="376,-569 273,-569 273,-550 376,-550 376,-569"/>
<text text-anchor="middle" x="324.5" y="-557" font-family="Helvetica,sans-Serif" font-size="10.00">_PlumaDocument</text>
</a>
</g>
</g>
<!-- Node13&#45;&gt;Node10 -->
<g id="edge12_Node000010_Node000013" class="edge">
<title>Node13&#45;&gt;Node10</title>
<g id="a_edge12_Node000010_Node000013"><a xlink:title=" ">
<path fill="none" stroke="#9a32cd" stroke-dasharray="5,2" d="M262.61,-558.43C225.43,-556.29 178.01,-549.76 139.5,-532 126.06,-525.8 125.68,-519.7 114.5,-510 107.55,-503.97 99.66,-497.23 93.58,-492.06"/>
<polygon fill="#9a32cd" stroke="#9a32cd" points="262.66,-561.94 272.81,-558.92 263,-554.94 262.66,-561.94"/>
</a>
</g>
<text text-anchor="middle" x="150" y="-518.5" font-family="Helvetica,sans-Serif" font-size="10.00" fill="grey"> doc</text>
</g>
<!-- Node14 -->
<g id="Node000014" class="node">
<title>Node14</title>
<g id="a_Node000014"><a xlink:title=" ">
<polygon fill="white" stroke="#666666" points="599,-349 462,-349 462,-330 599,-330 599,-349"/>
<text text-anchor="middle" x="530.5" y="-337" font-family="Helvetica,sans-Serif" font-size="10.00">_PlumaDocumentPrivate</text>
</a>
</g>
</g>
<!-- Node13&#45;&gt;Node14 -->
<g id="edge26_Node000014_Node000013" class="edge">
<title>Node13&#45;&gt;Node14</title>
<g id="a_edge26_Node000014_Node000013"><a xlink:title=" ">
<path fill="none" stroke="#9a32cd" stroke-dasharray="5,2" d="M297.06,-545.35C254.9,-523.33 182.15,-477.07 213.5,-433 243.36,-391.01 387.57,-362.38 470.83,-349.06"/>
<polygon fill="#9a32cd" stroke="#9a32cd" points="295.55,-548.5 306.05,-549.92 298.72,-542.26 295.55,-548.5"/>
</a>
</g>
<text text-anchor="middle" x="277" y="-441.5" font-family="Helvetica,sans-Serif" font-size="10.00" fill="grey"> mount_operation_factory</text>
</g>
<!-- Node17 -->
<g id="Node000017" class="node">
<title>Node17</title>
<g id="a_Node000017"><a xlink:title=" ">
<polygon fill="white" stroke="#666666" points="868.5,-492 698.5,-492 698.5,-473 868.5,-473 868.5,-492"/>
<text text-anchor="middle" x="783.5" y="-480" font-family="Helvetica,sans-Serif" font-size="10.00">_PlumaDocumentLoaderPrivate</text>
</a>
</g>
</g>
<!-- Node13&#45;&gt;Node17 -->
<g id="edge17_Node000017_Node000013" class="edge">
<title>Node13&#45;&gt;Node17</title>
<g id="a_edge17_Node000017_Node000013"><a xlink:title=" ">
<path fill="none" stroke="#9a32cd" stroke-dasharray="5,2" d="M386.16,-548.42C477.18,-533.55 645.92,-505.98 731.22,-492.04"/>
<polygon fill="#9a32cd" stroke="#9a32cd" points="385.57,-544.98 376.26,-550.04 386.69,-551.88 385.57,-544.98"/>
</a>
</g>
<text text-anchor="middle" x="634.5" y="-518.5" font-family="Helvetica,sans-Serif" font-size="10.00" fill="grey"> document</text>
</g>
<!-- Node21 -->
<g id="Node000021" class="node">
<title>Node21</title>
<g id="a_Node000021"><a xlink:title=" ">
<polygon fill="white" stroke="#666666" points="518,-492 353,-492 353,-473 518,-473 518,-492"/>
<text text-anchor="middle" x="435.5" y="-480" font-family="Helvetica,sans-Serif" font-size="10.00">_PlumaDocumentSaverPrivate</text>
</a>
</g>
</g>
<!-- Node13&#45;&gt;Node21 -->
<g id="edge23_Node000021_Node000013" class="edge">
<title>Node13&#45;&gt;Node21</title>
<g id="a_edge23_Node000021_Node000013"><a xlink:title=" ">
<path fill="none" stroke="#9a32cd" stroke-dasharray="5,2" d="M333.29,-540.74C339.17,-530.49 347.79,-518.06 358.5,-510 369.34,-501.84 382.88,-496.07 395.57,-492.05"/>
<polygon fill="#9a32cd" stroke="#9a32cd" points="330.14,-539.23 328.52,-549.7 336.31,-542.52 330.14,-539.23"/>
</a>
</g>
<text text-anchor="middle" x="384.5" y="-518.5" font-family="Helvetica,sans-Serif" font-size="10.00" fill="grey"> document</text>
</g>
<!-- Node14&#45;&gt;Node13 -->
<g id="edge13_Node000013_Node000014" class="edge">
<title>Node14&#45;&gt;Node13</title>
<g id="a_edge13_Node000013_Node000014"><a xlink:title=" ">
<path fill="none" stroke="#9a32cd" stroke-dasharray="5,2" d="M472.17,-351.61C442.46,-359.74 407.45,-373.42 382.5,-396 335.19,-438.81 326.46,-522.88 324.86,-549.91"/>
<polygon fill="#9a32cd" stroke="#9a32cd" points="473.21,-354.95 482.02,-349.06 471.46,-348.18 473.21,-354.95"/>
</a>
</g>
<text text-anchor="middle" x="364.5" y="-441.5" font-family="Helvetica,sans-Serif" font-size="10.00" fill="grey"> priv</text>
</g>
<!-- Node15 -->
<g id="Node000015" class="node">
<title>Node15</title>
<g id="a_Node000015"><a xlink:title=" ">
<polygon fill="white" stroke="#666666" points="662,-569 565,-569 565,-550 662,-550 662,-569"/>
<text text-anchor="middle" x="613.5" y="-557" font-family="Helvetica,sans-Serif" font-size="10.00">_PlumaEncoding</text>
</a>
</g>
</g>
<!-- Node15&#45;&gt;Node8 -->
<g id="edge27_Node000008_Node000015" class="edge">
<title>Node15&#45;&gt;Node8</title>
<g id="a_edge27_Node000008_Node000015"><a xlink:title=" ">
<path fill="none" stroke="#9a32cd" stroke-dasharray="5,2" d="M598.35,-542.08C581.66,-524.32 553.71,-495.53 527.5,-473 504.85,-453.53 500.81,-445.08 473.5,-433 435.8,-416.32 421.74,-427.66 382.5,-415 326.24,-396.85 263.7,-364.61 235.2,-349.18"/>
<polygon fill="#9a32cd" stroke="#9a32cd" points="596.2,-544.9 605.58,-549.83 601.32,-540.13 596.2,-544.9"/>
</a>
</g>
<text text-anchor="middle" x="544" y="-441.5" font-family="Helvetica,sans-Serif" font-size="10.00" fill="grey"> tmp_encoding</text>
</g>
<!-- Node15&#45;&gt;Node14 -->
<g id="edge14_Node000014_Node000015" class="edge">
<title>Node15&#45;&gt;Node14</title>
<g id="a_edge14_Node000014_Node000015"><a xlink:title=" ">
<path fill="none" stroke="#9a32cd" stroke-dasharray="5,2" d="M625.9,-541.18C650.36,-504.74 698.88,-419.22 656.5,-367 648.75,-357.45 624.4,-351.22 599.14,-347.21"/>
<polygon fill="#9a32cd" stroke="#9a32cd" points="622.81,-539.5 620.01,-549.71 628.57,-543.48 622.81,-539.5"/>
</a>
</g>
<text text-anchor="middle" x="721" y="-447" font-family="Helvetica,sans-Serif" font-size="10.00" fill="grey"> encoding</text>
<text text-anchor="middle" x="721" y="-436" font-family="Helvetica,sans-Serif" font-size="10.00" fill="grey">requested_encoding</text>
</g>
<!-- Node15&#45;&gt;Node17 -->
<g id="edge18_Node000017_Node000015" class="edge">
<title>Node15&#45;&gt;Node17</title>
<g id="a_edge18_Node000017_Node000015"><a xlink:title=" ">
<path fill="none" stroke="#9a32cd" stroke-dasharray="5,2" d="M651.58,-546.14C660.52,-542.34 669.7,-537.64 677.5,-532 687.97,-524.44 685.67,-517.05 696.5,-510 709.07,-501.82 724.29,-496.06 738.47,-492.05"/>
<polygon fill="#9a32cd" stroke="#9a32cd" points="650.07,-542.98 642.06,-549.91 652.65,-549.48 650.07,-542.98"/>
</a>
</g>
<text text-anchor="middle" x="758" y="-524" font-family="Helvetica,sans-Serif" font-size="10.00" fill="grey"> auto_detected_encoding</text>
<text text-anchor="middle" x="758" y="-513" font-family="Helvetica,sans-Serif" font-size="10.00" fill="grey">encoding</text>
</g>
<!-- Node15&#45;&gt;Node21 -->
<g id="edge24_Node000021_Node000015" class="edge">
<title>Node15&#45;&gt;Node21</title>
<g id="a_edge24_Node000021_Node000015"><a xlink:title=" ">
<path fill="none" stroke="#9a32cd" stroke-dasharray="5,2" d="M554.57,-557.86C508.23,-555.96 449,-549.95 433.5,-532 424.03,-521.03 428.19,-502.91 431.94,-492.2"/>
<polygon fill="#9a32cd" stroke="#9a32cd" points="554.72,-561.37 564.84,-558.22 554.97,-554.37 554.72,-561.37"/>
</a>
</g>
<text text-anchor="middle" x="457.5" y="-518.5" font-family="Helvetica,sans-Serif" font-size="10.00" fill="grey"> encoding</text>
</g>
<!-- Node16 -->
<g id="Node000016" class="node">
<title>Node16</title>
<g id="a_Node000016"><a xlink:href="struct__PlumaDocumentLoader.html" target="_top" xlink:title=" ">
<polygon fill="white" stroke="#666666" points="847.5,-415 711.5,-415 711.5,-396 847.5,-396 847.5,-415"/>
<text text-anchor="middle" x="779.5" y="-403" font-family="Helvetica,sans-Serif" font-size="10.00">_PlumaDocumentLoader</text>
</a>
</g>
</g>
<!-- Node16&#45;&gt;Node14 -->
<g id="edge15_Node000014_Node000016" class="edge">
<title>Node16&#45;&gt;Node14</title>
<g id="a_edge15_Node000014_Node000016"><a xlink:title=" ">
<path fill="none" stroke="#9a32cd" stroke-dasharray="5,2" d="M753.24,-391.67C735.59,-383.52 711.6,-373.35 689.5,-367 660.45,-358.65 627.62,-352.63 599.36,-348.46"/>
<polygon fill="#9a32cd" stroke="#9a32cd" points="751.8,-394.86 762.34,-395.95 754.78,-388.53 751.8,-394.86"/>
</a>
</g>
<text text-anchor="middle" x="736.5" y="-370" font-family="Helvetica,sans-Serif" font-size="10.00" fill="grey"> loader</text>
</g>
<!-- Node17&#45;&gt;Node16 -->
<g id="edge16_Node000016_Node000017" class="edge">
<title>Node17&#45;&gt;Node16</title>
<g id="a_edge16_Node000016_Node000017"><a xlink:title=" ">
<path fill="none" stroke="#9a32cd" stroke-dasharray="5,2" d="M782.49,-462.52C781.67,-447.24 780.57,-426.48 779.95,-415"/>
<polygon fill="#9a32cd" stroke="#9a32cd" points="779.01,-463.1 783.04,-472.9 786,-462.72 779.01,-463.1"/>
</a>
</g>
<text text-anchor="middle" x="792.5" y="-441.5" font-family="Helvetica,sans-Serif" font-size="10.00" fill="grey"> priv</text>
</g>
<!-- Node18 -->
<g id="Node000018" class="node">
<title>Node18</title>
<g id="a_Node000018"><a xlink:href="struct__PlumaSmartCharsetConverter.html" target="_top" xlink:title=" ">
<polygon fill="white" stroke="#666666" points="929,-569 762,-569 762,-550 929,-550 929,-569"/>
<text text-anchor="middle" x="845.5" y="-557" font-family="Helvetica,sans-Serif" font-size="10.00">_PlumaSmartCharsetConverter</text>
</a>
</g>
</g>
<!-- Node18&#45;&gt;Node17 -->
<g id="edge19_Node000017_Node000018" class="edge">
<title>Node18&#45;&gt;Node17</title>
<g id="a_edge19_Node000017_Node000018"><a xlink:title=" ">
<path fill="none" stroke="#9a32cd" stroke-dasharray="5,2" d="M839.99,-540.27C836.4,-530.54 830.99,-518.79 823.5,-510 817.23,-502.65 808.43,-496.51 800.68,-492.01"/>
<polygon fill="#9a32cd" stroke="#9a32cd" points="836.69,-541.43 843.17,-549.81 843.33,-539.21 836.69,-541.43"/>
</a>
</g>
<text text-anchor="middle" x="860.5" y="-518.5" font-family="Helvetica,sans-Serif" font-size="10.00" fill="grey"> converter</text>
</g>
<!-- Node19 -->
<g id="Node000019" class="node">
<title>Node19</title>
<g id="a_Node000019"><a xlink:title=" ">
<polygon fill="white" stroke="#666666" points="929,-646 762,-646 762,-616 929,-616 929,-646"/>
<text text-anchor="start" x="770" y="-634" font-family="Helvetica,sans-Serif" font-size="10.00">_PlumaSmartCharsetConverter</text>
<text text-anchor="middle" x="845.5" y="-623" font-family="Helvetica,sans-Serif" font-size="10.00">Private</text>
</a>
</g>
</g>
<!-- Node19&#45;&gt;Node18 -->
<g id="edge20_Node000018_Node000019" class="edge">
<title>Node19&#45;&gt;Node18</title>
<g id="a_edge20_Node000018_Node000019"><a xlink:title=" ">
<path fill="none" stroke="#9a32cd" stroke-dasharray="5,2" d="M845.5,-605.56C845.5,-592.95 845.5,-578.35 845.5,-569.27"/>
<polygon fill="#9a32cd" stroke="#9a32cd" points="842,-605.94 845.5,-615.94 849,-605.94 842,-605.94"/>
</a>
</g>
<text text-anchor="middle" x="856.5" y="-590" font-family="Helvetica,sans-Serif" font-size="10.00" fill="grey"> priv</text>
</g>
<!-- Node20 -->
<g id="Node000020" class="node">
<title>Node20</title>
<g id="a_Node000020"><a xlink:href="struct__PlumaDocumentSaver.html" target="_top" xlink:title=" ">
<polygon fill="white" stroke="#666666" points="522,-415 391,-415 391,-396 522,-396 522,-415"/>
<text text-anchor="middle" x="456.5" y="-403" font-family="Helvetica,sans-Serif" font-size="10.00">_PlumaDocumentSaver</text>
</a>
</g>
</g>
<!-- Node20&#45;&gt;Node14 -->
<g id="edge21_Node000014_Node000020" class="edge">
<title>Node20&#45;&gt;Node14</title>
<g id="a_edge21_Node000014_Node000020"><a xlink:title=" ">
<path fill="none" stroke="#9a32cd" stroke-dasharray="5,2" d="M474.21,-389.18C488.58,-376.76 508.32,-359.68 520.2,-349.41"/>
<polygon fill="#9a32cd" stroke="#9a32cd" points="471.75,-386.68 466.48,-395.87 476.33,-391.97 471.75,-386.68"/>
</a>
</g>
<text text-anchor="middle" x="513" y="-370" font-family="Helvetica,sans-Serif" font-size="10.00" fill="grey"> saver</text>
</g>
<!-- Node21&#45;&gt;Node20 -->
<g id="edge22_Node000020_Node000021" class="edge">
<title>Node21&#45;&gt;Node20</title>
<g id="a_edge22_Node000020_Node000021"><a xlink:title=" ">
<path fill="none" stroke="#9a32cd" stroke-dasharray="5,2" d="M440.69,-462.97C444.98,-447.65 450.87,-426.59 454.12,-415"/>
<polygon fill="#9a32cd" stroke="#9a32cd" points="437.23,-462.32 437.91,-472.9 443.98,-464.21 437.23,-462.32"/>
</a>
</g>
<text text-anchor="middle" x="458.5" y="-441.5" font-family="Helvetica,sans-Serif" font-size="10.00" fill="grey"> priv</text>
</g>
<!-- Node22 -->
<g id="Node000022" class="node">
<title>Node22</title>
<g id="a_Node000022"><a xlink:title=" ">
<polygon fill="white" stroke="#666666" points="647,-415 540,-415 540,-396 647,-396 647,-415"/>
<text text-anchor="middle" x="593.5" y="-403" font-family="Helvetica,sans-Serif" font-size="10.00">_PlumaTextRegion</text>
</a>
</g>
</g>
<!-- Node22&#45;&gt;Node14 -->
<g id="edge25_Node000014_Node000022" class="edge">
<title>Node22&#45;&gt;Node14</title>
<g id="a_edge25_Node000014_Node000022"><a xlink:title=" ">
<path fill="none" stroke="#9a32cd" stroke-dasharray="5,2" d="M577.73,-388.48C565.56,-376.12 549.19,-359.49 539.27,-349.41"/>
<polygon fill="#9a32cd" stroke="#9a32cd" points="575.49,-391.2 585,-395.87 580.48,-386.29 575.49,-391.2"/>
</a>
</g>
<text text-anchor="middle" x="609" y="-370" font-family="Helvetica,sans-Serif" font-size="10.00" fill="grey"> to_search_region</text>
</g>
<!-- Node23 -->
<g id="Node000023" class="node">
<title>Node23</title>
<g id="a_Node000023"><a xlink:title=" ">
<polygon fill="white" stroke="#666666" points="295.5,-151 209.5,-151 209.5,-132 295.5,-132 295.5,-151"/>
<text text-anchor="middle" x="252.5" y="-139" font-family="Helvetica,sans-Serif" font-size="10.00">DocInfoDialog</text>
</a>
</g>
</g>
<!-- Node23&#45;&gt;Node2 -->
<g id="edge28_Node000002_Node000023" class="edge">
<title>Node23&#45;&gt;Node2</title>
<g id="a_edge28_Node000002_Node000023"><a xlink:title=" ">
<path fill="none" stroke="#9a32cd" stroke-dasharray="5,2" d="M238.94,-124.12C228.74,-111.81 215.15,-95.39 206.87,-85.41"/>
<polygon fill="#9a32cd" stroke="#9a32cd" points="236.28,-126.4 245.35,-131.87 241.67,-121.93 236.28,-126.4"/>
</a>
</g>
<text text-anchor="middle" x="245.5" y="-106" font-family="Helvetica,sans-Serif" font-size="10.00" fill="grey"> dialog</text>
</g>
</g>
</svg>

<g id="navigator" transform="translate(0 0)" fill="#404254">
  <rect fill="#f2f5e9" fill-opacity="0.5" stroke="#606060" stroke-width=".5" x="0" y="0" width="60" height="60"/>
  <use id="zoomplus" xlink:href="#zoomPlus" x="17" y="9" onmousedown="handleZoom(evt,'in')"/>
  <use id="zoomminus" xlink:href="#zoomMin" x="42" y="9" onmousedown="handleZoom(evt,'out')"/>
  <use id="reset" xlink:href="#resetDef" x="30" y="36" onmousedown="handleReset()"/>
   <use id="arrowup" xlink:href="#arrowUp" x="0" y="0" onmousedown="handlePan(0,-1)"/>
  <use id="arrowright" xlink:href="#arrowRight" x="0" y="0" onmousedown="handlePan(1,0)"/>
  <use id="arrowdown" xlink:href="#arrowDown" x="0" y="0" onmousedown="handlePan(0,1)"/>
  <use id="arrowleft" xlink:href="#arrowLeft" x="0" y="0" onmousedown="handlePan(-1,0)"/>
</g>
<svg viewBox="0 0 15 15" width="100%" height="30px" preserveAspectRatio="xMaxYMin meet">
 <g id="arrow_out" transform="scale(0.3 0.3)">
  <a xlink:href="struct__PlumaDocInfoPlugin__coll__graph_org.svg" target="_base">
   <rect id="button" ry="5" rx="5" y="6" x="6" height="38" width="38"
        fill="#f2f5e9" fill-opacity="0.5" stroke="#606060" stroke-width="1.0"/>
   <path id="arrow"
     d="M 11.500037,31.436501 C 11.940474,20.09759 22.043105,11.32322 32.158766,21.979434 L 37.068811,17.246167 C 37.068811,17.246167 37.088388,32 37.088388,32 L 22.160133,31.978069 C 22.160133,31.978069 26.997745,27.140456 26.997745,27.140456 C 18.528582,18.264221 13.291696,25.230495 11.500037,31.436501 z"
     style="fill:#404040;"/>
  </a>
 </g>
</svg>

<style type='text/css'>
<![CDATA[
[data-mouse-over-selected='false'] { opacity: 0.7; }
[data-mouse-over-selected='true']  { opacity: 1.0; }
]]>
</style>
<script type="application/ecmascript"><![CDATA[
document.addEventListener('DOMContentLoaded', (event) => {
  highlightEdges();
  highlightAdjacentNodes();
});
]]></script>
</svg>
