<?xml version="1.0" encoding="UTF-8" standalone="no"?>
<!DOCTYPE svg PUBLIC "-//W3C//DTD SVG 1.1//EN"
 "http://www.w3.org/Graphics/SVG/1.1/DTD/svg11.dtd">
<!-- Generated by graphviz version 2.43.0 (0)
 -->
<!-- Title: _PulseDeviceClass Pages: 1 -->
<!--zoomable 423 -->

<svg id="main" version="1.1" xmlns="http://www.w3.org/2000/svg" xmlns:xlink="http://www.w3.org/1999/xlink" xml:space="preserve" onload="init(evt)">
<style type="text/css"><![CDATA[
.node, .edge {opacity: 0.7;}
.node.selected, .edge.selected {opacity: 1;}
.edge:hover path { stroke: red; }
.edge:hover polygon { stroke: red; fill: red; }
]]></style>

<defs>
  <circle id="rim" cx="0" cy="0" r="7"/>
  <circle id="rim2" cx="0" cy="0" r="3.5"/>
  <g id="zoomPlus">
    <use xlink:href="#rim" fill="#404040"><set attributeName="fill" to="#808080" begin="zoomplus.mouseover" end="zoomplus.mouseout"/></use>
    <path d="M-4,0h8M0,-4v8" fill="none" stroke="white" stroke-width="1.5" pointer-events="none"/>
  </g>
  <g id="zoomMin">
    <use xlink:href="#rim" fill="#404040"><set attributeName="fill" to="#808080" begin="zoomminus.mouseover" end="zoomminus.mouseout"/></use>
    <path d="M-4,0h8" fill="none" stroke="white" stroke-width="1.5" pointer-events="none"/>
  </g>
  <g id="arrowUp" transform="translate(30 24)">
    <use xlink:href="#rim"/>
    <path pointer-events="none" fill="none" stroke="white" stroke-width="1.5" d="M0,-3.0v7 M-2.5,-0.5L0,-3.0L2.5,-0.5"/>
  </g>
  <g id="arrowRight" transform="rotate(90) translate(36 -43)">
    <use xlink:href="#rim"/>
    <path pointer-events="none" fill="none" stroke="white" stroke-width="1.5" d="M0,-3.0v7 M-2.5,-0.5L0,-3.0L2.5,-0.5"/>
  </g>
  <g id="arrowDown" transform="rotate(180) translate(-30 -48)">
    <use xlink:href="#rim"/>
    <path pointer-events="none" fill="none" stroke="white" stroke-width="1.5" d="M0,-3.0v7 M-2.5,-0.5L0,-3.0L2.5,-0.5"/>
  </g>
  <g id="arrowLeft" transform="rotate(270) translate(-36 17)">
    <use xlink:href="#rim"/>
    <path pointer-events="none" fill="none" stroke="white" stroke-width="1.5" d="M0,-3.0v7 M-2.5,-0.5L0,-3.0L2.5,-0.5"/>
  </g>
  <g id="resetDef">
    <use xlink:href="#rim2" fill="#404040"><set attributeName="fill" to="#808080" begin="reset.mouseover" end="reset.mouseout"/></use>
  </g>
</defs>
<script type="application/ecmascript">
var viewWidth = 658;
var viewHeight = 423;
var sectionId = 'dynsection-0';
</script>
<script type="application/ecmascript" xlink:href="svg.min.js"/>
<svg id="graph" class="graph">
<g id="viewport">
<title>_PulseDeviceClass</title>
<!-- Node1 -->
<g id="Node000001" class="node">
<title>Node1</title>
<g id="a_Node000001"><a xlink:title=" ">
<polygon fill="#999999" stroke="#666666" points="471.5,-19 363.5,-19 363.5,0 471.5,0 471.5,-19"/>
<text text-anchor="middle" x="417.5" y="-7" font-family="Helvetica,sans-Serif" font-size="10.00">_PulseDeviceClass</text>
</a>
</g>
</g>
<!-- Node2 -->
<g id="Node000002" class="node">
<title>Node2</title>
<g id="a_Node000002"><a xlink:href="struct__MateMixerDeviceClass.html" target="_top" xlink:title=" ">
<polygon fill="white" stroke="#666666" points="484.5,-85 350.5,-85 350.5,-66 484.5,-66 484.5,-85"/>
<text text-anchor="middle" x="417.5" y="-73" font-family="Helvetica,sans-Serif" font-size="10.00">_MateMixerDeviceClass</text>
</a>
</g>
</g>
<!-- Node2&#45;&gt;Node1 -->
<g id="edge1_Node000001_Node000002" class="edge">
<title>Node2&#45;&gt;Node1</title>
<g id="a_edge1_Node000001_Node000002"><a xlink:title=" ">
<path fill="none" stroke="#9a32cd" stroke-dasharray="5,2" d="M417.5,-55.58C417.5,-43.63 417.5,-28.72 417.5,-19.41"/>
<polygon fill="#9a32cd" stroke="#9a32cd" points="414,-55.87 417.5,-65.87 421,-55.87 414,-55.87"/>
</a>
</g>
<text text-anchor="middle" x="435" y="-40" font-family="Helvetica,sans-Serif" font-size="10.00" fill="grey"> parent</text>
</g>
<!-- Node3 -->
<g id="Node000003" class="node">
<title>Node3</title>
<g id="a_Node000003"><a xlink:href="struct__MateMixerStream.html" target="_top" xlink:title=" ">
<polygon fill="white" stroke="#666666" points="527,-415 418,-415 418,-396 527,-396 527,-415"/>
<text text-anchor="middle" x="472.5" y="-403" font-family="Helvetica,sans-Serif" font-size="10.00">_MateMixerStream</text>
</a>
</g>
</g>
<!-- Node3&#45;&gt;Node2 -->
<g id="edge2_Node000002_Node000003" class="edge">
<title>Node3&#45;&gt;Node2</title>
<g id="a_edge2_Node000002_Node000003"><a xlink:title=" ">
<path fill="none" stroke="#9a32cd" stroke-dasharray="5,2" d="M536.81,-393.25C564.44,-384.36 590.5,-368.54 590.5,-340.5 590.5,-340.5 590.5,-340.5 590.5,-140.5 590.5,-114.16 519.07,-95.25 468,-85.09"/>
<polygon fill="#9a32cd" stroke="#9a32cd" points="535.63,-389.95 527.01,-396.12 537.59,-396.67 535.63,-389.95"/>
</a>
</g>
<text text-anchor="middle" x="620" y="-238" font-family="Helvetica,sans-Serif" font-size="10.00" fill="grey"> get_stream</text>
</g>
<!-- Node8 -->
<g id="Node000008" class="node">
<title>Node8</title>
<g id="a_Node000008"><a xlink:title=" ">
<polygon fill="white" stroke="#666666" points="562,-349 383,-349 383,-330 562,-330 562,-349"/>
<text text-anchor="middle" x="472.5" y="-337" font-family="Helvetica,sans-Serif" font-size="10.00">_MateMixerStreamControlPrivate</text>
</a>
</g>
</g>
<!-- Node3&#45;&gt;Node8 -->
<g id="edge8_Node000008_Node000003" class="edge">
<title>Node3&#45;&gt;Node8</title>
<g id="a_edge8_Node000008_Node000003"><a xlink:title=" ">
<path fill="none" stroke="#9a32cd" stroke-dasharray="5,2" d="M472.5,-385.58C472.5,-373.63 472.5,-358.72 472.5,-349.41"/>
<polygon fill="#9a32cd" stroke="#9a32cd" points="469,-385.87 472.5,-395.87 476,-385.87 469,-385.87"/>
</a>
</g>
<text text-anchor="middle" x="491.5" y="-370" font-family="Helvetica,sans-Serif" font-size="10.00" fill="grey"> stream</text>
</g>
<!-- Node4 -->
<g id="Node000004" class="node">
<title>Node4</title>
<g id="a_Node000004"><a xlink:title=" ">
<polygon fill="white" stroke="#666666" points="493,-217 350,-217 350,-198 493,-198 493,-217"/>
<text text-anchor="middle" x="421.5" y="-205" font-family="Helvetica,sans-Serif" font-size="10.00">_MateMixerStreamPrivate</text>
</a>
</g>
</g>
<!-- Node4&#45;&gt;Node3 -->
<g id="edge3_Node000003_Node000004" class="edge">
<title>Node4&#45;&gt;Node3</title>
<g id="a_edge3_Node000003_Node000004"><a xlink:title=" ">
<path fill="none" stroke="#9a32cd" stroke-dasharray="5,2" d="M404.77,-224.59C395.25,-234.88 384.12,-249.06 378.5,-264 359.3,-315.04 367.3,-336.65 374.5,-349 388.68,-373.33 417.91,-387.85 440.78,-395.89"/>
<polygon fill="#9a32cd" stroke="#9a32cd" points="407.47,-226.84 411.93,-217.23 402.45,-221.96 407.47,-226.84"/>
</a>
</g>
<text text-anchor="middle" x="378.5" y="-304" font-family="Helvetica,sans-Serif" font-size="10.00" fill="grey"> priv</text>
</g>
<!-- Node5 -->
<g id="Node000005" class="node">
<title>Node5</title>
<g id="a_Node000005"><a xlink:href="struct__MateMixerDevice.html" target="_top" xlink:title=" ">
<polygon fill="white" stroke="#666666" points="304,-283 197,-283 197,-264 304,-264 304,-283"/>
<text text-anchor="middle" x="250.5" y="-271" font-family="Helvetica,sans-Serif" font-size="10.00">_MateMixerDevice</text>
</a>
</g>
</g>
<!-- Node5&#45;&gt;Node4 -->
<g id="edge4_Node000004_Node000005" class="edge">
<title>Node5&#45;&gt;Node4</title>
<g id="a_edge4_Node000004_Node000005"><a xlink:title=" ">
<path fill="none" stroke="#9a32cd" stroke-dasharray="5,2" d="M268.49,-257.37C278.53,-249.64 291.57,-240.69 304.5,-235 322.99,-226.86 344.26,-221.08 363.56,-217.05"/>
<polygon fill="#9a32cd" stroke="#9a32cd" points="266.16,-254.76 260.54,-263.74 270.53,-260.23 266.16,-254.76"/>
</a>
</g>
<text text-anchor="middle" x="322.5" y="-238" font-family="Helvetica,sans-Serif" font-size="10.00" fill="grey"> device</text>
</g>
<!-- Node14 -->
<g id="Node000014" class="node">
<title>Node14</title>
<g id="a_Node000014"><a xlink:title=" ">
<polygon fill="white" stroke="#666666" points="331.5,-217 157.5,-217 157.5,-198 331.5,-198 331.5,-217"/>
<text text-anchor="middle" x="244.5" y="-205" font-family="Helvetica,sans-Serif" font-size="10.00">_MateMixerDeviceSwitchPrivate</text>
</a>
</g>
</g>
<!-- Node5&#45;&gt;Node14 -->
<g id="edge15_Node000014_Node000005" class="edge">
<title>Node5&#45;&gt;Node14</title>
<g id="a_edge15_Node000014_Node000005"><a xlink:title=" ">
<path fill="none" stroke="#9a32cd" stroke-dasharray="5,2" d="M246.58,-253.74C246.15,-251.15 245.77,-248.51 245.5,-246 244.45,-236.16 244.29,-224.78 244.34,-217.16"/>
<polygon fill="#9a32cd" stroke="#9a32cd" points="243.17,-254.55 248.48,-263.72 250.04,-253.24 243.17,-254.55"/>
</a>
</g>
<text text-anchor="middle" x="263.5" y="-238" font-family="Helvetica,sans-Serif" font-size="10.00" fill="grey"> device</text>
</g>
<!-- Node6 -->
<g id="Node000006" class="node">
<title>Node6</title>
<g id="a_Node000006"><a xlink:title=" ">
<polygon fill="white" stroke="#666666" points="321.5,-349 179.5,-349 179.5,-330 321.5,-330 321.5,-349"/>
<text text-anchor="middle" x="250.5" y="-337" font-family="Helvetica,sans-Serif" font-size="10.00">_MateMixerDevicePrivate</text>
</a>
</g>
</g>
<!-- Node6&#45;&gt;Node5 -->
<g id="edge5_Node000005_Node000006" class="edge">
<title>Node6&#45;&gt;Node5</title>
<g id="a_edge5_Node000005_Node000006"><a xlink:title=" ">
<path fill="none" stroke="#9a32cd" stroke-dasharray="5,2" d="M250.5,-319.58C250.5,-307.63 250.5,-292.72 250.5,-283.41"/>
<polygon fill="#9a32cd" stroke="#9a32cd" points="247,-319.87 250.5,-329.87 254,-319.87 247,-319.87"/>
</a>
</g>
<text text-anchor="middle" x="261.5" y="-304" font-family="Helvetica,sans-Serif" font-size="10.00" fill="grey"> priv</text>
</g>
<!-- Node7 -->
<g id="Node000007" class="node">
<title>Node7</title>
<g id="a_Node000007"><a xlink:href="struct__MateMixerStreamControl.html" target="_top" xlink:title=" ">
<polygon fill="white" stroke="#666666" points="531.5,-283 387.5,-283 387.5,-264 531.5,-264 531.5,-283"/>
<text text-anchor="middle" x="459.5" y="-271" font-family="Helvetica,sans-Serif" font-size="10.00">_MateMixerStreamControl</text>
</a>
</g>
</g>
<!-- Node7&#45;&gt;Node4 -->
<g id="edge6_Node000004_Node000007" class="edge">
<title>Node7&#45;&gt;Node4</title>
<g id="a_edge6_Node000004_Node000007"><a xlink:title=" ">
<path fill="none" stroke="#9a32cd" stroke-dasharray="5,2" d="M449.14,-255.05C441.9,-242.86 432.55,-227.11 426.79,-217.41"/>
<polygon fill="#9a32cd" stroke="#9a32cd" points="446.26,-257.06 454.38,-263.87 452.28,-253.48 446.26,-257.06"/>
</a>
</g>
<text text-anchor="middle" x="461" y="-238" font-family="Helvetica,sans-Serif" font-size="10.00" fill="grey"> control</text>
</g>
<!-- Node8&#45;&gt;Node7 -->
<g id="edge7_Node000007_Node000008" class="edge">
<title>Node8&#45;&gt;Node7</title>
<g id="a_edge7_Node000007_Node000008"><a xlink:title=" ">
<path fill="none" stroke="#9a32cd" stroke-dasharray="5,2" d="M468.73,-319.95C466.29,-307.93 463.22,-292.82 461.31,-283.41"/>
<polygon fill="#9a32cd" stroke="#9a32cd" points="465.33,-320.77 470.75,-329.87 472.19,-319.37 465.33,-320.77"/>
</a>
</g>
<text text-anchor="middle" x="477.5" y="-304" font-family="Helvetica,sans-Serif" font-size="10.00" fill="grey"> priv</text>
</g>
<!-- Node9 -->
<g id="Node000009" class="node">
<title>Node9</title>
<g id="a_Node000009"><a xlink:href="struct__MateMixerDeviceSwitch.html" target="_top" xlink:title=" ">
<polygon fill="white" stroke="#666666" points="314.5,-151 174.5,-151 174.5,-132 314.5,-132 314.5,-151"/>
<text text-anchor="middle" x="244.5" y="-139" font-family="Helvetica,sans-Serif" font-size="10.00">_MateMixerDeviceSwitch</text>
</a>
</g>
</g>
<!-- Node9&#45;&gt;Node2 -->
<g id="edge9_Node000002_Node000009" class="edge">
<title>Node9&#45;&gt;Node2</title>
<g id="a_edge9_Node000002_Node000009"><a xlink:title=" ">
<path fill="none" stroke="#9a32cd" stroke-dasharray="5,2" d="M277.37,-128.34C311.55,-115.7 364.17,-96.23 394.26,-85.1"/>
<polygon fill="#9a32cd" stroke="#9a32cd" points="276,-125.12 267.83,-131.87 278.42,-131.68 276,-125.12"/>
</a>
</g>
<text text-anchor="middle" x="368.5" y="-106" font-family="Helvetica,sans-Serif" font-size="10.00" fill="grey"> get_switch</text>
</g>
<!-- Node10 -->
<g id="Node000010" class="node">
<title>Node10</title>
<g id="a_Node000010"><a xlink:href="struct__MateMixerSwitch.html" target="_top" xlink:title=" ">
<polygon fill="white" stroke="#666666" points="139.5,-217 33.5,-217 33.5,-198 139.5,-198 139.5,-217"/>
<text text-anchor="middle" x="86.5" y="-205" font-family="Helvetica,sans-Serif" font-size="10.00">_MateMixerSwitch</text>
</a>
</g>
</g>
<!-- Node10&#45;&gt;Node9 -->
<g id="edge10_Node000009_Node000010" class="edge">
<title>Node10&#45;&gt;Node9</title>
<g id="a_edge10_Node000009_Node000010"><a xlink:title=" ">
<path fill="none" stroke="#9a32cd" stroke-dasharray="5,2" d="M117.33,-194.01C148.56,-181.36 196.03,-162.13 223.28,-151.1"/>
<polygon fill="#9a32cd" stroke="#9a32cd" points="115.76,-190.87 107.81,-197.87 118.39,-197.36 115.76,-190.87"/>
</a>
</g>
<text text-anchor="middle" x="192.5" y="-172" font-family="Helvetica,sans-Serif" font-size="10.00" fill="grey"> object</text>
</g>
<!-- Node11 -->
<g id="Node000011" class="node">
<title>Node11</title>
<g id="a_Node000011"><a xlink:title=" ">
<polygon fill="white" stroke="#666666" points="156.5,-283 16.5,-283 16.5,-264 156.5,-264 156.5,-283"/>
<text text-anchor="middle" x="86.5" y="-271" font-family="Helvetica,sans-Serif" font-size="10.00">_MateMixerSwitchPrivate</text>
</a>
</g>
</g>
<!-- Node11&#45;&gt;Node10 -->
<g id="edge11_Node000010_Node000011" class="edge">
<title>Node11&#45;&gt;Node10</title>
<g id="a_edge11_Node000010_Node000011"><a xlink:title=" ">
<path fill="none" stroke="#9a32cd" stroke-dasharray="5,2" d="M86.5,-253.58C86.5,-241.63 86.5,-226.72 86.5,-217.41"/>
<polygon fill="#9a32cd" stroke="#9a32cd" points="83,-253.87 86.5,-263.87 90,-253.87 83,-253.87"/>
</a>
</g>
<text text-anchor="middle" x="97.5" y="-238" font-family="Helvetica,sans-Serif" font-size="10.00" fill="grey"> priv</text>
</g>
<!-- Node12 -->
<g id="Node000012" class="node">
<title>Node12</title>
<g id="a_Node000012"><a xlink:href="struct__MateMixerSwitchOption.html" target="_top" xlink:title=" ">
<polygon fill="white" stroke="#666666" points="155.5,-349 17.5,-349 17.5,-330 155.5,-330 155.5,-349"/>
<text text-anchor="middle" x="86.5" y="-337" font-family="Helvetica,sans-Serif" font-size="10.00">_MateMixerSwitchOption</text>
</a>
</g>
</g>
<!-- Node12&#45;&gt;Node11 -->
<g id="edge12_Node000011_Node000012" class="edge">
<title>Node12&#45;&gt;Node11</title>
<g id="a_edge12_Node000011_Node000012"><a xlink:title=" ">
<path fill="none" stroke="#9a32cd" stroke-dasharray="5,2" d="M86.5,-319.58C86.5,-307.63 86.5,-292.72 86.5,-283.41"/>
<polygon fill="#9a32cd" stroke="#9a32cd" points="83,-319.87 86.5,-329.87 90,-319.87 83,-319.87"/>
</a>
</g>
<text text-anchor="middle" x="103.5" y="-304" font-family="Helvetica,sans-Serif" font-size="10.00" fill="grey"> active</text>
</g>
<!-- Node13 -->
<g id="Node000013" class="node">
<title>Node13</title>
<g id="a_Node000013"><a xlink:title=" ">
<polygon fill="white" stroke="#666666" points="173,-415 0,-415 0,-396 173,-396 173,-415"/>
<text text-anchor="middle" x="86.5" y="-403" font-family="Helvetica,sans-Serif" font-size="10.00">_MateMixerSwitchOptionPrivate</text>
</a>
</g>
</g>
<!-- Node13&#45;&gt;Node12 -->
<g id="edge13_Node000012_Node000013" class="edge">
<title>Node13&#45;&gt;Node12</title>
<g id="a_edge13_Node000012_Node000013"><a xlink:title=" ">
<path fill="none" stroke="#9a32cd" stroke-dasharray="5,2" d="M86.5,-385.58C86.5,-373.63 86.5,-358.72 86.5,-349.41"/>
<polygon fill="#9a32cd" stroke="#9a32cd" points="83,-385.87 86.5,-395.87 90,-385.87 83,-385.87"/>
</a>
</g>
<text text-anchor="middle" x="97.5" y="-370" font-family="Helvetica,sans-Serif" font-size="10.00" fill="grey"> priv</text>
</g>
<!-- Node14&#45;&gt;Node9 -->
<g id="edge14_Node000009_Node000014" class="edge">
<title>Node14&#45;&gt;Node9</title>
<g id="a_edge14_Node000009_Node000014"><a xlink:title=" ">
<path fill="none" stroke="#9a32cd" stroke-dasharray="5,2" d="M244.5,-187.58C244.5,-175.63 244.5,-160.72 244.5,-151.41"/>
<polygon fill="#9a32cd" stroke="#9a32cd" points="241,-187.87 244.5,-197.87 248,-187.87 241,-187.87"/>
</a>
</g>
<text text-anchor="middle" x="255.5" y="-172" font-family="Helvetica,sans-Serif" font-size="10.00" fill="grey"> priv</text>
</g>
</g>
</svg>

<g id="navigator" transform="translate(0 0)" fill="#404254">
  <rect fill="#f2f5e9" fill-opacity="0.5" stroke="#606060" stroke-width=".5" x="0" y="0" width="60" height="60"/>
  <use id="zoomplus" xlink:href="#zoomPlus" x="17" y="9" onmousedown="handleZoom(evt,'in')"/>
  <use id="zoomminus" xlink:href="#zoomMin" x="42" y="9" onmousedown="handleZoom(evt,'out')"/>
  <use id="reset" xlink:href="#resetDef" x="30" y="36" onmousedown="handleReset()"/>
   <use id="arrowup" xlink:href="#arrowUp" x="0" y="0" onmousedown="handlePan(0,-1)"/>
  <use id="arrowright" xlink:href="#arrowRight" x="0" y="0" onmousedown="handlePan(1,0)"/>
  <use id="arrowdown" xlink:href="#arrowDown" x="0" y="0" onmousedown="handlePan(0,1)"/>
  <use id="arrowleft" xlink:href="#arrowLeft" x="0" y="0" onmousedown="handlePan(-1,0)"/>
</g>
<svg viewBox="0 0 15 15" width="100%" height="30px" preserveAspectRatio="xMaxYMin meet">
 <g id="arrow_out" transform="scale(0.3 0.3)">
  <a xlink:href="struct__PulseDeviceClass__coll__graph_org.svg" target="_base">
   <rect id="button" ry="5" rx="5" y="6" x="6" height="38" width="38"
        fill="#f2f5e9" fill-opacity="0.5" stroke="#606060" stroke-width="1.0"/>
   <path id="arrow"
     d="M 11.500037,31.436501 C 11.940474,20.09759 22.043105,11.32322 32.158766,21.979434 L 37.068811,17.246167 C 37.068811,17.246167 37.088388,32 37.088388,32 L 22.160133,31.978069 C 22.160133,31.978069 26.997745,27.140456 26.997745,27.140456 C 18.528582,18.264221 13.291696,25.230495 11.500037,31.436501 z"
     style="fill:#404040;"/>
  </a>
 </g>
</svg>

<style type='text/css'>
<![CDATA[
[data-mouse-over-selected='false'] { opacity: 0.7; }
[data-mouse-over-selected='true']  { opacity: 1.0; }
]]>
</style>
<script type="application/ecmascript"><![CDATA[
document.addEventListener('DOMContentLoaded', (event) => {
  highlightEdges();
  highlightAdjacentNodes();
});
]]></script>
</svg>
