<?xml version="1.0" encoding="UTF-8" standalone="no"?>
<!DOCTYPE svg PUBLIC "-//W3C//DTD SVG 1.1//EN"
 "http://www.w3.org/Graphics/SVG/1.1/DTD/svg11.dtd">
<!-- Generated by graphviz version 2.43.0 (0)
 -->
<!-- Title: CajaIcon Pages: 1 -->
<svg width="407pt" height="346pt"
 viewBox="0.00 0.00 407.01 346.00" xmlns="http://www.w3.org/2000/svg" xmlns:xlink="http://www.w3.org/1999/xlink">

<svg id="main" version="1.1" xmlns="http://www.w3.org/2000/svg" xmlns:xlink="http://www.w3.org/1999/xlink" xml:space="preserve" onload="init(evt)">
<style type="text/css"><![CDATA[
.node, .edge {opacity: 0.7;}
.node.selected, .edge.selected {opacity: 1;}
.edge:hover path { stroke: red; }
.edge:hover polygon { stroke: red; fill: red; }
]]></style>
<script type="application/ecmascript" xlink:href="svg.min.js"/>
<svg id="graph" class="graph">
<g id="graph0" class="graph" transform="scale(1 1) rotate(0) translate(4 342)">
<title>CajaIcon</title>
<!-- Node1 -->
<g id="Node000001" class="node">
<title>Node1</title>
<g id="a_Node000001"><a xlink:title=" ">
<polygon fill="#999999" stroke="#666666" points="261.51,-19 202.51,-19 202.51,0 261.51,0 261.51,-19"/>
<text text-anchor="middle" x="232.01" y="-7" font-family="Helvetica,sans-Serif" font-size="10.00">CajaIcon</text>
</a>
</g>
</g>
<!-- Node2 -->
<g id="Node000002" class="node">
<title>Node2</title>
<g id="a_Node000002"><a xlink:href="structCajaIconCanvasItem.html" target="_top" xlink:title=" ">
<polygon fill="white" stroke="#666666" points="290.51,-85 173.51,-85 173.51,-66 290.51,-66 290.51,-85"/>
<text text-anchor="middle" x="232.01" y="-73" font-family="Helvetica,sans-Serif" font-size="10.00">CajaIconCanvasItem</text>
</a>
</g>
</g>
<!-- Node2&#45;&gt;Node1 -->
<g id="edge1_Node000001_Node000002" class="edge">
<title>Node2&#45;&gt;Node1</title>
<g id="a_edge1_Node000001_Node000002"><a xlink:title=" ">
<path fill="none" stroke="#9a32cd" stroke-dasharray="5,2" d="M232.01,-55.58C232.01,-43.63 232.01,-28.72 232.01,-19.41"/>
<polygon fill="#9a32cd" stroke="#9a32cd" points="228.51,-55.87 232.01,-65.87 235.51,-55.87 228.51,-55.87"/>
</a>
</g>
<text text-anchor="middle" x="245.01" y="-40" font-family="Helvetica,sans-Serif" font-size="10.00" fill="grey"> item</text>
</g>
<!-- Node3 -->
<g id="Node000003" class="node">
<title>Node3</title>
<g id="a_Node000003"><a xlink:href="struct__EelCanvasItem.html" target="_top" xlink:title=" ">
<polygon fill="white" stroke="#666666" points="161.51,-195 66.51,-195 66.51,-176 161.51,-176 161.51,-195"/>
<text text-anchor="middle" x="114.01" y="-183" font-family="Helvetica,sans-Serif" font-size="10.00">_EelCanvasItem</text>
</a>
</g>
</g>
<!-- Node3&#45;&gt;Node2 -->
<g id="edge2_Node000002_Node000003" class="edge">
<title>Node3&#45;&gt;Node2</title>
<g id="a_edge2_Node000002_Node000003"><a xlink:title=" ">
<path fill="none" stroke="#9a32cd" stroke-dasharray="5,2" d="M137.82,-170.49C143.64,-166.69 149.71,-162.41 155.01,-158 183.45,-134.35 212.09,-100.91 224.97,-85.24"/>
<polygon fill="#9a32cd" stroke="#9a32cd" points="135.65,-167.72 129.03,-175.99 139.36,-173.65 135.65,-167.72"/>
</a>
</g>
<text text-anchor="middle" x="222.01" y="-128" font-family="Helvetica,sans-Serif" font-size="10.00" fill="grey"> item</text>
</g>
<!-- Node3&#45;&gt;Node3 -->
<g id="edge5_Node000003_Node000003" class="edge">
<title>Node3&#45;&gt;Node3</title>
<g id="a_edge5_Node000003_Node000003"><a xlink:title=" ">
<path fill="none" stroke="#9a32cd" stroke-dasharray="5,2" d="M154.97,-195.62C168.61,-195.62 179.51,-192.25 179.51,-185.5 179.51,-177.12 162.67,-173.94 144.67,-175.97"/>
<polygon fill="#9a32cd" stroke="#9a32cd" points="154.86,-192.11 144.67,-195.03 154.45,-199.1 154.86,-192.11"/>
</a>
</g>
<text text-anchor="middle" x="197.01" y="-183" font-family="Helvetica,sans-Serif" font-size="10.00" fill="grey"> parent</text>
</g>
<!-- Node4 -->
<g id="Node000004" class="node">
<title>Node4</title>
<g id="a_Node000004"><a xlink:href="struct__EelCanvas.html" target="_top" xlink:title=" ">
<polygon fill="white" stroke="#666666" points="126.51,-85 53.51,-85 53.51,-66 126.51,-66 126.51,-85"/>
<text text-anchor="middle" x="90.01" y="-73" font-family="Helvetica,sans-Serif" font-size="10.00">_EelCanvas</text>
</a>
</g>
</g>
<!-- Node3&#45;&gt;Node4 -->
<g id="edge4_Node000004_Node000003" class="edge">
<title>Node3&#45;&gt;Node4</title>
<g id="a_edge4_Node000004_Node000003"><a xlink:title=" ">
<path fill="none" stroke="#9a32cd" stroke-dasharray="5,2" d="M56.34,-176C36.2,-171.76 17.09,-165.84 11.01,-158 -3.96,-138.68 -3.26,-122.84 11.01,-103 20.73,-89.49 37.66,-82.78 53.36,-79.47"/>
<polygon fill="#9a32cd" stroke="#9a32cd" points="55.77,-179.46 66.26,-177.95 57.12,-172.59 55.77,-179.46"/>
</a>
</g>
<text text-anchor="middle" x="55.01" y="-150" font-family="Helvetica,sans-Serif" font-size="10.00" fill="grey"> current_item</text>
<text text-anchor="middle" x="55.01" y="-139" font-family="Helvetica,sans-Serif" font-size="10.00" fill="grey">focused_item</text>
<text text-anchor="middle" x="55.01" y="-128" font-family="Helvetica,sans-Serif" font-size="10.00" fill="grey">grabbed_item</text>
<text text-anchor="middle" x="55.01" y="-117" font-family="Helvetica,sans-Serif" font-size="10.00" fill="grey">new_current_item</text>
<text text-anchor="middle" x="55.01" y="-106" font-family="Helvetica,sans-Serif" font-size="10.00" fill="grey">root</text>
</g>
<!-- Node4&#45;&gt;Node3 -->
<g id="edge3_Node000003_Node000004" class="edge">
<title>Node4&#45;&gt;Node3</title>
<g id="a_edge3_Node000003_Node000004"><a xlink:title=" ">
<path fill="none" stroke="#9a32cd" stroke-dasharray="5,2" d="M99.63,-94.14C100.93,-97.04 102.12,-100.06 103.01,-103 110.82,-128.68 113.09,-160.6 113.75,-175.74"/>
<polygon fill="#9a32cd" stroke="#9a32cd" points="102.69,-92.42 95.08,-85.04 96.43,-95.55 102.69,-92.42"/>
</a>
</g>
<text text-anchor="middle" x="132.01" y="-128" font-family="Helvetica,sans-Serif" font-size="10.00" fill="grey"> canvas</text>
</g>
<!-- Node5 -->
<g id="Node000005" class="node">
<title>Node5</title>
<g id="a_Node000005"><a xlink:title=" ">
<polygon fill="white" stroke="#666666" points="389.51,-195 232.51,-195 232.51,-176 389.51,-176 389.51,-195"/>
<text text-anchor="middle" x="311.01" y="-183" font-family="Helvetica,sans-Serif" font-size="10.00">_CajaIconCanvasItemPrivate</text>
</a>
</g>
</g>
<!-- Node5&#45;&gt;Node2 -->
<g id="edge6_Node000002_Node000005" class="edge">
<title>Node5&#45;&gt;Node2</title>
<g id="a_edge6_Node000002_Node000005"><a xlink:title=" ">
<path fill="none" stroke="#9a32cd" stroke-dasharray="5,2" d="M298.49,-167.38C281.39,-144.01 251.38,-102.97 238.35,-85.16"/>
<polygon fill="#9a32cd" stroke="#9a32cd" points="295.82,-169.66 304.55,-175.66 301.47,-165.52 295.82,-169.66"/>
</a>
</g>
<text text-anchor="middle" x="307.51" y="-128" font-family="Helvetica,sans-Serif" font-size="10.00" fill="grey"> details</text>
</g>
<!-- Node6 -->
<g id="Node000006" class="node">
<title>Node6</title>
<g id="a_Node000006"><a xlink:href="structEelIRect.html" target="_top" xlink:title=" ">
<polygon fill="white" stroke="#666666" points="339.01,-338 283.01,-338 283.01,-319 339.01,-319 339.01,-338"/>
<text text-anchor="middle" x="311.01" y="-326" font-family="Helvetica,sans-Serif" font-size="10.00">EelIRect</text>
</a>
</g>
</g>
<!-- Node6&#45;&gt;Node5 -->
<g id="edge7_Node000005_Node000006" class="edge">
<title>Node6&#45;&gt;Node5</title>
<g id="a_edge7_Node000005_Node000006"><a xlink:title=" ">
<path fill="none" stroke="#9a32cd" stroke-dasharray="5,2" d="M311.01,-308.39C311.01,-277.49 311.01,-217.77 311.01,-195.32"/>
<polygon fill="#9a32cd" stroke="#9a32cd" points="307.51,-308.68 311.01,-318.68 314.51,-308.68 307.51,-308.68"/>
</a>
</g>
<text text-anchor="middle" x="355.01" y="-293" font-family="Helvetica,sans-Serif" font-size="10.00" fill="grey"> bounds_cache</text>
<text text-anchor="start" x="311.01" y="-282" font-family="Helvetica,sans-Serif" font-size="10.00" fill="grey">bounds_cache_for</text>
<text text-anchor="middle" x="355.01" y="-271" font-family="Helvetica,sans-Serif" font-size="10.00" fill="grey">_entire_item</text>
<text text-anchor="start" x="311.01" y="-260" font-family="Helvetica,sans-Serif" font-size="10.00" fill="grey">bounds_cache_for</text>
<text text-anchor="middle" x="355.01" y="-249" font-family="Helvetica,sans-Serif" font-size="10.00" fill="grey">_layout</text>
<text text-anchor="middle" x="355.01" y="-238" font-family="Helvetica,sans-Serif" font-size="10.00" fill="grey">canvas_rect</text>
<text text-anchor="middle" x="355.01" y="-227" font-family="Helvetica,sans-Serif" font-size="10.00" fill="grey">emblem_rect</text>
<text text-anchor="middle" x="355.01" y="-216" font-family="Helvetica,sans-Serif" font-size="10.00" fill="grey">text_rect</text>
</g>
</g>
</svg>
</svg>

<style type='text/css'>
<![CDATA[
[data-mouse-over-selected='false'] { opacity: 0.7; }
[data-mouse-over-selected='true']  { opacity: 1.0; }
]]>
</style>
<script type="application/ecmascript"><![CDATA[
document.addEventListener('DOMContentLoaded', (event) => {
  highlightEdges();
  highlightAdjacentNodes();
});
]]></script>
</svg>
