<?xml version="1.0" encoding="UTF-8" standalone="no"?>
<!DOCTYPE svg PUBLIC "-//W3C//DTD SVG 1.1//EN"
 "http://www.w3.org/Graphics/SVG/1.1/DTD/svg11.dtd">
<!-- Generated by graphviz version 2.43.0 (0)
 -->
<!-- Title: CajaBookmarksSidebar Pages: 1 -->
<svg width="1528pt" height="1259pt"
 viewBox="0.00 0.00 1528.00 1259.47" xmlns="http://www.w3.org/2000/svg" xmlns:xlink="http://www.w3.org/1999/xlink">
<g id="graph0" class="graph" transform="scale(1 1) rotate(0) translate(4 1255.47)">
<title>CajaBookmarksSidebar</title>
<!-- Node1 -->
<g id="Node000001" class="node">
<title>Node1</title>
<g id="a_Node000001"><a xlink:title=" ">
<polygon fill="#999999" stroke="#666666" points="847.5,-1214.47 716.5,-1214.47 716.5,-1195.47 847.5,-1195.47 847.5,-1214.47"/>
<text text-anchor="middle" x="782" y="-1202.47" font-family="Helvetica,sans-Serif" font-size="10.00">CajaBookmarksSidebar</text>
</a>
</g>
</g>
<!-- Node2 -->
<g id="Node000002" class="node">
<title>Node2</title>
<g id="a_Node000002"><a xlink:href="structCajaWindow.html" target="_top" xlink:title=" ">
<polygon fill="white" stroke="#666666" points="541,-1163.47 464,-1163.47 464,-1144.47 541,-1144.47 541,-1163.47"/>
<text text-anchor="middle" x="502.5" y="-1151.47" font-family="Helvetica,sans-Serif" font-size="10.00">CajaWindow</text>
</a>
</g>
</g>
<!-- Node2&#45;&gt;Node1 -->
<g id="edge1_Node000001_Node000002" class="edge">
<title>Node2&#45;&gt;Node1</title>
<g id="a_edge1_Node000001_Node000002"><a xlink:title=" ">
<path fill="none" stroke="#9a32cd" stroke-dasharray="5,2" d="M550.26,-1165.92C560.68,-1168.4 571.69,-1170.89 582,-1172.97 626.6,-1181.94 677.22,-1190.05 716.24,-1195.86"/>
<polygon fill="#9a32cd" stroke="#9a32cd" points="551.05,-1162.51 540.5,-1163.55 549.4,-1169.31 551.05,-1162.51"/>
</a>
</g>
<text text-anchor="middle" x="633.5" y="-1193.97" font-family="Helvetica,sans-Serif" font-size="10.00" fill="grey"> window</text>
</g>
<!-- Node5 -->
<g id="Node000005" class="node">
<title>Node5</title>
<g id="a_Node000005"><a xlink:href="struct__CajaWindowPane.html" target="_top" xlink:title=" ">
<polygon fill="white" stroke="#666666" points="835,-1118.47 729,-1118.47 729,-1099.47 835,-1099.47 835,-1118.47"/>
<text text-anchor="middle" x="782" y="-1106.47" font-family="Helvetica,sans-Serif" font-size="10.00">_CajaWindowPane</text>
</a>
</g>
</g>
<!-- Node2&#45;&gt;Node5 -->
<g id="edge5_Node000005_Node000002" class="edge">
<title>Node2&#45;&gt;Node5</title>
<g id="a_edge5_Node000005_Node000002"><a xlink:title=" ">
<path fill="none" stroke="#9a32cd" stroke-dasharray="5,2" d="M551.23,-1143.04C561.36,-1140.89 572.01,-1138.75 582,-1136.97 631.63,-1128.11 688.64,-1120.33 728.88,-1115.24"/>
<polygon fill="#9a32cd" stroke="#9a32cd" points="550.35,-1139.65 541.32,-1145.19 551.83,-1146.49 550.35,-1139.65"/>
</a>
</g>
<text text-anchor="middle" x="633.5" y="-1139.97" font-family="Helvetica,sans-Serif" font-size="10.00" fill="grey"> window</text>
</g>
<!-- Node6 -->
<g id="Node000006" class="node">
<title>Node6</title>
<g id="a_Node000006"><a xlink:href="structCajaWindowSlot.html" target="_top" xlink:title=" ">
<polygon fill="white" stroke="#666666" points="1149,-1026.47 1053,-1026.47 1053,-1007.47 1149,-1007.47 1149,-1026.47"/>
<text text-anchor="middle" x="1101" y="-1014.47" font-family="Helvetica,sans-Serif" font-size="10.00">CajaWindowSlot</text>
</a>
</g>
</g>
<!-- Node2&#45;&gt;Node6 -->
<g id="edge52_Node000006_Node000002" class="edge">
<title>Node2&#45;&gt;Node6</title>
<g id="a_edge52_Node000006_Node000002"><a xlink:title=" ">
<path fill="none" stroke="#9a32cd" stroke-dasharray="5,2" d="M531.71,-1140.05C546.51,-1133 565.03,-1124.56 582,-1117.97 708.3,-1068.85 745.14,-1070.06 879,-1048.97 938.93,-1039.52 1008.18,-1029.67 1052.96,-1023.43"/>
<polygon fill="#9a32cd" stroke="#9a32cd" points="530.07,-1136.95 522.58,-1144.45 533.11,-1143.26 530.07,-1136.95"/>
</a>
</g>
<text text-anchor="middle" x="782" y="-1080.97" font-family="Helvetica,sans-Serif" font-size="10.00" fill="grey"> open_callback</text>
</g>
<!-- Node3 -->
<g id="Node000003" class="node">
<title>Node3</title>
<g id="a_Node000003"><a xlink:href="struct__CajaWindowPrivate.html" target="_top" xlink:title=" ">
<polygon fill="white" stroke="#666666" points="1159.5,-1171.47 1042.5,-1171.47 1042.5,-1152.47 1159.5,-1152.47 1159.5,-1171.47"/>
<text text-anchor="middle" x="1101" y="-1159.47" font-family="Helvetica,sans-Serif" font-size="10.00">_CajaWindowPrivate</text>
</a>
</g>
</g>
<!-- Node3&#45;&gt;Node2 -->
<g id="edge2_Node000002_Node000003" class="edge">
<title>Node3&#45;&gt;Node2</title>
<g id="a_edge2_Node000002_Node000003"><a xlink:title=" ">
<path fill="none" stroke="#9a32cd" stroke-dasharray="5,2" d="M1031.81,-1161.05C905.67,-1159.36 639.78,-1155.79 541.27,-1154.47"/>
<polygon fill="#9a32cd" stroke="#9a32cd" points="1032.07,-1164.56 1042.11,-1161.19 1032.16,-1157.56 1032.07,-1164.56"/>
</a>
</g>
<text text-anchor="middle" x="782" y="-1161.97" font-family="Helvetica,sans-Serif" font-size="10.00" fill="grey"> details</text>
</g>
<!-- Node4 -->
<g id="Node000004" class="node">
<title>Node4</title>
<g id="a_Node000004"><a xlink:href="structCajaBookmarkList.html" target="_top" xlink:title=" ">
<polygon fill="white" stroke="#666666" points="555.5,-1251.47 449.5,-1251.47 449.5,-1232.47 555.5,-1232.47 555.5,-1251.47"/>
<text text-anchor="middle" x="502.5" y="-1239.47" font-family="Helvetica,sans-Serif" font-size="10.00">CajaBookmarkList</text>
</a>
</g>
</g>
<!-- Node4&#45;&gt;Node1 -->
<g id="edge56_Node000001_Node000004" class="edge">
<title>Node4&#45;&gt;Node1</title>
<g id="a_edge56_Node000001_Node000004"><a xlink:title=" ">
<path fill="none" stroke="#9a32cd" stroke-dasharray="5,2" d="M566.13,-1232.24C571.49,-1231.45 576.84,-1230.68 582,-1229.97 626.83,-1223.72 677.45,-1217.38 716.41,-1212.64"/>
<polygon fill="#9a32cd" stroke="#9a32cd" points="565.21,-1228.84 555.83,-1233.77 566.24,-1235.76 565.21,-1228.84"/>
</a>
</g>
<text text-anchor="middle" x="633.5" y="-1232.97" font-family="Helvetica,sans-Serif" font-size="10.00" fill="grey"> bookmarks</text>
</g>
<!-- Node4&#45;&gt;Node3 -->
<g id="edge3_Node000003_Node000004" class="edge">
<title>Node4&#45;&gt;Node3</title>
<g id="a_edge3_Node000003_Node000004"><a xlink:title=" ">
<path fill="none" stroke="#9a32cd" stroke-dasharray="5,2" d="M565.65,-1243.02C600.72,-1243.26 645.33,-1242.99 685,-1240.97 763.48,-1236.97 783.61,-1237.65 861,-1223.97 936.98,-1210.53 1024.27,-1185.34 1069.4,-1171.56"/>
<polygon fill="#9a32cd" stroke="#9a32cd" points="565.59,-1239.52 555.56,-1242.93 565.53,-1246.52 565.59,-1239.52"/>
</a>
</g>
<text text-anchor="middle" x="782" y="-1242.97" font-family="Helvetica,sans-Serif" font-size="10.00" fill="grey"> bookmark_list</text>
</g>
<!-- Node5&#45;&gt;Node3 -->
<g id="edge4_Node000003_Node000005" class="edge">
<title>Node5&#45;&gt;Node3</title>
<g id="a_edge4_Node000003_Node000005"><a xlink:title=" ">
<path fill="none" stroke="#9a32cd" stroke-dasharray="5,2" d="M845.27,-1112.94C893.82,-1116.84 962.73,-1124.12 1022,-1136.97 1039.79,-1140.82 1059.29,-1147.07 1074.34,-1152.36"/>
<polygon fill="#9a32cd" stroke="#9a32cd" points="845.47,-1109.45 835.23,-1112.16 844.93,-1116.43 845.47,-1109.45"/>
</a>
</g>
<text text-anchor="middle" x="950.5" y="-1139.97" font-family="Helvetica,sans-Serif" font-size="10.00" fill="grey"> active_pane</text>
</g>
<!-- Node5&#45;&gt;Node6 -->
<g id="edge7_Node000006_Node000005" class="edge">
<title>Node5&#45;&gt;Node6</title>
<g id="a_edge7_Node000006_Node000005"><a xlink:title=" ">
<path fill="none" stroke="#9a32cd" stroke-dasharray="5,2" d="M810.02,-1094.82C828.87,-1085.54 854.87,-1073.88 879,-1066.97 940.75,-1049.27 959.77,-1061.91 1022,-1045.97 1041.45,-1040.98 1062.78,-1032.86 1078.2,-1026.48"/>
<polygon fill="#9a32cd" stroke="#9a32cd" points="808.23,-1091.8 800.87,-1099.42 811.37,-1098.06 808.23,-1091.8"/>
</a>
</g>
<text text-anchor="middle" x="950.5" y="-1069.97" font-family="Helvetica,sans-Serif" font-size="10.00" fill="grey"> pane</text>
</g>
<!-- Node6&#45;&gt;Node5 -->
<g id="edge6_Node000005_Node000006" class="edge">
<title>Node6&#45;&gt;Node5</title>
<g id="a_edge6_Node000005_Node000006"><a xlink:title=" ">
<path fill="none" stroke="#9a32cd" stroke-dasharray="5,2" d="M1084.35,-1034.15C1069.77,-1048.97 1046.62,-1069.56 1022,-1079.97 1005.21,-1087.07 900.26,-1097.96 835.14,-1104.18"/>
<polygon fill="#9a32cd" stroke="#9a32cd" points="1087.17,-1036.28 1091.53,-1026.62 1082.1,-1031.45 1087.17,-1036.28"/>
</a>
</g>
<text text-anchor="middle" x="950.5" y="-1102.97" font-family="Helvetica,sans-Serif" font-size="10.00" fill="grey"> active_slot</text>
</g>
<!-- Node27 -->
<g id="Node000027" class="node">
<title>Node27</title>
<g id="a_Node000027"><a xlink:title=" ">
<polygon fill="white" stroke="#666666" points="1351,-980.47 1220,-980.47 1220,-961.47 1351,-961.47 1351,-980.47"/>
<text text-anchor="middle" x="1285.5" y="-968.47" font-family="Helvetica,sans-Serif" font-size="10.00">CajaQueryEditorDetails</text>
</a>
</g>
</g>
<!-- Node6&#45;&gt;Node27 -->
<g id="edge51_Node000027_Node000006" class="edge">
<title>Node6&#45;&gt;Node27</title>
<g id="a_edge51_Node000027_Node000006"><a xlink:title=" ">
<path fill="none" stroke="#9a32cd" stroke-dasharray="5,2" d="M1138.73,-1004.26C1151.68,-1000.03 1166.4,-995.5 1180,-991.97 1196.48,-987.68 1214.61,-983.77 1231.08,-980.51"/>
<polygon fill="#9a32cd" stroke="#9a32cd" points="1137.6,-1000.95 1129.22,-1007.42 1139.81,-1007.59 1137.6,-1000.95"/>
</a>
</g>
<text text-anchor="middle" x="1191" y="-994.97" font-family="Helvetica,sans-Serif" font-size="10.00" fill="grey"> slot</text>
</g>
<!-- Node7 -->
<g id="Node000007" class="node">
<title>Node7</title>
<g id="a_Node000007"><a xlink:href="structCajaBookmark.html" target="_top" xlink:title=" ">
<polygon fill="white" stroke="#666666" points="826.5,-971.47 737.5,-971.47 737.5,-952.47 826.5,-952.47 826.5,-971.47"/>
<text text-anchor="middle" x="782" y="-959.47" font-family="Helvetica,sans-Serif" font-size="10.00">CajaBookmark</text>
</a>
</g>
</g>
<!-- Node7&#45;&gt;Node6 -->
<g id="edge8_Node000006_Node000007" class="edge">
<title>Node7&#45;&gt;Node6</title>
<g id="a_edge8_Node000006_Node000007"><a xlink:title=" ">
<path fill="none" stroke="#9a32cd" stroke-dasharray="5,2" d="M837.05,-953.65C886.41,-948.09 960.8,-944.86 1022,-963.97 1049.51,-972.55 1076.06,-994.38 1089.97,-1007.19"/>
<polygon fill="#9a32cd" stroke="#9a32cd" points="836.42,-950.2 826.91,-954.87 837.26,-957.15 836.42,-950.2"/>
</a>
</g>
<text text-anchor="middle" x="950.5" y="-977.97" font-family="Helvetica,sans-Serif" font-size="10.00" fill="grey"> current_location_bookmark</text>
<text text-anchor="middle" x="950.5" y="-966.97" font-family="Helvetica,sans-Serif" font-size="10.00" fill="grey">last_location_bookmark</text>
</g>
<!-- Node8 -->
<g id="Node000008" class="node">
<title>Node8</title>
<g id="a_Node000008"><a xlink:title=" ">
<polygon fill="white" stroke="#666666" points="564,-947.47 441,-947.47 441,-928.47 564,-928.47 564,-947.47"/>
<text text-anchor="middle" x="502.5" y="-935.47" font-family="Helvetica,sans-Serif" font-size="10.00">CajaBookmarkDetails</text>
</a>
</g>
</g>
<!-- Node8&#45;&gt;Node7 -->
<g id="edge9_Node000007_Node000008" class="edge">
<title>Node8&#45;&gt;Node7</title>
<g id="a_edge9_Node000007_Node000008"><a xlink:title=" ">
<path fill="none" stroke="#9a32cd" stroke-dasharray="5,2" d="M574.11,-944.07C625.55,-948.52 693.6,-954.41 737.35,-958.19"/>
<polygon fill="#9a32cd" stroke="#9a32cd" points="574.32,-940.58 564.06,-943.2 573.72,-947.55 574.32,-940.58"/>
</a>
</g>
<text text-anchor="middle" x="633.5" y="-956.97" font-family="Helvetica,sans-Serif" font-size="10.00" fill="grey"> details</text>
</g>
<!-- Node9 -->
<g id="Node000009" class="node">
<title>Node9</title>
<g id="a_Node000009"><a xlink:href="structCajaFile.html" target="_top" xlink:title=" ">
<polygon fill="white" stroke="#666666" points="289.5,-432.47 233.5,-432.47 233.5,-413.47 289.5,-413.47 289.5,-432.47"/>
<text text-anchor="middle" x="261.5" y="-420.47" font-family="Helvetica,sans-Serif" font-size="10.00">CajaFile</text>
</a>
</g>
</g>
<!-- Node9&#45;&gt;Node6 -->
<g id="edge46_Node000006_Node000009" class="edge">
<title>Node9&#45;&gt;Node6</title>
<g id="a_edge46_Node000006_Node000009"><a xlink:title=" ">
<path fill="none" stroke="#9a32cd" stroke-dasharray="5,2" d="M274.07,-441.31C285.08,-459.85 300.97,-489.71 308,-517.97 319.79,-565.34 292.11,-921.82 326,-956.97 376.52,-1009.36 892.81,-1016.05 1052.92,-1016.87"/>
<polygon fill="#9a32cd" stroke="#9a32cd" points="277.03,-439.43 268.84,-432.72 271.05,-443.08 277.03,-439.43"/>
</a>
</g>
<text text-anchor="middle" x="633.5" y="-1022.97" font-family="Helvetica,sans-Serif" font-size="10.00" fill="grey"> determine_view_file</text>
<text text-anchor="middle" x="633.5" y="-1011.97" font-family="Helvetica,sans-Serif" font-size="10.00" fill="grey">viewed_file</text>
</g>
<!-- Node9&#45;&gt;Node8 -->
<g id="edge10_Node000008_Node000009" class="edge">
<title>Node9&#45;&gt;Node8</title>
<g id="a_edge10_Node000008_Node000009"><a xlink:title=" ">
<path fill="none" stroke="#9a32cd" stroke-dasharray="5,2" d="M274.04,-441.32C285.02,-459.86 300.89,-489.73 308,-517.97 318.41,-559.28 298.39,-868.52 326,-900.97 353.64,-933.46 401.96,-941.77 440.91,-942.48"/>
<polygon fill="#9a32cd" stroke="#9a32cd" points="277,-439.45 268.81,-432.72 271.02,-443.09 277,-439.45"/>
</a>
</g>
<text text-anchor="middle" x="374.5" y="-944.97" font-family="Helvetica,sans-Serif" font-size="10.00" fill="grey"> file</text>
</g>
<!-- Node12 -->
<g id="Node000012" class="node">
<title>Node12</title>
<g id="a_Node000012"><a xlink:href="struct__CajaDirectoryPrivate.html" target="_top" xlink:title=" ">
<polygon fill="white" stroke="#666666" points="564,-546.47 441,-546.47 441,-527.47 564,-527.47 564,-546.47"/>
<text text-anchor="middle" x="502.5" y="-534.47" font-family="Helvetica,sans-Serif" font-size="10.00">_CajaDirectoryPrivate</text>
</a>
</g>
</g>
<!-- Node9&#45;&gt;Node12 -->
<g id="edge14_Node000012_Node000009" class="edge">
<title>Node9&#45;&gt;Node12</title>
<g id="a_edge14_Node000012_Node000009"><a xlink:title=" ">
<path fill="none" stroke="#9a32cd" stroke-dasharray="5,2" d="M299.18,-436.15C332.2,-448.45 381.73,-468.03 423,-488.97 446.36,-500.82 472.01,-517.18 487.42,-527.42"/>
<polygon fill="#9a32cd" stroke="#9a32cd" points="300.08,-432.75 289.49,-432.57 297.66,-439.32 300.08,-432.75"/>
</a>
</g>
<text text-anchor="middle" x="374.5" y="-524.97" font-family="Helvetica,sans-Serif" font-size="10.00" fill="grey"> as_file</text>
<text text-anchor="middle" x="374.5" y="-513.97" font-family="Helvetica,sans-Serif" font-size="10.00" fill="grey">deep_count_file</text>
<text text-anchor="middle" x="374.5" y="-502.97" font-family="Helvetica,sans-Serif" font-size="10.00" fill="grey">extension_info_file</text>
<text text-anchor="middle" x="374.5" y="-491.97" font-family="Helvetica,sans-Serif" font-size="10.00" fill="grey">get_info_file</text>
</g>
<!-- Node15 -->
<g id="Node000015" class="node">
<title>Node15</title>
<g id="a_Node000015"><a xlink:title=" ">
<polygon fill="white" stroke="#666666" points="1156,-106.47 1046,-106.47 1046,-87.47 1156,-87.47 1156,-106.47"/>
<text text-anchor="middle" x="1101" y="-94.47" font-family="Helvetica,sans-Serif" font-size="10.00">DirectoryLoadState</text>
</a>
</g>
</g>
<!-- Node9&#45;&gt;Node15 -->
<g id="edge19_Node000015_Node000009" class="edge">
<title>Node9&#45;&gt;Node15</title>
<g id="a_edge19_Node000015_Node000009"><a xlink:title=" ">
<path fill="none" stroke="#9a32cd" stroke-dasharray="5,2" d="M266.32,-403.1C273.26,-371.67 290.6,-310.04 326,-270.97 364.98,-227.93 388.22,-233.18 441,-208.97 624.04,-125 678.69,-113.65 879,-92.97 935.68,-87.11 1000.97,-89.4 1045.81,-92.35"/>
<polygon fill="#9a32cd" stroke="#9a32cd" points="262.82,-402.71 264.22,-413.21 269.68,-404.13 262.82,-402.71"/>
</a>
</g>
<text text-anchor="middle" x="633.5" y="-151.97" font-family="Helvetica,sans-Serif" font-size="10.00" fill="grey"> load_directory_file</text>
</g>
<!-- Node16 -->
<g id="Node000016" class="node">
<title>Node16</title>
<g id="a_Node000016"><a xlink:title=" ">
<polygon fill="white" stroke="#666666" points="1159,-484.47 1043,-484.47 1043,-465.47 1159,-465.47 1159,-484.47"/>
<text text-anchor="middle" x="1101" y="-472.47" font-family="Helvetica,sans-Serif" font-size="10.00">DirectoryCountState</text>
</a>
</g>
</g>
<!-- Node9&#45;&gt;Node16 -->
<g id="edge22_Node000016_Node000009" class="edge">
<title>Node9&#45;&gt;Node16</title>
<g id="a_edge22_Node000016_Node000009"><a xlink:title=" ">
<path fill="none" stroke="#9a32cd" stroke-dasharray="5,2" d="M299.8,-422.49C393.9,-421.35 648.64,-418.65 861,-419.97 932.56,-420.41 953.73,-400.5 1022,-421.97 1049.49,-430.61 1076.05,-452.42 1089.96,-465.21"/>
<polygon fill="#9a32cd" stroke="#9a32cd" points="299.6,-418.99 289.64,-422.61 299.68,-425.99 299.6,-418.99"/>
</a>
</g>
<text text-anchor="middle" x="633.5" y="-423.97" font-family="Helvetica,sans-Serif" font-size="10.00" fill="grey"> count_file</text>
</g>
<!-- Node18 -->
<g id="Node000018" class="node">
<title>Node18</title>
<g id="a_Node000018"><a xlink:title=" ">
<polygon fill="white" stroke="#666666" points="1144.5,-190.47 1057.5,-190.47 1057.5,-171.47 1144.5,-171.47 1144.5,-190.47"/>
<text text-anchor="middle" x="1101" y="-178.47" font-family="Helvetica,sans-Serif" font-size="10.00">MimeListState</text>
</a>
</g>
</g>
<!-- Node9&#45;&gt;Node18 -->
<g id="edge27_Node000018_Node000009" class="edge">
<title>Node9&#45;&gt;Node18</title>
<g id="a_edge27_Node000018_Node000009"><a xlink:title=" ">
<path fill="none" stroke="#9a32cd" stroke-dasharray="5,2" d="M271.42,-404.35C282.01,-383.87 301.39,-351.08 326,-329.97 378.79,-284.69 626.48,-180.38 703,-164.97 829.96,-139.4 984.23,-159.94 1057.47,-172.71"/>
<polygon fill="#9a32cd" stroke="#9a32cd" points="268.28,-402.8 266.94,-413.3 274.54,-405.93 268.28,-402.8"/>
</a>
</g>
<text text-anchor="middle" x="633.5" y="-207.97" font-family="Helvetica,sans-Serif" font-size="10.00" fill="grey"> mime_list_file</text>
</g>
<!-- Node20 -->
<g id="Node000020" class="node">
<title>Node20</title>
<g id="a_Node000020"><a xlink:title=" ">
<polygon fill="white" stroke="#666666" points="1148,-358.47 1054,-358.47 1054,-339.47 1148,-339.47 1148,-358.47"/>
<text text-anchor="middle" x="1101" y="-346.47" font-family="Helvetica,sans-Serif" font-size="10.00">ThumbnailState</text>
</a>
</g>
</g>
<!-- Node9&#45;&gt;Node20 -->
<g id="edge32_Node000020_Node000009" class="edge">
<title>Node9&#45;&gt;Node20</title>
<g id="a_edge32_Node000020_Node000009"><a xlink:title=" ">
<path fill="none" stroke="#9a32cd" stroke-dasharray="5,2" d="M299.47,-413C374.73,-393.3 551.42,-349.96 703,-334.97 772.88,-328.05 790.78,-334.31 861,-334.97 932.56,-335.63 950.66,-332.29 1022,-337.97 1032.36,-338.79 1043.44,-340.09 1053.91,-341.52"/>
<polygon fill="#9a32cd" stroke="#9a32cd" points="298.32,-409.69 289.54,-415.62 300.1,-416.46 298.32,-409.69"/>
</a>
</g>
<text text-anchor="middle" x="633.5" y="-353.97" font-family="Helvetica,sans-Serif" font-size="10.00" fill="grey"> file</text>
</g>
<!-- Node21 -->
<g id="Node000021" class="node">
<title>Node21</title>
<g id="a_Node000021"><a xlink:title=" ">
<polygon fill="white" stroke="#666666" points="1137.5,-830.47 1064.5,-830.47 1064.5,-811.47 1137.5,-811.47 1137.5,-830.47"/>
<text text-anchor="middle" x="1101" y="-818.47" font-family="Helvetica,sans-Serif" font-size="10.00">MountState</text>
</a>
</g>
</g>
<!-- Node9&#45;&gt;Node21 -->
<g id="edge35_Node000021_Node000009" class="edge">
<title>Node9&#45;&gt;Node21</title>
<g id="a_edge35_Node000021_Node000009"><a xlink:title=" ">
<path fill="none" stroke="#9a32cd" stroke-dasharray="5,2" d="M273.63,-441.38C284.32,-460 299.99,-489.95 308,-517.97 328.02,-588.05 292.81,-616.08 326,-680.97 389.8,-805.71 447.78,-824.76 582,-864.97 769.45,-921.12 832.22,-896.68 1022,-848.97 1040.98,-844.2 1061.8,-836.59 1077.16,-830.51"/>
<polygon fill="#9a32cd" stroke="#9a32cd" points="276.51,-439.37 268.43,-432.52 270.47,-442.91 276.51,-439.37"/>
</a>
</g>
<text text-anchor="middle" x="633.5" y="-893.97" font-family="Helvetica,sans-Serif" font-size="10.00" fill="grey"> file</text>
</g>
<!-- Node22 -->
<g id="Node000022" class="node">
<title>Node22</title>
<g id="a_Node000022"><a xlink:title=" ">
<polygon fill="white" stroke="#666666" points="1158,-746.47 1044,-746.47 1044,-727.47 1158,-727.47 1158,-746.47"/>
<text text-anchor="middle" x="1101" y="-734.47" font-family="Helvetica,sans-Serif" font-size="10.00">FilesystemInfoState</text>
</a>
</g>
</g>
<!-- Node9&#45;&gt;Node22 -->
<g id="edge38_Node000022_Node000009" class="edge">
<title>Node9&#45;&gt;Node22</title>
<g id="a_edge38_Node000022_Node000009"><a xlink:title=" ">
<path fill="none" stroke="#9a32cd" stroke-dasharray="5,2" d="M273.11,-441.54C283.4,-460.28 298.78,-490.32 308,-517.97 320.91,-556.66 304.72,-573.17 326,-607.97 401.76,-731.85 450.2,-750.02 582,-810.97 759.51,-893.05 846.06,-892.35 1022,-806.97 1052.45,-792.19 1079.83,-761.93 1092.52,-746.49"/>
<polygon fill="#9a32cd" stroke="#9a32cd" points="276.06,-439.63 268.12,-432.61 269.95,-443.05 276.06,-439.63"/>
</a>
</g>
<text text-anchor="middle" x="633.5" y="-854.97" font-family="Helvetica,sans-Serif" font-size="10.00" fill="grey"> file</text>
</g>
<!-- Node23 -->
<g id="Node000023" class="node">
<title>Node23</title>
<g id="a_Node000023"><a xlink:title=" ">
<polygon fill="white" stroke="#666666" points="1162,-687.47 1040,-687.47 1040,-668.47 1162,-668.47 1162,-687.47"/>
<text text-anchor="middle" x="1101" y="-675.47" font-family="Helvetica,sans-Serif" font-size="10.00">TopLeftTextReadState</text>
</a>
</g>
</g>
<!-- Node9&#45;&gt;Node23 -->
<g id="edge41_Node000023_Node000009" class="edge">
<title>Node9&#45;&gt;Node23</title>
<g id="a_edge41_Node000023_Node000009"><a xlink:title=" ">
<path fill="none" stroke="#9a32cd" stroke-dasharray="5,2" d="M271.38,-441.81C287.83,-476.58 321.74,-547.71 326,-551.97 458.06,-684.14 521.05,-695.52 703,-737.97 841.17,-770.2 887.02,-769.66 1022,-725.97 1035.39,-721.63 1067.55,-700.35 1086.13,-687.62"/>
<polygon fill="#9a32cd" stroke="#9a32cd" points="274.5,-440.22 267.07,-432.67 268.17,-443.21 274.5,-440.22"/>
</a>
</g>
<text text-anchor="middle" x="633.5" y="-736.97" font-family="Helvetica,sans-Serif" font-size="10.00" fill="grey"> file</text>
</g>
<!-- Node24 -->
<g id="Node000024" class="node">
<title>Node24</title>
<g id="a_Node000024"><a xlink:title=" ">
<polygon fill="white" stroke="#666666" points="1154,-274.47 1048,-274.47 1048,-255.47 1154,-255.47 1154,-274.47"/>
<text text-anchor="middle" x="1101" y="-262.47" font-family="Helvetica,sans-Serif" font-size="10.00">LinkInfoReadState</text>
</a>
</g>
</g>
<!-- Node9&#45;&gt;Node24 -->
<g id="edge44_Node000024_Node000009" class="edge">
<title>Node9&#45;&gt;Node24</title>
<g id="a_edge44_Node000024_Node000009"><a xlink:title=" ">
<path fill="none" stroke="#9a32cd" stroke-dasharray="5,2" d="M282.61,-407.34C294.7,-398.46 310.67,-387.63 326,-379.97 484.53,-300.7 528.2,-279.26 703,-249.97 772.26,-238.36 790.78,-249.09 861,-249.97 932.57,-250.86 950.67,-248.07 1022,-253.97 1030.31,-254.65 1039.09,-255.64 1047.65,-256.74"/>
<polygon fill="#9a32cd" stroke="#9a32cd" points="280.45,-404.58 274.55,-413.38 284.65,-410.18 280.45,-404.58"/>
</a>
</g>
<text text-anchor="middle" x="633.5" y="-276.97" font-family="Helvetica,sans-Serif" font-size="10.00" fill="grey"> file</text>
</g>
<!-- Node10 -->
<g id="Node000010" class="node">
<title>Node10</title>
<g id="a_Node000010"><a xlink:href="struct__CajaFilePrivate.html" target="_top" xlink:title=" ">
<polygon fill="white" stroke="#666666" points="1148.5,-43.47 1053.5,-43.47 1053.5,-24.47 1148.5,-24.47 1148.5,-43.47"/>
<text text-anchor="middle" x="1101" y="-31.47" font-family="Helvetica,sans-Serif" font-size="10.00">_CajaFilePrivate</text>
</a>
</g>
</g>
<!-- Node10&#45;&gt;Node9 -->
<g id="edge11_Node000009_Node000010" class="edge">
<title>Node10&#45;&gt;Node9</title>
<g id="a_edge11_Node000009_Node000010"><a xlink:title=" ">
<path fill="none" stroke="#9a32cd" stroke-dasharray="5,2" d="M1049.42,-22.42C973.09,-7.03 824.5,15 703,-14.97 519.25,-60.28 446.53,-67.05 326,-212.97 273.85,-276.1 264.51,-381.31 262.85,-413.39"/>
<polygon fill="#9a32cd" stroke="#9a32cd" points="1048.75,-25.86 1059.25,-24.45 1050.16,-19 1048.75,-25.86"/>
</a>
</g>
<text text-anchor="middle" x="633.5" y="-47.97" font-family="Helvetica,sans-Serif" font-size="10.00" fill="grey"> details</text>
</g>
<!-- Node11 -->
<g id="Node000011" class="node">
<title>Node11</title>
<g id="a_Node000011"><a xlink:href="structCajaDirectory.html" target="_top" xlink:title=" ">
<polygon fill="white" stroke="#666666" points="823.5,-500.47 740.5,-500.47 740.5,-481.47 823.5,-481.47 823.5,-500.47"/>
<text text-anchor="middle" x="782" y="-488.47" font-family="Helvetica,sans-Serif" font-size="10.00">CajaDirectory</text>
</a>
</g>
</g>
<!-- Node11&#45;&gt;Node10 -->
<g id="edge12_Node000010_Node000011" class="edge">
<title>Node11&#45;&gt;Node10</title>
<g id="a_edge12_Node000010_Node000011"><a xlink:title=" ">
<path fill="none" stroke="#9a32cd" stroke-dasharray="5,2" d="M833.48,-485.05C844.08,-481.43 854.12,-475.77 861,-466.97 907.15,-407.85 836.21,-191.56 879,-129.97 901.55,-97.5 1011.26,-60.65 1067.15,-43.58"/>
<polygon fill="#9a32cd" stroke="#9a32cd" points="832.33,-481.73 823.66,-487.82 834.23,-488.47 832.33,-481.73"/>
</a>
</g>
<text text-anchor="middle" x="950.5" y="-132.97" font-family="Helvetica,sans-Serif" font-size="10.00" fill="grey"> directory</text>
</g>
<!-- Node11&#45;&gt;Node15 -->
<g id="edge18_Node000015_Node000011" class="edge">
<title>Node11&#45;&gt;Node15</title>
<g id="a_edge18_Node000015_Node000011"><a xlink:title=" ">
<path fill="none" stroke="#9a32cd" stroke-dasharray="5,2" d="M833.37,-484.96C843.98,-481.35 854.05,-475.71 861,-466.97 896.07,-422.85 847.35,-260.61 879,-213.97 918.62,-155.57 960.09,-178.84 1022,-144.97 1044.6,-132.6 1069.83,-116.67 1085.31,-106.63"/>
<polygon fill="#9a32cd" stroke="#9a32cd" points="832.22,-481.65 823.55,-487.74 834.12,-488.38 832.22,-481.65"/>
</a>
</g>
<text text-anchor="middle" x="950.5" y="-216.97" font-family="Helvetica,sans-Serif" font-size="10.00" fill="grey"> directory</text>
</g>
<!-- Node11&#45;&gt;Node16 -->
<g id="edge21_Node000016_Node000011" class="edge">
<title>Node11&#45;&gt;Node16</title>
<g id="a_edge21_Node000016_Node000011"><a xlink:title=" ">
<path fill="none" stroke="#9a32cd" stroke-dasharray="5,2" d="M834.19,-481.51C848.63,-479.24 864.39,-477.13 879,-475.97 934.46,-471.53 997.99,-471.8 1042.66,-472.87"/>
<polygon fill="#9a32cd" stroke="#9a32cd" points="833.26,-478.11 823.95,-483.18 834.38,-485.02 833.26,-478.11"/>
</a>
</g>
<text text-anchor="middle" x="950.5" y="-478.97" font-family="Helvetica,sans-Serif" font-size="10.00" fill="grey"> directory</text>
</g>
<!-- Node17 -->
<g id="Node000017" class="node">
<title>Node17</title>
<g id="a_Node000017"><a xlink:title=" ">
<polygon fill="white" stroke="#666666" points="1149,-613.47 1053,-613.47 1053,-594.47 1149,-594.47 1149,-613.47"/>
<text text-anchor="middle" x="1101" y="-601.47" font-family="Helvetica,sans-Serif" font-size="10.00">DeepCountState</text>
</a>
</g>
</g>
<!-- Node11&#45;&gt;Node17 -->
<g id="edge24_Node000017_Node000011" class="edge">
<title>Node11&#45;&gt;Node17</title>
<g id="a_edge24_Node000017_Node000011"><a xlink:title=" ">
<path fill="none" stroke="#9a32cd" stroke-dasharray="5,2" d="M832.43,-503.5C842.13,-506.69 852.06,-510.51 861,-514.97 869.83,-519.37 870.24,-523.42 879,-527.97 939.69,-559.44 1016.23,-582.4 1061.47,-594.43"/>
<polygon fill="#9a32cd" stroke="#9a32cd" points="833.44,-500.15 822.85,-500.5 831.35,-506.83 833.44,-500.15"/>
</a>
</g>
<text text-anchor="middle" x="950.5" y="-585.97" font-family="Helvetica,sans-Serif" font-size="10.00" fill="grey"> directory</text>
</g>
<!-- Node11&#45;&gt;Node18 -->
<g id="edge26_Node000018_Node000011" class="edge">
<title>Node11&#45;&gt;Node18</title>
<g id="a_edge26_Node000018_Node000011"><a xlink:title=" ">
<path fill="none" stroke="#9a32cd" stroke-dasharray="5,2" d="M833.46,-484.68C843.96,-481.07 853.96,-475.51 861,-466.97 909.03,-408.67 835.5,-359.72 879,-297.97 919.64,-240.27 960.09,-262.84 1022,-228.97 1044.6,-216.6 1069.83,-200.67 1085.31,-190.63"/>
<polygon fill="#9a32cd" stroke="#9a32cd" points="832.39,-481.34 823.74,-487.47 834.32,-488.07 832.39,-481.34"/>
</a>
</g>
<text text-anchor="middle" x="950.5" y="-300.97" font-family="Helvetica,sans-Serif" font-size="10.00" fill="grey"> directory</text>
</g>
<!-- Node19 -->
<g id="Node000019" class="node">
<title>Node19</title>
<g id="a_Node000019"><a xlink:title=" ">
<polygon fill="white" stroke="#666666" points="1140,-530.47 1062,-530.47 1062,-511.47 1140,-511.47 1140,-530.47"/>
<text text-anchor="middle" x="1101" y="-518.47" font-family="Helvetica,sans-Serif" font-size="10.00">GetInfoState</text>
</a>
</g>
</g>
<!-- Node11&#45;&gt;Node19 -->
<g id="edge29_Node000019_Node000011" class="edge">
<title>Node11&#45;&gt;Node19</title>
<g id="a_edge29_Node000019_Node000011"><a xlink:title=" ">
<path fill="none" stroke="#9a32cd" stroke-dasharray="5,2" d="M833.99,-495.79C897.6,-501.81 1004.9,-511.97 1061.84,-517.35"/>
<polygon fill="#9a32cd" stroke="#9a32cd" points="834.08,-492.28 823.79,-494.83 833.42,-499.25 834.08,-492.28"/>
</a>
</g>
<text text-anchor="middle" x="950.5" y="-515.97" font-family="Helvetica,sans-Serif" font-size="10.00" fill="grey"> directory</text>
</g>
<!-- Node11&#45;&gt;Node20 -->
<g id="edge31_Node000020_Node000011" class="edge">
<title>Node11&#45;&gt;Node20</title>
<g id="a_edge31_Node000020_Node000011"><a xlink:title=" ">
<path fill="none" stroke="#9a32cd" stroke-dasharray="5,2" d="M828.14,-478.46C839.02,-475.07 850.53,-471.16 861,-466.97 869.3,-463.64 870.88,-461.72 879,-457.97 941.71,-428.95 960.63,-428.72 1022,-396.97 1045.02,-385.06 1070.35,-368.85 1085.71,-358.65"/>
<polygon fill="#9a32cd" stroke="#9a32cd" points="826.93,-475.17 818.37,-481.43 828.96,-481.87 826.93,-475.17"/>
</a>
</g>
<text text-anchor="middle" x="950.5" y="-460.97" font-family="Helvetica,sans-Serif" font-size="10.00" fill="grey"> directory</text>
</g>
<!-- Node11&#45;&gt;Node21 -->
<g id="edge34_Node000021_Node000011" class="edge">
<title>Node11&#45;&gt;Node21</title>
<g id="a_edge34_Node000021_Node000011"><a xlink:title=" ">
<path fill="none" stroke="#9a32cd" stroke-dasharray="5,2" d="M833.59,-497.15C844.09,-500.76 854.05,-506.35 861,-514.97 890.54,-551.6 851.47,-687.8 879,-725.97 891.16,-742.82 1017.96,-790.87 1073.82,-811.44"/>
<polygon fill="#9a32cd" stroke="#9a32cd" points="834.45,-493.76 823.87,-494.36 832.52,-500.48 834.45,-493.76"/>
</a>
</g>
<text text-anchor="middle" x="950.5" y="-794.97" font-family="Helvetica,sans-Serif" font-size="10.00" fill="grey"> directory</text>
</g>
<!-- Node11&#45;&gt;Node22 -->
<g id="edge37_Node000022_Node000011" class="edge">
<title>Node11&#45;&gt;Node22</title>
<g id="a_edge37_Node000022_Node000011"><a xlink:title=" ">
<path fill="none" stroke="#9a32cd" stroke-dasharray="5,2" d="M833.38,-497.32C843.89,-500.93 853.91,-506.47 861,-514.97 904.31,-566.86 836.02,-613.81 879,-665.97 879.2,-666.21 1009.96,-708.12 1070.23,-727.43"/>
<polygon fill="#9a32cd" stroke="#9a32cd" points="834.24,-493.93 823.67,-494.53 832.31,-500.66 834.24,-493.93"/>
</a>
</g>
<text text-anchor="middle" x="950.5" y="-713.97" font-family="Helvetica,sans-Serif" font-size="10.00" fill="grey"> directory</text>
</g>
<!-- Node11&#45;&gt;Node23 -->
<g id="edge40_Node000023_Node000011" class="edge">
<title>Node11&#45;&gt;Node23</title>
<g id="a_edge40_Node000023_Node000011"><a xlink:title=" ">
<path fill="none" stroke="#9a32cd" stroke-dasharray="5,2" d="M833.12,-497.93C843.54,-501.51 853.59,-506.9 861,-514.97 886.53,-542.77 854.15,-569.55 879,-597.97 885.61,-605.53 1012.92,-648.83 1071.25,-668.38"/>
<polygon fill="#9a32cd" stroke="#9a32cd" points="834.09,-494.57 823.51,-495.12 832.13,-501.28 834.09,-494.57"/>
</a>
</g>
<text text-anchor="middle" x="950.5" y="-653.97" font-family="Helvetica,sans-Serif" font-size="10.00" fill="grey"> directory</text>
</g>
<!-- Node11&#45;&gt;Node24 -->
<g id="edge43_Node000024_Node000011" class="edge">
<title>Node11&#45;&gt;Node24</title>
<g id="a_edge43_Node000024_Node000011"><a xlink:title=" ">
<path fill="none" stroke="#9a32cd" stroke-dasharray="5,2" d="M833.15,-484.03C843.57,-480.44 853.61,-475.05 861,-466.97 887.05,-438.46 855.17,-412.35 879,-381.97 922.54,-326.43 960.09,-346.84 1022,-312.97 1044.6,-300.6 1069.83,-284.67 1085.31,-274.63"/>
<polygon fill="#9a32cd" stroke="#9a32cd" points="832.15,-480.67 823.54,-486.84 834.12,-487.39 832.15,-480.67"/>
</a>
</g>
<text text-anchor="middle" x="950.5" y="-384.97" font-family="Helvetica,sans-Serif" font-size="10.00" fill="grey"> directory</text>
</g>
<!-- Node12&#45;&gt;Node11 -->
<g id="edge13_Node000011_Node000012" class="edge">
<title>Node12&#45;&gt;Node11</title>
<g id="a_edge13_Node000011_Node000012"><a xlink:title=" ">
<path fill="none" stroke="#9a32cd" stroke-dasharray="5,2" d="M538.73,-524.06C552.12,-519.61 567.61,-514.98 582,-511.97 636.06,-500.63 699.73,-495.27 740.22,-492.84"/>
<polygon fill="#9a32cd" stroke="#9a32cd" points="537.29,-520.86 528.96,-527.41 539.55,-527.48 537.29,-520.86"/>
</a>
</g>
<text text-anchor="middle" x="633.5" y="-514.97" font-family="Helvetica,sans-Serif" font-size="10.00" fill="grey"> details</text>
</g>
<!-- Node13 -->
<g id="Node000013" class="node">
<title>Node13</title>
<g id="a_Node000013"><a xlink:title=" ">
<polygon fill="white" stroke="#666666" points="305,-1042.47 218,-1042.47 218,-1023.47 305,-1023.47 305,-1042.47"/>
<text text-anchor="middle" x="261.5" y="-1030.47" font-family="Helvetica,sans-Serif" font-size="10.00">CajaFileQueue</text>
</a>
</g>
</g>
<!-- Node13&#45;&gt;Node12 -->
<g id="edge15_Node000012_Node000013" class="edge">
<title>Node13&#45;&gt;Node12</title>
<g id="a_edge15_Node000012_Node000013"><a xlink:title=" ">
<path fill="none" stroke="#9a32cd" stroke-dasharray="5,2" d="M304.77,-1020C341.83,-1006.38 394.18,-981.25 423,-940.97 470.82,-874.14 496.08,-601.29 500.71,-546.55"/>
<polygon fill="#9a32cd" stroke="#9a32cd" points="303.48,-1016.75 295.23,-1023.38 305.82,-1023.34 303.48,-1016.75"/>
</a>
</g>
<text text-anchor="middle" x="374.5" y="-1035.97" font-family="Helvetica,sans-Serif" font-size="10.00" fill="grey"> extension_queue</text>
<text text-anchor="middle" x="374.5" y="-1024.97" font-family="Helvetica,sans-Serif" font-size="10.00" fill="grey">high_priority_queue</text>
<text text-anchor="middle" x="374.5" y="-1013.97" font-family="Helvetica,sans-Serif" font-size="10.00" fill="grey">low_priority_queue</text>
</g>
<!-- Node14 -->
<g id="Node000014" class="node">
<title>Node14</title>
<g id="a_Node000014"><a xlink:title=" ">
<polygon fill="white" stroke="#666666" points="299.5,-546.47 223.5,-546.47 223.5,-527.47 299.5,-527.47 299.5,-546.47"/>
<text text-anchor="middle" x="261.5" y="-534.47" font-family="Helvetica,sans-Serif" font-size="10.00">CajaMonitor</text>
</a>
</g>
</g>
<!-- Node14&#45;&gt;Node12 -->
<g id="edge16_Node000012_Node000014" class="edge">
<title>Node14&#45;&gt;Node12</title>
<g id="a_edge16_Node000012_Node000014"><a xlink:title=" ">
<path fill="none" stroke="#9a32cd" stroke-dasharray="5,2" d="M309.73,-536.97C347.23,-536.97 399.92,-536.97 440.59,-536.97"/>
<polygon fill="#9a32cd" stroke="#9a32cd" points="309.58,-533.47 299.58,-536.97 309.58,-540.47 309.58,-533.47"/>
</a>
</g>
<text text-anchor="middle" x="374.5" y="-539.97" font-family="Helvetica,sans-Serif" font-size="10.00" fill="grey"> monitor</text>
</g>
<!-- Node15&#45;&gt;Node12 -->
<g id="edge17_Node000012_Node000015" class="edge">
<title>Node15&#45;&gt;Node12</title>
<g id="a_edge17_Node000012_Node000015"><a xlink:title=" ">
<path fill="none" stroke="#9a32cd" stroke-dasharray="5,2" d="M1035.8,-96.47C991.37,-97.24 931.1,-100.48 879,-110.97 844.76,-117.86 605.49,-188.12 582,-213.97 537.95,-262.44 510.3,-478.91 504.6,-527.34"/>
<polygon fill="#9a32cd" stroke="#9a32cd" points="1035.93,-99.97 1045.88,-96.34 1035.83,-92.97 1035.93,-99.97"/>
</a>
</g>
<text text-anchor="middle" x="782" y="-165.97" font-family="Helvetica,sans-Serif" font-size="10.00" fill="grey"> directory_load_in_progress</text>
</g>
<!-- Node16&#45;&gt;Node12 -->
<g id="edge20_Node000012_Node000016" class="edge">
<title>Node16&#45;&gt;Node12</title>
<g id="a_edge20_Node000012_Node000016"><a xlink:title=" ">
<path fill="none" stroke="#9a32cd" stroke-dasharray="5,2" d="M1063.51,-488.65C1055.44,-492.41 1047.16,-496.88 1040,-501.97 1030.52,-508.7 1032.61,-516.21 1022,-520.97 941.88,-556.9 682.98,-547.38 564.14,-540.8"/>
<polygon fill="#9a32cd" stroke="#9a32cd" points="1065.06,-491.79 1072.81,-484.57 1062.25,-485.38 1065.06,-491.79"/>
</a>
</g>
<text text-anchor="middle" x="782" y="-550.97" font-family="Helvetica,sans-Serif" font-size="10.00" fill="grey"> count_in_progress</text>
</g>
<!-- Node17&#45;&gt;Node12 -->
<g id="edge23_Node000012_Node000017" class="edge">
<title>Node17&#45;&gt;Node12</title>
<g id="a_edge23_Node000012_Node000017"><a xlink:title=" ">
<path fill="none" stroke="#9a32cd" stroke-dasharray="5,2" d="M1074.92,-618.49C1060.07,-626.24 1040.57,-634.99 1022,-638.97 959.85,-652.27 942.21,-645.54 879,-638.97 876.73,-638.73 620.28,-587.25 582,-573.97 560.36,-566.46 536.75,-554.82 521.13,-546.61"/>
<polygon fill="#9a32cd" stroke="#9a32cd" points="1076.83,-621.44 1083.96,-613.6 1073.5,-615.28 1076.83,-621.44"/>
</a>
</g>
<text text-anchor="middle" x="782" y="-638.97" font-family="Helvetica,sans-Serif" font-size="10.00" fill="grey"> deep_count_in_progress</text>
</g>
<!-- Node18&#45;&gt;Node12 -->
<g id="edge25_Node000012_Node000018" class="edge">
<title>Node18&#45;&gt;Node12</title>
<g id="a_edge25_Node000012_Node000018"><a xlink:title=" ">
<path fill="none" stroke="#9a32cd" stroke-dasharray="5,2" d="M1047.18,-174.52C1000.87,-171.1 932.76,-171.6 879,-194.97 868.91,-199.35 870.5,-206.41 861,-211.97 804.95,-244.77 628.3,-253.42 582,-298.97 514.39,-365.49 505,-491.3 503.71,-527.19"/>
<polygon fill="#9a32cd" stroke="#9a32cd" points="1047.04,-178.02 1057.29,-175.35 1047.61,-171.04 1047.04,-178.02"/>
</a>
</g>
<text text-anchor="middle" x="782" y="-256.97" font-family="Helvetica,sans-Serif" font-size="10.00" fill="grey"> mime_list_in_progress</text>
</g>
<!-- Node19&#45;&gt;Node12 -->
<g id="edge28_Node000012_Node000019" class="edge">
<title>Node19&#45;&gt;Node12</title>
<g id="a_edge28_Node000012_Node000019"><a xlink:title=" ">
<path fill="none" stroke="#9a32cd" stroke-dasharray="5,2" d="M1083.92,-538.24C1069.34,-552.53 1046.45,-571.76 1022,-579.97 936.58,-608.63 669.41,-566.51 555.64,-546.51"/>
<polygon fill="#9a32cd" stroke="#9a32cd" points="1086.61,-540.49 1091.12,-530.91 1081.61,-535.59 1086.61,-540.49"/>
</a>
</g>
<text text-anchor="middle" x="782" y="-589.97" font-family="Helvetica,sans-Serif" font-size="10.00" fill="grey"> get_info_in_progress</text>
</g>
<!-- Node20&#45;&gt;Node12 -->
<g id="edge30_Node000012_Node000020" class="edge">
<title>Node20&#45;&gt;Node12</title>
<g id="a_edge30_Node000012_Node000020"><a xlink:title=" ">
<path fill="none" stroke="#9a32cd" stroke-dasharray="5,2" d="M1043.41,-341.51C997.01,-337.92 930.79,-338.72 879,-362.97 868.47,-367.9 870.62,-375.43 861,-381.97 750.5,-457.09 702.81,-436.88 582,-493.97 559.94,-504.39 535.41,-518.2 519.74,-527.32"/>
<polygon fill="#9a32cd" stroke="#9a32cd" points="1043.31,-345.02 1053.58,-342.39 1043.92,-338.04 1043.31,-345.02"/>
</a>
</g>
<text text-anchor="middle" x="782" y="-453.97" font-family="Helvetica,sans-Serif" font-size="10.00" fill="grey"> thumbnail_state</text>
</g>
<!-- Node21&#45;&gt;Node12 -->
<g id="edge33_Node000012_Node000021" class="edge">
<title>Node21&#45;&gt;Node12</title>
<g id="a_edge33_Node000012_Node000021"><a xlink:title=" ">
<path fill="none" stroke="#9a32cd" stroke-dasharray="5,2" d="M1054.47,-823.55C941.83,-828.97 654.03,-836.69 582,-778.97 506.34,-718.34 502.72,-583.77 503.22,-546.62"/>
<polygon fill="#9a32cd" stroke="#9a32cd" points="1054.68,-827.04 1064.5,-823.05 1054.33,-820.05 1054.68,-827.04"/>
</a>
</g>
<text text-anchor="middle" x="782" y="-829.97" font-family="Helvetica,sans-Serif" font-size="10.00" fill="grey"> mount_state</text>
</g>
<!-- Node22&#45;&gt;Node12 -->
<g id="edge36_Node000012_Node000022" class="edge">
<title>Node22&#45;&gt;Node12</title>
<g id="a_edge36_Node000012_Node000022"><a xlink:title=" ">
<path fill="none" stroke="#9a32cd" stroke-dasharray="5,2" d="M1033.39,-736.24C953.31,-733.75 815.63,-724.27 703,-689.97 647.01,-672.91 628.31,-673.76 582,-637.97 547.56,-611.35 519.84,-566.28 508.74,-546.62"/>
<polygon fill="#9a32cd" stroke="#9a32cd" points="1033.72,-739.75 1043.82,-736.53 1033.92,-732.75 1033.72,-739.75"/>
</a>
</g>
<text text-anchor="middle" x="782" y="-725.97" font-family="Helvetica,sans-Serif" font-size="10.00" fill="grey"> filesystem_info_state</text>
</g>
<!-- Node23&#45;&gt;Node12 -->
<g id="edge39_Node000012_Node000023" class="edge">
<title>Node23&#45;&gt;Node12</title>
<g id="a_edge39_Node000012_Node000023"><a xlink:title=" ">
<path fill="none" stroke="#9a32cd" stroke-dasharray="5,2" d="M1029.46,-679.98C949.28,-680.71 815.01,-677.18 703,-650.97 646.34,-637.71 631.97,-630.78 582,-600.97 555.12,-584.93 527.67,-560.25 513.44,-546.7"/>
<polygon fill="#9a32cd" stroke="#9a32cd" points="1029.96,-683.48 1039.92,-679.86 1029.88,-676.48 1029.96,-683.48"/>
</a>
</g>
<text text-anchor="middle" x="782" y="-677.97" font-family="Helvetica,sans-Serif" font-size="10.00" fill="grey"> top_left_read_state</text>
</g>
<!-- Node24&#45;&gt;Node12 -->
<g id="edge42_Node000012_Node000024" class="edge">
<title>Node24&#45;&gt;Node12</title>
<g id="a_edge42_Node000012_Node000024"><a xlink:title=" ">
<path fill="none" stroke="#9a32cd" stroke-dasharray="5,2" d="M1037.84,-257.49C991.93,-254.62 929,-256.38 879,-278.97 868.69,-283.62 870.68,-291.11 861,-296.97 749.85,-364.17 681.39,-300.34 582,-383.97 534.26,-424.14 512.15,-500.7 505.64,-527.45"/>
<polygon fill="#9a32cd" stroke="#9a32cd" points="1037.72,-260.99 1047.95,-258.22 1038.22,-254.01 1037.72,-260.99"/>
</a>
</g>
<text text-anchor="middle" x="782" y="-338.97" font-family="Helvetica,sans-Serif" font-size="10.00" fill="grey"> link_info_read_state</text>
</g>
<!-- Node25 -->
<g id="Node000025" class="node">
<title>Node25</title>
<g id="a_Node000025"><a xlink:href="structCajaFileSortByEmblemCache.html" target="_top" xlink:title=" ">
<polygon fill="white" stroke="#666666" points="861,-43.47 703,-43.47 703,-24.47 861,-24.47 861,-43.47"/>
<text text-anchor="middle" x="782" y="-31.47" font-family="Helvetica,sans-Serif" font-size="10.00">CajaFileSortByEmblemCache</text>
</a>
</g>
</g>
<!-- Node25&#45;&gt;Node10 -->
<g id="edge45_Node000010_Node000025" class="edge">
<title>Node25&#45;&gt;Node10</title>
<g id="a_edge45_Node000010_Node000025"><a xlink:title=" ">
<path fill="none" stroke="#9a32cd" stroke-dasharray="5,2" d="M871.44,-33.97C930.48,-33.97 1005.77,-33.97 1053.45,-33.97"/>
<polygon fill="#9a32cd" stroke="#9a32cd" points="871.36,-30.47 861.36,-33.97 871.36,-37.47 871.36,-30.47"/>
</a>
</g>
<text text-anchor="middle" x="950.5" y="-36.97" font-family="Helvetica,sans-Serif" font-size="10.00" fill="grey"> compare_by_emblem_cache</text>
</g>
<!-- Node26 -->
<g id="Node000026" class="node">
<title>Node26</title>
<g id="a_Node000026"><a xlink:href="structCajaQueryEditor.html" target="_top" xlink:title=" ">
<polygon fill="white" stroke="#666666" points="1520,-1003.47 1424,-1003.47 1424,-984.47 1520,-984.47 1520,-1003.47"/>
<text text-anchor="middle" x="1472" y="-991.47" font-family="Helvetica,sans-Serif" font-size="10.00">CajaQueryEditor</text>
</a>
</g>
</g>
<!-- Node26&#45;&gt;Node6 -->
<g id="edge47_Node000006_Node000026" class="edge">
<title>Node26&#45;&gt;Node6</title>
<g id="a_edge47_Node000006_Node000026"><a xlink:title=" ">
<path fill="none" stroke="#9a32cd" stroke-dasharray="5,2" d="M1413.71,-1000.31C1411.1,-1000.54 1408.52,-1000.76 1406,-1000.97 1315.26,-1008.24 1209,-1012.97 1149.18,-1015.28"/>
<polygon fill="#9a32cd" stroke="#9a32cd" points="1414.19,-1003.78 1423.81,-999.35 1413.53,-996.81 1414.19,-1003.78"/>
</a>
</g>
<text text-anchor="middle" x="1285.5" y="-1015.97" font-family="Helvetica,sans-Serif" font-size="10.00" fill="grey"> query_editor</text>
</g>
<!-- Node27&#45;&gt;Node26 -->
<g id="edge48_Node000026_Node000027" class="edge">
<title>Node27&#45;&gt;Node26</title>
<g id="a_edge48_Node000026_Node000027"><a xlink:title=" ">
<path fill="none" stroke="#9a32cd" stroke-dasharray="5,2" d="M1361.01,-980.26C1382.27,-982.9 1404.83,-985.72 1423.95,-988.1"/>
<polygon fill="#9a32cd" stroke="#9a32cd" points="1361.39,-976.77 1351.03,-979.01 1360.52,-983.72 1361.39,-976.77"/>
</a>
</g>
<text text-anchor="middle" x="1387.5" y="-988.97" font-family="Helvetica,sans-Serif" font-size="10.00" fill="grey"> details</text>
</g>
<!-- Node28 -->
<g id="Node000028" class="node">
<title>Node28</title>
<g id="a_Node000028"><a xlink:href="structCajaSearchBar.html" target="_top" xlink:title=" ">
<polygon fill="white" stroke="#666666" points="1145,-953.47 1057,-953.47 1057,-934.47 1145,-934.47 1145,-953.47"/>
<text text-anchor="middle" x="1101" y="-941.47" font-family="Helvetica,sans-Serif" font-size="10.00">CajaSearchBar</text>
</a>
</g>
</g>
<!-- Node28&#45;&gt;Node27 -->
<g id="edge49_Node000027_Node000028" class="edge">
<title>Node28&#45;&gt;Node27</title>
<g id="a_edge49_Node000027_Node000028"><a xlink:title=" ">
<path fill="none" stroke="#9a32cd" stroke-dasharray="5,2" d="M1155.57,-949.79C1170.61,-951.59 1186.97,-953.7 1202,-955.97 1212.65,-957.57 1224.04,-959.5 1234.85,-961.44"/>
<polygon fill="#9a32cd" stroke="#9a32cd" points="1155.73,-946.28 1145.39,-948.6 1154.92,-953.24 1155.73,-946.28"/>
</a>
</g>
<text text-anchor="middle" x="1191" y="-958.97" font-family="Helvetica,sans-Serif" font-size="10.00" fill="grey"> bar</text>
</g>
<!-- Node29 -->
<g id="Node000029" class="node">
<title>Node29</title>
<g id="a_Node000029"><a xlink:title=" ">
<polygon fill="white" stroke="#666666" points="843,-934.47 721,-934.47 721,-915.47 843,-915.47 843,-934.47"/>
<text text-anchor="middle" x="782" y="-922.47" font-family="Helvetica,sans-Serif" font-size="10.00">CajaSearchBarDetails</text>
</a>
</g>
</g>
<!-- Node29&#45;&gt;Node28 -->
<g id="edge50_Node000028_Node000029" class="edge">
<title>Node29&#45;&gt;Node28</title>
<g id="a_edge50_Node000028_Node000029"><a xlink:title=" ">
<path fill="none" stroke="#9a32cd" stroke-dasharray="5,2" d="M853.29,-923.55C901,-923.3 965.44,-924.33 1022,-929.97 1033.36,-931.1 1045.56,-932.97 1056.85,-934.98"/>
<polygon fill="#9a32cd" stroke="#9a32cd" points="853.04,-920.05 843.07,-923.63 853.1,-927.05 853.04,-920.05"/>
</a>
</g>
<text text-anchor="middle" x="950.5" y="-932.97" font-family="Helvetica,sans-Serif" font-size="10.00" fill="grey"> details</text>
</g>
<!-- Node30 -->
<g id="Node000030" class="node">
<title>Node30</title>
<g id="a_Node000030"><a xlink:href="structCajaApplication.html" target="_top" xlink:title=" ">
<polygon fill="white" stroke="#666666" points="308,-1163.47 215,-1163.47 215,-1144.47 308,-1144.47 308,-1163.47"/>
<text text-anchor="middle" x="261.5" y="-1151.47" font-family="Helvetica,sans-Serif" font-size="10.00">CajaApplication</text>
</a>
</g>
</g>
<!-- Node30&#45;&gt;Node2 -->
<g id="edge53_Node000002_Node000030" class="edge">
<title>Node30&#45;&gt;Node2</title>
<g id="a_edge53_Node000002_Node000030"><a xlink:title=" ">
<path fill="none" stroke="#9a32cd" stroke-dasharray="5,2" d="M318.14,-1153.97C362.85,-1153.97 424.45,-1153.97 463.63,-1153.97"/>
<polygon fill="#9a32cd" stroke="#9a32cd" points="318.02,-1150.47 308.02,-1153.97 318.02,-1157.47 318.02,-1150.47"/>
</a>
</g>
<text text-anchor="middle" x="374.5" y="-1156.97" font-family="Helvetica,sans-Serif" font-size="10.00" fill="grey"> application</text>
</g>
<!-- Node31 -->
<g id="Node000031" class="node">
<title>Node31</title>
<g id="a_Node000031"><a xlink:title=" ">
<polygon fill="white" stroke="#666666" points="133,-1181.47 0,-1181.47 0,-1162.47 133,-1162.47 133,-1181.47"/>
<text text-anchor="middle" x="66.5" y="-1169.47" font-family="Helvetica,sans-Serif" font-size="10.00">_CajaApplicationPrivate</text>
</a>
</g>
</g>
<!-- Node31&#45;&gt;Node30 -->
<g id="edge54_Node000030_Node000031" class="edge">
<title>Node31&#45;&gt;Node30</title>
<g id="a_edge54_Node000030_Node000031"><a xlink:title=" ">
<path fill="none" stroke="#9a32cd" stroke-dasharray="5,2" d="M143.34,-1164.89C167.51,-1162.64 193.5,-1160.22 214.84,-1158.22"/>
<polygon fill="#9a32cd" stroke="#9a32cd" points="142.74,-1161.43 133.11,-1165.85 143.39,-1168.4 142.74,-1161.43"/>
</a>
</g>
<text text-anchor="middle" x="174" y="-1167.97" font-family="Helvetica,sans-Serif" font-size="10.00" fill="grey"> priv</text>
</g>
<!-- Node32 -->
<g id="Node000032" class="node">
<title>Node32</title>
<g id="a_Node000032"><a xlink:href="struct__EggSMClient.html" target="_top" xlink:title=" ">
<polygon fill="white" stroke="#666666" points="108,-1144.47 25,-1144.47 25,-1125.47 108,-1125.47 108,-1144.47"/>
<text text-anchor="middle" x="66.5" y="-1132.47" font-family="Helvetica,sans-Serif" font-size="10.00">_EggSMClient</text>
</a>
</g>
</g>
<!-- Node32&#45;&gt;Node30 -->
<g id="edge55_Node000030_Node000032" class="edge">
<title>Node32&#45;&gt;Node30</title>
<g id="a_edge55_Node000030_Node000032"><a xlink:title=" ">
<path fill="none" stroke="#9a32cd" stroke-dasharray="5,2" d="M118.33,-1138.8C142.23,-1140.73 171.1,-1143.24 197,-1145.97 202.75,-1146.57 208.78,-1147.26 214.74,-1147.98"/>
<polygon fill="#9a32cd" stroke="#9a32cd" points="118.32,-1135.29 108.08,-1137.99 117.77,-1142.27 118.32,-1135.29"/>
</a>
</g>
<text text-anchor="middle" x="174" y="-1148.97" font-family="Helvetica,sans-Serif" font-size="10.00" fill="grey"> smclient</text>
</g>
</g>
</svg>
