<?xml version="1.0" encoding="UTF-8" standalone="no"?>
<!DOCTYPE svg PUBLIC "-//W3C//DTD SVG 1.1//EN"
 "http://www.w3.org/Graphics/SVG/1.1/DTD/svg11.dtd">
<!-- Generated by graphviz version 2.43.0 (0)
 -->
<!-- Title: CajaSearchDirectory Pages: 1 -->
<!--zoomable 715 -->

<svg id="main" version="1.1" xmlns="http://www.w3.org/2000/svg" xmlns:xlink="http://www.w3.org/1999/xlink" xml:space="preserve" onload="init(evt)">
<style type="text/css"><![CDATA[
.node, .edge {opacity: 0.7;}
.node.selected, .edge.selected {opacity: 1;}
.edge:hover path { stroke: red; }
.edge:hover polygon { stroke: red; fill: red; }
]]></style>

<defs>
  <circle id="rim" cx="0" cy="0" r="7"/>
  <circle id="rim2" cx="0" cy="0" r="3.5"/>
  <g id="zoomPlus">
    <use xlink:href="#rim" fill="#404040"><set attributeName="fill" to="#808080" begin="zoomplus.mouseover" end="zoomplus.mouseout"/></use>
    <path d="M-4,0h8M0,-4v8" fill="none" stroke="white" stroke-width="1.5" pointer-events="none"/>
  </g>
  <g id="zoomMin">
    <use xlink:href="#rim" fill="#404040"><set attributeName="fill" to="#808080" begin="zoomminus.mouseover" end="zoomminus.mouseout"/></use>
    <path d="M-4,0h8" fill="none" stroke="white" stroke-width="1.5" pointer-events="none"/>
  </g>
  <g id="arrowUp" transform="translate(30 24)">
    <use xlink:href="#rim"/>
    <path pointer-events="none" fill="none" stroke="white" stroke-width="1.5" d="M0,-3.0v7 M-2.5,-0.5L0,-3.0L2.5,-0.5"/>
  </g>
  <g id="arrowRight" transform="rotate(90) translate(36 -43)">
    <use xlink:href="#rim"/>
    <path pointer-events="none" fill="none" stroke="white" stroke-width="1.5" d="M0,-3.0v7 M-2.5,-0.5L0,-3.0L2.5,-0.5"/>
  </g>
  <g id="arrowDown" transform="rotate(180) translate(-30 -48)">
    <use xlink:href="#rim"/>
    <path pointer-events="none" fill="none" stroke="white" stroke-width="1.5" d="M0,-3.0v7 M-2.5,-0.5L0,-3.0L2.5,-0.5"/>
  </g>
  <g id="arrowLeft" transform="rotate(270) translate(-36 17)">
    <use xlink:href="#rim"/>
    <path pointer-events="none" fill="none" stroke="white" stroke-width="1.5" d="M0,-3.0v7 M-2.5,-0.5L0,-3.0L2.5,-0.5"/>
  </g>
  <g id="resetDef">
    <use xlink:href="#rim2" fill="#404040"><set attributeName="fill" to="#808080" begin="reset.mouseover" end="reset.mouseout"/></use>
  </g>
</defs>
<script type="application/ecmascript">
var viewWidth = 1574;
var viewHeight = 715;
var sectionId = 'dynsection-0';
</script>
<script type="application/ecmascript" xlink:href="svg.min.js"/>
<svg id="graph" class="graph">
<g id="viewport">
<title>CajaSearchDirectory</title>
<!-- Node1 -->
<g id="Node000001" class="node">
<title>Node1</title>
<g id="a_Node000001"><a xlink:title=" ">
<polygon fill="#999999" stroke="#666666" points="805,-47 689,-47 689,-28 805,-28 805,-47"/>
<text text-anchor="middle" x="747" y="-35" font-family="Helvetica,sans-Serif" font-size="10.00">CajaSearchDirectory</text>
</a>
</g>
</g>
<!-- Node2 -->
<g id="Node000002" class="node">
<title>Node2</title>
<g id="a_Node000002"><a xlink:href="structCajaDirectory.html" target="_top" xlink:title=" ">
<polygon fill="white" stroke="#666666" points="472.5,-431 389.5,-431 389.5,-412 472.5,-412 472.5,-431"/>
<text text-anchor="middle" x="431" y="-419" font-family="Helvetica,sans-Serif" font-size="10.00">CajaDirectory</text>
</a>
</g>
</g>
<!-- Node2&#45;&gt;Node1 -->
<g id="edge1_Node000001_Node000002" class="edge">
<title>Node2&#45;&gt;Node1</title>
<g id="a_edge1_Node000001_Node000002"><a xlink:title=" ">
<path fill="none" stroke="#9a32cd" stroke-dasharray="5,2" d="M450.41,-404.68C469.14,-386.3 497.18,-354.96 510,-321.5 530.71,-267.42 487.89,-103.27 528,-61.5 538.99,-50.05 628.16,-43.33 688.99,-40.04"/>
<polygon fill="#9a32cd" stroke="#9a32cd" points="447.83,-402.3 443.02,-411.74 452.67,-407.36 447.83,-402.3"/>
</a>
</g>
<text text-anchor="middle" x="599.5" y="-64.5" font-family="Helvetica,sans-Serif" font-size="10.00" fill="grey"> parent_slot</text>
</g>
<!-- Node5 -->
<g id="Node000005" class="node">
<title>Node5</title>
<g id="a_Node000005"><a xlink:href="struct__CajaFilePrivate.html" target="_top" xlink:title=" ">
<polygon fill="white" stroke="#666666" points="794.5,-312 699.5,-312 699.5,-293 794.5,-293 794.5,-312"/>
<text text-anchor="middle" x="747" y="-300" font-family="Helvetica,sans-Serif" font-size="10.00">_CajaFilePrivate</text>
</a>
</g>
</g>
<!-- Node2&#45;&gt;Node5 -->
<g id="edge5_Node000005_Node000002" class="edge">
<title>Node2&#45;&gt;Node5</title>
<g id="a_edge5_Node000005_Node000002"><a xlink:title=" ">
<path fill="none" stroke="#9a32cd" stroke-dasharray="5,2" d="M446.29,-404.15C463.5,-384.55 494.32,-353.31 528,-337.5 528.24,-337.39 635.32,-320.22 699.3,-309.98"/>
<polygon fill="#9a32cd" stroke="#9a32cd" points="443.62,-401.89 439.78,-411.76 448.94,-406.44 443.62,-401.89"/>
</a>
</g>
<text text-anchor="middle" x="599.5" y="-340.5" font-family="Helvetica,sans-Serif" font-size="10.00" fill="grey"> directory</text>
</g>
<!-- Node9 -->
<g id="Node000009" class="node">
<title>Node9</title>
<g id="a_Node000009"><a xlink:title=" ">
<polygon fill="white" stroke="#666666" points="1266,-465 1156,-465 1156,-446 1266,-446 1266,-465"/>
<text text-anchor="middle" x="1211" y="-453" font-family="Helvetica,sans-Serif" font-size="10.00">DirectoryLoadState</text>
</a>
</g>
</g>
<!-- Node2&#45;&gt;Node9 -->
<g id="edge10_Node000009_Node000002" class="edge">
<title>Node2&#45;&gt;Node9</title>
<g id="a_edge10_Node000009_Node000002"><a xlink:title=" ">
<path fill="none" stroke="#9a32cd" stroke-dasharray="5,2" d="M464.26,-434.71C482.67,-441.8 506.32,-450.15 528,-455.5 738.58,-507.51 794.65,-509.9 1011,-525.5 1064.64,-529.37 1085.2,-552 1132,-525.5 1145.53,-517.84 1139.27,-506.75 1150,-495.5 1162.01,-482.91 1178.67,-472.2 1191.38,-465.04"/>
<polygon fill="#9a32cd" stroke="#9a32cd" points="465.48,-431.43 454.89,-431.04 462.92,-437.95 465.48,-431.43"/>
</a>
</g>
<text text-anchor="middle" x="871" y="-521.5" font-family="Helvetica,sans-Serif" font-size="10.00" fill="grey"> directory</text>
</g>
<!-- Node10 -->
<g id="Node000010" class="node">
<title>Node10</title>
<g id="a_Node000010"><a xlink:title=" ">
<polygon fill="white" stroke="#666666" points="1269,-428 1153,-428 1153,-409 1269,-409 1269,-428"/>
<text text-anchor="middle" x="1211" y="-416" font-family="Helvetica,sans-Serif" font-size="10.00">DirectoryCountState</text>
</a>
</g>
</g>
<!-- Node2&#45;&gt;Node10 -->
<g id="edge13_Node000010_Node000002" class="edge">
<title>Node2&#45;&gt;Node10</title>
<g id="a_edge13_Node000010_Node000002"><a xlink:title=" ">
<path fill="none" stroke="#9a32cd" stroke-dasharray="5,2" d="M482.44,-429.64C497.1,-431.79 513.16,-433.94 528,-435.5 741.94,-457.93 796,-459.61 1011,-466.5 1064.75,-468.22 1085,-492.64 1132,-466.5 1145.26,-459.13 1138.03,-446.81 1150,-437.5 1155,-433.61 1160.82,-430.51 1166.82,-428.03"/>
<polygon fill="#9a32cd" stroke="#9a32cd" points="482.96,-426.17 472.55,-428.15 481.92,-433.1 482.96,-426.17"/>
</a>
</g>
<text text-anchor="middle" x="871" y="-465.5" font-family="Helvetica,sans-Serif" font-size="10.00" fill="grey"> directory</text>
</g>
<!-- Node11 -->
<g id="Node000011" class="node">
<title>Node11</title>
<g id="a_Node000011"><a xlink:title=" ">
<polygon fill="white" stroke="#666666" points="919,-655 823,-655 823,-636 919,-636 919,-655"/>
<text text-anchor="middle" x="871" y="-643" font-family="Helvetica,sans-Serif" font-size="10.00">DeepCountState</text>
</a>
</g>
</g>
<!-- Node2&#45;&gt;Node11 -->
<g id="edge16_Node000011_Node000002" class="edge">
<title>Node2&#45;&gt;Node11</title>
<g id="a_edge16_Node000011_Node000002"><a xlink:title=" ">
<path fill="none" stroke="#9a32cd" stroke-dasharray="5,2" d="M434.89,-441.03C442.15,-482.24 465.24,-577.82 528,-620.5 619.2,-682.51 757.5,-667.87 826.97,-655.04"/>
<polygon fill="#9a32cd" stroke="#9a32cd" points="438.35,-440.45 433.28,-431.14 431.44,-441.58 438.35,-440.45"/>
</a>
</g>
<text text-anchor="middle" x="599.5" y="-667.5" font-family="Helvetica,sans-Serif" font-size="10.00" fill="grey"> directory</text>
</g>
<!-- Node12 -->
<g id="Node000012" class="node">
<title>Node12</title>
<g id="a_Node000012"><a xlink:title=" ">
<polygon fill="white" stroke="#666666" points="1254.5,-391 1167.5,-391 1167.5,-372 1254.5,-372 1254.5,-391"/>
<text text-anchor="middle" x="1211" y="-379" font-family="Helvetica,sans-Serif" font-size="10.00">MimeListState</text>
</a>
</g>
</g>
<!-- Node2&#45;&gt;Node12 -->
<g id="edge18_Node000012_Node000002" class="edge">
<title>Node2&#45;&gt;Node12</title>
<g id="a_edge18_Node000012_Node000002"><a xlink:title=" ">
<path fill="none" stroke="#9a32cd" stroke-dasharray="5,2" d="M483.36,-422.79C623.1,-425.94 1007.95,-432.06 1132,-407.5 1140.42,-405.83 1141.9,-403.35 1150,-400.5 1159.17,-397.27 1169.22,-393.99 1178.42,-391.08"/>
<polygon fill="#9a32cd" stroke="#9a32cd" points="483.03,-419.29 472.95,-422.55 482.86,-426.28 483.03,-419.29"/>
</a>
</g>
<text text-anchor="middle" x="871" y="-427.5" font-family="Helvetica,sans-Serif" font-size="10.00" fill="grey"> directory</text>
</g>
<!-- Node13 -->
<g id="Node000013" class="node">
<title>Node13</title>
<g id="a_Node000013"><a xlink:title=" ">
<polygon fill="white" stroke="#666666" points="1110.5,-608 1032.5,-608 1032.5,-589 1110.5,-589 1110.5,-608"/>
<text text-anchor="middle" x="1071.5" y="-596" font-family="Helvetica,sans-Serif" font-size="10.00">GetInfoState</text>
</a>
</g>
</g>
<!-- Node2&#45;&gt;Node13 -->
<g id="edge21_Node000013_Node000002" class="edge">
<title>Node2&#45;&gt;Node13</title>
<g id="a_edge21_Node000013_Node000002"><a xlink:title=" ">
<path fill="none" stroke="#9a32cd" stroke-dasharray="5,2" d="M437.67,-441.06C448.72,-475.13 476.65,-544.6 528,-574.5 613.44,-624.25 923.06,-608.59 1032.14,-601.3"/>
<polygon fill="#9a32cd" stroke="#9a32cd" points="440.97,-439.86 434.67,-431.33 434.28,-441.92 440.97,-439.86"/>
</a>
</g>
<text text-anchor="middle" x="747" y="-612.5" font-family="Helvetica,sans-Serif" font-size="10.00" fill="grey"> directory</text>
</g>
<!-- Node14 -->
<g id="Node000014" class="node">
<title>Node14</title>
<g id="a_Node000014"><a xlink:title=" ">
<polygon fill="white" stroke="#666666" points="1258,-161 1164,-161 1164,-142 1258,-142 1258,-161"/>
<text text-anchor="middle" x="1211" y="-149" font-family="Helvetica,sans-Serif" font-size="10.00">ThumbnailState</text>
</a>
</g>
</g>
<!-- Node2&#45;&gt;Node14 -->
<g id="edge23_Node000014_Node000002" class="edge">
<title>Node2&#45;&gt;Node14</title>
<g id="a_edge23_Node000014_Node000002"><a xlink:title=" ">
<path fill="none" stroke="#9a32cd" stroke-dasharray="5,2" d="M449.89,-404.89C468.44,-386.48 496.56,-354.93 510,-321.5 524.66,-285.02 499.99,-173.09 528,-145.5 604.65,-70.01 903.44,-114.79 1011,-112.5 1064.77,-111.36 1083.14,-90.03 1132,-112.5 1143.17,-117.64 1139.7,-126.8 1150,-133.5 1155.2,-136.88 1161.05,-139.65 1167.02,-141.91"/>
<polygon fill="#9a32cd" stroke="#9a32cd" points="447.35,-402.48 442.6,-411.95 452.22,-407.51 447.35,-402.48"/>
</a>
</g>
<text text-anchor="middle" x="871" y="-111.5" font-family="Helvetica,sans-Serif" font-size="10.00" fill="grey"> directory</text>
</g>
<!-- Node15 -->
<g id="Node000015" class="node">
<title>Node15</title>
<g id="a_Node000015"><a xlink:title=" ">
<polygon fill="white" stroke="#666666" points="1247.5,-354 1174.5,-354 1174.5,-335 1247.5,-335 1247.5,-354"/>
<text text-anchor="middle" x="1211" y="-342" font-family="Helvetica,sans-Serif" font-size="10.00">MountState</text>
</a>
</g>
</g>
<!-- Node2&#45;&gt;Node15 -->
<g id="edge26_Node000015_Node000002" class="edge">
<title>Node2&#45;&gt;Node15</title>
<g id="a_edge26_Node000015_Node000002"><a xlink:title=" ">
<path fill="none" stroke="#9a32cd" stroke-dasharray="5,2" d="M482.78,-416.47C629.06,-402 1048.84,-360.45 1174.22,-348.04"/>
<polygon fill="#9a32cd" stroke="#9a32cd" points="482.34,-413 472.73,-417.47 483.03,-419.97 482.34,-413"/>
</a>
</g>
<text text-anchor="middle" x="871" y="-384.5" font-family="Helvetica,sans-Serif" font-size="10.00" fill="grey"> directory</text>
</g>
<!-- Node16 -->
<g id="Node000016" class="node">
<title>Node16</title>
<g id="a_Node000016"><a xlink:title=" ">
<polygon fill="white" stroke="#666666" points="1268,-317 1154,-317 1154,-298 1268,-298 1268,-317"/>
<text text-anchor="middle" x="1211" y="-305" font-family="Helvetica,sans-Serif" font-size="10.00">FilesystemInfoState</text>
</a>
</g>
</g>
<!-- Node2&#45;&gt;Node16 -->
<g id="edge29_Node000016_Node000002" class="edge">
<title>Node2&#45;&gt;Node16</title>
<g id="a_edge29_Node000016_Node000002"><a xlink:title=" ">
<path fill="none" stroke="#9a32cd" stroke-dasharray="5,2" d="M445.88,-403.69C472.44,-369.63 527.82,-298.6 528,-298.5 717.08,-194.83 795.6,-262.73 1011,-252.5 1064.72,-249.95 1086.97,-223.09 1132,-252.5 1148.66,-263.38 1134.69,-280.78 1150,-293.5 1151.97,-295.14 1154.11,-296.6 1156.35,-297.89"/>
<polygon fill="#9a32cd" stroke="#9a32cd" points="442.9,-401.82 439.52,-411.86 448.42,-406.12 442.9,-401.82"/>
</a>
</g>
<text text-anchor="middle" x="871" y="-254.5" font-family="Helvetica,sans-Serif" font-size="10.00" fill="grey"> directory</text>
</g>
<!-- Node17 -->
<g id="Node000017" class="node">
<title>Node17</title>
<g id="a_Node000017"><a xlink:title=" ">
<polygon fill="white" stroke="#666666" points="1272,-198 1150,-198 1150,-179 1272,-179 1272,-198"/>
<text text-anchor="middle" x="1211" y="-186" font-family="Helvetica,sans-Serif" font-size="10.00">TopLeftTextReadState</text>
</a>
</g>
</g>
<!-- Node2&#45;&gt;Node17 -->
<g id="edge32_Node000017_Node000002" class="edge">
<title>Node2&#45;&gt;Node17</title>
<g id="a_edge32_Node000017_Node000002"><a xlink:title=" ">
<path fill="none" stroke="#9a32cd" stroke-dasharray="5,2" d="M449.12,-404.56C467.02,-385.86 494.59,-354.07 510,-321.5 525.58,-288.56 502.26,-267.3 528,-241.5 683.48,-85.62 792.22,-156.1 1011,-131.5 1064.44,-125.49 1086.7,-102.52 1132,-131.5 1148.08,-141.79 1135.58,-157.99 1150,-170.5 1153.94,-173.92 1158.52,-176.69 1163.34,-178.94"/>
<polygon fill="#9a32cd" stroke="#9a32cd" points="446.59,-402.13 442.11,-411.73 451.6,-407.03 446.59,-402.13"/>
</a>
</g>
<text text-anchor="middle" x="871" y="-139.5" font-family="Helvetica,sans-Serif" font-size="10.00" fill="grey"> directory</text>
</g>
<!-- Node18 -->
<g id="Node000018" class="node">
<title>Node18</title>
<g id="a_Node000018"><a xlink:title=" ">
<polygon fill="white" stroke="#666666" points="1264,-523 1158,-523 1158,-504 1264,-504 1264,-523"/>
<text text-anchor="middle" x="1211" y="-511" font-family="Helvetica,sans-Serif" font-size="10.00">LinkInfoReadState</text>
</a>
</g>
</g>
<!-- Node2&#45;&gt;Node18 -->
<g id="edge35_Node000018_Node000002" class="edge">
<title>Node2&#45;&gt;Node18</title>
<g id="a_edge35_Node000018_Node000002"><a xlink:title=" ">
<path fill="none" stroke="#9a32cd" stroke-dasharray="5,2" d="M450.82,-437.54C469.26,-452.37 498.77,-473.82 528,-485.5 728.88,-565.76 794.79,-538.61 1011,-545.5 1064.75,-547.21 1079.24,-555.9 1132,-545.5 1153.68,-541.22 1176.93,-530.86 1192.34,-523.08"/>
<polygon fill="#9a32cd" stroke="#9a32cd" points="452.89,-434.71 442.94,-431.06 448.44,-440.12 452.89,-434.71"/>
</a>
</g>
<text text-anchor="middle" x="871" y="-547.5" font-family="Helvetica,sans-Serif" font-size="10.00" fill="grey"> directory</text>
</g>
<!-- Node3 -->
<g id="Node000003" class="node">
<title>Node3</title>
<g id="a_Node000003"><a xlink:href="struct__CajaDirectoryPrivate.html" target="_top" xlink:title=" ">
<polygon fill="white" stroke="#666666" points="1566,-372 1443,-372 1443,-353 1566,-353 1566,-372"/>
<text text-anchor="middle" x="1504.5" y="-360" font-family="Helvetica,sans-Serif" font-size="10.00">_CajaDirectoryPrivate</text>
</a>
</g>
</g>
<!-- Node3&#45;&gt;Node2 -->
<g id="edge2_Node000002_Node000003" class="edge">
<title>Node3&#45;&gt;Node2</title>
<g id="a_edge2_Node000002_Node000003"><a xlink:title=" ">
<path fill="none" stroke="#9a32cd" stroke-dasharray="5,2" d="M1502.66,-382.43C1499.68,-428.08 1486.17,-541.26 1425,-606.5 1355.4,-680.74 1313.76,-690.5 1212,-690.5 746,-690.5 746,-690.5 746,-690.5 648.91,-690.5 606.02,-734.28 528,-676.5 443.99,-614.28 433.48,-469.45 432.18,-431.01"/>
<polygon fill="#9a32cd" stroke="#9a32cd" points="1506.16,-382.53 1503.21,-372.35 1499.17,-382.15 1506.16,-382.53"/>
</a>
</g>
<text text-anchor="middle" x="965" y="-693.5" font-family="Helvetica,sans-Serif" font-size="10.00" fill="grey"> details</text>
</g>
<!-- Node4 -->
<g id="Node000004" class="node">
<title>Node4</title>
<g id="a_Node000004"><a xlink:href="structCajaFile.html" target="_top" xlink:title=" ">
<polygon fill="white" stroke="#666666" points="993,-312 937,-312 937,-293 993,-293 993,-312"/>
<text text-anchor="middle" x="965" y="-300" font-family="Helvetica,sans-Serif" font-size="10.00">CajaFile</text>
</a>
</g>
</g>
<!-- Node4&#45;&gt;Node3 -->
<g id="edge3_Node000003_Node000004" class="edge">
<title>Node4&#45;&gt;Node3</title>
<g id="a_edge3_Node000003_Node000004"><a xlink:title=" ">
<path fill="none" stroke="#9a32cd" stroke-dasharray="5,2" d="M976.99,-284.27C984.9,-272.95 996.69,-259.31 1011,-252.5 1115.78,-202.64 1157.86,-224.59 1272,-245.5 1343.53,-258.6 1361.3,-268.42 1425,-303.5 1451.13,-317.89 1478.22,-340.18 1492.75,-352.84"/>
<polygon fill="#9a32cd" stroke="#9a32cd" points="974.04,-282.39 971.5,-292.67 979.9,-286.22 974.04,-282.39"/>
</a>
</g>
<text text-anchor="middle" x="1211" y="-281.5" font-family="Helvetica,sans-Serif" font-size="10.00" fill="grey"> as_file</text>
<text text-anchor="middle" x="1211" y="-270.5" font-family="Helvetica,sans-Serif" font-size="10.00" fill="grey">deep_count_file</text>
<text text-anchor="middle" x="1211" y="-259.5" font-family="Helvetica,sans-Serif" font-size="10.00" fill="grey">extension_info_file</text>
<text text-anchor="middle" x="1211" y="-248.5" font-family="Helvetica,sans-Serif" font-size="10.00" fill="grey">get_info_file</text>
</g>
<!-- Node4&#45;&gt;Node9 -->
<g id="edge11_Node000009_Node000004" class="edge">
<title>Node4&#45;&gt;Node9</title>
<g id="a_edge11_Node000009_Node000004"><a xlink:title=" ">
<path fill="none" stroke="#9a32cd" stroke-dasharray="5,2" d="M967.06,-322.42C969.7,-350.55 978.91,-401.42 1011,-427.5 1051.34,-460.29 1112.13,-464.39 1155.91,-462.1"/>
<polygon fill="#9a32cd" stroke="#9a32cd" points="970.53,-321.92 966.3,-312.2 963.55,-322.44 970.53,-321.92"/>
</a>
</g>
<text text-anchor="middle" x="1071.5" y="-465.5" font-family="Helvetica,sans-Serif" font-size="10.00" fill="grey"> load_directory_file</text>
</g>
<!-- Node4&#45;&gt;Node10 -->
<g id="edge14_Node000010_Node000004" class="edge">
<title>Node4&#45;&gt;Node10</title>
<g id="a_edge14_Node000010_Node000004"><a xlink:title=" ">
<path fill="none" stroke="#9a32cd" stroke-dasharray="5,2" d="M973.59,-321.56C980.86,-337.33 993.34,-359.09 1011,-371.5 1052.68,-400.78 1110.16,-412.01 1152.63,-416.21"/>
<polygon fill="#9a32cd" stroke="#9a32cd" points="976.74,-320.01 969.57,-312.21 970.31,-322.78 976.74,-320.01"/>
</a>
</g>
<text text-anchor="middle" x="1071.5" y="-415.5" font-family="Helvetica,sans-Serif" font-size="10.00" fill="grey"> count_file</text>
</g>
<!-- Node4&#45;&gt;Node12 -->
<g id="edge19_Node000012_Node000004" class="edge">
<title>Node4&#45;&gt;Node12</title>
<g id="a_edge19_Node000012_Node000004"><a xlink:title=" ">
<path fill="none" stroke="#9a32cd" stroke-dasharray="5,2" d="M1002.9,-315.08C1039.98,-327.64 1098.81,-347.34 1150,-363.5 1158.92,-366.32 1168.62,-369.27 1177.56,-371.95"/>
<polygon fill="#9a32cd" stroke="#9a32cd" points="1003.64,-311.63 993.04,-311.74 1001.39,-318.26 1003.64,-311.63"/>
</a>
</g>
<text text-anchor="middle" x="1071.5" y="-359.5" font-family="Helvetica,sans-Serif" font-size="10.00" fill="grey"> mime_list_file</text>
</g>
<!-- Node4&#45;&gt;Node14 -->
<g id="edge24_Node000014_Node000004" class="edge">
<title>Node4&#45;&gt;Node14</title>
<g id="a_edge24_Node000014_Node000004"><a xlink:title=" ">
<path fill="none" stroke="#9a32cd" stroke-dasharray="5,2" d="M966,-282.42C967.19,-251.5 974.47,-192.87 1011,-164.5 1056.12,-129.46 1125.74,-134.19 1169.54,-141.98"/>
<polygon fill="#9a32cd" stroke="#9a32cd" points="962.49,-282.72 965.79,-292.78 969.49,-282.86 962.49,-282.72"/>
</a>
</g>
<text text-anchor="middle" x="1071.5" y="-167.5" font-family="Helvetica,sans-Serif" font-size="10.00" fill="grey"> file</text>
</g>
<!-- Node4&#45;&gt;Node15 -->
<g id="edge27_Node000015_Node000004" class="edge">
<title>Node4&#45;&gt;Node15</title>
<g id="a_edge27_Node000015_Node000004"><a xlink:title=" ">
<path fill="none" stroke="#9a32cd" stroke-dasharray="5,2" d="M1003.05,-293.89C1038.15,-287.7 1091.38,-283.56 1132,-303.5 1143.65,-309.22 1139.28,-319.18 1150,-326.5 1157.27,-331.47 1165.95,-335.09 1174.42,-337.73"/>
<polygon fill="#9a32cd" stroke="#9a32cd" points="1002.39,-290.45 993.22,-295.76 1003.7,-297.33 1002.39,-290.45"/>
</a>
</g>
<text text-anchor="middle" x="1071.5" y="-306.5" font-family="Helvetica,sans-Serif" font-size="10.00" fill="grey"> file</text>
</g>
<!-- Node4&#45;&gt;Node16 -->
<g id="edge30_Node000016_Node000004" class="edge">
<title>Node4&#45;&gt;Node16</title>
<g id="a_edge30_Node000016_Node000004"><a xlink:title=" ">
<path fill="none" stroke="#9a32cd" stroke-dasharray="5,2" d="M982.99,-286.06C990.85,-279.57 1000.72,-272.86 1011,-269.5 1062.11,-252.77 1081.13,-252.05 1132,-269.5 1141.59,-272.79 1141.21,-278.46 1150,-283.5 1159.83,-289.14 1171.24,-294.06 1181.46,-297.96"/>
<polygon fill="#9a32cd" stroke="#9a32cd" points="980.48,-283.6 975.32,-292.85 985.12,-288.84 980.48,-283.6"/>
</a>
</g>
<text text-anchor="middle" x="1071.5" y="-272.5" font-family="Helvetica,sans-Serif" font-size="10.00" fill="grey"> file</text>
</g>
<!-- Node4&#45;&gt;Node17 -->
<g id="edge33_Node000017_Node000004" class="edge">
<title>Node4&#45;&gt;Node17</title>
<g id="a_edge33_Node000017_Node000004"><a xlink:title=" ">
<path fill="none" stroke="#9a32cd" stroke-dasharray="5,2" d="M969.82,-282.7C975.1,-261.15 986.85,-227.49 1011,-210.5 1051.09,-182.3 1107.38,-178.49 1149.87,-180.76"/>
<polygon fill="#9a32cd" stroke="#9a32cd" points="966.35,-282.2 967.62,-292.72 973.18,-283.7 966.35,-282.2"/>
</a>
</g>
<text text-anchor="middle" x="1071.5" y="-213.5" font-family="Helvetica,sans-Serif" font-size="10.00" fill="grey"> file</text>
</g>
<!-- Node4&#45;&gt;Node18 -->
<g id="edge36_Node000018_Node000004" class="edge">
<title>Node4&#45;&gt;Node18</title>
<g id="a_edge36_Node000018_Node000004"><a xlink:title=" ">
<path fill="none" stroke="#9a32cd" stroke-dasharray="5,2" d="M968.43,-322.47C973.86,-363.76 988.32,-456.41 1011,-477.5 1050.21,-513.96 1113.32,-519.76 1157.95,-518.48"/>
<polygon fill="#9a32cd" stroke="#9a32cd" points="971.87,-321.77 967.14,-312.29 964.92,-322.65 971.87,-321.77"/>
</a>
</g>
<text text-anchor="middle" x="1071.5" y="-520.5" font-family="Helvetica,sans-Serif" font-size="10.00" fill="grey"> file</text>
</g>
<!-- Node5&#45;&gt;Node4 -->
<g id="edge4_Node000004_Node000005" class="edge">
<title>Node5&#45;&gt;Node4</title>
<g id="a_edge4_Node000004_Node000005"><a xlink:title=" ">
<path fill="none" stroke="#9a32cd" stroke-dasharray="5,2" d="M804.85,-302.5C847.48,-302.5 903.95,-302.5 936.89,-302.5"/>
<polygon fill="#9a32cd" stroke="#9a32cd" points="804.6,-299 794.6,-302.5 804.6,-306 804.6,-299"/>
</a>
</g>
<text text-anchor="middle" x="871" y="-305.5" font-family="Helvetica,sans-Serif" font-size="10.00" fill="grey"> details</text>
</g>
<!-- Node6 -->
<g id="Node000006" class="node">
<title>Node6</title>
<g id="a_Node000006"><a xlink:href="structCajaFileSortByEmblemCache.html" target="_top" xlink:title=" ">
<polygon fill="white" stroke="#666666" points="510,-312 352,-312 352,-293 510,-293 510,-312"/>
<text text-anchor="middle" x="431" y="-300" font-family="Helvetica,sans-Serif" font-size="10.00">CajaFileSortByEmblemCache</text>
</a>
</g>
</g>
<!-- Node6&#45;&gt;Node5 -->
<g id="edge6_Node000005_Node000006" class="edge">
<title>Node6&#45;&gt;Node5</title>
<g id="a_edge6_Node000005_Node000006"><a xlink:title=" ">
<path fill="none" stroke="#9a32cd" stroke-dasharray="5,2" d="M520.3,-302.5C578.36,-302.5 652.02,-302.5 699.1,-302.5"/>
<polygon fill="#9a32cd" stroke="#9a32cd" points="520.02,-299 510.02,-302.5 520.02,-306 520.02,-299"/>
</a>
</g>
<text text-anchor="middle" x="599.5" y="-305.5" font-family="Helvetica,sans-Serif" font-size="10.00" fill="grey"> compare_by_emblem_cache</text>
</g>
<!-- Node7 -->
<g id="Node000007" class="node">
<title>Node7</title>
<g id="a_Node000007"><a xlink:title=" ">
<polygon fill="white" stroke="#666666" points="1254.5,-124 1167.5,-124 1167.5,-105 1254.5,-105 1254.5,-124"/>
<text text-anchor="middle" x="1211" y="-112" font-family="Helvetica,sans-Serif" font-size="10.00">CajaFileQueue</text>
</a>
</g>
</g>
<!-- Node7&#45;&gt;Node3 -->
<g id="edge7_Node000003_Node000007" class="edge">
<title>Node7&#45;&gt;Node3</title>
<g id="a_edge7_Node000003_Node000007"><a xlink:title=" ">
<path fill="none" stroke="#9a32cd" stroke-dasharray="5,2" d="M1264.88,-107.3C1319.61,-101.05 1400.49,-95.52 1425,-113.5 1505.6,-172.6 1505.59,-314.62 1504.04,-352.87"/>
<polygon fill="#9a32cd" stroke="#9a32cd" points="1264.16,-103.86 1254.64,-108.52 1264.98,-110.82 1264.16,-103.86"/>
</a>
</g>
<text text-anchor="middle" x="1357.5" y="-138.5" font-family="Helvetica,sans-Serif" font-size="10.00" fill="grey"> extension_queue</text>
<text text-anchor="middle" x="1357.5" y="-127.5" font-family="Helvetica,sans-Serif" font-size="10.00" fill="grey">high_priority_queue</text>
<text text-anchor="middle" x="1357.5" y="-116.5" font-family="Helvetica,sans-Serif" font-size="10.00" fill="grey">low_priority_queue</text>
</g>
<!-- Node8 -->
<g id="Node000008" class="node">
<title>Node8</title>
<g id="a_Node000008"><a xlink:title=" ">
<polygon fill="white" stroke="#666666" points="1249,-87 1173,-87 1173,-68 1249,-68 1249,-87"/>
<text text-anchor="middle" x="1211" y="-75" font-family="Helvetica,sans-Serif" font-size="10.00">CajaMonitor</text>
</a>
</g>
</g>
<!-- Node8&#45;&gt;Node3 -->
<g id="edge8_Node000003_Node000008" class="edge">
<title>Node8&#45;&gt;Node3</title>
<g id="a_edge8_Node000003_Node000008"><a xlink:title=" ">
<path fill="none" stroke="#9a32cd" stroke-dasharray="5,2" d="M1254.7,-65.67C1301.63,-55.43 1376.75,-47.58 1425,-85.5 1469.21,-120.25 1496.35,-307.89 1502.27,-352.83"/>
<polygon fill="#9a32cd" stroke="#9a32cd" points="1253.8,-62.28 1244.85,-67.94 1255.38,-69.1 1253.8,-62.28"/>
</a>
</g>
<text text-anchor="middle" x="1357.5" y="-88.5" font-family="Helvetica,sans-Serif" font-size="10.00" fill="grey"> monitor</text>
</g>
<!-- Node9&#45;&gt;Node3 -->
<g id="edge9_Node000003_Node000009" class="edge">
<title>Node9&#45;&gt;Node3</title>
<g id="a_edge9_Node000003_Node000009"><a xlink:title=" ">
<path fill="none" stroke="#9a32cd" stroke-dasharray="5,2" d="M1276.43,-455.75C1319.99,-453.79 1377.94,-446.94 1425,-426.5 1454.35,-413.75 1481.65,-386.78 1494.97,-372.26"/>
<polygon fill="#9a32cd" stroke="#9a32cd" points="1276.1,-452.26 1266.24,-456.13 1276.37,-459.25 1276.1,-452.26"/>
</a>
</g>
<text text-anchor="middle" x="1357.5" y="-457.5" font-family="Helvetica,sans-Serif" font-size="10.00" fill="grey"> directory_load_in_progress</text>
</g>
<!-- Node10&#45;&gt;Node3 -->
<g id="edge12_Node000003_Node000010" class="edge">
<title>Node10&#45;&gt;Node3</title>
<g id="a_edge12_Node000003_Node000010"><a xlink:title=" ">
<path fill="none" stroke="#9a32cd" stroke-dasharray="5,2" d="M1279.28,-413.33C1321.53,-409.19 1376.93,-402.09 1425,-390.5 1444.27,-385.85 1465.4,-378.16 1480.87,-372.01"/>
<polygon fill="#9a32cd" stroke="#9a32cd" points="1278.73,-409.87 1269.11,-414.3 1279.39,-416.84 1278.73,-409.87"/>
</a>
</g>
<text text-anchor="middle" x="1357.5" y="-414.5" font-family="Helvetica,sans-Serif" font-size="10.00" fill="grey"> count_in_progress</text>
</g>
<!-- Node11&#45;&gt;Node3 -->
<g id="edge15_Node000003_Node000011" class="edge">
<title>Node11&#45;&gt;Node3</title>
<g id="a_edge15_Node000003_Node000011"><a xlink:title=" ">
<path fill="none" stroke="#9a32cd" stroke-dasharray="5,2" d="M929.41,-645.57C1056.15,-644.49 1354.19,-634.78 1425,-568.5 1485.07,-512.27 1499.61,-405.19 1502.73,-372.33"/>
<polygon fill="#9a32cd" stroke="#9a32cd" points="929.12,-642.07 919.14,-645.64 929.16,-649.07 929.12,-642.07"/>
</a>
</g>
<text text-anchor="middle" x="1071.5" y="-646.5" font-family="Helvetica,sans-Serif" font-size="10.00" fill="grey"> deep_count_in_progress</text>
</g>
<!-- Node12&#45;&gt;Node3 -->
<g id="edge17_Node000003_Node000012" class="edge">
<title>Node12&#45;&gt;Node3</title>
<g id="a_edge17_Node000003_Node000012"><a xlink:title=" ">
<path fill="none" stroke="#9a32cd" stroke-dasharray="5,2" d="M1264.69,-378.07C1314.86,-374.8 1390.31,-369.88 1442.93,-366.45"/>
<polygon fill="#9a32cd" stroke="#9a32cd" points="1264.45,-374.57 1254.7,-378.72 1264.91,-381.56 1264.45,-374.57"/>
</a>
</g>
<text text-anchor="middle" x="1357.5" y="-378.5" font-family="Helvetica,sans-Serif" font-size="10.00" fill="grey"> mime_list_in_progress</text>
</g>
<!-- Node13&#45;&gt;Node3 -->
<g id="edge20_Node000003_Node000013" class="edge">
<title>Node13&#45;&gt;Node3</title>
<g id="a_edge20_Node000003_Node000013"><a xlink:title=" ">
<path fill="none" stroke="#9a32cd" stroke-dasharray="5,2" d="M1121.02,-601.27C1194.57,-602.9 1335.22,-595.63 1425,-525.5 1477.23,-484.7 1496.69,-400.43 1501.92,-372.06"/>
<polygon fill="#9a32cd" stroke="#9a32cd" points="1120.76,-597.76 1110.67,-600.97 1120.56,-604.76 1120.76,-597.76"/>
</a>
</g>
<text text-anchor="middle" x="1211" y="-603.5" font-family="Helvetica,sans-Serif" font-size="10.00" fill="grey"> get_info_in_progress</text>
</g>
<!-- Node14&#45;&gt;Node3 -->
<g id="edge22_Node000003_Node000014" class="edge">
<title>Node14&#45;&gt;Node3</title>
<g id="a_edge22_Node000003_Node000014"><a xlink:title=" ">
<path fill="none" stroke="#9a32cd" stroke-dasharray="5,2" d="M1268.67,-150.96C1323.28,-151.55 1401.05,-155.67 1425,-173.5 1485.99,-218.91 1499.87,-320.47 1502.78,-352.57"/>
<polygon fill="#9a32cd" stroke="#9a32cd" points="1268.45,-147.46 1258.42,-150.89 1268.4,-154.46 1268.45,-147.46"/>
</a>
</g>
<text text-anchor="middle" x="1357.5" y="-176.5" font-family="Helvetica,sans-Serif" font-size="10.00" fill="grey"> thumbnail_state</text>
</g>
<!-- Node15&#45;&gt;Node3 -->
<g id="edge25_Node000003_Node000015" class="edge">
<title>Node15&#45;&gt;Node3</title>
<g id="a_edge25_Node000003_Node000015"><a xlink:title=" ">
<path fill="none" stroke="#9a32cd" stroke-dasharray="5,2" d="M1257.73,-342.84C1300.96,-341.82 1367.56,-341.65 1425,-347.5 1436.73,-348.69 1449.33,-350.75 1460.92,-352.96"/>
<polygon fill="#9a32cd" stroke="#9a32cd" points="1257.44,-339.35 1247.54,-343.11 1257.62,-346.35 1257.44,-339.35"/>
</a>
</g>
<text text-anchor="middle" x="1357.5" y="-350.5" font-family="Helvetica,sans-Serif" font-size="10.00" fill="grey"> mount_state</text>
</g>
<!-- Node16&#45;&gt;Node3 -->
<g id="edge28_Node000003_Node000016" class="edge">
<title>Node16&#45;&gt;Node3</title>
<g id="a_edge28_Node000003_Node000016"><a xlink:title=" ">
<path fill="none" stroke="#9a32cd" stroke-dasharray="5,2" d="M1278.3,-307.64C1320.85,-309.13 1376.93,-313.74 1425,-326.5 1447.46,-332.46 1471.5,-344.4 1486.97,-352.9"/>
<polygon fill="#9a32cd" stroke="#9a32cd" points="1278.16,-304.13 1268.06,-307.33 1277.95,-311.13 1278.16,-304.13"/>
</a>
</g>
<text text-anchor="middle" x="1357.5" y="-329.5" font-family="Helvetica,sans-Serif" font-size="10.00" fill="grey"> filesystem_info_state</text>
</g>
<!-- Node17&#45;&gt;Node3 -->
<g id="edge31_Node000003_Node000017" class="edge">
<title>Node17&#45;&gt;Node3</title>
<g id="a_edge31_Node000003_Node000017"><a xlink:title=" ">
<path fill="none" stroke="#9a32cd" stroke-dasharray="5,2" d="M1282.15,-188.68C1335.09,-190.1 1402.35,-195.05 1425,-210.5 1476.53,-245.64 1496.34,-325.41 1501.8,-352.94"/>
<polygon fill="#9a32cd" stroke="#9a32cd" points="1282.19,-185.18 1272.11,-188.45 1282.02,-192.18 1282.19,-185.18"/>
</a>
</g>
<text text-anchor="middle" x="1357.5" y="-213.5" font-family="Helvetica,sans-Serif" font-size="10.00" fill="grey"> top_left_read_state</text>
</g>
<!-- Node18&#45;&gt;Node3 -->
<g id="edge34_Node000003_Node000018" class="edge">
<title>Node18&#45;&gt;Node3</title>
<g id="a_edge34_Node000003_Node000018"><a xlink:title=" ">
<path fill="none" stroke="#9a32cd" stroke-dasharray="5,2" d="M1274.31,-512.33C1319.33,-508.83 1379.9,-498.46 1425,-469.5 1463.77,-444.6 1489.88,-393.3 1499.44,-372.05"/>
<polygon fill="#9a32cd" stroke="#9a32cd" points="1273.83,-508.85 1264.09,-513.02 1274.3,-515.83 1273.83,-508.85"/>
</a>
</g>
<text text-anchor="middle" x="1357.5" y="-513.5" font-family="Helvetica,sans-Serif" font-size="10.00" fill="grey"> link_info_read_state</text>
</g>
<!-- Node19 -->
<g id="Node000019" class="node">
<title>Node19</title>
<g id="a_Node000019"><a xlink:title=" ">
<polygon fill="white" stroke="#666666" points="506.5,-36 355.5,-36 355.5,-17 506.5,-17 506.5,-36"/>
<text text-anchor="middle" x="431" y="-24" font-family="Helvetica,sans-Serif" font-size="10.00">CajaSearchDirectoryDetails</text>
</a>
</g>
</g>
<!-- Node19&#45;&gt;Node1 -->
<g id="edge37_Node000001_Node000019" class="edge">
<title>Node19&#45;&gt;Node1</title>
<g id="a_edge37_Node000001_Node000019"><a xlink:title=" ">
<path fill="none" stroke="#9a32cd" stroke-dasharray="5,2" d="M516.81,-24.21C562.53,-23.64 619.91,-24 671,-27.5 676.77,-27.89 682.77,-28.45 688.75,-29.1"/>
<polygon fill="#9a32cd" stroke="#9a32cd" points="516.59,-20.71 506.64,-24.36 516.69,-27.71 516.59,-20.71"/>
</a>
</g>
<text text-anchor="middle" x="599.5" y="-30.5" font-family="Helvetica,sans-Serif" font-size="10.00" fill="grey"> details</text>
</g>
<!-- Node20 -->
<g id="Node000020" class="node">
<title>Node20</title>
<g id="a_Node000020"><a xlink:href="structCajaQuery.html" target="_top" xlink:title=" ">
<polygon fill="white" stroke="#666666" points="261,-56 193,-56 193,-37 261,-37 261,-56"/>
<text text-anchor="middle" x="227" y="-44" font-family="Helvetica,sans-Serif" font-size="10.00">CajaQuery</text>
</a>
</g>
</g>
<!-- Node20&#45;&gt;Node19 -->
<g id="edge38_Node000019_Node000020" class="edge">
<title>Node20&#45;&gt;Node19</title>
<g id="a_edge38_Node000019_Node000020"><a xlink:title=" ">
<path fill="none" stroke="#9a32cd" stroke-dasharray="5,2" d="M271.41,-42.2C295.9,-39.78 327.18,-36.68 355.48,-33.88"/>
<polygon fill="#9a32cd" stroke="#9a32cd" points="270.96,-38.73 261.36,-43.2 271.65,-45.7 270.96,-38.73"/>
</a>
</g>
<text text-anchor="middle" x="315.5" y="-42.5" font-family="Helvetica,sans-Serif" font-size="10.00" fill="grey"> query</text>
</g>
<!-- Node21 -->
<g id="Node000021" class="node">
<title>Node21</title>
<g id="a_Node000021"><a xlink:title=" ">
<polygon fill="white" stroke="#666666" points="102,-56 0,-56 0,-37 102,-37 102,-56"/>
<text text-anchor="middle" x="51" y="-44" font-family="Helvetica,sans-Serif" font-size="10.00">CajaQueryDetails</text>
</a>
</g>
</g>
<!-- Node21&#45;&gt;Node20 -->
<g id="edge39_Node000020_Node000021" class="edge">
<title>Node21&#45;&gt;Node20</title>
<g id="a_edge39_Node000020_Node000021"><a xlink:title=" ">
<path fill="none" stroke="#9a32cd" stroke-dasharray="5,2" d="M112.45,-46.5C139.42,-46.5 170.14,-46.5 192.83,-46.5"/>
<polygon fill="#9a32cd" stroke="#9a32cd" points="112.33,-43 102.33,-46.5 112.33,-50 112.33,-43"/>
</a>
</g>
<text text-anchor="middle" x="138.5" y="-49.5" font-family="Helvetica,sans-Serif" font-size="10.00" fill="grey"> details</text>
</g>
<!-- Node22 -->
<g id="Node000022" class="node">
<title>Node22</title>
<g id="a_Node000022"><a xlink:href="structCajaSearchEngine.html" target="_top" xlink:title=" ">
<polygon fill="white" stroke="#666666" points="279,-19 175,-19 175,0 279,0 279,-19"/>
<text text-anchor="middle" x="227" y="-7" font-family="Helvetica,sans-Serif" font-size="10.00">CajaSearchEngine</text>
</a>
</g>
</g>
<!-- Node22&#45;&gt;Node19 -->
<g id="edge40_Node000019_Node000022" class="edge">
<title>Node22&#45;&gt;Node19</title>
<g id="a_edge40_Node000019_Node000022"><a xlink:title=" ">
<path fill="none" stroke="#9a32cd" stroke-dasharray="5,2" d="M289.05,-9.23C303.79,-9.56 319.47,-10.23 334,-11.5 348.12,-12.73 363.3,-14.77 377.34,-16.95"/>
<polygon fill="#9a32cd" stroke="#9a32cd" points="289.08,-5.73 279.02,-9.06 288.96,-12.73 289.08,-5.73"/>
</a>
</g>
<text text-anchor="middle" x="315.5" y="-14.5" font-family="Helvetica,sans-Serif" font-size="10.00" fill="grey"> engine</text>
</g>
</g>
</svg>

<g id="navigator" transform="translate(0 0)" fill="#404254">
  <rect fill="#f2f5e9" fill-opacity="0.5" stroke="#606060" stroke-width=".5" x="0" y="0" width="60" height="60"/>
  <use id="zoomplus" xlink:href="#zoomPlus" x="17" y="9" onmousedown="handleZoom(evt,'in')"/>
  <use id="zoomminus" xlink:href="#zoomMin" x="42" y="9" onmousedown="handleZoom(evt,'out')"/>
  <use id="reset" xlink:href="#resetDef" x="30" y="36" onmousedown="handleReset()"/>
   <use id="arrowup" xlink:href="#arrowUp" x="0" y="0" onmousedown="handlePan(0,-1)"/>
  <use id="arrowright" xlink:href="#arrowRight" x="0" y="0" onmousedown="handlePan(1,0)"/>
  <use id="arrowdown" xlink:href="#arrowDown" x="0" y="0" onmousedown="handlePan(0,1)"/>
  <use id="arrowleft" xlink:href="#arrowLeft" x="0" y="0" onmousedown="handlePan(-1,0)"/>
</g>
<svg viewBox="0 0 15 15" width="100%" height="30px" preserveAspectRatio="xMaxYMin meet">
 <g id="arrow_out" transform="scale(0.3 0.3)">
  <a xlink:href="structCajaSearchDirectory__coll__graph_org.svg" target="_base">
   <rect id="button" ry="5" rx="5" y="6" x="6" height="38" width="38"
        fill="#f2f5e9" fill-opacity="0.5" stroke="#606060" stroke-width="1.0"/>
   <path id="arrow"
     d="M 11.500037,31.436501 C 11.940474,20.09759 22.043105,11.32322 32.158766,21.979434 L 37.068811,17.246167 C 37.068811,17.246167 37.088388,32 37.088388,32 L 22.160133,31.978069 C 22.160133,31.978069 26.997745,27.140456 26.997745,27.140456 C 18.528582,18.264221 13.291696,25.230495 11.500037,31.436501 z"
     style="fill:#404040;"/>
  </a>
 </g>
</svg>

<style type='text/css'>
<![CDATA[
[data-mouse-over-selected='false'] { opacity: 0.7; }
[data-mouse-over-selected='true']  { opacity: 1.0; }
]]>
</style>
<script type="application/ecmascript"><![CDATA[
document.addEventListener('DOMContentLoaded', (event) => {
  highlightEdges();
  highlightAdjacentNodes();
});
]]></script>
</svg>
