<?xml version="1.0" encoding="UTF-8" standalone="no"?>
<!DOCTYPE svg PUBLIC "-//W3C//DTD SVG 1.1//EN"
 "http://www.w3.org/Graphics/SVG/1.1/DTD/svg11.dtd">
<!-- Generated by graphviz version 2.43.0 (0)
 -->
<!-- Title: MateWeatherLocationEntry Pages: 1 -->
<svg width="208pt" height="173pt"
 viewBox="0.00 0.00 207.50 173.00" xmlns="http://www.w3.org/2000/svg" xmlns:xlink="http://www.w3.org/1999/xlink">

<svg id="main" version="1.1" xmlns="http://www.w3.org/2000/svg" xmlns:xlink="http://www.w3.org/1999/xlink" xml:space="preserve" onload="init(evt)">
<style type="text/css"><![CDATA[
.node, .edge {opacity: 0.7;}
.node.selected, .edge.selected {opacity: 1;}
.edge:hover path { stroke: red; }
.edge:hover polygon { stroke: red; fill: red; }
]]></style>
<script type="application/ecmascript" xlink:href="svg.min.js"/>
<svg id="graph" class="graph">
<g id="graph0" class="graph" transform="scale(1 1) rotate(0) translate(4 169)">
<title>MateWeatherLocationEntry</title>
<!-- Node1 -->
<g id="Node000001" class="node">
<title>Node1</title>
<g id="a_Node000001"><a xlink:title=" ">
<polygon fill="#999999" stroke="#666666" points="149,-19 0,-19 0,0 149,0 149,-19"/>
<text text-anchor="middle" x="74.5" y="-7" font-family="Helvetica,sans-Serif" font-size="10.00">MateWeatherLocationEntry</text>
</a>
</g>
</g>
<!-- Node2 -->
<g id="Node000002" class="node">
<title>Node2</title>
<g id="a_Node000002"><a xlink:title=" ">
<polygon fill="white" stroke="#666666" points="138.5,-97.5 10.5,-97.5 10.5,-78.5 138.5,-78.5 138.5,-97.5"/>
<text text-anchor="middle" x="74.5" y="-85.5" font-family="Helvetica,sans-Serif" font-size="10.00">_MateWeatherLocation</text>
</a>
</g>
</g>
<!-- Node2&#45;&gt;Node1 -->
<g id="edge1_Node000001_Node000002" class="edge">
<title>Node2&#45;&gt;Node1</title>
<g id="a_edge1_Node000001_Node000002"><a xlink:title=" ">
<path fill="none" stroke="#9a32cd" stroke-dasharray="5,2" d="M74.5,-68.1C74.5,-52.47 74.5,-30.99 74.5,-19.17"/>
<polygon fill="#9a32cd" stroke="#9a32cd" points="71,-68.22 74.5,-78.22 78,-68.22 71,-68.22"/>
</a>
</g>
<text text-anchor="middle" x="96" y="-51" font-family="Helvetica,sans-Serif" font-size="10.00" fill="grey"> location</text>
<text text-anchor="middle" x="96" y="-40" font-family="Helvetica,sans-Serif" font-size="10.00" fill="grey">top</text>
</g>
<!-- Node2&#45;&gt;Node2 -->
<g id="edge2_Node000002_Node000002" class="edge">
<title>Node2&#45;&gt;Node2</title>
<g id="a_edge2_Node000002_Node000002"><a xlink:title=" ">
<path fill="none" stroke="#9a32cd" stroke-dasharray="5,2" d="M149.01,-92.48C153.68,-91.42 156.5,-89.93 156.5,-88 156.5,-84.91 149.29,-82.95 138.79,-82.1"/>
<polygon fill="#9a32cd" stroke="#9a32cd" points="148.21,-89.05 138.79,-93.9 149.17,-95.99 148.21,-89.05"/>
</a>
</g>
<text text-anchor="middle" x="178" y="-91" font-family="Helvetica,sans-Serif" font-size="10.00" fill="grey"> children</text>
<text text-anchor="middle" x="178" y="-80" font-family="Helvetica,sans-Serif" font-size="10.00" fill="grey">parent</text>
</g>
<!-- Node3 -->
<g id="Node000003" class="node">
<title>Node3</title>
<g id="a_Node000003"><a xlink:title=" ">
<polygon fill="white" stroke="#666666" points="142,-165 7,-165 7,-146 142,-146 142,-165"/>
<text text-anchor="middle" x="74.5" y="-153" font-family="Helvetica,sans-Serif" font-size="10.00">_MateWeatherTimezone</text>
</a>
</g>
</g>
<!-- Node3&#45;&gt;Node2 -->
<g id="edge3_Node000002_Node000003" class="edge">
<title>Node3&#45;&gt;Node2</title>
<g id="a_edge3_Node000002_Node000003"><a xlink:title=" ">
<path fill="none" stroke="#9a32cd" stroke-dasharray="5,2" d="M74.5,-135.68C74.5,-123.21 74.5,-107.42 74.5,-97.77"/>
<polygon fill="#9a32cd" stroke="#9a32cd" points="71,-135.94 74.5,-145.94 78,-135.94 71,-135.94"/>
</a>
</g>
<text text-anchor="middle" x="90.5" y="-120" font-family="Helvetica,sans-Serif" font-size="10.00" fill="grey"> zones</text>
</g>
</g>
</svg>
</svg>

<style type='text/css'>
<![CDATA[
[data-mouse-over-selected='false'] { opacity: 0.7; }
[data-mouse-over-selected='true']  { opacity: 1.0; }
]]>
</style>
<script type="application/ecmascript"><![CDATA[
document.addEventListener('DOMContentLoaded', (event) => {
  highlightEdges();
  highlightAdjacentNodes();
});
]]></script>
</svg>
