<?xml version="1.0" encoding="UTF-8" standalone="no"?>
<!DOCTYPE svg PUBLIC "-//W3C//DTD SVG 1.1//EN"
 "http://www.w3.org/Graphics/SVG/1.1/DTD/svg11.dtd">
<!-- Generated by graphviz version 2.43.0 (0)
 -->
<!-- Title: _DviHashTable Pages: 1 -->
<svg width="147pt" height="93pt"
 viewBox="0.00 0.00 147.00 93.00" xmlns="http://www.w3.org/2000/svg" xmlns:xlink="http://www.w3.org/1999/xlink">
<g id="graph0" class="graph" transform="scale(1 1) rotate(0) translate(4 89)">
<title>_DviHashTable</title>
<!-- Node1 -->
<g id="Node000001" class="node">
<title>Node1</title>
<g id="a_Node000001"><a xlink:title=" ">
<polygon fill="#999999" stroke="#666666" points="92.5,-19 3.5,-19 3.5,0 92.5,0 92.5,-19"/>
<text text-anchor="middle" x="48" y="-7" font-family="Helvetica,sans-Serif" font-size="10.00">_DviHashTable</text>
</a>
</g>
</g>
<!-- Node2 -->
<g id="Node000002" class="node">
<title>Node2</title>
<g id="a_Node000002"><a xlink:title=" ">
<polygon fill="white" stroke="#666666" points="96,-85 0,-85 0,-66 96,-66 96,-85"/>
<text text-anchor="middle" x="48" y="-73" font-family="Helvetica,sans-Serif" font-size="10.00">_DviHashBucket</text>
</a>
</g>
</g>
<!-- Node2&#45;&gt;Node1 -->
<g id="edge1_Node000001_Node000002" class="edge">
<title>Node2&#45;&gt;Node1</title>
<g id="a_edge1_Node000001_Node000002"><a xlink:title=" ">
<path fill="none" stroke="#9a32cd" stroke-dasharray="5,2" d="M48,-55.58C48,-43.63 48,-28.72 48,-19.41"/>
<polygon fill="#9a32cd" stroke="#9a32cd" points="44.5,-55.87 48,-65.87 51.5,-55.87 44.5,-55.87"/>
</a>
</g>
<text text-anchor="middle" x="68.5" y="-40" font-family="Helvetica,sans-Serif" font-size="10.00" fill="grey"> buckets</text>
</g>
<!-- Node2&#45;&gt;Node2 -->
<g id="edge2_Node000002_Node000002" class="edge">
<title>Node2&#45;&gt;Node2</title>
<g id="a_edge2_Node000002_Node000002"><a xlink:title=" ">
<path fill="none" stroke="#9a32cd" stroke-dasharray="5,2" d="M106.3,-80.1C111.05,-79.1 114,-77.57 114,-75.5 114,-72.19 106.46,-70.25 96.05,-69.68"/>
<polygon fill="#9a32cd" stroke="#9a32cd" points="105.57,-76.67 96.05,-81.32 106.4,-83.62 105.57,-76.67"/>
</a>
</g>
<text text-anchor="middle" x="126.5" y="-73" font-family="Helvetica,sans-Serif" font-size="10.00" fill="grey"> next</text>
</g>
</g>
</svg>
