<?xml version="1.0" encoding="UTF-8" standalone="no"?>
<!DOCTYPE svg PUBLIC "-//W3C//DTD SVG 1.1//EN"
 "http://www.w3.org/Graphics/SVG/1.1/DTD/svg11.dtd">
<!-- Generated by graphviz version 2.43.0 (0)
 -->
<!-- Title: MathEquation Pages: 1 -->
<svg width="296pt" height="357pt"
 viewBox="0.00 0.00 295.50 357.00" xmlns="http://www.w3.org/2000/svg" xmlns:xlink="http://www.w3.org/1999/xlink">
<g id="graph0" class="graph" transform="scale(1 1) rotate(0) translate(4 353)">
<title>MathEquation</title>
<!-- Node1 -->
<g id="Node000001" class="node">
<title>Node1</title>
<g id="a_Node000001"><a xlink:title=" ">
<polygon fill="#999999" stroke="#666666" points="180,-19 96,-19 96,0 180,0 180,-19"/>
<text text-anchor="middle" x="138" y="-7" font-family="Helvetica,sans-Serif" font-size="10.00">MathEquation</text>
</a>
</g>
</g>
<!-- Node2 -->
<g id="Node000002" class="node">
<title>Node2</title>
<g id="a_Node000002"><a xlink:title=" ">
<polygon fill="white" stroke="#666666" points="197.5,-85 78.5,-85 78.5,-66 197.5,-66 197.5,-85"/>
<text text-anchor="middle" x="138" y="-73" font-family="Helvetica,sans-Serif" font-size="10.00">MathEquationPrivate</text>
</a>
</g>
</g>
<!-- Node2&#45;&gt;Node1 -->
<g id="edge1_Node000001_Node000002" class="edge">
<title>Node2&#45;&gt;Node1</title>
<g id="a_edge1_Node000001_Node000002"><a xlink:title=" ">
<path fill="none" stroke="#9a32cd" stroke-dasharray="5,2" d="M138,-55.58C138,-43.63 138,-28.72 138,-19.41"/>
<polygon fill="#9a32cd" stroke="#9a32cd" points="134.5,-55.87 138,-65.87 141.5,-55.87 134.5,-55.87"/>
</a>
</g>
<text text-anchor="middle" x="149" y="-40" font-family="Helvetica,sans-Serif" font-size="10.00" fill="grey"> priv</text>
</g>
<!-- Node3 -->
<g id="Node000003" class="node">
<title>Node3</title>
<g id="a_Node000003"><a xlink:title=" ">
<polygon fill="white" stroke="#666666" points="110,-151 0,-151 0,-132 110,-132 110,-151"/>
<text text-anchor="middle" x="55" y="-139" font-family="Helvetica,sans-Serif" font-size="10.00">MathEquationState</text>
</a>
</g>
</g>
<!-- Node3&#45;&gt;Node2 -->
<g id="edge2_Node000002_Node000003" class="edge">
<title>Node3&#45;&gt;Node2</title>
<g id="a_edge2_Node000002_Node000003"><a xlink:title=" ">
<path fill="none" stroke="#9a32cd" stroke-dasharray="5,2" d="M70.67,-124.95C78.08,-117.92 87.21,-109.7 96,-103 104.5,-96.51 114.62,-90.09 122.79,-85.2"/>
<polygon fill="#9a32cd" stroke="#9a32cd" points="68.15,-122.51 63.4,-131.98 73.02,-127.54 68.15,-122.51"/>
</a>
</g>
<text text-anchor="middle" x="110" y="-106" font-family="Helvetica,sans-Serif" font-size="10.00" fill="grey"> state</text>
</g>
<!-- Node4 -->
<g id="Node000004" class="node">
<title>Node4</title>
<g id="a_Node000004"><a xlink:href="structMPNumber.html" target="_top" xlink:title=" ">
<polygon fill="white" stroke="#666666" points="90.5,-217 19.5,-217 19.5,-198 90.5,-198 90.5,-217"/>
<text text-anchor="middle" x="55" y="-205" font-family="Helvetica,sans-Serif" font-size="10.00">MPNumber</text>
</a>
</g>
</g>
<!-- Node4&#45;&gt;Node3 -->
<g id="edge3_Node000003_Node000004" class="edge">
<title>Node4&#45;&gt;Node3</title>
<g id="a_edge3_Node000003_Node000004"><a xlink:title=" ">
<path fill="none" stroke="#9a32cd" stroke-dasharray="5,2" d="M55,-187.58C55,-175.63 55,-160.72 55,-151.41"/>
<polygon fill="#9a32cd" stroke="#9a32cd" points="51.5,-187.87 55,-197.87 58.5,-187.87 51.5,-187.87"/>
</a>
</g>
<text text-anchor="middle" x="65.5" y="-172" font-family="Helvetica,sans-Serif" font-size="10.00" fill="grey"> ans</text>
</g>
<!-- Node5 -->
<g id="Node000005" class="node">
<title>Node5</title>
<g id="a_Node000005"><a xlink:href="structMathVariables.html" target="_top" xlink:title=" ">
<polygon fill="white" stroke="#666666" points="257,-151 171,-151 171,-132 257,-132 257,-151"/>
<text text-anchor="middle" x="214" y="-139" font-family="Helvetica,sans-Serif" font-size="10.00">MathVariables</text>
</a>
</g>
</g>
<!-- Node5&#45;&gt;Node2 -->
<g id="edge4_Node000002_Node000005" class="edge">
<title>Node5&#45;&gt;Node2</title>
<g id="a_edge4_Node000002_Node000005"><a xlink:title=" ">
<path fill="none" stroke="#9a32cd" stroke-dasharray="5,2" d="M195.81,-125.18C181.06,-112.76 160.78,-95.68 148.57,-85.41"/>
<polygon fill="#9a32cd" stroke="#9a32cd" points="193.85,-128.1 203.75,-131.87 198.36,-122.75 193.85,-128.1"/>
</a>
</g>
<text text-anchor="middle" x="204.5" y="-106" font-family="Helvetica,sans-Serif" font-size="10.00" fill="grey"> variables</text>
</g>
<!-- Node6 -->
<g id="Node000006" class="node">
<title>Node6</title>
<g id="a_Node000006"><a xlink:title=" ">
<polygon fill="white" stroke="#666666" points="287.5,-217 166.5,-217 166.5,-198 287.5,-198 287.5,-217"/>
<text text-anchor="middle" x="227" y="-205" font-family="Helvetica,sans-Serif" font-size="10.00">MathVariablesPrivate</text>
</a>
</g>
</g>
<!-- Node6&#45;&gt;Node5 -->
<g id="edge5_Node000005_Node000006" class="edge">
<title>Node6&#45;&gt;Node5</title>
<g id="a_edge5_Node000005_Node000006"><a xlink:title=" ">
<path fill="none" stroke="#9a32cd" stroke-dasharray="5,2" d="M223.23,-187.95C220.79,-175.93 217.72,-160.82 215.81,-151.41"/>
<polygon fill="#9a32cd" stroke="#9a32cd" points="219.83,-188.77 225.25,-197.87 226.69,-187.37 219.83,-188.77"/>
</a>
</g>
<text text-anchor="middle" x="232" y="-172" font-family="Helvetica,sans-Serif" font-size="10.00" fill="grey"> priv</text>
</g>
<!-- Node7 -->
<g id="Node000007" class="node">
<title>Node7</title>
<g id="a_Node000007"><a xlink:href="structMpSerializer.html" target="_top" xlink:title=" ">
<polygon fill="white" stroke="#666666" points="192.5,-283 115.5,-283 115.5,-264 192.5,-264 192.5,-283"/>
<text text-anchor="middle" x="154" y="-271" font-family="Helvetica,sans-Serif" font-size="10.00">MpSerializer</text>
</a>
</g>
</g>
<!-- Node7&#45;&gt;Node2 -->
<g id="edge8_Node000002_Node000007" class="edge">
<title>Node7&#45;&gt;Node2</title>
<g id="a_edge8_Node000002_Node000007"><a xlink:title=" ">
<path fill="none" stroke="#9a32cd" stroke-dasharray="5,2" d="M152.47,-253.76C149.09,-212.38 141.11,-114.58 138.7,-85.07"/>
<polygon fill="#9a32cd" stroke="#9a32cd" points="148.99,-254.14 153.29,-263.83 155.97,-253.57 148.99,-254.14"/>
</a>
</g>
<text text-anchor="middle" x="170.5" y="-172" font-family="Helvetica,sans-Serif" font-size="10.00" fill="grey"> serializer</text>
</g>
<!-- Node7&#45;&gt;Node6 -->
<g id="edge6_Node000006_Node000007" class="edge">
<title>Node7&#45;&gt;Node6</title>
<g id="a_edge6_Node000006_Node000007"><a xlink:title=" ">
<path fill="none" stroke="#9a32cd" stroke-dasharray="5,2" d="M171.48,-257.18C185.64,-244.76 205.12,-227.68 216.84,-217.41"/>
<polygon fill="#9a32cd" stroke="#9a32cd" points="169.06,-254.64 163.85,-263.87 173.67,-259.91 169.06,-254.64"/>
</a>
</g>
<text text-anchor="middle" x="218.5" y="-238" font-family="Helvetica,sans-Serif" font-size="10.00" fill="grey"> serializer</text>
</g>
<!-- Node8 -->
<g id="Node000008" class="node">
<title>Node8</title>
<g id="a_Node000008"><a xlink:title=" ">
<polygon fill="white" stroke="#666666" points="210,-349 98,-349 98,-330 210,-330 210,-349"/>
<text text-anchor="middle" x="154" y="-337" font-family="Helvetica,sans-Serif" font-size="10.00">MpSerializerPrivate</text>
</a>
</g>
</g>
<!-- Node8&#45;&gt;Node7 -->
<g id="edge7_Node000007_Node000008" class="edge">
<title>Node8&#45;&gt;Node7</title>
<g id="a_edge7_Node000007_Node000008"><a xlink:title=" ">
<path fill="none" stroke="#9a32cd" stroke-dasharray="5,2" d="M154,-319.58C154,-307.63 154,-292.72 154,-283.41"/>
<polygon fill="#9a32cd" stroke="#9a32cd" points="150.5,-319.87 154,-329.87 157.5,-319.87 150.5,-319.87"/>
</a>
</g>
<text text-anchor="middle" x="165" y="-304" font-family="Helvetica,sans-Serif" font-size="10.00" fill="grey"> priv</text>
</g>
</g>
</svg>
