<?xml version="1.0" encoding="UTF-8" standalone="no"?>
<!DOCTYPE svg PUBLIC "-//W3C//DTD SVG 1.1//EN"
 "http://www.w3.org/Graphics/SVG/1.1/DTD/svg11.dtd">
<!-- Generated by graphviz version 2.43.0 (0)
 -->
<!-- Title: TestDerived Pages: 1 -->
<svg width="213pt" height="159pt"
 viewBox="0.00 0.00 213.00 159.00" xmlns="http://www.w3.org/2000/svg" xmlns:xlink="http://www.w3.org/1999/xlink">
<g id="graph0" class="graph" transform="scale(1 1) rotate(0) translate(4 155)">
<title>TestDerived</title>
<!-- Node1 -->
<g id="Node000001" class="node">
<title>Node1</title>
<g id="a_Node000001"><a xlink:title=" ">
<polygon fill="#999999" stroke="#666666" points="136.5,-19 62.5,-19 62.5,0 136.5,0 136.5,-19"/>
<text text-anchor="middle" x="99.5" y="-7" font-family="Helvetica,sans-Serif" font-size="10.00">TestDerived</text>
</a>
</g>
</g>
<!-- Node2 -->
<g id="Node000002" class="node">
<title>Node2</title>
<g id="a_Node000002"><a xlink:href="structTestBase.html" target="_top" xlink:title=" ">
<polygon fill="white" stroke="#666666" points="77.5,-85 17.5,-85 17.5,-66 77.5,-66 77.5,-85"/>
<text text-anchor="middle" x="47.5" y="-73" font-family="Helvetica,sans-Serif" font-size="10.00">TestBase</text>
</a>
</g>
</g>
<!-- Node2&#45;&gt;Node1 -->
<g id="edge1_Node000001_Node000002" class="edge">
<title>Node2&#45;&gt;Node1</title>
<g id="a_edge1_Node000001_Node000002"><a xlink:title=" ">
<path fill="none" stroke="#9a32cd" stroke-dasharray="5,2" d="M61.1,-57.77C71.07,-45.49 84.23,-29.3 92.26,-19.41"/>
<polygon fill="#9a32cd" stroke="#9a32cd" points="58.1,-55.9 54.51,-65.87 63.54,-60.31 58.1,-55.9"/>
</a>
</g>
<text text-anchor="middle" x="95" y="-40" font-family="Helvetica,sans-Serif" font-size="10.00" fill="grey"> parent</text>
</g>
<!-- Node3 -->
<g id="Node000003" class="node">
<title>Node3</title>
<g id="a_Node000003"><a xlink:title=" ">
<polygon fill="white" stroke="#666666" points="95,-151 0,-151 0,-132 95,-132 95,-151"/>
<text text-anchor="middle" x="47.5" y="-139" font-family="Helvetica,sans-Serif" font-size="10.00">TestBasePrivate</text>
</a>
</g>
</g>
<!-- Node3&#45;&gt;Node2 -->
<g id="edge2_Node000002_Node000003" class="edge">
<title>Node3&#45;&gt;Node2</title>
<g id="a_edge2_Node000002_Node000003"><a xlink:title=" ">
<path fill="none" stroke="#9a32cd" stroke-dasharray="5,2" d="M47.5,-121.58C47.5,-109.63 47.5,-94.72 47.5,-85.41"/>
<polygon fill="#9a32cd" stroke="#9a32cd" points="44,-121.87 47.5,-131.87 51,-121.87 44,-121.87"/>
</a>
</g>
<text text-anchor="middle" x="66.5" y="-106" font-family="Helvetica,sans-Serif" font-size="10.00" fill="grey"> private</text>
</g>
<!-- Node4 -->
<g id="Node000004" class="node">
<title>Node4</title>
<g id="a_Node000004"><a xlink:title=" ">
<polygon fill="white" stroke="#666666" points="205,-85 96,-85 96,-66 205,-66 205,-85"/>
<text text-anchor="middle" x="150.5" y="-73" font-family="Helvetica,sans-Serif" font-size="10.00">TestDerivedPrivate</text>
</a>
</g>
</g>
<!-- Node4&#45;&gt;Node1 -->
<g id="edge3_Node000001_Node000004" class="edge">
<title>Node4&#45;&gt;Node1</title>
<g id="a_edge3_Node000001_Node000004"><a xlink:title=" ">
<path fill="none" stroke="#9a32cd" stroke-dasharray="5,2" d="M137.17,-57.77C127.38,-45.49 114.48,-29.3 106.6,-19.41"/>
<polygon fill="#9a32cd" stroke="#9a32cd" points="134.65,-60.23 143.62,-65.87 140.13,-55.87 134.65,-60.23"/>
</a>
</g>
<text text-anchor="middle" x="146.5" y="-40" font-family="Helvetica,sans-Serif" font-size="10.00" fill="grey"> private</text>
</g>
</g>
</svg>
