<?xml version="1.0" encoding="UTF-8" standalone="no"?>
<!DOCTYPE svg PUBLIC "-//W3C//DTD SVG 1.1//EN"
 "http://www.w3.org/Graphics/SVG/1.1/DTD/svg11.dtd">
<!-- Generated by graphviz version 2.43.0 (0)
 -->
<!-- Title: terminal&#45;screen&#45;container.h Pages: 1 -->
<svg width="652pt" height="82pt"
 viewBox="0.00 0.00 651.50 82.00" xmlns="http://www.w3.org/2000/svg" xmlns:xlink="http://www.w3.org/1999/xlink">
<g id="graph0" class="graph" transform="scale(1 1) rotate(0) translate(4 78)">
<title>terminal&#45;screen&#45;container.h</title>
<!-- Node1 -->
<g id="Node000001" class="node">
<title>Node1</title>
<g id="a_Node000001"><a xlink:title=" ">
<polygon fill="#999999" stroke="#666666" points="403,-74 251,-74 251,-55 403,-55 403,-74"/>
<text text-anchor="middle" x="327" y="-62" font-family="Helvetica,sans-Serif" font-size="10.00">terminal&#45;screen&#45;container.h</text>
</a>
</g>
</g>
<!-- Node2 -->
<g id="Node000002" class="node">
<title>Node2</title>
<g id="a_Node000002"><a xlink:href="terminal-app_8c.html" target="_top" xlink:title=" ">
<polygon fill="white" stroke="#666666" points="88,-19 0,-19 0,0 88,0 88,-19"/>
<text text-anchor="middle" x="44" y="-7" font-family="Helvetica,sans-Serif" font-size="10.00">terminal&#45;app.c</text>
</a>
</g>
</g>
<!-- Node1&#45;&gt;Node2 -->
<g id="edge1_Node000001_Node000002" class="edge">
<title>Node1&#45;&gt;Node2</title>
<g id="a_edge1_Node000001_Node000002"><a xlink:title=" ">
<path fill="none" stroke="#63b8ff" d="M271.52,-53.11C217.96,-43.08 137.9,-28.09 88.42,-18.82"/>
<polygon fill="#63b8ff" stroke="#63b8ff" points="271.06,-56.58 281.53,-54.98 272.35,-49.7 271.06,-56.58"/>
</a>
</g>
</g>
<!-- Node3 -->
<g id="Node000003" class="node">
<title>Node3</title>
<g id="a_Node000003"><a xlink:href="terminal-screen-container_8c.html" target="_top" xlink:title=" ">
<polygon fill="white" stroke="#666666" points="257.5,-19 106.5,-19 106.5,0 257.5,0 257.5,-19"/>
<text text-anchor="middle" x="182" y="-7" font-family="Helvetica,sans-Serif" font-size="10.00">terminal&#45;screen&#45;container.c</text>
</a>
</g>
</g>
<!-- Node1&#45;&gt;Node3 -->
<g id="edge2_Node000001_Node000003" class="edge">
<title>Node1&#45;&gt;Node3</title>
<g id="a_edge2_Node000001_Node000003"><a xlink:title=" ">
<path fill="none" stroke="#63b8ff" d="M294.31,-51.55C267.38,-41.71 229.84,-27.98 205.72,-19.17"/>
<polygon fill="#63b8ff" stroke="#63b8ff" points="293.11,-54.84 303.7,-54.98 295.51,-48.26 293.11,-54.84"/>
</a>
</g>
</g>
<!-- Node4 -->
<g id="Node000004" class="node">
<title>Node4</title>
<g id="a_Node000004"><a xlink:href="terminal-screen_8c.html" target="_top" xlink:title=" ">
<polygon fill="white" stroke="#666666" points="378,-19 276,-19 276,0 378,0 378,-19"/>
<text text-anchor="middle" x="327" y="-7" font-family="Helvetica,sans-Serif" font-size="10.00">terminal&#45;screen.c</text>
</a>
</g>
</g>
<!-- Node1&#45;&gt;Node4 -->
<g id="edge3_Node000001_Node000004" class="edge">
<title>Node1&#45;&gt;Node4</title>
<g id="a_edge3_Node000001_Node000004"><a xlink:title=" ">
<path fill="none" stroke="#63b8ff" d="M327,-44.66C327,-35.93 327,-25.99 327,-19.09"/>
<polygon fill="#63b8ff" stroke="#63b8ff" points="323.5,-44.75 327,-54.75 330.5,-44.75 323.5,-44.75"/>
</a>
</g>
</g>
<!-- Node5 -->
<g id="Node000005" class="node">
<title>Node5</title>
<g id="a_Node000005"><a xlink:href="terminal-tabs-menu_8c.html" target="_top" xlink:title=" ">
<polygon fill="white" stroke="#666666" points="518,-19 396,-19 396,0 518,0 518,-19"/>
<text text-anchor="middle" x="457" y="-7" font-family="Helvetica,sans-Serif" font-size="10.00">terminal&#45;tabs&#45;menu.c</text>
</a>
</g>
</g>
<!-- Node1&#45;&gt;Node5 -->
<g id="edge4_Node000001_Node000005" class="edge">
<title>Node1&#45;&gt;Node5</title>
<g id="a_edge4_Node000001_Node000005"><a xlink:title=" ">
<path fill="none" stroke="#63b8ff" d="M357.27,-51.16C381.34,-41.35 414.4,-27.87 435.73,-19.17"/>
<polygon fill="#63b8ff" stroke="#63b8ff" points="355.83,-47.97 347.89,-54.98 358.47,-54.45 355.83,-47.97"/>
</a>
</g>
</g>
<!-- Node6 -->
<g id="Node000006" class="node">
<title>Node6</title>
<g id="a_Node000006"><a xlink:href="terminal-window_8c.html" target="_top" xlink:title=" ">
<polygon fill="white" stroke="#666666" points="643.5,-19 536.5,-19 536.5,0 643.5,0 643.5,-19"/>
<text text-anchor="middle" x="590" y="-7" font-family="Helvetica,sans-Serif" font-size="10.00">terminal&#45;window.c</text>
</a>
</g>
</g>
<!-- Node1&#45;&gt;Node6 -->
<g id="edge5_Node000001_Node000006" class="edge">
<title>Node1&#45;&gt;Node6</title>
<g id="a_edge5_Node000001_Node000006"><a xlink:title=" ">
<path fill="none" stroke="#63b8ff" d="M379.09,-53C428.39,-43.07 501.5,-28.33 547.41,-19.08"/>
<polygon fill="#63b8ff" stroke="#63b8ff" points="378.37,-49.58 369.26,-54.98 379.75,-56.44 378.37,-49.58"/>
</a>
</g>
</g>
</g>
</svg>
