<?xml version="1.0" encoding="UTF-8" standalone="no"?>
<!DOCTYPE svg PUBLIC "-//W3C//DTD SVG 1.1//EN"
 "http://www.w3.org/Graphics/SVG/1.1/DTD/svg11.dtd">
<!-- Generated by graphviz version 2.43.0 (0)
 -->
<!-- Title: terminal&#45;profile.h Pages: 1 -->
<svg width="2008pt" height="247pt"
 viewBox="0.00 0.00 2007.50 247.00" xmlns="http://www.w3.org/2000/svg" xmlns:xlink="http://www.w3.org/1999/xlink">
<g id="graph0" class="graph" transform="scale(1 1) rotate(0) translate(4 243)">
<title>terminal&#45;profile.h</title>
<!-- Node1 -->
<g id="Node000001" class="node">
<title>Node1</title>
<g id="a_Node000001"><a xlink:title=" ">
<polygon fill="#999999" stroke="#666666" points="737,-239 636,-239 636,-220 737,-220 737,-239"/>
<text text-anchor="middle" x="686.5" y="-227" font-family="Helvetica,sans-Serif" font-size="10.00">terminal&#45;profile.h</text>
</a>
</g>
</g>
<!-- Node2 -->
<g id="Node000002" class="node">
<title>Node2</title>
<g id="a_Node000002"><a xlink:href="profile-editor_8h.html" target="_top" xlink:title=" ">
<polygon fill="white" stroke="#666666" points="1001.5,-129 913.5,-129 913.5,-110 1001.5,-110 1001.5,-129"/>
<text text-anchor="middle" x="957.5" y="-117" font-family="Helvetica,sans-Serif" font-size="10.00">profile&#45;editor.h</text>
</a>
</g>
</g>
<!-- Node1&#45;&gt;Node2 -->
<g id="edge1_Node000001_Node000002" class="edge">
<title>Node1&#45;&gt;Node2</title>
<g id="a_edge1_Node000001_Node000002"><a xlink:title=" ">
<path fill="none" stroke="#63b8ff" d="M717.56,-216.12C773.16,-193.96 888.32,-148.07 936.05,-129.05"/>
<polygon fill="#63b8ff" stroke="#63b8ff" points="716.21,-212.89 708.22,-219.84 718.8,-219.39 716.21,-212.89"/>
</a>
</g>
</g>
<!-- Node5 -->
<g id="Node000005" class="node">
<title>Node5</title>
<g id="a_Node000005"><a xlink:href="terminal-accels_8c.html" target="_top" xlink:title=" ">
<polygon fill="white" stroke="#666666" points="391,-74 290,-74 290,-55 391,-55 391,-74"/>
<text text-anchor="middle" x="340.5" y="-62" font-family="Helvetica,sans-Serif" font-size="10.00">terminal&#45;accels.c</text>
</a>
</g>
</g>
<!-- Node1&#45;&gt;Node5 -->
<g id="edge4_Node000001_Node000005" class="edge">
<title>Node1&#45;&gt;Node5</title>
<g id="a_edge4_Node000001_Node000005"><a xlink:title=" ">
<path fill="none" stroke="#63b8ff" d="M659.16,-215.62C591.22,-183.61 416.04,-101.09 358.85,-74.15"/>
<polygon fill="#63b8ff" stroke="#63b8ff" points="657.85,-218.87 668.38,-219.97 660.83,-212.54 657.85,-218.87"/>
</a>
</g>
</g>
<!-- Node6 -->
<g id="Node000006" class="node">
<title>Node6</title>
<g id="a_Node000006"><a xlink:href="terminal-encoding_8c.html" target="_top" xlink:title=" ">
<polygon fill="white" stroke="#666666" points="271.5,-74 157.5,-74 157.5,-55 271.5,-55 271.5,-74"/>
<text text-anchor="middle" x="214.5" y="-62" font-family="Helvetica,sans-Serif" font-size="10.00">terminal&#45;encoding.c</text>
</a>
</g>
</g>
<!-- Node1&#45;&gt;Node6 -->
<g id="edge5_Node000001_Node000006" class="edge">
<title>Node1&#45;&gt;Node6</title>
<g id="a_edge5_Node000001_Node000006"><a xlink:title=" ">
<path fill="none" stroke="#63b8ff" d="M651.04,-216.65C624.44,-207.74 587.16,-195.2 554.5,-184 435.94,-143.36 294.53,-93.69 238.79,-74.06"/>
<polygon fill="#63b8ff" stroke="#63b8ff" points="650.08,-220.02 660.67,-219.88 652.3,-213.39 650.08,-220.02"/>
</a>
</g>
</g>
<!-- Node7 -->
<g id="Node000007" class="node">
<title>Node7</title>
<g id="a_Node000007"><a xlink:href="terminal-profile_8c.html" target="_top" xlink:title=" ">
<polygon fill="white" stroke="#666666" points="101,-74 0,-74 0,-55 101,-55 101,-74"/>
<text text-anchor="middle" x="50.5" y="-62" font-family="Helvetica,sans-Serif" font-size="10.00">terminal&#45;profile.c</text>
</a>
</g>
</g>
<!-- Node1&#45;&gt;Node7 -->
<g id="edge6_Node000001_Node000007" class="edge">
<title>Node1&#45;&gt;Node7</title>
<g id="a_edge6_Node000001_Node000007"><a xlink:title=" ">
<path fill="none" stroke="#63b8ff" d="M638.93,-217.69C600.66,-208.89 545.53,-196.02 497.5,-184 340.76,-144.78 154.21,-93.99 81.58,-74.06"/>
<polygon fill="#63b8ff" stroke="#63b8ff" points="638.24,-221.12 648.77,-219.94 639.81,-214.3 638.24,-221.12"/>
</a>
</g>
</g>
<!-- Node8 -->
<g id="Node000008" class="node">
<title>Node8</title>
<g id="a_Node000008"><a xlink:href="terminal-screen_8c.html" target="_top" xlink:title=" ">
<polygon fill="white" stroke="#666666" points="1265.5,-74 1163.5,-74 1163.5,-55 1265.5,-55 1265.5,-74"/>
<text text-anchor="middle" x="1214.5" y="-62" font-family="Helvetica,sans-Serif" font-size="10.00">terminal&#45;screen.c</text>
</a>
</g>
</g>
<!-- Node1&#45;&gt;Node8 -->
<g id="edge7_Node000001_Node000008" class="edge">
<title>Node1&#45;&gt;Node8</title>
<g id="a_edge7_Node000001_Node000008"><a xlink:title=" ">
<path fill="none" stroke="#63b8ff" d="M747.64,-228.57C857.76,-227.73 1084.32,-221.36 1152.5,-184 1194.65,-160.91 1209.17,-97.68 1213.19,-74.32"/>
<polygon fill="#63b8ff" stroke="#63b8ff" points="747.33,-225.07 737.36,-228.63 747.38,-232.07 747.33,-225.07"/>
</a>
</g>
</g>
<!-- Node9 -->
<g id="Node000009" class="node">
<title>Node9</title>
<g id="a_Node000009"><a xlink:href="terminal-screen_8h.html" target="_top" xlink:title=" ">
<polygon fill="white" stroke="#666666" points="1144,-184 1041,-184 1041,-165 1144,-165 1144,-184"/>
<text text-anchor="middle" x="1092.5" y="-172" font-family="Helvetica,sans-Serif" font-size="10.00">terminal&#45;screen.h</text>
</a>
</g>
</g>
<!-- Node1&#45;&gt;Node9 -->
<g id="edge8_Node000001_Node000009" class="edge">
<title>Node1&#45;&gt;Node9</title>
<g id="a_edge8_Node000001_Node000009"><a xlink:title=" ">
<path fill="none" stroke="#63b8ff" d="M747.49,-220.54C827.37,-210.11 966.04,-192.01 1040.94,-182.23"/>
<polygon fill="#63b8ff" stroke="#63b8ff" points="746.56,-217.13 737.1,-221.89 747.47,-224.07 746.56,-217.13"/>
</a>
</g>
</g>
<!-- Node3 -->
<g id="Node000003" class="node">
<title>Node3</title>
<g id="a_Node000003"><a xlink:href="profile-editor_8c.html" target="_top" xlink:title=" ">
<polygon fill="white" stroke="#666666" points="1001,-74 914,-74 914,-55 1001,-55 1001,-74"/>
<text text-anchor="middle" x="957.5" y="-62" font-family="Helvetica,sans-Serif" font-size="10.00">profile&#45;editor.c</text>
</a>
</g>
</g>
<!-- Node2&#45;&gt;Node3 -->
<g id="edge2_Node000002_Node000003" class="edge">
<title>Node2&#45;&gt;Node3</title>
<g id="a_edge2_Node000002_Node000003"><a xlink:title=" ">
<path fill="none" stroke="#63b8ff" d="M957.5,-99.66C957.5,-90.93 957.5,-80.99 957.5,-74.09"/>
<polygon fill="#63b8ff" stroke="#63b8ff" points="954,-99.75 957.5,-109.75 961,-99.75 954,-99.75"/>
</a>
</g>
</g>
<!-- Node4 -->
<g id="Node000004" class="node">
<title>Node4</title>
<g id="a_Node000004"><a xlink:href="terminal-app_8c.html" target="_top" xlink:title=" ">
<polygon fill="white" stroke="#666666" points="1107.5,-74 1019.5,-74 1019.5,-55 1107.5,-55 1107.5,-74"/>
<text text-anchor="middle" x="1063.5" y="-62" font-family="Helvetica,sans-Serif" font-size="10.00">terminal&#45;app.c</text>
</a>
</g>
</g>
<!-- Node2&#45;&gt;Node4 -->
<g id="edge3_Node000002_Node000004" class="edge">
<title>Node2&#45;&gt;Node4</title>
<g id="a_edge3_Node000002_Node000004"><a xlink:title=" ">
<path fill="none" stroke="#63b8ff" d="M983.5,-105.5C1003,-95.75 1029.15,-82.68 1046.16,-74.17"/>
<polygon fill="#63b8ff" stroke="#63b8ff" points="981.91,-102.38 974.53,-109.98 985.04,-108.64 981.91,-102.38"/>
</a>
</g>
</g>
<!-- Node9&#45;&gt;Node4 -->
<g id="edge12_Node000009_Node000004" class="edge">
<title>Node9&#45;&gt;Node4</title>
<g id="a_edge12_Node000009_Node000004"><a xlink:title=" ">
<path fill="none" stroke="#63b8ff" d="M1082.06,-155.96C1077.79,-148 1073.22,-138.29 1070.5,-129 1064.96,-110.05 1063.74,-86.75 1063.51,-74.32"/>
<polygon fill="#63b8ff" stroke="#63b8ff" points="1079.01,-157.69 1086.98,-164.67 1085.11,-154.25 1079.01,-157.69"/>
</a>
</g>
</g>
<!-- Node9&#45;&gt;Node7 -->
<g id="edge24_Node000009_Node000007" class="edge">
<title>Node9&#45;&gt;Node7</title>
<g id="a_edge24_Node000009_Node000007"><a xlink:title=" ">
<path fill="none" stroke="#63b8ff" d="M1030.78,-170.21C922.85,-164.15 692.9,-149.91 499.5,-129 354.5,-113.32 184.24,-87.08 101.2,-73.78"/>
<polygon fill="#63b8ff" stroke="#63b8ff" points="1030.66,-173.7 1040.84,-170.77 1031.05,-166.72 1030.66,-173.7"/>
</a>
</g>
</g>
<!-- Node10 -->
<g id="Node000010" class="node">
<title>Node10</title>
<g id="a_Node000010"><a xlink:href="skey-popup_8c.html" target="_top" xlink:title=" ">
<polygon fill="white" stroke="#666666" points="1961,-74 1880,-74 1880,-55 1961,-55 1961,-74"/>
<text text-anchor="middle" x="1920.5" y="-62" font-family="Helvetica,sans-Serif" font-size="10.00">skey&#45;popup.c</text>
</a>
</g>
</g>
<!-- Node9&#45;&gt;Node10 -->
<g id="edge9_Node000009_Node000010" class="edge">
<title>Node9&#45;&gt;Node10</title>
<g id="a_edge9_Node000009_Node000010"><a xlink:title=" ">
<path fill="none" stroke="#63b8ff" d="M1154.17,-172.7C1326.11,-170.07 1802.41,-160.04 1865.5,-129 1889.84,-117.02 1907.85,-88.93 1915.87,-74.46"/>
<polygon fill="#63b8ff" stroke="#63b8ff" points="1153.96,-169.2 1144.02,-172.85 1154.07,-176.2 1153.96,-169.2"/>
</a>
</g>
</g>
<!-- Node11 -->
<g id="Node000011" class="node">
<title>Node11</title>
<g id="a_Node000011"><a xlink:href="skey-popup_8h.html" target="_top" xlink:title=" ">
<polygon fill="white" stroke="#666666" points="1999.5,-129 1917.5,-129 1917.5,-110 1999.5,-110 1999.5,-129"/>
<text text-anchor="middle" x="1958.5" y="-117" font-family="Helvetica,sans-Serif" font-size="10.00">skey&#45;popup.h</text>
</a>
</g>
</g>
<!-- Node9&#45;&gt;Node11 -->
<g id="edge10_Node000009_Node000011" class="edge">
<title>Node9&#45;&gt;Node11</title>
<g id="a_edge10_Node000009_Node000011"><a xlink:title=" ">
<path fill="none" stroke="#63b8ff" d="M1154.57,-172.18C1290.59,-168.83 1625,-158.09 1903.5,-129 1908.02,-128.53 1912.73,-127.94 1917.41,-127.3"/>
<polygon fill="#63b8ff" stroke="#63b8ff" points="1154.26,-168.68 1144.35,-172.43 1154.43,-175.68 1154.26,-168.68"/>
</a>
</g>
</g>
<!-- Node12 -->
<g id="Node000012" class="node">
<title>Node12</title>
<g id="a_Node000012"><a xlink:href="terminal-app_8h.html" target="_top" xlink:title=" ">
<polygon fill="white" stroke="#666666" points="598,-129 509,-129 509,-110 598,-110 598,-129"/>
<text text-anchor="middle" x="553.5" y="-117" font-family="Helvetica,sans-Serif" font-size="10.00">terminal&#45;app.h</text>
</a>
</g>
</g>
<!-- Node9&#45;&gt;Node12 -->
<g id="edge13_Node000009_Node000012" class="edge">
<title>Node9&#45;&gt;Node12</title>
<g id="a_edge13_Node000009_Node000012"><a xlink:title=" ">
<path fill="none" stroke="#63b8ff" d="M1030.56,-167.41C920.67,-156.6 694.17,-134.33 598.12,-124.89"/>
<polygon fill="#63b8ff" stroke="#63b8ff" points="1030.52,-170.92 1040.82,-168.42 1031.21,-163.96 1030.52,-170.92"/>
</a>
</g>
</g>
<!-- Node13 -->
<g id="Node000013" class="node">
<title>Node13</title>
<g id="a_Node000013"><a xlink:href="terminal-options_8c.html" target="_top" xlink:title=" ">
<polygon fill="white" stroke="#666666" points="515.5,-74 409.5,-74 409.5,-55 515.5,-55 515.5,-74"/>
<text text-anchor="middle" x="462.5" y="-62" font-family="Helvetica,sans-Serif" font-size="10.00">terminal&#45;options.c</text>
</a>
</g>
</g>
<!-- Node9&#45;&gt;Node13 -->
<g id="edge23_Node000009_Node000013" class="edge">
<title>Node9&#45;&gt;Node13</title>
<g id="a_edge23_Node000009_Node000013"><a xlink:title=" ">
<path fill="none" stroke="#63b8ff" d="M1030.74,-167.6C960.06,-160.42 840.95,-146.98 739.5,-129 650.35,-113.2 546.69,-87.43 495.12,-74.09"/>
<polygon fill="#63b8ff" stroke="#63b8ff" points="1030.51,-171.1 1040.81,-168.62 1031.21,-164.13 1030.51,-171.1"/>
</a>
</g>
</g>
<!-- Node17 -->
<g id="Node000017" class="node">
<title>Node17</title>
<g id="a_Node000017"><a xlink:href="terminal-screen-container_8h.html" target="_top" xlink:title=" ">
<polygon fill="white" stroke="#666666" points="1672.5,-129 1520.5,-129 1520.5,-110 1672.5,-110 1672.5,-129"/>
<text text-anchor="middle" x="1596.5" y="-117" font-family="Helvetica,sans-Serif" font-size="10.00">terminal&#45;screen&#45;container.h</text>
</a>
</g>
</g>
<!-- Node9&#45;&gt;Node17 -->
<g id="edge25_Node000009_Node000017" class="edge">
<title>Node9&#45;&gt;Node17</title>
<g id="a_edge25_Node000009_Node000017"><a xlink:title=" ">
<path fill="none" stroke="#63b8ff" d="M1154.08,-167.02C1246.26,-157.33 1419.95,-139.07 1520.09,-128.54"/>
<polygon fill="#63b8ff" stroke="#63b8ff" points="1153.65,-163.55 1144.07,-168.08 1154.38,-170.51 1153.65,-163.55"/>
</a>
</g>
</g>
<!-- Node19 -->
<g id="Node000019" class="node">
<title>Node19</title>
<g id="a_Node000019"><a xlink:href="terminal-tabs-menu_8c.html" target="_top" xlink:title=" ">
<polygon fill="white" stroke="#666666" points="1874.5,-19 1752.5,-19 1752.5,0 1874.5,0 1874.5,-19"/>
<text text-anchor="middle" x="1813.5" y="-7" font-family="Helvetica,sans-Serif" font-size="10.00">terminal&#45;tabs&#45;menu.c</text>
</a>
</g>
</g>
<!-- Node9&#45;&gt;Node19 -->
<g id="edge34_Node000009_Node000019" class="edge">
<title>Node9&#45;&gt;Node19</title>
<g id="a_edge34_Node000009_Node000019"><a xlink:title=" ">
<path fill="none" stroke="#63b8ff" d="M1154.51,-171.32C1284.75,-166.32 1582.82,-152.64 1681.5,-129 1743.31,-114.2 1778.25,-126.88 1813.5,-74 1824.63,-57.31 1819.93,-32.25 1816.29,-19.17"/>
<polygon fill="#63b8ff" stroke="#63b8ff" points="1154.17,-167.83 1144.31,-171.7 1154.43,-174.82 1154.17,-167.83"/>
</a>
</g>
</g>
<!-- Node20 -->
<g id="Node000020" class="node">
<title>Node20</title>
<g id="a_Node000020"><a xlink:href="terminal-tab-label_8h.html" target="_top" xlink:title=" ">
<polygon fill="white" stroke="#666666" points="1492.5,-129 1378.5,-129 1378.5,-110 1492.5,-110 1492.5,-129"/>
<text text-anchor="middle" x="1435.5" y="-117" font-family="Helvetica,sans-Serif" font-size="10.00">terminal&#45;tab&#45;label.h</text>
</a>
</g>
</g>
<!-- Node9&#45;&gt;Node20 -->
<g id="edge31_Node000009_Node000020" class="edge">
<title>Node9&#45;&gt;Node20</title>
<g id="a_edge31_Node000009_Node000020"><a xlink:title=" ">
<path fill="none" stroke="#63b8ff" d="M1154.23,-163.96C1218.55,-154.02 1318.41,-138.59 1380.23,-129.04"/>
<polygon fill="#63b8ff" stroke="#63b8ff" points="1153.57,-160.52 1144.22,-165.51 1154.64,-167.44 1153.57,-160.52"/>
</a>
</g>
</g>
<!-- Node22 -->
<g id="Node000022" class="node">
<title>Node22</title>
<g id="a_Node000022"><a xlink:href="terminal-util_8h.html" target="_top" xlink:title=" ">
<polygon fill="white" stroke="#666666" points="834.5,-129 748.5,-129 748.5,-110 834.5,-110 834.5,-129"/>
<text text-anchor="middle" x="791.5" y="-117" font-family="Helvetica,sans-Serif" font-size="10.00">terminal&#45;util.h</text>
</a>
</g>
</g>
<!-- Node9&#45;&gt;Node22 -->
<g id="edge35_Node000009_Node000022" class="edge">
<title>Node9&#45;&gt;Node22</title>
<g id="a_edge35_Node000009_Node000022"><a xlink:title=" ">
<path fill="none" stroke="#63b8ff" d="M1033.96,-163.19C975.57,-152.91 887.23,-137.36 834.86,-128.13"/>
<polygon fill="#63b8ff" stroke="#63b8ff" points="1033.68,-166.7 1044.14,-164.98 1034.9,-159.8 1033.68,-166.7"/>
</a>
</g>
</g>
<!-- Node24 -->
<g id="Node000024" class="node">
<title>Node24</title>
<g id="a_Node000024"><a xlink:href="terminal-window_8h.html" target="_top" xlink:title=" ">
<polygon fill="white" stroke="#666666" points="1187,-129 1080,-129 1080,-110 1187,-110 1187,-129"/>
<text text-anchor="middle" x="1133.5" y="-117" font-family="Helvetica,sans-Serif" font-size="10.00">terminal&#45;window.h</text>
</a>
</g>
</g>
<!-- Node9&#45;&gt;Node24 -->
<g id="edge47_Node000009_Node000024" class="edge">
<title>Node9&#45;&gt;Node24</title>
<g id="a_edge47_Node000009_Node000024"><a xlink:title=" ">
<path fill="none" stroke="#63b8ff" d="M1105.52,-156.67C1112.62,-147.5 1121.1,-136.52 1126.86,-129.09"/>
<polygon fill="#63b8ff" stroke="#63b8ff" points="1102.62,-154.7 1099.27,-164.75 1108.16,-158.98 1102.62,-154.7"/>
</a>
</g>
</g>
<!-- Node11&#45;&gt;Node10 -->
<g id="edge11_Node000011_Node000010" class="edge">
<title>Node11&#45;&gt;Node10</title>
<g id="a_edge11_Node000011_Node000010"><a xlink:title=" ">
<path fill="none" stroke="#63b8ff" d="M1946.23,-101.39C1939.69,-92.27 1931.93,-81.45 1926.66,-74.09"/>
<polygon fill="#63b8ff" stroke="#63b8ff" points="1943.55,-103.66 1952.23,-109.75 1949.24,-99.58 1943.55,-103.66"/>
</a>
</g>
</g>
<!-- Node12&#45;&gt;Node4 -->
<g id="edge15_Node000012_Node000004" class="edge">
<title>Node12&#45;&gt;Node4</title>
<g id="a_edge15_Node000012_Node000004"><a xlink:title=" ">
<path fill="none" stroke="#63b8ff" d="M608.28,-114.2C694.02,-107.24 865.06,-92.4 1009.5,-74 1012.7,-73.59 1016,-73.14 1019.33,-72.67"/>
<polygon fill="#63b8ff" stroke="#63b8ff" points="607.94,-110.72 598.26,-115.01 608.51,-117.7 607.94,-110.72"/>
</a>
</g>
</g>
<!-- Node12&#45;&gt;Node5 -->
<g id="edge14_Node000012_Node000005" class="edge">
<title>Node12&#45;&gt;Node5</title>
<g id="a_edge14_Node000012_Node000005"><a xlink:title=" ">
<path fill="none" stroke="#63b8ff" d="M509.55,-107.56C469.66,-97.64 411.63,-83.2 374.99,-74.08"/>
<polygon fill="#63b8ff" stroke="#63b8ff" points="508.73,-110.97 519.28,-109.98 510.42,-104.17 508.73,-110.97"/>
</a>
</g>
</g>
<!-- Node12&#45;&gt;Node6 -->
<g id="edge16_Node000012_Node000006" class="edge">
<title>Node12&#45;&gt;Node6</title>
<g id="a_edge16_Node000012_Node000006"><a xlink:title=" ">
<path fill="none" stroke="#63b8ff" d="M498.66,-109.93C435.45,-100.04 332.19,-83.9 269.09,-74.03"/>
<polygon fill="#63b8ff" stroke="#63b8ff" points="498.41,-113.43 508.83,-111.52 499.49,-106.51 498.41,-113.43"/>
</a>
</g>
</g>
<!-- Node12&#45;&gt;Node7 -->
<g id="edge18_Node000012_Node000007" class="edge">
<title>Node12&#45;&gt;Node7</title>
<g id="a_edge18_Node000012_Node000007"><a xlink:title=" ">
<path fill="none" stroke="#63b8ff" d="M498.73,-113.45C415.75,-105.67 253.25,-90 115.5,-74 110.87,-73.46 106.05,-72.88 101.22,-72.28"/>
<polygon fill="#63b8ff" stroke="#63b8ff" points="498.4,-116.93 508.69,-114.38 499.05,-109.96 498.4,-116.93"/>
</a>
</g>
</g>
<!-- Node12&#45;&gt;Node8 -->
<g id="edge19_Node000012_Node000008" class="edge">
<title>Node12&#45;&gt;Node8</title>
<g id="a_edge19_Node000012_Node000008"><a xlink:title=" ">
<path fill="none" stroke="#63b8ff" d="M608.26,-114.31C708.91,-106.58 930.11,-89.45 1116.5,-74 1131.73,-72.74 1148.29,-71.32 1163.39,-70.01"/>
<polygon fill="#63b8ff" stroke="#63b8ff" points="607.73,-110.84 598.03,-115.1 608.27,-117.82 607.73,-110.84"/>
</a>
</g>
</g>
<!-- Node12&#45;&gt;Node13 -->
<g id="edge17_Node000012_Node000013" class="edge">
<title>Node12&#45;&gt;Node13</title>
<g id="a_edge17_Node000012_Node000013"><a xlink:title=" ">
<path fill="none" stroke="#63b8ff" d="M529.8,-104.7C513.22,-95.04 491.59,-82.44 477.39,-74.17"/>
<polygon fill="#63b8ff" stroke="#63b8ff" points="528.48,-107.98 538.88,-109.98 532,-101.93 528.48,-107.98"/>
</a>
</g>
</g>
<!-- Node14 -->
<g id="Node000014" class="node">
<title>Node14</title>
<g id="a_Node000014"><a xlink:href="terminal-util_8c.html" target="_top" xlink:title=" ">
<polygon fill="white" stroke="#666666" points="703.5,-74 617.5,-74 617.5,-55 703.5,-55 703.5,-74"/>
<text text-anchor="middle" x="660.5" y="-62" font-family="Helvetica,sans-Serif" font-size="10.00">terminal&#45;util.c</text>
</a>
</g>
</g>
<!-- Node12&#45;&gt;Node14 -->
<g id="edge20_Node000012_Node000014" class="edge">
<title>Node12&#45;&gt;Node14</title>
<g id="a_edge20_Node000012_Node000014"><a xlink:title=" ">
<path fill="none" stroke="#63b8ff" d="M579.74,-105.5C599.43,-95.75 625.82,-82.68 643,-74.17"/>
<polygon fill="#63b8ff" stroke="#63b8ff" points="578.1,-102.41 570.69,-109.98 581.21,-108.68 578.1,-102.41"/>
</a>
</g>
</g>
<!-- Node15 -->
<g id="Node000015" class="node">
<title>Node15</title>
<g id="a_Node000015"><a xlink:href="terminal-window_8c.html" target="_top" xlink:title=" ">
<polygon fill="white" stroke="#666666" points="1294,-19 1187,-19 1187,0 1294,0 1294,-19"/>
<text text-anchor="middle" x="1240.5" y="-7" font-family="Helvetica,sans-Serif" font-size="10.00">terminal&#45;window.c</text>
</a>
</g>
</g>
<!-- Node12&#45;&gt;Node15 -->
<g id="edge21_Node000012_Node000015" class="edge">
<title>Node12&#45;&gt;Node15</title>
<g id="a_edge21_Node000012_Node000015"><a xlink:title=" ">
<path fill="none" stroke="#63b8ff" d="M498.4,-118.11C376.59,-116.31 98.99,-106.57 148.5,-55 184.8,-17.19 972.24,-11.5 1186.88,-10.65"/>
<polygon fill="#63b8ff" stroke="#63b8ff" points="498.59,-121.61 508.64,-118.25 498.69,-114.61 498.59,-121.61"/>
</a>
</g>
</g>
<!-- Node16 -->
<g id="Node000016" class="node">
<title>Node16</title>
<g id="a_Node000016"><a xlink:href="terminal_8c.html" target="_top" xlink:title=" ">
<polygon fill="white" stroke="#666666" points="599.5,-74 533.5,-74 533.5,-55 599.5,-55 599.5,-74"/>
<text text-anchor="middle" x="566.5" y="-62" font-family="Helvetica,sans-Serif" font-size="10.00">terminal.c</text>
</a>
</g>
</g>
<!-- Node12&#45;&gt;Node16 -->
<g id="edge22_Node000012_Node000016" class="edge">
<title>Node12&#45;&gt;Node16</title>
<g id="a_edge22_Node000012_Node000016"><a xlink:title=" ">
<path fill="none" stroke="#63b8ff" d="M558.05,-99.95C560.21,-91.15 562.68,-81.06 564.39,-74.09"/>
<polygon fill="#63b8ff" stroke="#63b8ff" points="554.63,-99.2 555.65,-109.75 561.43,-100.87 554.63,-99.2"/>
</a>
</g>
</g>
<!-- Node17&#45;&gt;Node4 -->
<g id="edge26_Node000017_Node000004" class="edge">
<title>Node17&#45;&gt;Node4</title>
<g id="a_edge26_Node000017_Node000004"><a xlink:title=" ">
<path fill="none" stroke="#63b8ff" d="M1510.24,-109.92C1395.25,-98.49 1196,-78.68 1107.76,-69.9"/>
<polygon fill="#63b8ff" stroke="#63b8ff" points="1510.12,-113.43 1520.42,-110.93 1510.81,-106.46 1510.12,-113.43"/>
</a>
</g>
</g>
<!-- Node17&#45;&gt;Node8 -->
<g id="edge28_Node000017_Node000008" class="edge">
<title>Node17&#45;&gt;Node8</title>
<g id="a_edge28_Node000017_Node000008"><a xlink:title=" ">
<path fill="none" stroke="#63b8ff" d="M1524.28,-108.59C1459.01,-99.62 1360.31,-86.01 1274.5,-74 1271.58,-73.59 1268.59,-73.17 1265.56,-72.75"/>
<polygon fill="#63b8ff" stroke="#63b8ff" points="1524.08,-112.1 1534.46,-109.99 1525.03,-105.16 1524.08,-112.1"/>
</a>
</g>
</g>
<!-- Node17&#45;&gt;Node15 -->
<g id="edge30_Node000017_Node000015" class="edge">
<title>Node17&#45;&gt;Node15</title>
<g id="a_edge30_Node000017_Node000015"><a xlink:title=" ">
<path fill="none" stroke="#63b8ff" d="M1598.7,-99.42C1599.19,-85.15 1597.23,-66.24 1585.5,-55 1544.88,-16.1 1380.75,-10.25 1294.33,-9.95"/>
<polygon fill="#63b8ff" stroke="#63b8ff" points="1595.19,-99.4 1597.91,-109.64 1602.17,-99.93 1595.19,-99.4"/>
</a>
</g>
</g>
<!-- Node18 -->
<g id="Node000018" class="node">
<title>Node18</title>
<g id="a_Node000018"><a xlink:href="terminal-screen-container_8c.html" target="_top" xlink:title=" ">
<polygon fill="white" stroke="#666666" points="1785,-74 1634,-74 1634,-55 1785,-55 1785,-74"/>
<text text-anchor="middle" x="1709.5" y="-62" font-family="Helvetica,sans-Serif" font-size="10.00">terminal&#45;screen&#45;container.c</text>
</a>
</g>
</g>
<!-- Node17&#45;&gt;Node18 -->
<g id="edge27_Node000017_Node000018" class="edge">
<title>Node17&#45;&gt;Node18</title>
<g id="a_edge27_Node000017_Node000018"><a xlink:title=" ">
<path fill="none" stroke="#63b8ff" d="M1623.93,-105.63C1644.75,-95.87 1672.8,-82.71 1691.01,-74.17"/>
<polygon fill="#63b8ff" stroke="#63b8ff" points="1622.22,-102.57 1614.66,-109.98 1625.2,-108.91 1622.22,-102.57"/>
</a>
</g>
</g>
<!-- Node17&#45;&gt;Node19 -->
<g id="edge29_Node000017_Node000019" class="edge">
<title>Node17&#45;&gt;Node19</title>
<g id="a_edge29_Node000017_Node000019"><a xlink:title=" ">
<path fill="none" stroke="#63b8ff" d="M1677.6,-108.45C1724.03,-101.14 1776.37,-89.76 1793.5,-74 1809.15,-59.6 1812.63,-33.09 1813.36,-19.33"/>
<polygon fill="#63b8ff" stroke="#63b8ff" points="1676.85,-105.02 1667.49,-109.99 1677.91,-111.94 1676.85,-105.02"/>
</a>
</g>
</g>
<!-- Node20&#45;&gt;Node15 -->
<g id="edge33_Node000020_Node000015" class="edge">
<title>Node20&#45;&gt;Node15</title>
<g id="a_edge33_Node000020_Node000015"><a xlink:title=" ">
<path fill="none" stroke="#63b8ff" d="M1434.36,-99.59C1432.49,-85.4 1427.69,-66.53 1415.5,-55 1383.04,-24.31 1332.49,-14 1294.05,-10.89"/>
<polygon fill="#63b8ff" stroke="#63b8ff" points="1430.89,-100.1 1435.31,-109.72 1437.86,-99.44 1430.89,-100.1"/>
</a>
</g>
</g>
<!-- Node21 -->
<g id="Node000021" class="node">
<title>Node21</title>
<g id="a_Node000021"><a xlink:href="terminal-tab-label_8c.html" target="_top" xlink:title=" ">
<polygon fill="white" stroke="#666666" points="1577,-74 1464,-74 1464,-55 1577,-55 1577,-74"/>
<text text-anchor="middle" x="1520.5" y="-62" font-family="Helvetica,sans-Serif" font-size="10.00">terminal&#45;tab&#45;label.c</text>
</a>
</g>
</g>
<!-- Node20&#45;&gt;Node21 -->
<g id="edge32_Node000020_Node000021" class="edge">
<title>Node20&#45;&gt;Node21</title>
<g id="a_edge32_Node000020_Node000021"><a xlink:title=" ">
<path fill="none" stroke="#63b8ff" d="M1458.07,-104.42C1473.5,-94.81 1493.45,-82.37 1506.59,-74.17"/>
<polygon fill="#63b8ff" stroke="#63b8ff" points="1455.79,-101.72 1449.16,-109.98 1459.49,-107.66 1455.79,-101.72"/>
</a>
</g>
</g>
<!-- Node22&#45;&gt;Node3 -->
<g id="edge36_Node000022_Node000003" class="edge">
<title>Node22&#45;&gt;Node3</title>
<g id="a_edge36_Node000022_Node000003"><a xlink:title=" ">
<path fill="none" stroke="#63b8ff" d="M827.75,-106.93C858.75,-97.03 902.67,-83.01 930.62,-74.08"/>
<polygon fill="#63b8ff" stroke="#63b8ff" points="826.63,-103.61 818.17,-109.98 828.76,-110.28 826.63,-103.61"/>
</a>
</g>
</g>
<!-- Node22&#45;&gt;Node4 -->
<g id="edge39_Node000022_Node000004" class="edge">
<title>Node22&#45;&gt;Node4</title>
<g id="a_edge39_Node000022_Node000004"><a xlink:title=" ">
<path fill="none" stroke="#63b8ff" d="M844.46,-108.18C895.55,-98.23 971.95,-83.34 1019.7,-74.03"/>
<polygon fill="#63b8ff" stroke="#63b8ff" points="843.75,-104.75 834.6,-110.1 845.08,-111.62 843.75,-104.75"/>
</a>
</g>
</g>
<!-- Node22&#45;&gt;Node5 -->
<g id="edge38_Node000022_Node000005" class="edge">
<title>Node22&#45;&gt;Node5</title>
<g id="a_edge38_Node000022_Node000005"><a xlink:title=" ">
<path fill="none" stroke="#63b8ff" d="M738.17,-112.9C662.86,-104.88 521.05,-89.4 400.5,-74 397.47,-73.61 394.36,-73.21 391.23,-72.79"/>
<polygon fill="#63b8ff" stroke="#63b8ff" points="738.04,-116.4 748.35,-113.98 738.77,-109.44 738.04,-116.4"/>
</a>
</g>
</g>
<!-- Node22&#45;&gt;Node6 -->
<g id="edge40_Node000022_Node000006" class="edge">
<title>Node22&#45;&gt;Node6</title>
<g id="a_edge40_Node000022_Node000006"><a xlink:title=" ">
<path fill="none" stroke="#63b8ff" d="M738.37,-114.6C645.43,-107.61 447.34,-92 280.5,-74 277.63,-73.69 274.69,-73.36 271.72,-73.02"/>
<polygon fill="#63b8ff" stroke="#63b8ff" points="738.14,-118.09 748.37,-115.35 738.66,-111.11 738.14,-118.09"/>
</a>
</g>
</g>
<!-- Node22&#45;&gt;Node8 -->
<g id="edge42_Node000022_Node000008" class="edge">
<title>Node22&#45;&gt;Node8</title>
<g id="a_edge42_Node000022_Node000008"><a xlink:title=" ">
<path fill="none" stroke="#63b8ff" d="M844.89,-111.81C926.9,-101.53 1082.85,-82 1163.44,-71.9"/>
<polygon fill="#63b8ff" stroke="#63b8ff" points="844.27,-108.36 834.78,-113.08 845.14,-115.31 844.27,-108.36"/>
</a>
</g>
</g>
<!-- Node22&#45;&gt;Node10 -->
<g id="edge37_Node000022_Node000010" class="edge">
<title>Node22&#45;&gt;Node10</title>
<g id="a_edge37_Node000022_Node000010"><a xlink:title=" ">
<path fill="none" stroke="#63b8ff" d="M844.85,-114.11C863.69,-112.65 885.03,-111.13 904.5,-110 1299.28,-87.17 1398.63,-95.21 1793.5,-74 1822.41,-72.45 1854.98,-70.26 1879.91,-68.49"/>
<polygon fill="#63b8ff" stroke="#63b8ff" points="844.37,-110.63 834.67,-114.9 844.91,-117.61 844.37,-110.63"/>
</a>
</g>
</g>
<!-- Node22&#45;&gt;Node13 -->
<g id="edge41_Node000022_Node000013" class="edge">
<title>Node22&#45;&gt;Node13</title>
<g id="a_edge41_Node000022_Node000013"><a xlink:title=" ">
<path fill="none" stroke="#63b8ff" d="M738.24,-109.92C676.83,-100.03 576.53,-83.87 515.31,-74.01"/>
<polygon fill="#63b8ff" stroke="#63b8ff" points="738.06,-113.44 748.49,-111.57 739.17,-106.53 738.06,-113.44"/>
</a>
</g>
</g>
<!-- Node22&#45;&gt;Node14 -->
<g id="edge44_Node000022_Node000014" class="edge">
<title>Node22&#45;&gt;Node14</title>
<g id="a_edge44_Node000022_Node000014"><a xlink:title=" ">
<path fill="none" stroke="#63b8ff" d="M761,-106.16C736.75,-96.35 703.43,-82.87 681.93,-74.17"/>
<polygon fill="#63b8ff" stroke="#63b8ff" points="759.87,-109.48 770.45,-109.98 762.5,-102.99 759.87,-109.48"/>
</a>
</g>
</g>
<!-- Node22&#45;&gt;Node15 -->
<g id="edge45_Node000022_Node000015" class="edge">
<title>Node22&#45;&gt;Node15</title>
<g id="a_edge45_Node000022_Node000015"><a xlink:title=" ">
<path fill="none" stroke="#63b8ff" d="M770.71,-103.43C754.51,-89.9 736.86,-69.93 750.5,-55 779.48,-23.27 1065.72,-13.93 1186.83,-11.38"/>
<polygon fill="#63b8ff" stroke="#63b8ff" points="768.86,-106.43 778.88,-109.86 773.18,-100.92 768.86,-106.43"/>
</a>
</g>
</g>
<!-- Node22&#45;&gt;Node16 -->
<g id="edge46_Node000022_Node000016" class="edge">
<title>Node22&#45;&gt;Node16</title>
<g id="a_edge46_Node000022_Node000016"><a xlink:title=" ">
<path fill="none" stroke="#63b8ff" d="M745.61,-107.69C702.24,-97.47 638.23,-82.4 599.63,-73.3"/>
<polygon fill="#63b8ff" stroke="#63b8ff" points="744.81,-111.1 755.35,-109.98 746.42,-104.28 744.81,-111.1"/>
</a>
</g>
</g>
<!-- Node23 -->
<g id="Node000023" class="node">
<title>Node23</title>
<g id="a_Node000023"><a xlink:href="terminal-search-dialog_8c.html" target="_top" xlink:title=" ">
<polygon fill="white" stroke="#666666" points="895.5,-74 759.5,-74 759.5,-55 895.5,-55 895.5,-74"/>
<text text-anchor="middle" x="827.5" y="-62" font-family="Helvetica,sans-Serif" font-size="10.00">terminal&#45;search&#45;dialog.c</text>
</a>
</g>
</g>
<!-- Node22&#45;&gt;Node23 -->
<g id="edge43_Node000022_Node000023" class="edge">
<title>Node22&#45;&gt;Node23</title>
<g id="a_edge43_Node000022_Node000023"><a xlink:title=" ">
<path fill="none" stroke="#63b8ff" d="M803.12,-101.39C809.32,-92.27 816.67,-81.45 821.67,-74.09"/>
<polygon fill="#63b8ff" stroke="#63b8ff" points="800.17,-99.51 797.44,-109.75 805.96,-103.44 800.17,-99.51"/>
</a>
</g>
</g>
<!-- Node24&#45;&gt;Node4 -->
<g id="edge48_Node000024_Node000004" class="edge">
<title>Node24&#45;&gt;Node4</title>
<g id="a_edge48_Node000024_Node000004"><a xlink:title=" ">
<path fill="none" stroke="#63b8ff" d="M1114.19,-103.88C1101.59,-94.34 1085.57,-82.21 1074.95,-74.17"/>
<polygon fill="#63b8ff" stroke="#63b8ff" points="1112.17,-106.74 1122.25,-109.98 1116.39,-101.16 1112.17,-106.74"/>
</a>
</g>
</g>
<!-- Node24&#45;&gt;Node8 -->
<g id="edge49_Node000024_Node000008" class="edge">
<title>Node24&#45;&gt;Node8</title>
<g id="a_edge49_Node000024_Node000008"><a xlink:title=" ">
<path fill="none" stroke="#63b8ff" d="M1155.01,-104.42C1169.71,-94.81 1188.72,-82.37 1201.25,-74.17"/>
<polygon fill="#63b8ff" stroke="#63b8ff" points="1152.97,-101.58 1146.51,-109.98 1156.8,-107.44 1152.97,-101.58"/>
</a>
</g>
</g>
<!-- Node24&#45;&gt;Node14 -->
<g id="edge53_Node000024_Node000014" class="edge">
<title>Node24&#45;&gt;Node14</title>
<g id="a_edge53_Node000024_Node000014"><a xlink:title=" ">
<path fill="none" stroke="#63b8ff" d="M1069.65,-111.35C971.85,-100.39 787.51,-79.73 703.81,-70.35"/>
<polygon fill="#63b8ff" stroke="#63b8ff" points="1069.37,-114.84 1079.7,-112.47 1070.15,-107.88 1069.37,-114.84"/>
</a>
</g>
</g>
<!-- Node24&#45;&gt;Node15 -->
<g id="edge54_Node000024_Node000015" class="edge">
<title>Node24&#45;&gt;Node15</title>
<g id="a_edge54_Node000024_Node000015"><a xlink:title=" ">
<path fill="none" stroke="#63b8ff" d="M1135.91,-99.45C1138.49,-85.76 1143.78,-67.56 1154.5,-55 1169.45,-37.48 1193.03,-25.97 1211.72,-19.05"/>
<polygon fill="#63b8ff" stroke="#63b8ff" points="1132.4,-99.26 1134.31,-109.68 1139.31,-100.34 1132.4,-99.26"/>
</a>
</g>
</g>
<!-- Node25 -->
<g id="Node000025" class="node">
<title>Node25</title>
<g id="a_Node000025"><a xlink:href="terminal-tabs-menu_8h.html" target="_top" xlink:title=" ">
<polygon fill="white" stroke="#666666" points="1407,-74 1284,-74 1284,-55 1407,-55 1407,-74"/>
<text text-anchor="middle" x="1345.5" y="-62" font-family="Helvetica,sans-Serif" font-size="10.00">terminal&#45;tabs&#45;menu.h</text>
</a>
</g>
</g>
<!-- Node24&#45;&gt;Node25 -->
<g id="edge50_Node000024_Node000025" class="edge">
<title>Node24&#45;&gt;Node25</title>
<g id="a_edge50_Node000024_Node000025"><a xlink:title=" ">
<path fill="none" stroke="#63b8ff" d="M1177.5,-107.5C1217.19,-97.58 1274.78,-83.18 1311.17,-74.08"/>
<polygon fill="#63b8ff" stroke="#63b8ff" points="1176.41,-104.16 1167.56,-109.98 1178.11,-110.95 1176.41,-104.16"/>
</a>
</g>
</g>
<!-- Node25&#45;&gt;Node15 -->
<g id="edge52_Node000025_Node000015" class="edge">
<title>Node25&#45;&gt;Node15</title>
<g id="a_edge52_Node000025_Node000015"><a xlink:title=" ">
<path fill="none" stroke="#63b8ff" d="M1319.48,-50.37C1300.2,-40.63 1274.45,-27.64 1257.68,-19.17"/>
<polygon fill="#63b8ff" stroke="#63b8ff" points="1318.13,-53.6 1328.63,-54.98 1321.28,-47.35 1318.13,-53.6"/>
</a>
</g>
</g>
<!-- Node25&#45;&gt;Node19 -->
<g id="edge51_Node000025_Node000019" class="edge">
<title>Node25&#45;&gt;Node19</title>
<g id="a_edge51_Node000025_Node000019"><a xlink:title=" ">
<path fill="none" stroke="#63b8ff" d="M1417.19,-55.38C1508.91,-44.99 1666.17,-27.18 1752.44,-17.41"/>
<polygon fill="#63b8ff" stroke="#63b8ff" points="1416.71,-51.91 1407.16,-56.52 1417.49,-58.87 1416.71,-51.91"/>
</a>
</g>
</g>
</g>
</svg>
