<?xml version="1.0" encoding="UTF-8" standalone="no"?>
<!DOCTYPE svg PUBLIC "-//W3C//DTD SVG 1.1//EN"
 "http://www.w3.org/Graphics/SVG/1.1/DTD/svg11.dtd">
<!-- Generated by graphviz version 2.43.0 (0)
 -->
<!-- Title: terminal&#45;app.c Pages: 1 -->
<!--zoomable 247 -->

<svg id="main" version="1.1" xmlns="http://www.w3.org/2000/svg" xmlns:xlink="http://www.w3.org/1999/xlink" xml:space="preserve" onload="init(evt)">
<style type="text/css"><![CDATA[
.node, .edge {opacity: 0.7;}
.node.selected, .edge.selected {opacity: 1;}
.edge:hover path { stroke: red; }
.edge:hover polygon { stroke: red; fill: red; }
]]></style>

<defs>
  <circle id="rim" cx="0" cy="0" r="7"/>
  <circle id="rim2" cx="0" cy="0" r="3.5"/>
  <g id="zoomPlus">
    <use xlink:href="#rim" fill="#404040"><set attributeName="fill" to="#808080" begin="zoomplus.mouseover" end="zoomplus.mouseout"/></use>
    <path d="M-4,0h8M0,-4v8" fill="none" stroke="white" stroke-width="1.5" pointer-events="none"/>
  </g>
  <g id="zoomMin">
    <use xlink:href="#rim" fill="#404040"><set attributeName="fill" to="#808080" begin="zoomminus.mouseover" end="zoomminus.mouseout"/></use>
    <path d="M-4,0h8" fill="none" stroke="white" stroke-width="1.5" pointer-events="none"/>
  </g>
  <g id="arrowUp" transform="translate(30 24)">
    <use xlink:href="#rim"/>
    <path pointer-events="none" fill="none" stroke="white" stroke-width="1.5" d="M0,-3.0v7 M-2.5,-0.5L0,-3.0L2.5,-0.5"/>
  </g>
  <g id="arrowRight" transform="rotate(90) translate(36 -43)">
    <use xlink:href="#rim"/>
    <path pointer-events="none" fill="none" stroke="white" stroke-width="1.5" d="M0,-3.0v7 M-2.5,-0.5L0,-3.0L2.5,-0.5"/>
  </g>
  <g id="arrowDown" transform="rotate(180) translate(-30 -48)">
    <use xlink:href="#rim"/>
    <path pointer-events="none" fill="none" stroke="white" stroke-width="1.5" d="M0,-3.0v7 M-2.5,-0.5L0,-3.0L2.5,-0.5"/>
  </g>
  <g id="arrowLeft" transform="rotate(270) translate(-36 17)">
    <use xlink:href="#rim"/>
    <path pointer-events="none" fill="none" stroke="white" stroke-width="1.5" d="M0,-3.0v7 M-2.5,-0.5L0,-3.0L2.5,-0.5"/>
  </g>
  <g id="resetDef">
    <use xlink:href="#rim2" fill="#404040"><set attributeName="fill" to="#808080" begin="reset.mouseover" end="reset.mouseout"/></use>
  </g>
</defs>
<script type="application/ecmascript">
var viewWidth = 1445;
var viewHeight = 247;
var sectionId = 'dynsection-0';
</script>
<script type="application/ecmascript" xlink:href="svg.min.js"/>
<svg id="graph" class="graph">
<g id="viewport">
<title>terminal&#45;app.c</title>
<!-- Node1 -->
<g id="Node000001" class="node">
<title>Node1</title>
<g id="a_Node000001"><a xlink:title=" ">
<polygon fill="#999999" stroke="#666666" points="856.5,-239 768.5,-239 768.5,-220 856.5,-220 856.5,-239"/>
<text text-anchor="middle" x="812.5" y="-227" font-family="Helvetica,sans-Serif" font-size="10.00">terminal&#45;app.c</text>
</a>
</g>
</g>
<!-- Node2 -->
<g id="Node000002" class="node">
<title>Node2</title>
<g id="a_Node000002"><a xlink:title=" ">
<polygon fill="#e0e0e0" stroke="#999999" points="55,-184 0,-184 0,-165 55,-165 55,-184"/>
<text text-anchor="middle" x="27.5" y="-172" font-family="Helvetica,sans-Serif" font-size="10.00">config.h</text>
</a>
</g>
</g>
<!-- Node1&#45;&gt;Node2 -->
<g id="edge1_Node000001_Node000002" class="edge">
<title>Node1&#45;&gt;Node2</title>
<g id="a_edge1_Node000001_Node000002"><a xlink:title=" ">
<path fill="none" stroke="#63b8ff" d="M768.33,-228.53C653.62,-228.03 336.86,-223.06 65.36,-184.03"/>
<polygon fill="#63b8ff" stroke="#63b8ff" points="65.72,-180.55 55.32,-182.57 64.71,-187.47 65.72,-180.55"/>
</a>
</g>
</g>
<!-- Node3 -->
<g id="Node000003" class="node">
<title>Node3</title>
<g id="a_Node000003"><a xlink:title=" ">
<polygon fill="#e0e0e0" stroke="#999999" points="124,-184 73,-184 73,-165 124,-165 124,-184"/>
<text text-anchor="middle" x="98.5" y="-172" font-family="Helvetica,sans-Serif" font-size="10.00">errno.h</text>
</a>
</g>
</g>
<!-- Node1&#45;&gt;Node3 -->
<g id="edge2_Node000001_Node000003" class="edge">
<title>Node1&#45;&gt;Node3</title>
<g id="a_edge2_Node000001_Node000003"><a xlink:title=" ">
<path fill="none" stroke="#63b8ff" d="M768.12,-227.77C659.95,-225.51 374.3,-216.67 138.5,-184 137.05,-183.8 135.57,-183.58 134.08,-183.33"/>
<polygon fill="#63b8ff" stroke="#63b8ff" points="134.69,-179.89 124.22,-181.53 133.43,-186.77 134.69,-179.89"/>
</a>
</g>
</g>
<!-- Node4 -->
<g id="Node000004" class="node">
<title>Node4</title>
<g id="a_Node000004"><a xlink:title=" ">
<polygon fill="#e0e0e0" stroke="#999999" points="382.5,-74 338.5,-74 338.5,-55 382.5,-55 382.5,-74"/>
<text text-anchor="middle" x="360.5" y="-62" font-family="Helvetica,sans-Serif" font-size="10.00">glib.h</text>
</a>
</g>
</g>
<!-- Node1&#45;&gt;Node4 -->
<g id="edge3_Node000001_Node000004" class="edge">
<title>Node1&#45;&gt;Node4</title>
<g id="a_edge3_Node000001_Node000004"><a xlink:title=" ">
<path fill="none" stroke="#63b8ff" d="M768.44,-227.4C655.85,-224.21 359.88,-213.2 266.5,-184 219.94,-169.44 195.87,-171.27 171.5,-129 137.67,-70.32 265.98,-64.25 328.33,-64.64"/>
<polygon fill="#63b8ff" stroke="#63b8ff" points="328.4,-68.14 338.44,-64.77 328.49,-61.14 328.4,-68.14"/>
</a>
</g>
</g>
<!-- Node5 -->
<g id="Node000005" class="node">
<title>Node5</title>
<g id="a_Node000005"><a xlink:title=" ">
<polygon fill="#e0e0e0" stroke="#999999" points="1190.5,-184 1138.5,-184 1138.5,-165 1190.5,-165 1190.5,-184"/>
<text text-anchor="middle" x="1164.5" y="-172" font-family="Helvetica,sans-Serif" font-size="10.00">dconf.h</text>
</a>
</g>
</g>
<!-- Node1&#45;&gt;Node5 -->
<g id="edge4_Node000001_Node000005" class="edge">
<title>Node1&#45;&gt;Node5</title>
<g id="a_edge4_Node000001_Node000005"><a xlink:title=" ">
<path fill="none" stroke="#63b8ff" d="M856.57,-223.17C917.13,-215.63 1029.41,-200.86 1124.5,-184 1125.76,-183.78 1127.04,-183.54 1128.33,-183.3"/>
<polygon fill="#63b8ff" stroke="#63b8ff" points="1129.17,-186.7 1138.3,-181.33 1127.81,-179.84 1129.17,-186.7"/>
</a>
</g>
</g>
<!-- Node6 -->
<g id="Node000006" class="node">
<title>Node6</title>
<g id="a_Node000006"><a xlink:href="terminal-intl_8h.html" target="_top" xlink:title=" ">
<polygon fill="white" stroke="#666666" points="1294.5,-184 1208.5,-184 1208.5,-165 1294.5,-165 1294.5,-184"/>
<text text-anchor="middle" x="1251.5" y="-172" font-family="Helvetica,sans-Serif" font-size="10.00">terminal&#45;intl.h</text>
</a>
</g>
</g>
<!-- Node1&#45;&gt;Node6 -->
<g id="edge5_Node000001_Node000006" class="edge">
<title>Node1&#45;&gt;Node6</title>
<g id="a_edge5_Node000001_Node000006"><a xlink:title=" ">
<path fill="none" stroke="#63b8ff" d="M856.7,-224.11C926.83,-216.99 1068.17,-202.03 1198.25,-184.11"/>
<polygon fill="#63b8ff" stroke="#63b8ff" points="1198.97,-187.55 1208.39,-182.71 1198.01,-180.61 1198.97,-187.55"/>
</a>
</g>
</g>
<!-- Node8 -->
<g id="Node000008" class="node">
<title>Node8</title>
<g id="a_Node000008"><a xlink:href="terminal-debug_8h.html" target="_top" xlink:title=" ">
<polygon fill="white" stroke="#666666" points="377,-184 276,-184 276,-165 377,-165 377,-184"/>
<text text-anchor="middle" x="326.5" y="-172" font-family="Helvetica,sans-Serif" font-size="10.00">terminal&#45;debug.h</text>
</a>
</g>
</g>
<!-- Node1&#45;&gt;Node8 -->
<g id="edge7_Node000001_Node000008" class="edge">
<title>Node1&#45;&gt;Node8</title>
<g id="a_edge7_Node000001_Node000008"><a xlink:title=" ">
<path fill="none" stroke="#63b8ff" d="M768.08,-223.66C680.72,-214.13 486.46,-192.94 387.3,-182.13"/>
<polygon fill="#63b8ff" stroke="#63b8ff" points="387.45,-178.63 377.13,-181.02 386.69,-185.59 387.45,-178.63"/>
</a>
</g>
</g>
<!-- Node11 -->
<g id="Node000011" class="node">
<title>Node11</title>
<g id="a_Node000011"><a xlink:href="terminal-app_8h.html" target="_top" xlink:title=" ">
<polygon fill="white" stroke="#666666" points="568,-184 479,-184 479,-165 568,-165 568,-184"/>
<text text-anchor="middle" x="523.5" y="-172" font-family="Helvetica,sans-Serif" font-size="10.00">terminal&#45;app.h</text>
</a>
</g>
</g>
<!-- Node1&#45;&gt;Node11 -->
<g id="edge11_Node000001_Node000011" class="edge">
<title>Node1&#45;&gt;Node11</title>
<g id="a_edge11_Node000001_Node000011"><a xlink:title=" ">
<path fill="none" stroke="#63b8ff" d="M768.29,-220.39C717.24,-211.03 633.21,-195.62 578.11,-185.52"/>
<polygon fill="#63b8ff" stroke="#63b8ff" points="578.65,-182.05 568.18,-183.69 577.38,-188.94 578.65,-182.05"/>
</a>
</g>
</g>
<!-- Node13 -->
<g id="Node000013" class="node">
<title>Node13</title>
<g id="a_Node000013"><a xlink:href="terminal-encoding_8h.html" target="_top" xlink:title=" ">
<polygon fill="white" stroke="#666666" points="668,-129 553,-129 553,-110 668,-110 668,-129"/>
<text text-anchor="middle" x="610.5" y="-117" font-family="Helvetica,sans-Serif" font-size="10.00">terminal&#45;encoding.h</text>
</a>
</g>
</g>
<!-- Node1&#45;&gt;Node13 -->
<g id="edge36_Node000001_Node000013" class="edge">
<title>Node1&#45;&gt;Node13</title>
<g id="a_edge36_Node000001_Node000013"><a xlink:title=" ">
<path fill="none" stroke="#63b8ff" d="M768.19,-226.15C731.85,-222.17 680.83,-211.63 645.5,-184 630.96,-172.63 621.6,-153.45 616.25,-139.14"/>
<polygon fill="#63b8ff" stroke="#63b8ff" points="619.45,-137.7 612.92,-129.36 612.82,-139.95 619.45,-137.7"/>
</a>
</g>
</g>
<!-- Node14 -->
<g id="Node000014" class="node">
<title>Node14</title>
<g id="a_Node000014"><a xlink:href="terminal-screen_8h.html" target="_top" xlink:title=" ">
<polygon fill="white" stroke="#666666" points="789,-129 686,-129 686,-110 789,-110 789,-129"/>
<text text-anchor="middle" x="737.5" y="-117" font-family="Helvetica,sans-Serif" font-size="10.00">terminal&#45;screen.h</text>
</a>
</g>
</g>
<!-- Node1&#45;&gt;Node14 -->
<g id="edge23_Node000001_Node000014" class="edge">
<title>Node1&#45;&gt;Node14</title>
<g id="a_edge23_Node000001_Node000014"><a xlink:title=" ">
<path fill="none" stroke="#63b8ff" d="M768.43,-222.19C726.37,-215.17 667.4,-202.33 653.5,-184 636.77,-161.95 669.2,-143.77 698.5,-132.6"/>
<polygon fill="#63b8ff" stroke="#63b8ff" points="700.03,-135.77 708.24,-129.08 697.65,-129.19 700.03,-135.77"/>
</a>
</g>
</g>
<!-- Node18 -->
<g id="Node000018" class="node">
<title>Node18</title>
<g id="a_Node000018"><a xlink:href="terminal-accels_8h.html" target="_top" xlink:title=" ">
<polygon fill="white" stroke="#666666" points="1154,-74 1053,-74 1053,-55 1154,-55 1154,-74"/>
<text text-anchor="middle" x="1103.5" y="-62" font-family="Helvetica,sans-Serif" font-size="10.00">terminal&#45;accels.h</text>
</a>
</g>
</g>
<!-- Node1&#45;&gt;Node18 -->
<g id="edge21_Node000001_Node000018" class="edge">
<title>Node1&#45;&gt;Node18</title>
<g id="a_edge21_Node000001_Node000018"><a xlink:title=" ">
<path fill="none" stroke="#63b8ff" d="M856.7,-226.08C921.63,-221.68 1038.56,-210.28 1070.5,-184 1100.09,-159.65 1104.41,-111.21 1104.35,-84.42"/>
<polygon fill="#63b8ff" stroke="#63b8ff" points="1107.84,-84.01 1104.1,-74.1 1100.84,-84.18 1107.84,-84.01"/>
</a>
</g>
</g>
<!-- Node19 -->
<g id="Node000019" class="node">
<title>Node19</title>
<g id="a_Node000019"><a xlink:href="terminal-screen-container_8h.html" target="_top" xlink:title=" ">
<polygon fill="white" stroke="#666666" points="814.5,-184 662.5,-184 662.5,-165 814.5,-165 814.5,-184"/>
<text text-anchor="middle" x="738.5" y="-172" font-family="Helvetica,sans-Serif" font-size="10.00">terminal&#45;screen&#45;container.h</text>
</a>
</g>
</g>
<!-- Node1&#45;&gt;Node19 -->
<g id="edge24_Node000001_Node000019" class="edge">
<title>Node1&#45;&gt;Node19</title>
<g id="a_edge24_Node000001_Node000019"><a xlink:title=" ">
<path fill="none" stroke="#63b8ff" d="M800.61,-219.98C789.35,-211.92 772.21,-199.65 758.79,-190.03"/>
<polygon fill="#63b8ff" stroke="#63b8ff" points="760.77,-187.15 750.61,-184.17 756.7,-192.84 760.77,-187.15"/>
</a>
</g>
</g>
<!-- Node20 -->
<g id="Node000020" class="node">
<title>Node20</title>
<g id="a_Node000020"><a xlink:href="terminal-window_8h.html" target="_top" xlink:title=" ">
<polygon fill="white" stroke="#666666" points="940,-184 833,-184 833,-165 940,-165 940,-184"/>
<text text-anchor="middle" x="886.5" y="-172" font-family="Helvetica,sans-Serif" font-size="10.00">terminal&#45;window.h</text>
</a>
</g>
</g>
<!-- Node1&#45;&gt;Node20 -->
<g id="edge27_Node000001_Node000020" class="edge">
<title>Node1&#45;&gt;Node20</title>
<g id="a_edge27_Node000001_Node000020"><a xlink:title=" ">
<path fill="none" stroke="#63b8ff" d="M824.39,-219.98C835.65,-211.92 852.79,-199.65 866.21,-190.03"/>
<polygon fill="#63b8ff" stroke="#63b8ff" points="868.3,-192.84 874.39,-184.17 864.23,-187.15 868.3,-192.84"/>
</a>
</g>
</g>
<!-- Node21 -->
<g id="Node000021" class="node">
<title>Node21</title>
<g id="a_Node000021"><a xlink:href="terminal-util_8h.html" target="_top" xlink:title=" ">
<polygon fill="white" stroke="#666666" points="1044.5,-184 958.5,-184 958.5,-165 1044.5,-165 1044.5,-184"/>
<text text-anchor="middle" x="1001.5" y="-172" font-family="Helvetica,sans-Serif" font-size="10.00">terminal&#45;util.h</text>
</a>
</g>
</g>
<!-- Node1&#45;&gt;Node21 -->
<g id="edge30_Node000001_Node000021" class="edge">
<title>Node1&#45;&gt;Node21</title>
<g id="a_edge30_Node000001_Node000021"><a xlink:title=" ">
<path fill="none" stroke="#63b8ff" d="M842.87,-219.98C874.87,-211.01 925.46,-196.82 960.88,-186.89"/>
<polygon fill="#63b8ff" stroke="#63b8ff" points="962.21,-190.15 970.9,-184.08 960.32,-183.41 962.21,-190.15"/>
</a>
</g>
</g>
<!-- Node22 -->
<g id="Node000022" class="node">
<title>Node22</title>
<g id="a_Node000022"><a xlink:href="profile-editor_8h.html" target="_top" xlink:title=" ">
<polygon fill="white" stroke="#666666" points="1082.5,-129 994.5,-129 994.5,-110 1082.5,-110 1082.5,-129"/>
<text text-anchor="middle" x="1038.5" y="-117" font-family="Helvetica,sans-Serif" font-size="10.00">profile&#45;editor.h</text>
</a>
</g>
</g>
<!-- Node1&#45;&gt;Node22 -->
<g id="edge33_Node000001_Node000022" class="edge">
<title>Node1&#45;&gt;Node22</title>
<g id="a_edge33_Node000001_Node000022"><a xlink:title=" ">
<path fill="none" stroke="#63b8ff" d="M856.61,-226.87C919.2,-223.53 1028.94,-213.51 1053.5,-184 1064.22,-171.12 1057.55,-151.94 1050,-138.02"/>
<polygon fill="#63b8ff" stroke="#63b8ff" points="1052.97,-136.17 1044.84,-129.38 1046.96,-139.76 1052.97,-136.17"/>
</a>
</g>
</g>
<!-- Node23 -->
<g id="Node000023" class="node">
<title>Node23</title>
<g id="a_Node000023"><a xlink:title=" ">
<polygon fill="#e0e0e0" stroke="#999999" points="1366,-184 1313,-184 1313,-165 1366,-165 1366,-184"/>
<text text-anchor="middle" x="1339.5" y="-172" font-family="Helvetica,sans-Serif" font-size="10.00">string.h</text>
</a>
</g>
</g>
<!-- Node1&#45;&gt;Node23 -->
<g id="edge37_Node000001_Node000023" class="edge">
<title>Node1&#45;&gt;Node23</title>
<g id="a_edge37_Node000001_Node000023"><a xlink:title=" ">
<path fill="none" stroke="#63b8ff" d="M856.78,-226.59C941.51,-222.48 1132.57,-211.02 1302.95,-183.84"/>
<polygon fill="#63b8ff" stroke="#63b8ff" points="1303.54,-187.29 1312.85,-182.24 1302.42,-180.38 1303.54,-187.29"/>
</a>
</g>
</g>
<!-- Node24 -->
<g id="Node000024" class="node">
<title>Node24</title>
<g id="a_Node000024"><a xlink:title=" ">
<polygon fill="#e0e0e0" stroke="#999999" points="1437,-184 1384,-184 1384,-165 1437,-165 1437,-184"/>
<text text-anchor="middle" x="1410.5" y="-172" font-family="Helvetica,sans-Serif" font-size="10.00">stdlib.h</text>
</a>
</g>
</g>
<!-- Node1&#45;&gt;Node24 -->
<g id="edge38_Node000001_Node000024" class="edge">
<title>Node1&#45;&gt;Node24</title>
<g id="a_edge38_Node000001_Node000024"><a xlink:title=" ">
<path fill="none" stroke="#63b8ff" d="M856.58,-227.4C950.26,-224.56 1176.14,-214.98 1373.85,-184.03"/>
<polygon fill="#63b8ff" stroke="#63b8ff" points="1374.51,-187.46 1383.84,-182.44 1373.41,-180.55 1374.51,-187.46"/>
</a>
</g>
</g>
<!-- Node7 -->
<g id="Node000007" class="node">
<title>Node7</title>
<g id="a_Node000007"><a xlink:title=" ">
<polygon fill="#e0e0e0" stroke="#999999" points="1288.5,-129 1214.5,-129 1214.5,-110 1288.5,-110 1288.5,-129"/>
<text text-anchor="middle" x="1251.5" y="-117" font-family="Helvetica,sans-Serif" font-size="10.00">glib/gi18n.h</text>
</a>
</g>
</g>
<!-- Node6&#45;&gt;Node7 -->
<g id="edge6_Node000006_Node000007" class="edge">
<title>Node6&#45;&gt;Node7</title>
<g id="a_edge6_Node000006_Node000007"><a xlink:title=" ">
<path fill="none" stroke="#63b8ff" d="M1251.5,-164.75C1251.5,-157.8 1251.5,-147.85 1251.5,-139.13"/>
<polygon fill="#63b8ff" stroke="#63b8ff" points="1255,-139.09 1251.5,-129.09 1248,-139.09 1255,-139.09"/>
</a>
</g>
</g>
<!-- Node8&#45;&gt;Node4 -->
<g id="edge8_Node000008_Node000004" class="edge">
<title>Node8&#45;&gt;Node4</title>
<g id="a_edge8_Node000008_Node000004"><a xlink:title=" ">
<path fill="none" stroke="#63b8ff" d="M329.28,-164.66C334.81,-147.09 347.29,-107.45 354.69,-83.95"/>
<polygon fill="#63b8ff" stroke="#63b8ff" points="358.11,-84.75 357.77,-74.16 351.43,-82.65 358.11,-84.75"/>
</a>
</g>
</g>
<!-- Node9 -->
<g id="Node000009" class="node">
<title>Node9</title>
<g id="a_Node000009"><a xlink:title=" ">
<polygon fill="#e0e0e0" stroke="#999999" points="236.5,-129 180.5,-129 180.5,-110 236.5,-110 236.5,-129"/>
<text text-anchor="middle" x="208.5" y="-117" font-family="Helvetica,sans-Serif" font-size="10.00">stdarg.h</text>
</a>
</g>
</g>
<!-- Node8&#45;&gt;Node9 -->
<g id="edge9_Node000008_Node000009" class="edge">
<title>Node8&#45;&gt;Node9</title>
<g id="a_edge9_Node000008_Node000009"><a xlink:title=" ">
<path fill="none" stroke="#63b8ff" d="M307.54,-164.98C288.47,-156.42 258.84,-143.11 236.95,-133.28"/>
<polygon fill="#63b8ff" stroke="#63b8ff" points="238.36,-130.07 227.8,-129.17 235.49,-136.46 238.36,-130.07"/>
</a>
</g>
</g>
<!-- Node10 -->
<g id="Node000010" class="node">
<title>Node10</title>
<g id="a_Node000010"><a xlink:title=" ">
<polygon fill="#e0e0e0" stroke="#999999" points="332,-129 255,-129 255,-110 332,-110 332,-129"/>
<text text-anchor="middle" x="293.5" y="-117" font-family="Helvetica,sans-Serif" font-size="10.00">glib/gstdio.h</text>
</a>
</g>
</g>
<!-- Node8&#45;&gt;Node10 -->
<g id="edge10_Node000008_Node000010" class="edge">
<title>Node8&#45;&gt;Node10</title>
<g id="a_edge10_Node000008_Node000010"><a xlink:title=" ">
<path fill="none" stroke="#63b8ff" d="M321.05,-164.75C316.49,-157.42 309.83,-146.73 304.21,-137.7"/>
<polygon fill="#63b8ff" stroke="#63b8ff" points="307.1,-135.73 298.85,-129.09 301.16,-139.43 307.1,-135.73"/>
</a>
</g>
</g>
<!-- Node12 -->
<g id="Node000012" class="node">
<title>Node12</title>
<g id="a_Node000012"><a xlink:title=" ">
<polygon fill="#e0e0e0" stroke="#999999" points="918.5,-19 858.5,-19 858.5,0 918.5,0 918.5,-19"/>
<text text-anchor="middle" x="888.5" y="-7" font-family="Helvetica,sans-Serif" font-size="10.00">gtk/gtk.h</text>
</a>
</g>
</g>
<!-- Node11&#45;&gt;Node12 -->
<g id="edge12_Node000011_Node000012" class="edge">
<title>Node11&#45;&gt;Node12</title>
<g id="a_edge12_Node000011_Node000012"><a xlink:title=" ">
<path fill="none" stroke="#63b8ff" d="M524.2,-164.72C525.66,-151.48 530.13,-126.24 543.5,-110 575.98,-70.53 596.3,-72.02 644.5,-55 713.72,-30.55 798.96,-18.93 848.19,-13.89"/>
<polygon fill="#63b8ff" stroke="#63b8ff" points="848.81,-17.35 858.42,-12.89 848.12,-10.38 848.81,-17.35"/>
</a>
</g>
</g>
<!-- Node11&#45;&gt;Node13 -->
<g id="edge13_Node000011_Node000013" class="edge">
<title>Node11&#45;&gt;Node13</title>
<g id="a_edge13_Node000011_Node000013"><a xlink:title=" ">
<path fill="none" stroke="#63b8ff" d="M537.48,-164.98C550.97,-156.77 571.63,-144.18 587.54,-134.49"/>
<polygon fill="#63b8ff" stroke="#63b8ff" points="589.55,-137.36 596.27,-129.17 585.91,-131.38 589.55,-137.36"/>
</a>
</g>
</g>
<!-- Node11&#45;&gt;Node14 -->
<g id="edge15_Node000011_Node000014" class="edge">
<title>Node11&#45;&gt;Node14</title>
<g id="a_edge15_Node000011_Node000014"><a xlink:title=" ">
<path fill="none" stroke="#63b8ff" d="M557.88,-164.98C594.59,-155.89 652.88,-141.46 693.05,-131.51"/>
<polygon fill="#63b8ff" stroke="#63b8ff" points="693.98,-134.88 702.85,-129.08 692.3,-128.09 693.98,-134.88"/>
</a>
</g>
</g>
<!-- Node17 -->
<g id="Node000017" class="node">
<title>Node17</title>
<g id="a_Node000017"><a xlink:href="terminal-options_8h.html" target="_top" xlink:title=" ">
<polygon fill="white" stroke="#666666" points="496,-129 389,-129 389,-110 496,-110 496,-129"/>
<text text-anchor="middle" x="442.5" y="-117" font-family="Helvetica,sans-Serif" font-size="10.00">terminal&#45;options.h</text>
</a>
</g>
</g>
<!-- Node11&#45;&gt;Node17 -->
<g id="edge19_Node000011_Node000017" class="edge">
<title>Node11&#45;&gt;Node17</title>
<g id="a_edge19_Node000011_Node000017"><a xlink:title=" ">
<path fill="none" stroke="#63b8ff" d="M510.49,-164.98C498.04,-156.84 479.04,-144.41 464.29,-134.76"/>
<polygon fill="#63b8ff" stroke="#63b8ff" points="466.04,-131.72 455.75,-129.17 462.2,-137.57 466.04,-131.72"/>
</a>
</g>
</g>
<!-- Node13&#45;&gt;Node12 -->
<g id="edge14_Node000013_Node000012" class="edge">
<title>Node13&#45;&gt;Node12</title>
<g id="a_edge14_Node000013_Node000012"><a xlink:title=" ">
<path fill="none" stroke="#63b8ff" d="M616.36,-109.94C626.36,-96.05 648.11,-68.76 673.5,-55 729.19,-24.81 803.17,-15.07 848.24,-11.94"/>
<polygon fill="#63b8ff" stroke="#63b8ff" points="848.73,-15.42 858.49,-11.31 848.3,-8.43 848.73,-15.42"/>
</a>
</g>
</g>
<!-- Node15 -->
<g id="Node000015" class="node">
<title>Node15</title>
<g id="a_Node000015"><a xlink:title=" ">
<polygon fill="#e0e0e0" stroke="#999999" points="742.5,-74 682.5,-74 682.5,-55 742.5,-55 742.5,-74"/>
<text text-anchor="middle" x="712.5" y="-62" font-family="Helvetica,sans-Serif" font-size="10.00">vte/vte.h</text>
</a>
</g>
</g>
<!-- Node14&#45;&gt;Node15 -->
<g id="edge16_Node000014_Node000015" class="edge">
<title>Node14&#45;&gt;Node15</title>
<g id="a_edge16_Node000014_Node000015"><a xlink:title=" ">
<path fill="none" stroke="#63b8ff" d="M733.37,-109.75C729.99,-102.57 725.08,-92.18 720.88,-83.27"/>
<polygon fill="#63b8ff" stroke="#63b8ff" points="723.98,-81.64 716.55,-74.09 717.65,-84.63 723.98,-81.64"/>
</a>
</g>
</g>
<!-- Node16 -->
<g id="Node000016" class="node">
<title>Node16</title>
<g id="a_Node000016"><a xlink:href="terminal-profile_8h.html" target="_top" xlink:title=" ">
<polygon fill="white" stroke="#666666" points="900,-74 799,-74 799,-55 900,-55 900,-74"/>
<text text-anchor="middle" x="849.5" y="-62" font-family="Helvetica,sans-Serif" font-size="10.00">terminal&#45;profile.h</text>
</a>
</g>
</g>
<!-- Node14&#45;&gt;Node16 -->
<g id="edge17_Node000014_Node000016" class="edge">
<title>Node14&#45;&gt;Node16</title>
<g id="a_edge17_Node000014_Node000016"><a xlink:title=" ">
<path fill="none" stroke="#63b8ff" d="M755.49,-109.98C773.43,-101.5 801.22,-88.35 821.93,-78.54"/>
<polygon fill="#63b8ff" stroke="#63b8ff" points="823.64,-81.61 831.18,-74.17 820.64,-75.28 823.64,-81.61"/>
</a>
</g>
</g>
<!-- Node16&#45;&gt;Node12 -->
<g id="edge18_Node000016_Node000012" class="edge">
<title>Node16&#45;&gt;Node12</title>
<g id="a_edge18_Node000016_Node000012"><a xlink:title=" ">
<path fill="none" stroke="#63b8ff" d="M855.94,-54.75C861.39,-47.34 869.36,-36.5 876.06,-27.41"/>
<polygon fill="#63b8ff" stroke="#63b8ff" points="879.07,-29.22 882.18,-19.09 873.43,-25.07 879.07,-29.22"/>
</a>
</g>
</g>
<!-- Node17&#45;&gt;Node4 -->
<g id="edge20_Node000017_Node000004" class="edge">
<title>Node17&#45;&gt;Node4</title>
<g id="a_edge20_Node000017_Node000004"><a xlink:title=" ">
<path fill="none" stroke="#63b8ff" d="M429.33,-109.98C416.73,-101.84 397.5,-89.41 382.56,-79.76"/>
<polygon fill="#63b8ff" stroke="#63b8ff" points="384.21,-76.66 373.91,-74.17 380.41,-82.54 384.21,-76.66"/>
</a>
</g>
</g>
<!-- Node18&#45;&gt;Node12 -->
<g id="edge22_Node000018_Node000012" class="edge">
<title>Node18&#45;&gt;Node12</title>
<g id="a_edge22_Node000018_Node000012"><a xlink:title=" ">
<path fill="none" stroke="#63b8ff" d="M1068.96,-54.98C1030.66,-45.54 968.96,-30.34 928.57,-20.38"/>
<polygon fill="#63b8ff" stroke="#63b8ff" points="929.33,-16.96 918.79,-17.97 927.66,-23.76 929.33,-16.96"/>
</a>
</g>
</g>
<!-- Node19&#45;&gt;Node12 -->
<g id="edge25_Node000019_Node000012" class="edge">
<title>Node19&#45;&gt;Node12</title>
<g id="a_edge25_Node000019_Node000012"><a xlink:title=" ">
<path fill="none" stroke="#63b8ff" d="M757.77,-164.9C771.62,-157.55 789.26,-145.54 797.5,-129 812.25,-99.39 771.53,-82.78 789.5,-55 802.49,-34.92 826.93,-23.81 848.27,-17.72"/>
<polygon fill="#63b8ff" stroke="#63b8ff" points="849.31,-21.06 858.12,-15.18 847.57,-14.29 849.31,-21.06"/>
</a>
</g>
</g>
<!-- Node19&#45;&gt;Node14 -->
<g id="edge26_Node000019_Node000014" class="edge">
<title>Node19&#45;&gt;Node14</title>
<g id="a_edge26_Node000019_Node000014"><a xlink:title=" ">
<path fill="none" stroke="#63b8ff" d="M738.33,-164.75C738.2,-157.8 738.02,-147.85 737.85,-139.13"/>
<polygon fill="#63b8ff" stroke="#63b8ff" points="741.35,-139.02 737.66,-129.09 734.35,-139.15 741.35,-139.02"/>
</a>
</g>
</g>
<!-- Node20&#45;&gt;Node12 -->
<g id="edge28_Node000020_Node000012" class="edge">
<title>Node20&#45;&gt;Node12</title>
<g id="a_edge28_Node000020_Node000012"><a xlink:title=" ">
<path fill="none" stroke="#63b8ff" d="M890.46,-164.84C898.91,-145.23 917.27,-95.92 908.5,-55 906.53,-45.8 902.5,-36.2 898.57,-28.29"/>
<polygon fill="#63b8ff" stroke="#63b8ff" points="901.59,-26.51 893.82,-19.32 895.41,-29.79 901.59,-26.51"/>
</a>
</g>
</g>
<!-- Node20&#45;&gt;Node14 -->
<g id="edge29_Node000020_Node000014" class="edge">
<title>Node20&#45;&gt;Node14</title>
<g id="a_edge29_Node000020_Node000014"><a xlink:title=" ">
<path fill="none" stroke="#63b8ff" d="M862.56,-164.98C837.94,-156.23 799.38,-142.51 771.58,-132.62"/>
<polygon fill="#63b8ff" stroke="#63b8ff" points="772.47,-129.22 761.88,-129.17 770.12,-135.82 772.47,-129.22"/>
</a>
</g>
</g>
<!-- Node21&#45;&gt;Node12 -->
<g id="edge31_Node000021_Node000012" class="edge">
<title>Node21&#45;&gt;Node12</title>
<g id="a_edge31_Node000021_Node000012"><a xlink:title=" ">
<path fill="none" stroke="#63b8ff" d="M996.38,-164.97C984.42,-145.2 953.48,-94.9 924.5,-55 917.56,-45.45 909.32,-35.19 902.47,-26.92"/>
<polygon fill="#63b8ff" stroke="#63b8ff" points="905.06,-24.57 895.95,-19.15 899.69,-29.06 905.06,-24.57"/>
</a>
</g>
</g>
<!-- Node21&#45;&gt;Node14 -->
<g id="edge32_Node000021_Node000014" class="edge">
<title>Node21&#45;&gt;Node14</title>
<g id="a_edge32_Node000021_Node000014"><a xlink:title=" ">
<path fill="none" stroke="#63b8ff" d="M959.08,-164.98C913.13,-155.76 839.75,-141.03 790.15,-131.07"/>
<polygon fill="#63b8ff" stroke="#63b8ff" points="790.74,-127.62 780.25,-129.08 789.36,-134.48 790.74,-127.62"/>
</a>
</g>
</g>
<!-- Node22&#45;&gt;Node12 -->
<g id="edge35_Node000022_Node000012" class="edge">
<title>Node22&#45;&gt;Node12</title>
<g id="a_edge35_Node000022_Node000012"><a xlink:title=" ">
<path fill="none" stroke="#63b8ff" d="M1032.22,-109.72C1022.41,-96.48 1002.29,-71.24 980.5,-55 962.53,-41.61 939.9,-30.6 921.58,-22.88"/>
<polygon fill="#63b8ff" stroke="#63b8ff" points="922.75,-19.58 912.17,-19.04 920.11,-26.06 922.75,-19.58"/>
</a>
</g>
</g>
<!-- Node22&#45;&gt;Node16 -->
<g id="edge34_Node000022_Node000016" class="edge">
<title>Node22&#45;&gt;Node16</title>
<g id="a_edge34_Node000022_Node000016"><a xlink:title=" ">
<path fill="none" stroke="#63b8ff" d="M1008.13,-109.98C976.13,-101.01 925.54,-86.82 890.12,-76.89"/>
<polygon fill="#63b8ff" stroke="#63b8ff" points="890.68,-73.41 880.1,-74.08 888.79,-80.15 890.68,-73.41"/>
</a>
</g>
</g>
</g>
</svg>

<g id="navigator" transform="translate(0 0)" fill="#404254">
  <rect fill="#f2f5e9" fill-opacity="0.5" stroke="#606060" stroke-width=".5" x="0" y="0" width="60" height="60"/>
  <use id="zoomplus" xlink:href="#zoomPlus" x="17" y="9" onmousedown="handleZoom(evt,'in')"/>
  <use id="zoomminus" xlink:href="#zoomMin" x="42" y="9" onmousedown="handleZoom(evt,'out')"/>
  <use id="reset" xlink:href="#resetDef" x="30" y="36" onmousedown="handleReset()"/>
   <use id="arrowup" xlink:href="#arrowUp" x="0" y="0" onmousedown="handlePan(0,-1)"/>
  <use id="arrowright" xlink:href="#arrowRight" x="0" y="0" onmousedown="handlePan(1,0)"/>
  <use id="arrowdown" xlink:href="#arrowDown" x="0" y="0" onmousedown="handlePan(0,1)"/>
  <use id="arrowleft" xlink:href="#arrowLeft" x="0" y="0" onmousedown="handlePan(-1,0)"/>
</g>
<svg viewBox="0 0 15 15" width="100%" height="30px" preserveAspectRatio="xMaxYMin meet">
 <g id="arrow_out" transform="scale(0.3 0.3)">
  <a xlink:href="terminal-app_8c__incl_org.svg" target="_base">
   <rect id="button" ry="5" rx="5" y="6" x="6" height="38" width="38"
        fill="#f2f5e9" fill-opacity="0.5" stroke="#606060" stroke-width="1.0"/>
   <path id="arrow"
     d="M 11.500037,31.436501 C 11.940474,20.09759 22.043105,11.32322 32.158766,21.979434 L 37.068811,17.246167 C 37.068811,17.246167 37.088388,32 37.088388,32 L 22.160133,31.978069 C 22.160133,31.978069 26.997745,27.140456 26.997745,27.140456 C 18.528582,18.264221 13.291696,25.230495 11.500037,31.436501 z"
     style="fill:#404040;"/>
  </a>
 </g>
</svg>

<style type='text/css'>
<![CDATA[
[data-mouse-over-selected='false'] { opacity: 0.7; }
[data-mouse-over-selected='true']  { opacity: 1.0; }
]]>
</style>
<script type="application/ecmascript"><![CDATA[
document.addEventListener('DOMContentLoaded', (event) => {
  highlightEdges();
  highlightAdjacentNodes();
});
]]></script>
</svg>
