<?xml version="1.0" encoding="UTF-8" standalone="no"?>
<!DOCTYPE svg PUBLIC "-//W3C//DTD SVG 1.1//EN"
 "http://www.w3.org/Graphics/SVG/1.1/DTD/svg11.dtd">
<!-- Generated by graphviz version 2.43.0 (0)
 -->
<!-- Title: terminal&#45;window.c Pages: 1 -->
<!--zoomable 302 -->

<svg id="main" version="1.1" xmlns="http://www.w3.org/2000/svg" xmlns:xlink="http://www.w3.org/1999/xlink" xml:space="preserve" onload="init(evt)">
<style type="text/css"><![CDATA[
.node, .edge {opacity: 0.7;}
.node.selected, .edge.selected {opacity: 1;}
.edge:hover path { stroke: red; }
.edge:hover polygon { stroke: red; fill: red; }
]]></style>

<defs>
  <circle id="rim" cx="0" cy="0" r="7"/>
  <circle id="rim2" cx="0" cy="0" r="3.5"/>
  <g id="zoomPlus">
    <use xlink:href="#rim" fill="#404040"><set attributeName="fill" to="#808080" begin="zoomplus.mouseover" end="zoomplus.mouseout"/></use>
    <path d="M-4,0h8M0,-4v8" fill="none" stroke="white" stroke-width="1.5" pointer-events="none"/>
  </g>
  <g id="zoomMin">
    <use xlink:href="#rim" fill="#404040"><set attributeName="fill" to="#808080" begin="zoomminus.mouseover" end="zoomminus.mouseout"/></use>
    <path d="M-4,0h8" fill="none" stroke="white" stroke-width="1.5" pointer-events="none"/>
  </g>
  <g id="arrowUp" transform="translate(30 24)">
    <use xlink:href="#rim"/>
    <path pointer-events="none" fill="none" stroke="white" stroke-width="1.5" d="M0,-3.0v7 M-2.5,-0.5L0,-3.0L2.5,-0.5"/>
  </g>
  <g id="arrowRight" transform="rotate(90) translate(36 -43)">
    <use xlink:href="#rim"/>
    <path pointer-events="none" fill="none" stroke="white" stroke-width="1.5" d="M0,-3.0v7 M-2.5,-0.5L0,-3.0L2.5,-0.5"/>
  </g>
  <g id="arrowDown" transform="rotate(180) translate(-30 -48)">
    <use xlink:href="#rim"/>
    <path pointer-events="none" fill="none" stroke="white" stroke-width="1.5" d="M0,-3.0v7 M-2.5,-0.5L0,-3.0L2.5,-0.5"/>
  </g>
  <g id="arrowLeft" transform="rotate(270) translate(-36 17)">
    <use xlink:href="#rim"/>
    <path pointer-events="none" fill="none" stroke="white" stroke-width="1.5" d="M0,-3.0v7 M-2.5,-0.5L0,-3.0L2.5,-0.5"/>
  </g>
  <g id="resetDef">
    <use xlink:href="#rim2" fill="#404040"><set attributeName="fill" to="#808080" begin="reset.mouseover" end="reset.mouseout"/></use>
  </g>
</defs>
<script type="application/ecmascript">
var viewWidth = 1504;
var viewHeight = 302;
var sectionId = 'dynsection-0';
</script>
<script type="application/ecmascript" xlink:href="svg.min.js"/>
<svg id="graph" class="graph">
<g id="viewport">
<title>terminal&#45;window.c</title>
<!-- Node1 -->
<g id="Node000001" class="node">
<title>Node1</title>
<g id="a_Node000001"><a xlink:title=" ">
<polygon fill="#999999" stroke="#666666" points="694,-294 587,-294 587,-275 694,-275 694,-294"/>
<text text-anchor="middle" x="640.5" y="-282" font-family="Helvetica,sans-Serif" font-size="10.00">terminal&#45;window.c</text>
</a>
</g>
</g>
<!-- Node2 -->
<g id="Node000002" class="node">
<title>Node2</title>
<g id="a_Node000002"><a xlink:title=" ">
<polygon fill="#e0e0e0" stroke="#999999" points="55,-239 0,-239 0,-220 55,-220 55,-239"/>
<text text-anchor="middle" x="27.5" y="-227" font-family="Helvetica,sans-Serif" font-size="10.00">config.h</text>
</a>
</g>
</g>
<!-- Node1&#45;&gt;Node2 -->
<g id="edge1_Node000001_Node000002" class="edge">
<title>Node1&#45;&gt;Node2</title>
<g id="a_edge1_Node000001_Node000002"><a xlink:title=" ">
<path fill="none" stroke="#63b8ff" d="M586.88,-282.14C486.26,-278.97 262.21,-269.08 65.27,-239.06"/>
<polygon fill="#63b8ff" stroke="#63b8ff" points="65.74,-235.59 55.32,-237.52 64.67,-242.51 65.74,-235.59"/>
</a>
</g>
</g>
<!-- Node3 -->
<g id="Node000003" class="node">
<title>Node3</title>
<g id="a_Node000003"><a xlink:title=" ">
<polygon fill="#e0e0e0" stroke="#999999" points="126,-239 73,-239 73,-220 126,-220 126,-239"/>
<text text-anchor="middle" x="99.5" y="-227" font-family="Helvetica,sans-Serif" font-size="10.00">string.h</text>
</a>
</g>
</g>
<!-- Node1&#45;&gt;Node3 -->
<g id="edge2_Node000001_Node000003" class="edge">
<title>Node1&#45;&gt;Node3</title>
<g id="a_edge2_Node000001_Node000003"><a xlink:title=" ">
<path fill="none" stroke="#63b8ff" d="M586.99,-281.44C496.11,-277.37 305.72,-266.34 136.27,-239.06"/>
<polygon fill="#63b8ff" stroke="#63b8ff" points="136.6,-235.57 126.17,-237.41 135.47,-242.48 136.6,-235.57"/>
</a>
</g>
</g>
<!-- Node4 -->
<g id="Node000004" class="node">
<title>Node4</title>
<g id="a_Node000004"><a xlink:title=" ">
<polygon fill="#e0e0e0" stroke="#999999" points="197,-239 144,-239 144,-220 197,-220 197,-239"/>
<text text-anchor="middle" x="170.5" y="-227" font-family="Helvetica,sans-Serif" font-size="10.00">stdlib.h</text>
</a>
</g>
</g>
<!-- Node1&#45;&gt;Node4 -->
<g id="edge3_Node000001_Node000004" class="edge">
<title>Node1&#45;&gt;Node4</title>
<g id="a_edge3_Node000001_Node000004"><a xlink:title=" ">
<path fill="none" stroke="#63b8ff" d="M586.77,-279.68C505.31,-273.49 345.8,-259.83 211.5,-239 210.21,-238.8 208.89,-238.59 207.57,-238.36"/>
<polygon fill="#63b8ff" stroke="#63b8ff" points="207.81,-234.84 197.34,-236.47 206.53,-241.73 207.81,-234.84"/>
</a>
</g>
</g>
<!-- Node5 -->
<g id="Node000005" class="node">
<title>Node5</title>
<g id="a_Node000005"><a xlink:title=" ">
<polygon fill="#e0e0e0" stroke="#999999" points="952.5,-19 892.5,-19 892.5,0 952.5,0 952.5,-19"/>
<text text-anchor="middle" x="922.5" y="-7" font-family="Helvetica,sans-Serif" font-size="10.00">gtk/gtk.h</text>
</a>
</g>
</g>
<!-- Node1&#45;&gt;Node5 -->
<g id="edge4_Node000001_Node000005" class="edge">
<title>Node1&#45;&gt;Node5</title>
<g id="a_edge4_Node000001_Node000005"><a xlink:title=" ">
<path fill="none" stroke="#63b8ff" d="M586.99,-280.74C484.94,-275.01 270.28,-260.54 244.5,-239 221.89,-220.11 225.5,-204.96 225.5,-175.5 225.5,-175.5 225.5,-175.5 225.5,-118.5 225.5,-88.48 224.51,-73.04 248.5,-55 299.15,-16.93 744.64,-11.42 882.21,-10.63"/>
<polygon fill="#63b8ff" stroke="#63b8ff" points="882.34,-14.13 892.33,-10.58 882.31,-7.13 882.34,-14.13"/>
</a>
</g>
</g>
<!-- Node6 -->
<g id="Node000006" class="node">
<title>Node6</title>
<g id="a_Node000006"><a xlink:title=" ">
<polygon fill="#e0e0e0" stroke="#999999" points="319,-239 254,-239 254,-220 319,-220 319,-239"/>
<text text-anchor="middle" x="286.5" y="-227" font-family="Helvetica,sans-Serif" font-size="10.00">gdk/gdk.h</text>
</a>
</g>
</g>
<!-- Node1&#45;&gt;Node6 -->
<g id="edge5_Node000001_Node000006" class="edge">
<title>Node1&#45;&gt;Node6</title>
<g id="a_edge5_Node000001_Node000006"><a xlink:title=" ">
<path fill="none" stroke="#63b8ff" d="M586.8,-276.8C526.58,-269.08 425.79,-255.51 328.98,-238.99"/>
<polygon fill="#63b8ff" stroke="#63b8ff" points="329.47,-235.52 319.02,-237.28 328.29,-242.42 329.47,-235.52"/>
</a>
</g>
</g>
<!-- Node7 -->
<g id="Node000007" class="node">
<title>Node7</title>
<g id="a_Node000007"><a xlink:title=" ">
<polygon fill="#e0e0e0" stroke="#999999" points="445.5,-239 337.5,-239 337.5,-220 445.5,-220 445.5,-239"/>
<text text-anchor="middle" x="391.5" y="-227" font-family="Helvetica,sans-Serif" font-size="10.00">gdk/gdkkeysyms.h</text>
</a>
</g>
</g>
<!-- Node1&#45;&gt;Node7 -->
<g id="edge6_Node000001_Node000007" class="edge">
<title>Node1&#45;&gt;Node7</title>
<g id="a_edge6_Node000001_Node000007"><a xlink:title=" ">
<path fill="none" stroke="#63b8ff" d="M600.49,-274.98C557.33,-265.8 488.52,-251.15 441.74,-241.19"/>
<polygon fill="#63b8ff" stroke="#63b8ff" points="442.33,-237.74 431.82,-239.08 440.87,-244.59 442.33,-237.74"/>
</a>
</g>
</g>
<!-- Node8 -->
<g id="Node000008" class="node">
<title>Node8</title>
<g id="a_Node000008"><a xlink:href="terminal-accels_8h.html" target="_top" xlink:title=" ">
<polygon fill="white" stroke="#666666" points="359,-74 258,-74 258,-55 359,-55 359,-74"/>
<text text-anchor="middle" x="308.5" y="-62" font-family="Helvetica,sans-Serif" font-size="10.00">terminal&#45;accels.h</text>
</a>
</g>
</g>
<!-- Node1&#45;&gt;Node8 -->
<g id="edge7_Node000001_Node000008" class="edge">
<title>Node1&#45;&gt;Node8</title>
<g id="a_edge7_Node000001_Node000008"><a xlink:title=" ">
<path fill="none" stroke="#63b8ff" d="M601.9,-274.99C570.42,-267.41 525.17,-255.05 487.5,-239 471.93,-232.37 470.31,-226.03 454.5,-220 381.53,-192.17 331.74,-244.62 282.5,-184 258.48,-154.43 281.39,-107.48 296.9,-82.48"/>
<polygon fill="#63b8ff" stroke="#63b8ff" points="299.86,-84.35 302.36,-74.05 293.98,-80.54 299.86,-84.35"/>
</a>
</g>
</g>
<!-- Node9 -->
<g id="Node000009" class="node">
<title>Node9</title>
<g id="a_Node000009"><a xlink:href="terminal-app_8h.html" target="_top" xlink:title=" ">
<polygon fill="white" stroke="#666666" points="629,-239 540,-239 540,-220 629,-220 629,-239"/>
<text text-anchor="middle" x="584.5" y="-227" font-family="Helvetica,sans-Serif" font-size="10.00">terminal&#45;app.h</text>
</a>
</g>
</g>
<!-- Node1&#45;&gt;Node9 -->
<g id="edge9_Node000001_Node000009" class="edge">
<title>Node1&#45;&gt;Node9</title>
<g id="a_edge9_Node000001_Node000009"><a xlink:title=" ">
<path fill="none" stroke="#63b8ff" d="M631.5,-274.98C623.31,-267.23 610.99,-255.58 601.03,-246.14"/>
<polygon fill="#63b8ff" stroke="#63b8ff" points="603.33,-243.5 593.66,-239.17 598.52,-248.59 603.33,-243.5"/>
</a>
</g>
</g>
<!-- Node10 -->
<g id="Node000010" class="node">
<title>Node10</title>
<g id="a_Node000010"><a xlink:href="terminal-encoding_8h.html" target="_top" xlink:title=" ">
<polygon fill="white" stroke="#666666" points="407,-184 292,-184 292,-165 407,-165 407,-184"/>
<text text-anchor="middle" x="349.5" y="-172" font-family="Helvetica,sans-Serif" font-size="10.00">terminal&#45;encoding.h</text>
</a>
</g>
</g>
<!-- Node1&#45;&gt;Node10 -->
<g id="edge23_Node000001_Node000010" class="edge">
<title>Node1&#45;&gt;Node10</title>
<g id="a_edge23_Node000001_Node000010"><a xlink:title=" ">
<path fill="none" stroke="#63b8ff" d="M618.5,-274.84C596.24,-266.02 560.86,-251.84 530.5,-239 511.26,-230.86 507.02,-227.44 487.5,-220 454.61,-207.47 416.48,-195.35 388.64,-186.93"/>
<polygon fill="#63b8ff" stroke="#63b8ff" points="389.47,-183.53 378.88,-184.01 387.45,-190.23 389.47,-183.53"/>
</a>
</g>
</g>
<!-- Node16 -->
<g id="Node000016" class="node">
<title>Node16</title>
<g id="a_Node000016"><a xlink:href="terminal-debug_8h.html" target="_top" xlink:title=" ">
<polygon fill="white" stroke="#666666" points="748,-239 647,-239 647,-220 748,-220 748,-239"/>
<text text-anchor="middle" x="697.5" y="-227" font-family="Helvetica,sans-Serif" font-size="10.00">terminal&#45;debug.h</text>
</a>
</g>
</g>
<!-- Node1&#45;&gt;Node16 -->
<g id="edge19_Node000001_Node000016" class="edge">
<title>Node1&#45;&gt;Node16</title>
<g id="a_edge19_Node000001_Node000016"><a xlink:title=" ">
<path fill="none" stroke="#63b8ff" d="M649.66,-274.98C658,-267.23 670.53,-255.58 680.68,-246.14"/>
<polygon fill="#63b8ff" stroke="#63b8ff" points="683.24,-248.54 688.18,-239.17 678.47,-243.42 683.24,-248.54"/>
</a>
</g>
</g>
<!-- Node19 -->
<g id="Node000019" class="node">
<title>Node19</title>
<g id="a_Node000019"><a xlink:href="terminal-intl_8h.html" target="_top" xlink:title=" ">
<polygon fill="white" stroke="#666666" points="884.5,-239 798.5,-239 798.5,-220 884.5,-220 884.5,-239"/>
<text text-anchor="middle" x="841.5" y="-227" font-family="Helvetica,sans-Serif" font-size="10.00">terminal&#45;intl.h</text>
</a>
</g>
</g>
<!-- Node1&#45;&gt;Node19 -->
<g id="edge24_Node000001_Node000019" class="edge">
<title>Node1&#45;&gt;Node19</title>
<g id="a_edge24_Node000001_Node000019"><a xlink:title=" ">
<path fill="none" stroke="#63b8ff" d="M672.79,-274.98C707.12,-265.93 761.56,-251.58 799.27,-241.64"/>
<polygon fill="#63b8ff" stroke="#63b8ff" points="800.18,-245.02 808.95,-239.08 798.39,-238.25 800.18,-245.02"/>
</a>
</g>
</g>
<!-- Node21 -->
<g id="Node000021" class="node">
<title>Node21</title>
<g id="a_Node000021"><a xlink:href="terminal-screen-container_8h.html" target="_top" xlink:title=" ">
<polygon fill="white" stroke="#666666" points="1079.5,-184 927.5,-184 927.5,-165 1079.5,-165 1079.5,-184"/>
<text text-anchor="middle" x="1003.5" y="-172" font-family="Helvetica,sans-Serif" font-size="10.00">terminal&#45;screen&#45;container.h</text>
</a>
</g>
</g>
<!-- Node1&#45;&gt;Node21 -->
<g id="edge26_Node000001_Node000021" class="edge">
<title>Node1&#45;&gt;Node21</title>
<g id="a_edge26_Node000001_Node000021"><a xlink:title=" ">
<path fill="none" stroke="#63b8ff" d="M694.23,-279.52C746.43,-274.39 827.28,-263.08 893.5,-239 927.23,-226.73 962.53,-204.4 983.77,-189.76"/>
<polygon fill="#63b8ff" stroke="#63b8ff" points="985.8,-192.61 991.97,-184 981.77,-186.88 985.8,-192.61"/>
</a>
</g>
</g>
<!-- Node22 -->
<g id="Node000022" class="node">
<title>Node22</title>
<g id="a_Node000022"><a xlink:href="terminal-search-dialog_8h.html" target="_top" xlink:title=" ">
<polygon fill="white" stroke="#666666" points="1066,-129 929,-129 929,-110 1066,-110 1066,-129"/>
<text text-anchor="middle" x="997.5" y="-117" font-family="Helvetica,sans-Serif" font-size="10.00">terminal&#45;search&#45;dialog.h</text>
</a>
</g>
</g>
<!-- Node1&#45;&gt;Node22 -->
<g id="edge29_Node000001_Node000022" class="edge">
<title>Node1&#45;&gt;Node22</title>
<g id="a_edge29_Node000001_Node000022"><a xlink:title=" ">
<path fill="none" stroke="#63b8ff" d="M694.06,-280.22C802.77,-272.28 1042.91,-247.75 1088.5,-184 1105.18,-160.67 1071.68,-143 1040.72,-132.29"/>
<polygon fill="#63b8ff" stroke="#63b8ff" points="1041.42,-128.84 1030.83,-129.07 1039.25,-135.5 1041.42,-128.84"/>
</a>
</g>
</g>
<!-- Node23 -->
<g id="Node000023" class="node">
<title>Node23</title>
<g id="a_Node000023"><a xlink:href="terminal-tab-label_8h.html" target="_top" xlink:title=" ">
<polygon fill="white" stroke="#666666" points="1249.5,-184 1135.5,-184 1135.5,-165 1249.5,-165 1249.5,-184"/>
<text text-anchor="middle" x="1192.5" y="-172" font-family="Helvetica,sans-Serif" font-size="10.00">terminal&#45;tab&#45;label.h</text>
</a>
</g>
</g>
<!-- Node1&#45;&gt;Node23 -->
<g id="edge32_Node000001_Node000023" class="edge">
<title>Node1&#45;&gt;Node23</title>
<g id="a_edge32_Node000001_Node000023"><a xlink:title=" ">
<path fill="none" stroke="#63b8ff" d="M694.29,-282.63C802.83,-280.2 1044.15,-271.24 1119.5,-239 1143.74,-228.63 1165.69,-207.11 1179.05,-192.01"/>
<polygon fill="#63b8ff" stroke="#63b8ff" points="1181.73,-194.27 1185.55,-184.39 1176.4,-189.73 1181.73,-194.27"/>
</a>
</g>
</g>
<!-- Node24 -->
<g id="Node000024" class="node">
<title>Node24</title>
<g id="a_Node000024"><a xlink:href="terminal-tabs-menu_8h.html" target="_top" xlink:title=" ">
<polygon fill="white" stroke="#666666" points="1295,-239 1172,-239 1172,-220 1295,-220 1295,-239"/>
<text text-anchor="middle" x="1233.5" y="-227" font-family="Helvetica,sans-Serif" font-size="10.00">terminal&#45;tabs&#45;menu.h</text>
</a>
</g>
</g>
<!-- Node1&#45;&gt;Node24 -->
<g id="edge35_Node000001_Node000024" class="edge">
<title>Node1&#45;&gt;Node24</title>
<g id="a_edge35_Node000001_Node000024"><a xlink:title=" ">
<path fill="none" stroke="#63b8ff" d="M694.13,-279.34C788.08,-271.94 988.51,-255.72 1157.5,-239 1158.8,-238.87 1160.11,-238.74 1161.44,-238.61"/>
<polygon fill="#63b8ff" stroke="#63b8ff" points="1162.13,-242.05 1171.71,-237.54 1161.41,-235.09 1162.13,-242.05"/>
</a>
</g>
</g>
<!-- Node25 -->
<g id="Node000025" class="node">
<title>Node25</title>
<g id="a_Node000025"><a xlink:href="terminal-window_8h.html" target="_top" xlink:title=" ">
<polygon fill="white" stroke="#666666" points="1375,-184 1268,-184 1268,-165 1375,-165 1375,-184"/>
<text text-anchor="middle" x="1321.5" y="-172" font-family="Helvetica,sans-Serif" font-size="10.00">terminal&#45;window.h</text>
</a>
</g>
</g>
<!-- Node1&#45;&gt;Node25 -->
<g id="edge42_Node000001_Node000025" class="edge">
<title>Node1&#45;&gt;Node25</title>
<g id="a_edge42_Node000001_Node000025"><a xlink:title=" ">
<path fill="none" stroke="#63b8ff" d="M694.17,-283.43C843.82,-282.75 1257.81,-277.38 1304.5,-239 1317.44,-228.36 1321.13,-209.05 1321.92,-194.51"/>
<polygon fill="#63b8ff" stroke="#63b8ff" points="1325.43,-194.17 1322.06,-184.12 1318.43,-194.08 1325.43,-194.17"/>
</a>
</g>
</g>
<!-- Node26 -->
<g id="Node000026" class="node">
<title>Node26</title>
<g id="a_Node000026"><a xlink:href="terminal-util_8h.html" target="_top" xlink:title=" ">
<polygon fill="white" stroke="#666666" points="1479.5,-184 1393.5,-184 1393.5,-165 1479.5,-165 1479.5,-184"/>
<text text-anchor="middle" x="1436.5" y="-172" font-family="Helvetica,sans-Serif" font-size="10.00">terminal&#45;util.h</text>
</a>
</g>
</g>
<!-- Node1&#45;&gt;Node26 -->
<g id="edge39_Node000001_Node000026" class="edge">
<title>Node1&#45;&gt;Node26</title>
<g id="a_edge39_Node000001_Node000026"><a xlink:title=" ">
<path fill="none" stroke="#63b8ff" d="M694.13,-283.1C833.92,-281.56 1206.77,-274.18 1324.5,-239 1359.73,-228.47 1395.93,-205.26 1417.31,-190"/>
<polygon fill="#63b8ff" stroke="#63b8ff" points="1419.5,-192.74 1425.51,-184.01 1415.37,-187.08 1419.5,-192.74"/>
</a>
</g>
</g>
<!-- Node27 -->
<g id="Node000027" class="node">
<title>Node27</title>
<g id="a_Node000027"><a xlink:title=" ">
<polygon fill="#e0e0e0" stroke="#999999" points="1495.5,-239 1389.5,-239 1389.5,-220 1495.5,-220 1495.5,-239"/>
<text text-anchor="middle" x="1442.5" y="-227" font-family="Helvetica,sans-Serif" font-size="10.00">terminal&#45;version.h</text>
</a>
</g>
</g>
<!-- Node1&#45;&gt;Node27 -->
<g id="edge43_Node000001_Node000027" class="edge">
<title>Node1&#45;&gt;Node27</title>
<g id="a_edge43_Node000001_Node000027"><a xlink:title=" ">
<path fill="none" stroke="#63b8ff" d="M694.08,-281.46C815.52,-276.59 1120.94,-262.83 1375.5,-239 1376.61,-238.9 1377.73,-238.79 1378.85,-238.68"/>
<polygon fill="#63b8ff" stroke="#63b8ff" points="1379.56,-242.12 1389.14,-237.59 1378.83,-235.16 1379.56,-242.12"/>
</a>
</g>
</g>
<!-- Node8&#45;&gt;Node5 -->
<g id="edge8_Node000008_Node000005" class="edge">
<title>Node8&#45;&gt;Node5</title>
<g id="a_edge8_Node000008_Node000005"><a xlink:title=" ">
<path fill="none" stroke="#63b8ff" d="M359.34,-56.9C365.13,-56.22 370.94,-55.57 376.5,-55 565.33,-35.51 791.62,-19.36 882.16,-13.19"/>
<polygon fill="#63b8ff" stroke="#63b8ff" points="882.53,-16.67 892.27,-12.51 882.06,-9.69 882.53,-16.67"/>
</a>
</g>
</g>
<!-- Node9&#45;&gt;Node5 -->
<g id="edge10_Node000009_Node000005" class="edge">
<title>Node9&#45;&gt;Node5</title>
<g id="a_edge10_Node000009_Node000005"><a xlink:title=" ">
<path fill="none" stroke="#63b8ff" d="M543.79,-219.97C509.76,-211.93 465.15,-198.9 454.5,-184 449.59,-177.13 450.33,-172.35 454.5,-165 498.22,-87.93 777.5,-34.44 882.59,-16.82"/>
<polygon fill="#63b8ff" stroke="#63b8ff" points="883.2,-20.27 892.49,-15.18 882.05,-13.36 883.2,-20.27"/>
</a>
</g>
</g>
<!-- Node9&#45;&gt;Node10 -->
<g id="edge11_Node000009_Node000010" class="edge">
<title>Node9&#45;&gt;Node10</title>
<g id="a_edge11_Node000009_Node000010"><a xlink:title=" ">
<path fill="none" stroke="#63b8ff" d="M546.74,-219.98C506.18,-210.84 441.61,-196.27 397.47,-186.32"/>
<polygon fill="#63b8ff" stroke="#63b8ff" points="398.08,-182.87 387.55,-184.08 396.54,-189.7 398.08,-182.87"/>
</a>
</g>
</g>
<!-- Node11 -->
<g id="Node000011" class="node">
<title>Node11</title>
<g id="a_Node000011"><a xlink:href="terminal-screen_8h.html" target="_top" xlink:title=" ">
<polygon fill="white" stroke="#666666" points="1187,-129 1084,-129 1084,-110 1187,-110 1187,-129"/>
<text text-anchor="middle" x="1135.5" y="-117" font-family="Helvetica,sans-Serif" font-size="10.00">terminal&#45;screen.h</text>
</a>
</g>
</g>
<!-- Node9&#45;&gt;Node11 -->
<g id="edge13_Node000009_Node000011" class="edge">
<title>Node9&#45;&gt;Node11</title>
<g id="a_edge13_Node000009_Node000011"><a xlink:title=" ">
<path fill="none" stroke="#63b8ff" d="M591.31,-219.59C602.9,-205.19 628,-177.19 656.5,-165 739.65,-129.43 967.32,-138.88 1073.61,-129.05"/>
<polygon fill="#63b8ff" stroke="#63b8ff" points="1074.22,-132.51 1083.81,-128.01 1073.51,-125.55 1074.22,-132.51"/>
</a>
</g>
</g>
<!-- Node14 -->
<g id="Node000014" class="node">
<title>Node14</title>
<g id="a_Node000014"><a xlink:href="terminal-options_8h.html" target="_top" xlink:title=" ">
<polygon fill="white" stroke="#666666" points="571,-184 464,-184 464,-165 571,-165 571,-184"/>
<text text-anchor="middle" x="517.5" y="-172" font-family="Helvetica,sans-Serif" font-size="10.00">terminal&#45;options.h</text>
</a>
</g>
</g>
<!-- Node9&#45;&gt;Node14 -->
<g id="edge17_Node000009_Node000014" class="edge">
<title>Node9&#45;&gt;Node14</title>
<g id="a_edge17_Node000009_Node000014"><a xlink:title=" ">
<path fill="none" stroke="#63b8ff" d="M573.74,-219.98C563.73,-212.07 548.61,-200.11 536.57,-190.58"/>
<polygon fill="#63b8ff" stroke="#63b8ff" points="538.47,-187.63 528.46,-184.17 534.13,-193.12 538.47,-187.63"/>
</a>
</g>
</g>
<!-- Node10&#45;&gt;Node5 -->
<g id="edge12_Node000010_Node000005" class="edge">
<title>Node10&#45;&gt;Node5</title>
<g id="a_edge12_Node000010_Node000005"><a xlink:title=" ">
<path fill="none" stroke="#63b8ff" d="M351.85,-164.7C358.43,-141.97 379.4,-81.2 421.5,-55 460.24,-30.89 769.67,-16.49 881.97,-12.01"/>
<polygon fill="#63b8ff" stroke="#63b8ff" points="882.35,-15.5 892.21,-11.61 882.08,-8.5 882.35,-15.5"/>
</a>
</g>
</g>
<!-- Node12 -->
<g id="Node000012" class="node">
<title>Node12</title>
<g id="a_Node000012"><a xlink:title=" ">
<polygon fill="#e0e0e0" stroke="#999999" points="1042.5,-74 982.5,-74 982.5,-55 1042.5,-55 1042.5,-74"/>
<text text-anchor="middle" x="1012.5" y="-62" font-family="Helvetica,sans-Serif" font-size="10.00">vte/vte.h</text>
</a>
</g>
</g>
<!-- Node11&#45;&gt;Node12 -->
<g id="edge14_Node000011_Node000012" class="edge">
<title>Node11&#45;&gt;Node12</title>
<g id="a_edge14_Node000011_Node000012"><a xlink:title=" ">
<path fill="none" stroke="#63b8ff" d="M1115.74,-109.98C1095.77,-101.38 1064.7,-87.99 1041.85,-78.15"/>
<polygon fill="#63b8ff" stroke="#63b8ff" points="1043.19,-74.91 1032.62,-74.17 1040.42,-81.34 1043.19,-74.91"/>
</a>
</g>
</g>
<!-- Node13 -->
<g id="Node000013" class="node">
<title>Node13</title>
<g id="a_Node000013"><a xlink:href="terminal-profile_8h.html" target="_top" xlink:title=" ">
<polygon fill="white" stroke="#666666" points="1167,-74 1066,-74 1066,-55 1167,-55 1167,-74"/>
<text text-anchor="middle" x="1116.5" y="-62" font-family="Helvetica,sans-Serif" font-size="10.00">terminal&#45;profile.h</text>
</a>
</g>
</g>
<!-- Node11&#45;&gt;Node13 -->
<g id="edge15_Node000011_Node000013" class="edge">
<title>Node11&#45;&gt;Node13</title>
<g id="a_edge15_Node000011_Node000013"><a xlink:title=" ">
<path fill="none" stroke="#63b8ff" d="M1132.36,-109.75C1129.82,-102.65 1126.14,-92.4 1122.97,-83.56"/>
<polygon fill="#63b8ff" stroke="#63b8ff" points="1126.25,-82.32 1119.58,-74.09 1119.66,-84.68 1126.25,-82.32"/>
</a>
</g>
</g>
<!-- Node13&#45;&gt;Node5 -->
<g id="edge16_Node000013_Node000005" class="edge">
<title>Node13&#45;&gt;Node5</title>
<g id="a_edge16_Node000013_Node000005"><a xlink:title=" ">
<path fill="none" stroke="#63b8ff" d="M1085.33,-54.98C1051.95,-45.86 998.86,-31.36 962.44,-21.41"/>
<polygon fill="#63b8ff" stroke="#63b8ff" points="963.2,-17.99 952.63,-18.73 961.36,-24.74 963.2,-17.99"/>
</a>
</g>
</g>
<!-- Node15 -->
<g id="Node000015" class="node">
<title>Node15</title>
<g id="a_Node000015"><a xlink:title=" ">
<polygon fill="#e0e0e0" stroke="#999999" points="599.5,-129 555.5,-129 555.5,-110 599.5,-110 599.5,-129"/>
<text text-anchor="middle" x="577.5" y="-117" font-family="Helvetica,sans-Serif" font-size="10.00">glib.h</text>
</a>
</g>
</g>
<!-- Node14&#45;&gt;Node15 -->
<g id="edge18_Node000014_Node000015" class="edge">
<title>Node14&#45;&gt;Node15</title>
<g id="a_edge18_Node000014_Node000015"><a xlink:title=" ">
<path fill="none" stroke="#63b8ff" d="M527.14,-164.98C536.01,-157.15 549.37,-145.34 560.11,-135.86"/>
<polygon fill="#63b8ff" stroke="#63b8ff" points="562.51,-138.41 567.68,-129.17 557.87,-133.17 562.51,-138.41"/>
</a>
</g>
</g>
<!-- Node16&#45;&gt;Node15 -->
<g id="edge20_Node000016_Node000015" class="edge">
<title>Node16&#45;&gt;Node15</title>
<g id="a_edge20_Node000016_Node000015"><a xlink:title=" ">
<path fill="none" stroke="#63b8ff" d="M687.68,-219.66C667.27,-201.3 620.07,-158.81 594.57,-135.87"/>
<polygon fill="#63b8ff" stroke="#63b8ff" points="596.89,-133.25 587.12,-129.16 592.21,-138.45 596.89,-133.25"/>
</a>
</g>
</g>
<!-- Node17 -->
<g id="Node000017" class="node">
<title>Node17</title>
<g id="a_Node000017"><a xlink:title=" ">
<polygon fill="#e0e0e0" stroke="#999999" points="721.5,-184 665.5,-184 665.5,-165 721.5,-165 721.5,-184"/>
<text text-anchor="middle" x="693.5" y="-172" font-family="Helvetica,sans-Serif" font-size="10.00">stdarg.h</text>
</a>
</g>
</g>
<!-- Node16&#45;&gt;Node17 -->
<g id="edge21_Node000016_Node000017" class="edge">
<title>Node16&#45;&gt;Node17</title>
<g id="a_edge21_Node000016_Node000017"><a xlink:title=" ">
<path fill="none" stroke="#63b8ff" d="M696.84,-219.75C696.32,-212.8 695.56,-202.85 694.91,-194.13"/>
<polygon fill="#63b8ff" stroke="#63b8ff" points="698.39,-193.8 694.15,-184.09 691.41,-194.32 698.39,-193.8"/>
</a>
</g>
</g>
<!-- Node18 -->
<g id="Node000018" class="node">
<title>Node18</title>
<g id="a_Node000018"><a xlink:title=" ">
<polygon fill="#e0e0e0" stroke="#999999" points="817,-184 740,-184 740,-165 817,-165 817,-184"/>
<text text-anchor="middle" x="778.5" y="-172" font-family="Helvetica,sans-Serif" font-size="10.00">glib/gstdio.h</text>
</a>
</g>
</g>
<!-- Node16&#45;&gt;Node18 -->
<g id="edge22_Node000016_Node000018" class="edge">
<title>Node16&#45;&gt;Node18</title>
<g id="a_edge22_Node000016_Node000018"><a xlink:title=" ">
<path fill="none" stroke="#63b8ff" d="M710.51,-219.98C722.96,-211.84 741.96,-199.41 756.71,-189.76"/>
<polygon fill="#63b8ff" stroke="#63b8ff" points="758.8,-192.57 765.25,-184.17 754.96,-186.72 758.8,-192.57"/>
</a>
</g>
</g>
<!-- Node20 -->
<g id="Node000020" class="node">
<title>Node20</title>
<g id="a_Node000020"><a xlink:title=" ">
<polygon fill="#e0e0e0" stroke="#999999" points="909.5,-184 835.5,-184 835.5,-165 909.5,-165 909.5,-184"/>
<text text-anchor="middle" x="872.5" y="-172" font-family="Helvetica,sans-Serif" font-size="10.00">glib/gi18n.h</text>
</a>
</g>
</g>
<!-- Node19&#45;&gt;Node20 -->
<g id="edge25_Node000019_Node000020" class="edge">
<title>Node19&#45;&gt;Node20</title>
<g id="a_edge25_Node000019_Node000020"><a xlink:title=" ">
<path fill="none" stroke="#63b8ff" d="M846.62,-219.75C850.86,-212.49 857.03,-201.95 862.28,-192.98"/>
<polygon fill="#63b8ff" stroke="#63b8ff" points="865.45,-194.49 867.48,-184.09 859.41,-190.95 865.45,-194.49"/>
</a>
</g>
</g>
<!-- Node21&#45;&gt;Node5 -->
<g id="edge27_Node000021_Node000005" class="edge">
<title>Node21&#45;&gt;Node5</title>
<g id="a_edge27_Node000021_Node000005"><a xlink:title=" ">
<path fill="none" stroke="#63b8ff" d="M970.48,-164.87C952.32,-158.26 931.33,-147.1 920.5,-129 901.9,-97.92 909.83,-53.55 916.59,-28.86"/>
<polygon fill="#63b8ff" stroke="#63b8ff" points="920.02,-29.61 919.52,-19.03 913.31,-27.61 920.02,-29.61"/>
</a>
</g>
</g>
<!-- Node21&#45;&gt;Node11 -->
<g id="edge28_Node000021_Node000011" class="edge">
<title>Node21&#45;&gt;Node11</title>
<g id="a_edge28_Node000021_Node000011"><a xlink:title=" ">
<path fill="none" stroke="#63b8ff" d="M1024.71,-164.98C1046.23,-156.34 1079.78,-142.87 1104.33,-133.02"/>
<polygon fill="#63b8ff" stroke="#63b8ff" points="1105.93,-136.14 1113.91,-129.17 1103.32,-129.65 1105.93,-136.14"/>
</a>
</g>
</g>
<!-- Node22&#45;&gt;Node5 -->
<g id="edge30_Node000022_Node000005" class="edge">
<title>Node22&#45;&gt;Node5</title>
<g id="a_edge30_Node000022_Node000005"><a xlink:title=" ">
<path fill="none" stroke="#63b8ff" d="M991.36,-109.66C978.88,-91.69 950.38,-50.64 934.22,-27.38"/>
<polygon fill="#63b8ff" stroke="#63b8ff" points="937.09,-25.38 928.51,-19.16 931.34,-29.37 937.09,-25.38"/>
</a>
</g>
</g>
<!-- Node22&#45;&gt;Node12 -->
<g id="edge31_Node000022_Node000012" class="edge">
<title>Node22&#45;&gt;Node12</title>
<g id="a_edge31_Node000022_Node000012"><a xlink:title=" ">
<path fill="none" stroke="#63b8ff" d="M999.98,-109.75C1001.96,-102.72 1004.82,-92.62 1007.31,-83.84"/>
<polygon fill="#63b8ff" stroke="#63b8ff" points="1010.71,-84.66 1010.07,-74.09 1003.98,-82.76 1010.71,-84.66"/>
</a>
</g>
</g>
<!-- Node23&#45;&gt;Node5 -->
<g id="edge33_Node000023_Node000005" class="edge">
<title>Node23&#45;&gt;Node5</title>
<g id="a_edge33_Node000023_Node000005"><a xlink:title=" ">
<path fill="none" stroke="#63b8ff" d="M1194.66,-164.85C1199.66,-142.46 1209.27,-82.48 1176.5,-55 1144.73,-28.37 1026.01,-16.98 962.76,-12.72"/>
<polygon fill="#63b8ff" stroke="#63b8ff" points="962.94,-9.22 952.73,-12.07 962.49,-16.21 962.94,-9.22"/>
</a>
</g>
</g>
<!-- Node23&#45;&gt;Node11 -->
<g id="edge34_Node000023_Node000011" class="edge">
<title>Node23&#45;&gt;Node11</title>
<g id="a_edge34_Node000023_Node000011"><a xlink:title=" ">
<path fill="none" stroke="#63b8ff" d="M1183.34,-164.98C1175,-157.23 1162.47,-145.58 1152.32,-136.14"/>
<polygon fill="#63b8ff" stroke="#63b8ff" points="1154.53,-133.42 1144.82,-129.17 1149.76,-138.54 1154.53,-133.42"/>
</a>
</g>
</g>
<!-- Node24&#45;&gt;Node25 -->
<g id="edge36_Node000024_Node000025" class="edge">
<title>Node24&#45;&gt;Node25</title>
<g id="a_edge36_Node000024_Node000025"><a xlink:title=" ">
<path fill="none" stroke="#63b8ff" d="M1247.64,-219.98C1261.29,-211.77 1282.19,-199.18 1298.28,-189.49"/>
<polygon fill="#63b8ff" stroke="#63b8ff" points="1300.34,-192.33 1307.1,-184.17 1296.73,-186.33 1300.34,-192.33"/>
</a>
</g>
</g>
<!-- Node25&#45;&gt;Node5 -->
<g id="edge37_Node000025_Node000005" class="edge">
<title>Node25&#45;&gt;Node5</title>
<g id="a_edge37_Node000025_Node000005"><a xlink:title=" ">
<path fill="none" stroke="#63b8ff" d="M1315.37,-164.83C1299,-142.41 1251.7,-82.34 1196.5,-55 1120.02,-17.12 1018.24,-10.35 962.76,-9.78"/>
<polygon fill="#63b8ff" stroke="#63b8ff" points="962.64,-6.28 952.62,-9.74 962.61,-13.28 962.64,-6.28"/>
</a>
</g>
</g>
<!-- Node25&#45;&gt;Node11 -->
<g id="edge38_Node000025_Node000011" class="edge">
<title>Node25&#45;&gt;Node11</title>
<g id="a_edge38_Node000025_Node000011"><a xlink:title=" ">
<path fill="none" stroke="#63b8ff" d="M1291.62,-164.98C1260.12,-156.01 1210.33,-141.82 1175.47,-131.89"/>
<polygon fill="#63b8ff" stroke="#63b8ff" points="1176.19,-128.46 1165.62,-129.08 1174.28,-135.19 1176.19,-128.46"/>
</a>
</g>
</g>
<!-- Node26&#45;&gt;Node5 -->
<g id="edge40_Node000026_Node000005" class="edge">
<title>Node26&#45;&gt;Node5</title>
<g id="a_edge40_Node000026_Node000005"><a xlink:title=" ">
<path fill="none" stroke="#63b8ff" d="M1424.81,-164.91C1393.9,-142.66 1306.73,-82.98 1224.5,-55 1134.34,-24.32 1021.94,-14.78 962.95,-11.83"/>
<polygon fill="#63b8ff" stroke="#63b8ff" points="963.07,-8.33 952.92,-11.36 962.75,-15.32 963.07,-8.33"/>
</a>
</g>
</g>
<!-- Node26&#45;&gt;Node11 -->
<g id="edge41_Node000026_Node000011" class="edge">
<title>Node26&#45;&gt;Node11</title>
<g id="a_edge41_Node000026_Node000011"><a xlink:title=" ">
<path fill="none" stroke="#63b8ff" d="M1393.37,-165.91C1341.01,-156.69 1252.44,-141.09 1193.97,-130.8"/>
<polygon fill="#63b8ff" stroke="#63b8ff" points="1194.23,-127.29 1183.78,-129 1193.02,-134.18 1194.23,-127.29"/>
</a>
</g>
</g>
</g>
</svg>

<g id="navigator" transform="translate(0 0)" fill="#404254">
  <rect fill="#f2f5e9" fill-opacity="0.5" stroke="#606060" stroke-width=".5" x="0" y="0" width="60" height="60"/>
  <use id="zoomplus" xlink:href="#zoomPlus" x="17" y="9" onmousedown="handleZoom(evt,'in')"/>
  <use id="zoomminus" xlink:href="#zoomMin" x="42" y="9" onmousedown="handleZoom(evt,'out')"/>
  <use id="reset" xlink:href="#resetDef" x="30" y="36" onmousedown="handleReset()"/>
   <use id="arrowup" xlink:href="#arrowUp" x="0" y="0" onmousedown="handlePan(0,-1)"/>
  <use id="arrowright" xlink:href="#arrowRight" x="0" y="0" onmousedown="handlePan(1,0)"/>
  <use id="arrowdown" xlink:href="#arrowDown" x="0" y="0" onmousedown="handlePan(0,1)"/>
  <use id="arrowleft" xlink:href="#arrowLeft" x="0" y="0" onmousedown="handlePan(-1,0)"/>
</g>
<svg viewBox="0 0 15 15" width="100%" height="30px" preserveAspectRatio="xMaxYMin meet">
 <g id="arrow_out" transform="scale(0.3 0.3)">
  <a xlink:href="terminal-window_8c__incl_org.svg" target="_base">
   <rect id="button" ry="5" rx="5" y="6" x="6" height="38" width="38"
        fill="#f2f5e9" fill-opacity="0.5" stroke="#606060" stroke-width="1.0"/>
   <path id="arrow"
     d="M 11.500037,31.436501 C 11.940474,20.09759 22.043105,11.32322 32.158766,21.979434 L 37.068811,17.246167 C 37.068811,17.246167 37.088388,32 37.088388,32 L 22.160133,31.978069 C 22.160133,31.978069 26.997745,27.140456 26.997745,27.140456 C 18.528582,18.264221 13.291696,25.230495 11.500037,31.436501 z"
     style="fill:#404040;"/>
  </a>
 </g>
</svg>

<style type='text/css'>
<![CDATA[
[data-mouse-over-selected='false'] { opacity: 0.7; }
[data-mouse-over-selected='true']  { opacity: 1.0; }
]]>
</style>
<script type="application/ecmascript"><![CDATA[
document.addEventListener('DOMContentLoaded', (event) => {
  highlightEdges();
  highlightAdjacentNodes();
});
]]></script>
</svg>
