<?xml version="1.0" encoding="UTF-8" standalone="no"?>
<!DOCTYPE svg PUBLIC "-//W3C//DTD SVG 1.1//EN"
 "http://www.w3.org/Graphics/SVG/1.1/DTD/svg11.dtd">
<!-- Generated by graphviz version 2.43.0 (0)
 -->
<!-- Title: theme&#45;thumbnail.h Pages: 1 -->
<svg width="514pt" height="82pt"
 viewBox="0.00 0.00 514.00 82.00" xmlns="http://www.w3.org/2000/svg" xmlns:xlink="http://www.w3.org/1999/xlink">
<g id="graph0" class="graph" transform="scale(1 1) rotate(0) translate(4 78)">
<title>theme&#45;thumbnail.h</title>
<!-- Node1 -->
<g id="Node000001" class="node">
<title>Node1</title>
<g id="a_Node000001"><a xlink:title=" ">
<polygon fill="#999999" stroke="#666666" points="305,-74 195,-74 195,-55 305,-55 305,-74"/>
<text text-anchor="middle" x="250" y="-62" font-family="Helvetica,sans-Serif" font-size="10.00">theme&#45;thumbnail.h</text>
</a>
</g>
</g>
<!-- Node2 -->
<g id="Node000002" class="node">
<title>Node2</title>
<g id="a_Node000002"><a xlink:href="appearance-main_8c.html" target="_top" xlink:title=" ">
<polygon fill="white" stroke="#666666" points="110,-19 0,-19 0,0 110,0 110,-19"/>
<text text-anchor="middle" x="55" y="-7" font-family="Helvetica,sans-Serif" font-size="10.00">appearance&#45;main.c</text>
</a>
</g>
</g>
<!-- Node1&#45;&gt;Node2 -->
<g id="edge1_Node000001_Node000002" class="edge">
<title>Node1&#45;&gt;Node2</title>
<g id="a_edge1_Node000001_Node000002"><a xlink:title=" ">
<path fill="none" stroke="#63b8ff" d="M208.83,-52.31C172.34,-42.39 119.83,-28.12 86.58,-19.08"/>
<polygon fill="#63b8ff" stroke="#63b8ff" points="208.1,-55.74 218.67,-54.98 209.94,-48.98 208.1,-55.74"/>
</a>
</g>
</g>
<!-- Node3 -->
<g id="Node000003" class="node">
<title>Node3</title>
<g id="a_Node000003"><a xlink:href="appearance-style_8c.html" target="_top" xlink:title=" ">
<polygon fill="white" stroke="#666666" points="238,-19 128,-19 128,0 238,0 238,-19"/>
<text text-anchor="middle" x="183" y="-7" font-family="Helvetica,sans-Serif" font-size="10.00">appearance&#45;style.c</text>
</a>
</g>
</g>
<!-- Node1&#45;&gt;Node3 -->
<g id="edge2_Node000001_Node000003" class="edge">
<title>Node1&#45;&gt;Node3</title>
<g id="a_edge2_Node000001_Node000003"><a xlink:title=" ">
<path fill="none" stroke="#63b8ff" d="M231.17,-48.6C219.16,-39.11 204.03,-27.13 193.96,-19.17"/>
<polygon fill="#63b8ff" stroke="#63b8ff" points="229.22,-51.53 239.24,-54.98 233.56,-46.04 229.22,-51.53"/>
</a>
</g>
</g>
<!-- Node4 -->
<g id="Node000004" class="node">
<title>Node4</title>
<g id="a_Node000004"><a xlink:href="appearance-themes_8c.html" target="_top" xlink:title=" ">
<polygon fill="white" stroke="#666666" points="378,-19 256,-19 256,0 378,0 378,-19"/>
<text text-anchor="middle" x="317" y="-7" font-family="Helvetica,sans-Serif" font-size="10.00">appearance&#45;themes.c</text>
</a>
</g>
</g>
<!-- Node1&#45;&gt;Node4 -->
<g id="edge3_Node000001_Node000004" class="edge">
<title>Node1&#45;&gt;Node4</title>
<g id="a_edge3_Node000001_Node000004"><a xlink:title=" ">
<path fill="none" stroke="#63b8ff" d="M268.83,-48.6C280.84,-39.11 295.97,-27.13 306.04,-19.17"/>
<polygon fill="#63b8ff" stroke="#63b8ff" points="266.44,-46.04 260.76,-54.98 270.78,-51.53 266.44,-46.04"/>
</a>
</g>
</g>
<!-- Node5 -->
<g id="Node000005" class="node">
<title>Node5</title>
<g id="a_Node000005"><a xlink:href="theme-thumbnail_8c.html" target="_top" xlink:title=" ">
<polygon fill="white" stroke="#666666" points="506,-19 396,-19 396,0 506,0 506,-19"/>
<text text-anchor="middle" x="451" y="-7" font-family="Helvetica,sans-Serif" font-size="10.00">theme&#45;thumbnail.c</text>
</a>
</g>
</g>
<!-- Node1&#45;&gt;Node5 -->
<g id="edge4_Node000001_Node000005" class="edge">
<title>Node1&#45;&gt;Node5</title>
<g id="a_edge4_Node000001_Node000005"><a xlink:title=" ">
<path fill="none" stroke="#63b8ff" d="M292.43,-52.31C330.04,-42.39 384.17,-28.12 418.45,-19.08"/>
<polygon fill="#63b8ff" stroke="#63b8ff" points="291.07,-49.05 282.29,-54.98 292.86,-55.82 291.07,-49.05"/>
</a>
</g>
</g>
</g>
</svg>
