<?xml version="1.0" encoding="UTF-8" standalone="no"?>
<!DOCTYPE svg PUBLIC "-//W3C//DTD SVG 1.1//EN"
 "http://www.w3.org/Graphics/SVG/1.1/DTD/svg11.dtd">
<!-- Generated by graphviz version 2.43.0 (0)
 -->
<!-- Title: totem&#45;properties&#45;main.c Pages: 1 -->
<svg width="861pt" height="280pt"
 viewBox="0.00 0.00 860.50 280.00" xmlns="http://www.w3.org/2000/svg" xmlns:xlink="http://www.w3.org/1999/xlink">
<g id="graph0" class="graph" transform="scale(1 1) rotate(0) translate(4 276)">
<title>totem&#45;properties&#45;main.c</title>
<!-- Node1 -->
<g id="Node000001" class="node">
<title>Node1</title>
<g id="a_Node000001"><a xlink:title=" ">
<polygon fill="#999999" stroke="#666666" points="425.5,-272 289.5,-272 289.5,-253 425.5,-253 425.5,-272"/>
<text text-anchor="middle" x="357.5" y="-260" font-family="Helvetica,sans-Serif" font-size="10.00">totem&#45;properties&#45;main.c</text>
</a>
</g>
</g>
<!-- Node2 -->
<g id="Node000002" class="node">
<title>Node2</title>
<g id="a_Node000002"><a xlink:title=" ">
<polygon fill="#e0e0e0" stroke="#999999" points="55,-211.5 0,-211.5 0,-192.5 55,-192.5 55,-211.5"/>
<text text-anchor="middle" x="27.5" y="-199.5" font-family="Helvetica,sans-Serif" font-size="10.00">config.h</text>
</a>
</g>
</g>
<!-- Node1&#45;&gt;Node2 -->
<g id="edge1_Node000001_Node000002" class="edge">
<title>Node1&#45;&gt;Node2</title>
<g id="a_edge1_Node000001_Node000002"><a xlink:title=" ">
<path fill="none" stroke="#63b8ff" d="M289.49,-255.51C229.34,-249.19 139.57,-237.28 63.5,-217 61.2,-216.39 58.85,-215.68 56.51,-214.91"/>
<polygon fill="#63b8ff" stroke="#63b8ff" points="57.64,-211.59 47.04,-211.5 55.27,-218.18 57.64,-211.59"/>
</a>
</g>
</g>
<!-- Node3 -->
<g id="Node000003" class="node">
<title>Node3</title>
<g id="a_Node000003"><a xlink:title=" ">
<polygon fill="#e0e0e0" stroke="#999999" points="126,-211.5 73,-211.5 73,-192.5 126,-192.5 126,-211.5"/>
<text text-anchor="middle" x="99.5" y="-199.5" font-family="Helvetica,sans-Serif" font-size="10.00">string.h</text>
</a>
</g>
</g>
<!-- Node1&#45;&gt;Node3 -->
<g id="edge2_Node000001_Node000003" class="edge">
<title>Node1&#45;&gt;Node3</title>
<g id="a_edge2_Node000001_Node000003"><a xlink:title=" ">
<path fill="none" stroke="#63b8ff" d="M299.5,-252.93C254.07,-245.49 189.56,-233.36 134.5,-217 132.62,-216.44 130.7,-215.82 128.77,-215.16"/>
<polygon fill="#63b8ff" stroke="#63b8ff" points="129.86,-211.83 119.27,-211.64 127.43,-218.4 129.86,-211.83"/>
</a>
</g>
</g>
<!-- Node4 -->
<g id="Node000004" class="node">
<title>Node4</title>
<g id="a_Node000004"><a xlink:title=" ">
<polygon fill="#e0e0e0" stroke="#999999" points="233,-211.5 144,-211.5 144,-192.5 233,-192.5 233,-211.5"/>
<text text-anchor="middle" x="188.5" y="-199.5" font-family="Helvetica,sans-Serif" font-size="10.00">glib/gi18n&#45;lib.h</text>
</a>
</g>
</g>
<!-- Node1&#45;&gt;Node4 -->
<g id="edge3_Node000001_Node000004" class="edge">
<title>Node1&#45;&gt;Node4</title>
<g id="a_edge3_Node000001_Node000004"><a xlink:title=" ">
<path fill="none" stroke="#63b8ff" d="M332.93,-252.99C303.89,-242.94 255.4,-226.16 222.7,-214.84"/>
<polygon fill="#63b8ff" stroke="#63b8ff" points="223.7,-211.48 213.1,-211.52 221.41,-218.1 223.7,-211.48"/>
</a>
</g>
</g>
<!-- Node5 -->
<g id="Node000005" class="node">
<title>Node5</title>
<g id="a_Node000005"><a xlink:title=" ">
<polygon fill="#e0e0e0" stroke="#999999" points="310,-211.5 251,-211.5 251,-192.5 310,-192.5 310,-211.5"/>
<text text-anchor="middle" x="280.5" y="-199.5" font-family="Helvetica,sans-Serif" font-size="10.00">gst/gst.h</text>
</a>
</g>
</g>
<!-- Node1&#45;&gt;Node5 -->
<g id="edge4_Node000001_Node000005" class="edge">
<title>Node1&#45;&gt;Node5</title>
<g id="a_edge4_Node000001_Node000005"><a xlink:title=" ">
<path fill="none" stroke="#63b8ff" d="M346.14,-252.87C334.08,-243.71 314.8,-229.06 300.25,-218.01"/>
<polygon fill="#63b8ff" stroke="#63b8ff" points="301.99,-214.93 291.91,-211.67 297.75,-220.5 301.99,-214.93"/>
</a>
</g>
</g>
<!-- Node6 -->
<g id="Node000006" class="node">
<title>Node6</title>
<g id="a_Node000006"><a xlink:href="totem-properties-view_8h.html" target="_top" xlink:title=" ">
<polygon fill="white" stroke="#666666" points="213.5,-145.5 79.5,-145.5 79.5,-126.5 213.5,-126.5 213.5,-145.5"/>
<text text-anchor="middle" x="146.5" y="-133.5" font-family="Helvetica,sans-Serif" font-size="10.00">totem&#45;properties&#45;view.h</text>
</a>
</g>
</g>
<!-- Node1&#45;&gt;Node6 -->
<g id="edge5_Node000001_Node000006" class="edge">
<title>Node1&#45;&gt;Node6</title>
<g id="a_edge5_Node000001_Node000006"><a xlink:title=" ">
<path fill="none" stroke="#63b8ff" d="M355.47,-252.7C351.4,-237.09 340.77,-204.57 319.5,-187 301.27,-171.95 244.21,-157.23 200.56,-147.71"/>
<polygon fill="#63b8ff" stroke="#63b8ff" points="201.14,-144.25 190.63,-145.58 199.67,-151.1 201.14,-144.25"/>
</a>
</g>
</g>
<!-- Node8 -->
<g id="Node000008" class="node">
<title>Node8</title>
<g id="a_Node000008"><a xlink:href="totem-gst-helpers_8h.html" target="_top" xlink:title=" ">
<polygon fill="white" stroke="#666666" points="716,-211.5 603,-211.5 603,-192.5 716,-192.5 716,-211.5"/>
<text text-anchor="middle" x="659.5" y="-199.5" font-family="Helvetica,sans-Serif" font-size="10.00">totem&#45;gst&#45;helpers.h</text>
</a>
</g>
</g>
<!-- Node1&#45;&gt;Node8 -->
<g id="edge7_Node000001_Node000008" class="edge">
<title>Node1&#45;&gt;Node8</title>
<g id="a_edge7_Node000001_Node000008"><a xlink:title=" ">
<path fill="none" stroke="#63b8ff" d="M402.23,-252.94C448.77,-244.03 523.76,-229.62 588.5,-217 594.27,-215.88 600.3,-214.7 606.3,-213.52"/>
<polygon fill="#63b8ff" stroke="#63b8ff" points="607.19,-216.91 616.33,-211.54 605.84,-210.04 607.19,-216.91"/>
</a>
</g>
</g>
<!-- Node9 -->
<g id="Node000009" class="node">
<title>Node9</title>
<g id="a_Node000009"><a xlink:href="caja-extension-types_8h.html" target="_top" xlink:title=" ">
<polygon fill="white" stroke="#666666" points="443.5,-85 319.5,-85 319.5,-55 443.5,-55 443.5,-85"/>
<text text-anchor="start" x="327.5" y="-73" font-family="Helvetica,sans-Serif" font-size="10.00">libcaja&#45;extension/caja</text>
<text text-anchor="middle" x="381.5" y="-62" font-family="Helvetica,sans-Serif" font-size="10.00">&#45;extension&#45;types.h</text>
</a>
</g>
</g>
<!-- Node1&#45;&gt;Node9 -->
<g id="edge8_Node000001_Node000009" class="edge">
<title>Node1&#45;&gt;Node9</title>
<g id="a_edge8_Node000001_Node000009"><a xlink:title=" ">
<path fill="none" stroke="#63b8ff" d="M358.59,-252.82C362.09,-225.1 373.06,-138.02 378.45,-95.22"/>
<polygon fill="#63b8ff" stroke="#63b8ff" points="381.94,-95.48 379.72,-85.12 375,-94.61 381.94,-95.48"/>
</a>
</g>
</g>
<!-- Node11 -->
<g id="Node000011" class="node">
<title>Node11</title>
<g id="a_Node000011"><a xlink:href="caja-file-info_8h.html" target="_top" xlink:title=" ">
<polygon fill="white" stroke="#666666" points="626.5,-151 502.5,-151 502.5,-121 626.5,-121 626.5,-151"/>
<text text-anchor="start" x="510.5" y="-139" font-family="Helvetica,sans-Serif" font-size="10.00">libcaja&#45;extension/caja</text>
<text text-anchor="middle" x="564.5" y="-128" font-family="Helvetica,sans-Serif" font-size="10.00">&#45;file&#45;info.h</text>
</a>
</g>
</g>
<!-- Node1&#45;&gt;Node11 -->
<g id="edge10_Node000001_Node000011" class="edge">
<title>Node1&#45;&gt;Node11</title>
<g id="a_edge10_Node000001_Node000011"><a xlink:title=" ">
<path fill="none" stroke="#63b8ff" d="M425.73,-254.59C475.92,-248.01 538.27,-236.22 555.5,-217 568.87,-202.09 570.09,-178.81 568.58,-161.2"/>
<polygon fill="#63b8ff" stroke="#63b8ff" points="572.03,-160.61 567.37,-151.1 565.08,-161.44 572.03,-160.61"/>
</a>
</g>
</g>
<!-- Node13 -->
<g id="Node000013" class="node">
<title>Node13</title>
<g id="a_Node000013"><a xlink:href="caja-property-page-provider_8h.html" target="_top" xlink:title=" ">
<polygon fill="white" stroke="#666666" points="546.5,-217 404.5,-217 404.5,-187 546.5,-187 546.5,-217"/>
<text text-anchor="start" x="412.5" y="-205" font-family="Helvetica,sans-Serif" font-size="10.00">libcaja&#45;extension/caja</text>
<text text-anchor="middle" x="475.5" y="-194" font-family="Helvetica,sans-Serif" font-size="10.00">&#45;property&#45;page&#45;provider.h</text>
</a>
</g>
</g>
<!-- Node1&#45;&gt;Node13 -->
<g id="edge13_Node000001_Node000013" class="edge">
<title>Node1&#45;&gt;Node13</title>
<g id="a_edge13_Node000001_Node000013"><a xlink:title=" ">
<path fill="none" stroke="#63b8ff" d="M374.66,-252.99C391.14,-244.82 416.6,-232.2 437.81,-221.69"/>
<polygon fill="#63b8ff" stroke="#63b8ff" points="439.5,-224.76 446.9,-217.18 436.39,-218.48 439.5,-224.76"/>
</a>
</g>
</g>
<!-- Node15 -->
<g id="Node000015" class="node">
<title>Node15</title>
<g id="a_Node000015"><a xlink:href="totem-mime-types_8h.html" target="_top" xlink:title=" ">
<polygon fill="white" stroke="#666666" points="852.5,-211.5 734.5,-211.5 734.5,-192.5 852.5,-192.5 852.5,-211.5"/>
<text text-anchor="middle" x="793.5" y="-199.5" font-family="Helvetica,sans-Serif" font-size="10.00">totem&#45;mime&#45;types.h</text>
</a>
</g>
</g>
<!-- Node1&#45;&gt;Node15 -->
<g id="edge21_Node000001_Node000015" class="edge">
<title>Node1&#45;&gt;Node15</title>
<g id="a_edge21_Node000001_Node000015"><a xlink:title=" ">
<path fill="none" stroke="#63b8ff" d="M425.56,-254.97C499.6,-247.48 621.34,-233.99 725.5,-217 731.75,-215.98 738.29,-214.79 744.75,-213.54"/>
<polygon fill="#63b8ff" stroke="#63b8ff" points="745.64,-216.93 754.77,-211.55 744.28,-210.07 745.64,-216.93"/>
</a>
</g>
</g>
<!-- Node7 -->
<g id="Node000007" class="node">
<title>Node7</title>
<g id="a_Node000007"><a xlink:title=" ">
<polygon fill="#e0e0e0" stroke="#999999" points="220.5,-79.5 160.5,-79.5 160.5,-60.5 220.5,-60.5 220.5,-79.5"/>
<text text-anchor="middle" x="190.5" y="-67.5" font-family="Helvetica,sans-Serif" font-size="10.00">gtk/gtk.h</text>
</a>
</g>
</g>
<!-- Node6&#45;&gt;Node7 -->
<g id="edge6_Node000006_Node000007" class="edge">
<title>Node6&#45;&gt;Node7</title>
<g id="a_edge6_Node000006_Node000007"><a xlink:title=" ">
<path fill="none" stroke="#63b8ff" d="M152.43,-126.37C159.09,-116.69 170.06,-100.74 178.51,-88.44"/>
<polygon fill="#63b8ff" stroke="#63b8ff" points="181.6,-90.13 184.38,-79.91 175.83,-86.16 181.6,-90.13"/>
</a>
</g>
</g>
<!-- Node10 -->
<g id="Node000010" class="node">
<title>Node10</title>
<g id="a_Node000010"><a xlink:title=" ">
<polygon fill="#e0e0e0" stroke="#999999" points="465,-19 388,-19 388,0 465,0 465,-19"/>
<text text-anchor="middle" x="426.5" y="-7" font-family="Helvetica,sans-Serif" font-size="10.00">glib&#45;object.h</text>
</a>
</g>
</g>
<!-- Node9&#45;&gt;Node10 -->
<g id="edge9_Node000009_Node000010" class="edge">
<title>Node9&#45;&gt;Node10</title>
<g id="a_edge9_Node000009_Node000010"><a xlink:title=" ">
<path fill="none" stroke="#63b8ff" d="M392.39,-54.84C398.79,-46.52 406.92,-35.96 413.63,-27.23"/>
<polygon fill="#63b8ff" stroke="#63b8ff" points="416.43,-29.33 419.76,-19.27 410.89,-25.06 416.43,-29.33"/>
</a>
</g>
</g>
<!-- Node11&#45;&gt;Node10 -->
<g id="edge11_Node000011_Node000010" class="edge">
<title>Node11&#45;&gt;Node10</title>
<g id="a_edge11_Node000011_Node000010"><a xlink:title=" ">
<path fill="none" stroke="#63b8ff" d="M551.66,-120.8C536.49,-104.3 510.18,-76.6 485.5,-55 473.34,-44.36 458.87,-33.42 447.31,-25.05"/>
<polygon fill="#63b8ff" stroke="#63b8ff" points="449.28,-22.17 439.11,-19.2 445.22,-27.86 449.28,-22.17"/>
</a>
</g>
</g>
<!-- Node12 -->
<g id="Node000012" class="node">
<title>Node12</title>
<g id="a_Node000012"><a xlink:title=" ">
<polygon fill="#e0e0e0" stroke="#999999" points="597,-79.5 538,-79.5 538,-60.5 597,-60.5 597,-79.5"/>
<text text-anchor="middle" x="567.5" y="-67.5" font-family="Helvetica,sans-Serif" font-size="10.00">gio/gio.h</text>
</a>
</g>
</g>
<!-- Node11&#45;&gt;Node12 -->
<g id="edge12_Node000011_Node000012" class="edge">
<title>Node11&#45;&gt;Node12</title>
<g id="a_edge12_Node000011_Node000012"><a xlink:title=" ">
<path fill="none" stroke="#63b8ff" d="M565.17,-120.8C565.59,-111.7 566.15,-99.79 566.61,-89.9"/>
<polygon fill="#63b8ff" stroke="#63b8ff" points="570.11,-90 567.09,-79.84 563.12,-89.67 570.11,-90"/>
</a>
</g>
</g>
<!-- Node13&#45;&gt;Node9 -->
<g id="edge15_Node000013_Node000009" class="edge">
<title>Node13&#45;&gt;Node9</title>
<g id="a_edge15_Node000013_Node000009"><a xlink:title=" ">
<path fill="none" stroke="#63b8ff" d="M465.26,-186.84C449.02,-164.37 417.19,-120.36 397.79,-93.53"/>
<polygon fill="#63b8ff" stroke="#63b8ff" points="400.42,-91.19 391.73,-85.14 394.75,-95.3 400.42,-91.19"/>
</a>
</g>
</g>
<!-- Node13&#45;&gt;Node10 -->
<g id="edge14_Node000013_Node000010" class="edge">
<title>Node13&#45;&gt;Node10</title>
<g id="a_edge14_Node000013_Node000010"><a xlink:title=" ">
<path fill="none" stroke="#63b8ff" d="M475.01,-186.89C473.71,-160.33 469.05,-101.41 452.5,-55 449.09,-45.43 443.59,-35.59 438.52,-27.61"/>
<polygon fill="#63b8ff" stroke="#63b8ff" points="441.38,-25.6 432.93,-19.22 435.56,-29.48 441.38,-25.6"/>
</a>
</g>
</g>
<!-- Node13&#45;&gt;Node11 -->
<g id="edge16_Node000013_Node000011" class="edge">
<title>Node13&#45;&gt;Node11</title>
<g id="a_edge16_Node000013_Node000011"><a xlink:title=" ">
<path fill="none" stroke="#63b8ff" d="M495.25,-186.8C507.35,-178.1 523.03,-166.82 536.41,-157.2"/>
<polygon fill="#63b8ff" stroke="#63b8ff" points="538.73,-159.84 544.8,-151.16 534.64,-154.16 538.73,-159.84"/>
</a>
</g>
</g>
<!-- Node14 -->
<g id="Node000014" class="node">
<title>Node14</title>
<g id="a_Node000014"><a xlink:href="caja-property-page_8h.html" target="_top" xlink:title=" ">
<polygon fill="white" stroke="#666666" points="351,-145.5 232,-145.5 232,-126.5 351,-126.5 351,-145.5"/>
<text text-anchor="middle" x="291.5" y="-133.5" font-family="Helvetica,sans-Serif" font-size="10.00">caja&#45;property&#45;page.h</text>
</a>
</g>
</g>
<!-- Node13&#45;&gt;Node14 -->
<g id="edge17_Node000013_Node000014" class="edge">
<title>Node13&#45;&gt;Node14</title>
<g id="a_edge17_Node000013_Node000014"><a xlink:title=" ">
<path fill="none" stroke="#63b8ff" d="M435.12,-186.95C402.28,-175.53 356.47,-159.6 325.49,-148.82"/>
<polygon fill="#63b8ff" stroke="#63b8ff" points="326.58,-145.5 315.99,-145.52 324.28,-152.11 326.58,-145.5"/>
</a>
</g>
</g>
<!-- Node14&#45;&gt;Node7 -->
<g id="edge19_Node000014_Node000007" class="edge">
<title>Node14&#45;&gt;Node7</title>
<g id="a_edge19_Node000014_Node000007"><a xlink:title=" ">
<path fill="none" stroke="#63b8ff" d="M277.88,-126.37C261.16,-115.78 232.59,-97.67 212.69,-85.06"/>
<polygon fill="#63b8ff" stroke="#63b8ff" points="214.55,-82.1 204.23,-79.7 210.8,-88.01 214.55,-82.1"/>
</a>
</g>
</g>
<!-- Node14&#45;&gt;Node9 -->
<g id="edge20_Node000014_Node000009" class="edge">
<title>Node14&#45;&gt;Node9</title>
<g id="a_edge20_Node000014_Node000009"><a xlink:title=" ">
<path fill="none" stroke="#63b8ff" d="M303.64,-126.37C316.3,-117.36 336.61,-102.92 353.31,-91.05"/>
<polygon fill="#63b8ff" stroke="#63b8ff" points="355.53,-93.76 361.65,-85.12 351.47,-88.06 355.53,-93.76"/>
</a>
</g>
</g>
<!-- Node14&#45;&gt;Node10 -->
<g id="edge18_Node000014_Node000010" class="edge">
<title>Node14&#45;&gt;Node10</title>
<g id="a_edge18_Node000014_Node000010"><a xlink:title=" ">
<path fill="none" stroke="#63b8ff" d="M291.08,-126.37C290.79,-110.31 292.45,-75.63 310.5,-55 327.65,-35.4 354.43,-24.39 377.94,-18.22"/>
<polygon fill="#63b8ff" stroke="#63b8ff" points="378.87,-21.6 387.78,-15.87 377.24,-14.79 378.87,-21.6"/>
</a>
</g>
</g>
</g>
</svg>
