<?xml version="1.0" encoding="UTF-8" standalone="no"?>
<!DOCTYPE svg PUBLIC "-//W3C//DTD SVG 1.1//EN"
 "http://www.w3.org/Graphics/SVG/1.1/DTD/svg11.dtd">
<!-- Generated by graphviz version 2.43.0 (0)
 -->
<!-- Title: utility.h Pages: 1 -->
<svg width="454pt" height="82pt"
 viewBox="0.00 0.00 454.00 82.00" xmlns="http://www.w3.org/2000/svg" xmlns:xlink="http://www.w3.org/1999/xlink">
<g id="graph0" class="graph" transform="scale(1 1) rotate(0) translate(4 78)">
<title>utility.h</title>
<!-- Node1 -->
<g id="Node000001" class="node">
<title>Node1</title>
<g id="a_Node000001"><a xlink:title=" ">
<polygon fill="#999999" stroke="#666666" points="245,-74 192,-74 192,-55 245,-55 245,-74"/>
<text text-anchor="middle" x="218.5" y="-62" font-family="Helvetica,sans-Serif" font-size="10.00">utility.h</text>
</a>
</g>
</g>
<!-- Node2 -->
<g id="Node000002" class="node">
<title>Node2</title>
<g id="a_Node000002"><a xlink:href="math-buttons_8c.html" target="_top" xlink:title=" ">
<polygon fill="white" stroke="#666666" points="91,-19 0,-19 0,0 91,0 91,-19"/>
<text text-anchor="middle" x="45.5" y="-7" font-family="Helvetica,sans-Serif" font-size="10.00">math&#45;buttons.c</text>
</a>
</g>
</g>
<!-- Node1&#45;&gt;Node2 -->
<g id="edge1_Node000001_Node000002" class="edge">
<title>Node1&#45;&gt;Node2</title>
<g id="a_edge1_Node000001_Node000002"><a xlink:title=" ">
<path fill="none" stroke="#63b8ff" d="M182.28,-52.4C149.83,-42.46 102.92,-28.09 73.33,-19.03"/>
<polygon fill="#63b8ff" stroke="#63b8ff" points="181.26,-55.75 191.85,-55.33 183.31,-49.06 181.26,-55.75"/>
</a>
</g>
</g>
<!-- Node3 -->
<g id="Node000003" class="node">
<title>Node3</title>
<g id="a_Node000003"><a xlink:href="math-equation_8c.html" target="_top" xlink:title=" ">
<polygon fill="white" stroke="#666666" points="206,-19 109,-19 109,0 206,0 206,-19"/>
<text text-anchor="middle" x="157.5" y="-7" font-family="Helvetica,sans-Serif" font-size="10.00">math&#45;equation.c</text>
</a>
</g>
</g>
<!-- Node1&#45;&gt;Node3 -->
<g id="edge2_Node000001_Node000003" class="edge">
<title>Node1&#45;&gt;Node3</title>
<g id="a_edge2_Node000001_Node000003"><a xlink:title=" ">
<path fill="none" stroke="#63b8ff" d="M201.03,-48.32C190.16,-38.87 176.56,-27.06 167.48,-19.17"/>
<polygon fill="#63b8ff" stroke="#63b8ff" points="198.85,-51.07 208.7,-54.98 203.45,-45.78 198.85,-51.07"/>
</a>
</g>
</g>
<!-- Node4 -->
<g id="Node000004" class="node">
<title>Node4</title>
<g id="a_Node000004"><a xlink:href="math-preferences_8c.html" target="_top" xlink:title=" ">
<polygon fill="white" stroke="#666666" points="336.5,-19 224.5,-19 224.5,0 336.5,0 336.5,-19"/>
<text text-anchor="middle" x="280.5" y="-7" font-family="Helvetica,sans-Serif" font-size="10.00">math&#45;preferences.c</text>
</a>
</g>
</g>
<!-- Node1&#45;&gt;Node4 -->
<g id="edge3_Node000001_Node000004" class="edge">
<title>Node1&#45;&gt;Node4</title>
<g id="a_edge3_Node000001_Node000004"><a xlink:title=" ">
<path fill="none" stroke="#63b8ff" d="M236.25,-48.32C247.31,-38.87 261.13,-27.06 270.36,-19.17"/>
<polygon fill="#63b8ff" stroke="#63b8ff" points="233.79,-45.83 228.46,-54.98 238.34,-51.15 233.79,-45.83"/>
</a>
</g>
</g>
<!-- Node5 -->
<g id="Node000005" class="node">
<title>Node5</title>
<g id="a_Node000005"><a xlink:href="math-window_8c.html" target="_top" xlink:title=" ">
<polygon fill="white" stroke="#666666" points="446,-19 355,-19 355,0 446,0 446,-19"/>
<text text-anchor="middle" x="400.5" y="-7" font-family="Helvetica,sans-Serif" font-size="10.00">math&#45;window.c</text>
</a>
</g>
</g>
<!-- Node1&#45;&gt;Node5 -->
<g id="edge4_Node000001_Node000005" class="edge">
<title>Node1&#45;&gt;Node5</title>
<g id="a_edge4_Node000001_Node000005"><a xlink:title=" ">
<path fill="none" stroke="#63b8ff" d="M254.96,-52.88C289.1,-42.94 339.48,-28.27 371.12,-19.06"/>
<polygon fill="#63b8ff" stroke="#63b8ff" points="253.98,-49.52 245.35,-55.68 255.93,-56.24 253.98,-49.52"/>
</a>
</g>
</g>
</g>
</svg>
