<?xml version="1.0" encoding="UTF-8" standalone="no"?>
<!DOCTYPE svg PUBLIC "-//W3C//DTD SVG 1.1//EN"
 "http://www.w3.org/Graphics/SVG/1.1/DTD/svg11.dtd">
<!-- Generated by graphviz version 2.43.0 (0)
 -->
<!-- Title: workspace.h Pages: 1 -->
<!--zoomable 82 -->

<svg id="main" version="1.1" xmlns="http://www.w3.org/2000/svg" xmlns:xlink="http://www.w3.org/1999/xlink" xml:space="preserve" onload="init(evt)">
<style type="text/css"><![CDATA[
.node, .edge {opacity: 0.7;}
.node.selected, .edge.selected {opacity: 1;}
.edge:hover path { stroke: red; }
.edge:hover polygon { stroke: red; fill: red; }
]]></style>

<defs>
  <circle id="rim" cx="0" cy="0" r="7"/>
  <circle id="rim2" cx="0" cy="0" r="3.5"/>
  <g id="zoomPlus">
    <use xlink:href="#rim" fill="#404040"><set attributeName="fill" to="#808080" begin="zoomplus.mouseover" end="zoomplus.mouseout"/></use>
    <path d="M-4,0h8M0,-4v8" fill="none" stroke="white" stroke-width="1.5" pointer-events="none"/>
  </g>
  <g id="zoomMin">
    <use xlink:href="#rim" fill="#404040"><set attributeName="fill" to="#808080" begin="zoomminus.mouseover" end="zoomminus.mouseout"/></use>
    <path d="M-4,0h8" fill="none" stroke="white" stroke-width="1.5" pointer-events="none"/>
  </g>
  <g id="arrowUp" transform="translate(30 24)">
    <use xlink:href="#rim"/>
    <path pointer-events="none" fill="none" stroke="white" stroke-width="1.5" d="M0,-3.0v7 M-2.5,-0.5L0,-3.0L2.5,-0.5"/>
  </g>
  <g id="arrowRight" transform="rotate(90) translate(36 -43)">
    <use xlink:href="#rim"/>
    <path pointer-events="none" fill="none" stroke="white" stroke-width="1.5" d="M0,-3.0v7 M-2.5,-0.5L0,-3.0L2.5,-0.5"/>
  </g>
  <g id="arrowDown" transform="rotate(180) translate(-30 -48)">
    <use xlink:href="#rim"/>
    <path pointer-events="none" fill="none" stroke="white" stroke-width="1.5" d="M0,-3.0v7 M-2.5,-0.5L0,-3.0L2.5,-0.5"/>
  </g>
  <g id="arrowLeft" transform="rotate(270) translate(-36 17)">
    <use xlink:href="#rim"/>
    <path pointer-events="none" fill="none" stroke="white" stroke-width="1.5" d="M0,-3.0v7 M-2.5,-0.5L0,-3.0L2.5,-0.5"/>
  </g>
  <g id="resetDef">
    <use xlink:href="#rim2" fill="#404040"><set attributeName="fill" to="#808080" begin="reset.mouseover" end="reset.mouseout"/></use>
  </g>
</defs>
<script type="application/ecmascript">
var viewWidth = 1003;
var viewHeight = 82;
var sectionId = 'dynsection-1';
</script>
<script type="application/ecmascript" xlink:href="svg.min.js"/>
<svg id="graph" class="graph">
<g id="viewport">
<title>workspace.h</title>
<!-- Node1 -->
<g id="Node000001" class="node">
<title>Node1</title>
<g id="a_Node000001"><a xlink:title=" ">
<polygon fill="#999999" stroke="#666666" points="556.5,-74 478.5,-74 478.5,-55 556.5,-55 556.5,-74"/>
<text text-anchor="middle" x="517.5" y="-62" font-family="Helvetica,sans-Serif" font-size="10.00">workspace.h</text>
</a>
</g>
</g>
<!-- Node2 -->
<g id="Node000002" class="node">
<title>Node2</title>
<g id="a_Node000002"><a xlink:href="constraints_8c.html" target="_top" xlink:title=" ">
<polygon fill="white" stroke="#666666" points="79,-19 0,-19 0,0 79,0 79,-19"/>
<text text-anchor="middle" x="39.5" y="-7" font-family="Helvetica,sans-Serif" font-size="10.00">constraints.c</text>
</a>
</g>
</g>
<!-- Node1&#45;&gt;Node2 -->
<g id="edge1_Node000001_Node000002" class="edge">
<title>Node1&#45;&gt;Node2</title>
<g id="a_edge1_Node000001_Node000002"><a xlink:title=" ">
<path fill="none" stroke="#63b8ff" d="M468.09,-59.48C388.13,-52.73 225.5,-37.97 88.5,-19 85.42,-18.57 82.24,-18.1 79.04,-17.6"/>
<polygon fill="#63b8ff" stroke="#63b8ff" points="468.1,-62.99 478.35,-60.34 468.68,-56.02 468.1,-62.99"/>
</a>
</g>
</g>
<!-- Node3 -->
<g id="Node000003" class="node">
<title>Node3</title>
<g id="a_Node000003"><a xlink:href="core_8c.html" target="_top" xlink:title=" ">
<polygon fill="white" stroke="#666666" points="143.5,-19 97.5,-19 97.5,0 143.5,0 143.5,-19"/>
<text text-anchor="middle" x="120.5" y="-7" font-family="Helvetica,sans-Serif" font-size="10.00">core.c</text>
</a>
</g>
</g>
<!-- Node1&#45;&gt;Node3 -->
<g id="edge2_Node000001_Node000003" class="edge">
<title>Node1&#45;&gt;Node3</title>
<g id="a_edge2_Node000001_Node000003"><a xlink:title=" ">
<path fill="none" stroke="#63b8ff" d="M467.98,-59.65C397.47,-53.67 264.29,-40.55 152.5,-19 149.68,-18.46 146.74,-17.8 143.83,-17.1"/>
<polygon fill="#63b8ff" stroke="#63b8ff" points="468.07,-63.17 478.33,-60.51 468.66,-56.19 468.07,-63.17"/>
</a>
</g>
</g>
<!-- Node4 -->
<g id="Node000004" class="node">
<title>Node4</title>
<g id="a_Node000004"><a xlink:href="delete_8c.html" target="_top" xlink:title=" ">
<polygon fill="white" stroke="#666666" points="217.5,-19 161.5,-19 161.5,0 217.5,0 217.5,-19"/>
<text text-anchor="middle" x="189.5" y="-7" font-family="Helvetica,sans-Serif" font-size="10.00">delete.c</text>
</a>
</g>
</g>
<!-- Node1&#45;&gt;Node4 -->
<g id="edge3_Node000001_Node000004" class="edge">
<title>Node1&#45;&gt;Node4</title>
<g id="a_edge3_Node000001_Node000004"><a xlink:title=" ">
<path fill="none" stroke="#63b8ff" d="M468.28,-57.11C410.26,-49.31 311.03,-35.15 226.5,-19 223.65,-18.46 220.69,-17.85 217.74,-17.21"/>
<polygon fill="#63b8ff" stroke="#63b8ff" points="467.9,-60.59 478.28,-58.44 468.83,-53.65 467.9,-60.59"/>
</a>
</g>
</g>
<!-- Node5 -->
<g id="Node000005" class="node">
<title>Node5</title>
<g id="a_Node000005"><a xlink:href="display_8c.html" target="_top" xlink:title=" ">
<polygon fill="white" stroke="#666666" points="295,-19 236,-19 236,0 295,0 295,-19"/>
<text text-anchor="middle" x="265.5" y="-7" font-family="Helvetica,sans-Serif" font-size="10.00">display.c</text>
</a>
</g>
</g>
<!-- Node1&#45;&gt;Node5 -->
<g id="edge4_Node000001_Node000005" class="edge">
<title>Node1&#45;&gt;Node5</title>
<g id="a_edge4_Node000001_Node000005"><a xlink:title=" ">
<path fill="none" stroke="#63b8ff" d="M468.41,-53.51C425,-44.63 359.99,-31.19 303.5,-19 300.86,-18.43 298.11,-17.83 295.36,-17.22"/>
<polygon fill="#63b8ff" stroke="#63b8ff" points="467.91,-56.98 478.41,-55.56 469.32,-50.12 467.91,-56.98"/>
</a>
</g>
</g>
<!-- Node6 -->
<g id="Node000006" class="node">
<title>Node6</title>
<g id="a_Node000006"><a xlink:href="edge-resistance_8c.html" target="_top" xlink:title=" ">
<polygon fill="white" stroke="#666666" points="416,-19 313,-19 313,0 416,0 416,-19"/>
<text text-anchor="middle" x="364.5" y="-7" font-family="Helvetica,sans-Serif" font-size="10.00">edge&#45;resistance.c</text>
</a>
</g>
</g>
<!-- Node1&#45;&gt;Node6 -->
<g id="edge5_Node000001_Node000006" class="edge">
<title>Node1&#45;&gt;Node6</title>
<g id="a_edge5_Node000001_Node000006"><a xlink:title=" ">
<path fill="none" stroke="#63b8ff" d="M483.35,-51.67C454.82,-41.79 414.81,-27.93 389.27,-19.08"/>
<polygon fill="#63b8ff" stroke="#63b8ff" points="482.32,-55.02 492.92,-54.98 484.61,-48.4 482.32,-55.02"/>
</a>
</g>
</g>
<!-- Node7 -->
<g id="Node000007" class="node">
<title>Node7</title>
<g id="a_Node000007"><a xlink:href="keybindings_8c.html" target="_top" xlink:title=" ">
<polygon fill="white" stroke="#666666" points="517,-19 434,-19 434,0 517,0 517,-19"/>
<text text-anchor="middle" x="475.5" y="-7" font-family="Helvetica,sans-Serif" font-size="10.00">keybindings.c</text>
</a>
</g>
</g>
<!-- Node1&#45;&gt;Node7 -->
<g id="edge6_Node000001_Node000007" class="edge">
<title>Node1&#45;&gt;Node7</title>
<g id="a_edge6_Node000001_Node000007"><a xlink:title=" ">
<path fill="none" stroke="#63b8ff" d="M504.17,-46.67C496.89,-37.5 488.2,-26.52 482.31,-19.09"/>
<polygon fill="#63b8ff" stroke="#63b8ff" points="501.61,-49.08 510.56,-54.75 507.1,-44.74 501.61,-49.08"/>
</a>
</g>
</g>
<!-- Node8 -->
<g id="Node000008" class="node">
<title>Node8</title>
<g id="a_Node000008"><a xlink:href="place_8c.html" target="_top" xlink:title=" ">
<polygon fill="white" stroke="#666666" points="586,-19 535,-19 535,0 586,0 586,-19"/>
<text text-anchor="middle" x="560.5" y="-7" font-family="Helvetica,sans-Serif" font-size="10.00">place.c</text>
</a>
</g>
</g>
<!-- Node1&#45;&gt;Node8 -->
<g id="edge7_Node000001_Node000008" class="edge">
<title>Node1&#45;&gt;Node8</title>
<g id="a_edge7_Node000001_Node000008"><a xlink:title=" ">
<path fill="none" stroke="#63b8ff" d="M530.92,-46.96C538.41,-37.72 547.44,-26.6 553.53,-19.09"/>
<polygon fill="#63b8ff" stroke="#63b8ff" points="528.18,-44.78 524.6,-54.75 533.62,-49.19 528.18,-44.78"/>
</a>
</g>
</g>
<!-- Node9 -->
<g id="Node000009" class="node">
<title>Node9</title>
<g id="a_Node000009"><a xlink:href="screen_8c.html" target="_top" xlink:title=" ">
<polygon fill="white" stroke="#666666" points="661,-19 604,-19 604,0 661,0 661,-19"/>
<text text-anchor="middle" x="632.5" y="-7" font-family="Helvetica,sans-Serif" font-size="10.00">screen.c</text>
</a>
</g>
</g>
<!-- Node1&#45;&gt;Node9 -->
<g id="edge8_Node000001_Node000009" class="edge">
<title>Node1&#45;&gt;Node9</title>
<g id="a_edge8_Node000001_Node000009"><a xlink:title=" ">
<path fill="none" stroke="#63b8ff" d="M545.13,-50.77C566.34,-40.99 595.06,-27.75 613.69,-19.17"/>
<polygon fill="#63b8ff" stroke="#63b8ff" points="543.59,-47.62 535.98,-54.98 546.52,-53.98 543.59,-47.62"/>
</a>
</g>
</g>
<!-- Node10 -->
<g id="Node000010" class="node">
<title>Node10</title>
<g id="a_Node000010"><a xlink:href="marco_2src_2core_2stack_8c.html" target="_top" xlink:title=" ">
<polygon fill="white" stroke="#666666" points="730,-19 679,-19 679,0 730,0 730,-19"/>
<text text-anchor="middle" x="704.5" y="-7" font-family="Helvetica,sans-Serif" font-size="10.00">stack.c</text>
</a>
</g>
</g>
<!-- Node1&#45;&gt;Node10 -->
<g id="edge9_Node000001_Node000010" class="edge">
<title>Node1&#45;&gt;Node10</title>
<g id="a_edge9_Node000001_Node000010"><a xlink:title=" ">
<path fill="none" stroke="#63b8ff" d="M557.42,-52.19C594.1,-41.79 647.39,-26.69 678.74,-17.8"/>
<polygon fill="#63b8ff" stroke="#63b8ff" points="556.21,-48.89 547.54,-54.98 558.12,-55.63 556.21,-48.89"/>
</a>
</g>
</g>
<!-- Node11 -->
<g id="Node000011" class="node">
<title>Node11</title>
<g id="a_Node000011"><a xlink:href="tabpopup_8c.html" target="_top" xlink:title=" ">
<polygon fill="white" stroke="#666666" points="819,-19 748,-19 748,0 819,0 819,-19"/>
<text text-anchor="middle" x="783.5" y="-7" font-family="Helvetica,sans-Serif" font-size="10.00">tabpopup.c</text>
</a>
</g>
</g>
<!-- Node1&#45;&gt;Node11 -->
<g id="edge10_Node000001_Node000011" class="edge">
<title>Node1&#45;&gt;Node11</title>
<g id="a_edge10_Node000001_Node000011"><a xlink:title=" ">
<path fill="none" stroke="#63b8ff" d="M566.85,-53.67C619.42,-43.19 701.33,-26.87 747.92,-17.59"/>
<polygon fill="#63b8ff" stroke="#63b8ff" points="565.87,-50.29 556.75,-55.68 567.24,-57.16 565.87,-50.29"/>
</a>
</g>
</g>
<!-- Node12 -->
<g id="Node000012" class="node">
<title>Node12</title>
<g id="a_Node000012"><a xlink:href="window_8c.html" target="_top" xlink:title=" ">
<polygon fill="white" stroke="#666666" points="899.5,-19 837.5,-19 837.5,0 899.5,0 899.5,-19"/>
<text text-anchor="middle" x="868.5" y="-7" font-family="Helvetica,sans-Serif" font-size="10.00">window.c</text>
</a>
</g>
</g>
<!-- Node1&#45;&gt;Node12 -->
<g id="edge11_Node000001_Node000012" class="edge">
<title>Node1&#45;&gt;Node12</title>
<g id="a_edge11_Node000001_Node000012"><a xlink:title=" ">
<path fill="none" stroke="#63b8ff" d="M567.11,-57.45C628.63,-49.7 736.61,-35.32 828.5,-19 831.3,-18.5 834.19,-17.95 837.1,-17.38"/>
<polygon fill="#63b8ff" stroke="#63b8ff" points="566.4,-54.01 556.91,-58.72 567.27,-60.95 566.4,-54.01"/>
</a>
</g>
</g>
<!-- Node13 -->
<g id="Node000013" class="node">
<title>Node13</title>
<g id="a_Node000013"><a xlink:href="workspace_8c.html" target="_top" xlink:title=" ">
<polygon fill="white" stroke="#666666" points="995,-19 918,-19 918,0 995,0 995,-19"/>
<text text-anchor="middle" x="956.5" y="-7" font-family="Helvetica,sans-Serif" font-size="10.00">workspace.c</text>
</a>
</g>
</g>
<!-- Node1&#45;&gt;Node13 -->
<g id="edge12_Node000001_Node000013" class="edge">
<title>Node1&#45;&gt;Node13</title>
<g id="a_edge12_Node000001_Node000013"><a xlink:title=" ">
<path fill="none" stroke="#63b8ff" d="M566.73,-58.89C640.98,-51.7 785.97,-36.8 908.5,-19 911.52,-18.56 914.63,-18.08 917.76,-17.57"/>
<polygon fill="#63b8ff" stroke="#63b8ff" points="566.35,-55.41 556.73,-59.85 567.02,-62.37 566.35,-55.41"/>
</a>
</g>
</g>
</g>
</svg>

<g id="navigator" transform="translate(0 0)" fill="#404254">
  <rect fill="#f2f5e9" fill-opacity="0.5" stroke="#606060" stroke-width=".5" x="0" y="0" width="60" height="60"/>
  <use id="zoomplus" xlink:href="#zoomPlus" x="17" y="9" onmousedown="handleZoom(evt,'in')"/>
  <use id="zoomminus" xlink:href="#zoomMin" x="42" y="9" onmousedown="handleZoom(evt,'out')"/>
  <use id="reset" xlink:href="#resetDef" x="30" y="36" onmousedown="handleReset()"/>
   <use id="arrowup" xlink:href="#arrowUp" x="0" y="0" onmousedown="handlePan(0,-1)"/>
  <use id="arrowright" xlink:href="#arrowRight" x="0" y="0" onmousedown="handlePan(1,0)"/>
  <use id="arrowdown" xlink:href="#arrowDown" x="0" y="0" onmousedown="handlePan(0,1)"/>
  <use id="arrowleft" xlink:href="#arrowLeft" x="0" y="0" onmousedown="handlePan(-1,0)"/>
</g>
<svg viewBox="0 0 15 15" width="100%" height="30px" preserveAspectRatio="xMaxYMin meet">
 <g id="arrow_out" transform="scale(0.3 0.3)">
  <a xlink:href="workspace_8h__dep__incl_org.svg" target="_base">
   <rect id="button" ry="5" rx="5" y="6" x="6" height="38" width="38"
        fill="#f2f5e9" fill-opacity="0.5" stroke="#606060" stroke-width="1.0"/>
   <path id="arrow"
     d="M 11.500037,31.436501 C 11.940474,20.09759 22.043105,11.32322 32.158766,21.979434 L 37.068811,17.246167 C 37.068811,17.246167 37.088388,32 37.088388,32 L 22.160133,31.978069 C 22.160133,31.978069 26.997745,27.140456 26.997745,27.140456 C 18.528582,18.264221 13.291696,25.230495 11.500037,31.436501 z"
     style="fill:#404040;"/>
  </a>
 </g>
</svg>

<style type='text/css'>
<![CDATA[
[data-mouse-over-selected='false'] { opacity: 0.7; }
[data-mouse-over-selected='true']  { opacity: 1.0; }
]]>
</style>
<script type="application/ecmascript"><![CDATA[
document.addEventListener('DOMContentLoaded', (event) => {
  highlightEdges();
  highlightAdjacentNodes();
});
]]></script>
</svg>
