<?xml version="1.0" encoding="UTF-8" standalone="no"?>
<!DOCTYPE svg PUBLIC "-//W3C//DTD SVG 1.1//EN"
 "http://www.w3.org/Graphics/SVG/1.1/DTD/svg11.dtd">
<!-- Generated by graphviz version 2.43.0 (0)
 -->
<!-- Title: alsa&#45;stream.h Pages: 1 -->
<!--zoomable 93 -->

<svg id="main" version="1.1" xmlns="http://www.w3.org/2000/svg" xmlns:xlink="http://www.w3.org/1999/xlink" xml:space="preserve" onload="init(evt)">

<style type="text/css"><![CDATA[
.node, .edge {opacity: 0.7;}
.node.selected, .edge.selected {opacity: 1;}
.edge:hover path { stroke: red; }
.edge:hover polygon { stroke: red; fill: red; }
]]></style>

<defs>
  <circle id="rim" cx="0" cy="0" r="7"/>
  <circle id="rim2" cx="0" cy="0" r="3.5"/>
  <g id="zoomPlus">
    <use xlink:href="#rim" fill="#404040"><set attributeName="fill" to="#808080" begin="zoomplus.mouseover" end="zoomplus.mouseout"/></use>
    <path d="M-4,0h8M0,-4v8" fill="none" stroke="white" stroke-width="1.5" pointer-events="none"/>
  </g>
  <g id="zoomMin">
    <use xlink:href="#rim" fill="#404040"><set attributeName="fill" to="#808080" begin="zoomminus.mouseover" end="zoomminus.mouseout"/></use>
    <path d="M-4,0h8" fill="none" stroke="white" stroke-width="1.5" pointer-events="none"/>
  </g>
  <g id="arrowUp" transform="translate(30 24)">
    <use xlink:href="#rim"/>
    <path pointer-events="none" fill="none" stroke="white" stroke-width="1.5" d="M0,-3.0v7 M-2.5,-0.5L0,-3.0L2.5,-0.5"/>
  </g>
  <g id="arrowRight" transform="rotate(90) translate(36 -43)">
    <use xlink:href="#rim"/>
    <path pointer-events="none" fill="none" stroke="white" stroke-width="1.5" d="M0,-3.0v7 M-2.5,-0.5L0,-3.0L2.5,-0.5"/>
  </g>
  <g id="arrowDown" transform="rotate(180) translate(-30 -48)">
    <use xlink:href="#rim"/>
    <path pointer-events="none" fill="none" stroke="white" stroke-width="1.5" d="M0,-3.0v7 M-2.5,-0.5L0,-3.0L2.5,-0.5"/>
  </g>
  <g id="arrowLeft" transform="rotate(270) translate(-36 17)">
    <use xlink:href="#rim"/>
    <path pointer-events="none" fill="none" stroke="white" stroke-width="1.5" d="M0,-3.0v7 M-2.5,-0.5L0,-3.0L2.5,-0.5"/>
  </g>
  <g id="resetDef">
    <use xlink:href="#rim2" fill="#404040"><set attributeName="fill" to="#808080" begin="reset.mouseover" end="reset.mouseout"/></use>
  </g>
</defs>
<script type="application/ecmascript">
var viewWidth = 743;
var viewHeight = 93;
var sectionId = 'dynsection-1';
</script>
<script type="application/ecmascript" xlink:href="svg.min.js"/>
<svg id="graph" class="graph">
<g id="viewport">
<title>alsa&#45;stream.h</title>
<!-- Node1 -->
<g id="Node000001" class="node">
<title>Node1</title>
<g id="a_Node000001"><a xlink:title=" ">
<polygon fill="#999999" stroke="#666666" points="442.5,-85 364.5,-85 364.5,-66 442.5,-66 442.5,-85"/>
<text text-anchor="middle" x="403.5" y="-73" font-family="Inter" font-size="10.00">alsa&#45;stream.h</text>
</a>
</g>
</g>
<!-- Node2 -->
<g id="Node000002" class="node">
<title>Node2</title>
<g id="a_Node000002"><a xlink:href="alsa-backend_8c.html" target="_top" xlink:title=" ">
<polygon fill="white" stroke="#666666" points="83,-24.5 0,-24.5 0,-5.5 83,-5.5 83,-24.5"/>
<text text-anchor="middle" x="41.5" y="-12.5" font-family="Inter" font-size="10.00">alsa&#45;backend.c</text>
</a>
</g>
</g>
<!-- Node1&#45;&gt;Node2 -->
<g id="edge1_Node000001_Node000002" class="edge">
<title>Node1&#45;&gt;Node2</title>
<g id="a_edge1_Node000001_Node000002"><a xlink:title=" ">
<path fill="none" stroke="#63b8ff" d="M354.23,-69.39C292.63,-62.55 184.12,-49.05 92.5,-30 85.22,-28.49 77.44,-26.53 70.21,-24.56"/>
<polygon fill="#63b8ff" stroke="#63b8ff" points="354.12,-72.9 364.44,-70.51 354.88,-65.94 354.12,-72.9"/>
</a>
</g>
</g>
<!-- Node3 -->
<g id="Node000003" class="node">
<title>Node3</title>
<g id="a_Node000003"><a xlink:href="alsa-device_8c.html" target="_top" xlink:title=" ">
<polygon fill="white" stroke="#666666" points="175.5,-24.5 101.5,-24.5 101.5,-5.5 175.5,-5.5 175.5,-24.5"/>
<text text-anchor="middle" x="138.5" y="-12.5" font-family="Inter" font-size="10.00">alsa&#45;device.c</text>
</a>
</g>
</g>
<!-- Node1&#45;&gt;Node3 -->
<g id="edge2_Node000001_Node000003" class="edge">
<title>Node1&#45;&gt;Node3</title>
<g id="a_edge2_Node000001_Node000003"><a xlink:title=" ">
<path fill="none" stroke="#63b8ff" d="M354.49,-65.92C309.91,-57.79 242.42,-44.66 184.5,-30 178.19,-28.4 171.45,-26.48 165.14,-24.58"/>
<polygon fill="#63b8ff" stroke="#63b8ff" points="354.02,-69.39 364.48,-67.73 355.26,-62.5 354.02,-69.39"/>
</a>
</g>
</g>
<!-- Node4 -->
<g id="Node000004" class="node">
<title>Node4</title>
<g id="a_Node000004"><a xlink:href="alsa-stream-input-control_8c.html" target="_top" xlink:title=" ">
<polygon fill="white" stroke="#666666" points="333,-24.5 194,-24.5 194,-5.5 333,-5.5 333,-24.5"/>
<text text-anchor="middle" x="263.5" y="-12.5" font-family="Inter" font-size="10.00">alsa&#45;stream&#45;input&#45;control.c</text>
</a>
</g>
</g>
<!-- Node1&#45;&gt;Node4 -->
<g id="edge3_Node000001_Node000004" class="edge">
<title>Node1&#45;&gt;Node4</title>
<g id="a_edge3_Node000001_Node000004"><a xlink:title=" ">
<path fill="none" stroke="#63b8ff" d="M373.78,-62.08C346.74,-50.78 307.53,-34.4 283.88,-24.52"/>
<polygon fill="#63b8ff" stroke="#63b8ff" points="372.57,-65.37 383.14,-65.99 375.27,-58.91 372.57,-65.37"/>
</a>
</g>
</g>
<!-- Node5 -->
<g id="Node000005" class="node">
<title>Node5</title>
<g id="a_Node000005"><a xlink:href="alsa-stream-output-control_8c.html" target="_top" xlink:title=" ">
<polygon fill="white" stroke="#666666" points="455.5,-30 351.5,-30 351.5,0 455.5,0 455.5,-30"/>
<text text-anchor="start" x="359.5" y="-18" font-family="Inter" font-size="10.00">alsa&#45;stream&#45;output</text>
<text text-anchor="middle" x="403.5" y="-7" font-family="Inter" font-size="10.00">&#45;control.c</text>
</a>
</g>
</g>
<!-- Node1&#45;&gt;Node5 -->
<g id="edge4_Node000001_Node000005" class="edge">
<title>Node1&#45;&gt;Node5</title>
<g id="a_edge4_Node000001_Node000005"><a xlink:title=" ">
<path fill="none" stroke="#63b8ff" d="M403.5,-55.65C403.5,-47.36 403.5,-37.78 403.5,-30.11"/>
<polygon fill="#63b8ff" stroke="#63b8ff" points="400,-55.87 403.5,-65.87 407,-55.87 400,-55.87"/>
</a>
</g>
</g>
<!-- Node6 -->
<g id="Node000006" class="node">
<title>Node6</title>
<g id="a_Node000006"><a xlink:href="alsa-stream_8c.html" target="_top" xlink:title=" ">
<polygon fill="white" stroke="#666666" points="551,-24.5 474,-24.5 474,-5.5 551,-5.5 551,-24.5"/>
<text text-anchor="middle" x="512.5" y="-12.5" font-family="Inter" font-size="10.00">alsa&#45;stream.c</text>
</a>
</g>
</g>
<!-- Node1&#45;&gt;Node6 -->
<g id="edge5_Node000001_Node000006" class="edge">
<title>Node1&#45;&gt;Node6</title>
<g id="a_edge5_Node000001_Node000006"><a xlink:title=" ">
<path fill="none" stroke="#63b8ff" d="M428.51,-61.08C449.36,-49.88 478.45,-34.27 496.35,-24.67"/>
<polygon fill="#63b8ff" stroke="#63b8ff" points="426.74,-58.06 419.58,-65.87 430.05,-64.22 426.74,-58.06"/>
</a>
</g>
</g>
<!-- Node7 -->
<g id="Node000007" class="node">
<title>Node7</title>
<g id="a_Node000007"><a xlink:href="alsa-switch_8c.html" target="_top" xlink:title=" ">
<polygon fill="white" stroke="#666666" points="642,-24.5 569,-24.5 569,-5.5 642,-5.5 642,-24.5"/>
<text text-anchor="middle" x="605.5" y="-12.5" font-family="Inter" font-size="10.00">alsa&#45;switch.c</text>
</a>
</g>
</g>
<!-- Node1&#45;&gt;Node7 -->
<g id="edge6_Node000001_Node000007" class="edge">
<title>Node1&#45;&gt;Node7</title>
<g id="a_edge6_Node000001_Node000007"><a xlink:title=" ">
<path fill="none" stroke="#63b8ff" d="M444.36,-63.23C476.09,-54.4 521.17,-41.69 560.5,-30 566.3,-28.28 572.51,-26.38 578.41,-24.55"/>
<polygon fill="#63b8ff" stroke="#63b8ff" points="443.25,-59.9 434.55,-65.95 445.12,-66.65 443.25,-59.9"/>
</a>
</g>
</g>
<!-- Node8 -->
<g id="Node000008" class="node">
<title>Node8</title>
<g id="a_Node000008"><a xlink:href="alsa-toggle_8c.html" target="_top" xlink:title=" ">
<polygon fill="white" stroke="#666666" points="734.5,-24.5 660.5,-24.5 660.5,-5.5 734.5,-5.5 734.5,-24.5"/>
<text text-anchor="middle" x="697.5" y="-12.5" font-family="Inter" font-size="10.00">alsa&#45;toggle.c</text>
</a>
</g>
</g>
<!-- Node1&#45;&gt;Node8 -->
<g id="edge7_Node000001_Node000008" class="edge">
<title>Node1&#45;&gt;Node8</title>
<g id="a_edge7_Node000001_Node000008"><a xlink:title=" ">
<path fill="none" stroke="#63b8ff" d="M452.84,-67.4C503.15,-59.76 583.27,-46.44 651.5,-30 657.99,-28.44 664.92,-26.48 671.37,-24.53"/>
<polygon fill="#63b8ff" stroke="#63b8ff" points="452.25,-63.95 442.88,-68.9 453.29,-70.87 452.25,-63.95"/>
</a>
</g>
</g>
</g>
</svg>

<g id="navigator" transform="translate(0 0)" fill="#404254">
  <rect fill="#f2f5e9" fill-opacity="0.5" stroke="#606060" stroke-width=".5" x="0" y="0" width="60" height="60"/>
  <use id="zoomplus" xlink:href="#zoomPlus" x="17" y="9" onmousedown="handleZoom(evt,'in')"/>
  <use id="zoomminus" xlink:href="#zoomMin" x="42" y="9" onmousedown="handleZoom(evt,'out')"/>
  <use id="reset" xlink:href="#resetDef" x="30" y="36" onmousedown="handleReset()"/>
   <use id="arrowup" xlink:href="#arrowUp" x="0" y="0" onmousedown="handlePan(0,-1)"/>
  <use id="arrowright" xlink:href="#arrowRight" x="0" y="0" onmousedown="handlePan(1,0)"/>
  <use id="arrowdown" xlink:href="#arrowDown" x="0" y="0" onmousedown="handlePan(0,1)"/>
  <use id="arrowleft" xlink:href="#arrowLeft" x="0" y="0" onmousedown="handlePan(-1,0)"/>
</g>
<svg viewBox="0 0 15 15" width="100%" height="30px" preserveAspectRatio="xMaxYMin meet">
 <g id="arrow_out" transform="scale(0.3 0.3)">
  <a xlink:href="alsa-stream_8h__dep__incl_org.svg" target="_base">
   <rect id="button" ry="5" rx="5" y="6" x="6" height="38" width="38"
        fill="#f2f5e9" fill-opacity="0.5" stroke="#606060" stroke-width="1.0"/>
   <path id="arrow"
     d="M 11.500037,31.436501 C 11.940474,20.09759 22.043105,11.32322 32.158766,21.979434 L 37.068811,17.246167 C 37.068811,17.246167 37.088388,32 37.088388,32 L 22.160133,31.978069 C 22.160133,31.978069 26.997745,27.140456 26.997745,27.140456 C 18.528582,18.264221 13.291696,25.230495 11.500037,31.436501 z"
     style="fill:#404040;"/>
  </a>
 </g>
</svg>

<style type='text/css'>
<![CDATA[
[data-mouse-over-selected='false'] { opacity: 0.7; }
[data-mouse-over-selected='true']  { opacity: 1.0; }
]]>
</style>
<script type="application/ecmascript"><![CDATA[
document.addEventListener('DOMContentLoaded', (event) => {
  highlightEdges();
  highlightAdjacentNodes();
});
]]></script>
</svg>
