<?xml version="1.0" encoding="UTF-8" standalone="no"?>
<!DOCTYPE svg PUBLIC "-//W3C//DTD SVG 1.1//EN"
 "http://www.w3.org/Graphics/SVG/1.1/DTD/svg11.dtd">
<!-- Generated by graphviz version 2.43.0 (0)
 -->
<!-- Title: alsa&#45;toggle.h Pages: 1 -->
<svg width="270pt" height="82pt"
 viewBox="0.00 0.00 270.00 82.00" xmlns="http://www.w3.org/2000/svg" xmlns:xlink="http://www.w3.org/1999/xlink">
<g id="graph0" class="graph" transform="scale(1 1) rotate(0) translate(4 78)">
<title>alsa&#45;toggle.h</title>
<!-- Node1 -->
<g id="Node000001" class="node">
<title>Node1</title>
<g id="a_Node000001"><a xlink:title=" ">
<polygon fill="#999999" stroke="#666666" points="169,-74 93,-74 93,-55 169,-55 169,-74"/>
<text text-anchor="middle" x="131" y="-62" font-family="Inter" font-size="10.00">alsa&#45;toggle.h</text>
</a>
</g>
</g>
<!-- Node2 -->
<g id="Node000002" class="node">
<title>Node2</title>
<g id="a_Node000002"><a xlink:href="alsa-device_8c.html" target="_top" xlink:title=" ">
<polygon fill="white" stroke="#666666" points="74,-19 0,-19 0,0 74,0 74,-19"/>
<text text-anchor="middle" x="37" y="-7" font-family="Inter" font-size="10.00">alsa&#45;device.c</text>
</a>
</g>
</g>
<!-- Node1&#45;&gt;Node2 -->
<g id="edge1_Node000001_Node000002" class="edge">
<title>Node1&#45;&gt;Node2</title>
<g id="a_edge1_Node000001_Node000002"><a xlink:title=" ">
<path fill="none" stroke="#63b8ff" d="M107,-49.97C89.81,-40.28 67.19,-27.52 52.38,-19.17"/>
<polygon fill="#63b8ff" stroke="#63b8ff" points="105.47,-53.12 115.9,-54.98 108.91,-47.02 105.47,-53.12"/>
</a>
</g>
</g>
<!-- Node3 -->
<g id="Node000003" class="node">
<title>Node3</title>
<g id="a_Node000003"><a xlink:href="alsa-stream_8c.html" target="_top" xlink:title=" ">
<polygon fill="white" stroke="#666666" points="169.5,-19 92.5,-19 92.5,0 169.5,0 169.5,-19"/>
<text text-anchor="middle" x="131" y="-7" font-family="Inter" font-size="10.00">alsa&#45;stream.c</text>
</a>
</g>
</g>
<!-- Node1&#45;&gt;Node3 -->
<g id="edge2_Node000001_Node000003" class="edge">
<title>Node1&#45;&gt;Node3</title>
<g id="a_edge2_Node000001_Node000003"><a xlink:title=" ">
<path fill="none" stroke="#63b8ff" d="M131,-44.66C131,-35.93 131,-25.99 131,-19.09"/>
<polygon fill="#63b8ff" stroke="#63b8ff" points="127.5,-44.75 131,-54.75 134.5,-44.75 127.5,-44.75"/>
</a>
</g>
</g>
<!-- Node4 -->
<g id="Node000004" class="node">
<title>Node4</title>
<g id="a_Node000004"><a xlink:href="alsa-toggle_8c.html" target="_top" xlink:title=" ">
<polygon fill="white" stroke="#666666" points="262,-19 188,-19 188,0 262,0 262,-19"/>
<text text-anchor="middle" x="225" y="-7" font-family="Inter" font-size="10.00">alsa&#45;toggle.c</text>
</a>
</g>
</g>
<!-- Node1&#45;&gt;Node4 -->
<g id="edge3_Node000001_Node000004" class="edge">
<title>Node1&#45;&gt;Node4</title>
<g id="a_edge3_Node000001_Node000004"><a xlink:title=" ">
<path fill="none" stroke="#63b8ff" d="M155,-49.97C172.19,-40.28 194.81,-27.52 209.62,-19.17"/>
<polygon fill="#63b8ff" stroke="#63b8ff" points="153.09,-47.02 146.1,-54.98 156.53,-53.12 153.09,-47.02"/>
</a>
</g>
</g>
</g>
</svg>
