<?xml version="1.0" encoding="UTF-8" standalone="no"?>
<!DOCTYPE svg PUBLIC "-//W3C//DTD SVG 1.1//EN"
 "http://www.w3.org/Graphics/SVG/1.1/DTD/svg11.dtd">
<!-- Generated by graphviz version 2.43.0 (0)
 -->
<!-- Title: appearance&#45;main.c Pages: 1 -->
<!--zoomable 203 -->

<svg id="main" version="1.1" xmlns="http://www.w3.org/2000/svg" xmlns:xlink="http://www.w3.org/1999/xlink" xml:space="preserve" onload="init(evt)">

<style type="text/css"><![CDATA[
.node, .edge {opacity: 0.7;}
.node.selected, .edge.selected {opacity: 1;}
.edge:hover path { stroke: red; }
.edge:hover polygon { stroke: red; fill: red; }
]]></style>

<defs>
  <circle id="rim" cx="0" cy="0" r="7"/>
  <circle id="rim2" cx="0" cy="0" r="3.5"/>
  <g id="zoomPlus">
    <use xlink:href="#rim" fill="#404040"><set attributeName="fill" to="#808080" begin="zoomplus.mouseover" end="zoomplus.mouseout"/></use>
    <path d="M-4,0h8M0,-4v8" fill="none" stroke="white" stroke-width="1.5" pointer-events="none"/>
  </g>
  <g id="zoomMin">
    <use xlink:href="#rim" fill="#404040"><set attributeName="fill" to="#808080" begin="zoomminus.mouseover" end="zoomminus.mouseout"/></use>
    <path d="M-4,0h8" fill="none" stroke="white" stroke-width="1.5" pointer-events="none"/>
  </g>
  <g id="arrowUp" transform="translate(30 24)">
    <use xlink:href="#rim"/>
    <path pointer-events="none" fill="none" stroke="white" stroke-width="1.5" d="M0,-3.0v7 M-2.5,-0.5L0,-3.0L2.5,-0.5"/>
  </g>
  <g id="arrowRight" transform="rotate(90) translate(36 -43)">
    <use xlink:href="#rim"/>
    <path pointer-events="none" fill="none" stroke="white" stroke-width="1.5" d="M0,-3.0v7 M-2.5,-0.5L0,-3.0L2.5,-0.5"/>
  </g>
  <g id="arrowDown" transform="rotate(180) translate(-30 -48)">
    <use xlink:href="#rim"/>
    <path pointer-events="none" fill="none" stroke="white" stroke-width="1.5" d="M0,-3.0v7 M-2.5,-0.5L0,-3.0L2.5,-0.5"/>
  </g>
  <g id="arrowLeft" transform="rotate(270) translate(-36 17)">
    <use xlink:href="#rim"/>
    <path pointer-events="none" fill="none" stroke="white" stroke-width="1.5" d="M0,-3.0v7 M-2.5,-0.5L0,-3.0L2.5,-0.5"/>
  </g>
  <g id="resetDef">
    <use xlink:href="#rim2" fill="#404040"><set attributeName="fill" to="#808080" begin="reset.mouseover" end="reset.mouseout"/></use>
  </g>
</defs>
<script type="application/ecmascript">
var viewWidth = 1596;
var viewHeight = 203;
var sectionId = 'dynsection-0';
</script>
<script type="application/ecmascript" xlink:href="svg.min.js"/>
<svg id="graph" class="graph">
<g id="viewport">
<title>appearance&#45;main.c</title>
<!-- Node1 -->
<g id="Node000001" class="node">
<title>Node1</title>
<g id="a_Node000001"><a xlink:title=" ">
<polygon fill="#999999" stroke="#666666" points="941.5,-195 837.5,-195 837.5,-176 941.5,-176 941.5,-195"/>
<text text-anchor="middle" x="889.5" y="-183" font-family="Inter" font-size="10.00">appearance&#45;main.c</text>
</a>
</g>
</g>
<!-- Node2 -->
<g id="Node000002" class="node">
<title>Node2</title>
<g id="a_Node000002"><a xlink:title=" ">
<polygon fill="#e0e0e0" stroke="#999999" points="1492.5,-79.5 1420.5,-79.5 1420.5,-60.5 1492.5,-60.5 1492.5,-79.5"/>
<text text-anchor="middle" x="1456.5" y="-67.5" font-family="Inter" font-size="10.00">glib/gi18n.h</text>
</a>
</g>
</g>
<!-- Node1&#45;&gt;Node2 -->
<g id="edge1_Node000001_Node000002" class="edge">
<title>Node1&#45;&gt;Node2</title>
<g id="a_edge1_Node000001_Node000002"><a xlink:title=" ">
<path fill="none" stroke="#63b8ff" d="M941.88,-184.46C1078.2,-183.81 1435.9,-178.42 1471.5,-140 1484.33,-126.15 1476.29,-103.99 1467.85,-88.53"/>
<polygon fill="#63b8ff" stroke="#63b8ff" points="1470.84,-86.71 1462.73,-79.9 1464.83,-90.29 1470.84,-86.71"/>
</a>
</g>
</g>
<!-- Node3 -->
<g id="Node000003" class="node">
<title>Node3</title>
<g id="a_Node000003"><a xlink:href="mate-gsettings_8h.html" target="_top" xlink:title=" ">
<polygon fill="white" stroke="#666666" points="319,-85 200,-85 200,-55 319,-55 319,-85"/>
<text text-anchor="start" x="208" y="-73" font-family="Inter" font-size="10.00">libmate&#45;desktop/mate</text>
<text text-anchor="middle" x="259.5" y="-62" font-family="Inter" font-size="10.00">&#45;gsettings.h</text>
</a>
</g>
</g>
<!-- Node1&#45;&gt;Node3 -->
<g id="edge2_Node000001_Node000003" class="edge">
<title>Node1&#45;&gt;Node3</title>
<g id="a_edge2_Node000001_Node000003"><a xlink:title=" ">
<path fill="none" stroke="#63b8ff" d="M837.37,-184.09C697.43,-182.53 321.22,-175.07 278.5,-140 265.52,-129.34 260.95,-110.7 259.53,-95.48"/>
<polygon fill="#63b8ff" stroke="#63b8ff" points="263,-94.96 258.97,-85.16 256.01,-95.33 263,-94.96"/>
</a>
</g>
</g>
<!-- Node6 -->
<g id="Node000006" class="node">
<title>Node6</title>
<g id="a_Node000006"><a xlink:href="appearance_8h.html" target="_top" xlink:title=" ">
<polygon fill="white" stroke="#666666" points="367.5,-140 287.5,-140 287.5,-121 367.5,-121 367.5,-140"/>
<text text-anchor="middle" x="327.5" y="-128" font-family="Inter" font-size="10.00">appearance.h</text>
</a>
</g>
</g>
<!-- Node1&#45;&gt;Node6 -->
<g id="edge5_Node000001_Node000006" class="edge">
<title>Node1&#45;&gt;Node6</title>
<g id="a_edge5_Node000001_Node000006"><a xlink:title=" ">
<path fill="none" stroke="#63b8ff" d="M837.28,-181.45C746.12,-175.79 551.86,-162.31 377.69,-140.04"/>
<polygon fill="#63b8ff" stroke="#63b8ff" points="377.94,-136.55 367.57,-138.74 377.04,-143.49 377.94,-136.55"/>
</a>
</g>
</g>
<!-- Node16 -->
<g id="Node000016" class="node">
<title>Node16</title>
<g id="a_Node000016"><a xlink:href="appearance-desktop_8h.html" target="_top" xlink:title=" ">
<polygon fill="white" stroke="#666666" points="505.5,-140 385.5,-140 385.5,-121 505.5,-121 505.5,-140"/>
<text text-anchor="middle" x="445.5" y="-128" font-family="Inter" font-size="10.00">appearance&#45;desktop.h</text>
</a>
</g>
</g>
<!-- Node1&#45;&gt;Node16 -->
<g id="edge18_Node000001_Node000016" class="edge">
<title>Node1&#45;&gt;Node16</title>
<g id="a_edge18_Node000001_Node000016"><a xlink:title=" ">
<path fill="none" stroke="#63b8ff" d="M837.32,-178.38C766.85,-170.1 637.05,-154.8 515.9,-140.17"/>
<polygon fill="#63b8ff" stroke="#63b8ff" points="516.06,-136.66 505.71,-138.93 515.22,-143.61 516.06,-136.66"/>
</a>
</g>
</g>
<!-- Node17 -->
<g id="Node000017" class="node">
<title>Node17</title>
<g id="a_Node000017"><a xlink:href="appearance-font_8h.html" target="_top" xlink:title=" ">
<polygon fill="white" stroke="#666666" points="625.5,-140 523.5,-140 523.5,-121 625.5,-121 625.5,-140"/>
<text text-anchor="middle" x="574.5" y="-128" font-family="Inter" font-size="10.00">appearance&#45;font.h</text>
</a>
</g>
</g>
<!-- Node1&#45;&gt;Node17 -->
<g id="edge19_Node000001_Node000017" class="edge">
<title>Node1&#45;&gt;Node17</title>
<g id="a_edge19_Node000001_Node000017"><a xlink:title=" ">
<path fill="none" stroke="#63b8ff" d="M838.89,-175.98C783.4,-166.65 694.41,-151.67 635.21,-141.71"/>
<polygon fill="#63b8ff" stroke="#63b8ff" points="635.69,-138.25 625.25,-140.04 634.53,-145.15 635.69,-138.25"/>
</a>
</g>
</g>
<!-- Node18 -->
<g id="Node000018" class="node">
<title>Node18</title>
<g id="a_Node000018"><a xlink:href="appearance-themes_8h.html" target="_top" xlink:title=" ">
<polygon fill="white" stroke="#666666" points="761.5,-140 643.5,-140 643.5,-121 761.5,-121 761.5,-140"/>
<text text-anchor="middle" x="702.5" y="-128" font-family="Inter" font-size="10.00">appearance&#45;themes.h</text>
</a>
</g>
</g>
<!-- Node1&#45;&gt;Node18 -->
<g id="edge20_Node000001_Node000018" class="edge">
<title>Node1&#45;&gt;Node18</title>
<g id="a_edge20_Node000001_Node000018"><a xlink:title=" ">
<path fill="none" stroke="#63b8ff" d="M859.46,-175.98C827.79,-167.01 777.73,-152.82 742.69,-142.89"/>
<polygon fill="#63b8ff" stroke="#63b8ff" points="743.36,-139.44 732.78,-140.08 741.45,-146.18 743.36,-139.44"/>
</a>
</g>
</g>
<!-- Node19 -->
<g id="Node000019" class="node">
<title>Node19</title>
<g id="a_Node000019"><a xlink:href="appearance-style_8h.html" target="_top" xlink:title=" ">
<polygon fill="white" stroke="#666666" points="883.5,-140 779.5,-140 779.5,-121 883.5,-121 883.5,-140"/>
<text text-anchor="middle" x="831.5" y="-128" font-family="Inter" font-size="10.00">appearance&#45;style.h</text>
</a>
</g>
</g>
<!-- Node1&#45;&gt;Node19 -->
<g id="edge21_Node000001_Node000019" class="edge">
<title>Node1&#45;&gt;Node19</title>
<g id="a_edge21_Node000001_Node000019"><a xlink:title=" ">
<path fill="none" stroke="#63b8ff" d="M880.18,-175.98C871.69,-168.23 858.94,-156.58 848.62,-147.14"/>
<polygon fill="#63b8ff" stroke="#63b8ff" points="850.73,-144.33 840.99,-140.17 846.01,-149.5 850.73,-144.33"/>
</a>
</g>
</g>
<!-- Node20 -->
<g id="Node000020" class="node">
<title>Node20</title>
<g id="a_Node000020"><a xlink:href="appearance-ui_8h.html" target="_top" xlink:title=" ">
<polygon fill="white" stroke="#666666" points="993,-140 902,-140 902,-121 993,-121 993,-140"/>
<text text-anchor="middle" x="947.5" y="-128" font-family="Inter" font-size="10.00">appearance&#45;ui.h</text>
</a>
</g>
</g>
<!-- Node1&#45;&gt;Node20 -->
<g id="edge22_Node000001_Node000020" class="edge">
<title>Node1&#45;&gt;Node20</title>
<g id="a_edge22_Node000001_Node000020"><a xlink:title=" ">
<path fill="none" stroke="#63b8ff" d="M898.82,-175.98C907.31,-168.23 920.06,-156.58 930.38,-147.14"/>
<polygon fill="#63b8ff" stroke="#63b8ff" points="932.99,-149.5 938.01,-140.17 928.27,-144.33 932.99,-149.5"/>
</a>
</g>
</g>
<!-- Node21 -->
<g id="Node000021" class="node">
<title>Node21</title>
<g id="a_Node000021"><a xlink:href="appearance-support_8h.html" target="_top" xlink:title=" ">
<polygon fill="white" stroke="#666666" points="1130,-140 1011,-140 1011,-121 1130,-121 1130,-140"/>
<text text-anchor="middle" x="1070.5" y="-128" font-family="Inter" font-size="10.00">appearance&#45;support.h</text>
</a>
</g>
</g>
<!-- Node1&#45;&gt;Node21 -->
<g id="edge23_Node000001_Node000021" class="edge">
<title>Node1&#45;&gt;Node21</title>
<g id="a_edge23_Node000001_Node000021"><a xlink:title=" ">
<path fill="none" stroke="#63b8ff" d="M918.58,-175.98C949.1,-167.05 997.26,-152.94 1031.16,-143.02"/>
<polygon fill="#63b8ff" stroke="#63b8ff" points="1032.58,-146.25 1041.19,-140.08 1030.61,-139.53 1032.58,-146.25"/>
</a>
</g>
</g>
<!-- Node22 -->
<g id="Node000022" class="node">
<title>Node22</title>
<g id="a_Node000022"><a xlink:href="theme-installer_8h.html" target="_top" xlink:title=" ">
<polygon fill="white" stroke="#666666" points="1242.5,-140 1148.5,-140 1148.5,-121 1242.5,-121 1242.5,-140"/>
<text text-anchor="middle" x="1195.5" y="-128" font-family="Inter" font-size="10.00">theme&#45;installer.h</text>
</a>
</g>
</g>
<!-- Node1&#45;&gt;Node22 -->
<g id="edge24_Node000001_Node000022" class="edge">
<title>Node1&#45;&gt;Node22</title>
<g id="a_edge24_Node000001_Node000022"><a xlink:title=" ">
<path fill="none" stroke="#63b8ff" d="M938.66,-175.98C993.17,-166.54 1080.97,-151.34 1138.45,-141.38"/>
<polygon fill="#63b8ff" stroke="#63b8ff" points="1139.21,-144.8 1148.47,-139.65 1138.02,-137.9 1139.21,-144.8"/>
</a>
</g>
</g>
<!-- Node23 -->
<g id="Node000023" class="node">
<title>Node23</title>
<g id="a_Node000023"><a xlink:href="theme-thumbnail_8h.html" target="_top" xlink:title=" ">
<polygon fill="white" stroke="#666666" points="1366.5,-140 1260.5,-140 1260.5,-121 1366.5,-121 1366.5,-140"/>
<text text-anchor="middle" x="1313.5" y="-128" font-family="Inter" font-size="10.00">theme&#45;thumbnail.h</text>
</a>
</g>
</g>
<!-- Node1&#45;&gt;Node23 -->
<g id="edge25_Node000001_Node000023" class="edge">
<title>Node1&#45;&gt;Node23</title>
<g id="a_edge25_Node000001_Node000023"><a xlink:title=" ">
<path fill="none" stroke="#63b8ff" d="M941.68,-178.32C1010.07,-170.16 1134.03,-155.2 1250.26,-140.15"/>
<polygon fill="#63b8ff" stroke="#63b8ff" points="1250.94,-143.59 1260.41,-138.83 1250.04,-136.65 1250.94,-143.59"/>
</a>
</g>
</g>
<!-- Node24 -->
<g id="Node000024" class="node">
<title>Node24</title>
<g id="a_Node000024"><a xlink:href="activate-settings-daemon_8h.html" target="_top" xlink:title=" ">
<polygon fill="white" stroke="#666666" points="143,-79.5 0,-79.5 0,-60.5 143,-60.5 143,-79.5"/>
<text text-anchor="middle" x="71.5" y="-67.5" font-family="Inter" font-size="10.00">activate&#45;settings&#45;daemon.h</text>
</a>
</g>
</g>
<!-- Node1&#45;&gt;Node24 -->
<g id="edge28_Node000001_Node000024" class="edge">
<title>Node1&#45;&gt;Node24</title>
<g id="a_edge28_Node000001_Node000024"><a xlink:title=" ">
<path fill="none" stroke="#63b8ff" d="M837.23,-182.66C707.05,-177.79 370.95,-163.28 261.5,-140 201.73,-127.29 135.36,-99.95 99.03,-83.76"/>
<polygon fill="#63b8ff" stroke="#63b8ff" points="100.16,-80.43 89.61,-79.51 97.28,-86.81 100.16,-80.43"/>
</a>
</g>
</g>
<!-- Node25 -->
<g id="Node000025" class="node">
<title>Node25</title>
<g id="a_Node000025"><a xlink:href="capplet-util_8h.html" target="_top" xlink:title=" ">
<polygon fill="white" stroke="#666666" points="1462,-140 1385,-140 1385,-121 1462,-121 1462,-140"/>
<text text-anchor="middle" x="1423.5" y="-128" font-family="Inter" font-size="10.00">capplet&#45;util.h</text>
</a>
</g>
</g>
<!-- Node1&#45;&gt;Node25 -->
<g id="edge30_Node000001_Node000025" class="edge">
<title>Node1&#45;&gt;Node25</title>
<g id="a_edge30_Node000001_Node000025"><a xlink:title=" ">
<path fill="none" stroke="#63b8ff" d="M941.8,-181.16C1029.2,-175.26 1210.62,-161.66 1374.5,-140.02"/>
<polygon fill="#63b8ff" stroke="#63b8ff" points="1375.32,-143.44 1384.77,-138.65 1374.4,-136.5 1375.32,-143.44"/>
</a>
</g>
</g>
<!-- Node26 -->
<g id="Node000026" class="node">
<title>Node26</title>
<g id="a_Node000026"><a xlink:title=" ">
<polygon fill="#e0e0e0" stroke="#999999" points="1588,-140 1519,-140 1519,-121 1588,-121 1588,-140"/>
<text text-anchor="middle" x="1553.5" y="-128" font-family="Inter" font-size="10.00">gdk/gdkx.h</text>
</a>
</g>
</g>
<!-- Node1&#45;&gt;Node26 -->
<g id="edge34_Node000001_Node000026" class="edge">
<title>Node1&#45;&gt;Node26</title>
<g id="a_edge34_Node000001_Node000026"><a xlink:title=" ">
<path fill="none" stroke="#63b8ff" d="M941.5,-182.49C1047.65,-177.99 1296.77,-165.47 1504.5,-140 1505.8,-139.84 1507.12,-139.67 1508.45,-139.49"/>
<polygon fill="#63b8ff" stroke="#63b8ff" points="1509.38,-142.89 1518.76,-137.97 1508.36,-135.97 1509.38,-142.89"/>
</a>
</g>
</g>
<!-- Node4 -->
<g id="Node000004" class="node">
<title>Node4</title>
<g id="a_Node000004"><a xlink:title=" ">
<polygon fill="#e0e0e0" stroke="#999999" points="280.5,-19 238.5,-19 238.5,0 280.5,0 280.5,-19"/>
<text text-anchor="middle" x="259.5" y="-7" font-family="Inter" font-size="10.00">glib.h</text>
</a>
</g>
</g>
<!-- Node3&#45;&gt;Node4 -->
<g id="edge3_Node000003_Node000004" class="edge">
<title>Node3&#45;&gt;Node4</title>
<g id="a_edge3_Node000003_Node000004"><a xlink:title=" ">
<path fill="none" stroke="#63b8ff" d="M259.5,-54.84C259.5,-47.21 259.5,-37.7 259.5,-29.45"/>
<polygon fill="#63b8ff" stroke="#63b8ff" points="263,-29.27 259.5,-19.27 256,-29.27 263,-29.27"/>
</a>
</g>
</g>
<!-- Node5 -->
<g id="Node000005" class="node">
<title>Node5</title>
<g id="a_Node000005"><a xlink:title=" ">
<polygon fill="#e0e0e0" stroke="#999999" points="625.5,-19 567.5,-19 567.5,0 625.5,0 625.5,-19"/>
<text text-anchor="middle" x="596.5" y="-7" font-family="Inter" font-size="10.00">gio/gio.h</text>
</a>
</g>
</g>
<!-- Node3&#45;&gt;Node5 -->
<g id="edge4_Node000003_Node000005" class="edge">
<title>Node3&#45;&gt;Node5</title>
<g id="a_edge4_Node000003_Node000005"><a xlink:title=" ">
<path fill="none" stroke="#63b8ff" d="M319.31,-56.73C322.42,-56.13 325.49,-55.55 328.5,-55 409.65,-40.04 505.04,-24.74 557.32,-16.56"/>
<polygon fill="#63b8ff" stroke="#63b8ff" points="558.15,-19.97 567.49,-14.97 557.07,-13.05 558.15,-19.97"/>
</a>
</g>
</g>
<!-- Node6&#45;&gt;Node4 -->
<g id="edge7_Node000006_Node000004" class="edge">
<title>Node6&#45;&gt;Node4</title>
<g id="a_edge7_Node000006_Node000004"><a xlink:title=" ">
<path fill="none" stroke="#63b8ff" d="M287.19,-128.47C255.22,-125.27 212.4,-115.14 190.5,-85 182.66,-74.21 184.12,-66.71 190.5,-55 198.78,-39.8 214.73,-29.01 229.2,-21.87"/>
<polygon fill="#63b8ff" stroke="#63b8ff" points="230.75,-25.01 238.41,-17.69 227.86,-18.63 230.75,-25.01"/>
</a>
</g>
</g>
<!-- Node6&#45;&gt;Node5 -->
<g id="edge9_Node000006_Node000005" class="edge">
<title>Node6&#45;&gt;Node5</title>
<g id="a_edge9_Node000006_Node000005"><a xlink:title=" ">
<path fill="none" stroke="#63b8ff" d="M367.79,-122.48C424.67,-112.35 523.21,-93.86 537.5,-85 560.01,-71.05 577.48,-45.31 587.39,-28.04"/>
<polygon fill="#63b8ff" stroke="#63b8ff" points="590.6,-29.46 592.33,-19.01 584.46,-26.11 590.6,-29.46"/>
</a>
</g>
</g>
<!-- Node7 -->
<g id="Node000007" class="node">
<title>Node7</title>
<g id="a_Node000007"><a xlink:title=" ">
<polygon fill="#e0e0e0" stroke="#999999" points="528.5,-79.5 474.5,-79.5 474.5,-60.5 528.5,-60.5 528.5,-79.5"/>
<text text-anchor="middle" x="501.5" y="-67.5" font-family="Inter" font-size="10.00">config.h</text>
</a>
</g>
</g>
<!-- Node6&#45;&gt;Node7 -->
<g id="edge6_Node000006_Node000007" class="edge">
<title>Node6&#45;&gt;Node7</title>
<g id="a_edge6_Node000006_Node000007"><a xlink:title=" ">
<path fill="none" stroke="#63b8ff" d="M355.68,-120.95C383.68,-112.32 427.78,-98.4 465.5,-85 467.15,-84.41 468.84,-83.8 470.54,-83.17"/>
<polygon fill="#63b8ff" stroke="#63b8ff" points="472.14,-86.31 480.26,-79.5 469.67,-79.76 472.14,-86.31"/>
</a>
</g>
</g>
<!-- Node8 -->
<g id="Node000008" class="node">
<title>Node8</title>
<g id="a_Node000008"><a xlink:title=" ">
<polygon fill="#e0e0e0" stroke="#999999" points="834,-19 775,-19 775,0 834,0 834,-19"/>
<text text-anchor="middle" x="804.5" y="-7" font-family="Inter" font-size="10.00">gtk/gtk.h</text>
</a>
</g>
</g>
<!-- Node6&#45;&gt;Node8 -->
<g id="edge8_Node000006_Node000008" class="edge">
<title>Node6&#45;&gt;Node8</title>
<g id="a_edge8_Node000006_Node000008"><a xlink:title=" ">
<path fill="none" stroke="#63b8ff" d="M367.58,-122.35C370.6,-121.87 373.59,-121.41 376.5,-121 518.62,-100.72 564.38,-138.74 697.5,-85 717.78,-76.81 718.67,-67.66 736.5,-55 751.45,-44.38 768.76,-33.07 782.16,-24.51"/>
<polygon fill="#63b8ff" stroke="#63b8ff" points="784.18,-27.38 790.75,-19.07 780.43,-21.47 784.18,-27.38"/>
</a>
</g>
</g>
<!-- Node9 -->
<g id="Node000009" class="node">
<title>Node9</title>
<g id="a_Node000009"><a xlink:href="mate-desktop-thumbnail_8h.html" target="_top" xlink:title=" ">
<polygon fill="#fff0f0" stroke="red" points="456,-85 337,-85 337,-55 456,-55 456,-85"/>
<text text-anchor="start" x="345" y="-73" font-family="Inter" font-size="10.00">libmate&#45;desktop/mate</text>
<text text-anchor="middle" x="396.5" y="-62" font-family="Inter" font-size="10.00">&#45;desktop&#45;thumbnail.h</text>
</a>
</g>
</g>
<!-- Node6&#45;&gt;Node9 -->
<g id="edge10_Node000006_Node000009" class="edge">
<title>Node6&#45;&gt;Node9</title>
<g id="a_edge10_Node000006_Node000009"><a xlink:title=" ">
<path fill="none" stroke="#63b8ff" d="M337.68,-120.87C346.7,-113.22 360.22,-101.76 372.03,-91.75"/>
<polygon fill="#63b8ff" stroke="#63b8ff" points="374.49,-94.25 379.85,-85.11 369.96,-88.91 374.49,-94.25"/>
</a>
</g>
</g>
<!-- Node13 -->
<g id="Node000013" class="node">
<title>Node13</title>
<g id="a_Node000013"><a xlink:href="mate-image-menu-item_8h.html" target="_top" xlink:title=" ">
<polygon fill="white" stroke="#666666" points="864,-85 745,-85 745,-55 864,-55 864,-85"/>
<text text-anchor="start" x="753" y="-73" font-family="Inter" font-size="10.00">libmate&#45;desktop/mate</text>
<text text-anchor="middle" x="804.5" y="-62" font-family="Inter" font-size="10.00">&#45;image&#45;menu&#45;item.h</text>
</a>
</g>
</g>
<!-- Node6&#45;&gt;Node13 -->
<g id="edge12_Node000006_Node000013" class="edge">
<title>Node6&#45;&gt;Node13</title>
<g id="a_edge12_Node000006_Node000013"><a xlink:title=" ">
<path fill="none" stroke="#63b8ff" d="M367.58,-122.31C370.59,-121.84 373.59,-121.4 376.5,-121 533.17,-99.47 574,-107.72 730.5,-85 731.96,-84.79 733.43,-84.57 734.91,-84.34"/>
<polygon fill="#63b8ff" stroke="#63b8ff" points="735.48,-87.79 744.8,-82.75 734.37,-80.88 735.48,-87.79"/>
</a>
</g>
</g>
<!-- Node14 -->
<g id="Node000014" class="node">
<title>Node14</title>
<g id="a_Node000014"><a xlink:href="mate-theme-info_8h.html" target="_top" xlink:title=" ">
<polygon fill="#fff0f0" stroke="red" points="688.5,-79.5 584.5,-79.5 584.5,-60.5 688.5,-60.5 688.5,-79.5"/>
<text text-anchor="middle" x="636.5" y="-67.5" font-family="Inter" font-size="10.00">mate&#45;theme&#45;info.h</text>
</a>
</g>
</g>
<!-- Node6&#45;&gt;Node14 -->
<g id="edge14_Node000006_Node000014" class="edge">
<title>Node6&#45;&gt;Node14</title>
<g id="a_edge14_Node000006_Node000014"><a xlink:title=" ">
<path fill="none" stroke="#63b8ff" d="M367.55,-122.52C415.78,-114.03 499.18,-99.09 570.5,-85 575.89,-83.94 581.51,-82.79 587.11,-81.63"/>
<polygon fill="#63b8ff" stroke="#63b8ff" points="588.03,-85.02 597.1,-79.55 586.6,-78.17 588.03,-85.02"/>
</a>
</g>
</g>
<!-- Node9&#45;&gt;Node4 -->
<g id="edge11_Node000009_Node000004" class="edge">
<title>Node9&#45;&gt;Node4</title>
<g id="a_edge11_Node000009_Node000004"><a xlink:title=" ">
<path fill="none" stroke="#63b8ff" d="M363.69,-54.99C341.03,-45.31 311.15,-32.56 289.2,-23.18"/>
<polygon fill="#63b8ff" stroke="#63b8ff" points="290.3,-19.85 279.73,-19.14 287.55,-26.29 290.3,-19.85"/>
</a>
</g>
</g>
<!-- Node13&#45;&gt;Node8 -->
<g id="edge13_Node000013_Node000008" class="edge">
<title>Node13&#45;&gt;Node8</title>
<g id="a_edge13_Node000013_Node000008"><a xlink:title=" ">
<path fill="none" stroke="#63b8ff" d="M804.5,-54.84C804.5,-47.21 804.5,-37.7 804.5,-29.45"/>
<polygon fill="#63b8ff" stroke="#63b8ff" points="808,-29.27 804.5,-19.27 801,-29.27 808,-29.27"/>
</a>
</g>
</g>
<!-- Node14&#45;&gt;Node4 -->
<g id="edge15_Node000014_Node000004" class="edge">
<title>Node14&#45;&gt;Node4</title>
<g id="a_edge15_Node000014_Node000004"><a xlink:title=" ">
<path fill="none" stroke="#63b8ff" d="M584.48,-60.93C504.88,-48.58 355.3,-25.37 290.62,-15.33"/>
<polygon fill="#63b8ff" stroke="#63b8ff" points="291.05,-11.85 280.63,-13.78 289.97,-18.77 291.05,-11.85"/>
</a>
</g>
</g>
<!-- Node14&#45;&gt;Node5 -->
<g id="edge16_Node000014_Node000005" class="edge">
<title>Node14&#45;&gt;Node5</title>
<g id="a_edge16_Node000014_Node000005"><a xlink:title=" ">
<path fill="none" stroke="#63b8ff" d="M630.6,-60.37C624.75,-51.81 615.63,-38.47 608.29,-27.74"/>
<polygon fill="#63b8ff" stroke="#63b8ff" points="610.96,-25.45 602.43,-19.17 605.18,-29.4 610.96,-25.45"/>
</a>
</g>
</g>
<!-- Node14&#45;&gt;Node8 -->
<g id="edge17_Node000014_Node000008" class="edge">
<title>Node14&#45;&gt;Node8</title>
<g id="a_edge17_Node000014_Node000008"><a xlink:title=" ">
<path fill="none" stroke="#63b8ff" d="M660.93,-60.49C689.79,-50.44 738,-33.66 770.5,-22.34"/>
<polygon fill="#63b8ff" stroke="#63b8ff" points="771.75,-25.61 780.04,-19.02 769.45,-19 771.75,-25.61"/>
</a>
</g>
</g>
<!-- Node23&#45;&gt;Node8 -->
<g id="edge26_Node000023_Node000008" class="edge">
<title>Node23&#45;&gt;Node8</title>
<g id="a_edge26_Node000023_Node000008"><a xlink:title=" ">
<path fill="none" stroke="#63b8ff" d="M1276.89,-120.94C1184.08,-99.24 940.14,-42.21 844.13,-19.77"/>
<polygon fill="#63b8ff" stroke="#63b8ff" points="844.78,-16.32 834.24,-17.45 843.18,-23.14 844.78,-16.32"/>
</a>
</g>
</g>
<!-- Node23&#45;&gt;Node14 -->
<g id="edge27_Node000023_Node000014" class="edge">
<title>Node23&#45;&gt;Node14</title>
<g id="a_edge27_Node000023_Node000014"><a xlink:title=" ">
<path fill="none" stroke="#63b8ff" d="M1260.43,-121.99C1257.41,-121.63 1254.42,-121.3 1251.5,-121 1023.27,-97.4 964.7,-108.92 736.5,-85 724.19,-83.71 711.06,-82.07 698.5,-80.36"/>
<polygon fill="#63b8ff" stroke="#63b8ff" points="698.96,-76.89 688.58,-78.99 698,-83.83 698.96,-76.89"/>
</a>
</g>
</g>
<!-- Node24&#45;&gt;Node4 -->
<g id="edge29_Node000024_Node000004" class="edge">
<title>Node24&#45;&gt;Node4</title>
<g id="a_edge29_Node000024_Node000004"><a xlink:title=" ">
<path fill="none" stroke="#63b8ff" d="M98.84,-60.49C133.22,-49.79 192.13,-31.46 228.27,-20.22"/>
<polygon fill="#63b8ff" stroke="#63b8ff" points="229.74,-23.42 238.25,-17.11 227.66,-16.74 229.74,-23.42"/>
</a>
</g>
</g>
<!-- Node25&#45;&gt;Node2 -->
<g id="edge33_Node000025_Node000002" class="edge">
<title>Node25&#45;&gt;Node2</title>
<g id="a_edge33_Node000025_Node000002"><a xlink:title=" ">
<path fill="none" stroke="#63b8ff" d="M1428.37,-120.87C1433.15,-112.4 1440.57,-99.24 1446.59,-88.57"/>
<polygon fill="#63b8ff" stroke="#63b8ff" points="1449.75,-90.1 1451.61,-79.67 1443.65,-86.66 1449.75,-90.1"/>
</a>
</g>
</g>
<!-- Node25&#45;&gt;Node5 -->
<g id="edge31_Node000025_Node000005" class="edge">
<title>Node25&#45;&gt;Node5</title>
<g id="a_edge31_Node000025_Node000005"><a xlink:title=" ">
<path fill="none" stroke="#63b8ff" d="M1384.75,-122.52C1381.62,-121.99 1378.51,-121.48 1375.5,-121 1092.3,-75.85 749.68,-30.44 635.57,-15.56"/>
<polygon fill="#63b8ff" stroke="#63b8ff" points="635.92,-12.08 625.56,-14.26 635.02,-19.02 635.92,-12.08"/>
</a>
</g>
</g>
<!-- Node25&#45;&gt;Node8 -->
<g id="edge32_Node000025_Node000008" class="edge">
<title>Node25&#45;&gt;Node8</title>
<g id="a_edge32_Node000025_Node000008"><a xlink:title=" ">
<path fill="none" stroke="#63b8ff" d="M1405.04,-120.92C1370.06,-105.08 1291.38,-71.35 1221.5,-55 1085.69,-23.23 919.61,-14.09 844.63,-11.5"/>
<polygon fill="#63b8ff" stroke="#63b8ff" points="844.35,-7.99 834.24,-11.16 844.12,-14.98 844.35,-7.99"/>
</a>
</g>
</g>
</g>
</svg>

<g id="navigator" transform="translate(0 0)" fill="#404254">
  <rect fill="#f2f5e9" fill-opacity="0.5" stroke="#606060" stroke-width=".5" x="0" y="0" width="60" height="60"/>
  <use id="zoomplus" xlink:href="#zoomPlus" x="17" y="9" onmousedown="handleZoom(evt,'in')"/>
  <use id="zoomminus" xlink:href="#zoomMin" x="42" y="9" onmousedown="handleZoom(evt,'out')"/>
  <use id="reset" xlink:href="#resetDef" x="30" y="36" onmousedown="handleReset()"/>
   <use id="arrowup" xlink:href="#arrowUp" x="0" y="0" onmousedown="handlePan(0,-1)"/>
  <use id="arrowright" xlink:href="#arrowRight" x="0" y="0" onmousedown="handlePan(1,0)"/>
  <use id="arrowdown" xlink:href="#arrowDown" x="0" y="0" onmousedown="handlePan(0,1)"/>
  <use id="arrowleft" xlink:href="#arrowLeft" x="0" y="0" onmousedown="handlePan(-1,0)"/>
</g>
<svg viewBox="0 0 15 15" width="100%" height="30px" preserveAspectRatio="xMaxYMin meet">
 <g id="arrow_out" transform="scale(0.3 0.3)">
  <a xlink:href="appearance-main_8c__incl_org.svg" target="_base">
   <rect id="button" ry="5" rx="5" y="6" x="6" height="38" width="38"
        fill="#f2f5e9" fill-opacity="0.5" stroke="#606060" stroke-width="1.0"/>
   <path id="arrow"
     d="M 11.500037,31.436501 C 11.940474,20.09759 22.043105,11.32322 32.158766,21.979434 L 37.068811,17.246167 C 37.068811,17.246167 37.088388,32 37.088388,32 L 22.160133,31.978069 C 22.160133,31.978069 26.997745,27.140456 26.997745,27.140456 C 18.528582,18.264221 13.291696,25.230495 11.500037,31.436501 z"
     style="fill:#404040;"/>
  </a>
 </g>
</svg>

<style type='text/css'>
<![CDATA[
[data-mouse-over-selected='false'] { opacity: 0.7; }
[data-mouse-over-selected='true']  { opacity: 1.0; }
]]>
</style>
<script type="application/ecmascript"><![CDATA[
document.addEventListener('DOMContentLoaded', (event) => {
  highlightEdges();
  highlightAdjacentNodes();
});
]]></script>
</svg>
