<?xml version="1.0" encoding="UTF-8" standalone="no"?>
<!DOCTYPE svg PUBLIC "-//W3C//DTD SVG 1.1//EN"
 "http://www.w3.org/Graphics/SVG/1.1/DTD/svg11.dtd">
<!-- Generated by graphviz version 2.43.0 (0)
 -->
<!-- Title: util.c Pages: 1 -->
<svg width="1418pt" height="192pt"
 viewBox="0.00 0.00 1417.92 192.00" xmlns="http://www.w3.org/2000/svg" xmlns:xlink="http://www.w3.org/1999/xlink">
<g id="graph0" class="graph" transform="scale(1 1) rotate(0) translate(4 188)">
<title>util.c</title>
<!-- Node1 -->
<g id="Node000001" class="node">
<title>Node1</title>
<g id="a_Node000001"><a xlink:title=" ">
<polygon fill="#999999" stroke="#666666" points="381.42,-184 343.42,-184 343.42,-165 381.42,-165 381.42,-184"/>
<text text-anchor="middle" x="362.42" y="-172" font-family="Inter" font-size="10.00">util.c</text>
</a>
</g>
</g>
<!-- Node2 -->
<g id="Node000002" class="node">
<title>Node2</title>
<g id="a_Node000002"><a xlink:title=" ">
<polygon fill="#e0e0e0" stroke="#999999" points="292.42,-19 238.42,-19 238.42,0 292.42,0 292.42,-19"/>
<text text-anchor="middle" x="265.42" y="-7" font-family="Inter" font-size="10.00">config.h</text>
</a>
</g>
</g>
<!-- Node1&#45;&gt;Node2 -->
<g id="edge1_Node000001_Node000002" class="edge">
<title>Node1&#45;&gt;Node2</title>
<g id="a_edge1_Node000001_Node000002"><a xlink:title=" ">
<path fill="none" stroke="#63b8ff" d="M343.07,-172.62C282.66,-169.59 98.52,-158.13 47.42,-129 20.23,-113.49 13.78,-103.54 3.42,-74 0.63,-66.03 -2.03,-61.45 3.42,-55 31.69,-21.53 162.22,-13.23 227.72,-11.17"/>
<polygon fill="#63b8ff" stroke="#63b8ff" points="228.13,-14.66 238.03,-10.88 227.93,-7.67 228.13,-14.66"/>
</a>
</g>
</g>
<!-- Node3 -->
<g id="Node000003" class="node">
<title>Node3</title>
<g id="a_Node000003"><a xlink:title=" ">
<polygon fill="#e0e0e0" stroke="#999999" points="400.42,-74 314.42,-74 314.42,-55 400.42,-55 400.42,-74"/>
<text text-anchor="middle" x="357.42" y="-62" font-family="Inter" font-size="10.00">glib/gi18n&#45;lib.h</text>
</a>
</g>
</g>
<!-- Node1&#45;&gt;Node3 -->
<g id="edge2_Node000001_Node000003" class="edge">
<title>Node1&#45;&gt;Node3</title>
<g id="a_edge2_Node000001_Node000003"><a xlink:title=" ">
<path fill="none" stroke="#63b8ff" d="M381.58,-173.63C440.36,-173.57 616.31,-169.94 651.42,-129 656.92,-122.59 656.94,-116.4 651.42,-110 617.72,-70.91 478.36,-81.15 410.75,-73.92"/>
<polygon fill="#63b8ff" stroke="#63b8ff" points="410.91,-70.41 400.55,-72.6 410.01,-77.35 410.91,-70.41"/>
</a>
</g>
</g>
<!-- Node4 -->
<g id="Node000004" class="node">
<title>Node4</title>
<g id="a_Node000004"><a xlink:title=" ">
<polygon fill="#e0e0e0" stroke="#999999" points="60.42,-74 12.42,-74 12.42,-55 60.42,-55 60.42,-74"/>
<text text-anchor="middle" x="36.42" y="-62" font-family="Inter" font-size="10.00">stdio.h</text>
</a>
</g>
</g>
<!-- Node1&#45;&gt;Node4 -->
<g id="edge3_Node000001_Node000004" class="edge">
<title>Node1&#45;&gt;Node4</title>
<g id="a_edge3_Node000001_Node000004"><a xlink:title=" ">
<path fill="none" stroke="#63b8ff" d="M343.2,-172.89C284.95,-170.68 111.68,-161.49 67.42,-129 52.76,-118.24 44.69,-98.65 40.49,-84.07"/>
<polygon fill="#63b8ff" stroke="#63b8ff" points="43.82,-82.96 37.98,-74.12 37.03,-84.67 43.82,-82.96"/>
</a>
</g>
</g>
<!-- Node5 -->
<g id="Node000005" class="node">
<title>Node5</title>
<g id="a_Node000005"><a xlink:title=" ">
<polygon fill="#e0e0e0" stroke="#999999" points="210.42,-129 160.42,-129 160.42,-110 210.42,-110 210.42,-129"/>
<text text-anchor="middle" x="185.42" y="-117" font-family="Inter" font-size="10.00">stdlib.h</text>
</a>
</g>
</g>
<!-- Node1&#45;&gt;Node5 -->
<g id="edge4_Node000001_Node000005" class="edge">
<title>Node1&#45;&gt;Node5</title>
<g id="a_edge4_Node000001_Node000005"><a xlink:title=" ">
<path fill="none" stroke="#63b8ff" d="M343.14,-167.73C313.74,-158.92 257.24,-142 220.45,-130.99"/>
<polygon fill="#63b8ff" stroke="#63b8ff" points="221.22,-127.57 210.64,-128.05 219.22,-134.27 221.22,-127.57"/>
</a>
</g>
</g>
<!-- Node6 -->
<g id="Node000006" class="node">
<title>Node6</title>
<g id="a_Node000006"><a xlink:title=" ">
<polygon fill="#e0e0e0" stroke="#999999" points="283.92,-129 228.92,-129 228.92,-110 283.92,-110 283.92,-129"/>
<text text-anchor="middle" x="256.42" y="-117" font-family="Inter" font-size="10.00">stdarg.h</text>
</a>
</g>
</g>
<!-- Node1&#45;&gt;Node6 -->
<g id="edge5_Node000001_Node000006" class="edge">
<title>Node1&#45;&gt;Node6</title>
<g id="a_edge5_Node000001_Node000006"><a xlink:title=" ">
<path fill="none" stroke="#63b8ff" d="M345.39,-164.98C328.49,-156.54 302.36,-143.47 282.78,-133.68"/>
<polygon fill="#63b8ff" stroke="#63b8ff" points="284.27,-130.51 273.76,-129.17 281.14,-136.77 284.27,-130.51"/>
</a>
</g>
</g>
<!-- Node7 -->
<g id="Node000007" class="node">
<title>Node7</title>
<g id="a_Node000007"><a xlink:title=" ">
<polygon fill="#e0e0e0" stroke="#999999" points="354.92,-129 301.92,-129 301.92,-110 354.92,-110 354.92,-129"/>
<text text-anchor="middle" x="328.42" y="-117" font-family="Inter" font-size="10.00">string.h</text>
</a>
</g>
</g>
<!-- Node1&#45;&gt;Node7 -->
<g id="edge6_Node000001_Node000007" class="edge">
<title>Node1&#45;&gt;Node7</title>
<g id="a_edge6_Node000001_Node000007"><a xlink:title=" ">
<path fill="none" stroke="#63b8ff" d="M356.81,-164.75C352.11,-157.42 345.25,-146.73 339.45,-137.7"/>
<polygon fill="#63b8ff" stroke="#63b8ff" points="342.28,-135.62 333.93,-129.09 336.39,-139.4 342.28,-135.62"/>
</a>
</g>
</g>
<!-- Node8 -->
<g id="Node000008" class="node">
<title>Node8</title>
<g id="a_Node000008"><a xlink:title=" ">
<polygon fill="#e0e0e0" stroke="#999999" points="419.92,-129 372.92,-129 372.92,-110 419.92,-110 419.92,-129"/>
<text text-anchor="middle" x="396.42" y="-117" font-family="Inter" font-size="10.00">time.h</text>
</a>
</g>
</g>
<!-- Node1&#45;&gt;Node8 -->
<g id="edge7_Node000001_Node000008" class="edge">
<title>Node1&#45;&gt;Node8</title>
<g id="a_edge7_Node000001_Node000008"><a xlink:title=" ">
<path fill="none" stroke="#63b8ff" d="M368.04,-164.75C372.74,-157.42 379.6,-146.73 385.39,-137.7"/>
<polygon fill="#63b8ff" stroke="#63b8ff" points="388.46,-139.4 390.91,-129.09 382.57,-135.62 388.46,-139.4"/>
</a>
</g>
</g>
<!-- Node9 -->
<g id="Node000009" class="node">
<title>Node9</title>
<g id="a_Node000009"><a xlink:title=" ">
<polygon fill="#e0e0e0" stroke="#999999" points="498.92,-129 437.92,-129 437.92,-110 498.92,-110 498.92,-129"/>
<text text-anchor="middle" x="468.42" y="-117" font-family="Inter" font-size="10.00">sys/stat.h</text>
</a>
</g>
</g>
<!-- Node1&#45;&gt;Node9 -->
<g id="edge8_Node000001_Node000009" class="edge">
<title>Node1&#45;&gt;Node9</title>
<g id="a_edge8_Node000001_Node000009"><a xlink:title=" ">
<path fill="none" stroke="#63b8ff" d="M379.45,-164.98C396.35,-156.54 422.49,-143.47 442.07,-133.68"/>
<polygon fill="#63b8ff" stroke="#63b8ff" points="443.7,-136.77 451.08,-129.17 440.57,-130.51 443.7,-136.77"/>
</a>
</g>
</g>
<!-- Node10 -->
<g id="Node000010" class="node">
<title>Node10</title>
<g id="a_Node000010"><a xlink:title=" ">
<polygon fill="#e0e0e0" stroke="#999999" points="569.92,-129 516.92,-129 516.92,-110 569.92,-110 569.92,-129"/>
<text text-anchor="middle" x="543.42" y="-117" font-family="Inter" font-size="10.00">errno.h</text>
</a>
</g>
</g>
<!-- Node1&#45;&gt;Node10 -->
<g id="edge9_Node000001_Node000010" class="edge">
<title>Node1&#45;&gt;Node10</title>
<g id="a_edge9_Node000001_Node000010"><a xlink:title=" ">
<path fill="none" stroke="#63b8ff" d="M381.45,-167.93C411.2,-159.22 469.22,-142.23 507.14,-131.12"/>
<polygon fill="#63b8ff" stroke="#63b8ff" points="508.17,-134.47 516.79,-128.3 506.21,-127.75 508.17,-134.47"/>
</a>
</g>
</g>
<!-- Node11 -->
<g id="Node000011" class="node">
<title>Node11</title>
<g id="a_Node000011"><a xlink:title=" ">
<polygon fill="#e0e0e0" stroke="#999999" points="642.42,-129 588.42,-129 588.42,-110 642.42,-110 642.42,-129"/>
<text text-anchor="middle" x="615.42" y="-117" font-family="Inter" font-size="10.00">unistd.h</text>
</a>
</g>
</g>
<!-- Node1&#45;&gt;Node11 -->
<g id="edge10_Node000001_Node000011" class="edge">
<title>Node1&#45;&gt;Node11</title>
<g id="a_edge10_Node000001_Node000011"><a xlink:title=" ">
<path fill="none" stroke="#63b8ff" d="M381.52,-169.72C419.22,-162.21 505.85,-144.81 578.42,-129 578.52,-128.98 578.62,-128.96 578.73,-128.93"/>
<polygon fill="#63b8ff" stroke="#63b8ff" points="579.36,-132.38 588.36,-126.79 577.84,-125.55 579.36,-132.38"/>
</a>
</g>
</g>
<!-- Node12 -->
<g id="Node000012" class="node">
<title>Node12</title>
<g id="a_Node000012"><a xlink:href="atril_2backend_2dvi_2mdvi-lib_2common_8h.html" target="_top" xlink:title=" ">
<polygon fill="white" stroke="#666666" points="142.42,-129 76.42,-129 76.42,-110 142.42,-110 142.42,-129"/>
<text text-anchor="middle" x="109.42" y="-117" font-family="Inter" font-size="10.00">common.h</text>
</a>
</g>
</g>
<!-- Node1&#45;&gt;Node12 -->
<g id="edge11_Node000001_Node000012" class="edge">
<title>Node1&#45;&gt;Node12</title>
<g id="a_edge11_Node000001_Node000012"><a xlink:title=" ">
<path fill="none" stroke="#63b8ff" d="M343.41,-169.52C303.16,-161.09 208.5,-141.26 152.7,-129.57"/>
<polygon fill="#63b8ff" stroke="#63b8ff" points="153.26,-126.11 142.75,-127.48 151.82,-132.96 153.26,-126.11"/>
</a>
</g>
</g>
<!-- Node16 -->
<g id="Node000016" class="node">
<title>Node16</title>
<g id="a_Node000016"><a xlink:href="atril_2backend_2dvi_2mdvi-lib_2private_8h.html" target="_top" xlink:title=" ">
<polygon fill="white" stroke="#666666" points="827.92,-129 768.92,-129 768.92,-110 827.92,-110 827.92,-129"/>
<text text-anchor="middle" x="798.42" y="-117" font-family="Inter" font-size="10.00">private.h</text>
</a>
</g>
</g>
<!-- Node1&#45;&gt;Node16 -->
<g id="edge17_Node000001_Node000016" class="edge">
<title>Node1&#45;&gt;Node16</title>
<g id="a_edge17_Node000001_Node000016"><a xlink:title=" ">
<path fill="none" stroke="#63b8ff" d="M381.44,-171.19C447.42,-163.17 667.42,-136.42 758.46,-125.36"/>
<polygon fill="#63b8ff" stroke="#63b8ff" points="759.14,-128.8 768.65,-124.12 758.3,-121.85 759.14,-128.8"/>
</a>
</g>
</g>
<!-- Node12&#45;&gt;Node4 -->
<g id="edge12_Node000012_Node000004" class="edge">
<title>Node12&#45;&gt;Node4</title>
<g id="a_edge12_Node000012_Node000004"><a xlink:title=" ">
<path fill="none" stroke="#63b8ff" d="M97.69,-109.98C86.69,-102 70,-89.88 56.82,-80.31"/>
<polygon fill="#63b8ff" stroke="#63b8ff" points="58.51,-77.21 48.37,-74.17 54.4,-82.88 58.51,-77.21"/>
</a>
</g>
</g>
<!-- Node13 -->
<g id="Node000013" class="node">
<title>Node13</title>
<g id="a_Node000013"><a xlink:title=" ">
<polygon fill="#e0e0e0" stroke="#999999" points="147.92,-74 78.92,-74 78.92,-55 147.92,-55 147.92,-74"/>
<text text-anchor="middle" x="113.42" y="-62" font-family="Inter" font-size="10.00">sys/types.h</text>
</a>
</g>
</g>
<!-- Node12&#45;&gt;Node13 -->
<g id="edge13_Node000012_Node000013" class="edge">
<title>Node12&#45;&gt;Node13</title>
<g id="a_edge13_Node000012_Node000013"><a xlink:title=" ">
<path fill="none" stroke="#63b8ff" d="M110.08,-109.75C110.61,-102.8 111.36,-92.85 112.02,-84.13"/>
<polygon fill="#63b8ff" stroke="#63b8ff" points="115.51,-84.32 112.77,-74.09 108.53,-83.8 115.51,-84.32"/>
</a>
</g>
</g>
<!-- Node14 -->
<g id="Node000014" class="node">
<title>Node14</title>
<g id="a_Node000014"><a xlink:title=" ">
<polygon fill="#e0e0e0" stroke="#999999" points="216.42,-74 166.42,-74 166.42,-55 216.42,-55 216.42,-74"/>
<text text-anchor="middle" x="191.42" y="-62" font-family="Inter" font-size="10.00">math.h</text>
</a>
</g>
</g>
<!-- Node12&#45;&gt;Node14 -->
<g id="edge14_Node000012_Node000014" class="edge">
<title>Node12&#45;&gt;Node14</title>
<g id="a_edge14_Node000012_Node000014"><a xlink:title=" ">
<path fill="none" stroke="#63b8ff" d="M122.6,-109.98C135.19,-101.84 154.43,-89.41 169.36,-79.76"/>
<polygon fill="#63b8ff" stroke="#63b8ff" points="171.51,-82.54 178.01,-74.17 167.71,-76.66 171.51,-82.54"/>
</a>
</g>
</g>
<!-- Node15 -->
<g id="Node000015" class="node">
<title>Node15</title>
<g id="a_Node000015"><a xlink:href="sysdeps_8h.html" target="_top" xlink:title=" ">
<polygon fill="white" stroke="#666666" points="296.42,-74 234.42,-74 234.42,-55 296.42,-55 296.42,-74"/>
<text text-anchor="middle" x="265.42" y="-62" font-family="Inter" font-size="10.00">sysdeps.h</text>
</a>
</g>
</g>
<!-- Node12&#45;&gt;Node15 -->
<g id="edge15_Node000012_Node000015" class="edge">
<title>Node12&#45;&gt;Node15</title>
<g id="a_edge15_Node000012_Node000015"><a xlink:title=" ">
<path fill="none" stroke="#63b8ff" d="M134.49,-109.98C160.45,-101.16 201.23,-87.31 230.38,-77.41"/>
<polygon fill="#63b8ff" stroke="#63b8ff" points="231.82,-80.61 240.16,-74.08 229.57,-73.99 231.82,-80.61"/>
</a>
</g>
</g>
<!-- Node15&#45;&gt;Node2 -->
<g id="edge16_Node000015_Node000002" class="edge">
<title>Node15&#45;&gt;Node2</title>
<g id="a_edge16_Node000015_Node000002"><a xlink:title=" ">
<path fill="none" stroke="#63b8ff" d="M265.42,-54.75C265.42,-47.8 265.42,-37.85 265.42,-29.13"/>
<polygon fill="#63b8ff" stroke="#63b8ff" points="268.92,-29.09 265.42,-19.09 261.92,-29.09 268.92,-29.09"/>
</a>
</g>
</g>
<!-- Node16&#45;&gt;Node2 -->
<g id="edge18_Node000016_Node000002" class="edge">
<title>Node16&#45;&gt;Node2</title>
<g id="a_edge18_Node000016_Node000002"><a xlink:title=" ">
<path fill="none" stroke="#63b8ff" d="M798.66,-109.88C798.53,-95.91 796.02,-68.51 779.42,-55 742.62,-25.04 414.54,-14.19 302.63,-11.34"/>
<polygon fill="#63b8ff" stroke="#63b8ff" points="302.57,-7.84 292.49,-11.09 302.4,-14.83 302.57,-7.84"/>
</a>
</g>
</g>
<!-- Node16&#45;&gt;Node3 -->
<g id="edge19_Node000016_Node000003" class="edge">
<title>Node16&#45;&gt;Node3</title>
<g id="a_edge19_Node000016_Node000003"><a xlink:title=" ">
<path fill="none" stroke="#63b8ff" d="M768.59,-115.58C704.87,-109.24 550.53,-93.33 410.58,-74.1"/>
<polygon fill="#63b8ff" stroke="#63b8ff" points="410.91,-70.61 400.53,-72.71 409.96,-77.55 410.91,-70.61"/>
</a>
</g>
</g>
<!-- Node17 -->
<g id="Node000017" class="node">
<title>Node17</title>
<g id="a_Node000017"><a xlink:title=" ">
<polygon fill="#e0e0e0" stroke="#999999" points="927.92,-74 826.92,-74 826.92,-55 927.92,-55 927.92,-74"/>
<text text-anchor="middle" x="877.42" y="-62" font-family="Inter" font-size="10.00">kpathsea/debug.h</text>
</a>
</g>
</g>
<!-- Node16&#45;&gt;Node17 -->
<g id="edge20_Node000016_Node000017" class="edge">
<title>Node16&#45;&gt;Node17</title>
<g id="a_edge20_Node000016_Node000017"><a xlink:title=" ">
<path fill="none" stroke="#63b8ff" d="M811.12,-109.98C823.25,-101.84 841.78,-89.41 856.17,-79.76"/>
<polygon fill="#63b8ff" stroke="#63b8ff" points="858.14,-82.65 864.5,-74.17 854.25,-76.84 858.14,-82.65"/>
</a>
</g>
</g>
<!-- Node18 -->
<g id="Node000018" class="node">
<title>Node18</title>
<g id="a_Node000018"><a xlink:title=" ">
<polygon fill="#e0e0e0" stroke="#999999" points="1048.92,-74 945.92,-74 945.92,-55 1048.92,-55 1048.92,-74"/>
<text text-anchor="middle" x="997.42" y="-62" font-family="Inter" font-size="10.00">kpathsea/tex&#45;file.h</text>
</a>
</g>
</g>
<!-- Node16&#45;&gt;Node18 -->
<g id="edge21_Node000016_Node000018" class="edge">
<title>Node16&#45;&gt;Node18</title>
<g id="a_edge21_Node000016_Node000018"><a xlink:title=" ">
<path fill="none" stroke="#63b8ff" d="M828.22,-110.57C862.06,-101.55 917.52,-86.78 955.66,-76.62"/>
<polygon fill="#63b8ff" stroke="#63b8ff" points="956.68,-79.97 965.45,-74.02 954.88,-73.21 956.68,-79.97"/>
</a>
</g>
</g>
<!-- Node19 -->
<g id="Node000019" class="node">
<title>Node19</title>
<g id="a_Node000019"><a xlink:title=" ">
<polygon fill="#e0e0e0" stroke="#999999" points="1181.42,-74 1067.42,-74 1067.42,-55 1181.42,-55 1181.42,-74"/>
<text text-anchor="middle" x="1124.42" y="-62" font-family="Inter" font-size="10.00">kpathsea/tex&#45;glyph.h</text>
</a>
</g>
</g>
<!-- Node16&#45;&gt;Node19 -->
<g id="edge22_Node000016_Node000019" class="edge">
<title>Node16&#45;&gt;Node19</title>
<g id="a_edge22_Node000016_Node000019"><a xlink:title=" ">
<path fill="none" stroke="#63b8ff" d="M827.93,-113.7C880.59,-105.14 991.81,-87.06 1062.06,-75.64"/>
<polygon fill="#63b8ff" stroke="#63b8ff" points="1062.81,-79.06 1072.11,-74 1061.68,-72.15 1062.81,-79.06"/>
</a>
</g>
</g>
<!-- Node20 -->
<g id="Node000020" class="node">
<title>Node20</title>
<g id="a_Node000020"><a xlink:title=" ">
<polygon fill="#e0e0e0" stroke="#999999" points="1284.92,-74 1199.92,-74 1199.92,-55 1284.92,-55 1284.92,-74"/>
<text text-anchor="middle" x="1242.42" y="-62" font-family="Inter" font-size="10.00">kpathsea/cnf.h</text>
</a>
</g>
</g>
<!-- Node16&#45;&gt;Node20 -->
<g id="edge23_Node000016_Node000020" class="edge">
<title>Node16&#45;&gt;Node20</title>
<g id="a_edge23_Node000016_Node000020"><a xlink:title=" ">
<path fill="none" stroke="#63b8ff" d="M827.99,-115.64C891.89,-109.36 1047.87,-93.46 1189.7,-74.03"/>
<polygon fill="#63b8ff" stroke="#63b8ff" points="1190.45,-77.46 1199.88,-72.63 1189.5,-70.53 1190.45,-77.46"/>
</a>
</g>
</g>
<!-- Node21 -->
<g id="Node000021" class="node">
<title>Node21</title>
<g id="a_Node000021"><a xlink:title=" ">
<polygon fill="#e0e0e0" stroke="#999999" points="1409.92,-74 1302.92,-74 1302.92,-55 1409.92,-55 1409.92,-74"/>
<text text-anchor="middle" x="1356.42" y="-62" font-family="Inter" font-size="10.00">kpathsea/proginit.h</text>
</a>
</g>
</g>
<!-- Node16&#45;&gt;Node21 -->
<g id="edge24_Node000016_Node000021" class="edge">
<title>Node16&#45;&gt;Node21</title>
<g id="a_edge24_Node000016_Node000021"><a xlink:title=" ">
<path fill="none" stroke="#63b8ff" d="M828.1,-116.32C903.77,-110.67 1110.24,-94.6 1292.63,-74.16"/>
<polygon fill="#63b8ff" stroke="#63b8ff" points="1293.13,-77.62 1302.67,-73.03 1292.34,-70.67 1293.13,-77.62"/>
</a>
</g>
</g>
<!-- Node22 -->
<g id="Node000022" class="node">
<title>Node22</title>
<g id="a_Node000022"><a xlink:title=" ">
<polygon fill="#e0e0e0" stroke="#999999" points="537.92,-74 418.92,-74 418.92,-55 537.92,-55 537.92,-74"/>
<text text-anchor="middle" x="478.42" y="-62" font-family="Inter" font-size="10.00">kpathsea/progname.h</text>
</a>
</g>
</g>
<!-- Node16&#45;&gt;Node22 -->
<g id="edge25_Node000016_Node000022" class="edge">
<title>Node16&#45;&gt;Node22</title>
<g id="a_edge25_Node000016_Node000022"><a xlink:title=" ">
<path fill="none" stroke="#63b8ff" d="M768.89,-113.61C717.09,-105.03 608.82,-87.1 540.1,-75.71"/>
<polygon fill="#63b8ff" stroke="#63b8ff" points="540.27,-72.2 529.84,-74.02 539.13,-79.1 540.27,-72.2"/>
</a>
</g>
</g>
<!-- Node23 -->
<g id="Node000023" class="node">
<title>Node23</title>
<g id="a_Node000023"><a xlink:title=" ">
<polygon fill="#e0e0e0" stroke="#999999" points="670.42,-74 556.42,-74 556.42,-55 670.42,-55 670.42,-74"/>
<text text-anchor="middle" x="613.42" y="-62" font-family="Inter" font-size="10.00">kpathsea/tex&#45;make.h</text>
</a>
</g>
</g>
<!-- Node16&#45;&gt;Node23 -->
<g id="edge26_Node000016_Node000023" class="edge">
<title>Node16&#45;&gt;Node23</title>
<g id="a_edge26_Node000016_Node000023"><a xlink:title=" ">
<path fill="none" stroke="#63b8ff" d="M768.7,-109.98C737.37,-101.01 687.85,-86.82 653.18,-76.89"/>
<polygon fill="#63b8ff" stroke="#63b8ff" points="653.96,-73.47 643.38,-74.08 652.03,-80.2 653.96,-73.47"/>
</a>
</g>
</g>
<!-- Node24 -->
<g id="Node000024" class="node">
<title>Node24</title>
<g id="a_Node000024"><a xlink:title=" ">
<polygon fill="#e0e0e0" stroke="#999999" points="770.42,-74 688.42,-74 688.42,-55 770.42,-55 770.42,-74"/>
<text text-anchor="middle" x="729.42" y="-62" font-family="Inter" font-size="10.00">kpathsea/lib.h</text>
</a>
</g>
</g>
<!-- Node16&#45;&gt;Node24 -->
<g id="edge27_Node000016_Node000024" class="edge">
<title>Node16&#45;&gt;Node24</title>
<g id="a_edge27_Node000016_Node000024"><a xlink:title=" ">
<path fill="none" stroke="#63b8ff" d="M787.34,-109.98C776.94,-102 761.16,-89.88 748.7,-80.31"/>
<polygon fill="#63b8ff" stroke="#63b8ff" points="750.77,-77.49 740.71,-74.17 746.51,-83.04 750.77,-77.49"/>
</a>
</g>
</g>
</g>
</svg>
