<?xml version="1.0" encoding="UTF-8" standalone="no"?>
<!DOCTYPE svg PUBLIC "-//W3C//DTD SVG 1.1//EN"
 "http://www.w3.org/Graphics/SVG/1.1/DTD/svg11.dtd">
<!-- Generated by graphviz version 2.43.0 (0)
 -->
<!-- Title: baobab&#45;remote&#45;connect&#45;dialog.c Pages: 1 -->
<svg width="429pt" height="159pt"
 viewBox="0.00 0.00 428.72 159.00" xmlns="http://www.w3.org/2000/svg" xmlns:xlink="http://www.w3.org/1999/xlink">
<g id="graph0" class="graph" transform="scale(1 1) rotate(0) translate(4 155)">
<title>baobab&#45;remote&#45;connect&#45;dialog.c</title>
<!-- Node1 -->
<g id="Node000001" class="node">
<title>Node1</title>
<g id="a_Node000001"><a xlink:title=" ">
<polygon fill="#999999" stroke="#666666" points="263.72,-151 135.72,-151 135.72,-121 263.72,-121 263.72,-151"/>
<text text-anchor="start" x="143.72" y="-139" font-family="Inter" font-size="10.00">baobab&#45;remote&#45;connect</text>
<text text-anchor="middle" x="199.72" y="-128" font-family="Inter" font-size="10.00">&#45;dialog.c</text>
</a>
</g>
</g>
<!-- Node2 -->
<g id="Node000002" class="node">
<title>Node2</title>
<g id="a_Node000002"><a xlink:href="baobab-remote-connect-dialog_8h.html" target="_top" xlink:title=" ">
<polygon fill="white" stroke="#666666" points="142.72,-85 14.72,-85 14.72,-55 142.72,-55 142.72,-85"/>
<text text-anchor="start" x="22.72" y="-73" font-family="Inter" font-size="10.00">baobab&#45;remote&#45;connect</text>
<text text-anchor="middle" x="78.72" y="-62" font-family="Inter" font-size="10.00">&#45;dialog.h</text>
</a>
</g>
</g>
<!-- Node1&#45;&gt;Node2 -->
<g id="edge1_Node000001_Node000002" class="edge">
<title>Node1&#45;&gt;Node2</title>
<g id="a_edge1_Node000001_Node000002"><a xlink:title=" ">
<path fill="none" stroke="#63b8ff" d="M173.16,-120.95C155.82,-111.78 132.99,-99.71 114.11,-89.72"/>
<polygon fill="#63b8ff" stroke="#63b8ff" points="115.68,-86.59 105.21,-85.01 112.41,-92.78 115.68,-86.59"/>
</a>
</g>
</g>
<!-- Node3 -->
<g id="Node000003" class="node">
<title>Node3</title>
<g id="a_Node000003"><a xlink:title=" ">
<polygon fill="#e0e0e0" stroke="#999999" points="108.22,-19 49.22,-19 49.22,0 108.22,0 108.22,-19"/>
<text text-anchor="middle" x="78.72" y="-7" font-family="Inter" font-size="10.00">gtk/gtk.h</text>
</a>
</g>
</g>
<!-- Node1&#45;&gt;Node3 -->
<g id="edge7_Node000001_Node000003" class="edge">
<title>Node1&#45;&gt;Node3</title>
<g id="a_edge7_Node000001_Node000003"><a xlink:title=" ">
<path fill="none" stroke="#63b8ff" d="M135.7,-126.99C85.55,-119.24 21.69,-105.62 5.72,-85 -2.45,-74.46 -0.81,-66.63 5.72,-55 13.82,-40.56 28.73,-30.26 42.97,-23.22"/>
<polygon fill="#63b8ff" stroke="#63b8ff" points="44.48,-26.38 52.15,-19.06 41.6,-20 44.48,-26.38"/>
</a>
</g>
</g>
<!-- Node4 -->
<g id="Node000004" class="node">
<title>Node4</title>
<g id="a_Node000004"><a xlink:title=" ">
<polygon fill="#e0e0e0" stroke="#999999" points="185.72,-19 127.72,-19 127.72,0 185.72,0 185.72,-19"/>
<text text-anchor="middle" x="156.72" y="-7" font-family="Inter" font-size="10.00">gio/gio.h</text>
</a>
</g>
</g>
<!-- Node1&#45;&gt;Node4 -->
<g id="edge6_Node000001_Node000004" class="edge">
<title>Node1&#45;&gt;Node4</title>
<g id="a_edge6_Node000001_Node000004"><a xlink:title=" ">
<path fill="none" stroke="#63b8ff" d="M194.78,-120.72C186.94,-98.02 171.64,-53.72 163.02,-28.75"/>
<polygon fill="#63b8ff" stroke="#63b8ff" points="166.25,-27.38 159.68,-19.07 159.63,-29.66 166.25,-27.38"/>
</a>
</g>
</g>
<!-- Node5 -->
<g id="Node000005" class="node">
<title>Node5</title>
<g id="a_Node000005"><a xlink:title=" ">
<polygon fill="#e0e0e0" stroke="#999999" points="330.22,-79.5 277.22,-79.5 277.22,-60.5 330.22,-60.5 330.22,-79.5"/>
<text text-anchor="middle" x="303.72" y="-67.5" font-family="Inter" font-size="10.00">string.h</text>
</a>
</g>
</g>
<!-- Node1&#45;&gt;Node5 -->
<g id="edge4_Node000001_Node000005" class="edge">
<title>Node1&#45;&gt;Node5</title>
<g id="a_edge4_Node000001_Node000005"><a xlink:title=" ">
<path fill="none" stroke="#63b8ff" d="M222.54,-120.95C239.89,-110.27 263.66,-95.65 280.99,-84.98"/>
<polygon fill="#63b8ff" stroke="#63b8ff" points="283.19,-87.74 289.88,-79.52 279.52,-81.78 283.19,-87.74"/>
</a>
</g>
</g>
<!-- Node6 -->
<g id="Node000006" class="node">
<title>Node6</title>
<g id="a_Node000006"><a xlink:title=" ">
<polygon fill="#e0e0e0" stroke="#999999" points="420.72,-79.5 348.72,-79.5 348.72,-60.5 420.72,-60.5 420.72,-79.5"/>
<text text-anchor="middle" x="384.72" y="-67.5" font-family="Inter" font-size="10.00">glib/gi18n.h</text>
</a>
</g>
</g>
<!-- Node1&#45;&gt;Node6 -->
<g id="edge5_Node000001_Node000006" class="edge">
<title>Node1&#45;&gt;Node6</title>
<g id="a_edge5_Node000001_Node000006"><a xlink:title=" ">
<path fill="none" stroke="#63b8ff" d="M240.31,-120.95C273.33,-109.53 319.39,-93.6 350.54,-82.82"/>
<polygon fill="#63b8ff" stroke="#63b8ff" points="351.79,-86.09 360.1,-79.52 349.5,-79.48 351.79,-86.09"/>
</a>
</g>
</g>
<!-- Node7 -->
<g id="Node000007" class="node">
<title>Node7</title>
<g id="a_Node000007"><a xlink:href="baobab_8h.html" target="_top" xlink:title=" ">
<polygon fill="white" stroke="#666666" points="258.72,-79.5 198.72,-79.5 198.72,-60.5 258.72,-60.5 258.72,-79.5"/>
<text text-anchor="middle" x="228.72" y="-67.5" font-family="Inter" font-size="10.00">baobab.h</text>
</a>
</g>
</g>
<!-- Node1&#45;&gt;Node7 -->
<g id="edge8_Node000001_Node000007" class="edge">
<title>Node1&#45;&gt;Node7</title>
<g id="a_edge8_Node000001_Node000007"><a xlink:title=" ">
<path fill="none" stroke="#63b8ff" d="M206.15,-120.8C210.36,-111.5 215.9,-99.27 220.44,-89.26"/>
<polygon fill="#63b8ff" stroke="#63b8ff" points="223.77,-90.4 224.71,-79.84 217.39,-87.51 223.77,-90.4"/>
</a>
</g>
</g>
<!-- Node2&#45;&gt;Node3 -->
<g id="edge2_Node000002_Node000003" class="edge">
<title>Node2&#45;&gt;Node3</title>
<g id="a_edge2_Node000002_Node000003"><a xlink:title=" ">
<path fill="none" stroke="#63b8ff" d="M78.72,-54.84C78.72,-47.21 78.72,-37.7 78.72,-29.45"/>
<polygon fill="#63b8ff" stroke="#63b8ff" points="82.22,-29.27 78.72,-19.27 75.22,-29.27 82.22,-29.27"/>
</a>
</g>
</g>
<!-- Node2&#45;&gt;Node4 -->
<g id="edge3_Node000002_Node000004" class="edge">
<title>Node2&#45;&gt;Node4</title>
<g id="a_edge3_Node000002_Node000004"><a xlink:title=" ">
<path fill="none" stroke="#63b8ff" d="M97.6,-54.84C109.5,-45.91 124.84,-34.41 136.91,-25.35"/>
<polygon fill="#63b8ff" stroke="#63b8ff" points="139.13,-28.07 145.03,-19.27 134.93,-22.47 139.13,-28.07"/>
</a>
</g>
</g>
<!-- Node7&#45;&gt;Node3 -->
<g id="edge12_Node000007_Node000003" class="edge">
<title>Node7&#45;&gt;Node3</title>
<g id="a_edge12_Node000007_Node000003"><a xlink:title=" ">
<path fill="none" stroke="#63b8ff" d="M206.9,-60.49C181.46,-50.57 139.2,-34.09 110.21,-22.78"/>
<polygon fill="#63b8ff" stroke="#63b8ff" points="111.14,-19.39 100.55,-19.02 108.6,-25.91 111.14,-19.39"/>
</a>
</g>
</g>
<!-- Node7&#45;&gt;Node4 -->
<g id="edge13_Node000007_Node000004" class="edge">
<title>Node7&#45;&gt;Node4</title>
<g id="a_edge13_Node000007_Node000004"><a xlink:title=" ">
<path fill="none" stroke="#63b8ff" d="M218.09,-60.37C206.82,-51.21 188.79,-36.56 175.18,-25.51"/>
<polygon fill="#63b8ff" stroke="#63b8ff" points="177.35,-22.76 167.38,-19.17 172.94,-28.19 177.35,-22.76"/>
</a>
</g>
</g>
<!-- Node8 -->
<g id="Node000008" class="node">
<title>Node8</title>
<g id="a_Node000008"><a xlink:title=" ">
<polygon fill="#e0e0e0" stroke="#999999" points="251.22,-19 204.22,-19 204.22,0 251.22,0 251.22,-19"/>
<text text-anchor="middle" x="227.72" y="-7" font-family="Inter" font-size="10.00">time.h</text>
</a>
</g>
</g>
<!-- Node7&#45;&gt;Node8 -->
<g id="edge9_Node000007_Node000008" class="edge">
<title>Node7&#45;&gt;Node8</title>
<g id="a_edge9_Node000007_Node000008"><a xlink:title=" ">
<path fill="none" stroke="#63b8ff" d="M228.57,-60.37C228.43,-52.25 228.22,-39.81 228.04,-29.39"/>
<polygon fill="#63b8ff" stroke="#63b8ff" points="231.53,-29.11 227.86,-19.17 224.54,-29.23 231.53,-29.11"/>
</a>
</g>
</g>
<!-- Node9 -->
<g id="Node000009" class="node">
<title>Node9</title>
<g id="a_Node000009"><a xlink:title=" ">
<polygon fill="#e0e0e0" stroke="#999999" points="338.22,-19 269.22,-19 269.22,0 338.22,0 338.22,-19"/>
<text text-anchor="middle" x="303.72" y="-7" font-family="Inter" font-size="10.00">sys/types.h</text>
</a>
</g>
</g>
<!-- Node7&#45;&gt;Node9 -->
<g id="edge10_Node000007_Node000009" class="edge">
<title>Node7&#45;&gt;Node9</title>
<g id="a_edge10_Node000007_Node000009"><a xlink:title=" ">
<path fill="none" stroke="#63b8ff" d="M239.78,-60.37C251.53,-51.21 270.3,-36.56 284.48,-25.51"/>
<polygon fill="#63b8ff" stroke="#63b8ff" points="286.87,-28.08 292.6,-19.17 282.57,-22.56 286.87,-28.08"/>
</a>
</g>
</g>
<!-- Node10 -->
<g id="Node000010" class="node">
<title>Node10</title>
<g id="a_Node000010"><a xlink:title=" ">
<polygon fill="#e0e0e0" stroke="#999999" points="398.72,-19 356.72,-19 356.72,0 398.72,0 398.72,-19"/>
<text text-anchor="middle" x="377.72" y="-7" font-family="Inter" font-size="10.00">glib.h</text>
</a>
</g>
</g>
<!-- Node7&#45;&gt;Node10 -->
<g id="edge11_Node000007_Node000010" class="edge">
<title>Node7&#45;&gt;Node10</title>
<g id="a_edge11_Node000007_Node000010"><a xlink:title=" ">
<path fill="none" stroke="#63b8ff" d="M250.38,-60.49C275.8,-50.52 318.11,-33.9 346.93,-22.59"/>
<polygon fill="#63b8ff" stroke="#63b8ff" points="348.48,-25.74 356.51,-18.83 345.92,-19.22 348.48,-25.74"/>
</a>
</g>
</g>
</g>
</svg>
