<?xml version="1.0" encoding="UTF-8" standalone="no"?>
<!DOCTYPE svg PUBLIC "-//W3C//DTD SVG 1.1//EN"
 "http://www.w3.org/Graphics/SVG/1.1/DTD/svg11.dtd">
<!-- Generated by graphviz version 2.43.0 (0)
 -->
<!-- Title: base&#45;dialog.h Pages: 1 -->
<svg width="1611pt" height="159pt"
 viewBox="0.00 0.00 1611.00 159.00" xmlns="http://www.w3.org/2000/svg" xmlns:xlink="http://www.w3.org/1999/xlink">
<g id="graph0" class="graph" transform="scale(1 1) rotate(0) translate(4 155)">
<title>base&#45;dialog.h</title>
<!-- Node1 -->
<g id="Node000001" class="node">
<title>Node1</title>
<g id="a_Node000001"><a xlink:title=" ">
<polygon fill="#999999" stroke="#666666" points="668.5,-151 590.5,-151 590.5,-132 668.5,-132 668.5,-151"/>
<text text-anchor="middle" x="629.5" y="-139" font-family="Inter" font-size="10.00">base&#45;dialog.h</text>
</a>
</g>
</g>
<!-- Node2 -->
<g id="Node000002" class="node">
<title>Node2</title>
<g id="a_Node000002"><a xlink:href="base-dialog_8c.html" target="_top" xlink:title=" ">
<polygon fill="white" stroke="#666666" points="161,-90.5 84,-90.5 84,-71.5 161,-71.5 161,-90.5"/>
<text text-anchor="middle" x="122.5" y="-78.5" font-family="Inter" font-size="10.00">base&#45;dialog.c</text>
</a>
</g>
</g>
<!-- Node1&#45;&gt;Node2 -->
<g id="edge1_Node000001_Node000002" class="edge">
<title>Node1&#45;&gt;Node2</title>
<g id="a_edge1_Node000001_Node000002"><a xlink:title=" ">
<path fill="none" stroke="#63b8ff" d="M580.27,-138.85C495.6,-135.33 317.28,-124.88 169.5,-96 162.48,-94.63 155.01,-92.65 148.13,-90.61"/>
<polygon fill="#63b8ff" stroke="#63b8ff" points="580.23,-142.35 590.36,-139.26 580.51,-135.36 580.23,-142.35"/>
</a>
</g>
</g>
<!-- Node3 -->
<g id="Node000003" class="node">
<title>Node3</title>
<g id="a_Node000003"><a xlink:href="cact-add-capability-dialog_8h.html" target="_top" xlink:title=" ">
<polygon fill="white" stroke="#666666" points="280,-96 179,-96 179,-66 280,-66 280,-96"/>
<text text-anchor="start" x="187" y="-84" font-family="Inter" font-size="10.00">cact&#45;add&#45;capability</text>
<text text-anchor="middle" x="229.5" y="-73" font-family="Inter" font-size="10.00">&#45;dialog.h</text>
</a>
</g>
</g>
<!-- Node1&#45;&gt;Node3 -->
<g id="edge2_Node000001_Node000003" class="edge">
<title>Node1&#45;&gt;Node3</title>
<g id="a_edge2_Node000001_Node000003"><a xlink:title=" ">
<path fill="none" stroke="#63b8ff" d="M580.11,-133.28C503.68,-122.1 357.53,-100.72 280.27,-89.43"/>
<polygon fill="#63b8ff" stroke="#63b8ff" points="580.02,-136.8 590.42,-134.78 581.03,-129.87 580.02,-136.8"/>
</a>
</g>
</g>
<!-- Node6 -->
<g id="Node000006" class="node">
<title>Node6</title>
<g id="a_Node000006"><a xlink:href="cact-add-scheme-dialog_8h.html" target="_top" xlink:title=" ">
<polygon fill="white" stroke="#666666" points="497.5,-90.5 363.5,-90.5 363.5,-71.5 497.5,-71.5 497.5,-90.5"/>
<text text-anchor="middle" x="430.5" y="-78.5" font-family="Inter" font-size="10.00">cact&#45;add&#45;scheme&#45;dialog.h</text>
</a>
</g>
</g>
<!-- Node1&#45;&gt;Node6 -->
<g id="edge5_Node000001_Node000006" class="edge">
<title>Node1&#45;&gt;Node6</title>
<g id="a_edge5_Node000001_Node000006"><a xlink:title=" ">
<path fill="none" stroke="#63b8ff" d="M590.75,-129.11C552.26,-117.79 494.12,-100.7 459.47,-90.52"/>
<polygon fill="#63b8ff" stroke="#63b8ff" points="589.98,-132.53 600.56,-131.99 591.96,-125.82 589.98,-132.53"/>
</a>
</g>
</g>
<!-- Node9 -->
<g id="Node000009" class="node">
<title>Node9</title>
<g id="a_Node000009"><a xlink:href="cact-confirm-logout_8h.html" target="_top" xlink:title=" ">
<polygon fill="white" stroke="#666666" points="687.5,-90.5 571.5,-90.5 571.5,-71.5 687.5,-71.5 687.5,-90.5"/>
<text text-anchor="middle" x="629.5" y="-78.5" font-family="Inter" font-size="10.00">cact&#45;confirm&#45;logout.h</text>
</a>
</g>
</g>
<!-- Node1&#45;&gt;Node9 -->
<g id="edge8_Node000001_Node000009" class="edge">
<title>Node1&#45;&gt;Node9</title>
<g id="a_edge8_Node000001_Node000009"><a xlink:title=" ">
<path fill="none" stroke="#63b8ff" d="M629.5,-121.66C629.5,-111.24 629.5,-98.8 629.5,-90.67"/>
<polygon fill="#63b8ff" stroke="#63b8ff" points="626,-121.87 629.5,-131.87 633,-121.87 626,-121.87"/>
</a>
</g>
</g>
<!-- Node12 -->
<g id="Node000012" class="node">
<title>Node12</title>
<g id="a_Node000012"><a xlink:href="cact-export-ask_8h.html" target="_top" xlink:title=" ">
<polygon fill="white" stroke="#666666" points="925,-90.5 830,-90.5 830,-71.5 925,-71.5 925,-90.5"/>
<text text-anchor="middle" x="877.5" y="-78.5" font-family="Inter" font-size="10.00">cact&#45;export&#45;ask.h</text>
</a>
</g>
</g>
<!-- Node1&#45;&gt;Node12 -->
<g id="edge11_Node000001_Node000012" class="edge">
<title>Node1&#45;&gt;Node12</title>
<g id="a_edge11_Node000001_Node000012"><a xlink:title=" ">
<path fill="none" stroke="#63b8ff" d="M675.37,-129.68C723.29,-118.38 797.48,-100.88 841.4,-90.52"/>
<polygon fill="#63b8ff" stroke="#63b8ff" points="674.49,-126.29 665.56,-131.99 676.1,-133.1 674.49,-126.29"/>
</a>
</g>
</g>
<!-- Node16 -->
<g id="Node000016" class="node">
<title>Node16</title>
<g id="a_Node000016"><a xlink:href="cact-icon-chooser_8h.html" target="_top" xlink:title=" ">
<polygon fill="white" stroke="#666666" points="1211.5,-90.5 1107.5,-90.5 1107.5,-71.5 1211.5,-71.5 1211.5,-90.5"/>
<text text-anchor="middle" x="1159.5" y="-78.5" font-family="Inter" font-size="10.00">cact&#45;icon&#45;chooser.h</text>
</a>
</g>
</g>
<!-- Node1&#45;&gt;Node16 -->
<g id="edge15_Node000001_Node000016" class="edge">
<title>Node1&#45;&gt;Node16</title>
<g id="a_edge15_Node000001_Node000016"><a xlink:title=" ">
<path fill="none" stroke="#63b8ff" d="M679.05,-135.03C779.19,-123.98 1004.79,-99.08 1107.19,-87.77"/>
<polygon fill="#63b8ff" stroke="#63b8ff" points="678.46,-131.57 668.9,-136.15 679.23,-138.53 678.46,-131.57"/>
</a>
</g>
</g>
<!-- Node19 -->
<g id="Node000019" class="node">
<title>Node19</title>
<g id="a_Node000019"><a xlink:href="cact-preferences-editor_8h.html" target="_top" xlink:title=" ">
<polygon fill="white" stroke="#666666" points="1465.5,-90.5 1333.5,-90.5 1333.5,-71.5 1465.5,-71.5 1465.5,-90.5"/>
<text text-anchor="middle" x="1399.5" y="-78.5" font-family="Inter" font-size="10.00">cact&#45;preferences&#45;editor.h</text>
</a>
</g>
</g>
<!-- Node1&#45;&gt;Node19 -->
<g id="edge18_Node000001_Node000019" class="edge">
<title>Node1&#45;&gt;Node19</title>
<g id="a_edge18_Node000001_Node000019"><a xlink:title=" ">
<path fill="none" stroke="#63b8ff" d="M678.82,-136.84C780.25,-129.29 1019.6,-111.42 1220.5,-96 1257.8,-93.14 1299.46,-89.88 1333.2,-87.23"/>
<polygon fill="#63b8ff" stroke="#63b8ff" points="678.29,-133.36 668.58,-137.6 678.81,-140.35 678.29,-133.36"/>
</a>
</g>
</g>
<!-- Node4 -->
<g id="Node000004" class="node">
<title>Node4</title>
<g id="a_Node000004"><a xlink:href="cact-add-capability-dialog_8c.html" target="_top" xlink:title=" ">
<polygon fill="white" stroke="#666666" points="101,-30 0,-30 0,0 101,0 101,-30"/>
<text text-anchor="start" x="8" y="-18" font-family="Inter" font-size="10.00">cact&#45;add&#45;capability</text>
<text text-anchor="middle" x="50.5" y="-7" font-family="Inter" font-size="10.00">&#45;dialog.c</text>
</a>
</g>
</g>
<!-- Node3&#45;&gt;Node4 -->
<g id="edge3_Node000003_Node000004" class="edge">
<title>Node3&#45;&gt;Node4</title>
<g id="a_edge3_Node000003_Node000004"><a xlink:title=" ">
<path fill="none" stroke="#63b8ff" d="M180.43,-62.46C151.88,-52.25 116.37,-39.55 89.69,-30.01"/>
<polygon fill="#63b8ff" stroke="#63b8ff" points="179.62,-65.88 190.22,-65.95 181.98,-59.29 179.62,-65.88"/>
</a>
</g>
</g>
<!-- Node5 -->
<g id="Node000005" class="node">
<title>Node5</title>
<g id="a_Node000005"><a xlink:href="cact-icapabilities-tab_8c.html" target="_top" xlink:title=" ">
<polygon fill="white" stroke="#666666" points="209.5,-30 119.5,-30 119.5,0 209.5,0 209.5,-30"/>
<text text-anchor="start" x="127.5" y="-18" font-family="Inter" font-size="10.00">cact&#45;icapabilities</text>
<text text-anchor="middle" x="164.5" y="-7" font-family="Inter" font-size="10.00">&#45;tab.c</text>
</a>
</g>
</g>
<!-- Node3&#45;&gt;Node5 -->
<g id="edge4_Node000003_Node000005" class="edge">
<title>Node3&#45;&gt;Node5</title>
<g id="a_edge4_Node000003_Node000005"><a xlink:title=" ">
<path fill="none" stroke="#63b8ff" d="M207.81,-58.65C198.29,-49.27 187.38,-38.53 178.89,-30.16"/>
<polygon fill="#63b8ff" stroke="#63b8ff" points="205.49,-61.27 215.07,-65.8 210.4,-56.29 205.49,-61.27"/>
</a>
</g>
</g>
<!-- Node7 -->
<g id="Node000007" class="node">
<title>Node7</title>
<g id="a_Node000007"><a xlink:href="cact-add-scheme-dialog_8c.html" target="_top" xlink:title=" ">
<polygon fill="white" stroke="#666666" points="359.5,-24.5 227.5,-24.5 227.5,-5.5 359.5,-5.5 359.5,-24.5"/>
<text text-anchor="middle" x="293.5" y="-12.5" font-family="Inter" font-size="10.00">cact&#45;add&#45;scheme&#45;dialog.c</text>
</a>
</g>
</g>
<!-- Node6&#45;&gt;Node7 -->
<g id="edge6_Node000006_Node000007" class="edge">
<title>Node6&#45;&gt;Node7</title>
<g id="a_edge6_Node000006_Node000007"><a xlink:title=" ">
<path fill="none" stroke="#63b8ff" d="M402.73,-67.03C375.73,-54.42 335.48,-35.61 312.12,-24.7"/>
<polygon fill="#63b8ff" stroke="#63b8ff" points="401.48,-70.31 412.02,-71.37 404.44,-63.97 401.48,-70.31"/>
</a>
</g>
</g>
<!-- Node8 -->
<g id="Node000008" class="node">
<title>Node8</title>
<g id="a_Node000008"><a xlink:href="cact-ischemes-tab_8c.html" target="_top" xlink:title=" ">
<polygon fill="white" stroke="#666666" points="483.5,-24.5 377.5,-24.5 377.5,-5.5 483.5,-5.5 483.5,-24.5"/>
<text text-anchor="middle" x="430.5" y="-12.5" font-family="Inter" font-size="10.00">cact&#45;ischemes&#45;tab.c</text>
</a>
</g>
</g>
<!-- Node6&#45;&gt;Node8 -->
<g id="edge7_Node000006_Node000008" class="edge">
<title>Node6&#45;&gt;Node8</title>
<g id="a_edge7_Node000006_Node000008"><a xlink:title=" ">
<path fill="none" stroke="#63b8ff" d="M430.5,-61.08C430.5,-49.13 430.5,-34.22 430.5,-24.91"/>
<polygon fill="#63b8ff" stroke="#63b8ff" points="427,-61.37 430.5,-71.37 434,-61.37 427,-61.37"/>
</a>
</g>
</g>
<!-- Node10 -->
<g id="Node000010" class="node">
<title>Node10</title>
<g id="a_Node000010"><a xlink:href="cact-confirm-logout_8c.html" target="_top" xlink:title=" ">
<polygon fill="white" stroke="#666666" points="615.5,-24.5 501.5,-24.5 501.5,-5.5 615.5,-5.5 615.5,-24.5"/>
<text text-anchor="middle" x="558.5" y="-12.5" font-family="Inter" font-size="10.00">cact&#45;confirm&#45;logout.c</text>
</a>
</g>
</g>
<!-- Node9&#45;&gt;Node10 -->
<g id="edge9_Node000009_Node000010" class="edge">
<title>Node9&#45;&gt;Node10</title>
<g id="a_edge9_Node000009_Node000010"><a xlink:title=" ">
<path fill="none" stroke="#63b8ff" d="M612.12,-64.33C598.37,-51.94 579.67,-35.09 568.38,-24.91"/>
<polygon fill="#63b8ff" stroke="#63b8ff" points="610.15,-67.27 619.92,-71.37 614.84,-62.07 610.15,-67.27"/>
</a>
</g>
</g>
<!-- Node11 -->
<g id="Node000011" class="node">
<title>Node11</title>
<g id="a_Node000011"><a xlink:href="cact-main-window_8c.html" target="_top" xlink:title=" ">
<polygon fill="white" stroke="#666666" points="739.5,-24.5 633.5,-24.5 633.5,-5.5 739.5,-5.5 739.5,-24.5"/>
<text text-anchor="middle" x="686.5" y="-12.5" font-family="Inter" font-size="10.00">cact&#45;main&#45;window.c</text>
</a>
</g>
</g>
<!-- Node9&#45;&gt;Node11 -->
<g id="edge10_Node000009_Node000011" class="edge">
<title>Node9&#45;&gt;Node11</title>
<g id="a_edge10_Node000009_Node000011"><a xlink:title=" ">
<path fill="none" stroke="#63b8ff" d="M644.09,-63.62C655.06,-51.31 669.67,-34.89 678.57,-24.91"/>
<polygon fill="#63b8ff" stroke="#63b8ff" points="641.22,-61.57 637.19,-71.37 646.45,-66.23 641.22,-61.57"/>
</a>
</g>
</g>
<!-- Node13 -->
<g id="Node000013" class="node">
<title>Node13</title>
<g id="a_Node000013"><a xlink:href="cact-assistant-export_8c.html" target="_top" xlink:title=" ">
<polygon fill="white" stroke="#666666" points="877,-24.5 758,-24.5 758,-5.5 877,-5.5 877,-24.5"/>
<text text-anchor="middle" x="817.5" y="-12.5" font-family="Inter" font-size="10.00">cact&#45;assistant&#45;export.c</text>
</a>
</g>
</g>
<!-- Node12&#45;&gt;Node13 -->
<g id="edge12_Node000012_Node000013" class="edge">
<title>Node12&#45;&gt;Node13</title>
<g id="a_edge12_Node000012_Node000013"><a xlink:title=" ">
<path fill="none" stroke="#63b8ff" d="M862.48,-63.98C850.9,-51.62 835.3,-34.99 825.85,-24.91"/>
<polygon fill="#63b8ff" stroke="#63b8ff" points="860.02,-66.47 869.41,-71.37 865.12,-61.68 860.02,-66.47"/>
</a>
</g>
</g>
<!-- Node14 -->
<g id="Node000014" class="node">
<title>Node14</title>
<g id="a_Node000014"><a xlink:href="cact-clipboard_8c.html" target="_top" xlink:title=" ">
<polygon fill="white" stroke="#666666" points="982,-24.5 895,-24.5 895,-5.5 982,-5.5 982,-24.5"/>
<text text-anchor="middle" x="938.5" y="-12.5" font-family="Inter" font-size="10.00">cact&#45;clipboard.c</text>
</a>
</g>
</g>
<!-- Node12&#45;&gt;Node14 -->
<g id="edge13_Node000012_Node000014" class="edge">
<title>Node12&#45;&gt;Node14</title>
<g id="a_edge13_Node000012_Node000014"><a xlink:title=" ">
<path fill="none" stroke="#63b8ff" d="M892.77,-63.98C904.55,-51.62 920.4,-34.99 930.01,-24.91"/>
<polygon fill="#63b8ff" stroke="#63b8ff" points="890.09,-61.72 885.73,-71.37 895.16,-66.54 890.09,-61.72"/>
</a>
</g>
</g>
<!-- Node15 -->
<g id="Node000015" class="node">
<title>Node15</title>
<g id="a_Node000015"><a xlink:href="cact-export-ask_8c.html" target="_top" xlink:title=" ">
<polygon fill="white" stroke="#666666" points="1094.5,-24.5 1000.5,-24.5 1000.5,-5.5 1094.5,-5.5 1094.5,-24.5"/>
<text text-anchor="middle" x="1047.5" y="-12.5" font-family="Inter" font-size="10.00">cact&#45;export&#45;ask.c</text>
</a>
</g>
</g>
<!-- Node12&#45;&gt;Node15 -->
<g id="edge14_Node000012_Node000015" class="edge">
<title>Node12&#45;&gt;Node15</title>
<g id="a_edge14_Node000012_Node000015"><a xlink:title=" ">
<path fill="none" stroke="#63b8ff" d="M909.8,-67.84C943.39,-55.2 995.1,-35.73 1024.67,-24.6"/>
<polygon fill="#63b8ff" stroke="#63b8ff" points="908.55,-64.57 900.43,-71.37 911.02,-71.12 908.55,-64.57"/>
</a>
</g>
</g>
<!-- Node17 -->
<g id="Node000017" class="node">
<title>Node17</title>
<g id="a_Node000017"><a xlink:href="cact-iaction-tab_8c.html" target="_top" xlink:title=" ">
<polygon fill="white" stroke="#666666" points="1206,-24.5 1113,-24.5 1113,-5.5 1206,-5.5 1206,-24.5"/>
<text text-anchor="middle" x="1159.5" y="-12.5" font-family="Inter" font-size="10.00">cact&#45;iaction&#45;tab.c</text>
</a>
</g>
</g>
<!-- Node16&#45;&gt;Node17 -->
<g id="edge16_Node000016_Node000017" class="edge">
<title>Node16&#45;&gt;Node17</title>
<g id="a_edge16_Node000016_Node000017"><a xlink:title=" ">
<path fill="none" stroke="#63b8ff" d="M1159.5,-61.08C1159.5,-49.13 1159.5,-34.22 1159.5,-24.91"/>
<polygon fill="#63b8ff" stroke="#63b8ff" points="1156,-61.37 1159.5,-71.37 1163,-61.37 1156,-61.37"/>
</a>
</g>
</g>
<!-- Node18 -->
<g id="Node000018" class="node">
<title>Node18</title>
<g id="a_Node000018"><a xlink:href="cact-icon-chooser_8c.html" target="_top" xlink:title=" ">
<polygon fill="white" stroke="#666666" points="1326.5,-24.5 1224.5,-24.5 1224.5,-5.5 1326.5,-5.5 1326.5,-24.5"/>
<text text-anchor="middle" x="1275.5" y="-12.5" font-family="Inter" font-size="10.00">cact&#45;icon&#45;chooser.c</text>
</a>
</g>
</g>
<!-- Node16&#45;&gt;Node18 -->
<g id="edge17_Node000016_Node000018" class="edge">
<title>Node16&#45;&gt;Node18</title>
<g id="a_edge17_Node000016_Node000018"><a xlink:title=" ">
<path fill="none" stroke="#63b8ff" d="M1183.92,-66.53C1206.77,-53.92 1240.22,-35.47 1259.73,-24.7"/>
<polygon fill="#63b8ff" stroke="#63b8ff" points="1182.21,-63.47 1175.14,-71.37 1185.59,-69.6 1182.21,-63.47"/>
</a>
</g>
</g>
<!-- Node20 -->
<g id="Node000020" class="node">
<title>Node20</title>
<g id="a_Node000020"><a xlink:href="cact-menubar-edit_8c.html" target="_top" xlink:title=" ">
<polygon fill="white" stroke="#666666" points="1454,-24.5 1345,-24.5 1345,-5.5 1454,-5.5 1454,-24.5"/>
<text text-anchor="middle" x="1399.5" y="-12.5" font-family="Inter" font-size="10.00">cact&#45;menubar&#45;edit.c</text>
</a>
</g>
</g>
<!-- Node19&#45;&gt;Node20 -->
<g id="edge19_Node000019_Node000020" class="edge">
<title>Node19&#45;&gt;Node20</title>
<g id="a_edge19_Node000019_Node000020"><a xlink:title=" ">
<path fill="none" stroke="#63b8ff" d="M1399.5,-61.08C1399.5,-49.13 1399.5,-34.22 1399.5,-24.91"/>
<polygon fill="#63b8ff" stroke="#63b8ff" points="1396,-61.37 1399.5,-71.37 1403,-61.37 1396,-61.37"/>
</a>
</g>
</g>
<!-- Node21 -->
<g id="Node000021" class="node">
<title>Node21</title>
<g id="a_Node000021"><a xlink:href="cact-preferences-editor_8c.html" target="_top" xlink:title=" ">
<polygon fill="white" stroke="#666666" points="1603,-24.5 1472,-24.5 1472,-5.5 1603,-5.5 1603,-24.5"/>
<text text-anchor="middle" x="1537.5" y="-12.5" font-family="Inter" font-size="10.00">cact&#45;preferences&#45;editor.c</text>
</a>
</g>
</g>
<!-- Node19&#45;&gt;Node21 -->
<g id="edge20_Node000019_Node000021" class="edge">
<title>Node19&#45;&gt;Node21</title>
<g id="a_edge20_Node000019_Node000021"><a xlink:title=" ">
<path fill="none" stroke="#63b8ff" d="M1427.47,-67.03C1454.67,-54.42 1495.21,-35.61 1518.74,-24.7"/>
<polygon fill="#63b8ff" stroke="#63b8ff" points="1425.71,-63.99 1418.11,-71.37 1428.66,-70.34 1425.71,-63.99"/>
</a>
</g>
</g>
</g>
</svg>
