<?xml version="1.0" encoding="UTF-8" standalone="no"?>
<!DOCTYPE svg PUBLIC "-//W3C//DTD SVG 1.1//EN"
 "http://www.w3.org/Graphics/SVG/1.1/DTD/svg11.dtd">
<!-- Generated by graphviz version 2.43.0 (0)
 -->
<!-- Title: base&#45;assistant.h Pages: 1 -->
<svg width="437pt" height="137pt"
 viewBox="0.00 0.00 437.00 137.00" xmlns="http://www.w3.org/2000/svg" xmlns:xlink="http://www.w3.org/1999/xlink">

<svg id="main" version="1.1" xmlns="http://www.w3.org/2000/svg" xmlns:xlink="http://www.w3.org/1999/xlink" xml:space="preserve">

<style type="text/css"><![CDATA[
.node, .edge {opacity: 0.7;}
.node.selected, .edge.selected {opacity: 1;}
.edge:hover path { stroke: red; }
.edge:hover polygon { stroke: red; fill: red; }
]]></style>
<script type="application/ecmascript" xlink:href="svg.min.js"/>
<svg id="graph" class="graph">
<g id="graph0" class="graph" transform="scale(1 1) rotate(0) translate(4 133)">
<title>base&#45;assistant.h</title>
<!-- Node1 -->
<g id="Node000001" class="node">
<title>Node1</title>
<g id="a_Node000001"><a xlink:title=" ">
<polygon fill="#999999" stroke="#666666" points="211.5,-129 121.5,-129 121.5,-110 211.5,-110 211.5,-129"/>
<text text-anchor="middle" x="166.5" y="-117" font-family="Inter" font-size="10.00">base&#45;assistant.h</text>
</a>
</g>
</g>
<!-- Node2 -->
<g id="Node000002" class="node">
<title>Node2</title>
<g id="a_Node000002"><a xlink:href="base-assistant_8c.html" target="_top" xlink:title=" ">
<polygon fill="white" stroke="#666666" points="89,-74 0,-74 0,-55 89,-55 89,-74"/>
<text text-anchor="middle" x="44.5" y="-62" font-family="Inter" font-size="10.00">base&#45;assistant.c</text>
</a>
</g>
</g>
<!-- Node1&#45;&gt;Node2 -->
<g id="edge1_Node000001_Node000002" class="edge">
<title>Node1&#45;&gt;Node2</title>
<g id="a_edge1_Node000001_Node000002"><a xlink:title=" ">
<path fill="none" stroke="#63b8ff" d="M137.49,-105.9C114.96,-96.11 84.3,-82.79 64.46,-74.17"/>
<polygon fill="#63b8ff" stroke="#63b8ff" points="136.33,-109.21 146.9,-109.98 139.12,-102.79 136.33,-109.21"/>
</a>
</g>
</g>
<!-- Node3 -->
<g id="Node000003" class="node">
<title>Node3</title>
<g id="a_Node000003"><a xlink:href="cact-assistant-export_8h.html" target="_top" xlink:title=" ">
<polygon fill="white" stroke="#666666" points="226.5,-74 106.5,-74 106.5,-55 226.5,-55 226.5,-74"/>
<text text-anchor="middle" x="166.5" y="-62" font-family="Inter" font-size="10.00">cact&#45;assistant&#45;export.h</text>
</a>
</g>
</g>
<!-- Node1&#45;&gt;Node3 -->
<g id="edge2_Node000001_Node000003" class="edge">
<title>Node1&#45;&gt;Node3</title>
<g id="a_edge2_Node000001_Node000003"><a xlink:title=" ">
<path fill="none" stroke="#63b8ff" d="M166.5,-99.66C166.5,-90.93 166.5,-80.99 166.5,-74.09"/>
<polygon fill="#63b8ff" stroke="#63b8ff" points="163,-99.75 166.5,-109.75 170,-99.75 163,-99.75"/>
</a>
</g>
</g>
<!-- Node6 -->
<g id="Node000006" class="node">
<title>Node6</title>
<g id="a_Node000006"><a xlink:href="cact-assistant-import_8h.html" target="_top" xlink:title=" ">
<polygon fill="white" stroke="#666666" points="366,-74 245,-74 245,-55 366,-55 366,-74"/>
<text text-anchor="middle" x="305.5" y="-62" font-family="Inter" font-size="10.00">cact&#45;assistant&#45;import.h</text>
</a>
</g>
</g>
<!-- Node1&#45;&gt;Node6 -->
<g id="edge5_Node000001_Node000006" class="edge">
<title>Node1&#45;&gt;Node6</title>
<g id="a_edge5_Node000001_Node000006"><a xlink:title=" ">
<path fill="none" stroke="#63b8ff" d="M198.18,-106.42C223.97,-96.59 259.74,-82.95 282.76,-74.17"/>
<polygon fill="#63b8ff" stroke="#63b8ff" points="196.93,-103.15 188.83,-109.98 199.42,-109.69 196.93,-103.15"/>
</a>
</g>
</g>
<!-- Node4 -->
<g id="Node000004" class="node">
<title>Node4</title>
<g id="a_Node000004"><a xlink:href="cact-assistant-export_8c.html" target="_top" xlink:title=" ">
<polygon fill="white" stroke="#666666" points="161,-19 42,-19 42,0 161,0 161,-19"/>
<text text-anchor="middle" x="101.5" y="-7" font-family="Inter" font-size="10.00">cact&#45;assistant&#45;export.c</text>
</a>
</g>
</g>
<!-- Node3&#45;&gt;Node4 -->
<g id="edge3_Node000003_Node000004" class="edge">
<title>Node3&#45;&gt;Node4</title>
<g id="a_edge3_Node000003_Node000004"><a xlink:title=" ">
<path fill="none" stroke="#63b8ff" d="M148.23,-48.6C136.58,-39.11 121.9,-27.13 112.13,-19.17"/>
<polygon fill="#63b8ff" stroke="#63b8ff" points="146.09,-51.38 156.06,-54.98 150.52,-45.95 146.09,-51.38"/>
</a>
</g>
</g>
<!-- Node5 -->
<g id="Node000005" class="node">
<title>Node5</title>
<g id="a_Node000005"><a xlink:href="cact-menubar-tools_8c.html" target="_top" xlink:title=" ">
<polygon fill="white" stroke="#666666" points="292,-19 179,-19 179,0 292,0 292,-19"/>
<text text-anchor="middle" x="235.5" y="-7" font-family="Inter" font-size="10.00">cact&#45;menubar&#45;tools.c</text>
</a>
</g>
</g>
<!-- Node3&#45;&gt;Node5 -->
<g id="edge4_Node000003_Node000005" class="edge">
<title>Node3&#45;&gt;Node5</title>
<g id="a_edge4_Node000003_Node000005"><a xlink:title=" ">
<path fill="none" stroke="#63b8ff" d="M185.54,-48.88C197.96,-39.34 213.74,-27.21 224.21,-19.17"/>
<polygon fill="#63b8ff" stroke="#63b8ff" points="183.38,-46.12 177.59,-54.98 187.65,-51.67 183.38,-46.12"/>
</a>
</g>
</g>
<!-- Node6&#45;&gt;Node5 -->
<g id="edge7_Node000006_Node000005" class="edge">
<title>Node6&#45;&gt;Node5</title>
<g id="a_edge7_Node000006_Node000005"><a xlink:title=" ">
<path fill="none" stroke="#63b8ff" d="M286.19,-48.88C273.59,-39.34 257.57,-27.21 246.95,-19.17"/>
<polygon fill="#63b8ff" stroke="#63b8ff" points="284.17,-51.74 294.25,-54.98 288.39,-46.16 284.17,-51.74"/>
</a>
</g>
</g>
<!-- Node7 -->
<g id="Node000007" class="node">
<title>Node7</title>
<g id="a_Node000007"><a xlink:href="cact-assistant-import_8c.html" target="_top" xlink:title=" ">
<polygon fill="white" stroke="#666666" points="429,-19 310,-19 310,0 429,0 429,-19"/>
<text text-anchor="middle" x="369.5" y="-7" font-family="Inter" font-size="10.00">cact&#45;assistant&#45;import.c</text>
</a>
</g>
</g>
<!-- Node6&#45;&gt;Node7 -->
<g id="edge6_Node000006_Node000007" class="edge">
<title>Node6&#45;&gt;Node7</title>
<g id="a_edge6_Node000006_Node000007"><a xlink:title=" ">
<path fill="none" stroke="#63b8ff" d="M323.49,-48.6C334.96,-39.11 349.41,-27.13 359.03,-19.17"/>
<polygon fill="#63b8ff" stroke="#63b8ff" points="321.25,-45.91 315.78,-54.98 325.72,-51.3 321.25,-45.91"/>
</a>
</g>
</g>
</g>
</svg>
</svg>

<style type='text/css'>
<![CDATA[
[data-mouse-over-selected='false'] { opacity: 0.7; }
[data-mouse-over-selected='true']  { opacity: 1.0; }
]]>
</style>
<script type="application/ecmascript"><![CDATA[
document.addEventListener('DOMContentLoaded', (event) => {
  highlightEdges();
  highlightAdjacentNodes();
});
]]></script>
</svg>
