<?xml version="1.0" encoding="UTF-8" standalone="no"?>
<!DOCTYPE svg PUBLIC "-//W3C//DTD SVG 1.1//EN"
 "http://www.w3.org/Graphics/SVG/1.1/DTD/svg11.dtd">
<!-- Generated by graphviz version 2.43.0 (0)
 -->
<!-- Title: cact&#45;ischemes&#45;tab.c Pages: 1 -->
<!--zoomable 203 -->

<svg id="main" version="1.1" xmlns="http://www.w3.org/2000/svg" xmlns:xlink="http://www.w3.org/1999/xlink" xml:space="preserve" onload="init(evt)">

<style type="text/css"><![CDATA[
.node, .edge {opacity: 0.7;}
.node.selected, .edge.selected {opacity: 1;}
.edge:hover path { stroke: red; }
.edge:hover polygon { stroke: red; fill: red; }
]]></style>

<defs>
  <circle id="rim" cx="0" cy="0" r="7"/>
  <circle id="rim2" cx="0" cy="0" r="3.5"/>
  <g id="zoomPlus">
    <use xlink:href="#rim" fill="#404040"><set attributeName="fill" to="#808080" begin="zoomplus.mouseover" end="zoomplus.mouseout"/></use>
    <path d="M-4,0h8M0,-4v8" fill="none" stroke="white" stroke-width="1.5" pointer-events="none"/>
  </g>
  <g id="zoomMin">
    <use xlink:href="#rim" fill="#404040"><set attributeName="fill" to="#808080" begin="zoomminus.mouseover" end="zoomminus.mouseout"/></use>
    <path d="M-4,0h8" fill="none" stroke="white" stroke-width="1.5" pointer-events="none"/>
  </g>
  <g id="arrowUp" transform="translate(30 24)">
    <use xlink:href="#rim"/>
    <path pointer-events="none" fill="none" stroke="white" stroke-width="1.5" d="M0,-3.0v7 M-2.5,-0.5L0,-3.0L2.5,-0.5"/>
  </g>
  <g id="arrowRight" transform="rotate(90) translate(36 -43)">
    <use xlink:href="#rim"/>
    <path pointer-events="none" fill="none" stroke="white" stroke-width="1.5" d="M0,-3.0v7 M-2.5,-0.5L0,-3.0L2.5,-0.5"/>
  </g>
  <g id="arrowDown" transform="rotate(180) translate(-30 -48)">
    <use xlink:href="#rim"/>
    <path pointer-events="none" fill="none" stroke="white" stroke-width="1.5" d="M0,-3.0v7 M-2.5,-0.5L0,-3.0L2.5,-0.5"/>
  </g>
  <g id="arrowLeft" transform="rotate(270) translate(-36 17)">
    <use xlink:href="#rim"/>
    <path pointer-events="none" fill="none" stroke="white" stroke-width="1.5" d="M0,-3.0v7 M-2.5,-0.5L0,-3.0L2.5,-0.5"/>
  </g>
  <g id="resetDef">
    <use xlink:href="#rim2" fill="#404040"><set attributeName="fill" to="#808080" begin="reset.mouseover" end="reset.mouseout"/></use>
  </g>
</defs>
<script type="application/ecmascript">
var viewWidth = 1201;
var viewHeight = 203;
var sectionId = 'dynsection-0';
</script>
<script type="application/ecmascript" xlink:href="svg.min.js"/>
<svg id="graph" class="graph">
<g id="viewport">
<title>cact&#45;ischemes&#45;tab.c</title>
<!-- Node1 -->
<g id="Node000001" class="node">
<title>Node1</title>
<g id="a_Node000001"><a xlink:title=" ">
<polygon fill="#999999" stroke="#666666" points="767.98,-195 661.98,-195 661.98,-176 767.98,-176 767.98,-195"/>
<text text-anchor="middle" x="714.98" y="-183" font-family="Inter" font-size="10.00">cact&#45;ischemes&#45;tab.c</text>
</a>
</g>
</g>
<!-- Node2 -->
<g id="Node000002" class="node">
<title>Node2</title>
<g id="a_Node000002"><a xlink:title=" ">
<polygon fill="#e0e0e0" stroke="#999999" points="270.98,-140 198.98,-140 198.98,-121 270.98,-121 270.98,-140"/>
<text text-anchor="middle" x="234.98" y="-128" font-family="Inter" font-size="10.00">glib/gi18n.h</text>
</a>
</g>
</g>
<!-- Node1&#45;&gt;Node2 -->
<g id="edge1_Node000001_Node000002" class="edge">
<title>Node1&#45;&gt;Node2</title>
<g id="a_edge1_Node000001_Node000002"><a xlink:title=" ">
<path fill="none" stroke="#63b8ff" d="M661.9,-180.53C581.7,-174.21 424.66,-160.58 281.56,-140.12"/>
<polygon fill="#63b8ff" stroke="#63b8ff" points="281.68,-136.6 271.28,-138.63 280.68,-143.53 281.68,-136.6"/>
</a>
</g>
</g>
<!-- Node3 -->
<g id="Node000003" class="node">
<title>Node3</title>
<g id="a_Node000003"><a xlink:href="na-core-utils_8h.html" target="_top" xlink:title=" ">
<polygon fill="white" stroke="#666666" points="388.48,-140 289.48,-140 289.48,-121 388.48,-121 388.48,-140"/>
<text text-anchor="middle" x="338.98" y="-128" font-family="Inter" font-size="10.00">api/na&#45;core&#45;utils.h</text>
</a>
</g>
</g>
<!-- Node1&#45;&gt;Node3 -->
<g id="edge2_Node000001_Node000003" class="edge">
<title>Node1&#45;&gt;Node3</title>
<g id="a_edge2_Node000001_Node000003"><a xlink:title=" ">
<path fill="none" stroke="#63b8ff" d="M661.96,-177.12C601.04,-168.62 497.75,-154.17 398.45,-140.06"/>
<polygon fill="#63b8ff" stroke="#63b8ff" points="398.94,-136.6 388.55,-138.66 397.96,-143.53 398.94,-136.6"/>
</a>
</g>
</g>
<!-- Node5 -->
<g id="Node000005" class="node">
<title>Node5</title>
<g id="a_Node000005"><a xlink:href="na-object-api_8h.html" target="_top" xlink:title=" ">
<polygon fill="white" stroke="#666666" points="508.98,-140 406.98,-140 406.98,-121 508.98,-121 508.98,-140"/>
<text text-anchor="middle" x="457.98" y="-128" font-family="Inter" font-size="10.00">api/na&#45;object&#45;api.h</text>
</a>
</g>
</g>
<!-- Node1&#45;&gt;Node5 -->
<g id="edge4_Node000001_Node000005" class="edge">
<title>Node1&#45;&gt;Node5</title>
<g id="a_edge4_Node000001_Node000005"><a xlink:title=" ">
<path fill="none" stroke="#63b8ff" d="M673.68,-175.98C629.04,-166.78 557.81,-152.09 509.53,-142.13"/>
<polygon fill="#63b8ff" stroke="#63b8ff" points="510.09,-138.67 499.59,-140.08 508.68,-145.53 510.09,-138.67"/>
</a>
</g>
</g>
<!-- Node21 -->
<g id="Node000021" class="node">
<title>Node21</title>
<g id="a_Node000021"><a xlink:href="base-gtk-utils_8h.html" target="_top" xlink:title=" ">
<polygon fill="white" stroke="#666666" points="1193.48,-140 1106.48,-140 1106.48,-121 1193.48,-121 1193.48,-140"/>
<text text-anchor="middle" x="1149.98" y="-128" font-family="Inter" font-size="10.00">base&#45;gtk&#45;utils.h</text>
</a>
</g>
</g>
<!-- Node1&#45;&gt;Node21 -->
<g id="edge16_Node000001_Node000021" class="edge">
<title>Node1&#45;&gt;Node21</title>
<g id="a_edge16_Node000001_Node000021"><a xlink:title=" ">
<path fill="none" stroke="#63b8ff" d="M768.21,-179.03C840.16,-171.47 972.69,-156.99 1096.3,-140.04"/>
<polygon fill="#63b8ff" stroke="#63b8ff" points="1096.9,-143.49 1106.33,-138.65 1095.94,-136.55 1096.9,-143.49"/>
</a>
</g>
</g>
<!-- Node25 -->
<g id="Node000025" class="node">
<title>Node25</title>
<g id="a_Node000025"><a xlink:href="cact-main-tab_8h.html" target="_top" xlink:title=" ">
<polygon fill="white" stroke="#666666" points="701.48,-140 614.48,-140 614.48,-121 701.48,-121 701.48,-140"/>
<text text-anchor="middle" x="657.98" y="-128" font-family="Inter" font-size="10.00">cact&#45;main&#45;tab.h</text>
</a>
</g>
</g>
<!-- Node1&#45;&gt;Node25 -->
<g id="edge18_Node000001_Node000025" class="edge">
<title>Node1&#45;&gt;Node25</title>
<g id="a_edge18_Node000001_Node000025"><a xlink:title=" ">
<path fill="none" stroke="#63b8ff" d="M705.82,-175.98C697.47,-168.23 684.94,-156.58 674.8,-147.14"/>
<polygon fill="#63b8ff" stroke="#63b8ff" points="677.01,-144.42 667.3,-140.17 672.24,-149.54 677.01,-144.42"/>
</a>
</g>
</g>
<!-- Node34 -->
<g id="Node000034" class="node">
<title>Node34</title>
<g id="a_Node000034"><a xlink:href="cact-match-list_8h.html" target="_top" xlink:title=" ">
<polygon fill="white" stroke="#666666" points="935.48,-140 844.48,-140 844.48,-121 935.48,-121 935.48,-140"/>
<text text-anchor="middle" x="889.98" y="-128" font-family="Inter" font-size="10.00">cact&#45;match&#45;list.h</text>
</a>
</g>
</g>
<!-- Node1&#45;&gt;Node34 -->
<g id="edge21_Node000001_Node000034" class="edge">
<title>Node1&#45;&gt;Node34</title>
<g id="a_edge21_Node000001_Node000034"><a xlink:title=" ">
<path fill="none" stroke="#63b8ff" d="M743.09,-175.98C772.6,-167.05 819.17,-152.94 851.94,-143.02"/>
<polygon fill="#63b8ff" stroke="#63b8ff" points="853.08,-146.33 861.64,-140.08 851.05,-139.63 853.08,-146.33"/>
</a>
</g>
</g>
<!-- Node35 -->
<g id="Node000035" class="node">
<title>Node35</title>
<g id="a_Node000035"><a xlink:href="cact-add-scheme-dialog_8h.html" target="_top" xlink:title=" ">
<polygon fill="white" stroke="#666666" points="1087.98,-140 953.98,-140 953.98,-121 1087.98,-121 1087.98,-140"/>
<text text-anchor="middle" x="1020.98" y="-128" font-family="Inter" font-size="10.00">cact&#45;add&#45;scheme&#45;dialog.h</text>
</a>
</g>
</g>
<!-- Node1&#45;&gt;Node35 -->
<g id="edge23_Node000001_Node000035" class="edge">
<title>Node1&#45;&gt;Node35</title>
<g id="a_edge23_Node000001_Node000035"><a xlink:title=" ">
<path fill="none" stroke="#63b8ff" d="M764.14,-175.98C817.93,-166.67 904.14,-151.74 961.64,-141.78"/>
<polygon fill="#63b8ff" stroke="#63b8ff" points="962.42,-145.19 971.68,-140.04 961.23,-138.3 962.42,-145.19"/>
</a>
</g>
</g>
<!-- Node37 -->
<g id="Node000037" class="node">
<title>Node37</title>
<g id="a_Node000037"><a xlink:href="cact-ischemes-tab_8h.html" target="_top" xlink:title=" ">
<polygon fill="white" stroke="#666666" points="826.48,-140 719.48,-140 719.48,-121 826.48,-121 826.48,-140"/>
<text text-anchor="middle" x="772.98" y="-128" font-family="Inter" font-size="10.00">cact&#45;ischemes&#45;tab.h</text>
</a>
</g>
</g>
<!-- Node1&#45;&gt;Node37 -->
<g id="edge26_Node000001_Node000037" class="edge">
<title>Node1&#45;&gt;Node37</title>
<g id="a_edge26_Node000001_Node000037"><a xlink:title=" ">
<path fill="none" stroke="#63b8ff" d="M724.29,-175.98C732.78,-168.23 745.53,-156.58 755.86,-147.14"/>
<polygon fill="#63b8ff" stroke="#63b8ff" points="758.47,-149.5 763.49,-140.17 753.74,-144.33 758.47,-149.5"/>
</a>
</g>
</g>
<!-- Node4 -->
<g id="Node000004" class="node">
<title>Node4</title>
<g id="a_Node000004"><a xlink:title=" ">
<polygon fill="#e0e0e0" stroke="#999999" points="47.98,-19 5.98,-19 5.98,0 47.98,0 47.98,-19"/>
<text text-anchor="middle" x="26.98" y="-7" font-family="Inter" font-size="10.00">glib.h</text>
</a>
</g>
</g>
<!-- Node3&#45;&gt;Node4 -->
<g id="edge3_Node000003_Node000004" class="edge">
<title>Node3&#45;&gt;Node4</title>
<g id="a_edge3_Node000003_Node000004"><a xlink:title=" ">
<path fill="none" stroke="#63b8ff" d="M289.41,-122.31C286.22,-121.87 283.05,-121.42 279.98,-121 219.36,-112.64 47.32,-131.01 6.98,-85 -6.9,-69.18 3.8,-44.7 14.13,-28.17"/>
<polygon fill="#63b8ff" stroke="#63b8ff" points="17.3,-29.72 19.98,-19.47 11.49,-25.81 17.3,-29.72"/>
</a>
</g>
</g>
<!-- Node6 -->
<g id="Node000006" class="node">
<title>Node6</title>
<g id="a_Node000006"><a xlink:href="na-ifactory-object_8h.html" target="_top" xlink:title=" ">
<polygon fill="#fff0f0" stroke="red" points="356.48,-79.5 249.48,-79.5 249.48,-60.5 356.48,-60.5 356.48,-79.5"/>
<text text-anchor="middle" x="302.98" y="-67.5" font-family="Inter" font-size="10.00">na&#45;ifactory&#45;object.h</text>
</a>
</g>
</g>
<!-- Node5&#45;&gt;Node6 -->
<g id="edge5_Node000005_Node000006" class="edge">
<title>Node5&#45;&gt;Node6</title>
<g id="a_edge5_Node000005_Node000006"><a xlink:title=" ">
<path fill="none" stroke="#63b8ff" d="M435.44,-120.99C409.03,-111.03 365.1,-94.45 335.13,-83.13"/>
<polygon fill="#63b8ff" stroke="#63b8ff" points="336.13,-79.77 325.54,-79.52 333.66,-86.32 336.13,-79.77"/>
</a>
</g>
</g>
<!-- Node12 -->
<g id="Node000012" class="node">
<title>Node12</title>
<g id="a_Node000012"><a xlink:href="na-ifactory-object-data_8h.html" target="_top" xlink:title=" ">
<polygon fill="white" stroke="#666666" points="113.98,-85 15.98,-85 15.98,-55 113.98,-55 113.98,-85"/>
<text text-anchor="start" x="23.98" y="-73" font-family="Inter" font-size="10.00">na&#45;ifactory&#45;object</text>
<text text-anchor="middle" x="64.98" y="-62" font-family="Inter" font-size="10.00">&#45;data.h</text>
</a>
</g>
</g>
<!-- Node5&#45;&gt;Node12 -->
<g id="edge6_Node000005_Node000012" class="edge">
<title>Node5&#45;&gt;Node12</title>
<g id="a_edge6_Node000005_Node000012"><a xlink:title=" ">
<path fill="none" stroke="#63b8ff" d="M406.72,-122.33C403.43,-121.88 400.15,-121.43 396.98,-121 278.47,-104.96 245.46,-107.3 124.3,-85.13"/>
<polygon fill="#63b8ff" stroke="#63b8ff" points="124.73,-81.65 114.26,-83.27 123.46,-88.53 124.73,-81.65"/>
</a>
</g>
</g>
<!-- Node13 -->
<g id="Node000013" class="node">
<title>Node13</title>
<g id="a_Node000013"><a xlink:href="na-iduplicable_8h.html" target="_top" xlink:title=" ">
<polygon fill="white" stroke="#666666" points="502.48,-79.5 413.48,-79.5 413.48,-60.5 502.48,-60.5 502.48,-79.5"/>
<text text-anchor="middle" x="457.98" y="-67.5" font-family="Inter" font-size="10.00">na&#45;iduplicable.h</text>
</a>
</g>
</g>
<!-- Node5&#45;&gt;Node13 -->
<g id="edge8_Node000005_Node000013" class="edge">
<title>Node5&#45;&gt;Node13</title>
<g id="a_edge8_Node000005_Node000013"><a xlink:title=" ">
<path fill="none" stroke="#63b8ff" d="M457.98,-120.87C457.98,-112.75 457.98,-100.31 457.98,-89.89"/>
<polygon fill="#63b8ff" stroke="#63b8ff" points="461.48,-89.67 457.98,-79.67 454.48,-89.67 461.48,-89.67"/>
</a>
</g>
</g>
<!-- Node14 -->
<g id="Node000014" class="node">
<title>Node14</title>
<g id="a_Node000014"><a xlink:href="na-icontext_8h.html" target="_top" xlink:title=" ">
<polygon fill="white" stroke="#666666" points="713.48,-79.5 636.48,-79.5 636.48,-60.5 713.48,-60.5 713.48,-79.5"/>
<text text-anchor="middle" x="674.98" y="-67.5" font-family="Inter" font-size="10.00">na&#45;icontext.h</text>
</a>
</g>
</g>
<!-- Node5&#45;&gt;Node14 -->
<g id="edge10_Node000005_Node000014" class="edge">
<title>Node5&#45;&gt;Node14</title>
<g id="a_edge10_Node000005_Node000014"><a xlink:title=" ">
<path fill="none" stroke="#63b8ff" d="M491.39,-120.98C525.54,-112.2 580.05,-98.02 626.98,-85 629.97,-84.17 633.07,-83.29 636.19,-82.41"/>
<polygon fill="#63b8ff" stroke="#63b8ff" points="637.43,-85.69 646.07,-79.56 635.5,-78.96 637.43,-85.69"/>
</a>
</g>
</g>
<!-- Node15 -->
<g id="Node000015" class="node">
<title>Node15</title>
<g id="a_Node000015"><a xlink:href="na-object-action_8h.html" target="_top" xlink:title=" ">
<polygon fill="#fff0f0" stroke="red" points="231.48,-79.5 132.48,-79.5 132.48,-60.5 231.48,-60.5 231.48,-79.5"/>
<text text-anchor="middle" x="181.98" y="-67.5" font-family="Inter" font-size="10.00">na&#45;object&#45;action.h</text>
</a>
</g>
</g>
<!-- Node5&#45;&gt;Node15 -->
<g id="edge12_Node000005_Node000015" class="edge">
<title>Node5&#45;&gt;Node15</title>
<g id="a_edge12_Node000005_Node000015"><a xlink:title=" ">
<path fill="none" stroke="#63b8ff" d="M413.62,-120.92C369.5,-112.28 299.93,-98.35 239.98,-85 235.59,-84.02 231.03,-82.98 226.47,-81.91"/>
<polygon fill="#63b8ff" stroke="#63b8ff" points="227.12,-78.47 216.59,-79.57 225.51,-85.28 227.12,-78.47"/>
</a>
</g>
</g>
<!-- Node19 -->
<g id="Node000019" class="node">
<title>Node19</title>
<g id="a_Node000019"><a xlink:href="na-object-profile_8h.html" target="_top" xlink:title=" ">
<polygon fill="#fff0f0" stroke="red" points="333.48,-19 232.48,-19 232.48,0 333.48,0 333.48,-19"/>
<text text-anchor="middle" x="282.98" y="-7" font-family="Inter" font-size="10.00">na&#45;object&#45;profile.h</text>
</a>
</g>
</g>
<!-- Node5&#45;&gt;Node19 -->
<g id="edge14_Node000005_Node000019" class="edge">
<title>Node5&#45;&gt;Node19</title>
<g id="a_edge14_Node000005_Node000019"><a xlink:title=" ">
<path fill="none" stroke="#63b8ff" d="M447.47,-120.91C424.99,-102.55 373.55,-60.69 364.98,-55 347.27,-43.24 326.16,-31.84 309.8,-23.52"/>
<polygon fill="#63b8ff" stroke="#63b8ff" points="311.29,-20.35 300.78,-19.01 308.15,-26.61 311.29,-20.35"/>
</a>
</g>
</g>
<!-- Node20 -->
<g id="Node000020" class="node">
<title>Node20</title>
<g id="a_Node000020"><a xlink:href="na-object-menu_8h.html" target="_top" xlink:title=" ">
<polygon fill="#fff0f0" stroke="red" points="617.98,-79.5 519.98,-79.5 519.98,-60.5 617.98,-60.5 617.98,-79.5"/>
<text text-anchor="middle" x="568.98" y="-67.5" font-family="Inter" font-size="10.00">na&#45;object&#45;menu.h</text>
</a>
</g>
</g>
<!-- Node5&#45;&gt;Node20 -->
<g id="edge15_Node000005_Node000020" class="edge">
<title>Node5&#45;&gt;Node20</title>
<g id="a_edge15_Node000005_Node000020"><a xlink:title=" ">
<path fill="none" stroke="#63b8ff" d="M474.35,-120.87C492.55,-111.28 522.17,-95.67 543.42,-84.47"/>
<polygon fill="#63b8ff" stroke="#63b8ff" points="545.32,-87.43 552.53,-79.67 542.05,-81.23 545.32,-87.43"/>
</a>
</g>
</g>
<!-- Node12&#45;&gt;Node4 -->
<g id="edge7_Node000012_Node000004" class="edge">
<title>Node12&#45;&gt;Node4</title>
<g id="a_edge7_Node000012_Node000004"><a xlink:title=" ">
<path fill="none" stroke="#63b8ff" d="M55.78,-54.84C50.49,-46.69 43.8,-36.4 38.2,-27.78"/>
<polygon fill="#63b8ff" stroke="#63b8ff" points="41.05,-25.75 32.67,-19.27 35.18,-29.56 41.05,-25.75"/>
</a>
</g>
</g>
<!-- Node9 -->
<g id="Node000009" class="node">
<title>Node9</title>
<g id="a_Node000009"><a xlink:title=" ">
<polygon fill="#e0e0e0" stroke="#999999" points="711.98,-19 637.98,-19 637.98,0 711.98,0 711.98,-19"/>
<text text-anchor="middle" x="674.98" y="-7" font-family="Inter" font-size="10.00">glib&#45;object.h</text>
</a>
</g>
</g>
<!-- Node13&#45;&gt;Node9 -->
<g id="edge9_Node000013_Node000009" class="edge">
<title>Node13&#45;&gt;Node9</title>
<g id="a_edge9_Node000013_Node000009"><a xlink:title=" ">
<path fill="none" stroke="#63b8ff" d="M489.53,-60.49C527.54,-50.25 591.5,-33 633.48,-21.69"/>
<polygon fill="#63b8ff" stroke="#63b8ff" points="634.64,-25 643.38,-19.02 632.82,-18.24 634.64,-25"/>
</a>
</g>
</g>
<!-- Node14&#45;&gt;Node9 -->
<g id="edge11_Node000014_Node000009" class="edge">
<title>Node14&#45;&gt;Node9</title>
<g id="a_edge11_Node000014_Node000009"><a xlink:title=" ">
<path fill="none" stroke="#63b8ff" d="M674.98,-60.37C674.98,-52.25 674.98,-39.81 674.98,-29.39"/>
<polygon fill="#63b8ff" stroke="#63b8ff" points="678.48,-29.17 674.98,-19.17 671.48,-29.17 678.48,-29.17"/>
</a>
</g>
</g>
<!-- Node15&#45;&gt;Node19 -->
<g id="edge13_Node000015_Node000019" class="edge">
<title>Node15&#45;&gt;Node19</title>
<g id="a_edge13_Node000015_Node000019"><a xlink:title=" ">
<path fill="none" stroke="#63b8ff" d="M196.88,-60.37C213.29,-50.86 239.9,-35.45 259.2,-24.27"/>
<polygon fill="#63b8ff" stroke="#63b8ff" points="261.11,-27.21 268.01,-19.17 257.6,-21.15 261.11,-27.21"/>
</a>
</g>
</g>
<!-- Node22 -->
<g id="Node000022" class="node">
<title>Node22</title>
<g id="a_Node000022"><a xlink:href="base-window_8h.html" target="_top" xlink:title=" ">
<polygon fill="#fff0f0" stroke="red" points="1063.98,-19 977.98,-19 977.98,0 1063.98,0 1063.98,-19"/>
<text text-anchor="middle" x="1020.98" y="-7" font-family="Inter" font-size="10.00">base&#45;window.h</text>
</a>
</g>
</g>
<!-- Node21&#45;&gt;Node22 -->
<g id="edge17_Node000021_Node000022" class="edge">
<title>Node21&#45;&gt;Node22</title>
<g id="a_edge17_Node000021_Node000022"><a xlink:title=" ">
<path fill="none" stroke="#63b8ff" d="M1140.7,-120.94C1119.23,-101.14 1065.87,-51.91 1038.21,-26.4"/>
<polygon fill="#63b8ff" stroke="#63b8ff" points="1040.24,-23.51 1030.52,-19.3 1035.49,-28.65 1040.24,-23.51"/>
</a>
</g>
</g>
<!-- Node25&#45;&gt;Node14 -->
<g id="edge19_Node000025_Node000014" class="edge">
<title>Node25&#45;&gt;Node14</title>
<g id="a_edge19_Node000025_Node000014"><a xlink:title=" ">
<path fill="none" stroke="#63b8ff" d="M660.48,-120.87C662.87,-112.66 666.54,-100.04 669.58,-89.55"/>
<polygon fill="#63b8ff" stroke="#63b8ff" points="673.03,-90.25 672.46,-79.67 666.31,-88.29 673.03,-90.25"/>
</a>
</g>
</g>
<!-- Node26 -->
<g id="Node000026" class="node">
<title>Node26</title>
<g id="a_Node000026"><a xlink:href="cact-main-window_8h.html" target="_top" xlink:title=" ">
<polygon fill="#fff0f0" stroke="red" points="838.48,-79.5 731.48,-79.5 731.48,-60.5 838.48,-60.5 838.48,-79.5"/>
<text text-anchor="middle" x="784.98" y="-67.5" font-family="Inter" font-size="10.00">cact&#45;main&#45;window.h</text>
</a>
</g>
</g>
<!-- Node25&#45;&gt;Node26 -->
<g id="edge20_Node000025_Node000026" class="edge">
<title>Node25&#45;&gt;Node26</title>
<g id="a_edge20_Node000025_Node000026"><a xlink:title=" ">
<path fill="none" stroke="#63b8ff" d="M676.44,-120.99C697.7,-111.2 732.83,-95.02 757.34,-83.73"/>
<polygon fill="#63b8ff" stroke="#63b8ff" points="758.87,-86.88 766.49,-79.52 755.94,-80.52 758.87,-86.88"/>
</a>
</g>
</g>
<!-- Node34&#45;&gt;Node22 -->
<g id="edge22_Node000034_Node000022" class="edge">
<title>Node34&#45;&gt;Node22</title>
<g id="a_edge22_Node000034_Node000022"><a xlink:title=" ">
<path fill="none" stroke="#63b8ff" d="M899.4,-120.94C921.29,-101.06 975.85,-51.49 1003.83,-26.07"/>
<polygon fill="#63b8ff" stroke="#63b8ff" points="1006.24,-28.62 1011.29,-19.3 1001.53,-23.43 1006.24,-28.62"/>
</a>
</g>
</g>
<!-- Node36 -->
<g id="Node000036" class="node">
<title>Node36</title>
<g id="a_Node000036"><a xlink:href="base-dialog_8h.html" target="_top" xlink:title=" ">
<polygon fill="white" stroke="#666666" points="1059.98,-79.5 981.98,-79.5 981.98,-60.5 1059.98,-60.5 1059.98,-79.5"/>
<text text-anchor="middle" x="1020.98" y="-67.5" font-family="Inter" font-size="10.00">base&#45;dialog.h</text>
</a>
</g>
</g>
<!-- Node35&#45;&gt;Node36 -->
<g id="edge24_Node000035_Node000036" class="edge">
<title>Node35&#45;&gt;Node36</title>
<g id="a_edge24_Node000035_Node000036"><a xlink:title=" ">
<path fill="none" stroke="#63b8ff" d="M1020.98,-120.87C1020.98,-112.75 1020.98,-100.31 1020.98,-89.89"/>
<polygon fill="#63b8ff" stroke="#63b8ff" points="1024.48,-89.67 1020.98,-79.67 1017.48,-89.67 1024.48,-89.67"/>
</a>
</g>
</g>
<!-- Node36&#45;&gt;Node22 -->
<g id="edge25_Node000036_Node000022" class="edge">
<title>Node36&#45;&gt;Node22</title>
<g id="a_edge25_Node000036_Node000022"><a xlink:title=" ">
<path fill="none" stroke="#63b8ff" d="M1020.98,-60.37C1020.98,-52.25 1020.98,-39.81 1020.98,-29.39"/>
<polygon fill="#63b8ff" stroke="#63b8ff" points="1024.48,-29.17 1020.98,-19.17 1017.48,-29.17 1024.48,-29.17"/>
</a>
</g>
</g>
<!-- Node37&#45;&gt;Node9 -->
<g id="edge27_Node000037_Node000009" class="edge">
<title>Node37&#45;&gt;Node9</title>
<g id="a_edge27_Node000037_Node000009"><a xlink:title=" ">
<path fill="none" stroke="#63b8ff" d="M800.62,-120.98C817.56,-114.17 837.86,-102.76 847.98,-85 854.57,-73.41 856.15,-65.54 847.98,-55 832.65,-35.23 767.96,-22.71 722.19,-16.15"/>
<polygon fill="#63b8ff" stroke="#63b8ff" points="722.55,-12.66 712.16,-14.76 721.59,-19.6 722.55,-12.66"/>
</a>
</g>
</g>
</g>
</svg>

<g id="navigator" transform="translate(0 0)" fill="#404254">
  <rect fill="#f2f5e9" fill-opacity="0.5" stroke="#606060" stroke-width=".5" x="0" y="0" width="60" height="60"/>
  <use id="zoomplus" xlink:href="#zoomPlus" x="17" y="9" onmousedown="handleZoom(evt,'in')"/>
  <use id="zoomminus" xlink:href="#zoomMin" x="42" y="9" onmousedown="handleZoom(evt,'out')"/>
  <use id="reset" xlink:href="#resetDef" x="30" y="36" onmousedown="handleReset()"/>
   <use id="arrowup" xlink:href="#arrowUp" x="0" y="0" onmousedown="handlePan(0,-1)"/>
  <use id="arrowright" xlink:href="#arrowRight" x="0" y="0" onmousedown="handlePan(1,0)"/>
  <use id="arrowdown" xlink:href="#arrowDown" x="0" y="0" onmousedown="handlePan(0,1)"/>
  <use id="arrowleft" xlink:href="#arrowLeft" x="0" y="0" onmousedown="handlePan(-1,0)"/>
</g>
<svg viewBox="0 0 15 15" width="100%" height="30px" preserveAspectRatio="xMaxYMin meet">
 <g id="arrow_out" transform="scale(0.3 0.3)">
  <a xlink:href="cact-ischemes-tab_8c__incl_org.svg" target="_base">
   <rect id="button" ry="5" rx="5" y="6" x="6" height="38" width="38"
        fill="#f2f5e9" fill-opacity="0.5" stroke="#606060" stroke-width="1.0"/>
   <path id="arrow"
     d="M 11.500037,31.436501 C 11.940474,20.09759 22.043105,11.32322 32.158766,21.979434 L 37.068811,17.246167 C 37.068811,17.246167 37.088388,32 37.088388,32 L 22.160133,31.978069 C 22.160133,31.978069 26.997745,27.140456 26.997745,27.140456 C 18.528582,18.264221 13.291696,25.230495 11.500037,31.436501 z"
     style="fill:#404040;"/>
  </a>
 </g>
</svg>

<style type='text/css'>
<![CDATA[
[data-mouse-over-selected='false'] { opacity: 0.7; }
[data-mouse-over-selected='true']  { opacity: 1.0; }
]]>
</style>
<script type="application/ecmascript"><![CDATA[
document.addEventListener('DOMContentLoaded', (event) => {
  highlightEdges();
  highlightAdjacentNodes();
});
]]></script>
</svg>
