<?xml version="1.0" encoding="UTF-8" standalone="no"?>
<!DOCTYPE svg PUBLIC "-//W3C//DTD SVG 1.1//EN"
 "http://www.w3.org/Graphics/SVG/1.1/DTD/svg11.dtd">
<!-- Generated by graphviz version 2.43.0 (0)
 -->
<!-- Title: cact&#45;main&#45;tab.c Pages: 1 -->
<svg width="353pt" height="137pt"
 viewBox="0.00 0.00 353.00 137.00" xmlns="http://www.w3.org/2000/svg" xmlns:xlink="http://www.w3.org/1999/xlink">

<svg id="main" version="1.1" xmlns="http://www.w3.org/2000/svg" xmlns:xlink="http://www.w3.org/1999/xlink" xml:space="preserve">

<style type="text/css"><![CDATA[
.node, .edge {opacity: 0.7;}
.node.selected, .edge.selected {opacity: 1;}
.edge:hover path { stroke: red; }
.edge:hover polygon { stroke: red; fill: red; }
]]></style>
<script type="application/ecmascript" xlink:href="svg.min.js"/>
<svg id="graph" class="graph">
<g id="graph0" class="graph" transform="scale(1 1) rotate(0) translate(4 133)">
<title>cact&#45;main&#45;tab.c</title>
<!-- Node1 -->
<g id="Node000001" class="node">
<title>Node1</title>
<g id="a_Node000001"><a xlink:title=" ">
<polygon fill="#999999" stroke="#666666" points="162.5,-129 76.5,-129 76.5,-110 162.5,-110 162.5,-129"/>
<text text-anchor="middle" x="119.5" y="-117" font-family="Inter" font-size="10.00">cact&#45;main&#45;tab.c</text>
</a>
</g>
</g>
<!-- Node2 -->
<g id="Node000002" class="node">
<title>Node2</title>
<g id="a_Node000002"><a xlink:href="na-object-profile_8h.html" target="_top" xlink:title=" ">
<polygon fill="white" stroke="#666666" points="119,-74 0,-74 0,-55 119,-55 119,-74"/>
<text text-anchor="middle" x="59.5" y="-62" font-family="Inter" font-size="10.00">api/na&#45;object&#45;profile.h</text>
</a>
</g>
</g>
<!-- Node1&#45;&gt;Node2 -->
<g id="edge1_Node000001_Node000002" class="edge">
<title>Node1&#45;&gt;Node2</title>
<g id="a_edge1_Node000001_Node000002"><a xlink:title=" ">
<path fill="none" stroke="#63b8ff" d="M109.86,-109.98C100.99,-102.15 87.63,-90.34 76.89,-80.86"/>
<polygon fill="#63b8ff" stroke="#63b8ff" points="79.13,-78.17 69.32,-74.17 74.49,-83.41 79.13,-78.17"/>
</a>
</g>
</g>
<!-- Node6 -->
<g id="Node000006" class="node">
<title>Node6</title>
<g id="a_Node000006"><a xlink:href="cact-main-tab_8h.html" target="_top" xlink:title=" ">
<polygon fill="white" stroke="#666666" points="224,-74 137,-74 137,-55 224,-55 224,-74"/>
<text text-anchor="middle" x="180.5" y="-62" font-family="Inter" font-size="10.00">cact&#45;main&#45;tab.h</text>
</a>
</g>
</g>
<!-- Node1&#45;&gt;Node6 -->
<g id="edge3_Node000001_Node000006" class="edge">
<title>Node1&#45;&gt;Node6</title>
<g id="a_edge3_Node000001_Node000006"><a xlink:title=" ">
<path fill="none" stroke="#63b8ff" d="M129.3,-109.98C138.32,-102.15 151.91,-90.34 162.82,-80.86"/>
<polygon fill="#63b8ff" stroke="#63b8ff" points="165.27,-83.37 170.52,-74.17 160.68,-78.09 165.27,-83.37"/>
</a>
</g>
</g>
<!-- Node3 -->
<g id="Node000003" class="node">
<title>Node3</title>
<g id="a_Node000003"><a xlink:href="na-object-id_8h.html" target="_top" xlink:title=" ">
<polygon fill="#fff0f0" stroke="red" points="99.5,-19 19.5,-19 19.5,0 99.5,0 99.5,-19"/>
<text text-anchor="middle" x="59.5" y="-7" font-family="Inter" font-size="10.00">na&#45;object&#45;id.h</text>
</a>
</g>
</g>
<!-- Node2&#45;&gt;Node3 -->
<g id="edge2_Node000002_Node000003" class="edge">
<title>Node2&#45;&gt;Node3</title>
<g id="a_edge2_Node000002_Node000003"><a xlink:title=" ">
<path fill="none" stroke="#63b8ff" d="M59.5,-54.75C59.5,-47.8 59.5,-37.85 59.5,-29.13"/>
<polygon fill="#63b8ff" stroke="#63b8ff" points="63,-29.09 59.5,-19.09 56,-29.09 63,-29.09"/>
</a>
</g>
</g>
<!-- Node7 -->
<g id="Node000007" class="node">
<title>Node7</title>
<g id="a_Node000007"><a xlink:href="na-icontext_8h.html" target="_top" xlink:title=" ">
<polygon fill="#fff0f0" stroke="red" points="219.5,-19 125.5,-19 125.5,0 219.5,0 219.5,-19"/>
<text text-anchor="middle" x="172.5" y="-7" font-family="Inter" font-size="10.00">api/na&#45;icontext.h</text>
</a>
</g>
</g>
<!-- Node6&#45;&gt;Node7 -->
<g id="edge4_Node000006_Node000007" class="edge">
<title>Node6&#45;&gt;Node7</title>
<g id="a_edge4_Node000006_Node000007"><a xlink:title=" ">
<path fill="none" stroke="#63b8ff" d="M179.18,-54.75C178.13,-47.8 176.63,-37.85 175.31,-29.13"/>
<polygon fill="#63b8ff" stroke="#63b8ff" points="178.75,-28.45 173.8,-19.09 171.83,-29.5 178.75,-28.45"/>
</a>
</g>
</g>
<!-- Node8 -->
<g id="Node000008" class="node">
<title>Node8</title>
<g id="a_Node000008"><a xlink:href="cact-main-window_8h.html" target="_top" xlink:title=" ">
<polygon fill="#fff0f0" stroke="red" points="345,-19 238,-19 238,0 345,0 345,-19"/>
<text text-anchor="middle" x="291.5" y="-7" font-family="Inter" font-size="10.00">cact&#45;main&#45;window.h</text>
</a>
</g>
</g>
<!-- Node6&#45;&gt;Node8 -->
<g id="edge5_Node000006_Node000008" class="edge">
<title>Node6&#45;&gt;Node8</title>
<g id="a_edge5_Node000006_Node000008"><a xlink:title=" ">
<path fill="none" stroke="#63b8ff" d="M198.33,-54.98C216.11,-46.5 243.65,-33.35 264.18,-23.54"/>
<polygon fill="#63b8ff" stroke="#63b8ff" points="265.83,-26.64 273.34,-19.17 262.81,-20.32 265.83,-26.64"/>
</a>
</g>
</g>
</g>
</svg>
</svg>

<style type='text/css'>
<![CDATA[
[data-mouse-over-selected='false'] { opacity: 0.7; }
[data-mouse-over-selected='true']  { opacity: 1.0; }
]]>
</style>
<script type="application/ecmascript"><![CDATA[
document.addEventListener('DOMContentLoaded', (event) => {
  highlightEdges();
  highlightAdjacentNodes();
});
]]></script>
</svg>
