<?xml version="1.0" encoding="UTF-8" standalone="no"?>
<!DOCTYPE svg PUBLIC "-//W3C//DTD SVG 1.1//EN"
 "http://www.w3.org/Graphics/SVG/1.1/DTD/svg11.dtd">
<!-- Generated by graphviz version 2.43.0 (0)
 -->
<!-- Title: cact&#45;icon&#45;chooser.c Pages: 1 -->
<!--zoomable 247 -->

<svg id="main" version="1.1" xmlns="http://www.w3.org/2000/svg" xmlns:xlink="http://www.w3.org/1999/xlink" xml:space="preserve" onload="init(evt)">

<style type="text/css"><![CDATA[
.node, .edge {opacity: 0.7;}
.node.selected, .edge.selected {opacity: 1;}
.edge:hover path { stroke: red; }
.edge:hover polygon { stroke: red; fill: red; }
]]></style>

<defs>
  <circle id="rim" cx="0" cy="0" r="7"/>
  <circle id="rim2" cx="0" cy="0" r="3.5"/>
  <g id="zoomPlus">
    <use xlink:href="#rim" fill="#404040"><set attributeName="fill" to="#808080" begin="zoomplus.mouseover" end="zoomplus.mouseout"/></use>
    <path d="M-4,0h8M0,-4v8" fill="none" stroke="white" stroke-width="1.5" pointer-events="none"/>
  </g>
  <g id="zoomMin">
    <use xlink:href="#rim" fill="#404040"><set attributeName="fill" to="#808080" begin="zoomminus.mouseover" end="zoomminus.mouseout"/></use>
    <path d="M-4,0h8" fill="none" stroke="white" stroke-width="1.5" pointer-events="none"/>
  </g>
  <g id="arrowUp" transform="translate(30 24)">
    <use xlink:href="#rim"/>
    <path pointer-events="none" fill="none" stroke="white" stroke-width="1.5" d="M0,-3.0v7 M-2.5,-0.5L0,-3.0L2.5,-0.5"/>
  </g>
  <g id="arrowRight" transform="rotate(90) translate(36 -43)">
    <use xlink:href="#rim"/>
    <path pointer-events="none" fill="none" stroke="white" stroke-width="1.5" d="M0,-3.0v7 M-2.5,-0.5L0,-3.0L2.5,-0.5"/>
  </g>
  <g id="arrowDown" transform="rotate(180) translate(-30 -48)">
    <use xlink:href="#rim"/>
    <path pointer-events="none" fill="none" stroke="white" stroke-width="1.5" d="M0,-3.0v7 M-2.5,-0.5L0,-3.0L2.5,-0.5"/>
  </g>
  <g id="arrowLeft" transform="rotate(270) translate(-36 17)">
    <use xlink:href="#rim"/>
    <path pointer-events="none" fill="none" stroke="white" stroke-width="1.5" d="M0,-3.0v7 M-2.5,-0.5L0,-3.0L2.5,-0.5"/>
  </g>
  <g id="resetDef">
    <use xlink:href="#rim2" fill="#404040"><set attributeName="fill" to="#808080" begin="reset.mouseover" end="reset.mouseout"/></use>
  </g>
</defs>
<script type="application/ecmascript">
var viewWidth = 520;
var viewHeight = 247;
var sectionId = 'dynsection-0';
</script>
<script type="application/ecmascript" xlink:href="svg.min.js"/>
<svg id="graph" class="graph">
<g id="viewport">
<title>cact&#45;icon&#45;chooser.c</title>
<!-- Node1 -->
<g id="Node000001" class="node">
<title>Node1</title>
<g id="a_Node000001"><a xlink:title=" ">
<polygon fill="#999999" stroke="#666666" points="292.5,-239 190.5,-239 190.5,-220 292.5,-220 292.5,-239"/>
<text text-anchor="middle" x="241.5" y="-227" font-family="Inter" font-size="10.00">cact&#45;icon&#45;chooser.c</text>
</a>
</g>
</g>
<!-- Node2 -->
<g id="Node000002" class="node">
<title>Node2</title>
<g id="a_Node000002"><a xlink:href="na-gtk-utils_8h.html" target="_top" xlink:title=" ">
<polygon fill="white" stroke="#666666" points="101,-74 0,-74 0,-55 101,-55 101,-74"/>
<text text-anchor="middle" x="50.5" y="-62" font-family="Inter" font-size="10.00">core/na&#45;gtk&#45;utils.h</text>
</a>
</g>
</g>
<!-- Node1&#45;&gt;Node2 -->
<g id="edge1_Node000001_Node000002" class="edge">
<title>Node1&#45;&gt;Node2</title>
<g id="a_edge1_Node000001_Node000002"><a xlink:title=" ">
<path fill="none" stroke="#63b8ff" d="M190.24,-221.75C138.06,-211.74 60.45,-187.36 28.5,-129 20.31,-114.03 28.65,-95.44 37.32,-82.25"/>
<polygon fill="#63b8ff" stroke="#63b8ff" points="40.18,-84.26 43.17,-74.1 34.5,-80.18 40.18,-84.26"/>
</a>
</g>
</g>
<!-- Node4 -->
<g id="Node000004" class="node">
<title>Node4</title>
<g id="a_Node000004"><a xlink:href="base-keysyms_8h.html" target="_top" xlink:title=" ">
<polygon fill="white" stroke="#666666" points="213,-184 124,-184 124,-165 213,-165 213,-184"/>
<text text-anchor="middle" x="168.5" y="-172" font-family="Inter" font-size="10.00">base&#45;keysyms.h</text>
</a>
</g>
</g>
<!-- Node1&#45;&gt;Node4 -->
<g id="edge3_Node000001_Node000004" class="edge">
<title>Node1&#45;&gt;Node4</title>
<g id="a_edge3_Node000001_Node000004"><a xlink:title=" ">
<path fill="none" stroke="#63b8ff" d="M229.77,-219.98C218.77,-212 202.08,-199.88 188.9,-190.31"/>
<polygon fill="#63b8ff" stroke="#63b8ff" points="190.59,-187.21 180.44,-184.17 186.48,-192.88 190.59,-187.21"/>
</a>
</g>
</g>
<!-- Node6 -->
<g id="Node000006" class="node">
<title>Node6</title>
<g id="a_Node000006"><a xlink:href="cact-application_8h.html" target="_top" xlink:title=" ">
<polygon fill="white" stroke="#666666" points="497.5,-184 401.5,-184 401.5,-165 497.5,-165 497.5,-184"/>
<text text-anchor="middle" x="449.5" y="-172" font-family="Inter" font-size="10.00">cact&#45;application.h</text>
</a>
</g>
</g>
<!-- Node1&#45;&gt;Node6 -->
<g id="edge6_Node000001_Node000006" class="edge">
<title>Node1&#45;&gt;Node6</title>
<g id="a_edge6_Node000001_Node000006"><a xlink:title=" ">
<path fill="none" stroke="#63b8ff" d="M274.92,-219.98C310.44,-210.93 366.77,-196.58 405.8,-186.64"/>
<polygon fill="#63b8ff" stroke="#63b8ff" points="406.99,-189.94 415.82,-184.08 405.26,-183.16 406.99,-189.94"/>
</a>
</g>
</g>
<!-- Node29 -->
<g id="Node000029" class="node">
<title>Node29</title>
<g id="a_Node000029"><a xlink:href="base-gtk-utils_8h.html" target="_top" xlink:title=" ">
<polygon fill="white" stroke="#666666" points="285,-129 198,-129 198,-110 285,-110 285,-129"/>
<text text-anchor="middle" x="241.5" y="-117" font-family="Inter" font-size="10.00">base&#45;gtk&#45;utils.h</text>
</a>
</g>
</g>
<!-- Node1&#45;&gt;Node29 -->
<g id="edge9_Node000001_Node000029" class="edge">
<title>Node1&#45;&gt;Node29</title>
<g id="a_edge9_Node000001_Node000029"><a xlink:title=" ">
<path fill="none" stroke="#63b8ff" d="M241.5,-219.66C241.5,-202.17 241.5,-162.8 241.5,-139.27"/>
<polygon fill="#63b8ff" stroke="#63b8ff" points="245,-139.16 241.5,-129.16 238,-139.16 245,-139.16"/>
</a>
</g>
</g>
<!-- Node31 -->
<g id="Node000031" class="node">
<title>Node31</title>
<g id="a_Node000031"><a xlink:href="cact-icon-chooser_8h.html" target="_top" xlink:title=" ">
<polygon fill="white" stroke="#666666" points="378.5,-184 274.5,-184 274.5,-165 378.5,-165 378.5,-184"/>
<text text-anchor="middle" x="326.5" y="-172" font-family="Inter" font-size="10.00">cact&#45;icon&#45;chooser.h</text>
</a>
</g>
</g>
<!-- Node1&#45;&gt;Node31 -->
<g id="edge13_Node000001_Node000031" class="edge">
<title>Node1&#45;&gt;Node31</title>
<g id="a_edge13_Node000001_Node000031"><a xlink:title=" ">
<path fill="none" stroke="#63b8ff" d="M255.16,-219.98C268.34,-211.77 288.53,-199.18 304.07,-189.49"/>
<polygon fill="#63b8ff" stroke="#63b8ff" points="305.96,-192.43 312.59,-184.17 302.26,-186.49 305.96,-192.43"/>
</a>
</g>
</g>
<!-- Node3 -->
<g id="Node000003" class="node">
<title>Node3</title>
<g id="a_Node000003"><a xlink:title=" ">
<polygon fill="#e0e0e0" stroke="#999999" points="199,-19 140,-19 140,0 199,0 199,-19"/>
<text text-anchor="middle" x="169.5" y="-7" font-family="Inter" font-size="10.00">gtk/gtk.h</text>
</a>
</g>
</g>
<!-- Node2&#45;&gt;Node3 -->
<g id="edge2_Node000002_Node000003" class="edge">
<title>Node2&#45;&gt;Node3</title>
<g id="a_edge2_Node000002_Node000003"><a xlink:title=" ">
<path fill="none" stroke="#63b8ff" d="M69.62,-54.98C88.85,-46.42 118.73,-33.11 140.81,-23.28"/>
<polygon fill="#63b8ff" stroke="#63b8ff" points="142.32,-26.44 150.03,-19.17 139.47,-20.04 142.32,-26.44"/>
</a>
</g>
</g>
<!-- Node4&#45;&gt;Node3 -->
<g id="edge4_Node000004_Node000003" class="edge">
<title>Node4&#45;&gt;Node3</title>
<g id="a_edge4_Node000004_Node000003"><a xlink:title=" ">
<path fill="none" stroke="#63b8ff" d="M168.55,-164.74C168.71,-139.31 169.17,-65.08 169.38,-29.69"/>
<polygon fill="#63b8ff" stroke="#63b8ff" points="172.88,-29.33 169.45,-19.31 165.88,-29.29 172.88,-29.33"/>
</a>
</g>
</g>
<!-- Node5 -->
<g id="Node000005" class="node">
<title>Node5</title>
<g id="a_Node000005"><a xlink:title=" ">
<polygon fill="#e0e0e0" stroke="#999999" points="141,-129 38,-129 38,-110 141,-110 141,-129"/>
<text text-anchor="middle" x="89.5" y="-117" font-family="Inter" font-size="10.00">gdk/gdkkeysyms.h</text>
</a>
</g>
</g>
<!-- Node4&#45;&gt;Node5 -->
<g id="edge5_Node000004_Node000005" class="edge">
<title>Node4&#45;&gt;Node5</title>
<g id="a_edge5_Node000004_Node000005"><a xlink:title=" ">
<path fill="none" stroke="#63b8ff" d="M155.81,-164.98C143.67,-156.84 125.14,-144.41 110.75,-134.76"/>
<polygon fill="#63b8ff" stroke="#63b8ff" points="112.68,-131.84 102.42,-129.17 108.78,-137.65 112.68,-131.84"/>
</a>
</g>
</g>
<!-- Node7 -->
<g id="Node000007" class="node">
<title>Node7</title>
<g id="a_Node000007"><a xlink:href="na-updater_8h.html" target="_top" xlink:title=" ">
<polygon fill="#fff0f0" stroke="red" points="499,-129 400,-129 400,-110 499,-110 499,-129"/>
<text text-anchor="middle" x="449.5" y="-117" font-family="Inter" font-size="10.00">core/na&#45;updater.h</text>
</a>
</g>
</g>
<!-- Node6&#45;&gt;Node7 -->
<g id="edge7_Node000006_Node000007" class="edge">
<title>Node6&#45;&gt;Node7</title>
<g id="a_edge7_Node000006_Node000007"><a xlink:title=" ">
<path fill="none" stroke="#63b8ff" d="M449.5,-164.75C449.5,-157.8 449.5,-147.85 449.5,-139.13"/>
<polygon fill="#63b8ff" stroke="#63b8ff" points="453,-139.09 449.5,-129.09 446,-139.09 453,-139.09"/>
</a>
</g>
</g>
<!-- Node28 -->
<g id="Node000028" class="node">
<title>Node28</title>
<g id="a_Node000028"><a xlink:href="base-application_8h.html" target="_top" xlink:title=" ">
<polygon fill="#fff0f0" stroke="red" points="354.5,-19 254.5,-19 254.5,0 354.5,0 354.5,-19"/>
<text text-anchor="middle" x="304.5" y="-7" font-family="Inter" font-size="10.00">base&#45;application.h</text>
</a>
</g>
</g>
<!-- Node6&#45;&gt;Node28 -->
<g id="edge8_Node000006_Node000028" class="edge">
<title>Node6&#45;&gt;Node28</title>
<g id="a_edge8_Node000006_Node000028"><a xlink:title=" ">
<path fill="none" stroke="#63b8ff" d="M468.05,-164.96C490.13,-153.56 522.38,-132.21 508.5,-110 476.95,-59.51 411.58,-33.96 363.3,-21.5"/>
<polygon fill="#63b8ff" stroke="#63b8ff" points="364.13,-18.1 353.59,-19.1 362.46,-24.89 364.13,-18.1"/>
</a>
</g>
</g>
<!-- Node30 -->
<g id="Node000030" class="node">
<title>Node30</title>
<g id="a_Node000030"><a xlink:href="base-window_8h.html" target="_top" xlink:title=" ">
<polygon fill="white" stroke="#666666" points="316.5,-74 230.5,-74 230.5,-55 316.5,-55 316.5,-74"/>
<text text-anchor="middle" x="273.5" y="-62" font-family="Inter" font-size="10.00">base&#45;window.h</text>
</a>
</g>
</g>
<!-- Node29&#45;&gt;Node30 -->
<g id="edge10_Node000029_Node000030" class="edge">
<title>Node29&#45;&gt;Node30</title>
<g id="a_edge10_Node000029_Node000030"><a xlink:title=" ">
<path fill="none" stroke="#63b8ff" d="M246.78,-109.75C251.21,-102.42 257.66,-91.73 263.12,-82.7"/>
<polygon fill="#63b8ff" stroke="#63b8ff" points="266.14,-84.46 268.31,-74.09 260.15,-80.84 266.14,-84.46"/>
</a>
</g>
</g>
<!-- Node30&#45;&gt;Node3 -->
<g id="edge11_Node000030_Node000003" class="edge">
<title>Node30&#45;&gt;Node3</title>
<g id="a_edge11_Node000030_Node000003"><a xlink:title=" ">
<path fill="none" stroke="#63b8ff" d="M256.79,-54.98C240.29,-46.57 214.8,-33.59 195.62,-23.81"/>
<polygon fill="#63b8ff" stroke="#63b8ff" points="197.01,-20.59 186.51,-19.17 193.83,-26.83 197.01,-20.59"/>
</a>
</g>
</g>
<!-- Node30&#45;&gt;Node28 -->
<g id="edge12_Node000030_Node000028" class="edge">
<title>Node30&#45;&gt;Node28</title>
<g id="a_edge12_Node000030_Node000028"><a xlink:title=" ">
<path fill="none" stroke="#63b8ff" d="M278.62,-54.75C282.86,-47.49 289.03,-36.95 294.28,-27.98"/>
<polygon fill="#63b8ff" stroke="#63b8ff" points="297.45,-29.49 299.48,-19.09 291.41,-25.95 297.45,-29.49"/>
</a>
</g>
</g>
<!-- Node32 -->
<g id="Node000032" class="node">
<title>Node32</title>
<g id="a_Node000032"><a xlink:href="base-dialog_8h.html" target="_top" xlink:title=" ">
<polygon fill="white" stroke="#666666" points="381.5,-129 303.5,-129 303.5,-110 381.5,-110 381.5,-129"/>
<text text-anchor="middle" x="342.5" y="-117" font-family="Inter" font-size="10.00">base&#45;dialog.h</text>
</a>
</g>
</g>
<!-- Node31&#45;&gt;Node32 -->
<g id="edge14_Node000031_Node000032" class="edge">
<title>Node31&#45;&gt;Node32</title>
<g id="a_edge14_Node000031_Node000032"><a xlink:title=" ">
<path fill="none" stroke="#63b8ff" d="M329.14,-164.75C331.26,-157.72 334.31,-147.62 336.96,-138.84"/>
<polygon fill="#63b8ff" stroke="#63b8ff" points="340.37,-139.67 339.91,-129.09 333.67,-137.65 340.37,-139.67"/>
</a>
</g>
</g>
<!-- Node32&#45;&gt;Node30 -->
<g id="edge15_Node000032_Node000030" class="edge">
<title>Node32&#45;&gt;Node30</title>
<g id="a_edge15_Node000032_Node000030"><a xlink:title=" ">
<path fill="none" stroke="#63b8ff" d="M331.41,-109.98C321.01,-102 305.24,-89.88 292.78,-80.31"/>
<polygon fill="#63b8ff" stroke="#63b8ff" points="294.85,-77.49 284.79,-74.17 290.59,-83.04 294.85,-77.49"/>
</a>
</g>
</g>
</g>
</svg>

<g id="navigator" transform="translate(0 0)" fill="#404254">
  <rect fill="#f2f5e9" fill-opacity="0.5" stroke="#606060" stroke-width=".5" x="0" y="0" width="60" height="60"/>
  <use id="zoomplus" xlink:href="#zoomPlus" x="17" y="9" onmousedown="handleZoom(evt,'in')"/>
  <use id="zoomminus" xlink:href="#zoomMin" x="42" y="9" onmousedown="handleZoom(evt,'out')"/>
  <use id="reset" xlink:href="#resetDef" x="30" y="36" onmousedown="handleReset()"/>
   <use id="arrowup" xlink:href="#arrowUp" x="0" y="0" onmousedown="handlePan(0,-1)"/>
  <use id="arrowright" xlink:href="#arrowRight" x="0" y="0" onmousedown="handlePan(1,0)"/>
  <use id="arrowdown" xlink:href="#arrowDown" x="0" y="0" onmousedown="handlePan(0,1)"/>
  <use id="arrowleft" xlink:href="#arrowLeft" x="0" y="0" onmousedown="handlePan(-1,0)"/>
</g>
<svg viewBox="0 0 15 15" width="100%" height="30px" preserveAspectRatio="xMaxYMin meet">
 <g id="arrow_out" transform="scale(0.3 0.3)">
  <a xlink:href="cact-icon-chooser_8c__incl_org.svg" target="_base">
   <rect id="button" ry="5" rx="5" y="6" x="6" height="38" width="38"
        fill="#f2f5e9" fill-opacity="0.5" stroke="#606060" stroke-width="1.0"/>
   <path id="arrow"
     d="M 11.500037,31.436501 C 11.940474,20.09759 22.043105,11.32322 32.158766,21.979434 L 37.068811,17.246167 C 37.068811,17.246167 37.088388,32 37.088388,32 L 22.160133,31.978069 C 22.160133,31.978069 26.997745,27.140456 26.997745,27.140456 C 18.528582,18.264221 13.291696,25.230495 11.500037,31.436501 z"
     style="fill:#404040;"/>
  </a>
 </g>
</svg>

<style type='text/css'>
<![CDATA[
[data-mouse-over-selected='false'] { opacity: 0.7; }
[data-mouse-over-selected='true']  { opacity: 1.0; }
]]>
</style>
<script type="application/ecmascript"><![CDATA[
document.addEventListener('DOMContentLoaded', (event) => {
  highlightEdges();
  highlightAdjacentNodes();
});
]]></script>
</svg>
