<?xml version="1.0" encoding="UTF-8" standalone="no"?>
<!DOCTYPE svg PUBLIC "-//W3C//DTD SVG 1.1//EN"
 "http://www.w3.org/Graphics/SVG/1.1/DTD/svg11.dtd">
<!-- Generated by graphviz version 2.43.0 (0)
 -->
<!-- Title: cact&#45;main&#45;window.h Pages: 1 -->
<svg width="375pt" height="192pt"
 viewBox="0.00 0.00 375.00 192.00" xmlns="http://www.w3.org/2000/svg" xmlns:xlink="http://www.w3.org/1999/xlink">
<g id="graph0" class="graph" transform="scale(1 1) rotate(0) translate(4 188)">
<title>cact&#45;main&#45;window.h</title>
<!-- Node1 -->
<g id="Node000001" class="node">
<title>Node1</title>
<g id="a_Node000001"><a xlink:title=" ">
<polygon fill="#999999" stroke="#666666" points="212.5,-184 105.5,-184 105.5,-165 212.5,-165 212.5,-184"/>
<text text-anchor="middle" x="159" y="-172" font-family="Inter" font-size="10.00">cact&#45;main&#45;window.h</text>
</a>
</g>
</g>
<!-- Node2 -->
<g id="Node000002" class="node">
<title>Node2</title>
<g id="a_Node000002"><a xlink:href="cact-application_8h.html" target="_top" xlink:title=" ">
<polygon fill="white" stroke="#666666" points="96,-129 0,-129 0,-110 96,-110 96,-129"/>
<text text-anchor="middle" x="48" y="-117" font-family="Inter" font-size="10.00">cact&#45;application.h</text>
</a>
</g>
</g>
<!-- Node1&#45;&gt;Node2 -->
<g id="edge1_Node000001_Node000002" class="edge">
<title>Node1&#45;&gt;Node2</title>
<g id="a_edge1_Node000001_Node000002"><a xlink:title=" ">
<path fill="none" stroke="#63b8ff" d="M141.17,-164.98C123.39,-156.5 95.85,-143.35 75.32,-133.54"/>
<polygon fill="#63b8ff" stroke="#63b8ff" points="76.69,-130.32 66.16,-129.17 73.67,-136.64 76.69,-130.32"/>
</a>
</g>
</g>
<!-- Node25 -->
<g id="Node000025" class="node">
<title>Node25</title>
<g id="a_Node000025"><a xlink:href="cact-clipboard_8h.html" target="_top" xlink:title=" ">
<polygon fill="white" stroke="#666666" points="203.5,-129 114.5,-129 114.5,-110 203.5,-110 203.5,-129"/>
<text text-anchor="middle" x="159" y="-117" font-family="Inter" font-size="10.00">cact&#45;clipboard.h</text>
</a>
</g>
</g>
<!-- Node1&#45;&gt;Node25 -->
<g id="edge4_Node000001_Node000025" class="edge">
<title>Node1&#45;&gt;Node25</title>
<g id="a_edge4_Node000001_Node000025"><a xlink:title=" ">
<path fill="none" stroke="#63b8ff" d="M159,-164.75C159,-157.8 159,-147.85 159,-139.13"/>
<polygon fill="#63b8ff" stroke="#63b8ff" points="162.5,-139.09 159,-129.09 155.5,-139.09 162.5,-139.09"/>
</a>
</g>
</g>
<!-- Node28 -->
<g id="Node000028" class="node">
<title>Node28</title>
<g id="a_Node000028"><a xlink:href="cact-tree-view_8h.html" target="_top" xlink:title=" ">
<polygon fill="white" stroke="#666666" points="310.5,-129 221.5,-129 221.5,-110 310.5,-110 310.5,-129"/>
<text text-anchor="middle" x="266" y="-117" font-family="Inter" font-size="10.00">cact&#45;tree&#45;view.h</text>
</a>
</g>
</g>
<!-- Node1&#45;&gt;Node28 -->
<g id="edge9_Node000001_Node000028" class="edge">
<title>Node1&#45;&gt;Node28</title>
<g id="a_edge9_Node000001_Node000028"><a xlink:title=" ">
<path fill="none" stroke="#63b8ff" d="M176.19,-164.98C193.25,-156.54 219.63,-143.47 239.4,-133.68"/>
<polygon fill="#63b8ff" stroke="#63b8ff" points="241.09,-136.75 248.5,-129.17 237.98,-130.47 241.09,-136.75"/>
</a>
</g>
</g>
<!-- Node3 -->
<g id="Node000003" class="node">
<title>Node3</title>
<g id="a_Node000003"><a xlink:href="na-updater_8h.html" target="_top" xlink:title=" ">
<polygon fill="#fff0f0" stroke="red" points="114.5,-74 15.5,-74 15.5,-55 114.5,-55 114.5,-74"/>
<text text-anchor="middle" x="65" y="-62" font-family="Inter" font-size="10.00">core/na&#45;updater.h</text>
</a>
</g>
</g>
<!-- Node2&#45;&gt;Node3 -->
<g id="edge2_Node000002_Node000003" class="edge">
<title>Node2&#45;&gt;Node3</title>
<g id="a_edge2_Node000002_Node000003"><a xlink:title=" ">
<path fill="none" stroke="#63b8ff" d="M50.81,-109.75C53.06,-102.72 56.3,-92.62 59.12,-83.84"/>
<polygon fill="#63b8ff" stroke="#63b8ff" points="62.52,-84.68 62.25,-74.09 55.86,-82.54 62.52,-84.68"/>
</a>
</g>
</g>
<!-- Node24 -->
<g id="Node000024" class="node">
<title>Node24</title>
<g id="a_Node000024"><a xlink:href="base-application_8h.html" target="_top" xlink:title=" ">
<polygon fill="#fff0f0" stroke="red" points="101,-19 1,-19 1,0 101,0 101,-19"/>
<text text-anchor="middle" x="51" y="-7" font-family="Inter" font-size="10.00">base&#45;application.h</text>
</a>
</g>
</g>
<!-- Node2&#45;&gt;Node24 -->
<g id="edge3_Node000002_Node000024" class="edge">
<title>Node2&#45;&gt;Node24</title>
<g id="a_edge3_Node000002_Node000024"><a xlink:title=" ">
<path fill="none" stroke="#63b8ff" d="M35.37,-109.86C19.99,-98.18 -2.91,-76.35 6,-55 10.86,-43.36 20.42,-33.2 29.48,-25.55"/>
<polygon fill="#63b8ff" stroke="#63b8ff" points="31.8,-28.17 37.51,-19.25 27.48,-22.67 31.8,-28.17"/>
</a>
</g>
</g>
<!-- Node26 -->
<g id="Node000026" class="node">
<title>Node26</title>
<g id="a_Node000026"><a xlink:title=" ">
<polygon fill="#e0e0e0" stroke="#999999" points="207.5,-19 148.5,-19 148.5,0 207.5,0 207.5,-19"/>
<text text-anchor="middle" x="178" y="-7" font-family="Inter" font-size="10.00">gtk/gtk.h</text>
</a>
</g>
</g>
<!-- Node25&#45;&gt;Node26 -->
<g id="edge5_Node000025_Node000026" class="edge">
<title>Node25&#45;&gt;Node26</title>
<g id="a_edge5_Node000025_Node000026"><a xlink:title=" ">
<path fill="none" stroke="#63b8ff" d="M158.6,-109.77C158.22,-97.44 158.17,-74.27 162,-55 163.78,-46.04 167.03,-36.47 170.15,-28.5"/>
<polygon fill="#63b8ff" stroke="#63b8ff" points="173.43,-29.72 174.02,-19.14 166.96,-27.05 173.43,-29.72"/>
</a>
</g>
</g>
<!-- Node27 -->
<g id="Node000027" class="node">
<title>Node27</title>
<g id="a_Node000027"><a xlink:href="base-window_8h.html" target="_top" xlink:title=" ">
<polygon fill="white" stroke="#666666" points="257,-74 171,-74 171,-55 257,-55 257,-74"/>
<text text-anchor="middle" x="214" y="-62" font-family="Inter" font-size="10.00">base&#45;window.h</text>
</a>
</g>
</g>
<!-- Node25&#45;&gt;Node27 -->
<g id="edge6_Node000025_Node000027" class="edge">
<title>Node25&#45;&gt;Node27</title>
<g id="a_edge6_Node000025_Node000027"><a xlink:title=" ">
<path fill="none" stroke="#63b8ff" d="M168.08,-109.75C176.09,-102.03 187.96,-90.6 197.62,-81.28"/>
<polygon fill="#63b8ff" stroke="#63b8ff" points="200.31,-83.55 205.09,-74.09 195.46,-78.51 200.31,-83.55"/>
</a>
</g>
</g>
<!-- Node27&#45;&gt;Node24 -->
<g id="edge8_Node000027_Node000024" class="edge">
<title>Node27&#45;&gt;Node24</title>
<g id="a_edge8_Node000027_Node000024"><a xlink:title=" ">
<path fill="none" stroke="#63b8ff" d="M187.81,-54.98C160.56,-46.13 117.7,-32.19 87.22,-22.28"/>
<polygon fill="#63b8ff" stroke="#63b8ff" points="87.99,-18.85 77.39,-19.08 85.82,-25.5 87.99,-18.85"/>
</a>
</g>
</g>
<!-- Node27&#45;&gt;Node26 -->
<g id="edge7_Node000027_Node000026" class="edge">
<title>Node27&#45;&gt;Node26</title>
<g id="a_edge7_Node000027_Node000026"><a xlink:title=" ">
<path fill="none" stroke="#63b8ff" d="M208.06,-54.75C203.02,-47.34 195.66,-36.5 189.49,-27.41"/>
<polygon fill="#63b8ff" stroke="#63b8ff" points="192.35,-25.39 183.83,-19.09 186.56,-29.33 192.35,-25.39"/>
</a>
</g>
</g>
<!-- Node28&#45;&gt;Node27 -->
<g id="edge11_Node000028_Node000027" class="edge">
<title>Node28&#45;&gt;Node27</title>
<g id="a_edge11_Node000028_Node000027"><a xlink:title=" ">
<path fill="none" stroke="#63b8ff" d="M257.41,-109.75C249.84,-102.03 238.62,-90.6 229.49,-81.28"/>
<polygon fill="#63b8ff" stroke="#63b8ff" points="231.93,-78.78 222.43,-74.09 226.93,-83.68 231.93,-78.78"/>
</a>
</g>
</g>
<!-- Node6 -->
<g id="Node000006" class="node">
<title>Node6</title>
<g id="a_Node000006"><a xlink:href="na-object-item_8h.html" target="_top" xlink:title=" ">
<polygon fill="#fff0f0" stroke="red" points="367,-74 275,-74 275,-55 367,-55 367,-74"/>
<text text-anchor="middle" x="321" y="-62" font-family="Inter" font-size="10.00">na&#45;object&#45;item.h</text>
</a>
</g>
</g>
<!-- Node28&#45;&gt;Node6 -->
<g id="edge10_Node000028_Node000006" class="edge">
<title>Node28&#45;&gt;Node6</title>
<g id="a_edge10_Node000028_Node000006"><a xlink:title=" ">
<path fill="none" stroke="#63b8ff" d="M275.08,-109.75C283.09,-102.03 294.96,-90.6 304.62,-81.28"/>
<polygon fill="#63b8ff" stroke="#63b8ff" points="307.31,-83.55 312.09,-74.09 302.46,-78.51 307.31,-83.55"/>
</a>
</g>
</g>
</g>
</svg>
