<?xml version="1.0" encoding="UTF-8" standalone="no"?>
<!DOCTYPE svg PUBLIC "-//W3C//DTD SVG 1.1//EN"
 "http://www.w3.org/Graphics/SVG/1.1/DTD/svg11.dtd">
<!-- Generated by graphviz version 2.43.0 (0)
 -->
<!-- Title: cadp&#45;module.c Pages: 1 -->
<svg width="398pt" height="192pt"
 viewBox="0.00 0.00 397.50 192.00" xmlns="http://www.w3.org/2000/svg" xmlns:xlink="http://www.w3.org/1999/xlink">

<svg id="main" version="1.1" xmlns="http://www.w3.org/2000/svg" xmlns:xlink="http://www.w3.org/1999/xlink" xml:space="preserve">

<style type="text/css"><![CDATA[
.node, .edge {opacity: 0.7;}
.node.selected, .edge.selected {opacity: 1;}
.edge:hover path { stroke: red; }
.edge:hover polygon { stroke: red; fill: red; }
]]></style>
<script type="application/ecmascript" xlink:href="svg.min.js"/>
<svg id="graph" class="graph">
<g id="graph0" class="graph" transform="scale(1 1) rotate(0) translate(4 188)">
<title>cadp&#45;module.c</title>
<!-- Node1 -->
<g id="Node000001" class="node">
<title>Node1</title>
<g id="a_Node000001"><a xlink:title=" ">
<polygon fill="#999999" stroke="#666666" points="159,-184 75,-184 75,-165 159,-165 159,-184"/>
<text text-anchor="middle" x="117" y="-172" font-family="Inter" font-size="10.00">cadp&#45;module.c</text>
</a>
</g>
</g>
<!-- Node2 -->
<g id="Node000002" class="node">
<title>Node2</title>
<g id="a_Node000002"><a xlink:href="na-extension_8h.html" target="_top" xlink:title=" ">
<polygon fill="white" stroke="#666666" points="102,-129 0,-129 0,-110 102,-110 102,-129"/>
<text text-anchor="middle" x="51" y="-117" font-family="Inter" font-size="10.00">api/na&#45;extension.h</text>
</a>
</g>
</g>
<!-- Node1&#45;&gt;Node2 -->
<g id="edge1_Node000001_Node000002" class="edge">
<title>Node1&#45;&gt;Node2</title>
<g id="a_edge1_Node000001_Node000002"><a xlink:title=" ">
<path fill="none" stroke="#63b8ff" d="M106.4,-164.98C96.54,-157.07 81.65,-145.11 69.78,-135.58"/>
<polygon fill="#63b8ff" stroke="#63b8ff" points="71.79,-132.7 61.8,-129.17 67.4,-138.16 71.79,-132.7"/>
</a>
</g>
</g>
<!-- Node4 -->
<g id="Node000004" class="node">
<title>Node4</title>
<g id="a_Node000004"><a xlink:href="cadp-desktop-provider_8h.html" target="_top" xlink:title=" ">
<polygon fill="white" stroke="#666666" points="265,-129 137,-129 137,-110 265,-110 265,-129"/>
<text text-anchor="middle" x="201" y="-117" font-family="Inter" font-size="10.00">cadp&#45;desktop&#45;provider.h</text>
</a>
</g>
</g>
<!-- Node1&#45;&gt;Node4 -->
<g id="edge3_Node000001_Node000004" class="edge">
<title>Node1&#45;&gt;Node4</title>
<g id="a_edge3_Node000001_Node000004"><a xlink:title=" ">
<path fill="none" stroke="#63b8ff" d="M130.5,-164.98C143.4,-156.84 163.1,-144.41 178.4,-134.76"/>
<polygon fill="#63b8ff" stroke="#63b8ff" points="180.67,-137.47 187.26,-129.17 176.93,-131.55 180.67,-137.47"/>
</a>
</g>
</g>
<!-- Node3 -->
<g id="Node000003" class="node">
<title>Node3</title>
<g id="a_Node000003"><a xlink:title=" ">
<polygon fill="#e0e0e0" stroke="#999999" points="256,-19 182,-19 182,0 256,0 256,-19"/>
<text text-anchor="middle" x="219" y="-7" font-family="Inter" font-size="10.00">glib&#45;object.h</text>
</a>
</g>
</g>
<!-- Node2&#45;&gt;Node3 -->
<g id="edge2_Node000002_Node000003" class="edge">
<title>Node2&#45;&gt;Node3</title>
<g id="a_edge2_Node000002_Node000003"><a xlink:title=" ">
<path fill="none" stroke="#63b8ff" d="M44.55,-109.73C35.69,-96.5 22.2,-71.26 35,-55 51.75,-33.72 123.17,-21.4 171.94,-15.32"/>
<polygon fill="#63b8ff" stroke="#63b8ff" points="172.46,-18.78 181.98,-14.12 171.63,-11.83 172.46,-18.78"/>
</a>
</g>
</g>
<!-- Node5 -->
<g id="Node000005" class="node">
<title>Node5</title>
<g id="a_Node000005"><a xlink:href="na-object-item_8h.html" target="_top" xlink:title=" ">
<polygon fill="#fff0f0" stroke="red" points="154,-74 44,-74 44,-55 154,-55 154,-74"/>
<text text-anchor="middle" x="99" y="-62" font-family="Inter" font-size="10.00">api/na&#45;object&#45;item.h</text>
</a>
</g>
</g>
<!-- Node4&#45;&gt;Node5 -->
<g id="edge4_Node000004_Node000005" class="edge">
<title>Node4&#45;&gt;Node5</title>
<g id="a_edge4_Node000004_Node000005"><a xlink:title=" ">
<path fill="none" stroke="#63b8ff" d="M184.61,-109.98C168.43,-101.57 143.43,-88.59 124.62,-78.81"/>
<polygon fill="#63b8ff" stroke="#63b8ff" points="126.17,-75.68 115.69,-74.17 122.95,-81.89 126.17,-75.68"/>
</a>
</g>
</g>
<!-- Node8 -->
<g id="Node000008" class="node">
<title>Node8</title>
<g id="a_Node000008"><a xlink:href="na-timeout_8h.html" target="_top" xlink:title=" ">
<polygon fill="white" stroke="#666666" points="266,-74 172,-74 172,-55 266,-55 266,-74"/>
<text text-anchor="middle" x="219" y="-62" font-family="Inter" font-size="10.00">api/na&#45;timeout.h</text>
</a>
</g>
</g>
<!-- Node4&#45;&gt;Node8 -->
<g id="edge5_Node000004_Node000008" class="edge">
<title>Node4&#45;&gt;Node8</title>
<g id="a_edge5_Node000004_Node000008"><a xlink:title=" ">
<path fill="none" stroke="#63b8ff" d="M203.97,-109.75C206.36,-102.72 209.79,-92.62 212.77,-83.84"/>
<polygon fill="#63b8ff" stroke="#63b8ff" points="216.18,-84.68 216.08,-74.09 209.55,-82.43 216.18,-84.68"/>
</a>
</g>
</g>
<!-- Node9 -->
<g id="Node000009" class="node">
<title>Node9</title>
<g id="a_Node000009"><a xlink:href="cadp-desktop-file_8h.html" target="_top" xlink:title=" ">
<polygon fill="white" stroke="#666666" points="389.5,-74 284.5,-74 284.5,-55 389.5,-55 389.5,-74"/>
<text text-anchor="middle" x="337" y="-62" font-family="Inter" font-size="10.00">cadp&#45;desktop&#45;file.h</text>
</a>
</g>
</g>
<!-- Node4&#45;&gt;Node9 -->
<g id="edge7_Node000004_Node000009" class="edge">
<title>Node4&#45;&gt;Node9</title>
<g id="a_edge7_Node000004_Node000009"><a xlink:title=" ">
<path fill="none" stroke="#63b8ff" d="M222.85,-109.98C245.12,-101.3 279.9,-87.75 305.22,-77.88"/>
<polygon fill="#63b8ff" stroke="#63b8ff" points="306.71,-81.06 314.75,-74.17 304.16,-74.54 306.71,-81.06"/>
</a>
</g>
</g>
<!-- Node8&#45;&gt;Node3 -->
<g id="edge6_Node000008_Node000003" class="edge">
<title>Node8&#45;&gt;Node3</title>
<g id="a_edge6_Node000008_Node000003"><a xlink:title=" ">
<path fill="none" stroke="#63b8ff" d="M219,-54.75C219,-47.8 219,-37.85 219,-29.13"/>
<polygon fill="#63b8ff" stroke="#63b8ff" points="222.5,-29.09 219,-19.09 215.5,-29.09 222.5,-29.09"/>
</a>
</g>
</g>
<!-- Node9&#45;&gt;Node3 -->
<g id="edge8_Node000009_Node000003" class="edge">
<title>Node9&#45;&gt;Node3</title>
<g id="a_edge8_Node000009_Node000003"><a xlink:title=" ">
<path fill="none" stroke="#63b8ff" d="M318.04,-54.98C298.97,-46.42 269.34,-33.11 247.45,-23.28"/>
<polygon fill="#63b8ff" stroke="#63b8ff" points="248.86,-20.07 238.3,-19.17 245.99,-26.46 248.86,-20.07"/>
</a>
</g>
</g>
</g>
</svg>
</svg>

<style type='text/css'>
<![CDATA[
[data-mouse-over-selected='false'] { opacity: 0.7; }
[data-mouse-over-selected='true']  { opacity: 1.0; }
]]>
</style>
<script type="application/ecmascript"><![CDATA[
document.addEventListener('DOMContentLoaded', (event) => {
  highlightEdges();
  highlightAdjacentNodes();
});
]]></script>
</svg>
