<?xml version="1.0" encoding="UTF-8" standalone="no"?>
<!DOCTYPE svg PUBLIC "-//W3C//DTD SVG 1.1//EN"
 "http://www.w3.org/Graphics/SVG/1.1/DTD/svg11.dtd">
<!-- Generated by graphviz version 2.43.0 (0)
 -->
<!-- Title: caja&#45;image&#45;properties&#45;page.c Pages: 1 -->
<!--zoomable 280 -->

<svg id="main" version="1.1" xmlns="http://www.w3.org/2000/svg" xmlns:xlink="http://www.w3.org/1999/xlink" xml:space="preserve" onload="init(evt)">

<style type="text/css"><![CDATA[
.node, .edge {opacity: 0.7;}
.node.selected, .edge.selected {opacity: 1;}
.edge:hover path { stroke: red; }
.edge:hover polygon { stroke: red; fill: red; }
]]></style>

<defs>
  <circle id="rim" cx="0" cy="0" r="7"/>
  <circle id="rim2" cx="0" cy="0" r="3.5"/>
  <g id="zoomPlus">
    <use xlink:href="#rim" fill="#404040"><set attributeName="fill" to="#808080" begin="zoomplus.mouseover" end="zoomplus.mouseout"/></use>
    <path d="M-4,0h8M0,-4v8" fill="none" stroke="white" stroke-width="1.5" pointer-events="none"/>
  </g>
  <g id="zoomMin">
    <use xlink:href="#rim" fill="#404040"><set attributeName="fill" to="#808080" begin="zoomminus.mouseover" end="zoomminus.mouseout"/></use>
    <path d="M-4,0h8" fill="none" stroke="white" stroke-width="1.5" pointer-events="none"/>
  </g>
  <g id="arrowUp" transform="translate(30 24)">
    <use xlink:href="#rim"/>
    <path pointer-events="none" fill="none" stroke="white" stroke-width="1.5" d="M0,-3.0v7 M-2.5,-0.5L0,-3.0L2.5,-0.5"/>
  </g>
  <g id="arrowRight" transform="rotate(90) translate(36 -43)">
    <use xlink:href="#rim"/>
    <path pointer-events="none" fill="none" stroke="white" stroke-width="1.5" d="M0,-3.0v7 M-2.5,-0.5L0,-3.0L2.5,-0.5"/>
  </g>
  <g id="arrowDown" transform="rotate(180) translate(-30 -48)">
    <use xlink:href="#rim"/>
    <path pointer-events="none" fill="none" stroke="white" stroke-width="1.5" d="M0,-3.0v7 M-2.5,-0.5L0,-3.0L2.5,-0.5"/>
  </g>
  <g id="arrowLeft" transform="rotate(270) translate(-36 17)">
    <use xlink:href="#rim"/>
    <path pointer-events="none" fill="none" stroke="white" stroke-width="1.5" d="M0,-3.0v7 M-2.5,-0.5L0,-3.0L2.5,-0.5"/>
  </g>
  <g id="resetDef">
    <use xlink:href="#rim2" fill="#404040"><set attributeName="fill" to="#808080" begin="reset.mouseover" end="reset.mouseout"/></use>
  </g>
</defs>
<script type="application/ecmascript">
var viewWidth = 927;
var viewHeight = 280;
var sectionId = 'dynsection-0';
</script>
<script type="application/ecmascript" xlink:href="svg.min.js"/>
<svg id="graph" class="graph">
<g id="viewport">
<title>caja&#45;image&#45;properties&#45;page.c</title>
<!-- Node1 -->
<g id="Node000001" class="node">
<title>Node1</title>
<g id="a_Node000001"><a xlink:title=" ">
<polygon fill="#999999" stroke="#666666" points="536.5,-272 419.5,-272 419.5,-242 536.5,-242 536.5,-272"/>
<text text-anchor="start" x="427.5" y="-260" font-family="Inter" font-size="10.00">caja&#45;image&#45;properties</text>
<text text-anchor="middle" x="478" y="-249" font-family="Inter" font-size="10.00">&#45;page.c</text>
</a>
</g>
</g>
<!-- Node2 -->
<g id="Node000002" class="node">
<title>Node2</title>
<g id="a_Node000002"><a xlink:title=" ">
<polygon fill="#e0e0e0" stroke="#999999" points="54,-200.5 0,-200.5 0,-181.5 54,-181.5 54,-200.5"/>
<text text-anchor="middle" x="27" y="-188.5" font-family="Inter" font-size="10.00">config.h</text>
</a>
</g>
</g>
<!-- Node1&#45;&gt;Node2 -->
<g id="edge1_Node000001_Node000002" class="edge">
<title>Node1&#45;&gt;Node2</title>
<g id="a_edge1_Node000001_Node000002"><a xlink:title=" ">
<path fill="none" stroke="#63b8ff" d="M419.43,-253.57C338.29,-249.16 187.6,-237.21 63,-206 60.69,-205.42 58.34,-204.74 55.99,-203.98"/>
<polygon fill="#63b8ff" stroke="#63b8ff" points="57.11,-200.67 46.52,-200.61 54.76,-207.26 57.11,-200.67"/>
</a>
</g>
</g>
<!-- Node3 -->
<g id="Node000003" class="node">
<title>Node3</title>
<g id="a_Node000003"><a xlink:title=" ">
<polygon fill="#e0e0e0" stroke="#999999" points="125.5,-200.5 72.5,-200.5 72.5,-181.5 125.5,-181.5 125.5,-200.5"/>
<text text-anchor="middle" x="99" y="-188.5" font-family="Inter" font-size="10.00">string.h</text>
</a>
</g>
</g>
<!-- Node1&#45;&gt;Node3 -->
<g id="edge2_Node000001_Node000003" class="edge">
<title>Node1&#45;&gt;Node3</title>
<g id="a_edge2_Node000001_Node000003"><a xlink:title=" ">
<path fill="none" stroke="#63b8ff" d="M419.37,-250.6C351.46,-243.6 236.56,-229.42 140,-206 137.19,-205.32 134.3,-204.53 131.42,-203.67"/>
<polygon fill="#63b8ff" stroke="#63b8ff" points="132.36,-200.3 121.77,-200.6 130.23,-206.97 132.36,-200.3"/>
</a>
</g>
</g>
<!-- Node4 -->
<g id="Node000004" class="node">
<title>Node4</title>
<g id="a_Node000004"><a xlink:title=" ">
<polygon fill="#e0e0e0" stroke="#999999" points="270.5,-74 211.5,-74 211.5,-55 270.5,-55 270.5,-74"/>
<text text-anchor="middle" x="241" y="-62" font-family="Inter" font-size="10.00">gtk/gtk.h</text>
</a>
</g>
</g>
<!-- Node1&#45;&gt;Node4 -->
<g id="edge3_Node000001_Node000004" class="edge">
<title>Node1&#45;&gt;Node4</title>
<g id="a_edge3_Node000001_Node000004"><a xlink:title=" ">
<path fill="none" stroke="#63b8ff" d="M419.2,-252.93C347,-245.61 227.44,-221.16 173,-140 165.57,-128.93 166.66,-121.73 173,-110 180.58,-95.98 194.7,-85.67 208.13,-78.53"/>
<polygon fill="#63b8ff" stroke="#63b8ff" points="209.77,-81.62 217.22,-74.08 206.7,-75.33 209.77,-81.62"/>
</a>
</g>
</g>
<!-- Node5 -->
<g id="Node000005" class="node">
<title>Node5</title>
<g id="a_Node000005"><a xlink:title=" ">
<polygon fill="#e0e0e0" stroke="#999999" points="773,-200.5 701,-200.5 701,-181.5 773,-181.5 773,-200.5"/>
<text text-anchor="middle" x="737" y="-188.5" font-family="Inter" font-size="10.00">glib/gi18n.h</text>
</a>
</g>
</g>
<!-- Node1&#45;&gt;Node5 -->
<g id="edge4_Node000001_Node000005" class="edge">
<title>Node1&#45;&gt;Node5</title>
<g id="a_edge4_Node000001_Node000005"><a xlink:title=" ">
<path fill="none" stroke="#63b8ff" d="M536.71,-242.59C578.68,-232.84 636.44,-219.12 687,-206 690.37,-205.12 693.87,-204.19 697.37,-203.24"/>
<polygon fill="#63b8ff" stroke="#63b8ff" points="698.46,-206.58 707.17,-200.55 696.6,-199.83 698.46,-206.58"/>
</a>
</g>
</g>
<!-- Node6 -->
<g id="Node000006" class="node">
<title>Node6</title>
<g id="a_Node000006"><a xlink:title=" ">
<polygon fill="#e0e0e0" stroke="#999999" points="650,-74 592,-74 592,-55 650,-55 650,-74"/>
<text text-anchor="middle" x="621" y="-62" font-family="Inter" font-size="10.00">gio/gio.h</text>
</a>
</g>
</g>
<!-- Node1&#45;&gt;Node6 -->
<g id="edge5_Node000001_Node000006" class="edge">
<title>Node1&#45;&gt;Node6</title>
<g id="a_edge5_Node000001_Node000006"><a xlink:title=" ">
<path fill="none" stroke="#63b8ff" d="M507.5,-241.94C541.46,-223.84 595.22,-188.81 616,-140 623.52,-122.32 624.01,-100.14 623.09,-84.6"/>
<polygon fill="#63b8ff" stroke="#63b8ff" points="626.54,-83.85 622.2,-74.19 619.56,-84.45 626.54,-83.85"/>
</a>
</g>
</g>
<!-- Node7 -->
<g id="Node000007" class="node">
<title>Node7</title>
<g id="a_Node000007"><a xlink:href="eel-vfs-extensions_8h.html" target="_top" xlink:title=" ">
<polygon fill="white" stroke="#666666" points="918.5,-200.5 791.5,-200.5 791.5,-181.5 918.5,-181.5 918.5,-200.5"/>
<text text-anchor="middle" x="855" y="-188.5" font-family="Inter" font-size="10.00">eel/eel&#45;vfs&#45;extensions.h</text>
</a>
</g>
</g>
<!-- Node1&#45;&gt;Node7 -->
<g id="edge6_Node000001_Node000007" class="edge">
<title>Node1&#45;&gt;Node7</title>
<g id="a_edge6_Node000001_Node000007"><a xlink:title=" ">
<path fill="none" stroke="#63b8ff" d="M536.64,-246.83C597.92,-237.13 696.83,-221.17 782,-206 788.25,-204.89 794.8,-203.68 801.3,-202.47"/>
<polygon fill="#63b8ff" stroke="#63b8ff" points="802.24,-205.85 811.42,-200.55 800.94,-198.97 802.24,-205.85"/>
</a>
</g>
</g>
<!-- Node9 -->
<g id="Node000009" class="node">
<title>Node9</title>
<g id="a_Node000009"><a xlink:href="caja-property-page-provider_8h.html" target="_top" xlink:title=" ">
<polygon fill="white" stroke="#666666" points="546.5,-206 409.5,-206 409.5,-176 546.5,-176 546.5,-206"/>
<text text-anchor="start" x="417.5" y="-194" font-family="Inter" font-size="10.00">libcaja&#45;extension/caja</text>
<text text-anchor="middle" x="478" y="-183" font-family="Inter" font-size="10.00">&#45;property&#45;page&#45;provider.h</text>
</a>
</g>
</g>
<!-- Node1&#45;&gt;Node9 -->
<g id="edge8_Node000001_Node000009" class="edge">
<title>Node1&#45;&gt;Node9</title>
<g id="a_edge8_Node000001_Node000009"><a xlink:title=" ">
<path fill="none" stroke="#63b8ff" d="M478,-241.8C478,-234.34 478,-224.99 478,-216.41"/>
<polygon fill="#63b8ff" stroke="#63b8ff" points="481.5,-216.16 478,-206.16 474.5,-216.16 481.5,-216.16"/>
</a>
</g>
</g>
<!-- Node14 -->
<g id="Node000014" class="node">
<title>Node14</title>
<g id="a_Node000014"><a xlink:href="caja-module_8h.html" target="_top" xlink:title=" ">
<polygon fill="white" stroke="#666666" points="764.5,-140 663.5,-140 663.5,-110 764.5,-110 764.5,-140"/>
<text text-anchor="start" x="671.5" y="-128" font-family="Inter" font-size="10.00">libcaja&#45;private/caja</text>
<text text-anchor="middle" x="714" y="-117" font-family="Inter" font-size="10.00">&#45;module.h</text>
</a>
</g>
</g>
<!-- Node1&#45;&gt;Node14 -->
<g id="edge19_Node000001_Node000014" class="edge">
<title>Node1&#45;&gt;Node14</title>
<g id="a_edge19_Node000001_Node000014"><a xlink:title=" ">
<path fill="none" stroke="#63b8ff" d="M536.76,-247.84C571.6,-240.9 615.38,-228.34 649,-206 671.09,-191.33 689.38,-166.84 700.87,-148.81"/>
<polygon fill="#63b8ff" stroke="#63b8ff" points="704,-150.41 706.25,-140.06 698.03,-146.75 704,-150.41"/>
</a>
</g>
</g>
<!-- Node15 -->
<g id="Node000015" class="node">
<title>Node15</title>
<g id="a_Node000015"><a xlink:href="caja-image-properties-page_8h.html" target="_top" xlink:title=" ">
<polygon fill="white" stroke="#666666" points="299.5,-140 182.5,-140 182.5,-110 299.5,-110 299.5,-140"/>
<text text-anchor="start" x="190.5" y="-128" font-family="Inter" font-size="10.00">caja&#45;image&#45;properties</text>
<text text-anchor="middle" x="241" y="-117" font-family="Inter" font-size="10.00">&#45;page.h</text>
</a>
</g>
</g>
<!-- Node1&#45;&gt;Node15 -->
<g id="edge21_Node000001_Node000015" class="edge">
<title>Node1&#45;&gt;Node15</title>
<g id="a_edge21_Node000001_Node000015"><a xlink:title=" ">
<path fill="none" stroke="#63b8ff" d="M452.19,-241.84C409.36,-218.35 323.58,-171.3 275.57,-144.96"/>
<polygon fill="#63b8ff" stroke="#63b8ff" points="277.23,-141.88 266.78,-140.14 273.87,-148.02 277.23,-141.88"/>
</a>
</g>
</g>
<!-- Node8 -->
<g id="Node000008" class="node">
<title>Node8</title>
<g id="a_Node000008"><a xlink:title=" ">
<polygon fill="#e0e0e0" stroke="#999999" points="876,-134.5 834,-134.5 834,-115.5 876,-115.5 876,-134.5"/>
<text text-anchor="middle" x="855" y="-122.5" font-family="Inter" font-size="10.00">glib.h</text>
</a>
</g>
</g>
<!-- Node7&#45;&gt;Node8 -->
<g id="edge7_Node000007_Node000008" class="edge">
<title>Node7&#45;&gt;Node8</title>
<g id="a_edge7_Node000007_Node000008"><a xlink:title=" ">
<path fill="none" stroke="#63b8ff" d="M855,-181.37C855,-172.16 855,-157.29 855,-145.27"/>
<polygon fill="#63b8ff" stroke="#63b8ff" points="858.5,-144.91 855,-134.91 851.5,-144.91 858.5,-144.91"/>
</a>
</g>
</g>
<!-- Node10 -->
<g id="Node000010" class="node">
<title>Node10</title>
<g id="a_Node000010"><a xlink:title=" ">
<polygon fill="#e0e0e0" stroke="#999999" points="534,-19 460,-19 460,0 534,0 534,-19"/>
<text text-anchor="middle" x="497" y="-7" font-family="Inter" font-size="10.00">glib&#45;object.h</text>
</a>
</g>
</g>
<!-- Node9&#45;&gt;Node10 -->
<g id="edge9_Node000009_Node000010" class="edge">
<title>Node9&#45;&gt;Node10</title>
<g id="a_edge9_Node000009_Node000010"><a xlink:title=" ">
<path fill="none" stroke="#63b8ff" d="M479.49,-175.91C482.89,-143.85 491.19,-65.38 495.01,-29.26"/>
<polygon fill="#63b8ff" stroke="#63b8ff" points="498.51,-29.45 496.09,-19.13 491.55,-28.71 498.51,-29.45"/>
</a>
</g>
</g>
<!-- Node11 -->
<g id="Node000011" class="node">
<title>Node11</title>
<g id="a_Node000011"><a xlink:href="caja-extension-types_8h.html" target="_top" xlink:title=" ">
<polygon fill="white" stroke="#666666" points="468.5,-74 349.5,-74 349.5,-55 468.5,-55 468.5,-74"/>
<text text-anchor="middle" x="409" y="-62" font-family="Inter" font-size="10.00">caja&#45;extension&#45;types.h</text>
</a>
</g>
</g>
<!-- Node9&#45;&gt;Node11 -->
<g id="edge10_Node000009_Node000011" class="edge">
<title>Node9&#45;&gt;Node11</title>
<g id="a_edge10_Node000009_Node000011"><a xlink:title=" ">
<path fill="none" stroke="#63b8ff" d="M472.09,-175.77C465.13,-159.49 452.89,-132.21 440,-110 434.5,-100.53 427.61,-90.49 421.72,-82.34"/>
<polygon fill="#63b8ff" stroke="#63b8ff" points="424.37,-80.05 415.62,-74.08 418.74,-84.21 424.37,-80.05"/>
</a>
</g>
</g>
<!-- Node12 -->
<g id="Node000012" class="node">
<title>Node12</title>
<g id="a_Node000012"><a xlink:href="caja-file-info_8h.html" target="_top" xlink:title=" ">
<polygon fill="white" stroke="#666666" points="606.5,-134.5 525.5,-134.5 525.5,-115.5 606.5,-115.5 606.5,-134.5"/>
<text text-anchor="middle" x="566" y="-122.5" font-family="Inter" font-size="10.00">caja&#45;file&#45;info.h</text>
</a>
</g>
</g>
<!-- Node9&#45;&gt;Node12 -->
<g id="edge12_Node000009_Node000012" class="edge">
<title>Node9&#45;&gt;Node12</title>
<g id="a_edge12_Node000009_Node000012"><a xlink:title=" ">
<path fill="none" stroke="#63b8ff" d="M497.53,-175.8C511.87,-165.37 531.3,-151.24 545.79,-140.69"/>
<polygon fill="#63b8ff" stroke="#63b8ff" points="548.07,-143.37 554.09,-134.66 543.95,-137.71 548.07,-143.37"/>
</a>
</g>
</g>
<!-- Node13 -->
<g id="Node000013" class="node">
<title>Node13</title>
<g id="a_Node000013"><a xlink:href="caja-property-page_8h.html" target="_top" xlink:title=" ">
<polygon fill="white" stroke="#666666" points="430.5,-134.5 317.5,-134.5 317.5,-115.5 430.5,-115.5 430.5,-134.5"/>
<text text-anchor="middle" x="374" y="-122.5" font-family="Inter" font-size="10.00">caja&#45;property&#45;page.h</text>
</a>
</g>
</g>
<!-- Node9&#45;&gt;Node13 -->
<g id="edge15_Node000009_Node000013" class="edge">
<title>Node9&#45;&gt;Node13</title>
<g id="a_edge15_Node000009_Node000013"><a xlink:title=" ">
<path fill="none" stroke="#63b8ff" d="M455.18,-175.95C437.82,-165.27 414.06,-150.65 396.73,-139.98"/>
<polygon fill="#63b8ff" stroke="#63b8ff" points="398.19,-136.78 387.84,-134.52 394.52,-142.74 398.19,-136.78"/>
</a>
</g>
</g>
<!-- Node11&#45;&gt;Node10 -->
<g id="edge11_Node000011_Node000010" class="edge">
<title>Node11&#45;&gt;Node10</title>
<g id="a_edge11_Node000011_Node000010"><a xlink:title=" ">
<path fill="none" stroke="#63b8ff" d="M423.14,-54.98C436.79,-46.77 457.69,-34.18 473.78,-24.49"/>
<polygon fill="#63b8ff" stroke="#63b8ff" points="475.84,-27.33 482.6,-19.17 472.23,-21.33 475.84,-27.33"/>
</a>
</g>
</g>
<!-- Node12&#45;&gt;Node6 -->
<g id="edge14_Node000012_Node000006" class="edge">
<title>Node12&#45;&gt;Node6</title>
<g id="a_edge14_Node000012_Node000006"><a xlink:title=" ">
<path fill="none" stroke="#63b8ff" d="M574.12,-115.37C582.4,-106.55 595.47,-92.66 605.7,-81.77"/>
<polygon fill="#63b8ff" stroke="#63b8ff" points="608.55,-83.85 612.85,-74.17 603.45,-79.06 608.55,-83.85"/>
</a>
</g>
</g>
<!-- Node12&#45;&gt;Node10 -->
<g id="edge13_Node000012_Node000010" class="edge">
<title>Node12&#45;&gt;Node10</title>
<g id="a_edge13_Node000012_Node000010"><a xlink:title=" ">
<path fill="none" stroke="#63b8ff" d="M560.81,-115.47C549.53,-96.9 522.54,-52.51 507.53,-27.82"/>
<polygon fill="#63b8ff" stroke="#63b8ff" points="510.43,-25.86 502.25,-19.13 504.45,-29.49 510.43,-25.86"/>
</a>
</g>
</g>
<!-- Node13&#45;&gt;Node4 -->
<g id="edge17_Node000013_Node000004" class="edge">
<title>Node13&#45;&gt;Node4</title>
<g id="a_edge17_Node000013_Node000004"><a xlink:title=" ">
<path fill="none" stroke="#63b8ff" d="M354.66,-115.49C332.3,-105.66 295.29,-89.38 269.6,-78.08"/>
<polygon fill="#63b8ff" stroke="#63b8ff" points="270.93,-74.84 260.36,-74.02 268.11,-81.25 270.93,-74.84"/>
</a>
</g>
</g>
<!-- Node13&#45;&gt;Node10 -->
<g id="edge16_Node000013_Node000010" class="edge">
<title>Node13&#45;&gt;Node10</title>
<g id="a_edge16_Node000013_Node000010"><a xlink:title=" ">
<path fill="none" stroke="#63b8ff" d="M364.14,-115.32C349.77,-101.62 326.28,-74.5 341,-55 354.18,-37.54 408.8,-24.88 449.72,-17.63"/>
<polygon fill="#63b8ff" stroke="#63b8ff" points="450.53,-21.04 459.79,-15.9 449.35,-14.14 450.53,-21.04"/>
</a>
</g>
</g>
<!-- Node13&#45;&gt;Node11 -->
<g id="edge18_Node000013_Node000011" class="edge">
<title>Node13&#45;&gt;Node11</title>
<g id="a_edge18_Node000013_Node000011"><a xlink:title=" ">
<path fill="none" stroke="#63b8ff" d="M379.16,-115.37C384.23,-106.9 392.1,-93.74 398.49,-83.07"/>
<polygon fill="#63b8ff" stroke="#63b8ff" points="401.68,-84.55 403.81,-74.17 395.68,-80.95 401.68,-84.55"/>
</a>
</g>
</g>
<!-- Node14&#45;&gt;Node10 -->
<g id="edge20_Node000014_Node000010" class="edge">
<title>Node14&#45;&gt;Node10</title>
<g id="a_edge20_Node000014_Node000010"><a xlink:title=" ">
<path fill="none" stroke="#63b8ff" d="M706.42,-109.89C697.26,-94.16 680.36,-69.08 659,-55 624.47,-32.23 578.47,-21.03 544.32,-15.57"/>
<polygon fill="#63b8ff" stroke="#63b8ff" points="544.53,-12.06 534.12,-14.05 543.5,-18.99 544.53,-12.06"/>
</a>
</g>
</g>
<!-- Node15&#45;&gt;Node4 -->
<g id="edge22_Node000015_Node000004" class="edge">
<title>Node15&#45;&gt;Node4</title>
<g id="a_edge22_Node000015_Node000004"><a xlink:title=" ">
<path fill="none" stroke="#63b8ff" d="M241,-109.84C241,-102.21 241,-92.7 241,-84.45"/>
<polygon fill="#63b8ff" stroke="#63b8ff" points="244.5,-84.27 241,-74.27 237.5,-84.27 244.5,-84.27"/>
</a>
</g>
</g>
</g>
</svg>

<g id="navigator" transform="translate(0 0)" fill="#404254">
  <rect fill="#f2f5e9" fill-opacity="0.5" stroke="#606060" stroke-width=".5" x="0" y="0" width="60" height="60"/>
  <use id="zoomplus" xlink:href="#zoomPlus" x="17" y="9" onmousedown="handleZoom(evt,'in')"/>
  <use id="zoomminus" xlink:href="#zoomMin" x="42" y="9" onmousedown="handleZoom(evt,'out')"/>
  <use id="reset" xlink:href="#resetDef" x="30" y="36" onmousedown="handleReset()"/>
   <use id="arrowup" xlink:href="#arrowUp" x="0" y="0" onmousedown="handlePan(0,-1)"/>
  <use id="arrowright" xlink:href="#arrowRight" x="0" y="0" onmousedown="handlePan(1,0)"/>
  <use id="arrowdown" xlink:href="#arrowDown" x="0" y="0" onmousedown="handlePan(0,1)"/>
  <use id="arrowleft" xlink:href="#arrowLeft" x="0" y="0" onmousedown="handlePan(-1,0)"/>
</g>
<svg viewBox="0 0 15 15" width="100%" height="30px" preserveAspectRatio="xMaxYMin meet">
 <g id="arrow_out" transform="scale(0.3 0.3)">
  <a xlink:href="caja-image-properties-page_8c__incl_org.svg" target="_base">
   <rect id="button" ry="5" rx="5" y="6" x="6" height="38" width="38"
        fill="#f2f5e9" fill-opacity="0.5" stroke="#606060" stroke-width="1.0"/>
   <path id="arrow"
     d="M 11.500037,31.436501 C 11.940474,20.09759 22.043105,11.32322 32.158766,21.979434 L 37.068811,17.246167 C 37.068811,17.246167 37.088388,32 37.088388,32 L 22.160133,31.978069 C 22.160133,31.978069 26.997745,27.140456 26.997745,27.140456 C 18.528582,18.264221 13.291696,25.230495 11.500037,31.436501 z"
     style="fill:#404040;"/>
  </a>
 </g>
</svg>

<style type='text/css'>
<![CDATA[
[data-mouse-over-selected='false'] { opacity: 0.7; }
[data-mouse-over-selected='true']  { opacity: 1.0; }
]]>
</style>
<script type="application/ecmascript"><![CDATA[
document.addEventListener('DOMContentLoaded', (event) => {
  highlightEdges();
  highlightAdjacentNodes();
});
]]></script>
</svg>
