<?xml version="1.0" encoding="UTF-8" standalone="no"?>
<!DOCTYPE svg PUBLIC "-//W3C//DTD SVG 1.1//EN"
 "http://www.w3.org/Graphics/SVG/1.1/DTD/svg11.dtd">
<!-- Generated by graphviz version 2.43.0 (0)
 -->
<!-- Title: caja&#45;location&#45;bar.h Pages: 1 -->
<svg width="526pt" height="93pt"
 viewBox="0.00 0.00 526.00 93.00" xmlns="http://www.w3.org/2000/svg" xmlns:xlink="http://www.w3.org/1999/xlink">
<g id="graph0" class="graph" transform="scale(1 1) rotate(0) translate(4 89)">
<title>caja&#45;location&#45;bar.h</title>
<!-- Node1 -->
<g id="Node000001" class="node">
<title>Node1</title>
<g id="a_Node000001"><a xlink:title=" ">
<polygon fill="#999999" stroke="#666666" points="297.5,-85 199.5,-85 199.5,-66 297.5,-66 297.5,-85"/>
<text text-anchor="middle" x="248.5" y="-73" font-family="Inter" font-size="10.00">caja&#45;location&#45;bar.h</text>
</a>
</g>
</g>
<!-- Node2 -->
<g id="Node000002" class="node">
<title>Node2</title>
<g id="a_Node000002"><a xlink:href="caja-location-bar_8c.html" target="_top" xlink:title=" ">
<polygon fill="white" stroke="#666666" points="97,-24.5 0,-24.5 0,-5.5 97,-5.5 97,-24.5"/>
<text text-anchor="middle" x="48.5" y="-12.5" font-family="Inter" font-size="10.00">caja&#45;location&#45;bar.c</text>
</a>
</g>
</g>
<!-- Node1&#45;&gt;Node2 -->
<g id="edge1_Node000001_Node000002" class="edge">
<title>Node1&#45;&gt;Node2</title>
<g id="a_edge1_Node000001_Node000002"><a xlink:title=" ">
<path fill="none" stroke="#63b8ff" d="M209.55,-63.11C170.87,-51.79 112.44,-34.7 77.62,-24.52"/>
<polygon fill="#63b8ff" stroke="#63b8ff" points="208.84,-66.55 219.42,-65.99 210.8,-59.83 208.84,-66.55"/>
</a>
</g>
</g>
<!-- Node3 -->
<g id="Node000003" class="node">
<title>Node3</title>
<g id="a_Node000003"><a xlink:href="caja-navigation-window-pane_8c.html" target="_top" xlink:title=" ">
<polygon fill="white" stroke="#666666" points="238,-30 115,-30 115,0 238,0 238,-30"/>
<text text-anchor="start" x="123" y="-18" font-family="Inter" font-size="10.00">caja&#45;navigation&#45;window</text>
<text text-anchor="middle" x="176.5" y="-7" font-family="Inter" font-size="10.00">&#45;pane.c</text>
</a>
</g>
</g>
<!-- Node1&#45;&gt;Node3 -->
<g id="edge2_Node000001_Node000003" class="edge">
<title>Node1&#45;&gt;Node3</title>
<g id="a_edge2_Node000001_Node000003"><a xlink:title=" ">
<path fill="none" stroke="#63b8ff" d="M230.04,-59.5C218.9,-50.45 204.81,-39 193.87,-30.11"/>
<polygon fill="#63b8ff" stroke="#63b8ff" points="227.91,-62.28 237.88,-65.87 232.32,-56.85 227.91,-62.28"/>
</a>
</g>
</g>
<!-- Node4 -->
<g id="Node000004" class="node">
<title>Node4</title>
<g id="a_Node000004"><a xlink:href="caja-navigation-window_8c.html" target="_top" xlink:title=" ">
<polygon fill="white" stroke="#666666" points="387,-24.5 256,-24.5 256,-5.5 387,-5.5 387,-24.5"/>
<text text-anchor="middle" x="321.5" y="-12.5" font-family="Inter" font-size="10.00">caja&#45;navigation&#45;window.c</text>
</a>
</g>
</g>
<!-- Node1&#45;&gt;Node4 -->
<g id="edge3_Node000001_Node000004" class="edge">
<title>Node1&#45;&gt;Node4</title>
<g id="a_edge3_Node000001_Node000004"><a xlink:title=" ">
<path fill="none" stroke="#63b8ff" d="M267.17,-59.54C280.96,-48.49 299.24,-33.84 310.68,-24.67"/>
<polygon fill="#63b8ff" stroke="#63b8ff" points="264.89,-56.88 259.27,-65.87 269.26,-62.35 264.89,-56.88"/>
</a>
</g>
</g>
<!-- Node5 -->
<g id="Node000005" class="node">
<title>Node5</title>
<g id="a_Node000005"><a xlink:href="caja-window-manage-views_8c.html" target="_top" xlink:title=" ">
<polygon fill="white" stroke="#666666" points="518,-30 405,-30 405,0 518,0 518,-30"/>
<text text-anchor="start" x="413" y="-18" font-family="Inter" font-size="10.00">caja&#45;window&#45;manage</text>
<text text-anchor="middle" x="461.5" y="-7" font-family="Inter" font-size="10.00">&#45;views.c</text>
</a>
</g>
</g>
<!-- Node1&#45;&gt;Node5 -->
<g id="edge4_Node000001_Node000005" class="edge">
<title>Node1&#45;&gt;Node5</title>
<g id="a_edge4_Node000001_Node000005"><a xlink:title=" ">
<path fill="none" stroke="#63b8ff" d="M289.2,-63.32C323.64,-53.86 373.17,-40.26 410.29,-30.06"/>
<polygon fill="#63b8ff" stroke="#63b8ff" points="288.19,-59.97 279.47,-65.99 290.04,-66.72 288.19,-59.97"/>
</a>
</g>
</g>
</g>
</svg>
