<?xml version="1.0" encoding="UTF-8" standalone="no"?>
<!DOCTYPE svg PUBLIC "-//W3C//DTD SVG 1.1//EN"
 "http://www.w3.org/Graphics/SVG/1.1/DTD/svg11.dtd">
<!-- Generated by graphviz version 2.43.0 (0)
 -->
<!-- Title: caja&#45;saved&#45;search&#45;file.c Pages: 1 -->
<!--zoomable 192 -->

<svg id="main" version="1.1" xmlns="http://www.w3.org/2000/svg" xmlns:xlink="http://www.w3.org/1999/xlink" xml:space="preserve" onload="init(evt)">

<style type="text/css"><![CDATA[
.node, .edge {opacity: 0.7;}
.node.selected, .edge.selected {opacity: 1;}
.edge:hover path { stroke: red; }
.edge:hover polygon { stroke: red; fill: red; }
]]></style>

<defs>
  <circle id="rim" cx="0" cy="0" r="7"/>
  <circle id="rim2" cx="0" cy="0" r="3.5"/>
  <g id="zoomPlus">
    <use xlink:href="#rim" fill="#404040"><set attributeName="fill" to="#808080" begin="zoomplus.mouseover" end="zoomplus.mouseout"/></use>
    <path d="M-4,0h8M0,-4v8" fill="none" stroke="white" stroke-width="1.5" pointer-events="none"/>
  </g>
  <g id="zoomMin">
    <use xlink:href="#rim" fill="#404040"><set attributeName="fill" to="#808080" begin="zoomminus.mouseover" end="zoomminus.mouseout"/></use>
    <path d="M-4,0h8" fill="none" stroke="white" stroke-width="1.5" pointer-events="none"/>
  </g>
  <g id="arrowUp" transform="translate(30 24)">
    <use xlink:href="#rim"/>
    <path pointer-events="none" fill="none" stroke="white" stroke-width="1.5" d="M0,-3.0v7 M-2.5,-0.5L0,-3.0L2.5,-0.5"/>
  </g>
  <g id="arrowRight" transform="rotate(90) translate(36 -43)">
    <use xlink:href="#rim"/>
    <path pointer-events="none" fill="none" stroke="white" stroke-width="1.5" d="M0,-3.0v7 M-2.5,-0.5L0,-3.0L2.5,-0.5"/>
  </g>
  <g id="arrowDown" transform="rotate(180) translate(-30 -48)">
    <use xlink:href="#rim"/>
    <path pointer-events="none" fill="none" stroke="white" stroke-width="1.5" d="M0,-3.0v7 M-2.5,-0.5L0,-3.0L2.5,-0.5"/>
  </g>
  <g id="arrowLeft" transform="rotate(270) translate(-36 17)">
    <use xlink:href="#rim"/>
    <path pointer-events="none" fill="none" stroke="white" stroke-width="1.5" d="M0,-3.0v7 M-2.5,-0.5L0,-3.0L2.5,-0.5"/>
  </g>
  <g id="resetDef">
    <use xlink:href="#rim2" fill="#404040"><set attributeName="fill" to="#808080" begin="reset.mouseover" end="reset.mouseout"/></use>
  </g>
</defs>
<script type="application/ecmascript">
var viewWidth = 753;
var viewHeight = 192;
var sectionId = 'dynsection-0';
</script>
<script type="application/ecmascript" xlink:href="svg.min.js"/>
<svg id="graph" class="graph">
<g id="viewport">
<title>caja&#45;saved&#45;search&#45;file.c</title>
<!-- Node1 -->
<g id="Node000001" class="node">
<title>Node1</title>
<g id="a_Node000001"><a xlink:title=" ">
<polygon fill="#999999" stroke="#666666" points="195,-184 73,-184 73,-165 195,-165 195,-184"/>
<text text-anchor="middle" x="134" y="-172" font-family="Inter" font-size="10.00">caja&#45;saved&#45;search&#45;file.c</text>
</a>
</g>
</g>
<!-- Node2 -->
<g id="Node000002" class="node">
<title>Node2</title>
<g id="a_Node000002"><a xlink:title=" ">
<polygon fill="#e0e0e0" stroke="#999999" points="54,-129 0,-129 0,-110 54,-110 54,-129"/>
<text text-anchor="middle" x="27" y="-117" font-family="Inter" font-size="10.00">config.h</text>
</a>
</g>
</g>
<!-- Node1&#45;&gt;Node2 -->
<g id="edge1_Node000001_Node000002" class="edge">
<title>Node1&#45;&gt;Node2</title>
<g id="a_edge1_Node000001_Node000002"><a xlink:title=" ">
<path fill="none" stroke="#63b8ff" d="M116.81,-164.98C99.75,-156.54 73.37,-143.47 53.6,-133.68"/>
<polygon fill="#63b8ff" stroke="#63b8ff" points="55.02,-130.47 44.5,-129.17 51.91,-136.75 55.02,-130.47"/>
</a>
</g>
</g>
<!-- Node3 -->
<g id="Node000003" class="node">
<title>Node3</title>
<g id="a_Node000003"><a xlink:href="caja-saved-search-file_8h.html" target="_top" xlink:title=" ">
<polygon fill="white" stroke="#666666" points="195.5,-129 72.5,-129 72.5,-110 195.5,-110 195.5,-129"/>
<text text-anchor="middle" x="134" y="-117" font-family="Inter" font-size="10.00">caja&#45;saved&#45;search&#45;file.h</text>
</a>
</g>
</g>
<!-- Node1&#45;&gt;Node3 -->
<g id="edge2_Node000001_Node000003" class="edge">
<title>Node1&#45;&gt;Node3</title>
<g id="a_edge2_Node000001_Node000003"><a xlink:title=" ">
<path fill="none" stroke="#63b8ff" d="M134,-164.75C134,-157.8 134,-147.85 134,-139.13"/>
<polygon fill="#63b8ff" stroke="#63b8ff" points="137.5,-139.09 134,-129.09 130.5,-139.09 137.5,-139.09"/>
</a>
</g>
</g>
<!-- Node13 -->
<g id="Node000013" class="node">
<title>Node13</title>
<g id="a_Node000013"><a xlink:href="caja-file-private_8h.html" target="_top" xlink:title=" ">
<polygon fill="white" stroke="#666666" points="390,-129 294,-129 294,-110 390,-110 390,-129"/>
<text text-anchor="middle" x="342" y="-117" font-family="Inter" font-size="10.00">caja&#45;file&#45;private.h</text>
</a>
</g>
</g>
<!-- Node1&#45;&gt;Node13 -->
<g id="edge5_Node000001_Node000013" class="edge">
<title>Node1&#45;&gt;Node13</title>
<g id="a_edge5_Node000001_Node000013"><a xlink:title=" ">
<path fill="none" stroke="#63b8ff" d="M167.42,-164.98C202.94,-155.93 259.27,-141.58 298.3,-131.64"/>
<polygon fill="#63b8ff" stroke="#63b8ff" points="299.49,-134.94 308.32,-129.08 297.76,-128.16 299.49,-134.94"/>
</a>
</g>
</g>
<!-- Node4 -->
<g id="Node000004" class="node">
<title>Node4</title>
<g id="a_Node000004"><a xlink:href="caja-vfs-file_8h.html" target="_top" xlink:title=" ">
<polygon fill="white" stroke="#666666" points="93.5,-74 16.5,-74 16.5,-55 93.5,-55 93.5,-74"/>
<text text-anchor="middle" x="55" y="-62" font-family="Inter" font-size="10.00">caja&#45;vfs&#45;file.h</text>
</a>
</g>
</g>
<!-- Node3&#45;&gt;Node4 -->
<g id="edge3_Node000003_Node000004" class="edge">
<title>Node3&#45;&gt;Node4</title>
<g id="a_edge3_Node000003_Node000004"><a xlink:title=" ">
<path fill="none" stroke="#63b8ff" d="M121.31,-109.98C109.17,-101.84 90.64,-89.41 76.25,-79.76"/>
<polygon fill="#63b8ff" stroke="#63b8ff" points="78.18,-76.84 67.92,-74.17 74.28,-82.65 78.18,-76.84"/>
</a>
</g>
</g>
<!-- Node5 -->
<g id="Node000005" class="node">
<title>Node5</title>
<g id="a_Node000005"><a xlink:href="caja-file_8h.html" target="_top" xlink:title=" ">
<polygon fill="#fff0f0" stroke="red" points="118,-19 58,-19 58,0 118,0 118,-19"/>
<text text-anchor="middle" x="88" y="-7" font-family="Inter" font-size="10.00">caja&#45;file.h</text>
</a>
</g>
</g>
<!-- Node4&#45;&gt;Node5 -->
<g id="edge4_Node000004_Node000005" class="edge">
<title>Node4&#45;&gt;Node5</title>
<g id="a_edge4_Node000004_Node000005"><a xlink:title=" ">
<path fill="none" stroke="#63b8ff" d="M60.45,-54.75C65.01,-47.42 71.67,-36.73 77.29,-27.7"/>
<polygon fill="#63b8ff" stroke="#63b8ff" points="80.34,-29.43 82.65,-19.09 74.4,-25.73 80.34,-29.43"/>
</a>
</g>
</g>
<!-- Node13&#45;&gt;Node5 -->
<g id="edge9_Node000013_Node000005" class="edge">
<title>Node13&#45;&gt;Node5</title>
<g id="a_edge9_Node000013_Node000005"><a xlink:title=" ">
<path fill="none" stroke="#63b8ff" d="M293.68,-116.53C250.8,-112.83 187.87,-102.52 141,-74 122.28,-62.61 107.05,-42.24 97.8,-27.64"/>
<polygon fill="#63b8ff" stroke="#63b8ff" points="100.77,-25.79 92.6,-19.03 94.77,-29.4 100.77,-25.79"/>
</a>
</g>
</g>
<!-- Node14 -->
<g id="Node000014" class="node">
<title>Node14</title>
<g id="a_Node000014"><a xlink:href="eel-glib-extensions_8h.html" target="_top" xlink:title=" ">
<polygon fill="#fff0f0" stroke="red" points="280,-74 150,-74 150,-55 280,-55 280,-74"/>
<text text-anchor="middle" x="215" y="-62" font-family="Inter" font-size="10.00">eel/eel&#45;glib&#45;extensions.h</text>
</a>
</g>
</g>
<!-- Node13&#45;&gt;Node14 -->
<g id="edge6_Node000013_Node000014" class="edge">
<title>Node13&#45;&gt;Node14</title>
<g id="a_edge6_Node000013_Node000014"><a xlink:title=" ">
<path fill="none" stroke="#63b8ff" d="M321.6,-109.98C300.98,-101.38 268.89,-87.99 245.31,-78.15"/>
<polygon fill="#63b8ff" stroke="#63b8ff" points="246.35,-74.79 235.78,-74.17 243.66,-81.25 246.35,-74.79"/>
</a>
</g>
</g>
<!-- Node16 -->
<g id="Node000016" class="node">
<title>Node16</title>
<g id="a_Node000016"><a xlink:href="eel-string_8h.html" target="_top" xlink:title=" ">
<polygon fill="#fff0f0" stroke="red" points="386,-74 298,-74 298,-55 386,-55 386,-74"/>
<text text-anchor="middle" x="342" y="-62" font-family="Inter" font-size="10.00">eel/eel&#45;string.h</text>
</a>
</g>
</g>
<!-- Node13&#45;&gt;Node16 -->
<g id="edge7_Node000013_Node000016" class="edge">
<title>Node13&#45;&gt;Node16</title>
<g id="a_edge7_Node000013_Node000016"><a xlink:title=" ">
<path fill="none" stroke="#63b8ff" d="M342,-109.75C342,-102.8 342,-92.85 342,-84.13"/>
<polygon fill="#63b8ff" stroke="#63b8ff" points="345.5,-84.09 342,-74.09 338.5,-84.09 345.5,-84.09"/>
</a>
</g>
</g>
<!-- Node19 -->
<g id="Node000019" class="node">
<title>Node19</title>
<g id="a_Node000019"><a xlink:href="caja-directory_8h.html" target="_top" xlink:title=" ">
<polygon fill="#fff0f0" stroke="red" points="491.5,-74 404.5,-74 404.5,-55 491.5,-55 491.5,-74"/>
<text text-anchor="middle" x="448" y="-62" font-family="Inter" font-size="10.00">caja&#45;directory.h</text>
</a>
</g>
</g>
<!-- Node13&#45;&gt;Node19 -->
<g id="edge8_Node000013_Node000019" class="edge">
<title>Node13&#45;&gt;Node19</title>
<g id="a_edge8_Node000013_Node000019"><a xlink:title=" ">
<path fill="none" stroke="#63b8ff" d="M359.03,-109.98C375.93,-101.54 402.06,-88.47 421.64,-78.68"/>
<polygon fill="#63b8ff" stroke="#63b8ff" points="423.28,-81.77 430.66,-74.17 420.15,-75.51 423.28,-81.77"/>
</a>
</g>
</g>
<!-- Node20 -->
<g id="Node000020" class="node">
<title>Node20</title>
<g id="a_Node000020"><a xlink:href="caja-monitor_8h.html" target="_top" xlink:title=" ">
<polygon fill="#fff0f0" stroke="red" points="590.5,-74 509.5,-74 509.5,-55 590.5,-55 590.5,-74"/>
<text text-anchor="middle" x="550" y="-62" font-family="Inter" font-size="10.00">caja&#45;monitor.h</text>
</a>
</g>
</g>
<!-- Node13&#45;&gt;Node20 -->
<g id="edge10_Node000013_Node000020" class="edge">
<title>Node13&#45;&gt;Node20</title>
<g id="a_edge10_Node000013_Node000020"><a xlink:title=" ">
<path fill="none" stroke="#63b8ff" d="M375.42,-109.98C410.94,-100.93 467.27,-86.58 506.3,-76.64"/>
<polygon fill="#63b8ff" stroke="#63b8ff" points="507.49,-79.94 516.32,-74.08 505.76,-73.16 507.49,-79.94"/>
</a>
</g>
</g>
<!-- Node21 -->
<g id="Node000021" class="node">
<title>Node21</title>
<g id="a_Node000021"><a xlink:href="caja-undostack-manager_8h.html" target="_top" xlink:title=" ">
<polygon fill="#fff0f0" stroke="red" points="745,-74 609,-74 609,-55 745,-55 745,-74"/>
<text text-anchor="middle" x="677" y="-62" font-family="Inter" font-size="10.00">caja&#45;undostack&#45;manager.h</text>
</a>
</g>
</g>
<!-- Node13&#45;&gt;Node21 -->
<g id="edge11_Node000013_Node000021" class="edge">
<title>Node13&#45;&gt;Node21</title>
<g id="a_edge11_Node000013_Node000021"><a xlink:title=" ">
<path fill="none" stroke="#63b8ff" d="M390.35,-110.85C449,-101.57 548.06,-85.9 612.99,-75.63"/>
<polygon fill="#63b8ff" stroke="#63b8ff" points="613.78,-79.05 623.11,-74.03 612.69,-72.13 613.78,-79.05"/>
</a>
</g>
</g>
</g>
</svg>

<g id="navigator" transform="translate(0 0)" fill="#404254">
  <rect fill="#f2f5e9" fill-opacity="0.5" stroke="#606060" stroke-width=".5" x="0" y="0" width="60" height="60"/>
  <use id="zoomplus" xlink:href="#zoomPlus" x="17" y="9" onmousedown="handleZoom(evt,'in')"/>
  <use id="zoomminus" xlink:href="#zoomMin" x="42" y="9" onmousedown="handleZoom(evt,'out')"/>
  <use id="reset" xlink:href="#resetDef" x="30" y="36" onmousedown="handleReset()"/>
   <use id="arrowup" xlink:href="#arrowUp" x="0" y="0" onmousedown="handlePan(0,-1)"/>
  <use id="arrowright" xlink:href="#arrowRight" x="0" y="0" onmousedown="handlePan(1,0)"/>
  <use id="arrowdown" xlink:href="#arrowDown" x="0" y="0" onmousedown="handlePan(0,1)"/>
  <use id="arrowleft" xlink:href="#arrowLeft" x="0" y="0" onmousedown="handlePan(-1,0)"/>
</g>
<svg viewBox="0 0 15 15" width="100%" height="30px" preserveAspectRatio="xMaxYMin meet">
 <g id="arrow_out" transform="scale(0.3 0.3)">
  <a xlink:href="caja-saved-search-file_8c__incl_org.svg" target="_base">
   <rect id="button" ry="5" rx="5" y="6" x="6" height="38" width="38"
        fill="#f2f5e9" fill-opacity="0.5" stroke="#606060" stroke-width="1.0"/>
   <path id="arrow"
     d="M 11.500037,31.436501 C 11.940474,20.09759 22.043105,11.32322 32.158766,21.979434 L 37.068811,17.246167 C 37.068811,17.246167 37.088388,32 37.088388,32 L 22.160133,31.978069 C 22.160133,31.978069 26.997745,27.140456 26.997745,27.140456 C 18.528582,18.264221 13.291696,25.230495 11.500037,31.436501 z"
     style="fill:#404040;"/>
  </a>
 </g>
</svg>

<style type='text/css'>
<![CDATA[
[data-mouse-over-selected='false'] { opacity: 0.7; }
[data-mouse-over-selected='true']  { opacity: 1.0; }
]]>
</style>
<script type="application/ecmascript"><![CDATA[
document.addEventListener('DOMContentLoaded', (event) => {
  highlightEdges();
  highlightAdjacentNodes();
});
]]></script>
</svg>
