<?xml version="1.0" encoding="UTF-8" standalone="no"?>
<!DOCTYPE svg PUBLIC "-//W3C//DTD SVG 1.1//EN"
 "http://www.w3.org/Graphics/SVG/1.1/DTD/svg11.dtd">
<!-- Generated by graphviz version 2.43.0 (0)
 -->
<!-- Title: caja&#45;icon&#45;names.h Pages: 1 -->
<!--zoomable 93 -->

<svg id="main" version="1.1" xmlns="http://www.w3.org/2000/svg" xmlns:xlink="http://www.w3.org/1999/xlink" xml:space="preserve" onload="init(evt)">

<style type="text/css"><![CDATA[
.node, .edge {opacity: 0.7;}
.node.selected, .edge.selected {opacity: 1;}
.edge:hover path { stroke: red; }
.edge:hover polygon { stroke: red; fill: red; }
]]></style>

<defs>
  <circle id="rim" cx="0" cy="0" r="7"/>
  <circle id="rim2" cx="0" cy="0" r="3.5"/>
  <g id="zoomPlus">
    <use xlink:href="#rim" fill="#404040"><set attributeName="fill" to="#808080" begin="zoomplus.mouseover" end="zoomplus.mouseout"/></use>
    <path d="M-4,0h8M0,-4v8" fill="none" stroke="white" stroke-width="1.5" pointer-events="none"/>
  </g>
  <g id="zoomMin">
    <use xlink:href="#rim" fill="#404040"><set attributeName="fill" to="#808080" begin="zoomminus.mouseover" end="zoomminus.mouseout"/></use>
    <path d="M-4,0h8" fill="none" stroke="white" stroke-width="1.5" pointer-events="none"/>
  </g>
  <g id="arrowUp" transform="translate(30 24)">
    <use xlink:href="#rim"/>
    <path pointer-events="none" fill="none" stroke="white" stroke-width="1.5" d="M0,-3.0v7 M-2.5,-0.5L0,-3.0L2.5,-0.5"/>
  </g>
  <g id="arrowRight" transform="rotate(90) translate(36 -43)">
    <use xlink:href="#rim"/>
    <path pointer-events="none" fill="none" stroke="white" stroke-width="1.5" d="M0,-3.0v7 M-2.5,-0.5L0,-3.0L2.5,-0.5"/>
  </g>
  <g id="arrowDown" transform="rotate(180) translate(-30 -48)">
    <use xlink:href="#rim"/>
    <path pointer-events="none" fill="none" stroke="white" stroke-width="1.5" d="M0,-3.0v7 M-2.5,-0.5L0,-3.0L2.5,-0.5"/>
  </g>
  <g id="arrowLeft" transform="rotate(270) translate(-36 17)">
    <use xlink:href="#rim"/>
    <path pointer-events="none" fill="none" stroke="white" stroke-width="1.5" d="M0,-3.0v7 M-2.5,-0.5L0,-3.0L2.5,-0.5"/>
  </g>
  <g id="resetDef">
    <use xlink:href="#rim2" fill="#404040"><set attributeName="fill" to="#808080" begin="reset.mouseover" end="reset.mouseout"/></use>
  </g>
</defs>
<script type="application/ecmascript">
var viewWidth = 1703;
var viewHeight = 93;
var sectionId = 'dynsection-0';
</script>
<script type="application/ecmascript" xlink:href="svg.min.js"/>
<svg id="graph" class="graph">
<g id="viewport">
<title>caja&#45;icon&#45;names.h</title>
<!-- Node1 -->
<g id="Node000001" class="node">
<title>Node1</title>
<g id="a_Node000001"><a xlink:title=" ">
<polygon fill="#999999" stroke="#666666" points="924.5,-85 826.5,-85 826.5,-66 924.5,-66 924.5,-85"/>
<text text-anchor="middle" x="875.5" y="-73" font-family="Inter" font-size="10.00">caja&#45;icon&#45;names.h</text>
</a>
</g>
</g>
<!-- Node2 -->
<g id="Node000002" class="node">
<title>Node2</title>
<g id="a_Node000002"><a xlink:href="caja-bookmark-list_8c.html" target="_top" xlink:title=" ">
<polygon fill="white" stroke="#666666" points="107,-24.5 0,-24.5 0,-5.5 107,-5.5 107,-24.5"/>
<text text-anchor="middle" x="53.5" y="-12.5" font-family="Inter" font-size="10.00">caja&#45;bookmark&#45;list.c</text>
</a>
</g>
</g>
<!-- Node1&#45;&gt;Node2 -->
<g id="edge1_Node000001_Node000002" class="edge">
<title>Node1&#45;&gt;Node2</title>
<g id="a_edge1_Node000001_Node000002"><a xlink:title=" ">
<path fill="none" stroke="#63b8ff" d="M816.4,-74.25C688.25,-72.99 375.52,-66.14 116.5,-30 106.96,-28.67 96.72,-26.65 87.32,-24.56"/>
<polygon fill="#63b8ff" stroke="#63b8ff" points="816.36,-77.75 826.4,-74.34 816.43,-70.75 816.36,-77.75"/>
</a>
</g>
</g>
<!-- Node3 -->
<g id="Node000003" class="node">
<title>Node3</title>
<g id="a_Node000003"><a xlink:href="caja-bookmark_8c.html" target="_top" xlink:title=" ">
<polygon fill="white" stroke="#666666" points="217.5,-24.5 125.5,-24.5 125.5,-5.5 217.5,-5.5 217.5,-24.5"/>
<text text-anchor="middle" x="171.5" y="-12.5" font-family="Inter" font-size="10.00">caja&#45;bookmark.c</text>
</a>
</g>
</g>
<!-- Node1&#45;&gt;Node3 -->
<g id="edge2_Node000001_Node000003" class="edge">
<title>Node1&#45;&gt;Node3</title>
<g id="a_edge2_Node000001_Node000003"><a xlink:title=" ">
<path fill="none" stroke="#63b8ff" d="M815.99,-74.01C701.24,-72.26 441.7,-64.48 226.5,-30 218.13,-28.66 209.18,-26.64 200.98,-24.55"/>
<polygon fill="#63b8ff" stroke="#63b8ff" points="816.26,-77.51 826.31,-74.15 816.36,-70.51 816.26,-77.51"/>
</a>
</g>
</g>
<!-- Node4 -->
<g id="Node000004" class="node">
<title>Node4</title>
<g id="a_Node000004"><a xlink:href="caja-connect-server-dialog-main_8c.html" target="_top" xlink:title=" ">
<polygon fill="white" stroke="#666666" points="343,-30 236,-30 236,0 343,0 343,-30"/>
<text text-anchor="start" x="244" y="-18" font-family="Inter" font-size="10.00">caja&#45;connect&#45;server</text>
<text text-anchor="middle" x="289.5" y="-7" font-family="Inter" font-size="10.00">&#45;dialog&#45;main.c</text>
</a>
</g>
</g>
<!-- Node1&#45;&gt;Node4 -->
<g id="edge3_Node000001_Node000004" class="edge">
<title>Node1&#45;&gt;Node4</title>
<g id="a_edge3_Node000001_Node000004"><a xlink:title=" ">
<path fill="none" stroke="#63b8ff" d="M816.23,-72.12C718.8,-67.62 518.86,-55.88 351.5,-30 348.77,-29.58 345.99,-29.11 343.18,-28.6"/>
<polygon fill="#63b8ff" stroke="#63b8ff" points="816.32,-75.63 826.47,-72.59 816.64,-68.64 816.32,-75.63"/>
</a>
</g>
</g>
<!-- Node5 -->
<g id="Node000005" class="node">
<title>Node5</title>
<g id="a_Node000005"><a xlink:href="caja-connect-server-dialog_8c.html" target="_top" xlink:title=" ">
<polygon fill="white" stroke="#666666" points="468,-30 361,-30 361,0 468,0 468,-30"/>
<text text-anchor="start" x="369" y="-18" font-family="Inter" font-size="10.00">caja&#45;connect&#45;server</text>
<text text-anchor="middle" x="414.5" y="-7" font-family="Inter" font-size="10.00">&#45;dialog.c</text>
</a>
</g>
</g>
<!-- Node1&#45;&gt;Node5 -->
<g id="edge4_Node000001_Node000005" class="edge">
<title>Node1&#45;&gt;Node5</title>
<g id="a_edge4_Node000001_Node000005"><a xlink:title=" ">
<path fill="none" stroke="#63b8ff" d="M816.29,-69.96C738.13,-63.5 596.39,-50.16 476.5,-30 473.78,-29.54 471,-29.04 468.2,-28.51"/>
<polygon fill="#63b8ff" stroke="#63b8ff" points="816.17,-73.47 826.43,-70.79 816.74,-66.49 816.17,-73.47"/>
</a>
</g>
</g>
<!-- Node6 -->
<g id="Node000006" class="node">
<title>Node6</title>
<g id="a_Node000006"><a xlink:href="caja-desktop-link_8c.html" target="_top" xlink:title=" ">
<polygon fill="white" stroke="#666666" points="587,-24.5 486,-24.5 486,-5.5 587,-5.5 587,-24.5"/>
<text text-anchor="middle" x="536.5" y="-12.5" font-family="Inter" font-size="10.00">caja&#45;desktop&#45;link.c</text>
</a>
</g>
</g>
<!-- Node1&#45;&gt;Node6 -->
<g id="edge5_Node000001_Node000006" class="edge">
<title>Node1&#45;&gt;Node6</title>
<g id="a_edge5_Node000001_Node000006"><a xlink:title=" ">
<path fill="none" stroke="#63b8ff" d="M816.22,-66.29C759.6,-58.16 671.94,-44.8 596.5,-30 588.31,-28.39 579.54,-26.47 571.31,-24.56"/>
<polygon fill="#63b8ff" stroke="#63b8ff" points="816.03,-69.8 826.43,-67.75 817.02,-62.87 816.03,-69.8"/>
</a>
</g>
</g>
<!-- Node7 -->
<g id="Node000007" class="node">
<title>Node7</title>
<g id="a_Node000007"><a xlink:href="caja-desktop-window_8c.html" target="_top" xlink:title=" ">
<polygon fill="white" stroke="#666666" points="725.5,-24.5 605.5,-24.5 605.5,-5.5 725.5,-5.5 725.5,-24.5"/>
<text text-anchor="middle" x="665.5" y="-12.5" font-family="Inter" font-size="10.00">caja&#45;desktop&#45;window.c</text>
</a>
</g>
</g>
<!-- Node1&#45;&gt;Node7 -->
<g id="edge6_Node000001_Node000007" class="edge">
<title>Node1&#45;&gt;Node7</title>
<g id="a_edge6_Node000001_Node000007"><a xlink:title=" ">
<path fill="none" stroke="#63b8ff" d="M835.12,-63.25C794.51,-51.94 732.79,-34.75 696.07,-24.52"/>
<polygon fill="#63b8ff" stroke="#63b8ff" points="834.39,-66.68 844.96,-65.99 836.27,-59.94 834.39,-66.68"/>
</a>
</g>
</g>
<!-- Node8 -->
<g id="Node000008" class="node">
<title>Node8</title>
<g id="a_Node000008"><a xlink:href="caja-icon-info_8c.html" target="_top" xlink:title=" ">
<polygon fill="white" stroke="#666666" points="827.5,-24.5 743.5,-24.5 743.5,-5.5 827.5,-5.5 827.5,-24.5"/>
<text text-anchor="middle" x="785.5" y="-12.5" font-family="Inter" font-size="10.00">caja&#45;icon&#45;info.c</text>
</a>
</g>
</g>
<!-- Node1&#45;&gt;Node8 -->
<g id="edge7_Node000001_Node000008" class="edge">
<title>Node1&#45;&gt;Node8</title>
<g id="a_edge7_Node000001_Node000008"><a xlink:title=" ">
<path fill="none" stroke="#63b8ff" d="M853.44,-60.16C836.34,-49.05 813.21,-34.01 798.83,-24.67"/>
<polygon fill="#63b8ff" stroke="#63b8ff" points="851.93,-63.35 862.22,-65.87 855.74,-57.48 851.93,-63.35"/>
</a>
</g>
</g>
<!-- Node9 -->
<g id="Node000009" class="node">
<title>Node9</title>
<g id="a_Node000009"><a xlink:href="caja-link_8c.html" target="_top" xlink:title=" ">
<polygon fill="white" stroke="#666666" points="905.5,-24.5 845.5,-24.5 845.5,-5.5 905.5,-5.5 905.5,-24.5"/>
<text text-anchor="middle" x="875.5" y="-12.5" font-family="Inter" font-size="10.00">caja&#45;link.c</text>
</a>
</g>
</g>
<!-- Node1&#45;&gt;Node9 -->
<g id="edge8_Node000001_Node000009" class="edge">
<title>Node1&#45;&gt;Node9</title>
<g id="a_edge8_Node000001_Node000009"><a xlink:title=" ">
<path fill="none" stroke="#63b8ff" d="M875.5,-55.66C875.5,-45.24 875.5,-32.8 875.5,-24.67"/>
<polygon fill="#63b8ff" stroke="#63b8ff" points="872,-55.87 875.5,-65.87 879,-55.87 872,-55.87"/>
</a>
</g>
</g>
<!-- Node10 -->
<g id="Node000010" class="node">
<title>Node10</title>
<g id="a_Node000010"><a xlink:href="caja-main_8c.html" target="_top" xlink:title=" ">
<polygon fill="white" stroke="#666666" points="991,-24.5 924,-24.5 924,-5.5 991,-5.5 991,-24.5"/>
<text text-anchor="middle" x="957.5" y="-12.5" font-family="Inter" font-size="10.00">caja&#45;main.c</text>
</a>
</g>
</g>
<!-- Node1&#45;&gt;Node10 -->
<g id="edge9_Node000001_Node000010" class="edge">
<title>Node1&#45;&gt;Node10</title>
<g id="a_edge9_Node000001_Node000010"><a xlink:title=" ">
<path fill="none" stroke="#63b8ff" d="M896.04,-59.85C911.57,-48.77 932.37,-33.93 945.35,-24.67"/>
<polygon fill="#63b8ff" stroke="#63b8ff" points="893.71,-57.21 887.6,-65.87 897.77,-62.91 893.71,-57.21"/>
</a>
</g>
</g>
<!-- Node11 -->
<g id="Node000011" class="node">
<title>Node11</title>
<g id="a_Node000011"><a xlink:href="caja-pathbar_8c.html" target="_top" xlink:title=" ">
<polygon fill="white" stroke="#666666" points="1088,-24.5 1009,-24.5 1009,-5.5 1088,-5.5 1088,-24.5"/>
<text text-anchor="middle" x="1048.5" y="-12.5" font-family="Inter" font-size="10.00">caja&#45;pathbar.c</text>
</a>
</g>
</g>
<!-- Node1&#45;&gt;Node11 -->
<g id="edge10_Node000001_Node000011" class="edge">
<title>Node1&#45;&gt;Node11</title>
<g id="a_edge10_Node000001_Node000011"><a xlink:title=" ">
<path fill="none" stroke="#63b8ff" d="M910.48,-62.67C943.94,-51.36 993.58,-34.57 1023.31,-24.52"/>
<polygon fill="#63b8ff" stroke="#63b8ff" points="909.01,-59.47 900.66,-65.99 911.25,-66.11 909.01,-59.47"/>
</a>
</g>
</g>
<!-- Node12 -->
<g id="Node000012" class="node">
<title>Node12</title>
<g id="a_Node000012"><a xlink:href="caja-places-sidebar_8c.html" target="_top" xlink:title=" ">
<polygon fill="white" stroke="#666666" points="1214.5,-24.5 1106.5,-24.5 1106.5,-5.5 1214.5,-5.5 1214.5,-24.5"/>
<text text-anchor="middle" x="1160.5" y="-12.5" font-family="Inter" font-size="10.00">caja&#45;places&#45;sidebar.c</text>
</a>
</g>
</g>
<!-- Node1&#45;&gt;Node12 -->
<g id="edge11_Node000001_Node000012" class="edge">
<title>Node1&#45;&gt;Node12</title>
<g id="a_edge11_Node000001_Node000012"><a xlink:title=" ">
<path fill="none" stroke="#63b8ff" d="M929.2,-64.06C974.2,-55.23 1040.11,-42.13 1097.5,-30 1105.61,-28.29 1114.3,-26.39 1122.55,-24.57"/>
<polygon fill="#63b8ff" stroke="#63b8ff" points="928.5,-60.63 919.36,-65.99 929.85,-67.5 928.5,-60.63"/>
</a>
</g>
</g>
<!-- Node13 -->
<g id="Node000013" class="node">
<title>Node13</title>
<g id="a_Node000013"><a xlink:href="caja-trash-monitor_8c.html" target="_top" xlink:title=" ">
<polygon fill="white" stroke="#666666" points="1338.5,-24.5 1232.5,-24.5 1232.5,-5.5 1338.5,-5.5 1338.5,-24.5"/>
<text text-anchor="middle" x="1285.5" y="-12.5" font-family="Inter" font-size="10.00">caja&#45;trash&#45;monitor.c</text>
</a>
</g>
</g>
<!-- Node1&#45;&gt;Node13 -->
<g id="edge12_Node000001_Node000013" class="edge">
<title>Node1&#45;&gt;Node13</title>
<g id="a_edge12_Node000001_Node000013"><a xlink:title=" ">
<path fill="none" stroke="#63b8ff" d="M935.02,-68.63C1004.52,-61.37 1122.8,-47.77 1223.5,-30 1232.3,-28.45 1241.74,-26.48 1250.53,-24.51"/>
<polygon fill="#63b8ff" stroke="#63b8ff" points="934.29,-65.18 924.71,-69.69 935.02,-72.15 934.29,-65.18"/>
</a>
</g>
</g>
<!-- Node14 -->
<g id="Node000014" class="node">
<title>Node14</title>
<g id="a_Node000014"><a xlink:href="caja-window-menus_8c.html" target="_top" xlink:title=" ">
<polygon fill="white" stroke="#666666" points="1470.5,-24.5 1356.5,-24.5 1356.5,-5.5 1470.5,-5.5 1470.5,-24.5"/>
<text text-anchor="middle" x="1413.5" y="-12.5" font-family="Inter" font-size="10.00">caja&#45;window&#45;menus.c</text>
</a>
</g>
</g>
<!-- Node1&#45;&gt;Node14 -->
<g id="edge13_Node000001_Node000014" class="edge">
<title>Node1&#45;&gt;Node14</title>
<g id="a_edge13_Node000001_Node000014"><a xlink:title=" ">
<path fill="none" stroke="#63b8ff" d="M934.9,-71.1C1024.64,-65.47 1199.97,-52.53 1347.5,-30 1357.11,-28.53 1367.43,-26.55 1376.98,-24.53"/>
<polygon fill="#63b8ff" stroke="#63b8ff" points="934.42,-67.62 924.65,-71.73 934.85,-74.61 934.42,-67.62"/>
</a>
</g>
</g>
<!-- Node15 -->
<g id="Node000015" class="node">
<title>Node15</title>
<g id="a_Node000015"><a xlink:href="fm-directory-view_8c.html" target="_top" xlink:title=" ">
<polygon fill="white" stroke="#666666" points="1594,-24.5 1489,-24.5 1489,-5.5 1594,-5.5 1594,-24.5"/>
<text text-anchor="middle" x="1541.5" y="-12.5" font-family="Inter" font-size="10.00">fm&#45;directory&#45;view.c</text>
</a>
</g>
</g>
<!-- Node1&#45;&gt;Node15 -->
<g id="edge14_Node000001_Node000015" class="edge">
<title>Node1&#45;&gt;Node15</title>
<g id="a_edge14_Node000001_Node000015"><a xlink:title=" ">
<path fill="none" stroke="#63b8ff" d="M934.8,-73.05C1043.4,-69.75 1281.28,-59.52 1479.5,-30 1488.78,-28.62 1498.73,-26.61 1507.88,-24.55"/>
<polygon fill="#63b8ff" stroke="#63b8ff" points="934.6,-69.55 924.7,-73.35 934.8,-76.55 934.6,-69.55"/>
</a>
</g>
</g>
<!-- Node16 -->
<g id="Node000016" class="node">
<title>Node16</title>
<g id="a_Node000016"><a xlink:href="fm-tree-view_8c.html" target="_top" xlink:title=" ">
<polygon fill="white" stroke="#666666" points="1695,-24.5 1612,-24.5 1612,-5.5 1695,-5.5 1695,-24.5"/>
<text text-anchor="middle" x="1653.5" y="-12.5" font-family="Inter" font-size="10.00">fm&#45;tree&#45;view.c</text>
</a>
</g>
</g>
<!-- Node1&#45;&gt;Node16 -->
<g id="edge15_Node000001_Node000016" class="edge">
<title>Node1&#45;&gt;Node16</title>
<g id="a_edge15_Node000001_Node000016"><a xlink:title=" ">
<path fill="none" stroke="#63b8ff" d="M935.02,-75.11C1059.86,-75.46 1357.87,-71.41 1603.5,-30 1611.23,-28.7 1619.49,-26.66 1627.01,-24.54"/>
<polygon fill="#63b8ff" stroke="#63b8ff" points="934.92,-71.61 924.9,-75.07 934.89,-78.61 934.92,-71.61"/>
</a>
</g>
</g>
</g>
</svg>

<g id="navigator" transform="translate(0 0)" fill="#404254">
  <rect fill="#f2f5e9" fill-opacity="0.5" stroke="#606060" stroke-width=".5" x="0" y="0" width="60" height="60"/>
  <use id="zoomplus" xlink:href="#zoomPlus" x="17" y="9" onmousedown="handleZoom(evt,'in')"/>
  <use id="zoomminus" xlink:href="#zoomMin" x="42" y="9" onmousedown="handleZoom(evt,'out')"/>
  <use id="reset" xlink:href="#resetDef" x="30" y="36" onmousedown="handleReset()"/>
   <use id="arrowup" xlink:href="#arrowUp" x="0" y="0" onmousedown="handlePan(0,-1)"/>
  <use id="arrowright" xlink:href="#arrowRight" x="0" y="0" onmousedown="handlePan(1,0)"/>
  <use id="arrowdown" xlink:href="#arrowDown" x="0" y="0" onmousedown="handlePan(0,1)"/>
  <use id="arrowleft" xlink:href="#arrowLeft" x="0" y="0" onmousedown="handlePan(-1,0)"/>
</g>
<svg viewBox="0 0 15 15" width="100%" height="30px" preserveAspectRatio="xMaxYMin meet">
 <g id="arrow_out" transform="scale(0.3 0.3)">
  <a xlink:href="caja-icon-names_8h__dep__incl_org.svg" target="_base">
   <rect id="button" ry="5" rx="5" y="6" x="6" height="38" width="38"
        fill="#f2f5e9" fill-opacity="0.5" stroke="#606060" stroke-width="1.0"/>
   <path id="arrow"
     d="M 11.500037,31.436501 C 11.940474,20.09759 22.043105,11.32322 32.158766,21.979434 L 37.068811,17.246167 C 37.068811,17.246167 37.088388,32 37.088388,32 L 22.160133,31.978069 C 22.160133,31.978069 26.997745,27.140456 26.997745,27.140456 C 18.528582,18.264221 13.291696,25.230495 11.500037,31.436501 z"
     style="fill:#404040;"/>
  </a>
 </g>
</svg>

<style type='text/css'>
<![CDATA[
[data-mouse-over-selected='false'] { opacity: 0.7; }
[data-mouse-over-selected='true']  { opacity: 1.0; }
]]>
</style>
<script type="application/ecmascript"><![CDATA[
document.addEventListener('DOMContentLoaded', (event) => {
  highlightEdges();
  highlightAdjacentNodes();
});
]]></script>
</svg>
