<?xml version="1.0" encoding="UTF-8" standalone="no"?>
<!DOCTYPE svg PUBLIC "-//W3C//DTD SVG 1.1//EN"
 "http://www.w3.org/Graphics/SVG/1.1/DTD/svg11.dtd">
<!-- Generated by graphviz version 2.43.0 (0)
 -->
<!-- Title: caja&#45;search&#45;engine.c Pages: 1 -->
<svg width="590pt" height="258pt"
 viewBox="0.00 0.00 590.00 258.00" xmlns="http://www.w3.org/2000/svg" xmlns:xlink="http://www.w3.org/1999/xlink">
<g id="graph0" class="graph" transform="scale(1 1) rotate(0) translate(4 254)">
<title>caja&#45;search&#45;engine.c</title>
<!-- Node1 -->
<g id="Node000001" class="node">
<title>Node1</title>
<g id="a_Node000001"><a xlink:title=" ">
<polygon fill="#999999" stroke="#666666" points="306,-250 196,-250 196,-231 306,-231 306,-250"/>
<text text-anchor="middle" x="251" y="-238" font-family="Inter" font-size="10.00">caja&#45;search&#45;engine.c</text>
</a>
</g>
</g>
<!-- Node2 -->
<g id="Node000002" class="node">
<title>Node2</title>
<g id="a_Node000002"><a xlink:title=" ">
<polygon fill="#e0e0e0" stroke="#999999" points="54,-189.5 0,-189.5 0,-170.5 54,-170.5 54,-189.5"/>
<text text-anchor="middle" x="27" y="-177.5" font-family="Inter" font-size="10.00">config.h</text>
</a>
</g>
</g>
<!-- Node1&#45;&gt;Node2 -->
<g id="edge1_Node000001_Node000002" class="edge">
<title>Node1&#45;&gt;Node2</title>
<g id="a_edge1_Node000001_Node000002"><a xlink:title=" ">
<path fill="none" stroke="#63b8ff" d="M207.23,-230.93C168.83,-222.99 111.68,-210.15 63,-195 61.13,-194.42 59.21,-193.78 57.29,-193.12"/>
<polygon fill="#63b8ff" stroke="#63b8ff" points="58.36,-189.79 47.77,-189.64 55.96,-196.36 58.36,-189.79"/>
</a>
</g>
</g>
<!-- Node3 -->
<g id="Node000003" class="node">
<title>Node3</title>
<g id="a_Node000003"><a xlink:href="eel-gtk-macros_8h.html" target="_top" xlink:title=" ">
<polygon fill="white" stroke="#666666" points="184,-189.5 72,-189.5 72,-170.5 184,-170.5 184,-189.5"/>
<text text-anchor="middle" x="128" y="-177.5" font-family="Inter" font-size="10.00">eel/eel&#45;gtk&#45;macros.h</text>
</a>
</g>
</g>
<!-- Node1&#45;&gt;Node3 -->
<g id="edge2_Node000001_Node000003" class="edge">
<title>Node1&#45;&gt;Node3</title>
<g id="a_edge2_Node000001_Node000003"><a xlink:title=" ">
<path fill="none" stroke="#63b8ff" d="M233.11,-230.99C212.62,-221.25 178.81,-205.16 155.08,-193.88"/>
<polygon fill="#63b8ff" stroke="#63b8ff" points="156.44,-190.65 145.91,-189.52 153.43,-196.97 156.44,-190.65"/>
</a>
</g>
</g>
<!-- Node4 -->
<g id="Node000004" class="node">
<title>Node4</title>
<g id="a_Node000004"><a xlink:href="caja-search-engine_8h.html" target="_top" xlink:title=" ">
<polygon fill="white" stroke="#666666" points="406.5,-129 295.5,-129 295.5,-110 406.5,-110 406.5,-129"/>
<text text-anchor="middle" x="351" y="-117" font-family="Inter" font-size="10.00">caja&#45;search&#45;engine.h</text>
</a>
</g>
</g>
<!-- Node1&#45;&gt;Node4 -->
<g id="edge3_Node000001_Node000004" class="edge">
<title>Node1&#45;&gt;Node4</title>
<g id="a_edge3_Node000001_Node000004"><a xlink:title=" ">
<path fill="none" stroke="#63b8ff" d="M244.47,-230.9C234.15,-216.16 216.62,-185.67 231,-165 243.65,-146.81 264.65,-136.04 285.58,-129.67"/>
<polygon fill="#63b8ff" stroke="#63b8ff" points="286.76,-132.98 295.48,-126.96 284.91,-126.22 286.76,-132.98"/>
</a>
</g>
</g>
<!-- Node7 -->
<g id="Node000007" class="node">
<title>Node7</title>
<g id="a_Node000007"><a xlink:href="caja-search-engine-beagle_8h.html" target="_top" xlink:title=" ">
<polygon fill="white" stroke="#666666" points="342,-195 240,-195 240,-165 342,-165 342,-195"/>
<text text-anchor="start" x="248" y="-183" font-family="Inter" font-size="10.00">caja&#45;search&#45;engine</text>
<text text-anchor="middle" x="291" y="-172" font-family="Inter" font-size="10.00">&#45;beagle.h</text>
</a>
</g>
</g>
<!-- Node1&#45;&gt;Node7 -->
<g id="edge7_Node000001_Node000007" class="edge">
<title>Node1&#45;&gt;Node7</title>
<g id="a_edge7_Node000001_Node000007"><a xlink:title=" ">
<path fill="none" stroke="#63b8ff" d="M256.9,-230.87C261.83,-223.67 269.07,-213.07 275.62,-203.49"/>
<polygon fill="#63b8ff" stroke="#63b8ff" points="278.59,-205.34 281.35,-195.11 272.82,-201.39 278.59,-205.34"/>
</a>
</g>
</g>
<!-- Node8 -->
<g id="Node000008" class="node">
<title>Node8</title>
<g id="a_Node000008"><a xlink:href="caja-search-engine-simple_8h.html" target="_top" xlink:title=" ">
<polygon fill="white" stroke="#666666" points="462,-195 360,-195 360,-165 462,-165 462,-195"/>
<text text-anchor="start" x="368" y="-183" font-family="Inter" font-size="10.00">caja&#45;search&#45;engine</text>
<text text-anchor="middle" x="411" y="-172" font-family="Inter" font-size="10.00">&#45;simple.h</text>
</a>
</g>
</g>
<!-- Node1&#45;&gt;Node8 -->
<g id="edge9_Node000001_Node000008" class="edge">
<title>Node1&#45;&gt;Node8</title>
<g id="a_edge9_Node000001_Node000008"><a xlink:title=" ">
<path fill="none" stroke="#63b8ff" d="M274.27,-230.99C297.39,-222.54 333.55,-209.32 362.88,-198.59"/>
<polygon fill="#63b8ff" stroke="#63b8ff" points="364.34,-201.79 372.53,-195.06 361.94,-195.21 364.34,-201.79"/>
</a>
</g>
</g>
<!-- Node9 -->
<g id="Node000009" class="node">
<title>Node9</title>
<g id="a_Node000009"><a xlink:href="caja-search-engine-tracker_8h.html" target="_top" xlink:title=" ">
<polygon fill="white" stroke="#666666" points="582,-195 480,-195 480,-165 582,-165 582,-195"/>
<text text-anchor="start" x="488" y="-183" font-family="Inter" font-size="10.00">caja&#45;search&#45;engine</text>
<text text-anchor="middle" x="531" y="-172" font-family="Inter" font-size="10.00">&#45;tracker.h</text>
</a>
</g>
</g>
<!-- Node1&#45;&gt;Node9 -->
<g id="edge11_Node000001_Node000009" class="edge">
<title>Node1&#45;&gt;Node9</title>
<g id="a_edge11_Node000001_Node000009"><a xlink:title=" ">
<path fill="none" stroke="#63b8ff" d="M295.33,-230.93C337.73,-222.65 403.72,-209.53 470.16,-195.15"/>
<polygon fill="#63b8ff" stroke="#63b8ff" points="470.93,-198.56 479.96,-193.02 469.44,-191.72 470.93,-198.56"/>
</a>
</g>
</g>
<!-- Node5 -->
<g id="Node000005" class="node">
<title>Node5</title>
<g id="a_Node000005"><a xlink:title=" ">
<polygon fill="#e0e0e0" stroke="#999999" points="388,-19 314,-19 314,0 388,0 388,-19"/>
<text text-anchor="middle" x="351" y="-7" font-family="Inter" font-size="10.00">glib&#45;object.h</text>
</a>
</g>
</g>
<!-- Node4&#45;&gt;Node5 -->
<g id="edge4_Node000004_Node000005" class="edge">
<title>Node4&#45;&gt;Node5</title>
<g id="a_edge4_Node000004_Node000005"><a xlink:title=" ">
<path fill="none" stroke="#63b8ff" d="M347.61,-109.92C343.2,-97.76 336.38,-74.8 339,-55 340.16,-46.27 342.53,-36.83 344.87,-28.9"/>
<polygon fill="#63b8ff" stroke="#63b8ff" points="348.25,-29.82 347.91,-19.23 341.57,-27.72 348.25,-29.82"/>
</a>
</g>
</g>
<!-- Node6 -->
<g id="Node000006" class="node">
<title>Node6</title>
<g id="a_Node000006"><a xlink:href="caja-query_8h.html" target="_top" xlink:title=" ">
<polygon fill="white" stroke="#666666" points="420.5,-74 347.5,-74 347.5,-55 420.5,-55 420.5,-74"/>
<text text-anchor="middle" x="384" y="-62" font-family="Inter" font-size="10.00">caja&#45;query.h</text>
</a>
</g>
</g>
<!-- Node4&#45;&gt;Node6 -->
<g id="edge5_Node000004_Node000006" class="edge">
<title>Node4&#45;&gt;Node6</title>
<g id="a_edge5_Node000004_Node000006"><a xlink:title=" ">
<path fill="none" stroke="#63b8ff" d="M356.45,-109.75C361.01,-102.42 367.67,-91.73 373.29,-82.7"/>
<polygon fill="#63b8ff" stroke="#63b8ff" points="376.34,-84.43 378.65,-74.09 370.4,-80.73 376.34,-84.43"/>
</a>
</g>
</g>
<!-- Node6&#45;&gt;Node5 -->
<g id="edge6_Node000006_Node000005" class="edge">
<title>Node6&#45;&gt;Node5</title>
<g id="a_edge6_Node000006_Node000005"><a xlink:title=" ">
<path fill="none" stroke="#63b8ff" d="M378.55,-54.75C373.99,-47.42 367.33,-36.73 361.71,-27.7"/>
<polygon fill="#63b8ff" stroke="#63b8ff" points="364.6,-25.73 356.35,-19.09 358.66,-29.43 364.6,-25.73"/>
</a>
</g>
</g>
<!-- Node7&#45;&gt;Node4 -->
<g id="edge8_Node000007_Node000004" class="edge">
<title>Node7&#45;&gt;Node4</title>
<g id="a_edge8_Node000007_Node000004"><a xlink:title=" ">
<path fill="none" stroke="#63b8ff" d="M305.52,-164.84C314.32,-156.26 325.57,-145.3 334.67,-136.42"/>
<polygon fill="#63b8ff" stroke="#63b8ff" points="337.29,-138.75 342.01,-129.27 332.41,-133.74 337.29,-138.75"/>
</a>
</g>
</g>
<!-- Node8&#45;&gt;Node4 -->
<g id="edge10_Node000008_Node000004" class="edge">
<title>Node8&#45;&gt;Node4</title>
<g id="a_edge10_Node000008_Node000004"><a xlink:title=" ">
<path fill="none" stroke="#63b8ff" d="M396.48,-164.84C387.68,-156.26 376.43,-145.3 367.33,-136.42"/>
<polygon fill="#63b8ff" stroke="#63b8ff" points="369.59,-133.74 359.99,-129.27 364.71,-138.75 369.59,-133.74"/>
</a>
</g>
</g>
<!-- Node9&#45;&gt;Node4 -->
<g id="edge12_Node000009_Node000004" class="edge">
<title>Node9&#45;&gt;Node4</title>
<g id="a_edge12_Node000009_Node000004"><a xlink:title=" ">
<path fill="none" stroke="#63b8ff" d="M487.89,-164.99C457.09,-154.98 416.13,-141.67 387.07,-132.22"/>
<polygon fill="#63b8ff" stroke="#63b8ff" points="387.91,-128.82 377.32,-129.05 385.75,-135.47 387.91,-128.82"/>
</a>
</g>
</g>
</g>
</svg>
