<?xml version="1.0" encoding="UTF-8" standalone="no"?>
<!DOCTYPE svg PUBLIC "-//W3C//DTD SVG 1.1//EN"
 "http://www.w3.org/Graphics/SVG/1.1/DTD/svg11.dtd">
<!-- Generated by graphviz version 2.43.0 (0)
 -->
<!-- Title: caja&#45;location&#45;entry.h Pages: 1 -->
<svg width="118pt" height="148pt"
 viewBox="0.00 0.00 118.00 148.00" xmlns="http://www.w3.org/2000/svg" xmlns:xlink="http://www.w3.org/1999/xlink">
<g id="graph0" class="graph" transform="scale(1 1) rotate(0) translate(4 144)">
<title>caja&#45;location&#45;entry.h</title>
<!-- Node1 -->
<g id="Node000001" class="node">
<title>Node1</title>
<g id="a_Node000001"><a xlink:title=" ">
<polygon fill="#999999" stroke="#666666" points="110,-140 0,-140 0,-121 110,-121 110,-140"/>
<text text-anchor="middle" x="55" y="-128" font-family="Inter" font-size="10.00">caja&#45;location&#45;entry.h</text>
</a>
</g>
</g>
<!-- Node2 -->
<g id="Node000002" class="node">
<title>Node2</title>
<g id="a_Node000002"><a xlink:href="caja-entry_8h.html" target="_top" xlink:title=" ">
<polygon fill="white" stroke="#666666" points="105.5,-85 4.5,-85 4.5,-55 105.5,-55 105.5,-85"/>
<text text-anchor="start" x="12.5" y="-73" font-family="Inter" font-size="10.00">libcaja&#45;private/caja</text>
<text text-anchor="middle" x="55" y="-62" font-family="Inter" font-size="10.00">&#45;entry.h</text>
</a>
</g>
</g>
<!-- Node1&#45;&gt;Node2 -->
<g id="edge1_Node000001_Node000002" class="edge">
<title>Node1&#45;&gt;Node2</title>
<g id="a_edge1_Node000001_Node000002"><a xlink:title=" ">
<path fill="none" stroke="#63b8ff" d="M55,-120.87C55,-114.11 55,-104.35 55,-95.26"/>
<polygon fill="#63b8ff" stroke="#63b8ff" points="58.5,-95.11 55,-85.11 51.5,-95.11 58.5,-95.11"/>
</a>
</g>
</g>
<!-- Node3 -->
<g id="Node000003" class="node">
<title>Node3</title>
<g id="a_Node000003"><a xlink:title=" ">
<polygon fill="#e0e0e0" stroke="#999999" points="84.5,-19 25.5,-19 25.5,0 84.5,0 84.5,-19"/>
<text text-anchor="middle" x="55" y="-7" font-family="Inter" font-size="10.00">gtk/gtk.h</text>
</a>
</g>
</g>
<!-- Node2&#45;&gt;Node3 -->
<g id="edge2_Node000002_Node000003" class="edge">
<title>Node2&#45;&gt;Node3</title>
<g id="a_edge2_Node000002_Node000003"><a xlink:title=" ">
<path fill="none" stroke="#63b8ff" d="M55,-54.84C55,-47.21 55,-37.7 55,-29.45"/>
<polygon fill="#63b8ff" stroke="#63b8ff" points="58.5,-29.27 55,-19.27 51.5,-29.27 58.5,-29.27"/>
</a>
</g>
</g>
</g>
</svg>
