<?xml version="1.0" encoding="UTF-8" standalone="no"?>
<!DOCTYPE svg PUBLIC "-//W3C//DTD SVG 1.1//EN"
 "http://www.w3.org/Graphics/SVG/1.1/DTD/svg11.dtd">
<!-- Generated by graphviz version 2.43.0 (0)
 -->
<!-- Title: caja&#45;undostack&#45;manager.h Pages: 1 -->
<!--zoomable 148 -->

<svg id="main" version="1.1" xmlns="http://www.w3.org/2000/svg" xmlns:xlink="http://www.w3.org/1999/xlink" xml:space="preserve" onload="init(evt)">

<style type="text/css"><![CDATA[
.node, .edge {opacity: 0.7;}
.node.selected, .edge.selected {opacity: 1;}
.edge:hover path { stroke: red; }
.edge:hover polygon { stroke: red; fill: red; }
]]></style>

<defs>
  <circle id="rim" cx="0" cy="0" r="7"/>
  <circle id="rim2" cx="0" cy="0" r="3.5"/>
  <g id="zoomPlus">
    <use xlink:href="#rim" fill="#404040"><set attributeName="fill" to="#808080" begin="zoomplus.mouseover" end="zoomplus.mouseout"/></use>
    <path d="M-4,0h8M0,-4v8" fill="none" stroke="white" stroke-width="1.5" pointer-events="none"/>
  </g>
  <g id="zoomMin">
    <use xlink:href="#rim" fill="#404040"><set attributeName="fill" to="#808080" begin="zoomminus.mouseover" end="zoomminus.mouseout"/></use>
    <path d="M-4,0h8" fill="none" stroke="white" stroke-width="1.5" pointer-events="none"/>
  </g>
  <g id="arrowUp" transform="translate(30 24)">
    <use xlink:href="#rim"/>
    <path pointer-events="none" fill="none" stroke="white" stroke-width="1.5" d="M0,-3.0v7 M-2.5,-0.5L0,-3.0L2.5,-0.5"/>
  </g>
  <g id="arrowRight" transform="rotate(90) translate(36 -43)">
    <use xlink:href="#rim"/>
    <path pointer-events="none" fill="none" stroke="white" stroke-width="1.5" d="M0,-3.0v7 M-2.5,-0.5L0,-3.0L2.5,-0.5"/>
  </g>
  <g id="arrowDown" transform="rotate(180) translate(-30 -48)">
    <use xlink:href="#rim"/>
    <path pointer-events="none" fill="none" stroke="white" stroke-width="1.5" d="M0,-3.0v7 M-2.5,-0.5L0,-3.0L2.5,-0.5"/>
  </g>
  <g id="arrowLeft" transform="rotate(270) translate(-36 17)">
    <use xlink:href="#rim"/>
    <path pointer-events="none" fill="none" stroke="white" stroke-width="1.5" d="M0,-3.0v7 M-2.5,-0.5L0,-3.0L2.5,-0.5"/>
  </g>
  <g id="resetDef">
    <use xlink:href="#rim2" fill="#404040"><set attributeName="fill" to="#808080" begin="reset.mouseover" end="reset.mouseout"/></use>
  </g>
</defs>
<script type="application/ecmascript">
var viewWidth = 1961;
var viewHeight = 148;
var sectionId = 'dynsection-1';
</script>
<script type="application/ecmascript" xlink:href="svg.min.js"/>
<svg id="graph" class="graph">
<g id="viewport">
<title>caja&#45;undostack&#45;manager.h</title>
<!-- Node1 -->
<g id="Node000001" class="node">
<title>Node1</title>
<g id="a_Node000001"><a xlink:title=" ">
<polygon fill="#999999" stroke="#666666" points="1124.5,-140 988.5,-140 988.5,-121 1124.5,-121 1124.5,-140"/>
<text text-anchor="middle" x="1056.5" y="-128" font-family="Inter" font-size="10.00">caja&#45;undostack&#45;manager.h</text>
</a>
</g>
</g>
<!-- Node2 -->
<g id="Node000002" class="node">
<title>Node2</title>
<g id="a_Node000002"><a xlink:href="caja-file-operations_8c.html" target="_top" xlink:title=" ">
<polygon fill="white" stroke="#666666" points="111,-24.5 0,-24.5 0,-5.5 111,-5.5 111,-24.5"/>
<text text-anchor="middle" x="55.5" y="-12.5" font-family="Inter" font-size="10.00">caja&#45;file&#45;operations.c</text>
</a>
</g>
</g>
<!-- Node1&#45;&gt;Node2 -->
<g id="edge1_Node000001_Node000002" class="edge">
<title>Node1&#45;&gt;Node2</title>
<g id="a_edge1_Node000001_Node000002"><a xlink:title=" ">
<path fill="none" stroke="#63b8ff" d="M977.94,-124.08C816.44,-112.3 435.73,-81.22 119.5,-30 110.29,-28.51 100.42,-26.54 91.25,-24.54"/>
<polygon fill="#63b8ff" stroke="#63b8ff" points="978.03,-127.6 988.26,-124.83 978.54,-120.62 978.03,-127.6"/>
</a>
</g>
</g>
<!-- Node3 -->
<g id="Node000003" class="node">
<title>Node3</title>
<g id="a_Node000003"><a xlink:href="caja-file-private_8h.html" target="_top" xlink:title=" ">
<polygon fill="white" stroke="#666666" points="1066.5,-85 970.5,-85 970.5,-66 1066.5,-66 1066.5,-85"/>
<text text-anchor="middle" x="1018.5" y="-73" font-family="Inter" font-size="10.00">caja&#45;file&#45;private.h</text>
</a>
</g>
</g>
<!-- Node1&#45;&gt;Node3 -->
<g id="edge2_Node000001_Node000003" class="edge">
<title>Node1&#45;&gt;Node3</title>
<g id="a_edge2_Node000001_Node000003"><a xlink:title=" ">
<path fill="none" stroke="#63b8ff" d="M1044.23,-112.39C1037.69,-103.27 1029.93,-92.45 1024.66,-85.09"/>
<polygon fill="#63b8ff" stroke="#63b8ff" points="1041.55,-114.66 1050.23,-120.75 1047.24,-110.58 1041.55,-114.66"/>
</a>
</g>
</g>
<!-- Node17 -->
<g id="Node000017" class="node">
<title>Node17</title>
<g id="a_Node000017"><a xlink:href="fm-directory-view_8c.html" target="_top" xlink:title=" ">
<polygon fill="white" stroke="#666666" points="1953,-24.5 1848,-24.5 1848,-5.5 1953,-5.5 1953,-24.5"/>
<text text-anchor="middle" x="1900.5" y="-12.5" font-family="Inter" font-size="10.00">fm&#45;directory&#45;view.c</text>
</a>
</g>
</g>
<!-- Node1&#45;&gt;Node17 -->
<g id="edge20_Node000001_Node000017" class="edge">
<title>Node1&#45;&gt;Node17</title>
<g id="a_edge20_Node000001_Node000017"><a xlink:title=" ">
<path fill="none" stroke="#63b8ff" d="M1066.58,-112.03C1076.41,-96.85 1092.87,-75.82 1113.5,-66 1186.42,-31.28 1759.5,-41.08 1839.5,-30 1848.86,-28.7 1858.91,-26.67 1868.09,-24.55"/>
<polygon fill="#63b8ff" stroke="#63b8ff" points="1063.34,-110.62 1061.11,-120.97 1069.31,-114.27 1063.34,-110.62"/>
</a>
</g>
</g>
<!-- Node19 -->
<g id="Node000019" class="node">
<title>Node19</title>
<g id="a_Node000019"><a xlink:href="caja-undostack-manager_8c.html" target="_top" xlink:title=" ">
<polygon fill="white" stroke="#666666" points="1256.5,-85 1122.5,-85 1122.5,-66 1256.5,-66 1256.5,-85"/>
<text text-anchor="middle" x="1189.5" y="-73" font-family="Inter" font-size="10.00">caja&#45;undostack&#45;manager.c</text>
</a>
</g>
</g>
<!-- Node1&#45;&gt;Node19 -->
<g id="edge19_Node000001_Node000019" class="edge">
<title>Node1&#45;&gt;Node19</title>
<g id="a_edge19_Node000001_Node000019"><a xlink:title=" ">
<path fill="none" stroke="#63b8ff" d="M1087.47,-117.16C1112.09,-107.35 1145.91,-93.87 1167.74,-85.17"/>
<polygon fill="#63b8ff" stroke="#63b8ff" points="1085.86,-114.03 1077.87,-120.98 1088.45,-120.53 1085.86,-114.03"/>
</a>
</g>
</g>
<!-- Node3&#45;&gt;Node2 -->
<g id="edge9_Node000003_Node000002" class="edge">
<title>Node3&#45;&gt;Node2</title>
<g id="a_edge9_Node000003_Node000002"><a xlink:title=" ">
<path fill="none" stroke="#63b8ff" d="M960.16,-74.95C816.53,-75.34 434.58,-71.96 119.5,-30 109.69,-28.69 99.16,-26.66 89.53,-24.54"/>
<polygon fill="#63b8ff" stroke="#63b8ff" points="960.5,-78.45 970.49,-74.92 960.48,-71.45 960.5,-78.45"/>
</a>
</g>
</g>
<!-- Node4 -->
<g id="Node000004" class="node">
<title>Node4</title>
<g id="a_Node000004"><a xlink:href="caja-desktop-directory-file_8c.html" target="_top" xlink:title=" ">
<polygon fill="white" stroke="#666666" points="248,-30 129,-30 129,0 248,0 248,-30"/>
<text text-anchor="start" x="137" y="-18" font-family="Inter" font-size="10.00">caja&#45;desktop&#45;directory</text>
<text text-anchor="middle" x="188.5" y="-7" font-family="Inter" font-size="10.00">&#45;file.c</text>
</a>
</g>
</g>
<!-- Node3&#45;&gt;Node4 -->
<g id="edge3_Node000003_Node000004" class="edge">
<title>Node3&#45;&gt;Node4</title>
<g id="a_edge3_Node000003_Node000004"><a xlink:title=" ">
<path fill="none" stroke="#63b8ff" d="M959.85,-73.9C831.82,-71.96 517.91,-63.86 257.5,-30 254.47,-29.61 251.37,-29.16 248.25,-28.66"/>
<polygon fill="#63b8ff" stroke="#63b8ff" points="960.15,-77.4 970.2,-74.05 960.25,-70.4 960.15,-77.4"/>
</a>
</g>
</g>
<!-- Node5 -->
<g id="Node000005" class="node">
<title>Node5</title>
<g id="a_Node000005"><a xlink:href="caja-desktop-directory_8c.html" target="_top" xlink:title=" ">
<polygon fill="white" stroke="#666666" points="392.5,-24.5 266.5,-24.5 266.5,-5.5 392.5,-5.5 392.5,-24.5"/>
<text text-anchor="middle" x="329.5" y="-12.5" font-family="Inter" font-size="10.00">caja&#45;desktop&#45;directory.c</text>
</a>
</g>
</g>
<!-- Node3&#45;&gt;Node5 -->
<g id="edge4_Node000003_Node000005" class="edge">
<title>Node3&#45;&gt;Node5</title>
<g id="a_edge4_Node000003_Node000005"><a xlink:title=" ">
<path fill="none" stroke="#63b8ff" d="M960.1,-72.62C850.29,-68.58 605.71,-57.12 401.5,-30 390.9,-28.59 379.5,-26.6 368.97,-24.56"/>
<polygon fill="#63b8ff" stroke="#63b8ff" points="960.18,-76.13 970.3,-72.99 960.43,-69.13 960.18,-76.13"/>
</a>
</g>
</g>
<!-- Node6 -->
<g id="Node000006" class="node">
<title>Node6</title>
<g id="a_Node000006"><a xlink:href="caja-desktop-icon-file_8c.html" target="_top" xlink:title=" ">
<polygon fill="white" stroke="#666666" points="532,-24.5 411,-24.5 411,-5.5 532,-5.5 532,-24.5"/>
<text text-anchor="middle" x="471.5" y="-12.5" font-family="Inter" font-size="10.00">caja&#45;desktop&#45;icon&#45;file.c</text>
</a>
</g>
</g>
<!-- Node3&#45;&gt;Node6 -->
<g id="edge5_Node000003_Node000006" class="edge">
<title>Node3&#45;&gt;Node6</title>
<g id="a_edge5_Node000003_Node000006"><a xlink:title=" ">
<path fill="none" stroke="#63b8ff" d="M960.44,-71.11C870.24,-65.4 691.15,-52.23 540.5,-30 530.46,-28.52 519.68,-26.53 509.69,-24.51"/>
<polygon fill="#63b8ff" stroke="#63b8ff" points="960.27,-74.61 970.47,-71.74 960.7,-67.62 960.27,-74.61"/>
</a>
</g>
</g>
<!-- Node7 -->
<g id="Node000007" class="node">
<title>Node7</title>
<g id="a_Node000007"><a xlink:href="caja-desktop-metadata_8c.html" target="_top" xlink:title=" ">
<polygon fill="white" stroke="#666666" points="679,-24.5 550,-24.5 550,-5.5 679,-5.5 679,-24.5"/>
<text text-anchor="middle" x="614.5" y="-12.5" font-family="Inter" font-size="10.00">caja&#45;desktop&#45;metadata.c</text>
</a>
</g>
</g>
<!-- Node3&#45;&gt;Node7 -->
<g id="edge6_Node000003_Node000007" class="edge">
<title>Node3&#45;&gt;Node7</title>
<g id="a_edge6_Node000003_Node000007"><a xlink:title=" ">
<path fill="none" stroke="#63b8ff" d="M960.18,-67.66C893.94,-59.66 782.7,-45.52 687.5,-30 677.57,-28.38 666.91,-26.45 656.89,-24.54"/>
<polygon fill="#63b8ff" stroke="#63b8ff" points="960.07,-71.17 970.41,-68.89 960.9,-64.22 960.07,-71.17"/>
</a>
</g>
</g>
<!-- Node8 -->
<g id="Node000008" class="node">
<title>Node8</title>
<g id="a_Node000008"><a xlink:href="caja-directory-async_8c.html" target="_top" xlink:title=" ">
<polygon fill="white" stroke="#666666" points="812,-24.5 697,-24.5 697,-5.5 812,-5.5 812,-24.5"/>
<text text-anchor="middle" x="754.5" y="-12.5" font-family="Inter" font-size="10.00">caja&#45;directory&#45;async.c</text>
</a>
</g>
</g>
<!-- Node3&#45;&gt;Node8 -->
<g id="edge7_Node000003_Node000008" class="edge">
<title>Node3&#45;&gt;Node8</title>
<g id="a_edge7_Node000003_Node000008"><a xlink:title=" ">
<path fill="none" stroke="#63b8ff" d="M970.31,-63.82C919.32,-52.52 839.88,-34.92 792.93,-24.52"/>
<polygon fill="#63b8ff" stroke="#63b8ff" points="969.59,-67.25 980.11,-65.99 971.11,-60.41 969.59,-67.25"/>
</a>
</g>
</g>
<!-- Node9 -->
<g id="Node000009" class="node">
<title>Node9</title>
<g id="a_Node000009"><a xlink:href="caja-directory_8c.html" target="_top" xlink:title=" ">
<polygon fill="white" stroke="#666666" points="916.5,-24.5 830.5,-24.5 830.5,-5.5 916.5,-5.5 916.5,-24.5"/>
<text text-anchor="middle" x="873.5" y="-12.5" font-family="Inter" font-size="10.00">caja&#45;directory.c</text>
</a>
</g>
</g>
<!-- Node3&#45;&gt;Node9 -->
<g id="edge8_Node000003_Node000009" class="edge">
<title>Node3&#45;&gt;Node9</title>
<g id="a_edge8_Node000003_Node000009"><a xlink:title=" ">
<path fill="none" stroke="#63b8ff" d="M988.09,-62.23C960.07,-50.92 919.21,-34.44 894.61,-24.52"/>
<polygon fill="#63b8ff" stroke="#63b8ff" points="986.83,-65.5 997.42,-65.99 989.45,-59.01 986.83,-65.5"/>
</a>
</g>
</g>
<!-- Node10 -->
<g id="Node000010" class="node">
<title>Node10</title>
<g id="a_Node000010"><a xlink:href="caja-file_8c.html" target="_top" xlink:title=" ">
<polygon fill="white" stroke="#666666" points="994,-24.5 935,-24.5 935,-5.5 994,-5.5 994,-24.5"/>
<text text-anchor="middle" x="964.5" y="-12.5" font-family="Inter" font-size="10.00">caja&#45;file.c</text>
</a>
</g>
</g>
<!-- Node3&#45;&gt;Node10 -->
<g id="edge10_Node000003_Node000010" class="edge">
<title>Node3&#45;&gt;Node10</title>
<g id="a_edge10_Node000003_Node000010"><a xlink:title=" ">
<path fill="none" stroke="#63b8ff" d="M1003.52,-58.27C993.48,-47.39 980.65,-33.49 972.5,-24.67"/>
<polygon fill="#63b8ff" stroke="#63b8ff" points="1001.18,-60.89 1010.53,-65.87 1006.32,-56.15 1001.18,-60.89"/>
</a>
</g>
</g>
<!-- Node11 -->
<g id="Node000011" class="node">
<title>Node11</title>
<g id="a_Node000011"><a xlink:href="caja-saved-search-file_8c.html" target="_top" xlink:title=" ">
<polygon fill="white" stroke="#666666" points="1134.5,-24.5 1012.5,-24.5 1012.5,-5.5 1134.5,-5.5 1134.5,-24.5"/>
<text text-anchor="middle" x="1073.5" y="-12.5" font-family="Inter" font-size="10.00">caja&#45;saved&#45;search&#45;file.c</text>
</a>
</g>
</g>
<!-- Node3&#45;&gt;Node11 -->
<g id="edge11_Node000003_Node000011" class="edge">
<title>Node3&#45;&gt;Node11</title>
<g id="a_edge11_Node000003_Node000011"><a xlink:title=" ">
<path fill="none" stroke="#63b8ff" d="M1033.76,-58.27C1043.99,-47.39 1057.05,-33.49 1065.35,-24.67"/>
<polygon fill="#63b8ff" stroke="#63b8ff" points="1030.92,-56.19 1026.62,-65.87 1036.02,-60.98 1030.92,-56.19"/>
</a>
</g>
</g>
<!-- Node12 -->
<g id="Node000012" class="node">
<title>Node12</title>
<g id="a_Node000012"><a xlink:href="caja-search-directory-file_8c.html" target="_top" xlink:title=" ">
<polygon fill="white" stroke="#666666" points="1264.5,-30 1152.5,-30 1152.5,0 1264.5,0 1264.5,-30"/>
<text text-anchor="start" x="1160.5" y="-18" font-family="Inter" font-size="10.00">caja&#45;search&#45;directory</text>
<text text-anchor="middle" x="1208.5" y="-7" font-family="Inter" font-size="10.00">&#45;file.c</text>
</a>
</g>
</g>
<!-- Node3&#45;&gt;Node12 -->
<g id="edge12_Node000003_Node000012" class="edge">
<title>Node3&#45;&gt;Node12</title>
<g id="a_edge12_Node000003_Node000012"><a xlink:title=" ">
<path fill="none" stroke="#63b8ff" d="M1056,-62.95C1086.66,-53.51 1130.13,-40.13 1162.82,-30.06"/>
<polygon fill="#63b8ff" stroke="#63b8ff" points="1054.65,-59.71 1046.13,-65.99 1056.71,-66.4 1054.65,-59.71"/>
</a>
</g>
</g>
<!-- Node13 -->
<g id="Node000013" class="node">
<title>Node13</title>
<g id="a_Node000013"><a xlink:href="caja-search-directory_8c.html" target="_top" xlink:title=" ">
<polygon fill="white" stroke="#666666" points="1402,-24.5 1283,-24.5 1283,-5.5 1402,-5.5 1402,-24.5"/>
<text text-anchor="middle" x="1342.5" y="-12.5" font-family="Inter" font-size="10.00">caja&#45;search&#45;directory.c</text>
</a>
</g>
</g>
<!-- Node3&#45;&gt;Node13 -->
<g id="edge13_Node000003_Node000013" class="edge">
<title>Node3&#45;&gt;Node13</title>
<g id="a_edge13_Node000003_Node000013"><a xlink:title=" ">
<path fill="none" stroke="#63b8ff" d="M1076.5,-64.84C1128.24,-56.12 1206.02,-42.73 1273.5,-30 1282.51,-28.3 1292.16,-26.4 1301.31,-24.55"/>
<polygon fill="#63b8ff" stroke="#63b8ff" points="1075.79,-61.41 1066.51,-66.53 1076.95,-68.32 1075.79,-61.41"/>
</a>
</g>
</g>
<!-- Node14 -->
<g id="Node000014" class="node">
<title>Node14</title>
<g id="a_Node000014"><a xlink:href="caja-thumbnails_8c.html" target="_top" xlink:title=" ">
<polygon fill="white" stroke="#666666" points="1515,-24.5 1420,-24.5 1420,-5.5 1515,-5.5 1515,-24.5"/>
<text text-anchor="middle" x="1467.5" y="-12.5" font-family="Inter" font-size="10.00">caja&#45;thumbnails.c</text>
</a>
</g>
</g>
<!-- Node3&#45;&gt;Node14 -->
<g id="edge14_Node000003_Node000014" class="edge">
<title>Node3&#45;&gt;Node14</title>
<g id="a_edge14_Node000003_Node000014"><a xlink:title=" ">
<path fill="none" stroke="#63b8ff" d="M1076.64,-66.48C1077.94,-66.32 1079.23,-66.16 1080.5,-66 1227.37,-47.95 1265.82,-56.01 1411.5,-30 1419.69,-28.54 1428.45,-26.55 1436.56,-24.54"/>
<polygon fill="#63b8ff" stroke="#63b8ff" points="1076.02,-63.03 1066.55,-67.78 1076.91,-69.97 1076.02,-63.03"/>
</a>
</g>
</g>
<!-- Node15 -->
<g id="Node000015" class="node">
<title>Node15</title>
<g id="a_Node000015"><a xlink:href="caja-vfs-directory_8c.html" target="_top" xlink:title=" ">
<polygon fill="white" stroke="#666666" points="1635.5,-24.5 1533.5,-24.5 1533.5,-5.5 1635.5,-5.5 1635.5,-24.5"/>
<text text-anchor="middle" x="1584.5" y="-12.5" font-family="Inter" font-size="10.00">caja&#45;vfs&#45;directory.c</text>
</a>
</g>
</g>
<!-- Node3&#45;&gt;Node15 -->
<g id="edge15_Node000003_Node000015" class="edge">
<title>Node3&#45;&gt;Node15</title>
<g id="a_edge15_Node000003_Node000015"><a xlink:title=" ">
<path fill="none" stroke="#63b8ff" d="M1076.63,-66.43C1077.93,-66.28 1079.22,-66.14 1080.5,-66 1277.32,-44.55 1328.89,-60.58 1524.5,-30 1533.48,-28.6 1543.12,-26.58 1551.98,-24.52"/>
<polygon fill="#63b8ff" stroke="#63b8ff" points="1076.04,-62.98 1066.53,-67.65 1076.88,-69.93 1076.04,-62.98"/>
</a>
</g>
</g>
<!-- Node16 -->
<g id="Node000016" class="node">
<title>Node16</title>
<g id="a_Node000016"><a xlink:href="caja-vfs-file_8c.html" target="_top" xlink:title=" ">
<polygon fill="white" stroke="#666666" points="1729,-24.5 1654,-24.5 1654,-5.5 1729,-5.5 1729,-24.5"/>
<text text-anchor="middle" x="1691.5" y="-12.5" font-family="Inter" font-size="10.00">caja&#45;vfs&#45;file.c</text>
</a>
</g>
</g>
<!-- Node3&#45;&gt;Node16 -->
<g id="edge16_Node000003_Node000016" class="edge">
<title>Node3&#45;&gt;Node16</title>
<g id="a_edge16_Node000003_Node000016"><a xlink:title=" ">
<path fill="none" stroke="#63b8ff" d="M1076.63,-66.4C1077.93,-66.26 1079.22,-66.13 1080.5,-66 1330.42,-40.93 1397.23,-74.13 1644.5,-30 1651.71,-28.71 1659.38,-26.71 1666.38,-24.62"/>
<polygon fill="#63b8ff" stroke="#63b8ff" points="1076.06,-62.95 1066.52,-67.57 1076.86,-69.9 1076.06,-62.95"/>
</a>
</g>
</g>
<!-- Node3&#45;&gt;Node17 -->
<g id="edge17_Node000003_Node000017" class="edge">
<title>Node3&#45;&gt;Node17</title>
<g id="a_edge17_Node000003_Node000017"><a xlink:title=" ">
<path fill="none" stroke="#63b8ff" d="M1076.63,-66.37C1077.93,-66.24 1079.22,-66.12 1080.5,-66 1416.79,-35.03 1504.93,-75.95 1839.5,-30 1848.87,-28.71 1858.91,-26.68 1868.09,-24.57"/>
<polygon fill="#63b8ff" stroke="#63b8ff" points="1076.07,-62.91 1066.52,-67.49 1076.84,-69.87 1076.07,-62.91"/>
</a>
</g>
</g>
<!-- Node18 -->
<g id="Node000018" class="node">
<title>Node18</title>
<g id="a_Node000018"><a xlink:href="fm-tree-view_8c.html" target="_top" xlink:title=" ">
<polygon fill="white" stroke="#666666" points="1830,-24.5 1747,-24.5 1747,-5.5 1830,-5.5 1830,-24.5"/>
<text text-anchor="middle" x="1788.5" y="-12.5" font-family="Inter" font-size="10.00">fm&#45;tree&#45;view.c</text>
</a>
</g>
</g>
<!-- Node3&#45;&gt;Node18 -->
<g id="edge18_Node000003_Node000018" class="edge">
<title>Node3&#45;&gt;Node18</title>
<g id="a_edge18_Node000003_Node000018"><a xlink:title=" ">
<path fill="none" stroke="#63b8ff" d="M1076.63,-66.39C1077.93,-66.25 1079.22,-66.12 1080.5,-66 1372.05,-38.09 1449.54,-77.77 1738.5,-30 1746.33,-28.71 1754.68,-26.65 1762.27,-24.5"/>
<polygon fill="#63b8ff" stroke="#63b8ff" points="1076.07,-62.93 1066.52,-67.52 1076.85,-69.88 1076.07,-62.93"/>
</a>
</g>
</g>
</g>
</svg>

<g id="navigator" transform="translate(0 0)" fill="#404254">
  <rect fill="#f2f5e9" fill-opacity="0.5" stroke="#606060" stroke-width=".5" x="0" y="0" width="60" height="60"/>
  <use id="zoomplus" xlink:href="#zoomPlus" x="17" y="9" onmousedown="handleZoom(evt,'in')"/>
  <use id="zoomminus" xlink:href="#zoomMin" x="42" y="9" onmousedown="handleZoom(evt,'out')"/>
  <use id="reset" xlink:href="#resetDef" x="30" y="36" onmousedown="handleReset()"/>
   <use id="arrowup" xlink:href="#arrowUp" x="0" y="0" onmousedown="handlePan(0,-1)"/>
  <use id="arrowright" xlink:href="#arrowRight" x="0" y="0" onmousedown="handlePan(1,0)"/>
  <use id="arrowdown" xlink:href="#arrowDown" x="0" y="0" onmousedown="handlePan(0,1)"/>
  <use id="arrowleft" xlink:href="#arrowLeft" x="0" y="0" onmousedown="handlePan(-1,0)"/>
</g>
<svg viewBox="0 0 15 15" width="100%" height="30px" preserveAspectRatio="xMaxYMin meet">
 <g id="arrow_out" transform="scale(0.3 0.3)">
  <a xlink:href="caja-undostack-manager_8h__dep__incl_org.svg" target="_base">
   <rect id="button" ry="5" rx="5" y="6" x="6" height="38" width="38"
        fill="#f2f5e9" fill-opacity="0.5" stroke="#606060" stroke-width="1.0"/>
   <path id="arrow"
     d="M 11.500037,31.436501 C 11.940474,20.09759 22.043105,11.32322 32.158766,21.979434 L 37.068811,17.246167 C 37.068811,17.246167 37.088388,32 37.088388,32 L 22.160133,31.978069 C 22.160133,31.978069 26.997745,27.140456 26.997745,27.140456 C 18.528582,18.264221 13.291696,25.230495 11.500037,31.436501 z"
     style="fill:#404040;"/>
  </a>
 </g>
</svg>

<style type='text/css'>
<![CDATA[
[data-mouse-over-selected='false'] { opacity: 0.7; }
[data-mouse-over-selected='true']  { opacity: 1.0; }
]]>
</style>
<script type="application/ecmascript"><![CDATA[
document.addEventListener('DOMContentLoaded', (event) => {
  highlightEdges();
  highlightAdjacentNodes();
});
]]></script>
</svg>
