<?xml version="1.0" encoding="UTF-8" standalone="no"?>
<!DOCTYPE svg PUBLIC "-//W3C//DTD SVG 1.1//EN"
 "http://www.w3.org/Graphics/SVG/1.1/DTD/svg11.dtd">
<!-- Generated by graphviz version 2.43.0 (0)
 -->
<!-- Title: caja&#45;wallpaper&#45;extension.c Pages: 1 -->
<svg width="626pt" height="280pt"
 viewBox="0.00 0.00 625.50 280.00" xmlns="http://www.w3.org/2000/svg" xmlns:xlink="http://www.w3.org/1999/xlink">
<g id="graph0" class="graph" transform="scale(1 1) rotate(0) translate(4 276)">
<title>caja&#45;wallpaper&#45;extension.c</title>
<!-- Node1 -->
<g id="Node000001" class="node">
<title>Node1</title>
<g id="a_Node000001"><a xlink:title=" ">
<polygon fill="#999999" stroke="#666666" points="292.5,-272 155.5,-272 155.5,-253 292.5,-253 292.5,-272"/>
<text text-anchor="middle" x="224" y="-260" font-family="Inter" font-size="10.00">caja&#45;wallpaper&#45;extension.c</text>
</a>
</g>
</g>
<!-- Node2 -->
<g id="Node000002" class="node">
<title>Node2</title>
<g id="a_Node000002"><a xlink:title=" ">
<polygon fill="#e0e0e0" stroke="#999999" points="86,-211.5 0,-211.5 0,-192.5 86,-192.5 86,-211.5"/>
<text text-anchor="middle" x="43" y="-199.5" font-family="Inter" font-size="10.00">glib/gi18n&#45;lib.h</text>
</a>
</g>
</g>
<!-- Node1&#45;&gt;Node2 -->
<g id="edge1_Node000001_Node000002" class="edge">
<title>Node1&#45;&gt;Node2</title>
<g id="a_edge1_Node000001_Node000002"><a xlink:title=" ">
<path fill="none" stroke="#63b8ff" d="M197.68,-252.99C166.45,-242.9 114.2,-226.01 79.18,-214.69"/>
<polygon fill="#63b8ff" stroke="#63b8ff" points="79.94,-211.26 69.35,-211.52 77.79,-217.92 79.94,-211.26"/>
</a>
</g>
</g>
<!-- Node3 -->
<g id="Node000003" class="node">
<title>Node3</title>
<g id="a_Node000003"><a xlink:title=" ">
<polygon fill="#e0e0e0" stroke="#999999" points="157.5,-211.5 104.5,-211.5 104.5,-192.5 157.5,-192.5 157.5,-211.5"/>
<text text-anchor="middle" x="131" y="-199.5" font-family="Inter" font-size="10.00">string.h</text>
</a>
</g>
</g>
<!-- Node1&#45;&gt;Node3 -->
<g id="edge2_Node000001_Node000003" class="edge">
<title>Node1&#45;&gt;Node3</title>
<g id="a_edge2_Node000001_Node000003"><a xlink:title=" ">
<path fill="none" stroke="#63b8ff" d="M210.28,-252.87C195.3,-243.45 171.11,-228.23 153.38,-217.08"/>
<polygon fill="#63b8ff" stroke="#63b8ff" points="155.11,-214.03 144.78,-211.67 151.38,-219.95 155.11,-214.03"/>
</a>
</g>
</g>
<!-- Node4 -->
<g id="Node000004" class="node">
<title>Node4</title>
<g id="a_Node000004"><a xlink:title=" ">
<polygon fill="#e0e0e0" stroke="#999999" points="232,-79.5 174,-79.5 174,-60.5 232,-60.5 232,-79.5"/>
<text text-anchor="middle" x="203" y="-67.5" font-family="Inter" font-size="10.00">gio/gio.h</text>
</a>
</g>
</g>
<!-- Node1&#45;&gt;Node4 -->
<g id="edge3_Node000001_Node000004" class="edge">
<title>Node1&#45;&gt;Node4</title>
<g id="a_edge3_Node000001_Node000004"><a xlink:title=" ">
<path fill="none" stroke="#63b8ff" d="M223.04,-252.82C219.85,-223.87 209.53,-130.2 205.07,-89.82"/>
<polygon fill="#63b8ff" stroke="#63b8ff" points="208.54,-89.29 203.96,-79.73 201.58,-90.05 208.54,-89.29"/>
</a>
</g>
</g>
<!-- Node5 -->
<g id="Node000005" class="node">
<title>Node5</title>
<g id="a_Node000005"><a xlink:href="caja-extension-types_8h.html" target="_top" xlink:title=" ">
<polygon fill="white" stroke="#666666" points="460.5,-85 347.5,-85 347.5,-55 460.5,-55 460.5,-85"/>
<text text-anchor="start" x="355.5" y="-73" font-family="Inter" font-size="10.00">libcaja&#45;extension/caja</text>
<text text-anchor="middle" x="404" y="-62" font-family="Inter" font-size="10.00">&#45;extension&#45;types.h</text>
</a>
</g>
</g>
<!-- Node1&#45;&gt;Node5 -->
<g id="edge4_Node000001_Node000005" class="edge">
<title>Node1&#45;&gt;Node5</title>
<g id="a_edge4_Node000001_Node000005"><a xlink:title=" ">
<path fill="none" stroke="#63b8ff" d="M292.79,-253.4C352.57,-242.09 434.39,-215.1 466,-151 471.9,-139.04 471.75,-133.03 466,-121 460.21,-108.89 449.9,-98.78 439.33,-90.89"/>
<polygon fill="#63b8ff" stroke="#63b8ff" points="441.09,-87.85 430.87,-85.04 437.11,-93.61 441.09,-87.85"/>
</a>
</g>
</g>
<!-- Node7 -->
<g id="Node000007" class="node">
<title>Node7</title>
<g id="a_Node000007"><a xlink:href="caja-file-info_8h.html" target="_top" xlink:title=" ">
<polygon fill="white" stroke="#666666" points="195.5,-151 82.5,-151 82.5,-121 195.5,-121 195.5,-151"/>
<text text-anchor="start" x="90.5" y="-139" font-family="Inter" font-size="10.00">libcaja&#45;extension/caja</text>
<text text-anchor="middle" x="139" y="-128" font-family="Inter" font-size="10.00">&#45;file&#45;info.h</text>
</a>
</g>
</g>
<!-- Node1&#45;&gt;Node7 -->
<g id="edge6_Node000001_Node000007" class="edge">
<title>Node1&#45;&gt;Node7</title>
<g id="a_edge6_Node000001_Node000007"><a xlink:title=" ">
<path fill="none" stroke="#63b8ff" d="M218.16,-252.94C205.16,-233.91 173.5,-187.53 154.39,-159.54"/>
<polygon fill="#63b8ff" stroke="#63b8ff" points="157.2,-157.45 148.67,-151.16 151.42,-161.39 157.2,-157.45"/>
</a>
</g>
</g>
<!-- Node8 -->
<g id="Node000008" class="node">
<title>Node8</title>
<g id="a_Node000008"><a xlink:href="caja-menu-provider_8h.html" target="_top" xlink:title=" ">
<polygon fill="white" stroke="#666666" points="371.5,-217 258.5,-217 258.5,-187 371.5,-187 371.5,-217"/>
<text text-anchor="start" x="266.5" y="-205" font-family="Inter" font-size="10.00">libcaja&#45;extension/caja</text>
<text text-anchor="middle" x="315" y="-194" font-family="Inter" font-size="10.00">&#45;menu&#45;provider.h</text>
</a>
</g>
</g>
<!-- Node1&#45;&gt;Node8 -->
<g id="edge9_Node000001_Node000008" class="edge">
<title>Node1&#45;&gt;Node8</title>
<g id="a_edge9_Node000001_Node000008"><a xlink:title=" ">
<path fill="none" stroke="#63b8ff" d="M237.43,-252.87C249.77,-244.93 268.53,-232.87 284.51,-222.6"/>
<polygon fill="#63b8ff" stroke="#63b8ff" points="286.52,-225.47 293.04,-217.11 282.74,-219.58 286.52,-225.47"/>
</a>
</g>
</g>
<!-- Node11 -->
<g id="Node000011" class="node">
<title>Node11</title>
<g id="a_Node000011"><a xlink:href="caja-wallpaper-extension_8h.html" target="_top" xlink:title=" ">
<polygon fill="white" stroke="#666666" points="617.5,-79.5 478.5,-79.5 478.5,-60.5 617.5,-60.5 617.5,-79.5"/>
<text text-anchor="middle" x="548" y="-67.5" font-family="Inter" font-size="10.00">caja&#45;wallpaper&#45;extension.h</text>
</a>
</g>
</g>
<!-- Node1&#45;&gt;Node11 -->
<g id="edge17_Node000001_Node000011" class="edge">
<title>Node1&#45;&gt;Node11</title>
<g id="a_edge17_Node000001_Node000011"><a xlink:title=" ">
<path fill="none" stroke="#63b8ff" d="M292.88,-258.66C335.92,-254.15 390.95,-243.17 433,-217 484.93,-184.68 523.01,-120.17 539.28,-88.86"/>
<polygon fill="#63b8ff" stroke="#63b8ff" points="542.57,-90.12 543.95,-79.61 536.32,-86.96 542.57,-90.12"/>
</a>
</g>
</g>
<!-- Node6 -->
<g id="Node000006" class="node">
<title>Node6</title>
<g id="a_Node000006"><a xlink:title=" ">
<polygon fill="#e0e0e0" stroke="#999999" points="356,-19 282,-19 282,0 356,0 356,-19"/>
<text text-anchor="middle" x="319" y="-7" font-family="Inter" font-size="10.00">glib&#45;object.h</text>
</a>
</g>
</g>
<!-- Node5&#45;&gt;Node6 -->
<g id="edge5_Node000005_Node000006" class="edge">
<title>Node5&#45;&gt;Node6</title>
<g id="a_edge5_Node000005_Node000006"><a xlink:title=" ">
<path fill="none" stroke="#63b8ff" d="M383.42,-54.84C370.33,-45.83 353.41,-34.18 340.2,-25.09"/>
<polygon fill="#63b8ff" stroke="#63b8ff" points="341.96,-22.05 331.74,-19.27 337.99,-27.82 341.96,-22.05"/>
</a>
</g>
</g>
<!-- Node7&#45;&gt;Node4 -->
<g id="edge8_Node000007_Node000004" class="edge">
<title>Node7&#45;&gt;Node4</title>
<g id="a_edge8_Node000007_Node000004"><a xlink:title=" ">
<path fill="none" stroke="#63b8ff" d="M153.2,-120.8C163.18,-110.82 176.54,-97.46 186.91,-87.09"/>
<polygon fill="#63b8ff" stroke="#63b8ff" points="189.56,-89.39 194.16,-79.84 184.61,-84.44 189.56,-89.39"/>
</a>
</g>
</g>
<!-- Node7&#45;&gt;Node6 -->
<g id="edge7_Node000007_Node000006" class="edge">
<title>Node7&#45;&gt;Node6</title>
<g id="a_edge7_Node000007_Node000006"><a xlink:title=" ">
<path fill="none" stroke="#63b8ff" d="M139.7,-120.76C141.35,-102.93 146.84,-72.57 165,-55 193.46,-27.47 237.85,-16.79 271.68,-12.74"/>
<polygon fill="#63b8ff" stroke="#63b8ff" points="272.22,-16.2 281.81,-11.69 271.5,-9.24 272.22,-16.2"/>
</a>
</g>
</g>
<!-- Node8&#45;&gt;Node5 -->
<g id="edge12_Node000008_Node000005" class="edge">
<title>Node8&#45;&gt;Node5</title>
<g id="a_edge12_Node000008_Node000005"><a xlink:title=" ">
<path fill="none" stroke="#63b8ff" d="M371.54,-195.12C400.07,-188.96 432.3,-176.44 450,-151 463.33,-131.84 446.59,-108.58 429.69,-92.09"/>
<polygon fill="#63b8ff" stroke="#63b8ff" points="431.75,-89.23 422.02,-85.03 427.01,-94.38 431.75,-89.23"/>
</a>
</g>
</g>
<!-- Node8&#45;&gt;Node6 -->
<g id="edge10_Node000008_Node000006" class="edge">
<title>Node8&#45;&gt;Node6</title>
<g id="a_edge10_Node000008_Node000006"><a xlink:title=" ">
<path fill="none" stroke="#63b8ff" d="M302.01,-186.92C294.26,-177.51 285.14,-164.44 281,-151 267.43,-106.91 292.54,-54.24 308.07,-27.66"/>
<polygon fill="#63b8ff" stroke="#63b8ff" points="311.06,-29.48 313.26,-19.11 305.08,-25.84 311.06,-29.48"/>
</a>
</g>
</g>
<!-- Node8&#45;&gt;Node7 -->
<g id="edge13_Node000008_Node000007" class="edge">
<title>Node8&#45;&gt;Node7</title>
<g id="a_edge13_Node000008_Node000007"><a xlink:title=" ">
<path fill="none" stroke="#63b8ff" d="M276.38,-186.95C250.13,-177.41 215.21,-164.71 187.15,-154.51"/>
<polygon fill="#63b8ff" stroke="#63b8ff" points="188.13,-151.14 177.53,-151.01 185.74,-157.72 188.13,-151.14"/>
</a>
</g>
</g>
<!-- Node9 -->
<g id="Node000009" class="node">
<title>Node9</title>
<g id="a_Node000009"><a xlink:title=" ">
<polygon fill="#e0e0e0" stroke="#999999" points="349.5,-145.5 290.5,-145.5 290.5,-126.5 349.5,-126.5 349.5,-145.5"/>
<text text-anchor="middle" x="320" y="-133.5" font-family="Inter" font-size="10.00">gtk/gtk.h</text>
</a>
</g>
</g>
<!-- Node8&#45;&gt;Node9 -->
<g id="edge11_Node000008_Node000009" class="edge">
<title>Node8&#45;&gt;Node9</title>
<g id="a_edge11_Node000008_Node000009"><a xlink:title=" ">
<path fill="none" stroke="#63b8ff" d="M316.11,-186.8C316.82,-177.7 317.75,-165.79 318.52,-155.9"/>
<polygon fill="#63b8ff" stroke="#63b8ff" points="322.02,-156.09 319.31,-145.84 315.04,-155.54 322.02,-156.09"/>
</a>
</g>
</g>
<!-- Node10 -->
<g id="Node000010" class="node">
<title>Node10</title>
<g id="a_Node000010"><a xlink:href="caja-menu_8h.html" target="_top" xlink:title=" ">
<polygon fill="white" stroke="#666666" points="440.5,-145.5 367.5,-145.5 367.5,-126.5 440.5,-126.5 440.5,-145.5"/>
<text text-anchor="middle" x="404" y="-133.5" font-family="Inter" font-size="10.00">caja&#45;menu.h</text>
</a>
</g>
</g>
<!-- Node8&#45;&gt;Node10 -->
<g id="edge14_Node000008_Node000010" class="edge">
<title>Node8&#45;&gt;Node10</title>
<g id="a_edge14_Node000008_Node000010"><a xlink:title=" ">
<path fill="none" stroke="#63b8ff" d="M334.75,-186.8C349.26,-176.37 368.9,-162.24 383.56,-151.69"/>
<polygon fill="#63b8ff" stroke="#63b8ff" points="385.88,-154.34 391.96,-145.66 381.8,-148.66 385.88,-154.34"/>
</a>
</g>
</g>
<!-- Node10&#45;&gt;Node5 -->
<g id="edge16_Node000010_Node000005" class="edge">
<title>Node10&#45;&gt;Node5</title>
<g id="a_edge16_Node000010_Node000005"><a xlink:title=" ">
<path fill="none" stroke="#63b8ff" d="M404,-126.37C404,-118.49 404,-106.45 404,-95.6"/>
<polygon fill="#63b8ff" stroke="#63b8ff" points="407.5,-95.36 404,-85.36 400.5,-95.36 407.5,-95.36"/>
</a>
</g>
</g>
<!-- Node10&#45;&gt;Node6 -->
<g id="edge15_Node000010_Node000006" class="edge">
<title>Node10&#45;&gt;Node6</title>
<g id="a_edge15_Node000010_Node000006"><a xlink:title=" ">
<path fill="none" stroke="#63b8ff" d="M387.04,-126.46C371.92,-117.98 350.32,-103.56 338,-85 326.83,-68.18 322.23,-45.22 320.33,-29.25"/>
<polygon fill="#63b8ff" stroke="#63b8ff" points="323.79,-28.68 319.37,-19.05 316.82,-29.34 323.79,-28.68"/>
</a>
</g>
</g>
<!-- Node11&#45;&gt;Node6 -->
<g id="edge18_Node000011_Node000006" class="edge">
<title>Node11&#45;&gt;Node6</title>
<g id="a_edge18_Node000011_Node000006"><a xlink:title=" ">
<path fill="none" stroke="#63b8ff" d="M514.7,-60.49C474.42,-50.2 406.52,-32.86 362.23,-21.54"/>
<polygon fill="#63b8ff" stroke="#63b8ff" points="362.89,-18.1 352.34,-19.02 361.16,-24.88 362.89,-18.1"/>
</a>
</g>
</g>
</g>
</svg>
