<?xml version="1.0" encoding="UTF-8" standalone="no"?>
<!DOCTYPE svg PUBLIC "-//W3C//DTD SVG 1.1//EN"
 "http://www.w3.org/Graphics/SVG/1.1/DTD/svg11.dtd">
<!-- Generated by graphviz version 2.43.0 (0)
 -->
<!-- Title: caja&#45;file&#45;info.c Pages: 1 -->
<svg width="246pt" height="192pt"
 viewBox="0.00 0.00 245.50 192.00" xmlns="http://www.w3.org/2000/svg" xmlns:xlink="http://www.w3.org/1999/xlink">
<g id="graph0" class="graph" transform="scale(1 1) rotate(0) translate(4 188)">
<title>caja&#45;file&#45;info.c</title>
<!-- Node1 -->
<g id="Node000001" class="node">
<title>Node1</title>
<g id="a_Node000001"><a xlink:title=" ">
<polygon fill="#999999" stroke="#666666" points="122,-184 42,-184 42,-165 122,-165 122,-184"/>
<text text-anchor="middle" x="82" y="-172" font-family="Inter" font-size="10.00">caja&#45;file&#45;info.c</text>
</a>
</g>
</g>
<!-- Node2 -->
<g id="Node000002" class="node">
<title>Node2</title>
<g id="a_Node000002"><a xlink:title=" ">
<polygon fill="#e0e0e0" stroke="#999999" points="54,-129 0,-129 0,-110 54,-110 54,-129"/>
<text text-anchor="middle" x="27" y="-117" font-family="Inter" font-size="10.00">config.h</text>
</a>
</g>
</g>
<!-- Node1&#45;&gt;Node2 -->
<g id="edge1_Node000001_Node000002" class="edge">
<title>Node1&#45;&gt;Node2</title>
<g id="a_edge1_Node000001_Node000002"><a xlink:title=" ">
<path fill="none" stroke="#63b8ff" d="M72.92,-164.75C64.91,-157.03 53.04,-145.6 43.38,-136.28"/>
<polygon fill="#63b8ff" stroke="#63b8ff" points="45.54,-133.51 35.91,-129.09 40.69,-138.55 45.54,-133.51"/>
</a>
</g>
</g>
<!-- Node3 -->
<g id="Node000003" class="node">
<title>Node3</title>
<g id="a_Node000003"><a xlink:href="caja-file-info_8h.html" target="_top" xlink:title=" ">
<polygon fill="white" stroke="#666666" points="168.5,-74 87.5,-74 87.5,-55 168.5,-55 168.5,-74"/>
<text text-anchor="middle" x="128" y="-62" font-family="Inter" font-size="10.00">caja&#45;file&#45;info.h</text>
</a>
</g>
</g>
<!-- Node1&#45;&gt;Node3 -->
<g id="edge2_Node000001_Node000003" class="edge">
<title>Node1&#45;&gt;Node3</title>
<g id="a_edge2_Node000001_Node000003"><a xlink:title=" ">
<path fill="none" stroke="#63b8ff" d="M84.12,-164.65C87.25,-152.16 93.67,-128.81 102,-110 106.17,-100.59 111.84,-90.66 116.82,-82.57"/>
<polygon fill="#63b8ff" stroke="#63b8ff" points="119.82,-84.38 122.22,-74.06 113.91,-80.62 119.82,-84.38"/>
</a>
</g>
</g>
<!-- Node6 -->
<g id="Node000006" class="node">
<title>Node6</title>
<g id="a_Node000006"><a xlink:href="caja-extension-private_8h.html" target="_top" xlink:title=" ">
<polygon fill="white" stroke="#666666" points="237.5,-129 110.5,-129 110.5,-110 237.5,-110 237.5,-129"/>
<text text-anchor="middle" x="174" y="-117" font-family="Inter" font-size="10.00">caja&#45;extension&#45;private.h</text>
</a>
</g>
</g>
<!-- Node1&#45;&gt;Node6 -->
<g id="edge5_Node000001_Node000006" class="edge">
<title>Node1&#45;&gt;Node6</title>
<g id="a_edge5_Node000001_Node000006"><a xlink:title=" ">
<path fill="none" stroke="#63b8ff" d="M96.78,-164.98C111.18,-156.69 133.31,-143.94 150.19,-134.22"/>
<polygon fill="#63b8ff" stroke="#63b8ff" points="152.03,-137.19 158.95,-129.17 148.54,-131.13 152.03,-137.19"/>
</a>
</g>
</g>
<!-- Node4 -->
<g id="Node000004" class="node">
<title>Node4</title>
<g id="a_Node000004"><a xlink:title=" ">
<polygon fill="#e0e0e0" stroke="#999999" points="123,-19 49,-19 49,0 123,0 123,-19"/>
<text text-anchor="middle" x="86" y="-7" font-family="Inter" font-size="10.00">glib&#45;object.h</text>
</a>
</g>
</g>
<!-- Node3&#45;&gt;Node4 -->
<g id="edge3_Node000003_Node000004" class="edge">
<title>Node3&#45;&gt;Node4</title>
<g id="a_edge3_Node000003_Node000004"><a xlink:title=" ">
<path fill="none" stroke="#63b8ff" d="M121.06,-54.75C115.13,-47.26 106.43,-36.28 99.18,-27.13"/>
<polygon fill="#63b8ff" stroke="#63b8ff" points="101.76,-24.75 92.81,-19.09 96.27,-29.1 101.76,-24.75"/>
</a>
</g>
</g>
<!-- Node5 -->
<g id="Node000005" class="node">
<title>Node5</title>
<g id="a_Node000005"><a xlink:title=" ">
<polygon fill="#e0e0e0" stroke="#999999" points="199,-19 141,-19 141,0 199,0 199,-19"/>
<text text-anchor="middle" x="170" y="-7" font-family="Inter" font-size="10.00">gio/gio.h</text>
</a>
</g>
</g>
<!-- Node3&#45;&gt;Node5 -->
<g id="edge4_Node000003_Node000005" class="edge">
<title>Node3&#45;&gt;Node5</title>
<g id="a_edge4_Node000003_Node000005"><a xlink:title=" ">
<path fill="none" stroke="#63b8ff" d="M134.94,-54.75C140.87,-47.26 149.57,-36.28 156.82,-27.13"/>
<polygon fill="#63b8ff" stroke="#63b8ff" points="159.73,-29.1 163.19,-19.09 154.24,-24.75 159.73,-29.1"/>
</a>
</g>
</g>
<!-- Node6&#45;&gt;Node3 -->
<g id="edge6_Node000006_Node000003" class="edge">
<title>Node6&#45;&gt;Node3</title>
<g id="a_edge6_Node000006_Node000003"><a xlink:title=" ">
<path fill="none" stroke="#63b8ff" d="M166.4,-109.75C159.84,-102.18 150.18,-91.05 142.19,-81.84"/>
<polygon fill="#63b8ff" stroke="#63b8ff" points="144.65,-79.35 135.45,-74.09 139.37,-83.94 144.65,-79.35"/>
</a>
</g>
</g>
</g>
</svg>
