<?xml version="1.0" encoding="UTF-8" standalone="no"?>
<!DOCTYPE svg PUBLIC "-//W3C//DTD SVG 1.1//EN"
 "http://www.w3.org/Graphics/SVG/1.1/DTD/svg11.dtd">
<!-- Generated by graphviz version 2.43.0 (0)
 -->
<!-- Title: caja&#45;menu&#45;provider.h Pages: 1 -->
<svg width="302pt" height="192pt"
 viewBox="0.00 0.00 302.20 192.00" xmlns="http://www.w3.org/2000/svg" xmlns:xlink="http://www.w3.org/1999/xlink">
<g id="graph0" class="graph" transform="scale(1 1) rotate(0) translate(4 188)">
<title>caja&#45;menu&#45;provider.h</title>
<!-- Node1 -->
<g id="Node000001" class="node">
<title>Node1</title>
<g id="a_Node000001"><a xlink:title=" ">
<polygon fill="#999999" stroke="#666666" points="198,-184 85,-184 85,-165 198,-165 198,-184"/>
<text text-anchor="middle" x="141.5" y="-172" font-family="Inter" font-size="10.00">caja&#45;menu&#45;provider.h</text>
</a>
</g>
</g>
<!-- Node2 -->
<g id="Node000002" class="node">
<title>Node2</title>
<g id="a_Node000002"><a xlink:title=" ">
<polygon fill="#e0e0e0" stroke="#999999" points="241.5,-19 167.5,-19 167.5,0 241.5,0 241.5,-19"/>
<text text-anchor="middle" x="204.5" y="-7" font-family="Inter" font-size="10.00">glib&#45;object.h</text>
</a>
</g>
</g>
<!-- Node1&#45;&gt;Node2 -->
<g id="edge1_Node000001_Node000002" class="edge">
<title>Node1&#45;&gt;Node2</title>
<g id="a_edge1_Node000001_Node000002"><a xlink:title=" ">
<path fill="none" stroke="#63b8ff" d="M198.24,-171.68C229.65,-167.4 266.31,-156.32 286.5,-129 313.69,-92.22 260.23,-47.54 227.44,-25"/>
<polygon fill="#63b8ff" stroke="#63b8ff" points="229.09,-21.89 218.82,-19.25 225.2,-27.71 229.09,-21.89"/>
</a>
</g>
</g>
<!-- Node3 -->
<g id="Node000003" class="node">
<title>Node3</title>
<g id="a_Node000003"><a xlink:title=" ">
<polygon fill="#e0e0e0" stroke="#999999" points="87,-129 28,-129 28,-110 87,-110 87,-129"/>
<text text-anchor="middle" x="57.5" y="-117" font-family="Inter" font-size="10.00">gtk/gtk.h</text>
</a>
</g>
</g>
<!-- Node1&#45;&gt;Node3 -->
<g id="edge2_Node000001_Node000003" class="edge">
<title>Node1&#45;&gt;Node3</title>
<g id="a_edge2_Node000001_Node000003"><a xlink:title=" ">
<path fill="none" stroke="#63b8ff" d="M128,-164.98C115.1,-156.84 95.4,-144.41 80.1,-134.76"/>
<polygon fill="#63b8ff" stroke="#63b8ff" points="81.57,-131.55 71.24,-129.17 77.83,-137.47 81.57,-131.55"/>
</a>
</g>
</g>
<!-- Node4 -->
<g id="Node000004" class="node">
<title>Node4</title>
<g id="a_Node000004"><a xlink:href="caja-extension-types_8h.html" target="_top" xlink:title=" ">
<polygon fill="white" stroke="#666666" points="119,-74 0,-74 0,-55 119,-55 119,-74"/>
<text text-anchor="middle" x="59.5" y="-62" font-family="Inter" font-size="10.00">caja&#45;extension&#45;types.h</text>
</a>
</g>
</g>
<!-- Node1&#45;&gt;Node4 -->
<g id="edge3_Node000001_Node000004" class="edge">
<title>Node1&#45;&gt;Node4</title>
<g id="a_edge3_Node000001_Node000004"><a xlink:title=" ">
<path fill="none" stroke="#63b8ff" d="M84.95,-167.48C60.3,-161.72 33.63,-150.56 18.5,-129 7.12,-112.78 23.44,-93.59 38.73,-80.59"/>
<polygon fill="#63b8ff" stroke="#63b8ff" points="41.29,-83.02 46.94,-74.06 36.94,-77.55 41.29,-83.02"/>
</a>
</g>
</g>
<!-- Node5 -->
<g id="Node000005" class="node">
<title>Node5</title>
<g id="a_Node000005"><a xlink:href="caja-file-info_8h.html" target="_top" xlink:title=" ">
<polygon fill="white" stroke="#666666" points="277,-129 196,-129 196,-110 277,-110 277,-129"/>
<text text-anchor="middle" x="236.5" y="-117" font-family="Inter" font-size="10.00">caja&#45;file&#45;info.h</text>
</a>
</g>
</g>
<!-- Node1&#45;&gt;Node5 -->
<g id="edge5_Node000001_Node000005" class="edge">
<title>Node1&#45;&gt;Node5</title>
<g id="a_edge5_Node000001_Node000005"><a xlink:title=" ">
<path fill="none" stroke="#63b8ff" d="M156.76,-164.98C171.63,-156.69 194.48,-143.94 211.92,-134.22"/>
<polygon fill="#63b8ff" stroke="#63b8ff" points="213.93,-137.1 220.96,-129.17 210.52,-130.99 213.93,-137.1"/>
</a>
</g>
</g>
<!-- Node7 -->
<g id="Node000007" class="node">
<title>Node7</title>
<g id="a_Node000007"><a xlink:href="caja-menu_8h.html" target="_top" xlink:title=" ">
<polygon fill="white" stroke="#666666" points="178,-129 105,-129 105,-110 178,-110 178,-129"/>
<text text-anchor="middle" x="141.5" y="-117" font-family="Inter" font-size="10.00">caja&#45;menu.h</text>
</a>
</g>
</g>
<!-- Node1&#45;&gt;Node7 -->
<g id="edge8_Node000001_Node000007" class="edge">
<title>Node1&#45;&gt;Node7</title>
<g id="a_edge8_Node000001_Node000007"><a xlink:title=" ">
<path fill="none" stroke="#63b8ff" d="M141.5,-164.75C141.5,-157.8 141.5,-147.85 141.5,-139.13"/>
<polygon fill="#63b8ff" stroke="#63b8ff" points="145,-139.09 141.5,-129.09 138,-139.09 145,-139.09"/>
</a>
</g>
</g>
<!-- Node4&#45;&gt;Node2 -->
<g id="edge4_Node000004_Node000002" class="edge">
<title>Node4&#45;&gt;Node2</title>
<g id="a_edge4_Node000004_Node000002"><a xlink:title=" ">
<path fill="none" stroke="#63b8ff" d="M82.8,-54.98C106.75,-46.23 144.28,-32.51 171.33,-22.62"/>
<polygon fill="#63b8ff" stroke="#63b8ff" points="172.59,-25.89 180.78,-19.17 170.19,-19.32 172.59,-25.89"/>
</a>
</g>
</g>
<!-- Node5&#45;&gt;Node2 -->
<g id="edge6_Node000005_Node000002" class="edge">
<title>Node5&#45;&gt;Node2</title>
<g id="a_edge6_Node000005_Node000002"><a xlink:title=" ">
<path fill="none" stroke="#63b8ff" d="M239.6,-109.98C243.63,-97.5 249.4,-73.7 242.5,-55 238.44,-43.99 230.31,-33.86 222.6,-26.05"/>
<polygon fill="#63b8ff" stroke="#63b8ff" points="224.89,-23.39 215.21,-19.07 220.08,-28.48 224.89,-23.39"/>
</a>
</g>
</g>
<!-- Node6 -->
<g id="Node000006" class="node">
<title>Node6</title>
<g id="a_Node000006"><a xlink:title=" ">
<polygon fill="#e0e0e0" stroke="#999999" points="233.5,-74 175.5,-74 175.5,-55 233.5,-55 233.5,-74"/>
<text text-anchor="middle" x="204.5" y="-62" font-family="Inter" font-size="10.00">gio/gio.h</text>
</a>
</g>
</g>
<!-- Node5&#45;&gt;Node6 -->
<g id="edge7_Node000005_Node000006" class="edge">
<title>Node5&#45;&gt;Node6</title>
<g id="a_edge7_Node000005_Node000006"><a xlink:title=" ">
<path fill="none" stroke="#63b8ff" d="M231.22,-109.75C226.79,-102.42 220.34,-91.73 214.88,-82.7"/>
<polygon fill="#63b8ff" stroke="#63b8ff" points="217.85,-80.84 209.69,-74.09 211.86,-84.46 217.85,-80.84"/>
</a>
</g>
</g>
<!-- Node7&#45;&gt;Node2 -->
<g id="edge9_Node000007_Node000002" class="edge">
<title>Node7&#45;&gt;Node2</title>
<g id="a_edge9_Node000007_Node000002"><a xlink:title=" ">
<path fill="none" stroke="#63b8ff" d="M143.9,-109.87C147.62,-97.25 155.52,-73.28 166.5,-55 172.7,-44.68 181.3,-34.38 188.75,-26.29"/>
<polygon fill="#63b8ff" stroke="#63b8ff" points="191.32,-28.67 195.69,-19.02 186.26,-23.84 191.32,-28.67"/>
</a>
</g>
</g>
<!-- Node7&#45;&gt;Node4 -->
<g id="edge10_Node000007_Node000004" class="edge">
<title>Node7&#45;&gt;Node4</title>
<g id="a_edge10_Node000007_Node000004"><a xlink:title=" ">
<path fill="none" stroke="#63b8ff" d="M128.33,-109.98C115.73,-101.84 96.5,-89.41 81.56,-79.76"/>
<polygon fill="#63b8ff" stroke="#63b8ff" points="83.21,-76.66 72.91,-74.17 79.41,-82.54 83.21,-76.66"/>
</a>
</g>
</g>
</g>
</svg>
