<?xml version="1.0" encoding="UTF-8" standalone="no"?>
<!DOCTYPE svg PUBLIC "-//W3C//DTD SVG 1.1//EN"
 "http://www.w3.org/Graphics/SVG/1.1/DTD/svg11.dtd">
<!-- Generated by graphviz version 2.43.0 (0)
 -->
<!-- Title: caja&#45;view&#45;factory.h Pages: 1 -->
<svg width="341pt" height="302pt"
 viewBox="0.00 0.00 341.00 302.00" xmlns="http://www.w3.org/2000/svg" xmlns:xlink="http://www.w3.org/1999/xlink">
<g id="graph0" class="graph" transform="scale(1 1) rotate(0) translate(4 298)">
<title>caja&#45;view&#45;factory.h</title>
<!-- Node1 -->
<g id="Node000001" class="node">
<title>Node1</title>
<g id="a_Node000001"><a xlink:title=" ">
<polygon fill="#999999" stroke="#666666" points="151,-294 50,-294 50,-275 151,-275 151,-294"/>
<text text-anchor="middle" x="100.5" y="-282" font-family="Inter" font-size="10.00">caja&#45;view&#45;factory.h</text>
</a>
</g>
</g>
<!-- Node2 -->
<g id="Node000002" class="node">
<title>Node2</title>
<g id="a_Node000002"><a xlink:title=" ">
<polygon fill="#e0e0e0" stroke="#999999" points="53,-239 0,-239 0,-220 53,-220 53,-239"/>
<text text-anchor="middle" x="26.5" y="-227" font-family="Inter" font-size="10.00">string.h</text>
</a>
</g>
</g>
<!-- Node1&#45;&gt;Node2 -->
<g id="edge1_Node000001_Node000002" class="edge">
<title>Node1&#45;&gt;Node2</title>
<g id="a_edge1_Node000001_Node000002"><a xlink:title=" ">
<path fill="none" stroke="#63b8ff" d="M88.61,-274.98C77.35,-266.92 60.21,-254.65 46.79,-245.03"/>
<polygon fill="#63b8ff" stroke="#63b8ff" points="48.77,-242.15 38.61,-239.17 44.7,-247.84 48.77,-242.15"/>
</a>
</g>
</g>
<!-- Node3 -->
<g id="Node000003" class="node">
<title>Node3</title>
<g id="a_Node000003"><a xlink:title=" ">
<polygon fill="#e0e0e0" stroke="#999999" points="139.5,-19 81.5,-19 81.5,0 139.5,0 139.5,-19"/>
<text text-anchor="middle" x="110.5" y="-7" font-family="Inter" font-size="10.00">gio/gio.h</text>
</a>
</g>
</g>
<!-- Node1&#45;&gt;Node3 -->
<g id="edge2_Node000001_Node000003" class="edge">
<title>Node1&#45;&gt;Node3</title>
<g id="a_edge2_Node000001_Node000003"><a xlink:title=" ">
<path fill="none" stroke="#63b8ff" d="M97.94,-274.91C92.75,-256.74 81.5,-213 81.5,-175.5 81.5,-175.5 81.5,-175.5 81.5,-118.5 81.5,-85.95 93.94,-49.71 102.53,-28.57"/>
<polygon fill="#63b8ff" stroke="#63b8ff" points="105.8,-29.82 106.47,-19.25 99.35,-27.09 105.8,-29.82"/>
</a>
</g>
</g>
<!-- Node4 -->
<g id="Node000004" class="node">
<title>Node4</title>
<g id="a_Node000004"><a xlink:href="caja-view_8h.html" target="_top" xlink:title=" ">
<polygon fill="white" stroke="#666666" points="224.5,-129 158.5,-129 158.5,-110 224.5,-110 224.5,-129"/>
<text text-anchor="middle" x="191.5" y="-117" font-family="Inter" font-size="10.00">caja&#45;view.h</text>
</a>
</g>
</g>
<!-- Node1&#45;&gt;Node4 -->
<g id="edge3_Node000001_Node000004" class="edge">
<title>Node1&#45;&gt;Node4</title>
<g id="a_edge3_Node000001_Node000004"><a xlink:title=" ">
<path fill="none" stroke="#63b8ff" d="M105.39,-274.74C119.77,-248.98 162.12,-173.13 181.55,-138.33"/>
<polygon fill="#63b8ff" stroke="#63b8ff" points="184.76,-139.74 186.58,-129.31 178.65,-136.33 184.76,-139.74"/>
</a>
</g>
</g>
<!-- Node10 -->
<g id="Node000010" class="node">
<title>Node10</title>
<g id="a_Node000010"><a xlink:href="caja-window-slot-info_8h.html" target="_top" xlink:title=" ">
<polygon fill="white" stroke="#666666" points="269.5,-239 147.5,-239 147.5,-220 269.5,-220 269.5,-239"/>
<text text-anchor="middle" x="208.5" y="-227" font-family="Inter" font-size="10.00">caja&#45;window&#45;slot&#45;info.h</text>
</a>
</g>
</g>
<!-- Node1&#45;&gt;Node10 -->
<g id="edge10_Node000001_Node000010" class="edge">
<title>Node1&#45;&gt;Node10</title>
<g id="a_edge10_Node000001_Node000010"><a xlink:title=" ">
<path fill="none" stroke="#63b8ff" d="M117.85,-274.98C135.07,-266.54 161.7,-253.47 181.65,-243.68"/>
<polygon fill="#63b8ff" stroke="#63b8ff" points="183.4,-246.72 190.83,-239.17 180.31,-240.43 183.4,-246.72"/>
</a>
</g>
</g>
<!-- Node5 -->
<g id="Node000005" class="node">
<title>Node5</title>
<g id="a_Node000005"><a xlink:title=" ">
<polygon fill="#e0e0e0" stroke="#999999" points="255.5,-19 181.5,-19 181.5,0 255.5,0 255.5,-19"/>
<text text-anchor="middle" x="218.5" y="-7" font-family="Inter" font-size="10.00">glib&#45;object.h</text>
</a>
</g>
</g>
<!-- Node4&#45;&gt;Node5 -->
<g id="edge4_Node000004_Node000005" class="edge">
<title>Node4&#45;&gt;Node5</title>
<g id="a_edge4_Node000004_Node000005"><a xlink:title=" ">
<path fill="none" stroke="#63b8ff" d="M194.27,-109.68C197.03,-100.74 201.31,-86.48 204.5,-74 208.35,-58.94 212.11,-41.72 214.76,-29.01"/>
<polygon fill="#63b8ff" stroke="#63b8ff" points="218.2,-29.67 216.78,-19.17 211.34,-28.26 218.2,-29.67"/>
</a>
</g>
</g>
<!-- Node6 -->
<g id="Node000006" class="node">
<title>Node6</title>
<g id="a_Node000006"><a xlink:title=" ">
<polygon fill="#e0e0e0" stroke="#999999" points="333,-19 274,-19 274,0 333,0 333,-19"/>
<text text-anchor="middle" x="303.5" y="-7" font-family="Inter" font-size="10.00">gtk/gtk.h</text>
</a>
</g>
</g>
<!-- Node4&#45;&gt;Node6 -->
<g id="edge5_Node000004_Node000006" class="edge">
<title>Node4&#45;&gt;Node6</title>
<g id="a_edge5_Node000004_Node000006"><a xlink:title=" ">
<path fill="none" stroke="#63b8ff" d="M200.67,-109.66C219.63,-91.38 263.39,-49.18 287.25,-26.17"/>
<polygon fill="#63b8ff" stroke="#63b8ff" points="289.75,-28.62 294.52,-19.16 284.89,-23.58 289.75,-28.62"/>
</a>
</g>
</g>
<!-- Node7 -->
<g id="Node000007" class="node">
<title>Node7</title>
<g id="a_Node000007"><a xlink:href="caja-icon-info_8h.html" target="_top" xlink:title=" ">
<polygon fill="#fff0f0" stroke="red" points="195.5,-74 109.5,-74 109.5,-55 195.5,-55 195.5,-74"/>
<text text-anchor="middle" x="152.5" y="-62" font-family="Inter" font-size="10.00">caja&#45;icon&#45;info.h</text>
</a>
</g>
</g>
<!-- Node4&#45;&gt;Node7 -->
<g id="edge6_Node000004_Node000007" class="edge">
<title>Node4&#45;&gt;Node7</title>
<g id="a_edge6_Node000004_Node000007"><a xlink:title=" ">
<path fill="none" stroke="#63b8ff" d="M185.06,-109.75C179.61,-102.34 171.64,-91.5 164.94,-82.41"/>
<polygon fill="#63b8ff" stroke="#63b8ff" points="167.57,-80.07 158.82,-74.09 161.93,-84.22 167.57,-80.07"/>
</a>
</g>
</g>
<!-- Node7&#45;&gt;Node3 -->
<g id="edge8_Node000007_Node000003" class="edge">
<title>Node7&#45;&gt;Node3</title>
<g id="a_edge8_Node000007_Node000003"><a xlink:title=" ">
<path fill="none" stroke="#63b8ff" d="M145.56,-54.75C139.63,-47.26 130.93,-36.28 123.68,-27.13"/>
<polygon fill="#63b8ff" stroke="#63b8ff" points="126.26,-24.75 117.31,-19.09 120.77,-29.1 126.26,-24.75"/>
</a>
</g>
</g>
<!-- Node7&#45;&gt;Node5 -->
<g id="edge7_Node000007_Node000005" class="edge">
<title>Node7&#45;&gt;Node5</title>
<g id="a_edge7_Node000007_Node000005"><a xlink:title=" ">
<path fill="none" stroke="#63b8ff" d="M163.1,-54.98C172.96,-47.07 187.85,-35.11 199.72,-25.58"/>
<polygon fill="#63b8ff" stroke="#63b8ff" points="202.1,-28.16 207.7,-19.17 197.71,-22.7 202.1,-28.16"/>
</a>
</g>
</g>
<!-- Node7&#45;&gt;Node6 -->
<g id="edge9_Node000007_Node000006" class="edge">
<title>Node7&#45;&gt;Node6</title>
<g id="a_edge9_Node000007_Node000006"><a xlink:title=" ">
<path fill="none" stroke="#63b8ff" d="M176.76,-54.98C201.82,-46.19 241.13,-32.39 269.33,-22.49"/>
<polygon fill="#63b8ff" stroke="#63b8ff" points="270.52,-25.78 278.8,-19.17 268.2,-19.18 270.52,-25.78"/>
</a>
</g>
</g>
<!-- Node10&#45;&gt;Node4 -->
<g id="edge15_Node000010_Node000004" class="edge">
<title>Node10&#45;&gt;Node4</title>
<g id="a_edge15_Node000010_Node000004"><a xlink:title=" ">
<path fill="none" stroke="#63b8ff" d="M207.11,-219.66C204.36,-202.17 198.16,-162.8 194.46,-139.27"/>
<polygon fill="#63b8ff" stroke="#63b8ff" points="197.88,-138.49 192.86,-129.16 190.96,-139.58 197.88,-138.49"/>
</a>
</g>
</g>
<!-- Node11 -->
<g id="Node000011" class="node">
<title>Node11</title>
<g id="a_Node000011"><a xlink:href="caja-window-info_8h.html" target="_top" xlink:title=" ">
<polygon fill="white" stroke="#666666" points="317.5,-184 215.5,-184 215.5,-165 317.5,-165 317.5,-184"/>
<text text-anchor="middle" x="266.5" y="-172" font-family="Inter" font-size="10.00">caja&#45;window&#45;info.h</text>
</a>
</g>
</g>
<!-- Node10&#45;&gt;Node11 -->
<g id="edge11_Node000010_Node000011" class="edge">
<title>Node10&#45;&gt;Node11</title>
<g id="a_edge11_Node000010_Node000011"><a xlink:title=" ">
<path fill="none" stroke="#63b8ff" d="M217.82,-219.98C226.31,-212.23 239.06,-200.58 249.38,-191.14"/>
<polygon fill="#63b8ff" stroke="#63b8ff" points="251.99,-193.5 257.01,-184.17 247.27,-188.33 251.99,-193.5"/>
</a>
</g>
</g>
<!-- Node11&#45;&gt;Node4 -->
<g id="edge14_Node000011_Node000004" class="edge">
<title>Node11&#45;&gt;Node4</title>
<g id="a_edge14_Node000011_Node000004"><a xlink:title=" ">
<path fill="none" stroke="#63b8ff" d="M254.45,-164.98C243.04,-156.92 225.67,-144.65 212.07,-135.03"/>
<polygon fill="#63b8ff" stroke="#63b8ff" points="213.96,-132.08 203.77,-129.17 209.92,-137.8 213.96,-132.08"/>
</a>
</g>
</g>
<!-- Node11&#45;&gt;Node5 -->
<g id="edge12_Node000011_Node000005" class="edge">
<title>Node11&#45;&gt;Node5</title>
<g id="a_edge12_Node000011_Node000005"><a xlink:title=" ">
<path fill="none" stroke="#63b8ff" d="M263.92,-164.74C256.4,-139.2 234.38,-64.43 224.02,-29.23"/>
<polygon fill="#63b8ff" stroke="#63b8ff" points="227.28,-27.91 221.09,-19.31 220.56,-29.89 227.28,-27.91"/>
</a>
</g>
</g>
<!-- Node11&#45;&gt;Node6 -->
<g id="edge13_Node000011_Node000006" class="edge">
<title>Node11&#45;&gt;Node6</title>
<g id="a_edge13_Node000011_Node000006"><a xlink:title=" ">
<path fill="none" stroke="#63b8ff" d="M268.49,-164.74C274.29,-139.2 291.26,-64.43 299.25,-29.23"/>
<polygon fill="#63b8ff" stroke="#63b8ff" points="302.7,-29.83 301.5,-19.31 295.87,-28.28 302.7,-29.83"/>
</a>
</g>
</g>
</g>
</svg>
