<?xml version="1.0" encoding="UTF-8" standalone="no"?>
<!DOCTYPE svg PUBLIC "-//W3C//DTD SVG 1.1//EN"
 "http://www.w3.org/Graphics/SVG/1.1/DTD/svg11.dtd">
<!-- Generated by graphviz version 2.43.0 (0)
 -->
<!-- Title: caja&#45;nste.h Pages: 1 -->
<svg width="206pt" height="82pt"
 viewBox="0.00 0.00 206.00 82.00" xmlns="http://www.w3.org/2000/svg" xmlns:xlink="http://www.w3.org/1999/xlink">
<g id="graph0" class="graph" transform="scale(1 1) rotate(0) translate(4 78)">
<title>caja&#45;nste.h</title>
<!-- Node1 -->
<g id="Node000001" class="node">
<title>Node1</title>
<g id="a_Node000001"><a xlink:title=" ">
<polygon fill="#999999" stroke="#666666" points="119.5,-74 53.5,-74 53.5,-55 119.5,-55 119.5,-74"/>
<text text-anchor="middle" x="86.5" y="-62" font-family="Inter" font-size="10.00">caja&#45;nste.h</text>
</a>
</g>
</g>
<!-- Node2 -->
<g id="Node000002" class="node">
<title>Node2</title>
<g id="a_Node000002"><a xlink:href="caja-nste_8c.html" target="_top" xlink:title=" ">
<polygon fill="white" stroke="#666666" points="65,-19 0,-19 0,0 65,0 65,-19"/>
<text text-anchor="middle" x="32.5" y="-7" font-family="Inter" font-size="10.00">caja&#45;nste.c</text>
</a>
</g>
</g>
<!-- Node1&#45;&gt;Node2 -->
<g id="edge1_Node000001_Node000002" class="edge">
<title>Node1&#45;&gt;Node2</title>
<g id="a_edge1_Node000001_Node000002"><a xlink:title=" ">
<path fill="none" stroke="#63b8ff" d="M70.22,-47.52C60.7,-38.18 49.06,-26.75 41.25,-19.09"/>
<polygon fill="#63b8ff" stroke="#63b8ff" points="67.99,-50.24 77.58,-54.75 72.9,-45.25 67.99,-50.24"/>
</a>
</g>
</g>
<!-- Node3 -->
<g id="Node000003" class="node">
<title>Node3</title>
<g id="a_Node000003"><a xlink:href="caja-sendto-module_8c.html" target="_top" xlink:title=" ">
<polygon fill="white" stroke="#666666" points="198,-19 83,-19 83,0 198,0 198,-19"/>
<text text-anchor="middle" x="140.5" y="-7" font-family="Inter" font-size="10.00">caja&#45;sendto&#45;module.c</text>
</a>
</g>
</g>
<!-- Node1&#45;&gt;Node3 -->
<g id="edge2_Node000001_Node000003" class="edge">
<title>Node1&#45;&gt;Node3</title>
<g id="a_edge2_Node000001_Node000003"><a xlink:title=" ">
<path fill="none" stroke="#63b8ff" d="M102.78,-47.52C112.3,-38.18 123.94,-26.75 131.75,-19.09"/>
<polygon fill="#63b8ff" stroke="#63b8ff" points="100.1,-45.25 95.42,-54.75 105.01,-50.24 100.1,-45.25"/>
</a>
</g>
</g>
</g>
</svg>
