<?xml version="1.0" encoding="UTF-8" standalone="no"?>
<!DOCTYPE svg PUBLIC "-//W3C//DTD SVG 1.1//EN"
 "http://www.w3.org/Graphics/SVG/1.1/DTD/svg11.dtd">
<!-- Generated by graphviz version 2.43.0 (0)
 -->
<!-- Title: caja&#45;search&#45;directory.c Pages: 1 -->
<svg width="1761pt" height="269pt"
 viewBox="0.00 0.00 1760.50 269.00" xmlns="http://www.w3.org/2000/svg" xmlns:xlink="http://www.w3.org/1999/xlink">
<g id="graph0" class="graph" transform="scale(1 1) rotate(0) translate(4 265)">
<title>caja&#45;search&#45;directory.c</title>
<!-- Node1 -->
<g id="Node000001" class="node">
<title>Node1</title>
<g id="a_Node000001"><a xlink:title=" ">
<polygon fill="#999999" stroke="#666666" points="1276.5,-261 1157.5,-261 1157.5,-242 1276.5,-242 1276.5,-261"/>
<text text-anchor="middle" x="1217" y="-249" font-family="Inter" font-size="10.00">caja&#45;search&#45;directory.c</text>
</a>
</g>
</g>
<!-- Node2 -->
<g id="Node000002" class="node">
<title>Node2</title>
<g id="a_Node000002"><a xlink:title=" ">
<polygon fill="#e0e0e0" stroke="#999999" points="54,-200.5 0,-200.5 0,-181.5 54,-181.5 54,-200.5"/>
<text text-anchor="middle" x="27" y="-188.5" font-family="Inter" font-size="10.00">config.h</text>
</a>
</g>
</g>
<!-- Node1&#45;&gt;Node2 -->
<g id="edge1_Node000001_Node000002" class="edge">
<title>Node1&#45;&gt;Node2</title>
<g id="a_edge1_Node000001_Node000002"><a xlink:title=" ">
<path fill="none" stroke="#63b8ff" d="M1157.49,-250.47C953.01,-250 280.09,-245.44 68,-206 64.75,-205.39 61.4,-204.58 58.09,-203.66"/>
<polygon fill="#63b8ff" stroke="#63b8ff" points="58.98,-200.27 48.39,-200.61 56.88,-206.95 58.98,-200.27"/>
</a>
</g>
</g>
<!-- Node3 -->
<g id="Node000003" class="node">
<title>Node3</title>
<g id="a_Node000003"><a xlink:title=" ">
<polygon fill="#e0e0e0" stroke="#999999" points="265.5,-74 212.5,-74 212.5,-55 265.5,-55 265.5,-74"/>
<text text-anchor="middle" x="239" y="-62" font-family="Inter" font-size="10.00">string.h</text>
</a>
</g>
</g>
<!-- Node1&#45;&gt;Node3 -->
<g id="edge2_Node000001_Node000003" class="edge">
<title>Node1&#45;&gt;Node3</title>
<g id="a_edge2_Node000001_Node000003"><a xlink:title=" ">
<path fill="none" stroke="#63b8ff" d="M1157.46,-249.17C940.86,-243.7 204.02,-219.36 139,-140 130.55,-129.69 131.74,-121.18 139,-110 152.91,-88.58 179.78,-77.39 202.17,-71.58"/>
<polygon fill="#63b8ff" stroke="#63b8ff" points="203.13,-74.95 212.08,-69.28 201.54,-68.14 203.13,-74.95"/>
</a>
</g>
</g>
<!-- Node4 -->
<g id="Node000004" class="node">
<title>Node4</title>
<g id="a_Node000004"><a xlink:title=" ">
<polygon fill="#e0e0e0" stroke="#999999" points="1275.5,-19 1216.5,-19 1216.5,0 1275.5,0 1275.5,-19"/>
<text text-anchor="middle" x="1246" y="-7" font-family="Inter" font-size="10.00">gtk/gtk.h</text>
</a>
</g>
</g>
<!-- Node1&#45;&gt;Node4 -->
<g id="edge3_Node000001_Node000004" class="edge">
<title>Node1&#45;&gt;Node4</title>
<g id="a_edge3_Node000001_Node000004"><a xlink:title=" ">
<path fill="none" stroke="#63b8ff" d="M1276.52,-244.83C1311.8,-239.23 1356.09,-228.1 1390,-206 1421.29,-185.61 1429.77,-175.28 1442,-140 1467.1,-67.58 1349.7,-31.69 1285.51,-17.73"/>
<polygon fill="#63b8ff" stroke="#63b8ff" points="1286.2,-14.3 1275.7,-15.68 1284.77,-21.15 1286.2,-14.3"/>
</a>
</g>
</g>
<!-- Node5 -->
<g id="Node000005" class="node">
<title>Node5</title>
<g id="a_Node000005"><a xlink:title=" ">
<polygon fill="#e0e0e0" stroke="#999999" points="792,-19 734,-19 734,0 792,0 792,-19"/>
<text text-anchor="middle" x="763" y="-7" font-family="Inter" font-size="10.00">gio/gio.h</text>
</a>
</g>
</g>
<!-- Node1&#45;&gt;Node5 -->
<g id="edge4_Node000001_Node000005" class="edge">
<title>Node1&#45;&gt;Node5</title>
<g id="a_edge4_Node000001_Node000005"><a xlink:title=" ">
<path fill="none" stroke="#63b8ff" d="M1157.15,-249.6C957.33,-246.34 320.76,-233.87 233,-206 181.18,-189.54 156.09,-187.7 130,-140 106.11,-96.31 156.44,-72.66 203,-55 298.52,-18.77 612.72,-12.04 723.73,-10.79"/>
<polygon fill="#63b8ff" stroke="#63b8ff" points="723.86,-14.28 733.82,-10.68 723.78,-7.28 723.86,-14.28"/>
</a>
</g>
</g>
<!-- Node6 -->
<g id="Node000006" class="node">
<title>Node6</title>
<g id="a_Node000006"><a xlink:title=" ">
<polygon fill="#e0e0e0" stroke="#999999" points="1752.5,-200.5 1687.5,-200.5 1687.5,-181.5 1752.5,-181.5 1752.5,-200.5"/>
<text text-anchor="middle" x="1720" y="-188.5" font-family="Inter" font-size="10.00">sys/time.h</text>
</a>
</g>
</g>
<!-- Node1&#45;&gt;Node6 -->
<g id="edge5_Node000001_Node000006" class="edge">
<title>Node1&#45;&gt;Node6</title>
<g id="a_edge5_Node000001_Node000006"><a xlink:title=" ">
<path fill="none" stroke="#63b8ff" d="M1276.55,-248.34C1364.13,-244.34 1532.49,-233.52 1673,-206 1676.73,-205.27 1680.59,-204.37 1684.41,-203.38"/>
<polygon fill="#63b8ff" stroke="#63b8ff" points="1685.67,-206.66 1694.36,-200.61 1683.79,-199.92 1685.67,-206.66"/>
</a>
</g>
</g>
<!-- Node7 -->
<g id="Node000007" class="node">
<title>Node7</title>
<g id="a_Node000007"><a xlink:href="eel-glib-extensions_8h.html" target="_top" xlink:title=" ">
<polygon fill="white" stroke="#666666" points="278,-134.5 148,-134.5 148,-115.5 278,-115.5 278,-134.5"/>
<text text-anchor="middle" x="213" y="-122.5" font-family="Inter" font-size="10.00">eel/eel&#45;glib&#45;extensions.h</text>
</a>
</g>
</g>
<!-- Node1&#45;&gt;Node7 -->
<g id="edge6_Node000001_Node000007" class="edge">
<title>Node1&#45;&gt;Node7</title>
<g id="a_edge6_Node000001_Node000007"><a xlink:title=" ">
<path fill="none" stroke="#63b8ff" d="M1157.24,-247.64C1054.76,-242.32 839.05,-229.26 658,-206 491.89,-184.66 451.73,-170.23 287,-140 280.75,-138.85 274.22,-137.64 267.72,-136.42"/>
<polygon fill="#63b8ff" stroke="#63b8ff" points="268.07,-132.93 257.59,-134.52 266.78,-139.81 268.07,-132.93"/>
</a>
</g>
</g>
<!-- Node9 -->
<g id="Node000009" class="node">
<title>Node9</title>
<g id="a_Node000009"><a xlink:href="caja-search-directory_8h.html" target="_top" xlink:title=" ">
<polygon fill="white" stroke="#666666" points="1631,-200.5 1511,-200.5 1511,-181.5 1631,-181.5 1631,-200.5"/>
<text text-anchor="middle" x="1571" y="-188.5" font-family="Inter" font-size="10.00">caja&#45;search&#45;directory.h</text>
</a>
</g>
</g>
<!-- Node1&#45;&gt;Node9 -->
<g id="edge9_Node000001_Node000009" class="edge">
<title>Node1&#45;&gt;Node9</title>
<g id="a_edge9_Node000001_Node000009"><a xlink:title=" ">
<path fill="none" stroke="#63b8ff" d="M1273.66,-241.99C1330.28,-233.38 1419.78,-219.44 1497,-206 1503.58,-204.86 1510.48,-203.61 1517.3,-202.35"/>
<polygon fill="#63b8ff" stroke="#63b8ff" points="1518.02,-205.78 1527.21,-200.5 1516.74,-198.9 1518.02,-205.78"/>
</a>
</g>
</g>
<!-- Node14 -->
<g id="Node000014" class="node">
<title>Node14</title>
<g id="a_Node000014"><a xlink:href="caja-search-engine_8h.html" target="_top" xlink:title=" ">
<polygon fill="#fff0f0" stroke="red" points="1710.5,-134.5 1599.5,-134.5 1599.5,-115.5 1710.5,-115.5 1710.5,-134.5"/>
<text text-anchor="middle" x="1655" y="-122.5" font-family="Inter" font-size="10.00">caja&#45;search&#45;engine.h</text>
</a>
</g>
</g>
<!-- Node1&#45;&gt;Node14 -->
<g id="edge49_Node000001_Node000014" class="edge">
<title>Node1&#45;&gt;Node14</title>
<g id="a_edge49_Node000001_Node000014"><a xlink:title=" ">
<path fill="none" stroke="#63b8ff" d="M1276.92,-248.11C1387.28,-243.15 1613.85,-230.13 1640,-206 1656.69,-190.61 1658.34,-163.03 1657.25,-144.62"/>
<polygon fill="#63b8ff" stroke="#63b8ff" points="1660.73,-144.17 1656.33,-134.53 1653.75,-144.81 1660.73,-144.17"/>
</a>
</g>
</g>
<!-- Node15 -->
<g id="Node000015" class="node">
<title>Node15</title>
<g id="a_Node000015"><a xlink:href="caja-search-directory-file_8h.html" target="_top" xlink:title=" ">
<polygon fill="white" stroke="#666666" points="1273,-206 1161,-206 1161,-176 1273,-176 1273,-206"/>
<text text-anchor="start" x="1169" y="-194" font-family="Inter" font-size="10.00">caja&#45;search&#45;directory</text>
<text text-anchor="middle" x="1217" y="-183" font-family="Inter" font-size="10.00">&#45;file.h</text>
</a>
</g>
</g>
<!-- Node1&#45;&gt;Node15 -->
<g id="edge16_Node000001_Node000015" class="edge">
<title>Node1&#45;&gt;Node15</title>
<g id="a_edge16_Node000001_Node000015"><a xlink:title=" ">
<path fill="none" stroke="#63b8ff" d="M1217,-241.87C1217,-235.11 1217,-225.35 1217,-216.26"/>
<polygon fill="#63b8ff" stroke="#63b8ff" points="1220.5,-216.11 1217,-206.11 1213.5,-216.11 1220.5,-216.11"/>
</a>
</g>
</g>
<!-- Node16 -->
<g id="Node000016" class="node">
<title>Node16</title>
<g id="a_Node000016"><a xlink:href="caja-file_8h.html" target="_top" xlink:title=" ">
<polygon fill="#fff0f0" stroke="red" points="992,-74 932,-74 932,-55 992,-55 992,-74"/>
<text text-anchor="middle" x="962" y="-62" font-family="Inter" font-size="10.00">caja&#45;file.h</text>
</a>
</g>
</g>
<!-- Node1&#45;&gt;Node16 -->
<g id="edge33_Node000001_Node000016" class="edge">
<title>Node1&#45;&gt;Node16</title>
<g id="a_edge33_Node000001_Node000016"><a xlink:title=" ">
<path fill="none" stroke="#63b8ff" d="M1239.12,-241.95C1254.2,-234.82 1273.01,-223.06 1282,-206 1296.18,-179.1 1261.71,-110.6 1261,-110 1256.1,-105.83 1083.1,-81.91 1002.53,-70.97"/>
<polygon fill="#63b8ff" stroke="#63b8ff" points="1002.64,-67.45 992.26,-69.58 1001.7,-74.39 1002.64,-67.45"/>
</a>
</g>
</g>
<!-- Node20 -->
<g id="Node000020" class="node">
<title>Node20</title>
<g id="a_Node000020"><a xlink:href="caja-directory-private_8h.html" target="_top" xlink:title=" ">
<polygon fill="white" stroke="#666666" points="1024,-200.5 900,-200.5 900,-181.5 1024,-181.5 1024,-200.5"/>
<text text-anchor="middle" x="962" y="-188.5" font-family="Inter" font-size="10.00">caja&#45;directory&#45;private.h</text>
</a>
</g>
</g>
<!-- Node1&#45;&gt;Node20 -->
<g id="edge20_Node000001_Node000020" class="edge">
<title>Node1&#45;&gt;Node20</title>
<g id="a_edge20_Node000001_Node000020"><a xlink:title=" ">
<path fill="none" stroke="#63b8ff" d="M1179.92,-241.99C1134.69,-231.62 1058.18,-214.07 1008.9,-202.76"/>
<polygon fill="#63b8ff" stroke="#63b8ff" points="1009.65,-199.34 999.12,-200.52 1008.09,-206.16 1009.65,-199.34"/>
</a>
</g>
</g>
<!-- Node28 -->
<g id="Node000028" class="node">
<title>Node28</title>
<g id="a_Node000028"><a xlink:href="caja-file-private_8h.html" target="_top" xlink:title=" ">
<polygon fill="white" stroke="#666666" points="763,-200.5 667,-200.5 667,-181.5 763,-181.5 763,-200.5"/>
<text text-anchor="middle" x="715" y="-188.5" font-family="Inter" font-size="10.00">caja&#45;file&#45;private.h</text>
</a>
</g>
</g>
<!-- Node1&#45;&gt;Node28 -->
<g id="edge34_Node000001_Node000028" class="edge">
<title>Node1&#45;&gt;Node28</title>
<g id="a_edge34_Node000001_Node000028"><a xlink:title=" ">
<path fill="none" stroke="#63b8ff" d="M1157.44,-243.56C1060.47,-232.26 869.62,-210.02 773.4,-198.81"/>
<polygon fill="#63b8ff" stroke="#63b8ff" points="773.6,-195.31 763.27,-197.62 772.79,-202.26 773.6,-195.31"/>
</a>
</g>
</g>
<!-- Node32 -->
<g id="Node000032" class="node">
<title>Node32</title>
<g id="a_Node000032"><a xlink:href="caja-file-utilities_8h.html" target="_top" xlink:title=" ">
<polygon fill="white" stroke="#666666" points="1294,-74 1198,-74 1198,-55 1294,-55 1294,-74"/>
<text text-anchor="middle" x="1246" y="-62" font-family="Inter" font-size="10.00">caja&#45;file&#45;utilities.h</text>
</a>
</g>
</g>
<!-- Node1&#45;&gt;Node32 -->
<g id="edge46_Node000001_Node000032" class="edge">
<title>Node1&#45;&gt;Node32</title>
<g id="a_edge46_Node000001_Node000032"><a xlink:title=" ">
<path fill="none" stroke="#63b8ff" d="M1260.68,-241.89C1311.13,-229.31 1391.6,-200.47 1426,-140 1454.2,-90.43 1367.16,-73.84 1304.46,-68.29"/>
<polygon fill="#63b8ff" stroke="#63b8ff" points="1304.49,-64.78 1294.24,-67.46 1303.92,-71.76 1304.49,-64.78"/>
</a>
</g>
</g>
<!-- Node7&#45;&gt;Node5 -->
<g id="edge8_Node000007_Node000005" class="edge">
<title>Node7&#45;&gt;Node5</title>
<g id="a_edge8_Node000007_Node000005"><a xlink:title=" ">
<path fill="none" stroke="#63b8ff" d="M236.1,-115.46C276.21,-100.95 361.61,-71.45 436,-55 538.59,-32.31 662.01,-19.29 723.76,-13.73"/>
<polygon fill="#63b8ff" stroke="#63b8ff" points="724.19,-17.21 733.85,-12.84 723.58,-10.24 724.19,-17.21"/>
</a>
</g>
</g>
<!-- Node8 -->
<g id="Node000008" class="node">
<title>Node8</title>
<g id="a_Node000008"><a xlink:title=" ">
<polygon fill="#e0e0e0" stroke="#999999" points="487,-74 445,-74 445,-55 487,-55 487,-74"/>
<text text-anchor="middle" x="466" y="-62" font-family="Inter" font-size="10.00">glib.h</text>
</a>
</g>
</g>
<!-- Node7&#45;&gt;Node8 -->
<g id="edge7_Node000007_Node000008" class="edge">
<title>Node7&#45;&gt;Node8</title>
<g id="a_edge7_Node000007_Node000008"><a xlink:title=" ">
<path fill="none" stroke="#63b8ff" d="M249.79,-115.49C299.73,-103.94 388.12,-83.51 434.92,-72.69"/>
<polygon fill="#63b8ff" stroke="#63b8ff" points="435.84,-76.07 444.79,-70.4 434.26,-69.25 435.84,-76.07"/>
</a>
</g>
</g>
<!-- Node10 -->
<g id="Node000010" class="node">
<title>Node10</title>
<g id="a_Node000010"><a xlink:href="caja-directory_8h.html" target="_top" xlink:title=" ">
<polygon fill="#fff0f0" stroke="red" points="1416.5,-134.5 1329.5,-134.5 1329.5,-115.5 1416.5,-115.5 1416.5,-134.5"/>
<text text-anchor="middle" x="1373" y="-122.5" font-family="Inter" font-size="10.00">caja&#45;directory.h</text>
</a>
</g>
</g>
<!-- Node9&#45;&gt;Node10 -->
<g id="edge10_Node000009_Node000010" class="edge">
<title>Node9&#45;&gt;Node10</title>
<g id="a_edge10_Node000009_Node000010"><a xlink:title=" ">
<path fill="none" stroke="#63b8ff" d="M1544.3,-181.37C1509.51,-170.12 1448.54,-150.42 1409.5,-137.8"/>
<polygon fill="#63b8ff" stroke="#63b8ff" points="1410.19,-134.34 1399.6,-134.6 1408.03,-141 1410.19,-134.34"/>
</a>
</g>
</g>
<!-- Node12 -->
<g id="Node000012" class="node">
<title>Node12</title>
<g id="a_Node000012"><a xlink:href="caja-query_8h.html" target="_top" xlink:title=" ">
<polygon fill="#fff0f0" stroke="red" points="1649.5,-74 1576.5,-74 1576.5,-55 1649.5,-55 1649.5,-74"/>
<text text-anchor="middle" x="1613" y="-62" font-family="Inter" font-size="10.00">caja&#45;query.h</text>
</a>
</g>
</g>
<!-- Node9&#45;&gt;Node12 -->
<g id="edge13_Node000009_Node000012" class="edge">
<title>Node9&#45;&gt;Node12</title>
<g id="a_edge13_Node000009_Node000012"><a xlink:title=" ">
<path fill="none" stroke="#63b8ff" d="M1572.52,-181.41C1575.28,-166.57 1581.72,-135.26 1591,-110 1594.38,-100.8 1599.1,-90.99 1603.3,-82.93"/>
<polygon fill="#63b8ff" stroke="#63b8ff" points="1606.38,-84.58 1608.05,-74.12 1600.22,-81.26 1606.38,-84.58"/>
</a>
</g>
</g>
<!-- Node9&#45;&gt;Node14 -->
<g id="edge14_Node000009_Node000014" class="edge">
<title>Node9&#45;&gt;Node14</title>
<g id="a_edge14_Node000009_Node000014"><a xlink:title=" ">
<path fill="none" stroke="#63b8ff" d="M1582.33,-181.37C1595.86,-171.06 1618.72,-153.65 1635.19,-141.09"/>
<polygon fill="#63b8ff" stroke="#63b8ff" points="1637.75,-143.54 1643.58,-134.7 1633.51,-137.98 1637.75,-143.54"/>
</a>
</g>
</g>
<!-- Node10&#45;&gt;Node4 -->
<g id="edge11_Node000010_Node000004" class="edge">
<title>Node10&#45;&gt;Node4</title>
<g id="a_edge11_Node000010_Node000004"><a xlink:title=" ">
<path fill="none" stroke="#63b8ff" d="M1364.68,-115.17C1351.87,-101.72 1326.34,-75.49 1303,-55 1291.24,-44.67 1277.41,-33.85 1266.33,-25.46"/>
<polygon fill="#63b8ff" stroke="#63b8ff" points="1268.21,-22.51 1258.11,-19.32 1264.02,-28.11 1268.21,-22.51"/>
</a>
</g>
</g>
<!-- Node10&#45;&gt;Node5 -->
<g id="edge12_Node000010_Node000005" class="edge">
<title>Node10&#45;&gt;Node5</title>
<g id="a_edge12_Node000010_Node000005"><a xlink:title=" ">
<path fill="none" stroke="#63b8ff" d="M1339.03,-115.45C1331.16,-113.57 1322.8,-111.64 1315,-110 1123.66,-69.7 892.87,-31.4 802.24,-16.76"/>
<polygon fill="#63b8ff" stroke="#63b8ff" points="802.57,-13.27 792.14,-15.14 801.46,-20.18 802.57,-13.27"/>
</a>
</g>
</g>
<!-- Node14&#45;&gt;Node12 -->
<g id="edge15_Node000014_Node000012" class="edge">
<title>Node14&#45;&gt;Node12</title>
<g id="a_edge15_Node000014_Node000012"><a xlink:title=" ">
<path fill="none" stroke="#63b8ff" d="M1648.8,-115.37C1642.6,-106.73 1632.89,-93.2 1625.14,-82.42"/>
<polygon fill="#63b8ff" stroke="#63b8ff" points="1627.9,-80.25 1619.22,-74.17 1622.21,-84.33 1627.9,-80.25"/>
</a>
</g>
</g>
<!-- Node15&#45;&gt;Node16 -->
<g id="edge17_Node000015_Node000016" class="edge">
<title>Node15&#45;&gt;Node16</title>
<g id="a_edge17_Node000015_Node000016"><a xlink:title=" ">
<path fill="none" stroke="#63b8ff" d="M1229.34,-175.7C1242.77,-158.35 1260.28,-129.06 1244,-110 1228.5,-91.86 1076.81,-75.84 1002.55,-69.01"/>
<polygon fill="#63b8ff" stroke="#63b8ff" points="1002.45,-65.48 992.18,-68.06 1001.82,-72.45 1002.45,-65.48"/>
</a>
</g>
</g>
<!-- Node16&#45;&gt;Node4 -->
<g id="edge18_Node000016_Node000004" class="edge">
<title>Node16&#45;&gt;Node4</title>
<g id="a_edge18_Node000016_Node000004"><a xlink:title=" ">
<path fill="none" stroke="#63b8ff" d="M992.12,-57.88C1043.6,-48.27 1148.48,-28.7 1206.02,-17.96"/>
<polygon fill="#63b8ff" stroke="#63b8ff" points="1207,-21.34 1216.19,-16.06 1205.71,-14.46 1207,-21.34"/>
</a>
</g>
</g>
<!-- Node16&#45;&gt;Node5 -->
<g id="edge19_Node000016_Node000005" class="edge">
<title>Node16&#45;&gt;Node5</title>
<g id="a_edge19_Node000016_Node000005"><a xlink:title=" ">
<path fill="none" stroke="#63b8ff" d="M931.78,-55.45C897.04,-46.2 839.95,-30.99 801.92,-20.87"/>
<polygon fill="#63b8ff" stroke="#63b8ff" points="802.77,-17.47 792.21,-18.28 800.97,-24.24 802.77,-17.47"/>
</a>
</g>
</g>
<!-- Node20&#45;&gt;Node5 -->
<g id="edge21_Node000020_Node000005" class="edge">
<title>Node20&#45;&gt;Node5</title>
<g id="a_edge21_Node000020_Node000005"><a xlink:title=" ">
<path fill="none" stroke="#63b8ff" d="M950.39,-181.49C937.35,-171.8 915.69,-155.33 898,-140 853.04,-101.05 803.3,-51.54 778.64,-26.52"/>
<polygon fill="#63b8ff" stroke="#63b8ff" points="781.06,-23.99 771.56,-19.3 776.06,-28.89 781.06,-23.99"/>
</a>
</g>
</g>
<!-- Node20&#45;&gt;Node10 -->
<g id="edge26_Node000020_Node000010" class="edge">
<title>Node20&#45;&gt;Node10</title>
<g id="a_edge26_Node000020_Node000010"><a xlink:title=" ">
<path fill="none" stroke="#63b8ff" d="M1017,-181.44C1096.03,-169.13 1240.78,-146.59 1319.16,-134.38"/>
<polygon fill="#63b8ff" stroke="#63b8ff" points="1319.96,-137.8 1329.3,-132.8 1318.88,-130.89 1319.96,-137.8"/>
</a>
</g>
</g>
<!-- Node20&#45;&gt;Node16 -->
<g id="edge29_Node000020_Node000016" class="edge">
<title>Node20&#45;&gt;Node16</title>
<g id="a_edge29_Node000020_Node000016"><a xlink:title=" ">
<path fill="none" stroke="#63b8ff" d="M947.11,-181.5C933.79,-172.95 915.14,-158.41 907,-140 901.61,-127.81 901.26,-122.03 907,-110 913.09,-97.23 924.84,-86.94 935.92,-79.49"/>
<polygon fill="#63b8ff" stroke="#63b8ff" points="937.9,-82.38 944.54,-74.12 934.2,-76.43 937.9,-82.38"/>
</a>
</g>
</g>
<!-- Node21 -->
<g id="Node000021" class="node">
<title>Node21</title>
<g id="a_Node000021"><a xlink:title=" ">
<polygon fill="#e0e0e0" stroke="#999999" points="1103,-134.5 1027,-134.5 1027,-115.5 1103,-115.5 1103,-134.5"/>
<text text-anchor="middle" x="1065" y="-122.5" font-family="Inter" font-size="10.00">libxml/tree.h</text>
</a>
</g>
</g>
<!-- Node20&#45;&gt;Node21 -->
<g id="edge22_Node000020_Node000021" class="edge">
<title>Node20&#45;&gt;Node21</title>
<g id="a_edge22_Node000020_Node000021"><a xlink:title=" ">
<path fill="none" stroke="#63b8ff" d="M975.89,-181.37C992.94,-170.78 1022.07,-152.67 1042.37,-140.06"/>
<polygon fill="#63b8ff" stroke="#63b8ff" points="1044.35,-142.95 1051,-134.7 1040.66,-137 1044.35,-142.95"/>
</a>
</g>
</g>
<!-- Node22 -->
<g id="Node000022" class="node">
<title>Node22</title>
<g id="a_Node000022"><a xlink:href="eel-vfs-extensions_8h.html" target="_top" xlink:title=" ">
<polygon fill="white" stroke="#666666" points="529.5,-134.5 402.5,-134.5 402.5,-115.5 529.5,-115.5 529.5,-134.5"/>
<text text-anchor="middle" x="466" y="-122.5" font-family="Inter" font-size="10.00">eel/eel&#45;vfs&#45;extensions.h</text>
</a>
</g>
</g>
<!-- Node20&#45;&gt;Node22 -->
<g id="edge23_Node000020_Node000022" class="edge">
<title>Node20&#45;&gt;Node22</title>
<g id="a_edge23_Node000020_Node000022"><a xlink:title=" ">
<path fill="none" stroke="#63b8ff" d="M899.65,-184.12C816.81,-175.97 665.98,-159.96 538,-140 531.24,-138.95 524.14,-137.72 517.15,-136.43"/>
<polygon fill="#63b8ff" stroke="#63b8ff" points="517.5,-132.94 507.03,-134.53 516.21,-139.82 517.5,-132.94"/>
</a>
</g>
</g>
<!-- Node23 -->
<g id="Node000023" class="node">
<title>Node23</title>
<g id="a_Node000023"><a xlink:href="caja-info-provider_8h.html" target="_top" xlink:title=" ">
<polygon fill="#fff0f0" stroke="red" points="1234.5,-140 1121.5,-140 1121.5,-110 1234.5,-110 1234.5,-140"/>
<text text-anchor="start" x="1129.5" y="-128" font-family="Inter" font-size="10.00">libcaja&#45;extension/caja</text>
<text text-anchor="middle" x="1178" y="-117" font-family="Inter" font-size="10.00">&#45;info&#45;provider.h</text>
</a>
</g>
</g>
<!-- Node20&#45;&gt;Node23 -->
<g id="edge25_Node000020_Node000023" class="edge">
<title>Node20&#45;&gt;Node23</title>
<g id="a_edge25_Node000020_Node000023"><a xlink:title=" ">
<path fill="none" stroke="#63b8ff" d="M991.13,-181.37C1024.18,-171.58 1078.89,-155.37 1120.6,-143.01"/>
<polygon fill="#63b8ff" stroke="#63b8ff" points="1121.77,-146.31 1130.36,-140.12 1119.78,-139.6 1121.77,-146.31"/>
</a>
</g>
</g>
<!-- Node26 -->
<g id="Node000026" class="node">
<title>Node26</title>
<g id="a_Node000026"><a xlink:href="caja-file-queue_8h.html" target="_top" xlink:title=" ">
<polygon fill="white" stroke="#666666" points="1008.5,-134.5 915.5,-134.5 915.5,-115.5 1008.5,-115.5 1008.5,-134.5"/>
<text text-anchor="middle" x="962" y="-122.5" font-family="Inter" font-size="10.00">caja&#45;file&#45;queue.h</text>
</a>
</g>
</g>
<!-- Node20&#45;&gt;Node26 -->
<g id="edge27_Node000020_Node000026" class="edge">
<title>Node20&#45;&gt;Node26</title>
<g id="a_edge27_Node000020_Node000026"><a xlink:title=" ">
<path fill="none" stroke="#63b8ff" d="M962,-181.37C962,-172.16 962,-157.29 962,-145.27"/>
<polygon fill="#63b8ff" stroke="#63b8ff" points="965.5,-144.91 962,-134.91 958.5,-144.91 965.5,-144.91"/>
</a>
</g>
</g>
<!-- Node27 -->
<g id="Node000027" class="node">
<title>Node27</title>
<g id="a_Node000027"><a xlink:href="caja-monitor_8h.html" target="_top" xlink:title=" ">
<polygon fill="white" stroke="#666666" points="628.5,-134.5 547.5,-134.5 547.5,-115.5 628.5,-115.5 628.5,-134.5"/>
<text text-anchor="middle" x="588" y="-122.5" font-family="Inter" font-size="10.00">caja&#45;monitor.h</text>
</a>
</g>
</g>
<!-- Node20&#45;&gt;Node27 -->
<g id="edge30_Node000020_Node000027" class="edge">
<title>Node20&#45;&gt;Node27</title>
<g id="a_edge30_Node000020_Node000027"><a xlink:title=" ">
<path fill="none" stroke="#63b8ff" d="M899.78,-182.65C834.25,-174.39 728.26,-159.53 638,-140 634.1,-139.16 630.05,-138.18 626.02,-137.16"/>
<polygon fill="#63b8ff" stroke="#63b8ff" points="626.71,-133.72 616.15,-134.52 624.9,-140.48 626.71,-133.72"/>
</a>
</g>
</g>
<!-- Node22&#45;&gt;Node8 -->
<g id="edge24_Node000022_Node000008" class="edge">
<title>Node22&#45;&gt;Node8</title>
<g id="a_edge24_Node000022_Node000008"><a xlink:title=" ">
<path fill="none" stroke="#63b8ff" d="M466,-115.37C466,-107.25 466,-94.81 466,-84.39"/>
<polygon fill="#63b8ff" stroke="#63b8ff" points="469.5,-84.17 466,-74.17 462.5,-84.17 469.5,-84.17"/>
</a>
</g>
</g>
<!-- Node26&#45;&gt;Node16 -->
<g id="edge28_Node000026_Node000016" class="edge">
<title>Node26&#45;&gt;Node16</title>
<g id="a_edge28_Node000026_Node000016"><a xlink:title=" ">
<path fill="none" stroke="#63b8ff" d="M962,-115.37C962,-107.25 962,-94.81 962,-84.39"/>
<polygon fill="#63b8ff" stroke="#63b8ff" points="965.5,-84.17 962,-74.17 958.5,-84.17 965.5,-84.17"/>
</a>
</g>
</g>
<!-- Node27&#45;&gt;Node5 -->
<g id="edge32_Node000027_Node000005" class="edge">
<title>Node27&#45;&gt;Node5</title>
<g id="a_edge32_Node000027_Node000005"><a xlink:title=" ">
<path fill="none" stroke="#63b8ff" d="M601.15,-115.47C631.05,-96.08 704.36,-48.53 741.17,-24.66"/>
<polygon fill="#63b8ff" stroke="#63b8ff" points="743.21,-27.51 749.69,-19.13 739.4,-21.63 743.21,-27.51"/>
</a>
</g>
</g>
<!-- Node27&#45;&gt;Node8 -->
<g id="edge31_Node000027_Node000008" class="edge">
<title>Node27&#45;&gt;Node8</title>
<g id="a_edge31_Node000027_Node000008"><a xlink:title=" ">
<path fill="none" stroke="#63b8ff" d="M570.26,-115.49C549.93,-105.75 516.39,-89.66 492.86,-78.38"/>
<polygon fill="#63b8ff" stroke="#63b8ff" points="494.29,-75.18 483.76,-74.02 491.26,-81.5 494.29,-75.18"/>
</a>
</g>
</g>
<!-- Node28&#45;&gt;Node7 -->
<g id="edge35_Node000028_Node000007" class="edge">
<title>Node28&#45;&gt;Node7</title>
<g id="a_edge35_Node000028_Node000007"><a xlink:title=" ">
<path fill="none" stroke="#63b8ff" d="M666.71,-185.48C587.28,-177.8 424.18,-160.96 287,-140 279.89,-138.91 272.42,-137.65 265.07,-136.33"/>
<polygon fill="#63b8ff" stroke="#63b8ff" points="265.64,-132.88 255.18,-134.51 264.38,-139.76 265.64,-132.88"/>
</a>
</g>
</g>
<!-- Node28&#45;&gt;Node10 -->
<g id="edge39_Node000028_Node000010" class="edge">
<title>Node28&#45;&gt;Node10</title>
<g id="a_edge39_Node000028_Node000010"><a xlink:title=" ">
<path fill="none" stroke="#63b8ff" d="M763.16,-185.67C856.15,-177.27 1066.87,-157.98 1244,-140 1268.79,-137.48 1296.25,-134.53 1319.44,-131.98"/>
<polygon fill="#63b8ff" stroke="#63b8ff" points="1319.87,-135.45 1329.43,-130.88 1319.1,-128.5 1319.87,-135.45"/>
</a>
</g>
</g>
<!-- Node28&#45;&gt;Node16 -->
<g id="edge40_Node000028_Node000016" class="edge">
<title>Node28&#45;&gt;Node16</title>
<g id="a_edge40_Node000028_Node000016"><a xlink:title=" ">
<path fill="none" stroke="#63b8ff" d="M731.98,-181.44C774.37,-160.08 885.09,-104.27 935.87,-78.67"/>
<polygon fill="#63b8ff" stroke="#63b8ff" points="937.55,-81.74 944.9,-74.12 934.4,-75.49 937.55,-81.74"/>
</a>
</g>
</g>
<!-- Node28&#45;&gt;Node27 -->
<g id="edge41_Node000028_Node000027" class="edge">
<title>Node28&#45;&gt;Node27</title>
<g id="a_edge41_Node000028_Node000027"><a xlink:title=" ">
<path fill="none" stroke="#63b8ff" d="M697.87,-181.37C676.38,-170.54 639.3,-151.85 614.23,-139.22"/>
<polygon fill="#63b8ff" stroke="#63b8ff" points="615.77,-136.07 605.26,-134.7 612.62,-142.32 615.77,-136.07"/>
</a>
</g>
</g>
<!-- Node29 -->
<g id="Node000029" class="node">
<title>Node29</title>
<g id="a_Node000029"><a xlink:href="eel-string_8h.html" target="_top" xlink:title=" ">
<polygon fill="#fff0f0" stroke="red" points="384,-134.5 296,-134.5 296,-115.5 384,-115.5 384,-134.5"/>
<text text-anchor="middle" x="340" y="-122.5" font-family="Inter" font-size="10.00">eel/eel&#45;string.h</text>
</a>
</g>
</g>
<!-- Node28&#45;&gt;Node29 -->
<g id="edge36_Node000028_Node000029" class="edge">
<title>Node28&#45;&gt;Node29</title>
<g id="a_edge36_Node000028_Node000029"><a xlink:title=" ">
<path fill="none" stroke="#63b8ff" d="M666.98,-184.13C603.81,-176.05 489.49,-160.18 393,-140 388.81,-139.12 384.45,-138.12 380.12,-137.07"/>
<polygon fill="#63b8ff" stroke="#63b8ff" points="380.69,-133.6 370.14,-134.54 378.98,-140.39 380.69,-133.6"/>
</a>
</g>
</g>
<!-- Node31 -->
<g id="Node000031" class="node">
<title>Node31</title>
<g id="a_Node000031"><a xlink:href="caja-undostack-manager_8h.html" target="_top" xlink:title=" ">
<polygon fill="#fff0f0" stroke="red" points="783,-134.5 647,-134.5 647,-115.5 783,-115.5 783,-134.5"/>
<text text-anchor="middle" x="715" y="-122.5" font-family="Inter" font-size="10.00">caja&#45;undostack&#45;manager.h</text>
</a>
</g>
</g>
<!-- Node28&#45;&gt;Node31 -->
<g id="edge42_Node000028_Node000031" class="edge">
<title>Node28&#45;&gt;Node31</title>
<g id="a_edge42_Node000028_Node000031"><a xlink:title=" ">
<path fill="none" stroke="#63b8ff" d="M715,-181.37C715,-172.16 715,-157.29 715,-145.27"/>
<polygon fill="#63b8ff" stroke="#63b8ff" points="718.5,-144.91 715,-134.91 711.5,-144.91 718.5,-144.91"/>
</a>
</g>
</g>
<!-- Node29&#45;&gt;Node3 -->
<g id="edge38_Node000029_Node000003" class="edge">
<title>Node29&#45;&gt;Node3</title>
<g id="a_edge38_Node000029_Node000003"><a xlink:title=" ">
<path fill="none" stroke="#63b8ff" d="M325.1,-115.37C308.69,-105.86 282.07,-90.45 262.77,-79.27"/>
<polygon fill="#63b8ff" stroke="#63b8ff" points="264.37,-76.15 253.96,-74.17 260.86,-82.21 264.37,-76.15"/>
</a>
</g>
</g>
<!-- Node29&#45;&gt;Node8 -->
<g id="edge37_Node000029_Node000008" class="edge">
<title>Node29&#45;&gt;Node8</title>
<g id="a_edge37_Node000029_Node000008"><a xlink:title=" ">
<path fill="none" stroke="#63b8ff" d="M358.32,-115.49C379.41,-105.7 414.26,-89.52 438.58,-78.23"/>
<polygon fill="#63b8ff" stroke="#63b8ff" points="440.06,-81.4 447.66,-74.02 437.11,-75.05 440.06,-81.4"/>
</a>
</g>
</g>
<!-- Node31&#45;&gt;Node4 -->
<g id="edge44_Node000031_Node000004" class="edge">
<title>Node31&#45;&gt;Node4</title>
<g id="a_edge44_Node000031_Node000004"><a xlink:title=" ">
<path fill="none" stroke="#63b8ff" d="M736.48,-115.41C773.81,-100.82 853.33,-71.21 923,-55 1023.59,-31.6 1144.86,-18.95 1206.24,-13.61"/>
<polygon fill="#63b8ff" stroke="#63b8ff" points="1206.61,-17.09 1216.28,-12.76 1206.02,-10.12 1206.61,-17.09"/>
</a>
</g>
</g>
<!-- Node31&#45;&gt;Node5 -->
<g id="edge45_Node000031_Node000005" class="edge">
<title>Node31&#45;&gt;Node5</title>
<g id="a_edge45_Node000031_Node000005"><a xlink:title=" ">
<path fill="none" stroke="#63b8ff" d="M718.61,-115.47C726.39,-97.06 744.9,-53.29 755.4,-28.48"/>
<polygon fill="#63b8ff" stroke="#63b8ff" points="758.68,-29.7 759.35,-19.13 752.23,-26.98 758.68,-29.7"/>
</a>
</g>
</g>
<!-- Node31&#45;&gt;Node8 -->
<g id="edge43_Node000031_Node000008" class="edge">
<title>Node31&#45;&gt;Node8</title>
<g id="a_edge43_Node000031_Node000008"><a xlink:title=" ">
<path fill="none" stroke="#63b8ff" d="M678.79,-115.49C629.76,-103.97 543.09,-83.61 496.94,-72.77"/>
<polygon fill="#63b8ff" stroke="#63b8ff" points="497.74,-69.36 487.2,-70.48 496.13,-76.18 497.74,-69.36"/>
</a>
</g>
</g>
<!-- Node32&#45;&gt;Node4 -->
<g id="edge48_Node000032_Node000004" class="edge">
<title>Node32&#45;&gt;Node4</title>
<g id="a_edge48_Node000032_Node000004"><a xlink:title=" ">
<path fill="none" stroke="#63b8ff" d="M1246,-54.75C1246,-47.8 1246,-37.85 1246,-29.13"/>
<polygon fill="#63b8ff" stroke="#63b8ff" points="1249.5,-29.09 1246,-19.09 1242.5,-29.09 1249.5,-29.09"/>
</a>
</g>
</g>
<!-- Node32&#45;&gt;Node5 -->
<g id="edge47_Node000032_Node000005" class="edge">
<title>Node32&#45;&gt;Node5</title>
<g id="a_edge47_Node000032_Node000005"><a xlink:title=" ">
<path fill="none" stroke="#63b8ff" d="M1197.92,-58.22C1102.31,-47.73 889.96,-24.43 802.16,-14.8"/>
<polygon fill="#63b8ff" stroke="#63b8ff" points="802.41,-11.3 792.09,-13.69 801.65,-18.26 802.41,-11.3"/>
</a>
</g>
</g>
</g>
</svg>
