<?xml version="1.0" encoding="UTF-8" standalone="no"?>
<!DOCTYPE svg PUBLIC "-//W3C//DTD SVG 1.1//EN"
 "http://www.w3.org/Graphics/SVG/1.1/DTD/svg11.dtd">
<!-- Generated by graphviz version 2.43.0 (0)
 -->
<!-- Title: callbacks.c Pages: 1 -->
<svg width="694pt" height="203pt"
 viewBox="0.00 0.00 694.00 203.00" xmlns="http://www.w3.org/2000/svg" xmlns:xlink="http://www.w3.org/1999/xlink">
<g id="graph0" class="graph" transform="scale(1 1) rotate(0) translate(4 199)">
<title>callbacks.c</title>
<!-- Node1 -->
<g id="Node000001" class="node">
<title>Node1</title>
<g id="a_Node000001"><a xlink:title=" ">
<polygon fill="#999999" stroke="#666666" points="379.5,-195 315.5,-195 315.5,-176 379.5,-176 379.5,-195"/>
<text text-anchor="middle" x="347.5" y="-183" font-family="Inter" font-size="10.00">callbacks.c</text>
</a>
</g>
</g>
<!-- Node2 -->
<g id="Node000002" class="node">
<title>Node2</title>
<g id="a_Node000002"><a xlink:title=" ">
<polygon fill="#e0e0e0" stroke="#999999" points="53,-140 0,-140 0,-121 53,-121 53,-140"/>
<text text-anchor="middle" x="26.5" y="-128" font-family="Inter" font-size="10.00">string.h</text>
</a>
</g>
</g>
<!-- Node1&#45;&gt;Node2 -->
<g id="edge1_Node000001_Node000002" class="edge">
<title>Node1&#45;&gt;Node2</title>
<g id="a_edge1_Node000001_Node000002"><a xlink:title=" ">
<path fill="none" stroke="#63b8ff" d="M315.08,-179.85C262.83,-172.25 156.83,-156.35 67.5,-140 66.21,-139.76 64.9,-139.52 63.58,-139.27"/>
<polygon fill="#63b8ff" stroke="#63b8ff" points="63.86,-135.76 53.37,-137.26 62.51,-142.62 63.86,-135.76"/>
</a>
</g>
</g>
<!-- Node3 -->
<g id="Node000003" class="node">
<title>Node3</title>
<g id="a_Node000003"><a xlink:title=" ">
<polygon fill="#e0e0e0" stroke="#999999" points="481,-19 422,-19 422,0 481,0 481,-19"/>
<text text-anchor="middle" x="451.5" y="-7" font-family="Inter" font-size="10.00">gtk/gtk.h</text>
</a>
</g>
</g>
<!-- Node1&#45;&gt;Node3 -->
<g id="edge2_Node000001_Node000003" class="edge">
<title>Node1&#45;&gt;Node3</title>
<g id="a_edge2_Node000001_Node000003"><a xlink:title=" ">
<path fill="none" stroke="#63b8ff" d="M352.8,-175.63C369.15,-148.29 418.99,-64.9 440.93,-28.18"/>
<polygon fill="#63b8ff" stroke="#63b8ff" points="444.21,-29.52 446.33,-19.14 438.2,-25.93 444.21,-29.52"/>
</a>
</g>
</g>
<!-- Node4 -->
<g id="Node000004" class="node">
<title>Node4</title>
<g id="a_Node000004"><a xlink:title=" ">
<polygon fill="#e0e0e0" stroke="#999999" points="181.5,-140 109.5,-140 109.5,-121 181.5,-121 181.5,-140"/>
<text text-anchor="middle" x="145.5" y="-128" font-family="Inter" font-size="10.00">glib/gi18n.h</text>
</a>
</g>
</g>
<!-- Node1&#45;&gt;Node4 -->
<g id="edge3_Node000001_Node000004" class="edge">
<title>Node1&#45;&gt;Node4</title>
<g id="a_edge3_Node000001_Node000004"><a xlink:title=" ">
<path fill="none" stroke="#63b8ff" d="M315.49,-176.1C280.98,-167.05 225.87,-152.59 187.8,-142.6"/>
<polygon fill="#63b8ff" stroke="#63b8ff" points="188.59,-139.19 178.03,-140.03 186.81,-145.96 188.59,-139.19"/>
</a>
</g>
</g>
<!-- Node5 -->
<g id="Node000005" class="node">
<title>Node5</title>
<g id="a_Node000005"><a xlink:title=" ">
<polygon fill="#e0e0e0" stroke="#999999" points="304.5,-19 246.5,-19 246.5,0 304.5,0 304.5,-19"/>
<text text-anchor="middle" x="275.5" y="-7" font-family="Inter" font-size="10.00">gio/gio.h</text>
</a>
</g>
</g>
<!-- Node1&#45;&gt;Node5 -->
<g id="edge4_Node000001_Node000005" class="edge">
<title>Node1&#45;&gt;Node5</title>
<g id="a_edge4_Node000001_Node000005"><a xlink:title=" ">
<path fill="none" stroke="#63b8ff" d="M340.48,-175.93C330.07,-163.39 309.68,-139.53 290.5,-121 272.57,-103.68 258.05,-107.58 247.5,-85 238.51,-65.74 250.43,-42.73 261.38,-27.43"/>
<polygon fill="#63b8ff" stroke="#63b8ff" points="264.23,-29.46 267.55,-19.4 258.68,-25.2 264.23,-29.46"/>
</a>
</g>
</g>
<!-- Node6 -->
<g id="Node000006" class="node">
<title>Node6</title>
<g id="a_Node000006"><a xlink:href="baobab_8h.html" target="_top" xlink:title=" ">
<polygon fill="white" stroke="#666666" points="200.5,-79.5 140.5,-79.5 140.5,-60.5 200.5,-60.5 200.5,-79.5"/>
<text text-anchor="middle" x="170.5" y="-67.5" font-family="Inter" font-size="10.00">baobab.h</text>
</a>
</g>
</g>
<!-- Node1&#45;&gt;Node6 -->
<g id="edge5_Node000001_Node000006" class="edge">
<title>Node1&#45;&gt;Node6</title>
<g id="a_edge5_Node000001_Node000006"><a xlink:title=" ">
<path fill="none" stroke="#63b8ff" d="M315.36,-183.62C254.82,-181.22 127.54,-172.34 100.5,-140 83.05,-119.13 114.48,-97.49 140.68,-84.14"/>
<polygon fill="#63b8ff" stroke="#63b8ff" points="142.53,-87.13 149.99,-79.61 139.47,-80.84 142.53,-87.13"/>
</a>
</g>
</g>
<!-- Node10 -->
<g id="Node000010" class="node">
<title>Node10</title>
<g id="a_Node000010"><a xlink:href="baobab-treeview_8h.html" target="_top" xlink:title=" ">
<polygon fill="white" stroke="#666666" points="542.5,-79.5 440.5,-79.5 440.5,-60.5 542.5,-60.5 542.5,-79.5"/>
<text text-anchor="middle" x="491.5" y="-67.5" font-family="Inter" font-size="10.00">baobab&#45;treeview.h</text>
</a>
</g>
</g>
<!-- Node1&#45;&gt;Node10 -->
<g id="edge11_Node000001_Node000010" class="edge">
<title>Node1&#45;&gt;Node10</title>
<g id="a_edge11_Node000001_Node000010"><a xlink:title=" ">
<path fill="none" stroke="#63b8ff" d="M366.36,-175.89C383.02,-167.84 407.53,-154.84 426.5,-140 446.43,-124.4 465.88,-102.64 478.23,-87.75"/>
<polygon fill="#63b8ff" stroke="#63b8ff" points="481.03,-89.84 484.63,-79.87 475.6,-85.43 481.03,-89.84"/>
</a>
</g>
</g>
<!-- Node11 -->
<g id="Node000011" class="node">
<title>Node11</title>
<g id="a_Node000011"><a xlink:href="baobab-utils_8h.html" target="_top" xlink:title=" ">
<polygon fill="white" stroke="#666666" points="281.5,-140 199.5,-140 199.5,-121 281.5,-121 281.5,-140"/>
<text text-anchor="middle" x="240.5" y="-128" font-family="Inter" font-size="10.00">baobab&#45;utils.h</text>
</a>
</g>
</g>
<!-- Node1&#45;&gt;Node11 -->
<g id="edge13_Node000001_Node000011" class="edge">
<title>Node1&#45;&gt;Node11</title>
<g id="a_edge13_Node000001_Node000011"><a xlink:title=" ">
<path fill="none" stroke="#63b8ff" d="M330.31,-175.98C313.25,-167.54 286.87,-154.47 267.1,-144.68"/>
<polygon fill="#63b8ff" stroke="#63b8ff" points="268.52,-141.47 258,-140.17 265.41,-147.75 268.52,-141.47"/>
</a>
</g>
</g>
<!-- Node12 -->
<g id="Node000012" class="node">
<title>Node12</title>
<g id="a_Node000012"><a xlink:href="mate-utils_2baobab_2src_2callbacks_8h.html" target="_top" xlink:title=" ">
<polygon fill="white" stroke="#666666" points="544,-140 479,-140 479,-121 544,-121 544,-140"/>
<text text-anchor="middle" x="511.5" y="-128" font-family="Inter" font-size="10.00">callbacks.h</text>
</a>
</g>
</g>
<!-- Node1&#45;&gt;Node12 -->
<g id="edge15_Node000001_Node000012" class="edge">
<title>Node1&#45;&gt;Node12</title>
<g id="a_edge15_Node000001_Node000012"><a xlink:title=" ">
<path fill="none" stroke="#63b8ff" d="M373.85,-175.98C401.26,-167.13 444.39,-153.19 475.06,-143.28"/>
<polygon fill="#63b8ff" stroke="#63b8ff" points="476.5,-146.49 484.94,-140.08 474.35,-139.83 476.5,-146.49"/>
</a>
</g>
</g>
<!-- Node13 -->
<g id="Node000013" class="node">
<title>Node13</title>
<g id="a_Node000013"><a xlink:href="baobab-chart_8h.html" target="_top" xlink:title=" ">
<polygon fill="white" stroke="#666666" points="686,-79.5 599,-79.5 599,-60.5 686,-60.5 686,-79.5"/>
<text text-anchor="middle" x="642.5" y="-67.5" font-family="Inter" font-size="10.00">baobab&#45;chart.h</text>
</a>
</g>
</g>
<!-- Node1&#45;&gt;Node13 -->
<g id="edge23_Node000001_Node000013" class="edge">
<title>Node1&#45;&gt;Node13</title>
<g id="a_edge23_Node000001_Node000013"><a xlink:title=" ">
<path fill="none" stroke="#63b8ff" d="M379.69,-184.96C451.77,-185.22 622.63,-181.36 658.5,-140 670.79,-125.82 662.75,-104.04 654.24,-88.74"/>
<polygon fill="#63b8ff" stroke="#63b8ff" points="656.98,-86.51 648.8,-79.78 651,-90.14 656.98,-86.51"/>
</a>
</g>
</g>
<!-- Node14 -->
<g id="Node000014" class="node">
<title>Node14</title>
<g id="a_Node000014"><a xlink:href="baobab-prefs_8h.html" target="_top" xlink:title=" ">
<polygon fill="white" stroke="#666666" points="649,-140 562,-140 562,-121 649,-121 649,-140"/>
<text text-anchor="middle" x="605.5" y="-128" font-family="Inter" font-size="10.00">baobab&#45;prefs.h</text>
</a>
</g>
</g>
<!-- Node1&#45;&gt;Node14 -->
<g id="edge19_Node000001_Node000014" class="edge">
<title>Node1&#45;&gt;Node14</title>
<g id="a_edge19_Node000001_Node000014"><a xlink:title=" ">
<path fill="none" stroke="#63b8ff" d="M379.65,-177.89C423.34,-168.92 501.96,-152.77 553.94,-142.09"/>
<polygon fill="#63b8ff" stroke="#63b8ff" points="554.88,-145.47 563.97,-140.03 553.47,-138.62 554.88,-145.47"/>
</a>
</g>
</g>
<!-- Node15 -->
<g id="Node000015" class="node">
<title>Node15</title>
<g id="a_Node000015"><a xlink:href="baobab-remote-connect-dialog_8h.html" target="_top" xlink:title=" ">
<polygon fill="white" stroke="#666666" points="384.5,-85 256.5,-85 256.5,-55 384.5,-55 384.5,-85"/>
<text text-anchor="start" x="264.5" y="-73" font-family="Inter" font-size="10.00">baobab&#45;remote&#45;connect</text>
<text text-anchor="middle" x="320.5" y="-62" font-family="Inter" font-size="10.00">&#45;dialog.h</text>
</a>
</g>
</g>
<!-- Node1&#45;&gt;Node15 -->
<g id="edge20_Node000001_Node000015" class="edge">
<title>Node1&#45;&gt;Node15</title>
<g id="a_edge20_Node000001_Node000015"><a xlink:title=" ">
<path fill="none" stroke="#63b8ff" d="M345.47,-175.97C341.44,-159.01 332.28,-120.5 326.24,-95.14"/>
<polygon fill="#63b8ff" stroke="#63b8ff" points="329.59,-94.1 323.87,-85.18 322.78,-95.72 329.59,-94.1"/>
</a>
</g>
</g>
<!-- Node6&#45;&gt;Node3 -->
<g id="edge9_Node000006_Node000003" class="edge">
<title>Node6&#45;&gt;Node3</title>
<g id="a_edge9_Node000006_Node000003"><a xlink:title=" ">
<path fill="none" stroke="#63b8ff" d="M200.57,-62.74C251.49,-52.14 354.67,-30.66 411.58,-18.81"/>
<polygon fill="#63b8ff" stroke="#63b8ff" points="412.57,-22.18 421.64,-16.72 411.14,-15.33 412.57,-22.18"/>
</a>
</g>
</g>
<!-- Node6&#45;&gt;Node5 -->
<g id="edge10_Node000006_Node000005" class="edge">
<title>Node6&#45;&gt;Node5</title>
<g id="a_edge10_Node000006_Node000005"><a xlink:title=" ">
<path fill="none" stroke="#63b8ff" d="M185.99,-60.37C203.13,-50.82 230.97,-35.31 251.06,-24.12"/>
<polygon fill="#63b8ff" stroke="#63b8ff" points="252.91,-27.09 259.94,-19.17 249.5,-20.98 252.91,-27.09"/>
</a>
</g>
</g>
<!-- Node7 -->
<g id="Node000007" class="node">
<title>Node7</title>
<g id="a_Node000007"><a xlink:title=" ">
<polygon fill="#e0e0e0" stroke="#999999" points="81,-19 34,-19 34,0 81,0 81,-19"/>
<text text-anchor="middle" x="57.5" y="-7" font-family="Inter" font-size="10.00">time.h</text>
</a>
</g>
</g>
<!-- Node6&#45;&gt;Node7 -->
<g id="edge6_Node000006_Node000007" class="edge">
<title>Node6&#45;&gt;Node7</title>
<g id="a_edge6_Node000006_Node000007"><a xlink:title=" ">
<path fill="none" stroke="#63b8ff" d="M153.83,-60.37C135.22,-50.73 104.88,-35.03 83.22,-23.81"/>
<polygon fill="#63b8ff" stroke="#63b8ff" points="84.73,-20.66 74.24,-19.17 81.51,-26.87 84.73,-20.66"/>
</a>
</g>
</g>
<!-- Node8 -->
<g id="Node000008" class="node">
<title>Node8</title>
<g id="a_Node000008"><a xlink:title=" ">
<polygon fill="#e0e0e0" stroke="#999999" points="168,-19 99,-19 99,0 168,0 168,-19"/>
<text text-anchor="middle" x="133.5" y="-7" font-family="Inter" font-size="10.00">sys/types.h</text>
</a>
</g>
</g>
<!-- Node6&#45;&gt;Node8 -->
<g id="edge7_Node000006_Node000008" class="edge">
<title>Node6&#45;&gt;Node8</title>
<g id="a_edge7_Node000006_Node000008"><a xlink:title=" ">
<path fill="none" stroke="#63b8ff" d="M165.04,-60.37C159.63,-51.81 151.19,-38.47 144.4,-27.74"/>
<polygon fill="#63b8ff" stroke="#63b8ff" points="147.29,-25.75 138.98,-19.17 141.37,-29.49 147.29,-25.75"/>
</a>
</g>
</g>
<!-- Node9 -->
<g id="Node000009" class="node">
<title>Node9</title>
<g id="a_Node000009"><a xlink:title=" ">
<polygon fill="#e0e0e0" stroke="#999999" points="228.5,-19 186.5,-19 186.5,0 228.5,0 228.5,-19"/>
<text text-anchor="middle" x="207.5" y="-7" font-family="Inter" font-size="10.00">glib.h</text>
</a>
</g>
</g>
<!-- Node6&#45;&gt;Node9 -->
<g id="edge8_Node000006_Node000009" class="edge">
<title>Node6&#45;&gt;Node9</title>
<g id="a_edge8_Node000006_Node000009"><a xlink:title=" ">
<path fill="none" stroke="#63b8ff" d="M175.96,-60.37C181.37,-51.81 189.81,-38.47 196.6,-27.74"/>
<polygon fill="#63b8ff" stroke="#63b8ff" points="199.63,-29.49 202.02,-19.17 193.71,-25.75 199.63,-29.49"/>
</a>
</g>
</g>
<!-- Node10&#45;&gt;Node3 -->
<g id="edge12_Node000010_Node000003" class="edge">
<title>Node10&#45;&gt;Node3</title>
<g id="a_edge12_Node000010_Node000003"><a xlink:title=" ">
<path fill="none" stroke="#63b8ff" d="M485.6,-60.37C479.75,-51.81 470.63,-38.47 463.29,-27.74"/>
<polygon fill="#63b8ff" stroke="#63b8ff" points="465.96,-25.45 457.43,-19.17 460.18,-29.4 465.96,-25.45"/>
</a>
</g>
</g>
<!-- Node11&#45;&gt;Node6 -->
<g id="edge14_Node000011_Node000006" class="edge">
<title>Node11&#45;&gt;Node6</title>
<g id="a_edge14_Node000011_Node000006"><a xlink:title=" ">
<path fill="none" stroke="#63b8ff" d="M230.17,-120.87C219.31,-111.8 202.01,-97.34 188.83,-86.32"/>
<polygon fill="#63b8ff" stroke="#63b8ff" points="190.79,-83.39 180.87,-79.67 186.3,-88.77 190.79,-83.39"/>
</a>
</g>
</g>
<!-- Node12&#45;&gt;Node3 -->
<g id="edge16_Node000012_Node000003" class="edge">
<title>Node12&#45;&gt;Node3</title>
<g id="a_edge16_Node000012_Node000003"><a xlink:title=" ">
<path fill="none" stroke="#63b8ff" d="M522.17,-120.97C538.52,-106.85 566.37,-77.9 551.5,-55 538.13,-34.41 512.78,-23.27 490.95,-17.28"/>
<polygon fill="#63b8ff" stroke="#63b8ff" points="491.77,-13.88 481.22,-14.88 490.09,-20.68 491.77,-13.88"/>
</a>
</g>
</g>
<!-- Node12&#45;&gt;Node13 -->
<g id="edge17_Node000012_Node000013" class="edge">
<title>Node12&#45;&gt;Node13</title>
<g id="a_edge17_Node000012_Node000013"><a xlink:title=" ">
<path fill="none" stroke="#63b8ff" d="M530.55,-120.99C552.47,-111.2 588.71,-95.02 614,-83.73"/>
<polygon fill="#63b8ff" stroke="#63b8ff" points="615.72,-86.79 623.43,-79.52 612.87,-80.4 615.72,-86.79"/>
</a>
</g>
</g>
<!-- Node13&#45;&gt;Node3 -->
<g id="edge18_Node000013_Node000003" class="edge">
<title>Node13&#45;&gt;Node3</title>
<g id="a_edge18_Node000013_Node000003"><a xlink:title=" ">
<path fill="none" stroke="#63b8ff" d="M614.73,-60.49C581.63,-50.36 526.16,-33.37 489.21,-22.05"/>
<polygon fill="#63b8ff" stroke="#63b8ff" points="489.89,-18.6 479.31,-19.02 487.84,-25.29 489.89,-18.6"/>
</a>
</g>
</g>
<!-- Node15&#45;&gt;Node3 -->
<g id="edge21_Node000015_Node000003" class="edge">
<title>Node15&#45;&gt;Node3</title>
<g id="a_edge21_Node000015_Node000003"><a xlink:title=" ">
<path fill="none" stroke="#63b8ff" d="M351.88,-54.99C373.44,-45.36 401.85,-32.67 422.81,-23.31"/>
<polygon fill="#63b8ff" stroke="#63b8ff" points="424.45,-26.41 432.15,-19.14 421.6,-20.02 424.45,-26.41"/>
</a>
</g>
</g>
<!-- Node15&#45;&gt;Node5 -->
<g id="edge22_Node000015_Node000005" class="edge">
<title>Node15&#45;&gt;Node5</title>
<g id="a_edge22_Node000015_Node000005"><a xlink:title=" ">
<path fill="none" stroke="#63b8ff" d="M309.61,-54.84C303.21,-46.52 295.08,-35.96 288.37,-27.23"/>
<polygon fill="#63b8ff" stroke="#63b8ff" points="291.11,-25.06 282.24,-19.27 285.57,-29.33 291.11,-25.06"/>
</a>
</g>
</g>
</g>
</svg>
