<?xml version="1.0" encoding="UTF-8" standalone="no"?>
<!DOCTYPE svg PUBLIC "-//W3C//DTD SVG 1.1//EN"
 "http://www.w3.org/Graphics/SVG/1.1/DTD/svg11.dtd">
<!-- Generated by graphviz version 2.43.0 (0)
 -->
<!-- Title: clock&#45;utils.h Pages: 1 -->
<!--zoomable 137 -->

<svg id="main" version="1.1" xmlns="http://www.w3.org/2000/svg" xmlns:xlink="http://www.w3.org/1999/xlink" xml:space="preserve" onload="init(evt)">

<style type="text/css"><![CDATA[
.node, .edge {opacity: 0.7;}
.node.selected, .edge.selected {opacity: 1;}
.edge:hover path { stroke: red; }
.edge:hover polygon { stroke: red; fill: red; }
]]></style>

<defs>
  <circle id="rim" cx="0" cy="0" r="7"/>
  <circle id="rim2" cx="0" cy="0" r="3.5"/>
  <g id="zoomPlus">
    <use xlink:href="#rim" fill="#404040"><set attributeName="fill" to="#808080" begin="zoomplus.mouseover" end="zoomplus.mouseout"/></use>
    <path d="M-4,0h8M0,-4v8" fill="none" stroke="white" stroke-width="1.5" pointer-events="none"/>
  </g>
  <g id="zoomMin">
    <use xlink:href="#rim" fill="#404040"><set attributeName="fill" to="#808080" begin="zoomminus.mouseover" end="zoomminus.mouseout"/></use>
    <path d="M-4,0h8" fill="none" stroke="white" stroke-width="1.5" pointer-events="none"/>
  </g>
  <g id="arrowUp" transform="translate(30 24)">
    <use xlink:href="#rim"/>
    <path pointer-events="none" fill="none" stroke="white" stroke-width="1.5" d="M0,-3.0v7 M-2.5,-0.5L0,-3.0L2.5,-0.5"/>
  </g>
  <g id="arrowRight" transform="rotate(90) translate(36 -43)">
    <use xlink:href="#rim"/>
    <path pointer-events="none" fill="none" stroke="white" stroke-width="1.5" d="M0,-3.0v7 M-2.5,-0.5L0,-3.0L2.5,-0.5"/>
  </g>
  <g id="arrowDown" transform="rotate(180) translate(-30 -48)">
    <use xlink:href="#rim"/>
    <path pointer-events="none" fill="none" stroke="white" stroke-width="1.5" d="M0,-3.0v7 M-2.5,-0.5L0,-3.0L2.5,-0.5"/>
  </g>
  <g id="arrowLeft" transform="rotate(270) translate(-36 17)">
    <use xlink:href="#rim"/>
    <path pointer-events="none" fill="none" stroke="white" stroke-width="1.5" d="M0,-3.0v7 M-2.5,-0.5L0,-3.0L2.5,-0.5"/>
  </g>
  <g id="resetDef">
    <use xlink:href="#rim2" fill="#404040"><set attributeName="fill" to="#808080" begin="reset.mouseover" end="reset.mouseout"/></use>
  </g>
</defs>
<script type="application/ecmascript">
var viewWidth = 651;
var viewHeight = 137;
var sectionId = 'dynsection-1';
</script>
<script type="application/ecmascript" xlink:href="svg.min.js"/>
<svg id="graph" class="graph">
<g id="viewport">
<title>clock&#45;utils.h</title>
<!-- Node1 -->
<g id="Node000001" class="node">
<title>Node1</title>
<g id="a_Node000001"><a xlink:title=" ">
<polygon fill="#999999" stroke="#666666" points="327,-129 257,-129 257,-110 327,-110 327,-129"/>
<text text-anchor="middle" x="292" y="-117" font-family="Inter" font-size="10.00">clock&#45;utils.h</text>
</a>
</g>
</g>
<!-- Node2 -->
<g id="Node000002" class="node">
<title>Node2</title>
<g id="a_Node000002"><a xlink:href="calendar-window_8c.html" target="_top" xlink:title=" ">
<polygon fill="white" stroke="#666666" points="102,-19 0,-19 0,0 102,0 102,-19"/>
<text text-anchor="middle" x="51" y="-7" font-family="Inter" font-size="10.00">calendar&#45;window.c</text>
</a>
</g>
</g>
<!-- Node1&#45;&gt;Node2 -->
<g id="edge1_Node000001_Node000002" class="edge">
<title>Node1&#45;&gt;Node2</title>
<g id="a_edge1_Node000001_Node000002"><a xlink:title=" ">
<path fill="none" stroke="#63b8ff" d="M246.57,-117.36C180.38,-114.63 62.39,-105.38 36,-74 22.73,-58.22 35.91,-32.78 44.64,-19.4"/>
<polygon fill="#63b8ff" stroke="#63b8ff" points="246.61,-120.86 256.73,-117.74 246.87,-113.87 246.61,-120.86"/>
</a>
</g>
</g>
<!-- Node3 -->
<g id="Node000003" class="node">
<title>Node3</title>
<g id="a_Node000003"><a xlink:href="calendar-window_8h.html" target="_top" xlink:title=" ">
<polygon fill="white" stroke="#666666" points="149,-74 45,-74 45,-55 149,-55 149,-74"/>
<text text-anchor="middle" x="97" y="-62" font-family="Inter" font-size="10.00">calendar&#45;window.h</text>
</a>
</g>
</g>
<!-- Node1&#45;&gt;Node3 -->
<g id="edge2_Node000001_Node000003" class="edge">
<title>Node1&#45;&gt;Node3</title>
<g id="a_edge2_Node000001_Node000003"><a xlink:title=" ">
<path fill="none" stroke="#63b8ff" d="M250.83,-107.31C214.34,-97.39 161.83,-83.12 128.58,-74.08"/>
<polygon fill="#63b8ff" stroke="#63b8ff" points="250.1,-110.74 260.67,-109.98 251.94,-103.98 250.1,-110.74"/>
</a>
</g>
</g>
<!-- Node4 -->
<g id="Node000004" class="node">
<title>Node4</title>
<g id="a_Node000004"><a xlink:href="clock_8c.html" target="_top" xlink:title=" ">
<polygon fill="white" stroke="#666666" points="200.5,-19 153.5,-19 153.5,0 200.5,0 200.5,-19"/>
<text text-anchor="middle" x="177" y="-7" font-family="Inter" font-size="10.00">clock.c</text>
</a>
</g>
</g>
<!-- Node1&#45;&gt;Node4 -->
<g id="edge12_Node000001_Node000004" class="edge">
<title>Node1&#45;&gt;Node4</title>
<g id="a_edge12_Node000001_Node000004"><a xlink:title=" ">
<path fill="none" stroke="#63b8ff" d="M247.36,-106.69C229.19,-99.84 209.35,-89.42 196,-74 182.29,-58.17 178.47,-32.75 177.41,-19.38"/>
<polygon fill="#63b8ff" stroke="#63b8ff" points="246.36,-110.04 256.96,-110.04 248.67,-103.44 246.36,-110.04"/>
</a>
</g>
</g>
<!-- Node5 -->
<g id="Node000005" class="node">
<title>Node5</title>
<g id="a_Node000005"><a xlink:href="clock-face_8c.html" target="_top" xlink:title=" ">
<polygon fill="white" stroke="#666666" points="274.5,-74 205.5,-74 205.5,-55 274.5,-55 274.5,-74"/>
<text text-anchor="middle" x="240" y="-62" font-family="Inter" font-size="10.00">clock&#45;face.c</text>
</a>
</g>
</g>
<!-- Node1&#45;&gt;Node5 -->
<g id="edge5_Node000001_Node000005" class="edge">
<title>Node1&#45;&gt;Node5</title>
<g id="a_edge5_Node000001_Node000005"><a xlink:title=" ">
<path fill="none" stroke="#63b8ff" d="M276.32,-102.52C267.16,-93.18 255.95,-81.75 248.43,-74.09"/>
<polygon fill="#63b8ff" stroke="#63b8ff" points="273.91,-105.06 283.41,-109.75 278.91,-100.16 273.91,-105.06"/>
</a>
</g>
</g>
<!-- Node6 -->
<g id="Node000006" class="node">
<title>Node6</title>
<g id="a_Node000006"><a xlink:href="clock-location-tile_8c.html" target="_top" xlink:title=" ">
<polygon fill="white" stroke="#666666" points="436.5,-19 333.5,-19 333.5,0 436.5,0 436.5,-19"/>
<text text-anchor="middle" x="385" y="-7" font-family="Inter" font-size="10.00">clock&#45;location&#45;tile.c</text>
</a>
</g>
</g>
<!-- Node1&#45;&gt;Node6 -->
<g id="edge6_Node000001_Node000006" class="edge">
<title>Node1&#45;&gt;Node6</title>
<g id="a_edge6_Node000001_Node000006"><a xlink:title=" ">
<path fill="none" stroke="#63b8ff" d="M337.06,-113.19C361.82,-107.71 390.57,-96.59 406,-74 417.79,-56.74 402.62,-32.36 392.57,-19.4"/>
<polygon fill="#63b8ff" stroke="#63b8ff" points="336.23,-109.78 327.09,-115.15 337.58,-116.65 336.23,-109.78"/>
</a>
</g>
</g>
<!-- Node7 -->
<g id="Node000007" class="node">
<title>Node7</title>
<g id="a_Node000007"><a xlink:href="clock-location-tile_8h.html" target="_top" xlink:title=" ">
<polygon fill="white" stroke="#666666" points="397,-74 293,-74 293,-55 397,-55 397,-74"/>
<text text-anchor="middle" x="345" y="-62" font-family="Inter" font-size="10.00">clock&#45;location&#45;tile.h</text>
</a>
</g>
</g>
<!-- Node1&#45;&gt;Node7 -->
<g id="edge7_Node000001_Node000007" class="edge">
<title>Node1&#45;&gt;Node7</title>
<g id="a_edge7_Node000001_Node000007"><a xlink:title=" ">
<path fill="none" stroke="#63b8ff" d="M307.98,-102.52C317.32,-93.18 328.75,-81.75 336.41,-74.09"/>
<polygon fill="#63b8ff" stroke="#63b8ff" points="305.35,-100.2 300.75,-109.75 310.3,-105.15 305.35,-100.2"/>
</a>
</g>
</g>
<!-- Node8 -->
<g id="Node000008" class="node">
<title>Node8</title>
<g id="a_Node000008"><a xlink:href="clock-typebuiltins_8c.html" target="_top" xlink:title=" ">
<polygon fill="white" stroke="#666666" points="557,-74 453,-74 453,-55 557,-55 557,-74"/>
<text text-anchor="middle" x="505" y="-62" font-family="Inter" font-size="10.00">clock&#45;typebuiltins.c</text>
</a>
</g>
</g>
<!-- Node1&#45;&gt;Node8 -->
<g id="edge10_Node000001_Node000008" class="edge">
<title>Node1&#45;&gt;Node8</title>
<g id="a_edge10_Node000001_Node000008"><a xlink:title=" ">
<path fill="none" stroke="#63b8ff" d="M335.95,-107.56C375.84,-97.64 433.87,-83.2 470.51,-74.08"/>
<polygon fill="#63b8ff" stroke="#63b8ff" points="335.08,-104.17 326.22,-109.98 336.77,-110.97 335.08,-104.17"/>
</a>
</g>
</g>
<!-- Node9 -->
<g id="Node000009" class="node">
<title>Node9</title>
<g id="a_Node000009"><a xlink:href="clock-utils_8c.html" target="_top" xlink:title=" ">
<polygon fill="white" stroke="#666666" points="643,-74 575,-74 575,-55 643,-55 643,-74"/>
<text text-anchor="middle" x="609" y="-62" font-family="Inter" font-size="10.00">clock&#45;utils.c</text>
</a>
</g>
</g>
<!-- Node1&#45;&gt;Node9 -->
<g id="edge11_Node000001_Node000009" class="edge">
<title>Node1&#45;&gt;Node9</title>
<g id="a_edge11_Node000001_Node000009"><a xlink:title=" ">
<path fill="none" stroke="#63b8ff" d="M337.1,-111.66C391.47,-103.3 485.57,-88.48 566,-74 568.85,-73.49 571.79,-72.94 574.75,-72.38"/>
<polygon fill="#63b8ff" stroke="#63b8ff" points="336.45,-108.22 327.1,-113.19 337.51,-115.14 336.45,-108.22"/>
</a>
</g>
</g>
<!-- Node3&#45;&gt;Node2 -->
<g id="edge3_Node000003_Node000002" class="edge">
<title>Node3&#45;&gt;Node2</title>
<g id="a_edge3_Node000003_Node000002"><a xlink:title=" ">
<path fill="none" stroke="#63b8ff" d="M82.64,-46.96C74.63,-37.72 64.97,-26.6 58.45,-19.09"/>
<polygon fill="#63b8ff" stroke="#63b8ff" points="80.21,-49.49 89.4,-54.75 85.49,-44.9 80.21,-49.49"/>
</a>
</g>
</g>
<!-- Node3&#45;&gt;Node4 -->
<g id="edge4_Node000003_Node000004" class="edge">
<title>Node3&#45;&gt;Node4</title>
<g id="a_edge4_Node000003_Node000004"><a xlink:title=" ">
<path fill="none" stroke="#63b8ff" d="M118.25,-49.42C132.76,-39.81 151.54,-27.37 163.91,-19.17"/>
<polygon fill="#63b8ff" stroke="#63b8ff" points="116.26,-46.54 109.85,-54.98 120.12,-52.38 116.26,-46.54"/>
</a>
</g>
</g>
<!-- Node7&#45;&gt;Node4 -->
<g id="edge9_Node000007_Node000004" class="edge">
<title>Node7&#45;&gt;Node4</title>
<g id="a_edge9_Node000007_Node000004"><a xlink:title=" ">
<path fill="none" stroke="#63b8ff" d="M308.35,-51.94C275.63,-41.61 228.67,-26.8 200.67,-17.97"/>
<polygon fill="#63b8ff" stroke="#63b8ff" points="307.42,-55.31 318.01,-54.98 309.52,-48.64 307.42,-55.31"/>
</a>
</g>
</g>
<!-- Node7&#45;&gt;Node6 -->
<g id="edge8_Node000007_Node000006" class="edge">
<title>Node7&#45;&gt;Node6</title>
<g id="a_edge8_Node000007_Node000006"><a xlink:title=" ">
<path fill="none" stroke="#63b8ff" d="M357.7,-46.67C364.63,-37.5 372.91,-26.52 378.52,-19.09"/>
<polygon fill="#63b8ff" stroke="#63b8ff" points="354.84,-44.66 351.61,-54.75 360.42,-48.87 354.84,-44.66"/>
</a>
</g>
</g>
</g>
</svg>

<g id="navigator" transform="translate(0 0)" fill="#404254">
  <rect fill="#f2f5e9" fill-opacity="0.5" stroke="#606060" stroke-width=".5" x="0" y="0" width="60" height="60"/>
  <use id="zoomplus" xlink:href="#zoomPlus" x="17" y="9" onmousedown="handleZoom(evt,'in')"/>
  <use id="zoomminus" xlink:href="#zoomMin" x="42" y="9" onmousedown="handleZoom(evt,'out')"/>
  <use id="reset" xlink:href="#resetDef" x="30" y="36" onmousedown="handleReset()"/>
   <use id="arrowup" xlink:href="#arrowUp" x="0" y="0" onmousedown="handlePan(0,-1)"/>
  <use id="arrowright" xlink:href="#arrowRight" x="0" y="0" onmousedown="handlePan(1,0)"/>
  <use id="arrowdown" xlink:href="#arrowDown" x="0" y="0" onmousedown="handlePan(0,1)"/>
  <use id="arrowleft" xlink:href="#arrowLeft" x="0" y="0" onmousedown="handlePan(-1,0)"/>
</g>
<svg viewBox="0 0 15 15" width="100%" height="30px" preserveAspectRatio="xMaxYMin meet">
 <g id="arrow_out" transform="scale(0.3 0.3)">
  <a xlink:href="clock-utils_8h__dep__incl_org.svg" target="_base">
   <rect id="button" ry="5" rx="5" y="6" x="6" height="38" width="38"
        fill="#f2f5e9" fill-opacity="0.5" stroke="#606060" stroke-width="1.0"/>
   <path id="arrow"
     d="M 11.500037,31.436501 C 11.940474,20.09759 22.043105,11.32322 32.158766,21.979434 L 37.068811,17.246167 C 37.068811,17.246167 37.088388,32 37.088388,32 L 22.160133,31.978069 C 22.160133,31.978069 26.997745,27.140456 26.997745,27.140456 C 18.528582,18.264221 13.291696,25.230495 11.500037,31.436501 z"
     style="fill:#404040;"/>
  </a>
 </g>
</svg>

<style type='text/css'>
<![CDATA[
[data-mouse-over-selected='false'] { opacity: 0.7; }
[data-mouse-over-selected='true']  { opacity: 1.0; }
]]>
</style>
<script type="application/ecmascript"><![CDATA[
document.addEventListener('DOMContentLoaded', (event) => {
  highlightEdges();
  highlightAdjacentNodes();
});
]]></script>
</svg>
