<?xml version="1.0" encoding="UTF-8" standalone="no"?>
<!DOCTYPE svg PUBLIC "-//W3C//DTD SVG 1.1//EN"
 "http://www.w3.org/Graphics/SVG/1.1/DTD/svg11.dtd">
<!-- Generated by graphviz version 2.43.0 (0)
 -->
<!-- Title: clock.h Pages: 1 -->
<svg width="610pt" height="137pt"
 viewBox="0.00 0.00 610.00 137.00" xmlns="http://www.w3.org/2000/svg" xmlns:xlink="http://www.w3.org/1999/xlink">
<g id="graph0" class="graph" transform="scale(1 1) rotate(0) translate(4 133)">
<title>clock.h</title>
<!-- Node1 -->
<g id="Node000001" class="node">
<title>Node1</title>
<g id="a_Node000001"><a xlink:title=" ">
<polygon fill="#999999" stroke="#666666" points="362,-129 314,-129 314,-110 362,-110 362,-129"/>
<text text-anchor="middle" x="338" y="-117" font-family="Inter" font-size="10.00">clock.h</text>
</a>
</g>
</g>
<!-- Node2 -->
<g id="Node000002" class="node">
<title>Node2</title>
<g id="a_Node000002"><a xlink:href="calendar-window_8c.html" target="_top" xlink:title=" ">
<polygon fill="white" stroke="#666666" points="102,-74 0,-74 0,-55 102,-55 102,-74"/>
<text text-anchor="middle" x="51" y="-62" font-family="Inter" font-size="10.00">calendar&#45;window.c</text>
</a>
</g>
</g>
<!-- Node1&#45;&gt;Node2 -->
<g id="edge1_Node000001_Node000002" class="edge">
<title>Node1&#45;&gt;Node2</title>
<g id="a_edge1_Node000001_Node000002"><a xlink:title=" ">
<path fill="none" stroke="#63b8ff" d="M303.56,-112.14C252.02,-102.62 154.75,-84.66 97.12,-74.02"/>
<polygon fill="#63b8ff" stroke="#63b8ff" points="303.06,-115.61 313.53,-113.98 304.33,-108.72 303.06,-115.61"/>
</a>
</g>
</g>
<!-- Node3 -->
<g id="Node000003" class="node">
<title>Node3</title>
<g id="a_Node000003"><a xlink:href="clock-face_8c.html" target="_top" xlink:title=" ">
<polygon fill="white" stroke="#666666" points="189.5,-74 120.5,-74 120.5,-55 189.5,-55 189.5,-74"/>
<text text-anchor="middle" x="155" y="-62" font-family="Inter" font-size="10.00">clock&#45;face.c</text>
</a>
</g>
</g>
<!-- Node1&#45;&gt;Node3 -->
<g id="edge2_Node000001_Node000003" class="edge">
<title>Node1&#45;&gt;Node3</title>
<g id="a_edge2_Node000001_Node000003"><a xlink:title=" ">
<path fill="none" stroke="#63b8ff" d="M303.66,-108.55C269.33,-98.61 217.09,-83.48 184.56,-74.06"/>
<polygon fill="#63b8ff" stroke="#63b8ff" points="303.12,-112.04 313.7,-111.46 305.07,-105.32 303.12,-112.04"/>
</a>
</g>
</g>
<!-- Node4 -->
<g id="Node000004" class="node">
<title>Node4</title>
<g id="a_Node000004"><a xlink:href="clock-location-tile_8c.html" target="_top" xlink:title=" ">
<polygon fill="white" stroke="#666666" points="303.5,-19 200.5,-19 200.5,0 303.5,0 303.5,-19"/>
<text text-anchor="middle" x="252" y="-7" font-family="Inter" font-size="10.00">clock&#45;location&#45;tile.c</text>
</a>
</g>
</g>
<!-- Node1&#45;&gt;Node4 -->
<g id="edge3_Node000001_Node000004" class="edge">
<title>Node1&#45;&gt;Node4</title>
<g id="a_edge3_Node000001_Node000004"><a xlink:title=" ">
<path fill="none" stroke="#63b8ff" d="M303.73,-113.24C280.59,-107.71 251.68,-96.51 237,-74 225.74,-56.73 238.07,-31.92 246.14,-19.02"/>
<polygon fill="#63b8ff" stroke="#63b8ff" points="303.05,-116.67 313.56,-115.34 304.51,-109.83 303.05,-116.67"/>
</a>
</g>
</g>
<!-- Node5 -->
<g id="Node000005" class="node">
<title>Node5</title>
<g id="a_Node000005"><a xlink:href="clock-location-tile_8h.html" target="_top" xlink:title=" ">
<polygon fill="white" stroke="#666666" points="350,-74 246,-74 246,-55 350,-55 350,-74"/>
<text text-anchor="middle" x="298" y="-62" font-family="Inter" font-size="10.00">clock&#45;location&#45;tile.h</text>
</a>
</g>
</g>
<!-- Node1&#45;&gt;Node5 -->
<g id="edge4_Node000001_Node000005" class="edge">
<title>Node1&#45;&gt;Node5</title>
<g id="a_edge4_Node000001_Node000005"><a xlink:title=" ">
<path fill="none" stroke="#63b8ff" d="M325.3,-101.67C318.37,-92.5 310.09,-81.52 304.48,-74.09"/>
<polygon fill="#63b8ff" stroke="#63b8ff" points="322.58,-103.87 331.39,-109.75 328.16,-99.66 322.58,-103.87"/>
</a>
</g>
</g>
<!-- Node6 -->
<g id="Node000006" class="node">
<title>Node6</title>
<g id="a_Node000006"><a xlink:href="clock_8c.html" target="_top" xlink:title=" ">
<polygon fill="white" stroke="#666666" points="401.5,-19 354.5,-19 354.5,0 401.5,0 401.5,-19"/>
<text text-anchor="middle" x="378" y="-7" font-family="Inter" font-size="10.00">clock.c</text>
</a>
</g>
</g>
<!-- Node1&#45;&gt;Node6 -->
<g id="edge12_Node000001_Node000006" class="edge">
<title>Node1&#45;&gt;Node6</title>
<g id="a_edge12_Node000001_Node000006"><a xlink:title=" ">
<path fill="none" stroke="#63b8ff" d="M347.16,-100.69C351.09,-92.66 355.56,-82.97 359,-74 366.33,-54.87 372.65,-31.64 375.82,-19.27"/>
<polygon fill="#63b8ff" stroke="#63b8ff" points="343.94,-99.3 342.58,-109.8 350.2,-102.44 343.94,-99.3"/>
</a>
</g>
</g>
<!-- Node7 -->
<g id="Node000007" class="node">
<title>Node7</title>
<g id="a_Node000007"><a xlink:href="clock-map_8c.html" target="_top" xlink:title=" ">
<polygon fill="white" stroke="#666666" points="515,-19 445,-19 445,0 515,0 515,-19"/>
<text text-anchor="middle" x="480" y="-7" font-family="Inter" font-size="10.00">clock&#45;map.c</text>
</a>
</g>
</g>
<!-- Node1&#45;&gt;Node7 -->
<g id="edge7_Node000001_Node000007" class="edge">
<title>Node1&#45;&gt;Node7</title>
<g id="a_edge7_Node000001_Node000007"><a xlink:title=" ">
<path fill="none" stroke="#63b8ff" d="M372.51,-119.11C407.71,-117.65 460.76,-109.22 487,-74 499.06,-57.81 490.43,-32.55 484.44,-19.29"/>
<polygon fill="#63b8ff" stroke="#63b8ff" points="372.12,-115.62 362.21,-119.36 372.29,-122.62 372.12,-115.62"/>
</a>
</g>
</g>
<!-- Node8 -->
<g id="Node000008" class="node">
<title>Node8</title>
<g id="a_Node000008"><a xlink:href="clock-map_8h.html" target="_top" xlink:title=" ">
<polygon fill="white" stroke="#666666" points="477.5,-74 406.5,-74 406.5,-55 477.5,-55 477.5,-74"/>
<text text-anchor="middle" x="442" y="-62" font-family="Inter" font-size="10.00">clock&#45;map.h</text>
</a>
</g>
</g>
<!-- Node1&#45;&gt;Node8 -->
<g id="edge8_Node000001_Node000008" class="edge">
<title>Node1&#45;&gt;Node8</title>
<g id="a_edge8_Node000001_Node000008"><a xlink:title=" ">
<path fill="none" stroke="#63b8ff" d="M363.77,-105.37C382.87,-95.63 408.37,-82.64 424.99,-74.17"/>
<polygon fill="#63b8ff" stroke="#63b8ff" points="362.03,-102.33 354.71,-109.98 365.21,-108.56 362.03,-102.33"/>
</a>
</g>
</g>
<!-- Node9 -->
<g id="Node000009" class="node">
<title>Node9</title>
<g id="a_Node000009"><a xlink:href="clock-utils_8c.html" target="_top" xlink:title=" ">
<polygon fill="white" stroke="#666666" points="602,-74 534,-74 534,-55 602,-55 602,-74"/>
<text text-anchor="middle" x="568" y="-62" font-family="Inter" font-size="10.00">clock&#45;utils.c</text>
</a>
</g>
</g>
<!-- Node1&#45;&gt;Node9 -->
<g id="edge11_Node000001_Node000009" class="edge">
<title>Node1&#45;&gt;Node9</title>
<g id="a_edge11_Node000001_Node000009"><a xlink:title=" ">
<path fill="none" stroke="#63b8ff" d="M371.99,-110.67C415.43,-100.66 490.2,-83.43 533.76,-73.39"/>
<polygon fill="#63b8ff" stroke="#63b8ff" points="371.14,-107.27 362.18,-112.93 372.71,-114.09 371.14,-107.27"/>
</a>
</g>
</g>
<!-- Node5&#45;&gt;Node4 -->
<g id="edge5_Node000005_Node000004" class="edge">
<title>Node5&#45;&gt;Node4</title>
<g id="a_edge5_Node000005_Node000004"><a xlink:title=" ">
<path fill="none" stroke="#63b8ff" d="M283.64,-46.96C275.63,-37.72 265.97,-26.6 259.45,-19.09"/>
<polygon fill="#63b8ff" stroke="#63b8ff" points="281.21,-49.49 290.4,-54.75 286.49,-44.9 281.21,-49.49"/>
</a>
</g>
</g>
<!-- Node5&#45;&gt;Node6 -->
<g id="edge6_Node000005_Node000006" class="edge">
<title>Node5&#45;&gt;Node6</title>
<g id="a_edge6_Node000005_Node000006"><a xlink:title=" ">
<path fill="none" stroke="#63b8ff" d="M319.25,-49.42C333.76,-39.81 352.54,-27.37 364.91,-19.17"/>
<polygon fill="#63b8ff" stroke="#63b8ff" points="317.26,-46.54 310.85,-54.98 321.12,-52.38 317.26,-46.54"/>
</a>
</g>
</g>
<!-- Node8&#45;&gt;Node6 -->
<g id="edge10_Node000008_Node000006" class="edge">
<title>Node8&#45;&gt;Node6</title>
<g id="a_edge10_Node000008_Node000006"><a xlink:title=" ">
<path fill="none" stroke="#63b8ff" d="M424.01,-48.6C412.54,-39.11 398.09,-27.13 388.47,-19.17"/>
<polygon fill="#63b8ff" stroke="#63b8ff" points="421.78,-51.3 431.72,-54.98 426.25,-45.91 421.78,-51.3"/>
</a>
</g>
</g>
<!-- Node8&#45;&gt;Node7 -->
<g id="edge9_Node000008_Node000007" class="edge">
<title>Node8&#45;&gt;Node7</title>
<g id="a_edge9_Node000008_Node000007"><a xlink:title=" ">
<path fill="none" stroke="#63b8ff" d="M454.27,-46.39C460.81,-37.27 468.57,-26.45 473.84,-19.09"/>
<polygon fill="#63b8ff" stroke="#63b8ff" points="451.26,-44.58 448.27,-54.75 456.95,-48.66 451.26,-44.58"/>
</a>
</g>
</g>
</g>
</svg>
