<?xml version="1.0" encoding="UTF-8" standalone="no"?>
<!DOCTYPE svg PUBLIC "-//W3C//DTD SVG 1.1//EN"
 "http://www.w3.org/Graphics/SVG/1.1/DTD/svg11.dtd">
<!-- Generated by graphviz version 2.43.0 (0)
 -->
<!-- Title: clock&#45;face.c Pages: 1 -->
<svg width="372pt" height="192pt"
 viewBox="0.00 0.00 371.95 192.00" xmlns="http://www.w3.org/2000/svg" xmlns:xlink="http://www.w3.org/1999/xlink">
<g id="graph0" class="graph" transform="scale(1 1) rotate(0) translate(4 188)">
<title>clock&#45;face.c</title>
<!-- Node1 -->
<g id="Node000001" class="node">
<title>Node1</title>
<g id="a_Node000001"><a xlink:title=" ">
<polygon fill="#999999" stroke="#666666" points="231.29,-184 162.29,-184 162.29,-165 231.29,-165 231.29,-184"/>
<text text-anchor="middle" x="196.79" y="-172" font-family="Inter" font-size="10.00">clock&#45;face.c</text>
</a>
</g>
</g>
<!-- Node2 -->
<g id="Node000002" class="node">
<title>Node2</title>
<g id="a_Node000002"><a xlink:title=" ">
<polygon fill="#e0e0e0" stroke="#999999" points="278.29,-74 219.29,-74 219.29,-55 278.29,-55 278.29,-74"/>
<text text-anchor="middle" x="248.79" y="-62" font-family="Inter" font-size="10.00">gtk/gtk.h</text>
</a>
</g>
</g>
<!-- Node1&#45;&gt;Node2 -->
<g id="edge1_Node000001_Node000002" class="edge">
<title>Node1&#45;&gt;Node2</title>
<g id="a_edge1_Node000001_Node000002"><a xlink:title=" ">
<path fill="none" stroke="#63b8ff" d="M204.6,-164.9C212.01,-156.35 222.98,-142.59 229.79,-129 236.97,-114.68 241.96,-97.15 245.02,-84.14"/>
<polygon fill="#63b8ff" stroke="#63b8ff" points="248.5,-84.59 247.21,-74.07 241.66,-83.09 248.5,-84.59"/>
</a>
</g>
</g>
<!-- Node3 -->
<g id="Node000003" class="node">
<title>Node3</title>
<g id="a_Node000003"><a xlink:title=" ">
<polygon fill="#e0e0e0" stroke="#999999" points="64.79,-129 14.79,-129 14.79,-110 64.79,-110 64.79,-129"/>
<text text-anchor="middle" x="39.79" y="-117" font-family="Inter" font-size="10.00">math.h</text>
</a>
</g>
</g>
<!-- Node1&#45;&gt;Node3 -->
<g id="edge2_Node000001_Node000003" class="edge">
<title>Node1&#45;&gt;Node3</title>
<g id="a_edge2_Node000001_Node000003"><a xlink:title=" ">
<path fill="none" stroke="#63b8ff" d="M171.57,-164.98C145.36,-156.14 104.15,-142.23 74.8,-132.32"/>
<polygon fill="#63b8ff" stroke="#63b8ff" points="75.55,-128.88 64.95,-128.99 73.31,-135.51 75.55,-128.88"/>
</a>
</g>
</g>
<!-- Node4 -->
<g id="Node000004" class="node">
<title>Node4</title>
<g id="a_Node000004"><a xlink:title=" ">
<polygon fill="#e0e0e0" stroke="#999999" points="270.29,-19 223.29,-19 223.29,0 270.29,0 270.29,-19"/>
<text text-anchor="middle" x="246.79" y="-7" font-family="Inter" font-size="10.00">time.h</text>
</a>
</g>
</g>
<!-- Node1&#45;&gt;Node4 -->
<g id="edge3_Node000001_Node000004" class="edge">
<title>Node1&#45;&gt;Node4</title>
<g id="a_edge3_Node000001_Node000004"><a xlink:title=" ">
<path fill="none" stroke="#63b8ff" d="M231.37,-168.73C273.46,-162.13 340.81,-148.75 355.79,-129 386.9,-87.99 316.85,-44.66 275.08,-23.57"/>
<polygon fill="#63b8ff" stroke="#63b8ff" points="276.41,-20.33 265.89,-19.06 273.33,-26.61 276.41,-20.33"/>
</a>
</g>
</g>
<!-- Node5 -->
<g id="Node000005" class="node">
<title>Node5</title>
<g id="a_Node000005"><a xlink:href="clock_8h.html" target="_top" xlink:title=" ">
<polygon fill="white" stroke="#666666" points="220.79,-129 172.79,-129 172.79,-110 220.79,-110 220.79,-129"/>
<text text-anchor="middle" x="196.79" y="-117" font-family="Inter" font-size="10.00">clock.h</text>
</a>
</g>
</g>
<!-- Node1&#45;&gt;Node5 -->
<g id="edge4_Node000001_Node000005" class="edge">
<title>Node1&#45;&gt;Node5</title>
<g id="a_edge4_Node000001_Node000005"><a xlink:title=" ">
<path fill="none" stroke="#63b8ff" d="M196.79,-164.75C196.79,-157.8 196.79,-147.85 196.79,-139.13"/>
<polygon fill="#63b8ff" stroke="#63b8ff" points="200.29,-139.09 196.79,-129.09 193.29,-139.09 200.29,-139.09"/>
</a>
</g>
</g>
<!-- Node6 -->
<g id="Node000006" class="node">
<title>Node6</title>
<g id="a_Node000006"><a xlink:href="clock-face_8h.html" target="_top" xlink:title=" ">
<polygon fill="white" stroke="#666666" points="154.29,-129 83.29,-129 83.29,-110 154.29,-110 154.29,-129"/>
<text text-anchor="middle" x="118.79" y="-117" font-family="Inter" font-size="10.00">clock&#45;face.h</text>
</a>
</g>
</g>
<!-- Node1&#45;&gt;Node6 -->
<g id="edge5_Node000001_Node000006" class="edge">
<title>Node1&#45;&gt;Node6</title>
<g id="a_edge5_Node000001_Node000006"><a xlink:title=" ">
<path fill="none" stroke="#63b8ff" d="M184.26,-164.98C172.39,-156.92 154.33,-144.65 140.18,-135.03"/>
<polygon fill="#63b8ff" stroke="#63b8ff" points="141.79,-131.9 131.55,-129.17 137.86,-137.69 141.79,-131.9"/>
</a>
</g>
</g>
<!-- Node7 -->
<g id="Node000007" class="node">
<title>Node7</title>
<g id="a_Node000007"><a xlink:href="clock-location_8h.html" target="_top" xlink:title=" ">
<polygon fill="#fff0f0" stroke="red" points="162.29,-74 75.29,-74 75.29,-55 162.29,-55 162.29,-74"/>
<text text-anchor="middle" x="118.79" y="-62" font-family="Inter" font-size="10.00">clock&#45;location.h</text>
</a>
</g>
</g>
<!-- Node1&#45;&gt;Node7 -->
<g id="edge9_Node000001_Node000007" class="edge">
<title>Node1&#45;&gt;Node7</title>
<g id="a_edge9_Node000001_Node000007"><a xlink:title=" ">
<path fill="none" stroke="#63b8ff" d="M162.15,-170.49C112.5,-165.39 24.95,-153.13 5.79,-129 -15.02,-102.79 26.48,-85.6 64.92,-75.8"/>
<polygon fill="#63b8ff" stroke="#63b8ff" points="66.2,-79.09 75.11,-73.35 64.56,-72.29 66.2,-79.09"/>
</a>
</g>
</g>
<!-- Node12 -->
<g id="Node000012" class="node">
<title>Node12</title>
<g id="a_Node000012"><a xlink:href="clock-utils_8h.html" target="_top" xlink:title=" ">
<polygon fill="white" stroke="#666666" points="346.79,-129 276.79,-129 276.79,-110 346.79,-110 346.79,-129"/>
<text text-anchor="middle" x="311.79" y="-117" font-family="Inter" font-size="10.00">clock&#45;utils.h</text>
</a>
</g>
</g>
<!-- Node1&#45;&gt;Node12 -->
<g id="edge10_Node000001_Node000012" class="edge">
<title>Node1&#45;&gt;Node12</title>
<g id="a_edge10_Node000001_Node000012"><a xlink:title=" ">
<path fill="none" stroke="#63b8ff" d="M215.27,-164.98C233.77,-156.46 262.47,-143.23 283.77,-133.41"/>
<polygon fill="#63b8ff" stroke="#63b8ff" points="285.36,-136.53 292.98,-129.17 282.43,-130.18 285.36,-136.53"/>
</a>
</g>
</g>
<!-- Node6&#45;&gt;Node2 -->
<g id="edge6_Node000006_Node000002" class="edge">
<title>Node6&#45;&gt;Node2</title>
<g id="a_edge6_Node000006_Node000002"><a xlink:title=" ">
<path fill="none" stroke="#63b8ff" d="M139.68,-109.98C160.87,-101.34 193.92,-87.87 218.09,-78.02"/>
<polygon fill="#63b8ff" stroke="#63b8ff" points="219.59,-81.19 227.52,-74.17 216.94,-74.7 219.59,-81.19"/>
</a>
</g>
</g>
<!-- Node6&#45;&gt;Node7 -->
<g id="edge7_Node000006_Node000007" class="edge">
<title>Node6&#45;&gt;Node7</title>
<g id="a_edge7_Node000006_Node000007"><a xlink:title=" ">
<path fill="none" stroke="#63b8ff" d="M118.79,-109.75C118.79,-102.8 118.79,-92.85 118.79,-84.13"/>
<polygon fill="#63b8ff" stroke="#63b8ff" points="122.29,-84.09 118.79,-74.09 115.29,-84.09 122.29,-84.09"/>
</a>
</g>
</g>
<!-- Node7&#45;&gt;Node4 -->
<g id="edge8_Node000007_Node000004" class="edge">
<title>Node7&#45;&gt;Node4</title>
<g id="a_edge8_Node000007_Node000004"><a xlink:title=" ">
<path fill="none" stroke="#63b8ff" d="M139.36,-54.98C160.23,-46.34 192.76,-32.87 216.56,-23.02"/>
<polygon fill="#63b8ff" stroke="#63b8ff" points="217.95,-26.23 225.85,-19.17 215.27,-19.76 217.95,-26.23"/>
</a>
</g>
</g>
<!-- Node12&#45;&gt;Node2 -->
<g id="edge11_Node000012_Node000002" class="edge">
<title>Node12&#45;&gt;Node2</title>
<g id="a_edge11_Node000012_Node000002"><a xlink:title=" ">
<path fill="none" stroke="#63b8ff" d="M301.67,-109.98C292.36,-102.15 278.32,-90.34 267.05,-80.86"/>
<polygon fill="#63b8ff" stroke="#63b8ff" points="269,-77.93 259.1,-74.17 264.5,-83.29 269,-77.93"/>
</a>
</g>
</g>
</g>
</svg>
