<?xml version="1.0" encoding="UTF-8" standalone="no"?>
<!DOCTYPE svg PUBLIC "-//W3C//DTD SVG 1.1//EN"
 "http://www.w3.org/Graphics/SVG/1.1/DTD/svg11.dtd">
<!-- Generated by graphviz version 2.43.0 (0)
 -->
<!-- Title: clock&#45;location.c Pages: 1 -->
<svg width="1330pt" height="137pt"
 viewBox="0.00 0.00 1330.00 137.00" xmlns="http://www.w3.org/2000/svg" xmlns:xlink="http://www.w3.org/1999/xlink">
<g id="graph0" class="graph" transform="scale(1 1) rotate(0) translate(4 133)">
<title>clock&#45;location.c</title>
<!-- Node1 -->
<g id="Node000001" class="node">
<title>Node1</title>
<g id="a_Node000001"><a xlink:title=" ">
<polygon fill="#999999" stroke="#666666" points="638.5,-129 552.5,-129 552.5,-110 638.5,-110 638.5,-129"/>
<text text-anchor="middle" x="595.5" y="-117" font-family="Inter" font-size="10.00">clock&#45;location.c</text>
</a>
</g>
</g>
<!-- Node2 -->
<g id="Node000002" class="node">
<title>Node2</title>
<g id="a_Node000002"><a xlink:title=" ">
<polygon fill="#e0e0e0" stroke="#999999" points="53,-74 0,-74 0,-55 53,-55 53,-74"/>
<text text-anchor="middle" x="26.5" y="-62" font-family="Inter" font-size="10.00">dirent.h</text>
</a>
</g>
</g>
<!-- Node1&#45;&gt;Node2 -->
<g id="edge1_Node000001_Node000002" class="edge">
<title>Node1&#45;&gt;Node2</title>
<g id="a_edge1_Node000001_Node000002"><a xlink:title=" ">
<path fill="none" stroke="#63b8ff" d="M552.31,-117.17C462.71,-113.93 250.06,-103.69 63.17,-74.04"/>
<polygon fill="#63b8ff" stroke="#63b8ff" points="63.6,-70.56 53.17,-72.43 62.48,-77.47 63.6,-70.56"/>
</a>
</g>
</g>
<!-- Node3 -->
<g id="Node000003" class="node">
<title>Node3</title>
<g id="a_Node000003"><a xlink:title=" ">
<polygon fill="#e0e0e0" stroke="#999999" points="124,-74 71,-74 71,-55 124,-55 124,-74"/>
<text text-anchor="middle" x="97.5" y="-62" font-family="Inter" font-size="10.00">errno.h</text>
</a>
</g>
</g>
<!-- Node1&#45;&gt;Node3 -->
<g id="edge2_Node000001_Node000003" class="edge">
<title>Node1&#45;&gt;Node3</title>
<g id="a_edge2_Node000001_Node000003"><a xlink:title=" ">
<path fill="none" stroke="#63b8ff" d="M552.25,-116.3C471.86,-111.78 293.83,-99.79 134.16,-73.87"/>
<polygon fill="#63b8ff" stroke="#63b8ff" points="134.59,-70.39 124.15,-72.22 133.45,-77.3 134.59,-70.39"/>
</a>
</g>
</g>
<!-- Node4 -->
<g id="Node000004" class="node">
<title>Node4</title>
<g id="a_Node000004"><a xlink:title=" ">
<polygon fill="#e0e0e0" stroke="#999999" points="192.5,-74 142.5,-74 142.5,-55 192.5,-55 192.5,-74"/>
<text text-anchor="middle" x="167.5" y="-62" font-family="Inter" font-size="10.00">stdlib.h</text>
</a>
</g>
</g>
<!-- Node1&#45;&gt;Node4 -->
<g id="edge3_Node000001_Node000004" class="edge">
<title>Node1&#45;&gt;Node4</title>
<g id="a_edge3_Node000001_Node000004"><a xlink:title=" ">
<path fill="none" stroke="#63b8ff" d="M552.38,-115.51C481.39,-110.18 335.36,-97.49 202.61,-73.97"/>
<polygon fill="#63b8ff" stroke="#63b8ff" points="203.13,-70.51 192.67,-72.19 201.89,-77.4 203.13,-70.51"/>
</a>
</g>
</g>
<!-- Node5 -->
<g id="Node000005" class="node">
<title>Node5</title>
<g id="a_Node000005"><a xlink:title=" ">
<polygon fill="#e0e0e0" stroke="#999999" points="258.5,-74 210.5,-74 210.5,-55 258.5,-55 258.5,-74"/>
<text text-anchor="middle" x="234.5" y="-62" font-family="Inter" font-size="10.00">stdio.h</text>
</a>
</g>
</g>
<!-- Node1&#45;&gt;Node5 -->
<g id="edge4_Node000001_Node000005" class="edge">
<title>Node1&#45;&gt;Node5</title>
<g id="a_edge4_Node000001_Node000005"><a xlink:title=" ">
<path fill="none" stroke="#63b8ff" d="M552.25,-114.27C491.16,-107.93 375.97,-94.67 268.61,-74.01"/>
<polygon fill="#63b8ff" stroke="#63b8ff" points="269.06,-70.53 258.58,-72.05 267.72,-77.4 269.06,-70.53"/>
</a>
</g>
</g>
<!-- Node6 -->
<g id="Node000006" class="node">
<title>Node6</title>
<g id="a_Node000006"><a xlink:title=" ">
<polygon fill="#e0e0e0" stroke="#999999" points="330,-74 277,-74 277,-55 330,-55 330,-74"/>
<text text-anchor="middle" x="303.5" y="-62" font-family="Inter" font-size="10.00">string.h</text>
</a>
</g>
</g>
<!-- Node1&#45;&gt;Node6 -->
<g id="edge5_Node000001_Node000006" class="edge">
<title>Node1&#45;&gt;Node6</title>
<g id="a_edge5_Node000001_Node000006"><a xlink:title=" ">
<path fill="none" stroke="#63b8ff" d="M552.13,-111.9C503.01,-104.22 420.34,-90.69 340.44,-74.3"/>
<polygon fill="#63b8ff" stroke="#63b8ff" points="340.71,-70.78 330.21,-72.18 339.29,-77.64 340.71,-70.78"/>
</a>
</g>
</g>
<!-- Node7 -->
<g id="Node000007" class="node">
<title>Node7</title>
<g id="a_Node000007"><a xlink:title=" ">
<polygon fill="#e0e0e0" stroke="#999999" points="417,-74 348,-74 348,-55 417,-55 417,-74"/>
<text text-anchor="middle" x="382.5" y="-62" font-family="Inter" font-size="10.00">sys/types.h</text>
</a>
</g>
</g>
<!-- Node1&#45;&gt;Node7 -->
<g id="edge6_Node000001_Node000007" class="edge">
<title>Node1&#45;&gt;Node7</title>
<g id="a_edge6_Node000001_Node000007"><a xlink:title=" ">
<path fill="none" stroke="#63b8ff" d="M561.28,-109.98C524.74,-100.89 466.72,-86.46 426.74,-76.51"/>
<polygon fill="#63b8ff" stroke="#63b8ff" points="427.54,-73.1 416.99,-74.08 425.85,-79.89 427.54,-73.1"/>
</a>
</g>
</g>
<!-- Node8 -->
<g id="Node000008" class="node">
<title>Node8</title>
<g id="a_Node000008"><a xlink:title=" ">
<polygon fill="#e0e0e0" stroke="#999999" points="496,-74 435,-74 435,-55 496,-55 496,-74"/>
<text text-anchor="middle" x="465.5" y="-62" font-family="Inter" font-size="10.00">sys/stat.h</text>
</a>
</g>
</g>
<!-- Node1&#45;&gt;Node8 -->
<g id="edge7_Node000001_Node000008" class="edge">
<title>Node1&#45;&gt;Node8</title>
<g id="a_edge7_Node000001_Node000008"><a xlink:title=" ">
<path fill="none" stroke="#63b8ff" d="M574.61,-109.98C553.42,-101.34 520.37,-87.87 496.2,-78.02"/>
<polygon fill="#63b8ff" stroke="#63b8ff" points="497.35,-74.7 486.77,-74.17 494.71,-81.19 497.35,-74.7"/>
</a>
</g>
</g>
<!-- Node9 -->
<g id="Node000009" class="node">
<title>Node9</title>
<g id="a_Node000009"><a xlink:title=" ">
<polygon fill="#e0e0e0" stroke="#999999" points="619,-19 572,-19 572,0 619,0 619,-19"/>
<text text-anchor="middle" x="595.5" y="-7" font-family="Inter" font-size="10.00">time.h</text>
</a>
</g>
</g>
<!-- Node1&#45;&gt;Node9 -->
<g id="edge8_Node000001_Node000009" class="edge">
<title>Node1&#45;&gt;Node9</title>
<g id="a_edge8_Node000001_Node000009"><a xlink:title=" ">
<path fill="none" stroke="#63b8ff" d="M579.47,-109.95C567.09,-102.35 550.85,-89.97 543.5,-74 534.72,-54.93 553.27,-36.78 570.6,-24.81"/>
<polygon fill="#63b8ff" stroke="#63b8ff" points="572.89,-27.49 579.39,-19.14 569.09,-21.61 572.89,-27.49"/>
</a>
</g>
</g>
<!-- Node10 -->
<g id="Node000010" class="node">
<title>Node10</title>
<g id="a_Node000010"><a xlink:title=" ">
<polygon fill="#e0e0e0" stroke="#999999" points="1100.5,-74 1046.5,-74 1046.5,-55 1100.5,-55 1100.5,-74"/>
<text text-anchor="middle" x="1073.5" y="-62" font-family="Inter" font-size="10.00">unistd.h</text>
</a>
</g>
</g>
<!-- Node1&#45;&gt;Node10 -->
<g id="edge9_Node000001_Node000010" class="edge">
<title>Node1&#45;&gt;Node10</title>
<g id="a_edge9_Node000001_Node000010"><a xlink:title=" ">
<path fill="none" stroke="#63b8ff" d="M638.73,-116.04C716.43,-111.21 884.97,-98.87 1036.5,-73.95"/>
<polygon fill="#63b8ff" stroke="#63b8ff" points="1037.16,-77.39 1046.45,-72.29 1036.01,-70.48 1037.16,-77.39"/>
</a>
</g>
</g>
<!-- Node11 -->
<g id="Node000011" class="node">
<title>Node11</title>
<g id="a_Node000011"><a xlink:title=" ">
<polygon fill="#e0e0e0" stroke="#999999" points="1168.5,-74 1118.5,-74 1118.5,-55 1168.5,-55 1168.5,-74"/>
<text text-anchor="middle" x="1143.5" y="-62" font-family="Inter" font-size="10.00">math.h</text>
</a>
</g>
</g>
<!-- Node1&#45;&gt;Node11 -->
<g id="edge10_Node000001_Node000011" class="edge">
<title>Node1&#45;&gt;Node11</title>
<g id="a_edge10_Node000001_Node000011"><a xlink:title=" ">
<path fill="none" stroke="#63b8ff" d="M638.77,-117.07C725.97,-113.69 929.06,-103.3 1108.46,-73.9"/>
<polygon fill="#63b8ff" stroke="#63b8ff" points="1109.05,-77.35 1118.34,-72.26 1107.9,-70.45 1109.05,-77.35"/>
</a>
</g>
</g>
<!-- Node12 -->
<g id="Node000012" class="node">
<title>Node12</title>
<g id="a_Node000012"><a xlink:title=" ">
<polygon fill="#e0e0e0" stroke="#999999" points="683.5,-19 641.5,-19 641.5,0 683.5,0 683.5,-19"/>
<text text-anchor="middle" x="662.5" y="-7" font-family="Inter" font-size="10.00">glib.h</text>
</a>
</g>
</g>
<!-- Node1&#45;&gt;Node12 -->
<g id="edge11_Node000001_Node000012" class="edge">
<title>Node1&#45;&gt;Node12</title>
<g id="a_edge11_Node000001_Node000012"><a xlink:title=" ">
<path fill="none" stroke="#63b8ff" d="M610.09,-109.76C621.96,-101.88 638.22,-89.22 647.5,-74 655.71,-60.53 659.43,-42.94 661.11,-29.68"/>
<polygon fill="#63b8ff" stroke="#63b8ff" points="664.63,-29.66 662.13,-19.36 657.66,-28.97 664.63,-29.66"/>
</a>
</g>
</g>
<!-- Node13 -->
<g id="Node000013" class="node">
<title>Node13</title>
<g id="a_Node000013"><a xlink:title=" ">
<polygon fill="#e0e0e0" stroke="#999999" points="1244.5,-74 1186.5,-74 1186.5,-55 1244.5,-55 1244.5,-74"/>
<text text-anchor="middle" x="1215.5" y="-62" font-family="Inter" font-size="10.00">gio/gio.h</text>
</a>
</g>
</g>
<!-- Node1&#45;&gt;Node13 -->
<g id="edge12_Node000001_Node000013" class="edge">
<title>Node1&#45;&gt;Node13</title>
<g id="a_edge12_Node000001_Node000013"><a xlink:title=" ">
<path fill="none" stroke="#63b8ff" d="M638.82,-117.32C734.23,-114.25 969.8,-104.18 1176.01,-74.01"/>
<polygon fill="#63b8ff" stroke="#63b8ff" points="1176.74,-77.44 1186.12,-72.51 1175.71,-70.51 1176.74,-77.44"/>
</a>
</g>
</g>
<!-- Node14 -->
<g id="Node000014" class="node">
<title>Node14</title>
<g id="a_Node000014"><a xlink:title=" ">
<polygon fill="#e0e0e0" stroke="#999999" points="1322,-74 1263,-74 1263,-55 1322,-55 1322,-74"/>
<text text-anchor="middle" x="1292.5" y="-62" font-family="Inter" font-size="10.00">gtk/gtk.h</text>
</a>
</g>
</g>
<!-- Node1&#45;&gt;Node14 -->
<g id="edge13_Node000001_Node000014" class="edge">
<title>Node1&#45;&gt;Node14</title>
<g id="a_edge13_Node000001_Node000014"><a xlink:title=" ">
<path fill="none" stroke="#63b8ff" d="M638.84,-117.77C742.97,-115.54 1015.52,-106.93 1252.58,-73.89"/>
<polygon fill="#63b8ff" stroke="#63b8ff" points="1253.36,-77.31 1262.77,-72.45 1252.38,-70.38 1253.36,-77.31"/>
</a>
</g>
</g>
<!-- Node15 -->
<g id="Node000015" class="node">
<title>Node15</title>
<g id="a_Node000015"><a xlink:href="clock-location_8h.html" target="_top" xlink:title=" ">
<polygon fill="white" stroke="#666666" points="782,-74 695,-74 695,-55 782,-55 782,-74"/>
<text text-anchor="middle" x="738.5" y="-62" font-family="Inter" font-size="10.00">clock&#45;location.h</text>
</a>
</g>
</g>
<!-- Node1&#45;&gt;Node15 -->
<g id="edge14_Node000001_Node000015" class="edge">
<title>Node1&#45;&gt;Node15</title>
<g id="a_edge14_Node000001_Node000015"><a xlink:title=" ">
<path fill="none" stroke="#63b8ff" d="M618.48,-109.98C642,-101.27 678.79,-87.63 705.44,-77.75"/>
<polygon fill="#63b8ff" stroke="#63b8ff" points="706.95,-80.93 715.11,-74.17 704.51,-74.36 706.95,-80.93"/>
</a>
</g>
</g>
<!-- Node19 -->
<g id="Node000019" class="node">
<title>Node19</title>
<g id="a_Node000019"><a xlink:href="clock-marshallers_8h.html" target="_top" xlink:title=" ">
<polygon fill="white" stroke="#666666" points="1028,-74 923,-74 923,-55 1028,-55 1028,-74"/>
<text text-anchor="middle" x="975.5" y="-62" font-family="Inter" font-size="10.00">clock&#45;marshallers.h</text>
</a>
</g>
</g>
<!-- Node1&#45;&gt;Node19 -->
<g id="edge19_Node000001_Node000019" class="edge">
<title>Node1&#45;&gt;Node19</title>
<g id="a_edge19_Node000001_Node000019"><a xlink:title=" ">
<path fill="none" stroke="#63b8ff" d="M638.72,-112.47C705.83,-103.11 835.42,-85.04 912.81,-74.24"/>
<polygon fill="#63b8ff" stroke="#63b8ff" points="913.49,-77.68 922.91,-72.84 912.52,-70.75 913.49,-77.68"/>
</a>
</g>
</g>
<!-- Node20 -->
<g id="Node000020" class="node">
<title>Node20</title>
<g id="a_Node000020"><a xlink:href="set-timezone_8h.html" target="_top" xlink:title=" ">
<polygon fill="white" stroke="#666666" points="638.5,-74 552.5,-74 552.5,-55 638.5,-55 638.5,-74"/>
<text text-anchor="middle" x="595.5" y="-62" font-family="Inter" font-size="10.00">set&#45;timezone.h</text>
</a>
</g>
</g>
<!-- Node1&#45;&gt;Node20 -->
<g id="edge21_Node000001_Node000020" class="edge">
<title>Node1&#45;&gt;Node20</title>
<g id="a_edge21_Node000001_Node000020"><a xlink:title=" ">
<path fill="none" stroke="#63b8ff" d="M595.5,-109.75C595.5,-102.8 595.5,-92.85 595.5,-84.13"/>
<polygon fill="#63b8ff" stroke="#63b8ff" points="599,-84.09 595.5,-74.09 592,-84.09 599,-84.09"/>
</a>
</g>
</g>
<!-- Node21 -->
<g id="Node000021" class="node">
<title>Node21</title>
<g id="a_Node000021"><a xlink:href="mate-panel_2applets_2clock_2system-timezone_8h.html" target="_top" xlink:title=" ">
<polygon fill="white" stroke="#666666" points="904.5,-74 800.5,-74 800.5,-55 904.5,-55 904.5,-74"/>
<text text-anchor="middle" x="852.5" y="-62" font-family="Inter" font-size="10.00">system&#45;timezone.h</text>
</a>
</g>
</g>
<!-- Node1&#45;&gt;Node21 -->
<g id="edge24_Node000001_Node000021" class="edge">
<title>Node1&#45;&gt;Node21</title>
<g id="a_edge24_Node000001_Node000021"><a xlink:title=" ">
<path fill="none" stroke="#63b8ff" d="M636.79,-109.98C681.43,-100.78 752.66,-86.09 800.95,-76.13"/>
<polygon fill="#63b8ff" stroke="#63b8ff" points="801.8,-79.53 810.88,-74.08 800.38,-72.67 801.8,-79.53"/>
</a>
</g>
</g>
<!-- Node15&#45;&gt;Node9 -->
<g id="edge15_Node000015_Node000009" class="edge">
<title>Node15&#45;&gt;Node9</title>
<g id="a_edge15_Node000015_Node000009"><a xlink:title=" ">
<path fill="none" stroke="#63b8ff" d="M715.52,-54.98C692,-46.27 655.21,-32.63 628.56,-22.75"/>
<polygon fill="#63b8ff" stroke="#63b8ff" points="629.49,-19.36 618.89,-19.17 627.05,-25.93 629.49,-19.36"/>
</a>
</g>
</g>
<!-- Node15&#45;&gt;Node12 -->
<g id="edge16_Node000015_Node000012" class="edge">
<title>Node15&#45;&gt;Node12</title>
<g id="a_edge16_Node000015_Node000012"><a xlink:title=" ">
<path fill="none" stroke="#63b8ff" d="M726.29,-54.98C714.72,-46.92 697.12,-34.65 683.34,-25.03"/>
<polygon fill="#63b8ff" stroke="#63b8ff" points="685.14,-22.02 674.93,-19.17 681.13,-27.76 685.14,-22.02"/>
</a>
</g>
</g>
<!-- Node16 -->
<g id="Node000016" class="node">
<title>Node16</title>
<g id="a_Node000016"><a xlink:title=" ">
<polygon fill="#e0e0e0" stroke="#999999" points="933.5,-19 859.5,-19 859.5,0 933.5,0 933.5,-19"/>
<text text-anchor="middle" x="896.5" y="-7" font-family="Inter" font-size="10.00">glib&#45;object.h</text>
</a>
</g>
</g>
<!-- Node15&#45;&gt;Node16 -->
<g id="edge17_Node000015_Node000016" class="edge">
<title>Node15&#45;&gt;Node16</title>
<g id="a_edge17_Node000015_Node000016"><a xlink:title=" ">
<path fill="none" stroke="#63b8ff" d="M763.89,-54.98C790.3,-46.13 831.85,-32.19 861.39,-22.28"/>
<polygon fill="#63b8ff" stroke="#63b8ff" points="862.55,-25.58 870.92,-19.08 860.32,-18.94 862.55,-25.58"/>
</a>
</g>
</g>
<!-- Node17 -->
<g id="Node000017" class="node">
<title>Node17</title>
<g id="a_Node000017"><a xlink:href="weather_8h.html" target="_top" xlink:title=" ">
<polygon fill="#fff0f0" stroke="red" points="841,-19 702,-19 702,0 841,0 841,-19"/>
<text text-anchor="middle" x="771.5" y="-7" font-family="Inter" font-size="10.00">libmateweather/weather.h</text>
</a>
</g>
</g>
<!-- Node15&#45;&gt;Node17 -->
<g id="edge18_Node000015_Node000017" class="edge">
<title>Node15&#45;&gt;Node17</title>
<g id="a_edge18_Node000015_Node000017"><a xlink:title=" ">
<path fill="none" stroke="#63b8ff" d="M743.95,-54.75C748.51,-47.42 755.17,-36.73 760.79,-27.7"/>
<polygon fill="#63b8ff" stroke="#63b8ff" points="763.84,-29.43 766.15,-19.09 757.9,-25.73 763.84,-29.43"/>
</a>
</g>
</g>
<!-- Node19&#45;&gt;Node16 -->
<g id="edge20_Node000019_Node000016" class="edge">
<title>Node19&#45;&gt;Node16</title>
<g id="a_edge20_Node000019_Node000016"><a xlink:title=" ">
<path fill="none" stroke="#63b8ff" d="M962.81,-54.98C950.67,-46.84 932.14,-34.41 917.75,-24.76"/>
<polygon fill="#63b8ff" stroke="#63b8ff" points="919.68,-21.84 909.42,-19.17 915.78,-27.65 919.68,-21.84"/>
</a>
</g>
</g>
<!-- Node20&#45;&gt;Node9 -->
<g id="edge23_Node000020_Node000009" class="edge">
<title>Node20&#45;&gt;Node9</title>
<g id="a_edge23_Node000020_Node000009"><a xlink:title=" ">
<path fill="none" stroke="#63b8ff" d="M595.5,-54.75C595.5,-47.8 595.5,-37.85 595.5,-29.13"/>
<polygon fill="#63b8ff" stroke="#63b8ff" points="599,-29.09 595.5,-19.09 592,-29.09 599,-29.09"/>
</a>
</g>
</g>
<!-- Node20&#45;&gt;Node12 -->
<g id="edge22_Node000020_Node000012" class="edge">
<title>Node20&#45;&gt;Node12</title>
<g id="a_edge22_Node000020_Node000012"><a xlink:title=" ">
<path fill="none" stroke="#63b8ff" d="M606.26,-54.98C616.27,-47.07 631.39,-35.11 643.43,-25.58"/>
<polygon fill="#63b8ff" stroke="#63b8ff" points="645.87,-28.12 651.54,-19.17 641.53,-22.63 645.87,-28.12"/>
</a>
</g>
</g>
<!-- Node21&#45;&gt;Node12 -->
<g id="edge25_Node000021_Node000012" class="edge">
<title>Node21&#45;&gt;Node12</title>
<g id="a_edge25_Node000021_Node000012"><a xlink:title=" ">
<path fill="none" stroke="#63b8ff" d="M821.52,-54.93C791.23,-46.54 743.55,-33.31 693.5,-19.27"/>
<polygon fill="#63b8ff" stroke="#63b8ff" points="694.38,-15.88 683.8,-16.55 692.48,-22.62 694.38,-15.88"/>
</a>
</g>
</g>
<!-- Node21&#45;&gt;Node16 -->
<g id="edge26_Node000021_Node000016" class="edge">
<title>Node21&#45;&gt;Node16</title>
<g id="a_edge26_Node000021_Node000016"><a xlink:title=" ">
<path fill="none" stroke="#63b8ff" d="M859.77,-54.75C866.04,-47.18 875.29,-36.05 882.93,-26.84"/>
<polygon fill="#63b8ff" stroke="#63b8ff" points="885.67,-29.02 889.37,-19.09 880.29,-24.55 885.67,-29.02"/>
</a>
</g>
</g>
</g>
</svg>
