<?xml version="1.0" encoding="UTF-8" standalone="no"?>
<!DOCTYPE svg PUBLIC "-//W3C//DTD SVG 1.1//EN"
 "http://www.w3.org/Graphics/SVG/1.1/DTD/svg11.dtd">
<!-- Generated by graphviz version 2.43.0 (0)
 -->
<!-- Title: compositor.h Pages: 1 -->
<svg width="346pt" height="137pt"
 viewBox="0.00 0.00 345.50 137.00" xmlns="http://www.w3.org/2000/svg" xmlns:xlink="http://www.w3.org/1999/xlink">

<svg id="main" version="1.1" xmlns="http://www.w3.org/2000/svg" xmlns:xlink="http://www.w3.org/1999/xlink" xml:space="preserve">

<style type="text/css"><![CDATA[
.node, .edge {opacity: 0.7;}
.node.selected, .edge.selected {opacity: 1;}
.edge:hover path { stroke: red; }
.edge:hover polygon { stroke: red; fill: red; }
]]></style>
<script type="application/ecmascript" xlink:href="svg.min.js"/>
<svg id="graph" class="graph">
<g id="graph0" class="graph" transform="scale(1 1) rotate(0) translate(4 133)">
<title>compositor.h</title>
<!-- Node1 -->
<g id="Node000001" class="node">
<title>Node1</title>
<g id="a_Node000001"><a xlink:title=" ">
<polygon fill="#999999" stroke="#666666" points="234,-129 158,-129 158,-110 234,-110 234,-129"/>
<text text-anchor="middle" x="196" y="-117" font-family="Inter" font-size="10.00">compositor.h</text>
</a>
</g>
</g>
<!-- Node2 -->
<g id="Node000002" class="node">
<title>Node2</title>
<g id="a_Node000002"><a xlink:href="compositor-private_8h.html" target="_top" xlink:title=" ">
<polygon fill="white" stroke="#666666" points="114,-74 0,-74 0,-55 114,-55 114,-74"/>
<text text-anchor="middle" x="57" y="-62" font-family="Inter" font-size="10.00">compositor&#45;private.h</text>
</a>
</g>
</g>
<!-- Node1&#45;&gt;Node2 -->
<g id="edge1_Node000001_Node000002" class="edge">
<title>Node1&#45;&gt;Node2</title>
<g id="a_edge1_Node000001_Node000002"><a xlink:title=" ">
<path fill="none" stroke="#63b8ff" d="M164.32,-106.42C138.53,-96.59 102.76,-82.95 79.74,-74.17"/>
<polygon fill="#63b8ff" stroke="#63b8ff" points="163.08,-109.69 173.67,-109.98 165.57,-103.15 163.08,-109.69"/>
</a>
</g>
</g>
<!-- Node4 -->
<g id="Node000004" class="node">
<title>Node4</title>
<g id="a_Node000004"><a xlink:href="display_8c.html" target="_top" xlink:title=" ">
<polygon fill="white" stroke="#666666" points="187.5,-74 132.5,-74 132.5,-55 187.5,-55 187.5,-74"/>
<text text-anchor="middle" x="160" y="-62" font-family="Inter" font-size="10.00">display.c</text>
</a>
</g>
</g>
<!-- Node1&#45;&gt;Node4 -->
<g id="edge3_Node000001_Node000004" class="edge">
<title>Node1&#45;&gt;Node4</title>
<g id="a_edge3_Node000001_Node000004"><a xlink:title=" ">
<path fill="none" stroke="#63b8ff" d="M184.38,-101.39C178.18,-92.27 170.83,-81.45 165.83,-74.09"/>
<polygon fill="#63b8ff" stroke="#63b8ff" points="181.54,-103.44 190.06,-109.75 187.33,-99.51 181.54,-103.44"/>
</a>
</g>
</g>
<!-- Node5 -->
<g id="Node000005" class="node">
<title>Node5</title>
<g id="a_Node000005"><a xlink:href="screen_8c.html" target="_top" xlink:title=" ">
<polygon fill="white" stroke="#666666" points="260.5,-74 205.5,-74 205.5,-55 260.5,-55 260.5,-74"/>
<text text-anchor="middle" x="233" y="-62" font-family="Inter" font-size="10.00">screen.c</text>
</a>
</g>
</g>
<!-- Node1&#45;&gt;Node5 -->
<g id="edge4_Node000001_Node000005" class="edge">
<title>Node1&#45;&gt;Node5</title>
<g id="a_edge4_Node000001_Node000005"><a xlink:title=" ">
<path fill="none" stroke="#63b8ff" d="M207.95,-101.39C214.31,-92.27 221.87,-81.45 227,-74.09"/>
<polygon fill="#63b8ff" stroke="#63b8ff" points="204.96,-99.55 202.11,-109.75 210.7,-103.55 204.96,-99.55"/>
</a>
</g>
</g>
<!-- Node6 -->
<g id="Node000006" class="node">
<title>Node6</title>
<g id="a_Node000006"><a xlink:href="window_8c.html" target="_top" xlink:title=" ">
<polygon fill="white" stroke="#666666" points="337.5,-74 278.5,-74 278.5,-55 337.5,-55 337.5,-74"/>
<text text-anchor="middle" x="308" y="-62" font-family="Inter" font-size="10.00">window.c</text>
</a>
</g>
</g>
<!-- Node1&#45;&gt;Node6 -->
<g id="edge5_Node000001_Node000006" class="edge">
<title>Node1&#45;&gt;Node6</title>
<g id="a_edge5_Node000001_Node000006"><a xlink:title=" ">
<path fill="none" stroke="#63b8ff" d="M223.19,-105.63C243.82,-95.87 271.62,-82.71 289.68,-74.17"/>
<polygon fill="#63b8ff" stroke="#63b8ff" points="221.54,-102.54 213.99,-109.98 224.53,-108.87 221.54,-102.54"/>
</a>
</g>
</g>
<!-- Node3 -->
<g id="Node000003" class="node">
<title>Node3</title>
<g id="a_Node000003"><a xlink:href="compositor_8c.html" target="_top" xlink:title=" ">
<polygon fill="white" stroke="#666666" points="94,-19 20,-19 20,0 94,0 94,-19"/>
<text text-anchor="middle" x="57" y="-7" font-family="Inter" font-size="10.00">compositor.c</text>
</a>
</g>
</g>
<!-- Node2&#45;&gt;Node3 -->
<g id="edge2_Node000002_Node000003" class="edge">
<title>Node2&#45;&gt;Node3</title>
<g id="a_edge2_Node000002_Node000003"><a xlink:title=" ">
<path fill="none" stroke="#63b8ff" d="M57,-44.66C57,-35.93 57,-25.99 57,-19.09"/>
<polygon fill="#63b8ff" stroke="#63b8ff" points="53.5,-44.75 57,-54.75 60.5,-44.75 53.5,-44.75"/>
</a>
</g>
</g>
</g>
</svg>
</svg>

<style type='text/css'>
<![CDATA[
[data-mouse-over-selected='false'] { opacity: 0.7; }
[data-mouse-over-selected='true']  { opacity: 1.0; }
]]>
</style>
<script type="application/ecmascript"><![CDATA[
document.addEventListener('DOMContentLoaded', (event) => {
  highlightEdges();
  highlightAdjacentNodes();
});
]]></script>
</svg>
