<?xml version="1.0" encoding="UTF-8" standalone="no"?>
<!DOCTYPE svg PUBLIC "-//W3C//DTD SVG 1.1//EN"
 "http://www.w3.org/Graphics/SVG/1.1/DTD/svg11.dtd">
<!-- Generated by graphviz version 2.43.0 (0)
 -->
<!-- Title: cpufreq&#45;utils.c Pages: 1 -->
<svg width="724pt" height="137pt"
 viewBox="0.00 0.00 723.50 137.00" xmlns="http://www.w3.org/2000/svg" xmlns:xlink="http://www.w3.org/1999/xlink">
<g id="graph0" class="graph" transform="scale(1 1) rotate(0) translate(4 133)">
<title>cpufreq&#45;utils.c</title>
<!-- Node1 -->
<g id="Node000001" class="node">
<title>Node1</title>
<g id="a_Node000001"><a xlink:title=" ">
<polygon fill="#999999" stroke="#666666" points="382,-129 300,-129 300,-110 382,-110 382,-129"/>
<text text-anchor="middle" x="341" y="-117" font-family="Inter" font-size="10.00">cpufreq&#45;utils.c</text>
</a>
</g>
</g>
<!-- Node2 -->
<g id="Node000002" class="node">
<title>Node2</title>
<g id="a_Node000002"><a xlink:title=" ">
<polygon fill="#e0e0e0" stroke="#999999" points="54,-74 0,-74 0,-55 54,-55 54,-74"/>
<text text-anchor="middle" x="27" y="-62" font-family="Inter" font-size="10.00">config.h</text>
</a>
</g>
</g>
<!-- Node1&#45;&gt;Node2 -->
<g id="edge1_Node000001_Node000002" class="edge">
<title>Node1&#45;&gt;Node2</title>
<g id="a_edge1_Node000001_Node000002"><a xlink:title=" ">
<path fill="none" stroke="#63b8ff" d="M299.74,-112.34C246.2,-104.21 149.93,-89.16 68,-74 66.75,-73.77 65.49,-73.53 64.21,-73.29"/>
<polygon fill="#63b8ff" stroke="#63b8ff" points="64.8,-69.84 54.32,-71.33 63.45,-76.7 64.8,-69.84"/>
</a>
</g>
</g>
<!-- Node3 -->
<g id="Node000003" class="node">
<title>Node3</title>
<g id="a_Node000003"><a xlink:title=" ">
<polygon fill="#e0e0e0" stroke="#999999" points="399,-19 357,-19 357,0 399,0 399,-19"/>
<text text-anchor="middle" x="378" y="-7" font-family="Inter" font-size="10.00">glib.h</text>
</a>
</g>
</g>
<!-- Node1&#45;&gt;Node3 -->
<g id="edge2_Node000001_Node000003" class="edge">
<title>Node1&#45;&gt;Node3</title>
<g id="a_edge2_Node000001_Node000003"><a xlink:title=" ">
<path fill="none" stroke="#63b8ff" d="M299.88,-116.99C238.09,-113.77 125.83,-103.85 101,-74 95.6,-67.51 95.52,-61.43 101,-55 132.27,-18.3 280.84,-11.75 346.58,-10.67"/>
<polygon fill="#63b8ff" stroke="#63b8ff" points="346.8,-14.16 356.76,-10.53 346.71,-7.16 346.8,-14.16"/>
</a>
</g>
</g>
<!-- Node4 -->
<g id="Node000004" class="node">
<title>Node4</title>
<g id="a_Node000004"><a xlink:title=" ">
<polygon fill="#e0e0e0" stroke="#999999" points="169.5,-74 110.5,-74 110.5,-55 169.5,-55 169.5,-74"/>
<text text-anchor="middle" x="140" y="-62" font-family="Inter" font-size="10.00">gtk/gtk.h</text>
</a>
</g>
</g>
<!-- Node1&#45;&gt;Node4 -->
<g id="edge3_Node000001_Node000004" class="edge">
<title>Node1&#45;&gt;Node4</title>
<g id="a_edge3_Node000001_Node000004"><a xlink:title=" ">
<path fill="none" stroke="#63b8ff" d="M308.71,-109.98C273.61,-100.73 217.5,-85.94 179.73,-75.98"/>
<polygon fill="#63b8ff" stroke="#63b8ff" points="180.16,-72.47 169.59,-73.3 178.37,-79.24 180.16,-72.47"/>
</a>
</g>
</g>
<!-- Node5 -->
<g id="Node000005" class="node">
<title>Node5</title>
<g id="a_Node000005"><a xlink:title=" ">
<polygon fill="#e0e0e0" stroke="#999999" points="256.5,-74 187.5,-74 187.5,-55 256.5,-55 256.5,-74"/>
<text text-anchor="middle" x="222" y="-62" font-family="Inter" font-size="10.00">sys/types.h</text>
</a>
</g>
</g>
<!-- Node1&#45;&gt;Node5 -->
<g id="edge4_Node000001_Node000005" class="edge">
<title>Node1&#45;&gt;Node5</title>
<g id="a_edge4_Node000001_Node000005"><a xlink:title=" ">
<path fill="none" stroke="#63b8ff" d="M321.88,-109.98C302.65,-101.42 272.77,-88.11 250.69,-78.28"/>
<polygon fill="#63b8ff" stroke="#63b8ff" points="252.03,-75.04 241.47,-74.17 249.18,-81.44 252.03,-75.04"/>
</a>
</g>
</g>
<!-- Node6 -->
<g id="Node000006" class="node">
<title>Node6</title>
<g id="a_Node000006"><a xlink:title=" ">
<polygon fill="#e0e0e0" stroke="#999999" points="335.5,-74 274.5,-74 274.5,-55 335.5,-55 335.5,-74"/>
<text text-anchor="middle" x="305" y="-62" font-family="Inter" font-size="10.00">sys/stat.h</text>
</a>
</g>
</g>
<!-- Node1&#45;&gt;Node6 -->
<g id="edge5_Node000001_Node000006" class="edge">
<title>Node1&#45;&gt;Node6</title>
<g id="a_edge5_Node000001_Node000006"><a xlink:title=" ">
<path fill="none" stroke="#63b8ff" d="M335.06,-109.75C330.02,-102.34 322.66,-91.5 316.49,-82.41"/>
<polygon fill="#63b8ff" stroke="#63b8ff" points="319.35,-80.39 310.83,-74.09 313.56,-84.33 319.35,-80.39"/>
</a>
</g>
</g>
<!-- Node7 -->
<g id="Node000007" class="node">
<title>Node7</title>
<g id="a_Node000007"><a xlink:title=" ">
<polygon fill="#e0e0e0" stroke="#999999" points="400,-74 354,-74 354,-55 400,-55 400,-74"/>
<text text-anchor="middle" x="377" y="-62" font-family="Inter" font-size="10.00">fcntl.h</text>
</a>
</g>
</g>
<!-- Node1&#45;&gt;Node7 -->
<g id="edge6_Node000001_Node000007" class="edge">
<title>Node1&#45;&gt;Node7</title>
<g id="a_edge6_Node000001_Node000007"><a xlink:title=" ">
<path fill="none" stroke="#63b8ff" d="M346.94,-109.75C351.98,-102.34 359.34,-91.5 365.51,-82.41"/>
<polygon fill="#63b8ff" stroke="#63b8ff" points="368.44,-84.33 371.17,-74.09 362.65,-80.39 368.44,-84.33"/>
</a>
</g>
</g>
<!-- Node8 -->
<g id="Node000008" class="node">
<title>Node8</title>
<g id="a_Node000008"><a xlink:title=" ">
<polygon fill="#e0e0e0" stroke="#999999" points="472,-74 418,-74 418,-55 472,-55 472,-74"/>
<text text-anchor="middle" x="445" y="-62" font-family="Inter" font-size="10.00">unistd.h</text>
</a>
</g>
</g>
<!-- Node1&#45;&gt;Node8 -->
<g id="edge7_Node000001_Node000008" class="edge">
<title>Node1&#45;&gt;Node8</title>
<g id="a_edge7_Node000001_Node000008"><a xlink:title=" ">
<path fill="none" stroke="#63b8ff" d="M357.71,-109.98C374.21,-101.57 399.7,-88.59 418.88,-78.81"/>
<polygon fill="#63b8ff" stroke="#63b8ff" points="420.67,-81.83 427.99,-74.17 417.49,-75.59 420.67,-81.83"/>
</a>
</g>
</g>
<!-- Node9 -->
<g id="Node000009" class="node">
<title>Node9</title>
<g id="a_Node000009"><a xlink:title=" ">
<polygon fill="#e0e0e0" stroke="#999999" points="543.5,-74 490.5,-74 490.5,-55 543.5,-55 543.5,-74"/>
<text text-anchor="middle" x="517" y="-62" font-family="Inter" font-size="10.00">string.h</text>
</a>
</g>
</g>
<!-- Node1&#45;&gt;Node9 -->
<g id="edge8_Node000001_Node000009" class="edge">
<title>Node1&#45;&gt;Node9</title>
<g id="a_edge8_Node000001_Node000009"><a xlink:title=" ">
<path fill="none" stroke="#63b8ff" d="M369.28,-109.98C399.48,-100.89 447.46,-86.44 480.5,-76.49"/>
<polygon fill="#63b8ff" stroke="#63b8ff" points="481.67,-79.79 490.24,-73.56 479.65,-73.09 481.67,-79.79"/>
</a>
</g>
</g>
<!-- Node10 -->
<g id="Node000010" class="node">
<title>Node10</title>
<g id="a_Node000010"><a xlink:title=" ">
<polygon fill="#e0e0e0" stroke="#999999" points="614.5,-74 561.5,-74 561.5,-55 614.5,-55 614.5,-74"/>
<text text-anchor="middle" x="588" y="-62" font-family="Inter" font-size="10.00">errno.h</text>
</a>
</g>
</g>
<!-- Node1&#45;&gt;Node10 -->
<g id="edge9_Node000001_Node000010" class="edge">
<title>Node1&#45;&gt;Node10</title>
<g id="a_edge9_Node000001_Node000010"><a xlink:title=" ">
<path fill="none" stroke="#63b8ff" d="M382.12,-110.27C422.8,-102.03 487.1,-88.78 551.37,-74.32"/>
<polygon fill="#63b8ff" stroke="#63b8ff" points="552.28,-77.7 561.27,-72.08 550.74,-70.87 552.28,-77.7"/>
</a>
</g>
</g>
<!-- Node11 -->
<g id="Node000011" class="node">
<title>Node11</title>
<g id="a_Node000011"><a xlink:href="cpufreq-utils_8h.html" target="_top" xlink:title=" ">
<polygon fill="white" stroke="#666666" points="715.5,-74 632.5,-74 632.5,-55 715.5,-55 715.5,-74"/>
<text text-anchor="middle" x="674" y="-62" font-family="Inter" font-size="10.00">cpufreq&#45;utils.h</text>
</a>
</g>
</g>
<!-- Node1&#45;&gt;Node11 -->
<g id="edge10_Node000001_Node000011" class="edge">
<title>Node1&#45;&gt;Node11</title>
<g id="a_edge10_Node000001_Node000011"><a xlink:title=" ">
<path fill="none" stroke="#63b8ff" d="M382.27,-112.18C435.46,-103.99 531.08,-89.14 622.31,-74.26"/>
<polygon fill="#63b8ff" stroke="#63b8ff" points="622.96,-77.7 632.26,-72.63 621.83,-70.79 622.96,-77.7"/>
</a>
</g>
</g>
<!-- Node11&#45;&gt;Node3 -->
<g id="edge11_Node000011_Node000003" class="edge">
<title>Node11&#45;&gt;Node3</title>
<g id="a_edge11_Node000011_Node000003"><a xlink:title=" ">
<path fill="none" stroke="#63b8ff" d="M632.22,-56.02C572.16,-45.26 462.78,-25.68 409.22,-16.09"/>
<polygon fill="#63b8ff" stroke="#63b8ff" points="409.75,-12.63 399.29,-14.31 408.52,-19.52 409.75,-12.63"/>
</a>
</g>
</g>
</g>
</svg>
