<?xml version="1.0" encoding="UTF-8" standalone="no"?>
<!DOCTYPE svg PUBLIC "-//W3C//DTD SVG 1.1//EN"
 "http://www.w3.org/Graphics/SVG/1.1/DTD/svg11.dtd">
<!-- Generated by graphviz version 2.43.0 (0)
 -->
<!-- Title: cpufreq&#45;utils.h Pages: 1 -->
<svg width="1039pt" height="82pt"
 viewBox="0.00 0.00 1039.00 82.00" xmlns="http://www.w3.org/2000/svg" xmlns:xlink="http://www.w3.org/1999/xlink">
<g id="graph0" class="graph" transform="scale(1 1) rotate(0) translate(4 78)">
<title>cpufreq&#45;utils.h</title>
<!-- Node1 -->
<g id="Node000001" class="node">
<title>Node1</title>
<g id="a_Node000001"><a xlink:title=" ">
<polygon fill="#999999" stroke="#666666" points="614.5,-74 531.5,-74 531.5,-55 614.5,-55 614.5,-74"/>
<text text-anchor="middle" x="573" y="-62" font-family="Inter" font-size="10.00">cpufreq&#45;utils.h</text>
</a>
</g>
</g>
<!-- Node2 -->
<g id="Node000002" class="node">
<title>Node2</title>
<g id="a_Node000002"><a xlink:href="cpufreq-applet_8c.html" target="_top" xlink:title=" ">
<polygon fill="white" stroke="#666666" points="92,-19 0,-19 0,0 92,0 92,-19"/>
<text text-anchor="middle" x="46" y="-7" font-family="Inter" font-size="10.00">cpufreq&#45;applet.c</text>
</a>
</g>
</g>
<!-- Node1&#45;&gt;Node2 -->
<g id="edge1_Node000001_Node000002" class="edge">
<title>Node1&#45;&gt;Node2</title>
<g id="a_edge1_Node000001_Node000002"><a xlink:title=" ">
<path fill="none" stroke="#63b8ff" d="M521.1,-59.62C434.07,-52.89 253.27,-37.93 101,-19 98.12,-18.64 95.17,-18.25 92.19,-17.84"/>
<polygon fill="#63b8ff" stroke="#63b8ff" points="521,-63.12 531.24,-60.4 521.54,-56.14 521,-63.12"/>
</a>
</g>
</g>
<!-- Node3 -->
<g id="Node000003" class="node">
<title>Node3</title>
<g id="a_Node000003"><a xlink:href="cpufreq-monitor-cpuinfo_8c.html" target="_top" xlink:title=" ">
<polygon fill="white" stroke="#666666" points="248,-19 110,-19 110,0 248,0 248,-19"/>
<text text-anchor="middle" x="179" y="-7" font-family="Inter" font-size="10.00">cpufreq&#45;monitor&#45;cpuinfo.c</text>
</a>
</g>
</g>
<!-- Node1&#45;&gt;Node3 -->
<g id="edge2_Node000001_Node000003" class="edge">
<title>Node1&#45;&gt;Node3</title>
<g id="a_edge2_Node000001_Node000003"><a xlink:title=" ">
<path fill="none" stroke="#63b8ff" d="M521.04,-56.51C449.23,-46.85 319.74,-29.43 242.35,-19.02"/>
<polygon fill="#63b8ff" stroke="#63b8ff" points="520.83,-60.01 531.21,-57.88 521.76,-53.08 520.83,-60.01"/>
</a>
</g>
</g>
<!-- Node4 -->
<g id="Node000004" class="node">
<title>Node4</title>
<g id="a_Node000004"><a xlink:href="cpufreq-monitor-factory_8c.html" target="_top" xlink:title=" ">
<polygon fill="white" stroke="#666666" points="402,-19 266,-19 266,0 402,0 402,-19"/>
<text text-anchor="middle" x="334" y="-7" font-family="Inter" font-size="10.00">cpufreq&#45;monitor&#45;factory.c</text>
</a>
</g>
</g>
<!-- Node1&#45;&gt;Node4 -->
<g id="edge3_Node000001_Node000004" class="edge">
<title>Node1&#45;&gt;Node4</title>
<g id="a_edge3_Node000001_Node000004"><a xlink:title=" ">
<path fill="none" stroke="#63b8ff" d="M524.82,-52.82C480.03,-42.88 414.16,-28.28 372.7,-19.08"/>
<polygon fill="#63b8ff" stroke="#63b8ff" points="524.08,-56.24 534.6,-54.98 525.6,-49.4 524.08,-56.24"/>
</a>
</g>
</g>
<!-- Node5 -->
<g id="Node000005" class="node">
<title>Node5</title>
<g id="a_Node000005"><a xlink:href="cpufreq-monitor-libcpufreq_8c.html" target="_top" xlink:title=" ">
<polygon fill="white" stroke="#666666" points="570,-19 420,-19 420,0 570,0 570,-19"/>
<text text-anchor="middle" x="495" y="-7" font-family="Inter" font-size="10.00">cpufreq&#45;monitor&#45;libcpufreq.c</text>
</a>
</g>
</g>
<!-- Node1&#45;&gt;Node5 -->
<g id="edge4_Node000001_Node000005" class="edge">
<title>Node1&#45;&gt;Node5</title>
<g id="a_edge4_Node000001_Node000005"><a xlink:title=" ">
<path fill="none" stroke="#63b8ff" d="M551.88,-49.15C537.79,-39.57 519.71,-27.29 507.76,-19.17"/>
<polygon fill="#63b8ff" stroke="#63b8ff" points="550.23,-52.26 560.47,-54.98 554.16,-46.47 550.23,-52.26"/>
</a>
</g>
</g>
<!-- Node6 -->
<g id="Node000006" class="node">
<title>Node6</title>
<g id="a_Node000006"><a xlink:href="cpufreq-monitor-sysfs_8c.html" target="_top" xlink:title=" ">
<polygon fill="white" stroke="#666666" points="714,-19 588,-19 588,0 714,0 714,-19"/>
<text text-anchor="middle" x="651" y="-7" font-family="Inter" font-size="10.00">cpufreq&#45;monitor&#45;sysfs.c</text>
</a>
</g>
</g>
<!-- Node1&#45;&gt;Node6 -->
<g id="edge5_Node000001_Node000006" class="edge">
<title>Node1&#45;&gt;Node6</title>
<g id="a_edge5_Node000001_Node000006"><a xlink:title=" ">
<path fill="none" stroke="#63b8ff" d="M594.12,-49.15C608.21,-39.57 626.29,-27.29 638.24,-19.17"/>
<polygon fill="#63b8ff" stroke="#63b8ff" points="591.84,-46.47 585.53,-54.98 595.77,-52.26 591.84,-46.47"/>
</a>
</g>
</g>
<!-- Node7 -->
<g id="Node000007" class="node">
<title>Node7</title>
<g id="a_Node000007"><a xlink:href="cpufreq-popup_8c.html" target="_top" xlink:title=" ">
<polygon fill="white" stroke="#666666" points="825.5,-19 732.5,-19 732.5,0 825.5,0 825.5,-19"/>
<text text-anchor="middle" x="779" y="-7" font-family="Inter" font-size="10.00">cpufreq&#45;popup.c</text>
</a>
</g>
</g>
<!-- Node1&#45;&gt;Node7 -->
<g id="edge6_Node000001_Node000007" class="edge">
<title>Node1&#45;&gt;Node7</title>
<g id="a_edge6_Node000001_Node000007"><a xlink:title=" ">
<path fill="none" stroke="#63b8ff" d="M616,-52.44C654.56,-42.52 710.36,-28.16 745.64,-19.08"/>
<polygon fill="#63b8ff" stroke="#63b8ff" points="614.91,-49.1 606.1,-54.98 616.65,-55.88 614.91,-49.1"/>
</a>
</g>
</g>
<!-- Node8 -->
<g id="Node000008" class="node">
<title>Node8</title>
<g id="a_Node000008"><a xlink:href="cpufreq-prefs_8c.html" target="_top" xlink:title=" ">
<polygon fill="white" stroke="#666666" points="930.5,-19 843.5,-19 843.5,0 930.5,0 930.5,-19"/>
<text text-anchor="middle" x="887" y="-7" font-family="Inter" font-size="10.00">cpufreq&#45;prefs.c</text>
</a>
</g>
</g>
<!-- Node1&#45;&gt;Node8 -->
<g id="edge7_Node000001_Node000008" class="edge">
<title>Node1&#45;&gt;Node8</title>
<g id="a_edge7_Node000001_Node000008"><a xlink:title=" ">
<path fill="none" stroke="#63b8ff" d="M624.88,-54.74C685.91,-44.44 786.15,-27.52 843.36,-17.87"/>
<polygon fill="#63b8ff" stroke="#63b8ff" points="623.97,-51.35 614.7,-56.46 625.14,-58.25 623.97,-51.35"/>
</a>
</g>
</g>
<!-- Node9 -->
<g id="Node000009" class="node">
<title>Node9</title>
<g id="a_Node000009"><a xlink:href="cpufreq-utils_8c.html" target="_top" xlink:title=" ">
<polygon fill="white" stroke="#666666" points="1031,-19 949,-19 949,0 1031,0 1031,-19"/>
<text text-anchor="middle" x="990" y="-7" font-family="Inter" font-size="10.00">cpufreq&#45;utils.c</text>
</a>
</g>
</g>
<!-- Node1&#45;&gt;Node9 -->
<g id="edge8_Node000001_Node000009" class="edge">
<title>Node1&#45;&gt;Node9</title>
<g id="a_edge8_Node000001_Node000009"><a xlink:title=" ">
<path fill="none" stroke="#63b8ff" d="M624.68,-58.02C695.82,-50.3 827.86,-35.32 940,-19 942.88,-18.58 945.84,-18.13 948.82,-17.66"/>
<polygon fill="#63b8ff" stroke="#63b8ff" points="624.21,-54.55 614.64,-59.11 624.96,-61.51 624.21,-54.55"/>
</a>
</g>
</g>
</g>
</svg>
