<?xml version="1.0" encoding="UTF-8" standalone="no"?>
<!DOCTYPE svg PUBLIC "-//W3C//DTD SVG 1.1//EN"
 "http://www.w3.org/Graphics/SVG/1.1/DTD/svg11.dtd">
<!-- Generated by graphviz version 2.43.0 (0)
 -->
<!-- Title: currency.h Pages: 1 -->
<svg width="474pt" height="137pt"
 viewBox="0.00 0.00 474.00 137.00" xmlns="http://www.w3.org/2000/svg" xmlns:xlink="http://www.w3.org/1999/xlink">

<svg id="main" version="1.1" xmlns="http://www.w3.org/2000/svg" xmlns:xlink="http://www.w3.org/1999/xlink" xml:space="preserve">

<style type="text/css"><![CDATA[
.node, .edge {opacity: 0.7;}
.node.selected, .edge.selected {opacity: 1;}
.edge:hover path { stroke: red; }
.edge:hover polygon { stroke: red; fill: red; }
]]></style>
<script type="application/ecmascript" xlink:href="svg.min.js"/>
<svg id="graph" class="graph">
<g id="graph0" class="graph" transform="scale(1 1) rotate(0) translate(4 133)">
<title>currency.h</title>
<!-- Node1 -->
<g id="Node000001" class="node">
<title>Node1</title>
<g id="a_Node000001"><a xlink:title=" ">
<polygon fill="#999999" stroke="#666666" points="175.5,-129 110.5,-129 110.5,-110 175.5,-110 175.5,-129"/>
<text text-anchor="middle" x="143" y="-117" font-family="Inter" font-size="10.00">currency.h</text>
</a>
</g>
</g>
<!-- Node2 -->
<g id="Node000002" class="node">
<title>Node2</title>
<g id="a_Node000002"><a xlink:href="currency-manager_8h.html" target="_top" xlink:title=" ">
<polygon fill="white" stroke="#666666" points="249.5,-74 140.5,-74 140.5,-55 249.5,-55 249.5,-74"/>
<text text-anchor="middle" x="195" y="-62" font-family="Inter" font-size="10.00">currency&#45;manager.h</text>
</a>
</g>
</g>
<!-- Node1&#45;&gt;Node2 -->
<g id="edge1_Node000001_Node000002" class="edge">
<title>Node1&#45;&gt;Node2</title>
<g id="a_edge1_Node000001_Node000002"><a xlink:title=" ">
<path fill="none" stroke="#63b8ff" d="M158.68,-102.52C167.84,-93.18 179.05,-81.75 186.57,-74.09"/>
<polygon fill="#63b8ff" stroke="#63b8ff" points="156.09,-100.16 151.59,-109.75 161.09,-105.06 156.09,-100.16"/>
</a>
</g>
</g>
<!-- Node4 -->
<g id="Node000004" class="node">
<title>Node4</title>
<g id="a_Node000004"><a xlink:href="currency_8c.html" target="_top" xlink:title=" ">
<polygon fill="white" stroke="#666666" points="64,-19 0,-19 0,0 64,0 64,-19"/>
<text text-anchor="middle" x="32" y="-7" font-family="Inter" font-size="10.00">currency.c</text>
</a>
</g>
</g>
<!-- Node1&#45;&gt;Node4 -->
<g id="edge7_Node000001_Node000004" class="edge">
<title>Node1&#45;&gt;Node4</title>
<g id="a_edge7_Node000001_Node000004"><a xlink:title=" ">
<path fill="none" stroke="#63b8ff" d="M126.66,-102.61C102.88,-79.47 59.53,-37.29 40.9,-19.16"/>
<polygon fill="#63b8ff" stroke="#63b8ff" points="124.31,-105.2 133.92,-109.66 129.19,-100.18 124.31,-105.2"/>
</a>
</g>
</g>
<!-- Node3 -->
<g id="Node000003" class="node">
<title>Node3</title>
<g id="a_Node000003"><a xlink:href="currency-manager_8c.html" target="_top" xlink:title=" ">
<polygon fill="white" stroke="#666666" points="189.5,-19 82.5,-19 82.5,0 189.5,0 189.5,-19"/>
<text text-anchor="middle" x="136" y="-7" font-family="Inter" font-size="10.00">currency&#45;manager.c</text>
</a>
</g>
</g>
<!-- Node2&#45;&gt;Node3 -->
<g id="edge2_Node000002_Node000003" class="edge">
<title>Node2&#45;&gt;Node3</title>
<g id="a_edge2_Node000002_Node000003"><a xlink:title=" ">
<path fill="none" stroke="#63b8ff" d="M177.8,-48.04C167.33,-38.64 154.35,-26.98 145.65,-19.17"/>
<polygon fill="#63b8ff" stroke="#63b8ff" points="175.74,-50.91 185.52,-54.98 180.42,-45.7 175.74,-50.91"/>
</a>
</g>
</g>
<!-- Node2&#45;&gt;Node4 -->
<g id="edge3_Node000002_Node000004" class="edge">
<title>Node2&#45;&gt;Node4</title>
<g id="a_edge3_Node000002_Node000004"><a xlink:title=" ">
<path fill="none" stroke="#63b8ff" d="M159.01,-51.8C128.59,-41.91 85.72,-27.97 58.39,-19.08"/>
<polygon fill="#63b8ff" stroke="#63b8ff" points="158.22,-55.22 168.81,-54.98 160.38,-48.56 158.22,-55.22"/>
</a>
</g>
</g>
<!-- Node5 -->
<g id="Node000005" class="node">
<title>Node5</title>
<g id="a_Node000005"><a xlink:href="math-converter_8c.html" target="_top" xlink:title=" ">
<polygon fill="white" stroke="#666666" points="302.5,-19 207.5,-19 207.5,0 302.5,0 302.5,-19"/>
<text text-anchor="middle" x="255" y="-7" font-family="Inter" font-size="10.00">math&#45;converter.c</text>
</a>
</g>
</g>
<!-- Node2&#45;&gt;Node5 -->
<g id="edge4_Node000002_Node000005" class="edge">
<title>Node2&#45;&gt;Node5</title>
<g id="a_edge4_Node000002_Node000005"><a xlink:title=" ">
<path fill="none" stroke="#63b8ff" d="M212.18,-48.32C222.88,-38.87 236.26,-27.06 245.18,-19.17"/>
<polygon fill="#63b8ff" stroke="#63b8ff" points="209.82,-45.74 204.64,-54.98 214.45,-50.99 209.82,-45.74"/>
</a>
</g>
</g>
<!-- Node6 -->
<g id="Node000006" class="node">
<title>Node6</title>
<g id="a_Node000006"><a xlink:href="unit-manager_8c.html" target="_top" xlink:title=" ">
<polygon fill="white" stroke="#666666" points="405.5,-19 320.5,-19 320.5,0 405.5,0 405.5,-19"/>
<text text-anchor="middle" x="363" y="-7" font-family="Inter" font-size="10.00">unit&#45;manager.c</text>
</a>
</g>
</g>
<!-- Node2&#45;&gt;Node6 -->
<g id="edge5_Node000002_Node000006" class="edge">
<title>Node2&#45;&gt;Node6</title>
<g id="a_edge5_Node000002_Node000006"><a xlink:title=" ">
<path fill="none" stroke="#63b8ff" d="M231.68,-51.93C263.06,-42.03 307.51,-28.01 335.8,-19.08"/>
<polygon fill="#63b8ff" stroke="#63b8ff" points="230.48,-48.64 221.99,-54.98 232.58,-55.31 230.48,-48.64"/>
</a>
</g>
</g>
<!-- Node7 -->
<g id="Node000007" class="node">
<title>Node7</title>
<g id="a_Node000007"><a xlink:href="unit_8c.html" target="_top" xlink:title=" ">
<polygon fill="white" stroke="#666666" points="466,-19 424,-19 424,0 466,0 466,-19"/>
<text text-anchor="middle" x="445" y="-7" font-family="Inter" font-size="10.00">unit.c</text>
</a>
</g>
</g>
<!-- Node2&#45;&gt;Node7 -->
<g id="edge6_Node000002_Node000007" class="edge">
<title>Node2&#45;&gt;Node7</title>
<g id="a_edge6_Node000002_Node000007"><a xlink:title=" ">
<path fill="none" stroke="#63b8ff" d="M252.5,-53.12C297.04,-44.77 360.19,-32.29 415,-19 417.84,-18.31 420.82,-17.53 423.75,-16.74"/>
<polygon fill="#63b8ff" stroke="#63b8ff" points="251.63,-49.72 242.44,-54.99 252.91,-56.6 251.63,-49.72"/>
</a>
</g>
</g>
</g>
</svg>
</svg>

<style type='text/css'>
<![CDATA[
[data-mouse-over-selected='false'] { opacity: 0.7; }
[data-mouse-over-selected='true']  { opacity: 1.0; }
]]>
</style>
<script type="application/ecmascript"><![CDATA[
document.addEventListener('DOMContentLoaded', (event) => {
  highlightEdges();
  highlightAdjacentNodes();
});
]]></script>
</svg>
