<?xml version="1.0" encoding="UTF-8" standalone="no"?>
<!DOCTYPE svg PUBLIC "-//W3C//DTD SVG 1.1//EN"
 "http://www.w3.org/Graphics/SVG/1.1/DTD/svg11.dtd">
<!-- Generated by graphviz version 2.43.0 (0)
 -->
<!-- Title: daemon.c Pages: 1 -->
<!--zoomable 192 -->

<svg id="main" version="1.1" xmlns="http://www.w3.org/2000/svg" xmlns:xlink="http://www.w3.org/1999/xlink" xml:space="preserve" onload="init(evt)">

<style type="text/css"><![CDATA[
.node, .edge {opacity: 0.7;}
.node.selected, .edge.selected {opacity: 1;}
.edge:hover path { stroke: red; }
.edge:hover polygon { stroke: red; fill: red; }
]]></style>

<defs>
  <circle id="rim" cx="0" cy="0" r="7"/>
  <circle id="rim2" cx="0" cy="0" r="3.5"/>
  <g id="zoomPlus">
    <use xlink:href="#rim" fill="#404040"><set attributeName="fill" to="#808080" begin="zoomplus.mouseover" end="zoomplus.mouseout"/></use>
    <path d="M-4,0h8M0,-4v8" fill="none" stroke="white" stroke-width="1.5" pointer-events="none"/>
  </g>
  <g id="zoomMin">
    <use xlink:href="#rim" fill="#404040"><set attributeName="fill" to="#808080" begin="zoomminus.mouseover" end="zoomminus.mouseout"/></use>
    <path d="M-4,0h8" fill="none" stroke="white" stroke-width="1.5" pointer-events="none"/>
  </g>
  <g id="arrowUp" transform="translate(30 24)">
    <use xlink:href="#rim"/>
    <path pointer-events="none" fill="none" stroke="white" stroke-width="1.5" d="M0,-3.0v7 M-2.5,-0.5L0,-3.0L2.5,-0.5"/>
  </g>
  <g id="arrowRight" transform="rotate(90) translate(36 -43)">
    <use xlink:href="#rim"/>
    <path pointer-events="none" fill="none" stroke="white" stroke-width="1.5" d="M0,-3.0v7 M-2.5,-0.5L0,-3.0L2.5,-0.5"/>
  </g>
  <g id="arrowDown" transform="rotate(180) translate(-30 -48)">
    <use xlink:href="#rim"/>
    <path pointer-events="none" fill="none" stroke="white" stroke-width="1.5" d="M0,-3.0v7 M-2.5,-0.5L0,-3.0L2.5,-0.5"/>
  </g>
  <g id="arrowLeft" transform="rotate(270) translate(-36 17)">
    <use xlink:href="#rim"/>
    <path pointer-events="none" fill="none" stroke="white" stroke-width="1.5" d="M0,-3.0v7 M-2.5,-0.5L0,-3.0L2.5,-0.5"/>
  </g>
  <g id="resetDef">
    <use xlink:href="#rim2" fill="#404040"><set attributeName="fill" to="#808080" begin="reset.mouseover" end="reset.mouseout"/></use>
  </g>
</defs>
<script type="application/ecmascript">
var viewWidth = 891;
var viewHeight = 192;
var sectionId = 'dynsection-0';
</script>
<script type="application/ecmascript" xlink:href="svg.min.js"/>
<svg id="graph" class="graph">
<g id="viewport">
<title>daemon.c</title>
<!-- Node1 -->
<g id="Node000001" class="node">
<title>Node1</title>
<g id="a_Node000001"><a xlink:title=" ">
<polygon fill="#999999" stroke="#666666" points="499,-184 437,-184 437,-165 499,-165 499,-184"/>
<text text-anchor="middle" x="468" y="-172" font-family="Inter" font-size="10.00">daemon.c</text>
</a>
</g>
</g>
<!-- Node2 -->
<g id="Node000002" class="node">
<title>Node2</title>
<g id="a_Node000002"><a xlink:title=" ">
<polygon fill="#e0e0e0" stroke="#999999" points="54,-129 0,-129 0,-110 54,-110 54,-129"/>
<text text-anchor="middle" x="27" y="-117" font-family="Inter" font-size="10.00">config.h</text>
</a>
</g>
</g>
<!-- Node1&#45;&gt;Node2 -->
<g id="edge1_Node000001_Node000002" class="edge">
<title>Node1&#45;&gt;Node2</title>
<g id="a_edge1_Node000001_Node000002"><a xlink:title=" ">
<path fill="none" stroke="#63b8ff" d="M436.82,-171.38C370.19,-166.58 208.84,-153.45 64.01,-128.97"/>
<polygon fill="#63b8ff" stroke="#63b8ff" points="64.5,-125.5 54.05,-127.26 63.32,-132.4 64.5,-125.5"/>
</a>
</g>
</g>
<!-- Node3 -->
<g id="Node000003" class="node">
<title>Node3</title>
<g id="a_Node000003"><a xlink:title=" ">
<polygon fill="#e0e0e0" stroke="#999999" points="122,-129 72,-129 72,-110 122,-110 122,-129"/>
<text text-anchor="middle" x="97" y="-117" font-family="Inter" font-size="10.00">stdlib.h</text>
</a>
</g>
</g>
<!-- Node1&#45;&gt;Node3 -->
<g id="edge2_Node000001_Node000003" class="edge">
<title>Node1&#45;&gt;Node3</title>
<g id="a_edge2_Node000001_Node000003"><a xlink:title=" ">
<path fill="none" stroke="#63b8ff" d="M436.68,-170.57C378.55,-164.86 249.89,-151.03 132.09,-129.01"/>
<polygon fill="#63b8ff" stroke="#63b8ff" points="132.66,-125.56 122.18,-127.13 131.35,-132.43 132.66,-125.56"/>
</a>
</g>
</g>
<!-- Node4 -->
<g id="Node000004" class="node">
<title>Node4</title>
<g id="a_Node000004"><a xlink:title=" ">
<polygon fill="#e0e0e0" stroke="#999999" points="193.5,-129 140.5,-129 140.5,-110 193.5,-110 193.5,-129"/>
<text text-anchor="middle" x="167" y="-117" font-family="Inter" font-size="10.00">errno.h</text>
</a>
</g>
</g>
<!-- Node1&#45;&gt;Node4 -->
<g id="edge3_Node000001_Node000004" class="edge">
<title>Node1&#45;&gt;Node4</title>
<g id="a_edge3_Node000001_Node000004"><a xlink:title=" ">
<path fill="none" stroke="#63b8ff" d="M436.74,-169.02C388.64,-161.97 293.4,-147.36 203.51,-129.2"/>
<polygon fill="#63b8ff" stroke="#63b8ff" points="204.21,-125.77 193.71,-127.2 202.81,-132.63 204.21,-125.77"/>
</a>
</g>
</g>
<!-- Node5 -->
<g id="Node000005" class="node">
<title>Node5</title>
<g id="a_Node000005"><a xlink:title=" ">
<polygon fill="#e0e0e0" stroke="#999999" points="264.5,-129 211.5,-129 211.5,-110 264.5,-110 264.5,-129"/>
<text text-anchor="middle" x="238" y="-117" font-family="Inter" font-size="10.00">string.h</text>
</a>
</g>
</g>
<!-- Node1&#45;&gt;Node5 -->
<g id="edge4_Node000001_Node000005" class="edge">
<title>Node1&#45;&gt;Node5</title>
<g id="a_edge4_Node000001_Node000005"><a xlink:title=" ">
<path fill="none" stroke="#63b8ff" d="M436.74,-166.39C400.26,-158.09 337.86,-143.83 274.49,-129.1"/>
<polygon fill="#63b8ff" stroke="#63b8ff" points="275.26,-125.69 264.73,-126.83 273.68,-132.51 275.26,-125.69"/>
</a>
</g>
</g>
<!-- Node6 -->
<g id="Node000006" class="node">
<title>Node6</title>
<g id="a_Node000006"><a xlink:title=" ">
<polygon fill="#e0e0e0" stroke="#999999" points="331,-129 283,-129 283,-110 331,-110 331,-129"/>
<text text-anchor="middle" x="307" y="-117" font-family="Inter" font-size="10.00">stdio.h</text>
</a>
</g>
</g>
<!-- Node1&#45;&gt;Node6 -->
<g id="edge5_Node000001_Node000006" class="edge">
<title>Node1&#45;&gt;Node6</title>
<g id="a_edge5_Node000001_Node000006"><a xlink:title=" ">
<path fill="none" stroke="#63b8ff" d="M442.13,-164.98C414.66,-155.94 371.12,-141.61 340.91,-131.66"/>
<polygon fill="#63b8ff" stroke="#63b8ff" points="341.82,-128.28 331.22,-128.47 339.63,-134.93 341.82,-128.28"/>
</a>
</g>
</g>
<!-- Node7 -->
<g id="Node000007" class="node">
<title>Node7</title>
<g id="a_Node000007"><a xlink:title=" ">
<polygon fill="#e0e0e0" stroke="#999999" points="421,-129 349,-129 349,-110 421,-110 421,-129"/>
<text text-anchor="middle" x="385" y="-117" font-family="Inter" font-size="10.00">glib/gi18n.h</text>
</a>
</g>
</g>
<!-- Node1&#45;&gt;Node7 -->
<g id="edge6_Node000001_Node000007" class="edge">
<title>Node1&#45;&gt;Node7</title>
<g id="a_edge6_Node000001_Node000007"><a xlink:title=" ">
<path fill="none" stroke="#63b8ff" d="M454.66,-164.98C441.91,-156.84 422.45,-144.41 407.33,-134.76"/>
<polygon fill="#63b8ff" stroke="#63b8ff" points="408.89,-131.6 398.58,-129.17 405.12,-137.5 408.89,-131.6"/>
</a>
</g>
</g>
<!-- Node8 -->
<g id="Node000008" class="node">
<title>Node8</title>
<g id="a_Node000008"><a xlink:title=" ">
<polygon fill="#e0e0e0" stroke="#999999" points="494,-19 452,-19 452,0 494,0 494,-19"/>
<text text-anchor="middle" x="473" y="-7" font-family="Inter" font-size="10.00">glib.h</text>
</a>
</g>
</g>
<!-- Node1&#45;&gt;Node8 -->
<g id="edge7_Node000001_Node000008" class="edge">
<title>Node1&#45;&gt;Node8</title>
<g id="a_edge7_Node000001_Node000008"><a xlink:title=" ">
<path fill="none" stroke="#63b8ff" d="M468.27,-164.74C469.05,-139.31 471.33,-65.08 472.41,-29.69"/>
<polygon fill="#63b8ff" stroke="#63b8ff" points="475.92,-29.41 472.73,-19.31 468.92,-29.19 475.92,-29.41"/>
</a>
</g>
</g>
<!-- Node9 -->
<g id="Node000009" class="node">
<title>Node9</title>
<g id="a_Node000009"><a xlink:title=" ">
<polygon fill="#e0e0e0" stroke="#999999" points="633,-19 559,-19 559,0 633,0 633,-19"/>
<text text-anchor="middle" x="596" y="-7" font-family="Inter" font-size="10.00">glib&#45;object.h</text>
</a>
</g>
</g>
<!-- Node1&#45;&gt;Node9 -->
<g id="edge8_Node000001_Node000009" class="edge">
<title>Node1&#45;&gt;Node9</title>
<g id="a_edge8_Node000001_Node000009"><a xlink:title=" ">
<path fill="none" stroke="#63b8ff" d="M474.62,-164.84C484,-152.59 501.72,-129.52 517,-110 539.87,-80.78 566.8,-46.99 582.58,-27.26"/>
<polygon fill="#63b8ff" stroke="#63b8ff" points="585.47,-29.25 588.98,-19.25 580,-24.87 585.47,-29.25"/>
</a>
</g>
</g>
<!-- Node10 -->
<g id="Node000010" class="node">
<title>Node10</title>
<g id="a_Node000010"><a xlink:title=" ">
<polygon fill="#e0e0e0" stroke="#999999" points="635.5,-74 576.5,-74 576.5,-55 635.5,-55 635.5,-74"/>
<text text-anchor="middle" x="606" y="-62" font-family="Inter" font-size="10.00">gtk/gtk.h</text>
</a>
</g>
</g>
<!-- Node1&#45;&gt;Node10 -->
<g id="edge9_Node000001_Node000010" class="edge">
<title>Node1&#45;&gt;Node10</title>
<g id="a_edge9_Node000001_Node000010"><a xlink:title=" ">
<path fill="none" stroke="#63b8ff" d="M478.13,-164.63C492.52,-152.12 519.81,-128.75 544,-110 557.35,-99.65 572.78,-88.57 584.91,-80.06"/>
<polygon fill="#63b8ff" stroke="#63b8ff" points="587.25,-82.69 593.45,-74.1 583.25,-76.95 587.25,-82.69"/>
</a>
</g>
</g>
<!-- Node11 -->
<g id="Node000011" class="node">
<title>Node11</title>
<g id="a_Node000011"><a xlink:href="daemon_8h.html" target="_top" xlink:title=" ">
<polygon fill="white" stroke="#666666" points="741,-74 677,-74 677,-55 741,-55 741,-74"/>
<text text-anchor="middle" x="709" y="-62" font-family="Inter" font-size="10.00">daemon.h</text>
</a>
</g>
</g>
<!-- Node1&#45;&gt;Node11 -->
<g id="edge10_Node000001_Node000011" class="edge">
<title>Node1&#45;&gt;Node11</title>
<g id="a_edge10_Node000001_Node000011"><a xlink:title=" ">
<path fill="none" stroke="#63b8ff" d="M499.17,-173.7C568.1,-173.4 730.05,-168.43 764,-129 778.75,-111.86 755.46,-92.19 734.79,-79.34"/>
<polygon fill="#63b8ff" stroke="#63b8ff" points="736.32,-76.17 725.92,-74.11 732.76,-82.21 736.32,-76.17"/>
</a>
</g>
</g>
<!-- Node14 -->
<g id="Node000014" class="node">
<title>Node14</title>
<g id="a_Node000014"><a xlink:href="engines_8h.html" target="_top" xlink:title=" ">
<polygon fill="white" stroke="#666666" points="615,-129 553,-129 553,-110 615,-110 615,-129"/>
<text text-anchor="middle" x="584" y="-117" font-family="Inter" font-size="10.00">engines.h</text>
</a>
</g>
</g>
<!-- Node1&#45;&gt;Node14 -->
<g id="edge15_Node000001_Node000014" class="edge">
<title>Node1&#45;&gt;Node14</title>
<g id="a_edge15_Node000001_Node000014"><a xlink:title=" ">
<path fill="none" stroke="#63b8ff" d="M486.64,-164.98C505.3,-156.46 534.25,-143.23 555.74,-133.41"/>
<polygon fill="#63b8ff" stroke="#63b8ff" points="557.38,-136.51 565.02,-129.17 554.47,-130.14 557.38,-136.51"/>
</a>
</g>
</g>
<!-- Node15 -->
<g id="Node000015" class="node">
<title>Node15</title>
<g id="a_Node000015"><a xlink:href="mate-notification-daemon_2src_2daemon_2stack_8h.html" target="_top" xlink:title=" ">
<polygon fill="white" stroke="#666666" points="754.5,-129 705.5,-129 705.5,-110 754.5,-110 754.5,-129"/>
<text text-anchor="middle" x="730" y="-117" font-family="Inter" font-size="10.00">stack.h</text>
</a>
</g>
</g>
<!-- Node1&#45;&gt;Node15 -->
<g id="edge17_Node000001_Node000015" class="edge">
<title>Node1&#45;&gt;Node15</title>
<g id="a_edge17_Node000001_Node000015"><a xlink:title=" ">
<path fill="none" stroke="#63b8ff" d="M499.08,-167.96C541.27,-160.34 619.19,-145.84 695.39,-129.04"/>
<polygon fill="#63b8ff" stroke="#63b8ff" points="696.15,-132.46 705.15,-126.87 694.63,-125.62 696.15,-132.46"/>
</a>
</g>
</g>
<!-- Node16 -->
<g id="Node000016" class="node">
<title>Node16</title>
<g id="a_Node000016"><a xlink:href="sound_8h.html" target="_top" xlink:title=" ">
<polygon fill="white" stroke="#666666" points="687,-129 633,-129 633,-110 687,-110 687,-129"/>
<text text-anchor="middle" x="660" y="-117" font-family="Inter" font-size="10.00">sound.h</text>
</a>
</g>
</g>
<!-- Node1&#45;&gt;Node16 -->
<g id="edge20_Node000001_Node000016" class="edge">
<title>Node1&#45;&gt;Node16</title>
<g id="a_edge20_Node000001_Node000016"><a xlink:title=" ">
<path fill="none" stroke="#63b8ff" d="M498.85,-164.98C532.76,-155.62 587.21,-140.59 623.29,-130.63"/>
<polygon fill="#63b8ff" stroke="#63b8ff" points="624.24,-134 632.95,-127.97 622.38,-127.25 624.24,-134"/>
</a>
</g>
</g>
<!-- Node17 -->
<g id="Node000017" class="node">
<title>Node17</title>
<g id="a_Node000017"><a xlink:href="mnd-dbus-generated_8h.html" target="_top" xlink:title=" ">
<polygon fill="white" stroke="#666666" points="883,-74 759,-74 759,-55 883,-55 883,-74"/>
<text text-anchor="middle" x="821" y="-62" font-family="Inter" font-size="10.00">mnd&#45;dbus&#45;generated.h</text>
</a>
</g>
</g>
<!-- Node1&#45;&gt;Node17 -->
<g id="edge22_Node000001_Node000017" class="edge">
<title>Node1&#45;&gt;Node17</title>
<g id="a_edge22_Node000001_Node000017"><a xlink:title=" ">
<path fill="none" stroke="#63b8ff" d="M499.12,-172.3C568.59,-169.12 733.81,-158.58 780,-129 796.54,-118.41 807.75,-98.5 814.22,-83.78"/>
<polygon fill="#63b8ff" stroke="#63b8ff" points="817.59,-84.78 818.09,-74.19 811.1,-82.16 817.59,-84.78"/>
</a>
</g>
</g>
<!-- Node11&#45;&gt;Node8 -->
<g id="edge11_Node000011_Node000008" class="edge">
<title>Node11&#45;&gt;Node8</title>
<g id="a_edge11_Node000011_Node000008"><a xlink:title=" ">
<path fill="none" stroke="#63b8ff" d="M676.68,-56.24C631.22,-46.03 548.94,-27.55 504.13,-17.49"/>
<polygon fill="#63b8ff" stroke="#63b8ff" points="504.64,-14.02 494.11,-15.24 503.1,-20.85 504.64,-14.02"/>
</a>
</g>
</g>
<!-- Node11&#45;&gt;Node9 -->
<g id="edge12_Node000011_Node000009" class="edge">
<title>Node11&#45;&gt;Node9</title>
<g id="a_edge12_Node000011_Node000009"><a xlink:title=" ">
<path fill="none" stroke="#63b8ff" d="M690.84,-54.98C672.75,-46.5 644.72,-33.35 623.81,-23.54"/>
<polygon fill="#63b8ff" stroke="#63b8ff" points="625.03,-20.25 614.49,-19.17 622.05,-26.59 625.03,-20.25"/>
</a>
</g>
</g>
<!-- Node12 -->
<g id="Node000012" class="node">
<title>Node12</title>
<g id="a_Node000012"><a xlink:title=" ">
<polygon fill="#e0e0e0" stroke="#999999" points="835,-19 777,-19 777,0 835,0 835,-19"/>
<text text-anchor="middle" x="806" y="-7" font-family="Inter" font-size="10.00">gio/gio.h</text>
</a>
</g>
</g>
<!-- Node11&#45;&gt;Node12 -->
<g id="edge13_Node000011_Node000012" class="edge">
<title>Node11&#45;&gt;Node12</title>
<g id="a_edge13_Node000011_Node000012"><a xlink:title=" ">
<path fill="none" stroke="#63b8ff" d="M724.58,-54.98C739.77,-46.69 763.1,-33.94 780.9,-24.22"/>
<polygon fill="#63b8ff" stroke="#63b8ff" points="783.03,-27.04 790.13,-19.17 779.68,-20.89 783.03,-27.04"/>
</a>
</g>
</g>
<!-- Node13 -->
<g id="Node000013" class="node">
<title>Node13</title>
<g id="a_Node000013"><a xlink:href="constants_8h.html" target="_top" xlink:title=" ">
<polygon fill="white" stroke="#666666" points="744,-19 674,-19 674,0 744,0 744,-19"/>
<text text-anchor="middle" x="709" y="-7" font-family="Inter" font-size="10.00">constants.h</text>
</a>
</g>
</g>
<!-- Node11&#45;&gt;Node13 -->
<g id="edge14_Node000011_Node000013" class="edge">
<title>Node11&#45;&gt;Node13</title>
<g id="a_edge14_Node000011_Node000013"><a xlink:title=" ">
<path fill="none" stroke="#63b8ff" d="M709,-54.75C709,-47.8 709,-37.85 709,-29.13"/>
<polygon fill="#63b8ff" stroke="#63b8ff" points="712.5,-29.09 709,-19.09 705.5,-29.09 712.5,-29.09"/>
</a>
</g>
</g>
<!-- Node14&#45;&gt;Node10 -->
<g id="edge16_Node000014_Node000010" class="edge">
<title>Node14&#45;&gt;Node10</title>
<g id="a_edge16_Node000014_Node000010"><a xlink:title=" ">
<path fill="none" stroke="#63b8ff" d="M587.63,-109.75C590.58,-102.65 594.83,-92.4 598.51,-83.56"/>
<polygon fill="#63b8ff" stroke="#63b8ff" points="601.83,-84.67 602.43,-74.09 595.37,-81.98 601.83,-84.67"/>
</a>
</g>
</g>
<!-- Node15&#45;&gt;Node10 -->
<g id="edge18_Node000015_Node000010" class="edge">
<title>Node15&#45;&gt;Node10</title>
<g id="a_edge18_Node000015_Node000010"><a xlink:title=" ">
<path fill="none" stroke="#63b8ff" d="M710.08,-109.98C689.95,-101.38 658.62,-87.99 635.59,-78.15"/>
<polygon fill="#63b8ff" stroke="#63b8ff" points="636.86,-74.88 626.29,-74.17 634.1,-81.32 636.86,-74.88"/>
</a>
</g>
</g>
<!-- Node15&#45;&gt;Node11 -->
<g id="edge19_Node000015_Node000011" class="edge">
<title>Node15&#45;&gt;Node11</title>
<g id="a_edge19_Node000015_Node000011"><a xlink:title=" ">
<path fill="none" stroke="#63b8ff" d="M726.53,-109.75C723.72,-102.65 719.66,-92.4 716.15,-83.56"/>
<polygon fill="#63b8ff" stroke="#63b8ff" points="719.34,-82.1 712.4,-74.09 712.83,-84.68 719.34,-82.1"/>
</a>
</g>
</g>
<!-- Node16&#45;&gt;Node10 -->
<g id="edge21_Node000016_Node000010" class="edge">
<title>Node16&#45;&gt;Node10</title>
<g id="a_edge21_Node000016_Node000010"><a xlink:title=" ">
<path fill="none" stroke="#63b8ff" d="M651.08,-109.75C643.22,-102.03 631.57,-90.6 622.08,-81.28"/>
<polygon fill="#63b8ff" stroke="#63b8ff" points="624.34,-78.6 614.75,-74.09 619.44,-83.59 624.34,-78.6"/>
</a>
</g>
</g>
<!-- Node17&#45;&gt;Node12 -->
<g id="edge23_Node000017_Node000012" class="edge">
<title>Node17&#45;&gt;Node12</title>
<g id="a_edge23_Node000017_Node000012"><a xlink:title=" ">
<path fill="none" stroke="#63b8ff" d="M818.52,-54.75C816.54,-47.72 813.68,-37.62 811.19,-28.84"/>
<polygon fill="#63b8ff" stroke="#63b8ff" points="814.52,-27.76 808.43,-19.09 807.79,-29.66 814.52,-27.76"/>
</a>
</g>
</g>
</g>
</svg>

<g id="navigator" transform="translate(0 0)" fill="#404254">
  <rect fill="#f2f5e9" fill-opacity="0.5" stroke="#606060" stroke-width=".5" x="0" y="0" width="60" height="60"/>
  <use id="zoomplus" xlink:href="#zoomPlus" x="17" y="9" onmousedown="handleZoom(evt,'in')"/>
  <use id="zoomminus" xlink:href="#zoomMin" x="42" y="9" onmousedown="handleZoom(evt,'out')"/>
  <use id="reset" xlink:href="#resetDef" x="30" y="36" onmousedown="handleReset()"/>
   <use id="arrowup" xlink:href="#arrowUp" x="0" y="0" onmousedown="handlePan(0,-1)"/>
  <use id="arrowright" xlink:href="#arrowRight" x="0" y="0" onmousedown="handlePan(1,0)"/>
  <use id="arrowdown" xlink:href="#arrowDown" x="0" y="0" onmousedown="handlePan(0,1)"/>
  <use id="arrowleft" xlink:href="#arrowLeft" x="0" y="0" onmousedown="handlePan(-1,0)"/>
</g>
<svg viewBox="0 0 15 15" width="100%" height="30px" preserveAspectRatio="xMaxYMin meet">
 <g id="arrow_out" transform="scale(0.3 0.3)">
  <a xlink:href="daemon_8c__incl_org.svg" target="_base">
   <rect id="button" ry="5" rx="5" y="6" x="6" height="38" width="38"
        fill="#f2f5e9" fill-opacity="0.5" stroke="#606060" stroke-width="1.0"/>
   <path id="arrow"
     d="M 11.500037,31.436501 C 11.940474,20.09759 22.043105,11.32322 32.158766,21.979434 L 37.068811,17.246167 C 37.068811,17.246167 37.088388,32 37.088388,32 L 22.160133,31.978069 C 22.160133,31.978069 26.997745,27.140456 26.997745,27.140456 C 18.528582,18.264221 13.291696,25.230495 11.500037,31.436501 z"
     style="fill:#404040;"/>
  </a>
 </g>
</svg>

<style type='text/css'>
<![CDATA[
[data-mouse-over-selected='false'] { opacity: 0.7; }
[data-mouse-over-selected='true']  { opacity: 1.0; }
]]>
</style>
<script type="application/ecmascript"><![CDATA[
document.addEventListener('DOMContentLoaded', (event) => {
  highlightEdges();
  highlightAdjacentNodes();
});
]]></script>
</svg>
