<?xml version="1.0" encoding="UTF-8" standalone="no"?>
<!DOCTYPE svg PUBLIC "-//W3C//DTD SVG 1.1//EN"
 "http://www.w3.org/Graphics/SVG/1.1/DTD/svg11.dtd">
<!-- Generated by graphviz version 2.43.0 (0)
 -->
<!-- Title: delete.c Pages: 1 -->
<svg width="1035pt" height="302pt"
 viewBox="0.00 0.00 1035.00 302.00" xmlns="http://www.w3.org/2000/svg" xmlns:xlink="http://www.w3.org/1999/xlink">
<g id="graph0" class="graph" transform="scale(1 1) rotate(0) translate(4 298)">
<title>delete.c</title>
<!-- Node1 -->
<g id="Node000001" class="node">
<title>Node1</title>
<g id="a_Node000001"><a xlink:title=" ">
<polygon fill="#999999" stroke="#666666" points="588,-294 534,-294 534,-275 588,-275 588,-294"/>
<text text-anchor="middle" x="561" y="-282" font-family="Inter" font-size="10.00">delete.c</text>
</a>
</g>
</g>
<!-- Node2 -->
<g id="Node000002" class="node">
<title>Node2</title>
<g id="a_Node000002"><a xlink:title=" ">
<polygon fill="#e0e0e0" stroke="#999999" points="224,-129 170,-129 170,-110 224,-110 224,-129"/>
<text text-anchor="middle" x="197" y="-117" font-family="Inter" font-size="10.00">config.h</text>
</a>
</g>
</g>
<!-- Node1&#45;&gt;Node2 -->
<g id="edge1_Node000001_Node000002" class="edge">
<title>Node1&#45;&gt;Node2</title>
<g id="a_edge1_Node000001_Node000002"><a xlink:title=" ">
<path fill="none" stroke="#63b8ff" d="M533.66,-281.53C473.36,-276.78 331.04,-263.27 290,-239 248.88,-214.68 219.09,-164.74 205.4,-138.12"/>
<polygon fill="#63b8ff" stroke="#63b8ff" points="208.53,-136.56 200.95,-129.16 202.26,-139.67 208.53,-136.56"/>
</a>
</g>
</g>
<!-- Node3 -->
<g id="Node000003" class="node">
<title>Node3</title>
<g id="a_Node000003"><a xlink:title=" ">
<polygon fill="#e0e0e0" stroke="#999999" points="508,-239 422,-239 422,-220 508,-220 508,-239"/>
<text text-anchor="middle" x="465" y="-227" font-family="Inter" font-size="10.00">glib/gi18n&#45;lib.h</text>
</a>
</g>
</g>
<!-- Node1&#45;&gt;Node3 -->
<g id="edge2_Node000001_Node000003" class="edge">
<title>Node1&#45;&gt;Node3</title>
<g id="a_edge2_Node000001_Node000003"><a xlink:title=" ">
<path fill="none" stroke="#63b8ff" d="M545.58,-274.98C530.55,-266.69 507.46,-253.94 489.84,-244.22"/>
<polygon fill="#63b8ff" stroke="#63b8ff" points="491.15,-240.94 480.7,-239.17 487.77,-247.07 491.15,-240.94"/>
</a>
</g>
</g>
<!-- Node4 -->
<g id="Node000004" class="node">
<title>Node4</title>
<g id="a_Node000004"><a xlink:title=" ">
<polygon fill="#e0e0e0" stroke="#999999" points="282,-129 242,-129 242,-110 282,-110 282,-129"/>
<text text-anchor="middle" x="262" y="-117" font-family="Inter" font-size="10.00">util.h</text>
</a>
</g>
</g>
<!-- Node1&#45;&gt;Node4 -->
<g id="edge3_Node000001_Node000004" class="edge">
<title>Node1&#45;&gt;Node4</title>
<g id="a_edge3_Node000001_Node000004"><a xlink:title=" ">
<path fill="none" stroke="#63b8ff" d="M533.87,-281.96C476.24,-278.17 344.13,-266.64 310,-239 279.05,-213.93 267.9,-165.78 264.01,-139.23"/>
<polygon fill="#63b8ff" stroke="#63b8ff" points="267.44,-138.48 262.71,-129 260.5,-139.36 267.44,-138.48"/>
</a>
</g>
</g>
<!-- Node5 -->
<g id="Node000005" class="node">
<title>Node5</title>
<g id="a_Node000005"><a xlink:href="window-private_8h.html" target="_top" xlink:title=" ">
<polygon fill="white" stroke="#666666" points="484.5,-184 387.5,-184 387.5,-165 484.5,-165 484.5,-184"/>
<text text-anchor="middle" x="436" y="-172" font-family="Inter" font-size="10.00">window&#45;private.h</text>
</a>
</g>
</g>
<!-- Node1&#45;&gt;Node5 -->
<g id="edge4_Node000001_Node000005" class="edge">
<title>Node1&#45;&gt;Node5</title>
<g id="a_edge4_Node000001_Node000005"><a xlink:title=" ">
<path fill="none" stroke="#63b8ff" d="M533.64,-282.67C476.38,-280.29 346.95,-271.38 320,-239 298.61,-213.3 339.11,-196.29 378,-186.4"/>
<polygon fill="#63b8ff" stroke="#63b8ff" points="378.91,-189.78 387.82,-184.03 377.27,-182.97 378.91,-189.78"/>
</a>
</g>
</g>
<!-- Node27 -->
<g id="Node000027" class="node">
<title>Node27</title>
<g id="a_Node000027"><a xlink:href="errors_8h.html" target="_top" xlink:title=" ">
<polygon fill="white" stroke="#666666" points="157.5,-184 102.5,-184 102.5,-165 157.5,-165 157.5,-184"/>
<text text-anchor="middle" x="130" y="-172" font-family="Inter" font-size="10.00">errors.h</text>
</a>
</g>
</g>
<!-- Node1&#45;&gt;Node27 -->
<g id="edge20_Node000001_Node000027" class="edge">
<title>Node1&#45;&gt;Node27</title>
<g id="a_edge20_Node000001_Node000027"><a xlink:title=" ">
<path fill="none" stroke="#63b8ff" d="M533.82,-282.44C459.62,-279.2 255.09,-267.83 195,-239 173.09,-228.49 154.02,-207.64 142.29,-192.69"/>
<polygon fill="#63b8ff" stroke="#63b8ff" points="144.79,-190.19 135.99,-184.3 139.2,-194.4 144.79,-190.19"/>
</a>
</g>
</g>
<!-- Node29 -->
<g id="Node000029" class="node">
<title>Node29</title>
<g id="a_Node000029"><a xlink:href="workspace_8h.html" target="_top" xlink:title=" ">
<polygon fill="white" stroke="#666666" points="403.5,-239 328.5,-239 328.5,-220 403.5,-220 403.5,-239"/>
<text text-anchor="middle" x="366" y="-227" font-family="Inter" font-size="10.00">workspace.h</text>
</a>
</g>
</g>
<!-- Node1&#45;&gt;Node29 -->
<g id="edge25_Node000001_Node000029" class="edge">
<title>Node1&#45;&gt;Node29</title>
<g id="a_edge25_Node000001_Node000029"><a xlink:title=" ">
<path fill="none" stroke="#63b8ff" d="M533.89,-276.13C501.03,-267.2 445.35,-252.07 407.18,-241.69"/>
<polygon fill="#63b8ff" stroke="#63b8ff" points="407.97,-238.28 397.4,-239.03 406.13,-245.03 407.97,-238.28"/>
</a>
</g>
</g>
<!-- Node30 -->
<g id="Node000030" class="node">
<title>Node30</title>
<g id="a_Node000030"><a xlink:title=" ">
<polygon fill="#e0e0e0" stroke="#999999" points="595.5,-239 526.5,-239 526.5,-220 595.5,-220 595.5,-239"/>
<text text-anchor="middle" x="561" y="-227" font-family="Inter" font-size="10.00">sys/types.h</text>
</a>
</g>
</g>
<!-- Node1&#45;&gt;Node30 -->
<g id="edge27_Node000001_Node000030" class="edge">
<title>Node1&#45;&gt;Node30</title>
<g id="a_edge27_Node000001_Node000030"><a xlink:title=" ">
<path fill="none" stroke="#63b8ff" d="M561,-274.75C561,-267.8 561,-257.85 561,-249.13"/>
<polygon fill="#63b8ff" stroke="#63b8ff" points="564.5,-249.09 561,-239.09 557.5,-249.09 564.5,-249.09"/>
</a>
</g>
</g>
<!-- Node31 -->
<g id="Node000031" class="node">
<title>Node31</title>
<g id="a_Node000031"><a xlink:title=" ">
<polygon fill="#e0e0e0" stroke="#999999" points="676,-239 614,-239 614,-220 676,-220 676,-239"/>
<text text-anchor="middle" x="645" y="-227" font-family="Inter" font-size="10.00">sys/wait.h</text>
</a>
</g>
</g>
<!-- Node1&#45;&gt;Node31 -->
<g id="edge28_Node000001_Node000031" class="edge">
<title>Node1&#45;&gt;Node31</title>
<g id="a_edge28_Node000001_Node000031"><a xlink:title=" ">
<path fill="none" stroke="#63b8ff" d="M574.5,-274.98C587.4,-266.84 607.1,-254.41 622.4,-244.76"/>
<polygon fill="#63b8ff" stroke="#63b8ff" points="624.67,-247.47 631.26,-239.17 620.93,-241.55 624.67,-247.47"/>
</a>
</g>
</g>
<!-- Node32 -->
<g id="Node000032" class="node">
<title>Node32</title>
<g id="a_Node000032"><a xlink:title=" ">
<polygon fill="#e0e0e0" stroke="#999999" points="746,-239 694,-239 694,-220 746,-220 746,-239"/>
<text text-anchor="middle" x="720" y="-227" font-family="Inter" font-size="10.00">signal.h</text>
</a>
</g>
</g>
<!-- Node1&#45;&gt;Node32 -->
<g id="edge29_Node000001_Node000032" class="edge">
<title>Node1&#45;&gt;Node32</title>
<g id="a_edge29_Node000001_Node000032"><a xlink:title=" ">
<path fill="none" stroke="#63b8ff" d="M586.55,-274.98C613.12,-266.13 654.94,-252.19 684.67,-242.28"/>
<polygon fill="#63b8ff" stroke="#63b8ff" points="685.87,-245.56 694.25,-239.08 683.66,-238.92 685.87,-245.56"/>
</a>
</g>
</g>
<!-- Node33 -->
<g id="Node000033" class="node">
<title>Node33</title>
<g id="a_Node000033"><a xlink:title=" ">
<polygon fill="#e0e0e0" stroke="#999999" points="818,-239 764,-239 764,-220 818,-220 818,-239"/>
<text text-anchor="middle" x="791" y="-227" font-family="Inter" font-size="10.00">unistd.h</text>
</a>
</g>
</g>
<!-- Node1&#45;&gt;Node33 -->
<g id="edge30_Node000001_Node000033" class="edge">
<title>Node1&#45;&gt;Node33</title>
<g id="a_edge30_Node000001_Node000033"><a xlink:title=" ">
<path fill="none" stroke="#63b8ff" d="M588,-277.36C623.66,-269.25 688.68,-254.41 753.84,-239.26"/>
<polygon fill="#63b8ff" stroke="#63b8ff" points="754.93,-242.6 763.88,-236.92 753.34,-235.78 754.93,-242.6"/>
</a>
</g>
</g>
<!-- Node34 -->
<g id="Node000034" class="node">
<title>Node34</title>
<g id="a_Node000034"><a xlink:title=" ">
<polygon fill="#e0e0e0" stroke="#999999" points="889.5,-239 836.5,-239 836.5,-220 889.5,-220 889.5,-239"/>
<text text-anchor="middle" x="863" y="-227" font-family="Inter" font-size="10.00">errno.h</text>
</a>
</g>
</g>
<!-- Node1&#45;&gt;Node34 -->
<g id="edge31_Node000001_Node000034" class="edge">
<title>Node1&#45;&gt;Node34</title>
<g id="a_edge31_Node000001_Node000034"><a xlink:title=" ">
<path fill="none" stroke="#63b8ff" d="M588.3,-279.54C634.95,-272.65 733.23,-257.56 826.43,-238.99"/>
<polygon fill="#63b8ff" stroke="#63b8ff" points="827.19,-242.41 836.31,-237.01 825.81,-235.55 827.19,-242.41"/>
</a>
</g>
</g>
<!-- Node35 -->
<g id="Node000035" class="node">
<title>Node35</title>
<g id="a_Node000035"><a xlink:title=" ">
<polygon fill="#e0e0e0" stroke="#999999" points="960.5,-239 907.5,-239 907.5,-220 960.5,-220 960.5,-239"/>
<text text-anchor="middle" x="934" y="-227" font-family="Inter" font-size="10.00">string.h</text>
</a>
</g>
</g>
<!-- Node1&#45;&gt;Node35 -->
<g id="edge32_Node000001_Node000035" class="edge">
<title>Node1&#45;&gt;Node35</title>
<g id="a_edge32_Node000001_Node000035"><a xlink:title=" ">
<path fill="none" stroke="#63b8ff" d="M588.32,-280.91C644.43,-275.37 776.88,-261.2 897.19,-239.17"/>
<polygon fill="#63b8ff" stroke="#63b8ff" points="898.12,-242.56 907.31,-237.29 896.84,-235.68 898.12,-242.56"/>
</a>
</g>
</g>
<!-- Node36 -->
<g id="Node000036" class="node">
<title>Node36</title>
<g id="a_Node000036"><a xlink:title=" ">
<polygon fill="#e0e0e0" stroke="#999999" points="1027,-239 979,-239 979,-220 1027,-220 1027,-239"/>
<text text-anchor="middle" x="1003" y="-227" font-family="Inter" font-size="10.00">stdio.h</text>
</a>
</g>
</g>
<!-- Node1&#45;&gt;Node36 -->
<g id="edge33_Node000001_Node000036" class="edge">
<title>Node1&#45;&gt;Node36</title>
<g id="a_edge33_Node000001_Node000036"><a xlink:title=" ">
<path fill="none" stroke="#63b8ff" d="M588.48,-281.88C653.13,-277.78 819.98,-265.5 968.72,-238.97"/>
<polygon fill="#63b8ff" stroke="#63b8ff" points="969.72,-242.35 978.94,-237.12 968.47,-235.46 969.72,-242.35"/>
</a>
</g>
</g>
<!-- Node5&#45;&gt;Node2 -->
<g id="edge5_Node000005_Node000002" class="edge">
<title>Node5&#45;&gt;Node2</title>
<g id="a_edge5_Node000005_Node000002"><a xlink:title=" ">
<path fill="none" stroke="#63b8ff" d="M396.28,-164.99C357.41,-156.62 296.25,-143.33 234.1,-129.22"/>
<polygon fill="#63b8ff" stroke="#63b8ff" points="234.64,-125.76 224.12,-126.95 233.09,-132.58 234.64,-125.76"/>
</a>
</g>
</g>
<!-- Node5&#45;&gt;Node4 -->
<g id="edge11_Node000005_Node000004" class="edge">
<title>Node5&#45;&gt;Node4</title>
<g id="a_edge11_Node000005_Node000004"><a xlink:title=" ">
<path fill="none" stroke="#63b8ff" d="M408.04,-164.98C376.23,-155.29 324.47,-139.53 291.88,-129.6"/>
<polygon fill="#63b8ff" stroke="#63b8ff" points="292.61,-126.16 282.02,-126.6 290.57,-132.86 292.61,-126.16"/>
</a>
</g>
</g>
<!-- Node6 -->
<g id="Node000006" class="node">
<title>Node6</title>
<g id="a_Node000006"><a xlink:href="window_8h.html" target="_top" xlink:title=" ">
<polygon fill="#fff0f0" stroke="red" points="361.5,-129 300.5,-129 300.5,-110 361.5,-110 361.5,-129"/>
<text text-anchor="middle" x="331" y="-117" font-family="Inter" font-size="10.00">window.h</text>
</a>
</g>
</g>
<!-- Node5&#45;&gt;Node6 -->
<g id="edge6_Node000005_Node000006" class="edge">
<title>Node5&#45;&gt;Node6</title>
<g id="a_edge6_Node000005_Node000006"><a xlink:title=" ">
<path fill="none" stroke="#63b8ff" d="M419.13,-164.98C402.39,-156.54 376.5,-143.47 357.11,-133.68"/>
<polygon fill="#63b8ff" stroke="#63b8ff" points="358.68,-130.55 348.18,-129.17 355.53,-136.8 358.68,-130.55"/>
</a>
</g>
</g>
<!-- Node9 -->
<g id="Node000009" class="node">
<title>Node9</title>
<g id="a_Node000009"><a xlink:title=" ">
<polygon fill="#e0e0e0" stroke="#999999" points="383.5,-74 336.5,-74 336.5,-55 383.5,-55 383.5,-74"/>
<text text-anchor="middle" x="360" y="-62" font-family="Inter" font-size="10.00">cairo.h</text>
</a>
</g>
</g>
<!-- Node5&#45;&gt;Node9 -->
<g id="edge17_Node000005_Node000009" class="edge">
<title>Node5&#45;&gt;Node9</title>
<g id="a_edge17_Node000005_Node000009"><a xlink:title=" ">
<path fill="none" stroke="#63b8ff" d="M429.78,-164.66C417.14,-146.69 388.25,-105.64 371.88,-82.38"/>
<polygon fill="#63b8ff" stroke="#63b8ff" points="374.71,-80.32 366.09,-74.16 368.99,-84.35 374.71,-80.32"/>
</a>
</g>
</g>
<!-- Node15 -->
<g id="Node000015" class="node">
<title>Node15</title>
<g id="a_Node000015"><a xlink:href="screen-private_8h.html" target="_top" xlink:title=" ">
<polygon fill="#fff0f0" stroke="red" points="804,-74 712,-74 712,-55 804,-55 804,-74"/>
<text text-anchor="middle" x="758" y="-62" font-family="Inter" font-size="10.00">screen&#45;private.h</text>
</a>
</g>
</g>
<!-- Node5&#45;&gt;Node15 -->
<g id="edge9_Node000005_Node000015" class="edge">
<title>Node5&#45;&gt;Node15</title>
<g id="a_edge9_Node000005_Node000015"><a xlink:title=" ">
<path fill="none" stroke="#63b8ff" d="M484.6,-170.89C576.68,-165.44 769.19,-151.47 789,-129 801.34,-115 788.07,-95.21 775.26,-81.46"/>
<polygon fill="#63b8ff" stroke="#63b8ff" points="777.51,-78.76 767.98,-74.15 772.56,-83.71 777.51,-78.76"/>
</a>
</g>
</g>
<!-- Node22 -->
<g id="Node000022" class="node">
<title>Node22</title>
<g id="a_Node000022"><a xlink:title=" ">
<polygon fill="#e0e0e0" stroke="#999999" points="843,-19 775,-19 775,0 843,0 843,-19"/>
<text text-anchor="middle" x="809" y="-7" font-family="Inter" font-size="10.00">X11/Xutil.h</text>
</a>
</g>
</g>
<!-- Node5&#45;&gt;Node22 -->
<g id="edge16_Node000005_Node000022" class="edge">
<title>Node5&#45;&gt;Node22</title>
<g id="a_edge16_Node000005_Node000022"><a xlink:title=" ">
<path fill="none" stroke="#63b8ff" d="M484.67,-170.89C579.65,-165.33 782.46,-151 805,-129 831.43,-103.21 822.78,-55.38 815.24,-29.06"/>
<polygon fill="#63b8ff" stroke="#63b8ff" points="818.49,-27.74 812.18,-19.23 811.81,-29.81 818.49,-27.74"/>
</a>
</g>
</g>
<!-- Node24 -->
<g id="Node000024" class="node">
<title>Node24</title>
<g id="a_Node000024"><a xlink:href="marco_2src_2core_2stack_8h.html" target="_top" xlink:title=" ">
<polygon fill="white" stroke="#666666" points="690.5,-129 641.5,-129 641.5,-110 690.5,-110 690.5,-129"/>
<text text-anchor="middle" x="666" y="-117" font-family="Inter" font-size="10.00">stack.h</text>
</a>
</g>
</g>
<!-- Node5&#45;&gt;Node24 -->
<g id="edge12_Node000005_Node000024" class="edge">
<title>Node5&#45;&gt;Node24</title>
<g id="a_edge12_Node000005_Node000024"><a xlink:title=" ">
<path fill="none" stroke="#63b8ff" d="M475.33,-164.98C513.05,-156.73 571.86,-143.65 631.24,-129.38"/>
<polygon fill="#63b8ff" stroke="#63b8ff" points="632.25,-132.73 641.15,-126.98 630.61,-125.93 632.25,-132.73"/>
</a>
</g>
</g>
<!-- Node25 -->
<g id="Node000025" class="node">
<title>Node25</title>
<g id="a_Node000025"><a xlink:href="iconcache_8h.html" target="_top" xlink:title=" ">
<polygon fill="white" stroke="#666666" points="779.5,-129 708.5,-129 708.5,-110 779.5,-110 779.5,-129"/>
<text text-anchor="middle" x="744" y="-117" font-family="Inter" font-size="10.00">iconcache.h</text>
</a>
</g>
</g>
<!-- Node5&#45;&gt;Node25 -->
<g id="edge14_Node000005_Node000025" class="edge">
<title>Node5&#45;&gt;Node25</title>
<g id="a_edge14_Node000005_Node000025"><a xlink:title=" ">
<path fill="none" stroke="#63b8ff" d="M484.72,-165.65C535.57,-157.37 617.89,-143.74 698.18,-129.3"/>
<polygon fill="#63b8ff" stroke="#63b8ff" points="699.25,-132.66 708.47,-127.44 698.01,-125.77 699.25,-132.66"/>
</a>
</g>
</g>
<!-- Node26 -->
<g id="Node000026" class="node">
<title>Node26</title>
<g id="a_Node000026"><a xlink:title=" ">
<polygon fill="#e0e0e0" stroke="#999999" points="546,-129 418,-129 418,-110 546,-110 546,-129"/>
<text text-anchor="middle" x="482" y="-117" font-family="Inter" font-size="10.00">gdk&#45;pixbuf/gdk&#45;pixbuf.h</text>
</a>
</g>
</g>
<!-- Node5&#45;&gt;Node26 -->
<g id="edge18_Node000005_Node000026" class="edge">
<title>Node5&#45;&gt;Node26</title>
<g id="a_edge18_Node000005_Node000026"><a xlink:title=" ">
<path fill="none" stroke="#63b8ff" d="M443.6,-164.75C450.16,-157.18 459.82,-146.05 467.81,-136.84"/>
<polygon fill="#63b8ff" stroke="#63b8ff" points="470.63,-138.94 474.55,-129.09 465.35,-134.35 470.63,-138.94"/>
</a>
</g>
</g>
<!-- Node13 -->
<g id="Node000013" class="node">
<title>Node13</title>
<g id="a_Node000013"><a xlink:title=" ">
<polygon fill="#e0e0e0" stroke="#999999" points="623.5,-129 564.5,-129 564.5,-110 623.5,-110 623.5,-129"/>
<text text-anchor="middle" x="594" y="-117" font-family="Inter" font-size="10.00">gtk/gtk.h</text>
</a>
</g>
</g>
<!-- Node5&#45;&gt;Node13 -->
<g id="edge19_Node000005_Node000013" class="edge">
<title>Node5&#45;&gt;Node13</title>
<g id="a_edge19_Node000005_Node000013"><a xlink:title=" ">
<path fill="none" stroke="#63b8ff" d="M461.39,-164.98C487.8,-156.13 529.35,-142.19 558.89,-132.28"/>
<polygon fill="#63b8ff" stroke="#63b8ff" points="560.05,-135.58 568.42,-129.08 557.82,-128.94 560.05,-135.58"/>
</a>
</g>
</g>
<!-- Node6&#45;&gt;Node9 -->
<g id="edge7_Node000006_Node000009" class="edge">
<title>Node6&#45;&gt;Node9</title>
<g id="a_edge7_Node000006_Node000009"><a xlink:title=" ">
<path fill="none" stroke="#63b8ff" d="M335.79,-109.75C339.76,-102.49 345.53,-91.95 350.43,-82.98"/>
<polygon fill="#63b8ff" stroke="#63b8ff" points="353.57,-84.54 355.3,-74.09 347.43,-81.18 353.57,-84.54"/>
</a>
</g>
</g>
<!-- Node10 -->
<g id="Node000010" class="node">
<title>Node10</title>
<g id="a_Node000010"><a xlink:title=" ">
<polygon fill="#e0e0e0" stroke="#999999" points="174,-74 110,-74 110,-55 174,-55 174,-74"/>
<text text-anchor="middle" x="142" y="-62" font-family="Inter" font-size="10.00">X11/Xlib.h</text>
</a>
</g>
</g>
<!-- Node6&#45;&gt;Node10 -->
<g id="edge8_Node000006_Node000010" class="edge">
<title>Node6&#45;&gt;Node10</title>
<g id="a_edge8_Node000006_Node000010"><a xlink:title=" ">
<path fill="none" stroke="#63b8ff" d="M300.63,-109.98C268.63,-101.01 218.04,-86.82 182.62,-76.89"/>
<polygon fill="#63b8ff" stroke="#63b8ff" points="183.18,-73.41 172.6,-74.08 181.29,-80.15 183.18,-73.41"/>
</a>
</g>
</g>
<!-- Node15&#45;&gt;Node22 -->
<g id="edge10_Node000015_Node000022" class="edge">
<title>Node15&#45;&gt;Node22</title>
<g id="a_edge10_Node000015_Node000022"><a xlink:title=" ">
<path fill="none" stroke="#63b8ff" d="M766.42,-54.75C773.77,-47.11 784.63,-35.82 793.54,-26.56"/>
<polygon fill="#63b8ff" stroke="#63b8ff" points="796.32,-28.72 800.74,-19.09 791.28,-23.87 796.32,-28.72"/>
</a>
</g>
</g>
<!-- Node24&#45;&gt;Node15 -->
<g id="edge13_Node000024_Node000015" class="edge">
<title>Node24&#45;&gt;Node15</title>
<g id="a_edge13_Node000024_Node000015"><a xlink:title=" ">
<path fill="none" stroke="#63b8ff" d="M680.78,-109.98C695.18,-101.69 717.31,-88.94 734.19,-79.22"/>
<polygon fill="#63b8ff" stroke="#63b8ff" points="736.03,-82.19 742.95,-74.17 732.54,-76.13 736.03,-82.19"/>
</a>
</g>
</g>
<!-- Node25&#45;&gt;Node15 -->
<g id="edge15_Node000025_Node000015" class="edge">
<title>Node25&#45;&gt;Node15</title>
<g id="a_edge15_Node000025_Node000015"><a xlink:title=" ">
<path fill="none" stroke="#63b8ff" d="M746.31,-109.75C748.17,-102.72 750.84,-92.62 753.15,-83.84"/>
<polygon fill="#63b8ff" stroke="#63b8ff" points="756.56,-84.65 755.73,-74.09 749.79,-82.86 756.56,-84.65"/>
</a>
</g>
</g>
<!-- Node27&#45;&gt;Node10 -->
<g id="edge21_Node000027_Node000010" class="edge">
<title>Node27&#45;&gt;Node10</title>
<g id="a_edge21_Node000027_Node000010"><a xlink:title=" ">
<path fill="none" stroke="#63b8ff" d="M130.98,-164.66C132.93,-147.17 137.3,-107.8 139.91,-84.27"/>
<polygon fill="#63b8ff" stroke="#63b8ff" points="143.41,-84.48 141.04,-74.16 136.45,-83.71 143.41,-84.48"/>
</a>
</g>
</g>
<!-- Node28 -->
<g id="Node000028" class="node">
<title>Node28</title>
<g id="a_Node000028"><a xlink:href="marco_2src_2include_2util_8h.html" target="_top" xlink:title=" ">
<polygon fill="#fff0f0" stroke="red" points="114,-129 74,-129 74,-110 114,-110 114,-129"/>
<text text-anchor="middle" x="94" y="-117" font-family="Inter" font-size="10.00">util.h</text>
</a>
</g>
</g>
<!-- Node27&#45;&gt;Node28 -->
<g id="edge22_Node000027_Node000028" class="edge">
<title>Node27&#45;&gt;Node28</title>
<g id="a_edge22_Node000027_Node000028"><a xlink:title=" ">
<path fill="none" stroke="#63b8ff" d="M124.06,-164.75C119.02,-157.34 111.66,-146.5 105.49,-137.41"/>
<polygon fill="#63b8ff" stroke="#63b8ff" points="108.35,-135.39 99.83,-129.09 102.56,-139.33 108.35,-135.39"/>
</a>
</g>
</g>
<!-- Node19 -->
<g id="Node000019" class="node">
<title>Node19</title>
<g id="a_Node000019"><a xlink:href="display_8h.html" target="_top" xlink:title=" ">
<polygon fill="#fff0f0" stroke="red" points="56,-129 0,-129 0,-110 56,-110 56,-129"/>
<text text-anchor="middle" x="28" y="-117" font-family="Inter" font-size="10.00">display.h</text>
</a>
</g>
</g>
<!-- Node27&#45;&gt;Node19 -->
<g id="edge23_Node000027_Node000019" class="edge">
<title>Node27&#45;&gt;Node19</title>
<g id="a_edge23_Node000027_Node000019"><a xlink:title=" ">
<path fill="none" stroke="#63b8ff" d="M113.61,-164.98C97.43,-156.57 72.43,-143.59 53.62,-133.81"/>
<polygon fill="#63b8ff" stroke="#63b8ff" points="55.17,-130.68 44.69,-129.17 51.95,-136.89 55.17,-130.68"/>
</a>
</g>
</g>
<!-- Node19&#45;&gt;Node10 -->
<g id="edge24_Node000019_Node000010" class="edge">
<title>Node19&#45;&gt;Node10</title>
<g id="a_edge24_Node000019_Node000010"><a xlink:title=" ">
<path fill="none" stroke="#63b8ff" d="M46.32,-109.98C64.66,-101.46 93.11,-88.23 114.23,-78.41"/>
<polygon fill="#63b8ff" stroke="#63b8ff" points="115.76,-81.56 123.35,-74.17 112.81,-75.21 115.76,-81.56"/>
</a>
</g>
</g>
<!-- Node29&#45;&gt;Node5 -->
<g id="edge26_Node000029_Node000005" class="edge">
<title>Node29&#45;&gt;Node5</title>
<g id="a_edge26_Node000029_Node000005"><a xlink:title=" ">
<path fill="none" stroke="#63b8ff" d="M377.25,-219.98C387.8,-212 403.8,-199.88 416.44,-190.31"/>
<polygon fill="#63b8ff" stroke="#63b8ff" points="418.69,-193 424.55,-184.17 414.46,-187.42 418.69,-193"/>
</a>
</g>
</g>
</g>
</svg>
