<?xml version="1.0" encoding="UTF-8" standalone="no"?>
<!DOCTYPE svg PUBLIC "-//W3C//DTD SVG 1.1//EN"
 "http://www.w3.org/Graphics/SVG/1.1/DTD/svg11.dtd">
<!-- Generated by graphviz version 2.43.0 (0)
 -->
<!-- Title: demo&#45;app.c Pages: 1 -->
<svg width="898pt" height="137pt"
 viewBox="0.00 0.00 897.50 137.00" xmlns="http://www.w3.org/2000/svg" xmlns:xlink="http://www.w3.org/1999/xlink">
<g id="graph0" class="graph" transform="scale(1 1) rotate(0) translate(4 133)">
<title>demo&#45;app.c</title>
<!-- Node1 -->
<g id="Node000001" class="node">
<title>Node1</title>
<g id="a_Node000001"><a xlink:title=" ">
<polygon fill="#999999" stroke="#666666" points="499,-129 428,-129 428,-110 499,-110 499,-129"/>
<text text-anchor="middle" x="463.5" y="-117" font-family="Inter" font-size="10.00">demo&#45;app.c</text>
</a>
</g>
</g>
<!-- Node2 -->
<g id="Node000002" class="node">
<title>Node2</title>
<g id="a_Node000002"><a xlink:href="mate-ui_8h.html" target="_top" xlink:title=" ">
<polygon fill="white" stroke="#666666" points="494,-74 433,-74 433,-55 494,-55 494,-74"/>
<text text-anchor="middle" x="463.5" y="-62" font-family="Inter" font-size="10.00">mate&#45;ui.h</text>
</a>
</g>
</g>
<!-- Node1&#45;&gt;Node2 -->
<g id="edge1_Node000001_Node000002" class="edge">
<title>Node1&#45;&gt;Node2</title>
<g id="a_edge1_Node000001_Node000002"><a xlink:title=" ">
<path fill="none" stroke="#63b8ff" d="M463.5,-109.75C463.5,-102.8 463.5,-92.85 463.5,-84.13"/>
<polygon fill="#63b8ff" stroke="#63b8ff" points="467,-84.09 463.5,-74.09 460,-84.09 467,-84.09"/>
</a>
</g>
</g>
<!-- Node3 -->
<g id="Node000003" class="node">
<title>Node3</title>
<g id="a_Node000003"><a xlink:href="mate-ui-application_8h.html" target="_top" xlink:title=" ">
<polygon fill="#fff0f0" stroke="red" points="113,-19 0,-19 0,0 113,0 113,-19"/>
<text text-anchor="middle" x="56.5" y="-7" font-family="Inter" font-size="10.00">mate&#45;ui&#45;application.h</text>
</a>
</g>
</g>
<!-- Node2&#45;&gt;Node3 -->
<g id="edge2_Node000002_Node000003" class="edge">
<title>Node2&#45;&gt;Node3</title>
<g id="a_edge2_Node000002_Node000003"><a xlink:title=" ">
<path fill="none" stroke="#63b8ff" d="M432.84,-59.52C374.63,-51.95 243.8,-34.95 123.35,-19.24"/>
<polygon fill="#63b8ff" stroke="#63b8ff" points="123.59,-15.74 113.22,-17.92 122.68,-22.68 123.59,-15.74"/>
</a>
</g>
</g>
<!-- Node5 -->
<g id="Node000005" class="node">
<title>Node5</title>
<g id="a_Node000005"><a xlink:href="mate-ui-window_8h.html" target="_top" xlink:title=" ">
<polygon fill="#fff0f0" stroke="red" points="230,-19 131,-19 131,0 230,0 230,-19"/>
<text text-anchor="middle" x="180.5" y="-7" font-family="Inter" font-size="10.00">mate&#45;ui&#45;window.h</text>
</a>
</g>
</g>
<!-- Node2&#45;&gt;Node5 -->
<g id="edge3_Node000002_Node000005" class="edge">
<title>Node2&#45;&gt;Node5</title>
<g id="a_edge3_Node000002_Node000005"><a xlink:title=" ">
<path fill="none" stroke="#63b8ff" d="M432.95,-57.78C385.93,-48.97 295.11,-31.96 236.19,-20.93"/>
<polygon fill="#63b8ff" stroke="#63b8ff" points="236.77,-17.48 226.3,-19.08 235.49,-24.36 236.77,-17.48"/>
</a>
</g>
</g>
<!-- Node6 -->
<g id="Node000006" class="node">
<title>Node6</title>
<g id="a_Node000006"><a xlink:href="mate-ui-menu_8h.html" target="_top" xlink:title=" ">
<polygon fill="#fff0f0" stroke="red" points="339,-19 248,-19 248,0 339,0 339,-19"/>
<text text-anchor="middle" x="293.5" y="-7" font-family="Inter" font-size="10.00">mate&#45;ui&#45;menu.h</text>
</a>
</g>
</g>
<!-- Node2&#45;&gt;Node6 -->
<g id="edge4_Node000002_Node000006" class="edge">
<title>Node2&#45;&gt;Node6</title>
<g id="a_edge4_Node000002_Node000006"><a xlink:title=" ">
<path fill="none" stroke="#63b8ff" d="M436.19,-54.98C407.65,-46.09 362.67,-32.07 330.86,-22.15"/>
<polygon fill="#63b8ff" stroke="#63b8ff" points="331.62,-18.72 321.03,-19.08 329.53,-25.4 331.62,-18.72"/>
</a>
</g>
</g>
<!-- Node7 -->
<g id="Node000007" class="node">
<title>Node7</title>
<g id="a_Node000007"><a xlink:href="mate-ui-dialogs_8h.html" target="_top" xlink:title=" ">
<polygon fill="#fff0f0" stroke="red" points="453.5,-19 357.5,-19 357.5,0 453.5,0 453.5,-19"/>
<text text-anchor="middle" x="405.5" y="-7" font-family="Inter" font-size="10.00">mate&#45;ui&#45;dialogs.h</text>
</a>
</g>
</g>
<!-- Node2&#45;&gt;Node7 -->
<g id="edge5_Node000002_Node000007" class="edge">
<title>Node2&#45;&gt;Node7</title>
<g id="a_edge5_Node000002_Node000007"><a xlink:title=" ">
<path fill="none" stroke="#63b8ff" d="M454.18,-54.98C445.69,-47.23 432.94,-35.58 422.62,-26.14"/>
<polygon fill="#63b8ff" stroke="#63b8ff" points="424.73,-23.33 414.99,-19.17 420.01,-28.5 424.73,-23.33"/>
</a>
</g>
</g>
<!-- Node8 -->
<g id="Node000008" class="node">
<title>Node8</title>
<g id="a_Node000008"><a xlink:href="mate-ui-settings_8h.html" target="_top" xlink:title=" ">
<polygon fill="#fff0f0" stroke="red" points="573,-19 472,-19 472,0 573,0 573,-19"/>
<text text-anchor="middle" x="522.5" y="-7" font-family="Inter" font-size="10.00">mate&#45;ui&#45;settings.h</text>
</a>
</g>
</g>
<!-- Node2&#45;&gt;Node8 -->
<g id="edge6_Node000002_Node000008" class="edge">
<title>Node2&#45;&gt;Node8</title>
<g id="a_edge6_Node000002_Node000008"><a xlink:title=" ">
<path fill="none" stroke="#63b8ff" d="M472.98,-54.98C481.7,-47.15 494.84,-35.34 505.4,-25.86"/>
<polygon fill="#63b8ff" stroke="#63b8ff" points="507.75,-28.46 512.85,-19.17 503.07,-23.25 507.75,-28.46"/>
</a>
</g>
</g>
<!-- Node9 -->
<g id="Node000009" class="node">
<title>Node9</title>
<g id="a_Node000009"><a xlink:href="mate-ui-accel_8h.html" target="_top" xlink:title=" ">
<polygon fill="#fff0f0" stroke="red" points="677.5,-19 591.5,-19 591.5,0 677.5,0 677.5,-19"/>
<text text-anchor="middle" x="634.5" y="-7" font-family="Inter" font-size="10.00">mate&#45;ui&#45;accel.h</text>
</a>
</g>
</g>
<!-- Node2&#45;&gt;Node9 -->
<g id="edge7_Node000002_Node000009" class="edge">
<title>Node2&#45;&gt;Node9</title>
<g id="a_edge7_Node000002_Node000009"><a xlink:title=" ">
<path fill="none" stroke="#63b8ff" d="M490.97,-54.98C519.68,-46.09 564.92,-32.07 596.92,-22.15"/>
<polygon fill="#63b8ff" stroke="#63b8ff" points="598.3,-25.39 606.81,-19.08 596.22,-18.7 598.3,-25.39"/>
</a>
</g>
</g>
<!-- Node10 -->
<g id="Node000010" class="node">
<title>Node10</title>
<g id="a_Node000010"><a xlink:href="mate-ui-session_8h.html" target="_top" xlink:title=" ">
<polygon fill="#fff0f0" stroke="red" points="793.5,-19 695.5,-19 695.5,0 793.5,0 793.5,-19"/>
<text text-anchor="middle" x="744.5" y="-7" font-family="Inter" font-size="10.00">mate&#45;ui&#45;session.h</text>
</a>
</g>
</g>
<!-- Node2&#45;&gt;Node10 -->
<g id="edge8_Node000002_Node000010" class="edge">
<title>Node2&#45;&gt;Node10</title>
<g id="a_edge8_Node000002_Node000010"><a xlink:title=" ">
<path fill="none" stroke="#63b8ff" d="M494.11,-57.73C540.8,-48.92 630.56,-31.99 688.96,-20.98"/>
<polygon fill="#63b8ff" stroke="#63b8ff" points="689.95,-24.35 699.12,-19.06 688.65,-17.47 689.95,-24.35"/>
</a>
</g>
</g>
<!-- Node11 -->
<g id="Node000011" class="node">
<title>Node11</title>
<g id="a_Node000011"><a xlink:href="mate-ui-util_8h.html" target="_top" xlink:title=" ">
<polygon fill="#fff0f0" stroke="red" points="889.5,-19 811.5,-19 811.5,0 889.5,0 889.5,-19"/>
<text text-anchor="middle" x="850.5" y="-7" font-family="Inter" font-size="10.00">mate&#45;ui&#45;util.h</text>
</a>
</g>
</g>
<!-- Node2&#45;&gt;Node11 -->
<g id="edge9_Node000002_Node000011" class="edge">
<title>Node2&#45;&gt;Node11</title>
<g id="a_edge9_Node000002_Node000011"><a xlink:title=" ">
<path fill="none" stroke="#63b8ff" d="M494.42,-59.91C552.46,-53.07 681.94,-37.34 801.44,-19.1"/>
<polygon fill="#63b8ff" stroke="#63b8ff" points="802.14,-22.54 811.49,-17.56 801.08,-15.62 802.14,-22.54"/>
</a>
</g>
</g>
</g>
</svg>
