<?xml version="1.0" encoding="UTF-8" standalone="no"?>
<!DOCTYPE svg PUBLIC "-//W3C//DTD SVG 1.1//EN"
 "http://www.w3.org/Graphics/SVG/1.1/DTD/svg11.dtd">
<!-- Generated by graphviz version 2.43.0 (0)
 -->
<!-- Title: desktop&#45;entries.h Pages: 1 -->
<svg width="288pt" height="192pt"
 viewBox="0.00 0.00 288.00 192.00" xmlns="http://www.w3.org/2000/svg" xmlns:xlink="http://www.w3.org/1999/xlink">

<svg id="main" version="1.1" xmlns="http://www.w3.org/2000/svg" xmlns:xlink="http://www.w3.org/1999/xlink" xml:space="preserve">

<style type="text/css"><![CDATA[
.node, .edge {opacity: 0.7;}
.node.selected, .edge.selected {opacity: 1;}
.edge:hover path { stroke: red; }
.edge:hover polygon { stroke: red; fill: red; }
]]></style>
<script type="application/ecmascript" xlink:href="svg.min.js"/>
<svg id="graph" class="graph">
<g id="graph0" class="graph" transform="scale(1 1) rotate(0) translate(4 188)">
<title>desktop&#45;entries.h</title>
<!-- Node1 -->
<g id="Node000001" class="node">
<title>Node1</title>
<g id="a_Node000001"><a xlink:title=" ">
<polygon fill="#999999" stroke="#666666" points="157.5,-184 58.5,-184 58.5,-165 157.5,-165 157.5,-184"/>
<text text-anchor="middle" x="108" y="-172" font-family="Inter" font-size="10.00">desktop&#45;entries.h</text>
</a>
</g>
</g>
<!-- Node2 -->
<g id="Node000002" class="node">
<title>Node2</title>
<g id="a_Node000002"><a xlink:href="desktop-entries_8c.html" target="_top" xlink:title=" ">
<polygon fill="white" stroke="#666666" points="98,-129 0,-129 0,-110 98,-110 98,-129"/>
<text text-anchor="middle" x="49" y="-117" font-family="Inter" font-size="10.00">desktop&#45;entries.c</text>
</a>
</g>
</g>
<!-- Node1&#45;&gt;Node2 -->
<g id="edge1_Node000001_Node000002" class="edge">
<title>Node1&#45;&gt;Node2</title>
<g id="a_edge1_Node000001_Node000002"><a xlink:title=" ">
<path fill="none" stroke="#63b8ff" d="M90.8,-158.04C80.33,-148.64 67.35,-136.98 58.65,-129.17"/>
<polygon fill="#63b8ff" stroke="#63b8ff" points="88.74,-160.91 98.52,-164.98 93.42,-155.7 88.74,-160.91"/>
</a>
</g>
</g>
<!-- Node3 -->
<g id="Node000003" class="node">
<title>Node3</title>
<g id="a_Node000003"><a xlink:href="entry-directories_8h.html" target="_top" xlink:title=" ">
<polygon fill="white" stroke="#666666" points="220,-129 116,-129 116,-110 220,-110 220,-129"/>
<text text-anchor="middle" x="168" y="-117" font-family="Inter" font-size="10.00">entry&#45;directories.h</text>
</a>
</g>
</g>
<!-- Node1&#45;&gt;Node3 -->
<g id="edge2_Node000001_Node000003" class="edge">
<title>Node1&#45;&gt;Node3</title>
<g id="a_edge2_Node000001_Node000003"><a xlink:title=" ">
<path fill="none" stroke="#63b8ff" d="M125.18,-158.32C135.88,-148.87 149.26,-137.06 158.18,-129.17"/>
<polygon fill="#63b8ff" stroke="#63b8ff" points="122.82,-155.74 117.64,-164.98 127.45,-160.99 122.82,-155.74"/>
</a>
</g>
</g>
<!-- Node4 -->
<g id="Node000004" class="node">
<title>Node4</title>
<g id="a_Node000004"><a xlink:href="entry-directories_8c.html" target="_top" xlink:title=" ">
<polygon fill="white" stroke="#666666" points="140,-74 38,-74 38,-55 140,-55 140,-74"/>
<text text-anchor="middle" x="89" y="-62" font-family="Inter" font-size="10.00">entry&#45;directories.c</text>
</a>
</g>
</g>
<!-- Node3&#45;&gt;Node4 -->
<g id="edge3_Node000003_Node000004" class="edge">
<title>Node3&#45;&gt;Node4</title>
<g id="a_edge3_Node000003_Node000004"><a xlink:title=" ">
<path fill="none" stroke="#63b8ff" d="M146.61,-104.15C132.33,-94.57 114.03,-82.29 101.92,-74.17"/>
<polygon fill="#63b8ff" stroke="#63b8ff" points="145.05,-107.32 155.31,-109.98 148.95,-101.51 145.05,-107.32"/>
</a>
</g>
</g>
<!-- Node5 -->
<g id="Node000005" class="node">
<title>Node5</title>
<g id="a_Node000005"><a xlink:href="menu-layout_8c.html" target="_top" xlink:title=" ">
<polygon fill="white" stroke="#666666" points="244.5,-19 161.5,-19 161.5,0 244.5,0 244.5,-19"/>
<text text-anchor="middle" x="203" y="-7" font-family="Inter" font-size="10.00">menu&#45;layout.c</text>
</a>
</g>
</g>
<!-- Node3&#45;&gt;Node5 -->
<g id="edge4_Node000003_Node000005" class="edge">
<title>Node3&#45;&gt;Node5</title>
<g id="a_edge4_Node000003_Node000005"><a xlink:title=" ">
<path fill="none" stroke="#63b8ff" d="M173.25,-99.99C176.93,-87.28 182.05,-70.05 187,-55 191.11,-42.52 196.33,-28.26 199.67,-19.32"/>
<polygon fill="#63b8ff" stroke="#63b8ff" points="169.82,-99.25 170.43,-109.83 176.55,-101.18 169.82,-99.25"/>
</a>
</g>
</g>
<!-- Node6 -->
<g id="Node000006" class="node">
<title>Node6</title>
<g id="a_Node000006"><a xlink:href="menu-layout_8h.html" target="_top" xlink:title=" ">
<polygon fill="#fff0f0" stroke="red" points="280,-74 196,-74 196,-55 280,-55 280,-74"/>
<text text-anchor="middle" x="238" y="-62" font-family="Inter" font-size="10.00">menu&#45;layout.h</text>
</a>
</g>
</g>
<!-- Node3&#45;&gt;Node6 -->
<g id="edge5_Node000003_Node000006" class="edge">
<title>Node3&#45;&gt;Node6</title>
<g id="a_edge5_Node000003_Node000006"><a xlink:title=" ">
<path fill="none" stroke="#63b8ff" d="M187.31,-103.88C199.91,-94.34 215.93,-82.21 226.55,-74.17"/>
<polygon fill="#63b8ff" stroke="#63b8ff" points="185.11,-101.16 179.25,-109.98 189.33,-106.74 185.11,-101.16"/>
</a>
</g>
</g>
<!-- Node6&#45;&gt;Node5 -->
<g id="edge6_Node000006_Node000005" class="edge">
<title>Node6&#45;&gt;Node5</title>
<g id="a_edge6_Node000006_Node000005"><a xlink:title=" ">
<path fill="none" stroke="#63b8ff" d="M226.7,-46.39C220.68,-37.27 213.53,-26.45 208.67,-19.09"/>
<polygon fill="#63b8ff" stroke="#63b8ff" points="223.79,-48.33 232.22,-54.75 229.63,-44.47 223.79,-48.33"/>
</a>
</g>
</g>
</g>
</svg>
</svg>

<style type='text/css'>
<![CDATA[
[data-mouse-over-selected='false'] { opacity: 0.7; }
[data-mouse-over-selected='true']  { opacity: 1.0; }
]]>
</style>
<script type="application/ecmascript"><![CDATA[
document.addEventListener('DOMContentLoaded', (event) => {
  highlightEdges();
  highlightAdjacentNodes();
});
]]></script>
</svg>
