<?xml version="1.0" encoding="UTF-8" standalone="no"?>
<!DOCTYPE svg PUBLIC "-//W3C//DTD SVG 1.1//EN"
 "http://www.w3.org/Graphics/SVG/1.1/DTD/svg11.dtd">
<!-- Generated by graphviz version 2.43.0 (0)
 -->
<!-- Title: 22x22 Pages: 1 -->
<svg width="668pt" height="94pt"
 viewBox="0.00 0.00 668.00 94.00" xmlns="http://www.w3.org/2000/svg" xmlns:xlink="http://www.w3.org/1999/xlink">
<g id="graph0" class="graph" transform="scale(1 1) rotate(0) translate(4 90)">
<title>22x22</title>
<g id="clust1" class="cluster">
<title>clusterdir_88f249158ed9aad86c96cfde7ef6f499</title>
<g id="a_clust1"><a xlink:href="dir_88f249158ed9aad86c96cfde7ef6f499.html" target="_top" xlink:title="mate">
<polygon fill="#edf0f7" stroke="#7f7f7f" stroke-dasharray="5,2" points="8,-8 8,-78 652,-78 652,-8 8,-8"/>
<text text-anchor="middle" x="330" y="-66" font-family="Inter" font-size="10.00">mate</text>
</a>
</g>
</g>
<g id="clust2" class="cluster">
<title>clusterdir_4a561b468bee8d8b251982518ef97dcf</title>
<g id="a_clust2"><a xlink:href="dir_4a561b468bee8d8b251982518ef97dcf.html" target="_top">
<polygon fill="#edf0f7" stroke="#404040" stroke-width="2" points="16,-16 16,-51 644,-51 644,-16 16,-16"/>
</a>
</g>
</g>
<!-- dir_4a561b468bee8d8b251982518ef97dcf -->
<g id="node1" class="node">
<title>dir_4a561b468bee8d8b251982518ef97dcf</title>
<text text-anchor="middle" x="613" y="-31" font-family="Inter" font-size="10.00">22x22</text>
</g>
<!-- dir_416bbe3c67384d0cfdeb14284a52250a -->
<g id="node2" class="node">
<title>dir_416bbe3c67384d0cfdeb14284a52250a</title>
<g id="a_node2"><a xlink:href="dir_416bbe3c67384d0cfdeb14284a52250a.html" target="_top" xlink:title="actions">
<polygon fill="#a2b4d6" stroke="#404040" points="571.5,-43 522.5,-43 522.5,-24 571.5,-24 571.5,-43"/>
<text text-anchor="middle" x="547" y="-31" font-family="Inter" font-size="10.00">actions</text>
</a>
</g>
</g>
<!-- dir_e375430f5977aa80a6ffbf7f67d3359f -->
<g id="node3" class="node">
<title>dir_e375430f5977aa80a6ffbf7f67d3359f</title>
<g id="a_node3"><a xlink:href="dir_e375430f5977aa80a6ffbf7f67d3359f.html" target="_top" xlink:title="apps">
<polygon fill="#a2b4d6" stroke="#404040" points="504,-43 466,-43 466,-24 504,-24 504,-43"/>
<text text-anchor="middle" x="485" y="-31" font-family="Inter" font-size="10.00">apps</text>
</a>
</g>
</g>
<!-- dir_741f536aa4f8a32cb5a4756d3ebd563c -->
<g id="node4" class="node">
<title>dir_741f536aa4f8a32cb5a4756d3ebd563c</title>
<g id="a_node4"><a xlink:href="dir_741f536aa4f8a32cb5a4756d3ebd563c.html" target="_top" xlink:title="categories">
<polygon fill="#a2b4d6" stroke="#404040" points="447.5,-43 382.5,-43 382.5,-24 447.5,-24 447.5,-43"/>
<text text-anchor="middle" x="415" y="-31" font-family="Inter" font-size="10.00">categories</text>
</a>
</g>
</g>
<!-- dir_c7e526abeb0b6cf4136d9940e8476669 -->
<g id="node5" class="node">
<title>dir_c7e526abeb0b6cf4136d9940e8476669</title>
<g id="a_node5"><a xlink:href="dir_c7e526abeb0b6cf4136d9940e8476669.html" target="_top" xlink:title="devices">
<polygon fill="#a2b4d6" stroke="#404040" points="364,-43 314,-43 314,-24 364,-24 364,-43"/>
<text text-anchor="middle" x="339" y="-31" font-family="Inter" font-size="10.00">devices</text>
</a>
</g>
</g>
<!-- dir_a7d6688f1ae54174066d2b5c2b51648d -->
<g id="node6" class="node">
<title>dir_a7d6688f1ae54174066d2b5c2b51648d</title>
<g id="a_node6"><a xlink:href="dir_a7d6688f1ae54174066d2b5c2b51648d.html" target="_top" xlink:title="emblems">
<polygon fill="#a2b4d6" stroke="#404040" points="295.5,-43 236.5,-43 236.5,-24 295.5,-24 295.5,-43"/>
<text text-anchor="middle" x="266" y="-31" font-family="Inter" font-size="10.00">emblems</text>
</a>
</g>
</g>
<!-- dir_4a4119b8dff57d6b3998b9055379e419 -->
<g id="node7" class="node">
<title>dir_4a4119b8dff57d6b3998b9055379e419</title>
<g id="a_node7"><a xlink:href="dir_4a4119b8dff57d6b3998b9055379e419.html" target="_top" xlink:title="mimetypes">
<polygon fill="#a2b4d6" stroke="#404040" points="218,-43 150,-43 150,-24 218,-24 218,-43"/>
<text text-anchor="middle" x="184" y="-31" font-family="Inter" font-size="10.00">mimetypes</text>
</a>
</g>
</g>
<!-- dir_092a2009b58d3085fee989ba989dffe7 -->
<g id="node8" class="node">
<title>dir_092a2009b58d3085fee989ba989dffe7</title>
<g id="a_node8"><a xlink:href="dir_092a2009b58d3085fee989ba989dffe7.html" target="_top" xlink:title="places">
<polygon fill="#a2b4d6" stroke="#404040" points="131.5,-43 86.5,-43 86.5,-24 131.5,-24 131.5,-43"/>
<text text-anchor="middle" x="109" y="-31" font-family="Inter" font-size="10.00">places</text>
</a>
</g>
</g>
<!-- dir_8ff3ad4af689494751d596fe02cf08f2 -->
<g id="node9" class="node">
<title>dir_8ff3ad4af689494751d596fe02cf08f2</title>
<g id="a_node9"><a xlink:href="dir_8ff3ad4af689494751d596fe02cf08f2.html" target="_top" xlink:title="status">
<polygon fill="#a2b4d6" stroke="#404040" points="68,-43 24,-43 24,-24 68,-24 68,-43"/>
<text text-anchor="middle" x="46" y="-31" font-family="Inter" font-size="10.00">status</text>
</a>
</g>
</g>
</g>
</svg>
