<?xml version="1.0" encoding="UTF-8" standalone="no"?>
<!DOCTYPE svg PUBLIC "-//W3C//DTD SVG 1.1//EN"
 "http://www.w3.org/Graphics/SVG/1.1/DTD/svg11.dtd">
<!-- Generated by graphviz version 2.43.0 (0)
 -->
<!-- Title: 24x24 Pages: 1 -->
<svg width="668pt" height="94pt"
 viewBox="0.00 0.00 668.00 94.00" xmlns="http://www.w3.org/2000/svg" xmlns:xlink="http://www.w3.org/1999/xlink">
<g id="graph0" class="graph" transform="scale(1 1) rotate(0) translate(4 90)">
<title>24x24</title>
<g id="clust1" class="cluster">
<title>clusterdir_88f249158ed9aad86c96cfde7ef6f499</title>
<g id="a_clust1"><a xlink:href="dir_88f249158ed9aad86c96cfde7ef6f499.html" target="_top" xlink:title="mate">
<polygon fill="#edf0f7" stroke="#7f7f7f" stroke-dasharray="5,2" points="8,-8 8,-78 652,-78 652,-8 8,-8"/>
<text text-anchor="middle" x="330" y="-66" font-family="Inter" font-size="10.00">mate</text>
</a>
</g>
</g>
<g id="clust2" class="cluster">
<title>clusterdir_5fec5d21e0823cfc28f4c434a20798fe</title>
<g id="a_clust2"><a xlink:href="dir_5fec5d21e0823cfc28f4c434a20798fe.html" target="_top">
<polygon fill="#edf0f7" stroke="#404040" stroke-width="2" points="16,-16 16,-51 644,-51 644,-16 16,-16"/>
</a>
</g>
</g>
<!-- dir_5fec5d21e0823cfc28f4c434a20798fe -->
<g id="node1" class="node">
<title>dir_5fec5d21e0823cfc28f4c434a20798fe</title>
<text text-anchor="middle" x="613" y="-31" font-family="Inter" font-size="10.00">24x24</text>
</g>
<!-- dir_a4edf2559ab7c7200c1d0f697cf0926c -->
<g id="node2" class="node">
<title>dir_a4edf2559ab7c7200c1d0f697cf0926c</title>
<g id="a_node2"><a xlink:href="dir_a4edf2559ab7c7200c1d0f697cf0926c.html" target="_top" xlink:title="actions">
<polygon fill="#a2b4d6" stroke="#404040" points="571.5,-43 522.5,-43 522.5,-24 571.5,-24 571.5,-43"/>
<text text-anchor="middle" x="547" y="-31" font-family="Inter" font-size="10.00">actions</text>
</a>
</g>
</g>
<!-- dir_d4f11c49d619b8ea5ef5a577c8a71908 -->
<g id="node3" class="node">
<title>dir_d4f11c49d619b8ea5ef5a577c8a71908</title>
<g id="a_node3"><a xlink:href="dir_d4f11c49d619b8ea5ef5a577c8a71908.html" target="_top" xlink:title="apps">
<polygon fill="#a2b4d6" stroke="#404040" points="504,-43 466,-43 466,-24 504,-24 504,-43"/>
<text text-anchor="middle" x="485" y="-31" font-family="Inter" font-size="10.00">apps</text>
</a>
</g>
</g>
<!-- dir_6556c79d1a6123da1d1f970881f8c4a7 -->
<g id="node4" class="node">
<title>dir_6556c79d1a6123da1d1f970881f8c4a7</title>
<g id="a_node4"><a xlink:href="dir_6556c79d1a6123da1d1f970881f8c4a7.html" target="_top" xlink:title="categories">
<polygon fill="#a2b4d6" stroke="#404040" points="447.5,-43 382.5,-43 382.5,-24 447.5,-24 447.5,-43"/>
<text text-anchor="middle" x="415" y="-31" font-family="Inter" font-size="10.00">categories</text>
</a>
</g>
</g>
<!-- dir_5ead003a40c10430a9dfeba4ea3347d6 -->
<g id="node5" class="node">
<title>dir_5ead003a40c10430a9dfeba4ea3347d6</title>
<g id="a_node5"><a xlink:href="dir_5ead003a40c10430a9dfeba4ea3347d6.html" target="_top" xlink:title="devices">
<polygon fill="#a2b4d6" stroke="#404040" points="364,-43 314,-43 314,-24 364,-24 364,-43"/>
<text text-anchor="middle" x="339" y="-31" font-family="Inter" font-size="10.00">devices</text>
</a>
</g>
</g>
<!-- dir_32681055ae49795248e4ece57151d864 -->
<g id="node6" class="node">
<title>dir_32681055ae49795248e4ece57151d864</title>
<g id="a_node6"><a xlink:href="dir_32681055ae49795248e4ece57151d864.html" target="_top" xlink:title="emblems">
<polygon fill="#a2b4d6" stroke="#404040" points="295.5,-43 236.5,-43 236.5,-24 295.5,-24 295.5,-43"/>
<text text-anchor="middle" x="266" y="-31" font-family="Inter" font-size="10.00">emblems</text>
</a>
</g>
</g>
<!-- dir_03d970f6132ad7f5b7c58bd9adcca87a -->
<g id="node7" class="node">
<title>dir_03d970f6132ad7f5b7c58bd9adcca87a</title>
<g id="a_node7"><a xlink:href="dir_03d970f6132ad7f5b7c58bd9adcca87a.html" target="_top" xlink:title="mimetypes">
<polygon fill="#a2b4d6" stroke="#404040" points="218,-43 150,-43 150,-24 218,-24 218,-43"/>
<text text-anchor="middle" x="184" y="-31" font-family="Inter" font-size="10.00">mimetypes</text>
</a>
</g>
</g>
<!-- dir_12fb7229f2b3d33453661c42b9ab4a5f -->
<g id="node8" class="node">
<title>dir_12fb7229f2b3d33453661c42b9ab4a5f</title>
<g id="a_node8"><a xlink:href="dir_12fb7229f2b3d33453661c42b9ab4a5f.html" target="_top" xlink:title="places">
<polygon fill="#a2b4d6" stroke="#404040" points="131.5,-43 86.5,-43 86.5,-24 131.5,-24 131.5,-43"/>
<text text-anchor="middle" x="109" y="-31" font-family="Inter" font-size="10.00">places</text>
</a>
</g>
</g>
<!-- dir_4c4522af510949a30f0c76e161fd816c -->
<g id="node9" class="node">
<title>dir_4c4522af510949a30f0c76e161fd816c</title>
<g id="a_node9"><a xlink:href="dir_4c4522af510949a30f0c76e161fd816c.html" target="_top" xlink:title="status">
<polygon fill="#a2b4d6" stroke="#404040" points="68,-43 24,-43 24,-24 68,-24 68,-43"/>
<text text-anchor="middle" x="46" y="-31" font-family="Inter" font-size="10.00">status</text>
</a>
</g>
</g>
</g>
</svg>
