<?xml version="1.0" encoding="UTF-8" standalone="no"?>
<!DOCTYPE svg PUBLIC "-//W3C//DTD SVG 1.1//EN"
 "http://www.w3.org/Graphics/SVG/1.1/DTD/svg11.dtd">
<!-- Generated by graphviz version 2.43.0 (0)
 -->
<!-- Title: src Pages: 1 -->
<svg width="467pt" height="149pt"
 viewBox="0.00 0.00 466.50 149.00" xmlns="http://www.w3.org/2000/svg" xmlns:xlink="http://www.w3.org/1999/xlink">
<g id="graph0" class="graph" transform="scale(1 1) rotate(0) translate(4 145)">
<title>src</title>
<g id="clust1" class="cluster">
<title>clusterdir_76e38ff67df345a27a9e5c4dfbdeae21</title>
<g id="a_clust1"><a xlink:href="dir_76e38ff67df345a27a9e5c4dfbdeae21.html" target="_top" xlink:title="mate&#45;notification&#45;daemon">
<polygon fill="#edf0f7" stroke="#404040" stroke-dasharray="5,2" points="8,-8 8,-133 282,-133 282,-8 8,-8"/>
<text text-anchor="middle" x="145" y="-121" font-family="Inter" font-size="10.00">mate&#45;notification&#45;daemon</text>
</a>
</g>
</g>
<g id="clust2" class="cluster">
<title>clusterdir_68a5892708d104e1ce054fffbd80850c</title>
<g id="a_clust2"><a xlink:href="dir_68a5892708d104e1ce054fffbd80850c.html" target="_top">
<polygon fill="#edf0f7" stroke="#404040" stroke-width="2" points="16,-16 16,-106 274,-106 274,-16 16,-16"/>
</a>
</g>
</g>
<!-- dir_68a5892708d104e1ce054fffbd80850c -->
<g id="node1" class="node">
<title>dir_68a5892708d104e1ce054fffbd80850c</title>
<text text-anchor="middle" x="251" y="-86" font-family="Inter" font-size="10.00">src</text>
</g>
<!-- dir_c28bacfc60cba8b9010cbf8ba3fcd312 -->
<g id="node2" class="node">
<title>dir_c28bacfc60cba8b9010cbf8ba3fcd312</title>
<g id="a_node2"><a xlink:href="dir_c28bacfc60cba8b9010cbf8ba3fcd312.html" target="_top" xlink:title="capplet">
<polygon fill="#a2b4d6" stroke="#404040" points="218,-98 168,-98 168,-79 218,-79 218,-98"/>
<text text-anchor="middle" x="193" y="-86" font-family="Inter" font-size="10.00">capplet</text>
</a>
</g>
</g>
<!-- dir_5a8a1e18698dcecaf9fe7f3b6bd4f0f3 -->
<g id="node3" class="node">
<title>dir_5a8a1e18698dcecaf9fe7f3b6bd4f0f3</title>
<g id="a_node3"><a xlink:href="dir_5a8a1e18698dcecaf9fe7f3b6bd4f0f3.html" target="_top" xlink:title="common">
<polygon fill="#a2b4d6" stroke="#404040" points="185.5,-43 128.5,-43 128.5,-24 185.5,-24 185.5,-43"/>
<text text-anchor="middle" x="157" y="-31" font-family="Inter" font-size="10.00">common</text>
</a>
</g>
</g>
<!-- dir_c28bacfc60cba8b9010cbf8ba3fcd312&#45;&gt;dir_5a8a1e18698dcecaf9fe7f3b6bd4f0f3 -->
<g id="edge2" class="edge">
<title>dir_c28bacfc60cba8b9010cbf8ba3fcd312&#45;&gt;dir_5a8a1e18698dcecaf9fe7f3b6bd4f0f3</title>
<g id="a_edge2"><a xlink:href="dir_000188_000219.html" target="_top">
<path fill="none" stroke="#63b8ff" d="M187.06,-78.75C182.02,-71.34 174.66,-60.5 168.49,-51.41"/>
<polygon fill="#63b8ff" stroke="#63b8ff" points="171.35,-49.39 162.83,-43.09 165.56,-53.33 171.35,-49.39"/>
</a>
</g>
<g id="a_edge2&#45;headlabel"><a xlink:href="dir_000188_000219.html" target="_top" xlink:title="4">
<text text-anchor="middle" x="175.72" y="-48.27" font-family="Inter" font-size="10.00" fill="#63b8ff">4</text>
</a>
</g>
</g>
<!-- dir_1a7ceb8b43f37d3610d8c76ebbb89cca -->
<g id="node6" class="node">
<title>dir_1a7ceb8b43f37d3610d8c76ebbb89cca</title>
<g id="a_node6"><a xlink:href="dir_1a7ceb8b43f37d3610d8c76ebbb89cca.html" target="_top" xlink:title="mate&#45;panel">
<polygon fill="#edf0f7" stroke="red" points="359.5,-43 290.5,-43 290.5,-24 359.5,-24 359.5,-43"/>
<text text-anchor="middle" x="325" y="-31" font-family="Inter" font-size="10.00">mate&#45;panel</text>
</a>
</g>
</g>
<!-- dir_c28bacfc60cba8b9010cbf8ba3fcd312&#45;&gt;dir_1a7ceb8b43f37d3610d8c76ebbb89cca -->
<g id="edge1" class="edge">
<title>dir_c28bacfc60cba8b9010cbf8ba3fcd312&#45;&gt;dir_1a7ceb8b43f37d3610d8c76ebbb89cca</title>
<g id="a_edge1"><a xlink:href="dir_000188_000549.html" target="_top">
<path fill="none" stroke="#63b8ff" d="M214.21,-78.98C235.73,-70.34 269.28,-56.87 293.83,-47.02"/>
<polygon fill="#63b8ff" stroke="#63b8ff" points="295.43,-50.14 303.41,-43.17 292.82,-43.65 295.43,-50.14"/>
</a>
</g>
<g id="a_edge1&#45;headlabel"><a xlink:href="dir_000188_000549.html" target="_top" xlink:title="2">
<text text-anchor="middle" x="293.15" y="-51.62" font-family="Inter" font-size="10.00" fill="#63b8ff">2</text>
</a>
</g>
</g>
<!-- dir_8cc4d8de6389f3ef5db2ddcabec2099b -->
<g id="node7" class="node">
<title>dir_8cc4d8de6389f3ef5db2ddcabec2099b</title>
<g id="a_node7"><a xlink:href="dir_8cc4d8de6389f3ef5db2ddcabec2099b.html" target="_top" xlink:title="mate&#45;desktop">
<polygon fill="#edf0f7" stroke="red" points="458.5,-43 377.5,-43 377.5,-24 458.5,-24 458.5,-43"/>
<text text-anchor="middle" x="418" y="-31" font-family="Inter" font-size="10.00">mate&#45;desktop</text>
</a>
</g>
</g>
<!-- dir_c28bacfc60cba8b9010cbf8ba3fcd312&#45;&gt;dir_8cc4d8de6389f3ef5db2ddcabec2099b -->
<g id="edge3" class="edge">
<title>dir_c28bacfc60cba8b9010cbf8ba3fcd312&#45;&gt;dir_8cc4d8de6389f3ef5db2ddcabec2099b</title>
<g id="a_edge3"><a xlink:href="dir_000188_000538.html" target="_top">
<path fill="none" stroke="#63b8ff" d="M218.23,-81.35C221.52,-80.55 224.84,-79.75 228,-79 276.86,-67.35 332.85,-54.27 371.32,-45.32"/>
<polygon fill="#63b8ff" stroke="#63b8ff" points="372.25,-48.7 381.2,-43.03 370.67,-41.88 372.25,-48.7"/>
</a>
</g>
<g id="a_edge3&#45;headlabel"><a xlink:href="dir_000188_000538.html" target="_top" xlink:title="1">
<text text-anchor="middle" x="369.39" y="-49.78" font-family="Inter" font-size="10.00" fill="#63b8ff">1</text>
</a>
</g>
</g>
<!-- dir_efa9a97a571c90e551ca18e8a24effaf -->
<g id="node4" class="node">
<title>dir_efa9a97a571c90e551ca18e8a24effaf</title>
<g id="a_node4"><a xlink:href="dir_efa9a97a571c90e551ca18e8a24effaf.html" target="_top" xlink:title="daemon">
<polygon fill="#a2b4d6" stroke="#404040" points="149.5,-98 94.5,-98 94.5,-79 149.5,-79 149.5,-98"/>
<text text-anchor="middle" x="122" y="-86" font-family="Inter" font-size="10.00">daemon</text>
</a>
</g>
</g>
<!-- dir_efa9a97a571c90e551ca18e8a24effaf&#45;&gt;dir_5a8a1e18698dcecaf9fe7f3b6bd4f0f3 -->
<g id="edge4" class="edge">
<title>dir_efa9a97a571c90e551ca18e8a24effaf&#45;&gt;dir_5a8a1e18698dcecaf9fe7f3b6bd4f0f3</title>
<g id="a_edge4"><a xlink:href="dir_000235_000219.html" target="_top">
<path fill="none" stroke="#63b8ff" d="M127.78,-78.75C132.62,-71.42 139.68,-60.73 145.64,-51.7"/>
<polygon fill="#63b8ff" stroke="#63b8ff" points="148.74,-53.36 151.33,-43.09 142.9,-49.5 148.74,-53.36"/>
</a>
</g>
<g id="a_edge4&#45;headlabel"><a xlink:href="dir_000235_000219.html" target="_top" xlink:title="1">
<text text-anchor="middle" x="149.13" y="-55.43" font-family="Inter" font-size="10.00" fill="#63b8ff">1</text>
</a>
</g>
</g>
<!-- dir_3f06e7064989ccf8c3ec866ceae4f7be -->
<g id="node5" class="node">
<title>dir_3f06e7064989ccf8c3ec866ceae4f7be</title>
<g id="a_node5"><a xlink:href="dir_3f06e7064989ccf8c3ec866ceae4f7be.html" target="_top" xlink:title="themes">
<polygon fill="#a2b4d6" stroke="#404040" points="76,-98 24,-98 24,-79 76,-79 76,-98"/>
<text text-anchor="middle" x="50" y="-86" font-family="Inter" font-size="10.00">themes</text>
</a>
</g>
</g>
</g>
</svg>
