<?xml version="1.0" encoding="UTF-8" standalone="no"?>
<!DOCTYPE svg PUBLIC "-//W3C//DTD SVG 1.1//EN"
 "http://www.w3.org/Graphics/SVG/1.1/DTD/svg11.dtd">
<!-- Generated by graphviz version 2.43.0 (0)
 -->
<!-- Title: plugins Pages: 1 -->
<!--zoomable 141 -->

<svg id="main" version="1.1" xmlns="http://www.w3.org/2000/svg" xmlns:xlink="http://www.w3.org/1999/xlink" xml:space="preserve" onload="init(evt)">

<style type="text/css"><![CDATA[
.node, .edge {opacity: 0.7;}
.node.selected, .edge.selected {opacity: 1;}
.edge:hover path { stroke: red; }
.edge:hover polygon { stroke: red; fill: red; }
]]></style>

<defs>
  <circle id="rim" cx="0" cy="0" r="7"/>
  <circle id="rim2" cx="0" cy="0" r="3.5"/>
  <g id="zoomPlus">
    <use xlink:href="#rim" fill="#404040"><set attributeName="fill" to="#808080" begin="zoomplus.mouseover" end="zoomplus.mouseout"/></use>
    <path d="M-4,0h8M0,-4v8" fill="none" stroke="white" stroke-width="1.5" pointer-events="none"/>
  </g>
  <g id="zoomMin">
    <use xlink:href="#rim" fill="#404040"><set attributeName="fill" to="#808080" begin="zoomminus.mouseover" end="zoomminus.mouseout"/></use>
    <path d="M-4,0h8" fill="none" stroke="white" stroke-width="1.5" pointer-events="none"/>
  </g>
  <g id="arrowUp" transform="translate(30 24)">
    <use xlink:href="#rim"/>
    <path pointer-events="none" fill="none" stroke="white" stroke-width="1.5" d="M0,-3.0v7 M-2.5,-0.5L0,-3.0L2.5,-0.5"/>
  </g>
  <g id="arrowRight" transform="rotate(90) translate(36 -43)">
    <use xlink:href="#rim"/>
    <path pointer-events="none" fill="none" stroke="white" stroke-width="1.5" d="M0,-3.0v7 M-2.5,-0.5L0,-3.0L2.5,-0.5"/>
  </g>
  <g id="arrowDown" transform="rotate(180) translate(-30 -48)">
    <use xlink:href="#rim"/>
    <path pointer-events="none" fill="none" stroke="white" stroke-width="1.5" d="M0,-3.0v7 M-2.5,-0.5L0,-3.0L2.5,-0.5"/>
  </g>
  <g id="arrowLeft" transform="rotate(270) translate(-36 17)">
    <use xlink:href="#rim"/>
    <path pointer-events="none" fill="none" stroke="white" stroke-width="1.5" d="M0,-3.0v7 M-2.5,-0.5L0,-3.0L2.5,-0.5"/>
  </g>
  <g id="resetDef">
    <use xlink:href="#rim2" fill="#404040"><set attributeName="fill" to="#808080" begin="reset.mouseover" end="reset.mouseout"/></use>
  </g>
</defs>
<script type="application/ecmascript">
var viewWidth = 1207;
var viewHeight = 141;
var sectionId = 'dynsection-0';
</script>
<script type="application/ecmascript" xlink:href="svg.min.js"/>
<svg id="graph" class="graph">
<g id="viewport">
<title>plugins</title>
<g id="clust1" class="cluster">
<title>clusterdir_99cc255424df5e73943ecfdc990b63b0</title>
<g id="a_clust1"><a xlink:href="dir_99cc255424df5e73943ecfdc990b63b0.html" target="_top" xlink:title="mate&#45;sensors&#45;applet">
<polygon fill="#edf0f7" stroke="#404040" stroke-dasharray="5,2" points="8,-8 8,-125 1191,-125 1191,-8 8,-8"/>
<text text-anchor="middle" x="599.5" y="-113" font-family="Inter" font-size="10.00">mate&#45;sensors&#45;applet</text>
</a>
</g>
</g>
<g id="clust2" class="cluster">
<title>clusterdir_8865ffed7e3fc15c7168d78fa87d4e0a</title>
<g id="a_clust2"><a xlink:href="dir_8865ffed7e3fc15c7168d78fa87d4e0a.html" target="_top">
<polygon fill="#edf0f7" stroke="#404040" stroke-width="2" points="16,-63 16,-98 1183,-98 1183,-63 16,-63"/>
</a>
</g>
</g>
<!-- dir_575d91b9456cdb279c2a6f56408e7db9 -->
<g id="node1" class="node">
<title>dir_575d91b9456cdb279c2a6f56408e7db9</title>
<g id="a_node1"><a xlink:href="dir_575d91b9456cdb279c2a6f56408e7db9.html" target="_top" xlink:title="sensors&#45;applet">
<polygon fill="#a2b4d6" stroke="#404040" points="620.5,-35 535.5,-35 535.5,-16 620.5,-16 620.5,-35"/>
<text text-anchor="middle" x="578" y="-23" font-family="Inter" font-size="10.00">sensors&#45;applet</text>
</a>
</g>
</g>
<!-- dir_8865ffed7e3fc15c7168d78fa87d4e0a -->
<g id="node2" class="node">
<title>dir_8865ffed7e3fc15c7168d78fa87d4e0a</title>
<text text-anchor="middle" x="1150" y="-78" font-family="Inter" font-size="10.00">plugins</text>
</g>
<!-- dir_cec4a193eb198388979c95209f79e93f -->
<g id="node3" class="node">
<title>dir_cec4a193eb198388979c95209f79e93f</title>
<g id="a_node3"><a xlink:href="dir_cec4a193eb198388979c95209f79e93f.html" target="_top" xlink:title="acpi">
<polygon fill="#a2b4d6" stroke="#404040" points="1106.5,-90 1071.5,-90 1071.5,-71 1106.5,-71 1106.5,-90"/>
<text text-anchor="middle" x="1089" y="-78" font-family="Inter" font-size="10.00">acpi</text>
</a>
</g>
</g>
<!-- dir_cec4a193eb198388979c95209f79e93f&#45;&gt;dir_575d91b9456cdb279c2a6f56408e7db9 -->
<g id="edge1" class="edge">
<title>dir_cec4a193eb198388979c95209f79e93f&#45;&gt;dir_575d91b9456cdb279c2a6f56408e7db9</title>
<g id="a_edge1"><a xlink:href="dir_000065_000802.html" target="_top">
<path fill="none" stroke="#63b8ff" d="M1077.76,-70.98C1073.12,-67.92 1067.54,-64.79 1062,-63 983.04,-37.54 739.22,-29.65 630.85,-27.37"/>
<polygon fill="#63b8ff" stroke="#63b8ff" points="630.87,-23.87 620.8,-27.16 630.73,-30.87 630.87,-23.87"/>
</a>
</g>
<g id="a_edge1&#45;headlabel"><a xlink:href="dir_000065_000802.html" target="_top" xlink:title="1">
<text text-anchor="middle" x="634.52" y="-18.6" font-family="Inter" font-size="10.00" fill="#63b8ff">1</text>
</a>
</g>
</g>
<!-- dir_0c0d3e9dfe81290a4e1e92f8c544d159 -->
<g id="node4" class="node">
<title>dir_0c0d3e9dfe81290a4e1e92f8c544d159</title>
<g id="a_node4"><a xlink:href="dir_0c0d3e9dfe81290a4e1e92f8c544d159.html" target="_top" xlink:title="dummy">
<polygon fill="#a2b4d6" stroke="#404040" points="1053,-90 1001,-90 1001,-71 1053,-71 1053,-90"/>
<text text-anchor="middle" x="1027" y="-78" font-family="Inter" font-size="10.00">dummy</text>
</a>
</g>
</g>
<!-- dir_0c0d3e9dfe81290a4e1e92f8c544d159&#45;&gt;dir_575d91b9456cdb279c2a6f56408e7db9 -->
<g id="edge2" class="edge">
<title>dir_0c0d3e9dfe81290a4e1e92f8c544d159&#45;&gt;dir_575d91b9456cdb279c2a6f56408e7db9</title>
<g id="a_edge2"><a xlink:href="dir_000336_000802.html" target="_top">
<path fill="none" stroke="#63b8ff" d="M1011.77,-70.89C1005.78,-67.89 998.74,-64.82 992,-63 925.3,-44.95 726.69,-33.48 630.87,-28.85"/>
<polygon fill="#63b8ff" stroke="#63b8ff" points="630.97,-25.35 620.81,-28.37 630.64,-32.34 630.97,-25.35"/>
</a>
</g>
<g id="a_edge2&#45;headlabel"><a xlink:href="dir_000336_000802.html" target="_top" xlink:title="1">
<text text-anchor="middle" x="634.69" y="-20.18" font-family="Inter" font-size="10.00" fill="#63b8ff">1</text>
</a>
</g>
</g>
<!-- dir_4dda39e7f15494121cbc94f8907e3909 -->
<g id="node5" class="node">
<title>dir_4dda39e7f15494121cbc94f8907e3909</title>
<g id="a_node5"><a xlink:href="dir_4dda39e7f15494121cbc94f8907e3909.html" target="_top" xlink:title="hddtemp">
<polygon fill="#a2b4d6" stroke="#404040" points="982.5,-90 923.5,-90 923.5,-71 982.5,-71 982.5,-90"/>
<text text-anchor="middle" x="953" y="-78" font-family="Inter" font-size="10.00">hddtemp</text>
</a>
</g>
</g>
<!-- dir_4dda39e7f15494121cbc94f8907e3909&#45;&gt;dir_575d91b9456cdb279c2a6f56408e7db9 -->
<g id="edge3" class="edge">
<title>dir_4dda39e7f15494121cbc94f8907e3909&#45;&gt;dir_575d91b9456cdb279c2a6f56408e7db9</title>
<g id="a_edge3"><a xlink:href="dir_000419_000802.html" target="_top">
<path fill="none" stroke="#63b8ff" d="M936.37,-70.98C929.86,-68 922.23,-64.91 915,-63 816.85,-37.02 697.94,-29.48 630.82,-27.32"/>
<polygon fill="#63b8ff" stroke="#63b8ff" points="630.61,-23.82 620.51,-27.02 630.4,-30.81 630.61,-23.82"/>
</a>
</g>
<g id="a_edge3&#45;headlabel"><a xlink:href="dir_000419_000802.html" target="_top" xlink:title="1">
<text text-anchor="middle" x="634.28" y="-18.58" font-family="Inter" font-size="10.00" fill="#63b8ff">1</text>
</a>
</g>
</g>
<!-- dir_9bb6c8437bcffb8724f7dd3423707b2a -->
<g id="node6" class="node">
<title>dir_9bb6c8437bcffb8724f7dd3423707b2a</title>
<g id="a_node6"><a xlink:href="dir_9bb6c8437bcffb8724f7dd3423707b2a.html" target="_top" xlink:title="i2c&#45;proc">
<polygon fill="#a2b4d6" stroke="#404040" points="905.5,-90 852.5,-90 852.5,-71 905.5,-71 905.5,-90"/>
<text text-anchor="middle" x="879" y="-78" font-family="Inter" font-size="10.00">i2c&#45;proc</text>
</a>
</g>
</g>
<!-- dir_9bb6c8437bcffb8724f7dd3423707b2a&#45;&gt;dir_575d91b9456cdb279c2a6f56408e7db9 -->
<g id="edge4" class="edge">
<title>dir_9bb6c8437bcffb8724f7dd3423707b2a&#45;&gt;dir_575d91b9456cdb279c2a6f56408e7db9</title>
<g id="a_edge4"><a xlink:href="dir_000447_000802.html" target="_top">
<path fill="none" stroke="#63b8ff" d="M863.37,-70.89C857.46,-67.96 850.57,-64.95 844,-63 772,-41.64 685.27,-32.71 630.86,-29.02"/>
<polygon fill="#63b8ff" stroke="#63b8ff" points="630.97,-25.52 620.76,-28.37 630.52,-32.51 630.97,-25.52"/>
</a>
</g>
<g id="a_edge4&#45;headlabel"><a xlink:href="dir_000447_000802.html" target="_top" xlink:title="1">
<text text-anchor="middle" x="634.73" y="-20.42" font-family="Inter" font-size="10.00" fill="#63b8ff">1</text>
</a>
</g>
</g>
<!-- dir_999ad619dde4a77cdb118dbb50098e98 -->
<g id="node7" class="node">
<title>dir_999ad619dde4a77cdb118dbb50098e98</title>
<g id="a_node7"><a xlink:href="dir_999ad619dde4a77cdb118dbb50098e98.html" target="_top" xlink:title="i2c&#45;sys">
<polygon fill="#a2b4d6" stroke="#404040" points="834.5,-90 787.5,-90 787.5,-71 834.5,-71 834.5,-90"/>
<text text-anchor="middle" x="811" y="-78" font-family="Inter" font-size="10.00">i2c&#45;sys</text>
</a>
</g>
</g>
<!-- dir_999ad619dde4a77cdb118dbb50098e98&#45;&gt;dir_575d91b9456cdb279c2a6f56408e7db9 -->
<g id="edge5" class="edge">
<title>dir_999ad619dde4a77cdb118dbb50098e98&#45;&gt;dir_575d91b9456cdb279c2a6f56408e7db9</title>
<g id="a_edge5"><a xlink:href="dir_000449_000802.html" target="_top">
<path fill="none" stroke="#63b8ff" d="M795.94,-70.84C790.44,-67.99 784.08,-65.03 778,-63 729.39,-46.78 671.58,-37.22 630.65,-31.98"/>
<polygon fill="#63b8ff" stroke="#63b8ff" points="630.98,-28.49 620.62,-30.74 630.12,-35.44 630.98,-28.49"/>
</a>
</g>
<g id="a_edge5&#45;headlabel"><a xlink:href="dir_000449_000802.html" target="_top" xlink:title="1">
<text text-anchor="middle" x="634.89" y="-23.61" font-family="Inter" font-size="10.00" fill="#63b8ff">1</text>
</a>
</g>
</g>
<!-- dir_68e44c3d1adfe3f96a6ee28bd9f1ec0e -->
<g id="node8" class="node">
<title>dir_68e44c3d1adfe3f96a6ee28bd9f1ec0e</title>
<g id="a_node8"><a xlink:href="dir_68e44c3d1adfe3f96a6ee28bd9f1ec0e.html" target="_top" xlink:title="i8k">
<polygon fill="#a2b4d6" stroke="#404040" points="769,-90 739,-90 739,-71 769,-71 769,-90"/>
<text text-anchor="middle" x="754" y="-78" font-family="Inter" font-size="10.00">i8k</text>
</a>
</g>
</g>
<!-- dir_68e44c3d1adfe3f96a6ee28bd9f1ec0e&#45;&gt;dir_575d91b9456cdb279c2a6f56408e7db9 -->
<g id="edge6" class="edge">
<title>dir_68e44c3d1adfe3f96a6ee28bd9f1ec0e&#45;&gt;dir_575d91b9456cdb279c2a6f56408e7db9</title>
<g id="a_edge6"><a xlink:href="dir_000451_000802.html" target="_top">
<path fill="none" stroke="#63b8ff" d="M743.27,-70.88C739.29,-68.02 734.62,-65.06 730,-63 698.37,-48.91 660.52,-39.8 630.5,-34.21"/>
<polygon fill="#63b8ff" stroke="#63b8ff" points="631.1,-30.76 620.64,-32.44 629.86,-37.65 631.1,-30.76"/>
</a>
</g>
<g id="a_edge6&#45;headlabel"><a xlink:href="dir_000451_000802.html" target="_top" xlink:title="1">
<text text-anchor="middle" x="635.14" y="-26.1" font-family="Inter" font-size="10.00" fill="#63b8ff">1</text>
</a>
</g>
</g>
<!-- dir_bc1cf3d4df70e09c7177ae52b15bd73c -->
<g id="node9" class="node">
<title>dir_bc1cf3d4df70e09c7177ae52b15bd73c</title>
<g id="a_node9"><a xlink:href="dir_bc1cf3d4df70e09c7177ae52b15bd73c.html" target="_top" xlink:title="ibm&#45;acpi">
<polygon fill="#a2b4d6" stroke="#404040" points="720.5,-90 665.5,-90 665.5,-71 720.5,-71 720.5,-90"/>
<text text-anchor="middle" x="693" y="-78" font-family="Inter" font-size="10.00">ibm&#45;acpi</text>
</a>
</g>
</g>
<!-- dir_bc1cf3d4df70e09c7177ae52b15bd73c&#45;&gt;dir_575d91b9456cdb279c2a6f56408e7db9 -->
<g id="edge7" class="edge">
<title>dir_bc1cf3d4df70e09c7177ae52b15bd73c&#45;&gt;dir_575d91b9456cdb279c2a6f56408e7db9</title>
<g id="a_edge7"><a xlink:href="dir_000453_000802.html" target="_top">
<path fill="none" stroke="#63b8ff" d="M674.52,-70.98C656.02,-62.46 627.32,-49.23 606.02,-39.41"/>
<polygon fill="#63b8ff" stroke="#63b8ff" points="607.36,-36.18 596.81,-35.17 604.43,-42.53 607.36,-36.18"/>
</a>
</g>
<g id="a_edge7&#45;headlabel"><a xlink:href="dir_000453_000802.html" target="_top" xlink:title="1">
<text text-anchor="middle" x="611.81" y="-32.6" font-family="Inter" font-size="10.00" fill="#63b8ff">1</text>
</a>
</g>
</g>
<!-- dir_50fc35098380dd31bd864936c536e936 -->
<g id="node10" class="node">
<title>dir_50fc35098380dd31bd864936c536e936</title>
<g id="a_node10"><a xlink:href="dir_50fc35098380dd31bd864936c536e936.html" target="_top" xlink:title="libsensors">
<polygon fill="#a2b4d6" stroke="#404040" points="647.5,-90 584.5,-90 584.5,-71 647.5,-71 647.5,-90"/>
<text text-anchor="middle" x="616" y="-78" font-family="Inter" font-size="10.00">libsensors</text>
</a>
</g>
</g>
<!-- dir_50fc35098380dd31bd864936c536e936&#45;&gt;dir_575d91b9456cdb279c2a6f56408e7db9 -->
<g id="edge8" class="edge">
<title>dir_50fc35098380dd31bd864936c536e936&#45;&gt;dir_575d91b9456cdb279c2a6f56408e7db9</title>
<g id="a_edge8"><a xlink:href="dir_000516_000802.html" target="_top">
<path fill="none" stroke="#63b8ff" d="M609.73,-70.75C604.41,-63.34 596.64,-52.5 590.12,-43.41"/>
<polygon fill="#63b8ff" stroke="#63b8ff" points="592.83,-41.18 584.16,-35.09 587.14,-45.26 592.83,-41.18"/>
</a>
</g>
<g id="a_edge8&#45;headlabel"><a xlink:href="dir_000516_000802.html" target="_top" xlink:title="1">
<text text-anchor="middle" x="597.23" y="-39.94" font-family="Inter" font-size="10.00" fill="#63b8ff">1</text>
</a>
</g>
</g>
<!-- dir_28c348be06572ce3c5345f3df378e850 -->
<g id="node11" class="node">
<title>dir_28c348be06572ce3c5345f3df378e850</title>
<g id="a_node11"><a xlink:href="dir_28c348be06572ce3c5345f3df378e850.html" target="_top" xlink:title="mbmon">
<polygon fill="#a2b4d6" stroke="#404040" points="566.5,-90 513.5,-90 513.5,-71 566.5,-71 566.5,-90"/>
<text text-anchor="middle" x="540" y="-78" font-family="Inter" font-size="10.00">mbmon</text>
</a>
</g>
</g>
<!-- dir_28c348be06572ce3c5345f3df378e850&#45;&gt;dir_575d91b9456cdb279c2a6f56408e7db9 -->
<g id="edge9" class="edge">
<title>dir_28c348be06572ce3c5345f3df378e850&#45;&gt;dir_575d91b9456cdb279c2a6f56408e7db9</title>
<g id="a_edge9"><a xlink:href="dir_000582_000802.html" target="_top">
<path fill="none" stroke="#63b8ff" d="M546.27,-70.75C551.59,-63.34 559.36,-52.5 565.88,-43.41"/>
<polygon fill="#63b8ff" stroke="#63b8ff" points="568.86,-45.26 571.84,-35.09 563.17,-41.18 568.86,-45.26"/>
</a>
</g>
<g id="a_edge9&#45;headlabel"><a xlink:href="dir_000582_000802.html" target="_top" xlink:title="1">
<text text-anchor="middle" x="569.07" y="-47.33" font-family="Inter" font-size="10.00" fill="#63b8ff">1</text>
</a>
</g>
</g>
<!-- dir_36605197cba95be48526c2a569349fc2 -->
<g id="node12" class="node">
<title>dir_36605197cba95be48526c2a569349fc2</title>
<g id="a_node12"><a xlink:href="dir_36605197cba95be48526c2a569349fc2.html" target="_top" xlink:title="netbsd">
<polygon fill="#a2b4d6" stroke="#404040" points="495.5,-90 446.5,-90 446.5,-71 495.5,-71 495.5,-90"/>
<text text-anchor="middle" x="471" y="-78" font-family="Inter" font-size="10.00">netbsd</text>
</a>
</g>
</g>
<!-- dir_36605197cba95be48526c2a569349fc2&#45;&gt;dir_575d91b9456cdb279c2a6f56408e7db9 -->
<g id="edge10" class="edge">
<title>dir_36605197cba95be48526c2a569349fc2&#45;&gt;dir_575d91b9456cdb279c2a6f56408e7db9</title>
<g id="a_edge10"><a xlink:href="dir_000630_000802.html" target="_top">
<path fill="none" stroke="#63b8ff" d="M488.19,-70.98C505.25,-62.54 531.63,-49.47 551.4,-39.68"/>
<polygon fill="#63b8ff" stroke="#63b8ff" points="553.09,-42.75 560.5,-35.17 549.98,-36.47 553.09,-42.75"/>
</a>
</g>
<g id="a_edge10&#45;headlabel"><a xlink:href="dir_000630_000802.html" target="_top" xlink:title="1">
<text text-anchor="middle" x="551.13" y="-44.39" font-family="Inter" font-size="10.00" fill="#63b8ff">1</text>
</a>
</g>
</g>
<!-- dir_668c31e3b4ad49982890eec61c775404 -->
<g id="node13" class="node">
<title>dir_668c31e3b4ad49982890eec61c775404</title>
<g id="a_node13"><a xlink:href="dir_668c31e3b4ad49982890eec61c775404.html" target="_top" xlink:title="nvidia">
<polygon fill="#a2b4d6" stroke="#404040" points="428,-90 384,-90 384,-71 428,-71 428,-90"/>
<text text-anchor="middle" x="406" y="-78" font-family="Inter" font-size="10.00">nvidia</text>
</a>
</g>
</g>
<!-- dir_668c31e3b4ad49982890eec61c775404&#45;&gt;dir_575d91b9456cdb279c2a6f56408e7db9 -->
<g id="edge11" class="edge">
<title>dir_668c31e3b4ad49982890eec61c775404&#45;&gt;dir_575d91b9456cdb279c2a6f56408e7db9</title>
<g id="a_edge11"><a xlink:href="dir_000643_000802.html" target="_top">
<path fill="none" stroke="#63b8ff" d="M420.98,-70.91C426.25,-68.12 432.28,-65.19 438,-63 466.19,-52.21 498.75,-43.51 525.38,-37.31"/>
<polygon fill="#63b8ff" stroke="#63b8ff" points="526.3,-40.69 535.27,-35.06 524.75,-33.87 526.3,-40.69"/>
</a>
</g>
<g id="a_edge11&#45;headlabel"><a xlink:href="dir_000643_000802.html" target="_top" xlink:title="1">
<text text-anchor="middle" x="523.42" y="-41.76" font-family="Inter" font-size="10.00" fill="#63b8ff">1</text>
</a>
</g>
</g>
<!-- dir_551d0c5ce7130d85bb8da3cae2e2e8f3 -->
<g id="node14" class="node">
<title>dir_551d0c5ce7130d85bb8da3cae2e2e8f3</title>
<g id="a_node14"><a xlink:href="dir_551d0c5ce7130d85bb8da3cae2e2e8f3.html" target="_top" xlink:title="omnibook">
<polygon fill="#a2b4d6" stroke="#404040" points="365.5,-90 302.5,-90 302.5,-71 365.5,-71 365.5,-90"/>
<text text-anchor="middle" x="334" y="-78" font-family="Inter" font-size="10.00">omnibook</text>
</a>
</g>
</g>
<!-- dir_551d0c5ce7130d85bb8da3cae2e2e8f3&#45;&gt;dir_575d91b9456cdb279c2a6f56408e7db9 -->
<g id="edge12" class="edge">
<title>dir_551d0c5ce7130d85bb8da3cae2e2e8f3&#45;&gt;dir_575d91b9456cdb279c2a6f56408e7db9</title>
<g id="a_edge12"><a xlink:href="dir_000645_000802.html" target="_top">
<path fill="none" stroke="#63b8ff" d="M352.91,-70.95C359.76,-68.1 367.63,-65.12 375,-63 425.12,-48.57 483.92,-38.75 525.3,-32.96"/>
<polygon fill="#63b8ff" stroke="#63b8ff" points="526,-36.39 535.43,-31.57 525.05,-29.46 526,-36.39"/>
</a>
</g>
<g id="a_edge12&#45;headlabel"><a xlink:href="dir_000645_000802.html" target="_top" xlink:title="1">
<text text-anchor="middle" x="522.82" y="-37.19" font-family="Inter" font-size="10.00" fill="#63b8ff">1</text>
</a>
</g>
</g>
<!-- dir_9f7ad1dd394751f3bb5873f579a26867 -->
<g id="node15" class="node">
<title>dir_9f7ad1dd394751f3bb5873f579a26867</title>
<g id="a_node15"><a xlink:href="dir_9f7ad1dd394751f3bb5873f579a26867.html" target="_top" xlink:title="pmu&#45;sys">
<polygon fill="#a2b4d6" stroke="#404040" points="284.5,-90 229.5,-90 229.5,-71 284.5,-71 284.5,-90"/>
<text text-anchor="middle" x="257" y="-78" font-family="Inter" font-size="10.00">pmu&#45;sys</text>
</a>
</g>
</g>
<!-- dir_9f7ad1dd394751f3bb5873f579a26867&#45;&gt;dir_575d91b9456cdb279c2a6f56408e7db9 -->
<g id="edge13" class="edge">
<title>dir_9f7ad1dd394751f3bb5873f579a26867&#45;&gt;dir_575d91b9456cdb279c2a6f56408e7db9</title>
<g id="a_edge13"><a xlink:href="dir_000720_000802.html" target="_top">
<path fill="none" stroke="#63b8ff" d="M273.56,-70.88C279.82,-67.95 287.09,-64.94 294,-63 372.62,-40.93 467.29,-32.16 525.03,-28.7"/>
<polygon fill="#63b8ff" stroke="#63b8ff" points="525.58,-32.17 535.37,-28.11 525.19,-25.19 525.58,-32.17"/>
</a>
</g>
<g id="a_edge13&#45;headlabel"><a xlink:href="dir_000720_000802.html" target="_top" xlink:title="1">
<text text-anchor="middle" x="522.15" y="-32.71" font-family="Inter" font-size="10.00" fill="#63b8ff">1</text>
</a>
</g>
</g>
<!-- dir_794493a0910a212bf29b8c8231bdf663 -->
<g id="node16" class="node">
<title>dir_794493a0910a212bf29b8c8231bdf663</title>
<g id="a_node16"><a xlink:href="dir_794493a0910a212bf29b8c8231bdf663.html" target="_top" xlink:title="smu&#45;sys">
<polygon fill="#a2b4d6" stroke="#404040" points="211.5,-90 158.5,-90 158.5,-71 211.5,-71 211.5,-90"/>
<text text-anchor="middle" x="185" y="-78" font-family="Inter" font-size="10.00">smu&#45;sys</text>
</a>
</g>
</g>
<!-- dir_794493a0910a212bf29b8c8231bdf663&#45;&gt;dir_575d91b9456cdb279c2a6f56408e7db9 -->
<g id="edge14" class="edge">
<title>dir_794493a0910a212bf29b8c8231bdf663&#45;&gt;dir_575d91b9456cdb279c2a6f56408e7db9</title>
<g id="a_edge14"><a xlink:href="dir_000814_000802.html" target="_top">
<path fill="none" stroke="#63b8ff" d="M200.71,-70.94C206.87,-67.95 214.1,-64.88 221,-63 326.21,-34.35 454.42,-27.82 525.01,-26.55"/>
<polygon fill="#63b8ff" stroke="#63b8ff" points="525.47,-30.04 535.42,-26.39 525.36,-23.04 525.47,-30.04"/>
</a>
</g>
<g id="a_edge14&#45;headlabel"><a xlink:href="dir_000814_000802.html" target="_top" xlink:title="1">
<text text-anchor="middle" x="521.92" y="-30.43" font-family="Inter" font-size="10.00" fill="#63b8ff">1</text>
</a>
</g>
</g>
<!-- dir_c8f17b062fe43cd949c3c134afa15d18 -->
<g id="node17" class="node">
<title>dir_c8f17b062fe43cd949c3c134afa15d18</title>
<g id="a_node17"><a xlink:href="dir_c8f17b062fe43cd949c3c134afa15d18.html" target="_top" xlink:title="sonypi">
<polygon fill="#a2b4d6" stroke="#404040" points="140.5,-90 93.5,-90 93.5,-71 140.5,-71 140.5,-90"/>
<text text-anchor="middle" x="117" y="-78" font-family="Inter" font-size="10.00">sonypi</text>
</a>
</g>
</g>
<!-- dir_c8f17b062fe43cd949c3c134afa15d18&#45;&gt;dir_575d91b9456cdb279c2a6f56408e7db9 -->
<g id="edge15" class="edge">
<title>dir_c8f17b062fe43cd949c3c134afa15d18&#45;&gt;dir_575d91b9456cdb279c2a6f56408e7db9</title>
<g id="a_edge15"><a xlink:href="dir_000818_000802.html" target="_top">
<path fill="none" stroke="#63b8ff" d="M131.3,-70.87C136.94,-67.87 143.59,-64.8 150,-63 219.25,-43.51 427.19,-32.67 525.46,-28.51"/>
<polygon fill="#63b8ff" stroke="#63b8ff" points="525.63,-32 535.47,-28.09 525.34,-25.01 525.63,-32"/>
</a>
</g>
<g id="a_edge15&#45;headlabel"><a xlink:href="dir_000818_000802.html" target="_top" xlink:title="1">
<text text-anchor="middle" x="522.15" y="-32.49" font-family="Inter" font-size="10.00" fill="#63b8ff">1</text>
</a>
</g>
</g>
<!-- dir_7f04d7119494ed24285934f515518dcb -->
<g id="node18" class="node">
<title>dir_7f04d7119494ed24285934f515518dcb</title>
<g id="a_node18"><a xlink:href="dir_7f04d7119494ed24285934f515518dcb.html" target="_top" xlink:title="udisks2">
<polygon fill="#a2b4d6" stroke="#404040" points="75.5,-90 24.5,-90 24.5,-71 75.5,-71 75.5,-90"/>
<text text-anchor="middle" x="50" y="-78" font-family="Inter" font-size="10.00">udisks2</text>
</a>
</g>
</g>
<!-- dir_7f04d7119494ed24285934f515518dcb&#45;&gt;dir_575d91b9456cdb279c2a6f56408e7db9 -->
<g id="edge16" class="edge">
<title>dir_7f04d7119494ed24285934f515518dcb&#45;&gt;dir_575d91b9456cdb279c2a6f56408e7db9</title>
<g id="a_edge16"><a xlink:href="dir_000948_000802.html" target="_top">
<path fill="none" stroke="#63b8ff" d="M65.22,-70.84C71.2,-67.83 78.24,-64.78 85,-63 166.91,-41.45 415.59,-31.43 525.18,-27.98"/>
<polygon fill="#63b8ff" stroke="#63b8ff" points="525.45,-31.47 535.34,-27.66 525.24,-24.47 525.45,-31.47"/>
</a>
</g>
<g id="a_edge16&#45;headlabel"><a xlink:href="dir_000948_000802.html" target="_top" xlink:title="1">
<text text-anchor="middle" x="521.95" y="-31.92" font-family="Inter" font-size="10.00" fill="#63b8ff">1</text>
</a>
</g>
</g>
</g>
</svg>

<g id="navigator" transform="translate(0 0)" fill="#404254">
  <rect fill="#f2f5e9" fill-opacity="0.5" stroke="#606060" stroke-width=".5" x="0" y="0" width="60" height="60"/>
  <use id="zoomplus" xlink:href="#zoomPlus" x="17" y="9" onmousedown="handleZoom(evt,'in')"/>
  <use id="zoomminus" xlink:href="#zoomMin" x="42" y="9" onmousedown="handleZoom(evt,'out')"/>
  <use id="reset" xlink:href="#resetDef" x="30" y="36" onmousedown="handleReset()"/>
   <use id="arrowup" xlink:href="#arrowUp" x="0" y="0" onmousedown="handlePan(0,-1)"/>
  <use id="arrowright" xlink:href="#arrowRight" x="0" y="0" onmousedown="handlePan(1,0)"/>
  <use id="arrowdown" xlink:href="#arrowDown" x="0" y="0" onmousedown="handlePan(0,1)"/>
  <use id="arrowleft" xlink:href="#arrowLeft" x="0" y="0" onmousedown="handlePan(-1,0)"/>
</g>
<svg viewBox="0 0 15 15" width="100%" height="30px" preserveAspectRatio="xMaxYMin meet">
 <g id="arrow_out" transform="scale(0.3 0.3)">
  <a xlink:href="dir_8865ffed7e3fc15c7168d78fa87d4e0a_dep_org.svg" target="_base">
   <rect id="button" ry="5" rx="5" y="6" x="6" height="38" width="38"
        fill="#f2f5e9" fill-opacity="0.5" stroke="#606060" stroke-width="1.0"/>
   <path id="arrow"
     d="M 11.500037,31.436501 C 11.940474,20.09759 22.043105,11.32322 32.158766,21.979434 L 37.068811,17.246167 C 37.068811,17.246167 37.088388,32 37.088388,32 L 22.160133,31.978069 C 22.160133,31.978069 26.997745,27.140456 26.997745,27.140456 C 18.528582,18.264221 13.291696,25.230495 11.500037,31.436501 z"
     style="fill:#404040;"/>
  </a>
 </g>
</svg>

<style type='text/css'>
<![CDATA[
[data-mouse-over-selected='false'] { opacity: 0.7; }
[data-mouse-over-selected='true']  { opacity: 1.0; }
]]>
</style>
<script type="application/ecmascript"><![CDATA[
document.addEventListener('DOMContentLoaded', (event) => {
  highlightEdges();
  highlightAdjacentNodes();
});
]]></script>
</svg>
