<?xml version="1.0" encoding="UTF-8" standalone="no"?>
<!DOCTYPE svg PUBLIC "-//W3C//DTD SVG 1.1//EN"
 "http://www.w3.org/Graphics/SVG/1.1/DTD/svg11.dtd">
<!-- Generated by graphviz version 2.43.0 (0)
 -->
<!-- Title: mate&#45;applets Pages: 1 -->
<!--zoomable 100 -->

<svg id="main" version="1.1" xmlns="http://www.w3.org/2000/svg" xmlns:xlink="http://www.w3.org/1999/xlink" xml:space="preserve" onload="init(evt)">

<style type="text/css"><![CDATA[
.node, .edge {opacity: 0.7;}
.node.selected, .edge.selected {opacity: 1;}
.edge:hover path { stroke: red; }
.edge:hover polygon { stroke: red; fill: red; }
]]></style>

<defs>
  <circle id="rim" cx="0" cy="0" r="7"/>
  <circle id="rim2" cx="0" cy="0" r="3.5"/>
  <g id="zoomPlus">
    <use xlink:href="#rim" fill="#404040"><set attributeName="fill" to="#808080" begin="zoomplus.mouseover" end="zoomplus.mouseout"/></use>
    <path d="M-4,0h8M0,-4v8" fill="none" stroke="white" stroke-width="1.5" pointer-events="none"/>
  </g>
  <g id="zoomMin">
    <use xlink:href="#rim" fill="#404040"><set attributeName="fill" to="#808080" begin="zoomminus.mouseover" end="zoomminus.mouseout"/></use>
    <path d="M-4,0h8" fill="none" stroke="white" stroke-width="1.5" pointer-events="none"/>
  </g>
  <g id="arrowUp" transform="translate(30 24)">
    <use xlink:href="#rim"/>
    <path pointer-events="none" fill="none" stroke="white" stroke-width="1.5" d="M0,-3.0v7 M-2.5,-0.5L0,-3.0L2.5,-0.5"/>
  </g>
  <g id="arrowRight" transform="rotate(90) translate(36 -43)">
    <use xlink:href="#rim"/>
    <path pointer-events="none" fill="none" stroke="white" stroke-width="1.5" d="M0,-3.0v7 M-2.5,-0.5L0,-3.0L2.5,-0.5"/>
  </g>
  <g id="arrowDown" transform="rotate(180) translate(-30 -48)">
    <use xlink:href="#rim"/>
    <path pointer-events="none" fill="none" stroke="white" stroke-width="1.5" d="M0,-3.0v7 M-2.5,-0.5L0,-3.0L2.5,-0.5"/>
  </g>
  <g id="arrowLeft" transform="rotate(270) translate(-36 17)">
    <use xlink:href="#rim"/>
    <path pointer-events="none" fill="none" stroke="white" stroke-width="1.5" d="M0,-3.0v7 M-2.5,-0.5L0,-3.0L2.5,-0.5"/>
  </g>
  <g id="resetDef">
    <use xlink:href="#rim2" fill="#404040"><set attributeName="fill" to="#808080" begin="reset.mouseover" end="reset.mouseout"/></use>
  </g>
</defs>
<script type="application/ecmascript">
var viewWidth = 1589;
var viewHeight = 100;
var sectionId = 'dynsection-0';
</script>
<script type="application/ecmascript" xlink:href="svg.min.js"/>
<svg id="graph" class="graph">
<g id="viewport">
<title>mate&#45;applets</title>
<g id="clust1" class="cluster">
<title>clusterdir_a1f53c9b9fbb67244a6e70d291fdba87</title>
<g id="a_clust1"><a xlink:href="dir_a1f53c9b9fbb67244a6e70d291fdba87.html" target="_top">
<polygon fill="#edf0f7" stroke="#404040" stroke-width="2" points="8,-48.98 8,-83.98 1573,-83.98 1573,-48.98 8,-48.98"/>
</a>
</g>
</g>
<!-- dir_a1f53c9b9fbb67244a6e70d291fdba87 -->
<g id="node1" class="node">
<title>dir_a1f53c9b9fbb67244a6e70d291fdba87</title>
<text text-anchor="middle" x="1526" y="-63.98" font-family="Inter" font-size="10.00">mate&#45;applets</text>
</g>
<!-- dir_2ac163ce8d538df66e99b061d5b05a35 -->
<g id="node2" class="node">
<title>dir_2ac163ce8d538df66e99b061d5b05a35</title>
<g id="a_node2"><a xlink:href="dir_2ac163ce8d538df66e99b061d5b05a35.html" target="_top" xlink:title="accessx&#45;status">
<polygon fill="#a2b4d6" stroke="#404040" points="545,-75.98 463,-75.98 463,-56.98 545,-56.98 545,-75.98"/>
<text text-anchor="middle" x="504" y="-63.98" font-family="Inter" font-size="10.00">accessx&#45;status</text>
</a>
</g>
</g>
<!-- dir_1a7ceb8b43f37d3610d8c76ebbb89cca -->
<g id="node20" class="node">
<title>dir_1a7ceb8b43f37d3610d8c76ebbb89cca</title>
<g id="a_node20"><a xlink:href="dir_1a7ceb8b43f37d3610d8c76ebbb89cca.html" target="_top" xlink:title="mate&#45;panel">
<polygon fill="#edf0f7" stroke="red" points="862.5,-20.98 793.5,-20.98 793.5,-1.98 862.5,-1.98 862.5,-20.98"/>
<text text-anchor="middle" x="828" y="-8.98" font-family="Inter" font-size="10.00">mate&#45;panel</text>
</a>
</g>
</g>
<!-- dir_2ac163ce8d538df66e99b061d5b05a35&#45;&gt;dir_1a7ceb8b43f37d3610d8c76ebbb89cca -->
<g id="edge1" class="edge">
<title>dir_2ac163ce8d538df66e99b061d5b05a35&#45;&gt;dir_1a7ceb8b43f37d3610d8c76ebbb89cca</title>
<g id="a_edge1"><a xlink:href="dir_000063_000549.html" target="_top">
<path fill="none" stroke="#63b8ff" d="M526.9,-56.93C535.32,-54.05 545,-51.04 554,-48.98 633.75,-30.67 728.82,-20.56 783.42,-15.85"/>
<polygon fill="#63b8ff" stroke="#63b8ff" points="783.79,-19.33 793.46,-15 783.2,-12.35 783.79,-19.33"/>
</a>
</g>
<g id="a_edge1&#45;headlabel"><a xlink:href="dir_000063_000549.html" target="_top" xlink:title="2">
<text text-anchor="middle" x="780.44" y="-19.96" font-family="Inter" font-size="10.00" fill="#63b8ff">2</text>
</a>
</g>
</g>
<!-- dir_6c777756b38fdf4cf7188af124b43976 -->
<g id="node3" class="node">
<title>dir_6c777756b38fdf4cf7188af124b43976</title>
<g id="a_node3"><a xlink:href="dir_6c777756b38fdf4cf7188af124b43976.html" target="_top" xlink:title="battstat">
<polygon fill="#a2b4d6" stroke="#404040" points="444.5,-75.98 391.5,-75.98 391.5,-56.98 444.5,-56.98 444.5,-75.98"/>
<text text-anchor="middle" x="418" y="-63.98" font-family="Inter" font-size="10.00">battstat</text>
</a>
</g>
</g>
<!-- dir_6c777756b38fdf4cf7188af124b43976&#45;&gt;dir_1a7ceb8b43f37d3610d8c76ebbb89cca -->
<g id="edge2" class="edge">
<title>dir_6c777756b38fdf4cf7188af124b43976&#45;&gt;dir_1a7ceb8b43f37d3610d8c76ebbb89cca</title>
<g id="a_edge2"><a xlink:href="dir_000163_000549.html" target="_top">
<path fill="none" stroke="#63b8ff" d="M433.7,-56.9C439.86,-53.91 447.1,-50.84 454,-48.98 569.63,-17.78 711.74,-12.56 782.9,-12.1"/>
<polygon fill="#63b8ff" stroke="#63b8ff" points="783.3,-15.6 793.28,-12.06 783.27,-8.6 783.3,-15.6"/>
</a>
</g>
<g id="a_edge2&#45;headlabel"><a xlink:href="dir_000163_000549.html" target="_top" xlink:title="4">
<text text-anchor="middle" x="779.71" y="-15.95" font-family="Inter" font-size="10.00" fill="#63b8ff">4</text>
</a>
</g>
</g>
<!-- dir_95267c0f649a44d7d09a1b304768afe0 -->
<g id="node4" class="node">
<title>dir_95267c0f649a44d7d09a1b304768afe0</title>
<g id="a_node4"><a xlink:href="dir_95267c0f649a44d7d09a1b304768afe0.html" target="_top" xlink:title="charpick">
<polygon fill="#a2b4d6" stroke="#404040" points="71.5,-75.98 16.5,-75.98 16.5,-56.98 71.5,-56.98 71.5,-75.98"/>
<text text-anchor="middle" x="44" y="-63.98" font-family="Inter" font-size="10.00">charpick</text>
</a>
</g>
</g>
<!-- dir_95267c0f649a44d7d09a1b304768afe0&#45;&gt;dir_1a7ceb8b43f37d3610d8c76ebbb89cca -->
<g id="edge3" class="edge">
<title>dir_95267c0f649a44d7d09a1b304768afe0&#45;&gt;dir_1a7ceb8b43f37d3610d8c76ebbb89cca</title>
<g id="a_edge3"><a xlink:href="dir_000204_000549.html" target="_top">
<path fill="none" stroke="#63b8ff" d="M59.75,-56.9C66.16,-53.83 73.75,-50.71 81,-48.98 215.48,-16.9 643.12,-12.93 783.14,-12.5"/>
<polygon fill="#63b8ff" stroke="#63b8ff" points="783.5,-16 793.49,-12.48 783.48,-9 783.5,-16"/>
</a>
</g>
<g id="a_edge3&#45;headlabel"><a xlink:href="dir_000204_000549.html" target="_top" xlink:title="4">
<text text-anchor="middle" x="779.91" y="-16.35" font-family="Inter" font-size="10.00" fill="#63b8ff">4</text>
</a>
</g>
</g>
<!-- dir_bd01e37e3abf58033a7403a9aaac696e -->
<g id="node5" class="node">
<title>dir_bd01e37e3abf58033a7403a9aaac696e</title>
<g id="a_node5"><a xlink:href="dir_bd01e37e3abf58033a7403a9aaac696e.html" target="_top" xlink:title="command">
<polygon fill="#a2b4d6" stroke="#404040" points="223,-75.98 161,-75.98 161,-56.98 223,-56.98 223,-75.98"/>
<text text-anchor="middle" x="192" y="-63.98" font-family="Inter" font-size="10.00">command</text>
</a>
</g>
</g>
<!-- dir_bd01e37e3abf58033a7403a9aaac696e&#45;&gt;dir_1a7ceb8b43f37d3610d8c76ebbb89cca -->
<g id="edge4" class="edge">
<title>dir_bd01e37e3abf58033a7403a9aaac696e&#45;&gt;dir_1a7ceb8b43f37d3610d8c76ebbb89cca</title>
<g id="a_edge4"><a xlink:href="dir_000217_000549.html" target="_top">
<path fill="none" stroke="#63b8ff" d="M209.56,-56.96C216.67,-53.9 225.07,-50.77 233,-48.98 337.61,-25.37 662.79,-16.06 782.86,-13.37"/>
<polygon fill="#63b8ff" stroke="#63b8ff" points="783.24,-16.87 793.16,-13.15 783.08,-9.87 783.24,-16.87"/>
</a>
</g>
<g id="a_edge4&#45;headlabel"><a xlink:href="dir_000217_000549.html" target="_top" xlink:title="2">
<text text-anchor="middle" x="779.71" y="-17.28" font-family="Inter" font-size="10.00" fill="#63b8ff">2</text>
</a>
</g>
</g>
<!-- dir_cea38bf4e7584924b8e52ae9003d393a -->
<g id="node6" class="node">
<title>dir_cea38bf4e7584924b8e52ae9003d393a</title>
<g id="a_node6"><a xlink:href="dir_cea38bf4e7584924b8e52ae9003d393a.html" target="_top" xlink:title="cpufreq">
<polygon fill="#a2b4d6" stroke="#404040" points="142.5,-75.98 89.5,-75.98 89.5,-56.98 142.5,-56.98 142.5,-75.98"/>
<text text-anchor="middle" x="116" y="-63.98" font-family="Inter" font-size="10.00">cpufreq</text>
</a>
</g>
</g>
<!-- dir_cea38bf4e7584924b8e52ae9003d393a&#45;&gt;dir_1a7ceb8b43f37d3610d8c76ebbb89cca -->
<g id="edge5" class="edge">
<title>dir_cea38bf4e7584924b8e52ae9003d393a&#45;&gt;dir_1a7ceb8b43f37d3610d8c76ebbb89cca</title>
<g id="a_edge5"><a xlink:href="dir_000228_000549.html" target="_top">
<path fill="none" stroke="#63b8ff" d="M131.31,-56.92C137.54,-53.85 144.92,-50.72 152,-48.98 272.13,-19.34 651.92,-13.76 783,-12.72"/>
<polygon fill="#63b8ff" stroke="#63b8ff" points="783.12,-16.22 793.09,-12.64 783.06,-9.22 783.12,-16.22"/>
</a>
</g>
<g id="a_edge5&#45;headlabel"><a xlink:href="dir_000228_000549.html" target="_top" xlink:title="2">
<text text-anchor="middle" x="779.54" y="-16.58" font-family="Inter" font-size="10.00" fill="#63b8ff">2</text>
</a>
</g>
</g>
<!-- dir_ca41549a2f9e59f464f5f43187058a51 -->
<g id="node7" class="node">
<title>dir_ca41549a2f9e59f464f5f43187058a51</title>
<g id="a_node7"><a xlink:href="dir_ca41549a2f9e59f464f5f43187058a51.html" target="_top" xlink:title="drivemount">
<polygon fill="#a2b4d6" stroke="#404040" points="1372.5,-75.98 1301.5,-75.98 1301.5,-56.98 1372.5,-56.98 1372.5,-75.98"/>
<text text-anchor="middle" x="1337" y="-63.98" font-family="Inter" font-size="10.00">drivemount</text>
</a>
</g>
</g>
<!-- dir_ca41549a2f9e59f464f5f43187058a51&#45;&gt;dir_1a7ceb8b43f37d3610d8c76ebbb89cca -->
<g id="edge7" class="edge">
<title>dir_ca41549a2f9e59f464f5f43187058a51&#45;&gt;dir_1a7ceb8b43f37d3610d8c76ebbb89cca</title>
<g id="a_edge7"><a xlink:href="dir_000334_000549.html" target="_top">
<path fill="none" stroke="#63b8ff" d="M1317.65,-56.88C1310.1,-53.88 1301.28,-50.82 1293,-48.98 1141.57,-15.34 956.4,-11.61 872.78,-11.86"/>
<polygon fill="#63b8ff" stroke="#63b8ff" points="872.6,-8.36 862.61,-11.91 872.63,-15.36 872.6,-8.36"/>
</a>
</g>
<g id="a_edge7&#45;headlabel"><a xlink:href="dir_000334_000549.html" target="_top" xlink:title="1">
<text text-anchor="middle" x="876.18" y="-3" font-family="Inter" font-size="10.00" fill="#63b8ff">1</text>
</a>
</g>
</g>
<!-- dir_8cc4d8de6389f3ef5db2ddcabec2099b -->
<g id="node21" class="node">
<title>dir_8cc4d8de6389f3ef5db2ddcabec2099b</title>
<g id="a_node21"><a xlink:href="dir_8cc4d8de6389f3ef5db2ddcabec2099b.html" target="_top" xlink:title="mate&#45;desktop">
<polygon fill="#edf0f7" stroke="red" points="1372.5,-20.98 1291.5,-20.98 1291.5,-1.98 1372.5,-1.98 1372.5,-20.98"/>
<text text-anchor="middle" x="1332" y="-8.98" font-family="Inter" font-size="10.00">mate&#45;desktop</text>
</a>
</g>
</g>
<!-- dir_ca41549a2f9e59f464f5f43187058a51&#45;&gt;dir_8cc4d8de6389f3ef5db2ddcabec2099b -->
<g id="edge6" class="edge">
<title>dir_ca41549a2f9e59f464f5f43187058a51&#45;&gt;dir_8cc4d8de6389f3ef5db2ddcabec2099b</title>
<g id="a_edge6"><a xlink:href="dir_000334_000538.html" target="_top">
<path fill="none" stroke="#63b8ff" d="M1336.17,-56.72C1335.52,-49.78 1334.58,-39.82 1333.76,-31.11"/>
<polygon fill="#63b8ff" stroke="#63b8ff" points="1337.23,-30.69 1332.81,-21.07 1330.27,-31.35 1337.23,-30.69"/>
</a>
</g>
<g id="a_edge6&#45;headlabel"><a xlink:href="dir_000334_000538.html" target="_top" xlink:title="1">
<text text-anchor="middle" x="1340.4" y="-31.5" font-family="Inter" font-size="10.00" fill="#63b8ff">1</text>
</a>
</g>
</g>
<!-- dir_b15dd5bfc55d83847509b7cff79aa64c -->
<g id="node8" class="node">
<title>dir_b15dd5bfc55d83847509b7cff79aa64c</title>
<g id="a_node8"><a xlink:href="dir_b15dd5bfc55d83847509b7cff79aa64c.html" target="_top" xlink:title="geyes">
<polygon fill="#a2b4d6" stroke="#404040" points="1194,-75.98 1150,-75.98 1150,-56.98 1194,-56.98 1194,-75.98"/>
<text text-anchor="middle" x="1172" y="-63.98" font-family="Inter" font-size="10.00">geyes</text>
</a>
</g>
</g>
<!-- dir_b15dd5bfc55d83847509b7cff79aa64c&#45;&gt;dir_1a7ceb8b43f37d3610d8c76ebbb89cca -->
<g id="edge8" class="edge">
<title>dir_b15dd5bfc55d83847509b7cff79aa64c&#45;&gt;dir_1a7ceb8b43f37d3610d8c76ebbb89cca</title>
<g id="a_edge8"><a xlink:href="dir_000383_000549.html" target="_top">
<path fill="none" stroke="#63b8ff" d="M1158.59,-56.93C1153.3,-53.94 1147.05,-50.87 1141,-48.98 1048.68,-20.16 934.62,-13.73 872.85,-12.52"/>
<polygon fill="#63b8ff" stroke="#63b8ff" points="872.73,-9.02 862.67,-12.36 872.62,-16.02 872.73,-9.02"/>
</a>
</g>
<g id="a_edge8&#45;headlabel"><a xlink:href="dir_000383_000549.html" target="_top" xlink:title="3">
<text text-anchor="middle" x="876.37" y="-3.73" font-family="Inter" font-size="10.00" fill="#63b8ff">3</text>
</a>
</g>
</g>
<!-- dir_90e33990f7269b21a7464251ddf6a810 -->
<g id="node9" class="node">
<title>dir_90e33990f7269b21a7464251ddf6a810</title>
<g id="a_node9"><a xlink:href="dir_90e33990f7269b21a7464251ddf6a810.html" target="_top" xlink:title="indicator&#45;applet">
<polygon fill="#a2b4d6" stroke="#404040" points="872.5,-75.98 783.5,-75.98 783.5,-56.98 872.5,-56.98 872.5,-75.98"/>
<text text-anchor="middle" x="828" y="-63.98" font-family="Inter" font-size="10.00">indicator&#45;applet</text>
</a>
</g>
</g>
<!-- dir_46c53ac418c99f6f9d05a38c21a2bbaf -->
<g id="node10" class="node">
<title>dir_46c53ac418c99f6f9d05a38c21a2bbaf</title>
<g id="a_node10"><a xlink:href="dir_46c53ac418c99f6f9d05a38c21a2bbaf.html" target="_top" xlink:title="invest&#45;applet">
<polygon fill="#a2b4d6" stroke="#404040" points="1131.5,-75.98 1054.5,-75.98 1054.5,-56.98 1131.5,-56.98 1131.5,-75.98"/>
<text text-anchor="middle" x="1093" y="-63.98" font-family="Inter" font-size="10.00">invest&#45;applet</text>
</a>
</g>
</g>
<!-- dir_46c53ac418c99f6f9d05a38c21a2bbaf&#45;&gt;dir_1a7ceb8b43f37d3610d8c76ebbb89cca -->
<g id="edge9" class="edge">
<title>dir_46c53ac418c99f6f9d05a38c21a2bbaf&#45;&gt;dir_1a7ceb8b43f37d3610d8c76ebbb89cca</title>
<g id="a_edge9"><a xlink:href="dir_000477_000549.html" target="_top">
<path fill="none" stroke="#63b8ff" d="M1071.24,-56.96C1063.38,-54.12 1054.38,-51.13 1046,-48.98 986.99,-33.8 917.33,-23.41 872.92,-17.7"/>
<polygon fill="#63b8ff" stroke="#63b8ff" points="873.1,-14.2 862.74,-16.42 872.23,-21.14 873.1,-14.2"/>
</a>
</g>
<g id="a_edge9&#45;headlabel"><a xlink:href="dir_000477_000549.html" target="_top" xlink:title="5">
<text text-anchor="middle" x="877.02" y="-9.33" font-family="Inter" font-size="10.00" fill="#63b8ff">5</text>
</a>
</g>
</g>
<!-- dir_d3b9cfd1e0a991ff1a785e7f39cc7366 -->
<g id="node11" class="node">
<title>dir_d3b9cfd1e0a991ff1a785e7f39cc7366</title>
<g id="a_node11"><a xlink:href="dir_d3b9cfd1e0a991ff1a785e7f39cc7366.html" target="_top" xlink:title="man">
<polygon fill="#a2b4d6" stroke="#404040" points="686.5,-75.98 649.5,-75.98 649.5,-56.98 686.5,-56.98 686.5,-75.98"/>
<text text-anchor="middle" x="668" y="-63.98" font-family="Inter" font-size="10.00">man</text>
</a>
</g>
</g>
<!-- dir_bba76fc6c7eaddf54c8f153e37bfe1b5 -->
<g id="node12" class="node">
<title>dir_bba76fc6c7eaddf54c8f153e37bfe1b5</title>
<g id="a_node12"><a xlink:href="dir_bba76fc6c7eaddf54c8f153e37bfe1b5.html" target="_top" xlink:title="mateweather">
<polygon fill="#a2b4d6" stroke="#404040" points="1469.5,-75.98 1390.5,-75.98 1390.5,-56.98 1469.5,-56.98 1469.5,-75.98"/>
<text text-anchor="middle" x="1430" y="-63.98" font-family="Inter" font-size="10.00">mateweather</text>
</a>
</g>
</g>
<!-- dir_bba76fc6c7eaddf54c8f153e37bfe1b5&#45;&gt;dir_1a7ceb8b43f37d3610d8c76ebbb89cca -->
<g id="edge10" class="edge">
<title>dir_bba76fc6c7eaddf54c8f153e37bfe1b5&#45;&gt;dir_1a7ceb8b43f37d3610d8c76ebbb89cca</title>
<g id="a_edge10"><a xlink:href="dir_000579_000549.html" target="_top">
<path fill="none" stroke="#63b8ff" d="M1408.83,-56.84C1400.59,-53.84 1390.98,-50.78 1382,-48.98 1284.87,-29.44 986.47,-17.74 872.7,-13.89"/>
<polygon fill="#63b8ff" stroke="#63b8ff" points="872.71,-10.39 862.59,-13.56 872.47,-17.39 872.71,-10.39"/>
</a>
</g>
<g id="a_edge10&#45;headlabel"><a xlink:href="dir_000579_000549.html" target="_top" xlink:title="6">
<text text-anchor="middle" x="876.39" y="-5.17" font-family="Inter" font-size="10.00" fill="#63b8ff">6</text>
</a>
</g>
</g>
<!-- dir_4874e0b3711b51270fc6d42bf71a0243 -->
<g id="node22" class="node">
<title>dir_4874e0b3711b51270fc6d42bf71a0243</title>
<g id="a_node22"><a xlink:href="dir_4874e0b3711b51270fc6d42bf71a0243.html" target="_top" xlink:title="libmateweather">
<polygon fill="#edf0f7" stroke="red" points="1479.5,-20.98 1390.5,-20.98 1390.5,-1.98 1479.5,-1.98 1479.5,-20.98"/>
<text text-anchor="middle" x="1435" y="-8.98" font-family="Inter" font-size="10.00">libmateweather</text>
</a>
</g>
</g>
<!-- dir_bba76fc6c7eaddf54c8f153e37bfe1b5&#45;&gt;dir_4874e0b3711b51270fc6d42bf71a0243 -->
<g id="edge11" class="edge">
<title>dir_bba76fc6c7eaddf54c8f153e37bfe1b5&#45;&gt;dir_4874e0b3711b51270fc6d42bf71a0243</title>
<g id="a_edge11"><a xlink:href="dir_000579_000510.html" target="_top">
<path fill="none" stroke="#63b8ff" d="M1430.83,-56.72C1431.48,-49.78 1432.42,-39.82 1433.24,-31.11"/>
<polygon fill="#63b8ff" stroke="#63b8ff" points="1436.73,-31.35 1434.19,-21.07 1429.77,-30.69 1436.73,-31.35"/>
</a>
</g>
<g id="a_edge11&#45;headlabel"><a xlink:href="dir_000579_000510.html" target="_top" xlink:title="3">
<text text-anchor="middle" x="1439.22" y="-32.69" font-family="Inter" font-size="10.00" fill="#63b8ff">3</text>
</a>
</g>
</g>
<!-- dir_b89645dd95bc4723ed3840cfb4cf78f0 -->
<g id="node13" class="node">
<title>dir_b89645dd95bc4723ed3840cfb4cf78f0</title>
<g id="a_node13"><a xlink:href="dir_b89645dd95bc4723ed3840cfb4cf78f0.html" target="_top" xlink:title="multiload">
<polygon fill="#a2b4d6" stroke="#404040" points="949.5,-75.98 890.5,-75.98 890.5,-56.98 949.5,-56.98 949.5,-75.98"/>
<text text-anchor="middle" x="920" y="-63.98" font-family="Inter" font-size="10.00">multiload</text>
</a>
</g>
</g>
<!-- dir_b89645dd95bc4723ed3840cfb4cf78f0&#45;&gt;dir_1a7ceb8b43f37d3610d8c76ebbb89cca -->
<g id="edge12" class="edge">
<title>dir_b89645dd95bc4723ed3840cfb4cf78f0&#45;&gt;dir_1a7ceb8b43f37d3610d8c76ebbb89cca</title>
<g id="a_edge12"><a xlink:href="dir_000627_000549.html" target="_top">
<path fill="none" stroke="#63b8ff" d="M905.22,-56.96C890.82,-48.67 868.69,-35.92 851.81,-26.19"/>
<polygon fill="#63b8ff" stroke="#63b8ff" points="853.46,-23.11 843.05,-21.15 849.97,-29.17 853.46,-23.11"/>
</a>
</g>
<g id="a_edge12&#45;headlabel"><a xlink:href="dir_000627_000549.html" target="_top" xlink:title="7">
<text text-anchor="middle" x="857.99" y="-19.94" font-family="Inter" font-size="10.00" fill="#63b8ff">7</text>
</a>
</g>
</g>
<!-- dir_51b6b8da1c14cdbd0bbf77556c3849b1 -->
<g id="node14" class="node">
<title>dir_51b6b8da1c14cdbd0bbf77556c3849b1</title>
<g id="a_node14"><a xlink:href="dir_51b6b8da1c14cdbd0bbf77556c3849b1.html" target="_top" xlink:title="netspeed">
<polygon fill="#a2b4d6" stroke="#404040" points="765.5,-75.98 704.5,-75.98 704.5,-56.98 765.5,-56.98 765.5,-75.98"/>
<text text-anchor="middle" x="735" y="-63.98" font-family="Inter" font-size="10.00">netspeed</text>
</a>
</g>
</g>
<!-- dir_51b6b8da1c14cdbd0bbf77556c3849b1&#45;&gt;dir_1a7ceb8b43f37d3610d8c76ebbb89cca -->
<g id="edge13" class="edge">
<title>dir_51b6b8da1c14cdbd0bbf77556c3849b1&#45;&gt;dir_1a7ceb8b43f37d3610d8c76ebbb89cca</title>
<g id="a_edge13"><a xlink:href="dir_000631_000549.html" target="_top">
<path fill="none" stroke="#63b8ff" d="M749.94,-56.96C764.5,-48.67 786.87,-35.92 803.93,-26.19"/>
<polygon fill="#63b8ff" stroke="#63b8ff" points="805.83,-29.14 812.79,-21.15 802.36,-23.06 805.83,-29.14"/>
</a>
</g>
<g id="a_edge13&#45;headlabel"><a xlink:href="dir_000631_000549.html" target="_top" xlink:title="3">
<text text-anchor="middle" x="804.11" y="-30.89" font-family="Inter" font-size="10.00" fill="#63b8ff">3</text>
</a>
</g>
</g>
<!-- dir_120f21665b70095dec7f33e4ce60f295 -->
<g id="node15" class="node">
<title>dir_120f21665b70095dec7f33e4ce60f295</title>
<g id="a_node15"><a xlink:href="dir_120f21665b70095dec7f33e4ce60f295.html" target="_top" xlink:title="po">
<polygon fill="#a2b4d6" stroke="#404040" points="373.5,-75.98 344.5,-75.98 344.5,-56.98 373.5,-56.98 373.5,-75.98"/>
<text text-anchor="middle" x="359" y="-63.98" font-family="Inter" font-size="10.00">po</text>
</a>
</g>
</g>
<!-- dir_c4b5759c733fff7237c453a37f85a7ed -->
<g id="node16" class="node">
<title>dir_c4b5759c733fff7237c453a37f85a7ed</title>
<g id="a_node16"><a xlink:href="dir_c4b5759c733fff7237c453a37f85a7ed.html" target="_top" xlink:title="sensors&#45;applet">
<polygon fill="#a2b4d6" stroke="#404040" points="326.5,-75.98 241.5,-75.98 241.5,-56.98 326.5,-56.98 326.5,-75.98"/>
<text text-anchor="middle" x="284" y="-63.98" font-family="Inter" font-size="10.00">sensors&#45;applet</text>
</a>
</g>
</g>
<!-- dir_5383d482d4d3a20b77610756692945e6 -->
<g id="node17" class="node">
<title>dir_5383d482d4d3a20b77610756692945e6</title>
<g id="a_node17"><a xlink:href="dir_5383d482d4d3a20b77610756692945e6.html" target="_top" xlink:title="stickynotes">
<polygon fill="#a2b4d6" stroke="#404040" points="631,-75.98 563,-75.98 563,-56.98 631,-56.98 631,-75.98"/>
<text text-anchor="middle" x="597" y="-63.98" font-family="Inter" font-size="10.00">stickynotes</text>
</a>
</g>
</g>
<!-- dir_5383d482d4d3a20b77610756692945e6&#45;&gt;dir_1a7ceb8b43f37d3610d8c76ebbb89cca -->
<g id="edge14" class="edge">
<title>dir_5383d482d4d3a20b77610756692945e6&#45;&gt;dir_1a7ceb8b43f37d3610d8c76ebbb89cca</title>
<g id="a_edge14"><a xlink:href="dir_000901_000549.html" target="_top">
<path fill="none" stroke="#63b8ff" d="M617.8,-56.87C625.06,-54.08 633.31,-51.15 641,-48.98 688.86,-35.43 745.01,-25.21 783.2,-19.07"/>
<polygon fill="#63b8ff" stroke="#63b8ff" points="784.14,-22.47 793.48,-17.45 783.05,-15.55 784.14,-22.47"/>
</a>
</g>
<g id="a_edge14&#45;headlabel"><a xlink:href="dir_000901_000549.html" target="_top" xlink:title="1">
<text text-anchor="middle" x="781.03" y="-23.33" font-family="Inter" font-size="10.00" fill="#63b8ff">1</text>
</a>
</g>
</g>
<!-- dir_c74bf617a0f02ffef240043b8013f823 -->
<g id="node18" class="node">
<title>dir_c74bf617a0f02ffef240043b8013f823</title>
<g id="a_node18"><a xlink:href="dir_c74bf617a0f02ffef240043b8013f823.html" target="_top" xlink:title="timerapplet">
<polygon fill="#a2b4d6" stroke="#404040" points="1283.5,-75.98 1212.5,-75.98 1212.5,-56.98 1283.5,-56.98 1283.5,-75.98"/>
<text text-anchor="middle" x="1248" y="-63.98" font-family="Inter" font-size="10.00">timerapplet</text>
</a>
</g>
</g>
<!-- dir_c74bf617a0f02ffef240043b8013f823&#45;&gt;dir_1a7ceb8b43f37d3610d8c76ebbb89cca -->
<g id="edge15" class="edge">
<title>dir_c74bf617a0f02ffef240043b8013f823&#45;&gt;dir_1a7ceb8b43f37d3610d8c76ebbb89cca</title>
<g id="a_edge15"><a xlink:href="dir_000930_000549.html" target="_top">
<path fill="none" stroke="#63b8ff" d="M1228.17,-56.97C1220.45,-53.98 1211.44,-50.9 1203,-48.98 1085.93,-22.27 943.92,-15.1 872.95,-13.18"/>
<polygon fill="#63b8ff" stroke="#63b8ff" points="872.68,-9.67 862.59,-12.92 872.5,-16.67 872.68,-9.67"/>
</a>
</g>
<g id="a_edge15&#45;headlabel"><a xlink:href="dir_000930_000549.html" target="_top" xlink:title="2">
<text text-anchor="middle" x="876.34" y="-4.42" font-family="Inter" font-size="10.00" fill="#63b8ff">2</text>
</a>
</g>
</g>
<!-- dir_8c357f8e5edd34bbf3ad7c633b5a656f -->
<g id="node19" class="node">
<title>dir_8c357f8e5edd34bbf3ad7c633b5a656f</title>
<g id="a_node19"><a xlink:href="dir_8c357f8e5edd34bbf3ad7c633b5a656f.html" target="_top" xlink:title="trashapplet">
<polygon fill="#a2b4d6" stroke="#404040" points="1036.5,-75.98 967.5,-75.98 967.5,-56.98 1036.5,-56.98 1036.5,-75.98"/>
<text text-anchor="middle" x="1002" y="-63.98" font-family="Inter" font-size="10.00">trashapplet</text>
</a>
</g>
</g>
<!-- dir_8c357f8e5edd34bbf3ad7c633b5a656f&#45;&gt;dir_1a7ceb8b43f37d3610d8c76ebbb89cca -->
<g id="edge16" class="edge">
<title>dir_8c357f8e5edd34bbf3ad7c633b5a656f&#45;&gt;dir_1a7ceb8b43f37d3610d8c76ebbb89cca</title>
<g id="a_edge16"><a xlink:href="dir_000943_000549.html" target="_top">
<path fill="none" stroke="#63b8ff" d="M980.71,-56.85C973.83,-54.18 966.14,-51.33 959,-48.98 930.2,-39.46 897.33,-30.31 871.71,-23.55"/>
<polygon fill="#63b8ff" stroke="#63b8ff" points="872.48,-20.13 861.92,-20.98 870.71,-26.9 872.48,-20.13"/>
</a>
</g>
<g id="a_edge16&#45;headlabel"><a xlink:href="dir_000943_000549.html" target="_top" xlink:title="1">
<text text-anchor="middle" x="876.68" y="-15.79" font-family="Inter" font-size="10.00" fill="#63b8ff">1</text>
</a>
</g>
</g>
</g>
</svg>

<g id="navigator" transform="translate(0 0)" fill="#404254">
  <rect fill="#f2f5e9" fill-opacity="0.5" stroke="#606060" stroke-width=".5" x="0" y="0" width="60" height="60"/>
  <use id="zoomplus" xlink:href="#zoomPlus" x="17" y="9" onmousedown="handleZoom(evt,'in')"/>
  <use id="zoomminus" xlink:href="#zoomMin" x="42" y="9" onmousedown="handleZoom(evt,'out')"/>
  <use id="reset" xlink:href="#resetDef" x="30" y="36" onmousedown="handleReset()"/>
   <use id="arrowup" xlink:href="#arrowUp" x="0" y="0" onmousedown="handlePan(0,-1)"/>
  <use id="arrowright" xlink:href="#arrowRight" x="0" y="0" onmousedown="handlePan(1,0)"/>
  <use id="arrowdown" xlink:href="#arrowDown" x="0" y="0" onmousedown="handlePan(0,1)"/>
  <use id="arrowleft" xlink:href="#arrowLeft" x="0" y="0" onmousedown="handlePan(-1,0)"/>
</g>
<svg viewBox="0 0 15 15" width="100%" height="30px" preserveAspectRatio="xMaxYMin meet">
 <g id="arrow_out" transform="scale(0.3 0.3)">
  <a xlink:href="dir_a1f53c9b9fbb67244a6e70d291fdba87_dep_org.svg" target="_base">
   <rect id="button" ry="5" rx="5" y="6" x="6" height="38" width="38"
        fill="#f2f5e9" fill-opacity="0.5" stroke="#606060" stroke-width="1.0"/>
   <path id="arrow"
     d="M 11.500037,31.436501 C 11.940474,20.09759 22.043105,11.32322 32.158766,21.979434 L 37.068811,17.246167 C 37.068811,17.246167 37.088388,32 37.088388,32 L 22.160133,31.978069 C 22.160133,31.978069 26.997745,27.140456 26.997745,27.140456 C 18.528582,18.264221 13.291696,25.230495 11.500037,31.436501 z"
     style="fill:#404040;"/>
  </a>
 </g>
</svg>

<style type='text/css'>
<![CDATA[
[data-mouse-over-selected='false'] { opacity: 0.7; }
[data-mouse-over-selected='true']  { opacity: 1.0; }
]]>
</style>
<script type="application/ecmascript"><![CDATA[
document.addEventListener('DOMContentLoaded', (event) => {
  highlightEdges();
  highlightAdjacentNodes();
});
]]></script>
</svg>
