<?xml version="1.0" encoding="UTF-8" standalone="no"?>
<!DOCTYPE svg PUBLIC "-//W3C//DTD SVG 1.1//EN"
 "http://www.w3.org/Graphics/SVG/1.1/DTD/svg11.dtd">
<!-- Generated by graphviz version 2.43.0 (0)
 -->
<!-- Title: icons Pages: 1 -->
<!--zoomable 94 -->

<svg id="main" version="1.1" xmlns="http://www.w3.org/2000/svg" xmlns:xlink="http://www.w3.org/1999/xlink" xml:space="preserve" onload="init(evt)">

<style type="text/css"><![CDATA[
.node, .edge {opacity: 0.7;}
.node.selected, .edge.selected {opacity: 1;}
.edge:hover path { stroke: red; }
.edge:hover polygon { stroke: red; fill: red; }
]]></style>

<defs>
  <circle id="rim" cx="0" cy="0" r="7"/>
  <circle id="rim2" cx="0" cy="0" r="3.5"/>
  <g id="zoomPlus">
    <use xlink:href="#rim" fill="#404040"><set attributeName="fill" to="#808080" begin="zoomplus.mouseover" end="zoomplus.mouseout"/></use>
    <path d="M-4,0h8M0,-4v8" fill="none" stroke="white" stroke-width="1.5" pointer-events="none"/>
  </g>
  <g id="zoomMin">
    <use xlink:href="#rim" fill="#404040"><set attributeName="fill" to="#808080" begin="zoomminus.mouseover" end="zoomminus.mouseout"/></use>
    <path d="M-4,0h8" fill="none" stroke="white" stroke-width="1.5" pointer-events="none"/>
  </g>
  <g id="arrowUp" transform="translate(30 24)">
    <use xlink:href="#rim"/>
    <path pointer-events="none" fill="none" stroke="white" stroke-width="1.5" d="M0,-3.0v7 M-2.5,-0.5L0,-3.0L2.5,-0.5"/>
  </g>
  <g id="arrowRight" transform="rotate(90) translate(36 -43)">
    <use xlink:href="#rim"/>
    <path pointer-events="none" fill="none" stroke="white" stroke-width="1.5" d="M0,-3.0v7 M-2.5,-0.5L0,-3.0L2.5,-0.5"/>
  </g>
  <g id="arrowDown" transform="rotate(180) translate(-30 -48)">
    <use xlink:href="#rim"/>
    <path pointer-events="none" fill="none" stroke="white" stroke-width="1.5" d="M0,-3.0v7 M-2.5,-0.5L0,-3.0L2.5,-0.5"/>
  </g>
  <g id="arrowLeft" transform="rotate(270) translate(-36 17)">
    <use xlink:href="#rim"/>
    <path pointer-events="none" fill="none" stroke="white" stroke-width="1.5" d="M0,-3.0v7 M-2.5,-0.5L0,-3.0L2.5,-0.5"/>
  </g>
  <g id="resetDef">
    <use xlink:href="#rim2" fill="#404040"><set attributeName="fill" to="#808080" begin="reset.mouseover" end="reset.mouseout"/></use>
  </g>
</defs>
<script type="application/ecmascript">
var viewWidth = 692;
var viewHeight = 94;
var sectionId = 'dynsection-0';
</script>
<script type="application/ecmascript" xlink:href="svg.min.js"/>
<svg id="graph" class="graph">
<g id="viewport">
<title>icons</title>
<g id="clust1" class="cluster">
<title>clusterdir_1a7ceb8b43f37d3610d8c76ebbb89cca</title>
<g id="a_clust1"><a xlink:href="dir_1a7ceb8b43f37d3610d8c76ebbb89cca.html" target="_top" xlink:title="mate&#45;panel">
<polygon fill="#edf0f7" stroke="#404040" stroke-dasharray="5,2" points="8,-8 8,-78 676,-78 676,-8 8,-8"/>
<text text-anchor="middle" x="342" y="-66" font-family="Inter" font-size="10.00">mate&#45;panel</text>
</a>
</g>
</g>
<g id="clust2" class="cluster">
<title>clusterdir_a09c67268aaa710eb0887e0cd89b6526</title>
<g id="a_clust2"><a xlink:href="dir_a09c67268aaa710eb0887e0cd89b6526.html" target="_top">
<polygon fill="#edf0f7" stroke="#404040" stroke-width="2" points="16,-16 16,-51 668,-51 668,-16 16,-16"/>
</a>
</g>
</g>
<!-- dir_a09c67268aaa710eb0887e0cd89b6526 -->
<g id="node1" class="node">
<title>dir_a09c67268aaa710eb0887e0cd89b6526</title>
<text text-anchor="middle" x="640" y="-31" font-family="Inter" font-size="10.00">icons</text>
</g>
<!-- dir_db1926b89e5473e3efe4216701286203 -->
<g id="node2" class="node">
<title>dir_db1926b89e5473e3efe4216701286203</title>
<g id="a_node2"><a xlink:href="dir_db1926b89e5473e3efe4216701286203.html" target="_top" xlink:title="16x16">
<polygon fill="#a2b4d6" stroke="#404040" points="602,-43 556,-43 556,-24 602,-24 602,-43"/>
<text text-anchor="middle" x="579" y="-31" font-family="Inter" font-size="10.00">16x16</text>
</a>
</g>
</g>
<!-- dir_e7ef9e311c5b65eeae03302598c3fb29 -->
<g id="node3" class="node">
<title>dir_e7ef9e311c5b65eeae03302598c3fb29</title>
<g id="a_node3"><a xlink:href="dir_e7ef9e311c5b65eeae03302598c3fb29.html" target="_top" xlink:title="22x22">
<polygon fill="#a2b4d6" stroke="#404040" points="538,-43 492,-43 492,-24 538,-24 538,-43"/>
<text text-anchor="middle" x="515" y="-31" font-family="Inter" font-size="10.00">22x22</text>
</a>
</g>
</g>
<!-- dir_c90360b5dbb14a41524a98021b05a6df -->
<g id="node4" class="node">
<title>dir_c90360b5dbb14a41524a98021b05a6df</title>
<g id="a_node4"><a xlink:href="dir_c90360b5dbb14a41524a98021b05a6df.html" target="_top" xlink:title="24x24">
<polygon fill="#a2b4d6" stroke="#404040" points="474,-43 428,-43 428,-24 474,-24 474,-43"/>
<text text-anchor="middle" x="451" y="-31" font-family="Inter" font-size="10.00">24x24</text>
</a>
</g>
</g>
<!-- dir_3a4c4eaeb8ef16d803878c6d4d15d766 -->
<g id="node5" class="node">
<title>dir_3a4c4eaeb8ef16d803878c6d4d15d766</title>
<g id="a_node5"><a xlink:href="dir_3a4c4eaeb8ef16d803878c6d4d15d766.html" target="_top" xlink:title="256x256">
<polygon fill="#a2b4d6" stroke="#404040" points="410,-43 352,-43 352,-24 410,-24 410,-43"/>
<text text-anchor="middle" x="381" y="-31" font-family="Inter" font-size="10.00">256x256</text>
</a>
</g>
</g>
<!-- dir_8bdc52a668cd5712487cb433eea3c540 -->
<g id="node6" class="node">
<title>dir_8bdc52a668cd5712487cb433eea3c540</title>
<g id="a_node6"><a xlink:href="dir_8bdc52a668cd5712487cb433eea3c540.html" target="_top" xlink:title="32x32">
<polygon fill="#a2b4d6" stroke="#404040" points="334,-43 288,-43 288,-24 334,-24 334,-43"/>
<text text-anchor="middle" x="311" y="-31" font-family="Inter" font-size="10.00">32x32</text>
</a>
</g>
</g>
<!-- dir_b690fb267c89e003ae1d54c6f85bbb22 -->
<g id="node7" class="node">
<title>dir_b690fb267c89e003ae1d54c6f85bbb22</title>
<g id="a_node7"><a xlink:href="dir_b690fb267c89e003ae1d54c6f85bbb22.html" target="_top" xlink:title="48x48">
<polygon fill="#a2b4d6" stroke="#404040" points="270,-43 224,-43 224,-24 270,-24 270,-43"/>
<text text-anchor="middle" x="247" y="-31" font-family="Inter" font-size="10.00">48x48</text>
</a>
</g>
</g>
<!-- dir_3418afe1156d1288a825e748122cc6d1 -->
<g id="node8" class="node">
<title>dir_3418afe1156d1288a825e748122cc6d1</title>
<g id="a_node8"><a xlink:href="dir_3418afe1156d1288a825e748122cc6d1.html" target="_top" xlink:title="64x64">
<polygon fill="#a2b4d6" stroke="#404040" points="206,-43 160,-43 160,-24 206,-24 206,-43"/>
<text text-anchor="middle" x="183" y="-31" font-family="Inter" font-size="10.00">64x64</text>
</a>
</g>
</g>
<!-- dir_4b361c3d6cb7adb82f42375d40ae782c -->
<g id="node9" class="node">
<title>dir_4b361c3d6cb7adb82f42375d40ae782c</title>
<g id="a_node9"><a xlink:href="dir_4b361c3d6cb7adb82f42375d40ae782c.html" target="_top" xlink:title="96x96">
<polygon fill="#a2b4d6" stroke="#404040" points="142,-43 96,-43 96,-24 142,-24 142,-43"/>
<text text-anchor="middle" x="119" y="-31" font-family="Inter" font-size="10.00">96x96</text>
</a>
</g>
</g>
<!-- dir_e9119013296a06b3d98cfb0a2874ec17 -->
<g id="node10" class="node">
<title>dir_e9119013296a06b3d98cfb0a2874ec17</title>
<g id="a_node10"><a xlink:href="dir_e9119013296a06b3d98cfb0a2874ec17.html" target="_top" xlink:title="scalable">
<polygon fill="#a2b4d6" stroke="#404040" points="77.5,-43 24.5,-43 24.5,-24 77.5,-24 77.5,-43"/>
<text text-anchor="middle" x="51" y="-31" font-family="Inter" font-size="10.00">scalable</text>
</a>
</g>
</g>
</g>
</svg>

<g id="navigator" transform="translate(0 0)" fill="#404254">
  <rect fill="#f2f5e9" fill-opacity="0.5" stroke="#606060" stroke-width=".5" x="0" y="0" width="60" height="60"/>
  <use id="zoomplus" xlink:href="#zoomPlus" x="17" y="9" onmousedown="handleZoom(evt,'in')"/>
  <use id="zoomminus" xlink:href="#zoomMin" x="42" y="9" onmousedown="handleZoom(evt,'out')"/>
  <use id="reset" xlink:href="#resetDef" x="30" y="36" onmousedown="handleReset()"/>
   <use id="arrowup" xlink:href="#arrowUp" x="0" y="0" onmousedown="handlePan(0,-1)"/>
  <use id="arrowright" xlink:href="#arrowRight" x="0" y="0" onmousedown="handlePan(1,0)"/>
  <use id="arrowdown" xlink:href="#arrowDown" x="0" y="0" onmousedown="handlePan(0,1)"/>
  <use id="arrowleft" xlink:href="#arrowLeft" x="0" y="0" onmousedown="handlePan(-1,0)"/>
</g>
<svg viewBox="0 0 15 15" width="100%" height="30px" preserveAspectRatio="xMaxYMin meet">
 <g id="arrow_out" transform="scale(0.3 0.3)">
  <a xlink:href="dir_a09c67268aaa710eb0887e0cd89b6526_dep_org.svg" target="_base">
   <rect id="button" ry="5" rx="5" y="6" x="6" height="38" width="38"
        fill="#f2f5e9" fill-opacity="0.5" stroke="#606060" stroke-width="1.0"/>
   <path id="arrow"
     d="M 11.500037,31.436501 C 11.940474,20.09759 22.043105,11.32322 32.158766,21.979434 L 37.068811,17.246167 C 37.068811,17.246167 37.088388,32 37.088388,32 L 22.160133,31.978069 C 22.160133,31.978069 26.997745,27.140456 26.997745,27.140456 C 18.528582,18.264221 13.291696,25.230495 11.500037,31.436501 z"
     style="fill:#404040;"/>
  </a>
 </g>
</svg>

<style type='text/css'>
<![CDATA[
[data-mouse-over-selected='false'] { opacity: 0.7; }
[data-mouse-over-selected='true']  { opacity: 1.0; }
]]>
</style>
<script type="application/ecmascript"><![CDATA[
document.addEventListener('DOMContentLoaded', (event) => {
  highlightEdges();
  highlightAdjacentNodes();
});
]]></script>
</svg>
