<?xml version="1.0" encoding="UTF-8" standalone="no"?>
<!DOCTYPE svg PUBLIC "-//W3C//DTD SVG 1.1//EN"
 "http://www.w3.org/Graphics/SVG/1.1/DTD/svg11.dtd">
<!-- Generated by graphviz version 2.43.0 (0)
 -->
<!-- Title: disks.h Pages: 1 -->
<!--zoomable 192 -->

<svg id="main" version="1.1" xmlns="http://www.w3.org/2000/svg" xmlns:xlink="http://www.w3.org/1999/xlink" xml:space="preserve" onload="init(evt)">

<style type="text/css"><![CDATA[
.node, .edge {opacity: 0.7;}
.node.selected, .edge.selected {opacity: 1;}
.edge:hover path { stroke: red; }
.edge:hover polygon { stroke: red; fill: red; }
]]></style>

<defs>
  <circle id="rim" cx="0" cy="0" r="7"/>
  <circle id="rim2" cx="0" cy="0" r="3.5"/>
  <g id="zoomPlus">
    <use xlink:href="#rim" fill="#404040"><set attributeName="fill" to="#808080" begin="zoomplus.mouseover" end="zoomplus.mouseout"/></use>
    <path d="M-4,0h8M0,-4v8" fill="none" stroke="white" stroke-width="1.5" pointer-events="none"/>
  </g>
  <g id="zoomMin">
    <use xlink:href="#rim" fill="#404040"><set attributeName="fill" to="#808080" begin="zoomminus.mouseover" end="zoomminus.mouseout"/></use>
    <path d="M-4,0h8" fill="none" stroke="white" stroke-width="1.5" pointer-events="none"/>
  </g>
  <g id="arrowUp" transform="translate(30 24)">
    <use xlink:href="#rim"/>
    <path pointer-events="none" fill="none" stroke="white" stroke-width="1.5" d="M0,-3.0v7 M-2.5,-0.5L0,-3.0L2.5,-0.5"/>
  </g>
  <g id="arrowRight" transform="rotate(90) translate(36 -43)">
    <use xlink:href="#rim"/>
    <path pointer-events="none" fill="none" stroke="white" stroke-width="1.5" d="M0,-3.0v7 M-2.5,-0.5L0,-3.0L2.5,-0.5"/>
  </g>
  <g id="arrowDown" transform="rotate(180) translate(-30 -48)">
    <use xlink:href="#rim"/>
    <path pointer-events="none" fill="none" stroke="white" stroke-width="1.5" d="M0,-3.0v7 M-2.5,-0.5L0,-3.0L2.5,-0.5"/>
  </g>
  <g id="arrowLeft" transform="rotate(270) translate(-36 17)">
    <use xlink:href="#rim"/>
    <path pointer-events="none" fill="none" stroke="white" stroke-width="1.5" d="M0,-3.0v7 M-2.5,-0.5L0,-3.0L2.5,-0.5"/>
  </g>
  <g id="resetDef">
    <use xlink:href="#rim2" fill="#404040"><set attributeName="fill" to="#808080" begin="reset.mouseover" end="reset.mouseout"/></use>
  </g>
</defs>
<script type="application/ecmascript">
var viewWidth = 968;
var viewHeight = 192;
var sectionId = 'dynsection-0';
</script>
<script type="application/ecmascript" xlink:href="svg.min.js"/>
<svg id="graph" class="graph">
<g id="viewport">
<title>disks.h</title>
<!-- Node1 -->
<g id="Node000001" class="node">
<title>Node1</title>
<g id="a_Node000001"><a xlink:title=" ">
<polygon fill="#999999" stroke="#666666" points="506.5,-184 458.5,-184 458.5,-165 506.5,-165 506.5,-184"/>
<text text-anchor="middle" x="482.5" y="-172" font-family="Inter" font-size="10.00">disks.h</text>
</a>
</g>
</g>
<!-- Node2 -->
<g id="Node000002" class="node">
<title>Node2</title>
<g id="a_Node000002"><a xlink:href="procman_8h.html" target="_top" xlink:title=" ">
<polygon fill="white" stroke="#666666" points="515.5,-129 449.5,-129 449.5,-110 515.5,-110 515.5,-129"/>
<text text-anchor="middle" x="482.5" y="-117" font-family="Inter" font-size="10.00">procman.h</text>
</a>
</g>
</g>
<!-- Node1&#45;&gt;Node2 -->
<g id="edge1_Node000001_Node000002" class="edge">
<title>Node1&#45;&gt;Node2</title>
<g id="a_edge1_Node000001_Node000002"><a xlink:title=" ">
<path fill="none" stroke="#63b8ff" d="M482.5,-164.75C482.5,-157.8 482.5,-147.85 482.5,-139.13"/>
<polygon fill="#63b8ff" stroke="#63b8ff" points="486,-139.09 482.5,-129.09 479,-139.09 486,-139.09"/>
</a>
</g>
</g>
<!-- Node3 -->
<g id="Node000003" class="node">
<title>Node3</title>
<g id="a_Node000003"><a xlink:title=" ">
<polygon fill="#e0e0e0" stroke="#999999" points="89,-19 0,-19 0,0 89,0 89,-19"/>
<text text-anchor="middle" x="44.5" y="-7" font-family="Inter" font-size="10.00">glibmm/refptr.h</text>
</a>
</g>
</g>
<!-- Node2&#45;&gt;Node3 -->
<g id="edge2_Node000002_Node000003" class="edge">
<title>Node2&#45;&gt;Node3</title>
<g id="a_edge2_Node000002_Node000003"><a xlink:title=" ">
<path fill="none" stroke="#63b8ff" d="M449.1,-116.59C393.14,-112.72 277.34,-101.81 183.5,-74 141.36,-61.51 95.55,-38.6 68.47,-23.98"/>
<polygon fill="#63b8ff" stroke="#63b8ff" points="69.83,-20.73 59.38,-19 66.47,-26.87 69.83,-20.73"/>
</a>
</g>
</g>
<!-- Node4 -->
<g id="Node000004" class="node">
<title>Node4</title>
<g id="a_Node000004"><a xlink:title=" ">
<polygon fill="#e0e0e0" stroke="#999999" points="634,-74 549,-74 549,-55 634,-55 634,-74"/>
<text text-anchor="middle" x="591.5" y="-62" font-family="Inter" font-size="10.00">cairo&#45;gobject.h</text>
</a>
</g>
</g>
<!-- Node2&#45;&gt;Node4 -->
<g id="edge3_Node000002_Node000004" class="edge">
<title>Node2&#45;&gt;Node4</title>
<g id="a_edge3_Node000002_Node000004"><a xlink:title=" ">
<path fill="none" stroke="#63b8ff" d="M500.01,-109.98C517.47,-101.5 544.51,-88.35 564.67,-78.54"/>
<polygon fill="#63b8ff" stroke="#63b8ff" points="566.21,-81.69 573.67,-74.17 563.14,-75.4 566.21,-81.69"/>
</a>
</g>
</g>
<!-- Node5 -->
<g id="Node000005" class="node">
<title>Node5</title>
<g id="a_Node000005"><a xlink:title=" ">
<polygon fill="#e0e0e0" stroke="#999999" points="235.5,-19 107.5,-19 107.5,0 235.5,0 235.5,-19"/>
<text text-anchor="middle" x="171.5" y="-7" font-family="Inter" font-size="10.00">gdk&#45;pixbuf/gdk&#45;pixbuf.h</text>
</a>
</g>
</g>
<!-- Node2&#45;&gt;Node5 -->
<g id="edge4_Node000002_Node000005" class="edge">
<title>Node2&#45;&gt;Node5</title>
<g id="a_edge4_Node000002_Node000005"><a xlink:title=" ">
<path fill="none" stroke="#63b8ff" d="M449.35,-116.94C384.14,-113.29 242.16,-102.25 203.5,-74 188.73,-63.2 180.33,-43.62 175.88,-29.05"/>
<polygon fill="#63b8ff" stroke="#63b8ff" points="179.19,-27.86 173.21,-19.11 172.43,-29.67 179.19,-27.86"/>
</a>
</g>
</g>
<!-- Node6 -->
<g id="Node000006" class="node">
<title>Node6</title>
<g id="a_Node000006"><a xlink:title=" ">
<polygon fill="#e0e0e0" stroke="#999999" points="295.5,-19 253.5,-19 253.5,0 295.5,0 295.5,-19"/>
<text text-anchor="middle" x="274.5" y="-7" font-family="Inter" font-size="10.00">glib.h</text>
</a>
</g>
</g>
<!-- Node2&#45;&gt;Node6 -->
<g id="edge5_Node000002_Node000006" class="edge">
<title>Node2&#45;&gt;Node6</title>
<g id="a_edge5_Node000002_Node000006"><a xlink:title=" ">
<path fill="none" stroke="#63b8ff" d="M449.3,-118.17C383.8,-116.74 241.67,-109.53 211.5,-74 195.88,-55.61 222.43,-36.15 245.71,-23.7"/>
<polygon fill="#63b8ff" stroke="#63b8ff" points="247.38,-26.78 254.71,-19.12 244.2,-20.54 247.38,-26.78"/>
</a>
</g>
</g>
<!-- Node7 -->
<g id="Node000007" class="node">
<title>Node7</title>
<g id="a_Node000007"><a xlink:title=" ">
<polygon fill="#e0e0e0" stroke="#999999" points="540.5,-19 482.5,-19 482.5,0 540.5,0 540.5,-19"/>
<text text-anchor="middle" x="511.5" y="-7" font-family="Inter" font-size="10.00">gio/gio.h</text>
</a>
</g>
</g>
<!-- Node2&#45;&gt;Node7 -->
<g id="edge6_Node000002_Node000007" class="edge">
<title>Node2&#45;&gt;Node7</title>
<g id="a_edge6_Node000002_Node000007"><a xlink:title=" ">
<path fill="none" stroke="#63b8ff" d="M485.48,-109.69C488.45,-100.75 493.06,-86.49 496.5,-74 500.64,-58.96 504.66,-41.73 507.5,-29.02"/>
<polygon fill="#63b8ff" stroke="#63b8ff" points="510.93,-29.7 509.66,-19.18 504.1,-28.19 510.93,-29.7"/>
</a>
</g>
</g>
<!-- Node8 -->
<g id="Node000008" class="node">
<title>Node8</title>
<g id="a_Node000008"><a xlink:title=" ">
<polygon fill="#e0e0e0" stroke="#999999" points="711,-74 652,-74 652,-55 711,-55 711,-74"/>
<text text-anchor="middle" x="681.5" y="-62" font-family="Inter" font-size="10.00">gtk/gtk.h</text>
</a>
</g>
</g>
<!-- Node2&#45;&gt;Node8 -->
<g id="edge7_Node000002_Node000008" class="edge">
<title>Node2&#45;&gt;Node8</title>
<g id="a_edge7_Node000002_Node000008"><a xlink:title=" ">
<path fill="none" stroke="#63b8ff" d="M514.47,-109.98C549.12,-100.76 604.45,-86.02 641.84,-76.06"/>
<polygon fill="#63b8ff" stroke="#63b8ff" points="643.12,-79.34 651.88,-73.39 641.32,-72.58 643.12,-79.34"/>
</a>
</g>
</g>
<!-- Node9 -->
<g id="Node000009" class="node">
<title>Node9</title>
<g id="a_Node000009"><a xlink:title=" ">
<polygon fill="#e0e0e0" stroke="#999999" points="807.5,-74 729.5,-74 729.5,-55 807.5,-55 807.5,-74"/>
<text text-anchor="middle" x="768.5" y="-62" font-family="Inter" font-size="10.00">glibtop/cpu.h</text>
</a>
</g>
</g>
<!-- Node2&#45;&gt;Node9 -->
<g id="edge8_Node000002_Node000009" class="edge">
<title>Node2&#45;&gt;Node9</title>
<g id="a_edge8_Node000002_Node000009"><a xlink:title=" ">
<path fill="none" stroke="#63b8ff" d="M515.59,-112.37C565.66,-103.09 661.02,-85.42 719.26,-74.62"/>
<polygon fill="#63b8ff" stroke="#63b8ff" points="720.14,-78.02 729.33,-72.76 718.86,-71.14 720.14,-78.02"/>
</a>
</g>
</g>
<!-- Node10 -->
<g id="Node000010" class="node">
<title>Node10</title>
<g id="a_Node000010"><a xlink:title=" ">
<polygon fill="#e0e0e0" stroke="#999999" points="873,-74 826,-74 826,-55 873,-55 873,-74"/>
<text text-anchor="middle" x="849.5" y="-62" font-family="Inter" font-size="10.00">time.h</text>
</a>
</g>
</g>
<!-- Node2&#45;&gt;Node10 -->
<g id="edge9_Node000002_Node000010" class="edge">
<title>Node2&#45;&gt;Node10</title>
<g id="a_edge9_Node000002_Node000010"><a xlink:title=" ">
<path fill="none" stroke="#63b8ff" d="M515.9,-115.39C574.55,-109.63 700.03,-96.04 815.7,-73.93"/>
<polygon fill="#63b8ff" stroke="#63b8ff" points="816.63,-77.31 825.78,-71.97 815.3,-70.44 816.63,-77.31"/>
</a>
</g>
</g>
<!-- Node11 -->
<g id="Node000011" class="node">
<title>Node11</title>
<g id="a_Node000011"><a xlink:title=" ">
<polygon fill="#e0e0e0" stroke="#999999" points="960,-74 891,-74 891,-55 960,-55 960,-74"/>
<text text-anchor="middle" x="925.5" y="-62" font-family="Inter" font-size="10.00">sys/types.h</text>
</a>
</g>
</g>
<!-- Node2&#45;&gt;Node11 -->
<g id="edge10_Node000002_Node000011" class="edge">
<title>Node2&#45;&gt;Node11</title>
<g id="a_edge10_Node000002_Node000011"><a xlink:title=" ">
<path fill="none" stroke="#63b8ff" d="M515.55,-115.77C582.56,-110.04 739.4,-95.59 880.67,-74.17"/>
<polygon fill="#63b8ff" stroke="#63b8ff" points="881.46,-77.59 890.81,-72.62 880.4,-70.67 881.46,-77.59"/>
</a>
</g>
</g>
<!-- Node12 -->
<g id="Node000012" class="node">
<title>Node12</title>
<g id="a_Node000012"><a xlink:title=" ">
<polygon fill="#e0e0e0" stroke="#999999" points="447,-19 410,-19 410,0 447,0 447,-19"/>
<text text-anchor="middle" x="428.5" y="-7" font-family="Inter" font-size="10.00">map</text>
</a>
</g>
</g>
<!-- Node2&#45;&gt;Node12 -->
<g id="edge11_Node000002_Node000012" class="edge">
<title>Node2&#45;&gt;Node12</title>
<g id="a_edge11_Node000002_Node000012"><a xlink:title=" ">
<path fill="none" stroke="#63b8ff" d="M480.99,-109.89C478.56,-97.31 473.04,-73.39 463.5,-55 458.19,-44.77 450.4,-34.57 443.52,-26.53"/>
<polygon fill="#63b8ff" stroke="#63b8ff" points="446.08,-24.14 436.82,-19.01 440.86,-28.8 446.08,-24.14"/>
</a>
</g>
</g>
<!-- Node13 -->
<g id="Node000013" class="node">
<title>Node13</title>
<g id="a_Node000013"><a xlink:title=" ">
<polygon fill="#e0e0e0" stroke="#999999" points="357.5,-19 313.5,-19 313.5,0 357.5,0 357.5,-19"/>
<text text-anchor="middle" x="335.5" y="-7" font-family="Inter" font-size="10.00">string</text>
</a>
</g>
</g>
<!-- Node2&#45;&gt;Node13 -->
<g id="edge12_Node000002_Node000013" class="edge">
<title>Node2&#45;&gt;Node13</title>
<g id="a_edge12_Node000002_Node000013"><a xlink:title=" ">
<path fill="none" stroke="#63b8ff" d="M449.26,-116.98C417.96,-113.68 372.18,-103.69 346.5,-74 335.98,-61.83 333.81,-43.31 333.92,-29.4"/>
<polygon fill="#63b8ff" stroke="#63b8ff" points="337.44,-29.21 334.43,-19.05 330.44,-28.87 337.44,-29.21"/>
</a>
</g>
</g>
<!-- Node14 -->
<g id="Node000014" class="node">
<title>Node14</title>
<g id="a_Node000014"><a xlink:href="smooth__refresh_8h.html" target="_top" xlink:title=" ">
<polygon fill="white" stroke="#666666" points="454,-74 355,-74 355,-55 454,-55 454,-74"/>
<text text-anchor="middle" x="404.5" y="-62" font-family="Inter" font-size="10.00">smooth_refresh.h</text>
</a>
</g>
</g>
<!-- Node2&#45;&gt;Node14 -->
<g id="edge13_Node000002_Node000014" class="edge">
<title>Node2&#45;&gt;Node14</title>
<g id="a_edge13_Node000002_Node000014"><a xlink:title=" ">
<path fill="none" stroke="#63b8ff" d="M469.97,-109.98C458.1,-101.92 440.04,-89.65 425.89,-80.03"/>
<polygon fill="#63b8ff" stroke="#63b8ff" points="427.5,-76.9 417.26,-74.17 423.56,-82.69 427.5,-76.9"/>
</a>
</g>
</g>
<!-- Node15 -->
<g id="Node000015" class="node">
<title>Node15</title>
<g id="a_Node000015"><a xlink:href="prettytable_8h.html" target="_top" xlink:title=" ">
<polygon fill="#fff0f0" stroke="red" points="298,-74 221,-74 221,-55 298,-55 298,-74"/>
<text text-anchor="middle" x="259.5" y="-62" font-family="Inter" font-size="10.00">prettytable.h</text>
</a>
</g>
</g>
<!-- Node2&#45;&gt;Node15 -->
<g id="edge17_Node000002_Node000015" class="edge">
<title>Node2&#45;&gt;Node15</title>
<g id="a_edge17_Node000002_Node000015"><a xlink:title=" ">
<path fill="none" stroke="#63b8ff" d="M449.11,-110.57C410.87,-101.48 347.98,-86.53 305.21,-76.36"/>
<polygon fill="#63b8ff" stroke="#63b8ff" points="305.87,-72.92 295.33,-74.02 304.25,-79.73 305.87,-72.92"/>
</a>
</g>
</g>
<!-- Node14&#45;&gt;Node6 -->
<g id="edge14_Node000014_Node000006" class="edge">
<title>Node14&#45;&gt;Node6</title>
<g id="a_edge14_Node000014_Node000006"><a xlink:title=" ">
<path fill="none" stroke="#63b8ff" d="M383.61,-54.98C362.42,-46.34 329.37,-32.87 305.2,-23.02"/>
<polygon fill="#63b8ff" stroke="#63b8ff" points="306.35,-19.7 295.77,-19.17 303.71,-26.19 306.35,-19.7"/>
</a>
</g>
</g>
<!-- Node14&#45;&gt;Node7 -->
<g id="edge15_Node000014_Node000007" class="edge">
<title>Node14&#45;&gt;Node7</title>
<g id="a_edge15_Node000014_Node000007"><a xlink:title=" ">
<path fill="none" stroke="#63b8ff" d="M421.69,-54.98C438.75,-46.54 465.13,-33.47 484.9,-23.68"/>
<polygon fill="#63b8ff" stroke="#63b8ff" points="486.59,-26.75 494,-19.17 483.48,-20.47 486.59,-26.75"/>
</a>
</g>
</g>
<!-- Node14&#45;&gt;Node13 -->
<g id="edge16_Node000014_Node000013" class="edge">
<title>Node14&#45;&gt;Node13</title>
<g id="a_edge16_Node000014_Node000013"><a xlink:title=" ">
<path fill="none" stroke="#63b8ff" d="M393.41,-54.98C383.01,-47 367.24,-34.88 354.78,-25.31"/>
<polygon fill="#63b8ff" stroke="#63b8ff" points="356.85,-22.49 346.79,-19.17 352.59,-28.04 356.85,-22.49"/>
</a>
</g>
</g>
<!-- Node15&#45;&gt;Node3 -->
<g id="edge20_Node000015_Node000003" class="edge">
<title>Node15&#45;&gt;Node3</title>
<g id="a_edge20_Node000015_Node000003"><a xlink:title=" ">
<path fill="none" stroke="#63b8ff" d="M224.96,-54.98C188.08,-45.89 129.51,-31.46 89.16,-21.51"/>
<polygon fill="#63b8ff" stroke="#63b8ff" points="89.86,-18.08 79.31,-19.08 88.19,-24.87 89.86,-18.08"/>
</a>
</g>
</g>
<!-- Node15&#45;&gt;Node5 -->
<g id="edge19_Node000015_Node000005" class="edge">
<title>Node15&#45;&gt;Node5</title>
<g id="a_edge19_Node000015_Node000005"><a xlink:title=" ">
<path fill="none" stroke="#63b8ff" d="M245.36,-54.98C231.71,-46.77 210.81,-34.18 194.72,-24.49"/>
<polygon fill="#63b8ff" stroke="#63b8ff" points="196.27,-21.33 185.9,-19.17 192.66,-27.33 196.27,-21.33"/>
</a>
</g>
</g>
<!-- Node15&#45;&gt;Node6 -->
<g id="edge18_Node000015_Node000006" class="edge">
<title>Node15&#45;&gt;Node6</title>
<g id="a_edge18_Node000015_Node000006"><a xlink:title=" ">
<path fill="none" stroke="#63b8ff" d="M261.98,-54.75C263.96,-47.72 266.82,-37.62 269.31,-28.84"/>
<polygon fill="#63b8ff" stroke="#63b8ff" points="272.71,-29.66 272.07,-19.09 265.98,-27.76 272.71,-29.66"/>
</a>
</g>
</g>
<!-- Node15&#45;&gt;Node12 -->
<g id="edge21_Node000015_Node000012" class="edge">
<title>Node15&#45;&gt;Node12</title>
<g id="a_edge21_Node000015_Node000012"><a xlink:title=" ">
<path fill="none" stroke="#63b8ff" d="M286.65,-54.98C317.67,-45.26 368.2,-29.41 399.84,-19.49"/>
<polygon fill="#63b8ff" stroke="#63b8ff" points="401.29,-22.7 409.79,-16.37 399.2,-16.02 401.29,-22.7"/>
</a>
</g>
</g>
<!-- Node15&#45;&gt;Node13 -->
<g id="edge22_Node000015_Node000013" class="edge">
<title>Node15&#45;&gt;Node13</title>
<g id="a_edge22_Node000015_Node000013"><a xlink:title=" ">
<path fill="none" stroke="#63b8ff" d="M271.71,-54.98C283.28,-46.92 300.88,-34.65 314.66,-25.03"/>
<polygon fill="#63b8ff" stroke="#63b8ff" points="316.87,-27.76 323.07,-19.17 312.86,-22.02 316.87,-27.76"/>
</a>
</g>
</g>
</g>
</svg>

<g id="navigator" transform="translate(0 0)" fill="#404254">
  <rect fill="#f2f5e9" fill-opacity="0.5" stroke="#606060" stroke-width=".5" x="0" y="0" width="60" height="60"/>
  <use id="zoomplus" xlink:href="#zoomPlus" x="17" y="9" onmousedown="handleZoom(evt,'in')"/>
  <use id="zoomminus" xlink:href="#zoomMin" x="42" y="9" onmousedown="handleZoom(evt,'out')"/>
  <use id="reset" xlink:href="#resetDef" x="30" y="36" onmousedown="handleReset()"/>
   <use id="arrowup" xlink:href="#arrowUp" x="0" y="0" onmousedown="handlePan(0,-1)"/>
  <use id="arrowright" xlink:href="#arrowRight" x="0" y="0" onmousedown="handlePan(1,0)"/>
  <use id="arrowdown" xlink:href="#arrowDown" x="0" y="0" onmousedown="handlePan(0,1)"/>
  <use id="arrowleft" xlink:href="#arrowLeft" x="0" y="0" onmousedown="handlePan(-1,0)"/>
</g>
<svg viewBox="0 0 15 15" width="100%" height="30px" preserveAspectRatio="xMaxYMin meet">
 <g id="arrow_out" transform="scale(0.3 0.3)">
  <a xlink:href="disks_8h__incl_org.svg" target="_base">
   <rect id="button" ry="5" rx="5" y="6" x="6" height="38" width="38"
        fill="#f2f5e9" fill-opacity="0.5" stroke="#606060" stroke-width="1.0"/>
   <path id="arrow"
     d="M 11.500037,31.436501 C 11.940474,20.09759 22.043105,11.32322 32.158766,21.979434 L 37.068811,17.246167 C 37.068811,17.246167 37.088388,32 37.088388,32 L 22.160133,31.978069 C 22.160133,31.978069 26.997745,27.140456 26.997745,27.140456 C 18.528582,18.264221 13.291696,25.230495 11.500037,31.436501 z"
     style="fill:#404040;"/>
  </a>
 </g>
</svg>

<style type='text/css'>
<![CDATA[
[data-mouse-over-selected='false'] { opacity: 0.7; }
[data-mouse-over-selected='true']  { opacity: 1.0; }
]]>
</style>
<script type="application/ecmascript"><![CDATA[
document.addEventListener('DOMContentLoaded', (event) => {
  highlightEdges();
  highlightAdjacentNodes();
});
]]></script>
</svg>
