<?xml version="1.0" encoding="UTF-8" standalone="no"?>
<!DOCTYPE svg PUBLIC "-//W3C//DTD SVG 1.1//EN"
 "http://www.w3.org/Graphics/SVG/1.1/DTD/svg11.dtd">
<!-- Generated by graphviz version 2.43.0 (0)
 -->
<!-- Title: draw&#45;workspace.c Pages: 1 -->
<svg width="405pt" height="192pt"
 viewBox="0.00 0.00 405.00 192.00" xmlns="http://www.w3.org/2000/svg" xmlns:xlink="http://www.w3.org/1999/xlink">
<g id="graph0" class="graph" transform="scale(1 1) rotate(0) translate(4 188)">
<title>draw&#45;workspace.c</title>
<!-- Node1 -->
<g id="Node000001" class="node">
<title>Node1</title>
<g id="a_Node000001"><a xlink:title=" ">
<polygon fill="#999999" stroke="#666666" points="189.5,-184 90.5,-184 90.5,-165 189.5,-165 189.5,-184"/>
<text text-anchor="middle" x="140" y="-172" font-family="Inter" font-size="10.00">draw&#45;workspace.c</text>
</a>
</g>
</g>
<!-- Node2 -->
<g id="Node000002" class="node">
<title>Node2</title>
<g id="a_Node000002"><a xlink:href="draw-workspace_8h.html" target="_top" xlink:title=" ">
<polygon fill="white" stroke="#666666" points="142.5,-129 41.5,-129 41.5,-110 142.5,-110 142.5,-129"/>
<text text-anchor="middle" x="92" y="-117" font-family="Inter" font-size="10.00">draw&#45;workspace.h</text>
</a>
</g>
</g>
<!-- Node1&#45;&gt;Node2 -->
<g id="edge1_Node000001_Node000002" class="edge">
<title>Node1&#45;&gt;Node2</title>
<g id="a_edge1_Node000001_Node000002"><a xlink:title=" ">
<path fill="none" stroke="#63b8ff" d="M132.07,-164.75C125.15,-157.11 114.93,-145.82 106.55,-136.56"/>
<polygon fill="#63b8ff" stroke="#63b8ff" points="109.09,-134.15 99.78,-129.09 103.9,-138.85 109.09,-134.15"/>
</a>
</g>
</g>
<!-- Node6 -->
<g id="Node000006" class="node">
<title>Node6</title>
<g id="a_Node000006"><a xlink:href="theme_8h.html" target="_top" xlink:title=" ">
<polygon fill="white" stroke="#666666" points="237,-129 181,-129 181,-110 237,-110 237,-129"/>
<text text-anchor="middle" x="209" y="-117" font-family="Inter" font-size="10.00">theme.h</text>
</a>
</g>
</g>
<!-- Node1&#45;&gt;Node6 -->
<g id="edge5_Node000001_Node000006" class="edge">
<title>Node1&#45;&gt;Node6</title>
<g id="a_edge5_Node000001_Node000006"><a xlink:title=" ">
<path fill="none" stroke="#63b8ff" d="M151.09,-164.98C161.49,-157 177.26,-144.88 189.72,-135.31"/>
<polygon fill="#63b8ff" stroke="#63b8ff" points="191.91,-138.04 197.71,-129.17 187.65,-132.49 191.91,-138.04"/>
</a>
</g>
</g>
<!-- Node3 -->
<g id="Node000003" class="node">
<title>Node3</title>
<g id="a_Node000003"><a xlink:title=" ">
<polygon fill="#e0e0e0" stroke="#999999" points="225,-19 161,-19 161,0 225,0 225,-19"/>
<text text-anchor="middle" x="193" y="-7" font-family="Inter" font-size="10.00">gdk/gdk.h</text>
</a>
</g>
</g>
<!-- Node2&#45;&gt;Node3 -->
<g id="edge2_Node000002_Node000003" class="edge">
<title>Node2&#45;&gt;Node3</title>
<g id="a_edge2_Node000002_Node000003"><a xlink:title=" ">
<path fill="none" stroke="#63b8ff" d="M88.83,-109.85C84.64,-96.79 78.97,-71.77 90,-55 103.55,-34.39 128.89,-23.28 151.04,-17.32"/>
<polygon fill="#63b8ff" stroke="#63b8ff" points="152.05,-20.68 160.94,-14.92 150.4,-13.87 152.05,-20.68"/>
</a>
</g>
</g>
<!-- Node4 -->
<g id="Node000004" class="node">
<title>Node4</title>
<g id="a_Node000004"><a xlink:title=" ">
<polygon fill="#e0e0e0" stroke="#999999" points="128,-19 0,-19 0,0 128,0 128,-19"/>
<text text-anchor="middle" x="64" y="-7" font-family="Inter" font-size="10.00">gdk&#45;pixbuf/gdk&#45;pixbuf.h</text>
</a>
</g>
</g>
<!-- Node2&#45;&gt;Node4 -->
<g id="edge3_Node000002_Node000004" class="edge">
<title>Node2&#45;&gt;Node4</title>
<g id="a_edge3_Node000002_Node000004"><a xlink:title=" ">
<path fill="none" stroke="#63b8ff" d="M82.12,-109.75C73.61,-101.5 61.95,-88.3 57,-74 51.95,-59.42 54.46,-41.95 57.79,-29.02"/>
<polygon fill="#63b8ff" stroke="#63b8ff" points="61.16,-29.98 60.65,-19.4 54.45,-27.99 61.16,-29.98"/>
</a>
</g>
</g>
<!-- Node5 -->
<g id="Node000005" class="node">
<title>Node5</title>
<g id="a_Node000005"><a xlink:title=" ">
<polygon fill="#e0e0e0" stroke="#999999" points="158.5,-74 99.5,-74 99.5,-55 158.5,-55 158.5,-74"/>
<text text-anchor="middle" x="129" y="-62" font-family="Inter" font-size="10.00">gtk/gtk.h</text>
</a>
</g>
</g>
<!-- Node2&#45;&gt;Node5 -->
<g id="edge4_Node000002_Node000005" class="edge">
<title>Node2&#45;&gt;Node5</title>
<g id="a_edge4_Node000002_Node000005"><a xlink:title=" ">
<path fill="none" stroke="#63b8ff" d="M98.11,-109.75C103.28,-102.34 110.85,-91.5 117.19,-82.41"/>
<polygon fill="#63b8ff" stroke="#63b8ff" points="120.15,-84.29 123,-74.09 114.41,-80.29 120.15,-84.29"/>
</a>
</g>
</g>
<!-- Node6&#45;&gt;Node5 -->
<g id="edge11_Node000006_Node000005" class="edge">
<title>Node6&#45;&gt;Node5</title>
<g id="a_edge11_Node000006_Node000005"><a xlink:title=" ">
<path fill="none" stroke="#63b8ff" d="M196.15,-109.98C183.86,-101.84 165.09,-89.41 150.52,-79.76"/>
<polygon fill="#63b8ff" stroke="#63b8ff" points="152.36,-76.78 142.09,-74.17 148.49,-82.61 152.36,-76.78"/>
</a>
</g>
</g>
<!-- Node7 -->
<g id="Node000007" class="node">
<title>Node7</title>
<g id="a_Node000007"><a xlink:href="boxes_8h.html" target="_top" xlink:title=" ">
<polygon fill="#fff0f0" stroke="red" points="312.5,-74 259.5,-74 259.5,-55 312.5,-55 312.5,-74"/>
<text text-anchor="middle" x="286" y="-62" font-family="Inter" font-size="10.00">boxes.h</text>
</a>
</g>
</g>
<!-- Node6&#45;&gt;Node7 -->
<g id="edge6_Node000006_Node000007" class="edge">
<title>Node6&#45;&gt;Node7</title>
<g id="a_edge6_Node000006_Node000007"><a xlink:title=" ">
<path fill="none" stroke="#63b8ff" d="M221.37,-109.98C233.09,-101.92 250.92,-89.65 264.89,-80.03"/>
<polygon fill="#63b8ff" stroke="#63b8ff" points="267.15,-82.72 273.4,-74.17 263.18,-76.96 267.15,-82.72"/>
</a>
</g>
</g>
<!-- Node11 -->
<g id="Node000011" class="node">
<title>Node11</title>
<g id="a_Node000011"><a xlink:href="gradient_8h.html" target="_top" xlink:title=" ">
<polygon fill="white" stroke="#666666" points="241.5,-74 176.5,-74 176.5,-55 241.5,-55 241.5,-74"/>
<text text-anchor="middle" x="209" y="-62" font-family="Inter" font-size="10.00">gradient.h</text>
</a>
</g>
</g>
<!-- Node6&#45;&gt;Node11 -->
<g id="edge7_Node000006_Node000011" class="edge">
<title>Node6&#45;&gt;Node11</title>
<g id="a_edge7_Node000006_Node000011"><a xlink:title=" ">
<path fill="none" stroke="#63b8ff" d="M209,-109.75C209,-102.8 209,-92.85 209,-84.13"/>
<polygon fill="#63b8ff" stroke="#63b8ff" points="212.5,-84.09 209,-74.09 205.5,-84.09 212.5,-84.09"/>
</a>
</g>
</g>
<!-- Node12 -->
<g id="Node000012" class="node">
<title>Node12</title>
<g id="a_Node000012"><a xlink:title=" ">
<polygon fill="#e0e0e0" stroke="#999999" points="397,-74 331,-74 331,-55 397,-55 397,-74"/>
<text text-anchor="middle" x="364" y="-62" font-family="Inter" font-size="10.00">common.h</text>
</a>
</g>
</g>
<!-- Node6&#45;&gt;Node12 -->
<g id="edge10_Node000006_Node000012" class="edge">
<title>Node6&#45;&gt;Node12</title>
<g id="a_edge10_Node000006_Node000012"><a xlink:title=" ">
<path fill="none" stroke="#63b8ff" d="M233.9,-109.98C259.7,-101.16 300.22,-87.31 329.18,-77.41"/>
<polygon fill="#63b8ff" stroke="#63b8ff" points="330.57,-80.63 338.9,-74.08 328.31,-74.01 330.57,-80.63"/>
</a>
</g>
</g>
<!-- Node11&#45;&gt;Node3 -->
<g id="edge9_Node000011_Node000003" class="edge">
<title>Node11&#45;&gt;Node3</title>
<g id="a_edge9_Node000011_Node000003"><a xlink:title=" ">
<path fill="none" stroke="#63b8ff" d="M206.36,-54.75C204.24,-47.72 201.19,-37.62 198.54,-28.84"/>
<polygon fill="#63b8ff" stroke="#63b8ff" points="201.83,-27.65 195.59,-19.09 195.13,-29.67 201.83,-27.65"/>
</a>
</g>
</g>
<!-- Node11&#45;&gt;Node4 -->
<g id="edge8_Node000011_Node000004" class="edge">
<title>Node11&#45;&gt;Node4</title>
<g id="a_edge8_Node000011_Node000004"><a xlink:title=" ">
<path fill="none" stroke="#63b8ff" d="M185.7,-54.98C161.75,-46.23 124.22,-32.51 97.17,-22.62"/>
<polygon fill="#63b8ff" stroke="#63b8ff" points="98.31,-19.32 87.72,-19.17 95.91,-25.89 98.31,-19.32"/>
</a>
</g>
</g>
</g>
</svg>
