<?xml version="1.0" encoding="UTF-8" standalone="no"?>
<!DOCTYPE svg PUBLIC "-//W3C//DTD SVG 1.1//EN"
 "http://www.w3.org/Graphics/SVG/1.1/DTD/svg11.dtd">
<!-- Generated by graphviz version 2.43.0 (0)
 -->
<!-- Title: eel&#45;canvas&#45;rect&#45;ellipse.h Pages: 1 -->
<svg width="325pt" height="137pt"
 viewBox="0.00 0.00 325.00 137.00" xmlns="http://www.w3.org/2000/svg" xmlns:xlink="http://www.w3.org/1999/xlink">

<svg id="main" version="1.1" xmlns="http://www.w3.org/2000/svg" xmlns:xlink="http://www.w3.org/1999/xlink" xml:space="preserve">

<style type="text/css"><![CDATA[
.node, .edge {opacity: 0.7;}
.node.selected, .edge.selected {opacity: 1;}
.edge:hover path { stroke: red; }
.edge:hover polygon { stroke: red; fill: red; }
]]></style>
<script type="application/ecmascript" xlink:href="svg.min.js"/>
<svg id="graph" class="graph">
<g id="graph0" class="graph" transform="scale(1 1) rotate(0) translate(4 133)">
<title>eel&#45;canvas&#45;rect&#45;ellipse.h</title>
<!-- Node1 -->
<g id="Node000001" class="node">
<title>Node1</title>
<g id="a_Node000001"><a xlink:title=" ">
<polygon fill="#999999" stroke="#666666" points="229,-129 102,-129 102,-110 229,-110 229,-129"/>
<text text-anchor="middle" x="165.5" y="-117" font-family="Inter" font-size="10.00">eel&#45;canvas&#45;rect&#45;ellipse.h</text>
</a>
</g>
</g>
<!-- Node2 -->
<g id="Node000002" class="node">
<title>Node2</title>
<g id="a_Node000002"><a xlink:href="eel-canvas_8h.html" target="_top" xlink:title=" ">
<polygon fill="white" stroke="#666666" points="202.5,-74 128.5,-74 128.5,-55 202.5,-55 202.5,-74"/>
<text text-anchor="middle" x="165.5" y="-62" font-family="Inter" font-size="10.00">eel&#45;canvas.h</text>
</a>
</g>
</g>
<!-- Node1&#45;&gt;Node2 -->
<g id="edge1_Node000001_Node000002" class="edge">
<title>Node1&#45;&gt;Node2</title>
<g id="a_edge1_Node000001_Node000002"><a xlink:title=" ">
<path fill="none" stroke="#63b8ff" d="M165.5,-109.75C165.5,-102.8 165.5,-92.85 165.5,-84.13"/>
<polygon fill="#63b8ff" stroke="#63b8ff" points="169,-84.09 165.5,-74.09 162,-84.09 169,-84.09"/>
</a>
</g>
</g>
<!-- Node3 -->
<g id="Node000003" class="node">
<title>Node3</title>
<g id="a_Node000003"><a xlink:title=" ">
<polygon fill="#e0e0e0" stroke="#999999" points="59,-19 0,-19 0,0 59,0 59,-19"/>
<text text-anchor="middle" x="29.5" y="-7" font-family="Inter" font-size="10.00">gtk/gtk.h</text>
</a>
</g>
</g>
<!-- Node2&#45;&gt;Node3 -->
<g id="edge2_Node000002_Node000003" class="edge">
<title>Node2&#45;&gt;Node3</title>
<g id="a_edge2_Node000002_Node000003"><a xlink:title=" ">
<path fill="none" stroke="#63b8ff" d="M143.65,-54.98C121.38,-46.3 86.6,-32.75 61.28,-22.88"/>
<polygon fill="#63b8ff" stroke="#63b8ff" points="62.34,-19.54 51.75,-19.17 59.79,-26.06 62.34,-19.54"/>
</a>
</g>
</g>
<!-- Node4 -->
<g id="Node000004" class="node">
<title>Node4</title>
<g id="a_Node000004"><a xlink:title=" ">
<polygon fill="#e0e0e0" stroke="#999999" points="161.5,-19 77.5,-19 77.5,0 161.5,0 161.5,-19"/>
<text text-anchor="middle" x="119.5" y="-7" font-family="Inter" font-size="10.00">gtk/gtk&#45;a11y.h</text>
</a>
</g>
</g>
<!-- Node2&#45;&gt;Node4 -->
<g id="edge3_Node000002_Node000004" class="edge">
<title>Node2&#45;&gt;Node4</title>
<g id="a_edge3_Node000002_Node000004"><a xlink:title=" ">
<path fill="none" stroke="#63b8ff" d="M157.9,-54.75C151.34,-47.18 141.68,-36.05 133.69,-26.84"/>
<polygon fill="#63b8ff" stroke="#63b8ff" points="136.15,-24.35 126.95,-19.09 130.87,-28.94 136.15,-24.35"/>
</a>
</g>
</g>
<!-- Node5 -->
<g id="Node000005" class="node">
<title>Node5</title>
<g id="a_Node000005"><a xlink:title=" ">
<polygon fill="#e0e0e0" stroke="#999999" points="243.5,-19 179.5,-19 179.5,0 243.5,0 243.5,-19"/>
<text text-anchor="middle" x="211.5" y="-7" font-family="Inter" font-size="10.00">gdk/gdk.h</text>
</a>
</g>
</g>
<!-- Node2&#45;&gt;Node5 -->
<g id="edge4_Node000002_Node000005" class="edge">
<title>Node2&#45;&gt;Node5</title>
<g id="a_edge4_Node000002_Node000005"><a xlink:title=" ">
<path fill="none" stroke="#63b8ff" d="M173.1,-54.75C179.66,-47.18 189.32,-36.05 197.31,-26.84"/>
<polygon fill="#63b8ff" stroke="#63b8ff" points="200.13,-28.94 204.05,-19.09 194.85,-24.35 200.13,-28.94"/>
</a>
</g>
</g>
<!-- Node6 -->
<g id="Node000006" class="node">
<title>Node6</title>
<g id="a_Node000006"><a xlink:title=" ">
<polygon fill="#e0e0e0" stroke="#999999" points="317,-19 262,-19 262,0 317,0 317,-19"/>
<text text-anchor="middle" x="289.5" y="-7" font-family="Inter" font-size="10.00">stdarg.h</text>
</a>
</g>
</g>
<!-- Node2&#45;&gt;Node6 -->
<g id="edge5_Node000002_Node000006" class="edge">
<title>Node2&#45;&gt;Node6</title>
<g id="a_edge5_Node000002_Node000006"><a xlink:title=" ">
<path fill="none" stroke="#63b8ff" d="M185.42,-54.98C205.55,-46.38 236.88,-32.99 259.91,-23.15"/>
<polygon fill="#63b8ff" stroke="#63b8ff" points="261.4,-26.32 269.21,-19.17 258.64,-19.88 261.4,-26.32"/>
</a>
</g>
</g>
</g>
</svg>
</svg>

<style type='text/css'>
<![CDATA[
[data-mouse-over-selected='false'] { opacity: 0.7; }
[data-mouse-over-selected='true']  { opacity: 1.0; }
]]>
</style>
<script type="application/ecmascript"><![CDATA[
document.addEventListener('DOMContentLoaded', (event) => {
  highlightEdges();
  highlightAdjacentNodes();
});
]]></script>
</svg>
