<?xml version="1.0" encoding="UTF-8" standalone="no"?>
<!DOCTYPE svg PUBLIC "-//W3C//DTD SVG 1.1//EN"
 "http://www.w3.org/Graphics/SVG/1.1/DTD/svg11.dtd">
<!-- Generated by graphviz version 2.43.0 (0)
 -->
<!-- Title: eel&#45;wrap&#45;table.h Pages: 1 -->
<svg width="798pt" height="137pt"
 viewBox="0.00 0.00 797.50 137.00" xmlns="http://www.w3.org/2000/svg" xmlns:xlink="http://www.w3.org/1999/xlink">
<g id="graph0" class="graph" transform="scale(1 1) rotate(0) translate(4 133)">
<title>eel&#45;wrap&#45;table.h</title>
<!-- Node1 -->
<g id="Node000001" class="node">
<title>Node1</title>
<g id="a_Node000001"><a xlink:title=" ">
<polygon fill="#999999" stroke="#666666" points="475.5,-129 383.5,-129 383.5,-110 475.5,-110 475.5,-129"/>
<text text-anchor="middle" x="429.5" y="-117" font-family="Inter" font-size="10.00">eel&#45;wrap&#45;table.h</text>
</a>
</g>
</g>
<!-- Node2 -->
<g id="Node000002" class="node">
<title>Node2</title>
<g id="a_Node000002"><a xlink:href="caja-emblem-sidebar_8c.html" target="_top" xlink:title=" ">
<polygon fill="white" stroke="#666666" points="249.5,-74 131.5,-74 131.5,-55 249.5,-55 249.5,-74"/>
<text text-anchor="middle" x="190.5" y="-62" font-family="Inter" font-size="10.00">caja&#45;emblem&#45;sidebar.c</text>
</a>
</g>
</g>
<!-- Node1&#45;&gt;Node2 -->
<g id="edge1_Node000001_Node000002" class="edge">
<title>Node1&#45;&gt;Node2</title>
<g id="a_edge1_Node000001_Node000002"><a xlink:title=" ">
<path fill="none" stroke="#63b8ff" d="M381.32,-107.82C336.53,-97.88 270.66,-83.28 229.2,-74.08"/>
<polygon fill="#63b8ff" stroke="#63b8ff" points="380.58,-111.24 391.1,-109.98 382.1,-104.4 380.58,-111.24"/>
</a>
</g>
</g>
<!-- Node3 -->
<g id="Node000003" class="node">
<title>Node3</title>
<g id="a_Node000003"><a xlink:href="eel-image-table_8h.html" target="_top" xlink:title=" ">
<polygon fill="white" stroke="#666666" points="365.5,-74 267.5,-74 267.5,-55 365.5,-55 365.5,-74"/>
<text text-anchor="middle" x="316.5" y="-62" font-family="Inter" font-size="10.00">eel&#45;image&#45;table.h</text>
</a>
</g>
</g>
<!-- Node1&#45;&gt;Node3 -->
<g id="edge2_Node000001_Node000003" class="edge">
<title>Node1&#45;&gt;Node3</title>
<g id="a_edge2_Node000001_Node000003"><a xlink:title=" ">
<path fill="none" stroke="#63b8ff" d="M402.07,-105.63C381.25,-95.87 353.2,-82.71 334.99,-74.17"/>
<polygon fill="#63b8ff" stroke="#63b8ff" points="400.8,-108.91 411.34,-109.98 403.78,-102.57 400.8,-108.91"/>
</a>
</g>
</g>
<!-- Node6 -->
<g id="Node000006" class="node">
<title>Node6</title>
<g id="a_Node000006"><a xlink:href="eel_8h.html" target="_top" xlink:title=" ">
<polygon fill="#fff0f0" stroke="red" points="433.5,-19 393.5,-19 393.5,0 433.5,0 433.5,-19"/>
<text text-anchor="middle" x="413.5" y="-7" font-family="Inter" font-size="10.00">eel.h</text>
</a>
</g>
</g>
<!-- Node1&#45;&gt;Node6 -->
<g id="edge8_Node000001_Node000006" class="edge">
<title>Node1&#45;&gt;Node6</title>
<g id="a_edge8_Node000001_Node000006"><a xlink:title=" ">
<path fill="none" stroke="#63b8ff" d="M420.94,-100.59C417.6,-92.64 414.17,-83.05 412.5,-74 408.94,-54.7 410.81,-31.54 412.29,-19.22"/>
<polygon fill="#63b8ff" stroke="#63b8ff" points="417.84,-102.22 425.13,-109.91 424.23,-99.35 417.84,-102.22"/>
</a>
</g>
</g>
<!-- Node14 -->
<g id="Node000014" class="node">
<title>Node14</title>
<g id="a_Node000014"><a xlink:href="eel-wrap-table_8c.html" target="_top" xlink:title=" ">
<polygon fill="white" stroke="#666666" points="511.5,-74 421.5,-74 421.5,-55 511.5,-55 511.5,-74"/>
<text text-anchor="middle" x="466.5" y="-62" font-family="Inter" font-size="10.00">eel&#45;wrap&#45;table.c</text>
</a>
</g>
</g>
<!-- Node1&#45;&gt;Node14 -->
<g id="edge7_Node000001_Node000014" class="edge">
<title>Node1&#45;&gt;Node14</title>
<g id="a_edge7_Node000001_Node000014"><a xlink:title=" ">
<path fill="none" stroke="#63b8ff" d="M441.45,-101.39C447.81,-92.27 455.37,-81.45 460.5,-74.09"/>
<polygon fill="#63b8ff" stroke="#63b8ff" points="438.46,-99.55 435.61,-109.75 444.2,-103.55 438.46,-99.55"/>
</a>
</g>
</g>
<!-- Node15 -->
<g id="Node000015" class="node">
<title>Node15</title>
<g id="a_Node000015"><a xlink:href="fm-properties-window_8c.html" target="_top" xlink:title=" ">
<polygon fill="white" stroke="#666666" points="657,-74 530,-74 530,-55 657,-55 657,-74"/>
<text text-anchor="middle" x="593.5" y="-62" font-family="Inter" font-size="10.00">fm&#45;properties&#45;window.c</text>
</a>
</g>
</g>
<!-- Node1&#45;&gt;Node15 -->
<g id="edge9_Node000001_Node000015" class="edge">
<title>Node1&#45;&gt;Node15</title>
<g id="a_edge9_Node000001_Node000015"><a xlink:title=" ">
<path fill="none" stroke="#63b8ff" d="M465.71,-106.8C496.32,-96.91 539.45,-82.97 566.94,-74.08"/>
<polygon fill="#63b8ff" stroke="#63b8ff" points="464.29,-103.58 455.85,-109.98 466.44,-110.24 464.29,-103.58"/>
</a>
</g>
</g>
<!-- Node8 -->
<g id="Node000008" class="node">
<title>Node8</title>
<g id="a_Node000008"><a xlink:href="test-caja-wrap-table_8c.html" target="_top" xlink:title=" ">
<polygon fill="white" stroke="#666666" points="789.5,-74 675.5,-74 675.5,-55 789.5,-55 789.5,-74"/>
<text text-anchor="middle" x="732.5" y="-62" font-family="Inter" font-size="10.00">test&#45;caja&#45;wrap&#45;table.c</text>
</a>
</g>
</g>
<!-- Node1&#45;&gt;Node8 -->
<g id="edge10_Node000001_Node000008" class="edge">
<title>Node1&#45;&gt;Node8</title>
<g id="a_edge10_Node000001_Node000008"><a xlink:title=" ">
<path fill="none" stroke="#63b8ff" d="M485.43,-108.72C542.33,-98.76 629.63,-83.49 683.78,-74.02"/>
<polygon fill="#63b8ff" stroke="#63b8ff" points="484.77,-105.28 475.52,-110.45 485.97,-112.17 484.77,-105.28"/>
</a>
</g>
</g>
<!-- Node4 -->
<g id="Node000004" class="node">
<title>Node4</title>
<g id="a_Node000004"><a xlink:href="caja-property-browser_8c.html" target="_top" xlink:title=" ">
<polygon fill="white" stroke="#666666" points="125,-19 0,-19 0,0 125,0 125,-19"/>
<text text-anchor="middle" x="62.5" y="-7" font-family="Inter" font-size="10.00">caja&#45;property&#45;browser.c</text>
</a>
</g>
</g>
<!-- Node3&#45;&gt;Node4 -->
<g id="edge3_Node000003_Node000004" class="edge">
<title>Node3&#45;&gt;Node4</title>
<g id="a_edge3_Node000003_Node000004"><a xlink:title=" ">
<path fill="none" stroke="#63b8ff" d="M265.89,-52.94C218.28,-43.01 147.88,-28.31 103.63,-19.08"/>
<polygon fill="#63b8ff" stroke="#63b8ff" points="265.19,-56.37 275.69,-54.98 266.62,-49.52 265.19,-56.37"/>
</a>
</g>
</g>
<!-- Node5 -->
<g id="Node000005" class="node">
<title>Node5</title>
<g id="a_Node000005"><a xlink:href="eel-image-table_8c.html" target="_top" xlink:title=" ">
<polygon fill="white" stroke="#666666" points="239.5,-19 143.5,-19 143.5,0 239.5,0 239.5,-19"/>
<text text-anchor="middle" x="191.5" y="-7" font-family="Inter" font-size="10.00">eel&#45;image&#45;table.c</text>
</a>
</g>
</g>
<!-- Node3&#45;&gt;Node5 -->
<g id="edge4_Node000003_Node000005" class="edge">
<title>Node3&#45;&gt;Node5</title>
<g id="a_edge4_Node000003_Node000005"><a xlink:title=" ">
<path fill="none" stroke="#63b8ff" d="M287.09,-51.03C263.97,-41.23 232.37,-27.83 211.95,-19.17"/>
<polygon fill="#63b8ff" stroke="#63b8ff" points="285.84,-54.3 296.42,-54.98 288.58,-47.86 285.84,-54.3"/>
</a>
</g>
</g>
<!-- Node3&#45;&gt;Node6 -->
<g id="edge5_Node000003_Node000006" class="edge">
<title>Node3&#45;&gt;Node6</title>
<g id="a_edge5_Node000003_Node000006"><a xlink:title=" ">
<path fill="none" stroke="#63b8ff" d="M341.27,-49.97C359,-40.28 382.35,-27.52 397.63,-19.17"/>
<polygon fill="#63b8ff" stroke="#63b8ff" points="339.18,-47.12 332.08,-54.98 342.54,-53.26 339.18,-47.12"/>
</a>
</g>
</g>
<!-- Node10 -->
<g id="Node000010" class="node">
<title>Node10</title>
<g id="a_Node000010"><a xlink:href="test-eel-image-table_8c.html" target="_top" xlink:title=" ">
<polygon fill="white" stroke="#666666" points="375,-19 258,-19 258,0 375,0 375,-19"/>
<text text-anchor="middle" x="316.5" y="-7" font-family="Inter" font-size="10.00">test&#45;eel&#45;image&#45;table.c</text>
</a>
</g>
</g>
<!-- Node3&#45;&gt;Node10 -->
<g id="edge6_Node000003_Node000010" class="edge">
<title>Node3&#45;&gt;Node10</title>
<g id="a_edge6_Node000003_Node000010"><a xlink:title=" ">
<path fill="none" stroke="#63b8ff" d="M316.5,-44.66C316.5,-35.93 316.5,-25.99 316.5,-19.09"/>
<polygon fill="#63b8ff" stroke="#63b8ff" points="313,-44.75 316.5,-54.75 320,-44.75 313,-44.75"/>
</a>
</g>
</g>
</g>
</svg>
