<?xml version="1.0" encoding="UTF-8" standalone="no"?>
<!DOCTYPE svg PUBLIC "-//W3C//DTD SVG 1.1//EN"
 "http://www.w3.org/Graphics/SVG/1.1/DTD/svg11.dtd">
<!-- Generated by graphviz version 2.43.0 (0)
 -->
<!-- Title: eel&#45;gtk&#45;extensions.h Pages: 1 -->
<svg width="5513pt" height="148pt"
 viewBox="0.00 0.00 5512.50 148.00" xmlns="http://www.w3.org/2000/svg" xmlns:xlink="http://www.w3.org/1999/xlink">
<g id="graph0" class="graph" transform="scale(1 1) rotate(0) translate(4 144)">
<title>eel&#45;gtk&#45;extensions.h</title>
<!-- Node1 -->
<g id="Node000001" class="node">
<title>Node1</title>
<g id="a_Node000001"><a xlink:title=" ">
<polygon fill="#999999" stroke="#666666" points="2993,-140 2883,-140 2883,-121 2993,-121 2993,-140"/>
<text text-anchor="middle" x="2938" y="-128" font-family="Inter" font-size="10.00">eel&#45;gtk&#45;extensions.h</text>
</a>
</g>
</g>
<!-- Node2 -->
<g id="Node000002" class="node">
<title>Node2</title>
<g id="a_Node000002"><a xlink:href="caja-application_8c.html" target="_top" xlink:title=" ">
<polygon fill="white" stroke="#666666" points="94,-79.5 0,-79.5 0,-60.5 94,-60.5 94,-79.5"/>
<text text-anchor="middle" x="47" y="-67.5" font-family="Inter" font-size="10.00">caja&#45;application.c</text>
</a>
</g>
</g>
<!-- Node1&#45;&gt;Node2 -->
<g id="edge1_Node000001_Node000002" class="edge">
<title>Node1&#45;&gt;Node2</title>
<g id="a_edge1_Node000001_Node000002"><a xlink:title=" ">
<path fill="none" stroke="#63b8ff" d="M2872.56,-129.37C2474.45,-128.47 385.41,-122.02 103,-85 94.06,-83.83 84.48,-81.75 75.82,-79.55"/>
<polygon fill="#63b8ff" stroke="#63b8ff" points="2872.75,-132.87 2882.75,-129.39 2872.76,-125.87 2872.75,-132.87"/>
</a>
</g>
</g>
<!-- Node3 -->
<g id="Node000003" class="node">
<title>Node3</title>
<g id="a_Node000003"><a xlink:href="caja-bookmark_8c.html" target="_top" xlink:title=" ">
<polygon fill="white" stroke="#666666" points="204,-79.5 112,-79.5 112,-60.5 204,-60.5 204,-79.5"/>
<text text-anchor="middle" x="158" y="-67.5" font-family="Inter" font-size="10.00">caja&#45;bookmark.c</text>
</a>
</g>
</g>
<!-- Node1&#45;&gt;Node3 -->
<g id="edge2_Node000001_Node000003" class="edge">
<title>Node1&#45;&gt;Node3</title>
<g id="a_edge2_Node000001_Node000003"><a xlink:title=" ">
<path fill="none" stroke="#63b8ff" d="M2872.65,-129.34C2483.92,-128.3 483.79,-121.17 213,-85 204.21,-83.83 194.8,-81.75 186.3,-79.54"/>
<polygon fill="#63b8ff" stroke="#63b8ff" points="2872.86,-132.84 2882.87,-129.37 2872.88,-125.84 2872.86,-132.84"/>
</a>
</g>
</g>
<!-- Node4 -->
<g id="Node000004" class="node">
<title>Node4</title>
<g id="a_Node000004"><a xlink:href="caja-bookmarks-sidebar_8c.html" target="_top" xlink:title=" ">
<polygon fill="white" stroke="#666666" points="353.5,-79.5 222.5,-79.5 222.5,-60.5 353.5,-60.5 353.5,-79.5"/>
<text text-anchor="middle" x="288" y="-67.5" font-family="Inter" font-size="10.00">caja&#45;bookmarks&#45;sidebar.c</text>
</a>
</g>
</g>
<!-- Node1&#45;&gt;Node4 -->
<g id="edge3_Node000001_Node000004" class="edge">
<title>Node1&#45;&gt;Node4</title>
<g id="a_edge3_Node000001_Node000004"><a xlink:title=" ">
<path fill="none" stroke="#63b8ff" d="M2872.7,-129.03C2497.04,-126.21 619.03,-110.92 363,-85 351.14,-83.8 338.35,-81.71 326.75,-79.51"/>
<polygon fill="#63b8ff" stroke="#63b8ff" points="2872.83,-132.53 2882.86,-129.1 2872.89,-125.53 2872.83,-132.53"/>
</a>
</g>
</g>
<!-- Node5 -->
<g id="Node000005" class="node">
<title>Node5</title>
<g id="a_Node000005"><a xlink:href="caja-bookmarks-window_8c.html" target="_top" xlink:title=" ">
<polygon fill="white" stroke="#666666" points="506,-79.5 372,-79.5 372,-60.5 506,-60.5 506,-79.5"/>
<text text-anchor="middle" x="439" y="-67.5" font-family="Inter" font-size="10.00">caja&#45;bookmarks&#45;window.c</text>
</a>
</g>
</g>
<!-- Node1&#45;&gt;Node5 -->
<g id="edge4_Node000001_Node000005" class="edge">
<title>Node1&#45;&gt;Node5</title>
<g id="a_edge4_Node000001_Node000005"><a xlink:title=" ">
<path fill="none" stroke="#63b8ff" d="M2872.93,-129.75C2536.48,-130.81 991.47,-132.93 515,-85 502.99,-83.79 490.03,-81.7 478.27,-79.5"/>
<polygon fill="#63b8ff" stroke="#63b8ff" points="2873.01,-133.25 2882.99,-129.71 2872.98,-126.25 2873.01,-133.25"/>
</a>
</g>
</g>
<!-- Node6 -->
<g id="Node000006" class="node">
<title>Node6</title>
<g id="a_Node000006"><a xlink:href="caja-customization-data_8c.html" target="_top" xlink:title=" ">
<polygon fill="white" stroke="#666666" points="625.5,-85 524.5,-85 524.5,-55 625.5,-55 625.5,-85"/>
<text text-anchor="start" x="532.5" y="-73" font-family="Inter" font-size="10.00">caja&#45;customization</text>
<text text-anchor="middle" x="575" y="-62" font-family="Inter" font-size="10.00">&#45;data.c</text>
</a>
</g>
</g>
<!-- Node1&#45;&gt;Node6 -->
<g id="edge5_Node000001_Node000006" class="edge">
<title>Node1&#45;&gt;Node6</title>
<g id="a_edge5_Node000001_Node000006"><a xlink:title=" ">
<path fill="none" stroke="#63b8ff" d="M2872.7,-129.06C2521.21,-126.56 861.87,-113.34 635,-85 631.92,-84.62 628.77,-84.14 625.6,-83.59"/>
<polygon fill="#63b8ff" stroke="#63b8ff" points="2872.93,-132.56 2882.96,-129.13 2872.98,-125.56 2872.93,-132.56"/>
</a>
</g>
</g>
<!-- Node7 -->
<g id="Node000007" class="node">
<title>Node7</title>
<g id="a_Node000007"><a xlink:href="caja-directory-background_8c.html" target="_top" xlink:title=" ">
<polygon fill="white" stroke="#666666" points="788,-79.5 644,-79.5 644,-60.5 788,-60.5 788,-79.5"/>
<text text-anchor="middle" x="716" y="-67.5" font-family="Inter" font-size="10.00">caja&#45;directory&#45;background.c</text>
</a>
</g>
</g>
<!-- Node1&#45;&gt;Node7 -->
<g id="edge6_Node000001_Node000007" class="edge">
<title>Node1&#45;&gt;Node7</title>
<g id="a_edge6_Node000001_Node000007"><a xlink:title=" ">
<path fill="none" stroke="#63b8ff" d="M2872.62,-129.47C2559.88,-129.11 1214.6,-125.2 797,-85 784.36,-83.78 770.72,-81.72 758.3,-79.55"/>
<polygon fill="#63b8ff" stroke="#63b8ff" points="2872.87,-132.97 2882.87,-129.48 2872.87,-125.97 2872.87,-132.97"/>
</a>
</g>
</g>
<!-- Node8 -->
<g id="Node000008" class="node">
<title>Node8</title>
<g id="a_Node000008"><a xlink:href="caja-dnd_8c.html" target="_top" xlink:title=" ">
<polygon fill="white" stroke="#666666" points="868,-79.5 806,-79.5 806,-60.5 868,-60.5 868,-79.5"/>
<text text-anchor="middle" x="837" y="-67.5" font-family="Inter" font-size="10.00">caja&#45;dnd.c</text>
</a>
</g>
</g>
<!-- Node1&#45;&gt;Node8 -->
<g id="edge7_Node000001_Node000008" class="edge">
<title>Node1&#45;&gt;Node8</title>
<g id="a_edge7_Node000001_Node000008"><a xlink:title=" ">
<path fill="none" stroke="#63b8ff" d="M2872.49,-129.31C2543.23,-128.19 1076.89,-121.19 877,-85 870.48,-83.82 863.61,-81.74 857.43,-79.54"/>
<polygon fill="#63b8ff" stroke="#63b8ff" points="2872.8,-132.81 2882.81,-129.34 2872.83,-125.81 2872.8,-132.81"/>
</a>
</g>
</g>
<!-- Node9 -->
<g id="Node000009" class="node">
<title>Node9</title>
<g id="a_Node000009"><a xlink:href="caja-emblem-sidebar_8c.html" target="_top" xlink:title=" ">
<polygon fill="white" stroke="#666666" points="1004,-79.5 886,-79.5 886,-60.5 1004,-60.5 1004,-79.5"/>
<text text-anchor="middle" x="945" y="-67.5" font-family="Inter" font-size="10.00">caja&#45;emblem&#45;sidebar.c</text>
</a>
</g>
</g>
<!-- Node1&#45;&gt;Node9 -->
<g id="edge8_Node000001_Node000009" class="edge">
<title>Node1&#45;&gt;Node9</title>
<g id="a_edge8_Node000001_Node000009"><a xlink:title=" ">
<path fill="none" stroke="#63b8ff" d="M2872.6,-129.57C2579.5,-129.63 1384.96,-127.24 1013,-85 1002.34,-83.79 990.87,-81.73 980.45,-79.55"/>
<polygon fill="#63b8ff" stroke="#63b8ff" points="2872.65,-133.07 2882.65,-129.57 2872.64,-126.07 2872.65,-133.07"/>
</a>
</g>
</g>
<!-- Node10 -->
<g id="Node000010" class="node">
<title>Node10</title>
<g id="a_Node000010"><a xlink:href="caja-file-management-properties_8c.html" target="_top" xlink:title=" ">
<polygon fill="white" stroke="#666666" points="1138,-85 1022,-85 1022,-55 1138,-55 1138,-85"/>
<text text-anchor="start" x="1030" y="-73" font-family="Inter" font-size="10.00">caja&#45;file&#45;management</text>
<text text-anchor="middle" x="1080" y="-62" font-family="Inter" font-size="10.00">&#45;properties.c</text>
</a>
</g>
</g>
<!-- Node1&#45;&gt;Node10 -->
<g id="edge9_Node000001_Node000010" class="edge">
<title>Node1&#45;&gt;Node10</title>
<g id="a_edge9_Node000001_Node000010"><a xlink:title=" ">
<path fill="none" stroke="#63b8ff" d="M2872.61,-129.46C2592.33,-129.05 1491.1,-124.89 1147,-85 1144.17,-84.67 1141.28,-84.28 1138.36,-83.84"/>
<polygon fill="#63b8ff" stroke="#63b8ff" points="2872.62,-132.96 2882.62,-129.48 2872.63,-125.96 2872.62,-132.96"/>
</a>
</g>
</g>
<!-- Node11 -->
<g id="Node000011" class="node">
<title>Node11</title>
<g id="a_Node000011"><a xlink:href="caja-file-operations_8c.html" target="_top" xlink:title=" ">
<polygon fill="white" stroke="#666666" points="1267.5,-79.5 1156.5,-79.5 1156.5,-60.5 1267.5,-60.5 1267.5,-79.5"/>
<text text-anchor="middle" x="1212" y="-67.5" font-family="Inter" font-size="10.00">caja&#45;file&#45;operations.c</text>
</a>
</g>
</g>
<!-- Node1&#45;&gt;Node11 -->
<g id="edge10_Node000001_Node000011" class="edge">
<title>Node1&#45;&gt;Node11</title>
<g id="a_edge10_Node000001_Node000011"><a xlink:title=" ">
<path fill="none" stroke="#63b8ff" d="M2872.57,-129.4C2605,-128.72 1593.22,-123.59 1276,-85 1265.95,-83.78 1255.15,-81.71 1245.34,-79.54"/>
<polygon fill="#63b8ff" stroke="#63b8ff" points="2872.88,-132.9 2882.89,-129.42 2872.9,-125.9 2872.88,-132.9"/>
</a>
</g>
</g>
<!-- Node12 -->
<g id="Node000012" class="node">
<title>Node12</title>
<g id="a_Node000012"><a xlink:href="caja-file_8c.html" target="_top" xlink:title=" ">
<polygon fill="white" stroke="#666666" points="1344.5,-79.5 1285.5,-79.5 1285.5,-60.5 1344.5,-60.5 1344.5,-79.5"/>
<text text-anchor="middle" x="1315" y="-67.5" font-family="Inter" font-size="10.00">caja&#45;file.c</text>
</a>
</g>
</g>
<!-- Node1&#45;&gt;Node12 -->
<g id="edge11_Node000001_Node000012" class="edge">
<title>Node1&#45;&gt;Node12</title>
<g id="a_edge11_Node000001_Node000012"><a xlink:title=" ">
<path fill="none" stroke="#63b8ff" d="M2872.39,-128.91C2592.21,-126.23 1503.53,-114.03 1353,-85 1346.79,-83.8 1340.25,-81.72 1334.38,-79.51"/>
<polygon fill="#63b8ff" stroke="#63b8ff" points="2872.76,-132.42 2882.79,-129.01 2872.83,-125.42 2872.76,-132.42"/>
</a>
</g>
</g>
<!-- Node13 -->
<g id="Node000013" class="node">
<title>Node13</title>
<g id="a_Node000013"><a xlink:href="caja-global-preferences_8c.html" target="_top" xlink:title=" ">
<polygon fill="white" stroke="#666666" points="1493.5,-79.5 1362.5,-79.5 1362.5,-60.5 1493.5,-60.5 1493.5,-79.5"/>
<text text-anchor="middle" x="1428" y="-67.5" font-family="Inter" font-size="10.00">caja&#45;global&#45;preferences.c</text>
</a>
</g>
</g>
<!-- Node1&#45;&gt;Node13 -->
<g id="edge12_Node000001_Node000013" class="edge">
<title>Node1&#45;&gt;Node13</title>
<g id="a_edge12_Node000001_Node000013"><a xlink:title=" ">
<path fill="none" stroke="#63b8ff" d="M2872.85,-128.81C2629.52,-126.02 1774.02,-114.32 1503,-85 1491.41,-83.75 1478.93,-81.7 1467.53,-79.55"/>
<polygon fill="#63b8ff" stroke="#63b8ff" points="2872.92,-132.31 2882.96,-128.92 2873,-125.31 2872.92,-132.31"/>
</a>
</g>
</g>
<!-- Node14 -->
<g id="Node000014" class="node">
<title>Node14</title>
<g id="a_Node000014"><a xlink:href="caja-history-sidebar_8c.html" target="_top" xlink:title=" ">
<polygon fill="white" stroke="#666666" points="1624,-79.5 1512,-79.5 1512,-60.5 1624,-60.5 1624,-79.5"/>
<text text-anchor="middle" x="1568" y="-67.5" font-family="Inter" font-size="10.00">caja&#45;history&#45;sidebar.c</text>
</a>
</g>
</g>
<!-- Node1&#45;&gt;Node14 -->
<g id="edge13_Node000001_Node000014" class="edge">
<title>Node1&#45;&gt;Node14</title>
<g id="a_edge13_Node000001_Node000014"><a xlink:title=" ">
<path fill="none" stroke="#63b8ff" d="M2872.71,-128.81C2643.58,-126.16 1876.87,-115.18 1633,-85 1622.92,-83.75 1612.09,-81.71 1602.21,-79.56"/>
<polygon fill="#63b8ff" stroke="#63b8ff" points="2872.85,-132.31 2882.89,-128.93 2872.93,-125.31 2872.85,-132.31"/>
</a>
</g>
</g>
<!-- Node15 -->
<g id="Node000015" class="node">
<title>Node15</title>
<g id="a_Node000015"><a xlink:href="caja-icon-container_8c.html" target="_top" xlink:title=" ">
<polygon fill="white" stroke="#666666" points="1750,-79.5 1642,-79.5 1642,-60.5 1750,-60.5 1750,-79.5"/>
<text text-anchor="middle" x="1696" y="-67.5" font-family="Inter" font-size="10.00">caja&#45;icon&#45;container.c</text>
</a>
</g>
</g>
<!-- Node1&#45;&gt;Node15 -->
<g id="edge14_Node000001_Node000015" class="edge">
<title>Node1&#45;&gt;Node15</title>
<g id="a_edge14_Node000001_Node000015"><a xlink:title=" ">
<path fill="none" stroke="#63b8ff" d="M2872.6,-128.59C2658.07,-125.36 1976.99,-113.1 1759,-85 1749.22,-83.74 1738.72,-81.69 1729.15,-79.55"/>
<polygon fill="#63b8ff" stroke="#63b8ff" points="2872.71,-132.09 2882.76,-128.74 2872.82,-125.09 2872.71,-132.09"/>
</a>
</g>
</g>
<!-- Node16 -->
<g id="Node000016" class="node">
<title>Node16</title>
<g id="a_Node000016"><a xlink:href="caja-icon-dnd_8c.html" target="_top" xlink:title=" ">
<polygon fill="white" stroke="#666666" points="1852,-79.5 1768,-79.5 1768,-60.5 1852,-60.5 1852,-79.5"/>
<text text-anchor="middle" x="1810" y="-67.5" font-family="Inter" font-size="10.00">caja&#45;icon&#45;dnd.c</text>
</a>
</g>
</g>
<!-- Node1&#45;&gt;Node16 -->
<g id="edge15_Node000001_Node000016" class="edge">
<title>Node1&#45;&gt;Node16</title>
<g id="a_edge15_Node000001_Node000016"><a xlink:title=" ">
<path fill="none" stroke="#63b8ff" d="M2872.8,-128.74C2670.87,-126.08 2057.63,-115.64 1861,-85 1853.02,-83.76 1844.5,-81.71 1836.75,-79.57"/>
<polygon fill="#63b8ff" stroke="#63b8ff" points="2872.91,-132.24 2882.96,-128.87 2873,-125.24 2872.91,-132.24"/>
</a>
</g>
</g>
<!-- Node17 -->
<g id="Node000017" class="node">
<title>Node17</title>
<g id="a_Node000017"><a xlink:href="caja-information-panel_8c.html" target="_top" xlink:title=" ">
<polygon fill="white" stroke="#666666" points="1998,-79.5 1870,-79.5 1870,-60.5 1998,-60.5 1998,-79.5"/>
<text text-anchor="middle" x="1934" y="-67.5" font-family="Inter" font-size="10.00">caja&#45;information&#45;panel.c</text>
</a>
</g>
</g>
<!-- Node1&#45;&gt;Node17 -->
<g id="edge16_Node000001_Node000017" class="edge">
<title>Node1&#45;&gt;Node17</title>
<g id="a_edge16_Node000001_Node000017"><a xlink:title=" ">
<path fill="none" stroke="#63b8ff" d="M2872.84,-129.55C2720.68,-128.99 2330.37,-123.54 2007,-85 1995.85,-83.67 1983.85,-81.63 1972.86,-79.51"/>
<polygon fill="#63b8ff" stroke="#63b8ff" points="2872.93,-133.05 2882.95,-129.58 2872.96,-126.05 2872.93,-133.05"/>
</a>
</g>
</g>
<!-- Node18 -->
<g id="Node000018" class="node">
<title>Node18</title>
<g id="a_Node000018"><a xlink:href="caja-navigation-action_8c.html" target="_top" xlink:title=" ">
<polygon fill="white" stroke="#666666" points="2139.5,-79.5 2016.5,-79.5 2016.5,-60.5 2139.5,-60.5 2139.5,-79.5"/>
<text text-anchor="middle" x="2078" y="-67.5" font-family="Inter" font-size="10.00">caja&#45;navigation&#45;action.c</text>
</a>
</g>
</g>
<!-- Node1&#45;&gt;Node18 -->
<g id="edge17_Node000001_Node000018" class="edge">
<title>Node1&#45;&gt;Node18</title>
<g id="a_edge17_Node000001_Node000018"><a xlink:title=" ">
<path fill="none" stroke="#63b8ff" d="M2872.46,-128.93C2736.74,-127.06 2415.27,-119.08 2148,-85 2137.43,-83.65 2126.06,-81.63 2115.62,-79.54"/>
<polygon fill="#63b8ff" stroke="#63b8ff" points="2872.64,-132.43 2882.68,-129.06 2872.73,-125.43 2872.64,-132.43"/>
</a>
</g>
</g>
<!-- Node19 -->
<g id="Node000019" class="node">
<title>Node19</title>
<g id="a_Node000019"><a xlink:href="caja-navigation-window-pane_8c.html" target="_top" xlink:title=" ">
<polygon fill="white" stroke="#666666" points="2280.5,-85 2157.5,-85 2157.5,-55 2280.5,-55 2280.5,-85"/>
<text text-anchor="start" x="2165.5" y="-73" font-family="Inter" font-size="10.00">caja&#45;navigation&#45;window</text>
<text text-anchor="middle" x="2219" y="-62" font-family="Inter" font-size="10.00">&#45;pane.c</text>
</a>
</g>
</g>
<!-- Node1&#45;&gt;Node19 -->
<g id="edge18_Node000001_Node000019" class="edge">
<title>Node1&#45;&gt;Node19</title>
<g id="a_edge18_Node000001_Node000019"><a xlink:title=" ">
<path fill="none" stroke="#63b8ff" d="M2872.37,-127.8C2754.91,-124.12 2501.16,-113.37 2289,-85 2286.3,-84.64 2283.54,-84.24 2280.76,-83.8"/>
<polygon fill="#63b8ff" stroke="#63b8ff" points="2872.53,-131.3 2882.63,-128.11 2872.74,-124.31 2872.53,-131.3"/>
</a>
</g>
</g>
<!-- Node20 -->
<g id="Node000020" class="node">
<title>Node20</title>
<g id="a_Node000020"><a xlink:href="caja-navigation-window_8c.html" target="_top" xlink:title=" ">
<polygon fill="white" stroke="#666666" points="2429.5,-79.5 2298.5,-79.5 2298.5,-60.5 2429.5,-60.5 2429.5,-79.5"/>
<text text-anchor="middle" x="2364" y="-67.5" font-family="Inter" font-size="10.00">caja&#45;navigation&#45;window.c</text>
</a>
</g>
</g>
<!-- Node1&#45;&gt;Node20 -->
<g id="edge19_Node000001_Node000020" class="edge">
<title>Node1&#45;&gt;Node20</title>
<g id="a_edge19_Node000001_Node000020"><a xlink:title=" ">
<path fill="none" stroke="#63b8ff" d="M2872.71,-125.68C2777.18,-119.63 2593.84,-106.31 2439,-85 2428.24,-83.52 2416.68,-81.55 2405.93,-79.56"/>
<polygon fill="#63b8ff" stroke="#63b8ff" points="2872.6,-129.18 2882.8,-126.31 2873.03,-122.19 2872.6,-129.18"/>
</a>
</g>
</g>
<!-- Node21 -->
<g id="Node000021" class="node">
<title>Node21</title>
<g id="a_Node000021"><a xlink:href="caja-notes-viewer_8c.html" target="_top" xlink:title=" ">
<polygon fill="white" stroke="#666666" points="2550,-79.5 2448,-79.5 2448,-60.5 2550,-60.5 2550,-79.5"/>
<text text-anchor="middle" x="2499" y="-67.5" font-family="Inter" font-size="10.00">caja&#45;notes&#45;viewer.c</text>
</a>
</g>
</g>
<!-- Node1&#45;&gt;Node21 -->
<g id="edge20_Node000001_Node000021" class="edge">
<title>Node1&#45;&gt;Node21</title>
<g id="a_edge20_Node000001_Node000021"><a xlink:title=" ">
<path fill="none" stroke="#63b8ff" d="M2872.46,-124.06C2796.64,-117.24 2668.23,-104.09 2559,-85 2550.36,-83.49 2541.1,-81.51 2532.5,-79.52"/>
<polygon fill="#63b8ff" stroke="#63b8ff" points="2872.53,-127.58 2882.8,-124.98 2873.15,-120.61 2872.53,-127.58"/>
</a>
</g>
</g>
<!-- Node22 -->
<g id="Node000022" class="node">
<title>Node22</title>
<g id="a_Node000022"><a xlink:href="caja-places-sidebar_8c.html" target="_top" xlink:title=" ">
<polygon fill="white" stroke="#666666" points="2676,-79.5 2568,-79.5 2568,-60.5 2676,-60.5 2676,-79.5"/>
<text text-anchor="middle" x="2622" y="-67.5" font-family="Inter" font-size="10.00">caja&#45;places&#45;sidebar.c</text>
</a>
</g>
</g>
<!-- Node1&#45;&gt;Node22 -->
<g id="edge21_Node000001_Node000022" class="edge">
<title>Node1&#45;&gt;Node22</title>
<g id="a_edge21_Node000001_Node000022"><a xlink:title=" ">
<path fill="none" stroke="#63b8ff" d="M2875.6,-119.32C2824.31,-110.76 2749.79,-97.89 2685,-85 2676.65,-83.34 2667.7,-81.43 2659.25,-79.57"/>
<polygon fill="#63b8ff" stroke="#63b8ff" points="2875.1,-122.79 2885.54,-120.97 2876.25,-115.88 2875.1,-122.79"/>
</a>
</g>
</g>
<!-- Node23 -->
<g id="Node000023" class="node">
<title>Node23</title>
<g id="a_Node000023"><a xlink:href="caja-property-browser_8c.html" target="_top" xlink:title=" ">
<polygon fill="white" stroke="#666666" points="2819.5,-79.5 2694.5,-79.5 2694.5,-60.5 2819.5,-60.5 2819.5,-79.5"/>
<text text-anchor="middle" x="2757" y="-67.5" font-family="Inter" font-size="10.00">caja&#45;property&#45;browser.c</text>
</a>
</g>
</g>
<!-- Node1&#45;&gt;Node23 -->
<g id="edge22_Node000001_Node000023" class="edge">
<title>Node1&#45;&gt;Node23</title>
<g id="a_edge22_Node000001_Node000023"><a xlink:title=" ">
<path fill="none" stroke="#63b8ff" d="M2901.85,-117.82C2866.85,-106.5 2814.6,-89.62 2783.35,-79.52"/>
<polygon fill="#63b8ff" stroke="#63b8ff" points="2901.09,-121.25 2911.68,-120.99 2903.24,-114.59 2901.09,-121.25"/>
</a>
</g>
</g>
<!-- Node24 -->
<g id="Node000024" class="node">
<title>Node24</title>
<g id="a_Node000024"><a xlink:href="caja-side-pane_8c.html" target="_top" xlink:title=" ">
<polygon fill="white" stroke="#666666" points="2926.5,-79.5 2837.5,-79.5 2837.5,-60.5 2926.5,-60.5 2926.5,-79.5"/>
<text text-anchor="middle" x="2882" y="-67.5" font-family="Inter" font-size="10.00">caja&#45;side&#45;pane.c</text>
</a>
</g>
</g>
<!-- Node1&#45;&gt;Node24 -->
<g id="edge23_Node000001_Node000024" class="edge">
<title>Node1&#45;&gt;Node24</title>
<g id="a_edge23_Node000001_Node000024"><a xlink:title=" ">
<path fill="none" stroke="#63b8ff" d="M2922.77,-113.59C2912.31,-102.67 2898.83,-88.58 2890.3,-79.67"/>
<polygon fill="#63b8ff" stroke="#63b8ff" points="2920.29,-116.06 2929.74,-120.87 2925.35,-111.22 2920.29,-116.06"/>
</a>
</g>
</g>
<!-- Node25 -->
<g id="Node000025" class="node">
<title>Node25</title>
<g id="a_Node000025"><a xlink:href="caja-sidebar-title_8c.html" target="_top" xlink:title=" ">
<polygon fill="white" stroke="#666666" points="3045,-79.5 2945,-79.5 2945,-60.5 3045,-60.5 3045,-79.5"/>
<text text-anchor="middle" x="2995" y="-67.5" font-family="Inter" font-size="10.00">caja&#45;sidebar&#45;title.c</text>
</a>
</g>
</g>
<!-- Node1&#45;&gt;Node25 -->
<g id="edge24_Node000001_Node000025" class="edge">
<title>Node1&#45;&gt;Node25</title>
<g id="a_edge24_Node000001_Node000025"><a xlink:title=" ">
<path fill="none" stroke="#63b8ff" d="M2953.5,-113.59C2964.15,-102.67 2977.87,-88.58 2986.55,-79.67"/>
<polygon fill="#63b8ff" stroke="#63b8ff" points="2950.88,-111.26 2946.41,-120.87 2955.9,-116.15 2950.88,-111.26"/>
</a>
</g>
</g>
<!-- Node26 -->
<g id="Node000026" class="node">
<title>Node26</title>
<g id="a_Node000026"><a xlink:href="caja-spatial-window_8c.html" target="_top" xlink:title=" ">
<polygon fill="white" stroke="#666666" points="3175,-79.5 3063,-79.5 3063,-60.5 3175,-60.5 3175,-79.5"/>
<text text-anchor="middle" x="3119" y="-67.5" font-family="Inter" font-size="10.00">caja&#45;spatial&#45;window.c</text>
</a>
</g>
</g>
<!-- Node1&#45;&gt;Node26 -->
<g id="edge25_Node000001_Node000026" class="edge">
<title>Node1&#45;&gt;Node26</title>
<g id="a_edge25_Node000001_Node000026"><a xlink:title=" ">
<path fill="none" stroke="#63b8ff" d="M2974.15,-117.82C3009.15,-106.5 3061.4,-89.62 3092.65,-79.52"/>
<polygon fill="#63b8ff" stroke="#63b8ff" points="2972.76,-114.59 2964.32,-120.99 2974.91,-121.25 2972.76,-114.59"/>
</a>
</g>
</g>
<!-- Node27 -->
<g id="Node000027" class="node">
<title>Node27</title>
<g id="a_Node000027"><a xlink:href="caja-view-as-action_8c.html" target="_top" xlink:title=" ">
<polygon fill="white" stroke="#666666" points="3301,-79.5 3193,-79.5 3193,-60.5 3301,-60.5 3301,-79.5"/>
<text text-anchor="middle" x="3247" y="-67.5" font-family="Inter" font-size="10.00">caja&#45;view&#45;as&#45;action.c</text>
</a>
</g>
</g>
<!-- Node1&#45;&gt;Node27 -->
<g id="edge26_Node000001_Node000027" class="edge">
<title>Node1&#45;&gt;Node27</title>
<g id="a_edge26_Node000001_Node000027"><a xlink:title=" ">
<path fill="none" stroke="#63b8ff" d="M2998.5,-119.25C3048.37,-110.63 3120.91,-97.71 3184,-85 3192.35,-83.32 3201.29,-81.4 3209.74,-79.54"/>
<polygon fill="#63b8ff" stroke="#63b8ff" points="2997.78,-115.82 2988.52,-120.96 2998.97,-122.72 2997.78,-115.82"/>
</a>
</g>
</g>
<!-- Node28 -->
<g id="Node000028" class="node">
<title>Node28</title>
<g id="a_Node000028"><a xlink:href="caja-window-bookmarks_8c.html" target="_top" xlink:title=" ">
<polygon fill="white" stroke="#666666" points="3453,-79.5 3319,-79.5 3319,-60.5 3453,-60.5 3453,-79.5"/>
<text text-anchor="middle" x="3386" y="-67.5" font-family="Inter" font-size="10.00">caja&#45;window&#45;bookmarks.c</text>
</a>
</g>
</g>
<!-- Node1&#45;&gt;Node28 -->
<g id="edge27_Node000001_Node000028" class="edge">
<title>Node1&#45;&gt;Node28</title>
<g id="a_edge27_Node000001_Node000028"><a xlink:title=" ">
<path fill="none" stroke="#63b8ff" d="M3003.46,-122.93C3077.89,-115.17 3202.98,-101.24 3310,-85 3320.48,-83.41 3331.73,-81.47 3342.27,-79.54"/>
<polygon fill="#63b8ff" stroke="#63b8ff" points="3002.88,-119.47 2993.3,-123.99 3003.6,-126.44 3002.88,-119.47"/>
</a>
</g>
</g>
<!-- Node29 -->
<g id="Node000029" class="node">
<title>Node29</title>
<g id="a_Node000029"><a xlink:href="caja-window-manage-views_8c.html" target="_top" xlink:title=" ">
<polygon fill="white" stroke="#666666" points="3584.5,-85 3471.5,-85 3471.5,-55 3584.5,-55 3584.5,-85"/>
<text text-anchor="start" x="3479.5" y="-73" font-family="Inter" font-size="10.00">caja&#45;window&#45;manage</text>
<text text-anchor="middle" x="3528" y="-62" font-family="Inter" font-size="10.00">&#45;views.c</text>
</a>
</g>
</g>
<!-- Node1&#45;&gt;Node29 -->
<g id="edge28_Node000001_Node000029" class="edge">
<title>Node1&#45;&gt;Node29</title>
<g id="a_edge28_Node000001_Node000029"><a xlink:title=" ">
<path fill="none" stroke="#63b8ff" d="M3003.53,-126.55C3103.04,-121.49 3298.01,-109.26 3462,-85 3465.01,-84.55 3468.09,-84.05 3471.2,-83.52"/>
<polygon fill="#63b8ff" stroke="#63b8ff" points="3003.15,-123.07 2993.33,-127.07 3003.5,-130.06 3003.15,-123.07"/>
</a>
</g>
</g>
<!-- Node30 -->
<g id="Node000030" class="node">
<title>Node30</title>
<g id="a_Node000030"><a xlink:href="caja-window-menus_8c.html" target="_top" xlink:title=" ">
<polygon fill="white" stroke="#666666" points="3717,-79.5 3603,-79.5 3603,-60.5 3717,-60.5 3717,-79.5"/>
<text text-anchor="middle" x="3660" y="-67.5" font-family="Inter" font-size="10.00">caja&#45;window&#45;menus.c</text>
</a>
</g>
</g>
<!-- Node1&#45;&gt;Node30 -->
<g id="edge29_Node000001_Node000030" class="edge">
<title>Node1&#45;&gt;Node30</title>
<g id="a_edge29_Node000001_Node000030"><a xlink:title=" ">
<path fill="none" stroke="#63b8ff" d="M3003.35,-128.05C3121.54,-124.75 3378.45,-114.56 3593,-85 3603.01,-83.62 3613.75,-81.61 3623.65,-79.55"/>
<polygon fill="#63b8ff" stroke="#63b8ff" points="3002.94,-124.56 2993.04,-128.33 3003.13,-131.55 3002.94,-124.56"/>
</a>
</g>
</g>
<!-- Node31 -->
<g id="Node000031" class="node">
<title>Node31</title>
<g id="a_Node000031"><a xlink:href="caja-window-toolbars_8c.html" target="_top" xlink:title=" ">
<polygon fill="white" stroke="#666666" points="3856.5,-79.5 3735.5,-79.5 3735.5,-60.5 3856.5,-60.5 3856.5,-79.5"/>
<text text-anchor="middle" x="3796" y="-67.5" font-family="Inter" font-size="10.00">caja&#45;window&#45;toolbars.c</text>
</a>
</g>
</g>
<!-- Node1&#45;&gt;Node31 -->
<g id="edge30_Node000001_Node000031" class="edge">
<title>Node1&#45;&gt;Node31</title>
<g id="a_edge30_Node000001_Node000031"><a xlink:title=" ">
<path fill="none" stroke="#63b8ff" d="M3003.38,-128.92C3138.75,-127.03 3459.4,-119.01 3726,-85 3736.57,-83.65 3747.94,-81.63 3758.38,-79.54"/>
<polygon fill="#63b8ff" stroke="#63b8ff" points="3003.13,-125.42 2993.18,-129.05 3003.22,-132.42 3003.13,-125.42"/>
</a>
</g>
</g>
<!-- Node32 -->
<g id="Node000032" class="node">
<title>Node32</title>
<g id="a_Node000032"><a xlink:href="caja-zoom-action_8c.html" target="_top" xlink:title=" ">
<polygon fill="white" stroke="#666666" points="3975.5,-79.5 3874.5,-79.5 3874.5,-60.5 3975.5,-60.5 3975.5,-79.5"/>
<text text-anchor="middle" x="3925" y="-67.5" font-family="Inter" font-size="10.00">caja&#45;zoom&#45;action.c</text>
</a>
</g>
</g>
<!-- Node1&#45;&gt;Node32 -->
<g id="edge31_Node000001_Node000032" class="edge">
<title>Node1&#45;&gt;Node32</title>
<g id="a_edge31_Node000001_Node000032"><a xlink:title=" ">
<path fill="none" stroke="#63b8ff" d="M3003.55,-127.9C3186.18,-123.19 3698.29,-108.26 3865,-85 3874.22,-83.71 3884.1,-81.69 3893.13,-79.57"/>
<polygon fill="#63b8ff" stroke="#63b8ff" points="3003.2,-124.41 2993.29,-128.16 3003.38,-131.4 3003.2,-124.41"/>
</a>
</g>
</g>
<!-- Node33 -->
<g id="Node000033" class="node">
<title>Node33</title>
<g id="a_Node000033"><a xlink:href="caja-zoom-control_8c.html" target="_top" xlink:title=" ">
<polygon fill="white" stroke="#666666" points="4098.5,-79.5 3993.5,-79.5 3993.5,-60.5 4098.5,-60.5 4098.5,-79.5"/>
<text text-anchor="middle" x="4046" y="-67.5" font-family="Inter" font-size="10.00">caja&#45;zoom&#45;control.c</text>
</a>
</g>
</g>
<!-- Node1&#45;&gt;Node33 -->
<g id="edge32_Node000001_Node000033" class="edge">
<title>Node1&#45;&gt;Node33</title>
<g id="a_edge32_Node000001_Node000033"><a xlink:title=" ">
<path fill="none" stroke="#63b8ff" d="M3003.27,-128.26C3201.25,-124.25 3793.05,-110.41 3984,-85 3993.63,-83.72 4003.96,-81.66 4013.38,-79.52"/>
<polygon fill="#63b8ff" stroke="#63b8ff" points="3002.95,-124.76 2993.03,-128.46 3003.1,-131.76 3002.95,-124.76"/>
</a>
</g>
</g>
<!-- Node34 -->
<g id="Node000034" class="node">
<title>Node34</title>
<g id="a_Node000034"><a xlink:href="eel-art-gtk-extensions_8h.html" target="_top" xlink:title=" ">
<polygon fill="white" stroke="#666666" points="4320.5,-79.5 4193.5,-79.5 4193.5,-60.5 4320.5,-60.5 4320.5,-79.5"/>
<text text-anchor="middle" x="4257" y="-67.5" font-family="Inter" font-size="10.00">eel&#45;art&#45;gtk&#45;extensions.h</text>
</a>
</g>
</g>
<!-- Node1&#45;&gt;Node34 -->
<g id="edge33_Node000001_Node000034" class="edge">
<title>Node1&#45;&gt;Node34</title>
<g id="a_edge33_Node000001_Node000034"><a xlink:title=" ">
<path fill="none" stroke="#63b8ff" d="M3003.39,-128.38C3225.17,-124.39 3947.81,-109.77 4179,-85 4191.04,-83.71 4204.02,-81.65 4215.87,-79.51"/>
<polygon fill="#63b8ff" stroke="#63b8ff" points="3003.15,-124.88 2993.21,-128.56 3003.27,-131.88 3003.15,-124.88"/>
</a>
</g>
</g>
<!-- Node36 -->
<g id="Node000036" class="node">
<title>Node36</title>
<g id="a_Node000036"><a xlink:href="eel-image-table_8c.html" target="_top" xlink:title=" ">
<polygon fill="white" stroke="#666666" points="4051,-19 3955,-19 3955,0 4051,0 4051,-19"/>
<text text-anchor="middle" x="4003" y="-7" font-family="Inter" font-size="10.00">eel&#45;image&#45;table.c</text>
</a>
</g>
</g>
<!-- Node1&#45;&gt;Node36 -->
<g id="edge41_Node000001_Node000036" class="edge">
<title>Node1&#45;&gt;Node36</title>
<g id="a_edge41_Node000001_Node000036"><a xlink:title=" ">
<path fill="none" stroke="#63b8ff" d="M3003.42,-129.49C3244.11,-129.13 4068.53,-124.96 4107,-85 4116.25,-75.39 4114.34,-66.13 4107,-55 4094.45,-35.98 4071.92,-25.07 4051.03,-18.81"/>
<polygon fill="#63b8ff" stroke="#63b8ff" points="3003.07,-125.99 2993.08,-129.5 3003.08,-132.99 3003.07,-125.99"/>
</a>
</g>
</g>
<!-- Node37 -->
<g id="Node000037" class="node">
<title>Node37</title>
<g id="a_Node000037"><a xlink:href="eel-labeled-image_8c.html" target="_top" xlink:title=" ">
<polygon fill="white" stroke="#666666" points="4176.5,-19 4069.5,-19 4069.5,0 4176.5,0 4176.5,-19"/>
<text text-anchor="middle" x="4123" y="-7" font-family="Inter" font-size="10.00">eel&#45;labeled&#45;image.c</text>
</a>
</g>
</g>
<!-- Node1&#45;&gt;Node37 -->
<g id="edge42_Node000001_Node000037" class="edge">
<title>Node1&#45;&gt;Node37</title>
<g id="a_edge42_Node000001_Node000037"><a xlink:title=" ">
<path fill="none" stroke="#63b8ff" d="M3003.24,-129.53C3246.1,-129.31 4085.86,-125.63 4125,-85 4142.05,-67.29 4132.69,-34.83 4126.73,-19.27"/>
<polygon fill="#63b8ff" stroke="#63b8ff" points="3003.15,-126.03 2993.15,-129.53 3003.15,-133.03 3003.15,-126.03"/>
</a>
</g>
</g>
<!-- Node38 -->
<g id="Node000038" class="node">
<title>Node38</title>
<g id="a_Node000038"><a xlink:href="eel-wrap-table_8c.html" target="_top" xlink:title=" ">
<polygon fill="white" stroke="#666666" points="4428,-19 4338,-19 4338,0 4428,0 4428,-19"/>
<text text-anchor="middle" x="4383" y="-7" font-family="Inter" font-size="10.00">eel&#45;wrap&#45;table.c</text>
</a>
</g>
</g>
<!-- Node1&#45;&gt;Node38 -->
<g id="edge44_Node000001_Node000038" class="edge">
<title>Node1&#45;&gt;Node38</title>
<g id="a_edge44_Node000001_Node000038"><a xlink:title=" ">
<path fill="none" stroke="#63b8ff" d="M3003.67,-129.02C3271.64,-126.84 4270.99,-116.64 4330,-85 4356.86,-70.6 4373.24,-35.89 4379.75,-19.44"/>
<polygon fill="#63b8ff" stroke="#63b8ff" points="3003.3,-125.52 2993.32,-129.1 3003.35,-132.52 3003.3,-125.52"/>
</a>
</g>
</g>
<!-- Node39 -->
<g id="Node000039" class="node">
<title>Node39</title>
<g id="a_Node000039"><a xlink:href="eel_8h.html" target="_top" xlink:title=" ">
<polygon fill="#fff0f0" stroke="red" points="4486,-19 4446,-19 4446,0 4486,0 4486,-19"/>
<text text-anchor="middle" x="4466" y="-7" font-family="Inter" font-size="10.00">eel.h</text>
</a>
</g>
</g>
<!-- Node1&#45;&gt;Node39 -->
<g id="edge45_Node000001_Node000039" class="edge">
<title>Node1&#45;&gt;Node39</title>
<g id="a_edge45_Node000001_Node000039"><a xlink:title=" ">
<path fill="none" stroke="#63b8ff" d="M3003.43,-129.64C3265.26,-129.88 4229.59,-127.85 4359,-85 4369.74,-81.44 4429.01,-37.97 4454.42,-19.12"/>
<polygon fill="#63b8ff" stroke="#63b8ff" points="3003.32,-126.14 2993.32,-129.63 3003.32,-133.14 3003.32,-126.14"/>
</a>
</g>
</g>
<!-- Node47 -->
<g id="Node000047" class="node">
<title>Node47</title>
<g id="a_Node000047"><a xlink:href="eel-editable-label_8c.html" target="_top" xlink:title=" ">
<polygon fill="white" stroke="#666666" points="4519,-79.5 4415,-79.5 4415,-60.5 4519,-60.5 4519,-79.5"/>
<text text-anchor="middle" x="4467" y="-67.5" font-family="Inter" font-size="10.00">eel&#45;editable&#45;label.c</text>
</a>
</g>
</g>
<!-- Node1&#45;&gt;Node47 -->
<g id="edge39_Node000001_Node000047" class="edge">
<title>Node1&#45;&gt;Node47</title>
<g id="a_edge39_Node000001_Node000047"><a xlink:title=" ">
<path fill="none" stroke="#63b8ff" d="M3003.61,-129.06C3250.64,-127.17 4124.77,-118.23 4401,-85 4411.35,-83.75 4422.48,-81.68 4432.6,-79.51"/>
<polygon fill="#63b8ff" stroke="#63b8ff" points="3003.33,-125.56 2993.35,-129.14 3003.38,-132.56 3003.33,-125.56"/>
</a>
</g>
</g>
<!-- Node48 -->
<g id="Node000048" class="node">
<title>Node48</title>
<g id="a_Node000048"><a xlink:href="eel-gtk-extensions_8c.html" target="_top" xlink:title=" ">
<polygon fill="white" stroke="#666666" points="4646.5,-79.5 4537.5,-79.5 4537.5,-60.5 4646.5,-60.5 4646.5,-79.5"/>
<text text-anchor="middle" x="4592" y="-67.5" font-family="Inter" font-size="10.00">eel&#45;gtk&#45;extensions.c</text>
</a>
</g>
</g>
<!-- Node1&#45;&gt;Node48 -->
<g id="edge40_Node000001_Node000048" class="edge">
<title>Node1&#45;&gt;Node48</title>
<g id="a_edge40_Node000001_Node000048"><a xlink:title=" ">
<path fill="none" stroke="#63b8ff" d="M3003.19,-129.3C3263.04,-128.27 4225.55,-121.98 4528,-85 4538.05,-83.77 4548.84,-81.7 4558.66,-79.53"/>
<polygon fill="#63b8ff" stroke="#63b8ff" points="3003.14,-125.8 2993.15,-129.34 3003.16,-132.8 3003.14,-125.8"/>
</a>
</g>
</g>
<!-- Node49 -->
<g id="Node000049" class="node">
<title>Node49</title>
<g id="a_Node000049"><a xlink:href="eel-stock-dialogs_8c.html" target="_top" xlink:title=" ">
<polygon fill="white" stroke="#666666" points="4765.5,-79.5 4664.5,-79.5 4664.5,-60.5 4765.5,-60.5 4765.5,-79.5"/>
<text text-anchor="middle" x="4715" y="-67.5" font-family="Inter" font-size="10.00">eel&#45;stock&#45;dialogs.c</text>
</a>
</g>
</g>
<!-- Node1&#45;&gt;Node49 -->
<g id="edge43_Node000001_Node000049" class="edge">
<title>Node1&#45;&gt;Node49</title>
<g id="a_edge43_Node000001_Node000049"><a xlink:title=" ">
<path fill="none" stroke="#63b8ff" d="M3003.41,-129.62C3276.61,-129.82 4327.56,-127.75 4656,-85 4665.29,-83.79 4675.25,-81.73 4684.3,-79.56"/>
<polygon fill="#63b8ff" stroke="#63b8ff" points="3003.26,-126.12 2993.26,-129.61 3003.26,-133.12 3003.26,-126.12"/>
</a>
</g>
</g>
<!-- Node50 -->
<g id="Node000050" class="node">
<title>Node50</title>
<g id="a_Node000050"><a xlink:href="fm-desktop-icon-view_8c.html" target="_top" xlink:title=" ">
<polygon fill="white" stroke="#666666" points="4906,-79.5 4784,-79.5 4784,-60.5 4906,-60.5 4906,-79.5"/>
<text text-anchor="middle" x="4845" y="-67.5" font-family="Inter" font-size="10.00">fm&#45;desktop&#45;icon&#45;view.c</text>
</a>
</g>
</g>
<!-- Node1&#45;&gt;Node50 -->
<g id="edge46_Node000001_Node000050" class="edge">
<title>Node1&#45;&gt;Node50</title>
<g id="a_edge46_Node000001_Node000050"><a xlink:title=" ">
<path fill="none" stroke="#63b8ff" d="M3003.16,-129.43C3287.49,-128.92 4421.09,-124.38 4775,-85 4785.96,-83.78 4797.76,-81.72 4808.49,-79.54"/>
<polygon fill="#63b8ff" stroke="#63b8ff" points="3003,-125.93 2993.01,-129.45 3003.01,-132.93 3003,-125.93"/>
</a>
</g>
</g>
<!-- Node51 -->
<g id="Node000051" class="node">
<title>Node51</title>
<g id="a_Node000051"><a xlink:href="fm-desktop-wayland-bg-dialog_8c.html" target="_top" xlink:title=" ">
<polygon fill="white" stroke="#666666" points="5034,-85 4924,-85 4924,-55 5034,-55 5034,-85"/>
<text text-anchor="start" x="4932" y="-73" font-family="Inter" font-size="10.00">fm&#45;desktop&#45;wayland</text>
<text text-anchor="middle" x="4979" y="-62" font-family="Inter" font-size="10.00">&#45;bg&#45;dialog.c</text>
</a>
</g>
</g>
<!-- Node1&#45;&gt;Node51 -->
<g id="edge47_Node000001_Node000051" class="edge">
<title>Node1&#45;&gt;Node51</title>
<g id="a_edge47_Node000001_Node000051"><a xlink:title=" ">
<path fill="none" stroke="#63b8ff" d="M3003.2,-129.72C3300.83,-130.48 4532.41,-130.72 4915,-85 4917.94,-84.65 4920.94,-84.23 4923.96,-83.75"/>
<polygon fill="#63b8ff" stroke="#63b8ff" points="3003.02,-126.22 2993.01,-129.69 3003,-133.22 3003.02,-126.22"/>
</a>
</g>
</g>
<!-- Node52 -->
<g id="Node000052" class="node">
<title>Node52</title>
<g id="a_Node000052"><a xlink:href="fm-directory-view_8c.html" target="_top" xlink:title=" ">
<polygon fill="white" stroke="#666666" points="5157.5,-79.5 5052.5,-79.5 5052.5,-60.5 5157.5,-60.5 5157.5,-79.5"/>
<text text-anchor="middle" x="5105" y="-67.5" font-family="Inter" font-size="10.00">fm&#45;directory&#45;view.c</text>
</a>
</g>
</g>
<!-- Node1&#45;&gt;Node52 -->
<g id="edge48_Node000001_Node000052" class="edge">
<title>Node1&#45;&gt;Node52</title>
<g id="a_edge48_Node000001_Node000052"><a xlink:title=" ">
<path fill="none" stroke="#63b8ff" d="M3003.47,-128.9C3336.72,-125.74 4836.78,-110.2 5043,-85 5052.86,-83.8 5063.45,-81.71 5073.04,-79.51"/>
<polygon fill="#63b8ff" stroke="#63b8ff" points="3003,-125.4 2993.03,-129 3003.06,-132.4 3003,-125.4"/>
</a>
</g>
</g>
<!-- Node53 -->
<g id="Node000053" class="node">
<title>Node53</title>
<g id="a_Node000053"><a xlink:href="fm-icon-view_8c.html" target="_top" xlink:title=" ">
<polygon fill="white" stroke="#666666" points="5258,-79.5 5176,-79.5 5176,-60.5 5258,-60.5 5258,-79.5"/>
<text text-anchor="middle" x="5217" y="-67.5" font-family="Inter" font-size="10.00">fm&#45;icon&#45;view.c</text>
</a>
</g>
</g>
<!-- Node1&#45;&gt;Node53 -->
<g id="edge49_Node000001_Node000053" class="edge">
<title>Node1&#45;&gt;Node53</title>
<g id="a_edge49_Node000001_Node000053"><a xlink:title=" ">
<path fill="none" stroke="#63b8ff" d="M3003.17,-129.18C3347.61,-127.36 4948.5,-117.24 5167,-85 5175.03,-83.82 5183.59,-81.73 5191.32,-79.53"/>
<polygon fill="#63b8ff" stroke="#63b8ff" points="3003.09,-125.68 2993.11,-129.23 3003.13,-132.68 3003.09,-125.68"/>
</a>
</g>
</g>
<!-- Node54 -->
<g id="Node000054" class="node">
<title>Node54</title>
<g id="a_Node000054"><a xlink:href="fm-properties-window_8c.html" target="_top" xlink:title=" ">
<polygon fill="white" stroke="#666666" points="5403.5,-79.5 5276.5,-79.5 5276.5,-60.5 5403.5,-60.5 5403.5,-79.5"/>
<text text-anchor="middle" x="5340" y="-67.5" font-family="Inter" font-size="10.00">fm&#45;properties&#45;window.c</text>
</a>
</g>
</g>
<!-- Node1&#45;&gt;Node54 -->
<g id="edge50_Node000001_Node000054" class="edge">
<title>Node1&#45;&gt;Node54</title>
<g id="a_edge50_Node000001_Node000054"><a xlink:title=" ">
<path fill="none" stroke="#63b8ff" d="M3003.43,-129.76C3332.7,-130.82 4810.54,-132.78 5267,-85 5278.55,-83.79 5291,-81.7 5302.29,-79.5"/>
<polygon fill="#63b8ff" stroke="#63b8ff" points="3003.13,-126.26 2993.12,-129.72 3003.1,-133.26 3003.13,-126.26"/>
</a>
</g>
</g>
<!-- Node55 -->
<g id="Node000055" class="node">
<title>Node55</title>
<g id="a_Node000055"><a xlink:href="fm-tree-view_8c.html" target="_top" xlink:title=" ">
<polygon fill="white" stroke="#666666" points="5504.5,-79.5 5421.5,-79.5 5421.5,-60.5 5504.5,-60.5 5504.5,-79.5"/>
<text text-anchor="middle" x="5463" y="-67.5" font-family="Inter" font-size="10.00">fm&#45;tree&#45;view.c</text>
</a>
</g>
</g>
<!-- Node1&#45;&gt;Node55 -->
<g id="edge51_Node000001_Node000055" class="edge">
<title>Node1&#45;&gt;Node55</title>
<g id="a_edge51_Node000001_Node000055"><a xlink:title=" ">
<path fill="none" stroke="#63b8ff" d="M3003.42,-129.32C3370.76,-128.18 5168.85,-120.77 5413,-85 5421.03,-83.82 5429.59,-81.74 5437.32,-79.54"/>
<polygon fill="#63b8ff" stroke="#63b8ff" points="3003.22,-125.82 2993.23,-129.35 3003.24,-132.82 3003.22,-125.82"/>
</a>
</g>
</g>
<!-- Node35 -->
<g id="Node000035" class="node">
<title>Node35</title>
<g id="a_Node000035"><a xlink:href="eel-art-gtk-extensions_8c.html" target="_top" xlink:title=" ">
<polygon fill="white" stroke="#666666" points="4319.5,-19 4194.5,-19 4194.5,0 4319.5,0 4319.5,-19"/>
<text text-anchor="middle" x="4257" y="-7" font-family="Inter" font-size="10.00">eel&#45;art&#45;gtk&#45;extensions.c</text>
</a>
</g>
</g>
<!-- Node34&#45;&gt;Node35 -->
<g id="edge34_Node000034_Node000035" class="edge">
<title>Node34&#45;&gt;Node35</title>
<g id="a_edge34_Node000034_Node000035"><a xlink:title=" ">
<path fill="none" stroke="#63b8ff" d="M4257,-50.16C4257,-39.74 4257,-27.3 4257,-19.17"/>
<polygon fill="#63b8ff" stroke="#63b8ff" points="4253.5,-50.37 4257,-60.37 4260.5,-50.37 4253.5,-50.37"/>
</a>
</g>
</g>
<!-- Node34&#45;&gt;Node36 -->
<g id="edge35_Node000034_Node000036" class="edge">
<title>Node34&#45;&gt;Node36</title>
<g id="a_edge35_Node000034_Node000036"><a xlink:title=" ">
<path fill="none" stroke="#63b8ff" d="M4210.02,-58.18C4160.94,-46.88 4084.96,-29.38 4039.98,-19.02"/>
<polygon fill="#63b8ff" stroke="#63b8ff" points="4209.54,-61.66 4220.07,-60.49 4211.11,-54.84 4209.54,-61.66"/>
</a>
</g>
</g>
<!-- Node34&#45;&gt;Node37 -->
<g id="edge36_Node000034_Node000037" class="edge">
<title>Node34&#45;&gt;Node37</title>
<g id="a_edge36_Node000034_Node000037"><a xlink:title=" ">
<path fill="none" stroke="#63b8ff" d="M4228.21,-56.43C4202.34,-45.14 4165.05,-28.86 4142.51,-19.02"/>
<polygon fill="#63b8ff" stroke="#63b8ff" points="4226.95,-59.7 4237.52,-60.49 4229.75,-53.28 4226.95,-59.7"/>
</a>
</g>
</g>
<!-- Node34&#45;&gt;Node38 -->
<g id="edge37_Node000034_Node000038" class="edge">
<title>Node34&#45;&gt;Node38</title>
<g id="a_edge37_Node000034_Node000038"><a xlink:title=" ">
<path fill="none" stroke="#63b8ff" d="M4284.71,-56.13C4309.01,-44.85 4343.65,-28.77 4364.66,-19.02"/>
<polygon fill="#63b8ff" stroke="#63b8ff" points="4282.92,-53.11 4275.32,-60.49 4285.87,-59.46 4282.92,-53.11"/>
</a>
</g>
</g>
<!-- Node34&#45;&gt;Node39 -->
<g id="edge38_Node000034_Node000039" class="edge">
<title>Node34&#45;&gt;Node39</title>
<g id="a_edge38_Node000034_Node000039"><a xlink:title=" ">
<path fill="none" stroke="#63b8ff" d="M4298.05,-57.78C4334.56,-47.75 4389.39,-32.59 4437,-19 4439.83,-18.19 4442.8,-17.33 4445.73,-16.48"/>
<polygon fill="#63b8ff" stroke="#63b8ff" points="4296.97,-54.44 4288.25,-60.46 4298.82,-61.19 4296.97,-54.44"/>
</a>
</g>
</g>
</g>
</svg>
