<?xml version="1.0" encoding="UTF-8" standalone="no"?>
<!DOCTYPE svg PUBLIC "-//W3C//DTD SVG 1.1//EN"
 "http://www.w3.org/Graphics/SVG/1.1/DTD/svg11.dtd">
<!-- Generated by graphviz version 2.43.0 (0)
 -->
<!-- Title: eel&#45;accessibility.c Pages: 1 -->
<svg width="704pt" height="137pt"
 viewBox="0.00 0.00 703.50 137.00" xmlns="http://www.w3.org/2000/svg" xmlns:xlink="http://www.w3.org/1999/xlink">
<g id="graph0" class="graph" transform="scale(1 1) rotate(0) translate(4 133)">
<title>eel&#45;accessibility.c</title>
<!-- Node1 -->
<g id="Node000001" class="node">
<title>Node1</title>
<g id="a_Node000001"><a xlink:title=" ">
<polygon fill="#999999" stroke="#666666" points="170,-129 76,-129 76,-110 170,-110 170,-129"/>
<text text-anchor="middle" x="123" y="-117" font-family="Inter" font-size="10.00">eel&#45;accessibility.c</text>
</a>
</g>
</g>
<!-- Node2 -->
<g id="Node000002" class="node">
<title>Node2</title>
<g id="a_Node000002"><a xlink:title=" ">
<polygon fill="#e0e0e0" stroke="#999999" points="54,-74 0,-74 0,-55 54,-55 54,-74"/>
<text text-anchor="middle" x="27" y="-62" font-family="Inter" font-size="10.00">config.h</text>
</a>
</g>
</g>
<!-- Node1&#45;&gt;Node2 -->
<g id="edge1_Node000001_Node000002" class="edge">
<title>Node1&#45;&gt;Node2</title>
<g id="a_edge1_Node000001_Node000002"><a xlink:title=" ">
<path fill="none" stroke="#63b8ff" d="M107.58,-109.98C92.55,-101.69 69.46,-88.94 51.84,-79.22"/>
<polygon fill="#63b8ff" stroke="#63b8ff" points="53.15,-75.94 42.7,-74.17 49.77,-82.07 53.15,-75.94"/>
</a>
</g>
</g>
<!-- Node3 -->
<g id="Node000003" class="node">
<title>Node3</title>
<g id="a_Node000003"><a xlink:title=" ">
<polygon fill="#e0e0e0" stroke="#999999" points="111.5,-19 52.5,-19 52.5,0 111.5,0 111.5,-19"/>
<text text-anchor="middle" x="82" y="-7" font-family="Inter" font-size="10.00">gtk/gtk.h</text>
</a>
</g>
</g>
<!-- Node1&#45;&gt;Node3 -->
<g id="edge2_Node000001_Node000003" class="edge">
<title>Node1&#45;&gt;Node3</title>
<g id="a_edge2_Node000001_Node000003"><a xlink:title=" ">
<path fill="none" stroke="#63b8ff" d="M118.17,-109.83C113.38,-101.01 106.05,-86.83 101,-74 95.2,-59.26 90.14,-42.01 86.71,-29.21"/>
<polygon fill="#63b8ff" stroke="#63b8ff" points="90.03,-28.08 84.13,-19.28 83.26,-29.84 90.03,-28.08"/>
</a>
</g>
</g>
<!-- Node4 -->
<g id="Node000004" class="node">
<title>Node4</title>
<g id="a_Node000004"><a xlink:title=" ">
<polygon fill="#e0e0e0" stroke="#999999" points="217.5,-74 110.5,-74 110.5,-55 217.5,-55 217.5,-74"/>
<text text-anchor="middle" x="164" y="-62" font-family="Inter" font-size="10.00">atk/atkrelationset.h</text>
</a>
</g>
</g>
<!-- Node1&#45;&gt;Node4 -->
<g id="edge3_Node000001_Node000004" class="edge">
<title>Node1&#45;&gt;Node4</title>
<g id="a_edge3_Node000001_Node000004"><a xlink:title=" ">
<path fill="none" stroke="#63b8ff" d="M129.77,-109.75C135.56,-102.26 144.06,-91.28 151.14,-82.13"/>
<polygon fill="#63b8ff" stroke="#63b8ff" points="154.01,-84.14 157.36,-74.09 148.47,-79.86 154.01,-84.14"/>
</a>
</g>
</g>
<!-- Node5 -->
<g id="Node000005" class="node">
<title>Node5</title>
<g id="a_Node000005"><a xlink:href="eel-accessibility_8h.html" target="_top" xlink:title=" ">
<polygon fill="white" stroke="#666666" points="330.5,-74 235.5,-74 235.5,-55 330.5,-55 330.5,-74"/>
<text text-anchor="middle" x="283" y="-62" font-family="Inter" font-size="10.00">eel&#45;accessibility.h</text>
</a>
</g>
</g>
<!-- Node1&#45;&gt;Node5 -->
<g id="edge4_Node000001_Node000005" class="edge">
<title>Node1&#45;&gt;Node5</title>
<g id="a_edge4_Node000001_Node000005"><a xlink:title=" ">
<path fill="none" stroke="#63b8ff" d="M148.71,-109.98C175.45,-101.13 217.53,-87.19 247.45,-77.28"/>
<polygon fill="#63b8ff" stroke="#63b8ff" points="248.7,-80.55 257.09,-74.08 246.5,-73.9 248.7,-80.55"/>
</a>
</g>
</g>
<!-- Node5&#45;&gt;Node3 -->
<g id="edge9_Node000005_Node000003" class="edge">
<title>Node5&#45;&gt;Node3</title>
<g id="a_edge9_Node000005_Node000003"><a xlink:title=" ">
<path fill="none" stroke="#63b8ff" d="M250.71,-54.98C215.61,-45.73 159.5,-30.94 121.73,-20.98"/>
<polygon fill="#63b8ff" stroke="#63b8ff" points="122.16,-17.47 111.59,-18.3 120.37,-24.24 122.16,-17.47"/>
</a>
</g>
</g>
<!-- Node6 -->
<g id="Node000006" class="node">
<title>Node6</title>
<g id="a_Node000006"><a xlink:title=" ">
<polygon fill="#e0e0e0" stroke="#999999" points="204,-19 130,-19 130,0 204,0 204,-19"/>
<text text-anchor="middle" x="167" y="-7" font-family="Inter" font-size="10.00">glib&#45;object.h</text>
</a>
</g>
</g>
<!-- Node5&#45;&gt;Node6 -->
<g id="edge5_Node000005_Node000006" class="edge">
<title>Node5&#45;&gt;Node6</title>
<g id="a_edge5_Node000005_Node000006"><a xlink:title=" ">
<path fill="none" stroke="#63b8ff" d="M264.36,-54.98C245.7,-46.46 216.75,-33.23 195.26,-23.41"/>
<polygon fill="#63b8ff" stroke="#63b8ff" points="196.53,-20.14 185.98,-19.17 193.62,-26.51 196.53,-20.14"/>
</a>
</g>
</g>
<!-- Node7 -->
<g id="Node000007" class="node">
<title>Node7</title>
<g id="a_Node000007"><a xlink:title=" ">
<polygon fill="#e0e0e0" stroke="#999999" points="308,-19 222,-19 222,0 308,0 308,-19"/>
<text text-anchor="middle" x="265" y="-7" font-family="Inter" font-size="10.00">atk/atkobject.h</text>
</a>
</g>
</g>
<!-- Node5&#45;&gt;Node7 -->
<g id="edge6_Node000005_Node000007" class="edge">
<title>Node5&#45;&gt;Node7</title>
<g id="a_edge6_Node000005_Node000007"><a xlink:title=" ">
<path fill="none" stroke="#63b8ff" d="M280.03,-54.75C277.64,-47.72 274.21,-37.62 271.23,-28.84"/>
<polygon fill="#63b8ff" stroke="#63b8ff" points="274.45,-27.43 267.92,-19.09 267.82,-29.68 274.45,-27.43"/>
</a>
</g>
</g>
<!-- Node8 -->
<g id="Node000008" class="node">
<title>Node8</title>
<g id="a_Node000008"><a xlink:title=" ">
<polygon fill="#e0e0e0" stroke="#999999" points="419.5,-19 326.5,-19 326.5,0 419.5,0 419.5,-19"/>
<text text-anchor="middle" x="373" y="-7" font-family="Inter" font-size="10.00">atk/atkregistry.h</text>
</a>
</g>
</g>
<!-- Node5&#45;&gt;Node8 -->
<g id="edge7_Node000005_Node000008" class="edge">
<title>Node5&#45;&gt;Node8</title>
<g id="a_edge7_Node000005_Node000008"><a xlink:title=" ">
<path fill="none" stroke="#63b8ff" d="M297.46,-54.98C311.42,-46.77 332.79,-34.18 349.25,-24.49"/>
<polygon fill="#63b8ff" stroke="#63b8ff" points="351.44,-27.26 358.28,-19.17 347.88,-21.23 351.44,-27.26"/>
</a>
</g>
</g>
<!-- Node9 -->
<g id="Node000009" class="node">
<title>Node9</title>
<g id="a_Node000009"><a xlink:title=" ">
<polygon fill="#e0e0e0" stroke="#999999" points="556.5,-19 437.5,-19 437.5,0 556.5,0 556.5,-19"/>
<text text-anchor="middle" x="497" y="-7" font-family="Inter" font-size="10.00">atk/atkobjectfactory.h</text>
</a>
</g>
</g>
<!-- Node5&#45;&gt;Node9 -->
<g id="edge8_Node000005_Node000009" class="edge">
<title>Node5&#45;&gt;Node9</title>
<g id="a_edge8_Node000005_Node000009"><a xlink:title=" ">
<path fill="none" stroke="#63b8ff" d="M317.38,-54.98C354.09,-45.89 412.38,-31.46 452.55,-21.51"/>
<polygon fill="#63b8ff" stroke="#63b8ff" points="453.48,-24.88 462.35,-19.08 451.8,-18.09 453.48,-24.88"/>
</a>
</g>
</g>
<!-- Node10 -->
<g id="Node000010" class="node">
<title>Node10</title>
<g id="a_Node000010"><a xlink:title=" ">
<polygon fill="#e0e0e0" stroke="#999999" points="695.5,-19 574.5,-19 574.5,0 695.5,0 695.5,-19"/>
<text text-anchor="middle" x="635" y="-7" font-family="Inter" font-size="10.00">libgail&#45;util/gailtextutil.h</text>
</a>
</g>
</g>
<!-- Node5&#45;&gt;Node10 -->
<g id="edge10_Node000005_Node000010" class="edge">
<title>Node5&#45;&gt;Node10</title>
<g id="a_edge10_Node000005_Node000010"><a xlink:title=" ">
<path fill="none" stroke="#63b8ff" d="M330.84,-56.3C392.29,-47.04 499.28,-30.94 568.59,-20.5"/>
<polygon fill="#63b8ff" stroke="#63b8ff" points="569.17,-23.95 578.53,-19 568.12,-17.03 569.17,-23.95"/>
</a>
</g>
</g>
</g>
</svg>
