<?xml version="1.0" encoding="UTF-8" standalone="no"?>
<!DOCTYPE svg PUBLIC "-//W3C//DTD SVG 1.1//EN"
 "http://www.w3.org/Graphics/SVG/1.1/DTD/svg11.dtd">
<!-- Generated by graphviz version 2.43.0 (0)
 -->
<!-- Title: eel&#45;art&#45;extensions.h Pages: 1 -->
<!--zoomable 203 -->

<svg id="main" version="1.1" xmlns="http://www.w3.org/2000/svg" xmlns:xlink="http://www.w3.org/1999/xlink" xml:space="preserve" onload="init(evt)">

<style type="text/css"><![CDATA[
.node, .edge {opacity: 0.7;}
.node.selected, .edge.selected {opacity: 1;}
.edge:hover path { stroke: red; }
.edge:hover polygon { stroke: red; fill: red; }
]]></style>

<defs>
  <circle id="rim" cx="0" cy="0" r="7"/>
  <circle id="rim2" cx="0" cy="0" r="3.5"/>
  <g id="zoomPlus">
    <use xlink:href="#rim" fill="#404040"><set attributeName="fill" to="#808080" begin="zoomplus.mouseover" end="zoomplus.mouseout"/></use>
    <path d="M-4,0h8M0,-4v8" fill="none" stroke="white" stroke-width="1.5" pointer-events="none"/>
  </g>
  <g id="zoomMin">
    <use xlink:href="#rim" fill="#404040"><set attributeName="fill" to="#808080" begin="zoomminus.mouseover" end="zoomminus.mouseout"/></use>
    <path d="M-4,0h8" fill="none" stroke="white" stroke-width="1.5" pointer-events="none"/>
  </g>
  <g id="arrowUp" transform="translate(30 24)">
    <use xlink:href="#rim"/>
    <path pointer-events="none" fill="none" stroke="white" stroke-width="1.5" d="M0,-3.0v7 M-2.5,-0.5L0,-3.0L2.5,-0.5"/>
  </g>
  <g id="arrowRight" transform="rotate(90) translate(36 -43)">
    <use xlink:href="#rim"/>
    <path pointer-events="none" fill="none" stroke="white" stroke-width="1.5" d="M0,-3.0v7 M-2.5,-0.5L0,-3.0L2.5,-0.5"/>
  </g>
  <g id="arrowDown" transform="rotate(180) translate(-30 -48)">
    <use xlink:href="#rim"/>
    <path pointer-events="none" fill="none" stroke="white" stroke-width="1.5" d="M0,-3.0v7 M-2.5,-0.5L0,-3.0L2.5,-0.5"/>
  </g>
  <g id="arrowLeft" transform="rotate(270) translate(-36 17)">
    <use xlink:href="#rim"/>
    <path pointer-events="none" fill="none" stroke="white" stroke-width="1.5" d="M0,-3.0v7 M-2.5,-0.5L0,-3.0L2.5,-0.5"/>
  </g>
  <g id="resetDef">
    <use xlink:href="#rim2" fill="#404040"><set attributeName="fill" to="#808080" begin="reset.mouseover" end="reset.mouseout"/></use>
  </g>
</defs>
<script type="application/ecmascript">
var viewWidth = 2141;
var viewHeight = 203;
var sectionId = 'dynsection-1';
</script>
<script type="application/ecmascript" xlink:href="svg.min.js"/>
<svg id="graph" class="graph">
<g id="viewport">
<title>eel&#45;art&#45;extensions.h</title>
<!-- Node1 -->
<g id="Node000001" class="node">
<title>Node1</title>
<g id="a_Node000001"><a xlink:title=" ">
<polygon fill="#999999" stroke="#666666" points="783,-195 674,-195 674,-176 783,-176 783,-195"/>
<text text-anchor="middle" x="728.5" y="-183" font-family="Inter" font-size="10.00">eel&#45;art&#45;extensions.h</text>
</a>
</g>
</g>
<!-- Node2 -->
<g id="Node000002" class="node">
<title>Node2</title>
<g id="a_Node000002"><a xlink:href="caja-icon-canvas-item_8c.html" target="_top" xlink:title=" ">
<polygon fill="white" stroke="#666666" points="121,-19 0,-19 0,0 121,0 121,-19"/>
<text text-anchor="middle" x="60.5" y="-7" font-family="Inter" font-size="10.00">caja&#45;icon&#45;canvas&#45;item.c</text>
</a>
</g>
</g>
<!-- Node1&#45;&gt;Node2 -->
<g id="edge1_Node000001_Node000002" class="edge">
<title>Node1&#45;&gt;Node2</title>
<g id="a_edge1_Node000001_Node000002"><a xlink:title=" ">
<path fill="none" stroke="#63b8ff" d="M663.65,-184.3C509.79,-183.23 132.34,-176.83 89.5,-140 53.16,-108.76 56.73,-42.8 59.34,-19.16"/>
<polygon fill="#63b8ff" stroke="#63b8ff" points="663.87,-187.8 673.89,-184.37 663.91,-180.8 663.87,-187.8"/>
</a>
</g>
</g>
<!-- Node3 -->
<g id="Node000003" class="node">
<title>Node3</title>
<g id="a_Node000003"><a xlink:href="caja-icon-canvas-item_8h.html" target="_top" xlink:title=" ">
<polygon fill="white" stroke="#666666" points="220.5,-140 98.5,-140 98.5,-121 220.5,-121 220.5,-140"/>
<text text-anchor="middle" x="159.5" y="-128" font-family="Inter" font-size="10.00">caja&#45;icon&#45;canvas&#45;item.h</text>
</a>
</g>
</g>
<!-- Node1&#45;&gt;Node3 -->
<g id="edge2_Node000001_Node000003" class="edge">
<title>Node1&#45;&gt;Node3</title>
<g id="a_edge2_Node000001_Node000003"><a xlink:title=" ">
<path fill="none" stroke="#63b8ff" d="M663.92,-178.48C553.29,-168.18 329.01,-147.29 220.73,-137.2"/>
<polygon fill="#63b8ff" stroke="#63b8ff" points="663.66,-181.98 673.94,-179.42 664.31,-175.01 663.66,-181.98"/>
</a>
</g>
</g>
<!-- Node5 -->
<g id="Node000005" class="node">
<title>Node5</title>
<g id="a_Node000005"><a xlink:href="caja-icon-container_8c.html" target="_top" xlink:title=" ">
<polygon fill="white" stroke="#666666" points="347.5,-19 239.5,-19 239.5,0 347.5,0 347.5,-19"/>
<text text-anchor="middle" x="293.5" y="-7" font-family="Inter" font-size="10.00">caja&#45;icon&#45;container.c</text>
</a>
</g>
</g>
<!-- Node1&#45;&gt;Node5 -->
<g id="edge9_Node000001_Node000005" class="edge">
<title>Node1&#45;&gt;Node5</title>
<g id="a_edge9_Node000001_Node000005"><a xlink:title=" ">
<path fill="none" stroke="#63b8ff" d="M663.7,-179.36C554.28,-169.17 340.38,-142.27 295.5,-85 280.5,-65.85 286.45,-34.65 290.67,-19.42"/>
<polygon fill="#63b8ff" stroke="#63b8ff" points="663.68,-182.87 673.96,-180.29 664.31,-175.9 663.68,-182.87"/>
</a>
</g>
</g>
<!-- Node9 -->
<g id="Node000009" class="node">
<title>Node9</title>
<g id="a_Node000009"><a xlink:href="eel-art-extensions_8c.html" target="_top" xlink:title=" ">
<polygon fill="white" stroke="#666666" points="2120,-19 2013,-19 2013,0 2120,0 2120,-19"/>
<text text-anchor="middle" x="2066.5" y="-7" font-family="Inter" font-size="10.00">eel&#45;art&#45;extensions.c</text>
</a>
</g>
</g>
<!-- Node1&#45;&gt;Node9 -->
<g id="edge10_Node000001_Node000009" class="edge">
<title>Node1&#45;&gt;Node9</title>
<g id="a_edge10_Node000001_Node000009"><a xlink:title=" ">
<path fill="none" stroke="#63b8ff" d="M793.19,-183.33C1000.86,-179.34 1649.23,-165.15 1857.5,-140 1979.08,-125.32 2050.03,-179.84 2127.5,-85 2135.93,-74.67 2133.54,-66.89 2127.5,-55 2119.01,-38.29 2100.97,-26.36 2086.7,-19.09"/>
<polygon fill="#63b8ff" stroke="#63b8ff" points="792.99,-179.83 783.05,-183.52 793.12,-186.83 792.99,-179.83"/>
</a>
</g>
</g>
<!-- Node10 -->
<g id="Node000010" class="node">
<title>Node10</title>
<g id="a_Node000010"><a xlink:href="eel-art-gtk-extensions_8h.html" target="_top" xlink:title=" ">
<polygon fill="white" stroke="#666666" points="700,-140 573,-140 573,-121 700,-121 700,-140"/>
<text text-anchor="middle" x="636.5" y="-128" font-family="Inter" font-size="10.00">eel&#45;art&#45;gtk&#45;extensions.h</text>
</a>
</g>
</g>
<!-- Node1&#45;&gt;Node10 -->
<g id="edge11_Node000001_Node000010" class="edge">
<title>Node1&#45;&gt;Node10</title>
<g id="a_edge11_Node000001_Node000010"><a xlink:title=" ">
<path fill="none" stroke="#63b8ff" d="M705.01,-170.97C688.19,-161.28 666.05,-148.52 651.55,-140.17"/>
<polygon fill="#63b8ff" stroke="#63b8ff" points="703.31,-174.03 713.72,-175.98 706.8,-167.96 703.31,-174.03"/>
</a>
</g>
</g>
<!-- Node12 -->
<g id="Node000012" class="node">
<title>Node12</title>
<g id="a_Node000012"><a xlink:href="eel-image-table_8c.html" target="_top" xlink:title=" ">
<polygon fill="white" stroke="#666666" points="652.5,-79.5 556.5,-79.5 556.5,-60.5 652.5,-60.5 652.5,-79.5"/>
<text text-anchor="middle" x="604.5" y="-67.5" font-family="Inter" font-size="10.00">eel&#45;image&#45;table.c</text>
</a>
</g>
</g>
<!-- Node1&#45;&gt;Node12 -->
<g id="edge22_Node000001_Node000012" class="edge">
<title>Node1&#45;&gt;Node12</title>
<g id="a_edge22_Node000001_Node000012"><a xlink:title=" ">
<path fill="none" stroke="#63b8ff" d="M663.68,-175.23C623,-167.93 575.96,-156.26 563.5,-140 547.99,-119.76 575.61,-93.2 592.62,-79.69"/>
<polygon fill="#63b8ff" stroke="#63b8ff" points="663.14,-178.69 673.59,-176.94 664.34,-171.79 663.14,-178.69"/>
</a>
</g>
</g>
<!-- Node13 -->
<g id="Node000013" class="node">
<title>Node13</title>
<g id="a_Node000013"><a xlink:href="eel-labeled-image_8c.html" target="_top" xlink:title=" ">
<polygon fill="white" stroke="#666666" points="778,-79.5 671,-79.5 671,-60.5 778,-60.5 778,-79.5"/>
<text text-anchor="middle" x="724.5" y="-67.5" font-family="Inter" font-size="10.00">eel&#45;labeled&#45;image.c</text>
</a>
</g>
</g>
<!-- Node1&#45;&gt;Node13 -->
<g id="edge23_Node000001_Node000013" class="edge">
<title>Node1&#45;&gt;Node13</title>
<g id="a_edge23_Node000001_Node000013"><a xlink:title=" ">
<path fill="none" stroke="#63b8ff" d="M727.84,-165.65C726.96,-140.74 725.45,-97.88 724.8,-79.63"/>
<polygon fill="#63b8ff" stroke="#63b8ff" points="724.35,-166.1 728.2,-175.97 731.34,-165.85 724.35,-166.1"/>
</a>
</g>
</g>
<!-- Node14 -->
<g id="Node000014" class="node">
<title>Node14</title>
<g id="a_Node000014"><a xlink:href="eel-wrap-table_8c.html" target="_top" xlink:title=" ">
<polygon fill="white" stroke="#666666" points="394.5,-79.5 304.5,-79.5 304.5,-60.5 394.5,-60.5 394.5,-79.5"/>
<text text-anchor="middle" x="349.5" y="-67.5" font-family="Inter" font-size="10.00">eel&#45;wrap&#45;table.c</text>
</a>
</g>
</g>
<!-- Node1&#45;&gt;Node14 -->
<g id="edge43_Node000001_Node000014" class="edge">
<title>Node1&#45;&gt;Node14</title>
<g id="a_edge43_Node000001_Node000014"><a xlink:title=" ">
<path fill="none" stroke="#63b8ff" d="M682.25,-173.56C647.26,-165.05 598.13,-152.61 555.5,-140 488.77,-120.27 411.23,-93.14 373.12,-79.52"/>
<polygon fill="#63b8ff" stroke="#63b8ff" points="681.63,-177.01 692.18,-175.96 683.28,-170.2 681.63,-177.01"/>
</a>
</g>
</g>
<!-- Node15 -->
<g id="Node000015" class="node">
<title>Node15</title>
<g id="a_Node000015"><a xlink:href="eel_8h.html" target="_top" xlink:title=" ">
<polygon fill="#fff0f0" stroke="red" points="955.5,-79.5 915.5,-79.5 915.5,-60.5 955.5,-60.5 955.5,-79.5"/>
<text text-anchor="middle" x="935.5" y="-67.5" font-family="Inter" font-size="10.00">eel.h</text>
</a>
</g>
</g>
<!-- Node1&#45;&gt;Node15 -->
<g id="edge44_Node000001_Node000015" class="edge">
<title>Node1&#45;&gt;Node15</title>
<g id="a_edge44_Node000001_Node000015"><a xlink:title=" ">
<path fill="none" stroke="#63b8ff" d="M793.53,-182.25C830.44,-177.82 875.34,-166.73 906.5,-140 925.04,-124.1 931.99,-94.34 934.37,-79.65"/>
<polygon fill="#63b8ff" stroke="#63b8ff" points="792.92,-178.79 783.35,-183.33 793.66,-185.76 792.92,-178.79"/>
</a>
</g>
</g>
<!-- Node23 -->
<g id="Node000023" class="node">
<title>Node23</title>
<g id="a_Node000023"><a xlink:href="eel-gtk-container_8c.html" target="_top" xlink:title=" ">
<polygon fill="white" stroke="#666666" points="897,-79.5 796,-79.5 796,-60.5 897,-60.5 897,-79.5"/>
<text text-anchor="middle" x="846.5" y="-67.5" font-family="Inter" font-size="10.00">eel&#45;gtk&#45;container.c</text>
</a>
</g>
</g>
<!-- Node1&#45;&gt;Node23 -->
<g id="edge17_Node000001_Node000023" class="edge">
<title>Node1&#45;&gt;Node23</title>
<g id="a_edge17_Node000001_Node000023"><a xlink:title=" ">
<path fill="none" stroke="#63b8ff" d="M741.99,-168.13C753.15,-154.92 769.69,-136.12 785.5,-121 801.73,-105.48 822.2,-89.33 834.82,-79.72"/>
<polygon fill="#63b8ff" stroke="#63b8ff" points="739.22,-165.99 735.49,-175.91 744.59,-170.48 739.22,-165.99"/>
</a>
</g>
</g>
<!-- Node24 -->
<g id="Node000024" class="node">
<title>Node24</title>
<g id="a_Node000024"><a xlink:href="eel-gtk-container_8h.html" target="_top" xlink:title=" ">
<polygon fill="white" stroke="#666666" points="898,-140 795,-140 795,-121 898,-121 898,-140"/>
<text text-anchor="middle" x="846.5" y="-128" font-family="Inter" font-size="10.00">eel&#45;gtk&#45;container.h</text>
</a>
</g>
</g>
<!-- Node1&#45;&gt;Node24 -->
<g id="edge18_Node000001_Node000024" class="edge">
<title>Node1&#45;&gt;Node24</title>
<g id="a_edge18_Node000001_Node000024"><a xlink:title=" ">
<path fill="none" stroke="#63b8ff" d="M756.85,-171.77C778.62,-161.99 808.09,-148.75 827.2,-140.17"/>
<polygon fill="#63b8ff" stroke="#63b8ff" points="755.15,-168.69 747.46,-175.98 758.01,-175.08 755.15,-168.69"/>
</a>
</g>
</g>
<!-- Node25 -->
<g id="Node000025" class="node">
<title>Node25</title>
<g id="a_Node000025"><a xlink:href="eel-labeled-image_8h.html" target="_top" xlink:title=" ">
<polygon fill="white" stroke="#666666" points="1091.5,-140 983.5,-140 983.5,-121 1091.5,-121 1091.5,-140"/>
<text text-anchor="middle" x="1037.5" y="-128" font-family="Inter" font-size="10.00">eel&#45;labeled&#45;image.h</text>
</a>
</g>
</g>
<!-- Node1&#45;&gt;Node25 -->
<g id="edge24_Node000001_Node000025" class="edge">
<title>Node1&#45;&gt;Node25</title>
<g id="a_edge24_Node000001_Node000025"><a xlink:title=" ">
<path fill="none" stroke="#63b8ff" d="M788.27,-174.25C846.3,-164.3 933.35,-149.36 987.72,-140.04"/>
<polygon fill="#63b8ff" stroke="#63b8ff" points="787.41,-170.84 778.15,-175.98 788.59,-177.74 787.41,-170.84"/>
</a>
</g>
</g>
<!-- Node29 -->
<g id="Node000029" class="node">
<title>Node29</title>
<g id="a_Node000029"><a xlink:href="eel-self-checks_8h.html" target="_top" xlink:title=" ">
<polygon fill="white" stroke="#666666" points="1848,-140 1755,-140 1755,-121 1848,-121 1848,-140"/>
<text text-anchor="middle" x="1801.5" y="-128" font-family="Inter" font-size="10.00">eel&#45;self&#45;checks.h</text>
</a>
</g>
</g>
<!-- Node1&#45;&gt;Node29 -->
<g id="edge33_Node000001_Node000029" class="edge">
<title>Node1&#45;&gt;Node29</title>
<g id="a_edge33_Node000001_Node000029"><a xlink:title=" ">
<path fill="none" stroke="#63b8ff" d="M793.43,-181.29C991.37,-171.52 1584.14,-142.24 1754.96,-133.8"/>
<polygon fill="#63b8ff" stroke="#63b8ff" points="793,-177.81 783.19,-181.8 793.35,-184.8 793,-177.81"/>
</a>
</g>
</g>
<!-- Node3&#45;&gt;Node2 -->
<g id="edge3_Node000003_Node000002" class="edge">
<title>Node3&#45;&gt;Node2</title>
<g id="a_edge3_Node000003_Node000002"><a xlink:title=" ">
<path fill="none" stroke="#63b8ff" d="M145.98,-113.25C124.76,-87.74 84.35,-39.17 67.82,-19.3"/>
<polygon fill="#63b8ff" stroke="#63b8ff" points="143.29,-115.49 152.38,-120.94 148.68,-111.02 143.29,-115.49"/>
</a>
</g>
</g>
<!-- Node4 -->
<g id="Node000004" class="node">
<title>Node4</title>
<g id="a_Node000004"><a xlink:href="caja-icon-private_8h.html" target="_top" xlink:title=" ">
<polygon fill="#fff0f0" stroke="red" points="248,-79.5 147,-79.5 147,-60.5 248,-60.5 248,-79.5"/>
<text text-anchor="middle" x="197.5" y="-67.5" font-family="Inter" font-size="10.00">caja&#45;icon&#45;private.h</text>
</a>
</g>
</g>
<!-- Node3&#45;&gt;Node4 -->
<g id="edge4_Node000003_Node000004" class="edge">
<title>Node3&#45;&gt;Node4</title>
<g id="a_edge4_Node000003_Node000004"><a xlink:title=" ">
<path fill="none" stroke="#63b8ff" d="M170.67,-112.3C177.64,-101.58 186.3,-88.23 191.87,-79.67"/>
<polygon fill="#63b8ff" stroke="#63b8ff" points="167.62,-110.58 165.11,-120.87 173.49,-114.39 167.62,-110.58"/>
</a>
</g>
</g>
<!-- Node8 -->
<g id="Node000008" class="node">
<title>Node8</title>
<g id="a_Node000008"><a xlink:href="fm-icon-view_8c.html" target="_top" xlink:title=" ">
<polygon fill="white" stroke="#666666" points="221.5,-19 139.5,-19 139.5,0 221.5,0 221.5,-19"/>
<text text-anchor="middle" x="180.5" y="-7" font-family="Inter" font-size="10.00">fm&#45;icon&#45;view.c</text>
</a>
</g>
</g>
<!-- Node3&#45;&gt;Node8 -->
<g id="edge8_Node000003_Node000008" class="edge">
<title>Node3&#45;&gt;Node8</title>
<g id="a_edge8_Node000003_Node000008"><a xlink:title=" ">
<path fill="none" stroke="#63b8ff" d="M147.57,-111.69C138.89,-96.39 129.87,-73.87 137.5,-55 143.62,-39.86 157.63,-27.01 168.01,-19.07"/>
<polygon fill="#63b8ff" stroke="#63b8ff" points="144.83,-113.91 153.05,-120.6 150.79,-110.24 144.83,-113.91"/>
</a>
</g>
</g>
<!-- Node4&#45;&gt;Node2 -->
<g id="edge5_Node000004_Node000002" class="edge">
<title>Node4&#45;&gt;Node2</title>
<g id="a_edge5_Node000004_Node000002"><a xlink:title=" ">
<path fill="none" stroke="#63b8ff" d="M168.07,-56.43C141.62,-45.14 103.49,-28.86 80.45,-19.02"/>
<polygon fill="#63b8ff" stroke="#63b8ff" points="167.01,-59.79 177.58,-60.49 169.76,-53.35 167.01,-59.79"/>
</a>
</g>
</g>
<!-- Node4&#45;&gt;Node5 -->
<g id="edge6_Node000004_Node000005" class="edge">
<title>Node4&#45;&gt;Node5</title>
<g id="a_edge6_Node000004_Node000005"><a xlink:title=" ">
<path fill="none" stroke="#63b8ff" d="M220.28,-55.12C238.58,-43.96 263.73,-28.64 279.28,-19.17"/>
<polygon fill="#63b8ff" stroke="#63b8ff" points="218.38,-52.18 211.67,-60.37 222.03,-58.15 218.38,-52.18"/>
</a>
</g>
</g>
<!-- Node4&#45;&gt;Node8 -->
<g id="edge7_Node000004_Node000008" class="edge">
<title>Node4&#45;&gt;Node8</title>
<g id="a_edge7_Node000004_Node000008"><a xlink:title=" ">
<path fill="none" stroke="#63b8ff" d="M192.12,-50.49C189.08,-40.01 185.41,-27.39 183.02,-19.17"/>
<polygon fill="#63b8ff" stroke="#63b8ff" points="188.84,-51.74 194.99,-60.37 195.56,-49.79 188.84,-51.74"/>
</a>
</g>
</g>
<!-- Node11 -->
<g id="Node000011" class="node">
<title>Node11</title>
<g id="a_Node000011"><a xlink:href="eel-art-gtk-extensions_8c.html" target="_top" xlink:title=" ">
<polygon fill="white" stroke="#666666" points="538,-79.5 413,-79.5 413,-60.5 538,-60.5 538,-79.5"/>
<text text-anchor="middle" x="475.5" y="-67.5" font-family="Inter" font-size="10.00">eel&#45;art&#45;gtk&#45;extensions.c</text>
</a>
</g>
</g>
<!-- Node10&#45;&gt;Node11 -->
<g id="edge12_Node000010_Node000011" class="edge">
<title>Node10&#45;&gt;Node11</title>
<g id="a_edge12_Node000010_Node000011"><a xlink:title=" ">
<path fill="none" stroke="#63b8ff" d="M603.54,-117.52C572.41,-106.21 526.5,-89.53 498.94,-79.52"/>
<polygon fill="#63b8ff" stroke="#63b8ff" points="602.5,-120.87 613.09,-120.99 604.89,-114.29 602.5,-120.87"/>
</a>
</g>
</g>
<!-- Node10&#45;&gt;Node12 -->
<g id="edge13_Node000010_Node000012" class="edge">
<title>Node10&#45;&gt;Node12</title>
<g id="a_edge13_Node000010_Node000012"><a xlink:title=" ">
<path fill="none" stroke="#63b8ff" d="M626.92,-111.98C621.08,-101.31 613.88,-88.15 609.24,-79.67"/>
<polygon fill="#63b8ff" stroke="#63b8ff" points="623.91,-113.77 631.78,-120.87 630.05,-110.42 623.91,-113.77"/>
</a>
</g>
</g>
<!-- Node10&#45;&gt;Node13 -->
<g id="edge14_Node000010_Node000013" class="edge">
<title>Node10&#45;&gt;Node13</title>
<g id="a_edge14_Node000010_Node000013"><a xlink:title=" ">
<path fill="none" stroke="#63b8ff" d="M658.07,-115.16C674.79,-104.05 697.4,-89.01 711.46,-79.67"/>
<polygon fill="#63b8ff" stroke="#63b8ff" points="655.87,-112.42 649.48,-120.87 659.75,-118.25 655.87,-112.42"/>
</a>
</g>
</g>
<!-- Node10&#45;&gt;Node14 -->
<g id="edge15_Node000010_Node000014" class="edge">
<title>Node10&#45;&gt;Node14</title>
<g id="a_edge15_Node000010_Node000014"><a xlink:title=" ">
<path fill="none" stroke="#63b8ff" d="M576.71,-119.18C529.51,-110.78 462.08,-98.17 403.5,-85 396.22,-83.36 388.44,-81.45 381.11,-79.56"/>
<polygon fill="#63b8ff" stroke="#63b8ff" points="576.31,-122.67 586.76,-120.97 577.53,-115.77 576.31,-122.67"/>
</a>
</g>
</g>
<!-- Node10&#45;&gt;Node15 -->
<g id="edge16_Node000010_Node000015" class="edge">
<title>Node10&#45;&gt;Node15</title>
<g id="a_edge16_Node000010_Node000015"><a xlink:title=" ">
<path fill="none" stroke="#63b8ff" d="M710.1,-122.8C764.88,-116.5 841.01,-104.97 905.5,-85 910.11,-83.57 914.93,-81.57 919.32,-79.53"/>
<polygon fill="#63b8ff" stroke="#63b8ff" points="709.68,-119.32 700.13,-123.91 710.46,-126.28 709.68,-119.32"/>
</a>
</g>
</g>
<!-- Node24&#45;&gt;Node13 -->
<g id="edge20_Node000024_Node000013" class="edge">
<title>Node24&#45;&gt;Node13</title>
<g id="a_edge20_Node000024_Node000013"><a xlink:title=" ">
<path fill="none" stroke="#63b8ff" d="M819.67,-116.63C796.14,-105.35 762.6,-89.27 742.26,-79.52"/>
<polygon fill="#63b8ff" stroke="#63b8ff" points="818.23,-119.83 828.76,-120.99 821.26,-113.51 818.23,-119.83"/>
</a>
</g>
</g>
<!-- Node24&#45;&gt;Node15 -->
<g id="edge21_Node000024_Node000015" class="edge">
<title>Node24&#45;&gt;Node15</title>
<g id="a_edge21_Node000024_Node000015"><a xlink:title=" ">
<path fill="none" stroke="#63b8ff" d="M868.32,-115.16C885.23,-104.05 908.09,-89.01 922.31,-79.67"/>
<polygon fill="#63b8ff" stroke="#63b8ff" points="866.07,-112.45 859.63,-120.87 869.91,-118.3 866.07,-112.45"/>
</a>
</g>
</g>
<!-- Node24&#45;&gt;Node23 -->
<g id="edge19_Node000024_Node000023" class="edge">
<title>Node24&#45;&gt;Node23</title>
<g id="a_edge19_Node000024_Node000023"><a xlink:title=" ">
<path fill="none" stroke="#63b8ff" d="M846.5,-110.66C846.5,-100.24 846.5,-87.8 846.5,-79.67"/>
<polygon fill="#63b8ff" stroke="#63b8ff" points="843,-110.87 846.5,-120.87 850,-110.87 843,-110.87"/>
</a>
</g>
</g>
<!-- Node25&#45;&gt;Node12 -->
<g id="edge27_Node000025_Node000012" class="edge">
<title>Node25&#45;&gt;Node12</title>
<g id="a_edge27_Node000025_Node000012"><a xlink:title=" ">
<path fill="none" stroke="#63b8ff" d="M973.08,-124.31C897.91,-117.68 770.07,-104.68 661.5,-85 653.28,-83.51 644.48,-81.54 636.31,-79.55"/>
<polygon fill="#63b8ff" stroke="#63b8ff" points="973.06,-127.82 983.33,-125.2 973.67,-120.84 973.06,-127.82"/>
</a>
</g>
</g>
<!-- Node25&#45;&gt;Node13 -->
<g id="edge28_Node000025_Node000013" class="edge">
<title>Node25&#45;&gt;Node13</title>
<g id="a_edge28_Node000025_Node000013"><a xlink:title=" ">
<path fill="none" stroke="#63b8ff" d="M975.27,-119.3C924.38,-110.75 850.63,-97.92 786.5,-85 778.17,-83.32 769.24,-81.39 760.83,-79.5"/>
<polygon fill="#63b8ff" stroke="#63b8ff" points="975.01,-122.8 985.45,-121 976.16,-115.9 975.01,-122.8"/>
</a>
</g>
</g>
<!-- Node25&#45;&gt;Node15 -->
<g id="edge29_Node000025_Node000015" class="edge">
<title>Node25&#45;&gt;Node15</title>
<g id="a_edge29_Node000025_Node000015"><a xlink:title=" ">
<path fill="none" stroke="#63b8ff" d="M1013.56,-115.77C994.09,-104.6 967.21,-89.19 950.61,-79.67"/>
<polygon fill="#63b8ff" stroke="#63b8ff" points="1012.03,-118.93 1022.45,-120.87 1015.52,-112.86 1012.03,-118.93"/>
</a>
</g>
</g>
<!-- Node26 -->
<g id="Node000026" class="node">
<title>Node26</title>
<g id="a_Node000026"><a xlink:href="caja-emblem-sidebar_8c.html" target="_top" xlink:title=" ">
<polygon fill="white" stroke="#666666" points="1515.5,-79.5 1397.5,-79.5 1397.5,-60.5 1515.5,-60.5 1515.5,-79.5"/>
<text text-anchor="middle" x="1456.5" y="-67.5" font-family="Inter" font-size="10.00">caja&#45;emblem&#45;sidebar.c</text>
</a>
</g>
</g>
<!-- Node25&#45;&gt;Node26 -->
<g id="edge25_Node000025_Node000026" class="edge">
<title>Node25&#45;&gt;Node26</title>
<g id="a_edge25_Node000025_Node000026"><a xlink:title=" ">
<path fill="none" stroke="#63b8ff" d="M1101.57,-122.87C1172.1,-115.23 1288.73,-101.57 1388.5,-85 1398.01,-83.42 1408.22,-81.46 1417.76,-79.51"/>
<polygon fill="#63b8ff" stroke="#63b8ff" points="1101.07,-119.41 1091.51,-123.96 1101.82,-126.37 1101.07,-119.41"/>
</a>
</g>
</g>
<!-- Node27 -->
<g id="Node000027" class="node">
<title>Node27</title>
<g id="a_Node000027"><a xlink:href="caja-property-browser_8c.html" target="_top" xlink:title=" ">
<polygon fill="white" stroke="#666666" points="1659,-79.5 1534,-79.5 1534,-60.5 1659,-60.5 1659,-79.5"/>
<text text-anchor="middle" x="1596.5" y="-67.5" font-family="Inter" font-size="10.00">caja&#45;property&#45;browser.c</text>
</a>
</g>
</g>
<!-- Node25&#45;&gt;Node27 -->
<g id="edge26_Node000025_Node000027" class="edge">
<title>Node25&#45;&gt;Node27</title>
<g id="a_edge26_Node000025_Node000027"><a xlink:title=" ">
<path fill="none" stroke="#63b8ff" d="M1101.9,-125.69C1195.34,-119.7 1373.81,-106.48 1524.5,-85 1534.84,-83.53 1545.94,-81.56 1556.26,-79.57"/>
<polygon fill="#63b8ff" stroke="#63b8ff" points="1101.51,-122.21 1091.76,-126.34 1101.96,-129.2 1101.51,-122.21"/>
</a>
</g>
</g>
<!-- Node28 -->
<g id="Node000028" class="node">
<title>Node28</title>
<g id="a_Node000028"><a xlink:href="fm-properties-window_8c.html" target="_top" xlink:title=" ">
<polygon fill="white" stroke="#666666" points="1101,-79.5 974,-79.5 974,-60.5 1101,-60.5 1101,-79.5"/>
<text text-anchor="middle" x="1037.5" y="-67.5" font-family="Inter" font-size="10.00">fm&#45;properties&#45;window.c</text>
</a>
</g>
</g>
<!-- Node25&#45;&gt;Node28 -->
<g id="edge30_Node000025_Node000028" class="edge">
<title>Node25&#45;&gt;Node28</title>
<g id="a_edge30_Node000025_Node000028"><a xlink:title=" ">
<path fill="none" stroke="#63b8ff" d="M1037.5,-110.66C1037.5,-100.24 1037.5,-87.8 1037.5,-79.67"/>
<polygon fill="#63b8ff" stroke="#63b8ff" points="1034,-110.87 1037.5,-120.87 1041,-110.87 1034,-110.87"/>
</a>
</g>
</g>
<!-- Node17 -->
<g id="Node000017" class="node">
<title>Node17</title>
<g id="a_Node000017"><a xlink:href="test-caja-wrap-table_8c.html" target="_top" xlink:title=" ">
<polygon fill="white" stroke="#666666" points="1233.5,-79.5 1119.5,-79.5 1119.5,-60.5 1233.5,-60.5 1233.5,-79.5"/>
<text text-anchor="middle" x="1176.5" y="-67.5" font-family="Inter" font-size="10.00">test&#45;caja&#45;wrap&#45;table.c</text>
</a>
</g>
</g>
<!-- Node25&#45;&gt;Node17 -->
<g id="edge31_Node000025_Node000017" class="edge">
<title>Node25&#45;&gt;Node17</title>
<g id="a_edge31_Node000025_Node000017"><a xlink:title=" ">
<path fill="none" stroke="#63b8ff" d="M1067.01,-117.08C1093.86,-105.78 1132.78,-89.4 1156.26,-79.52"/>
<polygon fill="#63b8ff" stroke="#63b8ff" points="1065.57,-113.89 1057.71,-120.99 1068.29,-120.34 1065.57,-113.89"/>
</a>
</g>
</g>
<!-- Node20 -->
<g id="Node000020" class="node">
<title>Node20</title>
<g id="a_Node000020"><a xlink:href="test-eel-labeled-image_8c.html" target="_top" xlink:title=" ">
<polygon fill="white" stroke="#666666" points="1379.5,-79.5 1251.5,-79.5 1251.5,-60.5 1379.5,-60.5 1379.5,-79.5"/>
<text text-anchor="middle" x="1315.5" y="-67.5" font-family="Inter" font-size="10.00">test&#45;eel&#45;labeled&#45;image.c</text>
</a>
</g>
</g>
<!-- Node25&#45;&gt;Node20 -->
<g id="edge32_Node000025_Node000020" class="edge">
<title>Node25&#45;&gt;Node20</title>
<g id="a_edge32_Node000025_Node000020"><a xlink:title=" ">
<path fill="none" stroke="#63b8ff" d="M1087.91,-118.89C1141.59,-107.6 1225.49,-89.94 1275.03,-79.52"/>
<polygon fill="#63b8ff" stroke="#63b8ff" points="1086.99,-115.51 1077.92,-120.99 1088.43,-122.36 1086.99,-115.51"/>
</a>
</g>
</g>
<!-- Node29&#45;&gt;Node15 -->
<g id="edge42_Node000029_Node000015" class="edge">
<title>Node29&#45;&gt;Node15</title>
<g id="a_edge42_Node000029_Node000015"><a xlink:title=" ">
<path fill="none" stroke="#63b8ff" d="M1744.6,-129.29C1581.33,-128.24 1113.57,-122.01 965.5,-85 960.59,-83.77 955.51,-81.74 950.96,-79.59"/>
<polygon fill="#63b8ff" stroke="#63b8ff" points="1744.88,-132.79 1754.9,-129.35 1744.93,-125.79 1744.88,-132.79"/>
</a>
</g>
</g>
<!-- Node30 -->
<g id="Node000030" class="node">
<title>Node30</title>
<g id="a_Node000030"><a xlink:href="caja-lib-self-check-functions_8h.html" target="_top" xlink:title=" ">
<polygon fill="#fff0f0" stroke="red" points="1773.5,-85 1677.5,-85 1677.5,-55 1773.5,-55 1773.5,-85"/>
<text text-anchor="start" x="1685.5" y="-73" font-family="Inter" font-size="10.00">caja&#45;lib&#45;self&#45;check</text>
<text text-anchor="middle" x="1725.5" y="-62" font-family="Inter" font-size="10.00">&#45;functions.h</text>
</a>
</g>
</g>
<!-- Node29&#45;&gt;Node30 -->
<g id="edge34_Node000029_Node000030" class="edge">
<title>Node29&#45;&gt;Node30</title>
<g id="a_edge34_Node000029_Node000030"><a xlink:title=" ">
<path fill="none" stroke="#63b8ff" d="M1782.36,-114.77C1770.55,-105.68 1755.49,-94.09 1743.84,-85.11"/>
<polygon fill="#63b8ff" stroke="#63b8ff" points="1780.23,-117.54 1790.29,-120.87 1784.5,-111.99 1780.23,-117.54"/>
</a>
</g>
</g>
<!-- Node37 -->
<g id="Node000037" class="node">
<title>Node37</title>
<g id="a_Node000037"><a xlink:href="caja-main_8c.html" target="_top" xlink:title=" ">
<polygon fill="white" stroke="#666666" points="2118,-79.5 2051,-79.5 2051,-60.5 2118,-60.5 2118,-79.5"/>
<text text-anchor="middle" x="2084.5" y="-67.5" font-family="Inter" font-size="10.00">caja&#45;main.c</text>
</a>
</g>
</g>
<!-- Node29&#45;&gt;Node37 -->
<g id="edge36_Node000029_Node000037" class="edge">
<title>Node29&#45;&gt;Node37</title>
<g id="a_edge36_Node000029_Node000037"><a xlink:title=" ">
<path fill="none" stroke="#63b8ff" d="M1858.24,-121.31C1907.38,-113.67 1980.19,-101.06 2042.5,-85 2048.45,-83.47 2054.79,-81.52 2060.68,-79.58"/>
<polygon fill="#63b8ff" stroke="#63b8ff" points="1857.47,-117.89 1848.12,-122.86 1858.54,-124.8 1857.47,-117.89"/>
</a>
</g>
</g>
<!-- Node38 -->
<g id="Node000038" class="node">
<title>Node38</title>
<g id="a_Node000038"><a xlink:href="check-program_8c.html" target="_top" xlink:title=" ">
<polygon fill="white" stroke="#666666" points="1881,-19 1788,-19 1788,0 1881,0 1881,-19"/>
<text text-anchor="middle" x="1834.5" y="-7" font-family="Inter" font-size="10.00">check&#45;program.c</text>
</a>
</g>
</g>
<!-- Node29&#45;&gt;Node38 -->
<g id="edge37_Node000029_Node000038" class="edge">
<title>Node29&#45;&gt;Node38</title>
<g id="a_edge37_Node000029_Node000038"><a xlink:title=" ">
<path fill="none" stroke="#63b8ff" d="M1806.01,-110.63C1809.69,-95.52 1815.14,-73.82 1820.5,-55 1824.05,-42.54 1828.63,-28.27 1831.57,-19.32"/>
<polygon fill="#63b8ff" stroke="#63b8ff" points="1802.51,-110.2 1803.57,-120.74 1809.32,-111.84 1802.51,-110.2"/>
</a>
</g>
</g>
<!-- Node39 -->
<g id="Node000039" class="node">
<title>Node39</title>
<g id="a_Node000039"><a xlink:href="eel-lib-self-check-functions_8h.html" target="_top" xlink:title=" ">
<polygon fill="#fff0f0" stroke="red" points="2033,-85 1940,-85 1940,-55 2033,-55 2033,-85"/>
<text text-anchor="start" x="1948" y="-73" font-family="Inter" font-size="10.00">eel&#45;lib&#45;self&#45;check</text>
<text text-anchor="middle" x="1986.5" y="-62" font-family="Inter" font-size="10.00">&#45;functions.h</text>
</a>
</g>
</g>
<!-- Node29&#45;&gt;Node39 -->
<g id="edge38_Node000029_Node000039" class="edge">
<title>Node29&#45;&gt;Node39</title>
<g id="a_edge38_Node000029_Node000039"><a xlink:title=" ">
<path fill="none" stroke="#63b8ff" d="M1838.01,-117.95C1867.87,-108.51 1910.19,-95.13 1942.02,-85.06"/>
<polygon fill="#63b8ff" stroke="#63b8ff" points="1836.88,-114.64 1828.4,-120.99 1838.99,-121.32 1836.88,-114.64"/>
</a>
</g>
</g>
<!-- Node47 -->
<g id="Node000047" class="node">
<title>Node47</title>
<g id="a_Node000047"><a xlink:href="eel-self-checks_8c.html" target="_top" xlink:title=" ">
<polygon fill="white" stroke="#666666" points="1921.5,-79.5 1829.5,-79.5 1829.5,-60.5 1921.5,-60.5 1921.5,-79.5"/>
<text text-anchor="middle" x="1875.5" y="-67.5" font-family="Inter" font-size="10.00">eel&#45;self&#45;checks.c</text>
</a>
</g>
</g>
<!-- Node29&#45;&gt;Node47 -->
<g id="edge41_Node000029_Node000047" class="edge">
<title>Node29&#45;&gt;Node47</title>
<g id="a_edge41_Node000029_Node000047"><a xlink:title=" ">
<path fill="none" stroke="#63b8ff" d="M1820.43,-114.54C1834.4,-103.49 1852.93,-88.84 1864.54,-79.67"/>
<polygon fill="#63b8ff" stroke="#63b8ff" points="1818.09,-111.92 1812.42,-120.87 1822.43,-117.41 1818.09,-111.92"/>
</a>
</g>
</g>
<!-- Node30&#45;&gt;Node5 -->
<g id="edge35_Node000030_Node000005" class="edge">
<title>Node30&#45;&gt;Node5</title>
<g id="a_edge35_Node000030_Node000005"><a xlink:title=" ">
<path fill="none" stroke="#63b8ff" d="M1667.26,-55.09C1386.25,-18.83 566.74,-11.97 347.78,-10.75"/>
<polygon fill="#63b8ff" stroke="#63b8ff" points="1667.06,-58.59 1677.43,-56.45 1667.99,-51.65 1667.06,-58.59"/>
</a>
</g>
</g>
<!-- Node39&#45;&gt;Node9 -->
<g id="edge40_Node000039_Node000009" class="edge">
<title>Node39&#45;&gt;Node9</title>
<g id="a_edge40_Node000039_Node000009"><a xlink:title=" ">
<path fill="none" stroke="#63b8ff" d="M2014.1,-48.82C2027.89,-38.73 2043.86,-27.05 2054.51,-19.27"/>
<polygon fill="#63b8ff" stroke="#63b8ff" points="2011.87,-46.11 2005.87,-54.84 2016,-51.76 2011.87,-46.11"/>
</a>
</g>
</g>
<!-- Node39&#45;&gt;Node38 -->
<g id="edge39_Node000039_Node000038" class="edge">
<title>Node39&#45;&gt;Node38</title>
<g id="a_edge39_Node000039_Node000038"><a xlink:title=" ">
<path fill="none" stroke="#63b8ff" d="M1940.6,-51.33C1912.92,-40.68 1878.88,-27.58 1856.95,-19.14"/>
<polygon fill="#63b8ff" stroke="#63b8ff" points="1939.5,-54.66 1950.09,-54.99 1942.02,-48.13 1939.5,-54.66"/>
</a>
</g>
</g>
</g>
</svg>

<g id="navigator" transform="translate(0 0)" fill="#404254">
  <rect fill="#f2f5e9" fill-opacity="0.5" stroke="#606060" stroke-width=".5" x="0" y="0" width="60" height="60"/>
  <use id="zoomplus" xlink:href="#zoomPlus" x="17" y="9" onmousedown="handleZoom(evt,'in')"/>
  <use id="zoomminus" xlink:href="#zoomMin" x="42" y="9" onmousedown="handleZoom(evt,'out')"/>
  <use id="reset" xlink:href="#resetDef" x="30" y="36" onmousedown="handleReset()"/>
   <use id="arrowup" xlink:href="#arrowUp" x="0" y="0" onmousedown="handlePan(0,-1)"/>
  <use id="arrowright" xlink:href="#arrowRight" x="0" y="0" onmousedown="handlePan(1,0)"/>
  <use id="arrowdown" xlink:href="#arrowDown" x="0" y="0" onmousedown="handlePan(0,1)"/>
  <use id="arrowleft" xlink:href="#arrowLeft" x="0" y="0" onmousedown="handlePan(-1,0)"/>
</g>
<svg viewBox="0 0 15 15" width="100%" height="30px" preserveAspectRatio="xMaxYMin meet">
 <g id="arrow_out" transform="scale(0.3 0.3)">
  <a xlink:href="eel-art-extensions_8h__dep__incl_org.svg" target="_base">
   <rect id="button" ry="5" rx="5" y="6" x="6" height="38" width="38"
        fill="#f2f5e9" fill-opacity="0.5" stroke="#606060" stroke-width="1.0"/>
   <path id="arrow"
     d="M 11.500037,31.436501 C 11.940474,20.09759 22.043105,11.32322 32.158766,21.979434 L 37.068811,17.246167 C 37.068811,17.246167 37.088388,32 37.088388,32 L 22.160133,31.978069 C 22.160133,31.978069 26.997745,27.140456 26.997745,27.140456 C 18.528582,18.264221 13.291696,25.230495 11.500037,31.436501 z"
     style="fill:#404040;"/>
  </a>
 </g>
</svg>

<style type='text/css'>
<![CDATA[
[data-mouse-over-selected='false'] { opacity: 0.7; }
[data-mouse-over-selected='true']  { opacity: 1.0; }
]]>
</style>
<script type="application/ecmascript"><![CDATA[
document.addEventListener('DOMContentLoaded', (event) => {
  highlightEdges();
  highlightAdjacentNodes();
});
]]></script>
</svg>
