<?xml version="1.0" encoding="UTF-8" standalone="no"?>
<!DOCTYPE svg PUBLIC "-//W3C//DTD SVG 1.1//EN"
 "http://www.w3.org/Graphics/SVG/1.1/DTD/svg11.dtd">
<!-- Generated by graphviz version 2.43.0 (0)
 -->
<!-- Title: effects.c Pages: 1 -->
<!--zoomable 247 -->

<svg id="main" version="1.1" xmlns="http://www.w3.org/2000/svg" xmlns:xlink="http://www.w3.org/1999/xlink" xml:space="preserve" onload="init(evt)">

<style type="text/css"><![CDATA[
.node, .edge {opacity: 0.7;}
.node.selected, .edge.selected {opacity: 1;}
.edge:hover path { stroke: red; }
.edge:hover polygon { stroke: red; fill: red; }
]]></style>

<defs>
  <circle id="rim" cx="0" cy="0" r="7"/>
  <circle id="rim2" cx="0" cy="0" r="3.5"/>
  <g id="zoomPlus">
    <use xlink:href="#rim" fill="#404040"><set attributeName="fill" to="#808080" begin="zoomplus.mouseover" end="zoomplus.mouseout"/></use>
    <path d="M-4,0h8M0,-4v8" fill="none" stroke="white" stroke-width="1.5" pointer-events="none"/>
  </g>
  <g id="zoomMin">
    <use xlink:href="#rim" fill="#404040"><set attributeName="fill" to="#808080" begin="zoomminus.mouseover" end="zoomminus.mouseout"/></use>
    <path d="M-4,0h8" fill="none" stroke="white" stroke-width="1.5" pointer-events="none"/>
  </g>
  <g id="arrowUp" transform="translate(30 24)">
    <use xlink:href="#rim"/>
    <path pointer-events="none" fill="none" stroke="white" stroke-width="1.5" d="M0,-3.0v7 M-2.5,-0.5L0,-3.0L2.5,-0.5"/>
  </g>
  <g id="arrowRight" transform="rotate(90) translate(36 -43)">
    <use xlink:href="#rim"/>
    <path pointer-events="none" fill="none" stroke="white" stroke-width="1.5" d="M0,-3.0v7 M-2.5,-0.5L0,-3.0L2.5,-0.5"/>
  </g>
  <g id="arrowDown" transform="rotate(180) translate(-30 -48)">
    <use xlink:href="#rim"/>
    <path pointer-events="none" fill="none" stroke="white" stroke-width="1.5" d="M0,-3.0v7 M-2.5,-0.5L0,-3.0L2.5,-0.5"/>
  </g>
  <g id="arrowLeft" transform="rotate(270) translate(-36 17)">
    <use xlink:href="#rim"/>
    <path pointer-events="none" fill="none" stroke="white" stroke-width="1.5" d="M0,-3.0v7 M-2.5,-0.5L0,-3.0L2.5,-0.5"/>
  </g>
  <g id="resetDef">
    <use xlink:href="#rim2" fill="#404040"><set attributeName="fill" to="#808080" begin="reset.mouseover" end="reset.mouseout"/></use>
  </g>
</defs>
<script type="application/ecmascript">
var viewWidth = 1005;
var viewHeight = 247;
var sectionId = 'dynsection-0';
</script>
<script type="application/ecmascript" xlink:href="svg.min.js"/>
<svg id="graph" class="graph">
<g id="viewport">
<title>effects.c</title>
<!-- Node1 -->
<g id="Node000001" class="node">
<title>Node1</title>
<g id="a_Node000001"><a xlink:title=" ">
<polygon fill="#999999" stroke="#666666" points="399.74,-239 343.74,-239 343.74,-220 399.74,-220 399.74,-239"/>
<text text-anchor="middle" x="371.74" y="-227" font-family="Inter" font-size="10.00">effects.c</text>
</a>
</g>
</g>
<!-- Node2 -->
<g id="Node000002" class="node">
<title>Node2</title>
<g id="a_Node000002"><a xlink:title=" ">
<polygon fill="#e0e0e0" stroke="#999999" points="140.74,-129 86.74,-129 86.74,-110 140.74,-110 140.74,-129"/>
<text text-anchor="middle" x="113.74" y="-117" font-family="Inter" font-size="10.00">config.h</text>
</a>
</g>
</g>
<!-- Node1&#45;&gt;Node2 -->
<g id="edge1_Node000001_Node000002" class="edge">
<title>Node1&#45;&gt;Node2</title>
<g id="a_edge1_Node000001_Node000002"><a xlink:title=" ">
<path fill="none" stroke="#63b8ff" d="M351.06,-219.84C305.56,-200.8 196.63,-155.2 143.67,-133.03"/>
<polygon fill="#63b8ff" stroke="#63b8ff" points="144.73,-129.68 134.15,-129.05 142.03,-136.14 144.73,-129.68"/>
</a>
</g>
</g>
<!-- Node3 -->
<g id="Node000003" class="node">
<title>Node3</title>
<g id="a_Node000003"><a xlink:href="effects_8h.html" target="_top" xlink:title=" ">
<polygon fill="white" stroke="#666666" points="77.24,-184 20.24,-184 20.24,-165 77.24,-165 77.24,-184"/>
<text text-anchor="middle" x="48.74" y="-172" font-family="Inter" font-size="10.00">effects.h</text>
</a>
</g>
</g>
<!-- Node1&#45;&gt;Node3 -->
<g id="edge2_Node000001_Node000003" class="edge">
<title>Node1&#45;&gt;Node3</title>
<g id="a_edge2_Node000001_Node000003"><a xlink:title=" ">
<path fill="none" stroke="#63b8ff" d="M343.64,-223.89C285.8,-214.4 153.35,-192.67 87.45,-181.85"/>
<polygon fill="#63b8ff" stroke="#63b8ff" points="87.9,-178.38 77.46,-180.21 86.77,-185.29 87.9,-178.38"/>
</a>
</g>
</g>
<!-- Node6 -->
<g id="Node000006" class="node">
<title>Node6</title>
<g id="a_Node000006"><a xlink:href="display-private_8h.html" target="_top" xlink:title=" ">
<polygon fill="#fff0f0" stroke="red" points="208.24,-19 115.24,-19 115.24,0 208.24,0 208.24,-19"/>
<text text-anchor="middle" x="161.74" y="-7" font-family="Inter" font-size="10.00">display&#45;private.h</text>
</a>
</g>
</g>
<!-- Node1&#45;&gt;Node6 -->
<g id="edge8_Node000001_Node000006" class="edge">
<title>Node1&#45;&gt;Node6</title>
<g id="a_edge8_Node000001_Node000006"><a xlink:title=" ">
<path fill="none" stroke="#63b8ff" d="M343.67,-227.14C262.64,-222.94 32.75,-208.89 10.74,-184 3.13,-175.4 -8.8,-147.45 11.74,-110 36.12,-65.54 89.85,-37.47 125.93,-22.87"/>
<polygon fill="#63b8ff" stroke="#63b8ff" points="127.55,-26 135.6,-19.11 125.01,-19.48 127.55,-26"/>
</a>
</g>
</g>
<!-- Node19 -->
<g id="Node000019" class="node">
<title>Node19</title>
<g id="a_Node000019"><a xlink:title=" ">
<polygon fill="#e0e0e0" stroke="#999999" points="738.74,-19 704.74,-19 704.74,0 738.74,0 738.74,-19"/>
<text text-anchor="middle" x="721.74" y="-7" font-family="Inter" font-size="10.00">ui.h</text>
</a>
</g>
</g>
<!-- Node1&#45;&gt;Node19 -->
<g id="edge9_Node000001_Node000019" class="edge">
<title>Node1&#45;&gt;Node19</title>
<g id="a_edge9_Node000001_Node000019"><a xlink:title=" ">
<path fill="none" stroke="#63b8ff" d="M399.96,-228.1C500.81,-225.98 840.34,-212.65 896.74,-129 937.77,-68.14 807.81,-30.04 749.04,-16.29"/>
<polygon fill="#63b8ff" stroke="#63b8ff" points="749.48,-12.8 738.95,-14 747.93,-19.62 749.48,-12.8"/>
</a>
</g>
</g>
<!-- Node20 -->
<g id="Node000020" class="node">
<title>Node20</title>
<g id="a_Node000020"><a xlink:href="window-private_8h.html" target="_top" xlink:title=" ">
<polygon fill="white" stroke="#666666" points="420.24,-184 323.24,-184 323.24,-165 420.24,-165 420.24,-184"/>
<text text-anchor="middle" x="371.74" y="-172" font-family="Inter" font-size="10.00">window&#45;private.h</text>
</a>
</g>
</g>
<!-- Node1&#45;&gt;Node20 -->
<g id="edge10_Node000001_Node000020" class="edge">
<title>Node1&#45;&gt;Node20</title>
<g id="a_edge10_Node000001_Node000020"><a xlink:title=" ">
<path fill="none" stroke="#63b8ff" d="M371.74,-219.75C371.74,-212.8 371.74,-202.85 371.74,-194.13"/>
<polygon fill="#63b8ff" stroke="#63b8ff" points="375.24,-194.09 371.74,-184.09 368.24,-194.09 375.24,-194.09"/>
</a>
</g>
</g>
<!-- Node27 -->
<g id="Node000027" class="node">
<title>Node27</title>
<g id="a_Node000027"><a xlink:href="prefs_8h.html" target="_top" xlink:title=" ">
<polygon fill="white" stroke="#666666" points="751.74,-184 701.74,-184 701.74,-165 751.74,-165 751.74,-184"/>
<text text-anchor="middle" x="726.74" y="-172" font-family="Inter" font-size="10.00">prefs.h</text>
</a>
</g>
</g>
<!-- Node1&#45;&gt;Node27 -->
<g id="edge24_Node000001_Node000027" class="edge">
<title>Node1&#45;&gt;Node27</title>
<g id="a_edge24_Node000001_Node000027"><a xlink:title=" ">
<path fill="none" stroke="#63b8ff" d="M399.89,-224.3C464,-214.73 620.76,-191.32 691.31,-180.79"/>
<polygon fill="#63b8ff" stroke="#63b8ff" points="692.09,-184.21 701.47,-179.27 691.06,-177.29 692.09,-184.21"/>
</a>
</g>
</g>
<!-- Node29 -->
<g id="Node000029" class="node">
<title>Node29</title>
<g id="a_Node000029"><a xlink:title=" ">
<polygon fill="#e0e0e0" stroke="#999999" points="997.24,-184 944.24,-184 944.24,-165 997.24,-165 997.24,-184"/>
<text text-anchor="middle" x="970.74" y="-172" font-family="Inter" font-size="10.00">string.h</text>
</a>
</g>
</g>
<!-- Node1&#45;&gt;Node29 -->
<g id="edge28_Node000001_Node000029" class="edge">
<title>Node1&#45;&gt;Node29</title>
<g id="a_edge28_Node000001_Node000029"><a xlink:title=" ">
<path fill="none" stroke="#63b8ff" d="M399.74,-227.5C481.65,-224.32 727.71,-212.88 929.74,-184 931.03,-183.81 932.35,-183.61 933.68,-183.4"/>
<polygon fill="#63b8ff" stroke="#63b8ff" points="934.69,-186.77 943.92,-181.56 933.45,-179.88 934.69,-186.77"/>
</a>
</g>
</g>
<!-- Node4 -->
<g id="Node000004" class="node">
<title>Node4</title>
<g id="a_Node000004"><a xlink:title=" ">
<polygon fill="#e0e0e0" stroke="#999999" points="68.74,-129 28.74,-129 28.74,-110 68.74,-110 68.74,-129"/>
<text text-anchor="middle" x="48.74" y="-117" font-family="Inter" font-size="10.00">util.h</text>
</a>
</g>
</g>
<!-- Node3&#45;&gt;Node4 -->
<g id="edge3_Node000003_Node000004" class="edge">
<title>Node3&#45;&gt;Node4</title>
<g id="a_edge3_Node000003_Node000004"><a xlink:title=" ">
<path fill="none" stroke="#63b8ff" d="M48.74,-164.75C48.74,-157.8 48.74,-147.85 48.74,-139.13"/>
<polygon fill="#63b8ff" stroke="#63b8ff" points="52.24,-139.09 48.74,-129.09 45.24,-139.09 52.24,-139.09"/>
</a>
</g>
</g>
<!-- Node5 -->
<g id="Node000005" class="node">
<title>Node5</title>
<g id="a_Node000005"><a xlink:href="screen-private_8h.html" target="_top" xlink:title=" ">
<polygon fill="#fff0f0" stroke="red" points="307.74,-74 215.74,-74 215.74,-55 307.74,-55 307.74,-74"/>
<text text-anchor="middle" x="261.74" y="-62" font-family="Inter" font-size="10.00">screen&#45;private.h</text>
</a>
</g>
</g>
<!-- Node3&#45;&gt;Node5 -->
<g id="edge4_Node000003_Node000005" class="edge">
<title>Node3&#45;&gt;Node5</title>
<g id="a_edge4_Node000003_Node000005"><a xlink:title=" ">
<path fill="none" stroke="#63b8ff" d="M39.33,-164.9C26.23,-151.89 5.62,-126.95 19.74,-110 42.88,-82.21 141.28,-71.71 205.26,-67.79"/>
<polygon fill="#63b8ff" stroke="#63b8ff" points="205.82,-71.27 215.6,-67.2 205.42,-64.28 205.82,-71.27"/>
</a>
</g>
</g>
<!-- Node5&#45;&gt;Node6 -->
<g id="edge5_Node000005_Node000006" class="edge">
<title>Node5&#45;&gt;Node6</title>
<g id="a_edge5_Node000005_Node000006"><a xlink:title=" ">
<path fill="none" stroke="#63b8ff" d="M245.67,-54.98C229.87,-46.61 205.52,-33.7 187.11,-23.95"/>
<polygon fill="#63b8ff" stroke="#63b8ff" points="188.57,-20.76 178.1,-19.17 185.29,-26.95 188.57,-20.76"/>
</a>
</g>
</g>
<!-- Node18 -->
<g id="Node000018" class="node">
<title>Node18</title>
<g id="a_Node000018"><a xlink:title=" ">
<polygon fill="#e0e0e0" stroke="#999999" points="394.74,-19 326.74,-19 326.74,0 394.74,0 394.74,-19"/>
<text text-anchor="middle" x="360.74" y="-7" font-family="Inter" font-size="10.00">X11/Xutil.h</text>
</a>
</g>
</g>
<!-- Node5&#45;&gt;Node18 -->
<g id="edge6_Node000005_Node000018" class="edge">
<title>Node5&#45;&gt;Node18</title>
<g id="a_edge6_Node000005_Node000018"><a xlink:title=" ">
<path fill="none" stroke="#63b8ff" d="M277.64,-54.98C293.28,-46.61 317.39,-33.7 335.62,-23.95"/>
<polygon fill="#63b8ff" stroke="#63b8ff" points="337.38,-26.98 344.54,-19.17 334.07,-20.8 337.38,-26.98"/>
</a>
</g>
</g>
<!-- Node5&#45;&gt;Node19 -->
<g id="edge7_Node000005_Node000019" class="edge">
<title>Node5&#45;&gt;Node19</title>
<g id="a_edge7_Node000005_Node000019"><a xlink:title=" ">
<path fill="none" stroke="#63b8ff" d="M307.95,-58.18C403.06,-47.22 618.17,-22.43 694.36,-13.65"/>
<polygon fill="#63b8ff" stroke="#63b8ff" points="695.02,-17.1 704.56,-12.48 694.22,-10.15 695.02,-17.1"/>
</a>
</g>
</g>
<!-- Node20&#45;&gt;Node2 -->
<g id="edge11_Node000020_Node000002" class="edge">
<title>Node20&#45;&gt;Node2</title>
<g id="a_edge11_Node000020_Node000002"><a xlink:title=" ">
<path fill="none" stroke="#63b8ff" d="M327,-165C284.2,-156.76 217.6,-143.67 150.71,-129.15"/>
<polygon fill="#63b8ff" stroke="#63b8ff" points="151.36,-125.71 140.84,-127 149.87,-132.55 151.36,-125.71"/>
</a>
</g>
</g>
<!-- Node20&#45;&gt;Node4 -->
<g id="edge15_Node000020_Node000004" class="edge">
<title>Node20&#45;&gt;Node4</title>
<g id="a_edge15_Node000020_Node000004"><a xlink:title=" ">
<path fill="none" stroke="#63b8ff" d="M322.99,-168.16C266.42,-161.52 170.24,-148.83 78.89,-128.99"/>
<polygon fill="#63b8ff" stroke="#63b8ff" points="79.45,-125.53 68.93,-126.8 77.94,-132.37 79.45,-125.53"/>
</a>
</g>
</g>
<!-- Node20&#45;&gt;Node5 -->
<g id="edge14_Node000020_Node000005" class="edge">
<title>Node20&#45;&gt;Node5</title>
<g id="a_edge14_Node000020_Node000005"><a xlink:title=" ">
<path fill="none" stroke="#63b8ff" d="M362.74,-164.66C344.11,-146.38 301.13,-104.18 277.69,-81.17"/>
<polygon fill="#63b8ff" stroke="#63b8ff" points="280.14,-78.67 270.56,-74.16 275.24,-83.66 280.14,-78.67"/>
</a>
</g>
</g>
<!-- Node20&#45;&gt;Node18 -->
<g id="edge20_Node000020_Node000018" class="edge">
<title>Node20&#45;&gt;Node18</title>
<g id="a_edge20_Node000020_Node000018"><a xlink:title=" ">
<path fill="none" stroke="#63b8ff" d="M420.58,-166.77C460.1,-158.85 506.76,-142.44 490.74,-110 469.98,-67.97 422,-38.8 390.5,-23.36"/>
<polygon fill="#63b8ff" stroke="#63b8ff" points="391.84,-20.12 381.3,-19.01 388.85,-26.45 391.84,-20.12"/>
</a>
</g>
</g>
<!-- Node21 -->
<g id="Node000021" class="node">
<title>Node21</title>
<g id="a_Node000021"><a xlink:href="window_8h.html" target="_top" xlink:title=" ">
<polygon fill="#fff0f0" stroke="red" points="637.24,-129 576.24,-129 576.24,-110 637.24,-110 637.24,-129"/>
<text text-anchor="middle" x="606.74" y="-117" font-family="Inter" font-size="10.00">window.h</text>
</a>
</g>
</g>
<!-- Node20&#45;&gt;Node21 -->
<g id="edge12_Node000020_Node000021" class="edge">
<title>Node20&#45;&gt;Node21</title>
<g id="a_edge12_Node000020_Node000021"><a xlink:title=" ">
<path fill="none" stroke="#63b8ff" d="M409.49,-164.98C452.47,-155.29 522.38,-139.53 566.4,-129.6"/>
<polygon fill="#63b8ff" stroke="#63b8ff" points="567.2,-133 576.19,-127.39 565.66,-126.18 567.2,-133"/>
</a>
</g>
</g>
<!-- Node23 -->
<g id="Node000023" class="node">
<title>Node23</title>
<g id="a_Node000023"><a xlink:title=" ">
<polygon fill="#e0e0e0" stroke="#999999" points="616.24,-74 569.24,-74 569.24,-55 616.24,-55 616.24,-74"/>
<text text-anchor="middle" x="592.74" y="-62" font-family="Inter" font-size="10.00">cairo.h</text>
</a>
</g>
</g>
<!-- Node20&#45;&gt;Node23 -->
<g id="edge21_Node000020_Node000023" class="edge">
<title>Node20&#45;&gt;Node23</title>
<g id="a_edge21_Node000020_Node000023"><a xlink:title=" ">
<path fill="none" stroke="#63b8ff" d="M420.54,-165.16C451.52,-158.47 491.66,-147.13 523.74,-129 545.54,-116.68 566.05,-96.24 578.95,-81.89"/>
<polygon fill="#63b8ff" stroke="#63b8ff" points="581.68,-84.08 585.62,-74.25 576.41,-79.48 581.68,-84.08"/>
</a>
</g>
</g>
<!-- Node24 -->
<g id="Node000024" class="node">
<title>Node24</title>
<g id="a_Node000024"><a xlink:href="marco_2src_2core_2stack_8h.html" target="_top" xlink:title=" ">
<polygon fill="white" stroke="#666666" points="208.24,-129 159.24,-129 159.24,-110 208.24,-110 208.24,-129"/>
<text text-anchor="middle" x="183.74" y="-117" font-family="Inter" font-size="10.00">stack.h</text>
</a>
</g>
</g>
<!-- Node20&#45;&gt;Node24 -->
<g id="edge16_Node000020_Node000024" class="edge">
<title>Node20&#45;&gt;Node24</title>
<g id="a_edge16_Node000020_Node000024"><a xlink:title=" ">
<path fill="none" stroke="#63b8ff" d="M341.53,-164.98C307.9,-155.5 253.64,-140.21 218.33,-130.25"/>
<polygon fill="#63b8ff" stroke="#63b8ff" points="219.04,-126.82 208.47,-127.47 217.14,-133.55 219.04,-126.82"/>
</a>
</g>
</g>
<!-- Node25 -->
<g id="Node000025" class="node">
<title>Node25</title>
<g id="a_Node000025"><a xlink:href="iconcache_8h.html" target="_top" xlink:title=" ">
<polygon fill="white" stroke="#666666" points="297.24,-129 226.24,-129 226.24,-110 297.24,-110 297.24,-129"/>
<text text-anchor="middle" x="261.74" y="-117" font-family="Inter" font-size="10.00">iconcache.h</text>
</a>
</g>
</g>
<!-- Node20&#45;&gt;Node25 -->
<g id="edge18_Node000020_Node000025" class="edge">
<title>Node20&#45;&gt;Node25</title>
<g id="a_edge18_Node000020_Node000025"><a xlink:title=" ">
<path fill="none" stroke="#63b8ff" d="M354.06,-164.98C336.45,-156.5 309.16,-143.35 288.81,-133.54"/>
<polygon fill="#63b8ff" stroke="#63b8ff" points="290.26,-130.36 279.73,-129.17 287.22,-136.66 290.26,-130.36"/>
</a>
</g>
</g>
<!-- Node26 -->
<g id="Node000026" class="node">
<title>Node26</title>
<g id="a_Node000026"><a xlink:title=" ">
<polygon fill="#e0e0e0" stroke="#999999" points="481.74,-129 353.74,-129 353.74,-110 481.74,-110 481.74,-129"/>
<text text-anchor="middle" x="417.74" y="-117" font-family="Inter" font-size="10.00">gdk&#45;pixbuf/gdk&#45;pixbuf.h</text>
</a>
</g>
</g>
<!-- Node20&#45;&gt;Node26 -->
<g id="edge22_Node000020_Node000026" class="edge">
<title>Node20&#45;&gt;Node26</title>
<g id="a_edge22_Node000020_Node000026"><a xlink:title=" ">
<path fill="none" stroke="#63b8ff" d="M379.33,-164.75C385.9,-157.18 395.56,-146.05 403.55,-136.84"/>
<polygon fill="#63b8ff" stroke="#63b8ff" points="406.37,-138.94 410.28,-129.09 401.08,-134.35 406.37,-138.94"/>
</a>
</g>
</g>
<!-- Node13 -->
<g id="Node000013" class="node">
<title>Node13</title>
<g id="a_Node000013"><a xlink:title=" ">
<polygon fill="#e0e0e0" stroke="#999999" points="709.24,-74 650.24,-74 650.24,-55 709.24,-55 709.24,-74"/>
<text text-anchor="middle" x="679.74" y="-62" font-family="Inter" font-size="10.00">gtk/gtk.h</text>
</a>
</g>
</g>
<!-- Node20&#45;&gt;Node13 -->
<g id="edge23_Node000020_Node000013" class="edge">
<title>Node20&#45;&gt;Node13</title>
<g id="a_edge23_Node000020_Node000013"><a xlink:title=" ">
<path fill="none" stroke="#63b8ff" d="M420.51,-170.73C489.32,-165.97 610.44,-154.21 645.74,-129 660.82,-118.23 669.84,-98.64 674.75,-84.06"/>
<polygon fill="#63b8ff" stroke="#63b8ff" points="678.22,-84.7 677.75,-74.12 671.51,-82.68 678.22,-84.7"/>
</a>
</g>
</g>
<!-- Node21&#45;&gt;Node23 -->
<g id="edge13_Node000021_Node000023" class="edge">
<title>Node21&#45;&gt;Node23</title>
<g id="a_edge13_Node000021_Node000023"><a xlink:title=" ">
<path fill="none" stroke="#63b8ff" d="M604.43,-109.75C602.57,-102.72 599.9,-92.62 597.58,-83.84"/>
<polygon fill="#63b8ff" stroke="#63b8ff" points="600.94,-82.86 595.01,-74.09 594.18,-84.65 600.94,-82.86"/>
</a>
</g>
</g>
<!-- Node24&#45;&gt;Node5 -->
<g id="edge17_Node000024_Node000005" class="edge">
<title>Node24&#45;&gt;Node5</title>
<g id="a_edge17_Node000024_Node000005"><a xlink:title=" ">
<path fill="none" stroke="#63b8ff" d="M196.27,-109.98C208.14,-101.92 226.2,-89.65 240.35,-80.03"/>
<polygon fill="#63b8ff" stroke="#63b8ff" points="242.67,-82.69 248.98,-74.17 238.74,-76.9 242.67,-82.69"/>
</a>
</g>
</g>
<!-- Node25&#45;&gt;Node5 -->
<g id="edge19_Node000025_Node000005" class="edge">
<title>Node25&#45;&gt;Node5</title>
<g id="a_edge19_Node000025_Node000005"><a xlink:title=" ">
<path fill="none" stroke="#63b8ff" d="M261.74,-109.75C261.74,-102.8 261.74,-92.85 261.74,-84.13"/>
<polygon fill="#63b8ff" stroke="#63b8ff" points="265.24,-84.09 261.74,-74.09 258.24,-84.09 265.24,-84.09"/>
</a>
</g>
</g>
<!-- Node12 -->
<g id="Node000012" class="node">
<title>Node12</title>
<g id="a_Node000012"><a xlink:href="marco_2src_2include_2common_8h.html" target="_top" xlink:title=" ">
<polygon fill="#fff0f0" stroke="red" points="759.74,-129 693.74,-129 693.74,-110 759.74,-110 759.74,-129"/>
<text text-anchor="middle" x="726.74" y="-117" font-family="Inter" font-size="10.00">common.h</text>
</a>
</g>
</g>
<!-- Node27&#45;&gt;Node12 -->
<g id="edge25_Node000027_Node000012" class="edge">
<title>Node27&#45;&gt;Node12</title>
<g id="a_edge25_Node000027_Node000012"><a xlink:title=" ">
<path fill="none" stroke="#63b8ff" d="M726.74,-164.75C726.74,-157.8 726.74,-147.85 726.74,-139.13"/>
<polygon fill="#63b8ff" stroke="#63b8ff" points="730.24,-139.09 726.74,-129.09 723.24,-139.09 730.24,-139.09"/>
</a>
</g>
</g>
<!-- Node28 -->
<g id="Node000028" class="node">
<title>Node28</title>
<g id="a_Node000028"><a xlink:title=" ">
<polygon fill="#e0e0e0" stroke="#999999" points="887.74,-129 777.74,-129 777.74,-110 887.74,-110 887.74,-129"/>
<text text-anchor="middle" x="832.74" y="-117" font-family="Inter" font-size="10.00">pango/pango&#45;font.h</text>
</a>
</g>
</g>
<!-- Node27&#45;&gt;Node28 -->
<g id="edge27_Node000027_Node000028" class="edge">
<title>Node27&#45;&gt;Node28</title>
<g id="a_edge27_Node000027_Node000028"><a xlink:title=" ">
<path fill="none" stroke="#63b8ff" d="M743.77,-164.98C760.67,-156.54 786.8,-143.47 806.38,-133.68"/>
<polygon fill="#63b8ff" stroke="#63b8ff" points="808.02,-136.77 815.4,-129.17 804.89,-130.51 808.02,-136.77"/>
</a>
</g>
</g>
<!-- Node12&#45;&gt;Node13 -->
<g id="edge26_Node000012_Node000013" class="edge">
<title>Node12&#45;&gt;Node13</title>
<g id="a_edge26_Node000012_Node000013"><a xlink:title=" ">
<path fill="none" stroke="#63b8ff" d="M718.98,-109.75C712.27,-102.18 702.4,-91.05 694.23,-81.84"/>
<polygon fill="#63b8ff" stroke="#63b8ff" points="696.61,-79.25 687.35,-74.09 691.37,-83.89 696.61,-79.25"/>
</a>
</g>
</g>
</g>
</svg>

<g id="navigator" transform="translate(0 0)" fill="#404254">
  <rect fill="#f2f5e9" fill-opacity="0.5" stroke="#606060" stroke-width=".5" x="0" y="0" width="60" height="60"/>
  <use id="zoomplus" xlink:href="#zoomPlus" x="17" y="9" onmousedown="handleZoom(evt,'in')"/>
  <use id="zoomminus" xlink:href="#zoomMin" x="42" y="9" onmousedown="handleZoom(evt,'out')"/>
  <use id="reset" xlink:href="#resetDef" x="30" y="36" onmousedown="handleReset()"/>
   <use id="arrowup" xlink:href="#arrowUp" x="0" y="0" onmousedown="handlePan(0,-1)"/>
  <use id="arrowright" xlink:href="#arrowRight" x="0" y="0" onmousedown="handlePan(1,0)"/>
  <use id="arrowdown" xlink:href="#arrowDown" x="0" y="0" onmousedown="handlePan(0,1)"/>
  <use id="arrowleft" xlink:href="#arrowLeft" x="0" y="0" onmousedown="handlePan(-1,0)"/>
</g>
<svg viewBox="0 0 15 15" width="100%" height="30px" preserveAspectRatio="xMaxYMin meet">
 <g id="arrow_out" transform="scale(0.3 0.3)">
  <a xlink:href="effects_8c__incl_org.svg" target="_base">
   <rect id="button" ry="5" rx="5" y="6" x="6" height="38" width="38"
        fill="#f2f5e9" fill-opacity="0.5" stroke="#606060" stroke-width="1.0"/>
   <path id="arrow"
     d="M 11.500037,31.436501 C 11.940474,20.09759 22.043105,11.32322 32.158766,21.979434 L 37.068811,17.246167 C 37.068811,17.246167 37.088388,32 37.088388,32 L 22.160133,31.978069 C 22.160133,31.978069 26.997745,27.140456 26.997745,27.140456 C 18.528582,18.264221 13.291696,25.230495 11.500037,31.436501 z"
     style="fill:#404040;"/>
  </a>
 </g>
</svg>

<style type='text/css'>
<![CDATA[
[data-mouse-over-selected='false'] { opacity: 0.7; }
[data-mouse-over-selected='true']  { opacity: 1.0; }
]]>
</style>
<script type="application/ecmascript"><![CDATA[
document.addEventListener('DOMContentLoaded', (event) => {
  highlightEdges();
  highlightAdjacentNodes();
});
]]></script>
</svg>
