<?xml version="1.0" encoding="UTF-8" standalone="no"?>
<!DOCTYPE svg PUBLIC "-//W3C//DTD SVG 1.1//EN"
 "http://www.w3.org/Graphics/SVG/1.1/DTD/svg11.dtd">
<!-- Generated by graphviz version 2.43.0 (0)
 -->
<!-- Title: egg&#45;console&#45;kit.h Pages: 1 -->
<svg width="528pt" height="82pt"
 viewBox="0.00 0.00 528.00 82.00" xmlns="http://www.w3.org/2000/svg" xmlns:xlink="http://www.w3.org/1999/xlink">
<g id="graph0" class="graph" transform="scale(1 1) rotate(0) translate(4 78)">
<title>egg&#45;console&#45;kit.h</title>
<!-- Node1 -->
<g id="Node000001" class="node">
<title>Node1</title>
<g id="a_Node000001"><a xlink:title=" ">
<polygon fill="#999999" stroke="#666666" points="308.5,-74 212.5,-74 212.5,-55 308.5,-55 308.5,-74"/>
<text text-anchor="middle" x="260.5" y="-62" font-family="Inter" font-size="10.00">egg&#45;console&#45;kit.h</text>
</a>
</g>
</g>
<!-- Node2 -->
<g id="Node000002" class="node">
<title>Node2</title>
<g id="a_Node000002"><a xlink:href="egg-console-kit_8c.html" target="_top" xlink:title=" ">
<polygon fill="white" stroke="#666666" points="95,-19 0,-19 0,0 95,0 95,-19"/>
<text text-anchor="middle" x="47.5" y="-7" font-family="Inter" font-size="10.00">egg&#45;console&#45;kit.c</text>
</a>
</g>
</g>
<!-- Node1&#45;&gt;Node2 -->
<g id="edge1_Node000001_Node000002" class="edge">
<title>Node1&#45;&gt;Node2</title>
<g id="a_edge1_Node000001_Node000002"><a xlink:title=" ">
<path fill="none" stroke="#63b8ff" d="M216.55,-52.56C176.66,-42.64 118.63,-28.2 81.99,-19.08"/>
<polygon fill="#63b8ff" stroke="#63b8ff" points="215.73,-55.97 226.28,-54.98 217.42,-49.17 215.73,-55.97"/>
</a>
</g>
</g>
<!-- Node3 -->
<g id="Node000003" class="node">
<title>Node3</title>
<g id="a_Node000003"><a xlink:href="gpm-backlight_8c.html" target="_top" xlink:title=" ">
<polygon fill="white" stroke="#666666" points="202,-19 113,-19 113,0 202,0 202,-19"/>
<text text-anchor="middle" x="157.5" y="-7" font-family="Inter" font-size="10.00">gpm&#45;backlight.c</text>
</a>
</g>
</g>
<!-- Node1&#45;&gt;Node3 -->
<g id="edge2_Node000001_Node000003" class="edge">
<title>Node1&#45;&gt;Node3</title>
<g id="a_edge2_Node000001_Node000003"><a xlink:title=" ">
<path fill="none" stroke="#63b8ff" d="M234.98,-50.37C216.06,-40.63 190.8,-27.64 174.35,-19.17"/>
<polygon fill="#63b8ff" stroke="#63b8ff" points="233.46,-53.52 243.95,-54.98 236.66,-47.3 233.46,-53.52"/>
</a>
</g>
</g>
<!-- Node4 -->
<g id="Node000004" class="node">
<title>Node4</title>
<g id="a_Node000004"><a xlink:href="gpm-control_8c.html" target="_top" xlink:title=" ">
<polygon fill="white" stroke="#666666" points="300.5,-19 220.5,-19 220.5,0 300.5,0 300.5,-19"/>
<text text-anchor="middle" x="260.5" y="-7" font-family="Inter" font-size="10.00">gpm&#45;control.c</text>
</a>
</g>
</g>
<!-- Node1&#45;&gt;Node4 -->
<g id="edge3_Node000001_Node000004" class="edge">
<title>Node1&#45;&gt;Node4</title>
<g id="a_edge3_Node000001_Node000004"><a xlink:title=" ">
<path fill="none" stroke="#63b8ff" d="M260.5,-44.66C260.5,-35.93 260.5,-25.99 260.5,-19.09"/>
<polygon fill="#63b8ff" stroke="#63b8ff" points="257,-44.75 260.5,-54.75 264,-44.75 257,-44.75"/>
</a>
</g>
</g>
<!-- Node5 -->
<g id="Node000005" class="node">
<title>Node5</title>
<g id="a_Node000005"><a xlink:href="gpm-manager_8c.html" target="_top" xlink:title=" ">
<polygon fill="white" stroke="#666666" points="406.5,-19 318.5,-19 318.5,0 406.5,0 406.5,-19"/>
<text text-anchor="middle" x="362.5" y="-7" font-family="Inter" font-size="10.00">gpm&#45;manager.c</text>
</a>
</g>
</g>
<!-- Node1&#45;&gt;Node5 -->
<g id="edge4_Node000001_Node000005" class="edge">
<title>Node1&#45;&gt;Node5</title>
<g id="a_edge4_Node000001_Node000005"><a xlink:title=" ">
<path fill="none" stroke="#63b8ff" d="M285.77,-50.37C304.51,-40.63 329.52,-27.64 345.81,-19.17"/>
<polygon fill="#63b8ff" stroke="#63b8ff" points="284.15,-47.27 276.89,-54.98 287.38,-53.48 284.15,-47.27"/>
</a>
</g>
</g>
<!-- Node6 -->
<g id="Node000006" class="node">
<title>Node6</title>
<g id="a_Node000006"><a xlink:href="gpm-prefs-core_8c.html" target="_top" xlink:title=" ">
<polygon fill="white" stroke="#666666" points="520,-19 425,-19 425,0 520,0 520,-19"/>
<text text-anchor="middle" x="472.5" y="-7" font-family="Inter" font-size="10.00">gpm&#45;prefs&#45;core.c</text>
</a>
</g>
</g>
<!-- Node1&#45;&gt;Node6 -->
<g id="edge5_Node000001_Node000006" class="edge">
<title>Node1&#45;&gt;Node6</title>
<g id="a_edge5_Node000001_Node000006"><a xlink:title=" ">
<path fill="none" stroke="#63b8ff" d="M304.5,-52.5C344.19,-42.58 401.78,-28.18 438.17,-19.08"/>
<polygon fill="#63b8ff" stroke="#63b8ff" points="303.41,-49.16 294.56,-54.98 305.11,-55.95 303.41,-49.16"/>
</a>
</g>
</g>
</g>
</svg>
