<?xml version="1.0" encoding="UTF-8" standalone="no"?>
<!DOCTYPE svg PUBLIC "-//W3C//DTD SVG 1.1//EN"
 "http://www.w3.org/Graphics/SVG/1.1/DTD/svg11.dtd">
<!-- Generated by graphviz version 2.43.0 (0)
 -->
<!-- Title: egg&#45;sm&#45;client.c Pages: 1 -->
<svg width="404pt" height="192pt"
 viewBox="0.00 0.00 404.00 192.00" xmlns="http://www.w3.org/2000/svg" xmlns:xlink="http://www.w3.org/1999/xlink">
<g id="graph0" class="graph" transform="scale(1 1) rotate(0) translate(4 188)">
<title>egg&#45;sm&#45;client.c</title>
<!-- Node1 -->
<g id="Node000001" class="node">
<title>Node1</title>
<g id="a_Node000001"><a xlink:title=" ">
<polygon fill="#999999" stroke="#666666" points="223,-184 137,-184 137,-165 223,-165 223,-184"/>
<text text-anchor="middle" x="180" y="-172" font-family="Inter" font-size="10.00">egg&#45;sm&#45;client.c</text>
</a>
</g>
</g>
<!-- Node2 -->
<g id="Node000002" class="node">
<title>Node2</title>
<g id="a_Node000002"><a xlink:title=" ">
<polygon fill="#e0e0e0" stroke="#999999" points="54,-129 0,-129 0,-110 54,-110 54,-129"/>
<text text-anchor="middle" x="27" y="-117" font-family="Inter" font-size="10.00">config.h</text>
</a>
</g>
</g>
<!-- Node1&#45;&gt;Node2 -->
<g id="edge1_Node000001_Node000002" class="edge">
<title>Node1&#45;&gt;Node2</title>
<g id="a_edge1_Node000001_Node000002"><a xlink:title=" ">
<path fill="none" stroke="#63b8ff" d="M155.42,-164.98C129.95,-156.16 89.96,-142.31 61.37,-132.41"/>
<polygon fill="#63b8ff" stroke="#63b8ff" points="62.37,-129.05 51.77,-129.08 60.08,-135.66 62.37,-129.05"/>
</a>
</g>
</g>
<!-- Node3 -->
<g id="Node000003" class="node">
<title>Node3</title>
<g id="a_Node000003"><a xlink:title=" ">
<polygon fill="#e0e0e0" stroke="#999999" points="125.5,-129 72.5,-129 72.5,-110 125.5,-110 125.5,-129"/>
<text text-anchor="middle" x="99" y="-117" font-family="Inter" font-size="10.00">string.h</text>
</a>
</g>
</g>
<!-- Node1&#45;&gt;Node3 -->
<g id="edge2_Node000001_Node000003" class="edge">
<title>Node1&#45;&gt;Node3</title>
<g id="a_edge2_Node000001_Node000003"><a xlink:title=" ">
<path fill="none" stroke="#63b8ff" d="M166.99,-164.98C154.54,-156.84 135.54,-144.41 120.79,-134.76"/>
<polygon fill="#63b8ff" stroke="#63b8ff" points="122.54,-131.72 112.25,-129.17 118.7,-137.57 122.54,-131.72"/>
</a>
</g>
</g>
<!-- Node4 -->
<g id="Node000004" class="node">
<title>Node4</title>
<g id="a_Node000004"><a xlink:title=" ">
<polygon fill="#e0e0e0" stroke="#999999" points="216,-129 144,-129 144,-110 216,-110 216,-129"/>
<text text-anchor="middle" x="180" y="-117" font-family="Inter" font-size="10.00">glib/gi18n.h</text>
</a>
</g>
</g>
<!-- Node1&#45;&gt;Node4 -->
<g id="edge3_Node000001_Node000004" class="edge">
<title>Node1&#45;&gt;Node4</title>
<g id="a_edge3_Node000001_Node000004"><a xlink:title=" ">
<path fill="none" stroke="#63b8ff" d="M180,-164.75C180,-157.8 180,-147.85 180,-139.13"/>
<polygon fill="#63b8ff" stroke="#63b8ff" points="183.5,-139.09 180,-129.09 176.5,-139.09 183.5,-139.09"/>
</a>
</g>
</g>
<!-- Node5 -->
<g id="Node000005" class="node">
<title>Node5</title>
<g id="a_Node000005"><a xlink:href="egg-sm-client_8h.html" target="_top" xlink:title=" ">
<polygon fill="white" stroke="#666666" points="288,-74 200,-74 200,-55 288,-55 288,-74"/>
<text text-anchor="middle" x="244" y="-62" font-family="Inter" font-size="10.00">egg&#45;sm&#45;client.h</text>
</a>
</g>
</g>
<!-- Node1&#45;&gt;Node5 -->
<g id="edge4_Node000001_Node000005" class="edge">
<title>Node1&#45;&gt;Node5</title>
<g id="a_edge4_Node000001_Node000005"><a xlink:title=" ">
<path fill="none" stroke="#63b8ff" d="M191.59,-164.84C201.77,-156.66 216.29,-143.51 225,-129 233.33,-115.13 238.24,-97.33 240.98,-84.11"/>
<polygon fill="#63b8ff" stroke="#63b8ff" points="244.42,-84.74 242.79,-74.27 237.54,-83.47 244.42,-84.74"/>
</a>
</g>
</g>
<!-- Node7 -->
<g id="Node000007" class="node">
<title>Node7</title>
<g id="a_Node000007"><a xlink:href="egg-sm-client-private_8h.html" target="_top" xlink:title=" ">
<polygon fill="white" stroke="#666666" points="396,-129 272,-129 272,-110 396,-110 396,-129"/>
<text text-anchor="middle" x="334" y="-117" font-family="Inter" font-size="10.00">egg&#45;sm&#45;client&#45;private.h</text>
</a>
</g>
</g>
<!-- Node1&#45;&gt;Node7 -->
<g id="edge6_Node000001_Node000007" class="edge">
<title>Node1&#45;&gt;Node7</title>
<g id="a_edge6_Node000001_Node000007"><a xlink:title=" ">
<path fill="none" stroke="#63b8ff" d="M204.74,-164.98C230.37,-156.16 270.63,-142.31 299.41,-132.41"/>
<polygon fill="#63b8ff" stroke="#63b8ff" points="300.75,-135.65 309.06,-129.08 298.47,-129.03 300.75,-135.65"/>
</a>
</g>
</g>
<!-- Node6 -->
<g id="Node000006" class="node">
<title>Node6</title>
<g id="a_Node000006"><a xlink:title=" ">
<polygon fill="#e0e0e0" stroke="#999999" points="281,-19 207,-19 207,0 281,0 281,-19"/>
<text text-anchor="middle" x="244" y="-7" font-family="Inter" font-size="10.00">glib&#45;object.h</text>
</a>
</g>
</g>
<!-- Node5&#45;&gt;Node6 -->
<g id="edge5_Node000005_Node000006" class="edge">
<title>Node5&#45;&gt;Node6</title>
<g id="a_edge5_Node000005_Node000006"><a xlink:title=" ">
<path fill="none" stroke="#63b8ff" d="M244,-54.75C244,-47.8 244,-37.85 244,-29.13"/>
<polygon fill="#63b8ff" stroke="#63b8ff" points="247.5,-29.09 244,-19.09 240.5,-29.09 247.5,-29.09"/>
</a>
</g>
</g>
<!-- Node7&#45;&gt;Node5 -->
<g id="edge8_Node000007_Node000005" class="edge">
<title>Node7&#45;&gt;Node5</title>
<g id="a_edge8_Node000007_Node000005"><a xlink:title=" ">
<path fill="none" stroke="#63b8ff" d="M319.54,-109.98C305.58,-101.77 284.21,-89.18 267.75,-79.49"/>
<polygon fill="#63b8ff" stroke="#63b8ff" points="269.12,-76.23 258.72,-74.17 265.56,-82.26 269.12,-76.23"/>
</a>
</g>
</g>
<!-- Node8 -->
<g id="Node000008" class="node">
<title>Node8</title>
<g id="a_Node000008"><a xlink:title=" ">
<polygon fill="#e0e0e0" stroke="#999999" points="365.5,-74 306.5,-74 306.5,-55 365.5,-55 365.5,-74"/>
<text text-anchor="middle" x="336" y="-62" font-family="Inter" font-size="10.00">gtk/gtk.h</text>
</a>
</g>
</g>
<!-- Node7&#45;&gt;Node8 -->
<g id="edge7_Node000007_Node000008" class="edge">
<title>Node7&#45;&gt;Node8</title>
<g id="a_edge7_Node000007_Node000008"><a xlink:title=" ">
<path fill="none" stroke="#63b8ff" d="M334.33,-109.75C334.59,-102.8 334.97,-92.85 335.3,-84.13"/>
<polygon fill="#63b8ff" stroke="#63b8ff" points="338.8,-84.21 335.68,-74.09 331.8,-83.95 338.8,-84.21"/>
</a>
</g>
</g>
</g>
</svg>
