<?xml version="1.0" encoding="UTF-8" standalone="no"?>
<!DOCTYPE svg PUBLIC "-//W3C//DTD SVG 1.1//EN"
 "http://www.w3.org/Graphics/SVG/1.1/DTD/svg11.dtd">
<!-- Generated by graphviz version 2.43.0 (0)
 -->
<!-- Title: eom&#45;fullscreen&#45;plugin.c Pages: 1 -->
<!--zoomable 203 -->

<svg id="main" version="1.1" xmlns="http://www.w3.org/2000/svg" xmlns:xlink="http://www.w3.org/1999/xlink" xml:space="preserve" onload="init(evt)">

<style type="text/css"><![CDATA[
.node, .edge {opacity: 0.7;}
.node.selected, .edge.selected {opacity: 1;}
.edge:hover path { stroke: red; }
.edge:hover polygon { stroke: red; fill: red; }
]]></style>

<defs>
  <circle id="rim" cx="0" cy="0" r="7"/>
  <circle id="rim2" cx="0" cy="0" r="3.5"/>
  <g id="zoomPlus">
    <use xlink:href="#rim" fill="#404040"><set attributeName="fill" to="#808080" begin="zoomplus.mouseover" end="zoomplus.mouseout"/></use>
    <path d="M-4,0h8M0,-4v8" fill="none" stroke="white" stroke-width="1.5" pointer-events="none"/>
  </g>
  <g id="zoomMin">
    <use xlink:href="#rim" fill="#404040"><set attributeName="fill" to="#808080" begin="zoomminus.mouseover" end="zoomminus.mouseout"/></use>
    <path d="M-4,0h8" fill="none" stroke="white" stroke-width="1.5" pointer-events="none"/>
  </g>
  <g id="arrowUp" transform="translate(30 24)">
    <use xlink:href="#rim"/>
    <path pointer-events="none" fill="none" stroke="white" stroke-width="1.5" d="M0,-3.0v7 M-2.5,-0.5L0,-3.0L2.5,-0.5"/>
  </g>
  <g id="arrowRight" transform="rotate(90) translate(36 -43)">
    <use xlink:href="#rim"/>
    <path pointer-events="none" fill="none" stroke="white" stroke-width="1.5" d="M0,-3.0v7 M-2.5,-0.5L0,-3.0L2.5,-0.5"/>
  </g>
  <g id="arrowDown" transform="rotate(180) translate(-30 -48)">
    <use xlink:href="#rim"/>
    <path pointer-events="none" fill="none" stroke="white" stroke-width="1.5" d="M0,-3.0v7 M-2.5,-0.5L0,-3.0L2.5,-0.5"/>
  </g>
  <g id="arrowLeft" transform="rotate(270) translate(-36 17)">
    <use xlink:href="#rim"/>
    <path pointer-events="none" fill="none" stroke="white" stroke-width="1.5" d="M0,-3.0v7 M-2.5,-0.5L0,-3.0L2.5,-0.5"/>
  </g>
  <g id="resetDef">
    <use xlink:href="#rim2" fill="#404040"><set attributeName="fill" to="#808080" begin="reset.mouseover" end="reset.mouseout"/></use>
  </g>
</defs>
<script type="application/ecmascript">
var viewWidth = 881;
var viewHeight = 203;
var sectionId = 'dynsection-0';
</script>
<script type="application/ecmascript" xlink:href="svg.min.js"/>
<svg id="graph" class="graph">
<g id="viewport">
<title>eom&#45;fullscreen&#45;plugin.c</title>
<!-- Node1 -->
<g id="Node000001" class="node">
<title>Node1</title>
<g id="a_Node000001"><a xlink:title=" ">
<polygon fill="#999999" stroke="#666666" points="581.5,-195 456.5,-195 456.5,-176 581.5,-176 581.5,-195"/>
<text text-anchor="middle" x="519" y="-183" font-family="Inter" font-size="10.00">eom&#45;fullscreen&#45;plugin.c</text>
</a>
</g>
</g>
<!-- Node2 -->
<g id="Node000002" class="node">
<title>Node2</title>
<g id="a_Node000002"><a xlink:href="eom-fullscreen-plugin_8h.html" target="_top" xlink:title=" ">
<polygon fill="white" stroke="#666666" points="453,-140 327,-140 327,-121 453,-121 453,-140"/>
<text text-anchor="middle" x="390" y="-128" font-family="Inter" font-size="10.00">eom&#45;fullscreen&#45;plugin.h</text>
</a>
</g>
</g>
<!-- Node1&#45;&gt;Node2 -->
<g id="edge1_Node000001_Node000002" class="edge">
<title>Node1&#45;&gt;Node2</title>
<g id="a_edge1_Node000001_Node000002"><a xlink:title=" ">
<path fill="none" stroke="#63b8ff" d="M498.27,-175.98C477.24,-167.34 444.45,-153.87 420.46,-144.02"/>
<polygon fill="#63b8ff" stroke="#63b8ff" points="421.68,-140.73 411.1,-140.17 419.02,-147.21 421.68,-140.73"/>
</a>
</g>
</g>
<!-- Node8 -->
<g id="Node000008" class="node">
<title>Node8</title>
<g id="a_Node000008"><a xlink:href="eom-window_8h.html" target="_top" xlink:title=" ">
<polygon fill="#fff0f0" stroke="red" points="523.5,-79.5 438.5,-79.5 438.5,-60.5 523.5,-60.5 523.5,-79.5"/>
<text text-anchor="middle" x="481" y="-67.5" font-family="Inter" font-size="10.00">eom&#45;window.h</text>
</a>
</g>
</g>
<!-- Node1&#45;&gt;Node8 -->
<g id="edge16_Node000001_Node000008" class="edge">
<title>Node1&#45;&gt;Node8</title>
<g id="a_edge16_Node000001_Node000008"><a xlink:title=" ">
<path fill="none" stroke="#63b8ff" d="M516.14,-175.97C510.01,-157.65 495.46,-114.18 487.13,-89.31"/>
<polygon fill="#63b8ff" stroke="#63b8ff" points="490.38,-88 483.89,-79.63 483.75,-90.22 490.38,-88"/>
</a>
</g>
</g>
<!-- Node17 -->
<g id="Node000017" class="node">
<title>Node17</title>
<g id="a_Node000017"><a xlink:title=" ">
<polygon fill="#e0e0e0" stroke="#999999" points="614.5,-140 547.5,-140 547.5,-121 614.5,-121 614.5,-140"/>
<text text-anchor="middle" x="581" y="-128" font-family="Inter" font-size="10.00">gmodule.h</text>
</a>
</g>
</g>
<!-- Node1&#45;&gt;Node17 -->
<g id="edge11_Node000001_Node000017" class="edge">
<title>Node1&#45;&gt;Node17</title>
<g id="a_edge11_Node000001_Node000017"><a xlink:title=" ">
<path fill="none" stroke="#63b8ff" d="M528.96,-175.98C538.13,-168.15 551.94,-156.34 563.03,-146.86"/>
<polygon fill="#63b8ff" stroke="#63b8ff" points="565.53,-149.33 570.86,-140.17 560.98,-144.01 565.53,-149.33"/>
</a>
</g>
</g>
<!-- Node18 -->
<g id="Node000018" class="node">
<title>Node18</title>
<g id="a_Node000018"><a xlink:title=" ">
<polygon fill="#e0e0e0" stroke="#999999" points="719,-140 633,-140 633,-121 719,-121 719,-140"/>
<text text-anchor="middle" x="676" y="-128" font-family="Inter" font-size="10.00">glib/gi18n&#45;lib.h</text>
</a>
</g>
</g>
<!-- Node1&#45;&gt;Node18 -->
<g id="edge12_Node000001_Node000018" class="edge">
<title>Node1&#45;&gt;Node18</title>
<g id="a_edge12_Node000001_Node000018"><a xlink:title=" ">
<path fill="none" stroke="#63b8ff" d="M544.22,-175.98C570.36,-167.16 611.4,-153.31 640.73,-143.41"/>
<polygon fill="#63b8ff" stroke="#63b8ff" points="642.22,-146.6 650.58,-140.08 639.98,-139.96 642.22,-146.6"/>
</a>
</g>
</g>
<!-- Node19 -->
<g id="Node000019" class="node">
<title>Node19</title>
<g id="a_Node000019"><a xlink:title=" ">
<polygon fill="#e0e0e0" stroke="#999999" points="873,-140 737,-140 737,-121 873,-121 873,-140"/>
<text text-anchor="middle" x="805" y="-128" font-family="Inter" font-size="10.00">libpeas/peas&#45;activatable.h</text>
</a>
</g>
</g>
<!-- Node1&#45;&gt;Node19 -->
<g id="edge13_Node000001_Node000019" class="edge">
<title>Node1&#45;&gt;Node19</title>
<g id="a_edge13_Node000001_Node000019"><a xlink:title=" ">
<path fill="none" stroke="#63b8ff" d="M564.95,-175.98C614.94,-166.72 694.89,-151.9 748.64,-141.94"/>
<polygon fill="#63b8ff" stroke="#63b8ff" points="749.49,-145.35 758.69,-140.08 748.22,-138.46 749.49,-145.35"/>
</a>
</g>
</g>
<!-- Node20 -->
<g id="Node000020" class="node">
<title>Node20</title>
<g id="a_Node000020"><a xlink:href="eom-debug_8h.html" target="_top" xlink:title=" ">
<polygon fill="white" stroke="#666666" points="80,-79.5 0,-79.5 0,-60.5 80,-60.5 80,-79.5"/>
<text text-anchor="middle" x="40" y="-67.5" font-family="Inter" font-size="10.00">eom&#45;debug.h</text>
</a>
</g>
</g>
<!-- Node1&#45;&gt;Node20 -->
<g id="edge14_Node000001_Node000020" class="edge">
<title>Node1&#45;&gt;Node20</title>
<g id="a_edge14_Node000001_Node000020"><a xlink:title=" ">
<path fill="none" stroke="#63b8ff" d="M478.89,-175.93C438.27,-167.18 373.67,-153.07 318,-140 234.77,-120.46 137.95,-96.05 83.33,-82.12"/>
<polygon fill="#63b8ff" stroke="#63b8ff" points="83.87,-78.64 73.31,-79.56 82.14,-85.42 83.87,-78.64"/>
</a>
</g>
</g>
<!-- Node21 -->
<g id="Node000021" class="node">
<title>Node21</title>
<g id="a_Node000021"><a xlink:href="eom-window-activatable_8h.html" target="_top" xlink:title=" ">
<polygon fill="white" stroke="#666666" points="717.5,-79.5 580.5,-79.5 580.5,-60.5 717.5,-60.5 717.5,-79.5"/>
<text text-anchor="middle" x="649" y="-67.5" font-family="Inter" font-size="10.00">eom&#45;window&#45;activatable.h</text>
</a>
</g>
</g>
<!-- Node1&#45;&gt;Node21 -->
<g id="edge17_Node000001_Node000021" class="edge">
<title>Node1&#45;&gt;Node21</title>
<g id="a_edge17_Node000001_Node000021"><a xlink:title=" ">
<path fill="none" stroke="#63b8ff" d="M519.55,-175.6C520.83,-162.2 525.06,-136.75 539,-121 555.4,-102.48 580.04,-90.41 601.84,-82.78"/>
<polygon fill="#63b8ff" stroke="#63b8ff" points="603.2,-86.02 611.62,-79.58 601.02,-79.36 603.2,-86.02"/>
</a>
</g>
</g>
<!-- Node3 -->
<g id="Node000003" class="node">
<title>Node3</title>
<g id="a_Node000003"><a xlink:title=" ">
<polygon fill="#e0e0e0" stroke="#999999" points="129,-19 87,-19 87,0 129,0 129,-19"/>
<text text-anchor="middle" x="108" y="-7" font-family="Inter" font-size="10.00">glib.h</text>
</a>
</g>
</g>
<!-- Node2&#45;&gt;Node3 -->
<g id="edge2_Node000002_Node000003" class="edge">
<title>Node2&#45;&gt;Node3</title>
<g id="a_edge2_Node000002_Node000003"><a xlink:title=" ">
<path fill="none" stroke="#63b8ff" d="M326.75,-126.58C258.39,-122.12 155.4,-111.16 127,-85 111.76,-70.97 108.02,-46.57 107.43,-29.53"/>
<polygon fill="#63b8ff" stroke="#63b8ff" points="110.93,-29.13 107.43,-19.13 103.93,-29.13 110.93,-29.13"/>
</a>
</g>
</g>
<!-- Node4 -->
<g id="Node000004" class="node">
<title>Node4</title>
<g id="a_Node000004"><a xlink:title=" ">
<polygon fill="#e0e0e0" stroke="#999999" points="589,-19 515,-19 515,0 589,0 589,-19"/>
<text text-anchor="middle" x="552" y="-7" font-family="Inter" font-size="10.00">glib&#45;object.h</text>
</a>
</g>
</g>
<!-- Node2&#45;&gt;Node4 -->
<g id="edge3_Node000002_Node000004" class="edge">
<title>Node2&#45;&gt;Node4</title>
<g id="a_edge3_Node000002_Node000004"><a xlink:title=" ">
<path fill="none" stroke="#63b8ff" d="M453.26,-123.68C481.2,-117.96 512.32,-106.78 533,-85 547.19,-70.06 551.17,-46.04 552.1,-29.33"/>
<polygon fill="#63b8ff" stroke="#63b8ff" points="555.61,-29.21 552.34,-19.13 548.61,-29.05 555.61,-29.21"/>
</a>
</g>
</g>
<!-- Node5 -->
<g id="Node000005" class="node">
<title>Node5</title>
<g id="a_Node000005"><a xlink:title=" ">
<polygon fill="#e0e0e0" stroke="#999999" points="467.5,-19 408.5,-19 408.5,0 467.5,0 467.5,-19"/>
<text text-anchor="middle" x="438" y="-7" font-family="Inter" font-size="10.00">gtk/gtk.h</text>
</a>
</g>
</g>
<!-- Node2&#45;&gt;Node5 -->
<g id="edge4_Node000002_Node000005" class="edge">
<title>Node2&#45;&gt;Node5</title>
<g id="a_edge4_Node000002_Node000005"><a xlink:title=" ">
<path fill="none" stroke="#63b8ff" d="M393.45,-120.94C401.2,-101.74 420.11,-54.86 430.63,-28.77"/>
<polygon fill="#63b8ff" stroke="#63b8ff" points="433.95,-29.88 434.45,-19.3 427.46,-27.27 433.95,-29.88"/>
</a>
</g>
</g>
<!-- Node6 -->
<g id="Node000006" class="node">
<title>Node6</title>
<g id="a_Node000006"><a xlink:title=" ">
<polygon fill="#e0e0e0" stroke="#999999" points="258,-85 136,-85 136,-55 258,-55 258,-85"/>
<text text-anchor="start" x="144" y="-73" font-family="Inter" font-size="10.00">libpeas/peas&#45;extension</text>
<text text-anchor="middle" x="197" y="-62" font-family="Inter" font-size="10.00">&#45;base.h</text>
</a>
</g>
</g>
<!-- Node2&#45;&gt;Node6 -->
<g id="edge5_Node000002_Node000006" class="edge">
<title>Node2&#45;&gt;Node6</title>
<g id="a_edge5_Node000002_Node000006"><a xlink:title=" ">
<path fill="none" stroke="#63b8ff" d="M361.94,-120.99C333.55,-112.39 288.9,-98.86 253.21,-88.04"/>
<polygon fill="#63b8ff" stroke="#63b8ff" points="253.99,-84.62 243.4,-85.06 251.95,-91.31 253.99,-84.62"/>
</a>
</g>
</g>
<!-- Node7 -->
<g id="Node000007" class="node">
<title>Node7</title>
<g id="a_Node000007"><a xlink:title=" ">
<polygon fill="#e0e0e0" stroke="#999999" points="382,-85 276,-85 276,-55 382,-55 382,-85"/>
<text text-anchor="start" x="284" y="-73" font-family="Inter" font-size="10.00">libpeas/peas&#45;object</text>
<text text-anchor="middle" x="329" y="-62" font-family="Inter" font-size="10.00">&#45;module.h</text>
</a>
</g>
</g>
<!-- Node2&#45;&gt;Node7 -->
<g id="edge6_Node000002_Node000007" class="edge">
<title>Node2&#45;&gt;Node7</title>
<g id="a_edge6_Node000002_Node000007"><a xlink:title=" ">
<path fill="none" stroke="#63b8ff" d="M381,-120.87C373.11,-113.3 361.3,-101.98 350.94,-92.04"/>
<polygon fill="#63b8ff" stroke="#63b8ff" points="353.36,-89.51 343.72,-85.11 348.51,-94.56 353.36,-89.51"/>
</a>
</g>
</g>
<!-- Node2&#45;&gt;Node8 -->
<g id="edge7_Node000002_Node000008" class="edge">
<title>Node2&#45;&gt;Node8</title>
<g id="a_edge7_Node000002_Node000008"><a xlink:title=" ">
<path fill="none" stroke="#63b8ff" d="M403.43,-120.87C418.08,-111.45 441.76,-96.23 459.1,-85.08"/>
<polygon fill="#63b8ff" stroke="#63b8ff" points="461,-88.02 467.52,-79.67 457.21,-82.13 461,-88.02"/>
</a>
</g>
</g>
<!-- Node8&#45;&gt;Node3 -->
<g id="edge8_Node000008_Node000003" class="edge">
<title>Node8&#45;&gt;Node3</title>
<g id="a_edge8_Node000008_Node000003"><a xlink:title=" ">
<path fill="none" stroke="#63b8ff" d="M438.21,-62.29C362.29,-50.38 205.73,-25.83 139.11,-15.38"/>
<polygon fill="#63b8ff" stroke="#63b8ff" points="139.64,-11.92 129.22,-13.83 138.55,-18.83 139.64,-11.92"/>
</a>
</g>
</g>
<!-- Node8&#45;&gt;Node4 -->
<g id="edge9_Node000008_Node000004" class="edge">
<title>Node8&#45;&gt;Node4</title>
<g id="a_edge9_Node000008_Node000004"><a xlink:title=" ">
<path fill="none" stroke="#63b8ff" d="M491.48,-60.37C502.49,-51.3 520.04,-36.84 533.41,-25.82"/>
<polygon fill="#63b8ff" stroke="#63b8ff" points="535.99,-28.23 541.48,-19.17 531.54,-22.83 535.99,-28.23"/>
</a>
</g>
</g>
<!-- Node8&#45;&gt;Node5 -->
<g id="edge10_Node000008_Node000005" class="edge">
<title>Node8&#45;&gt;Node5</title>
<g id="a_edge10_Node000008_Node000005"><a xlink:title=" ">
<path fill="none" stroke="#63b8ff" d="M474.66,-60.37C468.3,-51.73 458.36,-38.2 450.43,-27.42"/>
<polygon fill="#63b8ff" stroke="#63b8ff" points="453.11,-25.15 444.37,-19.17 447.47,-29.3 453.11,-25.15"/>
</a>
</g>
</g>
<!-- Node20&#45;&gt;Node3 -->
<g id="edge15_Node000020_Node000003" class="edge">
<title>Node20&#45;&gt;Node3</title>
<g id="a_edge15_Node000020_Node000003"><a xlink:title=" ">
<path fill="none" stroke="#63b8ff" d="M50.03,-60.37C60.58,-51.3 77.39,-36.84 90.19,-25.82"/>
<polygon fill="#63b8ff" stroke="#63b8ff" points="92.63,-28.34 97.93,-19.17 88.06,-23.04 92.63,-28.34"/>
</a>
</g>
</g>
<!-- Node21&#45;&gt;Node4 -->
<g id="edge18_Node000021_Node000004" class="edge">
<title>Node21&#45;&gt;Node4</title>
<g id="a_edge18_Node000021_Node000004"><a xlink:title=" ">
<path fill="none" stroke="#63b8ff" d="M634.69,-60.37C619,-50.91 593.6,-35.59 575.09,-24.42"/>
<polygon fill="#63b8ff" stroke="#63b8ff" points="576.74,-21.33 566.37,-19.17 573.13,-27.33 576.74,-21.33"/>
</a>
</g>
</g>
</g>
</svg>

<g id="navigator" transform="translate(0 0)" fill="#404254">
  <rect fill="#f2f5e9" fill-opacity="0.5" stroke="#606060" stroke-width=".5" x="0" y="0" width="60" height="60"/>
  <use id="zoomplus" xlink:href="#zoomPlus" x="17" y="9" onmousedown="handleZoom(evt,'in')"/>
  <use id="zoomminus" xlink:href="#zoomMin" x="42" y="9" onmousedown="handleZoom(evt,'out')"/>
  <use id="reset" xlink:href="#resetDef" x="30" y="36" onmousedown="handleReset()"/>
   <use id="arrowup" xlink:href="#arrowUp" x="0" y="0" onmousedown="handlePan(0,-1)"/>
  <use id="arrowright" xlink:href="#arrowRight" x="0" y="0" onmousedown="handlePan(1,0)"/>
  <use id="arrowdown" xlink:href="#arrowDown" x="0" y="0" onmousedown="handlePan(0,1)"/>
  <use id="arrowleft" xlink:href="#arrowLeft" x="0" y="0" onmousedown="handlePan(-1,0)"/>
</g>
<svg viewBox="0 0 15 15" width="100%" height="30px" preserveAspectRatio="xMaxYMin meet">
 <g id="arrow_out" transform="scale(0.3 0.3)">
  <a xlink:href="eom-fullscreen-plugin_8c__incl_org.svg" target="_base">
   <rect id="button" ry="5" rx="5" y="6" x="6" height="38" width="38"
        fill="#f2f5e9" fill-opacity="0.5" stroke="#606060" stroke-width="1.0"/>
   <path id="arrow"
     d="M 11.500037,31.436501 C 11.940474,20.09759 22.043105,11.32322 32.158766,21.979434 L 37.068811,17.246167 C 37.068811,17.246167 37.088388,32 37.088388,32 L 22.160133,31.978069 C 22.160133,31.978069 26.997745,27.140456 26.997745,27.140456 C 18.528582,18.264221 13.291696,25.230495 11.500037,31.436501 z"
     style="fill:#404040;"/>
  </a>
 </g>
</svg>

<style type='text/css'>
<![CDATA[
[data-mouse-over-selected='false'] { opacity: 0.7; }
[data-mouse-over-selected='true']  { opacity: 1.0; }
]]>
</style>
<script type="application/ecmascript"><![CDATA[
document.addEventListener('DOMContentLoaded', (event) => {
  highlightEdges();
  highlightAdjacentNodes();
});
]]></script>
</svg>
