<?xml version="1.0" encoding="UTF-8" standalone="no"?>
<!DOCTYPE svg PUBLIC "-//W3C//DTD SVG 1.1//EN"
 "http://www.w3.org/Graphics/SVG/1.1/DTD/svg11.dtd">
<!-- Generated by graphviz version 2.43.0 (0)
 -->
<!-- Title: eom&#45;list&#45;store.c Pages: 1 -->
<svg width="493pt" height="302pt"
 viewBox="0.00 0.00 493.38 302.00" xmlns="http://www.w3.org/2000/svg" xmlns:xlink="http://www.w3.org/1999/xlink">

<svg id="main" version="1.1" xmlns="http://www.w3.org/2000/svg" xmlns:xlink="http://www.w3.org/1999/xlink" xml:space="preserve">

<style type="text/css"><![CDATA[
.node, .edge {opacity: 0.7;}
.node.selected, .edge.selected {opacity: 1;}
.edge:hover path { stroke: red; }
.edge:hover polygon { stroke: red; fill: red; }
]]></style>
<script type="application/ecmascript" xlink:href="svg.min.js"/>
<svg id="graph" class="graph">
<g id="graph0" class="graph" transform="scale(1 1) rotate(0) translate(4 298)">
<title>eom&#45;list&#45;store.c</title>
<!-- Node1 -->
<g id="Node000001" class="node">
<title>Node1</title>
<g id="a_Node000001"><a xlink:title=" ">
<polygon fill="#999999" stroke="#666666" points="293.88,-294 205.88,-294 205.88,-275 293.88,-275 293.88,-294"/>
<text text-anchor="middle" x="249.88" y="-282" font-family="Inter" font-size="10.00">eom&#45;list&#45;store.c</text>
</a>
</g>
</g>
<!-- Node2 -->
<g id="Node000002" class="node">
<title>Node2</title>
<g id="a_Node000002"><a xlink:href="eom-list-store_8h.html" target="_top" xlink:title=" ">
<polygon fill="white" stroke="#666666" points="288.38,-74 199.38,-74 199.38,-55 288.38,-55 288.38,-74"/>
<text text-anchor="middle" x="243.88" y="-62" font-family="Inter" font-size="10.00">eom&#45;list&#45;store.h</text>
</a>
</g>
</g>
<!-- Node1&#45;&gt;Node2 -->
<g id="edge1_Node000001_Node000002" class="edge">
<title>Node1&#45;&gt;Node2</title>
<g id="a_edge1_Node000001_Node000002"><a xlink:title=" ">
<path fill="none" stroke="#63b8ff" d="M249.65,-274.95C248.76,-242.95 245.65,-129.68 244.4,-84.4"/>
<polygon fill="#63b8ff" stroke="#63b8ff" points="247.89,-84.12 244.12,-74.22 240.9,-84.32 247.89,-84.12"/>
</a>
</g>
</g>
<!-- Node6 -->
<g id="Node000006" class="node">
<title>Node6</title>
<g id="a_Node000006"><a xlink:href="eom-thumbnail_8h.html" target="_top" xlink:title=" ">
<polygon fill="white" stroke="#666666" points="182.88,-239 86.88,-239 86.88,-220 182.88,-220 182.88,-239"/>
<text text-anchor="middle" x="134.88" y="-227" font-family="Inter" font-size="10.00">eom&#45;thumbnail.h</text>
</a>
</g>
</g>
<!-- Node1&#45;&gt;Node6 -->
<g id="edge5_Node000001_Node000006" class="edge">
<title>Node1&#45;&gt;Node6</title>
<g id="a_edge5_Node000001_Node000006"><a xlink:title=" ">
<path fill="none" stroke="#63b8ff" d="M231.4,-274.98C212.9,-266.46 184.2,-253.23 162.9,-243.41"/>
<polygon fill="#63b8ff" stroke="#63b8ff" points="164.24,-240.18 153.69,-239.17 161.31,-246.53 164.24,-240.18"/>
</a>
</g>
</g>
<!-- Node8 -->
<g id="Node000008" class="node">
<title>Node8</title>
<g id="a_Node000008"><a xlink:href="eom-image_8h.html" target="_top" xlink:title=" ">
<polygon fill="#fff0f0" stroke="red" points="97.88,-184 19.88,-184 19.88,-165 97.88,-165 97.88,-184"/>
<text text-anchor="middle" x="58.88" y="-172" font-family="Inter" font-size="10.00">eom&#45;image.h</text>
</a>
</g>
</g>
<!-- Node1&#45;&gt;Node8 -->
<g id="edge15_Node000001_Node000008" class="edge">
<title>Node1&#45;&gt;Node8</title>
<g id="a_edge15_Node000001_Node000008"><a xlink:title=" ">
<path fill="none" stroke="#63b8ff" d="M205.64,-283.61C167.03,-281.3 111.98,-271.84 77.88,-239 65.85,-227.41 61.35,-208.54 59.71,-194.38"/>
<polygon fill="#63b8ff" stroke="#63b8ff" points="63.19,-193.96 58.93,-184.26 56.21,-194.5 63.19,-193.96"/>
</a>
</g>
</g>
<!-- Node9 -->
<g id="Node000009" class="node">
<title>Node9</title>
<g id="a_Node000009"><a xlink:href="eom-jobs_8h.html" target="_top" xlink:title=" ">
<polygon fill="#fff0f0" stroke="red" points="221.88,-129 153.88,-129 153.88,-110 221.88,-110 221.88,-129"/>
<text text-anchor="middle" x="187.88" y="-117" font-family="Inter" font-size="10.00">eom&#45;jobs.h</text>
</a>
</g>
</g>
<!-- Node1&#45;&gt;Node9 -->
<g id="edge19_Node000001_Node000009" class="edge">
<title>Node1&#45;&gt;Node9</title>
<g id="a_edge19_Node000001_Node000009"><a xlink:title=" ">
<path fill="none" stroke="#63b8ff" d="M246.55,-274.74C236.79,-249.09 208.15,-173.78 194.83,-138.78"/>
<polygon fill="#63b8ff" stroke="#63b8ff" points="198.06,-137.41 191.23,-129.31 191.51,-139.9 198.06,-137.41"/>
</a>
</g>
</g>
<!-- Node15 -->
<g id="Node000015" class="node">
<title>Node15</title>
<g id="a_Node000015"><a xlink:href="eom-job-queue_8h.html" target="_top" xlink:title=" ">
<polygon fill="white" stroke="#666666" points="375.38,-184 278.38,-184 278.38,-165 375.38,-165 375.38,-184"/>
<text text-anchor="middle" x="326.88" y="-172" font-family="Inter" font-size="10.00">eom&#45;job&#45;queue.h</text>
</a>
</g>
</g>
<!-- Node1&#45;&gt;Node15 -->
<g id="edge16_Node000001_Node000015" class="edge">
<title>Node1&#45;&gt;Node15</title>
<g id="a_edge16_Node000001_Node000015"><a xlink:title=" ">
<path fill="none" stroke="#63b8ff" d="M256.18,-274.66C268.99,-256.69 298.26,-215.64 314.84,-192.38"/>
<polygon fill="#63b8ff" stroke="#63b8ff" points="317.75,-194.33 320.71,-184.16 312.05,-190.27 317.75,-194.33"/>
</a>
</g>
</g>
<!-- Node16 -->
<g id="Node000016" class="node">
<title>Node16</title>
<g id="a_Node000016"><a xlink:href="eom-util_8h.html" target="_top" xlink:title=" ">
<polygon fill="white" stroke="#666666" points="446.88,-129 382.88,-129 382.88,-110 446.88,-110 446.88,-129"/>
<text text-anchor="middle" x="414.88" y="-117" font-family="Inter" font-size="10.00">eom&#45;util.h</text>
</a>
</g>
</g>
<!-- Node1&#45;&gt;Node16 -->
<g id="edge20_Node000001_Node000016" class="edge">
<title>Node1&#45;&gt;Node16</title>
<g id="a_edge20_Node000001_Node000016"><a xlink:title=" ">
<path fill="none" stroke="#63b8ff" d="M266.29,-274.8C293.72,-259.56 349.26,-225.68 383.88,-184 395.14,-170.45 403.52,-152.12 408.71,-138.63"/>
<polygon fill="#63b8ff" stroke="#63b8ff" points="412.07,-139.64 412.18,-129.04 405.49,-137.26 412.07,-139.64"/>
</a>
</g>
</g>
<!-- Node17 -->
<g id="Node000017" class="node">
<title>Node17</title>
<g id="a_Node000017"><a xlink:title=" ">
<polygon fill="#e0e0e0" stroke="#999999" points="485.38,-239 432.38,-239 432.38,-220 485.38,-220 485.38,-239"/>
<text text-anchor="middle" x="458.88" y="-227" font-family="Inter" font-size="10.00">string.h</text>
</a>
</g>
</g>
<!-- Node1&#45;&gt;Node17 -->
<g id="edge22_Node000001_Node000017" class="edge">
<title>Node1&#45;&gt;Node17</title>
<g id="a_edge22_Node000001_Node000017"><a xlink:title=" ">
<path fill="none" stroke="#63b8ff" d="M283.46,-274.98C321.49,-265.34 383.24,-249.68 422.42,-239.75"/>
<polygon fill="#63b8ff" stroke="#63b8ff" points="423.51,-243.08 432.35,-237.23 421.79,-236.29 423.51,-243.08"/>
</a>
</g>
</g>
<!-- Node3 -->
<g id="Node000003" class="node">
<title>Node3</title>
<g id="a_Node000003"><a xlink:title=" ">
<polygon fill="#e0e0e0" stroke="#999999" points="365.38,-19 306.38,-19 306.38,0 365.38,0 365.38,-19"/>
<text text-anchor="middle" x="335.88" y="-7" font-family="Inter" font-size="10.00">gtk/gtk.h</text>
</a>
</g>
</g>
<!-- Node2&#45;&gt;Node3 -->
<g id="edge2_Node000002_Node000003" class="edge">
<title>Node2&#45;&gt;Node3</title>
<g id="a_edge2_Node000002_Node000003"><a xlink:title=" ">
<path fill="none" stroke="#63b8ff" d="M258.66,-54.98C273.06,-46.69 295.19,-33.94 312.07,-24.22"/>
<polygon fill="#63b8ff" stroke="#63b8ff" points="313.91,-27.19 320.83,-19.17 310.42,-21.13 313.91,-27.19"/>
</a>
</g>
</g>
<!-- Node4 -->
<g id="Node000004" class="node">
<title>Node4</title>
<g id="a_Node000004"><a xlink:title=" ">
<polygon fill="#e0e0e0" stroke="#999999" points="109.88,-19 35.88,-19 35.88,0 109.88,0 109.88,-19"/>
<text text-anchor="middle" x="72.88" y="-7" font-family="Inter" font-size="10.00">glib&#45;object.h</text>
</a>
</g>
</g>
<!-- Node2&#45;&gt;Node4 -->
<g id="edge3_Node000002_Node000004" class="edge">
<title>Node2&#45;&gt;Node4</title>
<g id="a_edge3_Node000002_Node000004"><a xlink:title=" ">
<path fill="none" stroke="#63b8ff" d="M216.41,-54.98C187.7,-46.09 142.46,-32.07 110.46,-22.15"/>
<polygon fill="#63b8ff" stroke="#63b8ff" points="111.16,-18.7 100.57,-19.08 109.09,-25.39 111.16,-18.7"/>
</a>
</g>
</g>
<!-- Node5 -->
<g id="Node000005" class="node">
<title>Node5</title>
<g id="a_Node000005"><a xlink:title=" ">
<polygon fill="#e0e0e0" stroke="#999999" points="235.88,-19 177.88,-19 177.88,0 235.88,0 235.88,-19"/>
<text text-anchor="middle" x="206.88" y="-7" font-family="Inter" font-size="10.00">gio/gio.h</text>
</a>
</g>
</g>
<!-- Node2&#45;&gt;Node5 -->
<g id="edge4_Node000002_Node000005" class="edge">
<title>Node2&#45;&gt;Node5</title>
<g id="a_edge4_Node000002_Node000005"><a xlink:title=" ">
<path fill="none" stroke="#63b8ff" d="M237.77,-54.75C232.6,-47.34 225.03,-36.5 218.69,-27.41"/>
<polygon fill="#63b8ff" stroke="#63b8ff" points="221.47,-25.29 212.88,-19.09 215.73,-29.29 221.47,-25.29"/>
</a>
</g>
</g>
<!-- Node7 -->
<g id="Node000007" class="node">
<title>Node7</title>
<g id="a_Node000007"><a xlink:title=" ">
<polygon fill="#e0e0e0" stroke="#999999" points="142.88,-74 14.88,-74 14.88,-55 142.88,-55 142.88,-74"/>
<text text-anchor="middle" x="78.88" y="-62" font-family="Inter" font-size="10.00">gdk&#45;pixbuf/gdk&#45;pixbuf.h</text>
</a>
</g>
</g>
<!-- Node6&#45;&gt;Node7 -->
<g id="edge6_Node000006_Node000007" class="edge">
<title>Node6&#45;&gt;Node7</title>
<g id="a_edge6_Node000006_Node000007"><a xlink:title=" ">
<path fill="none" stroke="#63b8ff" d="M131.87,-219.74C123.06,-194.09 97.19,-118.78 85.16,-83.78"/>
<polygon fill="#63b8ff" stroke="#63b8ff" points="88.47,-82.63 81.91,-74.31 81.85,-84.9 88.47,-82.63"/>
</a>
</g>
</g>
<!-- Node6&#45;&gt;Node8 -->
<g id="edge7_Node000006_Node000008" class="edge">
<title>Node6&#45;&gt;Node8</title>
<g id="a_edge7_Node000006_Node000008"><a xlink:title=" ">
<path fill="none" stroke="#63b8ff" d="M122.67,-219.98C111.1,-211.92 93.51,-199.65 79.72,-190.03"/>
<polygon fill="#63b8ff" stroke="#63b8ff" points="81.52,-187.02 71.31,-184.17 77.51,-192.76 81.52,-187.02"/>
</a>
</g>
</g>
<!-- Node8&#45;&gt;Node4 -->
<g id="edge13_Node000008_Node000004" class="edge">
<title>Node8&#45;&gt;Node4</title>
<g id="a_edge13_Node000008_Node000004"><a xlink:title=" ">
<path fill="none" stroke="#63b8ff" d="M49.63,-164.97C29.35,-145.21 -15.53,-94.92 5.88,-55 13.39,-41 27.45,-30.66 40.76,-23.48"/>
<polygon fill="#63b8ff" stroke="#63b8ff" points="42.36,-26.6 49.77,-19.02 39.25,-20.33 42.36,-26.6"/>
</a>
</g>
</g>
<!-- Node8&#45;&gt;Node7 -->
<g id="edge14_Node000008_Node000007" class="edge">
<title>Node8&#45;&gt;Node7</title>
<g id="a_edge14_Node000008_Node000007"><a xlink:title=" ">
<path fill="none" stroke="#63b8ff" d="M60.52,-164.66C63.76,-147.17 71.05,-107.8 75.4,-84.27"/>
<polygon fill="#63b8ff" stroke="#63b8ff" points="78.9,-84.63 77.28,-74.16 72.01,-83.35 78.9,-84.63"/>
</a>
</g>
</g>
<!-- Node8&#45;&gt;Node9 -->
<g id="edge8_Node000008_Node000009" class="edge">
<title>Node8&#45;&gt;Node9</title>
<g id="a_edge8_Node000008_Node000009"><a xlink:title=" ">
<path fill="none" stroke="#63b8ff" d="M79.61,-164.98C100.64,-156.34 133.43,-142.87 157.42,-133.02"/>
<polygon fill="#63b8ff" stroke="#63b8ff" points="158.86,-136.21 166.78,-129.17 156.2,-129.73 158.86,-136.21"/>
</a>
</g>
</g>
<!-- Node9&#45;&gt;Node2 -->
<g id="edge9_Node000009_Node000002" class="edge">
<title>Node9&#45;&gt;Node2</title>
<g id="a_edge9_Node000009_Node000002"><a xlink:title=" ">
<path fill="none" stroke="#63b8ff" d="M196.88,-109.98C205.08,-102.23 217.39,-90.58 227.35,-81.14"/>
<polygon fill="#63b8ff" stroke="#63b8ff" points="229.86,-83.59 234.72,-74.17 225.05,-78.5 229.86,-83.59"/>
</a>
</g>
</g>
<!-- Node9&#45;&gt;Node3 -->
<g id="edge11_Node000009_Node000003" class="edge">
<title>Node9&#45;&gt;Node3</title>
<g id="a_edge11_Node000009_Node000003"><a xlink:title=" ">
<path fill="none" stroke="#63b8ff" d="M222.05,-110.56C245.16,-103.84 275.3,-92.32 296.88,-74 311.34,-61.72 322.03,-42.68 328.53,-28.65"/>
<polygon fill="#63b8ff" stroke="#63b8ff" points="331.9,-29.66 332.67,-19.09 325.48,-26.87 331.9,-29.66"/>
</a>
</g>
</g>
<!-- Node9&#45;&gt;Node5 -->
<g id="edge10_Node000009_Node000005" class="edge">
<title>Node9&#45;&gt;Node5</title>
<g id="a_edge10_Node000009_Node000005"><a xlink:title=" ">
<path fill="none" stroke="#63b8ff" d="M187.25,-109.77C186.56,-97.43 186.01,-74.25 189.88,-55 191.69,-45.98 195.14,-36.4 198.46,-28.44"/>
<polygon fill="#63b8ff" stroke="#63b8ff" points="201.74,-29.67 202.6,-19.11 195.35,-26.83 201.74,-29.67"/>
</a>
</g>
</g>
<!-- Node9&#45;&gt;Node7 -->
<g id="edge12_Node000009_Node000007" class="edge">
<title>Node9&#45;&gt;Node7</title>
<g id="a_edge12_Node000009_Node000007"><a xlink:title=" ">
<path fill="none" stroke="#63b8ff" d="M170.37,-109.98C152.91,-101.5 125.87,-88.35 105.71,-78.54"/>
<polygon fill="#63b8ff" stroke="#63b8ff" points="107.24,-75.4 96.71,-74.17 104.17,-81.69 107.24,-75.4"/>
</a>
</g>
</g>
<!-- Node15&#45;&gt;Node3 -->
<g id="edge18_Node000015_Node000003" class="edge">
<title>Node15&#45;&gt;Node3</title>
<g id="a_edge18_Node000015_Node000003"><a xlink:title=" ">
<path fill="none" stroke="#63b8ff" d="M327.36,-164.74C328.77,-139.31 332.87,-65.08 334.82,-29.69"/>
<polygon fill="#63b8ff" stroke="#63b8ff" points="338.34,-29.48 335.39,-19.31 331.35,-29.1 338.34,-29.48"/>
</a>
</g>
</g>
<!-- Node15&#45;&gt;Node9 -->
<g id="edge17_Node000015_Node000009" class="edge">
<title>Node15&#45;&gt;Node9</title>
<g id="a_edge17_Node000015_Node000009"><a xlink:title=" ">
<path fill="none" stroke="#63b8ff" d="M304.55,-164.98C281.68,-156.27 245.92,-142.63 220.02,-132.75"/>
<polygon fill="#63b8ff" stroke="#63b8ff" points="221.21,-129.46 210.62,-129.17 218.72,-136 221.21,-129.46"/>
</a>
</g>
</g>
<!-- Node16&#45;&gt;Node3 -->
<g id="edge21_Node000016_Node000003" class="edge">
<title>Node16&#45;&gt;Node3</title>
<g id="a_edge21_Node000016_Node000003"><a xlink:title=" ">
<path fill="none" stroke="#63b8ff" d="M408.66,-109.85C399.85,-97.61 383.21,-74.54 368.88,-55 362.12,-45.77 354.51,-35.51 348.31,-27.17"/>
<polygon fill="#63b8ff" stroke="#63b8ff" points="351.01,-24.94 342.24,-19.01 345.4,-29.12 351.01,-24.94"/>
</a>
</g>
</g>
</g>
</svg>
</svg>

<style type='text/css'>
<![CDATA[
[data-mouse-over-selected='false'] { opacity: 0.7; }
[data-mouse-over-selected='true']  { opacity: 1.0; }
]]>
</style>
<script type="application/ecmascript"><![CDATA[
document.addEventListener('DOMContentLoaded', (event) => {
  highlightEdges();
  highlightAdjacentNodes();
});
]]></script>
</svg>
