<?xml version="1.0" encoding="UTF-8" standalone="no"?>
<!DOCTYPE svg PUBLIC "-//W3C//DTD SVG 1.1//EN"
 "http://www.w3.org/Graphics/SVG/1.1/DTD/svg11.dtd">
<!-- Generated by graphviz version 2.43.0 (0)
 -->
<!-- Title: eom&#45;pixbuf&#45;util.h Pages: 1 -->
<svg width="212pt" height="82pt"
 viewBox="0.00 0.00 212.00 82.00" xmlns="http://www.w3.org/2000/svg" xmlns:xlink="http://www.w3.org/1999/xlink">
<g id="graph0" class="graph" transform="scale(1 1) rotate(0) translate(4 78)">
<title>eom&#45;pixbuf&#45;util.h</title>
<!-- Node1 -->
<g id="Node000001" class="node">
<title>Node1</title>
<g id="a_Node000001"><a xlink:title=" ">
<polygon fill="#999999" stroke="#666666" points="167,-74 71,-74 71,-55 167,-55 167,-74"/>
<text text-anchor="middle" x="119" y="-62" font-family="Inter" font-size="10.00">eom&#45;pixbuf&#45;util.h</text>
</a>
</g>
</g>
<!-- Node2 -->
<g id="Node000002" class="node">
<title>Node2</title>
<g id="a_Node000002"><a xlink:title=" ">
<polygon fill="#e0e0e0" stroke="#999999" points="128,-19 0,-19 0,0 128,0 128,-19"/>
<text text-anchor="middle" x="64" y="-7" font-family="Inter" font-size="10.00">gdk&#45;pixbuf/gdk&#45;pixbuf.h</text>
</a>
</g>
</g>
<!-- Node1&#45;&gt;Node2 -->
<g id="edge1_Node000001_Node000002" class="edge">
<title>Node1&#45;&gt;Node2</title>
<g id="a_edge1_Node000001_Node000002"><a xlink:title=" ">
<path fill="none" stroke="#63b8ff" d="M109.92,-54.75C101.91,-47.03 90.04,-35.6 80.38,-26.28"/>
<polygon fill="#63b8ff" stroke="#63b8ff" points="82.54,-23.51 72.91,-19.09 77.69,-28.55 82.54,-23.51"/>
</a>
</g>
</g>
<!-- Node3 -->
<g id="Node000003" class="node">
<title>Node3</title>
<g id="a_Node000003"><a xlink:title=" ">
<polygon fill="#e0e0e0" stroke="#999999" points="204,-19 146,-19 146,0 204,0 204,-19"/>
<text text-anchor="middle" x="175" y="-7" font-family="Inter" font-size="10.00">gio/gio.h</text>
</a>
</g>
</g>
<!-- Node1&#45;&gt;Node3 -->
<g id="edge2_Node000001_Node000003" class="edge">
<title>Node1&#45;&gt;Node3</title>
<g id="a_edge2_Node000001_Node000003"><a xlink:title=" ">
<path fill="none" stroke="#63b8ff" d="M128,-54.98C136.19,-47.23 148.51,-35.58 158.47,-26.14"/>
<polygon fill="#63b8ff" stroke="#63b8ff" points="160.98,-28.59 165.84,-19.17 156.17,-23.5 160.98,-28.59"/>
</a>
</g>
</g>
</g>
</svg>
