<?xml version="1.0" encoding="UTF-8" standalone="no"?>
<!DOCTYPE svg PUBLIC "-//W3C//DTD SVG 1.1//EN"
 "http://www.w3.org/Graphics/SVG/1.1/DTD/svg11.dtd">
<!-- Generated by graphviz version 2.43.0 (0)
 -->
<!-- Title: eom&#45;error&#45;message&#45;area.c Pages: 1 -->
<!--zoomable 247 -->

<svg id="main" version="1.1" xmlns="http://www.w3.org/2000/svg" xmlns:xlink="http://www.w3.org/1999/xlink" xml:space="preserve" onload="init(evt)">

<style type="text/css"><![CDATA[
.node, .edge {opacity: 0.7;}
.node.selected, .edge.selected {opacity: 1;}
.edge:hover path { stroke: red; }
.edge:hover polygon { stroke: red; fill: red; }
]]></style>

<defs>
  <circle id="rim" cx="0" cy="0" r="7"/>
  <circle id="rim2" cx="0" cy="0" r="3.5"/>
  <g id="zoomPlus">
    <use xlink:href="#rim" fill="#404040"><set attributeName="fill" to="#808080" begin="zoomplus.mouseover" end="zoomplus.mouseout"/></use>
    <path d="M-4,0h8M0,-4v8" fill="none" stroke="white" stroke-width="1.5" pointer-events="none"/>
  </g>
  <g id="zoomMin">
    <use xlink:href="#rim" fill="#404040"><set attributeName="fill" to="#808080" begin="zoomminus.mouseover" end="zoomminus.mouseout"/></use>
    <path d="M-4,0h8" fill="none" stroke="white" stroke-width="1.5" pointer-events="none"/>
  </g>
  <g id="arrowUp" transform="translate(30 24)">
    <use xlink:href="#rim"/>
    <path pointer-events="none" fill="none" stroke="white" stroke-width="1.5" d="M0,-3.0v7 M-2.5,-0.5L0,-3.0L2.5,-0.5"/>
  </g>
  <g id="arrowRight" transform="rotate(90) translate(36 -43)">
    <use xlink:href="#rim"/>
    <path pointer-events="none" fill="none" stroke="white" stroke-width="1.5" d="M0,-3.0v7 M-2.5,-0.5L0,-3.0L2.5,-0.5"/>
  </g>
  <g id="arrowDown" transform="rotate(180) translate(-30 -48)">
    <use xlink:href="#rim"/>
    <path pointer-events="none" fill="none" stroke="white" stroke-width="1.5" d="M0,-3.0v7 M-2.5,-0.5L0,-3.0L2.5,-0.5"/>
  </g>
  <g id="arrowLeft" transform="rotate(270) translate(-36 17)">
    <use xlink:href="#rim"/>
    <path pointer-events="none" fill="none" stroke="white" stroke-width="1.5" d="M0,-3.0v7 M-2.5,-0.5L0,-3.0L2.5,-0.5"/>
  </g>
  <g id="resetDef">
    <use xlink:href="#rim2" fill="#404040"><set attributeName="fill" to="#808080" begin="reset.mouseover" end="reset.mouseout"/></use>
  </g>
</defs>
<script type="application/ecmascript">
var viewWidth = 826;
var viewHeight = 247;
var sectionId = 'dynsection-0';
</script>
<script type="application/ecmascript" xlink:href="svg.min.js"/>
<svg id="graph" class="graph">
<g id="viewport">
<title>eom&#45;error&#45;message&#45;area.c</title>
<!-- Node1 -->
<g id="Node000001" class="node">
<title>Node1</title>
<g id="a_Node000001"><a xlink:title=" ">
<polygon fill="#999999" stroke="#666666" points="212.47,-239 72.47,-239 72.47,-220 212.47,-220 212.47,-239"/>
<text text-anchor="middle" x="142.47" y="-227" font-family="Inter" font-size="10.00">eom&#45;error&#45;message&#45;area.c</text>
</a>
</g>
</g>
<!-- Node2 -->
<g id="Node000002" class="node">
<title>Node2</title>
<g id="a_Node000002"><a xlink:href="eom-error-message-area_8h.html" target="_top" xlink:title=" ">
<polygon fill="white" stroke="#666666" points="454.47,-129 312.47,-129 312.47,-110 454.47,-110 454.47,-129"/>
<text text-anchor="middle" x="383.47" y="-117" font-family="Inter" font-size="10.00">eom&#45;error&#45;message&#45;area.h</text>
</a>
</g>
</g>
<!-- Node1&#45;&gt;Node2 -->
<g id="edge1_Node000001_Node000002" class="edge">
<title>Node1&#45;&gt;Node2</title>
<g id="a_edge1_Node000001_Node000002"><a xlink:title=" ">
<path fill="none" stroke="#63b8ff" d="M161.78,-219.84C204.19,-200.84 305.61,-155.39 355.2,-133.17"/>
<polygon fill="#63b8ff" stroke="#63b8ff" points="356.7,-136.33 364.4,-129.05 353.84,-129.94 356.7,-136.33"/>
</a>
</g>
</g>
<!-- Node3 -->
<g id="Node000003" class="node">
<title>Node3</title>
<g id="a_Node000003"><a xlink:title=" ">
<polygon fill="#e0e0e0" stroke="#999999" points="398.47,-74 356.47,-74 356.47,-55 398.47,-55 398.47,-74"/>
<text text-anchor="middle" x="377.47" y="-62" font-family="Inter" font-size="10.00">glib.h</text>
</a>
</g>
</g>
<!-- Node1&#45;&gt;Node3 -->
<g id="edge31_Node000001_Node000003" class="edge">
<title>Node1&#45;&gt;Node3</title>
<g id="a_edge31_Node000001_Node000003"><a xlink:title=" ">
<path fill="none" stroke="#63b8ff" d="M144.03,-219.78C148.46,-197.77 163.19,-139.56 199.47,-110 221.81,-91.79 301.53,-77.09 346.33,-70.03"/>
<polygon fill="#63b8ff" stroke="#63b8ff" points="347.04,-73.47 356.39,-68.49 345.97,-66.55 347.04,-73.47"/>
</a>
</g>
</g>
<!-- Node4 -->
<g id="Node000004" class="node">
<title>Node4</title>
<g id="a_Node000004"><a xlink:title=" ">
<polygon fill="#e0e0e0" stroke="#999999" points="274.97,-74 215.97,-74 215.97,-55 274.97,-55 274.97,-74"/>
<text text-anchor="middle" x="245.47" y="-62" font-family="Inter" font-size="10.00">gtk/gtk.h</text>
</a>
</g>
</g>
<!-- Node1&#45;&gt;Node4 -->
<g id="edge34_Node000001_Node000004" class="edge">
<title>Node1&#45;&gt;Node4</title>
<g id="a_edge34_Node000001_Node000004"><a xlink:title=" ">
<path fill="none" stroke="#63b8ff" d="M137.85,-219.82C127.39,-198.85 104.6,-144.62 128.47,-110 145.68,-85.04 178.87,-74.07 205.51,-69.26"/>
<polygon fill="#63b8ff" stroke="#63b8ff" points="206.39,-72.66 215.73,-67.64 205.3,-65.74 206.39,-72.66"/>
</a>
</g>
</g>
<!-- Node6 -->
<g id="Node000006" class="node">
<title>Node6</title>
<g id="a_Node000006"><a xlink:href="eom-image_8h.html" target="_top" xlink:title=" ">
<polygon fill="white" stroke="#666666" points="521.47,-184 443.47,-184 443.47,-165 521.47,-165 521.47,-184"/>
<text text-anchor="middle" x="482.47" y="-172" font-family="Inter" font-size="10.00">eom&#45;image.h</text>
</a>
</g>
</g>
<!-- Node1&#45;&gt;Node6 -->
<g id="edge5_Node000001_Node000006" class="edge">
<title>Node1&#45;&gt;Node6</title>
<g id="a_edge5_Node000001_Node000006"><a xlink:title=" ">
<path fill="none" stroke="#63b8ff" d="M197.09,-219.98C262.35,-209.81 370.56,-192.94 433.3,-183.16"/>
<polygon fill="#63b8ff" stroke="#63b8ff" points="434,-186.6 443.34,-181.6 432.92,-179.68 434,-186.6"/>
</a>
</g>
</g>
<!-- Node9 -->
<g id="Node000009" class="node">
<title>Node9</title>
<g id="a_Node000009"><a xlink:title=" ">
<polygon fill="#e0e0e0" stroke="#999999" points="340.47,-19 266.47,-19 266.47,0 340.47,0 340.47,-19"/>
<text text-anchor="middle" x="303.47" y="-7" font-family="Inter" font-size="10.00">glib&#45;object.h</text>
</a>
</g>
</g>
<!-- Node1&#45;&gt;Node9 -->
<g id="edge33_Node000001_Node000009" class="edge">
<title>Node1&#45;&gt;Node9</title>
<g id="a_edge33_Node000001_Node000009"><a xlink:title=" ">
<path fill="none" stroke="#63b8ff" d="M72.18,-221.8C30.26,-214.3 -12.05,-198.45 3.47,-165 48.75,-67.36 183.54,-30.29 256.05,-17.14"/>
<polygon fill="#63b8ff" stroke="#63b8ff" points="257.02,-20.53 266.28,-15.37 255.83,-13.63 257.02,-20.53"/>
</a>
</g>
</g>
<!-- Node15 -->
<g id="Node000015" class="node">
<title>Node15</title>
<g id="a_Node000015"><a xlink:href="eom-util_8h.html" target="_top" xlink:title=" ">
<polygon fill="white" stroke="#666666" points="76.47,-184 12.47,-184 12.47,-165 76.47,-165 76.47,-184"/>
<text text-anchor="middle" x="44.47" y="-172" font-family="Inter" font-size="10.00">eom&#45;util.h</text>
</a>
</g>
</g>
<!-- Node1&#45;&gt;Node15 -->
<g id="edge29_Node000001_Node000015" class="edge">
<title>Node1&#45;&gt;Node15</title>
<g id="a_edge29_Node000001_Node000015"><a xlink:title=" ">
<path fill="none" stroke="#63b8ff" d="M126.72,-219.98C111.24,-211.61 87.37,-198.7 69.33,-188.95"/>
<polygon fill="#63b8ff" stroke="#63b8ff" points="70.96,-185.85 60.5,-184.17 67.63,-192.01 70.96,-185.85"/>
</a>
</g>
</g>
<!-- Node16 -->
<g id="Node000016" class="node">
<title>Node16</title>
<g id="a_Node000016"><a xlink:title=" ">
<polygon fill="#e0e0e0" stroke="#999999" points="611.47,-184 539.47,-184 539.47,-165 611.47,-165 611.47,-184"/>
<text text-anchor="middle" x="575.47" y="-172" font-family="Inter" font-size="10.00">glib/gi18n.h</text>
</a>
</g>
</g>
<!-- Node1&#45;&gt;Node16 -->
<g id="edge32_Node000001_Node000016" class="edge">
<title>Node1&#45;&gt;Node16</title>
<g id="a_edge32_Node000001_Node000016"><a xlink:title=" ">
<path fill="none" stroke="#63b8ff" d="M212.76,-221.98C288.44,-214.62 412.58,-201.53 529,-184.13"/>
<polygon fill="#63b8ff" stroke="#63b8ff" points="529.79,-187.55 539.16,-182.59 528.75,-180.62 529.79,-187.55"/>
</a>
</g>
</g>
<!-- Node2&#45;&gt;Node3 -->
<g id="edge2_Node000002_Node000003" class="edge">
<title>Node2&#45;&gt;Node3</title>
<g id="a_edge2_Node000002_Node000003"><a xlink:title=" ">
<path fill="none" stroke="#63b8ff" d="M382.48,-109.75C381.69,-102.8 380.56,-92.85 379.58,-84.13"/>
<polygon fill="#63b8ff" stroke="#63b8ff" points="383.04,-83.63 378.44,-74.09 376.09,-84.42 383.04,-83.63"/>
</a>
</g>
</g>
<!-- Node2&#45;&gt;Node4 -->
<g id="edge3_Node000002_Node000004" class="edge">
<title>Node2&#45;&gt;Node4</title>
<g id="a_edge3_Node000002_Node000004"><a xlink:title=" ">
<path fill="none" stroke="#63b8ff" d="M361.3,-109.98C338.7,-101.3 303.41,-87.75 277.71,-77.88"/>
<polygon fill="#63b8ff" stroke="#63b8ff" points="278.63,-74.49 268.04,-74.17 276.12,-81.02 278.63,-74.49"/>
</a>
</g>
</g>
<!-- Node5 -->
<g id="Node000005" class="node">
<title>Node5</title>
<g id="a_Node000005"><a xlink:title=" ">
<polygon fill="#e0e0e0" stroke="#999999" points="512.47,-74 454.47,-74 454.47,-55 512.47,-55 512.47,-74"/>
<text text-anchor="middle" x="483.47" y="-62" font-family="Inter" font-size="10.00">gio/gio.h</text>
</a>
</g>
</g>
<!-- Node2&#45;&gt;Node5 -->
<g id="edge4_Node000002_Node000005" class="edge">
<title>Node2&#45;&gt;Node5</title>
<g id="a_edge4_Node000002_Node000005"><a xlink:title=" ">
<path fill="none" stroke="#63b8ff" d="M399.53,-109.98C415.33,-101.61 439.68,-88.7 458.1,-78.95"/>
<polygon fill="#63b8ff" stroke="#63b8ff" points="459.91,-81.95 467.11,-74.17 456.63,-75.76 459.91,-81.95"/>
</a>
</g>
</g>
<!-- Node6&#45;&gt;Node3 -->
<g id="edge26_Node000006_Node000003" class="edge">
<title>Node6&#45;&gt;Node3</title>
<g id="a_edge26_Node000006_Node000003"><a xlink:title=" ">
<path fill="none" stroke="#63b8ff" d="M481.97,-164.69C480.8,-151.42 476.83,-126.13 463.47,-110 449.19,-92.77 426.52,-81.43 408.03,-74.51"/>
<polygon fill="#63b8ff" stroke="#63b8ff" points="409.14,-71.19 398.55,-71.2 406.84,-77.8 409.14,-71.19"/>
</a>
</g>
</g>
<!-- Node7 -->
<g id="Node000007" class="node">
<title>Node7</title>
<g id="a_Node000007"><a xlink:href="eom-jobs_8h.html" target="_top" xlink:title=" ">
<polygon fill="#fff0f0" stroke="red" points="578.47,-129 510.47,-129 510.47,-110 578.47,-110 578.47,-129"/>
<text text-anchor="middle" x="544.47" y="-117" font-family="Inter" font-size="10.00">eom&#45;jobs.h</text>
</a>
</g>
</g>
<!-- Node6&#45;&gt;Node7 -->
<g id="edge6_Node000006_Node000007" class="edge">
<title>Node6&#45;&gt;Node7</title>
<g id="a_edge6_Node000006_Node000007"><a xlink:title=" ">
<path fill="none" stroke="#63b8ff" d="M492.43,-164.98C501.59,-157.15 515.4,-145.34 526.5,-135.86"/>
<polygon fill="#63b8ff" stroke="#63b8ff" points="529,-138.33 534.33,-129.17 524.45,-133.01 529,-138.33"/>
</a>
</g>
</g>
<!-- Node10 -->
<g id="Node000010" class="node">
<title>Node10</title>
<g id="a_Node000010"><a xlink:href="eom-transform_8h.html" target="_top" xlink:title=" ">
<polygon fill="white" stroke="#666666" points="764.47,-74 668.47,-74 668.47,-55 764.47,-55 764.47,-74"/>
<text text-anchor="middle" x="716.47" y="-62" font-family="Inter" font-size="10.00">eom&#45;transform.h</text>
</a>
</g>
</g>
<!-- Node6&#45;&gt;Node10 -->
<g id="edge20_Node000006_Node000010" class="edge">
<title>Node6&#45;&gt;Node10</title>
<g id="a_edge20_Node000006_Node000010"><a xlink:title=" ">
<path fill="none" stroke="#63b8ff" d="M521.49,-166.51C524.52,-165.99 527.54,-165.48 530.47,-165 583.03,-156.35 732.74,-169.4 767.47,-129 781.77,-112.36 759.98,-92.55 740.61,-79.53"/>
<polygon fill="#63b8ff" stroke="#63b8ff" points="742.33,-76.48 732.01,-74.07 738.57,-82.39 742.33,-76.48"/>
</a>
</g>
</g>
<!-- Node6&#45;&gt;Node9 -->
<g id="edge27_Node000006_Node000009" class="edge">
<title>Node6&#45;&gt;Node9</title>
<g id="a_edge27_Node000006_Node000009"><a xlink:title=" ">
<path fill="none" stroke="#63b8ff" d="M443.24,-173.34C373.05,-172.12 230.38,-165.15 199.47,-129 188.87,-116.6 185.94,-82.95 206.47,-55 218.46,-38.67 237.91,-28.17 256.25,-21.51"/>
<polygon fill="#63b8ff" stroke="#63b8ff" points="257.6,-24.75 265.98,-18.27 255.39,-18.1 257.6,-24.75"/>
</a>
</g>
</g>
<!-- Node11 -->
<g id="Node000011" class="node">
<title>Node11</title>
<g id="a_Node000011"><a xlink:title=" ">
<polygon fill="#e0e0e0" stroke="#999999" points="818.47,-19 690.47,-19 690.47,0 818.47,0 818.47,-19"/>
<text text-anchor="middle" x="754.47" y="-7" font-family="Inter" font-size="10.00">gdk&#45;pixbuf/gdk&#45;pixbuf.h</text>
</a>
</g>
</g>
<!-- Node6&#45;&gt;Node11 -->
<g id="edge28_Node000006_Node000011" class="edge">
<title>Node6&#45;&gt;Node11</title>
<g id="a_edge28_Node000006_Node000011"><a xlink:title=" ">
<path fill="none" stroke="#63b8ff" d="M521.48,-166.48C524.52,-165.97 527.54,-165.47 530.47,-165 586.55,-156.05 744.34,-170.16 783.47,-129 806.18,-105.11 799.03,-86.23 788.47,-55 784.91,-44.47 777.75,-34.48 770.91,-26.63"/>
<polygon fill="#63b8ff" stroke="#63b8ff" points="773.46,-24.23 764.07,-19.31 768.34,-29.01 773.46,-24.23"/>
</a>
</g>
</g>
<!-- Node12 -->
<g id="Node000012" class="node">
<title>Node12</title>
<g id="a_Node000012"><a xlink:href="eom-enums_8h.html" target="_top" xlink:title=" ">
<polygon fill="white" stroke="#666666" points="611.97,-74 530.97,-74 530.97,-55 611.97,-55 611.97,-74"/>
<text text-anchor="middle" x="571.47" y="-62" font-family="Inter" font-size="10.00">eom&#45;enums.h</text>
</a>
</g>
</g>
<!-- Node6&#45;&gt;Node12 -->
<g id="edge25_Node000006_Node000012" class="edge">
<title>Node6&#45;&gt;Node12</title>
<g id="a_edge25_Node000006_Node000012"><a xlink:title=" ">
<path fill="none" stroke="#63b8ff" d="M512,-164.99C539.89,-156.29 578.72,-142.21 587.47,-129 596.66,-115.12 590.1,-96.34 582.8,-82.81"/>
<polygon fill="#63b8ff" stroke="#63b8ff" points="585.69,-80.83 577.57,-74.03 579.68,-84.41 585.69,-80.83"/>
</a>
</g>
</g>
<!-- Node13 -->
<g id="Node000013" class="node">
<title>Node13</title>
<g id="a_Node000013"><a xlink:href="eom-window_8h.html" target="_top" xlink:title=" ">
<polygon fill="#fff0f0" stroke="red" points="293.97,-129 208.97,-129 208.97,-110 293.97,-110 293.97,-129"/>
<text text-anchor="middle" x="251.47" y="-117" font-family="Inter" font-size="10.00">eom&#45;window.h</text>
</a>
</g>
</g>
<!-- Node6&#45;&gt;Node13 -->
<g id="edge15_Node000006_Node000013" class="edge">
<title>Node6&#45;&gt;Node13</title>
<g id="a_edge15_Node000006_Node000013"><a xlink:title=" ">
<path fill="none" stroke="#63b8ff" d="M443.43,-165.68C401.76,-156.62 336.2,-141.62 293.45,-131.41"/>
<polygon fill="#63b8ff" stroke="#63b8ff" points="294.18,-127.99 283.63,-129.06 292.54,-134.79 294.18,-127.99"/>
</a>
</g>
</g>
<!-- Node14 -->
<g id="Node000014" class="node">
<title>Node14</title>
<g id="a_Node000014"><a xlink:href="eom-image-save-info_8h.html" target="_top" xlink:title=" ">
<polygon fill="white" stroke="#666666" points="757.97,-129 634.97,-129 634.97,-110 757.97,-110 757.97,-129"/>
<text text-anchor="middle" x="696.47" y="-117" font-family="Inter" font-size="10.00">eom&#45;image&#45;save&#45;info.h</text>
</a>
</g>
</g>
<!-- Node6&#45;&gt;Node14 -->
<g id="edge21_Node000006_Node000014" class="edge">
<title>Node6&#45;&gt;Node14</title>
<g id="a_edge21_Node000006_Node000014"><a xlink:title=" ">
<path fill="none" stroke="#63b8ff" d="M516.85,-164.98C553.56,-155.89 611.85,-141.46 652.02,-131.51"/>
<polygon fill="#63b8ff" stroke="#63b8ff" points="652.95,-134.88 661.82,-129.08 651.27,-128.09 652.95,-134.88"/>
</a>
</g>
</g>
<!-- Node7&#45;&gt;Node3 -->
<g id="edge11_Node000007_Node000003" class="edge">
<title>Node7&#45;&gt;Node3</title>
<g id="a_edge11_Node000007_Node000003"><a xlink:title=" ">
<path fill="none" stroke="#63b8ff" d="M517.64,-109.98C487.77,-100.51 439.58,-85.21 408.22,-75.26"/>
<polygon fill="#63b8ff" stroke="#63b8ff" points="409.26,-71.92 398.67,-72.23 407.14,-78.59 409.26,-71.92"/>
</a>
</g>
</g>
<!-- Node7&#45;&gt;Node4 -->
<g id="edge13_Node000007_Node000004" class="edge">
<title>Node7&#45;&gt;Node4</title>
<g id="a_edge13_Node000007_Node000004"><a xlink:title=" ">
<path fill="none" stroke="#63b8ff" d="M510.46,-112.47C454.72,-102.59 344.23,-83.01 285.06,-72.52"/>
<polygon fill="#63b8ff" stroke="#63b8ff" points="285.44,-69.03 274.98,-70.73 284.22,-75.92 285.44,-69.03"/>
</a>
</g>
</g>
<!-- Node7&#45;&gt;Node5 -->
<g id="edge12_Node000007_Node000005" class="edge">
<title>Node7&#45;&gt;Node5</title>
<g id="a_edge12_Node000007_Node000005"><a xlink:title=" ">
<path fill="none" stroke="#63b8ff" d="M534.67,-109.98C525.65,-102.15 512.06,-90.34 501.15,-80.86"/>
<polygon fill="#63b8ff" stroke="#63b8ff" points="503.29,-78.09 493.45,-74.17 498.7,-83.37 503.29,-78.09"/>
</a>
</g>
</g>
<!-- Node7&#45;&gt;Node10 -->
<g id="edge7_Node000007_Node000010" class="edge">
<title>Node7&#45;&gt;Node10</title>
<g id="a_edge7_Node000007_Node000010"><a xlink:title=" ">
<path fill="none" stroke="#63b8ff" d="M572.1,-109.98C600.98,-101.09 646.48,-87.07 678.67,-77.15"/>
<polygon fill="#63b8ff" stroke="#63b8ff" points="680.09,-80.37 688.62,-74.08 678.03,-73.68 680.09,-80.37"/>
</a>
</g>
</g>
<!-- Node7&#45;&gt;Node11 -->
<g id="edge14_Node000007_Node000011" class="edge">
<title>Node7&#45;&gt;Node11</title>
<g id="a_edge14_Node000007_Node000011"><a xlink:title=" ">
<path fill="none" stroke="#63b8ff" d="M510.44,-110.61C473.55,-100.52 422.81,-81.16 445.47,-55 475.2,-20.67 598.42,-12.22 679.99,-10.47"/>
<polygon fill="#63b8ff" stroke="#63b8ff" points="680.28,-13.97 690.22,-10.29 680.15,-6.97 680.28,-13.97"/>
</a>
</g>
</g>
<!-- Node7&#45;&gt;Node12 -->
<g id="edge10_Node000007_Node000012" class="edge">
<title>Node7&#45;&gt;Node12</title>
<g id="a_edge10_Node000007_Node000012"><a xlink:title=" ">
<path fill="none" stroke="#63b8ff" d="M548.93,-109.75C552.58,-102.57 557.88,-92.18 562.42,-83.27"/>
<polygon fill="#63b8ff" stroke="#63b8ff" points="565.67,-84.59 567.09,-74.09 559.43,-81.41 565.67,-84.59"/>
</a>
</g>
</g>
<!-- Node10&#45;&gt;Node9 -->
<g id="edge8_Node000010_Node000009" class="edge">
<title>Node10&#45;&gt;Node9</title>
<g id="a_edge8_Node000010_Node000009"><a xlink:title=" ">
<path fill="none" stroke="#63b8ff" d="M668.41,-56.86C663.7,-56.23 658.99,-55.6 654.47,-55 545.94,-40.68 418.41,-24.73 350.93,-16.36"/>
<polygon fill="#63b8ff" stroke="#63b8ff" points="350.98,-12.84 340.63,-15.09 350.12,-19.79 350.98,-12.84"/>
</a>
</g>
</g>
<!-- Node10&#45;&gt;Node11 -->
<g id="edge9_Node000010_Node000011" class="edge">
<title>Node10&#45;&gt;Node11</title>
<g id="a_edge9_Node000010_Node000011"><a xlink:title=" ">
<path fill="none" stroke="#63b8ff" d="M722.74,-54.75C728.05,-47.34 735.82,-36.5 742.34,-27.41"/>
<polygon fill="#63b8ff" stroke="#63b8ff" points="745.33,-29.26 748.31,-19.09 739.64,-25.18 745.33,-29.26"/>
</a>
</g>
</g>
<!-- Node13&#45;&gt;Node3 -->
<g id="edge17_Node000013_Node000003" class="edge">
<title>Node13&#45;&gt;Node3</title>
<g id="a_edge17_Node000013_Node000003"><a xlink:title=" ">
<path fill="none" stroke="#63b8ff" d="M271.71,-109.98C292.16,-101.38 324,-87.99 347.4,-78.15"/>
<polygon fill="#63b8ff" stroke="#63b8ff" points="348.99,-81.27 356.86,-74.17 346.28,-74.82 348.99,-81.27"/>
</a>
</g>
</g>
<!-- Node13&#45;&gt;Node4 -->
<g id="edge19_Node000013_Node000004" class="edge">
<title>Node13&#45;&gt;Node4</title>
<g id="a_edge19_Node000013_Node000004"><a xlink:title=" ">
<path fill="none" stroke="#63b8ff" d="M250.48,-109.75C249.69,-102.8 248.56,-92.85 247.58,-84.13"/>
<polygon fill="#63b8ff" stroke="#63b8ff" points="251.04,-83.63 246.44,-74.09 244.09,-84.42 251.04,-83.63"/>
</a>
</g>
</g>
<!-- Node13&#45;&gt;Node6 -->
<g id="edge16_Node000013_Node000006" class="edge">
<title>Node13&#45;&gt;Node6</title>
<g id="a_edge16_Node000013_Node000006"><a xlink:title=" ">
<path fill="none" stroke="#63b8ff" d="M294,-129.08C335.82,-138.22 399.09,-152.7 440.65,-162.63"/>
<polygon fill="#63b8ff" stroke="#63b8ff" points="439.93,-166.05 450.47,-164.98 441.56,-159.25 439.93,-166.05"/>
</a>
</g>
</g>
<!-- Node13&#45;&gt;Node9 -->
<g id="edge18_Node000013_Node000009" class="edge">
<title>Node13&#45;&gt;Node9</title>
<g id="a_edge18_Node000013_Node000009"><a xlink:title=" ">
<path fill="none" stroke="#63b8ff" d="M259.28,-109.9C266.69,-101.35 277.66,-87.59 284.47,-74 291.64,-59.68 296.63,-42.15 299.69,-29.14"/>
<polygon fill="#63b8ff" stroke="#63b8ff" points="303.18,-29.59 301.89,-19.07 296.34,-28.09 303.18,-29.59"/>
</a>
</g>
</g>
<!-- Node14&#45;&gt;Node5 -->
<g id="edge23_Node000014_Node000005" class="edge">
<title>Node14&#45;&gt;Node5</title>
<g id="a_edge23_Node000014_Node000005"><a xlink:title=" ">
<path fill="none" stroke="#63b8ff" d="M662.25,-109.98C624.06,-100.48 562.39,-85.14 522.4,-75.19"/>
<polygon fill="#63b8ff" stroke="#63b8ff" points="523.02,-71.74 512.47,-72.72 521.33,-78.53 523.02,-71.74"/>
</a>
</g>
</g>
<!-- Node14&#45;&gt;Node9 -->
<g id="edge22_Node000014_Node000009" class="edge">
<title>Node14&#45;&gt;Node9</title>
<g id="a_edge22_Node000014_Node000009"><a xlink:title=" ">
<path fill="none" stroke="#63b8ff" d="M689.21,-109.76C676.9,-95.61 650.43,-67.96 621.47,-55 574.09,-33.8 427.34,-19.89 350.88,-13.89"/>
<polygon fill="#63b8ff" stroke="#63b8ff" points="350.82,-10.37 340.58,-13.09 350.28,-17.35 350.82,-10.37"/>
</a>
</g>
</g>
<!-- Node14&#45;&gt;Node11 -->
<g id="edge24_Node000014_Node000011" class="edge">
<title>Node14&#45;&gt;Node11</title>
<g id="a_edge24_Node000014_Node000011"><a xlink:title=" ">
<path fill="none" stroke="#63b8ff" d="M725.6,-109.87C742.82,-103.1 763.2,-91.79 773.47,-74 781.8,-59.56 774.62,-41.14 766.82,-27.85"/>
<polygon fill="#63b8ff" stroke="#63b8ff" points="769.6,-25.72 761.23,-19.22 763.73,-29.52 769.6,-25.72"/>
</a>
</g>
</g>
<!-- Node15&#45;&gt;Node4 -->
<g id="edge30_Node000015_Node000004" class="edge">
<title>Node15&#45;&gt;Node4</title>
<g id="a_edge30_Node000015_Node000004"><a xlink:title=" ">
<path fill="none" stroke="#63b8ff" d="M48.47,-164.67C55.17,-150.9 69.96,-124.38 90.47,-110 124.9,-85.84 172.3,-74.71 205.59,-69.64"/>
<polygon fill="#63b8ff" stroke="#63b8ff" points="206.46,-73.05 215.87,-68.2 205.48,-66.12 206.46,-73.05"/>
</a>
</g>
</g>
</g>
</svg>

<g id="navigator" transform="translate(0 0)" fill="#404254">
  <rect fill="#f2f5e9" fill-opacity="0.5" stroke="#606060" stroke-width=".5" x="0" y="0" width="60" height="60"/>
  <use id="zoomplus" xlink:href="#zoomPlus" x="17" y="9" onmousedown="handleZoom(evt,'in')"/>
  <use id="zoomminus" xlink:href="#zoomMin" x="42" y="9" onmousedown="handleZoom(evt,'out')"/>
  <use id="reset" xlink:href="#resetDef" x="30" y="36" onmousedown="handleReset()"/>
   <use id="arrowup" xlink:href="#arrowUp" x="0" y="0" onmousedown="handlePan(0,-1)"/>
  <use id="arrowright" xlink:href="#arrowRight" x="0" y="0" onmousedown="handlePan(1,0)"/>
  <use id="arrowdown" xlink:href="#arrowDown" x="0" y="0" onmousedown="handlePan(0,1)"/>
  <use id="arrowleft" xlink:href="#arrowLeft" x="0" y="0" onmousedown="handlePan(-1,0)"/>
</g>
<svg viewBox="0 0 15 15" width="100%" height="30px" preserveAspectRatio="xMaxYMin meet">
 <g id="arrow_out" transform="scale(0.3 0.3)">
  <a xlink:href="eom-error-message-area_8c__incl_org.svg" target="_base">
   <rect id="button" ry="5" rx="5" y="6" x="6" height="38" width="38"
        fill="#f2f5e9" fill-opacity="0.5" stroke="#606060" stroke-width="1.0"/>
   <path id="arrow"
     d="M 11.500037,31.436501 C 11.940474,20.09759 22.043105,11.32322 32.158766,21.979434 L 37.068811,17.246167 C 37.068811,17.246167 37.088388,32 37.088388,32 L 22.160133,31.978069 C 22.160133,31.978069 26.997745,27.140456 26.997745,27.140456 C 18.528582,18.264221 13.291696,25.230495 11.500037,31.436501 z"
     style="fill:#404040;"/>
  </a>
 </g>
</svg>

<style type='text/css'>
<![CDATA[
[data-mouse-over-selected='false'] { opacity: 0.7; }
[data-mouse-over-selected='true']  { opacity: 1.0; }
]]>
</style>
<script type="application/ecmascript"><![CDATA[
document.addEventListener('DOMContentLoaded', (event) => {
  highlightEdges();
  highlightAdjacentNodes();
});
]]></script>
</svg>
