<?xml version="1.0" encoding="UTF-8" standalone="no"?>
<!DOCTYPE svg PUBLIC "-//W3C//DTD SVG 1.1//EN"
 "http://www.w3.org/Graphics/SVG/1.1/DTD/svg11.dtd">
<!-- Generated by graphviz version 2.43.0 (0)
 -->
<!-- Title: eom&#45;debug.h Pages: 1 -->
<!--zoomable 93 -->

<svg id="main" version="1.1" xmlns="http://www.w3.org/2000/svg" xmlns:xlink="http://www.w3.org/1999/xlink" xml:space="preserve" onload="init(evt)">

<style type="text/css"><![CDATA[
.node, .edge {opacity: 0.7;}
.node.selected, .edge.selected {opacity: 1;}
.edge:hover path { stroke: red; }
.edge:hover polygon { stroke: red; fill: red; }
]]></style>

<defs>
  <circle id="rim" cx="0" cy="0" r="7"/>
  <circle id="rim2" cx="0" cy="0" r="3.5"/>
  <g id="zoomPlus">
    <use xlink:href="#rim" fill="#404040"><set attributeName="fill" to="#808080" begin="zoomplus.mouseover" end="zoomplus.mouseout"/></use>
    <path d="M-4,0h8M0,-4v8" fill="none" stroke="white" stroke-width="1.5" pointer-events="none"/>
  </g>
  <g id="zoomMin">
    <use xlink:href="#rim" fill="#404040"><set attributeName="fill" to="#808080" begin="zoomminus.mouseover" end="zoomminus.mouseout"/></use>
    <path d="M-4,0h8" fill="none" stroke="white" stroke-width="1.5" pointer-events="none"/>
  </g>
  <g id="arrowUp" transform="translate(30 24)">
    <use xlink:href="#rim"/>
    <path pointer-events="none" fill="none" stroke="white" stroke-width="1.5" d="M0,-3.0v7 M-2.5,-0.5L0,-3.0L2.5,-0.5"/>
  </g>
  <g id="arrowRight" transform="rotate(90) translate(36 -43)">
    <use xlink:href="#rim"/>
    <path pointer-events="none" fill="none" stroke="white" stroke-width="1.5" d="M0,-3.0v7 M-2.5,-0.5L0,-3.0L2.5,-0.5"/>
  </g>
  <g id="arrowDown" transform="rotate(180) translate(-30 -48)">
    <use xlink:href="#rim"/>
    <path pointer-events="none" fill="none" stroke="white" stroke-width="1.5" d="M0,-3.0v7 M-2.5,-0.5L0,-3.0L2.5,-0.5"/>
  </g>
  <g id="arrowLeft" transform="rotate(270) translate(-36 17)">
    <use xlink:href="#rim"/>
    <path pointer-events="none" fill="none" stroke="white" stroke-width="1.5" d="M0,-3.0v7 M-2.5,-0.5L0,-3.0L2.5,-0.5"/>
  </g>
  <g id="resetDef">
    <use xlink:href="#rim2" fill="#404040"><set attributeName="fill" to="#808080" begin="reset.mouseover" end="reset.mouseout"/></use>
  </g>
</defs>
<script type="application/ecmascript">
var viewWidth = 1608;
var viewHeight = 93;
var sectionId = 'dynsection-1';
</script>
<script type="application/ecmascript" xlink:href="svg.min.js"/>
<svg id="graph" class="graph">
<g id="viewport">
<title>eom&#45;debug.h</title>
<!-- Node1 -->
<g id="Node000001" class="node">
<title>Node1</title>
<g id="a_Node000001"><a xlink:title=" ">
<polygon fill="#999999" stroke="#666666" points="903,-85 823,-85 823,-66 903,-66 903,-85"/>
<text text-anchor="middle" x="863" y="-73" font-family="Inter" font-size="10.00">eom&#45;debug.h</text>
</a>
</g>
</g>
<!-- Node2 -->
<g id="Node000002" class="node">
<title>Node2</title>
<g id="a_Node000002"><a xlink:href="eom-debug_8c.html" target="_top" xlink:title=" ">
<polygon fill="white" stroke="#666666" points="78,-24.5 0,-24.5 0,-5.5 78,-5.5 78,-24.5"/>
<text text-anchor="middle" x="39" y="-12.5" font-family="Inter" font-size="10.00">eom&#45;debug.c</text>
</a>
</g>
</g>
<!-- Node1&#45;&gt;Node2 -->
<g id="edge1_Node000001_Node000002" class="edge">
<title>Node1&#45;&gt;Node2</title>
<g id="a_edge1_Node000001_Node000002"><a xlink:title=" ">
<path fill="none" stroke="#63b8ff" d="M812.37,-73.09C663.23,-68.72 227.26,-54.15 87,-30 79.56,-28.72 71.63,-26.69 64.41,-24.57"/>
<polygon fill="#63b8ff" stroke="#63b8ff" points="812.51,-76.6 822.6,-73.39 812.71,-69.6 812.51,-76.6"/>
</a>
</g>
</g>
<!-- Node3 -->
<g id="Node000003" class="node">
<title>Node3</title>
<g id="a_Node000003"><a xlink:href="eom-fullscreen-plugin_8c.html" target="_top" xlink:title=" ">
<polygon fill="white" stroke="#666666" points="221.5,-24.5 96.5,-24.5 96.5,-5.5 221.5,-5.5 221.5,-24.5"/>
<text text-anchor="middle" x="159" y="-12.5" font-family="Inter" font-size="10.00">eom&#45;fullscreen&#45;plugin.c</text>
</a>
</g>
</g>
<!-- Node1&#45;&gt;Node3 -->
<g id="edge2_Node000001_Node000003" class="edge">
<title>Node1&#45;&gt;Node3</title>
<g id="a_edge2_Node000001_Node000003"><a xlink:title=" ">
<path fill="none" stroke="#63b8ff" d="M812.61,-73.09C705.13,-69.61 445.59,-58.72 230,-30 219.41,-28.59 208.03,-26.57 197.55,-24.51"/>
<polygon fill="#63b8ff" stroke="#63b8ff" points="812.73,-76.59 822.83,-73.41 812.95,-69.6 812.73,-76.59"/>
</a>
</g>
</g>
<!-- Node4 -->
<g id="Node000004" class="node">
<title>Node4</title>
<g id="a_Node000004"><a xlink:href="eom-image_8c.html" target="_top" xlink:title=" ">
<polygon fill="white" stroke="#666666" points="316.5,-24.5 239.5,-24.5 239.5,-5.5 316.5,-5.5 316.5,-24.5"/>
<text text-anchor="middle" x="278" y="-12.5" font-family="Inter" font-size="10.00">eom&#45;image.c</text>
</a>
</g>
</g>
<!-- Node1&#45;&gt;Node4 -->
<g id="edge3_Node000001_Node000004" class="edge">
<title>Node1&#45;&gt;Node4</title>
<g id="a_edge3_Node000001_Node000004"><a xlink:title=" ">
<path fill="none" stroke="#63b8ff" d="M812.53,-73.8C716.7,-71.7 502.11,-63.33 325,-30 317.8,-28.65 310.14,-26.62 303.13,-24.53"/>
<polygon fill="#63b8ff" stroke="#63b8ff" points="812.73,-77.3 822.8,-74.01 812.87,-70.3 812.73,-77.3"/>
</a>
</g>
</g>
<!-- Node5 -->
<g id="Node000005" class="node">
<title>Node5</title>
<g id="a_Node000005"><a xlink:href="eom-metadata-reader-jpg_8c.html" target="_top" xlink:title=" ">
<polygon fill="white" stroke="#666666" points="453.5,-30 334.5,-30 334.5,0 453.5,0 453.5,-30"/>
<text text-anchor="start" x="342.5" y="-18" font-family="Inter" font-size="10.00">eom&#45;metadata&#45;reader</text>
<text text-anchor="middle" x="394" y="-7" font-family="Inter" font-size="10.00">&#45;jpg.c</text>
</a>
</g>
</g>
<!-- Node1&#45;&gt;Node5 -->
<g id="edge4_Node000001_Node000005" class="edge">
<title>Node1&#45;&gt;Node5</title>
<g id="a_edge4_Node000001_Node000005"><a xlink:title=" ">
<path fill="none" stroke="#63b8ff" d="M812.74,-70.43C736.6,-63.92 587.55,-49.85 462,-30 459.26,-29.57 456.47,-29.1 453.65,-28.61"/>
<polygon fill="#63b8ff" stroke="#63b8ff" points="812.74,-73.94 823,-71.3 813.33,-66.96 812.74,-73.94"/>
</a>
</g>
</g>
<!-- Node6 -->
<g id="Node000006" class="node">
<title>Node6</title>
<g id="a_Node000006"><a xlink:href="eom-metadata-reader-png_8c.html" target="_top" xlink:title=" ">
<polygon fill="white" stroke="#666666" points="590.5,-30 471.5,-30 471.5,0 590.5,0 590.5,-30"/>
<text text-anchor="start" x="479.5" y="-18" font-family="Inter" font-size="10.00">eom&#45;metadata&#45;reader</text>
<text text-anchor="middle" x="531" y="-7" font-family="Inter" font-size="10.00">&#45;png.c</text>
</a>
</g>
</g>
<!-- Node1&#45;&gt;Node6 -->
<g id="edge5_Node000001_Node000006" class="edge">
<title>Node1&#45;&gt;Node6</title>
<g id="a_edge5_Node000001_Node000006"><a xlink:title=" ">
<path fill="none" stroke="#63b8ff" d="M812.48,-66.54C759.27,-58.03 673.1,-43.87 599,-30 596.28,-29.49 593.49,-28.96 590.68,-28.41"/>
<polygon fill="#63b8ff" stroke="#63b8ff" points="812.24,-70.05 822.67,-68.16 813.34,-63.13 812.24,-70.05"/>
</a>
</g>
</g>
<!-- Node7 -->
<g id="Node000007" class="node">
<title>Node7</title>
<g id="a_Node000007"><a xlink:href="eom-metadata-reader_8c.html" target="_top" xlink:title=" ">
<polygon fill="white" stroke="#666666" points="733.5,-24.5 608.5,-24.5 608.5,-5.5 733.5,-5.5 733.5,-24.5"/>
<text text-anchor="middle" x="671" y="-12.5" font-family="Inter" font-size="10.00">eom&#45;metadata&#45;reader.c</text>
</a>
</g>
</g>
<!-- Node1&#45;&gt;Node7 -->
<g id="edge6_Node000001_Node000007" class="edge">
<title>Node1&#45;&gt;Node7</title>
<g id="a_edge6_Node000001_Node000007"><a xlink:title=" ">
<path fill="none" stroke="#63b8ff" d="M825.13,-62.96C788,-51.65 732.24,-34.66 698.95,-24.52"/>
<polygon fill="#63b8ff" stroke="#63b8ff" points="824.5,-66.43 835.08,-65.99 826.54,-59.73 824.5,-66.43"/>
</a>
</g>
</g>
<!-- Node8 -->
<g id="Node000008" class="node">
<title>Node8</title>
<g id="a_Node000008"><a xlink:href="eom-plugin-engine_8c.html" target="_top" xlink:title=" ">
<polygon fill="white" stroke="#666666" points="864,-24.5 752,-24.5 752,-5.5 864,-5.5 864,-24.5"/>
<text text-anchor="middle" x="808" y="-12.5" font-family="Inter" font-size="10.00">eom&#45;plugin&#45;engine.c</text>
</a>
</g>
</g>
<!-- Node1&#45;&gt;Node8 -->
<g id="edge7_Node000001_Node000008" class="edge">
<title>Node1&#45;&gt;Node8</title>
<g id="a_edge7_Node000001_Node000008"><a xlink:title=" ">
<path fill="none" stroke="#63b8ff" d="M847.74,-58.27C837.51,-47.39 824.45,-33.49 816.15,-24.67"/>
<polygon fill="#63b8ff" stroke="#63b8ff" points="845.48,-60.98 854.88,-65.87 850.58,-56.19 845.48,-60.98"/>
</a>
</g>
</g>
<!-- Node9 -->
<g id="Node000009" class="node">
<title>Node9</title>
<g id="a_Node000009"><a xlink:href="eom-print_8c.html" target="_top" xlink:title=" ">
<polygon fill="white" stroke="#666666" points="953.5,-24.5 882.5,-24.5 882.5,-5.5 953.5,-5.5 953.5,-24.5"/>
<text text-anchor="middle" x="918" y="-12.5" font-family="Inter" font-size="10.00">eom&#45;print.c</text>
</a>
</g>
</g>
<!-- Node1&#45;&gt;Node9 -->
<g id="edge8_Node000001_Node000009" class="edge">
<title>Node1&#45;&gt;Node9</title>
<g id="a_edge8_Node000001_Node000009"><a xlink:title=" ">
<path fill="none" stroke="#63b8ff" d="M878.26,-58.27C888.49,-47.39 901.55,-33.49 909.85,-24.67"/>
<polygon fill="#63b8ff" stroke="#63b8ff" points="875.42,-56.19 871.12,-65.87 880.52,-60.98 875.42,-56.19"/>
</a>
</g>
</g>
<!-- Node10 -->
<g id="Node000010" class="node">
<title>Node10</title>
<g id="a_Node000010"><a xlink:href="eom-reload-plugin_8c.html" target="_top" xlink:title=" ">
<polygon fill="white" stroke="#666666" points="1080.5,-24.5 971.5,-24.5 971.5,-5.5 1080.5,-5.5 1080.5,-24.5"/>
<text text-anchor="middle" x="1026" y="-12.5" font-family="Inter" font-size="10.00">eom&#45;reload&#45;plugin.c</text>
</a>
</g>
</g>
<!-- Node1&#45;&gt;Node10 -->
<g id="edge9_Node000001_Node000010" class="edge">
<title>Node1&#45;&gt;Node10</title>
<g id="a_edge9_Node000001_Node000010"><a xlink:title=" ">
<path fill="none" stroke="#63b8ff" d="M896.37,-62.52C927.88,-51.21 974.37,-34.53 1002.27,-24.52"/>
<polygon fill="#63b8ff" stroke="#63b8ff" points="894.93,-59.32 886.7,-65.99 897.3,-65.91 894.93,-59.32"/>
</a>
</g>
</g>
<!-- Node11 -->
<g id="Node000011" class="node">
<title>Node11</title>
<g id="a_Node000011"><a xlink:href="eom-scroll-view_8c.html" target="_top" xlink:title=" ">
<polygon fill="white" stroke="#666666" points="1193.5,-24.5 1098.5,-24.5 1098.5,-5.5 1193.5,-5.5 1193.5,-24.5"/>
<text text-anchor="middle" x="1146" y="-12.5" font-family="Inter" font-size="10.00">eom&#45;scroll&#45;view.c</text>
</a>
</g>
</g>
<!-- Node1&#45;&gt;Node11 -->
<g id="edge10_Node000001_Node000011" class="edge">
<title>Node1&#45;&gt;Node11</title>
<g id="a_edge10_Node000001_Node000011"><a xlink:title=" ">
<path fill="none" stroke="#63b8ff" d="M913.35,-65.4C959.45,-56.88 1029.51,-43.48 1090,-30 1097.53,-28.32 1105.6,-26.39 1113.2,-24.5"/>
<polygon fill="#63b8ff" stroke="#63b8ff" points="912.52,-61.99 903.32,-67.24 913.78,-68.88 912.52,-61.99"/>
</a>
</g>
</g>
<!-- Node12 -->
<g id="Node000012" class="node">
<title>Node12</title>
<g id="a_Node000012"><a xlink:href="eom-statusbar-date-plugin_8c.html" target="_top" xlink:title=" ">
<polygon fill="white" stroke="#666666" points="1320,-30 1212,-30 1212,0 1320,0 1320,-30"/>
<text text-anchor="start" x="1220" y="-18" font-family="Inter" font-size="10.00">eom&#45;statusbar&#45;date</text>
<text text-anchor="middle" x="1266" y="-7" font-family="Inter" font-size="10.00">&#45;plugin.c</text>
</a>
</g>
</g>
<!-- Node1&#45;&gt;Node12 -->
<g id="edge11_Node000001_Node000012" class="edge">
<title>Node1&#45;&gt;Node12</title>
<g id="a_edge11_Node000001_Node000012"><a xlink:title=" ">
<path fill="none" stroke="#63b8ff" d="M913.42,-69.31C980,-62.14 1100.74,-48.02 1203,-30 1205.87,-29.49 1208.8,-28.95 1211.76,-28.37"/>
<polygon fill="#63b8ff" stroke="#63b8ff" points="912.79,-65.86 903.22,-70.4 913.53,-72.82 912.79,-65.86"/>
</a>
</g>
</g>
<!-- Node13 -->
<g id="Node000013" class="node">
<title>Node13</title>
<g id="a_Node000013"><a xlink:href="eom-thumbnail_8c.html" target="_top" xlink:title=" ">
<polygon fill="white" stroke="#666666" points="1433.5,-24.5 1338.5,-24.5 1338.5,-5.5 1433.5,-5.5 1433.5,-24.5"/>
<text text-anchor="middle" x="1386" y="-12.5" font-family="Inter" font-size="10.00">eom&#45;thumbnail.c</text>
</a>
</g>
</g>
<!-- Node1&#45;&gt;Node13 -->
<g id="edge12_Node000001_Node000013" class="edge">
<title>Node1&#45;&gt;Node13</title>
<g id="a_edge12_Node000001_Node000013"><a xlink:title=" ">
<path fill="none" stroke="#63b8ff" d="M913.39,-72.1C999.21,-67.47 1179.01,-55.44 1329,-30 1337.44,-28.57 1346.48,-26.57 1354.81,-24.53"/>
<polygon fill="#63b8ff" stroke="#63b8ff" points="912.95,-68.62 903.15,-72.64 913.32,-75.61 912.95,-68.62"/>
</a>
</g>
</g>
<!-- Node14 -->
<g id="Node000014" class="node">
<title>Node14</title>
<g id="a_Node000014"><a xlink:href="eom-window_8c.html" target="_top" xlink:title=" ">
<polygon fill="white" stroke="#666666" points="1534.5,-24.5 1451.5,-24.5 1451.5,-5.5 1534.5,-5.5 1534.5,-24.5"/>
<text text-anchor="middle" x="1493" y="-12.5" font-family="Inter" font-size="10.00">eom&#45;window.c</text>
</a>
</g>
</g>
<!-- Node1&#45;&gt;Node14 -->
<g id="edge13_Node000001_Node000014" class="edge">
<title>Node1&#45;&gt;Node14</title>
<g id="a_edge13_Node000001_Node000014"><a xlink:title=" ">
<path fill="none" stroke="#63b8ff" d="M913.29,-73.95C1014.41,-72.13 1249.21,-64.22 1443,-30 1450.63,-28.65 1458.78,-26.63 1466.24,-24.54"/>
<polygon fill="#63b8ff" stroke="#63b8ff" points="913.01,-70.46 903.07,-74.13 913.13,-77.46 913.01,-70.46"/>
</a>
</g>
</g>
<!-- Node15 -->
<g id="Node000015" class="node">
<title>Node15</title>
<g id="a_Node000015"><a xlink:href="eom_2src_2main_8c.html" target="_top" xlink:title=" ">
<polygon fill="white" stroke="#666666" points="1599.5,-24.5 1552.5,-24.5 1552.5,-5.5 1599.5,-5.5 1599.5,-24.5"/>
<text text-anchor="middle" x="1576" y="-12.5" font-family="Inter" font-size="10.00">main.c</text>
</a>
</g>
</g>
<!-- Node1&#45;&gt;Node15 -->
<g id="edge14_Node000001_Node000015" class="edge">
<title>Node1&#45;&gt;Node15</title>
<g id="a_edge14_Node000001_Node000015"><a xlink:title=" ">
<path fill="none" stroke="#63b8ff" d="M913.54,-73.46C1050.13,-70.29 1424.37,-59.13 1544,-30 1549.18,-28.74 1554.59,-26.69 1559.44,-24.54"/>
<polygon fill="#63b8ff" stroke="#63b8ff" points="913.28,-69.97 903.36,-73.69 913.44,-76.96 913.28,-69.97"/>
</a>
</g>
</g>
</g>
</svg>

<g id="navigator" transform="translate(0 0)" fill="#404254">
  <rect fill="#f2f5e9" fill-opacity="0.5" stroke="#606060" stroke-width=".5" x="0" y="0" width="60" height="60"/>
  <use id="zoomplus" xlink:href="#zoomPlus" x="17" y="9" onmousedown="handleZoom(evt,'in')"/>
  <use id="zoomminus" xlink:href="#zoomMin" x="42" y="9" onmousedown="handleZoom(evt,'out')"/>
  <use id="reset" xlink:href="#resetDef" x="30" y="36" onmousedown="handleReset()"/>
   <use id="arrowup" xlink:href="#arrowUp" x="0" y="0" onmousedown="handlePan(0,-1)"/>
  <use id="arrowright" xlink:href="#arrowRight" x="0" y="0" onmousedown="handlePan(1,0)"/>
  <use id="arrowdown" xlink:href="#arrowDown" x="0" y="0" onmousedown="handlePan(0,1)"/>
  <use id="arrowleft" xlink:href="#arrowLeft" x="0" y="0" onmousedown="handlePan(-1,0)"/>
</g>
<svg viewBox="0 0 15 15" width="100%" height="30px" preserveAspectRatio="xMaxYMin meet">
 <g id="arrow_out" transform="scale(0.3 0.3)">
  <a xlink:href="eom-debug_8h__dep__incl_org.svg" target="_base">
   <rect id="button" ry="5" rx="5" y="6" x="6" height="38" width="38"
        fill="#f2f5e9" fill-opacity="0.5" stroke="#606060" stroke-width="1.0"/>
   <path id="arrow"
     d="M 11.500037,31.436501 C 11.940474,20.09759 22.043105,11.32322 32.158766,21.979434 L 37.068811,17.246167 C 37.068811,17.246167 37.088388,32 37.088388,32 L 22.160133,31.978069 C 22.160133,31.978069 26.997745,27.140456 26.997745,27.140456 C 18.528582,18.264221 13.291696,25.230495 11.500037,31.436501 z"
     style="fill:#404040;"/>
  </a>
 </g>
</svg>

<style type='text/css'>
<![CDATA[
[data-mouse-over-selected='false'] { opacity: 0.7; }
[data-mouse-over-selected='true']  { opacity: 1.0; }
]]>
</style>
<script type="application/ecmascript"><![CDATA[
document.addEventListener('DOMContentLoaded', (event) => {
  highlightEdges();
  highlightAdjacentNodes();
});
]]></script>
</svg>
