<?xml version="1.0" encoding="UTF-8" standalone="no"?>
<!DOCTYPE svg PUBLIC "-//W3C//DTD SVG 1.1//EN"
 "http://www.w3.org/Graphics/SVG/1.1/DTD/svg11.dtd">
<!-- Generated by graphviz version 2.43.0 (0)
 -->
<!-- Title: eom&#45;scroll&#45;view.c Pages: 1 -->
<svg width="904pt" height="192pt"
 viewBox="0.00 0.00 904.00 192.00" xmlns="http://www.w3.org/2000/svg" xmlns:xlink="http://www.w3.org/1999/xlink">
<g id="graph0" class="graph" transform="scale(1 1) rotate(0) translate(4 188)">
<title>eom&#45;scroll&#45;view.c</title>
<!-- Node1 -->
<g id="Node000001" class="node">
<title>Node1</title>
<g id="a_Node000001"><a xlink:title=" ">
<polygon fill="#999999" stroke="#666666" points="514.5,-184 419.5,-184 419.5,-165 514.5,-165 514.5,-184"/>
<text text-anchor="middle" x="467" y="-172" font-family="Inter" font-size="10.00">eom&#45;scroll&#45;view.c</text>
</a>
</g>
</g>
<!-- Node2 -->
<g id="Node000002" class="node">
<title>Node2</title>
<g id="a_Node000002"><a xlink:title=" ">
<polygon fill="#e0e0e0" stroke="#999999" points="50,-129 0,-129 0,-110 50,-110 50,-129"/>
<text text-anchor="middle" x="25" y="-117" font-family="Inter" font-size="10.00">stdlib.h</text>
</a>
</g>
</g>
<!-- Node1&#45;&gt;Node2 -->
<g id="edge1_Node000001_Node000002" class="edge">
<title>Node1&#45;&gt;Node2</title>
<g id="a_edge1_Node000001_Node000002"><a xlink:title=" ">
<path fill="none" stroke="#63b8ff" d="M419.27,-170.41C344.66,-165.13 195.74,-152.72 60.31,-129"/>
<polygon fill="#63b8ff" stroke="#63b8ff" points="60.63,-125.5 50.17,-127.2 59.4,-132.39 60.63,-125.5"/>
</a>
</g>
</g>
<!-- Node3 -->
<g id="Node000003" class="node">
<title>Node3</title>
<g id="a_Node000003"><a xlink:title=" ">
<polygon fill="#e0e0e0" stroke="#999999" points="118,-129 68,-129 68,-110 118,-110 118,-129"/>
<text text-anchor="middle" x="93" y="-117" font-family="Inter" font-size="10.00">math.h</text>
</a>
</g>
</g>
<!-- Node1&#45;&gt;Node3 -->
<g id="edge2_Node000001_Node000003" class="edge">
<title>Node1&#45;&gt;Node3</title>
<g id="a_edge2_Node000001_Node000003"><a xlink:title=" ">
<path fill="none" stroke="#63b8ff" d="M419.38,-168.43C354.25,-161.2 233.86,-146.83 132,-129 130.73,-128.78 129.44,-128.54 128.14,-128.3"/>
<polygon fill="#63b8ff" stroke="#63b8ff" points="128.61,-124.82 118.12,-126.29 127.23,-131.69 128.61,-124.82"/>
</a>
</g>
</g>
<!-- Node4 -->
<g id="Node000004" class="node">
<title>Node4</title>
<g id="a_Node000004"><a xlink:title=" ">
<polygon fill="#e0e0e0" stroke="#999999" points="469,-19 341,-19 341,0 469,0 469,-19"/>
<text text-anchor="middle" x="405" y="-7" font-family="Inter" font-size="10.00">gdk&#45;pixbuf/gdk&#45;pixbuf.h</text>
</a>
</g>
</g>
<!-- Node1&#45;&gt;Node4 -->
<g id="edge3_Node000001_Node000004" class="edge">
<title>Node1&#45;&gt;Node4</title>
<g id="a_edge3_Node000001_Node000004"><a xlink:title=" ">
<path fill="none" stroke="#63b8ff" d="M419.45,-173.71C342.82,-172.93 197.3,-166.41 165,-129 112.14,-67.79 242.09,-35.03 330.7,-20.34"/>
<polygon fill="#63b8ff" stroke="#63b8ff" points="331.44,-23.76 340.75,-18.72 330.32,-16.85 331.44,-23.76"/>
</a>
</g>
</g>
<!-- Node5 -->
<g id="Node000005" class="node">
<title>Node5</title>
<g id="a_Node000005"><a xlink:title=" ">
<polygon fill="#e0e0e0" stroke="#999999" points="277.5,-129 174.5,-129 174.5,-110 277.5,-110 277.5,-129"/>
<text text-anchor="middle" x="226" y="-117" font-family="Inter" font-size="10.00">gdk/gdkkeysyms.h</text>
</a>
</g>
</g>
<!-- Node1&#45;&gt;Node5 -->
<g id="edge4_Node000001_Node000005" class="edge">
<title>Node1&#45;&gt;Node5</title>
<g id="a_edge4_Node000001_Node000005"><a xlink:title=" ">
<path fill="none" stroke="#63b8ff" d="M428.28,-164.98C386.59,-155.82 320.18,-141.21 274.91,-131.26"/>
<polygon fill="#63b8ff" stroke="#63b8ff" points="275.54,-127.81 265.02,-129.08 274.04,-134.65 275.54,-127.81"/>
</a>
</g>
</g>
<!-- Node6 -->
<g id="Node000006" class="node">
<title>Node6</title>
<g id="a_Node000006"><a xlink:href="eom-config-keys_8h.html" target="_top" xlink:title=" ">
<polygon fill="white" stroke="#666666" points="396.5,-129 295.5,-129 295.5,-110 396.5,-110 396.5,-129"/>
<text text-anchor="middle" x="346" y="-117" font-family="Inter" font-size="10.00">eom&#45;config&#45;keys.h</text>
</a>
</g>
</g>
<!-- Node1&#45;&gt;Node6 -->
<g id="edge5_Node000001_Node000006" class="edge">
<title>Node1&#45;&gt;Node6</title>
<g id="a_edge5_Node000001_Node000006"><a xlink:title=" ">
<path fill="none" stroke="#63b8ff" d="M447.56,-164.98C428.01,-156.42 397.62,-143.11 375.18,-133.28"/>
<polygon fill="#63b8ff" stroke="#63b8ff" points="376.36,-129.98 365.79,-129.17 373.55,-136.39 376.36,-129.98"/>
</a>
</g>
</g>
<!-- Node7 -->
<g id="Node000007" class="node">
<title>Node7</title>
<g id="a_Node000007"><a xlink:title=" ">
<polygon fill="#e0e0e0" stroke="#999999" points="519.5,-129 414.5,-129 414.5,-110 519.5,-110 519.5,-129"/>
<text text-anchor="middle" x="467" y="-117" font-family="Inter" font-size="10.00">eom&#45;enum&#45;types.h</text>
</a>
</g>
</g>
<!-- Node1&#45;&gt;Node7 -->
<g id="edge6_Node000001_Node000007" class="edge">
<title>Node1&#45;&gt;Node7</title>
<g id="a_edge6_Node000001_Node000007"><a xlink:title=" ">
<path fill="none" stroke="#63b8ff" d="M467,-164.75C467,-157.8 467,-147.85 467,-139.13"/>
<polygon fill="#63b8ff" stroke="#63b8ff" points="470.5,-139.09 467,-129.09 463.5,-139.09 470.5,-139.09"/>
</a>
</g>
</g>
<!-- Node8 -->
<g id="Node000008" class="node">
<title>Node8</title>
<g id="a_Node000008"><a xlink:title=" ">
<polygon fill="#e0e0e0" stroke="#999999" points="624,-129 538,-129 538,-110 624,-110 624,-129"/>
<text text-anchor="middle" x="581" y="-117" font-family="Inter" font-size="10.00">eom&#45;marshal.h</text>
</a>
</g>
</g>
<!-- Node1&#45;&gt;Node8 -->
<g id="edge7_Node000001_Node000008" class="edge">
<title>Node1&#45;&gt;Node8</title>
<g id="a_edge7_Node000001_Node000008"><a xlink:title=" ">
<path fill="none" stroke="#63b8ff" d="M485.32,-164.98C503.66,-156.46 532.11,-143.23 553.23,-133.41"/>
<polygon fill="#63b8ff" stroke="#63b8ff" points="554.76,-136.56 562.35,-129.17 551.81,-130.21 554.76,-136.56"/>
</a>
</g>
</g>
<!-- Node9 -->
<g id="Node000009" class="node">
<title>Node9</title>
<g id="a_Node000009"><a xlink:href="eom-scroll-view_8h.html" target="_top" xlink:title=" ">
<polygon fill="white" stroke="#666666" points="738,-129 642,-129 642,-110 738,-110 738,-129"/>
<text text-anchor="middle" x="690" y="-117" font-family="Inter" font-size="10.00">eom&#45;scroll&#45;view.h</text>
</a>
</g>
</g>
<!-- Node1&#45;&gt;Node9 -->
<g id="edge8_Node000001_Node000009" class="edge">
<title>Node1&#45;&gt;Node9</title>
<g id="a_edge8_Node000001_Node000009"><a xlink:title=" ">
<path fill="none" stroke="#63b8ff" d="M502.83,-164.98C541.16,-155.87 602.08,-141.4 643.95,-131.45"/>
<polygon fill="#63b8ff" stroke="#63b8ff" points="644.97,-134.8 653.89,-129.08 643.35,-127.99 644.97,-134.8"/>
</a>
</g>
</g>
<!-- Node21 -->
<g id="Node000021" class="node">
<title>Node21</title>
<g id="a_Node000021"><a xlink:href="eom-debug_8h.html" target="_top" xlink:title=" ">
<polygon fill="white" stroke="#666666" points="806,-74 726,-74 726,-55 806,-55 806,-74"/>
<text text-anchor="middle" x="766" y="-62" font-family="Inter" font-size="10.00">eom&#45;debug.h</text>
</a>
</g>
</g>
<!-- Node1&#45;&gt;Node21 -->
<g id="edge13_Node000001_Node000021" class="edge">
<title>Node1&#45;&gt;Node21</title>
<g id="a_edge13_Node000001_Node000021"><a xlink:title=" ">
<path fill="none" stroke="#63b8ff" d="M514.63,-171.92C585.29,-168.6 713.2,-158.58 747,-129 759.57,-118 764,-99.05 765.47,-84.71"/>
<polygon fill="#63b8ff" stroke="#63b8ff" points="768.98,-84.64 766.12,-74.43 761.99,-84.19 768.98,-84.64"/>
</a>
</g>
</g>
<!-- Node22 -->
<g id="Node000022" class="node">
<title>Node22</title>
<g id="a_Node000022"><a xlink:href="zoom_8h.html" target="_top" xlink:title=" ">
<polygon fill="white" stroke="#666666" points="875.5,-74 824.5,-74 824.5,-55 875.5,-55 875.5,-74"/>
<text text-anchor="middle" x="850" y="-62" font-family="Inter" font-size="10.00">zoom.h</text>
</a>
</g>
</g>
<!-- Node1&#45;&gt;Node22 -->
<g id="edge15_Node000001_Node000022" class="edge">
<title>Node1&#45;&gt;Node22</title>
<g id="a_edge15_Node000001_Node000022"><a xlink:title=" ">
<path fill="none" stroke="#63b8ff" d="M514.7,-173.69C575.6,-172.33 683.11,-164.49 767,-129 793.47,-117.8 818.96,-96.15 834.55,-81.27"/>
<polygon fill="#63b8ff" stroke="#63b8ff" points="837.07,-83.7 841.75,-74.2 832.16,-78.71 837.07,-83.7"/>
</a>
</g>
</g>
<!-- Node23 -->
<g id="Node000023" class="node">
<title>Node23</title>
<g id="a_Node000023"><a xlink:title=" ">
<polygon fill="#e0e0e0" stroke="#999999" points="896,-129 832,-129 832,-110 896,-110 896,-129"/>
<text text-anchor="middle" x="864" y="-117" font-family="Inter" font-size="10.00">gdk/gdk.h</text>
</a>
</g>
</g>
<!-- Node1&#45;&gt;Node23 -->
<g id="edge17_Node000001_Node000023" class="edge">
<title>Node1&#45;&gt;Node23</title>
<g id="a_edge17_Node000001_Node000023"><a xlink:title=" ">
<path fill="none" stroke="#63b8ff" d="M514.53,-168.34C582.11,-160.8 709.81,-145.84 818,-129 819.26,-128.8 820.55,-128.6 821.84,-128.39"/>
<polygon fill="#63b8ff" stroke="#63b8ff" points="822.6,-131.81 831.87,-126.68 821.42,-124.91 822.6,-131.81"/>
</a>
</g>
</g>
<!-- Node10 -->
<g id="Node000010" class="node">
<title>Node10</title>
<g id="a_Node000010"><a xlink:title=" ">
<polygon fill="#e0e0e0" stroke="#999999" points="611.5,-74 552.5,-74 552.5,-55 611.5,-55 611.5,-74"/>
<text text-anchor="middle" x="582" y="-62" font-family="Inter" font-size="10.00">gtk/gtk.h</text>
</a>
</g>
</g>
<!-- Node9&#45;&gt;Node10 -->
<g id="edge9_Node000009_Node000010" class="edge">
<title>Node9&#45;&gt;Node10</title>
<g id="a_edge9_Node000009_Node000010"><a xlink:title=" ">
<path fill="none" stroke="#63b8ff" d="M672.65,-109.98C655.43,-101.54 628.8,-88.47 608.85,-78.68"/>
<polygon fill="#63b8ff" stroke="#63b8ff" points="610.19,-75.43 599.67,-74.17 607.1,-81.72 610.19,-75.43"/>
</a>
</g>
</g>
<!-- Node11 -->
<g id="Node000011" class="node">
<title>Node11</title>
<g id="a_Node000011"><a xlink:href="eom-image_8h.html" target="_top" xlink:title=" ">
<polygon fill="#fff0f0" stroke="red" points="708,-74 630,-74 630,-55 708,-55 708,-74"/>
<text text-anchor="middle" x="669" y="-62" font-family="Inter" font-size="10.00">eom&#45;image.h</text>
</a>
</g>
</g>
<!-- Node9&#45;&gt;Node11 -->
<g id="edge10_Node000009_Node000011" class="edge">
<title>Node9&#45;&gt;Node11</title>
<g id="a_edge10_Node000009_Node000011"><a xlink:title=" ">
<path fill="none" stroke="#63b8ff" d="M686.53,-109.75C683.72,-102.65 679.66,-92.4 676.15,-83.56"/>
<polygon fill="#63b8ff" stroke="#63b8ff" points="679.34,-82.1 672.4,-74.09 672.83,-84.68 679.34,-82.1"/>
</a>
</g>
</g>
<!-- Node11&#45;&gt;Node4 -->
<g id="edge12_Node000011_Node000004" class="edge">
<title>Node11&#45;&gt;Node4</title>
<g id="a_edge12_Node000011_Node000004"><a xlink:title=" ">
<path fill="none" stroke="#63b8ff" d="M629.76,-55.62C584.07,-46.45 508.4,-31.26 457.64,-21.07"/>
<polygon fill="#63b8ff" stroke="#63b8ff" points="458.01,-17.57 447.52,-19.04 456.63,-24.44 458.01,-17.57"/>
</a>
</g>
</g>
<!-- Node18 -->
<g id="Node000018" class="node">
<title>Node18</title>
<g id="a_Node000018"><a xlink:title=" ">
<polygon fill="#e0e0e0" stroke="#999999" points="787,-19 745,-19 745,0 787,0 787,-19"/>
<text text-anchor="middle" x="766" y="-7" font-family="Inter" font-size="10.00">glib.h</text>
</a>
</g>
</g>
<!-- Node11&#45;&gt;Node18 -->
<g id="edge11_Node000011_Node000018" class="edge">
<title>Node11&#45;&gt;Node18</title>
<g id="a_edge11_Node000011_Node000018"><a xlink:title=" ">
<path fill="none" stroke="#63b8ff" d="M684.58,-54.98C699.77,-46.69 723.1,-33.94 740.9,-24.22"/>
<polygon fill="#63b8ff" stroke="#63b8ff" points="743.03,-27.04 750.13,-19.17 739.68,-20.89 743.03,-27.04"/>
</a>
</g>
</g>
<!-- Node21&#45;&gt;Node18 -->
<g id="edge14_Node000021_Node000018" class="edge">
<title>Node21&#45;&gt;Node18</title>
<g id="a_edge14_Node000021_Node000018"><a xlink:title=" ">
<path fill="none" stroke="#63b8ff" d="M766,-54.75C766,-47.8 766,-37.85 766,-29.13"/>
<polygon fill="#63b8ff" stroke="#63b8ff" points="769.5,-29.09 766,-19.09 762.5,-29.09 769.5,-29.09"/>
</a>
</g>
</g>
<!-- Node22&#45;&gt;Node18 -->
<g id="edge16_Node000022_Node000018" class="edge">
<title>Node22&#45;&gt;Node18</title>
<g id="a_edge16_Node000022_Node000018"><a xlink:title=" ">
<path fill="none" stroke="#63b8ff" d="M836.5,-54.98C823.6,-46.84 803.9,-34.41 788.6,-24.76"/>
<polygon fill="#63b8ff" stroke="#63b8ff" points="790.07,-21.55 779.74,-19.17 786.33,-27.47 790.07,-21.55"/>
</a>
</g>
</g>
</g>
</svg>
