<?xml version="1.0" encoding="UTF-8" standalone="no"?>
<!DOCTYPE svg PUBLIC "-//W3C//DTD SVG 1.1//EN"
 "http://www.w3.org/Graphics/SVG/1.1/DTD/svg11.dtd">
<!-- Generated by graphviz version 2.43.0 (0)
 -->
<!-- Title: eom&#45;pixbuf&#45;util.c Pages: 1 -->
<svg width="212pt" height="137pt"
 viewBox="0.00 0.00 212.00 137.00" xmlns="http://www.w3.org/2000/svg" xmlns:xlink="http://www.w3.org/1999/xlink">
<g id="graph0" class="graph" transform="scale(1 1) rotate(0) translate(4 133)">
<title>eom&#45;pixbuf&#45;util.c</title>
<!-- Node1 -->
<g id="Node000001" class="node">
<title>Node1</title>
<g id="a_Node000001"><a xlink:title=" ">
<polygon fill="#999999" stroke="#666666" points="120.5,-129 25.5,-129 25.5,-110 120.5,-110 120.5,-129"/>
<text text-anchor="middle" x="73" y="-117" font-family="Inter" font-size="10.00">eom&#45;pixbuf&#45;util.c</text>
</a>
</g>
</g>
<!-- Node2 -->
<g id="Node000002" class="node">
<title>Node2</title>
<g id="a_Node000002"><a xlink:title=" ">
<polygon fill="#e0e0e0" stroke="#999999" points="53.5,-74 0.5,-74 0.5,-55 53.5,-55 53.5,-74"/>
<text text-anchor="middle" x="27" y="-62" font-family="Inter" font-size="10.00">string.h</text>
</a>
</g>
</g>
<!-- Node1&#45;&gt;Node2 -->
<g id="edge1_Node000001_Node000002" class="edge">
<title>Node1&#45;&gt;Node2</title>
<g id="a_edge1_Node000001_Node000002"><a xlink:title=" ">
<path fill="none" stroke="#63b8ff" d="M65.4,-109.75C58.84,-102.18 49.18,-91.05 41.19,-81.84"/>
<polygon fill="#63b8ff" stroke="#63b8ff" points="43.65,-79.35 34.45,-74.09 38.37,-83.94 43.65,-79.35"/>
</a>
</g>
</g>
<!-- Node3 -->
<g id="Node000003" class="node">
<title>Node3</title>
<g id="a_Node000003"><a xlink:href="eom-pixbuf-util_8h.html" target="_top" xlink:title=" ">
<polygon fill="white" stroke="#666666" points="168,-74 72,-74 72,-55 168,-55 168,-74"/>
<text text-anchor="middle" x="120" y="-62" font-family="Inter" font-size="10.00">eom&#45;pixbuf&#45;util.h</text>
</a>
</g>
</g>
<!-- Node1&#45;&gt;Node3 -->
<g id="edge2_Node000001_Node000003" class="edge">
<title>Node1&#45;&gt;Node3</title>
<g id="a_edge2_Node000001_Node000003"><a xlink:title=" ">
<path fill="none" stroke="#63b8ff" d="M80.76,-109.75C87.47,-102.18 97.34,-91.05 105.51,-81.84"/>
<polygon fill="#63b8ff" stroke="#63b8ff" points="108.37,-83.89 112.38,-74.09 103.13,-79.25 108.37,-83.89"/>
</a>
</g>
</g>
<!-- Node4 -->
<g id="Node000004" class="node">
<title>Node4</title>
<g id="a_Node000004"><a xlink:title=" ">
<polygon fill="#e0e0e0" stroke="#999999" points="128,-19 0,-19 0,0 128,0 128,-19"/>
<text text-anchor="middle" x="64" y="-7" font-family="Inter" font-size="10.00">gdk&#45;pixbuf/gdk&#45;pixbuf.h</text>
</a>
</g>
</g>
<!-- Node3&#45;&gt;Node4 -->
<g id="edge3_Node000003_Node000004" class="edge">
<title>Node3&#45;&gt;Node4</title>
<g id="a_edge3_Node000003_Node000004"><a xlink:title=" ">
<path fill="none" stroke="#63b8ff" d="M111,-54.98C102.81,-47.23 90.49,-35.58 80.53,-26.14"/>
<polygon fill="#63b8ff" stroke="#63b8ff" points="82.83,-23.5 73.16,-19.17 78.02,-28.59 82.83,-23.5"/>
</a>
</g>
</g>
<!-- Node5 -->
<g id="Node000005" class="node">
<title>Node5</title>
<g id="a_Node000005"><a xlink:title=" ">
<polygon fill="#e0e0e0" stroke="#999999" points="204,-19 146,-19 146,0 204,0 204,-19"/>
<text text-anchor="middle" x="175" y="-7" font-family="Inter" font-size="10.00">gio/gio.h</text>
</a>
</g>
</g>
<!-- Node3&#45;&gt;Node5 -->
<g id="edge4_Node000003_Node000005" class="edge">
<title>Node3&#45;&gt;Node5</title>
<g id="a_edge4_Node000003_Node000005"><a xlink:title=" ">
<path fill="none" stroke="#63b8ff" d="M129.08,-54.75C137.09,-47.03 148.96,-35.6 158.62,-26.28"/>
<polygon fill="#63b8ff" stroke="#63b8ff" points="161.31,-28.55 166.09,-19.09 156.46,-23.51 161.31,-28.55"/>
</a>
</g>
</g>
</g>
</svg>
