<?xml version="1.0" encoding="UTF-8" standalone="no"?>
<!DOCTYPE svg PUBLIC "-//W3C//DTD SVG 1.1//EN"
 "http://www.w3.org/Graphics/SVG/1.1/DTD/svg11.dtd">
<!-- Generated by graphviz version 2.43.0 (0)
 -->
<!-- Title: ev&#45;backends&#45;manager.h Pages: 1 -->
<svg width="519pt" height="247pt"
 viewBox="0.00 0.00 518.50 247.00" xmlns="http://www.w3.org/2000/svg" xmlns:xlink="http://www.w3.org/1999/xlink">
<g id="graph0" class="graph" transform="scale(1 1) rotate(0) translate(4 243)">
<title>ev&#45;backends&#45;manager.h</title>
<!-- Node1 -->
<g id="Node000001" class="node">
<title>Node1</title>
<g id="a_Node000001"><a xlink:title=" ">
<polygon fill="#999999" stroke="#666666" points="266.5,-239 141.5,-239 141.5,-220 266.5,-220 266.5,-239"/>
<text text-anchor="middle" x="204" y="-227" font-family="Inter" font-size="10.00">ev&#45;backends&#45;manager.h</text>
</a>
</g>
</g>
<!-- Node2 -->
<g id="Node000002" class="node">
<title>Node2</title>
<g id="a_Node000002"><a xlink:title=" ">
<polygon fill="#e0e0e0" stroke="#999999" points="42,-74 0,-74 0,-55 42,-55 42,-74"/>
<text text-anchor="middle" x="21" y="-62" font-family="Inter" font-size="10.00">glib.h</text>
</a>
</g>
</g>
<!-- Node1&#45;&gt;Node2 -->
<g id="edge1_Node000001_Node000002" class="edge">
<title>Node1&#45;&gt;Node2</title>
<g id="a_edge1_Node000001_Node000002"><a xlink:title=" ">
<path fill="none" stroke="#63b8ff" d="M169.01,-219.99C126.83,-207.69 57.55,-180.56 25,-129 16.61,-115.72 16.31,-97.6 17.7,-84.12"/>
<polygon fill="#63b8ff" stroke="#63b8ff" points="21.18,-84.48 19.12,-74.09 14.25,-83.5 21.18,-84.48"/>
</a>
</g>
</g>
<!-- Node3 -->
<g id="Node000003" class="node">
<title>Node3</title>
<g id="a_Node000003"><a xlink:href="ev-document_8h.html" target="_top" xlink:title=" ">
<polygon fill="white" stroke="#666666" points="247,-184 161,-184 161,-165 247,-165 247,-184"/>
<text text-anchor="middle" x="204" y="-172" font-family="Inter" font-size="10.00">ev&#45;document.h</text>
</a>
</g>
</g>
<!-- Node1&#45;&gt;Node3 -->
<g id="edge2_Node000001_Node000003" class="edge">
<title>Node1&#45;&gt;Node3</title>
<g id="a_edge2_Node000001_Node000003"><a xlink:title=" ">
<path fill="none" stroke="#63b8ff" d="M204,-219.75C204,-212.8 204,-202.85 204,-194.13"/>
<polygon fill="#63b8ff" stroke="#63b8ff" points="207.5,-194.09 204,-184.09 200.5,-194.09 207.5,-194.09"/>
</a>
</g>
</g>
<!-- Node10 -->
<g id="Node000010" class="node">
<title>Node10</title>
<g id="a_Node000010"><a xlink:href="ev-macros_8h.html" target="_top" xlink:title=" ">
<polygon fill="white" stroke="#666666" points="337,-184 265,-184 265,-165 337,-165 337,-184"/>
<text text-anchor="middle" x="301" y="-172" font-family="Inter" font-size="10.00">ev&#45;macros.h</text>
</a>
</g>
</g>
<!-- Node1&#45;&gt;Node10 -->
<g id="edge15_Node000001_Node000010" class="edge">
<title>Node1&#45;&gt;Node10</title>
<g id="a_edge15_Node000001_Node000010"><a xlink:title=" ">
<path fill="none" stroke="#63b8ff" d="M219.58,-219.98C234.77,-211.69 258.1,-198.94 275.9,-189.22"/>
<polygon fill="#63b8ff" stroke="#63b8ff" points="278.03,-192.04 285.13,-184.17 274.68,-185.89 278.03,-192.04"/>
</a>
</g>
</g>
<!-- Node3&#45;&gt;Node2 -->
<g id="edge4_Node000003_Node000002" class="edge">
<title>Node3&#45;&gt;Node2</title>
<g id="a_edge4_Node000003_Node000002"><a xlink:title=" ">
<path fill="none" stroke="#63b8ff" d="M160.69,-172.93C123.91,-170.12 72.11,-160.3 40,-129 28.04,-117.34 23.53,-98.48 21.87,-84.34"/>
<polygon fill="#63b8ff" stroke="#63b8ff" points="25.35,-83.93 21.07,-74.24 18.37,-84.48 25.35,-83.93"/>
</a>
</g>
</g>
<!-- Node4 -->
<g id="Node000004" class="node">
<title>Node4</title>
<g id="a_Node000004"><a xlink:title=" ">
<polygon fill="#e0e0e0" stroke="#999999" points="251,-19 177,-19 177,0 251,0 251,-19"/>
<text text-anchor="middle" x="214" y="-7" font-family="Inter" font-size="10.00">glib&#45;object.h</text>
</a>
</g>
</g>
<!-- Node3&#45;&gt;Node4 -->
<g id="edge3_Node000003_Node000004" class="edge">
<title>Node3&#45;&gt;Node4</title>
<g id="a_edge3_Node000003_Node000004"><a xlink:title=" ">
<path fill="none" stroke="#63b8ff" d="M203.35,-164.84C202.01,-145.22 199.46,-95.89 204,-55 204.96,-46.34 206.94,-36.91 208.89,-28.97"/>
<polygon fill="#63b8ff" stroke="#63b8ff" points="212.28,-29.83 211.43,-19.27 205.51,-28.06 212.28,-29.83"/>
</a>
</g>
</g>
<!-- Node5 -->
<g id="Node000005" class="node">
<title>Node5</title>
<g id="a_Node000005"><a xlink:title=" ">
<polygon fill="#e0e0e0" stroke="#999999" points="445.5,-129 378.5,-129 378.5,-110 445.5,-110 445.5,-129"/>
<text text-anchor="middle" x="412" y="-117" font-family="Inter" font-size="10.00">gmodule.h</text>
</a>
</g>
</g>
<!-- Node3&#45;&gt;Node5 -->
<g id="edge5_Node000003_Node000005" class="edge">
<title>Node3&#45;&gt;Node5</title>
<g id="a_edge5_Node000003_Node000005"><a xlink:title=" ">
<path fill="none" stroke="#63b8ff" d="M237.42,-164.98C272.94,-155.93 329.27,-141.58 368.3,-131.64"/>
<polygon fill="#63b8ff" stroke="#63b8ff" points="369.49,-134.94 378.32,-129.08 367.76,-128.16 369.49,-134.94"/>
</a>
</g>
</g>
<!-- Node6 -->
<g id="Node000006" class="node">
<title>Node6</title>
<g id="a_Node000006"><a xlink:title=" ">
<polygon fill="#e0e0e0" stroke="#999999" points="510.5,-129 463.5,-129 463.5,-110 510.5,-110 510.5,-129"/>
<text text-anchor="middle" x="487" y="-117" font-family="Inter" font-size="10.00">cairo.h</text>
</a>
</g>
</g>
<!-- Node3&#45;&gt;Node6 -->
<g id="edge6_Node000003_Node000006" class="edge">
<title>Node3&#45;&gt;Node6</title>
<g id="a_edge6_Node000003_Node000006"><a xlink:title=" ">
<path fill="none" stroke="#63b8ff" d="M247.2,-166.29C304.19,-156.71 402.43,-139.93 453.45,-129.17"/>
<polygon fill="#63b8ff" stroke="#63b8ff" points="454.26,-132.58 463.29,-127.04 452.77,-125.73 454.26,-132.58"/>
</a>
</g>
</g>
<!-- Node7 -->
<g id="Node000007" class="node">
<title>Node7</title>
<g id="a_Node000007"><a xlink:href="ev-document-info_8h.html" target="_top" xlink:title=" ">
<polygon fill="white" stroke="#666666" points="156.5,-129 49.5,-129 49.5,-110 156.5,-110 156.5,-129"/>
<text text-anchor="middle" x="103" y="-117" font-family="Inter" font-size="10.00">ev&#45;document&#45;info.h</text>
</a>
</g>
</g>
<!-- Node3&#45;&gt;Node7 -->
<g id="edge7_Node000003_Node000007" class="edge">
<title>Node3&#45;&gt;Node7</title>
<g id="a_edge7_Node000003_Node000007"><a xlink:title=" ">
<path fill="none" stroke="#63b8ff" d="M187.77,-164.98C171.82,-156.61 147.22,-143.7 128.62,-133.95"/>
<polygon fill="#63b8ff" stroke="#63b8ff" points="130,-130.72 119.52,-129.17 126.75,-136.92 130,-130.72"/>
</a>
</g>
</g>
<!-- Node8 -->
<g id="Node000008" class="node">
<title>Node8</title>
<g id="a_Node000008"><a xlink:href="ev-page_8h.html" target="_top" xlink:title=" ">
<polygon fill="white" stroke="#666666" points="275,-74 213,-74 213,-55 275,-55 275,-74"/>
<text text-anchor="middle" x="244" y="-62" font-family="Inter" font-size="10.00">ev&#45;page.h</text>
</a>
</g>
</g>
<!-- Node3&#45;&gt;Node8 -->
<g id="edge10_Node000003_Node000008" class="edge">
<title>Node3&#45;&gt;Node8</title>
<g id="a_edge10_Node000003_Node000008"><a xlink:title=" ">
<path fill="none" stroke="#63b8ff" d="M207.27,-164.66C213.81,-147.01 228.6,-107.09 237.28,-83.64"/>
<polygon fill="#63b8ff" stroke="#63b8ff" points="240.6,-84.75 240.79,-74.16 234.04,-82.32 240.6,-84.75"/>
</a>
</g>
</g>
<!-- Node9 -->
<g id="Node000009" class="node">
<title>Node9</title>
<g id="a_Node000009"><a xlink:href="ev-render-context_8h.html" target="_top" xlink:title=" ">
<polygon fill="white" stroke="#666666" points="360.5,-129 251.5,-129 251.5,-110 360.5,-110 360.5,-129"/>
<text text-anchor="middle" x="306" y="-117" font-family="Inter" font-size="10.00">ev&#45;render&#45;context.h</text>
</a>
</g>
</g>
<!-- Node3&#45;&gt;Node9 -->
<g id="edge12_Node000003_Node000009" class="edge">
<title>Node3&#45;&gt;Node9</title>
<g id="a_edge12_Node000003_Node000009"><a xlink:title=" ">
<path fill="none" stroke="#63b8ff" d="M220.39,-164.98C236.57,-156.57 261.57,-143.59 280.38,-133.81"/>
<polygon fill="#63b8ff" stroke="#63b8ff" points="282.05,-136.89 289.31,-129.17 278.83,-130.68 282.05,-136.89"/>
</a>
</g>
</g>
<!-- Node7&#45;&gt;Node2 -->
<g id="edge9_Node000007_Node000002" class="edge">
<title>Node7&#45;&gt;Node2</title>
<g id="a_edge9_Node000007_Node000002"><a xlink:title=" ">
<path fill="none" stroke="#63b8ff" d="M89.83,-109.98C77.23,-101.84 58,-89.41 43.06,-79.76"/>
<polygon fill="#63b8ff" stroke="#63b8ff" points="44.71,-76.66 34.41,-74.17 40.91,-82.54 44.71,-76.66"/>
</a>
</g>
</g>
<!-- Node7&#45;&gt;Node4 -->
<g id="edge8_Node000007_Node000004" class="edge">
<title>Node7&#45;&gt;Node4</title>
<g id="a_edge8_Node000007_Node000004"><a xlink:title=" ">
<path fill="none" stroke="#63b8ff" d="M112.08,-109.66C130.88,-91.38 174.24,-49.18 197.9,-26.17"/>
<polygon fill="#63b8ff" stroke="#63b8ff" points="200.37,-28.64 205.1,-19.16 195.49,-23.62 200.37,-28.64"/>
</a>
</g>
</g>
<!-- Node8&#45;&gt;Node4 -->
<g id="edge11_Node000008_Node000004" class="edge">
<title>Node8&#45;&gt;Node4</title>
<g id="a_edge11_Node000008_Node000004"><a xlink:title=" ">
<path fill="none" stroke="#63b8ff" d="M239.05,-54.75C234.94,-47.49 228.97,-36.95 223.9,-27.98"/>
<polygon fill="#63b8ff" stroke="#63b8ff" points="226.83,-26.07 218.86,-19.09 220.74,-29.52 226.83,-26.07"/>
</a>
</g>
</g>
<!-- Node9&#45;&gt;Node4 -->
<g id="edge13_Node000009_Node000004" class="edge">
<title>Node9&#45;&gt;Node4</title>
<g id="a_edge13_Node000009_Node000004"><a xlink:title=" ">
<path fill="none" stroke="#63b8ff" d="M304.85,-109.83C302.73,-96.72 297.17,-71.66 284,-55 273.48,-41.69 257.81,-31.21 243.97,-23.77"/>
<polygon fill="#63b8ff" stroke="#63b8ff" points="245.27,-20.5 234.76,-19.11 242.1,-26.75 245.27,-20.5"/>
</a>
</g>
</g>
<!-- Node9&#45;&gt;Node8 -->
<g id="edge14_Node000009_Node000008" class="edge">
<title>Node9&#45;&gt;Node8</title>
<g id="a_edge14_Node000009_Node000008"><a xlink:title=" ">
<path fill="none" stroke="#63b8ff" d="M296.04,-109.98C286.87,-102.15 273.06,-90.34 261.97,-80.86"/>
<polygon fill="#63b8ff" stroke="#63b8ff" points="264.02,-78.01 254.14,-74.17 259.47,-83.33 264.02,-78.01"/>
</a>
</g>
</g>
</g>
</svg>
