<?xml version="1.0" encoding="UTF-8" standalone="no"?>
<!DOCTYPE svg PUBLIC "-//W3C//DTD SVG 1.1//EN"
 "http://www.w3.org/Graphics/SVG/1.1/DTD/svg11.dtd">
<!-- Generated by graphviz version 2.43.0 (0)
 -->
<!-- Title: ev&#45;document&#45;transition.h Pages: 1 -->
<svg width="470pt" height="247pt"
 viewBox="0.00 0.00 470.46 247.00" xmlns="http://www.w3.org/2000/svg" xmlns:xlink="http://www.w3.org/1999/xlink">

<svg id="main" version="1.1" xmlns="http://www.w3.org/2000/svg" xmlns:xlink="http://www.w3.org/1999/xlink" xml:space="preserve">

<style type="text/css"><![CDATA[
.node, .edge {opacity: 0.7;}
.node.selected, .edge.selected {opacity: 1;}
.edge:hover path { stroke: red; }
.edge:hover polygon { stroke: red; fill: red; }
]]></style>
<script type="application/ecmascript" xlink:href="svg.min.js"/>
<svg id="graph" class="graph">
<g id="graph0" class="graph" transform="scale(1 1) rotate(0) translate(4 243)">
<title>ev&#45;document&#45;transition.h</title>
<!-- Node1 -->
<g id="Node000001" class="node">
<title>Node1</title>
<g id="a_Node000001"><a xlink:title=" ">
<polygon fill="#999999" stroke="#666666" points="202.56,-239 69.56,-239 69.56,-220 202.56,-220 202.56,-239"/>
<text text-anchor="middle" x="136.06" y="-227" font-family="Inter" font-size="10.00">ev&#45;document&#45;transition.h</text>
</a>
</g>
</g>
<!-- Node2 -->
<g id="Node000002" class="node">
<title>Node2</title>
<g id="a_Node000002"><a xlink:title=" ">
<polygon fill="#e0e0e0" stroke="#999999" points="320.06,-19 246.06,-19 246.06,0 320.06,0 320.06,-19"/>
<text text-anchor="middle" x="283.06" y="-7" font-family="Inter" font-size="10.00">glib&#45;object.h</text>
</a>
</g>
</g>
<!-- Node1&#45;&gt;Node2 -->
<g id="edge1_Node000001_Node000002" class="edge">
<title>Node1&#45;&gt;Node2</title>
<g id="a_edge1_Node000001_Node000002"><a xlink:title=" ">
<path fill="none" stroke="#63b8ff" d="M114.52,-219.9C83.24,-206.09 26.43,-175.67 3.06,-129 -11.52,-99.87 33.12,-56.36 35.06,-55 66.8,-32.78 173.36,-20.01 236,-14.24"/>
<polygon fill="#63b8ff" stroke="#63b8ff" points="236.38,-17.72 246.03,-13.34 235.76,-10.75 236.38,-17.72"/>
</a>
</g>
</g>
<!-- Node3 -->
<g id="Node000003" class="node">
<title>Node3</title>
<g id="a_Node000003"><a xlink:href="ev-document_8h.html" target="_top" xlink:title=" ">
<polygon fill="white" stroke="#666666" points="179.06,-184 93.06,-184 93.06,-165 179.06,-165 179.06,-184"/>
<text text-anchor="middle" x="136.06" y="-172" font-family="Inter" font-size="10.00">ev&#45;document.h</text>
</a>
</g>
</g>
<!-- Node1&#45;&gt;Node3 -->
<g id="edge2_Node000001_Node000003" class="edge">
<title>Node1&#45;&gt;Node3</title>
<g id="a_edge2_Node000001_Node000003"><a xlink:title=" ">
<path fill="none" stroke="#63b8ff" d="M136.06,-219.75C136.06,-212.8 136.06,-202.85 136.06,-194.13"/>
<polygon fill="#63b8ff" stroke="#63b8ff" points="139.56,-194.09 136.06,-184.09 132.56,-194.09 139.56,-194.09"/>
</a>
</g>
</g>
<!-- Node10 -->
<g id="Node000010" class="node">
<title>Node10</title>
<g id="a_Node000010"><a xlink:href="ev-transition-effect_8h.html" target="_top" xlink:title=" ">
<polygon fill="white" stroke="#666666" points="422.56,-184 309.56,-184 309.56,-165 422.56,-165 422.56,-184"/>
<text text-anchor="middle" x="366.06" y="-172" font-family="Inter" font-size="10.00">ev&#45;transition&#45;effect.h</text>
</a>
</g>
</g>
<!-- Node1&#45;&gt;Node10 -->
<g id="edge15_Node000001_Node000010" class="edge">
<title>Node1&#45;&gt;Node10</title>
<g id="a_edge15_Node000001_Node000010"><a xlink:title=" ">
<path fill="none" stroke="#63b8ff" d="M173.02,-219.98C212.64,-210.86 275.65,-196.33 318.84,-186.38"/>
<polygon fill="#63b8ff" stroke="#63b8ff" points="319.86,-189.74 328.82,-184.08 318.29,-182.92 319.86,-189.74"/>
</a>
</g>
</g>
<!-- Node3&#45;&gt;Node2 -->
<g id="edge3_Node000003_Node000002" class="edge">
<title>Node3&#45;&gt;Node2</title>
<g id="a_edge3_Node000003_Node000002"><a xlink:title=" ">
<path fill="none" stroke="#63b8ff" d="M92.68,-168.92C49.78,-162.26 -7.16,-146.43 10.06,-110 48.91,-27.86 168.23,-12.05 235.56,-9.89"/>
<polygon fill="#63b8ff" stroke="#63b8ff" points="235.98,-13.38 245.9,-9.66 235.82,-6.39 235.98,-13.38"/>
</a>
</g>
</g>
<!-- Node4 -->
<g id="Node000004" class="node">
<title>Node4</title>
<g id="a_Node000004"><a xlink:title=" ">
<polygon fill="#e0e0e0" stroke="#999999" points="128.06,-74 86.06,-74 86.06,-55 128.06,-55 128.06,-74"/>
<text text-anchor="middle" x="107.06" y="-62" font-family="Inter" font-size="10.00">glib.h</text>
</a>
</g>
</g>
<!-- Node3&#45;&gt;Node4 -->
<g id="edge4_Node000003_Node000004" class="edge">
<title>Node3&#45;&gt;Node4</title>
<g id="a_edge4_Node000003_Node000004"><a xlink:title=" ">
<path fill="none" stroke="#63b8ff" d="M92.87,-169.31C66.54,-164.27 34.82,-153.22 18.06,-129 -0.09,-102.76 43.98,-83.6 76.38,-73.53"/>
<polygon fill="#63b8ff" stroke="#63b8ff" points="77.37,-76.89 85.98,-70.71 75.39,-70.18 77.37,-76.89"/>
</a>
</g>
</g>
<!-- Node5 -->
<g id="Node000005" class="node">
<title>Node5</title>
<g id="a_Node000005"><a xlink:title=" ">
<polygon fill="#e0e0e0" stroke="#999999" points="94.56,-129 27.56,-129 27.56,-110 94.56,-110 94.56,-129"/>
<text text-anchor="middle" x="61.06" y="-117" font-family="Inter" font-size="10.00">gmodule.h</text>
</a>
</g>
</g>
<!-- Node3&#45;&gt;Node5 -->
<g id="edge5_Node000003_Node000005" class="edge">
<title>Node3&#45;&gt;Node5</title>
<g id="a_edge5_Node000003_Node000005"><a xlink:title=" ">
<path fill="none" stroke="#63b8ff" d="M124.01,-164.98C112.6,-156.92 95.23,-144.65 81.63,-135.03"/>
<polygon fill="#63b8ff" stroke="#63b8ff" points="83.52,-132.08 73.33,-129.17 79.48,-137.8 83.52,-132.08"/>
</a>
</g>
</g>
<!-- Node6 -->
<g id="Node000006" class="node">
<title>Node6</title>
<g id="a_Node000006"><a xlink:title=" ">
<polygon fill="#e0e0e0" stroke="#999999" points="159.56,-129 112.56,-129 112.56,-110 159.56,-110 159.56,-129"/>
<text text-anchor="middle" x="136.06" y="-117" font-family="Inter" font-size="10.00">cairo.h</text>
</a>
</g>
</g>
<!-- Node3&#45;&gt;Node6 -->
<g id="edge6_Node000003_Node000006" class="edge">
<title>Node3&#45;&gt;Node6</title>
<g id="a_edge6_Node000003_Node000006"><a xlink:title=" ">
<path fill="none" stroke="#63b8ff" d="M136.06,-164.75C136.06,-157.8 136.06,-147.85 136.06,-139.13"/>
<polygon fill="#63b8ff" stroke="#63b8ff" points="139.56,-139.09 136.06,-129.09 132.56,-139.09 139.56,-139.09"/>
</a>
</g>
</g>
<!-- Node7 -->
<g id="Node000007" class="node">
<title>Node7</title>
<g id="a_Node000007"><a xlink:href="ev-document-info_8h.html" target="_top" xlink:title=" ">
<polygon fill="white" stroke="#666666" points="284.56,-129 177.56,-129 177.56,-110 284.56,-110 284.56,-129"/>
<text text-anchor="middle" x="231.06" y="-117" font-family="Inter" font-size="10.00">ev&#45;document&#45;info.h</text>
</a>
</g>
</g>
<!-- Node3&#45;&gt;Node7 -->
<g id="edge7_Node000003_Node000007" class="edge">
<title>Node3&#45;&gt;Node7</title>
<g id="a_edge7_Node000003_Node000007"><a xlink:title=" ">
<path fill="none" stroke="#63b8ff" d="M151.33,-164.98C166.2,-156.69 189.05,-143.94 206.48,-134.22"/>
<polygon fill="#63b8ff" stroke="#63b8ff" points="208.5,-137.1 215.52,-129.17 205.09,-130.99 208.5,-137.1"/>
</a>
</g>
</g>
<!-- Node8 -->
<g id="Node000008" class="node">
<title>Node8</title>
<g id="a_Node000008"><a xlink:href="ev-page_8h.html" target="_top" xlink:title=" ">
<polygon fill="white" stroke="#666666" points="344.06,-74 282.06,-74 282.06,-55 344.06,-55 344.06,-74"/>
<text text-anchor="middle" x="313.06" y="-62" font-family="Inter" font-size="10.00">ev&#45;page.h</text>
</a>
</g>
</g>
<!-- Node3&#45;&gt;Node8 -->
<g id="edge10_Node000003_Node000008" class="edge">
<title>Node3&#45;&gt;Node8</title>
<g id="a_edge10_Node000003_Node000008"><a xlink:title=" ">
<path fill="none" stroke="#63b8ff" d="M179.2,-172.13C214.25,-168.73 262.69,-158.51 293.06,-129 305.1,-117.31 309.92,-98.45 311.83,-84.32"/>
<polygon fill="#63b8ff" stroke="#63b8ff" points="315.33,-84.52 312.83,-74.23 308.36,-83.83 315.33,-84.52"/>
</a>
</g>
</g>
<!-- Node9 -->
<g id="Node000009" class="node">
<title>Node9</title>
<g id="a_Node000009"><a xlink:href="ev-render-context_8h.html" target="_top" xlink:title=" ">
<polygon fill="white" stroke="#666666" points="450.56,-129 341.56,-129 341.56,-110 450.56,-110 450.56,-129"/>
<text text-anchor="middle" x="396.06" y="-117" font-family="Inter" font-size="10.00">ev&#45;render&#45;context.h</text>
</a>
</g>
</g>
<!-- Node3&#45;&gt;Node9 -->
<g id="edge12_Node000003_Node000009" class="edge">
<title>Node3&#45;&gt;Node9</title>
<g id="a_edge12_Node000003_Node000009"><a xlink:title=" ">
<path fill="none" stroke="#63b8ff" d="M177.84,-164.98C223,-155.78 295.06,-141.09 343.91,-131.13"/>
<polygon fill="#63b8ff" stroke="#63b8ff" points="344.86,-134.51 353.96,-129.08 343.47,-127.65 344.86,-134.51"/>
</a>
</g>
</g>
<!-- Node7&#45;&gt;Node2 -->
<g id="edge8_Node000007_Node000002" class="edge">
<title>Node7&#45;&gt;Node2</title>
<g id="a_edge8_Node000007_Node000002"><a xlink:title=" ">
<path fill="none" stroke="#63b8ff" d="M235.32,-109.66C243.86,-91.93 263.21,-51.73 274.48,-28.32"/>
<polygon fill="#63b8ff" stroke="#63b8ff" points="277.71,-29.69 278.9,-19.16 271.4,-26.65 277.71,-29.69"/>
</a>
</g>
</g>
<!-- Node7&#45;&gt;Node4 -->
<g id="edge9_Node000007_Node000004" class="edge">
<title>Node7&#45;&gt;Node4</title>
<g id="a_edge9_Node000007_Node000004"><a xlink:title=" ">
<path fill="none" stroke="#63b8ff" d="M211.14,-109.98C191.01,-101.38 159.68,-87.99 136.65,-78.15"/>
<polygon fill="#63b8ff" stroke="#63b8ff" points="137.92,-74.88 127.35,-74.17 135.17,-81.32 137.92,-74.88"/>
</a>
</g>
</g>
<!-- Node8&#45;&gt;Node2 -->
<g id="edge11_Node000008_Node000002" class="edge">
<title>Node8&#45;&gt;Node2</title>
<g id="a_edge11_Node000008_Node000002"><a xlink:title=" ">
<path fill="none" stroke="#63b8ff" d="M308.11,-54.75C304,-47.49 298.04,-36.95 292.96,-27.98"/>
<polygon fill="#63b8ff" stroke="#63b8ff" points="295.9,-26.07 287.93,-19.09 289.81,-29.52 295.9,-26.07"/>
</a>
</g>
</g>
<!-- Node9&#45;&gt;Node2 -->
<g id="edge13_Node000009_Node000002" class="edge">
<title>Node9&#45;&gt;Node2</title>
<g id="a_edge13_Node000009_Node000002"><a xlink:title=" ">
<path fill="none" stroke="#63b8ff" d="M391.72,-109.88C384.85,-96.86 370.45,-71.88 353.06,-55 340.31,-42.61 323.57,-31.82 309.66,-23.96"/>
<polygon fill="#63b8ff" stroke="#63b8ff" points="311.02,-20.72 300.56,-19.01 307.67,-26.87 311.02,-20.72"/>
</a>
</g>
</g>
<!-- Node9&#45;&gt;Node8 -->
<g id="edge14_Node000009_Node000008" class="edge">
<title>Node9&#45;&gt;Node8</title>
<g id="a_edge14_Node000009_Node000008"><a xlink:title=" ">
<path fill="none" stroke="#63b8ff" d="M382.73,-109.98C369.98,-101.84 350.51,-89.41 335.39,-79.76"/>
<polygon fill="#63b8ff" stroke="#63b8ff" points="336.95,-76.6 326.64,-74.17 333.19,-82.5 336.95,-76.6"/>
</a>
</g>
</g>
<!-- Node10&#45;&gt;Node2 -->
<g id="edge16_Node000010_Node000002" class="edge">
<title>Node10&#45;&gt;Node2</title>
<g id="a_edge16_Node000010_Node000002"><a xlink:title=" ">
<path fill="none" stroke="#63b8ff" d="M402.07,-164.93C434.14,-155.33 473.89,-137.43 459.06,-110 432.82,-61.44 372.41,-35 329.71,-21.82"/>
<polygon fill="#63b8ff" stroke="#63b8ff" points="330.66,-18.45 320.08,-18.98 328.68,-25.16 330.66,-18.45"/>
</a>
</g>
</g>
</g>
</svg>
</svg>

<style type='text/css'>
<![CDATA[
[data-mouse-over-selected='false'] { opacity: 0.7; }
[data-mouse-over-selected='true']  { opacity: 1.0; }
]]>
</style>
<script type="application/ecmascript"><![CDATA[
document.addEventListener('DOMContentLoaded', (event) => {
  highlightEdges();
  highlightAdjacentNodes();
});
]]></script>
</svg>
