<?xml version="1.0" encoding="UTF-8" standalone="no"?>
<!DOCTYPE svg PUBLIC "-//W3C//DTD SVG 1.1//EN"
 "http://www.w3.org/Graphics/SVG/1.1/DTD/svg11.dtd">
<!-- Generated by graphviz version 2.43.0 (0)
 -->
<!-- Title: ev&#45;document&#45;attachments.c Pages: 1 -->
<svg width="648pt" height="247pt"
 viewBox="0.00 0.00 648.45 247.00" xmlns="http://www.w3.org/2000/svg" xmlns:xlink="http://www.w3.org/1999/xlink">
<g id="graph0" class="graph" transform="scale(1 1) rotate(0) translate(4 243)">
<title>ev&#45;document&#45;attachments.c</title>
<!-- Node1 -->
<g id="Node000001" class="node">
<title>Node1</title>
<g id="a_Node000001"><a xlink:title=" ">
<polygon fill="#999999" stroke="#666666" points="243.5,-239 97.5,-239 97.5,-220 243.5,-220 243.5,-239"/>
<text text-anchor="middle" x="170.5" y="-227" font-family="Inter" font-size="10.00">ev&#45;document&#45;attachments.c</text>
</a>
</g>
</g>
<!-- Node2 -->
<g id="Node000002" class="node">
<title>Node2</title>
<g id="a_Node000002"><a xlink:title=" ">
<polygon fill="#e0e0e0" stroke="#999999" points="142.5,-184 88.5,-184 88.5,-165 142.5,-165 142.5,-184"/>
<text text-anchor="middle" x="115.5" y="-172" font-family="Inter" font-size="10.00">config.h</text>
</a>
</g>
</g>
<!-- Node1&#45;&gt;Node2 -->
<g id="edge1_Node000001_Node000002" class="edge">
<title>Node1&#45;&gt;Node2</title>
<g id="a_edge1_Node000001_Node000002"><a xlink:title=" ">
<path fill="none" stroke="#63b8ff" d="M161.42,-219.75C153.41,-212.03 141.54,-200.6 131.88,-191.28"/>
<polygon fill="#63b8ff" stroke="#63b8ff" points="134.04,-188.51 124.41,-184.09 129.19,-193.55 134.04,-188.51"/>
</a>
</g>
</g>
<!-- Node3 -->
<g id="Node000003" class="node">
<title>Node3</title>
<g id="a_Node000003"><a xlink:href="ev-document-attachments_8h.html" target="_top" xlink:title=" ">
<polygon fill="white" stroke="#666666" points="147,-129 0,-129 0,-110 147,-110 147,-129"/>
<text text-anchor="middle" x="73.5" y="-117" font-family="Inter" font-size="10.00">ev&#45;document&#45;attachments.h</text>
</a>
</g>
</g>
<!-- Node1&#45;&gt;Node3 -->
<g id="edge2_Node000001_Node000003" class="edge">
<title>Node1&#45;&gt;Node3</title>
<g id="a_edge2_Node000001_Node000003"><a xlink:title=" ">
<path fill="none" stroke="#63b8ff" d="M169.92,-219.76C168.64,-206.57 164.53,-181.4 151.5,-165 140.25,-150.85 123.2,-140.39 107.9,-133.18"/>
<polygon fill="#63b8ff" stroke="#63b8ff" points="109.23,-129.94 98.67,-129.11 106.4,-136.34 109.23,-129.94"/>
</a>
</g>
</g>
<!-- Node6 -->
<g id="Node000006" class="node">
<title>Node6</title>
<g id="a_Node000006"><a xlink:href="ev-document_8h.html" target="_top" xlink:title=" ">
<polygon fill="white" stroke="#666666" points="423.5,-184 337.5,-184 337.5,-165 423.5,-165 423.5,-184"/>
<text text-anchor="middle" x="380.5" y="-172" font-family="Inter" font-size="10.00">ev&#45;document.h</text>
</a>
</g>
</g>
<!-- Node1&#45;&gt;Node6 -->
<g id="edge5_Node000001_Node000006" class="edge">
<title>Node1&#45;&gt;Node6</title>
<g id="a_edge5_Node000001_Node000006"><a xlink:title=" ">
<path fill="none" stroke="#63b8ff" d="M204.24,-219.98C240.18,-210.91 297.22,-196.52 336.63,-186.57"/>
<polygon fill="#63b8ff" stroke="#63b8ff" points="337.66,-189.92 346.5,-184.08 335.94,-183.14 337.66,-189.92"/>
</a>
</g>
</g>
<!-- Node4 -->
<g id="Node000004" class="node">
<title>Node4</title>
<g id="a_Node000004"><a xlink:title=" ">
<polygon fill="#e0e0e0" stroke="#999999" points="382.5,-19 308.5,-19 308.5,0 382.5,0 382.5,-19"/>
<text text-anchor="middle" x="345.5" y="-7" font-family="Inter" font-size="10.00">glib&#45;object.h</text>
</a>
</g>
</g>
<!-- Node3&#45;&gt;Node4 -->
<g id="edge3_Node000003_Node000004" class="edge">
<title>Node3&#45;&gt;Node4</title>
<g id="a_edge3_Node000003_Node000004"><a xlink:title=" ">
<path fill="none" stroke="#63b8ff" d="M80.9,-109.56C92.93,-95.63 118.17,-68.91 145.5,-55 194.11,-30.25 256.26,-19.19 298.27,-14.29"/>
<polygon fill="#63b8ff" stroke="#63b8ff" points="298.67,-17.77 308.24,-13.2 297.91,-10.81 298.67,-17.77"/>
</a>
</g>
</g>
<!-- Node5 -->
<g id="Node000005" class="node">
<title>Node5</title>
<g id="a_Node000005"><a xlink:title=" ">
<polygon fill="#e0e0e0" stroke="#999999" points="196.5,-74 154.5,-74 154.5,-55 196.5,-55 196.5,-74"/>
<text text-anchor="middle" x="175.5" y="-62" font-family="Inter" font-size="10.00">glib.h</text>
</a>
</g>
</g>
<!-- Node3&#45;&gt;Node5 -->
<g id="edge4_Node000003_Node000005" class="edge">
<title>Node3&#45;&gt;Node5</title>
<g id="a_edge4_Node000003_Node000005"><a xlink:title=" ">
<path fill="none" stroke="#63b8ff" d="M89.89,-109.98C106.07,-101.57 131.07,-88.59 149.88,-78.81"/>
<polygon fill="#63b8ff" stroke="#63b8ff" points="151.55,-81.89 158.81,-74.17 148.33,-75.68 151.55,-81.89"/>
</a>
</g>
</g>
<!-- Node6&#45;&gt;Node4 -->
<g id="edge6_Node000006_Node000004" class="edge">
<title>Node6&#45;&gt;Node4</title>
<g id="a_edge6_Node000006_Node000004"><a xlink:title=" ">
<path fill="none" stroke="#63b8ff" d="M423.52,-172.46C489.22,-169.85 609.78,-160.76 636.5,-129 641.94,-122.54 641.41,-116.87 636.5,-110 580.72,-31.97 459.93,-14.46 392.84,-10.95"/>
<polygon fill="#63b8ff" stroke="#63b8ff" points="392.69,-7.44 382.55,-10.5 392.39,-14.43 392.69,-7.44"/>
</a>
</g>
</g>
<!-- Node6&#45;&gt;Node5 -->
<g id="edge7_Node000006_Node000005" class="edge">
<title>Node6&#45;&gt;Node5</title>
<g id="a_edge7_Node000006_Node000005"><a xlink:title=" ">
<path fill="none" stroke="#63b8ff" d="M337.29,-168.19C288.98,-161.42 214.83,-148.22 194.5,-129 182.36,-117.52 177.88,-98.64 176.27,-84.44"/>
<polygon fill="#63b8ff" stroke="#63b8ff" points="179.75,-84 175.51,-74.29 172.77,-84.53 179.75,-84"/>
</a>
</g>
</g>
<!-- Node7 -->
<g id="Node000007" class="node">
<title>Node7</title>
<g id="a_Node000007"><a xlink:title=" ">
<polygon fill="#e0e0e0" stroke="#999999" points="562,-129 495,-129 495,-110 562,-110 562,-129"/>
<text text-anchor="middle" x="528.5" y="-117" font-family="Inter" font-size="10.00">gmodule.h</text>
</a>
</g>
</g>
<!-- Node6&#45;&gt;Node7 -->
<g id="edge8_Node000006_Node000007" class="edge">
<title>Node6&#45;&gt;Node7</title>
<g id="a_edge8_Node000006_Node000007"><a xlink:title=" ">
<path fill="none" stroke="#63b8ff" d="M404.28,-164.98C428.73,-156.23 467.03,-142.51 494.65,-132.62"/>
<polygon fill="#63b8ff" stroke="#63b8ff" points="496.05,-135.84 504.29,-129.17 493.69,-129.25 496.05,-135.84"/>
</a>
</g>
</g>
<!-- Node8 -->
<g id="Node000008" class="node">
<title>Node8</title>
<g id="a_Node000008"><a xlink:title=" ">
<polygon fill="#e0e0e0" stroke="#999999" points="627,-129 580,-129 580,-110 627,-110 627,-129"/>
<text text-anchor="middle" x="603.5" y="-117" font-family="Inter" font-size="10.00">cairo.h</text>
</a>
</g>
</g>
<!-- Node6&#45;&gt;Node8 -->
<g id="edge9_Node000006_Node000008" class="edge">
<title>Node6&#45;&gt;Node8</title>
<g id="a_edge9_Node000006_Node000008"><a xlink:title=" ">
<path fill="none" stroke="#63b8ff" d="M418.63,-164.98C455.13,-156.74 511.99,-143.7 569.73,-129.39"/>
<polygon fill="#63b8ff" stroke="#63b8ff" points="570.9,-132.71 579.76,-126.89 569.21,-125.91 570.9,-132.71"/>
</a>
</g>
</g>
<!-- Node9 -->
<g id="Node000009" class="node">
<title>Node9</title>
<g id="a_Node000009"><a xlink:href="ev-document-info_8h.html" target="_top" xlink:title=" ">
<polygon fill="white" stroke="#666666" points="311,-129 204,-129 204,-110 311,-110 311,-129"/>
<text text-anchor="middle" x="257.5" y="-117" font-family="Inter" font-size="10.00">ev&#45;document&#45;info.h</text>
</a>
</g>
</g>
<!-- Node6&#45;&gt;Node9 -->
<g id="edge10_Node000006_Node000009" class="edge">
<title>Node6&#45;&gt;Node9</title>
<g id="a_edge10_Node000006_Node000009"><a xlink:title=" ">
<path fill="none" stroke="#63b8ff" d="M360.74,-164.98C340.77,-156.38 309.7,-142.99 286.85,-133.15"/>
<polygon fill="#63b8ff" stroke="#63b8ff" points="288.19,-129.91 277.62,-129.17 285.42,-136.34 288.19,-129.91"/>
</a>
</g>
</g>
<!-- Node10 -->
<g id="Node000010" class="node">
<title>Node10</title>
<g id="a_Node000010"><a xlink:href="ev-page_8h.html" target="_top" xlink:title=" ">
<polygon fill="white" stroke="#666666" points="376.5,-74 314.5,-74 314.5,-55 376.5,-55 376.5,-74"/>
<text text-anchor="middle" x="345.5" y="-62" font-family="Inter" font-size="10.00">ev&#45;page.h</text>
</a>
</g>
</g>
<!-- Node6&#45;&gt;Node10 -->
<g id="edge13_Node000006_Node000010" class="edge">
<title>Node6&#45;&gt;Node10</title>
<g id="a_edge13_Node000006_Node000010"><a xlink:title=" ">
<path fill="none" stroke="#63b8ff" d="M375.43,-164.92C370.45,-156.16 362.98,-142.04 358.5,-129 353.47,-114.35 350.09,-97.09 348.04,-84.27"/>
<polygon fill="#63b8ff" stroke="#63b8ff" points="351.5,-83.7 346.57,-74.32 344.57,-84.72 351.5,-83.7"/>
</a>
</g>
</g>
<!-- Node11 -->
<g id="Node000011" class="node">
<title>Node11</title>
<g id="a_Node000011"><a xlink:href="ev-render-context_8h.html" target="_top" xlink:title=" ">
<polygon fill="white" stroke="#666666" points="477,-129 368,-129 368,-110 477,-110 477,-129"/>
<text text-anchor="middle" x="422.5" y="-117" font-family="Inter" font-size="10.00">ev&#45;render&#45;context.h</text>
</a>
</g>
</g>
<!-- Node6&#45;&gt;Node11 -->
<g id="edge15_Node000006_Node000011" class="edge">
<title>Node6&#45;&gt;Node11</title>
<g id="a_edge15_Node000006_Node000011"><a xlink:title=" ">
<path fill="none" stroke="#63b8ff" d="M387.44,-164.75C393.37,-157.26 402.07,-146.28 409.32,-137.13"/>
<polygon fill="#63b8ff" stroke="#63b8ff" points="412.23,-139.1 415.69,-129.09 406.74,-134.75 412.23,-139.1"/>
</a>
</g>
</g>
<!-- Node9&#45;&gt;Node4 -->
<g id="edge11_Node000009_Node000004" class="edge">
<title>Node9&#45;&gt;Node4</title>
<g id="a_edge11_Node000009_Node000004"><a xlink:title=" ">
<path fill="none" stroke="#63b8ff" d="M263.79,-109.69C272.76,-97.26 289.85,-73.98 305.5,-55 313.43,-45.38 322.72,-35 330.34,-26.69"/>
<polygon fill="#63b8ff" stroke="#63b8ff" points="333.08,-28.89 337.31,-19.17 327.94,-24.13 333.08,-28.89"/>
</a>
</g>
</g>
<!-- Node9&#45;&gt;Node5 -->
<g id="edge12_Node000009_Node000005" class="edge">
<title>Node9&#45;&gt;Node5</title>
<g id="a_edge12_Node000009_Node000005"><a xlink:title=" ">
<path fill="none" stroke="#63b8ff" d="M244.33,-109.98C231.73,-101.84 212.5,-89.41 197.56,-79.76"/>
<polygon fill="#63b8ff" stroke="#63b8ff" points="199.21,-76.66 188.91,-74.17 195.41,-82.54 199.21,-76.66"/>
</a>
</g>
</g>
<!-- Node10&#45;&gt;Node4 -->
<g id="edge14_Node000010_Node000004" class="edge">
<title>Node10&#45;&gt;Node4</title>
<g id="a_edge14_Node000010_Node000004"><a xlink:title=" ">
<path fill="none" stroke="#63b8ff" d="M345.5,-54.75C345.5,-47.8 345.5,-37.85 345.5,-29.13"/>
<polygon fill="#63b8ff" stroke="#63b8ff" points="349,-29.09 345.5,-19.09 342,-29.09 349,-29.09"/>
</a>
</g>
</g>
<!-- Node11&#45;&gt;Node4 -->
<g id="edge16_Node000011_Node000004" class="edge">
<title>Node11&#45;&gt;Node4</title>
<g id="a_edge16_Node000011_Node000004"><a xlink:title=" ">
<path fill="none" stroke="#63b8ff" d="M418.23,-109.94C411.82,-97.41 399.03,-73.56 385.5,-55 378.25,-45.05 369.14,-34.78 361.45,-26.61"/>
<polygon fill="#63b8ff" stroke="#63b8ff" points="363.8,-24.02 354.35,-19.24 358.76,-28.87 363.8,-24.02"/>
</a>
</g>
</g>
<!-- Node11&#45;&gt;Node10 -->
<g id="edge17_Node000011_Node000010" class="edge">
<title>Node11&#45;&gt;Node10</title>
<g id="a_edge17_Node000011_Node000010"><a xlink:title=" ">
<path fill="none" stroke="#63b8ff" d="M410.13,-109.98C398.41,-101.92 380.58,-89.65 366.61,-80.03"/>
<polygon fill="#63b8ff" stroke="#63b8ff" points="368.32,-76.96 358.1,-74.17 364.35,-82.72 368.32,-76.96"/>
</a>
</g>
</g>
</g>
</svg>
