<?xml version="1.0" encoding="UTF-8" standalone="no"?>
<!DOCTYPE svg PUBLIC "-//W3C//DTD SVG 1.1//EN"
 "http://www.w3.org/Graphics/SVG/1.1/DTD/svg11.dtd">
<!-- Generated by graphviz version 2.43.0 (0)
 -->
<!-- Title: ev&#45;sidebar&#45;page.c Pages: 1 -->
<svg width="259pt" height="192pt"
 viewBox="0.00 0.00 258.94 192.00" xmlns="http://www.w3.org/2000/svg" xmlns:xlink="http://www.w3.org/1999/xlink">
<g id="graph0" class="graph" transform="scale(1 1) rotate(0) translate(4 188)">
<title>ev&#45;sidebar&#45;page.c</title>
<!-- Node1 -->
<g id="Node000001" class="node">
<title>Node1</title>
<g id="a_Node000001"><a xlink:title=" ">
<polygon fill="#999999" stroke="#666666" points="133.15,-184 35.15,-184 35.15,-165 133.15,-165 133.15,-184"/>
<text text-anchor="middle" x="84.15" y="-172" font-family="Inter" font-size="10.00">ev&#45;sidebar&#45;page.c</text>
</a>
</g>
</g>
<!-- Node2 -->
<g id="Node000002" class="node">
<title>Node2</title>
<g id="a_Node000002"><a xlink:title=" ">
<polygon fill="#e0e0e0" stroke="#999999" points="64.65,-129 5.65,-129 5.65,-110 64.65,-110 64.65,-129"/>
<text text-anchor="middle" x="35.15" y="-117" font-family="Inter" font-size="10.00">gtk/gtk.h</text>
</a>
</g>
</g>
<!-- Node1&#45;&gt;Node2 -->
<g id="edge1_Node000001_Node000002" class="edge">
<title>Node1&#45;&gt;Node2</title>
<g id="a_edge1_Node000001_Node000002"><a xlink:title=" ">
<path fill="none" stroke="#63b8ff" d="M76.06,-164.75C68.99,-157.11 58.56,-145.82 50,-136.56"/>
<polygon fill="#63b8ff" stroke="#63b8ff" points="52.45,-134.06 43.09,-129.09 47.31,-138.81 52.45,-134.06"/>
</a>
</g>
</g>
<!-- Node3 -->
<g id="Node000003" class="node">
<title>Node3</title>
<g id="a_Node000003"><a xlink:href="ev-sidebar-page_8h.html" target="_top" xlink:title=" ">
<polygon fill="white" stroke="#666666" points="183.15,-129 83.15,-129 83.15,-110 183.15,-110 183.15,-129"/>
<text text-anchor="middle" x="133.15" y="-117" font-family="Inter" font-size="10.00">ev&#45;sidebar&#45;page.h</text>
</a>
</g>
</g>
<!-- Node1&#45;&gt;Node3 -->
<g id="edge2_Node000001_Node000003" class="edge">
<title>Node1&#45;&gt;Node3</title>
<g id="a_edge2_Node000001_Node000003"><a xlink:title=" ">
<path fill="none" stroke="#63b8ff" d="M92.24,-164.75C99.3,-157.11 109.74,-145.82 118.3,-136.56"/>
<polygon fill="#63b8ff" stroke="#63b8ff" points="120.99,-138.81 125.21,-129.09 115.85,-134.06 120.99,-138.81"/>
</a>
</g>
</g>
<!-- Node4 -->
<g id="Node000004" class="node">
<title>Node4</title>
<g id="a_Node000004"><a xlink:title=" ">
<polygon fill="#e0e0e0" stroke="#999999" points="110.15,-19 36.15,-19 36.15,0 110.15,0 110.15,-19"/>
<text text-anchor="middle" x="73.15" y="-7" font-family="Inter" font-size="10.00">glib&#45;object.h</text>
</a>
</g>
</g>
<!-- Node3&#45;&gt;Node4 -->
<g id="edge3_Node000003_Node000004" class="edge">
<title>Node3&#45;&gt;Node4</title>
<g id="a_edge3_Node000003_Node000004"><a xlink:title=" ">
<path fill="none" stroke="#63b8ff" d="M92.74,-109.93C58.98,-101.86 14.7,-88.81 4.15,-74 -10.26,-53.78 16.99,-35.12 41.37,-23.33"/>
<polygon fill="#63b8ff" stroke="#63b8ff" points="42.85,-26.5 50.49,-19.16 39.94,-20.14 42.85,-26.5"/>
</a>
</g>
</g>
<!-- Node5 -->
<g id="Node000005" class="node">
<title>Node5</title>
<g id="a_Node000005"><a xlink:title=" ">
<polygon fill="#e0e0e0" stroke="#999999" points="250.15,-19 208.15,-19 208.15,0 250.15,0 250.15,-19"/>
<text text-anchor="middle" x="229.15" y="-7" font-family="Inter" font-size="10.00">glib.h</text>
</a>
</g>
</g>
<!-- Node3&#45;&gt;Node5 -->
<g id="edge4_Node000003_Node000005" class="edge">
<title>Node3&#45;&gt;Node5</title>
<g id="a_edge4_Node000003_Node000005"><a xlink:title=" ">
<path fill="none" stroke="#63b8ff" d="M183.17,-111.8C206.4,-105.91 231.97,-94.83 246.15,-74 255.56,-60.18 248.64,-41.39 240.99,-27.84"/>
<polygon fill="#63b8ff" stroke="#63b8ff" points="243.77,-25.69 235.52,-19.05 237.83,-29.39 243.77,-25.69"/>
</a>
</g>
</g>
<!-- Node6 -->
<g id="Node000006" class="node">
<title>Node6</title>
<g id="a_Node000006"><a xlink:href="ev-document_8h.html" target="_top" xlink:title=" ">
<polygon fill="#fff0f0" stroke="red" points="237.15,-74 151.15,-74 151.15,-55 237.15,-55 237.15,-74"/>
<text text-anchor="middle" x="194.15" y="-62" font-family="Inter" font-size="10.00">ev&#45;document.h</text>
</a>
</g>
</g>
<!-- Node3&#45;&gt;Node6 -->
<g id="edge5_Node000003_Node000006" class="edge">
<title>Node3&#45;&gt;Node6</title>
<g id="a_edge5_Node000003_Node000006"><a xlink:title=" ">
<path fill="none" stroke="#63b8ff" d="M142.95,-109.98C151.97,-102.15 165.55,-90.34 176.47,-80.86"/>
<polygon fill="#63b8ff" stroke="#63b8ff" points="178.92,-83.37 184.17,-74.17 174.32,-78.09 178.92,-83.37"/>
</a>
</g>
</g>
<!-- Node12 -->
<g id="Node000012" class="node">
<title>Node12</title>
<g id="a_Node000012"><a xlink:href="ev-document-model_8h.html" target="_top" xlink:title=" ">
<polygon fill="#fff0f0" stroke="red" points="132.65,-74 13.65,-74 13.65,-55 132.65,-55 132.65,-74"/>
<text text-anchor="middle" x="73.15" y="-62" font-family="Inter" font-size="10.00">ev&#45;document&#45;model.h</text>
</a>
</g>
</g>
<!-- Node3&#45;&gt;Node12 -->
<g id="edge8_Node000003_Node000012" class="edge">
<title>Node3&#45;&gt;Node12</title>
<g id="a_edge8_Node000003_Node000012"><a xlink:title=" ">
<path fill="none" stroke="#63b8ff" d="M123.51,-109.98C114.64,-102.15 101.27,-90.34 90.54,-80.86"/>
<polygon fill="#63b8ff" stroke="#63b8ff" points="92.78,-78.17 82.96,-74.17 88.14,-83.41 92.78,-78.17"/>
</a>
</g>
</g>
<!-- Node6&#45;&gt;Node4 -->
<g id="edge6_Node000006_Node000004" class="edge">
<title>Node6&#45;&gt;Node4</title>
<g id="a_edge6_Node000006_Node000004"><a xlink:title=" ">
<path fill="none" stroke="#63b8ff" d="M174.71,-54.98C155.15,-46.42 124.77,-33.11 102.32,-23.28"/>
<polygon fill="#63b8ff" stroke="#63b8ff" points="103.51,-19.98 92.94,-19.17 100.7,-26.39 103.51,-19.98"/>
</a>
</g>
</g>
<!-- Node6&#45;&gt;Node5 -->
<g id="edge7_Node000006_Node000005" class="edge">
<title>Node6&#45;&gt;Node5</title>
<g id="a_edge7_Node000006_Node000005"><a xlink:title=" ">
<path fill="none" stroke="#63b8ff" d="M199.93,-54.75C204.77,-47.42 211.83,-36.73 217.79,-27.7"/>
<polygon fill="#63b8ff" stroke="#63b8ff" points="220.89,-29.36 223.48,-19.09 215.04,-25.5 220.89,-29.36"/>
</a>
</g>
</g>
<!-- Node12&#45;&gt;Node4 -->
<g id="edge9_Node000012_Node000004" class="edge">
<title>Node12&#45;&gt;Node4</title>
<g id="a_edge9_Node000012_Node000004"><a xlink:title=" ">
<path fill="none" stroke="#63b8ff" d="M73.15,-54.75C73.15,-47.8 73.15,-37.85 73.15,-29.13"/>
<polygon fill="#63b8ff" stroke="#63b8ff" points="76.65,-29.09 73.15,-19.09 69.65,-29.09 76.65,-29.09"/>
</a>
</g>
</g>
</g>
</svg>
