<?xml version="1.0" encoding="UTF-8" standalone="no"?>
<!DOCTYPE svg PUBLIC "-//W3C//DTD SVG 1.1//EN"
 "http://www.w3.org/Graphics/SVG/1.1/DTD/svg11.dtd">
<!-- Generated by graphviz version 2.43.0 (0)
 -->
<!-- Title: ev&#45;window.h Pages: 1 -->
<!--zoomable 137 -->

<svg id="main" version="1.1" xmlns="http://www.w3.org/2000/svg" xmlns:xlink="http://www.w3.org/1999/xlink" xml:space="preserve" onload="init(evt)">

<style type="text/css"><![CDATA[
.node, .edge {opacity: 0.7;}
.node.selected, .edge.selected {opacity: 1;}
.edge:hover path { stroke: red; }
.edge:hover polygon { stroke: red; fill: red; }
]]></style>

<defs>
  <circle id="rim" cx="0" cy="0" r="7"/>
  <circle id="rim2" cx="0" cy="0" r="3.5"/>
  <g id="zoomPlus">
    <use xlink:href="#rim" fill="#404040"><set attributeName="fill" to="#808080" begin="zoomplus.mouseover" end="zoomplus.mouseout"/></use>
    <path d="M-4,0h8M0,-4v8" fill="none" stroke="white" stroke-width="1.5" pointer-events="none"/>
  </g>
  <g id="zoomMin">
    <use xlink:href="#rim" fill="#404040"><set attributeName="fill" to="#808080" begin="zoomminus.mouseover" end="zoomminus.mouseout"/></use>
    <path d="M-4,0h8" fill="none" stroke="white" stroke-width="1.5" pointer-events="none"/>
  </g>
  <g id="arrowUp" transform="translate(30 24)">
    <use xlink:href="#rim"/>
    <path pointer-events="none" fill="none" stroke="white" stroke-width="1.5" d="M0,-3.0v7 M-2.5,-0.5L0,-3.0L2.5,-0.5"/>
  </g>
  <g id="arrowRight" transform="rotate(90) translate(36 -43)">
    <use xlink:href="#rim"/>
    <path pointer-events="none" fill="none" stroke="white" stroke-width="1.5" d="M0,-3.0v7 M-2.5,-0.5L0,-3.0L2.5,-0.5"/>
  </g>
  <g id="arrowDown" transform="rotate(180) translate(-30 -48)">
    <use xlink:href="#rim"/>
    <path pointer-events="none" fill="none" stroke="white" stroke-width="1.5" d="M0,-3.0v7 M-2.5,-0.5L0,-3.0L2.5,-0.5"/>
  </g>
  <g id="arrowLeft" transform="rotate(270) translate(-36 17)">
    <use xlink:href="#rim"/>
    <path pointer-events="none" fill="none" stroke="white" stroke-width="1.5" d="M0,-3.0v7 M-2.5,-0.5L0,-3.0L2.5,-0.5"/>
  </g>
  <g id="resetDef">
    <use xlink:href="#rim2" fill="#404040"><set attributeName="fill" to="#808080" begin="reset.mouseover" end="reset.mouseout"/></use>
  </g>
</defs>
<script type="application/ecmascript">
var viewWidth = 591;
var viewHeight = 137;
var sectionId = 'dynsection-1';
</script>
<script type="application/ecmascript" xlink:href="svg.min.js"/>
<svg id="graph" class="graph">
<g id="viewport">
<title>ev&#45;window.h</title>
<!-- Node1 -->
<g id="Node000001" class="node">
<title>Node1</title>
<g id="a_Node000001"><a xlink:title=" ">
<polygon fill="#999999" stroke="#666666" points="314.5,-129 240.5,-129 240.5,-110 314.5,-110 314.5,-129"/>
<text text-anchor="middle" x="277.5" y="-117" font-family="Inter" font-size="10.00">ev&#45;window.h</text>
</a>
</g>
</g>
<!-- Node2 -->
<g id="Node000002" class="node">
<title>Node2</title>
<g id="a_Node000002"><a xlink:href="ev-application_8h.html" target="_top" xlink:title=" ">
<polygon fill="white" stroke="#666666" points="173,-74 84,-74 84,-55 173,-55 173,-74"/>
<text text-anchor="middle" x="128.5" y="-62" font-family="Inter" font-size="10.00">ev&#45;application.h</text>
</a>
</g>
</g>
<!-- Node1&#45;&gt;Node2 -->
<g id="edge1_Node000001_Node000002" class="edge">
<title>Node1&#45;&gt;Node2</title>
<g id="a_edge1_Node000001_Node000002"><a xlink:title=" ">
<path fill="none" stroke="#63b8ff" d="M243.91,-106.55C216.24,-96.71 177.66,-82.98 152.88,-74.17"/>
<polygon fill="#63b8ff" stroke="#63b8ff" points="242.97,-109.93 253.56,-109.98 245.31,-103.34 242.97,-109.93"/>
</a>
</g>
</g>
<!-- Node4 -->
<g id="Node000004" class="node">
<title>Node4</title>
<g id="a_Node000004"><a xlink:href="ev-window_8c.html" target="_top" xlink:title=" ">
<polygon fill="white" stroke="#666666" points="243,-19 170,-19 170,0 243,0 243,-19"/>
<text text-anchor="middle" x="206.5" y="-7" font-family="Inter" font-size="10.00">ev&#45;window.c</text>
</a>
</g>
</g>
<!-- Node1&#45;&gt;Node4 -->
<g id="edge10_Node000001_Node000004" class="edge">
<title>Node1&#45;&gt;Node4</title>
<g id="a_edge10_Node000001_Node000004"><a xlink:title=" ">
<path fill="none" stroke="#63b8ff" d="M252.43,-104.49C241.04,-96.89 228.37,-86.49 220.5,-74 209.66,-56.81 207.14,-32.4 206.6,-19.42"/>
<polygon fill="#63b8ff" stroke="#63b8ff" points="250.85,-107.63 261.18,-109.97 254.56,-101.7 250.85,-107.63"/>
</a>
</g>
</g>
<!-- Node6 -->
<g id="Node000006" class="node">
<title>Node6</title>
<g id="a_Node000006"><a xlink:href="ev-sidebar-links_8c.html" target="_top" xlink:title=" ">
<polygon fill="white" stroke="#666666" points="325,-74 230,-74 230,-55 325,-55 325,-74"/>
<text text-anchor="middle" x="277.5" y="-62" font-family="Inter" font-size="10.00">ev&#45;sidebar&#45;links.c</text>
</a>
</g>
</g>
<!-- Node1&#45;&gt;Node6 -->
<g id="edge5_Node000001_Node000006" class="edge">
<title>Node1&#45;&gt;Node6</title>
<g id="a_edge5_Node000001_Node000006"><a xlink:title=" ">
<path fill="none" stroke="#63b8ff" d="M277.5,-99.66C277.5,-90.93 277.5,-80.99 277.5,-74.09"/>
<polygon fill="#63b8ff" stroke="#63b8ff" points="274,-99.75 277.5,-109.75 281,-99.75 274,-99.75"/>
</a>
</g>
</g>
<!-- Node7 -->
<g id="Node000007" class="node">
<title>Node7</title>
<g id="a_Node000007"><a xlink:href="ev-sidebar-thumbnails_8c.html" target="_top" xlink:title=" ">
<polygon fill="white" stroke="#666666" points="469.5,-74 343.5,-74 343.5,-55 469.5,-55 469.5,-74"/>
<text text-anchor="middle" x="406.5" y="-62" font-family="Inter" font-size="10.00">ev&#45;sidebar&#45;thumbnails.c</text>
</a>
</g>
</g>
<!-- Node1&#45;&gt;Node7 -->
<g id="edge6_Node000001_Node000007" class="edge">
<title>Node1&#45;&gt;Node7</title>
<g id="a_edge6_Node000001_Node000007"><a xlink:title=" ">
<path fill="none" stroke="#63b8ff" d="M307.54,-106.16C331.42,-96.35 364.22,-82.87 385.4,-74.17"/>
<polygon fill="#63b8ff" stroke="#63b8ff" points="306.15,-102.95 298.23,-109.98 308.81,-109.42 306.15,-102.95"/>
</a>
</g>
</g>
<!-- Node8 -->
<g id="Node000008" class="node">
<title>Node8</title>
<g id="a_Node000008"><a xlink:href="ev-window-title_8h.html" target="_top" xlink:title=" ">
<polygon fill="white" stroke="#666666" points="583,-74 488,-74 488,-55 583,-55 583,-74"/>
<text text-anchor="middle" x="535.5" y="-62" font-family="Inter" font-size="10.00">ev&#45;window&#45;title.h</text>
</a>
</g>
</g>
<!-- Node1&#45;&gt;Node8 -->
<g id="edge7_Node000001_Node000008" class="edge">
<title>Node1&#45;&gt;Node8</title>
<g id="a_edge7_Node000001_Node000008"><a xlink:title=" ">
<path fill="none" stroke="#63b8ff" d="M324.66,-108.81C373.09,-98.86 447.74,-83.53 494,-74.03"/>
<polygon fill="#63b8ff" stroke="#63b8ff" points="323.83,-105.41 314.74,-110.85 325.24,-112.27 323.83,-105.41"/>
</a>
</g>
</g>
<!-- Node3 -->
<g id="Node000003" class="node">
<title>Node3</title>
<g id="a_Node000003"><a xlink:href="ev-application_8c.html" target="_top" xlink:title=" ">
<polygon fill="white" stroke="#666666" points="87,-19 0,-19 0,0 87,0 87,-19"/>
<text text-anchor="middle" x="43.5" y="-7" font-family="Inter" font-size="10.00">ev&#45;application.c</text>
</a>
</g>
</g>
<!-- Node2&#45;&gt;Node3 -->
<g id="edge2_Node000002_Node000003" class="edge">
<title>Node2&#45;&gt;Node3</title>
<g id="a_edge2_Node000002_Node000003"><a xlink:title=" ">
<path fill="none" stroke="#63b8ff" d="M105.93,-49.42C90.5,-39.81 70.55,-27.37 57.41,-19.17"/>
<polygon fill="#63b8ff" stroke="#63b8ff" points="104.51,-52.66 114.84,-54.98 108.21,-46.72 104.51,-52.66"/>
</a>
</g>
</g>
<!-- Node2&#45;&gt;Node4 -->
<g id="edge3_Node000002_Node000004" class="edge">
<title>Node2&#45;&gt;Node4</title>
<g id="a_edge3_Node000002_Node000004"><a xlink:title=" ">
<path fill="none" stroke="#63b8ff" d="M149.62,-49.15C163.71,-39.57 181.79,-27.29 193.74,-19.17"/>
<polygon fill="#63b8ff" stroke="#63b8ff" points="147.34,-46.47 141.03,-54.98 151.27,-52.26 147.34,-46.47"/>
</a>
</g>
</g>
<!-- Node5 -->
<g id="Node000005" class="node">
<title>Node5</title>
<g id="a_Node000005"><a xlink:href="atril_2shell_2main_8c.html" target="_top" xlink:title=" ">
<polygon fill="white" stroke="#666666" points="152,-19 105,-19 105,0 152,0 152,-19"/>
<text text-anchor="middle" x="128.5" y="-7" font-family="Inter" font-size="10.00">main.c</text>
</a>
</g>
</g>
<!-- Node2&#45;&gt;Node5 -->
<g id="edge4_Node000002_Node000005" class="edge">
<title>Node2&#45;&gt;Node5</title>
<g id="a_edge4_Node000002_Node000005"><a xlink:title=" ">
<path fill="none" stroke="#63b8ff" d="M128.5,-44.66C128.5,-35.93 128.5,-25.99 128.5,-19.09"/>
<polygon fill="#63b8ff" stroke="#63b8ff" points="125,-44.75 128.5,-54.75 132,-44.75 125,-44.75"/>
</a>
</g>
</g>
<!-- Node8&#45;&gt;Node4 -->
<g id="edge9_Node000008_Node000004" class="edge">
<title>Node8&#45;&gt;Node4</title>
<g id="a_edge9_Node000008_Node000004"><a xlink:title=" ">
<path fill="none" stroke="#63b8ff" d="M477.59,-54.17C409.94,-43.27 300.06,-25.57 243.2,-16.41"/>
<polygon fill="#63b8ff" stroke="#63b8ff" points="477.23,-57.66 487.66,-55.79 478.34,-50.75 477.23,-57.66"/>
</a>
</g>
</g>
<!-- Node9 -->
<g id="Node000009" class="node">
<title>Node9</title>
<g id="a_Node000009"><a xlink:href="ev-window-title_8c.html" target="_top" xlink:title=" ">
<polygon fill="white" stroke="#666666" points="582.5,-19 488.5,-19 488.5,0 582.5,0 582.5,-19"/>
<text text-anchor="middle" x="535.5" y="-7" font-family="Inter" font-size="10.00">ev&#45;window&#45;title.c</text>
</a>
</g>
</g>
<!-- Node8&#45;&gt;Node9 -->
<g id="edge8_Node000008_Node000009" class="edge">
<title>Node8&#45;&gt;Node9</title>
<g id="a_edge8_Node000008_Node000009"><a xlink:title=" ">
<path fill="none" stroke="#63b8ff" d="M535.5,-44.66C535.5,-35.93 535.5,-25.99 535.5,-19.09"/>
<polygon fill="#63b8ff" stroke="#63b8ff" points="532,-44.75 535.5,-54.75 539,-44.75 532,-44.75"/>
</a>
</g>
</g>
</g>
</svg>

<g id="navigator" transform="translate(0 0)" fill="#404254">
  <rect fill="#f2f5e9" fill-opacity="0.5" stroke="#606060" stroke-width=".5" x="0" y="0" width="60" height="60"/>
  <use id="zoomplus" xlink:href="#zoomPlus" x="17" y="9" onmousedown="handleZoom(evt,'in')"/>
  <use id="zoomminus" xlink:href="#zoomMin" x="42" y="9" onmousedown="handleZoom(evt,'out')"/>
  <use id="reset" xlink:href="#resetDef" x="30" y="36" onmousedown="handleReset()"/>
   <use id="arrowup" xlink:href="#arrowUp" x="0" y="0" onmousedown="handlePan(0,-1)"/>
  <use id="arrowright" xlink:href="#arrowRight" x="0" y="0" onmousedown="handlePan(1,0)"/>
  <use id="arrowdown" xlink:href="#arrowDown" x="0" y="0" onmousedown="handlePan(0,1)"/>
  <use id="arrowleft" xlink:href="#arrowLeft" x="0" y="0" onmousedown="handlePan(-1,0)"/>
</g>
<svg viewBox="0 0 15 15" width="100%" height="30px" preserveAspectRatio="xMaxYMin meet">
 <g id="arrow_out" transform="scale(0.3 0.3)">
  <a xlink:href="ev-window_8h__dep__incl_org.svg" target="_base">
   <rect id="button" ry="5" rx="5" y="6" x="6" height="38" width="38"
        fill="#f2f5e9" fill-opacity="0.5" stroke="#606060" stroke-width="1.0"/>
   <path id="arrow"
     d="M 11.500037,31.436501 C 11.940474,20.09759 22.043105,11.32322 32.158766,21.979434 L 37.068811,17.246167 C 37.068811,17.246167 37.088388,32 37.088388,32 L 22.160133,31.978069 C 22.160133,31.978069 26.997745,27.140456 26.997745,27.140456 C 18.528582,18.264221 13.291696,25.230495 11.500037,31.436501 z"
     style="fill:#404040;"/>
  </a>
 </g>
</svg>

<style type='text/css'>
<![CDATA[
[data-mouse-over-selected='false'] { opacity: 0.7; }
[data-mouse-over-selected='true']  { opacity: 1.0; }
]]>
</style>
<script type="application/ecmascript"><![CDATA[
document.addEventListener('DOMContentLoaded', (event) => {
  highlightEdges();
  highlightAdjacentNodes();
});
]]></script>
</svg>
