<?xml version="1.0" encoding="UTF-8" standalone="no"?>
<!DOCTYPE svg PUBLIC "-//W3C//DTD SVG 1.1//EN"
 "http://www.w3.org/Graphics/SVG/1.1/DTD/svg11.dtd">
<!-- Generated by graphviz version 2.43.0 (0)
 -->
<!-- Title: fm&#45;icon&#45;view.h Pages: 1 -->
<!--zoomable 148 -->

<svg id="main" version="1.1" xmlns="http://www.w3.org/2000/svg" xmlns:xlink="http://www.w3.org/1999/xlink" xml:space="preserve" onload="init(evt)">

<style type="text/css"><![CDATA[
.node, .edge {opacity: 0.7;}
.node.selected, .edge.selected {opacity: 1;}
.edge:hover path { stroke: red; }
.edge:hover polygon { stroke: red; fill: red; }
]]></style>

<defs>
  <circle id="rim" cx="0" cy="0" r="7"/>
  <circle id="rim2" cx="0" cy="0" r="3.5"/>
  <g id="zoomPlus">
    <use xlink:href="#rim" fill="#404040"><set attributeName="fill" to="#808080" begin="zoomplus.mouseover" end="zoomplus.mouseout"/></use>
    <path d="M-4,0h8M0,-4v8" fill="none" stroke="white" stroke-width="1.5" pointer-events="none"/>
  </g>
  <g id="zoomMin">
    <use xlink:href="#rim" fill="#404040"><set attributeName="fill" to="#808080" begin="zoomminus.mouseover" end="zoomminus.mouseout"/></use>
    <path d="M-4,0h8" fill="none" stroke="white" stroke-width="1.5" pointer-events="none"/>
  </g>
  <g id="arrowUp" transform="translate(30 24)">
    <use xlink:href="#rim"/>
    <path pointer-events="none" fill="none" stroke="white" stroke-width="1.5" d="M0,-3.0v7 M-2.5,-0.5L0,-3.0L2.5,-0.5"/>
  </g>
  <g id="arrowRight" transform="rotate(90) translate(36 -43)">
    <use xlink:href="#rim"/>
    <path pointer-events="none" fill="none" stroke="white" stroke-width="1.5" d="M0,-3.0v7 M-2.5,-0.5L0,-3.0L2.5,-0.5"/>
  </g>
  <g id="arrowDown" transform="rotate(180) translate(-30 -48)">
    <use xlink:href="#rim"/>
    <path pointer-events="none" fill="none" stroke="white" stroke-width="1.5" d="M0,-3.0v7 M-2.5,-0.5L0,-3.0L2.5,-0.5"/>
  </g>
  <g id="arrowLeft" transform="rotate(270) translate(-36 17)">
    <use xlink:href="#rim"/>
    <path pointer-events="none" fill="none" stroke="white" stroke-width="1.5" d="M0,-3.0v7 M-2.5,-0.5L0,-3.0L2.5,-0.5"/>
  </g>
  <g id="resetDef">
    <use xlink:href="#rim2" fill="#404040"><set attributeName="fill" to="#808080" begin="reset.mouseover" end="reset.mouseout"/></use>
  </g>
</defs>
<script type="application/ecmascript">
var viewWidth = 716;
var viewHeight = 148;
var sectionId = 'dynsection-1';
</script>
<script type="application/ecmascript" xlink:href="svg.min.js"/>
<svg id="graph" class="graph">
<g id="viewport">
<title>fm&#45;icon&#45;view.h</title>
<!-- Node1 -->
<g id="Node000001" class="node">
<title>Node1</title>
<g id="a_Node000001"><a xlink:title=" ">
<polygon fill="#999999" stroke="#666666" points="405.5,-140 322.5,-140 322.5,-121 405.5,-121 405.5,-140"/>
<text text-anchor="middle" x="364" y="-128" font-family="Inter" font-size="10.00">fm&#45;icon&#45;view.h</text>
</a>
</g>
</g>
<!-- Node2 -->
<g id="Node000002" class="node">
<title>Node2</title>
<g id="a_Node000002"><a xlink:href="caja-application_8c.html" target="_top" xlink:title=" ">
<polygon fill="white" stroke="#666666" points="94,-24.5 0,-24.5 0,-5.5 94,-5.5 94,-24.5"/>
<text text-anchor="middle" x="47" y="-12.5" font-family="Inter" font-size="10.00">caja&#45;application.c</text>
</a>
</g>
</g>
<!-- Node1&#45;&gt;Node2 -->
<g id="edge1_Node000001_Node000002" class="edge">
<title>Node1&#45;&gt;Node2</title>
<g id="a_edge1_Node000001_Node000002"><a xlink:title=" ">
<path fill="none" stroke="#63b8ff" d="M326.64,-117.94C299,-109.25 260.49,-96.85 227,-85 169.1,-64.52 101.72,-37.95 68.2,-24.54"/>
<polygon fill="#63b8ff" stroke="#63b8ff" points="325.72,-121.32 336.31,-120.97 327.81,-114.64 325.72,-121.32"/>
</a>
</g>
</g>
<!-- Node3 -->
<g id="Node000003" class="node">
<title>Node3</title>
<g id="a_Node000003"><a xlink:href="fm-desktop-icon-view_8h.html" target="_top" xlink:title=" ">
<polygon fill="white" stroke="#666666" points="360,-85 236,-85 236,-66 360,-66 360,-85"/>
<text text-anchor="middle" x="298" y="-73" font-family="Inter" font-size="10.00">fm&#45;desktop&#45;icon&#45;view.h</text>
</a>
</g>
</g>
<!-- Node1&#45;&gt;Node3 -->
<g id="edge2_Node000001_Node000003" class="edge">
<title>Node1&#45;&gt;Node3</title>
<g id="a_edge2_Node000001_Node000003"><a xlink:title=" ">
<path fill="none" stroke="#63b8ff" d="M345.45,-114.6C333.62,-105.11 318.71,-93.13 308.8,-85.17"/>
<polygon fill="#63b8ff" stroke="#63b8ff" points="343.41,-117.45 353.4,-120.98 347.79,-111.99 343.41,-117.45"/>
</a>
</g>
</g>
<!-- Node7 -->
<g id="Node000007" class="node">
<title>Node7</title>
<g id="a_Node000007"><a xlink:href="fm-icon-view_8c.html" target="_top" xlink:title=" ">
<polygon fill="white" stroke="#666666" points="586,-24.5 504,-24.5 504,-5.5 586,-5.5 586,-24.5"/>
<text text-anchor="middle" x="545" y="-12.5" font-family="Inter" font-size="10.00">fm&#45;icon&#45;view.c</text>
</a>
</g>
</g>
<!-- Node1&#45;&gt;Node7 -->
<g id="edge12_Node000001_Node000007" class="edge">
<title>Node1&#45;&gt;Node7</title>
<g id="a_edge12_Node000001_Node000007"><a xlink:title=" ">
<path fill="none" stroke="#63b8ff" d="M415.87,-124.46C446.82,-119.09 485.18,-107.98 512,-85 530.96,-68.76 539.87,-39.16 543.26,-24.58"/>
<polygon fill="#63b8ff" stroke="#63b8ff" points="415.01,-121.06 405.68,-126.08 416.11,-127.97 415.01,-121.06"/>
</a>
</g>
</g>
<!-- Node8 -->
<g id="Node000008" class="node">
<title>Node8</title>
<g id="a_Node000008"><a xlink:href="fm-icon-container_8h.html" target="_top" xlink:title=" ">
<polygon fill="white" stroke="#666666" points="502.5,-85 397.5,-85 397.5,-66 502.5,-66 502.5,-85"/>
<text text-anchor="middle" x="450" y="-73" font-family="Inter" font-size="10.00">fm&#45;icon&#45;container.h</text>
</a>
</g>
</g>
<!-- Node1&#45;&gt;Node8 -->
<g id="edge8_Node000001_Node000008" class="edge">
<title>Node1&#45;&gt;Node8</title>
<g id="a_edge8_Node000001_Node000008"><a xlink:title=" ">
<path fill="none" stroke="#63b8ff" d="M386.4,-115.7C402.07,-106.04 422.51,-93.44 435.93,-85.17"/>
<polygon fill="#63b8ff" stroke="#63b8ff" points="384.49,-112.76 377.82,-120.98 388.17,-118.72 384.49,-112.76"/>
</a>
</g>
</g>
<!-- Node3&#45;&gt;Node2 -->
<g id="edge3_Node000003_Node000002" class="edge">
<title>Node3&#45;&gt;Node2</title>
<g id="a_edge3_Node000003_Node000002"><a xlink:title=" ">
<path fill="none" stroke="#63b8ff" d="M249.57,-63.74C210.08,-54.89 152.86,-41.92 103,-30 95.79,-28.28 88.07,-26.38 80.73,-24.55"/>
<polygon fill="#63b8ff" stroke="#63b8ff" points="248.94,-67.19 259.47,-65.95 250.47,-60.35 248.94,-67.19"/>
</a>
</g>
</g>
<!-- Node4 -->
<g id="Node000004" class="node">
<title>Node4</title>
<g id="a_Node000004"><a xlink:href="fm-desktop-icon-view_8c.html" target="_top" xlink:title=" ">
<polygon fill="white" stroke="#666666" points="486,-24.5 364,-24.5 364,-5.5 486,-5.5 486,-24.5"/>
<text text-anchor="middle" x="425" y="-12.5" font-family="Inter" font-size="10.00">fm&#45;desktop&#45;icon&#45;view.c</text>
</a>
</g>
</g>
<!-- Node3&#45;&gt;Node4 -->
<g id="edge4_Node000003_Node000004" class="edge">
<title>Node3&#45;&gt;Node4</title>
<g id="a_edge4_Node000003_Node000004"><a xlink:title=" ">
<path fill="none" stroke="#63b8ff" d="M325.61,-61.78C350.12,-50.49 385.24,-34.31 406.51,-24.52"/>
<polygon fill="#63b8ff" stroke="#63b8ff" points="324.09,-58.63 316.47,-65.99 327.01,-64.99 324.09,-58.63"/>
</a>
</g>
</g>
<!-- Node5 -->
<g id="Node000005" class="node">
<title>Node5</title>
<g id="a_Node000005"><a xlink:href="fm-desktop-wayland-bg-dialog_8c.html" target="_top" xlink:title=" ">
<polygon fill="white" stroke="#666666" points="222,-30 112,-30 112,0 222,0 222,-30"/>
<text text-anchor="start" x="120" y="-18" font-family="Inter" font-size="10.00">fm&#45;desktop&#45;wayland</text>
<text text-anchor="middle" x="167" y="-7" font-family="Inter" font-size="10.00">&#45;bg&#45;dialog.c</text>
</a>
</g>
</g>
<!-- Node3&#45;&gt;Node5 -->
<g id="edge5_Node000003_Node000005" class="edge">
<title>Node3&#45;&gt;Node5</title>
<g id="a_edge5_Node000003_Node000005"><a xlink:title=" ">
<path fill="none" stroke="#63b8ff" d="M269.62,-61.83C248.67,-52.47 220.15,-39.74 198.49,-30.06"/>
<polygon fill="#63b8ff" stroke="#63b8ff" points="268.39,-65.11 278.95,-65.99 271.25,-58.72 268.39,-65.11"/>
</a>
</g>
</g>
<!-- Node6 -->
<g id="Node000006" class="node">
<title>Node6</title>
<g id="a_Node000006"><a xlink:href="fm-directory-view_8c.html" target="_top" xlink:title=" ">
<polygon fill="white" stroke="#666666" points="345.5,-24.5 240.5,-24.5 240.5,-5.5 345.5,-5.5 345.5,-24.5"/>
<text text-anchor="middle" x="293" y="-12.5" font-family="Inter" font-size="10.00">fm&#45;directory&#45;view.c</text>
</a>
</g>
</g>
<!-- Node3&#45;&gt;Node6 -->
<g id="edge6_Node000003_Node000006" class="edge">
<title>Node3&#45;&gt;Node6</title>
<g id="a_edge6_Node000003_Node000006"><a xlink:title=" ">
<path fill="none" stroke="#63b8ff" d="M296.39,-55.66C295.5,-45.24 294.44,-32.8 293.74,-24.67"/>
<polygon fill="#63b8ff" stroke="#63b8ff" points="292.92,-56.2 297.26,-65.87 299.9,-55.61 292.92,-56.2"/>
</a>
</g>
</g>
<!-- Node3&#45;&gt;Node7 -->
<g id="edge7_Node000003_Node000007" class="edge">
<title>Node3&#45;&gt;Node7</title>
<g id="a_edge7_Node000003_Node000007"><a xlink:title=" ">
<path fill="none" stroke="#63b8ff" d="M348.53,-63.83C388.42,-55.22 445.43,-42.53 495,-30 501.64,-28.32 508.75,-26.41 515.45,-24.54"/>
<polygon fill="#63b8ff" stroke="#63b8ff" points="347.56,-60.46 338.51,-65.98 349.03,-67.3 347.56,-60.46"/>
</a>
</g>
</g>
<!-- Node8&#45;&gt;Node4 -->
<g id="edge9_Node000008_Node000004" class="edge">
<title>Node8&#45;&gt;Node4</title>
<g id="a_edge9_Node000008_Node000004"><a xlink:title=" ">
<path fill="none" stroke="#63b8ff" d="M442.37,-56.65C437.84,-46.04 432.29,-33.06 428.7,-24.67"/>
<polygon fill="#63b8ff" stroke="#63b8ff" points="439.16,-58.05 446.31,-65.87 445.6,-55.3 439.16,-58.05"/>
</a>
</g>
</g>
<!-- Node8&#45;&gt;Node7 -->
<g id="edge11_Node000008_Node000007" class="edge">
<title>Node8&#45;&gt;Node7</title>
<g id="a_edge11_Node000008_Node000007"><a xlink:title=" ">
<path fill="none" stroke="#63b8ff" d="M472.79,-60.47C490.88,-49.32 515.61,-34.1 530.92,-24.67"/>
<polygon fill="#63b8ff" stroke="#63b8ff" points="470.7,-57.64 464.02,-65.87 474.37,-63.6 470.7,-57.64"/>
</a>
</g>
</g>
<!-- Node9 -->
<g id="Node000009" class="node">
<title>Node9</title>
<g id="a_Node000009"><a xlink:href="fm-icon-container_8c.html" target="_top" xlink:title=" ">
<polygon fill="white" stroke="#666666" points="708,-24.5 604,-24.5 604,-5.5 708,-5.5 708,-24.5"/>
<text text-anchor="middle" x="656" y="-12.5" font-family="Inter" font-size="10.00">fm&#45;icon&#45;container.c</text>
</a>
</g>
</g>
<!-- Node8&#45;&gt;Node9 -->
<g id="edge10_Node000008_Node000009" class="edge">
<title>Node8&#45;&gt;Node9</title>
<g id="a_edge10_Node000008_Node000009"><a xlink:title=" ">
<path fill="none" stroke="#63b8ff" d="M489.61,-63.25C529.45,-51.94 589.99,-34.75 626.01,-24.52"/>
<polygon fill="#63b8ff" stroke="#63b8ff" points="488.62,-59.89 479.95,-65.99 490.53,-66.63 488.62,-59.89"/>
</a>
</g>
</g>
</g>
</svg>

<g id="navigator" transform="translate(0 0)" fill="#404254">
  <rect fill="#f2f5e9" fill-opacity="0.5" stroke="#606060" stroke-width=".5" x="0" y="0" width="60" height="60"/>
  <use id="zoomplus" xlink:href="#zoomPlus" x="17" y="9" onmousedown="handleZoom(evt,'in')"/>
  <use id="zoomminus" xlink:href="#zoomMin" x="42" y="9" onmousedown="handleZoom(evt,'out')"/>
  <use id="reset" xlink:href="#resetDef" x="30" y="36" onmousedown="handleReset()"/>
   <use id="arrowup" xlink:href="#arrowUp" x="0" y="0" onmousedown="handlePan(0,-1)"/>
  <use id="arrowright" xlink:href="#arrowRight" x="0" y="0" onmousedown="handlePan(1,0)"/>
  <use id="arrowdown" xlink:href="#arrowDown" x="0" y="0" onmousedown="handlePan(0,1)"/>
  <use id="arrowleft" xlink:href="#arrowLeft" x="0" y="0" onmousedown="handlePan(-1,0)"/>
</g>
<svg viewBox="0 0 15 15" width="100%" height="30px" preserveAspectRatio="xMaxYMin meet">
 <g id="arrow_out" transform="scale(0.3 0.3)">
  <a xlink:href="fm-icon-view_8h__dep__incl_org.svg" target="_base">
   <rect id="button" ry="5" rx="5" y="6" x="6" height="38" width="38"
        fill="#f2f5e9" fill-opacity="0.5" stroke="#606060" stroke-width="1.0"/>
   <path id="arrow"
     d="M 11.500037,31.436501 C 11.940474,20.09759 22.043105,11.32322 32.158766,21.979434 L 37.068811,17.246167 C 37.068811,17.246167 37.088388,32 37.088388,32 L 22.160133,31.978069 C 22.160133,31.978069 26.997745,27.140456 26.997745,27.140456 C 18.528582,18.264221 13.291696,25.230495 11.500037,31.436501 z"
     style="fill:#404040;"/>
  </a>
 </g>
</svg>

<style type='text/css'>
<![CDATA[
[data-mouse-over-selected='false'] { opacity: 0.7; }
[data-mouse-over-selected='true']  { opacity: 1.0; }
]]>
</style>
<script type="application/ecmascript"><![CDATA[
document.addEventListener('DOMContentLoaded', (event) => {
  highlightEdges();
  highlightAdjacentNodes();
});
]]></script>
</svg>
