<?xml version="1.0" encoding="UTF-8" standalone="no"?>
<!DOCTYPE svg PUBLIC "-//W3C//DTD SVG 1.1//EN"
 "http://www.w3.org/Graphics/SVG/1.1/DTD/svg11.dtd">
<!-- Generated by graphviz version 2.43.0 (0)
 -->
<!-- Title: fm&#45;list&#45;view.h Pages: 1 -->
<svg width="320pt" height="82pt"
 viewBox="0.00 0.00 320.00 82.00" xmlns="http://www.w3.org/2000/svg" xmlns:xlink="http://www.w3.org/1999/xlink">
<g id="graph0" class="graph" transform="scale(1 1) rotate(0) translate(4 78)">
<title>fm&#45;list&#45;view.h</title>
<!-- Node1 -->
<g id="Node000001" class="node">
<title>Node1</title>
<g id="a_Node000001"><a xlink:title=" ">
<polygon fill="#999999" stroke="#666666" points="203.5,-74 126.5,-74 126.5,-55 203.5,-55 203.5,-74"/>
<text text-anchor="middle" x="165" y="-62" font-family="Inter" font-size="10.00">fm&#45;list&#45;view.h</text>
</a>
</g>
</g>
<!-- Node2 -->
<g id="Node000002" class="node">
<title>Node2</title>
<g id="a_Node000002"><a xlink:href="caja-application_8c.html" target="_top" xlink:title=" ">
<polygon fill="white" stroke="#666666" points="94,-19 0,-19 0,0 94,0 94,-19"/>
<text text-anchor="middle" x="47" y="-7" font-family="Inter" font-size="10.00">caja&#45;application.c</text>
</a>
</g>
</g>
<!-- Node1&#45;&gt;Node2 -->
<g id="edge1_Node000001_Node000002" class="edge">
<title>Node1&#45;&gt;Node2</title>
<g id="a_edge1_Node000001_Node000002"><a xlink:title=" ">
<path fill="none" stroke="#63b8ff" d="M136.65,-50.77C114.88,-40.99 85.41,-27.75 66.3,-19.17"/>
<polygon fill="#63b8ff" stroke="#63b8ff" points="135.49,-54.08 146.04,-54.98 138.35,-47.69 135.49,-54.08"/>
</a>
</g>
</g>
<!-- Node3 -->
<g id="Node000003" class="node">
<title>Node3</title>
<g id="a_Node000003"><a xlink:href="fm-directory-view_8c.html" target="_top" xlink:title=" ">
<polygon fill="white" stroke="#666666" points="217.5,-19 112.5,-19 112.5,0 217.5,0 217.5,-19"/>
<text text-anchor="middle" x="165" y="-7" font-family="Inter" font-size="10.00">fm&#45;directory&#45;view.c</text>
</a>
</g>
</g>
<!-- Node1&#45;&gt;Node3 -->
<g id="edge2_Node000001_Node000003" class="edge">
<title>Node1&#45;&gt;Node3</title>
<g id="a_edge2_Node000001_Node000003"><a xlink:title=" ">
<path fill="none" stroke="#63b8ff" d="M165,-44.66C165,-35.93 165,-25.99 165,-19.09"/>
<polygon fill="#63b8ff" stroke="#63b8ff" points="161.5,-44.75 165,-54.75 168.5,-44.75 161.5,-44.75"/>
</a>
</g>
</g>
<!-- Node4 -->
<g id="Node000004" class="node">
<title>Node4</title>
<g id="a_Node000004"><a xlink:href="fm-list-view_8c.html" target="_top" xlink:title=" ">
<polygon fill="white" stroke="#666666" points="312,-19 236,-19 236,0 312,0 312,-19"/>
<text text-anchor="middle" x="274" y="-7" font-family="Inter" font-size="10.00">fm&#45;list&#45;view.c</text>
</a>
</g>
</g>
<!-- Node1&#45;&gt;Node4 -->
<g id="edge3_Node000001_Node000004" class="edge">
<title>Node1&#45;&gt;Node4</title>
<g id="a_edge3_Node000001_Node000004"><a xlink:title=" ">
<path fill="none" stroke="#63b8ff" d="M191.73,-50.5C211.79,-40.75 238.68,-27.68 256.17,-19.17"/>
<polygon fill="#63b8ff" stroke="#63b8ff" points="189.98,-47.46 182.51,-54.98 193.04,-53.76 189.98,-47.46"/>
</a>
</g>
</g>
</g>
</svg>
