<?xml version="1.0" encoding="UTF-8" standalone="no"?>
<!DOCTYPE svg PUBLIC "-//W3C//DTD SVG 1.1//EN"
 "http://www.w3.org/Graphics/SVG/1.1/DTD/svg11.dtd">
<!-- Generated by graphviz version 2.43.0 (0)
 -->
<!-- Title: fr&#45;command&#45;jar.h Pages: 1 -->
<svg width="194pt" height="247pt"
 viewBox="0.00 0.00 193.50 247.00" xmlns="http://www.w3.org/2000/svg" xmlns:xlink="http://www.w3.org/1999/xlink">
<g id="graph0" class="graph" transform="scale(1 1) rotate(0) translate(4 243)">
<title>fr&#45;command&#45;jar.h</title>
<!-- Node1 -->
<g id="Node000001" class="node">
<title>Node1</title>
<g id="a_Node000001"><a xlink:title=" ">
<polygon fill="#999999" stroke="#666666" points="95,-239 0,-239 0,-220 95,-220 95,-239"/>
<text text-anchor="middle" x="47.5" y="-227" font-family="Inter" font-size="10.00">fr&#45;command&#45;jar.h</text>
</a>
</g>
</g>
<!-- Node2 -->
<g id="Node000002" class="node">
<title>Node2</title>
<g id="a_Node000002"><a xlink:title=" ">
<polygon fill="#e0e0e0" stroke="#999999" points="87.5,-19 45.5,-19 45.5,0 87.5,0 87.5,-19"/>
<text text-anchor="middle" x="66.5" y="-7" font-family="Inter" font-size="10.00">glib.h</text>
</a>
</g>
</g>
<!-- Node1&#45;&gt;Node2 -->
<g id="edge1_Node000001_Node000002" class="edge">
<title>Node1&#45;&gt;Node2</title>
<g id="a_edge1_Node000001_Node000002"><a xlink:title=" ">
<path fill="none" stroke="#63b8ff" d="M46.51,-219.98C45.52,-211.04 44.06,-196.55 43.5,-184 40.92,-126.48 45.45,-111.7 55.5,-55 57.03,-46.38 59.27,-36.95 61.34,-29"/>
<polygon fill="#63b8ff" stroke="#63b8ff" points="64.73,-29.86 63.96,-19.29 57.97,-28.03 64.73,-29.86"/>
</a>
</g>
</g>
<!-- Node3 -->
<g id="Node000003" class="node">
<title>Node3</title>
<g id="a_Node000003"><a xlink:href="fr-command-zip_8h.html" target="_top" xlink:title=" ">
<polygon fill="white" stroke="#666666" points="150.5,-184 52.5,-184 52.5,-165 150.5,-165 150.5,-184"/>
<text text-anchor="middle" x="101.5" y="-172" font-family="Inter" font-size="10.00">fr&#45;command&#45;zip.h</text>
</a>
</g>
</g>
<!-- Node1&#45;&gt;Node3 -->
<g id="edge2_Node000001_Node000003" class="edge">
<title>Node1&#45;&gt;Node3</title>
<g id="a_edge2_Node000001_Node000003"><a xlink:title=" ">
<path fill="none" stroke="#63b8ff" d="M56.42,-219.75C64.28,-212.03 75.93,-200.6 85.42,-191.28"/>
<polygon fill="#63b8ff" stroke="#63b8ff" points="88.06,-193.59 92.75,-184.09 83.16,-188.6 88.06,-193.59"/>
</a>
</g>
</g>
<!-- Node3&#45;&gt;Node2 -->
<g id="edge3_Node000003_Node000002" class="edge">
<title>Node3&#45;&gt;Node2</title>
<g id="a_edge3_Node000003_Node000002"><a xlink:title=" ">
<path fill="none" stroke="#63b8ff" d="M91.92,-164.68C83.68,-156.39 72.36,-143.16 67.5,-129 55.97,-95.38 59.54,-53.18 63.09,-29.29"/>
<polygon fill="#63b8ff" stroke="#63b8ff" points="66.59,-29.58 64.76,-19.14 59.68,-28.44 66.59,-29.58"/>
</a>
</g>
</g>
<!-- Node4 -->
<g id="Node000004" class="node">
<title>Node4</title>
<g id="a_Node000004"><a xlink:href="fr-command_8h.html" target="_top" xlink:title=" ">
<polygon fill="#fff0f0" stroke="red" points="159,-129 76,-129 76,-110 159,-110 159,-129"/>
<text text-anchor="middle" x="117.5" y="-117" font-family="Inter" font-size="10.00">fr&#45;command.h</text>
</a>
</g>
</g>
<!-- Node3&#45;&gt;Node4 -->
<g id="edge4_Node000003_Node000004" class="edge">
<title>Node3&#45;&gt;Node4</title>
<g id="a_edge4_Node000003_Node000004"><a xlink:title=" ">
<path fill="none" stroke="#63b8ff" d="M104.14,-164.75C106.26,-157.72 109.31,-147.62 111.96,-138.84"/>
<polygon fill="#63b8ff" stroke="#63b8ff" points="115.37,-139.67 114.91,-129.09 108.67,-137.65 115.37,-139.67"/>
</a>
</g>
</g>
<!-- Node9 -->
<g id="Node000009" class="node">
<title>Node9</title>
<g id="a_Node000009"><a xlink:href="fr-process_8h.html" target="_top" xlink:title=" ">
<polygon fill="#fff0f0" stroke="red" points="185.5,-74 113.5,-74 113.5,-55 185.5,-55 185.5,-74"/>
<text text-anchor="middle" x="149.5" y="-62" font-family="Inter" font-size="10.00">fr&#45;process.h</text>
</a>
</g>
</g>
<!-- Node3&#45;&gt;Node9 -->
<g id="edge8_Node000003_Node000009" class="edge">
<title>Node3&#45;&gt;Node9</title>
<g id="a_edge8_Node000003_Node000009"><a xlink:title=" ">
<path fill="none" stroke="#63b8ff" d="M124.61,-164.98C140.09,-157.92 159.26,-146.23 168.5,-129 176.38,-114.31 169.26,-95.92 161.59,-82.71"/>
<polygon fill="#63b8ff" stroke="#63b8ff" points="164.45,-80.68 156.12,-74.14 158.55,-84.45 164.45,-80.68"/>
</a>
</g>
</g>
<!-- Node4&#45;&gt;Node2 -->
<g id="edge5_Node000004_Node000002" class="edge">
<title>Node4&#45;&gt;Node2</title>
<g id="a_edge5_Node000004_Node000002"><a xlink:title=" ">
<path fill="none" stroke="#63b8ff" d="M113.33,-109.66C104.95,-91.93 85.97,-51.73 74.91,-28.32"/>
<polygon fill="#63b8ff" stroke="#63b8ff" points="78.02,-26.71 70.59,-19.16 71.69,-29.7 78.02,-26.71"/>
</a>
</g>
</g>
<!-- Node4&#45;&gt;Node9 -->
<g id="edge6_Node000004_Node000009" class="edge">
<title>Node4&#45;&gt;Node9</title>
<g id="a_edge6_Node000004_Node000009"><a xlink:title=" ">
<path fill="none" stroke="#63b8ff" d="M122.78,-109.75C127.21,-102.42 133.66,-91.73 139.12,-82.7"/>
<polygon fill="#63b8ff" stroke="#63b8ff" points="142.14,-84.46 144.31,-74.09 136.15,-80.84 142.14,-84.46"/>
</a>
</g>
</g>
<!-- Node9&#45;&gt;Node2 -->
<g id="edge7_Node000009_Node000002" class="edge">
<title>Node9&#45;&gt;Node2</title>
<g id="a_edge7_Node000009_Node000002"><a xlink:title=" ">
<path fill="none" stroke="#63b8ff" d="M136.16,-54.98C123.41,-46.84 103.95,-34.41 88.83,-24.76"/>
<polygon fill="#63b8ff" stroke="#63b8ff" points="90.39,-21.6 80.08,-19.17 86.62,-27.5 90.39,-21.6"/>
</a>
</g>
</g>
</g>
</svg>
