<?xml version="1.0" encoding="UTF-8" standalone="no"?>
<!DOCTYPE svg PUBLIC "-//W3C//DTD SVG 1.1//EN"
 "http://www.w3.org/Graphics/SVG/1.1/DTD/svg11.dtd">
<!-- Generated by graphviz version 2.43.0 (0)
 -->
<!-- Title: gdict&#45;about.h Pages: 1 -->
<svg width="285pt" height="82pt"
 viewBox="0.00 0.00 285.00 82.00" xmlns="http://www.w3.org/2000/svg" xmlns:xlink="http://www.w3.org/1999/xlink">

<svg id="main" version="1.1" xmlns="http://www.w3.org/2000/svg" xmlns:xlink="http://www.w3.org/1999/xlink" xml:space="preserve">

<style type="text/css"><![CDATA[
.node, .edge {opacity: 0.7;}
.node.selected, .edge.selected {opacity: 1;}
.edge:hover path { stroke: red; }
.edge:hover polygon { stroke: red; fill: red; }
]]></style>
<script type="application/ecmascript" xlink:href="svg.min.js"/>
<svg id="graph" class="graph">
<g id="graph0" class="graph" transform="scale(1 1) rotate(0) translate(4 78)">
<title>gdict&#45;about.h</title>
<!-- Node1 -->
<g id="Node000001" class="node">
<title>Node1</title>
<g id="a_Node000001"><a xlink:title=" ">
<polygon fill="#999999" stroke="#666666" points="173.5,-74 95.5,-74 95.5,-55 173.5,-55 173.5,-74"/>
<text text-anchor="middle" x="134.5" y="-62" font-family="Inter" font-size="10.00">gdict&#45;about.h</text>
</a>
</g>
</g>
<!-- Node2 -->
<g id="Node000002" class="node">
<title>Node2</title>
<g id="a_Node000002"><a xlink:href="gdict-about_8c.html" target="_top" xlink:title=" ">
<polygon fill="white" stroke="#666666" points="77,-19 0,-19 0,0 77,0 77,-19"/>
<text text-anchor="middle" x="38.5" y="-7" font-family="Inter" font-size="10.00">gdict&#45;about.c</text>
</a>
</g>
</g>
<!-- Node1&#45;&gt;Node2 -->
<g id="edge1_Node000001_Node000002" class="edge">
<title>Node1&#45;&gt;Node2</title>
<g id="a_edge1_Node000001_Node000002"><a xlink:title=" ">
<path fill="none" stroke="#63b8ff" d="M109.98,-49.97C92.44,-40.28 69.33,-27.52 54.2,-19.17"/>
<polygon fill="#63b8ff" stroke="#63b8ff" points="108.63,-53.22 119.08,-54.98 112.01,-47.09 108.63,-53.22"/>
</a>
</g>
</g>
<!-- Node3 -->
<g id="Node000003" class="node">
<title>Node3</title>
<g id="a_Node000003"><a xlink:href="gdict-applet_8c.html" target="_top" xlink:title=" ">
<polygon fill="white" stroke="#666666" points="174,-19 95,-19 95,0 174,0 174,-19"/>
<text text-anchor="middle" x="134.5" y="-7" font-family="Inter" font-size="10.00">gdict&#45;applet.c</text>
</a>
</g>
</g>
<!-- Node1&#45;&gt;Node3 -->
<g id="edge2_Node000001_Node000003" class="edge">
<title>Node1&#45;&gt;Node3</title>
<g id="a_edge2_Node000001_Node000003"><a xlink:title=" ">
<path fill="none" stroke="#63b8ff" d="M134.5,-44.66C134.5,-35.93 134.5,-25.99 134.5,-19.09"/>
<polygon fill="#63b8ff" stroke="#63b8ff" points="131,-44.75 134.5,-54.75 138,-44.75 131,-44.75"/>
</a>
</g>
</g>
<!-- Node4 -->
<g id="Node000004" class="node">
<title>Node4</title>
<g id="a_Node000004"><a xlink:href="gdict-window_8c.html" target="_top" xlink:title=" ">
<polygon fill="white" stroke="#666666" points="277,-19 192,-19 192,0 277,0 277,-19"/>
<text text-anchor="middle" x="234.5" y="-7" font-family="Inter" font-size="10.00">gdict&#45;window.c</text>
</a>
</g>
</g>
<!-- Node1&#45;&gt;Node4 -->
<g id="edge3_Node000001_Node000004" class="edge">
<title>Node1&#45;&gt;Node4</title>
<g id="a_edge3_Node000001_Node000004"><a xlink:title=" ">
<path fill="none" stroke="#63b8ff" d="M159.53,-50.23C177.87,-40.51 202.24,-27.6 218.14,-19.17"/>
<polygon fill="#63b8ff" stroke="#63b8ff" points="157.76,-47.21 150.57,-54.98 161.04,-53.39 157.76,-47.21"/>
</a>
</g>
</g>
</g>
</svg>
</svg>

<style type='text/css'>
<![CDATA[
[data-mouse-over-selected='false'] { opacity: 0.7; }
[data-mouse-over-selected='true']  { opacity: 1.0; }
]]>
</style>
<script type="application/ecmascript"><![CDATA[
document.addEventListener('DOMContentLoaded', (event) => {
  highlightEdges();
  highlightAdjacentNodes();
});
]]></script>
</svg>
