<?xml version="1.0" encoding="UTF-8" standalone="no"?>
<!DOCTYPE svg PUBLIC "-//W3C//DTD SVG 1.1//EN"
 "http://www.w3.org/Graphics/SVG/1.1/DTD/svg11.dtd">
<!-- Generated by graphviz version 2.43.0 (0)
 -->
<!-- Title: gdict&#45;debug.h Pages: 1 -->
<!--zoomable 137 -->

<svg id="main" version="1.1" xmlns="http://www.w3.org/2000/svg" xmlns:xlink="http://www.w3.org/1999/xlink" xml:space="preserve" onload="init(evt)">

<style type="text/css"><![CDATA[
.node, .edge {opacity: 0.7;}
.node.selected, .edge.selected {opacity: 1;}
.edge:hover path { stroke: red; }
.edge:hover polygon { stroke: red; fill: red; }
]]></style>

<defs>
  <circle id="rim" cx="0" cy="0" r="7"/>
  <circle id="rim2" cx="0" cy="0" r="3.5"/>
  <g id="zoomPlus">
    <use xlink:href="#rim" fill="#404040"><set attributeName="fill" to="#808080" begin="zoomplus.mouseover" end="zoomplus.mouseout"/></use>
    <path d="M-4,0h8M0,-4v8" fill="none" stroke="white" stroke-width="1.5" pointer-events="none"/>
  </g>
  <g id="zoomMin">
    <use xlink:href="#rim" fill="#404040"><set attributeName="fill" to="#808080" begin="zoomminus.mouseover" end="zoomminus.mouseout"/></use>
    <path d="M-4,0h8" fill="none" stroke="white" stroke-width="1.5" pointer-events="none"/>
  </g>
  <g id="arrowUp" transform="translate(30 24)">
    <use xlink:href="#rim"/>
    <path pointer-events="none" fill="none" stroke="white" stroke-width="1.5" d="M0,-3.0v7 M-2.5,-0.5L0,-3.0L2.5,-0.5"/>
  </g>
  <g id="arrowRight" transform="rotate(90) translate(36 -43)">
    <use xlink:href="#rim"/>
    <path pointer-events="none" fill="none" stroke="white" stroke-width="1.5" d="M0,-3.0v7 M-2.5,-0.5L0,-3.0L2.5,-0.5"/>
  </g>
  <g id="arrowDown" transform="rotate(180) translate(-30 -48)">
    <use xlink:href="#rim"/>
    <path pointer-events="none" fill="none" stroke="white" stroke-width="1.5" d="M0,-3.0v7 M-2.5,-0.5L0,-3.0L2.5,-0.5"/>
  </g>
  <g id="arrowLeft" transform="rotate(270) translate(-36 17)">
    <use xlink:href="#rim"/>
    <path pointer-events="none" fill="none" stroke="white" stroke-width="1.5" d="M0,-3.0v7 M-2.5,-0.5L0,-3.0L2.5,-0.5"/>
  </g>
  <g id="resetDef">
    <use xlink:href="#rim2" fill="#404040"><set attributeName="fill" to="#808080" begin="reset.mouseover" end="reset.mouseout"/></use>
  </g>
</defs>
<script type="application/ecmascript">
var viewWidth = 1164;
var viewHeight = 137;
var sectionId = 'dynsection-1';
</script>
<script type="application/ecmascript" xlink:href="svg.min.js"/>
<svg id="graph" class="graph">
<g id="viewport">
<title>gdict&#45;debug.h</title>
<!-- Node1 -->
<g id="Node000001" class="node">
<title>Node1</title>
<g id="a_Node000001"><a xlink:title=" ">
<polygon fill="#999999" stroke="#666666" points="635.5,-129 554.5,-129 554.5,-110 635.5,-110 635.5,-129"/>
<text text-anchor="middle" x="595" y="-117" font-family="Inter" font-size="10.00">gdict&#45;debug.h</text>
</a>
</g>
</g>
<!-- Node2 -->
<g id="Node000002" class="node">
<title>Node2</title>
<g id="a_Node000002"><a xlink:href="gdict-client-context_8c.html" target="_top" xlink:title=" ">
<polygon fill="white" stroke="#666666" points="112,-19 0,-19 0,0 112,0 112,-19"/>
<text text-anchor="middle" x="56" y="-7" font-family="Inter" font-size="10.00">gdict&#45;client&#45;context.c</text>
</a>
</g>
</g>
<!-- Node1&#45;&gt;Node2 -->
<g id="edge1_Node000001_Node000002" class="edge">
<title>Node1&#45;&gt;Node2</title>
<g id="a_edge1_Node000001_Node000002"><a xlink:title=" ">
<path fill="none" stroke="#63b8ff" d="M544.37,-108.68C498.35,-99.73 428.59,-86.11 368,-74 270.97,-54.62 157.09,-31.29 97.36,-19.02"/>
<polygon fill="#63b8ff" stroke="#63b8ff" points="543.9,-112.16 554.39,-110.63 545.24,-105.29 543.9,-112.16"/>
</a>
</g>
</g>
<!-- Node3 -->
<g id="Node000003" class="node">
<title>Node3</title>
<g id="a_Node000003"><a xlink:href="gdict-database-chooser_8c.html" target="_top" xlink:title=" ">
<polygon fill="white" stroke="#666666" points="260,-19 130,-19 130,0 260,0 260,-19"/>
<text text-anchor="middle" x="195" y="-7" font-family="Inter" font-size="10.00">gdict&#45;database&#45;chooser.c</text>
</a>
</g>
</g>
<!-- Node1&#45;&gt;Node3 -->
<g id="edge2_Node000001_Node000003" class="edge">
<title>Node1&#45;&gt;Node3</title>
<g id="a_edge2_Node000001_Node000003"><a xlink:title=" ">
<path fill="none" stroke="#63b8ff" d="M553.52,-107.3C473.3,-85.64 298.5,-38.44 226.72,-19.07"/>
<polygon fill="#63b8ff" stroke="#63b8ff" points="552.71,-110.71 563.28,-109.94 554.54,-103.95 552.71,-110.71"/>
</a>
</g>
</g>
<!-- Node4 -->
<g id="Node000004" class="node">
<title>Node4</title>
<g id="a_Node000004"><a xlink:href="gdict-defbox_8c.html" target="_top" xlink:title=" ">
<polygon fill="white" stroke="#666666" points="361.5,-19 278.5,-19 278.5,0 361.5,0 361.5,-19"/>
<text text-anchor="middle" x="320" y="-7" font-family="Inter" font-size="10.00">gdict&#45;defbox.c</text>
</a>
</g>
</g>
<!-- Node1&#45;&gt;Node4 -->
<g id="edge3_Node000001_Node000004" class="edge">
<title>Node1&#45;&gt;Node4</title>
<g id="a_edge3_Node000001_Node000004"><a xlink:title=" ">
<path fill="none" stroke="#63b8ff" d="M563.48,-106.12C507.06,-83.96 390.2,-38.07 341.76,-19.05"/>
<polygon fill="#63b8ff" stroke="#63b8ff" points="562.37,-109.45 572.96,-109.84 564.93,-102.93 562.37,-109.45"/>
</a>
</g>
</g>
<!-- Node5 -->
<g id="Node000005" class="node">
<title>Node5</title>
<g id="a_Node000005"><a xlink:href="gdict-private_8h.html" target="_top" xlink:title=" ">
<polygon fill="white" stroke="#666666" points="637,-74 553,-74 553,-55 637,-55 637,-74"/>
<text text-anchor="middle" x="595" y="-62" font-family="Inter" font-size="10.00">gdict&#45;private.h</text>
</a>
</g>
</g>
<!-- Node1&#45;&gt;Node5 -->
<g id="edge4_Node000001_Node000005" class="edge">
<title>Node1&#45;&gt;Node5</title>
<g id="a_edge4_Node000001_Node000005"><a xlink:title=" ">
<path fill="none" stroke="#63b8ff" d="M595,-99.66C595,-90.93 595,-80.99 595,-74.09"/>
<polygon fill="#63b8ff" stroke="#63b8ff" points="591.5,-99.75 595,-109.75 598.5,-99.75 591.5,-99.75"/>
</a>
</g>
</g>
<!-- Node10 -->
<g id="Node000010" class="node">
<title>Node10</title>
<g id="a_Node000010"><a xlink:href="gdict-speller_8c.html" target="_top" xlink:title=" ">
<polygon fill="white" stroke="#666666" points="925.5,-19 846.5,-19 846.5,0 925.5,0 925.5,-19"/>
<text text-anchor="middle" x="886" y="-7" font-family="Inter" font-size="10.00">gdict&#45;speller.c</text>
</a>
</g>
</g>
<!-- Node1&#45;&gt;Node10 -->
<g id="edge15_Node000001_Node000010" class="edge">
<title>Node1&#45;&gt;Node10</title>
<g id="a_edge15_Node000001_Node000010"><a xlink:title=" ">
<path fill="none" stroke="#63b8ff" d="M627.98,-106.26C687.54,-84.15 811.61,-38.11 862.97,-19.05"/>
<polygon fill="#63b8ff" stroke="#63b8ff" points="626.48,-103.08 618.32,-109.84 628.91,-109.65 626.48,-103.08"/>
</a>
</g>
</g>
<!-- Node11 -->
<g id="Node000011" class="node">
<title>Node11</title>
<g id="a_Node000011"><a xlink:href="gdict-strategy-chooser_8c.html" target="_top" xlink:title=" ">
<polygon fill="white" stroke="#666666" points="1070,-19 944,-19 944,0 1070,0 1070,-19"/>
<text text-anchor="middle" x="1007" y="-7" font-family="Inter" font-size="10.00">gdict&#45;strategy&#45;chooser.c</text>
</a>
</g>
</g>
<!-- Node1&#45;&gt;Node11 -->
<g id="edge16_Node000001_Node000011" class="edge">
<title>Node1&#45;&gt;Node11</title>
<g id="a_edge16_Node000001_Node000011"><a xlink:title=" ">
<path fill="none" stroke="#63b8ff" d="M637.47,-107.37C719.98,-85.74 900.32,-38.46 974.32,-19.07"/>
<polygon fill="#63b8ff" stroke="#63b8ff" points="636.46,-104.01 627.67,-109.94 638.23,-110.78 636.46,-104.01"/>
</a>
</g>
</g>
<!-- Node12 -->
<g id="Node000012" class="node">
<title>Node12</title>
<g id="a_Node000012"><a xlink:href="gdict-utils_8c.html" target="_top" xlink:title=" ">
<polygon fill="white" stroke="#666666" points="1156,-19 1088,-19 1088,0 1156,0 1156,-19"/>
<text text-anchor="middle" x="1122" y="-7" font-family="Inter" font-size="10.00">gdict&#45;utils.c</text>
</a>
</g>
</g>
<!-- Node1&#45;&gt;Node12 -->
<g id="edge17_Node000001_Node000012" class="edge">
<title>Node1&#45;&gt;Node12</title>
<g id="a_edge17_Node000001_Node000012"><a xlink:title=" ">
<path fill="none" stroke="#63b8ff" d="M645.8,-108.36C690.6,-99.4 757.66,-85.93 816,-74 914.61,-53.84 1030.98,-29.56 1087.6,-17.71"/>
<polygon fill="#63b8ff" stroke="#63b8ff" points="644.87,-104.98 635.75,-110.37 646.24,-111.84 644.87,-104.98"/>
</a>
</g>
</g>
<!-- Node5&#45;&gt;Node2 -->
<g id="edge5_Node000005_Node000002" class="edge">
<title>Node5&#45;&gt;Node2</title>
<g id="a_edge5_Node000005_Node000002"><a xlink:title=" ">
<path fill="none" stroke="#63b8ff" d="M542.59,-59.21C455.12,-51.9 273.92,-36.17 121,-19 118.06,-18.67 115.05,-18.32 112,-17.96"/>
<polygon fill="#63b8ff" stroke="#63b8ff" points="542.52,-62.71 552.78,-60.06 543.1,-55.74 542.52,-62.71"/>
</a>
</g>
</g>
<!-- Node5&#45;&gt;Node3 -->
<g id="edge7_Node000005_Node000003" class="edge">
<title>Node5&#45;&gt;Node3</title>
<g id="a_edge7_Node000005_Node000003"><a xlink:title=" ">
<path fill="none" stroke="#63b8ff" d="M542.65,-56.56C469.87,-46.92 338.19,-29.47 259.45,-19.04"/>
<polygon fill="#63b8ff" stroke="#63b8ff" points="542.58,-60.08 552.95,-57.93 543.5,-53.14 542.58,-60.08"/>
</a>
</g>
</g>
<!-- Node5&#45;&gt;Node4 -->
<g id="edge8_Node000005_Node000004" class="edge">
<title>Node5&#45;&gt;Node4</title>
<g id="a_edge8_Node000005_Node000004"><a xlink:title=" ">
<path fill="none" stroke="#63b8ff" d="M542.8,-53.44C490.2,-43.3 410.08,-27.86 361.61,-18.52"/>
<polygon fill="#63b8ff" stroke="#63b8ff" points="542.45,-56.94 552.93,-55.39 543.78,-50.06 542.45,-56.94"/>
</a>
</g>
</g>
<!-- Node6 -->
<g id="Node000006" class="node">
<title>Node6</title>
<g id="a_Node000006"><a xlink:href="gdict-context_8c.html" target="_top" xlink:title=" ">
<polygon fill="white" stroke="#666666" points="691,-19 607,-19 607,0 691,0 691,-19"/>
<text text-anchor="middle" x="649" y="-7" font-family="Inter" font-size="10.00">gdict&#45;context.c</text>
</a>
</g>
</g>
<!-- Node5&#45;&gt;Node6 -->
<g id="edge6_Node000005_Node000006" class="edge">
<title>Node5&#45;&gt;Node6</title>
<g id="a_edge6_Node000005_Node000006"><a xlink:title=" ">
<path fill="none" stroke="#63b8ff" d="M611.28,-47.52C620.8,-38.18 632.44,-26.75 640.25,-19.09"/>
<polygon fill="#63b8ff" stroke="#63b8ff" points="608.6,-45.25 603.92,-54.75 613.51,-50.24 608.6,-45.25"/>
</a>
</g>
</g>
<!-- Node7 -->
<g id="Node000007" class="node">
<title>Node7</title>
<g id="a_Node000007"><a xlink:href="gdict-source-chooser_8c.html" target="_top" xlink:title=" ">
<polygon fill="white" stroke="#666666" points="828.5,-19 709.5,-19 709.5,0 828.5,0 828.5,-19"/>
<text text-anchor="middle" x="769" y="-7" font-family="Inter" font-size="10.00">gdict&#45;source&#45;chooser.c</text>
</a>
</g>
</g>
<!-- Node5&#45;&gt;Node7 -->
<g id="edge9_Node000005_Node000007" class="edge">
<title>Node5&#45;&gt;Node7</title>
<g id="a_edge9_Node000005_Node000007"><a xlink:title=" ">
<path fill="none" stroke="#63b8ff" d="M632.57,-52.06C665.09,-42.15 711.4,-28.04 740.82,-19.08"/>
<polygon fill="#63b8ff" stroke="#63b8ff" points="631.5,-48.72 622.96,-54.98 633.54,-55.42 631.5,-48.72"/>
</a>
</g>
</g>
<!-- Node8 -->
<g id="Node000008" class="node">
<title>Node8</title>
<g id="a_Node000008"><a xlink:href="gdict-source-loader_8c.html" target="_top" xlink:title=" ">
<polygon fill="white" stroke="#666666" points="490.5,-19 379.5,-19 379.5,0 490.5,0 490.5,-19"/>
<text text-anchor="middle" x="435" y="-7" font-family="Inter" font-size="10.00">gdict&#45;source&#45;loader.c</text>
</a>
</g>
</g>
<!-- Node5&#45;&gt;Node8 -->
<g id="edge10_Node000005_Node000008" class="edge">
<title>Node5&#45;&gt;Node8</title>
<g id="a_edge10_Node000005_Node000008"><a xlink:title=" ">
<path fill="none" stroke="#63b8ff" d="M559.67,-51.8C529.81,-41.91 487.73,-27.97 460.91,-19.08"/>
<polygon fill="#63b8ff" stroke="#63b8ff" points="558.7,-55.16 569.29,-54.98 560.9,-48.52 558.7,-55.16"/>
</a>
</g>
</g>
<!-- Node9 -->
<g id="Node000009" class="node">
<title>Node9</title>
<g id="a_Node000009"><a xlink:href="gdict-source_8c.html" target="_top" xlink:title=" ">
<polygon fill="white" stroke="#666666" points="589,-19 509,-19 509,0 589,0 589,-19"/>
<text text-anchor="middle" x="549" y="-7" font-family="Inter" font-size="10.00">gdict&#45;source.c</text>
</a>
</g>
</g>
<!-- Node5&#45;&gt;Node9 -->
<g id="edge11_Node000005_Node000009" class="edge">
<title>Node5&#45;&gt;Node9</title>
<g id="a_edge11_Node000005_Node000009"><a xlink:title=" ">
<path fill="none" stroke="#63b8ff" d="M580.64,-46.96C572.63,-37.72 562.97,-26.6 556.45,-19.09"/>
<polygon fill="#63b8ff" stroke="#63b8ff" points="578.21,-49.49 587.4,-54.75 583.49,-44.9 578.21,-49.49"/>
</a>
</g>
</g>
<!-- Node5&#45;&gt;Node10 -->
<g id="edge12_Node000005_Node000010" class="edge">
<title>Node5&#45;&gt;Node10</title>
<g id="a_edge12_Node000005_Node000010"><a xlink:title=" ">
<path fill="none" stroke="#63b8ff" d="M646.92,-54.04C704.05,-43.64 794.63,-27.14 846.34,-17.72"/>
<polygon fill="#63b8ff" stroke="#63b8ff" points="646.21,-50.61 637,-55.85 647.47,-57.5 646.21,-50.61"/>
</a>
</g>
</g>
<!-- Node5&#45;&gt;Node11 -->
<g id="edge13_Node000005_Node000011" class="edge">
<title>Node5&#45;&gt;Node11</title>
<g id="a_edge13_Node000005_Node000011"><a xlink:title=" ">
<path fill="none" stroke="#63b8ff" d="M647.39,-56.76C723.01,-47.03 862.59,-29.08 943.82,-18.63"/>
<polygon fill="#63b8ff" stroke="#63b8ff" points="646.63,-53.33 637.16,-58.08 647.52,-60.27 646.63,-53.33"/>
</a>
</g>
</g>
<!-- Node5&#45;&gt;Node12 -->
<g id="edge14_Node000005_Node000012" class="edge">
<title>Node5&#45;&gt;Node12</title>
<g id="a_edge14_Node000005_Node000012"><a xlink:title=" ">
<path fill="none" stroke="#63b8ff" d="M647.36,-60.47C736.37,-54.92 922.75,-41.56 1079,-19 1081.86,-18.59 1084.82,-18.11 1087.79,-17.59"/>
<polygon fill="#63b8ff" stroke="#63b8ff" points="647.02,-56.98 637.25,-61.09 647.45,-63.97 647.02,-56.98"/>
</a>
</g>
</g>
</g>
</svg>

<g id="navigator" transform="translate(0 0)" fill="#404254">
  <rect fill="#f2f5e9" fill-opacity="0.5" stroke="#606060" stroke-width=".5" x="0" y="0" width="60" height="60"/>
  <use id="zoomplus" xlink:href="#zoomPlus" x="17" y="9" onmousedown="handleZoom(evt,'in')"/>
  <use id="zoomminus" xlink:href="#zoomMin" x="42" y="9" onmousedown="handleZoom(evt,'out')"/>
  <use id="reset" xlink:href="#resetDef" x="30" y="36" onmousedown="handleReset()"/>
   <use id="arrowup" xlink:href="#arrowUp" x="0" y="0" onmousedown="handlePan(0,-1)"/>
  <use id="arrowright" xlink:href="#arrowRight" x="0" y="0" onmousedown="handlePan(1,0)"/>
  <use id="arrowdown" xlink:href="#arrowDown" x="0" y="0" onmousedown="handlePan(0,1)"/>
  <use id="arrowleft" xlink:href="#arrowLeft" x="0" y="0" onmousedown="handlePan(-1,0)"/>
</g>
<svg viewBox="0 0 15 15" width="100%" height="30px" preserveAspectRatio="xMaxYMin meet">
 <g id="arrow_out" transform="scale(0.3 0.3)">
  <a xlink:href="gdict-debug_8h__dep__incl_org.svg" target="_base">
   <rect id="button" ry="5" rx="5" y="6" x="6" height="38" width="38"
        fill="#f2f5e9" fill-opacity="0.5" stroke="#606060" stroke-width="1.0"/>
   <path id="arrow"
     d="M 11.500037,31.436501 C 11.940474,20.09759 22.043105,11.32322 32.158766,21.979434 L 37.068811,17.246167 C 37.068811,17.246167 37.088388,32 37.088388,32 L 22.160133,31.978069 C 22.160133,31.978069 26.997745,27.140456 26.997745,27.140456 C 18.528582,18.264221 13.291696,25.230495 11.500037,31.436501 z"
     style="fill:#404040;"/>
  </a>
 </g>
</svg>

<style type='text/css'>
<![CDATA[
[data-mouse-over-selected='false'] { opacity: 0.7; }
[data-mouse-over-selected='true']  { opacity: 1.0; }
]]>
</style>
<script type="application/ecmascript"><![CDATA[
document.addEventListener('DOMContentLoaded', (event) => {
  highlightEdges();
  highlightAdjacentNodes();
});
]]></script>
</svg>
