<?xml version="1.0" encoding="UTF-8" standalone="no"?>
<!DOCTYPE svg PUBLIC "-//W3C//DTD SVG 1.1//EN"
 "http://www.w3.org/Graphics/SVG/1.1/DTD/svg11.dtd">
<!-- Generated by graphviz version 2.43.0 (0)
 -->
<!-- Title: gdict&#45;marshal.h Pages: 1 -->
<svg width="1084pt" height="82pt"
 viewBox="0.00 0.00 1084.00 82.00" xmlns="http://www.w3.org/2000/svg" xmlns:xlink="http://www.w3.org/1999/xlink">
<g id="graph0" class="graph" transform="scale(1 1) rotate(0) translate(4 78)">
<title>gdict&#45;marshal.h</title>
<!-- Node1 -->
<g id="Node000001" class="node">
<title>Node1</title>
<g id="a_Node000001"><a xlink:title=" ">
<polygon fill="#999999" stroke="#666666" points="569,-74 481,-74 481,-55 569,-55 569,-74"/>
<text text-anchor="middle" x="525" y="-62" font-family="Inter" font-size="10.00">gdict&#45;marshal.h</text>
</a>
</g>
</g>
<!-- Node2 -->
<g id="Node000002" class="node">
<title>Node2</title>
<g id="a_Node000002"><a xlink:href="gdict-client-context_8c.html" target="_top" xlink:title=" ">
<polygon fill="white" stroke="#666666" points="112,-19 0,-19 0,0 112,0 112,-19"/>
<text text-anchor="middle" x="56" y="-7" font-family="Inter" font-size="10.00">gdict&#45;client&#45;context.c</text>
</a>
</g>
</g>
<!-- Node1&#45;&gt;Node2 -->
<g id="edge1_Node000001_Node000002" class="edge">
<title>Node1&#45;&gt;Node2</title>
<g id="a_edge1_Node000001_Node000002"><a xlink:title=" ">
<path fill="none" stroke="#63b8ff" d="M470.7,-57.87C393.11,-49.75 246.04,-34.06 121,-19 118.06,-18.65 115.05,-18.28 112.01,-17.9"/>
<polygon fill="#63b8ff" stroke="#63b8ff" points="470.42,-61.36 480.73,-58.92 471.15,-54.4 470.42,-61.36"/>
</a>
</g>
</g>
<!-- Node3 -->
<g id="Node000003" class="node">
<title>Node3</title>
<g id="a_Node000003"><a xlink:href="gdict-context_8c.html" target="_top" xlink:title=" ">
<polygon fill="white" stroke="#666666" points="214,-19 130,-19 130,0 214,0 214,-19"/>
<text text-anchor="middle" x="172" y="-7" font-family="Inter" font-size="10.00">gdict&#45;context.c</text>
</a>
</g>
</g>
<!-- Node1&#45;&gt;Node3 -->
<g id="edge2_Node000001_Node000003" class="edge">
<title>Node1&#45;&gt;Node3</title>
<g id="a_edge2_Node000001_Node000003"><a xlink:title=" ">
<path fill="none" stroke="#63b8ff" d="M470.87,-55.84C410.4,-47.2 309.61,-32.6 223,-19 220.07,-18.54 217.05,-18.06 214.01,-17.57"/>
<polygon fill="#63b8ff" stroke="#63b8ff" points="470.55,-59.33 480.95,-57.27 471.54,-52.4 470.55,-59.33"/>
</a>
</g>
</g>
<!-- Node4 -->
<g id="Node000004" class="node">
<title>Node4</title>
<g id="a_Node000004"><a xlink:href="gdict-database-chooser_8c.html" target="_top" xlink:title=" ">
<polygon fill="white" stroke="#666666" points="362,-19 232,-19 232,0 362,0 362,-19"/>
<text text-anchor="middle" x="297" y="-7" font-family="Inter" font-size="10.00">gdict&#45;database&#45;chooser.c</text>
</a>
</g>
</g>
<!-- Node1&#45;&gt;Node4 -->
<g id="edge3_Node000001_Node000004" class="edge">
<title>Node1&#45;&gt;Node4</title>
<g id="a_edge3_Node000001_Node000004"><a xlink:title=" ">
<path fill="none" stroke="#63b8ff" d="M478.5,-52.69C435.78,-42.76 373.3,-28.24 333.92,-19.08"/>
<polygon fill="#63b8ff" stroke="#63b8ff" points="477.84,-56.13 488.37,-54.98 479.42,-49.31 477.84,-56.13"/>
</a>
</g>
</g>
<!-- Node5 -->
<g id="Node000005" class="node">
<title>Node5</title>
<g id="a_Node000005"><a xlink:href="gdict-defbox_8c.html" target="_top" xlink:title=" ">
<polygon fill="white" stroke="#666666" points="463.5,-19 380.5,-19 380.5,0 463.5,0 463.5,-19"/>
<text text-anchor="middle" x="422" y="-7" font-family="Inter" font-size="10.00">gdict&#45;defbox.c</text>
</a>
</g>
</g>
<!-- Node1&#45;&gt;Node5 -->
<g id="edge4_Node000001_Node000005" class="edge">
<title>Node1&#45;&gt;Node5</title>
<g id="a_edge4_Node000001_Node000005"><a xlink:title=" ">
<path fill="none" stroke="#63b8ff" d="M499.48,-50.37C480.56,-40.63 455.3,-27.64 438.85,-19.17"/>
<polygon fill="#63b8ff" stroke="#63b8ff" points="497.96,-53.52 508.45,-54.98 501.16,-47.3 497.96,-53.52"/>
</a>
</g>
</g>
<!-- Node6 -->
<g id="Node000006" class="node">
<title>Node6</title>
<g id="a_Node000006"><a xlink:href="gdict-marshal_8c.html" target="_top" xlink:title=" ">
<polygon fill="white" stroke="#666666" points="568,-19 482,-19 482,0 568,0 568,-19"/>
<text text-anchor="middle" x="525" y="-7" font-family="Inter" font-size="10.00">gdict&#45;marshal.c</text>
</a>
</g>
</g>
<!-- Node1&#45;&gt;Node6 -->
<g id="edge5_Node000001_Node000006" class="edge">
<title>Node1&#45;&gt;Node6</title>
<g id="a_edge5_Node000001_Node000006"><a xlink:title=" ">
<path fill="none" stroke="#63b8ff" d="M525,-44.66C525,-35.93 525,-25.99 525,-19.09"/>
<polygon fill="#63b8ff" stroke="#63b8ff" points="521.5,-44.75 525,-54.75 528.5,-44.75 521.5,-44.75"/>
</a>
</g>
</g>
<!-- Node7 -->
<g id="Node000007" class="node">
<title>Node7</title>
<g id="a_Node000007"><a xlink:href="gdict-source-chooser_8c.html" target="_top" xlink:title=" ">
<polygon fill="white" stroke="#666666" points="705.5,-19 586.5,-19 586.5,0 705.5,0 705.5,-19"/>
<text text-anchor="middle" x="646" y="-7" font-family="Inter" font-size="10.00">gdict&#45;source&#45;chooser.c</text>
</a>
</g>
</g>
<!-- Node1&#45;&gt;Node7 -->
<g id="edge6_Node000001_Node000007" class="edge">
<title>Node1&#45;&gt;Node7</title>
<g id="a_edge6_Node000001_Node000007"><a xlink:title=" ">
<path fill="none" stroke="#63b8ff" d="M553.77,-50.9C576.12,-41.11 606.52,-27.79 626.21,-19.17"/>
<polygon fill="#63b8ff" stroke="#63b8ff" points="552.2,-47.77 544.44,-54.98 555,-54.18 552.2,-47.77"/>
</a>
</g>
</g>
<!-- Node8 -->
<g id="Node000008" class="node">
<title>Node8</title>
<g id="a_Node000008"><a xlink:href="gdict-source-loader_8c.html" target="_top" xlink:title=" ">
<polygon fill="white" stroke="#666666" points="834.5,-19 723.5,-19 723.5,0 834.5,0 834.5,-19"/>
<text text-anchor="middle" x="779" y="-7" font-family="Inter" font-size="10.00">gdict&#45;source&#45;loader.c</text>
</a>
</g>
</g>
<!-- Node1&#45;&gt;Node8 -->
<g id="edge7_Node000001_Node000008" class="edge">
<title>Node1&#45;&gt;Node8</title>
<g id="a_edge7_Node000001_Node000008"><a xlink:title=" ">
<path fill="none" stroke="#63b8ff" d="M575.61,-52.94C623.22,-43.01 693.62,-28.31 737.87,-19.08"/>
<polygon fill="#63b8ff" stroke="#63b8ff" points="574.88,-49.52 565.81,-54.98 576.31,-56.37 574.88,-49.52"/>
</a>
</g>
</g>
<!-- Node9 -->
<g id="Node000009" class="node">
<title>Node9</title>
<g id="a_Node000009"><a xlink:href="gdict-speller_8c.html" target="_top" xlink:title=" ">
<polygon fill="white" stroke="#666666" points="931.5,-19 852.5,-19 852.5,0 931.5,0 931.5,-19"/>
<text text-anchor="middle" x="892" y="-7" font-family="Inter" font-size="10.00">gdict&#45;speller.c</text>
</a>
</g>
</g>
<!-- Node1&#45;&gt;Node9 -->
<g id="edge8_Node000001_Node000009" class="edge">
<title>Node1&#45;&gt;Node9</title>
<g id="a_edge8_Node000001_Node000009"><a xlink:title=" ">
<path fill="none" stroke="#63b8ff" d="M579.39,-56.53C642.95,-48.24 751.27,-33.67 844,-19 846.76,-18.56 849.6,-18.1 852.47,-17.62"/>
<polygon fill="#63b8ff" stroke="#63b8ff" points="578.66,-53.1 569.2,-57.86 579.56,-60.04 578.66,-53.1"/>
</a>
</g>
</g>
<!-- Node10 -->
<g id="Node000010" class="node">
<title>Node10</title>
<g id="a_Node000010"><a xlink:href="gdict-strategy-chooser_8c.html" target="_top" xlink:title=" ">
<polygon fill="white" stroke="#666666" points="1076,-19 950,-19 950,0 1076,0 1076,-19"/>
<text text-anchor="middle" x="1013" y="-7" font-family="Inter" font-size="10.00">gdict&#45;strategy&#45;chooser.c</text>
</a>
</g>
</g>
<!-- Node1&#45;&gt;Node10 -->
<g id="edge9_Node000001_Node000010" class="edge">
<title>Node1&#45;&gt;Node10</title>
<g id="a_edge9_Node000001_Node000010"><a xlink:title=" ">
<path fill="none" stroke="#63b8ff" d="M579.29,-57.88C658.73,-49.62 811.31,-33.59 941,-19 943.88,-18.68 946.82,-18.34 949.79,-18"/>
<polygon fill="#63b8ff" stroke="#63b8ff" points="578.63,-54.43 569.04,-58.95 579.35,-61.4 578.63,-54.43"/>
</a>
</g>
</g>
</g>
</svg>
