<?xml version="1.0" encoding="UTF-8" standalone="no"?>
<!DOCTYPE svg PUBLIC "-//W3C//DTD SVG 1.1//EN"
 "http://www.w3.org/Graphics/SVG/1.1/DTD/svg11.dtd">
<!-- Generated by graphviz version 2.43.0 (0)
 -->
<!-- Title: gpm&#45;statistics.c Pages: 1 -->
<!--zoomable 192 -->

<svg id="main" version="1.1" xmlns="http://www.w3.org/2000/svg" xmlns:xlink="http://www.w3.org/1999/xlink" xml:space="preserve" onload="init(evt)">

<style type="text/css"><![CDATA[
.node, .edge {opacity: 0.7;}
.node.selected, .edge.selected {opacity: 1;}
.edge:hover path { stroke: red; }
.edge:hover polygon { stroke: red; fill: red; }
]]></style>

<defs>
  <circle id="rim" cx="0" cy="0" r="7"/>
  <circle id="rim2" cx="0" cy="0" r="3.5"/>
  <g id="zoomPlus">
    <use xlink:href="#rim" fill="#404040"><set attributeName="fill" to="#808080" begin="zoomplus.mouseover" end="zoomplus.mouseout"/></use>
    <path d="M-4,0h8M0,-4v8" fill="none" stroke="white" stroke-width="1.5" pointer-events="none"/>
  </g>
  <g id="zoomMin">
    <use xlink:href="#rim" fill="#404040"><set attributeName="fill" to="#808080" begin="zoomminus.mouseover" end="zoomminus.mouseout"/></use>
    <path d="M-4,0h8" fill="none" stroke="white" stroke-width="1.5" pointer-events="none"/>
  </g>
  <g id="arrowUp" transform="translate(30 24)">
    <use xlink:href="#rim"/>
    <path pointer-events="none" fill="none" stroke="white" stroke-width="1.5" d="M0,-3.0v7 M-2.5,-0.5L0,-3.0L2.5,-0.5"/>
  </g>
  <g id="arrowRight" transform="rotate(90) translate(36 -43)">
    <use xlink:href="#rim"/>
    <path pointer-events="none" fill="none" stroke="white" stroke-width="1.5" d="M0,-3.0v7 M-2.5,-0.5L0,-3.0L2.5,-0.5"/>
  </g>
  <g id="arrowDown" transform="rotate(180) translate(-30 -48)">
    <use xlink:href="#rim"/>
    <path pointer-events="none" fill="none" stroke="white" stroke-width="1.5" d="M0,-3.0v7 M-2.5,-0.5L0,-3.0L2.5,-0.5"/>
  </g>
  <g id="arrowLeft" transform="rotate(270) translate(-36 17)">
    <use xlink:href="#rim"/>
    <path pointer-events="none" fill="none" stroke="white" stroke-width="1.5" d="M0,-3.0v7 M-2.5,-0.5L0,-3.0L2.5,-0.5"/>
  </g>
  <g id="resetDef">
    <use xlink:href="#rim2" fill="#404040"><set attributeName="fill" to="#808080" begin="reset.mouseover" end="reset.mouseout"/></use>
  </g>
</defs>
<script type="application/ecmascript">
var viewWidth = 1070;
var viewHeight = 192;
var sectionId = 'dynsection-0';
</script>
<script type="application/ecmascript" xlink:href="svg.min.js"/>
<svg id="graph" class="graph">
<g id="viewport">
<title>gpm&#45;statistics.c</title>
<!-- Node1 -->
<g id="Node000001" class="node">
<title>Node1</title>
<g id="a_Node000001"><a xlink:title=" ">
<polygon fill="#999999" stroke="#666666" points="525.5,-184 438.5,-184 438.5,-165 525.5,-165 525.5,-184"/>
<text text-anchor="middle" x="482" y="-172" font-family="Inter" font-size="10.00">gpm&#45;statistics.c</text>
</a>
</g>
</g>
<!-- Node2 -->
<g id="Node000002" class="node">
<title>Node2</title>
<g id="a_Node000002"><a xlink:title=" ">
<polygon fill="#e0e0e0" stroke="#999999" points="54,-129 0,-129 0,-110 54,-110 54,-129"/>
<text text-anchor="middle" x="27" y="-117" font-family="Inter" font-size="10.00">config.h</text>
</a>
</g>
</g>
<!-- Node1&#45;&gt;Node2 -->
<g id="edge1_Node000001_Node000002" class="edge">
<title>Node1&#45;&gt;Node2</title>
<g id="a_edge1_Node000001_Node000002"><a xlink:title=" ">
<path fill="none" stroke="#63b8ff" d="M438.32,-170.68C363.65,-165.47 206.52,-152.78 64.27,-129"/>
<polygon fill="#63b8ff" stroke="#63b8ff" points="64.5,-125.49 54.05,-127.27 63.33,-132.4 64.5,-125.49"/>
</a>
</g>
</g>
<!-- Node3 -->
<g id="Node000003" class="node">
<title>Node3</title>
<g id="a_Node000003"><a xlink:title=" ">
<polygon fill="#e0e0e0" stroke="#999999" points="124,-129 72,-129 72,-110 124,-110 124,-129"/>
<text text-anchor="middle" x="98" y="-117" font-family="Inter" font-size="10.00">locale.h</text>
</a>
</g>
</g>
<!-- Node1&#45;&gt;Node3 -->
<g id="edge2_Node000001_Node000003" class="edge">
<title>Node1&#45;&gt;Node3</title>
<g id="a_edge2_Node000001_Node000003"><a xlink:title=" ">
<path fill="none" stroke="#63b8ff" d="M438.39,-169C372.92,-161.99 245.44,-147.33 138,-129 136.74,-128.79 135.46,-128.56 134.17,-128.32"/>
<polygon fill="#63b8ff" stroke="#63b8ff" points="134.68,-124.86 124.19,-126.38 133.34,-131.73 134.68,-124.86"/>
</a>
</g>
</g>
<!-- Node4 -->
<g id="Node000004" class="node">
<title>Node4</title>
<g id="a_Node000004"><a xlink:title=" ">
<polygon fill="#e0e0e0" stroke="#999999" points="335,-19 293,-19 293,0 335,0 335,-19"/>
<text text-anchor="middle" x="314" y="-7" font-family="Inter" font-size="10.00">glib.h</text>
</a>
</g>
</g>
<!-- Node1&#45;&gt;Node4 -->
<g id="edge3_Node000001_Node000004" class="edge">
<title>Node1&#45;&gt;Node4</title>
<g id="a_edge3_Node000001_Node000004"><a xlink:title=" ">
<path fill="none" stroke="#63b8ff" d="M438.43,-166.6C359.74,-153.08 199.4,-120.34 171,-74 144.48,-30.74 232.8,-16.8 282.48,-12.43"/>
<polygon fill="#63b8ff" stroke="#63b8ff" points="283.05,-15.89 292.74,-11.61 282.49,-8.92 283.05,-15.89"/>
</a>
</g>
</g>
<!-- Node5 -->
<g id="Node000005" class="node">
<title>Node5</title>
<g id="a_Node000005"><a xlink:title=" ">
<polygon fill="#e0e0e0" stroke="#999999" points="690,-129 618,-129 618,-110 690,-110 690,-129"/>
<text text-anchor="middle" x="654" y="-117" font-family="Inter" font-size="10.00">glib/gi18n.h</text>
</a>
</g>
</g>
<!-- Node1&#45;&gt;Node5 -->
<g id="edge4_Node000001_Node000005" class="edge">
<title>Node1&#45;&gt;Node5</title>
<g id="a_edge4_Node000001_Node000005"><a xlink:title=" ">
<path fill="none" stroke="#63b8ff" d="M509.63,-164.98C538.51,-156.09 584.01,-142.07 616.2,-132.15"/>
<polygon fill="#63b8ff" stroke="#63b8ff" points="617.62,-135.37 626.15,-129.08 615.56,-128.68 617.62,-135.37"/>
</a>
</g>
</g>
<!-- Node6 -->
<g id="Node000006" class="node">
<title>Node6</title>
<g id="a_Node000006"><a xlink:title=" ">
<polygon fill="#e0e0e0" stroke="#999999" points="547.5,-74 488.5,-74 488.5,-55 547.5,-55 547.5,-74"/>
<text text-anchor="middle" x="518" y="-62" font-family="Inter" font-size="10.00">gtk/gtk.h</text>
</a>
</g>
</g>
<!-- Node1&#45;&gt;Node6 -->
<g id="edge5_Node000001_Node000006" class="edge">
<title>Node1&#45;&gt;Node6</title>
<g id="a_edge5_Node000001_Node000006"><a xlink:title=" ">
<path fill="none" stroke="#63b8ff" d="M484.38,-164.81C487.8,-152.52 494.4,-129.39 501,-110 503.96,-101.29 507.56,-91.75 510.68,-83.74"/>
<polygon fill="#63b8ff" stroke="#63b8ff" points="513.99,-84.88 514.42,-74.29 507.48,-82.31 513.99,-84.88"/>
</a>
</g>
</g>
<!-- Node7 -->
<g id="Node000007" class="node">
<title>Node7</title>
<g id="a_Node000007"><a xlink:title=" ">
<polygon fill="#e0e0e0" stroke="#999999" points="802,-129 708,-129 708,-110 802,-110 802,-129"/>
<text text-anchor="middle" x="755" y="-117" font-family="Inter" font-size="10.00">dbus/dbus&#45;glib.h</text>
</a>
</g>
</g>
<!-- Node1&#45;&gt;Node7 -->
<g id="edge6_Node000001_Node000007" class="edge">
<title>Node1&#45;&gt;Node7</title>
<g id="a_edge6_Node000001_Node000007"><a xlink:title=" ">
<path fill="none" stroke="#63b8ff" d="M525.56,-165.04C573.26,-155.78 649.8,-140.92 701.21,-130.94"/>
<polygon fill="#63b8ff" stroke="#63b8ff" points="701.99,-134.36 711.14,-129.01 700.66,-127.48 701.99,-134.36"/>
</a>
</g>
</g>
<!-- Node8 -->
<g id="Node000008" class="node">
<title>Node8</title>
<g id="a_Node000008"><a xlink:title=" ">
<polygon fill="#e0e0e0" stroke="#999999" points="894.5,-74 765.5,-74 765.5,-55 894.5,-55 894.5,-74"/>
<text text-anchor="middle" x="830" y="-62" font-family="Inter" font-size="10.00">libupower&#45;glib/upower.h</text>
</a>
</g>
</g>
<!-- Node1&#45;&gt;Node8 -->
<g id="edge7_Node000001_Node000008" class="edge">
<title>Node1&#45;&gt;Node8</title>
<g id="a_edge7_Node000001_Node000008"><a xlink:title=" ">
<path fill="none" stroke="#63b8ff" d="M525.52,-173.29C604.91,-172.01 768.94,-164.95 811,-129 823.84,-118.03 828.2,-98.76 829.59,-84.32"/>
<polygon fill="#63b8ff" stroke="#63b8ff" points="833.1,-84.21 830.16,-74.03 826.11,-83.82 833.1,-84.21"/>
</a>
</g>
</g>
<!-- Node9 -->
<g id="Node000009" class="node">
<title>Node9</title>
<g id="a_Node000009"><a xlink:href="egg-color_8h.html" target="_top" xlink:title=" ">
<polygon fill="white" stroke="#666666" points="248,-74 180,-74 180,-55 248,-55 248,-74"/>
<text text-anchor="middle" x="214" y="-62" font-family="Inter" font-size="10.00">egg&#45;color.h</text>
</a>
</g>
</g>
<!-- Node1&#45;&gt;Node9 -->
<g id="edge8_Node000001_Node000009" class="edge">
<title>Node1&#45;&gt;Node9</title>
<g id="a_edge8_Node000001_Node000009"><a xlink:title=" ">
<path fill="none" stroke="#63b8ff" d="M438.4,-165.2C404.69,-157.95 357.29,-145.92 318,-129 287,-115.65 254.24,-94.27 233.96,-80.06"/>
<polygon fill="#63b8ff" stroke="#63b8ff" points="235.74,-77.04 225.57,-74.09 231.69,-82.74 235.74,-77.04"/>
</a>
</g>
</g>
<!-- Node10 -->
<g id="Node000010" class="node">
<title>Node10</title>
<g id="a_Node000010"><a xlink:href="egg-array-float_8h.html" target="_top" xlink:title=" ">
<polygon fill="white" stroke="#666666" points="361.5,-74 266.5,-74 266.5,-55 361.5,-55 361.5,-74"/>
<text text-anchor="middle" x="314" y="-62" font-family="Inter" font-size="10.00">egg&#45;array&#45;float.h</text>
</a>
</g>
</g>
<!-- Node1&#45;&gt;Node10 -->
<g id="edge10_Node000001_Node000010" class="edge">
<title>Node1&#45;&gt;Node10</title>
<g id="a_edge10_Node000001_Node000010"><a xlink:title=" ">
<path fill="none" stroke="#63b8ff" d="M438.21,-171.31C405.12,-167.35 360.78,-156.77 333,-129 321.18,-117.19 316.66,-98.35 314.96,-84.25"/>
<polygon fill="#63b8ff" stroke="#63b8ff" points="318.44,-83.86 314.11,-74.19 311.46,-84.45 318.44,-83.86"/>
</a>
</g>
</g>
<!-- Node11 -->
<g id="Node000011" class="node">
<title>Node11</title>
<g id="a_Node000011"><a xlink:href="src_2gpm-common_8h.html" target="_top" xlink:title=" ">
<polygon fill="white" stroke="#666666" points="600,-129 510,-129 510,-110 600,-110 600,-129"/>
<text text-anchor="middle" x="555" y="-117" font-family="Inter" font-size="10.00">gpm&#45;common.h</text>
</a>
</g>
</g>
<!-- Node1&#45;&gt;Node11 -->
<g id="edge12_Node000001_Node000011" class="edge">
<title>Node1&#45;&gt;Node11</title>
<g id="a_edge12_Node000001_Node000011"><a xlink:title=" ">
<path fill="none" stroke="#63b8ff" d="M493.73,-164.98C504.73,-157 521.42,-144.88 534.6,-135.31"/>
<polygon fill="#63b8ff" stroke="#63b8ff" points="537.02,-137.88 543.06,-129.17 532.91,-132.21 537.02,-137.88"/>
</a>
</g>
</g>
<!-- Node13 -->
<g id="Node000013" class="node">
<title>Node13</title>
<g id="a_Node000013"><a xlink:href="gpm-icon-names_8h.html" target="_top" xlink:title=" ">
<polygon fill="white" stroke="#666666" points="1062,-129 960,-129 960,-110 1062,-110 1062,-129"/>
<text text-anchor="middle" x="1011" y="-117" font-family="Inter" font-size="10.00">gpm&#45;icon&#45;names.h</text>
</a>
</g>
</g>
<!-- Node1&#45;&gt;Node13 -->
<g id="edge16_Node000001_Node000013" class="edge">
<title>Node1&#45;&gt;Node13</title>
<g id="a_edge16_Node000001_Node000013"><a xlink:title=" ">
<path fill="none" stroke="#63b8ff" d="M525.72,-170.03C607.03,-163.43 787.26,-148.1 949.77,-129.09"/>
<polygon fill="#63b8ff" stroke="#63b8ff" points="950.44,-132.54 959.96,-127.89 949.62,-125.59 950.44,-132.54"/>
</a>
</g>
</g>
<!-- Node14 -->
<g id="Node000014" class="node">
<title>Node14</title>
<g id="a_Node000014"><a xlink:href="gpm-upower_8h.html" target="_top" xlink:title=" ">
<polygon fill="white" stroke="#666666" points="941.5,-129 858.5,-129 858.5,-110 941.5,-110 941.5,-129"/>
<text text-anchor="middle" x="900" y="-117" font-family="Inter" font-size="10.00">gpm&#45;upower.h</text>
</a>
</g>
</g>
<!-- Node1&#45;&gt;Node14 -->
<g id="edge17_Node000001_Node000014" class="edge">
<title>Node1&#45;&gt;Node14</title>
<g id="a_edge17_Node000001_Node000014"><a xlink:title=" ">
<path fill="none" stroke="#63b8ff" d="M525.52,-168.55C593.55,-160.73 729.2,-144.77 844,-129 845.46,-128.8 846.94,-128.59 848.44,-128.38"/>
<polygon fill="#63b8ff" stroke="#63b8ff" points="849.03,-131.83 858.43,-126.94 848.03,-124.9 849.03,-131.83"/>
</a>
</g>
</g>
<!-- Node16 -->
<g id="Node000016" class="node">
<title>Node16</title>
<g id="a_Node000016"><a xlink:href="gpm-graph-widget_8h.html" target="_top" xlink:title=" ">
<polygon fill="white" stroke="#666666" points="453.5,-129 342.5,-129 342.5,-110 453.5,-110 453.5,-129"/>
<text text-anchor="middle" x="398" y="-117" font-family="Inter" font-size="10.00">gpm&#45;graph&#45;widget.h</text>
</a>
</g>
</g>
<!-- Node1&#45;&gt;Node16 -->
<g id="edge20_Node000001_Node000016" class="edge">
<title>Node1&#45;&gt;Node16</title>
<g id="a_edge20_Node000001_Node000016"><a xlink:title=" ">
<path fill="none" stroke="#63b8ff" d="M468.5,-164.98C455.6,-156.84 435.9,-144.41 420.6,-134.76"/>
<polygon fill="#63b8ff" stroke="#63b8ff" points="422.07,-131.55 411.74,-129.17 418.33,-137.47 422.07,-131.55"/>
</a>
</g>
</g>
<!-- Node9&#45;&gt;Node4 -->
<g id="edge9_Node000009_Node000004" class="edge">
<title>Node9&#45;&gt;Node4</title>
<g id="a_edge9_Node000009_Node000004"><a xlink:title=" ">
<path fill="none" stroke="#63b8ff" d="M230.07,-54.98C245.86,-46.61 270.22,-33.7 288.63,-23.95"/>
<polygon fill="#63b8ff" stroke="#63b8ff" points="290.44,-26.95 297.64,-19.17 287.17,-20.76 290.44,-26.95"/>
</a>
</g>
</g>
<!-- Node10&#45;&gt;Node4 -->
<g id="edge11_Node000010_Node000004" class="edge">
<title>Node10&#45;&gt;Node4</title>
<g id="a_edge11_Node000010_Node000004"><a xlink:title=" ">
<path fill="none" stroke="#63b8ff" d="M314,-54.75C314,-47.8 314,-37.85 314,-29.13"/>
<polygon fill="#63b8ff" stroke="#63b8ff" points="317.5,-29.09 314,-19.09 310.5,-29.09 317.5,-29.09"/>
</a>
</g>
</g>
<!-- Node11&#45;&gt;Node4 -->
<g id="edge13_Node000011_Node000004" class="edge">
<title>Node11&#45;&gt;Node4</title>
<g id="a_edge13_Node000011_Node000004"><a xlink:title=" ">
<path fill="none" stroke="#63b8ff" d="M558.27,-109.96C562.79,-96.57 568.98,-70.59 556,-55 529.56,-23.25 404.88,-14.07 345.54,-11.49"/>
<polygon fill="#63b8ff" stroke="#63b8ff" points="345.39,-7.98 335.26,-11.07 345.11,-14.97 345.39,-7.98"/>
</a>
</g>
</g>
<!-- Node11&#45;&gt;Node6 -->
<g id="edge14_Node000011_Node000006" class="edge">
<title>Node11&#45;&gt;Node6</title>
<g id="a_edge14_Node000011_Node000006"><a xlink:title=" ">
<path fill="none" stroke="#63b8ff" d="M548.89,-109.75C543.72,-102.34 536.15,-91.5 529.81,-82.41"/>
<polygon fill="#63b8ff" stroke="#63b8ff" points="532.59,-80.29 524,-74.09 526.85,-84.29 532.59,-80.29"/>
</a>
</g>
</g>
<!-- Node12 -->
<g id="Node000012" class="node">
<title>Node12</title>
<g id="a_Node000012"><a xlink:title=" ">
<polygon fill="#e0e0e0" stroke="#999999" points="658,-74 604,-74 604,-55 658,-55 658,-74"/>
<text text-anchor="middle" x="631" y="-62" font-family="Inter" font-size="10.00">unistd.h</text>
</a>
</g>
</g>
<!-- Node11&#45;&gt;Node12 -->
<g id="edge15_Node000011_Node000012" class="edge">
<title>Node11&#45;&gt;Node12</title>
<g id="a_edge15_Node000011_Node000012"><a xlink:title=" ">
<path fill="none" stroke="#63b8ff" d="M567.21,-109.98C578.78,-101.92 596.38,-89.65 610.16,-80.03"/>
<polygon fill="#63b8ff" stroke="#63b8ff" points="612.37,-82.76 618.57,-74.17 608.36,-77.02 612.37,-82.76"/>
</a>
</g>
</g>
<!-- Node14&#45;&gt;Node8 -->
<g id="edge19_Node000014_Node000008" class="edge">
<title>Node14&#45;&gt;Node8</title>
<g id="a_edge19_Node000014_Node000008"><a xlink:title=" ">
<path fill="none" stroke="#63b8ff" d="M888.75,-109.98C878.2,-102 862.2,-89.88 849.56,-80.31"/>
<polygon fill="#63b8ff" stroke="#63b8ff" points="851.54,-77.42 841.45,-74.17 847.31,-83 851.54,-77.42"/>
</a>
</g>
</g>
<!-- Node15 -->
<g id="Node000015" class="node">
<title>Node15</title>
<g id="a_Node000015"><a xlink:title=" ">
<polygon fill="#e0e0e0" stroke="#999999" points="987,-74 913,-74 913,-55 987,-55 987,-74"/>
<text text-anchor="middle" x="950" y="-62" font-family="Inter" font-size="10.00">glib&#45;object.h</text>
</a>
</g>
</g>
<!-- Node14&#45;&gt;Node15 -->
<g id="edge18_Node000014_Node000015" class="edge">
<title>Node14&#45;&gt;Node15</title>
<g id="a_edge18_Node000014_Node000015"><a xlink:title=" ">
<path fill="none" stroke="#63b8ff" d="M908.26,-109.75C915.46,-102.11 926.11,-90.82 934.85,-81.56"/>
<polygon fill="#63b8ff" stroke="#63b8ff" points="937.58,-83.76 941.9,-74.09 932.49,-78.96 937.58,-83.76"/>
</a>
</g>
</g>
<!-- Node16&#45;&gt;Node6 -->
<g id="edge21_Node000016_Node000006" class="edge">
<title>Node16&#45;&gt;Node6</title>
<g id="a_edge21_Node000016_Node000006"><a xlink:title=" ">
<path fill="none" stroke="#63b8ff" d="M417.28,-109.98C436.67,-101.42 466.81,-88.11 489.07,-78.28"/>
<polygon fill="#63b8ff" stroke="#63b8ff" points="490.64,-81.41 498.37,-74.17 487.81,-75.01 490.64,-81.41"/>
</a>
</g>
</g>
<!-- Node17 -->
<g id="Node000017" class="node">
<title>Node17</title>
<g id="a_Node000017"><a xlink:href="gpm-point-obj_8h.html" target="_top" xlink:title=" ">
<polygon fill="white" stroke="#666666" points="470.5,-74 379.5,-74 379.5,-55 470.5,-55 470.5,-74"/>
<text text-anchor="middle" x="425" y="-62" font-family="Inter" font-size="10.00">gpm&#45;point&#45;obj.h</text>
</a>
</g>
</g>
<!-- Node16&#45;&gt;Node17 -->
<g id="edge22_Node000016_Node000017" class="edge">
<title>Node16&#45;&gt;Node17</title>
<g id="a_edge22_Node000016_Node000017"><a xlink:title=" ">
<path fill="none" stroke="#63b8ff" d="M402.46,-109.75C406.12,-102.57 411.41,-92.18 415.95,-83.27"/>
<polygon fill="#63b8ff" stroke="#63b8ff" points="419.2,-84.59 420.62,-74.09 412.97,-81.41 419.2,-84.59"/>
</a>
</g>
</g>
<!-- Node17&#45;&gt;Node4 -->
<g id="edge23_Node000017_Node000004" class="edge">
<title>Node17&#45;&gt;Node4</title>
<g id="a_edge23_Node000017_Node000004"><a xlink:title=" ">
<path fill="none" stroke="#63b8ff" d="M407.17,-54.98C389.39,-46.5 361.85,-33.35 341.32,-23.54"/>
<polygon fill="#63b8ff" stroke="#63b8ff" points="342.69,-20.32 332.16,-19.17 339.67,-26.64 342.69,-20.32"/>
</a>
</g>
</g>
</g>
</svg>

<g id="navigator" transform="translate(0 0)" fill="#404254">
  <rect fill="#f2f5e9" fill-opacity="0.5" stroke="#606060" stroke-width=".5" x="0" y="0" width="60" height="60"/>
  <use id="zoomplus" xlink:href="#zoomPlus" x="17" y="9" onmousedown="handleZoom(evt,'in')"/>
  <use id="zoomminus" xlink:href="#zoomMin" x="42" y="9" onmousedown="handleZoom(evt,'out')"/>
  <use id="reset" xlink:href="#resetDef" x="30" y="36" onmousedown="handleReset()"/>
   <use id="arrowup" xlink:href="#arrowUp" x="0" y="0" onmousedown="handlePan(0,-1)"/>
  <use id="arrowright" xlink:href="#arrowRight" x="0" y="0" onmousedown="handlePan(1,0)"/>
  <use id="arrowdown" xlink:href="#arrowDown" x="0" y="0" onmousedown="handlePan(0,1)"/>
  <use id="arrowleft" xlink:href="#arrowLeft" x="0" y="0" onmousedown="handlePan(-1,0)"/>
</g>
<svg viewBox="0 0 15 15" width="100%" height="30px" preserveAspectRatio="xMaxYMin meet">
 <g id="arrow_out" transform="scale(0.3 0.3)">
  <a xlink:href="gpm-statistics_8c__incl_org.svg" target="_base">
   <rect id="button" ry="5" rx="5" y="6" x="6" height="38" width="38"
        fill="#f2f5e9" fill-opacity="0.5" stroke="#606060" stroke-width="1.0"/>
   <path id="arrow"
     d="M 11.500037,31.436501 C 11.940474,20.09759 22.043105,11.32322 32.158766,21.979434 L 37.068811,17.246167 C 37.068811,17.246167 37.088388,32 37.088388,32 L 22.160133,31.978069 C 22.160133,31.978069 26.997745,27.140456 26.997745,27.140456 C 18.528582,18.264221 13.291696,25.230495 11.500037,31.436501 z"
     style="fill:#404040;"/>
  </a>
 </g>
</svg>

<style type='text/css'>
<![CDATA[
[data-mouse-over-selected='false'] { opacity: 0.7; }
[data-mouse-over-selected='true']  { opacity: 1.0; }
]]>
</style>
<script type="application/ecmascript"><![CDATA[
document.addEventListener('DOMContentLoaded', (event) => {
  highlightEdges();
  highlightAdjacentNodes();
});
]]></script>
</svg>
