<?xml version="1.0" encoding="UTF-8" standalone="no"?>
<!DOCTYPE svg PUBLIC "-//W3C//DTD SVG 1.1//EN"
 "http://www.w3.org/Graphics/SVG/1.1/DTD/svg11.dtd">
<!-- Generated by graphviz version 2.43.0 (0)
 -->
<!-- Title: gs&#45;watcher&#45;x11.c Pages: 1 -->
<!--zoomable 137 -->

<svg id="main" version="1.1" xmlns="http://www.w3.org/2000/svg" xmlns:xlink="http://www.w3.org/1999/xlink" xml:space="preserve" onload="init(evt)">

<style type="text/css"><![CDATA[
.node, .edge {opacity: 0.7;}
.node.selected, .edge.selected {opacity: 1;}
.edge:hover path { stroke: red; }
.edge:hover polygon { stroke: red; fill: red; }
]]></style>

<defs>
  <circle id="rim" cx="0" cy="0" r="7"/>
  <circle id="rim2" cx="0" cy="0" r="3.5"/>
  <g id="zoomPlus">
    <use xlink:href="#rim" fill="#404040"><set attributeName="fill" to="#808080" begin="zoomplus.mouseover" end="zoomplus.mouseout"/></use>
    <path d="M-4,0h8M0,-4v8" fill="none" stroke="white" stroke-width="1.5" pointer-events="none"/>
  </g>
  <g id="zoomMin">
    <use xlink:href="#rim" fill="#404040"><set attributeName="fill" to="#808080" begin="zoomminus.mouseover" end="zoomminus.mouseout"/></use>
    <path d="M-4,0h8" fill="none" stroke="white" stroke-width="1.5" pointer-events="none"/>
  </g>
  <g id="arrowUp" transform="translate(30 24)">
    <use xlink:href="#rim"/>
    <path pointer-events="none" fill="none" stroke="white" stroke-width="1.5" d="M0,-3.0v7 M-2.5,-0.5L0,-3.0L2.5,-0.5"/>
  </g>
  <g id="arrowRight" transform="rotate(90) translate(36 -43)">
    <use xlink:href="#rim"/>
    <path pointer-events="none" fill="none" stroke="white" stroke-width="1.5" d="M0,-3.0v7 M-2.5,-0.5L0,-3.0L2.5,-0.5"/>
  </g>
  <g id="arrowDown" transform="rotate(180) translate(-30 -48)">
    <use xlink:href="#rim"/>
    <path pointer-events="none" fill="none" stroke="white" stroke-width="1.5" d="M0,-3.0v7 M-2.5,-0.5L0,-3.0L2.5,-0.5"/>
  </g>
  <g id="arrowLeft" transform="rotate(270) translate(-36 17)">
    <use xlink:href="#rim"/>
    <path pointer-events="none" fill="none" stroke="white" stroke-width="1.5" d="M0,-3.0v7 M-2.5,-0.5L0,-3.0L2.5,-0.5"/>
  </g>
  <g id="resetDef">
    <use xlink:href="#rim2" fill="#404040"><set attributeName="fill" to="#808080" begin="reset.mouseover" end="reset.mouseout"/></use>
  </g>
</defs>
<script type="application/ecmascript">
var viewWidth = 969;
var viewHeight = 137;
var sectionId = 'dynsection-0';
</script>
<script type="application/ecmascript" xlink:href="svg.min.js"/>
<svg id="graph" class="graph">
<g id="viewport">
<title>gs&#45;watcher&#45;x11.c</title>
<!-- Node1 -->
<g id="Node000001" class="node">
<title>Node1</title>
<g id="a_Node000001"><a xlink:title=" ">
<polygon fill="#999999" stroke="#666666" points="455.5,-129 360.5,-129 360.5,-110 455.5,-110 455.5,-129"/>
<text text-anchor="middle" x="408" y="-117" font-family="Inter" font-size="10.00">gs&#45;watcher&#45;x11.c</text>
</a>
</g>
</g>
<!-- Node2 -->
<g id="Node000002" class="node">
<title>Node2</title>
<g id="a_Node000002"><a xlink:title=" ">
<polygon fill="#e0e0e0" stroke="#999999" points="54,-74 0,-74 0,-55 54,-55 54,-74"/>
<text text-anchor="middle" x="27" y="-62" font-family="Inter" font-size="10.00">config.h</text>
</a>
</g>
</g>
<!-- Node1&#45;&gt;Node2 -->
<g id="edge1_Node000001_Node000002" class="edge">
<title>Node1&#45;&gt;Node2</title>
<g id="a_edge1_Node000001_Node000002"><a xlink:title=" ">
<path fill="none" stroke="#63b8ff" d="M360.32,-113.93C295.49,-107.37 175.74,-94.01 64.14,-74.03"/>
<polygon fill="#63b8ff" stroke="#63b8ff" points="64.53,-70.55 54.06,-72.21 63.28,-77.43 64.53,-70.55"/>
</a>
</g>
</g>
<!-- Node3 -->
<g id="Node000003" class="node">
<title>Node3</title>
<g id="a_Node000003"><a xlink:title=" ">
<polygon fill="#e0e0e0" stroke="#999999" points="122,-74 72,-74 72,-55 122,-55 122,-74"/>
<text text-anchor="middle" x="97" y="-62" font-family="Inter" font-size="10.00">stdlib.h</text>
</a>
</g>
</g>
<!-- Node1&#45;&gt;Node3 -->
<g id="edge2_Node000001_Node000003" class="edge">
<title>Node1&#45;&gt;Node3</title>
<g id="a_edge2_Node000001_Node000003"><a xlink:title=" ">
<path fill="none" stroke="#63b8ff" d="M360.23,-112.09C306.9,-104.66 217.84,-91.41 132.09,-74.08"/>
<polygon fill="#63b8ff" stroke="#63b8ff" points="132.69,-70.63 122.2,-72.05 131.29,-77.49 132.69,-70.63"/>
</a>
</g>
</g>
<!-- Node4 -->
<g id="Node000004" class="node">
<title>Node4</title>
<g id="a_Node000004"><a xlink:title=" ">
<polygon fill="#e0e0e0" stroke="#999999" points="188,-74 140,-74 140,-55 188,-55 188,-74"/>
<text text-anchor="middle" x="164" y="-62" font-family="Inter" font-size="10.00">stdio.h</text>
</a>
</g>
</g>
<!-- Node1&#45;&gt;Node4 -->
<g id="edge3_Node000001_Node000004" class="edge">
<title>Node1&#45;&gt;Node4</title>
<g id="a_edge3_Node000001_Node000004"><a xlink:title=" ">
<path fill="none" stroke="#63b8ff" d="M364.64,-109.94C323.98,-101.78 261.27,-88.87 197.88,-74.13"/>
<polygon fill="#63b8ff" stroke="#63b8ff" points="198.65,-70.71 188.12,-71.84 197.06,-77.53 198.65,-70.71"/>
</a>
</g>
</g>
<!-- Node5 -->
<g id="Node000005" class="node">
<title>Node5</title>
<g id="a_Node000005"><a xlink:title=" ">
<polygon fill="#e0e0e0" stroke="#999999" points="253.5,-74 206.5,-74 206.5,-55 253.5,-55 253.5,-74"/>
<text text-anchor="middle" x="230" y="-62" font-family="Inter" font-size="10.00">time.h</text>
</a>
</g>
</g>
<!-- Node1&#45;&gt;Node5 -->
<g id="edge4_Node000001_Node000005" class="edge">
<title>Node1&#45;&gt;Node5</title>
<g id="a_edge4_Node000001_Node000005"><a xlink:title=" ">
<path fill="none" stroke="#63b8ff" d="M379.4,-109.98C347.78,-100.57 296.91,-85.42 263.47,-75.46"/>
<polygon fill="#63b8ff" stroke="#63b8ff" points="264.27,-72.05 253.69,-72.55 262.27,-78.76 264.27,-72.05"/>
</a>
</g>
</g>
<!-- Node6 -->
<g id="Node000006" class="node">
<title>Node6</title>
<g id="a_Node000006"><a xlink:title=" ">
<polygon fill="#e0e0e0" stroke="#999999" points="324.5,-74 271.5,-74 271.5,-55 324.5,-55 324.5,-74"/>
<text text-anchor="middle" x="298" y="-62" font-family="Inter" font-size="10.00">errno.h</text>
</a>
</g>
</g>
<!-- Node1&#45;&gt;Node6 -->
<g id="edge5_Node000001_Node000006" class="edge">
<title>Node1&#45;&gt;Node6</title>
<g id="a_edge5_Node000001_Node000006"><a xlink:title=" ">
<path fill="none" stroke="#63b8ff" d="M390.33,-109.98C372.71,-101.5 345.42,-88.35 325.07,-78.54"/>
<polygon fill="#63b8ff" stroke="#63b8ff" points="326.52,-75.36 315.99,-74.17 323.48,-81.66 326.52,-75.36"/>
</a>
</g>
</g>
<!-- Node7 -->
<g id="Node000007" class="node">
<title>Node7</title>
<g id="a_Node000007"><a xlink:title=" ">
<polygon fill="#e0e0e0" stroke="#999999" points="395.5,-74 342.5,-74 342.5,-55 395.5,-55 395.5,-74"/>
<text text-anchor="middle" x="369" y="-62" font-family="Inter" font-size="10.00">string.h</text>
</a>
</g>
</g>
<!-- Node1&#45;&gt;Node7 -->
<g id="edge6_Node000001_Node000007" class="edge">
<title>Node1&#45;&gt;Node7</title>
<g id="a_edge6_Node000001_Node000007"><a xlink:title=" ">
<path fill="none" stroke="#63b8ff" d="M401.56,-109.75C396.11,-102.34 388.14,-91.5 381.44,-82.41"/>
<polygon fill="#63b8ff" stroke="#63b8ff" points="384.07,-80.07 375.32,-74.09 378.43,-84.22 384.07,-80.07"/>
</a>
</g>
</g>
<!-- Node8 -->
<g id="Node000008" class="node">
<title>Node8</title>
<g id="a_Node000008"><a xlink:title=" ">
<polygon fill="#e0e0e0" stroke="#999999" points="482.5,-74 413.5,-74 413.5,-55 482.5,-55 482.5,-74"/>
<text text-anchor="middle" x="448" y="-62" font-family="Inter" font-size="10.00">gdk/gdkx.h</text>
</a>
</g>
</g>
<!-- Node1&#45;&gt;Node8 -->
<g id="edge7_Node000001_Node000008" class="edge">
<title>Node1&#45;&gt;Node8</title>
<g id="a_edge7_Node000001_Node000008"><a xlink:title=" ">
<path fill="none" stroke="#63b8ff" d="M414.61,-109.75C420.26,-102.26 428.54,-91.28 435.45,-82.13"/>
<polygon fill="#63b8ff" stroke="#63b8ff" points="438.29,-84.18 441.52,-74.09 432.7,-79.96 438.29,-84.18"/>
</a>
</g>
</g>
<!-- Node9 -->
<g id="Node000009" class="node">
<title>Node9</title>
<g id="a_Node000009"><a xlink:title=" ">
<polygon fill="#e0e0e0" stroke="#999999" points="575,-74 501,-74 501,-55 575,-55 575,-74"/>
<text text-anchor="middle" x="538" y="-62" font-family="Inter" font-size="10.00">dbus/dbus.h</text>
</a>
</g>
</g>
<!-- Node1&#45;&gt;Node9 -->
<g id="edge8_Node000001_Node000009" class="edge">
<title>Node1&#45;&gt;Node9</title>
<g id="a_edge8_Node000001_Node000009"><a xlink:title=" ">
<path fill="none" stroke="#63b8ff" d="M428.89,-109.98C450.08,-101.34 483.13,-87.87 507.3,-78.02"/>
<polygon fill="#63b8ff" stroke="#63b8ff" points="508.79,-81.19 516.73,-74.17 506.15,-74.7 508.79,-81.19"/>
</a>
</g>
</g>
<!-- Node10 -->
<g id="Node000010" class="node">
<title>Node10</title>
<g id="a_Node000010"><a xlink:title=" ">
<polygon fill="#e0e0e0" stroke="#999999" points="687,-74 593,-74 593,-55 687,-55 687,-74"/>
<text text-anchor="middle" x="640" y="-62" font-family="Inter" font-size="10.00">dbus/dbus&#45;glib.h</text>
</a>
</g>
</g>
<!-- Node1&#45;&gt;Node10 -->
<g id="edge9_Node000001_Node000010" class="edge">
<title>Node1&#45;&gt;Node10</title>
<g id="a_edge9_Node000001_Node000010"><a xlink:title=" ">
<path fill="none" stroke="#63b8ff" d="M445.27,-109.98C485.32,-100.84 549.07,-86.27 592.64,-76.32"/>
<polygon fill="#63b8ff" stroke="#63b8ff" points="593.46,-79.72 602.43,-74.08 591.9,-72.9 593.46,-79.72"/>
</a>
</g>
</g>
<!-- Node11 -->
<g id="Node000011" class="node">
<title>Node11</title>
<g id="a_Node000011"><a xlink:href="gs-watcher_8h.html" target="_top" xlink:title=" ">
<polygon fill="white" stroke="#666666" points="873,-74 799,-74 799,-55 873,-55 873,-74"/>
<text text-anchor="middle" x="836" y="-62" font-family="Inter" font-size="10.00">gs&#45;watcher.h</text>
</a>
</g>
</g>
<!-- Node1&#45;&gt;Node11 -->
<g id="edge10_Node000001_Node000011" class="edge">
<title>Node1&#45;&gt;Node11</title>
<g id="a_edge10_Node000001_Node000011"><a xlink:title=" ">
<path fill="none" stroke="#63b8ff" d="M455.78,-113.97C526.33,-107.05 662.73,-92.81 788.67,-74.11"/>
<polygon fill="#63b8ff" stroke="#63b8ff" points="789.51,-77.52 798.88,-72.58 788.47,-70.6 789.51,-77.52"/>
</a>
</g>
</g>
<!-- Node13 -->
<g id="Node000013" class="node">
<title>Node13</title>
<g id="a_Node000013"><a xlink:href="gs-marshal_8h.html" target="_top" xlink:title=" ">
<polygon fill="white" stroke="#666666" points="781,-74 705,-74 705,-55 781,-55 781,-74"/>
<text text-anchor="middle" x="743" y="-62" font-family="Inter" font-size="10.00">gs&#45;marshal.h</text>
</a>
</g>
</g>
<!-- Node1&#45;&gt;Node13 -->
<g id="edge12_Node000001_Node000013" class="edge">
<title>Node1&#45;&gt;Node13</title>
<g id="a_edge12_Node000001_Node000013"><a xlink:title=" ">
<path fill="none" stroke="#63b8ff" d="M455.71,-111.51C510.82,-103.35 604.47,-89.23 694.67,-74.19"/>
<polygon fill="#63b8ff" stroke="#63b8ff" points="695.51,-77.6 704.79,-72.49 694.35,-70.69 695.51,-77.6"/>
</a>
</g>
</g>
<!-- Node15 -->
<g id="Node000015" class="node">
<title>Node15</title>
<g id="a_Node000015"><a xlink:href="gs-debug_8h.html" target="_top" xlink:title=" ">
<polygon fill="white" stroke="#666666" points="960.5,-74 891.5,-74 891.5,-55 960.5,-55 960.5,-74"/>
<text text-anchor="middle" x="926" y="-62" font-family="Inter" font-size="10.00">gs&#45;debug.h</text>
</a>
</g>
</g>
<!-- Node1&#45;&gt;Node15 -->
<g id="edge14_Node000001_Node000015" class="edge">
<title>Node1&#45;&gt;Node15</title>
<g id="a_edge14_Node000001_Node000015"><a xlink:title=" ">
<path fill="none" stroke="#63b8ff" d="M455.61,-115.57C539.48,-110.07 719.18,-96.79 881.31,-73.95"/>
<polygon fill="#63b8ff" stroke="#63b8ff" points="882.06,-77.38 891.47,-72.5 881.07,-70.45 882.06,-77.38"/>
</a>
</g>
</g>
<!-- Node12 -->
<g id="Node000012" class="node">
<title>Node12</title>
<g id="a_Node000012"><a xlink:title=" ">
<polygon fill="#e0e0e0" stroke="#999999" points="868,-19 826,-19 826,0 868,0 868,-19"/>
<text text-anchor="middle" x="847" y="-7" font-family="Inter" font-size="10.00">glib.h</text>
</a>
</g>
</g>
<!-- Node11&#45;&gt;Node12 -->
<g id="edge11_Node000011_Node000012" class="edge">
<title>Node11&#45;&gt;Node12</title>
<g id="a_edge11_Node000011_Node000012"><a xlink:title=" ">
<path fill="none" stroke="#63b8ff" d="M837.82,-54.75C839.26,-47.8 841.32,-37.85 843.13,-29.13"/>
<polygon fill="#63b8ff" stroke="#63b8ff" points="846.61,-29.59 845.22,-19.09 839.76,-28.17 846.61,-29.59"/>
</a>
</g>
</g>
<!-- Node14 -->
<g id="Node000014" class="node">
<title>Node14</title>
<g id="a_Node000014"><a xlink:title=" ">
<polygon fill="#e0e0e0" stroke="#999999" points="780,-19 706,-19 706,0 780,0 780,-19"/>
<text text-anchor="middle" x="743" y="-7" font-family="Inter" font-size="10.00">glib&#45;object.h</text>
</a>
</g>
</g>
<!-- Node13&#45;&gt;Node14 -->
<g id="edge13_Node000013_Node000014" class="edge">
<title>Node13&#45;&gt;Node14</title>
<g id="a_edge13_Node000013_Node000014"><a xlink:title=" ">
<path fill="none" stroke="#63b8ff" d="M743,-54.75C743,-47.8 743,-37.85 743,-29.13"/>
<polygon fill="#63b8ff" stroke="#63b8ff" points="746.5,-29.09 743,-19.09 739.5,-29.09 746.5,-29.09"/>
</a>
</g>
</g>
<!-- Node15&#45;&gt;Node12 -->
<g id="edge16_Node000015_Node000012" class="edge">
<title>Node15&#45;&gt;Node12</title>
<g id="a_edge16_Node000015_Node000012"><a xlink:title=" ">
<path fill="none" stroke="#63b8ff" d="M913.31,-54.98C901.17,-46.84 882.64,-34.41 868.25,-24.76"/>
<polygon fill="#63b8ff" stroke="#63b8ff" points="870.18,-21.84 859.92,-19.17 866.28,-27.65 870.18,-21.84"/>
</a>
</g>
</g>
<!-- Node16 -->
<g id="Node000016" class="node">
<title>Node16</title>
<g id="a_Node000016"><a xlink:title=" ">
<polygon fill="#e0e0e0" stroke="#999999" points="953.5,-19 898.5,-19 898.5,0 953.5,0 953.5,-19"/>
<text text-anchor="middle" x="926" y="-7" font-family="Inter" font-size="10.00">stdarg.h</text>
</a>
</g>
</g>
<!-- Node15&#45;&gt;Node16 -->
<g id="edge15_Node000015_Node000016" class="edge">
<title>Node15&#45;&gt;Node16</title>
<g id="a_edge15_Node000015_Node000016"><a xlink:title=" ">
<path fill="none" stroke="#63b8ff" d="M926,-54.75C926,-47.8 926,-37.85 926,-29.13"/>
<polygon fill="#63b8ff" stroke="#63b8ff" points="929.5,-29.09 926,-19.09 922.5,-29.09 929.5,-29.09"/>
</a>
</g>
</g>
</g>
</svg>

<g id="navigator" transform="translate(0 0)" fill="#404254">
  <rect fill="#f2f5e9" fill-opacity="0.5" stroke="#606060" stroke-width=".5" x="0" y="0" width="60" height="60"/>
  <use id="zoomplus" xlink:href="#zoomPlus" x="17" y="9" onmousedown="handleZoom(evt,'in')"/>
  <use id="zoomminus" xlink:href="#zoomMin" x="42" y="9" onmousedown="handleZoom(evt,'out')"/>
  <use id="reset" xlink:href="#resetDef" x="30" y="36" onmousedown="handleReset()"/>
   <use id="arrowup" xlink:href="#arrowUp" x="0" y="0" onmousedown="handlePan(0,-1)"/>
  <use id="arrowright" xlink:href="#arrowRight" x="0" y="0" onmousedown="handlePan(1,0)"/>
  <use id="arrowdown" xlink:href="#arrowDown" x="0" y="0" onmousedown="handlePan(0,1)"/>
  <use id="arrowleft" xlink:href="#arrowLeft" x="0" y="0" onmousedown="handlePan(-1,0)"/>
</g>
<svg viewBox="0 0 15 15" width="100%" height="30px" preserveAspectRatio="xMaxYMin meet">
 <g id="arrow_out" transform="scale(0.3 0.3)">
  <a xlink:href="gs-watcher-x11_8c__incl_org.svg" target="_base">
   <rect id="button" ry="5" rx="5" y="6" x="6" height="38" width="38"
        fill="#f2f5e9" fill-opacity="0.5" stroke="#606060" stroke-width="1.0"/>
   <path id="arrow"
     d="M 11.500037,31.436501 C 11.940474,20.09759 22.043105,11.32322 32.158766,21.979434 L 37.068811,17.246167 C 37.068811,17.246167 37.088388,32 37.088388,32 L 22.160133,31.978069 C 22.160133,31.978069 26.997745,27.140456 26.997745,27.140456 C 18.528582,18.264221 13.291696,25.230495 11.500037,31.436501 z"
     style="fill:#404040;"/>
  </a>
 </g>
</svg>

<style type='text/css'>
<![CDATA[
[data-mouse-over-selected='false'] { opacity: 0.7; }
[data-mouse-over-selected='true']  { opacity: 1.0; }
]]>
</style>
<script type="application/ecmascript"><![CDATA[
document.addEventListener('DOMContentLoaded', (event) => {
  highlightEdges();
  highlightAdjacentNodes();
});
]]></script>
</svg>
