<?xml version="1.0" encoding="UTF-8" standalone="no"?>
<!DOCTYPE svg PUBLIC "-//W3C//DTD SVG 1.1//EN"
 "http://www.w3.org/Graphics/SVG/1.1/DTD/svg11.dtd">
<!-- Generated by graphviz version 2.43.0 (0)
 -->
<!-- Title: gsearchtool&#45;entry.c Pages: 1 -->
<svg width="354pt" height="82pt"
 viewBox="0.00 0.00 354.00 82.00" xmlns="http://www.w3.org/2000/svg" xmlns:xlink="http://www.w3.org/1999/xlink">
<g id="graph0" class="graph" transform="scale(1 1) rotate(0) translate(4 78)">
<title>gsearchtool&#45;entry.c</title>
<!-- Node1 -->
<g id="Node000001" class="node">
<title>Node1</title>
<g id="a_Node000001"><a xlink:title=" ">
<polygon fill="#999999" stroke="#666666" points="202.5,-74 96.5,-74 96.5,-55 202.5,-55 202.5,-74"/>
<text text-anchor="middle" x="149.5" y="-62" font-family="Inter" font-size="10.00">gsearchtool&#45;entry.c</text>
</a>
</g>
</g>
<!-- Node2 -->
<g id="Node000002" class="node">
<title>Node2</title>
<g id="a_Node000002"><a xlink:title=" ">
<polygon fill="#e0e0e0" stroke="#999999" points="53,-19 0,-19 0,0 53,0 53,-19"/>
<text text-anchor="middle" x="26.5" y="-7" font-family="Inter" font-size="10.00">string.h</text>
</a>
</g>
</g>
<!-- Node1&#45;&gt;Node2 -->
<g id="edge1_Node000001_Node000002" class="edge">
<title>Node1&#45;&gt;Node2</title>
<g id="a_edge1_Node000001_Node000002"><a xlink:title=" ">
<path fill="none" stroke="#63b8ff" d="M129.74,-54.98C109.77,-46.38 78.7,-32.99 55.85,-23.15"/>
<polygon fill="#63b8ff" stroke="#63b8ff" points="57.19,-19.91 46.62,-19.17 54.42,-26.34 57.19,-19.91"/>
</a>
</g>
</g>
<!-- Node3 -->
<g id="Node000003" class="node">
<title>Node3</title>
<g id="a_Node000003"><a xlink:title=" ">
<polygon fill="#e0e0e0" stroke="#999999" points="143.5,-19 71.5,-19 71.5,0 143.5,0 143.5,-19"/>
<text text-anchor="middle" x="107.5" y="-7" font-family="Inter" font-size="10.00">glib/gi18n.h</text>
</a>
</g>
</g>
<!-- Node1&#45;&gt;Node3 -->
<g id="edge2_Node000001_Node000003" class="edge">
<title>Node1&#45;&gt;Node3</title>
<g id="a_edge2_Node000001_Node000003"><a xlink:title=" ">
<path fill="none" stroke="#63b8ff" d="M142.56,-54.75C136.63,-47.26 127.93,-36.28 120.68,-27.13"/>
<polygon fill="#63b8ff" stroke="#63b8ff" points="123.26,-24.75 114.31,-19.09 117.77,-29.1 123.26,-24.75"/>
</a>
</g>
</g>
<!-- Node4 -->
<g id="Node000004" class="node">
<title>Node4</title>
<g id="a_Node000004"><a xlink:title=" ">
<polygon fill="#e0e0e0" stroke="#999999" points="221,-19 162,-19 162,0 221,0 221,-19"/>
<text text-anchor="middle" x="191.5" y="-7" font-family="Inter" font-size="10.00">gtk/gtk.h</text>
</a>
</g>
</g>
<!-- Node1&#45;&gt;Node4 -->
<g id="edge3_Node000001_Node000004" class="edge">
<title>Node1&#45;&gt;Node4</title>
<g id="a_edge3_Node000001_Node000004"><a xlink:title=" ">
<path fill="none" stroke="#63b8ff" d="M156.44,-54.75C162.37,-47.26 171.07,-36.28 178.32,-27.13"/>
<polygon fill="#63b8ff" stroke="#63b8ff" points="181.23,-29.1 184.69,-19.09 175.74,-24.75 181.23,-29.1"/>
</a>
</g>
</g>
<!-- Node5 -->
<g id="Node000005" class="node">
<title>Node5</title>
<g id="a_Node000005"><a xlink:href="gsearchtool-entry_8h.html" target="_top" xlink:title=" ">
<polygon fill="white" stroke="#666666" points="346,-19 239,-19 239,0 346,0 346,-19"/>
<text text-anchor="middle" x="292.5" y="-7" font-family="Inter" font-size="10.00">gsearchtool&#45;entry.h</text>
</a>
</g>
</g>
<!-- Node1&#45;&gt;Node5 -->
<g id="edge4_Node000001_Node000005" class="edge">
<title>Node1&#45;&gt;Node5</title>
<g id="a_edge4_Node000001_Node000005"><a xlink:title=" ">
<path fill="none" stroke="#63b8ff" d="M172.48,-54.98C196,-46.27 232.79,-32.63 259.44,-22.75"/>
<polygon fill="#63b8ff" stroke="#63b8ff" points="260.95,-25.93 269.11,-19.17 258.51,-19.36 260.95,-25.93"/>
</a>
</g>
</g>
</g>
</svg>
