<?xml version="1.0" encoding="UTF-8" standalone="no"?>
<!DOCTYPE svg PUBLIC "-//W3C//DTD SVG 1.1//EN"
 "http://www.w3.org/Graphics/SVG/1.1/DTD/svg11.dtd">
<!-- Generated by graphviz version 2.43.0 (0)
 -->
<!-- Title: gsm&#45;app.h Pages: 1 -->
<svg width="487pt" height="192pt"
 viewBox="0.00 0.00 487.37 192.00" xmlns="http://www.w3.org/2000/svg" xmlns:xlink="http://www.w3.org/1999/xlink">
<g id="graph0" class="graph" transform="scale(1 1) rotate(0) translate(4 188)">
<title>gsm&#45;app.h</title>
<!-- Node1 -->
<g id="Node000001" class="node">
<title>Node1</title>
<g id="a_Node000001"><a xlink:title=" ">
<polygon fill="#999999" stroke="#666666" points="210,-184 145,-184 145,-165 210,-165 210,-184"/>
<text text-anchor="middle" x="177.5" y="-172" font-family="Inter" font-size="10.00">gsm&#45;app.h</text>
</a>
</g>
</g>
<!-- Node2 -->
<g id="Node000002" class="node">
<title>Node2</title>
<g id="a_Node000002"><a xlink:title=" ">
<polygon fill="#e0e0e0" stroke="#999999" points="378.5,-19 304.5,-19 304.5,0 378.5,0 378.5,-19"/>
<text text-anchor="middle" x="341.5" y="-7" font-family="Inter" font-size="10.00">glib&#45;object.h</text>
</a>
</g>
</g>
<!-- Node1&#45;&gt;Node2 -->
<g id="edge1_Node000001_Node000002" class="edge">
<title>Node1&#45;&gt;Node2</title>
<g id="a_edge1_Node000001_Node000002"><a xlink:title=" ">
<path fill="none" stroke="#63b8ff" d="M192.06,-164.71C204.52,-156.63 222.34,-143.7 234.5,-129 258.07,-100.51 247.67,-82.4 272.5,-55 284.09,-42.21 300.15,-31.57 313.86,-23.9"/>
<polygon fill="#63b8ff" stroke="#63b8ff" points="315.72,-26.87 322.89,-19.08 312.42,-20.7 315.72,-26.87"/>
</a>
</g>
</g>
<!-- Node3 -->
<g id="Node000003" class="node">
<title>Node3</title>
<g id="a_Node000003"><a xlink:title=" ">
<polygon fill="#e0e0e0" stroke="#999999" points="145,-74 76,-74 76,-55 145,-55 145,-74"/>
<text text-anchor="middle" x="110.5" y="-62" font-family="Inter" font-size="10.00">sys/types.h</text>
</a>
</g>
</g>
<!-- Node1&#45;&gt;Node3 -->
<g id="edge2_Node000001_Node000003" class="edge">
<title>Node1&#45;&gt;Node3</title>
<g id="a_edge2_Node000001_Node000003"><a xlink:title=" ">
<path fill="none" stroke="#63b8ff" d="M161.02,-164.86C148.13,-157.21 130.88,-144.81 121.5,-129 113.55,-115.6 111,-98 110.32,-84.72"/>
<polygon fill="#63b8ff" stroke="#63b8ff" points="113.81,-84.32 110.12,-74.39 106.81,-84.45 113.81,-84.32"/>
</a>
</g>
</g>
<!-- Node4 -->
<g id="Node000004" class="node">
<title>Node4</title>
<g id="a_Node000004"><a xlink:title=" ">
<polygon fill="#e0e0e0" stroke="#999999" points="225,-129 130,-129 130,-110 225,-110 225,-129"/>
<text text-anchor="middle" x="177.5" y="-117" font-family="Inter" font-size="10.00">eggdesktopfile.h</text>
</a>
</g>
</g>
<!-- Node1&#45;&gt;Node4 -->
<g id="edge3_Node000001_Node000004" class="edge">
<title>Node1&#45;&gt;Node4</title>
<g id="a_edge3_Node000001_Node000004"><a xlink:title=" ">
<path fill="none" stroke="#63b8ff" d="M177.5,-164.75C177.5,-157.8 177.5,-147.85 177.5,-139.13"/>
<polygon fill="#63b8ff" stroke="#63b8ff" points="181,-139.09 177.5,-129.09 174,-139.09 181,-139.09"/>
</a>
</g>
</g>
<!-- Node5 -->
<g id="Node000005" class="node">
<title>Node5</title>
<g id="a_Node000005"><a xlink:href="gsm-manager_8h.html" target="_top" xlink:title=" ">
<polygon fill="white" stroke="#666666" points="422.5,-129 334.5,-129 334.5,-110 422.5,-110 422.5,-129"/>
<text text-anchor="middle" x="378.5" y="-117" font-family="Inter" font-size="10.00">gsm&#45;manager.h</text>
</a>
</g>
</g>
<!-- Node1&#45;&gt;Node5 -->
<g id="edge4_Node000001_Node000005" class="edge">
<title>Node1&#45;&gt;Node5</title>
<g id="a_edge4_Node000001_Node000005"><a xlink:title=" ">
<path fill="none" stroke="#63b8ff" d="M209.79,-164.98C244.12,-155.93 298.56,-141.58 336.27,-131.64"/>
<polygon fill="#63b8ff" stroke="#63b8ff" points="337.18,-135.02 345.95,-129.08 335.39,-128.25 337.18,-135.02"/>
</a>
</g>
</g>
<!-- Node8 -->
<g id="Node000008" class="node">
<title>Node8</title>
<g id="a_Node000008"><a xlink:href="gsm-client_8h.html" target="_top" xlink:title=" ">
<polygon fill="white" stroke="#666666" points="73,-129 0,-129 0,-110 73,-110 73,-129"/>
<text text-anchor="middle" x="36.5" y="-117" font-family="Inter" font-size="10.00">gsm&#45;client.h</text>
</a>
</g>
</g>
<!-- Node1&#45;&gt;Node8 -->
<g id="edge9_Node000001_Node000008" class="edge">
<title>Node1&#45;&gt;Node8</title>
<g id="a_edge9_Node000001_Node000008"><a xlink:title=" ">
<path fill="none" stroke="#63b8ff" d="M154.85,-164.98C131.65,-156.27 95.38,-142.63 69.1,-132.75"/>
<polygon fill="#63b8ff" stroke="#63b8ff" points="70.16,-129.41 59.57,-129.17 67.7,-135.97 70.16,-129.41"/>
</a>
</g>
</g>
<!-- Node5&#45;&gt;Node2 -->
<g id="edge5_Node000005_Node000002" class="edge">
<title>Node5&#45;&gt;Node2</title>
<g id="a_edge5_Node000005_Node000002"><a xlink:title=" ">
<path fill="none" stroke="#63b8ff" d="M414.84,-109.91C449.41,-99.95 493.53,-81.43 474.5,-55 455.09,-28.04 418.6,-17.18 388.75,-12.91"/>
<polygon fill="#63b8ff" stroke="#63b8ff" points="388.85,-9.4 378.5,-11.66 388,-16.35 388.85,-9.4"/>
</a>
</g>
</g>
<!-- Node6 -->
<g id="Node000006" class="node">
<title>Node6</title>
<g id="a_Node000006"><a xlink:title=" ">
<polygon fill="#e0e0e0" stroke="#999999" points="375.5,-74 281.5,-74 281.5,-55 375.5,-55 375.5,-74"/>
<text text-anchor="middle" x="328.5" y="-62" font-family="Inter" font-size="10.00">dbus/dbus&#45;glib.h</text>
</a>
</g>
</g>
<!-- Node5&#45;&gt;Node6 -->
<g id="edge6_Node000005_Node000006" class="edge">
<title>Node5&#45;&gt;Node6</title>
<g id="a_edge6_Node000005_Node000006"><a xlink:title=" ">
<path fill="none" stroke="#63b8ff" d="M370.24,-109.75C363.04,-102.11 352.39,-90.82 343.65,-81.56"/>
<polygon fill="#63b8ff" stroke="#63b8ff" points="346.01,-78.96 336.6,-74.09 340.92,-83.76 346.01,-78.96"/>
</a>
</g>
</g>
<!-- Node7 -->
<g id="Node000007" class="node">
<title>Node7</title>
<g id="a_Node000007"><a xlink:href="gsm-store_8h.html" target="_top" xlink:title=" ">
<polygon fill="white" stroke="#666666" points="465.5,-74 393.5,-74 393.5,-55 465.5,-55 465.5,-74"/>
<text text-anchor="middle" x="429.5" y="-62" font-family="Inter" font-size="10.00">gsm&#45;store.h</text>
</a>
</g>
</g>
<!-- Node5&#45;&gt;Node7 -->
<g id="edge7_Node000005_Node000007" class="edge">
<title>Node5&#45;&gt;Node7</title>
<g id="a_edge7_Node000005_Node000007"><a xlink:title=" ">
<path fill="none" stroke="#63b8ff" d="M386.92,-109.75C394.27,-102.11 405.13,-90.82 414.04,-81.56"/>
<polygon fill="#63b8ff" stroke="#63b8ff" points="416.82,-83.72 421.24,-74.09 411.78,-78.87 416.82,-83.72"/>
</a>
</g>
</g>
<!-- Node7&#45;&gt;Node2 -->
<g id="edge8_Node000007_Node000002" class="edge">
<title>Node7&#45;&gt;Node2</title>
<g id="a_edge8_Node000007_Node000002"><a xlink:title=" ">
<path fill="none" stroke="#63b8ff" d="M415.36,-54.98C401.71,-46.77 380.81,-34.18 364.72,-24.49"/>
<polygon fill="#63b8ff" stroke="#63b8ff" points="366.27,-21.33 355.9,-19.17 362.66,-27.33 366.27,-21.33"/>
</a>
</g>
</g>
<!-- Node8&#45;&gt;Node2 -->
<g id="edge11_Node000008_Node000002" class="edge">
<title>Node8&#45;&gt;Node2</title>
<g id="a_edge11_Node000008_Node000002"><a xlink:title=" ">
<path fill="none" stroke="#63b8ff" d="M26.76,-109.83C13.21,-96.75 -8.12,-71.69 6.5,-55 25.17,-33.69 206.36,-19.2 294.21,-13.38"/>
<polygon fill="#63b8ff" stroke="#63b8ff" points="294.69,-16.85 304.45,-12.71 294.24,-9.87 294.69,-16.85"/>
</a>
</g>
</g>
<!-- Node8&#45;&gt;Node3 -->
<g id="edge12_Node000008_Node000003" class="edge">
<title>Node8&#45;&gt;Node3</title>
<g id="a_edge12_Node000008_Node000003"><a xlink:title=" ">
<path fill="none" stroke="#63b8ff" d="M48.39,-109.98C59.65,-101.92 76.79,-89.65 90.21,-80.03"/>
<polygon fill="#63b8ff" stroke="#63b8ff" points="92.3,-82.84 98.39,-74.17 88.23,-77.15 92.3,-82.84"/>
</a>
</g>
</g>
<!-- Node9 -->
<g id="Node000009" class="node">
<title>Node9</title>
<g id="a_Node000009"><a xlink:title=" ">
<polygon fill="#e0e0e0" stroke="#999999" points="57.5,-74 15.5,-74 15.5,-55 57.5,-55 57.5,-74"/>
<text text-anchor="middle" x="36.5" y="-62" font-family="Inter" font-size="10.00">glib.h</text>
</a>
</g>
</g>
<!-- Node8&#45;&gt;Node9 -->
<g id="edge10_Node000008_Node000009" class="edge">
<title>Node8&#45;&gt;Node9</title>
<g id="a_edge10_Node000008_Node000009"><a xlink:title=" ">
<path fill="none" stroke="#63b8ff" d="M36.5,-109.75C36.5,-102.8 36.5,-92.85 36.5,-84.13"/>
<polygon fill="#63b8ff" stroke="#63b8ff" points="40,-84.09 36.5,-74.09 33,-84.09 40,-84.09"/>
</a>
</g>
</g>
</g>
</svg>
