<?xml version="1.0" encoding="UTF-8" standalone="no"?>
<!DOCTYPE svg PUBLIC "-//W3C//DTD SVG 1.1//EN"
 "http://www.w3.org/Graphics/SVG/1.1/DTD/svg11.dtd">
<!-- Generated by graphviz version 2.43.0 (0)
 -->
<!-- Title: java&#45;utils.h Pages: 1 -->
<svg width="184pt" height="82pt"
 viewBox="0.00 0.00 184.00 82.00" xmlns="http://www.w3.org/2000/svg" xmlns:xlink="http://www.w3.org/1999/xlink">
<g id="graph0" class="graph" transform="scale(1 1) rotate(0) translate(4 78)">
<title>java&#45;utils.h</title>
<!-- Node1 -->
<g id="Node000001" class="node">
<title>Node1</title>
<g id="a_Node000001"><a xlink:title=" ">
<polygon fill="#999999" stroke="#666666" points="127.5,-74 62.5,-74 62.5,-55 127.5,-55 127.5,-74"/>
<text text-anchor="middle" x="95" y="-62" font-family="Inter" font-size="10.00">java&#45;utils.h</text>
</a>
</g>
</g>
<!-- Node2 -->
<g id="Node000002" class="node">
<title>Node2</title>
<g id="a_Node000002"><a xlink:href="fr-command-jar_8c.html" target="_top" xlink:title=" ">
<polygon fill="white" stroke="#666666" points="94,-19 0,-19 0,0 94,0 94,-19"/>
<text text-anchor="middle" x="47" y="-7" font-family="Inter" font-size="10.00">fr&#45;command&#45;jar.c</text>
</a>
</g>
</g>
<!-- Node1&#45;&gt;Node2 -->
<g id="edge1_Node000001_Node000002" class="edge">
<title>Node1&#45;&gt;Node2</title>
<g id="a_edge1_Node000001_Node000002"><a xlink:title=" ">
<path fill="none" stroke="#63b8ff" d="M80.27,-47.24C71.86,-37.95 61.65,-26.68 54.78,-19.09"/>
<polygon fill="#63b8ff" stroke="#63b8ff" points="77.77,-49.69 87.07,-54.75 82.96,-44.99 77.77,-49.69"/>
</a>
</g>
</g>
<!-- Node3 -->
<g id="Node000003" class="node">
<title>Node3</title>
<g id="a_Node000003"><a xlink:href="java-utils_8c.html" target="_top" xlink:title=" ">
<polygon fill="white" stroke="#666666" points="176,-19 112,-19 112,0 176,0 176,-19"/>
<text text-anchor="middle" x="144" y="-7" font-family="Inter" font-size="10.00">java&#45;utils.c</text>
</a>
</g>
</g>
<!-- Node1&#45;&gt;Node3 -->
<g id="edge2_Node000001_Node000003" class="edge">
<title>Node1&#45;&gt;Node3</title>
<g id="a_edge2_Node000001_Node000003"><a xlink:title=" ">
<path fill="none" stroke="#63b8ff" d="M110.03,-47.24C118.62,-37.95 129.04,-26.68 136.06,-19.09"/>
<polygon fill="#63b8ff" stroke="#63b8ff" points="107.31,-45.03 103.09,-54.75 112.45,-49.78 107.31,-45.03"/>
</a>
</g>
</g>
</g>
</svg>
