<?xml version="1.0" encoding="UTF-8" standalone="no"?>
<!DOCTYPE svg PUBLIC "-//W3C//DTD SVG 1.1//EN"
 "http://www.w3.org/Graphics/SVG/1.1/DTD/svg11.dtd">
<!-- Generated by graphviz version 2.43.0 (0)
 -->
<!-- Title: linux&#45;proc.c Pages: 1 -->
<!--zoomable 137 -->

<svg id="main" version="1.1" xmlns="http://www.w3.org/2000/svg" xmlns:xlink="http://www.w3.org/1999/xlink" xml:space="preserve" onload="init(evt)">

<style type="text/css"><![CDATA[
.node, .edge {opacity: 0.7;}
.node.selected, .edge.selected {opacity: 1;}
.edge:hover path { stroke: red; }
.edge:hover polygon { stroke: red; fill: red; }
]]></style>

<defs>
  <circle id="rim" cx="0" cy="0" r="7"/>
  <circle id="rim2" cx="0" cy="0" r="3.5"/>
  <g id="zoomPlus">
    <use xlink:href="#rim" fill="#404040"><set attributeName="fill" to="#808080" begin="zoomplus.mouseover" end="zoomplus.mouseout"/></use>
    <path d="M-4,0h8M0,-4v8" fill="none" stroke="white" stroke-width="1.5" pointer-events="none"/>
  </g>
  <g id="zoomMin">
    <use xlink:href="#rim" fill="#404040"><set attributeName="fill" to="#808080" begin="zoomminus.mouseover" end="zoomminus.mouseout"/></use>
    <path d="M-4,0h8" fill="none" stroke="white" stroke-width="1.5" pointer-events="none"/>
  </g>
  <g id="arrowUp" transform="translate(30 24)">
    <use xlink:href="#rim"/>
    <path pointer-events="none" fill="none" stroke="white" stroke-width="1.5" d="M0,-3.0v7 M-2.5,-0.5L0,-3.0L2.5,-0.5"/>
  </g>
  <g id="arrowRight" transform="rotate(90) translate(36 -43)">
    <use xlink:href="#rim"/>
    <path pointer-events="none" fill="none" stroke="white" stroke-width="1.5" d="M0,-3.0v7 M-2.5,-0.5L0,-3.0L2.5,-0.5"/>
  </g>
  <g id="arrowDown" transform="rotate(180) translate(-30 -48)">
    <use xlink:href="#rim"/>
    <path pointer-events="none" fill="none" stroke="white" stroke-width="1.5" d="M0,-3.0v7 M-2.5,-0.5L0,-3.0L2.5,-0.5"/>
  </g>
  <g id="arrowLeft" transform="rotate(270) translate(-36 17)">
    <use xlink:href="#rim"/>
    <path pointer-events="none" fill="none" stroke="white" stroke-width="1.5" d="M0,-3.0v7 M-2.5,-0.5L0,-3.0L2.5,-0.5"/>
  </g>
  <g id="resetDef">
    <use xlink:href="#rim2" fill="#404040"><set attributeName="fill" to="#808080" begin="reset.mouseover" end="reset.mouseout"/></use>
  </g>
</defs>
<script type="application/ecmascript">
var viewWidth = 1517;
var viewHeight = 137;
var sectionId = 'dynsection-0';
</script>
<script type="application/ecmascript" xlink:href="svg.min.js"/>
<svg id="graph" class="graph">
<g id="viewport">
<title>linux&#45;proc.c</title>
<!-- Node1 -->
<g id="Node000001" class="node">
<title>Node1</title>
<g id="a_Node000001"><a xlink:title=" ">
<polygon fill="#999999" stroke="#666666" points="689.5,-129 620.5,-129 620.5,-110 689.5,-110 689.5,-129"/>
<text text-anchor="middle" x="655" y="-117" font-family="Inter" font-size="10.00">linux&#45;proc.c</text>
</a>
</g>
</g>
<!-- Node2 -->
<g id="Node000002" class="node">
<title>Node2</title>
<g id="a_Node000002"><a xlink:title=" ">
<polygon fill="#e0e0e0" stroke="#999999" points="54,-74 0,-74 0,-55 54,-55 54,-74"/>
<text text-anchor="middle" x="27" y="-62" font-family="Inter" font-size="10.00">config.h</text>
</a>
</g>
</g>
<!-- Node1&#45;&gt;Node2 -->
<g id="edge1_Node000001_Node000002" class="edge">
<title>Node1&#45;&gt;Node2</title>
<g id="a_edge1_Node000001_Node000002"><a xlink:title=" ">
<path fill="none" stroke="#63b8ff" d="M620.42,-117.79C530.3,-115.55 280.79,-106.76 64.01,-73.9"/>
<polygon fill="#63b8ff" stroke="#63b8ff" points="64.45,-70.42 54.04,-72.36 63.39,-77.34 64.45,-70.42"/>
</a>
</g>
</g>
<!-- Node3 -->
<g id="Node000003" class="node">
<title>Node3</title>
<g id="a_Node000003"><a xlink:title=" ">
<polygon fill="#e0e0e0" stroke="#999999" points="141.5,-74 72.5,-74 72.5,-55 141.5,-55 141.5,-74"/>
<text text-anchor="middle" x="107" y="-62" font-family="Inter" font-size="10.00">sys/types.h</text>
</a>
</g>
</g>
<!-- Node1&#45;&gt;Node3 -->
<g id="edge2_Node000001_Node000003" class="edge">
<title>Node1&#45;&gt;Node3</title>
<g id="a_edge2_Node000001_Node000003"><a xlink:title=" ">
<path fill="none" stroke="#63b8ff" d="M620.34,-116.67C539.89,-112.16 334.11,-99.12 151.58,-73.92"/>
<polygon fill="#63b8ff" stroke="#63b8ff" points="151.92,-70.43 141.53,-72.52 150.95,-77.37 151.92,-70.43"/>
</a>
</g>
</g>
<!-- Node4 -->
<g id="Node000004" class="node">
<title>Node4</title>
<g id="a_Node000004"><a xlink:title=" ">
<polygon fill="#e0e0e0" stroke="#999999" points="234,-74 160,-74 160,-55 234,-55 234,-74"/>
<text text-anchor="middle" x="197" y="-62" font-family="Inter" font-size="10.00">sys/statvfs.h</text>
</a>
</g>
</g>
<!-- Node1&#45;&gt;Node4 -->
<g id="edge3_Node000001_Node000004" class="edge">
<title>Node1&#45;&gt;Node4</title>
<g id="a_edge3_Node000001_Node000004"><a xlink:title=" ">
<path fill="none" stroke="#63b8ff" d="M620.44,-115.65C551.08,-109.74 389.81,-95.05 244.13,-74.06"/>
<polygon fill="#63b8ff" stroke="#63b8ff" points="244.52,-70.58 234.12,-72.61 243.51,-77.51 244.52,-70.58"/>
</a>
</g>
</g>
<!-- Node5 -->
<g id="Node000005" class="node">
<title>Node5</title>
<g id="a_Node000005"><a xlink:title=" ">
<polygon fill="#e0e0e0" stroke="#999999" points="298,-74 252,-74 252,-55 298,-55 298,-74"/>
<text text-anchor="middle" x="275" y="-62" font-family="Inter" font-size="10.00">fcntl.h</text>
</a>
</g>
</g>
<!-- Node1&#45;&gt;Node5 -->
<g id="edge4_Node000001_Node000005" class="edge">
<title>Node1&#45;&gt;Node5</title>
<g id="a_edge4_Node000001_Node000005"><a xlink:title=" ">
<path fill="none" stroke="#63b8ff" d="M620.18,-115.59C558.97,-110.13 427.99,-96.99 308.39,-74.04"/>
<polygon fill="#63b8ff" stroke="#63b8ff" points="308.82,-70.56 298.34,-72.08 307.48,-77.43 308.82,-70.56"/>
</a>
</g>
</g>
<!-- Node6 -->
<g id="Node000006" class="node">
<title>Node6</title>
<g id="a_Node000006"><a xlink:title=" ">
<polygon fill="#e0e0e0" stroke="#999999" points="370,-74 316,-74 316,-55 370,-55 370,-74"/>
<text text-anchor="middle" x="343" y="-62" font-family="Inter" font-size="10.00">unistd.h</text>
</a>
</g>
</g>
<!-- Node1&#45;&gt;Node6 -->
<g id="edge5_Node000001_Node000006" class="edge">
<title>Node1&#45;&gt;Node6</title>
<g id="a_edge5_Node000001_Node000006"><a xlink:title=" ">
<path fill="none" stroke="#63b8ff" d="M620.43,-113.74C569.87,-106.61 472.56,-92.2 380.16,-74.11"/>
<polygon fill="#63b8ff" stroke="#63b8ff" points="380.57,-70.62 370.08,-72.11 379.21,-77.49 380.57,-70.62"/>
</a>
</g>
</g>
<!-- Node7 -->
<g id="Node000007" class="node">
<title>Node7</title>
<g id="a_Node000007"><a xlink:title=" ">
<polygon fill="#e0e0e0" stroke="#999999" points="446,-74 388,-74 388,-55 446,-55 446,-74"/>
<text text-anchor="middle" x="417" y="-62" font-family="Inter" font-size="10.00">glibtop.h</text>
</a>
</g>
</g>
<!-- Node1&#45;&gt;Node7 -->
<g id="edge6_Node000001_Node000007" class="edge">
<title>Node1&#45;&gt;Node7</title>
<g id="a_edge6_Node000001_Node000007"><a xlink:title=" ">
<path fill="none" stroke="#63b8ff" d="M620.31,-110.79C582.37,-102.36 519.5,-88.38 455.85,-74.19"/>
<polygon fill="#63b8ff" stroke="#63b8ff" points="456.57,-70.76 446.05,-72 455.04,-77.59 456.57,-70.76"/>
</a>
</g>
</g>
<!-- Node8 -->
<g id="Node000008" class="node">
<title>Node8</title>
<g id="a_Node000008"><a xlink:title=" ">
<polygon fill="#e0e0e0" stroke="#999999" points="542,-74 464,-74 464,-55 542,-55 542,-74"/>
<text text-anchor="middle" x="503" y="-62" font-family="Inter" font-size="10.00">glibtop/cpu.h</text>
</a>
</g>
</g>
<!-- Node1&#45;&gt;Node8 -->
<g id="edge7_Node000001_Node000008" class="edge">
<title>Node1&#45;&gt;Node8</title>
<g id="a_edge7_Node000001_Node000008"><a xlink:title=" ">
<path fill="none" stroke="#63b8ff" d="M630.58,-109.98C605.28,-101.16 565.55,-87.31 537.14,-77.41"/>
<polygon fill="#63b8ff" stroke="#63b8ff" points="538.21,-74.07 527.61,-74.08 535.9,-80.68 538.21,-74.07"/>
</a>
</g>
</g>
<!-- Node9 -->
<g id="Node000009" class="node">
<title>Node9</title>
<g id="a_Node000009"><a xlink:title=" ">
<polygon fill="#e0e0e0" stroke="#999999" points="646,-74 560,-74 560,-55 646,-55 646,-74"/>
<text text-anchor="middle" x="603" y="-62" font-family="Inter" font-size="10.00">glibtop/mem.h</text>
</a>
</g>
</g>
<!-- Node1&#45;&gt;Node9 -->
<g id="edge8_Node000001_Node000009" class="edge">
<title>Node1&#45;&gt;Node9</title>
<g id="a_edge8_Node000001_Node000009"><a xlink:title=" ">
<path fill="none" stroke="#63b8ff" d="M646.41,-109.75C638.84,-102.03 627.62,-90.6 618.49,-81.28"/>
<polygon fill="#63b8ff" stroke="#63b8ff" points="620.93,-78.78 611.43,-74.09 615.93,-83.68 620.93,-78.78"/>
</a>
</g>
</g>
<!-- Node10 -->
<g id="Node000010" class="node">
<title>Node10</title>
<g id="a_Node000010"><a xlink:title=" ">
<polygon fill="#e0e0e0" stroke="#999999" points="749.5,-74 664.5,-74 664.5,-55 749.5,-55 749.5,-74"/>
<text text-anchor="middle" x="707" y="-62" font-family="Inter" font-size="10.00">glibtop/swap.h</text>
</a>
</g>
</g>
<!-- Node1&#45;&gt;Node10 -->
<g id="edge9_Node000001_Node000010" class="edge">
<title>Node1&#45;&gt;Node10</title>
<g id="a_edge9_Node000001_Node000010"><a xlink:title=" ">
<path fill="none" stroke="#63b8ff" d="M663.59,-109.75C671.16,-102.03 682.38,-90.6 691.51,-81.28"/>
<polygon fill="#63b8ff" stroke="#63b8ff" points="694.07,-83.68 698.57,-74.09 689.07,-78.78 694.07,-83.68"/>
</a>
</g>
</g>
<!-- Node11 -->
<g id="Node000011" class="node">
<title>Node11</title>
<g id="a_Node000011"><a xlink:title=" ">
<polygon fill="#e0e0e0" stroke="#999999" points="866,-74 768,-74 768,-55 866,-55 866,-74"/>
<text text-anchor="middle" x="817" y="-62" font-family="Inter" font-size="10.00">glibtop/loadavg.h</text>
</a>
</g>
</g>
<!-- Node1&#45;&gt;Node11 -->
<g id="edge10_Node000001_Node000011" class="edge">
<title>Node1&#45;&gt;Node11</title>
<g id="a_edge10_Node000001_Node000011"><a xlink:title=" ">
<path fill="none" stroke="#63b8ff" d="M681.03,-109.98C708.11,-101.13 750.71,-87.19 781.01,-77.28"/>
<polygon fill="#63b8ff" stroke="#63b8ff" points="782.35,-80.52 790.77,-74.08 780.18,-73.87 782.35,-80.52"/>
</a>
</g>
</g>
<!-- Node12 -->
<g id="Node000012" class="node">
<title>Node12</title>
<g id="a_Node000012"><a xlink:title=" ">
<polygon fill="#e0e0e0" stroke="#999999" points="981.5,-74 884.5,-74 884.5,-55 981.5,-55 981.5,-74"/>
<text text-anchor="middle" x="933" y="-62" font-family="Inter" font-size="10.00">glibtop/netload.h</text>
</a>
</g>
</g>
<!-- Node1&#45;&gt;Node12 -->
<g id="edge11_Node000001_Node000012" class="edge">
<title>Node1&#45;&gt;Node12</title>
<g id="a_edge11_Node000001_Node000012"><a xlink:title=" ">
<path fill="none" stroke="#63b8ff" d="M689.65,-111.89C736.92,-102.88 822.14,-86.63 878.15,-75.96"/>
<polygon fill="#63b8ff" stroke="#63b8ff" points="879.08,-79.34 888.25,-74.03 877.77,-72.47 879.08,-79.34"/>
</a>
</g>
</g>
<!-- Node13 -->
<g id="Node000013" class="node">
<title>Node13</title>
<g id="a_Node000013"><a xlink:title=" ">
<polygon fill="#e0e0e0" stroke="#999999" points="1090,-74 1000,-74 1000,-55 1090,-55 1090,-74"/>
<text text-anchor="middle" x="1045" y="-62" font-family="Inter" font-size="10.00">glibtop/netlist.h</text>
</a>
</g>
</g>
<!-- Node1&#45;&gt;Node13 -->
<g id="edge12_Node000001_Node000013" class="edge">
<title>Node1&#45;&gt;Node13</title>
<g id="a_edge12_Node000001_Node000013"><a xlink:title=" ">
<path fill="none" stroke="#63b8ff" d="M689.76,-114.13C750.64,-106.42 880.53,-89.73 990,-74 990.1,-73.99 990.2,-73.97 990.31,-73.96"/>
<polygon fill="#63b8ff" stroke="#63b8ff" points="990.6,-77.45 999.99,-72.54 989.59,-70.52 990.6,-77.45"/>
</a>
</g>
</g>
<!-- Node14 -->
<g id="Node000014" class="node">
<title>Node14</title>
<g id="a_Node000014"><a xlink:title=" ">
<polygon fill="#e0e0e0" stroke="#999999" points="1213.5,-74 1108.5,-74 1108.5,-55 1213.5,-55 1213.5,-74"/>
<text text-anchor="middle" x="1161" y="-62" font-family="Inter" font-size="10.00">glibtop/mountlist.h</text>
</a>
</g>
</g>
<!-- Node1&#45;&gt;Node14 -->
<g id="edge13_Node000001_Node000014" class="edge">
<title>Node1&#45;&gt;Node14</title>
<g id="a_edge13_Node000001_Node000014"><a xlink:title=" ">
<path fill="none" stroke="#63b8ff" d="M689.59,-115.46C762.84,-108.94 939.25,-92.75 1098.29,-74.04"/>
<polygon fill="#63b8ff" stroke="#63b8ff" points="1098.73,-77.51 1108.25,-72.86 1097.91,-70.56 1098.73,-77.51"/>
</a>
</g>
</g>
<!-- Node15 -->
<g id="Node000015" class="node">
<title>Node15</title>
<g id="a_Node000015"><a xlink:title=" ">
<polygon fill="#e0e0e0" stroke="#999999" points="1330,-74 1232,-74 1232,-55 1330,-55 1330,-74"/>
<text text-anchor="middle" x="1281" y="-62" font-family="Inter" font-size="10.00">glibtop/fsusage.h</text>
</a>
</g>
</g>
<!-- Node1&#45;&gt;Node15 -->
<g id="edge14_Node000001_Node000015" class="edge">
<title>Node1&#45;&gt;Node15</title>
<g id="a_edge14_Node000001_Node000015"><a xlink:title=" ">
<path fill="none" stroke="#63b8ff" d="M689.59,-116.57C776.83,-111.53 1013.04,-96.85 1221.55,-73.97"/>
<polygon fill="#63b8ff" stroke="#63b8ff" points="1222.22,-77.41 1231.78,-72.83 1221.45,-70.46 1222.22,-77.41"/>
</a>
</g>
</g>
<!-- Node16 -->
<g id="Node000016" class="node">
<title>Node16</title>
<g id="a_Node000016"><a xlink:href="linux-proc_8h.html" target="_top" xlink:title=" ">
<polygon fill="white" stroke="#666666" points="1419.5,-74 1348.5,-74 1348.5,-55 1419.5,-55 1419.5,-74"/>
<text text-anchor="middle" x="1384" y="-62" font-family="Inter" font-size="10.00">linux&#45;proc.h</text>
</a>
</g>
</g>
<!-- Node1&#45;&gt;Node16 -->
<g id="edge15_Node000001_Node000016" class="edge">
<title>Node1&#45;&gt;Node16</title>
<g id="a_edge15_Node000001_Node000016"><a xlink:title=" ">
<path fill="none" stroke="#63b8ff" d="M689.66,-117.73C789.02,-115.23 1083.47,-105.58 1338.02,-73.95"/>
<polygon fill="#63b8ff" stroke="#63b8ff" points="1338.72,-77.39 1348.2,-72.67 1337.84,-70.44 1338.72,-77.39"/>
</a>
</g>
</g>
<!-- Node29 -->
<g id="Node000029" class="node">
<title>Node29</title>
<g id="a_Node000029"><a xlink:href="autoscaler_8h.html" target="_top" xlink:title=" ">
<polygon fill="white" stroke="#666666" points="1508.5,-74 1437.5,-74 1437.5,-55 1508.5,-55 1508.5,-74"/>
<text text-anchor="middle" x="1473" y="-62" font-family="Inter" font-size="10.00">autoscaler.h</text>
</a>
</g>
</g>
<!-- Node1&#45;&gt;Node29 -->
<g id="edge17_Node000001_Node000029" class="edge">
<title>Node1&#45;&gt;Node29</title>
<g id="a_edge17_Node000001_Node000029"><a xlink:title=" ">
<path fill="none" stroke="#63b8ff" d="M689.86,-118.15C797.96,-116.71 1137.11,-109.58 1426.76,-74.12"/>
<polygon fill="#63b8ff" stroke="#63b8ff" points="1427.55,-77.55 1437.04,-72.85 1426.69,-70.61 1427.55,-77.55"/>
</a>
</g>
</g>
<!-- Node17 -->
<g id="Node000017" class="node">
<title>Node17</title>
<g id="a_Node000017"><a xlink:href="mate-applets_2multiload_2src_2load-graph_8h.html" target="_top" xlink:title=" ">
<polygon fill="#fff0f0" stroke="red" points="1421.5,-19 1346.5,-19 1346.5,0 1421.5,0 1421.5,-19"/>
<text text-anchor="middle" x="1384" y="-7" font-family="Inter" font-size="10.00">load&#45;graph.h</text>
</a>
</g>
</g>
<!-- Node16&#45;&gt;Node17 -->
<g id="edge16_Node000016_Node000017" class="edge">
<title>Node16&#45;&gt;Node17</title>
<g id="a_edge16_Node000016_Node000017"><a xlink:title=" ">
<path fill="none" stroke="#63b8ff" d="M1384,-54.75C1384,-47.8 1384,-37.85 1384,-29.13"/>
<polygon fill="#63b8ff" stroke="#63b8ff" points="1387.5,-29.09 1384,-19.09 1380.5,-29.09 1387.5,-29.09"/>
</a>
</g>
</g>
<!-- Node19 -->
<g id="Node000019" class="node">
<title>Node19</title>
<g id="a_Node000019"><a xlink:title=" ">
<polygon fill="#e0e0e0" stroke="#999999" points="1494,-19 1452,-19 1452,0 1494,0 1494,-19"/>
<text text-anchor="middle" x="1473" y="-7" font-family="Inter" font-size="10.00">glib.h</text>
</a>
</g>
</g>
<!-- Node29&#45;&gt;Node19 -->
<g id="edge18_Node000029_Node000019" class="edge">
<title>Node29&#45;&gt;Node19</title>
<g id="a_edge18_Node000029_Node000019"><a xlink:title=" ">
<path fill="none" stroke="#63b8ff" d="M1473,-54.75C1473,-47.8 1473,-37.85 1473,-29.13"/>
<polygon fill="#63b8ff" stroke="#63b8ff" points="1476.5,-29.09 1473,-19.09 1469.5,-29.09 1476.5,-29.09"/>
</a>
</g>
</g>
</g>
</svg>

<g id="navigator" transform="translate(0 0)" fill="#404254">
  <rect fill="#f2f5e9" fill-opacity="0.5" stroke="#606060" stroke-width=".5" x="0" y="0" width="60" height="60"/>
  <use id="zoomplus" xlink:href="#zoomPlus" x="17" y="9" onmousedown="handleZoom(evt,'in')"/>
  <use id="zoomminus" xlink:href="#zoomMin" x="42" y="9" onmousedown="handleZoom(evt,'out')"/>
  <use id="reset" xlink:href="#resetDef" x="30" y="36" onmousedown="handleReset()"/>
   <use id="arrowup" xlink:href="#arrowUp" x="0" y="0" onmousedown="handlePan(0,-1)"/>
  <use id="arrowright" xlink:href="#arrowRight" x="0" y="0" onmousedown="handlePan(1,0)"/>
  <use id="arrowdown" xlink:href="#arrowDown" x="0" y="0" onmousedown="handlePan(0,1)"/>
  <use id="arrowleft" xlink:href="#arrowLeft" x="0" y="0" onmousedown="handlePan(-1,0)"/>
</g>
<svg viewBox="0 0 15 15" width="100%" height="30px" preserveAspectRatio="xMaxYMin meet">
 <g id="arrow_out" transform="scale(0.3 0.3)">
  <a xlink:href="linux-proc_8c__incl_org.svg" target="_base">
   <rect id="button" ry="5" rx="5" y="6" x="6" height="38" width="38"
        fill="#f2f5e9" fill-opacity="0.5" stroke="#606060" stroke-width="1.0"/>
   <path id="arrow"
     d="M 11.500037,31.436501 C 11.940474,20.09759 22.043105,11.32322 32.158766,21.979434 L 37.068811,17.246167 C 37.068811,17.246167 37.088388,32 37.088388,32 L 22.160133,31.978069 C 22.160133,31.978069 26.997745,27.140456 26.997745,27.140456 C 18.528582,18.264221 13.291696,25.230495 11.500037,31.436501 z"
     style="fill:#404040;"/>
  </a>
 </g>
</svg>

<style type='text/css'>
<![CDATA[
[data-mouse-over-selected='false'] { opacity: 0.7; }
[data-mouse-over-selected='true']  { opacity: 1.0; }
]]>
</style>
<script type="application/ecmascript"><![CDATA[
document.addEventListener('DOMContentLoaded', (event) => {
  highlightEdges();
  highlightAdjacentNodes();
});
]]></script>
</svg>
