<?xml version="1.0" encoding="UTF-8" standalone="no"?>
<!DOCTYPE svg PUBLIC "-//W3C//DTD SVG 1.1//EN"
 "http://www.w3.org/Graphics/SVG/1.1/DTD/svg11.dtd">
<!-- Generated by graphviz version 2.43.0 (0)
 -->
<!-- Title: location&#45;entry.c Pages: 1 -->
<svg width="240pt" height="148pt"
 viewBox="0.00 0.00 240.00 148.00" xmlns="http://www.w3.org/2000/svg" xmlns:xlink="http://www.w3.org/1999/xlink">

<svg id="main" version="1.1" xmlns="http://www.w3.org/2000/svg" xmlns:xlink="http://www.w3.org/1999/xlink" xml:space="preserve">

<style type="text/css"><![CDATA[
.node, .edge {opacity: 0.7;}
.node.selected, .edge.selected {opacity: 1;}
.edge:hover path { stroke: red; }
.edge:hover polygon { stroke: red; fill: red; }
]]></style>
<script type="application/ecmascript" xlink:href="svg.min.js"/>
<svg id="graph" class="graph">
<g id="graph0" class="graph" transform="scale(1 1) rotate(0) translate(4 144)">
<title>location&#45;entry.c</title>
<!-- Node1 -->
<g id="Node000001" class="node">
<title>Node1</title>
<g id="a_Node000001"><a xlink:title=" ">
<polygon fill="#999999" stroke="#666666" points="179.5,-140 91.5,-140 91.5,-121 179.5,-121 179.5,-140"/>
<text text-anchor="middle" x="135.5" y="-128" font-family="Inter" font-size="10.00">location&#45;entry.c</text>
</a>
</g>
</g>
<!-- Node2 -->
<g id="Node000002" class="node">
<title>Node2</title>
<g id="a_Node000002"><a xlink:href="location-entry_8h.html" target="_top" xlink:title=" ">
<polygon fill="white" stroke="#666666" points="136,-85 47,-85 47,-66 136,-66 136,-85"/>
<text text-anchor="middle" x="91.5" y="-73" font-family="Inter" font-size="10.00">location&#45;entry.h</text>
</a>
</g>
</g>
<!-- Node1&#45;&gt;Node2 -->
<g id="edge1_Node000001_Node000002" class="edge">
<title>Node1&#45;&gt;Node2</title>
<g id="a_edge1_Node000001_Node000002"><a xlink:title=" ">
<path fill="none" stroke="#63b8ff" d="M128.23,-120.75C121.96,-113.18 112.71,-102.05 105.07,-92.84"/>
<polygon fill="#63b8ff" stroke="#63b8ff" points="107.71,-90.55 98.63,-85.09 102.33,-95.02 107.71,-90.55"/>
</a>
</g>
</g>
<!-- Node10 -->
<g id="Node000010" class="node">
<title>Node10</title>
<g id="a_Node000010"><a xlink:title=" ">
<polygon fill="#e0e0e0" stroke="#999999" points="207,-85 154,-85 154,-66 207,-66 207,-85"/>
<text text-anchor="middle" x="180.5" y="-73" font-family="Inter" font-size="10.00">string.h</text>
</a>
</g>
</g>
<!-- Node1&#45;&gt;Node10 -->
<g id="edge4_Node000001_Node000010" class="edge">
<title>Node1&#45;&gt;Node10</title>
<g id="a_edge4_Node000001_Node000010"><a xlink:title=" ">
<path fill="none" stroke="#63b8ff" d="M142.93,-120.75C149.35,-113.18 158.81,-102.05 166.62,-92.84"/>
<polygon fill="#63b8ff" stroke="#63b8ff" points="169.4,-94.98 173.21,-85.09 164.07,-90.45 169.4,-94.98"/>
</a>
</g>
</g>
<!-- Node3 -->
<g id="Node000003" class="node">
<title>Node3</title>
<g id="a_Node000003"><a xlink:title=" ">
<polygon fill="#e0e0e0" stroke="#999999" points="59,-24.5 0,-24.5 0,-5.5 59,-5.5 59,-24.5"/>
<text text-anchor="middle" x="29.5" y="-12.5" font-family="Inter" font-size="10.00">gtk/gtk.h</text>
</a>
</g>
</g>
<!-- Node2&#45;&gt;Node3 -->
<g id="edge2_Node000002_Node000003" class="edge">
<title>Node2&#45;&gt;Node3</title>
<g id="a_edge2_Node000002_Node000003"><a xlink:title=" ">
<path fill="none" stroke="#63b8ff" d="M82.35,-65.87C72.83,-56.88 57.7,-42.61 46.07,-31.64"/>
<polygon fill="#63b8ff" stroke="#63b8ff" points="48.36,-28.98 38.69,-24.67 43.56,-34.08 48.36,-28.98"/>
</a>
</g>
</g>
<!-- Node4 -->
<g id="Node000004" class="node">
<title>Node4</title>
<g id="a_Node000004"><a xlink:href="mateweather-location_8h.html" target="_top" xlink:title=" ">
<polygon fill="#fff0f0" stroke="red" points="232,-30 77,-30 77,0 232,0 232,-30"/>
<text text-anchor="start" x="85" y="-18" font-family="Inter" font-size="10.00">libmateweather/mateweather</text>
<text text-anchor="middle" x="154.5" y="-7" font-family="Inter" font-size="10.00">&#45;location.h</text>
</a>
</g>
</g>
<!-- Node2&#45;&gt;Node4 -->
<g id="edge3_Node000002_Node000004" class="edge">
<title>Node2&#45;&gt;Node4</title>
<g id="a_edge3_Node000002_Node000004"><a xlink:title=" ">
<path fill="none" stroke="#63b8ff" d="M100.8,-65.87C108.95,-58.3 121.14,-46.98 131.84,-37.04"/>
<polygon fill="#63b8ff" stroke="#63b8ff" points="134.35,-39.48 139.3,-30.11 129.59,-34.35 134.35,-39.48"/>
</a>
</g>
</g>
</g>
</svg>
</svg>

<style type='text/css'>
<![CDATA[
[data-mouse-over-selected='false'] { opacity: 0.7; }
[data-mouse-over-selected='true']  { opacity: 1.0; }
]]>
</style>
<script type="application/ecmascript"><![CDATA[
document.addEventListener('DOMContentLoaded', (event) => {
  highlightEdges();
  highlightAdjacentNodes();
});
]]></script>
</svg>
