<?xml version="1.0" encoding="UTF-8" standalone="no"?>
<!DOCTYPE svg PUBLIC "-//W3C//DTD SVG 1.1//EN"
 "http://www.w3.org/Graphics/SVG/1.1/DTD/svg11.dtd">
<!-- Generated by graphviz version 2.43.0 (0)
 -->
<!-- Title: common.h Pages: 1 -->
<svg width="1686pt" height="192pt"
 viewBox="0.00 0.00 1686.44 192.00" xmlns="http://www.w3.org/2000/svg" xmlns:xlink="http://www.w3.org/1999/xlink">
<g id="graph0" class="graph" transform="scale(1 1) rotate(0) translate(4 188)">
<title>common.h</title>
<!-- Node1 -->
<g id="Node000001" class="node">
<title>Node1</title>
<g id="a_Node000001"><a xlink:title=" ">
<polygon fill="#999999" stroke="#666666" points="530.44,-184 464.44,-184 464.44,-165 530.44,-165 530.44,-184"/>
<text text-anchor="middle" x="497.44" y="-172" font-family="Inter" font-size="10.00">common.h</text>
</a>
</g>
</g>
<!-- Node2 -->
<g id="Node000002" class="node">
<title>Node2</title>
<g id="a_Node000002"><a xlink:href="boxes_8h.html" target="_top" xlink:title=" ">
<polygon fill="white" stroke="#666666" points="523.94,-129 470.94,-129 470.94,-110 523.94,-110 523.94,-129"/>
<text text-anchor="middle" x="497.44" y="-117" font-family="Inter" font-size="10.00">boxes.h</text>
</a>
</g>
</g>
<!-- Node1&#45;&gt;Node2 -->
<g id="edge1_Node000001_Node000002" class="edge">
<title>Node1&#45;&gt;Node2</title>
<g id="a_edge1_Node000001_Node000002"><a xlink:title=" ">
<path fill="none" stroke="#63b8ff" d="M497.44,-154.66C497.44,-145.93 497.44,-135.99 497.44,-129.09"/>
<polygon fill="#63b8ff" stroke="#63b8ff" points="493.94,-154.75 497.44,-164.75 500.94,-154.75 493.94,-154.75"/>
</a>
</g>
</g>
<!-- Node50 -->
<g id="Node000050" class="node">
<title>Node50</title>
<g id="a_Node000050"><a xlink:href="resizepopup_8h.html" target="_top" xlink:title=" ">
<polygon fill="#fff0f0" stroke="red" points="846.94,-74 763.94,-74 763.94,-55 846.94,-55 846.94,-74"/>
<text text-anchor="middle" x="805.44" y="-62" font-family="Inter" font-size="10.00">resizepopup.h</text>
</a>
</g>
</g>
<!-- Node1&#45;&gt;Node50 -->
<g id="edge67_Node000001_Node000050" class="edge">
<title>Node1&#45;&gt;Node50</title>
<g id="a_edge67_Node000001_Node000050"><a xlink:title=" ">
<path fill="none" stroke="#63b8ff" d="M531.68,-161.5C594.43,-139.49 726.43,-93.21 781.02,-74.07"/>
<polygon fill="#63b8ff" stroke="#63b8ff" points="530.15,-158.32 521.87,-164.94 532.46,-164.93 530.15,-158.32"/>
</a>
</g>
</g>
<!-- Node52 -->
<g id="Node000052" class="node">
<title>Node52</title>
<g id="a_Node000052"><a xlink:href="tabpopup_8h.html" target="_top" xlink:title=" ">
<polygon fill="white" stroke="#666666" points="84.94,-74 13.94,-74 13.94,-55 84.94,-55 84.94,-74"/>
<text text-anchor="middle" x="49.44" y="-62" font-family="Inter" font-size="10.00">tabpopup.h</text>
</a>
</g>
</g>
<!-- Node1&#45;&gt;Node52 -->
<g id="edge68_Node000001_Node000052" class="edge">
<title>Node1&#45;&gt;Node52</title>
<g id="a_edge68_Node000001_Node000052"><a xlink:title=" ">
<path fill="none" stroke="#63b8ff" d="M454.18,-163.07C365.81,-141.77 166.07,-93.62 84.82,-74.03"/>
<polygon fill="#63b8ff" stroke="#63b8ff" points="453.6,-166.53 464.14,-165.47 455.24,-159.72 453.6,-166.53"/>
</a>
</g>
</g>
<!-- Node53 -->
<g id="Node000053" class="node">
<title>Node53</title>
<g id="a_Node000053"><a xlink:href="marco_2src_2include_2ui_8h.html" target="_top" xlink:title=" ">
<polygon fill="white" stroke="#666666" points="66.44,-19 32.44,-19 32.44,0 66.44,0 66.44,-19"/>
<text text-anchor="middle" x="49.44" y="-7" font-family="Inter" font-size="10.00">ui.h</text>
</a>
</g>
</g>
<!-- Node1&#45;&gt;Node53 -->
<g id="edge69_Node000001_Node000053" class="edge">
<title>Node1&#45;&gt;Node53</title>
<g id="a_edge69_Node000001_Node000053"><a xlink:title=" ">
<path fill="none" stroke="#63b8ff" d="M454.17,-171.62C344.49,-165.83 60.35,-144.23 4.44,-74 -10.62,-55.08 17.38,-31.57 35.59,-19.14"/>
<polygon fill="#63b8ff" stroke="#63b8ff" points="454.06,-175.12 464.23,-172.13 454.42,-168.12 454.06,-175.12"/>
</a>
</g>
</g>
<!-- Node69 -->
<g id="Node000069" class="node">
<title>Node69</title>
<g id="a_Node000069"><a xlink:href="core_8h.html" target="_top" xlink:title=" ">
<polygon fill="white" stroke="#666666" points="245.44,-74 199.44,-74 199.44,-55 245.44,-55 245.44,-74"/>
<text text-anchor="middle" x="222.44" y="-62" font-family="Inter" font-size="10.00">core.h</text>
</a>
</g>
</g>
<!-- Node1&#45;&gt;Node69 -->
<g id="edge30_Node000001_Node000069" class="edge">
<title>Node1&#45;&gt;Node69</title>
<g id="a_edge30_Node000001_Node000069"><a xlink:title=" ">
<path fill="none" stroke="#63b8ff" d="M465.92,-161.12C409.51,-138.96 292.64,-93.07 244.21,-74.05"/>
<polygon fill="#63b8ff" stroke="#63b8ff" points="464.82,-164.45 475.4,-164.84 467.38,-157.93 464.82,-164.45"/>
</a>
</g>
</g>
<!-- Node70 -->
<g id="Node000070" class="node">
<title>Node70</title>
<g id="a_Node000070"><a xlink:href="frame_8h.html" target="_top" xlink:title=" ">
<polygon fill="white" stroke="#666666" points="894.94,-129 841.94,-129 841.94,-110 894.94,-110 894.94,-129"/>
<text text-anchor="middle" x="868.44" y="-117" font-family="Inter" font-size="10.00">frame.h</text>
</a>
</g>
</g>
<!-- Node1&#45;&gt;Node70 -->
<g id="edge38_Node000001_Node000070" class="edge">
<title>Node1&#45;&gt;Node70</title>
<g id="a_edge38_Node000001_Node000070"><a xlink:title=" ">
<path fill="none" stroke="#63b8ff" d="M540.61,-167.33C618.03,-156.27 778.34,-133.37 841.77,-124.31"/>
<polygon fill="#63b8ff" stroke="#63b8ff" points="540.1,-163.87 530.69,-168.75 541.09,-170.8 540.1,-163.87"/>
</a>
</g>
</g>
<!-- Node71 -->
<g id="Node000071" class="node">
<title>Node71</title>
<g id="a_Node000071"><a xlink:href="prefs_8h.html" target="_top" xlink:title=" ">
<polygon fill="white" stroke="#666666" points="1117.44,-74 1067.44,-74 1067.44,-55 1117.44,-55 1117.44,-74"/>
<text text-anchor="middle" x="1092.44" y="-62" font-family="Inter" font-size="10.00">prefs.h</text>
</a>
</g>
</g>
<!-- Node1&#45;&gt;Node71 -->
<g id="edge48_Node000001_Node000071" class="edge">
<title>Node1&#45;&gt;Node71</title>
<g id="a_edge48_Node000001_Node000071"><a xlink:title=" ">
<path fill="none" stroke="#63b8ff" d="M540.89,-171.8C615.72,-168.2 773.42,-157.62 903.44,-129 966.32,-115.16 1037.6,-87.91 1071.88,-74.04"/>
<polygon fill="#63b8ff" stroke="#63b8ff" points="540.29,-168.32 530.46,-172.28 540.61,-175.32 540.29,-168.32"/>
</a>
</g>
</g>
<!-- Node3 -->
<g id="Node000003" class="node">
<title>Node3</title>
<g id="a_Node000003"><a xlink:href="boxes_8c.html" target="_top" xlink:title=" ">
<polygon fill="white" stroke="#666666" points="315.44,-74 263.44,-74 263.44,-55 315.44,-55 315.44,-74"/>
<text text-anchor="middle" x="289.44" y="-62" font-family="Inter" font-size="10.00">boxes.c</text>
</a>
</g>
</g>
<!-- Node2&#45;&gt;Node3 -->
<g id="edge2_Node000002_Node000003" class="edge">
<title>Node2&#45;&gt;Node3</title>
<g id="a_edge2_Node000002_Node000003"><a xlink:title=" ">
<path fill="none" stroke="#63b8ff" d="M460.92,-109.19C419.25,-98.57 352.14,-81.48 315.45,-72.13"/>
<polygon fill="#63b8ff" stroke="#63b8ff" points="460.12,-112.6 470.68,-111.68 461.85,-105.82 460.12,-112.6"/>
</a>
</g>
</g>
<!-- Node4 -->
<g id="Node000004" class="node">
<title>Node4</title>
<g id="a_Node000004"><a xlink:href="compositor_8h.html" target="_top" xlink:title=" ">
<polygon fill="#fff0f0" stroke="red" points="941.44,-74 865.44,-74 865.44,-55 941.44,-55 941.44,-74"/>
<text text-anchor="middle" x="903.44" y="-62" font-family="Inter" font-size="10.00">compositor.h</text>
</a>
</g>
</g>
<!-- Node2&#45;&gt;Node4 -->
<g id="edge3_Node000002_Node000004" class="edge">
<title>Node2&#45;&gt;Node4</title>
<g id="a_edge3_Node000002_Node000004"><a xlink:title=" ">
<path fill="none" stroke="#63b8ff" d="M534.14,-114.57C599.07,-107.48 738.4,-91.63 855.44,-74 858.62,-73.52 861.92,-73 865.22,-72.45"/>
<polygon fill="#63b8ff" stroke="#63b8ff" points="533.57,-111.11 524.01,-115.67 534.33,-118.07 533.57,-111.11"/>
</a>
</g>
</g>
<!-- Node10 -->
<g id="Node000010" class="node">
<title>Node10</title>
<g id="a_Node000010"><a xlink:href="display-private_8h.html" target="_top" xlink:title=" ">
<polygon fill="#fff0f0" stroke="red" points="656.94,-74 563.94,-74 563.94,-55 656.94,-55 656.94,-74"/>
<text text-anchor="middle" x="610.44" y="-62" font-family="Inter" font-size="10.00">display&#45;private.h</text>
</a>
</g>
</g>
<!-- Node2&#45;&gt;Node10 -->
<g id="edge7_Node000002_Node000010" class="edge">
<title>Node2&#45;&gt;Node10</title>
<g id="a_edge7_Node000002_Node000010"><a xlink:title=" ">
<path fill="none" stroke="#63b8ff" d="M524.88,-105.63C545.69,-95.87 573.74,-82.71 591.96,-74.17"/>
<polygon fill="#63b8ff" stroke="#63b8ff" points="523.17,-102.57 515.6,-109.98 526.14,-108.91 523.17,-102.57"/>
</a>
</g>
</g>
<!-- Node14 -->
<g id="Node000014" class="node">
<title>Node14</title>
<g id="a_Node000014"><a xlink:href="edge-resistance_8c.html" target="_top" xlink:title=" ">
<polygon fill="white" stroke="#666666" points="571.44,-19 473.44,-19 473.44,0 571.44,0 571.44,-19"/>
<text text-anchor="middle" x="522.44" y="-7" font-family="Inter" font-size="10.00">edge&#45;resistance.c</text>
</a>
</g>
</g>
<!-- Node2&#45;&gt;Node14 -->
<g id="edge12_Node000002_Node000014" class="edge">
<title>Node2&#45;&gt;Node14</title>
<g id="a_edge12_Node000002_Node000014"><a xlink:title=" ">
<path fill="none" stroke="#63b8ff" d="M503.86,-100.04C506.46,-92.09 509.34,-82.66 511.44,-74 516.14,-54.65 519.63,-31.51 521.31,-19.2"/>
<polygon fill="#63b8ff" stroke="#63b8ff" points="500.47,-99.14 500.58,-109.73 507.1,-101.38 500.47,-99.14"/>
</a>
</g>
</g>
<!-- Node49 -->
<g id="Node000049" class="node">
<title>Node49</title>
<g id="a_Node000049"><a xlink:href="frames_8c.html" target="_top" xlink:title=" ">
<polygon fill="white" stroke="#666666" points="455.44,-19 399.44,-19 399.44,0 455.44,0 455.44,-19"/>
<text text-anchor="middle" x="427.44" y="-7" font-family="Inter" font-size="10.00">frames.c</text>
</a>
</g>
</g>
<!-- Node2&#45;&gt;Node49 -->
<g id="edge13_Node000002_Node000049" class="edge">
<title>Node2&#45;&gt;Node49</title>
<g id="a_edge13_Node000002_Node000049"><a xlink:title=" ">
<path fill="none" stroke="#63b8ff" d="M494.68,-99.72C492.07,-86.42 487.2,-68.61 478.44,-55 468.77,-39.98 452.61,-27.11 441.07,-19.13"/>
<polygon fill="#63b8ff" stroke="#63b8ff" points="491.24,-100.37 496.38,-109.64 498.14,-99.19 491.24,-100.37"/>
</a>
</g>
</g>
<!-- Node2&#45;&gt;Node50 -->
<g id="edge14_Node000002_Node000050" class="edge">
<title>Node2&#45;&gt;Node50</title>
<g id="a_edge14_Node000002_Node000050"><a xlink:title=" ">
<path fill="none" stroke="#63b8ff" d="M534.09,-112.19C591.76,-102.27 703.35,-83.07 763.92,-72.65"/>
<polygon fill="#63b8ff" stroke="#63b8ff" points="533.23,-108.79 523.97,-113.94 534.42,-115.69 533.23,-108.79"/>
</a>
</g>
</g>
<!-- Node2&#45;&gt;Node52 -->
<g id="edge17_Node000002_Node000052" class="edge">
<title>Node2&#45;&gt;Node52</title>
<g id="a_edge17_Node000002_Node000052"><a xlink:title=" ">
<path fill="none" stroke="#63b8ff" d="M460.22,-115.35C388.98,-109.11 228.54,-94.04 94.44,-74 91.46,-73.55 88.36,-73.05 85.26,-72.52"/>
<polygon fill="#63b8ff" stroke="#63b8ff" points="460.2,-118.86 470.47,-116.24 460.81,-111.89 460.2,-118.86"/>
</a>
</g>
</g>
<!-- Node54 -->
<g id="Node000054" class="node">
<title>Node54</title>
<g id="a_Node000054"><a xlink:href="testboxes_8c.html" target="_top" xlink:title=" ">
<polygon fill="white" stroke="#666666" points="745.44,-74 675.44,-74 675.44,-55 745.44,-55 745.44,-74"/>
<text text-anchor="middle" x="710.44" y="-62" font-family="Inter" font-size="10.00">testboxes.c</text>
</a>
</g>
</g>
<!-- Node2&#45;&gt;Node54 -->
<g id="edge20_Node000002_Node000054" class="edge">
<title>Node2&#45;&gt;Node54</title>
<g id="a_edge20_Node000002_Node000054"><a xlink:title=" ">
<path fill="none" stroke="#63b8ff" d="M533.83,-109.45C573.7,-99.53 637.14,-83.74 676.15,-74.03"/>
<polygon fill="#63b8ff" stroke="#63b8ff" points="532.85,-106.08 523.99,-111.89 534.54,-112.88 532.85,-106.08"/>
</a>
</g>
</g>
<!-- Node55 -->
<g id="Node000055" class="node">
<title>Node55</title>
<g id="a_Node000055"><a xlink:href="theme_8h.html" target="_top" xlink:title=" ">
<polygon fill="#fff0f0" stroke="red" points="469.44,-74 413.44,-74 413.44,-55 469.44,-55 469.44,-74"/>
<text text-anchor="middle" x="441.44" y="-62" font-family="Inter" font-size="10.00">theme.h</text>
</a>
</g>
</g>
<!-- Node2&#45;&gt;Node55 -->
<g id="edge21_Node000002_Node000055" class="edge">
<title>Node2&#45;&gt;Node55</title>
<g id="a_edge21_Node000002_Node000055"><a xlink:title=" ">
<path fill="none" stroke="#63b8ff" d="M481.11,-103.04C471.18,-93.64 458.86,-81.98 450.61,-74.17"/>
<polygon fill="#63b8ff" stroke="#63b8ff" points="478.78,-105.65 488.45,-109.98 483.59,-100.57 478.78,-105.65"/>
</a>
</g>
</g>
<!-- Node67 -->
<g id="Node000067" class="node">
<title>Node67</title>
<g id="a_Node000067"><a xlink:href="tile-preview_8h.html" target="_top" xlink:title=" ">
<polygon fill="white" stroke="#666666" points="181.44,-74 103.44,-74 103.44,-55 181.44,-55 181.44,-74"/>
<text text-anchor="middle" x="142.44" y="-62" font-family="Inter" font-size="10.00">tile&#45;preview.h</text>
</a>
</g>
</g>
<!-- Node2&#45;&gt;Node67 -->
<g id="edge26_Node000002_Node000067" class="edge">
<title>Node2&#45;&gt;Node67</title>
<g id="a_edge26_Node000002_Node000067"><a xlink:title=" ">
<path fill="none" stroke="#63b8ff" d="M460.63,-113.54C402.94,-105.69 287.8,-89.67 190.44,-74 187.52,-73.53 184.5,-73.03 181.46,-72.51"/>
<polygon fill="#63b8ff" stroke="#63b8ff" points="460.33,-117.03 470.71,-114.91 461.27,-110.1 460.33,-117.03"/>
</a>
</g>
</g>
<!-- Node68 -->
<g id="Node000068" class="node">
<title>Node68</title>
<g id="a_Node000068"><a xlink:href="window_8h.html" target="_top" xlink:title=" ">
<polygon fill="#fff0f0" stroke="red" points="394.94,-74 333.94,-74 333.94,-55 394.94,-55 394.94,-74"/>
<text text-anchor="middle" x="364.44" y="-62" font-family="Inter" font-size="10.00">window.h</text>
</a>
</g>
</g>
<!-- Node2&#45;&gt;Node68 -->
<g id="edge29_Node000002_Node000068" class="edge">
<title>Node2&#45;&gt;Node68</title>
<g id="a_edge29_Node000002_Node000068"><a xlink:title=" ">
<path fill="none" stroke="#63b8ff" d="M466.48,-106.16C441.85,-96.35 408.03,-82.87 386.2,-74.17"/>
<polygon fill="#63b8ff" stroke="#63b8ff" points="465.49,-109.53 476.08,-109.98 468.08,-103.03 465.49,-109.53"/>
</a>
</g>
</g>
<!-- Node7 -->
<g id="Node000007" class="node">
<title>Node7</title>
<g id="a_Node000007"><a xlink:href="display_8c.html" target="_top" xlink:title=" ">
<polygon fill="white" stroke="#666666" points="782.94,-19 727.94,-19 727.94,0 782.94,0 782.94,-19"/>
<text text-anchor="middle" x="755.44" y="-7" font-family="Inter" font-size="10.00">display.c</text>
</a>
</g>
</g>
<!-- Node4&#45;&gt;Node7 -->
<g id="edge4_Node000004_Node000007" class="edge">
<title>Node4&#45;&gt;Node7</title>
<g id="a_edge4_Node000004_Node000007"><a xlink:title=" ">
<path fill="none" stroke="#63b8ff" d="M870.08,-51.55C842.59,-41.71 804.27,-27.98 779.66,-19.17"/>
<polygon fill="#63b8ff" stroke="#63b8ff" points="869.07,-54.91 879.67,-54.98 871.43,-48.32 869.07,-54.91"/>
</a>
</g>
</g>
<!-- Node8 -->
<g id="Node000008" class="node">
<title>Node8</title>
<g id="a_Node000008"><a xlink:href="screen_8c.html" target="_top" xlink:title=" ">
<polygon fill="white" stroke="#666666" points="1069.94,-19 1014.94,-19 1014.94,0 1069.94,0 1069.94,-19"/>
<text text-anchor="middle" x="1042.44" y="-7" font-family="Inter" font-size="10.00">screen.c</text>
</a>
</g>
</g>
<!-- Node4&#45;&gt;Node8 -->
<g id="edge5_Node000004_Node000008" class="edge">
<title>Node4&#45;&gt;Node8</title>
<g id="a_edge5_Node000004_Node000008"><a xlink:title=" ">
<path fill="none" stroke="#63b8ff" d="M935.12,-51.42C960.91,-41.59 996.69,-27.95 1019.71,-19.17"/>
<polygon fill="#63b8ff" stroke="#63b8ff" points="933.87,-48.15 925.78,-54.98 936.37,-54.69 933.87,-48.15"/>
</a>
</g>
</g>
<!-- Node9 -->
<g id="Node000009" class="node">
<title>Node9</title>
<g id="a_Node000009"><a xlink:href="window_8c.html" target="_top" xlink:title=" ">
<polygon fill="white" stroke="#666666" points="996.94,-19 937.94,-19 937.94,0 996.94,0 996.94,-19"/>
<text text-anchor="middle" x="967.44" y="-7" font-family="Inter" font-size="10.00">window.c</text>
</a>
</g>
</g>
<!-- Node4&#45;&gt;Node9 -->
<g id="edge6_Node000004_Node000009" class="edge">
<title>Node4&#45;&gt;Node9</title>
<g id="a_edge6_Node000004_Node000009"><a xlink:title=" ">
<path fill="none" stroke="#63b8ff" d="M921.44,-48.6C932.9,-39.11 947.36,-27.13 956.97,-19.17"/>
<polygon fill="#63b8ff" stroke="#63b8ff" points="919.2,-45.91 913.73,-54.98 923.66,-51.3 919.2,-45.91"/>
</a>
</g>
</g>
<!-- Node10&#45;&gt;Node7 -->
<g id="edge8_Node000010_Node000007" class="edge">
<title>Node10&#45;&gt;Node7</title>
<g id="a_edge8_Node000010_Node000007"><a xlink:title=" ">
<path fill="none" stroke="#63b8ff" d="M643.14,-51.55C670.06,-41.71 707.61,-27.98 731.72,-19.17"/>
<polygon fill="#63b8ff" stroke="#63b8ff" points="641.93,-48.26 633.74,-54.98 644.33,-54.84 641.93,-48.26"/>
</a>
</g>
</g>
<!-- Node10&#45;&gt;Node14 -->
<g id="edge9_Node000010_Node000014" class="edge">
<title>Node10&#45;&gt;Node14</title>
<g id="a_edge9_Node000010_Node000014"><a xlink:title=" ">
<path fill="none" stroke="#63b8ff" d="M587.52,-49.7C571.49,-40.04 550.58,-27.44 536.84,-19.17"/>
<polygon fill="#63b8ff" stroke="#63b8ff" points="585.93,-52.82 596.31,-54.98 589.54,-46.83 585.93,-52.82"/>
</a>
</g>
</g>
<!-- Node15 -->
<g id="Node000015" class="node">
<title>Node15</title>
<g id="a_Node000015"><a xlink:href="effects_8c.html" target="_top" xlink:title=" ">
<polygon fill="white" stroke="#666666" points="919.44,-19 863.44,-19 863.44,0 919.44,0 919.44,-19"/>
<text text-anchor="middle" x="891.44" y="-7" font-family="Inter" font-size="10.00">effects.c</text>
</a>
</g>
</g>
<!-- Node10&#45;&gt;Node15 -->
<g id="edge10_Node000010_Node000015" class="edge">
<title>Node10&#45;&gt;Node15</title>
<g id="a_edge10_Node000010_Node000015"><a xlink:title=" ">
<path fill="none" stroke="#63b8ff" d="M667.23,-53.9C716.77,-45.34 790.52,-32.16 854.44,-19 857.28,-18.42 860.24,-17.78 863.19,-17.13"/>
<polygon fill="#63b8ff" stroke="#63b8ff" points="666.6,-50.45 657.34,-55.6 667.79,-57.35 666.6,-50.45"/>
</a>
</g>
</g>
<!-- Node19 -->
<g id="Node000019" class="node">
<title>Node19</title>
<g id="a_Node000019"><a xlink:href="marco_2src_2core_2main_8c.html" target="_top" xlink:title=" ">
<polygon fill="white" stroke="#666666" points="636.94,-19 589.94,-19 589.94,0 636.94,0 636.94,-19"/>
<text text-anchor="middle" x="613.44" y="-7" font-family="Inter" font-size="10.00">main.c</text>
</a>
</g>
</g>
<!-- Node10&#45;&gt;Node19 -->
<g id="edge11_Node000010_Node000019" class="edge">
<title>Node10&#45;&gt;Node19</title>
<g id="a_edge11_Node000010_Node000019"><a xlink:title=" ">
<path fill="none" stroke="#63b8ff" d="M611.51,-44.66C612,-35.93 612.57,-25.99 612.96,-19.09"/>
<polygon fill="#63b8ff" stroke="#63b8ff" points="608.01,-44.57 610.94,-54.75 615,-44.96 608.01,-44.57"/>
</a>
</g>
</g>
<!-- Node50&#45;&gt;Node7 -->
<g id="edge15_Node000050_Node000007" class="edge">
<title>Node50&#45;&gt;Node7</title>
<g id="a_edge15_Node000050_Node000007"><a xlink:title=" ">
<path fill="none" stroke="#63b8ff" d="M790.1,-47.24C781.34,-37.95 770.71,-26.68 763.55,-19.09"/>
<polygon fill="#63b8ff" stroke="#63b8ff" points="787.78,-49.88 797.19,-54.75 792.87,-45.07 787.78,-49.88"/>
</a>
</g>
</g>
<!-- Node50&#45;&gt;Node9 -->
<g id="edge16_Node000050_Node000009" class="edge">
<title>Node50&#45;&gt;Node9</title>
<g id="a_edge16_Node000050_Node000009"><a xlink:title=" ">
<path fill="none" stroke="#63b8ff" d="M841.21,-51.8C871.44,-41.91 914.05,-27.97 941.21,-19.08"/>
<polygon fill="#63b8ff" stroke="#63b8ff" points="839.89,-48.55 831.47,-54.98 842.06,-55.2 839.89,-48.55"/>
</a>
</g>
</g>
<!-- Node34 -->
<g id="Node000034" class="node">
<title>Node34</title>
<g id="a_Node000034"><a xlink:href="tabpopup_8c.html" target="_top" xlink:title=" ">
<polygon fill="white" stroke="#666666" points="330.94,-19 261.94,-19 261.94,0 330.94,0 330.94,-19"/>
<text text-anchor="middle" x="296.44" y="-7" font-family="Inter" font-size="10.00">tabpopup.c</text>
</a>
</g>
</g>
<!-- Node52&#45;&gt;Node34 -->
<g id="edge18_Node000052_Node000034" class="edge">
<title>Node52&#45;&gt;Node34</title>
<g id="a_edge18_Node000052_Node000034"><a xlink:title=" ">
<path fill="none" stroke="#63b8ff" d="M94.94,-53.74C143.07,-43.41 217.95,-27.34 261.6,-17.98"/>
<polygon fill="#63b8ff" stroke="#63b8ff" points="94.14,-50.33 85.1,-55.85 95.61,-57.17 94.14,-50.33"/>
</a>
</g>
</g>
<!-- Node52&#45;&gt;Node53 -->
<g id="edge19_Node000052_Node000053" class="edge">
<title>Node52&#45;&gt;Node53</title>
<g id="a_edge19_Node000052_Node000053"><a xlink:title=" ">
<path fill="none" stroke="#63b8ff" d="M49.44,-44.66C49.44,-35.93 49.44,-25.99 49.44,-19.09"/>
<polygon fill="#63b8ff" stroke="#63b8ff" points="45.94,-44.75 49.44,-54.75 52.94,-44.75 45.94,-44.75"/>
</a>
</g>
</g>
<!-- Node55&#45;&gt;Node49 -->
<g id="edge22_Node000055_Node000049" class="edge">
<title>Node55&#45;&gt;Node49</title>
<g id="a_edge22_Node000055_Node000049"><a xlink:title=" ">
<path fill="none" stroke="#63b8ff" d="M436.54,-44.95C434.22,-36.15 431.56,-26.06 429.71,-19.09"/>
<polygon fill="#63b8ff" stroke="#63b8ff" points="433.19,-45.97 439.13,-54.75 439.96,-44.19 433.19,-45.97"/>
</a>
</g>
</g>
<!-- Node55&#45;&gt;Node34 -->
<g id="edge23_Node000055_Node000034" class="edge">
<title>Node55&#45;&gt;Node34</title>
<g id="a_edge23_Node000055_Node000034"><a xlink:title=" ">
<path fill="none" stroke="#63b8ff" d="M408.75,-51.55C381.82,-41.71 344.28,-27.98 320.16,-19.17"/>
<polygon fill="#63b8ff" stroke="#63b8ff" points="407.55,-54.84 418.15,-54.98 409.96,-48.26 407.55,-54.84"/>
</a>
</g>
</g>
<!-- Node66 -->
<g id="Node000066" class="node">
<title>Node66</title>
<g id="a_Node000066"><a xlink:href="marco_2src_2ui_2theme_8c.html" target="_top" xlink:title=" ">
<polygon fill="white" stroke="#666666" points="709.94,-19 654.94,-19 654.94,0 709.94,0 709.94,-19"/>
<text text-anchor="middle" x="682.44" y="-7" font-family="Inter" font-size="10.00">theme.c</text>
</a>
</g>
</g>
<!-- Node55&#45;&gt;Node66 -->
<g id="edge24_Node000055_Node000066" class="edge">
<title>Node55&#45;&gt;Node66</title>
<g id="a_edge24_Node000055_Node000066"><a xlink:title=" ">
<path fill="none" stroke="#63b8ff" d="M479.35,-55.36C520.33,-46.53 587.56,-31.96 645.44,-19 648.4,-18.34 651.49,-17.64 654.57,-16.94"/>
<polygon fill="#63b8ff" stroke="#63b8ff" points="478.55,-51.95 469.51,-57.48 480.03,-58.8 478.55,-51.95"/>
</a>
</g>
</g>
<!-- Node60 -->
<g id="Node000060" class="node">
<title>Node60</title>
<g id="a_Node000060"><a xlink:href="ui_8c.html" target="_top" xlink:title=" ">
<polygon fill="white" stroke="#666666" points="381.44,-19 349.44,-19 349.44,0 381.44,0 381.44,-19"/>
<text text-anchor="middle" x="365.44" y="-7" font-family="Inter" font-size="10.00">ui.c</text>
</a>
</g>
</g>
<!-- Node55&#45;&gt;Node60 -->
<g id="edge25_Node000055_Node000060" class="edge">
<title>Node55&#45;&gt;Node60</title>
<g id="a_edge25_Node000055_Node000060"><a xlink:title=" ">
<path fill="none" stroke="#63b8ff" d="M420.87,-49.15C407.13,-39.57 389.52,-27.29 377.88,-19.17"/>
<polygon fill="#63b8ff" stroke="#63b8ff" points="419.03,-52.14 429.23,-54.98 423.03,-46.39 419.03,-52.14"/>
</a>
</g>
</g>
<!-- Node67&#45;&gt;Node53 -->
<g id="edge28_Node000067_Node000053" class="edge">
<title>Node67&#45;&gt;Node53</title>
<g id="a_edge28_Node000067_Node000053"><a xlink:title=" ">
<path fill="none" stroke="#63b8ff" d="M118.69,-49.97C101.69,-40.28 79.31,-27.52 64.66,-19.17"/>
<polygon fill="#63b8ff" stroke="#63b8ff" points="117.08,-53.07 127.5,-54.98 120.55,-46.99 117.08,-53.07"/>
</a>
</g>
</g>
<!-- Node48 -->
<g id="Node000048" class="node">
<title>Node48</title>
<g id="a_Node000048"><a xlink:href="tile-preview_8c.html" target="_top" xlink:title=" ">
<polygon fill="white" stroke="#666666" points="174.94,-19 97.94,-19 97.94,0 174.94,0 174.94,-19"/>
<text text-anchor="middle" x="136.44" y="-7" font-family="Inter" font-size="10.00">tile&#45;preview.c</text>
</a>
</g>
</g>
<!-- Node67&#45;&gt;Node48 -->
<g id="edge27_Node000067_Node000048" class="edge">
<title>Node67&#45;&gt;Node48</title>
<g id="a_edge27_Node000067_Node000048"><a xlink:title=" ">
<path fill="none" stroke="#63b8ff" d="M140.31,-44.66C139.32,-35.93 138.2,-25.99 137.42,-19.09"/>
<polygon fill="#63b8ff" stroke="#63b8ff" points="136.85,-45.21 141.45,-54.75 143.81,-44.42 136.85,-45.21"/>
</a>
</g>
</g>
<!-- Node69&#45;&gt;Node19 -->
<g id="edge33_Node000069_Node000019" class="edge">
<title>Node69&#45;&gt;Node19</title>
<g id="a_edge33_Node000069_Node000019"><a xlink:title=" ">
<path fill="none" stroke="#63b8ff" d="M255.84,-55.01C399.55,-28.96 440.28,-44.66 580.44,-19 583.47,-18.45 586.63,-17.77 589.74,-17.04"/>
<polygon fill="#63b8ff" stroke="#63b8ff" points="254.97,-51.61 245.77,-56.87 256.24,-58.49 254.97,-51.61"/>
</a>
</g>
</g>
<!-- Node69&#45;&gt;Node49 -->
<g id="edge32_Node000069_Node000049" class="edge">
<title>Node69&#45;&gt;Node49</title>
<g id="a_edge32_Node000069_Node000049"><a xlink:title=" ">
<path fill="none" stroke="#63b8ff" d="M255.34,-54.78C311.89,-40.02 366.88,-25.94 399.26,-17.68"/>
<polygon fill="#63b8ff" stroke="#63b8ff" points="254.3,-51.43 245.51,-57.35 256.07,-58.21 254.3,-51.43"/>
</a>
</g>
</g>
<!-- Node69&#45;&gt;Node34 -->
<g id="edge35_Node000069_Node000034" class="edge">
<title>Node69&#45;&gt;Node34</title>
<g id="a_edge35_Node000069_Node000034"><a xlink:title=" ">
<path fill="none" stroke="#63b8ff" d="M242.48,-49.15C255.85,-39.57 273,-27.29 284.34,-19.17"/>
<polygon fill="#63b8ff" stroke="#63b8ff" points="240.43,-46.32 234.33,-54.98 244.5,-52.01 240.43,-46.32"/>
</a>
</g>
</g>
<!-- Node69&#45;&gt;Node60 -->
<g id="edge37_Node000069_Node000060" class="edge">
<title>Node69&#45;&gt;Node60</title>
<g id="a_edge37_Node000069_Node000060"><a xlink:title=" ">
<path fill="none" stroke="#63b8ff" d="M254.85,-51.49C284.24,-40.6 326.35,-24.99 349.2,-16.52"/>
<polygon fill="#63b8ff" stroke="#63b8ff" points="253.58,-48.23 245.42,-54.98 256.01,-54.79 253.58,-48.23"/>
</a>
</g>
</g>
<!-- Node69&#45;&gt;Node48 -->
<g id="edge36_Node000069_Node000048" class="edge">
<title>Node69&#45;&gt;Node48</title>
<g id="a_edge36_Node000069_Node000048"><a xlink:title=" ">
<path fill="none" stroke="#63b8ff" d="M200.04,-49.7C184.38,-40.04 163.94,-27.44 150.51,-19.17"/>
<polygon fill="#63b8ff" stroke="#63b8ff" points="198.28,-52.72 208.63,-54.98 201.95,-46.76 198.28,-52.72"/>
</a>
</g>
</g>
<!-- Node30 -->
<g id="Node000030" class="node">
<title>Node30</title>
<g id="a_Node000030"><a xlink:href="core_8c.html" target="_top" xlink:title=" ">
<polygon fill="white" stroke="#666666" points="845.44,-19 801.44,-19 801.44,0 845.44,0 845.44,-19"/>
<text text-anchor="middle" x="823.44" y="-7" font-family="Inter" font-size="10.00">core.c</text>
</a>
</g>
</g>
<!-- Node69&#45;&gt;Node30 -->
<g id="edge31_Node000069_Node000030" class="edge">
<title>Node69&#45;&gt;Node30</title>
<g id="a_edge31_Node000069_Node000030"><a xlink:title=" ">
<path fill="none" stroke="#63b8ff" d="M255.69,-55.13C492.27,-17.24 558.65,-57.35 791.44,-19 794.62,-18.48 797.94,-17.78 801.18,-17"/>
<polygon fill="#63b8ff" stroke="#63b8ff" points="255.06,-51.69 245.75,-56.75 256.18,-58.6 255.06,-51.69"/>
</a>
</g>
</g>
<!-- Node59 -->
<g id="Node000059" class="node">
<title>Node59</title>
<g id="a_Node000059"><a xlink:href="marco_2src_2ui_2menu_8c.html" target="_top" xlink:title=" ">
<polygon fill="white" stroke="#666666" points="243.94,-19 192.94,-19 192.94,0 243.94,0 243.94,-19"/>
<text text-anchor="middle" x="218.44" y="-7" font-family="Inter" font-size="10.00">menu.c</text>
</a>
</g>
</g>
<!-- Node69&#45;&gt;Node59 -->
<g id="edge34_Node000069_Node000059" class="edge">
<title>Node69&#45;&gt;Node59</title>
<g id="a_edge34_Node000069_Node000059"><a xlink:title=" ">
<path fill="none" stroke="#63b8ff" d="M221.02,-44.66C220.36,-35.93 219.61,-25.99 219.09,-19.09"/>
<polygon fill="#63b8ff" stroke="#63b8ff" points="217.54,-45.04 221.78,-54.75 224.52,-44.51 217.54,-45.04"/>
</a>
</g>
</g>
<!-- Node29 -->
<g id="Node000029" class="node">
<title>Node29</title>
<g id="a_Node000029"><a xlink:href="frame-private_8h.html" target="_top" xlink:title=" ">
<polygon fill="#fff0f0" stroke="red" points="1048.94,-74 959.94,-74 959.94,-55 1048.94,-55 1048.94,-74"/>
<text text-anchor="middle" x="1004.44" y="-62" font-family="Inter" font-size="10.00">frame&#45;private.h</text>
</a>
</g>
</g>
<!-- Node70&#45;&gt;Node29 -->
<g id="edge39_Node000070_Node000029" class="edge">
<title>Node70&#45;&gt;Node29</title>
<g id="a_edge39_Node000070_Node000029"><a xlink:title=" ">
<path fill="none" stroke="#63b8ff" d="M899.77,-106.29C924.98,-96.47 959.78,-82.91 982.2,-74.17"/>
<polygon fill="#63b8ff" stroke="#63b8ff" points="898.34,-103.09 890.29,-109.98 900.88,-109.61 898.34,-103.09"/>
</a>
</g>
</g>
<!-- Node29&#45;&gt;Node7 -->
<g id="edge41_Node000029_Node000007" class="edge">
<title>Node29&#45;&gt;Node7</title>
<g id="a_edge41_Node000029_Node000007"><a xlink:title=" ">
<path fill="none" stroke="#63b8ff" d="M952.62,-52.91C909.66,-44.06 847.02,-31 792.44,-19 789.48,-18.35 786.39,-17.66 783.31,-16.96"/>
<polygon fill="#63b8ff" stroke="#63b8ff" points="952.06,-56.36 962.56,-54.95 953.47,-49.51 952.06,-56.36"/>
</a>
</g>
</g>
<!-- Node29&#45;&gt;Node8 -->
<g id="edge44_Node000029_Node000008" class="edge">
<title>Node29&#45;&gt;Node8</title>
<g id="a_edge44_Node000029_Node000008"><a xlink:title=" ">
<path fill="none" stroke="#63b8ff" d="M1016.71,-46.39C1023.25,-37.27 1031.01,-26.45 1036.29,-19.09"/>
<polygon fill="#63b8ff" stroke="#63b8ff" points="1013.7,-44.58 1010.72,-54.75 1019.39,-48.66 1013.7,-44.58"/>
</a>
</g>
</g>
<!-- Node29&#45;&gt;Node9 -->
<g id="edge47_Node000029_Node000009" class="edge">
<title>Node29&#45;&gt;Node9</title>
<g id="a_edge47_Node000029_Node000009"><a xlink:title=" ">
<path fill="none" stroke="#63b8ff" d="M992.5,-46.39C986.13,-37.27 978.58,-26.45 973.44,-19.09"/>
<polygon fill="#63b8ff" stroke="#63b8ff" points="989.74,-48.55 998.33,-54.75 995.48,-44.55 989.74,-48.55"/>
</a>
</g>
</g>
<!-- Node29&#45;&gt;Node34 -->
<g id="edge46_Node000029_Node000034" class="edge">
<title>Node29&#45;&gt;Node34</title>
<g id="a_edge46_Node000029_Node000034"><a xlink:title=" ">
<path fill="none" stroke="#63b8ff" d="M949.57,-55.03C678.68,-26.5 606.62,-52.42 340.44,-19 337.36,-18.61 334.16,-18.14 330.96,-17.61"/>
<polygon fill="#63b8ff" stroke="#63b8ff" points="949.38,-58.53 959.7,-56.11 950.13,-51.57 949.38,-58.53"/>
</a>
</g>
</g>
<!-- Node29&#45;&gt;Node30 -->
<g id="edge40_Node000029_Node000030" class="edge">
<title>Node29&#45;&gt;Node30</title>
<g id="a_edge40_Node000029_Node000030"><a xlink:title=" ">
<path fill="none" stroke="#63b8ff" d="M965.52,-52.1C928.92,-41.39 875.42,-25.72 845.61,-16.99"/>
<polygon fill="#63b8ff" stroke="#63b8ff" points="964.78,-55.53 975.36,-54.98 966.75,-48.82 964.78,-55.53"/>
</a>
</g>
</g>
<!-- Node13 -->
<g id="Node000013" class="node">
<title>Node13</title>
<g id="a_Node000013"><a xlink:href="frame_8c.html" target="_top" xlink:title=" ">
<polygon fill="white" stroke="#666666" points="1302.44,-19 1250.44,-19 1250.44,0 1302.44,0 1302.44,-19"/>
<text text-anchor="middle" x="1276.44" y="-7" font-family="Inter" font-size="10.00">frame.c</text>
</a>
</g>
</g>
<!-- Node29&#45;&gt;Node13 -->
<g id="edge42_Node000029_Node000013" class="edge">
<title>Node29&#45;&gt;Node13</title>
<g id="a_edge42_Node000029_Node000013"><a xlink:title=" ">
<path fill="none" stroke="#63b8ff" d="M1059.04,-54.09C1107.18,-45.59 1179.16,-32.4 1241.44,-19 1244.26,-18.39 1247.19,-17.73 1250.1,-17.05"/>
<polygon fill="#63b8ff" stroke="#63b8ff" points="1058.38,-50.65 1049.14,-55.83 1059.59,-57.55 1058.38,-50.65"/>
</a>
</g>
</g>
<!-- Node18 -->
<g id="Node000018" class="node">
<title>Node18</title>
<g id="a_Node000018"><a xlink:href="keybindings_8c.html" target="_top" xlink:title=" ">
<polygon fill="white" stroke="#666666" points="1166.94,-19 1087.94,-19 1087.94,0 1166.94,0 1166.94,-19"/>
<text text-anchor="middle" x="1127.44" y="-7" font-family="Inter" font-size="10.00">keybindings.c</text>
</a>
</g>
</g>
<!-- Node29&#45;&gt;Node18 -->
<g id="edge43_Node000029_Node000018" class="edge">
<title>Node29&#45;&gt;Node18</title>
<g id="a_edge43_Node000029_Node000018"><a xlink:title=" ">
<path fill="none" stroke="#63b8ff" d="M1033.69,-50.9C1056.41,-41.11 1087.31,-27.79 1107.32,-19.17"/>
<polygon fill="#63b8ff" stroke="#63b8ff" points="1032,-47.81 1024.21,-54.98 1034.77,-54.24 1032,-47.81"/>
</a>
</g>
</g>
<!-- Node33 -->
<g id="Node000033" class="node">
<title>Node33</title>
<g id="a_Node000033"><a xlink:href="marco_2src_2core_2stack_8c.html" target="_top" xlink:title=" ">
<polygon fill="white" stroke="#666666" points="1231.94,-19 1184.94,-19 1184.94,0 1231.94,0 1231.94,-19"/>
<text text-anchor="middle" x="1208.44" y="-7" font-family="Inter" font-size="10.00">stack.c</text>
</a>
</g>
</g>
<!-- Node29&#45;&gt;Node33 -->
<g id="edge45_Node000029_Node000033" class="edge">
<title>Node29&#45;&gt;Node33</title>
<g id="a_edge45_Node000029_Node000033"><a xlink:title=" ">
<path fill="none" stroke="#63b8ff" d="M1047.59,-52.42C1082.39,-43.46 1132.59,-30.5 1176.44,-19 1179.11,-18.3 1181.91,-17.56 1184.68,-16.83"/>
<polygon fill="#63b8ff" stroke="#63b8ff" points="1046.57,-49.07 1037.76,-54.95 1048.31,-55.85 1046.57,-49.07"/>
</a>
</g>
</g>
<!-- Node71&#45;&gt;Node7 -->
<g id="edge52_Node000071_Node000007" class="edge">
<title>Node71&#45;&gt;Node7</title>
<g id="a_edge52_Node000071_Node000007"><a xlink:title=" ">
<path fill="none" stroke="#63b8ff" d="M1057.14,-54.95C939.5,-32.91 906.6,-39.79 792.44,-19 789.46,-18.46 786.36,-17.83 783.27,-17.18"/>
<polygon fill="#63b8ff" stroke="#63b8ff" points="1056.78,-58.44 1067.26,-56.88 1058.09,-51.57 1056.78,-58.44"/>
</a>
</g>
</g>
<!-- Node71&#45;&gt;Node8 -->
<g id="edge60_Node000071_Node000008" class="edge">
<title>Node71&#45;&gt;Node8</title>
<g id="a_edge60_Node000071_Node000008"><a xlink:title=" ">
<path fill="none" stroke="#63b8ff" d="M1077.1,-47.24C1068.34,-37.95 1057.71,-26.68 1050.55,-19.09"/>
<polygon fill="#63b8ff" stroke="#63b8ff" points="1074.78,-49.88 1084.19,-54.75 1079.87,-45.07 1074.78,-49.88"/>
</a>
</g>
</g>
<!-- Node71&#45;&gt;Node9 -->
<g id="edge65_Node000071_Node000009" class="edge">
<title>Node71&#45;&gt;Node9</title>
<g id="a_edge65_Node000071_Node000009"><a xlink:title=" ">
<path fill="none" stroke="#63b8ff" d="M1063.03,-51.03C1039.92,-41.23 1008.32,-27.83 987.89,-19.17"/>
<polygon fill="#63b8ff" stroke="#63b8ff" points="1061.79,-54.3 1072.36,-54.98 1064.52,-47.86 1061.79,-54.3"/>
</a>
</g>
</g>
<!-- Node71&#45;&gt;Node15 -->
<g id="edge53_Node000071_Node000015" class="edge">
<title>Node71&#45;&gt;Node15</title>
<g id="a_edge53_Node000071_Node000015"><a xlink:title=" ">
<path fill="none" stroke="#63b8ff" d="M1057.51,-54.29C1018.43,-43.98 955.87,-27.49 919.73,-17.96"/>
<polygon fill="#63b8ff" stroke="#63b8ff" points="1056.83,-57.73 1067.39,-56.89 1058.62,-50.96 1056.83,-57.73"/>
</a>
</g>
</g>
<!-- Node71&#45;&gt;Node19 -->
<g id="edge57_Node000071_Node000019" class="edge">
<title>Node71&#45;&gt;Node19</title>
<g id="a_edge57_Node000071_Node000019"><a xlink:title=" ">
<path fill="none" stroke="#63b8ff" d="M1057.37,-55.1C874.93,-25.46 823.75,-50.21 645.44,-19 642.73,-18.52 639.9,-17.93 637.11,-17.27"/>
<polygon fill="#63b8ff" stroke="#63b8ff" points="1056.85,-58.56 1067.29,-56.74 1057.99,-51.65 1056.85,-58.56"/>
</a>
</g>
</g>
<!-- Node71&#45;&gt;Node49 -->
<g id="edge55_Node000071_Node000049" class="edge">
<title>Node71&#45;&gt;Node49</title>
<g id="a_edge55_Node000071_Node000049"><a xlink:title=" ">
<path fill="none" stroke="#63b8ff" d="M1057.1,-55.11C795.21,-15.81 722.9,-56.26 464.44,-19 461.57,-18.59 458.6,-18.06 455.64,-17.48"/>
<polygon fill="#63b8ff" stroke="#63b8ff" points="1056.88,-58.62 1067.3,-56.66 1057.94,-51.7 1056.88,-58.62"/>
</a>
</g>
</g>
<!-- Node71&#45;&gt;Node34 -->
<g id="edge62_Node000071_Node000034" class="edge">
<title>Node71&#45;&gt;Node34</title>
<g id="a_edge62_Node000071_Node000034"><a xlink:title=" ">
<path fill="none" stroke="#63b8ff" d="M1057.38,-55.17C740.64,-9.03 654.39,-57 340.44,-19 337.35,-18.63 334.16,-18.16 330.96,-17.64"/>
<polygon fill="#63b8ff" stroke="#63b8ff" points="1056.9,-58.64 1067.3,-56.63 1057.92,-51.71 1056.9,-58.64"/>
</a>
</g>
</g>
<!-- Node71&#45;&gt;Node66 -->
<g id="edge63_Node000071_Node000066" class="edge">
<title>Node71&#45;&gt;Node66</title>
<g id="a_edge63_Node000071_Node000066"><a xlink:title=" ">
<path fill="none" stroke="#63b8ff" d="M1057.22,-55.03C907.02,-29.18 865.03,-43.96 718.44,-19 715.79,-18.55 713.03,-18.01 710.28,-17.44"/>
<polygon fill="#63b8ff" stroke="#63b8ff" points="1056.82,-58.51 1067.28,-56.79 1058.03,-51.62 1056.82,-58.51"/>
</a>
</g>
</g>
<!-- Node71&#45;&gt;Node60 -->
<g id="edge64_Node000071_Node000060" class="edge">
<title>Node71&#45;&gt;Node60</title>
<g id="a_edge64_Node000071_Node000060"><a xlink:title=" ">
<path fill="none" stroke="#63b8ff" d="M1057.18,-55.14C762.57,-12.18 679.09,-74.75 390.44,-19 387.56,-18.44 384.56,-17.63 381.68,-16.73"/>
<polygon fill="#63b8ff" stroke="#63b8ff" points="1056.9,-58.64 1067.3,-56.65 1057.93,-51.71 1056.9,-58.64"/>
</a>
</g>
</g>
<!-- Node71&#45;&gt;Node30 -->
<g id="edge51_Node000071_Node000030" class="edge">
<title>Node71&#45;&gt;Node30</title>
<g id="a_edge51_Node000071_Node000030"><a xlink:title=" ">
<path fill="none" stroke="#63b8ff" d="M1057.36,-54.9C966.67,-36.03 941.2,-38.5 854.44,-19 851.61,-18.36 848.65,-17.63 845.73,-16.88"/>
<polygon fill="#63b8ff" stroke="#63b8ff" points="1056.73,-58.35 1067.24,-56.99 1058.18,-51.5 1056.73,-58.35"/>
</a>
</g>
</g>
<!-- Node71&#45;&gt;Node13 -->
<g id="edge54_Node000071_Node000013" class="edge">
<title>Node71&#45;&gt;Node13</title>
<g id="a_edge54_Node000071_Node000013"><a xlink:title=" ">
<path fill="none" stroke="#63b8ff" d="M1127.67,-53.35C1163.51,-43.03 1218.23,-27.27 1250.36,-18.01"/>
<polygon fill="#63b8ff" stroke="#63b8ff" points="1126.28,-50.11 1117.64,-56.24 1128.22,-56.84 1126.28,-50.11"/>
</a>
</g>
</g>
<!-- Node71&#45;&gt;Node18 -->
<g id="edge56_Node000071_Node000018" class="edge">
<title>Node71&#45;&gt;Node18</title>
<g id="a_edge56_Node000071_Node000018"><a xlink:title=" ">
<path fill="none" stroke="#63b8ff" d="M1103.74,-46.39C1109.77,-37.27 1116.91,-26.45 1121.77,-19.09"/>
<polygon fill="#63b8ff" stroke="#63b8ff" points="1100.81,-44.47 1098.22,-54.75 1106.65,-48.33 1100.81,-44.47"/>
</a>
</g>
</g>
<!-- Node71&#45;&gt;Node33 -->
<g id="edge61_Node000071_Node000033" class="edge">
<title>Node71&#45;&gt;Node33</title>
<g id="a_edge61_Node000071_Node000033"><a xlink:title=" ">
<path fill="none" stroke="#63b8ff" d="M1120.32,-50.77C1141.71,-40.99 1170.68,-27.75 1189.47,-19.17"/>
<polygon fill="#63b8ff" stroke="#63b8ff" points="1118.72,-47.65 1111.08,-54.98 1121.63,-54.01 1118.72,-47.65"/>
</a>
</g>
</g>
<!-- Node12 -->
<g id="Node000012" class="node">
<title>Node12</title>
<g id="a_Node000012"><a xlink:href="bell_8c.html" target="_top" xlink:title=" ">
<polygon fill="white" stroke="#666666" points="1519.94,-19 1478.94,-19 1478.94,0 1519.94,0 1519.94,-19"/>
<text text-anchor="middle" x="1499.44" y="-7" font-family="Inter" font-size="10.00">bell.c</text>
</a>
</g>
</g>
<!-- Node71&#45;&gt;Node12 -->
<g id="edge49_Node000071_Node000012" class="edge">
<title>Node71&#45;&gt;Node12</title>
<g id="a_edge49_Node000071_Node000012"><a xlink:title=" ">
<path fill="none" stroke="#63b8ff" d="M1127.85,-61.2C1194.99,-56.43 1345.21,-43.77 1469.44,-19 1472.52,-18.39 1475.75,-17.61 1478.89,-16.79"/>
<polygon fill="#63b8ff" stroke="#63b8ff" points="1127.54,-57.72 1117.81,-61.9 1128.03,-64.7 1127.54,-57.72"/>
</a>
</g>
</g>
<!-- Node26 -->
<g id="Node000026" class="node">
<title>Node26</title>
<g id="a_Node000026"><a xlink:href="constraints_8c.html" target="_top" xlink:title=" ">
<polygon fill="white" stroke="#666666" points="1612.44,-19 1538.44,-19 1538.44,0 1612.44,0 1612.44,-19"/>
<text text-anchor="middle" x="1575.44" y="-7" font-family="Inter" font-size="10.00">constraints.c</text>
</a>
</g>
</g>
<!-- Node71&#45;&gt;Node26 -->
<g id="edge50_Node000071_Node000026" class="edge">
<title>Node71&#45;&gt;Node26</title>
<g id="a_edge50_Node000071_Node000026"><a xlink:title=" ">
<path fill="none" stroke="#63b8ff" d="M1127.89,-60.87C1202.44,-55.13 1380.86,-40.26 1529.44,-19 1532.34,-18.59 1535.33,-18.12 1538.33,-17.63"/>
<polygon fill="#63b8ff" stroke="#63b8ff" points="1127.36,-57.4 1117.66,-61.65 1127.89,-64.38 1127.36,-57.4"/>
</a>
</g>
</g>
<!-- Node32 -->
<g id="Node000032" class="node">
<title>Node32</title>
<g id="a_Node000032"><a xlink:href="place_8c.html" target="_top" xlink:title=" ">
<polygon fill="white" stroke="#666666" points="1678.44,-19 1630.44,-19 1630.44,0 1678.44,0 1678.44,-19"/>
<text text-anchor="middle" x="1654.44" y="-7" font-family="Inter" font-size="10.00">place.c</text>
</a>
</g>
</g>
<!-- Node71&#45;&gt;Node32 -->
<g id="edge58_Node000071_Node000032" class="edge">
<title>Node71&#45;&gt;Node32</title>
<g id="a_edge58_Node000071_Node000032"><a xlink:title=" ">
<path fill="none" stroke="#63b8ff" d="M1127.88,-62.57C1213.35,-59.9 1437.36,-50.22 1621.44,-19 1624.36,-18.51 1627.4,-17.88 1630.39,-17.19"/>
<polygon fill="#63b8ff" stroke="#63b8ff" points="1127.58,-59.08 1117.69,-62.88 1127.79,-66.08 1127.58,-59.08"/>
</a>
</g>
</g>
<!-- Node72 -->
<g id="Node000072" class="node">
<title>Node72</title>
<g id="a_Node000072"><a xlink:href="prefs_8c.html" target="_top" xlink:title=" ">
<polygon fill="white" stroke="#666666" points="1368.44,-19 1320.44,-19 1320.44,0 1368.44,0 1368.44,-19"/>
<text text-anchor="middle" x="1344.44" y="-7" font-family="Inter" font-size="10.00">prefs.c</text>
</a>
</g>
</g>
<!-- Node71&#45;&gt;Node72 -->
<g id="edge59_Node000071_Node000072" class="edge">
<title>Node71&#45;&gt;Node72</title>
<g id="a_edge59_Node000071_Node000072"><a xlink:title=" ">
<path fill="none" stroke="#63b8ff" d="M1127.53,-56.95C1170.88,-48.72 1246.83,-33.88 1311.44,-19 1314.33,-18.34 1317.34,-17.61 1320.33,-16.86"/>
<polygon fill="#63b8ff" stroke="#63b8ff" points="1126.67,-53.55 1117.5,-58.85 1127.97,-60.43 1126.67,-53.55"/>
</a>
</g>
</g>
<!-- Node45 -->
<g id="Node000045" class="node">
<title>Node45</title>
<g id="a_Node000045"><a xlink:href="workspace_8c.html" target="_top" xlink:title=" ">
<polygon fill="white" stroke="#666666" points="1460.44,-19 1386.44,-19 1386.44,0 1460.44,0 1460.44,-19"/>
<text text-anchor="middle" x="1423.44" y="-7" font-family="Inter" font-size="10.00">workspace.c</text>
</a>
</g>
</g>
<!-- Node71&#45;&gt;Node45 -->
<g id="edge66_Node000071_Node000045" class="edge">
<title>Node71&#45;&gt;Node45</title>
<g id="a_edge66_Node000071_Node000045"><a xlink:title=" ">
<path fill="none" stroke="#63b8ff" d="M1127.71,-58.32C1181.6,-50.32 1287.66,-34.3 1377.44,-19 1380.33,-18.51 1383.31,-17.99 1386.3,-17.45"/>
<polygon fill="#63b8ff" stroke="#63b8ff" points="1127.02,-54.88 1117.64,-59.81 1128.05,-61.8 1127.02,-54.88"/>
</a>
</g>
</g>
</g>
</svg>
