<?xml version="1.0" encoding="UTF-8" standalone="no"?>
<!DOCTYPE svg PUBLIC "-//W3C//DTD SVG 1.1//EN"
 "http://www.w3.org/Graphics/SVG/1.1/DTD/svg11.dtd">
<!-- Generated by graphviz version 2.43.0 (0)
 -->
<!-- Title: util.c Pages: 1 -->
<svg width="807pt" height="82pt"
 viewBox="0.00 0.00 807.00 82.00" xmlns="http://www.w3.org/2000/svg" xmlns:xlink="http://www.w3.org/1999/xlink">
<g id="graph0" class="graph" transform="scale(1 1) rotate(0) translate(4 78)">
<title>util.c</title>
<!-- Node1 -->
<g id="Node000001" class="node">
<title>Node1</title>
<g id="a_Node000001"><a xlink:title=" ">
<polygon fill="#999999" stroke="#666666" points="410,-74 372,-74 372,-55 410,-55 410,-74"/>
<text text-anchor="middle" x="391" y="-62" font-family="Inter" font-size="10.00">util.c</text>
</a>
</g>
</g>
<!-- Node2 -->
<g id="Node000002" class="node">
<title>Node2</title>
<g id="a_Node000002"><a xlink:title=" ">
<polygon fill="#e0e0e0" stroke="#999999" points="54,-19 0,-19 0,0 54,0 54,-19"/>
<text text-anchor="middle" x="27" y="-7" font-family="Inter" font-size="10.00">config.h</text>
</a>
</g>
</g>
<!-- Node1&#45;&gt;Node2 -->
<g id="edge1_Node000001_Node000002" class="edge">
<title>Node1&#45;&gt;Node2</title>
<g id="a_edge1_Node000001_Node000002"><a xlink:title=" ">
<path fill="none" stroke="#63b8ff" d="M371.67,-61.54C322.19,-56.39 186.79,-41.4 64.01,-19.02"/>
<polygon fill="#63b8ff" stroke="#63b8ff" points="64.54,-15.56 54.07,-17.19 63.27,-22.44 64.54,-15.56"/>
</a>
</g>
</g>
<!-- Node3 -->
<g id="Node000003" class="node">
<title>Node3</title>
<g id="a_Node000003"><a xlink:title=" ">
<polygon fill="#e0e0e0" stroke="#999999" points="158,-19 72,-19 72,0 158,0 158,-19"/>
<text text-anchor="middle" x="115" y="-7" font-family="Inter" font-size="10.00">glib/gi18n&#45;lib.h</text>
</a>
</g>
</g>
<!-- Node1&#45;&gt;Node3 -->
<g id="edge2_Node000001_Node000003" class="edge">
<title>Node1&#45;&gt;Node3</title>
<g id="a_edge2_Node000001_Node000003"><a xlink:title=" ">
<path fill="none" stroke="#63b8ff" d="M371.59,-59.77C329.87,-51.76 230.37,-32.65 168.25,-20.73"/>
<polygon fill="#63b8ff" stroke="#63b8ff" points="168.73,-17.25 158.24,-18.8 167.41,-24.13 168.73,-17.25"/>
</a>
</g>
</g>
<!-- Node4 -->
<g id="Node000004" class="node">
<title>Node4</title>
<g id="a_Node000004"><a xlink:title=" ">
<polygon fill="#e0e0e0" stroke="#999999" points="216,-19 176,-19 176,0 216,0 216,-19"/>
<text text-anchor="middle" x="196" y="-7" font-family="Inter" font-size="10.00">util.h</text>
</a>
</g>
</g>
<!-- Node1&#45;&gt;Node4 -->
<g id="edge3_Node000001_Node000004" class="edge">
<title>Node1&#45;&gt;Node4</title>
<g id="a_edge3_Node000001_Node000004"><a xlink:title=" ">
<path fill="none" stroke="#63b8ff" d="M371.54,-58.44C342.13,-50.76 284.38,-35.55 226.01,-19.24"/>
<polygon fill="#63b8ff" stroke="#63b8ff" points="226.84,-15.83 216.26,-16.5 224.95,-22.57 226.84,-15.83"/>
</a>
</g>
</g>
<!-- Node5 -->
<g id="Node000005" class="node">
<title>Node5</title>
<g id="a_Node000005"><a xlink:title=" ">
<polygon fill="#e0e0e0" stroke="#999999" points="282,-19 234,-19 234,0 282,0 282,-19"/>
<text text-anchor="middle" x="258" y="-7" font-family="Inter" font-size="10.00">main.h</text>
</a>
</g>
</g>
<!-- Node1&#45;&gt;Node5 -->
<g id="edge4_Node000001_Node000005" class="edge">
<title>Node1&#45;&gt;Node5</title>
<g id="a_edge4_Node000001_Node000005"><a xlink:title=" ">
<path fill="none" stroke="#63b8ff" d="M371.94,-55.91C350.29,-47.28 314.63,-33.07 288.97,-22.84"/>
<polygon fill="#63b8ff" stroke="#63b8ff" points="290.25,-19.59 279.67,-19.14 287.66,-26.09 290.25,-19.59"/>
</a>
</g>
</g>
<!-- Node6 -->
<g id="Node000006" class="node">
<title>Node6</title>
<g id="a_Node000006"><a xlink:title=" ">
<polygon fill="#e0e0e0" stroke="#999999" points="348,-19 300,-19 300,0 348,0 348,-19"/>
<text text-anchor="middle" x="324" y="-7" font-family="Inter" font-size="10.00">stdio.h</text>
</a>
</g>
</g>
<!-- Node1&#45;&gt;Node6 -->
<g id="edge5_Node000001_Node000006" class="edge">
<title>Node1&#45;&gt;Node6</title>
<g id="a_edge5_Node000001_Node000006"><a xlink:title=" ">
<path fill="none" stroke="#63b8ff" d="M380.24,-54.98C370.23,-47.07 355.11,-35.11 343.07,-25.58"/>
<polygon fill="#63b8ff" stroke="#63b8ff" points="344.97,-22.63 334.96,-19.17 340.63,-28.12 344.97,-22.63"/>
</a>
</g>
</g>
<!-- Node7 -->
<g id="Node000007" class="node">
<title>Node7</title>
<g id="a_Node000007"><a xlink:title=" ">
<polygon fill="#e0e0e0" stroke="#999999" points="416,-19 366,-19 366,0 416,0 416,-19"/>
<text text-anchor="middle" x="391" y="-7" font-family="Inter" font-size="10.00">stdlib.h</text>
</a>
</g>
</g>
<!-- Node1&#45;&gt;Node7 -->
<g id="edge6_Node000001_Node000007" class="edge">
<title>Node1&#45;&gt;Node7</title>
<g id="a_edge6_Node000001_Node000007"><a xlink:title=" ">
<path fill="none" stroke="#63b8ff" d="M391,-54.75C391,-47.8 391,-37.85 391,-29.13"/>
<polygon fill="#63b8ff" stroke="#63b8ff" points="394.5,-29.09 391,-19.09 387.5,-29.09 394.5,-29.09"/>
</a>
</g>
</g>
<!-- Node8 -->
<g id="Node000008" class="node">
<title>Node8</title>
<g id="a_Node000008"><a xlink:title=" ">
<polygon fill="#e0e0e0" stroke="#999999" points="488,-19 434,-19 434,0 488,0 488,-19"/>
<text text-anchor="middle" x="461" y="-7" font-family="Inter" font-size="10.00">unistd.h</text>
</a>
</g>
</g>
<!-- Node1&#45;&gt;Node8 -->
<g id="edge7_Node000001_Node000008" class="edge">
<title>Node1&#45;&gt;Node8</title>
<g id="a_edge7_Node000001_Node000008"><a xlink:title=" ">
<path fill="none" stroke="#63b8ff" d="M402.25,-54.98C412.8,-47 428.8,-34.88 441.44,-25.31"/>
<polygon fill="#63b8ff" stroke="#63b8ff" points="443.69,-28 449.55,-19.17 439.46,-22.42 443.69,-28"/>
</a>
</g>
</g>
<!-- Node9 -->
<g id="Node000009" class="node">
<title>Node9</title>
<g id="a_Node000009"><a xlink:title=" ">
<polygon fill="#e0e0e0" stroke="#999999" points="559.5,-19 506.5,-19 506.5,0 559.5,0 559.5,-19"/>
<text text-anchor="middle" x="533" y="-7" font-family="Inter" font-size="10.00">errno.h</text>
</a>
</g>
</g>
<!-- Node1&#45;&gt;Node9 -->
<g id="edge8_Node000001_Node000009" class="edge">
<title>Node1&#45;&gt;Node9</title>
<g id="a_edge8_Node000001_Node000009"><a xlink:title=" ">
<path fill="none" stroke="#63b8ff" d="M410.15,-56.35C433.21,-47.75 472.31,-33.15 500.21,-22.74"/>
<polygon fill="#63b8ff" stroke="#63b8ff" points="501.78,-25.89 509.93,-19.11 499.33,-19.33 501.78,-25.89"/>
</a>
</g>
</g>
<!-- Node10 -->
<g id="Node000010" class="node">
<title>Node10</title>
<g id="a_Node000010"><a xlink:title=" ">
<polygon fill="#e0e0e0" stroke="#999999" points="630.5,-19 577.5,-19 577.5,0 630.5,0 630.5,-19"/>
<text text-anchor="middle" x="604" y="-7" font-family="Inter" font-size="10.00">string.h</text>
</a>
</g>
</g>
<!-- Node1&#45;&gt;Node10 -->
<g id="edge9_Node000001_Node000010" class="edge">
<title>Node1&#45;&gt;Node10</title>
<g id="a_edge9_Node000001_Node000010"><a xlink:title=" ">
<path fill="none" stroke="#63b8ff" d="M410.28,-58.7C445.79,-49.87 522.06,-30.89 567.59,-19.56"/>
<polygon fill="#63b8ff" stroke="#63b8ff" points="568.51,-22.94 577.36,-17.13 566.82,-16.15 568.51,-22.94"/>
</a>
</g>
</g>
<!-- Node11 -->
<g id="Node000011" class="node">
<title>Node11</title>
<g id="a_Node000011"><a xlink:title=" ">
<polygon fill="#e0e0e0" stroke="#999999" points="713,-19 649,-19 649,0 713,0 713,-19"/>
<text text-anchor="middle" x="681" y="-7" font-family="Inter" font-size="10.00">X11/Xlib.h</text>
</a>
</g>
</g>
<!-- Node1&#45;&gt;Node11 -->
<g id="edge10_Node000001_Node000011" class="edge">
<title>Node1&#45;&gt;Node11</title>
<g id="a_edge10_Node000001_Node000011"><a xlink:title=" ">
<path fill="none" stroke="#63b8ff" d="M410.09,-60.27C450.38,-53.42 547.27,-36.75 638.81,-19.19"/>
<polygon fill="#63b8ff" stroke="#63b8ff" points="639.63,-22.59 648.79,-17.27 638.31,-15.72 639.63,-22.59"/>
</a>
</g>
</g>
<!-- Node12 -->
<g id="Node000012" class="node">
<title>Node12</title>
<g id="a_Node000012"><a xlink:title=" ">
<polygon fill="#e0e0e0" stroke="#999999" points="799,-19 731,-19 731,0 799,0 799,-19"/>
<text text-anchor="middle" x="765" y="-7" font-family="Inter" font-size="10.00">X11/Xutil.h</text>
</a>
</g>
</g>
<!-- Node1&#45;&gt;Node12 -->
<g id="edge11_Node000001_Node000012" class="edge">
<title>Node1&#45;&gt;Node12</title>
<g id="a_edge11_Node000001_Node000012"><a xlink:title=" ">
<path fill="none" stroke="#63b8ff" d="M410.09,-61.35C459.61,-55.69 596.41,-39.48 720.7,-19.13"/>
<polygon fill="#63b8ff" stroke="#63b8ff" points="721.47,-22.55 730.77,-17.46 720.33,-15.64 721.47,-22.55"/>
</a>
</g>
</g>
</g>
</svg>
