<?xml version="1.0" encoding="UTF-8" standalone="no"?>
<!DOCTYPE svg PUBLIC "-//W3C//DTD SVG 1.1//EN"
 "http://www.w3.org/Graphics/SVG/1.1/DTD/svg11.dtd">
<!-- Generated by graphviz version 2.43.0 (0)
 -->
<!-- Title: stack.h Pages: 1 -->
<svg width="1002pt" height="247pt"
 viewBox="0.00 0.00 1002.08 247.00" xmlns="http://www.w3.org/2000/svg" xmlns:xlink="http://www.w3.org/1999/xlink">
<g id="graph0" class="graph" transform="scale(1 1) rotate(0) translate(4 243)">
<title>stack.h</title>
<!-- Node1 -->
<g id="Node000001" class="node">
<title>Node1</title>
<g id="a_Node000001"><a xlink:title=" ">
<polygon fill="#999999" stroke="#666666" points="726.2,-239 677.2,-239 677.2,-220 726.2,-220 726.2,-239"/>
<text text-anchor="middle" x="701.7" y="-227" font-family="Inter" font-size="10.00">stack.h</text>
</a>
</g>
</g>
<!-- Node2 -->
<g id="Node000002" class="node">
<title>Node2</title>
<g id="a_Node000002"><a xlink:href="screen_8c.html" target="_top" xlink:title=" ">
<polygon fill="white" stroke="#666666" points="735.2,-74 680.2,-74 680.2,-55 735.2,-55 735.2,-74"/>
<text text-anchor="middle" x="707.7" y="-62" font-family="Inter" font-size="10.00">screen.c</text>
</a>
</g>
</g>
<!-- Node1&#45;&gt;Node2 -->
<g id="edge1_Node000001_Node000002" class="edge">
<title>Node1&#45;&gt;Node2</title>
<g id="a_edge1_Node000001_Node000002"><a xlink:title=" ">
<path fill="none" stroke="#63b8ff" d="M710.84,-210.6C720.22,-191.11 734.22,-158.75 739.7,-129 741.23,-120.7 742.29,-118.04 739.7,-110 735.15,-95.87 724.26,-82.44 716.45,-74.1"/>
<polygon fill="#63b8ff" stroke="#63b8ff" points="707.6,-209.25 706.3,-219.76 713.87,-212.36 707.6,-209.25"/>
</a>
</g>
</g>
<!-- Node3 -->
<g id="Node000003" class="node">
<title>Node3</title>
<g id="a_Node000003"><a xlink:href="marco_2src_2core_2stack_8c.html" target="_top" xlink:title=" ">
<polygon fill="white" stroke="#666666" points="119.2,-74 72.2,-74 72.2,-55 119.2,-55 119.2,-74"/>
<text text-anchor="middle" x="95.7" y="-62" font-family="Inter" font-size="10.00">stack.c</text>
</a>
</g>
</g>
<!-- Node1&#45;&gt;Node3 -->
<g id="edge2_Node000001_Node000003" class="edge">
<title>Node1&#45;&gt;Node3</title>
<g id="a_edge2_Node000001_Node000003"><a xlink:title=" ">
<path fill="none" stroke="#63b8ff" d="M666.97,-226.16C532.27,-216.76 49.69,-179.73 5.7,-129 -17.16,-102.63 38.31,-81.59 72.05,-71.68"/>
<polygon fill="#63b8ff" stroke="#63b8ff" points="666.91,-229.67 677.13,-226.87 667.4,-222.69 666.91,-229.67"/>
</a>
</g>
</g>
<!-- Node4 -->
<g id="Node000004" class="node">
<title>Node4</title>
<g id="a_Node000004"><a xlink:href="window-private_8h.html" target="_top" xlink:title=" ">
<polygon fill="white" stroke="#666666" points="535.2,-184 438.2,-184 438.2,-165 535.2,-165 535.2,-184"/>
<text text-anchor="middle" x="486.7" y="-172" font-family="Inter" font-size="10.00">window&#45;private.h</text>
</a>
</g>
</g>
<!-- Node1&#45;&gt;Node4 -->
<g id="edge3_Node000001_Node000004" class="edge">
<title>Node1&#45;&gt;Node4</title>
<g id="a_edge3_Node000001_Node000004"><a xlink:title=" ">
<path fill="none" stroke="#63b8ff" d="M667.19,-219.99C627.14,-210.12 561.45,-193.93 521.34,-184.04"/>
<polygon fill="#63b8ff" stroke="#63b8ff" points="666.49,-223.42 677.04,-222.42 668.17,-216.63 666.49,-223.42"/>
</a>
</g>
</g>
<!-- Node7 -->
<g id="Node000007" class="node">
<title>Node7</title>
<g id="a_Node000007"><a xlink:href="window_8c.html" target="_top" xlink:title=" ">
<polygon fill="white" stroke="#666666" points="590.2,-19 531.2,-19 531.2,0 590.2,0 590.2,-19"/>
<text text-anchor="middle" x="560.7" y="-7" font-family="Inter" font-size="10.00">window.c</text>
</a>
</g>
</g>
<!-- Node1&#45;&gt;Node7 -->
<g id="edge39_Node000001_Node000007" class="edge">
<title>Node1&#45;&gt;Node7</title>
<g id="a_edge39_Node000001_Node000007"><a xlink:title=" ">
<path fill="none" stroke="#63b8ff" d="M736.39,-221.52C826.58,-201.96 1056.14,-142.25 977.7,-55 951.84,-26.24 681.59,-14.56 590.49,-11.43"/>
<polygon fill="#63b8ff" stroke="#63b8ff" points="735.42,-218.15 726.36,-223.66 736.87,-225 735.42,-218.15"/>
</a>
</g>
</g>
<!-- Node4&#45;&gt;Node2 -->
<g id="edge24_Node000004_Node000002" class="edge">
<title>Node4&#45;&gt;Node2</title>
<g id="a_edge24_Node000004_Node000002"><a xlink:title=" ">
<path fill="none" stroke="#63b8ff" d="M545.48,-170.8C608.18,-166.55 701.48,-155.78 723.7,-129 736.92,-113.08 723.25,-87.7 714.25,-74.36"/>
<polygon fill="#63b8ff" stroke="#63b8ff" points="545.07,-167.32 535.31,-171.45 545.51,-174.31 545.07,-167.32"/>
</a>
</g>
</g>
<!-- Node4&#45;&gt;Node3 -->
<g id="edge27_Node000004_Node000003" class="edge">
<title>Node4&#45;&gt;Node3</title>
<g id="a_edge27_Node000004_Node000003"><a xlink:title=" ">
<path fill="none" stroke="#63b8ff" d="M427.86,-172.29C307.46,-169.2 42.02,-159.02 14.7,-129 -6.77,-105.41 41.08,-83.85 72.02,-72.95"/>
<polygon fill="#63b8ff" stroke="#63b8ff" points="427.92,-175.79 438,-172.54 428.09,-168.79 427.92,-175.79"/>
</a>
</g>
</g>
<!-- Node5 -->
<g id="Node000005" class="node">
<title>Node5</title>
<g id="a_Node000005"><a xlink:href="constraints_8h.html" target="_top" xlink:title=" ">
<polygon fill="#fff0f0" stroke="red" points="439.7,-74 363.7,-74 363.7,-55 439.7,-55 439.7,-74"/>
<text text-anchor="middle" x="401.7" y="-62" font-family="Inter" font-size="10.00">constraints.h</text>
</a>
</g>
</g>
<!-- Node4&#45;&gt;Node5 -->
<g id="edge4_Node000004_Node000005" class="edge">
<title>Node4&#45;&gt;Node5</title>
<g id="a_edge4_Node000004_Node000005"><a xlink:title=" ">
<path fill="none" stroke="#63b8ff" d="M484.52,-154.82C482.18,-141.31 477.4,-123.18 467.7,-110 455.75,-93.75 435.96,-81.56 421.17,-74.08"/>
<polygon fill="#63b8ff" stroke="#63b8ff" points="481.08,-155.48 485.97,-164.88 488.01,-154.48 481.08,-155.48"/>
</a>
</g>
</g>
<!-- Node4&#45;&gt;Node7 -->
<g id="edge31_Node000004_Node000007" class="edge">
<title>Node4&#45;&gt;Node7</title>
<g id="a_edge31_Node000004_Node000007"><a xlink:title=" ">
<path fill="none" stroke="#63b8ff" d="M545.48,-173.79C603.49,-171.89 693.3,-162.96 762.7,-129 794.9,-113.24 807.41,-106.87 821.7,-74 825.07,-66.26 827.15,-61.45 821.7,-55 792.35,-20.22 652.27,-12.62 590.3,-10.96"/>
<polygon fill="#63b8ff" stroke="#63b8ff" points="545.3,-170.3 535.39,-174.06 545.48,-177.29 545.3,-170.3"/>
</a>
</g>
</g>
<!-- Node8 -->
<g id="Node000008" class="node">
<title>Node8</title>
<g id="a_Node000008"><a xlink:href="delete_8c.html" target="_top" xlink:title=" ">
<polygon fill="white" stroke="#666666" points="661.7,-74 607.7,-74 607.7,-55 661.7,-55 661.7,-74"/>
<text text-anchor="middle" x="634.7" y="-62" font-family="Inter" font-size="10.00">delete.c</text>
</a>
</g>
</g>
<!-- Node4&#45;&gt;Node8 -->
<g id="edge6_Node000004_Node000008" class="edge">
<title>Node4&#45;&gt;Node8</title>
<g id="a_edge6_Node000004_Node000008"><a xlink:title=" ">
<path fill="none" stroke="#63b8ff" d="M545.56,-169.87C603.95,-164.9 687.56,-153.6 707.7,-129 726.11,-106.51 686.3,-85.42 658.55,-74.11"/>
<polygon fill="#63b8ff" stroke="#63b8ff" points="545.01,-166.41 535.33,-170.7 545.58,-173.38 545.01,-166.41"/>
</a>
</g>
</g>
<!-- Node9 -->
<g id="Node000009" class="node">
<title>Node9</title>
<g id="a_Node000009"><a xlink:href="display_8c.html" target="_top" xlink:title=" ">
<polygon fill="white" stroke="#666666" points="513.2,-74 458.2,-74 458.2,-55 513.2,-55 513.2,-74"/>
<text text-anchor="middle" x="485.7" y="-62" font-family="Inter" font-size="10.00">display.c</text>
</a>
</g>
</g>
<!-- Node4&#45;&gt;Node9 -->
<g id="edge7_Node000004_Node000009" class="edge">
<title>Node4&#45;&gt;Node9</title>
<g id="a_edge7_Node000004_Node000009"><a xlink:title=" ">
<path fill="none" stroke="#63b8ff" d="M428.05,-171.71C360.69,-168.27 256.29,-158.24 231.7,-129 187.04,-75.87 80.49,-146.77 448.7,-74 451.68,-73.41 454.78,-72.76 457.86,-72.09"/>
<polygon fill="#63b8ff" stroke="#63b8ff" points="427.96,-175.21 438.12,-172.19 428.29,-168.22 427.96,-175.21"/>
</a>
</g>
</g>
<!-- Node10 -->
<g id="Node000010" class="node">
<title>Node10</title>
<g id="a_Node000010"><a xlink:href="edge-resistance_8h.html" target="_top" xlink:title=" ">
<polygon fill="#fff0f0" stroke="red" points="968.2,-74 869.2,-74 869.2,-55 968.2,-55 968.2,-74"/>
<text text-anchor="middle" x="918.7" y="-62" font-family="Inter" font-size="10.00">edge&#45;resistance.h</text>
</a>
</g>
</g>
<!-- Node4&#45;&gt;Node10 -->
<g id="edge8_Node000004_Node000010" class="edge">
<title>Node4&#45;&gt;Node10</title>
<g id="a_edge8_Node000004_Node000010"><a xlink:title=" ">
<path fill="none" stroke="#63b8ff" d="M545.49,-171.02C635.21,-166.46 801.51,-154.75 854.7,-129 880.91,-116.31 902.82,-88.54 912.84,-74.3"/>
<polygon fill="#63b8ff" stroke="#63b8ff" points="545.29,-167.52 535.47,-171.51 545.63,-174.52 545.29,-167.52"/>
</a>
</g>
</g>
<!-- Node13 -->
<g id="Node000013" class="node">
<title>Node13</title>
<g id="a_Node000013"><a xlink:href="effects_8c.html" target="_top" xlink:title=" ">
<polygon fill="white" stroke="#666666" points="296.7,-129 240.7,-129 240.7,-110 296.7,-110 296.7,-129"/>
<text text-anchor="middle" x="268.7" y="-117" font-family="Inter" font-size="10.00">effects.c</text>
</a>
</g>
</g>
<!-- Node4&#45;&gt;Node13 -->
<g id="edge10_Node000004_Node000013" class="edge">
<title>Node4&#45;&gt;Node13</title>
<g id="a_edge10_Node000004_Node000013"><a xlink:title=" ">
<path fill="none" stroke="#63b8ff" d="M441.9,-162.61C398.31,-152.01 333.44,-136.24 296.71,-127.31"/>
<polygon fill="#63b8ff" stroke="#63b8ff" points="441.13,-166.02 451.68,-164.98 442.79,-159.22 441.13,-166.02"/>
</a>
</g>
</g>
<!-- Node14 -->
<g id="Node000014" class="node">
<title>Node14</title>
<g id="a_Node000014"><a xlink:href="frame-private_8h.html" target="_top" xlink:title=" ">
<polygon fill="#fff0f0" stroke="red" points="184.2,-129 95.2,-129 95.2,-110 184.2,-110 184.2,-129"/>
<text text-anchor="middle" x="139.7" y="-117" font-family="Inter" font-size="10.00">frame&#45;private.h</text>
</a>
</g>
</g>
<!-- Node4&#45;&gt;Node14 -->
<g id="edge11_Node000004_Node000014" class="edge">
<title>Node4&#45;&gt;Node14</title>
<g id="a_edge11_Node000004_Node000014"><a xlink:title=" ">
<path fill="none" stroke="#63b8ff" d="M427.84,-164.51C358.98,-153.99 246.51,-136.81 184.41,-127.33"/>
<polygon fill="#63b8ff" stroke="#63b8ff" points="427.67,-168.02 438.09,-166.07 428.73,-161.1 427.67,-168.02"/>
</a>
</g>
</g>
<!-- Node19 -->
<g id="Node000019" class="node">
<title>Node19</title>
<g id="a_Node000019"><a xlink:href="place_8h.html" target="_top" xlink:title=" ">
<polygon fill="#fff0f0" stroke="red" points="53.7,-74 3.7,-74 3.7,-55 53.7,-55 53.7,-74"/>
<text text-anchor="middle" x="28.7" y="-62" font-family="Inter" font-size="10.00">place.h</text>
</a>
</g>
</g>
<!-- Node4&#45;&gt;Node19 -->
<g id="edge23_Node000004_Node000019" class="edge">
<title>Node4&#45;&gt;Node19</title>
<g id="a_edge23_Node000004_Node000019"><a xlink:title=" ">
<path fill="none" stroke="#63b8ff" d="M427.64,-172.39C305.39,-169.49 33.63,-159.64 5.7,-129 -8.67,-113.23 9.02,-87.79 20.44,-74.4"/>
<polygon fill="#63b8ff" stroke="#63b8ff" points="427.86,-175.9 437.94,-172.63 428.02,-168.9 427.86,-175.9"/>
</a>
</g>
</g>
<!-- Node23 -->
<g id="Node000023" class="node">
<title>Node23</title>
<g id="a_Node000023"><a xlink:href="group_8h.html" target="_top" xlink:title=" ">
<polygon fill="#fff0f0" stroke="red" points="77.2,-129 24.2,-129 24.2,-110 77.2,-110 77.2,-129"/>
<text text-anchor="middle" x="50.7" y="-117" font-family="Inter" font-size="10.00">group.h</text>
</a>
</g>
</g>
<!-- Node4&#45;&gt;Node23 -->
<g id="edge19_Node000004_Node000023" class="edge">
<title>Node4&#45;&gt;Node23</title>
<g id="a_edge19_Node000004_Node000023"><a xlink:title=" ">
<path fill="none" stroke="#63b8ff" d="M427.79,-169.33C349.32,-163.24 206.35,-150.26 85.7,-129 82.99,-128.52 80.18,-127.96 77.38,-127.35"/>
<polygon fill="#63b8ff" stroke="#63b8ff" points="427.72,-172.84 437.96,-170.11 428.26,-165.86 427.72,-172.84"/>
</a>
</g>
</g>
<!-- Node28 -->
<g id="Node000028" class="node">
<title>Node28</title>
<g id="a_Node000028"><a xlink:href="iconcache_8c.html" target="_top" xlink:title=" ">
<polygon fill="white" stroke="#666666" points="384.2,-129 315.2,-129 315.2,-110 384.2,-110 384.2,-129"/>
<text text-anchor="middle" x="349.7" y="-117" font-family="Inter" font-size="10.00">iconcache.c</text>
</a>
</g>
</g>
<!-- Node4&#45;&gt;Node28 -->
<g id="edge22_Node000004_Node000028" class="edge">
<title>Node4&#45;&gt;Node28</title>
<g id="a_edge22_Node000004_Node000028"><a xlink:title=" ">
<path fill="none" stroke="#63b8ff" d="M455.14,-161.29C429.75,-151.47 394.7,-137.91 372.11,-129.17"/>
<polygon fill="#63b8ff" stroke="#63b8ff" points="454.1,-164.64 464.69,-164.98 456.63,-158.11 454.1,-164.64"/>
</a>
</g>
</g>
<!-- Node29 -->
<g id="Node000029" class="node">
<title>Node29</title>
<g id="a_Node000029"><a xlink:href="session_8h.html" target="_top" xlink:title=" ">
<polygon fill="#fff0f0" stroke="red" points="812.2,-74 753.2,-74 753.2,-55 812.2,-55 812.2,-74"/>
<text text-anchor="middle" x="782.7" y="-62" font-family="Inter" font-size="10.00">session.h</text>
</a>
</g>
</g>
<!-- Node4&#45;&gt;Node29 -->
<g id="edge25_Node000004_Node000029" class="edge">
<title>Node4&#45;&gt;Node29</title>
<g id="a_edge25_Node000004_Node000029"><a xlink:title=" ">
<path fill="none" stroke="#63b8ff" d="M545.5,-168.48C609.95,-162.06 708.39,-149.28 739.7,-129 760.49,-115.54 773.77,-88.12 779.48,-74.13"/>
<polygon fill="#63b8ff" stroke="#63b8ff" points="545.07,-165 535.46,-169.46 545.75,-171.97 545.07,-165"/>
</a>
</g>
</g>
<!-- Node32 -->
<g id="Node000032" class="node">
<title>Node32</title>
<g id="a_Node000032"><a xlink:href="window-props_8h.html" target="_top" xlink:title=" ">
<polygon fill="#fff0f0" stroke="red" points="604.7,-129 514.7,-129 514.7,-110 604.7,-110 604.7,-129"/>
<text text-anchor="middle" x="559.7" y="-117" font-family="Inter" font-size="10.00">window&#45;props.h</text>
</a>
</g>
</g>
<!-- Node4&#45;&gt;Node32 -->
<g id="edge28_Node000004_Node000032" class="edge">
<title>Node4&#45;&gt;Node32</title>
<g id="a_edge28_Node000004_Node000032"><a xlink:title=" ">
<path fill="none" stroke="#63b8ff" d="M506.84,-158.88C519.98,-149.34 536.69,-137.21 547.76,-129.17"/>
<polygon fill="#63b8ff" stroke="#63b8ff" points="504.47,-156.28 498.43,-164.98 508.58,-161.94 504.47,-156.28"/>
</a>
</g>
</g>
<!-- Node33 -->
<g id="Node000033" class="node">
<title>Node33</title>
<g id="a_Node000033"><a xlink:href="workspace_8h.html" target="_top" xlink:title=" ">
<polygon fill="#fff0f0" stroke="red" points="698.2,-129 623.2,-129 623.2,-110 698.2,-110 698.2,-129"/>
<text text-anchor="middle" x="660.7" y="-117" font-family="Inter" font-size="10.00">workspace.h</text>
</a>
</g>
</g>
<!-- Node4&#45;&gt;Node33 -->
<g id="edge32_Node000004_Node000033" class="edge">
<title>Node4&#45;&gt;Node33</title>
<g id="a_edge32_Node000004_Node000033"><a xlink:title=" ">
<path fill="none" stroke="#63b8ff" d="M524.27,-162.06C556.8,-152.15 603.1,-138.04 632.53,-129.08"/>
<polygon fill="#63b8ff" stroke="#63b8ff" points="523.21,-158.72 514.66,-164.98 525.24,-165.42 523.21,-158.72"/>
</a>
</g>
</g>
<!-- Node35 -->
<g id="Node000035" class="node">
<title>Node35</title>
<g id="a_Node000035"><a xlink:href="xprops_8c.html" target="_top" xlink:title=" ">
<polygon fill="white" stroke="#666666" points="458.7,-129 402.7,-129 402.7,-110 458.7,-110 458.7,-129"/>
<text text-anchor="middle" x="430.7" y="-117" font-family="Inter" font-size="10.00">xprops.c</text>
</a>
</g>
</g>
<!-- Node4&#45;&gt;Node35 -->
<g id="edge38_Node000004_Node000035" class="edge">
<title>Node4&#45;&gt;Node35</title>
<g id="a_edge38_Node000004_Node000035"><a xlink:title=" ">
<path fill="none" stroke="#63b8ff" d="M470.37,-158.04C460.44,-148.64 448.12,-136.98 439.86,-129.17"/>
<polygon fill="#63b8ff" stroke="#63b8ff" points="468.04,-160.65 477.71,-164.98 472.85,-155.57 468.04,-160.65"/>
</a>
</g>
</g>
<!-- Node5&#45;&gt;Node7 -->
<g id="edge5_Node000005_Node000007" class="edge">
<title>Node5&#45;&gt;Node7</title>
<g id="a_edge5_Node000005_Node000007"><a xlink:title=" ">
<path fill="none" stroke="#63b8ff" d="M436.81,-51.8C466.48,-41.91 508.3,-27.97 534.96,-19.08"/>
<polygon fill="#63b8ff" stroke="#63b8ff" points="435.63,-48.5 427.25,-54.98 437.84,-55.14 435.63,-48.5"/>
</a>
</g>
</g>
<!-- Node10&#45;&gt;Node7 -->
<g id="edge9_Node000010_Node000007" class="edge">
<title>Node10&#45;&gt;Node7</title>
<g id="a_edge9_Node000010_Node000007"><a xlink:title=" ">
<path fill="none" stroke="#63b8ff" d="M858.81,-54.63C781.2,-43.14 648.88,-23.55 590.21,-14.87"/>
<polygon fill="#63b8ff" stroke="#63b8ff" points="858.52,-58.13 868.92,-56.13 859.54,-51.2 858.52,-58.13"/>
</a>
</g>
</g>
<!-- Node14&#45;&gt;Node2 -->
<g id="edge16_Node000014_Node000002" class="edge">
<title>Node14&#45;&gt;Node2</title>
<g id="a_edge16_Node000014_Node000002"><a xlink:title=" ">
<path fill="none" stroke="#63b8ff" d="M194.67,-113.33C206.86,-112.21 219.72,-111.05 231.7,-110 426.73,-92.99 477.25,-103.99 670.7,-74 673.7,-73.54 676.81,-72.96 679.91,-72.34"/>
<polygon fill="#63b8ff" stroke="#63b8ff" points="194.25,-109.85 184.62,-114.26 194.9,-116.82 194.25,-109.85"/>
</a>
</g>
</g>
<!-- Node14&#45;&gt;Node3 -->
<g id="edge17_Node000014_Node000003" class="edge">
<title>Node14&#45;&gt;Node3</title>
<g id="a_edge17_Node000014_Node000003"><a xlink:title=" ">
<path fill="none" stroke="#63b8ff" d="M125.97,-101.96C118.3,-92.72 109.07,-81.6 102.83,-74.09"/>
<polygon fill="#63b8ff" stroke="#63b8ff" points="123.36,-104.29 132.44,-109.75 128.74,-99.82 123.36,-104.29"/>
</a>
</g>
</g>
<!-- Node14&#45;&gt;Node5 -->
<g id="edge12_Node000014_Node000005" class="edge">
<title>Node14&#45;&gt;Node5</title>
<g id="a_edge12_Node000014_Node000005"><a xlink:title=" ">
<path fill="none" stroke="#63b8ff" d="M191.9,-107.94C242.57,-97.69 318.28,-82.38 363.55,-73.22"/>
<polygon fill="#63b8ff" stroke="#63b8ff" points="190.91,-104.57 181.8,-109.98 192.29,-111.43 190.91,-104.57"/>
</a>
</g>
</g>
<!-- Node14&#45;&gt;Node7 -->
<g id="edge18_Node000014_Node000007" class="edge">
<title>Node14&#45;&gt;Node7</title>
<g id="a_edge18_Node000014_Node000007"><a xlink:title=" ">
<path fill="none" stroke="#63b8ff" d="M175.97,-106.89C218.53,-93.48 291.34,-71.18 354.7,-55 416.92,-39.12 490.65,-24.1 530.86,-16.22"/>
<polygon fill="#63b8ff" stroke="#63b8ff" points="174.82,-103.58 166.34,-109.94 176.93,-110.26 174.82,-103.58"/>
</a>
</g>
</g>
<!-- Node14&#45;&gt;Node9 -->
<g id="edge13_Node000014_Node000009" class="edge">
<title>Node14&#45;&gt;Node9</title>
<g id="a_edge13_Node000014_Node000009"><a xlink:title=" ">
<path fill="none" stroke="#63b8ff" d="M194.77,-110.57C196.09,-110.38 197.41,-110.19 198.7,-110 309.81,-94 338.35,-94.58 448.7,-74 451.68,-73.44 454.79,-72.81 457.87,-72.15"/>
<polygon fill="#63b8ff" stroke="#63b8ff" points="193.88,-107.16 184.48,-112.05 194.88,-114.09 193.88,-107.16"/>
</a>
</g>
</g>
<!-- Node14&#45;&gt;Node19 -->
<g id="edge14_Node000014_Node000019" class="edge">
<title>Node14&#45;&gt;Node19</title>
<g id="a_edge14_Node000014_Node000019"><a xlink:title=" ">
<path fill="none" stroke="#63b8ff" d="M112.76,-105.63C92.31,-95.87 64.76,-82.71 46.86,-74.17"/>
<polygon fill="#63b8ff" stroke="#63b8ff" points="111.34,-108.83 121.87,-109.98 114.35,-102.52 111.34,-108.83"/>
</a>
</g>
</g>
<!-- Node19&#45;&gt;Node7 -->
<g id="edge15_Node000019_Node000007" class="edge">
<title>Node19&#45;&gt;Node7</title>
<g id="a_edge15_Node000019_Node000007"><a xlink:title=" ">
<path fill="none" stroke="#63b8ff" d="M63.91,-55.06C246.53,-24.92 454.92,-14.54 531.03,-11.54"/>
<polygon fill="#63b8ff" stroke="#63b8ff" points="63.15,-51.64 53.86,-56.75 64.3,-58.55 63.15,-51.64"/>
</a>
</g>
</g>
<!-- Node23&#45;&gt;Node3 -->
<g id="edge20_Node000023_Node000003" class="edge">
<title>Node23&#45;&gt;Node3</title>
<g id="a_edge20_Node000023_Node000003"><a xlink:title=" ">
<path fill="none" stroke="#63b8ff" d="M64.75,-101.96C72.59,-92.72 82.03,-81.6 88.41,-74.09"/>
<polygon fill="#63b8ff" stroke="#63b8ff" points="61.94,-99.86 58.13,-109.75 67.27,-104.39 61.94,-99.86"/>
</a>
</g>
</g>
<!-- Node23&#45;&gt;Node7 -->
<g id="edge21_Node000023_Node000007" class="edge">
<title>Node23&#45;&gt;Node7</title>
<g id="a_edge21_Node000023_Node000007"><a xlink:title=" ">
<path fill="none" stroke="#63b8ff" d="M87.06,-107.42C132.99,-93.71 214.65,-70.31 285.7,-55 374.12,-35.95 480.1,-20.99 530.81,-14.3"/>
<polygon fill="#63b8ff" stroke="#63b8ff" points="85.84,-104.13 77.27,-110.36 87.85,-110.83 85.84,-104.13"/>
</a>
</g>
</g>
<!-- Node29&#45;&gt;Node7 -->
<g id="edge26_Node000029_Node000007" class="edge">
<title>Node29&#45;&gt;Node7</title>
<g id="a_edge26_Node000029_Node000007"><a xlink:title=" ">
<path fill="none" stroke="#63b8ff" d="M743.03,-54.03C699.28,-43.58 629.88,-27.02 590.52,-17.62"/>
<polygon fill="#63b8ff" stroke="#63b8ff" points="742.22,-57.43 752.76,-56.35 743.85,-50.63 742.22,-57.43"/>
</a>
</g>
</g>
<!-- Node32&#45;&gt;Node7 -->
<g id="edge30_Node000032_Node000007" class="edge">
<title>Node32&#45;&gt;Node7</title>
<g id="a_edge30_Node000032_Node000007"><a xlink:title=" ">
<path fill="none" stroke="#63b8ff" d="M559.88,-99.48C560.1,-75.84 560.46,-36.5 560.62,-19.16"/>
<polygon fill="#63b8ff" stroke="#63b8ff" points="556.38,-99.63 559.78,-109.66 563.38,-99.69 556.38,-99.63"/>
</a>
</g>
</g>
<!-- Node32&#45;&gt;Node9 -->
<g id="edge29_Node000032_Node000009" class="edge">
<title>Node32&#45;&gt;Node9</title>
<g id="a_edge29_Node000032_Node000009"><a xlink:title=" ">
<path fill="none" stroke="#63b8ff" d="M539.67,-104.15C526.29,-94.57 509.14,-82.29 497.81,-74.17"/>
<polygon fill="#63b8ff" stroke="#63b8ff" points="537.65,-107.01 547.81,-109.98 541.72,-101.32 537.65,-107.01"/>
</a>
</g>
</g>
<!-- Node33&#45;&gt;Node2 -->
<g id="edge35_Node000033_Node000002" class="edge">
<title>Node33&#45;&gt;Node2</title>
<g id="a_edge35_Node000033_Node000002"><a xlink:title=" ">
<path fill="none" stroke="#63b8ff" d="M675.12,-102.24C683.36,-92.95 693.36,-81.68 700.09,-74.09"/>
<polygon fill="#63b8ff" stroke="#63b8ff" points="672.48,-99.94 668.46,-109.75 677.72,-104.59 672.48,-99.94"/>
</a>
</g>
</g>
<!-- Node33&#45;&gt;Node3 -->
<g id="edge36_Node000033_Node000003" class="edge">
<title>Node33&#45;&gt;Node3</title>
<g id="a_edge36_Node000033_Node000003"><a xlink:title=" ">
<path fill="none" stroke="#63b8ff" d="M613.09,-110.05C416.17,-84.27 191.5,-70.7 119.28,-66.74"/>
<polygon fill="#63b8ff" stroke="#63b8ff" points="612.67,-113.53 623.04,-111.37 613.59,-106.59 612.67,-113.53"/>
</a>
</g>
</g>
<!-- Node33&#45;&gt;Node7 -->
<g id="edge37_Node000033_Node000007" class="edge">
<title>Node33&#45;&gt;Node7</title>
<g id="a_edge37_Node000033_Node000007"><a xlink:title=" ">
<path fill="none" stroke="#63b8ff" d="M636.5,-104.45C624.22,-96.55 609.64,-85.89 598.7,-74 582.87,-56.79 570.34,-31.96 564.42,-19.04"/>
<polygon fill="#63b8ff" stroke="#63b8ff" points="634.99,-107.63 645.33,-109.93 638.68,-101.69 634.99,-107.63"/>
</a>
</g>
</g>
<!-- Node33&#45;&gt;Node8 -->
<g id="edge33_Node000033_Node000008" class="edge">
<title>Node33&#45;&gt;Node8</title>
<g id="a_edge33_Node000033_Node000008"><a xlink:title=" ">
<path fill="none" stroke="#63b8ff" d="M651.89,-100.53C647.51,-91.6 642.41,-81.22 638.92,-74.09"/>
<polygon fill="#63b8ff" stroke="#63b8ff" points="648.86,-102.31 656.41,-109.75 655.15,-99.23 648.86,-102.31"/>
</a>
</g>
</g>
<!-- Node33&#45;&gt;Node9 -->
<g id="edge34_Node000033_Node000009" class="edge">
<title>Node33&#45;&gt;Node9</title>
<g id="a_edge34_Node000033_Node000009"><a xlink:title=" ">
<path fill="none" stroke="#63b8ff" d="M622.85,-107.04C589.94,-97.07 543,-82.85 513.46,-73.91"/>
<polygon fill="#63b8ff" stroke="#63b8ff" points="622,-110.44 632.59,-109.98 624.03,-103.74 622,-110.44"/>
</a>
</g>
</g>
</g>
</svg>
