<?xml version="1.0" encoding="UTF-8" standalone="no"?>
<!DOCTYPE svg PUBLIC "-//W3C//DTD SVG 1.1//EN"
 "http://www.w3.org/Graphics/SVG/1.1/DTD/svg11.dtd">
<!-- Generated by graphviz version 2.43.0 (0)
 -->
<!-- Title: matekbd&#45;config&#45;private.h Pages: 1 -->
<svg width="566pt" height="82pt"
 viewBox="0.00 0.00 566.00 82.00" xmlns="http://www.w3.org/2000/svg" xmlns:xlink="http://www.w3.org/1999/xlink">
<g id="graph0" class="graph" transform="scale(1 1) rotate(0) translate(4 78)">
<title>matekbd&#45;config&#45;private.h</title>
<!-- Node1 -->
<g id="Node000001" class="node">
<title>Node1</title>
<g id="a_Node000001"><a xlink:title=" ">
<polygon fill="#999999" stroke="#666666" points="372.5,-74 238.5,-74 238.5,-55 372.5,-55 372.5,-74"/>
<text text-anchor="middle" x="305.5" y="-62" font-family="Inter" font-size="10.00">matekbd&#45;config&#45;private.h</text>
</a>
</g>
</g>
<!-- Node2 -->
<g id="Node000002" class="node">
<title>Node2</title>
<g id="a_Node000002"><a xlink:href="matekbd-desktop-config_8c.html" target="_top" xlink:title=" ">
<polygon fill="white" stroke="#666666" points="137,-19 0,-19 0,0 137,0 137,-19"/>
<text text-anchor="middle" x="68.5" y="-7" font-family="Inter" font-size="10.00">matekbd&#45;desktop&#45;config.c</text>
</a>
</g>
</g>
<!-- Node1&#45;&gt;Node2 -->
<g id="edge1_Node000001_Node000002" class="edge">
<title>Node1&#45;&gt;Node2</title>
<g id="a_edge1_Node000001_Node000002"><a xlink:title=" ">
<path fill="none" stroke="#63b8ff" d="M257.44,-52.75C213.03,-42.82 147.9,-28.26 106.88,-19.08"/>
<polygon fill="#63b8ff" stroke="#63b8ff" points="256.9,-56.22 267.42,-54.98 258.43,-49.39 256.9,-56.22"/>
</a>
</g>
</g>
<!-- Node3 -->
<g id="Node000003" class="node">
<title>Node3</title>
<g id="a_Node000003"><a xlink:href="matekbd-indicator-config_8c.html" target="_top" xlink:title=" ">
<polygon fill="white" stroke="#666666" points="295.5,-19 155.5,-19 155.5,0 295.5,0 295.5,-19"/>
<text text-anchor="middle" x="225.5" y="-7" font-family="Inter" font-size="10.00">matekbd&#45;indicator&#45;config.c</text>
</a>
</g>
</g>
<!-- Node1&#45;&gt;Node3 -->
<g id="edge2_Node000001_Node000003" class="edge">
<title>Node1&#45;&gt;Node3</title>
<g id="a_edge2_Node000001_Node000003"><a xlink:title=" ">
<path fill="none" stroke="#63b8ff" d="M284.25,-49.42C269.74,-39.81 250.96,-27.37 238.59,-19.17"/>
<polygon fill="#63b8ff" stroke="#63b8ff" points="282.38,-52.38 292.65,-54.98 286.24,-46.54 282.38,-52.38"/>
</a>
</g>
</g>
<!-- Node4 -->
<g id="Node000004" class="node">
<title>Node4</title>
<g id="a_Node000004"><a xlink:href="matekbd-keyboard-config_8c.html" target="_top" xlink:title=" ">
<polygon fill="white" stroke="#666666" points="457,-19 314,-19 314,0 457,0 457,-19"/>
<text text-anchor="middle" x="385.5" y="-7" font-family="Inter" font-size="10.00">matekbd&#45;keyboard&#45;config.c</text>
</a>
</g>
</g>
<!-- Node1&#45;&gt;Node4 -->
<g id="edge3_Node000001_Node000004" class="edge">
<title>Node1&#45;&gt;Node4</title>
<g id="a_edge3_Node000001_Node000004"><a xlink:title=" ">
<path fill="none" stroke="#63b8ff" d="M326.75,-49.42C341.26,-39.81 360.04,-27.37 372.41,-19.17"/>
<polygon fill="#63b8ff" stroke="#63b8ff" points="324.76,-46.54 318.35,-54.98 328.62,-52.38 324.76,-46.54"/>
</a>
</g>
</g>
<!-- Node5 -->
<g id="Node000005" class="node">
<title>Node5</title>
<g id="a_Node000005"><a xlink:href="matekbd-util_8c.html" target="_top" xlink:title=" ">
<polygon fill="white" stroke="#666666" points="558,-19 475,-19 475,0 558,0 558,-19"/>
<text text-anchor="middle" x="516.5" y="-7" font-family="Inter" font-size="10.00">matekbd&#45;util.c</text>
</a>
</g>
</g>
<!-- Node1&#45;&gt;Node5 -->
<g id="edge4_Node000001_Node000005" class="edge">
<title>Node1&#45;&gt;Node5</title>
<g id="a_edge4_Node000001_Node000005"><a xlink:title=" ">
<path fill="none" stroke="#63b8ff" d="M349.29,-52.5C388.8,-42.58 446.12,-28.18 482.33,-19.08"/>
<polygon fill="#63b8ff" stroke="#63b8ff" points="348.25,-49.15 339.4,-54.98 349.95,-55.94 348.25,-49.15"/>
</a>
</g>
</g>
</g>
</svg>
