<?xml version="1.0" encoding="UTF-8" standalone="no"?>
<!DOCTYPE svg PUBLIC "-//W3C//DTD SVG 1.1//EN"
 "http://www.w3.org/Graphics/SVG/1.1/DTD/svg11.dtd">
<!-- Generated by graphviz version 2.43.0 (0)
 -->
<!-- Title: mate&#45;settings&#45;plugin&#45;info.h Pages: 1 -->
<svg width="270pt" height="104pt"
 viewBox="0.00 0.00 269.50 104.00" xmlns="http://www.w3.org/2000/svg" xmlns:xlink="http://www.w3.org/1999/xlink">
<g id="graph0" class="graph" transform="scale(1 1) rotate(0) translate(4 100)">
<title>mate&#45;settings&#45;plugin&#45;info.h</title>
<!-- Node1 -->
<g id="Node000001" class="node">
<title>Node1</title>
<g id="a_Node000001"><a xlink:title=" ">
<polygon fill="#999999" stroke="#666666" points="191.5,-96 79.5,-96 79.5,-66 191.5,-66 191.5,-96"/>
<text text-anchor="start" x="87.5" y="-84" font-family="Inter" font-size="10.00">mate&#45;settings&#45;plugin</text>
<text text-anchor="middle" x="135.5" y="-73" font-family="Inter" font-size="10.00">&#45;info.h</text>
</a>
</g>
</g>
<!-- Node2 -->
<g id="Node000002" class="node">
<title>Node2</title>
<g id="a_Node000002"><a xlink:href="mate-settings-manager_8c.html" target="_top" xlink:title=" ">
<polygon fill="white" stroke="#666666" points="131,-24.5 0,-24.5 0,-5.5 131,-5.5 131,-24.5"/>
<text text-anchor="middle" x="65.5" y="-12.5" font-family="Inter" font-size="10.00">mate&#45;settings&#45;manager.c</text>
</a>
</g>
</g>
<!-- Node1&#45;&gt;Node2 -->
<g id="edge1_Node000001_Node000002" class="edge">
<title>Node1&#45;&gt;Node2</title>
<g id="a_edge1_Node000001_Node000002"><a xlink:title=" ">
<path fill="none" stroke="#63b8ff" d="M112.46,-58.93C99.79,-47.35 84.76,-33.61 75.17,-24.84"/>
<polygon fill="#63b8ff" stroke="#63b8ff" points="110.22,-61.63 119.96,-65.8 114.95,-56.47 110.22,-61.63"/>
</a>
</g>
</g>
<!-- Node3 -->
<g id="Node000003" class="node">
<title>Node3</title>
<g id="a_Node000003"><a xlink:href="mate-settings-plugin-info_8c.html" target="_top" xlink:title=" ">
<polygon fill="white" stroke="#666666" points="261.5,-30 149.5,-30 149.5,0 261.5,0 261.5,-30"/>
<text text-anchor="start" x="157.5" y="-18" font-family="Inter" font-size="10.00">mate&#45;settings&#45;plugin</text>
<text text-anchor="middle" x="205.5" y="-7" font-family="Inter" font-size="10.00">&#45;info.c</text>
</a>
</g>
</g>
<!-- Node1&#45;&gt;Node3 -->
<g id="edge2_Node000001_Node000003" class="edge">
<title>Node1&#45;&gt;Node3</title>
<g id="a_edge2_Node000001_Node000003"><a xlink:title=" ">
<path fill="none" stroke="#63b8ff" d="M158.55,-58.92C168.87,-49.49 180.77,-38.61 190.01,-30.16"/>
<polygon fill="#63b8ff" stroke="#63b8ff" points="156.05,-56.47 151.04,-65.8 160.78,-61.63 156.05,-56.47"/>
</a>
</g>
</g>
</g>
</svg>
