<?xml version="1.0" encoding="UTF-8" standalone="no"?>
<!DOCTYPE svg PUBLIC "-//W3C//DTD SVG 1.1//EN"
 "http://www.w3.org/Graphics/SVG/1.1/DTD/svg11.dtd">
<!-- Generated by graphviz version 2.43.0 (0)
 -->
<!-- Title: mate&#45;desktop&#45;utils.h Pages: 1 -->
<!--zoomable 82 -->

<svg id="main" version="1.1" xmlns="http://www.w3.org/2000/svg" xmlns:xlink="http://www.w3.org/1999/xlink" xml:space="preserve" onload="init(evt)">

<style type="text/css"><![CDATA[
.node, .edge {opacity: 0.7;}
.node.selected, .edge.selected {opacity: 1;}
.edge:hover path { stroke: red; }
.edge:hover polygon { stroke: red; fill: red; }
]]></style>

<defs>
  <circle id="rim" cx="0" cy="0" r="7"/>
  <circle id="rim2" cx="0" cy="0" r="3.5"/>
  <g id="zoomPlus">
    <use xlink:href="#rim" fill="#404040"><set attributeName="fill" to="#808080" begin="zoomplus.mouseover" end="zoomplus.mouseout"/></use>
    <path d="M-4,0h8M0,-4v8" fill="none" stroke="white" stroke-width="1.5" pointer-events="none"/>
  </g>
  <g id="zoomMin">
    <use xlink:href="#rim" fill="#404040"><set attributeName="fill" to="#808080" begin="zoomminus.mouseover" end="zoomminus.mouseout"/></use>
    <path d="M-4,0h8" fill="none" stroke="white" stroke-width="1.5" pointer-events="none"/>
  </g>
  <g id="arrowUp" transform="translate(30 24)">
    <use xlink:href="#rim"/>
    <path pointer-events="none" fill="none" stroke="white" stroke-width="1.5" d="M0,-3.0v7 M-2.5,-0.5L0,-3.0L2.5,-0.5"/>
  </g>
  <g id="arrowRight" transform="rotate(90) translate(36 -43)">
    <use xlink:href="#rim"/>
    <path pointer-events="none" fill="none" stroke="white" stroke-width="1.5" d="M0,-3.0v7 M-2.5,-0.5L0,-3.0L2.5,-0.5"/>
  </g>
  <g id="arrowDown" transform="rotate(180) translate(-30 -48)">
    <use xlink:href="#rim"/>
    <path pointer-events="none" fill="none" stroke="white" stroke-width="1.5" d="M0,-3.0v7 M-2.5,-0.5L0,-3.0L2.5,-0.5"/>
  </g>
  <g id="arrowLeft" transform="rotate(270) translate(-36 17)">
    <use xlink:href="#rim"/>
    <path pointer-events="none" fill="none" stroke="white" stroke-width="1.5" d="M0,-3.0v7 M-2.5,-0.5L0,-3.0L2.5,-0.5"/>
  </g>
  <g id="resetDef">
    <use xlink:href="#rim2" fill="#404040"><set attributeName="fill" to="#808080" begin="reset.mouseover" end="reset.mouseout"/></use>
  </g>
</defs>
<script type="application/ecmascript">
var viewWidth = 2201;
var viewHeight = 82;
var sectionId = 'dynsection-1';
</script>
<script type="application/ecmascript" xlink:href="svg.min.js"/>
<svg id="graph" class="graph">
<g id="viewport">
<title>mate&#45;desktop&#45;utils.h</title>
<!-- Node1 -->
<g id="Node000001" class="node">
<title>Node1</title>
<g id="a_Node000001"><a xlink:title=" ">
<polygon fill="#999999" stroke="#666666" points="1111.5,-74 999.5,-74 999.5,-55 1111.5,-55 1111.5,-74"/>
<text text-anchor="middle" x="1055.5" y="-62" font-family="Inter" font-size="10.00">mate&#45;desktop&#45;utils.h</text>
</a>
</g>
</g>
<!-- Node2 -->
<g id="Node000002" class="node">
<title>Node2</title>
<g id="a_Node000002"><a xlink:href="drwright_8c.html" target="_top" xlink:title=" ">
<polygon fill="white" stroke="#666666" points="65,-19 0,-19 0,0 65,0 65,-19"/>
<text text-anchor="middle" x="32.5" y="-7" font-family="Inter" font-size="10.00">drwright.c</text>
</a>
</g>
</g>
<!-- Node1&#45;&gt;Node2 -->
<g id="edge1_Node000001_Node000002" class="edge">
<title>Node1&#45;&gt;Node2</title>
<g id="a_edge1_Node000001_Node000002"><a xlink:title=" ">
<path fill="none" stroke="#63b8ff" d="M989.32,-64.01C830.75,-64.47 416.83,-61.15 74.5,-19 71.55,-18.64 68.49,-18.18 65.44,-17.67"/>
<polygon fill="#63b8ff" stroke="#63b8ff" points="989.4,-67.51 999.39,-63.98 989.38,-60.51 989.4,-67.51"/>
</a>
</g>
</g>
<!-- Node3 -->
<g id="Node000003" class="node">
<title>Node3</title>
<g id="a_Node000003"><a xlink:href="eel-mate-extensions_8c.html" target="_top" xlink:title=" ">
<polygon fill="white" stroke="#666666" points="201.5,-19 83.5,-19 83.5,0 201.5,0 201.5,-19"/>
<text text-anchor="middle" x="142.5" y="-7" font-family="Inter" font-size="10.00">eel&#45;mate&#45;extensions.c</text>
</a>
</g>
</g>
<!-- Node1&#45;&gt;Node3 -->
<g id="edge2_Node000001_Node000003" class="edge">
<title>Node1&#45;&gt;Node3</title>
<g id="a_edge2_Node000001_Node000003"><a xlink:title=" ">
<path fill="none" stroke="#63b8ff" d="M988.95,-61.62C846.14,-57.23 499.76,-44.66 210.5,-19 207.66,-18.75 204.75,-18.47 201.81,-18.17"/>
<polygon fill="#63b8ff" stroke="#63b8ff" points="989.18,-65.13 999.29,-61.93 989.4,-58.13 989.18,-65.13"/>
</a>
</g>
</g>
<!-- Node4 -->
<g id="Node000004" class="node">
<title>Node4</title>
<g id="a_Node000004"><a xlink:href="eom-window_8c.html" target="_top" xlink:title=" ">
<polygon fill="white" stroke="#666666" points="303,-19 220,-19 220,0 303,0 303,-19"/>
<text text-anchor="middle" x="261.5" y="-7" font-family="Inter" font-size="10.00">eom&#45;window.c</text>
</a>
</g>
</g>
<!-- Node1&#45;&gt;Node4 -->
<g id="edge3_Node000001_Node000004" class="edge">
<title>Node1&#45;&gt;Node4</title>
<g id="a_edge3_Node000001_Node000004"><a xlink:title=" ">
<path fill="none" stroke="#63b8ff" d="M989.11,-61.95C858.81,-58.37 560.58,-47.54 311.5,-19 308.79,-18.69 306,-18.33 303.19,-17.94"/>
<polygon fill="#63b8ff" stroke="#63b8ff" points="989.23,-65.45 999.32,-62.22 989.42,-58.45 989.23,-65.45"/>
</a>
</g>
</g>
<!-- Node5 -->
<g id="Node000005" class="node">
<title>Node5</title>
<g id="a_Node000005"><a xlink:href="fm-directory-view_8c.html" target="_top" xlink:title=" ">
<polygon fill="white" stroke="#666666" points="426,-19 321,-19 321,0 426,0 426,-19"/>
<text text-anchor="middle" x="373.5" y="-7" font-family="Inter" font-size="10.00">fm&#45;directory&#45;view.c</text>
</a>
</g>
</g>
<!-- Node1&#45;&gt;Node5 -->
<g id="edge4_Node000001_Node000005" class="edge">
<title>Node1&#45;&gt;Node5</title>
<g id="a_edge4_Node000001_Node000005"><a xlink:title=" ">
<path fill="none" stroke="#63b8ff" d="M989.02,-60.2C875.24,-54.22 635.94,-40.23 434.5,-19 431.74,-18.71 428.9,-18.39 426.05,-18.05"/>
<polygon fill="#63b8ff" stroke="#63b8ff" points="989.13,-63.71 999.3,-60.74 989.5,-56.72 989.13,-63.71"/>
</a>
</g>
</g>
<!-- Node6 -->
<g id="Node000006" class="node">
<title>Node6</title>
<g id="a_Node000006"><a xlink:href="gs-lock-plug_8c.html" target="_top" xlink:title=" ">
<polygon fill="white" stroke="#666666" points="523,-19 444,-19 444,0 523,0 523,-19"/>
<text text-anchor="middle" x="483.5" y="-7" font-family="Inter" font-size="10.00">gs&#45;lock&#45;plug.c</text>
</a>
</g>
</g>
<!-- Node1&#45;&gt;Node6 -->
<g id="edge5_Node000001_Node000006" class="edge">
<title>Node1&#45;&gt;Node6</title>
<g id="a_edge5_Node000001_Node000006"><a xlink:title=" ">
<path fill="none" stroke="#63b8ff" d="M989.01,-59.7C889.47,-53.59 695.95,-40.09 532.5,-19 529.42,-18.6 526.23,-18.15 523.04,-17.66"/>
<polygon fill="#63b8ff" stroke="#63b8ff" points="989.02,-63.21 999.22,-60.32 989.45,-56.22 989.02,-63.21"/>
</a>
</g>
</g>
<!-- Node7 -->
<g id="Node000007" class="node">
<title>Node7</title>
<g id="a_Node000007"><a xlink:href="gvc-level-bar_8c.html" target="_top" xlink:title=" ">
<polygon fill="white" stroke="#666666" points="621.5,-19 541.5,-19 541.5,0 621.5,0 621.5,-19"/>
<text text-anchor="middle" x="581.5" y="-7" font-family="Inter" font-size="10.00">gvc&#45;level&#45;bar.c</text>
</a>
</g>
</g>
<!-- Node1&#45;&gt;Node7 -->
<g id="edge6_Node000001_Node000007" class="edge">
<title>Node1&#45;&gt;Node7</title>
<g id="a_edge6_Node000001_Node000007"><a xlink:title=" ">
<path fill="none" stroke="#63b8ff" d="M989.18,-57.95C905.42,-50.62 756.94,-36.57 630.5,-19 627.59,-18.6 624.59,-18.15 621.58,-17.68"/>
<polygon fill="#63b8ff" stroke="#63b8ff" points="989.06,-61.45 999.32,-58.83 989.66,-54.48 989.06,-61.45"/>
</a>
</g>
</g>
<!-- Node8 -->
<g id="Node000008" class="node">
<title>Node8</title>
<g id="a_Node000008"><a xlink:href="gvc-stream-applet-icon_8c.html" target="_top" xlink:title=" ">
<polygon fill="white" stroke="#666666" points="769,-19 640,-19 640,0 769,0 769,-19"/>
<text text-anchor="middle" x="704.5" y="-7" font-family="Inter" font-size="10.00">gvc&#45;stream&#45;applet&#45;icon.c</text>
</a>
</g>
</g>
<!-- Node1&#45;&gt;Node8 -->
<g id="edge7_Node000001_Node000008" class="edge">
<title>Node1&#45;&gt;Node8</title>
<g id="a_edge7_Node000001_Node000008"><a xlink:title=" ">
<path fill="none" stroke="#63b8ff" d="M989.21,-53.49C923.26,-43.53 823.14,-28.41 760.89,-19.01"/>
<polygon fill="#63b8ff" stroke="#63b8ff" points="989.08,-57.01 999.49,-55.04 990.13,-50.09 989.08,-57.01"/>
</a>
</g>
</g>
<!-- Node9 -->
<g id="Node000009" class="node">
<title>Node9</title>
<g id="a_Node000009"><a xlink:href="gvc-stream-status-icon_8c.html" target="_top" xlink:title=" ">
<polygon fill="white" stroke="#666666" points="915.5,-19 787.5,-19 787.5,0 915.5,0 915.5,-19"/>
<text text-anchor="middle" x="851.5" y="-7" font-family="Inter" font-size="10.00">gvc&#45;stream&#45;status&#45;icon.c</text>
</a>
</g>
</g>
<!-- Node1&#45;&gt;Node9 -->
<g id="edge8_Node000001_Node000009" class="edge">
<title>Node1&#45;&gt;Node9</title>
<g id="a_edge8_Node000001_Node000009"><a xlink:title=" ">
<path fill="none" stroke="#63b8ff" d="M1012.92,-52.44C974.73,-42.52 919.48,-28.16 884.53,-19.08"/>
<polygon fill="#63b8ff" stroke="#63b8ff" points="1012.17,-55.86 1022.72,-54.98 1013.93,-49.08 1012.17,-55.86"/>
</a>
</g>
</g>
<!-- Node10 -->
<g id="Node000010" class="node">
<title>Node10</title>
<g id="a_Node000010"><a xlink:href="mate-desktop-item_8c.html" target="_top" xlink:title=" ">
<polygon fill="white" stroke="#666666" points="1047,-19 934,-19 934,0 1047,0 1047,-19"/>
<text text-anchor="middle" x="990.5" y="-7" font-family="Inter" font-size="10.00">mate&#45;desktop&#45;item.c</text>
</a>
</g>
</g>
<!-- Node1&#45;&gt;Node10 -->
<g id="edge9_Node000001_Node000010" class="edge">
<title>Node1&#45;&gt;Node10</title>
<g id="a_edge9_Node000001_Node000010"><a xlink:title=" ">
<path fill="none" stroke="#63b8ff" d="M1037.23,-48.6C1025.58,-39.11 1010.9,-27.13 1001.13,-19.17"/>
<polygon fill="#63b8ff" stroke="#63b8ff" points="1035.09,-51.38 1045.06,-54.98 1039.52,-45.95 1035.09,-51.38"/>
</a>
</g>
</g>
<!-- Node11 -->
<g id="Node000011" class="node">
<title>Node11</title>
<g id="a_Node000011"><a xlink:href="mate-desktop-utils_8c.html" target="_top" xlink:title=" ">
<polygon fill="white" stroke="#666666" points="1175.5,-19 1065.5,-19 1065.5,0 1175.5,0 1175.5,-19"/>
<text text-anchor="middle" x="1120.5" y="-7" font-family="Inter" font-size="10.00">mate&#45;desktop&#45;utils.c</text>
</a>
</g>
</g>
<!-- Node1&#45;&gt;Node11 -->
<g id="edge10_Node000001_Node000011" class="edge">
<title>Node1&#45;&gt;Node11</title>
<g id="a_edge10_Node000001_Node000011"><a xlink:title=" ">
<path fill="none" stroke="#63b8ff" d="M1073.77,-48.6C1085.42,-39.11 1100.1,-27.13 1109.87,-19.17"/>
<polygon fill="#63b8ff" stroke="#63b8ff" points="1071.48,-45.95 1065.94,-54.98 1075.91,-51.38 1071.48,-45.95"/>
</a>
</g>
</g>
<!-- Node12 -->
<g id="Node000012" class="node">
<title>Node12</title>
<g id="a_Node000012"><a xlink:href="mate-notification-applet_8c.html" target="_top" xlink:title=" ">
<polygon fill="white" stroke="#666666" points="1329,-19 1194,-19 1194,0 1329,0 1329,-19"/>
<text text-anchor="middle" x="1261.5" y="-7" font-family="Inter" font-size="10.00">mate&#45;notification&#45;applet.c</text>
</a>
</g>
</g>
<!-- Node1&#45;&gt;Node12 -->
<g id="edge11_Node000001_Node000012" class="edge">
<title>Node1&#45;&gt;Node12</title>
<g id="a_edge11_Node000001_Node000012"><a xlink:title=" ">
<path fill="none" stroke="#63b8ff" d="M1098.5,-52.44C1137.06,-42.52 1192.86,-28.16 1228.14,-19.08"/>
<polygon fill="#63b8ff" stroke="#63b8ff" points="1097.41,-49.1 1088.6,-54.98 1099.15,-55.88 1097.41,-49.1"/>
</a>
</g>
</g>
<!-- Node13 -->
<g id="Node000013" class="node">
<title>Node13</title>
<g id="a_Node000013"><a xlink:href="mate-screensaver-preferences_8c.html" target="_top" xlink:title=" ">
<polygon fill="white" stroke="#666666" points="1514,-19 1347,-19 1347,0 1514,0 1514,-19"/>
<text text-anchor="middle" x="1430.5" y="-7" font-family="Inter" font-size="10.00">mate&#45;screensaver&#45;preferences.c</text>
</a>
</g>
</g>
<!-- Node1&#45;&gt;Node13 -->
<g id="edge12_Node000001_Node000013" class="edge">
<title>Node1&#45;&gt;Node13</title>
<g id="a_edge12_Node000001_Node000013"><a xlink:title=" ">
<path fill="none" stroke="#63b8ff" d="M1121.72,-54.14C1192.05,-44.2 1302.27,-28.62 1370.24,-19.02"/>
<polygon fill="#63b8ff" stroke="#63b8ff" points="1121.05,-50.7 1111.64,-55.57 1122.03,-57.63 1121.05,-50.7"/>
</a>
</g>
</g>
<!-- Node14 -->
<g id="Node000014" class="node">
<title>Node14</title>
<g id="a_Node000014"><a xlink:href="msd-xrandr-manager_8c.html" target="_top" xlink:title=" ">
<polygon fill="white" stroke="#666666" points="1651.5,-19 1531.5,-19 1531.5,0 1651.5,0 1651.5,-19"/>
<text text-anchor="middle" x="1591.5" y="-7" font-family="Inter" font-size="10.00">msd&#45;xrandr&#45;manager.c</text>
</a>
</g>
</g>
<!-- Node1&#45;&gt;Node14 -->
<g id="edge13_Node000001_Node000014" class="edge">
<title>Node1&#45;&gt;Node14</title>
<g id="a_edge13_Node000001_Node000014"><a xlink:title=" ">
<path fill="none" stroke="#63b8ff" d="M1121.89,-57.81C1212.66,-49.89 1380.55,-34.73 1523.5,-19 1526.1,-18.71 1528.76,-18.41 1531.44,-18.1"/>
<polygon fill="#63b8ff" stroke="#63b8ff" points="1121.4,-54.34 1111.75,-58.69 1122.01,-61.31 1121.4,-54.34"/>
</a>
</g>
</g>
<!-- Node15 -->
<g id="Node000015" class="node">
<title>Node15</title>
<g id="a_Node000015"><a xlink:href="panel-action-button_8c.html" target="_top" xlink:title=" ">
<polygon fill="white" stroke="#666666" points="1785,-19 1670,-19 1670,0 1785,0 1785,-19"/>
<text text-anchor="middle" x="1727.5" y="-7" font-family="Inter" font-size="10.00">panel&#45;action&#45;button.c</text>
</a>
</g>
</g>
<!-- Node1&#45;&gt;Node15 -->
<g id="edge14_Node000001_Node000015" class="edge">
<title>Node1&#45;&gt;Node15</title>
<g id="a_edge14_Node000001_Node000015"><a xlink:title=" ">
<path fill="none" stroke="#63b8ff" d="M1121.97,-59.76C1233.46,-53.23 1465.13,-38.56 1660.5,-19 1663.53,-18.7 1666.64,-18.37 1669.78,-18.02"/>
<polygon fill="#63b8ff" stroke="#63b8ff" points="1121.67,-56.27 1111.89,-60.35 1122.07,-63.26 1121.67,-56.27"/>
</a>
</g>
</g>
<!-- Node16 -->
<g id="Node000016" class="node">
<title>Node16</title>
<g id="a_Node000016"><a xlink:href="panel-run-dialog_8c.html" target="_top" xlink:title=" ">
<polygon fill="white" stroke="#666666" points="1903.5,-19 1803.5,-19 1803.5,0 1903.5,0 1903.5,-19"/>
<text text-anchor="middle" x="1853.5" y="-7" font-family="Inter" font-size="10.00">panel&#45;run&#45;dialog.c</text>
</a>
</g>
</g>
<!-- Node1&#45;&gt;Node16 -->
<g id="edge15_Node000001_Node000016" class="edge">
<title>Node1&#45;&gt;Node16</title>
<g id="a_edge15_Node000001_Node000016"><a xlink:title=" ">
<path fill="none" stroke="#63b8ff" d="M1121.87,-61.35C1251.45,-56.74 1547.06,-44.23 1794.5,-19 1797.38,-18.71 1800.34,-18.37 1803.32,-18.02"/>
<polygon fill="#63b8ff" stroke="#63b8ff" points="1121.59,-57.86 1111.72,-61.71 1121.83,-64.85 1121.59,-57.86"/>
</a>
</g>
</g>
<!-- Node17 -->
<g id="Node000017" class="node">
<title>Node17</title>
<g id="a_Node000017"><a xlink:href="panel-util_8c.html" target="_top" xlink:title=" ">
<polygon fill="white" stroke="#666666" points="1989,-19 1922,-19 1922,0 1989,0 1989,-19"/>
<text text-anchor="middle" x="1955.5" y="-7" font-family="Inter" font-size="10.00">panel&#45;util.c</text>
</a>
</g>
</g>
<!-- Node1&#45;&gt;Node17 -->
<g id="edge16_Node000001_Node000017" class="edge">
<title>Node1&#45;&gt;Node17</title>
<g id="a_edge16_Node000001_Node000017"><a xlink:title=" ">
<path fill="none" stroke="#63b8ff" d="M1121.66,-63.29C1265.89,-62.11 1619.22,-55.41 1912.5,-19 1915.52,-18.62 1918.65,-18.16 1921.77,-17.64"/>
<polygon fill="#63b8ff" stroke="#63b8ff" points="1121.61,-59.79 1111.64,-63.36 1121.67,-66.79 1121.61,-59.79"/>
</a>
</g>
</g>
<!-- Node18 -->
<g id="Node000018" class="node">
<title>Node18</title>
<g id="a_Node000018"><a xlink:href="window-list_8c.html" target="_top" xlink:title=" ">
<polygon fill="white" stroke="#666666" points="2082,-19 2007,-19 2007,0 2082,0 2082,-19"/>
<text text-anchor="middle" x="2044.5" y="-7" font-family="Inter" font-size="10.00">window&#45;list.c</text>
</a>
</g>
</g>
<!-- Node1&#45;&gt;Node18 -->
<g id="edge17_Node000001_Node000018" class="edge">
<title>Node1&#45;&gt;Node18</title>
<g id="a_edge17_Node000001_Node000018"><a xlink:title=" ">
<path fill="none" stroke="#63b8ff" d="M1121.76,-63.45C1276.04,-62.67 1671.03,-56.81 1998.5,-19 2001.24,-18.68 2004.07,-18.3 2006.91,-17.88"/>
<polygon fill="#63b8ff" stroke="#63b8ff" points="1121.5,-59.95 1111.51,-63.5 1121.53,-66.95 1121.5,-59.95"/>
</a>
</g>
</g>
<!-- Node19 -->
<g id="Node000019" class="node">
<title>Node19</title>
<g id="a_Node000019"><a xlink:href="xrandr-capplet_8c.html" target="_top" xlink:title=" ">
<polygon fill="white" stroke="#666666" points="2192.5,-19 2100.5,-19 2100.5,0 2192.5,0 2192.5,-19"/>
<text text-anchor="middle" x="2146.5" y="-7" font-family="Inter" font-size="10.00">xrandr&#45;capplet.c</text>
</a>
</g>
</g>
<!-- Node1&#45;&gt;Node19 -->
<g id="edge18_Node000001_Node000019" class="edge">
<title>Node1&#45;&gt;Node19</title>
<g id="a_edge18_Node000001_Node000019"><a xlink:title=" ">
<path fill="none" stroke="#63b8ff" d="M1121.97,-63.18C1286.65,-61.85 1726.63,-54.92 2091.5,-19 2094.38,-18.72 2097.35,-18.38 2100.33,-18.01"/>
<polygon fill="#63b8ff" stroke="#63b8ff" points="1121.5,-59.69 1111.52,-63.26 1121.55,-66.69 1121.5,-59.69"/>
</a>
</g>
</g>
</g>
</svg>

<g id="navigator" transform="translate(0 0)" fill="#404254">
  <rect fill="#f2f5e9" fill-opacity="0.5" stroke="#606060" stroke-width=".5" x="0" y="0" width="60" height="60"/>
  <use id="zoomplus" xlink:href="#zoomPlus" x="17" y="9" onmousedown="handleZoom(evt,'in')"/>
  <use id="zoomminus" xlink:href="#zoomMin" x="42" y="9" onmousedown="handleZoom(evt,'out')"/>
  <use id="reset" xlink:href="#resetDef" x="30" y="36" onmousedown="handleReset()"/>
   <use id="arrowup" xlink:href="#arrowUp" x="0" y="0" onmousedown="handlePan(0,-1)"/>
  <use id="arrowright" xlink:href="#arrowRight" x="0" y="0" onmousedown="handlePan(1,0)"/>
  <use id="arrowdown" xlink:href="#arrowDown" x="0" y="0" onmousedown="handlePan(0,1)"/>
  <use id="arrowleft" xlink:href="#arrowLeft" x="0" y="0" onmousedown="handlePan(-1,0)"/>
</g>
<svg viewBox="0 0 15 15" width="100%" height="30px" preserveAspectRatio="xMaxYMin meet">
 <g id="arrow_out" transform="scale(0.3 0.3)">
  <a xlink:href="mate-desktop-utils_8h__dep__incl_org.svg" target="_base">
   <rect id="button" ry="5" rx="5" y="6" x="6" height="38" width="38"
        fill="#f2f5e9" fill-opacity="0.5" stroke="#606060" stroke-width="1.0"/>
   <path id="arrow"
     d="M 11.500037,31.436501 C 11.940474,20.09759 22.043105,11.32322 32.158766,21.979434 L 37.068811,17.246167 C 37.068811,17.246167 37.088388,32 37.088388,32 L 22.160133,31.978069 C 22.160133,31.978069 26.997745,27.140456 26.997745,27.140456 C 18.528582,18.264221 13.291696,25.230495 11.500037,31.436501 z"
     style="fill:#404040;"/>
  </a>
 </g>
</svg>

<style type='text/css'>
<![CDATA[
[data-mouse-over-selected='false'] { opacity: 0.7; }
[data-mouse-over-selected='true']  { opacity: 1.0; }
]]>
</style>
<script type="application/ecmascript"><![CDATA[
document.addEventListener('DOMContentLoaded', (event) => {
  highlightEdges();
  highlightAdjacentNodes();
});
]]></script>
</svg>
