<?xml version="1.0" encoding="UTF-8" standalone="no"?>
<!DOCTYPE svg PUBLIC "-//W3C//DTD SVG 1.1//EN"
 "http://www.w3.org/Graphics/SVG/1.1/DTD/svg11.dtd">
<!-- Generated by graphviz version 2.43.0 (0)
 -->
<!-- Title: mate&#45;session&#45;check&#45;accelerated&#45;gles&#45;helper.c Pages: 1 -->
<svg width="493pt" height="104pt"
 viewBox="0.00 0.00 492.50 104.00" xmlns="http://www.w3.org/2000/svg" xmlns:xlink="http://www.w3.org/1999/xlink">
<g id="graph0" class="graph" transform="scale(1 1) rotate(0) translate(4 100)">
<title>mate&#45;session&#45;check&#45;accelerated&#45;gles&#45;helper.c</title>
<!-- Node1 -->
<g id="Node000001" class="node">
<title>Node1</title>
<g id="a_Node000001"><a xlink:title=" ">
<polygon fill="#999999" stroke="#666666" points="277,-96 143,-96 143,-66 277,-66 277,-96"/>
<text text-anchor="start" x="151" y="-84" font-family="Inter" font-size="10.00">mate&#45;session&#45;check</text>
<text text-anchor="middle" x="210" y="-73" font-family="Inter" font-size="10.00">&#45;accelerated&#45;gles&#45;helper.c</text>
</a>
</g>
</g>
<!-- Node2 -->
<g id="Node000002" class="node">
<title>Node2</title>
<g id="a_Node000002"><a xlink:title=" ">
<polygon fill="#e0e0e0" stroke="#999999" points="54,-24.5 0,-24.5 0,-5.5 54,-5.5 54,-24.5"/>
<text text-anchor="middle" x="27" y="-12.5" font-family="Inter" font-size="10.00">config.h</text>
</a>
</g>
</g>
<!-- Node1&#45;&gt;Node2 -->
<g id="edge1_Node000001_Node000002" class="edge">
<title>Node1&#45;&gt;Node2</title>
<g id="a_edge1_Node000001_Node000002"><a xlink:title=" ">
<path fill="none" stroke="#63b8ff" d="M167.05,-65.93C137.65,-56.17 97.83,-42.69 63,-30 61.4,-29.42 59.76,-28.81 58.1,-28.19"/>
<polygon fill="#63b8ff" stroke="#63b8ff" points="59.24,-24.88 48.64,-24.59 56.75,-31.42 59.24,-24.88"/>
</a>
</g>
</g>
<!-- Node3 -->
<g id="Node000003" class="node">
<title>Node3</title>
<g id="a_Node000003"><a xlink:title=" ">
<polygon fill="#e0e0e0" stroke="#999999" points="131.5,-24.5 72.5,-24.5 72.5,-5.5 131.5,-5.5 131.5,-24.5"/>
<text text-anchor="middle" x="102" y="-12.5" font-family="Inter" font-size="10.00">gtk/gtk.h</text>
</a>
</g>
</g>
<!-- Node1&#45;&gt;Node3 -->
<g id="edge2_Node000001_Node000003" class="edge">
<title>Node1&#45;&gt;Node3</title>
<g id="a_edge2_Node000001_Node000003"><a xlink:title=" ">
<path fill="none" stroke="#63b8ff" d="M186.3,-65.95C168.11,-55.18 143.14,-40.38 125.1,-29.69"/>
<polygon fill="#63b8ff" stroke="#63b8ff" points="126.76,-26.6 116.37,-24.52 123.19,-32.63 126.76,-26.6"/>
</a>
</g>
</g>
<!-- Node4 -->
<g id="Node000004" class="node">
<title>Node4</title>
<g id="a_Node000004"><a xlink:title=" ">
<polygon fill="#e0e0e0" stroke="#999999" points="202,-24.5 150,-24.5 150,-5.5 202,-5.5 202,-24.5"/>
<text text-anchor="middle" x="176" y="-12.5" font-family="Inter" font-size="10.00">locale.h</text>
</a>
</g>
</g>
<!-- Node1&#45;&gt;Node4 -->
<g id="edge3_Node000001_Node000004" class="edge">
<title>Node1&#45;&gt;Node4</title>
<g id="a_edge3_Node000001_Node000004"><a xlink:title=" ">
<path fill="none" stroke="#63b8ff" d="M202.45,-65.8C197.47,-56.41 190.88,-44.02 185.53,-33.95"/>
<polygon fill="#63b8ff" stroke="#63b8ff" points="188.48,-32.03 180.7,-24.84 182.3,-35.32 188.48,-32.03"/>
</a>
</g>
</g>
<!-- Node5 -->
<g id="Node000005" class="node">
<title>Node5</title>
<g id="a_Node000005"><a xlink:title=" ">
<polygon fill="#e0e0e0" stroke="#999999" points="270,-24.5 220,-24.5 220,-5.5 270,-5.5 270,-24.5"/>
<text text-anchor="middle" x="245" y="-12.5" font-family="Inter" font-size="10.00">stdlib.h</text>
</a>
</g>
</g>
<!-- Node1&#45;&gt;Node5 -->
<g id="edge4_Node000001_Node000005" class="edge">
<title>Node1&#45;&gt;Node5</title>
<g id="a_edge4_Node000001_Node000005"><a xlink:title=" ">
<path fill="none" stroke="#63b8ff" d="M217.77,-65.8C222.96,-56.31 229.82,-43.76 235.36,-33.63"/>
<polygon fill="#63b8ff" stroke="#63b8ff" points="238.44,-35.3 240.16,-24.84 232.29,-31.94 238.44,-35.3"/>
</a>
</g>
</g>
<!-- Node6 -->
<g id="Node000006" class="node">
<title>Node6</title>
<g id="a_Node000006"><a xlink:title=" ">
<polygon fill="#e0e0e0" stroke="#999999" points="341.5,-24.5 288.5,-24.5 288.5,-5.5 341.5,-5.5 341.5,-24.5"/>
<text text-anchor="middle" x="315" y="-12.5" font-family="Inter" font-size="10.00">string.h</text>
</a>
</g>
</g>
<!-- Node1&#45;&gt;Node6 -->
<g id="edge5_Node000001_Node000006" class="edge">
<title>Node1&#45;&gt;Node6</title>
<g id="a_edge5_Node000001_Node000006"><a xlink:title=" ">
<path fill="none" stroke="#63b8ff" d="M233.04,-65.95C250.56,-55.27 274.56,-40.65 292.06,-29.98"/>
<polygon fill="#63b8ff" stroke="#63b8ff" points="294.31,-32.71 301.03,-24.52 290.67,-26.73 294.31,-32.71"/>
</a>
</g>
</g>
<!-- Node7 -->
<g id="Node000007" class="node">
<title>Node7</title>
<g id="a_Node000007"><a xlink:href="mate-session-check-accelerated-common_8h.html" target="_top" xlink:title=" ">
<polygon fill="white" stroke="#666666" points="484.5,-30 359.5,-30 359.5,0 484.5,0 484.5,-30"/>
<text text-anchor="start" x="367.5" y="-18" font-family="Inter" font-size="10.00">mate&#45;session&#45;check</text>
<text text-anchor="middle" x="422" y="-7" font-family="Inter" font-size="10.00">&#45;accelerated&#45;common.h</text>
</a>
</g>
</g>
<!-- Node1&#45;&gt;Node7 -->
<g id="edge6_Node000001_Node000007" class="edge">
<title>Node1&#45;&gt;Node7</title>
<g id="a_edge6_Node000001_Node000007"><a xlink:title=" ">
<path fill="none" stroke="#63b8ff" d="M256.52,-65.95C288.7,-56.24 331.67,-43.27 365.77,-32.98"/>
<polygon fill="#63b8ff" stroke="#63b8ff" points="367.02,-36.25 375.58,-30.01 365,-29.55 367.02,-36.25"/>
</a>
</g>
</g>
</g>
</svg>
