<?xml version="1.0" encoding="UTF-8" standalone="no"?>
<!DOCTYPE svg PUBLIC "-//W3C//DTD SVG 1.1//EN"
 "http://www.w3.org/Graphics/SVG/1.1/DTD/svg11.dtd">
<!-- Generated by graphviz version 2.43.0 (0)
 -->
<!-- Title: mate&#45;keyboard&#45;properties.c Pages: 1 -->
<!--zoomable 214 -->

<svg id="main" version="1.1" xmlns="http://www.w3.org/2000/svg" xmlns:xlink="http://www.w3.org/1999/xlink" xml:space="preserve" onload="init(evt)">

<style type="text/css"><![CDATA[
.node, .edge {opacity: 0.7;}
.node.selected, .edge.selected {opacity: 1;}
.edge:hover path { stroke: red; }
.edge:hover polygon { stroke: red; fill: red; }
]]></style>

<defs>
  <circle id="rim" cx="0" cy="0" r="7"/>
  <circle id="rim2" cx="0" cy="0" r="3.5"/>
  <g id="zoomPlus">
    <use xlink:href="#rim" fill="#404040"><set attributeName="fill" to="#808080" begin="zoomplus.mouseover" end="zoomplus.mouseout"/></use>
    <path d="M-4,0h8M0,-4v8" fill="none" stroke="white" stroke-width="1.5" pointer-events="none"/>
  </g>
  <g id="zoomMin">
    <use xlink:href="#rim" fill="#404040"><set attributeName="fill" to="#808080" begin="zoomminus.mouseover" end="zoomminus.mouseout"/></use>
    <path d="M-4,0h8" fill="none" stroke="white" stroke-width="1.5" pointer-events="none"/>
  </g>
  <g id="arrowUp" transform="translate(30 24)">
    <use xlink:href="#rim"/>
    <path pointer-events="none" fill="none" stroke="white" stroke-width="1.5" d="M0,-3.0v7 M-2.5,-0.5L0,-3.0L2.5,-0.5"/>
  </g>
  <g id="arrowRight" transform="rotate(90) translate(36 -43)">
    <use xlink:href="#rim"/>
    <path pointer-events="none" fill="none" stroke="white" stroke-width="1.5" d="M0,-3.0v7 M-2.5,-0.5L0,-3.0L2.5,-0.5"/>
  </g>
  <g id="arrowDown" transform="rotate(180) translate(-30 -48)">
    <use xlink:href="#rim"/>
    <path pointer-events="none" fill="none" stroke="white" stroke-width="1.5" d="M0,-3.0v7 M-2.5,-0.5L0,-3.0L2.5,-0.5"/>
  </g>
  <g id="arrowLeft" transform="rotate(270) translate(-36 17)">
    <use xlink:href="#rim"/>
    <path pointer-events="none" fill="none" stroke="white" stroke-width="1.5" d="M0,-3.0v7 M-2.5,-0.5L0,-3.0L2.5,-0.5"/>
  </g>
  <g id="resetDef">
    <use xlink:href="#rim2" fill="#404040"><set attributeName="fill" to="#808080" begin="reset.mouseover" end="reset.mouseout"/></use>
  </g>
</defs>
<script type="application/ecmascript">
var viewWidth = 672;
var viewHeight = 214;
var sectionId = 'dynsection-0';
</script>
<script type="application/ecmascript" xlink:href="svg.min.js"/>
<svg id="graph" class="graph">
<g id="viewport">
<title>mate&#45;keyboard&#45;properties.c</title>
<!-- Node1 -->
<g id="Node000001" class="node">
<title>Node1</title>
<g id="a_Node000001"><a xlink:title=" ">
<polygon fill="#999999" stroke="#666666" points="281,-206 135,-206 135,-187 281,-187 281,-206"/>
<text text-anchor="middle" x="208" y="-194" font-family="Inter" font-size="10.00">mate&#45;keyboard&#45;properties.c</text>
</a>
</g>
</g>
<!-- Node2 -->
<g id="Node000002" class="node">
<title>Node2</title>
<g id="a_Node000002"><a xlink:title=" ">
<polygon fill="#e0e0e0" stroke="#999999" points="50,-145.5 0,-145.5 0,-126.5 50,-126.5 50,-145.5"/>
<text text-anchor="middle" x="25" y="-133.5" font-family="Inter" font-size="10.00">stdlib.h</text>
</a>
</g>
</g>
<!-- Node1&#45;&gt;Node2 -->
<g id="edge1_Node000001_Node000002" class="edge">
<title>Node1&#45;&gt;Node2</title>
<g id="a_edge1_Node000001_Node000002"><a xlink:title=" ">
<path fill="none" stroke="#63b8ff" d="M178.92,-186.93C149.74,-178.24 103.59,-164.22 64,-151 62.11,-150.37 60.17,-149.71 58.21,-149.03"/>
<polygon fill="#63b8ff" stroke="#63b8ff" points="59.05,-145.62 48.45,-145.61 56.73,-152.22 59.05,-145.62"/>
</a>
</g>
</g>
<!-- Node3 -->
<g id="Node000003" class="node">
<title>Node3</title>
<g id="a_Node000003"><a xlink:title=" ">
<polygon fill="#e0e0e0" stroke="#999999" points="293,-19 235,-19 235,0 293,0 293,-19"/>
<text text-anchor="middle" x="264" y="-7" font-family="Inter" font-size="10.00">gio/gio.h</text>
</a>
</g>
</g>
<!-- Node1&#45;&gt;Node3 -->
<g id="edge2_Node000001_Node000003" class="edge">
<title>Node1&#45;&gt;Node3</title>
<g id="a_edge2_Node000001_Node000003"><a xlink:title=" ">
<path fill="none" stroke="#63b8ff" d="M153.07,-186.96C131.89,-180.69 109.74,-169.83 97,-151 73.09,-115.66 71,-88.83 97,-55 112.44,-34.9 180.24,-21.95 224.56,-15.46"/>
<polygon fill="#63b8ff" stroke="#63b8ff" points="225.32,-18.89 234.73,-14.03 224.34,-11.96 225.32,-18.89"/>
</a>
</g>
</g>
<!-- Node4 -->
<g id="Node000004" class="node">
<title>Node4</title>
<g id="a_Node000004"><a xlink:href="capplet-util_8h.html" target="_top" xlink:title=" ">
<polygon fill="white" stroke="#666666" points="183.5,-145.5 106.5,-145.5 106.5,-126.5 183.5,-126.5 183.5,-145.5"/>
<text text-anchor="middle" x="145" y="-133.5" font-family="Inter" font-size="10.00">capplet&#45;util.h</text>
</a>
</g>
</g>
<!-- Node1&#45;&gt;Node4 -->
<g id="edge3_Node000001_Node000004" class="edge">
<title>Node1&#45;&gt;Node4</title>
<g id="a_edge3_Node000001_Node000004"><a xlink:title=" ">
<path fill="none" stroke="#63b8ff" d="M198.7,-186.87C189.03,-177.88 173.66,-163.61 161.84,-152.64"/>
<polygon fill="#63b8ff" stroke="#63b8ff" points="164.04,-149.91 154.33,-145.67 159.28,-155.04 164.04,-149.91"/>
</a>
</g>
</g>
<!-- Node7 -->
<g id="Node000007" class="node">
<title>Node7</title>
<g id="a_Node000007"><a xlink:href="activate-settings-daemon_8h.html" target="_top" xlink:title=" ">
<polygon fill="white" stroke="#666666" points="663.5,-79.5 520.5,-79.5 520.5,-60.5 663.5,-60.5 663.5,-79.5"/>
<text text-anchor="middle" x="592" y="-67.5" font-family="Inter" font-size="10.00">activate&#45;settings&#45;daemon.h</text>
</a>
</g>
</g>
<!-- Node1&#45;&gt;Node7 -->
<g id="edge7_Node000001_Node000007" class="edge">
<title>Node1&#45;&gt;Node7</title>
<g id="a_edge7_Node000001_Node000007"><a xlink:title=" ">
<path fill="none" stroke="#63b8ff" d="M281.25,-189.47C356.07,-182.44 466.55,-169.39 505,-151 536.16,-136.1 563.96,-106.2 579.34,-87.47"/>
<polygon fill="#63b8ff" stroke="#63b8ff" points="582.19,-89.52 585.68,-79.52 576.71,-85.16 582.19,-89.52"/>
</a>
</g>
</g>
<!-- Node9 -->
<g id="Node000009" class="node">
<title>Node9</title>
<g id="a_Node000009"><a xlink:href="mate-keyboard-properties-a11y_8h.html" target="_top" xlink:title=" ">
<polygon fill="white" stroke="#666666" points="340,-151 202,-151 202,-121 340,-121 340,-151"/>
<text text-anchor="start" x="210" y="-139" font-family="Inter" font-size="10.00">mate&#45;keyboard&#45;properties</text>
<text text-anchor="middle" x="271" y="-128" font-family="Inter" font-size="10.00">&#45;a11y.h</text>
</a>
</g>
</g>
<!-- Node1&#45;&gt;Node9 -->
<g id="edge9_Node000001_Node000009" class="edge">
<title>Node1&#45;&gt;Node9</title>
<g id="a_edge9_Node000001_Node000009"><a xlink:title=" ">
<path fill="none" stroke="#63b8ff" d="M217.3,-186.87C225.45,-179.3 237.64,-167.98 248.34,-158.04"/>
<polygon fill="#63b8ff" stroke="#63b8ff" points="250.85,-160.48 255.8,-151.11 246.09,-155.35 250.85,-160.48"/>
</a>
</g>
</g>
<!-- Node10 -->
<g id="Node000010" class="node">
<title>Node10</title>
<g id="a_Node000010"><a xlink:href="mate-keyboard-properties-xkb_8h.html" target="_top" xlink:title=" ">
<polygon fill="white" stroke="#666666" points="496,-151 358,-151 358,-121 496,-121 496,-151"/>
<text text-anchor="start" x="366" y="-139" font-family="Inter" font-size="10.00">mate&#45;keyboard&#45;properties</text>
<text text-anchor="middle" x="427" y="-128" font-family="Inter" font-size="10.00">&#45;xkb.h</text>
</a>
</g>
</g>
<!-- Node1&#45;&gt;Node10 -->
<g id="edge11_Node000001_Node000010" class="edge">
<title>Node1&#45;&gt;Node10</title>
<g id="a_edge11_Node000001_Node000010"><a xlink:title=" ">
<path fill="none" stroke="#63b8ff" d="M239.84,-186.99C272.39,-178.3 323.81,-164.57 364.51,-153.69"/>
<polygon fill="#63b8ff" stroke="#63b8ff" points="365.59,-157.03 374.35,-151.06 363.78,-150.26 365.59,-157.03"/>
</a>
</g>
</g>
<!-- Node4&#45;&gt;Node3 -->
<g id="edge4_Node000004_Node000003" class="edge">
<title>Node4&#45;&gt;Node3</title>
<g id="a_edge4_Node000004_Node000003"><a xlink:title=" ">
<path fill="none" stroke="#63b8ff" d="M153.18,-126.44C172.88,-105.83 223.22,-53.17 248.71,-26.5"/>
<polygon fill="#63b8ff" stroke="#63b8ff" points="251.38,-28.76 255.76,-19.12 246.32,-23.93 251.38,-28.76"/>
</a>
</g>
</g>
<!-- Node5 -->
<g id="Node000005" class="node">
<title>Node5</title>
<g id="a_Node000005"><a xlink:title=" ">
<polygon fill="#e0e0e0" stroke="#999999" points="293.5,-79.5 234.5,-79.5 234.5,-60.5 293.5,-60.5 293.5,-79.5"/>
<text text-anchor="middle" x="264" y="-67.5" font-family="Inter" font-size="10.00">gtk/gtk.h</text>
</a>
</g>
</g>
<!-- Node4&#45;&gt;Node5 -->
<g id="edge5_Node000004_Node000005" class="edge">
<title>Node4&#45;&gt;Node5</title>
<g id="a_edge5_Node000004_Node000005"><a xlink:title=" ">
<path fill="none" stroke="#63b8ff" d="M161.05,-126.37C181.01,-115.63 215.32,-97.18 238.8,-84.55"/>
<polygon fill="#63b8ff" stroke="#63b8ff" points="240.68,-87.52 247.83,-79.7 237.36,-81.35 240.68,-87.52"/>
</a>
</g>
</g>
<!-- Node6 -->
<g id="Node000006" class="node">
<title>Node6</title>
<g id="a_Node000006"><a xlink:title=" ">
<polygon fill="#e0e0e0" stroke="#999999" points="178,-79.5 106,-79.5 106,-60.5 178,-60.5 178,-79.5"/>
<text text-anchor="middle" x="142" y="-67.5" font-family="Inter" font-size="10.00">glib/gi18n.h</text>
</a>
</g>
</g>
<!-- Node4&#45;&gt;Node6 -->
<g id="edge6_Node000004_Node000006" class="edge">
<title>Node4&#45;&gt;Node6</title>
<g id="a_edge6_Node000004_Node000006"><a xlink:title=" ">
<path fill="none" stroke="#63b8ff" d="M144.6,-126.37C144.16,-117.07 143.45,-101.98 142.89,-89.9"/>
<polygon fill="#63b8ff" stroke="#63b8ff" points="146.38,-89.73 142.42,-79.91 139.39,-90.06 146.38,-89.73"/>
</a>
</g>
</g>
<!-- Node8 -->
<g id="Node000008" class="node">
<title>Node8</title>
<g id="a_Node000008"><a xlink:title=" ">
<polygon fill="#e0e0e0" stroke="#999999" points="513,-19 471,-19 471,0 513,0 513,-19"/>
<text text-anchor="middle" x="492" y="-7" font-family="Inter" font-size="10.00">glib.h</text>
</a>
</g>
</g>
<!-- Node7&#45;&gt;Node8 -->
<g id="edge8_Node000007_Node000008" class="edge">
<title>Node7&#45;&gt;Node8</title>
<g id="a_edge8_Node000007_Node000008"><a xlink:title=" ">
<path fill="none" stroke="#63b8ff" d="M577.24,-60.37C561,-50.86 534.65,-35.45 515.54,-24.27"/>
<polygon fill="#63b8ff" stroke="#63b8ff" points="517.21,-21.2 506.82,-19.17 513.68,-27.24 517.21,-21.2"/>
</a>
</g>
</g>
<!-- Node9&#45;&gt;Node5 -->
<g id="edge10_Node000009_Node000005" class="edge">
<title>Node9&#45;&gt;Node5</title>
<g id="a_edge10_Node000009_Node000005"><a xlink:title=" ">
<path fill="none" stroke="#63b8ff" d="M269.45,-120.8C268.45,-111.7 267.15,-99.79 266.07,-89.9"/>
<polygon fill="#63b8ff" stroke="#63b8ff" points="269.53,-89.4 264.97,-79.84 262.58,-90.17 269.53,-89.4"/>
</a>
</g>
</g>
<!-- Node10&#45;&gt;Node3 -->
<g id="edge13_Node000010_Node000003" class="edge">
<title>Node10&#45;&gt;Node3</title>
<g id="a_edge13_Node000010_Node000003"><a xlink:title=" ">
<path fill="none" stroke="#63b8ff" d="M399.57,-120.97C382.4,-111.69 360.17,-98.73 342,-85 318.34,-67.12 294.1,-42.85 279.05,-26.93"/>
<polygon fill="#63b8ff" stroke="#63b8ff" points="281.45,-24.38 272.07,-19.45 276.34,-29.15 281.45,-24.38"/>
</a>
</g>
</g>
<!-- Node10&#45;&gt;Node8 -->
<g id="edge12_Node000010_Node000008" class="edge">
<title>Node10&#45;&gt;Node8</title>
<g id="a_edge12_Node000010_Node000008"><a xlink:title=" ">
<path fill="none" stroke="#63b8ff" d="M443.7,-120.81C453.58,-111.55 465.58,-98.69 473,-85 482.52,-67.44 487.4,-44.94 489.82,-29.29"/>
<polygon fill="#63b8ff" stroke="#63b8ff" points="493.3,-29.65 491.17,-19.27 486.36,-28.71 493.3,-29.65"/>
</a>
</g>
</g>
<!-- Node11 -->
<g id="Node000011" class="node">
<title>Node11</title>
<g id="a_Node000011"><a xlink:href="matekbd-keyboard-config_8h.html" target="_top" xlink:title=" ">
<polygon fill="#fff0f0" stroke="red" points="463.5,-85 350.5,-85 350.5,-55 463.5,-55 463.5,-85"/>
<text text-anchor="start" x="358.5" y="-73" font-family="Inter" font-size="10.00">libmatekbd/matekbd</text>
<text text-anchor="middle" x="407" y="-62" font-family="Inter" font-size="10.00">&#45;keyboard&#45;config.h</text>
</a>
</g>
</g>
<!-- Node10&#45;&gt;Node11 -->
<g id="edge14_Node000010_Node000011" class="edge">
<title>Node10&#45;&gt;Node11</title>
<g id="a_edge14_Node000010_Node000011"><a xlink:title=" ">
<path fill="none" stroke="#63b8ff" d="M422.56,-120.8C420.18,-113.17 417.18,-103.57 414.45,-94.84"/>
<polygon fill="#63b8ff" stroke="#63b8ff" points="417.75,-93.66 411.43,-85.16 411.07,-95.75 417.75,-93.66"/>
</a>
</g>
</g>
<!-- Node11&#45;&gt;Node3 -->
<g id="edge16_Node000011_Node000003" class="edge">
<title>Node11&#45;&gt;Node3</title>
<g id="a_edge16_Node000011_Node000003"><a xlink:title=" ">
<path fill="none" stroke="#63b8ff" d="M372.75,-54.99C348.89,-45.23 317.35,-32.33 294.39,-22.93"/>
<polygon fill="#63b8ff" stroke="#63b8ff" points="295.7,-19.69 285.12,-19.14 293.05,-26.17 295.7,-19.69"/>
</a>
</g>
</g>
<!-- Node11&#45;&gt;Node8 -->
<g id="edge15_Node000011_Node000008" class="edge">
<title>Node11&#45;&gt;Node8</title>
<g id="a_edge15_Node000011_Node000008"><a xlink:title=" ">
<path fill="none" stroke="#63b8ff" d="M427.58,-54.84C440.67,-45.83 457.59,-34.18 470.8,-25.09"/>
<polygon fill="#63b8ff" stroke="#63b8ff" points="473.01,-27.82 479.26,-19.27 469.04,-22.05 473.01,-27.82"/>
</a>
</g>
</g>
</g>
</svg>

<g id="navigator" transform="translate(0 0)" fill="#404254">
  <rect fill="#f2f5e9" fill-opacity="0.5" stroke="#606060" stroke-width=".5" x="0" y="0" width="60" height="60"/>
  <use id="zoomplus" xlink:href="#zoomPlus" x="17" y="9" onmousedown="handleZoom(evt,'in')"/>
  <use id="zoomminus" xlink:href="#zoomMin" x="42" y="9" onmousedown="handleZoom(evt,'out')"/>
  <use id="reset" xlink:href="#resetDef" x="30" y="36" onmousedown="handleReset()"/>
   <use id="arrowup" xlink:href="#arrowUp" x="0" y="0" onmousedown="handlePan(0,-1)"/>
  <use id="arrowright" xlink:href="#arrowRight" x="0" y="0" onmousedown="handlePan(1,0)"/>
  <use id="arrowdown" xlink:href="#arrowDown" x="0" y="0" onmousedown="handlePan(0,1)"/>
  <use id="arrowleft" xlink:href="#arrowLeft" x="0" y="0" onmousedown="handlePan(-1,0)"/>
</g>
<svg viewBox="0 0 15 15" width="100%" height="30px" preserveAspectRatio="xMaxYMin meet">
 <g id="arrow_out" transform="scale(0.3 0.3)">
  <a xlink:href="mate-keyboard-properties_8c__incl_org.svg" target="_base">
   <rect id="button" ry="5" rx="5" y="6" x="6" height="38" width="38"
        fill="#f2f5e9" fill-opacity="0.5" stroke="#606060" stroke-width="1.0"/>
   <path id="arrow"
     d="M 11.500037,31.436501 C 11.940474,20.09759 22.043105,11.32322 32.158766,21.979434 L 37.068811,17.246167 C 37.068811,17.246167 37.088388,32 37.088388,32 L 22.160133,31.978069 C 22.160133,31.978069 26.997745,27.140456 26.997745,27.140456 C 18.528582,18.264221 13.291696,25.230495 11.500037,31.436501 z"
     style="fill:#404040;"/>
  </a>
 </g>
</svg>

<style type='text/css'>
<![CDATA[
[data-mouse-over-selected='false'] { opacity: 0.7; }
[data-mouse-over-selected='true']  { opacity: 1.0; }
]]>
</style>
<script type="application/ecmascript"><![CDATA[
document.addEventListener('DOMContentLoaded', (event) => {
  highlightEdges();
  highlightAdjacentNodes();
});
]]></script>
</svg>
