<?xml version="1.0" encoding="UTF-8" standalone="no"?>
<!DOCTYPE svg PUBLIC "-//W3C//DTD SVG 1.1//EN"
 "http://www.w3.org/Graphics/SVG/1.1/DTD/svg11.dtd">
<!-- Generated by graphviz version 2.43.0 (0)
 -->
<!-- Title: mate&#45;screensaver&#45;dialog.c Pages: 1 -->
<svg width="1268pt" height="137pt"
 viewBox="0.00 0.00 1267.50 137.00" xmlns="http://www.w3.org/2000/svg" xmlns:xlink="http://www.w3.org/1999/xlink">
<g id="graph0" class="graph" transform="scale(1 1) rotate(0) translate(4 133)">
<title>mate&#45;screensaver&#45;dialog.c</title>
<!-- Node1 -->
<g id="Node000001" class="node">
<title>Node1</title>
<g id="a_Node000001"><a xlink:title=" ">
<polygon fill="#999999" stroke="#666666" points="669,-129 531,-129 531,-110 669,-110 669,-129"/>
<text text-anchor="middle" x="600" y="-117" font-family="Inter" font-size="10.00">mate&#45;screensaver&#45;dialog.c</text>
</a>
</g>
</g>
<!-- Node2 -->
<g id="Node000002" class="node">
<title>Node2</title>
<g id="a_Node000002"><a xlink:title=" ">
<polygon fill="#e0e0e0" stroke="#999999" points="54,-74 0,-74 0,-55 54,-55 54,-74"/>
<text text-anchor="middle" x="27" y="-62" font-family="Inter" font-size="10.00">config.h</text>
</a>
</g>
</g>
<!-- Node1&#45;&gt;Node2 -->
<g id="edge1_Node000001_Node000002" class="edge">
<title>Node1&#45;&gt;Node2</title>
<g id="a_edge1_Node000001_Node000002"><a xlink:title=" ">
<path fill="none" stroke="#63b8ff" d="M530.94,-116.07C430.28,-111.8 237.3,-100.87 64.1,-73.93"/>
<polygon fill="#63b8ff" stroke="#63b8ff" points="64.46,-70.44 54.04,-72.34 63.37,-77.36 64.46,-70.44"/>
</a>
</g>
</g>
<!-- Node3 -->
<g id="Node000003" class="node">
<title>Node3</title>
<g id="a_Node000003"><a xlink:title=" ">
<polygon fill="#e0e0e0" stroke="#999999" points="122,-74 72,-74 72,-55 122,-55 122,-74"/>
<text text-anchor="middle" x="97" y="-62" font-family="Inter" font-size="10.00">stdlib.h</text>
</a>
</g>
</g>
<!-- Node1&#45;&gt;Node3 -->
<g id="edge2_Node000001_Node000003" class="edge">
<title>Node1&#45;&gt;Node3</title>
<g id="a_edge2_Node000001_Node000003"><a xlink:title=" ">
<path fill="none" stroke="#63b8ff" d="M530.83,-115.2C441.02,-110.18 279.34,-98.68 132.27,-73.96"/>
<polygon fill="#63b8ff" stroke="#63b8ff" points="132.61,-70.47 122.16,-72.24 131.43,-77.37 132.61,-70.47"/>
</a>
</g>
</g>
<!-- Node4 -->
<g id="Node000004" class="node">
<title>Node4</title>
<g id="a_Node000004"><a xlink:title=" ">
<polygon fill="#e0e0e0" stroke="#999999" points="193.5,-74 140.5,-74 140.5,-55 193.5,-55 193.5,-74"/>
<text text-anchor="middle" x="167" y="-62" font-family="Inter" font-size="10.00">string.h</text>
</a>
</g>
</g>
<!-- Node1&#45;&gt;Node4 -->
<g id="edge3_Node000001_Node000004" class="edge">
<title>Node1&#45;&gt;Node4</title>
<g id="a_edge3_Node000001_Node000004"><a xlink:title=" ">
<path fill="none" stroke="#63b8ff" d="M530.95,-113.45C453.45,-107.19 323.84,-94.92 203.78,-74.12"/>
<polygon fill="#63b8ff" stroke="#63b8ff" points="204.13,-70.63 193.68,-72.35 202.92,-77.53 204.13,-70.63"/>
</a>
</g>
</g>
<!-- Node5 -->
<g id="Node000005" class="node">
<title>Node5</title>
<g id="a_Node000005"><a xlink:title=" ">
<polygon fill="#e0e0e0" stroke="#999999" points="276.5,-74 211.5,-74 211.5,-55 276.5,-55 276.5,-74"/>
<text text-anchor="middle" x="244" y="-62" font-family="Inter" font-size="10.00">sys/time.h</text>
</a>
</g>
</g>
<!-- Node1&#45;&gt;Node5 -->
<g id="edge4_Node000001_Node000005" class="edge">
<title>Node1&#45;&gt;Node5</title>
<g id="a_edge4_Node000001_Node000005"><a xlink:title=" ">
<path fill="none" stroke="#63b8ff" d="M530.98,-110.04C469.34,-102.19 376.35,-89.63 286.7,-74.21"/>
<polygon fill="#63b8ff" stroke="#63b8ff" points="287.09,-70.72 276.64,-72.46 285.89,-77.62 287.09,-70.72"/>
</a>
</g>
</g>
<!-- Node6 -->
<g id="Node000006" class="node">
<title>Node6</title>
<g id="a_Node000006"><a xlink:title=" ">
<polygon fill="#e0e0e0" stroke="#999999" points="363.5,-74 294.5,-74 294.5,-55 363.5,-55 363.5,-74"/>
<text text-anchor="middle" x="329" y="-62" font-family="Inter" font-size="10.00">sys/types.h</text>
</a>
</g>
</g>
<!-- Node1&#45;&gt;Node6 -->
<g id="edge5_Node000001_Node000006" class="edge">
<title>Node1&#45;&gt;Node6</title>
<g id="a_edge5_Node000001_Node000006"><a xlink:title=" ">
<path fill="none" stroke="#63b8ff" d="M556.46,-109.98C506.35,-100.18 424.46,-84.17 373.82,-74.27"/>
<polygon fill="#63b8ff" stroke="#63b8ff" points="374.3,-70.79 363.82,-72.31 372.96,-77.66 374.3,-70.79"/>
</a>
</g>
</g>
<!-- Node7 -->
<g id="Node000007" class="node">
<title>Node7</title>
<g id="a_Node000007"><a xlink:title=" ">
<polygon fill="#e0e0e0" stroke="#999999" points="444,-74 382,-74 382,-55 444,-55 444,-74"/>
<text text-anchor="middle" x="413" y="-62" font-family="Inter" font-size="10.00">sys/wait.h</text>
</a>
</g>
</g>
<!-- Node1&#45;&gt;Node7 -->
<g id="edge6_Node000001_Node000007" class="edge">
<title>Node1&#45;&gt;Node7</title>
<g id="a_edge6_Node000001_Node000007"><a xlink:title=" ">
<path fill="none" stroke="#63b8ff" d="M569.96,-109.98C538.29,-101.01 488.23,-86.82 453.19,-76.89"/>
<polygon fill="#63b8ff" stroke="#63b8ff" points="453.86,-73.44 443.28,-74.08 451.95,-80.18 453.86,-73.44"/>
</a>
</g>
</g>
<!-- Node8 -->
<g id="Node000008" class="node">
<title>Node8</title>
<g id="a_Node000008"><a xlink:title=" ">
<polygon fill="#e0e0e0" stroke="#999999" points="516,-74 462,-74 462,-55 516,-55 516,-74"/>
<text text-anchor="middle" x="489" y="-62" font-family="Inter" font-size="10.00">unistd.h</text>
</a>
</g>
</g>
<!-- Node1&#45;&gt;Node8 -->
<g id="edge7_Node000001_Node000008" class="edge">
<title>Node1&#45;&gt;Node8</title>
<g id="a_edge7_Node000001_Node000008"><a xlink:title=" ">
<path fill="none" stroke="#63b8ff" d="M582.17,-109.98C564.39,-101.5 536.85,-88.35 516.32,-78.54"/>
<polygon fill="#63b8ff" stroke="#63b8ff" points="517.69,-75.32 507.16,-74.17 514.67,-81.64 517.69,-75.32"/>
</a>
</g>
</g>
<!-- Node9 -->
<g id="Node000009" class="node">
<title>Node9</title>
<g id="a_Node000009"><a xlink:title=" ">
<polygon fill="#e0e0e0" stroke="#999999" points="586,-74 534,-74 534,-55 586,-55 586,-74"/>
<text text-anchor="middle" x="560" y="-62" font-family="Inter" font-size="10.00">signal.h</text>
</a>
</g>
</g>
<!-- Node1&#45;&gt;Node9 -->
<g id="edge8_Node000001_Node000009" class="edge">
<title>Node1&#45;&gt;Node9</title>
<g id="a_edge8_Node000001_Node000009"><a xlink:title=" ">
<path fill="none" stroke="#63b8ff" d="M593.39,-109.75C587.74,-102.26 579.46,-91.28 572.55,-82.13"/>
<polygon fill="#63b8ff" stroke="#63b8ff" points="575.3,-79.96 566.48,-74.09 569.71,-84.18 575.3,-79.96"/>
</a>
</g>
</g>
<!-- Node10 -->
<g id="Node000010" class="node">
<title>Node10</title>
<g id="a_Node000010"><a xlink:title=" ">
<polygon fill="#e0e0e0" stroke="#999999" points="676,-74 604,-74 604,-55 676,-55 676,-74"/>
<text text-anchor="middle" x="640" y="-62" font-family="Inter" font-size="10.00">glib/gi18n.h</text>
</a>
</g>
</g>
<!-- Node1&#45;&gt;Node10 -->
<g id="edge9_Node000001_Node000010" class="edge">
<title>Node1&#45;&gt;Node10</title>
<g id="a_edge9_Node000001_Node000010"><a xlink:title=" ">
<path fill="none" stroke="#63b8ff" d="M606.61,-109.75C612.26,-102.26 620.54,-91.28 627.45,-82.13"/>
<polygon fill="#63b8ff" stroke="#63b8ff" points="630.29,-84.18 633.52,-74.09 624.7,-79.96 630.29,-84.18"/>
</a>
</g>
</g>
<!-- Node11 -->
<g id="Node000011" class="node">
<title>Node11</title>
<g id="a_Node000011"><a xlink:title=" ">
<polygon fill="#e0e0e0" stroke="#999999" points="763.5,-74 694.5,-74 694.5,-55 763.5,-55 763.5,-74"/>
<text text-anchor="middle" x="729" y="-62" font-family="Inter" font-size="10.00">gdk/gdkx.h</text>
</a>
</g>
</g>
<!-- Node1&#45;&gt;Node11 -->
<g id="edge10_Node000001_Node000011" class="edge">
<title>Node1&#45;&gt;Node11</title>
<g id="a_edge10_Node000001_Node000011"><a xlink:title=" ">
<path fill="none" stroke="#63b8ff" d="M620.73,-109.98C641.76,-101.34 674.55,-87.87 698.54,-78.02"/>
<polygon fill="#63b8ff" stroke="#63b8ff" points="699.98,-81.21 707.9,-74.17 697.32,-74.73 699.98,-81.21"/>
</a>
</g>
</g>
<!-- Node12 -->
<g id="Node000012" class="node">
<title>Node12</title>
<g id="a_Node000012"><a xlink:title=" ">
<polygon fill="#e0e0e0" stroke="#999999" points="840.5,-74 781.5,-74 781.5,-55 840.5,-55 840.5,-74"/>
<text text-anchor="middle" x="811" y="-62" font-family="Inter" font-size="10.00">gtk/gtk.h</text>
</a>
</g>
</g>
<!-- Node1&#45;&gt;Node12 -->
<g id="edge11_Node000001_Node000012" class="edge">
<title>Node1&#45;&gt;Node12</title>
<g id="a_edge11_Node000001_Node000012"><a xlink:title=" ">
<path fill="none" stroke="#63b8ff" d="M633.9,-109.98C671.41,-100.56 731.78,-85.4 771.42,-75.44"/>
<polygon fill="#63b8ff" stroke="#63b8ff" points="772.43,-78.8 781.28,-72.97 770.72,-72.01 772.43,-78.8"/>
</a>
</g>
</g>
<!-- Node13 -->
<g id="Node000013" class="node">
<title>Node13</title>
<g id="a_Node000013"><a xlink:title=" ">
<polygon fill="#e0e0e0" stroke="#999999" points="923.5,-74 858.5,-74 858.5,-55 923.5,-55 923.5,-74"/>
<text text-anchor="middle" x="891" y="-62" font-family="Inter" font-size="10.00">gtk/gtkx.h</text>
</a>
</g>
</g>
<!-- Node1&#45;&gt;Node13 -->
<g id="edge12_Node000001_Node000013" class="edge">
<title>Node1&#45;&gt;Node13</title>
<g id="a_edge12_Node000001_Node000013"><a xlink:title=" ">
<path fill="none" stroke="#63b8ff" d="M649.67,-109.97C697.81,-101.62 773.16,-88.35 848.33,-74.09"/>
<polygon fill="#63b8ff" stroke="#63b8ff" points="849.29,-77.47 858.46,-72.16 847.98,-70.59 849.29,-77.47"/>
</a>
</g>
</g>
<!-- Node14 -->
<g id="Node000014" class="node">
<title>Node14</title>
<g id="a_Node000014"><a xlink:href="gs-lock-plug_8h.html" target="_top" xlink:title=" ">
<polygon fill="white" stroke="#666666" points="1022,-74 942,-74 942,-55 1022,-55 1022,-74"/>
<text text-anchor="middle" x="982" y="-62" font-family="Inter" font-size="10.00">gs&#45;lock&#45;plug.h</text>
</a>
</g>
</g>
<!-- Node1&#45;&gt;Node14 -->
<g id="edge13_Node000001_Node000014" class="edge">
<title>Node1&#45;&gt;Node14</title>
<g id="a_edge13_Node000001_Node000014"><a xlink:title=" ">
<path fill="none" stroke="#63b8ff" d="M668.77,-110C735.98,-101.52 841.16,-87.81 932,-74 932.1,-73.98 932.2,-73.97 932.3,-73.95"/>
<polygon fill="#63b8ff" stroke="#63b8ff" points="932.57,-77.46 941.9,-72.44 931.48,-70.54 932.57,-77.46"/>
</a>
</g>
</g>
<!-- Node16 -->
<g id="Node000016" class="node">
<title>Node16</title>
<g id="a_Node000016"><a xlink:href="gs-auth_8h.html" target="_top" xlink:title=" ">
<polygon fill="white" stroke="#666666" points="1100,-74 1040,-74 1040,-55 1100,-55 1100,-74"/>
<text text-anchor="middle" x="1070" y="-62" font-family="Inter" font-size="10.00">gs&#45;auth.h</text>
</a>
</g>
</g>
<!-- Node1&#45;&gt;Node16 -->
<g id="edge15_Node000001_Node000016" class="edge">
<title>Node1&#45;&gt;Node16</title>
<g id="a_edge15_Node000001_Node000016"><a xlink:title=" ">
<path fill="none" stroke="#63b8ff" d="M669.36,-113.74C752.7,-107.48 896.91,-94.94 1029.87,-74.01"/>
<polygon fill="#63b8ff" stroke="#63b8ff" points="1030.5,-77.45 1039.83,-72.42 1029.4,-70.54 1030.5,-77.45"/>
</a>
</g>
</g>
<!-- Node17 -->
<g id="Node000017" class="node">
<title>Node17</title>
<g id="a_Node000017"><a xlink:href="setuid_8h.html" target="_top" xlink:title=" ">
<polygon fill="white" stroke="#666666" points="1172,-74 1118,-74 1118,-55 1172,-55 1172,-74"/>
<text text-anchor="middle" x="1145" y="-62" font-family="Inter" font-size="10.00">setuid.h</text>
</a>
</g>
</g>
<!-- Node1&#45;&gt;Node17 -->
<g id="edge17_Node000001_Node000017" class="edge">
<title>Node1&#45;&gt;Node17</title>
<g id="a_edge17_Node000001_Node000017"><a xlink:title=" ">
<path fill="none" stroke="#63b8ff" d="M669.13,-115.63C765.39,-110.93 945.32,-99.6 1107.78,-73.96"/>
<polygon fill="#63b8ff" stroke="#63b8ff" points="1108.64,-77.36 1117.96,-72.33 1107.53,-70.45 1108.64,-77.36"/>
</a>
</g>
</g>
<!-- Node18 -->
<g id="Node000018" class="node">
<title>Node18</title>
<g id="a_Node000018"><a xlink:href="gs-debug_8h.html" target="_top" xlink:title=" ">
<polygon fill="white" stroke="#666666" points="1259.5,-74 1190.5,-74 1190.5,-55 1259.5,-55 1259.5,-74"/>
<text text-anchor="middle" x="1225" y="-62" font-family="Inter" font-size="10.00">gs&#45;debug.h</text>
</a>
</g>
</g>
<!-- Node1&#45;&gt;Node18 -->
<g id="edge19_Node000001_Node000018" class="edge">
<title>Node1&#45;&gt;Node18</title>
<g id="a_edge19_Node000001_Node000018"><a xlink:title=" ">
<path fill="none" stroke="#63b8ff" d="M669.13,-115.77C776.41,-110.96 989.58,-99.15 1180.53,-73.89"/>
<polygon fill="#63b8ff" stroke="#63b8ff" points="1181.03,-77.35 1190.47,-72.56 1180.1,-70.41 1181.03,-77.35"/>
</a>
</g>
</g>
<!-- Node15 -->
<g id="Node000015" class="node">
<title>Node15</title>
<g id="a_Node000015"><a xlink:title=" ">
<polygon fill="#e0e0e0" stroke="#999999" points="1129,-19 1087,-19 1087,0 1129,0 1129,-19"/>
<text text-anchor="middle" x="1108" y="-7" font-family="Inter" font-size="10.00">glib.h</text>
</a>
</g>
</g>
<!-- Node14&#45;&gt;Node15 -->
<g id="edge14_Node000014_Node000015" class="edge">
<title>Node14&#45;&gt;Node15</title>
<g id="a_edge14_Node000014_Node000015"><a xlink:title=" ">
<path fill="none" stroke="#63b8ff" d="M1002.24,-54.98C1022.7,-46.38 1054.53,-32.99 1077.93,-23.15"/>
<polygon fill="#63b8ff" stroke="#63b8ff" points="1079.53,-26.27 1087.39,-19.17 1076.81,-19.82 1079.53,-26.27"/>
</a>
</g>
</g>
<!-- Node16&#45;&gt;Node15 -->
<g id="edge16_Node000016_Node000015" class="edge">
<title>Node16&#45;&gt;Node15</title>
<g id="a_edge16_Node000016_Node000015"><a xlink:title=" ">
<path fill="none" stroke="#63b8ff" d="M1076.27,-54.75C1081.59,-47.34 1089.36,-36.5 1095.88,-27.41"/>
<polygon fill="#63b8ff" stroke="#63b8ff" points="1098.86,-29.26 1101.84,-19.09 1093.17,-25.18 1098.86,-29.26"/>
</a>
</g>
</g>
<!-- Node17&#45;&gt;Node15 -->
<g id="edge18_Node000017_Node000015" class="edge">
<title>Node17&#45;&gt;Node15</title>
<g id="a_edge18_Node000017_Node000015"><a xlink:title=" ">
<path fill="none" stroke="#63b8ff" d="M1138.89,-54.75C1133.72,-47.34 1126.15,-36.5 1119.81,-27.41"/>
<polygon fill="#63b8ff" stroke="#63b8ff" points="1122.59,-25.29 1114,-19.09 1116.85,-29.29 1122.59,-25.29"/>
</a>
</g>
</g>
<!-- Node18&#45;&gt;Node15 -->
<g id="edge21_Node000018_Node000015" class="edge">
<title>Node18&#45;&gt;Node15</title>
<g id="a_edge21_Node000018_Node000015"><a xlink:title=" ">
<path fill="none" stroke="#63b8ff" d="M1206.2,-54.98C1187.38,-46.46 1158.18,-33.23 1136.5,-23.41"/>
<polygon fill="#63b8ff" stroke="#63b8ff" points="1137.69,-20.11 1127.14,-19.17 1134.8,-26.48 1137.69,-20.11"/>
</a>
</g>
</g>
<!-- Node19 -->
<g id="Node000019" class="node">
<title>Node19</title>
<g id="a_Node000019"><a xlink:title=" ">
<polygon fill="#e0e0e0" stroke="#999999" points="1252.5,-19 1197.5,-19 1197.5,0 1252.5,0 1252.5,-19"/>
<text text-anchor="middle" x="1225" y="-7" font-family="Inter" font-size="10.00">stdarg.h</text>
</a>
</g>
</g>
<!-- Node18&#45;&gt;Node19 -->
<g id="edge20_Node000018_Node000019" class="edge">
<title>Node18&#45;&gt;Node19</title>
<g id="a_edge20_Node000018_Node000019"><a xlink:title=" ">
<path fill="none" stroke="#63b8ff" d="M1225,-54.75C1225,-47.8 1225,-37.85 1225,-29.13"/>
<polygon fill="#63b8ff" stroke="#63b8ff" points="1228.5,-29.09 1225,-19.09 1221.5,-29.09 1228.5,-29.09"/>
</a>
</g>
</g>
</g>
</svg>
