<?xml version="1.0" encoding="UTF-8" standalone="no"?>
<!DOCTYPE svg PUBLIC "-//W3C//DTD SVG 1.1//EN"
 "http://www.w3.org/Graphics/SVG/1.1/DTD/svg11.dtd">
<!-- Generated by graphviz version 2.43.0 (0)
 -->
<!-- Title: mate&#45;image&#45;menu&#45;item.h Pages: 1 -->
<!--zoomable 148 -->

<svg id="main" version="1.1" xmlns="http://www.w3.org/2000/svg" xmlns:xlink="http://www.w3.org/1999/xlink" xml:space="preserve" onload="init(evt)">

<style type="text/css"><![CDATA[
.node, .edge {opacity: 0.7;}
.node.selected, .edge.selected {opacity: 1;}
.edge:hover path { stroke: red; }
.edge:hover polygon { stroke: red; fill: red; }
]]></style>

<defs>
  <circle id="rim" cx="0" cy="0" r="7"/>
  <circle id="rim2" cx="0" cy="0" r="3.5"/>
  <g id="zoomPlus">
    <use xlink:href="#rim" fill="#404040"><set attributeName="fill" to="#808080" begin="zoomplus.mouseover" end="zoomplus.mouseout"/></use>
    <path d="M-4,0h8M0,-4v8" fill="none" stroke="white" stroke-width="1.5" pointer-events="none"/>
  </g>
  <g id="zoomMin">
    <use xlink:href="#rim" fill="#404040"><set attributeName="fill" to="#808080" begin="zoomminus.mouseover" end="zoomminus.mouseout"/></use>
    <path d="M-4,0h8" fill="none" stroke="white" stroke-width="1.5" pointer-events="none"/>
  </g>
  <g id="arrowUp" transform="translate(30 24)">
    <use xlink:href="#rim"/>
    <path pointer-events="none" fill="none" stroke="white" stroke-width="1.5" d="M0,-3.0v7 M-2.5,-0.5L0,-3.0L2.5,-0.5"/>
  </g>
  <g id="arrowRight" transform="rotate(90) translate(36 -43)">
    <use xlink:href="#rim"/>
    <path pointer-events="none" fill="none" stroke="white" stroke-width="1.5" d="M0,-3.0v7 M-2.5,-0.5L0,-3.0L2.5,-0.5"/>
  </g>
  <g id="arrowDown" transform="rotate(180) translate(-30 -48)">
    <use xlink:href="#rim"/>
    <path pointer-events="none" fill="none" stroke="white" stroke-width="1.5" d="M0,-3.0v7 M-2.5,-0.5L0,-3.0L2.5,-0.5"/>
  </g>
  <g id="arrowLeft" transform="rotate(270) translate(-36 17)">
    <use xlink:href="#rim"/>
    <path pointer-events="none" fill="none" stroke="white" stroke-width="1.5" d="M0,-3.0v7 M-2.5,-0.5L0,-3.0L2.5,-0.5"/>
  </g>
  <g id="resetDef">
    <use xlink:href="#rim2" fill="#404040"><set attributeName="fill" to="#808080" begin="reset.mouseover" end="reset.mouseout"/></use>
  </g>
</defs>
<script type="application/ecmascript">
var viewWidth = 2788;
var viewHeight = 148;
var sectionId = 'dynsection-1';
</script>
<script type="application/ecmascript" xlink:href="svg.min.js"/>
<svg id="graph" class="graph">
<g id="viewport">
<title>mate&#45;image&#45;menu&#45;item.h</title>
<!-- Node1 -->
<g id="Node000001" class="node">
<title>Node1</title>
<g id="a_Node000001"><a xlink:title=" ">
<polygon fill="#999999" stroke="#666666" points="1825.5,-140 1690.5,-140 1690.5,-121 1825.5,-121 1825.5,-140"/>
<text text-anchor="middle" x="1758" y="-128" font-family="Inter" font-size="10.00">mate&#45;image&#45;menu&#45;item.h</text>
</a>
</g>
</g>
<!-- Node2 -->
<g id="Node000002" class="node">
<title>Node2</title>
<g id="a_Node000002"><a xlink:href="appearance_8h.html" target="_top" xlink:title=" ">
<polygon fill="white" stroke="#666666" points="708,-79.5 628,-79.5 628,-60.5 708,-60.5 708,-79.5"/>
<text text-anchor="middle" x="668" y="-67.5" font-family="Inter" font-size="10.00">appearance.h</text>
</a>
</g>
</g>
<!-- Node1&#45;&gt;Node2 -->
<g id="edge1_Node000001_Node000002" class="edge">
<title>Node1&#45;&gt;Node2</title>
<g id="a_edge1_Node000001_Node000002"><a xlink:title=" ">
<path fill="none" stroke="#63b8ff" d="M1680.01,-128.54C1471.1,-125.6 902.26,-114.99 717,-85 709.31,-83.76 701.12,-81.71 693.68,-79.57"/>
<polygon fill="#63b8ff" stroke="#63b8ff" points="1680.23,-132.05 1690.27,-128.69 1680.32,-125.05 1680.23,-132.05"/>
</a>
</g>
</g>
<!-- Node15 -->
<g id="Node000015" class="node">
<title>Node15</title>
<g id="a_Node000015"><a xlink:href="baobab-utils_8c.html" target="_top" xlink:title=" ">
<polygon fill="white" stroke="#666666" points="806,-79.5 726,-79.5 726,-60.5 806,-60.5 806,-79.5"/>
<text text-anchor="middle" x="766" y="-67.5" font-family="Inter" font-size="10.00">baobab&#45;utils.c</text>
</a>
</g>
</g>
<!-- Node1&#45;&gt;Node15 -->
<g id="edge14_Node000001_Node000015" class="edge">
<title>Node1&#45;&gt;Node15</title>
<g id="a_edge14_Node000001_Node000015"><a xlink:title=" ">
<path fill="none" stroke="#63b8ff" d="M1680.25,-128.14C1485.54,-124.37 980.74,-112.21 815,-85 807.32,-83.74 799.13,-81.69 791.68,-79.54"/>
<polygon fill="#63b8ff" stroke="#63b8ff" points="1680.34,-131.65 1690.4,-128.34 1680.47,-124.65 1680.34,-131.65"/>
</a>
</g>
</g>
<!-- Node16 -->
<g id="Node000016" class="node">
<title>Node16</title>
<g id="a_Node000016"><a xlink:href="baobab_8c.html" target="_top" xlink:title=" ">
<polygon fill="white" stroke="#666666" points="883.5,-79.5 824.5,-79.5 824.5,-60.5 883.5,-60.5 883.5,-79.5"/>
<text text-anchor="middle" x="854" y="-67.5" font-family="Inter" font-size="10.00">baobab.c</text>
</a>
</g>
</g>
<!-- Node1&#45;&gt;Node16 -->
<g id="edge15_Node000001_Node000016" class="edge">
<title>Node1&#45;&gt;Node16</title>
<g id="a_edge15_Node000001_Node000016"><a xlink:title=" ">
<path fill="none" stroke="#63b8ff" d="M1680.36,-128.5C1497.03,-125.65 1041.45,-115.63 892,-85 885.94,-83.76 879.55,-81.72 873.79,-79.57"/>
<polygon fill="#63b8ff" stroke="#63b8ff" points="1680.41,-132 1690.47,-128.65 1680.52,-125 1680.41,-132"/>
</a>
</g>
</g>
<!-- Node17 -->
<g id="Node000017" class="node">
<title>Node17</title>
<g id="a_Node000017"><a xlink:href="drive-button_8c.html" target="_top" xlink:title=" ">
<polygon fill="white" stroke="#666666" points="984.5,-79.5 901.5,-79.5 901.5,-60.5 984.5,-60.5 984.5,-79.5"/>
<text text-anchor="middle" x="943" y="-67.5" font-family="Inter" font-size="10.00">drive&#45;button.c</text>
</a>
</g>
</g>
<!-- Node1&#45;&gt;Node17 -->
<g id="edge16_Node000001_Node000017" class="edge">
<title>Node1&#45;&gt;Node17</title>
<g id="a_edge16_Node000001_Node000017"><a xlink:title=" ">
<path fill="none" stroke="#63b8ff" d="M1680.16,-130.33C1541.34,-130.61 1242.29,-125.84 994,-85 986.12,-83.7 977.7,-81.67 970.03,-79.55"/>
<polygon fill="#63b8ff" stroke="#63b8ff" points="1680.29,-133.83 1690.28,-130.3 1680.27,-126.83 1680.29,-133.83"/>
</a>
</g>
</g>
<!-- Node18 -->
<g id="Node000018" class="node">
<title>Node18</title>
<g id="a_Node000018"><a xlink:href="ev-navigation-action_8c.html" target="_top" xlink:title=" ">
<polygon fill="white" stroke="#666666" points="1119,-79.5 1003,-79.5 1003,-60.5 1119,-60.5 1119,-79.5"/>
<text text-anchor="middle" x="1061" y="-67.5" font-family="Inter" font-size="10.00">ev&#45;navigation&#45;action.c</text>
</a>
</g>
</g>
<!-- Node1&#45;&gt;Node18 -->
<g id="edge17_Node000001_Node000018" class="edge">
<title>Node1&#45;&gt;Node18</title>
<g id="a_edge17_Node000001_Node000018"><a xlink:title=" ">
<path fill="none" stroke="#63b8ff" d="M1679.95,-127.39C1560.55,-123.39 1325.6,-112.49 1128,-85 1118,-83.61 1107.25,-81.6 1097.35,-79.53"/>
<polygon fill="#63b8ff" stroke="#63b8ff" points="1679.98,-130.89 1690.09,-127.72 1680.21,-123.89 1679.98,-130.89"/>
</a>
</g>
</g>
<!-- Node19 -->
<g id="Node000019" class="node">
<title>Node19</title>
<g id="a_Node000019"><a xlink:href="ev-sidebar-links_8c.html" target="_top" xlink:title=" ">
<polygon fill="white" stroke="#666666" points="1232.5,-79.5 1137.5,-79.5 1137.5,-60.5 1232.5,-60.5 1232.5,-79.5"/>
<text text-anchor="middle" x="1185" y="-67.5" font-family="Inter" font-size="10.00">ev&#45;sidebar&#45;links.c</text>
</a>
</g>
</g>
<!-- Node1&#45;&gt;Node19 -->
<g id="edge18_Node000001_Node000019" class="edge">
<title>Node1&#45;&gt;Node19</title>
<g id="a_edge18_Node000001_Node000019"><a xlink:title=" ">
<path fill="none" stroke="#63b8ff" d="M1680.22,-126.55C1578.81,-121.84 1396.18,-110.42 1242,-85 1233.45,-83.59 1224.3,-81.57 1215.88,-79.51"/>
<polygon fill="#63b8ff" stroke="#63b8ff" points="1680.23,-130.05 1690.38,-127.01 1680.55,-123.06 1680.23,-130.05"/>
</a>
</g>
</g>
<!-- Node20 -->
<g id="Node000020" class="node">
<title>Node20</title>
<g id="a_Node000020"><a xlink:href="ev-sidebar_8c.html" target="_top" xlink:title=" ">
<polygon fill="white" stroke="#666666" points="1321,-79.5 1251,-79.5 1251,-60.5 1321,-60.5 1321,-79.5"/>
<text text-anchor="middle" x="1286" y="-67.5" font-family="Inter" font-size="10.00">ev&#45;sidebar.c</text>
</a>
</g>
</g>
<!-- Node1&#45;&gt;Node20 -->
<g id="edge19_Node000001_Node000020" class="edge">
<title>Node1&#45;&gt;Node20</title>
<g id="a_edge19_Node000001_Node000020"><a xlink:title=" ">
<path fill="none" stroke="#63b8ff" d="M1680.01,-126.18C1593.66,-121.4 1450.69,-110.2 1330,-85 1323.41,-83.62 1316.41,-81.64 1309.97,-79.6"/>
<polygon fill="#63b8ff" stroke="#63b8ff" points="1680.08,-129.69 1690.25,-126.73 1680.46,-122.7 1680.08,-129.69"/>
</a>
</g>
</g>
<!-- Node21 -->
<g id="Node000021" class="node">
<title>Node21</title>
<g id="a_Node000021"><a xlink:href="gdict-sidebar_8c.html" target="_top" xlink:title=" ">
<polygon fill="white" stroke="#666666" points="1421,-79.5 1339,-79.5 1339,-60.5 1421,-60.5 1421,-79.5"/>
<text text-anchor="middle" x="1380" y="-67.5" font-family="Inter" font-size="10.00">gdict&#45;sidebar.c</text>
</a>
</g>
</g>
<!-- Node1&#45;&gt;Node21 -->
<g id="edge20_Node000001_Node000021" class="edge">
<title>Node1&#45;&gt;Node21</title>
<g id="a_edge20_Node000001_Node000021"><a xlink:title=" ">
<path fill="none" stroke="#63b8ff" d="M1680.3,-122.02C1613.51,-114.86 1514.84,-102.55 1430,-85 1422.76,-83.5 1415.03,-81.53 1407.86,-79.54"/>
<polygon fill="#63b8ff" stroke="#63b8ff" points="1680.01,-125.51 1690.32,-123.08 1680.75,-118.55 1680.01,-125.51"/>
</a>
</g>
</g>
<!-- Node22 -->
<g id="Node000022" class="node">
<title>Node22</title>
<g id="a_Node000022"><a xlink:href="gpm-tray-icon_8c.html" target="_top" xlink:title=" ">
<polygon fill="white" stroke="#666666" points="1527,-79.5 1439,-79.5 1439,-60.5 1527,-60.5 1527,-79.5"/>
<text text-anchor="middle" x="1483" y="-67.5" font-family="Inter" font-size="10.00">gpm&#45;tray&#45;icon.c</text>
</a>
</g>
</g>
<!-- Node1&#45;&gt;Node22 -->
<g id="edge21_Node000001_Node000022" class="edge">
<title>Node1&#45;&gt;Node22</title>
<g id="a_edge21_Node000001_Node000022"><a xlink:title=" ">
<path fill="none" stroke="#63b8ff" d="M1701.19,-119.09C1656.22,-110.62 1591.89,-97.97 1536,-85 1528.86,-83.34 1521.22,-81.42 1514.03,-79.53"/>
<polygon fill="#63b8ff" stroke="#63b8ff" points="1700.57,-122.54 1711.05,-120.94 1701.87,-115.66 1700.57,-122.54"/>
</a>
</g>
</g>
<!-- Node23 -->
<g id="Node000023" class="node">
<title>Node23</title>
<g id="a_Node000023"><a xlink:href="gvc-stream-status-icon_8c.html" target="_top" xlink:title=" ">
<polygon fill="white" stroke="#666666" points="1673,-79.5 1545,-79.5 1545,-60.5 1673,-60.5 1673,-79.5"/>
<text text-anchor="middle" x="1609" y="-67.5" font-family="Inter" font-size="10.00">gvc&#45;stream&#45;status&#45;icon.c</text>
</a>
</g>
</g>
<!-- Node1&#45;&gt;Node23 -->
<g id="edge22_Node000001_Node000023" class="edge">
<title>Node1&#45;&gt;Node23</title>
<g id="a_edge22_Node000001_Node000023"><a xlink:title=" ">
<path fill="none" stroke="#63b8ff" d="M1726.75,-117.23C1697.95,-105.92 1655.97,-89.44 1630.69,-79.52"/>
<polygon fill="#63b8ff" stroke="#63b8ff" points="1725.75,-120.6 1736.33,-120.99 1728.3,-114.08 1725.75,-120.6"/>
</a>
</g>
</g>
<!-- Node24 -->
<g id="Node000024" class="node">
<title>Node24</title>
<g id="a_Node000024"><a xlink:href="mate-image-menu-item_8c.html" target="_top" xlink:title=" ">
<polygon fill="white" stroke="#666666" points="1825,-79.5 1691,-79.5 1691,-60.5 1825,-60.5 1825,-79.5"/>
<text text-anchor="middle" x="1758" y="-67.5" font-family="Inter" font-size="10.00">mate&#45;image&#45;menu&#45;item.c</text>
</a>
</g>
</g>
<!-- Node1&#45;&gt;Node24 -->
<g id="edge23_Node000001_Node000024" class="edge">
<title>Node1&#45;&gt;Node24</title>
<g id="a_edge23_Node000001_Node000024"><a xlink:title=" ">
<path fill="none" stroke="#63b8ff" d="M1758,-110.66C1758,-100.24 1758,-87.8 1758,-79.67"/>
<polygon fill="#63b8ff" stroke="#63b8ff" points="1754.5,-110.87 1758,-120.87 1761.5,-110.87 1754.5,-110.87"/>
</a>
</g>
</g>
<!-- Node25 -->
<g id="Node000025" class="node">
<title>Node25</title>
<g id="a_Node000025"><a xlink:href="marco_2src_2ui_2menu_8c.html" target="_top" xlink:title=" ">
<polygon fill="white" stroke="#666666" points="1894.5,-79.5 1843.5,-79.5 1843.5,-60.5 1894.5,-60.5 1894.5,-79.5"/>
<text text-anchor="middle" x="1869" y="-67.5" font-family="Inter" font-size="10.00">menu.c</text>
</a>
</g>
</g>
<!-- Node1&#45;&gt;Node25 -->
<g id="edge24_Node000001_Node000025" class="edge">
<title>Node1&#45;&gt;Node25</title>
<g id="a_edge24_Node000001_Node000025"><a xlink:title=" ">
<path fill="none" stroke="#63b8ff" d="M1783.47,-116.08C1804.71,-104.88 1834.33,-89.27 1852.55,-79.67"/>
<polygon fill="#63b8ff" stroke="#63b8ff" points="1781.59,-113.11 1774.38,-120.87 1784.86,-119.3 1781.59,-113.11"/>
</a>
</g>
</g>
<!-- Node26 -->
<g id="Node000026" class="node">
<title>Node26</title>
<g id="a_Node000026"><a xlink:href="mate-panel_2mate-panel_2menu_8c.html" target="_top" xlink:title=" ">
<polygon fill="white" stroke="#666666" points="1944.5,-19 1893.5,-19 1893.5,0 1944.5,0 1944.5,-19"/>
<text text-anchor="middle" x="1919" y="-7" font-family="Inter" font-size="10.00">menu.c</text>
</a>
</g>
</g>
<!-- Node1&#45;&gt;Node26 -->
<g id="edge25_Node000001_Node000026" class="edge">
<title>Node1&#45;&gt;Node26</title>
<g id="a_edge25_Node000001_Node000026"><a xlink:title=" ">
<path fill="none" stroke="#63b8ff" d="M1835.59,-121.3C1860.22,-114.99 1885.56,-104.02 1903,-85 1919.99,-66.48 1920.57,-34.41 1919.75,-19.11"/>
<polygon fill="#63b8ff" stroke="#63b8ff" points="1834.79,-117.9 1825.84,-123.57 1836.38,-124.71 1834.79,-117.9"/>
</a>
</g>
</g>
<!-- Node27 -->
<g id="Node000027" class="node">
<title>Node27</title>
<g id="a_Node000027"><a xlink:href="msd-keyboard-xkb_8c.html" target="_top" xlink:title=" ">
<polygon fill="white" stroke="#666666" points="2264.5,-79.5 2155.5,-79.5 2155.5,-60.5 2264.5,-60.5 2264.5,-79.5"/>
<text text-anchor="middle" x="2210" y="-67.5" font-family="Inter" font-size="10.00">msd&#45;keyboard&#45;xkb.c</text>
</a>
</g>
</g>
<!-- Node1&#45;&gt;Node27 -->
<g id="edge26_Node000001_Node000027" class="edge">
<title>Node1&#45;&gt;Node27</title>
<g id="a_edge26_Node000001_Node000027"><a xlink:title=" ">
<path fill="none" stroke="#63b8ff" d="M1835.86,-122.4C1913.44,-114.87 2035.82,-101.75 2141,-85 2150.66,-83.46 2161.02,-81.52 2170.7,-79.57"/>
<polygon fill="#63b8ff" stroke="#63b8ff" points="1835.31,-118.94 1825.69,-123.38 1835.98,-125.9 1835.31,-118.94"/>
</a>
</g>
</g>
<!-- Node28 -->
<g id="Node000028" class="node">
<title>Node28</title>
<g id="a_Node000028"><a xlink:href="panel-menu-bar_8c.html" target="_top" xlink:title=" ">
<polygon fill="white" stroke="#666666" points="2059,-19 1963,-19 1963,0 2059,0 2059,-19"/>
<text text-anchor="middle" x="2011" y="-7" font-family="Inter" font-size="10.00">panel&#45;menu&#45;bar.c</text>
</a>
</g>
</g>
<!-- Node1&#45;&gt;Node28 -->
<g id="edge27_Node000001_Node000028" class="edge">
<title>Node1&#45;&gt;Node28</title>
<g id="a_edge27_Node000001_Node000028"><a xlink:title=" ">
<path fill="none" stroke="#63b8ff" d="M1824.92,-118.9C1856.52,-112.11 1894.02,-101.41 1925,-85 1958.17,-67.43 1989.47,-34.9 2003.41,-19.3"/>
<polygon fill="#63b8ff" stroke="#63b8ff" points="1823.97,-115.52 1814.88,-120.96 1825.38,-122.38 1823.97,-115.52"/>
</a>
</g>
</g>
<!-- Node29 -->
<g id="Node000029" class="node">
<title>Node29</title>
<g id="a_Node000029"><a xlink:href="panel-menu-items_8c.html" target="_top" xlink:title=" ">
<polygon fill="white" stroke="#666666" points="2185,-19 2077,-19 2077,0 2185,0 2185,-19"/>
<text text-anchor="middle" x="2131" y="-7" font-family="Inter" font-size="10.00">panel&#45;menu&#45;items.c</text>
</a>
</g>
</g>
<!-- Node1&#45;&gt;Node29 -->
<g id="edge28_Node000001_Node000029" class="edge">
<title>Node1&#45;&gt;Node29</title>
<g id="a_edge28_Node000001_Node000029"><a xlink:title=" ">
<path fill="none" stroke="#63b8ff" d="M1835.78,-129.16C1926.16,-127.17 2068.04,-118.58 2108,-85 2127.9,-68.28 2130.89,-34.73 2131.14,-19.01"/>
<polygon fill="#63b8ff" stroke="#63b8ff" points="1835.49,-125.67 1825.56,-129.37 1835.63,-132.67 1835.49,-125.67"/>
</a>
</g>
</g>
<!-- Node30 -->
<g id="Node000030" class="node">
<title>Node30</title>
<g id="a_Node000030"><a xlink:href="panel-menu-items_8h.html" target="_top" xlink:title=" ">
<polygon fill="white" stroke="#666666" points="2099,-79.5 1989,-79.5 1989,-60.5 2099,-60.5 2099,-79.5"/>
<text text-anchor="middle" x="2044" y="-67.5" font-family="Inter" font-size="10.00">panel&#45;menu&#45;items.h</text>
</a>
</g>
</g>
<!-- Node1&#45;&gt;Node30 -->
<g id="edge29_Node000001_Node000030" class="edge">
<title>Node1&#45;&gt;Node30</title>
<g id="a_edge29_Node000001_Node000030"><a xlink:title=" ">
<path fill="none" stroke="#63b8ff" d="M1809.52,-118.96C1864.72,-107.67 1951.29,-89.96 2002.36,-79.52"/>
<polygon fill="#63b8ff" stroke="#63b8ff" points="1808.68,-115.56 1799.59,-120.99 1810.09,-122.42 1808.68,-115.56"/>
</a>
</g>
</g>
<!-- Node31 -->
<g id="Node000031" class="node">
<title>Node31</title>
<g id="a_Node000031"><a xlink:href="panel-recent_8c.html" target="_top" xlink:title=" ">
<polygon fill="white" stroke="#666666" points="2365.5,-79.5 2282.5,-79.5 2282.5,-60.5 2365.5,-60.5 2365.5,-79.5"/>
<text text-anchor="middle" x="2324" y="-67.5" font-family="Inter" font-size="10.00">panel&#45;recent.c</text>
</a>
</g>
</g>
<!-- Node1&#45;&gt;Node31 -->
<g id="edge33_Node000001_Node000031" class="edge">
<title>Node1&#45;&gt;Node31</title>
<g id="a_edge33_Node000001_Node000031"><a xlink:title=" ">
<path fill="none" stroke="#63b8ff" d="M1835.91,-127.31C1937.46,-123.43 2120.25,-112.9 2274,-85 2281.54,-83.63 2289.58,-81.63 2296.97,-79.56"/>
<polygon fill="#63b8ff" stroke="#63b8ff" points="1835.6,-123.82 1825.74,-127.69 1835.86,-130.82 1835.6,-123.82"/>
</a>
</g>
</g>
<!-- Node32 -->
<g id="Node000032" class="node">
<title>Node32</title>
<g id="a_Node000032"><a xlink:href="pluma-automatic-spell-checker_8c.html" target="_top" xlink:title=" ">
<polygon fill="white" stroke="#666666" points="2502,-85 2384,-85 2384,-55 2502,-55 2502,-85"/>
<text text-anchor="start" x="2392" y="-73" font-family="Inter" font-size="10.00">pluma&#45;automatic&#45;spell</text>
<text text-anchor="middle" x="2443" y="-62" font-family="Inter" font-size="10.00">&#45;checker.c</text>
</a>
</g>
</g>
<!-- Node1&#45;&gt;Node32 -->
<g id="edge34_Node000001_Node000032" class="edge">
<title>Node1&#45;&gt;Node32</title>
<g id="a_edge34_Node000001_Node000032"><a xlink:title=" ">
<path fill="none" stroke="#63b8ff" d="M1836.19,-127.14C1953.65,-122.86 2182.41,-111.65 2375,-85 2377.87,-84.6 2380.79,-84.16 2383.74,-83.68"/>
<polygon fill="#63b8ff" stroke="#63b8ff" points="1835.73,-123.66 1825.86,-127.51 1835.98,-130.65 1835.73,-123.66"/>
</a>
</g>
</g>
<!-- Node33 -->
<g id="Node000033" class="node">
<title>Node33</title>
<g id="a_Node000033"><a xlink:href="sn-dbus-menu-item_8c.html" target="_top" xlink:title=" ">
<polygon fill="white" stroke="#666666" points="2634,-79.5 2520,-79.5 2520,-60.5 2634,-60.5 2634,-79.5"/>
<text text-anchor="middle" x="2577" y="-67.5" font-family="Inter" font-size="10.00">sn&#45;dbus&#45;menu&#45;item.c</text>
</a>
</g>
</g>
<!-- Node1&#45;&gt;Node33 -->
<g id="edge35_Node000001_Node000033" class="edge">
<title>Node1&#45;&gt;Node33</title>
<g id="a_edge35_Node000001_Node000033"><a xlink:title=" ">
<path fill="none" stroke="#63b8ff" d="M1835.97,-128.74C1973.08,-126.54 2266.09,-118.02 2511,-85 2520.98,-83.65 2531.71,-81.63 2541.55,-79.54"/>
<polygon fill="#63b8ff" stroke="#63b8ff" points="1835.52,-125.24 1825.57,-128.9 1835.62,-132.24 1835.52,-125.24"/>
</a>
</g>
</g>
<!-- Node34 -->
<g id="Node000034" class="node">
<title>Node34</title>
<g id="a_Node000034"><a xlink:href="test-image-menu-item_8c.html" target="_top" xlink:title=" ">
<polygon fill="white" stroke="#666666" points="2780,-79.5 2652,-79.5 2652,-60.5 2780,-60.5 2780,-79.5"/>
<text text-anchor="middle" x="2716" y="-67.5" font-family="Inter" font-size="10.00">test&#45;image&#45;menu&#45;item.c</text>
</a>
</g>
</g>
<!-- Node1&#45;&gt;Node34 -->
<g id="edge36_Node000001_Node000034" class="edge">
<title>Node1&#45;&gt;Node34</title>
<g id="a_edge36_Node000001_Node000034"><a xlink:title=" ">
<path fill="none" stroke="#63b8ff" d="M1836.05,-129.22C1990.64,-127.85 2346.44,-120.72 2643,-85 2654.02,-83.67 2665.87,-81.66 2676.76,-79.57"/>
<polygon fill="#63b8ff" stroke="#63b8ff" points="1835.69,-125.72 1825.72,-129.3 1835.75,-132.72 1835.69,-125.72"/>
</a>
</g>
</g>
<!-- Node3 -->
<g id="Node000003" class="node">
<title>Node3</title>
<g id="a_Node000003"><a xlink:href="appearance-desktop_8c.html" target="_top" xlink:title=" ">
<polygon fill="white" stroke="#666666" points="417.5,-19 298.5,-19 298.5,0 417.5,0 417.5,-19"/>
<text text-anchor="middle" x="358" y="-7" font-family="Inter" font-size="10.00">appearance&#45;desktop.c</text>
</a>
</g>
</g>
<!-- Node2&#45;&gt;Node3 -->
<g id="edge2_Node000002_Node000003" class="edge">
<title>Node2&#45;&gt;Node3</title>
<g id="a_edge2_Node000002_Node000003"><a xlink:title=" ">
<path fill="none" stroke="#63b8ff" d="M617.88,-59.54C558.47,-48.33 460.32,-29.81 403.16,-19.02"/>
<polygon fill="#63b8ff" stroke="#63b8ff" points="617.32,-63 627.79,-61.41 618.61,-56.12 617.32,-63"/>
</a>
</g>
</g>
<!-- Node4 -->
<g id="Node000004" class="node">
<title>Node4</title>
<g id="a_Node000004"><a xlink:href="appearance-font_8c.html" target="_top" xlink:title=" ">
<polygon fill="white" stroke="#666666" points="536.5,-19 435.5,-19 435.5,0 536.5,0 536.5,-19"/>
<text text-anchor="middle" x="486" y="-7" font-family="Inter" font-size="10.00">appearance&#45;font.c</text>
</a>
</g>
</g>
<!-- Node2&#45;&gt;Node4 -->
<g id="edge3_Node000002_Node000004" class="edge">
<title>Node2&#45;&gt;Node4</title>
<g id="a_edge3_Node000002_Node000004"><a xlink:title=" ">
<path fill="none" stroke="#63b8ff" d="M631.65,-57.32C596.45,-46 543.92,-29.12 512.5,-19.02"/>
<polygon fill="#63b8ff" stroke="#63b8ff" points="630.94,-60.77 641.54,-60.49 633.09,-54.1 630.94,-60.77"/>
</a>
</g>
</g>
<!-- Node5 -->
<g id="Node000005" class="node">
<title>Node5</title>
<g id="a_Node000005"><a xlink:href="appearance-main_8c.html" target="_top" xlink:title=" ">
<polygon fill="white" stroke="#666666" points="659,-19 555,-19 555,0 659,0 659,-19"/>
<text text-anchor="middle" x="607" y="-7" font-family="Inter" font-size="10.00">appearance&#45;main.c</text>
</a>
</g>
</g>
<!-- Node2&#45;&gt;Node5 -->
<g id="edge4_Node000002_Node000005" class="edge">
<title>Node2&#45;&gt;Node5</title>
<g id="a_edge4_Node000002_Node000005"><a xlink:title=" ">
<path fill="none" stroke="#63b8ff" d="M651.74,-53.41C640.3,-42.44 625.42,-28.17 616.04,-19.17"/>
<polygon fill="#63b8ff" stroke="#63b8ff" points="649.36,-55.97 659,-60.37 654.2,-50.92 649.36,-55.97"/>
</a>
</g>
</g>
<!-- Node6 -->
<g id="Node000006" class="node">
<title>Node6</title>
<g id="a_Node000006"><a xlink:href="appearance-style_8c.html" target="_top" xlink:title=" ">
<polygon fill="white" stroke="#666666" points="780.5,-19 677.5,-19 677.5,0 780.5,0 780.5,-19"/>
<text text-anchor="middle" x="729" y="-7" font-family="Inter" font-size="10.00">appearance&#45;style.c</text>
</a>
</g>
</g>
<!-- Node2&#45;&gt;Node6 -->
<g id="edge5_Node000002_Node000006" class="edge">
<title>Node2&#45;&gt;Node6</title>
<g id="a_edge5_Node000002_Node000006"><a xlink:title=" ">
<path fill="none" stroke="#63b8ff" d="M684.26,-53.41C695.7,-42.44 710.58,-28.17 719.96,-19.17"/>
<polygon fill="#63b8ff" stroke="#63b8ff" points="681.8,-50.92 677,-60.37 686.64,-55.97 681.8,-50.92"/>
</a>
</g>
</g>
<!-- Node7 -->
<g id="Node000007" class="node">
<title>Node7</title>
<g id="a_Node000007"><a xlink:href="appearance-support_8c.html" target="_top" xlink:title=" ">
<polygon fill="white" stroke="#666666" points="917,-19 799,-19 799,0 917,0 917,-19"/>
<text text-anchor="middle" x="858" y="-7" font-family="Inter" font-size="10.00">appearance&#45;support.c</text>
</a>
</g>
</g>
<!-- Node2&#45;&gt;Node7 -->
<g id="edge6_Node000002_Node000007" class="edge">
<title>Node2&#45;&gt;Node7</title>
<g id="a_edge6_Node000002_Node000007"><a xlink:title=" ">
<path fill="none" stroke="#63b8ff" d="M705.47,-57.46C742.22,-46.15 797.4,-29.16 830.34,-19.02"/>
<polygon fill="#63b8ff" stroke="#63b8ff" points="704.15,-54.21 695.63,-60.49 706.21,-60.9 704.15,-54.21"/>
</a>
</g>
</g>
<!-- Node8 -->
<g id="Node000008" class="node">
<title>Node8</title>
<g id="a_Node000008"><a xlink:href="appearance-themes_8c.html" target="_top" xlink:title=" ">
<polygon fill="white" stroke="#666666" points="1051,-19 935,-19 935,0 1051,0 1051,-19"/>
<text text-anchor="middle" x="993" y="-7" font-family="Inter" font-size="10.00">appearance&#45;themes.c</text>
</a>
</g>
</g>
<!-- Node2&#45;&gt;Node8 -->
<g id="edge7_Node000002_Node000008" class="edge">
<title>Node2&#45;&gt;Node8</title>
<g id="a_edge7_Node000002_Node000008"><a xlink:title=" ">
<path fill="none" stroke="#63b8ff" d="M705.74,-57.73C709.53,-56.75 713.33,-55.82 717,-55 791.5,-38.41 878.61,-25.41 934.73,-17.85"/>
<polygon fill="#63b8ff" stroke="#63b8ff" points="704.57,-54.43 695.84,-60.43 706.41,-61.18 704.57,-54.43"/>
</a>
</g>
</g>
<!-- Node9 -->
<g id="Node000009" class="node">
<title>Node9</title>
<g id="a_Node000009"><a xlink:href="appearance-ui_8c.html" target="_top" xlink:title=" ">
<polygon fill="white" stroke="#666666" points="1158.5,-19 1069.5,-19 1069.5,0 1158.5,0 1158.5,-19"/>
<text text-anchor="middle" x="1114" y="-7" font-family="Inter" font-size="10.00">appearance&#45;ui.c</text>
</a>
</g>
</g>
<!-- Node2&#45;&gt;Node9 -->
<g id="edge8_Node000002_Node000009" class="edge">
<title>Node2&#45;&gt;Node9</title>
<g id="a_edge8_Node000002_Node000009"><a xlink:title=" ">
<path fill="none" stroke="#63b8ff" d="M704.42,-57.84C708.64,-56.77 712.9,-55.8 717,-55 867.48,-25.84 908.02,-38.92 1060,-19 1063.01,-18.61 1066.11,-18.18 1069.24,-17.73"/>
<polygon fill="#63b8ff" stroke="#63b8ff" points="703.5,-54.47 694.75,-60.45 705.32,-61.22 703.5,-54.47"/>
</a>
</g>
</g>
<!-- Node10 -->
<g id="Node000010" class="node">
<title>Node10</title>
<g id="a_Node000010"><a xlink:href="mate-wp-item_8c.html" target="_top" xlink:title=" ">
<polygon fill="white" stroke="#666666" points="1265.5,-19 1176.5,-19 1176.5,0 1265.5,0 1265.5,-19"/>
<text text-anchor="middle" x="1221" y="-7" font-family="Inter" font-size="10.00">mate&#45;wp&#45;item.c</text>
</a>
</g>
</g>
<!-- Node2&#45;&gt;Node10 -->
<g id="edge9_Node000002_Node000010" class="edge">
<title>Node2&#45;&gt;Node10</title>
<g id="a_edge9_Node000002_Node000010"><a xlink:title=" ">
<path fill="none" stroke="#63b8ff" d="M704.1,-57.82C708.42,-56.74 712.79,-55.76 717,-55 914.43,-19.26 967.76,-42.62 1167,-19 1170.02,-18.64 1173.12,-18.24 1176.25,-17.81"/>
<polygon fill="#63b8ff" stroke="#63b8ff" points="702.97,-54.5 694.22,-60.47 704.79,-61.26 702.97,-54.5"/>
</a>
</g>
</g>
<!-- Node11 -->
<g id="Node000011" class="node">
<title>Node11</title>
<g id="a_Node000011"><a xlink:href="mate-wp-xml_8c.html" target="_top" xlink:title=" ">
<polygon fill="white" stroke="#666666" points="1367,-19 1283,-19 1283,0 1367,0 1367,-19"/>
<text text-anchor="middle" x="1325" y="-7" font-family="Inter" font-size="10.00">mate&#45;wp&#45;xml.c</text>
</a>
</g>
</g>
<!-- Node2&#45;&gt;Node11 -->
<g id="edge10_Node000002_Node000011" class="edge">
<title>Node2&#45;&gt;Node11</title>
<g id="a_edge10_Node000002_Node000011"><a xlink:title=" ">
<path fill="none" stroke="#63b8ff" d="M703.94,-57.79C708.31,-56.71 712.73,-55.74 717,-55 961.44,-12.68 1027.56,-47.43 1274,-19 1276.85,-18.67 1279.79,-18.29 1282.75,-17.88"/>
<polygon fill="#63b8ff" stroke="#63b8ff" points="702.7,-54.5 693.95,-60.47 704.52,-61.26 702.7,-54.5"/>
</a>
</g>
</g>
<!-- Node12 -->
<g id="Node000012" class="node">
<title>Node12</title>
<g id="a_Node000012"><a xlink:href="theme-installer_8c.html" target="_top" xlink:title=" ">
<polygon fill="white" stroke="#666666" points="92,-19 0,-19 0,0 92,0 92,-19"/>
<text text-anchor="middle" x="46" y="-7" font-family="Inter" font-size="10.00">theme&#45;installer.c</text>
</a>
</g>
</g>
<!-- Node2&#45;&gt;Node12 -->
<g id="edge11_Node000002_Node000012" class="edge">
<title>Node2&#45;&gt;Node12</title>
<g id="a_edge11_Node000002_Node000012"><a xlink:title=" ">
<path fill="none" stroke="#63b8ff" d="M617.66,-65.67C518.54,-58.87 291.21,-42.06 101,-19 98.12,-18.65 95.16,-18.27 92.18,-17.86"/>
<polygon fill="#63b8ff" stroke="#63b8ff" points="617.47,-69.17 627.69,-66.35 617.95,-62.18 617.47,-69.17"/>
</a>
</g>
</g>
<!-- Node13 -->
<g id="Node000013" class="node">
<title>Node13</title>
<g id="a_Node000013"><a xlink:href="theme-save_8c.html" target="_top" xlink:title=" ">
<polygon fill="white" stroke="#666666" points="189.5,-19 110.5,-19 110.5,0 189.5,0 189.5,-19"/>
<text text-anchor="middle" x="150" y="-7" font-family="Inter" font-size="10.00">theme&#45;save.c</text>
</a>
</g>
</g>
<!-- Node2&#45;&gt;Node13 -->
<g id="edge12_Node000002_Node000013" class="edge">
<title>Node2&#45;&gt;Node13</title>
<g id="a_edge12_Node000002_Node000013"><a xlink:title=" ">
<path fill="none" stroke="#63b8ff" d="M617.73,-64.73C531.74,-57.18 350.96,-40.26 199,-19 195.92,-18.57 192.74,-18.09 189.55,-17.59"/>
<polygon fill="#63b8ff" stroke="#63b8ff" points="617.47,-68.22 627.74,-65.6 618.08,-61.25 617.47,-68.22"/>
</a>
</g>
</g>
<!-- Node14 -->
<g id="Node000014" class="node">
<title>Node14</title>
<g id="a_Node000014"><a xlink:href="theme-util_8c.html" target="_top" xlink:title=" ">
<polygon fill="white" stroke="#666666" points="280,-19 208,-19 208,0 280,0 280,-19"/>
<text text-anchor="middle" x="244" y="-7" font-family="Inter" font-size="10.00">theme&#45;util.c</text>
</a>
</g>
</g>
<!-- Node2&#45;&gt;Node14 -->
<g id="edge13_Node000002_Node000014" class="edge">
<title>Node2&#45;&gt;Node14</title>
<g id="a_edge13_Node000002_Node000014"><a xlink:title=" ">
<path fill="none" stroke="#63b8ff" d="M617.54,-63.25C544.78,-54.75 406.27,-37.8 289,-19 286.17,-18.55 283.25,-18.05 280.32,-17.54"/>
<polygon fill="#63b8ff" stroke="#63b8ff" points="617.45,-66.76 627.78,-64.44 618.26,-59.81 617.45,-66.76"/>
</a>
</g>
</g>
<!-- Node30&#45;&gt;Node26 -->
<g id="edge30_Node000030_Node000026" class="edge">
<title>Node30&#45;&gt;Node26</title>
<g id="a_edge30_Node000030_Node000026"><a xlink:title=" ">
<path fill="none" stroke="#63b8ff" d="M2016.51,-56.13C1992.4,-44.85 1958.04,-28.77 1937.2,-19.02"/>
<polygon fill="#63b8ff" stroke="#63b8ff" points="2015.28,-59.42 2025.82,-60.49 2018.25,-53.08 2015.28,-59.42"/>
</a>
</g>
</g>
<!-- Node30&#45;&gt;Node28 -->
<g id="edge31_Node000030_Node000028" class="edge">
<title>Node30&#45;&gt;Node28</title>
<g id="a_edge31_Node000030_Node000028"><a xlink:title=" ">
<path fill="none" stroke="#63b8ff" d="M2034.12,-51.48C2028.1,-40.81 2020.67,-27.65 2015.89,-19.17"/>
<polygon fill="#63b8ff" stroke="#63b8ff" points="2031.17,-53.38 2039.13,-60.37 2037.27,-49.94 2031.17,-53.38"/>
</a>
</g>
</g>
<!-- Node30&#45;&gt;Node29 -->
<g id="edge32_Node000030_Node000029" class="edge">
<title>Node30&#45;&gt;Node29</title>
<g id="a_edge32_Node000030_Node000029"><a xlink:title=" ">
<path fill="none" stroke="#63b8ff" d="M2065.33,-54.66C2081.86,-43.55 2104.21,-28.51 2118.11,-19.17"/>
<polygon fill="#63b8ff" stroke="#63b8ff" points="2063.18,-51.88 2056.84,-60.37 2067.09,-57.69 2063.18,-51.88"/>
</a>
</g>
</g>
</g>
</svg>

<g id="navigator" transform="translate(0 0)" fill="#404254">
  <rect fill="#f2f5e9" fill-opacity="0.5" stroke="#606060" stroke-width=".5" x="0" y="0" width="60" height="60"/>
  <use id="zoomplus" xlink:href="#zoomPlus" x="17" y="9" onmousedown="handleZoom(evt,'in')"/>
  <use id="zoomminus" xlink:href="#zoomMin" x="42" y="9" onmousedown="handleZoom(evt,'out')"/>
  <use id="reset" xlink:href="#resetDef" x="30" y="36" onmousedown="handleReset()"/>
   <use id="arrowup" xlink:href="#arrowUp" x="0" y="0" onmousedown="handlePan(0,-1)"/>
  <use id="arrowright" xlink:href="#arrowRight" x="0" y="0" onmousedown="handlePan(1,0)"/>
  <use id="arrowdown" xlink:href="#arrowDown" x="0" y="0" onmousedown="handlePan(0,1)"/>
  <use id="arrowleft" xlink:href="#arrowLeft" x="0" y="0" onmousedown="handlePan(-1,0)"/>
</g>
<svg viewBox="0 0 15 15" width="100%" height="30px" preserveAspectRatio="xMaxYMin meet">
 <g id="arrow_out" transform="scale(0.3 0.3)">
  <a xlink:href="mate-image-menu-item_8h__dep__incl_org.svg" target="_base">
   <rect id="button" ry="5" rx="5" y="6" x="6" height="38" width="38"
        fill="#f2f5e9" fill-opacity="0.5" stroke="#606060" stroke-width="1.0"/>
   <path id="arrow"
     d="M 11.500037,31.436501 C 11.940474,20.09759 22.043105,11.32322 32.158766,21.979434 L 37.068811,17.246167 C 37.068811,17.246167 37.088388,32 37.088388,32 L 22.160133,31.978069 C 22.160133,31.978069 26.997745,27.140456 26.997745,27.140456 C 18.528582,18.264221 13.291696,25.230495 11.500037,31.436501 z"
     style="fill:#404040;"/>
  </a>
 </g>
</svg>

<style type='text/css'>
<![CDATA[
[data-mouse-over-selected='false'] { opacity: 0.7; }
[data-mouse-over-selected='true']  { opacity: 1.0; }
]]>
</style>
<script type="application/ecmascript"><![CDATA[
document.addEventListener('DOMContentLoaded', (event) => {
  highlightEdges();
  highlightAdjacentNodes();
});
]]></script>
</svg>
