<?xml version="1.0" encoding="UTF-8" standalone="no"?>
<!DOCTYPE svg PUBLIC "-//W3C//DTD SVG 1.1//EN"
 "http://www.w3.org/Graphics/SVG/1.1/DTD/svg11.dtd">
<!-- Generated by graphviz version 2.43.0 (0)
 -->
<!-- Title: main.c Pages: 1 -->
<svg width="1436pt" height="148pt"
 viewBox="0.00 0.00 1436.00 148.00" xmlns="http://www.w3.org/2000/svg" xmlns:xlink="http://www.w3.org/1999/xlink">
<g id="graph0" class="graph" transform="scale(1 1) rotate(0) translate(4 144)">
<title>main.c</title>
<!-- Node1 -->
<g id="Node000001" class="node">
<title>Node1</title>
<g id="a_Node000001"><a xlink:title=" ">
<polygon fill="#999999" stroke="#666666" points="610.5,-140 563.5,-140 563.5,-121 610.5,-121 610.5,-140"/>
<text text-anchor="middle" x="587" y="-128" font-family="Inter" font-size="10.00">main.c</text>
</a>
</g>
</g>
<!-- Node2 -->
<g id="Node000002" class="node">
<title>Node2</title>
<g id="a_Node000002"><a xlink:title=" ">
<polygon fill="#e0e0e0" stroke="#999999" points="54,-79.5 0,-79.5 0,-60.5 54,-60.5 54,-79.5"/>
<text text-anchor="middle" x="27" y="-67.5" font-family="Inter" font-size="10.00">config.h</text>
</a>
</g>
</g>
<!-- Node1&#45;&gt;Node2 -->
<g id="edge1_Node000001_Node000002" class="edge">
<title>Node1&#45;&gt;Node2</title>
<g id="a_edge1_Node000001_Node000002"><a xlink:title=" ">
<path fill="none" stroke="#63b8ff" d="M563.39,-129.87C488.84,-130.56 252.22,-128.87 63,-85 60.63,-84.45 58.21,-83.78 55.8,-83.02"/>
<polygon fill="#63b8ff" stroke="#63b8ff" points="56.7,-79.63 46.11,-79.6 54.37,-86.23 56.7,-79.63"/>
</a>
</g>
</g>
<!-- Node3 -->
<g id="Node000003" class="node">
<title>Node3</title>
<g id="a_Node000003"><a xlink:title=" ">
<polygon fill="#e0e0e0" stroke="#999999" points="122,-79.5 72,-79.5 72,-60.5 122,-60.5 122,-79.5"/>
<text text-anchor="middle" x="97" y="-67.5" font-family="Inter" font-size="10.00">stdlib.h</text>
</a>
</g>
</g>
<!-- Node1&#45;&gt;Node3 -->
<g id="edge2_Node000001_Node000003" class="edge">
<title>Node1&#45;&gt;Node3</title>
<g id="a_edge2_Node000001_Node000003"><a xlink:title=" ">
<path fill="none" stroke="#63b8ff" d="M563.34,-129.61C495.13,-129.42 292.71,-125.25 131,-85 128.84,-84.46 126.63,-83.81 124.43,-83.08"/>
<polygon fill="#63b8ff" stroke="#63b8ff" points="125.61,-79.79 115.02,-79.57 123.16,-86.35 125.61,-79.79"/>
</a>
</g>
</g>
<!-- Node4 -->
<g id="Node000004" class="node">
<title>Node4</title>
<g id="a_Node000004"><a xlink:title=" ">
<polygon fill="#e0e0e0" stroke="#999999" points="194,-79.5 140,-79.5 140,-60.5 194,-60.5 194,-79.5"/>
<text text-anchor="middle" x="167" y="-67.5" font-family="Inter" font-size="10.00">unistd.h</text>
</a>
</g>
</g>
<!-- Node1&#45;&gt;Node4 -->
<g id="edge3_Node000001_Node000004" class="edge">
<title>Node1&#45;&gt;Node4</title>
<g id="a_edge3_Node000001_Node000004"><a xlink:title=" ">
<path fill="none" stroke="#63b8ff" d="M563.25,-128.85C502.45,-126.73 336.53,-118.12 203,-85 200.69,-84.43 198.34,-83.75 195.98,-83"/>
<polygon fill="#63b8ff" stroke="#63b8ff" points="197.11,-79.68 186.51,-79.63 194.76,-86.28 197.11,-79.68"/>
</a>
</g>
</g>
<!-- Node5 -->
<g id="Node000005" class="node">
<title>Node5</title>
<g id="a_Node000005"><a xlink:title=" ">
<polygon fill="#e0e0e0" stroke="#999999" points="262,-79.5 212,-79.5 212,-60.5 262,-60.5 262,-79.5"/>
<text text-anchor="middle" x="237" y="-67.5" font-family="Inter" font-size="10.00">libintl.h</text>
</a>
</g>
</g>
<!-- Node1&#45;&gt;Node5 -->
<g id="edge4_Node000001_Node000005" class="edge">
<title>Node1&#45;&gt;Node5</title>
<g id="a_edge4_Node000001_Node000005"><a xlink:title=" ">
<path fill="none" stroke="#63b8ff" d="M563.2,-128.19C509.99,-124.81 377.66,-113.98 271,-85 269.06,-84.47 267.08,-83.86 265.11,-83.2"/>
<polygon fill="#63b8ff" stroke="#63b8ff" points="266,-79.8 255.41,-79.56 263.55,-86.35 266,-79.8"/>
</a>
</g>
</g>
<!-- Node6 -->
<g id="Node000006" class="node">
<title>Node6</title>
<g id="a_Node000006"><a xlink:title=" ">
<polygon fill="#e0e0e0" stroke="#999999" points="333.5,-79.5 280.5,-79.5 280.5,-60.5 333.5,-60.5 333.5,-79.5"/>
<text text-anchor="middle" x="307" y="-67.5" font-family="Inter" font-size="10.00">errno.h</text>
</a>
</g>
</g>
<!-- Node1&#45;&gt;Node6 -->
<g id="edge5_Node000001_Node000006" class="edge">
<title>Node1&#45;&gt;Node6</title>
<g id="a_edge5_Node000001_Node000006"><a xlink:title=" ">
<path fill="none" stroke="#63b8ff" d="M563.45,-126.72C519.52,-121.21 422.35,-107.44 343,-85 340.85,-84.39 338.65,-83.71 336.45,-82.97"/>
<polygon fill="#63b8ff" stroke="#63b8ff" points="337.55,-79.64 326.95,-79.54 335.17,-86.23 337.55,-79.64"/>
</a>
</g>
</g>
<!-- Node7 -->
<g id="Node000007" class="node">
<title>Node7</title>
<g id="a_Node000007"><a xlink:title=" ">
<polygon fill="#e0e0e0" stroke="#999999" points="404,-79.5 352,-79.5 352,-60.5 404,-60.5 404,-79.5"/>
<text text-anchor="middle" x="378" y="-67.5" font-family="Inter" font-size="10.00">locale.h</text>
</a>
</g>
</g>
<!-- Node1&#45;&gt;Node7 -->
<g id="edge6_Node000001_Node000007" class="edge">
<title>Node1&#45;&gt;Node7</title>
<g id="a_edge6_Node000001_Node000007"><a xlink:title=" ">
<path fill="none" stroke="#63b8ff" d="M563.36,-124.48C529.63,-117.09 465.91,-102.27 413,-85 411.33,-84.46 409.63,-83.87 407.92,-83.26"/>
<polygon fill="#63b8ff" stroke="#63b8ff" points="408.79,-79.85 398.19,-79.6 406.32,-86.4 408.79,-79.85"/>
</a>
</g>
</g>
<!-- Node8 -->
<g id="Node000008" class="node">
<title>Node8</title>
<g id="a_Node000008"><a xlink:title=" ">
<polygon fill="#e0e0e0" stroke="#999999" points="474,-79.5 422,-79.5 422,-60.5 474,-60.5 474,-79.5"/>
<text text-anchor="middle" x="448" y="-67.5" font-family="Inter" font-size="10.00">signal.h</text>
</a>
</g>
</g>
<!-- Node1&#45;&gt;Node8 -->
<g id="edge7_Node000001_Node000008" class="edge">
<title>Node1&#45;&gt;Node8</title>
<g id="a_edge7_Node000001_Node000008"><a xlink:title=" ">
<path fill="none" stroke="#63b8ff" d="M566.79,-120.99C543.32,-111.12 504.39,-94.73 477.54,-83.43"/>
<polygon fill="#63b8ff" stroke="#63b8ff" points="478.81,-80.17 468.24,-79.52 476.1,-86.62 478.81,-80.17"/>
</a>
</g>
</g>
<!-- Node9 -->
<g id="Node000009" class="node">
<title>Node9</title>
<g id="a_Node000009"><a xlink:title=" ">
<polygon fill="#e0e0e0" stroke="#999999" points="538,-79.5 492,-79.5 492,-60.5 538,-60.5 538,-79.5"/>
<text text-anchor="middle" x="515" y="-67.5" font-family="Inter" font-size="10.00">fcntl.h</text>
</a>
</g>
</g>
<!-- Node1&#45;&gt;Node9 -->
<g id="edge8_Node000001_Node000009" class="edge">
<title>Node1&#45;&gt;Node9</title>
<g id="a_edge8_Node000001_Node000009"><a xlink:title=" ">
<path fill="none" stroke="#63b8ff" d="M576.38,-120.87C565.1,-111.71 547.08,-97.06 533.47,-86.01"/>
<polygon fill="#63b8ff" stroke="#63b8ff" points="535.64,-83.26 525.67,-79.67 531.22,-88.69 535.64,-83.26"/>
</a>
</g>
</g>
<!-- Node10 -->
<g id="Node000010" class="node">
<title>Node10</title>
<g id="a_Node000010"><a xlink:title=" ">
<polygon fill="#e0e0e0" stroke="#999999" points="618,-79.5 556,-79.5 556,-60.5 618,-60.5 618,-79.5"/>
<text text-anchor="middle" x="587" y="-67.5" font-family="Inter" font-size="10.00">sys/wait.h</text>
</a>
</g>
</g>
<!-- Node1&#45;&gt;Node10 -->
<g id="edge9_Node000001_Node000010" class="edge">
<title>Node1&#45;&gt;Node10</title>
<g id="a_edge9_Node000001_Node000010"><a xlink:title=" ">
<path fill="none" stroke="#63b8ff" d="M587,-120.87C587,-112.75 587,-100.31 587,-89.89"/>
<polygon fill="#63b8ff" stroke="#63b8ff" points="590.5,-89.67 587,-79.67 583.5,-89.67 590.5,-89.67"/>
</a>
</g>
</g>
<!-- Node11 -->
<g id="Node000011" class="node">
<title>Node11</title>
<g id="a_Node000011"><a xlink:title=" ">
<polygon fill="#e0e0e0" stroke="#999999" points="708,-79.5 636,-79.5 636,-60.5 708,-60.5 708,-79.5"/>
<text text-anchor="middle" x="672" y="-67.5" font-family="Inter" font-size="10.00">glib/gi18n.h</text>
</a>
</g>
</g>
<!-- Node1&#45;&gt;Node11 -->
<g id="edge10_Node000001_Node000011" class="edge">
<title>Node1&#45;&gt;Node11</title>
<g id="a_edge10_Node000001_Node000011"><a xlink:title=" ">
<path fill="none" stroke="#63b8ff" d="M599.54,-120.87C613.1,-111.54 634.94,-96.51 651.1,-85.38"/>
<polygon fill="#63b8ff" stroke="#63b8ff" points="653.15,-88.22 659.41,-79.67 649.18,-82.45 653.15,-88.22"/>
</a>
</g>
</g>
<!-- Node12 -->
<g id="Node000012" class="node">
<title>Node12</title>
<g id="a_Node000012"><a xlink:title=" ">
<polygon fill="#e0e0e0" stroke="#999999" points="800,-79.5 726,-79.5 726,-60.5 800,-60.5 800,-79.5"/>
<text text-anchor="middle" x="763" y="-67.5" font-family="Inter" font-size="10.00">glib/gstdio.h</text>
</a>
</g>
</g>
<!-- Node1&#45;&gt;Node12 -->
<g id="edge11_Node000001_Node000012" class="edge">
<title>Node1&#45;&gt;Node12</title>
<g id="a_edge11_Node000001_Node000012"><a xlink:title=" ">
<path fill="none" stroke="#63b8ff" d="M610.74,-121.61C640.8,-111.62 692.86,-94.32 727.61,-82.76"/>
<polygon fill="#63b8ff" stroke="#63b8ff" points="728.98,-86 737.36,-79.52 726.77,-79.35 728.98,-86"/>
</a>
</g>
</g>
<!-- Node13 -->
<g id="Node000013" class="node">
<title>Node13</title>
<g id="a_Node000013"><a xlink:title=" ">
<polygon fill="#e0e0e0" stroke="#999999" points="883.5,-79.5 818.5,-79.5 818.5,-60.5 883.5,-60.5 883.5,-79.5"/>
<text text-anchor="middle" x="851" y="-67.5" font-family="Inter" font-size="10.00">glib&#45;unix.h</text>
</a>
</g>
</g>
<!-- Node1&#45;&gt;Node13 -->
<g id="edge12_Node000001_Node000013" class="edge">
<title>Node1&#45;&gt;Node13</title>
<g id="a_edge12_Node000001_Node000013"><a xlink:title=" ">
<path fill="none" stroke="#63b8ff" d="M610.55,-125.77C651.33,-119.08 737.58,-103.98 809,-85 811.79,-84.26 814.66,-83.44 817.53,-82.57"/>
<polygon fill="#63b8ff" stroke="#63b8ff" points="818.69,-85.87 827.17,-79.51 816.58,-79.2 818.69,-85.87"/>
</a>
</g>
</g>
<!-- Node14 -->
<g id="Node000014" class="node">
<title>Node14</title>
<g id="a_Node000014"><a xlink:title=" ">
<polygon fill="#e0e0e0" stroke="#999999" points="1179,-19 1121,-19 1121,0 1179,0 1179,-19"/>
<text text-anchor="middle" x="1150" y="-7" font-family="Inter" font-size="10.00">gio/gio.h</text>
</a>
</g>
</g>
<!-- Node1&#45;&gt;Node14 -->
<g id="edge13_Node000001_Node000014" class="edge">
<title>Node1&#45;&gt;Node14</title>
<g id="a_edge13_Node000001_Node000014"><a xlink:title=" ">
<path fill="none" stroke="#63b8ff" d="M610.57,-128.99C708.44,-126.67 1079.63,-115.89 1121,-85 1138.52,-71.92 1145.46,-46.74 1148.2,-29.29"/>
<polygon fill="#63b8ff" stroke="#63b8ff" points="1151.7,-29.51 1149.47,-19.15 1144.76,-28.64 1151.7,-29.51"/>
</a>
</g>
</g>
<!-- Node15 -->
<g id="Node000015" class="node">
<title>Node15</title>
<g id="a_Node000015"><a xlink:title=" ">
<polygon fill="#e0e0e0" stroke="#999999" points="1111.5,-79.5 1052.5,-79.5 1052.5,-60.5 1111.5,-60.5 1111.5,-79.5"/>
<text text-anchor="middle" x="1082" y="-67.5" font-family="Inter" font-size="10.00">gtk/gtk.h</text>
</a>
</g>
</g>
<!-- Node1&#45;&gt;Node15 -->
<g id="edge14_Node000001_Node000015" class="edge">
<title>Node1&#45;&gt;Node15</title>
<g id="a_edge14_Node000001_Node000015"><a xlink:title=" ">
<path fill="none" stroke="#63b8ff" d="M610.58,-129.24C678.55,-128.07 880.41,-121.52 1043,-85 1045.83,-84.36 1048.73,-83.58 1051.62,-82.71"/>
<polygon fill="#63b8ff" stroke="#63b8ff" points="1052.84,-86 1061.23,-79.53 1050.64,-79.35 1052.84,-86"/>
</a>
</g>
</g>
<!-- Node16 -->
<g id="Node000016" class="node">
<title>Node16</title>
<g id="a_Node000016"><a xlink:href="mate-settings-manager_8h.html" target="_top" xlink:title=" ">
<polygon fill="white" stroke="#666666" points="1034,-79.5 902,-79.5 902,-60.5 1034,-60.5 1034,-79.5"/>
<text text-anchor="middle" x="968" y="-67.5" font-family="Inter" font-size="10.00">mate&#45;settings&#45;manager.h</text>
</a>
</g>
</g>
<!-- Node1&#45;&gt;Node16 -->
<g id="edge15_Node000001_Node000016" class="edge">
<title>Node1&#45;&gt;Node16</title>
<g id="a_edge15_Node000001_Node000016"><a xlink:title=" ">
<path fill="none" stroke="#63b8ff" d="M610.78,-126.34C662.18,-119.44 787.46,-102.25 892,-85 898.76,-83.88 905.85,-82.66 912.86,-81.41"/>
<polygon fill="#63b8ff" stroke="#63b8ff" points="913.82,-84.79 923.04,-79.57 912.58,-77.9 913.82,-84.79"/>
</a>
</g>
</g>
<!-- Node18 -->
<g id="Node000018" class="node">
<title>Node18</title>
<g id="a_Node000018"><a xlink:href="mate-settings-profile_8h.html" target="_top" xlink:title=" ">
<polygon fill="white" stroke="#666666" points="1428,-79.5 1306,-79.5 1306,-60.5 1428,-60.5 1428,-79.5"/>
<text text-anchor="middle" x="1367" y="-67.5" font-family="Inter" font-size="10.00">mate&#45;settings&#45;profile.h</text>
</a>
</g>
</g>
<!-- Node1&#45;&gt;Node18 -->
<g id="edge17_Node000001_Node000018" class="edge">
<title>Node1&#45;&gt;Node18</title>
<g id="a_edge17_Node000001_Node000018"><a xlink:title=" ">
<path fill="none" stroke="#63b8ff" d="M610.71,-129.17C700.63,-127.68 1029.11,-120.02 1297,-85 1304.18,-84.06 1311.73,-82.82 1319.11,-81.47"/>
<polygon fill="#63b8ff" stroke="#63b8ff" points="1319.85,-84.89 1329.01,-79.57 1318.53,-78.01 1319.85,-84.89"/>
</a>
</g>
</g>
<!-- Node20 -->
<g id="Node000020" class="node">
<title>Node20</title>
<g id="a_Node000020"><a xlink:href="mate-gsettings_8h.html" target="_top" xlink:title=" ">
<polygon fill="white" stroke="#666666" points="1287.5,-85 1168.5,-85 1168.5,-55 1287.5,-55 1287.5,-85"/>
<text text-anchor="start" x="1176.5" y="-73" font-family="Inter" font-size="10.00">libmate&#45;desktop/mate</text>
<text text-anchor="middle" x="1228" y="-62" font-family="Inter" font-size="10.00">&#45;gsettings.h</text>
</a>
</g>
</g>
<!-- Node1&#45;&gt;Node20 -->
<g id="edge19_Node000001_Node000020" class="edge">
<title>Node1&#45;&gt;Node20</title>
<g id="a_edge19_Node000001_Node000020"><a xlink:title=" ">
<path fill="none" stroke="#63b8ff" d="M610.59,-128.57C688.46,-125.3 944.31,-112.98 1154,-85 1155.46,-84.81 1156.93,-84.6 1158.41,-84.39"/>
<polygon fill="#63b8ff" stroke="#63b8ff" points="1158.96,-87.84 1168.32,-82.87 1157.9,-80.93 1158.96,-87.84"/>
</a>
</g>
</g>
<!-- Node17 -->
<g id="Node000017" class="node">
<title>Node17</title>
<g id="a_Node000017"><a xlink:title=" ">
<polygon fill="#e0e0e0" stroke="#999999" points="1005,-19 931,-19 931,0 1005,0 1005,-19"/>
<text text-anchor="middle" x="968" y="-7" font-family="Inter" font-size="10.00">glib&#45;object.h</text>
</a>
</g>
</g>
<!-- Node16&#45;&gt;Node17 -->
<g id="edge16_Node000016_Node000017" class="edge">
<title>Node16&#45;&gt;Node17</title>
<g id="a_edge16_Node000016_Node000017"><a xlink:title=" ">
<path fill="none" stroke="#63b8ff" d="M968,-60.37C968,-52.25 968,-39.81 968,-29.39"/>
<polygon fill="#63b8ff" stroke="#63b8ff" points="971.5,-29.17 968,-19.17 964.5,-29.17 971.5,-29.17"/>
</a>
</g>
</g>
<!-- Node19 -->
<g id="Node000019" class="node">
<title>Node19</title>
<g id="a_Node000019"><a xlink:title=" ">
<polygon fill="#e0e0e0" stroke="#999999" points="1318,-19 1276,-19 1276,0 1318,0 1318,-19"/>
<text text-anchor="middle" x="1297" y="-7" font-family="Inter" font-size="10.00">glib.h</text>
</a>
</g>
</g>
<!-- Node18&#45;&gt;Node19 -->
<g id="edge18_Node000018_Node000019" class="edge">
<title>Node18&#45;&gt;Node19</title>
<g id="a_edge18_Node000018_Node000019"><a xlink:title=" ">
<path fill="none" stroke="#63b8ff" d="M1356.67,-60.37C1345.81,-51.3 1328.51,-36.84 1315.33,-25.82"/>
<polygon fill="#63b8ff" stroke="#63b8ff" points="1317.29,-22.89 1307.37,-19.17 1312.8,-28.27 1317.29,-22.89"/>
</a>
</g>
</g>
<!-- Node20&#45;&gt;Node14 -->
<g id="edge21_Node000020_Node000014" class="edge">
<title>Node20&#45;&gt;Node14</title>
<g id="a_edge21_Node000020_Node000014"><a xlink:title=" ">
<path fill="none" stroke="#63b8ff" d="M1209.12,-54.84C1197.22,-45.91 1181.88,-34.41 1169.8,-25.35"/>
<polygon fill="#63b8ff" stroke="#63b8ff" points="1171.79,-22.47 1161.69,-19.27 1167.59,-28.07 1171.79,-22.47"/>
</a>
</g>
</g>
<!-- Node20&#45;&gt;Node19 -->
<g id="edge20_Node000020_Node000019" class="edge">
<title>Node20&#45;&gt;Node19</title>
<g id="a_edge20_Node000020_Node000019"><a xlink:title=" ">
<path fill="none" stroke="#63b8ff" d="M1244.7,-54.84C1255.03,-46.09 1268.28,-34.85 1278.86,-25.88"/>
<polygon fill="#63b8ff" stroke="#63b8ff" points="1281.3,-28.4 1286.66,-19.27 1276.77,-23.06 1281.3,-28.4"/>
</a>
</g>
</g>
</g>
</svg>
