<?xml version="1.0" encoding="UTF-8" standalone="no"?>
<!DOCTYPE svg PUBLIC "-//W3C//DTD SVG 1.1//EN"
 "http://www.w3.org/Graphics/SVG/1.1/DTD/svg11.dtd">
<!-- Generated by graphviz version 2.43.0 (0)
 -->
<!-- Title: mate&#45;settings&#45;plugin.h Pages: 1 -->
<!--zoomable 148 -->

<svg id="main" version="1.1" xmlns="http://www.w3.org/2000/svg" xmlns:xlink="http://www.w3.org/1999/xlink" xml:space="preserve" onload="init(evt)">

<style type="text/css"><![CDATA[
.node, .edge {opacity: 0.7;}
.node.selected, .edge.selected {opacity: 1;}
.edge:hover path { stroke: red; }
.edge:hover polygon { stroke: red; fill: red; }
]]></style>

<defs>
  <circle id="rim" cx="0" cy="0" r="7"/>
  <circle id="rim2" cx="0" cy="0" r="3.5"/>
  <g id="zoomPlus">
    <use xlink:href="#rim" fill="#404040"><set attributeName="fill" to="#808080" begin="zoomplus.mouseover" end="zoomplus.mouseout"/></use>
    <path d="M-4,0h8M0,-4v8" fill="none" stroke="white" stroke-width="1.5" pointer-events="none"/>
  </g>
  <g id="zoomMin">
    <use xlink:href="#rim" fill="#404040"><set attributeName="fill" to="#808080" begin="zoomminus.mouseover" end="zoomminus.mouseout"/></use>
    <path d="M-4,0h8" fill="none" stroke="white" stroke-width="1.5" pointer-events="none"/>
  </g>
  <g id="arrowUp" transform="translate(30 24)">
    <use xlink:href="#rim"/>
    <path pointer-events="none" fill="none" stroke="white" stroke-width="1.5" d="M0,-3.0v7 M-2.5,-0.5L0,-3.0L2.5,-0.5"/>
  </g>
  <g id="arrowRight" transform="rotate(90) translate(36 -43)">
    <use xlink:href="#rim"/>
    <path pointer-events="none" fill="none" stroke="white" stroke-width="1.5" d="M0,-3.0v7 M-2.5,-0.5L0,-3.0L2.5,-0.5"/>
  </g>
  <g id="arrowDown" transform="rotate(180) translate(-30 -48)">
    <use xlink:href="#rim"/>
    <path pointer-events="none" fill="none" stroke="white" stroke-width="1.5" d="M0,-3.0v7 M-2.5,-0.5L0,-3.0L2.5,-0.5"/>
  </g>
  <g id="arrowLeft" transform="rotate(270) translate(-36 17)">
    <use xlink:href="#rim"/>
    <path pointer-events="none" fill="none" stroke="white" stroke-width="1.5" d="M0,-3.0v7 M-2.5,-0.5L0,-3.0L2.5,-0.5"/>
  </g>
  <g id="resetDef">
    <use xlink:href="#rim2" fill="#404040"><set attributeName="fill" to="#808080" begin="reset.mouseover" end="reset.mouseout"/></use>
  </g>
</defs>
<script type="application/ecmascript">
var viewWidth = 3486;
var viewHeight = 148;
var sectionId = 'dynsection-1';
</script>
<script type="application/ecmascript" xlink:href="svg.min.js"/>
<svg id="graph" class="graph">
<g id="viewport">
<title>mate&#45;settings&#45;plugin.h</title>
<!-- Node1 -->
<g id="Node000001" class="node">
<title>Node1</title>
<g id="a_Node000001"><a xlink:title=" ">
<polygon fill="#999999" stroke="#666666" points="1897.5,-140 1776.5,-140 1776.5,-121 1897.5,-121 1897.5,-140"/>
<text text-anchor="middle" x="1837" y="-128" font-family="Inter" font-size="10.00">mate&#45;settings&#45;plugin.h</text>
</a>
</g>
</g>
<!-- Node2 -->
<g id="Node000002" class="node">
<title>Node2</title>
<g id="a_Node000002"><a xlink:href="mate-settings-plugin-info_8c.html" target="_top" xlink:title=" ">
<polygon fill="white" stroke="#666666" points="112,-85 0,-85 0,-55 112,-55 112,-85"/>
<text text-anchor="start" x="8" y="-73" font-family="Inter" font-size="10.00">mate&#45;settings&#45;plugin</text>
<text text-anchor="middle" x="56" y="-62" font-family="Inter" font-size="10.00">&#45;info.c</text>
</a>
</g>
</g>
<!-- Node1&#45;&gt;Node2 -->
<g id="edge1_Node000001_Node000002" class="edge">
<title>Node1&#45;&gt;Node2</title>
<g id="a_edge1_Node000001_Node000002"><a xlink:title=" ">
<path fill="none" stroke="#63b8ff" d="M1766.07,-129.42C1484.79,-128.84 447.28,-124.02 121,-85 118.13,-84.66 115.21,-84.25 112.26,-83.79"/>
<polygon fill="#63b8ff" stroke="#63b8ff" points="1766.14,-132.92 1776.15,-129.44 1766.16,-125.92 1766.14,-132.92"/>
</a>
</g>
</g>
<!-- Node3 -->
<g id="Node000003" class="node">
<title>Node3</title>
<g id="a_Node000003"><a xlink:href="mate-settings-plugin_8c.html" target="_top" xlink:title=" ">
<polygon fill="white" stroke="#666666" points="249.5,-79.5 130.5,-79.5 130.5,-60.5 249.5,-60.5 249.5,-79.5"/>
<text text-anchor="middle" x="190" y="-67.5" font-family="Inter" font-size="10.00">mate&#45;settings&#45;plugin.c</text>
</a>
</g>
</g>
<!-- Node1&#45;&gt;Node3 -->
<g id="edge2_Node000001_Node000003" class="edge">
<title>Node1&#45;&gt;Node3</title>
<g id="a_edge2_Node000001_Node000003"><a xlink:title=" ">
<path fill="none" stroke="#63b8ff" d="M1765.93,-128.99C1499.65,-126.84 561.19,-117.11 264,-85 252.43,-83.75 239.96,-81.68 228.62,-79.5"/>
<polygon fill="#63b8ff" stroke="#63b8ff" points="1766.21,-132.49 1776.24,-129.07 1766.27,-125.49 1766.21,-132.49"/>
</a>
</g>
</g>
<!-- Node4 -->
<g id="Node000004" class="node">
<title>Node4</title>
<g id="a_Node000004"><a xlink:href="msd-a11y-keyboard-plugin_8c.html" target="_top" xlink:title=" ">
<polygon fill="white" stroke="#666666" points="394,-19 248,-19 248,0 394,0 394,-19"/>
<text text-anchor="middle" x="321" y="-7" font-family="Inter" font-size="10.00">msd&#45;a11y&#45;keyboard&#45;plugin.c</text>
</a>
</g>
</g>
<!-- Node1&#45;&gt;Node4 -->
<g id="edge3_Node000001_Node000004" class="edge">
<title>Node1&#45;&gt;Node4</title>
<g id="a_edge3_Node000001_Node000004"><a xlink:title=" ">
<path fill="none" stroke="#63b8ff" d="M1766.07,-128.78C1466.97,-125.6 322.92,-111.68 297,-85 279.01,-66.48 300.94,-34.41 313.45,-19.11"/>
<polygon fill="#63b8ff" stroke="#63b8ff" points="1766.31,-132.29 1776.35,-128.89 1766.38,-125.29 1766.31,-132.29"/>
</a>
</g>
</g>
<!-- Node5 -->
<g id="Node000005" class="node">
<title>Node5</title>
<g id="a_Node000005"><a xlink:href="msd-a11y-keyboard-plugin_8h.html" target="_top" xlink:title=" ">
<polygon fill="white" stroke="#666666" points="454,-79.5 306,-79.5 306,-60.5 454,-60.5 454,-79.5"/>
<text text-anchor="middle" x="380" y="-67.5" font-family="Inter" font-size="10.00">msd&#45;a11y&#45;keyboard&#45;plugin.h</text>
</a>
</g>
</g>
<!-- Node1&#45;&gt;Node5 -->
<g id="edge4_Node000001_Node000005" class="edge">
<title>Node1&#45;&gt;Node5</title>
<g id="a_edge4_Node000001_Node000005"><a xlink:title=" ">
<path fill="none" stroke="#63b8ff" d="M1765.98,-128.37C1522.67,-124.31 723.69,-109.4 468,-85 454.45,-83.71 439.81,-81.65 426.44,-79.5"/>
<polygon fill="#63b8ff" stroke="#63b8ff" points="1766.06,-131.87 1776.11,-128.54 1766.17,-124.87 1766.06,-131.87"/>
</a>
</g>
</g>
<!-- Node6 -->
<g id="Node000006" class="node">
<title>Node6</title>
<g id="a_Node000006"><a xlink:href="msd-a11y-settings-plugin_8c.html" target="_top" xlink:title=" ">
<polygon fill="white" stroke="#666666" points="573,-19 433,-19 433,0 573,0 573,-19"/>
<text text-anchor="middle" x="503" y="-7" font-family="Inter" font-size="10.00">msd&#45;a11y&#45;settings&#45;plugin.c</text>
</a>
</g>
</g>
<!-- Node1&#45;&gt;Node6 -->
<g id="edge6_Node000001_Node000006" class="edge">
<title>Node1&#45;&gt;Node6</title>
<g id="a_edge6_Node000001_Node000006"><a xlink:title=" ">
<path fill="none" stroke="#63b8ff" d="M1766.16,-129.83C1496.26,-130.77 545.28,-130.78 501,-85 483.91,-67.33 493.29,-34.85 499.26,-19.28"/>
<polygon fill="#63b8ff" stroke="#63b8ff" points="1766.24,-133.33 1776.23,-129.8 1766.22,-126.33 1766.24,-133.33"/>
</a>
</g>
</g>
<!-- Node7 -->
<g id="Node000007" class="node">
<title>Node7</title>
<g id="a_Node000007"><a xlink:href="msd-a11y-settings-plugin_8h.html" target="_top" xlink:title=" ">
<polygon fill="white" stroke="#666666" points="652,-79.5 510,-79.5 510,-60.5 652,-60.5 652,-79.5"/>
<text text-anchor="middle" x="581" y="-67.5" font-family="Inter" font-size="10.00">msd&#45;a11y&#45;settings&#45;plugin.h</text>
</a>
</g>
</g>
<!-- Node1&#45;&gt;Node7 -->
<g id="edge7_Node000001_Node000007" class="edge">
<title>Node1&#45;&gt;Node7</title>
<g id="a_edge7_Node000001_Node000007"><a xlink:title=" ">
<path fill="none" stroke="#63b8ff" d="M1766.48,-129.89C1584.03,-130.24 1081.7,-126.97 666,-85 653.05,-83.69 639.09,-81.66 626.3,-79.54"/>
<polygon fill="#63b8ff" stroke="#63b8ff" points="1766.49,-133.39 1776.48,-129.87 1766.48,-126.39 1766.49,-133.39"/>
</a>
</g>
</g>
<!-- Node8 -->
<g id="Node000008" class="node">
<title>Node8</title>
<g id="a_Node000008"><a xlink:href="msd-background-plugin_8c.html" target="_top" xlink:title=" ">
<polygon fill="white" stroke="#666666" points="768.5,-19 635.5,-19 635.5,0 768.5,0 768.5,-19"/>
<text text-anchor="middle" x="702" y="-7" font-family="Inter" font-size="10.00">msd&#45;background&#45;plugin.c</text>
</a>
</g>
</g>
<!-- Node1&#45;&gt;Node8 -->
<g id="edge9_Node000001_Node000008" class="edge">
<title>Node1&#45;&gt;Node8</title>
<g id="a_edge9_Node000001_Node000008"><a xlink:title=" ">
<path fill="none" stroke="#63b8ff" d="M1766.37,-129.4C1523.57,-128.72 736.07,-123.55 699,-85 681.95,-67.27 691.86,-34.82 698.11,-19.27"/>
<polygon fill="#63b8ff" stroke="#63b8ff" points="1766.48,-132.9 1776.49,-129.43 1766.5,-125.9 1766.48,-132.9"/>
</a>
</g>
</g>
<!-- Node9 -->
<g id="Node000009" class="node">
<title>Node9</title>
<g id="a_Node000009"><a xlink:href="msd-background-plugin_8h.html" target="_top" xlink:title=" ">
<polygon fill="white" stroke="#666666" points="842,-79.5 708,-79.5 708,-60.5 842,-60.5 842,-79.5"/>
<text text-anchor="middle" x="775" y="-67.5" font-family="Inter" font-size="10.00">msd&#45;background&#45;plugin.h</text>
</a>
</g>
</g>
<!-- Node1&#45;&gt;Node9 -->
<g id="edge10_Node000001_Node000009" class="edge">
<title>Node1&#45;&gt;Node9</title>
<g id="a_edge10_Node000001_Node000009"><a xlink:title=" ">
<path fill="none" stroke="#63b8ff" d="M1765.93,-129.33C1603.99,-128.29 1195.37,-121.88 856,-85 843.8,-83.67 830.65,-81.66 818.58,-79.57"/>
<polygon fill="#63b8ff" stroke="#63b8ff" points="1766.21,-132.84 1776.23,-129.4 1766.26,-125.84 1766.21,-132.84"/>
</a>
</g>
</g>
<!-- Node10 -->
<g id="Node000010" class="node">
<title>Node10</title>
<g id="a_Node000010"><a xlink:href="msd-clipboard-plugin_8c.html" target="_top" xlink:title=" ">
<polygon fill="white" stroke="#666666" points="951,-19 831,-19 831,0 951,0 951,-19"/>
<text text-anchor="middle" x="891" y="-7" font-family="Inter" font-size="10.00">msd&#45;clipboard&#45;plugin.c</text>
</a>
</g>
</g>
<!-- Node1&#45;&gt;Node10 -->
<g id="edge12_Node000001_Node000010" class="edge">
<title>Node1&#45;&gt;Node10</title>
<g id="a_edge12_Node000001_Node000010"><a xlink:title=" ">
<path fill="none" stroke="#63b8ff" d="M1766.12,-128.82C1551.12,-126.4 919.18,-116.63 889,-85 872.03,-67.21 881.35,-34.79 887.29,-19.26"/>
<polygon fill="#63b8ff" stroke="#63b8ff" points="1766.3,-132.32 1776.34,-128.93 1766.38,-125.32 1766.3,-132.32"/>
</a>
</g>
</g>
<!-- Node11 -->
<g id="Node000011" class="node">
<title>Node11</title>
<g id="a_Node000011"><a xlink:href="msd-clipboard-plugin_8h.html" target="_top" xlink:title=" ">
<polygon fill="white" stroke="#666666" points="1020,-79.5 898,-79.5 898,-60.5 1020,-60.5 1020,-79.5"/>
<text text-anchor="middle" x="959" y="-67.5" font-family="Inter" font-size="10.00">msd&#45;clipboard&#45;plugin.h</text>
</a>
</g>
</g>
<!-- Node1&#45;&gt;Node11 -->
<g id="edge13_Node000001_Node000011" class="edge">
<title>Node1&#45;&gt;Node11</title>
<g id="a_edge13_Node000001_Node000011"><a xlink:title=" ">
<path fill="none" stroke="#63b8ff" d="M1766.14,-128.64C1625.88,-126.27 1303.12,-117.44 1034,-85 1022.69,-83.64 1010.52,-81.61 999.33,-79.52"/>
<polygon fill="#63b8ff" stroke="#63b8ff" points="1766.27,-132.15 1776.33,-128.81 1766.39,-125.15 1766.27,-132.15"/>
</a>
</g>
</g>
<!-- Node12 -->
<g id="Node000012" class="node">
<title>Node12</title>
<g id="a_Node000012"><a xlink:href="msd-dummy-plugin_8c.html" target="_top" xlink:title=" ">
<polygon fill="white" stroke="#666666" points="1116.5,-19 1003.5,-19 1003.5,0 1116.5,0 1116.5,-19"/>
<text text-anchor="middle" x="1060" y="-7" font-family="Inter" font-size="10.00">msd&#45;dummy&#45;plugin.c</text>
</a>
</g>
</g>
<!-- Node1&#45;&gt;Node12 -->
<g id="edge15_Node000001_Node000012" class="edge">
<title>Node1&#45;&gt;Node12</title>
<g id="a_edge15_Node000001_Node000012"><a xlink:title=" ">
<path fill="none" stroke="#63b8ff" d="M1766.14,-127.88C1580.39,-123.32 1091.95,-109.07 1067,-85 1049.14,-67.77 1054.03,-34.78 1057.67,-19.14"/>
<polygon fill="#63b8ff" stroke="#63b8ff" points="1766.26,-131.39 1776.34,-128.13 1766.43,-124.39 1766.26,-131.39"/>
</a>
</g>
</g>
<!-- Node13 -->
<g id="Node000013" class="node">
<title>Node13</title>
<g id="a_Node000013"><a xlink:href="msd-dummy-plugin_8h.html" target="_top" xlink:title=" ">
<polygon fill="white" stroke="#666666" points="1191.5,-79.5 1076.5,-79.5 1076.5,-60.5 1191.5,-60.5 1191.5,-79.5"/>
<text text-anchor="middle" x="1134" y="-67.5" font-family="Inter" font-size="10.00">msd&#45;dummy&#45;plugin.h</text>
</a>
</g>
</g>
<!-- Node1&#45;&gt;Node13 -->
<g id="edge16_Node000001_Node000013" class="edge">
<title>Node1&#45;&gt;Node13</title>
<g id="a_edge16_Node000001_Node000013"><a xlink:title=" ">
<path fill="none" stroke="#63b8ff" d="M1766.02,-127.31C1648.93,-123.07 1408.13,-111.68 1206,-85 1195.4,-83.6 1184,-81.61 1173.47,-79.57"/>
<polygon fill="#63b8ff" stroke="#63b8ff" points="1766.16,-130.82 1776.28,-127.67 1766.41,-123.82 1766.16,-130.82"/>
</a>
</g>
</g>
<!-- Node14 -->
<g id="Node000014" class="node">
<title>Node14</title>
<g id="a_Node000014"><a xlink:href="msd-housekeeping-plugin_8c.html" target="_top" xlink:title=" ">
<polygon fill="white" stroke="#666666" points="1314,-19 1170,-19 1170,0 1314,0 1314,-19"/>
<text text-anchor="middle" x="1242" y="-7" font-family="Inter" font-size="10.00">msd&#45;housekeeping&#45;plugin.c</text>
</a>
</g>
</g>
<!-- Node1&#45;&gt;Node14 -->
<g id="edge18_Node000001_Node000014" class="edge">
<title>Node1&#45;&gt;Node14</title>
<g id="a_edge18_Node000001_Node000014"><a xlink:title=" ">
<path fill="none" stroke="#63b8ff" d="M1766.34,-129.51C1615.8,-128.79 1274.23,-122.94 1239,-85 1222.27,-66.98 1232.02,-34.67 1238.17,-19.21"/>
<polygon fill="#63b8ff" stroke="#63b8ff" points="1766.4,-133.01 1776.41,-129.55 1766.43,-126.01 1766.4,-133.01"/>
</a>
</g>
</g>
<!-- Node15 -->
<g id="Node000015" class="node">
<title>Node15</title>
<g id="a_Node000015"><a xlink:href="msd-housekeeping-plugin_8h.html" target="_top" xlink:title=" ">
<polygon fill="white" stroke="#666666" points="1394,-79.5 1248,-79.5 1248,-60.5 1394,-60.5 1394,-79.5"/>
<text text-anchor="middle" x="1321" y="-67.5" font-family="Inter" font-size="10.00">msd&#45;housekeeping&#45;plugin.h</text>
</a>
</g>
</g>
<!-- Node1&#45;&gt;Node15 -->
<g id="edge19_Node000001_Node000015" class="edge">
<title>Node1&#45;&gt;Node15</title>
<g id="a_edge19_Node000001_Node000015"><a xlink:title=" ">
<path fill="none" stroke="#63b8ff" d="M1766.42,-123.4C1681.28,-115.77 1533.9,-101.65 1408,-85 1396.02,-83.42 1383.15,-81.48 1371.08,-79.55"/>
<polygon fill="#63b8ff" stroke="#63b8ff" points="1766.21,-126.9 1776.49,-124.3 1766.84,-119.93 1766.21,-126.9"/>
</a>
</g>
</g>
<!-- Node16 -->
<g id="Node000016" class="node">
<title>Node16</title>
<g id="a_Node000016"><a xlink:href="msd-keybindings-plugin_8c.html" target="_top" xlink:title=" ">
<polygon fill="white" stroke="#666666" points="1510.5,-19 1377.5,-19 1377.5,0 1510.5,0 1510.5,-19"/>
<text text-anchor="middle" x="1444" y="-7" font-family="Inter" font-size="10.00">msd&#45;keybindings&#45;plugin.c</text>
</a>
</g>
</g>
<!-- Node1&#45;&gt;Node16 -->
<g id="edge21_Node000001_Node000016" class="edge">
<title>Node1&#45;&gt;Node16</title>
<g id="a_edge21_Node000001_Node000016"><a xlink:title=" ">
<path fill="none" stroke="#63b8ff" d="M1766.22,-126.58C1658.15,-121.38 1462.24,-108.77 1441,-85 1424.61,-66.66 1434.2,-34.51 1440.24,-19.15"/>
<polygon fill="#63b8ff" stroke="#63b8ff" points="1766.24,-130.08 1776.39,-127.06 1766.57,-123.09 1766.24,-130.08"/>
</a>
</g>
</g>
<!-- Node17 -->
<g id="Node000017" class="node">
<title>Node17</title>
<g id="a_Node000017"><a xlink:href="msd-keybindings-plugin_8h.html" target="_top" xlink:title=" ">
<polygon fill="white" stroke="#666666" points="1584,-79.5 1450,-79.5 1450,-60.5 1584,-60.5 1584,-79.5"/>
<text text-anchor="middle" x="1517" y="-67.5" font-family="Inter" font-size="10.00">msd&#45;keybindings&#45;plugin.h</text>
</a>
</g>
</g>
<!-- Node1&#45;&gt;Node17 -->
<g id="edge22_Node000001_Node000017" class="edge">
<title>Node1&#45;&gt;Node17</title>
<g id="a_edge22_Node000001_Node000017"><a xlink:title=" ">
<path fill="none" stroke="#63b8ff" d="M1780.51,-119.17C1718.8,-107.89 1621.08,-90.03 1563.59,-79.52"/>
<polygon fill="#63b8ff" stroke="#63b8ff" points="1780,-122.64 1790.47,-120.99 1781.26,-115.75 1780,-122.64"/>
</a>
</g>
</g>
<!-- Node18 -->
<g id="Node000018" class="node">
<title>Node18</title>
<g id="a_Node000018"><a xlink:href="msd-keyboard-plugin_8c.html" target="_top" xlink:title=" ">
<polygon fill="white" stroke="#666666" points="1689.5,-19 1568.5,-19 1568.5,0 1689.5,0 1689.5,-19"/>
<text text-anchor="middle" x="1629" y="-7" font-family="Inter" font-size="10.00">msd&#45;keyboard&#45;plugin.c</text>
</a>
</g>
</g>
<!-- Node1&#45;&gt;Node18 -->
<g id="edge24_Node000001_Node000018" class="edge">
<title>Node1&#45;&gt;Node18</title>
<g id="a_edge24_Node000001_Node000018"><a xlink:title=" ">
<path fill="none" stroke="#63b8ff" d="M1766.38,-123.46C1713.77,-117.34 1648.2,-105.74 1631,-85 1615.31,-66.08 1621.81,-34.21 1626.2,-19.03"/>
<polygon fill="#63b8ff" stroke="#63b8ff" points="1766.05,-126.94 1776.37,-124.57 1766.82,-119.99 1766.05,-126.94"/>
</a>
</g>
</g>
<!-- Node19 -->
<g id="Node000019" class="node">
<title>Node19</title>
<g id="a_Node000019"><a xlink:href="msd-keyboard-plugin_8h.html" target="_top" xlink:title=" ">
<polygon fill="white" stroke="#666666" points="1762,-79.5 1640,-79.5 1640,-60.5 1762,-60.5 1762,-79.5"/>
<text text-anchor="middle" x="1701" y="-67.5" font-family="Inter" font-size="10.00">msd&#45;keyboard&#45;plugin.h</text>
</a>
</g>
</g>
<!-- Node1&#45;&gt;Node19 -->
<g id="edge25_Node000001_Node000019" class="edge">
<title>Node1&#45;&gt;Node19</title>
<g id="a_edge25_Node000001_Node000019"><a xlink:title=" ">
<path fill="none" stroke="#63b8ff" d="M1807.78,-116.93C1781.52,-105.64 1743.67,-89.36 1720.8,-79.52"/>
<polygon fill="#63b8ff" stroke="#63b8ff" points="1806.66,-120.26 1817.22,-120.99 1809.42,-113.83 1806.66,-120.26"/>
</a>
</g>
</g>
<!-- Node20 -->
<g id="Node000020" class="node">
<title>Node20</title>
<g id="a_Node000020"><a xlink:href="msd-media-keys-plugin_8c.html" target="_top" xlink:title=" ">
<polygon fill="white" stroke="#666666" points="1880,-19 1750,-19 1750,0 1880,0 1880,-19"/>
<text text-anchor="middle" x="1815" y="-7" font-family="Inter" font-size="10.00">msd&#45;media&#45;keys&#45;plugin.c</text>
</a>
</g>
</g>
<!-- Node1&#45;&gt;Node20 -->
<g id="edge27_Node000001_Node000020" class="edge">
<title>Node1&#45;&gt;Node20</title>
<g id="a_edge27_Node000001_Node000020"><a xlink:title=" ">
<path fill="none" stroke="#63b8ff" d="M1823.28,-112.71C1817.68,-104.8 1811.87,-94.94 1809,-85 1802.38,-62.06 1808.38,-33.61 1812.27,-19.42"/>
<polygon fill="#63b8ff" stroke="#63b8ff" points="1820.5,-114.84 1829.33,-120.7 1826.08,-110.61 1820.5,-114.84"/>
</a>
</g>
</g>
<!-- Node21 -->
<g id="Node000021" class="node">
<title>Node21</title>
<g id="a_Node000021"><a xlink:href="msd-media-keys-plugin_8h.html" target="_top" xlink:title=" ">
<polygon fill="white" stroke="#666666" points="1949.5,-79.5 1818.5,-79.5 1818.5,-60.5 1949.5,-60.5 1949.5,-79.5"/>
<text text-anchor="middle" x="1884" y="-67.5" font-family="Inter" font-size="10.00">msd&#45;media&#45;keys&#45;plugin.h</text>
</a>
</g>
</g>
<!-- Node1&#45;&gt;Node21 -->
<g id="edge28_Node000001_Node000021" class="edge">
<title>Node1&#45;&gt;Node21</title>
<g id="a_edge28_Node000001_Node000021"><a xlink:title=" ">
<path fill="none" stroke="#63b8ff" d="M1850.3,-112.95C1859,-102.12 1870.01,-88.41 1877.04,-79.67"/>
<polygon fill="#63b8ff" stroke="#63b8ff" points="1847.47,-110.88 1843.94,-120.87 1852.93,-115.26 1847.47,-110.88"/>
</a>
</g>
</g>
<!-- Node22 -->
<g id="Node000022" class="node">
<title>Node22</title>
<g id="a_Node000022"><a xlink:href="msd-mouse-plugin_8c.html" target="_top" xlink:title=" ">
<polygon fill="white" stroke="#666666" points="2054,-19 1944,-19 1944,0 2054,0 2054,-19"/>
<text text-anchor="middle" x="1999" y="-7" font-family="Inter" font-size="10.00">msd&#45;mouse&#45;plugin.c</text>
</a>
</g>
</g>
<!-- Node1&#45;&gt;Node22 -->
<g id="edge30_Node000001_Node000022" class="edge">
<title>Node1&#45;&gt;Node22</title>
<g id="a_edge30_Node000001_Node000022"><a xlink:title=" ">
<path fill="none" stroke="#63b8ff" d="M1892.11,-118.2C1914.47,-111.48 1939.37,-101.01 1958,-85 1979.27,-66.71 1991.55,-34.53 1996.47,-19.16"/>
<polygon fill="#63b8ff" stroke="#63b8ff" points="1891.05,-114.87 1882.37,-120.95 1892.95,-121.6 1891.05,-114.87"/>
</a>
</g>
</g>
<!-- Node23 -->
<g id="Node000023" class="node">
<title>Node23</title>
<g id="a_Node000023"><a xlink:href="msd-mouse-plugin_8h.html" target="_top" xlink:title=" ">
<polygon fill="white" stroke="#666666" points="2117.5,-79.5 2006.5,-79.5 2006.5,-60.5 2117.5,-60.5 2117.5,-79.5"/>
<text text-anchor="middle" x="2062" y="-67.5" font-family="Inter" font-size="10.00">msd&#45;mouse&#45;plugin.h</text>
</a>
</g>
</g>
<!-- Node1&#45;&gt;Node23 -->
<g id="edge31_Node000001_Node000023" class="edge">
<title>Node1&#45;&gt;Node23</title>
<g id="a_edge31_Node000001_Node000023"><a xlink:title=" ">
<path fill="none" stroke="#63b8ff" d="M1879.44,-118.47C1922.93,-107.16 1989.65,-89.81 2029.24,-79.52"/>
<polygon fill="#63b8ff" stroke="#63b8ff" points="1878.51,-115.09 1869.72,-120.99 1880.28,-121.86 1878.51,-115.09"/>
</a>
</g>
</g>
<!-- Node24 -->
<g id="Node000024" class="node">
<title>Node24</title>
<g id="a_Node000024"><a xlink:href="msd-mpris-plugin_8c.html" target="_top" xlink:title=" ">
<polygon fill="white" stroke="#666666" points="2219,-19 2115,-19 2115,0 2219,0 2219,-19"/>
<text text-anchor="middle" x="2167" y="-7" font-family="Inter" font-size="10.00">msd&#45;mpris&#45;plugin.c</text>
</a>
</g>
</g>
<!-- Node1&#45;&gt;Node24 -->
<g id="edge33_Node000001_Node000024" class="edge">
<title>Node1&#45;&gt;Node24</title>
<g id="a_edge33_Node000001_Node000024"><a xlink:title=" ">
<path fill="none" stroke="#63b8ff" d="M1907.92,-125.7C1981.87,-120.51 2091.73,-108.96 2126,-85 2149.23,-68.76 2160.68,-34.97 2164.95,-19.09"/>
<polygon fill="#63b8ff" stroke="#63b8ff" points="1907.47,-122.23 1897.73,-126.39 1907.94,-129.21 1907.47,-122.23"/>
</a>
</g>
</g>
<!-- Node25 -->
<g id="Node000025" class="node">
<title>Node25</title>
<g id="a_Node000025"><a xlink:href="msd-mpris-plugin_8h.html" target="_top" xlink:title=" ">
<polygon fill="white" stroke="#666666" points="2280,-79.5 2174,-79.5 2174,-60.5 2280,-60.5 2280,-79.5"/>
<text text-anchor="middle" x="2227" y="-67.5" font-family="Inter" font-size="10.00">msd&#45;mpris&#45;plugin.h</text>
</a>
</g>
</g>
<!-- Node1&#45;&gt;Node25 -->
<g id="edge34_Node000001_Node000025" class="edge">
<title>Node1&#45;&gt;Node25</title>
<g id="a_edge34_Node000001_Node000025"><a xlink:title=" ">
<path fill="none" stroke="#63b8ff" d="M1907.84,-121.17C1973.43,-113.12 2073.57,-99.97 2160,-85 2169.25,-83.4 2179.17,-81.45 2188.47,-79.53"/>
<polygon fill="#63b8ff" stroke="#63b8ff" points="1907.12,-117.73 1897.62,-122.42 1907.97,-124.68 1907.12,-117.73"/>
</a>
</g>
</g>
<!-- Node26 -->
<g id="Node000026" class="node">
<title>Node26</title>
<g id="a_Node000026"><a xlink:href="msd-rfkill-plugin_8c.html" target="_top" xlink:title=" ">
<polygon fill="white" stroke="#666666" points="2370,-19 2272,-19 2272,0 2370,0 2370,-19"/>
<text text-anchor="middle" x="2321" y="-7" font-family="Inter" font-size="10.00">msd&#45;rfkill&#45;plugin.c</text>
</a>
</g>
</g>
<!-- Node1&#45;&gt;Node26 -->
<g id="edge36_Node000001_Node000026" class="edge">
<title>Node1&#45;&gt;Node26</title>
<g id="a_edge36_Node000001_Node000026"><a xlink:title=" ">
<path fill="none" stroke="#63b8ff" d="M1907.97,-126.45C2027.51,-120.73 2258.97,-106.97 2289,-85 2310.81,-69.04 2317.91,-35.11 2320.09,-19.15"/>
<polygon fill="#63b8ff" stroke="#63b8ff" points="1907.64,-122.96 1897.81,-126.93 1907.97,-129.95 1907.64,-122.96"/>
</a>
</g>
</g>
<!-- Node27 -->
<g id="Node000027" class="node">
<title>Node27</title>
<g id="a_Node000027"><a xlink:href="msd-rfkill-plugin_8h.html" target="_top" xlink:title=" ">
<polygon fill="white" stroke="#666666" points="2436,-79.5 2336,-79.5 2336,-60.5 2436,-60.5 2436,-79.5"/>
<text text-anchor="middle" x="2386" y="-67.5" font-family="Inter" font-size="10.00">msd&#45;rfkill&#45;plugin.h</text>
</a>
</g>
</g>
<!-- Node1&#45;&gt;Node27 -->
<g id="edge37_Node000001_Node000027" class="edge">
<title>Node1&#45;&gt;Node27</title>
<g id="a_edge37_Node000001_Node000027"><a xlink:title=" ">
<path fill="none" stroke="#63b8ff" d="M1907.83,-125.76C2002.59,-120.12 2175.67,-107.63 2322,-85 2331.33,-83.56 2341.34,-81.58 2350.6,-79.56"/>
<polygon fill="#63b8ff" stroke="#63b8ff" points="1907.56,-122.27 1897.78,-126.35 1907.97,-129.25 1907.56,-122.27"/>
</a>
</g>
</g>
<!-- Node28 -->
<g id="Node000028" class="node">
<title>Node28</title>
<g id="a_Node000028"><a xlink:href="msd-smartcard-plugin_8c.html" target="_top" xlink:title=" ">
<polygon fill="white" stroke="#666666" points="2550.5,-19 2425.5,-19 2425.5,0 2550.5,0 2550.5,-19"/>
<text text-anchor="middle" x="2488" y="-7" font-family="Inter" font-size="10.00">msd&#45;smartcard&#45;plugin.c</text>
</a>
</g>
</g>
<!-- Node1&#45;&gt;Node28 -->
<g id="edge39_Node000001_Node000028" class="edge">
<title>Node1&#45;&gt;Node28</title>
<g id="a_edge39_Node000001_Node000028"><a xlink:title=" ">
<path fill="none" stroke="#63b8ff" d="M1907.81,-128.01C2058.41,-124.33 2400.44,-112.95 2445,-85 2469.29,-69.76 2481.33,-35.48 2485.84,-19.28"/>
<polygon fill="#63b8ff" stroke="#63b8ff" points="1907.65,-124.52 1897.74,-128.26 1907.82,-131.52 1907.65,-124.52"/>
</a>
</g>
</g>
<!-- Node29 -->
<g id="Node000029" class="node">
<title>Node29</title>
<g id="a_Node000029"><a xlink:href="msd-smartcard-plugin_8h.html" target="_top" xlink:title=" ">
<polygon fill="white" stroke="#666666" points="2618,-79.5 2492,-79.5 2492,-60.5 2618,-60.5 2618,-79.5"/>
<text text-anchor="middle" x="2555" y="-67.5" font-family="Inter" font-size="10.00">msd&#45;smartcard&#45;plugin.h</text>
</a>
</g>
</g>
<!-- Node1&#45;&gt;Node29 -->
<g id="edge40_Node000001_Node000029" class="edge">
<title>Node1&#45;&gt;Node29</title>
<g id="a_edge40_Node000001_Node000029"><a xlink:title=" ">
<path fill="none" stroke="#63b8ff" d="M1907.78,-127.14C2026.19,-122.63 2271.77,-110.83 2478,-85 2489.32,-83.58 2501.51,-81.59 2512.77,-79.55"/>
<polygon fill="#63b8ff" stroke="#63b8ff" points="1907.62,-123.65 1897.75,-127.52 1907.88,-130.64 1907.62,-123.65"/>
</a>
</g>
</g>
<!-- Node30 -->
<g id="Node000030" class="node">
<title>Node30</title>
<g id="a_Node000030"><a xlink:href="msd-sound-plugin_8c.html" target="_top" xlink:title=" ">
<polygon fill="white" stroke="#666666" points="2711.5,-19 2604.5,-19 2604.5,0 2711.5,0 2711.5,-19"/>
<text text-anchor="middle" x="2658" y="-7" font-family="Inter" font-size="10.00">msd&#45;sound&#45;plugin.c</text>
</a>
</g>
</g>
<!-- Node1&#45;&gt;Node30 -->
<g id="edge42_Node000001_Node000030" class="edge">
<title>Node1&#45;&gt;Node30</title>
<g id="a_edge42_Node000001_Node000030"><a xlink:title=" ">
<path fill="none" stroke="#63b8ff" d="M1907.77,-129.75C2090.72,-129.81 2569.14,-125.99 2627,-85 2648.95,-69.45 2655.41,-35.32 2657.27,-19.23"/>
<polygon fill="#63b8ff" stroke="#63b8ff" points="1907.72,-126.25 1897.72,-129.74 1907.71,-133.25 1907.72,-126.25"/>
</a>
</g>
</g>
<!-- Node31 -->
<g id="Node000031" class="node">
<title>Node31</title>
<g id="a_Node000031"><a xlink:href="msd-sound-plugin_8h.html" target="_top" xlink:title=" ">
<polygon fill="white" stroke="#666666" points="2782,-79.5 2674,-79.5 2674,-60.5 2782,-60.5 2782,-79.5"/>
<text text-anchor="middle" x="2728" y="-67.5" font-family="Inter" font-size="10.00">msd&#45;sound&#45;plugin.h</text>
</a>
</g>
</g>
<!-- Node1&#45;&gt;Node31 -->
<g id="edge43_Node000001_Node000031" class="edge">
<title>Node1&#45;&gt;Node31</title>
<g id="a_edge43_Node000001_Node000031"><a xlink:title=" ">
<path fill="none" stroke="#63b8ff" d="M1908.06,-129.21C2051.04,-127.85 2383.45,-120.74 2660,-85 2670.28,-83.67 2681.33,-81.66 2691.47,-79.56"/>
<polygon fill="#63b8ff" stroke="#63b8ff" points="1907.65,-125.72 1897.68,-129.31 1907.71,-132.72 1907.65,-125.72"/>
</a>
</g>
</g>
<!-- Node32 -->
<g id="Node000032" class="node">
<title>Node32</title>
<g id="a_Node000032"><a xlink:href="msd-typing-break-plugin_8c.html" target="_top" xlink:title=" ">
<polygon fill="white" stroke="#666666" points="2904.5,-19 2767.5,-19 2767.5,0 2904.5,0 2904.5,-19"/>
<text text-anchor="middle" x="2836" y="-7" font-family="Inter" font-size="10.00">msd&#45;typing&#45;break&#45;plugin.c</text>
</a>
</g>
</g>
<!-- Node1&#45;&gt;Node32 -->
<g id="edge45_Node000001_Node000032" class="edge">
<title>Node1&#45;&gt;Node32</title>
<g id="a_edge45_Node000001_Node000032"><a xlink:title=" ">
<path fill="none" stroke="#63b8ff" d="M1907.92,-130.01C2116.14,-130.96 2715.83,-129.76 2791,-85 2815.93,-70.16 2828.78,-35.67 2833.64,-19.36"/>
<polygon fill="#63b8ff" stroke="#63b8ff" points="1907.73,-126.5 1897.71,-129.96 1907.7,-133.5 1907.73,-126.5"/>
</a>
</g>
</g>
<!-- Node33 -->
<g id="Node000033" class="node">
<title>Node33</title>
<g id="a_Node000033"><a xlink:href="msd-typing-break-plugin_8h.html" target="_top" xlink:title=" ">
<polygon fill="white" stroke="#666666" points="2976,-79.5 2838,-79.5 2838,-60.5 2976,-60.5 2976,-79.5"/>
<text text-anchor="middle" x="2907" y="-67.5" font-family="Inter" font-size="10.00">msd&#45;typing&#45;break&#45;plugin.h</text>
</a>
</g>
</g>
<!-- Node1&#45;&gt;Node33 -->
<g id="edge46_Node000001_Node000033" class="edge">
<title>Node1&#45;&gt;Node33</title>
<g id="a_edge46_Node000001_Node000033"><a xlink:title=" ">
<path fill="none" stroke="#63b8ff" d="M1907.9,-129.27C2070.4,-128.08 2482.06,-121.41 2824,-85 2836.5,-83.67 2849.96,-81.65 2862.34,-79.56"/>
<polygon fill="#63b8ff" stroke="#63b8ff" points="1907.54,-125.77 1897.56,-129.34 1907.58,-132.77 1907.54,-125.77"/>
</a>
</g>
</g>
<!-- Node34 -->
<g id="Node000034" class="node">
<title>Node34</title>
<g id="a_Node000034"><a xlink:href="msd-xrandr-plugin_8c.html" target="_top" xlink:title=" ">
<polygon fill="white" stroke="#666666" points="3080.5,-19 2971.5,-19 2971.5,0 3080.5,0 3080.5,-19"/>
<text text-anchor="middle" x="3026" y="-7" font-family="Inter" font-size="10.00">msd&#45;xrandr&#45;plugin.c</text>
</a>
</g>
</g>
<!-- Node1&#45;&gt;Node34 -->
<g id="edge48_Node000001_Node000034" class="edge">
<title>Node1&#45;&gt;Node34</title>
<g id="a_edge48_Node000001_Node000034"><a xlink:title=" ">
<path fill="none" stroke="#63b8ff" d="M1907.64,-128.67C2150.55,-125.57 2939.1,-113.35 2985,-85 3009.12,-70.11 3020.12,-35.65 3024.12,-19.35"/>
<polygon fill="#63b8ff" stroke="#63b8ff" points="1907.47,-125.17 1897.52,-128.8 1907.56,-132.17 1907.47,-125.17"/>
</a>
</g>
</g>
<!-- Node35 -->
<g id="Node000035" class="node">
<title>Node35</title>
<g id="a_Node000035"><a xlink:href="msd-xrandr-plugin_8h.html" target="_top" xlink:title=" ">
<polygon fill="white" stroke="#666666" points="3142,-79.5 3032,-79.5 3032,-60.5 3142,-60.5 3142,-79.5"/>
<text text-anchor="middle" x="3087" y="-67.5" font-family="Inter" font-size="10.00">msd&#45;xrandr&#45;plugin.h</text>
</a>
</g>
</g>
<!-- Node1&#45;&gt;Node35 -->
<g id="edge49_Node000001_Node000035" class="edge">
<title>Node1&#45;&gt;Node35</title>
<g id="a_edge49_Node000001_Node000035"><a xlink:title=" ">
<path fill="none" stroke="#63b8ff" d="M1907.8,-128.34C2128.35,-124.5 2801.16,-110.91 3018,-85 3028.68,-83.72 3040.17,-81.67 3050.65,-79.53"/>
<polygon fill="#63b8ff" stroke="#63b8ff" points="1907.58,-124.85 1897.65,-128.52 1907.7,-131.84 1907.58,-124.85"/>
</a>
</g>
</g>
<!-- Node36 -->
<g id="Node000036" class="node">
<title>Node36</title>
<g id="a_Node000036"><a xlink:href="msd-xrdb-plugin_8c.html" target="_top" xlink:title=" ">
<polygon fill="white" stroke="#666666" points="3234.5,-19 3135.5,-19 3135.5,0 3234.5,0 3234.5,-19"/>
<text text-anchor="middle" x="3185" y="-7" font-family="Inter" font-size="10.00">msd&#45;xrdb&#45;plugin.c</text>
</a>
</g>
</g>
<!-- Node1&#45;&gt;Node36 -->
<g id="edge51_Node000001_Node000036" class="edge">
<title>Node1&#45;&gt;Node36</title>
<g id="a_edge51_Node000001_Node000036"><a xlink:title=" ">
<path fill="none" stroke="#63b8ff" d="M1907.89,-129.15C2173.73,-127.59 3099,-119.69 3151,-85 3173.71,-69.85 3181.48,-35.52 3183.95,-19.3"/>
<polygon fill="#63b8ff" stroke="#63b8ff" points="1907.57,-125.66 1897.59,-129.21 1907.61,-132.66 1907.57,-125.66"/>
</a>
</g>
</g>
<!-- Node37 -->
<g id="Node000037" class="node">
<title>Node37</title>
<g id="a_Node000037"><a xlink:href="msd-xrdb-plugin_8h.html" target="_top" xlink:title=" ">
<polygon fill="white" stroke="#666666" points="3299.5,-79.5 3198.5,-79.5 3198.5,-60.5 3299.5,-60.5 3299.5,-79.5"/>
<text text-anchor="middle" x="3249" y="-67.5" font-family="Inter" font-size="10.00">msd&#45;xrdb&#45;plugin.h</text>
</a>
</g>
</g>
<!-- Node1&#45;&gt;Node37 -->
<g id="edge52_Node000001_Node000037" class="edge">
<title>Node1&#45;&gt;Node37</title>
<g id="a_edge52_Node000001_Node000037"><a xlink:title=" ">
<path fill="none" stroke="#63b8ff" d="M1907.76,-128.84C2148.31,-126.31 2933.46,-115.87 3184,-85 3194.08,-83.76 3204.91,-81.72 3214.79,-79.57"/>
<polygon fill="#63b8ff" stroke="#63b8ff" points="1907.7,-125.34 1897.73,-128.94 1907.77,-132.34 1907.7,-125.34"/>
</a>
</g>
</g>
<!-- Node38 -->
<g id="Node000038" class="node">
<title>Node38</title>
<g id="a_Node000038"><a xlink:href="msd-xsettings-plugin_8c.html" target="_top" xlink:title=" ">
<polygon fill="white" stroke="#666666" points="3432,-19 3312,-19 3312,0 3432,0 3432,-19"/>
<text text-anchor="middle" x="3372" y="-7" font-family="Inter" font-size="10.00">msd&#45;xsettings&#45;plugin.c</text>
</a>
</g>
</g>
<!-- Node1&#45;&gt;Node38 -->
<g id="edge54_Node000001_Node000038" class="edge">
<title>Node1&#45;&gt;Node38</title>
<g id="a_edge54_Node000001_Node000038"><a xlink:title=" ">
<path fill="none" stroke="#63b8ff" d="M1907.85,-128.94C2192.96,-126.5 3244.27,-115.44 3308,-85 3337.54,-70.89 3358.77,-36.04 3367.54,-19.49"/>
<polygon fill="#63b8ff" stroke="#63b8ff" points="1907.6,-125.44 1897.63,-129.03 1907.66,-132.44 1907.6,-125.44"/>
</a>
</g>
</g>
<!-- Node39 -->
<g id="Node000039" class="node">
<title>Node39</title>
<g id="a_Node000039"><a xlink:href="msd-xsettings-plugin_8h.html" target="_top" xlink:title=" ">
<polygon fill="white" stroke="#666666" points="3478,-79.5 3356,-79.5 3356,-60.5 3478,-60.5 3478,-79.5"/>
<text text-anchor="middle" x="3417" y="-67.5" font-family="Inter" font-size="10.00">msd&#45;xsettings&#45;plugin.h</text>
</a>
</g>
</g>
<!-- Node1&#45;&gt;Node39 -->
<g id="edge55_Node000001_Node000039" class="edge">
<title>Node1&#45;&gt;Node39</title>
<g id="a_edge55_Node000001_Node000039"><a xlink:title=" ">
<path fill="none" stroke="#63b8ff" d="M1907.6,-128.86C2165.83,-126.32 3058.59,-115.46 3342,-85 3353.59,-83.75 3366.07,-81.71 3377.47,-79.57"/>
<polygon fill="#63b8ff" stroke="#63b8ff" points="1907.56,-125.37 1897.6,-128.96 1907.63,-132.36 1907.56,-125.37"/>
</a>
</g>
</g>
<!-- Node5&#45;&gt;Node4 -->
<g id="edge5_Node000005_Node000004" class="edge">
<title>Node5&#45;&gt;Node4</title>
<g id="a_edge5_Node000005_Node000004"><a xlink:title=" ">
<path fill="none" stroke="#63b8ff" d="M363.95,-53.09C352.94,-42.17 338.73,-28.08 329.74,-19.17"/>
<polygon fill="#63b8ff" stroke="#63b8ff" points="361.73,-55.81 371.29,-60.37 366.66,-50.84 361.73,-55.81"/>
</a>
</g>
</g>
<!-- Node7&#45;&gt;Node6 -->
<g id="edge8_Node000007_Node000006" class="edge">
<title>Node7&#45;&gt;Node6</title>
<g id="a_edge8_Node000007_Node000006"><a xlink:title=" ">
<path fill="none" stroke="#63b8ff" d="M561.46,-54.35C546.69,-43.27 526.9,-28.43 514.56,-19.17"/>
<polygon fill="#63b8ff" stroke="#63b8ff" points="559.39,-57.17 569.49,-60.37 563.59,-51.57 559.39,-57.17"/>
</a>
</g>
</g>
<!-- Node9&#45;&gt;Node8 -->
<g id="edge11_Node000009_Node000008" class="edge">
<title>Node9&#45;&gt;Node8</title>
<g id="a_edge11_Node000009_Node000008"><a xlink:title=" ">
<path fill="none" stroke="#63b8ff" d="M756.33,-54.04C742.54,-42.99 724.26,-28.34 712.82,-19.17"/>
<polygon fill="#63b8ff" stroke="#63b8ff" points="754.24,-56.85 764.23,-60.37 758.61,-51.38 754.24,-56.85"/>
</a>
</g>
</g>
<!-- Node11&#45;&gt;Node10 -->
<g id="edge14_Node000011_Node000010" class="edge">
<title>Node11&#45;&gt;Node10</title>
<g id="a_edge14_Node000011_Node000010"><a xlink:title=" ">
<path fill="none" stroke="#63b8ff" d="M941.24,-53.72C928.45,-42.71 911.64,-28.25 901.07,-19.17"/>
<polygon fill="#63b8ff" stroke="#63b8ff" points="939.1,-56.5 948.97,-60.37 943.67,-51.19 939.1,-56.5"/>
</a>
</g>
</g>
<!-- Node13&#45;&gt;Node12 -->
<g id="edge17_Node000013_Node000012" class="edge">
<title>Node13&#45;&gt;Node12</title>
<g id="a_edge17_Node000013_Node000012"><a xlink:title=" ">
<path fill="none" stroke="#63b8ff" d="M1115.07,-54.04C1101.1,-42.99 1082.57,-28.34 1070.96,-19.17"/>
<polygon fill="#63b8ff" stroke="#63b8ff" points="1113.07,-56.91 1123.08,-60.37 1117.41,-51.42 1113.07,-56.91"/>
</a>
</g>
</g>
<!-- Node15&#45;&gt;Node14 -->
<g id="edge20_Node000015_Node000014" class="edge">
<title>Node15&#45;&gt;Node14</title>
<g id="a_edge20_Node000015_Node000014"><a xlink:title=" ">
<path fill="none" stroke="#63b8ff" d="M1301.21,-54.35C1286.25,-43.27 1266.21,-28.43 1253.7,-19.17"/>
<polygon fill="#63b8ff" stroke="#63b8ff" points="1299.22,-57.23 1309.34,-60.37 1303.39,-51.6 1299.22,-57.23"/>
</a>
</g>
</g>
<!-- Node17&#45;&gt;Node16 -->
<g id="edge23_Node000017_Node000016" class="edge">
<title>Node17&#45;&gt;Node16</title>
<g id="a_edge23_Node000017_Node000016"><a xlink:title=" ">
<path fill="none" stroke="#63b8ff" d="M1498.33,-54.04C1484.54,-42.99 1466.26,-28.34 1454.82,-19.17"/>
<polygon fill="#63b8ff" stroke="#63b8ff" points="1496.24,-56.85 1506.23,-60.37 1500.61,-51.38 1496.24,-56.85"/>
</a>
</g>
</g>
<!-- Node19&#45;&gt;Node18 -->
<g id="edge26_Node000019_Node000018" class="edge">
<title>Node19&#45;&gt;Node18</title>
<g id="a_edge26_Node000019_Node000018"><a xlink:title=" ">
<path fill="none" stroke="#63b8ff" d="M1682.58,-54.04C1668.99,-42.99 1650.96,-28.34 1639.67,-19.17"/>
<polygon fill="#63b8ff" stroke="#63b8ff" points="1680.41,-56.78 1690.38,-60.37 1684.82,-51.35 1680.41,-56.78"/>
</a>
</g>
</g>
<!-- Node21&#45;&gt;Node20 -->
<g id="edge29_Node000021_Node000020" class="edge">
<title>Node21&#45;&gt;Node20</title>
<g id="a_edge29_Node000021_Node000020"><a xlink:title=" ">
<path fill="none" stroke="#63b8ff" d="M1865.98,-53.72C1853,-42.71 1835.94,-28.25 1825.22,-19.17"/>
<polygon fill="#63b8ff" stroke="#63b8ff" points="1863.93,-56.57 1873.82,-60.37 1868.45,-51.23 1863.93,-56.57"/>
</a>
</g>
</g>
<!-- Node23&#45;&gt;Node22 -->
<g id="edge32_Node000023_Node000022" class="edge">
<title>Node23&#45;&gt;Node22</title>
<g id="a_edge32_Node000023_Node000022"><a xlink:title=" ">
<path fill="none" stroke="#63b8ff" d="M2045.21,-53.41C2033.4,-42.44 2018.03,-28.17 2008.33,-19.17"/>
<polygon fill="#63b8ff" stroke="#63b8ff" points="2042.99,-56.13 2052.7,-60.37 2047.76,-51 2042.99,-56.13"/>
</a>
</g>
</g>
<!-- Node25&#45;&gt;Node24 -->
<g id="edge35_Node000025_Node000024" class="edge">
<title>Node25&#45;&gt;Node24</title>
<g id="a_edge35_Node000025_Node000024"><a xlink:title=" ">
<path fill="none" stroke="#63b8ff" d="M2210.68,-53.09C2199.48,-42.17 2185.03,-28.08 2175.89,-19.17"/>
<polygon fill="#63b8ff" stroke="#63b8ff" points="2208.54,-55.89 2218.15,-60.37 2213.43,-50.88 2208.54,-55.89"/>
</a>
</g>
</g>
<!-- Node27&#45;&gt;Node26 -->
<g id="edge38_Node000027_Node000026" class="edge">
<title>Node27&#45;&gt;Node26</title>
<g id="a_edge38_Node000027_Node000026"><a xlink:title=" ">
<path fill="none" stroke="#63b8ff" d="M2368.68,-53.41C2356.49,-42.44 2340.63,-28.17 2330.63,-19.17"/>
<polygon fill="#63b8ff" stroke="#63b8ff" points="2366.63,-56.28 2376.41,-60.37 2371.32,-51.08 2366.63,-56.28"/>
</a>
</g>
</g>
<!-- Node29&#45;&gt;Node28 -->
<g id="edge41_Node000029_Node000028" class="edge">
<title>Node29&#45;&gt;Node28</title>
<g id="a_edge41_Node000029_Node000028"><a xlink:title=" ">
<path fill="none" stroke="#63b8ff" d="M2537.5,-53.72C2524.9,-42.71 2508.33,-28.25 2497.93,-19.17"/>
<polygon fill="#63b8ff" stroke="#63b8ff" points="2535.28,-56.43 2545.11,-60.37 2539.88,-51.15 2535.28,-56.43"/>
</a>
</g>
</g>
<!-- Node31&#45;&gt;Node30 -->
<g id="edge44_Node000031_Node000030" class="edge">
<title>Node31&#45;&gt;Node30</title>
<g id="a_edge44_Node000031_Node000030"><a xlink:title=" ">
<path fill="none" stroke="#63b8ff" d="M2709.72,-53.72C2696.55,-42.71 2679.24,-28.25 2668.37,-19.17"/>
<polygon fill="#63b8ff" stroke="#63b8ff" points="2707.75,-56.64 2717.67,-60.37 2712.24,-51.27 2707.75,-56.64"/>
</a>
</g>
</g>
<!-- Node33&#45;&gt;Node32 -->
<g id="edge47_Node000033_Node000032" class="edge">
<title>Node33&#45;&gt;Node32</title>
<g id="a_edge47_Node000033_Node000032"><a xlink:title=" ">
<path fill="none" stroke="#63b8ff" d="M2888.46,-53.72C2875.1,-42.71 2857.55,-28.25 2846.52,-19.17"/>
<polygon fill="#63b8ff" stroke="#63b8ff" points="2886.58,-56.71 2896.52,-60.37 2891.03,-51.31 2886.58,-56.71"/>
</a>
</g>
</g>
<!-- Node35&#45;&gt;Node34 -->
<g id="edge50_Node000035_Node000034" class="edge">
<title>Node35&#45;&gt;Node34</title>
<g id="a_edge50_Node000035_Node000034"><a xlink:title=" ">
<path fill="none" stroke="#63b8ff" d="M3070.74,-53.41C3059.3,-42.44 3044.42,-28.17 3035.04,-19.17"/>
<polygon fill="#63b8ff" stroke="#63b8ff" points="3068.36,-55.97 3078,-60.37 3073.2,-50.92 3068.36,-55.97"/>
</a>
</g>
</g>
<!-- Node37&#45;&gt;Node36 -->
<g id="edge53_Node000037_Node000036" class="edge">
<title>Node37&#45;&gt;Node36</title>
<g id="a_edge53_Node000037_Node000036"><a xlink:title=" ">
<path fill="none" stroke="#63b8ff" d="M3231.94,-53.41C3219.94,-42.44 3204.33,-28.17 3194.48,-19.17"/>
<polygon fill="#63b8ff" stroke="#63b8ff" points="3229.81,-56.2 3239.56,-60.37 3234.54,-51.04 3229.81,-56.2"/>
</a>
</g>
</g>
<!-- Node39&#45;&gt;Node38 -->
<g id="edge56_Node000039_Node000038" class="edge">
<title>Node39&#45;&gt;Node38</title>
<g id="a_edge56_Node000039_Node000038"><a xlink:title=" ">
<path fill="none" stroke="#63b8ff" d="M3404.02,-52.13C3395.73,-41.35 3385.32,-27.82 3378.67,-19.17"/>
<polygon fill="#63b8ff" stroke="#63b8ff" points="3401.49,-54.58 3410.36,-60.37 3407.04,-50.31 3401.49,-54.58"/>
</a>
</g>
</g>
</g>
</svg>

<g id="navigator" transform="translate(0 0)" fill="#404254">
  <rect fill="#f2f5e9" fill-opacity="0.5" stroke="#606060" stroke-width=".5" x="0" y="0" width="60" height="60"/>
  <use id="zoomplus" xlink:href="#zoomPlus" x="17" y="9" onmousedown="handleZoom(evt,'in')"/>
  <use id="zoomminus" xlink:href="#zoomMin" x="42" y="9" onmousedown="handleZoom(evt,'out')"/>
  <use id="reset" xlink:href="#resetDef" x="30" y="36" onmousedown="handleReset()"/>
   <use id="arrowup" xlink:href="#arrowUp" x="0" y="0" onmousedown="handlePan(0,-1)"/>
  <use id="arrowright" xlink:href="#arrowRight" x="0" y="0" onmousedown="handlePan(1,0)"/>
  <use id="arrowdown" xlink:href="#arrowDown" x="0" y="0" onmousedown="handlePan(0,1)"/>
  <use id="arrowleft" xlink:href="#arrowLeft" x="0" y="0" onmousedown="handlePan(-1,0)"/>
</g>
<svg viewBox="0 0 15 15" width="100%" height="30px" preserveAspectRatio="xMaxYMin meet">
 <g id="arrow_out" transform="scale(0.3 0.3)">
  <a xlink:href="mate-settings-plugin_8h__dep__incl_org.svg" target="_base">
   <rect id="button" ry="5" rx="5" y="6" x="6" height="38" width="38"
        fill="#f2f5e9" fill-opacity="0.5" stroke="#606060" stroke-width="1.0"/>
   <path id="arrow"
     d="M 11.500037,31.436501 C 11.940474,20.09759 22.043105,11.32322 32.158766,21.979434 L 37.068811,17.246167 C 37.068811,17.246167 37.088388,32 37.088388,32 L 22.160133,31.978069 C 22.160133,31.978069 26.997745,27.140456 26.997745,27.140456 C 18.528582,18.264221 13.291696,25.230495 11.500037,31.436501 z"
     style="fill:#404040;"/>
  </a>
 </g>
</svg>

<style type='text/css'>
<![CDATA[
[data-mouse-over-selected='false'] { opacity: 0.7; }
[data-mouse-over-selected='true']  { opacity: 1.0; }
]]>
</style>
<script type="application/ecmascript"><![CDATA[
document.addEventListener('DOMContentLoaded', (event) => {
  highlightEdges();
  highlightAdjacentNodes();
});
]]></script>
</svg>
