<?xml version="1.0" encoding="UTF-8" standalone="no"?>
<!DOCTYPE svg PUBLIC "-//W3C//DTD SVG 1.1//EN"
 "http://www.w3.org/Graphics/SVG/1.1/DTD/svg11.dtd">
<!-- Generated by graphviz version 2.43.0 (0)
 -->
<!-- Title: applet.h Pages: 1 -->
<svg width="378pt" height="137pt"
 viewBox="0.00 0.00 378.00 137.00" xmlns="http://www.w3.org/2000/svg" xmlns:xlink="http://www.w3.org/1999/xlink">
<g id="graph0" class="graph" transform="scale(1 1) rotate(0) translate(4 133)">
<title>applet.h</title>
<!-- Node1 -->
<g id="Node000001" class="node">
<title>Node1</title>
<g id="a_Node000001"><a xlink:title=" ">
<polygon fill="#999999" stroke="#666666" points="126,-129 71,-129 71,-110 126,-110 126,-129"/>
<text text-anchor="middle" x="98.5" y="-117" font-family="Inter" font-size="10.00">applet.h</text>
</a>
</g>
</g>
<!-- Node2 -->
<g id="Node000002" class="node">
<title>Node2</title>
<g id="a_Node000002"><a xlink:title=" ">
<polygon fill="#e0e0e0" stroke="#999999" points="59,-19 0,-19 0,0 59,0 59,-19"/>
<text text-anchor="middle" x="29.5" y="-7" font-family="Inter" font-size="10.00">gtk/gtk.h</text>
</a>
</g>
</g>
<!-- Node1&#45;&gt;Node2 -->
<g id="edge1_Node000001_Node000002" class="edge">
<title>Node1&#45;&gt;Node2</title>
<g id="a_edge1_Node000001_Node000002"><a xlink:title=" ">
<path fill="none" stroke="#63b8ff" d="M92.85,-109.66C81.42,-91.77 55.38,-51 40.48,-27.69"/>
<polygon fill="#63b8ff" stroke="#63b8ff" points="43.37,-25.7 35.03,-19.16 37.47,-29.47 43.37,-25.7"/>
</a>
</g>
</g>
<!-- Node3 -->
<g id="Node000003" class="node">
<title>Node3</title>
<g id="a_Node000003"><a xlink:href="mate-panel-applet_8h.html" target="_top" xlink:title=" ">
<polygon fill="white" stroke="#666666" points="209.5,-74 99.5,-74 99.5,-55 209.5,-55 209.5,-74"/>
<text text-anchor="middle" x="154.5" y="-62" font-family="Inter" font-size="10.00">mate&#45;panel&#45;applet.h</text>
</a>
</g>
</g>
<!-- Node1&#45;&gt;Node3 -->
<g id="edge2_Node000001_Node000003" class="edge">
<title>Node1&#45;&gt;Node3</title>
<g id="a_edge2_Node000001_Node000003"><a xlink:title=" ">
<path fill="none" stroke="#63b8ff" d="M107.5,-109.98C115.69,-102.23 128.01,-90.58 137.97,-81.14"/>
<polygon fill="#63b8ff" stroke="#63b8ff" points="140.48,-83.59 145.34,-74.17 135.67,-78.5 140.48,-83.59"/>
</a>
</g>
</g>
<!-- Node3&#45;&gt;Node2 -->
<g id="edge4_Node000003_Node000002" class="edge">
<title>Node3&#45;&gt;Node2</title>
<g id="a_edge4_Node000003_Node000002"><a xlink:title=" ">
<path fill="none" stroke="#63b8ff" d="M134.42,-54.98C114.13,-46.38 82.54,-32.99 59.33,-23.15"/>
<polygon fill="#63b8ff" stroke="#63b8ff" points="60.52,-19.85 49.95,-19.17 57.79,-26.3 60.52,-19.85"/>
</a>
</g>
</g>
<!-- Node4 -->
<g id="Node000004" class="node">
<title>Node4</title>
<g id="a_Node000004"><a xlink:title=" ">
<polygon fill="#e0e0e0" stroke="#999999" points="119.5,-19 77.5,-19 77.5,0 119.5,0 119.5,-19"/>
<text text-anchor="middle" x="98.5" y="-7" font-family="Inter" font-size="10.00">glib.h</text>
</a>
</g>
</g>
<!-- Node3&#45;&gt;Node4 -->
<g id="edge3_Node000003_Node000004" class="edge">
<title>Node3&#45;&gt;Node4</title>
<g id="a_edge3_Node000003_Node000004"><a xlink:title=" ">
<path fill="none" stroke="#63b8ff" d="M145.5,-54.98C137.31,-47.23 124.99,-35.58 115.03,-26.14"/>
<polygon fill="#63b8ff" stroke="#63b8ff" points="117.33,-23.5 107.66,-19.17 112.52,-28.59 117.33,-23.5"/>
</a>
</g>
</g>
<!-- Node5 -->
<g id="Node000005" class="node">
<title>Node5</title>
<g id="a_Node000005"><a xlink:title=" ">
<polygon fill="#e0e0e0" stroke="#999999" points="201.5,-19 137.5,-19 137.5,0 201.5,0 201.5,-19"/>
<text text-anchor="middle" x="169.5" y="-7" font-family="Inter" font-size="10.00">gdk/gdk.h</text>
</a>
</g>
</g>
<!-- Node3&#45;&gt;Node5 -->
<g id="edge5_Node000003_Node000005" class="edge">
<title>Node3&#45;&gt;Node5</title>
<g id="a_edge5_Node000003_Node000005"><a xlink:title=" ">
<path fill="none" stroke="#63b8ff" d="M156.98,-54.75C158.96,-47.72 161.82,-37.62 164.31,-28.84"/>
<polygon fill="#63b8ff" stroke="#63b8ff" points="167.71,-29.66 167.07,-19.09 160.98,-27.76 167.71,-29.66"/>
</a>
</g>
</g>
<!-- Node6 -->
<g id="Node000006" class="node">
<title>Node6</title>
<g id="a_Node000006"><a xlink:title=" ">
<polygon fill="#e0e0e0" stroke="#999999" points="267,-19 220,-19 220,0 267,0 267,-19"/>
<text text-anchor="middle" x="243.5" y="-7" font-family="Inter" font-size="10.00">cairo.h</text>
</a>
</g>
</g>
<!-- Node3&#45;&gt;Node6 -->
<g id="edge6_Node000003_Node000006" class="edge">
<title>Node3&#45;&gt;Node6</title>
<g id="a_edge6_Node000003_Node000006"><a xlink:title=" ">
<path fill="none" stroke="#63b8ff" d="M168.8,-54.98C182.6,-46.77 203.74,-34.18 220.01,-24.49"/>
<polygon fill="#63b8ff" stroke="#63b8ff" points="222.14,-27.29 228.94,-19.17 218.56,-21.28 222.14,-27.29"/>
</a>
</g>
</g>
<!-- Node7 -->
<g id="Node000007" class="node">
<title>Node7</title>
<g id="a_Node000007"><a xlink:title=" ">
<polygon fill="#e0e0e0" stroke="#999999" points="370,-19 285,-19 285,0 370,0 370,-19"/>
<text text-anchor="middle" x="327.5" y="-7" font-family="Inter" font-size="10.00">cairo&#45;gobject.h</text>
</a>
</g>
</g>
<!-- Node3&#45;&gt;Node7 -->
<g id="edge7_Node000003_Node000007" class="edge">
<title>Node3&#45;&gt;Node7</title>
<g id="a_edge7_Node000003_Node000007"><a xlink:title=" ">
<path fill="none" stroke="#63b8ff" d="M182.3,-54.98C211.47,-46.05 257.5,-31.94 289.9,-22.02"/>
<polygon fill="#63b8ff" stroke="#63b8ff" points="290.95,-25.36 299.49,-19.08 288.9,-18.66 290.95,-25.36"/>
</a>
</g>
</g>
</g>
</svg>
