<?xml version="1.0" encoding="UTF-8" standalone="no"?>
<!DOCTYPE svg PUBLIC "-//W3C//DTD SVG 1.1//EN"
 "http://www.w3.org/Graphics/SVG/1.1/DTD/svg11.dtd">
<!-- Generated by graphviz version 2.43.0 (0)
 -->
<!-- Title: mate&#45;languages.c Pages: 1 -->
<svg width="1051pt" height="137pt"
 viewBox="0.00 0.00 1051.00 137.00" xmlns="http://www.w3.org/2000/svg" xmlns:xlink="http://www.w3.org/1999/xlink">
<g id="graph0" class="graph" transform="scale(1 1) rotate(0) translate(4 133)">
<title>mate&#45;languages.c</title>
<!-- Node1 -->
<g id="Node000001" class="node">
<title>Node1</title>
<g id="a_Node000001"><a xlink:title=" ">
<polygon fill="#999999" stroke="#666666" points="531,-129 433,-129 433,-110 531,-110 531,-129"/>
<text text-anchor="middle" x="482" y="-117" font-family="Inter" font-size="10.00">mate&#45;languages.c</text>
</a>
</g>
</g>
<!-- Node2 -->
<g id="Node000002" class="node">
<title>Node2</title>
<g id="a_Node000002"><a xlink:title=" ">
<polygon fill="#e0e0e0" stroke="#999999" points="54,-74 0,-74 0,-55 54,-55 54,-74"/>
<text text-anchor="middle" x="27" y="-62" font-family="Inter" font-size="10.00">config.h</text>
</a>
</g>
</g>
<!-- Node1&#45;&gt;Node2 -->
<g id="edge1_Node000001_Node000002" class="edge">
<title>Node1&#45;&gt;Node2</title>
<g id="a_edge1_Node000001_Node000002"><a xlink:title=" ">
<path fill="none" stroke="#63b8ff" d="M432.7,-115.29C355.93,-109.84 203.07,-97.23 64.04,-73.97"/>
<polygon fill="#63b8ff" stroke="#63b8ff" points="64.5,-70.49 54.05,-72.27 63.33,-77.4 64.5,-70.49"/>
</a>
</g>
</g>
<!-- Node3 -->
<g id="Node000003" class="node">
<title>Node3</title>
<g id="a_Node000003"><a xlink:title=" ">
<polygon fill="#e0e0e0" stroke="#999999" points="122,-74 72,-74 72,-55 122,-55 122,-74"/>
<text text-anchor="middle" x="97" y="-62" font-family="Inter" font-size="10.00">stdlib.h</text>
</a>
</g>
</g>
<!-- Node1&#45;&gt;Node3 -->
<g id="edge2_Node000001_Node000003" class="edge">
<title>Node1&#45;&gt;Node3</title>
<g id="a_edge2_Node000001_Node000003"><a xlink:title=" ">
<path fill="none" stroke="#63b8ff" d="M432.88,-114.13C366.67,-107.84 245,-94.82 132.03,-73.99"/>
<polygon fill="#63b8ff" stroke="#63b8ff" points="132.65,-70.55 122.18,-72.15 131.36,-77.43 132.65,-70.55"/>
</a>
</g>
</g>
<!-- Node4 -->
<g id="Node000004" class="node">
<title>Node4</title>
<g id="a_Node000004"><a xlink:title=" ">
<polygon fill="#e0e0e0" stroke="#999999" points="188,-74 140,-74 140,-55 188,-55 188,-74"/>
<text text-anchor="middle" x="164" y="-62" font-family="Inter" font-size="10.00">stdio.h</text>
</a>
</g>
</g>
<!-- Node1&#45;&gt;Node4 -->
<g id="edge3_Node000001_Node000004" class="edge">
<title>Node1&#45;&gt;Node4</title>
<g id="a_edge3_Node000001_Node000004"><a xlink:title=" ">
<path fill="none" stroke="#63b8ff" d="M432.82,-112.3C377.87,-105.04 286.08,-91.94 197.98,-74.03"/>
<polygon fill="#63b8ff" stroke="#63b8ff" points="198.59,-70.58 188.09,-71.99 197.18,-77.44 198.59,-70.58"/>
</a>
</g>
</g>
<!-- Node5 -->
<g id="Node000005" class="node">
<title>Node5</title>
<g id="a_Node000005"><a xlink:title=" ">
<polygon fill="#e0e0e0" stroke="#999999" points="260,-74 206,-74 206,-55 260,-55 260,-74"/>
<text text-anchor="middle" x="233" y="-62" font-family="Inter" font-size="10.00">unistd.h</text>
</a>
</g>
</g>
<!-- Node1&#45;&gt;Node5 -->
<g id="edge4_Node000001_Node000005" class="edge">
<title>Node1&#45;&gt;Node5</title>
<g id="a_edge4_Node000001_Node000005"><a xlink:title=" ">
<path fill="none" stroke="#63b8ff" d="M440.12,-109.95C397.32,-101.16 328.95,-86.96 270,-74 269.9,-73.98 269.8,-73.96 269.7,-73.93"/>
<polygon fill="#63b8ff" stroke="#63b8ff" points="270.59,-70.55 260.06,-71.78 269.06,-77.38 270.59,-70.55"/>
</a>
</g>
</g>
<!-- Node6 -->
<g id="Node000006" class="node">
<title>Node6</title>
<g id="a_Node000006"><a xlink:title=" ">
<polygon fill="#e0e0e0" stroke="#999999" points="331.5,-74 278.5,-74 278.5,-55 331.5,-55 331.5,-74"/>
<text text-anchor="middle" x="305" y="-62" font-family="Inter" font-size="10.00">string.h</text>
</a>
</g>
</g>
<!-- Node1&#45;&gt;Node6 -->
<g id="edge5_Node000001_Node000006" class="edge">
<title>Node1&#45;&gt;Node6</title>
<g id="a_edge5_Node000001_Node000006"><a xlink:title=" ">
<path fill="none" stroke="#63b8ff" d="M453.56,-109.98C423.1,-100.86 374.65,-86.36 341.42,-76.41"/>
<polygon fill="#63b8ff" stroke="#63b8ff" points="342.21,-72.99 331.63,-73.47 340.21,-79.7 342.21,-72.99"/>
</a>
</g>
</g>
<!-- Node7 -->
<g id="Node000007" class="node">
<title>Node7</title>
<g id="a_Node000007"><a xlink:title=" ">
<polygon fill="#e0e0e0" stroke="#999999" points="402.5,-74 349.5,-74 349.5,-55 402.5,-55 402.5,-74"/>
<text text-anchor="middle" x="376" y="-62" font-family="Inter" font-size="10.00">errno.h</text>
</a>
</g>
</g>
<!-- Node1&#45;&gt;Node7 -->
<g id="edge6_Node000001_Node000007" class="edge">
<title>Node1&#45;&gt;Node7</title>
<g id="a_edge6_Node000001_Node000007"><a xlink:title=" ">
<path fill="none" stroke="#63b8ff" d="M464.97,-109.98C448.07,-101.54 421.94,-88.47 402.36,-78.68"/>
<polygon fill="#63b8ff" stroke="#63b8ff" points="403.85,-75.51 393.34,-74.17 400.72,-81.77 403.85,-75.51"/>
</a>
</g>
</g>
<!-- Node8 -->
<g id="Node000008" class="node">
<title>Node8</title>
<g id="a_Node000008"><a xlink:title=" ">
<polygon fill="#e0e0e0" stroke="#999999" points="473.5,-74 420.5,-74 420.5,-55 473.5,-55 473.5,-74"/>
<text text-anchor="middle" x="447" y="-62" font-family="Inter" font-size="10.00">dirent.h</text>
</a>
</g>
</g>
<!-- Node1&#45;&gt;Node8 -->
<g id="edge7_Node000001_Node000008" class="edge">
<title>Node1&#45;&gt;Node8</title>
<g id="a_edge7_Node000001_Node000008"><a xlink:title=" ">
<path fill="none" stroke="#63b8ff" d="M476.22,-109.75C471.38,-102.42 464.32,-91.73 458.36,-82.7"/>
<polygon fill="#63b8ff" stroke="#63b8ff" points="461.1,-80.5 452.67,-74.09 455.26,-84.36 461.1,-80.5"/>
</a>
</g>
</g>
<!-- Node9 -->
<g id="Node000009" class="node">
<title>Node9</title>
<g id="a_Node000009"><a xlink:title=" ">
<polygon fill="#e0e0e0" stroke="#999999" points="544,-74 492,-74 492,-55 544,-55 544,-74"/>
<text text-anchor="middle" x="518" y="-62" font-family="Inter" font-size="10.00">locale.h</text>
</a>
</g>
</g>
<!-- Node1&#45;&gt;Node9 -->
<g id="edge8_Node000001_Node000009" class="edge">
<title>Node1&#45;&gt;Node9</title>
<g id="a_edge8_Node000001_Node000009"><a xlink:title=" ">
<path fill="none" stroke="#63b8ff" d="M487.94,-109.75C492.98,-102.34 500.34,-91.5 506.51,-82.41"/>
<polygon fill="#63b8ff" stroke="#63b8ff" points="509.44,-84.33 512.17,-74.09 503.65,-80.39 509.44,-84.33"/>
</a>
</g>
</g>
<!-- Node10 -->
<g id="Node000010" class="node">
<title>Node10</title>
<g id="a_Node000010"><a xlink:title=" ">
<polygon fill="#e0e0e0" stroke="#999999" points="625.5,-74 562.5,-74 562.5,-55 625.5,-55 625.5,-74"/>
<text text-anchor="middle" x="594" y="-62" font-family="Inter" font-size="10.00">langinfo.h</text>
</a>
</g>
</g>
<!-- Node1&#45;&gt;Node10 -->
<g id="edge9_Node000001_Node000010" class="edge">
<title>Node1&#45;&gt;Node10</title>
<g id="a_edge9_Node000001_Node000010"><a xlink:title=" ">
<path fill="none" stroke="#63b8ff" d="M499.99,-109.98C517.93,-101.5 545.72,-88.35 566.43,-78.54"/>
<polygon fill="#63b8ff" stroke="#63b8ff" points="568.14,-81.61 575.68,-74.17 565.14,-75.28 568.14,-81.61"/>
</a>
</g>
</g>
<!-- Node11 -->
<g id="Node000011" class="node">
<title>Node11</title>
<g id="a_Node000011"><a xlink:title=" ">
<polygon fill="#e0e0e0" stroke="#999999" points="704.5,-74 643.5,-74 643.5,-55 704.5,-55 704.5,-74"/>
<text text-anchor="middle" x="674" y="-62" font-family="Inter" font-size="10.00">sys/stat.h</text>
</a>
</g>
</g>
<!-- Node1&#45;&gt;Node11 -->
<g id="edge10_Node000001_Node000011" class="edge">
<title>Node1&#45;&gt;Node11</title>
<g id="a_edge10_Node000001_Node000011"><a xlink:title=" ">
<path fill="none" stroke="#63b8ff" d="M512.85,-109.98C545.6,-100.94 597.5,-86.62 633.52,-76.67"/>
<polygon fill="#63b8ff" stroke="#63b8ff" points="634.52,-80.03 643.23,-73.99 632.66,-73.28 634.52,-80.03"/>
</a>
</g>
</g>
<!-- Node12 -->
<g id="Node000012" class="node">
<title>Node12</title>
<g id="a_Node000012"><a xlink:title=" ">
<polygon fill="#e0e0e0" stroke="#999999" points="884,-19 842,-19 842,0 884,0 884,-19"/>
<text text-anchor="middle" x="863" y="-7" font-family="Inter" font-size="10.00">glib.h</text>
</a>
</g>
</g>
<!-- Node1&#45;&gt;Node12 -->
<g id="edge11_Node000001_Node000012" class="edge">
<title>Node1&#45;&gt;Node12</title>
<g id="a_edge11_Node000001_Node000012"><a xlink:title=" ">
<path fill="none" stroke="#63b8ff" d="M531.44,-113.01C579.11,-106.79 652.82,-94.72 714,-74 731.88,-67.94 734.78,-62.74 752,-55 778.89,-42.91 810.1,-30.54 832.56,-21.93"/>
<polygon fill="#63b8ff" stroke="#63b8ff" points="833.82,-25.19 841.92,-18.36 831.33,-18.65 833.82,-25.19"/>
</a>
</g>
</g>
<!-- Node13 -->
<g id="Node000013" class="node">
<title>Node13</title>
<g id="a_Node000013"><a xlink:title=" ">
<polygon fill="#e0e0e0" stroke="#999999" points="833,-74 761,-74 761,-55 833,-55 833,-74"/>
<text text-anchor="middle" x="797" y="-62" font-family="Inter" font-size="10.00">glib/gi18n.h</text>
</a>
</g>
</g>
<!-- Node1&#45;&gt;Node13 -->
<g id="edge12_Node000001_Node000013" class="edge">
<title>Node1&#45;&gt;Node13</title>
<g id="a_edge12_Node000001_Node000013"><a xlink:title=" ">
<path fill="none" stroke="#63b8ff" d="M531.33,-110.25C584.56,-101.33 671.79,-86.71 747,-74 748.27,-73.79 749.56,-73.57 750.86,-73.35"/>
<polygon fill="#63b8ff" stroke="#63b8ff" points="751.68,-76.76 760.95,-71.64 750.51,-69.86 751.68,-76.76"/>
</a>
</g>
</g>
<!-- Node14 -->
<g id="Node000014" class="node">
<title>Node14</title>
<g id="a_Node000014"><a xlink:title=" ">
<polygon fill="#e0e0e0" stroke="#999999" points="925,-74 851,-74 851,-55 925,-55 925,-74"/>
<text text-anchor="middle" x="888" y="-62" font-family="Inter" font-size="10.00">glib/gstdio.h</text>
</a>
</g>
</g>
<!-- Node1&#45;&gt;Node14 -->
<g id="edge13_Node000001_Node000014" class="edge">
<title>Node1&#45;&gt;Node14</title>
<g id="a_edge13_Node000001_Node000014"><a xlink:title=" ">
<path fill="none" stroke="#63b8ff" d="M531.04,-113.38C598.48,-106.13 723.85,-91.9 840.68,-74.12"/>
<polygon fill="#63b8ff" stroke="#63b8ff" points="841.52,-77.53 850.88,-72.56 840.46,-70.61 841.52,-77.53"/>
</a>
</g>
</g>
<!-- Node15 -->
<g id="Node000015" class="node">
<title>Node15</title>
<g id="a_Node000015"><a xlink:href="mate-languages_8h.html" target="_top" xlink:title=" ">
<polygon fill="white" stroke="#666666" points="1043,-74 943,-74 943,-55 1043,-55 1043,-74"/>
<text text-anchor="middle" x="993" y="-62" font-family="Inter" font-size="10.00">mate&#45;languages.h</text>
</a>
</g>
</g>
<!-- Node1&#45;&gt;Node15 -->
<g id="edge14_Node000001_Node000015" class="edge">
<title>Node1&#45;&gt;Node15</title>
<g id="a_edge14_Node000001_Node000015"><a xlink:title=" ">
<path fill="none" stroke="#63b8ff" d="M531.24,-114.38C612.59,-107.42 780.4,-92.38 932.79,-74.1"/>
<polygon fill="#63b8ff" stroke="#63b8ff" points="933.3,-77.56 942.81,-72.89 932.46,-70.61 933.3,-77.56"/>
</a>
</g>
</g>
<!-- Node15&#45;&gt;Node12 -->
<g id="edge15_Node000015_Node000012" class="edge">
<title>Node15&#45;&gt;Node12</title>
<g id="a_edge15_Node000015_Node000012"><a xlink:title=" ">
<path fill="none" stroke="#63b8ff" d="M972.11,-54.98C950.92,-46.34 917.87,-32.87 893.7,-23.02"/>
<polygon fill="#63b8ff" stroke="#63b8ff" points="894.85,-19.7 884.27,-19.17 892.21,-26.19 894.85,-19.7"/>
</a>
</g>
</g>
</g>
</svg>
