<?xml version="1.0" encoding="UTF-8" standalone="no"?>
<!DOCTYPE svg PUBLIC "-//W3C//DTD SVG 1.1//EN"
 "http://www.w3.org/Graphics/SVG/1.1/DTD/svg11.dtd">
<!-- Generated by graphviz version 2.43.0 (0)
 -->
<!-- Title: mate&#45;notification&#45;applet&#45;dbus.c Pages: 1 -->
<svg width="448pt" height="159pt"
 viewBox="0.00 0.00 448.00 159.00" xmlns="http://www.w3.org/2000/svg" xmlns:xlink="http://www.w3.org/1999/xlink">

<svg id="main" version="1.1" xmlns="http://www.w3.org/2000/svg" xmlns:xlink="http://www.w3.org/1999/xlink" xml:space="preserve">

<style type="text/css"><![CDATA[
.node, .edge {opacity: 0.7;}
.node.selected, .edge.selected {opacity: 1;}
.edge:hover path { stroke: red; }
.edge:hover polygon { stroke: red; fill: red; }
]]></style>
<script type="application/ecmascript" xlink:href="svg.min.js"/>
<svg id="graph" class="graph">
<g id="graph0" class="graph" transform="scale(1 1) rotate(0) translate(4 155)">
<title>mate&#45;notification&#45;applet&#45;dbus.c</title>
<!-- Node1 -->
<g id="Node000001" class="node">
<title>Node1</title>
<g id="a_Node000001"><a xlink:title=" ">
<polygon fill="#999999" stroke="#666666" points="206,-151 78,-151 78,-121 206,-121 206,-151"/>
<text text-anchor="start" x="86" y="-139" font-family="Inter" font-size="10.00">mate&#45;notification&#45;applet</text>
<text text-anchor="middle" x="142" y="-128" font-family="Inter" font-size="10.00">&#45;dbus.c</text>
</a>
</g>
</g>
<!-- Node2 -->
<g id="Node000002" class="node">
<title>Node2</title>
<g id="a_Node000002"><a xlink:title=" ">
<polygon fill="#e0e0e0" stroke="#999999" points="54,-79.5 0,-79.5 0,-60.5 54,-60.5 54,-79.5"/>
<text text-anchor="middle" x="27" y="-67.5" font-family="Inter" font-size="10.00">config.h</text>
</a>
</g>
</g>
<!-- Node1&#45;&gt;Node2 -->
<g id="edge1_Node000001_Node000002" class="edge">
<title>Node1&#45;&gt;Node2</title>
<g id="a_edge1_Node000001_Node000002"><a xlink:title=" ">
<path fill="none" stroke="#63b8ff" d="M116.76,-120.95C97.22,-110.08 70.32,-95.11 51.07,-84.4"/>
<polygon fill="#63b8ff" stroke="#63b8ff" points="52.74,-81.32 42.3,-79.52 49.34,-87.44 52.74,-81.32"/>
</a>
</g>
</g>
<!-- Node3 -->
<g id="Node000003" class="node">
<title>Node3</title>
<g id="a_Node000003"><a xlink:title=" ">
<polygon fill="#e0e0e0" stroke="#999999" points="114,-79.5 72,-79.5 72,-60.5 114,-60.5 114,-79.5"/>
<text text-anchor="middle" x="93" y="-67.5" font-family="Inter" font-size="10.00">glib.h</text>
</a>
</g>
</g>
<!-- Node1&#45;&gt;Node3 -->
<g id="edge2_Node000001_Node000003" class="edge">
<title>Node1&#45;&gt;Node3</title>
<g id="a_edge2_Node000001_Node000003"><a xlink:title=" ">
<path fill="none" stroke="#63b8ff" d="M131.13,-120.8C123.71,-111.11 113.86,-98.24 106.02,-88.01"/>
<polygon fill="#63b8ff" stroke="#63b8ff" points="108.63,-85.66 99.77,-79.84 103.07,-89.91 108.63,-85.66"/>
</a>
</g>
</g>
<!-- Node4 -->
<g id="Node000004" class="node">
<title>Node4</title>
<g id="a_Node000004"><a xlink:title=" ">
<polygon fill="#e0e0e0" stroke="#999999" points="217,-19 159,-19 159,0 217,0 217,-19"/>
<text text-anchor="middle" x="188" y="-7" font-family="Inter" font-size="10.00">gio/gio.h</text>
</a>
</g>
</g>
<!-- Node1&#45;&gt;Node4 -->
<g id="edge3_Node000001_Node000004" class="edge">
<title>Node1&#45;&gt;Node4</title>
<g id="a_edge3_Node000001_Node000004"><a xlink:title=" ">
<path fill="none" stroke="#63b8ff" d="M144.01,-120.71C146.62,-104.38 151.95,-77.06 161,-55 164.89,-45.51 170.65,-35.68 175.84,-27.68"/>
<polygon fill="#63b8ff" stroke="#63b8ff" points="178.83,-29.51 181.54,-19.26 173.04,-25.58 178.83,-29.51"/>
</a>
</g>
</g>
<!-- Node5 -->
<g id="Node000005" class="node">
<title>Node5</title>
<g id="a_Node000005"><a xlink:href="mate-notification-applet-dbus_8h.html" target="_top" xlink:title=" ">
<polygon fill="white" stroke="#666666" points="298,-85 170,-85 170,-55 298,-55 298,-85"/>
<text text-anchor="start" x="178" y="-73" font-family="Inter" font-size="10.00">mate&#45;notification&#45;applet</text>
<text text-anchor="middle" x="234" y="-62" font-family="Inter" font-size="10.00">&#45;dbus.h</text>
</a>
</g>
</g>
<!-- Node1&#45;&gt;Node5 -->
<g id="edge4_Node000001_Node000005" class="edge">
<title>Node1&#45;&gt;Node5</title>
<g id="a_edge4_Node000001_Node000005"><a xlink:title=" ">
<path fill="none" stroke="#63b8ff" d="M162.42,-120.8C175.04,-112.01 191.44,-100.61 205.35,-90.93"/>
<polygon fill="#63b8ff" stroke="#63b8ff" points="207.43,-93.75 213.64,-85.16 203.43,-88 207.43,-93.75"/>
</a>
</g>
</g>
<!-- Node6 -->
<g id="Node000006" class="node">
<title>Node6</title>
<g id="a_Node000006"><a xlink:href="constants_8h.html" target="_top" xlink:title=" ">
<polygon fill="white" stroke="#666666" points="440,-79.5 316,-79.5 316,-60.5 440,-60.5 440,-79.5"/>
<text text-anchor="middle" x="378" y="-67.5" font-family="Inter" font-size="10.00">../common/constants.h</text>
</a>
</g>
</g>
<!-- Node1&#45;&gt;Node6 -->
<g id="edge6_Node000001_Node000006" class="edge">
<title>Node1&#45;&gt;Node6</title>
<g id="a_edge6_Node000001_Node000006"><a xlink:title=" ">
<path fill="none" stroke="#63b8ff" d="M193.79,-120.95C236.73,-109.31 296.96,-92.98 336.7,-82.2"/>
<polygon fill="#63b8ff" stroke="#63b8ff" points="337.86,-85.51 346.59,-79.52 336.02,-78.76 337.86,-85.51"/>
</a>
</g>
</g>
<!-- Node5&#45;&gt;Node4 -->
<g id="edge5_Node000005_Node000004" class="edge">
<title>Node5&#45;&gt;Node4</title>
<g id="a_edge5_Node000005_Node000004"><a xlink:title=" ">
<path fill="none" stroke="#63b8ff" d="M222.86,-54.84C216.32,-46.52 208.02,-35.96 201.16,-27.23"/>
<polygon fill="#63b8ff" stroke="#63b8ff" points="203.83,-24.96 194.89,-19.27 198.32,-29.29 203.83,-24.96"/>
</a>
</g>
</g>
</g>
</svg>
</svg>

<style type='text/css'>
<![CDATA[
[data-mouse-over-selected='false'] { opacity: 0.7; }
[data-mouse-over-selected='true']  { opacity: 1.0; }
]]>
</style>
<script type="application/ecmascript"><![CDATA[
document.addEventListener('DOMContentLoaded', (event) => {
  highlightEdges();
  highlightAdjacentNodes();
});
]]></script>
</svg>
