<?xml version="1.0" encoding="UTF-8" standalone="no"?>
<!DOCTYPE svg PUBLIC "-//W3C//DTD SVG 1.1//EN"
 "http://www.w3.org/Graphics/SVG/1.1/DTD/svg11.dtd">
<!-- Generated by graphviz version 2.43.0 (0)
 -->
<!-- Title: mate&#45;ui&#45;menu.h Pages: 1 -->
<svg width="181pt" height="137pt"
 viewBox="0.00 0.00 181.00 137.00" xmlns="http://www.w3.org/2000/svg" xmlns:xlink="http://www.w3.org/1999/xlink">
<g id="graph0" class="graph" transform="scale(1 1) rotate(0) translate(4 133)">
<title>mate&#45;ui&#45;menu.h</title>
<!-- Node1 -->
<g id="Node000001" class="node">
<title>Node1</title>
<g id="a_Node000001"><a xlink:title=" ">
<polygon fill="#999999" stroke="#666666" points="136,-129 45,-129 45,-110 136,-110 136,-129"/>
<text text-anchor="middle" x="90.5" y="-117" font-family="Inter" font-size="10.00">mate&#45;ui&#45;menu.h</text>
</a>
</g>
</g>
<!-- Node2 -->
<g id="Node000002" class="node">
<title>Node2</title>
<g id="a_Node000002"><a xlink:href="mate-ui-menu_8c.html" target="_top" xlink:title=" ">
<polygon fill="white" stroke="#666666" points="89,-74 0,-74 0,-55 89,-55 89,-74"/>
<text text-anchor="middle" x="44.5" y="-62" font-family="Inter" font-size="10.00">mate&#45;ui&#45;menu.c</text>
</a>
</g>
</g>
<!-- Node1&#45;&gt;Node2 -->
<g id="edge1_Node000001_Node000002" class="edge">
<title>Node1&#45;&gt;Node2</title>
<g id="a_edge1_Node000001_Node000002"><a xlink:title=" ">
<path fill="none" stroke="#63b8ff" d="M76.14,-101.96C68.13,-92.72 58.47,-81.6 51.95,-74.09"/>
<polygon fill="#63b8ff" stroke="#63b8ff" points="73.71,-104.49 82.9,-109.75 78.99,-99.9 73.71,-104.49"/>
</a>
</g>
</g>
<!-- Node3 -->
<g id="Node000003" class="node">
<title>Node3</title>
<g id="a_Node000003"><a xlink:href="mate-ui_8h.html" target="_top" xlink:title=" ">
<polygon fill="white" stroke="#666666" points="168,-74 107,-74 107,-55 168,-55 168,-74"/>
<text text-anchor="middle" x="137.5" y="-62" font-family="Inter" font-size="10.00">mate&#45;ui.h</text>
</a>
</g>
</g>
<!-- Node1&#45;&gt;Node3 -->
<g id="edge2_Node000001_Node000003" class="edge">
<title>Node1&#45;&gt;Node3</title>
<g id="a_edge2_Node000001_Node000003"><a xlink:title=" ">
<path fill="none" stroke="#63b8ff" d="M104.92,-102.24C113.16,-92.95 123.15,-81.68 129.88,-74.09"/>
<polygon fill="#63b8ff" stroke="#63b8ff" points="102.28,-99.94 98.26,-109.75 107.51,-104.59 102.28,-99.94"/>
</a>
</g>
</g>
<!-- Node4 -->
<g id="Node000004" class="node">
<title>Node4</title>
<g id="a_Node000004"><a xlink:href="demo-app_8c.html" target="_top" xlink:title=" ">
<polygon fill="white" stroke="#666666" points="173,-19 102,-19 102,0 173,0 173,-19"/>
<text text-anchor="middle" x="137.5" y="-7" font-family="Inter" font-size="10.00">demo&#45;app.c</text>
</a>
</g>
</g>
<!-- Node3&#45;&gt;Node4 -->
<g id="edge3_Node000003_Node000004" class="edge">
<title>Node3&#45;&gt;Node4</title>
<g id="a_edge3_Node000003_Node000004"><a xlink:title=" ">
<path fill="none" stroke="#63b8ff" d="M137.5,-44.66C137.5,-35.93 137.5,-25.99 137.5,-19.09"/>
<polygon fill="#63b8ff" stroke="#63b8ff" points="134,-44.75 137.5,-54.75 141,-44.75 134,-44.75"/>
</a>
</g>
</g>
</g>
</svg>
