<?xml version="1.0" encoding="UTF-8" standalone="no"?>
<!DOCTYPE svg PUBLIC "-//W3C//DTD SVG 1.1//EN"
 "http://www.w3.org/Graphics/SVG/1.1/DTD/svg11.dtd">
<!-- Generated by graphviz version 2.43.0 (0)
 -->
<!-- Title: math&#45;variable&#45;popup.c Pages: 1 -->
<svg width="365pt" height="192pt"
 viewBox="0.00 0.00 365.00 192.00" xmlns="http://www.w3.org/2000/svg" xmlns:xlink="http://www.w3.org/1999/xlink">

<svg id="main" version="1.1" xmlns="http://www.w3.org/2000/svg" xmlns:xlink="http://www.w3.org/1999/xlink" xml:space="preserve">

<style type="text/css"><![CDATA[
.node, .edge {opacity: 0.7;}
.node.selected, .edge.selected {opacity: 1;}
.edge:hover path { stroke: red; }
.edge:hover polygon { stroke: red; fill: red; }
]]></style>
<script type="application/ecmascript" xlink:href="svg.min.js"/>
<svg id="graph" class="graph">
<g id="graph0" class="graph" transform="scale(1 1) rotate(0) translate(4 188)">
<title>math&#45;variable&#45;popup.c</title>
<!-- Node1 -->
<g id="Node000001" class="node">
<title>Node1</title>
<g id="a_Node000001"><a xlink:title=" ">
<polygon fill="#999999" stroke="#666666" points="202.5,-184 81.5,-184 81.5,-165 202.5,-165 202.5,-184"/>
<text text-anchor="middle" x="142" y="-172" font-family="Inter" font-size="10.00">math&#45;variable&#45;popup.c</text>
</a>
</g>
</g>
<!-- Node2 -->
<g id="Node000002" class="node">
<title>Node2</title>
<g id="a_Node000002"><a xlink:title=" ">
<polygon fill="#e0e0e0" stroke="#999999" points="72,-129 0,-129 0,-110 72,-110 72,-129"/>
<text text-anchor="middle" x="36" y="-117" font-family="Inter" font-size="10.00">glib/gi18n.h</text>
</a>
</g>
</g>
<!-- Node1&#45;&gt;Node2 -->
<g id="edge1_Node000001_Node000002" class="edge">
<title>Node1&#45;&gt;Node2</title>
<g id="a_edge1_Node000001_Node000002"><a xlink:title=" ">
<path fill="none" stroke="#63b8ff" d="M124.97,-164.98C108.07,-156.54 81.94,-143.47 62.36,-133.68"/>
<polygon fill="#63b8ff" stroke="#63b8ff" points="63.85,-130.51 53.34,-129.17 60.72,-136.77 63.85,-130.51"/>
</a>
</g>
</g>
<!-- Node3 -->
<g id="Node000003" class="node">
<title>Node3</title>
<g id="a_Node000003"><a xlink:title=" ">
<polygon fill="#e0e0e0" stroke="#999999" points="193.5,-129 90.5,-129 90.5,-110 193.5,-110 193.5,-129"/>
<text text-anchor="middle" x="142" y="-117" font-family="Inter" font-size="10.00">gdk/gdkkeysyms.h</text>
</a>
</g>
</g>
<!-- Node1&#45;&gt;Node3 -->
<g id="edge2_Node000001_Node000003" class="edge">
<title>Node1&#45;&gt;Node3</title>
<g id="a_edge2_Node000001_Node000003"><a xlink:title=" ">
<path fill="none" stroke="#63b8ff" d="M142,-164.75C142,-157.8 142,-147.85 142,-139.13"/>
<polygon fill="#63b8ff" stroke="#63b8ff" points="145.5,-139.09 142,-129.09 138.5,-139.09 145.5,-139.09"/>
</a>
</g>
</g>
<!-- Node4 -->
<g id="Node000004" class="node">
<title>Node4</title>
<g id="a_Node000004"><a xlink:href="math-variable-popup_8h.html" target="_top" xlink:title=" ">
<polygon fill="white" stroke="#666666" points="334,-129 212,-129 212,-110 334,-110 334,-129"/>
<text text-anchor="middle" x="273" y="-117" font-family="Inter" font-size="10.00">math&#45;variable&#45;popup.h</text>
</a>
</g>
</g>
<!-- Node1&#45;&gt;Node4 -->
<g id="edge3_Node000001_Node000004" class="edge">
<title>Node1&#45;&gt;Node4</title>
<g id="a_edge3_Node000001_Node000004"><a xlink:title=" ">
<path fill="none" stroke="#63b8ff" d="M163.05,-164.98C184.41,-156.34 217.7,-142.87 242.06,-133.02"/>
<polygon fill="#63b8ff" stroke="#63b8ff" points="243.61,-136.17 251.57,-129.17 240.99,-129.68 243.61,-136.17"/>
</a>
</g>
</g>
<!-- Node5 -->
<g id="Node000005" class="node">
<title>Node5</title>
<g id="a_Node000005"><a xlink:title=" ">
<polygon fill="#e0e0e0" stroke="#999999" points="301.5,-19 242.5,-19 242.5,0 301.5,0 301.5,-19"/>
<text text-anchor="middle" x="272" y="-7" font-family="Inter" font-size="10.00">gtk/gtk.h</text>
</a>
</g>
</g>
<!-- Node4&#45;&gt;Node5 -->
<g id="edge4_Node000004_Node000005" class="edge">
<title>Node4&#45;&gt;Node5</title>
<g id="a_edge4_Node000004_Node000005"><a xlink:title=" ">
<path fill="none" stroke="#63b8ff" d="M268.12,-109.98C263.44,-101.26 256.69,-87.17 254,-74 250.77,-58.23 256.51,-40.65 262.34,-27.99"/>
<polygon fill="#63b8ff" stroke="#63b8ff" points="265.48,-29.53 266.87,-19.03 259.23,-26.38 265.48,-29.53"/>
</a>
</g>
</g>
<!-- Node6 -->
<g id="Node000006" class="node">
<title>Node6</title>
<g id="a_Node000006"><a xlink:href="math-equation_8h.html" target="_top" xlink:title=" ">
<polygon fill="#fff0f0" stroke="red" points="357,-74 263,-74 263,-55 357,-55 357,-74"/>
<text text-anchor="middle" x="310" y="-62" font-family="Inter" font-size="10.00">math&#45;equation.h</text>
</a>
</g>
</g>
<!-- Node4&#45;&gt;Node6 -->
<g id="edge5_Node000004_Node000006" class="edge">
<title>Node4&#45;&gt;Node6</title>
<g id="a_edge5_Node000004_Node000006"><a xlink:title=" ">
<path fill="none" stroke="#63b8ff" d="M279.11,-109.75C284.28,-102.34 291.85,-91.5 298.19,-82.41"/>
<polygon fill="#63b8ff" stroke="#63b8ff" points="301.15,-84.29 304,-74.09 295.41,-80.29 301.15,-84.29"/>
</a>
</g>
</g>
<!-- Node6&#45;&gt;Node5 -->
<g id="edge6_Node000006_Node000005" class="edge">
<title>Node6&#45;&gt;Node5</title>
<g id="a_edge6_Node000006_Node000005"><a xlink:title=" ">
<path fill="none" stroke="#63b8ff" d="M303.73,-54.75C298.41,-47.34 290.64,-36.5 284.12,-27.41"/>
<polygon fill="#63b8ff" stroke="#63b8ff" points="286.83,-25.18 278.16,-19.09 281.14,-29.26 286.83,-25.18"/>
</a>
</g>
</g>
</g>
</svg>
</svg>

<style type='text/css'>
<![CDATA[
[data-mouse-over-selected='false'] { opacity: 0.7; }
[data-mouse-over-selected='true']  { opacity: 1.0; }
]]>
</style>
<script type="application/ecmascript"><![CDATA[
document.addEventListener('DOMContentLoaded', (event) => {
  highlightEdges();
  highlightAdjacentNodes();
});
]]></script>
</svg>
