<?xml version="1.0" encoding="UTF-8" standalone="no"?>
<!DOCTYPE svg PUBLIC "-//W3C//DTD SVG 1.1//EN"
 "http://www.w3.org/Graphics/SVG/1.1/DTD/svg11.dtd">
<!-- Generated by graphviz version 2.43.0 (0)
 -->
<!-- Title: msd&#45;housekeeping&#45;plugin.c Pages: 1 -->
<svg width="656pt" height="192pt"
 viewBox="0.00 0.00 655.50 192.00" xmlns="http://www.w3.org/2000/svg" xmlns:xlink="http://www.w3.org/1999/xlink">
<g id="graph0" class="graph" transform="scale(1 1) rotate(0) translate(4 188)">
<title>msd&#45;housekeeping&#45;plugin.c</title>
<!-- Node1 -->
<g id="Node000001" class="node">
<title>Node1</title>
<g id="a_Node000001"><a xlink:title=" ">
<polygon fill="#999999" stroke="#666666" points="287,-184 143,-184 143,-165 287,-165 287,-184"/>
<text text-anchor="middle" x="215" y="-172" font-family="Inter" font-size="10.00">msd&#45;housekeeping&#45;plugin.c</text>
</a>
</g>
</g>
<!-- Node2 -->
<g id="Node000002" class="node">
<title>Node2</title>
<g id="a_Node000002"><a xlink:title=" ">
<polygon fill="#e0e0e0" stroke="#999999" points="54,-129 0,-129 0,-110 54,-110 54,-129"/>
<text text-anchor="middle" x="27" y="-117" font-family="Inter" font-size="10.00">config.h</text>
</a>
</g>
</g>
<!-- Node1&#45;&gt;Node2 -->
<g id="edge1_Node000001_Node000002" class="edge">
<title>Node1&#45;&gt;Node2</title>
<g id="a_edge1_Node000001_Node000002"><a xlink:title=" ">
<path fill="none" stroke="#63b8ff" d="M184.79,-164.98C151.92,-155.72 99.33,-140.89 64,-130.93"/>
<polygon fill="#63b8ff" stroke="#63b8ff" points="64.65,-127.48 54.08,-128.13 62.75,-134.22 64.65,-127.48"/>
</a>
</g>
</g>
<!-- Node3 -->
<g id="Node000003" class="node">
<title>Node3</title>
<g id="a_Node000003"><a xlink:title=" ">
<polygon fill="#e0e0e0" stroke="#999999" points="158,-129 72,-129 72,-110 158,-110 158,-129"/>
<text text-anchor="middle" x="115" y="-117" font-family="Inter" font-size="10.00">glib/gi18n&#45;lib.h</text>
</a>
</g>
</g>
<!-- Node1&#45;&gt;Node3 -->
<g id="edge2_Node000001_Node000003" class="edge">
<title>Node1&#45;&gt;Node3</title>
<g id="a_edge2_Node000001_Node000003"><a xlink:title=" ">
<path fill="none" stroke="#63b8ff" d="M198.93,-164.98C183.14,-156.61 158.78,-143.7 140.37,-133.95"/>
<polygon fill="#63b8ff" stroke="#63b8ff" points="141.83,-130.76 131.36,-129.17 138.56,-136.95 141.83,-130.76"/>
</a>
</g>
</g>
<!-- Node4 -->
<g id="Node000004" class="node">
<title>Node4</title>
<g id="a_Node000004"><a xlink:title=" ">
<polygon fill="#e0e0e0" stroke="#999999" points="308.5,-19 241.5,-19 241.5,0 308.5,0 308.5,-19"/>
<text text-anchor="middle" x="275" y="-7" font-family="Inter" font-size="10.00">gmodule.h</text>
</a>
</g>
</g>
<!-- Node1&#45;&gt;Node4 -->
<g id="edge3_Node000001_Node000004" class="edge">
<title>Node1&#45;&gt;Node4</title>
<g id="a_edge3_Node000001_Node000004"><a xlink:title=" ">
<path fill="none" stroke="#63b8ff" d="M211.17,-164.79C202.76,-144.2 184.92,-91.55 205,-55 212.77,-40.85 227.17,-30.56 240.89,-23.46"/>
<polygon fill="#63b8ff" stroke="#63b8ff" points="242.66,-26.49 250.19,-19.05 239.66,-20.17 242.66,-26.49"/>
</a>
</g>
</g>
<!-- Node5 -->
<g id="Node000005" class="node">
<title>Node5</title>
<g id="a_Node000005"><a xlink:href="mate-settings-plugin_8h.html" target="_top" xlink:title=" ">
<polygon fill="white" stroke="#666666" points="335.5,-74 214.5,-74 214.5,-55 335.5,-55 335.5,-74"/>
<text text-anchor="middle" x="275" y="-62" font-family="Inter" font-size="10.00">mate&#45;settings&#45;plugin.h</text>
</a>
</g>
</g>
<!-- Node1&#45;&gt;Node5 -->
<g id="edge4_Node000001_Node000005" class="edge">
<title>Node1&#45;&gt;Node5</title>
<g id="a_edge4_Node000001_Node000005"><a xlink:title=" ">
<path fill="none" stroke="#63b8ff" d="M219.91,-164.66C229.8,-146.85 252.3,-106.37 265.27,-83.01"/>
<polygon fill="#63b8ff" stroke="#63b8ff" points="268.39,-84.6 270.19,-74.16 262.27,-81.2 268.39,-84.6"/>
</a>
</g>
</g>
<!-- Node7 -->
<g id="Node000007" class="node">
<title>Node7</title>
<g id="a_Node000007"><a xlink:href="msd-housekeeping-plugin_8h.html" target="_top" xlink:title=" ">
<polygon fill="white" stroke="#666666" points="437,-129 291,-129 291,-110 437,-110 437,-129"/>
<text text-anchor="middle" x="364" y="-117" font-family="Inter" font-size="10.00">msd&#45;housekeeping&#45;plugin.h</text>
</a>
</g>
</g>
<!-- Node1&#45;&gt;Node7 -->
<g id="edge7_Node000001_Node000007" class="edge">
<title>Node1&#45;&gt;Node7</title>
<g id="a_edge7_Node000001_Node000007"><a xlink:title=" ">
<path fill="none" stroke="#63b8ff" d="M238.94,-164.98C263.56,-156.23 302.12,-142.51 329.92,-132.62"/>
<polygon fill="#63b8ff" stroke="#63b8ff" points="331.38,-135.82 339.62,-129.17 329.03,-129.22 331.38,-135.82"/>
</a>
</g>
</g>
<!-- Node9 -->
<g id="Node000009" class="node">
<title>Node9</title>
<g id="a_Node000009"><a xlink:href="msd-housekeeping-manager_8h.html" target="_top" xlink:title=" ">
<polygon fill="white" stroke="#666666" points="647.5,-74 490.5,-74 490.5,-55 647.5,-55 647.5,-74"/>
<text text-anchor="middle" x="569" y="-62" font-family="Inter" font-size="10.00">msd&#45;housekeeping&#45;manager.h</text>
</a>
</g>
</g>
<!-- Node1&#45;&gt;Node9 -->
<g id="edge12_Node000001_Node000009" class="edge">
<title>Node1&#45;&gt;Node9</title>
<g id="a_edge12_Node000001_Node000009"><a xlink:title=" ">
<path fill="none" stroke="#63b8ff" d="M287.15,-165.02C333.42,-158.26 394.29,-146.91 446,-129 483.09,-116.15 522.92,-93.85 546.89,-79.39"/>
<polygon fill="#63b8ff" stroke="#63b8ff" points="548.86,-82.29 555.56,-74.09 545.2,-76.32 548.86,-82.29"/>
</a>
</g>
</g>
<!-- Node5&#45;&gt;Node4 -->
<g id="edge6_Node000005_Node000004" class="edge">
<title>Node5&#45;&gt;Node4</title>
<g id="a_edge6_Node000005_Node000004"><a xlink:title=" ">
<path fill="none" stroke="#63b8ff" d="M275,-54.75C275,-47.8 275,-37.85 275,-29.13"/>
<polygon fill="#63b8ff" stroke="#63b8ff" points="278.5,-29.09 275,-19.09 271.5,-29.09 278.5,-29.09"/>
</a>
</g>
</g>
<!-- Node6 -->
<g id="Node000006" class="node">
<title>Node6</title>
<g id="a_Node000006"><a xlink:title=" ">
<polygon fill="#e0e0e0" stroke="#999999" points="439,-19 365,-19 365,0 439,0 439,-19"/>
<text text-anchor="middle" x="402" y="-7" font-family="Inter" font-size="10.00">glib&#45;object.h</text>
</a>
</g>
</g>
<!-- Node5&#45;&gt;Node6 -->
<g id="edge5_Node000005_Node000006" class="edge">
<title>Node5&#45;&gt;Node6</title>
<g id="a_edge5_Node000005_Node000006"><a xlink:title=" ">
<path fill="none" stroke="#63b8ff" d="M295.4,-54.98C316.02,-46.38 348.11,-32.99 371.69,-23.15"/>
<polygon fill="#63b8ff" stroke="#63b8ff" points="373.34,-26.25 381.22,-19.17 370.65,-19.79 373.34,-26.25"/>
</a>
</g>
</g>
<!-- Node7&#45;&gt;Node4 -->
<g id="edge10_Node000007_Node000004" class="edge">
<title>Node7&#45;&gt;Node4</title>
<g id="a_edge10_Node000007_Node000004"><a xlink:title=" ">
<path fill="none" stroke="#63b8ff" d="M363.15,-109.84C361.48,-96.76 356.76,-71.73 344,-55 333.82,-41.65 318.39,-31.16 304.71,-23.73"/>
<polygon fill="#63b8ff" stroke="#63b8ff" points="306.1,-20.51 295.6,-19.07 302.91,-26.74 306.1,-20.51"/>
</a>
</g>
</g>
<!-- Node7&#45;&gt;Node5 -->
<g id="edge11_Node000007_Node000005" class="edge">
<title>Node7&#45;&gt;Node5</title>
<g id="a_edge11_Node000007_Node000005"><a xlink:title=" ">
<path fill="none" stroke="#63b8ff" d="M349.7,-109.98C335.9,-101.77 314.76,-89.18 298.49,-79.49"/>
<polygon fill="#63b8ff" stroke="#63b8ff" points="299.94,-76.28 289.56,-74.17 296.36,-82.29 299.94,-76.28"/>
</a>
</g>
</g>
<!-- Node7&#45;&gt;Node6 -->
<g id="edge9_Node000007_Node000006" class="edge">
<title>Node7&#45;&gt;Node6</title>
<g id="a_edge9_Node000007_Node000006"><a xlink:title=" ">
<path fill="none" stroke="#63b8ff" d="M367.11,-109.66C373.32,-92.01 387.37,-52.09 395.62,-28.64"/>
<polygon fill="#63b8ff" stroke="#63b8ff" points="398.94,-29.75 398.95,-19.16 392.33,-27.43 398.94,-29.75"/>
</a>
</g>
</g>
<!-- Node8 -->
<g id="Node000008" class="node">
<title>Node8</title>
<g id="a_Node000008"><a xlink:title=" ">
<polygon fill="#e0e0e0" stroke="#999999" points="472,-74 430,-74 430,-55 472,-55 472,-74"/>
<text text-anchor="middle" x="451" y="-62" font-family="Inter" font-size="10.00">glib.h</text>
</a>
</g>
</g>
<!-- Node7&#45;&gt;Node8 -->
<g id="edge8_Node000007_Node000008" class="edge">
<title>Node7&#45;&gt;Node8</title>
<g id="a_edge8_Node000007_Node000008"><a xlink:title=" ">
<path fill="none" stroke="#63b8ff" d="M377.98,-109.98C391.47,-101.77 412.13,-89.18 428.04,-79.49"/>
<polygon fill="#63b8ff" stroke="#63b8ff" points="430.05,-82.36 436.77,-74.17 426.41,-76.38 430.05,-82.36"/>
</a>
</g>
</g>
<!-- Node9&#45;&gt;Node6 -->
<g id="edge13_Node000009_Node000006" class="edge">
<title>Node9&#45;&gt;Node6</title>
<g id="a_edge13_Node000009_Node000006"><a xlink:title=" ">
<path fill="none" stroke="#63b8ff" d="M542.17,-54.98C514.13,-46.09 469.95,-32.07 438.7,-22.15"/>
<polygon fill="#63b8ff" stroke="#63b8ff" points="439.63,-18.77 429.04,-19.08 437.51,-25.44 439.63,-18.77"/>
</a>
</g>
</g>
</g>
</svg>
