<?xml version="1.0" encoding="UTF-8" standalone="no"?>
<!DOCTYPE svg PUBLIC "-//W3C//DTD SVG 1.1//EN"
 "http://www.w3.org/Graphics/SVG/1.1/DTD/svg11.dtd">
<!-- Generated by graphviz version 2.43.0 (0)
 -->
<!-- Title: msd&#45;smartcard&#45;manager.h Pages: 1 -->
<svg width="222pt" height="137pt"
 viewBox="0.00 0.00 222.00 137.00" xmlns="http://www.w3.org/2000/svg" xmlns:xlink="http://www.w3.org/1999/xlink">
<g id="graph0" class="graph" transform="scale(1 1) rotate(0) translate(4 133)">
<title>msd&#45;smartcard&#45;manager.h</title>
<!-- Node1 -->
<g id="Node000001" class="node">
<title>Node1</title>
<g id="a_Node000001"><a xlink:title=" ">
<polygon fill="#999999" stroke="#666666" points="165.5,-129 28.5,-129 28.5,-110 165.5,-110 165.5,-129"/>
<text text-anchor="middle" x="97" y="-117" font-family="Inter" font-size="10.00">msd&#45;smartcard&#45;manager.h</text>
</a>
</g>
</g>
<!-- Node2 -->
<g id="Node000002" class="node">
<title>Node2</title>
<g id="a_Node000002"><a xlink:href="msd-smartcard_8h.html" target="_top" xlink:title=" ">
<polygon fill="white" stroke="#666666" points="144.5,-74 49.5,-74 49.5,-55 144.5,-55 144.5,-74"/>
<text text-anchor="middle" x="97" y="-62" font-family="Inter" font-size="10.00">msd&#45;smartcard.h</text>
</a>
</g>
</g>
<!-- Node1&#45;&gt;Node2 -->
<g id="edge1_Node000001_Node000002" class="edge">
<title>Node1&#45;&gt;Node2</title>
<g id="a_edge1_Node000001_Node000002"><a xlink:title=" ">
<path fill="none" stroke="#63b8ff" d="M97,-109.75C97,-102.8 97,-92.85 97,-84.13"/>
<polygon fill="#63b8ff" stroke="#63b8ff" points="100.5,-84.09 97,-74.09 93.5,-84.09 100.5,-84.09"/>
</a>
</g>
</g>
<!-- Node3 -->
<g id="Node000003" class="node">
<title>Node3</title>
<g id="a_Node000003"><a xlink:title=" ">
<polygon fill="#e0e0e0" stroke="#999999" points="42,-19 0,-19 0,0 42,0 42,-19"/>
<text text-anchor="middle" x="21" y="-7" font-family="Inter" font-size="10.00">glib.h</text>
</a>
</g>
</g>
<!-- Node1&#45;&gt;Node3 -->
<g id="edge5_Node000001_Node000003" class="edge">
<title>Node1&#45;&gt;Node3</title>
<g id="a_edge5_Node000001_Node000003"><a xlink:title=" ">
<path fill="none" stroke="#63b8ff" d="M81.83,-109.98C69.2,-102.16 51.62,-89.45 41,-74 31.69,-60.46 26.55,-42.37 23.82,-28.96"/>
<polygon fill="#63b8ff" stroke="#63b8ff" points="27.25,-28.24 22.06,-19 20.36,-29.46 27.25,-28.24"/>
</a>
</g>
</g>
<!-- Node4 -->
<g id="Node000004" class="node">
<title>Node4</title>
<g id="a_Node000004"><a xlink:title=" ">
<polygon fill="#e0e0e0" stroke="#999999" points="214,-19 140,-19 140,0 214,0 214,-19"/>
<text text-anchor="middle" x="177" y="-7" font-family="Inter" font-size="10.00">glib&#45;object.h</text>
</a>
</g>
</g>
<!-- Node1&#45;&gt;Node4 -->
<g id="edge6_Node000001_Node000004" class="edge">
<title>Node1&#45;&gt;Node4</title>
<g id="a_edge6_Node000001_Node000004"><a xlink:title=" ">
<path fill="none" stroke="#63b8ff" d="M112.28,-109.93C125.04,-102.07 142.87,-89.34 154,-74 163.79,-60.51 169.8,-42.41 173.21,-28.99"/>
<polygon fill="#63b8ff" stroke="#63b8ff" points="176.67,-29.55 175.49,-19.02 169.85,-27.99 176.67,-29.55"/>
</a>
</g>
</g>
<!-- Node2&#45;&gt;Node3 -->
<g id="edge2_Node000002_Node000003" class="edge">
<title>Node2&#45;&gt;Node3</title>
<g id="a_edge2_Node000002_Node000003"><a xlink:title=" ">
<path fill="none" stroke="#63b8ff" d="M84.79,-54.98C73.22,-46.92 55.62,-34.65 41.84,-25.03"/>
<polygon fill="#63b8ff" stroke="#63b8ff" points="43.64,-22.02 33.43,-19.17 39.63,-27.76 43.64,-22.02"/>
</a>
</g>
</g>
<!-- Node2&#45;&gt;Node4 -->
<g id="edge3_Node000002_Node000004" class="edge">
<title>Node2&#45;&gt;Node4</title>
<g id="a_edge3_Node000002_Node000004"><a xlink:title=" ">
<path fill="none" stroke="#63b8ff" d="M109.85,-54.98C122.14,-46.84 140.91,-34.41 155.48,-24.76"/>
<polygon fill="#63b8ff" stroke="#63b8ff" points="157.51,-27.61 163.91,-19.17 153.64,-21.78 157.51,-27.61"/>
</a>
</g>
</g>
<!-- Node5 -->
<g id="Node000005" class="node">
<title>Node5</title>
<g id="a_Node000005"><a xlink:title=" ">
<polygon fill="#e0e0e0" stroke="#999999" points="122,-19 60,-19 60,0 122,0 122,-19"/>
<text text-anchor="middle" x="91" y="-7" font-family="Inter" font-size="10.00">secmod.h</text>
</a>
</g>
</g>
<!-- Node2&#45;&gt;Node5 -->
<g id="edge4_Node000002_Node000005" class="edge">
<title>Node2&#45;&gt;Node5</title>
<g id="a_edge4_Node000002_Node000005"><a xlink:title=" ">
<path fill="none" stroke="#63b8ff" d="M96.01,-54.75C95.22,-47.8 94.1,-37.85 93.11,-29.13"/>
<polygon fill="#63b8ff" stroke="#63b8ff" points="96.58,-28.63 91.97,-19.09 89.62,-29.42 96.58,-28.63"/>
</a>
</g>
</g>
</g>
</svg>
