<?xml version="1.0" encoding="UTF-8" standalone="no"?>
<!DOCTYPE svg PUBLIC "-//W3C//DTD SVG 1.1//EN"
 "http://www.w3.org/Graphics/SVG/1.1/DTD/svg11.dtd">
<!-- Generated by graphviz version 2.43.0 (0)
 -->
<!-- Title: na&#45;boxed.h Pages: 1 -->
<svg width="333pt" height="302pt"
 viewBox="0.00 0.00 332.50 302.00" xmlns="http://www.w3.org/2000/svg" xmlns:xlink="http://www.w3.org/1999/xlink">

<svg id="main" version="1.1" xmlns="http://www.w3.org/2000/svg" xmlns:xlink="http://www.w3.org/1999/xlink" xml:space="preserve">

<style type="text/css"><![CDATA[
.node, .edge {opacity: 0.7;}
.node.selected, .edge.selected {opacity: 1;}
.edge:hover path { stroke: red; }
.edge:hover polygon { stroke: red; fill: red; }
]]></style>
<script type="application/ecmascript" xlink:href="svg.min.js"/>
<svg id="graph" class="graph">
<g id="graph0" class="graph" transform="scale(1 1) rotate(0) translate(4 298)">
<title>na&#45;boxed.h</title>
<!-- Node1 -->
<g id="Node000001" class="node">
<title>Node1</title>
<g id="a_Node000001"><a xlink:title=" ">
<polygon fill="#999999" stroke="#666666" points="192,-294 123,-294 123,-275 192,-275 192,-294"/>
<text text-anchor="middle" x="157.5" y="-282" font-family="Inter" font-size="10.00">na&#45;boxed.h</text>
</a>
</g>
</g>
<!-- Node2 -->
<g id="Node000002" class="node">
<title>Node2</title>
<g id="a_Node000002"><a xlink:href="na-boxed_8c.html" target="_top" xlink:title=" ">
<polygon fill="white" stroke="#666666" points="93.5,-239 25.5,-239 25.5,-220 93.5,-220 93.5,-239"/>
<text text-anchor="middle" x="59.5" y="-227" font-family="Inter" font-size="10.00">na&#45;boxed.c</text>
</a>
</g>
</g>
<!-- Node1&#45;&gt;Node2 -->
<g id="edge1_Node000001_Node000002" class="edge">
<title>Node1&#45;&gt;Node2</title>
<g id="a_edge1_Node000001_Node000002"><a xlink:title=" ">
<path fill="none" stroke="#63b8ff" d="M132.47,-269.97C114.56,-260.28 90.97,-247.52 75.53,-239.17"/>
<polygon fill="#63b8ff" stroke="#63b8ff" points="131.29,-273.31 141.75,-274.98 134.62,-267.15 131.29,-273.31"/>
</a>
</g>
</g>
<!-- Node3 -->
<g id="Node000003" class="node">
<title>Node3</title>
<g id="a_Node000003"><a xlink:href="na-data-boxed_8h.html" target="_top" xlink:title=" ">
<polygon fill="white" stroke="#666666" points="203.5,-239 111.5,-239 111.5,-220 203.5,-220 203.5,-239"/>
<text text-anchor="middle" x="157.5" y="-227" font-family="Inter" font-size="10.00">na&#45;data&#45;boxed.h</text>
</a>
</g>
</g>
<!-- Node1&#45;&gt;Node3 -->
<g id="edge2_Node000001_Node000003" class="edge">
<title>Node1&#45;&gt;Node3</title>
<g id="a_edge2_Node000001_Node000003"><a xlink:title=" ">
<path fill="none" stroke="#63b8ff" d="M157.5,-264.66C157.5,-255.93 157.5,-245.99 157.5,-239.09"/>
<polygon fill="#63b8ff" stroke="#63b8ff" points="154,-264.75 157.5,-274.75 161,-264.75 154,-264.75"/>
</a>
</g>
</g>
<!-- Node94 -->
<g id="Node000094" class="node">
<title>Node94</title>
<g id="a_Node000094"><a xlink:href="na-settings_8c.html" target="_top" xlink:title=" ">
<polygon fill="white" stroke="#666666" points="297,-239 222,-239 222,-220 297,-220 297,-239"/>
<text text-anchor="middle" x="259.5" y="-227" font-family="Inter" font-size="10.00">na&#45;settings.c</text>
</a>
</g>
</g>
<!-- Node1&#45;&gt;Node94 -->
<g id="edge12_Node000001_Node000094" class="edge">
<title>Node1&#45;&gt;Node94</title>
<g id="a_edge12_Node000001_Node000094"><a xlink:title=" ">
<path fill="none" stroke="#63b8ff" d="M182.77,-270.37C201.51,-260.63 226.52,-247.64 242.81,-239.17"/>
<polygon fill="#63b8ff" stroke="#63b8ff" points="181.15,-267.27 173.89,-274.98 184.38,-273.48 181.15,-267.27"/>
</a>
</g>
</g>
<!-- Node4 -->
<g id="Node000004" class="node">
<title>Node4</title>
<g id="a_Node000004"><a xlink:href="na-data-boxed_8c.html" target="_top" xlink:title=" ">
<polygon fill="white" stroke="#666666" points="91,-184 0,-184 0,-165 91,-165 91,-184"/>
<text text-anchor="middle" x="45.5" y="-172" font-family="Inter" font-size="10.00">na&#45;data&#45;boxed.c</text>
</a>
</g>
</g>
<!-- Node3&#45;&gt;Node4 -->
<g id="edge3_Node000003_Node000004" class="edge">
<title>Node3&#45;&gt;Node4</title>
<g id="a_edge3_Node000003_Node000004"><a xlink:title=" ">
<path fill="none" stroke="#63b8ff" d="M130.31,-215.63C109.68,-205.87 81.88,-192.71 63.82,-184.17"/>
<polygon fill="#63b8ff" stroke="#63b8ff" points="128.97,-218.87 139.51,-219.98 131.96,-212.54 128.97,-218.87"/>
</a>
</g>
</g>
<!-- Node5 -->
<g id="Node000005" class="node">
<title>Node5</title>
<g id="a_Node000005"><a xlink:href="na-factory-object_8c.html" target="_top" xlink:title=" ">
<polygon fill="white" stroke="#666666" points="256,-19 153,-19 153,0 256,0 256,-19"/>
<text text-anchor="middle" x="204.5" y="-7" font-family="Inter" font-size="10.00">na&#45;factory&#45;object.c</text>
</a>
</g>
</g>
<!-- Node3&#45;&gt;Node5 -->
<g id="edge4_Node000003_Node000005" class="edge">
<title>Node3&#45;&gt;Node5</title>
<g id="a_edge4_Node000003_Node000005"><a xlink:title=" ">
<path fill="none" stroke="#63b8ff" d="M149.26,-210.66C135.35,-177.75 111.28,-106.18 138.5,-55 147.58,-37.92 166.47,-26.21 181.72,-19.11"/>
<polygon fill="#63b8ff" stroke="#63b8ff" points="146.1,-212.17 153.34,-219.91 152.5,-209.35 146.1,-212.17"/>
</a>
</g>
</g>
<!-- Node6 -->
<g id="Node000006" class="node">
<title>Node6</title>
<g id="a_Node000006"><a xlink:href="na-factory-provider_8h.html" target="_top" xlink:title=" ">
<polygon fill="#fff0f0" stroke="red" points="261,-74 148,-74 148,-55 261,-55 261,-74"/>
<text text-anchor="middle" x="204.5" y="-62" font-family="Inter" font-size="10.00">na&#45;factory&#45;provider.h</text>
</a>
</g>
</g>
<!-- Node3&#45;&gt;Node6 -->
<g id="edge5_Node000003_Node000006" class="edge">
<title>Node3&#45;&gt;Node6</title>
<g id="a_edge5_Node000003_Node000006"><a xlink:title=" ">
<path fill="none" stroke="#63b8ff" d="M162.88,-209.83C173.02,-174.67 194.58,-99.9 201.96,-74.31"/>
<polygon fill="#63b8ff" stroke="#63b8ff" points="159.43,-209.16 160.03,-219.74 166.16,-211.1 159.43,-209.16"/>
</a>
</g>
</g>
<!-- Node12 -->
<g id="Node000012" class="node">
<title>Node12</title>
<g id="a_Node000012"><a xlink:href="na-ifactory-object_8h.html" target="_top" xlink:title=" ">
<polygon fill="#fff0f0" stroke="red" points="293,-184 186,-184 186,-165 293,-165 293,-184"/>
<text text-anchor="middle" x="239.5" y="-172" font-family="Inter" font-size="10.00">na&#45;ifactory&#45;object.h</text>
</a>
</g>
</g>
<!-- Node3&#45;&gt;Node12 -->
<g id="edge7_Node000003_Node000012" class="edge">
<title>Node3&#45;&gt;Node12</title>
<g id="a_edge7_Node000003_Node000012"><a xlink:title=" ">
<path fill="none" stroke="#63b8ff" d="M179.28,-214.42C194.16,-204.81 213.41,-192.37 226.09,-184.17"/>
<polygon fill="#63b8ff" stroke="#63b8ff" points="177.17,-211.62 170.67,-219.98 180.97,-217.5 177.17,-211.62"/>
</a>
</g>
</g>
<!-- Node14 -->
<g id="Node000014" class="node">
<title>Node14</title>
<g id="a_Node000014"><a xlink:href="na-ifactory-provider_8h.html" target="_top" xlink:title=" ">
<polygon fill="#fff0f0" stroke="red" points="324.5,-129 208.5,-129 208.5,-110 324.5,-110 324.5,-129"/>
<text text-anchor="middle" x="266.5" y="-117" font-family="Inter" font-size="10.00">na&#45;ifactory&#45;provider.h</text>
</a>
</g>
</g>
<!-- Node3&#45;&gt;Node14 -->
<g id="edge11_Node000003_Node000014" class="edge">
<title>Node3&#45;&gt;Node14</title>
<g id="a_edge11_Node000003_Node000014"><a xlink:title=" ">
<path fill="none" stroke="#63b8ff" d="M213.53,-218.27C249.22,-210.49 290.71,-198.63 301.5,-184 314.95,-165.77 292.18,-141.78 277.48,-129.15"/>
<polygon fill="#63b8ff" stroke="#63b8ff" points="212.7,-214.87 203.64,-220.36 214.15,-221.72 212.7,-214.87"/>
</a>
</g>
</g>
<!-- Node6&#45;&gt;Node5 -->
<g id="edge6_Node000006_Node000005" class="edge">
<title>Node6&#45;&gt;Node5</title>
<g id="a_edge6_Node000006_Node000005"><a xlink:title=" ">
<path fill="none" stroke="#63b8ff" d="M204.5,-44.66C204.5,-35.93 204.5,-25.99 204.5,-19.09"/>
<polygon fill="#63b8ff" stroke="#63b8ff" points="201,-44.75 204.5,-54.75 208,-44.75 201,-44.75"/>
</a>
</g>
</g>
<!-- Node12&#45;&gt;Node14 -->
<g id="edge8_Node000012_Node000014" class="edge">
<title>Node12&#45;&gt;Node14</title>
<g id="a_edge8_Node000012_Node000014"><a xlink:title=" ">
<path fill="none" stroke="#63b8ff" d="M248.51,-155.82C253.09,-146.82 258.45,-136.29 262.12,-129.09"/>
<polygon fill="#63b8ff" stroke="#63b8ff" points="245.38,-154.25 243.96,-164.75 251.62,-157.43 245.38,-154.25"/>
</a>
</g>
</g>
<!-- Node14&#45;&gt;Node5 -->
<g id="edge9_Node000014_Node000005" class="edge">
<title>Node14&#45;&gt;Node5</title>
<g id="a_edge9_Node000014_Node000005"><a xlink:title=" ">
<path fill="none" stroke="#63b8ff" d="M272.65,-99.79C275.87,-86.52 277.79,-68.71 270.5,-55 261.42,-37.92 242.53,-26.21 227.28,-19.11"/>
<polygon fill="#63b8ff" stroke="#63b8ff" points="269.21,-99.1 269.82,-109.67 275.94,-101.03 269.21,-99.1"/>
</a>
</g>
</g>
<!-- Node14&#45;&gt;Node6 -->
<g id="edge10_Node000014_Node000006" class="edge">
<title>Node14&#45;&gt;Node6</title>
<g id="a_edge10_Node000014_Node000006"><a xlink:title=" ">
<path fill="none" stroke="#63b8ff" d="M248.75,-103.32C237.69,-93.87 223.87,-82.06 214.64,-74.17"/>
<polygon fill="#63b8ff" stroke="#63b8ff" points="246.66,-106.15 256.54,-109.98 251.21,-100.83 246.66,-106.15"/>
</a>
</g>
</g>
</g>
</svg>
</svg>

<style type='text/css'>
<![CDATA[
[data-mouse-over-selected='false'] { opacity: 0.7; }
[data-mouse-over-selected='true']  { opacity: 1.0; }
]]>
</style>
<script type="application/ecmascript"><![CDATA[
document.addEventListener('DOMContentLoaded', (event) => {
  highlightEdges();
  highlightAdjacentNodes();
});
]]></script>
</svg>
