<?xml version="1.0" encoding="UTF-8" standalone="no"?>
<!DOCTYPE svg PUBLIC "-//W3C//DTD SVG 1.1//EN"
 "http://www.w3.org/Graphics/SVG/1.1/DTD/svg11.dtd">
<!-- Generated by graphviz version 2.43.0 (0)
 -->
<!-- Title: na&#45;data&#45;types.h Pages: 1 -->
<!--zoomable 82 -->

<svg id="main" version="1.1" xmlns="http://www.w3.org/2000/svg" xmlns:xlink="http://www.w3.org/1999/xlink" xml:space="preserve" onload="init(evt)">

<style type="text/css"><![CDATA[
.node, .edge {opacity: 0.7;}
.node.selected, .edge.selected {opacity: 1;}
.edge:hover path { stroke: red; }
.edge:hover polygon { stroke: red; fill: red; }
]]></style>

<defs>
  <circle id="rim" cx="0" cy="0" r="7"/>
  <circle id="rim2" cx="0" cy="0" r="3.5"/>
  <g id="zoomPlus">
    <use xlink:href="#rim" fill="#404040"><set attributeName="fill" to="#808080" begin="zoomplus.mouseover" end="zoomplus.mouseout"/></use>
    <path d="M-4,0h8M0,-4v8" fill="none" stroke="white" stroke-width="1.5" pointer-events="none"/>
  </g>
  <g id="zoomMin">
    <use xlink:href="#rim" fill="#404040"><set attributeName="fill" to="#808080" begin="zoomminus.mouseover" end="zoomminus.mouseout"/></use>
    <path d="M-4,0h8" fill="none" stroke="white" stroke-width="1.5" pointer-events="none"/>
  </g>
  <g id="arrowUp" transform="translate(30 24)">
    <use xlink:href="#rim"/>
    <path pointer-events="none" fill="none" stroke="white" stroke-width="1.5" d="M0,-3.0v7 M-2.5,-0.5L0,-3.0L2.5,-0.5"/>
  </g>
  <g id="arrowRight" transform="rotate(90) translate(36 -43)">
    <use xlink:href="#rim"/>
    <path pointer-events="none" fill="none" stroke="white" stroke-width="1.5" d="M0,-3.0v7 M-2.5,-0.5L0,-3.0L2.5,-0.5"/>
  </g>
  <g id="arrowDown" transform="rotate(180) translate(-30 -48)">
    <use xlink:href="#rim"/>
    <path pointer-events="none" fill="none" stroke="white" stroke-width="1.5" d="M0,-3.0v7 M-2.5,-0.5L0,-3.0L2.5,-0.5"/>
  </g>
  <g id="arrowLeft" transform="rotate(270) translate(-36 17)">
    <use xlink:href="#rim"/>
    <path pointer-events="none" fill="none" stroke="white" stroke-width="1.5" d="M0,-3.0v7 M-2.5,-0.5L0,-3.0L2.5,-0.5"/>
  </g>
  <g id="resetDef">
    <use xlink:href="#rim2" fill="#404040"><set attributeName="fill" to="#808080" begin="reset.mouseover" end="reset.mouseout"/></use>
  </g>
</defs>
<script type="application/ecmascript">
var viewWidth = 1677;
var viewHeight = 82;
var sectionId = 'dynsection-1';
</script>
<script type="application/ecmascript" xlink:href="svg.min.js"/>
<svg id="graph" class="graph">
<g id="viewport">
<title>na&#45;data&#45;types.h</title>
<!-- Node1 -->
<g id="Node000001" class="node">
<title>Node1</title>
<g id="a_Node000001"><a xlink:title=" ">
<polygon fill="#999999" stroke="#666666" points="781.5,-74 692.5,-74 692.5,-55 781.5,-55 781.5,-74"/>
<text text-anchor="middle" x="737" y="-62" font-family="Inter" font-size="10.00">na&#45;data&#45;types.h</text>
</a>
</g>
</g>
<!-- Node2 -->
<g id="Node000002" class="node">
<title>Node2</title>
<g id="a_Node000002"><a xlink:href="cadp-reader_8c.html" target="_top" xlink:title=" ">
<polygon fill="white" stroke="#666666" points="78,-19 0,-19 0,0 78,0 78,-19"/>
<text text-anchor="middle" x="39" y="-7" font-family="Inter" font-size="10.00">cadp&#45;reader.c</text>
</a>
</g>
</g>
<!-- Node1&#45;&gt;Node2 -->
<g id="edge1_Node000001_Node000002" class="edge">
<title>Node1&#45;&gt;Node2</title>
<g id="a_edge1_Node000001_Node000002"><a xlink:title=" ">
<path fill="none" stroke="#63b8ff" d="M682.27,-61.73C570.21,-57.67 306.65,-45.89 87,-19 84.14,-18.65 81.2,-18.24 78.24,-17.8"/>
<polygon fill="#63b8ff" stroke="#63b8ff" points="682.2,-65.23 692.32,-62.09 682.45,-58.23 682.2,-65.23"/>
</a>
</g>
</g>
<!-- Node3 -->
<g id="Node000003" class="node">
<title>Node3</title>
<g id="a_Node000003"><a xlink:href="cadp-writer_8c.html" target="_top" xlink:title=" ">
<polygon fill="white" stroke="#666666" points="171.5,-19 96.5,-19 96.5,0 171.5,0 171.5,-19"/>
<text text-anchor="middle" x="134" y="-7" font-family="Inter" font-size="10.00">cadp&#45;writer.c</text>
</a>
</g>
</g>
<!-- Node1&#45;&gt;Node3 -->
<g id="edge2_Node000001_Node000003" class="edge">
<title>Node1&#45;&gt;Node3</title>
<g id="a_edge2_Node000001_Node000003"><a xlink:title=" ">
<path fill="none" stroke="#63b8ff" d="M681.99,-60.91C581.96,-55.79 363.71,-42.77 181,-19 177.96,-18.6 174.81,-18.15 171.66,-17.65"/>
<polygon fill="#63b8ff" stroke="#63b8ff" points="682,-64.41 692.16,-61.42 682.35,-57.42 682,-64.41"/>
</a>
</g>
</g>
<!-- Node4 -->
<g id="Node000004" class="node">
<title>Node4</title>
<g id="a_Node000004"><a xlink:href="na-boxed_8c.html" target="_top" xlink:title=" ">
<polygon fill="white" stroke="#666666" points="258,-19 190,-19 190,0 258,0 258,-19"/>
<text text-anchor="middle" x="224" y="-7" font-family="Inter" font-size="10.00">na&#45;boxed.c</text>
</a>
</g>
</g>
<!-- Node1&#45;&gt;Node4 -->
<g id="edge3_Node000001_Node000004" class="edge">
<title>Node1&#45;&gt;Node4</title>
<g id="a_edge3_Node000001_Node000004"><a xlink:title=" ">
<path fill="none" stroke="#63b8ff" d="M682.43,-60.13C594.61,-54.29 416.6,-40.81 267,-19 264.14,-18.58 261.18,-18.1 258.21,-17.59"/>
<polygon fill="#63b8ff" stroke="#63b8ff" points="682.23,-63.62 692.43,-60.78 682.68,-56.63 682.23,-63.62"/>
</a>
</g>
</g>
<!-- Node5 -->
<g id="Node000005" class="node">
<title>Node5</title>
<g id="a_Node000005"><a xlink:href="na-data-boxed_8c.html" target="_top" xlink:title=" ">
<polygon fill="white" stroke="#666666" points="367.5,-19 276.5,-19 276.5,0 367.5,0 367.5,-19"/>
<text text-anchor="middle" x="322" y="-7" font-family="Inter" font-size="10.00">na&#45;data&#45;boxed.c</text>
</a>
</g>
</g>
<!-- Node1&#45;&gt;Node5 -->
<g id="edge4_Node000001_Node000005" class="edge">
<title>Node1&#45;&gt;Node5</title>
<g id="a_edge4_Node000001_Node000005"><a xlink:title=" ">
<path fill="none" stroke="#63b8ff" d="M682.46,-57.35C611.7,-49.25 484.48,-34.22 376,-19 373.27,-18.62 370.47,-18.21 367.65,-17.8"/>
<polygon fill="#63b8ff" stroke="#63b8ff" points="682.14,-60.84 692.48,-58.5 682.94,-53.88 682.14,-60.84"/>
</a>
</g>
</g>
<!-- Node6 -->
<g id="Node000006" class="node">
<title>Node6</title>
<g id="a_Node000006"><a xlink:href="na-data-types_8c.html" target="_top" xlink:title=" ">
<polygon fill="white" stroke="#666666" points="472.5,-19 385.5,-19 385.5,0 472.5,0 472.5,-19"/>
<text text-anchor="middle" x="429" y="-7" font-family="Inter" font-size="10.00">na&#45;data&#45;types.c</text>
</a>
</g>
</g>
<!-- Node1&#45;&gt;Node6 -->
<g id="edge5_Node000001_Node000006" class="edge">
<title>Node1&#45;&gt;Node6</title>
<g id="a_edge5_Node000001_Node000006"><a xlink:title=" ">
<path fill="none" stroke="#63b8ff" d="M682.2,-54.07C622.42,-43.78 527.91,-27.52 472.84,-18.04"/>
<polygon fill="#63b8ff" stroke="#63b8ff" points="681.77,-57.55 692.21,-55.79 682.95,-50.65 681.77,-57.55"/>
</a>
</g>
</g>
<!-- Node7 -->
<g id="Node000007" class="node">
<title>Node7</title>
<g id="a_Node000007"><a xlink:href="na-factory-object_8c.html" target="_top" xlink:title=" ">
<polygon fill="white" stroke="#666666" points="593.5,-19 490.5,-19 490.5,0 593.5,0 593.5,-19"/>
<text text-anchor="middle" x="542" y="-7" font-family="Inter" font-size="10.00">na&#45;factory&#45;object.c</text>
</a>
</g>
</g>
<!-- Node1&#45;&gt;Node7 -->
<g id="edge6_Node000001_Node000007" class="edge">
<title>Node1&#45;&gt;Node7</title>
<g id="a_edge6_Node000001_Node000007"><a xlink:title=" ">
<path fill="none" stroke="#63b8ff" d="M695.83,-52.31C659.34,-42.39 606.83,-28.12 573.58,-19.08"/>
<polygon fill="#63b8ff" stroke="#63b8ff" points="695.1,-55.74 705.67,-54.98 696.94,-48.98 695.1,-55.74"/>
</a>
</g>
</g>
<!-- Node8 -->
<g id="Node000008" class="node">
<title>Node8</title>
<g id="a_Node000008"><a xlink:href="na-icontext-factory_8c.html" target="_top" xlink:title=" ">
<polygon fill="white" stroke="#666666" points="722,-19 612,-19 612,0 722,0 722,-19"/>
<text text-anchor="middle" x="667" y="-7" font-family="Inter" font-size="10.00">na&#45;icontext&#45;factory.c</text>
</a>
</g>
</g>
<!-- Node1&#45;&gt;Node8 -->
<g id="edge7_Node000001_Node000008" class="edge">
<title>Node1&#45;&gt;Node8</title>
<g id="a_edge7_Node000001_Node000008"><a xlink:title=" ">
<path fill="none" stroke="#63b8ff" d="M717.69,-48.88C705.09,-39.34 689.07,-27.21 678.45,-19.17"/>
<polygon fill="#63b8ff" stroke="#63b8ff" points="715.67,-51.74 725.75,-54.98 719.89,-46.16 715.67,-51.74"/>
</a>
</g>
</g>
<!-- Node9 -->
<g id="Node000009" class="node">
<title>Node9</title>
<g id="a_Node000009"><a xlink:href="na-object-action-factory_8c.html" target="_top" xlink:title=" ">
<polygon fill="white" stroke="#666666" points="873.5,-19 740.5,-19 740.5,0 873.5,0 873.5,-19"/>
<text text-anchor="middle" x="807" y="-7" font-family="Inter" font-size="10.00">na&#45;object&#45;action&#45;factory.c</text>
</a>
</g>
</g>
<!-- Node1&#45;&gt;Node9 -->
<g id="edge8_Node000001_Node000009" class="edge">
<title>Node1&#45;&gt;Node9</title>
<g id="a_edge8_Node000001_Node000009"><a xlink:title=" ">
<path fill="none" stroke="#63b8ff" d="M756.31,-48.88C768.91,-39.34 784.93,-27.21 795.55,-19.17"/>
<polygon fill="#63b8ff" stroke="#63b8ff" points="754.11,-46.16 748.25,-54.98 758.33,-51.74 754.11,-46.16"/>
</a>
</g>
</g>
<!-- Node10 -->
<g id="Node000010" class="node">
<title>Node10</title>
<g id="a_Node000010"><a xlink:href="na-object-id-factory_8c.html" target="_top" xlink:title=" ">
<polygon fill="white" stroke="#666666" points="1004.5,-19 891.5,-19 891.5,0 1004.5,0 1004.5,-19"/>
<text text-anchor="middle" x="948" y="-7" font-family="Inter" font-size="10.00">na&#45;object&#45;id&#45;factory.c</text>
</a>
</g>
</g>
<!-- Node1&#45;&gt;Node10 -->
<g id="edge9_Node000001_Node000010" class="edge">
<title>Node1&#45;&gt;Node10</title>
<g id="a_edge9_Node000001_Node000010"><a xlink:title=" ">
<path fill="none" stroke="#63b8ff" d="M780.79,-52.5C820.3,-42.58 877.62,-28.18 913.83,-19.08"/>
<polygon fill="#63b8ff" stroke="#63b8ff" points="779.75,-49.15 770.9,-54.98 781.45,-55.94 779.75,-49.15"/>
</a>
</g>
</g>
<!-- Node11 -->
<g id="Node000011" class="node">
<title>Node11</title>
<g id="a_Node000011"><a xlink:href="na-object-item-factory_8c.html" target="_top" xlink:title=" ">
<polygon fill="white" stroke="#666666" points="1149,-19 1023,-19 1023,0 1149,0 1149,-19"/>
<text text-anchor="middle" x="1086" y="-7" font-family="Inter" font-size="10.00">na&#45;object&#45;item&#45;factory.c</text>
</a>
</g>
</g>
<!-- Node1&#45;&gt;Node11 -->
<g id="edge10_Node000001_Node000011" class="edge">
<title>Node1&#45;&gt;Node11</title>
<g id="a_edge10_Node000001_Node000011"><a xlink:title=" ">
<path fill="none" stroke="#63b8ff" d="M791.59,-55.21C856.52,-45.35 964.32,-28.98 1029.89,-19.02"/>
<polygon fill="#63b8ff" stroke="#63b8ff" points="790.92,-51.77 781.56,-56.73 791.97,-58.69 790.92,-51.77"/>
</a>
</g>
</g>
<!-- Node12 -->
<g id="Node000012" class="node">
<title>Node12</title>
<g id="a_Node000012"><a xlink:href="na-object-menu-factory_8c.html" target="_top" xlink:title=" ">
<polygon fill="white" stroke="#666666" points="1299,-19 1167,-19 1167,0 1299,0 1299,-19"/>
<text text-anchor="middle" x="1233" y="-7" font-family="Inter" font-size="10.00">na&#45;object&#45;menu&#45;factory.c</text>
</a>
</g>
</g>
<!-- Node1&#45;&gt;Node12 -->
<g id="edge11_Node000001_Node000012" class="edge">
<title>Node1&#45;&gt;Node12</title>
<g id="a_edge11_Node000001_Node000012"><a xlink:title=" ">
<path fill="none" stroke="#63b8ff" d="M791.94,-57.83C872.33,-49.49 1026.72,-33.38 1158,-19 1160.87,-18.69 1163.79,-18.36 1166.75,-18.04"/>
<polygon fill="#63b8ff" stroke="#63b8ff" points="791.15,-54.39 781.57,-58.9 791.87,-61.35 791.15,-54.39"/>
</a>
</g>
</g>
<!-- Node13 -->
<g id="Node000013" class="node">
<title>Node13</title>
<g id="a_Node000013"><a xlink:href="na-object-profile-factory_8c.html" target="_top" xlink:title=" ">
<polygon fill="white" stroke="#666666" points="1452.5,-19 1317.5,-19 1317.5,0 1452.5,0 1452.5,-19"/>
<text text-anchor="middle" x="1385" y="-7" font-family="Inter" font-size="10.00">na&#45;object&#45;profile&#45;factory.c</text>
</a>
</g>
</g>
<!-- Node1&#45;&gt;Node13 -->
<g id="edge12_Node000001_Node000013" class="edge">
<title>Node1&#45;&gt;Node13</title>
<g id="a_edge12_Node000001_Node000013"><a xlink:title=" ">
<path fill="none" stroke="#63b8ff" d="M791.88,-59.81C893.7,-52.84 1118.74,-36.82 1308,-19 1311.08,-18.71 1314.23,-18.4 1317.41,-18.09"/>
<polygon fill="#63b8ff" stroke="#63b8ff" points="791.57,-56.33 781.83,-60.5 792.04,-63.31 791.57,-56.33"/>
</a>
</g>
</g>
<!-- Node14 -->
<g id="Node000014" class="node">
<title>Node14</title>
<g id="a_Node000014"><a xlink:href="na-print-schemas_8c.html" target="_top" xlink:title=" ">
<polygon fill="white" stroke="#666666" points="1575,-19 1471,-19 1471,0 1575,0 1575,-19"/>
<text text-anchor="middle" x="1523" y="-7" font-family="Inter" font-size="10.00">na&#45;print&#45;schemas.c</text>
</a>
</g>
</g>
<!-- Node1&#45;&gt;Node14 -->
<g id="edge13_Node000001_Node000014" class="edge">
<title>Node1&#45;&gt;Node14</title>
<g id="a_edge13_Node000001_Node000014"><a xlink:title=" ">
<path fill="none" stroke="#63b8ff" d="M791.77,-61.58C912.86,-57.03 1212.36,-44.02 1462,-19 1464.87,-18.71 1467.82,-18.39 1470.79,-18.05"/>
<polygon fill="#63b8ff" stroke="#63b8ff" points="791.51,-58.09 781.65,-61.96 791.77,-65.08 791.51,-58.09"/>
</a>
</g>
</g>
<!-- Node15 -->
<g id="Node000015" class="node">
<title>Node15</title>
<g id="a_Node000015"><a xlink:href="na-settings_8c.html" target="_top" xlink:title=" ">
<polygon fill="white" stroke="#666666" points="1668.5,-19 1593.5,-19 1593.5,0 1668.5,0 1668.5,-19"/>
<text text-anchor="middle" x="1631" y="-7" font-family="Inter" font-size="10.00">na&#45;settings.c</text>
</a>
</g>
</g>
<!-- Node1&#45;&gt;Node15 -->
<g id="edge14_Node000001_Node000015" class="edge">
<title>Node1&#45;&gt;Node15</title>
<g id="a_edge14_Node000001_Node000015"><a xlink:title=" ">
<path fill="none" stroke="#63b8ff" d="M791.8,-63.02C926.87,-61.3 1286.42,-53.59 1584,-19 1587.05,-18.65 1590.2,-18.22 1593.35,-17.74"/>
<polygon fill="#63b8ff" stroke="#63b8ff" points="791.66,-59.52 781.71,-63.14 791.75,-66.52 791.66,-59.52"/>
</a>
</g>
</g>
</g>
</svg>

<g id="navigator" transform="translate(0 0)" fill="#404254">
  <rect fill="#f2f5e9" fill-opacity="0.5" stroke="#606060" stroke-width=".5" x="0" y="0" width="60" height="60"/>
  <use id="zoomplus" xlink:href="#zoomPlus" x="17" y="9" onmousedown="handleZoom(evt,'in')"/>
  <use id="zoomminus" xlink:href="#zoomMin" x="42" y="9" onmousedown="handleZoom(evt,'out')"/>
  <use id="reset" xlink:href="#resetDef" x="30" y="36" onmousedown="handleReset()"/>
   <use id="arrowup" xlink:href="#arrowUp" x="0" y="0" onmousedown="handlePan(0,-1)"/>
  <use id="arrowright" xlink:href="#arrowRight" x="0" y="0" onmousedown="handlePan(1,0)"/>
  <use id="arrowdown" xlink:href="#arrowDown" x="0" y="0" onmousedown="handlePan(0,1)"/>
  <use id="arrowleft" xlink:href="#arrowLeft" x="0" y="0" onmousedown="handlePan(-1,0)"/>
</g>
<svg viewBox="0 0 15 15" width="100%" height="30px" preserveAspectRatio="xMaxYMin meet">
 <g id="arrow_out" transform="scale(0.3 0.3)">
  <a xlink:href="na-data-types_8h__dep__incl_org.svg" target="_base">
   <rect id="button" ry="5" rx="5" y="6" x="6" height="38" width="38"
        fill="#f2f5e9" fill-opacity="0.5" stroke="#606060" stroke-width="1.0"/>
   <path id="arrow"
     d="M 11.500037,31.436501 C 11.940474,20.09759 22.043105,11.32322 32.158766,21.979434 L 37.068811,17.246167 C 37.068811,17.246167 37.088388,32 37.088388,32 L 22.160133,31.978069 C 22.160133,31.978069 26.997745,27.140456 26.997745,27.140456 C 18.528582,18.264221 13.291696,25.230495 11.500037,31.436501 z"
     style="fill:#404040;"/>
  </a>
 </g>
</svg>

<style type='text/css'>
<![CDATA[
[data-mouse-over-selected='false'] { opacity: 0.7; }
[data-mouse-over-selected='true']  { opacity: 1.0; }
]]>
</style>
<script type="application/ecmascript"><![CDATA[
document.addEventListener('DOMContentLoaded', (event) => {
  highlightEdges();
  highlightAdjacentNodes();
});
]]></script>
</svg>
