<?xml version="1.0" encoding="UTF-8" standalone="no"?>
<!DOCTYPE svg PUBLIC "-//W3C//DTD SVG 1.1//EN"
 "http://www.w3.org/Graphics/SVG/1.1/DTD/svg11.dtd">
<!-- Generated by graphviz version 2.43.0 (0)
 -->
<!-- Title: na&#45;importer.h Pages: 1 -->
<!--zoomable 192 -->

<svg id="main" version="1.1" xmlns="http://www.w3.org/2000/svg" xmlns:xlink="http://www.w3.org/1999/xlink" xml:space="preserve" onload="init(evt)">

<style type="text/css"><![CDATA[
.node, .edge {opacity: 0.7;}
.node.selected, .edge.selected {opacity: 1;}
.edge:hover path { stroke: red; }
.edge:hover polygon { stroke: red; fill: red; }
]]></style>

<defs>
  <circle id="rim" cx="0" cy="0" r="7"/>
  <circle id="rim2" cx="0" cy="0" r="3.5"/>
  <g id="zoomPlus">
    <use xlink:href="#rim" fill="#404040"><set attributeName="fill" to="#808080" begin="zoomplus.mouseover" end="zoomplus.mouseout"/></use>
    <path d="M-4,0h8M0,-4v8" fill="none" stroke="white" stroke-width="1.5" pointer-events="none"/>
  </g>
  <g id="zoomMin">
    <use xlink:href="#rim" fill="#404040"><set attributeName="fill" to="#808080" begin="zoomminus.mouseover" end="zoomminus.mouseout"/></use>
    <path d="M-4,0h8" fill="none" stroke="white" stroke-width="1.5" pointer-events="none"/>
  </g>
  <g id="arrowUp" transform="translate(30 24)">
    <use xlink:href="#rim"/>
    <path pointer-events="none" fill="none" stroke="white" stroke-width="1.5" d="M0,-3.0v7 M-2.5,-0.5L0,-3.0L2.5,-0.5"/>
  </g>
  <g id="arrowRight" transform="rotate(90) translate(36 -43)">
    <use xlink:href="#rim"/>
    <path pointer-events="none" fill="none" stroke="white" stroke-width="1.5" d="M0,-3.0v7 M-2.5,-0.5L0,-3.0L2.5,-0.5"/>
  </g>
  <g id="arrowDown" transform="rotate(180) translate(-30 -48)">
    <use xlink:href="#rim"/>
    <path pointer-events="none" fill="none" stroke="white" stroke-width="1.5" d="M0,-3.0v7 M-2.5,-0.5L0,-3.0L2.5,-0.5"/>
  </g>
  <g id="arrowLeft" transform="rotate(270) translate(-36 17)">
    <use xlink:href="#rim"/>
    <path pointer-events="none" fill="none" stroke="white" stroke-width="1.5" d="M0,-3.0v7 M-2.5,-0.5L0,-3.0L2.5,-0.5"/>
  </g>
  <g id="resetDef">
    <use xlink:href="#rim2" fill="#404040"><set attributeName="fill" to="#808080" begin="reset.mouseover" end="reset.mouseout"/></use>
  </g>
</defs>
<script type="application/ecmascript">
var viewWidth = 710;
var viewHeight = 192;
var sectionId = 'dynsection-0';
</script>
<script type="application/ecmascript" xlink:href="svg.min.js"/>
<svg id="graph" class="graph">
<g id="viewport">
<title>na&#45;importer.h</title>
<!-- Node1 -->
<g id="Node000001" class="node">
<title>Node1</title>
<g id="a_Node000001"><a xlink:title=" ">
<polygon fill="#999999" stroke="#666666" points="244.5,-184 164.5,-184 164.5,-165 244.5,-165 244.5,-184"/>
<text text-anchor="middle" x="204.5" y="-172" font-family="Inter" font-size="10.00">na&#45;importer.h</text>
</a>
</g>
</g>
<!-- Node2 -->
<g id="Node000002" class="node">
<title>Node2</title>
<g id="a_Node000002"><a xlink:title=" ">
<polygon fill="#e0e0e0" stroke="#999999" points="59,-129 0,-129 0,-110 59,-110 59,-129"/>
<text text-anchor="middle" x="29.5" y="-117" font-family="Inter" font-size="10.00">gtk/gtk.h</text>
</a>
</g>
</g>
<!-- Node1&#45;&gt;Node2 -->
<g id="edge1_Node000001_Node000002" class="edge">
<title>Node1&#45;&gt;Node2</title>
<g id="a_edge1_Node000001_Node000002"><a xlink:title=" ">
<path fill="none" stroke="#63b8ff" d="M176.38,-164.98C146.88,-156.05 100.31,-141.94 67.53,-132.02"/>
<polygon fill="#63b8ff" stroke="#63b8ff" points="68.42,-128.63 57.84,-129.08 66.39,-135.33 68.42,-128.63"/>
</a>
</g>
</g>
<!-- Node3 -->
<g id="Node000003" class="node">
<title>Node3</title>
<g id="a_Node000003"><a xlink:href="na-iimporter_8h.html" target="_top" xlink:title=" ">
<polygon fill="white" stroke="#666666" points="176,-129 77,-129 77,-110 176,-110 176,-129"/>
<text text-anchor="middle" x="126.5" y="-117" font-family="Inter" font-size="10.00">api/na&#45;iimporter.h</text>
</a>
</g>
</g>
<!-- Node1&#45;&gt;Node3 -->
<g id="edge2_Node000001_Node000003" class="edge">
<title>Node1&#45;&gt;Node3</title>
<g id="a_edge2_Node000001_Node000003"><a xlink:title=" ">
<path fill="none" stroke="#63b8ff" d="M191.97,-164.98C180.1,-156.92 162.04,-144.65 147.89,-135.03"/>
<polygon fill="#63b8ff" stroke="#63b8ff" points="149.5,-131.9 139.26,-129.17 145.56,-137.69 149.5,-131.9"/>
</a>
</g>
</g>
<!-- Node4 -->
<g id="Node000004" class="node">
<title>Node4</title>
<g id="a_Node000004"><a xlink:href="na-object-item_8h.html" target="_top" xlink:title=" ">
<polygon fill="#fff0f0" stroke="red" points="250.5,-19 158.5,-19 158.5,0 250.5,0 250.5,-19"/>
<text text-anchor="middle" x="204.5" y="-7" font-family="Inter" font-size="10.00">na&#45;object&#45;item.h</text>
</a>
</g>
</g>
<!-- Node1&#45;&gt;Node4 -->
<g id="edge4_Node000001_Node000004" class="edge">
<title>Node1&#45;&gt;Node4</title>
<g id="a_edge4_Node000001_Node000004"><a xlink:title=" ">
<path fill="none" stroke="#63b8ff" d="M204.5,-164.74C204.5,-139.31 204.5,-65.08 204.5,-29.69"/>
<polygon fill="#63b8ff" stroke="#63b8ff" points="208,-29.31 204.5,-19.31 201,-29.31 208,-29.31"/>
</a>
</g>
</g>
<!-- Node8 -->
<g id="Node000008" class="node">
<title>Node8</title>
<g id="a_Node000008"><a xlink:href="na-ioption_8h.html" target="_top" xlink:title=" ">
<polygon fill="white" stroke="#666666" points="318.5,-129 246.5,-129 246.5,-110 318.5,-110 318.5,-129"/>
<text text-anchor="middle" x="282.5" y="-117" font-family="Inter" font-size="10.00">na&#45;ioption.h</text>
</a>
</g>
</g>
<!-- Node1&#45;&gt;Node8 -->
<g id="edge5_Node000001_Node000008" class="edge">
<title>Node1&#45;&gt;Node8</title>
<g id="a_edge5_Node000001_Node000008"><a xlink:title=" ">
<path fill="none" stroke="#63b8ff" d="M217.03,-164.98C228.9,-156.92 246.96,-144.65 261.11,-135.03"/>
<polygon fill="#63b8ff" stroke="#63b8ff" points="263.44,-137.69 269.74,-129.17 259.5,-131.9 263.44,-137.69"/>
</a>
</g>
</g>
<!-- Node10 -->
<g id="Node000010" class="node">
<title>Node10</title>
<g id="a_Node000010"><a xlink:href="na-pivot_8h.html" target="_top" xlink:title=" ">
<polygon fill="white" stroke="#666666" points="525,-129 462,-129 462,-110 525,-110 525,-129"/>
<text text-anchor="middle" x="493.5" y="-117" font-family="Inter" font-size="10.00">na&#45;pivot.h</text>
</a>
</g>
</g>
<!-- Node1&#45;&gt;Node10 -->
<g id="edge7_Node000001_Node000010" class="edge">
<title>Node1&#45;&gt;Node10</title>
<g id="a_edge7_Node000001_Node000010"><a xlink:title=" ">
<path fill="none" stroke="#63b8ff" d="M244.68,-166.13C299.18,-156.14 396.05,-138.37 451.48,-128.21"/>
<polygon fill="#63b8ff" stroke="#63b8ff" points="452.45,-131.59 461.66,-126.34 451.19,-124.7 452.45,-131.59"/>
</a>
</g>
</g>
<!-- Node3&#45;&gt;Node4 -->
<g id="edge3_Node000003_Node000004" class="edge">
<title>Node3&#45;&gt;Node4</title>
<g id="a_edge3_Node000003_Node000004"><a xlink:title=" ">
<path fill="none" stroke="#63b8ff" d="M132.88,-109.66C145.86,-91.69 175.51,-50.64 192.31,-27.38"/>
<polygon fill="#63b8ff" stroke="#63b8ff" points="195.23,-29.31 198.25,-19.16 189.55,-25.22 195.23,-29.31"/>
</a>
</g>
</g>
<!-- Node9 -->
<g id="Node000009" class="node">
<title>Node9</title>
<g id="a_Node000009"><a xlink:title=" ">
<polygon fill="#e0e0e0" stroke="#999999" points="360.5,-74 232.5,-74 232.5,-55 360.5,-55 360.5,-74"/>
<text text-anchor="middle" x="296.5" y="-62" font-family="Inter" font-size="10.00">gdk&#45;pixbuf/gdk&#45;pixbuf.h</text>
</a>
</g>
</g>
<!-- Node8&#45;&gt;Node9 -->
<g id="edge6_Node000008_Node000009" class="edge">
<title>Node8&#45;&gt;Node9</title>
<g id="a_edge6_Node000008_Node000009"><a xlink:title=" ">
<path fill="none" stroke="#63b8ff" d="M284.81,-109.75C286.67,-102.72 289.34,-92.62 291.65,-83.84"/>
<polygon fill="#63b8ff" stroke="#63b8ff" points="295.06,-84.65 294.23,-74.09 288.29,-82.86 295.06,-84.65"/>
</a>
</g>
</g>
<!-- Node11 -->
<g id="Node000011" class="node">
<title>Node11</title>
<g id="a_Node000011"><a xlink:href="na-iio-provider_8h.html" target="_top" xlink:title=" ">
<polygon fill="white" stroke="#666666" points="486.5,-74 378.5,-74 378.5,-55 486.5,-55 486.5,-74"/>
<text text-anchor="middle" x="432.5" y="-62" font-family="Inter" font-size="10.00">api/na&#45;iio&#45;provider.h</text>
</a>
</g>
</g>
<!-- Node10&#45;&gt;Node11 -->
<g id="edge8_Node000010_Node000011" class="edge">
<title>Node10&#45;&gt;Node11</title>
<g id="a_edge8_Node000010_Node000011"><a xlink:title=" ">
<path fill="none" stroke="#63b8ff" d="M483.7,-109.98C474.68,-102.15 461.09,-90.34 450.18,-80.86"/>
<polygon fill="#63b8ff" stroke="#63b8ff" points="452.32,-78.09 442.48,-74.17 447.73,-83.37 452.32,-78.09"/>
</a>
</g>
</g>
<!-- Node12 -->
<g id="Node000012" class="node">
<title>Node12</title>
<g id="a_Node000012"><a xlink:href="na-object-api_8h.html" target="_top" xlink:title=" ">
<polygon fill="#fff0f0" stroke="red" points="606.5,-74 504.5,-74 504.5,-55 606.5,-55 606.5,-74"/>
<text text-anchor="middle" x="555.5" y="-62" font-family="Inter" font-size="10.00">api/na&#45;object&#45;api.h</text>
</a>
</g>
</g>
<!-- Node10&#45;&gt;Node12 -->
<g id="edge10_Node000010_Node000012" class="edge">
<title>Node10&#45;&gt;Node12</title>
<g id="a_edge10_Node000010_Node000012"><a xlink:title=" ">
<path fill="none" stroke="#63b8ff" d="M503.46,-109.98C512.63,-102.15 526.44,-90.34 537.53,-80.86"/>
<polygon fill="#63b8ff" stroke="#63b8ff" points="540.03,-83.33 545.36,-74.17 535.48,-78.01 540.03,-83.33"/>
</a>
</g>
</g>
<!-- Node25 -->
<g id="Node000025" class="node">
<title>Node25</title>
<g id="a_Node000025"><a xlink:href="na-settings_8h.html" target="_top" xlink:title=" ">
<polygon fill="#fff0f0" stroke="red" points="702,-74 625,-74 625,-55 702,-55 702,-74"/>
<text text-anchor="middle" x="663.5" y="-62" font-family="Inter" font-size="10.00">na&#45;settings.h</text>
</a>
</g>
</g>
<!-- Node10&#45;&gt;Node25 -->
<g id="edge11_Node000010_Node000025" class="edge">
<title>Node10&#45;&gt;Node25</title>
<g id="a_edge11_Node000010_Node000025"><a xlink:title=" ">
<path fill="none" stroke="#63b8ff" d="M520.81,-109.98C549.35,-101.09 594.33,-87.07 626.14,-77.15"/>
<polygon fill="#63b8ff" stroke="#63b8ff" points="627.47,-80.4 635.97,-74.08 625.38,-73.72 627.47,-80.4"/>
</a>
</g>
</g>
<!-- Node11&#45;&gt;Node4 -->
<g id="edge9_Node000011_Node000004" class="edge">
<title>Node11&#45;&gt;Node4</title>
<g id="a_edge9_Node000011_Node000004"><a xlink:title=" ">
<path fill="none" stroke="#63b8ff" d="M395.87,-54.98C356.59,-45.86 294.13,-31.33 251.31,-21.38"/>
<polygon fill="#63b8ff" stroke="#63b8ff" points="251.95,-17.94 241.42,-19.08 250.37,-24.76 251.95,-17.94"/>
</a>
</g>
</g>
</g>
</svg>

<g id="navigator" transform="translate(0 0)" fill="#404254">
  <rect fill="#f2f5e9" fill-opacity="0.5" stroke="#606060" stroke-width=".5" x="0" y="0" width="60" height="60"/>
  <use id="zoomplus" xlink:href="#zoomPlus" x="17" y="9" onmousedown="handleZoom(evt,'in')"/>
  <use id="zoomminus" xlink:href="#zoomMin" x="42" y="9" onmousedown="handleZoom(evt,'out')"/>
  <use id="reset" xlink:href="#resetDef" x="30" y="36" onmousedown="handleReset()"/>
   <use id="arrowup" xlink:href="#arrowUp" x="0" y="0" onmousedown="handlePan(0,-1)"/>
  <use id="arrowright" xlink:href="#arrowRight" x="0" y="0" onmousedown="handlePan(1,0)"/>
  <use id="arrowdown" xlink:href="#arrowDown" x="0" y="0" onmousedown="handlePan(0,1)"/>
  <use id="arrowleft" xlink:href="#arrowLeft" x="0" y="0" onmousedown="handlePan(-1,0)"/>
</g>
<svg viewBox="0 0 15 15" width="100%" height="30px" preserveAspectRatio="xMaxYMin meet">
 <g id="arrow_out" transform="scale(0.3 0.3)">
  <a xlink:href="na-importer_8h__incl_org.svg" target="_base">
   <rect id="button" ry="5" rx="5" y="6" x="6" height="38" width="38"
        fill="#f2f5e9" fill-opacity="0.5" stroke="#606060" stroke-width="1.0"/>
   <path id="arrow"
     d="M 11.500037,31.436501 C 11.940474,20.09759 22.043105,11.32322 32.158766,21.979434 L 37.068811,17.246167 C 37.068811,17.246167 37.088388,32 37.088388,32 L 22.160133,31.978069 C 22.160133,31.978069 26.997745,27.140456 26.997745,27.140456 C 18.528582,18.264221 13.291696,25.230495 11.500037,31.436501 z"
     style="fill:#404040;"/>
  </a>
 </g>
</svg>

<style type='text/css'>
<![CDATA[
[data-mouse-over-selected='false'] { opacity: 0.7; }
[data-mouse-over-selected='true']  { opacity: 1.0; }
]]>
</style>
<script type="application/ecmascript"><![CDATA[
document.addEventListener('DOMContentLoaded', (event) => {
  highlightEdges();
  highlightAdjacentNodes();
});
]]></script>
</svg>
