<?xml version="1.0" encoding="UTF-8" standalone="no"?>
<!DOCTYPE svg PUBLIC "-//W3C//DTD SVG 1.1//EN"
 "http://www.w3.org/Graphics/SVG/1.1/DTD/svg11.dtd">
<!-- Generated by graphviz version 2.43.0 (0)
 -->
<!-- Title: na&#45;object&#45;menu&#45;factory.c Pages: 1 -->
<svg width="361pt" height="148pt"
 viewBox="0.00 0.00 360.50 148.00" xmlns="http://www.w3.org/2000/svg" xmlns:xlink="http://www.w3.org/1999/xlink">

<svg id="main" version="1.1" xmlns="http://www.w3.org/2000/svg" xmlns:xlink="http://www.w3.org/1999/xlink" xml:space="preserve">

<style type="text/css"><![CDATA[
.node, .edge {opacity: 0.7;}
.node.selected, .edge.selected {opacity: 1;}
.edge:hover path { stroke: red; }
.edge:hover polygon { stroke: red; fill: red; }
]]></style>
<script type="application/ecmascript" xlink:href="svg.min.js"/>
<svg id="graph" class="graph">
<g id="graph0" class="graph" transform="scale(1 1) rotate(0) translate(4 144)">
<title>na&#45;object&#45;menu&#45;factory.c</title>
<!-- Node1 -->
<g id="Node000001" class="node">
<title>Node1</title>
<g id="a_Node000001"><a xlink:title=" ">
<polygon fill="#999999" stroke="#666666" points="246.5,-140 114.5,-140 114.5,-121 246.5,-121 246.5,-140"/>
<text text-anchor="middle" x="180.5" y="-128" font-family="Inter" font-size="10.00">na&#45;object&#45;menu&#45;factory.c</text>
</a>
</g>
</g>
<!-- Node2 -->
<g id="Node000002" class="node">
<title>Node2</title>
<g id="a_Node000002"><a xlink:href="na-ifactory-object-data_8h.html" target="_top" xlink:title=" ">
<polygon fill="white" stroke="#666666" points="115,-85 0,-85 0,-55 115,-55 115,-85"/>
<text text-anchor="start" x="8" y="-73" font-family="Inter" font-size="10.00">api/na&#45;ifactory&#45;object</text>
<text text-anchor="middle" x="57.5" y="-62" font-family="Inter" font-size="10.00">&#45;data.h</text>
</a>
</g>
</g>
<!-- Node1&#45;&gt;Node2 -->
<g id="edge1_Node000001_Node000002" class="edge">
<title>Node1&#45;&gt;Node2</title>
<g id="a_edge1_Node000001_Node000002"><a xlink:title=" ">
<path fill="none" stroke="#63b8ff" d="M162.61,-120.99C145.36,-112.79 118.66,-100.09 96.49,-89.55"/>
<polygon fill="#63b8ff" stroke="#63b8ff" points="97.84,-86.31 87.31,-85.18 94.84,-92.63 97.84,-86.31"/>
</a>
</g>
</g>
<!-- Node4 -->
<g id="Node000004" class="node">
<title>Node4</title>
<g id="a_Node000004"><a xlink:href="na-data-def_8h.html" target="_top" xlink:title=" ">
<polygon fill="white" stroke="#666666" points="228,-79.5 133,-79.5 133,-60.5 228,-60.5 228,-79.5"/>
<text text-anchor="middle" x="180.5" y="-67.5" font-family="Inter" font-size="10.00">api/na&#45;data&#45;def.h</text>
</a>
</g>
</g>
<!-- Node1&#45;&gt;Node4 -->
<g id="edge3_Node000001_Node000004" class="edge">
<title>Node1&#45;&gt;Node4</title>
<g id="a_edge3_Node000001_Node000004"><a xlink:title=" ">
<path fill="none" stroke="#63b8ff" d="M180.5,-120.87C180.5,-112.75 180.5,-100.31 180.5,-89.89"/>
<polygon fill="#63b8ff" stroke="#63b8ff" points="184,-89.67 180.5,-79.67 177,-89.67 184,-89.67"/>
</a>
</g>
</g>
<!-- Node5 -->
<g id="Node000005" class="node">
<title>Node5</title>
<g id="a_Node000005"><a xlink:href="na-data-types_8h.html" target="_top" xlink:title=" ">
<polygon fill="white" stroke="#666666" points="352.5,-79.5 246.5,-79.5 246.5,-60.5 352.5,-60.5 352.5,-79.5"/>
<text text-anchor="middle" x="299.5" y="-67.5" font-family="Inter" font-size="10.00">api/na&#45;data&#45;types.h</text>
</a>
</g>
</g>
<!-- Node1&#45;&gt;Node5 -->
<g id="edge5_Node000001_Node000005" class="edge">
<title>Node1&#45;&gt;Node5</title>
<g id="a_edge5_Node000001_Node000005"><a xlink:title=" ">
<path fill="none" stroke="#63b8ff" d="M197.8,-120.99C217.55,-111.29 250.05,-95.31 272.99,-84.03"/>
<polygon fill="#63b8ff" stroke="#63b8ff" points="274.75,-87.07 282.18,-79.52 271.66,-80.79 274.75,-87.07"/>
</a>
</g>
</g>
<!-- Node3 -->
<g id="Node000003" class="node">
<title>Node3</title>
<g id="a_Node000003"><a xlink:title=" ">
<polygon fill="#e0e0e0" stroke="#999999" points="201.5,-19 159.5,-19 159.5,0 201.5,0 201.5,-19"/>
<text text-anchor="middle" x="180.5" y="-7" font-family="Inter" font-size="10.00">glib.h</text>
</a>
</g>
</g>
<!-- Node2&#45;&gt;Node3 -->
<g id="edge2_Node000002_Node000003" class="edge">
<title>Node2&#45;&gt;Node3</title>
<g id="a_edge2_Node000002_Node000003"><a xlink:title=" ">
<path fill="none" stroke="#63b8ff" d="M86.96,-54.99C107.12,-45.4 133.64,-32.79 153.3,-23.44"/>
<polygon fill="#63b8ff" stroke="#63b8ff" points="154.81,-26.6 162.34,-19.14 151.8,-20.27 154.81,-26.6"/>
</a>
</g>
</g>
<!-- Node4&#45;&gt;Node3 -->
<g id="edge4_Node000004_Node000003" class="edge">
<title>Node4&#45;&gt;Node3</title>
<g id="a_edge4_Node000004_Node000003"><a xlink:title=" ">
<path fill="none" stroke="#63b8ff" d="M180.5,-60.37C180.5,-52.25 180.5,-39.81 180.5,-29.39"/>
<polygon fill="#63b8ff" stroke="#63b8ff" points="184,-29.17 180.5,-19.17 177,-29.17 184,-29.17"/>
</a>
</g>
</g>
<!-- Node5&#45;&gt;Node3 -->
<g id="edge6_Node000005_Node000003" class="edge">
<title>Node5&#45;&gt;Node3</title>
<g id="a_edge6_Node000005_Node000003"><a xlink:title=" ">
<path fill="none" stroke="#63b8ff" d="M282.2,-60.49C262.45,-50.79 229.95,-34.81 207.01,-23.53"/>
<polygon fill="#63b8ff" stroke="#63b8ff" points="208.34,-20.29 197.82,-19.02 205.25,-26.57 208.34,-20.29"/>
</a>
</g>
</g>
</g>
</svg>
</svg>

<style type='text/css'>
<![CDATA[
[data-mouse-over-selected='false'] { opacity: 0.7; }
[data-mouse-over-selected='true']  { opacity: 1.0; }
]]>
</style>
<script type="application/ecmascript"><![CDATA[
document.addEventListener('DOMContentLoaded', (event) => {
  highlightEdges();
  highlightAdjacentNodes();
});
]]></script>
</svg>
