<?xml version="1.0" encoding="UTF-8" standalone="no"?>
<!DOCTYPE svg PUBLIC "-//W3C//DTD SVG 1.1//EN"
 "http://www.w3.org/Graphics/SVG/1.1/DTD/svg11.dtd">
<!-- Generated by graphviz version 2.43.0 (0)
 -->
<!-- Title: na&#45;timeout.h Pages: 1 -->
<!--zoomable 192 -->

<svg id="main" version="1.1" xmlns="http://www.w3.org/2000/svg" xmlns:xlink="http://www.w3.org/1999/xlink" xml:space="preserve" onload="init(evt)">

<style type="text/css"><![CDATA[
.node, .edge {opacity: 0.7;}
.node.selected, .edge.selected {opacity: 1;}
.edge:hover path { stroke: red; }
.edge:hover polygon { stroke: red; fill: red; }
]]></style>

<defs>
  <circle id="rim" cx="0" cy="0" r="7"/>
  <circle id="rim2" cx="0" cy="0" r="3.5"/>
  <g id="zoomPlus">
    <use xlink:href="#rim" fill="#404040"><set attributeName="fill" to="#808080" begin="zoomplus.mouseover" end="zoomplus.mouseout"/></use>
    <path d="M-4,0h8M0,-4v8" fill="none" stroke="white" stroke-width="1.5" pointer-events="none"/>
  </g>
  <g id="zoomMin">
    <use xlink:href="#rim" fill="#404040"><set attributeName="fill" to="#808080" begin="zoomminus.mouseover" end="zoomminus.mouseout"/></use>
    <path d="M-4,0h8" fill="none" stroke="white" stroke-width="1.5" pointer-events="none"/>
  </g>
  <g id="arrowUp" transform="translate(30 24)">
    <use xlink:href="#rim"/>
    <path pointer-events="none" fill="none" stroke="white" stroke-width="1.5" d="M0,-3.0v7 M-2.5,-0.5L0,-3.0L2.5,-0.5"/>
  </g>
  <g id="arrowRight" transform="rotate(90) translate(36 -43)">
    <use xlink:href="#rim"/>
    <path pointer-events="none" fill="none" stroke="white" stroke-width="1.5" d="M0,-3.0v7 M-2.5,-0.5L0,-3.0L2.5,-0.5"/>
  </g>
  <g id="arrowDown" transform="rotate(180) translate(-30 -48)">
    <use xlink:href="#rim"/>
    <path pointer-events="none" fill="none" stroke="white" stroke-width="1.5" d="M0,-3.0v7 M-2.5,-0.5L0,-3.0L2.5,-0.5"/>
  </g>
  <g id="arrowLeft" transform="rotate(270) translate(-36 17)">
    <use xlink:href="#rim"/>
    <path pointer-events="none" fill="none" stroke="white" stroke-width="1.5" d="M0,-3.0v7 M-2.5,-0.5L0,-3.0L2.5,-0.5"/>
  </g>
  <g id="resetDef">
    <use xlink:href="#rim2" fill="#404040"><set attributeName="fill" to="#808080" begin="reset.mouseover" end="reset.mouseout"/></use>
  </g>
</defs>
<script type="application/ecmascript">
var viewWidth = 747;
var viewHeight = 192;
var sectionId = 'dynsection-1';
</script>
<script type="application/ecmascript" xlink:href="svg.min.js"/>
<svg id="graph" class="graph">
<g id="viewport">
<title>na&#45;timeout.h</title>
<!-- Node1 -->
<g id="Node000001" class="node">
<title>Node1</title>
<g id="a_Node000001"><a xlink:title=" ">
<polygon fill="#999999" stroke="#666666" points="471.5,-184 394.5,-184 394.5,-165 471.5,-165 471.5,-184"/>
<text text-anchor="middle" x="433" y="-172" font-family="Inter" font-size="10.00">na&#45;timeout.h</text>
</a>
</g>
</g>
<!-- Node2 -->
<g id="Node000002" class="node">
<title>Node2</title>
<g id="a_Node000002"><a xlink:href="cact-main-window_8c.html" target="_top" xlink:title=" ">
<polygon fill="white" stroke="#666666" points="106,-129 0,-129 0,-110 106,-110 106,-129"/>
<text text-anchor="middle" x="53" y="-117" font-family="Inter" font-size="10.00">cact&#45;main&#45;window.c</text>
</a>
</g>
</g>
<!-- Node1&#45;&gt;Node2 -->
<g id="edge1_Node000001_Node000002" class="edge">
<title>Node1&#45;&gt;Node2</title>
<g id="a_edge1_Node000001_Node000002"><a xlink:title=" ">
<path fill="none" stroke="#63b8ff" d="M384.39,-166.72C312.96,-156.76 180.11,-138.23 106.17,-127.92"/>
<polygon fill="#63b8ff" stroke="#63b8ff" points="384.08,-170.21 394.47,-168.13 385.05,-163.28 384.08,-170.21"/>
</a>
</g>
</g>
<!-- Node3 -->
<g id="Node000003" class="node">
<title>Node3</title>
<g id="a_Node000003"><a xlink:href="cact-menubar-file_8c.html" target="_top" xlink:title=" ">
<polygon fill="white" stroke="#666666" points="229.5,-129 124.5,-129 124.5,-110 229.5,-110 229.5,-129"/>
<text text-anchor="middle" x="177" y="-117" font-family="Inter" font-size="10.00">cact&#45;menubar&#45;file.c</text>
</a>
</g>
</g>
<!-- Node1&#45;&gt;Node3 -->
<g id="edge2_Node000001_Node000003" class="edge">
<title>Node1&#45;&gt;Node3</title>
<g id="a_edge2_Node000001_Node000003"><a xlink:title=" ">
<path fill="none" stroke="#63b8ff" d="M384.55,-163.47C336.57,-153.53 263.86,-138.48 218.47,-129.09"/>
<polygon fill="#63b8ff" stroke="#63b8ff" points="383.9,-166.91 394.4,-165.51 385.31,-160.05 383.9,-166.91"/>
</a>
</g>
</g>
<!-- Node4 -->
<g id="Node000004" class="node">
<title>Node4</title>
<g id="a_Node000004"><a xlink:href="cadp-desktop-provider_8h.html" target="_top" xlink:title=" ">
<polygon fill="white" stroke="#666666" points="376,-129 248,-129 248,-110 376,-110 376,-129"/>
<text text-anchor="middle" x="312" y="-117" font-family="Inter" font-size="10.00">cadp&#45;desktop&#45;provider.h</text>
</a>
</g>
</g>
<!-- Node1&#45;&gt;Node4 -->
<g id="edge3_Node000001_Node000004" class="edge">
<title>Node1&#45;&gt;Node4</title>
<g id="a_edge3_Node000001_Node000004"><a xlink:title=" ">
<path fill="none" stroke="#63b8ff" d="M404.23,-160.9C381.88,-151.11 351.48,-137.79 331.79,-129.17"/>
<polygon fill="#63b8ff" stroke="#63b8ff" points="403,-164.18 413.56,-164.98 405.8,-157.77 403,-164.18"/>
</a>
</g>
</g>
<!-- Node12 -->
<g id="Node000012" class="node">
<title>Node12</title>
<g id="a_Node000012"><a xlink:href="caja-actions_8c.html" target="_top" xlink:title=" ">
<polygon fill="white" stroke="#666666" points="471.5,-129 394.5,-129 394.5,-110 471.5,-110 471.5,-129"/>
<text text-anchor="middle" x="433" y="-117" font-family="Inter" font-size="10.00">caja&#45;actions.c</text>
</a>
</g>
</g>
<!-- Node1&#45;&gt;Node12 -->
<g id="edge11_Node000001_Node000012" class="edge">
<title>Node1&#45;&gt;Node12</title>
<g id="a_edge11_Node000001_Node000012"><a xlink:title=" ">
<path fill="none" stroke="#63b8ff" d="M433,-154.66C433,-145.93 433,-135.99 433,-129.09"/>
<polygon fill="#63b8ff" stroke="#63b8ff" points="429.5,-154.75 433,-164.75 436.5,-154.75 429.5,-154.75"/>
</a>
</g>
</g>
<!-- Node13 -->
<g id="Node000013" class="node">
<title>Node13</title>
<g id="a_Node000013"><a xlink:href="na-pivot_8c.html" target="_top" xlink:title=" ">
<polygon fill="white" stroke="#666666" points="552,-129 490,-129 490,-110 552,-110 552,-129"/>
<text text-anchor="middle" x="521" y="-117" font-family="Inter" font-size="10.00">na&#45;pivot.c</text>
</a>
</g>
</g>
<!-- Node1&#45;&gt;Node13 -->
<g id="edge12_Node000001_Node000013" class="edge">
<title>Node1&#45;&gt;Node13</title>
<g id="a_edge12_Node000001_Node000013"><a xlink:title=" ">
<path fill="none" stroke="#63b8ff" d="M455.92,-159.7C471.95,-150.04 492.87,-137.44 506.6,-129.17"/>
<polygon fill="#63b8ff" stroke="#63b8ff" points="453.9,-156.83 447.14,-164.98 457.51,-162.82 453.9,-156.83"/>
</a>
</g>
</g>
<!-- Node14 -->
<g id="Node000014" class="node">
<title>Node14</title>
<g id="a_Node000014"><a xlink:href="na-settings_8c.html" target="_top" xlink:title=" ">
<polygon fill="white" stroke="#666666" points="645.5,-129 570.5,-129 570.5,-110 645.5,-110 645.5,-129"/>
<text text-anchor="middle" x="608" y="-117" font-family="Inter" font-size="10.00">na&#45;settings.c</text>
</a>
</g>
</g>
<!-- Node1&#45;&gt;Node14 -->
<g id="edge13_Node000001_Node000014" class="edge">
<title>Node1&#45;&gt;Node14</title>
<g id="a_edge13_Node000001_Node000014"><a xlink:title=" ">
<path fill="none" stroke="#63b8ff" d="M470.79,-162.06C503.5,-152.15 550.07,-138.04 579.66,-129.08"/>
<polygon fill="#63b8ff" stroke="#63b8ff" points="469.67,-158.74 461.12,-164.98 471.7,-165.44 469.67,-158.74"/>
</a>
</g>
</g>
<!-- Node15 -->
<g id="Node000015" class="node">
<title>Node15</title>
<g id="a_Node000015"><a xlink:href="na-timeout_8c.html" target="_top" xlink:title=" ">
<polygon fill="white" stroke="#666666" points="738.5,-129 663.5,-129 663.5,-110 738.5,-110 738.5,-129"/>
<text text-anchor="middle" x="701" y="-117" font-family="Inter" font-size="10.00">na&#45;timeout.c</text>
</a>
</g>
</g>
<!-- Node1&#45;&gt;Node15 -->
<g id="edge14_Node000001_Node000015" class="edge">
<title>Node1&#45;&gt;Node15</title>
<g id="a_edge14_Node000001_Node000015"><a xlink:title=" ">
<path fill="none" stroke="#63b8ff" d="M481.71,-163.87C533.9,-153.55 615.64,-137.38 663.19,-127.98"/>
<polygon fill="#63b8ff" stroke="#63b8ff" points="480.81,-160.48 471.68,-165.85 482.17,-167.34 480.81,-160.48"/>
</a>
</g>
</g>
<!-- Node5 -->
<g id="Node000005" class="node">
<title>Node5</title>
<g id="a_Node000005"><a xlink:href="cadp-desktop-provider_8c.html" target="_top" xlink:title=" ">
<polygon fill="white" stroke="#666666" points="238.5,-19 111.5,-19 111.5,0 238.5,0 238.5,-19"/>
<text text-anchor="middle" x="175" y="-7" font-family="Inter" font-size="10.00">cadp&#45;desktop&#45;provider.c</text>
</a>
</g>
</g>
<!-- Node4&#45;&gt;Node5 -->
<g id="edge4_Node000004_Node000005" class="edge">
<title>Node4&#45;&gt;Node5</title>
<g id="a_edge4_Node000004_Node000005"><a xlink:title=" ">
<path fill="none" stroke="#63b8ff" d="M246.11,-108.33C189.91,-98.98 116.82,-84.95 108,-74 90.51,-52.28 127.75,-30.75 153.4,-19.19"/>
<polygon fill="#63b8ff" stroke="#63b8ff" points="245.59,-111.79 256.03,-109.96 246.73,-104.88 245.59,-111.79"/>
</a>
</g>
</g>
<!-- Node6 -->
<g id="Node000006" class="node">
<title>Node6</title>
<g id="a_Node000006"><a xlink:href="cadp-module_8c.html" target="_top" xlink:title=" ">
<polygon fill="white" stroke="#666666" points="201,-74 117,-74 117,-55 201,-55 201,-74"/>
<text text-anchor="middle" x="159" y="-62" font-family="Inter" font-size="10.00">cadp&#45;module.c</text>
</a>
</g>
</g>
<!-- Node4&#45;&gt;Node6 -->
<g id="edge5_Node000004_Node000006" class="edge">
<title>Node4&#45;&gt;Node6</title>
<g id="a_edge5_Node000004_Node000006"><a xlink:title=" ">
<path fill="none" stroke="#63b8ff" d="M277.85,-106.67C249.32,-96.79 209.31,-82.93 183.77,-74.08"/>
<polygon fill="#63b8ff" stroke="#63b8ff" points="276.82,-110.02 287.42,-109.98 279.11,-103.4 276.82,-110.02"/>
</a>
</g>
</g>
<!-- Node7 -->
<g id="Node000007" class="node">
<title>Node7</title>
<g id="a_Node000007"><a xlink:href="cadp-monitor_8h.html" target="_top" xlink:title=" ">
<polygon fill="#fff0f0" stroke="red" points="305,-74 219,-74 219,-55 305,-55 305,-74"/>
<text text-anchor="middle" x="262" y="-62" font-family="Inter" font-size="10.00">cadp&#45;monitor.h</text>
</a>
</g>
</g>
<!-- Node4&#45;&gt;Node7 -->
<g id="edge6_Node000004_Node000007" class="edge">
<title>Node4&#45;&gt;Node7</title>
<g id="a_edge6_Node000004_Node000007"><a xlink:title=" ">
<path fill="none" stroke="#63b8ff" d="M296.66,-102.24C287.9,-92.95 277.26,-81.68 270.1,-74.09"/>
<polygon fill="#63b8ff" stroke="#63b8ff" points="294.34,-104.88 303.74,-109.75 299.43,-100.07 294.34,-104.88"/>
</a>
</g>
</g>
<!-- Node9 -->
<g id="Node000009" class="node">
<title>Node9</title>
<g id="a_Node000009"><a xlink:href="cadp-reader_8c.html" target="_top" xlink:title=" ">
<polygon fill="white" stroke="#666666" points="401,-74 323,-74 323,-55 401,-55 401,-74"/>
<text text-anchor="middle" x="362" y="-62" font-family="Inter" font-size="10.00">cadp&#45;reader.c</text>
</a>
</g>
</g>
<!-- Node4&#45;&gt;Node9 -->
<g id="edge8_Node000004_Node000009" class="edge">
<title>Node4&#45;&gt;Node9</title>
<g id="a_edge8_Node000004_Node000009"><a xlink:title=" ">
<path fill="none" stroke="#63b8ff" d="M327.34,-102.24C336.1,-92.95 346.74,-81.68 353.9,-74.09"/>
<polygon fill="#63b8ff" stroke="#63b8ff" points="324.57,-100.07 320.26,-109.75 329.66,-104.88 324.57,-100.07"/>
</a>
</g>
</g>
<!-- Node10 -->
<g id="Node000010" class="node">
<title>Node10</title>
<g id="a_Node000010"><a xlink:href="cadp-utils_8c.html" target="_top" xlink:title=" ">
<polygon fill="white" stroke="#666666" points="487,-74 419,-74 419,-55 487,-55 487,-74"/>
<text text-anchor="middle" x="453" y="-62" font-family="Inter" font-size="10.00">cadp&#45;utils.c</text>
</a>
</g>
</g>
<!-- Node4&#45;&gt;Node10 -->
<g id="edge9_Node000004_Node000010" class="edge">
<title>Node4&#45;&gt;Node10</title>
<g id="a_edge9_Node000004_Node000010"><a xlink:title=" ">
<path fill="none" stroke="#63b8ff" d="M344.14,-106.42C370.29,-96.59 406.59,-82.95 429.93,-74.17"/>
<polygon fill="#63b8ff" stroke="#63b8ff" points="342.78,-103.19 334.65,-109.98 345.25,-109.74 342.78,-103.19"/>
</a>
</g>
</g>
<!-- Node11 -->
<g id="Node000011" class="node">
<title>Node11</title>
<g id="a_Node000011"><a xlink:href="cadp-writer_8c.html" target="_top" xlink:title=" ">
<polygon fill="white" stroke="#666666" points="580.5,-74 505.5,-74 505.5,-55 580.5,-55 580.5,-74"/>
<text text-anchor="middle" x="543" y="-62" font-family="Inter" font-size="10.00">cadp&#45;writer.c</text>
</a>
</g>
</g>
<!-- Node4&#45;&gt;Node11 -->
<g id="edge10_Node000004_Node000011" class="edge">
<title>Node4&#45;&gt;Node11</title>
<g id="a_edge10_Node000004_Node000011"><a xlink:title=" ">
<path fill="none" stroke="#63b8ff" d="M359.11,-107.69C402.39,-97.76 465.69,-83.24 505.59,-74.08"/>
<polygon fill="#63b8ff" stroke="#63b8ff" points="358.08,-104.34 349.11,-109.98 359.64,-111.16 358.08,-104.34"/>
</a>
</g>
</g>
<!-- Node7&#45;&gt;Node5 -->
<g id="edge7_Node000007_Node000005" class="edge">
<title>Node7&#45;&gt;Node5</title>
<g id="a_edge7_Node000007_Node000005"><a xlink:title=" ">
<path fill="none" stroke="#63b8ff" d="M239.34,-49.7C223.49,-40.04 202.81,-27.44 189.23,-19.17"/>
<polygon fill="#63b8ff" stroke="#63b8ff" points="237.66,-52.77 248.02,-54.98 241.3,-46.79 237.66,-52.77"/>
</a>
</g>
</g>
</g>
</svg>

<g id="navigator" transform="translate(0 0)" fill="#404254">
  <rect fill="#f2f5e9" fill-opacity="0.5" stroke="#606060" stroke-width=".5" x="0" y="0" width="60" height="60"/>
  <use id="zoomplus" xlink:href="#zoomPlus" x="17" y="9" onmousedown="handleZoom(evt,'in')"/>
  <use id="zoomminus" xlink:href="#zoomMin" x="42" y="9" onmousedown="handleZoom(evt,'out')"/>
  <use id="reset" xlink:href="#resetDef" x="30" y="36" onmousedown="handleReset()"/>
   <use id="arrowup" xlink:href="#arrowUp" x="0" y="0" onmousedown="handlePan(0,-1)"/>
  <use id="arrowright" xlink:href="#arrowRight" x="0" y="0" onmousedown="handlePan(1,0)"/>
  <use id="arrowdown" xlink:href="#arrowDown" x="0" y="0" onmousedown="handlePan(0,1)"/>
  <use id="arrowleft" xlink:href="#arrowLeft" x="0" y="0" onmousedown="handlePan(-1,0)"/>
</g>
<svg viewBox="0 0 15 15" width="100%" height="30px" preserveAspectRatio="xMaxYMin meet">
 <g id="arrow_out" transform="scale(0.3 0.3)">
  <a xlink:href="na-timeout_8h__dep__incl_org.svg" target="_base">
   <rect id="button" ry="5" rx="5" y="6" x="6" height="38" width="38"
        fill="#f2f5e9" fill-opacity="0.5" stroke="#606060" stroke-width="1.0"/>
   <path id="arrow"
     d="M 11.500037,31.436501 C 11.940474,20.09759 22.043105,11.32322 32.158766,21.979434 L 37.068811,17.246167 C 37.068811,17.246167 37.088388,32 37.088388,32 L 22.160133,31.978069 C 22.160133,31.978069 26.997745,27.140456 26.997745,27.140456 C 18.528582,18.264221 13.291696,25.230495 11.500037,31.436501 z"
     style="fill:#404040;"/>
  </a>
 </g>
</svg>

<style type='text/css'>
<![CDATA[
[data-mouse-over-selected='false'] { opacity: 0.7; }
[data-mouse-over-selected='true']  { opacity: 1.0; }
]]>
</style>
<script type="application/ecmascript"><![CDATA[
document.addEventListener('DOMContentLoaded', (event) => {
  highlightEdges();
  highlightAdjacentNodes();
});
]]></script>
</svg>
