<?xml version="1.0" encoding="UTF-8" standalone="no"?>
<!DOCTYPE svg PUBLIC "-//W3C//DTD SVG 1.1//EN"
 "http://www.w3.org/Graphics/SVG/1.1/DTD/svg11.dtd">
<!-- Generated by graphviz version 2.43.0 (0)
 -->
<!-- Title: na&#45;tracker.c Pages: 1 -->
<svg width="681pt" height="280pt"
 viewBox="0.00 0.00 680.50 280.00" xmlns="http://www.w3.org/2000/svg" xmlns:xlink="http://www.w3.org/1999/xlink">
<g id="graph0" class="graph" transform="scale(1 1) rotate(0) translate(4 276)">
<title>na&#45;tracker.c</title>
<!-- Node1 -->
<g id="Node000001" class="node">
<title>Node1</title>
<g id="a_Node000001"><a xlink:title=" ">
<polygon fill="#999999" stroke="#666666" points="439,-272 370,-272 370,-253 439,-253 439,-272"/>
<text text-anchor="middle" x="404.5" y="-260" font-family="Inter" font-size="10.00">na&#45;tracker.c</text>
</a>
</g>
</g>
<!-- Node2 -->
<g id="Node000002" class="node">
<title>Node2</title>
<g id="a_Node000002"><a xlink:title=" ">
<polygon fill="#e0e0e0" stroke="#999999" points="380.5,-79.5 322.5,-79.5 322.5,-60.5 380.5,-60.5 380.5,-79.5"/>
<text text-anchor="middle" x="351.5" y="-67.5" font-family="Inter" font-size="10.00">gio/gio.h</text>
</a>
</g>
</g>
<!-- Node1&#45;&gt;Node2 -->
<g id="edge1_Node000001_Node000002" class="edge">
<title>Node1&#45;&gt;Node2</title>
<g id="a_edge1_Node000001_Node000002"><a xlink:title=" ">
<path fill="none" stroke="#63b8ff" d="M404.68,-252.93C404.89,-230.47 403.64,-168.35 385.5,-121 380.83,-108.82 372.68,-96.68 365.53,-87.41"/>
<polygon fill="#63b8ff" stroke="#63b8ff" points="368.14,-85.07 359.13,-79.5 362.7,-89.48 368.14,-85.07"/>
</a>
</g>
</g>
<!-- Node3 -->
<g id="Node000003" class="node">
<title>Node3</title>
<g id="a_Node000003"><a xlink:title=" ">
<polygon fill="#e0e0e0" stroke="#999999" points="574.5,-211.5 470.5,-211.5 470.5,-192.5 574.5,-192.5 574.5,-211.5"/>
<text text-anchor="middle" x="522.5" y="-199.5" font-family="Inter" font-size="10.00">na&#45;tracker&#45;gdbus.h</text>
</a>
</g>
</g>
<!-- Node1&#45;&gt;Node3 -->
<g id="edge2_Node000001_Node000003" class="edge">
<title>Node1&#45;&gt;Node3</title>
<g id="a_edge2_Node000001_Node000003"><a xlink:title=" ">
<path fill="none" stroke="#63b8ff" d="M421.66,-252.99C441.23,-243.29 473.47,-227.31 496.22,-216.03"/>
<polygon fill="#63b8ff" stroke="#63b8ff" points="497.92,-219.09 505.32,-211.52 494.81,-212.82 497.92,-219.09"/>
</a>
</g>
</g>
<!-- Node4 -->
<g id="Node000004" class="node">
<title>Node4</title>
<g id="a_Node000004"><a xlink:href="caja-extension-types_8h.html" target="_top" xlink:title=" ">
<polygon fill="white" stroke="#666666" points="113,-85 0,-85 0,-55 113,-55 113,-85"/>
<text text-anchor="start" x="8" y="-73" font-family="Inter" font-size="10.00">libcaja&#45;extension/caja</text>
<text text-anchor="middle" x="56.5" y="-62" font-family="Inter" font-size="10.00">&#45;extension&#45;types.h</text>
</a>
</g>
</g>
<!-- Node1&#45;&gt;Node4 -->
<g id="edge3_Node000001_Node000004" class="edge">
<title>Node1&#45;&gt;Node4</title>
<g id="a_edge3_Node000001_Node000004"><a xlink:title=" ">
<path fill="none" stroke="#63b8ff" d="M369.74,-260.36C317.27,-257.62 215.49,-248.36 135.5,-217 85.92,-197.56 60.74,-197.89 35.5,-151 25.89,-133.14 33.28,-110.63 41.84,-94.04"/>
<polygon fill="#63b8ff" stroke="#63b8ff" points="45.05,-95.47 46.89,-85.03 38.94,-92.04 45.05,-95.47"/>
</a>
</g>
</g>
<!-- Node6 -->
<g id="Node000006" class="node">
<title>Node6</title>
<g id="a_Node000006"><a xlink:href="caja-file-info_8h.html" target="_top" xlink:title=" ">
<polygon fill="white" stroke="#666666" points="376,-151 263,-151 263,-121 376,-121 376,-151"/>
<text text-anchor="start" x="271" y="-139" font-family="Inter" font-size="10.00">libcaja&#45;extension/caja</text>
<text text-anchor="middle" x="319.5" y="-128" font-family="Inter" font-size="10.00">&#45;file&#45;info.h</text>
</a>
</g>
</g>
<!-- Node1&#45;&gt;Node6 -->
<g id="edge5_Node000001_Node000006" class="edge">
<title>Node1&#45;&gt;Node6</title>
<g id="a_edge5_Node000001_Node000006"><a xlink:title=" ">
<path fill="none" stroke="#63b8ff" d="M398.66,-252.94C385.66,-233.91 354,-187.53 334.89,-159.54"/>
<polygon fill="#63b8ff" stroke="#63b8ff" points="337.7,-157.45 329.17,-151.16 331.92,-161.39 337.7,-157.45"/>
</a>
</g>
</g>
<!-- Node7 -->
<g id="Node000007" class="node">
<title>Node7</title>
<g id="a_Node000007"><a xlink:href="caja-menu-provider_8h.html" target="_top" xlink:title=" ">
<polygon fill="white" stroke="#666666" points="258,-217 145,-217 145,-187 258,-187 258,-217"/>
<text text-anchor="start" x="153" y="-205" font-family="Inter" font-size="10.00">libcaja&#45;extension/caja</text>
<text text-anchor="middle" x="201.5" y="-194" font-family="Inter" font-size="10.00">&#45;menu&#45;provider.h</text>
</a>
</g>
</g>
<!-- Node1&#45;&gt;Node7 -->
<g id="edge8_Node000001_Node000007" class="edge">
<title>Node1&#45;&gt;Node7</title>
<g id="a_edge8_Node000001_Node000007"><a xlink:title=" ">
<path fill="none" stroke="#63b8ff" d="M374.98,-252.99C345,-244.35 297.76,-230.74 260.14,-219.9"/>
<polygon fill="#63b8ff" stroke="#63b8ff" points="260.88,-216.47 250.3,-217.06 258.94,-223.2 260.88,-216.47"/>
</a>
</g>
</g>
<!-- Node10 -->
<g id="Node000010" class="node">
<title>Node10</title>
<g id="a_Node000010"><a xlink:href="na-dbus_8h.html" target="_top" xlink:title=" ">
<polygon fill="white" stroke="#666666" points="672.5,-211.5 592.5,-211.5 592.5,-192.5 672.5,-192.5 672.5,-211.5"/>
<text text-anchor="middle" x="632.5" y="-199.5" font-family="Inter" font-size="10.00">api/na&#45;dbus.h</text>
</a>
</g>
</g>
<!-- Node1&#45;&gt;Node10 -->
<g id="edge16_Node000001_Node000010" class="edge">
<title>Node1&#45;&gt;Node10</title>
<g id="a_edge16_Node000001_Node000010"><a xlink:title=" ">
<path fill="none" stroke="#63b8ff" d="M439.24,-253.24C475.37,-244.56 533.54,-230.34 583.5,-217 586.71,-216.14 590.02,-215.24 593.35,-214.32"/>
<polygon fill="#63b8ff" stroke="#63b8ff" points="594.59,-217.6 603.27,-211.53 592.69,-210.87 594.59,-217.6"/>
</a>
</g>
</g>
<!-- Node12 -->
<g id="Node000012" class="node">
<title>Node12</title>
<g id="a_Node000012"><a xlink:href="na-tracker_8h.html" target="_top" xlink:title=" ">
<polygon fill="white" stroke="#666666" points="474,-79.5 403,-79.5 403,-60.5 474,-60.5 474,-79.5"/>
<text text-anchor="middle" x="438.5" y="-67.5" font-family="Inter" font-size="10.00">na&#45;tracker.h</text>
</a>
</g>
</g>
<!-- Node1&#45;&gt;Node12 -->
<g id="edge18_Node000001_Node000012" class="edge">
<title>Node1&#45;&gt;Node12</title>
<g id="a_edge18_Node000001_Node000012"><a xlink:title=" ">
<path fill="none" stroke="#63b8ff" d="M407.73,-252.75C410.91,-243.87 415.67,-229.64 418.5,-217 428.58,-172 434.38,-117.99 436.93,-89.96"/>
<polygon fill="#63b8ff" stroke="#63b8ff" points="440.45,-89.91 437.83,-79.65 433.48,-89.31 440.45,-89.91"/>
</a>
</g>
</g>
<!-- Node5 -->
<g id="Node000005" class="node">
<title>Node5</title>
<g id="a_Node000005"><a xlink:title=" ">
<polygon fill="#e0e0e0" stroke="#999999" points="271.5,-19 197.5,-19 197.5,0 271.5,0 271.5,-19"/>
<text text-anchor="middle" x="234.5" y="-7" font-family="Inter" font-size="10.00">glib&#45;object.h</text>
</a>
</g>
</g>
<!-- Node4&#45;&gt;Node5 -->
<g id="edge4_Node000004_Node000005" class="edge">
<title>Node4&#45;&gt;Node5</title>
<g id="a_edge4_Node000004_Node000005"><a xlink:title=" ">
<path fill="none" stroke="#63b8ff" d="M99.14,-54.99C129.59,-44.98 170.09,-31.67 198.83,-22.22"/>
<polygon fill="#63b8ff" stroke="#63b8ff" points="200.07,-25.5 208.47,-19.05 197.88,-18.85 200.07,-25.5"/>
</a>
</g>
</g>
<!-- Node6&#45;&gt;Node2 -->
<g id="edge7_Node000006_Node000002" class="edge">
<title>Node6&#45;&gt;Node2</title>
<g id="a_edge7_Node000006_Node000002"><a xlink:title=" ">
<path fill="none" stroke="#63b8ff" d="M326.6,-120.8C331.3,-111.41 337.49,-99.02 342.53,-88.95"/>
<polygon fill="#63b8ff" stroke="#63b8ff" points="345.74,-90.35 347.08,-79.84 339.48,-87.22 345.74,-90.35"/>
</a>
</g>
</g>
<!-- Node6&#45;&gt;Node5 -->
<g id="edge6_Node000006_Node000005" class="edge">
<title>Node6&#45;&gt;Node5</title>
<g id="a_edge6_Node000006_Node000005"><a xlink:title=" ">
<path fill="none" stroke="#63b8ff" d="M309.75,-120.72C293.97,-97.61 262.92,-52.13 246.06,-27.43"/>
<polygon fill="#63b8ff" stroke="#63b8ff" points="248.88,-25.35 240.35,-19.07 243.1,-29.3 248.88,-25.35"/>
</a>
</g>
</g>
<!-- Node7&#45;&gt;Node4 -->
<g id="edge11_Node000007_Node000004" class="edge">
<title>Node7&#45;&gt;Node4</title>
<g id="a_edge11_Node000007_Node000004"><a xlink:title=" ">
<path fill="none" stroke="#63b8ff" d="M144.64,-198.63C110.23,-193.89 68.8,-181.63 46.5,-151 34.72,-134.83 39.22,-111.77 45.48,-94.56"/>
<polygon fill="#63b8ff" stroke="#63b8ff" points="48.76,-95.79 49.27,-85.2 42.27,-93.16 48.76,-95.79"/>
</a>
</g>
</g>
<!-- Node7&#45;&gt;Node5 -->
<g id="edge9_Node000007_Node000005" class="edge">
<title>Node7&#45;&gt;Node5</title>
<g id="a_edge9_Node000007_Node000005"><a xlink:title=" ">
<path fill="none" stroke="#63b8ff" d="M205.69,-186.66C208.48,-176.72 212.07,-163.14 214.5,-151 223.19,-107.67 229.52,-56.08 232.53,-29.08"/>
<polygon fill="#63b8ff" stroke="#63b8ff" points="236.01,-29.43 233.62,-19.11 229.06,-28.67 236.01,-29.43"/>
</a>
</g>
</g>
<!-- Node7&#45;&gt;Node6 -->
<g id="edge12_Node000007_Node000006" class="edge">
<title>Node7&#45;&gt;Node6</title>
<g id="a_edge12_Node000007_Node000006"><a xlink:title=" ">
<path fill="none" stroke="#63b8ff" d="M227.4,-186.95C244.23,-177.83 266.37,-165.82 284.73,-155.86"/>
<polygon fill="#63b8ff" stroke="#63b8ff" points="286.54,-158.86 293.66,-151.01 283.21,-152.7 286.54,-158.86"/>
</a>
</g>
</g>
<!-- Node8 -->
<g id="Node000008" class="node">
<title>Node8</title>
<g id="a_Node000008"><a xlink:title=" ">
<polygon fill="#e0e0e0" stroke="#999999" points="115,-145.5 56,-145.5 56,-126.5 115,-126.5 115,-145.5"/>
<text text-anchor="middle" x="85.5" y="-133.5" font-family="Inter" font-size="10.00">gtk/gtk.h</text>
</a>
</g>
</g>
<!-- Node7&#45;&gt;Node8 -->
<g id="edge10_Node000007_Node000008" class="edge">
<title>Node7&#45;&gt;Node8</title>
<g id="a_edge10_Node000007_Node000008"><a xlink:title=" ">
<path fill="none" stroke="#63b8ff" d="M176.04,-186.95C156.33,-176.08 129.19,-161.11 109.78,-150.4"/>
<polygon fill="#63b8ff" stroke="#63b8ff" points="111.38,-147.28 100.94,-145.52 108,-153.41 111.38,-147.28"/>
</a>
</g>
</g>
<!-- Node9 -->
<g id="Node000009" class="node">
<title>Node9</title>
<g id="a_Node000009"><a xlink:href="caja-menu_8h.html" target="_top" xlink:title=" ">
<polygon fill="white" stroke="#666666" points="206,-145.5 133,-145.5 133,-126.5 206,-126.5 206,-145.5"/>
<text text-anchor="middle" x="169.5" y="-133.5" font-family="Inter" font-size="10.00">caja&#45;menu.h</text>
</a>
</g>
</g>
<!-- Node7&#45;&gt;Node9 -->
<g id="edge13_Node000007_Node000009" class="edge">
<title>Node7&#45;&gt;Node9</title>
<g id="a_edge13_Node000007_Node000009"><a xlink:title=" ">
<path fill="none" stroke="#63b8ff" d="M194.4,-186.8C189.7,-177.41 183.51,-165.02 178.47,-154.95"/>
<polygon fill="#63b8ff" stroke="#63b8ff" points="181.52,-153.22 173.92,-145.84 175.26,-156.35 181.52,-153.22"/>
</a>
</g>
</g>
<!-- Node9&#45;&gt;Node4 -->
<g id="edge15_Node000009_Node000004" class="edge">
<title>Node9&#45;&gt;Node4</title>
<g id="a_edge15_Node000009_Node000004"><a xlink:title=" ">
<path fill="none" stroke="#63b8ff" d="M154.26,-126.37C137.92,-117.11 111.45,-102.12 90.18,-90.07"/>
<polygon fill="#63b8ff" stroke="#63b8ff" points="91.85,-87 81.42,-85.12 88.4,-93.09 91.85,-87"/>
</a>
</g>
</g>
<!-- Node9&#45;&gt;Node5 -->
<g id="edge14_Node000009_Node000005" class="edge">
<title>Node9&#45;&gt;Node5</title>
<g id="a_edge14_Node000009_Node000005"><a xlink:title=" ">
<path fill="none" stroke="#63b8ff" d="M173.97,-126.44C184.5,-106.27 211.05,-55.42 225.23,-28.26"/>
<polygon fill="#63b8ff" stroke="#63b8ff" points="228.48,-29.6 230,-19.12 222.27,-26.36 228.48,-29.6"/>
</a>
</g>
</g>
<!-- Node11 -->
<g id="Node000011" class="node">
<title>Node11</title>
<g id="a_Node000011"><a xlink:title=" ">
<polygon fill="#e0e0e0" stroke="#999999" points="653.5,-145.5 611.5,-145.5 611.5,-126.5 653.5,-126.5 653.5,-145.5"/>
<text text-anchor="middle" x="632.5" y="-133.5" font-family="Inter" font-size="10.00">glib.h</text>
</a>
</g>
</g>
<!-- Node10&#45;&gt;Node11 -->
<g id="edge17_Node000010_Node000011" class="edge">
<title>Node10&#45;&gt;Node11</title>
<g id="a_edge17_Node000010_Node000011"><a xlink:title=" ">
<path fill="none" stroke="#63b8ff" d="M632.5,-192.37C632.5,-183.16 632.5,-168.29 632.5,-156.27"/>
<polygon fill="#63b8ff" stroke="#63b8ff" points="636,-155.91 632.5,-145.91 629,-155.91 636,-155.91"/>
</a>
</g>
</g>
<!-- Node12&#45;&gt;Node5 -->
<g id="edge19_Node000012_Node000005" class="edge">
<title>Node12&#45;&gt;Node5</title>
<g id="a_edge19_Node000012_Node000005"><a xlink:title=" ">
<path fill="none" stroke="#63b8ff" d="M408.84,-60.49C373.26,-50.29 313.48,-33.15 274.02,-21.83"/>
<polygon fill="#63b8ff" stroke="#63b8ff" points="274.78,-18.41 264.2,-19.02 272.85,-25.14 274.78,-18.41"/>
</a>
</g>
</g>
</g>
</svg>
