<?xml version="1.0" encoding="UTF-8" standalone="no"?>
<!DOCTYPE svg PUBLIC "-//W3C//DTD SVG 1.1//EN"
 "http://www.w3.org/Graphics/SVG/1.1/DTD/svg11.dtd">
<!-- Generated by graphviz version 2.43.0 (0)
 -->
<!-- Title: panel&#45;modules.c Pages: 1 -->
<svg width="426pt" height="159pt"
 viewBox="0.00 0.00 426.00 159.00" xmlns="http://www.w3.org/2000/svg" xmlns:xlink="http://www.w3.org/1999/xlink">
<g id="graph0" class="graph" transform="scale(1 1) rotate(0) translate(4 155)">
<title>panel&#45;modules.c</title>
<!-- Node1 -->
<g id="Node000001" class="node">
<title>Node1</title>
<g id="a_Node000001"><a xlink:title=" ">
<polygon fill="#999999" stroke="#666666" points="254,-151 162,-151 162,-132 254,-132 254,-151"/>
<text text-anchor="middle" x="208" y="-139" font-family="Inter" font-size="10.00">panel&#45;modules.c</text>
</a>
</g>
</g>
<!-- Node2 -->
<g id="Node000002" class="node">
<title>Node2</title>
<g id="a_Node000002"><a xlink:title=" ">
<polygon fill="#e0e0e0" stroke="#999999" points="54,-85 0,-85 0,-66 54,-66 54,-85"/>
<text text-anchor="middle" x="27" y="-73" font-family="Inter" font-size="10.00">config.h</text>
</a>
</g>
</g>
<!-- Node1&#45;&gt;Node2 -->
<g id="edge1_Node000001_Node000002" class="edge">
<title>Node1&#45;&gt;Node2</title>
<g id="a_edge1_Node000001_Node000002"><a xlink:title=" ">
<path fill="none" stroke="#63b8ff" d="M173.34,-131.94C143.53,-124.1 99.67,-111.38 63,-96 58.87,-94.27 54.59,-92.21 50.49,-90.09"/>
<polygon fill="#63b8ff" stroke="#63b8ff" points="51.85,-86.84 41.39,-85.15 48.51,-92.99 51.85,-86.84"/>
</a>
</g>
</g>
<!-- Node3 -->
<g id="Node000003" class="node">
<title>Node3</title>
<g id="a_Node000003"><a xlink:title=" ">
<polygon fill="#e0e0e0" stroke="#999999" points="130,-85 72,-85 72,-66 130,-66 130,-85"/>
<text text-anchor="middle" x="101" y="-73" font-family="Inter" font-size="10.00">gio/gio.h</text>
</a>
</g>
</g>
<!-- Node1&#45;&gt;Node3 -->
<g id="edge2_Node000001_Node000003" class="edge">
<title>Node1&#45;&gt;Node3</title>
<g id="a_edge2_Node000001_Node000003"><a xlink:title=" ">
<path fill="none" stroke="#63b8ff" d="M193.57,-131.87C175.78,-121.23 145.32,-103.01 124.22,-90.39"/>
<polygon fill="#63b8ff" stroke="#63b8ff" points="125.92,-87.33 115.54,-85.2 122.33,-93.34 125.92,-87.33"/>
</a>
</g>
</g>
<!-- Node4 -->
<g id="Node000004" class="node">
<title>Node4</title>
<g id="a_Node000004"><a xlink:href="panel-applets-manager-dbus_8h.html" target="_top" xlink:title=" ">
<polygon fill="white" stroke="#666666" points="267.5,-96 148.5,-96 148.5,-55 267.5,-55 267.5,-96"/>
<text text-anchor="start" x="156.5" y="-84" font-family="Inter" font-size="10.00">libmate&#45;panel&#45;applet</text>
<text text-anchor="start" x="156.5" y="-73" font-family="Inter" font-size="10.00">&#45;private/panel&#45;applets</text>
<text text-anchor="middle" x="208" y="-62" font-family="Inter" font-size="10.00">&#45;manager&#45;dbus.h</text>
</a>
</g>
</g>
<!-- Node1&#45;&gt;Node4 -->
<g id="edge3_Node000001_Node000004" class="edge">
<title>Node1&#45;&gt;Node4</title>
<g id="a_edge3_Node000001_Node000004"><a xlink:title=" ">
<path fill="none" stroke="#63b8ff" d="M208,-131.87C208,-125.22 208,-115.63 208,-106.28"/>
<polygon fill="#63b8ff" stroke="#63b8ff" points="211.5,-106.01 208,-96.01 204.5,-106.01 211.5,-106.01"/>
</a>
</g>
</g>
<!-- Node5 -->
<g id="Node000005" class="node">
<title>Node5</title>
<g id="a_Node000005"><a xlink:href="panel-applets-manager_8h.html" target="_top" xlink:title=" ">
<polygon fill="#fff0f0" stroke="red" points="317.5,-19 186.5,-19 186.5,0 317.5,0 317.5,-19"/>
<text text-anchor="middle" x="252" y="-7" font-family="Inter" font-size="10.00">panel&#45;applets&#45;manager.h</text>
</a>
</g>
</g>
<!-- Node1&#45;&gt;Node5 -->
<g id="edge5_Node000001_Node000005" class="edge">
<title>Node1&#45;&gt;Node5</title>
<g id="a_edge5_Node000001_Node000005"><a xlink:title=" ">
<path fill="none" stroke="#63b8ff" d="M232.47,-131.86C248.27,-124.85 267.59,-113.27 277,-96 288.93,-74.12 275.93,-45.9 264.66,-28"/>
<polygon fill="#63b8ff" stroke="#63b8ff" points="267.24,-25.56 258.75,-19.22 261.43,-29.47 267.24,-25.56"/>
</a>
</g>
</g>
<!-- Node21 -->
<g id="Node000021" class="node">
<title>Node21</title>
<g id="a_Node000021"><a xlink:href="panel-modules_8h.html" target="_top" xlink:title=" ">
<polygon fill="white" stroke="#666666" points="418,-85 324,-85 324,-66 418,-66 418,-85"/>
<text text-anchor="middle" x="371" y="-73" font-family="Inter" font-size="10.00">panel&#45;modules.h</text>
</a>
</g>
</g>
<!-- Node1&#45;&gt;Node21 -->
<g id="edge6_Node000001_Node000021" class="edge">
<title>Node1&#45;&gt;Node21</title>
<g id="a_edge6_Node000001_Node000021"><a xlink:title=" ">
<path fill="none" stroke="#63b8ff" d="M229.98,-131.87C258.25,-120.77 307.54,-101.42 339.71,-88.78"/>
<polygon fill="#63b8ff" stroke="#63b8ff" points="341.08,-92.01 349.11,-85.1 338.52,-85.49 341.08,-92.01"/>
</a>
</g>
</g>
<!-- Node4&#45;&gt;Node5 -->
<g id="edge4_Node000004_Node000005" class="edge">
<title>Node4&#45;&gt;Node5</title>
<g id="a_edge4_Node000004_Node000005"><a xlink:title=" ">
<path fill="none" stroke="#63b8ff" d="M221.44,-54.95C227.45,-46.2 234.48,-35.99 240.27,-27.56"/>
<polygon fill="#63b8ff" stroke="#63b8ff" points="243.2,-29.48 245.98,-19.26 237.43,-25.52 243.2,-29.48"/>
</a>
</g>
</g>
</g>
</svg>
