<?xml version="1.0" encoding="UTF-8" standalone="no"?>
<!DOCTYPE svg PUBLIC "-//W3C//DTD SVG 1.1//EN"
 "http://www.w3.org/Graphics/SVG/1.1/DTD/svg11.dtd">
<!-- Generated by graphviz version 2.43.0 (0)
 -->
<!-- Title: panel&#45;force&#45;quit.h Pages: 1 -->
<svg width="246pt" height="82pt"
 viewBox="0.00 0.00 246.00 82.00" xmlns="http://www.w3.org/2000/svg" xmlns:xlink="http://www.w3.org/1999/xlink">
<g id="graph0" class="graph" transform="scale(1 1) rotate(0) translate(4 78)">
<title>panel&#45;force&#45;quit.h</title>
<!-- Node1 -->
<g id="Node000001" class="node">
<title>Node1</title>
<g id="a_Node000001"><a xlink:title=" ">
<polygon fill="#999999" stroke="#666666" points="174.5,-74 75.5,-74 75.5,-55 174.5,-55 174.5,-74"/>
<text text-anchor="middle" x="125" y="-62" font-family="Inter" font-size="10.00">panel&#45;force&#45;quit.h</text>
</a>
</g>
</g>
<!-- Node2 -->
<g id="Node000002" class="node">
<title>Node2</title>
<g id="a_Node000002"><a xlink:href="panel-action-protocol_8c.html" target="_top" xlink:title=" ">
<polygon fill="white" stroke="#666666" points="122,-19 0,-19 0,0 122,0 122,-19"/>
<text text-anchor="middle" x="61" y="-7" font-family="Inter" font-size="10.00">panel&#45;action&#45;protocol.c</text>
</a>
</g>
</g>
<!-- Node1&#45;&gt;Node2 -->
<g id="edge1_Node000001_Node000002" class="edge">
<title>Node1&#45;&gt;Node2</title>
<g id="a_edge1_Node000001_Node000002"><a xlink:title=" ">
<path fill="none" stroke="#63b8ff" d="M107.01,-48.6C95.54,-39.11 81.09,-27.13 71.47,-19.17"/>
<polygon fill="#63b8ff" stroke="#63b8ff" points="104.78,-51.3 114.72,-54.98 109.25,-45.91 104.78,-51.3"/>
</a>
</g>
</g>
<!-- Node3 -->
<g id="Node000003" class="node">
<title>Node3</title>
<g id="a_Node000003"><a xlink:href="panel-force-quit_8c.html" target="_top" xlink:title=" ">
<polygon fill="white" stroke="#666666" points="238,-19 140,-19 140,0 238,0 238,-19"/>
<text text-anchor="middle" x="189" y="-7" font-family="Inter" font-size="10.00">panel&#45;force&#45;quit.c</text>
</a>
</g>
</g>
<!-- Node1&#45;&gt;Node3 -->
<g id="edge2_Node000001_Node000003" class="edge">
<title>Node1&#45;&gt;Node3</title>
<g id="a_edge2_Node000001_Node000003"><a xlink:title=" ">
<path fill="none" stroke="#63b8ff" d="M142.99,-48.6C154.46,-39.11 168.91,-27.13 178.53,-19.17"/>
<polygon fill="#63b8ff" stroke="#63b8ff" points="140.75,-45.91 135.28,-54.98 145.22,-51.3 140.75,-45.91"/>
</a>
</g>
</g>
</g>
</svg>
