<?xml version="1.0" encoding="UTF-8" standalone="no"?>
<!DOCTYPE svg PUBLIC "-//W3C//DTD SVG 1.1//EN"
 "http://www.w3.org/Graphics/SVG/1.1/DTD/svg11.dtd">
<!-- Generated by graphviz version 2.43.0 (0)
 -->
<!-- Title: panel&#45;marshal.c Pages: 1 -->
<svg width="135pt" height="137pt"
 viewBox="0.00 0.00 135.00 137.00" xmlns="http://www.w3.org/2000/svg" xmlns:xlink="http://www.w3.org/1999/xlink">
<g id="graph0" class="graph" transform="scale(1 1) rotate(0) translate(4 133)">
<title>panel&#45;marshal.c</title>
<!-- Node1 -->
<g id="Node000001" class="node">
<title>Node1</title>
<g id="a_Node000001"><a xlink:title=" ">
<polygon fill="#999999" stroke="#666666" points="127,-129 38,-129 38,-110 127,-110 127,-129"/>
<text text-anchor="middle" x="82.5" y="-117" font-family="Inter" font-size="10.00">panel&#45;marshal.c</text>
</a>
</g>
</g>
<!-- Node2 -->
<g id="Node000002" class="node">
<title>Node2</title>
<g id="a_Node000002"><a xlink:href="panel-marshal_8h.html" target="_top" xlink:title=" ">
<polygon fill="white" stroke="#666666" points="91,-74 0,-74 0,-55 91,-55 91,-74"/>
<text text-anchor="middle" x="45.5" y="-62" font-family="Inter" font-size="10.00">panel&#45;marshal.h</text>
</a>
</g>
</g>
<!-- Node1&#45;&gt;Node2 -->
<g id="edge1_Node000001_Node000002" class="edge">
<title>Node1&#45;&gt;Node2</title>
<g id="a_edge1_Node000001_Node000002"><a xlink:title=" ">
<path fill="none" stroke="#63b8ff" d="M76.39,-109.75C71.22,-102.34 63.65,-91.5 57.31,-82.41"/>
<polygon fill="#63b8ff" stroke="#63b8ff" points="60.09,-80.29 51.5,-74.09 54.35,-84.29 60.09,-80.29"/>
</a>
</g>
</g>
<!-- Node3 -->
<g id="Node000003" class="node">
<title>Node3</title>
<g id="a_Node000003"><a xlink:title=" ">
<polygon fill="#e0e0e0" stroke="#999999" points="119.5,-19 45.5,-19 45.5,0 119.5,0 119.5,-19"/>
<text text-anchor="middle" x="82.5" y="-7" font-family="Inter" font-size="10.00">glib&#45;object.h</text>
</a>
</g>
</g>
<!-- Node1&#45;&gt;Node3 -->
<g id="edge3_Node000001_Node000003" class="edge">
<title>Node1&#45;&gt;Node3</title>
<g id="a_edge3_Node000001_Node000003"><a xlink:title=" ">
<path fill="none" stroke="#63b8ff" d="M87.58,-109.98C94.17,-97.9 104.4,-75.02 100.5,-55 98.71,-45.8 95.02,-36.09 91.44,-28.1"/>
<polygon fill="#63b8ff" stroke="#63b8ff" points="94.59,-26.57 87.12,-19.06 88.27,-29.59 94.59,-26.57"/>
</a>
</g>
</g>
<!-- Node2&#45;&gt;Node3 -->
<g id="edge2_Node000002_Node000003" class="edge">
<title>Node2&#45;&gt;Node3</title>
<g id="a_edge2_Node000002_Node000003"><a xlink:title=" ">
<path fill="none" stroke="#63b8ff" d="M51.61,-54.75C56.78,-47.34 64.35,-36.5 70.69,-27.41"/>
<polygon fill="#63b8ff" stroke="#63b8ff" points="73.65,-29.29 76.5,-19.09 67.91,-25.29 73.65,-29.29"/>
</a>
</g>
</g>
</g>
</svg>
