<?xml version="1.0" encoding="UTF-8" standalone="no"?>
<!DOCTYPE svg PUBLIC "-//W3C//DTD SVG 1.1//EN"
 "http://www.w3.org/Graphics/SVG/1.1/DTD/svg11.dtd">
<!-- Generated by graphviz version 2.43.0 (0)
 -->
<!-- Title: panel&#45;action&#45;button.h Pages: 1 -->
<svg width="670pt" height="82pt"
 viewBox="0.00 0.00 669.50 82.00" xmlns="http://www.w3.org/2000/svg" xmlns:xlink="http://www.w3.org/1999/xlink">
<g id="graph0" class="graph" transform="scale(1 1) rotate(0) translate(4 78)">
<title>panel&#45;action&#45;button.h</title>
<!-- Node1 -->
<g id="Node000001" class="node">
<title>Node1</title>
<g id="a_Node000001"><a xlink:title=" ">
<polygon fill="#999999" stroke="#666666" points="371.5,-74 255.5,-74 255.5,-55 371.5,-55 371.5,-74"/>
<text text-anchor="middle" x="313.5" y="-62" font-family="Inter" font-size="10.00">panel&#45;action&#45;button.h</text>
</a>
</g>
</g>
<!-- Node2 -->
<g id="Node000002" class="node">
<title>Node2</title>
<g id="a_Node000002"><a xlink:href="mate-panel_2mate-panel_2applet_8c.html" target="_top" xlink:title=" ">
<polygon fill="white" stroke="#666666" points="53,-19 0,-19 0,0 53,0 53,-19"/>
<text text-anchor="middle" x="26.5" y="-7" font-family="Inter" font-size="10.00">applet.c</text>
</a>
</g>
</g>
<!-- Node1&#45;&gt;Node2 -->
<g id="edge1_Node000001_Node000002" class="edge">
<title>Node1&#45;&gt;Node2</title>
<g id="a_edge1_Node000001_Node000002"><a xlink:title=" ">
<path fill="none" stroke="#63b8ff" d="M249.33,-53.32C198.27,-44.95 125.09,-32.32 61.5,-19 58.81,-18.44 56.01,-17.81 53.21,-17.17"/>
<polygon fill="#63b8ff" stroke="#63b8ff" points="248.8,-56.78 259.24,-54.94 249.93,-49.87 248.8,-56.78"/>
</a>
</g>
</g>
<!-- Node3 -->
<g id="Node000003" class="node">
<title>Node3</title>
<g id="a_Node000003"><a xlink:href="mate-panel_2mate-panel_2menu_8c.html" target="_top" xlink:title=" ">
<polygon fill="white" stroke="#666666" points="122,-19 71,-19 71,0 122,0 122,-19"/>
<text text-anchor="middle" x="96.5" y="-7" font-family="Inter" font-size="10.00">menu.c</text>
</a>
</g>
</g>
<!-- Node1&#45;&gt;Node3 -->
<g id="edge2_Node000001_Node000003" class="edge">
<title>Node1&#45;&gt;Node3</title>
<g id="a_edge2_Node000001_Node000003"><a xlink:title=" ">
<path fill="none" stroke="#63b8ff" d="M268.07,-52.54C231.03,-43.58 177.36,-30.56 130.5,-19 127.78,-18.33 124.94,-17.63 122.12,-16.92"/>
<polygon fill="#63b8ff" stroke="#63b8ff" points="267.52,-56.01 278.06,-54.95 269.16,-49.2 267.52,-56.01"/>
</a>
</g>
</g>
<!-- Node4 -->
<g id="Node000004" class="node">
<title>Node4</title>
<g id="a_Node000004"><a xlink:href="panel-action-button_8c.html" target="_top" xlink:title=" ">
<polygon fill="white" stroke="#666666" points="255,-19 140,-19 140,0 255,0 255,-19"/>
<text text-anchor="middle" x="197.5" y="-7" font-family="Inter" font-size="10.00">panel&#45;action&#45;button.c</text>
</a>
</g>
</g>
<!-- Node1&#45;&gt;Node4 -->
<g id="edge3_Node000001_Node000004" class="edge">
<title>Node1&#45;&gt;Node4</title>
<g id="a_edge3_Node000001_Node000004"><a xlink:title=" ">
<path fill="none" stroke="#63b8ff" d="M285.63,-50.77C264.23,-40.99 235.26,-27.75 216.48,-19.17"/>
<polygon fill="#63b8ff" stroke="#63b8ff" points="284.31,-54.01 294.86,-54.98 287.22,-47.65 284.31,-54.01"/>
</a>
</g>
</g>
<!-- Node5 -->
<g id="Node000005" class="node">
<title>Node5</title>
<g id="a_Node000005"><a xlink:href="panel-addto_8c.html" target="_top" xlink:title=" ">
<polygon fill="white" stroke="#666666" points="353.5,-19 273.5,-19 273.5,0 353.5,0 353.5,-19"/>
<text text-anchor="middle" x="313.5" y="-7" font-family="Inter" font-size="10.00">panel&#45;addto.c</text>
</a>
</g>
</g>
<!-- Node1&#45;&gt;Node5 -->
<g id="edge4_Node000001_Node000005" class="edge">
<title>Node1&#45;&gt;Node5</title>
<g id="a_edge4_Node000001_Node000005"><a xlink:title=" ">
<path fill="none" stroke="#63b8ff" d="M313.5,-44.66C313.5,-35.93 313.5,-25.99 313.5,-19.09"/>
<polygon fill="#63b8ff" stroke="#63b8ff" points="310,-44.75 313.5,-54.75 317,-44.75 310,-44.75"/>
</a>
</g>
</g>
<!-- Node6 -->
<g id="Node000006" class="node">
<title>Node6</title>
<g id="a_Node000006"><a xlink:href="panel-menu-bar_8c.html" target="_top" xlink:title=" ">
<polygon fill="white" stroke="#666666" points="467.5,-19 371.5,-19 371.5,0 467.5,0 467.5,-19"/>
<text text-anchor="middle" x="419.5" y="-7" font-family="Inter" font-size="10.00">panel&#45;menu&#45;bar.c</text>
</a>
</g>
</g>
<!-- Node1&#45;&gt;Node6 -->
<g id="edge5_Node000001_Node000006" class="edge">
<title>Node1&#45;&gt;Node6</title>
<g id="a_edge5_Node000001_Node000006"><a xlink:title=" ">
<path fill="none" stroke="#63b8ff" d="M339.5,-50.5C359,-40.75 385.15,-27.68 402.16,-19.17"/>
<polygon fill="#63b8ff" stroke="#63b8ff" points="337.91,-47.38 330.53,-54.98 341.04,-53.64 337.91,-47.38"/>
</a>
</g>
</g>
<!-- Node7 -->
<g id="Node000007" class="node">
<title>Node7</title>
<g id="a_Node000007"><a xlink:href="panel-menu-items_8c.html" target="_top" xlink:title=" ">
<polygon fill="white" stroke="#666666" points="593.5,-19 485.5,-19 485.5,0 593.5,0 593.5,-19"/>
<text text-anchor="middle" x="539.5" y="-7" font-family="Inter" font-size="10.00">panel&#45;menu&#45;items.c</text>
</a>
</g>
</g>
<!-- Node1&#45;&gt;Node7 -->
<g id="edge6_Node000001_Node000007" class="edge">
<title>Node1&#45;&gt;Node7</title>
<g id="a_edge6_Node000001_Node000007"><a xlink:title=" ">
<path fill="none" stroke="#63b8ff" d="M359.59,-52.69C401.94,-42.76 463.86,-28.24 502.9,-19.08"/>
<polygon fill="#63b8ff" stroke="#63b8ff" points="358.75,-49.29 349.81,-54.98 360.35,-56.11 358.75,-49.29"/>
</a>
</g>
</g>
<!-- Node8 -->
<g id="Node000008" class="node">
<title>Node8</title>
<g id="a_Node000008"><a xlink:href="panel_8c.html" target="_top" xlink:title=" ">
<polygon fill="white" stroke="#666666" points="661.5,-19 611.5,-19 611.5,0 661.5,0 661.5,-19"/>
<text text-anchor="middle" x="636.5" y="-7" font-family="Inter" font-size="10.00">panel.c</text>
</a>
</g>
</g>
<!-- Node1&#45;&gt;Node8 -->
<g id="edge7_Node000001_Node000008" class="edge">
<title>Node1&#45;&gt;Node8</title>
<g id="a_edge7_Node000001_Node000008"><a xlink:title=" ">
<path fill="none" stroke="#63b8ff" d="M381.9,-54.78C440.65,-46.86 527.5,-34.11 602.5,-19 605.36,-18.42 608.35,-17.76 611.31,-17.07"/>
<polygon fill="#63b8ff" stroke="#63b8ff" points="381.07,-51.36 371.63,-56.15 382,-58.3 381.07,-51.36"/>
</a>
</g>
</g>
</g>
</svg>
