<?xml version="1.0" encoding="UTF-8" standalone="no"?>
<!DOCTYPE svg PUBLIC "-//W3C//DTD SVG 1.1//EN"
 "http://www.w3.org/Graphics/SVG/1.1/DTD/svg11.dtd">
<!-- Generated by graphviz version 2.43.0 (0)
 -->
<!-- Title: panel&#45;show.h Pages: 1 -->
<svg width="1474pt" height="82pt"
 viewBox="0.00 0.00 1474.00 82.00" xmlns="http://www.w3.org/2000/svg" xmlns:xlink="http://www.w3.org/1999/xlink">
<g id="graph0" class="graph" transform="scale(1 1) rotate(0) translate(4 78)">
<title>panel&#45;show.h</title>
<!-- Node1 -->
<g id="Node000001" class="node">
<title>Node1</title>
<g id="a_Node000001"><a xlink:title=" ">
<polygon fill="#999999" stroke="#666666" points="733.5,-74 655.5,-74 655.5,-55 733.5,-55 733.5,-74"/>
<text text-anchor="middle" x="694.5" y="-62" font-family="Inter" font-size="10.00">panel&#45;show.h</text>
</a>
</g>
</g>
<!-- Node2 -->
<g id="Node000002" class="node">
<title>Node2</title>
<g id="a_Node000002"><a xlink:href="mate-panel_2mate-panel_2applet_8c.html" target="_top" xlink:title=" ">
<polygon fill="white" stroke="#666666" points="53,-19 0,-19 0,0 53,0 53,-19"/>
<text text-anchor="middle" x="26.5" y="-7" font-family="Inter" font-size="10.00">applet.c</text>
</a>
</g>
</g>
<!-- Node1&#45;&gt;Node2 -->
<g id="edge1_Node000001_Node000002" class="edge">
<title>Node1&#45;&gt;Node2</title>
<g id="a_edge1_Node000001_Node000002"><a xlink:title=" ">
<path fill="none" stroke="#63b8ff" d="M645.28,-62.74C538.53,-60.49 277.97,-51.8 62.5,-19 59.45,-18.54 56.28,-17.95 53.14,-17.3"/>
<polygon fill="#63b8ff" stroke="#63b8ff" points="645.35,-66.24 655.42,-62.94 645.5,-59.24 645.35,-66.24"/>
</a>
</g>
</g>
<!-- Node3 -->
<g id="Node000003" class="node">
<title>Node3</title>
<g id="a_Node000003"><a xlink:href="launcher_8c.html" target="_top" xlink:title=" ">
<polygon fill="white" stroke="#666666" points="133.5,-19 71.5,-19 71.5,0 133.5,0 133.5,-19"/>
<text text-anchor="middle" x="102.5" y="-7" font-family="Inter" font-size="10.00">launcher.c</text>
</a>
</g>
</g>
<!-- Node1&#45;&gt;Node3 -->
<g id="edge2_Node000001_Node000003" class="edge">
<title>Node1&#45;&gt;Node3</title>
<g id="a_edge2_Node000001_Node000003"><a xlink:title=" ">
<path fill="none" stroke="#63b8ff" d="M645.43,-61.67C548.75,-57.59 327,-45.93 142.5,-19 139.69,-18.59 136.78,-18.1 133.87,-17.57"/>
<polygon fill="#63b8ff" stroke="#63b8ff" points="645.35,-65.17 655.49,-62.08 645.64,-58.18 645.35,-65.17"/>
</a>
</g>
</g>
<!-- Node4 -->
<g id="Node000004" class="node">
<title>Node4</title>
<g id="a_Node000004"><a xlink:href="panel-action-button_8c.html" target="_top" xlink:title=" ">
<polygon fill="white" stroke="#666666" points="267,-19 152,-19 152,0 267,0 267,-19"/>
<text text-anchor="middle" x="209.5" y="-7" font-family="Inter" font-size="10.00">panel&#45;action&#45;button.c</text>
</a>
</g>
</g>
<!-- Node1&#45;&gt;Node4 -->
<g id="edge3_Node000001_Node000004" class="edge">
<title>Node1&#45;&gt;Node4</title>
<g id="a_edge3_Node000001_Node000004"><a xlink:title=" ">
<path fill="none" stroke="#63b8ff" d="M645.24,-58.58C567.04,-50.7 409.7,-34.54 276.5,-19 273.47,-18.65 270.37,-18.28 267.23,-17.9"/>
<polygon fill="#63b8ff" stroke="#63b8ff" points="644.98,-62.07 655.28,-59.59 645.68,-55.11 644.98,-62.07"/>
</a>
</g>
</g>
<!-- Node5 -->
<g id="Node000005" class="node">
<title>Node5</title>
<g id="a_Node000005"><a xlink:href="panel-addto_8c.html" target="_top" xlink:title=" ">
<polygon fill="white" stroke="#666666" points="365.5,-19 285.5,-19 285.5,0 365.5,0 365.5,-19"/>
<text text-anchor="middle" x="325.5" y="-7" font-family="Inter" font-size="10.00">panel&#45;addto.c</text>
</a>
</g>
</g>
<!-- Node1&#45;&gt;Node5 -->
<g id="edge4_Node000001_Node000005" class="edge">
<title>Node1&#45;&gt;Node5</title>
<g id="a_edge4_Node000001_Node000005"><a xlink:title=" ">
<path fill="none" stroke="#63b8ff" d="M644.98,-57.14C582.03,-48.93 470.04,-33.93 374.5,-19 371.6,-18.55 368.61,-18.06 365.59,-17.57"/>
<polygon fill="#63b8ff" stroke="#63b8ff" points="644.66,-60.63 655.03,-58.44 645.56,-53.68 644.66,-60.63"/>
</a>
</g>
</g>
<!-- Node6 -->
<g id="Node000006" class="node">
<title>Node6</title>
<g id="a_Node000006"><a xlink:href="panel-context-menu_8c.html" target="_top" xlink:title=" ">
<polygon fill="white" stroke="#666666" points="501,-19 384,-19 384,0 501,0 501,-19"/>
<text text-anchor="middle" x="442.5" y="-7" font-family="Inter" font-size="10.00">panel&#45;context&#45;menu.c</text>
</a>
</g>
</g>
<!-- Node1&#45;&gt;Node6 -->
<g id="edge5_Node000001_Node000006" class="edge">
<title>Node1&#45;&gt;Node6</title>
<g id="a_edge5_Node000001_Node000006"><a xlink:title=" ">
<path fill="none" stroke="#63b8ff" d="M645.37,-53.17C598,-43.2 527.15,-28.3 482.94,-19.01"/>
<polygon fill="#63b8ff" stroke="#63b8ff" points="644.9,-56.64 655.4,-55.28 646.34,-49.79 644.9,-56.64"/>
</a>
</g>
</g>
<!-- Node7 -->
<g id="Node000007" class="node">
<title>Node7</title>
<g id="a_Node000007"><a xlink:href="panel-ditem-editor_8c.html" target="_top" xlink:title=" ">
<polygon fill="white" stroke="#666666" points="628,-19 519,-19 519,0 628,0 628,-19"/>
<text text-anchor="middle" x="573.5" y="-7" font-family="Inter" font-size="10.00">panel&#45;ditem&#45;editor.c</text>
</a>
</g>
</g>
<!-- Node1&#45;&gt;Node7 -->
<g id="edge6_Node000001_Node000007" class="edge">
<title>Node1&#45;&gt;Node7</title>
<g id="a_edge6_Node000001_Node000007"><a xlink:title=" ">
<path fill="none" stroke="#63b8ff" d="M665.73,-50.9C643.38,-41.11 612.98,-27.79 593.29,-19.17"/>
<polygon fill="#63b8ff" stroke="#63b8ff" points="664.5,-54.18 675.06,-54.98 667.3,-47.77 664.5,-54.18"/>
</a>
</g>
</g>
<!-- Node8 -->
<g id="Node000008" class="node">
<title>Node8</title>
<g id="a_Node000008"><a xlink:href="panel-menu-bar_8c.html" target="_top" xlink:title=" ">
<polygon fill="white" stroke="#666666" points="742.5,-19 646.5,-19 646.5,0 742.5,0 742.5,-19"/>
<text text-anchor="middle" x="694.5" y="-7" font-family="Inter" font-size="10.00">panel&#45;menu&#45;bar.c</text>
</a>
</g>
</g>
<!-- Node1&#45;&gt;Node8 -->
<g id="edge7_Node000001_Node000008" class="edge">
<title>Node1&#45;&gt;Node8</title>
<g id="a_edge7_Node000001_Node000008"><a xlink:title=" ">
<path fill="none" stroke="#63b8ff" d="M694.5,-44.66C694.5,-35.93 694.5,-25.99 694.5,-19.09"/>
<polygon fill="#63b8ff" stroke="#63b8ff" points="691,-44.75 694.5,-54.75 698,-44.75 691,-44.75"/>
</a>
</g>
</g>
<!-- Node9 -->
<g id="Node000009" class="node">
<title>Node9</title>
<g id="a_Node000009"><a xlink:href="panel-menu-button_8c.html" target="_top" xlink:title=" ">
<polygon fill="white" stroke="#666666" points="874.5,-19 760.5,-19 760.5,0 874.5,0 874.5,-19"/>
<text text-anchor="middle" x="817.5" y="-7" font-family="Inter" font-size="10.00">panel&#45;menu&#45;button.c</text>
</a>
</g>
</g>
<!-- Node1&#45;&gt;Node9 -->
<g id="edge8_Node000001_Node000009" class="edge">
<title>Node1&#45;&gt;Node9</title>
<g id="a_edge8_Node000001_Node000009"><a xlink:title=" ">
<path fill="none" stroke="#63b8ff" d="M723.75,-50.9C746.47,-41.11 777.37,-27.79 797.38,-19.17"/>
<polygon fill="#63b8ff" stroke="#63b8ff" points="722.06,-47.81 714.26,-54.98 724.83,-54.24 722.06,-47.81"/>
</a>
</g>
</g>
<!-- Node10 -->
<g id="Node000010" class="node">
<title>Node10</title>
<g id="a_Node000010"><a xlink:href="panel-menu-items_8c.html" target="_top" xlink:title=" ">
<polygon fill="white" stroke="#666666" points="1000.5,-19 892.5,-19 892.5,0 1000.5,0 1000.5,-19"/>
<text text-anchor="middle" x="946.5" y="-7" font-family="Inter" font-size="10.00">panel&#45;menu&#45;items.c</text>
</a>
</g>
</g>
<!-- Node1&#45;&gt;Node10 -->
<g id="edge9_Node000001_Node000010" class="edge">
<title>Node1&#45;&gt;Node10</title>
<g id="a_edge9_Node000001_Node000010"><a xlink:title=" ">
<path fill="none" stroke="#63b8ff" d="M743.63,-53.17C791,-43.2 861.85,-28.3 906.06,-19.01"/>
<polygon fill="#63b8ff" stroke="#63b8ff" points="742.66,-49.79 733.6,-55.28 744.1,-56.64 742.66,-49.79"/>
</a>
</g>
</g>
<!-- Node11 -->
<g id="Node000011" class="node">
<title>Node11</title>
<g id="a_Node000011"><a xlink:href="panel-properties-dialog_8c.html" target="_top" xlink:title=" ">
<polygon fill="white" stroke="#666666" points="1150.5,-19 1018.5,-19 1018.5,0 1150.5,0 1150.5,-19"/>
<text text-anchor="middle" x="1084.5" y="-7" font-family="Inter" font-size="10.00">panel&#45;properties&#45;dialog.c</text>
</a>
</g>
</g>
<!-- Node1&#45;&gt;Node11 -->
<g id="edge10_Node000001_Node000011" class="edge">
<title>Node1&#45;&gt;Node11</title>
<g id="a_edge10_Node000001_Node000011"><a xlink:title=" ">
<path fill="none" stroke="#63b8ff" d="M743.65,-56.82C814.2,-47.23 944.21,-29.57 1021.67,-19.04"/>
<polygon fill="#63b8ff" stroke="#63b8ff" points="743.12,-53.36 733.68,-58.18 744.06,-60.3 743.12,-53.36"/>
</a>
</g>
</g>
<!-- Node12 -->
<g id="Node000012" class="node">
<title>Node12</title>
<g id="a_Node000012"><a xlink:href="panel-recent_8c.html" target="_top" xlink:title=" ">
<polygon fill="white" stroke="#666666" points="1252,-19 1169,-19 1169,0 1252,0 1252,-19"/>
<text text-anchor="middle" x="1210.5" y="-7" font-family="Inter" font-size="10.00">panel&#45;recent.c</text>
</a>
</g>
</g>
<!-- Node1&#45;&gt;Node12 -->
<g id="edge11_Node000001_Node000012" class="edge">
<title>Node1&#45;&gt;Node12</title>
<g id="a_edge11_Node000001_Node000012"><a xlink:title=" ">
<path fill="none" stroke="#63b8ff" d="M743.94,-59.91C829.04,-53.47 1008.59,-38.77 1159.5,-19 1162.53,-18.6 1165.65,-18.16 1168.79,-17.7"/>
<polygon fill="#63b8ff" stroke="#63b8ff" points="743.51,-56.43 733.8,-60.67 744.03,-63.41 743.51,-56.43"/>
</a>
</g>
</g>
<!-- Node13 -->
<g id="Node000013" class="node">
<title>Node13</title>
<g id="a_Node000013"><a xlink:href="panel-run-dialog_8c.html" target="_top" xlink:title=" ">
<polygon fill="white" stroke="#666666" points="1370.5,-19 1270.5,-19 1270.5,0 1370.5,0 1370.5,-19"/>
<text text-anchor="middle" x="1320.5" y="-7" font-family="Inter" font-size="10.00">panel&#45;run&#45;dialog.c</text>
</a>
</g>
</g>
<!-- Node1&#45;&gt;Node13 -->
<g id="edge12_Node000001_Node000013" class="edge">
<title>Node1&#45;&gt;Node13</title>
<g id="a_edge12_Node000001_Node000013"><a xlink:title=" ">
<path fill="none" stroke="#63b8ff" d="M744.03,-60.7C842.69,-54.87 1070.71,-40.21 1261.5,-19 1264.38,-18.68 1267.34,-18.33 1270.32,-17.96"/>
<polygon fill="#63b8ff" stroke="#63b8ff" points="743.54,-57.22 733.77,-61.3 743.95,-64.21 743.54,-57.22"/>
</a>
</g>
</g>
<!-- Node14 -->
<g id="Node000014" class="node">
<title>Node14</title>
<g id="a_Node000014"><a xlink:href="panel-show_8c.html" target="_top" xlink:title=" ">
<polygon fill="white" stroke="#666666" points="1466,-19 1389,-19 1389,0 1466,0 1466,-19"/>
<text text-anchor="middle" x="1427.5" y="-7" font-family="Inter" font-size="10.00">panel&#45;show.c</text>
</a>
</g>
</g>
<!-- Node1&#45;&gt;Node14 -->
<g id="edge13_Node000001_Node000014" class="edge">
<title>Node1&#45;&gt;Node14</title>
<g id="a_edge13_Node000001_Node000014"><a xlink:title=" ">
<path fill="none" stroke="#63b8ff" d="M743.69,-62.17C856.48,-58.71 1142.29,-47.62 1379.5,-19 1382.52,-18.64 1385.65,-18.2 1388.78,-17.73"/>
<polygon fill="#63b8ff" stroke="#63b8ff" points="743.53,-58.67 733.64,-62.47 743.74,-65.67 743.53,-58.67"/>
</a>
</g>
</g>
</g>
</svg>
