<?xml version="1.0" encoding="UTF-8" standalone="no"?>
<!DOCTYPE svg PUBLIC "-//W3C//DTD SVG 1.1//EN"
 "http://www.w3.org/Graphics/SVG/1.1/DTD/svg11.dtd">
<!-- Generated by graphviz version 2.43.0 (0)
 -->
<!-- Title: panel&#45;shell.c Pages: 1 -->
<!--zoomable 258 -->

<svg id="main" version="1.1" xmlns="http://www.w3.org/2000/svg" xmlns:xlink="http://www.w3.org/1999/xlink" xml:space="preserve" onload="init(evt)">

<style type="text/css"><![CDATA[
.node, .edge {opacity: 0.7;}
.node.selected, .edge.selected {opacity: 1;}
.edge:hover path { stroke: red; }
.edge:hover polygon { stroke: red; fill: red; }
]]></style>

<defs>
  <circle id="rim" cx="0" cy="0" r="7"/>
  <circle id="rim2" cx="0" cy="0" r="3.5"/>
  <g id="zoomPlus">
    <use xlink:href="#rim" fill="#404040"><set attributeName="fill" to="#808080" begin="zoomplus.mouseover" end="zoomplus.mouseout"/></use>
    <path d="M-4,0h8M0,-4v8" fill="none" stroke="white" stroke-width="1.5" pointer-events="none"/>
  </g>
  <g id="zoomMin">
    <use xlink:href="#rim" fill="#404040"><set attributeName="fill" to="#808080" begin="zoomminus.mouseover" end="zoomminus.mouseout"/></use>
    <path d="M-4,0h8" fill="none" stroke="white" stroke-width="1.5" pointer-events="none"/>
  </g>
  <g id="arrowUp" transform="translate(30 24)">
    <use xlink:href="#rim"/>
    <path pointer-events="none" fill="none" stroke="white" stroke-width="1.5" d="M0,-3.0v7 M-2.5,-0.5L0,-3.0L2.5,-0.5"/>
  </g>
  <g id="arrowRight" transform="rotate(90) translate(36 -43)">
    <use xlink:href="#rim"/>
    <path pointer-events="none" fill="none" stroke="white" stroke-width="1.5" d="M0,-3.0v7 M-2.5,-0.5L0,-3.0L2.5,-0.5"/>
  </g>
  <g id="arrowDown" transform="rotate(180) translate(-30 -48)">
    <use xlink:href="#rim"/>
    <path pointer-events="none" fill="none" stroke="white" stroke-width="1.5" d="M0,-3.0v7 M-2.5,-0.5L0,-3.0L2.5,-0.5"/>
  </g>
  <g id="arrowLeft" transform="rotate(270) translate(-36 17)">
    <use xlink:href="#rim"/>
    <path pointer-events="none" fill="none" stroke="white" stroke-width="1.5" d="M0,-3.0v7 M-2.5,-0.5L0,-3.0L2.5,-0.5"/>
  </g>
  <g id="resetDef">
    <use xlink:href="#rim2" fill="#404040"><set attributeName="fill" to="#808080" begin="reset.mouseover" end="reset.mouseout"/></use>
  </g>
</defs>
<script type="application/ecmascript">
var viewWidth = 606;
var viewHeight = 258;
var sectionId = 'dynsection-0';
</script>
<script type="application/ecmascript" xlink:href="svg.min.js"/>
<svg id="graph" class="graph">
<g id="viewport">
<title>panel&#45;shell.c</title>
<!-- Node1 -->
<g id="Node000001" class="node">
<title>Node1</title>
<g id="a_Node000001"><a xlink:title=" ">
<polygon fill="#999999" stroke="#666666" points="408.5,-250 334.5,-250 334.5,-231 408.5,-231 408.5,-250"/>
<text text-anchor="middle" x="371.5" y="-238" font-family="Inter" font-size="10.00">panel&#45;shell.c</text>
</a>
</g>
</g>
<!-- Node2 -->
<g id="Node000002" class="node">
<title>Node2</title>
<g id="a_Node000002"><a xlink:title=" ">
<polygon fill="#e0e0e0" stroke="#999999" points="183.5,-195 129.5,-195 129.5,-176 183.5,-176 183.5,-195"/>
<text text-anchor="middle" x="156.5" y="-183" font-family="Inter" font-size="10.00">config.h</text>
</a>
</g>
</g>
<!-- Node1&#45;&gt;Node2 -->
<g id="edge1_Node000001_Node000002" class="edge">
<title>Node1&#45;&gt;Node2</title>
<g id="a_edge1_Node000001_Node000002"><a xlink:title=" ">
<path fill="none" stroke="#63b8ff" d="M336.96,-230.98C297.75,-221.32 234.05,-205.62 193.75,-195.68"/>
<polygon fill="#63b8ff" stroke="#63b8ff" points="194.34,-192.22 183.8,-193.23 192.67,-199.02 194.34,-192.22"/>
</a>
</g>
</g>
<!-- Node3 -->
<g id="Node000003" class="node">
<title>Node3</title>
<g id="a_Node000003"><a xlink:title=" ">
<polygon fill="#e0e0e0" stroke="#999999" points="273.5,-195 201.5,-195 201.5,-176 273.5,-176 273.5,-195"/>
<text text-anchor="middle" x="237.5" y="-183" font-family="Inter" font-size="10.00">glib/gi18n.h</text>
</a>
</g>
</g>
<!-- Node1&#45;&gt;Node3 -->
<g id="edge2_Node000001_Node000003" class="edge">
<title>Node1&#45;&gt;Node3</title>
<g id="a_edge2_Node000001_Node000003"><a xlink:title=" ">
<path fill="none" stroke="#63b8ff" d="M349.97,-230.98C328.03,-222.3 293.76,-208.75 268.81,-198.88"/>
<polygon fill="#63b8ff" stroke="#63b8ff" points="270.01,-195.59 259.42,-195.17 267.43,-202.1 270.01,-195.59"/>
</a>
</g>
</g>
<!-- Node4 -->
<g id="Node000004" class="node">
<title>Node4</title>
<g id="a_Node000004"><a xlink:href="panel-cleanup_8h.html" target="_top" xlink:title=" ">
<polygon fill="white" stroke="#666666" points="579,-140 480,-140 480,-110 579,-110 579,-140"/>
<text text-anchor="start" x="488" y="-128" font-family="Inter" font-size="10.00">libpanel&#45;util/panel</text>
<text text-anchor="middle" x="529.5" y="-117" font-family="Inter" font-size="10.00">&#45;cleanup.h</text>
</a>
</g>
</g>
<!-- Node1&#45;&gt;Node4 -->
<g id="edge3_Node000001_Node000004" class="edge">
<title>Node1&#45;&gt;Node4</title>
<g id="a_edge3_Node000001_Node000004"><a xlink:title=" ">
<path fill="none" stroke="#63b8ff" d="M391.9,-230.95C409.95,-222.93 436.58,-209.96 457.5,-195 476.87,-181.15 496.21,-162.27 509.96,-147.75"/>
<polygon fill="#63b8ff" stroke="#63b8ff" points="512.73,-149.91 516.99,-140.2 507.61,-145.14 512.73,-149.91"/>
</a>
</g>
</g>
<!-- Node6 -->
<g id="Node000006" class="node">
<title>Node6</title>
<g id="a_Node000006"><a xlink:href="panel-profile_8h.html" target="_top" xlink:title=" ">
<polygon fill="white" stroke="#666666" points="375.5,-195 291.5,-195 291.5,-176 375.5,-176 375.5,-195"/>
<text text-anchor="middle" x="333.5" y="-183" font-family="Inter" font-size="10.00">panel&#45;profile.h</text>
</a>
</g>
</g>
<!-- Node1&#45;&gt;Node6 -->
<g id="edge5_Node000001_Node000006" class="edge">
<title>Node1&#45;&gt;Node6</title>
<g id="a_edge5_Node000001_Node000006"><a xlink:title=" ">
<path fill="none" stroke="#63b8ff" d="M365.23,-230.75C359.91,-223.34 352.14,-212.5 345.62,-203.41"/>
<polygon fill="#63b8ff" stroke="#63b8ff" points="348.33,-201.18 339.66,-195.09 342.64,-205.26 348.33,-201.18"/>
</a>
</g>
</g>
<!-- Node19 -->
<g id="Node000019" class="node">
<title>Node19</title>
<g id="a_Node000019"><a xlink:href="panel-session_8h.html" target="_top" xlink:title=" ">
<polygon fill="white" stroke="#666666" points="597.5,-195 509.5,-195 509.5,-176 597.5,-176 597.5,-195"/>
<text text-anchor="middle" x="553.5" y="-183" font-family="Inter" font-size="10.00">panel&#45;session.h</text>
</a>
</g>
</g>
<!-- Node1&#45;&gt;Node19 -->
<g id="edge19_Node000001_Node000019" class="edge">
<title>Node1&#45;&gt;Node19</title>
<g id="a_edge19_Node000001_Node000019"><a xlink:title=" ">
<path fill="none" stroke="#63b8ff" d="M400.74,-230.98C431.56,-222.01 480.28,-207.82 514.39,-197.89"/>
<polygon fill="#63b8ff" stroke="#63b8ff" points="515.41,-201.24 524.03,-195.08 513.45,-194.52 515.41,-201.24"/>
</a>
</g>
</g>
<!-- Node20 -->
<g id="Node000020" class="node">
<title>Node20</title>
<g id="a_Node000020"><a xlink:href="panel-shell_8h.html" target="_top" xlink:title=" ">
<polygon fill="white" stroke="#666666" points="505,-74 430,-74 430,-55 505,-55 505,-74"/>
<text text-anchor="middle" x="467.5" y="-62" font-family="Inter" font-size="10.00">panel&#45;shell.h</text>
</a>
</g>
</g>
<!-- Node1&#45;&gt;Node20 -->
<g id="edge20_Node000001_Node000020" class="edge">
<title>Node1&#45;&gt;Node20</title>
<g id="a_edge20_Node000001_Node000020"><a xlink:title=" ">
<path fill="none" stroke="#63b8ff" d="M376.39,-230.63C391.48,-203.29 437.49,-119.9 457.75,-83.18"/>
<polygon fill="#63b8ff" stroke="#63b8ff" points="460.96,-84.59 462.73,-74.14 454.84,-81.21 460.96,-84.59"/>
</a>
</g>
</g>
<!-- Node5 -->
<g id="Node000005" class="node">
<title>Node5</title>
<g id="a_Node000005"><a xlink:title=" ">
<polygon fill="#e0e0e0" stroke="#999999" points="422.5,-19 380.5,-19 380.5,0 422.5,0 422.5,-19"/>
<text text-anchor="middle" x="401.5" y="-7" font-family="Inter" font-size="10.00">glib.h</text>
</a>
</g>
</g>
<!-- Node4&#45;&gt;Node5 -->
<g id="edge4_Node000004_Node000005" class="edge">
<title>Node4&#45;&gt;Node5</title>
<g id="a_edge4_Node000004_Node000005"><a xlink:title=" ">
<path fill="none" stroke="#63b8ff" d="M530.13,-109.88C530.05,-94.62 527.61,-70.41 514.5,-55 493.97,-30.86 458.6,-19.73 432.89,-14.65"/>
<polygon fill="#63b8ff" stroke="#63b8ff" points="433.33,-11.17 422.87,-12.88 432.11,-18.07 433.33,-11.17"/>
</a>
</g>
</g>
<!-- Node6&#45;&gt;Node5 -->
<g id="edge6_Node000006_Node000005" class="edge">
<title>Node6&#45;&gt;Node5</title>
<g id="a_edge6_Node000006_Node000005"><a xlink:title=" ">
<path fill="none" stroke="#63b8ff" d="M340.57,-175.79C347.28,-167.15 357.24,-153.32 363.5,-140 381.21,-102.32 392.64,-54.55 397.98,-28.86"/>
<polygon fill="#63b8ff" stroke="#63b8ff" points="401.42,-29.5 399.95,-19 394.56,-28.12 401.42,-29.5"/>
</a>
</g>
</g>
<!-- Node7 -->
<g id="Node000007" class="node">
<title>Node7</title>
<g id="a_Node000007"><a xlink:title=" ">
<polygon fill="#e0e0e0" stroke="#999999" points="368.5,-74 304.5,-74 304.5,-55 368.5,-55 368.5,-74"/>
<text text-anchor="middle" x="336.5" y="-62" font-family="Inter" font-size="10.00">gdk/gdk.h</text>
</a>
</g>
</g>
<!-- Node6&#45;&gt;Node7 -->
<g id="edge7_Node000006_Node000007" class="edge">
<title>Node6&#45;&gt;Node7</title>
<g id="a_edge7_Node000006_Node000007"><a xlink:title=" ">
<path fill="none" stroke="#63b8ff" d="M337.36,-175.85C341.06,-167.04 346.39,-152.87 348.5,-140 350.66,-126.84 350.25,-123.22 348.5,-110 347.34,-101.27 344.97,-91.83 342.63,-83.9"/>
<polygon fill="#63b8ff" stroke="#63b8ff" points="345.93,-82.72 339.59,-74.23 339.25,-84.82 345.93,-82.72"/>
</a>
</g>
</g>
<!-- Node8 -->
<g id="Node000008" class="node">
<title>Node8</title>
<g id="a_Node000008"><a xlink:title=" ">
<polygon fill="#e0e0e0" stroke="#999999" points="269.5,-74 211.5,-74 211.5,-55 269.5,-55 269.5,-74"/>
<text text-anchor="middle" x="240.5" y="-62" font-family="Inter" font-size="10.00">gio/gio.h</text>
</a>
</g>
</g>
<!-- Node6&#45;&gt;Node8 -->
<g id="edge8_Node000006_Node000008" class="edge">
<title>Node6&#45;&gt;Node8</title>
<g id="a_edge8_Node000006_Node000008"><a xlink:title=" ">
<path fill="none" stroke="#63b8ff" d="M303.01,-175.93C284.81,-169.19 262.89,-157.87 250.5,-140 239.25,-123.77 237.81,-100.71 238.51,-84.55"/>
<polygon fill="#63b8ff" stroke="#63b8ff" points="242.02,-84.44 239.28,-74.21 235.04,-83.92 242.02,-84.44"/>
</a>
</g>
</g>
<!-- Node9 -->
<g id="Node000009" class="node">
<title>Node9</title>
<g id="a_Node000009"><a xlink:href="panel-toplevel_8h.html" target="_top" xlink:title=" ">
<polygon fill="#fff0f0" stroke="red" points="91,-134.5 0,-134.5 0,-115.5 91,-115.5 91,-134.5"/>
<text text-anchor="middle" x="45.5" y="-122.5" font-family="Inter" font-size="10.00">panel&#45;toplevel.h</text>
</a>
</g>
</g>
<!-- Node6&#45;&gt;Node9 -->
<g id="edge9_Node000006_Node000009" class="edge">
<title>Node6&#45;&gt;Node9</title>
<g id="a_edge9_Node000006_Node000009"><a xlink:title=" ">
<path fill="none" stroke="#63b8ff" d="M291.38,-176.76C245.56,-168.22 170.17,-153.85 105.5,-140 100.78,-138.99 95.86,-137.9 90.96,-136.79"/>
<polygon fill="#63b8ff" stroke="#63b8ff" points="91.52,-133.33 80.99,-134.51 89.95,-140.15 91.52,-133.33"/>
</a>
</g>
</g>
<!-- Node12 -->
<g id="Node000012" class="node">
<title>Node12</title>
<g id="a_Node000012"><a xlink:href="panel-enums_8h.html" target="_top" xlink:title=" ">
<polygon fill="#fff0f0" stroke="red" points="155.5,-74 69.5,-74 69.5,-55 155.5,-55 155.5,-74"/>
<text text-anchor="middle" x="112.5" y="-62" font-family="Inter" font-size="10.00">panel&#45;enums.h</text>
</a>
</g>
</g>
<!-- Node6&#45;&gt;Node12 -->
<g id="edge12_Node000006_Node000012" class="edge">
<title>Node6&#45;&gt;Node12</title>
<g id="a_edge12_Node000006_Node000012"><a xlink:title=" ">
<path fill="none" stroke="#63b8ff" d="M291.15,-177.08C237.29,-167.3 149.86,-150.16 138.5,-140 122.65,-125.83 116.47,-101.46 114.05,-84.47"/>
<polygon fill="#63b8ff" stroke="#63b8ff" points="117.48,-83.65 112.91,-74.1 110.52,-84.42 117.48,-83.65"/>
</a>
</g>
</g>
<!-- Node14 -->
<g id="Node000014" class="node">
<title>Node14</title>
<g id="a_Node000014"><a xlink:href="panel-types_8h.html" target="_top" xlink:title=" ">
<polygon fill="white" stroke="#666666" points="339.5,-134.5 259.5,-134.5 259.5,-115.5 339.5,-115.5 339.5,-134.5"/>
<text text-anchor="middle" x="299.5" y="-122.5" font-family="Inter" font-size="10.00">panel&#45;types.h</text>
</a>
</g>
</g>
<!-- Node6&#45;&gt;Node14 -->
<g id="edge13_Node000006_Node000014" class="edge">
<title>Node6&#45;&gt;Node14</title>
<g id="a_edge13_Node000006_Node000014"><a xlink:title=" ">
<path fill="none" stroke="#63b8ff" d="M328.48,-175.87C323.56,-167.4 315.91,-154.24 309.71,-143.57"/>
<polygon fill="#63b8ff" stroke="#63b8ff" points="312.59,-141.55 304.54,-134.67 306.54,-145.07 312.59,-141.55"/>
</a>
</g>
</g>
<!-- Node15 -->
<g id="Node000015" class="node">
<title>Node15</title>
<g id="a_Node000015"><a xlink:href="mate-panel_2mate-panel_2applet_8h.html" target="_top" xlink:title=" ">
<polygon fill="#fff0f0" stroke="red" points="203,-134.5 148,-134.5 148,-115.5 203,-115.5 203,-134.5"/>
<text text-anchor="middle" x="175.5" y="-122.5" font-family="Inter" font-size="10.00">applet.h</text>
</a>
</g>
</g>
<!-- Node6&#45;&gt;Node15 -->
<g id="edge14_Node000006_Node000015" class="edge">
<title>Node6&#45;&gt;Node15</title>
<g id="a_edge14_Node000006_Node000015"><a xlink:title=" ">
<path fill="none" stroke="#63b8ff" d="M310.53,-175.99C283.61,-166.03 238.83,-149.45 208.27,-138.13"/>
<polygon fill="#63b8ff" stroke="#63b8ff" points="209.1,-134.71 198.5,-134.52 206.66,-141.27 209.1,-134.71"/>
</a>
</g>
</g>
<!-- Node9&#45;&gt;Node12 -->
<g id="edge10_Node000009_Node000012" class="edge">
<title>Node9&#45;&gt;Node12</title>
<g id="a_edge10_Node000009_Node000012"><a xlink:title=" ">
<path fill="none" stroke="#63b8ff" d="M55.39,-115.37C65.78,-106.3 82.34,-91.84 94.95,-80.82"/>
<polygon fill="#63b8ff" stroke="#63b8ff" points="97.34,-83.38 102.57,-74.17 92.74,-78.11 97.34,-83.38"/>
</a>
</g>
</g>
<!-- Node12&#45;&gt;Node5 -->
<g id="edge11_Node000012_Node000005" class="edge">
<title>Node12&#45;&gt;Node5</title>
<g id="a_edge11_Node000012_Node000005"><a xlink:title=" ">
<path fill="none" stroke="#63b8ff" d="M155.77,-55.57C214.69,-44.76 318.75,-25.67 370.49,-16.19"/>
<polygon fill="#63b8ff" stroke="#63b8ff" points="371.21,-19.61 380.41,-14.37 369.94,-12.73 371.21,-19.61"/>
</a>
</g>
</g>
<!-- Node15&#45;&gt;Node5 -->
<g id="edge15_Node000015_Node000005" class="edge">
<title>Node15&#45;&gt;Node5</title>
<g id="a_edge15_Node000015_Node000005"><a xlink:title=" ">
<path fill="none" stroke="#63b8ff" d="M176.32,-115.31C178.19,-100.58 184.14,-70.74 202.5,-55 227.41,-33.64 320.61,-19.88 370.12,-13.91"/>
<polygon fill="#63b8ff" stroke="#63b8ff" points="370.75,-17.36 380.27,-12.73 369.93,-10.41 370.75,-17.36"/>
</a>
</g>
</g>
<!-- Node15&#45;&gt;Node7 -->
<g id="edge16_Node000015_Node000007" class="edge">
<title>Node15&#45;&gt;Node7</title>
<g id="a_edge16_Node000015_Node000007"><a xlink:title=" ">
<path fill="none" stroke="#63b8ff" d="M198.91,-115.49C226.45,-105.49 272.37,-88.8 303.51,-77.49"/>
<polygon fill="#63b8ff" stroke="#63b8ff" points="304.86,-80.72 313.06,-74.02 302.47,-74.14 304.86,-80.72"/>
</a>
</g>
</g>
<!-- Node15&#45;&gt;Node8 -->
<g id="edge17_Node000015_Node000008" class="edge">
<title>Node15&#45;&gt;Node8</title>
<g id="a_edge17_Node000015_Node000008"><a xlink:title=" ">
<path fill="none" stroke="#63b8ff" d="M185.09,-115.37C195.08,-106.38 210.93,-92.11 223.13,-81.14"/>
<polygon fill="#63b8ff" stroke="#63b8ff" points="225.78,-83.46 230.87,-74.17 221.1,-78.26 225.78,-83.46"/>
</a>
</g>
</g>
<!-- Node15&#45;&gt;Node12 -->
<g id="edge18_Node000015_Node000012" class="edge">
<title>Node15&#45;&gt;Node12</title>
<g id="a_edge18_Node000015_Node000012"><a xlink:title=" ">
<path fill="none" stroke="#63b8ff" d="M166.2,-115.37C156.53,-106.38 141.16,-92.11 129.34,-81.14"/>
<polygon fill="#63b8ff" stroke="#63b8ff" points="131.54,-78.41 121.83,-74.17 126.78,-83.54 131.54,-78.41"/>
</a>
</g>
</g>
<!-- Node20&#45;&gt;Node5 -->
<g id="edge21_Node000020_Node000005" class="edge">
<title>Node20&#45;&gt;Node5</title>
<g id="a_edge21_Node000020_Node000005"><a xlink:title=" ">
<path fill="none" stroke="#63b8ff" d="M456.9,-54.98C447.04,-47.07 432.15,-35.11 420.28,-25.58"/>
<polygon fill="#63b8ff" stroke="#63b8ff" points="422.29,-22.7 412.3,-19.17 417.9,-28.16 422.29,-22.7"/>
</a>
</g>
</g>
</g>
</svg>

<g id="navigator" transform="translate(0 0)" fill="#404254">
  <rect fill="#f2f5e9" fill-opacity="0.5" stroke="#606060" stroke-width=".5" x="0" y="0" width="60" height="60"/>
  <use id="zoomplus" xlink:href="#zoomPlus" x="17" y="9" onmousedown="handleZoom(evt,'in')"/>
  <use id="zoomminus" xlink:href="#zoomMin" x="42" y="9" onmousedown="handleZoom(evt,'out')"/>
  <use id="reset" xlink:href="#resetDef" x="30" y="36" onmousedown="handleReset()"/>
   <use id="arrowup" xlink:href="#arrowUp" x="0" y="0" onmousedown="handlePan(0,-1)"/>
  <use id="arrowright" xlink:href="#arrowRight" x="0" y="0" onmousedown="handlePan(1,0)"/>
  <use id="arrowdown" xlink:href="#arrowDown" x="0" y="0" onmousedown="handlePan(0,1)"/>
  <use id="arrowleft" xlink:href="#arrowLeft" x="0" y="0" onmousedown="handlePan(-1,0)"/>
</g>
<svg viewBox="0 0 15 15" width="100%" height="30px" preserveAspectRatio="xMaxYMin meet">
 <g id="arrow_out" transform="scale(0.3 0.3)">
  <a xlink:href="panel-shell_8c__incl_org.svg" target="_base">
   <rect id="button" ry="5" rx="5" y="6" x="6" height="38" width="38"
        fill="#f2f5e9" fill-opacity="0.5" stroke="#606060" stroke-width="1.0"/>
   <path id="arrow"
     d="M 11.500037,31.436501 C 11.940474,20.09759 22.043105,11.32322 32.158766,21.979434 L 37.068811,17.246167 C 37.068811,17.246167 37.088388,32 37.088388,32 L 22.160133,31.978069 C 22.160133,31.978069 26.997745,27.140456 26.997745,27.140456 C 18.528582,18.264221 13.291696,25.230495 11.500037,31.436501 z"
     style="fill:#404040;"/>
  </a>
 </g>
</svg>

<style type='text/css'>
<![CDATA[
[data-mouse-over-selected='false'] { opacity: 0.7; }
[data-mouse-over-selected='true']  { opacity: 1.0; }
]]>
</style>
<script type="application/ecmascript"><![CDATA[
document.addEventListener('DOMContentLoaded', (event) => {
  highlightEdges();
  highlightAdjacentNodes();
});
]]></script>
</svg>
