<?xml version="1.0" encoding="UTF-8" standalone="no"?>
<!DOCTYPE svg PUBLIC "-//W3C//DTD SVG 1.1//EN"
 "http://www.w3.org/Graphics/SVG/1.1/DTD/svg11.dtd">
<!-- Generated by graphviz version 2.43.0 (0)
 -->
<!-- Title: paper.c Pages: 1 -->
<svg width="1798pt" height="247pt"
 viewBox="0.00 0.00 1797.56 247.00" xmlns="http://www.w3.org/2000/svg" xmlns:xlink="http://www.w3.org/1999/xlink">
<g id="graph0" class="graph" transform="scale(1 1) rotate(0) translate(4 243)">
<title>paper.c</title>
<!-- Node1 -->
<g id="Node000001" class="node">
<title>Node1</title>
<g id="a_Node000001"><a xlink:title=" ">
<polygon fill="#999999" stroke="#666666" points="630.06,-239 580.06,-239 580.06,-220 630.06,-220 630.06,-239"/>
<text text-anchor="middle" x="605.06" y="-227" font-family="Inter" font-size="10.00">paper.c</text>
</a>
</g>
</g>
<!-- Node2 -->
<g id="Node000002" class="node">
<title>Node2</title>
<g id="a_Node000002"><a xlink:title=" ">
<polygon fill="#e0e0e0" stroke="#999999" points="461.06,-19 407.06,-19 407.06,0 461.06,0 461.06,-19"/>
<text text-anchor="middle" x="434.06" y="-7" font-family="Inter" font-size="10.00">config.h</text>
</a>
</g>
</g>
<!-- Node1&#45;&gt;Node2 -->
<g id="edge1_Node000001_Node000002" class="edge">
<title>Node1&#45;&gt;Node2</title>
<g id="a_edge1_Node000001_Node000002"><a xlink:title=" ">
<path fill="none" stroke="#63b8ff" d="M579.82,-228.42C475.72,-227.52 81.63,-218.16 6.06,-129 -46.94,-66.47 283.31,-26.07 396.78,-14.17"/>
<polygon fill="#63b8ff" stroke="#63b8ff" points="397.16,-17.65 406.75,-13.14 396.44,-10.69 397.16,-17.65"/>
</a>
</g>
</g>
<!-- Node3 -->
<g id="Node000003" class="node">
<title>Node3</title>
<g id="a_Node000003"><a xlink:title=" ">
<polygon fill="#e0e0e0" stroke="#999999" points="1264.56,-184 1211.56,-184 1211.56,-165 1264.56,-165 1264.56,-184"/>
<text text-anchor="middle" x="1238.06" y="-172" font-family="Inter" font-size="10.00">string.h</text>
</a>
</g>
</g>
<!-- Node1&#45;&gt;Node3 -->
<g id="edge2_Node000001_Node000003" class="edge">
<title>Node1&#45;&gt;Node3</title>
<g id="a_edge2_Node000001_Node000003"><a xlink:title=" ">
<path fill="none" stroke="#63b8ff" d="M630.29,-228.1C711.76,-226.5 975.11,-218.9 1201.33,-184.03"/>
<polygon fill="#63b8ff" stroke="#63b8ff" points="1202.06,-187.45 1211.39,-182.45 1200.97,-180.54 1202.06,-187.45"/>
</a>
</g>
</g>
<!-- Node4 -->
<g id="Node000004" class="node">
<title>Node4</title>
<g id="a_Node000004"><a xlink:href="atril_2backend_2dvi_2mdvi-lib_2common_8h.html" target="_top" xlink:title=" ">
<polygon fill="white" stroke="#666666" points="638.06,-129 572.06,-129 572.06,-110 638.06,-110 638.06,-129"/>
<text text-anchor="middle" x="605.06" y="-117" font-family="Inter" font-size="10.00">common.h</text>
</a>
</g>
</g>
<!-- Node1&#45;&gt;Node4 -->
<g id="edge3_Node000001_Node000004" class="edge">
<title>Node1&#45;&gt;Node4</title>
<g id="a_edge3_Node000001_Node000004"><a xlink:title=" ">
<path fill="none" stroke="#63b8ff" d="M605.06,-219.66C605.06,-202.17 605.06,-162.8 605.06,-139.27"/>
<polygon fill="#63b8ff" stroke="#63b8ff" points="608.56,-139.16 605.06,-129.16 601.56,-139.16 608.56,-139.16"/>
</a>
</g>
</g>
<!-- Node9 -->
<g id="Node000009" class="node">
<title>Node9</title>
<g id="a_Node000009"><a xlink:href="mdvi_8h.html" target="_top" xlink:title=" ">
<polygon fill="white" stroke="#666666" points="433.06,-184 385.06,-184 385.06,-165 433.06,-165 433.06,-184"/>
<text text-anchor="middle" x="409.06" y="-172" font-family="Inter" font-size="10.00">mdvi.h</text>
</a>
</g>
</g>
<!-- Node1&#45;&gt;Node9 -->
<g id="edge9_Node000001_Node000009" class="edge">
<title>Node1&#45;&gt;Node9</title>
<g id="a_edge9_Node000001_Node000009"><a xlink:title=" ">
<path fill="none" stroke="#63b8ff" d="M579.83,-221.68C545,-212.26 482.07,-195.24 443.1,-184.7"/>
<polygon fill="#63b8ff" stroke="#63b8ff" points="443.83,-181.28 433.26,-182.04 442,-188.03 443.83,-181.28"/>
</a>
</g>
</g>
<!-- Node16 -->
<g id="Node000016" class="node">
<title>Node16</title>
<g id="a_Node000016"><a xlink:href="atril_2backend_2dvi_2mdvi-lib_2private_8h.html" target="_top" xlink:title=" ">
<polygon fill="white" stroke="#666666" points="1193.56,-184 1134.56,-184 1134.56,-165 1193.56,-165 1193.56,-184"/>
<text text-anchor="middle" x="1164.06" y="-172" font-family="Inter" font-size="10.00">private.h</text>
</a>
</g>
</g>
<!-- Node1&#45;&gt;Node16 -->
<g id="edge23_Node000001_Node000016" class="edge">
<title>Node1&#45;&gt;Node16</title>
<g id="a_edge23_Node000001_Node000016"><a xlink:title=" ">
<path fill="none" stroke="#63b8ff" d="M630.16,-226.12C718.57,-217.74 1015.96,-189.54 1124.22,-179.28"/>
<polygon fill="#63b8ff" stroke="#63b8ff" points="1124.76,-182.74 1134.39,-178.31 1124.1,-175.77 1124.76,-182.74"/>
</a>
</g>
</g>
<!-- Node5 -->
<g id="Node000005" class="node">
<title>Node5</title>
<g id="a_Node000005"><a xlink:title=" ">
<polygon fill="#e0e0e0" stroke="#999999" points="531.06,-74 483.06,-74 483.06,-55 531.06,-55 531.06,-74"/>
<text text-anchor="middle" x="507.06" y="-62" font-family="Inter" font-size="10.00">stdio.h</text>
</a>
</g>
</g>
<!-- Node4&#45;&gt;Node5 -->
<g id="edge4_Node000004_Node000005" class="edge">
<title>Node4&#45;&gt;Node5</title>
<g id="a_edge4_Node000004_Node000005"><a xlink:title=" ">
<path fill="none" stroke="#63b8ff" d="M589.31,-109.98C573.83,-101.61 549.96,-88.7 531.92,-78.95"/>
<polygon fill="#63b8ff" stroke="#63b8ff" points="533.55,-75.85 523.09,-74.17 530.22,-82.01 533.55,-75.85"/>
</a>
</g>
</g>
<!-- Node6 -->
<g id="Node000006" class="node">
<title>Node6</title>
<g id="a_Node000006"><a xlink:title=" ">
<polygon fill="#e0e0e0" stroke="#999999" points="619.56,-74 550.56,-74 550.56,-55 619.56,-55 619.56,-74"/>
<text text-anchor="middle" x="585.06" y="-62" font-family="Inter" font-size="10.00">sys/types.h</text>
</a>
</g>
</g>
<!-- Node4&#45;&gt;Node6 -->
<g id="edge5_Node000004_Node000006" class="edge">
<title>Node4&#45;&gt;Node6</title>
<g id="a_edge5_Node000004_Node000006"><a xlink:title=" ">
<path fill="none" stroke="#63b8ff" d="M601.75,-109.75C599.07,-102.65 595.21,-92.4 591.87,-83.56"/>
<polygon fill="#63b8ff" stroke="#63b8ff" points="595.1,-82.21 588.3,-74.09 588.55,-84.68 595.1,-82.21"/>
</a>
</g>
</g>
<!-- Node7 -->
<g id="Node000007" class="node">
<title>Node7</title>
<g id="a_Node000007"><a xlink:title=" ">
<polygon fill="#e0e0e0" stroke="#999999" points="689.06,-74 639.06,-74 639.06,-55 689.06,-55 689.06,-74"/>
<text text-anchor="middle" x="664.06" y="-62" font-family="Inter" font-size="10.00">math.h</text>
</a>
</g>
</g>
<!-- Node4&#45;&gt;Node7 -->
<g id="edge6_Node000004_Node000007" class="edge">
<title>Node4&#45;&gt;Node7</title>
<g id="a_edge6_Node000004_Node000007"><a xlink:title=" ">
<path fill="none" stroke="#63b8ff" d="M614.54,-109.98C623.26,-102.15 636.4,-90.34 646.95,-80.86"/>
<polygon fill="#63b8ff" stroke="#63b8ff" points="649.3,-83.46 654.4,-74.17 644.63,-78.25 649.3,-83.46"/>
</a>
</g>
</g>
<!-- Node8 -->
<g id="Node000008" class="node">
<title>Node8</title>
<g id="a_Node000008"><a xlink:href="sysdeps_8h.html" target="_top" xlink:title=" ">
<polygon fill="white" stroke="#666666" points="465.06,-74 403.06,-74 403.06,-55 465.06,-55 465.06,-74"/>
<text text-anchor="middle" x="434.06" y="-62" font-family="Inter" font-size="10.00">sysdeps.h</text>
</a>
</g>
</g>
<!-- Node4&#45;&gt;Node8 -->
<g id="edge7_Node000004_Node000008" class="edge">
<title>Node4&#45;&gt;Node8</title>
<g id="a_edge7_Node000004_Node000008"><a xlink:title=" ">
<path fill="none" stroke="#63b8ff" d="M577.58,-109.98C548.87,-101.09 503.64,-87.07 471.63,-77.15"/>
<polygon fill="#63b8ff" stroke="#63b8ff" points="472.33,-73.7 461.75,-74.08 470.26,-80.39 472.33,-73.7"/>
</a>
</g>
</g>
<!-- Node8&#45;&gt;Node2 -->
<g id="edge8_Node000008_Node000002" class="edge">
<title>Node8&#45;&gt;Node2</title>
<g id="a_edge8_Node000008_Node000002"><a xlink:title=" ">
<path fill="none" stroke="#63b8ff" d="M434.06,-54.75C434.06,-47.8 434.06,-37.85 434.06,-29.13"/>
<polygon fill="#63b8ff" stroke="#63b8ff" points="437.56,-29.09 434.06,-19.09 430.56,-29.09 437.56,-29.09"/>
</a>
</g>
</g>
<!-- Node9&#45;&gt;Node4 -->
<g id="edge17_Node000009_Node000004" class="edge">
<title>Node9&#45;&gt;Node4</title>
<g id="a_edge17_Node000009_Node000004"><a xlink:title=" ">
<path fill="none" stroke="#63b8ff" d="M433.09,-167C465.53,-158.23 523.83,-142.46 563.47,-131.75"/>
<polygon fill="#63b8ff" stroke="#63b8ff" points="564.62,-135.06 573.36,-129.07 562.79,-128.3 564.62,-135.06"/>
</a>
</g>
</g>
<!-- Node9&#45;&gt;Node5 -->
<g id="edge10_Node000009_Node000005" class="edge">
<title>Node9&#45;&gt;Node5</title>
<g id="a_edge10_Node000009_Node000005"><a xlink:title=" ">
<path fill="none" stroke="#63b8ff" d="M433.42,-165.14C450.68,-158.04 473.16,-146.23 487.06,-129 497.37,-116.21 502.4,-98.04 504.83,-84.41"/>
<polygon fill="#63b8ff" stroke="#63b8ff" points="508.33,-84.65 506.32,-74.25 501.41,-83.63 508.33,-84.65"/>
</a>
</g>
</g>
<!-- Node9&#45;&gt;Node6 -->
<g id="edge11_Node000009_Node000006" class="edge">
<title>Node9&#45;&gt;Node6</title>
<g id="a_edge11_Node000009_Node000006"><a xlink:title=" ">
<path fill="none" stroke="#63b8ff" d="M432.08,-165C452.5,-157.01 482.76,-144.06 507.06,-129 529.85,-114.88 553.36,-94.85 568.53,-81.08"/>
<polygon fill="#63b8ff" stroke="#63b8ff" points="571.07,-83.51 576.04,-74.15 566.32,-78.36 571.07,-83.51"/>
</a>
</g>
</g>
<!-- Node9&#45;&gt;Node7 -->
<g id="edge12_Node000009_Node000007" class="edge">
<title>Node9&#45;&gt;Node7</title>
<g id="a_edge12_Node000009_Node000007"><a xlink:title=" ">
<path fill="none" stroke="#63b8ff" d="M433.41,-172.17C487.66,-168.71 616.14,-157.63 647.06,-129 659.21,-117.74 663.05,-98.83 664.09,-84.57"/>
<polygon fill="#63b8ff" stroke="#63b8ff" points="667.6,-84.47 664.44,-74.36 660.6,-84.23 667.6,-84.47"/>
</a>
</g>
</g>
<!-- Node9&#45;&gt;Node8 -->
<g id="edge13_Node000009_Node000008" class="edge">
<title>Node9&#45;&gt;Node8</title>
<g id="a_edge13_Node000009_Node000008"><a xlink:title=" ">
<path fill="none" stroke="#63b8ff" d="M384.85,-173.45C291.7,-172.83 -35.91,-166.67 15.06,-110 40.04,-82.22 291.93,-70.44 392.71,-66.81"/>
<polygon fill="#63b8ff" stroke="#63b8ff" points="392.95,-70.31 402.82,-66.46 392.7,-63.31 392.95,-70.31"/>
</a>
</g>
</g>
<!-- Node10 -->
<g id="Node000010" class="node">
<title>Node10</title>
<g id="a_Node000010"><a xlink:href="bitmap_8h.html" target="_top" xlink:title=" ">
<polygon fill="white" stroke="#666666" points="478.06,-129 420.06,-129 420.06,-110 478.06,-110 478.06,-129"/>
<text text-anchor="middle" x="449.06" y="-117" font-family="Inter" font-size="10.00">bitmap.h</text>
</a>
</g>
</g>
<!-- Node9&#45;&gt;Node10 -->
<g id="edge14_Node000009_Node000010" class="edge">
<title>Node9&#45;&gt;Node10</title>
<g id="a_edge14_Node000009_Node000010"><a xlink:title=" ">
<path fill="none" stroke="#63b8ff" d="M415.66,-164.75C421.31,-157.26 429.6,-146.28 436.51,-137.13"/>
<polygon fill="#63b8ff" stroke="#63b8ff" points="439.34,-139.18 442.57,-129.09 433.76,-134.96 439.34,-139.18"/>
</a>
</g>
</g>
<!-- Node11 -->
<g id="Node000011" class="node">
<title>Node11</title>
<g id="a_Node000011"><a xlink:href="defaults_8h.html" target="_top" xlink:title=" ">
<polygon fill="white" stroke="#666666" points="87.56,-129 24.56,-129 24.56,-110 87.56,-110 87.56,-129"/>
<text text-anchor="middle" x="56.06" y="-117" font-family="Inter" font-size="10.00">defaults.h</text>
</a>
</g>
</g>
<!-- Node9&#45;&gt;Node11 -->
<g id="edge18_Node000009_Node000011" class="edge">
<title>Node9&#45;&gt;Node11</title>
<g id="a_edge18_Node000009_Node000011"><a xlink:title=" ">
<path fill="none" stroke="#63b8ff" d="M384.7,-170.55C333.54,-164.26 210.98,-148.58 97.68,-129.01"/>
<polygon fill="#63b8ff" stroke="#63b8ff" points="98.26,-125.55 87.8,-127.29 97.05,-132.45 98.26,-125.55"/>
</a>
</g>
</g>
<!-- Node12 -->
<g id="Node000012" class="node">
<title>Node12</title>
<g id="a_Node000012"><a xlink:href="dviopcodes_8h.html" target="_top" xlink:title=" ">
<polygon fill="white" stroke="#666666" points="184.06,-129 106.06,-129 106.06,-110 184.06,-110 184.06,-129"/>
<text text-anchor="middle" x="145.06" y="-117" font-family="Inter" font-size="10.00">dviopcodes.h</text>
</a>
</g>
</g>
<!-- Node9&#45;&gt;Node12 -->
<g id="edge19_Node000009_Node000012" class="edge">
<title>Node9&#45;&gt;Node12</title>
<g id="a_edge19_Node000009_Node000012"><a xlink:title=" ">
<path fill="none" stroke="#63b8ff" d="M384.69,-168.61C341.55,-159.95 250.95,-141.76 194.34,-130.39"/>
<polygon fill="#63b8ff" stroke="#63b8ff" points="194.68,-126.89 184.19,-128.36 193.3,-133.76 194.68,-126.89"/>
</a>
</g>
</g>
<!-- Node13 -->
<g id="Node000013" class="node">
<title>Node13</title>
<g id="a_Node000013"><a xlink:href="hash_8h.html" target="_top" xlink:title=" ">
<polygon fill="white" stroke="#666666" points="249.56,-129 202.56,-129 202.56,-110 249.56,-110 249.56,-129"/>
<text text-anchor="middle" x="226.06" y="-117" font-family="Inter" font-size="10.00">hash.h</text>
</a>
</g>
</g>
<!-- Node9&#45;&gt;Node13 -->
<g id="edge20_Node000009_Node000013" class="edge">
<title>Node9&#45;&gt;Node13</title>
<g id="a_edge20_Node000009_Node000013"><a xlink:title=" ">
<path fill="none" stroke="#63b8ff" d="M384.76,-166.46C352.5,-157.12 295.4,-140.58 259.2,-130.1"/>
<polygon fill="#63b8ff" stroke="#63b8ff" points="260.17,-126.74 249.59,-127.32 258.22,-133.46 260.17,-126.74"/>
</a>
</g>
</g>
<!-- Node14 -->
<g id="Node000014" class="node">
<title>Node14</title>
<g id="a_Node000014"><a xlink:href="paper_8h.html" target="_top" xlink:title=" ">
<polygon fill="white" stroke="#666666" points="318.56,-129 267.56,-129 267.56,-110 318.56,-110 318.56,-129"/>
<text text-anchor="middle" x="293.06" y="-117" font-family="Inter" font-size="10.00">paper.h</text>
</a>
</g>
</g>
<!-- Node9&#45;&gt;Node14 -->
<g id="edge21_Node000009_Node000014" class="edge">
<title>Node9&#45;&gt;Node14</title>
<g id="a_edge21_Node000009_Node000014"><a xlink:title=" ">
<path fill="none" stroke="#63b8ff" d="M390.42,-164.98C371.76,-156.46 342.8,-143.23 321.32,-133.41"/>
<polygon fill="#63b8ff" stroke="#63b8ff" points="322.58,-130.14 312.03,-129.17 319.67,-136.51 322.58,-130.14"/>
</a>
</g>
</g>
<!-- Node15 -->
<g id="Node000015" class="node">
<title>Node15</title>
<g id="a_Node000015"><a xlink:href="fontmap_8h.html" target="_top" xlink:title=" ">
<polygon fill="white" stroke="#666666" points="401.56,-129 336.56,-129 336.56,-110 401.56,-110 401.56,-129"/>
<text text-anchor="middle" x="369.06" y="-117" font-family="Inter" font-size="10.00">fontmap.h</text>
</a>
</g>
</g>
<!-- Node9&#45;&gt;Node15 -->
<g id="edge22_Node000009_Node000015" class="edge">
<title>Node9&#45;&gt;Node15</title>
<g id="a_edge22_Node000009_Node000015"><a xlink:title=" ">
<path fill="none" stroke="#63b8ff" d="M402.45,-164.75C396.8,-157.26 388.51,-146.28 381.61,-137.13"/>
<polygon fill="#63b8ff" stroke="#63b8ff" points="384.36,-134.96 375.54,-129.09 378.77,-139.18 384.36,-134.96"/>
</a>
</g>
</g>
<!-- Node10&#45;&gt;Node5 -->
<g id="edge16_Node000010_Node000005" class="edge">
<title>Node10&#45;&gt;Node5</title>
<g id="a_edge16_Node000010_Node000005"><a xlink:title=" ">
<path fill="none" stroke="#63b8ff" d="M458.38,-109.98C466.87,-102.23 479.62,-90.58 489.94,-81.14"/>
<polygon fill="#63b8ff" stroke="#63b8ff" points="492.55,-83.5 497.57,-74.17 487.83,-78.33 492.55,-83.5"/>
</a>
</g>
</g>
<!-- Node10&#45;&gt;Node8 -->
<g id="edge15_Node000010_Node000008" class="edge">
<title>Node10&#45;&gt;Node8</title>
<g id="a_edge15_Node000010_Node000008"><a xlink:title=" ">
<path fill="none" stroke="#63b8ff" d="M446.58,-109.75C444.59,-102.72 441.73,-92.62 439.25,-83.84"/>
<polygon fill="#63b8ff" stroke="#63b8ff" points="442.58,-82.76 436.49,-74.09 435.84,-84.66 442.58,-82.76"/>
</a>
</g>
</g>
<!-- Node16&#45;&gt;Node2 -->
<g id="edge24_Node000016_Node000002" class="edge">
<title>Node16&#45;&gt;Node2</title>
<g id="a_edge24_Node000016_Node000002"><a xlink:title=" ">
<path fill="none" stroke="#63b8ff" d="M1170.41,-164.99C1179.54,-151.66 1193.84,-125.74 1180.06,-110 1132.72,-55.93 615.83,-21.31 471.37,-12.64"/>
<polygon fill="#63b8ff" stroke="#63b8ff" points="471.42,-9.14 461.23,-12.04 471.01,-16.13 471.42,-9.14"/>
</a>
</g>
</g>
<!-- Node17 -->
<g id="Node000017" class="node">
<title>Node17</title>
<g id="a_Node000017"><a xlink:title=" ">
<polygon fill="#e0e0e0" stroke="#999999" points="1313.06,-129 1227.06,-129 1227.06,-110 1313.06,-110 1313.06,-129"/>
<text text-anchor="middle" x="1270.06" y="-117" font-family="Inter" font-size="10.00">glib/gi18n&#45;lib.h</text>
</a>
</g>
</g>
<!-- Node16&#45;&gt;Node17 -->
<g id="edge25_Node000016_Node000017" class="edge">
<title>Node16&#45;&gt;Node17</title>
<g id="a_edge25_Node000016_Node000017"><a xlink:title=" ">
<path fill="none" stroke="#63b8ff" d="M1181.09,-164.98C1197.99,-156.54 1224.12,-143.47 1243.7,-133.68"/>
<polygon fill="#63b8ff" stroke="#63b8ff" points="1245.34,-136.77 1252.72,-129.17 1242.21,-130.51 1245.34,-136.77"/>
</a>
</g>
</g>
<!-- Node18 -->
<g id="Node000018" class="node">
<title>Node18</title>
<g id="a_Node000018"><a xlink:title=" ">
<polygon fill="#e0e0e0" stroke="#999999" points="1432.56,-129 1331.56,-129 1331.56,-110 1432.56,-110 1432.56,-129"/>
<text text-anchor="middle" x="1382.06" y="-117" font-family="Inter" font-size="10.00">kpathsea/debug.h</text>
</a>
</g>
</g>
<!-- Node16&#45;&gt;Node18 -->
<g id="edge26_Node000016_Node000018" class="edge">
<title>Node16&#45;&gt;Node18</title>
<g id="a_edge26_Node000016_Node000018"><a xlink:title=" ">
<path fill="none" stroke="#63b8ff" d="M1193.91,-166.24C1230.83,-157.27 1294.04,-141.9 1336.9,-131.48"/>
<polygon fill="#63b8ff" stroke="#63b8ff" points="1337.9,-134.84 1346.79,-129.07 1336.25,-128.03 1337.9,-134.84"/>
</a>
</g>
</g>
<!-- Node19 -->
<g id="Node000019" class="node">
<title>Node19</title>
<g id="a_Node000019"><a xlink:title=" ">
<polygon fill="#e0e0e0" stroke="#999999" points="1553.56,-129 1450.56,-129 1450.56,-110 1553.56,-110 1553.56,-129"/>
<text text-anchor="middle" x="1502.06" y="-117" font-family="Inter" font-size="10.00">kpathsea/tex&#45;file.h</text>
</a>
</g>
</g>
<!-- Node16&#45;&gt;Node19 -->
<g id="edge27_Node000016_Node000019" class="edge">
<title>Node16&#45;&gt;Node19</title>
<g id="a_edge27_Node000016_Node000019"><a xlink:title=" ">
<path fill="none" stroke="#63b8ff" d="M1193.83,-166.8C1196.94,-166.16 1200.06,-165.55 1203.06,-165 1225.86,-160.82 1359.62,-141.21 1440.31,-129.46"/>
<polygon fill="#63b8ff" stroke="#63b8ff" points="1440.97,-132.9 1450.36,-128 1439.96,-125.98 1440.97,-132.9"/>
</a>
</g>
</g>
<!-- Node20 -->
<g id="Node000020" class="node">
<title>Node20</title>
<g id="a_Node000020"><a xlink:title=" ">
<polygon fill="#e0e0e0" stroke="#999999" points="1686.06,-129 1572.06,-129 1572.06,-110 1686.06,-110 1686.06,-129"/>
<text text-anchor="middle" x="1629.06" y="-117" font-family="Inter" font-size="10.00">kpathsea/tex&#45;glyph.h</text>
</a>
</g>
</g>
<!-- Node16&#45;&gt;Node20 -->
<g id="edge28_Node000016_Node000020" class="edge">
<title>Node16&#45;&gt;Node20</title>
<g id="a_edge28_Node000016_Node000020"><a xlink:title=" ">
<path fill="none" stroke="#63b8ff" d="M1193.8,-166.65C1196.92,-166.04 1200.05,-165.48 1203.06,-165 1358.62,-140.35 1401.55,-146.98 1561.62,-129.13"/>
<polygon fill="#63b8ff" stroke="#63b8ff" points="1562.29,-132.57 1571.83,-127.97 1561.5,-125.62 1562.29,-132.57"/>
</a>
</g>
</g>
<!-- Node21 -->
<g id="Node000021" class="node">
<title>Node21</title>
<g id="a_Node000021"><a xlink:title=" ">
<polygon fill="#e0e0e0" stroke="#999999" points="1789.56,-129 1704.56,-129 1704.56,-110 1789.56,-110 1789.56,-129"/>
<text text-anchor="middle" x="1747.06" y="-117" font-family="Inter" font-size="10.00">kpathsea/cnf.h</text>
</a>
</g>
</g>
<!-- Node16&#45;&gt;Node21 -->
<g id="edge29_Node000016_Node000021" class="edge">
<title>Node16&#45;&gt;Node21</title>
<g id="a_edge29_Node000016_Node000021"><a xlink:title=" ">
<path fill="none" stroke="#63b8ff" d="M1193.79,-166.57C1196.91,-165.97 1200.04,-165.44 1203.06,-165 1416.76,-134.05 1475.55,-154.08 1694.33,-128.96"/>
<polygon fill="#63b8ff" stroke="#63b8ff" points="1695.01,-132.4 1704.53,-127.77 1694.19,-125.45 1695.01,-132.4"/>
</a>
</g>
</g>
<!-- Node22 -->
<g id="Node000022" class="node">
<title>Node22</title>
<g id="a_Node000022"><a xlink:title=" ">
<polygon fill="#e0e0e0" stroke="#999999" points="801.56,-129 694.56,-129 694.56,-110 801.56,-110 801.56,-129"/>
<text text-anchor="middle" x="748.06" y="-117" font-family="Inter" font-size="10.00">kpathsea/proginit.h</text>
</a>
</g>
</g>
<!-- Node16&#45;&gt;Node22 -->
<g id="edge30_Node000016_Node000022" class="edge">
<title>Node16&#45;&gt;Node22</title>
<g id="a_edge30_Node000016_Node000022"><a xlink:title=" ">
<path fill="none" stroke="#63b8ff" d="M1134.21,-169.86C1074.86,-162.61 937.61,-145.7 812,-129.24"/>
<polygon fill="#63b8ff" stroke="#63b8ff" points="812.19,-125.74 801.82,-127.91 811.28,-132.68 812.19,-125.74"/>
</a>
</g>
</g>
<!-- Node23 -->
<g id="Node000023" class="node">
<title>Node23</title>
<g id="a_Node000023"><a xlink:title=" ">
<polygon fill="#e0e0e0" stroke="#999999" points="938.56,-129 819.56,-129 819.56,-110 938.56,-110 938.56,-129"/>
<text text-anchor="middle" x="879.06" y="-117" font-family="Inter" font-size="10.00">kpathsea/progname.h</text>
</a>
</g>
</g>
<!-- Node16&#45;&gt;Node23 -->
<g id="edge31_Node000016_Node000023" class="edge">
<title>Node16&#45;&gt;Node23</title>
<g id="a_edge31_Node000016_Node000023"><a xlink:title=" ">
<path fill="none" stroke="#63b8ff" d="M1134.36,-167.98C1087.26,-159.22 994.64,-141.99 934.86,-130.88"/>
<polygon fill="#63b8ff" stroke="#63b8ff" points="935.3,-127.4 924.83,-129.01 934.02,-134.28 935.3,-127.4"/>
</a>
</g>
</g>
<!-- Node24 -->
<g id="Node000024" class="node">
<title>Node24</title>
<g id="a_Node000024"><a xlink:title=" ">
<polygon fill="#e0e0e0" stroke="#999999" points="1071.06,-129 957.06,-129 957.06,-110 1071.06,-110 1071.06,-129"/>
<text text-anchor="middle" x="1014.06" y="-117" font-family="Inter" font-size="10.00">kpathsea/tex&#45;make.h</text>
</a>
</g>
</g>
<!-- Node16&#45;&gt;Node24 -->
<g id="edge32_Node000016_Node000024" class="edge">
<title>Node16&#45;&gt;Node24</title>
<g id="a_edge32_Node000016_Node000024"><a xlink:title=" ">
<path fill="none" stroke="#63b8ff" d="M1139.96,-164.98C1115.17,-156.23 1076.35,-142.51 1048.37,-132.62"/>
<polygon fill="#63b8ff" stroke="#63b8ff" points="1049.19,-129.2 1038.6,-129.17 1046.86,-135.8 1049.19,-129.2"/>
</a>
</g>
</g>
<!-- Node25 -->
<g id="Node000025" class="node">
<title>Node25</title>
<g id="a_Node000025"><a xlink:title=" ">
<polygon fill="#e0e0e0" stroke="#999999" points="1171.06,-129 1089.06,-129 1089.06,-110 1171.06,-110 1171.06,-129"/>
<text text-anchor="middle" x="1130.06" y="-117" font-family="Inter" font-size="10.00">kpathsea/lib.h</text>
</a>
</g>
</g>
<!-- Node16&#45;&gt;Node25 -->
<g id="edge33_Node000016_Node000025" class="edge">
<title>Node16&#45;&gt;Node25</title>
<g id="a_edge33_Node000016_Node000025"><a xlink:title=" ">
<path fill="none" stroke="#63b8ff" d="M1158.44,-164.75C1153.74,-157.42 1146.88,-146.73 1141.09,-137.7"/>
<polygon fill="#63b8ff" stroke="#63b8ff" points="1143.91,-135.62 1135.57,-129.09 1138.02,-139.4 1143.91,-135.62"/>
</a>
</g>
</g>
</g>
</svg>
