<?xml version="1.0" encoding="UTF-8" standalone="no"?>
<!DOCTYPE svg PUBLIC "-//W3C//DTD SVG 1.1//EN"
 "http://www.w3.org/Graphics/SVG/1.1/DTD/svg11.dtd">
<!-- Generated by graphviz version 2.43.0 (0)
 -->
<!-- Title: parserfunc.h Pages: 1 -->
<svg width="217pt" height="82pt"
 viewBox="0.00 0.00 217.00 82.00" xmlns="http://www.w3.org/2000/svg" xmlns:xlink="http://www.w3.org/1999/xlink">
<g id="graph0" class="graph" transform="scale(1 1) rotate(0) translate(4 78)">
<title>parserfunc.h</title>
<!-- Node1 -->
<g id="Node000001" class="node">
<title>Node1</title>
<g id="a_Node000001"><a xlink:title=" ">
<polygon fill="#999999" stroke="#666666" points="128,-74 51,-74 51,-55 128,-55 128,-74"/>
<text text-anchor="middle" x="89.5" y="-62" font-family="Inter" font-size="10.00">parserfunc.h</text>
</a>
</g>
</g>
<!-- Node2 -->
<g id="Node000002" class="node">
<title>Node2</title>
<g id="a_Node000002"><a xlink:href="lexer_8c.html" target="_top" xlink:title=" ">
<polygon fill="white" stroke="#666666" points="45,-19 0,-19 0,0 45,0 45,-19"/>
<text text-anchor="middle" x="22.5" y="-7" font-family="Inter" font-size="10.00">lexer.c</text>
</a>
</g>
</g>
<!-- Node1&#45;&gt;Node2 -->
<g id="edge1_Node000001_Node000002" class="edge">
<title>Node1&#45;&gt;Node2</title>
<g id="a_edge1_Node000001_Node000002"><a xlink:title=" ">
<path fill="none" stroke="#63b8ff" d="M70.67,-48.6C58.66,-39.11 43.53,-27.13 33.46,-19.17"/>
<polygon fill="#63b8ff" stroke="#63b8ff" points="68.72,-51.53 78.74,-54.98 73.06,-46.04 68.72,-51.53"/>
</a>
</g>
</g>
<!-- Node3 -->
<g id="Node000003" class="node">
<title>Node3</title>
<g id="a_Node000003"><a xlink:href="mate-calc_2src_2parser_8c.html" target="_top" xlink:title=" ">
<polygon fill="white" stroke="#666666" points="116,-19 63,-19 63,0 116,0 116,-19"/>
<text text-anchor="middle" x="89.5" y="-7" font-family="Inter" font-size="10.00">parser.c</text>
</a>
</g>
</g>
<!-- Node1&#45;&gt;Node3 -->
<g id="edge2_Node000001_Node000003" class="edge">
<title>Node1&#45;&gt;Node3</title>
<g id="a_edge2_Node000001_Node000003"><a xlink:title=" ">
<path fill="none" stroke="#63b8ff" d="M89.5,-44.66C89.5,-35.93 89.5,-25.99 89.5,-19.09"/>
<polygon fill="#63b8ff" stroke="#63b8ff" points="86,-44.75 89.5,-54.75 93,-44.75 86,-44.75"/>
</a>
</g>
</g>
<!-- Node4 -->
<g id="Node000004" class="node">
<title>Node4</title>
<g id="a_Node000004"><a xlink:href="parserfunc_8c.html" target="_top" xlink:title=" ">
<polygon fill="white" stroke="#666666" points="209,-19 134,-19 134,0 209,0 209,-19"/>
<text text-anchor="middle" x="171.5" y="-7" font-family="Inter" font-size="10.00">parserfunc.c</text>
</a>
</g>
</g>
<!-- Node1&#45;&gt;Node4 -->
<g id="edge3_Node000001_Node000004" class="edge">
<title>Node1&#45;&gt;Node4</title>
<g id="a_edge3_Node000001_Node000004"><a xlink:title=" ">
<path fill="none" stroke="#63b8ff" d="M111.28,-49.42C126.16,-39.81 145.41,-27.37 158.09,-19.17"/>
<polygon fill="#63b8ff" stroke="#63b8ff" points="109.17,-46.62 102.67,-54.98 112.97,-52.5 109.17,-46.62"/>
</a>
</g>
</g>
</g>
</svg>
