<?xml version="1.0" encoding="UTF-8" standalone="no"?>
<!DOCTYPE svg PUBLIC "-//W3C//DTD SVG 1.1//EN"
 "http://www.w3.org/Graphics/SVG/1.1/DTD/svg11.dtd">
<!-- Generated by graphviz version 2.43.0 (0)
 -->
<!-- Title: pluma&#45;commands&#45;edit.c Pages: 1 -->
<svg width="519pt" height="203pt"
 viewBox="0.00 0.00 519.15 203.00" xmlns="http://www.w3.org/2000/svg" xmlns:xlink="http://www.w3.org/1999/xlink">
<g id="graph0" class="graph" transform="scale(1 1) rotate(0) translate(4 199)">
<title>pluma&#45;commands&#45;edit.c</title>
<!-- Node1 -->
<g id="Node000001" class="node">
<title>Node1</title>
<g id="a_Node000001"><a xlink:title=" ">
<polygon fill="#999999" stroke="#666666" points="266.65,-195 139.65,-195 139.65,-176 266.65,-176 266.65,-195"/>
<text text-anchor="middle" x="203.15" y="-183" font-family="Inter" font-size="10.00">pluma&#45;commands&#45;edit.c</text>
</a>
</g>
</g>
<!-- Node2 -->
<g id="Node000002" class="node">
<title>Node2</title>
<g id="a_Node000002"><a xlink:title=" ">
<polygon fill="#e0e0e0" stroke="#999999" points="141.65,-19 82.65,-19 82.65,0 141.65,0 141.65,-19"/>
<text text-anchor="middle" x="112.15" y="-7" font-family="Inter" font-size="10.00">gtk/gtk.h</text>
</a>
</g>
</g>
<!-- Node1&#45;&gt;Node2 -->
<g id="edge1_Node000001_Node000002" class="edge">
<title>Node1&#45;&gt;Node2</title>
<g id="a_edge1_Node000001_Node000002"><a xlink:title=" ">
<path fill="none" stroke="#63b8ff" d="M139.22,-178.36C89.13,-172.06 25.3,-160.27 9.15,-140 -24.47,-97.79 46.72,-47.79 87,-24.17"/>
<polygon fill="#63b8ff" stroke="#63b8ff" points="88.85,-27.14 95.79,-19.14 85.37,-21.07 88.85,-27.14"/>
</a>
</g>
</g>
<!-- Node3 -->
<g id="Node000003" class="node">
<title>Node3</title>
<g id="a_Node000003"><a xlink:href="pluma-commands_8h.html" target="_top" xlink:title=" ">
<polygon fill="white" stroke="#666666" points="125.65,-134.5 18.65,-134.5 18.65,-115.5 125.65,-115.5 125.65,-134.5"/>
<text text-anchor="middle" x="72.15" y="-122.5" font-family="Inter" font-size="10.00">pluma&#45;commands.h</text>
</a>
</g>
</g>
<!-- Node1&#45;&gt;Node3 -->
<g id="edge2_Node000001_Node000003" class="edge">
<title>Node1&#45;&gt;Node3</title>
<g id="a_edge2_Node000001_Node000003"><a xlink:title=" ">
<path fill="none" stroke="#63b8ff" d="M184.11,-175.99C162.18,-166.2 125.95,-150.02 100.66,-138.73"/>
<polygon fill="#63b8ff" stroke="#63b8ff" points="101.78,-135.4 91.23,-134.52 98.93,-141.79 101.78,-135.4"/>
</a>
</g>
</g>
<!-- Node4 -->
<g id="Node000004" class="node">
<title>Node4</title>
<g id="a_Node000004"><a xlink:href="pluma-window_8h.html" target="_top" xlink:title=" ">
<polygon fill="#fff0f0" stroke="red" points="220.65,-74 95.65,-74 95.65,-55 220.65,-55 220.65,-74"/>
<text text-anchor="middle" x="158.15" y="-62" font-family="Inter" font-size="10.00">pluma/pluma&#45;window.h</text>
</a>
</g>
</g>
<!-- Node1&#45;&gt;Node4 -->
<g id="edge6_Node000001_Node000004" class="edge">
<title>Node1&#45;&gt;Node4</title>
<g id="a_edge6_Node000001_Node000004"><a xlink:title=" ">
<path fill="none" stroke="#63b8ff" d="M195.83,-175.9C188.93,-167.35 178.83,-153.58 173.15,-140 165.61,-121.96 161.78,-99.83 159.88,-84.4"/>
<polygon fill="#63b8ff" stroke="#63b8ff" points="163.32,-83.66 158.78,-74.09 156.36,-84.4 163.32,-83.66"/>
</a>
</g>
</g>
<!-- Node18 -->
<g id="Node000018" class="node">
<title>Node18</title>
<g id="a_Node000018"><a xlink:href="pluma-debug_8h.html" target="_top" xlink:title=" ">
<polygon fill="white" stroke="#666666" points="427.65,-134.5 340.65,-134.5 340.65,-115.5 427.65,-115.5 427.65,-134.5"/>
<text text-anchor="middle" x="384.15" y="-122.5" font-family="Inter" font-size="10.00">pluma&#45;debug.h</text>
</a>
</g>
</g>
<!-- Node1&#45;&gt;Node18 -->
<g id="edge7_Node000001_Node000018" class="edge">
<title>Node1&#45;&gt;Node18</title>
<g id="a_edge7_Node000001_Node000018"><a xlink:title=" ">
<path fill="none" stroke="#63b8ff" d="M229.47,-175.99C260.71,-165.9 312.95,-149.01 347.97,-137.69"/>
<polygon fill="#63b8ff" stroke="#63b8ff" points="349.36,-140.92 357.8,-134.52 347.21,-134.26 349.36,-140.92"/>
</a>
</g>
</g>
<!-- Node7 -->
<g id="Node000007" class="node">
<title>Node7</title>
<g id="a_Node000007"><a xlink:href="pluma-view_8h.html" target="_top" xlink:title=" ">
<polygon fill="#fff0f0" stroke="red" points="511.15,-74 401.15,-74 401.15,-55 511.15,-55 511.15,-74"/>
<text text-anchor="middle" x="456.15" y="-62" font-family="Inter" font-size="10.00">pluma/pluma&#45;view.h</text>
</a>
</g>
</g>
<!-- Node1&#45;&gt;Node7 -->
<g id="edge9_Node000001_Node000007" class="edge">
<title>Node1&#45;&gt;Node7</title>
<g id="a_edge9_Node000001_Node000007"><a xlink:title=" ">
<path fill="none" stroke="#63b8ff" d="M266.69,-179.88C327.04,-174.2 412.02,-162.42 436.15,-140 451.38,-125.85 455.5,-101.48 456.38,-84.48"/>
<polygon fill="#63b8ff" stroke="#63b8ff" points="459.88,-84.16 456.56,-74.1 452.88,-84.04 459.88,-84.16"/>
</a>
</g>
</g>
<!-- Node19 -->
<g id="Node000019" class="node">
<title>Node19</title>
<g id="a_Node000019"><a xlink:href="pluma-preferences-dialog_8h.html" target="_top" xlink:title=" ">
<polygon fill="white" stroke="#666666" points="322.15,-140 182.15,-140 182.15,-110 322.15,-110 322.15,-140"/>
<text text-anchor="start" x="190.15" y="-128" font-family="Inter" font-size="10.00">dialogs/pluma&#45;preferences</text>
<text text-anchor="middle" x="252.15" y="-117" font-family="Inter" font-size="10.00">&#45;dialog.h</text>
</a>
</g>
</g>
<!-- Node1&#45;&gt;Node19 -->
<g id="edge11_Node000001_Node000019" class="edge">
<title>Node1&#45;&gt;Node19</title>
<g id="a_edge11_Node000001_Node000019"><a xlink:title=" ">
<path fill="none" stroke="#63b8ff" d="M210.38,-175.87C216.54,-168.52 225.66,-157.63 233.8,-147.91"/>
<polygon fill="#63b8ff" stroke="#63b8ff" points="236.59,-150.03 240.33,-140.11 231.23,-145.53 236.59,-150.03"/>
</a>
</g>
</g>
<!-- Node3&#45;&gt;Node2 -->
<g id="edge3_Node000003_Node000002" class="edge">
<title>Node3&#45;&gt;Node2</title>
<g id="a_edge3_Node000003_Node000002"><a xlink:title=" ">
<path fill="none" stroke="#63b8ff" d="M73,-115.25C74.49,-101.89 78.22,-75.78 86.15,-55 89.78,-45.51 95.3,-35.68 100.33,-27.68"/>
<polygon fill="#63b8ff" stroke="#63b8ff" points="103.29,-29.54 105.86,-19.26 97.44,-25.7 103.29,-29.54"/>
</a>
</g>
</g>
<!-- Node3&#45;&gt;Node4 -->
<g id="edge4_Node000003_Node000004" class="edge">
<title>Node3&#45;&gt;Node4</title>
<g id="a_edge4_Node000003_Node000004"><a xlink:title=" ">
<path fill="none" stroke="#63b8ff" d="M84.84,-115.37C98.56,-106.04 120.66,-91.01 137.01,-79.88"/>
<polygon fill="#63b8ff" stroke="#63b8ff" points="139.11,-82.69 145.41,-74.17 135.18,-76.9 139.11,-82.69"/>
</a>
</g>
</g>
<!-- Node4&#45;&gt;Node2 -->
<g id="edge5_Node000004_Node000002" class="edge">
<title>Node4&#45;&gt;Node2</title>
<g id="a_edge5_Node000004_Node000002"><a xlink:title=" ">
<path fill="none" stroke="#63b8ff" d="M150.56,-54.75C143.99,-47.18 134.33,-36.05 126.34,-26.84"/>
<polygon fill="#63b8ff" stroke="#63b8ff" points="128.81,-24.35 119.61,-19.09 123.52,-28.94 128.81,-24.35"/>
</a>
</g>
</g>
<!-- Node11 -->
<g id="Node000011" class="node">
<title>Node11</title>
<g id="a_Node000011"><a xlink:title=" ">
<polygon fill="#e0e0e0" stroke="#999999" points="383.15,-74 341.15,-74 341.15,-55 383.15,-55 383.15,-74"/>
<text text-anchor="middle" x="362.15" y="-62" font-family="Inter" font-size="10.00">glib.h</text>
</a>
</g>
</g>
<!-- Node18&#45;&gt;Node11 -->
<g id="edge8_Node000018_Node000011" class="edge">
<title>Node18&#45;&gt;Node11</title>
<g id="a_edge8_Node000018_Node000011"><a xlink:title=" ">
<path fill="none" stroke="#63b8ff" d="M380.91,-115.37C377.79,-107.07 372.98,-94.28 369.01,-83.72"/>
<polygon fill="#63b8ff" stroke="#63b8ff" points="372.21,-82.3 365.41,-74.17 365.66,-84.76 372.21,-82.3"/>
</a>
</g>
</g>
<!-- Node7&#45;&gt;Node2 -->
<g id="edge10_Node000007_Node000002" class="edge">
<title>Node7&#45;&gt;Node2</title>
<g id="a_edge10_Node000007_Node000002"><a xlink:title=" ">
<path fill="none" stroke="#63b8ff" d="M400.88,-54.98C331.22,-44.25 213.2,-26.07 151.85,-16.62"/>
<polygon fill="#63b8ff" stroke="#63b8ff" points="152.21,-13.13 141.79,-15.07 151.14,-20.05 152.21,-13.13"/>
</a>
</g>
</g>
<!-- Node19&#45;&gt;Node4 -->
<g id="edge12_Node000019_Node000004" class="edge">
<title>Node19&#45;&gt;Node4</title>
<g id="a_edge12_Node000019_Node000004"><a xlink:title=" ">
<path fill="none" stroke="#63b8ff" d="M229.4,-109.84C214.55,-100.6 195.26,-88.59 180.49,-79.4"/>
<polygon fill="#63b8ff" stroke="#63b8ff" points="182.3,-76.41 171.96,-74.09 178.6,-82.35 182.3,-76.41"/>
</a>
</g>
</g>
</g>
</svg>
