<?xml version="1.0" encoding="UTF-8" standalone="no"?>
<!DOCTYPE svg PUBLIC "-//W3C//DTD SVG 1.1//EN"
 "http://www.w3.org/Graphics/SVG/1.1/DTD/svg11.dtd">
<!-- Generated by graphviz version 2.43.0 (0)
 -->
<!-- Title: pluma&#45;document&#45;saver.c Pages: 1 -->
<!--zoomable 258 -->

<svg id="main" version="1.1" xmlns="http://www.w3.org/2000/svg" xmlns:xlink="http://www.w3.org/1999/xlink" xml:space="preserve" onload="init(evt)">

<style type="text/css"><![CDATA[
.node, .edge {opacity: 0.7;}
.node.selected, .edge.selected {opacity: 1;}
.edge:hover path { stroke: red; }
.edge:hover polygon { stroke: red; fill: red; }
]]></style>

<defs>
  <circle id="rim" cx="0" cy="0" r="7"/>
  <circle id="rim2" cx="0" cy="0" r="3.5"/>
  <g id="zoomPlus">
    <use xlink:href="#rim" fill="#404040"><set attributeName="fill" to="#808080" begin="zoomplus.mouseover" end="zoomplus.mouseout"/></use>
    <path d="M-4,0h8M0,-4v8" fill="none" stroke="white" stroke-width="1.5" pointer-events="none"/>
  </g>
  <g id="zoomMin">
    <use xlink:href="#rim" fill="#404040"><set attributeName="fill" to="#808080" begin="zoomminus.mouseover" end="zoomminus.mouseout"/></use>
    <path d="M-4,0h8" fill="none" stroke="white" stroke-width="1.5" pointer-events="none"/>
  </g>
  <g id="arrowUp" transform="translate(30 24)">
    <use xlink:href="#rim"/>
    <path pointer-events="none" fill="none" stroke="white" stroke-width="1.5" d="M0,-3.0v7 M-2.5,-0.5L0,-3.0L2.5,-0.5"/>
  </g>
  <g id="arrowRight" transform="rotate(90) translate(36 -43)">
    <use xlink:href="#rim"/>
    <path pointer-events="none" fill="none" stroke="white" stroke-width="1.5" d="M0,-3.0v7 M-2.5,-0.5L0,-3.0L2.5,-0.5"/>
  </g>
  <g id="arrowDown" transform="rotate(180) translate(-30 -48)">
    <use xlink:href="#rim"/>
    <path pointer-events="none" fill="none" stroke="white" stroke-width="1.5" d="M0,-3.0v7 M-2.5,-0.5L0,-3.0L2.5,-0.5"/>
  </g>
  <g id="arrowLeft" transform="rotate(270) translate(-36 17)">
    <use xlink:href="#rim"/>
    <path pointer-events="none" fill="none" stroke="white" stroke-width="1.5" d="M0,-3.0v7 M-2.5,-0.5L0,-3.0L2.5,-0.5"/>
  </g>
  <g id="resetDef">
    <use xlink:href="#rim2" fill="#404040"><set attributeName="fill" to="#808080" begin="reset.mouseover" end="reset.mouseout"/></use>
  </g>
</defs>
<script type="application/ecmascript">
var viewWidth = 963;
var viewHeight = 258;
var sectionId = 'dynsection-0';
</script>
<script type="application/ecmascript" xlink:href="svg.min.js"/>
<svg id="graph" class="graph">
<g id="viewport">
<title>pluma&#45;document&#45;saver.c</title>
<!-- Node1 -->
<g id="Node000001" class="node">
<title>Node1</title>
<g id="a_Node000001"><a xlink:title=" ">
<polygon fill="#999999" stroke="#666666" points="577.5,-250 448.5,-250 448.5,-231 577.5,-231 577.5,-250"/>
<text text-anchor="middle" x="513" y="-238" font-family="Inter" font-size="10.00">pluma&#45;document&#45;saver.c</text>
</a>
</g>
</g>
<!-- Node2 -->
<g id="Node000002" class="node">
<title>Node2</title>
<g id="a_Node000002"><a xlink:title=" ">
<polygon fill="#e0e0e0" stroke="#999999" points="72,-189.5 0,-189.5 0,-170.5 72,-170.5 72,-189.5"/>
<text text-anchor="middle" x="36" y="-177.5" font-family="Inter" font-size="10.00">glib/gi18n.h</text>
</a>
</g>
</g>
<!-- Node1&#45;&gt;Node2 -->
<g id="edge1_Node000001_Node000002" class="edge">
<title>Node1&#45;&gt;Node2</title>
<g id="a_edge1_Node000001_Node000002"><a xlink:title=" ">
<path fill="none" stroke="#63b8ff" d="M448.48,-236.18C364.44,-231.09 213.21,-219.26 86,-195 81.82,-194.2 77.47,-193.22 73.17,-192.15"/>
<polygon fill="#63b8ff" stroke="#63b8ff" points="73.87,-188.72 63.31,-189.55 72.08,-195.49 73.87,-188.72"/>
</a>
</g>
</g>
<!-- Node3 -->
<g id="Node000003" class="node">
<title>Node3</title>
<g id="a_Node000003"><a xlink:title=" ">
<polygon fill="#e0e0e0" stroke="#999999" points="214,-19 172,-19 172,0 214,0 214,-19"/>
<text text-anchor="middle" x="193" y="-7" font-family="Inter" font-size="10.00">glib.h</text>
</a>
</g>
</g>
<!-- Node1&#45;&gt;Node3 -->
<g id="edge2_Node000001_Node000003" class="edge">
<title>Node1&#45;&gt;Node3</title>
<g id="a_edge2_Node000001_Node000003"><a xlink:title=" ">
<path fill="none" stroke="#63b8ff" d="M448.26,-231.36C346.31,-217.01 156.11,-183.45 119,-129 94.13,-92.52 142.05,-48 171.81,-25.32"/>
<polygon fill="#63b8ff" stroke="#63b8ff" points="174.04,-28.03 180,-19.28 169.88,-22.4 174.04,-28.03"/>
</a>
</g>
</g>
<!-- Node4 -->
<g id="Node000004" class="node">
<title>Node4</title>
<g id="a_Node000004"><a xlink:title=" ">
<polygon fill="#e0e0e0" stroke="#999999" points="823,-74 765,-74 765,-55 823,-55 823,-74"/>
<text text-anchor="middle" x="794" y="-62" font-family="Inter" font-size="10.00">gio/gio.h</text>
</a>
</g>
</g>
<!-- Node1&#45;&gt;Node4 -->
<g id="edge3_Node000001_Node000004" class="edge">
<title>Node1&#45;&gt;Node4</title>
<g id="a_edge3_Node000001_Node000004"><a xlink:title=" ">
<path fill="none" stroke="#63b8ff" d="M577.6,-238.62C651.77,-236.07 766.73,-226.92 794,-195 820.68,-163.76 809.27,-111.13 800.56,-83.57"/>
<polygon fill="#63b8ff" stroke="#63b8ff" points="803.85,-82.38 797.32,-74.03 797.22,-84.62 803.85,-82.38"/>
</a>
</g>
</g>
<!-- Node5 -->
<g id="Node000005" class="node">
<title>Node5</title>
<g id="a_Node000005"><a xlink:title=" ">
<polygon fill="#e0e0e0" stroke="#999999" points="932.5,-189.5 879.5,-189.5 879.5,-170.5 932.5,-170.5 932.5,-189.5"/>
<text text-anchor="middle" x="906" y="-177.5" font-family="Inter" font-size="10.00">string.h</text>
</a>
</g>
</g>
<!-- Node1&#45;&gt;Node5 -->
<g id="edge4_Node000001_Node000005" class="edge">
<title>Node1&#45;&gt;Node5</title>
<g id="a_edge4_Node000001_Node000005"><a xlink:title=" ">
<path fill="none" stroke="#63b8ff" d="M577.6,-235.29C648.73,-229.74 766.13,-217.88 865,-195 867.98,-194.31 871.05,-193.49 874.11,-192.59"/>
<polygon fill="#63b8ff" stroke="#63b8ff" points="875.22,-195.91 883.68,-189.54 873.09,-189.24 875.22,-195.91"/>
</a>
</g>
</g>
<!-- Node6 -->
<g id="Node000006" class="node">
<title>Node6</title>
<g id="a_Node000006"><a xlink:href="pluma-document-saver_8h.html" target="_top" xlink:title=" ">
<polygon fill="white" stroke="#666666" points="644.5,-189.5 513.5,-189.5 513.5,-170.5 644.5,-170.5 644.5,-189.5"/>
<text text-anchor="middle" x="579" y="-177.5" font-family="Inter" font-size="10.00">pluma&#45;document&#45;saver.h</text>
</a>
</g>
</g>
<!-- Node1&#45;&gt;Node6 -->
<g id="edge5_Node000001_Node000006" class="edge">
<title>Node1&#45;&gt;Node6</title>
<g id="a_edge5_Node000001_Node000006"><a xlink:title=" ">
<path fill="none" stroke="#63b8ff" d="M522.74,-230.87C532.97,-221.8 549.29,-207.34 561.72,-196.32"/>
<polygon fill="#63b8ff" stroke="#63b8ff" points="564.06,-198.92 569.22,-189.67 559.42,-193.68 564.06,-198.92"/>
</a>
</g>
</g>
<!-- Node12 -->
<g id="Node000012" class="node">
<title>Node12</title>
<g id="a_Node000012"><a xlink:href="pluma-document-input-stream_8h.html" target="_top" xlink:title=" ">
<polygon fill="white" stroke="#666666" points="785,-195 663,-195 663,-165 785,-165 785,-195"/>
<text text-anchor="start" x="671" y="-183" font-family="Inter" font-size="10.00">pluma&#45;document&#45;input</text>
<text text-anchor="middle" x="724" y="-172" font-family="Inter" font-size="10.00">&#45;stream.h</text>
</a>
</g>
</g>
<!-- Node1&#45;&gt;Node12 -->
<g id="edge13_Node000001_Node000012" class="edge">
<title>Node1&#45;&gt;Node12</title>
<g id="a_edge13_Node000001_Node000012"><a xlink:title=" ">
<path fill="none" stroke="#63b8ff" d="M543.68,-230.99C574.98,-222.32 624.37,-208.62 663.55,-197.76"/>
<polygon fill="#63b8ff" stroke="#63b8ff" points="664.57,-201.11 673.27,-195.06 662.7,-194.36 664.57,-201.11"/>
</a>
</g>
</g>
<!-- Node13 -->
<g id="Node000013" class="node">
<title>Node13</title>
<g id="a_Node000013"><a xlink:href="pluma-debug_8h.html" target="_top" xlink:title=" ">
<polygon fill="white" stroke="#666666" points="215.5,-129 128.5,-129 128.5,-110 215.5,-110 215.5,-129"/>
<text text-anchor="middle" x="172" y="-117" font-family="Inter" font-size="10.00">pluma&#45;debug.h</text>
</a>
</g>
</g>
<!-- Node1&#45;&gt;Node13 -->
<g id="edge17_Node000001_Node000013" class="edge">
<title>Node1&#45;&gt;Node13</title>
<g id="a_edge17_Node000001_Node000013"><a xlink:title=" ">
<path fill="none" stroke="#63b8ff" d="M485.4,-230.96C457.47,-222.22 413.08,-208.12 375,-195 314.14,-174.03 243.74,-147.73 203.88,-132.64"/>
<polygon fill="#63b8ff" stroke="#63b8ff" points="205.02,-129.33 194.43,-129.06 202.54,-135.88 205.02,-129.33"/>
</a>
</g>
</g>
<!-- Node14 -->
<g id="Node000014" class="node">
<title>Node14</title>
<g id="a_Node000014"><a xlink:href="pluma-utils_8h.html" target="_top" xlink:title=" ">
<polygon fill="white" stroke="#666666" points="417,-129 341,-129 341,-110 417,-110 417,-129"/>
<text text-anchor="middle" x="379" y="-117" font-family="Inter" font-size="10.00">pluma&#45;utils.h</text>
</a>
</g>
</g>
<!-- Node1&#45;&gt;Node14 -->
<g id="edge19_Node000001_Node000014" class="edge">
<title>Node1&#45;&gt;Node14</title>
<g id="a_edge19_Node000001_Node000014"><a xlink:title=" ">
<path fill="none" stroke="#63b8ff" d="M454.91,-230.95C432.11,-224.68 407.71,-213.82 392,-195 379.15,-179.6 377,-156.06 377.37,-139.57"/>
<polygon fill="#63b8ff" stroke="#63b8ff" points="380.87,-139.64 377.92,-129.47 373.88,-139.26 380.87,-139.64"/>
</a>
</g>
</g>
<!-- Node16 -->
<g id="Node000016" class="node">
<title>Node16</title>
<g id="a_Node000016"><a xlink:href="pluma-enum-types_8h.html" target="_top" xlink:title=" ">
<polygon fill="white" stroke="#666666" points="954.5,-129 841.5,-129 841.5,-110 954.5,-110 954.5,-129"/>
<text text-anchor="middle" x="898" y="-117" font-family="Inter" font-size="10.00">pluma&#45;enum&#45;types.h</text>
</a>
</g>
</g>
<!-- Node1&#45;&gt;Node16 -->
<g id="edge25_Node000001_Node000016" class="edge">
<title>Node1&#45;&gt;Node16</title>
<g id="a_edge25_Node000001_Node000016"><a xlink:title=" ">
<path fill="none" stroke="#63b8ff" d="M577.6,-235.34C656.51,-229.41 784.71,-216.75 827,-195 852.74,-181.76 874.33,-155.44 886.72,-137.9"/>
<polygon fill="#63b8ff" stroke="#63b8ff" points="889.91,-139.44 892.63,-129.2 884.12,-135.51 889.91,-139.44"/>
</a>
</g>
</g>
<!-- Node17 -->
<g id="Node000017" class="node">
<title>Node17</title>
<g id="a_Node000017"><a xlink:href="pluma-settings_8h.html" target="_top" xlink:title=" ">
<polygon fill="white" stroke="#666666" points="495,-189.5 401,-189.5 401,-170.5 495,-170.5 495,-189.5"/>
<text text-anchor="middle" x="448" y="-177.5" font-family="Inter" font-size="10.00">pluma&#45;settings.h</text>
</a>
</g>
</g>
<!-- Node1&#45;&gt;Node17 -->
<g id="edge27_Node000001_Node000017" class="edge">
<title>Node1&#45;&gt;Node17</title>
<g id="a_edge27_Node000001_Node000017"><a xlink:title=" ">
<path fill="none" stroke="#63b8ff" d="M503.41,-230.87C493.42,-221.88 477.57,-207.61 465.37,-196.64"/>
<polygon fill="#63b8ff" stroke="#63b8ff" points="467.4,-193.76 457.63,-189.67 462.72,-198.96 467.4,-193.76"/>
</a>
</g>
</g>
<!-- Node7 -->
<g id="Node000007" class="node">
<title>Node7</title>
<g id="a_Node000007"><a xlink:href="pluma-document_8h.html" target="_top" xlink:title=" ">
<polygon fill="white" stroke="#666666" points="708.5,-129 571.5,-129 571.5,-110 708.5,-110 708.5,-129"/>
<text text-anchor="middle" x="640" y="-117" font-family="Inter" font-size="10.00">pluma/pluma&#45;document.h</text>
</a>
</g>
</g>
<!-- Node6&#45;&gt;Node7 -->
<g id="edge6_Node000006_Node000007" class="edge">
<title>Node6&#45;&gt;Node7</title>
<g id="a_edge6_Node000006_Node000007"><a xlink:title=" ">
<path fill="none" stroke="#63b8ff" d="M588,-170.37C597.37,-161.38 612.25,-147.11 623.7,-136.14"/>
<polygon fill="#63b8ff" stroke="#63b8ff" points="626.17,-138.62 630.96,-129.17 621.32,-133.56 626.17,-138.62"/>
</a>
</g>
</g>
<!-- Node7&#45;&gt;Node4 -->
<g id="edge7_Node000007_Node000004" class="edge">
<title>Node7&#45;&gt;Node4</title>
<g id="a_edge7_Node000007_Node000004"><a xlink:title=" ">
<path fill="none" stroke="#63b8ff" d="M664.74,-109.98C690.37,-101.16 730.63,-87.31 759.41,-77.41"/>
<polygon fill="#63b8ff" stroke="#63b8ff" points="760.75,-80.65 769.06,-74.08 758.47,-74.03 760.75,-80.65"/>
</a>
</g>
</g>
<!-- Node8 -->
<g id="Node000008" class="node">
<title>Node8</title>
<g id="a_Node000008"><a xlink:title=" ">
<polygon fill="#e0e0e0" stroke="#999999" points="746.5,-74 687.5,-74 687.5,-55 746.5,-55 746.5,-74"/>
<text text-anchor="middle" x="717" y="-62" font-family="Inter" font-size="10.00">gtk/gtk.h</text>
</a>
</g>
</g>
<!-- Node7&#45;&gt;Node8 -->
<g id="edge8_Node000007_Node000008" class="edge">
<title>Node7&#45;&gt;Node8</title>
<g id="a_edge8_Node000007_Node000008"><a xlink:title=" ">
<path fill="none" stroke="#63b8ff" d="M652.37,-109.98C664.09,-101.92 681.92,-89.65 695.89,-80.03"/>
<polygon fill="#63b8ff" stroke="#63b8ff" points="698.15,-82.72 704.4,-74.17 694.18,-76.96 698.15,-82.72"/>
</a>
</g>
</g>
<!-- Node9 -->
<g id="Node000009" class="node">
<title>Node9</title>
<g id="a_Node000009"><a xlink:title=" ">
<polygon fill="#e0e0e0" stroke="#999999" points="631,-74 491,-74 491,-55 631,-55 631,-74"/>
<text text-anchor="middle" x="561" y="-62" font-family="Inter" font-size="10.00">gtksourceview/gtksource.h</text>
</a>
</g>
</g>
<!-- Node7&#45;&gt;Node9 -->
<g id="edge9_Node000007_Node000009" class="edge">
<title>Node7&#45;&gt;Node9</title>
<g id="a_edge9_Node000007_Node000009"><a xlink:title=" ">
<path fill="none" stroke="#63b8ff" d="M627.31,-109.98C615.17,-101.84 596.64,-89.41 582.25,-79.76"/>
<polygon fill="#63b8ff" stroke="#63b8ff" points="584.18,-76.84 573.92,-74.17 580.28,-82.65 584.18,-76.84"/>
</a>
</g>
</g>
<!-- Node10 -->
<g id="Node000010" class="node">
<title>Node10</title>
<g id="a_Node000010"><a xlink:href="pluma-encodings_8h.html" target="_top" xlink:title=" ">
<polygon fill="white" stroke="#666666" points="472.5,-74 335.5,-74 335.5,-55 472.5,-55 472.5,-74"/>
<text text-anchor="middle" x="404" y="-62" font-family="Inter" font-size="10.00">pluma/pluma&#45;encodings.h</text>
</a>
</g>
</g>
<!-- Node7&#45;&gt;Node10 -->
<g id="edge10_Node000007_Node000010" class="edge">
<title>Node7&#45;&gt;Node10</title>
<g id="a_edge10_Node000007_Node000010"><a xlink:title=" ">
<path fill="none" stroke="#63b8ff" d="M602.08,-109.98C561.35,-100.84 496.5,-86.27 452.18,-76.32"/>
<polygon fill="#63b8ff" stroke="#63b8ff" points="452.74,-72.86 442.21,-74.08 451.2,-79.69 452.74,-72.86"/>
</a>
</g>
</g>
<!-- Node10&#45;&gt;Node3 -->
<g id="edge11_Node000010_Node000003" class="edge">
<title>Node10&#45;&gt;Node3</title>
<g id="a_edge11_Node000010_Node000003"><a xlink:title=" ">
<path fill="none" stroke="#63b8ff" d="M370.1,-54.98C329.78,-44.86 263.06,-28.1 224.04,-18.3"/>
<polygon fill="#63b8ff" stroke="#63b8ff" points="224.84,-14.89 214.28,-15.85 223.13,-21.68 224.84,-14.89"/>
</a>
</g>
</g>
<!-- Node11 -->
<g id="Node000011" class="node">
<title>Node11</title>
<g id="a_Node000011"><a xlink:title=" ">
<polygon fill="#e0e0e0" stroke="#999999" points="696,-19 622,-19 622,0 696,0 696,-19"/>
<text text-anchor="middle" x="659" y="-7" font-family="Inter" font-size="10.00">glib&#45;object.h</text>
</a>
</g>
</g>
<!-- Node10&#45;&gt;Node11 -->
<g id="edge12_Node000010_Node000011" class="edge">
<title>Node10&#45;&gt;Node11</title>
<g id="a_edge12_Node000010_Node000011"><a xlink:title=" ">
<path fill="none" stroke="#63b8ff" d="M444.97,-54.98C490.58,-45.51 564.16,-30.21 612.05,-20.26"/>
<polygon fill="#63b8ff" stroke="#63b8ff" points="612.78,-23.68 621.86,-18.22 611.36,-16.83 612.78,-23.68"/>
</a>
</g>
</g>
<!-- Node12&#45;&gt;Node4 -->
<g id="edge14_Node000012_Node000004" class="edge">
<title>Node12&#45;&gt;Node4</title>
<g id="a_edge14_Node000012_Node000004"><a xlink:title=" ">
<path fill="none" stroke="#63b8ff" d="M732.87,-164.63C745.68,-143.84 769.37,-105.44 783.19,-83.02"/>
<polygon fill="#63b8ff" stroke="#63b8ff" points="786.35,-84.58 788.62,-74.23 780.39,-80.9 786.35,-84.58"/>
</a>
</g>
</g>
<!-- Node12&#45;&gt;Node7 -->
<g id="edge16_Node000012_Node000007" class="edge">
<title>Node12&#45;&gt;Node7</title>
<g id="a_edge16_Node000012_Node000007"><a xlink:title=" ">
<path fill="none" stroke="#63b8ff" d="M703.67,-164.84C690.73,-155.83 674.01,-144.18 660.95,-135.09"/>
<polygon fill="#63b8ff" stroke="#63b8ff" points="662.79,-132.11 652.59,-129.27 658.79,-137.85 662.79,-132.11"/>
</a>
</g>
</g>
<!-- Node12&#45;&gt;Node8 -->
<g id="edge15_Node000012_Node000008" class="edge">
<title>Node12&#45;&gt;Node8</title>
<g id="a_edge15_Node000012_Node000008"><a xlink:title=" ">
<path fill="none" stroke="#63b8ff" d="M723.11,-164.63C721.85,-144.21 719.55,-106.81 718.16,-84.24"/>
<polygon fill="#63b8ff" stroke="#63b8ff" points="721.65,-83.99 717.54,-74.23 714.66,-84.43 721.65,-83.99"/>
</a>
</g>
</g>
<!-- Node13&#45;&gt;Node3 -->
<g id="edge18_Node000013_Node000003" class="edge">
<title>Node13&#45;&gt;Node3</title>
<g id="a_edge18_Node000013_Node000003"><a xlink:title=" ">
<path fill="none" stroke="#63b8ff" d="M172.42,-109.79C173.14,-97.47 174.94,-74.32 179,-55 180.83,-46.28 183.68,-36.84 186.32,-28.91"/>
<polygon fill="#63b8ff" stroke="#63b8ff" points="189.71,-29.83 189.7,-19.23 183.1,-27.52 189.71,-29.83"/>
</a>
</g>
</g>
<!-- Node14&#45;&gt;Node3 -->
<g id="edge20_Node000014_Node000003" class="edge">
<title>Node14&#45;&gt;Node3</title>
<g id="a_edge20_Node000014_Node000003"><a xlink:title=" ">
<path fill="none" stroke="#63b8ff" d="M367.92,-109.83C351.18,-96.96 318.2,-72.44 288,-55 267.05,-42.9 242.26,-31.38 223.26,-23.09"/>
<polygon fill="#63b8ff" stroke="#63b8ff" points="224.47,-19.8 213.9,-19.06 221.7,-26.23 224.47,-19.8"/>
</a>
</g>
</g>
<!-- Node14&#45;&gt;Node8 -->
<g id="edge21_Node000014_Node000008" class="edge">
<title>Node14&#45;&gt;Node8</title>
<g id="a_edge21_Node000014_Node000008"><a xlink:title=" ">
<path fill="none" stroke="#63b8ff" d="M417.12,-112.52C481.68,-102.4 611.93,-81.98 677.46,-71.7"/>
<polygon fill="#63b8ff" stroke="#63b8ff" points="678.06,-75.15 687.4,-70.14 676.97,-68.23 678.06,-75.15"/>
</a>
</g>
</g>
<!-- Node14&#45;&gt;Node9 -->
<g id="edge24_Node000014_Node000009" class="edge">
<title>Node14&#45;&gt;Node9</title>
<g id="a_edge24_Node000014_Node000009"><a xlink:title=" ">
<path fill="none" stroke="#63b8ff" d="M408.24,-109.98C439.06,-101.01 487.78,-86.82 521.89,-76.89"/>
<polygon fill="#63b8ff" stroke="#63b8ff" points="522.91,-80.24 531.53,-74.08 520.95,-73.52 522.91,-80.24"/>
</a>
</g>
</g>
<!-- Node14&#45;&gt;Node10 -->
<g id="edge23_Node000014_Node000010" class="edge">
<title>Node14&#45;&gt;Node10</title>
<g id="a_edge23_Node000014_Node000010"><a xlink:title=" ">
<path fill="none" stroke="#63b8ff" d="M383.13,-109.75C386.51,-102.57 391.42,-92.18 395.62,-83.27"/>
<polygon fill="#63b8ff" stroke="#63b8ff" points="398.85,-84.63 399.95,-74.09 392.52,-81.64 398.85,-84.63"/>
</a>
</g>
</g>
<!-- Node15 -->
<g id="Node000015" class="node">
<title>Node15</title>
<g id="a_Node000015"><a xlink:title=" ">
<polygon fill="#e0e0e0" stroke="#999999" points="279,-74 221,-74 221,-55 279,-55 279,-74"/>
<text text-anchor="middle" x="250" y="-62" font-family="Inter" font-size="10.00">atk/atk.h</text>
</a>
</g>
</g>
<!-- Node14&#45;&gt;Node15 -->
<g id="edge22_Node000014_Node000015" class="edge">
<title>Node14&#45;&gt;Node15</title>
<g id="a_edge22_Node000014_Node000015"><a xlink:title=" ">
<path fill="none" stroke="#63b8ff" d="M358.27,-109.98C337.24,-101.34 304.45,-87.87 280.46,-78.02"/>
<polygon fill="#63b8ff" stroke="#63b8ff" points="281.68,-74.73 271.1,-74.17 279.02,-81.21 281.68,-74.73"/>
</a>
</g>
</g>
<!-- Node16&#45;&gt;Node11 -->
<g id="edge26_Node000016_Node000011" class="edge">
<title>Node16&#45;&gt;Node11</title>
<g id="a_edge26_Node000016_Node000011"><a xlink:title=" ">
<path fill="none" stroke="#63b8ff" d="M891.34,-109.64C880.47,-95.82 857.55,-69.26 832,-55 792.81,-33.13 742.64,-21.77 706.43,-16.02"/>
<polygon fill="#63b8ff" stroke="#63b8ff" points="706.55,-12.5 696.14,-14.48 705.51,-19.42 706.55,-12.5"/>
</a>
</g>
</g>
<!-- Node17&#45;&gt;Node3 -->
<g id="edge29_Node000017_Node000003" class="edge">
<title>Node17&#45;&gt;Node3</title>
<g id="a_edge29_Node000017_Node000003"><a xlink:title=" ">
<path fill="none" stroke="#63b8ff" d="M401.04,-170.46C347.63,-158.3 261.44,-130.84 212,-74 201.26,-61.65 196.59,-43.43 194.56,-29.67"/>
<polygon fill="#63b8ff" stroke="#63b8ff" points="198,-28.93 193.4,-19.39 191.04,-29.72 198,-28.93"/>
</a>
</g>
</g>
<!-- Node17&#45;&gt;Node11 -->
<g id="edge28_Node000017_Node000011" class="edge">
<title>Node17&#45;&gt;Node11</title>
<g id="a_edge28_Node000017_Node000011"><a xlink:title=" ">
<path fill="none" stroke="#63b8ff" d="M448.12,-170.34C448.82,-155.64 452.47,-125.86 470,-110 527.27,-58.19 583.2,-126.32 640,-74 652.29,-62.68 656.75,-43.78 658.31,-29.53"/>
<polygon fill="#63b8ff" stroke="#63b8ff" points="661.82,-29.56 659.03,-19.34 654.83,-29.07 661.82,-29.56"/>
</a>
</g>
</g>
<!-- Node18 -->
<g id="Node000018" class="node">
<title>Node18</title>
<g id="a_Node000018"><a xlink:href="pluma-app_8h.html" target="_top" xlink:title=" ">
<polygon fill="#fff0f0" stroke="red" points="553,-129 479,-129 479,-110 553,-110 553,-129"/>
<text text-anchor="middle" x="516" y="-117" font-family="Inter" font-size="10.00">pluma&#45;app.h</text>
</a>
</g>
</g>
<!-- Node17&#45;&gt;Node18 -->
<g id="edge30_Node000017_Node000018" class="edge">
<title>Node17&#45;&gt;Node18</title>
<g id="a_edge30_Node000017_Node000018"><a xlink:title=" ">
<path fill="none" stroke="#63b8ff" d="M458.03,-170.37C468.58,-161.3 485.39,-146.84 498.19,-135.82"/>
<polygon fill="#63b8ff" stroke="#63b8ff" points="500.63,-138.34 505.93,-129.17 496.06,-133.04 500.63,-138.34"/>
</a>
</g>
</g>
<!-- Node18&#45;&gt;Node8 -->
<g id="edge31_Node000018_Node000008" class="edge">
<title>Node18&#45;&gt;Node8</title>
<g id="a_edge31_Node000018_Node000008"><a xlink:title=" ">
<path fill="none" stroke="#63b8ff" d="M548.29,-109.98C583.39,-100.73 639.5,-85.94 677.27,-75.98"/>
<polygon fill="#63b8ff" stroke="#63b8ff" points="678.63,-79.24 687.41,-73.3 676.84,-72.47 678.63,-79.24"/>
</a>
</g>
</g>
</g>
</svg>

<g id="navigator" transform="translate(0 0)" fill="#404254">
  <rect fill="#f2f5e9" fill-opacity="0.5" stroke="#606060" stroke-width=".5" x="0" y="0" width="60" height="60"/>
  <use id="zoomplus" xlink:href="#zoomPlus" x="17" y="9" onmousedown="handleZoom(evt,'in')"/>
  <use id="zoomminus" xlink:href="#zoomMin" x="42" y="9" onmousedown="handleZoom(evt,'out')"/>
  <use id="reset" xlink:href="#resetDef" x="30" y="36" onmousedown="handleReset()"/>
   <use id="arrowup" xlink:href="#arrowUp" x="0" y="0" onmousedown="handlePan(0,-1)"/>
  <use id="arrowright" xlink:href="#arrowRight" x="0" y="0" onmousedown="handlePan(1,0)"/>
  <use id="arrowdown" xlink:href="#arrowDown" x="0" y="0" onmousedown="handlePan(0,1)"/>
  <use id="arrowleft" xlink:href="#arrowLeft" x="0" y="0" onmousedown="handlePan(-1,0)"/>
</g>
<svg viewBox="0 0 15 15" width="100%" height="30px" preserveAspectRatio="xMaxYMin meet">
 <g id="arrow_out" transform="scale(0.3 0.3)">
  <a xlink:href="pluma-document-saver_8c__incl_org.svg" target="_base">
   <rect id="button" ry="5" rx="5" y="6" x="6" height="38" width="38"
        fill="#f2f5e9" fill-opacity="0.5" stroke="#606060" stroke-width="1.0"/>
   <path id="arrow"
     d="M 11.500037,31.436501 C 11.940474,20.09759 22.043105,11.32322 32.158766,21.979434 L 37.068811,17.246167 C 37.068811,17.246167 37.088388,32 37.088388,32 L 22.160133,31.978069 C 22.160133,31.978069 26.997745,27.140456 26.997745,27.140456 C 18.528582,18.264221 13.291696,25.230495 11.500037,31.436501 z"
     style="fill:#404040;"/>
  </a>
 </g>
</svg>

<style type='text/css'>
<![CDATA[
[data-mouse-over-selected='false'] { opacity: 0.7; }
[data-mouse-over-selected='true']  { opacity: 1.0; }
]]>
</style>
<script type="application/ecmascript"><![CDATA[
document.addEventListener('DOMContentLoaded', (event) => {
  highlightEdges();
  highlightAdjacentNodes();
});
]]></script>
</svg>
