<?xml version="1.0" encoding="UTF-8" standalone="no"?>
<!DOCTYPE svg PUBLIC "-//W3C//DTD SVG 1.1//EN"
 "http://www.w3.org/Graphics/SVG/1.1/DTD/svg11.dtd">
<!-- Generated by graphviz version 2.43.0 (0)
 -->
<!-- Title: pluma&#45;taglist&#45;plugin&#45;parser.h Pages: 1 -->
<svg width="373pt" height="104pt"
 viewBox="0.00 0.00 373.00 104.00" xmlns="http://www.w3.org/2000/svg" xmlns:xlink="http://www.w3.org/1999/xlink">
<g id="graph0" class="graph" transform="scale(1 1) rotate(0) translate(4 100)">
<title>pluma&#45;taglist&#45;plugin&#45;parser.h</title>
<!-- Node1 -->
<g id="Node000001" class="node">
<title>Node1</title>
<g id="a_Node000001"><a xlink:title=" ">
<polygon fill="#999999" stroke="#666666" points="232,-96 125,-96 125,-66 232,-66 232,-96"/>
<text text-anchor="start" x="133" y="-84" font-family="Inter" font-size="10.00">pluma&#45;taglist&#45;plugin</text>
<text text-anchor="middle" x="178.5" y="-73" font-family="Inter" font-size="10.00">&#45;parser.h</text>
</a>
</g>
</g>
<!-- Node2 -->
<g id="Node000002" class="node">
<title>Node2</title>
<g id="a_Node000002"><a xlink:href="pluma-taglist-plugin-panel_8c.html" target="_top" xlink:title=" ">
<polygon fill="white" stroke="#666666" points="107,-30 0,-30 0,0 107,0 107,-30"/>
<text text-anchor="start" x="8" y="-18" font-family="Inter" font-size="10.00">pluma&#45;taglist&#45;plugin</text>
<text text-anchor="middle" x="53.5" y="-7" font-family="Inter" font-size="10.00">&#45;panel.c</text>
</a>
</g>
</g>
<!-- Node1&#45;&gt;Node2 -->
<g id="edge1_Node000001_Node000002" class="edge">
<title>Node1&#45;&gt;Node2</title>
<g id="a_edge1_Node000001_Node000002"><a xlink:title=" ">
<path fill="none" stroke="#63b8ff" d="M142.13,-61.38C122.57,-51.36 98.85,-39.22 80.87,-30.01"/>
<polygon fill="#63b8ff" stroke="#63b8ff" points="140.57,-64.51 151.07,-65.95 143.76,-58.28 140.57,-64.51"/>
</a>
</g>
</g>
<!-- Node3 -->
<g id="Node000003" class="node">
<title>Node3</title>
<g id="a_Node000003"><a xlink:href="pluma-taglist-plugin-parser_8c.html" target="_top" xlink:title=" ">
<polygon fill="white" stroke="#666666" points="232,-30 125,-30 125,0 232,0 232,-30"/>
<text text-anchor="start" x="133" y="-18" font-family="Inter" font-size="10.00">pluma&#45;taglist&#45;plugin</text>
<text text-anchor="middle" x="178.5" y="-7" font-family="Inter" font-size="10.00">&#45;parser.c</text>
</a>
</g>
</g>
<!-- Node1&#45;&gt;Node3 -->
<g id="edge2_Node000001_Node000003" class="edge">
<title>Node1&#45;&gt;Node3</title>
<g id="a_edge2_Node000001_Node000003"><a xlink:title=" ">
<path fill="none" stroke="#63b8ff" d="M178.5,-55.54C178.5,-46.96 178.5,-37.61 178.5,-30.16"/>
<polygon fill="#63b8ff" stroke="#63b8ff" points="175,-55.8 178.5,-65.8 182,-55.8 175,-55.8"/>
</a>
</g>
</g>
<!-- Node4 -->
<g id="Node000004" class="node">
<title>Node4</title>
<g id="a_Node000004"><a xlink:href="pluma-taglist-plugin_8c.html" target="_top" xlink:title=" ">
<polygon fill="white" stroke="#666666" points="365,-24.5 250,-24.5 250,-5.5 365,-5.5 365,-24.5"/>
<text text-anchor="middle" x="307.5" y="-12.5" font-family="Inter" font-size="10.00">pluma&#45;taglist&#45;plugin.c</text>
</a>
</g>
</g>
<!-- Node1&#45;&gt;Node4 -->
<g id="edge3_Node000001_Node000004" class="edge">
<title>Node1&#45;&gt;Node4</title>
<g id="a_edge3_Node000001_Node000004"><a xlink:title=" ">
<path fill="none" stroke="#63b8ff" d="M215.87,-61.46C240.44,-49.27 271.42,-33.9 290.33,-24.52"/>
<polygon fill="#63b8ff" stroke="#63b8ff" points="214.21,-58.38 206.81,-65.95 217.32,-64.65 214.21,-58.38"/>
</a>
</g>
</g>
</g>
</svg>
