<?xml version="1.0" encoding="UTF-8" standalone="no"?>
<!DOCTYPE svg PUBLIC "-//W3C//DTD SVG 1.1//EN"
 "http://www.w3.org/Graphics/SVG/1.1/DTD/svg11.dtd">
<!-- Generated by graphviz version 2.43.0 (0)
 -->
<!-- Title: pluma&#45;file&#45;browser&#45;view.h Pages: 1 -->
<svg width="465pt" height="236pt"
 viewBox="0.00 0.00 465.00 236.00" xmlns="http://www.w3.org/2000/svg" xmlns:xlink="http://www.w3.org/1999/xlink">
<g id="graph0" class="graph" transform="scale(1 1) rotate(0) translate(4 232)">
<title>pluma&#45;file&#45;browser&#45;view.h</title>
<!-- Node1 -->
<g id="Node000001" class="node">
<title>Node1</title>
<g id="a_Node000001"><a xlink:title=" ">
<polygon fill="#999999" stroke="#666666" points="266,-228 162,-228 162,-198 266,-198 266,-228"/>
<text text-anchor="start" x="170" y="-216" font-family="Inter" font-size="10.00">pluma&#45;file&#45;browser</text>
<text text-anchor="middle" x="214" y="-205" font-family="Inter" font-size="10.00">&#45;view.h</text>
</a>
</g>
</g>
<!-- Node2 -->
<g id="Node000002" class="node">
<title>Node2</title>
<g id="a_Node000002"><a xlink:href="pluma-file-browser-enum-types_8c.html" target="_top" xlink:title=" ">
<polygon fill="white" stroke="#666666" points="104,-162 0,-162 0,-132 104,-132 104,-162"/>
<text text-anchor="start" x="8" y="-150" font-family="Inter" font-size="10.00">pluma&#45;file&#45;browser</text>
<text text-anchor="middle" x="52" y="-139" font-family="Inter" font-size="10.00">&#45;enum&#45;types.c</text>
</a>
</g>
</g>
<!-- Node1&#45;&gt;Node2 -->
<g id="edge1_Node000001_Node000002" class="edge">
<title>Node1&#45;&gt;Node2</title>
<g id="a_edge1_Node000001_Node000002"><a xlink:title=" ">
<path fill="none" stroke="#63b8ff" d="M168.91,-194.19C143.19,-184.02 111.4,-171.47 87.47,-162.01"/>
<polygon fill="#63b8ff" stroke="#63b8ff" points="167.86,-197.54 178.45,-197.95 170.43,-191.03 167.86,-197.54"/>
</a>
</g>
</g>
<!-- Node3 -->
<g id="Node000003" class="node">
<title>Node3</title>
<g id="a_Node000003"><a xlink:href="pluma-file-browser-view_8c.html" target="_top" xlink:title=" ">
<polygon fill="white" stroke="#666666" points="226,-162 122,-162 122,-132 226,-132 226,-162"/>
<text text-anchor="start" x="130" y="-150" font-family="Inter" font-size="10.00">pluma&#45;file&#45;browser</text>
<text text-anchor="middle" x="174" y="-139" font-family="Inter" font-size="10.00">&#45;view.c</text>
</a>
</g>
</g>
<!-- Node1&#45;&gt;Node3 -->
<g id="edge2_Node000001_Node000003" class="edge">
<title>Node1&#45;&gt;Node3</title>
<g id="a_edge2_Node000001_Node000003"><a xlink:title=" ">
<path fill="none" stroke="#63b8ff" d="M199.78,-189.24C194.13,-180.21 187.82,-170.11 182.85,-162.16"/>
<polygon fill="#63b8ff" stroke="#63b8ff" points="196.85,-191.17 205.12,-197.8 202.79,-187.46 196.85,-191.17"/>
</a>
</g>
</g>
<!-- Node4 -->
<g id="Node000004" class="node">
<title>Node4</title>
<g id="a_Node000004"><a xlink:href="pluma-file-browser-widget_8c.html" target="_top" xlink:title=" ">
<polygon fill="white" stroke="#666666" points="295,-96 191,-96 191,-66 295,-66 295,-96"/>
<text text-anchor="start" x="199" y="-84" font-family="Inter" font-size="10.00">pluma&#45;file&#45;browser</text>
<text text-anchor="middle" x="243" y="-73" font-family="Inter" font-size="10.00">&#45;widget.c</text>
</a>
</g>
</g>
<!-- Node1&#45;&gt;Node4 -->
<g id="edge3_Node000001_Node000004" class="edge">
<title>Node1&#45;&gt;Node4</title>
<g id="a_edge3_Node000001_Node000004"><a xlink:title=" ">
<path fill="none" stroke="#63b8ff" d="M225.52,-188.62C229.11,-180.39 232.73,-170.95 235,-162 240.74,-139.41 242.39,-112.25 242.85,-96.09"/>
<polygon fill="#63b8ff" stroke="#63b8ff" points="222.22,-187.4 221.23,-197.95 228.59,-190.32 222.22,-187.4"/>
</a>
</g>
</g>
<!-- Node5 -->
<g id="Node000005" class="node">
<title>Node5</title>
<g id="a_Node000005"><a xlink:href="pluma-file-browser-widget_8h.html" target="_top" xlink:title=" ">
<polygon fill="white" stroke="#666666" points="396,-162 292,-162 292,-132 396,-132 396,-162"/>
<text text-anchor="start" x="300" y="-150" font-family="Inter" font-size="10.00">pluma&#45;file&#45;browser</text>
<text text-anchor="middle" x="344" y="-139" font-family="Inter" font-size="10.00">&#45;widget.h</text>
</a>
</g>
</g>
<!-- Node1&#45;&gt;Node5 -->
<g id="edge4_Node000001_Node000005" class="edge">
<title>Node1&#45;&gt;Node5</title>
<g id="a_edge4_Node000001_Node000005"><a xlink:title=" ">
<path fill="none" stroke="#63b8ff" d="M251.55,-193.51C271.95,-183.47 296.76,-171.26 315.54,-162.01"/>
<polygon fill="#63b8ff" stroke="#63b8ff" points="249.95,-190.4 242.53,-197.95 253.05,-196.68 249.95,-190.4"/>
</a>
</g>
</g>
<!-- Node5&#45;&gt;Node4 -->
<g id="edge8_Node000005_Node000004" class="edge">
<title>Node5&#45;&gt;Node4</title>
<g id="a_edge8_Node000005_Node000004"><a xlink:title=" ">
<path fill="none" stroke="#63b8ff" d="M312.91,-126.3C297.54,-116.56 279.33,-105.02 265.35,-96.16"/>
<polygon fill="#63b8ff" stroke="#63b8ff" points="311.26,-129.4 321.58,-131.8 315.01,-123.49 311.26,-129.4"/>
</a>
</g>
</g>
<!-- Node6 -->
<g id="Node000006" class="node">
<title>Node6</title>
<g id="a_Node000006"><a xlink:href="pluma-file-browser-messages_8h.html" target="_top" xlink:title=" ">
<polygon fill="#fff0f0" stroke="red" points="417,-96 313,-96 313,-66 417,-66 417,-96"/>
<text text-anchor="start" x="321" y="-84" font-family="Inter" font-size="10.00">pluma&#45;file&#45;browser</text>
<text text-anchor="middle" x="365" y="-73" font-family="Inter" font-size="10.00">&#45;messages.h</text>
</a>
</g>
</g>
<!-- Node5&#45;&gt;Node6 -->
<g id="edge5_Node000005_Node000006" class="edge">
<title>Node5&#45;&gt;Node6</title>
<g id="a_edge5_Node000005_Node000006"><a xlink:title=" ">
<path fill="none" stroke="#63b8ff" d="M351.84,-122.11C354.7,-113.38 357.85,-103.78 360.35,-96.16"/>
<polygon fill="#63b8ff" stroke="#63b8ff" points="348.45,-121.2 348.66,-131.8 355.1,-123.39 348.45,-121.2"/>
</a>
</g>
</g>
<!-- Node8 -->
<g id="Node000008" class="node">
<title>Node8</title>
<g id="a_Node000008"><a xlink:href="pluma-file-browser-plugin_8c.html" target="_top" xlink:title=" ">
<polygon fill="white" stroke="#666666" points="457,-30 353,-30 353,0 457,0 457,-30"/>
<text text-anchor="start" x="361" y="-18" font-family="Inter" font-size="10.00">pluma&#45;file&#45;browser</text>
<text text-anchor="middle" x="405" y="-7" font-family="Inter" font-size="10.00">&#45;plugin.c</text>
</a>
</g>
</g>
<!-- Node5&#45;&gt;Node8 -->
<g id="edge7_Node000005_Node000008" class="edge">
<title>Node5&#45;&gt;Node8</title>
<g id="a_edge7_Node000005_Node000008"><a xlink:title=" ">
<path fill="none" stroke="#63b8ff" d="M393.02,-126.95C406.06,-119.37 418.57,-109.23 426,-96 437.88,-74.84 424.92,-46.75 414.74,-30.11"/>
<polygon fill="#63b8ff" stroke="#63b8ff" points="391.14,-123.99 383.97,-131.79 394.44,-130.16 391.14,-123.99"/>
</a>
</g>
</g>
<!-- Node6&#45;&gt;Node8 -->
<g id="edge6_Node000006_Node000008" class="edge">
<title>Node6&#45;&gt;Node8</title>
<g id="a_edge6_Node000006_Node000008"><a xlink:title=" ">
<path fill="none" stroke="#63b8ff" d="M379.22,-57.24C384.87,-48.21 391.18,-38.11 396.15,-30.16"/>
<polygon fill="#63b8ff" stroke="#63b8ff" points="376.21,-55.46 373.88,-65.8 382.15,-59.17 376.21,-55.46"/>
</a>
</g>
</g>
</g>
</svg>
