<?xml version="1.0" encoding="UTF-8" standalone="no"?>
<!DOCTYPE svg PUBLIC "-//W3C//DTD SVG 1.1//EN"
 "http://www.w3.org/Graphics/SVG/1.1/DTD/svg11.dtd">
<!-- Generated by graphviz version 2.43.0 (0)
 -->
<!-- Title: prefs&#45;dialog.h Pages: 1 -->
<svg width="944pt" height="192pt"
 viewBox="0.00 0.00 943.50 192.00" xmlns="http://www.w3.org/2000/svg" xmlns:xlink="http://www.w3.org/1999/xlink">
<g id="graph0" class="graph" transform="scale(1 1) rotate(0) translate(4 188)">
<title>prefs&#45;dialog.h</title>
<!-- Node1 -->
<g id="Node000001" class="node">
<title>Node1</title>
<g id="a_Node000001"><a xlink:title=" ">
<polygon fill="#999999" stroke="#666666" points="384,-184 304,-184 304,-165 384,-165 384,-184"/>
<text text-anchor="middle" x="344" y="-172" font-family="Inter" font-size="10.00">prefs&#45;dialog.h</text>
</a>
</g>
</g>
<!-- Node2 -->
<g id="Node000002" class="node">
<title>Node2</title>
<g id="a_Node000002"><a xlink:href="prefs-dialog_8c.html" target="_top" xlink:title=" ">
<polygon fill="white" stroke="#666666" points="229.5,-19 150.5,-19 150.5,0 229.5,0 229.5,-19"/>
<text text-anchor="middle" x="190" y="-7" font-family="Inter" font-size="10.00">prefs&#45;dialog.c</text>
</a>
</g>
</g>
<!-- Node1&#45;&gt;Node2 -->
<g id="edge1_Node000001_Node000002" class="edge">
<title>Node1&#45;&gt;Node2</title>
<g id="a_edge1_Node000001_Node000002"><a xlink:title=" ">
<path fill="none" stroke="#63b8ff" d="M293.34,-170.4C232.21,-163.62 131.8,-142.12 85,-74 65.4,-45.47 112.99,-27.57 150.37,-18.31"/>
<polygon fill="#63b8ff" stroke="#63b8ff" points="293.24,-173.91 303.54,-171.43 293.95,-166.94 293.24,-173.91"/>
</a>
</g>
</g>
<!-- Node3 -->
<g id="Node000003" class="node">
<title>Node3</title>
<g id="a_Node000003"><a xlink:href="sensors-applet_8c.html" target="_top" xlink:title=" ">
<polygon fill="white" stroke="#666666" points="508,-19 416,-19 416,0 508,0 508,-19"/>
<text text-anchor="middle" x="462" y="-7" font-family="Inter" font-size="10.00">sensors&#45;applet.c</text>
</a>
</g>
</g>
<!-- Node1&#45;&gt;Node3 -->
<g id="edge2_Node000001_Node000003" class="edge">
<title>Node1&#45;&gt;Node3</title>
<g id="a_edge2_Node000001_Node000003"><a xlink:title=" ">
<path fill="none" stroke="#63b8ff" d="M324.04,-158.43C295.45,-135.02 249.1,-89.09 276,-55 293.12,-33.3 366.65,-21 415.97,-15.06"/>
<polygon fill="#63b8ff" stroke="#63b8ff" points="322.23,-161.46 332.24,-164.93 326.58,-155.97 322.23,-161.46"/>
</a>
</g>
</g>
<!-- Node4 -->
<g id="Node000004" class="node">
<title>Node4</title>
<g id="a_Node000004"><a xlink:href="sensors-applet_8h.html" target="_top" xlink:title=" ">
<polygon fill="white" stroke="#666666" points="514,-129 420,-129 420,-110 514,-110 514,-129"/>
<text text-anchor="middle" x="467" y="-117" font-family="Inter" font-size="10.00">sensors&#45;applet.h</text>
</a>
</g>
</g>
<!-- Node1&#45;&gt;Node4 -->
<g id="edge3_Node000001_Node000004" class="edge">
<title>Node1&#45;&gt;Node4</title>
<g id="a_edge3_Node000001_Node000004"><a xlink:title=" ">
<path fill="none" stroke="#63b8ff" d="M367.98,-160.63C389.27,-150.87 420.05,-137.71 441.73,-129.17"/>
<polygon fill="#63b8ff" stroke="#63b8ff" points="366.23,-157.59 358.65,-164.98 369.19,-163.93 366.23,-157.59"/>
</a>
</g>
</g>
<!-- Node4&#45;&gt;Node1 -->
<g id="edge11_Node000004_Node000001" class="edge">
<title>Node4&#45;&gt;Node1</title>
<g id="a_edge11_Node000004_Node000001"><a xlink:title=" ">
<path fill="none" stroke="#63b8ff" d="M442.92,-133.41C421.5,-143.23 390.54,-156.46 368.88,-164.98"/>
<polygon fill="#63b8ff" stroke="#63b8ff" points="444.44,-136.57 452.03,-129.17 441.48,-130.22 444.44,-136.57"/>
</a>
</g>
</g>
<!-- Node4&#45;&gt;Node3 -->
<g id="edge23_Node000004_Node000003" class="edge">
<title>Node4&#45;&gt;Node3</title>
<g id="a_edge23_Node000004_Node000003"><a xlink:title=" ">
<path fill="none" stroke="#63b8ff" d="M459.44,-100.49C456.49,-92.53 453.47,-82.95 452,-74 448.78,-54.4 454.88,-31.35 458.89,-19.13"/>
<polygon fill="#63b8ff" stroke="#63b8ff" points="456.21,-101.84 463.14,-109.85 462.72,-99.26 456.21,-101.84"/>
</a>
</g>
</g>
<!-- Node5 -->
<g id="Node000005" class="node">
<title>Node5</title>
<g id="a_Node000005"><a xlink:href="about-dialog_8h.html" target="_top" xlink:title=" ">
<polygon fill="#fff0f0" stroke="red" points="543.5,-74 460.5,-74 460.5,-55 543.5,-55 543.5,-74"/>
<text text-anchor="middle" x="502" y="-62" font-family="Inter" font-size="10.00">about&#45;dialog.h</text>
</a>
</g>
</g>
<!-- Node4&#45;&gt;Node5 -->
<g id="edge4_Node000004_Node000005" class="edge">
<title>Node4&#45;&gt;Node5</title>
<g id="a_edge4_Node000004_Node000005"><a xlink:title=" ">
<path fill="none" stroke="#63b8ff" d="M478.3,-101.39C484.32,-92.27 491.47,-81.45 496.33,-74.09"/>
<polygon fill="#63b8ff" stroke="#63b8ff" points="475.37,-99.47 472.78,-109.75 481.21,-103.33 475.37,-99.47"/>
</a>
</g>
</g>
<!-- Node7 -->
<g id="Node000007" class="node">
<title>Node7</title>
<g id="a_Node000007"><a xlink:href="active-sensor-libnotify_8h.html" target="_top" xlink:title=" ">
<polygon fill="#fff0f0" stroke="red" points="935.5,-19 808.5,-19 808.5,0 935.5,0 935.5,-19"/>
<text text-anchor="middle" x="872" y="-7" font-family="Inter" font-size="10.00">active&#45;sensor&#45;libnotify.h</text>
</a>
</g>
</g>
<!-- Node4&#45;&gt;Node7 -->
<g id="edge6_Node000004_Node000007" class="edge">
<title>Node4&#45;&gt;Node7</title>
<g id="a_edge6_Node000004_Node000007"><a xlink:title=" ">
<path fill="none" stroke="#63b8ff" d="M524.25,-116.59C633.33,-112.36 862.25,-100.41 886,-74 899.89,-58.56 886.58,-32.51 878,-19.08"/>
<polygon fill="#63b8ff" stroke="#63b8ff" points="523.94,-113.1 514.08,-116.98 524.21,-120.1 523.94,-113.1"/>
</a>
</g>
</g>
<!-- Node9 -->
<g id="Node000009" class="node">
<title>Node9</title>
<g id="a_Node000009"><a xlink:href="active-sensor_8h.html" target="_top" xlink:title=" ">
<polygon fill="#fff0f0" stroke="red" points="860.5,-74 775.5,-74 775.5,-55 860.5,-55 860.5,-74"/>
<text text-anchor="middle" x="818" y="-62" font-family="Inter" font-size="10.00">active&#45;sensor.h</text>
</a>
</g>
</g>
<!-- Node4&#45;&gt;Node9 -->
<g id="edge7_Node000004_Node000009" class="edge">
<title>Node4&#45;&gt;Node9</title>
<g id="a_edge7_Node000004_Node000009"><a xlink:title=" ">
<path fill="none" stroke="#63b8ff" d="M524.22,-110.23C584.43,-101.47 681.93,-87.13 766,-74 769.07,-73.52 772.25,-73.02 775.44,-72.51"/>
<polygon fill="#63b8ff" stroke="#63b8ff" points="523.55,-106.79 514.16,-111.69 524.56,-113.72 523.55,-106.79"/>
</a>
</g>
</g>
<!-- Node11 -->
<g id="Node000011" class="node">
<title>Node11</title>
<g id="a_Node000011"><a xlink:href="mate-sensors-applet_2sensors-applet_2main_8c.html" target="_top" xlink:title=" ">
<polygon fill="white" stroke="#666666" points="608.5,-74 561.5,-74 561.5,-55 608.5,-55 608.5,-74"/>
<text text-anchor="middle" x="585" y="-62" font-family="Inter" font-size="10.00">main.c</text>
</a>
</g>
</g>
<!-- Node4&#45;&gt;Node11 -->
<g id="edge10_Node000004_Node000011" class="edge">
<title>Node4&#45;&gt;Node11</title>
<g id="a_edge10_Node000004_Node000011"><a xlink:title=" ">
<path fill="none" stroke="#63b8ff" d="M495.35,-105.77C517.12,-95.99 546.59,-82.75 565.7,-74.17"/>
<polygon fill="#63b8ff" stroke="#63b8ff" points="493.65,-102.69 485.96,-109.98 496.51,-109.08 493.65,-102.69"/>
</a>
</g>
</g>
<!-- Node12 -->
<g id="Node000012" class="node">
<title>Node12</title>
<g id="a_Node000012"><a xlink:href="sensor-config-dialog_8c.html" target="_top" xlink:title=" ">
<polygon fill="white" stroke="#666666" points="729,-19 611,-19 611,0 729,0 729,-19"/>
<text text-anchor="middle" x="670" y="-7" font-family="Inter" font-size="10.00">sensor&#45;config&#45;dialog.c</text>
</a>
</g>
</g>
<!-- Node4&#45;&gt;Node12 -->
<g id="edge12_Node000004_Node000012" class="edge">
<title>Node4&#45;&gt;Node12</title>
<g id="a_edge12_Node000004_Node000012"><a xlink:title=" ">
<path fill="none" stroke="#63b8ff" d="M524.37,-116.33C630.18,-111.72 847.36,-99.28 870,-74 875.63,-67.71 875.28,-61.59 870,-55 852.56,-33.25 781.49,-21.45 729.01,-15.57"/>
<polygon fill="#63b8ff" stroke="#63b8ff" points="524.03,-112.84 514.18,-116.76 524.32,-119.83 524.03,-112.84"/>
</a>
</g>
</g>
<!-- Node13 -->
<g id="Node000013" class="node">
<title>Node13</title>
<g id="a_Node000013"><a xlink:href="sensor-config-dialog_8h.html" target="_top" xlink:title=" ">
<polygon fill="white" stroke="#666666" points="403.5,-74 284.5,-74 284.5,-55 403.5,-55 403.5,-74"/>
<text text-anchor="middle" x="344" y="-62" font-family="Inter" font-size="10.00">sensor&#45;config&#45;dialog.h</text>
</a>
</g>
</g>
<!-- Node4&#45;&gt;Node13 -->
<g id="edge13_Node000004_Node000013" class="edge">
<title>Node4&#45;&gt;Node13</title>
<g id="a_edge13_Node000004_Node000013"><a xlink:title=" ">
<path fill="none" stroke="#63b8ff" d="M437.75,-105.9C415.03,-96.11 384.13,-82.79 364.12,-74.17"/>
<polygon fill="#63b8ff" stroke="#63b8ff" points="436.67,-109.24 447.24,-109.98 439.44,-102.81 436.67,-109.24"/>
</a>
</g>
</g>
<!-- Node14 -->
<g id="Node000014" class="node">
<title>Node14</title>
<g id="a_Node000014"><a xlink:href="sensors-applet-plugins_8h.html" target="_top" xlink:title=" ">
<polygon fill="#fff0f0" stroke="red" points="757,-74 627,-74 627,-55 757,-55 757,-74"/>
<text text-anchor="middle" x="692" y="-62" font-family="Inter" font-size="10.00">sensors&#45;applet&#45;plugins.h</text>
</a>
</g>
</g>
<!-- Node4&#45;&gt;Node14 -->
<g id="edge16_Node000004_Node000014" class="edge">
<title>Node4&#45;&gt;Node14</title>
<g id="a_edge16_Node000004_Node000014"><a xlink:title=" ">
<path fill="none" stroke="#63b8ff" d="M512.89,-107.69C555.05,-97.76 616.7,-83.24 655.57,-74.08"/>
<polygon fill="#63b8ff" stroke="#63b8ff" points="512.08,-104.28 503.15,-109.98 513.69,-111.1 512.08,-104.28"/>
</a>
</g>
</g>
<!-- Node16 -->
<g id="Node000016" class="node">
<title>Node16</title>
<g id="a_Node000016"><a xlink:href="sensors-applet-settings_8c.html" target="_top" xlink:title=" ">
<polygon fill="white" stroke="#666666" points="132,-19 0,-19 0,0 132,0 132,-19"/>
<text text-anchor="middle" x="66" y="-7" font-family="Inter" font-size="10.00">sensors&#45;applet&#45;settings.c</text>
</a>
</g>
</g>
<!-- Node4&#45;&gt;Node16 -->
<g id="edge18_Node000004_Node000016" class="edge">
<title>Node4&#45;&gt;Node16</title>
<g id="a_edge18_Node000004_Node000016"><a xlink:title=" ">
<path fill="none" stroke="#63b8ff" d="M409.48,-119.29C315.06,-119.39 132.89,-114.17 85,-74 68.6,-60.24 66,-32.96 65.81,-19.06"/>
<polygon fill="#63b8ff" stroke="#63b8ff" points="409.73,-122.79 419.72,-119.26 409.71,-115.79 409.73,-122.79"/>
</a>
</g>
</g>
<!-- Node17 -->
<g id="Node000017" class="node">
<title>Node17</title>
<g id="a_Node000017"><a xlink:href="sensors-applet-settings_8h.html" target="_top" xlink:title=" ">
<polygon fill="#fff0f0" stroke="red" points="228,-74 94,-74 94,-55 228,-55 228,-74"/>
<text text-anchor="middle" x="161" y="-62" font-family="Inter" font-size="10.00">sensors&#45;applet&#45;settings.h</text>
</a>
</g>
</g>
<!-- Node4&#45;&gt;Node17 -->
<g id="edge19_Node000004_Node000017" class="edge">
<title>Node4&#45;&gt;Node17</title>
<g id="a_edge19_Node000004_Node000017"><a xlink:title=" ">
<path fill="none" stroke="#63b8ff" d="M409.85,-108.6C352.38,-98.65 264.7,-83.46 210.22,-74.03"/>
<polygon fill="#63b8ff" stroke="#63b8ff" points="409.41,-112.08 419.86,-110.33 410.6,-105.18 409.41,-112.08"/>
</a>
</g>
</g>
<!-- Node5&#45;&gt;Node3 -->
<g id="edge5_Node000005_Node000003" class="edge">
<title>Node5&#45;&gt;Node3</title>
<g id="a_edge5_Node000005_Node000003"><a xlink:title=" ">
<path fill="none" stroke="#63b8ff" d="M489.3,-46.67C482.37,-37.5 474.09,-26.52 468.48,-19.09"/>
<polygon fill="#63b8ff" stroke="#63b8ff" points="486.58,-48.87 495.39,-54.75 492.16,-44.66 486.58,-48.87"/>
</a>
</g>
</g>
<!-- Node9&#45;&gt;Node3 -->
<g id="edge9_Node000009_Node000003" class="edge">
<title>Node9&#45;&gt;Node3</title>
<g id="a_edge9_Node000009_Node000003"><a xlink:title=" ">
<path fill="none" stroke="#63b8ff" d="M765.39,-54.93C667.63,-39.84 565.75,-25.19 508.13,-17.01"/>
<polygon fill="#63b8ff" stroke="#63b8ff" points="765.02,-58.41 775.44,-56.48 766.09,-51.5 765.02,-58.41"/>
</a>
</g>
</g>
<!-- Node9&#45;&gt;Node7 -->
<g id="edge8_Node000009_Node000007" class="edge">
<title>Node9&#45;&gt;Node7</title>
<g id="a_edge8_Node000009_Node000007"><a xlink:title=" ">
<path fill="none" stroke="#63b8ff" d="M834.28,-47.52C843.8,-38.18 855.44,-26.75 863.25,-19.09"/>
<polygon fill="#63b8ff" stroke="#63b8ff" points="831.6,-45.25 826.92,-54.75 836.51,-50.24 831.6,-45.25"/>
</a>
</g>
</g>
<!-- Node13&#45;&gt;Node2 -->
<g id="edge14_Node000013_Node000002" class="edge">
<title>Node13&#45;&gt;Node2</title>
<g id="a_edge14_Node000013_Node000002"><a xlink:title=" ">
<path fill="none" stroke="#63b8ff" d="M309.62,-51.67C280.91,-41.79 240.64,-27.93 214.94,-19.08"/>
<polygon fill="#63b8ff" stroke="#63b8ff" points="308.66,-55.04 319.26,-54.98 310.94,-48.42 308.66,-55.04"/>
</a>
</g>
</g>
<!-- Node13&#45;&gt;Node12 -->
<g id="edge15_Node000013_Node000012" class="edge">
<title>Node13&#45;&gt;Node12</title>
<g id="a_edge15_Node000013_Node000012"><a xlink:title=" ">
<path fill="none" stroke="#63b8ff" d="M406.3,-53.37C467.51,-43.42 559.88,-28.4 617.48,-19.04"/>
<polygon fill="#63b8ff" stroke="#63b8ff" points="405.69,-49.93 396.38,-54.98 406.81,-56.83 405.69,-49.93"/>
</a>
</g>
</g>
<!-- Node14&#45;&gt;Node3 -->
<g id="edge17_Node000014_Node000003" class="edge">
<title>Node14&#45;&gt;Node3</title>
<g id="a_edge17_Node000014_Node000003"><a xlink:title=" ">
<path fill="none" stroke="#63b8ff" d="M645.09,-52.69C602,-42.76 538.97,-28.24 499.24,-19.08"/>
<polygon fill="#63b8ff" stroke="#63b8ff" points="644.52,-56.15 655.05,-54.98 646.09,-49.33 644.52,-56.15"/>
</a>
</g>
</g>
<!-- Node17&#45;&gt;Node2 -->
<g id="edge20_Node000017_Node000002" class="edge">
<title>Node17&#45;&gt;Node2</title>
<g id="a_edge20_Node000017_Node000002"><a xlink:title=" ">
<path fill="none" stroke="#63b8ff" d="M170.68,-45.82C175.6,-36.82 181.36,-26.29 185.3,-19.09"/>
<polygon fill="#63b8ff" stroke="#63b8ff" points="167.52,-44.3 165.79,-54.75 173.66,-47.66 167.52,-44.3"/>
</a>
</g>
</g>
<!-- Node17&#45;&gt;Node3 -->
<g id="edge22_Node000017_Node000003" class="edge">
<title>Node17&#45;&gt;Node3</title>
<g id="a_edge22_Node000017_Node000003"><a xlink:title=" ">
<path fill="none" stroke="#63b8ff" d="M219.36,-53.22C276.68,-43.13 362.99,-27.93 415.74,-18.65"/>
<polygon fill="#63b8ff" stroke="#63b8ff" points="218.6,-49.8 209.36,-54.98 219.82,-56.7 218.6,-49.8"/>
</a>
</g>
</g>
<!-- Node17&#45;&gt;Node16 -->
<g id="edge21_Node000017_Node000016" class="edge">
<title>Node17&#45;&gt;Node16</title>
<g id="a_edge21_Node000017_Node000016"><a xlink:title=" ">
<path fill="none" stroke="#63b8ff" d="M136.74,-49.97C119.37,-40.28 96.51,-27.52 81.54,-19.17"/>
<polygon fill="#63b8ff" stroke="#63b8ff" points="135.3,-53.17 145.74,-54.98 138.71,-47.06 135.3,-53.17"/>
</a>
</g>
</g>
</g>
</svg>
