<?xml version="1.0" encoding="UTF-8" standalone="no"?>
<!DOCTYPE svg PUBLIC "-//W3C//DTD SVG 1.1//EN"
 "http://www.w3.org/Graphics/SVG/1.1/DTD/svg11.dtd">
<!-- Generated by graphviz version 2.43.0 (0)
 -->
<!-- Title: pulse&#45;monitor.h Pages: 1 -->
<!--zoomable 82 -->

<svg id="main" version="1.1" xmlns="http://www.w3.org/2000/svg" xmlns:xlink="http://www.w3.org/1999/xlink" xml:space="preserve" onload="init(evt)">

<style type="text/css"><![CDATA[
.node, .edge {opacity: 0.7;}
.node.selected, .edge.selected {opacity: 1;}
.edge:hover path { stroke: red; }
.edge:hover polygon { stroke: red; fill: red; }
]]></style>

<defs>
  <circle id="rim" cx="0" cy="0" r="7"/>
  <circle id="rim2" cx="0" cy="0" r="3.5"/>
  <g id="zoomPlus">
    <use xlink:href="#rim" fill="#404040"><set attributeName="fill" to="#808080" begin="zoomplus.mouseover" end="zoomplus.mouseout"/></use>
    <path d="M-4,0h8M0,-4v8" fill="none" stroke="white" stroke-width="1.5" pointer-events="none"/>
  </g>
  <g id="zoomMin">
    <use xlink:href="#rim" fill="#404040"><set attributeName="fill" to="#808080" begin="zoomminus.mouseover" end="zoomminus.mouseout"/></use>
    <path d="M-4,0h8" fill="none" stroke="white" stroke-width="1.5" pointer-events="none"/>
  </g>
  <g id="arrowUp" transform="translate(30 24)">
    <use xlink:href="#rim"/>
    <path pointer-events="none" fill="none" stroke="white" stroke-width="1.5" d="M0,-3.0v7 M-2.5,-0.5L0,-3.0L2.5,-0.5"/>
  </g>
  <g id="arrowRight" transform="rotate(90) translate(36 -43)">
    <use xlink:href="#rim"/>
    <path pointer-events="none" fill="none" stroke="white" stroke-width="1.5" d="M0,-3.0v7 M-2.5,-0.5L0,-3.0L2.5,-0.5"/>
  </g>
  <g id="arrowDown" transform="rotate(180) translate(-30 -48)">
    <use xlink:href="#rim"/>
    <path pointer-events="none" fill="none" stroke="white" stroke-width="1.5" d="M0,-3.0v7 M-2.5,-0.5L0,-3.0L2.5,-0.5"/>
  </g>
  <g id="arrowLeft" transform="rotate(270) translate(-36 17)">
    <use xlink:href="#rim"/>
    <path pointer-events="none" fill="none" stroke="white" stroke-width="1.5" d="M0,-3.0v7 M-2.5,-0.5L0,-3.0L2.5,-0.5"/>
  </g>
  <g id="resetDef">
    <use xlink:href="#rim2" fill="#404040"><set attributeName="fill" to="#808080" begin="reset.mouseover" end="reset.mouseout"/></use>
  </g>
</defs>
<script type="application/ecmascript">
var viewWidth = 1155;
var viewHeight = 82;
var sectionId = 'dynsection-1';
</script>
<script type="application/ecmascript" xlink:href="svg.min.js"/>
<svg id="graph" class="graph">
<g id="viewport">
<title>pulse&#45;monitor.h</title>
<!-- Node1 -->
<g id="Node000001" class="node">
<title>Node1</title>
<g id="a_Node000001"><a xlink:title=" ">
<polygon fill="#999999" stroke="#666666" points="600,-74 511,-74 511,-55 600,-55 600,-74"/>
<text text-anchor="middle" x="555.5" y="-62" font-family="Inter" font-size="10.00">pulse&#45;monitor.h</text>
</a>
</g>
</g>
<!-- Node2 -->
<g id="Node000002" class="node">
<title>Node2</title>
<g id="a_Node000002"><a xlink:href="pulse-connection_8c.html" target="_top" xlink:title=" ">
<polygon fill="white" stroke="#666666" points="103,-19 0,-19 0,0 103,0 103,-19"/>
<text text-anchor="middle" x="51.5" y="-7" font-family="Inter" font-size="10.00">pulse&#45;connection.c</text>
</a>
</g>
</g>
<!-- Node1&#45;&gt;Node2 -->
<g id="edge1_Node000001_Node000002" class="edge">
<title>Node1&#45;&gt;Node2</title>
<g id="a_edge1_Node000001_Node000002"><a xlink:title=" ">
<path fill="none" stroke="#63b8ff" d="M500.62,-58.73C416.68,-51.26 251.41,-35.91 111.5,-19 108.78,-18.67 106,-18.32 103.19,-17.96"/>
<polygon fill="#63b8ff" stroke="#63b8ff" points="500.42,-62.22 510.69,-59.62 501.04,-55.25 500.42,-62.22"/>
</a>
</g>
</g>
<!-- Node3 -->
<g id="Node000003" class="node">
<title>Node3</title>
<g id="a_Node000003"><a xlink:href="pulse-monitor_8c.html" target="_top" xlink:title=" ">
<polygon fill="white" stroke="#666666" points="208,-19 121,-19 121,0 208,0 208,-19"/>
<text text-anchor="middle" x="164.5" y="-7" font-family="Inter" font-size="10.00">pulse&#45;monitor.c</text>
</a>
</g>
</g>
<!-- Node1&#45;&gt;Node3 -->
<g id="edge2_Node000001_Node000003" class="edge">
<title>Node1&#45;&gt;Node3</title>
<g id="a_edge2_Node000001_Node000003"><a xlink:title=" ">
<path fill="none" stroke="#63b8ff" d="M500.41,-56.81C433.27,-48.53 316.42,-33.72 216.5,-19 213.79,-18.6 210.99,-18.18 208.18,-17.74"/>
<polygon fill="#63b8ff" stroke="#63b8ff" points="500.39,-60.33 510.74,-58.08 501.25,-53.39 500.39,-60.33"/>
</a>
</g>
</g>
<!-- Node4 -->
<g id="Node000004" class="node">
<title>Node4</title>
<g id="a_Node000004"><a xlink:href="pulse-sink-control_8c.html" target="_top" xlink:title=" ">
<polygon fill="white" stroke="#666666" points="331,-19 226,-19 226,0 331,0 331,-19"/>
<text text-anchor="middle" x="278.5" y="-7" font-family="Inter" font-size="10.00">pulse&#45;sink&#45;control.c</text>
</a>
</g>
</g>
<!-- Node1&#45;&gt;Node4 -->
<g id="edge3_Node000001_Node000004" class="edge">
<title>Node1&#45;&gt;Node4</title>
<g id="a_edge3_Node000001_Node000004"><a xlink:title=" ">
<path fill="none" stroke="#63b8ff" d="M500.96,-53.07C449.03,-43.13 371.81,-28.35 323.35,-19.08"/>
<polygon fill="#63b8ff" stroke="#63b8ff" points="500.52,-56.54 511,-54.98 501.83,-49.67 500.52,-56.54"/>
</a>
</g>
</g>
<!-- Node5 -->
<g id="Node000005" class="node">
<title>Node5</title>
<g id="a_Node000005"><a xlink:href="pulse-sink-input_8c.html" target="_top" xlink:title=" ">
<polygon fill="white" stroke="#666666" points="446,-19 349,-19 349,0 446,0 446,-19"/>
<text text-anchor="middle" x="397.5" y="-7" font-family="Inter" font-size="10.00">pulse&#45;sink&#45;input.c</text>
</a>
</g>
</g>
<!-- Node1&#45;&gt;Node5 -->
<g id="edge4_Node000001_Node000005" class="edge">
<title>Node1&#45;&gt;Node5</title>
<g id="a_edge4_Node000001_Node000005"><a xlink:title=" ">
<path fill="none" stroke="#63b8ff" d="M520.62,-51.8C491.13,-41.91 449.57,-27.97 423.08,-19.08"/>
<polygon fill="#63b8ff" stroke="#63b8ff" points="519.52,-55.12 530.11,-54.98 521.75,-48.49 519.52,-55.12"/>
</a>
</g>
</g>
<!-- Node6 -->
<g id="Node000006" class="node">
<title>Node6</title>
<g id="a_Node000006"><a xlink:href="pulse-sink_8c.html" target="_top" xlink:title=" ">
<polygon fill="white" stroke="#666666" points="534.5,-19 464.5,-19 464.5,0 534.5,0 534.5,-19"/>
<text text-anchor="middle" x="499.5" y="-7" font-family="Inter" font-size="10.00">pulse&#45;sink.c</text>
</a>
</g>
</g>
<!-- Node1&#45;&gt;Node6 -->
<g id="edge5_Node000001_Node000006" class="edge">
<title>Node1&#45;&gt;Node6</title>
<g id="a_edge5_Node000001_Node000006"><a xlink:title=" ">
<path fill="none" stroke="#63b8ff" d="M539.17,-48.04C529.24,-38.64 516.91,-26.98 508.66,-19.17"/>
<polygon fill="#63b8ff" stroke="#63b8ff" points="536.83,-50.65 546.5,-54.98 541.65,-45.57 536.83,-50.65"/>
</a>
</g>
</g>
<!-- Node7 -->
<g id="Node000007" class="node">
<title>Node7</title>
<g id="a_Node000007"><a xlink:href="pulse-source-control_8c.html" target="_top" xlink:title=" ">
<polygon fill="white" stroke="#666666" points="670.5,-19 552.5,-19 552.5,0 670.5,0 670.5,-19"/>
<text text-anchor="middle" x="611.5" y="-7" font-family="Inter" font-size="10.00">pulse&#45;source&#45;control.c</text>
</a>
</g>
</g>
<!-- Node1&#45;&gt;Node7 -->
<g id="edge6_Node000001_Node000007" class="edge">
<title>Node1&#45;&gt;Node7</title>
<g id="a_edge6_Node000001_Node000007"><a xlink:title=" ">
<path fill="none" stroke="#63b8ff" d="M571.83,-48.04C581.76,-38.64 594.09,-26.98 602.34,-19.17"/>
<polygon fill="#63b8ff" stroke="#63b8ff" points="569.35,-45.57 564.5,-54.98 574.17,-50.65 569.35,-45.57"/>
</a>
</g>
</g>
<!-- Node8 -->
<g id="Node000008" class="node">
<title>Node8</title>
<g id="a_Node000008"><a xlink:href="pulse-source-output_8c.html" target="_top" xlink:title=" ">
<polygon fill="white" stroke="#666666" points="806,-19 689,-19 689,0 806,0 806,-19"/>
<text text-anchor="middle" x="747.5" y="-7" font-family="Inter" font-size="10.00">pulse&#45;source&#45;output.c</text>
</a>
</g>
</g>
<!-- Node1&#45;&gt;Node8 -->
<g id="edge7_Node000001_Node000008" class="edge">
<title>Node1&#45;&gt;Node8</title>
<g id="a_edge7_Node000001_Node000008"><a xlink:title=" ">
<path fill="none" stroke="#63b8ff" d="M596.03,-52.31C631.96,-42.39 683.66,-28.12 716.41,-19.08"/>
<polygon fill="#63b8ff" stroke="#63b8ff" points="595.06,-48.95 586.35,-54.98 596.92,-55.7 595.06,-48.95"/>
</a>
</g>
</g>
<!-- Node9 -->
<g id="Node000009" class="node">
<title>Node9</title>
<g id="a_Node000009"><a xlink:href="pulse-source_8c.html" target="_top" xlink:title=" ">
<polygon fill="white" stroke="#666666" points="907,-19 824,-19 824,0 907,0 907,-19"/>
<text text-anchor="middle" x="865.5" y="-7" font-family="Inter" font-size="10.00">pulse&#45;source.c</text>
</a>
</g>
</g>
<!-- Node1&#45;&gt;Node9 -->
<g id="edge8_Node000001_Node000009" class="edge">
<title>Node1&#45;&gt;Node9</title>
<g id="a_edge8_Node000001_Node000009"><a xlink:title=" ">
<path fill="none" stroke="#63b8ff" d="M610.46,-54.1C671.49,-43.67 768.64,-27.06 823.75,-17.64"/>
<polygon fill="#63b8ff" stroke="#63b8ff" points="609.51,-50.71 600.25,-55.85 610.69,-57.61 609.51,-50.71"/>
</a>
</g>
</g>
<!-- Node10 -->
<g id="Node000010" class="node">
<title>Node10</title>
<g id="a_Node000010"><a xlink:href="pulse-stream-control_8c.html" target="_top" xlink:title=" ">
<polygon fill="white" stroke="#666666" points="1044,-19 925,-19 925,0 1044,0 1044,-19"/>
<text text-anchor="middle" x="984.5" y="-7" font-family="Inter" font-size="10.00">pulse&#45;stream&#45;control.c</text>
</a>
</g>
</g>
<!-- Node1&#45;&gt;Node10 -->
<g id="edge9_Node000001_Node000010" class="edge">
<title>Node1&#45;&gt;Node10</title>
<g id="a_edge9_Node000001_Node000010"><a xlink:title=" ">
<path fill="none" stroke="#63b8ff" d="M610.26,-56.78C681,-48.09 807.94,-32.48 916.5,-19 919.22,-18.66 921.99,-18.32 924.8,-17.97"/>
<polygon fill="#63b8ff" stroke="#63b8ff" points="609.74,-53.32 600.24,-58.01 610.6,-60.26 609.74,-53.32"/>
</a>
</g>
</g>
<!-- Node11 -->
<g id="Node000011" class="node">
<title>Node11</title>
<g id="a_Node000011"><a xlink:href="pulse-stream_8c.html" target="_top" xlink:title=" ">
<polygon fill="white" stroke="#666666" points="1146.5,-19 1062.5,-19 1062.5,0 1146.5,0 1146.5,-19"/>
<text text-anchor="middle" x="1104.5" y="-7" font-family="Inter" font-size="10.00">pulse&#45;stream.c</text>
</a>
</g>
</g>
<!-- Node1&#45;&gt;Node11 -->
<g id="edge10_Node000001_Node000011" class="edge">
<title>Node1&#45;&gt;Node11</title>
<g id="a_edge10_Node000001_Node000011"><a xlink:title=" ">
<path fill="none" stroke="#63b8ff" d="M610.44,-59.96C702.37,-53.74 893.07,-39.51 1053.5,-19 1056.35,-18.64 1059.28,-18.23 1062.24,-17.8"/>
<polygon fill="#63b8ff" stroke="#63b8ff" points="610.01,-56.48 600.26,-60.65 610.48,-63.47 610.01,-56.48"/>
</a>
</g>
</g>
</g>
</svg>

<g id="navigator" transform="translate(0 0)" fill="#404254">
  <rect fill="#f2f5e9" fill-opacity="0.5" stroke="#606060" stroke-width=".5" x="0" y="0" width="60" height="60"/>
  <use id="zoomplus" xlink:href="#zoomPlus" x="17" y="9" onmousedown="handleZoom(evt,'in')"/>
  <use id="zoomminus" xlink:href="#zoomMin" x="42" y="9" onmousedown="handleZoom(evt,'out')"/>
  <use id="reset" xlink:href="#resetDef" x="30" y="36" onmousedown="handleReset()"/>
   <use id="arrowup" xlink:href="#arrowUp" x="0" y="0" onmousedown="handlePan(0,-1)"/>
  <use id="arrowright" xlink:href="#arrowRight" x="0" y="0" onmousedown="handlePan(1,0)"/>
  <use id="arrowdown" xlink:href="#arrowDown" x="0" y="0" onmousedown="handlePan(0,1)"/>
  <use id="arrowleft" xlink:href="#arrowLeft" x="0" y="0" onmousedown="handlePan(-1,0)"/>
</g>
<svg viewBox="0 0 15 15" width="100%" height="30px" preserveAspectRatio="xMaxYMin meet">
 <g id="arrow_out" transform="scale(0.3 0.3)">
  <a xlink:href="pulse-monitor_8h__dep__incl_org.svg" target="_base">
   <rect id="button" ry="5" rx="5" y="6" x="6" height="38" width="38"
        fill="#f2f5e9" fill-opacity="0.5" stroke="#606060" stroke-width="1.0"/>
   <path id="arrow"
     d="M 11.500037,31.436501 C 11.940474,20.09759 22.043105,11.32322 32.158766,21.979434 L 37.068811,17.246167 C 37.068811,17.246167 37.088388,32 37.088388,32 L 22.160133,31.978069 C 22.160133,31.978069 26.997745,27.140456 26.997745,27.140456 C 18.528582,18.264221 13.291696,25.230495 11.500037,31.436501 z"
     style="fill:#404040;"/>
  </a>
 </g>
</svg>

<style type='text/css'>
<![CDATA[
[data-mouse-over-selected='false'] { opacity: 0.7; }
[data-mouse-over-selected='true']  { opacity: 1.0; }
]]>
</style>
<script type="application/ecmascript"><![CDATA[
document.addEventListener('DOMContentLoaded', (event) => {
  highlightEdges();
  highlightAdjacentNodes();
});
]]></script>
</svg>
