<?xml version="1.0" encoding="UTF-8" standalone="no"?>
<!DOCTYPE svg PUBLIC "-//W3C//DTD SVG 1.1//EN"
 "http://www.w3.org/Graphics/SVG/1.1/DTD/svg11.dtd">
<!-- Generated by graphviz version 2.43.0 (0)
 -->
<!-- Title: pulse&#45;source.h Pages: 1 -->
<svg width="472pt" height="192pt"
 viewBox="0.00 0.00 472.22 192.00" xmlns="http://www.w3.org/2000/svg" xmlns:xlink="http://www.w3.org/1999/xlink">

<svg id="main" version="1.1" xmlns="http://www.w3.org/2000/svg" xmlns:xlink="http://www.w3.org/1999/xlink" xml:space="preserve">

<style type="text/css"><![CDATA[
.node, .edge {opacity: 0.7;}
.node.selected, .edge.selected {opacity: 1;}
.edge:hover path { stroke: red; }
.edge:hover polygon { stroke: red; fill: red; }
]]></style>
<script type="application/ecmascript" xlink:href="svg.min.js"/>
<svg id="graph" class="graph">
<g id="graph0" class="graph" transform="scale(1 1) rotate(0) translate(4 188)">
<title>pulse&#45;source.h</title>
<!-- Node1 -->
<g id="Node000001" class="node">
<title>Node1</title>
<g id="a_Node000001"><a xlink:title=" ">
<polygon fill="#999999" stroke="#666666" points="286.48,-184 202.48,-184 202.48,-165 286.48,-165 286.48,-184"/>
<text text-anchor="middle" x="244.48" y="-172" font-family="Inter" font-size="10.00">pulse&#45;source.h</text>
</a>
</g>
</g>
<!-- Node2 -->
<g id="Node000002" class="node">
<title>Node2</title>
<g id="a_Node000002"><a xlink:title=" ">
<polygon fill="#e0e0e0" stroke="#999999" points="167.48,-19 125.48,-19 125.48,0 167.48,0 167.48,-19"/>
<text text-anchor="middle" x="146.48" y="-7" font-family="Inter" font-size="10.00">glib.h</text>
</a>
</g>
</g>
<!-- Node1&#45;&gt;Node2 -->
<g id="edge1_Node000001_Node000002" class="edge">
<title>Node1&#45;&gt;Node2</title>
<g id="a_edge1_Node000001_Node000002"><a xlink:title=" ">
<path fill="none" stroke="#63b8ff" d="M202.38,-169.77C146.42,-162.29 49.49,-140 5.48,-74 -22.35,-32.28 65.5,-17.63 115.03,-12.77"/>
<polygon fill="#63b8ff" stroke="#63b8ff" points="115.61,-16.23 125.26,-11.84 114.98,-9.26 115.61,-16.23"/>
</a>
</g>
</g>
<!-- Node3 -->
<g id="Node000003" class="node">
<title>Node3</title>
<g id="a_Node000003"><a xlink:title=" ">
<polygon fill="#e0e0e0" stroke="#999999" points="379.48,-19 305.48,-19 305.48,0 379.48,0 379.48,-19"/>
<text text-anchor="middle" x="342.48" y="-7" font-family="Inter" font-size="10.00">glib&#45;object.h</text>
</a>
</g>
</g>
<!-- Node1&#45;&gt;Node3 -->
<g id="edge2_Node000001_Node000003" class="edge">
<title>Node1&#45;&gt;Node3</title>
<g id="a_edge2_Node000001_Node000003"><a xlink:title=" ">
<path fill="none" stroke="#63b8ff" d="M286.9,-167.58C337.96,-157.93 421.57,-133.49 459.48,-74 479.05,-43.27 430.16,-26.31 389.69,-17.81"/>
<polygon fill="#63b8ff" stroke="#63b8ff" points="390.12,-14.33 379.63,-15.83 388.77,-21.2 390.12,-14.33"/>
</a>
</g>
</g>
<!-- Node4 -->
<g id="Node000004" class="node">
<title>Node4</title>
<g id="a_Node000004"><a xlink:title=" ">
<polygon fill="#e0e0e0" stroke="#999999" points="118.48,-74 14.48,-74 14.48,-55 118.48,-55 118.48,-74"/>
<text text-anchor="middle" x="66.48" y="-62" font-family="Inter" font-size="10.00">pulse/pulseaudio.h</text>
</a>
</g>
</g>
<!-- Node1&#45;&gt;Node4 -->
<g id="edge3_Node000001_Node000004" class="edge">
<title>Node1&#45;&gt;Node4</title>
<g id="a_edge3_Node000001_Node000004"><a xlink:title=" ">
<path fill="none" stroke="#63b8ff" d="M230.21,-164.84C199.49,-146.2 126.82,-102.11 89.49,-79.46"/>
<polygon fill="#63b8ff" stroke="#63b8ff" points="91.17,-76.39 80.81,-74.2 87.54,-82.38 91.17,-76.39"/>
</a>
</g>
</g>
<!-- Node5 -->
<g id="Node000005" class="node">
<title>Node5</title>
<g id="a_Node000005"><a xlink:href="pulse-stream_8h.html" target="_top" xlink:title=" ">
<polygon fill="white" stroke="#666666" points="287.48,-129 201.48,-129 201.48,-110 287.48,-110 287.48,-129"/>
<text text-anchor="middle" x="244.48" y="-117" font-family="Inter" font-size="10.00">pulse&#45;stream.h</text>
</a>
</g>
</g>
<!-- Node1&#45;&gt;Node5 -->
<g id="edge4_Node000001_Node000005" class="edge">
<title>Node1&#45;&gt;Node5</title>
<g id="a_edge4_Node000001_Node000005"><a xlink:title=" ">
<path fill="none" stroke="#63b8ff" d="M244.48,-164.75C244.48,-157.8 244.48,-147.85 244.48,-139.13"/>
<polygon fill="#63b8ff" stroke="#63b8ff" points="247.98,-139.09 244.48,-129.09 240.98,-139.09 247.98,-139.09"/>
</a>
</g>
</g>
<!-- Node23 -->
<g id="Node000023" class="node">
<title>Node23</title>
<g id="a_Node000023"><a xlink:href="pulse-types_8h.html" target="_top" xlink:title=" ">
<polygon fill="white" stroke="#666666" points="449.98,-74 370.98,-74 370.98,-55 449.98,-55 449.98,-74"/>
<text text-anchor="middle" x="410.48" y="-62" font-family="Inter" font-size="10.00">pulse&#45;types.h</text>
</a>
</g>
</g>
<!-- Node1&#45;&gt;Node23 -->
<g id="edge12_Node000001_Node000023" class="edge">
<title>Node1&#45;&gt;Node23</title>
<g id="a_edge12_Node000001_Node000023"><a xlink:title=" ">
<path fill="none" stroke="#63b8ff" d="M257.78,-164.84C286.31,-146.28 353.62,-102.49 388.57,-79.75"/>
<polygon fill="#63b8ff" stroke="#63b8ff" points="390.64,-82.58 397.11,-74.2 386.82,-76.72 390.64,-82.58"/>
</a>
</g>
</g>
<!-- Node5&#45;&gt;Node2 -->
<g id="edge5_Node000005_Node000002" class="edge">
<title>Node5&#45;&gt;Node2</title>
<g id="a_edge5_Node000005_Node000002"><a xlink:title=" ">
<path fill="none" stroke="#63b8ff" d="M218.99,-109.97C201.57,-102.91 179.24,-91.22 165.48,-74 155.26,-61.22 150.53,-43.05 148.35,-29.41"/>
<polygon fill="#63b8ff" stroke="#63b8ff" points="151.79,-28.72 147.04,-19.25 144.84,-29.61 151.79,-28.72"/>
</a>
</g>
</g>
<!-- Node5&#45;&gt;Node3 -->
<g id="edge6_Node000005_Node000003" class="edge">
<title>Node5&#45;&gt;Node3</title>
<g id="a_edge6_Node000005_Node000003"><a xlink:title=" ">
<path fill="none" stroke="#63b8ff" d="M269.96,-109.97C287.38,-102.91 309.72,-91.22 323.48,-74 333.69,-61.22 338.42,-43.05 340.61,-29.41"/>
<polygon fill="#63b8ff" stroke="#63b8ff" points="344.11,-29.61 341.91,-19.25 337.17,-28.72 344.11,-29.61"/>
</a>
</g>
</g>
<!-- Node5&#45;&gt;Node4 -->
<g id="edge10_Node000005_Node000004" class="edge">
<title>Node5&#45;&gt;Node4</title>
<g id="a_edge10_Node000005_Node000004"><a xlink:title=" ">
<path fill="none" stroke="#63b8ff" d="M215.88,-109.98C185.86,-101.05 138.5,-86.94 105.16,-77.02"/>
<polygon fill="#63b8ff" stroke="#63b8ff" points="105.88,-73.58 95.3,-74.08 103.88,-80.29 105.88,-73.58"/>
</a>
</g>
</g>
<!-- Node6 -->
<g id="Node000006" class="node">
<title>Node6</title>
<g id="a_Node000006"><a xlink:href="matemixer_8h.html" target="_top" xlink:title=" ">
<polygon fill="#fff0f0" stroke="red" points="314.48,-74 174.48,-74 174.48,-55 314.48,-55 314.48,-74"/>
<text text-anchor="middle" x="244.48" y="-62" font-family="Inter" font-size="10.00">libmatemixer/matemixer.h</text>
</a>
</g>
</g>
<!-- Node5&#45;&gt;Node6 -->
<g id="edge7_Node000005_Node000006" class="edge">
<title>Node5&#45;&gt;Node6</title>
<g id="a_edge7_Node000005_Node000006"><a xlink:title=" ">
<path fill="none" stroke="#63b8ff" d="M244.48,-109.75C244.48,-102.8 244.48,-92.85 244.48,-84.13"/>
<polygon fill="#63b8ff" stroke="#63b8ff" points="247.98,-84.09 244.48,-74.09 240.98,-84.09 247.98,-84.09"/>
</a>
</g>
</g>
<!-- Node5&#45;&gt;Node23 -->
<g id="edge11_Node000005_Node000023" class="edge">
<title>Node5&#45;&gt;Node23</title>
<g id="a_edge11_Node000005_Node000023"><a xlink:title=" ">
<path fill="none" stroke="#63b8ff" d="M271.15,-109.98C299.02,-101.09 342.93,-87.07 374,-77.15"/>
<polygon fill="#63b8ff" stroke="#63b8ff" points="375.13,-80.46 383.6,-74.08 373.01,-73.79 375.13,-80.46"/>
</a>
</g>
</g>
<!-- Node6&#45;&gt;Node2 -->
<g id="edge8_Node000006_Node000002" class="edge">
<title>Node6&#45;&gt;Node2</title>
<g id="a_edge8_Node000006_Node000002"><a xlink:title=" ">
<path fill="none" stroke="#63b8ff" d="M228.73,-54.98C213.25,-46.61 189.38,-33.7 171.34,-23.95"/>
<polygon fill="#63b8ff" stroke="#63b8ff" points="172.97,-20.85 162.51,-19.17 169.64,-27.01 172.97,-20.85"/>
</a>
</g>
</g>
<!-- Node6&#45;&gt;Node3 -->
<g id="edge9_Node000006_Node000003" class="edge">
<title>Node6&#45;&gt;Node3</title>
<g id="a_edge9_Node000006_Node000003"><a xlink:title=" ">
<path fill="none" stroke="#63b8ff" d="M260.22,-54.98C275.7,-46.61 299.57,-33.7 317.61,-23.95"/>
<polygon fill="#63b8ff" stroke="#63b8ff" points="319.31,-27.01 326.44,-19.17 315.98,-20.85 319.31,-27.01"/>
</a>
</g>
</g>
</g>
</svg>
</svg>

<style type='text/css'>
<![CDATA[
[data-mouse-over-selected='false'] { opacity: 0.7; }
[data-mouse-over-selected='true']  { opacity: 1.0; }
]]>
</style>
<script type="application/ecmascript"><![CDATA[
document.addEventListener('DOMContentLoaded', (event) => {
  highlightEdges();
  highlightAdjacentNodes();
});
]]></script>
</svg>
