<?xml version="1.0" encoding="UTF-8" standalone="no"?>
<!DOCTYPE svg PUBLIC "-//W3C//DTD SVG 1.1//EN"
 "http://www.w3.org/Graphics/SVG/1.1/DTD/svg11.dtd">
<!-- Generated by graphviz version 2.43.0 (0)
 -->
<!-- Title: pulse&#45;monitor.c Pages: 1 -->
<svg width="362pt" height="137pt"
 viewBox="0.00 0.00 362.00 137.00" xmlns="http://www.w3.org/2000/svg" xmlns:xlink="http://www.w3.org/1999/xlink">

<svg id="main" version="1.1" xmlns="http://www.w3.org/2000/svg" xmlns:xlink="http://www.w3.org/1999/xlink" xml:space="preserve">

<style type="text/css"><![CDATA[
.node, .edge {opacity: 0.7;}
.node.selected, .edge.selected {opacity: 1;}
.edge:hover path { stroke: red; }
.edge:hover polygon { stroke: red; fill: red; }
]]></style>
<script type="application/ecmascript" xlink:href="svg.min.js"/>
<svg id="graph" class="graph">
<g id="graph0" class="graph" transform="scale(1 1) rotate(0) translate(4 133)">
<title>pulse&#45;monitor.c</title>
<!-- Node1 -->
<g id="Node000001" class="node">
<title>Node1</title>
<g id="a_Node000001"><a xlink:title=" ">
<polygon fill="#999999" stroke="#666666" points="213.5,-129 126.5,-129 126.5,-110 213.5,-110 213.5,-129"/>
<text text-anchor="middle" x="170" y="-117" font-family="Inter" font-size="10.00">pulse&#45;monitor.c</text>
</a>
</g>
</g>
<!-- Node2 -->
<g id="Node000002" class="node">
<title>Node2</title>
<g id="a_Node000002"><a xlink:title=" ">
<polygon fill="#e0e0e0" stroke="#999999" points="42,-19 0,-19 0,0 42,0 42,-19"/>
<text text-anchor="middle" x="21" y="-7" font-family="Inter" font-size="10.00">glib.h</text>
</a>
</g>
</g>
<!-- Node1&#45;&gt;Node2 -->
<g id="edge1_Node000001_Node000002" class="edge">
<title>Node1&#45;&gt;Node2</title>
<g id="a_edge1_Node000001_Node000002"><a xlink:title=" ">
<path fill="none" stroke="#63b8ff" d="M156.46,-109.92C142.78,-101.15 121.15,-87.03 103,-74 80.91,-58.14 56.34,-38.89 39.91,-25.77"/>
<polygon fill="#63b8ff" stroke="#63b8ff" points="41.68,-22.7 31.69,-19.18 37.3,-28.16 41.68,-22.7"/>
</a>
</g>
</g>
<!-- Node3 -->
<g id="Node000003" class="node">
<title>Node3</title>
<g id="a_Node000003"><a xlink:title=" ">
<polygon fill="#e0e0e0" stroke="#999999" points="343,-74 271,-74 271,-55 343,-55 343,-74"/>
<text text-anchor="middle" x="307" y="-62" font-family="Inter" font-size="10.00">glib/gi18n.h</text>
</a>
</g>
</g>
<!-- Node1&#45;&gt;Node3 -->
<g id="edge2_Node000001_Node000003" class="edge">
<title>Node1&#45;&gt;Node3</title>
<g id="a_edge2_Node000001_Node000003"><a xlink:title=" ">
<path fill="none" stroke="#63b8ff" d="M192.01,-109.98C214.45,-101.3 249.48,-87.75 274.99,-77.88"/>
<polygon fill="#63b8ff" stroke="#63b8ff" points="276.52,-81.04 284.59,-74.17 274,-74.51 276.52,-81.04"/>
</a>
</g>
</g>
<!-- Node4 -->
<g id="Node000004" class="node">
<title>Node4</title>
<g id="a_Node000004"><a xlink:title=" ">
<polygon fill="#e0e0e0" stroke="#999999" points="134,-19 60,-19 60,0 134,0 134,-19"/>
<text text-anchor="middle" x="97" y="-7" font-family="Inter" font-size="10.00">glib&#45;object.h</text>
</a>
</g>
</g>
<!-- Node1&#45;&gt;Node4 -->
<g id="edge3_Node000001_Node000004" class="edge">
<title>Node1&#45;&gt;Node4</title>
<g id="a_edge3_Node000001_Node000004"><a xlink:title=" ">
<path fill="none" stroke="#63b8ff" d="M155.89,-109.95C143.92,-102.03 127.14,-89.19 117,-74 107.97,-60.48 102.83,-42.65 100.03,-29.33"/>
<polygon fill="#63b8ff" stroke="#63b8ff" points="103.45,-28.59 98.19,-19.39 96.56,-29.86 103.45,-28.59"/>
</a>
</g>
</g>
<!-- Node5 -->
<g id="Node000005" class="node">
<title>Node5</title>
<g id="a_Node000005"><a xlink:title=" ">
<polygon fill="#e0e0e0" stroke="#999999" points="354,-19 250,-19 250,0 354,0 354,-19"/>
<text text-anchor="middle" x="302" y="-7" font-family="Inter" font-size="10.00">pulse/pulseaudio.h</text>
</a>
</g>
</g>
<!-- Node1&#45;&gt;Node5 -->
<g id="edge4_Node000001_Node000005" class="edge">
<title>Node1&#45;&gt;Node5</title>
<g id="a_edge4_Node000001_Node000005"><a xlink:title=" ">
<path fill="none" stroke="#63b8ff" d="M180.8,-109.66C203.35,-91.22 255.62,-48.45 283.58,-25.57"/>
<polygon fill="#63b8ff" stroke="#63b8ff" points="285.89,-28.2 291.42,-19.16 281.46,-22.78 285.89,-28.2"/>
</a>
</g>
</g>
<!-- Node6 -->
<g id="Node000006" class="node">
<title>Node6</title>
<g id="a_Node000006"><a xlink:href="pulse-monitor_8h.html" target="_top" xlink:title=" ">
<polygon fill="white" stroke="#666666" points="214.5,-74 125.5,-74 125.5,-55 214.5,-55 214.5,-74"/>
<text text-anchor="middle" x="170" y="-62" font-family="Inter" font-size="10.00">pulse&#45;monitor.h</text>
</a>
</g>
</g>
<!-- Node1&#45;&gt;Node6 -->
<g id="edge5_Node000001_Node000006" class="edge">
<title>Node1&#45;&gt;Node6</title>
<g id="a_edge5_Node000001_Node000006"><a xlink:title=" ">
<path fill="none" stroke="#63b8ff" d="M170,-109.75C170,-102.8 170,-92.85 170,-84.13"/>
<polygon fill="#63b8ff" stroke="#63b8ff" points="173.5,-84.09 170,-74.09 166.5,-84.09 173.5,-84.09"/>
</a>
</g>
</g>
<!-- Node6&#45;&gt;Node2 -->
<g id="edge6_Node000006_Node000002" class="edge">
<title>Node6&#45;&gt;Node2</title>
<g id="a_edge6_Node000006_Node000002"><a xlink:title=" ">
<path fill="none" stroke="#63b8ff" d="M146.06,-54.98C120.56,-45.92 80.11,-31.53 52.15,-21.58"/>
<polygon fill="#63b8ff" stroke="#63b8ff" points="53.06,-18.19 42.46,-18.13 50.71,-24.78 53.06,-18.19"/>
</a>
</g>
</g>
<!-- Node6&#45;&gt;Node4 -->
<g id="edge7_Node000006_Node000004" class="edge">
<title>Node6&#45;&gt;Node4</title>
<g id="a_edge7_Node000006_Node000004"><a xlink:title=" ">
<path fill="none" stroke="#63b8ff" d="M158.27,-54.98C147.27,-47 130.58,-34.88 117.4,-25.31"/>
<polygon fill="#63b8ff" stroke="#63b8ff" points="119.09,-22.21 108.94,-19.17 114.98,-27.88 119.09,-22.21"/>
</a>
</g>
</g>
<!-- Node6&#45;&gt;Node5 -->
<g id="edge8_Node000006_Node000005" class="edge">
<title>Node6&#45;&gt;Node5</title>
<g id="a_edge8_Node000006_Node000005"><a xlink:title=" ">
<path fill="none" stroke="#63b8ff" d="M191.21,-54.98C212.73,-46.34 246.28,-32.87 270.83,-23.02"/>
<polygon fill="#63b8ff" stroke="#63b8ff" points="272.43,-26.14 280.41,-19.17 269.82,-19.65 272.43,-26.14"/>
</a>
</g>
</g>
<!-- Node7 -->
<g id="Node000007" class="node">
<title>Node7</title>
<g id="a_Node000007"><a xlink:href="pulse-types_8h.html" target="_top" xlink:title=" ">
<polygon fill="white" stroke="#666666" points="231.5,-19 152.5,-19 152.5,0 231.5,0 231.5,-19"/>
<text text-anchor="middle" x="192" y="-7" font-family="Inter" font-size="10.00">pulse&#45;types.h</text>
</a>
</g>
</g>
<!-- Node6&#45;&gt;Node7 -->
<g id="edge9_Node000006_Node000007" class="edge">
<title>Node6&#45;&gt;Node7</title>
<g id="a_edge9_Node000006_Node000007"><a xlink:title=" ">
<path fill="none" stroke="#63b8ff" d="M173.63,-54.75C176.58,-47.65 180.83,-37.4 184.51,-28.56"/>
<polygon fill="#63b8ff" stroke="#63b8ff" points="187.83,-29.67 188.43,-19.09 181.37,-26.98 187.83,-29.67"/>
</a>
</g>
</g>
</g>
</svg>
</svg>

<style type='text/css'>
<![CDATA[
[data-mouse-over-selected='false'] { opacity: 0.7; }
[data-mouse-over-selected='true']  { opacity: 1.0; }
]]>
</style>
<script type="application/ecmascript"><![CDATA[
document.addEventListener('DOMContentLoaded', (event) => {
  highlightEdges();
  highlightAdjacentNodes();
});
]]></script>
</svg>
