<?xml version="1.0" encoding="UTF-8" standalone="no"?>
<!DOCTYPE svg PUBLIC "-//W3C//DTD SVG 1.1//EN"
 "http://www.w3.org/Graphics/SVG/1.1/DTD/svg11.dtd">
<!-- Generated by graphviz version 2.43.0 (0)
 -->
<!-- Title: screenshot&#45;save.h Pages: 1 -->
<svg width="352pt" height="82pt"
 viewBox="0.00 0.00 351.50 82.00" xmlns="http://www.w3.org/2000/svg" xmlns:xlink="http://www.w3.org/1999/xlink">
<g id="graph0" class="graph" transform="scale(1 1) rotate(0) translate(4 78)">
<title>screenshot&#45;save.h</title>
<!-- Node1 -->
<g id="Node000001" class="node">
<title>Node1</title>
<g id="a_Node000001"><a xlink:title=" ">
<polygon fill="#999999" stroke="#666666" points="223.5,-74 122.5,-74 122.5,-55 223.5,-55 223.5,-74"/>
<text text-anchor="middle" x="173" y="-62" font-family="Inter" font-size="10.00">screenshot&#45;save.h</text>
</a>
</g>
</g>
<!-- Node2 -->
<g id="Node000002" class="node">
<title>Node2</title>
<g id="a_Node000002"><a xlink:href="mate-screenshot_8c.html" target="_top" xlink:title=" ">
<polygon fill="white" stroke="#666666" points="102,-19 0,-19 0,0 102,0 102,-19"/>
<text text-anchor="middle" x="51" y="-7" font-family="Inter" font-size="10.00">mate&#45;screenshot.c</text>
</a>
</g>
</g>
<!-- Node1&#45;&gt;Node2 -->
<g id="edge1_Node000001_Node000002" class="edge">
<title>Node1&#45;&gt;Node2</title>
<g id="a_edge1_Node000001_Node000002"><a xlink:title=" ">
<path fill="none" stroke="#63b8ff" d="M143.99,-50.9C121.46,-41.11 90.8,-27.79 70.96,-19.17"/>
<polygon fill="#63b8ff" stroke="#63b8ff" points="142.83,-54.21 153.4,-54.98 145.62,-47.79 142.83,-54.21"/>
</a>
</g>
</g>
<!-- Node3 -->
<g id="Node000003" class="node">
<title>Node3</title>
<g id="a_Node000003"><a xlink:href="screenshot-dialog_8c.html" target="_top" xlink:title=" ">
<polygon fill="white" stroke="#666666" points="226,-19 120,-19 120,0 226,0 226,-19"/>
<text text-anchor="middle" x="173" y="-7" font-family="Inter" font-size="10.00">screenshot&#45;dialog.c</text>
</a>
</g>
</g>
<!-- Node1&#45;&gt;Node3 -->
<g id="edge2_Node000001_Node000003" class="edge">
<title>Node1&#45;&gt;Node3</title>
<g id="a_edge2_Node000001_Node000003"><a xlink:title=" ">
<path fill="none" stroke="#63b8ff" d="M173,-44.66C173,-35.93 173,-25.99 173,-19.09"/>
<polygon fill="#63b8ff" stroke="#63b8ff" points="169.5,-44.75 173,-54.75 176.5,-44.75 169.5,-44.75"/>
</a>
</g>
</g>
<!-- Node4 -->
<g id="Node000004" class="node">
<title>Node4</title>
<g id="a_Node000004"><a xlink:href="screenshot-save_8c.html" target="_top" xlink:title=" ">
<polygon fill="white" stroke="#666666" points="343.5,-19 244.5,-19 244.5,0 343.5,0 343.5,-19"/>
<text text-anchor="middle" x="294" y="-7" font-family="Inter" font-size="10.00">screenshot&#45;save.c</text>
</a>
</g>
</g>
<!-- Node1&#45;&gt;Node4 -->
<g id="edge3_Node000001_Node000004" class="edge">
<title>Node1&#45;&gt;Node4</title>
<g id="a_edge3_Node000001_Node000004"><a xlink:title=" ">
<path fill="none" stroke="#63b8ff" d="M201.77,-50.9C224.12,-41.11 254.52,-27.79 274.21,-19.17"/>
<polygon fill="#63b8ff" stroke="#63b8ff" points="200.2,-47.77 192.44,-54.98 203,-54.18 200.2,-47.77"/>
</a>
</g>
</g>
</g>
</svg>
