<?xml version="1.0" encoding="UTF-8" standalone="no"?>
<!DOCTYPE svg PUBLIC "-//W3C//DTD SVG 1.1//EN"
 "http://www.w3.org/Graphics/SVG/1.1/DTD/svg11.dtd">
<!-- Generated by graphviz version 2.43.0 (0)
 -->
<!-- Title: set&#45;timezone.c Pages: 1 -->
<svg width="604pt" height="137pt"
 viewBox="0.00 0.00 603.50 137.00" xmlns="http://www.w3.org/2000/svg" xmlns:xlink="http://www.w3.org/1999/xlink">
<g id="graph0" class="graph" transform="scale(1 1) rotate(0) translate(4 133)">
<title>set&#45;timezone.c</title>
<!-- Node1 -->
<g id="Node000001" class="node">
<title>Node1</title>
<g id="a_Node000001"><a xlink:title=" ">
<polygon fill="#999999" stroke="#666666" points="303,-129 219,-129 219,-110 303,-110 303,-129"/>
<text text-anchor="middle" x="261" y="-117" font-family="Inter" font-size="10.00">set&#45;timezone.c</text>
</a>
</g>
</g>
<!-- Node2 -->
<g id="Node000002" class="node">
<title>Node2</title>
<g id="a_Node000002"><a xlink:title=" ">
<polygon fill="#e0e0e0" stroke="#999999" points="50,-74 0,-74 0,-55 50,-55 50,-74"/>
<text text-anchor="middle" x="25" y="-62" font-family="Inter" font-size="10.00">stdlib.h</text>
</a>
</g>
</g>
<!-- Node1&#45;&gt;Node2 -->
<g id="edge1_Node000001_Node000002" class="edge">
<title>Node1&#45;&gt;Node2</title>
<g id="a_edge1_Node000001_Node000002"><a xlink:title=" ">
<path fill="none" stroke="#63b8ff" d="M220.68,-109.97C181.93,-101.69 121.46,-88.57 60.09,-74.21"/>
<polygon fill="#63b8ff" stroke="#63b8ff" points="60.77,-70.77 50.23,-71.89 59.17,-77.59 60.77,-70.77"/>
</a>
</g>
</g>
<!-- Node3 -->
<g id="Node000003" class="node">
<title>Node3</title>
<g id="a_Node000003"><a xlink:title=" ">
<polygon fill="#e0e0e0" stroke="#999999" points="116,-74 68,-74 68,-55 116,-55 116,-74"/>
<text text-anchor="middle" x="92" y="-62" font-family="Inter" font-size="10.00">stdio.h</text>
</a>
</g>
</g>
<!-- Node1&#45;&gt;Node3 -->
<g id="edge2_Node000001_Node000003" class="edge">
<title>Node1&#45;&gt;Node3</title>
<g id="a_edge2_Node000001_Node000003"><a xlink:title=" ">
<path fill="none" stroke="#63b8ff" d="M233.85,-109.98C204.46,-100.77 157.56,-86.06 125.81,-76.1"/>
<polygon fill="#63b8ff" stroke="#63b8ff" points="126.66,-72.7 116.07,-73.05 124.57,-79.38 126.66,-72.7"/>
</a>
</g>
</g>
<!-- Node4 -->
<g id="Node000004" class="node">
<title>Node4</title>
<g id="a_Node000004"><a xlink:title=" ">
<polygon fill="#e0e0e0" stroke="#999999" points="180,-74 134,-74 134,-55 180,-55 180,-74"/>
<text text-anchor="middle" x="157" y="-62" font-family="Inter" font-size="10.00">fcntl.h</text>
</a>
</g>
</g>
<!-- Node1&#45;&gt;Node4 -->
<g id="edge3_Node000001_Node000004" class="edge">
<title>Node1&#45;&gt;Node4</title>
<g id="a_edge3_Node000001_Node000004"><a xlink:title=" ">
<path fill="none" stroke="#63b8ff" d="M244.29,-109.98C227.79,-101.57 202.3,-88.59 183.12,-78.81"/>
<polygon fill="#63b8ff" stroke="#63b8ff" points="184.51,-75.59 174.01,-74.17 181.33,-81.83 184.51,-75.59"/>
</a>
</g>
</g>
<!-- Node5 -->
<g id="Node000005" class="node">
<title>Node5</title>
<g id="a_Node000005"><a xlink:title=" ">
<polygon fill="#e0e0e0" stroke="#999999" points="252,-74 198,-74 198,-55 252,-55 252,-74"/>
<text text-anchor="middle" x="225" y="-62" font-family="Inter" font-size="10.00">unistd.h</text>
</a>
</g>
</g>
<!-- Node1&#45;&gt;Node5 -->
<g id="edge4_Node000001_Node000005" class="edge">
<title>Node1&#45;&gt;Node5</title>
<g id="a_edge4_Node000001_Node000005"><a xlink:title=" ">
<path fill="none" stroke="#63b8ff" d="M255.06,-109.75C250.02,-102.34 242.66,-91.5 236.49,-82.41"/>
<polygon fill="#63b8ff" stroke="#63b8ff" points="239.35,-80.39 230.83,-74.09 233.56,-84.33 239.35,-80.39"/>
</a>
</g>
</g>
<!-- Node6 -->
<g id="Node000006" class="node">
<title>Node6</title>
<g id="a_Node000006"><a xlink:title=" ">
<polygon fill="#e0e0e0" stroke="#999999" points="323.5,-74 270.5,-74 270.5,-55 323.5,-55 323.5,-74"/>
<text text-anchor="middle" x="297" y="-62" font-family="Inter" font-size="10.00">string.h</text>
</a>
</g>
</g>
<!-- Node1&#45;&gt;Node6 -->
<g id="edge5_Node000001_Node000006" class="edge">
<title>Node1&#45;&gt;Node6</title>
<g id="a_edge5_Node000001_Node000006"><a xlink:title=" ">
<path fill="none" stroke="#63b8ff" d="M266.94,-109.75C271.98,-102.34 279.34,-91.5 285.51,-82.41"/>
<polygon fill="#63b8ff" stroke="#63b8ff" points="288.44,-84.33 291.17,-74.09 282.65,-80.39 288.44,-84.33"/>
</a>
</g>
</g>
<!-- Node7 -->
<g id="Node000007" class="node">
<title>Node7</title>
<g id="a_Node000007"><a xlink:title=" ">
<polygon fill="#e0e0e0" stroke="#999999" points="404,-74 342,-74 342,-55 404,-55 404,-74"/>
<text text-anchor="middle" x="373" y="-62" font-family="Inter" font-size="10.00">sys/wait.h</text>
</a>
</g>
</g>
<!-- Node1&#45;&gt;Node7 -->
<g id="edge6_Node000001_Node000007" class="edge">
<title>Node1&#45;&gt;Node7</title>
<g id="a_edge6_Node000001_Node000007"><a xlink:title=" ">
<path fill="none" stroke="#63b8ff" d="M278.99,-109.98C296.93,-101.5 324.72,-88.35 345.43,-78.54"/>
<polygon fill="#63b8ff" stroke="#63b8ff" points="347.14,-81.61 354.68,-74.17 344.14,-75.28 347.14,-81.61"/>
</a>
</g>
</g>
<!-- Node8 -->
<g id="Node000008" class="node">
<title>Node8</title>
<g id="a_Node000008"><a xlink:title=" ">
<polygon fill="#e0e0e0" stroke="#999999" points="480,-74 422,-74 422,-55 480,-55 480,-74"/>
<text text-anchor="middle" x="451" y="-62" font-family="Inter" font-size="10.00">gio/gio.h</text>
</a>
</g>
</g>
<!-- Node1&#45;&gt;Node8 -->
<g id="edge7_Node000001_Node000008" class="edge">
<title>Node1&#45;&gt;Node8</title>
<g id="a_edge7_Node000001_Node000008"><a xlink:title=" ">
<path fill="none" stroke="#63b8ff" d="M291.53,-109.98C324.18,-100.88 376.07,-86.4 411.74,-76.45"/>
<polygon fill="#63b8ff" stroke="#63b8ff" points="413.11,-79.7 421.8,-73.65 411.22,-72.96 413.11,-79.7"/>
</a>
</g>
</g>
<!-- Node9 -->
<g id="Node000009" class="node">
<title>Node9</title>
<g id="a_Node000009"><a xlink:href="set-timezone_8h.html" target="_top" xlink:title=" ">
<polygon fill="white" stroke="#666666" points="584,-74 498,-74 498,-55 584,-55 584,-74"/>
<text text-anchor="middle" x="541" y="-62" font-family="Inter" font-size="10.00">set&#45;timezone.h</text>
</a>
</g>
</g>
<!-- Node1&#45;&gt;Node9 -->
<g id="edge8_Node000001_Node000009" class="edge">
<title>Node1&#45;&gt;Node9</title>
<g id="a_edge8_Node000001_Node000009"><a xlink:title=" ">
<path fill="none" stroke="#63b8ff" d="M303.22,-110.51C352.59,-101.16 434.37,-85.68 487.98,-75.54"/>
<polygon fill="#63b8ff" stroke="#63b8ff" points="488.8,-78.94 497.97,-73.64 487.5,-72.07 488.8,-78.94"/>
</a>
</g>
</g>
<!-- Node10 -->
<g id="Node000010" class="node">
<title>Node10</title>
<g id="a_Node000010"><a xlink:title=" ">
<polygon fill="#e0e0e0" stroke="#999999" points="530,-19 488,-19 488,0 530,0 530,-19"/>
<text text-anchor="middle" x="509" y="-7" font-family="Inter" font-size="10.00">glib.h</text>
</a>
</g>
</g>
<!-- Node9&#45;&gt;Node10 -->
<g id="edge9_Node000009_Node000010" class="edge">
<title>Node9&#45;&gt;Node10</title>
<g id="a_edge9_Node000009_Node000010"><a xlink:title=" ">
<path fill="none" stroke="#63b8ff" d="M535.72,-54.75C531.29,-47.42 524.84,-36.73 519.38,-27.7"/>
<polygon fill="#63b8ff" stroke="#63b8ff" points="522.35,-25.84 514.19,-19.09 516.36,-29.46 522.35,-25.84"/>
</a>
</g>
</g>
<!-- Node11 -->
<g id="Node000011" class="node">
<title>Node11</title>
<g id="a_Node000011"><a xlink:title=" ">
<polygon fill="#e0e0e0" stroke="#999999" points="595.5,-19 548.5,-19 548.5,0 595.5,0 595.5,-19"/>
<text text-anchor="middle" x="572" y="-7" font-family="Inter" font-size="10.00">time.h</text>
</a>
</g>
</g>
<!-- Node9&#45;&gt;Node11 -->
<g id="edge10_Node000009_Node000011" class="edge">
<title>Node9&#45;&gt;Node11</title>
<g id="a_edge10_Node000009_Node000011"><a xlink:title=" ">
<path fill="none" stroke="#63b8ff" d="M546.12,-54.75C550.36,-47.49 556.53,-36.95 561.78,-27.98"/>
<polygon fill="#63b8ff" stroke="#63b8ff" points="564.95,-29.49 566.98,-19.09 558.91,-25.95 564.95,-29.49"/>
</a>
</g>
</g>
</g>
</svg>
