<?xml version="1.0" encoding="UTF-8" standalone="no"?>
<!DOCTYPE svg PUBLIC "-//W3C//DTD SVG 1.1//EN"
 "http://www.w3.org/Graphics/SVG/1.1/DTD/svg11.dtd">
<!-- Generated by graphviz version 2.43.0 (0)
 -->
<!-- Title: skey.h Pages: 1 -->
<svg width="463pt" height="82pt"
 viewBox="0.00 0.00 463.00 82.00" xmlns="http://www.w3.org/2000/svg" xmlns:xlink="http://www.w3.org/1999/xlink">
<g id="graph0" class="graph" transform="scale(1 1) rotate(0) translate(4 78)">
<title>skey.h</title>
<!-- Node1 -->
<g id="Node000001" class="node">
<title>Node1</title>
<g id="a_Node000001"><a xlink:title=" ">
<polygon fill="#999999" stroke="#666666" points="236.5,-74 191.5,-74 191.5,-55 236.5,-55 236.5,-74"/>
<text text-anchor="middle" x="214" y="-62" font-family="Inter" font-size="10.00">skey.h</text>
</a>
</g>
</g>
<!-- Node2 -->
<g id="Node000002" class="node">
<title>Node2</title>
<g id="a_Node000002"><a xlink:href="btoe_8c.html" target="_top" xlink:title=" ">
<polygon fill="white" stroke="#666666" points="46,-19 0,-19 0,0 46,0 46,-19"/>
<text text-anchor="middle" x="23" y="-7" font-family="Inter" font-size="10.00">btoe.c</text>
</a>
</g>
</g>
<!-- Node1&#45;&gt;Node2 -->
<g id="edge1_Node000001_Node000002" class="edge">
<title>Node1&#45;&gt;Node2</title>
<g id="a_edge1_Node000001_Node000002"><a xlink:title=" ">
<path fill="none" stroke="#63b8ff" d="M181.67,-54.53C143.26,-43.87 80.12,-26.35 46.23,-16.95"/>
<polygon fill="#63b8ff" stroke="#63b8ff" points="180.77,-57.91 191.34,-57.21 182.64,-51.17 180.77,-57.91"/>
</a>
</g>
</g>
<!-- Node3 -->
<g id="Node000003" class="node">
<title>Node3</title>
<g id="a_Node000003"><a xlink:href="md4_8c.html" target="_top" xlink:title=" ">
<polygon fill="white" stroke="#666666" points="109.5,-19 64.5,-19 64.5,0 109.5,0 109.5,-19"/>
<text text-anchor="middle" x="87" y="-7" font-family="Inter" font-size="10.00">md4.c</text>
</a>
</g>
</g>
<!-- Node1&#45;&gt;Node3 -->
<g id="edge2_Node000001_Node000003" class="edge">
<title>Node1&#45;&gt;Node3</title>
<g id="a_edge2_Node000001_Node000003"><a xlink:title=" ">
<path fill="none" stroke="#63b8ff" d="M184.12,-51.03C160.63,-41.23 128.53,-27.83 107.78,-19.17"/>
<polygon fill="#63b8ff" stroke="#63b8ff" points="183.02,-54.36 193.6,-54.98 185.71,-47.9 183.02,-54.36"/>
</a>
</g>
</g>
<!-- Node4 -->
<g id="Node000004" class="node">
<title>Node4</title>
<g id="a_Node000004"><a xlink:href="md5_8c.html" target="_top" xlink:title=" ">
<polygon fill="white" stroke="#666666" points="172.5,-19 127.5,-19 127.5,0 172.5,0 172.5,-19"/>
<text text-anchor="middle" x="150" y="-7" font-family="Inter" font-size="10.00">md5.c</text>
</a>
</g>
</g>
<!-- Node1&#45;&gt;Node4 -->
<g id="edge3_Node000001_Node000004" class="edge">
<title>Node1&#45;&gt;Node4</title>
<g id="a_edge3_Node000001_Node000004"><a xlink:title=" ">
<path fill="none" stroke="#63b8ff" d="M196.01,-48.6C184.54,-39.11 170.09,-27.13 160.47,-19.17"/>
<polygon fill="#63b8ff" stroke="#63b8ff" points="193.78,-51.3 203.72,-54.98 198.25,-45.91 193.78,-51.3"/>
</a>
</g>
</g>
<!-- Node5 -->
<g id="Node000005" class="node">
<title>Node5</title>
<g id="a_Node000005"><a xlink:href="sha1_8c.html" target="_top" xlink:title=" ">
<polygon fill="white" stroke="#666666" points="237,-19 191,-19 191,0 237,0 237,-19"/>
<text text-anchor="middle" x="214" y="-7" font-family="Inter" font-size="10.00">sha1.c</text>
</a>
</g>
</g>
<!-- Node1&#45;&gt;Node5 -->
<g id="edge4_Node000001_Node000005" class="edge">
<title>Node1&#45;&gt;Node5</title>
<g id="a_edge4_Node000001_Node000005"><a xlink:title=" ">
<path fill="none" stroke="#63b8ff" d="M214,-44.66C214,-35.93 214,-25.99 214,-19.09"/>
<polygon fill="#63b8ff" stroke="#63b8ff" points="210.5,-44.75 214,-54.75 217.5,-44.75 210.5,-44.75"/>
</a>
</g>
</g>
<!-- Node6 -->
<g id="Node000006" class="node">
<title>Node6</title>
<g id="a_Node000006"><a xlink:href="skey-popup_8c.html" target="_top" xlink:title=" ">
<polygon fill="white" stroke="#666666" points="332.5,-19 255.5,-19 255.5,0 332.5,0 332.5,-19"/>
<text text-anchor="middle" x="294" y="-7" font-family="Inter" font-size="10.00">skey&#45;popup.c</text>
</a>
</g>
</g>
<!-- Node1&#45;&gt;Node6 -->
<g id="edge5_Node000001_Node000006" class="edge">
<title>Node1&#45;&gt;Node6</title>
<g id="a_edge5_Node000001_Node000006"><a xlink:title=" ">
<path fill="none" stroke="#63b8ff" d="M235.25,-49.42C249.76,-39.81 268.54,-27.37 280.91,-19.17"/>
<polygon fill="#63b8ff" stroke="#63b8ff" points="233.26,-46.54 226.85,-54.98 237.12,-52.38 233.26,-46.54"/>
</a>
</g>
</g>
<!-- Node7 -->
<g id="Node000007" class="node">
<title>Node7</title>
<g id="a_Node000007"><a xlink:href="skey_8c.html" target="_top" xlink:title=" ">
<polygon fill="white" stroke="#666666" points="395,-19 351,-19 351,0 395,0 395,-19"/>
<text text-anchor="middle" x="373" y="-7" font-family="Inter" font-size="10.00">skey.c</text>
</a>
</g>
</g>
<!-- Node1&#45;&gt;Node7 -->
<g id="edge6_Node000001_Node000007" class="edge">
<title>Node1&#45;&gt;Node7</title>
<g id="a_edge6_Node000001_Node000007"><a xlink:title=" ">
<path fill="none" stroke="#63b8ff" d="M246.3,-52.73C277.4,-42.37 323.6,-26.97 350.77,-17.91"/>
<polygon fill="#63b8ff" stroke="#63b8ff" points="245.16,-49.42 236.78,-55.91 247.37,-56.06 245.16,-49.42"/>
</a>
</g>
</g>
<!-- Node8 -->
<g id="Node000008" class="node">
<title>Node8</title>
<g id="a_Node000008"><a xlink:href="mate-terminal_2src_2skey_2test_8c.html" target="_top" xlink:title=" ">
<polygon fill="white" stroke="#666666" points="455,-19 413,-19 413,0 455,0 455,-19"/>
<text text-anchor="middle" x="434" y="-7" font-family="Inter" font-size="10.00">test.c</text>
</a>
</g>
</g>
<!-- Node1&#45;&gt;Node8 -->
<g id="edge7_Node000001_Node000008" class="edge">
<title>Node1&#45;&gt;Node8</title>
<g id="a_edge7_Node000001_Node000008"><a xlink:title=" ">
<path fill="none" stroke="#63b8ff" d="M246.57,-56.35C284.5,-47.91 348.99,-33.23 404,-19 406.83,-18.27 409.8,-17.47 412.73,-16.66"/>
<polygon fill="#63b8ff" stroke="#63b8ff" points="245.61,-52.98 236.6,-58.56 247.12,-59.81 245.61,-52.98"/>
</a>
</g>
</g>
</g>
</svg>
