<?xml version="1.0" encoding="UTF-8" standalone="no"?>
<!DOCTYPE svg PUBLIC "-//W3C//DTD SVG 1.1//EN"
 "http://www.w3.org/Graphics/SVG/1.1/DTD/svg11.dtd">
<!-- Generated by graphviz version 2.43.0 (0)
 -->
<!-- Title: slab&#45;section.h Pages: 1 -->
<svg width="422pt" height="192pt"
 viewBox="0.00 0.00 421.50 192.00" xmlns="http://www.w3.org/2000/svg" xmlns:xlink="http://www.w3.org/1999/xlink">

<svg id="main" version="1.1" xmlns="http://www.w3.org/2000/svg" xmlns:xlink="http://www.w3.org/1999/xlink" xml:space="preserve">

<style type="text/css"><![CDATA[
.node, .edge {opacity: 0.7;}
.node.selected, .edge.selected {opacity: 1;}
.edge:hover path { stroke: red; }
.edge:hover polygon { stroke: red; fill: red; }
]]></style>
<script type="application/ecmascript" xlink:href="svg.min.js"/>
<svg id="graph" class="graph">
<g id="graph0" class="graph" transform="scale(1 1) rotate(0) translate(4 188)">
<title>slab&#45;section.h</title>
<!-- Node1 -->
<g id="Node000001" class="node">
<title>Node1</title>
<g id="a_Node000001"><a xlink:title=" ">
<polygon fill="#999999" stroke="#666666" points="309.5,-184 229.5,-184 229.5,-165 309.5,-165 309.5,-184"/>
<text text-anchor="middle" x="269.5" y="-172" font-family="Inter" font-size="10.00">slab&#45;section.h</text>
</a>
</g>
</g>
<!-- Node2 -->
<g id="Node000002" class="node">
<title>Node2</title>
<g id="a_Node000002"><a xlink:href="app-shell_8c.html" target="_top" xlink:title=" ">
<polygon fill="white" stroke="#666666" points="65,-19 0,-19 0,0 65,0 65,-19"/>
<text text-anchor="middle" x="32.5" y="-7" font-family="Inter" font-size="10.00">app&#45;shell.c</text>
</a>
</g>
</g>
<!-- Node1&#45;&gt;Node2 -->
<g id="edge1_Node000001_Node000002" class="edge">
<title>Node1&#45;&gt;Node2</title>
<g id="a_edge1_Node000001_Node000002"><a xlink:title=" ">
<path fill="none" stroke="#63b8ff" d="M219.11,-170.76C157.16,-164.38 54.37,-143.29 6.5,-74 -5.69,-56.36 12.12,-32.13 23.76,-19.3"/>
<polygon fill="#63b8ff" stroke="#63b8ff" points="219.15,-174.28 229.43,-171.73 219.8,-167.31 219.15,-174.28"/>
</a>
</g>
</g>
<!-- Node3 -->
<g id="Node000003" class="node">
<title>Node3</title>
<g id="a_Node000003"><a xlink:href="app-shell_8h.html" target="_top" xlink:title=" ">
<polygon fill="white" stroke="#666666" points="232,-129 165,-129 165,-110 232,-110 232,-129"/>
<text text-anchor="middle" x="198.5" y="-117" font-family="Inter" font-size="10.00">app&#45;shell.h</text>
</a>
</g>
</g>
<!-- Node1&#45;&gt;Node3 -->
<g id="edge2_Node000001_Node000003" class="edge">
<title>Node1&#45;&gt;Node3</title>
<g id="a_edge2_Node000001_Node000003"><a xlink:title=" ">
<path fill="none" stroke="#63b8ff" d="M249.91,-158.88C237.13,-149.34 220.89,-137.21 210.11,-129.17"/>
<polygon fill="#63b8ff" stroke="#63b8ff" points="247.99,-161.81 258.09,-164.98 252.17,-156.2 247.99,-161.81"/>
</a>
</g>
</g>
<!-- Node7 -->
<g id="Node000007" class="node">
<title>Node7</title>
<g id="a_Node000007"><a xlink:href="slab_8h.html" target="_top" xlink:title=" ">
<polygon fill="#fff0f0" stroke="red" points="194.5,-19 150.5,-19 150.5,0 194.5,0 194.5,-19"/>
<text text-anchor="middle" x="172.5" y="-7" font-family="Inter" font-size="10.00">slab.h</text>
</a>
</g>
</g>
<!-- Node1&#45;&gt;Node7 -->
<g id="edge14_Node000001_Node000007" class="edge">
<title>Node1&#45;&gt;Node7</title>
<g id="a_edge14_Node000001_Node000007"><a xlink:title=" ">
<path fill="none" stroke="#63b8ff" d="M266.19,-154.86C261.11,-130.2 249.58,-86.22 227.5,-55 216.72,-39.76 199.35,-26.93 187.02,-19.02"/>
<polygon fill="#63b8ff" stroke="#63b8ff" points="262.76,-155.55 268.08,-164.71 269.63,-154.23 262.76,-155.55"/>
</a>
</g>
</g>
<!-- Node10 -->
<g id="Node000010" class="node">
<title>Node10</title>
<g id="a_Node000010"><a xlink:href="slab-section_8c.html" target="_top" xlink:title=" ">
<polygon fill="white" stroke="#666666" points="413.5,-129 335.5,-129 335.5,-110 413.5,-110 413.5,-129"/>
<text text-anchor="middle" x="374.5" y="-117" font-family="Inter" font-size="10.00">slab&#45;section.c</text>
</a>
</g>
</g>
<!-- Node1&#45;&gt;Node10 -->
<g id="edge13_Node000001_Node000010" class="edge">
<title>Node1&#45;&gt;Node10</title>
<g id="a_edge13_Node000001_Node000010"><a xlink:title=" ">
<path fill="none" stroke="#63b8ff" d="M295.52,-160.37C314.8,-150.63 340.55,-137.64 357.32,-129.17"/>
<polygon fill="#63b8ff" stroke="#63b8ff" points="293.72,-157.35 286.37,-164.98 296.87,-163.6 293.72,-157.35"/>
</a>
</g>
</g>
<!-- Node3&#45;&gt;Node2 -->
<g id="edge8_Node000003_Node000002" class="edge">
<title>Node3&#45;&gt;Node2</title>
<g id="a_edge8_Node000003_Node000002"><a xlink:title=" ">
<path fill="none" stroke="#63b8ff" d="M154.49,-113.93C106.21,-107.9 33.34,-95.45 16.5,-74 3.72,-57.72 17.2,-32.5 26.06,-19.27"/>
<polygon fill="#63b8ff" stroke="#63b8ff" points="154.34,-117.43 164.68,-115.15 155.17,-110.48 154.34,-117.43"/>
</a>
</g>
</g>
<!-- Node4 -->
<g id="Node000004" class="node">
<title>Node4</title>
<g id="a_Node000004"><a xlink:href="app-resizer_8c.html" target="_top" xlink:title=" ">
<polygon fill="white" stroke="#666666" points="299.5,-19 225.5,-19 225.5,0 299.5,0 299.5,-19"/>
<text text-anchor="middle" x="262.5" y="-7" font-family="Inter" font-size="10.00">app&#45;resizer.c</text>
</a>
</g>
</g>
<!-- Node3&#45;&gt;Node4 -->
<g id="edge3_Node000003_Node000004" class="edge">
<title>Node3&#45;&gt;Node4</title>
<g id="a_edge3_Node000003_Node000004"><a xlink:title=" ">
<path fill="none" stroke="#63b8ff" d="M210.06,-101.41C215.5,-93.21 221.98,-83.19 227.5,-74 239.03,-54.79 251.45,-31.59 257.94,-19.24"/>
<polygon fill="#63b8ff" stroke="#63b8ff" points="207.13,-99.5 204.47,-109.76 212.94,-103.39 207.13,-99.5"/>
</a>
</g>
</g>
<!-- Node5 -->
<g id="Node000005" class="node">
<title>Node5</title>
<g id="a_Node000005"><a xlink:href="app-resizer_8h.html" target="_top" xlink:title=" ">
<polygon fill="#fff0f0" stroke="red" points="203,-74 128,-74 128,-55 203,-55 203,-74"/>
<text text-anchor="middle" x="165.5" y="-62" font-family="Inter" font-size="10.00">app&#45;resizer.h</text>
</a>
</g>
</g>
<!-- Node3&#45;&gt;Node5 -->
<g id="edge4_Node000003_Node000005" class="edge">
<title>Node3&#45;&gt;Node5</title>
<g id="a_edge4_Node000003_Node000005"><a xlink:title=" ">
<path fill="none" stroke="#63b8ff" d="M187.67,-101.1C182.03,-92.04 175.38,-81.37 170.85,-74.09"/>
<polygon fill="#63b8ff" stroke="#63b8ff" points="184.79,-103.11 193.05,-109.75 190.74,-99.41 184.79,-103.11"/>
</a>
</g>
</g>
<!-- Node3&#45;&gt;Node7 -->
<g id="edge12_Node000003_Node000007" class="edge">
<title>Node3&#45;&gt;Node7</title>
<g id="a_edge12_Node000003_Node000007"><a xlink:title=" ">
<path fill="none" stroke="#63b8ff" d="M207.95,-100.42C213.41,-87.48 218.18,-69.81 212.5,-55 206.85,-40.26 193.81,-27.33 184.14,-19.27"/>
<polygon fill="#63b8ff" stroke="#63b8ff" points="204.7,-99.09 203.61,-109.63 211.04,-102.08 204.7,-99.09"/>
</a>
</g>
</g>
<!-- Node9 -->
<g id="Node000009" class="node">
<title>Node9</title>
<g id="a_Node000009"><a xlink:href="shell-window_8h.html" target="_top" xlink:title=" ">
<polygon fill="#fff0f0" stroke="red" points="110,-74 25,-74 25,-55 110,-55 110,-74"/>
<text text-anchor="middle" x="67.5" y="-62" font-family="Inter" font-size="10.00">shell&#45;window.h</text>
</a>
</g>
</g>
<!-- Node3&#45;&gt;Node9 -->
<g id="edge9_Node000003_Node000009" class="edge">
<title>Node3&#45;&gt;Node9</title>
<g id="a_edge9_Node000003_Node000009"><a xlink:title=" ">
<path fill="none" stroke="#63b8ff" d="M168,-106.16C143.75,-96.35 110.43,-82.87 88.93,-74.17"/>
<polygon fill="#63b8ff" stroke="#63b8ff" points="166.87,-109.48 177.45,-109.98 169.5,-102.99 166.87,-109.48"/>
</a>
</g>
</g>
<!-- Node5&#45;&gt;Node2 -->
<g id="edge6_Node000005_Node000002" class="edge">
<title>Node5&#45;&gt;Node2</title>
<g id="a_edge6_Node000005_Node000002"><a xlink:title=" ">
<path fill="none" stroke="#63b8ff" d="M134.53,-51.16C109.91,-41.35 76.09,-27.87 54.26,-19.17"/>
<polygon fill="#63b8ff" stroke="#63b8ff" points="133.55,-54.53 144.13,-54.98 136.14,-48.03 133.55,-54.53"/>
</a>
</g>
</g>
<!-- Node5&#45;&gt;Node4 -->
<g id="edge5_Node000005_Node000004" class="edge">
<title>Node5&#45;&gt;Node4</title>
<g id="a_edge5_Node000005_Node000004"><a xlink:title=" ">
<path fill="none" stroke="#63b8ff" d="M190.27,-49.97C208,-40.28 231.35,-27.52 246.63,-19.17"/>
<polygon fill="#63b8ff" stroke="#63b8ff" points="188.18,-47.12 181.08,-54.98 191.54,-53.26 188.18,-47.12"/>
</a>
</g>
</g>
<!-- Node5&#45;&gt;Node7 -->
<g id="edge7_Node000005_Node000007" class="edge">
<title>Node5&#45;&gt;Node7</title>
<g id="a_edge7_Node000005_Node000007"><a xlink:title=" ">
<path fill="none" stroke="#63b8ff" d="M167.99,-44.66C169.14,-35.93 170.45,-25.99 171.37,-19.09"/>
<polygon fill="#63b8ff" stroke="#63b8ff" points="164.5,-44.38 166.66,-54.75 171.44,-45.29 164.5,-44.38"/>
</a>
</g>
</g>
<!-- Node9&#45;&gt;Node2 -->
<g id="edge10_Node000009_Node000002" class="edge">
<title>Node9&#45;&gt;Node2</title>
<g id="a_edge10_Node000009_Node000002"><a xlink:title=" ">
<path fill="none" stroke="#63b8ff" d="M56.2,-46.39C50.18,-37.27 43.03,-26.45 38.17,-19.09"/>
<polygon fill="#63b8ff" stroke="#63b8ff" points="53.29,-48.33 61.72,-54.75 59.13,-44.47 53.29,-48.33"/>
</a>
</g>
</g>
<!-- Node9&#45;&gt;Node7 -->
<g id="edge11_Node000009_Node000007" class="edge">
<title>Node9&#45;&gt;Node7</title>
<g id="a_edge11_Node000009_Node000007"><a xlink:title=" ">
<path fill="none" stroke="#63b8ff" d="M93.52,-50.37C112.8,-40.63 138.55,-27.64 155.32,-19.17"/>
<polygon fill="#63b8ff" stroke="#63b8ff" points="91.72,-47.35 84.37,-54.98 94.87,-53.6 91.72,-47.35"/>
</a>
</g>
</g>
</g>
</svg>
</svg>

<style type='text/css'>
<![CDATA[
[data-mouse-over-selected='false'] { opacity: 0.7; }
[data-mouse-over-selected='true']  { opacity: 1.0; }
]]>
</style>
<script type="application/ecmascript"><![CDATA[
document.addEventListener('DOMContentLoaded', (event) => {
  highlightEdges();
  highlightAdjacentNodes();
});
]]></script>
</svg>
