<?xml version="1.0" encoding="UTF-8" standalone="no"?>
<!DOCTYPE svg PUBLIC "-//W3C//DTD SVG 1.1//EN"
 "http://www.w3.org/Graphics/SVG/1.1/DTD/svg11.dtd">
<!-- Generated by graphviz version 2.43.0 (0)
 -->
<!-- Title: stickynotes_callbacks.h Pages: 1 -->
<svg width="234pt" height="137pt"
 viewBox="0.00 0.00 234.00 137.00" xmlns="http://www.w3.org/2000/svg" xmlns:xlink="http://www.w3.org/1999/xlink">
<g id="graph0" class="graph" transform="scale(1 1) rotate(0) translate(4 133)">
<title>stickynotes_callbacks.h</title>
<!-- Node1 -->
<g id="Node000001" class="node">
<title>Node1</title>
<g id="a_Node000001"><a xlink:title=" ">
<polygon fill="#999999" stroke="#666666" points="170.5,-129 48.5,-129 48.5,-110 170.5,-110 170.5,-129"/>
<text text-anchor="middle" x="109.5" y="-117" font-family="Inter" font-size="10.00">stickynotes_callbacks.h</text>
</a>
</g>
</g>
<!-- Node2 -->
<g id="Node000002" class="node">
<title>Node2</title>
<g id="a_Node000002"><a xlink:href="stickynotes_8h.html" target="_top" xlink:title=" ">
<polygon fill="white" stroke="#666666" points="148,-74 71,-74 71,-55 148,-55 148,-74"/>
<text text-anchor="middle" x="109.5" y="-62" font-family="Inter" font-size="10.00">stickynotes.h</text>
</a>
</g>
</g>
<!-- Node1&#45;&gt;Node2 -->
<g id="edge1_Node000001_Node000002" class="edge">
<title>Node1&#45;&gt;Node2</title>
<g id="a_edge1_Node000001_Node000002"><a xlink:title=" ">
<path fill="none" stroke="#63b8ff" d="M109.5,-109.75C109.5,-102.8 109.5,-92.85 109.5,-84.13"/>
<polygon fill="#63b8ff" stroke="#63b8ff" points="113,-84.09 109.5,-74.09 106,-84.09 113,-84.09"/>
</a>
</g>
</g>
<!-- Node3 -->
<g id="Node000003" class="node">
<title>Node3</title>
<g id="a_Node000003"><a xlink:title=" ">
<polygon fill="#e0e0e0" stroke="#999999" points="97,-19 0,-19 0,0 97,0 97,-19"/>
<text text-anchor="middle" x="48.5" y="-7" font-family="Inter" font-size="10.00">libwnck/libwnck.h</text>
</a>
</g>
</g>
<!-- Node2&#45;&gt;Node3 -->
<g id="edge2_Node000002_Node000003" class="edge">
<title>Node2&#45;&gt;Node3</title>
<g id="a_edge2_Node000002_Node000003"><a xlink:title=" ">
<path fill="none" stroke="#63b8ff" d="M99.7,-54.98C90.68,-47.15 77.09,-35.34 66.18,-25.86"/>
<polygon fill="#63b8ff" stroke="#63b8ff" points="68.32,-23.09 58.48,-19.17 63.73,-28.37 68.32,-23.09"/>
</a>
</g>
</g>
<!-- Node4 -->
<g id="Node000004" class="node">
<title>Node4</title>
<g id="a_Node000004"><a xlink:href="stickynotes__applet_8h.html" target="_top" xlink:title=" ">
<polygon fill="#fff0f0" stroke="red" points="226,-19 115,-19 115,0 226,0 226,-19"/>
<text text-anchor="middle" x="170.5" y="-7" font-family="Inter" font-size="10.00">stickynotes_applet.h</text>
</a>
</g>
</g>
<!-- Node2&#45;&gt;Node4 -->
<g id="edge3_Node000002_Node000004" class="edge">
<title>Node2&#45;&gt;Node4</title>
<g id="a_edge3_Node000002_Node000004"><a xlink:title=" ">
<path fill="none" stroke="#63b8ff" d="M119.3,-54.98C128.32,-47.15 141.91,-35.34 152.82,-25.86"/>
<polygon fill="#63b8ff" stroke="#63b8ff" points="155.27,-28.37 160.52,-19.17 150.68,-23.09 155.27,-28.37"/>
</a>
</g>
</g>
</g>
</svg>
