<?xml version="1.0" encoding="UTF-8" standalone="no"?>
<!DOCTYPE svg PUBLIC "-//W3C//DTD SVG 1.1//EN"
 "http://www.w3.org/Graphics/SVG/1.1/DTD/svg11.dtd">
<!-- Generated by graphviz version 2.43.0 (0)
 -->
<!-- Title: stickynotes_applet_callbacks.h Pages: 1 -->
<svg width="336pt" height="203pt"
 viewBox="0.00 0.00 336.05 203.00" xmlns="http://www.w3.org/2000/svg" xmlns:xlink="http://www.w3.org/1999/xlink">
<g id="graph0" class="graph" transform="scale(1 1) rotate(0) translate(4 199)">
<title>stickynotes_applet_callbacks.h</title>
<!-- Node1 -->
<g id="Node000001" class="node">
<title>Node1</title>
<g id="a_Node000001"><a xlink:title=" ">
<polygon fill="#999999" stroke="#666666" points="234,-195 132,-195 132,-165 234,-165 234,-195"/>
<text text-anchor="start" x="140" y="-183" font-family="Inter" font-size="10.00">stickynotes_applet</text>
<text text-anchor="middle" x="183" y="-172" font-family="Inter" font-size="10.00">_callbacks.h</text>
</a>
</g>
</g>
<!-- Node2 -->
<g id="Node000002" class="node">
<title>Node2</title>
<g id="a_Node000002"><a xlink:href="stickynotes__applet_8h.html" target="_top" xlink:title=" ">
<polygon fill="white" stroke="#666666" points="238.5,-129 127.5,-129 127.5,-110 238.5,-110 238.5,-129"/>
<text text-anchor="middle" x="183" y="-117" font-family="Inter" font-size="10.00">stickynotes_applet.h</text>
</a>
</g>
</g>
<!-- Node1&#45;&gt;Node2 -->
<g id="edge1_Node000001_Node000002" class="edge">
<title>Node1&#45;&gt;Node2</title>
<g id="a_edge1_Node000001_Node000002"><a xlink:title=" ">
<path fill="none" stroke="#63b8ff" d="M183,-164.84C183,-157.21 183,-147.7 183,-139.45"/>
<polygon fill="#63b8ff" stroke="#63b8ff" points="186.5,-139.27 183,-129.27 179.5,-139.27 186.5,-139.27"/>
</a>
</g>
</g>
<!-- Node3 -->
<g id="Node000003" class="node">
<title>Node3</title>
<g id="a_Node000003"><a xlink:title=" ">
<polygon fill="#e0e0e0" stroke="#999999" points="72,-74 0,-74 0,-55 72,-55 72,-74"/>
<text text-anchor="middle" x="36" y="-62" font-family="Inter" font-size="10.00">glib/gi18n.h</text>
</a>
</g>
</g>
<!-- Node2&#45;&gt;Node3 -->
<g id="edge2_Node000002_Node000003" class="edge">
<title>Node2&#45;&gt;Node3</title>
<g id="a_edge2_Node000002_Node000003"><a xlink:title=" ">
<path fill="none" stroke="#63b8ff" d="M159.38,-109.98C135.1,-101.23 97.05,-87.51 69.63,-77.62"/>
<polygon fill="#63b8ff" stroke="#63b8ff" points="70.64,-74.27 60.05,-74.17 68.27,-80.85 70.64,-74.27"/>
</a>
</g>
</g>
<!-- Node4 -->
<g id="Node000004" class="node">
<title>Node4</title>
<g id="a_Node000004"><a xlink:title=" ">
<polygon fill="#e0e0e0" stroke="#999999" points="174,-19 110,-19 110,0 174,0 174,-19"/>
<text text-anchor="middle" x="142" y="-7" font-family="Inter" font-size="10.00">gdk/gdk.h</text>
</a>
</g>
</g>
<!-- Node2&#45;&gt;Node4 -->
<g id="edge3_Node000002_Node000004" class="edge">
<title>Node2&#45;&gt;Node4</title>
<g id="a_edge3_Node000002_Node000004"><a xlink:title=" ">
<path fill="none" stroke="#63b8ff" d="M161.21,-109.87C146.36,-102.69 127.84,-90.91 119,-74 111.06,-58.8 119.7,-40.24 128.56,-27.13"/>
<polygon fill="#63b8ff" stroke="#63b8ff" points="131.42,-29.15 134.54,-19.02 125.79,-24.99 131.42,-29.15"/>
</a>
</g>
</g>
<!-- Node5 -->
<g id="Node000005" class="node">
<title>Node5</title>
<g id="a_Node000005"><a xlink:title=" ">
<polygon fill="#e0e0e0" stroke="#999999" points="252.5,-19 193.5,-19 193.5,0 252.5,0 252.5,-19"/>
<text text-anchor="middle" x="223" y="-7" font-family="Inter" font-size="10.00">gtk/gtk.h</text>
</a>
</g>
</g>
<!-- Node2&#45;&gt;Node5 -->
<g id="edge4_Node000002_Node000005" class="edge">
<title>Node2&#45;&gt;Node5</title>
<g id="a_edge4_Node000002_Node000005"><a xlink:title=" ">
<path fill="none" stroke="#63b8ff" d="M238.55,-116.01C268.73,-111.47 303.73,-100.35 323,-74 342.48,-47.37 298.28,-29.18 262.56,-19.31"/>
<polygon fill="#63b8ff" stroke="#63b8ff" points="263.33,-15.89 252.77,-16.75 261.55,-22.67 263.33,-15.89"/>
</a>
</g>
</g>
<!-- Node6 -->
<g id="Node000006" class="node">
<title>Node6</title>
<g id="a_Node000006"><a xlink:title=" ">
<polygon fill="#e0e0e0" stroke="#999999" points="314,-74 256,-74 256,-55 314,-55 314,-74"/>
<text text-anchor="middle" x="285" y="-62" font-family="Inter" font-size="10.00">gio/gio.h</text>
</a>
</g>
</g>
<!-- Node2&#45;&gt;Node6 -->
<g id="edge5_Node000002_Node000006" class="edge">
<title>Node2&#45;&gt;Node6</title>
<g id="a_edge5_Node000002_Node000006"><a xlink:title=" ">
<path fill="none" stroke="#63b8ff" d="M199.39,-109.98C215.57,-101.57 240.57,-88.59 259.38,-78.81"/>
<polygon fill="#63b8ff" stroke="#63b8ff" points="261.05,-81.89 268.31,-74.17 257.83,-75.68 261.05,-81.89"/>
</a>
</g>
</g>
<!-- Node7 -->
<g id="Node000007" class="node">
<title>Node7</title>
<g id="a_Node000007"><a xlink:href="mate-panel-applet_8h.html" target="_top" xlink:title=" ">
<polygon fill="#fff0f0" stroke="red" points="238,-74 128,-74 128,-55 238,-55 238,-74"/>
<text text-anchor="middle" x="183" y="-62" font-family="Inter" font-size="10.00">mate&#45;panel&#45;applet.h</text>
</a>
</g>
</g>
<!-- Node2&#45;&gt;Node7 -->
<g id="edge6_Node000002_Node000007" class="edge">
<title>Node2&#45;&gt;Node7</title>
<g id="a_edge6_Node000002_Node000007"><a xlink:title=" ">
<path fill="none" stroke="#63b8ff" d="M183,-109.75C183,-102.8 183,-92.85 183,-84.13"/>
<polygon fill="#63b8ff" stroke="#63b8ff" points="186.5,-84.09 183,-74.09 179.5,-84.09 186.5,-84.09"/>
</a>
</g>
</g>
<!-- Node7&#45;&gt;Node4 -->
<g id="edge8_Node000007_Node000004" class="edge">
<title>Node7&#45;&gt;Node4</title>
<g id="a_edge8_Node000007_Node000004"><a xlink:title=" ">
<path fill="none" stroke="#63b8ff" d="M176.23,-54.75C170.44,-47.26 161.94,-36.28 154.86,-27.13"/>
<polygon fill="#63b8ff" stroke="#63b8ff" points="157.53,-24.86 148.64,-19.09 151.99,-29.14 157.53,-24.86"/>
</a>
</g>
</g>
<!-- Node7&#45;&gt;Node5 -->
<g id="edge7_Node000007_Node000005" class="edge">
<title>Node7&#45;&gt;Node5</title>
<g id="a_edge7_Node000007_Node000005"><a xlink:title=" ">
<path fill="none" stroke="#63b8ff" d="M189.61,-54.75C195.26,-47.26 203.54,-36.28 210.45,-27.13"/>
<polygon fill="#63b8ff" stroke="#63b8ff" points="213.29,-29.18 216.52,-19.09 207.7,-24.96 213.29,-29.18"/>
</a>
</g>
</g>
</g>
</svg>
