<?xml version="1.0" encoding="UTF-8" standalone="no"?>
<!DOCTYPE svg PUBLIC "-//W3C//DTD SVG 1.1//EN"
 "http://www.w3.org/Graphics/SVG/1.1/DTD/svg11.dtd">
<!-- Generated by graphviz version 2.43.0 (0)
 -->
<!-- Title: CajaWindowClass Pages: 1 -->
<!--zoomable 186 -->

<svg id="main" version="1.1" xmlns="http://www.w3.org/2000/svg" xmlns:xlink="http://www.w3.org/1999/xlink" xml:space="preserve" onload="init(evt)">

<style type="text/css"><![CDATA[
.node, .edge {opacity: 0.7;}
.node.selected, .edge.selected {opacity: 1;}
.edge:hover path { stroke: red; }
.edge:hover polygon { stroke: red; fill: red; }
]]></style>

<defs>
  <circle id="rim" cx="0" cy="0" r="7"/>
  <circle id="rim2" cx="0" cy="0" r="3.5"/>
  <g id="zoomPlus">
    <use xlink:href="#rim" fill="#404040"><set attributeName="fill" to="#808080" begin="zoomplus.mouseover" end="zoomplus.mouseout"/></use>
    <path d="M-4,0h8M0,-4v8" fill="none" stroke="white" stroke-width="1.5" pointer-events="none"/>
  </g>
  <g id="zoomMin">
    <use xlink:href="#rim" fill="#404040"><set attributeName="fill" to="#808080" begin="zoomminus.mouseover" end="zoomminus.mouseout"/></use>
    <path d="M-4,0h8" fill="none" stroke="white" stroke-width="1.5" pointer-events="none"/>
  </g>
  <g id="arrowUp" transform="translate(30 24)">
    <use xlink:href="#rim"/>
    <path pointer-events="none" fill="none" stroke="white" stroke-width="1.5" d="M0,-3.0v7 M-2.5,-0.5L0,-3.0L2.5,-0.5"/>
  </g>
  <g id="arrowRight" transform="rotate(90) translate(36 -43)">
    <use xlink:href="#rim"/>
    <path pointer-events="none" fill="none" stroke="white" stroke-width="1.5" d="M0,-3.0v7 M-2.5,-0.5L0,-3.0L2.5,-0.5"/>
  </g>
  <g id="arrowDown" transform="rotate(180) translate(-30 -48)">
    <use xlink:href="#rim"/>
    <path pointer-events="none" fill="none" stroke="white" stroke-width="1.5" d="M0,-3.0v7 M-2.5,-0.5L0,-3.0L2.5,-0.5"/>
  </g>
  <g id="arrowLeft" transform="rotate(270) translate(-36 17)">
    <use xlink:href="#rim"/>
    <path pointer-events="none" fill="none" stroke="white" stroke-width="1.5" d="M0,-3.0v7 M-2.5,-0.5L0,-3.0L2.5,-0.5"/>
  </g>
  <g id="resetDef">
    <use xlink:href="#rim2" fill="#404040"><set attributeName="fill" to="#808080" begin="reset.mouseover" end="reset.mouseout"/></use>
  </g>
</defs>
<script type="application/ecmascript">
var viewWidth = 526;
var viewHeight = 186;
var sectionId = 'dynsection-0';
</script>
<script type="application/ecmascript" xlink:href="svg.min.js"/>
<svg id="graph" class="graph">
<g id="viewport">
<title>CajaWindowClass</title>
<!-- Node1 -->
<g id="Node000001" class="node">
<title>Node1</title>
<g id="a_Node000001"><a xlink:title=" ">
<polygon fill="#999999" stroke="#666666" points="280,-19 185,-19 185,0 280,0 280,-19"/>
<text text-anchor="middle" x="232.5" y="-7" font-family="Inter" font-size="10.00">CajaWindowClass</text>
</a>
</g>
</g>
<!-- Node2 -->
<g id="Node000002" class="node">
<title>Node2</title>
<g id="a_Node000002"><a xlink:title=" ">
<polygon fill="white" stroke="#666666" points="237.5,-91 157.5,-91 157.5,-72 237.5,-72 237.5,-91"/>
<text text-anchor="middle" x="197.5" y="-79" font-family="Inter" font-size="10.00">_CajaIconInfo</text>
</a>
</g>
</g>
<!-- Node2&#45;&gt;Node1 -->
<g id="edge1_Node000001_Node000002" class="edge">
<title>Node2&#45;&gt;Node1</title>
<g id="a_edge1_Node000001_Node000002"><a xlink:title=" ">
<path fill="none" stroke="#9a32cd" stroke-dasharray="5,2" d="M194.5,-62.03C194.02,-53.95 194.67,-44.61 198.5,-37 202.27,-29.51 209.24,-23.5 215.9,-19.11"/>
<polygon fill="#9a32cd" stroke="#9a32cd" points="191.02,-62.44 195.64,-71.97 197.97,-61.64 191.02,-62.44"/>
</a>
</g>
<text text-anchor="start" x="201.5" y="-42.5" font-family="Inter" font-size="10.00" fill="grey">get_icon</text>
</g>
<!-- Node3 -->
<g id="Node000003" class="node">
<title>Node3</title>
<g id="a_Node000003"><a xlink:href="structCajaWindowSlot.html" target="_top" xlink:title=" ">
<polygon fill="white" stroke="#666666" points="365,-91 276,-91 276,-72 365,-72 365,-91"/>
<text text-anchor="middle" x="320.5" y="-79" font-family="Inter" font-size="10.00">CajaWindowSlot</text>
</a>
</g>
</g>
<!-- Node3&#45;&gt;Node1 -->
<g id="edge2_Node000001_Node000003" class="edge">
<title>Node3&#45;&gt;Node1</title>
<g id="a_edge2_Node000001_Node000003"><a xlink:title=" ">
<path fill="none" stroke="#9a32cd" stroke-dasharray="5,2" d="M293.56,-66.67C287.09,-62.89 280.36,-58.57 274.5,-54 260.93,-43.41 247.51,-28.53 239.62,-19.21"/>
<polygon fill="#9a32cd" stroke="#9a32cd" points="292.29,-69.96 302.73,-71.77 295.69,-63.85 292.29,-69.96"/>
</a>
</g>
<text text-anchor="start" x="277.5" y="-42.5" font-family="Inter" font-size="10.00" fill="grey">open_slot</text>
</g>
<!-- Node4 -->
<g id="Node000004" class="node">
<title>Node4</title>
<g id="a_Node000004"><a xlink:href="struct__CajaWindowPane.html" target="_top" xlink:title=" ">
<polygon fill="white" stroke="#666666" points="444.5,-19 344.5,-19 344.5,0 444.5,0 444.5,-19"/>
<text text-anchor="middle" x="394.5" y="-7" font-family="Inter" font-size="10.00">_CajaWindowPane</text>
</a>
</g>
</g>
<!-- Node3&#45;&gt;Node4 -->
<g id="edge5_Node000004_Node000003" class="edge">
<title>Node3&#45;&gt;Node4</title>
<g id="a_edge5_Node000004_Node000003"><a xlink:title=" ">
<path fill="none" stroke="#9a32cd" stroke-dasharray="5,2" d="M353.88,-67.45C360.58,-63.79 367.19,-59.33 372.5,-54 382.42,-44.05 388.72,-28.71 391.93,-19.16"/>
<polygon fill="#9a32cd" stroke="#9a32cd" points="352.21,-64.37 344.8,-71.94 355.31,-70.65 352.21,-64.37"/>
</a>
</g>
<text text-anchor="start" x="387" y="-42.5" font-family="Inter" font-size="10.00" fill="grey">active_slot</text>
</g>
<!-- Node4&#45;&gt;Node3 -->
<g id="edge3_Node000003_Node000004" class="edge">
<title>Node4&#45;&gt;Node3</title>
<g id="a_edge3_Node000003_Node000004"><a xlink:title=" ">
<path fill="none" stroke="#9a32cd" stroke-dasharray="5,2" d="M361.12,-23.55C354.42,-27.21 347.81,-31.67 342.5,-37 332.58,-46.95 326.28,-62.29 323.07,-71.84"/>
<polygon fill="#9a32cd" stroke="#9a32cd" points="362.79,-26.63 370.2,-19.06 359.69,-20.35 362.79,-26.63"/>
</a>
</g>
<text text-anchor="start" x="345.5" y="-42.5" font-family="Inter" font-size="10.00" fill="grey">pane</text>
</g>
<!-- Node5 -->
<g id="Node000005" class="node">
<title>Node5</title>
<g id="a_Node000005"><a xlink:href="structCajaWindow.html" target="_top" xlink:title=" ">
<polygon fill="#fff0f0" stroke="red" points="493.5,-178 421.5,-178 421.5,-159 493.5,-159 493.5,-178"/>
<text text-anchor="middle" x="457.5" y="-166" font-family="Inter" font-size="10.00">CajaWindow</text>
</a>
</g>
</g>
<!-- Node5&#45;&gt;Node3 -->
<g id="edge9_Node000003_Node000005" class="edge">
<title>Node5&#45;&gt;Node3</title>
<g id="a_edge9_Node000003_Node000005"><a xlink:title=" ">
<path fill="none" stroke="#9a32cd" stroke-dasharray="5,2" d="M429.43,-153.87C423.18,-150.16 416.83,-145.82 411.5,-141 398.51,-129.25 402.34,-119.73 388.5,-109 378.19,-101 365.16,-95.15 353.28,-91.01"/>
<polygon fill="#9a32cd" stroke="#9a32cd" points="427.95,-157.05 438.39,-158.83 431.34,-150.92 427.95,-157.05"/>
</a>
</g>
<text text-anchor="start" x="414.5" y="-122" font-family="Inter" font-size="10.00" fill="grey">open_callback</text>
</g>
<!-- Node5&#45;&gt;Node4 -->
<g id="edge4_Node000004_Node000005" class="edge">
<title>Node5&#45;&gt;Node4</title>
<g id="a_edge4_Node000004_Node000005"><a xlink:title=" ">
<path fill="none" stroke="#9a32cd" stroke-dasharray="5,2" d="M475.37,-151.36C477.87,-148.19 480.08,-144.69 481.5,-141 486.62,-127.73 484.99,-122.79 481.5,-109 472.56,-73.72 468.13,-62.84 442.5,-37 434.99,-29.43 424.87,-23.41 415.85,-19.04"/>
<polygon fill="#9a32cd" stroke="#9a32cd" points="472.61,-149.19 468.35,-158.89 477.73,-153.96 472.61,-149.19"/>
</a>
</g>
<text text-anchor="start" x="478.5" y="-78.5" font-family="Inter" font-size="10.00" fill="grey">window</text>
</g>
<!-- Node11 -->
<g id="Node000011" class="node">
<title>Node11</title>
<g id="a_Node000011"><a xlink:href="structCajaBookmark.html" target="_top" xlink:title=" ">
<polygon fill="#fff0f0" stroke="red" points="83,-178 0,-178 0,-159 83,-159 83,-178"/>
<text text-anchor="middle" x="41.5" y="-166" font-family="Inter" font-size="10.00">CajaBookmark</text>
</a>
</g>
</g>
<!-- Node11&#45;&gt;Node3 -->
<g id="edge6_Node000003_Node000011" class="edge">
<title>Node11&#45;&gt;Node3</title>
<g id="a_edge6_Node000003_Node000011"><a xlink:title=" ">
<path fill="none" stroke="#9a32cd" stroke-dasharray="5,2" d="M43.08,-148.68C45.26,-135.43 50.4,-118.43 62.5,-109 94.91,-83.75 205.65,-95.34 246.5,-91 256.02,-89.99 266.21,-88.85 275.9,-87.75"/>
<polygon fill="#9a32cd" stroke="#9a32cd" points="39.6,-148.34 41.87,-158.69 46.55,-149.18 39.6,-148.34"/>
</a>
</g>
<text text-anchor="start" x="66" y="-130" font-family="Inter" font-size="10.00" fill="grey">current_location_bookmark</text>
<text text-anchor="start" x="66" y="-115" font-family="Inter" font-size="10.00" fill="grey">last_location_bookmark</text>
</g>
<!-- Node13 -->
<g id="Node000013" class="node">
<title>Node13</title>
<g id="a_Node000013"><a xlink:href="structCajaFile.html" target="_top" xlink:title=" ">
<polygon fill="#fff0f0" stroke="red" points="223,-178 172,-178 172,-159 223,-159 223,-178"/>
<text text-anchor="middle" x="197.5" y="-166" font-family="Inter" font-size="10.00">CajaFile</text>
</a>
</g>
</g>
<!-- Node13&#45;&gt;Node3 -->
<g id="edge7_Node000003_Node000013" class="edge">
<title>Node13&#45;&gt;Node3</title>
<g id="a_edge7_Node000003_Node000013"><a xlink:title=" ">
<path fill="none" stroke="#9a32cd" stroke-dasharray="5,2" d="M198.92,-148.86C200.88,-135.94 205.53,-119.28 216.5,-109 232.4,-94.09 255.49,-87.27 275.88,-84.27"/>
<polygon fill="#9a32cd" stroke="#9a32cd" points="195.42,-148.67 197.79,-158.99 202.37,-149.44 195.42,-148.67"/>
</a>
</g>
<text text-anchor="start" x="219.5" y="-130" font-family="Inter" font-size="10.00" fill="grey">determine_view_file</text>
<text text-anchor="start" x="219.5" y="-115" font-family="Inter" font-size="10.00" fill="grey">viewed_file</text>
</g>
<!-- Node30 -->
<g id="Node000030" class="node">
<title>Node30</title>
<g id="a_Node000030"><a xlink:href="structCajaQueryEditor.html" target="_top" xlink:title=" ">
<polygon fill="#fff0f0" stroke="red" points="366.5,-178 274.5,-178 274.5,-159 366.5,-159 366.5,-178"/>
<text text-anchor="middle" x="320.5" y="-166" font-family="Inter" font-size="10.00">CajaQueryEditor</text>
</a>
</g>
</g>
<!-- Node30&#45;&gt;Node3 -->
<g id="edge8_Node000003_Node000030" class="edge">
<title>Node30&#45;&gt;Node3</title>
<g id="a_edge8_Node000003_Node000030"><a xlink:title=" ">
<path fill="none" stroke="#9a32cd" stroke-dasharray="5,2" d="M320.5,-148.62C320.5,-130.79 320.5,-104.83 320.5,-91.36"/>
<polygon fill="#9a32cd" stroke="#9a32cd" points="317,-148.72 320.5,-158.72 324,-148.72 317,-148.72"/>
</a>
</g>
<text text-anchor="start" x="324" y="-122" font-family="Inter" font-size="10.00" fill="grey">query_editor</text>
</g>
</g>
</svg>

<g id="navigator" transform="translate(0 0)" fill="#404254">
  <rect fill="#f2f5e9" fill-opacity="0.5" stroke="#606060" stroke-width=".5" x="0" y="0" width="60" height="60"/>
  <use id="zoomplus" xlink:href="#zoomPlus" x="17" y="9" onmousedown="handleZoom(evt,'in')"/>
  <use id="zoomminus" xlink:href="#zoomMin" x="42" y="9" onmousedown="handleZoom(evt,'out')"/>
  <use id="reset" xlink:href="#resetDef" x="30" y="36" onmousedown="handleReset()"/>
   <use id="arrowup" xlink:href="#arrowUp" x="0" y="0" onmousedown="handlePan(0,-1)"/>
  <use id="arrowright" xlink:href="#arrowRight" x="0" y="0" onmousedown="handlePan(1,0)"/>
  <use id="arrowdown" xlink:href="#arrowDown" x="0" y="0" onmousedown="handlePan(0,1)"/>
  <use id="arrowleft" xlink:href="#arrowLeft" x="0" y="0" onmousedown="handlePan(-1,0)"/>
</g>
<svg viewBox="0 0 15 15" width="100%" height="30px" preserveAspectRatio="xMaxYMin meet">
 <g id="arrow_out" transform="scale(0.3 0.3)">
  <a xlink:href="structCajaWindowClass__coll__graph_org.svg" target="_base">
   <rect id="button" ry="5" rx="5" y="6" x="6" height="38" width="38"
        fill="#f2f5e9" fill-opacity="0.5" stroke="#606060" stroke-width="1.0"/>
   <path id="arrow"
     d="M 11.500037,31.436501 C 11.940474,20.09759 22.043105,11.32322 32.158766,21.979434 L 37.068811,17.246167 C 37.068811,17.246167 37.088388,32 37.088388,32 L 22.160133,31.978069 C 22.160133,31.978069 26.997745,27.140456 26.997745,27.140456 C 18.528582,18.264221 13.291696,25.230495 11.500037,31.436501 z"
     style="fill:#404040;"/>
  </a>
 </g>
</svg>

<style type='text/css'>
<![CDATA[
[data-mouse-over-selected='false'] { opacity: 0.7; }
[data-mouse-over-selected='true']  { opacity: 1.0; }
]]>
</style>
<script type="application/ecmascript"><![CDATA[
document.addEventListener('DOMContentLoaded', (event) => {
  highlightEdges();
  highlightAdjacentNodes();
});
]]></script>
</svg>
