<?xml version="1.0" encoding="UTF-8" standalone="no"?>
<!DOCTYPE svg PUBLIC "-//W3C//DTD SVG 1.1//EN"
 "http://www.w3.org/Graphics/SVG/1.1/DTD/svg11.dtd">
<!-- Generated by graphviz version 2.43.0 (0)
 -->
<!-- Title: _PanelWidget Pages: 1 -->
<svg width="589pt" height="243pt"
 viewBox="0.00 0.00 589.00 243.00" xmlns="http://www.w3.org/2000/svg" xmlns:xlink="http://www.w3.org/1999/xlink">
<g id="graph0" class="graph" transform="scale(1 1) rotate(0) translate(4 239)">
<title>_PanelWidget</title>
<!-- Node1 -->
<g id="Node000001" class="node">
<title>Node1</title>
<g id="a_Node000001"><a xlink:title=" ">
<polygon fill="#999999" stroke="#666666" points="291,-163 211,-163 211,-144 291,-144 291,-163"/>
<text text-anchor="middle" x="251" y="-151" font-family="Inter" font-size="10.00">_PanelWidget</text>
</a>
</g>
</g>
<!-- Node5 -->
<g id="Node000005" class="node">
<title>Node5</title>
<g id="a_Node000005"><a xlink:title=" ">
<polygon fill="#fff0f0" stroke="red" points="309.5,-91 192.5,-91 192.5,-72 309.5,-72 309.5,-91"/>
<text text-anchor="middle" x="251" y="-79" font-family="Inter" font-size="10.00">_PanelToplevelPrivate</text>
</a>
</g>
</g>
<!-- Node1&#45;&gt;Node5 -->
<g id="edge7_Node000005_Node000001" class="edge">
<title>Node1&#45;&gt;Node5</title>
<g id="a_edge7_Node000005_Node000001"><a xlink:title=" ">
<path fill="none" stroke="#9a32cd" stroke-dasharray="5,2" d="M251,-133.58C251,-119.76 251,-101.68 251,-91.15"/>
<polygon fill="#9a32cd" stroke="#9a32cd" points="247.5,-133.92 251,-143.92 254.5,-133.92 247.5,-133.92"/>
</a>
</g>
<text text-anchor="start" x="254" y="-114.5" font-family="Inter" font-size="10.00" fill="grey">panel_widget</text>
</g>
<!-- Node2 -->
<g id="Node000002" class="node">
<title>Node2</title>
<g id="a_Node000002"><a xlink:href="struct__AppletData.html" target="_top" xlink:title=" ">
<polygon fill="white" stroke="#666666" points="290,-235 216,-235 216,-216 290,-216 290,-235"/>
<text text-anchor="middle" x="253" y="-223" font-family="Inter" font-size="10.00">_AppletData</text>
</a>
</g>
</g>
<!-- Node2&#45;&gt;Node1 -->
<g id="edge1_Node000001_Node000002" class="edge">
<title>Node2&#45;&gt;Node1</title>
<g id="a_edge1_Node000001_Node000002"><a xlink:title=" ">
<path fill="none" stroke="#9a32cd" stroke-dasharray="5,2" d="M252.25,-205.39C252.16,-202.91 252.07,-200.39 252,-198 251.63,-185.92 251.33,-171.95 251.16,-163.17"/>
<polygon fill="#9a32cd" stroke="#9a32cd" points="248.76,-205.81 252.63,-215.67 255.75,-205.54 248.76,-205.81"/>
</a>
</g>
<text text-anchor="start" x="255" y="-186.5" font-family="Inter" font-size="10.00" fill="grey">currently_dragged_applet</text>
</g>
<!-- Node3 -->
<g id="Node000003" class="node">
<title>Node3</title>
<g id="a_Node000003"><a xlink:href="struct__PanelBackground.html" target="_top" xlink:title=" ">
<polygon fill="white" stroke="#666666" points="102,-235 0,-235 0,-216 102,-216 102,-235"/>
<text text-anchor="middle" x="51" y="-223" font-family="Inter" font-size="10.00">_PanelBackground</text>
</a>
</g>
</g>
<!-- Node3&#45;&gt;Node1 -->
<g id="edge2_Node000001_Node000003" class="edge">
<title>Node3&#45;&gt;Node1</title>
<g id="a_edge2_Node000001_Node000003"><a xlink:title=" ">
<path fill="none" stroke="#9a32cd" stroke-dasharray="5,2" d="M85.16,-212.54C125.38,-198.47 191.17,-175.44 226.59,-163.04"/>
<polygon fill="#9a32cd" stroke="#9a32cd" points="83.81,-209.31 75.52,-215.92 86.12,-215.92 83.81,-209.31"/>
</a>
</g>
<text text-anchor="start" x="178.5" y="-186.5" font-family="Inter" font-size="10.00" fill="grey">background</text>
</g>
<!-- Node3&#45;&gt;Node3 -->
<g id="edge3_Node000003_Node000003" class="edge">
<title>Node3&#45;&gt;Node3</title>
<g id="a_edge3_Node000003_Node000003"><a xlink:title=" ">
<path fill="none" stroke="#9a32cd" stroke-dasharray="5,2" d="M112.37,-230.58C117.09,-229.46 120,-227.76 120,-225.5 120,-221.88 112.55,-219.71 102.15,-219.01"/>
<polygon fill="#9a32cd" stroke="#9a32cd" points="111.58,-227.16 102.15,-231.99 112.54,-234.09 111.58,-227.16"/>
</a>
</g>
<text text-anchor="start" x="123" y="-222.5" font-family="Inter" font-size="10.00" fill="grey">notify_changed</text>
</g>
<!-- Node4 -->
<g id="Node000004" class="node">
<title>Node4</title>
<g id="a_Node000004"><a xlink:href="struct__PanelToplevel.html" target="_top" xlink:title=" ">
<polygon fill="white" stroke="#666666" points="199,-19 115,-19 115,0 199,0 199,-19"/>
<text text-anchor="middle" x="157" y="-7" font-family="Inter" font-size="10.00">_PanelToplevel</text>
</a>
</g>
</g>
<!-- Node3&#45;&gt;Node4 -->
<g id="edge5_Node000004_Node000003" class="edge">
<title>Node3&#45;&gt;Node4</title>
<g id="a_edge5_Node000004_Node000003"><a xlink:title=" ">
<path fill="none" stroke="#9a32cd" stroke-dasharray="5,2" d="M56.19,-206.02C62.96,-182.84 75.77,-142.14 91,-109 106.47,-75.34 111.11,-66.89 133,-37 137.55,-30.79 143.32,-24.38 148.06,-19.42"/>
<polygon fill="#9a32cd" stroke="#9a32cd" points="52.75,-205.3 53.36,-215.87 59.48,-207.22 52.75,-205.3"/>
</a>
</g>
<text text-anchor="start" x="94.5" y="-114.5" font-family="Inter" font-size="10.00" fill="grey">background</text>
</g>
<!-- Node4&#45;&gt;Node1 -->
<g id="edge4_Node000001_Node000004" class="edge">
<title>Node4&#45;&gt;Node1</title>
<g id="a_edge4_Node000001_Node000004"><a xlink:title=" ">
<path fill="none" stroke="#9a32cd" stroke-dasharray="5,2" d="M146.53,-28.04C137.8,-45.17 128.48,-71.45 140,-91 156.61,-119.19 191.3,-135.37 217.5,-143.99"/>
<polygon fill="#9a32cd" stroke="#9a32cd" points="149.68,-29.58 151.45,-19.13 143.55,-26.2 149.68,-29.58"/>
</a>
</g>
<text text-anchor="start" x="143.5" y="-78.5" font-family="Inter" font-size="10.00" fill="grey">toplevel</text>
</g>
<!-- Node4&#45;&gt;Node5 -->
<g id="edge8_Node000005_Node000004" class="edge">
<title>Node4&#45;&gt;Node5</title>
<g id="a_edge8_Node000005_Node000004"><a xlink:title=" ">
<path fill="none" stroke="#9a32cd" stroke-dasharray="5,2" d="M194.95,-22.93C203.35,-26.68 211.87,-31.35 219,-37 231.2,-46.67 241.03,-62.09 246.44,-71.74"/>
<polygon fill="#9a32cd" stroke="#9a32cd" points="196.16,-19.65 185.58,-19.07 193.5,-26.12 196.16,-19.65"/>
</a>
</g>
<text text-anchor="start" x="237" y="-42.5" font-family="Inter" font-size="10.00" fill="grey">attach_toplevel</text>
</g>
<!-- Node5&#45;&gt;Node4 -->
<g id="edge6_Node000004_Node000005" class="edge">
<title>Node5&#45;&gt;Node4</title>
<g id="a_edge6_Node000004_Node000005"><a xlink:title=" ">
<path fill="none" stroke="#9a32cd" stroke-dasharray="5,2" d="M217.43,-67.82C209.37,-64 201.05,-59.37 194,-54 180.9,-44.03 169.23,-28.7 162.65,-19.15"/>
<polygon fill="#9a32cd" stroke="#9a32cd" points="216.14,-71.07 226.7,-71.92 218.97,-64.67 216.14,-71.07"/>
</a>
</g>
<text text-anchor="start" x="197.5" y="-42.5" font-family="Inter" font-size="10.00" fill="grey">priv</text>
</g>
<!-- Node7 -->
<g id="Node000007" class="node">
<title>Node7</title>
<g id="a_Node000007"><a xlink:href="struct__AppletSizeHints.html" target="_top" xlink:title=" ">
<polygon fill="white" stroke="#666666" points="447,-235 353,-235 353,-216 447,-216 447,-235"/>
<text text-anchor="middle" x="400" y="-223" font-family="Inter" font-size="10.00">_AppletSizeHints</text>
</a>
</g>
</g>
<!-- Node7&#45;&gt;Node1 -->
<g id="edge9_Node000001_Node000007" class="edge">
<title>Node7&#45;&gt;Node1</title>
<g id="a_edge9_Node000001_Node000007"><a xlink:title=" ">
<path fill="none" stroke="#9a32cd" stroke-dasharray="5,2" d="M394.86,-206.11C391.46,-197.25 386.11,-187.22 378,-181 353.24,-162.02 318.1,-155.82 291.06,-154.13"/>
<polygon fill="#9a32cd" stroke="#9a32cd" points="391.55,-207.26 397.99,-215.68 398.2,-205.09 391.55,-207.26"/>
</a>
</g>
<text text-anchor="start" x="393.5" y="-186.5" font-family="Inter" font-size="10.00" fill="grey">applets_hints</text>
</g>
<!-- Node8 -->
<g id="Node000008" class="node">
<title>Node8</title>
<g id="a_Node000008"><a xlink:href="struct__AppletSizeHintsAlloc.html" target="_top" xlink:title=" ">
<polygon fill="white" stroke="#666666" points="581,-235 465,-235 465,-216 581,-216 581,-235"/>
<text text-anchor="middle" x="523" y="-223" font-family="Inter" font-size="10.00">_AppletSizeHintsAlloc</text>
</a>
</g>
</g>
<!-- Node8&#45;&gt;Node1 -->
<g id="edge10_Node000001_Node000008" class="edge">
<title>Node8&#45;&gt;Node1</title>
<g id="a_edge10_Node000001_Node000008"><a xlink:title=" ">
<path fill="none" stroke="#9a32cd" stroke-dasharray="5,2" d="M506.1,-209.2C494.33,-199.46 477.78,-187.48 461,-181 404.78,-159.28 334.41,-154.51 291.09,-153.89"/>
<polygon fill="#9a32cd" stroke="#9a32cd" points="503.91,-211.93 513.77,-215.8 508.47,-206.62 503.91,-211.93"/>
</a>
</g>
<text text-anchor="start" x="492" y="-186.5" font-family="Inter" font-size="10.00" fill="grey">applets_using_hint</text>
</g>
</g>
</svg>
