<?xml version="1.0" encoding="UTF-8" standalone="no"?>
<!DOCTYPE svg PUBLIC "-//W3C//DTD SVG 1.1//EN"
 "http://www.w3.org/Graphics/SVG/1.1/DTD/svg11.dtd">
<!-- Generated by graphviz version 2.43.0 (0)
 -->
<!-- Title: _PlumaDocument Pages: 1 -->
<!--zoomable 114 -->

<svg id="main" version="1.1" xmlns="http://www.w3.org/2000/svg" xmlns:xlink="http://www.w3.org/1999/xlink" xml:space="preserve" onload="init(evt)">

<style type="text/css"><![CDATA[
.node, .edge {opacity: 0.7;}
.node.selected, .edge.selected {opacity: 1;}
.edge:hover path { stroke: red; }
.edge:hover polygon { stroke: red; fill: red; }
]]></style>

<defs>
  <circle id="rim" cx="0" cy="0" r="7"/>
  <circle id="rim2" cx="0" cy="0" r="3.5"/>
  <g id="zoomPlus">
    <use xlink:href="#rim" fill="#404040"><set attributeName="fill" to="#808080" begin="zoomplus.mouseover" end="zoomplus.mouseout"/></use>
    <path d="M-4,0h8M0,-4v8" fill="none" stroke="white" stroke-width="1.5" pointer-events="none"/>
  </g>
  <g id="zoomMin">
    <use xlink:href="#rim" fill="#404040"><set attributeName="fill" to="#808080" begin="zoomminus.mouseover" end="zoomminus.mouseout"/></use>
    <path d="M-4,0h8" fill="none" stroke="white" stroke-width="1.5" pointer-events="none"/>
  </g>
  <g id="arrowUp" transform="translate(30 24)">
    <use xlink:href="#rim"/>
    <path pointer-events="none" fill="none" stroke="white" stroke-width="1.5" d="M0,-3.0v7 M-2.5,-0.5L0,-3.0L2.5,-0.5"/>
  </g>
  <g id="arrowRight" transform="rotate(90) translate(36 -43)">
    <use xlink:href="#rim"/>
    <path pointer-events="none" fill="none" stroke="white" stroke-width="1.5" d="M0,-3.0v7 M-2.5,-0.5L0,-3.0L2.5,-0.5"/>
  </g>
  <g id="arrowDown" transform="rotate(180) translate(-30 -48)">
    <use xlink:href="#rim"/>
    <path pointer-events="none" fill="none" stroke="white" stroke-width="1.5" d="M0,-3.0v7 M-2.5,-0.5L0,-3.0L2.5,-0.5"/>
  </g>
  <g id="arrowLeft" transform="rotate(270) translate(-36 17)">
    <use xlink:href="#rim"/>
    <path pointer-events="none" fill="none" stroke="white" stroke-width="1.5" d="M0,-3.0v7 M-2.5,-0.5L0,-3.0L2.5,-0.5"/>
  </g>
  <g id="resetDef">
    <use xlink:href="#rim2" fill="#404040"><set attributeName="fill" to="#808080" begin="reset.mouseover" end="reset.mouseout"/></use>
  </g>
</defs>
<script type="application/ecmascript">
var viewWidth = 666;
var viewHeight = 114;
var sectionId = 'dynsection-0';
</script>
<script type="application/ecmascript" xlink:href="svg.min.js"/>
<svg id="graph" class="graph">
<g id="viewport">
<title>_PlumaDocument</title>
<!-- Node1 -->
<g id="Node000001" class="node">
<title>Node1</title>
<g id="a_Node000001"><a xlink:title=" ">
<polygon fill="#999999" stroke="#666666" points="98,-106 0,-106 0,-87 98,-87 98,-106"/>
<text text-anchor="middle" x="49" y="-94" font-family="Inter" font-size="10.00">_PlumaDocument</text>
</a>
</g>
</g>
<!-- Node2 -->
<g id="Node000002" class="node">
<title>Node2</title>
<g id="a_Node000002"><a xlink:title=" ">
<polygon fill="white" stroke="#666666" points="332.5,-19 201.5,-19 201.5,0 332.5,0 332.5,-19"/>
<text text-anchor="middle" x="267" y="-7" font-family="Inter" font-size="10.00">_PlumaDocumentPrivate</text>
</a>
</g>
</g>
<!-- Node1&#45;&gt;Node2 -->
<g id="edge6_Node000002_Node000001" class="edge">
<title>Node1&#45;&gt;Node2</title>
<g id="a_edge6_Node000002_Node000001"><a xlink:title=" ">
<path fill="none" stroke="#9a32cd" stroke-dasharray="5,2" d="M18.27,-81.45C13.75,-78.03 9.71,-73.91 7,-69 0.13,-56.55 -2.53,-47.55 7,-37 19.83,-22.8 128.72,-15.8 201.45,-12.69"/>
<polygon fill="#9a32cd" stroke="#9a32cd" points="16.43,-84.43 26.74,-86.87 20.2,-78.54 16.43,-84.43"/>
</a>
</g>
<text text-anchor="start" x="10" y="-50" font-family="Inter" font-size="10.00" fill="grey">mount_operation_factory</text>
</g>
<!-- Node2&#45;&gt;Node1 -->
<g id="edge1_Node000001_Node000002" class="edge">
<title>Node2&#45;&gt;Node1</title>
<g id="a_edge1_Node000001_Node000002"><a xlink:title=" ">
<path fill="none" stroke="#9a32cd" stroke-dasharray="5,2" d="M201.27,-21.75C188.71,-25.48 176.05,-30.44 165,-37 148.24,-46.95 151.53,-58.67 135,-69 122.01,-77.11 106.37,-82.89 92,-86.95"/>
<polygon fill="#9a32cd" stroke="#9a32cd" points="202.57,-25.02 211.29,-19 200.72,-18.27 202.57,-25.02"/>
</a>
</g>
<text text-anchor="start" x="168.5" y="-50" font-family="Inter" font-size="10.00" fill="grey">priv</text>
</g>
<!-- Node3 -->
<g id="Node000003" class="node">
<title>Node3</title>
<g id="a_Node000003"><a xlink:title=" ">
<polygon fill="white" stroke="#666666" points="246,-106 154,-106 154,-87 246,-87 246,-106"/>
<text text-anchor="middle" x="200" y="-94" font-family="Inter" font-size="10.00">_PlumaEncoding</text>
</a>
</g>
</g>
<!-- Node3&#45;&gt;Node2 -->
<g id="edge2_Node000002_Node000003" class="edge">
<title>Node3&#45;&gt;Node2</title>
<g id="a_edge2_Node000002_Node000003"><a xlink:title=" ">
<path fill="none" stroke="#9a32cd" stroke-dasharray="5,2" d="M195.71,-76.54C194.02,-64.2 194.08,-48.36 202,-37 207.79,-28.7 216.65,-23 225.99,-19.08"/>
<polygon fill="#9a32cd" stroke="#9a32cd" points="192.31,-77.45 197.56,-86.65 199.2,-76.18 192.31,-77.45"/>
</a>
</g>
<text text-anchor="start" x="205" y="-58" font-family="Inter" font-size="10.00" fill="grey">encoding</text>
<text text-anchor="start" x="205" y="-43" font-family="Inter" font-size="10.00" fill="grey">requested_encoding</text>
</g>
<!-- Node4 -->
<g id="Node000004" class="node">
<title>Node4</title>
<g id="a_Node000004"><a xlink:href="struct__PlumaDocumentLoader.html" target="_top" xlink:title=" ">
<polygon fill="#fff0f0" stroke="red" points="395.5,-106 264.5,-106 264.5,-87 395.5,-87 395.5,-106"/>
<text text-anchor="middle" x="330" y="-94" font-family="Inter" font-size="10.00">_PlumaDocumentLoader</text>
</a>
</g>
</g>
<!-- Node4&#45;&gt;Node2 -->
<g id="edge3_Node000002_Node000004" class="edge">
<title>Node4&#45;&gt;Node2</title>
<g id="a_edge3_Node000002_Node000004"><a xlink:title=" ">
<path fill="none" stroke="#9a32cd" stroke-dasharray="5,2" d="M326.15,-76.64C322.91,-64.35 317.28,-48.51 308,-37 302.04,-29.61 293.45,-23.61 285.67,-19.21"/>
<polygon fill="#9a32cd" stroke="#9a32cd" points="322.82,-77.76 328.49,-86.71 329.64,-76.17 322.82,-77.76"/>
</a>
</g>
<text text-anchor="start" x="326.5" y="-50" font-family="Inter" font-size="10.00" fill="grey">loader</text>
</g>
<!-- Node8 -->
<g id="Node000008" class="node">
<title>Node8</title>
<g id="a_Node000008"><a xlink:href="struct__PlumaDocumentSaver.html" target="_top" xlink:title=" ">
<polygon fill="#fff0f0" stroke="red" points="538.5,-106 413.5,-106 413.5,-87 538.5,-87 538.5,-106"/>
<text text-anchor="middle" x="476" y="-94" font-family="Inter" font-size="10.00">_PlumaDocumentSaver</text>
</a>
</g>
</g>
<!-- Node8&#45;&gt;Node2 -->
<g id="edge4_Node000002_Node000008" class="edge">
<title>Node8&#45;&gt;Node2</title>
<g id="a_edge4_Node000002_Node000008"><a xlink:title=" ">
<path fill="none" stroke="#9a32cd" stroke-dasharray="5,2" d="M453.3,-81.79C431.14,-68.86 396.16,-49.62 364,-37 345.31,-29.67 323.84,-23.57 305.86,-19.09"/>
<polygon fill="#9a32cd" stroke="#9a32cd" points="451.58,-84.84 461.97,-86.91 455.14,-78.81 451.58,-84.84"/>
</a>
</g>
<text text-anchor="start" x="431" y="-50" font-family="Inter" font-size="10.00" fill="grey">saver</text>
</g>
<!-- Node10 -->
<g id="Node000010" class="node">
<title>Node10</title>
<g id="a_Node000010"><a xlink:title=" ">
<polygon fill="white" stroke="#666666" points="657.5,-106 556.5,-106 556.5,-87 657.5,-87 657.5,-106"/>
<text text-anchor="middle" x="607" y="-94" font-family="Inter" font-size="10.00">_PlumaTextRegion</text>
</a>
</g>
</g>
<!-- Node10&#45;&gt;Node2 -->
<g id="edge5_Node000002_Node000010" class="edge">
<title>Node10&#45;&gt;Node2</title>
<g id="a_edge5_Node000002_Node000010"><a xlink:title=" ">
<path fill="none" stroke="#9a32cd" stroke-dasharray="5,2" d="M580.72,-82.37C552.55,-68.86 506.19,-48.27 464,-37 420.99,-25.51 371.3,-18.87 332.59,-15.11"/>
<polygon fill="#9a32cd" stroke="#9a32cd" points="579.36,-85.6 589.88,-86.82 582.42,-79.3 579.36,-85.6"/>
</a>
</g>
<text text-anchor="start" x="553.5" y="-50" font-family="Inter" font-size="10.00" fill="grey">to_search_region</text>
</g>
</g>
</svg>

<g id="navigator" transform="translate(0 0)" fill="#404254">
  <rect fill="#f2f5e9" fill-opacity="0.5" stroke="#606060" stroke-width=".5" x="0" y="0" width="60" height="60"/>
  <use id="zoomplus" xlink:href="#zoomPlus" x="17" y="9" onmousedown="handleZoom(evt,'in')"/>
  <use id="zoomminus" xlink:href="#zoomMin" x="42" y="9" onmousedown="handleZoom(evt,'out')"/>
  <use id="reset" xlink:href="#resetDef" x="30" y="36" onmousedown="handleReset()"/>
   <use id="arrowup" xlink:href="#arrowUp" x="0" y="0" onmousedown="handlePan(0,-1)"/>
  <use id="arrowright" xlink:href="#arrowRight" x="0" y="0" onmousedown="handlePan(1,0)"/>
  <use id="arrowdown" xlink:href="#arrowDown" x="0" y="0" onmousedown="handlePan(0,1)"/>
  <use id="arrowleft" xlink:href="#arrowLeft" x="0" y="0" onmousedown="handlePan(-1,0)"/>
</g>
<svg viewBox="0 0 15 15" width="100%" height="30px" preserveAspectRatio="xMaxYMin meet">
 <g id="arrow_out" transform="scale(0.3 0.3)">
  <a xlink:href="struct__PlumaDocument__coll__graph_org.svg" target="_base">
   <rect id="button" ry="5" rx="5" y="6" x="6" height="38" width="38"
        fill="#f2f5e9" fill-opacity="0.5" stroke="#606060" stroke-width="1.0"/>
   <path id="arrow"
     d="M 11.500037,31.436501 C 11.940474,20.09759 22.043105,11.32322 32.158766,21.979434 L 37.068811,17.246167 C 37.068811,17.246167 37.088388,32 37.088388,32 L 22.160133,31.978069 C 22.160133,31.978069 26.997745,27.140456 26.997745,27.140456 C 18.528582,18.264221 13.291696,25.230495 11.500037,31.436501 z"
     style="fill:#404040;"/>
  </a>
 </g>
</svg>

<style type='text/css'>
<![CDATA[
[data-mouse-over-selected='false'] { opacity: 0.7; }
[data-mouse-over-selected='true']  { opacity: 1.0; }
]]>
</style>
<script type="application/ecmascript"><![CDATA[
document.addEventListener('DOMContentLoaded', (event) => {
  highlightEdges();
  highlightAdjacentNodes();
});
]]></script>
</svg>
