<?xml version="1.0" encoding="UTF-8" standalone="no"?>
<!DOCTYPE svg PUBLIC "-//W3C//DTD SVG 1.1//EN"
 "http://www.w3.org/Graphics/SVG/1.1/DTD/svg11.dtd">
<!-- Generated by graphviz version 2.43.0 (0)
 -->
<!-- Title: _PanelMenuButton Pages: 1 -->
<svg width="268pt" height="171pt"
 viewBox="0.00 0.00 268.00 171.00" xmlns="http://www.w3.org/2000/svg" xmlns:xlink="http://www.w3.org/1999/xlink">

<svg id="main" version="1.1" xmlns="http://www.w3.org/2000/svg" xmlns:xlink="http://www.w3.org/1999/xlink" xml:space="preserve">

<style type="text/css"><![CDATA[
.node, .edge {opacity: 0.7;}
.node.selected, .edge.selected {opacity: 1;}
.edge:hover path { stroke: red; }
.edge:hover polygon { stroke: red; fill: red; }
]]></style>
<script type="application/ecmascript" xlink:href="svg.min.js"/>
<svg id="graph" class="graph">
<g id="graph0" class="graph" transform="scale(1 1) rotate(0) translate(4 167)">
<title>_PanelMenuButton</title>
<!-- Node1 -->
<g id="Node000001" class="node">
<title>Node1</title>
<g id="a_Node000001"><a xlink:title=" ">
<polygon fill="#999999" stroke="#666666" points="177.5,-19 71.5,-19 71.5,0 177.5,0 177.5,-19"/>
<text text-anchor="middle" x="124.5" y="-7" font-family="Inter" font-size="10.00">_PanelMenuButton</text>
</a>
</g>
</g>
<!-- Node2 -->
<g id="Node000002" class="node">
<title>Node2</title>
<g id="a_Node000002"><a xlink:href="struct__ButtonWidget.html" target="_top" xlink:title=" ">
<polygon fill="white" stroke="#666666" points="102.5,-91 16.5,-91 16.5,-72 102.5,-72 102.5,-91"/>
<text text-anchor="middle" x="59.5" y="-79" font-family="Inter" font-size="10.00">_ButtonWidget</text>
</a>
</g>
</g>
<!-- Node2&#45;&gt;Node1 -->
<g id="edge1_Node000001_Node000002" class="edge">
<title>Node2&#45;&gt;Node1</title>
<g id="a_edge1_Node000001_Node000002"><a xlink:title=" ">
<path fill="none" stroke="#9a32cd" stroke-dasharray="5,2" d="M74.44,-64.41C87.51,-50.33 106,-30.42 116.46,-19.15"/>
<polygon fill="#9a32cd" stroke="#9a32cd" points="71.71,-62.21 67.47,-71.92 76.84,-66.97 71.71,-62.21"/>
</a>
</g>
<text text-anchor="start" x="103.5" y="-42.5" font-family="Inter" font-size="10.00" fill="grey">button</text>
</g>
<!-- Node3 -->
<g id="Node000003" class="node">
<title>Node3</title>
<g id="a_Node000003"><a xlink:title=" ">
<polygon fill="white" stroke="#666666" points="119,-163 0,-163 0,-144 119,-144 119,-163"/>
<text text-anchor="middle" x="59.5" y="-151" font-family="Inter" font-size="10.00">_ButtonWidgetPrivate</text>
</a>
</g>
</g>
<!-- Node3&#45;&gt;Node2 -->
<g id="edge2_Node000002_Node000003" class="edge">
<title>Node3&#45;&gt;Node2</title>
<g id="a_edge2_Node000002_Node000003"><a xlink:title=" ">
<path fill="none" stroke="#9a32cd" stroke-dasharray="5,2" d="M59.5,-133.58C59.5,-119.76 59.5,-101.68 59.5,-91.15"/>
<polygon fill="#9a32cd" stroke="#9a32cd" points="56,-133.92 59.5,-143.92 63,-133.92 56,-133.92"/>
</a>
</g>
<text text-anchor="start" x="63" y="-114.5" font-family="Inter" font-size="10.00" fill="grey">priv</text>
</g>
<!-- Node4 -->
<g id="Node000004" class="node">
<title>Node4</title>
<g id="a_Node000004"><a xlink:title=" ">
<polygon fill="white" stroke="#666666" points="260,-91 121,-91 121,-72 260,-72 260,-91"/>
<text text-anchor="middle" x="190.5" y="-79" font-family="Inter" font-size="10.00">_PanelMenuButtonPrivate</text>
</a>
</g>
</g>
<!-- Node4&#45;&gt;Node1 -->
<g id="edge3_Node000001_Node000004" class="edge">
<title>Node4&#45;&gt;Node1</title>
<g id="a_edge3_Node000001_Node000004"><a xlink:title=" ">
<path fill="none" stroke="#9a32cd" stroke-dasharray="5,2" d="M175.33,-64.41C162.06,-50.33 143.28,-30.42 132.66,-19.15"/>
<polygon fill="#9a32cd" stroke="#9a32cd" points="173,-67.04 182.41,-71.92 178.09,-62.24 173,-67.04"/>
</a>
</g>
<text text-anchor="start" x="169" y="-42.5" font-family="Inter" font-size="10.00" fill="grey">priv</text>
</g>
<!-- Node5 -->
<g id="Node000005" class="node">
<title>Node5</title>
<g id="a_Node000005"><a xlink:href="struct__PanelToplevel.html" target="_top" xlink:title=" ">
<polygon fill="#fff0f0" stroke="red" points="232.5,-163 148.5,-163 148.5,-144 232.5,-144 232.5,-163"/>
<text text-anchor="middle" x="190.5" y="-151" font-family="Inter" font-size="10.00">_PanelToplevel</text>
</a>
</g>
</g>
<!-- Node5&#45;&gt;Node4 -->
<g id="edge4_Node000004_Node000005" class="edge">
<title>Node5&#45;&gt;Node4</title>
<g id="a_edge4_Node000004_Node000005"><a xlink:title=" ">
<path fill="none" stroke="#9a32cd" stroke-dasharray="5,2" d="M190.5,-133.58C190.5,-119.76 190.5,-101.68 190.5,-91.15"/>
<polygon fill="#9a32cd" stroke="#9a32cd" points="187,-133.92 190.5,-143.92 194,-133.92 187,-133.92"/>
</a>
</g>
<text text-anchor="start" x="194" y="-114.5" font-family="Inter" font-size="10.00" fill="grey">toplevel</text>
</g>
</g>
</svg>
</svg>

<style type='text/css'>
<![CDATA[
[data-mouse-over-selected='false'] { opacity: 0.7; }
[data-mouse-over-selected='true']  { opacity: 1.0; }
]]>
</style>
<script type="application/ecmascript"><![CDATA[
document.addEventListener('DOMContentLoaded', (event) => {
  highlightEdges();
  highlightAdjacentNodes();
});
]]></script>
</svg>
