<?xml version="1.0" encoding="UTF-8" standalone="no"?>
<!DOCTYPE svg PUBLIC "-//W3C//DTD SVG 1.1//EN"
 "http://www.w3.org/Graphics/SVG/1.1/DTD/svg11.dtd">
<!-- Generated by graphviz version 2.43.0 (0)
 -->
<!-- Title: _MetaWorkspace Pages: 1 -->
<svg width="777pt" height="391pt"
 viewBox="0.00 0.00 777.00 391.42" xmlns="http://www.w3.org/2000/svg" xmlns:xlink="http://www.w3.org/1999/xlink">
<g id="graph0" class="graph" transform="scale(1 1) rotate(0) translate(4 387.42)">
<title>_MetaWorkspace</title>
<!-- Node1 -->
<g id="Node000001" class="node">
<title>Node1</title>
<g id="a_Node000001"><a xlink:title=" ">
<polygon fill="#999999" stroke="#666666" points="347,-229.92 251,-229.92 251,-210.92 347,-210.92 347,-229.92"/>
<text text-anchor="middle" x="299" y="-217.92" font-family="Inter" font-size="10.00">_MetaWorkspace</text>
</a>
</g>
</g>
<!-- Node2 -->
<g id="Node000002" class="node">
<title>Node2</title>
<g id="a_Node000002"><a xlink:href="struct__MetaScreen.html" target="_top" xlink:title=" ">
<polygon fill="white" stroke="#666666" points="586,-160.92 509,-160.92 509,-141.92 586,-141.92 586,-160.92"/>
<text text-anchor="middle" x="547.5" y="-148.92" font-family="Inter" font-size="10.00">_MetaScreen</text>
</a>
</g>
</g>
<!-- Node1&#45;&gt;Node2 -->
<g id="edge10_Node000002_Node000001" class="edge">
<title>Node1&#45;&gt;Node2</title>
<g id="a_edge10_Node000002_Node000001"><a xlink:title=" ">
<path fill="none" stroke="#9a32cd" stroke-dasharray="5,2" d="M353.34,-231.46C393.22,-237.04 448.04,-238.89 491,-218.42 516.36,-206.33 534.17,-176.44 542.01,-160.99"/>
<polygon fill="#9a32cd" stroke="#9a32cd" points="353.7,-227.97 343.29,-229.93 352.65,-234.89 353.7,-227.97"/>
</a>
</g>
<text text-anchor="start" x="398" y="-255.42" font-family="Inter" font-size="10.00" fill="grey">active_workspace</text>
<text text-anchor="start" x="398" y="-240.42" font-family="Inter" font-size="10.00" fill="grey">prev_workspace</text>
</g>
<!-- Node2&#45;&gt;Node1 -->
<g id="edge1_Node000001_Node000002" class="edge">
<title>Node2&#45;&gt;Node1</title>
<g id="a_edge1_Node000001_Node000002"><a xlink:title=" ">
<path fill="none" stroke="#9a32cd" stroke-dasharray="5,2" d="M520.5,-165.64C511.37,-170.21 500.92,-174.97 491,-178.42 489.24,-179.03 399.62,-198.65 343.78,-210.85"/>
<polygon fill="#9a32cd" stroke="#9a32cd" points="522.17,-168.71 529.45,-161.01 518.96,-162.49 522.17,-168.71"/>
</a>
</g>
<text text-anchor="start" x="424" y="-205.92" font-family="Inter" font-size="10.00" fill="grey">screen</text>
</g>
<!-- Node3 -->
<g id="Node000003" class="node">
<title>Node3</title>
<g id="a_Node000003"><a xlink:href="struct__MetaDisplay.html" target="_top" xlink:title=" ">
<polygon fill="#fff0f0" stroke="red" points="769,-240.92 691,-240.92 691,-221.92 769,-221.92 769,-240.92"/>
<text text-anchor="middle" x="730" y="-228.92" font-family="Inter" font-size="10.00">_MetaDisplay</text>
</a>
</g>
</g>
<!-- Node2&#45;&gt;Node3 -->
<g id="edge3_Node000003_Node000002" class="edge">
<title>Node2&#45;&gt;Node3</title>
<g id="a_edge3_Node000003_Node000002"><a xlink:title=" ">
<path fill="none" stroke="#9a32cd" stroke-dasharray="5,2" d="M560.78,-169.4C570.82,-182.64 586.22,-199.92 604,-209.42 630.82,-223.75 665.05,-229.02 690.9,-230.84"/>
<polygon fill="#9a32cd" stroke="#9a32cd" points="563.42,-167.08 554.72,-161.03 557.75,-171.19 563.42,-167.08"/>
</a>
</g>
<text text-anchor="start" x="607.5" y="-249.42" font-family="Inter" font-size="10.00" fill="grey">active_screen</text>
<text text-anchor="start" x="607.5" y="-234.42" font-family="Inter" font-size="10.00" fill="grey">grab_screen</text>
</g>
<!-- Node34 -->
<g id="Node000034" class="node">
<title>Node34</title>
<g id="a_Node000034"><a xlink:href="struct__MetaStack.html" target="_top" xlink:title=" ">
<polygon fill="white" stroke="#666666" points="764.5,-140.92 695.5,-140.92 695.5,-121.92 764.5,-121.92 764.5,-140.92"/>
<text text-anchor="middle" x="730" y="-128.92" font-family="Inter" font-size="10.00">_MetaStack</text>
</a>
</g>
</g>
<!-- Node2&#45;&gt;Node34 -->
<g id="edge12_Node000034_Node000002" class="edge">
<title>Node2&#45;&gt;Node34</title>
<g id="a_edge12_Node000034_Node000002"><a xlink:title=" ">
<path fill="none" stroke="#9a32cd" stroke-dasharray="5,2" d="M567.56,-135.61C577.71,-128.23 590.8,-120.23 604,-116.42 636.55,-107.01 675.51,-114.49 701.18,-121.86"/>
<polygon fill="#9a32cd" stroke="#9a32cd" points="565.27,-132.96 559.47,-141.82 569.54,-138.51 565.27,-132.96"/>
</a>
</g>
<text text-anchor="start" x="623.5" y="-121.92" font-family="Inter" font-size="10.00" fill="grey">screen</text>
</g>
<!-- Node3&#45;&gt;Node2 -->
<g id="edge2_Node000002_Node000003" class="edge">
<title>Node3&#45;&gt;Node2</title>
<g id="a_edge2_Node000002_Node000003"><a xlink:title=" ">
<path fill="none" stroke="#9a32cd" stroke-dasharray="5,2" d="M709.23,-215.53C698.89,-207.78 685.75,-198.79 673,-192.42 645.11,-178.49 611.41,-167.72 586.12,-160.73"/>
<polygon fill="#9a32cd" stroke="#9a32cd" points="707.13,-218.33 717.19,-221.66 711.4,-212.78 707.13,-218.33"/>
</a>
</g>
<text text-anchor="start" x="622.5" y="-197.92" font-family="Inter" font-size="10.00" fill="grey">display</text>
</g>
<!-- Node6 -->
<g id="Node000006" class="node">
<title>Node6</title>
<g id="a_Node000006"><a xlink:href="struct__MetaRectangle.html" target="_top" xlink:title=" ">
<polygon fill="white" stroke="#666666" points="91,-184.92 0,-184.92 0,-165.92 91,-165.92 91,-184.92"/>
<text text-anchor="middle" x="45.5" y="-172.92" font-family="Inter" font-size="10.00">_MetaRectangle</text>
</a>
</g>
</g>
<!-- Node6&#45;&gt;Node1 -->
<g id="edge15_Node000001_Node000006" class="edge">
<title>Node6&#45;&gt;Node1</title>
<g id="a_edge15_Node000001_Node000006"><a xlink:title=" ">
<path fill="none" stroke="#9a32cd" stroke-dasharray="5,2" d="M97.27,-187.05C101.24,-187.88 105.18,-188.68 109,-189.42 157.15,-198.75 212.56,-207.62 250.87,-213.46"/>
<polygon fill="#9a32cd" stroke="#9a32cd" points="97.96,-183.61 87.44,-184.94 96.49,-190.46 97.96,-183.61"/>
</a>
</g>
<text text-anchor="start" x="112" y="-227.42" font-family="Inter" font-size="10.00" fill="grey">work_area_screen</text>
<text text-anchor="start" x="112" y="-212.42" font-family="Inter" font-size="10.00" fill="grey">work_area_xinerama</text>
</g>
<!-- Node6&#45;&gt;Node2 -->
<g id="edge5_Node000002_Node000006" class="edge">
<title>Node6&#45;&gt;Node2</title>
<g id="a_edge5_Node000002_Node000006"><a xlink:title=" ">
<path fill="none" stroke="#9a32cd" stroke-dasharray="5,2" d="M101.44,-172.78C203.85,-167.86 421.4,-157.42 508.9,-153.22"/>
<polygon fill="#9a32cd" stroke="#9a32cd" points="101.13,-169.29 91.31,-173.27 101.47,-176.28 101.13,-169.29"/>
</a>
</g>
<text text-anchor="start" x="290" y="-171.92" font-family="Inter" font-size="10.00" fill="grey">rect</text>
</g>
<!-- Node6&#45;&gt;Node3 -->
<g id="edge4_Node000003_Node000006" class="edge">
<title>Node6&#45;&gt;Node3</title>
<g id="a_edge4_Node000003_Node000006"><a xlink:title=" ">
<path fill="none" stroke="#9a32cd" stroke-dasharray="5,2" d="M57.95,-193.72C68.94,-209.55 87.08,-231.55 109,-242.42 261.52,-318.03 320.79,-273.22 491,-270.42 571.92,-269.08 595.28,-286.99 673,-264.42 689.47,-259.63 706.13,-248.89 716.94,-240.96"/>
<polygon fill="#9a32cd" stroke="#9a32cd" points="60.77,-191.65 52.33,-185.25 54.94,-195.52 60.77,-191.65"/>
</a>
</g>
<text text-anchor="start" x="390" y="-371.92" font-family="Inter" font-size="10.00" fill="grey">grab_anchor_window</text>
<text text-anchor="start" x="390" y="-356.92" font-family="Inter" font-size="10.00" fill="grey">  _pos</text>
<text text-anchor="start" x="390" y="-341.92" font-family="Inter" font-size="10.00" fill="grey">grab_initial_window</text>
<text text-anchor="start" x="390" y="-326.92" font-family="Inter" font-size="10.00" fill="grey">  _pos</text>
<text text-anchor="start" x="390" y="-311.92" font-family="Inter" font-size="10.00" fill="grey">grab_wireframe_last</text>
<text text-anchor="start" x="390" y="-296.92" font-family="Inter" font-size="10.00" fill="grey">  _xor_rect</text>
<text text-anchor="start" x="390" y="-281.92" font-family="Inter" font-size="10.00" fill="grey">grab_wireframe_rect</text>
</g>
<!-- Node33 -->
<g id="Node000033" class="node">
<title>Node33</title>
<g id="a_Node000033"><a xlink:title=" ">
<polygon fill="white" stroke="#666666" points="347,-101.92 251,-101.92 251,-82.92 347,-82.92 347,-101.92"/>
<text text-anchor="middle" x="299" y="-89.92" font-family="Inter" font-size="10.00">_MetaTilePreview</text>
</a>
</g>
</g>
<!-- Node6&#45;&gt;Node33 -->
<g id="edge9_Node000033_Node000006" class="edge">
<title>Node6&#45;&gt;Node33</title>
<g id="a_edge9_Node000033_Node000006"><a xlink:title=" ">
<path fill="none" stroke="#9a32cd" stroke-dasharray="5,2" d="M72.67,-161.03C83.68,-155.36 96.75,-149.09 109,-144.42 157.49,-125.92 215.28,-111 254.08,-101.97"/>
<polygon fill="#9a32cd" stroke="#9a32cd" points="70.82,-158.05 63.61,-165.81 74.09,-164.24 70.82,-158.05"/>
</a>
</g>
<text text-anchor="start" x="142" y="-149.92" font-family="Inter" font-size="10.00" fill="grey">tile_rect</text>
</g>
<!-- Node35 -->
<g id="Node000035" class="node">
<title>Node35</title>
<g id="a_Node000035"><a xlink:href="struct__MetaXineramaScreenInfo.html" target="_top" xlink:title=" ">
<polygon fill="white" stroke="#666666" points="369,-64.92 229,-64.92 229,-45.92 369,-45.92 369,-64.92"/>
<text text-anchor="middle" x="299" y="-52.92" font-family="Inter" font-size="10.00">_MetaXineramaScreenInfo</text>
</a>
</g>
</g>
<!-- Node6&#45;&gt;Node35 -->
<g id="edge14_Node000035_Node000006" class="edge">
<title>Node6&#45;&gt;Node35</title>
<g id="a_edge14_Node000035_Node000006"><a xlink:title=" ">
<path fill="none" stroke="#9a32cd" stroke-dasharray="5,2" d="M55.22,-156.62C65.31,-137.08 83.81,-107.19 109,-91.42 144.67,-69.07 191.01,-60 228.88,-56.55"/>
<polygon fill="#9a32cd" stroke="#9a32cd" points="51.99,-155.25 50.72,-165.77 58.27,-158.34 51.99,-155.25"/>
</a>
</g>
<text text-anchor="start" x="151" y="-96.92" font-family="Inter" font-size="10.00" fill="grey">rect</text>
</g>
<!-- Node30 -->
<g id="Node000030" class="node">
<title>Node30</title>
<g id="a_Node000030"><a xlink:title=" ">
<polygon fill="#fff0f0" stroke="red" points="327,-24.92 271,-24.92 271,-5.92 327,-5.92 327,-24.92"/>
<text text-anchor="middle" x="299" y="-12.92" font-family="Inter" font-size="10.00">_MetaUI</text>
</a>
</g>
</g>
<!-- Node30&#45;&gt;Node2 -->
<g id="edge6_Node000002_Node000030" class="edge">
<title>Node30&#45;&gt;Node2</title>
<g id="a_edge6_Node000002_Node000030"><a xlink:title=" ">
<path fill="none" stroke="#9a32cd" stroke-dasharray="5,2" d="M337.09,-6.44C378.45,1.31 445.5,6.91 491,-24.42 531.63,-52.39 542.78,-117 545.61,-141.63"/>
<polygon fill="#9a32cd" stroke="#9a32cd" points="336.28,-3.03 327.16,-8.44 337.66,-9.9 336.28,-3.03"/>
</a>
</g>
<text text-anchor="start" x="435" y="-29.92" font-family="Inter" font-size="10.00" fill="grey">ui</text>
</g>
<!-- Node31 -->
<g id="Node000031" class="node">
<title>Node31</title>
<g id="a_Node000031"><a xlink:title=" ">
<polygon fill="#fff0f0" stroke="red" points="344.5,-138.92 253.5,-138.92 253.5,-119.92 344.5,-119.92 344.5,-138.92"/>
<text text-anchor="middle" x="299" y="-126.92" font-family="Inter" font-size="10.00">_MetaTabPopup</text>
</a>
</g>
</g>
<!-- Node31&#45;&gt;Node2 -->
<g id="edge7_Node000002_Node000031" class="edge">
<title>Node31&#45;&gt;Node2</title>
<g id="a_edge7_Node000002_Node000031"><a xlink:title=" ">
<path fill="none" stroke="#9a32cd" stroke-dasharray="5,2" d="M355.07,-128.14C393.4,-128.05 445.57,-129.54 491,-136.42 499.29,-137.67 508.11,-139.72 516.23,-141.9"/>
<polygon fill="#9a32cd" stroke="#9a32cd" points="354.63,-124.64 344.65,-128.2 354.67,-131.64 354.63,-124.64"/>
</a>
</g>
<text text-anchor="start" x="414" y="-141.92" font-family="Inter" font-size="10.00" fill="grey">tab_popup</text>
</g>
<!-- Node33&#45;&gt;Node2 -->
<g id="edge8_Node000002_Node000033" class="edge">
<title>Node33&#45;&gt;Node2</title>
<g id="a_edge8_Node000002_Node000033"><a xlink:title=" ">
<path fill="none" stroke="#9a32cd" stroke-dasharray="5,2" d="M357.36,-88.34C396.34,-87.6 448.37,-90.67 491,-107.42 510,-114.88 527.69,-131.16 537.79,-141.69"/>
<polygon fill="#9a32cd" stroke="#9a32cd" points="357.14,-84.84 347.24,-88.62 357.33,-91.84 357.14,-84.84"/>
</a>
</g>
<text text-anchor="start" x="412" y="-112.92" font-family="Inter" font-size="10.00" fill="grey">tile_preview</text>
</g>
<!-- Node34&#45;&gt;Node2 -->
<g id="edge11_Node000002_Node000034" class="edge">
<title>Node34&#45;&gt;Node2</title>
<g id="a_edge11_Node000002_Node000034"><a xlink:title=" ">
<path fill="none" stroke="#9a32cd" stroke-dasharray="5,2" d="M685.21,-136.27C654.98,-139.62 615.19,-144.03 586.34,-147.22"/>
<polygon fill="#9a32cd" stroke="#9a32cd" points="685.91,-139.71 695.47,-135.13 685.14,-132.75 685.91,-139.71"/>
</a>
</g>
<text text-anchor="start" x="626.5" y="-149.92" font-family="Inter" font-size="10.00" fill="grey">stack</text>
</g>
<!-- Node35&#45;&gt;Node2 -->
<g id="edge13_Node000002_Node000035" class="edge">
<title>Node35&#45;&gt;Node2</title>
<g id="a_edge13_Node000002_Node000035"><a xlink:title=" ">
<path fill="none" stroke="#9a32cd" stroke-dasharray="5,2" d="M378.44,-45.51C414.89,-44.58 457.48,-49.01 491,-68.42 519.96,-85.18 536.8,-123.84 543.33,-141.85"/>
<polygon fill="#9a32cd" stroke="#9a32cd" points="378.19,-42.02 368.34,-45.91 378.47,-49.01 378.19,-42.02"/>
</a>
</g>
<text text-anchor="start" x="404" y="-73.92" font-family="Inter" font-size="10.00" fill="grey">xinerama_infos</text>
</g>
</g>
</svg>
