<?xml version="1.0" encoding="UTF-8" standalone="no"?>
<!DOCTYPE svg PUBLIC "-//W3C//DTD SVG 1.1//EN"
 "http://www.w3.org/Graphics/SVG/1.1/DTD/svg11.dtd">
<!-- Generated by graphviz version 2.43.0 (0)
 -->
<!-- Title: NAImporterAsk Pages: 1 -->
<svg width="252pt" height="186pt"
 viewBox="0.00 0.00 252.00 186.00" xmlns="http://www.w3.org/2000/svg" xmlns:xlink="http://www.w3.org/1999/xlink">

<svg id="main" version="1.1" xmlns="http://www.w3.org/2000/svg" xmlns:xlink="http://www.w3.org/1999/xlink" xml:space="preserve">

<style type="text/css"><![CDATA[
.node, .edge {opacity: 0.7;}
.node.selected, .edge.selected {opacity: 1;}
.edge:hover path { stroke: red; }
.edge:hover polygon { stroke: red; fill: red; }
]]></style>
<script type="application/ecmascript" xlink:href="svg.min.js"/>
<svg id="graph" class="graph">
<g id="graph0" class="graph" transform="scale(1 1) rotate(0) translate(4 182)">
<title>NAImporterAsk</title>
<!-- Node1 -->
<g id="Node000001" class="node">
<title>Node1</title>
<g id="a_Node000001"><a xlink:title=" ">
<polygon fill="#999999" stroke="#666666" points="152,-19 61,-19 61,0 152,0 152,-19"/>
<text text-anchor="middle" x="106.5" y="-7" font-family="Inter" font-size="10.00">NAImporterAsk</text>
</a>
</g>
</g>
<!-- Node2 -->
<g id="Node000002" class="node">
<title>Node2</title>
<g id="a_Node000002"><a xlink:title=" ">
<polygon fill="white" stroke="#666666" points="170.5,-91 42.5,-91 42.5,-72 170.5,-72 170.5,-91"/>
<text text-anchor="middle" x="106.5" y="-79" font-family="Inter" font-size="10.00">_NAImporterAskPrivate</text>
</a>
</g>
</g>
<!-- Node2&#45;&gt;Node1 -->
<g id="edge1_Node000001_Node000002" class="edge">
<title>Node2&#45;&gt;Node1</title>
<g id="a_edge1_Node000001_Node000002"><a xlink:title=" ">
<path fill="none" stroke="#9a32cd" stroke-dasharray="5,2" d="M106.5,-61.58C106.5,-47.76 106.5,-29.68 106.5,-19.15"/>
<polygon fill="#9a32cd" stroke="#9a32cd" points="103,-61.92 106.5,-71.92 110,-61.92 103,-61.92"/>
</a>
</g>
<text text-anchor="start" x="109.5" y="-42.5" font-family="Inter" font-size="10.00" fill="grey">private</text>
</g>
<!-- Node3 -->
<g id="Node000003" class="node">
<title>Node3</title>
<g id="a_Node000003"><a xlink:href="structNAObjectItem.html" target="_top" xlink:title=" ">
<polygon fill="#fff0f0" stroke="red" points="83,-178 0,-178 0,-159 83,-159 83,-178"/>
<text text-anchor="middle" x="41.5" y="-166" font-family="Inter" font-size="10.00">NAObjectItem</text>
</a>
</g>
</g>
<!-- Node3&#45;&gt;Node2 -->
<g id="edge2_Node000002_Node000003" class="edge">
<title>Node3&#45;&gt;Node2</title>
<g id="a_edge2_Node000002_Node000003"><a xlink:title=" ">
<path fill="none" stroke="#9a32cd" stroke-dasharray="5,2" d="M54.6,-150.37C68.24,-132.53 89.08,-105.28 99.73,-91.36"/>
<polygon fill="#9a32cd" stroke="#9a32cd" points="51.51,-148.65 48.21,-158.72 57.07,-152.91 51.51,-148.65"/>
</a>
</g>
<text text-anchor="start" x="88.5" y="-130" font-family="Inter" font-size="10.00" fill="grey">existing</text>
<text text-anchor="start" x="88.5" y="-115" font-family="Inter" font-size="10.00" fill="grey">importing</text>
</g>
<!-- Node9 -->
<g id="Node000009" class="node">
<title>Node9</title>
<g id="a_Node000009"><a xlink:href="structNAImporterAskUserParms.html" target="_top" xlink:title=" ">
<polygon fill="#fff0f0" stroke="red" points="244,-178 101,-178 101,-159 244,-159 244,-178"/>
<text text-anchor="middle" x="172.5" y="-166" font-family="Inter" font-size="10.00">NAImporterAskUserParms</text>
</a>
</g>
</g>
<!-- Node9&#45;&gt;Node2 -->
<g id="edge3_Node000002_Node000009" class="edge">
<title>Node9&#45;&gt;Node2</title>
<g id="a_edge3_Node000002_Node000009"><a xlink:title=" ">
<path fill="none" stroke="#9a32cd" stroke-dasharray="5,2" d="M165.33,-149.28C159.95,-137.06 151.75,-121.05 141.5,-109 135.57,-102.03 127.51,-95.78 120.62,-91.09"/>
<polygon fill="#9a32cd" stroke="#9a32cd" points="162.24,-150.97 169.31,-158.86 168.7,-148.28 162.24,-150.97"/>
</a>
</g>
<text text-anchor="start" x="163.5" y="-122" font-family="Inter" font-size="10.00" fill="grey">parms</text>
</g>
</g>
</svg>
</svg>

<style type='text/css'>
<![CDATA[
[data-mouse-over-selected='false'] { opacity: 0.7; }
[data-mouse-over-selected='true']  { opacity: 1.0; }
]]>
</style>
<script type="application/ecmascript"><![CDATA[
document.addEventListener('DOMContentLoaded', (event) => {
  highlightEdges();
  highlightAdjacentNodes();
});
]]></script>
</svg>
