<?xml version="1.0" encoding="UTF-8" standalone="no"?>
<!DOCTYPE svg PUBLIC "-//W3C//DTD SVG 1.1//EN"
 "http://www.w3.org/Graphics/SVG/1.1/DTD/svg11.dtd">
<!-- Generated by graphviz version 2.43.0 (0)
 -->
<!-- Title: _MateMixerStream Pages: 1 -->
<svg width="268pt" height="171pt"
 viewBox="0.00 0.00 268.00 171.00" xmlns="http://www.w3.org/2000/svg" xmlns:xlink="http://www.w3.org/1999/xlink">
<g id="graph0" class="graph" transform="scale(1 1) rotate(0) translate(4 167)">
<title>_MateMixerStream</title>
<!-- Node1 -->
<g id="Node000001" class="node">
<title>Node1</title>
<g id="a_Node000001"><a xlink:title=" ">
<polygon fill="#999999" stroke="#666666" points="173,-19 68,-19 68,0 173,0 173,-19"/>
<text text-anchor="middle" x="120.5" y="-7" font-family="Inter" font-size="10.00">_MateMixerStream</text>
</a>
</g>
</g>
<!-- Node2 -->
<g id="Node000002" class="node">
<title>Node2</title>
<g id="a_Node000002"><a xlink:title=" ">
<polygon fill="white" stroke="#666666" points="189.5,-91 51.5,-91 51.5,-72 189.5,-72 189.5,-91"/>
<text text-anchor="middle" x="120.5" y="-79" font-family="Inter" font-size="10.00">_MateMixerStreamPrivate</text>
</a>
</g>
</g>
<!-- Node2&#45;&gt;Node1 -->
<g id="edge1_Node000001_Node000002" class="edge">
<title>Node2&#45;&gt;Node1</title>
<g id="a_edge1_Node000001_Node000002"><a xlink:title=" ">
<path fill="none" stroke="#9a32cd" stroke-dasharray="5,2" d="M120.5,-61.58C120.5,-47.76 120.5,-29.68 120.5,-19.15"/>
<polygon fill="#9a32cd" stroke="#9a32cd" points="117,-61.92 120.5,-71.92 124,-61.92 117,-61.92"/>
</a>
</g>
<text text-anchor="start" x="124" y="-42.5" font-family="Inter" font-size="10.00" fill="grey">priv</text>
</g>
<!-- Node3 -->
<g id="Node000003" class="node">
<title>Node3</title>
<g id="a_Node000003"><a xlink:href="struct__MateMixerDevice.html" target="_top" xlink:title=" ">
<polygon fill="#fff0f0" stroke="red" points="103,-163 0,-163 0,-144 103,-144 103,-163"/>
<text text-anchor="middle" x="51.5" y="-151" font-family="Inter" font-size="10.00">_MateMixerDevice</text>
</a>
</g>
</g>
<!-- Node3&#45;&gt;Node2 -->
<g id="edge2_Node000002_Node000003" class="edge">
<title>Node3&#45;&gt;Node2</title>
<g id="a_edge2_Node000002_Node000003"><a xlink:title=" ">
<path fill="none" stroke="#9a32cd" stroke-dasharray="5,2" d="M67.36,-136.41C81.24,-122.33 100.86,-102.42 111.97,-91.15"/>
<polygon fill="#9a32cd" stroke="#9a32cd" points="64.49,-134.34 59.96,-143.92 69.47,-139.25 64.49,-134.34"/>
</a>
</g>
<text text-anchor="start" x="97.5" y="-114.5" font-family="Inter" font-size="10.00" fill="grey">device</text>
</g>
<!-- Node5 -->
<g id="Node000005" class="node">
<title>Node5</title>
<g id="a_Node000005"><a xlink:href="struct__MateMixerStreamControl.html" target="_top" xlink:title=" ">
<polygon fill="#fff0f0" stroke="red" points="260,-163 121,-163 121,-144 260,-144 260,-163"/>
<text text-anchor="middle" x="190.5" y="-151" font-family="Inter" font-size="10.00">_MateMixerStreamControl</text>
</a>
</g>
</g>
<!-- Node5&#45;&gt;Node2 -->
<g id="edge3_Node000002_Node000005" class="edge">
<title>Node5&#45;&gt;Node2</title>
<g id="a_edge3_Node000002_Node000005"><a xlink:title=" ">
<path fill="none" stroke="#9a32cd" stroke-dasharray="5,2" d="M174.8,-136.8C160.71,-122.71 140.53,-102.53 129.15,-91.15"/>
<polygon fill="#9a32cd" stroke="#9a32cd" points="172.37,-139.32 181.92,-143.92 177.32,-134.37 172.37,-139.32"/>
</a>
</g>
<text text-anchor="start" x="167" y="-114.5" font-family="Inter" font-size="10.00" fill="grey">control</text>
</g>
</g>
</svg>
