<?xml version="1.0" encoding="UTF-8" standalone="no"?>
<!DOCTYPE svg PUBLIC "-//W3C//DTD SVG 1.1//EN"
 "http://www.w3.org/Graphics/SVG/1.1/DTD/svg11.dtd">
<!-- Generated by graphviz version 2.43.0 (0)
 -->
<!-- Title: MateXSettingsPlugin Pages: 1 -->
<svg width="280pt" height="171pt"
 viewBox="0.00 0.00 279.50 171.00" xmlns="http://www.w3.org/2000/svg" xmlns:xlink="http://www.w3.org/1999/xlink">

<svg id="main" version="1.1" xmlns="http://www.w3.org/2000/svg" xmlns:xlink="http://www.w3.org/1999/xlink" xml:space="preserve">

<style type="text/css"><![CDATA[
.node, .edge {opacity: 0.7;}
.node.selected, .edge.selected {opacity: 1;}
.edge:hover path { stroke: red; }
.edge:hover polygon { stroke: red; fill: red; }
]]></style>
<script type="application/ecmascript" xlink:href="svg.min.js"/>
<svg id="graph" class="graph">
<g id="graph0" class="graph" transform="scale(1 1) rotate(0) translate(4 167)">
<title>MateXSettingsPlugin</title>
<!-- Node1 -->
<g id="Node000001" class="node">
<title>Node1</title>
<g id="a_Node000001"><a xlink:title=" ">
<polygon fill="#999999" stroke="#666666" points="140,-19 27,-19 27,0 140,0 140,-19"/>
<text text-anchor="middle" x="83.5" y="-7" font-family="Inter" font-size="10.00">MateXSettingsPlugin</text>
</a>
</g>
</g>
<!-- Node2 -->
<g id="Node000002" class="node">
<title>Node2</title>
<g id="a_Node000002"><a xlink:href="structMateSettingsPlugin.html" target="_top" xlink:title=" ">
<polygon fill="white" stroke="#666666" points="107,-91 0,-91 0,-72 107,-72 107,-91"/>
<text text-anchor="middle" x="53.5" y="-79" font-family="Inter" font-size="10.00">MateSettingsPlugin</text>
</a>
</g>
</g>
<!-- Node2&#45;&gt;Node1 -->
<g id="edge1_Node000001_Node000002" class="edge">
<title>Node2&#45;&gt;Node1</title>
<g id="a_edge1_Node000001_Node000002"><a xlink:title=" ">
<path fill="none" stroke="#9a32cd" stroke-dasharray="5,2" d="M61.26,-62.4C67.22,-48.49 75.19,-29.89 79.79,-19.15"/>
<polygon fill="#9a32cd" stroke="#9a32cd" points="57.9,-61.35 57.18,-71.92 64.33,-64.1 57.9,-61.35"/>
</a>
</g>
<text text-anchor="start" x="76" y="-42.5" font-family="Inter" font-size="10.00" fill="grey">parent</text>
</g>
<!-- Node3 -->
<g id="Node000003" class="node">
<title>Node3</title>
<g id="a_Node000003"><a xlink:title=" ">
<polygon fill="white" stroke="#666666" points="271.5,-91 125.5,-91 125.5,-72 271.5,-72 271.5,-91"/>
<text text-anchor="middle" x="198.5" y="-79" font-family="Inter" font-size="10.00">MateXSettingsPluginPrivate</text>
</a>
</g>
</g>
<!-- Node3&#45;&gt;Node1 -->
<g id="edge2_Node000001_Node000003" class="edge">
<title>Node3&#45;&gt;Node1</title>
<g id="a_edge2_Node000001_Node000003"><a xlink:title=" ">
<path fill="none" stroke="#9a32cd" stroke-dasharray="5,2" d="M175.56,-66.53C152.34,-52.4 117.18,-31 97.72,-19.15"/>
<polygon fill="#9a32cd" stroke="#9a32cd" points="174.04,-69.71 184.4,-71.92 177.68,-63.73 174.04,-69.71"/>
</a>
</g>
<text text-anchor="start" x="158" y="-42.5" font-family="Inter" font-size="10.00" fill="grey">priv</text>
</g>
<!-- Node4 -->
<g id="Node000004" class="node">
<title>Node4</title>
<g id="a_Node000004"><a xlink:href="structMateXSettingsManager.html" target="_top" xlink:title=" ">
<polygon fill="#fff0f0" stroke="red" points="261.5,-163 135.5,-163 135.5,-144 261.5,-144 261.5,-163"/>
<text text-anchor="middle" x="198.5" y="-151" font-family="Inter" font-size="10.00">MateXSettingsManager</text>
</a>
</g>
</g>
<!-- Node4&#45;&gt;Node3 -->
<g id="edge3_Node000003_Node000004" class="edge">
<title>Node4&#45;&gt;Node3</title>
<g id="a_edge3_Node000003_Node000004"><a xlink:title=" ">
<path fill="none" stroke="#9a32cd" stroke-dasharray="5,2" d="M198.5,-133.58C198.5,-119.76 198.5,-101.68 198.5,-91.15"/>
<polygon fill="#9a32cd" stroke="#9a32cd" points="195,-133.92 198.5,-143.92 202,-133.92 195,-133.92"/>
</a>
</g>
<text text-anchor="start" x="202" y="-114.5" font-family="Inter" font-size="10.00" fill="grey">manager</text>
</g>
</g>
</svg>
</svg>

<style type='text/css'>
<![CDATA[
[data-mouse-over-selected='false'] { opacity: 0.7; }
[data-mouse-over-selected='true']  { opacity: 1.0; }
]]>
</style>
<script type="application/ecmascript"><![CDATA[
document.addEventListener('DOMContentLoaded', (event) => {
  highlightEdges();
  highlightAdjacentNodes();
});
]]></script>
</svg>
