<?xml version="1.0" encoding="UTF-8" standalone="no"?>
<!DOCTYPE svg PUBLIC "-//W3C//DTD SVG 1.1//EN"
 "http://www.w3.org/Graphics/SVG/1.1/DTD/svg11.dtd">
<!-- Generated by graphviz version 2.43.0 (0)
 -->
<!-- Title: MsdMousePlugin Pages: 1 -->
<svg width="262pt" height="171pt"
 viewBox="0.00 0.00 262.00 171.00" xmlns="http://www.w3.org/2000/svg" xmlns:xlink="http://www.w3.org/1999/xlink">

<svg id="main" version="1.1" xmlns="http://www.w3.org/2000/svg" xmlns:xlink="http://www.w3.org/1999/xlink" xml:space="preserve">

<style type="text/css"><![CDATA[
.node, .edge {opacity: 0.7;}
.node.selected, .edge.selected {opacity: 1;}
.edge:hover path { stroke: red; }
.edge:hover polygon { stroke: red; fill: red; }
]]></style>
<script type="application/ecmascript" xlink:href="svg.min.js"/>
<svg id="graph" class="graph">
<g id="graph0" class="graph" transform="scale(1 1) rotate(0) translate(4 167)">
<title>MsdMousePlugin</title>
<!-- Node1 -->
<g id="Node000001" class="node">
<title>Node1</title>
<g id="a_Node000001"><a xlink:title=" ">
<polygon fill="#999999" stroke="#666666" points="150.5,-19 54.5,-19 54.5,0 150.5,0 150.5,-19"/>
<text text-anchor="middle" x="102.5" y="-7" font-family="Inter" font-size="10.00">MsdMousePlugin</text>
</a>
</g>
</g>
<!-- Node2 -->
<g id="Node000002" class="node">
<title>Node2</title>
<g id="a_Node000002"><a xlink:href="structMateSettingsPlugin.html" target="_top" xlink:title=" ">
<polygon fill="white" stroke="#666666" points="107,-91 0,-91 0,-72 107,-72 107,-91"/>
<text text-anchor="middle" x="53.5" y="-79" font-family="Inter" font-size="10.00">MateSettingsPlugin</text>
</a>
</g>
</g>
<!-- Node2&#45;&gt;Node1 -->
<g id="edge1_Node000001_Node000002" class="edge">
<title>Node2&#45;&gt;Node1</title>
<g id="a_edge1_Node000001_Node000002"><a xlink:title=" ">
<path fill="none" stroke="#9a32cd" stroke-dasharray="5,2" d="M65.32,-63.62C75.14,-49.59 88.7,-30.21 96.44,-19.15"/>
<polygon fill="#9a32cd" stroke="#9a32cd" points="62.38,-61.72 59.51,-71.92 68.11,-65.73 62.38,-61.72"/>
</a>
</g>
<text text-anchor="start" x="87" y="-42.5" font-family="Inter" font-size="10.00" fill="grey">parent</text>
</g>
<!-- Node3 -->
<g id="Node000003" class="node">
<title>Node3</title>
<g id="a_Node000003"><a xlink:title=" ">
<polygon fill="white" stroke="#666666" points="254,-91 125,-91 125,-72 254,-72 254,-91"/>
<text text-anchor="middle" x="189.5" y="-79" font-family="Inter" font-size="10.00">MsdMousePluginPrivate</text>
</a>
</g>
</g>
<!-- Node3&#45;&gt;Node1 -->
<g id="edge2_Node000001_Node000003" class="edge">
<title>Node3&#45;&gt;Node1</title>
<g id="a_edge2_Node000001_Node000003"><a xlink:title=" ">
<path fill="none" stroke="#9a32cd" stroke-dasharray="5,2" d="M170.96,-65.58C153.4,-51.46 127.65,-30.74 113.26,-19.15"/>
<polygon fill="#9a32cd" stroke="#9a32cd" points="168.85,-68.37 178.83,-71.92 173.23,-62.92 168.85,-68.37"/>
</a>
</g>
<text text-anchor="start" x="159" y="-42.5" font-family="Inter" font-size="10.00" fill="grey">priv</text>
</g>
<!-- Node4 -->
<g id="Node000004" class="node">
<title>Node4</title>
<g id="a_Node000004"><a xlink:href="structMsdMouseManager.html" target="_top" xlink:title=" ">
<polygon fill="#fff0f0" stroke="red" points="244.5,-163 134.5,-163 134.5,-144 244.5,-144 244.5,-163"/>
<text text-anchor="middle" x="189.5" y="-151" font-family="Inter" font-size="10.00">MsdMouseManager</text>
</a>
</g>
</g>
<!-- Node4&#45;&gt;Node3 -->
<g id="edge3_Node000003_Node000004" class="edge">
<title>Node4&#45;&gt;Node3</title>
<g id="a_edge3_Node000003_Node000004"><a xlink:title=" ">
<path fill="none" stroke="#9a32cd" stroke-dasharray="5,2" d="M189.5,-133.58C189.5,-119.76 189.5,-101.68 189.5,-91.15"/>
<polygon fill="#9a32cd" stroke="#9a32cd" points="186,-133.92 189.5,-143.92 193,-133.92 186,-133.92"/>
</a>
</g>
<text text-anchor="start" x="193" y="-114.5" font-family="Inter" font-size="10.00" fill="grey">manager</text>
</g>
</g>
</svg>
</svg>

<style type='text/css'>
<![CDATA[
[data-mouse-over-selected='false'] { opacity: 0.7; }
[data-mouse-over-selected='true']  { opacity: 1.0; }
]]>
</style>
<script type="application/ecmascript"><![CDATA[
document.addEventListener('DOMContentLoaded', (event) => {
  highlightEdges();
  highlightAdjacentNodes();
});
]]></script>
</svg>
