<?xml version="1.0" encoding="UTF-8" standalone="no"?>
<!DOCTYPE svg PUBLIC "-//W3C//DTD SVG 1.1//EN"
 "http://www.w3.org/Graphics/SVG/1.1/DTD/svg11.dtd">
<!-- Generated by graphviz version 2.43.0 (0)
 -->
<!-- Title: _CajaWindowSlotInfoIface Pages: 1 -->
<svg width="222pt" height="171pt"
 viewBox="0.00 0.00 222.00 171.00" xmlns="http://www.w3.org/2000/svg" xmlns:xlink="http://www.w3.org/1999/xlink">
<g id="graph0" class="graph" transform="scale(1 1) rotate(0) translate(4 167)">
<title>_CajaWindowSlotInfoIface</title>
<!-- Node1 -->
<g id="Node000001" class="node">
<title>Node1</title>
<g id="a_Node000001"><a xlink:title=" ">
<polygon fill="#999999" stroke="#666666" points="181.5,-19 44.5,-19 44.5,0 181.5,0 181.5,-19"/>
<text text-anchor="middle" x="113" y="-7" font-family="Inter" font-size="10.00">_CajaWindowSlotInfoIface</text>
</a>
</g>
</g>
<!-- Node2 -->
<g id="Node000002" class="node">
<title>Node2</title>
<g id="a_Node000002"><a xlink:href="structCajaWindow.html" target="_top" xlink:title=" ">
<polygon fill="white" stroke="#666666" points="149,-91 77,-91 77,-72 149,-72 149,-91"/>
<text text-anchor="middle" x="113" y="-79" font-family="Inter" font-size="10.00">CajaWindow</text>
</a>
</g>
</g>
<!-- Node2&#45;&gt;Node1 -->
<g id="edge1_Node000001_Node000002" class="edge">
<title>Node2&#45;&gt;Node1</title>
<g id="a_edge1_Node000001_Node000002"><a xlink:title=" ">
<path fill="none" stroke="#9a32cd" stroke-dasharray="5,2" d="M113,-61.58C113,-47.76 113,-29.68 113,-19.15"/>
<polygon fill="#9a32cd" stroke="#9a32cd" points="109.5,-61.92 113,-71.92 116.5,-61.92 109.5,-61.92"/>
</a>
</g>
<text text-anchor="start" x="116" y="-42.5" font-family="Inter" font-size="10.00" fill="grey">get_window</text>
</g>
<!-- Node3 -->
<g id="Node000003" class="node">
<title>Node3</title>
<g id="a_Node000003"><a xlink:href="struct__CajaWindowPrivate.html" target="_top" xlink:title=" ">
<polygon fill="#fff0f0" stroke="red" points="110,-163 0,-163 0,-144 110,-144 110,-163"/>
<text text-anchor="middle" x="55" y="-151" font-family="Inter" font-size="10.00">_CajaWindowPrivate</text>
</a>
</g>
</g>
<!-- Node3&#45;&gt;Node2 -->
<g id="edge2_Node000002_Node000003" class="edge">
<title>Node3&#45;&gt;Node2</title>
<g id="a_edge2_Node000002_Node000003"><a xlink:title=" ">
<path fill="none" stroke="#9a32cd" stroke-dasharray="5,2" d="M68.66,-136.01C80.3,-121.96 96.58,-102.32 105.83,-91.15"/>
<polygon fill="#9a32cd" stroke="#9a32cd" points="65.8,-133.98 62.11,-143.92 71.19,-138.45 65.8,-133.98"/>
</a>
</g>
<text text-anchor="start" x="94.5" y="-114.5" font-family="Inter" font-size="10.00" fill="grey">details</text>
</g>
<!-- Node30 -->
<g id="Node000030" class="node">
<title>Node30</title>
<g id="a_Node000030"><a xlink:href="structCajaApplication.html" target="_top" xlink:title=" ">
<polygon fill="#fff0f0" stroke="red" points="214,-163 128,-163 128,-144 214,-144 214,-163"/>
<text text-anchor="middle" x="171" y="-151" font-family="Inter" font-size="10.00">CajaApplication</text>
</a>
</g>
</g>
<!-- Node30&#45;&gt;Node2 -->
<g id="edge3_Node000002_Node000030" class="edge">
<title>Node30&#45;&gt;Node2</title>
<g id="a_edge3_Node000002_Node000030"><a xlink:title=" ">
<path fill="none" stroke="#9a32cd" stroke-dasharray="5,2" d="M157.34,-136.01C145.7,-121.96 129.42,-102.32 120.17,-91.15"/>
<polygon fill="#9a32cd" stroke="#9a32cd" points="154.81,-138.45 163.89,-143.92 160.2,-133.98 154.81,-138.45"/>
</a>
</g>
<text text-anchor="start" x="151" y="-114.5" font-family="Inter" font-size="10.00" fill="grey">application</text>
</g>
</g>
</svg>
