<?xml version="1.0" encoding="UTF-8" standalone="no"?>
<!DOCTYPE svg PUBLIC "-//W3C//DTD SVG 1.1//EN"
 "http://www.w3.org/Graphics/SVG/1.1/DTD/svg11.dtd">
<!-- Generated by graphviz version 2.43.0 (0)
 -->
<!-- Title: FooScrollArea Pages: 1 -->
<svg width="316pt" height="99pt"
 viewBox="0.00 0.00 316.00 99.00" xmlns="http://www.w3.org/2000/svg" xmlns:xlink="http://www.w3.org/1999/xlink">

<svg id="main" version="1.1" xmlns="http://www.w3.org/2000/svg" xmlns:xlink="http://www.w3.org/1999/xlink" xml:space="preserve">

<style type="text/css"><![CDATA[
.node, .edge {opacity: 0.7;}
.node.selected, .edge.selected {opacity: 1;}
.edge:hover path { stroke: red; }
.edge:hover polygon { stroke: red; fill: red; }
]]></style>
<script type="application/ecmascript" xlink:href="svg.min.js"/>
<svg id="graph" class="graph">
<g id="graph0" class="graph" transform="scale(1 1) rotate(0) translate(4 95)">
<title>FooScrollArea</title>
<!-- Node1 -->
<g id="Node000001" class="node">
<title>Node1</title>
<g id="a_Node000001"><a xlink:title=" ">
<polygon fill="#999999" stroke="#666666" points="80,-91 0,-91 0,-72 80,-72 80,-91"/>
<text text-anchor="middle" x="40" y="-79" font-family="Inter" font-size="10.00">FooScrollArea</text>
</a>
</g>
</g>
<!-- Node2 -->
<g id="Node000002" class="node">
<title>Node2</title>
<g id="a_Node000002"><a xlink:title=" ">
<polygon fill="white" stroke="#666666" points="183.5,-19 70.5,-19 70.5,0 183.5,0 183.5,-19"/>
<text text-anchor="middle" x="127" y="-7" font-family="Inter" font-size="10.00">FooScrollAreaPrivate</text>
</a>
</g>
</g>
<!-- Node1&#45;&gt;Node2 -->
<g id="edge4_Node000002_Node000001" class="edge">
<title>Node1&#45;&gt;Node2</title>
<g id="a_edge4_Node000002_Node000001"><a xlink:title=" ">
<path fill="none" stroke="#9a32cd" stroke-dasharray="5,2" d="M26.88,-63.23C22.09,-54.69 19.11,-44.61 25,-37 31.07,-29.15 50.32,-23.19 70.48,-18.93"/>
<polygon fill="#9a32cd" stroke="#9a32cd" points="24.05,-65.28 32.48,-71.7 29.89,-61.42 24.05,-65.28"/>
</a>
</g>
<text text-anchor="start" x="28" y="-42.5" font-family="Inter" font-size="10.00" fill="grey">grab_func</text>
</g>
<!-- Node2&#45;&gt;Node1 -->
<g id="edge1_Node000001_Node000002" class="edge">
<title>Node2&#45;&gt;Node1</title>
<g id="a_edge1_Node000001_Node000002"><a xlink:title=" ">
<path fill="none" stroke="#9a32cd" stroke-dasharray="5,2" d="M111.8,-26.23C103.13,-34.85 91.85,-45.48 81,-54 72.73,-60.49 62.86,-66.91 54.87,-71.81"/>
<polygon fill="#9a32cd" stroke="#9a32cd" points="114.4,-28.58 118.94,-19 109.42,-23.66 114.4,-28.58"/>
</a>
</g>
<text text-anchor="start" x="102.5" y="-42.5" font-family="Inter" font-size="10.00" fill="grey">priv</text>
</g>
<!-- Node3 -->
<g id="Node000003" class="node">
<title>Node3</title>
<g id="a_Node000003"><a xlink:href="structAutoScrollInfo.html" target="_top" xlink:title=" ">
<polygon fill="white" stroke="#666666" points="192.5,-91 109.5,-91 109.5,-72 192.5,-72 192.5,-91"/>
<text text-anchor="middle" x="151" y="-79" font-family="Inter" font-size="10.00">AutoScrollInfo</text>
</a>
</g>
</g>
<!-- Node3&#45;&gt;Node2 -->
<g id="edge2_Node000002_Node000003" class="edge">
<title>Node3&#45;&gt;Node2</title>
<g id="a_edge2_Node000002_Node000003"><a xlink:title=" ">
<path fill="none" stroke="#9a32cd" stroke-dasharray="5,2" d="M144.79,-62.4C140.03,-48.49 133.65,-29.89 129.97,-19.15"/>
<polygon fill="#9a32cd" stroke="#9a32cd" points="141.5,-63.59 148.06,-71.92 148.12,-61.32 141.5,-63.59"/>
</a>
</g>
<text text-anchor="start" x="144" y="-42.5" font-family="Inter" font-size="10.00" fill="grey">auto_scroll_info</text>
</g>
<!-- Node4 -->
<g id="Node000004" class="node">
<title>Node4</title>
<g id="a_Node000004"><a xlink:title=" ">
<polygon fill="#fff0f0" stroke="red" points="289,-91 215,-91 215,-72 289,-72 289,-91"/>
<text text-anchor="middle" x="252" y="-79" font-family="Inter" font-size="10.00">InputRegion</text>
</a>
</g>
</g>
<!-- Node4&#45;&gt;Node2 -->
<g id="edge3_Node000002_Node000004" class="edge">
<title>Node4&#45;&gt;Node2</title>
<g id="a_edge3_Node000002_Node000004"><a xlink:title=" ">
<path fill="none" stroke="#9a32cd" stroke-dasharray="5,2" d="M243.86,-62.57C238.99,-53.68 231.98,-43.49 223,-37 211.44,-28.64 197.36,-22.92 183.59,-19"/>
<polygon fill="#9a32cd" stroke="#9a32cd" points="240.86,-64.39 248.46,-71.78 247.13,-61.27 240.86,-64.39"/>
</a>
</g>
<text text-anchor="start" x="241" y="-42.5" font-family="Inter" font-size="10.00" fill="grey">current_input</text>
</g>
</g>
</svg>
</svg>

<style type='text/css'>
<![CDATA[
[data-mouse-over-selected='false'] { opacity: 0.7; }
[data-mouse-over-selected='true']  { opacity: 1.0; }
]]>
</style>
<script type="application/ecmascript"><![CDATA[
document.addEventListener('DOMContentLoaded', (event) => {
  highlightEdges();
  highlightAdjacentNodes();
});
]]></script>
</svg>
