<?xml version="1.0" encoding="UTF-8" standalone="no"?>
<!DOCTYPE svg PUBLIC "-//W3C//DTD SVG 1.1//EN"
 "http://www.w3.org/Graphics/SVG/1.1/DTD/svg11.dtd">
<!-- Generated by graphviz version 2.43.0 (0)
 -->
<!-- Title: CactAddCapabilityDialog Pages: 1 -->
<svg width="286pt" height="182pt"
 viewBox="0.00 0.00 285.50 182.00" xmlns="http://www.w3.org/2000/svg" xmlns:xlink="http://www.w3.org/1999/xlink">
<g id="graph0" class="graph" transform="scale(1 1) rotate(0) translate(4 178)">
<title>CactAddCapabilityDialog</title>
<!-- Node1 -->
<g id="Node000001" class="node">
<title>Node1</title>
<g id="a_Node000001"><a xlink:title=" ">
<polygon fill="#999999" stroke="#666666" points="216,-19 88,-19 88,0 216,0 216,-19"/>
<text text-anchor="middle" x="152" y="-7" font-family="Inter" font-size="10.00">CactAddCapabilityDialog</text>
</a>
</g>
</g>
<!-- Node2 -->
<g id="Node000002" class="node">
<title>Node2</title>
<g id="a_Node000002"><a xlink:href="structBaseDialog.html" target="_top" xlink:title=" ">
<polygon fill="white" stroke="#666666" points="126,-96.5 58,-96.5 58,-77.5 126,-77.5 126,-96.5"/>
<text text-anchor="middle" x="92" y="-84.5" font-family="Inter" font-size="10.00">BaseDialog</text>
</a>
</g>
</g>
<!-- Node2&#45;&gt;Node1 -->
<g id="edge1_Node000001_Node000002" class="edge">
<title>Node2&#45;&gt;Node1</title>
<g id="a_edge1_Node000001_Node000002"><a xlink:title=" ">
<path fill="none" stroke="#9a32cd" stroke-dasharray="5,2" d="M105.42,-69.12C117.76,-53.58 135.57,-31.18 145.2,-19.06"/>
<polygon fill="#9a32cd" stroke="#9a32cd" points="102.36,-67.33 98.88,-77.34 107.84,-71.69 102.36,-67.33"/>
</a>
</g>
<text text-anchor="start" x="134.5" y="-42.5" font-family="Inter" font-size="10.00" fill="grey">parent</text>
</g>
<!-- Node3 -->
<g id="Node000003" class="node">
<title>Node3</title>
<g id="a_Node000003"><a xlink:href="structBaseWindow.html" target="_top" xlink:title=" ">
<polygon fill="#fff0f0" stroke="red" points="76,-174 0,-174 0,-155 76,-155 76,-174"/>
<text text-anchor="middle" x="38" y="-162" font-family="Inter" font-size="10.00">BaseWindow</text>
</a>
</g>
</g>
<!-- Node3&#45;&gt;Node2 -->
<g id="edge2_Node000002_Node000003" class="edge">
<title>Node3&#45;&gt;Node2</title>
<g id="a_edge2_Node000002_Node000003"><a xlink:title=" ">
<path fill="none" stroke="#9a32cd" stroke-dasharray="5,2" d="M50.07,-146.62C61.18,-131.08 77.21,-108.68 85.88,-96.56"/>
<polygon fill="#9a32cd" stroke="#9a32cd" points="47.17,-144.67 44.19,-154.84 52.86,-148.74 47.17,-144.67"/>
</a>
</g>
<text text-anchor="start" x="72.5" y="-125.5" font-family="Inter" font-size="10.00" fill="grey">parent</text>
</g>
<!-- Node9 -->
<g id="Node000009" class="node">
<title>Node9</title>
<g id="a_Node000009"><a xlink:title=" ">
<polygon fill="white" stroke="#666666" points="200,-174 94,-174 94,-155 200,-155 200,-174"/>
<text text-anchor="middle" x="147" y="-162" font-family="Inter" font-size="10.00">_BaseDialogPrivate</text>
</a>
</g>
</g>
<!-- Node9&#45;&gt;Node2 -->
<g id="edge3_Node000002_Node000009" class="edge">
<title>Node9&#45;&gt;Node2</title>
<g id="a_edge3_Node000002_Node000009"><a xlink:title=" ">
<path fill="none" stroke="#9a32cd" stroke-dasharray="5,2" d="M134.7,-146.62C123.39,-131.08 107.06,-108.68 98.24,-96.56"/>
<polygon fill="#9a32cd" stroke="#9a32cd" points="131.97,-148.82 140.69,-154.84 137.63,-144.7 131.97,-148.82"/>
</a>
</g>
<text text-anchor="start" x="131" y="-125.5" font-family="Inter" font-size="10.00" fill="grey">private</text>
</g>
<!-- Node10 -->
<g id="Node000010" class="node">
<title>Node10</title>
<g id="a_Node000010"><a xlink:title=" ">
<polygon fill="white" stroke="#666666" points="277.5,-102 144.5,-102 144.5,-72 277.5,-72 277.5,-102"/>
<text text-anchor="start" x="152.5" y="-90" font-family="Inter" font-size="10.00">_CactAddCapabilityDialog</text>
<text text-anchor="middle" x="211" y="-79" font-family="Inter" font-size="10.00">Private</text>
</a>
</g>
</g>
<!-- Node10&#45;&gt;Node1 -->
<g id="edge4_Node000001_Node000010" class="edge">
<title>Node10&#45;&gt;Node1</title>
<g id="a_edge4_Node000001_Node000010"><a xlink:title=" ">
<path fill="none" stroke="#9a32cd" stroke-dasharray="5,2" d="M193.43,-63.52C181.73,-48.55 167.02,-29.72 158.65,-19.01"/>
<polygon fill="#9a32cd" stroke="#9a32cd" points="190.99,-66.07 199.9,-71.8 196.5,-61.76 190.99,-66.07"/>
</a>
</g>
<text text-anchor="start" x="188" y="-42.5" font-family="Inter" font-size="10.00" fill="grey">private</text>
</g>
</g>
</svg>
