<?xml version="1.0" encoding="UTF-8" standalone="no"?>
<!DOCTYPE svg PUBLIC "-//W3C//DTD SVG 1.1//EN"
 "http://www.w3.org/Graphics/SVG/1.1/DTD/svg11.dtd">
<!-- Generated by graphviz version 2.43.0 (0)
 -->
<!-- Title: CajaIconContainer Pages: 1 -->
<svg width="598pt" height="600pt"
 viewBox="0.00 0.00 597.50 600.00" xmlns="http://www.w3.org/2000/svg" xmlns:xlink="http://www.w3.org/1999/xlink">
<g id="graph0" class="graph" transform="scale(1 1) rotate(0) translate(4 596)">
<title>CajaIconContainer</title>
<!-- Node1 -->
<g id="Node000001" class="node">
<title>Node1</title>
<g id="a_Node000001"><a xlink:title=" ">
<polygon fill="#999999" stroke="#666666" points="101,-19 0,-19 0,0 101,0 101,-19"/>
<text text-anchor="middle" x="50.5" y="-7" font-family="Inter" font-size="10.00">CajaIconContainer</text>
</a>
</g>
</g>
<!-- Node2 -->
<g id="Node000002" class="node">
<title>Node2</title>
<g id="a_Node000002"><a xlink:href="struct__EelCanvas.html" target="_top" xlink:title=" ">
<polygon fill="white" stroke="#666666" points="130,-592 63,-592 63,-573 130,-573 130,-592"/>
<text text-anchor="middle" x="96.5" y="-580" font-family="Inter" font-size="10.00">_EelCanvas</text>
</a>
</g>
</g>
<!-- Node2&#45;&gt;Node1 -->
<g id="edge1_Node000001_Node000002" class="edge">
<title>Node2&#45;&gt;Node1</title>
<g id="a_edge1_Node000001_Node000002"><a xlink:title=" ">
<path fill="none" stroke="#9a32cd" stroke-dasharray="5,2" d="M82.54,-564.78C64.25,-541.14 34.5,-495.84 34.5,-451.5 34.5,-451.5 34.5,-451.5 34.5,-80.5 34.5,-58.06 42.41,-32.57 47.11,-19.41"/>
<polygon fill="#9a32cd" stroke="#9a32cd" points="79.92,-567.11 88.9,-572.74 85.39,-562.74 79.92,-567.11"/>
</a>
</g>
<text text-anchor="start" x="38" y="-375.5" font-family="Inter" font-size="10.00" fill="grey">canvas</text>
</g>
<!-- Node3 -->
<g id="Node000003" class="node">
<title>Node3</title>
<g id="a_Node000003"><a xlink:href="struct__EelCanvasItem.html" target="_top" xlink:title=" ">
<polygon fill="white" stroke="#666666" points="201,-460 112,-460 112,-441 201,-441 201,-460"/>
<text text-anchor="middle" x="156.5" y="-448" font-family="Inter" font-size="10.00">_EelCanvasItem</text>
</a>
</g>
</g>
<!-- Node2&#45;&gt;Node3 -->
<g id="edge3_Node000003_Node000002" class="edge">
<title>Node2&#45;&gt;Node3</title>
<g id="a_edge3_Node000003_Node000002"><a xlink:title=" ">
<path fill="none" stroke="#9a32cd" stroke-dasharray="5,2" d="M90.01,-563.02C83.48,-540.85 76.57,-503.49 93.5,-478 99.01,-469.7 107.69,-463.99 116.87,-460.07"/>
<polygon fill="#9a32cd" stroke="#9a32cd" points="86.78,-564.38 93.18,-572.82 93.44,-562.23 86.78,-564.38"/>
</a>
</g>
<text text-anchor="start" x="97" y="-513.5" font-family="Inter" font-size="10.00" fill="grey">canvas</text>
</g>
<!-- Node3&#45;&gt;Node2 -->
<g id="edge2_Node000002_Node000003" class="edge">
<title>Node3&#45;&gt;Node2</title>
<g id="a_edge2_Node000002_Node000003"><a xlink:title=" ">
<path fill="none" stroke="#9a32cd" stroke-dasharray="5,2" d="M156.56,-470.09C155.77,-492.11 151.71,-529.06 134.5,-555 129.52,-562.51 121.63,-568.52 114.32,-572.9"/>
<polygon fill="#9a32cd" stroke="#9a32cd" points="160.06,-470.13 156.72,-460.08 153.06,-470.02 160.06,-470.13"/>
</a>
</g>
<text text-anchor="start" x="159.5" y="-543.5" font-family="Inter" font-size="10.00" fill="grey">current_item</text>
<text text-anchor="start" x="159.5" y="-528.5" font-family="Inter" font-size="10.00" fill="grey">focused_item</text>
<text text-anchor="start" x="159.5" y="-513.5" font-family="Inter" font-size="10.00" fill="grey">grabbed_item</text>
<text text-anchor="start" x="159.5" y="-498.5" font-family="Inter" font-size="10.00" fill="grey">new_current_item</text>
<text text-anchor="start" x="159.5" y="-483.5" font-family="Inter" font-size="10.00" fill="grey">root</text>
</g>
<!-- Node3&#45;&gt;Node3 -->
<g id="edge4_Node000003_Node000003" class="edge">
<title>Node3&#45;&gt;Node3</title>
<g id="a_edge4_Node000003_Node000003"><a xlink:title=" ">
<path fill="none" stroke="#9a32cd" stroke-dasharray="5,2" d="M211.33,-455.77C216.05,-454.65 219,-452.9 219,-450.5 219,-446.67 211.45,-444.47 201.16,-443.9"/>
<polygon fill="#9a32cd" stroke="#9a32cd" points="210.63,-452.33 201.16,-457.1 211.53,-459.28 210.63,-452.33"/>
</a>
</g>
<text text-anchor="start" x="222.5" y="-447.5" font-family="Inter" font-size="10.00" fill="grey">parent</text>
</g>
<!-- Node9 -->
<g id="Node000009" class="node">
<title>Node9</title>
<g id="a_Node000009"><a xlink:href="structCajaIconRubberbandInfo.html" target="_top" xlink:title=" ">
<polygon fill="#fff0f0" stroke="red" points="223,-388 90,-388 90,-369 223,-369 223,-388"/>
<text text-anchor="middle" x="156.5" y="-376" font-family="Inter" font-size="10.00">CajaIconRubberbandInfo</text>
</a>
</g>
</g>
<!-- Node3&#45;&gt;Node9 -->
<g id="edge8_Node000009_Node000003" class="edge">
<title>Node3&#45;&gt;Node9</title>
<g id="a_edge8_Node000009_Node000003"><a xlink:title=" ">
<path fill="none" stroke="#9a32cd" stroke-dasharray="5,2" d="M156.5,-430.58C156.5,-416.76 156.5,-398.68 156.5,-388.15"/>
<polygon fill="#9a32cd" stroke="#9a32cd" points="153,-430.92 156.5,-440.92 160,-430.92 153,-430.92"/>
</a>
</g>
<text text-anchor="start" x="159.5" y="-411.5" font-family="Inter" font-size="10.00" fill="grey">selection_rectangle</text>
</g>
<!-- Node12 -->
<g id="Node000012" class="node">
<title>Node12</title>
<g id="a_Node000012"><a xlink:href="structCajaIconDndInfo.html" target="_top" xlink:title=" ">
<polygon fill="#fff0f0" stroke="red" points="336,-388 241,-388 241,-369 336,-369 336,-388"/>
<text text-anchor="middle" x="288.5" y="-376" font-family="Inter" font-size="10.00">CajaIconDndInfo</text>
</a>
</g>
</g>
<!-- Node3&#45;&gt;Node12 -->
<g id="edge11_Node000012_Node000003" class="edge">
<title>Node3&#45;&gt;Node12</title>
<g id="a_edge11_Node000012_Node000003"><a xlink:title=" ">
<path fill="none" stroke="#9a32cd" stroke-dasharray="5,2" d="M211.14,-442.03C226.73,-438.1 243.1,-432.12 256.5,-423 269.52,-414.14 279.23,-398.17 284.37,-388.24"/>
<polygon fill="#9a32cd" stroke="#9a32cd" points="210.02,-438.69 201.04,-444.32 211.57,-445.52 210.02,-438.69"/>
</a>
</g>
<text text-anchor="start" x="275.5" y="-411.5" font-family="Inter" font-size="10.00" fill="grey">shadow</text>
</g>
<!-- Node4 -->
<g id="Node000004" class="node">
<title>Node4</title>
<g id="a_Node000004"><a xlink:href="structCajaIconContainerDetails.html" target="_top" xlink:title=" ">
<polygon fill="white" stroke="#666666" points="355,-91 222,-91 222,-72 355,-72 355,-91"/>
<text text-anchor="middle" x="288.5" y="-79" font-family="Inter" font-size="10.00">CajaIconContainerDetails</text>
</a>
</g>
</g>
<!-- Node4&#45;&gt;Node1 -->
<g id="edge5_Node000001_Node000004" class="edge">
<title>Node4&#45;&gt;Node1</title>
<g id="a_edge5_Node000001_Node000004"><a xlink:title=" ">
<path fill="none" stroke="#9a32cd" stroke-dasharray="5,2" d="M249.66,-69.08C201.98,-55.05 122.23,-31.6 79.55,-19.04"/>
<polygon fill="#9a32cd" stroke="#9a32cd" points="248.74,-72.45 259.32,-71.92 250.71,-65.74 248.74,-72.45"/>
</a>
</g>
<text text-anchor="start" x="202" y="-42.5" font-family="Inter" font-size="10.00" fill="grey">details</text>
</g>
<!-- Node5 -->
<g id="Node000005" class="node">
<title>Node5</title>
<g id="a_Node000005"><a xlink:href="structCajaIcon.html" target="_top" xlink:title=" ">
<polygon fill="#fff0f0" stroke="red" points="410.5,-388 354.5,-388 354.5,-369 410.5,-369 410.5,-388"/>
<text text-anchor="middle" x="382.5" y="-376" font-family="Inter" font-size="10.00">CajaIcon</text>
</a>
</g>
</g>
<!-- Node5&#45;&gt;Node4 -->
<g id="edge6_Node000004_Node000005" class="edge">
<title>Node5&#45;&gt;Node4</title>
<g id="a_edge6_Node000004_Node000005"><a xlink:title=" ">
<path fill="none" stroke="#9a32cd" stroke-dasharray="5,2" d="M374.28,-359.47C373.22,-356.68 372.25,-353.79 371.5,-351 343.35,-246.22 401.79,-197.83 339.5,-109 333.83,-100.91 324.92,-95.12 316.12,-91.05"/>
<polygon fill="#9a32cd" stroke="#9a32cd" points="371.13,-361.01 378.24,-368.87 377.58,-358.29 371.13,-361.01"/>
</a>
</g>
<text text-anchor="start" x="374.5" y="-340" font-family="Inter" font-size="10.00" fill="grey">double_click_icon</text>
<text text-anchor="start" x="374.5" y="-325" font-family="Inter" font-size="10.00" fill="grey">drag_icon</text>
<text text-anchor="start" x="374.5" y="-310" font-family="Inter" font-size="10.00" fill="grey">drop_target</text>
<text text-anchor="start" x="374.5" y="-295" font-family="Inter" font-size="10.00" fill="grey">keyboard_focus</text>
<text text-anchor="start" x="374.5" y="-280" font-family="Inter" font-size="10.00" fill="grey">keyboard_icon_to</text>
<text text-anchor="start" x="374.5" y="-265" font-family="Inter" font-size="10.00" fill="grey">  _reveal</text>
<text text-anchor="start" x="374.5" y="-250" font-family="Inter" font-size="10.00" fill="grey">keyboard_rubberband</text>
<text text-anchor="start" x="374.5" y="-235" font-family="Inter" font-size="10.00" fill="grey">  _start</text>
<text text-anchor="start" x="374.5" y="-220" font-family="Inter" font-size="10.00" fill="grey">pending_icon_to</text>
<text text-anchor="start" x="374.5" y="-205" font-family="Inter" font-size="10.00" fill="grey">  _rename</text>
<text text-anchor="start" x="374.5" y="-190" font-family="Inter" font-size="10.00" fill="grey">pending_icon_to</text>
<text text-anchor="start" x="374.5" y="-175" font-family="Inter" font-size="10.00" fill="grey">  _reveal</text>
<text text-anchor="start" x="374.5" y="-160" font-family="Inter" font-size="10.00" fill="grey">range_selection</text>
<text text-anchor="start" x="374.5" y="-145" font-family="Inter" font-size="10.00" fill="grey">  _base_icon</text>
<text text-anchor="start" x="374.5" y="-130" font-family="Inter" font-size="10.00" fill="grey">stretch_icon</text>
<text text-anchor="start" x="374.5" y="-115" font-family="Inter" font-size="10.00" fill="grey"> &#160;...</text>
</g>
<!-- Node9&#45;&gt;Node4 -->
<g id="edge7_Node000004_Node000009" class="edge">
<title>Node9&#45;&gt;Node4</title>
<g id="a_edge7_Node000004_Node000009"><a xlink:title=" ">
<path fill="none" stroke="#9a32cd" stroke-dasharray="5,2" d="M153.39,-358.81C146.55,-310.82 135.52,-181.94 199.5,-109 206.73,-100.76 216.4,-95.03 226.7,-91.05"/>
<polygon fill="#9a32cd" stroke="#9a32cd" points="149.94,-359.37 154.92,-368.72 156.86,-358.3 149.94,-359.37"/>
</a>
</g>
<text text-anchor="start" x="203" y="-227" font-family="Inter" font-size="10.00" fill="grey">rubberband_info</text>
</g>
<!-- Node11 -->
<g id="Node000011" class="node">
<title>Node11</title>
<g id="a_Node000011"><a xlink:href="structStretchState.html" target="_top" xlink:title=" ">
<polygon fill="white" stroke="#666666" points="540.5,-388 466.5,-388 466.5,-369 540.5,-369 540.5,-388"/>
<text text-anchor="middle" x="503.5" y="-376" font-family="Inter" font-size="10.00">StretchState</text>
</a>
</g>
</g>
<!-- Node11&#45;&gt;Node4 -->
<g id="edge9_Node000004_Node000011" class="edge">
<title>Node11&#45;&gt;Node4</title>
<g id="a_edge9_Node000004_Node000011"><a xlink:title=" ">
<path fill="none" stroke="#9a32cd" stroke-dasharray="5,2" d="M508.81,-359.08C521.51,-310.73 547.88,-179.11 481.5,-109 464.53,-91.07 404.14,-84.97 355.38,-83.04"/>
<polygon fill="#9a32cd" stroke="#9a32cd" points="505.42,-358.22 506.14,-368.79 512.17,-360.08 505.42,-358.22"/>
</a>
</g>
<text text-anchor="start" x="528" y="-227" font-family="Inter" font-size="10.00" fill="grey">stretch_start</text>
</g>
<!-- Node12&#45;&gt;Node4 -->
<g id="edge10_Node000004_Node000012" class="edge">
<title>Node12&#45;&gt;Node4</title>
<g id="a_edge10_Node000004_Node000012"><a xlink:title=" ">
<path fill="none" stroke="#9a32cd" stroke-dasharray="5,2" d="M288.5,-358.92C288.5,-301.96 288.5,-131.24 288.5,-91.05"/>
<polygon fill="#9a32cd" stroke="#9a32cd" points="285,-358.99 288.5,-368.99 292,-358.99 285,-358.99"/>
</a>
</g>
<text text-anchor="start" x="292" y="-227" font-family="Inter" font-size="10.00" fill="grey">dnd_info</text>
</g>
</g>
</svg>
