<?xml version="1.0" encoding="UTF-8" standalone="no"?>
<!DOCTYPE svg PUBLIC "-//W3C//DTD SVG 1.1//EN"
 "http://www.w3.org/Graphics/SVG/1.1/DTD/svg11.dtd">
<!-- Generated by graphviz version 2.43.0 (0)
 -->
<!-- Title: _EomJobLoad Pages: 1 -->
<svg width="170pt" height="171pt"
 viewBox="0.00 0.00 170.00 171.00" xmlns="http://www.w3.org/2000/svg" xmlns:xlink="http://www.w3.org/1999/xlink">
<g id="graph0" class="graph" transform="scale(1 1) rotate(0) translate(4 167)">
<title>_EomJobLoad</title>
<!-- Node1 -->
<g id="Node000001" class="node">
<title>Node1</title>
<g id="a_Node000001"><a xlink:title=" ">
<polygon fill="#999999" stroke="#666666" points="97.5,-19 18.5,-19 18.5,0 97.5,0 97.5,-19"/>
<text text-anchor="middle" x="58" y="-7" font-family="Inter" font-size="10.00">_EomJobLoad</text>
</a>
</g>
</g>
<!-- Node2 -->
<g id="Node000002" class="node">
<title>Node2</title>
<g id="a_Node000002"><a xlink:href="struct__EomJob.html" target="_top" xlink:title=" ">
<polygon fill="white" stroke="#666666" points="56,-91 0,-91 0,-72 56,-72 56,-91"/>
<text text-anchor="middle" x="28" y="-79" font-family="Inter" font-size="10.00">_EomJob</text>
</a>
</g>
</g>
<!-- Node2&#45;&gt;Node1 -->
<g id="edge1_Node000001_Node000002" class="edge">
<title>Node2&#45;&gt;Node1</title>
<g id="a_edge1_Node000001_Node000002"><a xlink:title=" ">
<path fill="none" stroke="#9a32cd" stroke-dasharray="5,2" d="M31.72,-61.85C33.66,-53.97 36.38,-44.83 40,-37 42.89,-30.74 47.21,-24.33 50.89,-19.38"/>
<polygon fill="#9a32cd" stroke="#9a32cd" points="28.25,-61.35 29.51,-71.87 35.08,-62.86 28.25,-61.35"/>
</a>
</g>
<text text-anchor="start" x="43.5" y="-42.5" font-family="Inter" font-size="10.00" fill="grey">parent</text>
</g>
<!-- Node3 -->
<g id="Node000003" class="node">
<title>Node3</title>
<g id="a_Node000003"><a xlink:href="struct__EomImage.html" target="_top" xlink:title=" ">
<polygon fill="white" stroke="#666666" points="145.5,-91 74.5,-91 74.5,-72 145.5,-72 145.5,-91"/>
<text text-anchor="middle" x="110" y="-79" font-family="Inter" font-size="10.00">_EomImage</text>
</a>
</g>
</g>
<!-- Node3&#45;&gt;Node1 -->
<g id="edge2_Node000001_Node000003" class="edge">
<title>Node3&#45;&gt;Node1</title>
<g id="a_edge2_Node000001_Node000003"><a xlink:title=" ">
<path fill="none" stroke="#9a32cd" stroke-dasharray="5,2" d="M97.46,-63.62C87.04,-49.59 72.64,-30.21 64.43,-19.15"/>
<polygon fill="#9a32cd" stroke="#9a32cd" points="94.85,-65.98 103.62,-71.92 100.47,-61.8 94.85,-65.98"/>
</a>
</g>
<text text-anchor="start" x="93.5" y="-42.5" font-family="Inter" font-size="10.00" fill="grey">image</text>
</g>
<!-- Node4 -->
<g id="Node000004" class="node">
<title>Node4</title>
<g id="a_Node000004"><a xlink:href="struct__EomImagePrivate.html" target="_top" xlink:title=" ">
<polygon fill="#fff0f0" stroke="red" points="162,-163 58,-163 58,-144 162,-144 162,-163"/>
<text text-anchor="middle" x="110" y="-151" font-family="Inter" font-size="10.00">_EomImagePrivate</text>
</a>
</g>
</g>
<!-- Node4&#45;&gt;Node3 -->
<g id="edge3_Node000003_Node000004" class="edge">
<title>Node4&#45;&gt;Node3</title>
<g id="a_edge3_Node000003_Node000004"><a xlink:title=" ">
<path fill="none" stroke="#9a32cd" stroke-dasharray="5,2" d="M110,-133.58C110,-119.76 110,-101.68 110,-91.15"/>
<polygon fill="#9a32cd" stroke="#9a32cd" points="106.5,-133.92 110,-143.92 113.5,-133.92 106.5,-133.92"/>
</a>
</g>
<text text-anchor="start" x="113.5" y="-114.5" font-family="Inter" font-size="10.00" fill="grey">priv</text>
</g>
</g>
</svg>
