<?xml version="1.0" encoding="UTF-8" standalone="no"?>
<!DOCTYPE svg PUBLIC "-//W3C//DTD SVG 1.1//EN"
 "http://www.w3.org/Graphics/SVG/1.1/DTD/svg11.dtd">
<!-- Generated by graphviz version 2.43.0 (0)
 -->
<!-- Title: _MetaFrameStyleSet Pages: 1 -->
<svg width="419pt" height="391pt"
 viewBox="0.00 0.00 419.00 390.55" xmlns="http://www.w3.org/2000/svg" xmlns:xlink="http://www.w3.org/1999/xlink">
<g id="graph0" class="graph" transform="scale(1 1) rotate(0) translate(4 386.55)">
<title>_MetaFrameStyleSet</title>
<!-- Node1 -->
<g id="Node000001" class="node">
<title>Node1</title>
<g id="a_Node000001"><a xlink:title=" ">
<polygon fill="#999999" stroke="#666666" points="225,-30.55 113,-30.55 113,-11.55 225,-11.55 225,-30.55"/>
<text text-anchor="middle" x="169" y="-18.55" font-family="Inter" font-size="10.00">_MetaFrameStyleSet</text>
</a>
</g>
</g>
<!-- Node1&#45;&gt;Node1 -->
<g id="edge1_Node000001_Node000001" class="edge">
<title>Node1&#45;&gt;Node1</title>
<g id="a_edge1_Node000001_Node000001"><a xlink:title=" ">
<path fill="none" stroke="#9a32cd" stroke-dasharray="5,2" d="M188.81,-35.56C213.57,-47.13 243,-42.29 243,-21.05 243,2.79 205.9,5.96 179.96,-11.55"/>
<polygon fill="#9a32cd" stroke="#9a32cd" points="190.39,-32.43 179.96,-30.55 186.94,-38.52 190.39,-32.43"/>
</a>
</g>
<text text-anchor="start" x="246.5" y="-18.05" font-family="Inter" font-size="10.00" fill="grey">parent</text>
</g>
<!-- Node2 -->
<g id="Node000002" class="node">
<title>Node2</title>
<g id="a_Node000002"><a xlink:href="struct__MetaFrameStyle.html" target="_top" xlink:title=" ">
<polygon fill="white" stroke="#666666" points="217.5,-252.55 120.5,-252.55 120.5,-233.55 217.5,-233.55 217.5,-252.55"/>
<text text-anchor="middle" x="169" y="-240.55" font-family="Inter" font-size="10.00">_MetaFrameStyle</text>
</a>
</g>
</g>
<!-- Node2&#45;&gt;Node1 -->
<g id="edge2_Node000001_Node000002" class="edge">
<title>Node2&#45;&gt;Node1</title>
<g id="a_edge2_Node000001_Node000002"><a xlink:title=" ">
<path fill="none" stroke="#9a32cd" stroke-dasharray="5,2" d="M169,-223.23C169,-177.79 169,-63.46 169,-30.86"/>
<polygon fill="#9a32cd" stroke="#9a32cd" points="165.5,-223.43 169,-233.43 172.5,-223.43 165.5,-223.43"/>
</a>
</g>
<text text-anchor="start" x="172" y="-204.05" font-family="Inter" font-size="10.00" fill="grey">maximized_and_shaded</text>
<text text-anchor="start" x="172" y="-189.05" font-family="Inter" font-size="10.00" fill="grey">  _styles</text>
<text text-anchor="start" x="172" y="-174.05" font-family="Inter" font-size="10.00" fill="grey">maximized_styles</text>
<text text-anchor="start" x="172" y="-159.05" font-family="Inter" font-size="10.00" fill="grey">normal_styles</text>
<text text-anchor="start" x="172" y="-144.05" font-family="Inter" font-size="10.00" fill="grey">shaded_styles</text>
<text text-anchor="start" x="172" y="-129.05" font-family="Inter" font-size="10.00" fill="grey">tiled_left_and_shaded</text>
<text text-anchor="start" x="172" y="-114.05" font-family="Inter" font-size="10.00" fill="grey">  _styles</text>
<text text-anchor="start" x="172" y="-99.05" font-family="Inter" font-size="10.00" fill="grey">tiled_left_styles</text>
<text text-anchor="start" x="172" y="-84.05" font-family="Inter" font-size="10.00" fill="grey">tiled_right_and_shaded</text>
<text text-anchor="start" x="172" y="-69.05" font-family="Inter" font-size="10.00" fill="grey">  _styles</text>
<text text-anchor="start" x="172" y="-54.05" font-family="Inter" font-size="10.00" fill="grey">tiled_right_styles</text>
</g>
<!-- Node2&#45;&gt;Node2 -->
<g id="edge3_Node000002_Node000002" class="edge">
<title>Node2&#45;&gt;Node2</title>
<g id="a_edge3_Node000002_Node000002"><a xlink:title=" ">
<path fill="none" stroke="#9a32cd" stroke-dasharray="5,2" d="M227.88,-249.06C232.59,-247.75 235.5,-245.74 235.5,-243.05 235.5,-238.75 228.04,-236.21 217.71,-235.43"/>
<polygon fill="#9a32cd" stroke="#9a32cd" points="227.04,-245.65 217.71,-250.67 228.14,-252.56 227.04,-245.65"/>
</a>
</g>
<text text-anchor="start" x="239" y="-240.05" font-family="Inter" font-size="10.00" fill="grey">parent</text>
</g>
<!-- Node3 -->
<g id="Node000003" class="node">
<title>Node3</title>
<g id="a_Node000003"><a xlink:href="struct__MetaDrawOpList.html" target="_top" xlink:title=" ">
<polygon fill="#fff0f0" stroke="red" points="98,-361.05 0,-361.05 0,-342.05 98,-342.05 98,-361.05"/>
<text text-anchor="middle" x="49" y="-349.05" font-family="Inter" font-size="10.00">_MetaDrawOpList</text>
</a>
</g>
</g>
<!-- Node3&#45;&gt;Node2 -->
<g id="edge4_Node000002_Node000003" class="edge">
<title>Node3&#45;&gt;Node2</title>
<g id="a_edge4_Node000002_Node000003"><a xlink:title=" ">
<path fill="none" stroke="#9a32cd" stroke-dasharray="5,2" d="M61.5,-334C75.08,-316.74 98.07,-289.6 122,-270.55 130.8,-263.55 141.67,-257.29 150.75,-252.62"/>
<polygon fill="#9a32cd" stroke="#9a32cd" points="58.64,-331.97 55.29,-342.03 64.18,-336.25 58.64,-331.97"/>
</a>
</g>
<text text-anchor="start" x="125.5" y="-291.55" font-family="Inter" font-size="10.00" fill="grey">buttons</text>
<text text-anchor="start" x="125.5" y="-276.55" font-family="Inter" font-size="10.00" fill="grey">pieces</text>
</g>
<!-- Node10 -->
<g id="Node000010" class="node">
<title>Node10</title>
<g id="a_Node000010"><a xlink:href="struct__MetaFrameLayout.html" target="_top" xlink:title=" ">
<polygon fill="white" stroke="#666666" points="222,-361.05 116,-361.05 116,-342.05 222,-342.05 222,-361.05"/>
<text text-anchor="middle" x="169" y="-349.05" font-family="Inter" font-size="10.00">_MetaFrameLayout</text>
</a>
</g>
</g>
<!-- Node10&#45;&gt;Node2 -->
<g id="edge5_Node000002_Node000010" class="edge">
<title>Node10&#45;&gt;Node2</title>
<g id="a_edge5_Node000002_Node000010"><a xlink:title=" ">
<path fill="none" stroke="#9a32cd" stroke-dasharray="5,2" d="M169,-331.8C169,-308.49 169,-269.69 169,-252.59"/>
<polygon fill="#9a32cd" stroke="#9a32cd" points="165.5,-331.84 169,-341.84 172.5,-331.84 165.5,-331.84"/>
</a>
</g>
<text text-anchor="start" x="172.5" y="-283.55" font-family="Inter" font-size="10.00" fill="grey">layout</text>
</g>
<!-- Node5 -->
<g id="Node000005" class="node">
<title>Node5</title>
<g id="a_Node000005"><a xlink:href="struct__MetaColorSpec.html" target="_top" xlink:title=" ">
<polygon fill="white" stroke="#666666" points="332,-361.05 240,-361.05 240,-342.05 332,-342.05 332,-361.05"/>
<text text-anchor="middle" x="286" y="-349.05" font-family="Inter" font-size="10.00">_MetaColorSpec</text>
</a>
</g>
</g>
<!-- Node5&#45;&gt;Node2 -->
<g id="edge6_Node000002_Node000005" class="edge">
<title>Node5&#45;&gt;Node2</title>
<g id="a_edge6_Node000002_Node000005"><a xlink:title=" ">
<path fill="none" stroke="#9a32cd" stroke-dasharray="5,2" d="M271.38,-333.68C256.34,-316.78 231.8,-290.5 208,-270.55 200.22,-264.03 190.83,-257.61 183.21,-252.72"/>
<polygon fill="#9a32cd" stroke="#9a32cd" points="269.1,-336.38 278.33,-341.58 274.35,-331.76 269.1,-336.38"/>
</a>
</g>
<text text-anchor="start" x="244.5" y="-283.55" font-family="Inter" font-size="10.00" fill="grey">window_background_color</text>
</g>
<!-- Node5&#45;&gt;Node5 -->
<g id="edge7_Node000005_Node000005" class="edge">
<title>Node5&#45;&gt;Node5</title>
<g id="a_edge7_Node000005_Node000005"><a xlink:title=" ">
<path fill="none" stroke="#9a32cd" stroke-dasharray="5,2" d="M317.12,-363C334.26,-365.09 350,-361.27 350,-351.55 350,-339.93 327.48,-336.75 306.98,-342.02"/>
<polygon fill="#9a32cd" stroke="#9a32cd" points="317.45,-359.5 306.98,-361.09 316.16,-366.38 317.45,-359.5"/>
</a>
</g>
<text text-anchor="start" x="353.5" y="-371.55" font-family="Inter" font-size="10.00" fill="grey">background</text>
<text text-anchor="start" x="353.5" y="-356.55" font-family="Inter" font-size="10.00" fill="grey">base</text>
<text text-anchor="start" x="353.5" y="-341.55" font-family="Inter" font-size="10.00" fill="grey">fallback</text>
<text text-anchor="start" x="353.5" y="-326.55" font-family="Inter" font-size="10.00" fill="grey">foreground</text>
</g>
</g>
</svg>
