<?xml version="1.0" encoding="UTF-8" standalone="no"?>
<!DOCTYPE svg PUBLIC "-//W3C//DTD SVG 1.1//EN"
 "http://www.w3.org/Graphics/SVG/1.1/DTD/svg11.dtd">
<!-- Generated by graphviz version 2.43.0 (0)
 -->
<!-- Title: NAObjectProfile Pages: 1 -->
<svg width="270pt" height="171pt"
 viewBox="0.00 0.00 270.00 171.00" xmlns="http://www.w3.org/2000/svg" xmlns:xlink="http://www.w3.org/1999/xlink">
<g id="graph0" class="graph" transform="scale(1 1) rotate(0) translate(4 167)">
<title>NAObjectProfile</title>
<!-- Node1 -->
<g id="Node000001" class="node">
<title>Node1</title>
<g id="a_Node000001"><a xlink:title=" ">
<polygon fill="#999999" stroke="#666666" points="185,-19 95,-19 95,0 185,0 185,-19"/>
<text text-anchor="middle" x="140" y="-7" font-family="Inter" font-size="10.00">NAObjectProfile</text>
</a>
</g>
</g>
<!-- Node2 -->
<g id="Node000002" class="node">
<title>Node2</title>
<g id="a_Node000002"><a xlink:href="structNAObjectId.html" target="_top" xlink:title=" ">
<polygon fill="white" stroke="#666666" points="116,-91 46,-91 46,-72 116,-72 116,-91"/>
<text text-anchor="middle" x="81" y="-79" font-family="Inter" font-size="10.00">NAObjectId</text>
</a>
</g>
</g>
<!-- Node2&#45;&gt;Node1 -->
<g id="edge1_Node000001_Node000002" class="edge">
<title>Node2&#45;&gt;Node1</title>
<g id="a_edge1_Node000001_Node000002"><a xlink:title=" ">
<path fill="none" stroke="#9a32cd" stroke-dasharray="5,2" d="M94.89,-64.01C106.74,-49.96 123.3,-30.32 132.71,-19.15"/>
<polygon fill="#9a32cd" stroke="#9a32cd" points="92,-62.01 88.23,-71.92 97.36,-66.53 92,-62.01"/>
</a>
</g>
<text text-anchor="start" x="121.5" y="-42.5" font-family="Inter" font-size="10.00" fill="grey">parent</text>
</g>
<!-- Node3 -->
<g id="Node000003" class="node">
<title>Node3</title>
<g id="a_Node000003"><a xlink:href="structNAObject.html" target="_top" xlink:title=" ">
<polygon fill="#fff0f0" stroke="red" points="60,-163 0,-163 0,-144 60,-144 60,-163"/>
<text text-anchor="middle" x="30" y="-151" font-family="Inter" font-size="10.00">NAObject</text>
</a>
</g>
</g>
<!-- Node3&#45;&gt;Node2 -->
<g id="edge2_Node000002_Node000003" class="edge">
<title>Node3&#45;&gt;Node2</title>
<g id="a_edge2_Node000002_Node000003"><a xlink:title=" ">
<path fill="none" stroke="#9a32cd" stroke-dasharray="5,2" d="M42.3,-135.62C52.52,-121.59 66.64,-102.21 74.7,-91.15"/>
<polygon fill="#9a32cd" stroke="#9a32cd" points="39.31,-133.77 36.25,-143.92 44.97,-137.9 39.31,-133.77"/>
</a>
</g>
<text text-anchor="start" x="65.5" y="-114.5" font-family="Inter" font-size="10.00" fill="grey">parent</text>
</g>
<!-- Node5 -->
<g id="Node000005" class="node">
<title>Node5</title>
<g id="a_Node000005"><a xlink:title=" ">
<polygon fill="white" stroke="#666666" points="185.5,-163 78.5,-163 78.5,-144 185.5,-144 185.5,-163"/>
<text text-anchor="middle" x="132" y="-151" font-family="Inter" font-size="10.00">_NAObjectIdPrivate</text>
</a>
</g>
</g>
<!-- Node5&#45;&gt;Node2 -->
<g id="edge3_Node000002_Node000005" class="edge">
<title>Node5&#45;&gt;Node2</title>
<g id="a_edge3_Node000002_Node000005"><a xlink:title=" ">
<path fill="none" stroke="#9a32cd" stroke-dasharray="5,2" d="M121.17,-135.37C115.88,-127.24 109.32,-117.47 103,-109 98.43,-102.86 92.93,-96.24 88.57,-91.15"/>
<polygon fill="#9a32cd" stroke="#9a32cd" points="118.35,-137.45 126.7,-143.98 124.24,-133.67 118.35,-137.45"/>
</a>
</g>
<text text-anchor="start" x="118" y="-114.5" font-family="Inter" font-size="10.00" fill="grey">private</text>
</g>
<!-- Node6 -->
<g id="Node000006" class="node">
<title>Node6</title>
<g id="a_Node000006"><a xlink:title=" ">
<polygon fill="white" stroke="#666666" points="262,-91 134,-91 134,-72 262,-72 262,-91"/>
<text text-anchor="middle" x="198" y="-79" font-family="Inter" font-size="10.00">_NAObjectProfilePrivate</text>
</a>
</g>
</g>
<!-- Node6&#45;&gt;Node1 -->
<g id="edge4_Node000001_Node000006" class="edge">
<title>Node6&#45;&gt;Node1</title>
<g id="a_edge4_Node000001_Node000006"><a xlink:title=" ">
<path fill="none" stroke="#9a32cd" stroke-dasharray="5,2" d="M184.34,-64.01C172.7,-49.96 156.42,-30.32 147.17,-19.15"/>
<polygon fill="#9a32cd" stroke="#9a32cd" points="181.81,-66.45 190.89,-71.92 187.2,-61.98 181.81,-66.45"/>
</a>
</g>
<text text-anchor="start" x="178" y="-42.5" font-family="Inter" font-size="10.00" fill="grey">private</text>
</g>
</g>
</svg>
