<?xml version="1.0" encoding="UTF-8" standalone="no"?>
<!DOCTYPE svg PUBLIC "-//W3C//DTD SVG 1.1//EN"
 "http://www.w3.org/Graphics/SVG/1.1/DTD/svg11.dtd">
<!-- Generated by graphviz version 2.43.0 (0)
 -->
<!-- Title: _PulseStreamControlClass Pages: 1 -->
<svg width="287pt" height="171pt"
 viewBox="0.00 0.00 286.50 171.00" xmlns="http://www.w3.org/2000/svg" xmlns:xlink="http://www.w3.org/1999/xlink">

<svg id="main" version="1.1" xmlns="http://www.w3.org/2000/svg" xmlns:xlink="http://www.w3.org/1999/xlink" xml:space="preserve">

<style type="text/css"><![CDATA[
.node, .edge {opacity: 0.7;}
.node.selected, .edge.selected {opacity: 1;}
.edge:hover path { stroke: red; }
.edge:hover polygon { stroke: red; fill: red; }
]]></style>
<script type="application/ecmascript" xlink:href="svg.min.js"/>
<svg id="graph" class="graph">
<g id="graph0" class="graph" transform="scale(1 1) rotate(0) translate(4 167)">
<title>_PulseStreamControlClass</title>
<!-- Node1 -->
<g id="Node000001" class="node">
<title>Node1</title>
<g id="a_Node000001"><a xlink:title=" ">
<polygon fill="#999999" stroke="#666666" points="218,-19 83,-19 83,0 218,0 218,-19"/>
<text text-anchor="middle" x="150.5" y="-7" font-family="Inter" font-size="10.00">_PulseStreamControlClass</text>
</a>
</g>
</g>
<!-- Node2 -->
<g id="Node000002" class="node">
<title>Node2</title>
<g id="a_Node000002"><a xlink:href="struct__MateMixerStreamControlClass.html" target="_top" xlink:title=" ">
<polygon fill="white" stroke="#666666" points="161,-91 0,-91 0,-72 161,-72 161,-91"/>
<text text-anchor="middle" x="80.5" y="-79" font-family="Inter" font-size="10.00">_MateMixerStreamControlClass</text>
</a>
</g>
</g>
<!-- Node2&#45;&gt;Node1 -->
<g id="edge1_Node000001_Node000002" class="edge">
<title>Node2&#45;&gt;Node1</title>
<g id="a_edge1_Node000001_Node000002"><a xlink:title=" ">
<path fill="none" stroke="#9a32cd" stroke-dasharray="5,2" d="M95.12,-64.42C102.82,-56.09 112.52,-45.85 121.5,-37 127.72,-30.87 134.97,-24.25 140.67,-19.16"/>
<polygon fill="#9a32cd" stroke="#9a32cd" points="92.36,-62.25 88.18,-71.98 97.52,-66.98 92.36,-62.25"/>
</a>
</g>
<text text-anchor="start" x="125" y="-42.5" font-family="Inter" font-size="10.00" fill="grey">parent_class</text>
</g>
<!-- Node3 -->
<g id="Node000003" class="node">
<title>Node3</title>
<g id="a_Node000003"><a xlink:href="struct__MateMixerAppInfo.html" target="_top" xlink:title=" ">
<polygon fill="white" stroke="#666666" points="135.5,-163 25.5,-163 25.5,-144 135.5,-144 135.5,-163"/>
<text text-anchor="middle" x="80.5" y="-151" font-family="Inter" font-size="10.00">_MateMixerAppInfo</text>
</a>
</g>
</g>
<!-- Node3&#45;&gt;Node2 -->
<g id="edge2_Node000002_Node000003" class="edge">
<title>Node3&#45;&gt;Node2</title>
<g id="a_edge2_Node000002_Node000003"><a xlink:title=" ">
<path fill="none" stroke="#9a32cd" stroke-dasharray="5,2" d="M80.5,-133.58C80.5,-119.76 80.5,-101.68 80.5,-91.15"/>
<polygon fill="#9a32cd" stroke="#9a32cd" points="77,-133.92 80.5,-143.92 84,-133.92 77,-133.92"/>
</a>
</g>
<text text-anchor="start" x="84" y="-114.5" font-family="Inter" font-size="10.00" fill="grey">get_app_info</text>
</g>
<!-- Node4 -->
<g id="Node000004" class="node">
<title>Node4</title>
<g id="a_Node000004"><a xlink:href="struct__PulseMonitor.html" target="_top" xlink:title=" ">
<polygon fill="white" stroke="#666666" points="262,-91 179,-91 179,-72 262,-72 262,-91"/>
<text text-anchor="middle" x="220.5" y="-79" font-family="Inter" font-size="10.00">_PulseMonitor</text>
</a>
</g>
</g>
<!-- Node4&#45;&gt;Node1 -->
<g id="edge3_Node000001_Node000004" class="edge">
<title>Node4&#45;&gt;Node1</title>
<g id="a_edge3_Node000001_Node000004"><a xlink:title=" ">
<path fill="none" stroke="#9a32cd" stroke-dasharray="5,2" d="M208,-63.7C201.41,-55.31 192.96,-45.21 184.5,-37 177.84,-30.53 169.66,-24.12 162.99,-19.21"/>
<polygon fill="#9a32cd" stroke="#9a32cd" points="205.25,-65.87 214.11,-71.69 210.81,-61.62 205.25,-65.87"/>
</a>
</g>
<text text-anchor="start" x="201.5" y="-42.5" font-family="Inter" font-size="10.00" fill="grey">create_monitor</text>
</g>
<!-- Node5 -->
<g id="Node000005" class="node">
<title>Node5</title>
<g id="a_Node000005"><a xlink:title=" ">
<polygon fill="white" stroke="#666666" points="278.5,-163 162.5,-163 162.5,-144 278.5,-144 278.5,-163"/>
<text text-anchor="middle" x="220.5" y="-151" font-family="Inter" font-size="10.00">_PulseMonitorPrivate</text>
</a>
</g>
</g>
<!-- Node5&#45;&gt;Node4 -->
<g id="edge4_Node000004_Node000005" class="edge">
<title>Node5&#45;&gt;Node4</title>
<g id="a_edge4_Node000004_Node000005"><a xlink:title=" ">
<path fill="none" stroke="#9a32cd" stroke-dasharray="5,2" d="M220.5,-133.58C220.5,-119.76 220.5,-101.68 220.5,-91.15"/>
<polygon fill="#9a32cd" stroke="#9a32cd" points="217,-133.92 220.5,-143.92 224,-133.92 217,-133.92"/>
</a>
</g>
<text text-anchor="start" x="224" y="-114.5" font-family="Inter" font-size="10.00" fill="grey">priv</text>
</g>
</g>
</svg>
</svg>

<style type='text/css'>
<![CDATA[
[data-mouse-over-selected='false'] { opacity: 0.7; }
[data-mouse-over-selected='true']  { opacity: 1.0; }
]]>
</style>
<script type="application/ecmascript"><![CDATA[
document.addEventListener('DOMContentLoaded', (event) => {
  highlightEdges();
  highlightAdjacentNodes();
});
]]></script>
</svg>
