<?xml version="1.0" encoding="UTF-8" standalone="no"?>
<!DOCTYPE svg PUBLIC "-//W3C//DTD SVG 1.1//EN"
 "http://www.w3.org/Graphics/SVG/1.1/DTD/svg11.dtd">
<!-- Generated by graphviz version 2.43.0 (0)
 -->
<!-- Title: BaseDialogClass Pages: 1 -->
<svg width="271pt" height="171pt"
 viewBox="0.00 0.00 271.00 171.00" xmlns="http://www.w3.org/2000/svg" xmlns:xlink="http://www.w3.org/1999/xlink">

<svg id="main" version="1.1" xmlns="http://www.w3.org/2000/svg" xmlns:xlink="http://www.w3.org/1999/xlink" xml:space="preserve">

<style type="text/css"><![CDATA[
.node, .edge {opacity: 0.7;}
.node.selected, .edge.selected {opacity: 1;}
.edge:hover path { stroke: red; }
.edge:hover polygon { stroke: red; fill: red; }
]]></style>
<script type="application/ecmascript" xlink:href="svg.min.js"/>
<svg id="graph" class="graph">
<g id="graph0" class="graph" transform="scale(1 1) rotate(0) translate(4 167)">
<title>BaseDialogClass</title>
<!-- Node1 -->
<g id="Node000001" class="node">
<title>Node1</title>
<g id="a_Node000001"><a xlink:title=" ">
<polygon fill="#999999" stroke="#666666" points="211.5,-19 120.5,-19 120.5,0 211.5,0 211.5,-19"/>
<text text-anchor="middle" x="166" y="-7" font-family="Inter" font-size="10.00">BaseDialogClass</text>
</a>
</g>
</g>
<!-- Node2 -->
<g id="Node000002" class="node">
<title>Node2</title>
<g id="a_Node000002"><a xlink:href="structBaseWindowClass.html" target="_top" xlink:title=" ">
<polygon fill="white" stroke="#666666" points="117,-91 19,-91 19,-72 117,-72 117,-91"/>
<text text-anchor="middle" x="68" y="-79" font-family="Inter" font-size="10.00">BaseWindowClass</text>
</a>
</g>
</g>
<!-- Node2&#45;&gt;Node1 -->
<g id="edge1_Node000001_Node000002" class="edge">
<title>Node2&#45;&gt;Node1</title>
<g id="a_edge1_Node000001_Node000002"><a xlink:title=" ">
<path fill="none" stroke="#9a32cd" stroke-dasharray="5,2" d="M88.35,-65.96C108.13,-51.83 137.52,-30.84 153.88,-19.15"/>
<polygon fill="#9a32cd" stroke="#9a32cd" points="86.12,-63.26 80.02,-71.92 90.19,-68.95 86.12,-63.26"/>
</a>
</g>
<text text-anchor="start" x="132.5" y="-42.5" font-family="Inter" font-size="10.00" fill="grey">parent</text>
</g>
<!-- Node3 -->
<g id="Node000003" class="node">
<title>Node3</title>
<g id="a_Node000003"><a xlink:title=" ">
<polygon fill="#fff0f0" stroke="red" points="136,-163 0,-163 0,-144 136,-144 136,-163"/>
<text text-anchor="middle" x="68" y="-151" font-family="Inter" font-size="10.00">_BaseWindowClassPrivate</text>
</a>
</g>
</g>
<!-- Node3&#45;&gt;Node2 -->
<g id="edge2_Node000002_Node000003" class="edge">
<title>Node3&#45;&gt;Node2</title>
<g id="a_edge2_Node000002_Node000003"><a xlink:title=" ">
<path fill="none" stroke="#9a32cd" stroke-dasharray="5,2" d="M68,-133.58C68,-119.76 68,-101.68 68,-91.15"/>
<polygon fill="#9a32cd" stroke="#9a32cd" points="64.5,-133.92 68,-143.92 71.5,-133.92 64.5,-133.92"/>
</a>
</g>
<text text-anchor="start" x="71" y="-114.5" font-family="Inter" font-size="10.00" fill="grey">private</text>
</g>
<!-- Node6 -->
<g id="Node000006" class="node">
<title>Node6</title>
<g id="a_Node000006"><a xlink:title=" ">
<polygon fill="white" stroke="#666666" points="263,-91 135,-91 135,-72 263,-72 263,-91"/>
<text text-anchor="middle" x="199" y="-79" font-family="Inter" font-size="10.00">_BaseDialogClassPrivate</text>
</a>
</g>
</g>
<!-- Node6&#45;&gt;Node1 -->
<g id="edge3_Node000001_Node000006" class="edge">
<title>Node6&#45;&gt;Node1</title>
<g id="a_edge3_Node000001_Node000006"><a xlink:title=" ">
<path fill="none" stroke="#9a32cd" stroke-dasharray="5,2" d="M190.66,-62.81C184.08,-48.86 175.19,-30 170.08,-19.15"/>
<polygon fill="#9a32cd" stroke="#9a32cd" points="187.52,-64.36 194.95,-71.92 193.86,-61.38 187.52,-64.36"/>
</a>
</g>
<text text-anchor="start" x="189" y="-42.5" font-family="Inter" font-size="10.00" fill="grey">private</text>
</g>
</g>
</svg>
</svg>

<style type='text/css'>
<![CDATA[
[data-mouse-over-selected='false'] { opacity: 0.7; }
[data-mouse-over-selected='true']  { opacity: 1.0; }
]]>
</style>
<script type="application/ecmascript"><![CDATA[
document.addEventListener('DOMContentLoaded', (event) => {
  highlightEdges();
  highlightAdjacentNodes();
});
]]></script>
</svg>
