<?xml version="1.0" encoding="UTF-8" standalone="no"?>
<!DOCTYPE svg PUBLIC "-//W3C//DTD SVG 1.1//EN"
 "http://www.w3.org/Graphics/SVG/1.1/DTD/svg11.dtd">
<!-- Generated by graphviz version 2.43.0 (0)
 -->
<!-- Title: _SnItem Pages: 1 -->
<svg width="218pt" height="99pt"
 viewBox="0.00 0.00 218.00 99.00" xmlns="http://www.w3.org/2000/svg" xmlns:xlink="http://www.w3.org/1999/xlink">

<svg id="main" version="1.1" xmlns="http://www.w3.org/2000/svg" xmlns:xlink="http://www.w3.org/1999/xlink" xml:space="preserve">

<style type="text/css"><![CDATA[
.node, .edge {opacity: 0.7;}
.node.selected, .edge.selected {opacity: 1;}
.edge:hover path { stroke: red; }
.edge:hover polygon { stroke: red; fill: red; }
]]></style>
<script type="application/ecmascript" xlink:href="svg.min.js"/>
<svg id="graph" class="graph">
<g id="graph0" class="graph" transform="scale(1 1) rotate(0) translate(4 95)">
<title>_SnItem</title>
<!-- Node1 -->
<g id="Node000001" class="node">
<title>Node1</title>
<g id="a_Node000001"><a xlink:title=" ">
<polygon fill="#999999" stroke="#666666" points="136.5,-19 81.5,-19 81.5,0 136.5,0 136.5,-19"/>
<text text-anchor="middle" x="109" y="-7" font-family="Inter" font-size="10.00">_SnItem</text>
</a>
</g>
</g>
<!-- Node2 -->
<g id="Node000002" class="node">
<title>Node2</title>
<g id="a_Node000002"><a xlink:href="struct__SnFlatButtonClass.html" target="_top" xlink:title=" ">
<polygon fill="white" stroke="#666666" points="104,-91 0,-91 0,-72 104,-72 104,-91"/>
<text text-anchor="middle" x="52" y="-79" font-family="Inter" font-size="10.00">_SnFlatButtonClass</text>
</a>
</g>
</g>
<!-- Node2&#45;&gt;Node1 -->
<g id="edge1_Node000001_Node000002" class="edge">
<title>Node2&#45;&gt;Node1</title>
<g id="a_edge1_Node000001_Node000002"><a xlink:title=" ">
<path fill="none" stroke="#9a32cd" stroke-dasharray="5,2" d="M53.91,-62.05C55.52,-53.73 58.5,-44.18 64,-37 69.96,-29.23 78.9,-23.3 87.24,-19.04"/>
<polygon fill="#9a32cd" stroke="#9a32cd" points="50.44,-61.58 52.47,-71.98 57.37,-62.58 50.44,-61.58"/>
</a>
</g>
<text text-anchor="start" x="67" y="-42.5" font-family="Inter" font-size="10.00" fill="grey">parent_instance</text>
</g>
<!-- Node3 -->
<g id="Node000003" class="node">
<title>Node3</title>
<g id="a_Node000003"><a xlink:title=" ">
<polygon fill="white" stroke="#666666" points="210,-91 122,-91 122,-72 210,-72 210,-91"/>
<text text-anchor="middle" x="166" y="-79" font-family="Inter" font-size="10.00">_SnItemPrivate</text>
</a>
</g>
</g>
<!-- Node3&#45;&gt;Node1 -->
<g id="edge2_Node000001_Node000003" class="edge">
<title>Node3&#45;&gt;Node1</title>
<g id="a_edge2_Node000001_Node000003"><a xlink:title=" ">
<path fill="none" stroke="#9a32cd" stroke-dasharray="5,2" d="M159.04,-62.32C155.34,-54.06 150.25,-44.49 144,-37 138.14,-29.98 130.08,-23.72 123.18,-19.05"/>
<polygon fill="#9a32cd" stroke="#9a32cd" points="155.91,-63.91 162.96,-71.81 162.38,-61.23 155.91,-63.91"/>
</a>
</g>
<text text-anchor="start" x="157.5" y="-42.5" font-family="Inter" font-size="10.00" fill="grey">priv</text>
</g>
</g>
</svg>
</svg>

<style type='text/css'>
<![CDATA[
[data-mouse-over-selected='false'] { opacity: 0.7; }
[data-mouse-over-selected='true']  { opacity: 1.0; }
]]>
</style>
<script type="application/ecmascript"><![CDATA[
document.addEventListener('DOMContentLoaded', (event) => {
  highlightEdges();
  highlightAdjacentNodes();
});
]]></script>
</svg>
