<?xml version="1.0" encoding="UTF-8" standalone="no"?>
<!DOCTYPE svg PUBLIC "-//W3C//DTD SVG 1.1//EN"
 "http://www.w3.org/Graphics/SVG/1.1/DTD/svg11.dtd">
<!-- Generated by graphviz version 2.43.0 (0)
 -->
<!-- Title: CajaDesktopWindow Pages: 1 -->
<svg width="327pt" height="171pt"
 viewBox="0.00 0.00 326.50 171.00" xmlns="http://www.w3.org/2000/svg" xmlns:xlink="http://www.w3.org/1999/xlink">
<g id="graph0" class="graph" transform="scale(1 1) rotate(0) translate(4 167)">
<title>CajaDesktopWindow</title>
<!-- Node1 -->
<g id="Node000001" class="node">
<title>Node1</title>
<g id="a_Node000001"><a xlink:title=" ">
<polygon fill="#999999" stroke="#666666" points="256.5,-19 145.5,-19 145.5,0 256.5,0 256.5,-19"/>
<text text-anchor="middle" x="201" y="-7" font-family="Inter" font-size="10.00">CajaDesktopWindow</text>
</a>
</g>
</g>
<!-- Node2 -->
<g id="Node000002" class="node">
<title>Node2</title>
<g id="a_Node000002"><a xlink:href="struct__CajaSpatialWindow.html" target="_top" xlink:title=" ">
<polygon fill="white" stroke="#666666" points="151.5,-91 44.5,-91 44.5,-72 151.5,-72 151.5,-91"/>
<text text-anchor="middle" x="98" y="-79" font-family="Inter" font-size="10.00">_CajaSpatialWindow</text>
</a>
</g>
</g>
<!-- Node2&#45;&gt;Node1 -->
<g id="edge1_Node000001_Node000002" class="edge">
<title>Node2&#45;&gt;Node1</title>
<g id="a_edge1_Node000001_Node000002"><a xlink:title=" ">
<path fill="none" stroke="#9a32cd" stroke-dasharray="5,2" d="M114.96,-65.11C125.04,-56.34 138.3,-45.45 151,-37 160.98,-30.36 172.8,-24.03 182.44,-19.22"/>
<polygon fill="#9a32cd" stroke="#9a32cd" points="112.48,-62.62 107.32,-71.88 117.12,-67.86 112.48,-62.62"/>
</a>
</g>
<text text-anchor="start" x="154" y="-42.5" font-family="Inter" font-size="10.00" fill="grey">parent_spot</text>
</g>
<!-- Node3 -->
<g id="Node000003" class="node">
<title>Node3</title>
<g id="a_Node000003"><a xlink:href="structCajaWindow.html" target="_top" xlink:title=" ">
<polygon fill="#fff0f0" stroke="red" points="72,-163 0,-163 0,-144 72,-144 72,-163"/>
<text text-anchor="middle" x="36" y="-151" font-family="Inter" font-size="10.00">CajaWindow</text>
</a>
</g>
</g>
<!-- Node3&#45;&gt;Node2 -->
<g id="edge2_Node000002_Node000003" class="edge">
<title>Node3&#45;&gt;Node2</title>
<g id="a_edge2_Node000002_Node000003"><a xlink:title=" ">
<path fill="none" stroke="#9a32cd" stroke-dasharray="5,2" d="M47.41,-135.26C53.19,-126.99 60.55,-117.14 68,-109 73.91,-102.54 81.27,-96.02 87.22,-91.06"/>
<polygon fill="#9a32cd" stroke="#9a32cd" points="44.36,-133.51 41.63,-143.75 50.15,-137.45 44.36,-133.51"/>
</a>
</g>
<text text-anchor="start" x="71" y="-114.5" font-family="Inter" font-size="10.00" fill="grey">parent_object</text>
</g>
<!-- Node34 -->
<g id="Node000034" class="node">
<title>Node34</title>
<g id="a_Node000034"><a xlink:title=" ">
<polygon fill="white" stroke="#666666" points="230,-163 90,-163 90,-144 230,-144 230,-163"/>
<text text-anchor="middle" x="160" y="-151" font-family="Inter" font-size="10.00">_CajaSpatialWindowPrivate</text>
</a>
</g>
</g>
<!-- Node34&#45;&gt;Node2 -->
<g id="edge3_Node000002_Node000034" class="edge">
<title>Node34&#45;&gt;Node2</title>
<g id="a_edge3_Node000002_Node000034"><a xlink:title=" ">
<path fill="none" stroke="#9a32cd" stroke-dasharray="5,2" d="M153.37,-134.41C149.71,-126.05 144.56,-116.37 138,-109 131.58,-101.78 122.76,-95.66 115.04,-91.13"/>
<polygon fill="#9a32cd" stroke="#9a32cd" points="150.12,-135.72 157.09,-143.7 156.62,-133.12 150.12,-135.72"/>
</a>
</g>
<text text-anchor="start" x="153.5" y="-114.5" font-family="Inter" font-size="10.00" fill="grey">details</text>
</g>
<!-- Node35 -->
<g id="Node000035" class="node">
<title>Node35</title>
<g id="a_Node000035"><a xlink:title=" ">
<polygon fill="white" stroke="#666666" points="318.5,-91 169.5,-91 169.5,-72 318.5,-72 318.5,-91"/>
<text text-anchor="middle" x="244" y="-79" font-family="Inter" font-size="10.00">_CajaDesktopWindowPrivate</text>
</a>
</g>
</g>
<!-- Node35&#45;&gt;Node1 -->
<g id="edge4_Node000001_Node000035" class="edge">
<title>Node35&#45;&gt;Node1</title>
<g id="a_edge4_Node000001_Node000035"><a xlink:title=" ">
<path fill="none" stroke="#9a32cd" stroke-dasharray="5,2" d="M233.38,-63.21C224.79,-49.22 213.04,-30.1 206.32,-19.15"/>
<polygon fill="#9a32cd" stroke="#9a32cd" points="230.51,-65.23 238.73,-71.92 236.48,-61.56 230.51,-65.23"/>
</a>
</g>
<text text-anchor="start" x="230.5" y="-42.5" font-family="Inter" font-size="10.00" fill="grey">details</text>
</g>
</g>
</svg>
