<?xml version="1.0" encoding="UTF-8" standalone="no"?>
<!DOCTYPE svg PUBLIC "-//W3C//DTD SVG 1.1//EN"
 "http://www.w3.org/Graphics/SVG/1.1/DTD/svg11.dtd">
<!-- Generated by graphviz version 2.43.0 (0)
 -->
<!-- Title: CactIconChooserClass Pages: 1 -->
<svg width="341pt" height="171pt"
 viewBox="0.00 0.00 340.50 171.00" xmlns="http://www.w3.org/2000/svg" xmlns:xlink="http://www.w3.org/1999/xlink">
<g id="graph0" class="graph" transform="scale(1 1) rotate(0) translate(4 167)">
<title>CactIconChooserClass</title>
<!-- Node1 -->
<g id="Node000001" class="node">
<title>Node1</title>
<g id="a_Node000001"><a xlink:title=" ">
<polygon fill="#999999" stroke="#666666" points="278,-19 160,-19 160,0 278,0 278,-19"/>
<text text-anchor="middle" x="219" y="-7" font-family="Inter" font-size="10.00">CactIconChooserClass</text>
</a>
</g>
</g>
<!-- Node2 -->
<g id="Node000002" class="node">
<title>Node2</title>
<g id="a_Node000002"><a xlink:href="structBaseDialogClass.html" target="_top" xlink:title=" ">
<polygon fill="white" stroke="#666666" points="159.5,-91 68.5,-91 68.5,-72 159.5,-72 159.5,-91"/>
<text text-anchor="middle" x="114" y="-79" font-family="Inter" font-size="10.00">BaseDialogClass</text>
</a>
</g>
</g>
<!-- Node2&#45;&gt;Node1 -->
<g id="edge1_Node000001_Node000002" class="edge">
<title>Node2&#45;&gt;Node1</title>
<g id="a_edge1_Node000001_Node000002"><a xlink:title=" ">
<path fill="none" stroke="#9a32cd" stroke-dasharray="5,2" d="M135.23,-66.34C156.43,-52.21 188.33,-30.95 206.02,-19.15"/>
<polygon fill="#9a32cd" stroke="#9a32cd" points="133.25,-63.46 126.88,-71.92 137.14,-69.28 133.25,-63.46"/>
</a>
</g>
<text text-anchor="start" x="182.5" y="-42.5" font-family="Inter" font-size="10.00" fill="grey">parent</text>
</g>
<!-- Node3 -->
<g id="Node000003" class="node">
<title>Node3</title>
<g id="a_Node000003"><a xlink:href="structBaseWindowClass.html" target="_top" xlink:title=" ">
<polygon fill="#fff0f0" stroke="red" points="98,-163 0,-163 0,-144 98,-144 98,-163"/>
<text text-anchor="middle" x="49" y="-151" font-family="Inter" font-size="10.00">BaseWindowClass</text>
</a>
</g>
</g>
<!-- Node3&#45;&gt;Node2 -->
<g id="edge2_Node000002_Node000003" class="edge">
<title>Node3&#45;&gt;Node2</title>
<g id="a_edge2_Node000002_Node000003"><a xlink:title=" ">
<path fill="none" stroke="#9a32cd" stroke-dasharray="5,2" d="M63.94,-136.41C77.01,-122.33 95.5,-102.42 105.96,-91.15"/>
<polygon fill="#9a32cd" stroke="#9a32cd" points="61.21,-134.21 56.97,-143.92 66.34,-138.97 61.21,-134.21"/>
</a>
</g>
<text text-anchor="start" x="93.5" y="-114.5" font-family="Inter" font-size="10.00" fill="grey">parent</text>
</g>
<!-- Node7 -->
<g id="Node000007" class="node">
<title>Node7</title>
<g id="a_Node000007"><a xlink:title=" ">
<polygon fill="white" stroke="#666666" points="244,-163 116,-163 116,-144 244,-144 244,-163"/>
<text text-anchor="middle" x="180" y="-151" font-family="Inter" font-size="10.00">_BaseDialogClassPrivate</text>
</a>
</g>
</g>
<!-- Node7&#45;&gt;Node2 -->
<g id="edge3_Node000002_Node000007" class="edge">
<title>Node7&#45;&gt;Node2</title>
<g id="a_edge3_Node000002_Node000007"><a xlink:title=" ">
<path fill="none" stroke="#9a32cd" stroke-dasharray="5,2" d="M164.83,-136.41C151.56,-122.33 132.78,-102.42 122.16,-91.15"/>
<polygon fill="#9a32cd" stroke="#9a32cd" points="162.5,-139.04 171.91,-143.92 167.59,-134.24 162.5,-139.04"/>
</a>
</g>
<text text-anchor="start" x="158" y="-114.5" font-family="Inter" font-size="10.00" fill="grey">private</text>
</g>
<!-- Node8 -->
<g id="Node000008" class="node">
<title>Node8</title>
<g id="a_Node000008"><a xlink:title=" ">
<polygon fill="white" stroke="#666666" points="332.5,-91 177.5,-91 177.5,-72 332.5,-72 332.5,-91"/>
<text text-anchor="middle" x="255" y="-79" font-family="Inter" font-size="10.00">_CactIconChooserClassPrivate</text>
</a>
</g>
</g>
<!-- Node8&#45;&gt;Node1 -->
<g id="edge4_Node000001_Node000008" class="edge">
<title>Node8&#45;&gt;Node1</title>
<g id="a_edge4_Node000001_Node000008"><a xlink:title=" ">
<path fill="none" stroke="#9a32cd" stroke-dasharray="5,2" d="M245.9,-62.81C238.73,-48.86 229.03,-30 223.45,-19.15"/>
<polygon fill="#9a32cd" stroke="#9a32cd" points="242.9,-64.62 250.59,-71.92 249.12,-61.42 242.9,-64.62"/>
</a>
</g>
<text text-anchor="start" x="244" y="-42.5" font-family="Inter" font-size="10.00" fill="grey">private</text>
</g>
</g>
</svg>
