<?xml version="1.0" encoding="UTF-8" standalone="no"?>
<!DOCTYPE svg PUBLIC "-//W3C//DTD SVG 1.1//EN"
 "http://www.w3.org/Graphics/SVG/1.1/DTD/svg11.dtd">
<!-- Generated by graphviz version 2.43.0 (0)
 -->
<!-- Title: sushi&#45;font&#45;loader.h Pages: 1 -->
<svg width="528pt" height="82pt"
 viewBox="0.00 0.00 528.00 82.00" xmlns="http://www.w3.org/2000/svg" xmlns:xlink="http://www.w3.org/1999/xlink">
<g id="graph0" class="graph" transform="scale(1 1) rotate(0) translate(4 78)">
<title>sushi&#45;font&#45;loader.h</title>
<!-- Node1 -->
<g id="Node000001" class="node">
<title>Node1</title>
<g id="a_Node000001"><a xlink:title=" ">
<polygon fill="#999999" stroke="#666666" points="297,-74 195,-74 195,-55 297,-55 297,-74"/>
<text text-anchor="middle" x="246" y="-62" font-family="Inter" font-size="10.00">sushi&#45;font&#45;loader.h</text>
</a>
</g>
</g>
<!-- Node2 -->
<g id="Node000002" class="node">
<title>Node2</title>
<g id="a_Node000002"><a xlink:href="font-model_8c.html" target="_top" xlink:title=" ">
<polygon fill="white" stroke="#666666" points="76,-19 0,-19 0,0 76,0 76,-19"/>
<text text-anchor="middle" x="38" y="-7" font-family="Inter" font-size="10.00">font&#45;model.c</text>
</a>
</g>
</g>
<!-- Node1&#45;&gt;Node2 -->
<g id="edge1_Node000001_Node000002" class="edge">
<title>Node1&#45;&gt;Node2</title>
<g id="a_edge1_Node000001_Node000002"><a xlink:title=" ">
<path fill="none" stroke="#63b8ff" d="M202.59,-52.44C163.65,-42.52 107.31,-28.16 71.68,-19.08"/>
<polygon fill="#63b8ff" stroke="#63b8ff" points="202.03,-55.91 212.58,-54.98 203.76,-49.12 202.03,-55.91"/>
</a>
</g>
</g>
<!-- Node3 -->
<g id="Node000003" class="node">
<title>Node3</title>
<g id="a_Node000003"><a xlink:href="font-thumbnailer_8c.html" target="_top" xlink:title=" ">
<polygon fill="white" stroke="#666666" points="195.5,-19 94.5,-19 94.5,0 195.5,0 195.5,-19"/>
<text text-anchor="middle" x="145" y="-7" font-family="Inter" font-size="10.00">font&#45;thumbnailer.c</text>
</a>
</g>
</g>
<!-- Node1&#45;&gt;Node3 -->
<g id="edge2_Node000001_Node000003" class="edge">
<title>Node1&#45;&gt;Node3</title>
<g id="a_edge2_Node000001_Node000003"><a xlink:title=" ">
<path fill="none" stroke="#63b8ff" d="M220.72,-50.23C202.2,-40.51 177.58,-27.6 161.52,-19.17"/>
<polygon fill="#63b8ff" stroke="#63b8ff" points="219.29,-53.44 229.77,-54.98 222.54,-47.24 219.29,-53.44"/>
</a>
</g>
</g>
<!-- Node4 -->
<g id="Node000004" class="node">
<title>Node4</title>
<g id="a_Node000004"><a xlink:href="font-utils_8c.html" target="_top" xlink:title=" ">
<polygon fill="white" stroke="#666666" points="278.5,-19 213.5,-19 213.5,0 278.5,0 278.5,-19"/>
<text text-anchor="middle" x="246" y="-7" font-family="Inter" font-size="10.00">font&#45;utils.c</text>
</a>
</g>
</g>
<!-- Node1&#45;&gt;Node4 -->
<g id="edge3_Node000001_Node000004" class="edge">
<title>Node1&#45;&gt;Node4</title>
<g id="a_edge3_Node000001_Node000004"><a xlink:title=" ">
<path fill="none" stroke="#63b8ff" d="M246,-44.66C246,-35.93 246,-25.99 246,-19.09"/>
<polygon fill="#63b8ff" stroke="#63b8ff" points="242.5,-44.75 246,-54.75 249.5,-44.75 242.5,-44.75"/>
</a>
</g>
</g>
<!-- Node5 -->
<g id="Node000005" class="node">
<title>Node5</title>
<g id="a_Node000005"><a xlink:href="sushi-font-loader_8c.html" target="_top" xlink:title=" ">
<polygon fill="white" stroke="#666666" points="397.5,-19 296.5,-19 296.5,0 397.5,0 397.5,-19"/>
<text text-anchor="middle" x="347" y="-7" font-family="Inter" font-size="10.00">sushi&#45;font&#45;loader.c</text>
</a>
</g>
</g>
<!-- Node1&#45;&gt;Node5 -->
<g id="edge4_Node000001_Node000005" class="edge">
<title>Node1&#45;&gt;Node5</title>
<g id="a_edge4_Node000001_Node000005"><a xlink:title=" ">
<path fill="none" stroke="#63b8ff" d="M271.28,-50.23C289.8,-40.51 314.42,-27.6 330.48,-19.17"/>
<polygon fill="#63b8ff" stroke="#63b8ff" points="269.46,-47.24 262.23,-54.98 272.71,-53.44 269.46,-47.24"/>
</a>
</g>
</g>
<!-- Node6 -->
<g id="Node000006" class="node">
<title>Node6</title>
<g id="a_Node000006"><a xlink:href="sushi-font-widget_8c.html" target="_top" xlink:title=" ">
<polygon fill="white" stroke="#666666" points="520,-19 416,-19 416,0 520,0 520,-19"/>
<text text-anchor="middle" x="468" y="-7" font-family="Inter" font-size="10.00">sushi&#45;font&#45;widget.c</text>
</a>
</g>
</g>
<!-- Node1&#45;&gt;Node6 -->
<g id="edge5_Node000001_Node000006" class="edge">
<title>Node1&#45;&gt;Node6</title>
<g id="a_edge5_Node000001_Node000006"><a xlink:title=" ">
<path fill="none" stroke="#63b8ff" d="M291.54,-52.63C333.13,-42.7 393.78,-28.22 432.05,-19.08"/>
<polygon fill="#63b8ff" stroke="#63b8ff" points="290.58,-49.26 281.67,-54.98 292.21,-56.07 290.58,-49.26"/>
</a>
</g>
</g>
</g>
</svg>
