<?xml version="1.0" encoding="UTF-8" standalone="no"?>
<!DOCTYPE svg PUBLIC "-//W3C//DTD SVG 1.1//EN"
 "http://www.w3.org/Graphics/SVG/1.1/DTD/svg11.dtd">
<!-- Generated by graphviz version 2.43.0 (0)
 -->
<!-- Title: task&#45;item.h Pages: 1 -->
<svg width="243pt" height="82pt"
 viewBox="0.00 0.00 242.50 82.00" xmlns="http://www.w3.org/2000/svg" xmlns:xlink="http://www.w3.org/1999/xlink">
<g id="graph0" class="graph" transform="scale(1 1) rotate(0) translate(4 78)">
<title>task&#45;item.h</title>
<!-- Node1 -->
<g id="Node000001" class="node">
<title>Node1</title>
<g id="a_Node000001"><a xlink:title=" ">
<polygon fill="#999999" stroke="#666666" points="124,-74 56,-74 56,-55 124,-55 124,-74"/>
<text text-anchor="middle" x="90" y="-62" font-family="Inter" font-size="10.00">task&#45;item.h</text>
</a>
</g>
</g>
<!-- Node2 -->
<g id="Node000002" class="node">
<title>Node2</title>
<g id="a_Node000002"><a xlink:title=" ">
<polygon fill="#e0e0e0" stroke="#999999" points="42,-19 0,-19 0,0 42,0 42,-19"/>
<text text-anchor="middle" x="21" y="-7" font-family="Inter" font-size="10.00">glib.h</text>
</a>
</g>
</g>
<!-- Node1&#45;&gt;Node2 -->
<g id="edge1_Node000001_Node000002" class="edge">
<title>Node1&#45;&gt;Node2</title>
<g id="a_edge1_Node000001_Node000002"><a xlink:title=" ">
<path fill="none" stroke="#63b8ff" d="M78.91,-54.98C68.51,-47 52.74,-34.88 40.28,-25.31"/>
<polygon fill="#63b8ff" stroke="#63b8ff" points="42.35,-22.49 32.29,-19.17 38.09,-28.04 42.35,-22.49"/>
</a>
</g>
</g>
<!-- Node3 -->
<g id="Node000003" class="node">
<title>Node3</title>
<g id="a_Node000003"><a xlink:title=" ">
<polygon fill="#e0e0e0" stroke="#999999" points="119.5,-19 60.5,-19 60.5,0 119.5,0 119.5,-19"/>
<text text-anchor="middle" x="90" y="-7" font-family="Inter" font-size="10.00">gtk/gtk.h</text>
</a>
</g>
</g>
<!-- Node1&#45;&gt;Node3 -->
<g id="edge2_Node000001_Node000003" class="edge">
<title>Node1&#45;&gt;Node3</title>
<g id="a_edge2_Node000001_Node000003"><a xlink:title=" ">
<path fill="none" stroke="#63b8ff" d="M90,-54.75C90,-47.8 90,-37.85 90,-29.13"/>
<polygon fill="#63b8ff" stroke="#63b8ff" points="93.5,-29.09 90,-19.09 86.5,-29.09 93.5,-29.09"/>
</a>
</g>
</g>
<!-- Node4 -->
<g id="Node000004" class="node">
<title>Node4</title>
<g id="a_Node000004"><a xlink:title=" ">
<polygon fill="#e0e0e0" stroke="#999999" points="234.5,-19 137.5,-19 137.5,0 234.5,0 234.5,-19"/>
<text text-anchor="middle" x="186" y="-7" font-family="Inter" font-size="10.00">libwnck/libwnck.h</text>
</a>
</g>
</g>
<!-- Node1&#45;&gt;Node4 -->
<g id="edge3_Node000001_Node000004" class="edge">
<title>Node1&#45;&gt;Node4</title>
<g id="a_edge3_Node000001_Node000004"><a xlink:title=" ">
<path fill="none" stroke="#63b8ff" d="M105.42,-54.98C120.45,-46.69 143.54,-33.94 161.16,-24.22"/>
<polygon fill="#63b8ff" stroke="#63b8ff" points="163.23,-27.07 170.3,-19.17 159.85,-20.94 163.23,-27.07"/>
</a>
</g>
</g>
</g>
</svg>
