<?xml version="1.0" encoding="UTF-8" standalone="no"?>
<!DOCTYPE svg PUBLIC "-//W3C//DTD SVG 1.1//EN"
 "http://www.w3.org/Graphics/SVG/1.1/DTD/svg11.dtd">
<!-- Generated by graphviz version 2.43.0 (0)
 -->
<!-- Title: terminal&#45;actions.h Pages: 1 -->
<svg width="327pt" height="82pt"
 viewBox="0.00 0.00 326.50 82.00" xmlns="http://www.w3.org/2000/svg" xmlns:xlink="http://www.w3.org/1999/xlink">
<g id="graph0" class="graph" transform="scale(1 1) rotate(0) translate(4 78)">
<title>terminal&#45;actions.h</title>
<!-- Node1 -->
<g id="Node000001" class="node">
<title>Node1</title>
<g id="a_Node000001"><a xlink:title=" ">
<polygon fill="#999999" stroke="#666666" points="208,-74 108,-74 108,-55 208,-55 208,-74"/>
<text text-anchor="middle" x="158" y="-62" font-family="Inter" font-size="10.00">terminal&#45;actions.h</text>
</a>
</g>
</g>
<!-- Node2 -->
<g id="Node000002" class="node">
<title>Node2</title>
<g id="a_Node000002"><a xlink:href="terminal-actions_8c.html" target="_top" xlink:title=" ">
<polygon fill="white" stroke="#666666" points="98,-19 0,-19 0,0 98,0 98,-19"/>
<text text-anchor="middle" x="49" y="-7" font-family="Inter" font-size="10.00">terminal&#45;actions.c</text>
</a>
</g>
</g>
<!-- Node1&#45;&gt;Node2 -->
<g id="edge1_Node000001_Node000002" class="edge">
<title>Node1&#45;&gt;Node2</title>
<g id="a_edge1_Node000001_Node000002"><a xlink:title=" ">
<path fill="none" stroke="#63b8ff" d="M131.27,-50.5C111.21,-40.75 84.32,-27.68 66.83,-19.17"/>
<polygon fill="#63b8ff" stroke="#63b8ff" points="129.96,-53.76 140.49,-54.98 133.02,-47.46 129.96,-53.76"/>
</a>
</g>
</g>
<!-- Node3 -->
<g id="Node000003" class="node">
<title>Node3</title>
<g id="a_Node000003"><a xlink:href="terminal-app_8c.html" target="_top" xlink:title=" ">
<polygon fill="white" stroke="#666666" points="199.5,-19 116.5,-19 116.5,0 199.5,0 199.5,-19"/>
<text text-anchor="middle" x="158" y="-7" font-family="Inter" font-size="10.00">terminal&#45;app.c</text>
</a>
</g>
</g>
<!-- Node1&#45;&gt;Node3 -->
<g id="edge2_Node000001_Node000003" class="edge">
<title>Node1&#45;&gt;Node3</title>
<g id="a_edge2_Node000001_Node000003"><a xlink:title=" ">
<path fill="none" stroke="#63b8ff" d="M158,-44.66C158,-35.93 158,-25.99 158,-19.09"/>
<polygon fill="#63b8ff" stroke="#63b8ff" points="154.5,-44.75 158,-54.75 161.5,-44.75 154.5,-44.75"/>
</a>
</g>
</g>
<!-- Node4 -->
<g id="Node000004" class="node">
<title>Node4</title>
<g id="a_Node000004"><a xlink:href="terminal-window_8c.html" target="_top" xlink:title=" ">
<polygon fill="white" stroke="#666666" points="318.5,-19 217.5,-19 217.5,0 318.5,0 318.5,-19"/>
<text text-anchor="middle" x="268" y="-7" font-family="Inter" font-size="10.00">terminal&#45;window.c</text>
</a>
</g>
</g>
<!-- Node1&#45;&gt;Node4 -->
<g id="edge3_Node000001_Node000004" class="edge">
<title>Node1&#45;&gt;Node4</title>
<g id="a_edge3_Node000001_Node000004"><a xlink:title=" ">
<path fill="none" stroke="#63b8ff" d="M184.7,-50.63C204.97,-40.87 232.27,-27.71 250.01,-19.17"/>
<polygon fill="#63b8ff" stroke="#63b8ff" points="183.16,-47.49 175.67,-54.98 186.2,-53.8 183.16,-47.49"/>
</a>
</g>
</g>
</g>
</svg>
