<?xml version="1.0" encoding="UTF-8" standalone="no"?>
<!DOCTYPE svg PUBLIC "-//W3C//DTD SVG 1.1//EN"
 "http://www.w3.org/Graphics/SVG/1.1/DTD/svg11.dtd">
<!-- Generated by graphviz version 2.43.0 (0)
 -->
<!-- Title: terminal&#45;encoding.c Pages: 1 -->
<svg width="900pt" height="247pt"
 viewBox="0.00 0.00 900.00 247.00" xmlns="http://www.w3.org/2000/svg" xmlns:xlink="http://www.w3.org/1999/xlink">
<g id="graph0" class="graph" transform="scale(1 1) rotate(0) translate(4 243)">
<title>terminal&#45;encoding.c</title>
<!-- Node1 -->
<g id="Node000001" class="node">
<title>Node1</title>
<g id="a_Node000001"><a xlink:title=" ">
<polygon fill="#999999" stroke="#666666" points="402.5,-239 293.5,-239 293.5,-220 402.5,-220 402.5,-239"/>
<text text-anchor="middle" x="348" y="-227" font-family="Inter" font-size="10.00">terminal&#45;encoding.c</text>
</a>
</g>
</g>
<!-- Node2 -->
<g id="Node000002" class="node">
<title>Node2</title>
<g id="a_Node000002"><a xlink:title=" ">
<polygon fill="#e0e0e0" stroke="#999999" points="54,-184 0,-184 0,-165 54,-165 54,-184"/>
<text text-anchor="middle" x="27" y="-172" font-family="Inter" font-size="10.00">config.h</text>
</a>
</g>
</g>
<!-- Node1&#45;&gt;Node2 -->
<g id="edge1_Node000001_Node000002" class="edge">
<title>Node1&#45;&gt;Node2</title>
<g id="a_edge1_Node000001_Node000002"><a xlink:title=" ">
<path fill="none" stroke="#63b8ff" d="M293.41,-221.25C238.02,-213.61 149.6,-200.62 63.97,-184.06"/>
<polygon fill="#63b8ff" stroke="#63b8ff" points="64.56,-180.61 54.08,-182.13 63.22,-187.48 64.56,-180.61"/>
</a>
</g>
</g>
<!-- Node3 -->
<g id="Node000003" class="node">
<title>Node3</title>
<g id="a_Node000003"><a xlink:title=" ">
<polygon fill="#e0e0e0" stroke="#999999" points="125.5,-184 72.5,-184 72.5,-165 125.5,-165 125.5,-184"/>
<text text-anchor="middle" x="99" y="-172" font-family="Inter" font-size="10.00">string.h</text>
</a>
</g>
</g>
<!-- Node1&#45;&gt;Node3 -->
<g id="edge2_Node000001_Node000003" class="edge">
<title>Node1&#45;&gt;Node3</title>
<g id="a_edge2_Node000001_Node000003"><a xlink:title=" ">
<path fill="none" stroke="#63b8ff" d="M305.5,-219.96C264.56,-211.65 200.63,-198.49 135.72,-184.11"/>
<polygon fill="#63b8ff" stroke="#63b8ff" points="136.24,-180.64 125.72,-181.89 134.72,-187.48 136.24,-180.64"/>
</a>
</g>
</g>
<!-- Node4 -->
<g id="Node000004" class="node">
<title>Node4</title>
<g id="a_Node000004"><a xlink:title=" ">
<polygon fill="#e0e0e0" stroke="#999999" points="321.5,-19 262.5,-19 262.5,0 321.5,0 321.5,-19"/>
<text text-anchor="middle" x="292" y="-7" font-family="Inter" font-size="10.00">gtk/gtk.h</text>
</a>
</g>
</g>
<!-- Node1&#45;&gt;Node4 -->
<g id="edge3_Node000001_Node000004" class="edge">
<title>Node1&#45;&gt;Node4</title>
<g id="a_edge3_Node000001_Node000004"><a xlink:title=" ">
<path fill="none" stroke="#63b8ff" d="M402.54,-225.21C486.85,-219.51 644.48,-206.23 696,-184 736.74,-166.43 789.01,-145.95 763,-110 712.32,-39.95 435.92,-18.14 331.75,-12.35"/>
<polygon fill="#63b8ff" stroke="#63b8ff" points="331.81,-8.85 321.64,-11.81 331.44,-15.84 331.81,-8.85"/>
</a>
</g>
</g>
<!-- Node5 -->
<g id="Node000005" class="node">
<title>Node5</title>
<g id="a_Node000005"><a xlink:href="terminal-app_8h.html" target="_top" xlink:title=" ">
<polygon fill="white" stroke="#666666" points="390.5,-184 305.5,-184 305.5,-165 390.5,-165 390.5,-184"/>
<text text-anchor="middle" x="348" y="-172" font-family="Inter" font-size="10.00">terminal&#45;app.h</text>
</a>
</g>
</g>
<!-- Node1&#45;&gt;Node5 -->
<g id="edge4_Node000001_Node000005" class="edge">
<title>Node1&#45;&gt;Node5</title>
<g id="a_edge4_Node000001_Node000005"><a xlink:title=" ">
<path fill="none" stroke="#63b8ff" d="M348,-219.75C348,-212.8 348,-202.85 348,-194.13"/>
<polygon fill="#63b8ff" stroke="#63b8ff" points="351.5,-194.09 348,-184.09 344.5,-194.09 351.5,-194.09"/>
</a>
</g>
</g>
<!-- Node6 -->
<g id="Node000006" class="node">
<title>Node6</title>
<g id="a_Node000006"><a xlink:href="terminal-encoding_8h.html" target="_top" xlink:title=" ">
<polygon fill="white" stroke="#666666" points="550,-129 440,-129 440,-110 550,-110 550,-129"/>
<text text-anchor="middle" x="495" y="-117" font-family="Inter" font-size="10.00">terminal&#45;encoding.h</text>
</a>
</g>
</g>
<!-- Node1&#45;&gt;Node6 -->
<g id="edge17_Node000001_Node000006" class="edge">
<title>Node1&#45;&gt;Node6</title>
<g id="a_edge17_Node000001_Node000006"><a xlink:title=" ">
<path fill="none" stroke="#63b8ff" d="M359.78,-219.84C384.83,-201.44 443.64,-158.23 474.8,-135.34"/>
<polygon fill="#63b8ff" stroke="#63b8ff" points="477.18,-137.94 483.16,-129.2 473.03,-132.3 477.18,-137.94"/>
</a>
</g>
</g>
<!-- Node9 -->
<g id="Node000009" class="node">
<title>Node9</title>
<g id="a_Node000009"><a xlink:href="terminal-profile_8h.html" target="_top" xlink:title=" ">
<polygon fill="white" stroke="#666666" points="264,-74 166,-74 166,-55 264,-55 264,-74"/>
<text text-anchor="middle" x="215" y="-62" font-family="Inter" font-size="10.00">terminal&#45;profile.h</text>
</a>
</g>
</g>
<!-- Node1&#45;&gt;Node9 -->
<g id="edge20_Node000001_Node000009" class="edge">
<title>Node1&#45;&gt;Node9</title>
<g id="a_edge20_Node000001_Node000009"><a xlink:title=" ">
<path fill="none" stroke="#63b8ff" d="M336.06,-219.75C324.98,-211.3 308.38,-197.8 296,-184 266.45,-151.07 238.93,-106.82 224.84,-82.79"/>
<polygon fill="#63b8ff" stroke="#63b8ff" points="227.84,-81 219.8,-74.09 221.78,-84.5 227.84,-81"/>
</a>
</g>
</g>
<!-- Node12 -->
<g id="Node000012" class="node">
<title>Node12</title>
<g id="a_Node000012"><a xlink:href="terminal-debug_8h.html" target="_top" xlink:title=" ">
<polygon fill="white" stroke="#666666" points="687,-184 589,-184 589,-165 687,-165 687,-184"/>
<text text-anchor="middle" x="638" y="-172" font-family="Inter" font-size="10.00">terminal&#45;debug.h</text>
</a>
</g>
</g>
<!-- Node1&#45;&gt;Node12 -->
<g id="edge13_Node000001_Node000012" class="edge">
<title>Node1&#45;&gt;Node12</title>
<g id="a_edge13_Node000001_Node000012"><a xlink:title=" ">
<path fill="none" stroke="#63b8ff" d="M394.59,-219.98C445.39,-210.7 526.69,-195.84 581.19,-185.88"/>
<polygon fill="#63b8ff" stroke="#63b8ff" points="581.83,-189.32 591.04,-184.08 580.57,-182.44 581.83,-189.32"/>
</a>
</g>
</g>
<!-- Node15 -->
<g id="Node000015" class="node">
<title>Node15</title>
<g id="a_Node000015"><a xlink:href="terminal-intl_8h.html" target="_top" xlink:title=" ">
<polygon fill="white" stroke="#666666" points="892,-184 810,-184 810,-165 892,-165 892,-184"/>
<text text-anchor="middle" x="851" y="-172" font-family="Inter" font-size="10.00">terminal&#45;intl.h</text>
</a>
</g>
</g>
<!-- Node1&#45;&gt;Node15 -->
<g id="edge18_Node000001_Node000015" class="edge">
<title>Node1&#45;&gt;Node15</title>
<g id="a_edge18_Node000001_Node000015"><a xlink:title=" ">
<path fill="none" stroke="#63b8ff" d="M402.59,-224.04C487.06,-216.92 654.49,-201.95 796,-184 797.27,-183.84 798.55,-183.67 799.84,-183.5"/>
<polygon fill="#63b8ff" stroke="#63b8ff" points="800.47,-186.95 809.89,-182.1 799.5,-180.01 800.47,-186.95"/>
</a>
</g>
</g>
<!-- Node17 -->
<g id="Node000017" class="node">
<title>Node17</title>
<g id="a_Node000017"><a xlink:href="terminal-util_8h.html" target="_top" xlink:title=" ">
<polygon fill="white" stroke="#666666" points="226,-184 144,-184 144,-165 226,-165 226,-184"/>
<text text-anchor="middle" x="185" y="-172" font-family="Inter" font-size="10.00">terminal&#45;util.h</text>
</a>
</g>
</g>
<!-- Node1&#45;&gt;Node17 -->
<g id="edge21_Node000001_Node000017" class="edge">
<title>Node1&#45;&gt;Node17</title>
<g id="a_edge21_Node000001_Node000017"><a xlink:title=" ">
<path fill="none" stroke="#63b8ff" d="M321.81,-219.98C294.56,-211.13 251.7,-197.19 221.22,-187.28"/>
<polygon fill="#63b8ff" stroke="#63b8ff" points="221.99,-183.85 211.39,-184.08 219.82,-190.5 221.99,-183.85"/>
</a>
</g>
</g>
<!-- Node5&#45;&gt;Node4 -->
<g id="edge5_Node000005_Node000004" class="edge">
<title>Node5&#45;&gt;Node4</title>
<g id="a_edge5_Node000005_Node000004"><a xlink:title=" ">
<path fill="none" stroke="#63b8ff" d="M338.44,-164.97C329.8,-156.67 317.48,-143.27 311,-129 296.12,-96.23 292.67,-53.73 292,-29.55"/>
<polygon fill="#63b8ff" stroke="#63b8ff" points="295.5,-29.23 291.86,-19.28 288.5,-29.33 295.5,-29.23"/>
</a>
</g>
</g>
<!-- Node5&#45;&gt;Node6 -->
<g id="edge6_Node000005_Node000006" class="edge">
<title>Node5&#45;&gt;Node6</title>
<g id="a_edge6_Node000005_Node000006"><a xlink:title=" ">
<path fill="none" stroke="#63b8ff" d="M371.62,-164.98C395.9,-156.23 433.95,-142.51 461.37,-132.62"/>
<polygon fill="#63b8ff" stroke="#63b8ff" points="462.73,-135.85 470.95,-129.17 460.36,-129.27 462.73,-135.85"/>
</a>
</g>
</g>
<!-- Node7 -->
<g id="Node000007" class="node">
<title>Node7</title>
<g id="a_Node000007"><a xlink:href="terminal-screen_8h.html" target="_top" xlink:title=" ">
<polygon fill="#fff0f0" stroke="red" points="226,-129 128,-129 128,-110 226,-110 226,-129"/>
<text text-anchor="middle" x="177" y="-117" font-family="Inter" font-size="10.00">terminal&#45;screen.h</text>
</a>
</g>
</g>
<!-- Node5&#45;&gt;Node7 -->
<g id="edge8_Node000005_Node000007" class="edge">
<title>Node5&#45;&gt;Node7</title>
<g id="a_edge8_Node000005_Node000007"><a xlink:title=" ">
<path fill="none" stroke="#63b8ff" d="M320.53,-164.98C291.82,-156.09 246.58,-142.07 214.58,-132.15"/>
<polygon fill="#63b8ff" stroke="#63b8ff" points="215.28,-128.7 204.69,-129.08 213.2,-135.39 215.28,-128.7"/>
</a>
</g>
</g>
<!-- Node10 -->
<g id="Node000010" class="node">
<title>Node10</title>
<g id="a_Node000010"><a xlink:href="terminal-options_8h.html" target="_top" xlink:title=" ">
<polygon fill="white" stroke="#666666" points="422,-129 320,-129 320,-110 422,-110 422,-129"/>
<text text-anchor="middle" x="371" y="-117" font-family="Inter" font-size="10.00">terminal&#45;options.h</text>
</a>
</g>
</g>
<!-- Node5&#45;&gt;Node10 -->
<g id="edge11_Node000005_Node000010" class="edge">
<title>Node5&#45;&gt;Node10</title>
<g id="a_edge11_Node000005_Node000010"><a xlink:title=" ">
<path fill="none" stroke="#63b8ff" d="M351.8,-164.75C354.91,-157.57 359.42,-147.18 363.29,-138.27"/>
<polygon fill="#63b8ff" stroke="#63b8ff" points="366.5,-139.66 367.27,-129.09 360.08,-136.87 366.5,-139.66"/>
</a>
</g>
</g>
<!-- Node6&#45;&gt;Node4 -->
<g id="edge7_Node000006_Node000004" class="edge">
<title>Node6&#45;&gt;Node4</title>
<g id="a_edge7_Node000006_Node000004"><a xlink:title=" ">
<path fill="none" stroke="#63b8ff" d="M478.73,-109.84C443.38,-91.04 359.35,-46.33 317.13,-23.87"/>
<polygon fill="#63b8ff" stroke="#63b8ff" points="318.54,-20.65 308.06,-19.05 315.25,-26.83 318.54,-20.65"/>
</a>
</g>
</g>
<!-- Node7&#45;&gt;Node9 -->
<g id="edge9_Node000007_Node000009" class="edge">
<title>Node7&#45;&gt;Node9</title>
<g id="a_edge9_Node000007_Node000009"><a xlink:title=" ">
<path fill="none" stroke="#63b8ff" d="M183.27,-109.75C188.59,-102.34 196.36,-91.5 202.88,-82.41"/>
<polygon fill="#63b8ff" stroke="#63b8ff" points="205.86,-84.26 208.84,-74.09 200.17,-80.18 205.86,-84.26"/>
</a>
</g>
</g>
<!-- Node9&#45;&gt;Node4 -->
<g id="edge10_Node000009_Node000004" class="edge">
<title>Node9&#45;&gt;Node4</title>
<g id="a_edge10_Node000009_Node000004"><a xlink:title=" ">
<path fill="none" stroke="#63b8ff" d="M227.37,-54.98C239.09,-46.92 256.92,-34.65 270.89,-25.03"/>
<polygon fill="#63b8ff" stroke="#63b8ff" points="273.15,-27.72 279.4,-19.17 269.18,-21.96 273.15,-27.72"/>
</a>
</g>
</g>
<!-- Node11 -->
<g id="Node000011" class="node">
<title>Node11</title>
<g id="a_Node000011"><a xlink:title=" ">
<polygon fill="#e0e0e0" stroke="#999999" points="587,-74 545,-74 545,-55 587,-55 587,-74"/>
<text text-anchor="middle" x="566" y="-62" font-family="Inter" font-size="10.00">glib.h</text>
</a>
</g>
</g>
<!-- Node10&#45;&gt;Node11 -->
<g id="edge12_Node000010_Node000011" class="edge">
<title>Node10&#45;&gt;Node11</title>
<g id="a_edge12_Node000010_Node000011"><a xlink:title=" ">
<path fill="none" stroke="#63b8ff" d="M402.33,-109.98C438.78,-100.08 498.6,-83.82 534.93,-73.94"/>
<polygon fill="#63b8ff" stroke="#63b8ff" points="536.23,-77.22 544.96,-71.22 534.4,-70.46 536.23,-77.22"/>
</a>
</g>
</g>
<!-- Node12&#45;&gt;Node11 -->
<g id="edge14_Node000012_Node000011" class="edge">
<title>Node12&#45;&gt;Node11</title>
<g id="a_edge14_Node000012_Node000011"><a xlink:title=" ">
<path fill="none" stroke="#63b8ff" d="M643.53,-164.62C650.8,-151.68 661.49,-127.33 651,-110 639.25,-90.58 615.93,-79.23 596.68,-72.86"/>
<polygon fill="#63b8ff" stroke="#63b8ff" points="597.66,-69.49 587.07,-69.96 595.64,-76.2 597.66,-69.49"/>
</a>
</g>
</g>
<!-- Node13 -->
<g id="Node000013" class="node">
<title>Node13</title>
<g id="a_Node000013"><a xlink:title=" ">
<polygon fill="#e0e0e0" stroke="#999999" points="753.5,-129 698.5,-129 698.5,-110 753.5,-110 753.5,-129"/>
<text text-anchor="middle" x="726" y="-117" font-family="Inter" font-size="10.00">stdarg.h</text>
</a>
</g>
</g>
<!-- Node12&#45;&gt;Node13 -->
<g id="edge15_Node000012_Node000013" class="edge">
<title>Node12&#45;&gt;Node13</title>
<g id="a_edge15_Node000012_Node000013"><a xlink:title=" ">
<path fill="none" stroke="#63b8ff" d="M652.14,-164.98C665.79,-156.77 686.69,-144.18 702.78,-134.49"/>
<polygon fill="#63b8ff" stroke="#63b8ff" points="704.84,-137.33 711.6,-129.17 701.23,-131.33 704.84,-137.33"/>
</a>
</g>
</g>
<!-- Node14 -->
<g id="Node000014" class="node">
<title>Node14</title>
<g id="a_Node000014"><a xlink:title=" ">
<polygon fill="#e0e0e0" stroke="#999999" points="642,-129 568,-129 568,-110 642,-110 642,-129"/>
<text text-anchor="middle" x="605" y="-117" font-family="Inter" font-size="10.00">glib/gstdio.h</text>
</a>
</g>
</g>
<!-- Node12&#45;&gt;Node14 -->
<g id="edge16_Node000012_Node000014" class="edge">
<title>Node12&#45;&gt;Node14</title>
<g id="a_edge16_Node000012_Node000014"><a xlink:title=" ">
<path fill="none" stroke="#63b8ff" d="M632.55,-164.75C627.99,-157.42 621.33,-146.73 615.71,-137.7"/>
<polygon fill="#63b8ff" stroke="#63b8ff" points="618.6,-135.73 610.35,-129.09 612.66,-139.43 618.6,-135.73"/>
</a>
</g>
</g>
<!-- Node16 -->
<g id="Node000016" class="node">
<title>Node16</title>
<g id="a_Node000016"><a xlink:title=" ">
<polygon fill="#e0e0e0" stroke="#999999" points="887,-129 815,-129 815,-110 887,-110 887,-129"/>
<text text-anchor="middle" x="851" y="-117" font-family="Inter" font-size="10.00">glib/gi18n.h</text>
</a>
</g>
</g>
<!-- Node15&#45;&gt;Node16 -->
<g id="edge19_Node000015_Node000016" class="edge">
<title>Node15&#45;&gt;Node16</title>
<g id="a_edge19_Node000015_Node000016"><a xlink:title=" ">
<path fill="none" stroke="#63b8ff" d="M851,-164.75C851,-157.8 851,-147.85 851,-139.13"/>
<polygon fill="#63b8ff" stroke="#63b8ff" points="854.5,-139.09 851,-129.09 847.5,-139.09 854.5,-139.09"/>
</a>
</g>
</g>
<!-- Node17&#45;&gt;Node4 -->
<g id="edge22_Node000017_Node000004" class="edge">
<title>Node17&#45;&gt;Node4</title>
<g id="a_edge22_Node000017_Node000004"><a xlink:title=" ">
<path fill="none" stroke="#63b8ff" d="M162.22,-164.89C146.97,-157.79 128.08,-146.08 119,-129 115.03,-121.54 116.49,-118.06 119,-110 127.85,-81.64 133.21,-72.8 157,-55 185.07,-34 223.56,-22.6 252.26,-16.62"/>
<polygon fill="#63b8ff" stroke="#63b8ff" points="253.2,-20 262.35,-14.65 251.86,-13.13 253.2,-20"/>
</a>
</g>
</g>
<!-- Node17&#45;&gt;Node7 -->
<g id="edge23_Node000017_Node000007" class="edge">
<title>Node17&#45;&gt;Node7</title>
<g id="a_edge23_Node000017_Node000007"><a xlink:title=" ">
<path fill="none" stroke="#63b8ff" d="M183.68,-164.75C182.63,-157.8 181.13,-147.85 179.81,-139.13"/>
<polygon fill="#63b8ff" stroke="#63b8ff" points="183.25,-138.45 178.3,-129.09 176.33,-139.5 183.25,-138.45"/>
</a>
</g>
</g>
</g>
</svg>
