<?xml version="1.0" encoding="UTF-8" standalone="no"?>
<!DOCTYPE svg PUBLIC "-//W3C//DTD SVG 1.1//EN"
 "http://www.w3.org/Graphics/SVG/1.1/DTD/svg11.dtd">
<!-- Generated by graphviz version 2.43.0 (0)
 -->
<!-- Title: theme.h Pages: 1 -->
<svg width="363pt" height="192pt"
 viewBox="0.00 0.00 363.00 192.00" xmlns="http://www.w3.org/2000/svg" xmlns:xlink="http://www.w3.org/1999/xlink">
<g id="graph0" class="graph" transform="scale(1 1) rotate(0) translate(4 188)">
<title>theme.h</title>
<!-- Node1 -->
<g id="Node000001" class="node">
<title>Node1</title>
<g id="a_Node000001"><a xlink:title=" ">
<polygon fill="#999999" stroke="#666666" points="175,-184 119,-184 119,-165 175,-165 175,-184"/>
<text text-anchor="middle" x="147" y="-172" font-family="Inter" font-size="10.00">theme.h</text>
</a>
</g>
</g>
<!-- Node2 -->
<g id="Node000002" class="node">
<title>Node2</title>
<g id="a_Node000002"><a xlink:href="boxes_8h.html" target="_top" xlink:title=" ">
<polygon fill="white" stroke="#666666" points="82.5,-129 29.5,-129 29.5,-110 82.5,-110 82.5,-129"/>
<text text-anchor="middle" x="56" y="-117" font-family="Inter" font-size="10.00">boxes.h</text>
</a>
</g>
</g>
<!-- Node1&#45;&gt;Node2 -->
<g id="edge1_Node000001_Node000002" class="edge">
<title>Node1&#45;&gt;Node2</title>
<g id="a_edge1_Node000001_Node000002"><a xlink:title=" ">
<path fill="none" stroke="#63b8ff" d="M132.38,-164.98C118.14,-156.69 96.25,-143.94 79.55,-134.22"/>
<polygon fill="#63b8ff" stroke="#63b8ff" points="81.29,-131.18 70.89,-129.17 77.77,-137.23 81.29,-131.18"/>
</a>
</g>
</g>
<!-- Node6 -->
<g id="Node000006" class="node">
<title>Node6</title>
<g id="a_Node000006"><a xlink:title=" ">
<polygon fill="#e0e0e0" stroke="#999999" points="132.5,-19 73.5,-19 73.5,0 132.5,0 132.5,-19"/>
<text text-anchor="middle" x="103" y="-7" font-family="Inter" font-size="10.00">gtk/gtk.h</text>
</a>
</g>
</g>
<!-- Node1&#45;&gt;Node6 -->
<g id="edge10_Node000001_Node000006" class="edge">
<title>Node1&#45;&gt;Node6</title>
<g id="a_edge10_Node000001_Node000006"><a xlink:title=" ">
<path fill="none" stroke="#63b8ff" d="M144.63,-164.74C137.74,-139.2 117.56,-64.43 108.06,-29.23"/>
<polygon fill="#63b8ff" stroke="#63b8ff" points="111.36,-28.05 105.38,-19.31 104.6,-29.87 111.36,-28.05"/>
</a>
</g>
</g>
<!-- Node7 -->
<g id="Node000007" class="node">
<title>Node7</title>
<g id="a_Node000007"><a xlink:href="gradient_8h.html" target="_top" xlink:title=" ">
<polygon fill="white" stroke="#666666" points="225.5,-129 160.5,-129 160.5,-110 225.5,-110 225.5,-129"/>
<text text-anchor="middle" x="193" y="-117" font-family="Inter" font-size="10.00">gradient.h</text>
</a>
</g>
</g>
<!-- Node1&#45;&gt;Node7 -->
<g id="edge6_Node000001_Node000007" class="edge">
<title>Node1&#45;&gt;Node7</title>
<g id="a_edge6_Node000001_Node000007"><a xlink:title=" ">
<path fill="none" stroke="#63b8ff" d="M154.6,-164.75C161.16,-157.18 170.82,-146.05 178.81,-136.84"/>
<polygon fill="#63b8ff" stroke="#63b8ff" points="181.63,-138.94 185.55,-129.09 176.35,-134.35 181.63,-138.94"/>
</a>
</g>
</g>
<!-- Node10 -->
<g id="Node000010" class="node">
<title>Node10</title>
<g id="a_Node000010"><a xlink:title=" ">
<polygon fill="#e0e0e0" stroke="#999999" points="310,-129 244,-129 244,-110 310,-110 310,-129"/>
<text text-anchor="middle" x="277" y="-117" font-family="Inter" font-size="10.00">common.h</text>
</a>
</g>
</g>
<!-- Node1&#45;&gt;Node10 -->
<g id="edge9_Node000001_Node000010" class="edge">
<title>Node1&#45;&gt;Node10</title>
<g id="a_edge9_Node000001_Node000010"><a xlink:title=" ">
<path fill="none" stroke="#63b8ff" d="M167.89,-164.98C189.08,-156.34 222.13,-142.87 246.3,-133.02"/>
<polygon fill="#63b8ff" stroke="#63b8ff" points="247.79,-136.19 255.73,-129.17 245.15,-129.7 247.79,-136.19"/>
</a>
</g>
</g>
<!-- Node3 -->
<g id="Node000003" class="node">
<title>Node3</title>
<g id="a_Node000003"><a xlink:title=" ">
<polygon fill="#e0e0e0" stroke="#999999" points="42,-19 0,-19 0,0 42,0 42,-19"/>
<text text-anchor="middle" x="21" y="-7" font-family="Inter" font-size="10.00">glib.h</text>
</a>
</g>
</g>
<!-- Node2&#45;&gt;Node3 -->
<g id="edge2_Node000002_Node000003" class="edge">
<title>Node2&#45;&gt;Node3</title>
<g id="a_edge2_Node000002_Node000003"><a xlink:title=" ">
<path fill="none" stroke="#63b8ff" d="M43.79,-109.86C33.65,-101.88 19.96,-89.01 14,-74 8.24,-59.51 10.92,-41.77 14.51,-28.74"/>
<polygon fill="#63b8ff" stroke="#63b8ff" points="17.89,-29.65 17.57,-19.06 11.21,-27.54 17.89,-29.65"/>
</a>
</g>
</g>
<!-- Node4 -->
<g id="Node000004" class="node">
<title>Node4</title>
<g id="a_Node000004"><a xlink:href="marco_2src_2include_2common_8h.html" target="_top" xlink:title=" ">
<polygon fill="#fff0f0" stroke="red" points="89,-74 23,-74 23,-55 89,-55 89,-74"/>
<text text-anchor="middle" x="56" y="-62" font-family="Inter" font-size="10.00">common.h</text>
</a>
</g>
</g>
<!-- Node2&#45;&gt;Node4 -->
<g id="edge3_Node000002_Node000004" class="edge">
<title>Node2&#45;&gt;Node4</title>
<g id="a_edge3_Node000002_Node000004"><a xlink:title=" ">
<path fill="none" stroke="#63b8ff" d="M56,-109.75C56,-102.8 56,-92.85 56,-84.13"/>
<polygon fill="#63b8ff" stroke="#63b8ff" points="59.5,-84.09 56,-74.09 52.5,-84.09 59.5,-84.09"/>
</a>
</g>
</g>
<!-- Node4&#45;&gt;Node3 -->
<g id="edge4_Node000004_Node000003" class="edge">
<title>Node4&#45;&gt;Node3</title>
<g id="a_edge4_Node000004_Node000003"><a xlink:title=" ">
<path fill="none" stroke="#63b8ff" d="M50.22,-54.75C45.38,-47.42 38.32,-36.73 32.36,-27.7"/>
<polygon fill="#63b8ff" stroke="#63b8ff" points="35.1,-25.5 26.67,-19.09 29.26,-29.36 35.1,-25.5"/>
</a>
</g>
</g>
<!-- Node4&#45;&gt;Node6 -->
<g id="edge5_Node000004_Node000006" class="edge">
<title>Node4&#45;&gt;Node6</title>
<g id="a_edge5_Node000004_Node000006"><a xlink:title=" ">
<path fill="none" stroke="#63b8ff" d="M63.76,-54.75C70.47,-47.18 80.34,-36.05 88.51,-26.84"/>
<polygon fill="#63b8ff" stroke="#63b8ff" points="91.37,-28.89 95.38,-19.09 86.13,-24.25 91.37,-28.89"/>
</a>
</g>
</g>
<!-- Node8 -->
<g id="Node000008" class="node">
<title>Node8</title>
<g id="a_Node000008"><a xlink:title=" ">
<polygon fill="#e0e0e0" stroke="#999999" points="273,-74 145,-74 145,-55 273,-55 273,-74"/>
<text text-anchor="middle" x="209" y="-62" font-family="Inter" font-size="10.00">gdk&#45;pixbuf/gdk&#45;pixbuf.h</text>
</a>
</g>
</g>
<!-- Node7&#45;&gt;Node8 -->
<g id="edge7_Node000007_Node000008" class="edge">
<title>Node7&#45;&gt;Node8</title>
<g id="a_edge7_Node000007_Node000008"><a xlink:title=" ">
<path fill="none" stroke="#63b8ff" d="M195.64,-109.75C197.76,-102.72 200.81,-92.62 203.46,-83.84"/>
<polygon fill="#63b8ff" stroke="#63b8ff" points="206.87,-84.67 206.41,-74.09 200.17,-82.65 206.87,-84.67"/>
</a>
</g>
</g>
<!-- Node9 -->
<g id="Node000009" class="node">
<title>Node9</title>
<g id="a_Node000009"><a xlink:title=" ">
<polygon fill="#e0e0e0" stroke="#999999" points="355,-74 291,-74 291,-55 355,-55 355,-74"/>
<text text-anchor="middle" x="323" y="-62" font-family="Inter" font-size="10.00">gdk/gdk.h</text>
</a>
</g>
</g>
<!-- Node7&#45;&gt;Node9 -->
<g id="edge8_Node000007_Node000009" class="edge">
<title>Node7&#45;&gt;Node9</title>
<g id="a_edge8_Node000007_Node000009"><a xlink:title=" ">
<path fill="none" stroke="#63b8ff" d="M213.89,-109.98C235.08,-101.34 268.13,-87.87 292.3,-78.02"/>
<polygon fill="#63b8ff" stroke="#63b8ff" points="293.79,-81.19 301.73,-74.17 291.15,-74.7 293.79,-81.19"/>
</a>
</g>
</g>
</g>
</svg>
