<?xml version="1.0" encoding="UTF-8" standalone="no"?>
<!DOCTYPE svg PUBLIC "-//W3C//DTD SVG 1.1//EN"
 "http://www.w3.org/Graphics/SVG/1.1/DTD/svg11.dtd">
<!-- Generated by graphviz version 2.43.0 (0)
 -->
<!-- Title: weather&#45;iwin.c Pages: 1 -->
<svg width="901pt" height="247pt"
 viewBox="0.00 0.00 901.00 247.00" xmlns="http://www.w3.org/2000/svg" xmlns:xlink="http://www.w3.org/1999/xlink">
<g id="graph0" class="graph" transform="scale(1 1) rotate(0) translate(4 243)">
<title>weather&#45;iwin.c</title>
<!-- Node1 -->
<g id="Node000001" class="node">
<title>Node1</title>
<g id="a_Node000001"><a xlink:title=" ">
<polygon fill="#999999" stroke="#666666" points="249.5,-239 165.5,-239 165.5,-220 249.5,-220 249.5,-239"/>
<text text-anchor="middle" x="207.5" y="-227" font-family="Inter" font-size="10.00">weather&#45;iwin.c</text>
</a>
</g>
</g>
<!-- Node2 -->
<g id="Node000002" class="node">
<title>Node2</title>
<g id="a_Node000002"><a xlink:title=" ">
<polygon fill="#e0e0e0" stroke="#999999" points="51,-184 0,-184 0,-165 51,-165 51,-184"/>
<text text-anchor="middle" x="25.5" y="-172" font-family="Inter" font-size="10.00">ctype.h</text>
</a>
</g>
</g>
<!-- Node1&#45;&gt;Node2 -->
<g id="edge1_Node000001_Node000002" class="edge">
<title>Node1&#45;&gt;Node2</title>
<g id="a_edge1_Node000001_Node000002"><a xlink:title=" ">
<path fill="none" stroke="#63b8ff" d="M178.26,-219.98C146.39,-210.7 95.38,-195.85 61.17,-185.89"/>
<polygon fill="#63b8ff" stroke="#63b8ff" points="61.72,-182.4 51.14,-182.97 59.76,-189.12 61.72,-182.4"/>
</a>
</g>
</g>
<!-- Node3 -->
<g id="Node000003" class="node">
<title>Node3</title>
<g id="a_Node000003"><a xlink:title=" ">
<polygon fill="#e0e0e0" stroke="#999999" points="119.5,-184 69.5,-184 69.5,-165 119.5,-165 119.5,-184"/>
<text text-anchor="middle" x="94.5" y="-172" font-family="Inter" font-size="10.00">stdlib.h</text>
</a>
</g>
</g>
<!-- Node1&#45;&gt;Node3 -->
<g id="edge2_Node000001_Node000003" class="edge">
<title>Node1&#45;&gt;Node3</title>
<g id="a_edge2_Node000001_Node000003"><a xlink:title=" ">
<path fill="none" stroke="#63b8ff" d="M189.34,-219.98C171.25,-211.5 143.22,-198.35 122.31,-188.54"/>
<polygon fill="#63b8ff" stroke="#63b8ff" points="123.53,-185.25 112.99,-184.17 120.55,-191.59 123.53,-185.25"/>
</a>
</g>
</g>
<!-- Node4 -->
<g id="Node000004" class="node">
<title>Node4</title>
<g id="a_Node000004"><a xlink:title=" ">
<polygon fill="#e0e0e0" stroke="#999999" points="191,-184 138,-184 138,-165 191,-165 191,-184"/>
<text text-anchor="middle" x="164.5" y="-172" font-family="Inter" font-size="10.00">string.h</text>
</a>
</g>
</g>
<!-- Node1&#45;&gt;Node4 -->
<g id="edge3_Node000001_Node000004" class="edge">
<title>Node1&#45;&gt;Node4</title>
<g id="a_edge3_Node000001_Node000004"><a xlink:title=" ">
<path fill="none" stroke="#63b8ff" d="M200.4,-219.75C194.33,-212.26 185.41,-201.28 177.99,-192.13"/>
<polygon fill="#63b8ff" stroke="#63b8ff" points="180.49,-189.65 171.47,-184.09 175.05,-194.06 180.49,-189.65"/>
</a>
</g>
</g>
<!-- Node5 -->
<g id="Node000005" class="node">
<title>Node5</title>
<g id="a_Node000005"><a xlink:title=" ">
<polygon fill="#e0e0e0" stroke="#999999" points="294,-184 209,-184 209,-165 294,-165 294,-184"/>
<text text-anchor="middle" x="251.5" y="-172" font-family="Inter" font-size="10.00">libxml/parser.h</text>
</a>
</g>
</g>
<!-- Node1&#45;&gt;Node5 -->
<g id="edge4_Node000001_Node000005" class="edge">
<title>Node1&#45;&gt;Node5</title>
<g id="a_edge4_Node000001_Node000005"><a xlink:title=" ">
<path fill="none" stroke="#63b8ff" d="M214.77,-219.75C221.04,-212.18 230.29,-201.05 237.93,-191.84"/>
<polygon fill="#63b8ff" stroke="#63b8ff" points="240.67,-194.02 244.37,-184.09 235.29,-189.55 240.67,-194.02"/>
</a>
</g>
</g>
<!-- Node6 -->
<g id="Node000006" class="node">
<title>Node6</title>
<g id="a_Node000006"><a xlink:href="weather_8h.html" target="_top" xlink:title=" ">
<polygon fill="white" stroke="#666666" points="391.5,-74 329.5,-74 329.5,-55 391.5,-55 391.5,-74"/>
<text text-anchor="middle" x="360.5" y="-62" font-family="Inter" font-size="10.00">weather.h</text>
</a>
</g>
</g>
<!-- Node1&#45;&gt;Node6 -->
<g id="edge5_Node000001_Node000006" class="edge">
<title>Node1&#45;&gt;Node6</title>
<g id="a_edge5_Node000001_Node000006"><a xlink:title=" ">
<path fill="none" stroke="#63b8ff" d="M238.46,-219.93C258.75,-213.01 284.71,-201.49 302.5,-184 331.53,-155.47 348.2,-109.45 355.69,-83.97"/>
<polygon fill="#63b8ff" stroke="#63b8ff" points="359.12,-84.7 358.42,-74.13 352.37,-82.83 359.12,-84.7"/>
</a>
</g>
</g>
<!-- Node8 -->
<g id="Node000008" class="node">
<title>Node8</title>
<g id="a_Node000008"><a xlink:href="weather-priv_8h.html" target="_top" xlink:title=" ">
<polygon fill="white" stroke="#666666" points="560,-184 475,-184 475,-165 560,-165 560,-184"/>
<text text-anchor="middle" x="517.5" y="-172" font-family="Inter" font-size="10.00">weather&#45;priv.h</text>
</a>
</g>
</g>
<!-- Node1&#45;&gt;Node8 -->
<g id="edge7_Node000001_Node000008" class="edge">
<title>Node1&#45;&gt;Node8</title>
<g id="a_edge7_Node000001_Node000008"><a xlink:title=" ">
<path fill="none" stroke="#63b8ff" d="M249.63,-221.3C305.5,-211.75 404.1,-194.89 464.82,-184.51"/>
<polygon fill="#63b8ff" stroke="#63b8ff" points="465.7,-187.91 474.96,-182.77 464.52,-181.01 465.7,-187.91"/>
</a>
</g>
</g>
<!-- Node7 -->
<g id="Node000007" class="node">
<title>Node7</title>
<g id="a_Node000007"><a xlink:title=" ">
<polygon fill="#e0e0e0" stroke="#999999" points="424.5,-19 296.5,-19 296.5,0 424.5,0 424.5,-19"/>
<text text-anchor="middle" x="360.5" y="-7" font-family="Inter" font-size="10.00">gdk&#45;pixbuf/gdk&#45;pixbuf.h</text>
</a>
</g>
</g>
<!-- Node6&#45;&gt;Node7 -->
<g id="edge6_Node000006_Node000007" class="edge">
<title>Node6&#45;&gt;Node7</title>
<g id="a_edge6_Node000006_Node000007"><a xlink:title=" ">
<path fill="none" stroke="#63b8ff" d="M360.5,-54.75C360.5,-47.8 360.5,-37.85 360.5,-29.13"/>
<polygon fill="#63b8ff" stroke="#63b8ff" points="364,-29.09 360.5,-19.09 357,-29.09 364,-29.09"/>
</a>
</g>
</g>
<!-- Node8&#45;&gt;Node6 -->
<g id="edge13_Node000008_Node000006" class="edge">
<title>Node8&#45;&gt;Node6</title>
<g id="a_edge13_Node000008_Node000006"><a xlink:title=" ">
<path fill="none" stroke="#63b8ff" d="M474.97,-170.13C444.51,-165.52 404.59,-154.63 379.5,-129 367.81,-117.06 363.27,-98.24 361.53,-84.18"/>
<polygon fill="#63b8ff" stroke="#63b8ff" points="365.01,-83.81 360.65,-74.15 358.04,-84.42 365.01,-83.81"/>
</a>
</g>
</g>
<!-- Node9 -->
<g id="Node000009" class="node">
<title>Node9</title>
<g id="a_Node000009"><a xlink:title=" ">
<polygon fill="#e0e0e0" stroke="#999999" points="442.5,-129 388.5,-129 388.5,-110 442.5,-110 442.5,-129"/>
<text text-anchor="middle" x="415.5" y="-117" font-family="Inter" font-size="10.00">config.h</text>
</a>
</g>
</g>
<!-- Node8&#45;&gt;Node9 -->
<g id="edge8_Node000008_Node000009" class="edge">
<title>Node8&#45;&gt;Node9</title>
<g id="a_edge8_Node000008_Node000009"><a xlink:title=" ">
<path fill="none" stroke="#63b8ff" d="M501.11,-164.98C484.93,-156.57 459.93,-143.59 441.12,-133.81"/>
<polygon fill="#63b8ff" stroke="#63b8ff" points="442.67,-130.68 432.19,-129.17 439.45,-136.89 442.67,-130.68"/>
</a>
</g>
</g>
<!-- Node10 -->
<g id="Node000010" class="node">
<title>Node10</title>
<g id="a_Node000010"><a xlink:title=" ">
<polygon fill="#e0e0e0" stroke="#999999" points="508,-129 461,-129 461,-110 508,-110 508,-129"/>
<text text-anchor="middle" x="484.5" y="-117" font-family="Inter" font-size="10.00">time.h</text>
</a>
</g>
</g>
<!-- Node8&#45;&gt;Node10 -->
<g id="edge9_Node000008_Node000010" class="edge">
<title>Node8&#45;&gt;Node10</title>
<g id="a_edge9_Node000008_Node000010"><a xlink:title=" ">
<path fill="none" stroke="#63b8ff" d="M512.05,-164.75C507.49,-157.42 500.83,-146.73 495.21,-137.7"/>
<polygon fill="#63b8ff" stroke="#63b8ff" points="498.1,-135.73 489.85,-129.09 492.16,-139.43 498.1,-135.73"/>
</a>
</g>
</g>
<!-- Node11 -->
<g id="Node000011" class="node">
<title>Node11</title>
<g id="a_Node000011"><a xlink:title=" ">
<polygon fill="#e0e0e0" stroke="#999999" points="576.5,-129 526.5,-129 526.5,-110 576.5,-110 576.5,-129"/>
<text text-anchor="middle" x="551.5" y="-117" font-family="Inter" font-size="10.00">libintl.h</text>
</a>
</g>
</g>
<!-- Node8&#45;&gt;Node11 -->
<g id="edge10_Node000008_Node000011" class="edge">
<title>Node8&#45;&gt;Node11</title>
<g id="a_edge10_Node000008_Node000011"><a xlink:title=" ">
<path fill="none" stroke="#63b8ff" d="M523.11,-164.75C527.82,-157.42 534.67,-146.73 540.47,-137.7"/>
<polygon fill="#63b8ff" stroke="#63b8ff" points="543.54,-139.4 545.99,-129.09 537.64,-135.62 543.54,-139.4"/>
</a>
</g>
</g>
<!-- Node12 -->
<g id="Node000012" class="node">
<title>Node12</title>
<g id="a_Node000012"><a xlink:title=" ">
<polygon fill="#e0e0e0" stroke="#999999" points="644.5,-129 594.5,-129 594.5,-110 644.5,-110 644.5,-129"/>
<text text-anchor="middle" x="619.5" y="-117" font-family="Inter" font-size="10.00">math.h</text>
</a>
</g>
</g>
<!-- Node8&#45;&gt;Node12 -->
<g id="edge11_Node000008_Node000012" class="edge">
<title>Node8&#45;&gt;Node12</title>
<g id="a_edge11_Node000008_Node000012"><a xlink:title=" ">
<path fill="none" stroke="#63b8ff" d="M533.89,-164.98C550.07,-156.57 575.07,-143.59 593.88,-133.81"/>
<polygon fill="#63b8ff" stroke="#63b8ff" points="595.55,-136.89 602.81,-129.17 592.33,-130.68 595.55,-136.89"/>
</a>
</g>
</g>
<!-- Node13 -->
<g id="Node000013" class="node">
<title>Node13</title>
<g id="a_Node000013"><a xlink:title=" ">
<polygon fill="#e0e0e0" stroke="#999999" points="748,-129 663,-129 663,-110 748,-110 748,-129"/>
<text text-anchor="middle" x="705.5" y="-117" font-family="Inter" font-size="10.00">libsoup/soup.h</text>
</a>
</g>
</g>
<!-- Node8&#45;&gt;Node13 -->
<g id="edge12_Node000008_Node000013" class="edge">
<title>Node8&#45;&gt;Node13</title>
<g id="a_edge12_Node000008_Node000013"><a xlink:title=" ">
<path fill="none" stroke="#63b8ff" d="M547.71,-164.98C579.54,-156.01 629.86,-141.82 665.1,-131.89"/>
<polygon fill="#63b8ff" stroke="#63b8ff" points="666.38,-135.16 675.06,-129.08 664.48,-128.43 666.38,-135.16"/>
</a>
</g>
</g>
<!-- Node14 -->
<g id="Node000014" class="node">
<title>Node14</title>
<g id="a_Node000014"><a xlink:href="mateweather-location_8h.html" target="_top" xlink:title=" ">
<polygon fill="#fff0f0" stroke="red" points="893,-129 766,-129 766,-110 893,-110 893,-129"/>
<text text-anchor="middle" x="829.5" y="-117" font-family="Inter" font-size="10.00">mateweather&#45;location.h</text>
</a>
</g>
</g>
<!-- Node8&#45;&gt;Node14 -->
<g id="edge14_Node000008_Node000014" class="edge">
<title>Node8&#45;&gt;Node14</title>
<g id="a_edge14_Node000008_Node000014"><a xlink:title=" ">
<path fill="none" stroke="#63b8ff" d="M560.23,-166.24C614.37,-157.04 708.02,-141.14 769.37,-130.71"/>
<polygon fill="#63b8ff" stroke="#63b8ff" points="770.03,-134.15 779.3,-129.03 768.85,-127.25 770.03,-134.15"/>
</a>
</g>
</g>
<!-- Node14&#45;&gt;Node6 -->
<g id="edge15_Node000014_Node000006" class="edge">
<title>Node14&#45;&gt;Node6</title>
<g id="a_edge15_Node000014_Node000006"><a xlink:title=" ">
<path fill="none" stroke="#63b8ff" d="M765.9,-110.97C763.06,-110.64 760.25,-110.32 757.5,-110 627.64,-95.06 473.8,-78 401.68,-70.04"/>
<polygon fill="#63b8ff" stroke="#63b8ff" points="401.97,-66.55 391.65,-68.93 401.2,-73.5 401.97,-66.55"/>
</a>
</g>
</g>
</g>
</svg>
